<svg width="24" height="24" viewBox="0 0 24 24" fill="none" xmlns="http://www.w3.org/2000/svg">
<g clip-path="url(#clip0_1049_7487)">
<path fill-rule="evenodd" clip-rule="evenodd" d="M5.40001 7.18001V7.89001C5.41375 8.07915 5.47572 8.26162 5.58001 8.42001C5.70821 8.609 5.87538 8.76836 6.07029 8.88738C6.2652 9.00639 6.48332 9.0823 6.71001 9.11001C7.42843 9.1656 8.15101 9.12863 8.86001 9.00001C9.55001 8.93001 10.38 8.88001 11.23 8.83001C12.08 8.78001 12.87 8.71001 13.63 8.67001C15.4 8.57001 16.84 8.52001 16.84 8.52001C16.8921 8.52135 16.9439 8.51224 16.9923 8.49324C17.0408 8.47424 17.085 8.44573 17.1223 8.40938C17.1595 8.37303 17.1892 8.32958 17.2094 8.2816C17.2296 8.23362 17.24 8.18208 17.24 8.13001C17.2401 8.02465 17.1997 7.92328 17.1271 7.84694C17.0545 7.7706 16.9552 7.72515 16.85 7.72001C16.85 7.72001 13.85 7.51001 11.19 7.54001C10.3 7.54001 9.45001 7.60001 8.74001 7.66001C8.19515 7.76199 7.64379 7.82548 7.09001 7.85001C6.85001 7.85001 6.61001 7.85001 6.50001 7.73001V7.78001C6.31001 7.86001 6.50001 7.25001 6.44001 7.10001C6.38988 6.60836 6.36984 6.1141 6.38001 5.62001C6.38001 5.11334 6.42001 4.61334 6.50001 4.12001H8.70001L11.44 4.05001C12.34 4.05001 13.24 3.95001 14.14 3.96001C14.46 3.96001 15.14 3.86001 15.76 3.89001C16.02 3.89001 16.28 3.89001 16.41 4.00001C16.6624 4.35584 16.8113 4.77468 16.84 5.21001C16.98 6.09001 16.98 7.09001 17.04 7.64001C17.04 7.74344 17.0811 7.84264 17.1542 7.91578C17.2274 7.98892 17.3266 8.03001 17.43 8.03001C17.5334 8.03001 17.6326 7.98892 17.7058 7.91578C17.7789 7.84264 17.82 7.74344 17.82 7.64001C17.8748 6.65744 17.8748 5.67258 17.82 4.69001C17.7729 4.17016 17.5863 3.67266 17.28 3.25001C16.9894 2.95032 16.6045 2.75967 16.19 2.71001C15.5081 2.64795 14.8219 2.64795 14.14 2.71001C13.34 2.71001 12.54 2.71001 11.75 2.82001C9.93001 3.01001 8.14001 3.36001 6.31001 3.51001C6.2331 3.51601 6.16052 3.54799 6.10419 3.60069C6.04786 3.65339 6.01112 3.72367 6.00001 3.80001C5.9583 3.81982 5.92091 3.8477 5.89002 3.88202C5.85913 3.91635 5.83533 3.95645 5.82001 4.00001C5.69596 4.51403 5.60246 5.03494 5.54001 5.56001C5.46248 6.0969 5.41574 6.63778 5.40001 7.18001Z" fill="black"/>
<path fill-rule="evenodd" clip-rule="evenodd" d="M21.84 7.00001C21.75 6.10001 21.72 4.84001 21.5 3.70001C21.3802 2.89437 21.0681 2.12945 20.59 1.47001C20.1893 1.01861 19.6694 0.689344 19.09 0.520007C18.3353 0.288036 17.5572 0.140468 16.77 0.0800071C15.8017 4.40106e-05 14.8284 4.40106e-05 13.86 0.0800071C11.65 0.170007 9.45001 0.580007 7.25001 0.720007C7.14565 0.727709 7.04847 0.775995 6.97931 0.85451C6.91014 0.933024 6.87449 1.03552 6.88001 1.14001C6.8838 1.19259 6.89795 1.2439 6.92165 1.29099C6.94534 1.33809 6.97811 1.38003 7.01807 1.41442C7.05803 1.4488 7.1044 1.47495 7.1545 1.49135C7.2046 1.50776 7.25745 1.5141 7.31001 1.51001C9.49001 1.41001 11.7 1.00001 13.9 1.00001C14.8185 0.925201 15.7415 0.925201 16.66 1.00001C17.374 1.06323 18.0786 1.20749 18.76 1.43001C19.1444 1.55041 19.4897 1.77137 19.76 2.07001C20.1197 2.60178 20.346 3.21231 20.42 3.85001C20.5667 4.91095 20.6535 5.97931 20.68 7.05001C20.81 8.84001 20.89 10.64 20.91 12.44C20.93 14.24 20.91 16.03 20.77 17.82C20.7 19.16 20.77 20.35 20.14 21.17C19.9262 21.4368 19.6612 21.6583 19.3608 21.8214C19.0603 21.9845 18.7302 22.086 18.39 22.12C17.4184 22.2989 16.4364 22.4158 15.45 22.47C13.11 22.62 10.8 22.47 8.36001 22.61C7.41909 22.7056 6.47092 22.7056 5.53001 22.61C4.99754 22.567 4.49125 22.361 4.08001 22.02C3.59614 21.4446 3.28422 20.7445 3.18001 20C2.98012 18.71 2.89312 17.4051 2.92001 16.1C2.92001 13.98 2.74001 11.97 2.74001 9.93001C2.73744 8.56579 2.82429 7.20287 3.00001 5.85001C3.11251 4.98132 3.38368 4.14069 3.80001 3.37001C4.19578 2.61391 4.823 2.0042 5.59001 1.63001C5.63374 1.61365 5.67363 1.58845 5.7072 1.556C5.74077 1.52354 5.7673 1.48452 5.78512 1.44136C5.80295 1.3982 5.81169 1.35184 5.81081 1.30515C5.80993 1.25847 5.79945 1.21246 5.78001 1.17001C5.74089 1.08705 5.67078 1.02277 5.58476 0.990973C5.49873 0.959181 5.40366 0.962425 5.32001 1.00001C4.57525 1.31725 3.93433 1.83691 3.47001 2.50001C2.79706 3.462 2.35869 4.56819 2.19001 5.73001C1.97627 7.10679 1.85931 8.49687 1.84001 9.89001C1.78001 11.89 1.84001 13.95 1.84001 16.08C1.7762 17.4487 1.82973 18.8204 2.00001 20.18C2.12085 21.1888 2.5385 22.1389 3.20001 22.91C3.78403 23.4578 4.52581 23.8077 5.32001 23.91C6.35424 24.046 7.39965 24.0762 8.44001 24C10.9 23.91 13.2 24.05 15.55 23.9C16.5942 23.845 17.6333 23.718 18.66 23.52C19.1728 23.4527 19.667 23.2836 20.1135 23.0226C20.56 22.7615 20.9498 22.4139 21.26 22C21.97 21 22.03 19.56 22.1 17.93C22.19 16.11 22.2 14.29 22.16 12.46C22.12 10.63 22 8.81001 21.84 7.00001Z" fill="black"/>
<path fill-rule="evenodd" clip-rule="evenodd" d="M9 11.41C9.04623 10.9776 8.95898 10.5414 8.75 10.16C8.66204 10.0423 8.54924 9.94549 8.41961 9.87636C8.28999 9.80722 8.14672 9.7675 8 9.76001C7.66523 9.75297 7.33052 9.7764 7 9.83001L5.73 9.93001C5.64345 9.92819 5.55864 9.9545 5.48832 10.005C5.418 10.0555 5.36595 10.1274 5.34 10.21C5.29052 10.1998 5.23948 10.1998 5.19 10.21C5.0961 10.2045 5.00377 10.2359 4.93275 10.2976C4.86173 10.3592 4.81767 10.4463 4.81 10.54C4.81 10.88 4.66 11.28 4.63 11.66C4.59988 11.8622 4.59988 12.0678 4.63 12.27C4.66411 12.4095 4.72596 12.5408 4.81186 12.6559C4.89776 12.771 5.00596 12.8676 5.13 12.94C5.54082 13.1433 5.99171 13.2526 6.45 13.26C6.92445 13.325 7.40555 13.325 7.88 13.26C8.20644 13.2094 8.50794 13.0551 8.74 12.82C8.87883 12.6458 8.97167 12.4395 9.01 12.22C9.02375 11.9501 9.02041 11.6795 9 11.41ZM7.72 11.33C7.64 12.19 8.27 11.99 6.49 11.97C6.25711 11.9905 6.02288 11.9905 5.79 11.97C5.69 11.97 5.58 11.97 5.54 11.91C5.48893 11.765 5.45863 11.6135 5.45 11.46V10.65C5.50834 10.6818 5.57355 10.699 5.64 10.7L7 10.8C8.17 10.83 7.85 10.57 7.76 11.33H7.72Z" fill="black"/>
<path fill-rule="evenodd" clip-rule="evenodd" d="M9 15.6C9.04623 15.1676 8.95898 14.7314 8.75 14.35C8.66305 14.2305 8.5507 14.1317 8.42101 14.0608C8.29133 13.9899 8.14754 13.9487 8 13.94C7.66565 13.9356 7.33142 13.9556 7 14L5.73 14.1C5.64308 14.0965 5.55748 14.1222 5.48681 14.1729C5.41614 14.2236 5.36447 14.2965 5.34 14.38C5.29109 14.3653 5.23891 14.3653 5.19 14.38C5.14322 14.3759 5.09609 14.3813 5.05142 14.3958C5.00676 14.4103 4.96547 14.4336 4.93001 14.4644C4.89455 14.4952 4.86566 14.5328 4.84504 14.575C4.82442 14.6172 4.8125 14.6631 4.81 14.71C4.81 15.05 4.66 15.45 4.63 15.83C4.59988 16.0322 4.59988 16.2378 4.63 16.44C4.66411 16.5795 4.72596 16.7108 4.81186 16.8259C4.89776 16.941 5.00596 17.0376 5.13 17.11C5.54245 17.3087 5.99233 17.4178 6.45 17.43C6.92478 17.4899 7.40522 17.4899 7.88 17.43C8.21586 17.3884 8.52864 17.2372 8.77 17C8.90883 16.8258 9.00167 16.6195 9.04 16.4C9.04341 16.1328 9.03005 15.8656 9 15.6ZM7.72 15.52C7.64 16.38 8.27 16.18 6.49 16.16C6.25711 16.1805 6.02288 16.1805 5.79 16.16C5.69 16.16 5.58 16.16 5.54 16.1C5.48799 15.9518 5.45768 15.7969 5.45 15.64V14.83C5.50564 14.8691 5.572 14.8901 5.64 14.89L7 15C8.17 15 7.85 14.76 7.76 15.52H7.72Z" fill="black"/>
<path fill-rule="evenodd" clip-rule="evenodd" d="M7 18.21L5.73 18.31C5.64308 18.3065 5.55748 18.3321 5.48681 18.3829C5.41615 18.4336 5.36447 18.5065 5.34 18.59C5.29406 18.563 5.24296 18.546 5.19 18.54C5.14271 18.5373 5.09535 18.544 5.05064 18.5596C5.00592 18.5752 4.96474 18.5995 4.92943 18.6311C4.89413 18.6627 4.86541 18.701 4.84492 18.7437C4.82442 18.7864 4.81256 18.8327 4.81 18.88C4.81 19.22 4.66 19.61 4.63 20C4.59983 20.1989 4.59983 20.4011 4.63 20.6C4.66289 20.7413 4.72417 20.8745 4.81012 20.9914C4.89608 21.1083 5.00491 21.2065 5.13 21.28C5.54245 21.4787 5.99234 21.5878 6.45 21.6C6.92479 21.6599 7.40522 21.6599 7.88 21.6C8.20644 21.5494 8.50795 21.3951 8.74 21.16C8.87873 20.9792 8.9683 20.7657 9 20.54C9.01504 20.2869 9.01504 20.0331 9 19.78C9.0448 19.3509 8.95758 18.9183 8.75 18.54C8.66306 18.4205 8.5507 18.3217 8.42102 18.2508C8.29133 18.1799 8.14755 18.1387 8 18.13C7.66516 18.1322 7.33093 18.1589 7 18.21ZM7.78 19.71C7.7 20.57 8.33 20.37 6.55 20.35C6.31712 20.3705 6.08289 20.3705 5.85 20.35C5.75 20.35 5.64 20.35 5.6 20.29C5.548 20.1418 5.51769 19.9869 5.51 19.83V19.02C5.56564 19.0591 5.632 19.0801 5.7 19.08L7 19.18C8.17 19.21 7.85 19 7.76 19.71H7.78Z" fill="black"/>
<path fill-rule="evenodd" clip-rule="evenodd" d="M14.19 11.41C14.2409 10.9774 14.1534 10.5398 13.94 10.16C13.851 10.0411 13.7366 9.94345 13.6051 9.87425C13.4737 9.80506 13.3284 9.76603 13.18 9.76C12.8452 9.7525 12.5105 9.77594 12.18 9.83L10.91 9.93C10.8231 9.92649 10.7375 9.95214 10.6668 10.0029C10.5961 10.0536 10.5445 10.1265 10.52 10.21C10.4672 10.1997 10.4128 10.1997 10.36 10.21C10.314 10.2073 10.268 10.2137 10.2245 10.2288C10.181 10.244 10.1409 10.2675 10.1065 10.2982C10.0721 10.3289 10.0441 10.366 10.0242 10.4075C10.0042 10.449 9.99256 10.494 9.99001 10.54C9.99001 10.88 9.84001 11.28 9.80001 11.66C9.78478 11.8653 9.80508 12.0716 9.86001 12.27C9.8924 12.4089 9.9525 12.5398 10.0367 12.655C10.1209 12.7701 10.2275 12.867 10.35 12.94C10.7613 13.142 11.2119 13.2512 11.67 13.26C12.1478 13.325 12.6322 13.325 13.11 13.26C13.4345 13.2123 13.7337 13.0574 13.96 12.82C14.1065 12.6506 14.2004 12.442 14.23 12.22C14.2338 11.9494 14.2204 11.6789 14.19 11.41ZM12.91 11.33C12.84 12.19 13.47 11.99 11.68 11.97C11.4471 11.9905 11.2129 11.9905 10.98 11.97C10.89 11.97 10.78 11.97 10.74 11.91C10.6809 11.7669 10.6471 11.6146 10.64 11.46V10.65C10.702 10.6816 10.7704 10.6987 10.84 10.7L12.18 10.78C13.31 10.83 13 10.57 12.91 11.33Z" fill="black"/>
<path fill-rule="evenodd" clip-rule="evenodd" d="M12.92 16.07C12.92 16.07 12.83 16.14 12.86 16.15C12.89 16.16 12.95 16.15 12.95 16.07C12.95 15.99 12.92 16.06 12.92 16.07Z" fill="black"/>
<path fill-rule="evenodd" clip-rule="evenodd" d="M14.19 15.6C14.2409 15.1674 14.1534 14.7298 13.94 14.35C13.852 14.2292 13.7381 14.1297 13.6065 14.0587C13.475 13.9878 13.3293 13.9472 13.18 13.94C12.8451 13.9416 12.5109 13.9683 12.18 14.02L10.91 14.12C10.8227 14.1147 10.7362 14.1396 10.6652 14.1906C10.5941 14.2416 10.5429 14.3156 10.52 14.4C10.4677 14.385 10.4123 14.385 10.36 14.4C10.314 14.3973 10.268 14.4037 10.2245 14.4188C10.181 14.434 10.1409 14.4575 10.1065 14.4882C10.0721 14.5189 10.0441 14.556 10.0242 14.5975C10.0042 14.639 9.99256 14.684 9.99001 14.73C9.99001 15.07 9.84001 15.47 9.80001 15.85C9.78478 16.0553 9.80508 16.2616 9.86001 16.46C9.8924 16.5989 9.9525 16.7298 10.0367 16.845C10.1209 16.9601 10.2275 17.057 10.35 17.13C10.7629 17.3276 11.2125 17.4366 11.67 17.45C12.1481 17.5099 12.6319 17.5099 13.11 17.45C13.4345 17.4023 13.7337 17.2474 13.96 17.01C14.1065 16.8406 14.2004 16.632 14.23 16.41C14.2338 16.1394 14.2205 15.8689 14.19 15.6ZM13 15.06C13 15.16 12.94 15.35 12.92 15.52C12.9 15.69 12.98 15.92 12.92 16.07C12.86 16.22 11.92 16.17 11.65 16.16C11.4171 16.1805 11.1829 16.1805 10.95 16.16C10.86 16.16 10.75 16.16 10.71 16.1C10.65 15.9537 10.6161 15.798 10.61 15.64V14.83C10.6693 14.8693 10.7389 14.8902 10.81 14.89L12.15 14.97C12.58 14.97 13.15 14.88 13.03 15.04C12.91 15.2 13 15.07 13 15.06Z" fill="black"/>
<path fill-rule="evenodd" clip-rule="evenodd" d="M12.14 18.21L10.87 18.31C10.7827 18.3047 10.6962 18.3296 10.6252 18.3806C10.5541 18.4316 10.5029 18.5056 10.48 18.59C10.4305 18.563 10.3761 18.546 10.32 18.54C10.2262 18.5373 10.135 18.5713 10.0659 18.6348C9.99676 18.6983 9.95519 18.7863 9.95001 18.88C9.95001 19.22 9.80001 19.61 9.76001 20C9.7441 20.202 9.76442 20.4052 9.82001 20.6C9.85062 20.7409 9.90992 20.874 9.99422 20.991C10.0785 21.108 10.186 21.2064 10.31 21.28C10.7229 21.4776 11.1725 21.5866 11.63 21.6C12.1081 21.6599 12.5919 21.6599 13.07 21.6C13.3945 21.5523 13.6937 21.3974 13.92 21.16C14.0683 20.9878 14.1623 20.7756 14.19 20.55C14.205 20.2969 14.205 20.0431 14.19 19.79C14.243 19.3605 14.1553 18.9254 13.94 18.55C13.852 18.4292 13.7381 18.3297 13.6065 18.2588C13.475 18.1878 13.3293 18.1472 13.18 18.14C12.8321 18.1362 12.4843 18.1596 12.14 18.21ZM12.91 19.71C12.84 20.57 13.47 20.37 11.68 20.35C11.4471 20.3705 11.2129 20.3705 10.98 20.35C10.89 20.35 10.78 20.35 10.74 20.29C10.68 20.1437 10.6461 19.988 10.64 19.83V19.02C10.6993 19.0593 10.7689 19.0802 10.84 19.08L12.18 19.16C13.31 19.21 13 19 12.91 19.71Z" fill="black"/>
<path fill-rule="evenodd" clip-rule="evenodd" d="M18.34 9.76C18.0052 9.7525 17.6705 9.77594 17.34 9.83L16 9.93C15.9121 9.92762 15.8258 9.95355 15.7538 10.004C15.6818 10.0544 15.6279 10.1266 15.6 10.21C15.5505 10.1998 15.4995 10.1998 15.45 10.21C15.404 10.2073 15.358 10.2137 15.3145 10.2288C15.271 10.244 15.2309 10.2675 15.1965 10.2982C15.1621 10.3289 15.1341 10.366 15.1142 10.4075C15.0942 10.449 15.0826 10.494 15.08 10.54C15.08 10.88 14.92 11.28 14.89 11.66C14.8764 11.8647 14.8932 12.0703 14.94 12.27C15.013 12.55 15.1924 12.7904 15.44 12.94C15.8513 13.142 16.3019 13.2512 16.76 13.26C17.2345 13.325 17.7156 13.325 18.19 13.26C18.5174 13.2122 18.8197 13.0575 19.05 12.82C19.1928 12.6482 19.2862 12.4408 19.32 12.22C19.335 11.9669 19.335 11.7131 19.32 11.46C19.3709 11.0274 19.2834 10.5898 19.07 10.21C18.9893 10.0855 18.882 9.98061 18.7557 9.90278C18.6294 9.82495 18.4874 9.77618 18.34 9.76ZM16.84 12C16.6071 12.0205 16.3729 12.0205 16.14 12C16.05 12 15.93 12 15.89 11.94C15.8389 11.795 15.8086 11.6435 15.8 11.49V10.68C15.8615 10.713 15.9302 10.7302 16 10.73L17.34 10.81C18.93 10.84 18.3 12 16.84 12Z" fill="black"/>
<path fill-rule="evenodd" clip-rule="evenodd" d="M17.37 20.06C17.2365 20.0802 17.1001 20.069 16.9717 20.0273C16.8432 19.9857 16.7263 19.9147 16.63 19.82C16.5205 19.7007 16.4415 19.5566 16.4 19.4C16.3184 19.0887 16.2649 18.7708 16.24 18.45C16.2387 18.3979 16.227 18.3466 16.2056 18.2991C16.1842 18.2516 16.1534 18.2089 16.1152 18.1734C16.077 18.138 16.0321 18.1106 15.9831 18.0929C15.9341 18.0751 15.882 18.0673 15.83 18.07C15.7779 18.0713 15.7266 18.083 15.6791 18.1044C15.6316 18.1258 15.5889 18.1566 15.5534 18.1948C15.518 18.233 15.4906 18.2779 15.4729 18.3269C15.4551 18.3759 15.4473 18.428 15.45 18.48C15.4375 18.8651 15.4643 19.2504 15.53 19.63C15.591 19.9323 15.721 20.2163 15.91 20.46C16.0926 20.6849 16.325 20.8643 16.5887 20.984C16.8525 21.1038 17.1405 21.1606 17.43 21.15C17.7329 21.1489 18.0316 21.0791 18.3036 20.9457C18.5756 20.8123 18.8137 20.6189 19 20.38C19.2151 20.0834 19.3588 19.7412 19.42 19.38C19.4697 18.7443 19.4697 18.1057 19.42 17.47C19.4498 17.0205 19.4498 16.5695 19.42 16.12C19.3699 15.7343 19.2257 15.3668 19 15.05C18.8101 14.7898 18.5562 14.583 18.2629 14.4498C17.9696 14.3166 17.6469 14.2614 17.326 14.2895C17.0051 14.3177 16.6969 14.4283 16.4313 14.6106C16.1657 14.7929 15.9517 15.0407 15.81 15.33C15.6649 15.623 15.5832 15.9433 15.57 16.27V17.53C15.5687 17.576 15.5764 17.6218 15.5928 17.6647C15.6092 17.7077 15.6338 17.747 15.6654 17.7805C15.697 17.8139 15.7348 17.8408 15.7768 17.8596C15.8188 17.8784 15.864 17.8887 15.91 17.89C16.0032 17.8903 16.093 17.8555 16.1616 17.7924C16.2302 17.7294 16.2725 17.6428 16.28 17.55C16.28 17.18 16.28 16.77 16.38 16.38C16.4153 16.168 16.4973 15.9665 16.62 15.79C16.7004 15.6701 16.809 15.5718 16.9363 15.5038C17.0636 15.4358 17.2057 15.4002 17.35 15.4C17.4738 15.4031 17.5946 15.439 17.7 15.504C17.8054 15.569 17.8917 15.6608 17.95 15.77C18.0293 15.9287 18.0737 16.1027 18.08 16.28C18.1001 16.6764 18.1001 17.0736 18.08 17.47C18.08 17.92 18.17 18.47 18.15 19C18.1646 19.233 18.1126 19.4654 18 19.67C17.9356 19.7821 17.8442 19.8765 17.7343 19.9446C17.6243 20.0127 17.4991 20.0523 17.37 20.06Z" fill="black"/>
</g>
<defs>
<clipPath id="clip0_1049_7487">
<rect width="24" height="24" fill="white"/>
</clipPath>
</defs>
</svg>
