<svg width="24" height="24" viewBox="0 0 24 24" fill="none" xmlns="http://www.w3.org/2000/svg">
<g clip-path="url(#clip0_1049_7506)">
<path fill-rule="evenodd" clip-rule="evenodd" d="M14.46 5.31C14.4781 5.26869 14.4878 5.22418 14.4885 5.17908C14.4893 5.13398 14.481 5.08918 14.4643 5.0473C14.4475 5.00542 14.4226 4.96729 14.391 4.93514C14.3593 4.90298 14.3216 4.87744 14.28 4.86001C13.7729 4.62894 13.2332 4.47716 12.68 4.41V3.54C12.6888 3.44907 12.6627 3.35817 12.607 3.28575C12.5513 3.21333 12.4702 3.16481 12.38 3.15001C12.3359 3.14297 12.2907 3.14497 12.2474 3.1559C12.2041 3.16682 12.1634 3.18644 12.1278 3.21356C12.0923 3.24067 12.0627 3.27473 12.0407 3.31366C12.0187 3.35258 12.0049 3.39557 12 3.44001C11.92 3.74001 11.87 4.06 11.79 4.37C11.6769 4.36 11.5631 4.36 11.45 4.37C11.0312 4.39043 10.6323 4.55484 10.3207 4.83544C10.0091 5.11604 9.80401 5.49562 9.74 5.91C9.69316 6.12655 9.6921 6.35049 9.73687 6.56748C9.78164 6.78446 9.87127 6.98969 10 7.17001C10.1483 7.34051 10.331 7.47768 10.5361 7.57248C10.7412 7.66728 10.9641 7.71755 11.19 7.72001H11.3V8.32C11.3 8.70001 11.36 9.06001 11.4 9.43001H11.14C10.829 9.34161 10.5373 9.19576 10.28 9.00001C10.1999 8.93782 10.0987 8.9093 9.99784 8.9205C9.89702 8.9317 9.80453 8.98174 9.74 9.06001C9.70767 9.09999 9.68357 9.14598 9.66909 9.19532C9.6546 9.24465 9.65001 9.29637 9.65559 9.34749C9.66117 9.3986 9.6768 9.44811 9.70158 9.49317C9.72636 9.53822 9.75981 9.57793 9.8 9.61C10.1386 9.90536 10.5331 10.1298 10.96 10.27C11.149 10.3268 11.3434 10.3637 11.54 10.38C11.54 10.57 11.54 10.76 11.59 10.94C11.5899 10.9916 11.6004 11.0427 11.6207 11.0902C11.6411 11.1377 11.6708 11.1805 11.7083 11.216C11.7457 11.2516 11.79 11.2792 11.8384 11.297C11.8869 11.3149 11.9384 11.3227 11.99 11.32C12.0416 11.3201 12.0927 11.3096 12.1402 11.2893C12.1877 11.269 12.2305 11.2392 12.266 11.2017C12.3016 11.1643 12.3291 11.12 12.347 11.0716C12.3649 11.0231 12.3727 10.9716 12.37 10.92C12.37 10.72 12.37 10.52 12.42 10.32C12.7622 10.2555 13.088 10.1232 13.3782 9.93081C13.6684 9.73846 13.9173 9.48998 14.11 9.20001C14.2372 8.95623 14.3095 8.6875 14.3216 8.41278C14.3336 8.13806 14.2853 7.86402 14.18 7.61001C14.1109 7.41006 14.0029 7.2258 13.8621 7.06789C13.7214 6.90997 13.5507 6.78153 13.36 6.69001C13.1412 6.60756 12.9126 6.55378 12.68 6.53001V6.13001V5.28001C13.1271 5.28525 13.5714 5.35256 14 5.48001C14.0837 5.51759 14.1787 5.52083 14.2648 5.48904C14.3508 5.45725 14.4209 5.39296 14.46 5.31ZM13 8.82C12.8706 8.98369 12.7067 9.11685 12.52 9.21001C12.52 8.92001 12.57 8.64001 12.59 8.34001C12.61 8.04001 12.59 7.99001 12.59 7.82001C12.6674 7.82851 12.7412 7.85694 12.8043 7.90251C12.8674 7.94808 12.9176 8.00923 12.95 8.08001C13.0247 8.18721 13.0688 8.31271 13.0776 8.44307C13.0864 8.57343 13.0596 8.70373 13 8.82ZM11.3 6.41C11.18 6.41 11.07 6.41001 11.03 6.34001C10.9937 6.30393 10.9666 6.25968 10.9509 6.21096C10.9353 6.16224 10.9315 6.11047 10.94 6.06C10.9559 5.88897 11.0285 5.72815 11.1462 5.60312C11.264 5.4781 11.4202 5.39604 11.59 5.37C11.54 5.6 11.47 5.82001 11.44 6.05001C11.41 6.28001 11.44 6.30001 11.44 6.42001L11.3 6.41Z" fill="black"/>
<path fill-rule="evenodd" clip-rule="evenodd" d="M7.00001 9.68C7.14001 10.92 7.31001 12.16 7.53001 13.38C7.53722 13.425 7.5534 13.468 7.57757 13.5066C7.60175 13.5452 7.63343 13.5786 7.67074 13.6047C7.70804 13.6308 7.75022 13.6491 7.79476 13.6587C7.83929 13.6682 7.88529 13.6686 7.93001 13.66C7.97456 13.654 8.01743 13.639 8.05597 13.6158C8.09451 13.5927 8.12791 13.5619 8.15413 13.5254C8.18035 13.4889 8.19883 13.4474 8.20844 13.4035C8.21805 13.3596 8.21858 13.3141 8.21001 13.27C8.00001 12.05 7.90001 10.83 7.81001 9.6C7.69001 7.76 7.65001 5.91 7.62001 4.06C7.62001 3.56 7.51001 2.81 7.50001 2.11C7.47843 1.85713 7.47843 1.60288 7.50001 1.35C8.11956 1.31659 8.74046 1.31659 9.36001 1.35L15.07 1.42L16.67 1.35C16.72 2.21 16.5 3.94 16.5 4.16C16.5338 6.21598 16.457 8.27228 16.27 10.32C16.1193 11.6723 15.8584 13.0101 15.49 14.32C15.4731 14.3692 15.4666 14.4213 15.4706 14.4732C15.4747 14.525 15.4894 14.5754 15.5138 14.6214C15.5382 14.6673 15.5717 14.7077 15.6123 14.7402C15.653 14.7726 15.6998 14.7964 15.75 14.81C15.7986 14.8253 15.8497 14.8307 15.9004 14.8258C15.9511 14.8209 16.0003 14.8059 16.0451 14.7817C16.0898 14.7574 16.1293 14.7244 16.1611 14.6846C16.1928 14.6448 16.2163 14.599 16.23 14.55C16.6644 13.2099 16.9822 11.8348 17.18 10.44C17.468 8.37116 17.6416 6.28799 17.7 4.2C17.8684 3.15764 17.9686 2.10541 18 1.05C17.9962 0.894754 17.9562 0.742536 17.8833 0.605412C17.8104 0.468289 17.7065 0.350029 17.58 0.260004C17.3691 0.151228 17.1371 0.0897973 16.9 0.0800039C16.36 0.0800039 15.54 0.150004 15.21 0.140004L9.45001 0.0700039C8.69595 0.0435392 7.94098 0.0669235 7.19001 0.140004C7.05215 0.157329 6.92009 0.205992 6.80395 0.282261C6.68781 0.35853 6.59068 0.460381 6.52001 0.580004C6.36975 0.965224 6.29834 1.37668 6.31001 1.79C6.31001 2.58 6.49001 3.52 6.52001 4.1C6.63001 6 6.76001 7.83 7.00001 9.68Z" fill="black"/>
<path fill-rule="evenodd" clip-rule="evenodd" d="M23.62 12.94C23.6933 12.8842 23.7432 12.803 23.7598 12.7124C23.7765 12.6218 23.7587 12.5282 23.71 12.45C23.71 12.45 22.87 10.94 22.57 10.51C22.3835 10.2495 22.1832 9.99915 21.97 9.76C21.7653 9.51895 21.5448 9.29178 21.31 9.08C20.7607 8.57422 20.1722 8.11278 19.55 7.7C19.52 7.66759 19.4837 7.64172 19.4433 7.62403C19.4028 7.60633 19.3591 7.5972 19.315 7.5972C19.2709 7.5972 19.2272 7.60633 19.1867 7.62403C19.1463 7.64172 19.11 7.66759 19.08 7.7C19.0457 7.73094 19.0183 7.76874 18.9995 7.81094C18.9808 7.85315 18.9711 7.89882 18.9711 7.945C18.9711 7.99119 18.9808 8.03686 18.9995 8.07906C19.0183 8.12127 19.0457 8.15906 19.08 8.19C19.08 8.19 19.69 9.09 20.58 10.19C20.88 10.55 21.22 10.91 21.58 11.27C21.94 11.63 22.43 12.16 22.8 12.59C22.8 13.89 22.8 15.37 22.7 16.87C22.682 17.8808 22.5546 18.8867 22.32 19.87C22.0975 20.6496 21.7162 21.3748 21.2 22C20.2 22.49 17.9 22.48 16.66 22.53C15.1 22.59 13.53 22.58 11.96 22.58H9.15H7.27C6.21 22.58 5.17 22.49 4.11 22.45H3C2.28 22.24 2 22.06 1.56 20.55C1.45076 19.8887 1.3906 19.2202 1.38 18.55C1.38 18.04 1.38 17.55 1.32 16.99C1.26 16.43 1.32 16.13 1.32 15.71V13.71L1.24 11.97C1.28084 11.9888 1.32508 11.999 1.37 12C1.80435 11.4988 2.27567 11.0308 2.78 10.6C3.13 10.29 3.47 9.99 3.78 9.69C4.67 8.79 5.33 8 5.33 8C5.36721 7.9741 5.39887 7.94101 5.4231 7.90269C5.44734 7.86436 5.46366 7.82158 5.47112 7.77686C5.47857 7.73213 5.47701 7.68637 5.46651 7.64226C5.45601 7.59814 5.4368 7.55658 5.41 7.52C5.356 7.44701 5.27574 7.39786 5.18618 7.38294C5.09662 7.36801 5.00476 7.38847 4.93 7.44C4.29796 7.74966 3.69834 8.1215 3.14 8.55C2.90363 8.72812 2.67666 8.91838 2.46 9.12C2.25 9.33 2.05 9.55 1.85 9.78C0.14 11.93 0.47 11.67 0.26 13.82C0.19 14.59 1.63913e-07 15.58 1.63913e-07 16.64C-0.025741 17.614 0.0649005 18.5875 0.27 19.54C1 22.78 0.49 22.86 4 23.31C5.07 23.45 6.12 23.66 7.19 23.75C8.07 23.82 8.99 23.89 9.9 23.92C11.24 23.92 12.61 23.92 13.97 23.87C20.85 23.52 22.83 23.43 23.74 19.04C23.9374 18.1 24.0247 17.1402 24 16.18C23.9345 15.0937 23.8077 14.012 23.62 12.94Z" fill="black"/>
<path fill-rule="evenodd" clip-rule="evenodd" d="M3.06001 21.1C3.93001 20.5 4.64001 19.71 5.46001 19.1C6.28001 18.49 7.17001 17.58 8.21001 16.73C8.40001 16.58 8.59001 16.42 8.78001 16.28C9.44162 15.6764 10.2366 15.2378 11.1 15C11.4419 15.0086 11.7717 15.1279 12.04 15.34C12.6286 15.7417 13.1868 16.1862 13.71 16.67C17.52 19.88 16.78 19.13 18.81 20.89C19.26 21.29 19.26 21.29 19.69 21.7C20.12 22.11 20.77 21.49 20.28 21.08C19.6 20.37 19.47 20.24 18.74 19.56C18.01 18.88 17.13 18.09 16.32 17.36C16.88 16.9 17.45 16.45 17.97 15.96C18.49 15.47 18.89 15.05 19.33 14.59C19.9839 13.88 20.6819 13.212 21.42 12.59C21.4622 12.5244 21.4837 12.4478 21.4819 12.3698C21.4801 12.2919 21.4549 12.2163 21.4097 12.1528C21.3645 12.0893 21.3013 12.0408 21.2283 12.0136C21.1553 11.9863 21.0758 11.9816 21 12C20.0174 12.5449 19.0926 13.1882 18.24 13.92C17.7414 14.3536 17.2736 14.8214 16.84 15.32C16.43 15.79 16.05 16.32 15.67 16.78C15.29 16.44 14.91 16.1 14.54 15.78C13.8836 15.1055 13.1522 14.5083 12.36 14C11.9131 13.7391 11.3948 13.627 10.88 13.68C10.067 13.8482 9.29964 14.1892 8.63001 14.68C8.24833 14.9535 7.88428 15.2507 7.54001 15.57C7.08001 15.15 6.64001 14.73 6.13001 14.29C5.80001 14 5.45001 13.73 5.13001 13.45C4.81001 13.17 4.42001 12.91 4.13001 12.63C3.80717 12.3394 3.50634 12.0252 3.23001 11.69C3.20366 11.6466 3.16866 11.6091 3.12718 11.5798C3.08571 11.5505 3.03865 11.5301 2.98893 11.5197C2.93922 11.5094 2.88791 11.5095 2.8382 11.5198C2.7885 11.5302 2.74146 11.5507 2.70001 11.58C2.615 11.6354 2.55491 11.7217 2.53251 11.8207C2.5101 11.9196 2.52714 12.0234 2.58001 12.11C2.98145 12.8426 3.48293 13.5157 4.07001 14.11C4.31289 14.371 4.57351 14.6149 4.85001 14.84C5.11465 15.0697 5.39537 15.2803 5.69001 15.47C6.12001 15.74 6.51001 15.94 6.93001 16.16C6.15001 16.9 5.44001 17.66 4.87001 18.16C4.01441 18.8237 3.23319 19.5781 2.54001 20.41C2.14001 21 2.40001 21.56 3.06001 21.1Z" fill="black"/>
</g>
<defs>
<clipPath id="clip0_1049_7506">
<rect width="24" height="24" fill="white"/>
</clipPath>
</defs>
</svg>
