<svg width="24" height="24" viewBox="0 0 24 24" fill="none" xmlns="http://www.w3.org/2000/svg">
<g clip-path="url(#clip0_1046_5549)">
<path fill-rule="evenodd" clip-rule="evenodd" d="M3.511 0.235999C-0.691996 0.371999 0.0570044 3.464 0.0440044 17.548C0.0440044 19.755 -0.183996 22.152 1.81 23.276C2.998 23.941 4.294 23.902 13.507 23.843C20 23.81 22.543 24.408 23.607 20.676C24.037 18.496 24.115 16.26 23.837 14.056C23.597 2.676 24.201 1.557 21.583 0.695999C19.166 -0.112001 6.049 0.149999 3.511 0.234999V0.235999ZM13.945 1.189C8.969 1.254 2.742 1.501 2.508 1.539C1.06 1.829 1.366 6.497 1.394 17.548C1.412 23.756 0.784004 22.473 18.131 22.544C19.237 22.544 20.823 22.654 21.657 21.908C22.5857 20.5989 23.0214 19.0034 22.887 17.404C22.349 3.981 24.2 1.891 20.663 1.374C18.46 1.052 16.176 1.159 13.945 1.189Z" fill="black"/>
<path fill-rule="evenodd" clip-rule="evenodd" d="M10.235 9.41498C7.37501 9.90798 8.45101 10.011 7.28901 8.81198C5.32001 6.81598 2.21301 8.58898 4.70201 12.033C3.60901 13.208 2.92101 14.548 4.18901 15.546C4.59649 15.844 5.09896 15.9824 5.60155 15.9353C6.10415 15.8881 6.57208 15.6586 6.91701 15.29C8.97001 13.75 7.47901 13.912 10.592 14.286C10.05 15.416 8.95201 17.484 9.47801 18.88C9.62241 19.2605 9.90605 19.5719 10.2715 19.7511C10.6369 19.9302 11.0568 19.9638 11.446 19.845C13.768 19.38 15.039 16.485 16.119 14.712C17.1431 14.8112 18.1766 14.703 19.158 14.394C21.513 13.337 21.585 8.60998 15.547 8.76398C14.8779 7.23269 14.0769 5.76248 13.153 4.36998C11.161 2.06298 7.47901 3.62598 10.235 9.41498ZM15.239 10.015C14.559 10.129 14.605 9.57198 13.719 7.93498C13.139 6.83898 11.967 4.14898 10.915 4.74998C9.71101 5.43998 11.577 9.19498 11.741 9.68198C11.7761 9.77287 11.791 9.87031 11.7847 9.96754C11.7784 10.0648 11.7509 10.1595 11.7043 10.245C11.6577 10.3306 11.593 10.4049 11.5147 10.463C11.4364 10.521 11.3464 10.5613 11.251 10.581C7.73501 11.186 7.56801 11.309 7.26301 10.909C6.80101 10.306 6.35701 9.55598 5.72301 9.29498C5.6562 9.26707 5.58364 9.2557 5.51149 9.26182C5.43935 9.26795 5.36974 9.29139 5.30859 9.33016C5.24744 9.36893 5.19655 9.42189 5.16024 9.48453C5.12393 9.54717 5.10326 9.61765 5.10001 9.68998C5.22738 10.4346 5.57097 11.1252 6.08801 11.676C6.75001 12.572 4.15801 13.829 5.01801 14.499C5.87801 15.169 7.39901 12.582 8.22801 12.674C13.191 13.28 12.745 12.826 11.153 16.152C9.57501 19.319 11.639 19.265 13.435 16.691C14.975 14.445 15.036 13.411 15.765 13.416C17.646 13.434 19.255 13.766 19.358 11.912C19.553 9.67698 17.458 9.66598 15.239 10.015Z" fill="black"/>
</g>
<defs>
<clipPath id="clip0_1046_5549">
<rect width="24" height="24" fill="white"/>
</clipPath>
</defs>
</svg>
