<svg width="24" height="24" viewBox="0 0 24 24" fill="none" xmlns="http://www.w3.org/2000/svg">
<g clip-path="url(#clip0_1030_1836)">
<path d="M21.71 17.25C21.56 16.91 21.29 16.54 21.14 16.17C21.0712 16.0414 21.05 15.8927 21.08 15.75C21.3017 15.0534 21.4721 14.3415 21.59 13.62C21.7708 12.5613 21.8877 11.4927 21.94 10.42C21.9906 9.7543 21.9906 9.08571 21.94 8.42001C21.9146 7.95619 21.8375 7.49667 21.71 7.05001C21.381 5.90228 20.8269 4.83149 20.08 3.90001C20.1794 3.77185 20.2664 3.63457 20.34 3.49001C20.418 3.28768 20.4684 3.07578 20.49 2.86001C20.5725 2.29101 20.4745 1.71047 20.21 1.20001C19.9071 0.66646 19.4144 0.266574 18.83 0.0800071C18.4883 -0.0116132 18.1301 -0.0231854 17.7832 0.0461904C17.4363 0.115566 17.1101 0.26402 16.83 0.480007C16.6282 0.643971 16.4621 0.847388 16.3418 1.0778C16.2214 1.30821 16.1493 1.56077 16.13 1.82001C15.8835 1.80508 15.6364 1.80508 15.39 1.82001C14.8604 1.89192 14.3405 2.02273 13.84 2.21001C12.5263 2.7265 11.3319 3.50574 10.33 4.50001C9.34637 5.43707 8.48612 6.49558 7.76998 7.65001C7.31998 8.36001 6.99998 9.22001 6.57998 10C6.41822 10.303 6.22009 10.5851 5.98998 10.84C5.74373 11.1092 5.46876 11.3506 5.16998 11.56C4.41998 12.1 3.58998 12.49 2.83998 13.05C2.56727 13.2365 2.30674 13.4403 2.05998 13.66C1.86791 13.8326 1.71455 14.0439 1.60998 14.28C1.59028 14.3218 1.57932 14.3672 1.57777 14.4135C1.57622 14.4597 1.58411 14.5057 1.60095 14.5488C1.6178 14.5918 1.64325 14.631 1.67575 14.6639C1.70825 14.6967 1.74712 14.7227 1.78998 14.74C2.22998 14.93 2.31998 14.13 3.92998 13.59C4.73706 13.3453 5.56883 13.1911 6.40998 13.13C7.46158 13.0216 8.52233 13.0384 9.56998 13.18C11.1666 13.3724 12.7429 13.7071 14.28 14.18C15.0499 14.3907 15.7893 14.6999 16.48 15.1C17.1724 15.5029 17.7995 16.0087 18.34 16.6C18.3996 16.669 18.4843 16.7114 18.5752 16.718C18.6662 16.7245 18.756 16.6947 18.825 16.635C18.8939 16.5753 18.9364 16.4907 18.9429 16.3998C18.9495 16.3088 18.9196 16.219 18.86 16.15C18.3071 15.4684 17.6568 14.872 16.93 14.38C16.2046 13.8892 15.4178 13.4959 14.59 13.21C13.2705 12.7377 11.9119 12.383 10.53 12.15C9.11888 11.9251 7.68107 11.9251 6.26998 12.15C5.96998 12.21 5.63998 12.28 5.26998 12.37L5.57998 12.17C5.94293 11.9349 6.27837 11.6599 6.57998 11.35C6.85169 11.0453 7.08663 10.7096 7.27998 10.35C7.70998 9.64001 7.99998 8.80001 8.47998 8.11001C9.19005 7.02572 10.037 6.03756 11 5.17001C11.9171 4.29938 12.998 3.61956 14.18 3.17001C14.6145 3.02209 15.0638 2.92151 15.52 2.87001C15.9565 2.8163 16.3988 2.83319 16.83 2.92001C17.79 3.20139 18.6302 3.79198 19.22 4.60001C19.8726 5.42134 20.3583 6.36232 20.65 7.37001C20.7455 7.74354 20.8058 8.12521 20.83 8.51001C20.8702 9.11934 20.8702 9.73067 20.83 10.34C20.77 11.2 20.7 12.06 20.57 12.92C20.4455 13.7604 20.2549 14.5896 20 15.4C19.8945 15.725 19.8945 16.075 20 16.4C20.1984 16.8702 20.4255 17.3277 20.68 17.77C21.0461 18.5 21.2636 19.2953 21.32 20.11C21.3394 20.5812 21.1866 21.0433 20.89 21.41C20.4775 21.8636 19.9586 22.2073 19.38 22.41C18.4481 22.7684 17.4666 22.9809 16.47 23.04C15.4815 23.0476 14.4942 22.9673 13.52 22.8C12.5306 22.6727 11.5515 22.4756 10.59 22.21C9.58998 21.87 8.49998 21.52 7.48998 21.08C6.82745 20.7986 6.18871 20.4642 5.57998 20.08C4.62428 19.5359 3.76863 18.8324 3.04998 18C2.62517 17.4374 2.33754 16.7834 2.20998 16.09C2.18432 16.0221 2.13565 15.9653 2.07243 15.9296C2.00922 15.8939 1.93548 15.8815 1.86407 15.8946C1.79267 15.9077 1.72812 15.9455 1.68168 16.0013C1.63525 16.0571 1.60987 16.1274 1.60998 16.2C1.74632 16.9904 2.06095 17.7394 2.52998 18.39C3.2701 19.2918 4.15972 20.0596 5.15998 20.66C5.79715 21.0808 6.4658 21.4519 7.15998 21.77C8.15998 22.24 9.25998 22.63 10.3 23C11.3049 23.3076 12.331 23.5416 13.37 23.7C14.4121 23.899 15.4692 24.0094 16.53 24.03C17.6322 23.976 18.7204 23.7603 19.76 23.39C20.523 23.1368 21.2105 22.6968 21.76 22.11C22.2324 21.5521 22.4849 20.8409 22.47 20.11C22.4163 19.1145 22.1575 18.1408 21.71 17.25ZM17 1.91001H16.79C16.8881 1.6392 17.0795 1.41227 17.33 1.27001C17.5054 1.17583 17.6994 1.12161 17.8983 1.11124C18.0971 1.10086 18.2957 1.13459 18.48 1.21001C18.8079 1.30051 19.092 1.5065 19.28 1.79001C19.4984 2.10187 19.6233 2.46961 19.64 2.85001C19.6604 2.98591 19.6604 3.1241 19.64 3.26001C19.64 3.26001 19.64 3.35001 19.59 3.39001C18.8872 2.65753 17.9878 2.1436 17 1.91001Z" fill="black"/>
<path d="M17.9099 20.86C17.485 21.0535 17.0265 21.1622 16.5599 21.18C16.4885 21.193 16.4239 21.2307 16.3774 21.2864C16.3309 21.3421 16.3054 21.4124 16.3054 21.485C16.3054 21.5576 16.3309 21.6279 16.3774 21.6837C16.4239 21.7394 16.4885 21.777 16.5599 21.79C17.2337 21.8023 17.8978 21.6293 18.4799 21.29C18.6315 21.1764 18.7476 21.0222 18.8149 20.8451C18.8822 20.6681 18.8978 20.4756 18.8599 20.29C18.7955 19.9244 18.6408 19.5807 18.4099 19.29C18.1236 18.9128 17.7872 18.5764 17.4099 18.29C16.6475 17.7124 15.8418 17.1942 14.9999 16.74C14.1659 16.301 13.3041 15.9168 12.4199 15.59C11.1913 15.1371 9.92218 14.8022 8.62995 14.59C7.76125 14.4449 6.87826 14.4046 5.99995 14.47C5.45685 14.5306 4.93413 14.7117 4.46995 15C4.28253 15.1019 4.12048 15.2447 3.99583 15.4179C3.87118 15.591 3.78714 15.79 3.74995 16C3.73725 16.4239 3.87546 16.8385 4.13995 17.17C4.46097 17.5827 4.84985 17.9378 5.28995 18.22L7.34995 19.58C7.38803 19.6037 7.4304 19.6196 7.47463 19.6268C7.51886 19.6341 7.56409 19.6326 7.60773 19.6224C7.65137 19.6122 7.69258 19.5934 7.72899 19.5673C7.7654 19.5412 7.79631 19.5081 7.81995 19.47C7.84359 19.432 7.85949 19.3896 7.86676 19.3454C7.87402 19.3011 7.8725 19.2559 7.86229 19.2123C7.85207 19.1686 7.83336 19.1274 7.80723 19.091C7.78109 19.0546 7.74803 19.0237 7.70995 19L5.70995 17.56C5.44658 17.3554 5.20826 17.1205 4.99995 16.86C4.80878 16.6601 4.69836 16.3965 4.68995 16.12C4.68995 15.9 4.93995 15.79 5.14995 15.7C5.44905 15.5785 5.76728 15.5108 6.08995 15.5C6.89497 15.4746 7.70024 15.5417 8.48995 15.7C8.86995 15.76 9.24995 15.85 9.62995 15.94C9.26703 16.3649 9.01866 16.8754 8.9084 17.4232C8.79815 17.971 8.82966 18.5379 8.99995 19.07C9.2012 19.5988 9.54787 20.0599 9.99995 20.4C10.6434 20.888 11.4072 21.1922 12.2099 21.28C13.1893 21.3446 14.157 21.0375 14.9199 20.42C15.4995 19.9208 15.9085 19.2531 16.0899 18.51C16.3599 18.67 16.6399 18.83 16.9099 19.01C17.2522 19.2329 17.5647 19.4984 17.8399 19.8C18 19.9736 18.1165 20.1826 18.1799 20.41C18.2099 20.63 18.0799 20.76 17.9099 20.86ZM14.3199 19.68C13.7361 20.0826 13.022 20.2504 12.3199 20.15C11.7237 20.0705 11.1566 19.8437 10.6699 19.49C10.3587 19.2828 10.1043 19.0009 9.92995 18.67C9.76733 18.2479 9.71504 17.7913 9.77804 17.3434C9.84103 16.8954 10.0172 16.4709 10.2899 16.11C10.9099 16.28 11.5099 16.47 12.0499 16.67C12.9025 16.9532 13.7373 17.2871 14.5499 17.67C14.8499 17.81 15.1299 17.97 15.4199 18.12C15.2413 18.75 14.8533 19.3002 14.3199 19.68Z" fill="black"/>
</g>
<defs>
<clipPath id="clip0_1030_1836">
<rect width="24" height="24" fill="white"/>
</clipPath>
</defs>
</svg>
