<svg width="24" height="24" viewBox="0 0 24 24" fill="none" xmlns="http://www.w3.org/2000/svg">
<g clip-path="url(#clip0_1030_1844)">
<path fill-rule="evenodd" clip-rule="evenodd" d="M21.27 4.62999C17.64 -9.29832e-06 12.23 0.329991 9.34998 1.06999C7.84629 1.45096 6.43483 2.13118 5.19998 3.06999C4.29187 3.74764 3.4603 4.52221 2.71998 5.37999C1.96861 6.26266 1.35501 7.25387 0.89998 8.31999C-0.0472724 10.3974 -0.266423 12.7336 0.27794 14.9509C0.822303 17.1683 2.09838 19.1374 3.89998 20.54C5.66503 21.951 7.7674 22.8776 9.99973 23.2283C12.2321 23.579 14.5173 23.3418 16.63 22.54C18.6441 21.7171 20.3966 20.3621 21.7 18.62C23.0538 16.8992 23.8494 14.8056 23.98 12.62C23.9736 9.73215 23.0218 6.92584 21.27 4.62999ZM20.81 17.91C19.615 19.4576 18.0263 20.656 16.21 21.38C14.297 22.0955 12.2319 22.3058 10.214 21.9905C8.19604 21.6752 6.29349 20.845 4.68998 19.58C3.06328 18.3467 1.89736 16.6034 1.37883 14.629C0.860307 12.6546 1.01917 10.5634 1.82998 8.68999C2.22331 7.71712 2.76286 6.81001 3.42998 5.99999C4.10769 5.15858 4.87561 4.39401 5.71998 3.71999C6.85508 2.82755 8.15732 2.17132 9.54998 1.78999C11.22 1.31999 16.89 0.269991 20.55 5.16999C22.1621 7.30572 23.0234 9.91424 23 12.59C22.8199 14.5428 22.0569 16.3963 20.81 17.91Z" fill="black"/>
<path fill-rule="evenodd" clip-rule="evenodd" d="M21 8.76C20.6634 7.77694 20.1368 6.8697 19.45 6.09C18.74 5.34037 17.9368 4.68501 17.0599 4.14C16.8665 4.0093 16.6384 3.93947 16.405 3.93947C16.1715 3.93947 15.9434 4.0093 15.75 4.14C15.5767 4.34986 15.4382 4.5862 15.34 4.84C14.86 5.92 14.06 8.29 13.47 9.5C13.0938 9.2529 12.6723 9.08295 12.2299 9C11.8094 8.97727 11.3891 9.04903 11 9.21C10.35 8 9.52995 5.65 9.04995 4.59C8.94316 4.3361 8.79815 4.10003 8.61995 3.89C8.44222 3.76245 8.23102 3.68974 8.01244 3.68086C7.79385 3.67197 7.57745 3.72729 7.38995 3.84C6.56621 4.31732 5.81241 4.90623 5.14995 5.59C4.44837 6.41801 3.92422 7.38122 3.60995 8.42C3.25991 9.46649 3.18078 10.5846 3.37995 11.67C3.40048 11.77 3.4475 11.8627 3.51611 11.9384C3.58472 12.014 3.67238 12.0698 3.76995 12.1C3.9251 12.1305 4.08212 12.1505 4.23995 12.16C4.50995 12.16 6.53995 11.9 8.23995 11.75L9.10995 11.69C9.10964 12.0365 9.1883 12.3785 9.33995 12.69C9.55596 13.123 9.90695 13.474 10.34 13.69C10.5547 13.7825 10.7796 13.8497 11.01 13.89C10.12 15 8.00995 16.75 7.10995 17.66C6.86918 17.8743 6.68099 18.1412 6.55995 18.44C6.47995 18.77 6.69995 19.23 7.26995 19.59C8.22251 20.0872 9.22913 20.4731 10.27 20.74C11.4087 20.9273 12.5726 20.8967 13.7 20.65C14.8588 20.4472 15.9466 19.9515 16.86 19.21C16.9611 19.0994 17.0173 18.9549 17.0173 18.805C17.0173 18.6551 16.9611 18.5106 16.86 18.4L16.45 17.95C15.2517 16.676 14.1202 15.3409 13.06 13.95C13.3306 13.8061 13.577 13.6205 13.79 13.4C14.1223 13.0416 14.3656 12.61 14.5 12.14H15.99C17.8499 12.24 20.0999 12.42 20.3799 12.4C20.5381 12.3944 20.6954 12.3743 20.85 12.34C20.9488 12.309 21.0373 12.2517 21.1061 12.1742C21.1748 12.0966 21.2211 12.0019 21.24 11.9C21.4469 10.851 21.364 9.76537 21 8.76ZM8.20995 10.92C6.66995 10.92 4.87995 11.1 4.40995 11.09C4.38315 10.3099 4.50883 9.53199 4.77995 8.8C5.05517 7.92698 5.4966 7.11541 6.07995 6.41C6.45693 6.00916 6.86123 5.63493 7.28995 5.29C7.49422 5.09865 7.7114 4.92157 7.93995 4.76C8.27995 5.17 9.22995 7.42 10.01 8.91C10.12 9.13 10.23 9.34 10.33 9.52C10.1108 9.66603 9.91235 9.84094 9.73995 10.04C9.53074 10.2963 9.36827 10.5874 9.25995 10.9L8.20995 10.92ZM15.65 18.59C14.9449 18.9712 14.181 19.2314 13.39 19.36C12.4217 19.5558 11.4265 19.5795 10.45 19.43C9.82296 19.2753 9.20529 19.085 8.59995 18.86C8.25003 18.7588 7.91411 18.6144 7.59995 18.43L7.99995 18.14C8.63995 17.42 9.70995 16.36 10.56 15.4C10.9282 14.9876 11.2626 14.5461 11.56 14.08C11.56 14.08 11.61 14.08 11.65 14.13C11.8513 14.1699 12.0586 14.1699 12.26 14.13C13.3038 15.6802 14.4357 17.1693 15.65 18.59ZM13.11 12.73C12.9912 12.8969 12.8399 13.0382 12.6651 13.1451C12.4904 13.2521 12.2959 13.3227 12.0932 13.3526C11.8905 13.3825 11.6838 13.3711 11.4857 13.3191C11.2875 13.2671 11.1019 13.1756 10.9399 13.05C10.6202 12.8894 10.3684 12.6199 10.2299 12.29C10.1474 12.0373 10.1413 11.7658 10.2125 11.5096C10.2837 11.2534 10.4289 11.024 10.63 10.85C10.8122 10.6469 11.0385 10.4881 11.2916 10.3858C11.5446 10.2836 11.8177 10.2405 12.09 10.26C12.4487 10.2918 12.7932 10.4158 13.09 10.62C13.2195 10.7036 13.3313 10.8121 13.4188 10.9391C13.5064 11.0661 13.5679 11.2091 13.6 11.36C13.614 11.6095 13.5778 11.8593 13.4937 12.0946C13.4095 12.3299 13.279 12.546 13.11 12.73ZM14.64 11.32V11.24C14.5937 10.7341 14.3664 10.2618 14 9.91C14.14 9.68 14.29 9.41 14.45 9.09C15.13 7.75 15.9299 5.79 16.32 5.14C16.4299 5.31 16.91 5.41 17.18 5.64C17.6513 6.03647 18.0988 6.46055 18.52 6.91C19.089 7.57467 19.5328 8.337 19.83 9.16C20.0938 9.83806 20.2163 10.5629 20.19 11.29L14.64 11.32Z" fill="black"/>
</g>
<defs>
<clipPath id="clip0_1030_1844">
<rect width="24" height="24" fill="white"/>
</clipPath>
</defs>
</svg>
