<svg width="24" height="24" viewBox="0 0 24 24" fill="none" xmlns="http://www.w3.org/2000/svg">
<g clip-path="url(#clip0_1052_8988)">
<path fill-rule="evenodd" clip-rule="evenodd" d="M23.27 8.36005C22.7609 6.74433 21.9122 5.25616 20.7808 3.99538C19.6494 2.73459 18.2614 1.73036 16.71 1.05006C15.8748 0.685371 15.0033 0.410493 14.11 0.230056C11.1651 -0.111914 8.19394 0.596341 5.71999 2.23006C3.75663 3.37276 2.17128 5.06589 1.15999 7.10006C0.665839 8.27379 0.329573 9.50788 0.15999 10.7701C-0.028358 12.0311 -0.0652866 13.3102 0.0499904 14.5801C0.210617 16.0061 0.700135 17.3754 1.47999 18.5801C2.23294 19.7568 3.1679 20.8065 4.24999 21.6901C5.47909 22.7106 6.94917 23.3991 8.51999 23.6901C10.0407 23.9666 11.5931 24.0239 13.13 23.8601C15.4351 23.6753 17.6648 22.9527 19.64 21.7501C20.9855 20.9169 22.0727 19.7258 22.78 18.3101C24.221 15.1809 24.3966 11.6157 23.27 8.36005ZM2.40999 18.0001C1.70586 16.9499 1.25096 15.7528 1.07999 14.5001C0.935272 13.3178 0.935272 12.1223 1.07999 10.9401C1.23186 9.73486 1.54116 8.55479 1.99999 7.43006C2.89975 5.53905 4.32706 3.94852 6.10999 2.85006C6.28999 2.74006 9.84999 0.170056 14 0.930056C14.8378 1.11273 15.6528 1.38775 16.43 1.75006C17.8514 2.37218 19.1106 3.31314 20.11 4.50006C19.7804 4.85415 19.4297 5.18808 19.06 5.50006C18 6.34006 16.88 7.11006 15.9 8.00006C15.1 8.75006 14.3 9.48005 13.51 10.2301C12.32 11.3601 11.15 12.5001 9.99999 13.6701C8.84999 14.8401 7.50999 16.3201 6.28999 17.6701C5.65999 18.3701 4.98999 19.0301 4.35999 19.7301L4.14999 20.0001C3.49665 19.4009 2.91296 18.73 2.40999 18.0001ZM21.84 17.8301C21.0192 19.3602 19.7196 20.5791 18.14 21.3001C16.5457 22.0805 14.8192 22.5554 13.05 22.7001C11.6197 22.8527 10.1749 22.7988 8.75999 22.5401C7.37795 22.2868 6.08362 21.6844 4.99999 20.7901L4.63999 20.4801C4.70813 20.3986 4.78163 20.3217 4.85999 20.2501C5.52999 19.5801 6.24999 18.9601 6.91999 18.3001C7.91999 17.3001 8.86999 16.4101 9.84999 15.4601L12.76 12.6001C14.0231 11.2967 15.2965 10.0034 16.58 8.72006C17.5 7.72006 18.58 6.95006 19.58 6.05006C19.9311 5.73499 20.2649 5.40117 20.58 5.05006C21.9279 6.8561 22.7599 8.99438 22.9871 11.2365C23.2143 13.4786 22.8282 15.7403 21.87 17.7801L21.84 17.8301Z" fill="black"/>
<path fill-rule="evenodd" clip-rule="evenodd" d="M4.22 16.3701C4.26466 16.3728 4.30943 16.3667 4.35171 16.352C4.394 16.3374 4.43299 16.3146 4.46643 16.2848C4.49988 16.2551 4.52713 16.2191 4.54662 16.1788C4.5661 16.1385 4.57745 16.0948 4.58 16.0501L4.75 14.0001L5.06 10.7901C5.06 10.5201 5.06 10.1201 5.15 9.73011C5.1652 9.50506 5.26527 9.29419 5.43 9.14011C5.77609 8.95056 6.16545 8.85408 6.56 8.86011C7.07203 8.83918 7.58267 8.79245 8.09 8.72011C8.40979 8.65696 8.71715 8.54213 9 8.38011C9.28472 8.21753 9.52511 7.98744 9.7 7.71011C9.95207 7.26174 10.1501 6.78509 10.29 6.29011C10.59 5.36011 10.56 5.29011 11.56 5.29011H12.56C13.33 5.29011 14.11 5.35011 14.88 5.29011C14.9247 5.29823 14.9706 5.29644 15.0145 5.28486C15.0584 5.27328 15.0992 5.2522 15.1341 5.22311C15.1689 5.19402 15.197 5.15762 15.2162 5.11649C15.2355 5.07537 15.2455 5.03051 15.2455 4.98511C15.2455 4.9397 15.2355 4.89485 15.2162 4.85372C15.197 4.8126 15.1689 4.7762 15.1341 4.7471C15.0992 4.71801 15.0584 4.69693 15.0145 4.68535C14.9706 4.67378 14.9247 4.67198 14.88 4.68011L11.57 4.42011C11.3112 4.38664 11.0509 4.36661 10.79 4.36011C10.5863 4.36295 10.3894 4.43329 10.23 4.56011C9.88242 4.85798 9.61727 5.24022 9.46 5.67011C9.28122 6.16321 9.05692 6.63859 8.79 7.09011C8.71568 7.21629 8.60855 7.31997 8.48 7.39011C8.10536 7.55631 7.69984 7.6415 7.29 7.64011C6.76597 7.65767 6.24425 7.71787 5.73 7.82011C5.42172 7.89078 5.12981 8.01976 4.87 8.20011C4.57159 8.39101 4.34071 8.67086 4.21 9.00011C4.08162 9.55711 4.03114 10.1292 4.06 10.7001L4 14.0001L3.94 16.0001C3.93344 16.0853 3.95829 16.17 4.00987 16.2382C4.06145 16.3063 4.1362 16.3533 4.22 16.3701Z" fill="black"/>
<path fill-rule="evenodd" clip-rule="evenodd" d="M18.55 9.52002C18.4589 9.52262 18.3724 9.56064 18.3089 9.626C18.2454 9.69136 18.2099 9.7789 18.21 9.87002L18.06 14.67C18.0635 15.0071 18.0231 15.3433 17.94 15.67C17.88 15.87 17.8 16.02 17.61 16.07C17.3021 16.1517 16.9875 16.2053 16.67 16.23C15.91 16.3 15.06 16.31 14.18 16.4L10.53 16.69C10.4902 16.6899 10.4507 16.698 10.4142 16.7138C10.3776 16.7297 10.3447 16.7528 10.3175 16.7819C10.2903 16.811 10.2694 16.8454 10.256 16.8829C10.2427 16.9204 10.2372 16.9603 10.24 17C10.24 17.0403 10.248 17.0801 10.2637 17.1172C10.2794 17.1542 10.3024 17.1878 10.3314 17.2158C10.3603 17.2438 10.3945 17.2656 10.4321 17.2801C10.4697 17.2946 10.5097 17.3014 10.55 17.3L14.23 17.37C15.12 17.37 15.99 17.42 16.76 17.37C17.1564 17.3564 17.5496 17.2926 17.93 17.18C18.1587 17.1159 18.3688 16.9981 18.5428 16.8363C18.7167 16.6746 18.8495 16.4735 18.93 16.25C19.0979 15.7413 19.1591 15.2035 19.11 14.67L18.9 9.86002C18.8974 9.76894 18.8594 9.68246 18.794 9.61897C18.7286 9.55548 18.6411 9.51998 18.55 9.52002Z" fill="black"/>
<path fill-rule="evenodd" clip-rule="evenodd" d="M12.48 9.20009C12.0646 9.03226 11.609 8.99052 11.17 9.08009C10.8325 9.1605 10.5242 9.33369 10.28 9.58009C10.0359 9.88126 9.84017 10.2186 9.69998 10.5801C9.55586 10.9877 9.55586 11.4325 9.69998 11.8401C9.70943 11.8843 9.72759 11.9262 9.75342 11.9633C9.77925 12.0004 9.81221 12.032 9.85039 12.0562C9.88857 12.0804 9.93119 12.0967 9.97576 12.1043C10.0203 12.1118 10.066 12.1104 10.11 12.1001C10.1547 12.0922 10.1973 12.0749 10.2348 12.0493C10.2723 12.0237 10.3039 11.9903 10.3276 11.9516C10.3512 11.9128 10.3664 11.8694 10.3719 11.8243C10.3775 11.7792 10.3734 11.7335 10.36 11.6901C10.3579 11.4818 10.4059 11.276 10.5 11.0901C10.5852 10.952 10.6823 10.8215 10.79 10.7001C10.8894 10.5553 10.9998 10.4182 11.12 10.2901C11.2699 10.0895 11.4802 9.94228 11.72 9.87009C11.9163 9.80048 12.1219 9.76005 12.33 9.7501C12.4082 9.76601 12.4896 9.75019 12.5561 9.70612C12.6227 9.66205 12.6691 9.59333 12.685 9.5151C12.7009 9.43686 12.6851 9.3555 12.641 9.28892C12.5969 9.22235 12.5282 9.17601 12.45 9.16009L12.48 9.20009Z" fill="black"/>
</g>
<defs>
<clipPath id="clip0_1052_8988">
<rect width="24" height="24" fill="white"/>
</clipPath>
</defs>
</svg>
