<svg width="24" height="24" viewBox="0 0 24 24" fill="none" xmlns="http://www.w3.org/2000/svg">
<g clip-path="url(#clip0_1052_8976)">
<path fill-rule="evenodd" clip-rule="evenodd" d="M23.27 8.36005C22.761 6.74433 21.9122 5.25616 20.7808 3.99538C19.6494 2.73459 18.2614 1.73036 16.71 1.05006C15.8748 0.685371 15.0033 0.410493 14.11 0.230056C11.1651 -0.111914 8.19395 0.596341 5.72 2.23006C3.757 3.37009 2.17419 5.06421 1.17 7.10006C0.671255 8.2722 0.334817 9.50693 0.17 10.7701C-0.0183482 12.0311 -0.0552769 13.3102 0.0600002 14.5801C0.220626 16.0061 0.710145 17.3754 1.49 18.5801C2.22854 19.8768 3.23477 21.0014 4.44173 21.8791C5.6487 22.7567 7.02873 23.3672 8.49 23.6701C10.0107 23.9466 11.5631 24.0039 13.1 23.8401C15.4023 23.6567 17.629 22.9339 19.6 21.7301C20.9506 20.9 22.0418 19.7083 22.75 18.2901C24.1956 15.1705 24.3818 11.6135 23.27 8.36005ZM2.41 18.0001C1.70587 16.9499 1.25097 15.7528 1.08 14.5001C0.935282 13.3178 0.935282 12.1223 1.08 10.9401C1.23187 9.73486 1.54117 8.55479 2 7.43006C2.89976 5.53905 4.32707 3.94852 6.11 2.85006C6.29 2.74006 9.86 0.170056 14 0.930056C14.8378 1.11273 15.6528 1.38775 16.43 1.75006C17.8514 2.37218 19.1106 3.31314 20.11 4.50006C19.7804 4.85415 19.4297 5.18808 19.06 5.50006C18 6.34006 16.88 7.11006 15.9 8.00006C15.1 8.75006 14.3 9.48005 13.51 10.2301C12.32 11.3601 11.15 12.5001 10 13.6701C8.85 14.8401 7.51 16.3201 6.29 17.6701C5.66 18.3701 4.99 19.0301 4.36 19.7301L4.15 20.0001C3.49666 19.4009 2.91297 18.73 2.41 18.0001ZM21.84 17.8301C21.0193 19.3602 19.7196 20.5791 18.14 21.3001C16.5457 22.0805 14.8192 22.5554 13.05 22.7001C11.6197 22.8527 10.1749 22.7988 8.76 22.5401C7.37796 22.2868 6.08363 21.6844 5 20.7901L4.64 20.4801C4.72 20.4001 4.78 20.3201 4.86 20.2501C5.53 19.5801 6.25 18.9601 6.92 18.3001C7.92 17.3001 8.87 16.4101 9.85 15.4601C10.83 14.5101 11.8 13.5601 12.76 12.6001C14.0232 11.2967 15.2965 10.0034 16.58 8.72006C17.5 7.72006 18.58 6.95006 19.58 6.05006C19.9311 5.73499 20.2649 5.40117 20.58 5.05006C21.9279 6.8561 22.7599 8.99438 22.9871 11.2365C23.2143 13.4786 22.8282 15.7403 21.87 17.7801L21.84 17.8301Z" fill="black"/>
<path fill-rule="evenodd" clip-rule="evenodd" d="M16.54 11C16.5003 10.9944 16.4599 10.9971 16.4214 11.0079C16.3828 11.0187 16.3469 11.0374 16.3159 11.0627C16.2849 11.0881 16.2594 11.1196 16.2412 11.1553C16.223 11.191 16.2124 11.23 16.21 11.27C16.2059 11.3095 16.2096 11.3493 16.2209 11.3873C16.2323 11.4253 16.2511 11.4607 16.2762 11.4914C16.3013 11.522 16.3322 11.5474 16.3672 11.5661C16.4022 11.5848 16.4405 11.5963 16.48 11.6C16.6947 11.6496 16.8958 11.7461 17.0687 11.8827C17.2416 12.0193 17.3821 12.1926 17.48 12.39C17.8383 12.9917 17.9894 13.6943 17.91 14.39C17.861 14.7685 17.737 15.1333 17.5453 15.4633C17.3536 15.7932 17.0981 16.0816 16.7936 16.3116C16.4891 16.5416 16.1418 16.7086 15.772 16.8027C15.4023 16.8969 15.0174 16.9164 14.64 16.86C14.3802 16.8126 14.144 16.6787 13.97 16.48C13.7817 16.2794 13.6535 16.0299 13.6 15.76C13.6085 15.7112 13.6062 15.6611 13.5932 15.6132C13.5803 15.5654 13.5571 15.521 13.5251 15.483C13.4932 15.4451 13.4534 15.4146 13.4085 15.3937C13.3635 15.3728 13.3146 15.3619 13.265 15.3619C13.2154 15.3619 13.1665 15.3728 13.1215 15.3937C13.0766 15.4146 13.0368 15.4451 13.0049 15.483C12.9729 15.521 12.9497 15.5654 12.9368 15.6132C12.9238 15.6611 12.9215 15.7112 12.93 15.76C12.9486 16.1916 13.1065 16.6056 13.38 16.94C13.6442 17.2991 14.0208 17.5595 14.45 17.68C14.9565 17.8186 15.487 17.8457 16.0049 17.7594C16.5228 17.6731 17.0159 17.4754 17.45 17.18C17.8932 16.8669 18.2619 16.46 18.5298 15.9881C18.7977 15.5162 18.9583 14.9911 19 14.45C18.9965 13.5309 18.6908 12.6384 18.13 11.91C17.9469 11.6521 17.7098 11.4371 17.4352 11.2799C17.1607 11.1228 16.8552 11.0273 16.54 11Z" fill="black"/>
<path fill-rule="evenodd" clip-rule="evenodd" d="M4.67 15.44C4.83687 15.5781 5.02194 15.6925 5.22 15.78C5.49038 15.9052 5.77153 16.0056 6.06 16.08C6.1026 16.0953 6.14795 16.1014 6.19307 16.0979C6.23818 16.0943 6.28203 16.0812 6.32173 16.0595C6.36142 16.0378 6.39605 16.0079 6.42333 15.9718C6.45062 15.9356 6.46993 15.8942 6.48 15.85C6.494 15.8074 6.49941 15.7624 6.49591 15.7176C6.49242 15.6728 6.48008 15.6292 6.45963 15.5892C6.43917 15.5492 6.411 15.5137 6.37674 15.4846C6.34247 15.4556 6.3028 15.4337 6.26 15.42C6.06127 15.346 5.86753 15.2591 5.68 15.16C5.50941 15.0714 5.35136 14.9604 5.21 14.83C4.89768 14.5259 4.65539 14.1574 4.5 13.75C4.35526 13.3742 4.32057 12.9649 4.4 12.57C4.52446 11.9505 4.88254 11.4027 5.4 11.04C5.80575 10.7186 6.31265 10.552 6.83 10.57L6.21 12.57C6.19544 12.6068 6.18829 12.6461 6.18896 12.6856C6.18964 12.7251 6.19811 12.7642 6.21391 12.8004C6.22971 12.8366 6.25252 12.8694 6.28102 12.8968C6.30952 12.9242 6.34316 12.9457 6.38 12.96C6.45583 12.9873 6.53914 12.9849 6.61329 12.9534C6.68744 12.9219 6.74697 12.8635 6.78 12.79L7.64 10.79L7.81 10.9C8.02573 11.0505 8.22074 11.2287 8.39 11.43C8.41118 11.4628 8.43874 11.4909 8.47104 11.5128C8.50334 11.5346 8.53972 11.5498 8.57799 11.5572C8.61627 11.5647 8.65566 11.5644 8.6938 11.5563C8.73195 11.5481 8.76807 11.5324 8.8 11.51C8.86634 11.4652 8.91276 11.3965 8.92953 11.3182C8.94631 11.2399 8.93214 11.1581 8.89 11.09C8.71677 10.8202 8.50826 10.5747 8.27 10.36C8.18278 10.296 8.09269 10.2359 8 10.18L8.13 9.87005L8.59 8.79005C8.73 8.97005 8.89 9.17005 9.06 9.35005C9.23138 9.53561 9.41513 9.70934 9.61 9.87005C9.90243 10.0726 10.1768 10.3002 10.43 10.55C10.6012 10.7067 10.7554 10.881 10.89 11.07C10.9309 11.1512 11.0018 11.2133 11.0876 11.2432C11.1735 11.273 11.2676 11.2683 11.35 11.23C11.4294 11.1874 11.49 11.1164 11.5196 11.0312C11.5492 10.946 11.5458 10.8528 11.51 10.77C11.3812 10.4329 11.2098 10.1137 11 9.82005C10.8046 9.53952 10.5908 9.27227 10.36 9.02005C10.36 9.02005 10.07 8.76005 9.74 8.53005C9.46457 8.33577 9.17735 8.15876 8.88 8.00005V7.87005L10.8 8.26005C11.1323 8.29631 11.4677 8.29631 11.8 8.26005C12.37 8.26005 13.05 8.11005 13.8 8.11005C13.8902 8.11933 13.9803 8.09241 14.0507 8.03521C14.121 7.97801 14.1657 7.89522 14.175 7.80505C14.1843 7.71487 14.1574 7.62471 14.1002 7.55438C14.043 7.48405 13.9602 7.43933 13.87 7.43005C13.3859 7.31971 12.8947 7.24286 12.4 7.20005C11.84 7.20005 11.4 7.20005 11.04 7.08005C10.8734 7.07157 10.7066 7.07157 10.54 7.08005C10.16 7.08005 9.67 7.08005 9.24 7.15005L9.53 6.47005C9.67 6.19005 9.82 5.71005 10.01 5.31005C10.09 5.14005 10.15 4.95005 10.28 4.90005C10.5139 4.83378 10.7572 4.80674 11 4.82005C11.4542 4.80498 11.9089 4.82504 12.36 4.88005C12.4079 4.89697 12.459 4.90326 12.5096 4.89847C12.5602 4.89368 12.6091 4.87793 12.653 4.85232C12.6969 4.8267 12.7347 4.79183 12.7637 4.75013C12.7928 4.70843 12.8124 4.66091 12.8212 4.61086C12.8301 4.56081 12.8279 4.50943 12.8149 4.46031C12.8018 4.41118 12.7783 4.36548 12.7458 4.32639C12.7133 4.28729 12.6727 4.25574 12.6268 4.23392C12.5809 4.2121 12.5308 4.20054 12.48 4.20005C12.008 4.10344 11.5304 4.03664 11.05 4.00005C10.6776 3.96213 10.3014 3.99263 9.94 4.09005C9.65386 4.20456 9.41201 4.40786 9.25 4.67005C8.98518 5.09777 8.74803 5.54201 8.54 6.00005C8.27991 6.45022 8.05909 6.92196 7.88 7.41005C7.63 8.10005 7.43 8.82005 7.17 9.50005L7.09 9.76005C6.69913 9.65957 6.2915 9.64237 5.89355 9.70956C5.49561 9.77674 5.11622 9.92682 4.78 10.15C4.38126 10.4052 4.04131 10.7422 3.78271 11.1388C3.52411 11.5353 3.35275 11.9823 3.28 12.45C3.21573 13.0477 3.32327 13.6513 3.59 14.19C3.8591 14.6773 4.22695 15.1031 4.67 15.44Z" fill="black"/>
<path fill-rule="evenodd" clip-rule="evenodd" d="M13.5 14.2501C13.7491 14.3372 14.0029 14.4106 14.26 14.4701C14.3695 14.4853 14.4805 14.4853 14.59 14.4701C14.6995 14.485 14.8105 14.485 14.92 14.4701C15.1915 14.4107 15.4563 14.3236 15.71 14.2101C15.7503 14.2088 15.7899 14.1995 15.8265 14.1826C15.8631 14.1657 15.8959 14.1416 15.923 14.1117C15.95 14.0818 15.9708 14.0468 15.9841 14.0087C15.9973 13.9707 16.0027 13.9303 16 13.8901C15.9949 13.8096 15.9586 13.7343 15.8988 13.6802C15.8391 13.6261 15.7606 13.5973 15.68 13.6001C15.42 13.5401 15.21 13.4301 14.94 13.3701H14.62C14.5102 13.3602 14.3998 13.3602 14.29 13.3701C14.0269 13.4158 13.7665 13.4759 13.51 13.5501C13.4655 13.5473 13.4209 13.5538 13.379 13.5693C13.3371 13.5847 13.299 13.6087 13.267 13.6398C13.2349 13.6709 13.2098 13.7083 13.1931 13.7497C13.1764 13.7911 13.1685 13.8355 13.17 13.8801C13.1659 13.9264 13.1713 13.973 13.1859 14.0171C13.2005 14.0612 13.224 14.1018 13.2549 14.1365C13.2859 14.1712 13.3236 14.1991 13.3657 14.2187C13.4079 14.2382 13.4536 14.2489 13.5 14.2501Z" fill="black"/>
</g>
<defs>
<clipPath id="clip0_1052_8976">
<rect width="24" height="24" fill="white"/>
</clipPath>
</defs>
</svg>
