<svg width="24" height="24" viewBox="0 0 24 24" fill="none" xmlns="http://www.w3.org/2000/svg">
<g clip-path="url(#clip0_1052_8994)">
<path fill-rule="evenodd" clip-rule="evenodd" d="M11.72 11.9199C10.62 11.9199 9.88999 11.8699 9.06999 11.9199C8.56999 11.9199 8.06999 11.9999 7.33999 12.0399C6.60999 12.0799 5.88999 12.1299 5.15999 12.2299C4.82145 12.2723 4.48698 12.3425 4.15999 12.4399C4.09496 12.4545 4.03565 12.4879 3.98942 12.5359C3.9432 12.5839 3.9121 12.6444 3.89999 12.7099C3.86111 12.7182 3.82427 12.7341 3.79161 12.7568C3.75894 12.7794 3.7311 12.8083 3.7097 12.8418C3.6883 12.8753 3.67377 12.9127 3.66695 12.9519C3.66013 12.991 3.66117 13.0312 3.66999 13.0699C3.76999 13.8899 3.66999 14.6999 3.73999 15.5199C3.73999 15.8799 3.79999 16.2399 3.83999 16.5899C3.86272 16.9472 3.91625 17.3019 3.99999 17.6499C4.05759 17.8321 4.17356 17.9902 4.32999 18.0999C4.5654 18.2266 4.82383 18.3048 5.08999 18.3299C5.42231 18.3667 5.75767 18.3667 6.08999 18.3299C6.18106 18.3248 6.26651 18.2842 6.32815 18.217C6.38979 18.1498 6.42274 18.0611 6.41999 17.9699C6.42649 17.9153 6.41961 17.8598 6.39995 17.8084C6.38029 17.757 6.34843 17.7111 6.30712 17.6747C6.2658 17.6383 6.21627 17.6125 6.16277 17.5994C6.10927 17.5864 6.05341 17.5866 5.99999 17.5999C5.77489 17.5911 5.55084 17.5644 5.32999 17.5199C5.18661 17.4963 5.05011 17.4417 4.92999 17.3599C4.92999 17.2799 4.98999 17.0699 4.99999 16.9499C5.0138 16.7936 5.0138 16.6363 4.99999 16.4799C4.93999 16.0099 4.91999 15.5399 4.83999 15.0699C4.73164 14.39 4.56434 13.7208 4.33999 13.0699C4.63255 13.0398 4.92743 13.0398 5.21999 13.0699C5.95999 13.0699 6.71999 13.1799 7.42999 13.1899C8.13999 13.1999 8.67999 13.0999 9.18999 13.0299C9.98999 12.9099 10.69 12.7299 11.77 12.5499C11.8414 12.5369 11.906 12.4993 11.9525 12.4436C11.9991 12.3878 12.0245 12.3175 12.0245 12.2449C12.0245 12.1723 11.9991 12.102 11.9525 12.0463C11.906 11.9906 11.8414 11.9529 11.77 11.9399L11.72 11.9199Z" fill="black"/>
<path fill-rule="evenodd" clip-rule="evenodd" d="M24 12.29C23.9695 12.1569 23.9121 12.0314 23.8312 11.9214C23.7504 11.8113 23.6479 11.7189 23.53 11.65C23.2641 11.5037 22.9718 11.4119 22.67 11.38C22.2937 11.3554 21.9163 11.3554 21.54 11.38L18.94 11.46H18.39C17.67 11.62 17.21 11.96 17.14 12.55C17.07 13.14 17 13.8 17 14.38V15.74V17.23H16.74C10.62 17.44 11.41 17.4 10.81 17.45C10.21 17.5 9.51999 18.17 10.21 18.17H11.86L20.01 18.28H21.54C21.8729 18.3028 22.207 18.3028 22.54 18.28C22.7344 18.2587 22.9237 18.2046 23.1 18.12C23.3865 17.9901 23.6145 17.7584 23.74 17.47C23.8604 17.1661 23.9346 16.8459 23.96 16.52C24.01 16.1 24.04 15.68 24.05 15.25V13.39C24.0762 13.0226 24.0594 12.6535 24 12.29ZM23 13.41C23 14.01 23 14.62 22.94 15.23C22.94 15.62 22.89 16.01 22.84 16.4C22.8306 16.5518 22.8072 16.7025 22.77 16.85C22.77 16.94 22.77 17.05 22.64 17.09C22.5322 17.1364 22.4171 17.1635 22.3 17.17H21.52H19C18.28 17.17 18.44 17.17 17.72 17.22C17.8357 16.7817 17.9291 16.3378 18 15.89C18.0494 15.5923 18.0794 15.2916 18.09 14.99C18.1097 14.687 18.1097 14.383 18.09 14.08C18.0257 13.4574 17.9221 12.8395 17.78 12.23H18.91L21.48 12.29C21.8144 12.2947 22.1482 12.3181 22.48 12.36C22.6523 12.3863 22.8184 12.4439 22.97 12.53L23 13.41Z" fill="black"/>
<path fill-rule="evenodd" clip-rule="evenodd" d="M10.68 17C12.2624 15.8641 13.7597 14.6141 15.16 13.26C20.76 8.44 18.82 10.09 19.57 9.47C20.85 8.41 22.15 7.38 23.49 6.4C23.5435 6.35005 23.5799 6.2846 23.5943 6.21286C23.6086 6.14111 23.6001 6.06667 23.57 6C23.5449 5.962 23.5124 5.92944 23.4744 5.90425C23.4365 5.87906 23.3938 5.86175 23.3491 5.85336C23.3043 5.84496 23.2583 5.84565 23.2138 5.85538C23.1693 5.86511 23.1272 5.88368 23.09 5.91C21.2269 7.16055 19.4217 8.49526 17.68 9.91C16.3467 10.93 15.05 11.9767 13.79 13.05C12.51 14 11.26 15.12 10 16.18C9.44 16.67 8.86 17.18 8.28 17.61C8.24991 17.6198 8.22204 17.6354 8.19802 17.656C8.17399 17.6766 8.15427 17.7018 8.14 17.73C7.05 18.6 6 19.47 4.93 20.37C4.2 21 3.49 21.6 2.81 22.26C2.75503 22.3161 2.72424 22.3915 2.72424 22.47C2.72424 22.5485 2.75503 22.6239 2.81 22.68C2.83719 22.71 2.87036 22.734 2.9074 22.7505C2.94443 22.7669 2.98449 22.7754 3.025 22.7754C3.06551 22.7754 3.10557 22.7669 3.1426 22.7505C3.17964 22.734 3.21281 22.71 3.24 22.68C3.94 22.08 4.66 21.49 5.42 20.93C8 19.07 8.65 18.34 10.68 17Z" fill="black"/>
<path fill-rule="evenodd" clip-rule="evenodd" d="M2.09999 14.9999C2.04972 14.1901 1.84967 13.3967 1.50999 12.6599C1.48073 12.5851 1.42436 12.5239 1.3521 12.4887C1.27984 12.4535 1.19698 12.4468 1.11999 12.4699C1.0436 12.4972 0.980926 12.5532 0.945406 12.6261C0.909887 12.6991 0.904353 12.783 0.929992 12.8599C1.00519 13.5044 1.00519 14.1554 0.929992 14.7999V16.1599C0.967033 16.9583 1.12205 17.7469 1.38999 18.4999C1.3993 18.5439 1.4175 18.5855 1.44347 18.6223C1.46945 18.659 1.50265 18.69 1.54105 18.7134C1.57944 18.7368 1.62222 18.7521 1.66675 18.7584C1.71128 18.7647 1.75662 18.7618 1.79999 18.7499C1.84437 18.7394 1.8862 18.7201 1.92297 18.6932C1.95974 18.6662 1.99071 18.6321 2.01403 18.5929C2.03736 18.5537 2.05256 18.5103 2.05874 18.4651C2.06492 18.4199 2.06194 18.3739 2.04999 18.3299C1.98227 17.665 1.98227 16.9949 2.04999 16.3299C2.09493 15.8881 2.11163 15.4439 2.09999 14.9999Z" fill="black"/>
<path fill-rule="evenodd" clip-rule="evenodd" d="M2.99999 8.40996C2.84569 7.69384 2.5536 7.01457 2.13999 6.40996C1.75693 5.90582 1.42212 5.36678 1.13999 4.79996C1.02411 4.53768 0.974443 4.25095 0.995367 3.96498C1.01629 3.67901 1.10716 3.40257 1.25999 3.15996C1.62209 2.57568 2.13743 2.10184 2.74999 1.78996C2.78629 1.77376 2.81901 1.75051 2.84624 1.72156C2.87348 1.69262 2.89469 1.65854 2.90865 1.62133C2.9226 1.58411 2.92903 1.54449 2.92754 1.50477C2.92605 1.46505 2.91669 1.42603 2.89999 1.38996C2.86525 1.31593 2.80267 1.25864 2.72587 1.23054C2.64908 1.20245 2.5643 1.20583 2.48999 1.23996C1.57375 1.57982 0.803451 2.22645 0.30999 3.06996C0.139883 3.38793 0.0362071 3.73718 0.00526371 4.09646C-0.0256797 4.45575 0.0167555 4.81758 0.12999 5.15996C0.421454 5.81102 0.783631 6.42807 1.20999 6.99996C1.58784 7.48061 1.88196 8.02152 2.07999 8.59996C2.14141 8.81214 2.14982 9.03616 2.10449 9.25235C2.05916 9.46854 1.96147 9.67031 1.81999 9.83996C1.73006 9.94653 1.62955 10.0437 1.51999 10.13C1.40225 10.2213 1.27865 10.3048 1.14999 10.38C1.11059 10.4016 1.07585 10.4308 1.04775 10.4659C1.01964 10.501 0.998722 10.5413 0.986186 10.5845C0.97365 10.6277 0.969741 10.6729 0.974684 10.7176C0.979626 10.7623 0.993322 10.8056 1.01499 10.845C1.03666 10.8844 1.06587 10.9191 1.10097 10.9472C1.13606 10.9753 1.17635 10.9962 1.21953 11.0088C1.26271 11.0213 1.30794 11.0252 1.35263 11.0203C1.39732 11.0153 1.44059 11.0016 1.47999 10.98C1.66231 10.8886 1.83631 10.7816 1.99999 10.66C2.1308 10.5775 2.2516 10.4802 2.35999 10.37C2.62159 10.1225 2.81717 9.81356 2.92895 9.47125C3.04073 9.12894 3.06515 8.76411 2.99999 8.40996Z" fill="black"/>
<path fill-rule="evenodd" clip-rule="evenodd" d="M4.76 7.08994C4.93665 7.39828 5.0521 7.73783 5.1 8.08994C5.1297 8.33455 5.09524 8.58268 5 8.80994C4.81038 9.21336 4.56829 9.58995 4.28 9.92994C4.21587 9.99537 4.17995 10.0833 4.17995 10.1749C4.17995 10.2666 4.21587 10.3545 4.28 10.4199C4.34494 10.4811 4.43078 10.5152 4.52 10.5152C4.60921 10.5152 4.69506 10.4811 4.76 10.4199C5.13981 10.0685 5.4756 9.67226 5.76 9.23994C5.98215 8.86392 6.10276 8.43662 6.11 7.99994C6.11771 7.62774 6.05319 7.25758 5.92 6.90994C5.60494 6.31939 5.35673 5.69553 5.18 5.04994C5.13511 4.79563 5.15576 4.53407 5.24 4.28994C5.33618 3.99394 5.46356 3.709 5.62 3.43994C5.70427 3.29244 5.80491 3.1549 5.92 3.02994C6.03675 2.89989 6.16383 2.7795 6.3 2.66994C6.36634 2.62511 6.41275 2.55635 6.42953 2.47806C6.44631 2.39977 6.43214 2.31802 6.39 2.24994C6.34456 2.19258 6.27911 2.15452 6.20678 2.14339C6.13445 2.13226 6.06058 2.14889 6 2.18994C5.81137 2.29132 5.63376 2.41196 5.47 2.54994C5.29906 2.68429 5.14165 2.835 5 2.99994C4.69748 3.34974 4.4512 3.74445 4.27 4.16994C4.14362 4.48761 4.08569 4.82836 4.1 5.16994C4.12236 5.41579 4.17613 5.65776 4.26 5.88994C4.39473 6.30252 4.56191 6.70377 4.76 7.08994Z" fill="black"/>
</g>
<defs>
<clipPath id="clip0_1052_8994">
<rect width="24" height="24" fill="white"/>
</clipPath>
</defs>
</svg>
