<svg width="24" height="24" viewBox="0 0 24 24" fill="none" xmlns="http://www.w3.org/2000/svg">
<g clip-path="url(#clip0_1052_9006)">
<path fill-rule="evenodd" clip-rule="evenodd" d="M24 14.3C23.9682 14.1582 23.9074 14.0246 23.8213 13.9075C23.7353 13.7905 23.6258 13.6926 23.5 13.62C23.2308 13.4614 22.9307 13.3625 22.62 13.33C22.2404 13.3055 21.8596 13.3055 21.48 13.33H18C17.29 13.33 16.58 13.4 15.86 13.45C14.8 13.53 13.74 13.64 12.69 13.73L7.37999 14.24C6.67999 14.3 5.91999 14.24 5.18999 14.3C4.85321 14.3234 4.51883 14.3736 4.18999 14.45C4.12758 14.4644 4.07072 14.4966 4.02633 14.5428C3.98193 14.589 3.95194 14.6471 3.93999 14.71C3.8628 14.729 3.79589 14.777 3.75308 14.844C3.71027 14.911 3.69485 14.9919 3.70999 15.07C3.80997 15.5215 3.88012 15.9792 3.91999 16.44C3.99999 17.14 4.02999 17.85 4.09999 18.56V19.44C4.11936 19.6482 4.21141 19.8429 4.35999 19.99C4.58733 20.1708 4.85487 20.2943 5.13999 20.35C5.68194 20.4048 6.22804 20.4048 6.76999 20.35L8.39999 20.29H10.89H19H21.41C21.7596 20.3147 22.1104 20.3147 22.46 20.29C22.6509 20.2674 22.8368 20.2133 23.01 20.13C23.2965 20 23.5245 19.7684 23.65 19.48C23.775 19.181 23.8493 18.8633 23.87 18.54C23.9281 18.119 23.9615 17.6949 23.97 17.27V15.41C24.0233 15.0424 24.0333 14.6699 24 14.3ZM10.83 19.35L8.33999 19.45L6.68999 19.56C6.26862 19.6108 5.84439 19.6341 5.41999 19.63C5.20186 19.6315 4.98865 19.5651 4.80999 19.44L4.73999 18.44C4.64999 17.74 4.58999 17.03 4.49999 16.32C4.45098 15.8994 4.37752 15.482 4.27999 15.07C4.57982 15.0132 4.885 14.9897 5.18999 15H7.38999L12.71 14.61C13.77 14.55 14.82 14.47 15.88 14.42H16.18C16.18 15.12 16.07 15.77 16.04 16.42V17.78V19.25L10.83 19.35ZM22.83 15.43V17.24C22.83 17.63 22.83 18.03 22.74 18.41C22.7222 18.5614 22.6955 18.7117 22.66 18.86C22.66 18.95 22.66 19.06 22.54 19.1C22.4322 19.1464 22.3171 19.1735 22.2 19.18H21.42H19.01L16.85 19.23C16.96 18.79 17.05 18.35 17.12 17.92C17.19 17.49 17.19 17.32 17.2 17.02C17.21 16.72 17.2 16.42 17.2 16.12C17.139 15.5445 17.0422 14.9734 16.91 14.41H18.02H21.46C21.7943 14.4061 22.1285 14.4261 22.46 14.47C22.6062 14.4839 22.7485 14.5246 22.88 14.59C22.61 14.69 22.83 15.19 22.83 15.43Z" fill="black"/>
<path fill-rule="evenodd" clip-rule="evenodd" d="M2.1 17C2.04738 16.1959 1.84383 15.4088 1.5 14.68C1.48752 14.6426 1.4678 14.608 1.44195 14.5782C1.4161 14.5484 1.38463 14.524 1.34935 14.5063C1.31406 14.4887 1.27565 14.4782 1.23629 14.4754C1.19694 14.4726 1.15742 14.4776 1.12 14.49C1.08257 14.5025 1.04797 14.5222 1.01816 14.5481C0.988361 14.5739 0.96394 14.6054 0.946297 14.6407C0.928654 14.676 0.918134 14.7144 0.915337 14.7537C0.91254 14.7931 0.917522 14.8326 0.929998 14.87C1.00519 15.5145 1.00519 16.1655 0.929998 16.81V18.16C0.963673 18.958 1.11532 19.7465 1.38 20.5C1.40356 20.5883 1.46066 20.6638 1.53913 20.7105C1.6176 20.7572 1.71121 20.7714 1.8 20.75C1.88822 20.7265 1.96375 20.6694 2.01046 20.5909C2.05716 20.5124 2.07135 20.4188 2.05 20.33C1.98497 19.6817 1.98497 19.0284 2.05 18.38C2.09166 17.9213 2.10835 17.4606 2.1 17Z" fill="black"/>
<path fill-rule="evenodd" clip-rule="evenodd" d="M2.15999 8.41997C1.78212 7.91228 1.44761 7.37371 1.15999 6.80997C1.04517 6.54789 0.995212 6.26199 1.01436 5.97651C1.03351 5.69102 1.1212 5.41436 1.26999 5.16997C1.63406 4.60469 2.14122 4.14582 2.73999 3.83997C2.77629 3.82377 2.80901 3.80052 2.83625 3.77157C2.86348 3.74263 2.8847 3.70855 2.89865 3.67134C2.91261 3.63412 2.91903 3.5945 2.91754 3.55478C2.91606 3.51506 2.90669 3.47604 2.88999 3.43997C2.8738 3.40367 2.85055 3.37095 2.8216 3.34371C2.79265 3.31648 2.75858 3.29526 2.72137 3.28131C2.68415 3.26735 2.64453 3.26093 2.60481 3.26242C2.56509 3.2639 2.52606 3.27327 2.48999 3.28997C1.57034 3.62311 0.795793 4.26679 0.299994 5.10997C0.134531 5.42786 0.0342576 5.77562 0.00506419 6.13281C-0.0241292 6.49 0.0183457 6.84942 0.129994 7.18997C0.41786 7.83352 0.780345 8.44101 1.20999 8.99997C1.58208 9.47911 1.87265 10.0163 2.06999 10.59C2.13141 10.8022 2.13982 11.0262 2.09449 11.2424C2.04916 11.4586 1.95147 11.6603 1.80999 11.83C1.72342 11.9332 1.62622 12.0271 1.51999 12.11C1.40304 12.2024 1.27937 12.2859 1.14999 12.36C1.0691 12.4024 1.00838 12.4752 0.98119 12.5624C0.953997 12.6496 0.96256 12.7441 1.00499 12.825C1.04743 12.9059 1.12026 12.9666 1.20746 12.9938C1.29467 13.021 1.3891 13.0124 1.46999 12.97C1.65458 12.8925 1.83194 12.7988 1.99999 12.69C2.12878 12.601 2.24927 12.5006 2.35999 12.39C2.62699 12.1381 2.82507 11.8221 2.93534 11.472C3.04562 11.1219 3.06444 10.7494 2.98999 10.39C2.84409 9.68557 2.56216 9.0164 2.15999 8.41997Z" fill="black"/>
<path fill-rule="evenodd" clip-rule="evenodd" d="M4.74998 9.12001C4.92663 9.42835 5.04208 9.7679 5.08998 10.12C5.11968 10.3646 5.08522 10.6128 4.98998 10.84C4.79666 11.2414 4.55485 11.6175 4.26998 11.96C4.21163 12.029 4.18307 12.1183 4.19057 12.2083C4.19807 12.2983 4.24103 12.3817 4.30998 12.44C4.37894 12.4984 4.46825 12.5269 4.55827 12.5194C4.64828 12.5119 4.73163 12.469 4.78998 12.4C5.17219 12.0509 5.50824 11.6543 5.78998 11.22C5.9883 10.8761 6.09504 10.487 6.09998 10.09C6.10296 9.71819 6.03859 9.3489 5.90998 9.00001C5.59214 8.39676 5.34388 7.75933 5.16998 7.10001C5.12549 6.849 5.14615 6.59076 5.22998 6.35001C5.32086 6.05363 5.44499 5.76848 5.59998 5.50001C5.69099 5.35699 5.7912 5.22003 5.89998 5.09001C6.0202 4.95983 6.15061 4.83944 6.28998 4.73001C6.32418 4.70887 6.35361 4.68085 6.3764 4.64772C6.39919 4.6146 6.41484 4.5771 6.42236 4.53761C6.42988 4.49811 6.42911 4.45748 6.4201 4.4183C6.41108 4.37912 6.39401 4.34224 6.36998 4.31001C6.32689 4.25619 6.26658 4.21886 6.19919 4.20429C6.13181 4.18972 6.06146 4.1988 5.99998 4.23001C5.81602 4.33389 5.64196 4.45439 5.47998 4.59001C5.30943 4.71382 5.14893 4.85091 4.99998 5.00001C4.69746 5.34981 4.45118 5.74452 4.26998 6.17001C4.14301 6.48751 4.08506 6.82839 4.09998 7.17001C4.10195 7.45086 4.14233 7.73011 4.21998 8.00001C4.36958 8.38556 4.54671 8.75986 4.74998 9.12001Z" fill="black"/>
</g>
<defs>
<clipPath id="clip0_1052_9006">
<rect width="24" height="24" fill="white"/>
</clipPath>
</defs>
</svg>
