<svg width="24" height="24" viewBox="0 0 24 24" fill="none" xmlns="http://www.w3.org/2000/svg">
<g clip-path="url(#clip0_1031_2960)">
<path fill-rule="evenodd" clip-rule="evenodd" d="M23.3 9.4C22.9815 8.00603 22.3677 6.69659 21.5 5.56C20.5709 3.68668 19.0962 2.13871 17.27 1.12C15.1975 0.0901581 12.8529 -0.259774 10.57 0.12C8.30561 0.435436 6.15291 1.30064 4.30002 2.64C2.91447 3.63514 1.8674 5.03123 1.30002 6.64C1.12419 7.17004 1.02322 7.72204 1.00002 8.28C0.621123 9.34412 0.482894 10.479 0.59529 11.603C0.707686 12.7269 1.06791 13.812 1.65002 14.78C2.27028 15.7388 3.08861 16.5538 4.05002 17.17C4.98989 17.781 6.02361 18.2337 7.11002 18.51C7.46652 18.5894 7.82704 18.6495 8.19002 18.69C8.71866 18.7366 9.24951 18.7533 9.78002 18.74H10.52C10.6299 18.7356 10.7356 18.6964 10.8219 18.6281C10.9081 18.5598 10.9705 18.466 11 18.36C11.0689 18.0109 11.1024 17.6558 11.1 17.3C11.1 16.8 11.03 14.03 11.16 13.05C11.38 11.33 11.66 9.4 11.83 8.74V8.54L12.93 9.33L18.93 13.48C18.863 13.6259 18.8062 13.7762 18.76 13.93C18.7506 14.0465 18.7506 14.1635 18.76 14.28C18.7452 14.3995 18.7452 14.5205 18.76 14.64C18.76 14.81 18.84 14.97 18.88 15.13L17.22 13.76C16.64 13.28 16.07 12.76 15.48 12.34C14.48 11.57 13.48 10.86 12.48 10.06C12.4502 10.0292 12.4144 10.0046 12.3749 9.98787C12.3354 9.97112 12.2929 9.96249 12.25 9.96249C12.2071 9.96249 12.1646 9.97112 12.1251 9.98787C12.0856 10.0046 12.0499 10.0292 12.02 10.06C11.9889 10.0907 11.9642 10.1273 11.9473 10.1676C11.9304 10.208 11.9217 10.2513 11.9217 10.295C11.9217 10.3387 11.9304 10.382 11.9473 10.4224C11.9642 10.4627 11.9889 10.4993 12.02 10.53C12.76 11.38 13.5 12.21 14.31 12.98C14.66 13.31 15.03 13.62 15.4 13.92C15.77 14.22 16.17 14.5 16.55 14.77C17.48 15.41 18.43 15.97 19.4 16.54C19.53 16.62 19.48 16.8 21.02 15.66C21.5208 15.2539 21.9618 14.7792 22.33 14.25C22.8228 13.5482 23.1635 12.7512 23.33 11.91C23.4802 11.0791 23.47 10.2271 23.3 9.4ZM10.17 17.88L9.80002 17.79C9.39003 17.79 8.98002 17.73 8.58002 17.68C8.18709 17.6242 7.7992 17.5372 7.42002 17.42C6.66084 17.1707 5.93275 16.8352 5.25002 16.42C4.23089 15.8367 3.34522 15.0464 2.65002 14.1C2.0374 13.2073 1.656 12.1765 1.54002 11.1C1.60002 11.25 1.64002 11.4 1.71002 11.56C2.31457 12.8832 3.3322 13.9746 4.61002 14.67C6.38091 15.5421 8.3092 16.0488 10.28 16.16V17.16C10.2649 17.4028 10.2281 17.6438 10.17 17.88ZM12.29 7.3C12.8175 6.99417 13.3282 6.66036 13.82 6.3C14.277 5.9547 14.7144 5.58412 15.13 5.19C15.76 4.65 16.34 4 17 3.45C17.0685 3.38545 17.1105 3.29781 17.1181 3.20403C17.1256 3.11026 17.0981 3.01702 17.0409 2.94236C16.9836 2.8677 16.9007 2.81693 16.8082 2.79987C16.7157 2.7828 16.6201 2.80067 16.54 2.85C15.84 3.31 15.14 3.77 14.46 4.26C13.8842 4.67383 13.3332 5.12128 12.81 5.6C10.56 7.69 11.56 7.09 8.70002 6.7C8.30225 6.64215 7.90169 6.60543 7.50002 6.59H6.34002C5.43258 6.62658 4.52787 6.71338 3.63002 6.85C3.5801 6.85256 3.53117 6.86494 3.48604 6.88644C3.44091 6.90794 3.40046 6.93814 3.36702 6.9753C3.33358 7.01245 3.3078 7.05584 3.29115 7.10298C3.27451 7.15012 3.26733 7.20008 3.27002 7.25C3.27254 7.29952 3.28497 7.34802 3.3066 7.39263C3.32822 7.43725 3.35859 7.47706 3.3959 7.50971C3.43321 7.54236 3.47671 7.56717 3.5238 7.58268C3.57089 7.5982 3.62061 7.60408 3.67002 7.6C4.59002 7.6 5.48002 7.73 6.38002 7.79C6.99003 7.79 7.59002 7.88 8.19002 7.9H10.67C10.67 8.15 10.61 8.4 10.59 8.51C10.5 9.01 10.39 10.21 10.32 11.51C10.22 13.05 10.17 14.69 10.18 15.56C8.38158 15.395 6.63584 14.8642 5.05002 14C3.9623 13.366 3.11228 12.393 2.63002 11.23C2.00994 9.90403 1.917 8.39193 2.37002 7C2.90912 5.63249 3.85063 4.46084 5.07002 3.64C6.75421 2.43429 8.70754 1.65844 10.76 1.38C12.7873 0.994619 14.8843 1.24975 16.76 2.11C18.7847 3.1561 20.349 4.91644 21.15 7.05C21.5428 8.0779 21.6165 9.20037 21.3614 10.2708C21.1063 11.3412 20.5342 12.3098 19.72 13.05C19.72 12.76 18.77 12.25 13.72 8.28L12.29 7.3ZM21.42 13.68C21.1587 14.1643 20.821 14.6032 20.42 14.98C20.2082 15.1786 19.9557 15.3288 19.68 15.42C19.7685 15.1713 19.8419 14.9175 19.9 14.66C19.9097 14.5469 19.9097 14.4331 19.9 14.32C19.9511 14.2197 19.9849 14.1115 20 14C19.9894 13.9417 19.9726 13.8847 19.95 13.83C20.0405 13.8258 20.1277 13.7945 20.2 13.74C21.0869 12.9798 21.7476 11.9904 22.11 10.88C22.1251 11.1631 22.1251 11.4469 22.11 11.73C22.0009 12.4166 21.767 13.0775 21.42 13.68Z" fill="black"/>
<path fill-rule="evenodd" clip-rule="evenodd" d="M20.05 19.55C20.0829 19.5106 20.1077 19.4652 20.123 19.4162C20.1383 19.3672 20.1438 19.3157 20.1391 19.2646C20.1345 19.2135 20.1198 19.1639 20.096 19.1185C20.0721 19.073 20.0395 19.0328 20 19C19.07 18.24 18.11 17.5 17.19 16.72C16.58 16.21 15.98 15.72 15.42 15.14L14 13.74L13.43 13.21L13.1 13C13.0225 12.9545 12.9362 12.9261 12.8469 12.9168C12.7575 12.9074 12.6672 12.9172 12.5819 12.9457C12.4967 12.9741 12.4185 13.0204 12.3526 13.0815C12.2868 13.1426 12.2347 13.2171 12.2 13.3C12.1279 13.4709 12.0906 13.6545 12.09 13.84C12.09 14.24 12.2 14.84 12.19 15.09V16.86C12.19 17.74 12.28 18.62 12.32 19.5C12.36 20.38 12.4 21.15 12.46 21.97C12.46 22.5167 12.51 23.0667 12.61 23.62C12.61 23.69 12.31 24.06 15.42 24.09C15.9956 24.0966 16.5699 24.0328 17.13 23.9C18.1092 23.6878 19.0097 23.2064 19.73 22.51C19.7782 22.4711 19.8148 22.4198 19.8359 22.3617C19.8571 22.3035 19.8619 22.2407 19.85 22.18C19.8933 22.1465 19.929 22.1042 19.9548 22.056C19.9807 22.0077 19.9961 21.9546 20 21.9C20.08 21.59 20.17 21.3 20.22 20.98C20.2465 20.8514 20.2632 20.7211 20.27 20.59C20.2848 20.4604 20.2848 20.3296 20.27 20.2C20.2195 19.9763 20.1457 19.7584 20.05 19.55ZM13.4 14.89L14.61 16C15.24 16.53 15.89 17 16.55 17.51C17.21 18.02 18.18 18.7 19 19.27C18.3752 19.5302 17.7296 19.7376 17.07 19.89L16.07 20.09L15.07 20.25C14.4517 20.3476 13.8239 20.3711 13.2 20.32V19.41L13.41 15L13.4 14.89ZM17.5 22.5C16.92 22.62 16.32 22.66 15.73 22.73C14.86 22.83 14.03 22.94 13.24 22.99V21.86V21.11C13.8827 21.3367 14.5586 21.4549 15.24 21.46C15.6126 21.4496 15.9838 21.4095 16.35 21.34C16.7116 21.2542 17.066 21.1406 17.41 21C17.9617 20.7987 18.4939 20.5477 19 20.25C18.9951 20.3333 18.9951 20.4167 19 20.5C18.9902 20.6298 18.9902 20.7602 19 20.89C19 21.21 19.15 21.49 19.21 21.8C18.6912 22.1428 18.1103 22.3806 17.5 22.5Z" fill="black"/>
</g>
<defs>
<clipPath id="clip0_1031_2960">
<rect width="24" height="24" fill="white"/>
</clipPath>
</defs>
</svg>
