<svg width="24" height="24" viewBox="0 0 24 24" fill="none" xmlns="http://www.w3.org/2000/svg">
<g clip-path="url(#clip0_1046_5552)">
<path fill-rule="evenodd" clip-rule="evenodd" d="M24 11C23.9387 10.3383 23.7397 9.6967 23.416 9.11637C23.0922 8.53604 22.6508 8.02975 22.12 7.62997C21.5167 7.23565 20.8338 6.97954 20.12 6.87997C19.4568 6.78298 18.7831 6.78298 18.12 6.87997C17.0108 7.05728 15.9724 7.53841 15.12 8.26997C14.251 8.98338 13.6427 9.96443 13.39 11.06C13.2115 11.9974 13.305 12.9662 13.6593 13.8522C14.0137 14.7382 14.6143 15.5043 15.39 16.06C15.0033 15.9936 14.6122 15.9569 14.22 15.95C13.05 15.95 11.89 15.95 10.72 16C9.99999 16 9.27999 16.1 8.56999 16.15C9.09161 15.7448 9.54124 15.2546 9.89999 14.7C10.5788 13.5934 10.8543 12.2863 10.68 11C10.6202 10.3318 10.419 9.68395 10.0897 9.09948C9.76041 8.515 9.31055 8.00727 8.76999 7.60997C8.16673 7.21565 7.48377 6.95954 6.76999 6.85997C6.10685 6.76298 5.43312 6.76298 4.76999 6.85997C3.6614 7.03929 2.62352 7.52017 1.76999 8.24997C0.910508 8.97156 0.318771 9.96131 0.0899854 11.06C-0.0527276 11.8107 -0.0214725 12.5841 0.18135 13.3209C0.384172 14.0576 0.753165 14.7381 1.25999 15.31C1.66383 15.7902 2.16302 16.1812 2.72592 16.4584C3.28882 16.7355 3.90315 16.8927 4.52999 16.92C4.56686 16.9647 4.61517 16.9985 4.66977 17.0179C4.72436 17.0372 4.7832 17.0414 4.83999 17.03H5.20999C5.43999 17.03 5.66999 17.03 5.90999 17.09H8.38999H10.72C11.89 17.09 13.05 17 14.21 16.96C15.37 16.92 16.44 17.11 17.55 17.16C18.0604 17.1933 18.5728 17.1766 19.08 17.11C19.1604 17.0981 19.2344 17.0593 19.29 17H19.85C20.5502 16.885 21.2104 16.5962 21.77 16.16C22.3224 15.7405 22.7993 15.2298 23.18 14.65C23.8525 13.5587 24.1411 12.274 24 11ZM1.85999 14.81C1.46742 14.3188 1.19072 13.7454 1.05047 13.1325C0.91023 12.5196 0.910063 11.883 1.04999 11.27C1.2966 10.4115 1.81614 9.65679 2.52999 9.11997C3.21918 8.53858 4.05121 8.15191 4.93999 7.99997C5.50383 7.91996 6.07614 7.91996 6.63999 7.99997C7.17874 8.07188 7.69463 8.26321 8.14999 8.55997C8.56464 8.85995 8.91158 9.24377 9.16827 9.68653C9.42497 10.1293 9.58568 10.6211 9.63999 11.13C9.82521 12.1891 9.64167 13.2798 9.11999 14.22C8.82719 14.7253 8.44813 15.1755 7.99999 15.55C7.55739 15.9247 7.02793 16.1826 6.45999 16.3H5.45999C5.43143 16.2753 5.39785 16.2572 5.36159 16.2469C5.32533 16.2365 5.28725 16.2341 5.24999 16.24C4.60975 16.312 3.96175 16.2184 3.36813 15.9679C2.77451 15.7175 2.25519 15.3188 1.85999 14.81ZM22.43 14.21C22.1255 14.7187 21.7366 15.1719 21.28 15.55C20.8362 15.923 20.3072 16.1806 19.74 16.3H18.74C18.7118 16.2747 18.6783 16.2562 18.6419 16.2458C18.6055 16.2354 18.5672 16.2334 18.53 16.24C17.8926 16.3004 17.2504 16.1971 16.6642 15.9399C16.0779 15.6826 15.567 15.2799 15.18 14.77C14.7865 14.2794 14.51 13.7057 14.3714 13.0923C14.2328 12.4789 14.2357 11.842 14.38 11.23C14.6164 10.3694 15.1339 9.61258 15.85 9.07997C16.5389 8.51778 17.3628 8.14547 18.24 7.99997C18.8038 7.91996 19.3761 7.91996 19.94 7.99997C20.7247 8.09466 21.4524 8.45823 21.9993 9.02886C22.5463 9.59949 22.8787 10.3419 22.94 11.13C23.1211 12.1848 22.9414 13.2698 22.43 14.21Z" fill="black"/>
</g>
<defs>
<clipPath id="clip0_1046_5552">
<rect width="24" height="24" fill="white"/>
</clipPath>
</defs>
</svg>
