<svg width="24" height="24" viewBox="0 0 24 24" fill="none" xmlns="http://www.w3.org/2000/svg">
<path d="M3.18 7.07996L6.91 7.19996H12.03C13.74 7.19996 15.44 7.12996 17.15 7.09996L20.45 7.02996H22.15C22.2412 7.03271 22.3298 6.99976 22.3971 6.93812C22.4643 6.87648 22.5048 6.79103 22.51 6.69996C22.5113 6.6553 22.5038 6.61082 22.488 6.56906C22.4721 6.5273 22.4482 6.48908 22.4175 6.45657C22.3869 6.42407 22.3501 6.39792 22.3094 6.37963C22.2686 6.36133 22.2247 6.35125 22.18 6.34996L20.45 6.22996L17.15 6.11996C15.44 6.11996 13.73 6.01996 12.03 6.01996C10.33 6.01996 8.61 6.07996 6.9 6.12996L3.19 6.27996C2.79236 6.26776 2.39439 6.28783 2 6.33996C1.69 6.33996 1.53 7.01996 2 7.02996L3.18 7.07996Z" fill="black"/>
<path d="M23.85 5.93998C23.8945 5.15276 23.871 4.36317 23.78 3.57998C23.7166 3.17346 23.5477 2.7907 23.29 2.46998C23.0856 2.24043 22.8176 2.07683 22.52 1.99998C22.192 1.91733 21.8574 1.86379 21.52 1.83998C20.99 1.78998 20.46 1.75998 19.93 1.72998H17.57C15.24 1.72998 12.92 1.61998 10.57 1.59998C9.00999 1.59998 7.44999 1.59998 5.89999 1.66998L2.89999 1.88998C2.56999 1.88998 2.18999 1.88998 1.82999 1.95998C1.56576 2.00886 1.30515 2.07568 1.04999 2.15998C0.922346 2.19475 0.808612 2.26824 0.724445 2.37031C0.640277 2.47239 0.589812 2.59804 0.579994 2.72998C0.539994 3.35998 0.489994 3.99998 0.449995 4.71998C0.359995 6.29998 0.309995 7.87998 0.219995 9.46998C0.159994 10.42 0.0499945 11.36 0.00999451 12.31V13.56C0.00999451 14.14 0.149995 18.56 0.289995 20.1C0.312646 20.497 0.383156 20.8899 0.499995 21.27C0.538192 21.3888 0.611386 21.4934 0.709994 21.57C0.872781 21.6926 1.06055 21.778 1.25999 21.82C1.59133 21.873 1.92506 21.9097 2.25999 21.93L3.51999 22L5.39999 22.13L8.34999 22.2C9.54999 22.2 10.78 22.34 12 22.39H13.62C15.21 22.39 18.81 22.27 21.01 22.09C21.6059 22.0556 22.1979 21.972 22.78 21.84C22.9575 21.7891 23.1147 21.6842 23.23 21.54C23.4047 21.2879 23.524 21.0016 23.58 20.7C23.6482 20.1561 23.6783 19.6081 23.67 19.06L24 12.79L23.85 5.93998ZM22.52 19.05V20.35C22.5025 20.5083 22.4621 20.6633 22.4 20.81C22.28 20.81 22.06 20.88 21.84 20.9C20.99 21.01 19.63 21.09 18.22 21.16C16.46 21.24 14.63 21.29 13.62 21.33H12.62C11.22 21.33 9.78999 21.17 8.40999 21.18H5.48999L3.64999 21.09L2.39999 21H1.58999L1.35999 20.95C1.35999 20.89 1.29999 20.82 1.27999 20.74C1.18551 20.1336 1.12209 19.5228 1.08999 18.91C0.999995 17.42 0.839994 14 0.809995 13.51C0.779995 13.02 0.809995 12.45 0.809995 11.93C0.809995 11.12 0.919995 10.32 0.949995 9.49998C0.979994 8.67998 1.06999 5.33998 1.09999 4.74998C1.12999 4.15998 1.15999 3.41998 1.20999 2.74998C1.25999 2.74998 1.72999 2.59998 1.93999 2.57998C2.14999 2.55998 2.65999 2.57998 2.93999 2.57998L5.88999 2.39998H10.52C12.84 2.39998 15.17 2.56998 17.52 2.62998C18.29 2.62998 19.07 2.62998 19.85 2.70998C20.36 2.70998 20.85 2.77998 21.38 2.83998C21.622 2.85634 21.8626 2.88976 22.1 2.93998C22.2539 2.96309 22.397 3.0329 22.51 3.13998C22.6981 3.41805 22.8022 3.74435 22.81 4.07998C22.87 4.73998 22.81 5.46998 22.81 5.97998L22.88 12.34V13.18L22.52 19.05Z" fill="black"/>
<path d="M3.53999 3.7C3.33642 3.62745 3.11326 3.63234 2.91306 3.71375C2.71286 3.79516 2.54962 3.94739 2.45446 4.14143C2.35929 4.33547 2.33886 4.55774 2.39705 4.76588C2.45524 4.97401 2.58799 5.15346 2.76999 5.27C3.52999 5.69 4.99999 4.53 3.53999 3.7Z" fill="black"/>
<path d="M6.69999 3.76998C5.78999 3.33998 4.99999 4.59998 5.86999 5.13998C6.09001 5.20849 6.3242 5.21775 6.54893 5.16684C6.77367 5.11592 6.981 5.00662 7.14999 4.84998C7.35999 4.60998 7.33999 4.09998 6.69999 3.76998Z" fill="black"/>
<path d="M8.53999 5C8.66135 5.09916 8.80433 5.16841 8.95738 5.20216C9.11043 5.23591 9.26927 5.23321 9.42109 5.19428C9.5729 5.15536 9.71344 5.08129 9.83137 4.97806C9.9493 4.87483 10.0413 4.74533 10.1 4.6C10.1181 4.4644 10.1047 4.32646 10.0609 4.19688C10.017 4.0673 9.94388 3.94957 9.84715 3.85284C9.75042 3.75611 9.63269 3.68298 9.50311 3.63913C9.37353 3.59528 9.23558 3.58189 9.09999 3.6C8.9322 3.58703 8.76466 3.62798 8.62177 3.71689C8.47888 3.80579 8.36812 3.938 8.30562 4.09425C8.24312 4.2505 8.23215 4.42263 8.2743 4.58555C8.31646 4.74847 8.40954 4.89367 8.53999 5Z" fill="black"/>
<path d="M21.94 14.27C22.35 13.51 21.24 13.79 18.09 14.06C18.09 13.97 17.96 13.81 17.93 13.73C17.79 13.3 17.47 12.25 17.03 12C15.91 11.38 15.11 14 14.63 14.76C14.42 13.83 14.43 13.49 14.31 13.02C14.1626 12.3298 13.7767 11.7137 13.22 11.28C13.0945 11.2104 12.9556 11.1687 12.8126 11.1575C12.6696 11.1464 12.5259 11.1662 12.3912 11.2155C12.2565 11.2648 12.134 11.3426 12.032 11.4434C11.93 11.5443 11.8508 11.6659 11.8 11.8C11.68 12.03 11.8 11.56 10.43 16.71C10.43 16.84 10.21 17.12 10.1 17.38C9.31999 15.15 9.96999 10.38 8.48999 9.90999C7.96999 9.74999 7.56999 10.17 7.22999 10.59C6.44999 11.59 6.47999 12.67 5.77999 13.47C5.37999 13.92 4.43999 13.84 2.25999 13.71C2.18749 13.7151 2.11983 13.7483 2.07131 13.8024C2.02279 13.8565 1.99721 13.9274 1.99999 14C1.99999 14.33 2.27999 14.29 3.28999 14.38C4.91999 14.38 5.90999 14.84 6.75999 13.38C6.75999 13.38 6.58999 13.38 8.28999 10.87C8.94999 12.16 7.99999 19.21 10.41 18.87C11.25 18.77 11.36 17.69 11.55 16.97L12.55 13.1C12.55 12.92 12.85 12.58 12.87 12.34C13.63 13.62 13.32 14.9 14.04 15.71C14.1118 15.8131 14.2076 15.8974 14.319 15.9556C14.4304 16.0137 14.5543 16.0441 14.68 16.0441C14.8057 16.0441 14.9295 16.0137 15.041 15.9556C15.1524 15.8974 15.2481 15.8131 15.32 15.71C15.6463 14.771 16.0581 13.8639 16.55 13C16.6 12.85 16.55 12.68 16.75 13C17.33 14.38 17.32 14.93 18.21 14.86C18.56 14.86 19.13 14.75 19.27 14.73C22 14.41 21.85 14.44 21.94 14.27Z" fill="black"/>
</svg>
