<svg width="24" height="24" viewBox="0 0 24 24" fill="none" xmlns="http://www.w3.org/2000/svg">
<g clip-path="url(#clip0_1034_4083)">
<path fill-rule="evenodd" clip-rule="evenodd" d="M23.64 10.06C23.53 9.06 23.55 7.11 22.86 6.59C22.2343 6.11965 21.4818 5.84793 20.7 5.81C20.15 5.91 20.42 6.31 20.7 6.53C21.3204 6.57273 21.9133 6.80289 22.4 7.19C22.69 7.43 22.74 9.13 22.76 9.56C22.105 9.38334 21.415 9.38334 20.76 9.56C20.6749 9.58448 20.5987 9.63301 20.5405 9.69975C20.4823 9.76649 20.4446 9.8486 20.4319 9.93624C20.4193 10.0239 20.4321 10.1133 20.4691 10.1938C20.506 10.2743 20.5653 10.3424 20.64 10.39C21.3635 10.5537 22.1165 10.533 22.83 10.33C22.95 11.72 23.04 13.15 23.02 14.57C22.9712 16.349 22.7806 18.1213 22.45 19.87C22.39 19.87 22.27 19.98 22.14 20.02C19.35 21 5.86 22 5 20.48C4.77 19.55 4.77 19.2 4.42 19.25C4.3431 19.2646 4.27458 19.3078 4.22821 19.3709C4.18184 19.434 4.16104 19.5122 4.17 19.59C4.20997 20.0038 4.30411 20.4107 4.45 20.8C5.66 23.05 22.3 22.32 23.38 20.57C23.7251 19.6453 23.9045 18.667 23.91 17.68C24.1101 15.138 24.0195 12.5815 23.64 10.06Z" fill="black"/>
<path fill-rule="evenodd" clip-rule="evenodd" d="M9.1 6.82001C12.52 6.82001 14.74 6.65001 17.24 6.58001C17.2888 6.58848 17.3389 6.58617 17.3868 6.57324C17.4346 6.56031 17.4791 6.53708 17.517 6.50516C17.5549 6.47325 17.5854 6.43342 17.6063 6.38849C17.6273 6.34355 17.6381 6.29458 17.6381 6.24501C17.6381 6.19545 17.6273 6.14648 17.6063 6.10154C17.5854 6.0566 17.5549 6.01678 17.517 5.98487C17.4791 5.95295 17.4346 5.92972 17.3868 5.91679C17.3389 5.90386 17.2888 5.90154 17.24 5.91001C12.1644 5.60322 7.07475 5.6099 2 5.93001C1.35 5.93001 1.19 6.61001 1.88 6.55001C3.49999 6.58001 5.47 6.81001 9.1 6.82001Z" fill="black"/>
<path fill-rule="evenodd" clip-rule="evenodd" d="M19.26 2.85003C17.81 1.36003 14.07 1.92003 11.79 1.85003C8.84 1.71003 5.76 2.00003 2.84 2.00003C2.74982 2.00003 2.66334 2.03585 2.59958 2.09961C2.53582 2.16337 2.5 2.24985 2.5 2.34003C2.5 2.4302 2.53582 2.51668 2.59958 2.58044C2.66334 2.6442 2.74982 2.68003 2.84 2.68003C5.76 2.68003 8.78 2.45003 11.74 2.62003C13.79 2.74003 17.34 2.52003 18.65 3.57003C18.95 3.81003 18.97 5.82003 19.03 6.46003C19.3149 8.91074 19.335 11.385 19.09 13.84C19.0458 14.6463 18.9252 15.4465 18.73 16.23C16.73 17.29 2.27 18.23 1.41 16.72C1.10567 15.5016 0.928056 14.255 0.879997 13C0.786783 9.69345 0.93719 6.38451 1.33 3.10003C1.36438 3.07424 1.39282 3.04136 1.4134 3.00362C1.43397 2.96588 1.4462 2.92417 1.44924 2.88129C1.45229 2.83842 1.44609 2.79539 1.43106 2.75512C1.41603 2.71486 1.39252 2.67829 1.36213 2.64789C1.33174 2.6175 1.29517 2.59399 1.2549 2.57896C1.21463 2.56394 1.1716 2.55773 1.12873 2.56078C1.08586 2.56383 1.04414 2.57605 1.0064 2.59663C0.968662 2.6172 0.935786 2.64564 0.909997 2.68003C0.539997 3.00003 0.609997 4.16003 0.549997 4.56003C0.0999969 9.00003 -0.160003 10.12 0.109997 13.84C0.144559 14.9797 0.315784 16.1111 0.619997 17.21C1.87 19.49 15.05 18.52 18.35 17.62C19.64 17.28 19.85 16.89 20 15.93C20.15 14.97 20.43 4.00003 19.26 2.85003Z" fill="black"/>
<path fill-rule="evenodd" clip-rule="evenodd" d="M3.89 4.62001C3.96531 4.47656 3.98853 4.31144 3.95571 4.15279C3.92288 3.99414 3.83604 3.85179 3.71 3.75001C3.07 3.41001 2.27 4.07001 2.85 4.66001C2.91916 4.729 3.00181 4.78298 3.09279 4.81856C3.18376 4.85415 3.28111 4.87058 3.37872 4.86683C3.47634 4.86307 3.57213 4.83921 3.6601 4.79674C3.74808 4.75427 3.82634 4.69411 3.89 4.62001Z" fill="black"/>
<path fill-rule="evenodd" clip-rule="evenodd" d="M6.11 4.38003C6.18863 4.23904 6.21372 4.07441 6.18065 3.9164C6.14758 3.75839 6.05857 3.61764 5.93 3.52003C5.29 3.18003 4.49 3.84003 5.07 4.43003C5.13983 4.49842 5.22302 4.55166 5.31438 4.58641C5.40573 4.62116 5.50328 4.63668 5.60091 4.63199C5.69854 4.62729 5.79415 4.60249 5.88175 4.55913C5.96935 4.51578 6.04706 4.4548 6.11 4.38003Z" fill="black"/>
<path fill-rule="evenodd" clip-rule="evenodd" d="M8.53 4.38003C8.6097 4.24017 8.63639 4.07629 8.60517 3.91836C8.57395 3.76044 8.48692 3.61904 8.36 3.52003C7.71 3.18003 6.92 3.84003 7.49 4.43003C7.55983 4.49842 7.64302 4.55166 7.73438 4.58641C7.82573 4.62116 7.92328 4.63668 8.02091 4.63199C8.11854 4.62729 8.21415 4.60249 8.30175 4.55913C8.38935 4.51578 8.46706 4.4548 8.53 4.38003Z" fill="black"/>
</g>
<defs>
<clipPath id="clip0_1034_4083">
<rect width="24" height="24" fill="white"/>
</clipPath>
</defs>
</svg>
