<svg width="24" height="24" viewBox="0 0 24 24" fill="none" xmlns="http://www.w3.org/2000/svg">
<g clip-path="url(#clip0_1034_4015)">
<path fill-rule="evenodd" clip-rule="evenodd" d="M3.28001 1.1C3.28983 1.05996 3.2913 1.01832 3.28431 0.977681C3.27733 0.937045 3.26204 0.898285 3.2394 0.863821C3.21677 0.829357 3.18727 0.79993 3.15275 0.777375C3.11823 0.754821 3.07944 0.739624 3.03878 0.732734C2.99813 0.725844 2.95649 0.727408 2.91647 0.737328C2.87645 0.747249 2.8389 0.765313 2.80618 0.790393C2.77345 0.815473 2.74624 0.84703 2.72625 0.883095C2.70627 0.91916 2.69393 0.958957 2.69001 1C1.69001 5.63 2.27001 11.47 2.56001 14.75C2.56664 14.8402 2.60882 14.924 2.67727 14.9831C2.74572 15.0422 2.83484 15.0716 2.92501 15.065C3.01518 15.0584 3.09903 15.0162 3.1581 14.9477C3.21718 14.8793 3.24664 14.7902 3.24001 14.7C3.13001 12.43 3.00001 10.07 3.00001 6.28C3.00392 4.54966 3.09737 2.82068 3.28001 1.1Z" fill="black"/>
<path fill-rule="evenodd" clip-rule="evenodd" d="M20.58 4.47002C15.23 4.43002 4.00001 4.55002 4.00001 4.55002C3.52001 4.66002 3.51001 5.05002 4.00001 5.11002C4.00001 5.11002 8.00001 5.38002 12 5.39002C15.63 5.39002 18 5.22002 20.59 5.16002C20.6713 5.14497 20.7446 5.10165 20.797 5.03774C20.8494 4.97382 20.8774 4.89343 20.8762 4.8108C20.875 4.72816 20.8446 4.64862 20.7904 4.58625C20.7362 4.52388 20.6617 4.4827 20.58 4.47002Z" fill="black"/>
<path fill-rule="evenodd" clip-rule="evenodd" d="M22.72 0.77002C21.37 -0.40998 6.09001 0.0600199 4.29001 0.22002C4.20519 0.232419 4.12819 0.276398 4.07442 0.343152C4.02064 0.409906 3.99407 0.494508 4.00001 0.58002C4.00001 1.25002 4.36001 0.58002 15.19 0.98002C15.71 0.98002 21.61 1.27002 22 1.62002C22.67 2.21002 22.82 16.07 22.43 17.48C22.35 17.42 22.23 17.61 22.06 17.67C20.22 18.29 14.77 18.26 12.82 18.25C12.7404 18.25 12.6641 18.2816 12.6079 18.3379C12.5516 18.3941 12.52 18.4705 12.52 18.55C12.52 18.6296 12.5516 18.7059 12.6079 18.7622C12.6641 18.8184 12.7404 18.85 12.82 18.85C14.9 18.93 21.23 19.18 22.82 18.35C23.0493 18.2401 23.228 18.047 23.32 17.81C23.85 16.19 24.1 2.00002 22.72 0.77002Z" fill="black"/>
<path fill-rule="evenodd" clip-rule="evenodd" d="M6.5 3.11C6.58098 2.96033 6.60633 2.78681 6.57155 2.62023C6.53676 2.45364 6.4441 2.30476 6.31 2.2C5.63 1.84 4.79 2.53 5.4 3.15C5.47292 3.22324 5.5602 3.28062 5.65635 3.31854C5.7525 3.35645 5.85545 3.37409 5.95874 3.37033C6.06203 3.36657 6.16342 3.34151 6.25657 3.29671C6.34971 3.25191 6.43259 3.18835 6.5 3.11Z" fill="black"/>
<path fill-rule="evenodd" clip-rule="evenodd" d="M8.84001 2.86001C8.90744 2.71655 8.92635 2.55505 8.89388 2.39989C8.86141 2.24474 8.77931 2.10438 8.66001 2.00001C7.98001 1.65001 7.14001 2.34001 7.75001 3.00001C7.82863 3.06746 7.92053 3.11766 8.01977 3.14735C8.11902 3.17703 8.22339 3.18556 8.32613 3.17236C8.42888 3.15916 8.52771 3.12454 8.61623 3.07074C8.70475 3.01693 8.78099 2.94514 8.84001 2.86001Z" fill="black"/>
<path fill-rule="evenodd" clip-rule="evenodd" d="M11.4 2.86001C11.468 2.71585 11.4862 2.5532 11.4518 2.39757C11.4175 2.24193 11.3324 2.10211 11.21 2.00001C10.53 1.65001 9.69001 2.34001 10.3 3.00001C10.3795 3.06767 10.4722 3.11801 10.5722 3.14779C10.6723 3.17757 10.7774 3.18615 10.8809 3.17297C10.9845 3.1598 11.0841 3.12515 11.1735 3.07126C11.2629 3.01737 11.34 2.94542 11.4 2.86001Z" fill="black"/>
<path fill-rule="evenodd" clip-rule="evenodd" d="M10.63 19.68C10.5366 19.5144 10.3879 19.387 10.21 19.32C9.53 19.09 2.21001 19.41 1.42001 19.46C1.33069 19.4651 1.24672 19.5042 1.18535 19.5693C1.12398 19.6344 1.08986 19.7205 1.09001 19.81C1.09001 19.91 1.09001 19.72 0.940005 19.63C0.100005 19.23 0.190005 22.83 0.440005 23.39C0.870005 24.34 8.52 23.94 9.62 23.81C10.14 23.75 10.48 23.67 10.69 23.3C10.8812 22.8188 10.9861 22.3076 11 21.79C10.9847 21.0719 10.8599 20.3604 10.63 19.68ZM9.79 22.33C9.79 22.46 9.64001 22.61 9.64001 22.69C8.86001 22.69 3.89001 23.12 1.73001 23C1.10001 23 1.00001 23.32 1.00001 21.56C0.937264 20.9956 0.988269 20.4244 1.15001 19.88C1.16653 19.9567 1.20983 20.025 1.27214 20.0726C1.33444 20.1202 1.41168 20.1441 1.49001 20.14C2.57001 20.14 9.16 20.14 9.82 20.32C9.90444 20.9881 9.89434 21.6647 9.79 22.33Z" fill="black"/>
<path fill-rule="evenodd" clip-rule="evenodd" d="M8.76 15.66C8.33923 16.1763 7.96446 16.7284 7.64 17.31C7.63996 17.4011 7.67546 17.4887 7.73895 17.554C7.80244 17.6194 7.88892 17.6574 7.98 17.66C8.24 17.66 8.3 17.57 9.5 16.23C10.5892 15.1389 11.5767 13.9506 12.45 12.68C13.25 11.59 13.39 11.41 13.45 11.39C13.65 11.93 13.62 12.16 14.19 13.86C14.34 14.47 14.68 15.07 15.26 14.86C15.84 14.65 16.04 13.56 16.2 13.14C16.58 12.14 17.4 8.36003 17.15 7.38003C17.116 7.20614 17.0154 7.0524 16.8697 6.95154C16.724 6.85068 16.5447 6.81067 16.37 6.84003C14.3684 7.31041 12.4111 7.9528 10.52 8.76003C8.22 9.84003 8.52 10.96 9.73 11.14C10.04 11.19 12.73 11.14 12.8 11.08C11.2909 12.4554 9.93627 13.9911 8.76 15.66ZM12.76 10.44C11.92 10.37 10.55 10.44 9.69 10.3C9.83912 10.1574 10.0074 10.0362 10.19 9.94003C12.07 9.14752 14.0136 8.51527 16 8.05003C15.8863 9.93492 15.5712 11.8022 15.06 13.62C14.93 14.05 15.01 13.91 14.92 13.62L14.54 12.62C14.54 12.62 14.21 11.5 14.04 11.1C13.8832 10.9083 13.6886 10.7508 13.4685 10.6372C13.2483 10.5237 13.0072 10.4566 12.76 10.44Z" fill="black"/>
</g>
<defs>
<clipPath id="clip0_1034_4015">
<rect width="24" height="24" fill="white"/>
</clipPath>
</defs>
</svg>
