<svg width="24" height="24" viewBox="0 0 24 24" fill="none" xmlns="http://www.w3.org/2000/svg">
<g clip-path="url(#clip0_1034_4091)">
<path fill-rule="evenodd" clip-rule="evenodd" d="M10.15 17.1C8.15 17.1 3.86 16.96 2.04 16.21C1.77 16.1 1.56 16.03 1.53 15.88C1.24 14.65 0.679998 3.50002 1.1 1.13002C1.11724 1.05178 1.10269 0.969895 1.05956 0.902382C1.01642 0.834869 0.948237 0.787256 0.869998 0.770017C0.791759 0.752778 0.709876 0.767325 0.642363 0.810458C0.57485 0.853592 0.527237 0.921778 0.509998 1.00002C-0.100002 3.55002 -0.200002 13.43 0.439998 16.14C0.526596 16.4537 0.726027 16.7244 0.999998 16.9C2.68 18.01 8.14 17.9 10.15 17.78C10.2402 17.78 10.3267 17.7442 10.3904 17.6804C10.4542 17.6167 10.49 17.5302 10.49 17.44C10.49 17.3498 10.4542 17.2634 10.3904 17.1996C10.3267 17.1358 10.2402 17.1 10.15 17.1Z" fill="black"/>
<path fill-rule="evenodd" clip-rule="evenodd" d="M2.10999 0.99999C4.19999 0.90999 17.57 1.14999 19.28 1.66999C19.59 1.98999 19.78 4.66999 19.86 5.29999C20.05 6.72999 20.18 7.93999 20.26 9.39999C20.26 9.47955 20.2916 9.55586 20.3479 9.61212C20.4041 9.66838 20.4804 9.69999 20.56 9.69999C20.6396 9.69999 20.7159 9.66838 20.7721 9.61212C20.8284 9.55586 20.86 9.47955 20.86 9.39999C20.86 8.08999 20.78 6.54999 20.69 5.21999C20.61 4.05999 20.69 1.51999 19.94 0.84999C18.52 -0.44001 4.27999 0.0899897 2.06999 0.27999C2.02271 0.282616 1.97642 0.294529 1.93374 0.315047C1.89107 0.335565 1.85286 0.364287 1.82129 0.399573C1.75752 0.470837 1.72468 0.564512 1.72999 0.65999C1.73529 0.755468 1.77831 0.844928 1.84957 0.90869C1.92083 0.972453 2.01451 1.00529 2.10999 0.99999Z" fill="black"/>
<path fill-rule="evenodd" clip-rule="evenodd" d="M3.15 2.99999C3.29063 3.14044 3.48125 3.21933 3.68 3.21933C3.87875 3.21933 4.06938 3.14044 4.21 2.99999C4.29564 2.8563 4.32161 2.68479 4.28236 2.52218C4.24311 2.35958 4.14176 2.2188 4 2.12999C3.37 1.80999 2.56 2.44999 3.15 2.99999Z" fill="black"/>
<path fill-rule="evenodd" clip-rule="evenodd" d="M5.42 2.78997C5.56356 2.92867 5.75538 3.00619 5.955 3.00619C6.15462 3.00619 6.34643 2.92867 6.49 2.78997C6.56952 2.65257 6.59514 2.49052 6.56188 2.33529C6.52861 2.18005 6.43884 2.04273 6.31 1.94997C5.65 1.57997 4.83 2.21997 5.42 2.78997Z" fill="black"/>
<path fill-rule="evenodd" clip-rule="evenodd" d="M7.91 2.79001C7.98347 2.86035 8.07031 2.91523 8.16538 2.95139C8.26045 2.98756 8.36181 3.00427 8.46346 3.00054C8.56511 2.99681 8.66497 2.97271 8.75713 2.92968C8.8493 2.88664 8.93188 2.82555 9 2.75001C9.07952 2.61261 9.10514 2.45055 9.07188 2.29532C9.03861 2.14009 8.94884 2.00276 8.82 1.91001C8.13 1.58001 7.32 2.22001 7.91 2.79001Z" fill="black"/>
<path fill-rule="evenodd" clip-rule="evenodd" d="M1.56999 4.85996C2.82999 4.85996 6.01999 5.11996 9.89999 5.11996C13.4 5.11996 15.68 4.95996 18.24 4.88996C18.3302 4.88996 18.4166 4.85414 18.4804 4.79038C18.5442 4.72661 18.58 4.64013 18.58 4.54996C18.58 4.45979 18.5442 4.37331 18.4804 4.30954C18.4166 4.24578 18.3302 4.20996 18.24 4.20996C12.67 4.20996 12.18 3.65996 1.54999 4.20996C1.50731 4.21127 1.4653 4.22098 1.42638 4.23853C1.38745 4.25607 1.35236 4.28111 1.32311 4.31222C1.29386 4.34333 1.27102 4.37989 1.2559 4.41983C1.24078 4.45976 1.23367 4.50228 1.23499 4.54496C1.2363 4.58764 1.24601 4.62964 1.26355 4.66857C1.2811 4.7075 1.30614 4.74259 1.33725 4.77184C1.36836 4.80109 1.40492 4.82393 1.44485 4.83905C1.48479 4.85417 1.52731 4.86127 1.56999 4.85996Z" fill="black"/>
<path fill-rule="evenodd" clip-rule="evenodd" d="M23.13 20.62C22.3476 19.6494 21.308 18.9182 20.13 18.51C22.93 16.79 22.73 11.81 19.34 11.15C19.296 11.1413 19.2507 11.1414 19.2067 11.1503C19.1628 11.1591 19.121 11.1766 19.0838 11.2017C19.0466 11.2268 19.0148 11.259 18.9901 11.2965C18.9654 11.334 18.9484 11.3759 18.94 11.42C18.81 12.02 19.73 11.62 20.62 12.75C21.98 14.5 21.01 18.92 16.44 17.86C12.97 17.15 13.38 11.03 18.17 11.34C18.2094 11.3439 18.2492 11.3401 18.2871 11.3286C18.325 11.3172 18.3603 11.2984 18.3909 11.2733C18.4216 11.2483 18.447 11.2174 18.4657 11.1825C18.4844 11.1476 18.4961 11.1094 18.5 11.07C18.5039 11.0306 18.5001 10.9908 18.4887 10.9529C18.4772 10.915 18.4584 10.8797 18.4334 10.8491C18.4083 10.8184 18.3774 10.793 18.3425 10.7743C18.3076 10.7556 18.2694 10.7439 18.23 10.74C17.2121 10.5161 16.1475 10.6712 15.2359 11.1764C14.3243 11.6815 13.6283 12.5019 13.2785 13.4837C12.9288 14.4655 12.9493 15.5411 13.3362 16.5089C13.7231 17.4766 14.4498 18.2699 15.38 18.74C13.18 19.62 11.38 21.41 11.68 23.74C11.68 23.8196 11.7116 23.8959 11.7679 23.9521C11.8241 24.0084 11.9004 24.04 11.98 24.04C12.0596 24.04 12.1359 24.0084 12.1921 23.9521C12.2484 23.8959 12.28 23.8196 12.28 23.74C12.39 22.29 14.28 20.46 15.34 19.67C16.24 19.12 16.22 19.15 16.34 19.05C17.3598 19.2892 18.4261 19.2408 19.42 18.91C20.1972 19.4124 20.927 19.9848 21.6 20.62C22.5274 21.3915 23.1771 22.445 23.45 23.62C23.45 23.6996 23.4816 23.7759 23.5379 23.8321C23.5941 23.8884 23.6704 23.92 23.75 23.92C23.8296 23.92 23.9059 23.8884 23.9621 23.8321C24.0184 23.7759 24.05 23.6996 24.05 23.62C24.1414 22.5388 23.8118 21.4641 23.13 20.62Z" fill="black"/>
<path fill-rule="evenodd" clip-rule="evenodd" d="M17.11 13.89C16.3892 14.3321 15.5552 14.5545 14.71 14.53C14.6706 14.5267 14.631 14.5312 14.5933 14.5433C14.5557 14.5553 14.5207 14.5747 14.4906 14.6002C14.4604 14.6257 14.4355 14.657 14.4174 14.6921C14.3993 14.7272 14.3883 14.7656 14.385 14.805C14.3817 14.8444 14.3862 14.8841 14.3983 14.9217C14.4103 14.9594 14.4297 14.9943 14.4552 15.0245C14.4807 15.0546 14.512 15.0795 14.5471 15.0976C14.5823 15.1157 14.6206 15.1267 14.66 15.13C16.66 15.5 17.45 15.13 19.1 14.04C19.72 14.65 20.29 15.47 20.66 15.04C20.7235 14.9763 20.7592 14.89 20.7592 14.8C20.7592 14.71 20.7235 14.6237 20.66 14.56C19.81 13.67 19.73 12.67 18.84 12.93C18.2392 13.2045 17.6608 13.5255 17.11 13.89Z" fill="black"/>
<path fill-rule="evenodd" clip-rule="evenodd" d="M5.73 7.13996C5.5215 6.81412 5.21756 6.56053 4.85963 6.41378C4.50171 6.26703 4.10723 6.23427 3.73 6.31996C3.49671 6.3968 3.2847 6.52731 3.11103 6.70099C2.93735 6.87467 2.80684 7.08667 2.73 7.31996C2.64762 7.55973 2.63238 7.81747 2.68594 8.06527C2.7395 8.31308 2.85982 8.54151 3.03387 8.72586C3.20791 8.91021 3.42907 9.04344 3.67339 9.11114C3.91771 9.17885 4.17589 9.17844 4.42 9.10996C4.85402 9.02071 5.2352 8.76362 5.48056 8.39465C5.72591 8.02568 5.81557 7.57472 5.73 7.13996ZM4.3 7.99996C3.86 8.13996 3.64 7.79996 3.76 7.47996C4.21 6.32996 5.89 7.52996 4.3 7.99996Z" fill="black"/>
<path fill-rule="evenodd" clip-rule="evenodd" d="M15.9 7.64996C15.79 7.64996 12.9 7.34996 12.78 7.33996C12.16 7.25996 12.04 6.42996 10.33 7.33996C9.86 7.58996 9.93 7.55996 9.33 7.28996C9.08 7.15996 8.52 6.71996 8.05 6.86996C7.58 7.01996 7.59 7.28996 7.48 7.64996C7.48 7.74996 7.23 8.00996 7.43 8.20996C7.46777 8.25956 7.51921 8.29704 7.578 8.3178C7.63678 8.33856 7.70035 8.3417 7.7609 8.32683C7.82144 8.31196 7.87632 8.27973 7.9188 8.2341C7.96128 8.18846 7.9895 8.13141 8 8.06996C8.04741 8.00758 8.08145 7.93609 8.1 7.85996C8.1 7.78996 8.28 7.67996 8.3 7.58996C9.1 8.16996 9.51 8.65996 10.41 8.43996C10.7754 8.28201 11.1534 8.1549 11.54 8.05996C11.6481 8.06884 11.7518 8.10685 11.84 8.16996C12.0968 8.32576 12.3826 8.42782 12.68 8.46996H15.94C16.4119 8.43206 16.8782 8.3415 17.33 8.19996C17.4065 8.16701 17.4687 8.10788 17.5054 8.0332C17.5422 7.95851 17.5512 7.87316 17.5307 7.79246C17.5102 7.71177 17.4617 7.64101 17.3937 7.5929C17.3258 7.54479 17.2429 7.52247 17.16 7.52996C16.7438 7.60317 16.3225 7.6433 15.9 7.64996Z" fill="black"/>
<path fill-rule="evenodd" clip-rule="evenodd" d="M12.16 12.91C12.16 12.23 10.87 12.83 10.45 12.91C10.03 12.99 9.11 11.91 8.37 12.18C8.2192 12.25 8.09103 12.3608 8 12.5C7.82761 12.8175 7.69014 13.1528 7.59 13.5C7.55685 13.5729 7.55403 13.656 7.58216 13.731C7.61029 13.8061 7.66707 13.8668 7.74 13.9C7.81294 13.9331 7.89605 13.936 7.97107 13.9078C8.04608 13.8797 8.10685 13.8229 8.14 13.75C8.28 13.54 8.59 13.35 8.7 13.2C9.06282 13.5228 9.48359 13.7739 9.94 13.94C11.04 14.09 11.17 13.4 11.94 13.27C12.0129 13.2451 12.0749 13.1955 12.115 13.1297C12.1552 13.064 12.1711 12.9862 12.16 12.91Z" fill="black"/>
<path fill-rule="evenodd" clip-rule="evenodd" d="M2.73 13.06C2.70863 13.3064 2.75247 13.5541 2.85711 13.7783C2.96175 14.0024 3.12351 14.1951 3.32615 14.3369C3.52879 14.4788 3.76519 14.5648 4.0116 14.5864C4.25801 14.608 4.50577 14.5644 4.73 14.46C4.94506 14.3744 5.13686 14.2392 5.28977 14.0654C5.44269 13.8916 5.55241 13.6842 5.61 13.46C6 11.53 2.87 11 2.73 13.06ZM4.73 13.2C4.69402 13.2652 4.64493 13.3223 4.58583 13.3676C4.52672 13.4129 4.45888 13.4456 4.38656 13.4634C4.31424 13.4813 4.23901 13.4839 4.16561 13.4713C4.0922 13.4587 4.0222 13.431 3.96 13.39C3.86971 13.2896 3.81184 13.1643 3.794 13.0305C3.77616 12.8966 3.79916 12.7605 3.86 12.64C3.93917 12.5577 4.03953 12.4989 4.15 12.47C4.93 12.33 4.8 13.12 4.76 13.2H4.73Z" fill="black"/>
</g>
<defs>
<clipPath id="clip0_1034_4091">
<rect width="24" height="24" fill="white"/>
</clipPath>
</defs>
</svg>
