<svg width="24" height="24" viewBox="0 0 24 24" fill="none" xmlns="http://www.w3.org/2000/svg">
<g clip-path="url(#clip0_1044_5185)">
<path fill-rule="evenodd" clip-rule="evenodd" d="M21.5 4.34C17.25 -1 9.32999 -0.860002 4.55999 2.41C4.52232 2.43417 4.48995 2.46576 4.46487 2.50284C4.43979 2.53992 4.42251 2.58171 4.41409 2.62568C4.40567 2.66964 4.40629 2.71486 4.4159 2.75858C4.42551 2.80231 4.44391 2.84361 4.46999 2.88C4.79999 3.38 5.04999 2.62 7.29999 1.8C12.08 0.0599978 17.55 0.839998 20.73 5C21.8183 6.49673 22.5189 8.23981 22.7689 10.0734C23.019 11.9071 22.8108 13.7741 22.1629 15.5076C21.5151 17.2411 20.4478 18.787 19.0565 20.0072C17.6652 21.2274 15.9932 22.0839 14.19 22.5C11.7402 23.0712 9.16835 22.7792 6.90903 21.6732C4.64971 20.5673 2.8415 18.7152 1.78999 16.43C0.78165 14.0911 0.482603 11.5074 0.929991 9C1.40999 6.8 2.54999 6.49 2.08999 6.1C2.06291 6.07156 2.03033 6.04892 1.99423 6.03345C1.95813 6.01798 1.91927 6.01 1.87999 6.01C1.84072 6.01 1.80185 6.01798 1.76575 6.03345C1.72966 6.04892 1.69708 6.07156 1.66999 6.1C-0.650009 8.78 -0.240009 13.68 0.999991 16.76C2.09798 19.2852 4.04112 21.3493 6.49558 22.5975C8.95004 23.8457 11.7626 24.2002 14.45 23.6C16.4436 23.1562 18.2937 22.2182 19.8299 20.8723C21.3662 19.5264 22.5393 17.8157 23.2414 15.8977C23.9434 13.9797 24.1519 11.916 23.8476 9.89633C23.5433 7.87668 22.736 5.96598 21.5 4.34Z" fill="black"/>
<path fill-rule="evenodd" clip-rule="evenodd" d="M5.69999 17.26C5.69803 17.2986 5.70471 17.3372 5.71954 17.3729C5.73438 17.4086 5.75698 17.4405 5.78572 17.4664C5.81446 17.4923 5.84861 17.5114 5.88567 17.5224C5.92274 17.5334 5.96179 17.536 5.99999 17.53C6.12999 17.53 9.16999 15.19 11.53 13.37C11.73 16.37 11.44 18.37 11.66 18.92C11.88 19.47 12.41 19.48 12.95 19.13C13.16 18.99 14.73 17.72 16.23 16.51C16.75 16.15 17.59 15.46 17.39 14.86C17.11 14.04 16.03 13.67 15.47 13.31C14.91 12.95 14.25 12.56 13.29 12C14.47 11.07 15.53 10.21 16.24 9.6C16.71 9.19 17.24 8.74 17.24 8.34C17.24 7.34 15.75 6.5 14.92 6.04C14.258 5.53707 13.5518 5.09526 12.81 4.72C12.44 4.58 11.98 4.27 11.6 4.64C10.96 5.26 11.21 6.8 11.2 7.41C11.2 8.58 11.2 9.72 11.32 10.89C10.56 10.45 7.16999 8.53 6.31999 8.26C6.23379 8.23215 6.14006 8.23969 6.05942 8.28095C5.97878 8.3222 5.91783 8.39381 5.88999 8.48C5.86214 8.5662 5.86967 8.65992 5.91093 8.74056C5.95219 8.82121 6.02379 8.88215 6.10999 8.91C6.94999 9.2 10.62 11.4 11.37 11.85V12.42C5.64999 17.2 5.65999 17 5.69999 17.26ZM15 14.06C15.4961 14.3194 15.9651 14.6276 16.4 14.98C16.15 14.98 15.81 15.61 15.69 15.69C15.57 15.77 12.84 17.89 12.69 18.01C12.7611 16.2001 12.741 14.3878 12.63 12.58C13.66 13.22 14.53 13.77 15 14.06ZM12.33 5.74C12.97 5.84 13.74 6.6 14.46 6.97C15.09 7.26934 15.6702 7.66397 16.18 8.14C16.41 8.42 16.33 8.23 15.61 8.89C14.89 9.55 13.77 10.51 12.55 11.52C12.41 9.56 12.31 6.38 12.33 5.74Z" fill="black"/>
</g>
<defs>
<clipPath id="clip0_1044_5185">
<rect width="24" height="24" fill="white"/>
</clipPath>
</defs>
</svg>
