<svg width="24" height="24" viewBox="0 0 24 24" fill="none" xmlns="http://www.w3.org/2000/svg">
<g clip-path="url(#clip0_1048_7369)">
<path d="M10.15 11.17C10.4185 11.3703 10.699 11.554 10.99 11.72C11.1841 11.821 11.4013 11.8693 11.62 11.86C11.9912 11.8081 12.339 11.6481 12.62 11.4C12.9237 11.1351 13.1926 10.8327 13.42 10.5C14.3092 10.7342 15.2413 10.7548 16.14 10.56C16.5416 10.492 16.9145 10.3081 17.213 10.0309C17.5114 9.75376 17.7224 9.39544 17.82 9C17.8443 8.85683 17.812 8.70983 17.73 8.59C17.5769 8.39711 17.3986 8.22559 17.2 8.08L15.7 6.71C15.27 6.33 14.85 5.94 14.43 5.55C13.43 4.64 12.43 3.7 11.53 2.75C11.3057 2.53088 11.0613 2.33334 10.8 2.16C10.6052 2.03793 10.3927 1.94684 10.17 1.89C9.99297 1.84605 9.81213 1.81926 9.62998 1.81C9.55856 1.81307 9.48884 1.83274 9.42635 1.86746C9.36386 1.90218 9.31032 1.95098 9.26998 2.01C8.97222 2.47497 8.78414 3.00159 8.71998 3.55C8.66036 4.33421 8.7555 5.12249 8.99998 5.87C8.99998 5.87 8.24998 6.36 7.90998 6.67C7.72286 6.84058 7.58476 7.05809 7.50998 7.3C7.44368 7.64969 7.45404 8.00961 7.54037 8.3549C7.62669 8.7002 7.78692 9.02265 8.00998 9.3C8.61318 10.0391 9.33665 10.6713 10.15 11.17ZM8.54998 7.05C8.79439 6.80038 9.05139 6.5634 9.31998 6.34C9.42904 6.28978 9.51414 6.19892 9.55711 6.08681C9.60009 5.97471 9.59753 5.85024 9.54998 5.74C9.41088 5.17103 9.35363 4.58513 9.37998 4C9.41948 3.54181 9.55947 3.09795 9.78998 2.7C10.0013 2.76675 10.2031 2.86088 10.39 2.98C10.5497 3.11633 10.7001 3.26334 10.84 3.42C11.5 4.13 12.16 4.85 12.84 5.53C13.52 6.21 14.26 6.87 15 7.53C15 7.53 16.77 8.94 16.88 9.01C16.8042 9.20063 16.6853 9.37114 16.5326 9.50818C16.38 9.64523 16.1977 9.74511 16 9.8C15.1528 10.0363 14.2571 10.0363 13.41 9.8C13.3699 9.78585 13.3275 9.77982 13.2851 9.78224C13.2427 9.78467 13.2012 9.7955 13.1631 9.81412C13.1249 9.83273 13.0909 9.85875 13.0629 9.89066C13.0348 9.92258 13.0135 9.95974 13 10C12.9908 10.0428 12.9908 10.0872 13 10.13C12.7798 10.381 12.5315 10.6058 12.26 10.8C12.089 10.9278 11.8833 11.001 11.67 11.01C11.58 11.01 11.51 10.93 11.43 10.87C11.19 10.7 10.97 10.48 10.81 10.35C10.0779 9.8927 9.41179 9.33757 8.82998 8.7C8.4951 8.36972 8.30456 7.92032 8.29998 7.45C8.34179 7.29482 8.42881 7.15558 8.54998 7.05Z" fill="black"/>
<path d="M15.78 2.99999C15.5458 2.81169 15.2823 2.66305 15 2.55999C14.3938 2.37523 13.7462 2.37523 13.14 2.55999C13.0657 2.57193 12.9993 2.61287 12.9552 2.67382C12.9111 2.73477 12.8931 2.81073 12.905 2.88499C12.9169 2.95925 12.9579 3.02573 13.0188 3.0698C13.0798 3.11387 13.1557 3.13193 13.23 3.11999C13.713 3.14423 14.1831 3.28489 14.6 3.52999C14.7737 3.62148 14.9408 3.72507 15.1 3.83999C15.388 3.99315 15.6314 4.21823 15.8067 4.49335C15.9819 4.76846 16.083 5.08425 16.1 5.40999C16.0915 5.49602 16.1172 5.58193 16.1714 5.64925C16.2257 5.71657 16.3041 5.75993 16.39 5.76999C16.4738 5.77336 16.556 5.74561 16.6206 5.69207C16.6852 5.63854 16.7277 5.563 16.74 5.47999C16.8188 5.10888 16.8111 4.7246 16.7175 4.35695C16.6239 3.98929 16.4468 3.64815 16.2 3.35999C16.0756 3.22287 15.9345 3.10193 15.78 2.99999Z" fill="black"/>
<path d="M12.91 0.840002C13.7624 0.727104 14.6286 0.891916 15.38 1.31C15.7108 1.46782 16.0284 1.65173 16.33 1.86C16.6315 2.0588 16.9128 2.28655 17.17 2.54C17.4804 2.80621 17.7249 3.14063 17.8845 3.51709C18.0441 3.89355 18.1145 4.30184 18.09 4.71C18.0778 4.79441 18.0977 4.88032 18.1459 4.95071C18.194 5.0211 18.2669 5.07082 18.35 5.09C18.4335 5.10453 18.5194 5.0853 18.5888 5.03655C18.6582 4.9878 18.7054 4.91352 18.72 4.83C18.8395 4.30255 18.8291 3.75396 18.6898 3.23139C18.5504 2.70883 18.2863 2.22792 17.92 1.83C17.6287 1.48632 17.2924 1.18358 16.92 0.930002C16.5548 0.684911 16.1621 0.483533 15.75 0.330002C14.7869 -0.0358838 13.7269 -0.0570843 12.75 0.270002C12.68 0.292929 12.6218 0.342526 12.5881 0.408042C12.5544 0.473558 12.5479 0.549715 12.57 0.620002C12.5757 0.657883 12.5893 0.694124 12.6101 0.726319C12.6308 0.758515 12.6582 0.785926 12.6903 0.806734C12.7225 0.827542 12.7587 0.84127 12.7966 0.847006C12.8345 0.852741 12.8731 0.850354 12.91 0.840002Z" fill="black"/>
<path d="M24 14.41C23.9221 13.4431 23.7885 12.4815 23.6 11.53C23.4 10.53 23.14 9.58 22.92 8.73C22.7694 8.04838 22.5654 7.37965 22.31 6.73C22.1543 6.36481 21.8886 6.05722 21.55 5.85C20.9214 5.56871 20.2153 5.51221 19.55 5.69C18.6557 5.8814 17.8237 6.29398 17.13 6.89C17.0716 6.93641 17.0341 7.0041 17.0257 7.07818C17.0172 7.15225 17.0386 7.22665 17.085 7.285C17.1314 7.34335 17.1991 7.38087 17.2732 7.3893C17.3472 7.39774 17.4216 7.37641 17.48 7.33C18.0197 6.93366 18.6362 6.65437 19.29 6.51C19.8753 6.32862 20.5075 6.37505 21.06 6.64C21.2703 6.83245 21.411 7.08915 21.46 7.37C21.64 7.95 21.74 8.63 21.84 9.05C22.07 9.89 22.3 10.82 22.53 11.79C22.76 12.76 22.95 13.62 23.08 14.54C23.2181 15.4699 23.2583 16.4117 23.2 17.35C22.0517 17.0895 20.8654 17.0421 19.7 17.21C18.4938 17.3787 17.3121 17.6909 16.18 18.14C15.8236 18.2863 15.4875 18.4779 15.18 18.71C14.7897 19.0238 14.4158 19.3576 14.06 19.71L13.8 19.93C13.8 19.19 13.75 18.45 13.69 17.71C13.69 17.33 13.62 16.96 13.56 16.59C13.5103 16.2131 13.4402 15.8393 13.35 15.47C13.1287 14.6163 12.8617 13.775 12.55 12.95C12.5419 12.9139 12.5265 12.8799 12.5047 12.85C12.483 12.8201 12.4553 12.795 12.4234 12.7762C12.3915 12.7575 12.3561 12.7455 12.3194 12.7409C12.2827 12.7364 12.2455 12.7395 12.21 12.75C12.1532 12.7645 12.1024 12.7964 12.0648 12.8412C12.0271 12.8861 12.0044 12.9416 12 13C12.14 13.86 12.22 14.71 12.33 15.57C12.33 15.94 12.43 16.3 12.49 16.66C12.55 17.02 12.61 17.39 12.68 17.75C12.8 18.42 12.93 19.09 13.06 19.75C12.81 19.62 12.52 19.45 12.15 19.28C11.755 19.0919 11.3473 18.9315 10.93 18.8C9.48253 18.3634 7.94792 18.3015 6.46999 18.62C5.15959 18.9362 3.92549 19.5108 2.83999 20.31C2.85921 19.4483 2.81911 18.5862 2.71999 17.73C2.61457 16.7813 2.4374 15.8419 2.18999 14.92L1.07999 10.65C1.06214 10.5563 1.07148 10.4594 1.10692 10.3708C1.14236 10.2822 1.20241 10.2056 1.27999 10.15C1.51879 9.9271 1.79239 9.7447 2.08999 9.61C2.89678 9.19074 3.74458 8.85564 4.61999 8.61C5.17822 8.44822 5.75952 8.38063 6.33999 8.41C6.42461 8.42163 6.51045 8.4 6.57946 8.34964C6.64846 8.29929 6.69525 8.22414 6.70999 8.14C6.72143 8.05653 6.6995 7.97192 6.64895 7.90452C6.59841 7.83713 6.52332 7.79238 6.43999 7.78C5.77257 7.69692 5.09579 7.73076 4.43999 7.88C3.4929 8.06645 2.56788 8.35133 1.67999 8.73C1.18282 8.91656 0.73478 9.21411 0.369986 9.6C0.209785 9.77126 0.0955157 9.98026 0.0378167 10.2076C-0.0198824 10.4349 -0.019136 10.6731 0.0399865 10.9C0.0999865 11.12 0.389986 12.34 0.699986 13.49C0.889986 14.16 1.07999 14.81 1.21999 15.21C1.54878 16.075 1.80957 16.9644 1.99999 17.87C2.17999 18.78 2.34999 20.87 2.34999 20.98C2.35574 21.3748 2.48904 21.7572 2.72999 22.07C2.86394 22.2346 3.03333 22.3669 3.22552 22.4569C3.41772 22.547 3.62776 22.5925 3.83999 22.59C4.06796 22.5918 4.29456 22.5546 4.50999 22.48C4.92999 22.35 5.35999 22.11 5.74999 22.02C6.27549 21.8926 6.81066 21.809 7.34999 21.77C7.87853 21.7145 8.41144 21.7145 8.93999 21.77C9.83049 21.7938 10.6797 22.1506 11.32 22.77C11.6356 23.1542 12.0227 23.4734 12.46 23.71C12.8864 23.8745 13.3488 23.9228 13.8 23.85C14.3962 23.7912 14.9676 23.5813 15.46 23.24C16.0248 22.7258 16.5404 22.16 17 21.55C17.1939 21.3445 17.4202 21.1722 17.67 21.04C18.0966 20.8239 18.5417 20.6466 19 20.51C19.4637 20.3666 19.9387 20.2629 20.42 20.2C20.8984 20.145 21.3816 20.145 21.86 20.2C21.96 20.2 22.61 20.37 22.86 20.38C22.9337 20.3876 23.0082 20.378 23.0776 20.352C23.147 20.3259 23.2094 20.2842 23.26 20.23C23.4444 19.9748 23.5676 19.6805 23.62 19.37C23.8609 17.7274 23.9878 16.0701 24 14.41ZM22.91 19.53C22.6164 19.4359 22.3076 19.3986 22 19.42C21.4669 19.3432 20.9268 19.3265 20.39 19.37C19.8523 19.4129 19.32 19.5067 18.8 19.65C18.2811 19.7788 17.7756 19.9563 17.29 20.18C16.9205 20.3483 16.5823 20.5783 16.29 20.86C15.8323 21.4223 15.3271 21.9443 14.78 22.42C14.4283 22.6571 14.0224 22.8015 13.6 22.84C12.75 22.95 12.5 22.56 12.09 22.15C11.6999 21.7207 11.2226 21.3798 10.69 21.15C10.146 20.9586 9.57625 20.8507 8.99999 20.83C8.40879 20.7993 7.816 20.8261 7.22999 20.91C6.64837 20.9911 6.07349 21.1147 5.50999 21.28C5.11999 21.4 4.67999 21.67 4.25999 21.83C4.1177 21.8916 3.96498 21.9256 3.80999 21.93C3.6913 21.94 3.57191 21.9226 3.46098 21.8793C3.35004 21.8359 3.2505 21.7678 3.16999 21.68C3.00949 21.4872 2.91179 21.2499 2.88999 21C4.01582 20.225 5.29444 19.6999 6.63999 19.46C7.98369 19.237 9.3623 19.368 10.64 19.84C11.4961 20.168 12.3281 20.5557 13.13 21C13.3152 21.0689 13.5157 21.0862 13.71 21.05C14.0158 20.9772 14.3002 20.8333 14.54 20.63C15.1193 19.9902 15.7939 19.4438 16.54 19.01C17.5818 18.5451 18.6766 18.2093 19.8 18.01C20.8871 17.8048 22.0029 17.8048 23.09 18.01C23.11 18 22.92 19.43 22.88 19.53H22.91Z" fill="black"/>
</g>
<defs>
<clipPath id="clip0_1048_7369">
<rect width="24" height="24" fill="white"/>
</clipPath>
</defs>
</svg>
