<svg width="24" height="24" viewBox="0 0 24 24" fill="none" xmlns="http://www.w3.org/2000/svg">
<g clip-path="url(#clip0_1048_7357)">
<path d="M24 14.61C24.0974 11.6925 23.9468 8.77201 23.55 5.87999C23.5657 5.67362 23.5657 5.46636 23.55 5.25999C23.41 4.58999 21.4 4.25999 20.55 4.17999C20.4719 4.1715 20.3936 4.19397 20.3319 4.24259C20.2702 4.2912 20.23 4.36208 20.22 4.43999C20.17 5.09999 21.22 4.43999 22.83 5.43999C22.8101 6.15072 22.8671 6.86152 23 7.55999C23.24 9.79999 23.11 11.35 23 17.3C21.8118 17.0414 20.5946 16.9405 19.38 17C17.1153 16.9843 14.9034 17.6842 13.06 19C13.74 16.36 15.4 15.65 17.74 14.81C18.0051 14.7269 18.2824 14.6897 18.56 14.7C18.6142 14.8227 18.71 14.9223 18.8304 14.9814C18.9508 15.0405 19.0882 15.0552 19.2184 15.0229C19.3486 14.9907 19.4633 14.9135 19.5422 14.8051C19.6212 14.6966 19.6593 14.5638 19.65 14.43C19.27 4.31999 19.65 2.89999 19.49 1.95999C19.33 1.01999 18.65 0.909994 17.7 0.769994C16.5331 0.647621 15.3547 0.83999 14.2872 1.32711C13.2198 1.81423 12.3023 2.57832 11.63 3.53999C11.55 3.70999 11.08 4.74999 11.04 4.85999C10.3576 4.33864 9.56902 3.97338 8.73001 3.78999C6.57594 3.31206 4.32076 3.66945 2.42001 4.78999C2.04957 5.03064 1.73242 5.34471 1.48817 5.71279C1.24393 6.08088 1.07779 6.49515 1.00001 6.92999C0.120013 10.49 -0.409987 11.54 0.410013 19.11C0.410013 19.42 0.410013 19.9 0.710013 20.19C0.777251 20.2461 0.855958 20.2868 0.940609 20.3093C1.02526 20.3317 1.1138 20.3354 1.20001 20.32V21.09C1.33001 22.89 3.72001 21.79 6.35001 21.57C8.53001 21.4 8.77001 21.87 10.7 22.99C11.4945 23.2887 12.3555 23.3648 13.19 23.21C13.874 23.1073 14.5227 22.8396 15.08 22.43C21.67 17.58 21.44 23.25 22.98 19.18C23.0513 18.994 23.0951 18.7986 23.11 18.6C23.1876 18.651 23.2772 18.6807 23.3699 18.6861C23.4626 18.6916 23.555 18.6726 23.6381 18.6311C23.7211 18.5896 23.7918 18.527 23.843 18.4496C23.8942 18.3722 23.9242 18.2826 23.93 18.19C24.0219 16.999 24.0453 15.8037 24 14.61ZM11.88 5.38999C14.88 -0.250006 18.6 2.22999 18.76 2.38999C18.84 2.68999 18.39 9.46999 18.37 10.09L18.46 13.54C17.3507 13.659 16.2785 14.0087 15.3124 14.5667C14.3462 15.1247 13.5075 15.8786 12.85 16.78C12.35 17.64 12.52 17.73 12.43 17.16C12.41 17.06 11.84 5.46999 11.88 5.38999ZM1.08001 9.72999C1.37001 8.61999 1.73001 5.79999 2.69001 5.47999C5.49001 4.53999 8.29001 4.30999 10.89 5.72999C11.1985 6.58845 11.3378 7.49856 11.3 8.40999C11.3 10.46 11.36 16.65 11.6 18.51C10.0081 17.7841 8.26824 17.4416 6.52001 17.51C5.13717 17.6329 3.78492 17.9878 2.52001 18.56C2.40001 18.56 1.84001 19.13 1.44001 19.35C1.44001 19.21 1.33001 19.05 1.32001 18.97C1.00001 16.25 0.530013 12.67 1.08001 9.72999ZM21.64 19.56C18.76 18.41 16.47 20.04 14.43 21.5C13.994 21.7917 13.5029 21.991 12.987 22.0856C12.471 22.1802 11.9411 22.1681 11.43 22.05C7.56001 19.31 6.06001 20.62 2.56001 21.15C2.38001 21.15 2.24001 21.24 2.15001 21.15C2.06001 21.06 1.96001 20.48 1.73001 20.15C2.16001 19.93 2.73001 19.58 2.87001 19.54C4.34001 19.08 6.00001 18 9.60001 19C12.26 19.69 12.12 20.85 13.02 20.36C14.36 19.64 16.29 17.48 22.33 18.21C22.2694 18.2828 22.2374 18.3753 22.24 18.47C21.65 19.53 21.68 19.46 21.64 19.56Z" fill="black"/>
<path d="M3.65002 9.00001C4.65002 8.86001 4.57002 8.37001 5.89002 8.37001C6.62592 8.42341 7.35188 8.57129 8.05002 8.81001C8.24002 8.74001 8.38002 8.66001 8.38002 8.47001C8.38002 8.04001 7.78002 7.60001 6.87002 7.47001C4.24002 6.98001 3.99002 8.24001 3.49002 8.47001C3.44434 8.50763 3.41081 8.55792 3.39364 8.61455C3.37647 8.67118 3.37644 8.73163 3.39354 8.78828C3.41064 8.84494 3.44412 8.89527 3.48976 8.93294C3.53539 8.97061 3.59115 8.99395 3.65002 9.00001Z" fill="black"/>
<path d="M3.65002 12.53C4.65002 12.39 4.57002 11.9 5.89002 11.9C6.62591 11.9534 7.35187 12.1013 8.05002 12.34C8.24002 12.28 8.38002 12.19 8.38002 12C8.38002 11.57 7.78002 11.14 6.87002 11C4.24002 10.51 3.99002 11.76 3.49002 12C3.44086 11.9949 3.39122 12.0021 3.3455 12.0208C3.29978 12.0396 3.2594 12.0693 3.22794 12.1074C3.19649 12.1455 3.17493 12.1908 3.16519 12.2393C3.15545 12.2877 3.15782 12.3378 3.1721 12.3851C3.18638 12.4324 3.21213 12.4755 3.24705 12.5104C3.28197 12.5454 3.32498 12.5712 3.37227 12.5855C3.41956 12.5998 3.46965 12.6023 3.51811 12.5926C3.56656 12.5829 3.61187 12.5614 3.65002 12.53Z" fill="black"/>
<path d="M3.65001 16.1C4.65001 15.96 4.57001 15.47 5.89001 15.47C6.62512 15.529 7.35039 15.6767 8.05001 15.91C8.24001 15.85 8.38001 15.76 8.38001 15.58C8.38001 15.14 7.78001 14.71 6.87001 14.58C4.24001 14.09 3.99001 15.35 3.49001 15.58C3.44006 15.5731 3.38919 15.5789 3.34209 15.5969C3.29499 15.6149 3.25319 15.6445 3.22053 15.6829C3.18788 15.7213 3.16543 15.7673 3.15527 15.8167C3.1451 15.8661 3.14755 15.9172 3.16238 15.9654C3.1772 16.0136 3.20393 16.0573 3.2401 16.0924C3.27627 16.1275 3.3207 16.153 3.3693 16.1664C3.4179 16.1798 3.46909 16.1807 3.51816 16.1691C3.56722 16.1575 3.61256 16.1338 3.65001 16.1Z" fill="black"/>
</g>
<defs>
<clipPath id="clip0_1048_7357">
<rect width="24" height="24" fill="white"/>
</clipPath>
</defs>
</svg>
