<svg width="24" height="24" viewBox="0 0 24 24" fill="none" xmlns="http://www.w3.org/2000/svg">
<path fill-rule="evenodd" clip-rule="evenodd" d="M23.77 14.16C23.35 13.75 22.46 13.93 21.9 13.93L17.19 14.11C17.75 13.69 15.4 7.78999 13.64 3.88999L13.52 3.46999C14.469 3.00547 15.5135 2.76919 16.57 2.77999C16.57 3.99999 19 9.40999 19.85 11.3C19.85 11.38 20.77 13.6 20.85 13.68C20.9166 13.7418 21.0041 13.7762 21.095 13.7762C21.1859 13.7762 21.2734 13.7418 21.34 13.68C21.54 13.48 20.62 10.88 20.65 10.96C17.65 3.15999 17.65 1.86999 16.93 1.75999C15.93 1.61999 14.14 2.45999 13.28 2.90999C12.42 3.35999 13.08 4.14999 13.42 5.43999C13.5 5.66999 13.47 5.52999 13.14 5.52999C12.6155 5.54771 12.0935 5.61129 11.58 5.71999C11.37 4.71999 10.97 4.57999 10.37 4.50999C9.61988 4.45499 8.86613 4.47509 8.12 4.56999C7.86048 4.56575 7.60155 4.59601 7.35 4.65999C7.5 3.36999 7.35 2.78999 6.24 2.37999C5.06349 1.93347 3.77115 1.89474 2.57 2.26999C1.95 2.48999 1.66 2.81999 1.57 3.79999C1.52 4.32999 1.62 13.94 1.97 14.93C1.422 15.0371 0.881001 15.1773 0.350002 15.35C-0.449998 15.63 0.420002 17.35 0.830002 18.16C1.4 19.27 0.830003 18.66 3.17 18.65C2.84131 19.3105 2.68317 20.0427 2.71 20.78C2.81 21.78 3.63 22.56 5.39 22.14C6.65 21.76 6.19 20.25 6.13 19.36C6.13 19.24 6.03 18.78 5.98 18.58C7.45 18.51 8.83 18.43 10.86 18.23C11.93 18.12 13.03 18.23 14.11 18.17C14.99 18.17 16.06 17.93 17.46 17.77C17.3999 18.6656 17.3999 19.5643 17.46 20.46C17.4 21.09 17.64 21.52 18.46 21.78C18.8533 21.9471 19.2898 21.9839 19.7055 21.8849C20.1212 21.7859 20.4942 21.5564 20.77 21.23C21.15 20.61 20.91 18.47 20.77 17.76C21.3856 18.0101 22.0744 18.0101 22.69 17.76C23.2314 17.349 23.5904 16.7424 23.69 16.07C23.71 15.7 24.32 14.71 23.77 14.16ZM7.25 5.37999C7.96669 5.28234 8.69331 5.28234 9.41 5.37999C9.67309 5.40215 9.93395 5.44562 10.19 5.50999C10.28 5.50999 10.51 5.50999 10.47 5.58999C10.21 5.99999 11 14 11 14C11.055 14.0384 11.119 14.0619 11.1857 14.0684C11.2524 14.0748 11.3197 14.0639 11.381 14.0368C11.4424 14.0097 11.4957 13.9672 11.5358 13.9134C11.5759 13.8597 11.6014 13.7965 11.61 13.73C11.76 12.86 11.73 7.66999 11.71 7.24999C11.63 6.16999 11.55 6.24999 12.96 6.32999C13.0586 6.33937 13.1558 6.35949 13.25 6.38999C13.3362 6.75001 13.3732 7.12004 13.36 7.48999C13.56 8.94999 13.36 9.65999 13.69 11.89L13.86 13.31C13.94 13.64 13.77 14.13 14.19 14.09C14.68 14.23 14.71 13.89 14.62 9.15999C14.81 9.69999 15.03 10.22 15.27 10.74C16.84 14.23 16.66 14.05 16.76 14.11C13.4227 14.0252 10.0833 14.1421 6.76 14.46C6.75 14.33 7.2 5.75999 7.25 5.37999ZM2.66 4.16999C2.85 1.99999 6.15 3.69999 6.24 3.65999C6.2909 4.28056 6.2674 4.90499 6.17 5.51999C6.11 6.41999 6 10.79 6.17 13.17C6.17 13.65 6.08 14.07 6.07 14.51C4.89776 14.5357 3.72852 14.6393 2.57 14.82C2.43 14.24 2.62 6.48999 2.66 4.16999ZM5.26 20.56C5.26 20.66 5.2 21.01 5.1 21.03C4.77148 21.1101 4.42852 21.1101 4.1 21.03C3.1 20.73 3.86 18.88 3.62 18.6C5.48 18.6 5.23 18.51 5.26 18.6C5.08 18.76 5.43 19 5.26 20.56ZM19.87 20.56C19.79 20.75 18.76 20.75 18.46 20.62C18.46 20.52 18.33 19.94 18.01 17.69C18.6757 17.639 19.3443 17.639 20.01 17.69C19.8987 18.6491 19.8519 19.6146 19.87 20.58V20.56ZM22.51 15.75C22.32 16.53 22.24 16.93 21.51 16.75C19.38 16.24 16.93 16.75 14.81 17.1C13.53 17.3 12.08 17.16 10.74 17.32C9.4 17.48 7.82 17.65 6.36 17.76C6.1 17.76 1.48 18.09 1.36 17.86C1.24 17.63 1.19 16.17 0.780002 15.92C3.33 15.17 6.02 15.44 8.78 15.25C11.87 15.04 14.94 15.25 17.51 15.25C20.94 15.25 21 15.01 22.51 15.18C22.52 15.43 22.52 15.7 22.51 15.77V15.75Z" fill="black"/>
<path fill-rule="evenodd" clip-rule="evenodd" d="M4.69002 10.45H4.27002C4.13782 10.4587 4.00701 10.4822 3.88002 10.52C3.57002 10.6 3.31002 10.73 2.99002 10.81C2.9122 10.8126 2.83844 10.8453 2.78432 10.9013C2.7302 10.9573 2.69997 11.0321 2.70002 11.11C2.69965 11.1873 2.72816 11.2619 2.77996 11.3192C2.83176 11.3766 2.9031 11.4125 2.98002 11.42C3.34312 11.5348 3.7196 11.6021 4.10002 11.62C4.31605 11.6236 4.53152 11.5967 4.74002 11.54C5.05002 11.48 5.34002 11.36 5.65002 11.31C5.69337 11.3127 5.73683 11.3068 5.77791 11.2927C5.81898 11.2786 5.85687 11.2565 5.88939 11.2277C5.9219 11.1989 5.94841 11.1639 5.9674 11.1248C5.98638 11.0858 5.99747 11.0433 6.00002 11C6.00557 10.9114 5.97625 10.8241 5.91832 10.7569C5.8604 10.6896 5.77846 10.6476 5.69002 10.64C5.36302 10.547 5.02835 10.4834 4.69002 10.45Z" fill="black"/>
<path fill-rule="evenodd" clip-rule="evenodd" d="M9.2 10.45H8.76C8.61785 10.4578 8.477 10.4813 8.34 10.52C8 10.6 7.72 10.73 7.34 10.81C7.26857 10.823 7.20396 10.8606 7.15745 10.9163C7.11093 10.9721 7.08545 11.0424 7.08545 11.115C7.08545 11.1876 7.11093 11.2579 7.15745 11.3136C7.20396 11.3694 7.26857 11.407 7.34 11.42C7.73399 11.5343 8.14017 11.6015 8.55 11.62C8.78253 11.6242 9.01459 11.5973 9.24 11.54C9.57 11.48 9.88 11.36 10.24 11.31C10.3214 11.2961 10.3953 11.2538 10.4486 11.1907C10.5018 11.1275 10.531 11.0476 10.531 10.965C10.531 10.8824 10.5018 10.8024 10.4486 10.7393C10.3953 10.6762 10.3214 10.6339 10.24 10.62C9.89856 10.535 9.55073 10.4781 9.2 10.45Z" fill="black"/>
<path fill-rule="evenodd" clip-rule="evenodd" d="M17.47 8.62999C17.3637 8.65772 17.26 8.69452 17.16 8.73999C17.0611 8.78699 16.9673 8.84395 16.88 8.90999C16.67 9.06999 16.52 9.25999 16.3 9.41999C16.2384 9.45397 16.1919 9.50987 16.1697 9.57656C16.1475 9.64326 16.1511 9.71588 16.18 9.77999C16.23 9.93999 16.38 10.04 16.49 9.99999C16.8037 10.0097 17.1172 9.97264 17.42 9.88999C17.5808 9.83226 17.7324 9.75141 17.87 9.64999C18.09 9.49999 18.27 9.31999 18.49 9.17999C18.5615 9.14527 18.617 9.0844 18.6449 9.00995C18.6728 8.93551 18.6711 8.85318 18.64 8.77999C18.6231 8.70034 18.5764 8.63013 18.5095 8.58368C18.4426 8.53723 18.3605 8.51803 18.28 8.52999C18.0068 8.52806 17.7345 8.56167 17.47 8.62999Z" fill="black"/>
</svg>
