<svg width="24" height="24" viewBox="0 0 24 24" fill="none" xmlns="http://www.w3.org/2000/svg">
<path fill-rule="evenodd" clip-rule="evenodd" d="M15.38 3.6C15.5236 3.40914 15.6539 3.20867 15.77 3C16.47 1.81 16.48 1.74 16.29 1.54C16.1 1.34 15.96 1.16 14.83 2.24C14.7105 2.35161 14.6032 2.47564 14.51 2.61C14.4151 2.73926 14.3315 2.87643 14.26 3.02C13.62 4.49 14.04 4.55 14.06 4.56C14.08 4.57 14.3 4.92 15.38 3.6Z" fill="black"/>
<path fill-rule="evenodd" clip-rule="evenodd" d="M15.79 21C15.6822 20.795 15.555 20.6007 15.41 20.42C14.33 19.1 14.12 19.42 14.09 19.42C14.06 19.42 13.65 19.49 14.29 20.96C14.3599 21.1076 14.4436 21.2482 14.54 21.38C14.6354 21.5066 14.739 21.6269 14.85 21.74C15.98 22.82 16.2 22.55 16.32 22.44C16.44 22.33 16.49 22.16 15.79 21Z" fill="black"/>
<path fill-rule="evenodd" clip-rule="evenodd" d="M22.36 7.40001C22.5527 7.27999 22.7365 7.14631 22.91 7.00001C23.91 6.08001 23.96 6.00001 23.85 5.76001C23.74 5.52001 23.64 5.31001 22.24 5.99001C22.0977 6.06372 21.9607 6.14725 21.83 6.24001C21.7008 6.3359 21.5804 6.44298 21.47 6.56001C20.41 7.77001 20.79 7.95001 20.81 7.97001C20.83 7.99001 20.94 8.33001 22.36 7.40001Z" fill="black"/>
<path fill-rule="evenodd" clip-rule="evenodd" d="M23 17.92C22.8255 17.7657 22.6418 17.6221 22.45 17.49C21.03 16.56 20.92 16.93 20.9 16.95C20.88 16.97 20.5 17.15 21.56 18.36C21.6693 18.4745 21.7862 18.5814 21.91 18.68C22.0442 18.7728 22.1845 18.8563 22.33 18.93C23.73 19.61 23.86 19.29 23.93 19.16C24 19.03 24 18.81 23 17.92Z" fill="black"/>
<path fill-rule="evenodd" clip-rule="evenodd" d="M7.29002 2.89C7.36289 3.11016 7.45318 3.32417 7.56002 3.53C8.35002 5 8.62002 4.77 8.65002 4.76C8.68002 4.75 9.10002 4.76 8.76002 3.21C8.72172 3.05184 8.66814 2.89779 8.60002 2.75C8.53585 2.60153 8.45535 2.46067 8.36002 2.33C7.47002 1.05 7.20002 1.27 7.07002 1.33C6.94002 1.39 6.86002 1.63 7.29002 2.89Z" fill="black"/>
<path fill-rule="evenodd" clip-rule="evenodd" d="M8.68004 19.24C8.68004 19.24 8.38004 18.96 7.58004 20.47C7.48058 20.6779 7.39375 20.8916 7.32004 21.11C6.87004 22.41 6.87004 22.49 7.10004 22.65C7.33004 22.81 7.50004 22.95 8.39004 21.65C8.48175 21.517 8.56204 21.3765 8.63004 21.23C8.69815 21.0822 8.75174 20.9282 8.79004 20.77C9.13004 19.22 8.71004 19.25 8.68004 19.24Z" fill="black"/>
<path fill-rule="evenodd" clip-rule="evenodd" d="M0.930007 6.8C1.04599 7.0016 1.17986 7.19237 1.33001 7.37C2.44001 8.67 2.65001 8.37 2.67001 8.37C2.69001 8.37 3.11001 8.29 2.44001 6.84C2.36895 6.69092 2.28176 6.55008 2.18001 6.42C2.08711 6.27002 1.97995 6.12937 1.86001 6C0.700007 5 0.490007 5.25 0.380007 5.36C0.270007 5.47 0.210007 5.64 0.930007 6.8Z" fill="black"/>
<path fill-rule="evenodd" clip-rule="evenodd" d="M1.05001 17.49C0.902124 17.6694 0.768388 17.8599 0.650012 18.06C-0.0699883 19.23 -0.0799882 19.3 0.100012 19.51C0.280012 19.72 0.420012 19.89 1.58001 18.84C1.69704 18.7296 1.80412 18.6092 1.90001 18.48C1.99942 18.3518 2.08648 18.2146 2.16001 18.07C2.83001 16.61 2.42001 16.55 2.39001 16.53C2.36001 16.51 2.16001 16.2 1.05001 17.49Z" fill="black"/>
<path fill-rule="evenodd" clip-rule="evenodd" d="M10.83 15.14C10.83 15.38 10.83 15.63 10.9 15.87C10.9052 15.969 10.9489 16.0621 11.0217 16.1294C11.0946 16.1966 11.1909 16.2328 11.29 16.23C11.3899 16.2249 11.4841 16.1815 11.5529 16.1089C11.6218 16.0364 11.6601 15.9401 11.66 15.84V15.17C11.9985 15.1495 12.3338 15.0925 12.66 15C12.9349 14.9408 13.1947 14.826 13.4235 14.6627C13.6523 14.4993 13.8453 14.2908 13.9905 14.05C14.1357 13.8093 14.2301 13.5413 14.2678 13.2627C14.3056 12.9841 14.2859 12.7007 14.21 12.43C14.1526 12.177 14.0302 11.9433 13.8548 11.7522C13.6794 11.561 13.4572 11.4189 13.21 11.34C12.7942 11.2424 12.3654 11.212 11.94 11.25V10.55V9.97001C12.3442 9.98184 12.7433 10.063 13.12 10.21C13.1586 10.2308 13.2011 10.2437 13.2447 10.2479C13.2884 10.2521 13.3325 10.2475 13.3744 10.2345C13.4163 10.2215 13.4552 10.2002 13.4888 10.172C13.5224 10.1437 13.55 10.1091 13.57 10.07C13.5904 10.0308 13.6028 9.9878 13.6063 9.94368C13.6098 9.89957 13.6044 9.8552 13.5904 9.81321C13.5764 9.77123 13.5541 9.73249 13.5248 9.6993C13.4956 9.66611 13.4599 9.63914 13.42 9.62001C12.9553 9.36736 12.4458 9.20771 11.92 9.15001V7.69001C11.927 7.64642 11.925 7.60184 11.914 7.55908C11.903 7.51632 11.8832 7.47631 11.856 7.44156C11.8287 7.4068 11.7946 7.37806 11.7557 7.35715C11.7168 7.33623 11.674 7.32358 11.63 7.32001C11.5413 7.31158 11.4529 7.33828 11.3837 7.39439C11.3145 7.45049 11.2701 7.5315 11.26 7.62001C11.16 8.12001 11.09 8.62001 11 9.14001C10.7977 9.14499 10.5965 9.17182 10.4 9.22001C10.1802 9.26173 9.97094 9.34693 9.78451 9.47061C9.59808 9.59429 9.43822 9.75397 9.31434 9.94026C9.19045 10.1266 9.10502 10.3357 9.06306 10.5555C9.02111 10.7752 9.02347 11.0012 9.07 11.22C9.0952 11.4824 9.19398 11.7324 9.35497 11.9411C9.51596 12.1499 9.73261 12.3089 9.98 12.4C10.2203 12.4711 10.4694 12.5081 10.72 12.51V12.98C10.72 13.4 10.8 13.82 10.84 14.23C10.2847 14.2329 9.74379 14.0538 9.3 13.72C9.22738 13.6503 9.13064 13.6114 9.03 13.6114C8.92937 13.6114 8.83263 13.6503 8.76 13.72C8.72433 13.7553 8.69601 13.7974 8.67668 13.8437C8.65735 13.8901 8.6474 13.9398 8.6474 13.99C8.6474 14.0402 8.65735 14.0899 8.67668 14.1363C8.69601 14.1826 8.72433 14.2247 8.76 14.26C9.33232 14.7764 10.0611 15.0862 10.83 15.14ZM12.65 12.53C12.81 12.53 12.94 12.6 12.99 12.77C13.25 13.57 12.55 14 11.77 14.17L11.81 13V12.54H12C12.2157 12.5142 12.4336 12.5108 12.65 12.53ZM10.08 11C9.95 10.49 10.29 10.22 10.74 10.08C10.74 10.22 10.68 10.35 10.67 10.49C10.66 10.63 10.67 11.02 10.62 11.28H10.42C10.3408 11.2759 10.265 11.2465 10.2038 11.1961C10.1426 11.1457 10.0992 11.077 10.08 11Z" fill="black"/>
<path fill-rule="evenodd" clip-rule="evenodd" d="M21 15.93C21.924 15.1351 22.6441 14.1304 23.1 13C23.1406 12.9084 23.1435 12.8045 23.1079 12.7109C23.0723 12.6173 23.0012 12.5415 22.91 12.5C22.8649 12.4785 22.8159 12.4664 22.7659 12.4643C22.716 12.4623 22.6661 12.4704 22.6194 12.4881C22.5727 12.5059 22.53 12.5329 22.494 12.5676C22.4581 12.6023 22.4295 12.6439 22.41 12.69C21.8348 13.928 20.9102 14.9708 19.75 15.69C18.632 16.3321 17.4306 16.8167 16.18 17.13C16.8439 16.5892 17.3771 15.9055 17.74 15.13C18.2961 13.9131 18.4536 12.5517 18.19 11.24C17.8778 9.9035 17.2542 8.6597 16.37 7.61C18.8379 8.81019 21.1265 10.3483 23.17 12.18C23.2053 12.2157 23.2474 12.244 23.2937 12.2633C23.3401 12.2827 23.3898 12.2926 23.44 12.2926C23.4902 12.2926 23.5399 12.2827 23.5863 12.2633C23.6326 12.244 23.6747 12.2157 23.71 12.18C23.7768 12.1079 23.8139 12.0133 23.8139 11.915C23.8139 11.8167 23.7768 11.7221 23.71 11.65C21.28 9.32 18.17 6.78 14.78 5.65C12.4002 4.79113 9.79053 4.81954 7.43001 5.73C6.76821 6.00618 6.13236 6.34084 5.53001 6.73C4.92938 7.11044 4.35781 7.53494 3.82001 8C3.27563 8.48512 2.76448 9.0063 2.29001 9.56C1.83147 10.1218 1.42007 10.7205 1.06001 11.35C1.03644 11.3873 1.02056 11.4289 1.01333 11.4723C1.0061 11.5158 1.00766 11.5603 1.01791 11.6032C1.02817 11.6461 1.04691 11.6865 1.07303 11.722C1.09916 11.7575 1.13213 11.7874 1.17001 11.81C1.20727 11.8336 1.24887 11.8494 1.29236 11.8567C1.33585 11.8639 1.38035 11.8624 1.42323 11.8521C1.46611 11.8418 1.5065 11.8231 1.54202 11.797C1.57753 11.7709 1.60746 11.7379 1.63001 11.7C1.99918 11.1192 2.42096 10.5736 2.89001 10.07C3.35695 9.57169 3.86179 9.11031 4.40001 8.69C4.92581 8.28337 5.48062 7.91573 6.06001 7.59C6.17369 7.52736 6.29051 7.47062 6.41001 7.42C5.92736 7.94213 5.52314 8.53162 5.21001 9.17C4.67935 10.4041 4.47945 11.7551 4.63001 13.09C4.721 14.4457 5.2591 15.7329 6.16001 16.75C6.20566 16.7765 6.24912 16.8066 6.29001 16.84C5.67827 16.6616 5.08545 16.4238 4.52001 16.13C3.13705 15.3837 2.0713 14.1616 1.52001 12.69C1.48652 12.6088 1.42371 12.5431 1.34405 12.5061C1.26439 12.469 1.17371 12.4633 1.09001 12.49C1.04849 12.5036 1.01007 12.5252 0.976984 12.5537C0.943897 12.5823 0.9168 12.6171 0.897266 12.6561C0.877731 12.6952 0.866147 12.7378 0.863186 12.7813C0.860225 12.8249 0.865945 12.8686 0.880014 12.91C1.39012 14.6063 2.49882 16.0597 4.00001 17C5.49528 17.9039 7.16546 18.4799 8.90001 18.69C10.3505 18.8941 11.8164 18.9677 13.28 18.91C14.2981 18.8578 15.3057 18.6798 16.28 18.38C17.9982 17.8792 19.6017 17.0469 21 15.93ZM5.68001 13C5.59304 11.8592 5.80321 10.7154 6.29001 9.68C6.77754 8.72802 7.50379 7.91887 8.39773 7.33167C9.29168 6.74448 10.3227 6.39933 11.39 6.33C12.0652 6.33122 12.7332 6.46919 13.3536 6.73558C13.9741 7.00197 14.5341 7.39127 15 7.88C16.0264 8.84848 16.7609 10.0853 17.12 11.45C17.3792 12.5419 17.2811 13.6881 16.84 14.72C16.4397 15.7665 15.6519 16.6188 14.64 17.1C14.3187 17.2434 13.9836 17.354 13.64 17.43C12.1902 17.6299 10.7198 17.6299 9.27001 17.43C8.81358 17.3309 8.36808 17.1868 7.94001 17C7.51251 16.8046 7.12833 16.5258 6.81001 16.18C6.08825 15.2762 5.69037 14.1566 5.68001 13Z" fill="black"/>
</svg>
