<svg width="24" height="24" viewBox="0 0 24 24" fill="none" xmlns="http://www.w3.org/2000/svg">
<g clip-path="url(#clip0_1031_3095)">
<path d="M5.91003 5.33001C5.49896 4.9127 5.16093 4.42931 4.91003 3.90001C4.8731 3.82277 4.80761 3.76291 4.72738 3.73305C4.64715 3.7032 4.55845 3.70569 4.48003 3.74001C4.44089 3.75726 4.40561 3.78219 4.37627 3.81331C4.34693 3.84444 4.32413 3.88113 4.30921 3.92122C4.2943 3.9613 4.28757 4.00397 4.28943 4.04671C4.29128 4.08944 4.30169 4.13136 4.32003 4.17001C4.61905 4.92948 5.08365 5.61273 5.68003 6.17001C6.32167 6.75748 7.16007 7.08332 8.03003 7.08332C8.89998 7.08332 9.73839 6.75748 10.38 6.17001C10.8398 5.78901 11.1982 5.30018 11.4233 4.74708C11.6484 4.19399 11.7331 3.5938 11.67 3.00001C11.6581 2.55031 11.5494 2.10846 11.3513 1.70456C11.1532 1.30067 10.8704 0.944225 10.5221 0.659512C10.1738 0.3748 9.7682 0.168512 9.33298 0.0547024C8.89775 -0.0591068 8.44311 -0.0777624 8.00003 6.6869e-06C7.1573 0.102865 6.36356 0.451754 5.71796 1.00309C5.07237 1.55443 4.60353 2.28377 4.37003 3.10001C4.35952 3.13546 4.3561 3.17264 4.35996 3.20942C4.36383 3.2462 4.3749 3.28186 4.39254 3.31436C4.41018 3.34686 4.43405 3.37556 4.46279 3.39884C4.49153 3.42211 4.52457 3.4395 4.56003 3.45001C4.59548 3.46051 4.63266 3.46393 4.66944 3.46007C4.70622 3.45621 4.74188 3.44514 4.77438 3.42749C4.80688 3.40985 4.83558 3.38598 4.85886 3.35724C4.88213 3.3285 4.89952 3.29546 4.91003 3.26001C5.15648 2.61246 5.5831 2.04898 6.1395 1.63611C6.69591 1.22323 7.35885 0.978219 8.05003 0.930007C8.36339 0.884148 8.68295 0.906176 8.98706 0.994597C9.29117 1.08302 9.57272 1.23577 9.81264 1.4425C10.0526 1.64923 10.2452 1.90511 10.3776 2.19281C10.51 2.48051 10.5791 2.79331 10.58 3.11001C10.619 3.52509 10.5576 3.94346 10.4009 4.32983C10.2443 4.7162 9.99704 5.05924 9.68003 5.33001C9.17102 5.8125 8.49637 6.08145 7.79503 6.08145C7.09368 6.08145 6.41903 5.8125 5.91003 5.33001Z" fill="black"/>
<path d="M8.32003 18.68C7.65903 18.2834 6.88614 18.1148 6.12003 18.2C5.58283 18.289 5.07774 18.5153 4.65373 18.8569C4.22973 19.1986 3.90121 19.644 3.70003 20.15C3.4842 20.6448 3.41656 21.1916 3.50531 21.7241C3.59406 22.2566 3.83538 22.7519 4.20003 23.15C4.50584 23.4656 4.8883 23.6965 5.31003 23.82C5.88793 24.0026 6.49733 24.0639 7.10003 24C7.13776 23.9975 7.17459 23.9874 7.20831 23.9704C7.24203 23.9533 7.27194 23.9295 7.29624 23.9005C7.32054 23.8716 7.33871 23.838 7.34968 23.8018C7.36064 23.7656 7.36416 23.7276 7.36003 23.69C7.35629 23.6532 7.34529 23.6174 7.32764 23.5848C7.30999 23.5523 7.28606 23.5235 7.25723 23.5003C7.22839 23.477 7.19523 23.4597 7.15967 23.4494C7.1241 23.439 7.08684 23.4359 7.05003 23.44C6.6209 23.4542 6.19224 23.4002 5.78003 23.28C5.39024 23.1884 5.0399 22.9746 4.78003 22.67C4.55861 22.3781 4.4258 22.0288 4.39743 21.6635C4.36906 21.2983 4.44633 20.9326 4.62003 20.61C4.7604 20.2765 4.9823 19.9836 5.26536 19.7582C5.54842 19.5328 5.88356 19.3821 6.24003 19.32C6.7713 19.244 7.31281 19.3459 7.78003 19.61C8.24617 19.8393 8.6048 20.241 8.78003 20.73C8.89457 21.1857 8.84501 21.6672 8.64003 22.09C8.56727 22.3127 8.43611 22.5118 8.26023 22.6666C8.08435 22.8214 7.87017 22.9262 7.64003 22.97C7.59794 22.9738 7.55701 22.9858 7.5196 23.0055C7.48219 23.0252 7.44905 23.052 7.42209 23.0846C7.39513 23.1171 7.37488 23.1547 7.36251 23.1951C7.35014 23.2355 7.3459 23.278 7.35003 23.32C7.35379 23.3621 7.36585 23.403 7.38551 23.4404C7.40518 23.4778 7.43205 23.511 7.46459 23.5379C7.49714 23.5649 7.53469 23.5852 7.5751 23.5975C7.61551 23.6099 7.65797 23.6141 7.70003 23.61C8.0429 23.5666 8.36867 23.4351 8.64557 23.2283C8.92248 23.0215 9.14107 22.7464 9.28003 22.43C9.60244 21.8342 9.70846 21.1451 9.58003 20.48C9.41138 19.7384 8.95911 19.0923 8.32003 18.68Z" fill="black"/>
<path d="M19.14 11C18.7554 10.6932 18.3073 10.4756 17.8282 10.3632C17.3491 10.2508 16.8511 10.2463 16.37 10.35C12.81 11.35 13.77 17.06 17.09 16.16C17.1263 16.1518 17.1606 16.1364 17.1909 16.1148C17.2212 16.0932 17.2468 16.0657 17.2664 16.0341C17.2859 16.0024 17.299 15.9672 17.3048 15.9304C17.3105 15.8937 17.3089 15.8561 17.3 15.82C17.293 15.7828 17.2784 15.7475 17.2573 15.7161C17.2362 15.6846 17.2089 15.6579 17.1771 15.6373C17.1453 15.6167 17.1097 15.6028 17.0724 15.5964C17.0351 15.59 16.9969 15.5912 16.96 15.6C15.7 15.83 15.05 14.8 15.02 13.72C14.9725 13.2054 15.1092 12.6907 15.4059 12.2676C15.7027 11.8445 16.14 11.5406 16.64 11.41C16.9667 11.3398 17.3047 11.3409 17.6309 11.4134C17.9571 11.4859 18.2638 11.628 18.53 11.83C19.1178 12.2212 19.5275 12.8285 19.67 13.52C19.7336 13.9257 19.6708 14.3412 19.49 14.71C19.4246 14.8763 19.3053 15.0159 19.1512 15.1066C18.9972 15.1972 18.8172 15.2336 18.64 15.21C18.598 15.2013 18.5546 15.2013 18.5124 15.2097C18.4703 15.2182 18.4303 15.2351 18.3948 15.2593C18.3594 15.2836 18.3292 15.3148 18.306 15.351C18.2829 15.3872 18.2672 15.4276 18.26 15.47C18.245 15.5533 18.2626 15.6392 18.3091 15.71C18.3556 15.7807 18.4276 15.8308 18.51 15.85C18.7655 15.9096 19.0326 15.8972 19.2814 15.8142C19.5303 15.7312 19.7514 15.581 19.92 15.38C20.3742 14.8176 20.5897 14.0995 20.52 13.38C20.4622 12.9108 20.3101 12.4581 20.0729 12.0492C19.8358 11.6402 19.5185 11.2833 19.14 11Z" fill="black"/>
<path d="M13.27 13C12.3575 12.7866 11.4972 12.3921 10.74 11.84C10.335 11.5514 9.96579 11.2157 9.64001 10.84C9.32008 10.4559 9.04497 10.0365 8.82001 9.59001C8.527 9.01183 8.31501 8.39604 8.19001 7.76001C7.83001 7.32001 7.46001 7.38001 7.10001 7.76001C6.87001 8.87001 6.63001 9.98001 6.46001 11.11C6.38001 11.65 6.32001 12.19 6.28001 12.73C6.28001 13.28 6.21001 13.82 6.20001 14.37C6.20001 15.31 6.20001 16.25 6.29001 17.18C6.44001 17.85 6.67001 18.03 7.04001 17.18V16.02C7.04001 15.31 7.16001 14.6 7.23001 13.89C7.30001 13.18 7.36001 12.47 7.41001 11.76C7.46001 11.05 7.52001 10.08 7.57001 9.24001C7.63676 9.50504 7.72026 9.76556 7.82001 10.02C8.28448 11.1333 9.08509 12.0738 10.11 12.71C11.0585 13.2724 12.1215 13.6142 13.22 13.71C13.91 13.49 14 13.25 13.27 13Z" fill="black"/>
</g>
<defs>
<clipPath id="clip0_1031_3095">
<rect width="24" height="24" fill="white"/>
</clipPath>
</defs>
</svg>
