<svg width="24" height="24" viewBox="0 0 24 24" fill="none" xmlns="http://www.w3.org/2000/svg">
<g clip-path="url(#clip0_1031_2993)">
<path fill-rule="evenodd" clip-rule="evenodd" d="M6.85 13.9C6.81925 13.7211 6.74472 13.5526 6.63305 13.4096C6.52138 13.2665 6.37605 13.1533 6.21 13.08C5.75246 12.9307 5.26929 12.8762 4.79 12.92C4.64073 12.9409 4.48927 12.9409 4.34 12.92C4.31145 12.9197 4.28329 12.9133 4.25742 12.9012C4.23155 12.8892 4.20856 12.8717 4.19 12.85C4.05 12.57 4.19 12.38 4.46 12.27C4.83771 12.1073 5.25387 12.0553 5.66 12.12C5.73161 12.1399 5.80819 12.1305 5.87289 12.0939C5.93759 12.0574 5.98511 11.9966 6.005 11.925C6.02489 11.8534 6.01552 11.7768 5.97895 11.7121C5.94238 11.6474 5.88161 11.5999 5.81 11.58C5.62833 11.5214 5.44035 11.4844 5.25 11.47C5.25543 11.4068 5.25543 11.3432 5.25 11.28C5.25961 11.217 5.25961 11.153 5.25 11.09C5.07 10.42 4.97 10.33 4.79 10.31C4.61 10.29 4.51 10.24 4.25 11.07C4.24056 11.1363 4.24056 11.2037 4.25 11.27C4.24029 11.3363 4.24029 11.4037 4.25 11.47V11.55C4.10742 11.5867 3.96977 11.6404 3.84 11.71C3.70452 11.7713 3.58262 11.8591 3.48141 11.968C3.3802 12.077 3.30171 12.205 3.25051 12.3447C3.19931 12.4843 3.17643 12.6327 3.18321 12.7813C3.18999 12.9299 3.2263 13.0756 3.29 13.21C3.34572 13.3744 3.44026 13.523 3.56559 13.6431C3.69093 13.7632 3.84337 13.8513 4.01 13.9C4.45961 13.9982 4.9209 14.0318 5.38 14C5.57 14 5.79 13.95 5.84 14.15C5.89 14.35 5.67 14.54 5.42 14.66C5.07125 14.8363 4.67722 14.9025 4.29 14.85C4.1862 14.8301 4.08754 14.7892 4 14.73C3.8934 14.6513 3.79309 14.5643 3.7 14.47C3.6401 14.4108 3.55925 14.3775 3.475 14.3775C3.39075 14.3775 3.30991 14.4108 3.25 14.47C3.21971 14.4981 3.19554 14.5321 3.17902 14.57C3.16249 14.6078 3.15396 14.6487 3.15396 14.69C3.15396 14.7313 3.16249 14.7722 3.17902 14.81C3.19554 14.8479 3.21971 14.8819 3.25 14.91C3.37573 15.0791 3.52374 15.2305 3.69 15.36C3.82168 15.4517 3.96672 15.5225 4.12 15.57C4.20658 15.5756 4.29343 15.5756 4.38 15.57C4.37452 15.6232 4.37452 15.6768 4.38 15.73C4.3704 15.793 4.3704 15.857 4.38 15.92C4.56 16.59 4.66 16.68 4.85 16.7C5.04 16.72 5.12 16.77 5.38 15.94C5.38944 15.8737 5.38944 15.8063 5.38 15.74C5.38986 15.6737 5.38986 15.6063 5.38 15.54C5.61783 15.494 5.84942 15.4201 6.07 15.32C6.34155 15.2065 6.56657 15.0043 6.70825 14.7464C6.84994 14.4884 6.89991 14.19 6.85 13.9Z" fill="black"/>
<path fill-rule="evenodd" clip-rule="evenodd" d="M9.12001 15.22C9.57459 14.1765 9.6315 13.0026 9.28001 11.92C9.09844 11.379 8.78771 10.8905 8.37474 10.4967C7.96176 10.1029 7.45901 9.81568 6.91001 9.66C6.83043 9.63451 6.74402 9.64116 6.66928 9.67853C6.59453 9.7159 6.53737 9.78104 6.51001 9.86C6.48452 9.93959 6.49117 10.026 6.52854 10.1007C6.56591 10.1755 6.63105 10.2326 6.71001 10.26C7.14734 10.4036 7.54371 10.6503 7.86569 10.9792C8.18767 11.3081 8.42581 11.7097 8.56001 12.15C8.80686 13.0505 8.71801 14.0101 8.31001 14.85C7.92615 15.6468 7.27504 16.2837 6.47001 16.65C5.65876 17.027 4.75707 17.1658 3.87001 17.05C3.25415 17.0095 2.66437 16.7862 2.17623 16.4085C1.68809 16.0308 1.3238 15.516 1.13001 14.93C0.966134 14.3064 0.959844 13.6518 1.11171 13.0251C1.26357 12.3985 1.56883 11.8194 2.00001 11.34C2.42741 10.7669 3.00555 10.3238 3.67001 10.06C4.35231 9.818 5.07954 9.72923 5.80001 9.8C5.83704 9.80563 5.87484 9.80348 5.911 9.79371C5.94715 9.78394 5.98088 9.76675 6.01004 9.74323C6.03919 9.71972 6.06314 9.6904 6.08035 9.65713C6.09756 9.62387 6.10766 9.58738 6.11001 9.55C6.11415 9.51374 6.1109 9.47701 6.10044 9.44204C6.08998 9.40706 6.07254 9.37458 6.04917 9.34653C6.02581 9.31849 5.997 9.29548 5.96448 9.27889C5.93197 9.2623 5.89643 9.25247 5.86001 9.25C5.0449 9.05819 4.19083 9.11746 3.41001 9.42C2.59618 9.67583 1.87605 10.1663 1.34001 10.83C0.78872 11.4028 0.390688 12.1053 0.182697 12.8726C-0.0252943 13.6399 -0.0365351 14.4472 0.150013 15.22C0.383685 16.0095 0.852462 16.7091 1.49385 17.2254C2.13525 17.7418 2.91878 18.0503 3.74001 18.11C4.82747 18.2315 5.92704 18.0407 6.91001 17.56C7.90443 17.0716 8.68917 16.2407 9.12001 15.22Z" fill="black"/>
<path fill-rule="evenodd" clip-rule="evenodd" d="M20.1 2.11C17.99 2.7 15.82 3.21 13.63 3.75L13.29 3.83C13.3371 3.72031 13.3739 3.60649 13.4 3.49C13.469 3.15337 13.4305 2.80357 13.29 2.49C13.0896 2.046 12.734 1.69042 12.29 1.49C11.8821 1.32189 11.4356 1.26997 11 1.34C10.6127 1.41465 10.2499 1.58442 9.94446 1.83403C9.63899 2.08365 9.40035 2.40528 9.25002 2.77C9.0966 3.09436 9.04136 3.4565 9.09111 3.81184C9.14086 4.16719 9.29342 4.50024 9.53001 4.77L9.30002 4.83C6.88002 5.45 4.49002 6.14 2.13002 6.83C2.05887 6.84671 1.99708 6.89059 1.95784 6.95225C1.9186 7.01391 1.90503 7.08846 1.92002 7.16C1.92824 7.19628 1.94361 7.23057 1.96523 7.26084C1.98686 7.29112 2.0143 7.31678 2.04595 7.33634C2.07761 7.35589 2.11284 7.36893 2.1496 7.37471C2.18635 7.38049 2.22389 7.37889 2.26002 7.37L4.26002 6.98C4.20368 7.15256 4.16351 7.32999 4.14001 7.51C4.12484 7.61612 4.12484 7.72387 4.14001 7.83C4.14001 7.83 4.14002 8.94 4.73002 8.94C5.32001 8.94 5.21002 7.76 5.21002 7.76V7.46C5.14879 7.2525 5.07532 7.04881 4.99001 6.85C6.15001 6.56 7.40001 6.31 8.65001 6C9.49002 5.82 10.32 5.62 11.16 5.41C11.06 7.17 11 8.9 11 10.64C11 11.78 11 12.92 11.06 14.06C11.06 15.69 11.15 17.31 11.12 18.93H11C10.45 18.93 9.92002 19.05 9.38002 19.12C8.84002 19.19 8.31002 19.29 7.78002 19.4C7.74275 19.4033 7.70662 19.4145 7.67411 19.4331C7.6416 19.4516 7.61347 19.4769 7.59164 19.5073C7.5698 19.5376 7.55478 19.5724 7.5476 19.6091C7.54041 19.6458 7.54124 19.6836 7.55002 19.72C7.56228 19.7928 7.60278 19.8578 7.6627 19.9008C7.72263 19.9439 7.79713 19.9616 7.87002 19.95C8.40001 19.88 8.93002 19.82 9.45002 19.78C9.97001 19.74 10.51 19.72 11.04 19.71H12.04C12.38 19.71 12.72 19.71 13.04 19.78C13.3754 19.8003 13.7093 19.8403 14.04 19.9C14.2104 19.9214 14.3742 19.9794 14.52 20.07C14.6111 20.1253 14.6812 20.2094 14.7192 20.309C14.7573 20.4086 14.7611 20.518 14.73 20.62C14.7077 20.7458 14.6563 20.8647 14.5799 20.9671C14.5035 21.0696 14.4043 21.1527 14.29 21.21C14.072 21.3033 13.8438 21.3704 13.61 21.41C13.2 21.48 12.78 21.5 12.38 21.54C11.72 21.61 11.05 21.7 10.38 21.76C9.94002 21.76 9.50001 21.83 9.07001 21.84C8.81373 21.8598 8.5563 21.8598 8.30002 21.84C8.19499 21.8139 8.09404 21.7736 8.00002 21.72C7.89934 21.6703 7.81327 21.5953 7.75018 21.5024C7.68709 21.4096 7.64913 21.3019 7.64002 21.19C7.63172 21.0682 7.65178 20.946 7.69863 20.8333C7.74547 20.7205 7.81783 20.6201 7.91002 20.54C7.93904 20.5112 7.96208 20.4769 7.9778 20.4391C7.99352 20.4014 8.00161 20.3609 8.00161 20.32C8.00161 20.2791 7.99352 20.2386 7.9778 20.2008C7.96208 20.1631 7.93904 20.1288 7.91002 20.1C7.88376 20.0671 7.85129 20.0398 7.81447 20.0195C7.77764 19.9992 7.73717 19.9864 7.69538 19.9817C7.65359 19.9771 7.61129 19.9807 7.5709 19.9924C7.53052 20.0042 7.49284 20.0237 7.46002 20.05C7.28529 20.1887 7.14417 20.365 7.0472 20.5659C6.95023 20.7668 6.89991 20.9869 6.90002 21.21C6.9011 21.4449 6.96348 21.6755 7.08099 21.879C7.19849 22.0824 7.36706 22.2517 7.57002 22.37C7.76865 22.4826 7.98512 22.5604 8.21002 22.6C8.50405 22.6505 8.80168 22.6773 9.10002 22.68H10.47C11.15 22.68 11.82 22.61 12.47 22.58C12.9 22.58 13.36 22.58 13.8 22.47C14.145 22.4249 14.4818 22.3306 14.8 22.19C15.06 22.0579 15.2856 21.8672 15.4592 21.6329C15.6328 21.3986 15.7494 21.1272 15.8 20.84C15.8666 20.5303 15.8361 20.2077 15.7126 19.916C15.5891 19.6243 15.3787 19.3777 15.11 19.21C14.9042 19.0836 14.6772 18.9955 14.44 18.95C13.99 18.8822 13.5351 18.8521 13.08 18.86H12.21H11.73C11.91 17.07 12.03 15.27 12.04 13.46C12.04 12.32 12.04 11.17 11.98 10.03C11.92 8.44 11.79 6.86 11.73 5.27L12.2 5.15H12.27H12.33L14.03 4.69C15.44 4.29 16.83 3.86 18.2 3.41C18.19 3.51643 18.19 3.62356 18.2 3.73C18.2069 3.85116 18.2236 3.97156 18.25 4.09C18.46 5.28 18.64 5.23 18.78 5.22C18.92 5.21 19.11 5.13 19.25 4.05C19.26 3.9302 19.26 3.80979 19.25 3.69C19.2648 3.57045 19.2648 3.44954 19.25 3.33C19.2313 3.252 19.2079 3.17519 19.18 3.1L20.29 2.73C20.3294 2.71752 20.366 2.69741 20.3976 2.67081C20.4292 2.6442 20.4553 2.61163 20.4743 2.57495C20.4934 2.53827 20.505 2.49821 20.5085 2.45703C20.5121 2.41586 20.5075 2.37439 20.495 2.335C20.4825 2.2956 20.4624 2.25905 20.4358 2.22742C20.4092 2.1958 20.3766 2.16973 20.34 2.15069C20.3033 2.13165 20.2632 2.12003 20.2221 2.11648C20.1809 2.11293 20.1394 2.11752 20.1 2.13V2.11ZM12.58 3.53C12.5474 3.7103 12.4902 3.88527 12.41 4.05L10.48 4.52C10.3968 4.48179 10.322 4.4274 10.26 4.36C10.1267 4.19715 10.0482 3.9964 10.0356 3.78633C10.0231 3.57626 10.0771 3.36758 10.19 3.19C10.2824 2.98764 10.421 2.80982 10.5947 2.67087C10.7684 2.53191 10.9723 2.4357 11.19 2.39C11.4504 2.33491 11.7211 2.35574 11.97 2.45C12.2089 2.53553 12.4105 2.70175 12.54 2.92C12.6167 3.11417 12.6307 3.32747 12.58 3.53Z" fill="black"/>
<path fill-rule="evenodd" clip-rule="evenodd" d="M23.73 12.38C21.6248 12.2692 19.5152 12.2692 17.41 12.38C16.1958 12.412 14.9887 12.5763 13.81 12.87C13.7732 12.8737 13.7374 12.8848 13.7049 12.9024C13.6723 12.92 13.6436 12.944 13.6203 12.9728C13.5971 13.0016 13.5797 13.0348 13.5694 13.0704C13.5591 13.1059 13.5559 13.1432 13.56 13.18C13.5726 13.2494 13.6078 13.3127 13.66 13.36C13.6318 13.3903 13.6143 13.4289 13.61 13.47C13.5615 13.9965 13.6503 14.5265 13.8676 15.0084C14.0849 15.4904 14.4234 15.9078 14.85 16.22C15.4371 16.6931 16.1193 17.0342 16.85 17.22C17.5892 17.419 18.3581 17.4834 19.12 17.41C20.2837 17.2526 21.3502 16.6767 22.12 15.79C22.8282 14.9953 23.3266 14.0363 23.57 13H23.63C23.7136 13.0145 23.7994 12.9953 23.8688 12.9466C23.9382 12.8978 23.9854 12.8235 24 12.74C24.0066 12.6574 23.9828 12.5752 23.9331 12.5089C23.8834 12.4427 23.8112 12.3968 23.73 12.38ZM21.53 15.27C20.8691 15.9414 19.989 16.3531 19.05 16.43C18.4072 16.4892 17.759 16.4453 17.13 16.3C16.4976 16.182 15.8935 15.9444 15.35 15.6C14.9909 15.3892 14.6931 15.0882 14.4862 14.7269C14.2792 14.3656 14.1702 13.9564 14.17 13.54C14.17 13.54 14.17 13.54 14.17 13.46C15.37 13.4 16.61 13.34 17.86 13.25L19.8 13.08C20.8307 12.9885 21.866 12.9617 22.9 13C22.6324 13.8558 22.1624 14.6344 21.53 15.27Z" fill="black"/>
<path fill-rule="evenodd" clip-rule="evenodd" d="M16.68 11.66C16.76 11.55 16.97 11.08 17.06 10.97C17.2981 10.6227 17.5551 10.2889 17.83 9.97C17.8438 10.0202 17.8704 10.066 17.9072 10.1028C17.944 10.1396 17.9898 10.1662 18.04 10.18C18.3257 10.2601 18.6261 10.2729 18.9176 10.2174C19.2091 10.1619 19.4838 10.0395 19.72 9.86C19.9591 10.0306 20.1743 10.2324 20.36 10.46C20.48 10.6 20.83 11.09 20.94 11.25C21.05 11.41 20.94 11.34 21.02 11.39C21.5 12.04 21.88 11.96 22.17 11.39C22.0068 11.0401 21.8127 10.7054 21.59 10.39C21.4467 10.1658 21.2716 9.96369 21.07 9.79C20.8424 9.60032 20.5858 9.44839 20.31 9.34C20.4352 9.16973 20.5456 8.98907 20.64 8.8C20.7908 8.54592 20.8868 8.26313 20.9219 7.96976C20.957 7.67639 20.9304 7.37893 20.8437 7.09646C20.7571 6.81399 20.6124 6.55274 20.4189 6.32948C20.2254 6.10621 19.9873 5.92587 19.72 5.8C19.3096 5.66421 18.874 5.62157 18.445 5.6752C18.0161 5.72882 17.6044 5.87735 17.24 6.11C16.8454 6.3147 16.5228 6.63513 16.3155 7.02835C16.1082 7.42157 16.026 7.86877 16.08 8.31C16.1556 8.66314 16.3329 8.98642 16.59 9.24C16.7844 9.41243 16.9994 9.56021 17.23 9.68C16.9128 9.83358 16.6114 10.0178 16.33 10.23C16.175 10.3652 16.0342 10.516 15.91 10.68C15.7835 10.8457 15.6793 11.0272 15.6 11.22C15.6 11.35 15.39 11.84 15.36 11.98C15.37 12.35 15.75 12.32 16.68 11.66ZM17.23 8.92C17.0275 8.74049 16.9021 8.48972 16.88 8.22C16.8856 7.95277 16.9717 7.69344 17.1269 7.47582C17.282 7.2582 17.4992 7.09239 17.75 7C17.9822 6.85652 18.2421 6.76366 18.5126 6.72747C18.7831 6.69128 19.0583 6.71259 19.32 6.79C20.01 7.04 20.06 7.79 19.83 8.43C19.83 8.43 19.28 9.8 18.19 9.59C18.1731 9.55228 18.1467 9.51956 18.1134 9.49503C18.0801 9.4705 18.0411 9.45499 18 9.45C17.7183 9.31287 17.4587 9.13422 17.23 8.92Z" fill="black"/>
</g>
<defs>
<clipPath id="clip0_1031_2993">
<rect width="24" height="24" fill="white"/>
</clipPath>
</defs>
</svg>
