<svg width="24" height="24" viewBox="0 0 24 24" fill="none" xmlns="http://www.w3.org/2000/svg">
<path fill-rule="evenodd" clip-rule="evenodd" d="M15 8.54999C14.1678 8.14819 13.2332 8.00869 12.32 8.14999V7.92999V5.92999C12.9592 5.94333 13.5915 6.06505 14.19 6.28999C14.2603 6.32019 14.3397 6.32136 14.4109 6.29326C14.4821 6.26517 14.5392 6.21007 14.57 6.13999C14.5846 6.10456 14.5921 6.06657 14.592 6.02823C14.5919 5.98988 14.5842 5.95195 14.5693 5.91661C14.5544 5.88127 14.5327 5.84923 14.5053 5.82235C14.478 5.79546 14.4456 5.77427 14.41 5.75999C13.7462 5.46246 13.0355 5.2831 12.31 5.22999V3.93999C12.31 3.86308 12.2794 3.78932 12.225 3.73493C12.1707 3.68055 12.0969 3.64999 12.02 3.64999C11.9431 3.64999 11.8693 3.68055 11.8149 3.73493C11.7605 3.78932 11.73 3.86308 11.73 3.93999C11.68 4.36999 11.62 4.79999 11.57 5.22999C10.8544 5.27335 10.1637 5.50821 9.56998 5.90999C9.17624 6.17689 8.83687 6.51625 8.56998 6.90999C8.41004 7.15879 8.34936 7.45858 8.39998 7.74999C8.47127 8.0923 8.63913 8.40701 8.88369 8.65689C9.12826 8.90677 9.43929 9.08136 9.77998 9.15999C10.224 9.27245 10.6827 9.31629 11.14 9.28999V9.56999C11.14 10.14 11.14 10.71 11.07 11.28C11 11.85 11.07 12.28 11.07 12.71H10.75C10.356 12.6979 9.96421 12.6477 9.57998 12.56C9.36998 12.51 9.15998 12.46 9.09998 12.32C9.06487 12.241 9.00014 12.1789 8.91973 12.1471C8.83931 12.1153 8.74963 12.1163 8.66998 12.15C8.62996 12.1663 8.59367 12.1905 8.56327 12.2212C8.53288 12.252 8.50902 12.2885 8.49314 12.3287C8.47725 12.3689 8.46967 12.4118 8.47084 12.455C8.47202 12.4982 8.48193 12.5407 8.49998 12.58C8.56628 12.7143 8.65886 12.834 8.77222 12.9319C8.88559 13.0298 9.01744 13.1039 9.15998 13.15C9.65374 13.3216 10.1684 13.4258 10.69 13.46H11V15.26C10.9973 15.3042 11.0035 15.3484 11.0182 15.3901C11.033 15.4318 11.056 15.4701 11.0858 15.5028C11.1157 15.5355 11.1518 15.5618 11.192 15.5802C11.2322 15.5986 11.2758 15.6087 11.32 15.61C11.4068 15.6101 11.4904 15.5771 11.5536 15.5176C11.6168 15.4581 11.6549 15.3767 11.66 15.29L11.84 13.43C12.6924 13.3606 13.5204 13.1118 14.27 12.7C14.6908 12.4784 15.0461 12.1503 15.3005 11.7485C15.555 11.3467 15.6996 10.8851 15.72 10.41C15.7673 10.0644 15.726 9.71238 15.6001 9.38705C15.4742 9.06172 15.2677 8.7737 15 8.54999ZM10.1 8.13999C9.92579 8.10886 9.76428 8.02814 9.6348 7.90754C9.50532 7.78693 9.41337 7.63154 9.36998 7.45999C9.36998 7.32999 9.44998 7.21999 9.54998 7.09999C9.72043 6.90695 9.90785 6.72958 10.11 6.56999C10.5167 6.25264 10.9932 6.03669 11.5 5.93999C11.42 6.57999 11.34 7.21999 11.28 7.86999V8.19999C10.8759 8.23815 10.4683 8.21795 10.07 8.13999H10.1ZM13.84 11.93C13.2805 12.282 12.6539 12.5135 12 12.61C12 12.19 12.09 11.77 12.12 11.34C12.15 10.91 12.22 10.21 12.26 9.63999V9.24999H13.14C13.99 9.24999 14.74 9.36999 14.74 10.45C14.7244 10.7556 14.6307 11.0521 14.4679 11.3112C14.3051 11.5703 14.0786 11.7834 13.81 11.93H13.84Z" fill="black"/>
<path fill-rule="evenodd" clip-rule="evenodd" d="M22 21.08C21.8949 20.5884 21.668 20.131 21.34 19.75C20.93 19.26 20.39 18.87 19.93 18.42L19.05 17.54C18.16 16.71 17.7 17.13 18.3 17.82C18.66 18.2 18.99 18.61 19.3 18.99C19.61 19.37 20.19 19.85 20.56 20.34C20.7635 20.61 20.8975 20.926 20.95 21.26C20.966 21.5493 20.8919 21.8364 20.7379 22.0818C20.5839 22.3271 20.3575 22.5187 20.09 22.63C19.847 22.7982 19.5617 22.8948 19.2665 22.909C18.9713 22.9231 18.678 22.8542 18.42 22.71C18.2033 22.5449 18.0113 22.3496 17.85 22.13C17.5819 21.7336 17.3414 21.3193 17.13 20.89C16.77 20.21 16.41 19.53 16.13 18.82C16.134 18.7868 16.134 18.7532 16.13 18.72C15.63 17.92 15.25 18.22 15.51 19C15.51 19.15 15.6 19.3 15.66 19.45C15.8867 20.07 16.1367 20.68 16.41 21.28C16.6019 21.766 16.8292 22.2372 17.09 22.69C17.2946 23.0251 17.555 23.3227 17.86 23.57C18.2848 23.8438 18.7796 23.9895 19.285 23.9895C19.7905 23.9895 20.2852 23.8438 20.71 23.57C21.156 23.3391 21.5194 22.9757 21.7504 22.5298C21.9814 22.084 22.0686 21.5775 22 21.08Z" fill="black"/>
<path fill-rule="evenodd" clip-rule="evenodd" d="M15.69 17.67C15.7233 17.6252 15.7413 17.5708 15.7413 17.515C15.7413 17.4592 15.7233 17.4048 15.69 17.36C15.6704 17.327 15.6446 17.2982 15.6138 17.2753C15.5831 17.2524 15.5481 17.2358 15.5109 17.2265C15.4737 17.2172 15.435 17.2154 15.3971 17.2211C15.3592 17.2269 15.3228 17.2401 15.29 17.26C14.978 17.4391 14.6409 17.5706 14.29 17.65C13.7275 17.7785 13.1557 17.8621 12.58 17.9C11.1085 18.0286 9.6262 17.862 8.22 17.41C6.83108 16.9799 5.58846 16.1734 4.63 15.08C3.80245 14.0603 3.25324 12.8436 3.03592 11.5484C2.81861 10.2533 2.9406 8.92395 3.39 7.68999C3.78256 6.44039 4.43438 5.28769 5.30285 4.3072C6.17133 3.32672 7.23693 2.54052 8.43 1.99999C9.1637 1.68592 9.92771 1.44801 10.71 1.28999C11.4606 1.11978 12.233 1.06582 13 1.12999C15.0963 1.41821 16.9976 2.51235 18.3 4.17999C19.6345 5.85306 20.3608 7.92991 20.36 10.07C20.3482 10.9022 20.2442 11.7306 20.05 12.54C19.8647 13.3381 19.525 14.0923 19.05 14.76C18.5965 15.2793 18.1015 15.7609 17.57 16.2C17.2417 16.4937 16.8665 16.7304 16.46 16.9C16.3766 16.9254 16.3067 16.9828 16.2654 17.0596C16.2242 17.1364 16.2151 17.2264 16.24 17.31C16.2516 17.3485 16.2709 17.3843 16.2967 17.4152C16.3225 17.4462 16.3542 17.4716 16.39 17.49C17.5216 16.7987 18.6042 16.0302 19.63 15.19C20.1715 14.455 20.5592 13.6183 20.77 12.73C21.0043 11.8652 21.1352 10.9756 21.16 10.08C21.2141 7.73495 20.4584 5.44291 19.02 3.58999C17.6098 1.6901 15.5082 0.421949 13.17 0.059993C12.2797 -0.0428476 11.3788 -0.00573196 10.5 0.169993C9.64328 0.343442 8.80585 0.601369 8 0.939993C6.65639 1.54691 5.45858 2.43493 4.48736 3.54415C3.51615 4.65337 2.79412 5.95799 2.37 7.36999C1.89016 8.77165 1.78818 10.275 2.07434 11.7286C2.3605 13.1823 3.02469 14.5348 4 15.65C5.07724 16.8341 6.46195 17.6961 8 18.14C9.51206 18.5777 11.0955 18.7136 12.66 18.54C13.2666 18.485 13.8683 18.3847 14.46 18.24C14.8877 18.0908 15.2997 17.8998 15.69 17.67Z" fill="black"/>
</svg>
