<svg width="24" height="24" viewBox="0 0 24 24" fill="none" xmlns="http://www.w3.org/2000/svg">
<g clip-path="url(#clip0_1031_2983)">
<path fill-rule="evenodd" clip-rule="evenodd" d="M15 1.8C15.0799 1.73675 15.1505 1.6627 15.21 1.58C15.2691 1.50049 15.3226 1.41695 15.37 1.33C15.77 0.490001 15.79 0.330001 15.6 0.150001C15.41 -0.0299991 15.35 -0.149999 14.46 0.590001C14.3796 0.652206 14.3059 0.722583 14.24 0.800001C14.1777 0.879337 14.1209 0.962868 14.07 1.05C13.62 2.05 13.8 2.13 13.87 2.2C14.11 2.41 14.92 1.86 15 1.8Z" fill="black"/>
<path fill-rule="evenodd" clip-rule="evenodd" d="M19.9 4.58C20.0006 4.53799 20.0976 4.48782 20.19 4.43C21.19 3.87 21.19 3.76 21.12 3.55C21.05 3.34 20.91 3.16 19.8 3.33C19.6808 3.34938 19.5637 3.3795 19.45 3.42C19.3344 3.46099 19.2237 3.51465 19.12 3.58C19.12 3.58 18.17 4.27 18.32 4.58C18.32 4.68 18.42 4.9 19.58 4.68C19.6893 4.65569 19.7963 4.62223 19.9 4.58Z" fill="black"/>
<path fill-rule="evenodd" clip-rule="evenodd" d="M21.54 10.42C21.4364 10.3064 21.3226 10.2027 21.2 10.11C21.0788 10.0109 20.9481 9.92379 20.81 9.85C20.68 9.79 19.51 9.24 19.3 9.62C19.23 9.74 19.09 9.81 20.12 10.82C20.2173 10.9205 20.3245 11.011 20.44 11.09C20.5537 11.1791 20.674 11.2593 20.8 11.33C21.91 11.99 22.09 11.99 22.26 11.77C22.43 11.55 22.41 11.38 21.54 10.42Z" fill="black"/>
<path fill-rule="evenodd" clip-rule="evenodd" d="M3.43 5.6C3.3293 5.56403 3.22554 5.53725 3.12 5.52H2.81C1.62 5.61 1.67 5.88 1.66 5.98C1.65 6.08 1.66 6.31 2.66 6.68C2.7509 6.71454 2.84457 6.7413 2.94 6.76C3.03949 6.77423 3.14051 6.77423 3.24 6.76C4.33 6.7 4.33 6.48 4.35 6.38C4.4 6.08 3.52 5.64 3.43 5.6Z" fill="black"/>
<path fill-rule="evenodd" clip-rule="evenodd" d="M2.89 11.21C2.77353 11.276 2.66599 11.3567 2.57 11.45C2.46458 11.535 2.37343 11.6362 2.3 11.75C1.49 12.85 1.75 13 1.84 13.08C1.93 13.16 2.11 13.26 3.11 12.59L3.39 12.39L3.64 12.14C4.35 11.29 4.37 11.14 4.26 11C4.15 10.86 3.11 11.09 2.89 11.21Z" fill="black"/>
<path fill-rule="evenodd" clip-rule="evenodd" d="M13.27 9.16C12.894 9.0683 12.5062 9.03458 12.12 9.06V8.34V7.72C12.4886 7.75979 12.8492 7.85415 13.19 8C13.2273 8.02096 13.2684 8.03422 13.3109 8.03902C13.3534 8.04382 13.3964 8.04004 13.4374 8.02793C13.4785 8.01581 13.5166 7.99559 13.5497 7.96846C13.5828 7.94134 13.6101 7.90786 13.63 7.87C13.6506 7.83211 13.6633 7.79044 13.6674 7.74751C13.6715 7.70457 13.6668 7.66126 13.6538 7.62016C13.6407 7.57906 13.6194 7.54103 13.5913 7.50835C13.5632 7.47568 13.5287 7.44902 13.49 7.43C13.0568 7.20289 12.5857 7.05715 12.1 7V5.49C12.1084 5.40397 12.0828 5.31806 12.0286 5.25074C11.9743 5.18342 11.8958 5.14006 11.81 5.13C11.7245 5.12406 11.6399 5.15063 11.5731 5.20441C11.5064 5.25818 11.4624 5.33518 11.45 5.42C11.36 5.92 11.29 6.42 11.2 6.93C10.9333 6.94353 10.6687 6.98373 10.41 7.05C10.192 7.08736 9.98358 7.16766 9.79687 7.28622C9.61015 7.40479 9.44885 7.55926 9.32232 7.74068C9.1958 7.92209 9.10657 8.12684 9.05982 8.34302C9.01307 8.5592 9.00973 8.78252 9.04999 9C9.07724 9.2675 9.1815 9.52135 9.35011 9.73079C9.51873 9.94023 9.74448 10.0963 9.99999 10.18C10.2952 10.2848 10.6068 10.3356 10.92 10.33V10.82C10.92 11.25 11 11.68 11.04 12.1C10.4127 12.1331 9.79354 11.9456 9.28999 11.57C9.25638 11.5349 9.21602 11.507 9.17134 11.4879C9.12666 11.4688 9.07857 11.459 9.02999 11.459C8.9814 11.459 8.93332 11.4688 8.88864 11.4879C8.84395 11.507 8.80359 11.5349 8.76999 11.57C8.70159 11.6393 8.66324 11.7327 8.66324 11.83C8.66324 11.9273 8.70159 12.0207 8.76999 12.09C9.42067 12.6533 10.2495 12.9685 11.11 12.98C11.11 13.24 11.16 13.5 11.19 13.75C11.19 13.8481 11.229 13.9422 11.2984 14.0116C11.3677 14.081 11.4619 14.12 11.56 14.12C11.6581 14.12 11.7522 14.081 11.8216 14.0116C11.891 13.9422 11.93 13.8481 11.93 13.75V13C12.2043 12.977 12.4756 12.9267 12.74 12.85C13.0169 12.7921 13.2788 12.6779 13.5096 12.5143C13.7404 12.3508 13.935 12.1415 14.0814 11.8994C14.2277 11.6574 14.3227 11.3878 14.3603 11.1075C14.3979 10.8271 14.3774 10.5421 14.3 10.27C14.2452 10.0089 14.1204 9.76771 13.9389 9.57217C13.7575 9.37663 13.5262 9.23415 13.27 9.16ZM10.15 8.79C9.99999 8.18 10.46 7.9 11.03 7.79C11.03 7.96 10.96 8.13 10.94 8.3C10.92 8.47 10.94 8.84 10.94 9.12C10.8104 9.13523 10.6795 9.13523 10.55 9.12C10.4539 9.12588 10.3592 9.09508 10.285 9.03383C10.2107 8.97258 10.1625 8.88544 10.15 8.79ZM12 12L12.06 10.83V10.31H12.12C12.3326 10.2843 12.5474 10.2843 12.76 10.31C12.93 10.31 13.08 10.39 13.13 10.57C13.4 11.37 12.76 11.8 12 12Z" fill="black"/>
<path fill-rule="evenodd" clip-rule="evenodd" d="M11.68 2.77001C8.68001 2.77001 5.68001 4.31001 4.78001 6.83001C4.49434 7.55325 4.3594 8.32722 4.38347 9.10446C4.40755 9.8817 4.59012 10.6458 4.92001 11.35C5.67904 12.6917 6.65953 13.8953 7.82001 14.91C8.33001 15.43 8.75001 15.84 8.77001 16.25C8.77186 16.3133 8.79675 16.3738 8.84001 16.42H8.16001C8.07398 16.4116 7.98806 16.4372 7.92074 16.4914C7.85342 16.5457 7.81007 16.6241 7.80001 16.71C7.79997 16.7729 7.81909 16.8344 7.85481 16.8862C7.89054 16.938 7.94118 16.9777 8.00001 17C7.95829 17.0143 7.92039 17.038 7.8892 17.0692C7.85801 17.1004 7.83434 17.1383 7.82001 17.18C7.71117 17.3685 7.65388 17.5823 7.65388 17.8C7.65388 18.0177 7.71117 18.2315 7.82001 18.42C7.99151 18.6713 8.22142 18.8772 8.49001 19.02C8.42936 19.35 8.39591 19.6845 8.39001 20.02C8.38669 20.3102 8.45907 20.5963 8.60001 20.85C8.7943 21.1735 9.08435 21.4286 9.43001 21.58C9.48843 21.6045 9.54859 21.6245 9.61001 21.64C9.56878 21.9947 9.5925 22.3539 9.68001 22.7C9.78473 23.0165 9.96692 23.3018 10.21 23.53C10.4436 23.7199 10.7119 23.8626 11 23.95C11.2993 24.0199 11.6107 24.0199 11.91 23.95C12.2265 23.9008 12.5192 23.7522 12.7457 23.5257C12.9722 23.2992 13.1208 23.0065 13.17 22.69C13.1836 22.6427 13.1877 22.5932 13.182 22.5443C13.1762 22.4955 13.1608 22.4482 13.1366 22.4054C13.1124 22.3626 13.0799 22.325 13.041 22.2949C13.0021 22.2648 12.9575 22.2427 12.91 22.23C12.816 22.2081 12.7172 22.2228 12.6336 22.2711C12.55 22.3193 12.488 22.3976 12.46 22.49C12.4112 22.5893 12.3377 22.6745 12.2467 22.7375C12.1557 22.8005 12.0502 22.8392 11.94 22.85C11.8014 22.8582 11.6625 22.8413 11.53 22.8C11.3202 22.7619 11.1218 22.6764 10.95 22.55C10.7736 22.4611 10.6274 22.3219 10.53 22.15C10.4829 22.0437 10.4461 21.9333 10.42 21.82L10.82 21.87C11.3526 21.9095 11.8874 21.9095 12.42 21.87C13.0256 21.8109 13.6049 21.5937 14.1 21.24C14.4107 20.9938 14.6412 20.6608 14.7623 20.2834C14.8833 19.9059 14.8895 19.501 14.78 19.12C15.0633 18.9985 15.3238 18.8294 15.55 18.62C15.7126 18.485 15.8283 18.302 15.8804 18.0972C15.9325 17.8923 15.9183 17.6763 15.84 17.48C15.8296 17.4332 15.8097 17.3891 15.7816 17.3503C15.7534 17.3115 15.7176 17.279 15.6764 17.2546C15.6351 17.2302 15.5893 17.2146 15.5418 17.2086C15.4942 17.2027 15.446 17.2065 15.4 17.22C15.3527 17.2317 15.3081 17.2526 15.2689 17.2816C15.2296 17.3106 15.1965 17.347 15.1714 17.3889C15.1463 17.4307 15.1298 17.477 15.1226 17.5253C15.1155 17.5735 15.118 17.6227 15.13 17.67C15.18 17.87 15.08 17.89 14.96 18C14.6304 18.1986 14.2622 18.3248 13.88 18.37C13.151 18.5022 12.4108 18.5625 11.67 18.55C11.2304 18.5751 10.7896 18.5751 10.35 18.55C10.23 18.55 8.79001 18.47 8.48001 18.07C8.42249 17.9919 8.38588 17.9003 8.37363 17.8041C8.36138 17.7078 8.3739 17.6101 8.41001 17.52C8.43022 17.4632 8.43342 17.4017 8.41921 17.3431C8.405 17.2845 8.374 17.2313 8.33001 17.19C9.12516 17.3835 9.9295 17.537 10.74 17.65C11.1285 17.6939 11.519 17.7172 11.91 17.72C12.3041 17.7202 12.698 17.7002 13.09 17.66C14.0133 17.5644 14.9226 17.3631 15.8 17.06C15.8473 17.0482 15.8918 17.0272 15.9309 16.9982C15.9701 16.9692 16.0031 16.9327 16.0282 16.8909C16.0533 16.8491 16.0699 16.8028 16.077 16.7546C16.0842 16.7064 16.0818 16.6573 16.07 16.61C16.0582 16.5627 16.0372 16.5182 16.0082 16.4791C15.9792 16.4399 15.9427 16.4069 15.9009 16.3818C15.8591 16.3567 15.8128 16.3401 15.7646 16.333C15.7164 16.3258 15.6673 16.3282 15.62 16.34C15.41 16.34 15.2 16.34 14.99 16.41C15.1853 15.9754 15.4267 15.5631 15.71 15.18C16.8311 13.7748 17.7377 12.2112 18.4 10.54C18.7803 9.41118 18.7803 8.18884 18.4 7.06001C17.42 4.11001 14.58 2.75001 11.68 2.77001ZM11.68 19.77C12.4609 19.7453 13.2347 19.6141 13.98 19.38C13.9948 19.5731 13.9593 19.7667 13.8769 19.942C13.7945 20.1173 13.6681 20.2682 13.51 20.38C13.1326 20.5594 12.7176 20.6451 12.3 20.63C11.8203 20.6554 11.3397 20.6554 10.86 20.63C10.523 20.6458 10.1855 20.6087 9.86001 20.52C9.68075 20.4906 9.51892 20.3954 9.40611 20.253C9.29331 20.1106 9.23765 19.9312 9.25001 19.75V19.42C10.0511 19.661 10.8834 19.7824 11.72 19.78L11.68 19.77ZM17.44 10.19C16.8657 11.7915 16.0495 13.2955 15.02 14.65C14.6471 15.1912 14.3635 15.7889 14.18 16.42H12.69H11.2H9.34001C9.38463 16.3658 9.41243 16.2998 9.42001 16.23C9.26681 15.5223 8.88777 14.8836 8.34001 14.41C7.28736 13.4328 6.41414 12.2787 5.76001 11C5.50238 10.4067 5.36944 9.76682 5.36944 9.12001C5.36944 8.4732 5.50238 7.83329 5.76001 7.24001C6.63001 5.13001 9.18001 4.00001 11.69 4.00001C14.2 4.00001 16.51 5.00001 17.4 7.36001C17.737 8.27236 17.7651 9.27013 17.48 10.2L17.44 10.19Z" fill="black"/>
<path fill-rule="evenodd" clip-rule="evenodd" d="M6.86999 1.34C6.89779 1.45234 6.94157 1.5601 6.99999 1.66C7.0553 1.75854 7.11886 1.8522 7.18999 1.94C7.18999 1.94 7.92998 2.81 8.18998 2.65C8.44998 2.49 8.18998 1.42 8.18998 1.39C8.15954 1.28172 8.11588 1.17761 8.05999 1.08C8.01777 0.985893 7.96759 0.895565 7.90999 0.810003C7.20999 -0.069997 7.05999 -0.049997 6.90999 0.050003C6.75999 0.150003 6.54999 0.260003 6.86999 1.34Z" fill="black"/>
</g>
<defs>
<clipPath id="clip0_1031_2983">
<rect width="24" height="24" fill="white"/>
</clipPath>
</defs>
</svg>
