<svg width="24" height="24" viewBox="0 0 24 24" fill="none" xmlns="http://www.w3.org/2000/svg">
<g clip-path="url(#clip0_1031_3030)">
<path fill-rule="evenodd" clip-rule="evenodd" d="M2.31002 12.16C3.31002 12.92 4.02002 12.21 3.25002 11.37L3.17002 11.29C3.00596 11.1327 2.83229 10.9858 2.65002 10.85C2.46002 10.71 2.26002 10.59 2.06002 10.47C1.57624 10.198 1.06718 9.97358 0.540017 9.8C0.45117 9.75624 0.348577 9.74956 0.254809 9.78144C0.161041 9.81332 0.083778 9.88115 0.0400172 9.97C-0.00374348 10.0588 -0.0104173 10.1614 0.0214639 10.2552C0.053345 10.349 0.12117 10.4262 0.210017 10.47C0.640017 10.76 1.00002 11.13 1.41002 11.47C1.6729 11.7037 1.95011 11.9208 2.24002 12.12L2.31002 12.16Z" fill="black"/>
<path fill-rule="evenodd" clip-rule="evenodd" d="M12 17.61C11.9669 17.5172 11.8982 17.4413 11.8091 17.3991C11.72 17.3569 11.6178 17.3518 11.525 17.385C11.4322 17.4181 11.3563 17.4868 11.3141 17.5759C11.2719 17.665 11.2669 17.7672 11.3 17.86C11.3557 18.1517 11.2932 18.4536 11.1263 18.6993C10.9594 18.945 10.7017 19.1143 10.41 19.17C10.2337 19.1748 10.0587 19.137 9.90002 19.06C9.72909 18.9946 9.57276 18.896 9.44002 18.77C9.35141 18.678 9.26795 18.5812 9.19002 18.48C9.14434 18.4093 9.11056 18.3316 9.09002 18.25C9.04941 18.0598 9.07777 17.8613 9.17002 17.69C9.24002 17.62 9.29002 17.55 9.35002 17.48C9.43295 17.3636 9.53835 17.265 9.66002 17.19C9.87991 17.0459 10.1371 16.9691 10.4 16.9691C10.6629 16.9691 10.9201 17.0459 11.14 17.19C11.2038 17.2427 11.285 17.2694 11.3676 17.2651C11.4502 17.2607 11.5281 17.2255 11.586 17.1663C11.6438 17.1072 11.6774 17.0286 11.68 16.9459C11.6826 16.8632 11.654 16.7826 11.6 16.72C11.3543 16.4682 11.0464 16.2856 10.7075 16.1908C10.3687 16.096 10.0108 16.0923 9.67002 16.18C9.66788 16.0242 9.64432 15.8694 9.60002 15.72C9.56607 15.6264 9.49677 15.5499 9.40701 15.5069C9.31725 15.4639 9.21421 15.4578 9.12002 15.49C9.07289 15.5057 9.0294 15.5307 8.99214 15.5635C8.95488 15.5964 8.92462 15.6364 8.90316 15.6812C8.88169 15.726 8.86947 15.7746 8.86721 15.8243C8.86495 15.8739 8.87271 15.9234 8.89002 15.97C8.94502 16.139 8.94502 16.321 8.89002 16.49C8.58204 16.6666 8.32663 16.922 8.15002 17.23C8.11013 17.2343 8.0699 17.2343 8.03002 17.23C7.85663 17.2373 7.68432 17.1994 7.53002 17.12C7.33759 17.0753 7.15691 16.99 7.00002 16.87C6.90988 16.7822 6.82942 16.685 6.76002 16.58C6.70756 16.5119 6.67007 16.4336 6.65002 16.35C6.61776 16.1392 6.65373 15.9236 6.75268 15.7347C6.85163 15.5458 7.00837 15.3935 7.20002 15.3C7.41896 15.1534 7.67652 15.0751 7.94002 15.0751C8.20351 15.0751 8.46107 15.1534 8.68002 15.3C8.74367 15.361 8.82895 15.3942 8.91709 15.3923C9.00523 15.3905 9.08902 15.3536 9.15002 15.29C9.21102 15.2263 9.24423 15.1411 9.24236 15.0529C9.24048 14.9648 9.20367 14.881 9.14002 14.82C8.93725 14.6049 8.68687 14.4404 8.40899 14.3397C8.13112 14.239 7.83349 14.2048 7.54002 14.24C7.5757 13.9608 7.53419 13.6772 7.42002 13.42C7.38686 13.3272 7.31819 13.2513 7.22912 13.2091C7.14004 13.1669 7.03784 13.1618 6.94502 13.195C6.85219 13.2281 6.77634 13.2968 6.73414 13.3859C6.69194 13.475 6.68686 13.5772 6.72002 13.67C6.7545 13.8168 6.75532 13.9696 6.72242 14.1168C6.68952 14.264 6.62374 14.4018 6.53002 14.52C6.33535 14.6236 6.1568 14.7549 6.00002 14.91C5.94242 14.9391 5.88213 14.9625 5.82002 14.98C5.64734 14.98 5.47673 14.9425 5.32002 14.87C5.14909 14.8046 4.99276 14.706 4.86002 14.58C4.76863 14.4906 4.685 14.3936 4.61002 14.29C4.55832 14.219 4.52406 14.1367 4.51002 14.05C4.46858 13.836 4.50277 13.6143 4.60674 13.4228C4.71072 13.2313 4.87802 13.0818 5.08002 13C5.29991 12.8559 5.5571 12.7791 5.82002 12.7791C6.08293 12.7791 6.34012 12.8559 6.56002 13C6.62462 13.0379 6.7002 13.0527 6.77432 13.0419C6.84845 13.0312 6.91671 12.9956 6.9679 12.9409C7.01909 12.8862 7.05016 12.8157 7.05599 12.7411C7.06183 12.6664 7.04209 12.592 7.00002 12.53C6.68417 12.2484 6.29733 12.0586 5.88135 11.981C5.46538 11.9035 5.03611 11.9411 4.64002 12.09C4.2228 12.225 3.86793 12.5054 3.64002 12.88C3.3521 13.2828 3.22383 13.7781 3.28002 14.27C3.31526 14.4805 3.38629 14.6834 3.49002 14.87C3.63185 15.0925 3.7997 15.2973 3.99002 15.48C4.28108 15.7304 4.62713 15.9085 5.00002 16C5.15258 16.0468 5.31055 16.0737 5.47002 16.08C5.44993 16.2427 5.44993 16.4073 5.47002 16.57C5.50707 16.7783 5.58161 16.9782 5.69002 17.16C5.82536 17.3901 5.99383 17.599 6.19002 17.78C6.48001 18.0263 6.82182 18.2041 7.19002 18.3C7.42762 18.3649 7.67399 18.3919 7.92002 18.38C7.92491 18.4064 7.92491 18.4336 7.92002 18.46C7.95428 18.6722 8.02897 18.8759 8.14002 19.06C8.27557 19.287 8.44407 19.4925 8.64002 19.67C8.926 19.9222 9.26929 20.1007 9.64002 20.19C10.0061 20.294 10.3939 20.294 10.76 20.19C11.0279 20.1073 11.2765 19.9718 11.4912 19.7914C11.7059 19.6111 11.8823 19.3896 12.01 19.14C12.1202 18.8997 12.1764 18.6382 12.1746 18.3739C12.1729 18.1096 12.1133 17.8488 12 17.61Z" fill="black"/>
<path fill-rule="evenodd" clip-rule="evenodd" d="M10.8 6.35C10.936 6.37604 11.0698 6.41282 11.2 6.46C11.89 6.74 12.27 6.01 11.77 5.69C11.5211 5.54114 11.2515 5.42994 10.97 5.36C10.3455 5.22544 9.70176 5.20511 9.07 5.3C8.51211 5.33773 7.95173 5.31089 7.4 5.22L5.35 4.45C4.87645 4.25076 4.38393 4.09999 3.88 4C3.83729 4.00356 3.79578 4.01594 3.7581 4.03636C3.72042 4.05677 3.68738 4.08478 3.66107 4.11861C3.63475 4.15244 3.61574 4.19135 3.60523 4.2329C3.59472 4.27445 3.59294 4.31773 3.6 4.36C3.60672 4.43465 3.63944 4.50457 3.69244 4.55756C3.74543 4.61056 3.81535 4.64328 3.89 4.65C3.89 4.65 4.01 4.71 4.12 4.77C4.74 5.09 6.05 5.91 6.94 6.36C7.30561 6.56876 7.71106 6.69824 8.13 6.74L9.26 6.51C9.76276 6.38171 10.2816 6.32781 10.8 6.35Z" fill="black"/>
<path fill-rule="evenodd" clip-rule="evenodd" d="M23.92 3.87C23.8681 3.78401 23.7843 3.72206 23.6868 3.6977C23.5894 3.67334 23.4863 3.68855 23.4 3.74L21.62 4.74C21.3011 4.92287 20.9664 5.07682 20.62 5.2C20.4166 5.2654 20.2036 5.29583 19.99 5.29C19.6553 5.2849 19.3213 5.25818 18.99 5.21C18.6957 5.15927 18.405 5.08912 18.12 5C17.7 4.86 17.3 4.68 16.88 4.56C16.5559 4.46184 16.2186 4.41461 15.88 4.42C15.61 4.43258 15.3436 4.48655 15.09 4.58C14.7362 4.69767 14.3998 4.86249 14.09 5.07C13.84 5.22 11.54 7.35 11.32 7.58C10.9347 7.94492 10.5986 8.35838 10.32 8.81C10.1278 9.1498 10.0182 9.53003 9.99999 9.92C9.97756 10.148 10.0073 10.3782 10.087 10.593C10.1667 10.8079 10.2943 11.0018 10.46 11.16C10.6952 11.346 10.9692 11.4767 11.2617 11.5425C11.5543 11.6082 11.8578 11.6074 12.15 11.54C12.6663 11.4367 13.15 11.2103 13.56 10.88C13.9685 10.555 14.3498 10.1972 14.7 9.81C15.2093 10.024 15.7494 10.1556 16.3 10.2C16.5591 10.2299 16.8209 10.2299 17.08 10.2C17.3369 10.1628 17.5886 10.0957 17.83 10C18.3817 9.76798 18.8815 9.42799 19.3 9C19.3366 8.97599 19.3678 8.94472 19.3919 8.90814C19.4159 8.87156 19.4321 8.83045 19.4396 8.78733C19.4471 8.74422 19.4457 8.70003 19.4355 8.65749C19.4252 8.61494 19.4063 8.57496 19.38 8.54C19.3551 8.50453 19.3234 8.47432 19.2867 8.4511C19.2501 8.42788 19.2093 8.4121 19.1666 8.40467C19.1239 8.39724 19.0801 8.3983 19.0378 8.4078C18.9955 8.41729 18.9554 8.43503 18.92 8.46C18.46 8.65504 17.9755 8.78625 17.48 8.85L16.61 9C16.41 9 16.23 9.07 16.03 9.08C15.7172 9.10505 15.4028 9.10505 15.09 9.08C15.0998 9.04399 15.0998 9.00602 15.09 8.97C15.0602 8.93916 15.0244 8.91463 14.9849 8.89787C14.9454 8.88112 14.9029 8.87249 14.86 8.87249C14.8171 8.87249 14.7746 8.88112 14.7351 8.89787C14.6956 8.91463 14.6598 8.93916 14.63 8.97C14.1577 9.43899 13.6495 9.8703 13.11 10.26C12.7875 10.482 12.4177 10.6258 12.03 10.68C11.7616 10.7238 11.4864 10.6744 11.25 10.54C11.156 10.4887 11.0809 10.4085 11.0359 10.3112C10.9909 10.214 10.9783 10.1049 11 10C11.0419 9.77112 11.1304 9.55329 11.26 9.36C11.509 9.01119 11.7976 8.6924 12.12 8.41C12.61 7.92 13.12 7.41 13.64 6.92C13.9673 6.61878 14.3184 6.34455 14.69 6.1C14.8833 5.96949 15.0873 5.85574 15.3 5.76C15.6939 5.58712 16.1354 5.55533 16.55 5.67C16.96 5.76 17.35 5.91 17.76 6.03C18.1183 6.11922 18.4826 6.18272 18.85 6.22C19.2097 6.2399 19.5703 6.2399 19.93 6.22C20.2509 6.21069 20.5683 6.14992 20.87 6.04C21.2668 5.8738 21.6483 5.67303 22.01 5.44L23.74 4.35C23.8262 4.30872 23.893 4.2357 23.9266 4.14623C23.9601 4.05675 23.9578 3.95777 23.92 3.87Z" fill="black"/>
<path fill-rule="evenodd" clip-rule="evenodd" d="M18.57 14C18.5089 13.825 18.4353 13.6546 18.35 13.49C18.0672 13.0047 17.7319 12.552 17.35 12.14L16.28 10.92C16.2258 10.8571 16.1497 10.8169 16.0671 10.8076C15.9846 10.7983 15.9015 10.8205 15.8346 10.8697C15.7676 10.919 15.7217 10.9917 15.7061 11.0733C15.6904 11.1549 15.7061 11.2395 15.75 11.31L16.54 12.73C16.8 13.1451 17.0274 13.5797 17.22 14.03C17.3418 14.2823 17.4228 14.5523 17.46 14.83C17.4919 15.0049 17.486 15.1845 17.4429 15.357C17.3998 15.5294 17.3204 15.6907 17.21 15.83C17.0698 15.9896 16.8907 16.1102 16.69 16.18C16.6753 16.1425 16.6586 16.1058 16.64 16.07C16.4291 15.7564 16.1951 15.4589 15.94 15.18L14.5 13.55C14.4725 13.5093 14.4371 13.4744 14.3961 13.4474C14.355 13.4203 14.309 13.4016 14.2608 13.3923C14.1632 13.3736 14.0623 13.3943 13.98 13.45C13.8978 13.5057 13.8411 13.5918 13.8223 13.6893C13.8036 13.7868 13.8243 13.8878 13.88 13.97L15 15.88C15.1905 16.1476 15.3674 16.4246 15.53 16.71C15.6165 16.8575 15.6837 17.0154 15.73 17.18C15.7856 17.2945 15.802 17.424 15.7767 17.5487C15.7514 17.6734 15.6858 17.7863 15.59 17.87C15.447 17.9883 15.2739 18.0645 15.09 18.09C15.09 18.09 15.09 18.03 15.09 18C14.9839 17.773 14.8531 17.5584 14.7 17.36C14.46 17.07 14.23 16.79 13.97 16.52C13.71 16.25 13.47 15.99 13.2 15.74C13.1452 15.673 13.0663 15.6302 12.9803 15.6209C12.8942 15.6115 12.808 15.6364 12.74 15.69C12.6724 15.7466 12.6293 15.8272 12.62 15.9149C12.6107 16.0026 12.6358 16.0905 12.69 16.16C12.85 16.4 12.99 16.63 13.13 16.88C13.27 17.13 13.52 17.61 13.7 17.99L13.98 18.67L13.84 18.91C13.7726 19.0181 13.6836 19.1111 13.5787 19.1833C13.4737 19.2556 13.3551 19.3055 13.23 19.33C12.9885 19.3943 12.7316 19.3657 12.51 19.25C12.4687 19.2243 12.4227 19.2071 12.3747 19.1992C12.3266 19.1914 12.2775 19.193 12.2301 19.2042C12.1828 19.2153 12.1381 19.2357 12.0986 19.2642C12.0591 19.2926 12.0256 19.3286 12 19.37C11.9477 19.4551 11.9309 19.5573 11.9534 19.6546C11.9759 19.7519 12.0357 19.8365 12.12 19.89C12.4415 20.1686 12.8547 20.3183 13.28 20.31C13.5571 20.3171 13.8326 20.2666 14.0891 20.1616C14.3456 20.0566 14.5775 19.8994 14.77 19.7C14.916 19.5499 15.0375 19.3778 15.13 19.19C15.1606 19.0924 15.1807 18.9918 15.19 18.89C15.5342 18.914 15.8787 18.8485 16.19 18.7C16.4843 18.5353 16.7203 18.2833 16.8654 17.9788C17.0104 17.6743 17.0575 17.3324 17 17C17.3698 16.9307 17.7147 16.7651 18 16.52C18.2279 16.3124 18.4117 16.0612 18.5405 15.7812C18.6694 15.5011 18.7406 15.1981 18.75 14.89C18.7271 14.587 18.6666 14.2881 18.57 14Z" fill="black"/>
<path fill-rule="evenodd" clip-rule="evenodd" d="M24.0001 12.77C23.9884 12.7227 23.9674 12.6781 23.9384 12.6389C23.9095 12.5996 23.873 12.5665 23.8312 12.5414C23.7894 12.5163 23.743 12.4998 23.6948 12.4926C23.6465 12.4855 23.5973 12.488 23.5501 12.5C22.9401 12.57 22.3501 12.59 21.7601 12.69C21.3585 12.7545 20.9636 12.8549 20.5801 12.99C20.1391 13.1563 19.7195 13.3745 19.3301 13.64C18.5101 13.98 19.0001 14.64 19.7701 14.42L20.7001 14.23L21.4001 14.06L22.0901 13.84C22.6401 13.65 23.1801 13.44 23.7301 13.22C23.7774 13.2083 23.822 13.1874 23.8612 13.1584C23.9004 13.1294 23.9335 13.093 23.9586 13.0512C23.9837 13.0093 24.0003 12.963 24.0074 12.9147C24.0145 12.8665 24.012 12.8173 24.0001 12.77Z" fill="black"/>
</g>
<defs>
<clipPath id="clip0_1031_3030">
<rect width="24" height="24" fill="white"/>
</clipPath>
</defs>
</svg>
