<svg width="24" height="24" viewBox="0 0 24 24" fill="none" xmlns="http://www.w3.org/2000/svg">
<g clip-path="url(#clip0_1031_3085)">
<path d="M11.5 11.64C11.6768 11.8237 11.8637 11.9974 12.06 12.16C12.37 12.44 12.68 12.66 12.95 12.94C13.0017 13.0073 13.0772 13.052 13.161 13.0651C13.2448 13.0781 13.3304 13.0584 13.4 13.01C13.4355 12.9862 13.4657 12.9552 13.4887 12.9191C13.5117 12.883 13.5269 12.8426 13.5335 12.8003C13.5401 12.7581 13.5378 12.7149 13.5269 12.6735C13.516 12.6322 13.4966 12.5935 13.47 12.56C13.2873 12.1859 13.0732 11.828 12.83 11.49C12.7242 11.3476 12.6071 11.2138 12.48 11.09C12.3553 10.96 12.218 10.8428 12.07 10.74L11.81 10.59C12.4731 9.9643 12.9824 9.19369 13.2981 8.33843C13.6139 7.48317 13.7275 6.56646 13.63 5.66001C13.42 2.84001 11.51 0.170006 8.11003 0.220006C4.18003 0.350006 2.00003 3.08001 1.91003 5.81001C1.87213 6.88705 2.17307 7.94885 2.77047 8.84584C3.36786 9.74283 4.2316 10.4298 5.24003 10.81C4.33656 11.3523 3.48614 11.9784 2.70003 12.68C2.05115 13.2384 1.47946 13.8808 1.00003 14.59C0.575537 15.1867 0.273093 15.8613 0.110064 16.5752C-0.0529646 17.2891 -0.0733668 18.0282 0.050029 18.75C0.0593345 18.794 0.0775339 18.8356 0.10351 18.8723C0.129486 18.909 0.162691 18.9401 0.201086 18.9635C0.239481 18.9869 0.282256 19.0022 0.326784 19.0085C0.371313 19.0148 0.416656 19.0119 0.460029 19C0.542232 18.9853 0.615802 18.94 0.665907 18.8732C0.716012 18.8064 0.738926 18.723 0.730029 18.64C0.681704 17.3774 1.10199 16.1414 1.91003 15.17C2.36903 14.5467 2.87375 13.9584 3.42003 13.41C4.23083 12.5836 5.09251 11.8088 6.00003 11.09C6.59438 11.2508 7.20483 11.3447 7.82003 11.37C7.85762 11.3727 7.89537 11.3678 7.93102 11.3556C7.96667 11.3434 7.99948 11.3241 8.02749 11.2989C8.0555 11.2736 8.07814 11.243 8.09404 11.2089C8.10994 11.1747 8.11878 11.1377 8.12003 11.1C8.12296 11.0263 8.09771 10.9543 8.04941 10.8985C8.00111 10.8428 7.93339 10.8076 7.86003 10.8C4.38003 10.51 2.79003 8.29001 2.86003 6.03001H2.94003C3.42468 6.25453 3.94693 6.38678 4.48003 6.42001C4.70603 6.44462 4.93403 6.44462 5.16003 6.42001C5.38443 6.3868 5.60534 6.33324 5.82003 6.26001C6.33791 6.07515 6.80656 5.77412 7.19003 5.38001C7.23364 5.32676 7.2583 5.26052 7.26011 5.19172C7.26192 5.12292 7.24078 5.05547 7.20003 5.00001C7.45688 5.15503 7.72419 5.29202 8.00003 5.41001C8.48253 5.63638 8.98908 5.80746 9.51003 5.92001C10.5783 6.12411 11.6729 6.15114 12.75 6.00001C12.9 8.80001 11.29 10.79 9.00003 11.1C8.92519 11.119 8.85977 11.1645 8.81581 11.228C8.77186 11.2915 8.75235 11.3687 8.76087 11.4455C8.7694 11.5222 8.80539 11.5933 8.86221 11.6456C8.91903 11.6979 8.99284 11.7279 9.07003 11.73C9.77336 11.6758 10.4562 11.4675 11.07 11.12C11.2 11.3 11.34 11.47 11.5 11.64ZM6.74003 4.90001C6.43342 5.0823 6.0934 5.20131 5.74003 5.25001C5.57003 5.25001 5.40003 5.25001 5.22003 5.33001L4.44003 5.44001C3.998 5.5194 3.54895 5.55291 3.10003 5.54001C3.06754 5.52333 3.03155 5.51464 2.99503 5.51464C2.95851 5.51464 2.92252 5.52333 2.89003 5.54001C2.98014 4.88521 3.20425 4.256 3.54836 3.69167C3.89246 3.12733 4.34919 2.63997 4.89003 2.26001C5.31384 3.13571 5.91287 3.91512 6.65003 4.55001C6.78003 4.66001 6.92003 4.75001 7.06003 4.85001C7.00727 4.82803 6.94945 4.82107 6.89298 4.82989C6.83651 4.83872 6.78357 4.86298 6.74003 4.90001ZM9.74003 4.90001C9.29376 4.76914 8.85897 4.60191 8.44003 4.40001C8.02487 4.19964 7.62686 3.96552 7.25003 3.70001C6.53796 3.21346 5.91828 2.60394 5.42003 1.90001C6.26514 1.49407 7.19255 1.28874 8.13003 1.30001C10.78 1.21001 12.31 3.18001 12.68 5.35001C11.6946 5.35503 10.7138 5.21348 9.77003 4.93001L9.74003 4.90001Z" fill="black"/>
<path d="M8.39005 13.26C8.39793 13.2181 8.39648 13.175 8.3858 13.1337C8.37512 13.0925 8.35548 13.0541 8.32826 13.0212C8.30105 12.9884 8.26694 12.962 8.22836 12.9439C8.18978 12.9258 8.14767 12.9164 8.10505 12.9164C8.06242 12.9164 8.02032 12.9258 7.98174 12.9439C7.94316 12.962 7.90905 12.9884 7.88183 13.0212C7.85462 13.0541 7.83498 13.0925 7.8243 13.1337C7.81362 13.175 7.81217 13.2181 7.82005 13.26C7.72005 13.77 7.61005 14.26 7.55005 14.8V15.47V16.13C7.60005 16.65 7.69005 17.13 7.76005 17.67C7.76265 17.7584 7.79962 17.8424 7.8631 17.904C7.92658 17.9656 8.01158 18 8.10005 18C8.18583 17.9974 8.26722 17.9615 8.32696 17.8999C8.3867 17.8383 8.42009 17.7558 8.42005 17.67C8.47005 17.15 8.54005 16.67 8.58005 16.13V15.48V14.82C8.54005 14.27 8.45005 13.77 8.39005 13.26Z" fill="black"/>
<path d="M23.0001 15.65C23.1601 15.54 23.3001 15.42 23.3401 15.39C23.5508 15.21 23.7219 14.9882 23.8424 14.7386C23.9629 14.4889 24.0302 14.217 24.0401 13.94C24.0726 13.3977 23.9014 12.8627 23.5601 12.44C23.45 12.3135 23.3296 12.1964 23.2001 12.09C23.0732 11.9877 22.9396 11.8942 22.8001 11.81C22.6773 11.7327 22.5466 11.669 22.4101 11.62C22.271 11.5682 22.1269 11.5313 21.9801 11.51C21.7463 11.4534 21.5032 11.4473 21.267 11.4921C21.0307 11.537 20.8068 11.6317 20.6101 11.77C20.4064 11.9555 20.2372 12.1756 20.1101 12.42C20.0175 12.6023 19.8997 12.7707 19.7601 12.92C19.6735 12.8519 19.5834 12.7884 19.4901 12.73L18.0001 11.27C17.9461 11.2186 17.8745 11.19 17.8001 11.19C17.7256 11.19 17.654 11.2186 17.6001 11.27C17.5731 11.3078 17.5496 11.3479 17.5301 11.39C17.4791 11.3581 17.4202 11.3411 17.3601 11.3411C17.2999 11.3411 17.241 11.3581 17.1901 11.39C16.9601 11.59 16.1301 12.2 15.6901 12.65C15.5161 12.8059 15.3881 13.0065 15.3201 13.23C15.3098 13.335 15.3344 13.4404 15.3901 13.53C15.4801 13.69 15.7901 13.98 15.8501 14.09C16.02 14.3941 16.09 14.7439 16.0501 15.09C16.0469 15.2277 15.9981 15.3604 15.9112 15.4673C15.8242 15.5741 15.7042 15.6489 15.5701 15.68C15.3945 15.7096 15.2142 15.6888 15.0501 15.62C14.7396 15.4917 14.4472 15.3236 14.1801 15.12C13.9996 14.9601 13.8055 14.8162 13.6001 14.69C13.4578 14.6082 13.2899 14.5832 13.1301 14.62C12.6997 14.7334 12.2986 14.9374 11.9537 15.2186C11.6087 15.4997 11.3279 15.8514 11.1301 16.25C10.9105 16.6905 10.8247 17.1857 10.8834 17.6744C10.942 18.1631 11.1425 18.6239 11.4601 19C12.3144 20.1846 13.2896 21.2772 14.3701 22.26C15.1332 22.93 16.0295 23.431 17.0001 23.73C17.4026 23.83 17.8282 23.7728 18.1901 23.57C18.8092 23.2036 19.3661 22.7412 19.8401 22.2C20.0613 21.9519 20.2683 21.6915 20.4601 21.42C20.5418 21.3024 20.5795 21.1599 20.5667 21.0173C20.554 20.8747 20.4914 20.7411 20.3901 20.64C20.115 20.4134 19.8873 20.1347 19.7201 19.82C19.6655 19.7241 19.6428 19.6132 19.6554 19.5036C19.668 19.3939 19.7152 19.2911 19.7901 19.21C19.8761 19.1335 19.9785 19.0775 20.0893 19.0463C20.2002 19.0151 20.3167 19.0096 20.4301 19.03C20.748 19.0603 21.057 19.152 21.3401 19.3C21.4601 19.35 21.7801 19.61 21.9501 19.68C22.0562 19.7294 22.1734 19.75 22.2901 19.74C22.4546 19.7059 22.6047 19.6222 22.7201 19.5C22.8744 19.3255 23.018 19.1418 23.1501 18.95C23.5161 18.5596 23.7353 18.0541 23.7701 17.52C23.7397 16.9935 23.5317 16.4929 23.1801 16.1C23.1501 16 23.0601 15.82 23.0001 15.65ZM21.9201 15.85C22.0893 16.1333 22.2834 16.401 22.5001 16.65C22.7157 16.8875 22.846 17.1901 22.8701 17.51C22.8281 17.8227 22.6756 18.1101 22.4401 18.32L22.1701 18.65C21.9206 18.4072 21.6218 18.2208 21.294 18.1034C20.9662 17.9861 20.617 17.9406 20.2701 17.97C19.8184 17.9748 19.387 18.1582 19.0701 18.48C18.8816 18.6649 18.7461 18.8969 18.6775 19.1519C18.6089 19.4068 18.6098 19.6755 18.6801 19.93C18.8278 20.3994 19.0888 20.8253 19.4401 21.17C19.3319 21.2695 19.2184 21.363 19.1001 21.45C18.8185 21.7816 18.5035 22.0831 18.1601 22.35C17.8901 22.56 17.6101 22.77 17.3501 22.69C16.5136 22.4256 15.7431 21.9858 15.0901 21.4C14.0495 20.4964 13.1015 19.4915 12.2601 18.4C12.0545 18.1762 11.9155 17.8993 11.859 17.6006C11.8024 17.302 11.8305 16.9935 11.9401 16.71C12.066 16.4461 12.2445 16.2106 12.4646 16.0181C12.6847 15.8255 12.9417 15.6798 13.2201 15.59C13.7083 15.9502 14.2389 16.2491 14.8001 16.48C15.1199 16.5994 15.4682 16.6203 15.8001 16.54C16.0383 16.4933 16.2585 16.3803 16.4354 16.214C16.6123 16.0477 16.7387 15.8349 16.8001 15.6C16.9474 14.9954 16.8542 14.3572 16.5401 13.82C16.4901 13.74 16.2401 13.46 16.1201 13.33C16.2622 13.1752 16.416 13.0315 16.5801 12.9C17.0001 12.52 17.5001 12.12 17.6801 11.97C17.7275 11.931 17.7623 11.8788 17.7801 11.82L19.0001 13.15C19.1403 13.3064 19.2906 13.4533 19.4501 13.59C19.5097 13.6283 19.5791 13.6487 19.6501 13.6487C19.721 13.6487 19.7904 13.6283 19.8501 13.59C20.5001 13.22 20.5701 12.59 21.0001 12.28C21.1282 12.208 21.2696 12.1628 21.4158 12.1473C21.5619 12.1319 21.7097 12.1464 21.8501 12.19C21.9436 12.2027 22.0347 12.2296 22.1201 12.27C22.2105 12.3053 22.2976 12.3488 22.3801 12.4L22.6801 12.63L22.9401 12.9C23.1514 13.1876 23.2412 13.5468 23.1901 13.9C23.186 14.0584 23.1472 14.214 23.0764 14.3557C23.0055 14.4974 22.9044 14.6218 22.7801 14.72C22.5618 14.8192 22.3381 14.9061 22.1101 14.98C22.0293 15.0161 21.9578 15.0699 21.9007 15.1374C21.8435 15.2049 21.8023 15.2844 21.7801 15.37C21.7637 15.5365 21.7985 15.7039 21.8801 15.85H21.9201Z" fill="black"/>
</g>
<defs>
<clipPath id="clip0_1031_3085">
<rect width="24" height="24" fill="white"/>
</clipPath>
</defs>
</svg>
