<svg width="24" height="24" viewBox="0 0 24 24" fill="none" xmlns="http://www.w3.org/2000/svg">
<g clip-path="url(#clip0_1031_3024)">
<path d="M12.89 13.45C13.2051 13.1729 13.5732 12.9626 13.972 12.832C14.3708 12.7014 14.792 12.6531 15.21 12.69C15.2842 12.6993 15.3592 12.6787 15.4182 12.6327C15.4773 12.5868 15.5157 12.5193 15.525 12.445C15.5343 12.3707 15.5137 12.2958 15.4677 12.2368C15.4218 12.1777 15.3542 12.1393 15.28 12.13C14.7805 12.0569 14.2714 12.0856 13.7833 12.2145C13.2952 12.3434 12.8382 12.5698 12.44 12.88C11.6025 13.498 11.0279 14.4082 10.83 15.43C10.651 16.3221 10.7523 17.2477 11.12 18.08C11.4117 18.6748 11.9091 19.1437 12.52 19.4C13.4435 19.7887 14.4686 19.866 15.44 19.62C16.3883 19.3851 17.247 18.8775 17.91 18.16C18.2609 17.7935 18.5277 17.3549 18.6918 16.8748C18.8558 16.3947 18.9132 15.8846 18.86 15.38C18.8043 14.8858 18.6389 14.4102 18.3759 13.9881C18.113 13.566 17.759 13.2079 17.34 12.94C17.2688 12.8967 17.1839 12.8819 17.1023 12.8986C17.0207 12.9153 16.9484 12.9622 16.9 13.03C16.876 13.0645 16.8592 13.1034 16.8507 13.1446C16.8423 13.1857 16.8422 13.2281 16.8507 13.2693C16.8591 13.3104 16.8758 13.3494 16.8997 13.3839C16.9237 13.4184 16.9544 13.4477 16.99 13.47C17.3026 13.6924 17.5619 13.9814 17.7491 14.3162C17.9364 14.651 18.0469 15.0233 18.0727 15.406C18.0986 15.7888 18.0391 16.1725 17.8985 16.5294C17.7579 16.8864 17.5399 17.2076 17.26 17.47C16.6873 18.0188 15.9746 18.3994 15.2 18.57C14.4444 18.743 13.6535 18.673 12.94 18.37C12.7025 18.2691 12.4899 18.1174 12.3171 17.9257C12.1444 17.7339 12.0157 17.5067 11.94 17.26C11.7474 16.7014 11.6891 16.1053 11.77 15.52C11.8789 14.7167 12.2771 13.9807 12.89 13.45Z" fill="black"/>
<path d="M23.59 17.17C23.3933 16.8807 23.1195 16.6524 22.7995 16.511C22.4795 16.3695 22.1263 16.3207 21.78 16.37C21.6445 16.3894 21.5107 16.4195 21.38 16.46C21.5467 14.9397 21.1125 13.4145 20.17 12.21C19.1823 11.063 17.8939 10.2144 16.45 9.76001C14.3875 9.19146 12.2896 8.76051 10.17 8.47001C8.79372 8.19843 7.40047 8.02135 6.00001 7.94001C4.60891 7.84221 3.21359 7.81884 1.82001 7.87001C1.77844 7.86999 1.7373 7.87832 1.69902 7.89452C1.66074 7.91072 1.62611 7.93446 1.59719 7.96431C1.56827 7.99416 1.54565 8.02953 1.53067 8.0683C1.51569 8.10707 1.50866 8.14846 1.51001 8.19001C1.5113 8.23204 1.52086 8.2734 1.53815 8.31173C1.55544 8.35006 1.58011 8.38461 1.61076 8.4134C1.64141 8.44219 1.67743 8.46466 1.71676 8.47952C1.7561 8.49438 1.79798 8.50134 1.84001 8.50001C3.22832 8.47912 4.6168 8.52918 6.00001 8.65001C6.85001 8.72001 7.70001 8.83001 8.52001 8.97001C8.39637 9.29334 8.3059 9.62839 8.25001 9.97001C8.22209 10.1864 8.27947 10.4052 8.41001 10.58C8.61312 10.8308 8.88378 11.0182 9.19001 11.12C9.73697 11.2701 10.2956 11.3738 10.86 11.43C11.081 11.4738 11.305 11.5006 11.53 11.51C11.7011 11.4987 11.8664 11.4436 12.01 11.35C12.2221 11.1896 12.3878 10.9756 12.49 10.73C12.6128 10.4048 12.7098 10.0704 12.78 9.73001C13.9372 9.91717 15.0751 10.2084 16.18 10.6C17.4492 11.0119 18.576 11.7747 19.43 12.8C19.849 13.3676 20.1432 14.0175 20.2931 14.7069C20.4431 15.3963 20.4454 16.1096 20.3 16.8C20.0672 18.2267 19.2936 19.5089 18.14 20.38C17.5544 20.7799 16.8949 21.0587 16.2 21.2C15.4958 21.3638 14.7701 21.4144 14.05 21.35C13.1845 21.2859 12.3441 21.0297 11.59 20.6C10.834 20.187 10.2021 19.5794 9.76001 18.84C9.43192 18.3426 9.16973 17.8048 8.98001 17.24C8.80348 16.6884 8.74555 16.1056 8.81001 15.53C8.82289 15.4381 8.80418 15.3445 8.75695 15.2645C8.70972 15.1846 8.63676 15.1231 8.55001 15.09L0.720005 12.38C0.720005 12.18 0.780005 9.56001 0.780005 9.56001C0.782761 9.52291 0.77782 9.48563 0.76549 9.45053C0.753161 9.41543 0.73371 9.38325 0.708358 9.35602C0.683007 9.32879 0.652301 9.3071 0.618167 9.29229C0.584034 9.27749 0.54721 9.26991 0.510005 9.27001C0.437445 9.26996 0.367701 9.29808 0.315469 9.34845C0.263237 9.39882 0.232597 9.46749 0.230005 9.54001L0.0800053 11.69C0.0396564 11.9551 0.0129545 12.2221 5.24998e-06 12.49C-0.00571748 12.5681 0.0122074 12.6461 0.0514464 12.7139C0.0906853 12.7817 0.14942 12.8361 0.220005 12.87L7.90001 15.87C7.85975 16.456 7.92064 17.0446 8.08001 17.61C8.27401 18.2542 8.55314 18.8697 8.91001 19.44C9.41642 20.3092 10.1356 21.0353 11 21.55C11.8815 22.0628 12.8645 22.3768 13.88 22.47C14.7057 22.5476 15.5384 22.5004 16.35 22.33C17.1824 22.1455 17.9728 21.8063 18.68 21.33C19.0948 21.0306 19.468 20.6775 19.79 20.28L19.91 20.48C20.0286 20.6413 20.1781 20.7774 20.3497 20.8804C20.5214 20.9834 20.7119 21.0513 20.91 21.08C21.2079 21.111 21.5089 21.0907 21.8 21.02C22.2676 20.9145 22.7031 20.6985 23.07 20.39C23.4578 20.0581 23.7336 19.6146 23.86 19.12C23.9523 18.794 23.976 18.4523 23.9295 18.1167C23.883 17.7811 23.7674 17.4587 23.59 17.17ZM11.79 10.17C11.71 10.31 11.69 10.58 11.56 10.54L9.65001 10.16C9.45482 10.143 9.26471 10.0887 9.09001 10C9.09001 9.39001 9.23001 9.41001 9.19001 9.06001C9.46001 9.12001 9.74001 9.16001 10.01 9.21001C10.66 9.36001 11.35 9.48001 12.01 9.61001C11.9476 9.81058 11.8742 10.0076 11.79 10.2V10.17ZM22.9 18.86C22.8232 19.1553 22.6636 19.4224 22.44 19.63C22.2092 19.8651 21.9291 20.0461 21.62 20.16C21.466 20.221 21.3046 20.2613 21.14 20.28C21.0038 20.291 20.867 20.2704 20.74 20.22C20.6458 20.1724 20.5611 20.108 20.49 20.03C20.4016 19.937 20.3213 19.8367 20.25 19.73C20.7476 18.9467 21.0873 18.0737 21.25 17.16C21.25 17.16 21.25 17.16 21.33 17.16C21.4772 17.1237 21.6285 17.1069 21.78 17.11C21.9859 17.1074 22.1885 17.1621 22.3651 17.2681C22.5418 17.3741 22.6854 17.5271 22.78 17.71C22.8751 17.8842 22.9347 18.0756 22.9553 18.273C22.9759 18.4704 22.9571 18.6699 22.9 18.86Z" fill="black"/>
<path d="M9.35002 3.77C9.47002 3.84 9.60002 3.89 9.65002 3.93C9.75597 4.02506 9.82942 4.15098 9.86002 4.29C9.93102 4.52121 9.97794 4.75914 10 5C9.99731 5.04204 10.0029 5.0842 10.0166 5.12407C10.0302 5.16393 10.0515 5.20072 10.0794 5.2323C10.1073 5.26389 10.1411 5.28967 10.179 5.30815C10.2168 5.32663 10.258 5.33746 10.3 5.34C10.3832 5.34276 10.4643 5.31297 10.5259 5.25696C10.5875 5.20094 10.6249 5.12311 10.63 5.04C10.7205 4.65354 10.7441 4.25445 10.7 3.86C10.6561 3.62763 10.5527 3.41059 10.4 3.23C10.31 3.14 9.88002 3.03 9.70002 2.89C9.72058 2.82105 9.74736 2.75411 9.78002 2.69C9.92002 2.43 10.08 2.19 10.19 1.98C10.2335 1.92024 10.2516 1.8457 10.2404 1.77264C10.2292 1.69958 10.1895 1.63392 10.13 1.59C10.1009 1.56712 10.0675 1.55046 10.0317 1.54105C9.9959 1.53164 9.95856 1.52969 9.92199 1.53532C9.88542 1.54095 9.8504 1.55403 9.81909 1.57376C9.78779 1.59349 9.76087 1.61944 9.74002 1.65C9.54002 1.84 9.25002 2.06 9.02002 2.29C8.8993 2.42361 8.79521 2.57136 8.71002 2.73C8.66478 2.85998 8.66067 3.00074 8.69824 3.13314C8.73581 3.26554 8.81325 3.38316 8.92002 3.47C9.04957 3.58844 9.19414 3.6893 9.35002 3.77Z" fill="black"/>
<path d="M13.28 6.14C13.8642 5.93859 14.4217 5.66657 14.94 5.33C15.1022 5.21667 15.2362 5.06754 15.3316 4.89413C15.427 4.72073 15.4812 4.5277 15.49 4.33C15.471 4.15873 15.4201 3.99254 15.34 3.84L17 3C17.0714 2.98118 17.1326 2.93489 17.17 2.8712C17.2075 2.80751 17.2183 2.7316 17.2 2.66C17.179 2.58779 17.1307 2.52656 17.0654 2.48924C17.0001 2.45193 16.9229 2.44144 16.85 2.46L15 2.85C14.8203 2.89678 14.6434 2.95354 14.47 3.02C14.396 3.05852 14.3309 3.11231 14.2792 3.17781C14.2275 3.24332 14.1903 3.31905 14.17 3.4C14.1352 3.54123 14.1352 3.68877 14.17 3.83C14.2096 3.96679 14.2667 4.09788 14.34 4.22C14.34 4.28 14.44 4.33 14.45 4.39C14.46 4.45 14.45 4.5 14.37 4.56C14.2626 4.68893 14.1419 4.80624 14.01 4.91C13.64 5.19 13.23 5.42 13.01 5.58C12.9729 5.59807 12.9399 5.62335 12.9127 5.65436C12.8855 5.68537 12.8648 5.72149 12.8518 5.7606C12.8387 5.79971 12.8336 5.84103 12.8368 5.88213C12.8399 5.92324 12.8512 5.96331 12.87 6C12.9083 6.07049 12.9718 6.12401 13.0477 6.14994C13.1236 6.17587 13.2065 6.17232 13.28 6.14Z" fill="black"/>
</g>
<defs>
<clipPath id="clip0_1031_3024">
<rect width="24" height="24" fill="white"/>
</clipPath>
</defs>
</svg>
