<svg width="24" height="24" viewBox="0 0 24 24" fill="none" xmlns="http://www.w3.org/2000/svg">
<g clip-path="url(#clip0_1031_3066)">
<path fill-rule="evenodd" clip-rule="evenodd" d="M13 4.50999C12.8419 4.47498 12.6781 4.47498 12.52 4.50999C12.3104 4.53618 12.109 4.60785 11.93 4.71999C11.5834 4.98583 11.3028 5.32803 11.11 5.71999C11.0502 5.78159 11.0167 5.8641 11.0167 5.94999C11.0167 6.03588 11.0502 6.11839 11.11 6.17999C11.1699 6.23923 11.2508 6.27245 11.335 6.27245C11.4193 6.27245 11.5001 6.23923 11.56 6.17999C11.8253 6.02587 12.1116 5.91133 12.41 5.83999C12.5236 5.80326 12.641 5.77977 12.76 5.76999H12.94C13.146 5.78695 13.3416 5.8673 13.5 5.99999C13.5223 6.04201 13.5527 6.07923 13.5894 6.10951C13.6261 6.13979 13.6685 6.16254 13.714 6.17647C13.7595 6.1904 13.8073 6.19523 13.8546 6.19069C13.902 6.18614 13.948 6.17232 13.99 6.14999C14.032 6.12767 14.0693 6.09728 14.0995 6.06058C14.1298 6.02387 14.1526 5.98156 14.1665 5.93606C14.1804 5.89056 14.1853 5.84276 14.1807 5.79539C14.1762 5.74802 14.1623 5.70201 14.14 5.65999C14.0724 5.38281 13.9306 5.1293 13.7297 4.92668C13.5289 4.72406 13.2766 4.58001 13 4.50999Z" fill="black"/>
<path fill-rule="evenodd" clip-rule="evenodd" d="M8.18001 5.81999C8.2566 5.81522 8.33342 5.81522 8.41001 5.81999C8.68561 5.79703 8.96156 5.85991 9.20001 5.99999C9.22821 6.03491 9.26343 6.06351 9.3034 6.08394C9.34337 6.10436 9.38719 6.11614 9.43201 6.11852C9.47683 6.1209 9.52165 6.11383 9.56356 6.09776C9.60547 6.08169 9.64353 6.05698 9.67526 6.02525C9.707 5.99351 9.73171 5.95545 9.74778 5.91354C9.76385 5.87163 9.77092 5.82681 9.76854 5.78199C9.76616 5.73717 9.75437 5.69335 9.73395 5.65338C9.71353 5.61341 9.68493 5.57819 9.65001 5.54999C9.41404 5.13296 9.02773 4.82176 8.57001 4.67999C8.34457 4.61525 8.10546 4.61525 7.88001 4.67999C7.65742 4.73204 7.45125 4.83856 7.28001 4.98999C6.94676 5.30832 6.71682 5.71942 6.62001 6.16999C6.60212 6.21397 6.59311 6.26105 6.59349 6.30852C6.59387 6.35599 6.60363 6.40292 6.62222 6.44661C6.64081 6.49029 6.66785 6.52987 6.7018 6.56306C6.73574 6.59624 6.77592 6.62239 6.82001 6.63999C6.86319 6.65957 6.90989 6.67017 6.95728 6.67116C7.00468 6.67214 7.05178 6.66349 7.09573 6.64572C7.13968 6.62796 7.17957 6.60144 7.21296 6.5678C7.24636 6.53415 7.27257 6.49407 7.29001 6.44999C7.38591 6.28846 7.51471 6.1489 7.66803 6.04037C7.82136 5.93184 7.99579 5.85675 8.18001 5.81999Z" fill="black"/>
<path fill-rule="evenodd" clip-rule="evenodd" d="M13.6 8.77999C13.5561 8.76251 13.5091 8.7541 13.4619 8.75527C13.4147 8.75643 13.3682 8.76715 13.3252 8.78677C13.2822 8.80639 13.2436 8.83451 13.2118 8.86944C13.18 8.90437 13.1556 8.94538 13.14 8.98999C13.0056 9.28304 12.7767 9.52248 12.49 9.67C12.3849 9.70297 12.274 9.7133 12.1646 9.70031C12.0552 9.68731 11.9497 9.65128 11.8553 9.5946C11.7608 9.53791 11.6794 9.46185 11.6164 9.37143C11.5535 9.28101 11.5104 9.17827 11.49 9.06999C11.86 8.80999 11.84 8.78 11.86 8.35C11.86 7.63 10.86 7.77 10.44 7.82C10.2986 7.83358 10.1582 7.85697 10.02 7.88999C9.91945 7.90928 9.82939 7.96464 9.76678 8.04567C9.70416 8.1267 9.67331 8.22781 9.68002 8.32999C9.68002 8.67999 9.98002 8.83 10.21 9.06L10.31 9.14999C10.25 9.23999 10.2 9.35 10.14 9.46C10.08 9.57 10.14 9.57 10.08 9.59C9.94982 9.71598 9.78977 9.80684 9.61487 9.85406C9.43996 9.90129 9.25593 9.90333 9.08002 9.85999C8.87208 9.81703 8.67554 9.73071 8.50323 9.60664C8.33092 9.48258 8.18671 9.32357 8.08002 9.14C8.04218 9.0742 7.98218 9.02399 7.91074 8.99835C7.8393 8.9727 7.76107 8.97329 7.69002 8.99999C7.61278 9.03692 7.55292 9.10241 7.52307 9.18264C7.49321 9.26287 7.49571 9.35157 7.53002 9.43C7.62932 9.72424 7.78794 9.99498 7.99607 10.2255C8.20419 10.456 8.4574 10.6413 8.74002 10.77C9.06026 10.9123 9.41103 10.9722 9.76036 10.9443C10.1097 10.9164 10.4465 10.8014 10.74 10.61C10.8229 10.5547 10.8971 10.4873 10.96 10.41C11.0659 10.4805 11.1801 10.5376 11.3 10.58C11.5649 10.6956 11.8535 10.7468 12.142 10.7294C12.4306 10.7121 12.7109 10.6266 12.96 10.48C13.397 10.1925 13.7136 9.75499 13.85 9.24999C13.8669 9.20281 13.8737 9.15262 13.8701 9.10264C13.8664 9.05267 13.8524 9.004 13.8289 8.95976C13.8053 8.91552 13.7728 8.87668 13.7334 8.84572C13.694 8.81477 13.6486 8.79238 13.6 8.77999Z" fill="black"/>
<path fill-rule="evenodd" clip-rule="evenodd" d="M15.42 11.69L15.36 11.77C15.3068 11.8291 15.2774 11.9059 15.2778 11.9854C15.2781 12.0649 15.308 12.1415 15.3617 12.2002C15.4153 12.2589 15.489 12.2955 15.5681 12.3028C15.6473 12.3102 15.7264 12.2878 15.79 12.24C16.2851 11.7904 16.695 11.2551 17 10.66C17.3076 10.0797 17.5363 9.46089 17.68 8.81999C17.78 8.34999 17.79 7.81999 17.89 7.35999C17.9325 7.11248 18.028 6.87709 18.17 6.66999C18.3128 6.47134 18.5015 6.31011 18.72 6.19999C18.9565 6.09038 19.2103 6.02271 19.47 5.99999C19.6978 5.95527 19.9283 5.92521 20.16 5.90999C20.3631 5.90201 20.5661 5.92907 20.76 5.98999C20.9411 6.03908 21.1156 6.10957 21.28 6.19999C21.4206 6.27239 21.5461 6.3708 21.65 6.48999C21.8881 6.76415 22.0745 7.07926 22.2 7.41999C22.3309 7.73732 22.352 8.08929 22.26 8.41999C22.1452 8.73821 21.9474 9.01999 21.6872 9.23623C21.4271 9.45246 21.1139 9.5953 20.78 9.64999C20.4281 9.72634 20.0621 9.70625 19.7206 9.59185C19.3791 9.47744 19.0749 9.27296 18.84 8.99999C18.7796 8.92812 18.6936 8.88267 18.6002 8.87333C18.5068 8.86399 18.4134 8.8915 18.34 8.94999C18.2659 9.01071 18.2183 9.09778 18.2071 9.19289C18.1959 9.288 18.2221 9.38375 18.28 9.45999C18.553 9.79613 18.9023 10.0622 19.2989 10.2362C19.6954 10.4101 20.1278 10.4868 20.56 10.46C20.5758 11.0013 20.522 11.5424 20.4 12.07C20.3386 12.3572 20.2619 12.641 20.17 12.92C20.0865 13.1991 19.9864 13.4729 19.87 13.74C19.6099 14.3764 19.1979 14.9395 18.67 15.38C18.6289 15.4046 18.5932 15.4372 18.5648 15.4758C18.5365 15.5144 18.5162 15.5582 18.505 15.6048C18.4938 15.6513 18.492 15.6997 18.4998 15.7469C18.5075 15.7942 18.5246 15.8394 18.55 15.88C18.6031 15.9592 18.6847 16.0149 18.7779 16.0354C18.8711 16.0559 18.9686 16.0396 19.05 15.99C20.1337 15.4274 20.9527 14.4612 21.33 13.3C21.4481 12.9575 21.5221 12.6012 21.55 12.24C21.5848 11.6014 21.507 10.9616 21.32 10.35C21.7503 10.2462 22.1498 10.0416 22.4854 9.75295C22.821 9.4643 23.0831 9.09995 23.25 8.68999C23.4032 8.2639 23.4377 7.8042 23.35 7.35999C23.2321 6.7425 22.9604 6.1647 22.56 5.67999C22.3996 5.48609 22.2108 5.31752 22 5.17999C21.7223 5.00549 21.4231 4.86768 21.11 4.76999C20.8466 4.69273 20.5744 4.64905 20.3 4.63999C19.9301 4.64091 19.5614 4.68113 19.2 4.75999C18.8946 4.83007 18.5991 4.93755 18.32 5.07999C18.2573 4.83201 18.1702 4.59084 18.06 4.35999C17.9803 4.24515 17.8862 4.14097 17.78 4.04999C17.8863 3.31313 17.8489 2.56267 17.67 1.83999C17.5341 1.28986 17.2383 0.792292 16.82 0.409994C16.535 0.180011 16.1884 0.0392977 15.8237 0.00549753C15.459 -0.0283027 15.0925 0.0463149 14.77 0.219994C14.0518 0.670362 13.4463 1.27927 13 1.99999C12.8748 2.16831 12.7675 2.3493 12.68 2.53999C12.6509 2.62499 12.6275 2.71185 12.61 2.79999C12.2351 2.66241 11.8508 2.55212 11.46 2.46999C11.1872 2.44515 10.9128 2.44515 10.64 2.46999C10.3636 2.46874 10.0881 2.50234 9.82001 2.56999C9.62001 2.56999 9.43001 2.69999 9.23001 2.76999C9.10189 2.29167 8.88104 1.84317 8.58001 1.44999C8.17053 0.913118 7.62506 0.495383 7.00001 0.239994C6.55404 0.0705815 6.07355 0.0122363 5.60001 0.0699939C5.2119 0.135281 4.85847 0.333202 4.60001 0.629994C4.48295 0.771498 4.3823 0.925817 4.30001 1.08999C4.21482 1.23811 4.14767 1.3959 4.10001 1.55999C4.04588 1.72525 4.0123 1.89654 4.00001 2.06999C3.98016 2.30624 3.98016 2.54374 4.00001 2.77999C4.00919 3.02492 4.05295 3.26732 4.13001 3.49999C4.21574 3.72815 4.32641 3.94614 4.46001 4.14999C3.66779 4.95405 3.15581 5.99203 3.00001 7.10999C3.00001 7.10999 3.00001 7.21999 3.00001 7.26999C2.64001 7.37999 2.31001 7.49999 2.00001 7.62999C1.95361 7.63831 1.90936 7.65592 1.86993 7.68176C1.8305 7.7076 1.7967 7.74113 1.77055 7.78036C1.7444 7.81958 1.72645 7.86368 1.71776 7.91002C1.70907 7.95635 1.70984 8.00396 1.72001 8.04999C1.7371 8.14222 1.78951 8.22413 1.86609 8.27829C1.94267 8.33245 2.03736 8.35459 2.13001 8.33999H3.07001C3.14178 8.74253 3.2697 9.13301 3.45001 9.49999C3.041 9.73988 2.67579 10.0476 2.37001 10.41C2.29707 10.4723 2.25188 10.5611 2.24438 10.6567C2.23688 10.7524 2.26768 10.8471 2.33001 10.92C2.39233 10.9929 2.48108 11.0381 2.57672 11.0456C2.67237 11.0531 2.76707 11.0223 2.84001 10.96C3.0342 10.8547 3.23457 10.7612 3.44001 10.68C3.65001 10.61 3.86001 10.57 4.08001 10.5H4.16001C4.38029 10.7353 4.625 10.9465 4.89001 11.13C4.63001 11.18 4.37001 11.23 4.12001 11.3C3.81235 11.3992 3.51444 11.5264 3.23001 11.68C2.40536 12.1409 1.73688 12.8372 1.31001 13.68C0.902777 14.5121 0.661615 15.4156 0.600007 16.34C0.544526 17.1943 0.784626 18.0417 1.28001 18.74C1.71888 19.2794 2.32345 19.6591 3.00001 19.82C3.12754 20.5038 3.42693 21.1438 3.87001 21.68C4.91487 22.7931 6.29497 23.534 7.80001 23.79C8.13006 23.8577 8.46406 23.9044 8.80001 23.93C9.26001 23.93 9.73001 23.93 10.19 23.99C12.2747 24.1023 14.3568 23.7256 16.27 22.89C16.9437 22.5939 17.5485 22.1609 18.046 21.6187C18.5435 21.0764 18.9229 20.4366 19.16 19.74C19.2415 19.4724 19.2984 19.1979 19.33 18.92C19.3702 18.628 19.3702 18.332 19.33 18.04C19.2633 17.6531 19.1561 17.2744 19.01 16.91C18.8595 16.5671 18.6892 16.2332 18.5 15.91C18.2404 15.4539 17.9497 15.0162 17.63 14.6C17.3054 14.1755 16.9367 13.7866 16.53 13.44C16.4557 13.3697 16.3566 13.3318 16.2544 13.3346C16.1522 13.3374 16.0553 13.3807 15.985 13.455C15.9147 13.5293 15.8768 13.6284 15.8796 13.7306C15.8824 13.8328 15.9257 13.9297 16 14C16.3467 14.2972 16.6587 14.6327 16.93 15C17.2118 15.4006 17.469 15.8181 17.7 16.25C17.8575 16.5504 17.9944 16.8611 18.11 17.18C18.2327 17.5016 18.3134 17.8377 18.35 18.18C18.38 18.3889 18.38 18.6011 18.35 18.81C18.3168 19.0279 18.2632 19.2421 18.19 19.45C17.9717 20.0035 17.6414 20.5059 17.2198 20.9258C16.7982 21.3457 16.2944 21.6739 15.74 21.89C13.9836 22.6114 12.0839 22.916 10.19 22.78C9.74001 22.78 9.29001 22.78 8.85001 22.73C8.56462 22.7062 8.28083 22.6661 8.00001 22.61C6.94922 22.4367 5.95499 22.015 5.10001 21.38C4.69779 21.0786 4.37353 20.6853 4.15434 20.233C3.93514 19.7807 3.82736 19.2825 3.84001 18.78C3.84264 18.3551 3.89636 17.9321 4.00001 17.52C4.09838 17.0994 4.23219 16.688 4.40001 16.29C4.66693 15.6412 4.98111 15.0128 5.34001 14.41C5.59324 13.9748 5.90256 13.5747 6.26001 13.22C6.31924 13.1601 6.35247 13.0792 6.35247 12.995C6.35247 12.9107 6.31924 12.8299 6.26001 12.77C6.21283 12.7282 6.15294 12.7035 6.09001 12.7C5.49657 12.9616 5.01234 13.4211 4.72001 14C4.30942 14.6398 3.94515 15.3082 3.63001 16C3.42689 16.4368 3.25643 16.888 3.12001 17.35C2.98935 17.8236 2.9089 18.3096 2.88001 18.8C2.87484 18.8933 2.87484 18.9867 2.88001 19.08C2.5339 18.8891 2.24155 18.6139 2.03001 18.28C1.74398 17.7261 1.65241 17.0922 1.77001 16.48C1.84135 15.7134 2.03725 14.9635 2.35001 14.26C2.63638 13.5697 3.10256 12.9689 3.70001 12.52C3.91421 12.3666 4.14582 12.239 4.39001 12.14C4.78 11.9783 5.18102 11.8447 5.59001 11.74C5.76662 11.5066 5.92381 11.2591 6.06001 11C6.15347 10.8569 6.26811 10.7287 6.40001 10.62L6.00001 10.45C5.77332 10.3199 5.55909 10.1693 5.36001 9.99999C5.56709 9.90423 5.78102 9.82401 6.00001 9.75999C6.08322 9.74995 6.15916 9.70765 6.21152 9.64221C6.26388 9.57676 6.28847 9.49338 6.28001 9.40999C6.27752 9.36834 6.26665 9.32762 6.24804 9.29027C6.22943 9.25292 6.20348 9.21971 6.17173 9.19263C6.13998 9.16555 6.1031 9.14516 6.06328 9.13268C6.02346 9.1202 5.98153 9.11588 5.94001 9.11999C5.48532 9.05981 5.02469 9.05981 4.57001 9.11999C4.41558 8.85957 4.29463 8.5807 4.21001 8.28999H4.29001C4.61001 8.17999 5.00001 7.99999 5.35001 7.99999C5.43402 7.99489 5.5129 7.95789 5.57053 7.89654C5.62815 7.8352 5.66016 7.75416 5.66001 7.66999C5.66003 7.62843 5.65169 7.58728 5.63549 7.54901C5.61929 7.51073 5.59556 7.4761 5.5657 7.44718C5.53585 7.41826 5.50048 7.39564 5.46171 7.38066C5.42294 7.36568 5.38155 7.35865 5.34001 7.35999C4.94607 7.26099 4.54476 7.1941 4.14001 7.15999H4.00001C4.03826 6.44887 4.2383 5.75585 4.58488 5.13373C4.93147 4.5116 5.41547 3.97678 6.00001 3.56999C6.03642 3.54855 6.06806 3.51989 6.09299 3.48576C6.11793 3.45164 6.13562 3.41279 6.14498 3.37158C6.15435 3.33037 6.15519 3.28768 6.14745 3.24614C6.13972 3.2046 6.12357 3.16507 6.10001 3.12999C6.06029 3.06366 5.9979 3.01395 5.92436 2.99005C5.85083 2.96615 5.77114 2.96968 5.70001 2.99999C5.4204 3.17388 5.15612 3.37126 4.91001 3.58999C4.88409 3.52525 4.86401 3.45832 4.85001 3.38999C4.80987 3.18864 4.80987 2.98135 4.85001 2.77999C4.8713 2.62508 4.90134 2.4715 4.94001 2.31999C4.97557 2.21033 5.01901 2.10339 5.07001 1.99999L5.48001 1.43999C5.53923 1.38215 5.60978 1.33718 5.68722 1.30792C5.76467 1.27867 5.84733 1.26575 5.93001 1.26999C6.18013 1.25335 6.43116 1.28388 6.67001 1.35999C7.11095 1.47059 7.51682 1.69072 7.85001 1.99999C8.14014 2.28337 8.36829 2.62388 8.52001 2.99999C8.37001 3.07999 8.21001 3.15999 8.05001 3.25999C8.01209 3.27715 7.97801 3.30177 7.94981 3.33238C7.92162 3.36299 7.89987 3.39896 7.88587 3.43816C7.87187 3.47735 7.86591 3.51897 7.86834 3.56051C7.87077 3.60206 7.88154 3.6427 7.90001 3.67999C7.93494 3.75651 7.99859 3.8162 8.07719 3.84614C8.15579 3.87608 8.24302 3.87387 8.32001 3.83999C8.78057 3.71545 9.25339 3.64168 9.73001 3.61999H10.24H11.02C11.6858 3.57231 12.3542 3.57231 13.02 3.61999C13.1099 3.63368 13.2016 3.61287 13.2767 3.56173C13.3519 3.5106 13.4049 3.43293 13.4252 3.34432C13.4454 3.2557 13.4314 3.16271 13.3859 3.084C13.3405 3.0053 13.2669 2.94671 13.18 2.91999C13.2095 2.85793 13.2429 2.79781 13.28 2.73999C13.3587 2.63952 13.4456 2.54585 13.54 2.45999C13.9616 2.06771 14.4322 1.73159 14.94 1.45999C15.31 1.25999 15.7 1.09999 16.04 1.37999C16.4102 1.64609 16.6783 2.03066 16.8 2.46999C16.8969 2.79655 16.9639 3.13127 17 3.46999C16.7307 3.39983 16.4567 3.3497 16.18 3.31999C16.1405 3.29921 16.097 3.28693 16.0525 3.28394C16.0079 3.28096 15.9632 3.28733 15.9213 3.30265C15.8794 3.31797 15.8411 3.3419 15.8089 3.3729C15.7768 3.4039 15.7515 3.44129 15.7347 3.48265C15.7178 3.52402 15.7099 3.56845 15.7112 3.61308C15.7126 3.65772 15.7233 3.70157 15.7427 3.74182C15.762 3.78207 15.7895 3.81783 15.8235 3.84679C15.8575 3.87576 15.8972 3.89728 15.94 3.90999L16.39 4.24999C16.509 4.34733 16.6164 4.45806 16.71 4.57999L17.56 5.57999C17.4207 5.72604 17.2936 5.88323 17.18 6.04999C17.0221 6.31948 16.9105 6.61357 16.85 6.91999C16.8404 7.03312 16.8404 7.14687 16.85 7.25999C16.7852 7.21673 16.7145 7.18305 16.64 7.15999C16.5607 7.14555 16.4794 7.14555 16.4 7.15999C16.31 7.15999 15.48 7.23999 15.4 7.50999C15.32 7.77999 16.05 8.26999 16.07 8.27999C16.1281 8.31995 16.1923 8.35034 16.26 8.36999C16.3364 8.37983 16.4137 8.37983 16.49 8.36999C16.5864 8.38025 16.6836 8.38025 16.78 8.36999V8.73999C16.7162 9.0375 16.636 9.33127 16.54 9.61999C16.4839 9.5156 16.4204 9.41534 16.35 9.31999C16.303 9.26534 16.2451 9.22107 16.18 9.18999C16.1359 9.11333 16.0742 9.04822 16 8.99999C15.91 8.99999 15.17 8.99999 15.07 9.22999C15.07 9.22999 14.89 9.42999 15.5 10.06C15.5366 10.0988 15.5808 10.1294 15.63 10.15C15.82 10.22 16 10.15 16.2 10.22H16.34C16.2354 10.4527 16.1186 10.6797 15.99 10.9L15.42 11.69Z" fill="black"/>
<path fill-rule="evenodd" clip-rule="evenodd" d="M15.24 11.27C15.197 11.2046 15.1321 11.1567 15.057 11.1347C14.9819 11.1127 14.9015 11.1181 14.83 11.15C13.5091 11.6976 12.0716 11.9039 10.65 11.75C9.48264 11.6923 8.3333 11.4387 7.25 11C6.25 11.14 5.98 11.9 6.65 12C7.51644 12.3287 8.4198 12.5503 9.34 12.66C9.28 12.73 9.2 12.8 9.14 12.88C9.03113 13.041 8.9374 13.2117 8.86 13.39C8.8116 13.526 8.77808 13.6668 8.76 13.81C8.7453 13.9922 8.76567 14.1755 8.82 14.35C8.88769 14.5868 8.99597 14.8102 9.14 15.01C9.32184 15.2457 9.54923 15.4424 9.80864 15.5884C10.068 15.7344 10.3542 15.8268 10.65 15.86C11.2416 15.9388 11.8412 15.7925 12.33 15.45C12.7774 15.1208 13.0844 14.6353 13.19 14.09C13.2479 13.8098 13.2333 13.5194 13.1476 13.2464C13.0618 12.9734 12.9078 12.7268 12.7 12.53L12.62 12.47C13.3474 12.4286 14.0633 12.2699 14.74 12C15.17 11.72 15.34 11.5 15.24 11.27ZM12.19 13.93C12.0926 14.1931 11.9047 14.4129 11.66 14.55C11.4005 14.7015 11.0976 14.7614 10.8 14.72C10.5023 14.7055 10.2207 14.5807 10.01 14.37C9.93598 14.2991 9.87205 14.2183 9.82 14.13C9.77562 14.0634 9.74502 13.9886 9.73 13.91C9.7197 13.8337 9.7197 13.7563 9.73 13.68C9.75729 13.5814 9.79069 13.4845 9.83 13.39C9.91117 13.2274 10.0083 13.0733 10.12 12.93C10.1638 12.8742 10.2105 12.8208 10.26 12.77H10.61C10.85 12.77 11.09 12.7 11.33 12.68C11.4699 12.7325 11.604 12.7995 11.73 12.88C11.8419 12.9439 11.9403 13.0288 12.02 13.13C12.1186 13.2351 12.1866 13.3653 12.2166 13.5063C12.2465 13.6473 12.2374 13.7938 12.19 13.93Z" fill="black"/>
</g>
<defs>
<clipPath id="clip0_1031_3066">
<rect width="24" height="24" fill="white"/>
</clipPath>
</defs>
</svg>
