<svg width="24" height="24" viewBox="0 0 24 24" fill="none" xmlns="http://www.w3.org/2000/svg">
<g clip-path="url(#clip0_1035_4790)">
<path fill-rule="evenodd" clip-rule="evenodd" d="M19.28 11.13C19.4235 10.1032 19.457 9.06395 19.38 8.03C19.27 7.59 18.63 7.51 18.23 7.49C18.23 6.24 18.23 5.56 18.13 4.67C18.07 3.99 17.75 1.75 17.68 1.47C17.48 0.689998 17.06 0.199998 15.73 0.0499979C14.6623 -0.0204258 13.5903 0.0164254 12.53 0.159998C9.76999 0.479998 7.76999 0.429998 6.66999 1.24C6.36895 1.43648 6.15432 1.74054 6.06999 2.09C6.00663 2.55045 5.98321 3.01551 5.99999 3.48C5.99999 3.59 6.19999 8.13 6.20999 8.38C5.59999 8.44 5.20999 8.57 4.97999 9.11C4.39999 10.53 4.57999 14.11 4.80999 15.47C5.31999 18.57 6.94999 18.28 9.80999 18.3C9.80999 18.4 9.61999 19.46 9.59999 19.57C9.43968 20.3697 9.40258 21.1891 9.48999 22C9.50893 22.6227 9.71448 23.2254 10.08 23.73C10.1366 23.7977 10.2172 23.8407 10.3049 23.85C10.3926 23.8594 10.4805 23.8342 10.55 23.78C10.85 23.54 10.55 23.45 10.48 22.7C10.4738 22.1988 10.5005 21.6977 10.56 21.2C10.5899 20.2431 10.5296 19.2856 10.38 18.34H13.17C13.17 18.6 13.22 19.98 13.22 20.06C13.22 20.52 13.71 23.69 14.1 23.92C14.28 24.03 14.47 24.08 14.61 23.83C14.61 23.78 14.55 23.09 14.52 22.13C14.5474 21.1144 14.4089 20.101 14.11 19.13C14.0439 18.8502 13.9971 18.5662 13.97 18.28C18.61 18.14 18.57 17.41 19.26 14.42C19.3549 13.3256 19.3616 12.2254 19.28 11.13ZM18.46 11.08C18.4991 12.1306 18.4724 13.1827 18.38 14.23C17.47 17.67 18.27 17.23 8.98999 17.16C6.79999 17.16 6.20999 17.22 5.85999 15.28C5.66689 13.9553 5.56665 12.6187 5.55999 11.28C5.57665 10.6501 5.67411 10.025 5.84999 9.42C6.52999 9.16 13.62 8.59 15.2 8.42C15.2699 8.40155 15.3308 8.35846 15.3715 8.29866C15.4122 8.23887 15.4299 8.1664 15.4214 8.09458C15.4128 8.02277 15.3787 7.95645 15.3251 7.90783C15.2716 7.85922 15.2023 7.83157 15.13 7.83C14.59 7.83 7.76999 8.25 7.19999 8.34H6.77999V6.58C6.73613 5.14307 6.80971 3.70495 6.99999 2.28C7.14999 1.6 9.99999 1.57 12.63 1.28C13.4 1.18 15.95 0.819998 16.55 1.35C16.82 1.59 16.93 2.82 17.03 3.26C17.3158 4.64973 17.4798 6.06175 17.52 7.48C17 7.48 16.52 7.54 16.39 7.55C16.3111 7.56368 16.2395 7.6048 16.1879 7.66608C16.1364 7.72737 16.1081 7.8049 16.1081 7.885C16.1081 7.9651 16.1364 8.04263 16.1879 8.10391C16.2395 8.1652 16.3111 8.20631 16.39 8.22C17.1361 8.14302 17.8891 8.16319 18.63 8.28C18.6446 9.2163 18.5877 10.1523 18.46 11.08Z" fill="black"/>
<path fill-rule="evenodd" clip-rule="evenodd" d="M9.72 3.27999C9.05 3.27999 9.31 5.41999 9.54 6.27999C9.55368 6.35891 9.59479 6.43047 9.65608 6.48204C9.71737 6.53362 9.7949 6.5619 9.875 6.5619C9.9551 6.5619 10.0326 6.53362 10.0939 6.48204C10.1552 6.43047 10.1963 6.35891 10.21 6.27999C10.32 5.53999 10.41 3.25999 9.72 3.27999Z" fill="black"/>
<path fill-rule="evenodd" clip-rule="evenodd" d="M12.19 3C11.52 3 11.78 5.14 12.01 6C12.0015 6.04884 12.0038 6.09894 12.0168 6.14679C12.0297 6.19464 12.0529 6.23908 12.0849 6.27701C12.1168 6.31494 12.1566 6.34542 12.2015 6.36634C12.2465 6.38726 12.2954 6.39809 12.345 6.39809C12.3946 6.39809 12.4435 6.38726 12.4885 6.36634C12.5334 6.34542 12.5732 6.31494 12.6051 6.27701C12.6371 6.23908 12.6603 6.19464 12.6732 6.14679C12.6862 6.09894 12.6885 6.04884 12.68 6C12.8 5.27 12.88 3 12.19 3Z" fill="black"/>
<path fill-rule="evenodd" clip-rule="evenodd" d="M14.73 2.88999C14.06 2.88999 14.33 5.02999 14.55 5.88999C14.5637 5.96891 14.6048 6.04047 14.6661 6.09204C14.7274 6.14362 14.8049 6.1719 14.885 6.1719C14.9651 6.1719 15.0426 6.14362 15.1039 6.09204C15.1652 6.04047 15.2063 5.96891 15.22 5.88999C15.34 5.14999 15.42 2.86999 14.73 2.88999Z" fill="black"/>
<path fill-rule="evenodd" clip-rule="evenodd" d="M11.82 11.47C12.0548 10.9701 12.3727 10.5137 12.76 10.12C12.829 10.0802 12.8793 10.0147 12.8999 9.93778C12.9205 9.86089 12.9098 9.77895 12.87 9.71C12.8302 9.64104 12.7647 9.59071 12.6878 9.57008C12.6109 9.54945 12.529 9.56021 12.46 9.6C11.7988 10.1432 11.2165 10.776 10.73 11.48C10.6375 11.6511 10.6058 11.8485 10.64 12.04C10.6612 12.1287 10.7031 12.2112 10.7621 12.2807C10.8212 12.3502 10.8959 12.4048 10.98 12.44C11.3714 12.542 11.7785 12.5692 12.18 12.52C12.53 12.52 12.88 12.41 13.18 12.37C12.83 12.7 13.18 12.23 10.88 15.14C10.8177 15.2023 10.7827 15.2869 10.7827 15.375C10.7827 15.4631 10.8177 15.5477 10.88 15.61C10.9423 15.6723 11.0269 15.7073 11.115 15.7073C11.2031 15.7073 11.2877 15.6723 11.35 15.61C14.35 12.67 14.7 12.48 14.57 11.76C14.44 10.85 13.09 11.25 11.82 11.47Z" fill="black"/>
</g>
<defs>
<clipPath id="clip0_1035_4790">
<rect width="24" height="24" fill="white"/>
</clipPath>
</defs>
</svg>
