<svg width="24" height="24" viewBox="0 0 24 24" fill="none" xmlns="http://www.w3.org/2000/svg">
<g clip-path="url(#clip0_1030_1865)">
<path d="M14.79 15.42C14.61 15.42 14.18 15.42 13.49 15.34L13.7 14.86C13.9219 14.3921 14.0961 13.9029 14.22 13.4C14.2605 13.2146 14.2552 13.0222 14.2047 12.8392C14.1542 12.6563 14.0599 12.4884 13.93 12.35C13.5951 12.0715 13.1838 11.9006 12.75 11.86C11.96 11.75 10.97 11.94 10.39 11.86C9.95502 11.7774 9.51005 11.7605 9.07003 11.81C8.90003 11.89 8.77003 12.28 9.24003 12.4C9.49003 12.46 10.11 12.54 10.34 12.57C10.82 12.63 11.6 12.64 12.28 12.75C12.63 12.81 13.21 13.06 13.17 13.22C13.07 13.58 12.74 14.32 12.68 14.5L12.42 15.25H11.9C9.75003 15.33 9.68003 15.43 9.51003 15.81C9.34003 16.19 11.78 16.32 11.88 16.33H12.05L11.15 18.93C11.1212 19.0123 11.126 19.1026 11.1634 19.1813C11.2009 19.26 11.268 19.3206 11.35 19.35C11.4296 19.3791 11.5174 19.3754 11.5943 19.3398C11.6712 19.3042 11.7308 19.2395 11.76 19.16L13 16.34C13.5 16.3061 13.9975 16.2426 14.49 16.15C14.6167 16.1361 14.7411 16.1059 14.86 16.06C15.04 15.96 15.08 15.84 15.07 15.74C15.0706 15.6617 15.0425 15.5858 14.9909 15.5268C14.9393 15.4678 14.8678 15.4298 14.79 15.42Z" fill="black"/>
<path d="M15.76 3.87002C15.647 4.62822 15.7297 5.4027 16 6.12002C16.1807 6.47172 16.4839 6.74517 16.8523 6.88884C17.2206 7.03252 17.6289 7.03649 18 6.90002C18.2525 6.83886 18.4855 6.71523 18.6777 6.5405C18.8699 6.36576 19.0151 6.14552 19.1 5.90002C19.2635 5.33887 19.3245 4.75282 19.28 4.17002V3.83002V2.71002C19.2949 2.4886 19.2615 2.26659 19.1821 2.05938C19.1027 1.85216 18.9791 1.66471 18.82 1.51002C18.2869 1.14837 17.6367 1.00189 17 1.10002C16.9571 1.09868 16.9144 1.10596 16.8745 1.12145C16.8345 1.13693 16.798 1.16028 16.7672 1.19013C16.7364 1.21998 16.712 1.25571 16.6953 1.2952C16.6786 1.3347 16.67 1.37714 16.67 1.42002C16.6455 1.35835 16.5998 1.30741 16.5412 1.27628C16.4826 1.24514 16.4148 1.23583 16.35 1.25002C16.2846 1.26832 16.2248 1.30257 16.1759 1.3497C16.1271 1.39683 16.0907 1.45535 16.07 1.52002C16.0104 1.87002 15.9869 2.22522 16 2.58002L15.86 3.19002C15.8079 3.41352 15.7744 3.64097 15.76 3.87002ZM16.59 3.46002C16.59 3.46002 16.75 1.60002 16.75 1.53002C16.7752 1.58886 16.817 1.6391 16.8703 1.67461C16.9235 1.71012 16.986 1.72937 17.05 1.73002C17.95 1.73002 18.33 1.90002 18.43 2.25002C18.4625 2.88627 18.4188 3.52412 18.3 4.15002C18.3027 4.53717 18.2591 4.92325 18.17 5.30002C18.1 5.54002 18.01 5.78002 17.76 5.84002C17.6624 5.88421 17.5562 5.90608 17.4491 5.90403C17.342 5.90198 17.2367 5.87605 17.1409 5.82815C17.0451 5.78024 16.9612 5.71157 16.8953 5.62712C16.8294 5.54268 16.7832 5.44459 16.76 5.34002C16.601 4.72684 16.5436 4.09176 16.59 3.46002Z" fill="black"/>
<path d="M8.55 3.56002C8.55 3.66002 8.62 3.76002 9.01 3.80002C9.57 3.80002 9.81 3.98002 10.58 4.02002H11.84H13.09C13.78 4.02002 14.2 3.96002 14.9 3.91002C15.23 3.91002 15.49 3.27002 15.05 3.16002C14.29 3.13002 13.77 3.00002 13 3.00002H11C10.3816 2.99798 9.76376 3.03472 9.15 3.11002C8.73 3.14002 8.54 3.41002 8.55 3.56002Z" fill="black"/>
<path d="M23 4.06999C22.6626 3.70287 22.2183 3.45102 21.73 3.34999C21.2672 3.22759 20.7878 3.18032 20.31 3.20999C19.6 3.30999 19.79 3.79999 20.16 3.79999C20.4951 3.79663 20.8297 3.82341 21.16 3.87999C21.6588 3.91561 22.1262 4.13681 22.47 4.49999C22.703 4.96738 22.8359 5.47829 22.86 5.99999C22.96 6.77999 23.04 7.78999 23.09 8.89999C21.62 8.89999 18.67 8.77999 15.36 8.71999H11.97H8.58001C5.00001 8.74999 1.89001 8.86999 0.910008 8.90999C0.903661 7.40125 1.05786 5.89611 1.37001 4.41999C1.46838 4.2394 1.61261 4.08793 1.78817 3.98084C1.96373 3.87374 2.16442 3.81482 2.37001 3.80999C2.78533 3.70893 3.2131 3.66851 3.64001 3.68999C3.69653 3.68026 3.74849 3.65279 3.78836 3.61155C3.82822 3.5703 3.85391 3.51744 3.86171 3.46062C3.86951 3.40379 3.85901 3.34596 3.83173 3.2955C3.80446 3.24505 3.76182 3.20459 3.71001 3.17999C3.09053 3.0458 2.44949 3.0458 1.83001 3.17999C1.58463 3.23903 1.35606 3.35356 1.1619 3.51479C0.96773 3.67602 0.813135 3.87964 0.710008 4.10999C0.320008 5.02999 -0.0799923 10.11 0.0100077 14.61C0.0800077 17.88 0.470008 20.81 1.19001 21.69C1.72001 22.33 3.10001 22.69 4.84001 22.83C7.55001 23.01 11.15 22.71 13.01 22.71C15.3459 22.784 17.684 22.7071 20.01 22.48C21.0585 22.3889 22.0784 22.0897 23.01 21.6C23.2813 21.37 23.4621 21.051 23.52 20.7C23.8761 18.6465 24.0368 16.5638 24 14.48C24 9.99999 23.63 4.80999 23 4.06999ZM22.75 19.53C22.6943 19.9688 22.5834 20.3989 22.42 20.81C21.301 21.2784 20.103 21.5295 18.89 21.55C16.55 21.74 13.97 21.65 13.01 21.65C11.17 21.65 7.60001 21.96 4.91001 21.8C3.53001 21.72 2.39001 21.58 1.97001 21.08C1.29001 20.29 1.00001 17.6 0.910008 14.63C0.843527 12.9207 0.836856 11.2097 0.890008 9.49999C1.89001 9.49999 4.94001 9.65999 8.58001 9.72999H11.97H15.36C18.69 9.66999 21.65 9.57999 23.11 9.53999C23.11 10.54 23.16 11.67 23.11 12.77C23.1301 15.0286 23.0098 17.2863 22.75 19.53Z" fill="black"/>
<path d="M4.48001 3.84002C4.40305 4.64077 4.48114 5.44884 4.71001 6.22002C4.89075 6.57172 5.19387 6.84518 5.56227 6.98885C5.93067 7.13252 6.33889 7.1365 6.71001 7.00002C6.96469 6.94123 7.20021 6.81859 7.3944 6.64365C7.58859 6.4687 7.73506 6.24721 7.82001 6.00002C7.9901 5.43331 8.05118 4.83949 8.00001 4.25002V3.19002V2.79002C8.01362 2.56874 7.97959 2.34712 7.90024 2.1401C7.82089 1.93309 7.69805 1.74551 7.54001 1.59002C7.00871 1.22395 6.358 1.07379 5.72001 1.17002C5.63249 1.17002 5.54855 1.20479 5.48667 1.26668C5.42478 1.32857 5.39001 1.4125 5.39001 1.50002C5.36547 1.43836 5.31983 1.38742 5.26122 1.35628C5.20261 1.32515 5.13485 1.31584 5.07001 1.33002C5.00463 1.34833 4.94483 1.38258 4.89595 1.42971C4.84708 1.47683 4.81068 1.53536 4.79001 1.60002C4.71493 1.92846 4.6714 2.26331 4.66001 2.60002L4.55001 3.13002V3.39002L4.48001 3.84002ZM5.30001 3.55002C5.30001 3.55002 5.46001 1.70002 5.46001 1.62002C5.48252 1.68152 5.52336 1.73463 5.577 1.77218C5.63065 1.80973 5.69453 1.82992 5.76001 1.83002C6.66001 1.83002 7.04001 2.00002 7.14001 2.35002C7.16919 2.98667 7.12219 3.62453 7.00001 4.25002C7.00089 4.63707 6.95727 5.02294 6.87001 5.40002C6.81001 5.63002 6.72001 5.87002 6.47001 5.93002C6.37244 5.97422 6.26623 5.99609 6.15914 5.99403C6.05204 5.99198 5.94675 5.96606 5.85095 5.91815C5.75514 5.87025 5.67123 5.80157 5.60533 5.71713C5.53943 5.63269 5.4932 5.5346 5.47001 5.43002C5.30925 4.81716 5.2518 4.18178 5.30001 3.55002Z" fill="black"/>
</g>
<defs>
<clipPath id="clip0_1030_1865">
<rect width="24" height="24" fill="white"/>
</clipPath>
</defs>
</svg>
