<svg width="24" height="24" viewBox="0 0 24 24" fill="none" xmlns="http://www.w3.org/2000/svg">
<g clip-path="url(#clip0_1047_5950)">
<path d="M18.32 14.56C18.2767 14.5587 18.2335 14.5659 18.1929 14.5812C18.1524 14.5966 18.1153 14.6198 18.0837 14.6495C18.0521 14.6792 18.0267 14.7149 18.0089 14.7544C17.9911 14.794 17.9813 14.8367 17.98 14.88C17.98 15.48 18.04 16.16 17.98 16.79C17.9621 17.1569 17.8252 17.5079 17.59 17.79C17.59 17.79 17.46 17.79 17.33 17.85C16.6675 17.9413 15.9986 17.9781 15.33 17.96C13.33 17.96 10.72 17.82 9.42 17.87C8.08547 17.9803 6.74252 17.9299 5.42 17.72C4.64 17.54 4.02 17.22 4.06 16.46C4.15 14.66 4.06 12.32 4.06 10.3V8.79999C4.07581 8.23841 4.14275 7.67943 4.26 7.12999C4.31536 6.84734 4.46739 6.59277 4.69 6.40999C4.92586 6.24518 5.19592 6.13579 5.48 6.08999C6.05 5.99999 6.63 5.92999 7.1 5.85999C8.06167 5.73415 9.03015 5.66736 10 5.65999C11.48 5.65999 13 5.65999 14.45 5.74999H16.58C16.9824 5.752 17.3779 5.85516 17.73 6.04999C17.8376 6.3196 17.8787 6.61114 17.85 6.89999V8.57999C17.85 8.65691 17.8806 8.73067 17.9349 8.78505C17.9893 8.83944 18.0631 8.86999 18.14 8.86999C18.2169 8.86999 18.2907 8.83944 18.3451 8.78505C18.3994 8.73067 18.43 8.65691 18.43 8.57999C18.43 8.32999 18.5 7.07999 18.43 6.34999C18.4314 6.07595 18.3358 5.81025 18.16 5.59999C17.8249 5.35466 17.4323 5.19969 17.02 5.14999C16.1839 5.0475 15.3423 4.9974 14.5 4.99999C13.02 4.91999 11.5 4.79999 10.02 4.76999C9.0182 4.74495 8.01587 4.78839 7.02 4.89999C6.34867 4.92857 5.68028 5.00543 5.02 5.12999C4.6907 5.20886 4.37881 5.34785 4.1 5.53999C3.68602 5.85529 3.38732 6.29807 3.25 6.79999C3.10774 7.42417 3.02405 8.06026 3 8.69999C2.95 9.41999 2.93 10.22 2.94 11.05C2.94 12.86 3.06 14.82 2.94 16.38C2.913 16.8456 3.04326 17.3067 3.30985 17.6894C3.57644 18.072 3.9639 18.354 4.41 18.49C5.77 19.03 8 18.88 9.47 18.79C10.94 18.7 14.22 18.79 16.21 18.7C16.8728 18.7289 17.5306 18.5731 18.11 18.25C18.3456 17.9598 18.5069 17.6166 18.58 17.25C18.6399 16.4812 18.6399 15.7088 18.58 14.94C18.5922 14.8556 18.5723 14.7697 18.5241 14.6993C18.476 14.6289 18.4031 14.5792 18.32 14.56Z" fill="black"/>
<path d="M23.93 9.05C23.9044 8.52442 23.7788 8.00855 23.56 7.53C23.4651 7.32943 23.3257 7.15313 23.1524 7.01451C22.9791 6.87589 22.7765 6.77858 22.56 6.73C22.3457 6.69959 22.1272 6.7308 21.93 6.82C21.64 6.95 21.31 7.19 21.16 7.27L18.06 9C18.0262 9.01871 17.9965 9.044 17.9725 9.07437C17.9486 9.10474 17.931 9.13958 17.9208 9.17684C17.9105 9.21411 17.9079 9.25305 17.9129 9.29137C17.9179 9.32969 17.9305 9.36663 17.95 9.4C17.9677 9.43348 17.9921 9.46302 18.0215 9.48682C18.051 9.51062 18.085 9.5282 18.1215 9.53848C18.1579 9.54877 18.1961 9.55154 18.2336 9.54665C18.2712 9.54175 18.3074 9.52928 18.34 9.51C18.34 9.51 21.73 8.08 22.34 7.68C22.4347 7.7245 22.517 7.79152 22.5797 7.8752C22.6425 7.95888 22.6838 8.05666 22.7 8.16C22.787 8.48619 22.8307 8.82241 22.83 9.16V10.61C22.83 11.74 22.74 12.72 22.71 14.06L22.79 15.55C22.1499 15.4035 21.5188 15.2198 20.9 15C20.27 14.72 19.69 14.38 19.02 14.1C18.9403 14.0663 18.8507 14.0653 18.7702 14.0971C18.6898 14.1289 18.6251 14.191 18.59 14.27C18.5717 14.3086 18.5613 14.3506 18.5594 14.3933C18.5575 14.436 18.5643 14.4787 18.5792 14.5188C18.5941 14.5589 18.6169 14.5956 18.6462 14.6267C18.6756 14.6578 18.7109 14.6827 18.75 14.7C19.52 15.07 20.15 15.53 20.89 15.86C21.5467 16.1546 22.2515 16.3274 22.97 16.37C23.0713 16.3779 23.1732 16.3652 23.2695 16.3325C23.3658 16.2999 23.4544 16.248 23.53 16.18C23.6794 16.0174 23.7709 15.81 23.79 15.59C23.8203 15.0871 23.8203 14.5829 23.79 14.08C23.84 12.93 23.94 12.08 23.97 11.08C24 10.46 24 9.81 23.93 9.05Z" fill="black"/>
<path d="M12.33 2C12.3628 2.0199 12.3992 2.03311 12.4371 2.03886C12.475 2.0446 12.5137 2.04277 12.5509 2.03347C12.5881 2.02417 12.6231 2.00759 12.6538 1.98468C12.6845 1.96177 12.7104 1.93299 12.73 1.9C12.9226 1.55602 13.1329 1.22224 13.36 0.9C13.4596 1.00535 13.5499 1.11911 13.63 1.24C13.83 1.53 13.99 1.85 14.08 1.99C14.1642 2.1639 14.2719 2.32541 14.4 2.47C14.4861 2.54646 14.5951 2.59218 14.71 2.6C15.1164 2.64362 15.5266 2.56714 15.89 2.38C16.4 2.14 16.89 1.7 17.35 1.46C17.44 1.65 17.71 2.31 17.87 2.56C17.9574 2.71225 18.0954 2.82903 18.26 2.89C18.4941 2.9411 18.7361 2.94442 18.9715 2.89974C19.2069 2.85506 19.4309 2.76332 19.63 2.63C19.8734 2.44469 20.1387 2.29018 20.42 2.17C20.52 2.17 20.61 2.17 20.7 2.37L20.97 2.87L21.31 3.7C21.3392 3.78354 21.4003 3.85208 21.48 3.89052C21.5597 3.92897 21.6515 3.93417 21.735 3.905C21.8185 3.87583 21.8871 3.81466 21.9255 3.73496C21.964 3.65525 21.9692 3.56354 21.94 3.48L21.64 2.6L21.39 1.99C21.3124 1.76257 21.1555 1.5707 20.9479 1.4495C20.7404 1.3283 20.4962 1.28588 20.26 1.33C19.9416 1.40765 19.6377 1.53595 19.36 1.71L18.76 2.02C18.4 2.22 18.27 0.71 17.94 0.4C17.8675 0.332385 17.7787 0.284833 17.6822 0.262036C17.5858 0.239238 17.4851 0.241983 17.39 0.27C16.6828 0.582228 16.0122 0.97123 15.39 1.43C15.23 1.51 15.05 1.7 14.89 1.61C14.73 1.52 14.28 0.6 14 0.37C13.8184 0.156272 13.5595 0.0232258 13.28 0C13.2019 0.0108653 13.127 0.0378036 13.0598 0.0791131C12.9927 0.120422 12.9349 0.175205 12.89 0.24C12.6408 0.669813 12.4171 1.11391 12.22 1.57C12.1935 1.60376 12.1752 1.64315 12.1664 1.68512C12.1576 1.72709 12.1585 1.77053 12.1691 1.81208C12.1798 1.85363 12.1998 1.89218 12.2277 1.92477C12.2556 1.95735 12.2906 1.98309 12.33 2Z" fill="black"/>
<path d="M8.39 22.38C8.32 22.44 7.81 22.94 7.48 23.19C7.4156 23.0579 7.36208 22.9208 7.32 22.78C7.22 22.45 7.15 22.09 7.11 21.93C7.07074 21.7417 7.01382 21.5576 6.94 21.38C6.87938 21.2828 6.78779 21.2088 6.68 21.17C6.30651 21.005 5.89475 20.9461 5.49 21C4.93 21.08 4.38 21.38 3.82 21.46C3.78287 21.0569 3.72278 20.6562 3.64 20.26C3.59857 20.0889 3.49975 19.9371 3.36 19.83C2.94001 19.6129 2.4515 19.5698 2 19.71C1.71318 19.8186 1.41439 19.8925 1.11 19.93C0.999998 19.93 0.939998 19.84 0.899998 19.66L0.769998 19.1L0.679998 18.2C0.67745 18.1566 0.666365 18.1142 0.647381 18.0751C0.628396 18.036 0.601885 18.0011 0.569368 17.9723C0.53685 17.9435 0.498967 17.9214 0.45789 17.9073C0.416813 17.8932 0.373351 17.8873 0.329998 17.89C0.287086 17.8912 0.244865 17.9011 0.20585 17.919C0.166834 17.9369 0.131822 17.9625 0.102898 17.9942C0.073973 18.026 0.0517274 18.0632 0.0374854 18.1037C0.0232434 18.1442 0.0172961 18.1871 0.0199977 18.23V19.16L0.0899977 19.82C0.219998 20.52 0.579998 20.72 0.979998 20.82C1.31652 20.8395 1.65401 20.8058 1.98 20.72C2.23 20.67 2.55 20.59 2.63 20.59C2.71 20.59 2.73 21.4 2.77 21.88C2.81217 22.0539 2.876 22.2219 2.96 22.38C3.01018 22.4631 3.08042 22.5323 3.16428 22.5812C3.24815 22.6301 3.34295 22.6572 3.44 22.66C4.20027 22.5643 4.94796 22.3866 5.67 22.13C5.85 22.13 6.08 21.96 6.2 22.13C6.32 22.3 6.49 23.13 6.72 23.51C6.7747 23.6405 6.85647 23.7578 6.9599 23.8544C7.06333 23.9509 7.18606 24.0244 7.32 24.07C7.39765 24.0833 7.47728 24.0794 7.55329 24.0587C7.6293 24.038 7.69985 24.0009 7.76 23.95C8.11356 23.6128 8.44744 23.2555 8.76 22.88C8.79466 22.8565 8.82384 22.8259 8.84554 22.7901C8.86723 22.7543 8.88093 22.7143 8.88568 22.6727C8.89044 22.6311 8.88615 22.589 8.8731 22.5493C8.86004 22.5095 8.83854 22.4731 8.81007 22.4424C8.7816 22.4118 8.74683 22.3876 8.70816 22.3717C8.66948 22.3557 8.6278 22.3483 8.58599 22.35C8.54419 22.3516 8.50323 22.3623 8.46595 22.3813C8.42867 22.4003 8.39593 22.4272 8.37 22.46L8.39 22.38Z" fill="black"/>
</g>
<defs>
<clipPath id="clip0_1047_5950">
<rect width="24" height="24" fill="white"/>
</clipPath>
</defs>
</svg>
