<svg width="24" height="24" viewBox="0 0 24 24" fill="none" xmlns="http://www.w3.org/2000/svg">
<g clip-path="url(#clip0_1047_5967)">
<path fill-rule="evenodd" clip-rule="evenodd" d="M2.4 6.55C2.52763 6.80546 2.67125 7.05262 2.83 7.29C3.05285 7.63535 3.29316 7.96912 3.55 8.29L5.13 10.29C5.27512 10.492 5.43559 10.6826 5.61 10.86C5.72194 10.9467 5.85847 10.9957 6 11C6.21412 11.0058 6.42444 10.9427 6.6 10.82C6.9212 10.5663 7.21003 10.2741 7.46 9.95C7.74979 9.60527 8.02021 9.24472 8.27 8.87C8.64 8.33 8.99 7.77 9.36 7.23C9.57828 6.95743 9.77235 6.66632 9.94 6.36C10.024 6.14708 10.0449 5.91445 10 5.69C9.93736 5.33573 9.80844 4.99646 9.62 4.69C9.36436 4.27496 9.07683 3.88044 8.76 3.51C8.29 2.92 7.76 2.31 7.31 1.67C7.00696 1.25264 6.73298 0.814943 6.49 0.359996C6.44954 0.283753 6.38082 0.226398 6.29856 0.200227C6.21631 0.174056 6.12708 0.181153 6.05 0.219996C5.97731 0.263862 5.92366 0.333339 5.8996 0.414764C5.87554 0.496188 5.88282 0.583667 5.92 0.659996C6.16648 1.13866 6.44026 1.60276 6.74 2.05C7.19 2.71 7.68 3.35 8.13 3.98C8.40065 4.33344 8.64785 4.70423 8.87 5.09C8.98825 5.31112 9.06613 5.55154 9.1 5.8C9.1 5.91 9.02 6.01 8.94 6.12C8.86 6.23 8.64 6.49 8.53 6.64C8.07 7.25 7.64 7.89 7.19 8.5C7.00691 8.75718 6.80995 9.00422 6.6 9.24C6.53 9.33 6.2 9.51 6.03 9.68L6 9.54L4.36 7.64C4.11 7.35 3.86 7.05 3.63 6.74C3.48512 6.53756 3.35158 6.32723 3.23 6.11C3.23 6.05 3 5.67 3.05 5.77C3.10695 5.57903 3.18405 5.39466 3.28 5.22C3.46 4.87 3.69 4.53 3.86 4.22L5.68 0.759996C5.71621 0.693496 5.72497 0.615472 5.70442 0.542597C5.68386 0.469721 5.63562 0.407775 5.57 0.369996C5.50184 0.337126 5.42378 0.331226 5.35146 0.35348C5.27913 0.375733 5.21789 0.424496 5.18 0.489996L3.18 3.82C3 4.18 2.66 4.58 2.43 5C2.31745 5.19609 2.2269 5.40402 2.16 5.62C2.12006 5.76734 2.12006 5.92266 2.16 6.07C2.22862 6.23544 2.30882 6.39584 2.4 6.55Z" fill="black"/>
<path fill-rule="evenodd" clip-rule="evenodd" d="M22.19 5.18001C22.0571 4.81612 21.8458 4.48594 21.571 4.21288C21.2962 3.93982 20.9647 3.73058 20.6 3.60001C20.2028 3.4714 19.7792 3.44729 19.37 3.53001C19.4683 3.39207 19.5458 3.24046 19.6 3.08001C19.6648 2.90644 19.7052 2.7247 19.72 2.54001C19.7399 2.36056 19.7399 2.17946 19.72 2.00001C19.6525 1.55232 19.4526 1.13506 19.1461 0.80183C18.8396 0.468604 18.4405 0.234641 18 0.130008C17.5338 0.00408524 17.0468 -0.0253888 16.5688 0.043389C16.0908 0.112167 15.6318 0.27775 15.22 0.530008C14.7753 0.780394 14.4321 1.17821 14.2495 1.65474C14.0669 2.13127 14.0565 2.6566 14.22 3.14001C14.297 3.35884 14.4011 3.56714 14.53 3.76001C14.0324 3.77234 13.5477 3.92046 13.1282 4.18837C12.7087 4.45627 12.3705 4.83376 12.15 5.28001C11.9934 5.58842 11.9069 5.92758 11.8965 6.2733C11.8861 6.61902 11.9522 6.96277 12.09 7.28001C12.2401 7.58106 12.4495 7.84871 12.7055 8.06693C12.9615 8.28515 13.259 8.44946 13.58 8.55001C13.7639 8.60723 13.9508 8.65397 14.14 8.69001C14.3318 8.7211 14.5257 8.73781 14.72 8.74001C14.9032 8.75028 15.0868 8.75028 15.27 8.74001C15.27 8.84001 15.21 8.96001 15.16 9.06001C15.0335 9.32769 14.8757 9.57944 14.69 9.81001C14.56 9.97001 14.15 10.32 14.1 10.37C14.012 10.4585 13.9588 10.5756 13.95 10.7C13.9469 10.7806 13.9645 10.8607 14.0013 10.9325C14.0381 11.0043 14.0928 11.0654 14.16 11.11C14.2971 11.2111 14.4538 11.2826 14.62 11.32C14.88 11.39 15.19 11.41 15.37 11.45C15.85 11.53 16.37 11.62 16.88 11.68C17.3977 11.7394 17.9192 11.7594 18.44 11.74L19.44 11.63L19.76 11.58C19.8816 11.5523 19.9899 11.4834 20.0664 11.385C20.143 11.2866 20.1831 11.1647 20.18 11.04C20.1395 10.8326 20.0651 10.6333 19.96 10.45C19.746 10.1323 19.5122 9.82836 19.26 9.54001C19.1085 9.35276 18.9746 9.1519 18.86 8.94001C18.86 8.94001 18.86 8.94001 18.86 8.88001H18.95C19.2215 8.92424 19.4985 8.92424 19.77 8.88001C20.5568 8.73342 21.2658 8.31159 21.77 7.69001C22.0458 7.34092 22.229 6.92777 22.3024 6.48896C22.3758 6.05014 22.3372 5.59988 22.19 5.18001ZM20.89 7.00001C20.5521 7.47567 20.0672 7.82704 19.51 8.00001C19.3254 8.0574 19.1334 8.08772 18.94 8.09001C18.6244 8.09262 18.3094 8.06246 18 8.00001C17.9592 7.98971 17.9168 7.9878 17.8753 7.99441C17.8338 8.00102 17.794 8.016 17.7585 8.03845C17.7229 8.0609 17.6923 8.09035 17.6685 8.125C17.6447 8.15965 17.6282 8.19878 17.62 8.24001C17.6096 8.28139 17.6076 8.32444 17.6141 8.36661C17.6206 8.40878 17.6355 8.44922 17.6579 8.48556C17.6802 8.52189 17.7096 8.55339 17.7443 8.5782C17.7791 8.60301 17.8184 8.62062 17.86 8.63001L18.06 8.68001C18.1028 8.86625 18.1562 9.04988 18.22 9.23001C18.3334 9.49336 18.4671 9.74747 18.62 9.99001C18.76 10.2 18.93 10.42 19.07 10.65H18.45C18.0726 10.6492 17.6954 10.6292 17.32 10.59C16.72 10.54 16.12 10.47 15.57 10.4H15.29L15.39 10.25C15.5651 9.95078 15.7124 9.63613 15.83 9.31001C15.9048 9.05429 15.9616 8.79366 16 8.53001H16.09C16.1301 8.51556 16.1669 8.49337 16.1983 8.4647C16.2298 8.43602 16.2553 8.40143 16.2734 8.36289C16.2916 8.32436 16.3019 8.28263 16.3039 8.2401C16.3059 8.19757 16.2994 8.15506 16.285 8.11501C16.2706 8.07495 16.2484 8.03814 16.2197 8.00666C16.191 7.97519 16.1564 7.94967 16.1179 7.93156C16.0793 7.91345 16.0376 7.90311 15.9951 7.90113C15.9526 7.89915 15.9101 7.90556 15.87 7.92001C15.701 7.96847 15.5258 7.99205 15.35 7.99001C15.1636 8.00443 14.9764 8.00443 14.79 7.99001C14.6479 7.96617 14.5076 7.93276 14.37 7.89001C14.2289 7.84883 14.0917 7.79529 13.96 7.73001C13.5802 7.57175 13.2783 7.26983 13.12 6.89001C12.97 6.52482 12.97 6.1152 13.12 5.75001C13.2751 5.32397 13.5704 4.96328 13.9574 4.72708C14.3444 4.49087 14.8002 4.39318 15.25 4.45001C15.2868 4.45719 15.3247 4.4569 15.3614 4.44915C15.3981 4.4414 15.4329 4.42635 15.4637 4.4049C15.4945 4.38344 15.5207 4.35602 15.5406 4.32426C15.5606 4.2925 15.574 4.25705 15.58 4.22001C15.5894 4.14891 15.5721 4.07685 15.5315 4.01775C15.4908 3.95865 15.4297 3.9167 15.36 3.90001C15.2619 3.77446 15.1749 3.64062 15.1 3.50001C15.0197 3.34233 14.9625 3.17395 14.93 3.00001C14.8767 2.68511 14.9343 2.36149 15.093 2.08431C15.2516 1.80713 15.5015 1.59356 15.8 1.48001C16.0616 1.34477 16.3411 1.24714 16.63 1.19001C17.0058 1.10978 17.3942 1.10978 17.77 1.19001C18.0283 1.23769 18.2681 1.35658 18.4625 1.53326C18.6569 1.70995 18.798 1.93741 18.87 2.19001C18.9045 2.30373 18.9246 2.4213 18.93 2.54001C18.9448 2.65286 18.9448 2.76716 18.93 2.88001C18.8962 3.02506 18.8387 3.16357 18.76 3.29001C18.6721 3.42851 18.568 3.55607 18.45 3.67001C18.28 3.84001 18.45 4.33001 18.45 4.34001C18.491 4.40225 18.5544 4.44632 18.627 4.46308C18.6996 4.47983 18.7759 4.46799 18.84 4.43001C19.0702 4.30485 19.328 4.23928 19.59 4.23928C19.852 4.23928 20.1098 4.30485 20.34 4.43001C20.563 4.54183 20.759 4.70082 20.9144 4.89594C21.0698 5.09107 21.1809 5.31766 21.24 5.56001C21.2941 5.81088 21.2908 6.07076 21.2302 6.32015C21.1696 6.56954 21.0533 6.80197 20.89 7.00001Z" fill="black"/>
<path fill-rule="evenodd" clip-rule="evenodd" d="M10.74 16.28C10.4813 15.973 10.1779 15.7067 9.84 15.49C9.40841 15.2318 8.99721 14.941 8.61 14.62C8.27944 14.2957 7.98444 13.937 7.73 13.55C6.76 12 7.27 12.14 7 12C6.96816 11.9809 6.93273 11.9686 6.89591 11.9638C6.8591 11.959 6.82169 11.9619 6.78603 11.9722C6.75036 11.9825 6.71721 12.0001 6.68865 12.0238C6.66008 12.0475 6.63671 12.0769 6.62 12.11C6.34 12.55 6.06 12.99 5.75 13.39C5.45993 13.7818 5.12423 14.1376 4.75 14.45C4.08393 14.8978 3.44296 15.3819 2.83 15.9C2.39495 16.3305 2.07514 16.8635 1.9 17.45C1.77342 17.8583 1.73207 18.2882 1.77851 18.7131C1.82496 19.1379 1.95821 19.5488 2.17 19.92C2.38827 20.294 2.70066 20.6044 3.07611 20.8202C3.45155 21.036 3.87696 21.1497 4.31 21.15C4.55007 21.1188 4.78326 21.0478 5 20.94C5.12179 20.8866 5.23887 20.8231 5.35 20.75C5.35 20.85 5.27 20.96 5.22 21.06C5.03592 21.4323 4.81835 21.7871 4.57 22.12C4.44 22.31 4.14 22.54 3.97 22.76C3.89318 22.86 3.83244 22.9713 3.79 23.09C3.74984 23.1929 3.74984 23.3071 3.79 23.41C3.89 23.78 4.2 23.83 4.69 23.94C4.85739 23.978 5.02835 23.9982 5.2 24H6.05C6.68 24 7.31 23.89 7.94 23.86C7.94 23.86 8.52 23.81 8.74 23.77C8.85845 23.7569 8.96999 23.7077 9.05945 23.6289C9.14892 23.5502 9.21196 23.4458 9.24 23.33C9.25014 23.1326 9.2195 22.9351 9.15 22.75C9.01176 22.4383 8.84435 22.1403 8.65 21.86C8.4925 21.6064 8.35219 21.3424 8.23 21.07C8.20237 21.0118 8.17897 20.9516 8.16 20.89L8.3 20.99C8.57232 21.111 8.867 21.1736 9.165 21.1736C9.463 21.1736 9.75768 21.111 10.03 20.99C10.3056 20.8646 10.5531 20.6848 10.7576 20.4614C10.9621 20.238 11.1193 19.9756 11.22 19.69C11.3211 19.41 11.3817 19.1171 11.4 18.82C11.4188 18.4083 11.392 17.9958 11.32 17.59C11.2472 17.1094 11.0469 16.657 10.74 16.28ZM10.28 19.28C10.2359 19.4594 10.1562 19.6281 10.0457 19.7762C9.93515 19.9242 9.79603 20.0485 9.63656 20.1418C9.47708 20.235 9.30051 20.2953 9.1173 20.3191C8.93409 20.3428 8.74798 20.3295 8.57 20.28C8.45586 20.2302 8.34837 20.1664 8.25 20.09C8.07118 19.9396 7.90403 19.7758 7.75 19.6C7.6901 19.5408 7.60925 19.5076 7.525 19.5076C7.44075 19.5076 7.35991 19.5408 7.3 19.6C7.26969 20.1907 7.3546 20.7817 7.55 21.34C7.6551 21.6584 7.78207 21.9691 7.93 22.27C8.01 22.42 8.11 22.6 8.19 22.78L7.91 22.84L5.22 22.94H5.13L5.36 22.61C5.57926 22.2087 5.76651 21.7908 5.92 21.36C6.07639 20.9204 6.18044 20.464 6.23 20C6.24205 19.9247 6.22498 19.8477 6.18225 19.7845C6.13953 19.7214 6.07437 19.6768 6 19.66C5.9574 19.6572 5.9147 19.6637 5.87494 19.6793C5.83518 19.6949 5.79935 19.719 5.77 19.75C5.70133 19.7451 5.63337 19.7665 5.58 19.81C5.37895 19.97 5.16098 20.1075 4.93 20.22C4.72259 20.3111 4.49573 20.3489 4.27 20.33C3.98818 20.3076 3.71714 20.2118 3.48382 20.0521C3.2505 19.8925 3.06301 19.6746 2.94 19.42C2.81606 19.1591 2.74598 18.8758 2.73396 18.5871C2.72193 18.2985 2.7682 18.0104 2.87 17.74C3.00417 17.3194 3.22953 16.9335 3.53 16.61C4.05 16.05 4.7 15.61 5.27 15.09C5.59152 14.7883 5.87983 14.4531 6.13 14.09C6.35205 13.7685 6.55571 13.4346 6.74 13.09C6.89093 13.4863 7.06455 13.8736 7.26 14.25C7.4795 14.5963 7.72699 14.9241 8 15.23C8.38225 15.634 8.80066 16.0022 9.25 16.33C9.49147 16.5279 9.70955 16.7527 9.9 17C10.0773 17.2283 10.1973 17.4958 10.25 17.78C10.3048 18.0537 10.3382 18.3312 10.35 18.61C10.3632 18.8522 10.3396 19.0949 10.28 19.33V19.28Z" fill="black"/>
<path fill-rule="evenodd" clip-rule="evenodd" d="M19 13.58C18.5834 13.5753 18.1778 13.7129 17.85 13.97C17.567 14.1837 17.3263 14.4482 17.14 14.75C16.9621 14.477 16.7268 14.246 16.4504 14.0733C16.1741 13.9006 15.8634 13.7903 15.54 13.75C15.1179 13.7343 14.6979 13.8164 14.3128 13.9899C13.9277 14.1633 13.5879 14.4235 13.32 14.75C12.9389 15.2025 12.6745 15.7416 12.55 16.32C12.442 16.8737 12.4285 17.4418 12.51 18C12.6094 18.7054 12.9077 19.3679 13.37 19.91C14.27 20.99 15.72 21.57 16.57 22.75C16.72 22.99 17.4 22.99 17.48 22.75C17.7464 22.3879 18.0478 22.0529 18.38 21.75C18.7334 21.4518 19.104 21.1746 19.49 20.92C20.1041 20.4705 20.6183 19.8984 21 19.24C21.3881 18.5964 21.6463 17.8829 21.76 17.14C21.8745 16.298 21.7018 15.4419 21.27 14.71C21.0209 14.3422 20.6811 14.0449 20.2834 13.8469C19.8857 13.6489 19.4436 13.557 19 13.58ZM20.63 17C20.5531 17.6048 20.3595 18.189 20.06 18.72C19.8025 19.2783 19.443 19.7836 19 20.21C18.6086 20.5187 18.2378 20.8528 17.89 21.21C17.5525 21.5269 17.2537 21.8828 17 22.27C16.23 21.1 14.92 20.39 14.12 19.27C13.7992 18.8565 13.6016 18.3608 13.55 17.84C13.485 17.3991 13.485 16.951 13.55 16.51C13.6148 16.0905 13.7794 15.6926 14.03 15.35C14.1846 15.1109 14.3922 14.9108 14.6367 14.7651C14.8813 14.6194 15.1562 14.5321 15.44 14.51C15.7188 14.5251 15.9894 14.61 16.227 14.7567C16.4646 14.9035 16.6616 15.1074 16.8 15.35C16.7949 15.401 16.8056 15.4523 16.8306 15.497C16.8557 15.5418 16.8939 15.5777 16.94 15.6C16.9918 15.6261 17.051 15.6334 17.1076 15.6206C17.1641 15.6078 17.2145 15.5758 17.25 15.53C17.25 15.53 17.3 15.53 17.32 15.47C17.4879 15.1471 17.7232 14.864 18.01 14.64C18.2518 14.4348 18.5635 14.3309 18.88 14.35C19.1686 14.3724 19.4478 14.4629 19.6947 14.6141C19.9415 14.7654 20.149 14.973 20.3 15.22C20.6041 15.7604 20.7201 16.3865 20.63 17Z" fill="black"/>
</g>
<defs>
<clipPath id="clip0_1047_5967">
<rect width="24" height="24" fill="white"/>
</clipPath>
</defs>
</svg>
