<svg width="24" height="24" viewBox="0 0 24 24" fill="none" xmlns="http://www.w3.org/2000/svg">
<g clip-path="url(#clip0_1049_7520)">
<path fill-rule="evenodd" clip-rule="evenodd" d="M14.05 16.47L10.48 19.12C10.27 19.28 9.95998 19.6 9.62998 19.83C9.52073 19.935 9.38037 20.0016 9.22998 20.02C8.82436 19.9626 8.45044 19.7686 8.16998 19.47C7.64402 18.9447 7.15925 18.3797 6.71998 17.78C5.92998 16.78 5.15998 15.78 4.41998 14.78C3.67998 13.78 2.99998 12.73 2.34998 11.66C0.999985 9.48 1.07998 10.25 1.59998 9.69C1.91251 9.33649 2.24647 9.00252 2.59998 8.69C2.95234 8.37817 3.323 8.08765 3.70998 7.82L5.70998 6.23L6.36998 5.72C6.52998 5.72 6.69999 5.9 6.87998 6.06C7.12816 6.29219 7.36193 6.53932 7.57998 6.8L8.57998 8L11.86 12.39C11.917 12.4669 12.0022 12.518 12.097 12.5321C12.1917 12.5462 12.2881 12.522 12.365 12.465C12.4419 12.408 12.493 12.3227 12.5071 12.228C12.5211 12.1333 12.497 12.0369 12.44 11.96L9.27998 7.47L8.32998 6.21C8.00313 5.78101 7.62725 5.3917 7.20998 5.05C6.94285 4.83827 6.61082 4.72524 6.26998 4.73C6.08833 4.76192 5.91491 4.82992 5.75998 4.93C5.5284 5.07712 5.30782 5.24089 5.09998 5.42L3.09998 6.9C2.66998 7.19 2.25998 7.49 1.85998 7.81C1.46052 8.14181 1.07993 8.4957 0.719985 8.87C0.478697 9.10575 0.264072 9.36732 0.0799848 9.65C0.0414405 9.73832 0.0215454 9.83364 0.0215454 9.93C0.0215454 10.0264 0.0414405 10.1217 0.0799848 10.21C0.175535 10.4646 0.296126 10.7092 0.439985 10.94C0.719985 11.41 1.08998 11.87 1.34998 12.29C1.99998 13.38 2.68998 14.46 3.46998 15.5C4.24998 16.54 5.06998 17.5 5.91998 18.5C6.50166 19.2466 7.17343 19.9183 7.91998 20.5C8.30459 20.7809 8.76409 20.941 9.23998 20.96C9.51455 20.9477 9.77919 20.8537 9.99998 20.69C10.3508 20.4171 10.6847 20.1233 11 19.81C11.68 19.25 12.36 18.67 13 18.12C13.4533 17.7533 13.9133 17.3933 14.38 17.04C14.4354 16.9874 14.4702 16.9168 14.478 16.8408C14.4859 16.7648 14.4663 16.6885 14.4228 16.6257C14.3793 16.5629 14.3148 16.5178 14.241 16.4984C14.1671 16.479 14.0887 16.4867 14.02 16.52L14.05 16.47Z" fill="black"/>
<path fill-rule="evenodd" clip-rule="evenodd" d="M8.94 11.16C8.54779 10.7759 8.03488 10.5392 7.48815 10.49C6.94141 10.4408 6.39448 10.5821 5.94 10.89C5.68019 11.1034 5.4671 11.3681 5.31398 11.6674C5.16087 11.9668 5.07101 12.2944 5.05 12.63C5.02148 12.9687 5.07368 13.3094 5.20232 13.624C5.33095 13.9386 5.53235 14.2183 5.79 14.44C6.18684 14.7483 6.67761 14.9107 7.18 14.9C7.64844 14.908 8.10957 14.7832 8.51 14.54C8.58279 14.4962 8.63589 14.426 8.65824 14.3441C8.68059 14.2621 8.67048 14.1747 8.63 14.1C8.67952 14.1034 8.72921 14.0963 8.77576 14.0791C8.82231 14.0618 8.86466 14.0349 8.9 14C9.11353 13.8314 9.28678 13.6173 9.40713 13.3733C9.52749 13.1293 9.59193 12.8616 9.59577 12.5895C9.5996 12.3175 9.54272 12.048 9.42928 11.8007C9.31584 11.5534 9.14869 11.3345 8.94 11.16ZM8.36 13.47C8.30167 13.5344 8.26937 13.6181 8.26937 13.705C8.26937 13.7919 8.30167 13.8756 8.36 13.94H8.24C7.92547 14.0766 7.5779 14.1183 7.24 14.06C6.94567 14.0239 6.67326 13.8859 6.47 13.67C6.35617 13.5329 6.27607 13.371 6.23613 13.1973C6.19618 13.0237 6.19751 12.8431 6.24 12.67C6.27146 12.3247 6.43652 12.0054 6.7 11.78C6.92779 11.6136 7.2055 11.5299 7.4873 11.5426C7.76909 11.5553 8.03813 11.6638 8.25 11.85C8.38476 11.9337 8.49769 12.0482 8.57945 12.1842C8.66121 12.3201 8.70945 12.4735 8.7202 12.6318C8.73094 12.7901 8.70388 12.9486 8.64125 13.0944C8.57862 13.2401 8.48222 13.3689 8.36 13.47Z" fill="black"/>
<path fill-rule="evenodd" clip-rule="evenodd" d="M17.38 6.39C17.2839 5.86631 17.157 5.34875 17 4.84C16.8611 4.41316 16.6802 4.00114 16.46 3.61C16.2768 3.28004 15.993 3.01726 15.65 2.86C15.4132 2.77478 15.1595 2.74735 14.91 2.78C14.4791 2.8586 14.0546 2.9689 13.64 3.11C13.5564 3.12989 13.4842 3.18215 13.4392 3.25529C13.3942 3.32843 13.3801 3.41645 13.4 3.5C13.4199 3.58354 13.4721 3.65576 13.5453 3.70077C13.6184 3.74578 13.7064 3.75989 13.79 3.74C14.12 3.67413 14.4541 3.6307 14.79 3.61C14.9454 3.59868 15.1009 3.62979 15.24 3.7C15.38 3.78 15.44 3.96 15.52 4.13C15.6636 4.47455 15.7709 4.83316 15.84 5.2C16.03 5.76 16.16 6.33 16.3 6.9C16.44 7.47 16.63 8.07 16.79 8.65C16.95 9.23 17.04 9.47 17.04 9.48C17.12 9.9 17.66 9.56 17.7 8.95C17.5 7.92 17.58 7.42 17.38 6.39Z" fill="black"/>
<path fill-rule="evenodd" clip-rule="evenodd" d="M24 16.51C23.9309 15.7828 23.7592 15.0691 23.49 14.39C23.2232 13.7027 22.8448 13.0641 22.37 12.5C21.2265 11.1911 19.6959 10.2804 18 9.9C17.64 9.73 17.37 9.99 17.38 10.42C17.2255 10.9799 16.9861 11.5127 16.67 12C16.2875 12.3073 15.8287 12.5049 15.3426 12.5718C14.8565 12.6388 14.3614 12.5725 13.91 12.38C13.6308 12.3216 13.3402 12.3531 13.08 12.47C12.7569 12.5709 12.4759 12.7754 12.2807 13.052C12.0855 13.3285 11.9868 13.6617 12 14C11.9984 14.3122 12.07 14.6204 12.2089 14.9C12.3478 15.1795 12.5503 15.4227 12.8 15.61C12.93 15.68 13.2 15.81 13.54 15.95C14.31 16.27 15.54 16.69 16.01 16.95C15.93 17.15 16.22 17.68 16.27 17.83C16.5058 18.4971 16.8692 19.1118 17.34 19.64C17.5182 19.8447 17.7401 20.0067 17.9894 20.114C18.2387 20.2213 18.5089 20.2712 18.78 20.26C18.8755 20.26 18.9671 20.2221 19.0346 20.1546C19.1021 20.087 19.14 19.9955 19.14 19.9C19.14 19.8045 19.1021 19.713 19.0346 19.6454C18.9671 19.5779 18.8755 19.54 18.78 19.54C18.6187 19.5299 18.4615 19.4843 18.3198 19.4065C18.1781 19.3287 18.0552 19.2207 17.96 19.09C17.604 18.6266 17.3455 18.096 17.2 17.53C17.15 17.35 17.13 16.78 17.05 16.53C17.014 16.3913 16.9287 16.2704 16.81 16.19C16.5737 16.0384 16.3263 15.9047 16.07 15.79C15.2 15.39 13.78 14.79 13.45 14.59C13.3782 14.5142 13.3225 14.4246 13.2864 14.3266C13.2503 14.2286 13.2345 14.1243 13.24 14.02C13.2311 13.9324 13.2506 13.8443 13.2956 13.7687C13.3406 13.693 13.4088 13.6339 13.49 13.6C13.6058 13.5794 13.7242 13.5794 13.84 13.6C14.3285 13.648 14.8193 13.668 15.31 13.66C15.7507 13.6212 16.1774 13.4855 16.5594 13.2625C16.9415 13.0394 17.2695 12.7347 17.52 12.37C17.8352 11.8554 18.0014 11.2634 18 10.66C19.3725 11.1633 20.5705 12.0522 21.45 13.22C21.8192 13.7185 22.1218 14.2631 22.35 14.84C22.5842 15.4226 22.7519 16.0298 22.85 16.65C23.0796 18.1552 23.0117 19.6909 22.65 21.17C22.6251 21.2628 22.6373 21.3616 22.6839 21.4456C22.7306 21.5296 22.8081 21.5921 22.9 21.62C22.9915 21.6446 23.089 21.6322 23.1713 21.5854C23.2537 21.5386 23.3143 21.4612 23.34 21.37C23.8965 19.8138 24.1213 18.1583 24 16.51Z" fill="black"/>
<path fill-rule="evenodd" clip-rule="evenodd" d="M14.88 10.05C14.59 9.05 14.33 8.05 14.05 7.05C13.87 6.38 13.66 5.72 13.47 5.05C13.3136 4.35188 13.0612 3.6788 12.72 3.05C12.6071 2.8562 12.4508 2.69121 12.2634 2.56801C12.076 2.44481 11.8626 2.36677 11.64 2.34C11.4803 2.33043 11.3212 2.36503 11.18 2.44C10.9246 2.5934 10.6776 2.7603 10.44 2.94L7.99995 4.49C7.95505 4.50252 7.91341 4.5247 7.87797 4.55498C7.84253 4.58527 7.81414 4.62294 7.79477 4.66535C7.77541 4.70776 7.76555 4.75388 7.76588 4.8005C7.76621 4.84712 7.77672 4.89311 7.79667 4.93524C7.81663 4.97737 7.84555 5.01463 7.88142 5.04442C7.91728 5.07421 7.95922 5.0958 8.0043 5.10768C8.04938 5.11956 8.09651 5.12145 8.1424 5.11322C8.18829 5.10498 8.23182 5.08682 8.26995 5.06L10.91 3.8C11.36 3.57 11.49 2.91 11.91 4.1C12.09 4.58 12.2 5.1 12.28 5.39C12.67 6.58 13.05 7.76 13.47 8.94C13.89 10.12 14.16 10.55 14.61 11.61C14.81 12.19 15.33 12.33 15.33 11.9C15.12 11.2 15.09 10.75 14.88 10.05Z" fill="black"/>
</g>
<defs>
<clipPath id="clip0_1049_7520">
<rect width="24" height="24" fill="white"/>
</clipPath>
</defs>
</svg>
