<svg width="24" height="24" viewBox="0 0 24 24" fill="none" xmlns="http://www.w3.org/2000/svg">
<g clip-path="url(#clip0_1049_7555)">
<path fill-rule="evenodd" clip-rule="evenodd" d="M1.13 10.92C1.54 10.75 1.03 10.67 5.76 9.70001C8.14 9.21001 12.06 8.33001 14.6 7.89001C14.6875 7.87675 14.7662 7.82926 14.8187 7.758C14.8712 7.68674 14.8933 7.59753 14.88 7.51001C14.8667 7.42249 14.8193 7.34382 14.748 7.29131C14.6767 7.2388 14.5875 7.21675 14.5 7.23001C12.5 7.48001 2.7 8.93001 0.69 9.81001C0.14 10 0 10.3 0 10.68C0.285171 14.0148 0.799722 17.326 1.54 20.59C1.56328 20.6631 1.61366 20.7245 1.68079 20.7616C1.74793 20.7986 1.82671 20.8086 1.90096 20.7894C1.97521 20.7702 2.03929 20.7233 2.08003 20.6583C2.12077 20.5933 2.13507 20.5152 2.12 20.44C1.62599 17.2859 1.29554 14.1083 1.13 10.92Z" fill="black"/>
<path fill-rule="evenodd" clip-rule="evenodd" d="M21.53 13C21.5048 12.9344 21.4573 12.8798 21.396 12.8456C21.3346 12.8114 21.2631 12.7998 21.1941 12.8129C21.1251 12.826 21.0628 12.8629 21.0182 12.9172C20.9736 12.9715 20.9495 13.0397 20.95 13.11C21.18 14.56 21.37 15.87 21.44 16.5C8.22 18.84 3.54 20.22 3 20.12C2.91746 20.1131 2.83523 20.1365 2.76875 20.1859C2.70226 20.2353 2.65609 20.3072 2.6389 20.3883C2.62171 20.4693 2.63469 20.5538 2.6754 20.6259C2.71611 20.698 2.78175 20.7528 2.86 20.78C3.86 21.01 21.78 17.63 22.18 17.04C22.39 16.74 22 15.32 21.53 13Z" fill="black"/>
<path fill-rule="evenodd" clip-rule="evenodd" d="M22.56 3.47C21.94 3.23 20.84 2.98 20.38 3.47C19.23 2.82 18.23 3.47 17.53 4.63C17.4 4.84 16.97 5.63 16.69 6.17C16.41 6.71 16.31 6.83 16.33 7.01C16.3239 7.06369 16.3335 7.11798 16.3576 7.16633C16.3817 7.21469 16.4193 7.25504 16.4658 7.28253C16.5123 7.31001 16.5658 7.32345 16.6197 7.32123C16.6737 7.31901 16.7259 7.30122 16.77 7.27C16.85 7.27 17.98 5.87 18.04 5.79C18.59 5.1 19.43 3.69 20.04 4.08C19.4028 5.06282 18.8539 6.10022 18.4 7.18C18.4 7.3 18.06 7.18 20.17 8.65L20.47 8.85C19.69 10.09 17.19 13.67 16.94 13.98C16.6698 14.2334 16.3496 14.4275 16 14.55C15.7574 14.0869 15.6079 13.5807 15.56 13.06L18.15 8.69C18.1898 8.62105 18.2005 8.53911 18.1799 8.46222C18.1593 8.38533 18.109 8.31979 18.04 8.28C17.9711 8.24022 17.8891 8.22946 17.8122 8.25009C17.7353 8.27072 17.6698 8.32105 17.63 8.39C17.03 9.39 14.7 12.27 14.54 12.81C14.4509 13.7145 14.6847 14.6213 15.2 15.37C15.3344 15.4883 15.4981 15.5683 15.674 15.6018C15.8499 15.6352 16.0316 15.6208 16.2 15.56C16.8155 15.3873 17.3833 15.076 17.86 14.65C18.28 14.07 21.13 9.25 21.17 9.01C21.77 8.87 22.24 8.1 23.22 6.82C23.5675 6.378 23.8318 5.87652 24 5.34C24.15 4.32 23.44 3.84 22.56 3.47ZM22.82 5.31C22.74 5.55 21.21 8.37 20.61 8.01L19.14 7.11C19.2 6.92 19.03 7.32 20.88 4.55C21.16 4.13 20.76 4.11 21.54 4.3C21.949 4.40907 22.3399 4.57753 22.7 4.8C22.7764 4.85765 22.8302 4.94019 22.8521 5.03334C22.874 5.12648 22.8627 5.22435 22.82 5.31Z" fill="black"/>
<path fill-rule="evenodd" clip-rule="evenodd" d="M12.79 16.32C12.8487 16.3118 12.9045 16.2892 12.9525 16.2543C13.0004 16.2193 13.0389 16.1731 13.0646 16.1196C13.0903 16.0662 13.1025 16.0072 13.0999 15.948C13.0974 15.8887 13.0802 15.831 13.05 15.78C12.937 15.6317 12.7939 15.509 12.63 15.42C12.2016 15.3569 11.7642 15.4304 11.38 15.63C11.11 14.4 10.57 13.45 9.38001 13.78C8.91506 13.9475 8.50319 14.236 8.1868 14.6157C7.87042 14.9953 7.66096 15.4525 7.58001 15.94C7.46001 16.52 7.27001 17.45 7.85001 17.35C7.89114 17.3467 7.93109 17.3346 7.96718 17.3145C8.00327 17.2945 8.03467 17.267 8.05928 17.2339C8.08389 17.2008 8.10115 17.1628 8.1099 17.1224C8.11865 17.0821 8.11868 17.0403 8.11001 17C8.15418 16.7061 8.21765 16.4155 8.30001 16.13C8.41168 15.8218 8.59363 15.5438 8.83144 15.3182C9.06924 15.0925 9.35636 14.9254 9.67001 14.83C10.05 14.73 10.3 15.58 10.42 15.97C10.42 16.1 10.5 16.76 10.94 16.84C11.0162 16.8618 11.0963 16.866 11.1743 16.8521C11.2523 16.8382 11.326 16.8067 11.39 16.76C11.845 16.5786 12.313 16.4315 12.79 16.32Z" fill="black"/>
<path fill-rule="evenodd" clip-rule="evenodd" d="M6.07 11.9C7.53 11.64 7.07 11.59 9.38 11.2C9.46695 11.183 9.54382 11.1327 9.59425 11.0599C9.64468 10.987 9.66468 10.8974 9.65 10.81C9.61342 10.7216 9.55074 10.6465 9.47033 10.5947C9.38992 10.5429 9.29561 10.5168 9.2 10.52C7.88392 10.5253 6.57133 10.6559 5.28 10.91C4.34191 11.1812 3.42316 11.5153 2.53 11.91C2.49745 11.959 2.47949 12.0162 2.47822 12.0749C2.47695 12.1337 2.49242 12.1916 2.52282 12.242C2.55322 12.2923 2.5973 12.3329 2.64992 12.3591C2.70254 12.3853 2.76153 12.396 2.82 12.39C3.08 12.36 5.83 11.94 6.07 11.9Z" fill="black"/>
<path fill-rule="evenodd" clip-rule="evenodd" d="M2.99999 14.18C2.89999 14.27 2.85999 14.61 3.28999 14.68C4.19974 14.7725 5.11505 14.5691 5.89999 14.1C5.94276 14.0916 5.98345 14.0749 6.01971 14.0507C6.05598 14.0265 6.08709 13.9954 6.11126 13.9592C6.13544 13.9229 6.15219 13.8822 6.16055 13.8395C6.16892 13.7967 6.16873 13.7527 6.15999 13.71C6.07999 13.14 3.86999 13.46 2.99999 14.18Z" fill="black"/>
<path fill-rule="evenodd" clip-rule="evenodd" d="M14.61 9.2C13.6026 9.27593 12.6008 9.41285 11.61 9.61C11.4651 9.6435 11.339 9.73231 11.2586 9.85749C11.1783 9.98267 11.1501 10.1343 11.18 10.28C11.81 12.94 11.96 12.92 13.32 12.58C13.3633 12.5734 13.405 12.5584 13.4425 12.5358C13.48 12.5131 13.5127 12.4833 13.5387 12.448C13.5647 12.4127 13.5835 12.3726 13.594 12.3301C13.6045 12.2875 13.6066 12.2433 13.6 12.2C13.5934 12.1567 13.5784 12.115 13.5557 12.0775C13.5331 12.04 13.5033 12.0073 13.468 11.9813C13.4327 11.9553 13.3926 11.9365 13.3501 11.926C13.3075 11.9155 13.2633 11.9134 13.22 11.92C12.98 11.92 12.72 11.87 12.6 11.92C12.43 10.71 12.47 11 12.4 10.61C13.19 10.38 13.8 10.13 14.72 9.81C14.8009 9.79542 14.8727 9.74929 14.9196 9.68178C14.9664 9.61427 14.9846 9.5309 14.97 9.45C14.9554 9.36911 14.9093 9.29733 14.8418 9.25045C14.7743 9.20356 14.6909 9.18542 14.61 9.2Z" fill="black"/>
</g>
<defs>
<clipPath id="clip0_1049_7555">
<rect width="24" height="24" fill="white"/>
</clipPath>
</defs>
</svg>
