<svg width="24" height="24" viewBox="0 0 24 24" fill="none" xmlns="http://www.w3.org/2000/svg">
<g clip-path="url(#clip0_1049_7543)">
<path fill-rule="evenodd" clip-rule="evenodd" d="M9.67 16.17C9.65631 15.9473 9.58803 15.7314 9.47118 15.5413C9.35434 15.3512 9.19252 15.1928 9 15.08C8.41662 14.822 7.78775 14.6826 7.15 14.67C6.92466 14.6606 6.70208 14.6168 6.49 14.54C6.42413 14.5242 6.36278 14.4935 6.31075 14.4501C6.25871 14.4067 6.21739 14.352 6.19 14.29C6.01 13.78 6.35 13.49 6.79 13.35C7.36686 13.1983 7.97314 13.1983 8.55 13.35C8.58402 13.3644 8.62062 13.3716 8.65754 13.3712C8.69446 13.3709 8.73092 13.363 8.76466 13.348C8.7984 13.333 8.82871 13.3112 8.85371 13.2841C8.8787 13.2569 8.89786 13.2249 8.91 13.19C8.93714 13.1209 8.93672 13.0439 8.90881 12.9751C8.8809 12.9062 8.82763 12.8507 8.76 12.82C8.43876 12.6961 8.10249 12.6154 7.76 12.58C7.78073 12.5453 7.7975 12.5084 7.81 12.47C7.83945 12.3858 7.85957 12.2986 7.87 12.21C7.88 12.1236 7.88 12.0364 7.87 11.95C7.87 11.73 7.8 11.53 7.78 11.32C7.78722 11.278 7.7861 11.2349 7.77669 11.1934C7.76728 11.1518 7.74977 11.1124 7.72517 11.0776C7.70056 11.0428 7.66933 11.0132 7.63327 10.9904C7.59721 10.9677 7.55702 10.9522 7.515 10.945C7.47298 10.9378 7.42994 10.9389 7.38836 10.9483C7.34677 10.9577 7.30744 10.9752 7.27262 10.9998C7.20229 11.0495 7.15459 11.1251 7.14 11.21C7.0347 11.4042 6.9412 11.6046 6.86 11.81C6.832 11.8987 6.80863 11.9888 6.79 12.08C6.78001 12.1697 6.78001 12.2603 6.79 12.35V12.57C6.54132 12.5951 6.29637 12.6488 6.06 12.73C5.70417 12.855 5.4116 13.1147 5.24518 13.4532C5.07875 13.7916 5.05176 14.1819 5.17 14.54C5.22298 14.7487 5.32372 14.9423 5.46429 15.1054C5.60486 15.2685 5.7814 15.3968 5.98 15.48C6.55545 15.6725 7.15413 15.7868 7.76 15.82C8.12 15.87 8.49 15.89 8.54 16.27C8.59 16.65 8.19 16.95 7.73 17.1C7.47763 17.1821 7.21518 17.2292 6.95 17.24C6.95 17.24 6.88 17.24 6.84 17.24C6.58997 17.2533 6.33954 17.2229 6.1 17.15C5.94288 17.0995 5.79927 17.0141 5.68 16.9C5.53801 16.7747 5.41055 16.6338 5.3 16.48C5.27615 16.4445 5.24521 16.4143 5.20912 16.3913C5.17303 16.3684 5.13258 16.3531 5.09032 16.3465C5.04805 16.34 5.00488 16.3422 4.96352 16.3531C4.92216 16.3641 4.88351 16.3834 4.85 16.41C4.81478 16.4329 4.78476 16.4629 4.76188 16.4981C4.739 16.5333 4.72376 16.573 4.71717 16.6144C4.71057 16.6559 4.71275 16.6983 4.72357 16.7389C4.7344 16.7795 4.75362 16.8173 4.78 16.85C4.92534 17.0934 5.10371 17.3155 5.31 17.51C5.46455 17.6471 5.64012 17.7585 5.83 17.84C6.00461 17.9077 6.18549 17.9579 6.37 17.99V18.06C6.33848 18.1436 6.3183 18.231 6.31 18.32C6.30499 18.4033 6.30499 18.4867 6.31 18.57C6.31 18.8 6.38 18.99 6.41 19.2C6.39977 19.2416 6.39857 19.2849 6.40648 19.327C6.41439 19.3691 6.43123 19.4091 6.45586 19.4441C6.4805 19.4792 6.51235 19.5086 6.54929 19.5303C6.58623 19.552 6.62739 19.5655 6.67 19.57C6.71149 19.5786 6.75432 19.5786 6.79582 19.5701C6.83732 19.5615 6.87663 19.5445 6.9113 19.5201C6.94598 19.4958 6.97529 19.4645 6.99743 19.4284C7.01956 19.3923 7.03405 19.352 7.04 19.31C7.1453 19.1158 7.2388 18.9154 7.32 18.71C7.35266 18.6227 7.37612 18.5322 7.39 18.44C7.39999 18.3503 7.39999 18.2597 7.39 18.17C7.39409 18.1268 7.39409 18.0832 7.39 18.04C7.77245 18.0249 8.15025 17.9507 8.51 17.82C8.86142 17.7166 9.16743 17.4972 9.3781 17.1975C9.58878 16.8979 9.69167 16.5357 9.67 16.17Z" fill="black"/>
<path fill-rule="evenodd" clip-rule="evenodd" d="M23.82 7.23C23.11 6.86 22.38 6.52 21.67 6.15C21.2 5.91 20.73 5.66 20.29 5.39C19.29 4.78 18.29 3.9 17.29 3.19C16.5711 2.64138 15.7527 2.23726 14.88 2C14.1123 1.84407 13.3177 1.8842 12.5696 2.11666C11.8216 2.34913 11.1441 2.76643 10.6 3.33C9.48598 4.26886 8.47979 5.32871 7.60003 6.49C7.15325 6.99974 6.83747 7.61071 6.68003 8.27C6.60003 8.6 7.23003 8.72 7.35003 8.27C7.52413 7.77035 7.80771 7.31594 8.18003 6.94C9.0916 5.87925 10.1216 4.92637 11.25 4.1C11.6913 3.67043 12.2306 3.35487 12.8213 3.18063C13.412 3.00639 14.0362 2.97871 14.64 3.1C15.3872 3.30719 16.0916 3.64581 16.72 4.1C17.78 4.78 18.81 5.62 19.87 6.18C20.23 6.38 20.6 6.56 20.97 6.73C21.82 7.12 22.69 7.48 23.54 7.87C23.5835 7.89073 23.6311 7.90167 23.6793 7.90207C23.7275 7.90246 23.7752 7.89229 23.819 7.87227C23.8629 7.85226 23.9018 7.82288 23.9331 7.78621C23.9643 7.74953 23.9872 7.70645 24 7.66C24.0178 7.62011 24.0273 7.57701 24.0278 7.53335C24.0283 7.48968 24.0198 7.44638 24.003 7.4061C23.9861 7.36582 23.9612 7.32941 23.9297 7.29913C23.8982 7.26884 23.8609 7.24532 23.82 7.23Z" fill="black"/>
<path fill-rule="evenodd" clip-rule="evenodd" d="M8.61002 8.94C7.21076 8.70661 5.77419 8.86584 4.46002 9.4C3.35392 9.87262 2.3797 10.6077 1.62173 11.5417C0.863753 12.4757 0.344872 13.5803 0.110018 14.76C-0.128461 15.9577 0.00866398 17.1999 0.502659 18.3167C0.996654 19.4336 1.82342 20.3707 2.87002 21C3.2592 21.248 3.6671 21.4653 4.09002 21.65C4.5189 21.8463 4.9734 21.981 5.44002 22.05C5.97706 22.13 6.52298 22.13 7.06002 22.05C7.83853 21.9186 8.59992 21.7005 9.33002 21.4C9.36482 21.3875 9.39682 21.3683 9.4242 21.3435C9.45157 21.3186 9.47379 21.2886 9.48958 21.2552C9.50536 21.2218 9.51441 21.1856 9.5162 21.1486C9.51799 21.1117 9.51249 21.0748 9.50002 21.04C9.48754 21.0052 9.46833 20.9732 9.44349 20.9458C9.41865 20.9184 9.38865 20.8962 9.35523 20.8804C9.3218 20.8647 9.28559 20.8556 9.24866 20.8538C9.21173 20.852 9.17482 20.8575 9.14002 20.87C8.44614 21.109 7.72874 21.2732 7.00002 21.36C6.53016 21.4138 6.05489 21.3969 5.59002 21.31C5.1922 21.2291 4.80821 21.091 4.45002 20.9C4.07438 20.7142 3.71334 20.5003 3.37002 20.26C2.51797 19.7055 1.8531 18.9068 1.46236 17.9684C1.07163 17.0299 0.973221 15.9953 1.18002 15C1.37523 13.9842 1.81005 13.0296 2.44837 12.2156C3.08668 11.4017 3.91004 10.7518 4.85002 10.32C5.99052 9.80838 7.25011 9.62152 8.49002 9.78C9.36527 9.82415 10.2061 10.1347 10.9 10.67C11.26 10.92 11.77 10.55 11.5 10.26C10.7018 9.52351 9.68933 9.06106 8.61002 8.94Z" fill="black"/>
<path fill-rule="evenodd" clip-rule="evenodd" d="M13 17C12.8932 17.3098 12.7696 17.6135 12.63 17.91C12.4376 18.2638 12.2273 18.6076 12 18.94C11.6315 19.479 11.1234 19.9076 10.53 20.18C10.4933 20.2004 10.4609 20.2278 10.4347 20.2606C10.4085 20.2935 10.389 20.3312 10.3774 20.3716C10.3658 20.412 10.3623 20.4543 10.367 20.496C10.3718 20.5378 10.3847 20.5782 10.405 20.615C10.4254 20.6518 10.4528 20.6842 10.4857 20.7104C10.5185 20.7365 10.5562 20.756 10.5966 20.7676C10.637 20.7792 10.6793 20.7827 10.7211 20.778C10.7628 20.7733 10.8033 20.7604 10.84 20.74C11.6378 20.381 12.3274 19.8189 12.84 19.11C13.0719 18.8006 13.2666 18.4649 13.42 18.11C13.5747 17.7531 13.692 17.3811 13.77 17C13.8801 16.4017 13.8801 15.7883 13.77 15.19C13.69 14.93 13.21 14.97 13.18 15.43C13.1822 15.9586 13.1218 16.4856 13 17Z" fill="black"/>
<path fill-rule="evenodd" clip-rule="evenodd" d="M23.23 11.1C23.1553 11.0595 23.0679 11.0494 22.9859 11.0718C22.904 11.0941 22.8338 11.1472 22.79 11.22C22.5869 11.571 22.3147 11.8771 21.99 12.12C21.6739 12.3603 21.3084 12.5276 20.92 12.61C20.7241 12.6348 20.5259 12.6348 20.33 12.61C19.4105 12.4273 18.4771 12.3235 17.54 12.3C16.54 12.43 14.79 13.54 13.27 13.81C12.888 13.9377 12.4723 13.9194 12.103 13.7588C11.7337 13.5981 11.437 13.3065 11.27 12.94C10.98 12.39 11.43 12.08 11.95 11.75C12.95 11.09 14.38 10.47 14.95 9.52C15.112 9.24828 15.2106 8.94346 15.2383 8.62831C15.266 8.31316 15.2221 7.99582 15.11 7.7C14.51 5.97 13.49 5.7 12.47 6.19C11.4386 6.67629 10.6131 7.51249 10.14 8.55C9.91999 8.92 10.32 9.22 10.67 8.85C11.1051 7.96294 11.8532 7.26833 12.77 6.9C13.41 6.69 14 7 14.26 8C14.52 8.89 13.91 9.39 13.2 9.84C12.79 10.09 12.35 10.33 11.93 10.56C11.4582 10.8272 11.0129 11.1386 10.6 11.49C10.3287 11.7397 10.1539 12.077 10.1064 12.4427C10.0588 12.8084 10.1415 13.1792 10.34 13.49C10.512 13.944 10.821 14.3333 11.2242 14.6038C11.6273 14.8744 12.1046 15.0128 12.59 15C13.5482 14.9147 14.4832 14.6572 15.35 14.24C16.0851 13.8243 16.863 13.489 17.67 13.24C18.5546 13.2387 19.4378 13.3123 20.31 13.46C20.5728 13.4643 20.8351 13.434 21.09 13.37C21.575 13.2465 22.0283 13.0215 22.42 12.71C22.7978 12.3947 23.1133 12.0114 23.35 11.58C23.3765 11.5414 23.3945 11.4977 23.4028 11.4517C23.4112 11.4056 23.4096 11.3583 23.3983 11.3129C23.3869 11.2675 23.366 11.2251 23.337 11.1884C23.308 11.1517 23.2715 11.1215 23.23 11.1Z" fill="black"/>
</g>
<defs>
<clipPath id="clip0_1049_7543">
<rect width="24" height="24" fill="white"/>
</clipPath>
</defs>
</svg>
