<svg width="24" height="24" viewBox="0 0 24 24" fill="none" xmlns="http://www.w3.org/2000/svg">
<g clip-path="url(#clip0_1047_5980)">
<path fill-rule="evenodd" clip-rule="evenodd" d="M12.28 11.12C11.9934 11.1034 11.7102 11.1883 11.48 11.36C11.3377 11.492 11.2368 11.6626 11.1898 11.851C11.1428 12.0394 11.1516 12.2374 11.2152 12.4208C11.2789 12.6043 11.3945 12.7652 11.5481 12.8841C11.7016 13.0029 11.8865 13.0744 12.08 13.09C12.3088 13.1118 12.538 13.0542 12.7293 12.9269C12.9205 12.7995 13.0621 12.6102 13.1302 12.3907C13.1982 12.1713 13.1886 11.9351 13.103 11.7219C13.0174 11.5086 12.861 11.3314 12.66 11.22C12.66 11.22 12.31 11.12 12.28 11.12Z" fill="black"/>
<path fill-rule="evenodd" clip-rule="evenodd" d="M15.89 12.52C15.8603 11.4406 15.4246 10.4122 14.67 9.63995C14.609 9.57232 14.5236 9.53169 14.4327 9.52701C14.3417 9.52232 14.2526 9.55395 14.185 9.61495C14.1174 9.67595 14.0768 9.76132 14.0721 9.85228C14.0674 9.94323 14.099 10.0323 14.16 10.1C14.5722 10.5388 14.8526 11.0846 14.9693 11.6752C15.086 12.2658 15.0343 12.8774 14.82 13.44C14.5461 13.9229 14.1435 14.3203 13.6571 14.588C13.1707 14.8557 12.6195 14.9831 12.065 14.9562C11.5105 14.9292 10.9743 14.7489 10.5161 14.4353C10.058 14.1217 9.69584 13.6871 9.47001 13.18C8.54001 10.68 11.18 8.79995 13.09 9.37995C13.1656 9.40647 13.2486 9.40188 13.3208 9.36719C13.393 9.33249 13.4485 9.27054 13.475 9.19495C13.5015 9.11937 13.4969 9.03634 13.4622 8.96414C13.4276 8.89194 13.3656 8.83647 13.29 8.80995C12.6293 8.57505 11.9158 8.53113 11.2313 8.68324C10.5468 8.83536 9.91902 9.17734 9.42001 9.66995C8.91712 10.1212 8.54974 10.7035 8.359 11.3516C8.16826 11.9998 8.16168 12.6883 8.34001 13.34C8.55421 14.1467 9.02942 14.8599 9.6915 15.3682C10.3536 15.8765 11.1653 16.1514 12 16.15C12.7338 16.2032 13.4648 16.0135 14.08 15.61C14.6401 15.3152 15.1064 14.8696 15.4263 14.3235C15.7462 13.7774 15.9068 13.1526 15.89 12.52Z" fill="black"/>
<path fill-rule="evenodd" clip-rule="evenodd" d="M20 19.1399C18.8486 17.4605 17.3854 16.0178 15.69 14.89C15.37 14.76 15.04 15.1299 15.32 15.3999C15.8521 16.1127 16.4406 16.7816 17.08 17.3999C17.87 18.1399 18.75 18.7899 19.45 19.5799C19.4789 19.6161 19.5146 19.6461 19.5551 19.6684C19.5956 19.6907 19.6402 19.7049 19.6861 19.71C19.7321 19.7151 19.7786 19.7111 19.823 19.6982C19.8674 19.6853 19.9089 19.6638 19.945 19.635C19.9811 19.6061 20.0112 19.5703 20.0335 19.5298C20.0558 19.4893 20.0699 19.4448 20.075 19.3988C20.0801 19.3529 20.0761 19.3064 20.0633 19.2619C20.0504 19.2175 20.0289 19.1761 20 19.1399Z" fill="black"/>
<path fill-rule="evenodd" clip-rule="evenodd" d="M15.94 21.4499C15.4036 19.6424 14.623 17.9165 13.62 16.3199C13.42 16.0399 12.85 16.2599 13 16.6299C13.272 17.6691 13.6577 18.6752 14.15 19.6299C14.56 20.4299 14.85 20.8599 15.3 21.6299C15.3239 21.7148 15.3805 21.7867 15.4574 21.8299C15.5343 21.873 15.6251 21.8838 15.71 21.8599C15.7949 21.8361 15.8668 21.7795 15.9099 21.7026C15.953 21.6257 15.9639 21.5348 15.94 21.4499Z" fill="black"/>
<path fill-rule="evenodd" clip-rule="evenodd" d="M19.59 3.12997C19.5186 3.08241 19.4322 3.06273 19.3473 3.07467C19.2623 3.08661 19.1847 3.12933 19.1292 3.19473C19.0736 3.26013 19.0441 3.34364 19.0461 3.42941C19.0481 3.51518 19.0815 3.59723 19.14 3.65997C21.0232 5.21688 22.3344 7.35648 22.8667 9.7412C23.3991 12.1259 23.1223 14.62 22.08 16.83C19.86 21.43 14.52 23.32 10.19 22.61C8.4559 22.3118 6.82078 21.5949 5.42663 20.5214C4.03248 19.4479 2.92145 18.0503 2.19001 16.45C-0.429988 11 1.57001 6.53997 4.25001 3.99997C6.19001 2.13997 12.07 -0.810029 17.45 2.38997C17.4835 2.41536 17.5219 2.43343 17.5628 2.44304C17.6036 2.45264 17.6461 2.45355 17.6874 2.44571C17.7286 2.43787 17.7678 2.42145 17.8023 2.39753C17.8368 2.3736 17.8659 2.34269 17.8877 2.3068C17.9095 2.27092 17.9236 2.23085 17.9289 2.1892C17.9343 2.14754 17.9308 2.10523 17.9188 2.065C17.9067 2.02476 17.8864 1.9875 17.859 1.95563C17.8317 1.92376 17.7979 1.89798 17.76 1.87997C13.4 -0.850029 8.44001 -0.140029 4.60001 2.75997C-4.32999 9.53997 0.600013 23.76 11.84 23.84C24 23.81 27.92 10.11 19.59 3.12997Z" fill="black"/>
<path fill-rule="evenodd" clip-rule="evenodd" d="M4.34003 7.86996C5.40059 8.92535 6.58211 9.85177 7.86003 10.63C8.21003 10.82 8.72003 10.29 8.43003 10.01C7.77003 9.39996 7.43003 9.00996 6.70003 8.40996C5.13003 6.99996 3.87003 6.35996 3.39003 5.89996C3.31064 5.87002 3.22337 5.86828 3.14284 5.89502C3.06232 5.92176 2.99344 5.97537 2.94773 6.04685C2.90203 6.11834 2.88228 6.20336 2.8918 6.28768C2.90132 6.37199 2.93953 6.45047 3.00003 6.50996L4.34003 7.86996Z" fill="black"/>
<path fill-rule="evenodd" clip-rule="evenodd" d="M8.30001 2.36995C8.81001 3.36995 9.30001 5.70995 10.46 8.36995C10.62 8.56995 11.3 8.56995 11.2 8.11995C10.7226 6.03199 9.98341 4.01268 9.00001 2.10995C8.81001 1.73995 8.07001 1.93995 8.30001 2.36995Z" fill="black"/>
<path fill-rule="evenodd" clip-rule="evenodd" d="M19.27 7.34999C19.8241 8.36052 20.3118 9.40606 20.73 10.48C20.7572 10.5623 20.8139 10.6315 20.8893 10.6743C20.9646 10.7172 21.0531 10.7306 21.1377 10.7119C21.2223 10.6932 21.297 10.6439 21.3473 10.5733C21.3976 10.5028 21.4199 10.4161 21.41 10.33C21.3417 9.5731 21.1805 8.82749 20.93 8.10999C20.72 7.59999 19.55 5.61999 19.14 5.64999C19.1241 5.59644 19.0959 5.54734 19.0577 5.50656C19.0195 5.46578 18.9724 5.43445 18.92 5.41505C18.8676 5.39565 18.8114 5.3887 18.7559 5.39477C18.7003 5.40083 18.647 5.41974 18.6 5.44999C18.11 5.70999 19.05 6.86999 19.27 7.34999Z" fill="black"/>
</g>
<defs>
<clipPath id="clip0_1047_5980">
<rect width="24" height="24" fill="white"/>
</clipPath>
</defs>
</svg>
