<svg width="24" height="24" viewBox="0 0 24 24" fill="none" xmlns="http://www.w3.org/2000/svg">
<g clip-path="url(#clip0_1047_5990)">
<path fill-rule="evenodd" clip-rule="evenodd" d="M19.65 13.43C18.56 13.32 18.65 13.43 18.7 13.32C19.4374 12.4339 19.8502 11.3226 19.87 10.17C19.8024 9.57757 19.6989 8.98982 19.56 8.40998C19.43 8.27998 19.29 8.32998 19.16 8.40998C19.03 8.48998 18.98 9.93998 18.83 10.94C18.6599 11.6649 18.38 12.3596 18 13C17.9527 13.0318 17.9141 13.0751 17.8879 13.1258C17.8617 13.1765 17.8487 13.2329 17.85 13.29C16.1845 13.2037 14.5156 13.2037 12.85 13.29C6.91 13.54 1.45 13.29 0.620002 15.69C0.378518 16.6707 0.314174 17.6866 0.430002 18.69C0.610002 21.18 0.550002 22 3.7 22.07C3 22.81 3.39 23.8 3.7 23.85C4.21 23.93 4.44 22.85 4.36 22.11C7.59131 22.3426 10.8333 22.3894 14.07 22.25C15.68 22.25 17.23 22.37 18.85 22.25C18.58 23.76 20.2 25.31 19.85 22.15C20.7869 22.1356 21.6865 21.7801 22.38 21.15C22.8133 20.5349 23.1196 19.8395 23.281 19.1046C23.4424 18.3697 23.4557 17.6101 23.32 16.87C23.13 14.8 22.8 13.76 19.65 13.43ZM22.1 19.24C22.0006 19.6809 21.7984 20.092 21.51 20.44C20.63 21.44 15.99 21.12 14.05 21.14C12.34 21.14 10.64 21.28 8.93 21.31C8.25 21.31 2.61 21.31 1.83 20.94C1.05 20.57 1.27 19.38 1.22 18.68C1.07704 17.7562 1.10415 16.814 1.3 15.9C1.69 14.67 1.83 14.39 12.91 14.15C14.22 14.15 19.48 14.15 21.18 14.81C21.3658 14.8677 21.5366 14.9657 21.6801 15.0971C21.8235 15.2285 21.9362 15.39 22.01 15.57C22.2712 16.7767 22.3017 18.0219 22.1 19.24Z" fill="black"/>
<path fill-rule="evenodd" clip-rule="evenodd" d="M13.64 16.41C13.37 16.36 8.97001 16.2 6.64001 16.29C3.64001 16.4 3.15001 16.53 2.95001 17.69C2.82474 18.1318 2.78736 18.5939 2.84001 19.05C3.10001 20.05 4.63001 19.75 6.20001 19.76C8.20001 19.76 9.13001 19.89 11.45 19.84C13.77 19.79 14.11 19.84 14.39 19.32C14.67 18.8 14.72 16.6 13.64 16.41ZM13.4 18.61C13.14 18.67 13.4 18.61 6.18001 18.88C2.81001 19.02 3.49001 19.25 3.57001 17.78C3.57001 17.08 3.94001 17.23 4.77001 17.19C6.01928 17.0601 7.27773 17.0434 8.53001 17.14C10.29 17.23 12.66 17.42 13.02 17.45C13.38 17.48 13.6 17.46 13.4 18.61Z" fill="black"/>
<path fill-rule="evenodd" clip-rule="evenodd" d="M17.78 19.07C18.78 19.61 20.18 19.41 20.36 18.01C20.86 13.66 13.92 17 17.78 19.07ZM19.49 17.85C19.35 18.44 18.75 18.32 18.31 18.08C17.87 17.84 17.58 17.44 18 17C18.08 17 19.27 15.93 19.49 17.41V17.85Z" fill="black"/>
<path fill-rule="evenodd" clip-rule="evenodd" d="M2.64002 12.87C2.69186 12.9187 2.75931 12.9474 2.83034 12.9509C2.90136 12.9545 2.97135 12.9327 3.02781 12.8895C3.08426 12.8462 3.12352 12.7843 3.13858 12.7148C3.15364 12.6453 3.14351 12.5727 3.11002 12.51C2.11002 11.13 1.81002 7.64 3.40002 4.99C4.17138 3.78937 5.22594 2.79666 6.47095 2.09917C7.71596 1.40169 9.11328 1.0208 10.54 0.990002C15.32 0.840002 16.22 3.99 16.88 3.27C16.9112 3.2393 16.9359 3.20271 16.9528 3.16237C16.9696 3.12203 16.9783 3.07873 16.9783 3.035C16.9783 2.99127 16.9696 2.94797 16.9528 2.90763C16.9359 2.86729 16.9112 2.8307 16.88 2.8C16.41 2.41 16 2 15.56 1.66C11.77 -1.36 5.00002 -0.169999 2.47002 4.45C0.890016 7.33 1.37002 11.3 2.64002 12.87Z" fill="black"/>
<path fill-rule="evenodd" clip-rule="evenodd" d="M23.44 2.08C23.33 1.32 23.16 0.620002 22.44 0.350002C21.7747 0.190757 21.0766 0.239626 20.44 0.490002C19.44 0.750002 18.13 0.990002 17.81 2.05C17.5963 2.99445 17.5456 3.96847 17.66 4.93C17.2199 4.85772 16.7683 4.93459 16.377 5.14839C15.9856 5.36219 15.6769 5.70065 15.5 6.11C14.73 8.11 18.06 9.39 18.62 6.28C18.81 5.16 18.55 3.45 18.89 2.38C18.96 2.13 19.24 2.02 19.52 1.92C20.2112 1.69291 20.9159 1.50922 21.63 1.37C22.11 1.31 22.16 1.44 22.23 1.61C22.4196 2.30647 22.5402 3.01991 22.59 3.74C22.2065 3.67559 21.8126 3.75128 21.4803 3.95323C21.148 4.15519 20.8994 4.46994 20.78 4.84C20.7148 5.0407 20.7018 5.25473 20.7424 5.46181C20.783 5.6689 20.8758 5.8622 21.012 6.02342C21.1482 6.18463 21.3233 6.30842 21.5206 6.38307C21.718 6.45772 21.9312 6.48076 22.14 6.45C23.79 6.08 23.68 3.73 23.44 2.08ZM17 7.25C16.8836 7.27594 16.7623 7.26986 16.6491 7.23239C16.5358 7.19491 16.4349 7.12746 16.3569 7.03719C16.279 6.94693 16.2269 6.83722 16.2063 6.71974C16.1857 6.60226 16.1974 6.4814 16.24 6.37C16.3511 6.08624 16.5577 5.85011 16.8242 5.70227C17.0907 5.55442 17.4004 5.50411 17.7 5.56C17.69 6.18 17.61 7.13 17 7.25ZM21.67 5.52C21.32 5.01 21.67 4.44 22.44 4.43H22.61C22.51 5.68 21.86 5.79 21.67 5.52Z" fill="black"/>
<path fill-rule="evenodd" clip-rule="evenodd" d="M8.82999 11.75C9.57015 12.0786 10.3968 12.1588 11.1863 11.9785C11.9758 11.7983 12.6858 11.3673 13.21 10.75C13.7196 10.0915 13.9543 9.26113 13.8648 8.43328C13.7753 7.60542 13.3686 6.84442 12.73 6.31001C8.25999 3.35001 4.99999 9.88001 8.82999 11.75ZM12.41 10.1C12.0133 10.4995 11.5071 10.7725 10.9554 10.8846C10.4037 10.9967 9.83116 10.9429 9.30999 10.73C7.67999 10 7.89999 7.42001 9.50999 6.52001C9.9727 6.37079 10.4637 6.33106 10.9444 6.40394C11.4251 6.47683 11.8823 6.66034 12.28 6.94001C12.6952 7.3538 12.9391 7.90889 12.9632 8.49457C12.9873 9.08026 12.7898 9.65351 12.41 10.1Z" fill="black"/>
</g>
<defs>
<clipPath id="clip0_1047_5990">
<rect width="24" height="24" fill="white"/>
</clipPath>
</defs>
</svg>
