<svg width="24" height="24" viewBox="0 0 24 24" fill="none" xmlns="http://www.w3.org/2000/svg">
<g clip-path="url(#clip0_1035_4818)">
<path fill-rule="evenodd" clip-rule="evenodd" d="M17.83 14.84C17.6919 16.1727 17.3548 17.4772 16.83 18.71C16.5706 19.5449 16.0862 20.2922 15.43 20.87C15.3752 20.9199 15.3401 20.9879 15.3311 21.0614C15.3221 21.135 15.3397 21.2094 15.3809 21.2711C15.422 21.3328 15.4839 21.3777 15.5553 21.3977C15.6266 21.4176 15.7028 21.4114 15.77 21.38C18.09 20.15 18.77 17.44 18.54 14.84C18.54 14.7458 18.5026 14.6556 18.436 14.589C18.3694 14.5224 18.2792 14.485 18.185 14.485C18.0908 14.485 18.0006 14.5224 17.934 14.589C17.8674 14.6556 17.83 14.7458 17.83 14.84Z" fill="black"/>
<path fill-rule="evenodd" clip-rule="evenodd" d="M12.64 22.83C8.79 24 3.53 22.49 1.81 18C1.29898 16.5982 1.16413 15.087 1.41888 13.6169C1.67363 12.1468 2.30909 10.7691 3.26197 9.62097C4.21484 8.47286 5.45189 7.59444 6.84989 7.07317C8.24789 6.55191 9.75806 6.40601 11.23 6.64999C11.3082 6.66591 11.3896 6.65009 11.4562 6.60602C11.5227 6.56195 11.5691 6.49323 11.585 6.41499C11.6009 6.33676 11.5851 6.2554 11.541 6.18882C11.497 6.12225 11.4282 6.07591 11.35 6.05999C9.71902 5.71109 8.02412 5.80867 6.44397 6.34247C4.86381 6.87627 3.45695 7.8265 2.37167 9.09299C1.2864 10.3595 0.562924 11.8953 0.277516 13.5386C-0.00789298 15.1819 0.155337 16.8717 0.75 18.43C2.75 23.33 8.62 24.94 12.86 23.49C12.9382 23.4539 13.0003 23.3902 13.0345 23.3112C13.0687 23.2321 13.0725 23.1433 13.0453 23.0616C13.0181 22.9799 12.9617 22.9111 12.8869 22.8683C12.8121 22.8256 12.7242 22.812 12.64 22.83Z" fill="black"/>
<path fill-rule="evenodd" clip-rule="evenodd" d="M7.28 13.24C6.91105 13.6517 6.66703 14.1601 6.5765 14.7054C6.48597 15.2508 6.55267 15.8107 6.76881 16.3196C6.98494 16.8285 7.34156 17.2652 7.79691 17.5788C8.25227 17.8923 8.78752 18.0696 9.34 18.09C9.7863 18.1271 10.2355 18.0726 10.66 17.93C10.7027 17.9162 10.7422 17.8941 10.7764 17.8651C10.8105 17.836 10.8386 17.8005 10.8591 17.7606C10.8795 17.7206 10.8918 17.6771 10.8954 17.6324C10.899 17.5876 10.8938 17.5427 10.88 17.5C10.8662 17.4573 10.8442 17.4178 10.8151 17.3836C10.786 17.3495 10.7505 17.3214 10.7106 17.3009C10.6706 17.2805 10.6271 17.2681 10.5824 17.2645C10.5377 17.261 10.4927 17.2662 10.45 17.28C10.1205 17.3511 9.77954 17.3511 9.45 17.28C9.09174 17.2359 8.75208 17.0957 8.46705 16.8743C8.18202 16.6528 7.96223 16.3583 7.83101 16.022C7.69979 15.6858 7.66201 15.3203 7.72169 14.9643C7.78137 14.6083 7.93629 14.2751 8.17 14C8.45054 13.598 8.86897 13.313 9.3458 13.1992C9.82264 13.0854 10.3247 13.1506 10.7565 13.3826C11.1884 13.6146 11.52 13.9971 11.6884 14.4575C11.8568 14.9179 11.8503 15.4241 11.67 15.88C11.6349 16.2321 11.4668 16.5575 11.2 16.79C11.1337 16.8351 11.088 16.9047 11.073 16.9834C11.058 17.0622 11.0749 17.1437 11.12 17.21C11.1651 17.2763 11.2347 17.322 11.3134 17.337C11.3922 17.352 11.4737 17.3351 11.54 17.29C12.0478 16.8451 12.3838 16.2365 12.4897 15.5698C12.5956 14.9031 12.4648 14.2203 12.12 13.64C11.8743 13.2349 11.5362 12.8938 11.1333 12.6445C10.7304 12.3952 10.2742 12.2449 9.80199 12.2059C9.32982 12.1669 8.85513 12.2402 8.41677 12.42C7.97841 12.5997 7.58886 12.8807 7.28 13.24Z" fill="black"/>
<path fill-rule="evenodd" clip-rule="evenodd" d="M23.61 5.42C23.06 4.78 22.02 4.79 20.82 4.54C22.45 2.66 23.62 1.38 23.56 0.91C23.5 0.44 22.84 0.29 22.35 0.21C20.9976 -0.0044701 19.6239 -0.051491 18.26 0.0700001L17.18 0.35C17.1031 0.371217 17.0378 0.422119 16.9984 0.491508C16.959 0.560896 16.9488 0.643087 16.97 0.72C16.9912 0.796913 17.0421 0.862247 17.1115 0.90163C17.1809 0.941012 17.2631 0.951217 17.34 0.93L18.34 0.7C19.7599 0.623501 21.1835 0.744659 22.57 1.06C22.5022 1.19183 22.4253 1.3188 22.34 1.44C21.79 2.09 19.64 4.44 19.61 4.44C18.61 5.7 22.84 5.65 22.75 6.17L22.48 6.47C19.9766 8.48901 17.3517 10.3525 14.62 12.05C16.33 9.36 17.52 7.51 17.56 7.3C17.77 6.3 15.16 6.57 14.12 6.2C14.12 6.28 14.12 5.78 16.49 2.3C16.5079 2.23565 16.5065 2.16743 16.486 2.10387C16.4654 2.04032 16.4265 1.98423 16.3742 1.94263C16.322 1.90102 16.2586 1.87574 16.192 1.86994C16.1255 1.86413 16.0587 1.87807 16 1.91C11.73 7.81 13.08 6.76 16.51 7.43C16.57 7.35 13.72 11.52 13.51 11.9C13.2518 12.2378 13.0771 12.6319 13 13.05C12.9969 13.1519 13.0176 13.2532 13.0602 13.3458C13.1029 13.4385 13.1664 13.52 13.2459 13.5839C13.3253 13.6479 13.4185 13.6925 13.5181 13.7144C13.6177 13.7363 13.7211 13.7348 13.82 13.71C14.6751 13.357 15.487 12.9074 16.24 12.37C18.6816 10.8604 21.0201 9.19004 23.24 7.37C24 6.66 24 5.9 23.61 5.42Z" fill="black"/>
</g>
<defs>
<clipPath id="clip0_1035_4818">
<rect width="24" height="24" fill="white"/>
</clipPath>
</defs>
</svg>
