<svg width="24" height="24" viewBox="0 0 24 24" fill="none" xmlns="http://www.w3.org/2000/svg">
<g clip-path="url(#clip0_1046_5597)">
<path fill-rule="evenodd" clip-rule="evenodd" d="M24 11.8C23.9821 10.8597 23.8817 9.92275 23.7 8.99999C23.6463 8.65494 23.4894 8.33421 23.25 8.07999C23.0221 7.90621 22.7595 7.78344 22.48 7.71999C21.9679 7.61529 21.4504 7.53851 20.93 7.48999C20.6885 7.48306 20.4534 7.41047 20.25 7.27999C20.14 7.17999 20.14 6.92999 20.11 6.65999C20.0755 6.14423 19.9816 5.63418 19.83 5.13999C19.7327 4.87242 19.5588 4.6394 19.33 4.46999C19.0111 4.25712 18.6492 4.11714 18.27 4.05999C17.4945 3.99864 16.7155 3.99864 15.94 4.05999C15.8515 4.05996 15.7665 4.0944 15.703 4.15602C15.6396 4.21763 15.6026 4.30156 15.6 4.38999C15.6 4.48111 15.6355 4.56865 15.6989 4.63401C15.7624 4.69937 15.8489 4.73739 15.94 4.73999C16.5739 4.72828 17.2081 4.7483 17.84 4.79999C18.1986 4.8327 18.5428 4.95663 18.84 5.15999C19.02 5.28999 19.06 5.56999 19.11 5.85999C19.1411 6.42034 19.2079 6.97814 19.31 7.52999C19.3578 7.70011 19.4433 7.85731 19.56 7.98999C19.7769 8.19093 20.0422 8.3322 20.33 8.39999C22.47 9.02999 22.43 8.39999 22.62 9.39999C22.781 10.4387 22.8546 11.489 22.84 12.54C22.8496 13.1419 22.8128 13.7437 22.73 14.34C22.7191 14.5166 22.675 14.6897 22.6 14.85C22.3804 15.0416 22.1013 15.1511 21.81 15.16C21.3656 15.2128 20.9271 15.3065 20.5 15.44C20.2456 15.5185 20.0082 15.644 19.8 15.81C19.5409 16.0261 19.3759 16.3345 19.34 16.67C19.26 17.13 19.34 17.74 19.27 18.25C19.27 18.5 19.2 18.73 19.01 18.84C18.6427 19.0485 18.2387 19.1843 17.82 19.24C17.1561 19.3158 16.4881 19.3492 15.82 19.34C15.7404 19.34 15.6641 19.3716 15.6079 19.4279C15.5516 19.4841 15.52 19.5604 15.52 19.64C15.52 19.7196 15.5516 19.7959 15.6079 19.8521C15.6641 19.9084 15.7404 19.94 15.82 19.94C16.5294 19.98 17.2406 19.98 17.95 19.94C18.4584 19.8977 18.9539 19.7585 19.41 19.53C19.6963 19.3845 19.915 19.1335 20.02 18.83C20.1629 18.2915 20.2368 17.7371 20.24 17.18C20.24 16.92 20.24 16.69 20.42 16.58C20.7246 16.4016 21.0675 16.2987 21.42 16.28C21.854 16.2242 22.2823 16.1305 22.7 16C22.999 15.9048 23.2657 15.7282 23.47 15.49C23.6519 15.2297 23.7748 14.9328 23.83 14.62C23.9865 13.6887 24.0435 12.7434 24 11.8Z" fill="black"/>
<path fill-rule="evenodd" clip-rule="evenodd" d="M6.5 19.38C5.16486 19.4108 3.82908 19.3607 2.5 19.23C2.05116 19.2122 1.62434 19.0308 1.3 18.72C1.3 18.72 1.3 18.57 1.25 18.45C1.19 18.03 1.16 17.38 1.14 16.67V13.26V10.03C1.14 9.32336 1.12 8.60336 1.08 7.87002C1.02555 7.36816 1.02555 6.86188 1.08 6.36002C1.10217 6.09333 1.20311 5.83923 1.37 5.63002C1.61417 5.36581 1.92509 5.17235 2.27 5.07002C2.87133 4.91969 3.49041 4.85239 4.11 4.87002L6.83 4.79002C6.86891 4.79137 6.9077 4.78486 6.94405 4.77089C6.9804 4.75692 7.01356 4.73577 7.04155 4.7087C7.06955 4.68164 7.09181 4.64921 7.10701 4.61336C7.1222 4.57751 7.13002 4.53896 7.13 4.50002C7.13134 4.46111 7.12483 4.42232 7.11086 4.38597C7.09689 4.34962 7.07574 4.31646 7.04868 4.28847C7.02161 4.26047 6.98919 4.23821 6.95334 4.22301C6.91748 4.20782 6.87894 4.2 6.84 4.20002L4.13 4.13002C3.43449 4.07078 2.73408 4.11119 2.05 4.25002C1.53898 4.36953 1.07144 4.62927 0.699998 5.00002C0.39871 5.33172 0.194581 5.73998 0.109998 6.18002C0.0106333 6.74762 -0.0262534 7.32439 -1.92504e-06 7.90002V13.26C-1.92504e-06 13.9 0.0599981 15.84 0.179998 17.26C0.19107 17.9199 0.31625 18.5729 0.549998 19.19C0.787706 19.4478 1.07492 19.655 1.39449 19.7994C1.71406 19.9437 2.05944 20.0221 2.41 20.03C3.77216 20.11 5.13784 20.11 6.5 20.03C6.59017 20.03 6.67665 19.9942 6.74041 19.9304C6.80418 19.8667 6.84 19.7802 6.84 19.69C6.83248 19.6051 6.79337 19.5262 6.7304 19.4688C6.66743 19.4114 6.58521 19.3797 6.5 19.38Z" fill="black"/>
<path fill-rule="evenodd" clip-rule="evenodd" d="M18.51 10.33C18.3814 10.12 18.2064 9.94228 17.9983 9.81052C17.7903 9.67876 17.5548 9.59648 17.31 9.57001C16.2326 9.36161 15.1441 9.2147 14.05 9.13001H13.56C13.5528 8.9901 13.5528 8.84992 13.56 8.71001C13.56 7.25001 13.71 3.87001 13.64 2.36001C13.644 2.07875 13.6035 1.79863 13.52 1.53001C13.46 1.40001 13.29 1.14001 12.9 1.41001C12.6516 1.60626 12.4207 1.82375 12.21 2.06001C10.94 3.34001 8.41999 6.40001 6.48999 8.81001C5.42999 10.14 4.54999 11.28 4.15999 11.81C4.06998 11.9336 3.98973 12.064 3.91999 12.2C3.86882 12.2771 3.84153 12.3675 3.84153 12.46C3.84153 12.5525 3.86882 12.643 3.91999 12.72C3.99557 12.8219 4.10013 12.8985 4.21999 12.94C4.57906 13.0414 4.94772 13.1051 5.31999 13.13C6.54999 13.25 8.52999 13.27 9.23999 13.3V13.66C9.23999 15.39 9.02999 19.37 8.93999 21.19V22.03C8.92917 22.1618 8.95757 22.2938 9.02163 22.4095C9.08569 22.5252 9.18255 22.6193 9.29999 22.68C9.40876 22.7212 9.52716 22.7299 9.64079 22.7051C9.75441 22.6802 9.85837 22.6229 9.93999 22.54C10.1209 22.3706 10.2912 22.1903 10.45 22C11.26 21.05 12.92 19 14.51 16.82C15.8614 15.0705 17.1101 13.2441 18.25 11.35C18.4471 11.0481 18.5385 10.6894 18.51 10.33ZM17.11 11.39C15.7 13.62 11.99 18.39 10.11 20.59C10.11 19.49 10.23 17.98 10.28 16.59C10.33 15.2 10.35 13.82 10.28 13.2C10.2946 13.0504 10.2946 12.8997 10.28 12.75C10.263 12.661 10.2238 12.5777 10.1662 12.5078C10.1085 12.4379 10.0341 12.3836 9.94999 12.35C9.7278 12.2945 9.49884 12.2709 9.26999 12.28C8.26999 12.28 6.16999 12.28 5.06999 12.14L5.46999 11.57C7.05999 9.36001 10.72 4.57001 12.47 2.66001C12.64 2.47001 12.79 2.25001 12.92 2.08001C12.9249 2.11986 12.9249 2.16016 12.92 2.20001C12.97 3.39001 12.78 6.09001 12.73 7.82001C12.6938 8.31602 12.6938 8.814 12.73 9.31001C12.7463 9.47038 12.8254 9.61778 12.95 9.72001C13.1546 9.82979 13.3789 9.89778 13.61 9.92001C14.46 10.06 16.16 10.2 17.15 10.48C17.2718 10.5268 17.3863 10.5908 17.49 10.67C17.42 10.85 17.27 11.13 17.11 11.39Z" fill="black"/>
</g>
<defs>
<clipPath id="clip0_1046_5597">
<rect width="24" height="24" fill="white"/>
</clipPath>
</defs>
</svg>
