<svg width="24" height="24" viewBox="0 0 24 24" fill="none" xmlns="http://www.w3.org/2000/svg">
<g clip-path="url(#clip0_1047_6010)">
<path fill-rule="evenodd" clip-rule="evenodd" d="M8.92001 10.57C8.69462 10.9952 8.42298 11.3943 8.11001 11.76C7.79001 12.13 8.31001 12.24 8.81001 12.04C9.24206 11.6877 9.64044 11.296 10 10.87C10.2215 10.5827 10.4252 10.2821 10.61 9.96998C10.7946 9.64749 10.9583 9.31347 11.1 8.96998C11.2324 8.61292 11.3328 8.24481 11.4 7.86998C11.4 7.32998 10.84 7.86998 10.4 8.31998C10.3 8.49998 10.04 8.72998 9.94001 8.89998C9.55001 9.48998 9.26001 10.05 8.92001 10.57Z" fill="black"/>
<path fill-rule="evenodd" clip-rule="evenodd" d="M12.68 10.65C12.9146 11.1122 13.2257 11.5315 13.6 11.89C13.97 12.17 14.89 12.13 14.51 11.74C14.2501 11.4483 14.0497 11.1086 13.92 10.74C13.6425 10.1921 13.3987 9.62769 13.19 9.05002C13.05 8.69002 12.89 8.53002 12.75 8.18002C12.61 7.83002 11.66 7.25002 11.82 8.01002C11.8435 8.34563 11.9038 8.67763 12 9.00002C12.1613 9.57476 12.3895 10.1286 12.68 10.65Z" fill="black"/>
<path fill-rule="evenodd" clip-rule="evenodd" d="M7.16001 17.73C7.31785 17.258 7.44807 16.7772 7.55001 16.29C7.74075 15.342 7.83457 14.377 7.83001 13.41C7.54001 13.19 7.17001 13.24 7.11001 13.72C6.96956 14.4925 6.77576 15.2543 6.53001 16L6.11001 17.36L5.66001 18.71C5.32471 19.6866 4.93749 20.6447 4.50001 21.58C4.38001 21.88 5.12001 21.81 5.31001 21.58C5.80398 20.7988 6.24175 19.9834 6.62001 19.14C6.82564 18.6802 7.00591 18.2095 7.16001 17.73Z" fill="black"/>
<path fill-rule="evenodd" clip-rule="evenodd" d="M23.89 21.62C23.6774 21.4001 23.5078 21.1423 23.39 20.86C23.2046 20.3888 23.0444 19.9082 22.91 19.42C22.76 18.96 22.65 18.49 22.53 18.03C22.41 17.57 22.31 17.1 22.22 16.62C22.16 16.34 22.11 16.06 22.05 15.77C21.86 14.83 21.68 13.87 21.51 12.92C22.28 12.76 21.51 11.79 21.42 11.78C20.1586 11.5098 18.945 11.0513 17.82 10.42C17.34 10.16 16.87 9.88 16.4 9.58C15.9152 9.29451 15.4477 8.98063 15 8.64C12.11 6.29 11.9 5.72 11.9 5.72V4.98C12.62 4.74 13.35 4.63 14.06 4.41C14.4041 4.30944 14.7387 4.17894 15.06 4.02C15.3918 3.83135 15.7064 3.61384 16 3.37C16.0524 3.32046 16.0941 3.26078 16.1226 3.19458C16.1511 3.12838 16.1658 3.05707 16.1658 2.985C16.1658 2.91292 16.1511 2.84161 16.1226 2.77541C16.0941 2.70922 16.0524 2.64953 16 2.6C15.9227 2.53013 15.835 2.47277 15.74 2.43C15.59 2.36 15.37 2.33 15.24 2.28L13.6 1.64L12.6 1.27C12.4075 1.16426 12.2068 1.07398 12 0.999996C11.8762 0.950733 11.7429 0.930217 11.61 0.939996C11.4688 0.94193 11.3334 0.996184 11.23 1.09225C11.1265 1.18832 11.0624 1.31936 11.05 1.46C11.0317 1.56924 11.0317 1.68076 11.05 1.79C11.05 1.87 11.11 1.95 11.12 2.01V2.71V4.6C11.12 5.08 11.19 5.6 11.24 6.05L9.61001 7.58C8.98076 8.17385 8.31261 8.72507 7.61001 9.23C6.88341 9.76997 6.12174 10.2611 5.33001 10.7C4.55001 11.15 3.75001 11.57 2.93001 11.97C2.85415 12.0031 2.79407 12.0643 2.76237 12.1407C2.73067 12.2172 2.72983 12.3029 2.76001 12.38C2.76001 12.38 2.76001 12.38 2.76001 12.45C2.61001 13.84 2.47001 15.21 2.20001 16.55C2.02923 17.4387 1.78506 18.3117 1.47001 19.16C1.34001 19.51 1.19001 19.86 1.04001 20.16C0.890006 20.46 0.720006 20.84 0.550006 21.16C0.550006 21.25 0.190006 21.67 0.100006 21.88C0.0603333 22.0001 0.0603333 22.1299 0.100006 22.25C0.117755 22.345 0.15784 22.4345 0.216954 22.511C0.276069 22.5875 0.352521 22.6488 0.440006 22.69C0.825239 22.8438 1.22848 22.948 1.64001 23H2.98001C4.00001 23 5.00001 22.94 6.00001 23C8.44001 23 10.89 23.12 13.34 23.13C14.4 23.13 15.45 23.13 16.51 23.06L19.3 22.86C20.76 22.73 22.3 22.57 23.46 22.44C23.5187 22.4321 23.5738 22.407 23.6183 22.3679C23.6628 22.3287 23.6947 22.2773 23.71 22.22C23.777 22.2067 23.8392 22.1756 23.89 22.13C23.9277 22.099 23.958 22.0601 23.9789 22.016C23.9997 21.9719 24.0105 21.9238 24.0105 21.875C24.0105 21.8262 23.9997 21.7781 23.9789 21.734C23.958 21.6899 23.9277 21.651 23.89 21.62ZM12.13 2.76V2.29L13.13 2.68L14.61 3.2C14.3673 3.3646 14.1053 3.49893 13.83 3.6C13.23 3.85 12.6 4 11.98 4.24C12 3.75 12.08 3.26 12.13 2.76ZM6.27001 11.28C6.93887 10.9354 7.58668 10.5514 8.21001 10.13C8.21001 10.13 11.6 6.85 11.66 6.61C12.4556 7.66313 13.3681 8.6226 14.38 9.47C14.8262 9.84023 15.3011 10.1746 15.8 10.47C16.3005 10.7849 16.8217 11.0655 17.36 11.31C18.3161 11.7493 19.3242 12.0652 20.36 12.25H19.8L15.34 12.16H10.41C4.68001 12.27 7.41001 12.29 3.69001 12.32C4.56977 12.0245 5.43128 11.6773 6.27001 11.28ZM8.64001 21.86V21.92C7.78001 21.92 6.92001 21.86 6.06001 21.85C3.71001 21.92 2.58001 21.92 1.69001 21.94L1.33001 21.84C1.33001 21.74 1.39001 21.66 1.40001 21.63C1.56001 21.28 1.72001 20.92 1.86001 20.56C2.00001 20.2 2.14001 19.82 2.27001 19.45C2.55532 18.5448 2.76931 17.6186 2.91001 16.68C3.10001 15.47 3.19001 14.24 3.28001 12.99C3.38001 12.99 6.72001 13.23 9.20001 13.28H11C10.9 13.99 10.78 14.67 10.64 15.34C10.5 16.01 10.35 16.61 10.19 17.26C10.03 17.91 9.89001 18.51 9.69001 19.16C9.55363 19.745 9.37653 20.3197 9.16001 20.88C9.0415 21.2329 8.86583 21.564 8.64001 21.86ZM13.38 22.08C12.07 22.08 10.75 21.99 9.44001 21.94C9.61604 21.7167 9.77324 21.4793 9.91001 21.23C10.1996 20.6665 10.4534 20.0854 10.67 19.49C10.84 19.06 11 18.63 11.13 18.2C11.3164 17.5433 11.4601 16.8753 11.56 16.2V16.1V16.25C11.6642 16.9879 11.8112 17.7191 12 18.44C12.2567 19.2859 12.6268 20.0933 13.1 20.84C13.4231 21.3175 13.8177 21.7425 14.27 22.1L13.38 22.08ZM16.51 22.08H15.51C15.51 22.08 15.51 22.03 15.45 22.02C14.9328 21.6862 14.4957 21.2423 14.17 20.72C13.6735 19.9163 13.3184 19.0336 13.12 18.11C12.96 17.58 12.84 17.05 12.72 16.53C12.6 16.01 12.44 15.48 12.33 14.94C12.22 14.4 12.13 13.83 12.05 13.26H12.28C12.66 13.26 12.66 13.26 19.85 12.99H20.85C20.85 13.99 20.9 14.99 21.01 15.93C21.01 16.23 21.09 16.53 21.15 16.83C21.2382 17.3296 21.355 17.8238 21.5 18.31C21.6384 18.7994 21.8053 19.2802 22 19.75C22.2032 20.2489 22.4335 20.7363 22.69 21.21C22.8061 21.4028 22.9365 21.5867 23.08 21.76C18.68 22.1 16.61 22.12 16.51 22.12V22.08Z" fill="black"/>
<path fill-rule="evenodd" clip-rule="evenodd" d="M17.6 18.33C17.28 17.61 16.95 16.9 16.69 16.15C16.43 15.4 16.3 14.49 16.05 13.55C15.79 13.15 15.31 13.33 15.33 13.69C15.4405 14.5706 15.6109 15.4426 15.84 16.3C15.98 16.8 16.15 17.3 16.34 17.78C16.5338 18.2651 16.7541 18.7391 17 19.2C17.5064 20.0994 18.1136 20.9382 18.81 21.7C19.26 21.92 19.81 21.7 19.48 21.42C18.7816 20.4354 18.1534 19.4029 17.6 18.33Z" fill="black"/>
</g>
<defs>
<clipPath id="clip0_1047_6010">
<rect width="24" height="24" fill="white"/>
</clipPath>
</defs>
</svg>
