<svg width="24" height="24" viewBox="0 0 24 24" fill="none" xmlns="http://www.w3.org/2000/svg">
<g clip-path="url(#clip0_1047_5998)">
<path fill-rule="evenodd" clip-rule="evenodd" d="M16.32 17C15.3838 17.791 14.2221 18.2669 13 18.36C12.4776 18.4051 11.9524 18.4051 11.43 18.36C10.8985 18.3267 10.3703 18.2531 9.84999 18.14C8.59651 17.9075 7.39442 17.4538 6.29999 16.8C6.23586 16.7564 6.15733 16.7393 6.08089 16.7524C6.00446 16.7654 5.93604 16.8076 5.88999 16.87C5.86571 16.9008 5.84815 16.9363 5.83847 16.9743C5.82879 17.0123 5.8272 17.0519 5.8338 17.0905C5.8404 17.1292 5.85504 17.166 5.87678 17.1987C5.89852 17.2313 5.92687 17.259 5.95999 17.28C7.02356 18.1436 8.24685 18.7892 9.55999 19.18C10.1337 19.3469 10.7238 19.4508 11.32 19.49C11.9214 19.5304 12.5256 19.5002 13.12 19.4C14.5216 19.1777 15.8093 18.4951 16.78 17.46C16.8115 17.4298 16.8368 17.3937 16.8543 17.3537C16.8719 17.3137 16.8814 17.2707 16.8823 17.227C16.8833 17.1834 16.8756 17.14 16.8597 17.0993C16.8439 17.0587 16.8202 17.0215 16.79 16.99C16.7598 16.9585 16.7237 16.9332 16.6837 16.9156C16.6437 16.8981 16.6007 16.8886 16.5571 16.8876C16.5134 16.8867 16.47 16.8944 16.4293 16.9102C16.3887 16.9261 16.3515 16.9498 16.32 16.98V17Z" fill="black"/>
<path fill-rule="evenodd" clip-rule="evenodd" d="M15.29 9.26C15.49 9.26 15.62 9.16 15.73 8.12C15.74 8.00689 15.74 7.89311 15.73 7.78C15.728 7.66827 15.7112 7.5573 15.68 7.45C15.4 6.37 15.19 6.45 15.08 6.45C14.97 6.45 14.76 6.45 14.62 7.55C14.61 7.66311 14.61 7.77689 14.62 7.89C14.6303 8.00155 14.6504 8.11197 14.68 8.22C14.94 9.21 15.08 9.28 15.29 9.26Z" fill="black"/>
<path fill-rule="evenodd" clip-rule="evenodd" d="M14.23 10.89C14.5192 10.86 14.8108 10.86 15.1 10.89H15.55H15.85C16.0913 10.9132 16.3275 10.974 16.55 11.07C16.6204 11.1161 16.7053 11.1344 16.7885 11.1215C16.8716 11.1086 16.9469 11.0653 17 11C17.0268 10.9657 17.0463 10.9262 17.0574 10.8841C17.0684 10.8419 17.0707 10.798 17.0641 10.7549C17.0576 10.7119 17.0423 10.6706 17.0192 10.6336C16.9962 10.5967 16.9658 10.5648 16.93 10.54C16.6686 10.266 16.3515 10.0511 16 9.91002C15.8371 9.84436 15.6651 9.80389 15.49 9.79002C15.3243 9.76523 15.1557 9.76523 14.99 9.79002C14.6276 9.90058 14.2886 10.0768 13.99 10.31C13.9209 10.3446 13.8672 10.4038 13.8394 10.4759C13.8117 10.5481 13.8119 10.628 13.84 10.7C13.851 10.7395 13.8703 10.7762 13.8966 10.8077C13.9228 10.8392 13.9554 10.8647 13.9923 10.8827C14.0291 10.9006 14.0694 10.9106 14.1104 10.9118C14.1513 10.9131 14.1921 10.9057 14.23 10.89Z" fill="black"/>
<path fill-rule="evenodd" clip-rule="evenodd" d="M6.54 11.22C6.75036 11.0843 6.99063 11.0019 7.24 10.98C7.3266 10.975 7.4134 10.975 7.5 10.98L7.88 10.93C8.24461 10.875 8.61539 10.875 8.98 10.93C9.06235 10.9598 9.15302 10.9567 9.23313 10.9213C9.31323 10.8859 9.37659 10.8209 9.41 10.74C9.43924 10.6564 9.4347 10.5647 9.39735 10.4844C9.35999 10.4041 9.29278 10.3415 9.21 10.31C8.8743 10.1003 8.50588 9.94817 8.12 9.85998C7.94083 9.83557 7.75917 9.83557 7.58 9.85998C7.37957 9.86963 7.18277 9.91714 7 9.99998C6.60775 10.1824 6.28252 10.4832 6.07 10.86C6.01565 10.9144 5.98512 10.9881 5.98512 11.065C5.98512 11.1419 6.01565 11.2156 6.07 11.27C6.1017 11.3027 6.14043 11.3278 6.18326 11.3433C6.22609 11.3588 6.27189 11.3644 6.31719 11.3595C6.36249 11.3547 6.40609 11.3397 6.4447 11.3155C6.4833 11.2913 6.51589 11.2586 6.54 11.22Z" fill="black"/>
<path fill-rule="evenodd" clip-rule="evenodd" d="M7.81001 9.29002C8.05001 9.29002 8.11001 9.14002 8.24001 8.19002C8.25031 8.0836 8.25031 7.97643 8.24001 7.87002V7.56002C8.01001 6.56002 7.83001 6.56002 7.70001 6.56002C7.57001 6.56002 7.37001 6.45002 7.17001 7.56002C7.16001 7.66979 7.16001 7.78024 7.17001 7.89002C7.15964 7.99643 7.15964 8.1036 7.17001 8.21002C7.45001 9.36002 7.68001 9.31002 7.81001 9.29002Z" fill="black"/>
<path fill-rule="evenodd" clip-rule="evenodd" d="M23.8 8.12999C23.5615 7.58074 23.2026 7.09205 22.75 6.69999C22.8472 6.57226 22.931 6.43487 23 6.28999C23.1097 6.12052 23.2002 5.93942 23.27 5.74999C23.4864 5.2592 23.5599 4.71731 23.4821 4.18662C23.4042 3.65592 23.1782 3.15796 22.83 2.74999C22.4477 2.27062 21.9037 1.94709 21.3 1.83999C20.6392 1.77024 19.9715 1.87005 19.36 2.12999C19.286 2.02216 19.2058 1.91866 19.12 1.81999C18.9487 1.62706 18.7458 1.46473 18.52 1.33999C18.3025 1.23611 18.0745 1.15566 17.84 1.09999C17.3498 0.973675 16.8366 0.965838 16.3427 1.07712C15.8489 1.18841 15.3886 1.41562 15 1.73999C14.7154 1.98938 14.4878 2.29704 14.3325 2.64211C14.1772 2.98718 14.0979 3.36159 14.1 3.73999C12.4224 3.30115 10.6551 3.34273 9 3.85999C8.87842 3.5388 8.67991 3.25233 8.42189 3.02569C8.16386 2.79904 7.85419 2.63914 7.52 2.55999C7.17438 2.48989 6.81792 2.49282 6.47349 2.56859C6.12907 2.64436 5.80429 2.79131 5.52 2.99999L4.84 3.69999C4.71762 3.58906 4.58349 3.49181 4.44 3.40999C4.29993 3.32415 4.15271 3.25055 4 3.18999C3.63482 3.07161 3.24783 3.03621 2.86723 3.08638C2.48663 3.13655 2.12203 3.27102 1.8 3.47999C1.17718 3.8636 0.682803 4.42412 0.380001 5.08999C0.0895752 5.68284 -0.0413923 6.34112 1.41701e-06 6.99999C0.038052 7.49528 0.259062 7.95869 0.620001 8.29999L1.41 8.88999C1.26497 9.21271 1.14787 9.54726 1.06 9.88999C1.03327 10.2425 1.09309 10.5963 1.23426 10.9205C1.37543 11.2446 1.59367 11.5294 1.87 11.75C2.12469 11.9439 2.4251 12.0688 2.74219 12.1126C3.05927 12.1564 3.38229 12.1176 3.68 12V12.21C3.88143 12.7188 4.13619 13.2048 4.44 13.66C4.05834 13.9412 3.72122 14.2783 3.44 14.66C2.83108 15.4942 2.51788 16.5077 2.55 17.54C2.64026 18.1934 2.86449 18.8211 3.20865 19.3838C3.5528 19.9465 4.00946 20.432 4.55 20.81C6.04704 21.9247 7.80121 22.6436 9.65 22.9C11.667 23.1826 13.7223 22.9874 15.65 22.33C16.9947 21.8667 18.1643 21.0008 19 19.85C19.9418 18.4734 20.3012 16.7804 20 15.14C19.8828 14.6687 19.6528 14.2328 19.33 13.87C19.5815 13.3135 19.7791 12.7342 19.92 12.14V11.99C20.2901 12.1844 20.7019 12.286 21.12 12.286C21.5381 12.286 21.9499 12.1844 22.32 11.99C22.7504 11.7773 23.1259 11.4681 23.4173 11.0865C23.7087 10.7049 23.9081 10.2612 24 9.78999C24.092 9.22888 24.0226 8.65319 23.8 8.12999ZM2.33 11.2C2.16959 11.0478 2.04781 10.8595 1.97476 10.6508C1.90172 10.4421 1.87951 10.219 1.91 9.99999C2.03806 9.69293 2.18158 9.39254 2.34 9.09999C2.40531 8.96658 2.42296 8.81482 2.39 8.66999C2.33817 8.52166 2.25649 8.38553 2.15 8.26999C1.94 8.02999 1.54 7.79999 1.38 7.60999C1.27294 7.48792 1.1927 7.34474 1.14447 7.18971C1.09624 7.03468 1.08109 6.87124 1.1 6.70999C1.13358 6.31757 1.23864 5.9346 1.41 5.57999C1.61904 5.11193 1.96852 4.72051 2.41 4.45999C2.59541 4.32616 2.80782 4.23445 3.03236 4.19127C3.25691 4.14809 3.48818 4.15448 3.71 4.20999C3.80676 4.24148 3.90047 4.28164 3.99 4.32999C4.08852 4.37184 4.17968 4.42924 4.26 4.49999C4.26 4.49999 4.46 4.68999 4.54 4.74999C4.60813 4.79237 4.68529 4.81808 4.76522 4.82503C4.84514 4.83198 4.92558 4.81997 5 4.78999C5.12845 4.72086 5.24357 4.62944 5.34 4.51999C5.57 4.27999 5.76 3.88999 5.99 3.69999C6.17557 3.54806 6.38992 3.4352 6.62019 3.36818C6.85045 3.30117 7.09189 3.28137 7.33 3.30999C7.54661 3.35136 7.75026 3.44367 7.92414 3.57929C8.09802 3.71492 8.23714 3.88997 8.33 4.08999C8.2 4.14999 8.06 4.18999 7.94 4.25999C6.79852 4.89088 5.79805 5.74843 5 6.77999C4.11266 7.79381 3.57608 9.06687 3.47 10.41C3.45863 10.7453 3.48547 11.0808 3.55 11.41C3.34676 11.4892 3.12579 11.5115 2.91083 11.4745C2.69588 11.4375 2.49507 11.3426 2.33 11.2ZM4.33 11.96C4.1765 11.4688 4.11547 10.9534 4.15 10.44C4.31206 9.28356 4.83732 8.20852 5.65 7.36999C6.43043 6.47616 7.38264 5.7484 8.45 5.22999C9.50164 4.76987 10.6371 4.53233 11.785 4.53233C12.9329 4.53233 14.0684 4.76987 15.12 5.22999C16.1945 5.61176 17.1447 6.27886 17.8688 7.15972C18.5928 8.04058 19.0634 9.10196 19.23 10.23C19.2965 10.8201 19.2729 11.4169 19.16 12C19.0645 12.4919 18.9239 12.9739 18.74 13.44C18.336 13.2126 17.8833 13.0857 17.42 13.07C16.8667 13.0485 16.3158 13.1545 15.81 13.38L15.5 13.52C15.5 13.52 15.55 13.44 15.55 13.39C15.6157 13.2197 15.6724 13.0462 15.72 12.87C15.7291 12.7969 15.7291 12.723 15.72 12.65C15.7248 12.5767 15.7248 12.5032 15.72 12.43C15.43 11.56 15.19 11.65 15.17 11.65C14.92 11.65 14.68 12.39 14.65 12.47C14.6402 12.543 14.6402 12.617 14.65 12.69C14.6396 12.763 14.6396 12.837 14.65 12.91C14.713 13.081 14.7865 13.248 14.87 13.41C14.8732 13.4793 14.8995 13.5456 14.9449 13.5982C14.9902 13.6508 15.0519 13.6866 15.12 13.7C14.8075 13.8604 14.5037 14.0373 14.21 14.23C14.1561 13.8915 14.0186 13.5719 13.81 13.3C13.4093 12.8277 12.852 12.5154 12.24 12.42C11.6434 12.2683 11.0131 12.322 10.4507 12.5724C9.88828 12.8227 9.42658 13.2552 9.14 13.8C9.14 13.89 9.08 13.98 9.05 14.07C8.74253 13.8131 8.40708 13.5917 8.05 13.41C8.1 13.23 8.17 13.09 8.21 12.9C8.21972 12.8303 8.21972 12.7597 8.21 12.69C8.2204 12.617 8.2204 12.543 8.21 12.47C7.96 11.56 7.71 11.65 7.69 11.65C7.44 11.65 7.16 12.38 7.14 12.46C7.13037 12.5397 7.13037 12.6203 7.14 12.7C7.13523 12.7766 7.13523 12.8534 7.14 12.93L7.2 13.1C6.81409 12.969 6.4071 12.9114 6 12.93C5.64598 12.982 5.30596 13.1044 5 13.29C4.73755 12.8846 4.51962 12.4521 4.35 12L4.33 11.96ZM13.06 15.2C12.9397 15.4212 12.7743 15.6148 12.5744 15.7681C12.3746 15.9214 12.1449 16.031 11.9 16.09C11.572 16.1747 11.228 16.1747 10.9 16.09C10.5774 16.0056 10.2944 15.811 10.1 15.54C9.94966 15.3317 9.85203 15.0901 9.81546 14.8358C9.77888 14.5815 9.80446 14.3222 9.89 14.08C10.36 12.7 12.08 13.17 12.11 13.18C12.5112 13.2619 12.8676 13.49 13.11 13.82C13.2374 14.0288 13.3023 14.2698 13.297 14.5144C13.2916 14.759 13.2163 14.9969 13.08 15.2H13.06ZM18.19 19.27C17.2365 20.4451 15.9035 21.2513 14.42 21.55C12.9069 21.9077 11.3411 21.9857 9.8 21.78C8.14731 21.5715 6.57114 20.9603 5.21 20C4.76976 19.7109 4.39352 19.3345 4.10455 18.8942C3.81558 18.4539 3.62003 17.9589 3.53 17.44C3.48258 16.6128 3.71121 15.7932 4.18 15.11C4.37723 14.7483 4.64682 14.4312 4.97199 14.1783C5.29716 13.9254 5.67092 13.7421 6.07 13.64C6.55093 13.5745 7.04061 13.6366 7.49 13.82C7.9589 14.005 8.39458 14.2651 8.78 14.59C8.83119 14.6303 8.89485 14.6515 8.96 14.65C8.90267 15.1574 9.01144 15.6697 9.27 16.11C9.56869 16.585 10.0256 16.9391 10.56 17.11C11.0812 17.2764 11.6379 17.2972 12.17 17.17C12.5615 17.0649 12.9267 16.8789 13.2419 16.624C13.5571 16.3691 13.8154 16.0509 14 15.69C14.1043 15.4789 14.1752 15.2529 14.21 15.02C14.7831 14.6232 15.3965 14.288 16.04 14.02C16.4486 13.8526 16.8891 13.7775 17.33 13.8C17.7553 13.8097 18.164 13.9665 18.4867 14.2436C18.8094 14.5207 19.0261 14.9011 19.1 15.32C19.3334 16.7024 19.0137 18.1212 18.21 19.27H18.19ZM23.04 9.65999C22.9957 10.0035 22.8712 10.3319 22.6767 10.6185C22.4821 10.9051 22.2229 11.142 21.92 11.31C21.6299 11.4887 21.2958 11.5833 20.955 11.5833C20.6142 11.5833 20.2801 11.4887 19.99 11.31C20.0201 10.9473 20.0201 10.5827 19.99 10.22C19.8728 8.90428 19.393 7.64686 18.6039 6.58759C17.8147 5.52833 16.7472 4.70874 15.52 4.21999C15.24 4.09999 14.95 3.99999 14.66 3.89999C14.6526 3.59199 14.7164 3.28644 14.8465 3.00717C14.9766 2.72789 15.1694 2.48245 15.41 2.28999C15.729 2.06159 16.0995 1.91559 16.4886 1.865C16.8777 1.8144 17.2732 1.86078 17.64 1.99999C17.7998 2.04208 17.9517 2.10961 18.09 2.19999C18.1901 2.24906 18.2763 2.32231 18.3409 2.4131C18.4055 2.5039 18.4464 2.60938 18.46 2.71999C18.4891 2.8211 18.5366 2.91601 18.6 2.99999C18.6681 3.12555 18.7816 3.22034 18.9173 3.26495C19.053 3.30957 19.2007 3.30064 19.33 3.23999C19.8211 3.03022 20.3464 2.91162 20.88 2.88999C21.099 2.89797 21.3134 2.95515 21.5073 3.05729C21.7012 3.15942 21.8696 3.30389 22 3.47999C22.2124 3.73053 22.3509 4.03522 22.4 4.35999C22.4492 4.69807 22.4078 5.04315 22.28 5.35999C22.2215 5.50048 22.1547 5.63738 22.08 5.76999C22.0135 5.88122 21.9401 5.9881 21.86 6.08999C21.7458 6.15163 21.6385 6.22539 21.54 6.30999C21.4449 6.41071 21.3882 6.54169 21.38 6.67999C21.3738 6.77444 21.3916 6.86893 21.4319 6.95462C21.4721 7.04031 21.5334 7.11441 21.61 7.16999C22.0577 7.46339 22.4448 7.84025 22.75 8.27999C23.018 8.68687 23.1282 9.17758 23.06 9.65999H23.04Z" fill="black"/>
</g>
<defs>
<clipPath id="clip0_1047_5998">
<rect width="24" height="24" fill="white"/>
</clipPath>
</defs>
</svg>
