<svg width="24" height="24" viewBox="0 0 24 24" fill="none" xmlns="http://www.w3.org/2000/svg">
<g clip-path="url(#clip0_1044_5199)">
<path fill-rule="evenodd" clip-rule="evenodd" d="M10.83 19.92C10.5238 20.7015 10.0571 21.4101 9.45999 22C9.34999 22.12 9.45999 22.3 9.45999 20.34C9.55701 18.8608 9.49331 17.3755 9.26999 15.91C9.1183 15.2362 9.02793 14.5501 8.99999 13.86C9.0158 13.8179 9.02227 13.7729 9.01895 13.7281C9.01564 13.6833 9.00262 13.6397 8.9808 13.6005C8.95898 13.5612 8.92888 13.5271 8.89258 13.5006C8.85628 13.4741 8.81466 13.4558 8.77059 13.447C8.72653 13.4382 8.68107 13.4391 8.63737 13.4496C8.59368 13.4601 8.55279 13.4799 8.51753 13.5078C8.48228 13.5357 8.45351 13.5709 8.43321 13.611C8.41292 13.6511 8.40158 13.6951 8.39999 13.74C8.29305 14.4883 8.26289 15.2456 8.30999 16C8.25614 17.4658 8.31632 18.9335 8.48999 20.39C8.48999 20.63 8.65999 21.71 8.65999 22.18C8.08018 21.8727 7.55348 21.4743 7.09999 21C6.50999 20.34 6.40999 19.84 6.09999 20C6.02949 20.0383 5.97656 20.1023 5.95232 20.1788C5.92808 20.2553 5.93441 20.3381 5.96999 20.41C6.36421 21.3826 6.97663 22.2516 7.75999 22.95C8.28999 23.38 9.26999 23.81 9.90999 23.28C10.1136 23.0983 10.283 22.8815 10.41 22.64C10.8987 21.9465 11.2672 21.1758 11.5 20.36C11.5382 20.2198 11.5583 20.0753 11.56 19.93C11.5613 19.8332 11.5241 19.7398 11.4566 19.6704C11.3891 19.6011 11.2968 19.5613 11.2 19.56C11.1032 19.5587 11.0098 19.5959 10.9404 19.6634C10.871 19.7309 10.8313 19.8232 10.83 19.92Z" fill="black"/>
<path fill-rule="evenodd" clip-rule="evenodd" d="M17.17 15.62C16.9382 15.0818 16.657 14.5662 16.33 14.08C16 13.53 15.67 13.14 15.03 13.19C13.39 13.38 12.56 14.97 11.88 16.31C11.8517 16.3817 11.8512 16.4614 11.8785 16.5335C11.9059 16.6056 11.9591 16.6649 12.0278 16.6999C12.0965 16.7349 12.1758 16.743 12.2501 16.7227C12.3245 16.7024 12.3886 16.6551 12.43 16.59L13.06 15.74C13.5087 15.2591 14.0239 14.8449 14.59 14.51C14.69 14.79 14.39 16.6 14.3 18.12C14.3 18.91 14.25 22.17 14.3 22.25C14.3 22.7 14.3 23.32 14.73 23.25C14.8145 23.2309 14.8881 23.1792 14.9349 23.1062C14.9817 23.0333 14.9979 22.9448 14.98 22.86C14.91 22.05 15.32 21.34 15.47 19.05C15.54 17.82 15.47 15.05 15.39 14.6C16.0175 15.2215 16.508 15.9675 16.83 16.79C16.83 16.8815 16.8663 16.9693 16.931 17.034C16.9957 17.0987 17.0835 17.135 17.175 17.135C17.2665 17.135 17.3542 17.0987 17.4189 17.034C17.4836 16.9693 17.52 16.8815 17.52 16.79C17.453 16.3868 17.3354 15.9937 17.17 15.62Z" fill="black"/>
<path fill-rule="evenodd" clip-rule="evenodd" d="M21.26 7.71001C21.9198 6.85018 22.272 5.79376 22.26 4.71001C21.92 0.710005 14.75 -1.62999 12.26 3.17001C12.115 2.98825 11.943 2.82975 11.75 2.70001C11.0477 2.18085 10.2073 1.88139 9.33498 1.83942C8.46264 1.79745 7.5974 2.01485 6.84851 2.46419C6.09961 2.91353 5.50061 3.57466 5.12713 4.36413C4.75364 5.1536 4.62241 6.03602 4.75 6.90001C1.43 6.45001 -1.25 9.74 0.609996 13.38C1.18 14.48 3.4 15.33 4.07 14.99C4.10545 14.9723 4.13707 14.9477 4.16304 14.9178C4.18902 14.8878 4.20884 14.8531 4.22137 14.8155C4.23391 14.7779 4.23892 14.7381 4.23611 14.6986C4.2333 14.6591 4.22272 14.6205 4.205 14.585C4.18727 14.5495 4.16273 14.5179 4.13278 14.492C4.10283 14.466 4.06806 14.4462 4.03046 14.4336C3.99285 14.4211 3.95314 14.4161 3.9136 14.4189C3.87405 14.4217 3.83545 14.4323 3.8 14.45C3.29713 14.4203 2.80675 14.2815 2.36294 14.0432C1.91913 13.8049 1.53253 13.4728 1.23 13.07C0.923618 12.4231 0.766417 11.7157 0.769996 11C0.777706 10.5273 0.88753 10.0618 1.09194 9.63542C1.29636 9.20909 1.59053 8.83198 1.95429 8.52995C2.31806 8.22791 2.74283 8.0081 3.19948 7.88556C3.65614 7.76302 4.13389 7.74066 4.6 7.82001C4.89016 7.8824 5.1675 7.99401 5.42 8.15C5.52835 8.1948 5.64918 8.19926 5.76054 8.16256C5.87191 8.12587 5.96642 8.05046 6.02692 7.95002C6.08742 7.84958 6.10991 7.73078 6.09029 7.61518C6.07067 7.49959 6.01025 7.39486 5.92 7.32001C5.67 7.08001 5.73 6.51 5.74 6.14001C5.77492 5.53577 5.97289 4.95228 6.31287 4.45155C6.65285 3.95081 7.12213 3.55154 7.67086 3.29615C8.21958 3.04076 8.82724 2.93881 9.42927 3.00111C10.0313 3.06342 10.6052 3.28766 11.09 3.65001C11.83 4.16001 11.61 5.11001 12.34 5.09001C12.81 5.09001 12.85 4.77001 13.26 3.76001C15.08 -0.0399947 20.9 1.86001 21.26 4.76001C21.2566 5.72108 20.9329 6.6536 20.34 7.41001C20.34 7.41001 19.79 7.74001 19.85 7.89001C19.7822 7.93476 19.7266 7.99566 19.6882 8.06723C19.6498 8.13879 19.6298 8.21879 19.63 8.30001C19.63 8.42001 20 8.98001 20.45 8.64001C23.21 8.00001 24.11 12.15 22.28 13.71C21.4572 14.3683 20.4855 14.8147 19.45 15.01C19.3695 15.0377 19.3019 15.0937 19.2598 15.1676C19.2176 15.2415 19.2038 15.3282 19.221 15.4116C19.2381 15.4949 19.2851 15.5691 19.353 15.6204C19.4209 15.6716 19.5052 15.6964 19.59 15.69C20.7473 15.4964 21.8374 15.015 22.76 14.29C24.9 12.56 24.22 8.08001 21.26 7.71001Z" fill="black"/>
</g>
<defs>
<clipPath id="clip0_1044_5199">
<rect width="24" height="24" fill="white"/>
</clipPath>
</defs>
</svg>
