<svg width="24" height="24" viewBox="0 0 24 24" fill="none" xmlns="http://www.w3.org/2000/svg">
<g clip-path="url(#clip0_1044_5214)">
<path fill-rule="evenodd" clip-rule="evenodd" d="M3.67 12.92C5.24 13.59 4.99 12.22 4.42 12.49C3.7298 12.2911 3.09833 11.9273 2.58 11.43C1.17 9.24999 1.76 7.70999 3.33 6.99999C3.89479 6.72577 4.52708 6.62154 5.15 6.69999C5.40774 6.76055 5.65417 6.86182 5.88 6.99999C5.98139 7.04972 6.09777 7.05952 6.20604 7.02742C6.31432 6.99533 6.40657 6.92371 6.46448 6.82676C6.5224 6.72981 6.54175 6.61464 6.51869 6.50409C6.49563 6.39354 6.43185 6.2957 6.34 6.22999C6.12 6.01999 6.18 5.51999 6.18 5.22999C6.20769 4.68393 6.38409 4.15581 6.69014 3.70272C6.99618 3.24962 7.42024 2.88879 7.91647 2.6592C8.4127 2.42962 8.96225 2.34001 9.50571 2.40008C10.0492 2.46014 10.5659 2.66758 11 2.99999C11.64 3.44999 11.46 4.31999 12.15 4.29999C12.2637 4.29724 12.374 4.26053 12.4666 4.19459C12.5593 4.12866 12.6301 4.03651 12.67 3.92999C12.8728 3.08568 13.3822 2.34688 14.0992 1.85715C14.8163 1.36741 15.6898 1.16171 16.55 1.27999C17.2765 1.33113 17.977 1.57118 18.5821 1.97636C19.1872 2.38154 19.676 2.93778 20 3.58999C20.2814 4.32399 20.2634 5.1391 19.95 5.85999C18.95 7.70999 18.52 7.36999 18.52 7.93999C18.52 8.07999 18.93 8.73999 19.45 8.37999C19.6804 8.31291 19.9228 8.29784 20.1597 8.33589C20.3967 8.37394 20.6222 8.46415 20.82 8.59999C21.99 9.42999 22.25 10.98 21.03 11.75C17.51 13.98 14.92 13.25 10.29 13.07C9.03595 13.0781 7.78595 12.9269 6.57 12.62C6.48778 12.5762 6.39155 12.5669 6.30247 12.5941C6.21339 12.6213 6.13876 12.6828 6.095 12.765C6.05124 12.8472 6.04193 12.9434 6.06913 13.0325C6.09632 13.1216 6.15778 13.1962 6.24 13.24C7.53832 13.6278 8.88503 13.8298 10.24 13.84C14.88 14.11 17.7 14.93 21.54 12.6C23.95 11.14 22.76 7.73999 20.39 7.25999C20.58 6.97999 20.79 6.70999 20.95 6.41999C21.1897 5.90786 21.3181 5.35074 21.3267 4.78535C21.3353 4.21997 21.224 3.65919 21 3.13999C19.76 0.139994 15 -1.16001 12.64 1.53999C11.92 2.34999 12.05 2.53999 11.98 2.41999C11.3555 1.83979 10.5654 1.46919 9.72 1.35999C9.11819 1.28744 8.50775 1.35262 7.93482 1.5506C7.36189 1.74858 6.84145 2.07418 6.41282 2.50281C5.98419 2.93144 5.65859 3.45188 5.46061 4.02481C5.26263 4.59774 5.19745 5.20818 5.27 5.80999C4.5784 5.7349 3.87908 5.83788 3.23849 6.10917C2.5979 6.38046 2.03732 6.81104 1.61 7.35999C0.610002 8.78999 1.03 10.36 2.01 11.8C2.49057 12.2712 3.05312 12.6508 3.67 12.92Z" fill="black"/>
<path fill-rule="evenodd" clip-rule="evenodd" d="M12.33 17.78C12.23 17.24 11.85 17.08 10.78 17.78C9.27395 18.9539 7.88119 20.2663 6.62 21.7C6.66 22.3667 7.07 22.4067 7.85 21.82C8.95838 20.9473 10.0105 20.0054 11 19C11.41 18.63 11.89 18.22 12.33 17.78Z" fill="black"/>
<path fill-rule="evenodd" clip-rule="evenodd" d="M2.83 20.86C2.34 21.56 2.96 21.51 3.94 21.19C4.99199 20.4564 5.93181 19.5738 6.73 18.57C6.82954 18.4595 6.93645 18.356 7.05 18.26C6.6 17.75 6.05 17.73 5.19 18.63C4.41 19.32 3.51 20.16 2.83 20.86Z" fill="black"/>
<path fill-rule="evenodd" clip-rule="evenodd" d="M16.73 18C16.91 17.36 16.61 17.19 15.38 17.88C12.8 20.3 11.76 21.25 11.11 21.88C10.46 22.51 11.25 22.43 12.73 21.77C14.2218 20.6929 15.5665 19.4255 16.73 18Z" fill="black"/>
<path fill-rule="evenodd" clip-rule="evenodd" d="M23.64 18.56C21.39 14.74 3.64 15.65 1.14 17.38C-0.56 18.58 -0.29 22.06 1.5 22.87C6.21 25.01 12.14 23.27 18.01 23.27C18.1028 23.27 18.1919 23.2331 18.2575 23.1675C18.3231 23.1019 18.36 23.0128 18.36 22.92C18.36 22.8272 18.3231 22.7382 18.2575 22.6725C18.1919 22.6069 18.1028 22.57 18.01 22.57C5.16 23 4 22.63 1.94 21.88C1 21.37 0.83 19 1.81 18.33C2.62 17.76 5.62 17.43 6.61 17.33C10.75 16.59 18.91 16.33 22.31 18.38C23.46 19.07 23.61 20.38 22.36 21.48C21.9774 21.8253 21.5245 22.0836 21.0325 22.2373C20.5405 22.3909 20.0211 22.4362 19.51 22.37C19.4355 22.3645 19.3615 22.3862 19.3017 22.4309C19.2418 22.4757 19.2002 22.5405 19.1843 22.6135C19.1685 22.6865 19.1796 22.7628 19.2156 22.8283C19.2515 22.8938 19.3099 22.9441 19.38 22.97C21.63 23.53 25.14 21.11 23.64 18.56Z" fill="black"/>
</g>
<defs>
<clipPath id="clip0_1044_5214">
<rect width="24" height="24" fill="white"/>
</clipPath>
</defs>
</svg>
