<svg width="24" height="24" viewBox="0 0 24 24" fill="none" xmlns="http://www.w3.org/2000/svg">
<g clip-path="url(#clip0_1047_6017)">
<path fill-rule="evenodd" clip-rule="evenodd" d="M23.71 15C23.3907 14.1026 22.8217 13.315 22.07 12.73C22.4822 12.1724 22.6968 11.4933 22.68 10.8C22.673 10.3382 22.5748 9.88224 22.3912 9.45838C22.2076 9.03452 21.9421 8.65108 21.61 8.33003C21.1746 7.92571 20.6557 7.62189 20.09 7.44003C19.4844 7.25572 18.8528 7.17128 18.22 7.19003C18.1475 6.24007 17.7103 5.35499 17 4.72003C16.5829 4.32403 16.0891 4.01769 15.5491 3.8199C15.009 3.62211 14.4342 3.53707 13.86 3.57003C12.9102 3.64135 11.9961 3.96216 11.21 4.50003C10.6203 4.91166 10.1032 5.41859 9.68001 6.00003C9.24482 5.67174 8.74712 5.43587 8.21747 5.3069C7.68782 5.17792 7.1374 5.15857 6.6 5.25003C5.95717 5.35603 5.34919 5.6148 4.82714 6.00459C4.3051 6.39438 3.88426 6.9038 3.6 7.49003C3.36118 7.99742 3.23171 8.54936 3.22 9.11003C3.22471 9.74671 3.30187 10.3808 3.45 11C2.12207 11.4493 1.02568 12.4055 0.400004 13.66C0.0669967 14.3634 -0.0536097 15.1486 0.0529629 15.9195C0.159535 16.6904 0.488658 17.4134 1 18C1.34077 18.4347 1.7575 18.804 2.23 19.09C2.91692 19.5001 3.66206 19.8035 4.44 19.99C4.47675 20.0022 4.51561 20.0066 4.55413 20.0029C4.59266 19.9993 4.63001 19.9877 4.66384 19.9689C4.69767 19.9501 4.72723 19.9245 4.75067 19.8937C4.7741 19.863 4.7909 19.8276 4.8 19.79C4.81881 19.7132 4.80753 19.6321 4.76849 19.5633C4.72945 19.4945 4.6656 19.4433 4.59 19.42C3.99552 19.2606 3.42165 19.0324 2.88 18.74C2.35105 18.4563 1.88768 18.0645 1.52 17.59C1.10164 17.1013 0.836744 16.5 0.758478 15.8614C0.680213 15.2228 0.792055 14.5753 1.08 14C1.38886 13.4313 1.81674 12.9359 2.33446 12.5476C2.85219 12.1593 3.44757 11.8873 4.08 11.75C4.18609 11.7262 4.27835 11.6611 4.33649 11.5692C4.39462 11.4773 4.41387 11.3661 4.39 11.26C4.22366 10.5728 4.14636 9.86699 4.16 9.16003C4.17158 8.72488 4.27018 8.29645 4.45 7.90003C4.67459 7.45904 5.00148 7.07823 5.40336 6.78943C5.80524 6.50063 6.27042 6.31225 6.76 6.24003C7.2425 6.16877 7.73509 6.21622 8.19511 6.37827C8.65513 6.54032 9.06871 6.81209 9.4 7.17003C9.45615 7.22922 9.52475 7.27519 9.60085 7.30459C9.67696 7.334 9.75865 7.3461 9.84 7.34003C9.92085 7.32996 9.99852 7.30238 10.0676 7.2592C10.1367 7.21602 10.1955 7.15829 10.24 7.09003C10.6475 6.42512 11.1931 5.85558 11.84 5.42003C12.4798 4.98404 13.2269 4.73158 14 4.69003C14.4183 4.66459 14.8374 4.72709 15.2301 4.87349C15.6228 5.01989 15.9804 5.24695 16.28 5.54003C16.5857 5.81067 16.8217 6.15103 16.9679 6.53226C17.1142 6.91349 17.1663 7.32435 17.12 7.73003C17.1089 7.81458 17.1166 7.90053 17.1425 7.98177C17.1685 8.06301 17.212 8.13753 17.27 8.20003C17.3304 8.25916 17.4026 8.30487 17.4818 8.33417C17.5611 8.36347 17.6457 8.37569 17.73 8.37003C18.3073 8.30633 18.891 8.33333 19.46 8.45003C19.9895 8.55776 20.4802 8.80652 20.88 9.17003C21.1054 9.38678 21.2859 9.64583 21.4112 9.93238C21.5365 10.2189 21.604 10.5274 21.61 10.84C21.6302 11.1409 21.5781 11.4422 21.458 11.7188C21.338 11.9954 21.1535 12.2393 20.92 12.43C20.8456 12.4866 20.7871 12.5614 20.7503 12.6473C20.7135 12.7332 20.6996 12.8272 20.71 12.92C20.7203 13.0137 20.7554 13.1029 20.8116 13.1785C20.8679 13.254 20.9433 13.3133 21.03 13.35C21.8477 13.7683 22.474 14.484 22.78 15.35C22.963 15.7721 23.0464 16.2307 23.0239 16.6902C23.0013 17.1497 22.8734 17.5979 22.65 18C22.4868 18.2598 22.2595 18.4733 21.99 18.62C21.6735 18.7795 21.3419 18.9068 21 19C20.3866 19.1933 19.7519 19.3108 19.11 19.35C18.11 19.42 17.05 19.35 16.11 19.44C14.28 19.55 12.46 19.62 10.63 19.64C8.8 19.66 6.97 19.64 5.14 19.59C5.09117 19.5816 5.04107 19.5839 4.99322 19.5968C4.94536 19.6097 4.90092 19.633 4.86299 19.6649C4.82507 19.6968 4.79458 19.7366 4.77366 19.7816C4.75275 19.8265 4.74191 19.8755 4.74191 19.925C4.74191 19.9746 4.75275 20.0236 4.77366 20.0685C4.79458 20.1134 4.82507 20.1533 4.86299 20.1852C4.90092 20.2171 4.94536 20.2403 4.99322 20.2533C5.04107 20.2662 5.09117 20.2685 5.14 20.26C6.98 20.35 8.81 20.39 10.65 20.4C12.49 20.41 14.33 20.4 16.17 20.3C17.17 20.3 18.17 20.3 19.23 20.25C19.9483 20.2206 20.6603 20.1031 21.35 19.9C21.836 19.7523 22.3001 19.5405 22.73 19.27C23.0425 19.0643 23.3082 18.7951 23.51 18.48C23.8038 17.9527 23.9744 17.3656 24.009 16.763C24.0436 16.1603 23.9414 15.5576 23.71 15Z" fill="black"/>
<path fill-rule="evenodd" clip-rule="evenodd" d="M6 15.18H6.29V15.5C6.29 16.08 6.45 16.64 6.51 17.21C6.50866 17.2542 6.51621 17.2982 6.53219 17.3394C6.54817 17.3806 6.57227 17.4181 6.60305 17.4499C6.63382 17.4816 6.67066 17.5068 6.71136 17.524C6.75206 17.5412 6.79581 17.55 6.84 17.55C6.88453 17.5528 6.92915 17.5463 6.97101 17.5308C7.01287 17.5154 7.05103 17.4914 7.08305 17.4603C7.11506 17.4292 7.14023 17.3918 7.15693 17.3504C7.17362 17.309 7.18148 17.2646 7.18 17.22C7.25 16.65 7.32 16.1 7.36 15.52V15.18C7.91 15.18 8.46 15.09 9.02 15.03C9.06417 15.0314 9.10816 15.0238 9.14936 15.0078C9.19056 14.9918 9.22813 14.9677 9.25984 14.937C9.29155 14.9062 9.31675 14.8694 9.33396 14.8287C9.35116 14.788 9.36002 14.7442 9.36 14.7C9.35483 14.6089 9.31431 14.5235 9.24706 14.4619C9.17982 14.4002 9.09117 14.3673 9 14.37C8.42 14.3 7.87 14.19 7.3 14.13C7.24 13.57 7.13 13.03 7.07 12.47C7.07275 12.4303 7.06728 12.3904 7.05394 12.3529C7.0406 12.3154 7.01968 12.281 6.99247 12.2519C6.96526 12.2228 6.93235 12.1996 6.8958 12.1838C6.85924 12.168 6.81982 12.1599 6.78 12.16C6.74158 12.1573 6.70301 12.1625 6.6667 12.1753C6.63038 12.1881 6.59711 12.2083 6.56895 12.2346C6.54079 12.2609 6.51836 12.2927 6.50305 12.328C6.48775 12.3634 6.4799 12.4015 6.48 12.44C6.38 13 6.29 13.55 6.24 14.11H6L4.18 14.36C4.13671 14.352 4.0922 14.3536 4.04961 14.3648C4.00703 14.3759 3.96741 14.3963 3.93357 14.4244C3.89974 14.4526 3.87251 14.4878 3.85383 14.5277C3.83514 14.5675 3.82545 14.611 3.82545 14.655C3.82545 14.699 3.83514 14.7425 3.85383 14.7824C3.87251 14.8222 3.89974 14.8575 3.93357 14.8856C3.96741 14.9138 4.00703 14.9341 4.04961 14.9453C4.0922 14.9564 4.13671 14.958 4.18 14.95L6 15.18Z" fill="black"/>
<path fill-rule="evenodd" clip-rule="evenodd" d="M16.84 11.8C16.7208 11.7335 16.5865 11.6985 16.45 11.6985C16.3135 11.6985 16.1792 11.7335 16.06 11.8C15.8821 11.8918 15.739 12.0391 15.6524 12.2196C15.5657 12.4 15.5403 12.6038 15.58 12.8C15.6083 12.8992 15.6591 12.9905 15.7285 13.0669C15.7979 13.1432 15.884 13.2024 15.98 13.24C16.088 13.2915 16.2052 13.3208 16.3248 13.3259C16.4443 13.3311 16.5636 13.3121 16.6756 13.2701C16.7877 13.2281 16.8901 13.1639 16.9767 13.0814C17.0634 12.999 17.1325 12.8999 17.18 12.79C17.261 12.6129 17.2709 12.4114 17.2076 12.2272C17.1443 12.043 17.0128 11.8901 16.84 11.8Z" fill="black"/>
<path fill-rule="evenodd" clip-rule="evenodd" d="M16.79 15.65C16.6708 15.5835 16.5365 15.5485 16.4 15.5485C16.2635 15.5485 16.1292 15.5835 16.01 15.65C15.8314 15.7415 15.6871 15.8883 15.5988 16.0686C15.5105 16.2488 15.4828 16.4528 15.52 16.65C15.5503 16.7482 15.6018 16.8386 15.671 16.9146C15.7401 16.9907 15.8251 17.0505 15.92 17.09C16.0287 17.1417 16.1467 17.171 16.2669 17.1763C16.3872 17.1816 16.5073 17.1627 16.6201 17.1207C16.7329 17.0788 16.8362 17.0146 16.9238 16.932C17.0114 16.8495 17.0815 16.7502 17.13 16.64C17.2085 16.4625 17.2171 16.2619 17.1541 16.0784C17.0911 15.8948 16.961 15.7418 16.79 15.65Z" fill="black"/>
<path fill-rule="evenodd" clip-rule="evenodd" d="M18.92 13.79C18.8 13.7261 18.666 13.6927 18.53 13.6927C18.394 13.6927 18.2601 13.7261 18.14 13.79C17.9624 13.8827 17.8191 14.0298 17.731 14.2097C17.6428 14.3895 17.6145 14.5929 17.65 14.79C17.6853 14.8871 17.7398 14.9761 17.8103 15.0517C17.8807 15.1273 17.9656 15.1879 18.06 15.23C18.168 15.2815 18.2852 15.3107 18.4048 15.3159C18.5243 15.321 18.6436 15.3021 18.7556 15.26C18.8677 15.218 18.9701 15.1539 19.0567 15.0714C19.1434 14.9889 19.2125 14.8898 19.26 14.78C19.3385 14.6025 19.3471 14.4019 19.2841 14.2184C19.2211 14.0348 19.091 13.8818 18.92 13.79Z" fill="black"/>
<path fill-rule="evenodd" clip-rule="evenodd" d="M14.63 13.77L14.47 13.7C14.2983 13.6747 14.123 13.6915 13.9593 13.7489C13.7955 13.8064 13.6482 13.9029 13.53 14.03C13.11 14.52 13.44 15.08 13.96 15.28C14.0753 15.3052 14.1947 15.3052 14.31 15.28C14.4236 15.2679 14.533 15.2303 14.63 15.17C14.89 14.93 15.12 14.69 15.02 14.4C14.9631 14.1527 14.826 13.9312 14.63 13.77Z" fill="black"/>
</g>
<defs>
<clipPath id="clip0_1047_6017">
<rect width="24" height="24" fill="white"/>
</clipPath>
</defs>
</svg>
