<svg width="24" height="24" viewBox="0 0 24 24" fill="none" xmlns="http://www.w3.org/2000/svg">
<g clip-path="url(#clip0_1044_5221)">
<path fill-rule="evenodd" clip-rule="evenodd" d="M23.28 15C23.2244 14.4032 23.0546 13.8227 22.78 13.29C22.4911 12.7588 22.1082 12.2845 21.65 11.89C21.0647 11.4598 20.3733 11.197 19.65 11.13C19.4827 10.4882 19.1815 9.8891 18.7661 9.37205C18.3507 8.85499 17.8306 8.4317 17.24 8.13C16.2252 7.58274 15.0559 7.39256 13.92 7.59C13.2656 7.70292 12.6437 7.95741 12.0979 8.33568C11.5521 8.71396 11.0955 9.20688 10.76 9.78C10.7147 9.84753 10.6968 9.92977 10.71 10.01C9.91807 9.66979 9.06158 9.506 8.2 9.53C8.17674 9.01922 8.19682 8.50739 8.26 8C8.37972 7.28994 8.63796 6.61037 9.02 6C9.25411 5.61279 9.5595 5.27346 9.92 5C10.4688 4.59174 11.1002 4.30846 11.77 4.17C12.3195 4.03534 12.894 4.04076 13.4409 4.18577C13.9877 4.33079 14.4894 4.61075 14.9 5C15.1495 5.24304 15.3648 5.5189 15.54 5.82C15.7067 6.11138 15.8217 6.4294 15.88 6.76C15.88 6.86078 15.92 6.95744 15.9913 7.0287C16.0626 7.09996 16.1592 7.14 16.26 7.14C16.3608 7.14 16.4574 7.09996 16.5287 7.0287C16.6 6.95744 16.64 6.86078 16.64 6.76C16.6119 6.31513 16.4964 5.88016 16.3 5.48C16.118 5.0884 15.8861 4.72201 15.61 4.39C15.114 3.82059 14.4764 3.3922 13.7618 3.14814C13.0471 2.90407 12.2807 2.85297 11.54 3C10.8029 3.12113 10.1023 3.40588 9.48973 3.83331C8.87713 4.26075 8.36808 4.82001 8 5.47C7.69924 6.07679 7.49994 6.72876 7.41 7.4C7.32991 8.12446 7.32991 8.85554 7.41 9.58C6.83247 9.63704 6.26643 9.77855 5.73 10C5.66374 10.0491 5.5935 10.0926 5.52 10.13C5.57 7.13 6.15 4.96 7.12 3.56C7.5747 2.89613 8.17699 2.3466 8.87965 1.95449C9.58232 1.56239 10.3663 1.33837 11.17 1.3C12.7031 1.06588 14.2711 1.27403 15.69 1.9C16.3869 2.22943 17.0112 2.69448 17.5263 3.26796C18.0414 3.84144 18.437 4.51185 18.69 5.24C18.8828 5.76421 19.0203 6.30717 19.1 6.86C19.1902 7.42259 19.2436 7.99046 19.26 8.56C19.26 8.66173 19.2997 8.75944 19.3707 8.8323C19.4417 8.90515 19.5383 8.94739 19.64 8.95C19.7307 8.94571 19.8169 8.90906 19.883 8.84669C19.949 8.78432 19.9905 8.70035 20 8.61C20.0126 8.00198 19.9825 7.39382 19.91 6.79C19.838 6.18127 19.7039 5.58149 19.51 5C19.2649 4.12947 18.8474 3.31706 18.2822 2.61103C17.717 1.905 17.0158 1.31973 16.22 0.89C14.5983 0.109827 12.7837 -0.178697 11 0.0600004C10.02 0.13909 9.07199 0.446103 8.23166 0.956549C7.39134 1.467 6.68192 2.16675 6.16 3C5.16 4.64 4.6 7.13 4.82 10.67C4.43903 10.952 4.10202 11.289 3.82 11.67C3.33518 12.4111 3.0525 13.266 3 14.15C2.98865 14.6069 3.0323 15.0635 3.13 15.51C2.37433 15.7628 1.72604 16.2631 1.29 16.93C0.806262 17.7419 0.609063 18.6927 0.73 19.63C0.86 21.28 3 22.68 6 23.4C7.87702 23.8207 9.79654 24.0221 11.72 24C13.0035 23.9933 14.2843 23.883 15.55 23.67C19.82 23 23 21.05 22.15 18C22.5657 17.6277 22.8855 17.1606 23.0822 16.6383C23.2789 16.1161 23.3468 15.5541 23.28 15ZM21.8 17.2C21.7 17 21.66 16.81 21.54 16.61C21.5151 16.5652 21.4815 16.526 21.4411 16.4945C21.4007 16.4631 21.3543 16.4401 21.3048 16.4271C21.2553 16.414 21.2037 16.4111 21.153 16.4184C21.1024 16.4258 21.0537 16.4434 21.01 16.47C20.9243 16.5221 20.8619 16.6051 20.8358 16.702C20.8098 16.7988 20.822 16.9019 20.87 16.99C22.69 20.31 19.5 21.93 15.39 22.49C14.1833 22.6494 12.9672 22.7263 11.75 22.72C9.92026 22.7244 8.09462 22.5468 6.3 22.19C5.12083 21.974 3.98337 21.5723 2.93 21C2.61501 20.8619 2.33535 20.6543 2.11195 20.3928C1.88855 20.1313 1.72721 19.8227 1.64 19.49C1.52448 18.7533 1.65079 17.9989 2 17.34C2.2823 16.8384 2.71646 16.4392 3.24 16.2C3.37599 16.7297 3.5532 17.2479 3.77 17.75C3.80339 17.8334 3.8684 17.9001 3.95083 17.9357C4.03326 17.9713 4.12643 17.9728 4.21 17.94C4.29122 17.9065 4.35688 17.8437 4.39393 17.764C4.43098 17.6844 4.43672 17.5937 4.41 17.51C4.11617 16.6306 3.97744 15.7069 4 14.78C4.02827 13.9144 4.32535 13.0791 4.85 12.39C5.23433 11.8756 5.73912 11.4636 6.32 11.19C6.91764 10.8896 7.56475 10.6998 8.23 10.63C8.89964 10.5341 9.58224 10.5895 10.2277 10.7919C10.8732 10.9944 11.4651 11.3389 11.96 11.8C11.9953 11.8357 12.0374 11.864 12.0837 11.8833C12.1301 11.9027 12.1798 11.9126 12.23 11.9126C12.2802 11.9126 12.3299 11.9027 12.3763 11.8833C12.4226 11.864 12.4647 11.8357 12.5 11.8C12.5369 11.7654 12.5664 11.7236 12.5865 11.6771C12.6066 11.6307 12.617 11.5806 12.617 11.53C12.617 11.4794 12.6066 11.4293 12.5865 11.3829C12.5664 11.3364 12.5369 11.2946 12.5 11.26C12.1196 10.814 11.6581 10.4442 11.14 10.17C11.194 10.1533 11.2424 10.1222 11.28 10.08C11.6298 9.68002 12.0558 9.35375 12.5331 9.12025C13.0105 8.88674 13.5295 8.75068 14.06 8.72C14.5038 8.68671 14.9499 8.70348 15.39 8.77C15.8329 8.83796 16.266 8.95883 16.68 9.13C17.6168 9.50423 18.3776 10.2186 18.81 11.13C18.2429 11.1933 17.7141 11.4471 17.31 11.85C17.2789 11.8807 17.2541 11.9173 17.2373 11.9576C17.2204 11.998 17.2117 12.0413 17.2117 12.085C17.2117 12.1287 17.2204 12.172 17.2373 12.2124C17.2541 12.2527 17.2789 12.2893 17.31 12.32C17.3749 12.3812 17.4608 12.4152 17.55 12.4152C17.6392 12.4152 17.7251 12.3812 17.79 12.32C18.0184 12.1555 18.2791 12.0411 18.5548 11.9842C18.8305 11.9273 19.1151 11.9293 19.39 11.99C19.9436 12.0923 20.4529 12.3609 20.85 12.76C21.2665 13.1225 21.6065 13.5645 21.85 14.06C22.0111 14.3771 22.132 14.713 22.21 15.06C22.2935 15.4257 22.3001 15.8047 22.2296 16.173C22.159 16.5414 22.0127 16.8911 21.8 17.2Z" fill="black"/>
<path fill-rule="evenodd" clip-rule="evenodd" d="M13.4 13.61C12.9223 13.3387 12.3792 13.2038 11.83 13.22C11.615 13.2405 11.4034 13.2875 11.2 13.36C11.0054 13.4379 10.8208 13.5386 10.65 13.66C10.4663 13.7904 10.3043 13.949 10.17 14.13C10.0338 14.3036 9.9227 14.4954 9.84 14.7C9.64068 15.0673 9.58455 15.4955 9.68243 15.9018C9.78031 16.3081 10.0253 16.6637 10.37 16.9C10.7802 17.1297 11.2581 17.2076 11.72 17.12C11.6061 17.4756 11.5225 17.8403 11.47 18.21C11.4501 18.4329 11.4501 18.6571 11.47 18.88C11.4747 19.1044 11.4947 19.3283 11.53 19.55C11.621 20.0724 11.7513 20.5872 11.92 21.09C11.9263 21.1406 11.9427 21.1895 11.9683 21.2336C11.9939 21.2777 12.0281 21.3163 12.0689 21.3469C12.1097 21.3775 12.1562 21.3997 12.2057 21.4119C12.2553 21.4242 12.3068 21.4263 12.3571 21.4183C12.4075 21.4102 12.4557 21.3921 12.499 21.365C12.5422 21.3379 12.5795 21.3024 12.6087 21.2605C12.6379 21.2187 12.6584 21.1714 12.6689 21.1215C12.6794 21.0716 12.6798 21.0201 12.67 20.97C12.67 20.48 12.67 19.97 12.74 19.48V18.85V18.22C12.74 18.01 12.65 17.56 12.61 17.22C12.8767 17.2298 13.1418 17.176 13.3835 17.063C13.6253 16.9499 13.8366 16.7809 14 16.57C14.1853 16.3512 14.3214 16.095 14.3991 15.819C14.4767 15.5429 14.4941 15.2534 14.45 14.97C14.3814 14.6818 14.2522 14.4116 14.0712 14.1771C13.8902 13.9426 13.6614 13.7493 13.4 13.61ZM13.29 16C12.74 16.84 11.15 16.32 10.93 16.13C10.71 15.94 10.68 15.58 10.93 15.19C10.9943 15.0837 11.0679 14.9833 11.15 14.89C11.2272 14.8062 11.3146 14.7323 11.41 14.67C11.5637 14.5536 11.7477 14.4842 11.94 14.47C12.2542 14.4586 12.5665 14.5238 12.85 14.66C13.11 14.79 13.37 14.93 13.44 15.19C13.474 15.3279 13.4781 15.4715 13.4523 15.6112C13.4264 15.7508 13.3711 15.8834 13.29 16Z" fill="black"/>
</g>
<defs>
<clipPath id="clip0_1044_5221">
<rect width="24" height="24" fill="white"/>
</clipPath>
</defs>
</svg>
