<svg width="24" height="24" viewBox="0 0 24 24" fill="none" xmlns="http://www.w3.org/2000/svg">
<g clip-path="url(#clip0_1050_8093)">
<path fill-rule="evenodd" clip-rule="evenodd" d="M23.66 12.59C22.8 12.59 21.94 12.52 21.09 12.48V11.68V9.68001C21.04 8.16001 20.92 6.68001 20.84 5.13001C20.8479 5.08811 20.8464 5.045 20.8358 5.00373C20.8251 4.96247 20.8054 4.92406 20.7782 4.89125C20.751 4.85844 20.7169 4.83203 20.6783 4.81391C20.6397 4.79578 20.5976 4.78639 20.555 4.78639C20.5124 4.78639 20.4703 4.79578 20.4317 4.81391C20.3931 4.83203 20.359 4.85844 20.3318 4.89125C20.3046 4.92406 20.2849 4.96247 20.2743 5.00373C20.2636 5.045 20.2621 5.08811 20.27 5.13001C20.2 6.65 20.09 8.13 20.05 9.69V11.64V12.4L18.14 12.3C18.19 11.6 18.24 10.89 18.28 10.18C18.28 9.77001 18.34 9.37001 18.35 8.97001C18.36 8.57 18.35 8.16 18.35 7.75V4.91C18.3532 4.83521 18.3282 4.76194 18.2801 4.70458C18.232 4.64722 18.1642 4.60992 18.09 4.6C18.0524 4.59587 18.0144 4.59939 17.9782 4.61036C17.942 4.62132 17.9084 4.6395 17.8795 4.66379C17.8505 4.68809 17.8268 4.718 17.8097 4.75172C17.7926 4.78544 17.7825 4.82228 17.78 4.86001C17.62 5.79 17.44 6.73 17.34 7.7C17.34 8.1 17.26 8.51 17.25 8.92C17.24 9.33 17.25 9.75 17.25 10.15C17.25 10.86 17.32 11.56 17.38 12.26L15.32 12.14V11.6C15.32 11.11 15.38 10.6 15.39 10.14C15.4 9.68001 15.39 9.14001 15.39 8.68001V5.28001C15.3875 5.20654 15.3572 5.13676 15.3052 5.08478C15.2533 5.0328 15.1835 5.0025 15.11 5C15.0337 4.99708 14.9591 5.02339 14.9015 5.07356C14.8439 5.12373 14.8076 5.19399 14.8 5.27C14.65 6.4 14.49 7.53 14.39 8.67C14.39 9.16 14.33 9.67001 14.32 10.14C14.31 10.61 14.32 11.14 14.32 11.61V12.12L12.62 12.04V10.57L12.41 5.1C12.4179 5.05811 12.4164 5.015 12.4058 4.97373C12.3951 4.93247 12.3754 4.89406 12.3482 4.86125C12.321 4.82844 12.2869 4.80203 12.2483 4.78391C12.2097 4.76578 12.1676 4.75639 12.125 4.75639C12.0824 4.75639 12.0403 4.76578 12.0017 4.78391C11.9631 4.80203 11.929 4.82844 11.9018 4.86125C11.8746 4.89406 11.8549 4.93247 11.8443 4.97373C11.8336 5.015 11.8321 5.05811 11.84 5.1L11.55 10.58V12.03L10 12C10 11.66 10.05 11.32 10.06 11V8.72001C10 7.56001 9.83001 6.44 9.78001 5.31C9.78789 5.26811 9.78644 5.225 9.77576 5.18373C9.76508 5.14247 9.74544 5.10406 9.71822 5.07125C9.69101 5.03844 9.6569 5.01203 9.61832 4.99391C9.57974 4.97578 9.53763 4.96639 9.49501 4.96639C9.45238 4.96639 9.41028 4.97578 9.3717 4.99391C9.33312 5.01203 9.29901 5.03844 9.27179 5.07125C9.24458 5.10406 9.22494 5.14247 9.21426 5.18373C9.20358 5.225 9.20213 5.26811 9.21001 5.31C9.09001 6.55 9.00001 7.81 9.00001 9.09V11.35V11.96H7.27001L7.33001 11.3C7.39001 10.43 7.39001 9.57 7.41001 8.7C7.43001 7.83 7.31001 7 7.27001 6.1V5.02C7.27789 4.97811 7.27644 4.935 7.26576 4.89373C7.25508 4.85247 7.23543 4.81406 7.20822 4.78125C7.18101 4.74844 7.1469 4.72203 7.10832 4.70391C7.06974 4.68578 7.02763 4.67639 6.98501 4.67639C6.94238 4.67639 6.90028 4.68578 6.8617 4.70391C6.82312 4.72203 6.78901 4.74844 6.76179 4.78125C6.73458 4.81406 6.71493 4.85247 6.70426 4.89373C6.69358 4.935 6.69213 4.97811 6.70001 5.02L6.39001 8.65C6.39001 9.5 6.32001 10.36 6.30001 11.21V11.91H4.63001V10.05C4.63001 8.45001 4.57001 6.86 4.63001 5.27C4.63001 5.23323 4.62277 5.19682 4.60869 5.16285C4.59462 5.12888 4.574 5.09802 4.548 5.07201C4.522 5.04601 4.49113 5.02539 4.45716 5.01132C4.42319 4.99725 4.38678 4.99 4.35001 4.99C4.31324 4.99 4.27683 4.99725 4.24286 5.01132C4.20888 5.02539 4.17802 5.04601 4.15202 5.07201C4.12602 5.09802 4.10539 5.12888 4.09132 5.16285C4.07725 5.19682 4.07001 5.23323 4.07001 5.27C3.79467 7.04172 3.62438 8.82818 3.56001 10.62V11.95H3.07001C2.13311 11.9171 1.19514 11.9338 0.260007 12C0.185805 12.0099 0.117991 12.0472 0.0698834 12.1046C0.0217761 12.1619 -0.00314757 12.2352 7.3383e-06 12.31C0.00248142 12.3477 0.0125702 12.3846 0.0296654 12.4183C0.0467605 12.452 0.070508 12.4819 0.0994757 12.5062C0.128444 12.5305 0.162032 12.5487 0.198215 12.5597C0.234398 12.5706 0.272426 12.5741 0.310007 12.57H2.37001L3.56001 12.64V13.77C3.63001 15.38 3.77001 16.98 3.88001 18.58C3.8813 18.622 3.89086 18.6634 3.90815 18.7017C3.92544 18.7401 3.95011 18.7746 3.98076 18.8034C4.01141 18.8322 4.04743 18.8547 4.08676 18.8695C4.1261 18.8844 4.16798 18.8913 4.21001 18.89C4.25246 18.8901 4.29447 18.8815 4.33345 18.8646C4.37242 18.8478 4.40753 18.8232 4.4366 18.7923C4.46566 18.7613 4.48806 18.7247 4.50241 18.6848C4.51676 18.6448 4.52275 18.6024 4.52001 18.56C4.52001 16.78 4.59001 15 4.60001 13.22V12.71L6.28001 12.82V15.09C6.27867 15.132 6.28564 15.1739 6.3005 15.2132C6.31536 15.2526 6.33782 15.2886 6.36661 15.3193C6.3954 15.3499 6.42995 15.3746 6.46828 15.3919C6.50662 15.4091 6.54798 15.4187 6.59001 15.42C6.63795 15.4341 6.68852 15.4367 6.73766 15.4277C6.78681 15.4187 6.83316 15.3983 6.87301 15.3682C6.91287 15.338 6.94511 15.299 6.96716 15.2542C6.98921 15.2093 7.00046 15.16 7.00001 15.11C7.06001 14.37 7.14001 13.63 7.22001 12.89L9.07001 13V14.74C9.06607 14.782 9.07044 14.8244 9.08289 14.8647C9.09533 14.9051 9.11559 14.9426 9.14252 14.9751C9.16945 15.0076 9.20252 15.0344 9.23983 15.0542C9.27715 15.0739 9.31798 15.0861 9.36001 15.09C9.40203 15.0939 9.44442 15.0896 9.48475 15.0771C9.52508 15.0647 9.56257 15.0444 9.59507 15.0175C9.62757 14.9906 9.65445 14.9575 9.67417 14.9202C9.69389 14.8829 9.70607 14.842 9.71001 14.8C9.80001 14.21 9.86001 13.62 9.92001 13.04L11.31 13.1H11.53V13.95C11.53 15.66 11.48 17.36 11.47 19.07C11.4673 19.1115 11.473 19.1532 11.4867 19.1925C11.5005 19.2318 11.522 19.2679 11.55 19.2987C11.578 19.3295 11.6119 19.3543 11.6497 19.3717C11.6875 19.3891 11.7284 19.3987 11.77 19.4C11.8569 19.4029 11.9416 19.3724 12.0067 19.3147C12.0719 19.2571 12.1124 19.1766 12.12 19.09C12.26 17.39 12.46 15.71 12.58 14.01V13.13L14.36 13.19C14.36 13.81 14.42 14.43 14.44 15.05C14.4425 15.1341 14.477 15.214 14.5365 15.2735C14.596 15.333 14.6759 15.3675 14.76 15.37C14.8087 15.3757 14.8581 15.3698 14.9041 15.3528C14.9501 15.3357 14.9914 15.308 15.0246 15.2719C15.0577 15.2358 15.0819 15.1923 15.095 15.145C15.1081 15.0978 15.1098 15.0481 15.1 15C15.1 14.39 15.19 13.78 15.23 13.17H15.42H20.04V13.53C20.04 15.06 20.16 16.53 20.22 18.09C20.2117 18.1375 20.2138 18.1862 20.2263 18.2327C20.2387 18.2792 20.2613 18.3225 20.2922 18.3594C20.3232 18.3963 20.3619 18.426 20.4056 18.4463C20.4492 18.4667 20.4968 18.4772 20.545 18.4772C20.5932 18.4772 20.6408 18.4667 20.6845 18.4463C20.7281 18.426 20.7668 18.3963 20.7978 18.3594C20.8288 18.3225 20.8513 18.2792 20.8637 18.2327C20.8762 18.1862 20.8784 18.1375 20.87 18.09C20.94 16.58 21.02 15.09 21.06 13.53V13.16H23.63C23.7175 13.16 23.8015 13.1252 23.8634 13.0633C23.9252 13.0015 23.96 12.9175 23.96 12.83C23.9413 12.7637 23.9023 12.7049 23.8485 12.6618C23.7947 12.6188 23.7288 12.5937 23.66 12.59Z" fill="black"/>
<path fill-rule="evenodd" clip-rule="evenodd" d="M0.440006 7.38001C0.513474 7.37752 0.583254 7.34722 0.635233 7.29524C0.687213 7.24326 0.717513 7.17348 0.720006 7.10001C0.720006 6.76001 0.780006 6.43001 0.820006 6.10001C0.860006 5.77001 0.920006 5.43001 0.980006 5.10001C1.04001 4.77001 1.16001 4.22001 1.25001 3.83001C1.31218 3.47562 1.44114 3.13627 1.63001 2.83001C1.75397 2.66236 1.92014 2.53054 2.1116 2.44798C2.30307 2.36542 2.513 2.33507 2.72001 2.36001H3.87001H5.87001C5.91286 2.36135 5.95555 2.35407 5.99554 2.33859C6.03552 2.32311 6.07199 2.29975 6.10277 2.2699C6.13355 2.24005 6.15802 2.20432 6.17473 2.16483C6.19143 2.12534 6.20003 2.08289 6.20001 2.04001C6.20274 1.99765 6.19675 1.95518 6.18241 1.91523C6.16806 1.87528 6.14566 1.8387 6.11659 1.80776C6.08753 1.77683 6.05242 1.75218 6.01345 1.73537C5.97447 1.71856 5.93245 1.70993 5.89001 1.71001L4.00001 1.49001L2.75001 1.33001C2.37068 1.27355 1.98313 1.32305 1.63017 1.47306C1.27722 1.62306 0.972611 1.86773 0.750006 2.18001C0.46622 2.62084 0.285094 3.11979 0.220006 3.64001C0.170006 4.05001 0.150006 4.51001 0.130006 5.00001V7.09001C0.129911 7.12984 0.13802 7.16926 0.153829 7.20581C0.169637 7.24237 0.192805 7.27528 0.221889 7.30248C0.250973 7.32969 0.28535 7.35062 0.322876 7.36396C0.360403 7.37729 0.400274 7.38276 0.440006 7.38001Z" fill="black"/>
<path fill-rule="evenodd" clip-rule="evenodd" d="M23.91 3.64001C23.8559 3.12031 23.6812 2.62041 23.4 2.18001C23.1774 1.86773 22.8728 1.62306 22.5199 1.47306C22.1669 1.32305 21.7793 1.27355 21.4 1.33001L20.19 1.49001L18.26 1.72001C18.218 1.72131 18.1766 1.73087 18.1383 1.74816C18.1 1.76545 18.0654 1.79012 18.0366 1.82077C18.0078 1.85141 17.9854 1.88744 17.9705 1.92677C17.9556 1.96611 17.9487 2.00799 17.95 2.05001C17.95 2.09289 17.9586 2.13534 17.9753 2.17483C17.992 2.21432 18.0165 2.25005 18.0473 2.2799C18.078 2.30975 18.1145 2.33311 18.1545 2.34859C18.1945 2.36407 18.2372 2.37135 18.28 2.37001H20.28H21.43C21.637 2.34507 21.847 2.37542 22.0384 2.45798C22.2299 2.54054 22.3961 2.67236 22.52 2.84001C22.7091 3.14719 22.8412 3.48595 22.91 3.84001C23 4.23001 23.09 4.65001 23.17 5.11001C23.25 5.57001 23.29 5.77001 23.33 6.11001C23.37 6.45001 23.41 6.77001 23.43 7.11001C23.4425 7.17646 23.4778 7.23645 23.5299 7.27961C23.5819 7.32277 23.6474 7.3464 23.715 7.3464C23.7826 7.3464 23.8481 7.32277 23.9002 7.27961C23.9522 7.23645 23.9875 7.17646 24 7.11001V5.00001C23.9926 4.54547 23.9626 4.09157 23.91 3.64001Z" fill="black"/>
<path fill-rule="evenodd" clip-rule="evenodd" d="M6 21.63H4H2.85C2.65295 21.6523 2.45345 21.6247 2.26993 21.5495C2.08641 21.4743 1.92479 21.3542 1.8 21.2C1.61113 20.8938 1.48218 20.5544 1.42 20.2C1.33 19.81 1.24 19.39 1.15 18.93C1.06 18.47 1 18.24 1 17.9C1 17.56 0.920003 17.24 0.900003 16.9C0.887502 16.8336 0.852179 16.7736 0.800139 16.7304C0.748099 16.6873 0.682613 16.6636 0.615003 16.6636C0.547393 16.6636 0.481907 16.6873 0.429867 16.7304C0.377827 16.7736 0.342504 16.8336 0.330003 16.9L0.300003 19C0.300003 19.5 0.300003 20 0.390003 20.37C0.45046 20.8852 0.624661 21.3804 0.900003 21.82C1.12261 22.1323 1.42722 22.377 1.78017 22.527C2.13312 22.677 2.52068 22.7265 2.9 22.67L4.11 22.51L6.04 22.28C6.12066 22.2856 6.2003 22.2594 6.26195 22.2071C6.3236 22.1548 6.36237 22.0805 6.37 22C6.37877 21.9495 6.37526 21.8976 6.35977 21.8487C6.34428 21.7998 6.31726 21.7553 6.28099 21.719C6.24472 21.6828 6.20026 21.6557 6.15135 21.6402C6.10245 21.6248 6.05054 21.6212 6 21.63Z" fill="black"/>
<path fill-rule="evenodd" clip-rule="evenodd" d="M23.53 16.62C23.4548 16.62 23.3825 16.6491 23.3284 16.7014C23.2743 16.7536 23.2426 16.8248 23.24 16.9C23.24 17.24 23.18 17.57 23.14 17.9C23.1 18.23 23.04 18.57 22.98 18.9C22.92 19.23 22.81 19.78 22.72 20.17C22.6512 20.5241 22.5191 20.8628 22.33 21.17C22.2061 21.3377 22.0399 21.4695 21.8484 21.5521C21.657 21.6346 21.447 21.665 21.24 21.64H20.09H18.09C18.0472 21.6387 18.0045 21.646 17.9645 21.6614C17.9245 21.6769 17.888 21.7003 17.8573 21.7301C17.8265 21.76 17.802 21.7957 17.7853 21.8352C17.7686 21.8747 17.76 21.9171 17.76 21.96C17.7587 22.002 17.7656 22.0439 17.7805 22.0833C17.7954 22.1226 17.8178 22.1586 17.8466 22.1893C17.8754 22.2199 17.91 22.2446 17.9483 22.2619C17.9866 22.2792 18.028 22.2887 18.07 22.29L20 22.52L21.21 22.68C21.5893 22.7365 21.9769 22.687 22.3299 22.537C22.6828 22.387 22.9874 22.1423 23.21 21.83C23.4912 21.3896 23.6659 20.8897 23.72 20.37C23.7796 19.9155 23.8163 19.4582 23.83 19V16.91C23.83 16.8711 23.8222 16.8325 23.807 16.7967C23.7918 16.7608 23.7696 16.7284 23.7416 16.7013C23.7136 16.6743 23.6804 16.6531 23.6441 16.6392C23.6077 16.6252 23.5689 16.6187 23.53 16.62Z" fill="black"/>
</g>
<defs>
<clipPath id="clip0_1050_8093">
<rect width="24" height="24" fill="white"/>
</clipPath>
</defs>
</svg>
