<svg width="24" height="24" viewBox="0 0 24 24" fill="none" xmlns="http://www.w3.org/2000/svg">
<path fill-rule="evenodd" clip-rule="evenodd" d="M21.29 10.43C21.17 9.57997 21.16 7.75997 20.39 7.32997C19.16 6.61997 4 6.99997 2.23 7.07997C2.15479 7.07992 2.0825 7.1091 2.02839 7.16134C1.97428 7.21358 1.94259 7.2848 1.94 7.35997C2 7.87997 2.8 7.99997 13 7.58997C15.3094 7.5896 17.6168 7.72651 19.91 7.99997C20.32 8.22997 20.6 13.38 20.6 13.88C20.5715 15.2307 20.3836 16.5733 20.04 17.88C20.04 17.88 19.93 17.94 19.84 17.96C17.42 18.67 3.69 19.25 1.53 18.21C1.4994 18.209 1.46958 18.2002 1.44333 18.1844C1.41708 18.1687 1.39528 18.1465 1.38 18.12C0.899997 16.69 0.669997 9.42997 1.18 7.72997C1.27 7.42997 0.759997 7.29997 0.669997 7.59997C0.109997 9.33997 0.169997 16.77 0.669997 18.27C1.34 20.36 16.67 19.43 19.43 18.94C20.76 18.71 20.99 18.43 21.18 17.67C21.6961 15.2878 21.7335 12.8267 21.29 10.43Z" fill="black"/>
<path fill-rule="evenodd" clip-rule="evenodd" d="M23.43 8.32997C23.32 7.47997 23.3 5.64997 22.54 5.22997C21.31 4.51997 6.27999 4.16997 4.53999 4.63997C3.84999 4.81997 4.05999 5.10997 4.06999 5.25997C4.06999 5.76997 4.06999 5.25997 15.13 5.48997C15.66 5.48997 21.59 5.62997 22.04 5.89997C22.49 6.16997 22.9 11.34 22.9 11.85C22.9047 12.9504 22.8042 14.0487 22.6 15.13C22.42 15.81 22.31 16.22 22.45 16.49C22.4848 16.5424 22.5382 16.5798 22.5993 16.5946C22.6605 16.6094 22.725 16.6006 22.78 16.57C23.15 16.33 23.38 15.34 23.49 14.76C23.6301 14.0013 23.7004 13.2314 23.7 12.46C23.7302 11.0781 23.6399 9.69617 23.43 8.32997Z" fill="black"/>
<path d="M5.16 15.91C5.88758 15.9462 6.61635 15.8686 7.32 15.68C7.65 15.43 7.51 15.03 7.22 15.03C6.49522 15.2534 5.71847 15.2429 5 15C5 15.08 5.11 13.61 5.11 13.53C5.42739 13.6557 5.77027 13.7037 6.11 13.67C7.6 13.49 7.49 13.67 7.61 13.5C7.63816 13.4738 7.66063 13.442 7.67599 13.4068C7.69135 13.3715 7.69928 13.3334 7.69928 13.295C7.69928 13.2565 7.69135 13.2184 7.67599 13.1832C7.66063 13.1479 7.63816 13.1162 7.61 13.09C7.37 12.74 6.45 12.66 6.03 12.68C5.79 12.68 5.3 12.8 5.03 12.84C5.00785 12.3278 5.04138 11.8148 5.13 11.31C5.87719 11.3059 6.62288 11.2424 7.36 11.12C7.42895 11.1133 7.49245 11.0796 7.53652 11.0261C7.58059 10.9727 7.60163 10.9039 7.595 10.835C7.58837 10.766 7.55462 10.7025 7.50117 10.6584C7.44772 10.6144 7.37895 10.5933 7.31 10.6C6.68404 10.6421 6.05596 10.6421 5.43 10.6C4.93 10.6 4.33 10.38 4.1 11.71C4.01 12.25 4.1 13.03 4.03 13.51C4.07 14.69 3.75 15.78 5.16 15.91Z" fill="black"/>
<path d="M14.62 15.91C15.3476 15.9452 16.0762 15.8676 16.78 15.68C17.11 15.43 16.97 15.03 16.68 15.03C15.9584 15.2632 15.1816 15.2632 14.46 15.03C14.4 15.11 14.57 13.64 14.57 13.56C14.8872 13.6865 15.2303 13.7345 15.57 13.7C17.07 13.52 16.96 13.7 17.08 13.53C17.1082 13.5038 17.1306 13.4721 17.146 13.4368C17.1613 13.4015 17.1693 13.3635 17.1693 13.325C17.1693 13.2865 17.1613 13.2485 17.146 13.2132C17.1306 13.1779 17.1082 13.1462 17.08 13.12C16.84 12.77 15.92 12.69 15.5 12.71C15.1641 12.7457 14.8303 12.7991 14.5 12.87C14.4778 12.3579 14.5114 11.8449 14.6 11.34C15.3472 11.3355 16.0928 11.272 16.83 11.15C16.899 11.142 16.9619 11.107 17.0051 11.0526C17.0482 10.9982 17.068 10.9289 17.06 10.86C17.052 10.791 17.017 10.7281 16.9626 10.6849C16.9082 10.6418 16.839 10.622 16.77 10.63C16.1474 10.6719 15.5226 10.6719 14.9 10.63C14.4 10.63 13.8 10.41 13.57 11.74C13.48 12.28 13.57 13.06 13.5 13.54C13.53 14.69 13.21 15.78 14.62 15.91Z" fill="black"/>
<path d="M8.93999 15.69C9.49207 15.1517 9.98795 14.5586 10.42 13.92C10.9684 14.563 11.567 15.1615 12.21 15.71C12.48 15.71 12.57 15.57 12.59 15.34C12.1265 14.5796 11.5942 13.8632 11 13.2L11.51 12.52L12.58 11.17C12.6195 11.1055 12.6333 11.0284 12.6184 10.9543C12.6036 10.8801 12.5613 10.8143 12.5 10.77C12.25 10.58 12.16 10.77 10.88 11.88C10.6998 12.0666 10.539 12.2709 10.4 12.49C10.14 12.17 10.26 12.33 9.03999 10.8C8.98827 10.739 8.91444 10.701 8.83474 10.6944C8.75504 10.6879 8.67599 10.7132 8.61499 10.765C8.55399 10.8167 8.51604 10.8905 8.50947 10.9702C8.50291 11.0499 8.52827 11.129 8.57999 11.19C8.8814 11.95 9.31472 12.6507 9.85999 13.26C9.35933 13.9395 8.91454 14.6586 8.52999 15.41C8.52999 15.68 8.69999 15.73 8.93999 15.69Z" fill="black"/>
</svg>
