<svg width="24" height="24" viewBox="0 0 24 24" fill="none" xmlns="http://www.w3.org/2000/svg">
<g clip-path="url(#clip0_1034_4176)">
<path fill-rule="evenodd" clip-rule="evenodd" d="M22.6 4.60001C21.3161 4.27949 19.9912 4.15475 18.67 4.23001H15.35C14.4 4.23001 13.47 4.30001 12.54 4.37001C11.61 4.44001 10.68 4.54001 9.74001 4.70001C9.69557 4.70487 9.65259 4.71871 9.61366 4.74068C9.57473 4.76266 9.54068 4.79231 9.51356 4.82785C9.48644 4.86339 9.46682 4.90406 9.4559 4.94741C9.44497 4.99075 9.44297 5.03587 9.45001 5.08001C9.46478 5.16752 9.51224 5.24615 9.58279 5.29998C9.65334 5.35382 9.7417 5.37885 9.83001 5.37001C10.75 5.26001 11.67 5.21001 12.58 5.19001C13.49 5.17001 14.41 5.19001 15.34 5.19001L18.61 5.35001C19.7884 5.30437 20.9672 5.42899 22.11 5.72001C22.58 5.92001 22.81 6.31001 22.64 7.05001C22.56 7.43001 22.27 10.25 21.93 13.9C21.71 16.28 21.84 17.2 22.15 16.9C22.46 16.6 22.27 16.32 22.61 14.5C23.27 10.93 23.81 7.64001 23.9 7.31001C24.0857 6.7782 24.0532 6.19449 23.8095 5.6866C23.5659 5.17872 23.131 4.78802 22.6 4.60001Z" fill="black"/>
<path fill-rule="evenodd" clip-rule="evenodd" d="M20.8 11.4C20.69 8.97002 19.75 7.90002 18.46 7.40002C16.81 6.79002 14.37 7.40002 11.97 7.22002C11.6 7.22002 9.59 7.31002 8.71 7.22002C8.56774 6.58534 8.38401 5.96066 8.16 5.35002C7.93318 4.81366 7.56724 4.34761 7.1 4.00002C6.45107 3.60422 5.6995 3.40937 4.94 3.44002C3.49 3.44002 1.74 3.76002 0.650001 3.82002C0.613228 3.79247 0.571108 3.7729 0.526336 3.76257C0.481564 3.75224 0.435128 3.75137 0.390001 3.76002C0.344066 3.76952 0.300684 3.78871 0.262748 3.8163C0.224812 3.84389 0.193193 3.87925 0.170001 3.92002C0.121505 3.94398 0.0806766 3.98103 0.0521292 4.02697C0.0235818 4.07292 0.00845337 4.12593 0.00845337 4.18002C0.00845337 4.23411 0.0235818 4.28713 0.0521292 4.33307C0.0806766 4.37902 0.121505 4.41606 0.170001 4.44002C0.390001 6.35002 0.750001 12.81 1.1 16.77C1.22 18.11 1.35 19.16 1.44 19.66C1.4597 19.851 1.52115 20.0354 1.62 20.2C1.73459 20.3124 1.87073 20.4005 2.02025 20.459C2.16976 20.5174 2.32955 20.545 2.49 20.54H5.89C9.97 20.54 18.19 20.25 20.65 20.16C20.8366 20.1497 21.0116 20.0662 21.137 19.9276C21.2624 19.7891 21.3282 19.6067 21.32 19.42C21.17 17.44 20.82 11.84 20.8 11.4ZM7.36 19.28H4H2.66V19.04C2.56 18.37 2.44 17.31 2.29 16.04C1.98 13.37 1.56 9.82002 1.29 7.22002C1.07 6.06002 1 5.12002 0.860001 4.50002C2.18952 4.3745 3.52463 4.31776 4.86 4.33002C5.4232 4.31665 5.97734 4.47348 6.45 4.78002C6.75602 5.04984 6.98686 5.39438 7.12 5.78002C7.37 6.46002 7.45 7.23002 7.64 7.92002C7.67048 8.00362 7.71831 8.07982 7.78036 8.14359C7.84241 8.20736 7.91727 8.25727 8 8.29002C8.18139 8.37978 8.37825 8.43409 8.58 8.45002C9.43 8.56002 11.58 8.50002 11.95 8.52002C13.27 8.59002 14.61 8.45002 15.81 8.40002C16.5792 8.33243 17.3542 8.40012 18.1 8.60002C19.03 8.92002 19.62 9.73002 19.76 11.47C19.81 12.01 20.12 14.9 20.33 17.08C20.42 18.08 20.49 18.91 20.5 19.28C18.21 19.32 12 19.3 7.36 19.28Z" fill="black"/>
<path fill-rule="evenodd" clip-rule="evenodd" d="M13.67 10.78C13.3683 10.5262 13.0315 10.3174 12.67 10.16C12.3077 10.0012 11.9286 9.8838 11.54 9.81C10.6106 9.68907 9.66607 9.84347 8.82353 10.2541C7.98099 10.6647 7.27742 11.3134 6.79999 12.12C6.53244 12.5047 6.34705 12.9404 6.25537 13.3999C6.1637 13.8595 6.16773 14.3329 6.26719 14.7909C6.36665 15.2488 6.55942 15.6813 6.83347 16.0613C7.10752 16.4414 7.45696 16.761 7.85999 17C8.09836 17.1634 8.35727 17.2945 8.62999 17.39C8.89105 17.4798 9.15847 17.55 9.42999 17.6C9.49175 17.6075 9.55435 17.5963 9.60964 17.5677C9.66492 17.5392 9.71034 17.4947 9.73999 17.44H9.80999C9.85139 17.4171 9.88786 17.3862 9.91731 17.3491C9.94676 17.312 9.96861 17.2695 9.98161 17.224C9.99462 17.1785 9.99852 17.1309 9.99309 17.0839C9.98767 17.0368 9.97302 16.9914 9.94999 16.95C9.67923 16.1664 9.61044 15.3272 9.74999 14.51L10.36 14.56H11.48C11.48 14.77 11.48 14.99 11.54 15.2C11.5701 15.8447 11.5129 16.4906 11.37 17.12C11.0651 17.209 10.7468 17.2428 10.43 17.22C10.3879 17.2081 10.3439 17.2049 10.3006 17.2107C10.2572 17.2164 10.2156 17.231 10.1781 17.2535C10.1406 17.276 10.1081 17.3059 10.0827 17.3414C10.0572 17.3769 10.0393 17.4173 10.03 17.46C10.0212 17.5562 10.0494 17.6522 10.1089 17.7283C10.1683 17.8045 10.2545 17.8551 10.35 17.87C11.2015 18.0341 12.0832 17.917 12.8624 17.5365C13.6415 17.1559 14.2759 16.5324 14.67 15.76C15.1608 14.9565 15.3304 13.9973 15.1451 13.0742C14.9597 12.151 14.433 11.3318 13.67 10.78ZM12.94 11.71C13.5113 12.1174 13.9162 12.7176 14.08 13.4C14.0242 13.386 13.9658 13.386 13.91 13.4C13.4715 13.4454 13.0308 13.4654 12.59 13.46C12.59 13.21 12.52 12.95 12.46 12.7C12.3431 12.1928 12.1894 11.6948 12 11.21L12.18 11.27C12.452 11.3818 12.7076 11.5298 12.94 11.71ZM7.66999 12.71C8.10482 12.0736 8.7118 11.5742 9.41999 11.27C9.20464 11.6636 9.02396 12.0751 8.87999 12.5C8.80134 12.7864 8.73792 13.0768 8.68999 13.37H7.33999C7.42329 13.1282 7.53401 12.8966 7.66999 12.68V12.71ZM8.27999 16.45C7.90364 16.1932 7.60428 15.8388 7.41402 15.4248C7.22376 15.0108 7.14977 14.5528 7.19999 14.1L8.59999 14.35V14.7C8.62381 15.4427 8.80443 16.172 9.12999 16.84L8.87999 16.76C8.66609 16.6732 8.46439 16.5589 8.27999 16.42V16.45ZM11.11 13.39H9.91999C9.91999 13.22 9.91999 13.04 9.98999 12.88C10.0957 12.2376 10.2666 11.6077 10.5 11C10.6959 10.9751 10.8941 10.9751 11.09 11C11.21 11.73 11.29 12.51 11.37 13.32L11.11 13.39ZM13.83 15.3C13.4795 15.9637 12.9209 16.4942 12.24 16.81C12.4701 16.1659 12.6081 15.4926 12.65 14.81V14.29C13.12 14.21 13.6 14.17 14.05 14.05L14.12 14C14.1227 14.44 14.0234 14.8747 13.83 15.27V15.3Z" fill="black"/>
</g>
<defs>
<clipPath id="clip0_1034_4176">
<rect width="24" height="24" fill="white"/>
</clipPath>
</defs>
</svg>
