<svg width="24" height="24" viewBox="0 0 24 24" fill="none" xmlns="http://www.w3.org/2000/svg">
<g clip-path="url(#clip0_1048_7043)">
<path fill-rule="evenodd" clip-rule="evenodd" d="M22.1 6.06C20.31 3.05 17.4 0.790002 14 0.570002C11.6154 0.446987 9.2393 0.939433 7.10001 2H7.00001C6.42807 2.2957 5.8768 2.6298 5.35001 3C2.77731 4.72594 0.954795 7.36323 0.250012 10.38C-0.120023 12.0047 -0.070959 13.6969 0.392594 15.2975C0.856147 16.898 1.71897 18.3545 2.90001 19.53C4.05421 20.7118 5.47027 21.6055 7.03373 22.1388C8.59719 22.6721 10.2642 22.8301 11.9 22.6C11.9875 22.5852 12.0661 22.5378 12.12 22.4672C12.1738 22.3967 12.1989 22.3083 12.19 22.22C12.1752 22.1332 12.1274 22.0555 12.0565 22.0033C11.9856 21.9511 11.8973 21.9284 11.81 21.94C9.50446 22.2199 7.1753 21.6589 5.25001 20.36C5.50233 20.1076 5.73941 19.8405 5.96001 19.56C6.0888 19.4033 6.20897 19.2397 6.32001 19.07C6.42823 18.8964 6.5251 18.7161 6.61001 18.53C6.73924 18.2033 6.84943 17.8694 6.94001 17.53C7.15209 17.7174 7.37587 17.8911 7.61001 18.05C8.0038 18.296 8.41488 18.5133 8.84001 18.7C9.40629 18.9405 9.9875 19.1443 10.58 19.31C11.24 19.49 12.25 19.94 14.91 18.77L15.06 19.32C15.13 19.52 15.21 19.73 15.29 19.93C15.37 20.13 15.48 20.33 15.58 20.52C15.83 20.99 16.1 21.43 16.37 21.88C16.3934 21.9304 16.4282 21.9746 16.4716 22.0093C16.5149 22.044 16.5657 22.0682 16.62 22.08C15.5587 22.5712 14.3769 22.7415 13.22 22.57C13.1232 22.5514 13.023 22.5721 12.9414 22.6274C12.8598 22.6827 12.8036 22.7682 12.785 22.865C12.7664 22.9618 12.7871 23.062 12.8424 23.1436C12.8977 23.2252 12.9832 23.2814 13.08 23.3C14.2483 23.4582 15.437 23.3613 16.5643 23.016C17.6916 22.6707 18.7307 22.0853 19.61 21.3C21.4562 19.8505 22.8451 17.8991 23.61 15.68C24.0194 14.0575 24.0966 12.369 23.8371 10.7158C23.5776 9.06272 22.9868 7.47908 22.1 6.06ZM21.1 6.67C22.0752 8.2721 22.6768 10.0734 22.86 11.94C22.51 11.87 22.16 11.79 21.8 11.73C21.5952 11.6862 21.3882 11.6528 21.18 11.63H20.55C20.34 11.63 19.99 11.63 19.71 11.68C19.6222 9.99984 18.9864 8.39468 17.9 7.11C17.4268 6.53443 16.8707 6.03229 16.25 5.62C16.44 5.34 16.64 5.07 16.81 4.77C16.8845 4.59753 16.948 4.42051 17 4.24C17.0777 4.0733 17.138 3.89905 17.18 3.72C17.2404 3.44919 17.2871 3.17551 17.32 2.9C18.8668 3.8285 20.1615 5.12319 21.09 6.67H21.1ZM16.6 2.52C16.4196 2.76057 16.2527 3.01096 16.1 3.27C16.0114 3.42747 15.9345 3.59124 15.87 3.76C15.8029 3.92634 15.7461 4.09667 15.7 4.27C15.62 4.56 15.56 4.84 15.49 5.12C14.792 4.74234 14.0216 4.51737 13.23 4.46C11.8782 4.41235 10.5364 4.70824 9.33001 5.32C9.34921 5.25132 9.34921 5.17869 9.33001 5.11C9.12001 4.73 9.00001 4.35 8.84001 4C8.78107 3.83699 8.70744 3.67968 8.62001 3.53C8.53963 3.37548 8.44594 3.22826 8.34001 3.09C8.29001 3.02 8.23001 2.97 8.18001 2.91C9.9958 2.13221 11.9683 1.78976 13.94 1.91C14.8568 1.94713 15.7587 2.15396 16.6 2.52ZM6.05001 4C6.42122 3.7686 6.80516 3.55826 7.20001 3.37C7.20001 3.46 7.20001 3.55 7.28001 3.64C7.36001 3.73 7.43001 3.97 7.51001 4.12C7.60069 4.27601 7.70088 4.4263 7.81001 4.57C8.07591 4.91777 8.35962 5.25155 8.66001 5.57C8.66001 5.57 8.73001 5.57 8.76001 5.64C7.44532 6.39707 6.33628 7.4649 5.53001 8.75C5.16046 9.37664 4.87469 10.049 4.68001 10.75C4.33001 10.68 3.98001 10.6 3.62001 10.56C3.38025 10.545 3.13978 10.545 2.90001 10.56C2.66178 10.563 2.42424 10.5864 2.19001 10.63C1.87729 10.7021 1.5699 10.7957 1.27001 10.91C1.27001 10.82 1.27001 10.74 1.32001 10.66C1.99742 7.92159 3.68762 5.54172 6.05001 4ZM5.54001 17.9C5.4209 18.057 5.31073 18.2206 5.21001 18.39C5.10301 18.5591 5.00939 18.7363 4.93001 18.92C4.79001 19.21 4.67001 19.49 4.54001 19.78C4.18883 19.5148 3.85483 19.2275 3.54001 18.92C2.63066 17.975 1.94271 16.8397 1.52591 15.5962C1.10911 14.3527 0.973881 13.0322 1.13001 11.73H2.29001H3.00001L3.67001 11.67L4.54001 11.59C4.38068 12.5676 4.45827 13.5691 4.76627 14.5105C5.07426 15.4519 5.60367 16.3056 6.31001 17C6.05001 17.32 5.78001 17.6 5.54001 17.91V17.9ZM6.00001 15C5.61221 14.0961 5.46192 13.108 5.56343 12.1296C5.66495 11.1512 6.01488 10.2151 6.58001 9.41C7.27245 8.27701 8.24787 7.34376 9.41034 6.70203C10.5728 6.0603 11.8823 5.73221 13.21 5.75C13.9495 5.82675 14.6661 6.05131 15.3171 6.41033C15.9682 6.76936 16.5405 7.25554 17 7.84C18.0265 8.9876 18.6144 10.461 18.66 12C18.578 13.7382 17.8422 15.3813 16.6 16.6C15.8487 17.3697 14.9302 17.956 13.9156 18.3133C12.9011 18.6705 11.8178 18.7892 10.75 18.66C10.1955 18.4775 9.65419 18.257 9.13001 18C8.73459 17.8375 8.3561 17.6366 8.00001 17.4C7.6589 17.1638 7.34083 16.8959 7.05001 16.6C6.65801 16.2114 6.3215 15.7706 6.05001 15.29M22.55 15.42C21.8906 17.4639 20.6585 19.2756 19 20.64C18.3869 21.1423 17.7154 21.5688 17 21.91C17.0347 21.8199 17.0347 21.7201 17 21.63C16.87 21.13 16.77 20.63 16.62 20.12C16.4976 19.6855 16.3265 19.2662 16.11 18.87C16 18.68 15.86 18.52 15.74 18.34C16.2676 18.0264 16.7603 17.6577 17.21 17.24C18.5166 15.9925 19.3625 14.3395 19.61 12.55C19.8613 12.6464 20.1185 12.7266 20.38 12.79C20.5907 12.8387 20.8045 12.8721 21.02 12.89C21.2364 12.9051 21.4536 12.9051 21.67 12.89C22.08 12.89 22.48 12.83 22.89 12.79C22.9318 13.6747 22.8442 14.5607 22.63 15.42H22.55Z" fill="black"/>
<path fill-rule="evenodd" clip-rule="evenodd" d="M16.16 12.09C15 9.92 13.3 7.11 12.59 6C12.5528 5.95095 12.5042 5.91166 12.4485 5.88554C12.3927 5.85941 12.3315 5.84721 12.27 5.85C12.2168 5.85408 12.1652 5.86959 12.1186 5.89548C12.072 5.92137 12.0315 5.95702 12 6C12 6 8.09998 11.46 6.61998 13.63L6.35998 14.02C5.95998 14.66 6.43998 15.81 7.08998 15.51C7.83682 15.6314 8.59387 15.6783 9.34998 15.65C11.53 15.73 14.42 15.74 15.94 15.65C16.42 15.65 16.78 15.6 16.94 15.58C17.0985 15.5679 17.2471 15.4982 17.3577 15.3839C17.4682 15.2697 17.5331 15.1188 17.54 14.96C17.188 13.9551 16.7251 12.9925 16.16 12.09ZM15.9 14.52C14.4 14.52 11.54 14.52 9.37998 14.43H7.51998C7.54036 14.4022 7.55716 14.372 7.56998 14.34C8.68998 12.51 11.32 8.34 12.23 6.95C12.87 8.07 13.91 9.95 14.79 11.73C15.38 12.88 15.91 13.93 16.18 14.55C16.0858 14.5504 15.9919 14.5403 15.9 14.52Z" fill="black"/>
</g>
<defs>
<clipPath id="clip0_1048_7043">
<rect width="24" height="24" fill="white"/>
</clipPath>
</defs>
</svg>
