<svg width="24" height="24" viewBox="0 0 24 24" fill="none" xmlns="http://www.w3.org/2000/svg">
<g clip-path="url(#clip0_1034_4181)">
<path fill-rule="evenodd" clip-rule="evenodd" d="M22 13.13C21.26 12.84 20.65 13.33 20.13 13.93C20.1465 13.0942 20.0179 12.2619 19.75 11.47C19.88 11.34 19.99 11.17 20.1 11.07L21.4 9.87002C21.57 9.69002 22.7 9.75002 23.1 9.70002C23.1764 9.68656 23.2457 9.6466 23.2955 9.58717C23.3454 9.52773 23.3728 9.45261 23.3728 9.37502C23.3728 9.29742 23.3454 9.2223 23.2955 9.16287C23.2457 9.10343 23.1764 9.06347 23.1 9.05002C22.44 8.98002 21.43 8.54002 20.72 9.05002C18.6 10.78 20.15 11.44 18.67 9.34002C18.29 8.80002 17.31 7.80002 16.67 7.81002C16.5936 7.82347 16.5243 7.86343 16.4745 7.92287C16.4246 7.9823 16.3972 8.05742 16.3972 8.13502C16.3972 8.21261 16.4246 8.28773 16.4745 8.34717C16.5243 8.4066 16.5936 8.44656 16.67 8.46002C17.05 8.46002 17.89 9.39002 18.12 9.74002C18.3467 10.0776 18.5472 10.4319 18.72 10.8C19.3226 12.0414 19.5152 13.4421 19.27 14.8C18.42 19.96 15.44 21.94 10.33 21.23C9.19902 21.1729 8.10121 20.8287 7.14 20.23C4.53 18.23 4.14 14.42 5.38 11.42C5.42173 11.2095 5.51063 11.0112 5.64 10.84C7.42 7.37002 11.52 6.20002 14.09 7.30002C14.3748 7.40661 14.629 7.58178 14.83 7.81002C14.8552 7.84317 14.8877 7.87005 14.925 7.88856C14.9623 7.90706 15.0034 7.91669 15.045 7.91669C15.0866 7.91669 15.1277 7.90706 15.165 7.88856C15.2023 7.87005 15.2348 7.84317 15.26 7.81002C15.62 7.70002 15.91 7.20002 16.14 6.75002C16.3512 6.30145 16.4896 5.82211 16.55 5.33002C16.55 5.20002 16.74 4.91002 16.72 4.76002C17.0049 4.81917 17.3008 4.79586 17.5729 4.6928C17.845 4.58975 18.0821 4.41124 18.2564 4.1782C18.4306 3.94516 18.5348 3.66727 18.5567 3.37711C18.5786 3.08695 18.5173 2.79657 18.38 2.54002C17.62 0.910017 15.67 1.78002 16.29 2.47002C16.68 2.98002 17.1 1.65002 17.46 2.89002C17.4971 2.99174 17.51 3.10067 17.4979 3.20825C17.4858 3.31583 17.4488 3.41912 17.39 3.51002C17.13 3.89002 16.46 3.76002 16.22 3.51002C16.1355 3.13517 16.0045 2.77236 15.83 2.43002C15.7941 2.40623 15.7538 2.38993 15.7115 2.38208C15.6692 2.37423 15.6258 2.37499 15.5837 2.38433C15.5417 2.39367 15.502 2.41138 15.467 2.43641C15.432 2.46144 15.4024 2.49328 15.38 2.53002C15.3092 2.79356 15.2931 3.0688 15.3326 3.3388C15.3722 3.60881 15.4666 3.86786 15.61 4.10002C15.7207 4.22431 15.8487 4.33207 15.99 4.42002C15.05 5.77002 15.35 6.55002 14.99 7.11002C13.87 6.11002 11.59 6.11002 10.12 6.39002C8.85 6.68002 9.12 6.99002 8.81 6.22002C8.60779 5.51762 8.22104 4.88225 7.69 4.38002C7.81551 4.27318 7.92055 4.14442 8 4.00002C8.18711 3.48913 8.16555 2.92513 7.94 2.43002C7.91017 2.39917 7.87443 2.37464 7.83491 2.35789C7.7954 2.34114 7.75292 2.3325 7.71 2.3325C7.66709 2.3325 7.62461 2.34114 7.5851 2.35789C7.54558 2.37464 7.50984 2.39917 7.48 2.43002C7.34 2.54002 7.29 3.57002 7.28 3.58002C7.09 3.84002 6.53 4.06002 6.28 3.76002C6.19761 3.66626 6.13924 3.55387 6.10993 3.43254C6.08062 3.31122 6.08124 3.18458 6.11175 3.06355C6.14225 2.94251 6.20172 2.83071 6.28504 2.73776C6.36835 2.64482 6.47301 2.57352 6.59 2.53002C6.61489 2.57596 6.65172 2.61432 6.6966 2.64106C6.74149 2.66779 6.79276 2.6819 6.845 2.6819C6.89725 2.6819 6.94852 2.66779 6.99341 2.64106C7.03829 2.61432 7.07512 2.57596 7.1 2.53002C7.56 1.73002 5.54 1.26002 5.1 3.01002C5.0324 3.26914 5.03541 3.54163 5.1087 3.7992C5.18199 4.05677 5.32291 4.29002 5.5168 4.47473C5.7107 4.65944 5.95051 4.78888 6.21133 4.8496C6.47215 4.91031 6.74447 4.9001 7 4.82002C7.26751 5.66906 7.72589 6.44558 8.34 7.09002C6.70227 7.85709 5.38826 9.17818 4.63 10.82C4.33858 10.105 3.86652 9.47786 3.26 9.00002C2.55 8.52002 1.54 9.00002 0.870004 9.00002C0.827126 9 0.784681 9.00859 0.745191 9.0253C0.7057 9.042 0.669969 9.06647 0.64012 9.09725C0.61027 9.12803 0.586912 9.1645 0.571431 9.20448C0.555951 9.24447 0.548664 9.28716 0.550004 9.33002C0.550004 9.79002 1.1 9.62002 2.12 9.71002C2.61 9.71002 2.33 9.59002 3.87 11.02C4.02 11.16 4.09 11.31 4.3 11.5C4.02333 12.2316 3.83532 12.9937 3.74 13.77C2.81 12.77 2.26 12.87 1.4 13.36C0.180004 14.06 0.170004 14.03 0.180004 14.01C-0.0499959 14.18 -0.119996 14.55 0.320004 14.65C0.760004 14.75 2.25 14.02 2.53 14.12C2.95704 14.2899 3.34495 14.5451 3.67 14.87C3.66348 15.8921 3.83609 16.9075 4.18 17.87C3.97679 17.6566 3.7213 17.5 3.43887 17.4158C3.15645 17.3316 2.85692 17.3227 2.57 17.39C1.73 17.69 1.39 18.53 1.04 19.12C1.04 19.2 0.590004 19.78 0.630004 19.95C0.638258 19.9876 0.653907 20.0232 0.676041 20.0546C0.698174 20.0861 0.726348 20.1129 0.758923 20.1333C0.791497 20.1538 0.82782 20.1676 0.865776 20.1739C0.903732 20.1802 0.942562 20.1789 0.980004 20.17C1.24 20.17 1.52 19.7 1.63 19.58C2.54 18.68 2.71 18.49 2.92 18.43C3.13 18.37 3.92 18.84 4.7 19C5.14986 19.7957 5.75117 20.4955 6.47 21.06C7.58415 21.7747 8.8676 22.1818 10.19 22.24C13.74 22.68 16.95 21.99 18.77 18.92C19.34 19.36 20.66 18.26 21.08 18.43C21.31 18.49 21.49 18.71 22.37 19.58C22.48 19.69 22.77 20.14 23.03 20.17C23.0668 20.1788 23.105 20.18 23.1423 20.1736C23.1797 20.1672 23.2153 20.1533 23.2471 20.1327C23.2788 20.1122 23.3061 20.0854 23.3272 20.054C23.3484 20.0226 23.3629 19.9872 23.37 19.95C23.0804 19.2729 22.7183 18.6292 22.29 18.03C22.1056 17.748 21.8322 17.5357 21.5133 17.427C21.1944 17.3182 20.8483 17.3193 20.53 17.43C20.2 17.56 19.67 17.72 19.29 17.87C19.6579 16.9785 19.9132 16.0447 20.05 15.09C20.23 15.09 20.7 14.42 21.47 14.15C21.76 14.04 23.27 14.78 23.68 14.68C23.91 14.68 24.01 14.52 24 14.36C24 14 22.11 13.16 22 13.13Z" fill="black"/>
<path fill-rule="evenodd" clip-rule="evenodd" d="M11.67 11.67C11.67 13.52 11.6 14.95 11.67 16.41C11.74 18.05 11.99 19.76 11.94 20.19C11.939 20.2579 11.9619 20.3241 12.0047 20.3768C12.0475 20.4296 12.1074 20.4657 12.1741 20.4788C12.2407 20.4919 12.3099 20.4812 12.3695 20.4485C12.429 20.4158 12.4752 20.3633 12.5 20.3C12.7598 18.6804 12.8336 17.0364 12.72 15.4C12.65 14.4 12.37 12.52 12.34 11.67C14.34 11.67 16.04 11.62 17.56 11.52L18.46 11.44C18.66 11.36 18.38 10.67 17.67 10.74C14.0081 10.4757 10.3319 10.4757 6.67 10.74C6.03 10.92 5.85 11.39 6.52 11.51C7.55 11.57 9.46 11.67 11.67 11.67Z" fill="black"/>
</g>
<defs>
<clipPath id="clip0_1034_4181">
<rect width="24" height="24" fill="white"/>
</clipPath>
</defs>
</svg>
