<svg width="24" height="24" viewBox="0 0 24 24" fill="none" xmlns="http://www.w3.org/2000/svg">
<g clip-path="url(#clip0_1047_6032)">
<path fill-rule="evenodd" clip-rule="evenodd" d="M10.28 15.85C10.2708 15.8087 10.2536 15.7695 10.2292 15.7348C10.2049 15.7001 10.174 15.6706 10.1382 15.6478C10.1025 15.6251 10.0626 15.6096 10.0209 15.6022C9.97914 15.5949 9.93637 15.5958 9.895 15.605C9.85364 15.6142 9.81448 15.6315 9.77979 15.6558C9.74509 15.6801 9.71552 15.7111 9.69277 15.7468C9.67002 15.7826 9.65453 15.8224 9.64719 15.8642C9.63985 15.9059 9.64081 15.9487 9.65 15.99L10.37 18.63C10.4285 18.8424 10.4653 19.0602 10.48 19.28C10.5006 19.3958 10.5006 19.5143 10.48 19.63C10.31 19.47 9.71 19.63 9.57 19.63H9.18L6.09 19.4H5.09H5V19.2L5.52 16.82C5.52 16.82 5.62 16.29 5.65 16.09C5.67004 15.9619 5.65005 15.8308 5.59278 15.7144C5.53551 15.5981 5.44375 15.5023 5.33 15.44C5.25616 15.4066 5.17605 15.3893 5.095 15.3893C5.01395 15.3893 4.93384 15.4066 4.86 15.44C4.77 15.44 4.5 15.64 4.47 15.66C4.28308 15.7344 4.08859 15.788 3.89 15.82C3.70114 15.8495 3.50886 15.8495 3.32 15.82C3.21243 15.8153 3.10542 15.802 3 15.78C2.88804 15.73 2.78092 15.6697 2.68 15.6L2.42 15.32L2.3 15.05C2.27511 14.9447 2.28504 14.8342 2.32832 14.735C2.37159 14.6359 2.44587 14.5534 2.54 14.5C3.05425 14.2964 3.58223 14.1293 4.12 14L4.94 13.63C5.14058 13.5096 5.32824 13.3689 5.5 13.21C5.59 13.13 5.66 13.04 5.74 12.96C6.47532 13.2707 7.28679 13.3543 8.07 13.2C8.52998 13.0674 8.95155 12.8267 9.29948 12.4979C9.64741 12.1691 9.91161 11.7618 10.07 11.31C10.212 10.9223 10.2751 10.5101 10.2556 10.0977C10.2361 9.68523 10.1344 9.28083 9.95651 8.90822C9.77859 8.53561 9.52802 8.2023 9.21952 7.92786C8.91102 7.65341 8.55079 7.44336 8.16 7.31004C7.42065 7.05711 6.61615 7.0706 5.88569 7.34817C5.15524 7.62575 4.5448 8.14994 4.16 8.83004C3.93795 9.21743 3.80802 9.65073 3.78027 10.0964C3.75253 10.542 3.82771 10.9881 4 11.4C4.25058 11.9437 4.65804 12.3999 5.17 12.71L5.09 12.79C4.93629 12.9137 4.77237 13.0241 4.6 13.12L3.87 13.39C3.26 13.59 2.31 13.58 1.87 14.01C1.71822 14.153 1.60274 14.3301 1.53317 14.5266C1.4636 14.7231 1.44194 14.9335 1.47 15.14C1.47779 15.256 1.50134 15.3704 1.54 15.48C1.57301 15.581 1.61659 15.6782 1.67 15.77C1.72846 15.8753 1.79535 15.9756 1.87 16.07C1.94901 16.164 2.036 16.251 2.13 16.33C2.28704 16.4561 2.45818 16.5635 2.64 16.65C2.81991 16.7383 3.01206 16.7989 3.21 16.83C3.44871 16.8652 3.69129 16.8652 3.93 16.83C4.10866 16.8188 4.286 16.7921 4.46 16.75L4 19C3.91751 19.2792 3.87707 19.569 3.88 19.86C3.90303 19.9531 3.94635 20.0399 4.00685 20.1142C4.06736 20.1886 4.14357 20.2486 4.23 20.29C4.43223 20.3724 4.64382 20.4294 4.86 20.46C4.99314 20.4703 5.12686 20.4703 5.26 20.46C5.09621 21.1485 5.07578 21.8633 5.2 22.56C5.29416 22.9048 5.50528 23.206 5.79719 23.4122C6.0891 23.6184 6.44362 23.7166 6.8 23.69C7.16631 23.7089 7.52539 23.5832 7.8 23.34C7.94834 23.5554 8.1494 23.7291 8.38399 23.8447C8.61857 23.9602 8.87886 24.0137 9.14 24C9.41066 23.9954 9.67608 23.9246 9.91312 23.7939C10.1502 23.6632 10.3516 23.4765 10.5 23.25C10.7249 22.8691 10.8584 22.4413 10.89 22C10.9052 21.4872 10.8649 20.9742 10.77 20.47C10.9259 20.4187 11.0576 20.312 11.14 20.17C11.2578 19.9347 11.3129 19.6729 11.3 19.41C11.2819 19.0697 11.218 18.7333 11.11 18.41L10.28 15.85ZM4.88 11C4.73974 10.7154 4.66679 10.4024 4.66679 10.085C4.66679 9.76773 4.73974 9.45467 4.88 9.17004C5.00126 8.88995 5.17728 8.63692 5.39773 8.42582C5.61818 8.21473 5.8786 8.04984 6.16369 7.94083C6.44877 7.83183 6.75278 7.78091 7.05782 7.79108C7.36287 7.80125 7.66281 7.8723 7.94 8.00004C8.44873 8.22044 8.86315 8.61361 9.11 9.11004C9.25694 9.40197 9.33762 9.72274 9.34626 10.0495C9.3549 10.3762 9.2913 10.7008 9.16 11C9.0535 11.2919 8.87775 11.5536 8.64783 11.7627C8.41791 11.9717 8.1407 12.1218 7.84 12.2C7.27241 12.2959 6.68922 12.2265 6.16 12C5.6237 11.8377 5.16727 11.4811 4.88 11ZM7.36 22C7.34354 22.1718 7.29252 22.3385 7.21 22.49C7.17271 22.5755 7.11312 22.6494 7.03747 22.7039C6.96182 22.7585 6.87289 22.7917 6.78 22.8C6.60421 22.835 6.42175 22.8083 6.2633 22.7246C6.10485 22.6408 5.98009 22.505 5.91 22.34C5.75725 21.7455 5.73 21.1257 5.83 20.52H6.05H7.49C7.48567 20.5398 7.48567 20.5603 7.49 20.58C7.3874 21.0461 7.34373 21.5231 7.36 22ZM10.12 21.95C10.0769 22.2628 9.96042 22.5609 9.78 22.82C9.70295 22.9139 9.60481 22.9881 9.49358 23.0368C9.38236 23.0855 9.2612 23.1071 9.14 23.1C9.0336 23.0996 8.92944 23.0694 8.8393 23.0129C8.74917 22.9563 8.67667 22.8757 8.63 22.78C8.51805 22.5348 8.45682 22.2695 8.45 22C8.45475 21.9268 8.45475 21.8533 8.45 21.78L8.51 21.08V20.68C8.51656 20.6437 8.51656 20.6064 8.51 20.57H9.51H10.1C10.1608 21.0109 10.1676 21.4576 10.12 21.9V21.95Z" fill="black"/>
<path fill-rule="evenodd" clip-rule="evenodd" d="M22.52 13C22.4706 12.7344 22.3522 12.4865 22.1766 12.2811C22.0011 12.0758 21.7747 11.9202 21.52 11.83C21.1945 11.7391 20.8529 11.722 20.52 11.78C20.0973 11.8649 19.6824 11.9853 19.28 12.14C19.7254 11.5212 19.9185 10.7561 19.82 10C19.47 6.42002 14.14 6.37002 13.97 10.09C13.9151 10.813 14.1239 11.5314 14.5577 12.1123C14.9916 12.6933 15.6212 13.0974 16.33 13.25C16.5298 13.2964 16.7353 13.3132 16.94 13.3C17.2241 13.277 17.5054 13.2267 17.78 13.15C18.0433 13.0633 18.2926 12.9387 18.52 12.78C18.5494 12.8196 18.5894 12.8501 18.6355 12.8678C18.6815 12.8855 18.7316 12.8897 18.78 12.88C19.18 12.83 19.78 12.69 20.33 12.65C20.5943 12.6179 20.8624 12.6523 21.11 12.75C21.2232 12.8071 21.3169 12.8965 21.3792 13.0069C21.4415 13.1172 21.4696 13.2436 21.46 13.37C21.4652 13.6985 21.3595 14.0191 21.16 14.28C20.9261 14.5647 20.6181 14.7793 20.27 14.9C19.67 15.0684 19.0583 15.192 18.44 15.27C18.3659 15.2889 18.3023 15.3363 18.263 15.4018C18.2237 15.4674 18.2118 15.5458 18.23 15.62L18.5 17.11L18.85 18.58C19.0564 19.0826 19.2334 19.5968 19.38 20.12C19.4719 20.4278 19.5091 20.7494 19.49 21.07C19.4943 21.2539 19.4515 21.4359 19.3658 21.5987C19.28 21.7614 19.1541 21.8996 19 22C17.54 22.85 17.43 20.94 17.42 20.91C17.2777 20.381 17.0972 19.863 16.88 19.36C16.8521 19.2791 16.7933 19.2126 16.7164 19.1751C16.6395 19.1376 16.5509 19.1322 16.47 19.16C16.3891 19.1879 16.3226 19.2467 16.2851 19.3236C16.2476 19.4005 16.2422 19.4891 16.27 19.57C16.4362 20.0573 16.5698 20.555 16.67 21.06C16.725 21.3609 16.725 21.6692 16.67 21.97C16.6303 22.1023 16.5501 22.2189 16.4406 22.3032C16.3312 22.3875 16.1981 22.4354 16.06 22.44C15.9126 22.4604 15.7625 22.4477 15.6206 22.4027C15.4788 22.3577 15.3487 22.2816 15.24 22.18C15.087 22.0178 14.9559 21.8362 14.85 21.64C14.676 21.3151 14.5191 20.9813 14.38 20.64C14.0496 19.8337 13.7887 19.0007 13.6 18.15C13.404 17.2857 13.2571 16.411 13.16 15.53L13.06 13.66C13.06 13.5831 13.0294 13.5093 12.9751 13.455C12.9207 13.4006 12.8469 13.37 12.77 13.37C12.6931 13.37 12.6193 13.4006 12.5649 13.455C12.5106 13.5093 12.48 13.5831 12.48 13.66L12.42 15.6C12.4168 16.7131 12.5139 17.8243 12.71 18.92C12.8706 19.6308 13.0914 20.3267 13.37 21C13.524 21.4048 13.7113 21.7962 13.93 22.17C14.0954 22.4401 14.2936 22.6886 14.52 22.91C14.7515 23.1111 15.0261 23.2562 15.3226 23.3343C15.6191 23.4123 15.9295 23.4211 16.23 23.36C16.5305 23.3126 16.8096 23.1755 17.0309 22.9668C17.2522 22.758 17.4052 22.4872 17.47 22.19C17.4555 22.2542 17.4612 22.3213 17.4863 22.3821C17.5113 22.443 17.5545 22.4946 17.61 22.53C17.8674 22.7114 18.1664 22.8248 18.4793 22.8597C18.7922 22.8947 19.1089 22.8501 19.4 22.73C19.6937 22.5859 19.9475 22.372 20.1393 22.107C20.3311 21.842 20.4549 21.534 20.5 21.21C20.5688 20.7676 20.5518 20.316 20.45 19.88C20.2813 19.3026 20.0638 18.7406 19.8 18.2L19.27 16.9L18.88 15.75C18.9262 15.7933 18.9867 15.8182 19.05 15.82C19.6399 15.8576 20.2319 15.7933 20.8 15.63C21.2141 15.5096 21.5943 15.2939 21.91 15C22.1585 14.7359 22.3428 14.4181 22.4486 14.0713C22.5544 13.7244 22.5788 13.3578 22.52 13ZM17.46 12.11C17.3042 12.163 17.1433 12.1999 16.98 12.22C16.8374 12.24 16.6926 12.24 16.55 12.22C16.0637 12.1326 15.6241 11.8757 15.3092 11.4949C14.9943 11.1141 14.8246 10.6341 14.83 10.14C14.76 7.46002 18.72 7.43002 18.83 10.14C18.8612 10.5755 18.7423 11.0086 18.493 11.367C18.2437 11.7255 17.8791 11.9877 17.46 12.11Z" fill="black"/>
<path fill-rule="evenodd" clip-rule="evenodd" d="M12.77 1.00002C12.8037 0.92037 12.8047 0.830688 12.7729 0.750273C12.7411 0.669858 12.679 0.605134 12.6 0.570025C12.3767 0.463732 12.1461 0.373503 11.91 0.300025C11.69 0.230025 11.45 0.170025 11.22 0.120025L10.22 2.46258e-05C9.81091 -0.0111616 9.40182 0.0223706 9 0.100025C8.80479 0.153623 8.63044 0.265207 8.5 0.420025C8.44831 0.500591 8.42084 0.594302 8.42084 0.690025C8.42084 0.785747 8.44831 0.879458 8.5 0.960025L8.64001 1.15002L9.13 1.94002C9.32 2.24002 9.56 2.55002 9.78 2.88002H9.60001C9.46968 2.91067 9.34488 2.96127 9.23 3.03002C9.03585 3.13529 8.86716 3.28185 8.73581 3.4594C8.60446 3.63694 8.51365 3.84113 8.46979 4.05758C8.42593 4.27403 8.43008 4.49747 8.48195 4.71214C8.53382 4.92681 8.63215 5.12748 8.77001 5.30002C8.89038 5.50025 9.05191 5.67263 9.24389 5.80576C9.43588 5.93888 9.65394 6.02972 9.88366 6.07226C10.1134 6.1148 10.3495 6.10808 10.5764 6.05253C10.8034 5.99697 11.0159 5.89387 11.2 5.75002C11.4177 5.57387 11.5721 5.33168 11.64 5.06002C11.7168 4.73111 11.7168 4.38894 11.64 4.06002C11.5169 3.6191 11.3245 3.20055 11.07 2.82002C10.74 2.29002 10.31 1.82002 9.98 1.34002L9.72001 1.00002C9.90566 0.924337 10.0961 0.860869 10.29 0.810025H11.08C11.3 0.810025 11.51 0.880025 11.72 0.930025C11.931 0.978161 12.1382 1.04166 12.34 1.12002C12.4137 1.15752 12.4987 1.16599 12.5784 1.14377C12.658 1.12155 12.7264 1.07025 12.77 1.00002ZM10.14 3.45002C10.3192 3.7252 10.4573 4.02502 10.55 4.34002C10.5751 4.4789 10.5751 4.62115 10.55 4.76003C10.554 4.80035 10.5489 4.84106 10.5351 4.87915C10.5212 4.91723 10.499 4.95171 10.47 4.98002C10.3916 5.04678 10.2999 5.09619 10.2011 5.12501C10.1022 5.15383 9.99837 5.1614 9.89636 5.14724C9.79436 5.13307 9.69651 5.09748 9.60924 5.04281C9.52197 4.98814 9.44726 4.91562 9.39001 4.83002C9.30928 4.74241 9.24915 4.63788 9.21399 4.52405C9.17883 4.41023 9.16954 4.28999 9.18679 4.17212C9.20404 4.05424 9.2474 3.94171 9.3137 3.84273C9.38 3.74375 9.46756 3.66083 9.57 3.60002C9.63658 3.54519 9.71553 3.50743 9.8 3.49002L10.14 3.45002Z" fill="black"/>
<path fill-rule="evenodd" clip-rule="evenodd" d="M16.06 6.08004C16.313 5.98236 16.5401 5.82786 16.7239 5.62846C16.9077 5.42907 17.0432 5.19011 17.12 4.93004C17.3179 4.00383 17.3718 3.05267 17.28 2.11004V1.28004L17.53 1.33004C17.7573 1.39193 17.9757 1.48266 18.18 1.60004C18.3328 1.68878 18.4739 1.79628 18.6 1.92004C18.74 2.05004 18.87 2.19004 19 2.33004C19.0627 2.38766 19.1448 2.41964 19.23 2.41964C19.3152 2.41964 19.3973 2.38766 19.46 2.33004C19.4908 2.3002 19.5154 2.26446 19.5321 2.22494C19.5489 2.18543 19.5575 2.14295 19.5575 2.10004C19.5575 2.05712 19.5489 2.01464 19.5321 1.97513C19.5154 1.93561 19.4908 1.89987 19.46 1.87004C19.308 1.66739 19.1444 1.47373 18.97 1.29004C18.8712 1.18501 18.7642 1.08804 18.65 1.00004C18.3465 0.781729 18.0085 0.61608 17.65 0.510036C17.3945 0.431409 17.1266 0.400892 16.86 0.420036C16.76 0.422526 16.6635 0.456839 16.5843 0.517986C16.5052 0.579132 16.4476 0.663925 16.42 0.760036V1.15004L16.29 2.15004V3.53004C16.0594 3.48313 15.8252 3.45637 15.59 3.45004C15.3515 3.44936 15.117 3.51144 14.91 3.63004C14.6216 3.80113 14.4026 4.06812 14.2911 4.38434C14.1796 4.70056 14.1827 5.04591 14.3 5.36004C14.4411 5.68621 14.7043 5.94419 15.0333 6.07876C15.3622 6.21332 15.7307 6.21378 16.06 6.08004ZM15.27 4.16004C15.3636 4.09291 15.4749 4.05467 15.59 4.05004C15.7928 4.03005 15.9972 4.03005 16.2 4.05004C16.196 4.12665 16.196 4.20342 16.2 4.28004C16.13 4.64004 16.04 4.98004 15.73 5.10004C15.6836 5.14298 15.6281 5.17489 15.5677 5.19339C15.5072 5.21189 15.4434 5.21651 15.3809 5.2069C15.3184 5.19728 15.2589 5.17369 15.2068 5.13787C15.1547 5.10205 15.1114 5.05494 15.08 5.00004C14.9967 4.86269 14.9699 4.69835 15.0054 4.54166C15.0408 4.38497 15.1357 4.24815 15.27 4.16004Z" fill="black"/>
</g>
<defs>
<clipPath id="clip0_1047_6032">
<rect width="24" height="24" fill="white"/>
</clipPath>
</defs>
</svg>
