<svg width="24" height="24" viewBox="0 0 24 24" fill="none" xmlns="http://www.w3.org/2000/svg">
<path fill-rule="evenodd" clip-rule="evenodd" d="M20.77 6.42C20.2864 6.23839 19.7763 6.13705 19.26 6.12C17.6 6 14.94 6 13.75 6C14.16 5.09 14.97 3.3 15.36 2.48C15.41 2.36 15.62 2.09 15.62 1.88C15.62 1.67 15.21 1.26 14.93 1.75C14.93 1.81 14.82 1.96 14.72 2.17C14.16 3.3 12.79 6.23 12.79 6.23C12.7602 6.28889 12.7446 6.35398 12.7446 6.42C12.7446 6.48603 12.7602 6.55112 12.79 6.61C12.8252 6.6649 12.8742 6.70953 12.9322 6.73938C12.9901 6.76924 13.0549 6.78325 13.12 6.78C15.3709 6.7598 17.6212 6.86663 19.86 7.1H20C19.9604 7.17548 19.917 7.24891 19.87 7.32C19.243 8.12348 18.5755 8.89448 17.87 9.63C16.6 10.98 15.05 12.53 13.75 13.8C12.64 14.93 7.00002 20.2 4.52002 22.19L4.13002 22.49C4.36463 21.6936 4.70072 20.9307 5.13002 20.22C6.26002 18.14 8.07002 15.41 9.70002 12.72C9.803 12.5869 9.85888 12.4233 9.85888 12.255C9.85888 12.0867 9.803 11.9231 9.70002 11.79C9.56509 11.6259 9.37805 11.513 9.17002 11.47C8.78797 11.4258 8.40208 11.4258 8.02002 11.47L4.75002 11.55H4.10002C4.18002 11.37 4.30002 11.15 4.38002 10.93C5.28002 8.4 7.69002 2.47 8.46002 0.930003C8.89002 0.820003 9.91002 0.800003 10 0.790003C10.75 0.730003 11.52 0.700003 12.29 0.680003H15.79C15.8334 0.680207 15.8763 0.671311 15.916 0.653891C15.9557 0.636471 15.9913 0.610913 16.0206 0.578871C16.0498 0.546828 16.0719 0.509012 16.0856 0.467867C16.0993 0.426722 16.1042 0.383162 16.1 0.340003C16.1042 0.296845 16.0993 0.253285 16.0856 0.21214C16.0719 0.170995 16.0498 0.133179 16.0206 0.101136C15.9913 0.0690934 15.9557 0.0435361 15.916 0.0261158C15.8763 0.00869558 15.8334 -0.000200157 15.79 3.41664e-06H11.69C11.11 3.41664e-06 10.52 3.41982e-06 9.92002 0.0700034H8.31002C8.131 0.0860629 7.96561 0.172351 7.85002 0.310003C7.13002 1.6 4.44002 7.87 3.43002 10.51C3.28172 10.8688 3.15483 11.2361 3.05002 11.61C3.01497 11.7147 3.00949 11.8271 3.03419 11.9347C3.05889 12.0423 3.11281 12.1411 3.19002 12.22C3.35666 12.3588 3.55654 12.4518 3.77002 12.49C4.10262 12.5214 4.43743 12.5214 4.77002 12.49L8.00002 12.5C8.14253 12.5168 8.28315 12.5469 8.42002 12.59C6.51002 15.66 4.42002 18.73 3.48002 20.8C3.17697 21.3902 2.98383 22.0306 2.91002 22.69C2.88038 22.9139 2.91004 23.1416 2.99603 23.3505C3.08202 23.5593 3.22133 23.7419 3.40002 23.88C3.5103 23.9461 3.63646 23.981 3.76502 23.981C3.89359 23.981 4.01975 23.9461 4.13002 23.88C4.5349 23.6468 4.91663 23.3756 5.27002 23.07C7.75002 21.07 13.39 15.66 14.51 14.53C16.3 12.73 18.51 10.36 19.89 8.78C20.4274 8.24462 20.8375 7.59528 21.09 6.88C21.0818 6.78198 21.0479 6.68785 20.9917 6.6071C20.9355 6.52635 20.8591 6.46182 20.77 6.42Z" fill="black"/>
</svg>
