<svg width="24" height="24" viewBox="0 0 24 24" fill="none" xmlns="http://www.w3.org/2000/svg">
<path d="M5.37 14.77C5.32545 14.9473 5.29535 15.1279 5.28 15.31C5.27002 15.4965 5.27002 15.6835 5.28 15.87C5.2995 16.3159 5.36655 16.7584 5.48 17.19C5.48493 17.2309 5.49793 17.2703 5.51826 17.3061C5.5386 17.3419 5.56584 17.3732 5.59842 17.3983C5.631 17.4235 5.66825 17.4419 5.70801 17.4525C5.74777 17.463 5.78924 17.4656 5.83 17.46C5.87042 17.4563 5.90968 17.4445 5.94539 17.4252C5.98111 17.4059 6.01254 17.3796 6.03778 17.3478C6.06302 17.316 6.08155 17.2794 6.09225 17.2403C6.10294 17.2011 6.10558 17.1602 6.1 17.12C6.13621 16.7102 6.19631 16.3028 6.28 15.9C6.32868 15.6254 6.36206 15.3483 6.38 15.07C6.39113 14.5817 6.36103 14.0933 6.29 13.61C6.29416 13.5729 6.2906 13.5354 6.27954 13.4998C6.26847 13.4642 6.25015 13.4312 6.22572 13.403C6.20129 13.3749 6.17129 13.352 6.13761 13.336C6.10392 13.32 6.06728 13.3112 6.03 13.31C5.76 13.31 3.1 15.08 2.2 15.49C1.88043 15.638 1.54489 15.7487 1.2 15.82V15.23V12.13C1.2 11.13 1.14 10.13 1.15 9.13C1.15 8.48 1.15 7.83 1.22 7.18V6.18C1.46836 6.34933 1.72909 6.49975 2 6.63C2.61333 7.02334 3.23333 7.40334 3.86 7.77C4.46 8.12 5.08 8.44001 5.71 8.77001C5.71372 8.80424 5.7242 8.83739 5.74084 8.86754C5.75748 8.89769 5.77994 8.92423 5.80692 8.94563C5.8339 8.96703 5.86486 8.98285 5.898 8.99219C5.93115 9.00152 5.96582 9.00418 6 9C6.07253 8.99241 6.13924 8.95681 6.18593 8.90078C6.23262 8.84475 6.25561 8.77272 6.25 8.7C6.21491 8.21731 6.21491 7.7327 6.25 7.25C6.25 6.77 6.32 6.25001 6.37 5.8C6.37 5.66 6.37 5.47001 6.43 5.28C6.4423 5.17709 6.48396 5.07989 6.55 5C6.79781 4.79955 7.11192 4.69961 7.43 4.72C8.12 4.72 8.9 4.79 9.43 4.77C10.88 4.66 12.34 4.62 13.79 4.59L18.2 4.5C18.2822 4.5 18.3611 4.46734 18.4192 4.40921C18.4773 4.35107 18.51 4.27222 18.51 4.19C18.51 4.10779 18.4773 4.02894 18.4192 3.9708C18.3611 3.91267 18.2822 3.88 18.2 3.88C16.15 3.79 14.09 3.64 12.03 3.63C11.14 3.63 10.25 3.63 9.36 3.71C8.57316 3.66968 7.78443 3.68639 7 3.76C6.56618 3.83597 6.17309 4.06261 5.89 4.4C5.78645 4.53568 5.71468 4.69288 5.68 4.86C5.62886 5.14373 5.60542 5.43175 5.61 5.72V7.22V8.05C5.14 7.77 4.61 7.5 4.2 7.19C3.79 6.88 3.05 6.39 2.47 6C2.36 5.92 1.71 5.38 1.42 5.21C1.34075 5.15896 1.25074 5.12697 1.15705 5.11656C1.06336 5.10615 0.968525 5.1176 0.88 5.15C0.682518 5.26578 0.530735 5.4458 0.45 5.66C0.294381 6.12672 0.193701 6.60998 0.15 7.1C0.0665835 7.76374 0.0165205 8.43125 0 9.10001C0 10.1 0 11.1 0.06 12.1L0.21 15.24C0.21 15.24 0.26 15.94 0.29 16.24V16.35C0.307123 16.4666 0.366519 16.5728 0.456876 16.6484C0.547234 16.724 0.662242 16.7637 0.78 16.76C1.38842 16.6771 1.97745 16.4876 2.52 16.2C3.57 15.67 4.52 14.87 5.52 14.26C5.46 14.44 5.41 14.6 5.37 14.77Z" fill="black"/>
<path d="M21.54 5.31C21.54 6.07 21.61 7.16 21.54 7.95C21.46 9.84 21.25 11.77 21.18 13.46C21.18 14.23 21.26 15.19 21.18 16.06C21.175 16.3985 21.1246 16.7349 21.03 17.06C20.95 17.31 20.62 17.47 20.26 17.62C19.6313 17.8742 18.9778 18.0619 18.31 18.18C16.9449 18.4327 15.5582 18.5499 14.17 18.53C12.54 18.53 10.75 18.41 9.17 18.31C8.62 18.31 8.06 18.87 8.82 19.01C10.65 19.21 12.22 19.33 14.16 19.4C15.6101 19.4734 17.0638 19.403 18.5 19.19C19.3786 19.054 20.2337 18.7948 21.04 18.42C21.4929 18.2074 21.8497 17.8328 22.04 17.37C22.1537 16.9663 22.2142 16.5494 22.22 16.13C22.22 15.25 22.12 14.29 22.13 13.5C22.13 11.82 22.24 9.88 22.22 7.99C22.216 7.09136 22.1659 6.19351 22.07 5.3C22.08 4.67 21.53 4.85 21.54 5.31Z" fill="black"/>
<path d="M23.93 1.71002C23.9048 1.6837 23.8745 1.66276 23.841 1.64845C23.8075 1.63415 23.7714 1.62677 23.735 1.62677C23.6986 1.62677 23.6625 1.63415 23.629 1.64845C23.5955 1.66276 23.5652 1.6837 23.54 1.71002C22.0076 2.96921 20.5391 4.30421 19.14 5.71002C18.08 6.75669 17.0333 7.82669 16 8.92002C15 10.01 14 11.13 13 12.21C11.54 13.87 10 15.49 8.52 17.1C7.04 18.71 5.5 20.29 3.93 21.85C3.87033 21.907 3.83575 21.9854 3.83387 22.0679C3.832 22.1505 3.86298 22.2303 3.92 22.29C3.97702 22.3497 4.05541 22.3843 4.13793 22.3861C4.22045 22.388 4.30033 22.357 4.36 22.3C4.42 22.25 7.29 19.63 10.14 16.77C11.4 15.51 12.63 14.22 13.84 12.92C15.05 11.62 16.14 10.35 17.29 9.04002C19.3607 6.60391 21.5676 4.28688 23.9 2.10002C23.9284 2.07691 23.9517 2.04828 23.9687 2.01586C23.9856 1.98345 23.9958 1.94792 23.9986 1.91145C24.0014 1.87498 23.9968 1.83832 23.985 1.80369C23.9732 1.76907 23.9545 1.7372 23.93 1.71002Z" fill="black"/>
</svg>
