<svg width="24" height="24" viewBox="0 0 24 24" fill="none" xmlns="http://www.w3.org/2000/svg">
<g clip-path="url(#clip0_1050_8116)">
<path fill-rule="evenodd" clip-rule="evenodd" d="M8.21999 8.99998C8.12415 9.02161 8.0404 9.07951 7.98633 9.16155C7.93226 9.24359 7.91207 9.34338 7.92999 9.43998C7.93833 9.48768 7.95621 9.53321 7.98256 9.57383C8.0089 9.61446 8.04317 9.64936 8.08332 9.67643C8.12346 9.70351 8.16866 9.7222 8.2162 9.7314C8.26374 9.74061 8.31264 9.74012 8.35999 9.72998C8.85654 9.62877 9.29615 9.34285 9.58999 8.92998C9.65999 8.83998 9.69999 8.72998 9.76999 8.63998L10.19 8.79998C10.2788 8.84242 10.3809 8.84782 10.4737 8.815C10.5197 8.79875 10.562 8.77361 10.5983 8.741C10.6345 8.7084 10.664 8.66898 10.685 8.62498C10.706 8.58099 10.7181 8.53329 10.7207 8.48461C10.7233 8.43592 10.7163 8.38721 10.7 8.34124C10.6838 8.29528 10.6586 8.25296 10.626 8.21671C10.5934 8.18047 10.554 8.151 10.51 8.12998L10.17 7.90998C10.2795 7.64441 10.3664 7.37011 10.43 7.08998C10.5177 6.67655 10.4722 6.24595 10.3 5.85998C10.2125 5.69663 10.0901 5.55459 9.94145 5.44396C9.7928 5.33334 9.62158 5.25686 9.43999 5.21998C9.13866 5.14685 8.82276 5.16064 8.52895 5.25976C8.23514 5.35887 7.97544 5.53926 7.77999 5.77998C7.64415 5.93823 7.52361 6.10899 7.41999 6.28998C7.13999 6.16998 6.84999 6.06998 6.55999 5.96998C6.55999 5.87998 6.62999 5.77998 6.67999 5.67998C6.72999 5.57998 6.93999 5.22998 7.08999 4.99998C7.11447 4.96393 7.13157 4.92339 7.1403 4.88069C7.14903 4.838 7.14922 4.794 7.14085 4.75123C7.13248 4.70846 7.11573 4.66777 7.09155 4.63152C7.06737 4.59526 7.03625 4.56415 6.99999 4.53998C6.92878 4.491 6.84159 4.47097 6.75614 4.48397C6.67069 4.49698 6.59341 4.54203 6.53999 4.60998C6.35999 4.83665 6.18999 5.06665 6.02999 5.29998C5.93999 5.43998 5.85999 5.58998 5.77999 5.73998L5.36999 5.59998C5.29034 5.56633 5.20065 5.56529 5.12024 5.59708C5.03982 5.62887 4.9751 5.69096 4.93999 5.76998C4.92165 5.80863 4.91125 5.85055 4.90939 5.89328C4.90753 5.93602 4.91426 5.97869 4.92918 6.01878C4.94409 6.05886 4.9669 6.09555 4.99623 6.12668C5.02557 6.1578 5.06085 6.18273 5.09999 6.19998L5.46999 6.44998C5.34368 6.71885 5.24646 7.00045 5.17999 7.28998C5.11628 7.62027 5.11628 7.95969 5.17999 8.28998C5.21308 8.47557 5.28553 8.65192 5.39247 8.80716C5.49942 8.96241 5.63837 9.09294 5.79999 9.18998C5.99154 9.28516 6.20635 9.3235 6.419 9.30047C6.63166 9.27743 6.83326 9.19398 6.99999 9.05998C7.38804 8.7836 7.70644 8.42069 7.92999 7.99998L8.25999 8.15998L8.99999 8.32998C8.92387 8.48987 8.81516 8.63207 8.68083 8.74745C8.5465 8.86284 8.38953 8.94886 8.21999 8.99998ZM6.33999 8.06998C6.33999 8.06998 6.22999 7.99998 6.21999 7.99998C6.14438 7.76101 6.12387 7.50802 6.15999 7.25998C6.15999 7.15998 6.15999 7.05998 6.22999 6.95998L6.76999 7.30998H6.84999C6.7441 7.60091 6.56907 7.86173 6.33999 8.06998ZM8.52999 6.86998C8.5821 6.7772 8.63884 6.68708 8.69999 6.59998C8.75706 6.51443 8.83697 6.44659 8.93066 6.40417C9.02434 6.36174 9.12804 6.34644 9.22999 6.35998C9.27029 6.36597 9.3076 6.38476 9.33641 6.41357C9.36522 6.44238 9.384 6.47968 9.38999 6.51998C9.41972 6.65841 9.41972 6.80156 9.38999 6.93998C9.35783 7.07554 9.31776 7.20911 9.26999 7.33998C9.12999 7.22998 8.99999 7.10998 8.78999 6.99998L8.52999 6.86998Z" fill="black"/>
<path fill-rule="evenodd" clip-rule="evenodd" d="M17 5.08C17 5.2 16.94 5.39 18.22 5.66C18.3432 5.66907 18.4668 5.66907 18.59 5.66C18.7198 5.66996 18.8502 5.66996 18.98 5.66C20.23 5.56 20.26 5.47 20.3 5.24C20.34 5.01 20.3 4.8 19.07 4.5C18.9362 4.46248 18.7987 4.43902 18.66 4.43C18.5271 4.41506 18.3929 4.41506 18.26 4.43C18.13 4.49 17 4.71 17 5.08Z" fill="black"/>
<path fill-rule="evenodd" clip-rule="evenodd" d="M16.13 5.93998C16.03 5.32998 15.62 3.49998 15.07 3.77998C14.8469 3.68397 14.6161 3.60702 14.38 3.54998C14.2502 3.54006 14.1198 3.54006 13.99 3.54998C13.8647 3.55454 13.7404 3.57469 13.62 3.60998C13.3388 3.7154 13.0677 3.84592 12.81 3.99998C12.7257 4.01695 12.6513 4.06617 12.6028 4.13715C12.5542 4.20812 12.5353 4.29525 12.55 4.37998C12.5561 4.42223 12.5705 4.46283 12.5925 4.4994C12.6145 4.53598 12.6436 4.56778 12.6781 4.59294C12.7126 4.6181 12.7518 4.6361 12.7933 4.6459C12.8348 4.6557 12.8779 4.65708 12.92 4.64998C13.25 4.64998 13.53 4.78998 13.85 4.80998C14.0199 4.81984 14.1901 4.81984 14.36 4.80998L14.69 4.73998C14.1 5.73998 13.41 6.73998 12.69 7.95998C12.36 8.49998 12.03 9.05998 11.69 9.62998C11.35 10.2 11.05 10.77 10.74 11.34C10.63 11.54 10.12 12.63 10.01 12.83C9.16833 11.8433 8.1469 11.0255 7 10.42C5.72048 9.82471 4.30387 9.58631 2.9 9.72998C3 8.95998 3.55 7.28998 3.65 6.52998C3.71 6.09998 3.75 5.66998 3.81 5.23998C3.87 4.80998 3.86 4.39998 4 3.99998C4.0774 3.60685 4.18096 3.21932 4.31 2.83998C5.32655 2.96157 6.33042 3.17238 7.31 3.46998C7.77 3.60998 8.22 3.74998 8.67 3.91998C9.12 4.08998 9.55 4.26998 9.98 4.47998C10.9981 4.95657 11.9279 5.6024 12.73 6.38998C12.7605 6.43159 12.7993 6.46637 12.844 6.49209C12.8887 6.5178 12.9383 6.53389 12.9896 6.53932C13.0408 6.54475 13.0927 6.5394 13.1418 6.52361C13.1909 6.50783 13.2361 6.48195 13.2746 6.44764C13.3132 6.41334 13.3441 6.37136 13.3654 6.32441C13.3867 6.27746 13.398 6.22657 13.3985 6.175C13.399 6.12343 13.3887 6.07233 13.3683 6.02497C13.3479 5.9776 13.3178 5.93503 13.28 5.89998C12.5247 4.92213 11.5959 4.09163 10.54 3.44998C10.0849 3.17486 9.60641 2.94061 9.11 2.74998C8.62095 2.55813 8.11556 2.41086 7.6 2.30998C6.40555 2.09934 5.18945 2.03887 3.98 2.12998C3.68 2.12998 2.98 3.77998 2.72 4.71998C2.63023 5.04827 2.5634 5.38241 2.52 5.71998C2.47337 6.05127 2.44997 6.38542 2.45 6.71998C2.45 7.52998 2.14 9.22998 2.23 10.03C2.32 10.83 1.9 9.38998 6.48 11.5L7.24 11.86C7.05118 12.2237 6.91002 12.6102 6.82 13.01C6.7403 13.4262 6.7403 13.8538 6.82 14.27C6.93914 14.8884 7.26326 15.4485 7.74 15.86C7.35 16.22 6.96 16.58 6.56 16.86C6.24064 17.1219 5.90677 17.3656 5.56 17.59C5.21 17.82 4.87 18.06 4.56 18.27C4.3463 18.4042 4.12226 18.5213 3.89 18.62C3.47343 18.7815 3.02399 18.8398 2.58 18.79C2.19204 18.7522 1.83372 18.5659 1.58 18.27C1.44048 18.1015 1.36004 17.892 1.35101 17.6734C1.34198 17.4549 1.40485 17.2394 1.53 17.06C1.64986 16.8175 1.81961 16.603 2.02813 16.4307C2.23666 16.2583 2.47925 16.132 2.74 16.06C2.91726 16.0203 3.09835 16.0001 3.28 16C3.46302 15.9847 3.64698 15.9847 3.83 16C4.08551 16.0496 4.33401 16.1302 4.57 16.24C4.80561 16.3457 5.02729 16.48 5.23 16.64C5.25984 16.6708 5.29558 16.6954 5.33509 16.7121C5.3746 16.7289 5.41708 16.7375 5.46 16.7375C5.50292 16.7375 5.5454 16.7289 5.58491 16.7121C5.62442 16.6954 5.66016 16.6708 5.69 16.64C5.74987 16.5784 5.78336 16.4959 5.78336 16.41C5.78336 16.3241 5.74987 16.2416 5.69 16.18C5.4591 15.9618 5.20412 15.7706 4.93 15.61C4.6519 15.4506 4.3567 15.3231 4.05 15.23C3.81858 15.1617 3.58059 15.1181 3.34 15.1C3.10065 15.075 2.85935 15.075 2.62 15.1C2.0748 15.1558 1.55619 15.3635 1.1231 15.6994C0.690014 16.0352 0.359808 16.4858 0.17 17C0.0191265 17.3489 -0.0317825 17.7328 0.0229604 18.1089C0.0777032 18.4851 0.235942 18.8386 0.48 19.13C0.701861 19.4138 0.979661 19.649 1.29618 19.821C1.61269 19.993 1.96117 20.0982 2.32 20.13C2.97997 20.1913 3.64411 20.0702 4.24 19.78C4.50723 19.6431 4.76159 19.4825 5 19.3C5.36 19.05 5.69 18.77 6 18.5C6.31 18.23 6.67 17.93 7 17.63C7.33 17.33 7.87 16.72 8.31 16.25C8.3784 16.1807 8.41675 16.0873 8.41675 15.99C8.41675 15.8926 8.3784 15.7992 8.31 15.73C8.09423 15.3899 7.98618 14.9925 8 14.59V14.15V13.48C7.97383 13.1071 7.97383 12.7329 8 12.36C8.5752 12.6709 9.12374 13.0288 9.64 13.43C9.12 14.43 9.04 14.43 8.59 15.27C8.56433 15.3113 8.54707 15.3573 8.53921 15.4054C8.53135 15.4534 8.53304 15.5025 8.54418 15.5499C8.55533 15.5973 8.57572 15.642 8.60417 15.6814C8.63262 15.7209 8.66859 15.7544 8.71 15.78C8.7725 15.7945 8.8375 15.7945 8.9 15.78C8.83604 15.7981 8.77856 15.834 8.73429 15.8836C8.69002 15.9332 8.66078 15.9944 8.65 16.06C8.65 16.06 8.65 16.13 8.65 16.17C8.57633 16.1676 8.50379 16.1886 8.44274 16.2299C8.38169 16.2712 8.33523 16.3307 8.31 16.4C8.13 16.9 7.95 17.4 7.8 17.9C7.70866 18.2622 7.63854 18.6295 7.59 19C7.5286 19.3671 7.49186 19.7379 7.48 20.11C7.47509 20.3713 7.49518 20.6325 7.54 20.89C7.61872 21.4308 7.8513 21.9376 8.21 22.35C8.59558 22.7803 9.11879 23.0631 9.69 23.15C10.203 23.2276 10.7272 23.1769 11.2159 23.0024C11.7045 22.8279 12.1422 22.535 12.49 22.15C12.7291 21.862 12.8852 21.5144 12.9416 21.1444C12.9979 20.7744 12.9525 20.3961 12.81 20.05C12.7402 19.8786 12.66 19.7117 12.57 19.55C12.4723 19.397 12.3655 19.25 12.25 19.11C12.0862 18.9178 11.9091 18.7373 11.72 18.57C11.5232 18.4023 11.3125 18.2517 11.09 18.12C10.8156 17.9671 10.5278 17.8399 10.23 17.74C9.93794 17.6395 9.63637 17.5691 9.33 17.53C9.25183 17.5283 9.17561 17.5544 9.11491 17.6037C9.05422 17.653 9.01299 17.7222 8.99858 17.7991C8.98417 17.8759 8.99752 17.9554 9.03624 18.0233C9.07496 18.0913 9.13653 18.1432 9.21 18.17C9.46981 18.2322 9.72402 18.3158 9.97 18.42C10.2074 18.5304 10.4348 18.6609 10.65 18.81C10.8117 18.9332 10.9623 19.0704 11.1 19.22C11.2375 19.3711 11.3645 19.5314 11.48 19.7L11.79 20.39C11.8605 20.606 11.8553 20.8395 11.7753 21.0522C11.6954 21.2649 11.5453 21.444 11.35 21.56C10.9235 21.8705 10.3915 21.9999 9.87 21.92C9.57285 21.8837 9.29734 21.7459 9.09 21.53C8.85442 21.2926 8.6884 20.9951 8.61 20.67C8.55153 20.4274 8.51802 20.1794 8.51 19.93C8.48985 19.6637 8.48985 19.3963 8.51 19.13C8.53038 18.7935 8.57719 18.4591 8.65 18.13C8.76 17.63 8.89 17.13 9.03 16.64C9.03971 16.5905 9.03971 16.5395 9.03 16.49C9.23557 16.5201 9.44443 16.5201 9.65 16.49C9.95449 16.4312 10.2502 16.3337 10.53 16.2C11.0587 15.9599 11.553 15.6505 12 15.28C12.4474 14.9242 12.8655 14.533 13.25 14.11C13.9342 13.368 14.5532 12.5683 15.1 11.72C15.4681 11.1247 15.7699 10.4909 16 9.82998C16.0772 9.58568 16.1308 9.33453 16.16 9.07998C16.16 8.72998 16.22 8.36998 16.24 8.01998C16.2782 7.32471 16.2413 6.62735 16.13 5.93998ZM15.19 7.93998C15.19 8.25998 15.1 8.57998 15.03 8.93998C14.9919 9.12741 14.9384 9.31137 14.87 9.48998C14.6486 10.0594 14.3776 10.6081 14.06 11.13C13.5636 11.9369 13.0123 12.7087 12.41 13.44C12.1084 13.8498 11.7739 14.2344 11.41 14.59C11.0442 14.9417 10.634 15.2443 10.19 15.49C10.0119 15.5912 9.82431 15.6749 9.63 15.74C9.46508 15.8061 9.28717 15.8335 9.11 15.82C9.16831 15.8012 9.22025 15.7666 9.26 15.72C10.01 14.62 10.91 13.31 11.79 11.91C12.14 11.36 12.48 10.8 12.79 10.24C13.1 9.67998 13.44 9.08998 13.73 8.51998C14.3 7.40998 14.73 6.37998 15.21 5.42998C15.21 5.64998 15.28 5.86998 15.29 6.09998C15.3227 6.70848 15.2892 7.31873 15.19 7.91998V7.93998Z" fill="black"/>
<path fill-rule="evenodd" clip-rule="evenodd" d="M23.71 11.5C23.4651 11.2116 23.1902 10.9502 22.89 10.72C22.5301 10.4444 22.1451 10.2034 21.74 10C20.88 9.55 19.93 9.23 19.09 8.77C19.0535 8.74665 19.0127 8.73094 18.97 8.72382C18.9272 8.71671 18.8835 8.71835 18.8414 8.72863C18.7994 8.73892 18.7598 8.75764 18.7252 8.78366C18.6906 8.80968 18.6616 8.84245 18.64 8.88C18.5946 8.95323 18.5797 9.04128 18.5984 9.12536C18.6171 9.20944 18.6679 9.28288 18.74 9.33C19.53 9.88 20.42 10.33 21.23 10.86C21.553 11.0694 21.8515 11.3142 22.12 11.59C22.24 11.71 22.42 11.87 22.58 12.06C22.6616 12.1233 22.7211 12.2108 22.75 12.31C22.7667 12.5658 22.7257 12.8222 22.63 13.06C22.4887 13.5157 22.3217 13.9631 22.13 14.4C22.02 14.69 21.91 14.98 21.78 15.27C21.65 15.56 21.52 15.83 21.37 16.09C21.1451 16.4991 20.884 16.8873 20.59 17.25C20.2847 17.6102 19.9502 17.9447 19.59 18.25C19.5477 18.294 19.5198 18.3498 19.51 18.41C19.21 18.29 18.91 18.15 18.62 18C17.79 17.55 17.02 17 16.18 16.63L15.82 16.42C16.0837 16.3007 16.3408 16.1672 16.59 16.02C16.8979 15.8408 17.1951 15.6438 17.48 15.43C17.6808 15.2912 17.8653 15.1302 18.03 14.95C18.1331 14.8266 18.2021 14.6784 18.23 14.52C18.2413 14.3952 18.2184 14.2697 18.1638 14.157C18.1092 14.0442 18.0249 13.9485 17.92 13.88C17.7946 13.7988 17.6644 13.7253 17.53 13.66C17.3146 13.5189 17.1075 13.3653 16.91 13.2L16.75 13.06L16.88 12.96L18.4 12.12C18.5738 12.015 18.7378 11.8945 18.89 11.76C18.9939 11.6717 19.0731 11.558 19.12 11.43C19.1609 11.3658 19.1827 11.2912 19.1827 11.215C19.1827 11.1388 19.1609 11.0642 19.12 11C19.07 10.93 18.93 10.78 18.91 10.75L18.29 10L17.59 9.11C17.5357 9.04707 17.4597 9.00694 17.3771 8.99762C17.2945 8.9883 17.2115 9.01049 17.1445 9.05974C17.0776 9.109 17.0317 9.1817 17.016 9.26332C17.0004 9.34493 17.0161 9.42946 17.06 9.5L17.68 10.42L18.18 11.24L17.94 11.38L16.45 12C16.35 12 15.97 12.15 15.75 12.26C15.5856 12.3422 15.4522 12.4756 15.37 12.64C15.328 12.77 15.328 12.91 15.37 13.04C15.4498 13.2634 15.5646 13.4726 15.71 13.66C15.8824 13.8762 16.0768 14.0739 16.29 14.25C16.42 14.36 16.54 14.46 16.68 14.56C16.4616 14.7191 16.2346 14.866 16 15C15.73 15.17 15.46 15.32 15.18 15.46L14.44 15.84C14.3222 15.9025 14.2281 16.0018 14.1721 16.1228C14.1162 16.2438 14.1014 16.3798 14.13 16.51C14.1597 16.6129 14.2108 16.7083 14.28 16.79C14.3957 16.8945 14.5232 16.9851 14.66 17.06C14.8089 17.1601 14.9661 17.2471 15.13 17.32C15.35 17.43 15.59 17.52 15.82 17.61C16.67 17.93 17.46 18.4 18.29 18.77C18.6665 18.945 19.054 19.0953 19.45 19.22C19.64 19.28 20.6 18.5 21.25 17.83C21.6151 17.4612 21.9496 17.0632 22.25 16.64C22.4433 16.36 22.6233 16.07 22.79 15.77C22.9579 15.4793 23.1081 15.1787 23.24 14.87C23.4714 14.3989 23.675 13.9148 23.85 13.42C23.9768 13.0196 24.0277 12.5991 24 12.18C23.9646 11.9318 23.8646 11.6973 23.71 11.5Z" fill="black"/>
<path fill-rule="evenodd" clip-rule="evenodd" d="M12.13 2.64C12.1906 2.68933 12.258 2.72973 12.33 2.76C13.26 3.21 13.33 3.04 13.39 2.98C13.66 2.73 13.11 1.87 13.1 1.85C13.0394 1.76776 12.965 1.6967 12.88 1.64C12.7989 1.57784 12.7075 1.53045 12.61 1.5C11.68 1.15 11.5 1.33 11.42 1.5C11.34 1.67 11.13 1.74 12.13 2.64Z" fill="black"/>
<path fill-rule="evenodd" clip-rule="evenodd" d="M16.77 2.35999C16.8593 2.24855 16.9364 2.12786 17 1.99999C17.54 1.21999 17.6 1.17999 17.47 0.999992C17.21 0.539992 16.21 1.18999 16.19 1.19999C16.087 1.25996 15.9956 1.33785 15.92 1.42999C15.8357 1.51705 15.7679 1.6187 15.72 1.72999C15.63 1.92999 15.37 2.80999 15.72 2.96999C15.72 2.99999 15.9 3.19999 16.77 2.35999Z" fill="black"/>
</g>
<defs>
<clipPath id="clip0_1050_8116">
<rect width="24" height="24" fill="white"/>
</clipPath>
</defs>
</svg>
