<svg width="24" height="24" viewBox="0 0 24 24" fill="none" xmlns="http://www.w3.org/2000/svg">
<g clip-path="url(#clip0_1051_8594)">
<path fill-rule="evenodd" clip-rule="evenodd" d="M7.88998 8.44997C8.24998 8.86997 8.74998 8.96997 9.03998 9.28997C9.12157 9.39633 9.16712 9.52594 9.16998 9.65997C9.16998 9.73688 9.20053 9.81064 9.25492 9.86503C9.3093 9.91941 9.38307 9.94997 9.45998 9.94997H9.61998C10.0425 10.0702 10.4739 10.1571 10.91 10.21C11.0961 10.23 11.2838 10.23 11.47 10.21C11.6582 10.2014 11.8455 10.178 12.03 10.14C12.42 10.07 12.8 9.94997 13.19 9.83997V10.62C13.19 11.21 12.49 11.37 12.06 11.41C11.4053 11.4547 10.748 11.3801 10.12 11.19C10.19 10.98 9.94998 10.42 9.92998 10.24C9.91805 10.1524 9.87183 10.0732 9.80151 10.0198C9.73118 9.96635 9.6425 9.94303 9.55498 9.95497C9.46746 9.9669 9.38826 10.0131 9.33482 10.0834C9.28137 10.1538 9.25805 10.2424 9.26998 10.33C9.26998 10.55 9.26998 11.18 9.36998 11.43C9.37943 11.5084 9.40935 11.5829 9.45675 11.6461C9.50414 11.7093 9.56734 11.7589 9.63998 11.79C10.4316 12.0903 11.2734 12.2363 12.12 12.22C12.7613 12.2182 13.376 11.963 13.83 11.51C13.9675 11.3419 14.0511 11.1363 14.07 10.92C14.07 10.66 14.07 10.31 14.13 9.99997C14.19 9.68997 14.29 9.61997 15.2 8.80997C15.6625 8.26916 15.9177 7.58156 15.92 6.86997C15.8941 5.86903 15.5431 4.90371 14.92 4.11997C14.378 3.44734 13.6397 2.96058 12.808 2.72755C11.9762 2.49451 11.0925 2.52682 10.28 2.81997C9.47636 3.07741 8.76892 3.57095 8.24986 4.23628C7.73079 4.9016 7.42418 5.70786 7.36998 6.54997C7.34433 6.94457 7.38834 7.34061 7.49998 7.71997C7.58124 7.98636 7.71372 8.23433 7.88998 8.44997ZM8.14998 6.61997C8.22944 5.96183 8.50295 5.34223 8.93569 4.84005C9.36843 4.33786 9.94081 3.9758 10.58 3.79997C11.1865 3.59163 11.8426 3.57589 12.4584 3.75491C13.0742 3.93393 13.6197 4.29894 14.02 4.79997C14.4185 5.28725 14.6838 5.86953 14.79 6.48997C14.8483 6.77524 14.8436 7.0698 14.7762 7.35306C14.7088 7.63633 14.5804 7.90147 14.4 8.12997L13.4 9.05997C13.3708 9.09628 13.3472 9.13672 13.33 9.17997C13.2742 9.166 13.2158 9.166 13.16 9.17997C12.73 9.17997 12.32 9.12997 11.9 9.11997H11.37H10.85C10.45 9.17997 10.07 9.27997 9.66998 9.32997C9.6353 9.16285 9.56353 9.00565 9.45998 8.86997C9.19998 8.54997 8.70998 8.42997 8.37998 7.99997C8.24842 7.80507 8.16293 7.58279 8.12998 7.34997C8.09905 7.10705 8.1058 6.86082 8.14998 6.61997Z" fill="black"/>
<path fill-rule="evenodd" clip-rule="evenodd" d="M5.55999 4.18994C5.62849 4.26175 5.70201 4.32858 5.77999 4.38994C5.84906 4.4489 5.92262 4.5024 5.99999 4.54994C6.22999 4.66994 6.44999 4.71994 6.66999 4.84994C6.72171 4.90696 6.79396 4.9411 6.87085 4.94485C6.94774 4.94861 7.02297 4.92166 7.07999 4.86994C7.13702 4.81822 7.17116 4.74597 7.17491 4.66908C7.17866 4.59219 7.15171 4.51696 7.09999 4.45994C6.99445 4.19317 6.84951 3.94373 6.66999 3.71994C6.59535 3.63067 6.50771 3.55313 6.40999 3.48994C6.31706 3.42162 6.21636 3.36456 6.10999 3.31994C5.86861 3.22171 5.62149 3.13823 5.36999 3.06994C5.29573 3.02088 5.20502 3.00332 5.11782 3.02114C5.03061 3.03895 4.95406 3.09068 4.90499 3.16494C4.85593 3.2392 4.83837 3.32991 4.85619 3.41712C4.874 3.50432 4.92573 3.58088 4.99999 3.62994C5.21999 3.81994 5.36999 3.99994 5.55999 4.18994Z" fill="black"/>
<path fill-rule="evenodd" clip-rule="evenodd" d="M8.43999 1.24997C8.47062 1.35535 8.50735 1.45886 8.54999 1.55997C8.60074 1.65677 8.65752 1.75029 8.71999 1.83997C8.88999 2.04997 9.07999 2.19997 9.26999 2.40997C9.30182 2.48025 9.36026 2.53501 9.43246 2.56221C9.50466 2.5894 9.58471 2.5868 9.65499 2.55497C9.72528 2.52314 9.78004 2.4647 9.80723 2.3925C9.83442 2.3203 9.83182 2.24025 9.79999 2.16997C9.77616 1.89782 9.73609 1.62734 9.67999 1.35997C9.64707 1.25257 9.60352 1.14873 9.54999 1.04997C9.49596 0.950652 9.43232 0.85687 9.35999 0.76997C9.19681 0.561599 9.01974 0.364484 8.82999 0.17997C8.81483 0.137797 8.79097 0.0992806 8.75997 0.0669148C8.72897 0.034549 8.69152 0.0090559 8.65004 -0.0079133C8.60856 -0.0248825 8.56397 -0.0329493 8.51918 -0.0315913C8.47438 -0.0302333 8.43037 -0.0194808 8.38999 -3.00929e-05C8.34994 0.0188994 8.31425 0.0459394 8.28519 0.0793776C8.25613 0.112816 8.23433 0.151924 8.22117 0.194225C8.20801 0.236527 8.20378 0.2811 8.20874 0.325123C8.2137 0.369146 8.22775 0.411659 8.24999 0.44997C8.29635 0.720385 8.35981 0.987587 8.43999 1.24997Z" fill="black"/>
<path fill-rule="evenodd" clip-rule="evenodd" d="M12.81 2.14997C12.8086 2.18806 12.8148 2.22604 12.8282 2.26174C12.8415 2.29744 12.8618 2.33015 12.8878 2.35801C12.9138 2.38587 12.945 2.40834 12.9797 2.42412C13.0144 2.4399 13.0519 2.44868 13.09 2.44997C13.1662 2.45014 13.2396 2.4213 13.2953 2.36929C13.3511 2.31729 13.3849 2.24602 13.39 2.16997C13.503 1.95193 13.5967 1.72439 13.67 1.48997C13.6849 1.36709 13.6849 1.24285 13.67 1.11997C13.67 0.919974 13.58 0.749974 13.59 0.559974C13.6192 0.47637 13.6147 0.384656 13.5773 0.304349C13.54 0.224041 13.4728 0.161479 13.39 0.129974C13.3077 0.101093 13.2174 0.105914 13.1387 0.143384C13.0601 0.180855 12.9994 0.247932 12.97 0.329974C12.8235 0.524 12.7088 0.740014 12.63 0.969974C12.5916 1.05888 12.5679 1.15345 12.56 1.24997C12.545 1.34271 12.545 1.43724 12.56 1.52997C12.6249 1.7436 12.7085 1.95107 12.81 2.14997Z" fill="black"/>
<path fill-rule="evenodd" clip-rule="evenodd" d="M16.21 4.70997H16.97H17.28L17.58 4.60997C17.82 4.51997 18.04 4.39997 18.29 4.29997C18.3335 4.29388 18.3754 4.27915 18.4132 4.25664C18.451 4.23413 18.4839 4.2043 18.51 4.1689C18.536 4.1335 18.5548 4.09324 18.5651 4.05049C18.5754 4.00775 18.5771 3.96337 18.57 3.91997C18.5576 3.83399 18.5118 3.75638 18.4425 3.70396C18.3732 3.65154 18.2861 3.62855 18.2 3.63997C17.91 3.63997 17.66 3.57997 17.38 3.57997C17.2638 3.56522 17.1462 3.56522 17.03 3.57997C16.9123 3.60141 16.7979 3.6384 16.69 3.68997C16.4344 3.82795 16.196 3.99579 15.98 4.18997C15.9099 4.2207 15.8548 4.27789 15.8267 4.34907C15.7986 4.42025 15.7998 4.49965 15.83 4.56997C15.8451 4.60469 15.867 4.636 15.8945 4.662C15.922 4.688 15.9545 4.70815 15.99 4.72124C16.0256 4.73432 16.0634 4.74007 16.1012 4.73814C16.139 4.7362 16.176 4.72662 16.21 4.70997Z" fill="black"/>
<path fill-rule="evenodd" clip-rule="evenodd" d="M9.27999 13C9.22441 12.948 9.15112 12.919 9.07499 12.919C8.99886 12.919 8.92558 12.948 8.86999 13C8.30999 13.52 7.61999 14 6.91999 14.54C6.49999 14.86 6.08999 15.2 5.62999 15.49C5.15752 15.8112 4.65114 16.0795 4.11999 16.29C4.07728 16.2992 4.03692 16.3172 4.0014 16.3426C3.96588 16.3681 3.93595 16.4006 3.91346 16.4381C3.89097 16.4755 3.8764 16.5172 3.87065 16.5605C3.86489 16.6039 3.86807 16.6479 3.87999 16.69C3.90125 16.7748 3.95531 16.8478 4.03032 16.8928C4.10532 16.9378 4.19512 16.9511 4.27999 16.93C5.02357 16.8095 5.74282 16.5697 6.40999 16.22C6.69285 16.0713 6.96367 15.9008 7.21999 15.71C7.49254 15.5378 7.75314 15.3473 7.99999 15.14C8.48373 14.6065 8.91879 14.0309 9.29999 13.42C9.32719 13.3916 9.34831 13.3579 9.36209 13.3211C9.37587 13.2842 9.38201 13.245 9.38014 13.2057C9.37827 13.1664 9.36843 13.1279 9.35121 13.0925C9.33399 13.0572 9.30976 13.0257 9.27999 13Z" fill="black"/>
<path fill-rule="evenodd" clip-rule="evenodd" d="M12.28 13.2799C12.2775 13.2065 12.2472 13.1367 12.1952 13.0847C12.1432 13.0327 12.0734 13.0024 12 12.9999C11.9221 12.9972 11.8461 13.0249 11.7882 13.0771C11.7304 13.1294 11.6951 13.2021 11.69 13.2799C11.6 13.7699 11.46 14.2799 11.39 14.7699C11.37 14.9895 11.37 15.2104 11.39 15.4299C11.3935 15.6582 11.4169 15.8858 11.46 16.1099C11.5472 16.6381 11.7123 17.1503 11.95 17.6299C11.9592 17.6759 11.9782 17.7194 12.0055 17.7575C12.0329 17.7955 12.0681 17.8274 12.1087 17.8508C12.1493 17.8742 12.1945 17.8887 12.2412 17.8933C12.2878 17.8979 12.3349 17.8925 12.3794 17.8774C12.4238 17.8624 12.4645 17.838 12.4987 17.806C12.533 17.774 12.5601 17.7351 12.5781 17.6918C12.5961 17.6485 12.6047 17.6019 12.6033 17.555C12.6019 17.5081 12.5906 17.4621 12.57 17.4199C12.4925 16.9508 12.459 16.4754 12.47 15.9999V14.9999C12.44 14.3999 12.34 13.8399 12.28 13.2799Z" fill="black"/>
<path fill-rule="evenodd" clip-rule="evenodd" d="M18.64 17.67C18.6754 17.695 18.7155 17.7127 18.7578 17.7222C18.8001 17.7317 18.8439 17.7327 18.8866 17.7253C18.9293 17.7179 18.9701 17.7021 19.0068 17.6789C19.0434 17.6557 19.0751 17.6255 19.1 17.59C19.1263 17.555 19.1452 17.515 19.1555 17.4725C19.1657 17.43 19.1671 17.3858 19.1596 17.3427C19.1521 17.2995 19.1359 17.2584 19.1119 17.2218C19.0878 17.1853 19.0566 17.154 19.02 17.13C18.7355 16.882 18.465 16.6182 18.21 16.34C17.95 16.06 17.73 15.76 17.49 15.46C17.25 15.16 17.03 14.87 16.79 14.58C16.29 13.96 15.79 13.38 15.34 12.77C15.3015 12.7024 15.2378 12.6528 15.1628 12.6321C15.0878 12.6115 15.0076 12.6215 14.94 12.66C14.8724 12.6984 14.8228 12.7622 14.8022 12.8372C14.7815 12.9122 14.7915 12.9924 14.83 13.06C15.0891 13.7265 15.3931 14.3747 15.74 15C15.9018 15.2602 16.0788 15.5106 16.27 15.75C16.4614 15.9932 16.6721 16.2206 16.9 16.43C17.4277 16.9122 18.0119 17.3286 18.64 17.67Z" fill="black"/>
<path fill-rule="evenodd" clip-rule="evenodd" d="M3.53999 18C2.81915 18.0206 2.1343 18.3196 1.62906 18.8341C1.12382 19.3487 0.837445 20.0389 0.829987 20.76C0.879987 23.88 6.58999 24.48 6.37999 20.56C6.37019 20.2026 6.2879 19.8509 6.13811 19.5262C5.98831 19.2016 5.77414 18.9108 5.50857 18.6714C5.243 18.432 4.93158 18.2491 4.59319 18.1336C4.25479 18.0182 3.89648 17.9728 3.53999 18ZM1.76999 20.8C1.79586 20.3314 2.00374 19.8914 2.34932 19.5738C2.69491 19.2562 3.15086 19.0862 3.61999 19.1C3.84179 19.0751 4.06634 19.0958 4.27986 19.1608C4.49339 19.2258 4.69141 19.3337 4.86179 19.4778C5.03218 19.622 5.17134 19.7994 5.27076 19.9993C5.37018 20.1991 5.42776 20.4171 5.43999 20.64C5.81999 23.79 1.62999 23.08 1.76999 20.78V20.8Z" fill="black"/>
<path fill-rule="evenodd" clip-rule="evenodd" d="M14.14 21.71C13.73 21.14 13.33 20.11 12.76 19.42C12.4639 19.0324 12.0606 18.7403 11.6 18.58C11.4746 18.5554 11.3447 18.569 11.2271 18.6189C11.1095 18.6688 11.0095 18.7528 10.94 18.86C10.79 19.09 10.46 19.71 10.43 19.76L8.56 23.06C8.51797 23.1237 8.5028 23.2015 8.51778 23.2764C8.53276 23.3513 8.57668 23.4173 8.64 23.46C8.70533 23.5025 8.78467 23.518 8.86121 23.5031C8.93774 23.4881 9.00545 23.444 9.05 23.38L11.22 20.3C11.22 20.3 11.5 20.05 11.67 19.84C11.828 20.0088 11.9687 20.1931 12.09 20.39C12.53 21.05 12.9 21.86 13.26 22.39C13.4239 22.5181 13.5808 22.655 13.73 22.8H13.68C13.525 22.8725 13.3645 22.9327 13.2 22.98C12.7965 23.0991 12.3802 23.1696 11.96 23.19C11.3 23.24 10.63 23.19 9.96 23.19C9.88107 23.2037 9.80952 23.2448 9.75794 23.3061C9.70637 23.3673 9.67809 23.4449 9.67809 23.525C9.67809 23.6051 9.70637 23.6826 9.75794 23.7439C9.80952 23.8052 9.88107 23.8463 9.96 23.86C10.65 23.91 11.33 23.99 12.02 24C12.5039 24.013 12.9876 23.9659 13.46 23.86C13.7239 23.8102 13.982 23.7332 14.23 23.63C14.4471 23.5315 14.6362 23.3802 14.78 23.19C14.8391 23.0919 14.8703 22.9795 14.8703 22.865C14.8703 22.7504 14.8391 22.6381 14.78 22.54C14.6 22.31 14.19 21.78 14.14 21.71Z" fill="black"/>
<path fill-rule="evenodd" clip-rule="evenodd" d="M23.15 21.2C23.2 20.4923 23.1082 19.7818 22.88 19.11C22.7267 18.8545 22.5022 18.6493 22.2339 18.5197C21.9657 18.39 21.6654 18.3414 21.37 18.38C21.0181 18.3885 20.6672 18.4219 20.32 18.48C19.56 18.6 18.82 18.8 18.05 18.88C17.9616 18.8877 17.8796 18.9296 17.8217 18.9969C17.7638 19.0641 17.7344 19.1514 17.74 19.24C17.7438 19.2834 17.7561 19.3256 17.7763 19.3642C17.7964 19.4029 17.824 19.4371 17.8575 19.465C17.891 19.4929 17.9296 19.5139 17.9713 19.5267C18.0129 19.5396 18.0566 19.5441 18.1 19.54C18.88 19.54 19.65 19.35 20.42 19.28C20.7328 19.2549 21.0472 19.2549 21.36 19.28C21.73 19.28 21.93 19.39 22.03 19.58C22.1389 20.128 22.1389 20.692 22.03 21.24C22.0496 21.5197 22.0496 21.8003 22.03 22.08C22.0461 22.2445 22.0075 22.4097 21.92 22.55C21.8026 22.6218 21.6676 22.6598 21.53 22.66C21.14 22.72 20.69 22.72 20.43 22.77L19.3 22.88H18.51C18.357 22.894 18.203 22.894 18.05 22.88C17.9382 22.8727 17.8292 22.8421 17.73 22.79C17.61 22.72 17.58 22.49 17.54 22.24C17.4737 21.7827 17.4336 21.3219 17.42 20.86C17.405 20.6002 17.405 20.3398 17.42 20.08C17.4053 19.8235 17.4053 19.5665 17.42 19.31C17.4306 19.2331 17.4102 19.1551 17.3633 19.0932C17.3165 19.0313 17.2469 18.9906 17.17 18.98C17.0931 18.9694 17.0151 18.9898 16.9532 19.0367C16.8913 19.0835 16.8506 19.1531 16.84 19.23C16.7926 19.5014 16.7592 19.7751 16.74 20.05C16.7251 20.3265 16.7251 20.6035 16.74 20.88C16.688 21.4588 16.688 22.0412 16.74 22.62C16.7767 22.9723 16.9401 23.2993 17.2 23.54C17.3569 23.6516 17.5333 23.733 17.72 23.78C17.9428 23.8416 18.1702 23.8851 18.4 23.91L19.31 23.96L20.58 23.88C20.9 23.83 21.46 23.88 21.9 23.75C22.1813 23.6952 22.4434 23.5676 22.66 23.38C22.8671 23.1743 23.0037 22.9082 23.05 22.62C23.1396 22.1523 23.1731 21.6756 23.15 21.2Z" fill="black"/>
</g>
<defs>
<clipPath id="clip0_1051_8594">
<rect width="24" height="24" fill="white"/>
</clipPath>
</defs>
</svg>
