<svg width="24" height="24" viewBox="0 0 24 24" fill="none" xmlns="http://www.w3.org/2000/svg">
<g clip-path="url(#clip0_1049_7615)">
<path fill-rule="evenodd" clip-rule="evenodd" d="M22.55 10.16C22.4764 10.1074 22.3854 10.0853 22.2959 10.0984C22.2064 10.1114 22.1254 10.1586 22.07 10.23C21.72 10.7 22.59 10.81 22.97 11.71C23.54 13.07 22.19 16.46 20.84 18.04C19.2809 19.7485 17.5482 21.2902 15.67 22.64C14.34 23.53 11.84 22.27 11.59 20.49C11.8597 19.9288 12.1954 19.4017 12.59 18.92C12.78 18.66 13.04 18.14 13.14 18.3C13.76 18.2 14.96 19.23 15.69 19.06C16.6682 18.7613 17.4948 18.0993 18 17.21C18.6245 16.4303 19.1207 15.556 19.47 14.62C19.55 14.4 19.79 14.09 19.68 13.8C19.57 13.51 19.22 13.38 18.93 13.24C17.42 12.49 17.88 12.13 17.65 12.14C18.22 11.14 19.25 9.60001 20.42 9.86001C20.6372 9.91061 20.8484 9.98436 21.05 10.08C21.1229 10.1145 21.2065 10.1186 21.2825 10.0914C21.3585 10.0642 21.4205 10.0079 21.455 9.93501C21.4894 9.86207 21.4935 9.77843 21.4663 9.70248C21.4392 9.62652 21.3829 9.56448 21.31 9.53001C21.0194 9.38169 20.7098 9.27402 20.39 9.21001C18.94 9.00001 17.71 10.54 17 11.8C16.69 12.32 17.21 13.1 17.77 13.52C18.0312 13.697 18.3053 13.8541 18.59 13.99C18.59 13.99 18.68 14.08 18.76 14.14L18.68 14.29C18.1256 15.4989 17.3603 16.5995 16.42 17.54C16.1615 17.7694 15.848 17.9279 15.51 18C15.51 17.88 15.25 17.9 15.08 17.82C12.64 16.59 12.49 17.08 10.99 19.22C10.6386 19.6111 10.4554 20.1248 10.48 20.65C10.5935 21.2182 10.8231 21.7568 11.1544 22.2321C11.4857 22.7075 11.9116 23.1093 12.4053 23.4125C12.8991 23.7157 13.4501 23.9137 14.0239 23.9942C14.5977 24.0746 15.1819 24.0357 15.74 23.88C16.2084 23.663 16.635 23.3651 17 23C17.7796 22.4106 18.5242 21.7762 19.23 21.1C21.05 19.25 22.76 17.88 23.61 14.42C24 12.58 24.11 11.3 22.55 10.16Z" fill="black"/>
<path fill-rule="evenodd" clip-rule="evenodd" d="M0.76999 3.56C0.76999 3.47778 0.737329 3.39893 0.679193 3.3408C0.621057 3.28266 0.542207 3.25 0.45999 3.25C0.377773 3.25 0.298923 3.28266 0.240787 3.3408C0.182651 3.39893 0.14999 3.47778 0.14999 3.56C0.0499901 5.56 0.61999 13.82 0.66999 14.1C1.17999 17 3.99999 16.19 5.92999 16C7.85999 15.81 9.04999 15.71 10.98 15.4C11.0638 15.3796 11.1371 15.329 11.1859 15.2579C11.2346 15.1868 11.2554 15.1002 11.2443 15.0147C11.2331 14.9291 11.1908 14.8508 11.1254 14.7945C11.06 14.7383 10.9762 14.7082 10.89 14.71C8.88999 14.91 7.88999 14.97 5.88999 15.02C4.88999 15.02 2.66999 15.4 2.12999 14.6C1.81647 13.8688 1.67944 13.074 1.72999 12.28C1.63999 11.69 0.75999 4.27 0.76999 3.56Z" fill="black"/>
<path fill-rule="evenodd" clip-rule="evenodd" d="M15.87 7.07C20 6.44 21 6.29 21.34 6.21C21.74 5.92 21.73 5.42 21.13 5.39C20.13 5.47 19.33 5.66 15.77 6.05C14.24 6.22 11.54 6.17 9.76999 6.25C7.01907 6.39476 4.29087 6.82712 1.62999 7.54C1.16999 7.63 1.33999 8.35 1.72999 8.21C4.3338 7.73159 6.97291 7.47069 9.61999 7.43C11.7089 7.44551 13.7967 7.32525 15.87 7.07Z" fill="black"/>
<path fill-rule="evenodd" clip-rule="evenodd" d="M21.21 0.360002C16.78 -1.2 1.99997 2 0.859971 2.19C0.810355 2.18957 0.761214 2.1997 0.71581 2.21971C0.670405 2.23972 0.629774 2.26916 0.596612 2.30607C0.563449 2.34297 0.538514 2.38651 0.523458 2.43379C0.508403 2.48107 0.503572 2.53101 0.509287 2.5803C0.515002 2.62959 0.531131 2.6771 0.556604 2.71968C0.582078 2.76226 0.616314 2.79893 0.657042 2.82728C0.69777 2.85562 0.744058 2.87497 0.792836 2.88406C0.841615 2.89316 0.891769 2.89177 0.939971 2.88C1.93997 2.79 17.26 0.280002 20.77 1.39C20.97 1.59 20.92 1.67 21.02 1.87C21.81 3.44 21.7 5.33 21.94 8.87C21.94 8.95222 21.9726 9.03107 22.0308 9.0892C22.0889 9.14734 22.1678 9.18 22.25 9.18C22.3322 9.18 22.411 9.14734 22.4692 9.0892C22.5273 9.03107 22.56 8.95222 22.56 8.87C22.34 4.16 22.69 0.920002 21.21 0.360002Z" fill="black"/>
<path fill-rule="evenodd" clip-rule="evenodd" d="M2.07997 5.00001C2.0117 5.03048 1.95673 5.08459 1.92521 5.15239C1.89368 5.22018 1.88772 5.29709 1.90842 5.36893C1.92912 5.44077 1.97509 5.50271 2.03785 5.54334C2.10062 5.58397 2.17595 5.60054 2.24997 5.59001C3.83997 5.10001 4.92997 5.38001 21 3.66001C21.47 3.66001 21.26 2.93001 20.85 2.93001C18.37 3.07001 6.92997 3.42001 2.07997 5.00001Z" fill="black"/>
<path fill-rule="evenodd" clip-rule="evenodd" d="M8.49001 11.72C6.60001 12.11 5.11001 11.66 3.71001 12.18C3.63991 12.2059 3.58151 12.2562 3.54557 12.3217C3.50962 12.3872 3.49853 12.4635 3.51435 12.5365C3.53018 12.6095 3.57184 12.6744 3.63167 12.7191C3.69151 12.7638 3.76549 12.7855 3.84001 12.78C5.22001 12.7 5.84001 13.72 8.71001 12.39C8.79885 12.3608 8.87247 12.2976 8.91467 12.2141C8.95686 12.1307 8.96418 12.0339 8.93501 11.945C8.90583 11.8562 8.84256 11.7825 8.7591 11.7403C8.67565 11.6981 8.57885 11.6908 8.49001 11.72Z" fill="black"/>
</g>
<defs>
<clipPath id="clip0_1049_7615">
<rect width="24" height="24" fill="white"/>
</clipPath>
</defs>
</svg>
