<svg width="24" height="24" viewBox="0 0 24 24" fill="none" xmlns="http://www.w3.org/2000/svg">
<g clip-path="url(#clip0_1049_7577)">
<path fill-rule="evenodd" clip-rule="evenodd" d="M24 13.7C24.05 11.94 24.13 5.99 23.3 4.46C21.76 1.65 1.64001 4.58 0.880012 4.63C0.798588 4.64392 0.724708 4.68618 0.671443 4.74932C0.618178 4.81246 0.588962 4.8924 0.588962 4.975C0.588962 5.05761 0.618178 5.13755 0.671443 5.20069C0.724708 5.26383 0.798588 5.30609 0.880012 5.32C1.81001 5.27 18.24 3.12 22.26 4.87C22.99 6.14 22.84 12.23 22.79 13.67C22.74 15.11 22.96 17.51 22.44 18.82C22.37 19.01 21.99 19.07 21.76 19.11C20.5332 19.2349 19.2968 19.2349 18.07 19.11C13.69 19.01 9.67001 19.78 5.38001 19.77C4.26001 19.77 1.84001 20.18 1.22001 19.11C0.886832 18.2062 0.767048 17.2377 0.870012 16.28C0.840012 14.62 0.540012 7.81 0.670012 6.14C0.677969 6.06044 0.653992 5.98097 0.603358 5.91908C0.552723 5.8572 0.479577 5.81796 0.400012 5.81C0.320448 5.80205 0.240981 5.82602 0.179094 5.87666C0.117207 5.92729 0.077969 6.00044 0.0700125 6.08C-0.0899875 7.71 0.0700125 14.61 0.0700125 16.3C-0.075406 17.3932 0.0623258 18.5053 0.470012 19.53C1.34001 21.1 3.91001 20.7 5.37001 20.73C9.51001 20.8 13.97 20.13 18.04 20.25C19.71 20.25 22.9 20.82 23.52 19.25C24.14 17.68 23.93 15.31 24 13.7Z" fill="black"/>
<path fill-rule="evenodd" clip-rule="evenodd" d="M6.79002 12C6.67002 12 6.71002 11.24 6.16002 9.93001C5.92002 9.38001 5.67002 8.76001 5.08002 8.87001C4.19002 9.02001 3.57002 11.25 3.38002 12.13L3.06002 12.19C2.98046 12.2019 2.90889 12.245 2.86107 12.3097C2.81325 12.3744 2.79309 12.4554 2.80502 12.535C2.81696 12.6146 2.86001 12.6861 2.92471 12.734C2.98941 12.7818 3.07046 12.8019 3.15002 12.79H3.25002C3.10771 13.292 3.02382 13.8088 3.00002 14.33C3.00002 14.7 2.90002 14.97 3.23002 14.94C3.64002 15.1 3.57002 14.75 3.65002 14.44C3.73202 13.9426 3.87999 13.4583 4.09002 13C4.57207 13.0949 5.06798 13.0949 5.55002 13C6.07002 12.92 5.99002 12.85 6.03002 13L6.42002 14.68C6.42931 14.7702 6.47403 14.853 6.54436 14.9102C6.61468 14.9674 6.70485 14.9943 6.79502 14.985C6.8852 14.9757 6.96799 14.931 7.02519 14.8607C7.08239 14.7903 7.10931 14.7002 7.10002 14.61L6.86002 12.7C6.95285 12.6907 7.03819 12.6449 7.09726 12.5727C7.15633 12.5005 7.18431 12.4078 7.17502 12.315C7.16574 12.2222 7.11996 12.1368 7.04776 12.0778C6.97556 12.0187 6.88285 11.9907 6.79002 12ZM4.46002 12C4.64798 11.4817 4.87878 10.98 5.15002 10.5C5.3794 10.9738 5.57002 11.4654 5.72002 11.97C5.30068 11.9212 4.87657 11.9313 4.46002 12Z" fill="black"/>
<path fill-rule="evenodd" clip-rule="evenodd" d="M11.54 8.73C11.4312 8.64148 11.2953 8.59315 11.155 8.59315C11.0148 8.59315 10.8788 8.64148 10.77 8.73C10.4203 9.04657 10.0866 9.38031 9.77001 9.73C9.56001 9.51 8.97001 8.73 8.52001 8.73C8.07001 8.73 7.76001 9.21 7.73001 9.73C7.73001 10.03 7.73001 9.13 7.93001 14.1C7.943 14.1714 7.98064 14.236 8.03638 14.2826C8.09212 14.3291 8.16241 14.3545 8.23501 14.3545C8.30761 14.3545 8.37791 14.3291 8.43364 14.2826C8.48938 14.236 8.52702 14.1714 8.54001 14.1C8.70001 10.2 8.77001 10.75 8.76001 10.32C9.24001 10.89 9.36001 11.06 9.62001 11.13C9.71395 11.1554 9.8125 11.1587 9.90793 11.1396C10.0034 11.1205 10.0931 11.0796 10.17 11.02C10.25 10.96 10.87 10.21 10.94 10.13C11.08 10.93 11.12 11.76 11.19 12.61L11.35 13.87C11.3646 13.9602 11.4144 14.0409 11.4885 14.0943C11.5626 14.1478 11.6548 14.1696 11.745 14.155C11.8352 14.1404 11.9159 14.0906 11.9693 14.0165C12.0228 13.9424 12.0446 13.8502 12.03 13.76C11.93 11.67 12.13 9.23 11.54 8.73Z" fill="black"/>
<path fill-rule="evenodd" clip-rule="evenodd" d="M13.91 14.39H14.33C15.0713 14.393 15.8113 14.326 16.54 14.19C17.3 13.74 16.38 13.59 15.54 13.53C15.113 13.4678 14.6815 13.4411 14.25 13.45C14.34 12.1 14.32 12.37 14.33 12.09C14.83 12.28 16.13 12.22 16.11 11.68C16.09 11.14 14.99 10.93 14.34 11.13V10.58C14.34 10.13 13.83 9.74001 14.69 9.58001C15.55 9.42001 15.95 9.63 16.31 9.44C16.3488 9.41965 16.3831 9.39186 16.4111 9.35823C16.4391 9.3246 16.4602 9.28579 16.4732 9.244C16.4862 9.20221 16.4909 9.15828 16.4869 9.1147C16.4829 9.07111 16.4704 9.02875 16.45 8.99001C16.4297 8.95127 16.4019 8.91691 16.3683 8.88891C16.3346 8.86091 16.2958 8.83981 16.254 8.82681C16.2122 8.81381 16.1683 8.80916 16.1247 8.81315C16.0811 8.81713 16.0388 8.82965 16 8.85001C14.79 8.69001 14.25 8.59001 13.61 8.96001C12.97 9.33001 13.17 10.24 13.16 10.55C13.09 12.94 12.89 14.36 13.91 14.39Z" fill="black"/>
<path fill-rule="evenodd" clip-rule="evenodd" d="M21.14 8.54C20.8 8.07 20.53 8.62 20.25 8.95C19.8014 9.4271 19.3995 9.94615 19.05 10.5L18.12 9.15C17.63 8.43 17.6 8.5 17.51 8.5C17.4698 8.49866 17.4297 8.50542 17.3921 8.5199C17.3546 8.53437 17.3203 8.55626 17.2914 8.58425C17.2625 8.61224 17.2395 8.64577 17.2238 8.68284C17.2081 8.7199 17.2 8.75975 17.2 8.8C17.2 9.05 17.42 9.4 17.48 9.53C17.6773 10.0964 17.9077 10.6507 18.17 11.19C18.57 12 18.41 10.85 17.34 14C17.3094 14.066 17.303 14.1407 17.322 14.2109C17.3409 14.2812 17.3839 14.3426 17.4435 14.3843C17.5031 14.426 17.5755 14.4454 17.648 14.4392C17.7205 14.4329 17.7885 14.4013 17.84 14.35C18.184 13.7553 18.5717 13.1871 19 12.65L20.09 14.35C20.1311 14.4309 20.2027 14.4921 20.2889 14.5203C20.3752 14.5484 20.4691 14.5411 20.55 14.5C20.6309 14.4589 20.6921 14.3873 20.7203 14.3011C20.7484 14.2148 20.7411 14.1209 20.7 14.04C20.7 13.95 20.35 13.09 19.7 11.63C19.89 11.31 20.06 10.98 20.25 10.63C21.43 8.53 21.26 8.63 21.14 8.54Z" fill="black"/>
</g>
<defs>
<clipPath id="clip0_1049_7577">
<rect width="24" height="24" fill="white"/>
</clipPath>
</defs>
</svg>
