<svg width="24" height="24" viewBox="0 0 24 24" fill="none" xmlns="http://www.w3.org/2000/svg">
<g clip-path="url(#clip0_1051_8607)">
<path fill-rule="evenodd" clip-rule="evenodd" d="M7.24996 12.7C7.29049 12.6952 7.32961 12.6821 7.36492 12.6617C7.40024 12.6412 7.43101 12.6138 7.45534 12.581C7.47968 12.5482 7.49708 12.5109 7.50647 12.4711C7.51586 12.4314 7.51705 12.3902 7.50996 12.35C7.51489 11.5459 7.80553 10.7696 8.32996 10.16C8.63353 9.75441 8.96077 9.36707 9.30996 9.00001C9.81261 8.44943 10.3468 7.92856 10.91 7.44001C11.2923 7.54072 11.6848 7.59775 12.08 7.61001C12.1526 7.61279 12.2235 7.58721 12.2776 7.53869C12.3317 7.49017 12.3648 7.42251 12.37 7.35001C12.3727 7.31453 12.3684 7.27887 12.3573 7.24506C12.3462 7.21126 12.3285 7.17998 12.3053 7.15303C12.282 7.12608 12.2537 7.10399 12.2219 7.08803C12.1901 7.07206 12.1555 7.06254 12.12 7.06001C9.99996 6.88001 8.99996 5.56001 8.99996 4.18001C9.29144 4.32643 9.6061 4.42116 9.92996 4.46001C10.0826 4.48002 10.2373 4.48002 10.39 4.46001C10.5472 4.43196 10.7013 4.38842 10.85 4.33001C11.2102 4.19119 11.53 3.96428 11.78 3.67001C11.78 3.67001 11.78 3.60001 11.84 3.56001L12.2 3.76001C12.5177 3.91478 12.8537 4.029 13.2 4.10001C13.8624 4.20633 14.5375 4.20633 15.2 4.10001C15.282 4.8205 15.0853 5.54506 14.6502 6.12517C14.2151 6.70528 13.5746 7.097 12.86 7.22001C12.7768 7.23006 12.7008 7.27235 12.6484 7.3378C12.5961 7.40325 12.5715 7.48662 12.58 7.57001C12.5849 7.61086 12.5979 7.65032 12.6182 7.68609C12.6386 7.72186 12.6658 7.75322 12.6984 7.77835C12.731 7.80348 12.7682 7.82188 12.808 7.83246C12.8477 7.84305 12.8892 7.84561 12.93 7.84001C13.3938 7.80421 13.8443 7.66771 14.25 7.44001C14.5791 7.79709 14.8769 8.18184 15.14 8.59001C15.2962 8.81169 15.4398 9.04206 15.57 9.28001C15.71 9.52001 15.84 9.75001 15.96 10C16.2563 10.5979 16.5005 11.2202 16.69 11.86C16.6957 11.9005 16.7099 11.9392 16.7317 11.9738C16.7534 12.0084 16.7822 12.038 16.8162 12.0606C16.8502 12.0833 16.8886 12.0985 16.9289 12.1053C16.9692 12.1121 17.0104 12.1103 17.05 12.1C17.1308 12.0854 17.2026 12.0393 17.2495 11.9718C17.2964 11.9043 17.3145 11.8209 17.3 11.74C17.237 11.0202 17.0961 10.3094 16.88 9.62001C16.7724 9.3237 16.642 9.03617 16.49 8.76001C16.3507 8.49197 16.1866 8.23753 16 8.00001C15.6689 7.64633 15.2962 7.33406 14.89 7.07001C15.3306 6.64412 15.6699 6.12465 15.8828 5.55C16.0957 4.97535 16.1768 4.3602 16.12 3.75001C16.1161 3.25191 16.0137 2.75949 15.8189 2.30106C15.624 1.84264 15.3405 1.42724 14.9846 1.07875C14.6287 0.730269 14.2074 0.455567 13.7449 0.270438C13.2825 0.0853094 12.788 -0.00659431 12.29 9.88762e-06C11.219 -0.0383823 10.1755 0.344105 9.38299 1.06557C8.59051 1.78703 8.11201 2.79011 8.04996 3.86001C8.02457 4.567 8.21341 5.26517 8.59172 5.86297C8.97003 6.46077 9.52015 6.93031 10.17 7.21001C9.61892 7.52297 9.09686 7.8844 8.60996 8.29001C8.17347 8.66368 7.79292 9.09812 7.47996 9.58001C7.19757 9.99402 7.00079 10.4603 6.90118 10.9514C6.80158 11.4426 6.80117 11.9487 6.89996 12.44C6.90478 12.4805 6.91783 12.5197 6.93829 12.555C6.95875 12.5903 6.9862 12.6211 7.01896 12.6454C7.05173 12.6697 7.08911 12.6871 7.12883 12.6965C7.16855 12.7059 7.20977 12.7071 7.24996 12.7ZM12.32 1.05001C13.0009 1.02876 13.6656 1.26008 14.1862 1.69945C14.7068 2.13883 15.0465 2.75522 15.14 3.43001C14.5622 3.40836 13.9902 3.30742 13.44 3.13001C13.1548 3.04261 12.8773 2.93225 12.61 2.80001C12.3426 2.67294 12.0852 2.52585 11.84 2.36001C11.4255 2.08335 11.0548 1.74629 10.74 1.36001C11.2387 1.14589 11.7773 1.04022 12.32 1.05001ZM10.14 1.75001C10.4094 2.28562 10.7795 2.76434 11.23 3.16001H11.29C11.1639 3.2119 11.0334 3.25207 10.9 3.28001H10.43L9.99996 3.44001C9.67211 3.52328 9.33743 3.57683 8.99996 3.60001C9.13542 2.86255 9.54213 2.20255 10.14 1.75001Z" fill="black"/>
<path fill-rule="evenodd" clip-rule="evenodd" d="M22.81 15.52C22.6 15.33 22.03 14.91 21.99 14.88L18.87 12.19C18.8448 12.1637 18.8145 12.1428 18.781 12.1285C18.7475 12.1142 18.7114 12.1068 18.675 12.1068C18.6385 12.1068 18.6025 12.1142 18.569 12.1285C18.5355 12.1428 18.5052 12.1637 18.48 12.19C18.4293 12.2423 18.4009 12.3122 18.4009 12.385C18.4009 12.4578 18.4293 12.5278 18.48 12.58L21.09 15.43C18.86 15.43 16.63 15.31 14.4 15.27H12.4H9.25999C7.09999 15.27 4.94999 15.41 2.78999 15.45L5.44999 12.55C5.5007 12.4978 5.52906 12.4278 5.52906 12.355C5.52906 12.2822 5.5007 12.2123 5.44999 12.16C5.42479 12.1337 5.39452 12.1128 5.361 12.0985C5.32749 12.0842 5.29143 12.0768 5.25499 12.0768C5.21855 12.0768 5.18249 12.0842 5.14898 12.0985C5.11546 12.1128 5.08519 12.1337 5.05999 12.16L1.99999 14.88C1.99999 14.88 1.38999 15.33 1.17999 15.52C1.09798 15.5934 1.03442 15.685 0.99446 15.7875C0.954498 15.89 0.939263 16.0005 0.94999 16.11C0.984448 16.239 1.05777 16.3542 1.15999 16.44C1.27999 16.55 1.60999 16.79 1.64999 16.82C2.02999 17.13 2.38999 17.46 2.75999 17.77C3.12999 18.08 3.28999 18.19 3.56999 18.38C3.84999 18.57 4.37999 18.94 4.79999 19.19C5.0811 19.3656 5.37153 19.5259 5.66999 19.67C5.74293 19.7098 5.82868 19.719 5.90838 19.6956C5.98808 19.6721 6.05521 19.618 6.09499 19.545C6.13477 19.4721 6.14395 19.3863 6.12051 19.3066C6.09707 19.2269 6.04292 19.1598 5.96999 19.12C5.69999 18.96 5.44999 18.78 5.19999 18.6C4.94999 18.42 4.45999 18 4.09999 17.7L2.39999 16.08C4.39999 16.18 6.30999 16.26 8.26999 16.3H11.46C11.36 16.95 11.25 17.72 11.2 18.54V19.62C11.2 19.98 11.2 20.34 11.26 20.7C11.32 21.29 11.4 21.85 11.49 22.36L11.11 22C10.55 21.4 10.01 20.76 9.41999 20.19C9.16662 19.9381 8.89596 19.7042 8.60999 19.49C8.55943 19.44 8.49115 19.4119 8.41999 19.4119C8.34883 19.4119 8.28055 19.44 8.22999 19.49C8.20367 19.5152 8.18273 19.5455 8.16842 19.579C8.15412 19.6125 8.14674 19.6486 8.14674 19.685C8.14674 19.7215 8.15412 19.7575 8.16842 19.791C8.18273 19.8246 8.20367 19.8548 8.22999 19.88C9.01834 20.7646 9.74346 21.7036 10.4 22.69C10.7367 23.1233 11.1226 23.5159 11.55 23.86C11.6481 23.9191 11.7605 23.9503 11.875 23.9503C11.9895 23.9503 12.1019 23.9191 12.2 23.86C12.5058 23.6654 12.7966 23.4481 13.07 23.21C13.3136 22.9897 13.5378 22.7489 13.74 22.49C14.03 22.13 14.29 21.75 14.55 21.38L15.81 19.76C15.8683 19.7004 15.9006 19.62 15.8997 19.5365C15.8987 19.453 15.8647 19.3734 15.805 19.315C15.7453 19.2567 15.6649 19.2244 15.5815 19.2254C15.498 19.2263 15.4183 19.2604 15.36 19.32L13.91 20.86C13.61 21.19 13.32 21.53 13.01 21.86C12.8223 22.0595 12.6219 22.2466 12.41 22.42L12.2 22.63V20.54V18.85C12.2 17.85 12.07 17 12.04 16.25H12.44L16.35 16.19C18.09 16.19 19.82 16.1 21.55 16.04L19.9 17.7C19.54 18.01 19.18 18.32 18.79 18.6C18.4 18.88 18.29 18.96 18.02 19.12C17.9839 19.1397 17.952 19.1664 17.9262 19.1984C17.9003 19.2304 17.8811 19.2672 17.8695 19.3066C17.8579 19.3461 17.8541 19.3875 17.8585 19.4284C17.8629 19.4693 17.8753 19.5089 17.895 19.545C17.9348 19.618 18.0019 19.6721 18.0816 19.6956C18.1211 19.7072 18.1624 19.7109 18.2033 19.7065C18.2442 19.7021 18.2839 19.6897 18.32 19.67C18.6185 19.5259 18.9089 19.3656 19.19 19.19C19.61 18.94 20.02 18.66 20.42 18.38C20.82 18.1 20.97 17.98 21.23 17.77C21.49 17.56 21.96 17.13 22.34 16.82C22.34 16.82 22.71 16.55 22.83 16.44C22.9322 16.3542 23.0055 16.239 23.04 16.11C23.0507 16.0005 23.0355 15.89 22.9955 15.7875C22.9556 15.685 22.892 15.5934 22.81 15.52Z" fill="black"/>
</g>
<defs>
<clipPath id="clip0_1051_8607">
<rect width="24" height="24" fill="white"/>
</clipPath>
</defs>
</svg>
