<svg width="24" height="24" viewBox="0 0 24 24" fill="none" xmlns="http://www.w3.org/2000/svg">
<g clip-path="url(#clip0_1049_7642)">
<path fill-rule="evenodd" clip-rule="evenodd" d="M7.63 0.680002C7.63 0.587176 7.59313 0.498152 7.52749 0.432514C7.46185 0.366877 7.37283 0.330002 7.28 0.330002C7.18718 0.330002 7.09815 0.366877 7.03251 0.432514C6.96688 0.498152 6.93 0.587176 6.93 0.680002C6.87 1.09 6.75 1.49 6.68 1.92C6.54 2.83 6.68 2.65 6.85 3.55C6.94 4.01 7.7 3.84 7.62 3.45C7.91 2.31 8 2.59 7.63 0.680002Z" fill="black"/>
<path fill-rule="evenodd" clip-rule="evenodd" d="M22.9 6.86C22.9928 6.86 23.0818 6.82312 23.1475 6.75748C23.2131 6.69185 23.25 6.60282 23.25 6.51C23.25 6.41717 23.2131 6.32815 23.1475 6.26251C23.0818 6.19687 22.9928 6.16 22.9 6.16C22.0564 5.89791 21.1672 5.81614 20.29 5.92C19.71 6.05 20.03 6.92 20.53 6.99C21.3194 7.13032 22.1306 7.08582 22.9 6.86Z" fill="black"/>
<path fill-rule="evenodd" clip-rule="evenodd" d="M23.65 11.47C23.13 11.39 22.65 11.27 22.11 11.21C21.6347 11.16 21.1554 11.16 20.68 11.21C20.07 11.21 20.26 11.82 20.68 12.13C21.6433 12.3857 22.6567 12.3857 23.62 12.13C23.6895 12.1092 23.7508 12.0672 23.7954 12.01C23.8401 11.9528 23.8658 11.8831 23.8691 11.8106C23.8724 11.7382 23.8531 11.6664 23.8138 11.6054C23.7746 11.5444 23.7173 11.4971 23.65 11.47Z" fill="black"/>
<path fill-rule="evenodd" clip-rule="evenodd" d="M23.15 16.79C22.63 16.71 22.15 16.59 21.61 16.53C21.3145 16.4936 21.0155 16.4936 20.72 16.53C20.02 16.58 19.81 17.3 20.48 17.45C21.3551 17.6801 22.2749 17.6801 23.15 17.45C23.2183 17.4259 23.2773 17.3812 23.3191 17.3221C23.3609 17.263 23.3834 17.1924 23.3834 17.12C23.3834 17.0476 23.3609 16.977 23.3191 16.9179C23.2773 16.8588 23.2183 16.8141 23.15 16.79Z" fill="black"/>
<path fill-rule="evenodd" clip-rule="evenodd" d="M11.6 21.75C11.6 21.92 11.85 23.29 11.9 23.4C11.95 23.51 12.18 23.66 12.26 23.63C12.62 23.57 12.41 23.32 12.74 21.81C12.8231 21.3336 12.8231 20.8464 12.74 20.37C12.67 19.87 11.74 19.89 11.8 20.46C11.6866 20.8814 11.6195 21.314 11.6 21.75Z" fill="black"/>
<path fill-rule="evenodd" clip-rule="evenodd" d="M16.38 21.75C16.38 21.92 16.62 23.29 16.68 23.4C16.74 23.51 16.96 23.66 17.04 23.63C17.4 23.56 17.17 23.3 17.51 21.81V20.71C17.513 20.5306 17.4754 20.3528 17.4 20.19C17.06 19.68 16.63 19.8 16.5 20.36C16.4125 20.818 16.3722 21.2838 16.38 21.75Z" fill="black"/>
<path fill-rule="evenodd" clip-rule="evenodd" d="M0.760002 16.77C0.654478 16.7848 0.556257 16.8324 0.479133 16.9059C0.402009 16.9795 0.349857 17.0753 0.330002 17.18C0.390002 17.55 0.680002 17.32 2.1 17.65C2.63408 17.7631 3.18592 17.7631 3.72 17.65C4.51 17.47 3.99 16.65 3.49 16.59C2.58224 16.3786 1.63215 16.4412 0.760002 16.77Z" fill="black"/>
<path fill-rule="evenodd" clip-rule="evenodd" d="M0.429995 11.47C0.0699946 11.56 -0.0100054 11.83 -5.39172e-06 11.88C0.0599946 12.24 0.339995 12.02 1.76999 12.35C2.29333 12.4337 2.82666 12.4337 3.34999 12.35C3.90999 12.21 3.85999 11.53 3.03999 11.45C2.18791 11.1932 1.27805 11.2001 0.429995 11.47Z" fill="black"/>
<path fill-rule="evenodd" clip-rule="evenodd" d="M2.42 5.88C1.74817 5.84454 1.07471 5.90515 0.420001 6.06C0.337784 6.06 0.258934 6.09266 0.200798 6.1508C0.142661 6.20893 0.110001 6.28778 0.110001 6.37C0.110001 6.45222 0.142661 6.53107 0.200798 6.5892C0.258934 6.64734 0.337784 6.68 0.420001 6.68C1.62 6.91 1.66 7.43 3.64 7.02C3.72836 6.99035 3.80918 6.94176 3.87681 6.87762C3.94444 6.81348 3.99724 6.73535 4.03153 6.64868C4.06581 6.56201 4.08076 6.4689 4.07531 6.37586C4.06987 6.28281 4.04416 6.19208 4 6.11C3.75 5.8 2.87 5.92 2.42 5.88Z" fill="black"/>
<path fill-rule="evenodd" clip-rule="evenodd" d="M19.46 5.92C19.3915 5.70444 19.2939 5.49922 19.17 5.31C18.37 4.23 13.85 3.98 12.51 3.93C10.1607 3.7458 7.79699 3.94165 5.51 4.51C4.62 4.77 4.51 5.31 4.42 6.01C4.27 6.93 3.98 15.36 4.42 17.58C4.59 18.27 4.75 18.69 6.99 19.16C10.4814 19.8441 14.0594 19.969 17.59 19.53C18.1951 19.4788 18.7705 19.2452 19.24 18.86C20.79 17 20.05 5.83 19.46 5.92ZM18.33 18.09C17.66 18.87 6.68 18.79 5.39 17.6C4.94 16.2 5.25 9.74 5.39 6.93C5.42814 6.45073 5.62806 5.99866 5.95695 5.64797C6.28584 5.29728 6.72416 5.06879 7.2 5C8.27253 4.84059 9.35571 4.7637 10.44 4.77C12.6818 4.76832 14.9174 5.00295 17.11 5.47C17.5612 5.5259 17.991 5.69441 18.36 5.96C19.31 7.25 19.16 17.11 18.33 18.09Z" fill="black"/>
<path fill-rule="evenodd" clip-rule="evenodd" d="M6.67999 20.82C6.55929 21.7371 6.60331 22.6684 6.80999 23.57C6.80187 23.6147 6.80366 23.6606 6.81524 23.7045C6.82681 23.7484 6.8479 23.7892 6.87699 23.8241C6.90608 23.8589 6.94248 23.887 6.98361 23.9062C7.02473 23.9255 7.06959 23.9355 7.11499 23.9355C7.1604 23.9355 7.20525 23.9255 7.24638 23.9062C7.2875 23.887 7.3239 23.8589 7.35299 23.8241C7.38209 23.7892 7.40317 23.7484 7.41475 23.7045C7.42632 23.6606 7.42811 23.6147 7.41999 23.57C7.84353 22.3585 7.91974 21.0526 7.63999 19.8C7.69999 19.39 6.97999 19.32 6.92999 19.69C6.87999 20.06 6.69999 20.68 6.67999 20.82Z" fill="black"/>
<path fill-rule="evenodd" clip-rule="evenodd" d="M12.6 0.460001C12.6 0.367175 12.5631 0.278151 12.4975 0.212513C12.4318 0.146876 12.3428 0.110001 12.25 0.110001C12.1572 0.110001 12.0681 0.146876 12.0025 0.212513C11.9369 0.278151 11.9 0.367175 11.9 0.460001C11.83 0.910001 11.71 1.34 11.65 1.79C11.6466 2.2818 11.7037 2.77214 11.82 3.25C11.82 3.69 12.4 3.79 12.55 3.25C12.8506 2.34683 12.8681 1.37336 12.6 0.460001Z" fill="black"/>
<path fill-rule="evenodd" clip-rule="evenodd" d="M17 4.3C17.39 4.24 17.14 3.97 17.48 2.76C17.5856 1.99213 17.5415 1.21107 17.35 0.460001C17.35 0.367175 17.3131 0.278151 17.2475 0.212513C17.1818 0.146876 17.0928 0.110001 17 0.110001C16.9072 0.110001 16.8181 0.146876 16.7525 0.212513C16.6869 0.278151 16.65 0.367175 16.65 0.460001C16.57 0.910001 16.45 1.34 16.39 1.79V2.68C16.39 2.77 16.55 3.58 16.64 3.9C16.73 4.22 17 4.32 17 4.3Z" fill="black"/>
<path fill-rule="evenodd" clip-rule="evenodd" d="M14.46 11.6C14.7274 11.406 14.9317 11.1375 15.0473 10.828C15.1629 10.5185 15.1847 10.1818 15.11 9.86C14.96 8.96 14.11 8.58 13.22 8.44C13.58 7.44 13.22 7.54 13.17 6.85C13.17 6.76248 13.1352 6.67854 13.0733 6.61665C13.0115 6.55477 12.9275 6.52 12.84 6.52C12.65 6.45 12.56 6.61 12.42 6.73C12.262 7.01826 12.1474 7.32827 12.08 7.65C12.0494 7.88561 12.0733 8.12511 12.15 8.35C11.07 8.35 11.04 8.46 11.15 8.35C11.2525 8.12101 11.2972 7.87031 11.28 7.62C11.12 6.36 10.99 6.62 10.82 6.48C10.65 6.34 10.1 7.12 9.99999 7.56C9.97488 7.69887 9.97488 7.84113 9.99999 7.98C9.99999 8.08 10.06 8.15 10.06 8.2C10.06 8.25 10.06 8.43 10.13 8.58L9.60999 8.68C9.14999 8.79 9.16999 8.68 8.96999 8.81C8.92892 8.84411 8.89594 8.88693 8.87346 8.93536C8.85097 8.98378 8.83954 9.03661 8.83999 9.09C8.83999 9.19 8.50999 13.44 8.50999 13.53C8.50999 14.9 9.18999 15.27 10.51 15.53C10.22 16.29 10.81 17.1 11.09 17.1C11.37 17.1 11.8 16.1 11.58 15.65H12.46C12.46 16.05 12.56 17.21 13.05 17.21C13.54 17.21 13.89 16.05 13.61 15.45C13.8966 15.3711 14.1746 15.2639 14.44 15.13C14.761 14.9613 15.03 14.7085 15.2184 14.3987C15.4068 14.0888 15.5074 13.7336 15.5094 13.371C15.5115 13.0084 15.4149 12.6521 15.2301 12.3401C15.0452 12.0282 14.779 11.7723 14.46 11.6ZM9.75999 9.4C10.8987 9.17184 12.0713 9.17184 13.21 9.4C13.65 9.51 14.05 9.66 14.09 10.02C14.1171 10.2153 14.0692 10.4135 13.956 10.5749C13.8429 10.7363 13.6728 10.8489 13.48 10.89C12.32 11.3 11.35 10.83 9.53999 11.05V9.5C9.60784 9.45572 9.68202 9.422 9.75999 9.4ZM13.76 13.98C12.4672 14.5477 11.0098 14.6154 9.66999 14.17C9.28999 13.85 9.38999 12.73 9.44999 12.17C10.0602 12.2489 10.6747 12.289 11.29 12.29C12.1718 12.2937 13.0458 12.4563 13.87 12.77C13.9653 12.847 14.0399 12.9465 14.0873 13.0595C14.1346 13.1724 14.1532 13.2954 14.1413 13.4173C14.1294 13.5392 14.0874 13.6563 14.0191 13.758C13.9508 13.8597 13.8583 13.9428 13.75 14L13.76 13.98Z" fill="black"/>
</g>
<defs>
<clipPath id="clip0_1049_7642">
<rect width="24" height="24" fill="white"/>
</clipPath>
</defs>
</svg>
