<svg width="24" height="24" viewBox="0 0 24 24" fill="none" xmlns="http://www.w3.org/2000/svg">
<g clip-path="url(#clip0_1049_7778)">
<path fill-rule="evenodd" clip-rule="evenodd" d="M10.29 14.6C11.2502 14.574 12.2102 14.6613 13.15 14.86C13.15 15.06 13.15 15.28 13.1 15.47C13.0901 15.5166 13.0896 15.5647 13.0983 15.6116C13.1071 15.6584 13.1249 15.7031 13.1509 15.743C13.1769 15.7829 13.2105 15.8173 13.2499 15.8443C13.2892 15.8712 13.3334 15.8902 13.38 15.9C13.4266 15.9099 13.4747 15.9104 13.5216 15.9017C13.5684 15.8929 13.6131 15.8751 13.653 15.8491C13.6929 15.8231 13.7273 15.7894 13.7543 15.7501C13.7812 15.7108 13.8001 15.6666 13.81 15.62C13.81 15.44 13.81 15.23 13.9 15.05C14.0899 15.0825 14.2771 15.1293 14.46 15.19C14.5478 15.2278 14.6467 15.2302 14.7362 15.1966C14.8257 15.163 14.8987 15.0962 14.94 15.01C14.9604 14.9673 14.9721 14.9211 14.9746 14.8738C14.9771 14.8266 14.9702 14.7794 14.9544 14.7348C14.9386 14.6902 14.9142 14.6492 14.8826 14.614C14.8509 14.5789 14.8127 14.5503 14.77 14.53C14.54 14.41 14.28 14.34 14.04 14.24C14.2143 13.1691 14.2947 12.0849 14.28 11C14.48 11 14.68 11 14.87 10.94C15.6862 10.8364 16.4901 10.6522 17.27 10.39C17.3153 10.3763 17.3575 10.3537 17.3942 10.3237C17.4308 10.2936 17.4611 10.2566 17.4834 10.2148C17.5057 10.173 17.5195 10.1272 17.5241 10.0801C17.5287 10.0329 17.5239 9.9853 17.51 9.94C17.4801 9.84766 17.4152 9.77075 17.3291 9.72586C17.2431 9.68097 17.1428 9.67168 17.05 9.7C16.3068 9.89186 15.5464 10.0091 14.78 10.05H14.26C14.2089 9.36263 14.1221 8.67837 14 8C13.8817 7.32401 13.7214 6.65604 13.52 6C14.6656 5.70824 15.7781 5.29942 16.84 4.78C17.5507 5.62751 18.0662 6.62099 18.35 7.69C18.4538 8.14463 18.5273 8.60564 18.57 9.07C18.6366 9.53033 18.6701 9.99487 18.67 10.46C18.6672 10.5565 18.7023 10.6502 18.7677 10.7212C18.8331 10.7922 18.9236 10.8348 19.02 10.84C19.0673 10.8413 19.1144 10.8333 19.1585 10.8165C19.2027 10.7996 19.2432 10.7742 19.2775 10.7417C19.3119 10.7092 19.3395 10.6702 19.3588 10.627C19.3781 10.5838 19.3887 10.5373 19.39 10.49C19.3998 9.9928 19.3831 9.49543 19.34 9C19.3005 8.49951 19.2304 8.00191 19.13 7.51C18.6831 5.4782 17.4824 3.69143 15.77 2.51C14.0442 1.35785 12.0044 0.767556 9.92999 0.820001C7.38324 0.809394 4.91977 1.72653 2.99999 3.4C2.07963 4.26125 1.34026 5.2974 0.825145 6.44783C0.310028 7.59826 0.0295076 8.83986 -6.18398e-06 10.1C-0.0456296 11.0274 0.0590557 11.956 0.309994 12.85C0.566152 13.7401 0.968284 14.5816 1.49999 15.34C2.15471 16.2859 3.00787 17.0777 3.99999 17.66C4.97582 18.2507 6.08121 18.594 7.21999 18.66C7.30594 18.6656 7.39066 18.6373 7.45606 18.5812C7.52145 18.5252 7.56234 18.4458 7.56999 18.36C7.5727 18.3172 7.56675 18.2742 7.55251 18.2337C7.53826 18.1932 7.51602 18.156 7.48709 18.1243C7.45817 18.0925 7.42316 18.067 7.38414 18.049C7.34513 18.0311 7.30291 18.0213 7.25999 18.02C7.09999 18 6.99999 18 6.78999 18V17.92C6.45326 17.0346 6.24776 16.1048 6.17999 15.16C6.69999 15.05 7.17999 14.96 7.75999 14.88C8.59778 14.742 9.4423 14.6485 10.29 14.6ZM9.87999 2H9.99999H10.58C11.2754 2.96904 11.7966 4.05193 12.12 5.2C11.2865 5.29205 10.4486 5.33879 9.60999 5.34C9.00999 5.34 8.39999 5.34 7.77999 5.28C7.95359 4.69846 8.18473 4.13568 8.46999 3.6C8.85552 2.99778 9.33103 2.45819 9.87999 2ZM7.08999 7.34C7.17999 6.98 7.28999 6.64 7.38999 6.34H7.59999C8.26123 6.45288 8.9295 6.51971 9.59999 6.54C10.5513 6.56616 11.5029 6.4958 12.44 6.33C12.6 6.93 12.74 7.55 12.86 8.19C12.98 8.79 13.07 9.41 13.14 10.03L11.26 10C9.99999 10 8.72999 9.91 7.48999 9.82L6.48999 9.74C6.64531 8.92949 6.84562 8.12825 7.08999 7.34ZM16.3 4.21C15.283 4.56861 14.2353 4.83305 13.17 5C12.774 3.92473 12.2213 2.91383 11.53 2C12.8429 2.14 14.1058 2.58148 15.22 3.29C15.6102 3.5593 15.9721 3.86755 16.3 4.21ZM3.84999 4.31C5.19386 3.13445 6.85167 2.3768 8.61999 2.13C8.3054 2.44112 8.01459 2.77539 7.74999 3.13C7.30764 3.76452 6.93546 4.44517 6.63999 5.16C5.76999 5 4.91999 4.8 4.05999 4.66C4.01689 4.64429 3.97092 4.63803 3.92519 4.64165C3.87946 4.64526 3.83505 4.65867 3.79495 4.68095C3.75485 4.70324 3.72002 4.73388 3.69281 4.77081C3.66559 4.80774 3.64664 4.85009 3.63722 4.89498C3.62781 4.93988 3.62816 4.98628 3.63824 5.03102C3.64833 5.07577 3.66792 5.11783 3.69569 5.15435C3.72346 5.19086 3.75875 5.22098 3.79917 5.24266C3.8396 5.26434 3.88421 5.27707 3.92999 5.28C4.72999 5.51 5.50999 5.79 6.30999 6.03C6.18999 6.35 6.05999 6.66 5.94999 7.03C5.68174 7.89577 5.46798 8.7775 5.30999 9.67L4.99999 9.6C3.75063 9.44195 2.51644 9.18106 1.30999 8.82C1.64479 7.08086 2.53633 5.49785 3.84999 4.31ZM5.99999 17.76C5.43057 17.5748 4.88639 17.3195 4.37999 17C3.51994 16.4303 2.78777 15.6879 2.22999 14.82C1.34225 13.4293 0.941283 11.7832 1.08999 10.14C1.08999 9.9 1.16999 9.69 1.19999 9.47C2.49485 9.97875 3.83385 10.3671 5.19999 10.63C5.12999 11.26 5.06999 11.91 5.05999 12.55C5.05315 13.1782 5.08655 13.8061 5.15999 14.43C4.66999 14.63 4.15999 14.84 3.73999 15.07C3.70122 15.0864 3.66606 15.1102 3.63652 15.1402C3.60698 15.1702 3.58365 15.2057 3.56786 15.2447C3.55207 15.2837 3.54413 15.3255 3.54449 15.3676C3.54486 15.4097 3.55353 15.4513 3.56999 15.49C3.60507 15.5666 3.66812 15.6269 3.74621 15.6585C3.8243 15.6901 3.91152 15.6906 3.98999 15.66C4.40968 15.5164 4.837 15.3963 5.26999 15.3C5.41507 16.146 5.66012 16.9718 5.99999 17.76ZM6.14999 14.11V13.7C6.16122 12.7513 6.24817 11.8049 6.40999 10.87C7.14999 10.98 7.89999 11.07 8.64999 11.11C9.39999 11.15 10.43 11.11 11.34 11.11L13.26 11.02C13.3462 11.9742 13.3629 12.9334 13.31 13.89C12.5448 13.6383 11.7527 13.4772 10.95 13.41C10.3707 13.37 9.7893 13.37 9.20999 13.41C8.63784 13.4559 8.06971 13.5428 7.50999 13.67C7.0314 13.7876 6.56051 13.9345 6.09999 14.11H6.14999Z" fill="black"/>
<path fill-rule="evenodd" clip-rule="evenodd" d="M24 16.56C23.9821 16.3214 23.9487 16.0843 23.9 15.85C23.8 15.34 23.65 14.85 23.54 14.37C23.5627 14.0049 23.4405 13.6456 23.2 13.37C22.9964 13.1633 22.7555 12.9971 22.49 12.88C22.1422 12.7167 21.7711 12.6088 21.39 12.56C21.2958 12.5441 21.1992 12.5662 21.1214 12.6216C21.0829 12.6489 21.0501 12.6837 21.025 12.7237C20.9999 12.7638 20.9829 12.8084 20.975 12.855C20.9671 12.9016 20.9685 12.9493 20.9791 12.9954C20.9896 13.0415 21.0092 13.0851 21.0365 13.1236C21.0919 13.2014 21.1758 13.2541 21.27 13.27C21.5192 13.3285 21.7609 13.4158 21.99 13.53C22.2008 13.6207 22.3888 13.7573 22.54 13.93C22.6212 14.0539 22.6499 14.2049 22.62 14.35C22.6151 14.4171 22.5956 14.4824 22.5628 14.5411C22.5299 14.5998 22.4846 14.6507 22.43 14.69C22.0208 14.9391 21.5579 15.0865 21.08 15.12C20.2849 15.1897 19.484 15.1494 18.7 15L17.85 14.77L17.31 14.52C17.2303 14.4801 17.1609 14.4223 17.1071 14.3512C17.0533 14.2801 17.0167 14.1976 17 14.11C17.0068 14.0125 17.0356 13.9179 17.084 13.833C17.1325 13.7482 17.1995 13.6754 17.28 13.62C17.67 13.3258 18.1106 13.1055 18.58 12.97C19.043 12.847 19.5262 12.8198 20 12.89C20.0414 12.9004 20.0844 12.9024 20.1266 12.8959C20.1688 12.8894 20.2092 12.8745 20.2455 12.8521C20.2819 12.8298 20.3134 12.8004 20.3382 12.7657C20.363 12.7309 20.3806 12.6916 20.39 12.65C20.4047 12.5653 20.3858 12.4781 20.3372 12.4072C20.2887 12.3362 20.2143 12.287 20.13 12.27C19.5467 12.1443 18.9433 12.1443 18.36 12.27C17.7673 12.3739 17.1981 12.5839 16.68 12.89C16.4562 13.0189 16.2666 13.1998 16.1274 13.4173C15.9881 13.6349 15.9033 13.8828 15.88 14.14C15.8611 14.3926 15.913 14.6454 16.03 14.87C15.9217 15.2982 15.8382 15.7322 15.78 16.17V17.12V17.49C15.4614 17.3461 15.1252 17.2452 14.78 17.19C14.6847 17.1754 14.5875 17.1986 14.5091 17.2547C14.4306 17.3107 14.3771 17.3951 14.36 17.49C14.3479 17.5849 14.3721 17.6809 14.4278 17.7587C14.4834 17.8366 14.5663 17.8906 14.66 17.91C14.9102 17.9602 15.1525 18.0444 15.38 18.16C15.583 18.2497 15.7639 18.3829 15.91 18.55C15.91 18.7 15.96 18.83 15.98 18.97V19.1C15.9531 19.1871 15.905 19.2661 15.84 19.33C15.4299 19.5756 14.967 19.7196 14.49 19.75C13.71 19.8527 12.92 19.8527 12.14 19.75L11.29 19.51L10.75 19.26C10.6715 19.2211 10.6028 19.1649 10.5491 19.0956C10.4954 19.0263 10.4581 18.9458 10.44 18.86C10.4438 18.7618 10.4712 18.666 10.5199 18.5807C10.5687 18.4954 10.6373 18.4231 10.72 18.37C11.1072 18.0713 11.5487 17.8505 12.02 17.72C12.4918 17.5725 12.9904 17.5315 13.48 17.6C13.5214 17.6088 13.5641 17.6092 13.6057 17.6014C13.6472 17.5935 13.6868 17.5775 13.7222 17.5543C13.7575 17.531 13.7879 17.501 13.8115 17.4659C13.8352 17.4309 13.8517 17.3915 13.86 17.35C13.8688 17.3086 13.8692 17.2659 13.8614 17.2243C13.8535 17.1828 13.8375 17.1432 13.8143 17.1078C13.791 17.0725 13.761 17.0421 13.7259 17.0185C13.6909 16.9948 13.6515 16.9783 13.61 16.97C13.0267 16.8443 12.4233 16.8443 11.84 16.97C11.2461 17.0753 10.6766 17.2888 10.16 17.6C9.93391 17.7262 9.74256 17.9064 9.60298 18.1245C9.4634 18.3426 9.37993 18.5918 9.36 18.85C9.36657 19.0103 9.3969 19.1687 9.45 19.32C9.45 19.48 9.38 19.64 9.35 19.82C9.3398 19.9732 9.3398 20.1268 9.35 20.28C9.35519 20.4382 9.37528 20.5956 9.41 20.75C9.46747 21.0556 9.54769 21.3564 9.65 21.65C9.6022 21.7181 9.58278 21.8021 9.59585 21.8842C9.60891 21.9663 9.65344 22.0401 9.72 22.09C9.96506 22.3223 10.2452 22.5147 10.55 22.66C10.8364 22.8094 11.134 22.9365 11.44 23.04C11.7899 23.1452 12.1477 23.2221 12.51 23.27C12.8756 23.31 13.2444 23.31 13.61 23.27C14.3357 23.167 15.035 22.926 15.67 22.56C15.714 22.5416 15.7539 22.5147 15.7875 22.4809C15.8211 22.4471 15.8478 22.407 15.8659 22.3629C15.884 22.3188 15.8932 22.2715 15.8931 22.2239C15.8929 22.1762 15.8834 22.129 15.865 22.085C15.8466 22.041 15.8197 22.0011 15.7859 21.9675C15.7521 21.9339 15.712 21.9072 15.6679 21.8891C15.6238 21.871 15.5765 21.8618 15.5289 21.8619C15.4812 21.8621 15.434 21.8716 15.39 21.89C14.9056 22.033 14.4048 22.1137 13.9 22.13C13.5304 22.1546 13.1596 22.1546 12.79 22.13C12.4182 22.1206 12.0475 22.0872 11.68 22.03C11.3426 22.0192 11.0074 21.9722 10.68 21.89L10.42 21.78C10.42 21.44 10.51 21.11 10.55 20.78V20.4L10.83 20.55C11.0128 20.6271 11.1997 20.6938 11.39 20.75C11.5808 20.8039 11.7744 20.8473 11.97 20.88C12.8713 21.0189 13.7887 21.0189 14.69 20.88C15.1002 20.8028 15.4974 20.6681 15.87 20.48C15.93 20.84 16.04 21.16 16.13 21.48C16.1326 21.5273 16.1444 21.5736 16.1649 21.6163C16.1854 21.659 16.2141 21.6973 16.2494 21.7289C16.2847 21.7605 16.3259 21.7848 16.3706 21.8004C16.4153 21.816 16.4627 21.8227 16.51 21.82C16.6064 21.8148 16.6969 21.7722 16.7623 21.7012C16.8277 21.6302 16.8627 21.5365 16.86 21.44C16.86 21.21 16.93 20.98 16.97 20.75C17.4683 21.0517 18.007 21.2806 18.57 21.43C18.935 21.5089 19.3067 21.5524 19.68 21.56C20.0455 21.5699 20.411 21.5398 20.77 21.47C21.6162 21.3176 22.4267 21.009 23.16 20.56C23.2444 20.5171 23.3086 20.4427 23.3385 20.3528C23.3685 20.263 23.3618 20.165 23.32 20.08C23.3007 20.0364 23.2728 19.9972 23.2378 19.9647C23.2028 19.9323 23.1616 19.9074 23.1167 19.8915C23.0717 19.8755 23.024 19.869 22.9764 19.8722C22.9288 19.8754 22.8824 19.8882 22.84 19.91C22.134 20.1672 21.3911 20.309 20.64 20.33H19.7C19.39 20.33 19.07 20.33 18.76 20.27C18.162 20.2261 17.5713 20.112 17 19.93C17.0099 19.8102 17.0099 19.6898 17 19.57V19.41V18.14C17.4875 18.4277 18.0125 18.6464 18.56 18.79C18.925 18.8689 19.2967 18.9124 19.67 18.92C20.0355 18.9299 20.401 18.8998 20.76 18.83C21.5287 18.6798 22.266 18.3991 22.94 18C22.9886 18.2975 23.012 18.5986 23.01 18.9C23.003 18.9468 23.0055 18.9945 23.0175 19.0403C23.0294 19.086 23.0505 19.1289 23.0795 19.1663C23.1085 19.2037 23.1447 19.2348 23.186 19.2578C23.2274 19.2808 23.273 19.2951 23.32 19.3C23.3673 19.307 23.4156 19.3046 23.462 19.2927C23.5084 19.2809 23.5519 19.2599 23.5901 19.2311C23.6283 19.2022 23.6603 19.166 23.6843 19.1246C23.7083 19.0832 23.7239 19.0375 23.73 18.99C23.8792 18.4343 23.9697 17.8646 24 17.29C24.0151 17.0469 24.0151 16.8031 24 16.56ZM20.64 17.69H19.7C19.39 17.69 19.07 17.69 18.76 17.63C18.1612 17.5799 17.5704 17.4591 17 17.27V17.08V16.17V15.69L17.42 15.93C17.603 16.0038 17.7899 16.0672 17.98 16.12C18.1696 16.1786 18.3635 16.2221 18.56 16.25C19.4613 16.3894 20.3787 16.3894 21.28 16.25C21.8253 16.1496 22.3453 15.9423 22.81 15.64C22.8001 15.8365 22.8001 16.0335 22.81 16.23C22.81 16.59 22.87 16.95 22.91 17.3C22.1737 17.5566 21.3997 17.6885 20.62 17.69H20.64Z" fill="black"/>
</g>
<defs>
<clipPath id="clip0_1049_7778">
<rect width="24" height="24" fill="white"/>
</clipPath>
</defs>
</svg>
