<svg width="24" height="24" viewBox="0 0 24 24" fill="none" xmlns="http://www.w3.org/2000/svg">
<g clip-path="url(#clip0_1049_7752)">
<path fill-rule="evenodd" clip-rule="evenodd" d="M23.13 16.78C22.9915 16.7073 22.8362 16.6728 22.68 16.68C22.46 16.68 22.12 16.77 21.99 16.78C21.5367 16.82 21.0867 16.87 20.64 16.93H20.55C20.55 16.59 20.61 16.24 20.62 15.93C20.63 15.62 20.62 15.45 20.62 15.21C20.62 14.97 20.62 14.73 20.54 14.5C20.46 13.93 20.32 13.39 20.24 12.83C20.24 12.7398 20.2042 12.6533 20.1404 12.5896C20.0767 12.5258 19.9902 12.49 19.9 12.49C19.8098 12.49 19.7233 12.5258 19.6596 12.5896C19.5958 12.6533 19.56 12.7398 19.56 12.83C19.4402 13.4004 19.36 13.9785 19.32 14.56C19.305 14.8064 19.305 15.0536 19.32 15.3C19.3352 15.5416 19.3653 15.7821 19.41 16.02C19.47 16.4 19.55 16.77 19.63 17.14C19.52 17.14 19.41 17.14 19.3 17.2C19.2124 17.2171 19.1346 17.2669 19.0826 17.3394C19.0305 17.4119 19.0082 17.5015 19.02 17.59C19.0347 17.6788 19.084 17.7581 19.1571 17.8106C19.2302 17.8631 19.3212 17.8844 19.41 17.87C20.2256 17.8104 21.0444 17.8104 21.86 17.87L21.53 18.39C21.18 18.88 20.83 19.39 20.53 19.88C19.8396 20.9283 19.1728 21.9919 18.53 23.07C18.01 22.19 17.53 21.34 16.93 20.52C16.5 19.92 16.04 19.34 15.58 18.74L15.01 18.14V18.09L16.56 17.89C16.56 17.89 17.29 17.57 17.28 17.27C17.27 16.97 17.41 16.51 17.44 16.12C17.4761 15.7876 17.4761 15.4524 17.44 15.12C17.36 14.74 17.23 14.4 17.14 14.02C17.1414 13.975 17.1335 13.9301 17.1169 13.8883C17.1003 13.8464 17.0754 13.8083 17.0435 13.7765C17.0116 13.7446 16.9736 13.7197 16.9317 13.7031C16.8899 13.6865 16.845 13.6786 16.8 13.68C16.7563 13.6786 16.7128 13.6862 16.6721 13.7023C16.6314 13.7184 16.5945 13.7426 16.5636 13.7736C16.5326 13.8045 16.5084 13.8414 16.4923 13.8821C16.4762 13.9228 16.4686 13.9663 16.47 14.01C16.2814 14.3829 16.1242 14.7709 16 15.17C15.985 15.333 15.985 15.497 16 15.66C16 15.82 16 15.99 16.06 16.15C16.13 16.5 16.24 16.83 16.33 17.15L14.44 17.1H13.91C13.7831 17.1033 13.6614 17.1512 13.5663 17.2354C13.4712 17.3195 13.4088 17.4344 13.39 17.56C13.362 17.8079 13.4184 18.058 13.55 18.27C13.8214 18.7002 14.1221 19.1112 14.45 19.5C16.85 22.39 18.22 24.58 18.78 23.85C19.7 22.76 20.61 21.68 21.48 20.55C21.84 20.07 22.19 19.55 22.55 19.09C22.67 18.92 22.79 18.74 22.9 18.55C23.0171 18.354 23.1207 18.1502 23.21 17.94C23.21 17.94 23.33 17.61 23.36 17.48C23.397 17.3538 23.3948 17.2192 23.3538 17.0943C23.3127 16.9693 23.2347 16.8597 23.13 16.78Z" fill="black"/>
<path fill-rule="evenodd" clip-rule="evenodd" d="M6.27 10C6.23307 10.0346 6.20362 10.0764 6.1835 10.1229C6.16337 10.1693 6.15298 10.2194 6.15298 10.27C6.15298 10.3206 6.16337 10.3707 6.1835 10.4171C6.20362 10.4636 6.23307 10.5054 6.27 10.54C7.05692 11.1987 8.05388 11.5535 9.08 11.54C9.08 11.86 9.13 12.19 9.16 12.54C9.16127 12.5908 9.1727 12.6408 9.19363 12.6871C9.21456 12.7334 9.24456 12.775 9.28185 12.8095C9.31914 12.844 9.36297 12.8707 9.41075 12.8879C9.45852 12.9052 9.50927 12.9127 9.56 12.91C9.66168 12.9048 9.75731 12.8601 9.82644 12.7853C9.89558 12.7106 9.93275 12.6118 9.93 12.51V11.56C10.2686 11.5285 10.6035 11.4649 10.93 11.37C11.2508 11.3022 11.554 11.1686 11.8205 10.9777C12.087 10.7867 12.3109 10.5425 12.4782 10.2606C12.6455 9.9786 12.7525 9.665 12.7924 9.33958C12.8323 9.01417 12.8042 8.68402 12.71 8.37C12.6419 8.07791 12.4964 7.80955 12.2887 7.59312C12.0811 7.37669 11.819 7.22017 11.53 7.14C11.0627 7.02465 10.5795 6.98748 10.1 7.03V6.03V5.24C10.5748 5.26054 11.0421 5.36551 11.48 5.55C11.5155 5.58404 11.5579 5.61021 11.6042 5.62678C11.6506 5.64336 11.6999 5.64998 11.7489 5.6462C11.798 5.64243 11.8457 5.62835 11.889 5.60488C11.9323 5.58141 11.9701 5.54908 12 5.51C12.0344 5.42809 12.0382 5.33654 12.0106 5.25208C11.9831 5.16763 11.9261 5.0959 11.85 5.05C11.3196 4.77304 10.7438 4.59352 10.15 4.52V2.68C10.1556 2.63506 10.1518 2.58947 10.139 2.54605C10.1261 2.50262 10.1045 2.46231 10.0754 2.4276C10.0464 2.3929 10.0105 2.36455 9.96995 2.34431C9.92945 2.32408 9.88522 2.3124 9.84 2.31C9.79663 2.30588 9.75287 2.31038 9.71125 2.32325C9.66963 2.33613 9.63098 2.35711 9.59751 2.385C9.56404 2.41289 9.53642 2.44714 9.51626 2.48575C9.49609 2.52437 9.48377 2.5666 9.48 2.61C9.36 3.22 9.29 3.85 9.19 4.47C8.85278 4.47469 8.51722 4.51831 8.19 4.6C7.93821 4.6487 7.69872 4.74736 7.48568 4.89014C7.27264 5.03293 7.09037 5.21694 6.94962 5.43133C6.80887 5.64572 6.71249 5.88613 6.66619 6.13838C6.61988 6.39063 6.62458 6.6496 6.68 6.9C6.70467 7.19453 6.81145 7.47624 6.98823 7.71312C7.165 7.94999 7.40467 8.13253 7.68 8.24C8.04936 8.36798 8.43942 8.42564 8.83 8.41V9.08C8.83 9.61 8.92 10.14 8.97 10.67C8.19421 10.703 7.43096 10.4662 6.81 10C6.77467 9.96432 6.73262 9.936 6.68627 9.91667C6.63993 9.89735 6.59021 9.88739 6.54 9.88739C6.48979 9.88739 6.44008 9.89735 6.39373 9.91667C6.34739 9.936 6.30534 9.96432 6.27 10ZM11.05 8.38C11.1613 8.3826 11.2691 8.41954 11.3586 8.48578C11.4481 8.55201 11.515 8.6443 11.55 8.75C11.88 9.75 11.01 10.34 10.02 10.56L10.08 9.07V8.36H10.23C10.5036 8.34221 10.7784 8.35226 11.05 8.39V8.38ZM7.81 6.68C7.63 5.89 8.24 5.52 8.97 5.38H9C9 5.61 8.91 5.84 8.89 6.08C8.87 6.32 8.89 6.79 8.83 7.15C8.38 7.18 7.93 7.19 7.81 6.68Z" fill="black"/>
<path fill-rule="evenodd" clip-rule="evenodd" d="M5.46 15.1C6.13161 15.3973 6.83674 15.6122 7.56 15.74C8.27899 15.8707 9.00944 15.9276 9.74 15.91C10.8106 15.9112 11.8766 15.77 12.91 15.49C13.6215 15.2922 14.2968 14.9816 14.91 14.57C14.9542 14.5392 14.9918 14.4998 15.0204 14.4541C15.049 14.4084 15.068 14.3574 15.0765 14.3042C15.0849 14.2509 15.0824 14.1966 15.0693 14.1443C15.0561 14.092 15.0326 14.0429 15 14C14.9727 13.9577 14.9372 13.9212 14.8957 13.8928C14.8541 13.8643 14.8073 13.8443 14.758 13.8341C14.7087 13.8239 14.6578 13.8235 14.6084 13.8331C14.5589 13.8427 14.5119 13.8621 14.47 13.89C13.7815 14.3191 13.0181 14.6143 12.22 14.76C11.3993 14.9178 10.5657 14.9981 9.73 15C9.05766 14.9936 8.38766 14.9199 7.73 14.78C7.09052 14.6441 6.46949 14.4326 5.88 14.15C5.42987 13.9325 4.99842 13.6783 4.59 13.39C4.18605 13.0964 3.81401 12.7612 3.48 12.39C0.649998 9.49 1.72 5.57 4.33 3.19C5.63388 1.941 7.33659 1.19204 9.13837 1.07497C10.9401 0.957903 12.7255 1.48023 14.18 2.55C14.627 2.8653 15.0104 3.26227 15.31 3.72C15.6316 4.18852 15.9063 4.6876 16.13 5.21C16.1443 5.25545 16.1681 5.29738 16.1997 5.33308C16.2312 5.36877 16.27 5.39742 16.3134 5.41717C16.3567 5.43692 16.4038 5.44733 16.4514 5.44772C16.4991 5.44812 16.5463 5.43849 16.59 5.41946C16.6337 5.40043 16.6729 5.37243 16.7051 5.33726C16.7373 5.3021 16.7617 5.26057 16.7768 5.21536C16.7919 5.17015 16.7973 5.12227 16.7927 5.07483C16.788 5.02739 16.7735 4.98146 16.75 4.94C16.4966 4.25516 16.1608 3.6037 15.75 3C15.4549 2.57845 15.0975 2.20418 14.69 1.89C13.0907 0.600302 11.0817 -0.0726862 9.02819 -0.00662258C6.97471 0.059441 5.01311 0.86017 3.5 2.25C2.36476 3.17736 1.51265 4.40478 1.04062 5.79257C0.568599 7.18036 0.495622 8.67278 0.829998 10.1C0.876599 11.7483 1.33006 13.3594 2.15 14.79C2.96477 16.0442 4.15981 17.0044 5.56 17.53C6.00751 17.6902 6.46519 17.8205 6.93 17.92C7.38509 18.0191 7.84602 18.0893 8.31 18.13C8.88362 18.2037 9.4617 18.2371 10.04 18.23C10.4464 18.2256 10.8502 18.165 11.24 18.05C11.3372 18.0219 11.4196 17.9573 11.47 17.8696C11.5204 17.7819 11.5347 17.6781 11.51 17.58C11.4798 17.4842 11.4148 17.4033 11.3277 17.3533C11.2406 17.3032 11.1379 17.2878 11.04 17.31C10.7114 17.3787 10.375 17.4023 10.04 17.38C9.50804 17.3456 8.97969 17.2687 8.46 17.15C8.03757 17.0715 7.62017 16.968 7.21 16.84C6.79503 16.7275 6.39027 16.5804 6 16.4C5.29378 16.1019 4.64942 15.6746 4.1 15.14C3.54001 14.6084 3.07349 13.9864 2.72 13.3C3.11179 13.6715 3.53691 14.0063 3.99 14.3C4.4578 14.6056 4.94938 14.8731 5.46 15.1Z" fill="black"/>
<path fill-rule="evenodd" clip-rule="evenodd" d="M16.3 8C16.255 7.99588 16.2097 8.00103 16.1668 8.01513C16.1239 8.02923 16.0844 8.05198 16.0506 8.08197C16.0169 8.11197 15.9897 8.14857 15.9706 8.18951C15.9516 8.23045 15.9412 8.27486 15.94 8.32C15.8041 8.79033 15.694 9.2677 15.61 9.75C15.5948 9.95304 15.5948 10.1569 15.61 10.36C15.5951 10.5631 15.5951 10.7669 15.61 10.97C15.66 11.45 15.74 11.91 15.8 12.39C15.791 12.4458 15.7942 12.5028 15.8094 12.5572C15.8246 12.6116 15.8514 12.662 15.888 12.7051C15.9246 12.7481 15.9702 12.7826 16.0214 12.8063C16.0727 12.83 16.1285 12.8422 16.185 12.8422C16.2415 12.8422 16.2973 12.83 16.3486 12.8063C16.3998 12.7826 16.4453 12.7481 16.482 12.7051C16.5186 12.662 16.5454 12.6116 16.5606 12.5572C16.5758 12.5028 16.579 12.4458 16.57 12.39C16.66 11.91 16.76 11.45 16.82 10.97C16.8346 10.7669 16.8346 10.5631 16.82 10.36V9.75C16.77 9.26 16.65 8.81 16.59 8.33C16.5885 8.24958 16.5585 8.17229 16.5054 8.11187C16.4523 8.05145 16.3795 8.01181 16.3 8Z" fill="black"/>
<path fill-rule="evenodd" clip-rule="evenodd" d="M18.11 12C18.1599 12.0027 18.2099 11.9955 18.257 11.9789C18.3042 11.9622 18.3475 11.9364 18.3847 11.903C18.4219 11.8696 18.4521 11.8291 18.4736 11.784C18.4951 11.7389 18.5074 11.6899 18.51 11.64C18.64 10.75 18.76 9.87999 18.82 8.99C18.82 8.62 18.88 8.24 18.88 7.86V6.74C18.83 5.85999 18.74 5.01 18.71 4.13C18.7141 4.08531 18.7093 4.04026 18.696 3.99742C18.6826 3.95459 18.6609 3.91483 18.632 3.88044C18.6032 3.84604 18.5679 3.81769 18.5281 3.79702C18.4882 3.77635 18.4447 3.76377 18.4 3.76C18.3566 3.75729 18.3132 3.76317 18.2721 3.77729C18.231 3.79142 18.1931 3.81352 18.1606 3.84232C18.1281 3.87112 18.1016 3.90606 18.0826 3.94513C18.0636 3.9842 18.0525 4.02663 18.05 4.07C17.8432 5.05987 17.6996 6.06189 17.62 7.07V8.88C17.62 9.78 17.73 10.67 17.76 11.57C17.7545 11.6213 17.7592 11.6731 17.7738 11.7225C17.7884 11.772 17.8127 11.818 17.8453 11.858C17.8778 11.898 17.918 11.9311 17.9634 11.9555C18.0089 11.9799 18.0587 11.995 18.11 12Z" fill="black"/>
<path fill-rule="evenodd" clip-rule="evenodd" d="M20.07 10.47C20.0673 10.5207 20.0748 10.5715 20.0921 10.6193C20.1093 10.667 20.136 10.7109 20.1705 10.7481C20.205 10.7854 20.2466 10.8154 20.2929 10.8364C20.3392 10.8573 20.3892 10.8687 20.44 10.87C20.5417 10.87 20.6394 10.8303 20.7123 10.7593C20.7851 10.6883 20.8274 10.5917 20.83 10.49C20.93 9.56 21.04 8.64 21.09 7.7V6.49C21.09 6.08999 21.09 5.69 21.04 5.29C20.94 4.29 20.77 3.43 20.61 2.5C20.6062 2.45528 20.5936 2.41176 20.573 2.37193C20.5523 2.3321 20.5239 2.29676 20.4895 2.26794C20.4552 2.23913 20.4154 2.2174 20.3726 2.20402C20.3297 2.19064 20.2847 2.18588 20.24 2.19C20.1515 2.19765 20.0696 2.2396 20.0117 2.30687C19.9538 2.37414 19.9244 2.4614 19.93 2.55C19.93 3.48 19.83 4.39 19.8 5.33V6.51C19.8 6.9 19.8 7.29999 19.85 7.7C19.93 8.62999 20 9.55 20.07 10.47Z" fill="black"/>
</g>
<defs>
<clipPath id="clip0_1049_7752">
<rect width="24" height="24" fill="white"/>
</clipPath>
</defs>
</svg>
