<svg width="24" height="24" viewBox="0 0 24 24" fill="none" xmlns="http://www.w3.org/2000/svg">
<g clip-path="url(#clip0_1049_7770)">
<path fill-rule="evenodd" clip-rule="evenodd" d="M15.21 13.88C14.8317 12.3403 13.8851 11.0007 12.56 10.13C11.2107 9.25851 9.58167 8.92984 8.00003 9.21C6.45166 9.53136 5.04186 10.3271 3.96658 11.4866C2.89129 12.6461 2.20393 14.1118 2.00003 15.68C1.8585 16.4598 1.87444 17.26 2.04692 18.0336C2.21941 18.8071 2.54495 19.5383 3.00437 20.1841C3.46379 20.8299 4.04779 21.3772 4.72199 21.7939C5.39619 22.2105 6.14694 22.488 6.93003 22.61C7.41012 22.7121 7.89924 22.7657 8.39003 22.77C8.87785 22.7622 9.36364 22.7052 9.84003 22.6C9.9136 22.5854 9.97866 22.5429 10.0215 22.4814C10.0644 22.4198 10.0818 22.3441 10.07 22.27C10.0511 22.1975 10.0057 22.1347 9.94276 22.094C9.87983 22.0533 9.80395 22.0376 9.73003 22.05C9.29147 22.1308 8.84592 22.1677 8.40003 22.16C7.9287 22.1618 7.4588 22.1081 7.00003 22C6.32293 21.8722 5.67806 21.6108 5.10304 21.2312C4.52801 20.8515 4.03435 20.3611 3.65084 19.7887C3.26733 19.2162 3.00166 18.5731 2.86932 17.8969C2.73698 17.2206 2.74062 16.5248 2.88003 15.85C3.07611 14.4884 3.6921 13.222 4.64214 12.2271C5.59218 11.2322 6.82894 10.5586 8.18003 10.3C9.49731 10.055 10.8585 10.3152 11.9927 11.0286C13.1268 11.7421 13.9506 12.8565 14.3 14.15C14.6967 15.6284 14.609 17.195 14.05 18.62C13.8228 19.3319 13.4008 19.9659 12.8316 20.4502C12.2625 20.9345 11.5691 21.2497 10.83 21.36C10.7461 21.3701 10.6691 21.412 10.6152 21.4771C10.5612 21.5422 10.5343 21.6256 10.54 21.71C10.5438 21.7521 10.5559 21.793 10.5755 21.8304C10.5952 21.8678 10.6221 21.901 10.6546 21.9279C10.6871 21.9549 10.7247 21.9752 10.7651 21.9875C10.8055 21.9999 10.848 22.0041 10.89 22C11.5892 21.9372 12.263 21.7073 12.8547 21.3297C13.4464 20.952 13.9387 20.4377 14.29 19.83C15.3598 18.0421 15.6899 15.9075 15.21 13.88Z" fill="black"/>
<path fill-rule="evenodd" clip-rule="evenodd" d="M6.23002 18C6.16843 17.9401 6.08592 17.9066 6.00002 17.9066C5.91413 17.9066 5.83162 17.9401 5.77002 18C5.74374 18.0328 5.72418 18.0705 5.71247 18.1109C5.70075 18.1513 5.69712 18.1936 5.70176 18.2354C5.7064 18.2772 5.71924 18.3176 5.73953 18.3545C5.75982 18.3913 5.78717 18.4238 5.82002 18.45C6.4158 18.9622 7.17435 19.2458 7.96002 19.25C8.07313 19.26 8.18691 19.26 8.30002 19.25C8.30002 19.58 8.37002 19.91 8.40002 20.25C8.40128 20.2929 8.41116 20.3351 8.42907 20.3742C8.44698 20.4132 8.47256 20.4482 8.50428 20.4771C8.53601 20.506 8.57323 20.5283 8.61373 20.5425C8.65423 20.5568 8.69718 20.5627 8.74002 20.56C8.82313 20.5548 8.90096 20.5175 8.95698 20.4559C9.01299 20.3943 9.04278 20.3132 9.04002 20.23V19.17C9.40952 19.0985 9.77121 18.9913 10.12 18.85C10.6687 18.6112 11.125 18.2006 11.42 17.68C11.5398 17.4767 11.6143 17.25 11.6385 17.0153C11.6627 16.7806 11.6359 16.5434 11.56 16.32C11.4344 16.022 11.234 15.7614 10.9783 15.5634C10.7225 15.3655 10.42 15.2369 10.1 15.19C9.77116 15.1203 9.43618 15.0834 9.10002 15.08V14.53C9.10002 14.35 9.10002 13.9 9.05002 13.59H9.31002C9.70002 13.59 10.08 13.65 10.46 13.7C10.4968 13.7059 10.5344 13.7045 10.5706 13.6959C10.6068 13.6873 10.641 13.6716 10.6712 13.6498C10.7014 13.628 10.727 13.6004 10.7465 13.5687C10.766 13.537 10.7791 13.5018 10.785 13.465C10.7909 13.4282 10.7895 13.3907 10.7809 13.3544C10.7723 13.3182 10.7567 13.284 10.7348 13.2538C10.713 13.2237 10.6855 13.1981 10.6537 13.1785C10.622 13.159 10.5868 13.1459 10.55 13.14C10.16 13.06 9.77002 12.99 9.37002 12.94H9.02002C9.02002 12.46 8.97002 11.94 8.96002 11.49C8.9602 11.4164 8.9324 11.3456 8.88227 11.2917C8.83214 11.2379 8.76342 11.2051 8.69002 11.2C8.65243 11.1973 8.61468 11.2022 8.57903 11.2144C8.54338 11.2266 8.51057 11.2459 8.48256 11.2712C8.45455 11.2964 8.43191 11.327 8.41601 11.3611C8.40011 11.3953 8.39127 11.4323 8.39002 11.47L8.21002 12.94C7.62244 13.019 7.05358 13.2018 6.53002 13.48C6.20172 13.65 5.93566 13.9195 5.77002 14.25C5.57002 14.69 5.66002 15.25 6.48002 15.77C6.95052 16.0112 7.4713 16.138 8.00002 16.14H8.05002V17.19C8.05002 17.54 8.11002 18.06 8.15002 18.5H7.88002C7.29006 18.5189 6.71027 18.3432 6.23002 18ZM7.05002 14.89C6.84002 14.77 6.69002 14.72 6.69002 14.6C6.69002 14.48 6.84002 14.34 7.01002 14.22C7.37199 13.9805 7.77054 13.8015 8.19002 13.69C8.19002 13.97 8.19002 14.26 8.12002 14.54C8.05002 14.82 8.12002 14.89 8.12002 15.07C7.75446 15.0894 7.38912 15.0279 7.05002 14.89ZM9.14002 17.18V16.18C9.39184 16.1853 9.64276 16.212 9.89002 16.26C10.0404 16.274 10.185 16.3252 10.3107 16.4089C10.4364 16.4927 10.5393 16.6065 10.61 16.74C10.642 16.8525 10.6469 16.9709 10.6243 17.0856C10.6018 17.2004 10.5523 17.3081 10.48 17.4C10.3093 17.673 10.0672 17.8943 9.78002 18.04C9.5515 18.142 9.31785 18.2321 9.08002 18.31C9.12002 17.93 9.13002 17.56 9.14002 17.18Z" fill="black"/>
<path fill-rule="evenodd" clip-rule="evenodd" d="M9.16003 7.13C9.22388 7.15759 9.29591 7.15947 9.36112 7.13525C9.42632 7.11103 9.47966 7.06258 9.51003 7C9.75069 6.30491 10.0588 5.63505 10.43 5C10.7935 4.39169 11.2848 3.86964 11.87 3.47C12.3846 3.12693 12.9429 2.8545 13.53 2.66C14.1165 2.46513 14.7241 2.34092 15.34 2.29C16.1879 2.19024 17.0473 2.28322 17.8542 2.56199C18.6611 2.84077 19.3946 3.29814 20 3.9C20.6019 4.51693 21.0746 5.24773 21.3906 6.04961C21.7065 6.85149 21.8593 7.70834 21.84 8.57C21.8044 9.88406 21.3644 11.1552 20.58 12.21C20.2394 12.7538 19.7615 13.1982 19.1945 13.4984C18.6274 13.7986 17.9912 13.944 17.35 13.92C17.2666 13.9115 17.1833 13.9361 17.1178 13.9885C17.0524 14.0408 17.0101 14.1168 17 14.2C16.9914 14.2845 17.0157 14.3691 17.0678 14.4362C17.12 14.5032 17.196 14.5476 17.28 14.56C17.8905 14.6238 18.5075 14.5481 19.0844 14.3385C19.6612 14.1288 20.1829 13.7908 20.61 13.35C21.9016 12.0873 22.6814 10.3923 22.8 8.59C22.8538 7.5919 22.7042 6.59329 22.3604 5.65473C22.0166 4.71617 21.4858 3.85722 20.8 3.13C20.0826 2.42011 19.212 1.8842 18.255 1.56348C17.2981 1.24277 16.2803 1.14579 15.28 1.28C14.5949 1.3726 13.9235 1.54719 13.28 1.8C12.6365 2.05474 12.0282 2.3908 11.47 2.8C10.9332 3.1849 10.4693 3.66236 10.1 4.21C9.61921 5.00963 9.24916 5.87083 9.00003 6.77C8.9739 6.83899 8.97605 6.91549 9.00601 6.9829C9.03596 7.05031 9.09131 7.10317 9.16003 7.13Z" fill="black"/>
<path fill-rule="evenodd" clip-rule="evenodd" d="M14.3601 10.15C14.3782 10.1883 14.4038 10.2225 14.4353 10.2508C14.4669 10.2791 14.5037 10.3009 14.5437 10.3149C14.5837 10.3288 14.6261 10.3347 14.6684 10.3321C14.7107 10.3296 14.752 10.3187 14.7901 10.3L15.5301 10.06C15.8563 10.2876 16.2178 10.4599 16.6001 10.57C16.8841 10.625 17.176 10.625 17.4601 10.57C17.8464 10.5053 18.2229 10.391 18.5801 10.23C18.6188 10.2136 18.654 10.1898 18.6835 10.1598C18.7131 10.1298 18.7364 10.0943 18.7522 10.0553C18.768 10.0163 18.7759 9.97451 18.7756 9.93242C18.7752 9.89034 18.7665 9.84873 18.7501 9.81C18.7357 9.7707 18.7135 9.73472 18.6849 9.70421C18.6563 9.6737 18.6218 9.6493 18.5835 9.63248C18.5452 9.61566 18.5039 9.60677 18.462 9.60635C18.4202 9.60592 18.3787 9.61397 18.3401 9.63C18.0835 9.71659 17.8188 9.7769 17.5501 9.81C17.3137 9.83404 17.0749 9.80675 16.8501 9.73C16.7467 9.69417 16.649 9.64366 16.5601 9.58H16.6701C16.8423 9.48964 17.0093 9.38947 17.1701 9.28C17.5601 9.01 17.9001 8.72 18.2801 8.46C18.3152 8.44598 18.3471 8.425 18.3738 8.39832C18.4006 8.37164 18.4217 8.33982 18.4359 8.30476C18.45 8.26971 18.4569 8.23215 18.4562 8.19436C18.4554 8.15656 18.447 8.11932 18.4315 8.08486C18.4159 8.0504 18.3936 8.01944 18.3657 7.99386C18.3379 7.96827 18.3052 7.94858 18.2696 7.93598C18.2339 7.92338 18.1961 7.91813 18.1584 7.92054C18.1206 7.92295 18.0838 7.93297 18.0501 7.95C17.5198 8.07122 17.0012 8.23852 16.5001 8.45C16.2226 8.58379 15.9552 8.73753 15.7001 8.91C15.523 8.70604 15.3719 8.48101 15.2501 8.24C15.2457 8.19678 15.2457 8.15323 15.2501 8.11C15.5362 8.0363 15.8169 7.94274 16.0901 7.83C16.5696 7.62165 17.0312 7.37415 17.4701 7.09C17.5078 7.07971 17.543 7.06161 17.5734 7.03687C17.6037 7.01212 17.6286 6.98129 17.6462 6.94636C17.6639 6.91143 17.6741 6.87318 17.6761 6.83407C17.6781 6.79497 17.6718 6.75588 17.6578 6.71933C17.6437 6.68279 17.6222 6.6496 17.5945 6.6219C17.5668 6.59421 17.5336 6.57263 17.4971 6.55856C17.4605 6.54448 17.4215 6.53823 17.3824 6.5402C17.3433 6.54217 17.305 6.55233 17.2701 6.57C16.8401 6.65 16.4001 6.68 15.9501 6.78C15.7594 6.81804 15.5721 6.87155 15.3901 6.94L15.0701 7.07C15.1083 6.78818 15.2223 6.52204 15.4001 6.3C15.4997 6.16176 15.6137 6.03439 15.7401 5.92C15.8733 5.80469 16.0135 5.69782 16.1601 5.6C16.3279 5.4926 16.5096 5.40849 16.7001 5.35C16.9017 5.28331 17.1093 5.23642 17.3201 5.21C17.3569 5.20747 17.3928 5.19768 17.4258 5.18122C17.4588 5.16475 17.4882 5.14192 17.5124 5.11404C17.5366 5.08617 17.555 5.05379 17.5666 5.01877C17.5782 4.98376 17.5828 4.94679 17.5801 4.91C17.5789 4.87272 17.57 4.83608 17.554 4.8024C17.538 4.76871 17.5152 4.73871 17.487 4.71428C17.4588 4.68985 17.4259 4.67153 17.3903 4.66047C17.3546 4.6494 17.3171 4.64584 17.2801 4.65C16.9844 4.64974 16.6895 4.6799 16.4001 4.74C16.1945 4.78853 15.9936 4.85547 15.8001 4.94C15.6038 5.03517 15.4135 5.14203 15.2301 5.26C15.0423 5.38917 14.8651 5.53295 14.7001 5.69C14.4481 5.95419 14.256 6.2696 14.1369 6.61474C14.0178 6.95988 13.9746 7.32663 14.0101 7.69C13.8901 7.77 13.7701 7.84 13.6601 7.93C13.623 7.95077 13.5905 7.9787 13.5644 8.01215C13.5383 8.04561 13.5191 8.08393 13.5079 8.12487C13.4968 8.16582 13.4938 8.20858 13.4994 8.25067C13.5049 8.29275 13.5187 8.33332 13.5401 8.37C13.5598 8.40668 13.5868 8.43899 13.6194 8.465C13.6519 8.49101 13.6894 8.51019 13.7295 8.52139C13.7697 8.5326 13.8117 8.53559 13.853 8.53019C13.8943 8.5248 13.9341 8.51113 13.9701 8.49L14.1801 8.42C14.1801 8.53 14.2601 8.63 14.3101 8.74C14.4601 9.02695 14.6523 9.28985 14.8801 9.52C14.7601 9.6 14.6601 9.68 14.5401 9.75C14.4663 9.78304 14.4072 9.84203 14.374 9.91577C14.3408 9.9895 14.3358 10.0729 14.3601 10.15Z" fill="black"/>
<path fill-rule="evenodd" clip-rule="evenodd" d="M23.87 17.65L22.77 16.93L21.29 16.09L20.91 15.89C20.7966 15.842 20.6711 15.8306 20.5509 15.8575C20.4308 15.8844 20.3221 15.9482 20.24 16.04C20.05 16.29 19.86 16.53 19.68 16.78C19.5 17.03 19.18 17.54 18.9 17.9C18.62 18.26 18.51 18.4 18.28 18.65C18.2454 18.6734 18.2162 18.7041 18.1945 18.7399C18.1728 18.7757 18.1591 18.8157 18.1543 18.8573C18.1496 18.8988 18.1539 18.9409 18.1669 18.9807C18.18 19.0205 18.2015 19.0569 18.2299 19.0876C18.2584 19.1182 18.2932 19.1424 18.3319 19.1583C18.3705 19.1743 18.4122 19.1817 18.454 19.18C18.4958 19.1783 18.5368 19.1676 18.5741 19.1487C18.6113 19.1297 18.6441 19.1028 18.67 19.07C19.1391 18.7466 19.5836 18.3889 20 18C20.24 17.75 20.48 17.49 20.71 17.22C20.8786 18.2022 20.6638 19.2116 20.11 20.04C19.8889 20.3865 19.6157 20.6968 19.3 20.96C19.0029 21.2252 18.6653 21.4413 18.3 21.6C17.8513 21.7914 17.3627 21.8705 16.8765 21.8304C16.3904 21.7903 15.9213 21.6323 15.51 21.37C15.4798 21.3483 15.4456 21.3328 15.4094 21.3244C15.3732 21.3159 15.3357 21.3147 15.2991 21.3207C15.225 21.3329 15.1588 21.374 15.115 21.435C15.0713 21.496 15.0535 21.5719 15.0657 21.646C15.0779 21.72 15.119 21.7862 15.18 21.83C15.6472 22.2391 16.2114 22.5219 16.8187 22.6514C17.4261 22.7809 18.0565 22.7529 18.65 22.57C19.1516 22.3876 19.6109 22.1052 20 21.74C20.4079 21.3967 20.7472 20.9794 21 20.51C21.5334 19.514 21.6726 18.3539 21.39 17.26L22.39 17.67L23.51 18.18C23.5439 18.2045 23.5823 18.2218 23.6231 18.2311C23.6638 18.2403 23.706 18.2412 23.7471 18.2338C23.7882 18.2263 23.8273 18.2106 23.8622 18.1876C23.8971 18.1646 23.9269 18.1348 23.95 18.1C23.9973 18.0292 24.0154 17.9428 24.0005 17.8589C23.9856 17.775 23.9389 17.7002 23.87 17.65Z" fill="black"/>
<path fill-rule="evenodd" clip-rule="evenodd" d="M3.09003 10C3.20313 10.0496 3.3291 10.0618 3.44961 10.0348C3.57011 10.0078 3.67886 9.94307 3.76003 9.85C3.95003 9.6 4.14003 9.36 4.32003 9.11C4.50003 8.86 4.82003 8.36 5.10003 7.99C5.38003 7.62 5.49003 7.49 5.72003 7.24C5.77138 7.18608 5.80003 7.11447 5.80003 7.04C5.80003 6.96554 5.77138 6.89392 5.72003 6.84C5.6634 6.79008 5.59051 6.76254 5.51503 6.76254C5.43954 6.76254 5.36665 6.79008 5.31003 6.84C4.84741 7.19633 4.40972 7.58391 4.00003 8C3.76003 8.24 3.52003 8.51 3.29003 8.77C3.12096 7.79102 3.33587 6.78455 3.89003 5.96C4.12293 5.59867 4.40956 5.27495 4.74003 5C5.03755 4.73791 5.37517 4.52521 5.74003 4.37C6.18793 4.17715 6.6761 4.09639 7.16225 4.13473C7.6484 4.17306 8.11788 4.32933 8.53003 4.59C8.59103 4.63376 8.66691 4.6515 8.74099 4.63931C8.81506 4.62712 8.88127 4.586 8.92503 4.525C8.96879 4.464 8.98652 4.38812 8.97433 4.31404C8.96214 4.23996 8.92103 4.17376 8.86003 4.13C8.39746 3.72685 7.83977 3.44826 7.23962 3.32053C6.63947 3.1928 6.01667 3.22015 5.43003 3.4C4.904 3.557 4.41682 3.82274 4.00003 4.18C3.59216 4.52332 3.25287 4.94065 3.00003 5.41C2.466 6.40937 2.32681 7.57286 2.61003 8.67L1.61003 8.26L0.500026 7.74C0.430762 7.69324 0.345954 7.67543 0.263731 7.69038C0.181509 7.70533 0.108397 7.75185 0.0600257 7.82C0.0116455 7.88964 -0.00807302 7.97522 0.00496032 8.05901C0.0179937 8.1428 0.0627786 8.21835 0.130026 8.27L1.23003 9L2.71003 9.84L3.09003 10Z" fill="black"/>
</g>
<defs>
<clipPath id="clip0_1049_7770">
<rect width="24" height="24" fill="white"/>
</clipPath>
</defs>
</svg>
