<svg width="24" height="24" viewBox="0 0 24 24" fill="none" xmlns="http://www.w3.org/2000/svg">
<g clip-path="url(#clip0_1030_1964)">
<path fill-rule="evenodd" clip-rule="evenodd" d="M0.500003 15.77C0.707401 15.8709 0.930693 15.9352 1.16 15.96C1.95 16.07 3.63 16.2 5.31 16.27C6.90309 16.3902 8.50413 16.3533 10.09 16.16C10.2993 16.0811 10.478 15.9375 10.6 15.75C10.7575 15.4581 10.84 15.1317 10.84 14.8C10.84 14.37 10.9 13.95 10.91 13.52C10.92 13.09 10.91 12.66 10.91 12.23L10.69 3.71L10.53 1.59C10.5547 1.35063 10.5547 1.10937 10.53 0.87C10.5005 0.684365 10.413 0.512836 10.28 0.38C9.9863 0.217931 9.65542 0.135212 9.32 0.14C8.08 0.05 5.37 0 3.25 0H0.150003C0.0412768 0.623932 0.0177286 1.25973 0.0800029 1.89C0.100003 4.81 0.140003 11.21 0.210003 14V15.24C0.215695 15.3444 0.244698 15.4462 0.294881 15.5379C0.345065 15.6296 0.415154 15.7089 0.500003 15.77ZM1.32 0.77C3.19 0.77 7.32 0.89 9.06 1.04C9.22 1.04 9.39 1.04 9.52 1.1C9.52 1.23 9.68 3.75 9.68 3.75V9.75C9.68 10.61 9.68 11.47 9.74 12.32V13.54C9.74 13.95 9.74 14.35 9.67 14.76C9.67 14.85 9.67 15.05 9.62 15.13C8.49955 15.2306 7.37332 15.2507 6.25 15.19C4.69 15.11 3 15 1.92 15C1.70463 14.9674 1.49103 14.924 1.28 14.87C1.28 14.65 1.28 14.36 1.23 14.02C1.09 11.18 0.840003 4.79 0.730003 1.87L0.690003 0.75L1.32 0.77Z" fill="black"/>
<path fill-rule="evenodd" clip-rule="evenodd" d="M23.53 8.12998C23.4058 7.93643 23.2186 7.79163 23 7.71998C21.3856 7.51062 19.7551 7.45371 18.13 7.54998C16.41 7.54998 14.7 7.68998 13.89 7.79998C13.6535 7.81334 13.4222 7.87457 13.21 7.97998C13.1265 8.04252 13.0593 8.12424 13.0141 8.21822C12.9688 8.31221 12.9468 8.41571 12.95 8.51998V9.75998V21.98V23.34C12.9372 23.4155 12.9443 23.493 12.9706 23.5649C12.9969 23.6368 13.0415 23.7006 13.1 23.75C13.3 23.98 14.99 23.84 16.1 23.84C18.22 23.84 20.93 23.84 22.17 23.73C22.4974 23.7314 22.8202 23.6524 23.11 23.5C23.2461 23.3681 23.3371 23.1966 23.37 23.01C23.3846 22.7702 23.3846 22.5298 23.37 22.29L23.52 20.17L23.74 11.65V10.36C23.74 9.92998 23.74 9.50998 23.67 9.07998C23.7012 8.75664 23.6531 8.43058 23.53 8.12998ZM22.61 20.13L22.51 22.28C22.51 22.39 22.41 22.65 22.46 22.78C22.33 22.78 22.16 22.83 21.99 22.84C20.21 22.99 16.12 23.07 14.26 23.11H13.62V21.97C13.69 19.03 13.85 12.58 13.95 9.76998V8.91998C14.1636 8.86231 14.3807 8.81889 14.6 8.78998C15.7 8.71998 17.44 8.67998 19.04 8.66998C20.1843 8.63257 21.3298 8.66597 22.47 8.76998C22.4 8.85998 22.54 9.04998 22.54 9.14998C22.54 9.55998 22.6 9.96998 22.61 10.37C22.62 10.77 22.61 11.18 22.61 11.59C22.61 12.44 22.61 13.3 22.56 14.16C22.61 16.16 22.64 18.15 22.61 20.14V20.13Z" fill="black"/>
<path fill-rule="evenodd" clip-rule="evenodd" d="M11.27 18.74C11.2613 18.5258 11.2412 18.3121 11.21 18.1C11.179 17.9546 11.11 17.82 11.01 17.71C10.8705 17.6022 10.7049 17.5332 10.53 17.51H8.82001C6.35001 17.51 2.18002 17.77 1.53002 17.81C1.53002 17.81 0.530016 17.67 0.440016 17.96C0.440016 18.03 0.330016 19.73 0.330016 19.82V22.44C0.299826 22.6924 0.299826 22.9476 0.330016 23.2C0.352406 23.3936 0.440669 23.5737 0.580016 23.71C0.843223 23.8567 1.13873 23.9357 1.44002 23.94C2.51002 24 4.87002 24 7.00002 24C8.58002 24 10 23.87 10.7 23.82H11.1C11.2078 23.8098 11.3109 23.771 11.3988 23.7078C11.4867 23.6445 11.5561 23.559 11.6 23.46C11.724 22.9394 11.7512 22.4004 11.68 21.87C11.58 20.67 11.32 19.2 11.27 18.74ZM10 22.65C8.29002 22.77 4.82002 22.99 2.68002 23.02C2.07002 23.02 1.52002 23.12 1.20002 23.09C1.13541 22.866 1.10838 22.6328 1.12002 22.4L1.00002 19.79V18.59V18.5H1.57002C2.31002 18.5 7.57002 18.4 9.72002 18.5C9.85528 18.5038 9.98958 18.524 10.12 18.56C10.12 18.67 10.18 18.79 10.18 18.84C10.18 19.24 10.38 20.41 10.48 21.45C10.48 21.89 10.57 22.31 10.57 22.59L10 22.65Z" fill="black"/>
<path fill-rule="evenodd" clip-rule="evenodd" d="M23.78 0.389998C23.7347 0.292503 23.6628 0.209789 23.5726 0.151399C23.4824 0.0930093 23.3775 0.0613233 23.27 0.0599976H22.87H19.17C17.05 0.0599976 14.69 0.189998 13.6 0.339998C13.2991 0.352952 13.0066 0.44244 12.75 0.599998C12.6185 0.743519 12.5377 0.926178 12.52 1.12C12.4983 1.37287 12.4983 1.62713 12.52 1.88L12.65 4.5L12.72 5.7C12.72 5.7 12.72 6.4 12.94 6.59C13.16 6.78 21.23 6.46 21.23 6.46C21.798 6.45778 22.3656 6.4244 22.93 6.36C23.1061 6.33878 23.2709 6.26168 23.4 6.14C23.5038 6.02993 23.5702 5.88998 23.59 5.74C23.6034 5.52687 23.6034 5.31312 23.59 5.1C23.59 4.64 23.82 3.16 23.87 2.02C23.9498 1.47614 23.9192 0.921762 23.78 0.389998ZM22.78 2.39C22.78 3.39 22.62 4.61 22.59 5.01C22.59 5.01 22.59 5.18 22.54 5.29C22.4124 5.3272 22.2819 5.35395 22.15 5.37C20.01 5.56 14.74 5.69 14 5.71H13.44C13.436 5.68013 13.436 5.64987 13.44 5.62V4.42V1.81C13.44 1.7 13.49 1.21 13.55 1.2C13.86 1.2 14.36 1.14 14.97 1.12C17.12 1.07 20.59 1.12 22.3 1.19H22.86C22.79 1.49 22.76 1.91 22.74 2.36L22.78 2.39Z" fill="black"/>
</g>
<defs>
<clipPath id="clip0_1030_1964">
<rect width="24" height="24" fill="white"/>
</clipPath>
</defs>
</svg>
