<svg width="24" height="24" viewBox="0 0 24 24" fill="none" xmlns="http://www.w3.org/2000/svg">
<g clip-path="url(#clip0_1044_5245)">
<path fill-rule="evenodd" clip-rule="evenodd" d="M21.73 0.869993C21.58 -7.39098e-06 20.11 -0.0600074 19.24 -7.41892e-06C17.7 0.179993 15.82 0.829993 15 0.999993C14.916 1.01005 14.8391 1.05197 14.7851 1.11711C14.7312 1.18224 14.7043 1.2656 14.71 1.34999C14.77 1.96999 15.82 1.42999 18.71 1.23999C19.1383 1.19328 19.5696 1.1799 20 1.19999C16.602 3.66087 13.4204 6.40752 10.49 9.40999C10.19 9.68999 9.75 9.92999 10.03 10.19C10.1 10.37 10.25 10.53 10.47 10.36C14.0442 7.83775 17.3904 5.00691 20.47 1.89999C20.0918 3.56153 19.6006 5.19532 19 6.78999C18.9284 6.85497 18.8855 6.94573 18.8808 7.04231C18.8762 7.1389 18.91 7.23338 18.975 7.30499C19.04 7.3766 19.1307 7.41946 19.2273 7.42415C19.3239 7.42884 19.4184 7.39497 19.49 7.32999C19.7 7.08999 22 2.16999 21.73 0.869993Z" fill="black"/>
<path fill-rule="evenodd" clip-rule="evenodd" d="M12.36 14.53C10.9213 15.4635 9.54197 16.4855 8.23 17.59C7.36 18.31 6.5 19.12 5.72 19.84C3.49 21.92 3.72 21.92 3.72 21.69C4.78 15.69 4.82 17 4.67 16.69C4.63965 16.6314 4.59243 16.5833 4.53443 16.5518C4.47644 16.5203 4.41034 16.5069 4.34467 16.5134C4.279 16.5198 4.21678 16.5458 4.16603 16.588C4.11528 16.6302 4.07835 16.6866 4.06 16.75C3.42195 18.4682 2.8811 20.221 2.44 22C2.12 23.35 2.06 24.08 3.44 23.94C4.44 23.84 9.84 22.73 10.29 22.3C10.3554 22.2312 10.3919 22.1399 10.3919 22.045C10.3919 21.9501 10.3554 21.8588 10.29 21.79C9.51298 21.8041 8.74191 21.9286 8 22.16C6.53 22.4 4.9 22.63 3.87 22.73C5.25 21.62 6.09 21 7.12 20.17C10.05 17.79 12.34 15.32 12.68 15.1C12.7239 15.0828 12.7637 15.0564 12.7965 15.0225C12.8294 14.9887 12.8546 14.9481 12.8705 14.9037C12.8864 14.8593 12.8925 14.8119 12.8885 14.7649C12.8846 14.7179 12.8706 14.6723 12.8475 14.6311C12.8244 14.59 12.7927 14.5543 12.7546 14.5264C12.7166 14.4985 12.673 14.4792 12.6268 14.4696C12.5806 14.46 12.5328 14.4604 12.4868 14.4708C12.4408 14.4813 12.3976 14.5014 12.36 14.53Z" fill="black"/>
</g>
<defs>
<clipPath id="clip0_1044_5245">
<rect width="24" height="24" fill="white"/>
</clipPath>
</defs>
</svg>
