<svg width="24" height="24" viewBox="0 0 24 24" fill="none" xmlns="http://www.w3.org/2000/svg">
<path fill-rule="evenodd" clip-rule="evenodd" d="M4.2 11.51C4.23268 11.5469 4.27371 11.5755 4.31966 11.5934C4.36562 11.6113 4.41518 11.618 4.46424 11.6129C4.51329 11.6078 4.56042 11.591 4.6017 11.5641C4.64299 11.5371 4.67725 11.5007 4.70162 11.4578C4.726 11.4149 4.7398 11.3668 4.74187 11.3176C4.74394 11.2683 4.73423 11.2192 4.71353 11.1745C4.69284 11.1297 4.66176 11.0905 4.62288 11.0602C4.58401 11.0298 4.53845 11.0092 4.49 11C3.87916 10.5899 3.36963 10.0462 3 9.41C2 8.04 1.61 6.79 2.6 5.41C2.9473 4.96795 3.38652 4.60665 3.88725 4.3511C4.38798 4.09556 4.93826 3.95188 5.5 3.93C7.41 3.71 8.77 4.08 14.31 4.86C14.3902 4.86835 14.4713 4.85988 14.5481 4.83512C14.6248 4.81037 14.6956 4.76988 14.7558 4.71624C14.816 4.6626 14.8644 4.59699 14.8978 4.5236C14.9313 4.45021 14.949 4.37065 14.95 4.29C14.95 3.63 15.16 1.62 15.74 1.29C16.06 1.11 16.18 1.51 16.74 1.97C17.3 2.43 18.08 3.23 18.84 4C20.84 6 20.62 5.82 20.53 5.94C19.2681 7.56913 17.7358 8.96948 16 10.08C15.8586 10.1596 15.7073 10.2201 15.55 10.26C15.55 10.16 15.48 10.01 15.48 9.9C15.5327 9.33604 15.4179 8.76906 15.15 8.27C14.97 7.91 14.35 7.87 13.66 7.73C12.2034 7.4535 10.7224 7.32618 9.24 7.35C8.10031 7.27516 6.95636 7.29523 5.82 7.41C4.38 7.65 4.07 8.74 4.64 10C4.65838 10.0427 4.68499 10.0813 4.71831 10.1137C4.75163 10.1461 4.791 10.1716 4.83418 10.1888C4.87736 10.206 4.9235 10.2145 4.96997 10.2138C5.01644 10.2132 5.06232 10.2034 5.105 10.185C5.14768 10.1666 5.18632 10.14 5.21871 10.1067C5.25111 10.0734 5.27662 10.034 5.2938 9.99082C5.31098 9.94764 5.31949 9.9015 5.31884 9.85503C5.31818 9.80856 5.30838 9.76268 5.29 9.72C4.48 7.83 6.12 8 9.19 8.19C10.6251 8.20084 12.0555 8.35493 13.46 8.65C13.54 8.65 14.17 9.03 14.38 8.94C14.59 9.51 14.33 10.46 14.63 10.94C15.72 12.59 19.69 8.67 21.04 7.16C21.51 6.62 22.04 6.16 21.84 5.63C21.55 4.89 18.16 1.68 17.45 1.06C16.92 0.590001 16.31 -0.449999 15.11 0.220001C14.11 0.760002 13.87 2.48 13.79 3.6L11 3.28C7.83 2.84 3.66 2.2 1.88 4.92C0.749998 6.64 1.14 8.2 2.41 9.82C2.86575 10.516 3.47896 11.095 4.2 11.51Z" fill="black"/>
<path fill-rule="evenodd" clip-rule="evenodd" d="M22.74 17.32C22.2816 15.6723 21.2357 14.2494 19.8 13.32C19.7281 13.2972 19.6505 13.3006 19.5808 13.3295C19.5112 13.3584 19.454 13.411 19.4193 13.4779C19.3846 13.5449 19.3747 13.6219 19.3913 13.6955C19.4079 13.7691 19.4499 13.8344 19.51 13.88C20.1345 14.2728 20.6612 14.8029 21.05 15.43C22.05 16.82 22.43 18.06 21.45 19.43C21.1032 19.8725 20.664 20.2342 20.1632 20.4898C19.6624 20.7454 19.1119 20.8888 18.55 20.91C16.64 21.13 15.23 20.76 9.75 19.98C9.669 19.9701 9.58684 19.9775 9.50888 20.0016C9.43092 20.0256 9.35891 20.0659 9.29756 20.1197C9.23622 20.1735 9.18691 20.2396 9.15287 20.3138C9.11882 20.3879 9.10081 20.4684 9.1 20.55C9.04 21.45 9.03 22.45 8.48 22.81C6.53572 22.1978 4.803 21.0507 3.48 19.5C3.18 19.05 3.17 18.9 3.48 18.34C4.78791 16.6901 6.34692 15.256 8.1 14.09C8.31 13.95 8.59 13.87 8.72 13.79C8.72 14.79 8.48 15.79 8.86 16.56C9.05 16.92 9.64 16.95 10.35 17.1C11.8067 17.3761 13.2876 17.5034 14.77 17.48C15.9097 17.555 17.0536 17.5349 18.19 17.42C19.61 17.18 19.94 16.11 19.36 14.79C19.3229 14.7038 19.253 14.6359 19.1658 14.6012C19.0786 14.5665 18.9812 14.5679 18.895 14.605C18.8088 14.6421 18.7409 14.712 18.7062 14.7992C18.6715 14.8864 18.6729 14.9838 18.71 15.07C19.52 17 17.88 16.81 14.81 16.64C13.378 16.6336 11.9504 16.4794 10.55 16.18C10.47 16.18 9.89 15.84 9.65 15.88C9.48 14.67 10.39 12.51 8.65 12.64C7.76 12.7 2.12 17 2.11 19C2.1 21 7.73 24.61 9 23.91C10 23.35 10.14 22.36 10.22 21.22L12.98 21.55C16.2 21.99 20.35 22.63 22.13 19.91C22.6654 19.1602 22.8845 18.2299 22.74 17.32Z" fill="black"/>
</svg>
