<svg width="24" height="24" viewBox="0 0 24 24" fill="none" xmlns="http://www.w3.org/2000/svg">
<g clip-path="url(#clip0_1034_4230)">
<path d="M18.44 18.07C17.79 18.2 17.29 18.99 17.83 19.53C17.9941 19.6848 18.193 19.798 18.41 19.86C20.12 20.24 19.92 17.77 18.44 18.07Z" fill="black"/>
<path d="M23.91 20.0001C23.3451 19.504 22.7202 19.0807 22.05 18.7401C22.91 18.1601 23.65 17.87 23.64 17.13C23.5545 16.3427 23.2016 15.6085 22.64 15.0501C21.95 14.5501 21.48 14.9401 20.5 15.5101C20.5 14.6901 20.6 14.0201 19.94 13.6101C19.2228 13.2393 18.413 13.0864 17.61 13.1701C16.56 13.4101 16.61 14.3201 16.61 15.5601L15.55 15.0001C14.44 14.4301 13.62 15.5701 13.29 16.7601C13.06 17.6301 13.39 17.9601 14.16 18.4401C14.93 18.9201 14.43 18.5201 14.57 19.3901C12.77 20.6001 13.02 20.3901 13.88 22.1101C14.1039 22.4078 14.374 22.6677 14.68 22.88C14.9092 22.984 15.1629 23.0212 15.4123 22.9876C15.6617 22.954 15.8965 22.8509 16.09 22.6901C16.86 22.2201 16.75 22.05 16.76 22.4001C16.77 22.7501 16.7 23.4001 17.05 23.6001C17.62 23.9501 19.67 24.08 20.05 23.39C20.26 23.0301 20.28 23.0201 20.22 22.4501C20.2134 22.3678 20.1744 22.2916 20.1115 22.2382C20.0487 22.1847 19.9672 22.1584 19.885 22.1651C19.8028 22.1717 19.7266 22.2107 19.6731 22.2735C19.6197 22.3363 19.5934 22.4178 19.6 22.5001C19.6 22.9801 19.6 22.8201 19.49 23.0601C19.38 23.3 17.84 22.9501 17.58 22.9101V21.39C17.5801 21.3155 17.5599 21.2424 17.5216 21.1785C17.4832 21.1146 17.4282 21.0623 17.3624 21.0274C17.2965 20.9924 17.2224 20.9761 17.148 20.9801C17.0736 20.984 17.0017 21.0082 16.94 21.0501C16.45 21.3701 15.67 22.0501 15.21 22.1101C14.75 22.1701 14.47 20.9001 14.36 20.6901C14.89 20.4601 14.36 20.8001 15.49 20.0701C15.5894 20.0051 15.6641 19.9088 15.7022 19.7963C15.7402 19.6839 15.7395 19.562 15.7 19.4501C15.48 18.7801 15.96 18.4501 15.51 18.0601C14.65 17.3801 14.9 17.5701 14.4 17.2001C14.4867 16.8161 14.6537 16.4549 14.89 16.1401C14.89 16.0901 14.96 16.0201 15.02 16.0501C17.02 17.3101 16.75 17.2501 17.43 16.9901C18.11 16.7301 17.8 14.4001 17.9 14.3801C18.3919 14.3925 18.8771 14.4977 19.33 14.6901C19.39 16.9101 19.52 16.9101 19.76 17.0301C19.8463 17.0811 19.9447 17.108 20.045 17.108C20.1453 17.108 20.2437 17.0811 20.33 17.0301C22.09 15.9201 21.99 15.9601 22.1 16.0301C22.21 16.1001 22.39 16.3401 22.68 17.2101C21.34 18.2101 21.21 18.2101 21.17 18.4901C21.04 19.4901 20.88 19.1901 23.17 20.4901C23.084 21.0633 22.7926 21.5857 22.35 21.96C21.7423 21.6712 21.1573 21.3369 20.6 20.9601C20.5619 20.9338 20.519 20.9153 20.4738 20.9056C20.4286 20.8959 20.3819 20.8952 20.3364 20.9036C20.2909 20.9119 20.2475 20.9292 20.2086 20.9543C20.1698 20.9794 20.1363 21.012 20.11 21.0501C20.0837 21.0881 20.0652 21.131 20.0555 21.1763C20.0458 21.2215 20.0452 21.2682 20.0535 21.3137C20.0619 21.3592 20.0791 21.4026 20.1042 21.4414C20.1294 21.4803 20.1619 21.5138 20.2 21.5401C20.794 21.9803 21.4227 22.3716 22.08 22.71C23 23 24.33 20.8401 23.91 20.0001Z" fill="black"/>
<path fill-rule="evenodd" clip-rule="evenodd" d="M17 7.00003C16.77 2.70003 16.9 3.00003 16.9 3.00003C16.9 1.22003 13.36 -0.0699712 13.36 0.900029C13.36 0.988496 13.3944 1.0735 13.456 1.13698C13.5176 1.20046 13.6016 1.23743 13.69 1.24003C14.2506 1.29955 14.7854 1.50658 15.24 1.84003C16.83 2.94003 16.05 3.97003 14.24 4.56003C12.24 5.22003 5.56 5.56003 3.16 4.48003C2.48971 4.25107 1.89488 3.84299 1.44 3.30003C1.11 2.71003 2.17 2.17003 2.28 2.10003C3.61387 1.40919 5.08821 1.03291 6.59 1.00003C10.49 0.720029 11.59 1.36003 11.59 0.720029C11.5927 0.680614 11.5876 0.64105 11.575 0.60361C11.5624 0.56617 11.5425 0.53159 11.5165 0.501857C11.4905 0.472123 11.4588 0.447822 11.4234 0.430347C11.388 0.412873 11.3494 0.402569 11.31 0.400029C8.81 0.200029 5.21 -0.159971 2.69 0.810029C1.61 1.23003 0.110002 2.00003 0.290002 3.25003C1.90735e-06 5.11003 0.220002 7.77003 0.130002 8.90003C-0.0490582 11.7213 -0.0290085 14.5516 0.190002 17.37C0.293434 18.3414 0.748727 19.2413 1.47 19.9C3.72 21.79 8.84 21.66 11.67 20.9C11.7588 20.8801 11.8362 20.8258 11.8849 20.7489C11.9337 20.672 11.9499 20.5789 11.93 20.49C11.9101 20.4012 11.8557 20.3239 11.7788 20.2751C11.702 20.2264 11.6088 20.2101 11.52 20.23C9.08978 20.7483 6.56779 20.6416 4.19 19.92C3.46835 19.7722 2.78651 19.4722 2.19 19.04C1.83208 18.7254 1.55124 18.3327 1.36919 17.8923C1.18713 17.4519 1.10872 16.9756 1.14 16.5C1 15.46 0.820002 5.36003 0.830002 4.31003C3 6.60003 7 6.30003 9.8 6.20003C11.69 6.11003 14.59 5.81003 16.05 4.58003C15.9843 6.70172 16.0444 8.82545 16.23 10.94C16.222 10.9833 16.2236 11.0278 16.2347 11.0704C16.2459 11.113 16.2662 11.1526 16.2944 11.1865C16.3225 11.2203 16.3578 11.2475 16.3977 11.2662C16.4375 11.2849 16.481 11.2946 16.525 11.2946C16.569 11.2946 16.6125 11.2849 16.6524 11.2662C16.6922 11.2475 16.7275 11.2203 16.7556 11.1865C16.7838 11.1526 16.8041 11.113 16.8153 11.0704C16.8264 11.0278 16.828 10.9833 16.82 10.94C17.0192 9.63676 17.0796 8.31603 17 7.00003Z" fill="black"/>
<path fill-rule="evenodd" clip-rule="evenodd" d="M9.39 8.72006C6.99782 8.66913 4.61206 8.45194 2.25 8.07006C1.63 7.82006 1.13 8.39006 1.98 8.73006C4.15506 9.41483 6.4312 9.7226 8.71 9.64006C11.05 9.64006 13.57 9.33006 15.35 8.20006C15.75 7.95006 15.82 7.42006 14.94 7.59006C13.1826 8.3289 11.2964 8.71293 9.39 8.72006Z" fill="black"/>
<path fill-rule="evenodd" clip-rule="evenodd" d="M6.22001 13.71C8.18091 13.9875 10.1777 13.865 12.09 13.35C13.1318 13.0989 14.1518 12.7645 15.14 12.35C15.2166 12.3122 15.2762 12.247 15.3069 12.1672C15.3376 12.0875 15.3371 11.9991 15.3056 11.9197C15.2741 11.8403 15.2138 11.7757 15.1368 11.7387C15.0598 11.7017 14.9717 11.695 14.89 11.72C11.22 13.15 4.77001 13.05 1.89001 11.72C1.33001 11.55 1.42001 12.18 1.89001 12.49C3.24816 13.154 4.71501 13.5673 6.22001 13.71Z" fill="black"/>
<path fill-rule="evenodd" clip-rule="evenodd" d="M6.3 17.5701C8.1156 17.7218 9.94305 17.5006 11.67 16.9201C11.714 16.9095 11.7555 16.8905 11.7921 16.8639C11.8287 16.8374 11.8598 16.8039 11.8835 16.7654C11.9071 16.7268 11.923 16.684 11.9301 16.6393C11.9372 16.5947 11.9355 16.549 11.925 16.5051C11.9145 16.4611 11.8954 16.4196 11.8689 16.3829C11.8423 16.3463 11.8089 16.3153 11.7703 16.2916C11.7318 16.2679 11.689 16.2521 11.6443 16.2449C11.5996 16.2378 11.554 16.2395 11.51 16.2501C9.93795 16.5758 8.32294 16.64 6.73 16.4401C3.6 16.3201 4.73 16.5401 1.96 15.6201C1.46 15.4901 1.33 15.9801 1.96 16.3701C3.28542 17.1222 4.77645 17.5345 6.3 17.5701Z" fill="black"/>
</g>
<defs>
<clipPath id="clip0_1034_4230">
<rect width="24" height="24" fill="white"/>
</clipPath>
</defs>
</svg>
