<svg width="24" height="24" viewBox="0 0 24 24" fill="none" xmlns="http://www.w3.org/2000/svg">
<g clip-path="url(#clip0_1044_5264)">
<path fill-rule="evenodd" clip-rule="evenodd" d="M22.63 9.60999C22.51 8.95999 22.58 7.75999 21.7 7.40999C20 6.73999 16.19 6.99999 13.88 6.99999C10.73 6.99999 7.46001 7.17999 4.37001 7.28999C4.27983 7.28999 4.19335 7.32582 4.12959 7.38958C4.06583 7.45334 4.03001 7.53982 4.03001 7.62999C4.03001 7.72017 4.06583 7.80665 4.12959 7.87041C4.19335 7.93417 4.27983 7.96999 4.37001 7.96999C6.80001 7.96999 19.3 7.55999 21.28 8.38999C21.61 8.51999 21.78 13.8 21.28 15.39C19.17 16 5.06001 17 2.61001 16.08C2.52001 16.08 2.45001 16.08 2.43001 16.01C1.98013 14.5338 1.86736 12.9755 2.10001 11.45L2.55001 8.99999C2.91001 7.84999 2.85001 7.86999 2.80001 7.78999C2.65001 7.49999 2.24001 7.59999 2.07001 8.07999C2.01246 8.32395 1.96906 8.57103 1.94001 8.81999C1.86254 9.06958 1.7991 9.32331 1.75001 9.57999C1.33664 11.1307 1.1779 12.7383 1.28001 14.34C1.30263 15.0529 1.4481 15.7566 1.71001 16.42C2.71001 18.25 21.11 17.23 22.21 16.3C22.92 15.69 22.79 10.54 22.63 9.60999Z" fill="black"/>
<path fill-rule="evenodd" clip-rule="evenodd" d="M9.78 3.3C10.09 3.3 10.55 2.61 10.63 2.53L11.47 1.74C11.3467 2.32921 11.2765 2.92827 11.26 3.53C11.26 4.36 11.44 5.4 11.42 5.53C11.4099 5.60205 11.4254 5.67537 11.4639 5.73712C11.5024 5.79887 11.5613 5.84511 11.6305 5.86776C11.6996 5.89041 11.7745 5.88802 11.8421 5.86101C11.9096 5.834 11.9655 5.78408 12 5.72C12.2122 5.07156 12.3465 4.40018 12.4 3.72C12.4324 3.01234 12.4056 2.30321 12.32 1.6C12.79 1.98 13.32 2.43 13.66 2.7C13.74 2.77 13.79 2.87 13.82 2.85C13.97 3.15 14.61 3.07 14.34 2.53C13.7685 1.65831 13.0973 0.856233 12.34 0.140002C12.1895 0.0264086 12.0004 -0.0236081 11.8134 0.000700515C11.6265 0.0250091 11.4565 0.121703 11.34 0.270002C10.5788 1.08401 9.93891 2.00346 9.44 3C9.44984 3.08308 9.48996 3.15961 9.55269 3.21495C9.61542 3.2703 9.69635 3.30058 9.78 3.3Z" fill="black"/>
<path fill-rule="evenodd" clip-rule="evenodd" d="M13.8 21C13.64 21 13.63 21.13 13.43 21.32C13.23 21.51 12.56 22.03 12.09 22.42C12.1754 21.7168 12.2022 21.0077 12.17 20.3C12.1155 19.6191 11.9778 18.9474 11.76 18.3C11.7335 18.2244 11.678 18.1625 11.6058 18.1278C11.5336 18.0931 11.4506 18.0885 11.375 18.115C11.2994 18.1415 11.2375 18.197 11.2028 18.2692C11.1681 18.3414 11.1635 18.4244 11.19 18.5C11.0511 19.4164 11.0142 20.3454 11.08 21.27C11.08 21.65 11.19 21.98 11.24 22.27C10.97 22.02 10.67 21.74 10.4 21.47C10.32 21.39 9.85001 20.7 9.55001 20.7C9.46523 20.6991 9.38302 20.7291 9.31865 20.7842C9.25428 20.8394 9.21212 20.9161 9.20001 21C9.73754 21.9858 10.4108 22.8913 11.2 23.69C11.79 24.25 12.2 23.86 12.78 23.25C13.36 22.64 14.11 21.51 14.15 21.43C14.1927 21.3614 14.2104 21.2801 14.2 21.2C14.12 21.07 14 20.92 13.8 21Z" fill="black"/>
<path fill-rule="evenodd" clip-rule="evenodd" d="M4.00001 14.29C4.09001 14.89 4.67001 14.83 4.77001 14.38C4.77024 14.0227 4.8139 13.6668 4.90001 13.32C4.90001 13.02 4.97001 12.72 5.00001 12.41C5.90392 12.4514 6.8092 12.3672 7.69001 12.16C7.78018 12.1706 7.87088 12.145 7.94214 12.0887C8.0134 12.0324 8.0594 11.9502 8.07001 11.86C8.08062 11.7698 8.05497 11.6791 7.99871 11.6079C7.94245 11.5366 7.86018 11.4906 7.77001 11.48C7.33018 11.2928 6.85528 11.2021 6.37741 11.2142C5.89953 11.2263 5.42982 11.3408 5.00001 11.55C4.9798 10.9699 4.91966 10.3918 4.82001 9.82C5.66911 9.99397 6.54176 10.021 7.40001 9.9C7.48293 9.90748 7.56579 9.88517 7.63374 9.83705C7.70168 9.78894 7.75025 9.71819 7.77073 9.63749C7.7912 9.5568 7.78224 9.47144 7.74546 9.39676C7.70867 9.32207 7.64646 9.26295 7.57001 9.23C7.09297 8.99116 6.57013 8.85773 6.03698 8.83875C5.50383 8.81977 4.97283 8.91569 4.48001 9.12C4.41066 9.12318 4.34438 9.14954 4.2918 9.19487C4.23922 9.2402 4.20337 9.30187 4.19001 9.37C4.19001 9.42 4.02001 10.37 4.01001 10.37C3.84654 11.3179 3.8196 12.2844 3.93001 13.24C3.93001 13.24 4.00001 14 4.00001 14.29Z" fill="black"/>
<path fill-rule="evenodd" clip-rule="evenodd" d="M13.82 9.5C13.82 9.29 13.7 9.14 13.46 9.03C12.1094 8.77295 10.7168 8.84498 9.40001 9.24C9.02001 9.51 9.24001 9.82 9.40001 9.88C9.92848 9.96943 10.4641 10.0096 11 10C10.8272 10.9438 10.8036 11.9089 10.93 12.86C10.93 13.2 11 14.27 11.51 14.21C12.02 14.15 12.15 11.55 11.73 9.93C13.29 9.7 13.82 10.05 13.82 9.5Z" fill="black"/>
<path fill-rule="evenodd" clip-rule="evenodd" d="M16.56 11.89C17.1535 12.0146 17.7665 12.0146 18.36 11.89C19.58 11.49 20.45 9.69001 18.94 8.79001C18.0095 8.4346 16.9806 8.4346 16.05 8.79001C15.4 9.03001 15.41 9.56 15.43 10.19C15.7 13.96 15.63 13.68 15.73 13.92C15.96 14.49 16.56 14.29 16.5 13.92C16.4239 13.2562 16.3971 12.5877 16.42 11.92C16.4683 11.9207 16.5162 11.9105 16.56 11.89ZM17.49 9.66001C17.8036 9.61936 18.1223 9.65363 18.42 9.76001C18.5288 9.80077 18.6181 9.88115 18.67 9.98502C18.7219 10.0889 18.7326 10.2086 18.7 10.32C18.33 11.6 16.82 11.09 16.45 11.23L16.51 10.17C16.52 9.90001 16.16 9.75001 17.49 9.66001Z" fill="black"/>
</g>
<defs>
<clipPath id="clip0_1044_5264">
<rect width="24" height="24" fill="white"/>
</clipPath>
</defs>
</svg>
