<svg width="24" height="24" viewBox="0 0 24 24" fill="none" xmlns="http://www.w3.org/2000/svg">
<path fill-rule="evenodd" clip-rule="evenodd" d="M14.26 19.84C16.0754 19.6318 17.8019 18.9412 19.26 17.84C19.2969 17.815 19.3283 17.7828 19.3525 17.7454C19.3766 17.7079 19.3929 17.666 19.4003 17.6221C19.4078 17.5782 19.4063 17.5332 19.396 17.4899C19.3856 17.4465 19.3665 17.4058 19.34 17.37C19.01 16.89 18.78 17.65 16.63 18.37C15.855 18.6301 15.0469 18.7783 14.23 18.81C9.09999 19.11 7.14999 18.67 4.36999 17.32C4.07999 17.07 3.88999 17.65 4.42999 18.1C8.15999 20.32 10.36 20.2 14.26 19.84Z" fill="black"/>
<path fill-rule="evenodd" clip-rule="evenodd" d="M21.06 6C21.06 5.90983 21.0242 5.82335 20.9604 5.75958C20.8966 5.69582 20.8102 5.66 20.72 5.66C20.6298 5.66 20.5433 5.69582 20.4796 5.75958C20.4158 5.82335 20.38 5.90983 20.38 6C20.38 6 20.46 13.07 20.46 13.54C20.46 14.6 20.69 19.36 20.07 20.07C18.28 22.15 12.91 23.87 7.14999 22.12C6.14041 21.8424 5.18638 21.3924 4.32999 20.79C3.32999 19.93 3.26999 5.79 3.32999 4.46C3.90976 5.06569 4.60289 5.55156 5.36999 5.89C7.65999 6.97 10.74 6.75 13.28 6.66C16.01 6.54 21.11 5.86 21.06 3.14C21.06 1.69 18.86 0.42 17.56 0.44C17.4698 0.44 17.3833 0.475821 17.3196 0.539584C17.2558 0.603346 17.22 0.689826 17.22 0.78C17.22 0.870174 17.2558 0.956654 17.3196 1.02042C17.3833 1.08418 17.4698 1.12 17.56 1.12C18.56 1.12 20.28 2.19 20.27 3.12C20.27 3.76 19.68 4.42 18.18 4.92C16.5799 5.38999 14.9174 5.61256 13.25 5.58C11.06 5.63 7.83999 5.78 5.84999 4.84C4.57999 4.25 3.24999 3.5 4.25999 2.53C5.19999 2 5.99999 1.11 9.70999 0.84C11.8634 0.748112 14.0204 0.781502 16.17 0.94C16.2081 0.948746 16.2476 0.949684 16.2862 0.942757C16.3247 0.935829 16.3614 0.92118 16.3941 0.899692C16.4268 0.878204 16.4548 0.85032 16.4764 0.81772C16.4981 0.78512 16.5129 0.748478 16.52 0.71C16.6 0.34 16.13 0.31 15.75 0.27C15.65 0.26 11.52 0 9.66999 0C8.45731 0.018338 7.25153 0.186274 6.07999 0.5C4.72999 0.89 2.65999 1.84 2.77999 3.34C2.47999 5.57 2.77999 8.29 2.66999 9.77C2.52229 12.9289 2.54566 16.0936 2.73999 19.25C2.83322 20.3046 3.3185 21.2858 4.09999 22C4.90672 22.5963 5.83572 23.0062 6.81999 23.2C13.09 25.12 18.82 23.2 20.82 20.71C21.79 19.6 21.37 15.72 21.06 6Z" fill="black"/>
<path fill-rule="evenodd" clip-rule="evenodd" d="M17.82 14.6C18.5584 14.4351 19.245 14.0917 19.82 13.6C20.26 13.09 19.82 12.76 19.47 13C19.12 13.24 19.37 13.23 17.58 13.78C13.19 15.12 6.58 14.45 4.22 13.25C3.81 12.97 3.69 13.73 4.22 13.99C6.91 15.49 12.67 16.49 17.82 14.6Z" fill="black"/>
<path fill-rule="evenodd" clip-rule="evenodd" d="M7.71999 11C10.6657 11.3355 13.645 11.231 16.56 10.69C17.3879 10.5176 18.1819 10.2102 18.91 9.78C18.9539 9.75972 18.9931 9.7303 19.0247 9.69369C19.0564 9.65708 19.0799 9.61413 19.0936 9.56772C19.1073 9.5213 19.111 9.47249 19.1043 9.42455C19.0977 9.3766 19.0809 9.33063 19.055 9.28971C19.0292 9.24878 18.9949 9.21385 18.9545 9.18724C18.914 9.16064 18.8684 9.14297 18.8206 9.13542C18.7728 9.12788 18.7239 9.13063 18.6772 9.14349C18.6306 9.15635 18.5872 9.17902 18.55 9.21C16.68 10.29 13.09 10.07 11.55 10.03C9.42999 10.03 6.26999 10.59 4.11999 8.91C3.68999 8.8 3.75999 9.36 4.04999 9.73C5.05999 10.62 6.35999 10.72 7.71999 11Z" fill="black"/>
</svg>
