<svg width="24" height="24" viewBox="0 0 24 24" fill="none" xmlns="http://www.w3.org/2000/svg">
<g clip-path="url(#clip0_1044_5276)">
<path fill-rule="evenodd" clip-rule="evenodd" d="M9.18 -6.6869e-07C7.5 0.459999 6.28 3.46 5.57 4.43C5.53929 4.48883 5.52895 4.55618 5.5406 4.62151C5.55226 4.68684 5.58524 4.74646 5.6344 4.79105C5.68355 4.83563 5.7461 4.86266 5.81226 4.8679C5.87841 4.87313 5.94444 4.85629 6 4.82C6.92337 3.6087 7.92554 2.45954 9 1.38C8.53462 4.98005 8.38738 8.6141 8.56 12.24C8.56 12.65 8.48 13.02 8.79 12.99C9.22 13.16 9.17 12.76 9.22 12.27C9.68672 8.77401 9.84066 5.24335 9.68 1.72C10.5538 2.86965 11.3458 4.0793 12.05 5.34C12.05 5.43017 12.0858 5.51665 12.1496 5.58042C12.2133 5.64418 12.2998 5.68 12.39 5.68C12.4802 5.68 12.5667 5.64418 12.6304 5.58042C12.6942 5.51665 12.73 5.43017 12.73 5.34C12.73 5 10.73 0.689999 9.73 0.0899993C9.56468 -0.00856349 9.36812 -0.0407282 9.18 -6.6869e-07Z" fill="black"/>
<path fill-rule="evenodd" clip-rule="evenodd" d="M14.53 12.45C14.2785 13.8817 14.1182 15.328 14.05 16.78C14 17.78 14.05 18.78 14.05 19.64C14.05 22.4 14.25 22.23 13.96 21.89C10.85 18.17 11.33 18.46 11.13 18.41C10.93 18.36 10.63 18.47 10.79 18.88C11.577 20.2999 12.4417 21.6753 13.38 23C14.11 24 14.55 24.43 15.31 23.5C15.88 22.8 18.52 18.73 18.51 18.17C18.51 18.0798 18.4742 17.9934 18.4104 17.9296C18.3467 17.8658 18.2602 17.83 18.17 17.83C18.0798 17.83 17.9933 17.8658 17.9296 17.9296C17.8658 17.9934 17.83 18.0798 17.83 18.17C17.25 19.03 16.25 20.54 14.83 22.29C15.02 19.88 15.12 19.46 15.18 17.13C15.23 15.43 15.07 12.86 15.11 12.62C15.1212 12.5819 15.1247 12.542 15.1205 12.5026C15.1162 12.4631 15.1042 12.4249 15.0852 12.39C15.0661 12.3552 15.0404 12.3245 15.0095 12.2996C14.9786 12.2747 14.9431 12.2562 14.905 12.245C14.8669 12.2338 14.827 12.2303 14.7876 12.2346C14.7481 12.2388 14.7099 12.2508 14.675 12.2698C14.6402 12.2889 14.6095 12.3146 14.5846 12.3455C14.5597 12.3764 14.5412 12.4119 14.53 12.45Z" fill="black"/>
</g>
<defs>
<clipPath id="clip0_1044_5276">
<rect width="24" height="24" fill="white"/>
</clipPath>
</defs>
</svg>
