<svg width="24" height="24" viewBox="0 0 24 24" fill="none" xmlns="http://www.w3.org/2000/svg">
<g clip-path="url(#clip0_1044_5272)">
<path fill-rule="evenodd" clip-rule="evenodd" d="M24 9.18C23.56 7.5 20.56 6.28 19.59 5.57C19.529 5.51828 19.45 5.49291 19.3703 5.49948C19.2906 5.50604 19.2167 5.544 19.165 5.605C19.1133 5.666 19.0879 5.74504 19.0945 5.82475C19.101 5.90445 19.139 5.97828 19.2 6.03C20.4035 6.94441 21.5459 7.93653 22.62 9C19.02 8.53462 15.3859 8.38738 11.76 8.56C11.35 8.56 10.98 8.48 11.01 8.79C10.84 9.22 11.24 9.17 11.73 9.22C15.2251 9.69674 18.7558 9.86072 22.28 9.71C21.1304 10.5838 19.9207 11.3758 18.66 12.08C18.5698 12.08 18.4834 12.1158 18.4196 12.1796C18.3558 12.2433 18.32 12.3298 18.32 12.42C18.32 12.5102 18.3558 12.5967 18.4196 12.6604C18.4834 12.7242 18.5698 12.76 18.66 12.76C19 12.76 23.31 10.76 23.91 9.76C23.9627 9.67411 23.9978 9.57861 24.0133 9.47904C24.0287 9.37946 24.0242 9.27781 24 9.18Z" fill="black"/>
<path fill-rule="evenodd" clip-rule="evenodd" d="M11.55 14.53C10.1183 14.2785 8.67204 14.1182 7.22 14.05C6.22 14 5.22 14.05 4.36 14.05C1.6 14.05 1.77 14.25 2.11 13.96C5.83 10.85 5.54 11.33 5.59 11.13C5.64 10.93 5.53 10.63 5.12 10.79C3.70015 11.577 2.32473 12.4417 1 13.38C1.66893e-06 14.11 -0.429998 14.55 0.500002 15.31C1.2 15.88 5.27 18.52 5.83 18.51C5.92018 18.51 6.00666 18.4742 6.07042 18.4104C6.13418 18.3466 6.17 18.2602 6.17 18.17C6.17 18.0798 6.13418 17.9933 6.07042 17.9296C6.00666 17.8658 5.92018 17.83 5.83 17.83C4.97 17.25 3.46 16.25 1.71 14.83C4.12 15.02 4.54 15.12 6.87 15.18C8.57 15.23 11.14 15.07 11.38 15.11C11.4569 15.1325 11.5396 15.1236 11.61 15.0852C11.6803 15.0467 11.7325 14.9819 11.755 14.905C11.7775 14.8281 11.7686 14.7454 11.7302 14.675C11.6917 14.6047 11.6269 14.5525 11.55 14.53Z" fill="black"/>
</g>
<defs>
<clipPath id="clip0_1044_5272">
<rect width="24" height="24" fill="white"/>
</clipPath>
</defs>
</svg>
