<svg width="24" height="24" viewBox="0 0 24 24" fill="none" xmlns="http://www.w3.org/2000/svg">
<g clip-path="url(#clip0_1034_4208)">
<path fill-rule="evenodd" clip-rule="evenodd" d="M18.93 17.7C18.9807 17.3743 18.9425 17.0409 18.8194 16.7351C18.6963 16.4293 18.4929 16.1624 18.2307 15.9627C17.9684 15.7629 17.6571 15.6377 17.3296 15.6003C17.0021 15.5628 16.6705 15.6146 16.37 15.75C15.4803 16.1888 14.6773 16.7851 14 17.51C13.58 17.86 12.14 18.92 12.11 18.95C11.3479 18.945 10.5939 18.7922 9.89 18.5C9.89 18.5 9.89 18.5 9.83 18.5C9.77 18.5 9.9 18.32 10.01 18.17C11.2 16.52 12.73 15.95 11.65 14.28C11.4784 14.0424 11.2361 13.8652 10.9577 13.7736C10.6793 13.682 10.3791 13.6808 10.1 13.77C8.33 14.1 6.61 15.87 4.93 16.51C4.86 16.51 4.78 16.51 4.76 16.56C4.47 14.67 2.69 15.16 2.01 15.16C1.33 15.16 -0.23 15 0.0500001 15.67C0.0810664 15.7451 0.1404 15.805 0.215219 15.8368C0.290037 15.8686 0.374353 15.8698 0.45 15.84C0.942565 15.7719 1.44315 15.7889 1.93 15.89C2.85 15.99 3.56 15.73 3.67 16.58V22.21C3.67 22.88 3.61 23.06 2.55 23.15C1.8987 23.1946 1.24442 23.1644 0.6 23.06C0.516205 23.0566 0.433975 23.0834 0.368275 23.1355C0.302575 23.1876 0.257774 23.2616 0.242026 23.344C0.226279 23.4264 0.240631 23.5116 0.282472 23.5843C0.324313 23.657 0.39086 23.7122 0.47 23.74C1.15858 23.9021 1.86267 23.9893 2.57 24C3.57 24 4.2 23.85 4.57 23L6.83 22.5C10.39 23.42 15.29 23.62 18.43 21.62C19.62 20.85 20.95 19.89 20.29 18.62C20.1732 18.354 19.9835 18.1264 19.7428 17.9636C19.5022 17.8008 19.2204 17.7094 18.93 17.7ZM14.56 18.35C15.56 17.74 16.82 16.41 17.56 16.71C17.7749 16.7814 17.955 16.9312 18.0644 17.1295C18.1738 17.3279 18.2043 17.5601 18.15 17.78C16.29 18.18 15.37 18.58 13.71 18.78L14.56 18.35ZM17.77 20.7C13.51 23.63 6.92 21.56 6.77 21.61L4.7 22C4.99 19.74 4.7 17.44 4.81 17.42C4.92 17.4 5.15 17.23 5.47 17.09C7.31 16.3 8.67 15 9.88 14.65C10.3 14.53 10.68 14.42 10.88 14.71C11.52 15.71 10.37 15.97 9.19 17.5C8.58 18.28 8.72 18.81 9.09 19.18C9.61993 19.5711 10.2382 19.8253 10.89 19.92C13.14 20.48 16.96 19.21 17.83 19.04C18.49 18.9 18.96 18.59 19.25 19.14C19.54 19.69 18.22 20.4 17.77 20.7Z" fill="black"/>
<path fill-rule="evenodd" clip-rule="evenodd" d="M19.07 11C20.2815 10.8578 21.4445 10.4405 22.47 9.77998C22.5378 9.72819 22.5844 9.65342 22.6009 9.56972C22.6175 9.48601 22.6029 9.39914 22.5599 9.32544C22.5169 9.25174 22.4485 9.19628 22.3675 9.16949C22.2865 9.1427 22.1985 9.14643 22.12 9.17998C21.159 9.69494 20.09 9.97588 19 9.99998C15.41 10.14 14.31 9.86998 12.54 9.19998C11.91 9.06998 11.91 9.64998 12.41 10.06C15.11 11.44 16.42 11.24 19.07 11Z" fill="black"/>
<path fill-rule="evenodd" clip-rule="evenodd" d="M23.91 9.06C23.6 2.37 23.64 2.9 23.58 2.78C24 1.55 22.22 0.309997 21.12 0.329997C21.0386 0.34391 20.9647 0.386174 20.9114 0.449312C20.8582 0.51245 20.8289 0.592393 20.8289 0.674998C20.8289 0.757602 20.8582 0.837545 20.9114 0.900683C20.9647 0.963821 21.0386 1.00608 21.12 1.02C21.88 1.02 23.31 2.1 22.61 2.74C21.61 3.65 19.51 3.74 18.18 3.82C16.39 3.92 13.4 3.96 12.18 2.6C12.04 2.44 12.01 2.25 12.24 2.02C14.2 0.599997 16.8 0.789997 19.36 0.839997C20.19 0.889997 20.45 0.969997 20.52 0.649997C20.5288 0.611242 20.5299 0.571119 20.523 0.531961C20.5162 0.492803 20.5017 0.455389 20.4803 0.421894C20.4589 0.3884 20.431 0.359491 20.3984 0.336848C20.3657 0.314206 20.3289 0.29828 20.29 0.289997C18.13 0.0499975 15.39 -0.240003 13.29 0.289997C12.6375 0.478957 12.0244 0.783818 11.48 1.19C11.2529 1.36516 11.0851 1.60583 10.9993 1.87947C10.9134 2.15311 10.9137 2.44651 11 2.72C10.84 4.11 11 5.61 10.92 6.41C10.87 7.05 10.85 8.02 10.86 8.97C10.86 10.97 10.86 12.2 11.7 13.11C13.01 14.53 18.15 15.28 22.24 13.27C24.38 12.21 24 10.65 23.91 9.06ZM23 10.9C22.9375 11.2203 22.7906 11.5181 22.5743 11.7625C22.358 12.0069 22.0803 12.189 21.77 12.29C20.2985 12.8815 18.7425 13.2359 17.16 13.34C16.1505 13.3955 15.1385 13.2943 14.16 13.04C13.4607 12.8637 12.788 12.5946 12.16 12.24C11.39 11.7 11.59 4.49 11.58 3.57C12.5434 4.38185 13.7425 4.86218 15 4.94C17.1086 5.08053 19.2263 4.89844 21.28 4.4C21.8788 4.23543 22.4418 3.96075 22.94 3.59C23 11.5 23.05 10.5 23 10.9Z" fill="black"/>
<path fill-rule="evenodd" clip-rule="evenodd" d="M17.12 7.94002C18.8524 8.007 20.5778 7.68583 22.17 7.00002C22.2509 6.95759 22.3116 6.88476 22.3388 6.79755C22.366 6.71035 22.3574 6.61591 22.315 6.53502C22.2726 6.45413 22.1997 6.39341 22.1125 6.36622C22.0253 6.33902 21.9309 6.34759 21.85 6.39002C20.966 6.67905 20.0398 6.81764 19.11 6.80002C16.836 6.75498 14.5676 6.55787 12.32 6.21002C11.84 6.21002 11.67 7.01002 12.53 7.21002C13.9835 7.80299 15.5542 8.05279 17.12 7.94002Z" fill="black"/>
</g>
<defs>
<clipPath id="clip0_1034_4208">
<rect width="24" height="24" fill="white"/>
</clipPath>
</defs>
</svg>
