<svg width="24" height="24" viewBox="0 0 24 24" fill="none" xmlns="http://www.w3.org/2000/svg">
<g clip-path="url(#clip0_1048_7125)">
<path fill-rule="evenodd" clip-rule="evenodd" d="M23.22 0C21.6994 0.185433 20.195 0.486301 18.72 0.9C17.64 1.23 16.58 1.66 15.5 2.01C13.73 2.58 14.13 2.18 11.75 6.47C11.577 5.58426 11.2377 4.73934 10.75 3.98C9.75001 2.98 8.75001 4.49 8.04001 5.64C5.93001 9.09 4.00001 12.19 3.60001 17.38C3.59338 17.4596 3.61863 17.5385 3.6702 17.5995C3.72177 17.6604 3.79544 17.6984 3.87501 17.705C3.95457 17.7116 4.03351 17.6864 4.09446 17.6348C4.15541 17.5832 4.19338 17.5096 4.20001 17.43C4.64001 12.49 6.60001 9.43 8.75001 6.1C9.05633 5.51751 9.4823 5.00634 10 4.6C10.06 4.7 10.12 4.6 10.38 5.28C10.64 5.96 10.84 7.38 11.23 7.68C11.62 7.98 12.11 7.68 12.42 7.25C12.73 6.82 14.38 3.62 15 3.34C15.2875 3.2221 15.5855 3.13169 15.89 3.07C18.107 2.21532 20.4106 1.60504 22.76 1.25C22.7841 2.09358 22.683 2.93607 22.46 3.75C21.905 6.17653 21.1181 8.54408 20.11 10.82C19.81 11.49 19.33 13.02 18.65 13.51C18.58 13.41 18.37 13.33 18.31 13.27C17.4782 12.5253 16.5105 11.9481 15.46 11.57C14.18 11.4 14.83 14.25 14.77 14.93C14.03 14.42 12.2 13.49 11.87 14.27C11.65 14.79 11.97 15.46 12.07 15.87C12.3 16.74 12.86 18.42 12.19 19.04C10.8 20.0253 9.08953 20.4502 7.40001 20.23C5.00001 20 5.75001 19 5.23001 19.38C5.03001 19.46 4.81001 19.64 5.03001 19.9C5.32117 20.3253 5.75922 20.628 6.26001 20.75C8.15001 21.3 11.15 20.99 12.68 19.64C13.8 18.64 13.12 16.47 12.68 14.93C13.4977 15.1715 14.2341 15.6313 14.81 16.26C14.914 16.3462 15.0449 16.3933 15.18 16.3933C15.3151 16.3933 15.446 16.3462 15.55 16.26C15.93 15.83 15.55 13.98 15.63 12.77H15.82C16.4132 13.1373 16.9781 13.5485 17.51 14C17.7088 14.237 17.9453 14.4398 18.21 14.6C18.82 14.85 19.51 14.21 19.88 13.71C21.13 12.06 25.62 0.26 23.22 0Z" fill="black"/>
<path fill-rule="evenodd" clip-rule="evenodd" d="M7.06 16.23C14 8.43002 17.39 6.11002 19.55 4.51002C19.5868 4.48375 19.618 4.4505 19.6419 4.41217C19.6658 4.37383 19.682 4.33116 19.6894 4.28659C19.6968 4.24201 19.6954 4.19642 19.6852 4.15239C19.675 4.10837 19.6563 4.06679 19.63 4.03002C19.6037 3.99325 19.5705 3.96201 19.5322 3.93809C19.4938 3.91417 19.4511 3.89804 19.4066 3.89061C19.362 3.88318 19.3164 3.8846 19.2724 3.8948C19.2284 3.90499 19.1868 3.92375 19.15 3.95002C17.75 4.95002 16.38 5.80002 15.09 6.84002C7.79 12.84 5.14 16.84 0.910001 22.38L0.140001 23.52C0.108626 23.5872 0.102361 23.6634 0.122343 23.7348C0.142324 23.8062 0.187229 23.868 0.248914 23.9092C0.310598 23.9503 0.384977 23.9679 0.458562 23.9589C0.532148 23.9499 0.600066 23.9148 0.650001 23.86C2.67 21.22 5.92 17.51 7.06 16.23Z" fill="black"/>
</g>
<defs>
<clipPath id="clip0_1048_7125">
<rect width="24" height="24" fill="white"/>
</clipPath>
</defs>
</svg>
