<svg width="24" height="24" viewBox="0 0 24 24" fill="none" xmlns="http://www.w3.org/2000/svg">
<g clip-path="url(#clip0_1048_7085)">
<path d="M21.81 0.789981C21.417 0.456143 20.9446 0.22923 20.4384 0.131139C19.9322 0.0330475 19.4092 0.06709 18.92 0.229981C18.58 0.389981 18.24 0.939981 19 1.27998C19.1061 1.30762 19.204 1.36014 19.2858 1.43318C19.3675 1.50622 19.4307 1.59767 19.47 1.69998C19.516 2.00829 19.4636 2.32326 19.32 2.59998C19.0563 3.0646 18.7446 3.50031 18.39 3.89998C18.2221 4.1378 18.0938 4.4012 18.01 4.67998C17.8927 5.00774 17.8507 5.3577 17.8871 5.70392C17.9234 6.05013 18.0372 6.38373 18.22 6.67998C18.6151 7.24258 19.2079 7.63541 19.88 7.77998L21.4 7.99998C21.3522 9.06569 21.2184 10.1258 21 11.17C20.7797 12.2455 20.42 13.2876 19.93 14.27C19.777 14.6337 19.5677 14.9712 19.31 15.27C19.2501 15.3501 19.1617 15.4041 19.063 15.4209C18.9644 15.4376 18.863 15.4158 18.78 15.36C18.5639 15.1989 18.4144 14.964 18.36 14.7C18.2669 14.3754 18.233 14.0366 18.26 13.7C18.3063 12.9616 18.4337 12.2305 18.64 11.52C18.94 10.4 19.36 9.26998 19.64 8.22998C19.6542 8.18995 19.6602 8.1475 19.6578 8.10511C19.6553 8.06273 19.6445 8.02125 19.6259 7.98309C19.6073 7.94493 19.5813 7.91085 19.5494 7.88285C19.5174 7.85485 19.4803 7.83348 19.44 7.81998C19.3578 7.79462 19.2689 7.80238 19.1923 7.84161C19.1157 7.88084 19.0575 7.94843 19.03 8.02998C18.66 9.02998 18.18 10.17 17.81 11.28C17.5399 12.0376 17.3521 12.8221 17.25 13.62C17.1797 14.1651 17.2344 14.7191 17.41 15.24C17.5441 15.6435 17.8033 15.9938 18.15 16.24C18.377 16.426 18.6615 16.5277 18.955 16.5277C19.2485 16.5277 19.533 16.426 19.76 16.24C20.2653 15.8517 20.6502 15.3281 20.87 14.73C21.246 13.8532 21.5244 12.9377 21.7 12C21.9473 10.6312 22.0479 9.24005 22 7.84998C22.6053 7.5953 23.1134 7.15382 23.45 6.58998C23.8607 5.88154 24.0521 5.06721 24 4.24998C23.8865 3.5556 23.634 2.89126 23.2577 2.29674C22.8814 1.70222 22.389 1.18974 21.81 0.789981ZM22.81 6.20998C22.459 6.68372 22.0128 7.07884 21.5 7.36998L20 7.05998C19.5653 6.92247 19.1934 6.63552 18.95 6.24998C18.847 6.06 18.7857 5.85024 18.7702 5.63469C18.7547 5.41914 18.7853 5.20276 18.86 4.99998C18.9302 4.81315 19.0279 4.63787 19.15 4.47998C19.5766 4.03176 19.9492 3.53503 20.26 2.99998C20.4099 2.7331 20.5032 2.43822 20.5342 2.13371C20.5651 1.8292 20.5331 1.52157 20.44 1.22998C20.8873 1.41577 21.2998 1.67613 21.66 1.99998C22.412 2.56729 22.9397 3.38179 23.15 4.29998C23.2349 4.95535 23.1199 5.6211 22.82 6.20998H22.81Z" fill="black"/>
<path d="M18.18 17.39C17.985 17.8745 17.6328 18.2796 17.18 18.54C16.79 18.72 16.32 18.6 15.78 18.1C15.6224 17.9508 15.4722 17.7939 15.33 17.63C15.1913 17.4633 15.0611 17.2898 14.94 17.11C14.106 15.6786 13.5559 14.0997 13.32 12.46C13.0943 11.3074 12.7595 10.179 12.32 9.08996C11.8003 7.87149 10.939 6.82954 9.84001 6.08996C9.05042 5.57164 8.17262 5.20222 7.25001 4.99996C6.31701 4.80211 5.35029 4.82954 4.43001 5.07996C3.89666 5.22604 3.40222 5.48828 2.98212 5.84787C2.56201 6.20747 2.22663 6.65553 2.00001 7.15996C1.71399 7.8283 1.64067 8.56849 1.79001 9.27996C1.90001 9.74996 2.08001 9.77996 2.38001 9.02996C2.2995 8.48982 2.37586 7.93793 2.60001 7.43996C2.79286 7.04297 3.07289 6.69468 3.41921 6.42109C3.76552 6.1475 4.16917 5.95568 4.60001 5.85996C5.39208 5.66973 6.21794 5.66973 7.01001 5.85996C7.80095 6.05731 8.54966 6.3961 9.22001 6.85996C10.1486 7.50459 10.871 8.40407 11.3 9.44996C11.728 10.4779 12.0626 11.5421 12.3 12.63C12.6193 14.3778 13.2784 16.046 14.24 17.54C14.39 17.74 14.54 17.93 14.71 18.12C14.8766 18.3032 15.0536 18.4769 15.24 18.64C15.5199 18.9515 15.8904 19.1674 16.2995 19.2571C16.7086 19.3468 17.1355 19.3058 17.52 19.14C18.1345 18.7491 18.5968 18.1598 18.83 17.47C19.05 16.86 18.37 16.82 18.18 17.39Z" fill="black"/>
<path d="M6.70001 10.71C5.74493 9.92324 4.52434 9.53308 3.29001 9.61996C3.06947 9.64636 2.85187 9.69323 2.64001 9.75996C2.12394 9.89892 1.65026 10.1634 1.26117 10.5298C0.872086 10.8962 0.579682 11.3532 0.410014 11.86C-0.191814 13.786 -0.121292 15.8593 0.610014 17.74C1.25025 19.5983 2.32308 21.2778 3.74001 22.64C4.27024 23.1526 4.91549 23.5309 5.62182 23.7431C6.32815 23.9554 7.07503 23.9954 7.80001 23.86C10.36 23.34 12.28 20.31 10.65 16.2C9.77347 14.0903 8.4217 12.2115 6.70001 10.71ZM1.42001 12.23C1.58795 11.7487 1.9072 11.3347 2.33001 11.05C2.34027 11.2854 2.37038 11.5196 2.42001 11.75C2.46817 11.9577 2.53168 12.1616 2.61001 12.36C2.68372 12.5573 2.77404 12.7479 2.88001 12.93C3.12093 13.3561 3.38811 13.7669 3.68001 14.16C3.72025 14.2338 3.78791 14.2888 3.86837 14.3131C3.94883 14.3374 4.03563 14.3291 4.11001 14.29C4.14787 14.27 4.18135 14.2428 4.20848 14.2097C4.2356 14.1766 4.25582 14.1384 4.26794 14.0974C4.28006 14.0564 4.28383 14.0134 4.27904 13.9709C4.27424 13.9284 4.26097 13.8872 4.24001 13.85C4.08001 13.43 3.95001 12.98 3.81001 12.53C3.75001 12.34 3.69001 12.16 3.62001 11.97C3.55001 11.78 3.48001 11.61 3.40001 11.43C3.32001 11.25 3.18001 10.96 3.08001 10.72L3.40001 10.66C4.36591 10.5736 5.32827 10.8598 6.09001 11.46C6.64743 11.9016 7.16295 12.3937 7.63001 12.93C6.84001 13.4 5.98001 13.93 5.09001 14.34C4.67001 14.56 4.25001 14.78 3.83001 14.98L3.00001 15.37C2.43282 15.6392 1.83979 15.8503 1.23001 16C0.946928 14.7496 1.01265 13.4455 1.42001 12.23ZM7.67001 23.17C7.0603 23.2563 6.43878 23.1951 5.85761 22.9915C5.27645 22.7879 4.75259 22.4479 4.33001 22C3.08407 20.6944 2.15362 19.1208 1.61001 17.4C1.51957 17.1408 1.4428 16.8771 1.38001 16.61C2.33729 16.5619 3.28002 16.3558 4.17001 16C4.82985 15.7264 5.46262 15.3916 6.06001 15C6.75236 14.5351 7.41994 14.0345 8.06001 13.5C8.8045 14.4133 9.42334 15.4223 9.90001 16.5C12.33 22 7.77001 23.15 7.67001 23.17Z" fill="black"/>
</g>
<defs>
<clipPath id="clip0_1048_7085">
<rect width="24" height="24" fill="white"/>
</clipPath>
</defs>
</svg>
