<svg width="24" height="24" viewBox="0 0 24 24" fill="none" xmlns="http://www.w3.org/2000/svg">
<g clip-path="url(#clip0_1048_7070)">
<path d="M23.22 16.57L23.16 15.97C23.1205 15.7828 23.04 15.6067 22.9241 15.4545C22.8082 15.3023 22.6599 15.1778 22.49 15.09C21.8006 14.8646 21.0716 14.7863 20.35 14.86C17.52 14.86 3.17999 14.79 3.17999 14.79C3.17999 14.79 3.48999 12.47 3.55999 11.34C3.55999 10.86 3.55999 10.34 3.61999 9.89998C3.67999 9.45998 3.61999 8.89998 3.61999 8.45998C3.61999 7.36998 3.50999 6.28998 3.43999 5.20998C5.09812 4.99309 6.76781 4.87621 8.43999 4.85998C10.06 4.85998 11.71 4.85998 13.35 4.94998C15.86 5.02998 18.35 5.10998 20.75 5.22998C20.7751 5.63292 20.7751 6.03703 20.75 6.43998C20.75 7.08998 20.65 7.74998 20.6 8.43998C20.6 8.89998 20.55 9.34998 20.55 9.79998C20.55 10.25 20.55 10.73 20.61 11.2C20.69 12.28 20.85 13.34 20.91 14.42C20.9086 14.4563 20.9146 14.4925 20.9276 14.5264C20.9406 14.5603 20.9602 14.5913 20.9854 14.6174C21.0107 14.6435 21.0409 14.6643 21.0743 14.6785C21.1077 14.6927 21.1437 14.7 21.18 14.7C21.2525 14.7 21.3223 14.6719 21.3745 14.6215C21.4268 14.5712 21.4574 14.5025 21.46 14.43C21.53 13.5 21.58 12.57 21.59 11.63V9.78998V6.94998C21.5739 6.24276 21.5071 5.53762 21.39 4.83998C21.12 4.20998 16.62 4.17998 14.46 4.01998C13.95 4.01998 13.46 3.95998 12.91 3.93998C13 3.44998 13 2.99998 13 2.53998C13.0135 2.13034 12.9765 1.7206 12.89 1.31998L12.67 0.699976C12.21 -0.120024 11.67 -0.0800238 11.36 0.119976C11.1842 0.227781 11.0395 0.379401 10.94 0.559976C10.8017 0.84307 10.688 1.13748 10.6 1.43998L10.45 2.43998C10.4283 2.77296 10.4283 3.107 10.45 3.43998C10.45 3.59998 10.45 3.74998 10.5 3.89998H10.21C7.82392 3.93384 5.4465 4.19502 3.10999 4.67998C2.73999 4.74998 2.76999 5.18998 2.61999 8.49998C2.61999 8.97998 2.61999 9.49998 2.56999 9.92998C2.51999 10.36 2.56999 10.93 2.56999 11.37C2.56999 12.49 2.66999 14.79 2.67999 14.83H2.44999C2.05565 14.8367 1.66327 14.887 1.27999 14.98C1.17011 15.0095 1.07068 15.0691 0.992932 15.1522C0.91518 15.2353 0.862203 15.3384 0.839988 15.45C0.764275 15.9035 0.764275 16.3664 0.839988 16.82C0.908653 17.2188 1.1268 17.5764 1.44999 17.82C1.63555 17.9398 1.84936 18.0088 2.06999 18.02H3.06999H4.99999C4.99999 18.12 4.90999 18.21 4.87999 18.31C4.66999 18.84 4.50999 19.38 4.32999 19.91L3.86999 21.45C3.7166 21.9236 3.61927 22.4136 3.57999 22.91C3.56576 23.0811 3.5878 23.2532 3.64467 23.4152C3.70153 23.5772 3.79194 23.7253 3.90999 23.85C4.14999 24.07 4.58999 24.21 5.29999 23.79L5.65999 23.51L6.20999 22.86C6.59891 22.2226 6.93343 21.5536 7.20999 20.86C7.28999 20.68 7.33999 20.51 7.40999 20.33L10.29 20.56C10.74 20.56 11.2 20.61 11.66 20.62H13C14.07 20.62 15.14 20.62 16.22 20.56H16.27C16.27 20.62 16.27 20.68 16.32 20.73C16.5386 21.4135 16.8025 22.0816 17.11 22.73C17.2732 23.053 17.4746 23.3551 17.71 23.63C17.8767 23.8224 18.1012 23.9557 18.35 24.01C18.67 24.01 19.08 23.96 19.29 23.27L19.48 22.34L19.41 21.2L19.09 19.68L18.56 17.87C22.01 17.8 22.94 17.87 23.14 17.32C23.2115 17.0768 23.2386 16.8228 23.22 16.57ZM11.14 3.40998C11.14 3.11998 11.22 2.83998 11.28 2.53998L11.54 1.74998C11.59 1.60998 11.66 1.31998 11.74 1.14998V1.20998L11.92 1.58998C12.0293 1.91437 12.1031 2.24966 12.14 2.58998C12.19 3.01998 12.2 3.44998 12.22 3.87998H11.12C11.1158 3.72304 11.1224 3.56599 11.14 3.40998ZM5.31999 22.22L4.89999 22.68L4.71999 22.83L4.53999 22.94V22.65C4.57501 22.3133 4.63179 21.9793 4.70999 21.65L5.01999 20.09C5.13999 19.55 5.24999 19.01 5.39999 18.49C5.39999 18.32 5.49999 18.16 5.54999 17.99H7.50999C7.18869 18.828 6.82488 19.649 6.41999 20.45C6.10128 21.0685 5.73343 21.6604 5.31999 22.22ZM13.07 19.57C12.61 19.57 12.15 19.51 11.69 19.49C11.23 19.47 10.77 19.49 10.31 19.49C9.41999 19.49 8.53999 19.57 7.64999 19.64C7.84999 19.07 8.04999 18.51 8.21999 17.95C10.39 17.95 12.57 17.95 14.74 17.87H15.62C15.77 18.55 15.93 19.22 16.12 19.87C15.1 19.76 14.09 19.65 13.07 19.57ZM18.07 18.57C18.15 18.97 18.23 19.37 18.29 19.77L18.47 21.22V22.22L18.32 22.82C18.2121 22.6222 18.1153 22.4185 18.03 22.21C17.6293 21.46 17.285 20.6811 17 19.88C16.73 19.21 16.49 18.52 16.27 17.83H17.97L18.07 18.57ZM22.58 17C22.5841 17.0365 22.5841 17.0734 22.58 17.11H16.32C13.15 17.09 9.99999 17 6.78999 17H3.05999H2.05999C1.99388 16.935 1.94197 16.857 1.90754 16.771C1.87312 16.6849 1.85692 16.5926 1.85999 16.5C1.83998 16.3272 1.83998 16.1527 1.85999 15.98L2.45999 15.92C3.32999 15.92 4.18999 15.98 5.05999 16H6.20999C8.55665 15.9 10.9167 15.8266 13.29 15.78C15.6633 15.7333 18.0233 15.7 20.37 15.68C20.9118 15.623 21.4581 15.623 22 15.68C22.1326 15.7067 22.2549 15.7708 22.3523 15.8647C22.4498 15.9586 22.5184 16.0784 22.55 16.21V16.65C22.5673 16.7659 22.5773 16.8828 22.58 17Z" fill="black"/>
<path d="M10 11.6C10.1191 11.8982 10.3371 12.1464 10.6175 12.303C10.8979 12.4596 11.2236 12.515 11.54 12.46C12.2055 12.4213 12.8466 12.196 13.39 11.81C14.48 11.05 15.25 9.71997 16.19 8.87997C16.4762 8.61259 16.8176 8.4112 17.19 8.28997C17.3509 8.22026 17.5268 8.19197 17.7015 8.20769C17.8761 8.22341 18.0441 8.28264 18.19 8.37997C18.2553 8.42826 18.3369 8.44903 18.4173 8.43781C18.4977 8.42659 18.5705 8.38428 18.62 8.31997C18.67 8.25433 18.6927 8.17191 18.6834 8.08992C18.6741 8.00793 18.6335 7.93271 18.57 7.87997C18.3938 7.74539 18.1923 7.64769 17.9776 7.59271C17.7628 7.53773 17.5392 7.5266 17.32 7.55997C16.7248 7.6554 16.1657 7.90734 15.7 8.28997C14.82 8.99997 14.1 9.99997 13.21 10.68C12.7254 11.121 12.1041 11.3822 11.45 11.42C11.3794 11.4332 11.3067 11.4307 11.2372 11.4127C11.1677 11.3947 11.1029 11.3616 11.0476 11.3158C10.9922 11.27 10.9477 11.2126 10.917 11.1476C10.8863 11.0827 10.8702 11.0118 10.87 10.94C10.8843 10.1319 10.9612 9.32616 11.1 8.52997C11.1125 8.30829 11.0809 8.08633 11.0071 7.87692C10.9333 7.66752 10.8187 7.47482 10.67 7.30997C10.4903 7.14196 10.2627 7.0343 10.0188 7.00202C9.775 6.96975 9.52717 7.01448 9.31 7.12997L8.51 7.51997C8.3 7.63997 8.09 7.76997 7.9 7.89997C7.70178 8.04282 7.51149 8.19638 7.33 8.35997C7.09545 8.57604 6.87813 8.81008 6.68 9.05997C6.48 9.29997 6.29 9.54997 6.11 9.80997C6.08142 9.86848 6.07414 9.93513 6.0894 9.99844C6.10466 10.0617 6.14151 10.1178 6.1936 10.1568C6.2457 10.1959 6.30979 10.2156 6.37483 10.2125C6.43988 10.2094 6.50182 10.1838 6.55 10.14C6.74 9.89997 6.93 9.67997 7.13 9.45997C7.33113 9.24733 7.54484 9.04697 7.77 8.85997C7.93538 8.73191 8.1091 8.61498 8.29 8.50997C8.47466 8.40014 8.66492 8.30001 8.86 8.20997L9.59 7.90997C9.79 7.84997 9.94 7.83997 10.03 7.90997C10.1331 8.08459 10.1686 8.29091 10.13 8.48997C10.13 8.86997 9.92 9.48997 9.84 10.16C9.77151 10.6458 9.82654 11.141 10 11.6Z" fill="black"/>
</g>
<defs>
<clipPath id="clip0_1048_7070">
<rect width="24" height="24" fill="white"/>
</clipPath>
</defs>
</svg>
