<svg width="24" height="24" viewBox="0 0 24 24" fill="none" xmlns="http://www.w3.org/2000/svg">
<g clip-path="url(#clip0_1035_4834)">
<path fill-rule="evenodd" clip-rule="evenodd" d="M9.86 14.74C12.43 15.63 15.98 14.74 17.29 11.82C17.6078 11.0781 17.7632 10.2767 17.7459 9.46976C17.7285 8.66281 17.5388 7.8689 17.1893 7.14131C16.8399 6.41372 16.339 5.76928 15.72 5.25122C15.1011 4.73316 14.3785 4.35347 13.6007 4.13763C12.823 3.92179 12.0081 3.87479 11.2107 3.99978C10.4133 4.12477 9.65182 4.41887 8.97742 4.86233C8.30302 5.3058 7.73127 5.88837 7.30053 6.57097C6.86979 7.25356 6.59002 8.02039 6.48 8.82C6.29 10.37 6.73 12.59 8.13 13.5C8.19631 13.5451 8.2778 13.562 8.35657 13.547C8.43534 13.532 8.50492 13.4863 8.55 13.42C8.59509 13.3537 8.61199 13.2722 8.59699 13.1934C8.58198 13.1147 8.53631 13.0451 8.47 13C7.34 12.21 7.06 10.25 7.29 8.93C7.41106 8.28456 7.66491 7.67132 8.03546 7.12916C8.40601 6.587 8.88517 6.12775 9.44256 5.78054C9.99996 5.43332 10.6234 5.20571 11.2734 5.11215C11.9234 5.01858 12.5857 5.0611 13.2184 5.237C13.8511 5.4129 14.4404 5.71835 14.9488 6.13398C15.4572 6.54962 15.8737 7.06636 16.1719 7.65144C16.4701 8.23653 16.6435 8.8772 16.681 9.53281C16.7186 10.1884 16.6195 10.8447 16.39 11.46C15.39 13.95 12.29 14.82 10.07 14.13C9.99864 14.1293 9.92886 14.1511 9.87055 14.1922C9.81225 14.2334 9.76837 14.2918 9.74514 14.3593C9.72191 14.4268 9.7205 14.4999 9.74111 14.5682C9.76173 14.6365 9.80332 14.6966 9.86 14.74Z" fill="black"/>
<path fill-rule="evenodd" clip-rule="evenodd" d="M23.64 5.8C23.51 4.7 23.57 2.53 22.72 1.93C20.81 0.569999 16.66 0.939999 13.91 0.839999C10.4 0.719999 6.77 0.999999 3.29 1.09C3.24116 1.08153 3.19106 1.08384 3.14321 1.09677C3.09536 1.1097 3.05092 1.13294 3.01299 1.16485C2.97506 1.19677 2.94458 1.23659 2.92366 1.28153C2.90274 1.32646 2.89191 1.37543 2.89191 1.425C2.89191 1.47457 2.90274 1.52353 2.92366 1.56847C2.94458 1.61341 2.97506 1.65323 3.01299 1.68515C3.05092 1.71706 3.09536 1.7403 3.14321 1.75323C3.19106 1.76616 3.24116 1.76847 3.29 1.76C6.76 1.71 10.35 1.5 13.87 1.68C16.35 1.81 20.54 1.55 22.13 2.68C22.51 2.97 22.52 5.12 22.6 5.88C22.9382 8.56809 22.9617 11.2865 22.67 13.98C22.6222 14.8737 22.4746 15.7592 22.23 16.62C19.78 17.9 2.49 18.8 1.48 17.18C1.09856 15.8279 0.883641 14.4342 0.84 13.03C0.710634 9.40594 0.911463 5.77764 1.44 2.19C1.49835 2.13165 1.53113 2.05251 1.53113 1.97C1.53113 1.88748 1.49835 1.80835 1.44 1.75C1.38165 1.69165 1.30252 1.65887 1.22 1.65887C1.13748 1.65887 1.05835 1.69165 1 1.75C0.61 2.14 0.69 3.39 0.62 3.82C0.0528663 7.18173 -0.121638 10.598 0.1 14C0.147636 15.2475 0.35259 16.4839 0.71 17.68C1.55 19.09 7.02 19.14 8.71 19.15C8.04619 20.0023 7.72836 21.0736 7.82 22.15C7.05 22.15 6.33 22.25 5.66 22.31C5.61672 22.302 5.5722 22.3036 5.52962 22.3147C5.48703 22.3259 5.44741 22.3462 5.41358 22.3744C5.37974 22.4025 5.35251 22.4378 5.33383 22.4776C5.31514 22.5175 5.30546 22.561 5.30546 22.605C5.30546 22.649 5.31514 22.6925 5.33383 22.7323C5.35251 22.7722 5.37974 22.8075 5.41358 22.8356C5.44741 22.8638 5.48703 22.8841 5.52962 22.8953C5.5722 22.9064 5.61672 22.908 5.66 22.9C7.66 22.97 9.2 23.17 11.66 23.15C14.12 23.13 15.73 22.92 17.73 22.77C17.8089 22.7563 17.8805 22.7152 17.9321 22.6539C17.9836 22.5926 18.0119 22.5151 18.0119 22.435C18.0119 22.3549 17.9836 22.2774 17.9321 22.2161C17.8805 22.1548 17.8089 22.1137 17.73 22.1H15.89C15.7586 20.9963 15.4193 19.9274 14.89 18.95C16.21 18.85 22.44 18.42 23.18 17.32C23.5888 16.3159 23.8059 15.2441 23.82 14.16C24.1042 11.3765 24.0438 8.56864 23.64 5.8ZM15.12 22.1C12.38 22.04 10.93 22.01 8.57 22.1C8.73 21.71 8.96 21.2 9.08 20.81C9.22438 20.269 9.32471 19.7172 9.38 19.16C9.38 19.03 9.14 19.27 14.06 18.97C14.1506 20.0846 14.5147 21.1597 15.12 22.1Z" fill="black"/>
<path fill-rule="evenodd" clip-rule="evenodd" d="M13.88 8.62C13.9298 8.34642 13.9124 8.06485 13.8295 7.79943C13.7466 7.534 13.6006 7.29264 13.404 7.09602C13.2074 6.89939 12.966 6.75337 12.7006 6.67047C12.4351 6.58756 12.1536 6.57024 11.88 6.62C10.14 6.85 9.81 9.06 10.88 8.93C10.9556 8.94591 11.0344 8.93114 11.0991 8.88895C11.1638 8.84675 11.2091 8.78058 11.225 8.705C11.2409 8.62941 11.2261 8.5506 11.184 8.4859C11.1418 8.4212 11.0756 8.37591 11 8.36C10.9968 8.281 11.0113 8.20228 11.0424 8.1296C11.0736 8.05693 11.1206 7.99214 11.18 7.94C11.2735 7.84009 11.3866 7.76044 11.5122 7.70599C11.6377 7.65154 11.7731 7.62344 11.91 7.62344C12.0469 7.62344 12.1823 7.65154 12.3078 7.70599C12.4334 7.76044 12.5465 7.84009 12.64 7.94C13.01 8.34 12.64 8.83 12.19 9.4C12.05 9.57 11.45 10.07 11.5 10.45C11.57 11.07 12.5 10.97 12.39 10.45C12.57 10.34 12.76 10.02 12.83 9.96C13.2847 9.60626 13.6453 9.14606 13.88 8.62Z" fill="black"/>
<path fill-rule="evenodd" clip-rule="evenodd" d="M11.94 11.36C11.07 11.29 10.73 12.96 12.01 12.87C12.22 12.87 12.54 12.79 12.67 12.51C12.7211 12.4195 12.7521 12.3191 12.7607 12.2155C12.7694 12.1119 12.7555 12.0077 12.72 11.91C12.6461 11.7606 12.5361 11.632 12.3998 11.5359C12.2636 11.4399 12.1055 11.3794 11.94 11.36Z" fill="black"/>
</g>
<defs>
<clipPath id="clip0_1035_4834">
<rect width="24" height="24" fill="white"/>
</clipPath>
</defs>
</svg>
