<svg width="24" height="24" viewBox="0 0 24 24" fill="none" xmlns="http://www.w3.org/2000/svg">
<g clip-path="url(#clip0_1052_9056)">
<path fill-rule="evenodd" clip-rule="evenodd" d="M3.37001 19.91C3.51731 19.788 3.63957 19.6386 3.73001 19.47C3.88822 19.1608 3.92673 18.8041 3.83815 18.4682C3.74957 18.1323 3.54014 17.841 3.25001 17.65C2.90005 17.3772 2.473 17.2217 2.02956 17.2055C1.58613 17.1893 1.14889 17.3134 0.780006 17.56C0.491696 17.8317 0.284057 18.1778 0.180006 18.56C0.0734051 19.2983 0.0299144 20.0443 0.0500056 20.79V22.1C0.0494395 22.5449 0.0795106 22.9893 0.140006 23.43C0.150019 23.5079 0.190193 23.5788 0.251897 23.6274C0.313601 23.676 0.391912 23.6985 0.470006 23.69C0.508167 23.6863 0.545208 23.675 0.578984 23.6569C0.612761 23.6387 0.642602 23.614 0.666782 23.5843C0.690962 23.5545 0.709 23.5203 0.719852 23.4835C0.730704 23.4467 0.734155 23.4081 0.730006 23.37C0.700064 22.9572 0.700064 22.5428 0.730006 22.13C0.730006 21.7 0.830006 21.29 0.900006 20.89C0.970006 20.49 0.970006 19.69 1.10001 19.09C1.15177 18.7971 1.29953 18.5297 1.52001 18.33C1.66263 18.2604 1.82129 18.2301 1.97954 18.2424C2.13779 18.2548 2.28986 18.3092 2.42001 18.4C2.64001 18.51 2.87001 18.68 2.75001 18.93C2.69335 19.0104 2.6178 19.0757 2.53001 19.12C2.27001 19.29 1.96001 19.41 1.74001 19.54C1.6506 19.5937 1.57796 19.6712 1.53025 19.764C1.48255 19.8567 1.46168 19.9609 1.46999 20.0648C1.47831 20.1688 1.51548 20.2683 1.57732 20.3523C1.63916 20.4362 1.72321 20.5013 1.82001 20.54C1.99652 20.5505 2.1735 20.5505 2.35001 20.54L2.74001 20.65C2.94474 20.7223 3.12731 20.8464 3.27001 21.01C3.39884 21.1445 3.47052 21.3238 3.47001 21.51C3.47001 21.91 3.08001 22.14 2.67001 22.28C2.20331 22.4513 1.69962 22.4961 1.21001 22.41C1.16547 22.3913 1.11746 22.3823 1.06917 22.3836C1.02089 22.3849 0.973428 22.3964 0.92996 22.4175C0.886493 22.4386 0.848014 22.4687 0.817088 22.5058C0.786162 22.5429 0.763498 22.5862 0.750607 22.6327C0.737715 22.6793 0.734891 22.728 0.742323 22.7758C0.749756 22.8235 0.767273 22.8691 0.793709 22.9095C0.820146 22.95 0.854893 22.9843 0.895638 23.0102C0.936383 23.0362 0.982189 23.0532 1.03001 23.06C1.75229 23.2649 2.51996 23.244 3.23001 23C3.51557 22.903 3.76909 22.7297 3.96302 22.4987C4.15695 22.2677 4.28388 21.988 4.33001 21.69C4.35738 21.4781 4.3423 21.2629 4.28565 21.0568C4.22899 20.8508 4.13189 20.6581 4.00001 20.49C3.82584 20.2611 3.61255 20.0647 3.37001 19.91Z" fill="black"/>
<path fill-rule="evenodd" clip-rule="evenodd" d="M7.33 21.85C7.18439 21.648 7.02747 21.4543 6.86 21.27C6.78132 21.0781 6.69116 20.8911 6.59 20.71L6.92 20.6C7.37662 20.3259 7.72858 19.907 7.92 19.41C7.98753 19.2045 8.00821 18.9864 7.98052 18.7719C7.95283 18.5573 7.87749 18.3517 7.76 18.17C7.60742 17.8719 7.353 17.6383 7.04292 17.5117C6.73285 17.3851 6.38766 17.3739 6.07 17.48C5.79013 17.5753 5.53751 17.7369 5.33375 17.9511C5.12999 18.1654 4.98117 18.4257 4.9 18.71C4.8168 19.0161 4.77973 19.333 4.79 19.65C4.79 20.28 4.91 20.95 4.91 21.54L5 23.41C4.99991 23.4498 5.00802 23.4893 5.02383 23.5258C5.03964 23.5624 5.0628 23.5953 5.09189 23.6225C5.12097 23.6497 5.15535 23.6706 5.19287 23.684C5.2304 23.6973 5.27027 23.7028 5.31 23.7C5.34941 23.6987 5.38817 23.6897 5.42408 23.6734C5.45998 23.6571 5.49232 23.6339 5.51926 23.6051C5.54619 23.5763 5.56719 23.5425 5.58104 23.5056C5.5949 23.4687 5.60134 23.4294 5.6 23.39L5.71 21.58C5.71544 21.4834 5.71544 21.3866 5.71 21.29C5.86588 21.4985 6.03631 21.6956 6.22 21.88C6.37429 22.0259 6.52114 22.1794 6.66 22.34C7.01 22.76 7.31 23.22 7.66 23.61C7.71835 23.679 7.8017 23.7219 7.89172 23.7294C7.98174 23.7369 8.07105 23.7084 8.14 23.65C8.20896 23.5917 8.25191 23.5083 8.25942 23.4183C8.26692 23.3283 8.23835 23.239 8.18 23.17C7.9 22.77 7.63 22.29 7.33 21.85ZM5.77 20.16C5.75974 20.0035 5.75974 19.8465 5.77 19.69C5.7967 19.4537 5.85384 19.2217 5.94 19C5.97796 18.8898 6.04111 18.7899 6.12444 18.7083C6.20776 18.6267 6.30896 18.5657 6.42 18.53C6.49816 18.512 6.58017 18.5222 6.65153 18.5588C6.7229 18.5954 6.77903 18.656 6.81 18.73C6.84894 18.7931 6.86956 18.8659 6.86956 18.94C6.86956 19.0142 6.84894 19.0869 6.81 19.15C6.69034 19.377 6.51482 19.5697 6.3 19.71C6.11567 19.8507 5.93876 20.0009 5.77 20.16Z" fill="black"/>
<path fill-rule="evenodd" clip-rule="evenodd" d="M11.06 18.0599C10.8536 17.7637 10.5428 17.5565 10.19 17.4799C10.0245 17.451 9.85436 17.4642 9.69531 17.5184C9.53626 17.5726 9.39343 17.6659 9.28 17.7899C9.00491 18.1415 8.82574 18.5584 8.76 18.9999C8.71179 19.3679 8.6884 19.7388 8.69 20.1099C8.69 20.6399 8.75 21.1599 8.78 21.6799L8.89 23.2499C8.89125 23.2889 8.90035 23.3272 8.91676 23.3626C8.93316 23.398 8.95653 23.4297 8.98547 23.4558C9.01441 23.482 9.04833 23.502 9.08519 23.5147C9.12205 23.5275 9.1611 23.5326 9.2 23.5299C9.27782 23.5273 9.35158 23.4946 9.4057 23.4386C9.45982 23.3826 9.49005 23.3078 9.49 23.2299L9.56 21.7299C9.6822 21.7853 9.80946 21.8289 9.94 21.8599C10.0197 21.8695 10.1003 21.8695 10.18 21.8599C10.4084 21.8419 10.6335 21.7948 10.85 21.7199V23.2299C10.8415 23.2787 10.8438 23.3288 10.8568 23.3767C10.8697 23.4246 10.8929 23.469 10.9249 23.5069C10.9568 23.5448 10.9966 23.5753 11.0415 23.5963C11.0865 23.6172 11.1354 23.628 11.185 23.628C11.2346 23.628 11.2835 23.6172 11.3285 23.5963C11.3734 23.5753 11.4132 23.5448 11.4452 23.5069C11.4771 23.469 11.5003 23.4246 11.5132 23.3767C11.5262 23.3288 11.5285 23.2787 11.52 23.2299C11.52 22.3799 11.71 21.3499 11.69 20.3899C11.6834 19.9476 11.623 19.5077 11.51 19.0799C11.4136 18.7187 11.2618 18.3746 11.06 18.0599ZM10.46 20.8099C10.3111 20.7847 10.1589 20.7847 10.01 20.8099C9.87512 20.8318 9.74389 20.8722 9.62 20.9299C9.62 20.6899 9.62 20.4499 9.68 20.2099C9.70598 19.8728 9.75949 19.5383 9.84 19.2099C9.86839 19.0008 9.92212 18.796 10 18.5999C10.12 18.5999 10.18 18.7399 10.25 18.8399C10.3763 19.0328 10.4771 19.2412 10.55 19.4599C10.708 19.9221 10.8054 20.4027 10.84 20.8899C10.7173 20.8471 10.5896 20.8202 10.46 20.8099Z" fill="black"/>
<path fill-rule="evenodd" clip-rule="evenodd" d="M13.24 18.18C13.24 17.18 12.62 17.39 12.62 18.18L12.5 19.87V21.27C12.5 21.74 12.55 21.93 12.59 22.27L12.74 23.19C12.7372 23.2345 12.7437 23.2792 12.7592 23.321C12.7746 23.3629 12.7987 23.401 12.8297 23.4331C12.8608 23.4651 12.8982 23.4902 12.9396 23.5069C12.981 23.5236 13.0254 23.5315 13.07 23.53C13.1142 23.5314 13.1582 23.5238 13.1994 23.5078C13.2406 23.4918 13.2781 23.4677 13.3098 23.437C13.3415 23.4062 13.3668 23.3694 13.384 23.3287C13.4012 23.2879 13.41 23.2442 13.41 23.2L13.46 22.27C13.46 21.78 13.6 21.27 13.62 20.81C13.6202 20.4755 13.5968 20.1413 13.55 19.81L13.24 18.18Z" fill="black"/>
<path fill-rule="evenodd" clip-rule="evenodd" d="M16.75 22.9999C16.3133 22.9343 15.8712 22.9108 15.43 22.9299C15.3774 22.9225 15.3266 22.9055 15.28 22.8799C15.3029 22.7616 15.333 22.6447 15.37 22.5299C15.37 22.2699 15.47 22.0099 15.49 21.8999C15.5351 21.4945 15.5351 21.0853 15.49 20.6799C15.3465 19.8376 15.2762 18.9844 15.28 18.1299C15.2831 18.0587 15.2608 17.9888 15.217 17.9326C15.1732 17.8764 15.1108 17.8376 15.0411 17.8231C14.9713 17.8087 14.8987 17.8196 14.8362 17.8538C14.7737 17.888 14.7254 17.9434 14.7 18.0099C14.5888 18.3948 14.5184 18.7903 14.49 19.1899C14.49 19.6299 14.41 20.0699 14.4 20.5199C14.4035 20.9214 14.3767 21.3225 14.32 21.7199C14.2562 22.1436 14.2461 22.5737 14.29 22.9999C14.3246 23.227 14.4466 23.4316 14.63 23.5699C14.7915 23.6754 14.9775 23.7374 15.17 23.7499C15.62 23.7499 16.17 23.5499 16.59 23.6199C16.6342 23.6331 16.6806 23.6371 16.7264 23.6317C16.7722 23.6263 16.8164 23.6117 16.8564 23.5887C16.8964 23.5657 16.9312 23.5348 16.9589 23.498C16.9865 23.4611 17.0064 23.4189 17.0173 23.3741C17.0281 23.3293 17.0298 23.2828 17.0221 23.2373C17.0144 23.1918 16.9975 23.1484 16.9725 23.1097C16.9475 23.0709 16.9149 23.0377 16.8767 23.0119C16.8384 22.9862 16.7953 22.9685 16.75 22.9599V22.9999Z" fill="black"/>
<path fill-rule="evenodd" clip-rule="evenodd" d="M20.13 22.8899H19.49C19.3269 22.8774 19.1631 22.8774 19 22.8899C18.8903 22.9023 18.7797 22.9023 18.67 22.8899H18.51V22.6399V22.0899C18.51 21.6399 18.51 21.1899 18.46 20.7499C18.41 20.3099 18.33 19.8599 18.25 19.4199C18.2 19.1499 18.12 18.8699 18.07 18.5899C18.0501 18.4305 18.0501 18.2693 18.07 18.1099C18.0731 18.0387 18.0508 17.9688 18.007 17.9125C17.9632 17.8563 17.9008 17.8175 17.8311 17.8031C17.7613 17.7887 17.6887 17.7995 17.6262 17.8338C17.5637 17.868 17.5154 17.9233 17.49 17.9899C17.4488 18.1505 17.422 18.3145 17.41 18.4799V19.4799V22.0799C17.4006 22.4525 17.4341 22.825 17.51 23.1899C17.5325 23.3 17.5792 23.4038 17.6466 23.4937C17.714 23.5836 17.8006 23.6575 17.9 23.7099C18.0699 23.7737 18.2487 23.8108 18.43 23.8199C18.6716 23.8347 18.9141 23.8145 19.15 23.7599C19.2605 23.7223 19.3744 23.6956 19.49 23.6799C19.68 23.6799 19.86 23.6799 20.12 23.6099C20.1989 23.5962 20.2705 23.5551 20.3221 23.4938C20.3736 23.4325 20.4019 23.355 20.4019 23.2749C20.4019 23.1948 20.3736 23.1173 20.3221 23.056C20.2705 22.9947 20.1989 22.9536 20.12 22.9399L20.13 22.8899ZM18.54 22.8899V22.8299C18.54 22.7699 18.58 22.8899 18.54 22.8999V22.8899Z" fill="black"/>
<path fill-rule="evenodd" clip-rule="evenodd" d="M23.6 22.9299C23.1613 22.9723 22.7207 22.9923 22.28 22.9899C22.1184 22.9859 21.9617 22.9337 21.83 22.8399C21.83 22.7599 21.9 22.6499 21.9 22.6099L22.05 21.1099V20.6299C22.1129 20.6677 22.18 20.6979 22.25 20.7199C22.3466 20.7528 22.4479 20.7697 22.55 20.7699C22.6461 20.7851 22.7439 20.7851 22.84 20.7699C23.0704 20.734 23.2977 20.6805 23.52 20.6099C23.5642 20.614 23.6087 20.6092 23.6509 20.5957C23.6932 20.5822 23.7323 20.5603 23.7659 20.5314C23.7995 20.5025 23.8269 20.4671 23.8465 20.4273C23.8661 20.3875 23.8775 20.3442 23.88 20.2999C23.8831 20.2119 23.8529 20.126 23.7954 20.0593C23.738 19.9926 23.6575 19.9499 23.57 19.9399C23.37 19.8699 23.16 19.7799 22.9 19.7099L22.62 19.6599C22.5303 19.6499 22.4397 19.6499 22.35 19.6599C22.2239 19.6769 22.0998 19.7071 21.98 19.7499C21.98 19.3999 21.91 19.0499 21.9 18.6899C21.9 18.5599 21.75 18.2199 21.83 18.1699C21.8936 18.1305 21.9655 18.1066 22.04 18.0999H22.53H23.44C23.4768 18.1145 23.516 18.1216 23.5556 18.121C23.5951 18.1203 23.6341 18.1118 23.6703 18.096C23.7066 18.0802 23.7394 18.0574 23.7668 18.0289C23.7942 18.0004 23.8156 17.9668 23.83 17.9299C23.8544 17.8554 23.8505 17.7745 23.8192 17.7026C23.7879 17.6307 23.7312 17.5728 23.66 17.5399C23.5025 17.4904 23.3422 17.4503 23.18 17.4199C22.94 17.4199 22.68 17.3499 22.53 17.3399C22.2575 17.3095 21.9825 17.3095 21.71 17.3399C21.5412 17.3678 21.3807 17.4327 21.24 17.5299C21.0927 17.6486 20.9847 17.8089 20.93 17.9899C20.8709 18.2354 20.844 18.4875 20.85 18.7399V19.4999C20.85 20.0599 20.93 20.6199 20.93 21.1799V22.6799C20.9119 22.8595 20.9119 23.0404 20.93 23.2199C20.9602 23.3431 21.0264 23.4544 21.12 23.5399C21.3668 23.7424 21.6714 23.8614 21.99 23.8799C22.5347 23.8596 23.0767 23.7927 23.61 23.6799C23.6547 23.6786 23.6986 23.6686 23.7394 23.6503C23.7801 23.632 23.8169 23.6058 23.8475 23.5733C23.8782 23.5408 23.9021 23.5026 23.918 23.4608C23.9339 23.4191 23.9413 23.3746 23.94 23.3299C23.9471 23.2808 23.9437 23.2307 23.9299 23.183C23.9162 23.1353 23.8924 23.091 23.8603 23.0532C23.8281 23.0154 23.7883 22.9848 23.7434 22.9635C23.6985 22.9423 23.6496 22.9308 23.6 22.9299ZM21.86 22.9299V22.8499C21.86 22.7699 21.91 22.9199 21.86 22.9199V22.9299Z" fill="black"/>
<path fill-rule="evenodd" clip-rule="evenodd" d="M1.67 4.23997C2.06117 4.33155 2.4699 4.31476 2.85225 4.19143C3.23459 4.06809 3.57609 3.84286 3.84 3.53997C4.1094 3.28425 4.31968 2.97278 4.45613 2.62732C4.59259 2.28186 4.65193 1.91076 4.63 1.53997C4.54646 1.1609 4.32105 0.828154 4 0.609969C3.21717 0.232427 2.33365 0.116728 1.48 0.279969C1.07164 0.424361 0.721194 0.697419 0.481349 1.05809C0.241504 1.41876 0.125228 1.84754 0.150004 2.27997C0.180849 2.72045 0.341768 3.14186 0.612367 3.49079C0.882965 3.83972 1.25106 4.10046 1.67 4.23997ZM1.81 0.999969C1.91794 0.931659 2.0361 0.881022 2.16 0.849969C2.26 0.849969 3.75 1.02997 3.78 1.63997C3.75848 1.86628 3.68838 2.08529 3.57447 2.28203C3.46057 2.47877 3.30555 2.64862 3.12 2.77997C2.99086 2.93228 2.82429 3.04834 2.63667 3.11672C2.44906 3.18511 2.24687 3.20346 2.05 3.16997C1.82464 3.10375 1.62295 2.97439 1.46878 2.79718C1.31461 2.61997 1.2144 2.40233 1.18 2.16997C1.16195 1.9351 1.21173 1.69998 1.32341 1.49257C1.43509 1.28516 1.60398 1.11419 1.81 0.999969Z" fill="black"/>
<path fill-rule="evenodd" clip-rule="evenodd" d="M9.07 4.37999C9.64812 4.08182 10.1069 3.59487 10.37 2.99999C10.4763 2.78683 10.5357 2.55342 10.5443 2.3154C10.5529 2.07738 10.5106 1.84028 10.42 1.61999C10.1846 1.14341 9.78255 0.769785 9.29 0.56999C9.29 0.56999 6.18 -0.20001 5.83 1.77999C5.7683 2.19007 5.81213 2.6091 5.95735 2.99754C6.10258 3.38597 6.34441 3.73098 6.66 3.99999C6.98137 4.29061 7.38043 4.48132 7.80843 4.5488C8.23642 4.61629 8.67481 4.55763 9.07 4.37999ZM9.55 1.99999C9.57359 2.1335 9.566 2.27066 9.52784 2.40076C9.48968 2.53085 9.42197 2.65037 9.33 2.74999C9.15096 3.0135 8.90148 3.22141 8.61 3.34999C8.40212 3.43502 8.17442 3.45948 7.95323 3.42055C7.73203 3.38162 7.52636 3.28088 7.36 3.12999C5 1.27999 9 0.30999 9.55 1.99999Z" fill="black"/>
<path fill-rule="evenodd" clip-rule="evenodd" d="M7.48001 5.58001C7.02731 5.82213 6.64433 6.17637 6.36769 6.60884C6.09105 7.0413 5.93002 7.53752 5.90001 8.05001C5.86795 8.44769 5.95556 8.84587 6.15158 9.19336C6.3476 9.54085 6.64307 9.82177 7.00001 10C7.35804 10.1561 7.74443 10.2367 8.13501 10.2367C8.52559 10.2367 8.91197 10.1561 9.27001 10C9.63577 9.86295 9.96596 9.64524 10.236 9.36305C10.5061 9.08086 10.7091 8.74144 10.83 8.37001C10.9074 8.06871 10.9067 7.75265 10.8279 7.45169C10.7492 7.15074 10.595 6.87483 10.38 6.65001C8.83001 5.00001 7.81001 5.45001 7.48001 5.58001ZM9.92001 8.07001C9.82484 8.2949 9.68006 8.49535 9.49651 8.6564C9.31295 8.81745 9.09536 8.93491 8.86001 9.00001C8.64156 9.09187 8.40698 9.13919 8.17001 9.13919C7.93304 9.13919 7.69845 9.09187 7.48001 9.00001C7.25247 8.88744 7.07627 8.69254 6.98713 8.45484C6.898 8.21714 6.9026 7.95444 7.00001 7.72001C7.02682 7.43195 7.1158 7.15313 7.26082 6.9028C7.40584 6.65246 7.60345 6.43657 7.84001 6.27001C8.54001 5.87001 10.27 7.14001 9.92001 8.07001Z" fill="black"/>
<path fill-rule="evenodd" clip-rule="evenodd" d="M5.37001 13.31C5.42547 12.9772 5.39587 12.6359 5.28397 12.3177C5.17207 11.9995 4.98151 11.7147 4.73001 11.49C3.93001 10.73 0.970012 10.43 0.420012 12.31C0.27756 12.8178 0.33629 13.3609 0.58399 13.8265C0.83169 14.2921 1.2493 14.6443 1.75001 14.81C1.97567 14.8945 2.2107 14.9516 2.45001 14.98C2.69877 15.0153 2.95126 15.0153 3.20001 14.98C3.74299 14.8905 4.2551 14.6671 4.69001 14.33C5.02371 14.075 5.26297 13.7161 5.37001 13.31ZM4.37001 13.04C4.26663 13.2749 4.07687 13.4611 3.84001 13.56C3.5747 13.7111 3.28268 13.8096 2.98001 13.85C2.83403 13.87 2.686 13.87 2.54001 13.85C2.38437 13.8283 2.2306 13.7949 2.08001 13.75C1.80808 13.6897 1.56952 13.5277 1.41331 13.2971C1.2571 13.0665 1.19509 12.7848 1.24001 12.51C1.43001 11.38 3.44001 11.31 4.08001 12.06C4.21417 12.173 4.31621 12.3194 4.37589 12.4844C4.43557 12.6494 4.45079 12.8272 4.42001 13L4.37001 13.04Z" fill="black"/>
<path fill-rule="evenodd" clip-rule="evenodd" d="M16.17 4.99999C16.4918 4.95805 16.8005 4.84607 17.0743 4.67195C17.3481 4.49782 17.5805 4.26578 17.7549 3.99216C17.9294 3.71854 18.0418 3.41 18.0841 3.08827C18.1265 2.76653 18.0977 2.43943 18 2.12999C17.41 -1.16001 14.27 0.779989 14.21 0.829989C13.7595 1.12754 13.4348 1.58101 13.2982 2.10333C13.1617 2.62565 13.2228 3.18001 13.47 3.65999C13.7426 4.12018 14.1427 4.49161 14.6218 4.72939C15.1009 4.96718 15.6386 5.06116 16.17 4.99999ZM17.05 2.30999C17.12 3.01999 16.89 3.82999 16.05 3.86999C15.7341 3.92014 15.4104 3.8812 15.1154 3.75754C14.8204 3.63389 14.5657 3.43042 14.38 3.16999C13.33 1.39999 16.83 -0.0800109 17.05 2.25999V2.30999Z" fill="black"/>
<path fill-rule="evenodd" clip-rule="evenodd" d="M15.1 6.52992C14.7148 6.67196 14.3732 6.9116 14.1085 7.22539C13.8438 7.53917 13.6651 7.91633 13.59 8.31992C13.5037 8.75618 13.5602 9.20862 13.7511 9.61027C13.942 10.0119 14.2572 10.3414 14.65 10.5499C15.0089 10.7084 15.4005 10.7784 15.7921 10.7541C16.1836 10.7297 16.5636 10.6117 16.9 10.4099C17.2325 10.2414 17.5267 10.0062 17.7641 9.71882C18.0016 9.43147 18.1772 9.09822 18.28 8.73992C18.3935 8.20007 18.2931 7.63725 18 7.16992C17.41 6.33992 15.47 6.39992 15.1 6.52992ZM17.38 8.52992C17.2824 8.73943 17.1435 8.92712 16.9717 9.08175C16.7998 9.23638 16.5986 9.3548 16.38 9.42992C16.2038 9.54321 16.0036 9.61394 15.7953 9.6365C15.5871 9.65907 15.3764 9.63285 15.18 9.55992C14.9807 9.46115 14.8165 9.30378 14.7092 9.10894C14.602 8.9141 14.5569 8.69112 14.58 8.46992C14.5994 8.21554 14.683 7.97024 14.8229 7.75689C14.9628 7.54355 15.1545 7.36914 15.38 7.24992C15.69 7.09992 17.86 6.85992 17.38 8.52992Z" fill="black"/>
<path fill-rule="evenodd" clip-rule="evenodd" d="M17.5 12.17C17.4363 12.1065 17.35 12.0708 17.26 12.0708C17.17 12.0708 17.0837 12.1065 17.02 12.17C16.9889 12.2007 16.9641 12.2373 16.9473 12.2776C16.9304 12.318 16.9217 12.3613 16.9217 12.405C16.9217 12.4487 16.9304 12.492 16.9473 12.5324C16.9641 12.5727 16.9889 12.6093 17.02 12.64C17.1362 12.7743 17.2229 12.9314 17.2746 13.1012C17.3263 13.2711 17.3418 13.4499 17.3202 13.6261C17.2985 13.8023 17.2401 13.972 17.1488 14.1242C17.0575 14.2765 16.9353 14.4079 16.79 14.51C16.5386 14.7356 16.2128 14.8604 15.875 14.8604C15.5373 14.8604 15.2114 14.7356 14.96 14.51C14.8147 14.412 14.7122 14.2624 14.6732 14.0915C14.6342 13.9206 14.6616 13.7413 14.75 13.59C14.9814 13.1287 15.3253 12.7332 15.75 12.44C15.8911 12.3372 16.0507 12.2625 16.22 12.22C16.29 12.22 16.36 12.22 16.38 12.27C16.3946 12.3469 16.4378 12.4154 16.5009 12.4618C16.564 12.5082 16.6422 12.529 16.72 12.52C16.7592 12.5152 16.7971 12.5024 16.8312 12.4825C16.8653 12.4625 16.895 12.4358 16.9184 12.4039C16.9418 12.3721 16.9584 12.3358 16.9673 12.2973C16.9762 12.2588 16.9771 12.2189 16.97 12.18C16.9675 12.0154 16.9017 11.8581 16.7862 11.7408C16.6708 11.6234 16.5145 11.5551 16.35 11.55C16.0018 11.5319 15.6554 11.6116 15.35 11.78C14.6027 12.1539 14.0088 12.7761 13.67 13.54C13.5611 13.8663 13.5576 14.2185 13.6598 14.5469C13.7621 14.8753 13.9651 15.1633 14.24 15.37C14.6941 15.7515 15.2734 15.9514 15.8661 15.9311C16.4589 15.9108 17.0231 15.6717 17.45 15.26C17.6724 15.0703 17.8518 14.8354 17.9764 14.5709C18.101 14.3065 18.1679 14.0186 18.1726 13.7263C18.1773 13.434 18.1198 13.1441 18.0038 12.8757C17.8879 12.6074 17.7161 12.3668 17.5 12.17Z" fill="black"/>
<path fill-rule="evenodd" clip-rule="evenodd" d="M20 4.74003C20.7036 5.09603 21.5191 5.16069 22.27 4.92003C22.6594 4.81013 23.0143 4.60278 23.3013 4.31757C23.5882 4.03237 23.7977 3.67872 23.91 3.29003C24.0128 2.91472 24.0347 2.52188 23.9744 2.13746C23.914 1.75305 23.7728 1.38581 23.56 1.06003C23.1436 0.696124 22.6422 0.443051 22.1021 0.324198C21.562 0.205345 21.0007 0.224547 20.47 0.38003C20.0017 0.6071 19.6047 0.958509 19.3226 1.39587C19.0404 1.83323 18.8839 2.33973 18.87 2.86003C18.8645 3.24756 18.9674 3.62891 19.1671 3.96109C19.3667 4.29327 19.6552 4.56306 20 4.74003ZM19.91 2.50003C19.9438 2.20692 20.042 1.9249 20.1976 1.67422C20.3532 1.42353 20.5623 1.21037 20.81 1.05003C21.37 0.73003 23.73 0.93003 23 3.00003C22.9126 3.21081 22.7764 3.3978 22.6025 3.54558C22.4286 3.69336 22.2221 3.79771 22 3.85003C21.5249 3.9883 21.0154 3.94555 20.57 3.73003C20.3403 3.62576 20.1513 3.44888 20.0321 3.22662C19.9128 3.00436 19.8699 2.74906 19.91 2.50003Z" fill="black"/>
<path fill-rule="evenodd" clip-rule="evenodd" d="M20.32 6.99999C19.8799 7.4191 19.5648 7.95226 19.41 8.53999C19.34 8.79609 19.3392 9.06619 19.4077 9.3227C19.4762 9.5792 19.6116 9.81292 19.8 9.99999C20.1163 10.2945 20.4902 10.5202 20.8981 10.6631C21.306 10.8059 21.7391 10.8628 22.17 10.83C22.4885 10.8054 22.7957 10.7009 23.0632 10.5261C23.3306 10.3513 23.5496 10.1119 23.7 9.82999C24.72 7.99999 22.33 5.12999 20.32 6.99999ZM22.88 9.31999C22.7569 9.47652 22.5921 9.59518 22.4046 9.66239C22.2172 9.7296 22.0145 9.74263 21.82 9.69999C21.3621 9.6588 20.9302 9.46918 20.59 9.15999C20.5248 9.08006 20.482 8.98417 20.4662 8.88222C20.4504 8.78027 20.4621 8.67594 20.5 8.57999C20.626 8.0877 20.8979 7.645 21.28 7.30999C22.21 6.55999 23.6 8.27999 22.88 9.34999V9.31999Z" fill="black"/>
</g>
<defs>
<clipPath id="clip0_1052_9056">
<rect width="24" height="24" fill="white"/>
</clipPath>
</defs>
</svg>
