<svg width="24" height="24" viewBox="0 0 24 24" fill="none" xmlns="http://www.w3.org/2000/svg">
<g clip-path="url(#clip0_1052_9091)">
<path fill-rule="evenodd" clip-rule="evenodd" d="M17.78 10.8099C17.7105 9.98393 17.5114 9.17402 17.19 8.40993C16.8534 7.65601 16.3708 6.97626 15.77 6.40993C14.5483 5.27651 12.9465 4.64151 11.28 4.62993C10.4681 4.596 9.65758 4.72544 8.89662 5.01059C8.13565 5.29574 7.43968 5.73078 6.84999 6.28993C6.82126 6.31788 6.79843 6.35131 6.78284 6.38824C6.76725 6.42517 6.75922 6.46484 6.75922 6.50493C6.75922 6.54501 6.76725 6.58469 6.78284 6.62162C6.79843 6.65854 6.82126 6.69197 6.84999 6.71993C6.87708 6.74837 6.90966 6.77101 6.94576 6.78648C6.98185 6.80195 7.02072 6.80993 7.05999 6.80993C7.09927 6.80993 7.13813 6.80195 7.17423 6.78648C7.21033 6.77101 7.24291 6.74837 7.26999 6.71993C7.81078 6.23664 8.44435 5.86858 9.13206 5.6382C9.81977 5.40782 10.5472 5.31994 11.27 5.37993C12.7067 5.44695 14.066 6.04993 15.08 7.06993C15.5585 7.58449 15.9352 8.18509 16.19 8.83993C16.4532 9.50481 16.6117 10.2065 16.66 10.9199C16.7277 11.5219 16.6698 12.1314 16.49 12.7099C16.3069 13.2539 15.9569 13.7262 15.49 14.0599C15.0631 14.3343 14.6585 14.6419 14.28 14.9799C14.0871 15.1717 13.9281 15.3949 13.81 15.6399C13.7104 15.8863 13.6465 16.1455 13.62 16.4099V17.4099V18.8199C13.6147 19.0939 13.5744 19.3662 13.5 19.6299C13.2693 20.4314 12.7808 21.1343 12.11 21.6299C11.4483 22.1292 10.6388 22.3932 9.80999 22.3799C9.37173 22.3758 8.94423 22.2437 8.57999 21.9999C8.23723 21.7662 8.00017 21.407 7.91999 20.9999C7.90275 20.9111 7.85092 20.8327 7.77591 20.7821C7.7009 20.7315 7.60884 20.7127 7.51999 20.7299C7.43114 20.7472 7.35278 20.799 7.30215 20.874C7.25151 20.949 7.23275 21.0411 7.24999 21.1299C7.35957 21.6974 7.68144 22.2016 8.14999 22.5399C8.60275 22.8649 9.13475 23.0618 9.68999 23.1099C10.7068 23.1646 11.7129 22.8797 12.55 22.2999C13.3965 21.7227 14.0347 20.8881 14.37 19.9199C14.4529 19.6595 14.5098 19.3915 14.54 19.1199C14.6 18.5599 14.6 17.9099 14.63 17.4499C14.63 17.1599 14.63 16.8399 14.7 16.5399C14.7173 16.3868 14.7613 16.2379 14.83 16.0999C14.9182 15.9271 15.0407 15.7739 15.19 15.6499C15.5 15.3999 15.86 15.1999 16.19 14.9799C16.8467 14.505 17.3339 13.8321 17.58 13.0599C17.8048 12.3325 17.873 11.5656 17.78 10.8099Z" fill="black"/>
<path fill-rule="evenodd" clip-rule="evenodd" d="M13.47 12.48C13.4355 12.5636 13.4356 12.6574 13.4703 12.7408C13.505 12.8243 13.5714 12.8905 13.655 12.925C13.7385 12.9595 13.8323 12.9594 13.9158 12.9247C13.9992 12.89 14.0655 12.8236 14.1 12.74C14.3481 12.2851 14.5395 11.8015 14.67 11.3C14.753 10.9292 14.7699 10.5467 14.72 10.17C14.653 9.73827 14.5009 9.32414 14.2726 8.95163C14.0443 8.57913 13.7443 8.25566 13.39 8.00001C12.7188 7.51797 11.9162 7.25277 11.09 7.24001C10.8701 7.23906 10.6513 7.26937 10.44 7.33001C10.17 7.40001 9.89997 7.50001 9.62997 7.60001C9.58997 7.60803 9.55203 7.62412 9.51846 7.64729C9.48489 7.67047 9.4564 7.70025 9.43474 7.73481C9.41307 7.76938 9.39868 7.808 9.39244 7.84831C9.38621 7.88862 9.38826 7.92979 9.39847 7.96928C9.40869 8.00877 9.42685 8.04577 9.45184 8.078C9.47684 8.11024 9.50815 8.13704 9.54386 8.15676C9.57957 8.17649 9.61892 8.18872 9.65952 8.19272C9.70012 8.19672 9.7411 8.19239 9.77997 8.18001C10.04 8.18001 10.3 8.08001 10.57 8.05001C10.7193 8.03019 10.8706 8.03019 11.02 8.05001C11.6534 8.21424 12.2327 8.54182 12.7 9.00001C13.1855 9.34104 13.5387 9.839 13.7 10.41C13.7916 10.7352 13.8121 11.0762 13.76 11.41C13.6915 11.7737 13.5945 12.1315 13.47 12.48Z" fill="black"/>
<path fill-rule="evenodd" clip-rule="evenodd" d="M8.34999 17.46C8.84648 17.6045 9.37654 17.5835 9.85999 17.4C10.0572 17.337 10.2337 17.2221 10.371 17.0672C10.5083 16.9123 10.6012 16.7233 10.64 16.52C10.6893 16.2684 10.6806 16.0089 10.6148 15.7612C10.549 15.5134 10.4276 15.2839 10.26 15.09C10.0982 14.9184 9.90287 14.7819 9.68611 14.689C9.46935 14.5961 9.23581 14.5488 8.99999 14.55C8.75194 14.541 8.50439 14.5783 8.26999 14.66C8.36525 14.01 8.61565 13.3926 8.99999 12.86C9.40647 12.2628 9.9347 11.7584 10.55 11.38C10.617 11.3384 10.6657 11.2729 10.6862 11.1967C10.7066 11.1206 10.6972 11.0395 10.66 10.97C10.6412 10.935 10.6155 10.9041 10.5847 10.879C10.5538 10.854 10.5182 10.8354 10.4801 10.8242C10.4419 10.813 10.402 10.8096 10.3625 10.814C10.323 10.8184 10.2847 10.8306 10.25 10.85C9.50539 11.2041 8.84422 11.7119 8.30999 12.34C7.76102 12.9952 7.38918 13.7801 7.22999 14.62C7.15996 14.9287 7.11977 15.2435 7.10999 15.56C7.10656 15.8109 7.1437 16.0608 7.21999 16.3C7.30172 16.5697 7.44701 16.8158 7.64365 17.0176C7.84029 17.2195 8.08253 17.3712 8.34999 17.46ZM8.21999 15.46C8.45742 15.3285 8.73166 15.2793 8.99999 15.32C9.23891 15.3451 9.45819 15.4638 9.60999 15.65C9.71642 15.8087 9.76254 16.0002 9.73999 16.19C9.73674 16.2424 9.7164 16.2923 9.68209 16.332C9.64777 16.3717 9.60136 16.3991 9.54999 16.41C9.28327 16.495 8.99671 16.495 8.72999 16.41C8.62661 16.3745 8.53297 16.3153 8.45656 16.2372C8.38016 16.1591 8.32311 16.0641 8.28999 15.96C8.27047 15.834 8.27047 15.7059 8.28999 15.58L8.21999 15.46Z" fill="black"/>
<path fill-rule="evenodd" clip-rule="evenodd" d="M16.51 3.45C16.0098 3.12577 15.4419 2.92051 14.85 2.85C14.8126 2.83747 14.773 2.83244 14.7337 2.83521C14.6943 2.83798 14.6559 2.84849 14.6206 2.86614C14.5853 2.88379 14.5538 2.90824 14.528 2.93807C14.5021 2.9679 14.4824 3.00254 14.47 3.04C14.456 3.07734 14.4499 3.11716 14.452 3.15697C14.4541 3.19679 14.4644 3.23574 14.4822 3.2714C14.5 3.30706 14.525 3.33866 14.5556 3.36423C14.5862 3.3898 14.6217 3.40878 14.66 3.42C14.8788 3.54126 15.0862 3.68182 15.28 3.84C15.44 3.96 15.56 4.11 15.7 4.23L16.12 4.62C16.56 5.01 17 5.4 17.49 5.88C17.551 5.92567 17.6255 5.94955 17.7017 5.94779C17.7778 5.94604 17.8512 5.91877 17.91 5.87034C17.9688 5.82191 18.0096 5.75514 18.0259 5.68074C18.0423 5.60633 18.0331 5.52859 18 5.46C17.7662 5.02112 17.5057 4.59699 17.22 4.19C17.0293 3.90298 16.7889 3.65237 16.51 3.45Z" fill="black"/>
<path fill-rule="evenodd" clip-rule="evenodd" d="M14.08 0.599977C14.4239 0.650336 14.7599 0.744431 15.08 0.879977C15.5548 1.09645 16.0042 1.36475 16.42 1.67998C16.8418 1.96081 17.2428 2.27161 17.62 2.60998C17.9964 2.94636 18.3536 3.30359 18.69 3.67998C19.3661 4.4747 19.9498 5.3436 20.43 6.26998C20.4333 6.32552 20.4502 6.3794 20.4791 6.42689C20.5081 6.47439 20.5483 6.51405 20.5962 6.54239C20.6441 6.57074 20.6982 6.5869 20.7537 6.58947C20.8093 6.59203 20.8647 6.58091 20.9149 6.5571C20.9652 6.53328 21.0089 6.49749 21.0421 6.45286C21.0753 6.40823 21.0971 6.35613 21.1055 6.30114C21.1139 6.24614 21.1087 6.18992 21.0903 6.13741C21.0719 6.0849 21.0409 6.03771 21 5.99998C20.5663 4.72127 19.9095 3.52951 19.06 2.47998C18.6973 2.0644 18.2879 1.69195 17.84 1.36998C17.539 1.16033 17.225 0.969948 16.9 0.799977C16.4733 0.580459 16.0323 0.390025 15.58 0.229977C15.1083 0.0774402 14.6157 -0.000169707 14.12 -2.28647e-05C14.0806 -0.00273854 14.041 0.00235804 14.0036 0.0149743C13.9661 0.0275905 13.9316 0.0474779 13.9018 0.0734946C13.8721 0.0995113 13.8478 0.131145 13.8303 0.166579C13.8128 0.202013 13.8025 0.24055 13.8 0.279977C13.7973 0.319392 13.8024 0.358956 13.815 0.396396C13.8276 0.433836 13.8475 0.468416 13.8735 0.498149C13.8995 0.527883 13.9312 0.552184 13.9666 0.569659C14.002 0.587133 14.0406 0.597437 14.08 0.599977Z" fill="black"/>
<path fill-rule="evenodd" clip-rule="evenodd" d="M4.06 17.6699C4.15548 17.859 4.27662 18.034 4.42 18.1899C4.73723 18.5345 5.12184 18.8101 5.55 18.9999C5.6199 19.045 5.70358 19.0638 5.78604 19.0528C5.86851 19.0418 5.94436 19.0018 6 18.9399C6.02631 18.9027 6.04488 18.8607 6.05461 18.8161C6.06434 18.7716 6.06503 18.7256 6.05664 18.6809C6.04824 18.6361 6.03093 18.5935 6.00574 18.5555C5.98055 18.5176 5.94799 18.4851 5.91 18.4599C5.53649 18.0947 5.24947 17.6505 5.07 17.1599C5 16.9999 5 16.8999 4.92 16.7599C4.74619 16.4333 4.6343 16.0773 4.59 15.7099C4.59598 15.6297 4.57151 15.5501 4.52148 15.4871C4.47144 15.4241 4.3995 15.3823 4.32 15.3699C4.28057 15.3658 4.2407 15.3695 4.20272 15.3809C4.16473 15.3922 4.12937 15.411 4.09868 15.4361C4.068 15.4612 4.04259 15.4921 4.02394 15.5271C4.00528 15.5621 3.99374 15.6005 3.99 15.6399C3.83461 16.0997 3.79006 16.5897 3.86 17.0699C3.89629 17.2788 3.9637 17.4811 4.06 17.6699Z" fill="black"/>
<path fill-rule="evenodd" clip-rule="evenodd" d="M5.91999 23.31C5.49591 23.1519 5.08182 22.9682 4.67999 22.76C4.3166 22.5608 3.98048 22.3154 3.67999 22.03C3.27578 21.6182 2.93838 21.1459 2.67999 20.63C2.25542 19.8326 1.92006 18.9909 1.67999 18.12C1.44605 17.5002 1.30128 16.8504 1.24999 16.19C1.20263 15.7912 1.2332 15.3871 1.33999 15C1.35668 14.9639 1.36605 14.9249 1.36753 14.8852C1.36902 14.8455 1.3626 14.8058 1.34864 14.7686C1.33469 14.7314 1.31347 14.6973 1.28624 14.6684C1.259 14.6394 1.22628 14.6162 1.18999 14.6C1.11836 14.5656 1.03603 14.561 0.961036 14.5873C0.886047 14.6135 0.824532 14.6684 0.789986 14.74C0.55214 15.1995 0.412514 15.7036 0.379986 16.22C0.334167 16.9648 0.394777 17.7123 0.559986 18.44C0.785425 19.4056 1.14562 20.3347 1.62999 21.2C1.98402 21.8047 2.44879 22.3373 2.99999 22.77C3.32695 23.0188 3.68288 23.2269 4.05999 23.39C4.59432 23.6334 5.1458 23.8373 5.70999 24C5.75267 24.0138 5.79764 24.019 5.84235 24.0154C5.88706 24.0118 5.93062 23.9995 5.97055 23.979C6.01048 23.9586 6.04599 23.9305 6.07506 23.8964C6.10414 23.8622 6.1262 23.8227 6.13999 23.78C6.15377 23.7373 6.15902 23.6923 6.15543 23.6476C6.15183 23.6029 6.13947 23.5594 6.11904 23.5194C6.09861 23.4795 6.07052 23.444 6.03637 23.4149C6.00221 23.3858 5.96267 23.3638 5.91999 23.35V23.31Z" fill="black"/>
<path fill-rule="evenodd" clip-rule="evenodd" d="M23.3 16.93C22.72 16.86 22.1 16.77 21.46 16.72H20.68H19.89C19.25 16.72 18.64 16.88 18.05 16.94C18.0106 16.9386 17.9713 16.9451 17.9344 16.9589C17.8975 16.9728 17.8637 16.9938 17.8349 17.0207C17.8061 17.0477 17.7829 17.08 17.7666 17.1159C17.7503 17.1518 17.7413 17.1906 17.74 17.23C17.7398 17.3088 17.7697 17.3848 17.8236 17.4424C17.8775 17.5 17.9513 17.5349 18.03 17.54C18.62 17.64 19.23 17.76 19.88 17.82H20.15V19.59V20.53C20.15 20.84 20.2 21.16 20.24 21.48C20.32 22.19 20.44 22.91 20.55 23.69C20.5525 23.7346 20.5639 23.7784 20.5834 23.8187C20.6029 23.8589 20.6301 23.895 20.6636 23.9247C20.697 23.9544 20.736 23.9773 20.7783 23.9919C20.8206 24.0065 20.8653 24.0127 20.91 24.01C20.9547 24.0074 20.9984 23.9961 21.0387 23.9766C21.079 23.9571 21.115 23.9299 21.1447 23.8964C21.1745 23.863 21.1973 23.824 21.2119 23.7817C21.2266 23.7394 21.2327 23.6946 21.23 23.65C21.23 22.87 21.31 22.14 21.32 21.42V20.42C21.32 20.06 21.32 19.79 21.23 19.47C21.15 18.92 21.02 18.36 20.89 17.79H21.47C22.11 17.74 22.72 17.66 23.31 17.6C23.4002 17.6 23.4866 17.5641 23.5504 17.5004C23.6142 17.4366 23.65 17.3501 23.65 17.26C23.65 17.1698 23.6142 17.0833 23.5504 17.0196C23.4866 16.9558 23.4002 16.92 23.31 16.92L23.3 16.93Z" fill="black"/>
</g>
<defs>
<clipPath id="clip0_1052_9091">
<rect width="24" height="24" fill="white"/>
</clipPath>
</defs>
</svg>
