<svg width="24" height="24" viewBox="0 0 24 24" fill="none" xmlns="http://www.w3.org/2000/svg">
<g clip-path="url(#clip0_1052_9075)">
<path fill-rule="evenodd" clip-rule="evenodd" d="M17.88 13.51C17.9597 13.1817 17.9416 12.8373 17.8279 12.5192C17.7142 12.2011 17.5098 11.9233 17.24 11.72C16.83 11.44 14.65 11 13.68 9.96999C13.21 9.47999 13.12 8.83999 13.78 7.96999V7.91999C14.5004 8.16827 15.2842 8.16121 16 7.89999C17.1716 7.4189 18.1304 6.53121 18.7 5.39999C21.05 0.999989 16.93 -0.570011 14.37 0.179988C13.2988 0.502445 12.3884 1.21651 11.82 2.17999C11.3319 3.12184 11.1971 4.20735 11.44 5.23999C9.6873 5.70725 8.08536 6.62018 6.79001 7.88999C5.35754 9.31143 4.30235 11.0678 3.72001 13C3.51885 13.8879 3.39174 14.791 3.34001 15.7C3.19001 17.48 3.10001 19.47 3.11001 19.7C3.04191 20.7551 3.18818 21.813 3.54001 22.81C3.65382 23.0721 3.82249 23.3069 4.03467 23.4983C4.24684 23.6898 4.49759 23.8336 4.77001 23.92C5.15814 24.0628 5.58099 24.0818 5.98036 23.9744C6.37972 23.8669 6.73596 23.6383 7.00001 23.32C7.60247 22.5134 7.95065 21.5455 8.00001 20.54C8.15001 18.78 8.00001 16.86 8.13001 15.25C8.14778 14.8315 8.18784 14.4142 8.25001 14C8.36788 13.4706 8.58505 12.9684 8.89001 12.52C9.0856 12.2117 9.30281 11.9176 9.54001 11.64C10.1219 12.5501 10.7918 13.4008 11.54 14.18C12.2347 14.7901 13.0873 15.1922 14 15.34C14.9364 15.5129 15.9033 15.3943 16.77 15C17.0569 14.8534 17.3063 14.6428 17.4988 14.3844C17.6912 14.1261 17.8217 13.8269 17.88 13.51ZM12.69 2.60999C13.0975 1.82584 13.7872 1.22545 14.62 0.929989C16.85 0.109989 19.78 1.71999 17.85 4.92999C17.4239 5.66387 16.8002 6.26331 16.05 6.65999C15.7172 6.8512 15.3424 6.95761 14.9588 6.96981C14.5751 6.98202 14.1943 6.89966 13.85 6.72999C13.5203 6.55247 13.2327 6.30609 13.0067 6.00759C12.7807 5.70908 12.6215 5.36544 12.54 4.99999C12.3031 4.21097 12.3563 3.36319 12.69 2.60999ZM16.4 14.2C15.7041 14.4882 14.9379 14.5613 14.2 14.41C13.4572 14.2878 12.764 13.9585 12.2 13.46C11.4451 12.6433 10.775 11.752 10.2 10.8C10.1218 10.6741 10.0349 10.5538 9.94001 10.44C9.89121 10.3847 9.8312 10.3403 9.76396 10.31C9.69672 10.2796 9.62379 10.2639 9.55001 10.2639C9.47624 10.2639 9.40331 10.2796 9.33606 10.31C9.26882 10.3403 9.20881 10.3847 9.16001 10.44C8.58489 10.9839 8.08995 11.6068 7.69001 12.29C7.3979 12.7672 7.19146 13.2917 7.08001 13.84C6.97222 14.5015 6.91206 15.1699 6.90001 15.84C6.90001 17.28 6.90001 18.91 6.78001 20.42C6.74031 21.0603 6.56294 21.6845 6.26001 22.25C6.15551 22.4685 5.97524 22.6417 5.7527 22.7373C5.53016 22.8329 5.28047 22.8446 5.05001 22.77C4.89321 22.6982 4.75491 22.5915 4.64571 22.4581C4.53651 22.3246 4.45931 22.1679 4.42001 22C4.23549 21.2375 4.15145 20.4542 4.17001 19.67C4.17001 19.45 4.17001 17.51 4.31001 15.78C4.33837 14.9378 4.42862 14.0989 4.58001 13.27C5.07318 11.4466 6.01517 9.77576 7.32001 8.40999C8.51168 7.18026 10.0045 6.28389 11.65 5.80999C11.9291 6.58036 12.4662 7.23045 13.17 7.64999C12.7975 8.02471 12.5884 8.53162 12.5884 9.05999C12.5884 9.58836 12.7975 10.0953 13.17 10.47C14.17 11.56 16.38 12.1 16.81 12.4C16.9401 12.5144 17.034 12.6642 17.0802 12.8312C17.1264 12.9982 17.1229 13.175 17.07 13.34C17.0349 13.5264 16.9558 13.7016 16.8393 13.8512C16.7227 14.0008 16.5721 14.1204 16.4 14.2Z" fill="black"/>
<path fill-rule="evenodd" clip-rule="evenodd" d="M20.88 19.91C20.8359 19.1068 20.6602 18.3163 20.36 17.57C20.2188 17.1709 19.9902 16.8085 19.6909 16.5091C19.3915 16.2098 19.0291 15.9812 18.63 15.84C18.2224 15.7867 17.8079 15.8305 17.4204 15.9678C17.0328 16.1051 16.6832 16.332 16.4 16.63C16.3677 16.6529 16.3403 16.6819 16.3193 16.7155C16.2983 16.749 16.2841 16.7864 16.2776 16.8254C16.2711 16.8645 16.2724 16.9044 16.2814 16.9429C16.2904 16.9815 16.3069 17.0179 16.33 17.05C16.3781 17.1159 16.4502 17.1602 16.5306 17.1733C16.6111 17.1864 16.6935 17.1672 16.76 17.12C16.9799 16.9346 17.2394 16.8021 17.5185 16.7328C17.7976 16.6635 18.0889 16.6591 18.37 16.72C18.78 16.87 19.05 17.32 19.29 18.01C19.552 18.6498 19.7236 19.3229 19.8 20.01C19.9365 21.1013 20.0033 22.2002 20 23.3C20.0139 23.3814 20.0562 23.4553 20.1193 23.5086C20.1825 23.5618 20.2624 23.591 20.345 23.591C20.4276 23.591 20.5076 23.5618 20.5707 23.5086C20.6338 23.4553 20.6761 23.3814 20.69 23.3C20.8462 22.1771 20.9097 21.0433 20.88 19.91Z" fill="black"/>
</g>
<defs>
<clipPath id="clip0_1052_9075">
<rect width="24" height="24" fill="white"/>
</clipPath>
</defs>
</svg>
