<svg width="24" height="24" viewBox="0 0 24 24" fill="none" xmlns="http://www.w3.org/2000/svg">
<g clip-path="url(#clip0_1052_9127)">
<path fill-rule="evenodd" clip-rule="evenodd" d="M20.66 12.1599L20.77 9.90994C20.77 9.02994 20.77 8.11994 20.72 7.19994C20.67 6.27994 20.6 5.45994 20.62 4.60994C20.6213 3.89348 20.7188 3.18043 20.91 2.48994C21.0313 1.99746 21.2451 1.53254 21.54 1.11994C21.7142 0.886834 21.966 0.723684 22.25 0.659942C22.2931 0.655093 22.3348 0.641521 22.3726 0.620049C22.4103 0.598578 22.4432 0.569657 22.4694 0.535046C22.4956 0.500435 22.5145 0.460858 22.5249 0.418721C22.5353 0.376584 22.5371 0.332769 22.53 0.289942C22.5176 0.203255 22.4721 0.124717 22.4032 0.0706929C22.3343 0.0166685 22.2472 -0.00867549 22.16 -5.80987e-05C21.7124 0.0635892 21.3016 0.283147 21 0.619942C20.5952 1.07924 20.2829 1.61231 20.08 2.18994C19.7015 3.19984 19.515 4.27155 19.53 5.34994C19.5302 6.12569 19.5803 6.90063 19.68 7.66994C19.6751 7.73985 19.6751 7.81003 19.68 7.87994C19.6524 7.83617 19.614 7.80027 19.5684 7.77574C19.5229 7.75121 19.4717 7.73887 19.42 7.73994C18.32 7.73994 15.62 7.64994 13.42 7.64994C12.5453 7.6341 11.6703 7.67083 10.8 7.75994C10.2218 7.80023 9.64713 7.88042 9.08001 7.99994C8.82794 8.05891 8.60065 8.19528 8.43001 8.38994C8.19603 8.72111 8.02018 9.08971 7.91001 9.47994C7.68001 10.2399 7.57001 11.1799 7.42001 11.8099C7.09001 13.2599 6.75001 14.6999 6.42001 16.1499C6.24001 16.9899 6.08001 17.8399 5.93001 18.6999C5.56434 18.8403 5.22594 19.0433 4.93001 19.2999C4.89652 19.3247 4.86856 19.3562 4.8479 19.3923C4.82724 19.4285 4.81434 19.4685 4.81001 19.5099C4.76811 19.5486 4.73116 19.5922 4.70001 19.6399C4.40437 19.9832 4.20128 20.3962 4.11001 20.8399C4.04589 21.1937 4.04589 21.5562 4.11001 21.9099L3.11001 21.7399H2.65001C2.4935 21.73 2.33651 21.73 2.18001 21.7399C1.80811 21.7983 1.4406 21.8818 1.08001 21.9899C1.01107 22.0027 0.948776 22.0392 0.903938 22.0931C0.859099 22.1469 0.834549 22.2148 0.834549 22.2849C0.834549 22.355 0.859099 22.4229 0.903938 22.4768C0.948776 22.5307 1.01107 22.5672 1.08001 22.5799C1.45001 22.6399 1.78001 22.7499 2.15001 22.8099C2.30651 22.8199 2.4635 22.8199 2.62001 22.8099C2.77318 22.8199 2.92683 22.8199 3.08001 22.8099C3.46001 22.7599 3.81001 22.6799 4.19001 22.5999H4.28001C4.5115 23.0216 4.85839 23.3684 5.28001 23.5999C5.74392 23.8497 6.26543 23.9729 6.79207 23.9571C7.31871 23.9413 7.8319 23.7871 8.28 23.5099C8.65682 23.2398 8.96091 22.8805 9.16518 22.4643C9.36945 22.048 9.46754 21.5877 9.45071 21.1243C9.43387 20.661 9.30264 20.209 9.06871 19.8086C8.83478 19.4083 8.50543 19.0721 8.11 18.8299C7.65497 18.5827 7.13374 18.4848 6.62001 18.5499C6.81001 17.7999 6.99001 17.0599 7.20001 16.3299C7.3 15.9699 7.41001 15.6099 7.51001 15.2499H8.75001H9.39001L10.03 15.1699L11 14.9999C10.4501 16.2285 10.2661 17.5895 10.47 18.9199C10.7449 20.4224 11.5726 21.7674 12.79 22.6899C13.9876 23.6235 15.4841 24.0892 17 23.9999C18.3561 23.8236 19.6317 23.2572 20.672 22.3696C21.7123 21.482 22.4724 20.3114 22.86 18.9999C23.3283 17.7799 23.3654 16.4364 22.9653 15.1923C22.5651 13.9482 21.7517 12.8783 20.66 12.1599ZM7.66001 19.5599C7.90445 19.7328 8.10133 19.9646 8.23243 20.2338C8.36353 20.503 8.4246 20.8009 8.41001 21.0999C8.42265 21.3839 8.36217 21.6664 8.23435 21.9203C8.10653 22.1742 7.91565 22.391 7.68001 22.5499C7.39992 22.7325 7.0762 22.8371 6.74223 22.853C6.40825 22.8688 6.0761 22.7952 5.78001 22.6399C5.49507 22.4822 5.26665 22.2393 5.12676 21.9451C4.98688 21.651 4.94256 21.3205 5.00001 20.9999C5.04843 20.5952 5.2194 20.2148 5.49001 19.9099C5.59748 19.784 5.71817 19.67 5.85001 19.5699C6.07754 19.45 6.32483 19.3721 6.58001 19.3399C6.95461 19.2865 7.33617 19.3642 7.66001 19.5599ZM10 14.0999H9.33001L8.67001 14.1899C8.37001 14.2599 8.08001 14.3399 7.78001 14.4299C8.02001 13.6399 8.25001 12.8399 8.49001 12.0499C8.65 11.4299 8.79001 10.5199 9.02001 9.77994C9.02001 9.77994 9.10001 8.77994 11.02 8.82994C11.8426 8.71771 12.6703 8.64762 13.5 8.61994C15.66 8.50994 18.36 8.45994 19.5 8.38994C19.5636 8.38649 19.6246 8.36352 19.6747 8.32415C19.7248 8.28479 19.7616 8.23094 19.78 8.16994C19.85 8.74994 19.93 9.33994 19.97 9.89994L20 11.7699C19.72 11.6299 19.44 11.4899 19.16 11.3799C18.7447 11.2078 18.3123 11.0804 17.87 10.9999C17.3146 10.9106 16.7524 10.8705 16.19 10.8799C15.8051 10.8892 15.4226 10.9429 15.05 11.0399C14.9958 11.0534 14.9461 11.0807 14.9057 11.1193C14.8654 11.1579 14.8358 11.2064 14.82 11.2599C13.5403 11.6605 12.4382 12.4906 11.7 13.6099C11.5772 13.7907 11.4637 13.9776 11.36 14.1699C10.89 14.1499 10.43 14.1099 10 14.0999ZM21.9 18.6699C21.5612 19.7781 20.9087 20.7644 20.0214 21.5097C19.1341 22.255 18.05 22.7275 16.9 22.8699C15.6376 22.9497 14.3885 22.5735 13.38 21.8099C12.3575 21.0595 11.6459 19.9601 11.38 18.7199C11.0859 17.1054 11.4262 15.4397 12.33 14.0699C12.7308 13.3615 13.312 12.7718 14.0146 12.3608C14.7172 11.9498 15.516 11.7321 16.33 11.7299C16.38 11.7341 16.4303 11.7253 16.4759 11.7043C16.5214 11.6832 16.5608 11.6507 16.59 11.6099C16.9794 11.6359 17.3668 11.686 17.75 11.7599C18.1393 11.8261 18.5189 11.9403 18.88 12.0999C19.2548 12.2567 19.616 12.4439 19.96 12.6599C20.9493 13.2635 21.6893 14.2021 22.0453 15.3049C22.4013 16.4078 22.3497 17.6018 21.9 18.6699Z" fill="black"/>
<path fill-rule="evenodd" clip-rule="evenodd" d="M18.2 14.6099C17.8935 14.4359 17.5517 14.3333 17.2 14.3099C16.9643 14.28 16.7257 14.28 16.49 14.3099H16.4C16.17 14.3524 15.9429 14.4092 15.72 14.4799C15.6699 14.493 15.6237 14.518 15.5854 14.5528C15.547 14.5876 15.5178 14.6313 15.5 14.6799C15.1818 14.852 14.889 15.0674 14.63 15.3199C14.1027 15.8264 13.7521 16.489 13.63 17.2099C13.5589 17.6969 13.6062 18.1939 13.7681 18.6588C13.93 19.1236 14.2017 19.5425 14.56 19.8799C14.9261 20.2419 15.3848 20.4959 15.8858 20.6141C16.3869 20.7323 16.9108 20.7101 17.4 20.5499C17.9707 20.306 18.4692 19.9194 18.8474 19.4273C19.2257 18.9352 19.4711 18.3542 19.56 17.7399C19.6965 17.1414 19.6382 16.5148 19.3935 15.9518C19.1489 15.3887 18.7307 14.9186 18.2 14.6099ZM18.58 17.6099C18.4997 18.0371 18.3128 18.4371 18.0366 18.7728C17.7603 19.1085 17.4038 19.3689 17 19.5299C16.6999 19.6243 16.3799 19.636 16.0737 19.5638C15.7675 19.4917 15.4864 19.3383 15.26 19.1199C14.9995 18.9074 14.7931 18.6362 14.6575 18.3286C14.5219 18.0209 14.4611 17.6856 14.48 17.3499C14.5185 16.7989 14.7362 16.2756 15.1 15.8599C15.383 15.549 15.7223 15.2945 16.1 15.1099C16.3663 15.0536 16.6379 15.0268 16.91 15.0299C17.2254 15.0474 17.5314 15.1437 17.8 15.3099C18.1602 15.5535 18.4312 15.9078 18.5719 16.3192C18.7127 16.7307 18.7155 17.1767 18.58 17.5899V17.6099Z" fill="black"/>
</g>
<defs>
<clipPath id="clip0_1052_9127">
<rect width="24" height="24" fill="white"/>
</clipPath>
</defs>
</svg>
