<svg width="24" height="24" viewBox="0 0 24 24" fill="none" xmlns="http://www.w3.org/2000/svg">
<g clip-path="url(#clip0_1050_8165)">
<path d="M9.9 11.14C10.1809 11.1041 10.4498 11.0042 10.686 10.848C10.9222 10.6918 11.1193 10.4835 11.2623 10.239C11.4053 9.99463 11.4903 9.72065 11.5107 9.43821C11.5311 9.15578 11.4864 8.87243 11.38 8.61C11.23 8.2 10.97 7.67 10.6 7.9C10.5618 7.92351 10.5286 7.95436 10.5024 7.99076C10.4761 8.02716 10.4574 8.0684 10.4471 8.11209C10.4369 8.15578 10.4354 8.20107 10.4428 8.24533C10.4501 8.2896 10.4662 8.33197 10.49 8.37C11.37 10.01 9.23 10.64 8.49 9.59C8.39817 9.33116 8.38625 9.0507 8.4558 8.78501C8.52534 8.51931 8.67314 8.28065 8.88001 8.1C9.07763 7.95002 9.30144 7.83811 9.54 7.77C10.04 7.67 10.35 8.17 10.54 7.77C10.5812 7.70073 10.5938 7.61813 10.5751 7.53973C10.5565 7.46132 10.508 7.39327 10.44 7.35C10.144 7.15222 9.796 7.04666 9.44 7.04666C9.08401 7.04666 8.73601 7.15222 8.44 7.35C7.93943 7.62118 7.56616 8.07903 7.40137 8.62397C7.23658 9.16891 7.29359 9.75687 7.56 10.26C7.82613 10.6139 8.18757 10.8846 8.60199 11.0404C9.01641 11.1963 9.46666 11.2308 9.9 11.14Z" fill="black"/>
<path d="M17.05 14.51C17.0023 14.4331 16.926 14.3783 16.8378 14.3577C16.7497 14.337 16.6569 14.3523 16.58 14.4C16.5031 14.4477 16.4483 14.5241 16.4277 14.6122C16.4071 14.7004 16.4223 14.7931 16.47 14.87C17.35 16.52 15.21 17.13 14.47 16.09C14.3735 15.835 14.3552 15.557 14.4176 15.2916C14.4799 15.0261 14.62 14.7853 14.82 14.6C15.32 14.28 15.59 14.12 16.11 14.39C16.1432 14.4115 16.1804 14.426 16.2194 14.4326C16.2583 14.4393 16.2982 14.4378 16.3366 14.4285C16.375 14.4191 16.4111 14.402 16.4426 14.3782C16.4742 14.3544 16.5005 14.3244 16.52 14.29C16.75 13.92 16.06 13.61 15.63 13.55C15.2058 13.5347 14.7851 13.6313 14.41 13.83C14.1267 13.9887 13.8808 14.2066 13.6893 14.4689C13.4977 14.7313 13.365 15.0318 13.3 15.35C13.2357 15.6876 13.2594 16.0362 13.3689 16.362C13.4785 16.6878 13.6701 16.9798 13.9254 17.21C14.1807 17.4401 14.491 17.6006 14.8264 17.6759C15.1617 17.7513 15.5108 17.7389 15.84 17.64C16.1807 17.5957 16.5031 17.4604 16.7733 17.2483C17.0435 17.0361 17.2515 16.755 17.3753 16.4346C17.4992 16.1142 17.5344 15.7663 17.4771 15.4276C17.4199 15.0889 17.2723 14.7719 17.05 14.51Z" fill="black"/>
<path d="M17.19 7.80999C12.67 10.41 11.19 12.24 8.12003 15.81C7.86003 16.09 7.49003 16.63 7.12003 16.74C7.04312 16.7625 6.97831 16.8147 6.93987 16.885C6.90142 16.9554 6.89249 17.0381 6.91503 17.115C6.93758 17.1919 6.98975 17.2567 7.06008 17.2952C7.1304 17.3336 7.21312 17.3425 7.29003 17.32C8.59003 16.98 13.92 10.73 17.53 8.44999C17.6149 8.40491 17.6784 8.32795 17.7065 8.23606C17.7346 8.14417 17.7251 8.04486 17.68 7.95999C17.6349 7.87512 17.558 7.81164 17.4661 7.78351C17.3742 7.75538 17.2749 7.76491 17.19 7.80999Z" fill="black"/>
<path d="M22.26 7.54001C21.9235 7.3103 21.5566 7.12855 21.17 7.00001C21.17 6.64001 21.31 6.00001 21.28 5.65001C21.1429 4.47478 20.6391 3.37261 19.84 2.50001C19.3798 2.04506 18.8069 1.72064 18.18 1.56001C17.6868 1.35891 17.149 1.29276 16.6217 1.36833C16.0945 1.4439 15.5969 1.65847 15.18 1.99001C14.92 0.660006 13.15 0.240006 11.84 0.540006C11.015 0.701071 10.2506 1.08704 9.63116 1.65528C9.01174 2.22352 8.56144 2.95192 8.33001 3.76001C7.6632 3.37413 6.88404 3.22912 6.12305 3.34928C5.36207 3.46943 4.66549 3.84745 4.15001 4.42001C3.5197 5.04131 3.13298 5.86797 3.06001 6.75001C3.09533 6.98914 3.19565 7.21398 3.35001 7.40001C1.13001 8.14001 -0.369992 11.3 0.0800075 13.57C0.277152 14.2893 0.632723 14.9554 1.12067 15.5195C1.60862 16.0836 2.21658 16.5313 2.90001 16.83C1.35001 19.29 3.37001 23.43 9.32001 23.07C10.1436 22.9566 10.9175 22.6096 11.55 22.07C11.8561 22.525 12.2726 22.8948 12.7605 23.1449C13.2485 23.395 13.792 23.5172 14.34 23.5C18.51 23.71 21.45 19.94 21.05 16.9C20.99 16.44 20.89 16.77 21.49 16.41C22.55 15.618 23.3337 14.5124 23.73 13.25C24.4 11 23.79 9.37001 22.26 7.54001ZM22.72 13C22.389 13.9948 21.7694 14.8686 20.94 15.51C20.31 15.71 20.54 15.67 20.1 15.67C19.98 15.6598 19.8598 15.6879 19.7567 15.7503C19.6536 15.8127 19.5729 15.9062 19.5263 16.0172C19.4796 16.1283 19.4694 16.2513 19.497 16.3686C19.5246 16.4859 19.5887 16.5914 19.68 16.67C20.54 17.58 19.36 20.87 16.96 21.92C16.3272 22.2456 15.6275 22.4196 14.9159 22.4283C14.2043 22.4369 13.5005 22.2801 12.86 21.97C12.52 21.73 12.38 21.2 12.07 20.87C11.9502 20.7717 11.8 20.718 11.645 20.718C11.49 20.718 11.3398 20.7717 11.22 20.87C10.7005 21.4586 9.99431 21.8505 9.22001 21.98C4.22001 22.33 2.67001 19.15 3.75001 17.4C4.19001 17.28 4.75001 17.2 4.70001 16.6C4.70361 16.4649 4.65733 16.3332 4.57001 16.23C4.36001 16 4.16001 16.04 3.86001 16.1C3.17898 15.9541 2.5515 15.6229 2.04681 15.1429C1.54213 14.6629 1.17987 14.0529 1.00001 13.38C0.490008 11.27 2.17001 8.00001 4.32001 8.00001C4.41681 8.01857 4.51703 7.99792 4.5986 7.9426C4.68018 7.88727 4.73644 7.80181 4.75501 7.70501C4.77357 7.6082 4.75292 7.50799 4.6976 7.42641C4.64228 7.34483 4.55681 7.28857 4.46001 7.27001C4.36026 7.25101 4.26298 7.22082 4.17001 7.18001C3.69001 6.84001 3.70001 6.52001 4.00001 6.00001C4.21556 5.28571 4.70354 4.68493 5.35847 4.32753C6.0134 3.97012 6.78268 3.8848 7.50001 4.09001C8.62001 4.38001 8.50001 4.70001 8.70001 4.77001C8.77683 4.78881 8.85793 4.77753 8.92672 4.73849C8.9955 4.69946 9.04676 4.6356 9.07001 4.56001C9.17001 4.23001 8.36001 3.26001 10.55 1.89001C10.9444 1.60972 11.3909 1.41133 11.8632 1.30655C12.3356 1.20178 12.8241 1.19275 13.3 1.28001C14.61 1.57001 14.44 2.34001 14.62 2.73001C14.6446 2.80025 14.6859 2.86347 14.7404 2.91423C14.7948 2.965 14.8608 3.0018 14.9326 3.02146C15.0043 3.04113 15.0798 3.04309 15.1525 3.02716C15.2253 3.01123 15.293 2.97789 15.35 2.93001C15.6696 2.55925 16.1032 2.30506 16.5828 2.20733C17.0624 2.1096 17.5609 2.17385 18 2.39001C18.4643 2.52652 18.8887 2.77335 19.237 3.10942C19.5853 3.4455 19.847 3.86084 20 4.32001C20.3648 5.16488 20.4455 6.10533 20.23 7.00001C20.23 7.74001 20.55 7.73001 21.53 8.16001C22.8 9.75001 23.31 11.05 22.72 13Z" fill="black"/>
</g>
<defs>
<clipPath id="clip0_1050_8165">
<rect width="24" height="24" fill="white"/>
</clipPath>
</defs>
</svg>
