<svg width="24" height="24" viewBox="0 0 24 24" fill="none" xmlns="http://www.w3.org/2000/svg">
<path fill-rule="evenodd" clip-rule="evenodd" d="M12.11 8.43C12.4606 8.40644 12.7927 8.26366 13.051 8.02537C13.3093 7.78708 13.4783 7.46761 13.53 7.12C13.5581 6.91492 13.5364 6.70609 13.4668 6.51115C13.3972 6.31622 13.2816 6.1409 13.13 6C12.654 5.64243 12.1093 5.38709 11.53 5.25C11.3444 5.18698 11.1666 5.10311 11 5C10.91 4.93 10.81 4.86 10.8 4.73C10.67 3.73 12.45 4.01 13.08 4.39C13.1108 4.41055 13.1454 4.42479 13.1817 4.4319C13.218 4.439 13.2554 4.43883 13.2917 4.43139C13.328 4.42395 13.3624 4.40939 13.393 4.38855C13.4236 4.36772 13.4498 4.34102 13.47 4.31C13.509 4.24706 13.5224 4.17161 13.5075 4.0991C13.4926 4.02659 13.4506 3.96252 13.39 3.92C13.1486 3.75318 12.8864 3.6187 12.61 3.52L12.68 3.44C12.7252 3.37264 12.7589 3.29832 12.78 3.22C12.7904 3.14033 12.7904 3.05966 12.78 2.98V2.39C12.8089 2.31917 12.8106 2.24017 12.7847 2.16817C12.7589 2.09618 12.7073 2.03628 12.64 2C12.5627 1.96868 12.4765 1.96777 12.3986 1.99745C12.3206 2.02713 12.2568 2.0852 12.22 2.16C12.0791 2.31785 11.9488 2.48488 11.83 2.66C11.7894 2.73128 11.7526 2.80472 11.72 2.88C11.6917 2.96113 11.6716 3.04488 11.66 3.13C11.655 3.19323 11.655 3.25677 11.66 3.32C11.4374 3.29498 11.2126 3.29498 10.99 3.32C10.6349 3.35782 10.3093 3.53479 10.0844 3.81217C9.85945 4.08956 9.75361 4.44475 9.79 4.8C9.80102 4.99721 9.85615 5.18944 9.95134 5.36251C10.0465 5.53558 10.1793 5.68509 10.34 5.8C10.8266 6.09415 11.3516 6.31962 11.9 6.47C12.2 6.59 12.52 6.66 12.49 7C12.46 7.34 12.06 7.52 11.63 7.57C11.1072 7.61845 10.5812 7.52156 10.11 7.29C9.98349 7.21779 9.87427 7.11882 9.79 7C9.68632 6.85693 9.5991 6.70262 9.53 6.54C9.51359 6.50126 9.4897 6.46613 9.45971 6.43662C9.42972 6.40711 9.39421 6.3838 9.35521 6.36801C9.31621 6.35223 9.27448 6.34428 9.23241 6.34462C9.19034 6.34496 9.14874 6.35358 9.11 6.37C9.07126 6.38641 9.03613 6.4103 9.00663 6.44029C8.97712 6.47028 8.9538 6.50579 8.93802 6.54479C8.92223 6.58379 8.91428 6.62552 8.91462 6.66759C8.91496 6.70967 8.92359 6.75126 8.94 6.79C9.02763 7.03861 9.14875 7.27411 9.3 7.49C9.41056 7.6505 9.54951 7.78944 9.71 7.9C9.84386 7.99591 9.9881 8.07642 10.14 8.14C10.0783 8.21772 10.0309 8.30575 10 8.4C9.97854 8.4823 9.96184 8.56577 9.95 8.65V9.24C9.92739 9.31618 9.93392 9.39804 9.96834 9.46967C10.0028 9.54129 10.0626 9.59755 10.1362 9.62749C10.2098 9.65743 10.2919 9.65892 10.3666 9.63165C10.4412 9.60439 10.503 9.55033 10.54 9.48C10.6702 9.3279 10.7904 9.16757 10.9 9C10.9413 8.92707 10.9749 8.84997 11 8.77C11.0301 8.68992 11.047 8.60549 11.05 8.52C11.0549 8.4835 11.0549 8.4465 11.05 8.41C11.4 8.4734 11.7579 8.48016 12.11 8.43Z" fill="black"/>
<path fill-rule="evenodd" clip-rule="evenodd" d="M7.79999 10.32C8.12609 10.5594 8.48254 10.7544 8.85998 10.9C9.29192 11.0671 9.74753 11.165 10.21 11.19C10.8787 11.2233 11.549 11.1865 12.21 11.08C12.2842 11.0694 12.3513 11.0297 12.3963 10.9697C12.4413 10.9097 12.4606 10.8343 12.45 10.76C12.4394 10.6857 12.3997 10.6187 12.3397 10.5737C12.2797 10.5287 12.2042 10.5094 12.13 10.52C11.5086 10.5903 10.8813 10.5903 10.26 10.52C9.86044 10.4852 9.46893 10.3873 9.09999 10.23C8.78762 10.0946 8.49764 9.91253 8.23998 9.69C7.96917 9.48002 7.71508 9.24932 7.47998 9C6.87711 8.3809 6.47676 7.5931 6.33209 6.74115C6.18742 5.8892 6.30527 5.0134 6.66999 4.23C7.02577 3.4426 7.56432 2.75147 8.24089 2.21405C8.91746 1.67662 9.71251 1.3084 10.56 1.14C11.6191 0.965702 12.706 1.10113 13.69 1.53C14.6949 1.9119 15.5456 2.61497 16.11 3.53C16.4233 4.13479 16.6009 4.8007 16.6303 5.48122C16.6596 6.16174 16.5401 6.84046 16.28 7.47C16.0381 8.11852 15.6524 8.70379 15.1519 9.18182C14.6513 9.65986 14.0489 10.0182 13.39 10.23C13.3495 10.2404 13.3114 10.2588 13.2782 10.2843C13.245 10.3097 13.2173 10.3416 13.1967 10.378C13.1762 10.4145 13.1632 10.4547 13.1586 10.4963C13.154 10.5379 13.1579 10.5799 13.17 10.62C13.1815 10.6609 13.201 10.6991 13.2274 10.7324C13.2538 10.7657 13.2866 10.7934 13.3239 10.8139C13.3611 10.8344 13.402 10.8472 13.4443 10.8517C13.4866 10.8562 13.5293 10.8522 13.57 10.84C14.3387 10.6221 15.0474 10.2313 15.6419 9.69745C16.2364 9.16362 16.7009 8.50091 17 7.76C17.3346 7.02315 17.5019 6.22133 17.4898 5.41215C17.4777 4.60297 17.2865 3.80651 16.93 3.08C16.2944 1.95085 15.2925 1.07243 14.09 0.589999C12.9172 0.0550454 11.6109 -0.11565 10.34 0.0999994C9.32839 0.30956 8.38218 0.759779 7.58146 1.41254C6.78074 2.0653 6.14909 2.90138 5.73998 3.85C5.32596 4.806 5.21711 5.86649 5.42831 6.88666C5.6395 7.90683 6.16044 8.83695 6.91999 9.55C7.19467 9.82723 7.48874 10.0845 7.79999 10.32Z" fill="black"/>
<path fill-rule="evenodd" clip-rule="evenodd" d="M21 15.45C20.88 16.3 20.56 17.96 20.19 19.69C20.0429 20.6306 19.7844 21.5504 19.42 22.43C19.3291 22.4647 19.2354 22.4915 19.14 22.51C18.7533 22.5834 18.3626 22.6335 17.97 22.66C16.25 22.84 13.5 22.92 10.97 22.93C9.42826 22.9557 7.88623 22.9023 6.34998 22.77C6.05142 22.7732 5.75536 22.7154 5.47998 22.6C5.27957 22.4032 5.1258 22.164 5.02998 21.9C4.83998 21.42 4.72998 20.9 4.59998 20.44L3.56998 16.26C3.41998 15.67 2.43998 15.76 2.56998 16.26C2.78998 16.96 3.07998 17.65 3.84998 20.61C3.94918 21.1396 4.07602 21.6636 4.22998 22.18C4.36422 22.5754 4.58257 22.9371 4.86998 23.24C5.6199 23.6219 6.44845 23.8239 7.28998 23.83C8.68998 23.95 10.58 23.99 12.47 23.96C14.6999 23.945 16.9258 23.7679 19.13 23.43C19.4963 23.4019 19.8453 23.2623 20.13 23.03C20.509 22.2621 20.7622 21.4382 20.88 20.59C20.99 20.02 21.36 18.29 21.74 15.17C21.71 14.89 21 15.1 21 15.45Z" fill="black"/>
<path fill-rule="evenodd" clip-rule="evenodd" d="M3.80999 15.6C4.74999 15.6 6.18999 15.68 7.85999 15.67C9.72999 15.67 11.86 15.61 13.92 15.53C16.79 15.41 19.42 15.22 20.65 15.07C21.02 15.07 21.7 14.93 21.75 14.57C21.755 14.3893 21.7137 14.2103 21.63 14.05C21.45 13.71 21.07 13.23 20.96 13.05C20.65 12.55 20.32 12.05 19.96 11.6C19.44 10.91 18.87 10.25 18.29 9.6C18.2612 9.57097 18.2269 9.54794 18.1891 9.53222C18.1514 9.5165 18.1109 9.5084 18.07 9.5084C18.0291 9.5084 17.9886 9.5165 17.9508 9.53222C17.9131 9.54794 17.8788 9.57097 17.85 9.6C17.7908 9.6599 17.7575 9.74075 17.7575 9.825C17.7575 9.90925 17.7908 9.99009 17.85 10.05C18.39 10.69 18.93 11.36 19.42 12.05C19.7444 12.5074 20.0448 12.9814 20.32 13.47C20.38 13.58 20.48 13.96 20.62 14.23L19.5 14.3C18.05 14.37 15.91 14.42 13.64 14.49L7.76999 14.67C5.76999 14.73 4.05999 14.8 3.25999 14.78H3.08999C3.19999 14.57 3.43999 14.26 3.48999 14.17C4.11701 12.9809 4.68764 11.7628 5.19999 10.52C5.22347 10.4805 5.23685 10.4358 5.23896 10.3898C5.24106 10.3439 5.23182 10.2982 5.21205 10.2566C5.19228 10.2151 5.1626 10.1791 5.12561 10.1518C5.08863 10.1245 5.04548 10.1067 4.99999 10.1C4.93235 10.0696 4.8554 10.0672 4.78604 10.0935C4.71667 10.1197 4.66055 10.1724 4.62999 10.24C4.34999 10.85 4.04999 11.44 3.74999 12.03C3.44999 12.62 3.11999 13.19 2.74999 13.77C2.53767 14.0832 2.35997 14.4185 2.21999 14.77C1.99999 15.67 3.62999 15.6 3.80999 15.6Z" fill="black"/>
<path fill-rule="evenodd" clip-rule="evenodd" d="M12.41 12H10.73C9.78197 12.0688 8.83976 12.2024 7.91 12.4C7.83763 12.4121 7.77221 12.4504 7.72614 12.5075C7.68007 12.5647 7.65654 12.6367 7.66 12.71C7.65936 12.7527 7.66815 12.795 7.68574 12.8339C7.70334 12.8728 7.7293 12.9073 7.76177 12.935C7.79425 12.9627 7.83244 12.9829 7.87362 12.9941C7.9148 13.0054 7.95796 13.0074 8 13C8.84 13 9.66 13.07 10.5 13.09H12.17C13.12 13.09 14.05 12.92 14.99 12.79C15.0307 12.7875 15.0706 12.7769 15.1072 12.7589C15.1439 12.7409 15.1766 12.7159 15.2035 12.6852C15.2305 12.6546 15.2511 12.6189 15.2642 12.5802C15.2774 12.5416 15.2827 12.5007 15.28 12.46C15.2775 12.4179 15.2666 12.3768 15.2482 12.339C15.2297 12.3011 15.2039 12.2673 15.1723 12.2394C15.1407 12.2115 15.1039 12.1902 15.0641 12.1765C15.0242 12.1629 14.982 12.1573 14.94 12.16C14.08 12.1 13.25 12 12.41 12Z" fill="black"/>
</svg>
