<svg width="24" height="24" viewBox="0 0 24 24" fill="none" xmlns="http://www.w3.org/2000/svg">
<g clip-path="url(#clip0_1049_7806)">
<path fill-rule="evenodd" clip-rule="evenodd" d="M11.3 17.35C10.6935 17.1055 10.0438 16.9864 9.38998 17C9.15588 16.9968 8.92348 16.9597 8.69998 16.89C8.63018 16.8779 8.56444 16.8488 8.50861 16.8052C8.45279 16.7615 8.4086 16.7048 8.37998 16.64C7.92998 15.51 9.94998 15.35 10.76 15.58C10.7948 15.5927 10.8317 15.5983 10.8687 15.5966C10.9057 15.595 10.942 15.5859 10.9755 15.5701C11.0089 15.5543 11.039 15.532 11.0638 15.5045C11.0886 15.4771 11.1077 15.4449 11.12 15.41C11.1324 15.3746 11.1377 15.337 11.1353 15.2995C11.133 15.2621 11.1231 15.2254 11.1063 15.1918C11.0895 15.1583 11.0661 15.1284 11.0376 15.104C11.009 15.0797 10.9758 15.0613 10.94 15.05C10.6199 14.9288 10.282 14.8612 9.93998 14.85C9.96107 14.805 9.97781 14.7582 9.98998 14.71C10.0172 14.6223 10.034 14.5316 10.04 14.44C10.045 14.3534 10.045 14.2666 10.04 14.18C10.04 13.95 9.94998 13.76 9.91998 13.54C9.92558 13.4979 9.92274 13.4552 9.91165 13.4142C9.90056 13.3732 9.88142 13.3349 9.85537 13.3014C9.82931 13.2679 9.79685 13.2399 9.75987 13.219C9.72289 13.1982 9.68214 13.1849 9.63998 13.18C9.59846 13.1744 9.55625 13.1773 9.51588 13.1885C9.47551 13.1997 9.43784 13.219 9.40513 13.2452C9.37242 13.2713 9.34535 13.3039 9.32556 13.3408C9.30577 13.3777 9.29366 13.4183 9.28998 13.46C9.18712 13.6629 9.10019 13.8736 9.02998 14.09C9.00051 14.1776 8.9804 14.2681 8.96998 14.36C8.96481 14.4533 8.96481 14.5467 8.96998 14.64C8.98407 14.7181 9.00412 14.795 9.02998 14.87C8.77155 14.9053 8.51919 14.976 8.27998 15.08C8.09872 15.1503 7.93344 15.2563 7.79396 15.3917C7.65449 15.5271 7.54368 15.6892 7.46811 15.8683C7.39254 16.0475 7.35377 16.24 7.35409 16.4344C7.35441 16.6288 7.39382 16.8211 7.46998 17C7.53185 17.207 7.64078 17.3968 7.78824 17.5547C7.9357 17.7126 8.1177 17.8342 8.31998 17.91C8.91954 18.0769 9.53774 18.1676 10.16 18.18C10.54 18.18 10.92 18.18 10.99 18.62C11.06 19.06 10.66 19.34 10.19 19.51C9.64183 19.7202 9.04491 19.7687 8.46998 19.65C8.29607 19.599 8.13558 19.5102 7.99998 19.39C7.86495 19.2684 7.73802 19.1381 7.61998 19C7.56724 18.9365 7.49202 18.8959 7.41003 18.8866C7.32804 18.8773 7.24562 18.9 7.17998 18.95C7.14638 18.9755 7.11817 19.0074 7.09695 19.0439C7.07573 19.0804 7.06194 19.1207 7.05637 19.1625C7.05079 19.2043 7.05354 19.2469 7.06446 19.2876C7.07537 19.3284 7.09425 19.3666 7.11998 19.4C7.28289 19.636 7.47434 19.851 7.68998 20.04C7.85575 20.1718 8.04139 20.2764 8.23998 20.35C8.42383 20.4189 8.61514 20.4659 8.80998 20.49V20.56C8.79956 20.6497 8.79956 20.7403 8.80998 20.83C8.79998 20.9164 8.79998 21.0036 8.80998 21.09C8.80998 21.32 8.88998 21.51 8.92998 21.73C8.91873 21.774 8.91695 21.8198 8.92477 21.8645C8.93258 21.9092 8.94982 21.9517 8.97532 21.9892C9.00082 22.0268 9.03402 22.0584 9.0727 22.0822C9.11138 22.1059 9.15466 22.1211 9.19967 22.1268C9.24468 22.1325 9.2904 22.1286 9.33378 22.1153C9.37716 22.102 9.41721 22.0796 9.45129 22.0497C9.48536 22.0197 9.51268 21.9829 9.53142 21.9415C9.55016 21.9002 9.55989 21.8554 9.55998 21.81C9.65957 21.6068 9.74316 21.3962 9.80998 21.18C9.83945 21.0924 9.85957 21.0019 9.86998 20.91C9.8851 20.8173 9.8851 20.7227 9.86998 20.63C9.87466 20.5834 9.87466 20.5365 9.86998 20.49C10.2616 20.4593 10.6462 20.3682 11.01 20.22C11.3509 20.0718 11.633 19.8147 11.8122 19.4889C11.9913 19.1632 12.0574 18.7873 12 18.42C11.9783 18.1984 11.9033 17.9854 11.7814 17.799C11.6595 17.6127 11.4943 17.4587 11.3 17.35Z" fill="black"/>
<path fill-rule="evenodd" clip-rule="evenodd" d="M12.3 10.23C11.96 10.65 12.92 10.96 13.19 10.61C13.3194 10.445 13.4115 10.254 13.46 10.05C13.46 9.79 13.03 9.66 12.68 9.88C12.65 9.93 12.37 10.15 12.3 10.23Z" fill="black"/>
<path fill-rule="evenodd" clip-rule="evenodd" d="M20.91 6.65C20.8353 6.60952 20.7479 6.59941 20.6659 6.62176C20.584 6.64411 20.5138 6.69721 20.47 6.77C20.3366 7.0113 20.1519 7.22048 19.9291 7.38286C19.7062 7.54524 19.4506 7.6569 19.18 7.71C19.0508 7.72992 18.9192 7.72992 18.79 7.71C18.1306 7.57969 17.4618 7.50277 16.79 7.48C16.05 7.56 14.79 8.35 13.72 8.54C13.4795 8.63039 13.2134 8.62473 12.9769 8.52418C12.7405 8.42364 12.5518 8.23593 12.45 8C12.29 7.68 12.59 7.53 12.89 7.34C13.7234 6.9477 14.4633 6.38171 15.06 5.68C15.1874 5.472 15.2645 5.23718 15.2854 4.99417C15.3062 4.75116 15.2701 4.50664 15.18 4.28C14.76 3.08 14.02 2.75 13.27 2.87C12.8564 2.92959 12.4616 3.08199 12.1153 3.31578C11.7689 3.54957 11.4799 3.85869 11.27 4.22C11.14 4.47 11.49 4.76 11.78 4.55C12.074 4.13796 12.5075 3.84659 13 3.73C13.56 3.51 14.11 3.73 14.35 4.56C14.51 5.13 14.09 5.44 13.63 5.72C13.17 6 11.84 6.82 11.74 6.92C11.5258 7.1194 11.3877 7.38714 11.3494 7.67727C11.311 7.9674 11.3749 8.26183 11.53 8.51C12.48 10.31 14.16 9.61 15.3 9.07C15.8202 8.7808 16.3658 8.53979 16.93 8.35C17.5561 8.34686 18.1814 8.39367 18.8 8.49C18.9951 8.49536 19.1901 8.47519 19.38 8.43C19.7451 8.33635 20.086 8.16589 20.38 7.93C20.6371 7.69103 20.8474 7.40615 21 7.09C21.0433 7.01884 21.0581 6.93394 21.0414 6.85233C21.0247 6.77072 20.9778 6.69844 20.91 6.65Z" fill="black"/>
<path fill-rule="evenodd" clip-rule="evenodd" d="M12.23 5.64C10.62 3.7 8.01 4.64 7.86 4.64C7.12787 4.93824 6.523 5.48298 6.15 6.18C5.15 7.8 5.08 9.85 7.01 10.87C7.27 10.98 8.11 10.65 7.61 10.36C6.23 9.71 6.16 8.05 7 6.75C7.43463 6.09666 8.09225 5.62389 8.85 5.42C9.6307 5.22325 10.4558 5.30824 11.18 5.66C11.3707 5.76045 11.5431 5.8923 11.69 6.05C12 6.39 12.53 6 12.23 5.64Z" fill="black"/>
<path fill-rule="evenodd" clip-rule="evenodd" d="M21.32 3.87L18.82 2.53C18.1 2.09 17.42 1.44 16.69 0.929999C16.1598 0.527726 15.5546 0.235346 14.91 0.0699991C14.3417 -0.0401401 13.7548 -0.00634013 13.2029 0.16832C12.651 0.342981 12.1515 0.652952 11.75 1.07C11.2342 1.60695 10.7596 2.1819 10.33 2.79C10.0818 3.14062 9.86434 3.512 9.67999 3.9C9.77999 4.12 9.96999 4.18 10.24 4.07C10.4296 3.77211 10.6401 3.48806 10.87 3.22C11.3189 2.6967 11.8106 2.21169 12.34 1.77C12.6447 1.47744 13.0161 1.26354 13.4221 1.1468C13.8281 1.03006 14.2564 1.01399 14.67 1.1C15.3209 1.29473 15.9309 1.60649 16.47 2.02C17.0868 2.46515 17.7278 2.87578 18.39 3.25L21.05 4.43C21.0873 4.44847 21.1279 4.45924 21.1695 4.46167C21.211 4.4641 21.2526 4.45813 21.2918 4.44414C21.331 4.43014 21.367 4.40839 21.3976 4.38019C21.4282 4.35199 21.4528 4.31792 21.47 4.28C21.5015 4.20537 21.5036 4.12154 21.4758 4.04545C21.4479 3.96935 21.3923 3.90665 21.32 3.87Z" fill="black"/>
<path fill-rule="evenodd" clip-rule="evenodd" d="M10.8 10.88C10.1327 10.8593 9.46482 10.8794 8.79999 10.94C8.55999 10.94 6.35999 11.27 5.88999 11.36C5.4094 11.4237 4.96492 11.6495 4.62999 12C4.46999 12.27 4.43999 12.64 4.96999 13.08C5.02045 13.1244 5.08325 13.1523 5.14999 13.16C4.81201 13.5645 4.50766 13.9959 4.23999 14.45C3.91888 15.0073 3.63493 15.5852 3.38999 16.18C3.21999 16.59 3.05999 17.01 2.91999 17.44C2.77862 17.8757 2.66506 18.3199 2.57999 18.77C2.5178 19.0995 2.49098 19.4348 2.49999 19.77C2.50672 20.1084 2.55714 20.4445 2.64999 20.77C2.72687 21.0031 2.82045 21.2304 2.92999 21.45C3.0398 21.6709 3.16338 21.8846 3.29999 22.09C3.80138 22.906 4.5896 23.5052 5.50999 23.77C6.79303 23.9703 8.09435 24.0273 9.38999 23.94C10.8574 24.0651 12.3345 24.0148 13.79 23.79C14.5038 23.6557 15.1596 23.3068 15.67 22.79C15.9694 22.4597 16.1915 22.0669 16.32 21.64C16.4909 21.0593 16.5685 20.4551 16.55 19.85C16.5713 18.7232 16.4537 17.5981 16.2 16.5C16.0194 15.7402 15.7045 15.0189 15.27 14.37C15.1032 14.1339 14.9158 13.913 14.71 13.71C14.512 13.5134 14.3015 13.3297 14.08 13.16C13.9802 13.088 13.8767 13.0212 13.77 12.96L13.95 12.8C14.0398 12.7197 14.1114 12.6209 14.1597 12.5105C14.208 12.4001 14.232 12.2805 14.23 12.16C14.222 12.0178 14.1807 11.8795 14.1095 11.7562C14.0383 11.6329 13.9391 11.528 13.82 11.45C13 10.81 12.18 10.93 10.8 10.88ZM13.24 12.12C13.2433 12.1499 13.2433 12.1801 13.24 12.21C13.1292 12.3056 13.0256 12.4092 12.93 12.52C12.8417 12.6231 12.78 12.7463 12.7503 12.8788C12.7207 13.0113 12.724 13.1491 12.76 13.28C12.7893 13.3846 12.8483 13.4784 12.93 13.55C13.05 13.67 13.38 13.86 13.45 13.92C13.6363 14.0725 13.8133 14.2362 13.98 14.41C14.143 14.5697 14.2873 14.7475 14.41 14.94C14.7673 15.5039 15.0213 16.127 15.16 16.78C15.3763 17.7951 15.4703 18.8325 15.44 19.87C15.4463 20.2903 15.4027 20.7099 15.31 21.12C15.2439 21.4908 15.078 21.8365 14.83 22.12C14.3024 22.577 13.6371 22.8445 12.94 22.88C11.7485 22.973 10.5515 22.973 9.35999 22.88C8.14329 23.007 6.91669 23.007 5.69999 22.88C4.99595 22.6754 4.39121 22.2201 3.99999 21.6C3.88062 21.4293 3.77046 21.2524 3.66999 21.07C3.5698 20.8962 3.48931 20.7117 3.42999 20.52C3.34073 20.2622 3.29018 19.9926 3.27999 19.72C3.24983 19.4408 3.24983 19.1592 3.27999 18.88C3.34837 18.4581 3.44187 18.0407 3.55999 17.63C3.67999 17.21 3.81999 16.8 3.96999 16.4C4.18576 15.8286 4.44311 15.2738 4.73999 14.74C5.02158 14.2074 5.35664 13.7048 5.73999 13.24C5.99999 12.94 5.57999 12.8 5.30999 12.58C5.18999 12.47 5.11999 12.4 5.10999 12.32C5.09999 12.24 5.19999 12.26 5.25999 12.22C5.49401 12.1094 5.74356 12.0352 5.99999 12C6.77999 11.87 7.57999 11.76 8.37999 11.7C9.16455 11.6287 9.95312 11.612 10.74 11.65C11.295 11.655 11.8492 11.6917 12.4 11.76C12.7072 11.8025 12.9973 11.9269 13.24 12.12Z" fill="black"/>
</g>
<defs>
<clipPath id="clip0_1049_7806">
<rect width="24" height="24" fill="white"/>
</clipPath>
</defs>
</svg>
