<svg width="24" height="24" viewBox="0 0 24 24" fill="none" xmlns="http://www.w3.org/2000/svg">
<g clip-path="url(#clip0_1050_8211)">
<path fill-rule="evenodd" clip-rule="evenodd" d="M24.22 0.209989C24.08 -0.140011 23.47 -1.14143e-05 23 0.0999886C20.38 0.589989 21.15 -1.14441e-05 20.31 2.49999H19.31C14.73 2.67999 12.94 2.32999 12.77 3.49999C12.8754 4.78031 13.1236 6.04484 13.51 7.26999C13.2807 7.47596 13.1052 7.7349 12.9989 8.02424C12.8926 8.31357 12.8586 8.62453 12.9 8.92999C12.9599 9.18377 13.0812 9.41894 13.2534 9.61477C13.4256 9.8106 13.6433 9.96108 13.8873 10.053C14.1313 10.1448 14.3942 10.1753 14.6527 10.1416C14.9113 10.108 15.1576 10.0113 15.37 9.85999C15.72 9.63337 15.9726 9.28402 16.0781 8.88061C16.1836 8.4772 16.1343 8.04892 15.94 7.67999H17.94C17.15 9.14999 19.05 10.3 20.31 9.60999C20.5633 9.48102 20.775 9.28321 20.9208 9.03929C21.0666 8.79537 21.1406 8.51526 21.1344 8.23114C21.1281 7.94703 21.0418 7.67045 20.8853 7.4332C20.7289 7.19595 20.5087 7.00767 20.25 6.88999C20.9 4.20999 21.42 3.26999 21.84 1.33999C21.99 1.33999 21.84 1.33999 23.15 0.939989C23.71 0.789989 24.44 0.739989 24.22 0.209989ZM15.14 8.38999C15 9.05999 13.99 9.09999 13.93 8.51999C13.82 7.30999 15.36 7.36999 15.14 8.38999ZM14.46 6.63999C14.4325 6.52714 14.3957 6.41676 14.35 6.30999C14.2867 5.49942 14.1358 4.69809 13.9 3.91999C14.4554 3.77703 15.0201 3.67344 15.59 3.60999C20.05 3.20999 18.16 3.23999 20.12 3.15999C19.8214 4.30397 19.6537 5.47816 19.62 6.65999C19.2644 6.63556 18.9112 6.73445 18.62 6.93999C17.67 6.81999 15.24 6.67999 14.46 6.63999ZM19.85 8.55999C19.586 8.61144 19.3125 8.57637 19.07 8.45999C18.13 8.05999 20.27 6.45999 20.23 8.10999C20.2225 8.21556 20.1816 8.31601 20.1133 8.39688C20.045 8.47775 19.9528 8.53486 19.85 8.55999Z" fill="black"/>
<path fill-rule="evenodd" clip-rule="evenodd" d="M6.14999 21.32C6.40581 21.433 6.6825 21.4911 6.96218 21.4906C7.24187 21.4901 7.51833 21.4309 7.77371 21.3168C8.02909 21.2028 8.25772 21.0365 8.44483 20.8286C8.63194 20.6207 8.77337 20.3759 8.85998 20.11C8.89579 20.0238 8.89589 19.9269 8.86025 19.8406C8.82462 19.7544 8.75618 19.6858 8.66999 19.65C8.58379 19.6142 8.4869 19.6141 8.40064 19.6497C8.31437 19.6853 8.24579 19.7538 8.20999 19.84C8.06588 20.0314 7.86859 20.1762 7.64274 20.2562C7.41689 20.3362 7.17247 20.348 6.93999 20.29C6.46999 20.29 5.84999 20.17 5.59999 19.77C5.56949 19.6904 5.50863 19.6262 5.4308 19.5915C5.35297 19.5568 5.26455 19.5545 5.18499 19.585C5.10542 19.6155 5.04123 19.6763 5.00654 19.7542C4.97184 19.832 4.96949 19.9204 4.99999 20C5.07101 20.2964 5.21269 20.5713 5.41293 20.8012C5.61318 21.031 5.86606 21.209 6.14999 21.32Z" fill="black"/>
<path fill-rule="evenodd" clip-rule="evenodd" d="M12.37 19.4C11.65 19.4 12.57 20.49 10.73 21.82C8.72998 23.29 4.94998 22.92 3.72998 22.06C2.50998 21.2 2.72998 20.61 2.36998 19.74C2.35269 19.6736 2.31386 19.6148 2.25957 19.5728C2.20528 19.5309 2.1386 19.5081 2.06998 19.5081C2.00136 19.5081 1.93468 19.5309 1.88039 19.5728C1.8261 19.6148 1.78727 19.6736 1.76998 19.74C1.73618 20.2996 1.84998 20.8582 2.09998 21.36C3.03998 23.7 6.09998 24.26 8.53998 23.86C12.58 23.08 13.34 19.4 12.37 19.4Z" fill="black"/>
<path fill-rule="evenodd" clip-rule="evenodd" d="M3.08001 1.99999C3.49001 1.99999 3.91001 0.539993 3.27001 0.209993C2.63001 -0.120007 2.12001 1.99999 3.08001 1.99999Z" fill="black"/>
<path fill-rule="evenodd" clip-rule="evenodd" d="M3 3.75998C2.59 3.75998 2.26 5.22998 2.92 5.51998C3.58 5.80998 4 3.69998 3 3.75998Z" fill="black"/>
<path fill-rule="evenodd" clip-rule="evenodd" d="M4 2.86999C4 3.27999 5.42 3.69999 5.76 3.05999C6.1 2.41999 4 1.90999 4 2.86999Z" fill="black"/>
<path fill-rule="evenodd" clip-rule="evenodd" d="M2.18002 2.78999C2.18002 2.38999 0.710016 2.04999 0.410016 2.71999C0.110016 3.38999 2.24002 3.74999 2.18002 2.78999Z" fill="black"/>
<path fill-rule="evenodd" clip-rule="evenodd" d="M20.87 18.69C21.28 18.69 21.7 17.26 21.05 16.93C20.4 16.6 19.91 18.69 20.87 18.69Z" fill="black"/>
<path fill-rule="evenodd" clip-rule="evenodd" d="M20.79 20.48C20.38 20.48 20.05 21.95 20.72 22.24C21.39 22.53 21.75 20.42 20.79 20.48Z" fill="black"/>
<path fill-rule="evenodd" clip-rule="evenodd" d="M21.75 19.59C21.75 20 23.17 20.42 23.51 19.78C23.85 19.14 21.75 18.63 21.75 19.59Z" fill="black"/>
<path fill-rule="evenodd" clip-rule="evenodd" d="M20 19.52C20 19.11 18.53 18.78 18.24 19.44C17.95 20.1 20 20.47 20 19.52Z" fill="black"/>
<path fill-rule="evenodd" clip-rule="evenodd" d="M11.79 12.07H12.84C12.6722 11.5517 12.444 11.0549 12.16 10.59C11.7446 10.0375 11.1511 9.64542 10.48 9.48001V10.48C10.7436 10.7234 10.9908 10.9839 11.22 11.26C11.427 11.5176 11.6174 11.7882 11.79 12.07Z" fill="black"/>
<path fill-rule="evenodd" clip-rule="evenodd" d="M2 12.31C2 12.25 2.08 12.18 2.13 12.1C2.43677 11.7411 2.77112 11.4068 3.13 11.1C3.54133 10.6451 4.06065 10.3012 4.64 10.1C4.68596 10.0948 4.73044 10.0805 4.7709 10.0581C4.81135 10.0356 4.84699 10.0054 4.87577 9.96922C4.90456 9.933 4.92593 9.89147 4.93867 9.847C4.9514 9.80252 4.95526 9.75598 4.95 9.71001C4.94475 9.66405 4.9305 9.61957 4.90805 9.57912C4.88561 9.53867 4.85542 9.50303 4.81921 9.47424C4.78299 9.44546 4.74146 9.42409 4.69699 9.41135C4.65251 9.39861 4.60596 9.39476 4.56 9.40001C3.84801 9.43165 3.16085 9.67104 2.58331 10.0886C2.00578 10.5062 1.56314 11.0838 1.31 11.75C1.31 11.75 1.24 12.06 1.19 12.34L2 12.31Z" fill="black"/>
<path fill-rule="evenodd" clip-rule="evenodd" d="M14.89 15.59C14.77 14.45 14.81 13.41 13.44 12.91C12.37 12.52 10.83 12.84 8.77999 12.84C8.85999 12.63 8.93999 12.14 8.96999 12.06C9.30999 10.78 10.92 7.82 7.24999 7.72C6.09999 7.69 5.18999 7.85 5.07999 9C5.11775 9.80638 5.2658 10.6038 5.51999 11.37C5.51999 11.46 5.80999 12.8 5.82999 12.88C5.84999 12.96 4.82999 12.97 3.87999 12.99L1.04999 13C0.699989 12.91 0.259989 13.61 0.969989 13.7C1.4992 13.741 2.03078 13.741 2.55999 13.7C4.23999 13.85 3.28999 13.7 9.68999 13.81C11.02 13.81 13.43 13.37 13.69 14.63C13.82 16.25 13.99 17.13 12.52 17.83C11.7944 18.1893 10.9634 18.2746 10.18 18.07C10.01 18.07 9.85999 18.01 9.64999 17.58C9.32999 16.93 9.51999 16.68 9.39999 16.3C9.36167 16.186 9.29461 16.0837 9.20528 16.0032C9.11595 15.9226 9.00736 15.8664 8.88999 15.84L7.29999 15.67C6.83177 15.6829 6.36606 15.7432 5.90999 15.85C4.74999 16.21 4.99999 17.18 4.67999 17.54C4.25212 17.9298 3.72247 18.1903 3.15251 18.2912C2.58256 18.3921 1.99567 18.3293 1.45999 18.11C0.529989 17.83 0.379989 16.73 0.459989 15.78C0.60907 15.2307 0.70287 14.6679 0.739989 14.1C0.668203 14.0421 0.576461 14.0149 0.484705 14.0242C0.39295 14.0336 0.308599 14.0788 0.249989 14.15C-0.0300111 14.42 -1.13001 18.06 1.16999 18.87C1.85626 19.1693 2.61403 19.2652 3.35323 19.1465C4.09244 19.0277 4.78201 18.6992 5.33999 18.2C5.70999 17.83 5.71999 17.38 5.88999 17.02C5.95412 16.93 6.05113 16.8689 6.15999 16.85C6.81848 16.7023 7.5015 16.7023 8.15999 16.85C8.15999 16.98 8.23999 17.12 8.24999 17.17C8.33721 17.7936 8.62918 18.3705 9.07999 18.81C9.4763 19.0901 9.94508 19.2499 10.43 19.27C12.15 19.52 14.32 18.53 14.75 16.87C14.8516 16.4512 14.8987 16.0209 14.89 15.59ZM8.04999 12.85H6.52999C6.52999 12.07 5.84999 9 6.29999 9C6.98472 8.87058 7.69139 8.92228 8.34999 9.15C8.99999 9.61 7.99999 12.08 8.04999 12.85Z" fill="black"/>
</g>
<defs>
<clipPath id="clip0_1050_8211">
<rect width="24" height="24" fill="white"/>
</clipPath>
</defs>
</svg>
