<svg width="24" height="24" viewBox="0 0 24 24" fill="none" xmlns="http://www.w3.org/2000/svg">
<g clip-path="url(#clip0_1050_8235)">
<path fill-rule="evenodd" clip-rule="evenodd" d="M12.38 4.52999C12.2176 4.50514 12.0524 4.50514 11.89 4.52999C11.6513 4.55892 11.4204 4.63362 11.21 4.74999C10.9576 4.87938 10.7371 5.06306 10.5642 5.28783C10.3913 5.51261 10.2703 5.7729 10.21 6.04999C10.1938 6.08934 10.1856 6.13152 10.1859 6.17407C10.1862 6.21661 10.195 6.25867 10.2118 6.29778C10.2285 6.33689 10.2529 6.37226 10.2835 6.40183C10.3141 6.4314 10.3503 6.45457 10.39 6.46999C10.4709 6.49939 10.5602 6.49598 10.6386 6.46048C10.7171 6.42498 10.7786 6.3602 10.81 6.27999C10.9689 5.98846 11.2283 5.76458 11.54 5.64999C12.7 5.30999 13.11 5.86999 13.21 6.00999C13.228 6.0595 13.2565 6.10458 13.2934 6.14221C13.3303 6.17985 13.3748 6.20916 13.4239 6.2282C13.4731 6.24723 13.5257 6.25555 13.5784 6.25258C13.631 6.24962 13.6824 6.23545 13.7291 6.21103C13.7758 6.1866 13.8167 6.15247 13.8491 6.11094C13.8816 6.0694 13.9048 6.02141 13.9172 5.97019C13.9296 5.91896 13.9309 5.86568 13.921 5.8139C13.9112 5.76213 13.8903 5.71306 13.86 5.66999C13.7441 5.36085 13.5442 5.09028 13.2826 4.88883C13.0211 4.68738 12.7084 4.56308 12.38 4.52999Z" fill="black"/>
<path fill-rule="evenodd" clip-rule="evenodd" d="M7.00001 4.40999C7.31403 3.77122 7.7332 3.18978 8.24001 2.68999C8.74255 2.20808 9.34276 1.83977 10 1.60999C10.6749 1.35894 11.39 1.23354 12.11 1.23999C12.8336 1.2282 13.5539 1.3398 14.24 1.56999C14.9421 1.78283 15.5925 2.13885 16.1502 2.6156C16.7078 3.09236 17.1606 3.6795 17.48 4.33999C17.492 4.3919 17.5151 4.4406 17.5477 4.48275C17.5803 4.52491 17.6216 4.55954 17.6688 4.58427C17.7159 4.60899 17.7679 4.62324 17.8211 4.62603C17.8743 4.62881 17.9275 4.62008 17.977 4.60042C18.0265 4.58076 18.0712 4.55063 18.108 4.51211C18.1448 4.47358 18.1729 4.42757 18.1902 4.3772C18.2076 4.32684 18.2139 4.27332 18.2087 4.22029C18.2035 4.16727 18.1869 4.11601 18.16 4.06999C17.8565 3.25536 17.3829 2.51474 16.7708 1.89745C16.1587 1.28015 15.4221 0.800354 14.61 0.489995C13.804 0.160713 12.9407 -0.00581869 12.07 -5.4814e-06C11.1943 0.0136262 10.3303 0.204106 9.53001 0.559995C8.78063 0.924205 8.11885 1.44613 7.59001 2.08999C7.06631 2.70046 6.65953 3.40217 6.39001 4.15999C6.37355 4.19873 6.36488 4.24033 6.36451 4.28242C6.36415 4.3245 6.37209 4.36625 6.38788 4.40526C6.40367 4.44428 6.427 4.47979 6.45654 4.50978C6.48608 4.53976 6.52124 4.56362 6.56001 4.57999C6.59976 4.59968 6.64316 4.6109 6.68747 4.61292C6.73178 4.61494 6.77602 4.60773 6.8174 4.59175C6.85877 4.57576 6.89637 4.55135 6.92781 4.52006C6.95924 4.48877 6.98383 4.45129 7.00001 4.40999Z" fill="black"/>
<path fill-rule="evenodd" clip-rule="evenodd" d="M15.93 5.65C15.9467 5.69498 15.9721 5.73619 16.0049 5.7712C16.0376 5.80621 16.0771 5.83433 16.1209 5.85389C16.1646 5.87345 16.2119 5.88407 16.2598 5.88512C16.3078 5.88617 16.3554 5.87763 16.4 5.86C16.4899 5.82223 16.5619 5.75133 16.601 5.66198C16.6401 5.57263 16.6433 5.47168 16.61 5.38C16.3928 4.76982 16.0475 4.21319 15.5973 3.7475C15.1471 3.2818 14.6025 2.91782 14 2.68C13.3993 2.42495 12.7527 2.29563 12.1 2.3C11.4429 2.30321 10.7945 2.44997 10.2 2.73C9.64604 3.01026 9.16107 3.40984 8.78003 3.9C8.40289 4.36268 8.10856 4.88707 7.91003 5.45C7.89357 5.48874 7.8849 5.53034 7.88453 5.57243C7.88417 5.61451 7.89211 5.65626 7.9079 5.69527C7.92369 5.73429 7.94702 5.7698 7.97656 5.79979C8.0061 5.82977 8.04126 5.85363 8.08003 5.87C8.15969 5.90366 8.24937 5.9047 8.32979 5.87291C8.4102 5.84111 8.47492 5.77903 8.51003 5.7C8.74214 5.24799 9.05378 4.8415 9.43003 4.5C9.78054 4.17553 10.1966 3.93001 10.65 3.78C11.1255 3.6129 11.6261 3.52835 12.13 3.53C12.635 3.52768 13.1373 3.60186 13.62 3.75C14.1141 3.8929 14.5738 4.13511 14.971 4.46181C15.3681 4.7885 15.6945 5.19282 15.93 5.65Z" fill="black"/>
<path fill-rule="evenodd" clip-rule="evenodd" d="M21.63 12.07C21.4769 11.1345 21.088 10.2535 20.5 9.50999C19.964 8.84868 19.2785 8.32426 18.5 7.97999C18.4863 7.91824 18.4541 7.86215 18.4076 7.81925C18.3611 7.77635 18.3027 7.74869 18.24 7.73999C17.7148 7.61639 17.1791 7.54273 16.64 7.51999H14.32H11.65C10.3 7.57999 8.98001 7.74999 7.65001 7.90999C7.60709 7.91125 7.56487 7.92112 7.52586 7.93904C7.48684 7.95695 7.45183 7.98253 7.4229 8.01425C7.39398 8.04597 7.37174 8.08319 7.35749 8.12369C7.34325 8.16419 7.3373 8.20714 7.34001 8.24999C7.34517 8.33575 7.38358 8.41613 7.44707 8.47401C7.51056 8.5319 7.59413 8.56275 7.68001 8.55999C9.01 8.55999 10.33 8.69999 11.68 8.71999H14.35C15.24 8.71999 16.13 8.50999 17.02 8.47999C17.3529 8.45615 17.6871 8.45615 18.02 8.47999C18.7116 8.87158 19.2956 9.4281 19.72 10.1C20.1273 10.7522 20.3709 11.4933 20.43 12.26C20.4702 12.5281 20.4903 12.7989 20.49 13.07C20.4965 13.2862 20.4556 13.5013 20.37 13.7C20.2633 13.9855 20.0742 14.233 19.8268 14.411C19.5794 14.589 19.2847 14.6896 18.98 14.7C18.6557 14.737 18.3273 14.6902 18.0262 14.5641C17.7251 14.4381 17.4613 14.237 17.26 13.98C17.2128 13.9083 17.1421 13.8553 17.06 13.83C17.06 13.48 17.11 13.13 17.06 12.77C17.0499 12.5824 17.0299 12.3955 17 12.21C17 12.02 16.91 11.84 16.86 11.66C16.72 11.23 16.54 10.83 16.36 10.41C16.3265 10.3257 16.2633 10.2567 16.1823 10.2159C16.1012 10.1752 16.0081 10.1657 15.9205 10.1891C15.8329 10.2126 15.7569 10.2674 15.7071 10.3431C15.6572 10.4188 15.6369 10.5103 15.65 10.6C15.65 11.04 15.65 11.47 15.72 11.92C15.7332 12.2104 15.7767 12.4987 15.85 12.78C15.9436 13.1223 16.0639 13.4566 16.21 13.78C15.7107 14.0878 15.1576 14.2982 14.58 14.4C14.2485 14.45 13.9115 14.45 13.58 14.4C13.3457 14.386 13.1172 14.3216 12.9101 14.2111C12.703 14.1007 12.5222 13.9468 12.38 13.76C12.4273 13.3951 12.454 13.0279 12.46 12.66C12.4531 12.4083 12.4264 12.1575 12.38 11.91C12.32 11.52 12.22 11.16 12.18 10.78C12.1857 10.6824 12.1535 10.5863 12.0902 10.5118C12.0269 10.4373 11.9373 10.3901 11.84 10.38C11.7424 10.3743 11.6464 10.4065 11.5719 10.4698C11.4974 10.5331 11.4501 10.6227 11.44 10.72C11.3313 11.1161 11.2577 11.521 11.22 11.93C11.1871 12.2649 11.2108 12.6029 11.29 12.93C11.3635 13.1629 11.4537 13.3901 11.56 13.61C11.56 13.61 11.5 13.61 11.49 13.67C11.2954 13.962 11.0222 14.193 10.7019 14.3363C10.3817 14.4796 10.0274 14.5294 9.68001 14.48C9.45164 14.4706 9.22431 14.4439 9.00001 14.4C8.47758 14.3325 7.98868 14.1055 7.60001 13.75C7.75184 13.4039 7.88536 13.0501 8.00001 12.69C8.00001 12.46 8.06001 12.23 8.08001 11.99C8.08638 11.6387 8.11309 11.2882 8.16001 10.94C8.19328 10.8483 8.19004 10.7474 8.15095 10.658C8.11186 10.5687 8.03992 10.4978 7.95001 10.46C7.90471 10.4422 7.85634 10.4335 7.80768 10.4344C7.75902 10.4354 7.71102 10.4459 7.66643 10.4654C7.62185 10.4849 7.58154 10.513 7.54784 10.5481C7.51413 10.5832 7.48768 10.6246 7.47001 10.67C7.25189 11.0046 7.07399 11.3637 6.94001 11.74C6.88478 11.8958 6.8446 12.0565 6.82001 12.22C6.79992 12.3827 6.79992 12.5473 6.82001 12.71C6.84501 13.0466 6.89515 13.3809 6.97001 13.71C6.78974 13.8731 6.59568 14.0203 6.39001 14.15C6.20095 14.2646 5.99513 14.349 5.78001 14.4C5.28451 14.476 4.77766 14.3956 4.33001 14.17C3.95001 14 3.61001 13.74 3.61001 13.35C3.60327 12.9036 3.67782 12.4597 3.83001 12.04C3.9791 11.593 4.17696 11.1637 4.42001 10.76C4.94726 9.92808 5.62561 9.20224 6.42001 8.61999C6.45702 8.59922 6.48953 8.57129 6.51565 8.53784C6.54177 8.50438 6.56097 8.46607 6.57214 8.42512C6.58331 8.38417 6.58622 8.34141 6.5807 8.29932C6.57518 8.25724 6.56135 8.21668 6.54001 8.17999C6.51857 8.12957 6.48454 8.08551 6.44119 8.05201C6.39784 8.01851 6.34662 7.9967 6.29242 7.98867C6.23823 7.98065 6.18288 7.98666 6.13168 8.00615C6.08048 8.02565 6.03514 8.05796 6.00001 8.09999C4.78753 8.69509 3.75291 9.59866 3.00001 10.72C2.47748 11.5257 2.20921 12.4699 2.23001 13.43C2.27504 13.7711 2.40731 14.0948 2.61402 14.3698C2.82073 14.6448 3.09489 14.8619 3.41001 15C4.19229 15.3961 5.0935 15.4888 5.94001 15.26C6.16951 15.1997 6.39106 15.1125 6.60001 15C6.84719 14.8245 7.07512 14.6234 7.28001 14.4C7.62505 14.9324 8.12375 15.3474 8.71001 15.59C9.01225 15.6965 9.3296 15.7539 9.65 15.76C9.86532 15.7614 10.0801 15.7379 10.29 15.69C10.9481 15.4993 11.5048 15.0575 11.84 14.46C11.9938 14.7512 12.2096 15.0052 12.4722 15.2039C12.7349 15.4026 13.0379 15.5412 13.36 15.61C13.8748 15.709 14.4067 15.6675 14.9 15.49C15.5387 15.2594 16.1166 14.8867 16.59 14.4C16.6225 14.4107 16.6575 14.4107 16.69 14.4C16.9475 14.7752 17.2922 15.0822 17.6946 15.2947C18.097 15.5073 18.545 15.6189 19 15.62C19.504 15.6419 20.0038 15.52 20.4412 15.2686C20.8785 15.0171 21.2353 14.6465 21.47 14.2C21.6025 13.9136 21.6805 13.605 21.7 13.29C21.7321 12.882 21.7086 12.4716 21.63 12.07Z" fill="black"/>
<path fill-rule="evenodd" clip-rule="evenodd" d="M4.83002 22.65C4.87697 22.6394 4.92134 22.6196 4.96049 22.5916C4.99965 22.5636 5.03279 22.5281 5.05796 22.487C5.08313 22.446 5.09983 22.4004 5.10705 22.3528C5.11427 22.3052 5.11188 22.2566 5.10002 22.21C5.03743 21.8096 5.00401 21.4052 5.00002 21V19.79V18.57C5.00002 17.74 4.94002 16.91 4.90002 16.05C4.90273 16.008 4.89711 15.9658 4.88348 15.9259C4.86986 15.8861 4.8485 15.8493 4.82063 15.8177C4.79275 15.7861 4.75892 15.7603 4.72106 15.7418C4.6832 15.7234 4.64207 15.7125 4.60002 15.71C4.55769 15.7059 4.51496 15.7105 4.47449 15.7236C4.43403 15.7367 4.39669 15.7579 4.3648 15.7861C4.3329 15.8142 4.30714 15.8486 4.28912 15.8871C4.27109 15.9257 4.26119 15.9675 4.26002 16.01C4.11002 16.75 3.92002 17.46 3.82002 18.19C3.77556 18.5215 3.75218 18.8555 3.75002 19.19C3.72916 19.523 3.72916 19.857 3.75002 20.19C3.83354 20.9599 4.01501 21.716 4.29002 22.44C4.30042 22.4972 4.3253 22.5507 4.36229 22.5955C4.39928 22.6404 4.44713 22.6749 4.50129 22.696C4.55545 22.7171 4.6141 22.7239 4.67165 22.7158C4.7292 22.7078 4.78372 22.6851 4.83002 22.65Z" fill="black"/>
<path fill-rule="evenodd" clip-rule="evenodd" d="M18.66 16.19C18.6172 16.1873 18.5742 16.1932 18.5337 16.2075C18.4932 16.2217 18.456 16.244 18.4243 16.2729C18.3926 16.3018 18.367 16.3368 18.3491 16.3759C18.3312 16.4149 18.3213 16.4571 18.32 16.5C18.19 17.24 18.03 17.96 17.96 18.71V20.19C17.96 20.67 18.07 21.19 18.08 21.74C18.1112 22.0726 18.1112 22.4074 18.08 22.74C18.0709 22.7659 18.0709 22.7941 18.08 22.82C17.6809 22.8946 17.276 22.9347 16.87 22.94H15.63L15.9 20.11C15.9689 19.6633 16.0023 19.2119 16 18.76C15.9783 18.4106 15.8829 18.0698 15.72 17.76C15.5727 17.4327 15.3189 17.1648 15 17C14.6847 16.8348 14.3483 16.7137 14 16.64C13.3738 16.5115 12.7386 16.4312 12.1 16.4C11.4592 16.3722 10.8171 16.3956 10.18 16.47C9.83844 16.5049 9.50253 16.5822 9.18002 16.7C8.88637 16.805 8.62702 16.9883 8.43002 17.23C8.10487 17.6798 7.90474 18.2077 7.85002 18.76C7.81019 19.4661 7.81019 20.1739 7.85002 20.88V22.78C7.39002 22.78 6.93002 22.83 6.47002 22.83C5.89936 22.84 5.32858 22.8199 4.76002 22.77C4.71651 22.759 4.67117 22.7572 4.62694 22.7649C4.58271 22.7725 4.54059 22.7894 4.5033 22.8144C4.46602 22.8394 4.43441 22.8719 4.41052 22.9099C4.38664 22.9479 4.37101 22.9905 4.36467 23.035C4.35832 23.0794 4.36139 23.1247 4.37368 23.1678C4.38597 23.211 4.4072 23.2511 4.436 23.2855C4.4648 23.3199 4.50051 23.3479 4.54083 23.3677C4.58115 23.3874 4.62517 23.3984 4.67002 23.4C5.25157 23.5207 5.83904 23.6108 6.43002 23.67C7.32002 23.75 8.19002 23.8 9.07002 23.87C9.95002 23.94 10.65 23.95 11.44 23.96C12.23 23.97 13.03 23.96 13.83 23.89C14.63 23.82 15.6 23.84 16.48 23.77C17.0985 23.7311 17.7115 23.6306 18.31 23.47C18.3923 23.453 18.465 23.4053 18.5134 23.3365C18.5617 23.2678 18.5819 23.1832 18.57 23.1C18.74 22.97 18.93 22.6 19.07 21.76C19.15 21.24 19.17 20.71 19.23 20.17C19.29 19.63 19.23 19.17 19.23 18.7C19.23 17.96 19.09 17.23 19.04 16.49C19.038 16.4441 19.0261 16.3992 19.0051 16.3583C18.9842 16.3175 18.9547 16.2816 18.9186 16.2531C18.8826 16.2246 18.8408 16.2043 18.7962 16.1934C18.7516 16.1825 18.7051 16.1813 18.66 16.19ZM13.71 22.8H12.07C12.07 22.41 12.15 22.03 12.19 21.62V20.96V20.29C12.19 19.75 12.06 19.22 11.99 18.7C11.9874 18.6036 11.9473 18.5121 11.8782 18.4448C11.8091 18.3776 11.7164 18.34 11.62 18.34C11.5719 18.34 11.5242 18.3496 11.4799 18.3683C11.4356 18.387 11.3954 18.4145 11.3619 18.449C11.3283 18.4834 11.302 18.5243 11.2845 18.5692C11.267 18.614 11.2587 18.6619 11.26 18.71C11.19 19.24 11.08 19.77 11.02 20.32C10.9849 20.6858 10.9849 21.0542 11.02 21.42C11.0675 21.884 11.1579 22.3427 11.29 22.79H9.00002H8.44002L8.57002 20.94C8.5872 20.2702 8.64732 19.6021 8.75002 18.94C8.8068 18.5702 8.96617 18.2237 9.21002 17.94C9.31411 17.8484 9.44274 17.7893 9.58002 17.77C9.80301 17.7168 10.0309 17.6867 10.26 17.68C10.8391 17.6336 11.4209 17.6336 12 17.68C12.5773 17.6928 13.1526 17.753 13.72 17.86C13.9402 17.8885 14.1576 17.9354 14.37 18C14.5046 18.0392 14.6235 18.1196 14.71 18.23C14.8147 18.4045 14.8827 18.5984 14.91 18.8C14.9401 19.1894 14.9401 19.5806 14.91 19.97L14.83 22.85L13.71 22.8Z" fill="black"/>
</g>
<defs>
<clipPath id="clip0_1050_8235">
<rect width="24" height="24" fill="white"/>
</clipPath>
</defs>
</svg>
