<svg width="24" height="24" viewBox="0 0 24 24" fill="none" xmlns="http://www.w3.org/2000/svg">
<g clip-path="url(#clip0_1050_8205)">
<path fill-rule="evenodd" clip-rule="evenodd" d="M16.39 3.99999C17.0701 3.83523 17.7383 3.62476 18.39 3.36999C18.4376 3.32246 18.4691 3.26112 18.4798 3.1947C18.4906 3.12827 18.4802 3.06014 18.45 2.99999C18.35 2.70999 18.06 2.71999 16.28 3.07999C16.1413 3.06569 16.0012 3.08054 15.8686 3.12359C15.736 3.16664 15.6138 3.23695 15.51 3.32999C15.2863 3.86882 15.1155 4.42811 15 4.99999C14.2211 4.93987 13.4388 4.93987 12.66 4.99999C12.39 4.99999 9.31999 4.86999 8.65999 5.34999C8.23999 5.65999 8.36999 6.19999 8.43999 6.64999C8.55744 7.54983 8.74468 8.43918 8.99999 9.31C8.80201 9.46575 8.64705 9.66946 8.54981 9.90184C8.45256 10.1342 8.41624 10.3876 8.44427 10.6379C8.47231 10.8883 8.56379 11.1273 8.71003 11.3324C8.85628 11.5375 9.05245 11.7019 9.27999 11.81C9.56832 11.9241 9.88452 11.9479 10.1867 11.8783C10.4889 11.8087 10.7628 11.6489 10.9721 11.42C11.1813 11.1912 11.3162 10.9042 11.3587 10.597C11.4012 10.2899 11.3493 9.97703 11.21 9.69999H12.89C12.21 11.03 13.89 12.07 15.04 11.43C15.2547 11.3061 15.4324 11.127 15.5546 10.9113C15.6768 10.6956 15.7391 10.4511 15.735 10.2032C15.7309 9.95534 15.6606 9.71306 15.5314 9.5015C15.4021 9.28993 15.2187 9.11678 15 8.99999C15.67 6.15999 15.82 6.45 16.39 3.99999ZM10.46 10.35C10.33 10.93 9.45999 10.96 9.45999 10.35C9.53999 9.43 10.65 9.47 10.46 10.35ZM9.99999 8.74999C9.99999 8.64999 9.89999 8.52 9.88999 8.47L9.53999 6.54999C9.53999 6.26999 9.10999 6.41999 10.9 6.08999C14.64 5.74 13.23 5.74999 14.78 5.67999C14.5296 6.69143 14.3954 7.72814 14.38 8.77C14.0601 8.74702 13.7422 8.83534 13.48 9.02C12.68 8.91 10.18 8.75999 9.99999 8.74999ZM14.62 10.47C14.4057 10.5052 14.1858 10.4738 13.99 10.38C13.24 10.05 14.99 8.64 14.99 10.1C14.9709 10.1977 14.9206 10.2866 14.8467 10.3534C14.7728 10.4201 14.6792 10.461 14.58 10.47H14.62Z" fill="black"/>
<path fill-rule="evenodd" clip-rule="evenodd" d="M6.92998 14.52C6.86584 14.4764 6.78731 14.4593 6.71088 14.4724C6.63444 14.4854 6.56602 14.5276 6.51998 14.59C5.89959 15.3888 5.34764 16.2385 4.86998 17.13C4.76984 17.283 4.72516 17.4657 4.74335 17.6476C4.76155 17.8296 4.84153 17.9998 4.96998 18.13C5.96998 18.91 16.6 19.02 19.52 18.36C20.52 18.14 19.17 16.22 18.45 14.91C18.19 14.5 17.61 14.4 17.71 14.91L18.15 15.84L14.62 15.65C14.54 15.31 14.49 15.08 14.46 14.91C14.4376 14.8019 14.3786 14.7048 14.293 14.6352C14.2074 14.5655 14.1004 14.5274 13.99 14.5274C13.8796 14.5274 13.7726 14.5655 13.687 14.6352C13.6014 14.7048 13.5424 14.8019 13.52 14.91C13.505 15.1431 13.505 15.3769 13.52 15.61C12.64 15.61 11.76 15.55 10.52 15.61C10.63 15.3 10.71 15.1 10.77 14.94C10.85 14.44 10.01 14.35 9.70998 14.94C9.63998 15.07 9.52998 15.27 9.32998 15.66C8.03998 15.72 6.98998 15.79 6.47998 15.83C6.68998 15.24 7.31998 14.79 6.92998 14.52ZM18.13 16.46C18.1812 16.4584 18.2314 16.445 18.2765 16.4207C18.3216 16.3964 18.3605 16.3619 18.39 16.32C18.6 16.77 18.79 17.2 18.91 17.53C17.91 17.62 15.91 17.63 14.86 17.63C14.86 17.39 14.76 17.22 14.74 16.63C16.08 16.56 17.29 16.48 18.13 16.46ZM10.03 16.58C11.45 16.65 12.35 16.66 13.7 16.63C13.98 17.63 13.91 17.42 13.98 17.63H9.32998C9.45998 17.44 9.72998 17.08 9.99998 16.58H10.03ZM8.88998 16.52C8.79998 16.71 8.56998 17.29 8.45998 17.61C8.00998 17.61 6.18998 17.56 5.73998 17.51C5.98772 17.1502 6.16424 16.7462 6.25998 16.32C6.33998 16.36 8.80998 16.51 8.88998 16.52Z" fill="black"/>
<path fill-rule="evenodd" clip-rule="evenodd" d="M24 18.6C23.92 17.86 21.11 14.13 20.55 13.76C21.2302 11.4293 21.7054 9.0435 21.97 6.62999C22.11 5.15999 22.53 3.29999 22.07 1.78999C21.48 -1.0252e-05 14.13 0.34999 12 0.35999C9.48657 0.306892 6.97572 0.551935 4.51999 1.08999C3.51999 1.33999 2.10999 1.56999 1.87999 2.61999C1.35999 4.80999 3.35999 12.65 3.99999 13.93C4.17999 14.29 4.56999 13.81 3.99999 14.41C2.99999 15.41 0.839991 17.68 0.299991 18.41C0.135915 18.663 0.0388261 18.9536 0.017836 19.2545C-0.00315404 19.5553 0.0526431 19.8566 0.179991 20.13C0.0421395 20.5493 0.0145881 20.997 0.0999907 21.43C0.0551471 21.8864 0.156715 22.3452 0.389991 22.74C1.51999 23.95 20.86 23.74 22.5 23.41C23.56 23.17 23.5 22.41 23.66 21.41C23.6714 21.3239 23.6484 21.2367 23.596 21.1675C23.5436 21.0982 23.466 21.0524 23.38 21.04C22.81 20.96 23.08 21.89 22.78 22.4C22.48 22.91 22.6 22.69 13.69 22.57C10.02 22.52 1.23999 22.57 0.889991 22.22C0.757479 21.686 0.680404 21.1398 0.659991 20.59C3.03999 21.59 19.17 21.02 21.75 20.92C21.8384 20.9174 21.9224 20.8804 21.984 20.8169C22.0456 20.7535 22.08 20.6685 22.08 20.58C22.08 20.06 22.38 20.33 6.93999 20.03C4.41999 20.03 2.29999 19.93 1.30999 19.78C1.01999 19.78 0.929991 19.9 0.909991 19.34C0.895907 19.1941 0.927346 19.0473 0.999991 18.92C1.79999 17.67 4.84999 14.39 4.88999 14.31C4.92999 14.23 4.75999 13.89 4.51999 13.94C4.54471 13.8993 4.55779 13.8526 4.55779 13.805C4.55779 13.7574 4.54471 13.7107 4.51999 13.67C3.88999 12.34 2.18999 4.74999 2.66999 2.80999C2.71999 2.58999 2.94999 2.47999 3.18999 2.37999C4.61336 1.95205 6.07831 1.67716 7.55999 1.55999C9.75999 1.36999 15.8 1.42999 16.32 1.43999C21.92 1.60999 20.6 2.36999 21 2.16999C21.1293 2.69624 21.1765 3.23932 21.14 3.77999C20.9005 6.91412 20.4461 10.0281 19.78 13.1C19.59 13.1 19.17 13.24 18.78 13.26C15.4 13.42 6.57999 13.42 5.51999 13.45C5.4149 13.4459 5.31149 13.4772 5.22628 13.5388C5.14107 13.6005 5.079 13.6889 5.04999 13.79C5.04999 14.22 5.55999 14.11 6.10999 14.11C21.41 14.22 20.05 14.11 20.11 14.24C20.17 14.37 20.17 14.33 20.23 14.43C21.0524 15.9945 22.0307 17.472 23.15 18.84L23.42 20C23.42 20.0769 23.4505 20.1507 23.5049 20.2051C23.5593 20.2594 23.6331 20.29 23.71 20.29C23.7869 20.29 23.8607 20.2594 23.9151 20.2051C23.9694 20.1507 24 20.0769 24 20V18.6Z" fill="black"/>
</g>
<defs>
<clipPath id="clip0_1050_8205">
<rect width="24" height="24" fill="white"/>
</clipPath>
</defs>
</svg>
