<svg width="24" height="24" viewBox="0 0 24 24" fill="none" xmlns="http://www.w3.org/2000/svg">
<g clip-path="url(#clip0_1050_8243)">
<path fill-rule="evenodd" clip-rule="evenodd" d="M14 17.3C14.6057 17.2996 15.1963 17.1109 15.69 16.76C17.01 15.47 16.45 13.65 16.18 12.02C16.11 11.62 16.18 10.52 15.61 10.28C15.1477 10.0855 14.659 9.96076 14.16 9.90998C14.1177 9.36415 14.0171 8.82442 13.86 8.29998C13.7447 7.90369 13.4973 7.55873 13.159 7.32229C12.8207 7.08585 12.4118 6.97213 12 6.99998C10.55 7.19998 10.1 8.47998 9.90001 9.91998L8.90001 9.97998C8.81669 9.98475 8.73804 10.02 8.67904 10.079C8.62003 10.138 8.58478 10.2167 8.58001 10.3C8.58001 10.84 9.34001 10.65 9.85001 10.65C9.75551 11.1275 9.70861 11.6132 9.71001 12.1C9.76001 12.52 9.98001 12.7 10.24 12.64C10.5 12.58 10.6 10.99 10.68 10.64C11.41 10.64 12.68 10.64 13.37 10.71C13.44 11.28 13.49 11.85 13.5 12.34C13.5 12.4302 13.5358 12.5166 13.5996 12.5804C13.6634 12.6442 13.7498 12.68 13.84 12.68C13.9302 12.68 14.0167 12.6442 14.0804 12.5804C14.1442 12.5166 14.18 12.4302 14.18 12.34V10.83C15.71 11.14 15.01 11.23 15.13 12.16C15.29 13.37 15.76 15.08 14.88 15.93C13.8226 16.2249 12.7276 16.363 11.63 16.34C10.466 16.3398 9.3078 16.1749 8.19001 15.85C8.15079 15.8094 8.12139 15.7603 8.10406 15.7066C8.08673 15.6528 8.08192 15.5959 8.09001 15.54C8.09001 15.34 8.15001 14.16 8.19001 13.7C8.30001 12.64 8.41001 12.13 8.63001 10.95C8.64223 10.8877 8.6337 10.8232 8.60572 10.7662C8.57775 10.7093 8.53187 10.6631 8.47513 10.6347C8.41839 10.6064 8.35391 10.5974 8.29157 10.6092C8.22923 10.6209 8.17248 10.6528 8.13001 10.7C7.90588 11.2374 7.75454 11.8024 7.68001 12.38C7.50633 13.192 7.37946 14.0134 7.30001 14.84C7.24001 15.47 7.12001 16.04 7.56001 16.5C8.00001 16.96 11.15 17.78 14 17.3ZM10.84 9.87998C10.9494 9.47584 11.1143 9.08882 11.33 8.72998C11.62 8.25998 12.1 7.95998 12.49 8.25998C12.89 8.68984 13.1301 9.24414 13.17 9.82998C12.54 9.81998 11.39 9.85998 10.84 9.87998Z" fill="black"/>
<path fill-rule="evenodd" clip-rule="evenodd" d="M23.7 11.44C23.1403 11.322 22.5716 11.2518 22 11.23C21.7741 8.81603 20.6849 6.56462 18.9323 4.88925C17.1798 3.21388 14.8817 2.22705 12.46 2.10999C12.46 1.44999 12.29 0.809989 12.23 0.319989C12.23 0.240424 12.1984 0.164118 12.1421 0.107857C12.0859 0.0515961 12.0096 0.019989 11.93 0.019989C11.8504 0.019989 11.7741 0.0515961 11.7179 0.107857C11.6616 0.164118 11.63 0.240424 11.63 0.319989C11.56 0.809989 11.43 1.43999 11.37 2.09999C7.30001 2.09999 2.37001 5.91999 2.03001 11.35C0.190008 11.46 -0.969992 12.09 1.29001 12.35L2.00001 12.44C2.07001 14.81 2.87001 17.88 4.93001 19.25C4.99495 19.2852 5.07062 19.2953 5.1425 19.2782C5.21438 19.2611 5.27742 19.218 5.31955 19.1573C5.36167 19.0966 5.37991 19.0225 5.37077 18.9492C5.36162 18.8759 5.32575 18.8085 5.27001 18.76C3.44001 17.48 2.78001 14.62 2.78001 12.46C3.45222 12.4362 4.12125 12.3559 4.78001 12.22C4.85957 12.22 4.93588 12.1884 4.99214 12.1321C5.0484 12.0759 5.08001 11.9996 5.08001 11.92C5.08001 11.8404 5.0484 11.7641 4.99214 11.7079C4.93588 11.6516 4.85957 11.62 4.78001 11.62C4.06001 11.53 3.72001 11.39 2.84001 11.34C3.07142 9.20041 4.05118 7.21135 5.60638 5.72385C7.16159 4.23634 9.19226 3.34601 11.34 3.20999C11.34 3.52999 11.4 3.82999 11.42 4.08999C11.53 5.00999 11.42 5.40999 11.87 5.35999C12.32 5.30999 12.27 4.91999 12.36 4.08999C12.36 3.82999 12.43 3.53999 12.46 3.21999C14.5928 3.35812 16.6085 4.24415 18.1523 5.72212C19.6961 7.20009 20.6691 9.17526 20.9 11.3C19.17 11.58 18.76 12.09 20.98 12.3C21.04 16.78 17.88 20.83 12.2 21.3C12.1857 20.7185 12.1188 20.1394 12 19.57C12 19.4904 11.9684 19.4141 11.9121 19.3579C11.8559 19.3016 11.7796 19.27 11.7 19.27C11.6204 19.27 11.5441 19.3016 11.4879 19.3579C11.4316 19.4141 11.4 19.4904 11.4 19.57C11.3 20.18 11.13 20.57 11.04 21.38C10.0925 21.4015 9.14751 21.2733 8.24001 21C8.16849 20.9954 8.09735 21.0135 8.03676 21.0518C7.97616 21.0901 7.9292 21.1465 7.90259 21.213C7.87597 21.2796 7.87106 21.3528 7.88856 21.4223C7.90605 21.4918 7.94506 21.554 8.00001 21.6C8.96641 21.9289 9.97921 22.1011 11 22.11C10.9967 22.3514 11.0168 22.5925 11.06 22.83C11.17 23.68 11.06 23.95 11.4 23.95C11.95 24.11 11.91 23.47 12 22.83C12 22.62 12.08 22.37 12.11 22.1C18.27 21.74 21.97 17.39 21.99 12.34C22.5555 12.2735 23.1165 12.1733 23.67 12.04C23.7094 12.042 23.7488 12.0361 23.786 12.0229C23.8231 12.0096 23.8573 11.9892 23.8865 11.9627C23.9158 11.9363 23.9395 11.9043 23.9564 11.8687C23.9733 11.833 23.983 11.7944 23.985 11.755C23.987 11.7156 23.9812 11.6762 23.9679 11.639C23.9547 11.6019 23.9342 11.5677 23.9077 11.5385C23.8813 11.5092 23.8493 11.4855 23.8137 11.4686C23.778 11.4517 23.7394 11.442 23.7 11.44Z" fill="black"/>
</g>
<defs>
<clipPath id="clip0_1050_8243">
<rect width="24" height="24" fill="white"/>
</clipPath>
</defs>
</svg>
