<svg width="24" height="24" viewBox="0 0 24 24" fill="none" xmlns="http://www.w3.org/2000/svg">
<g clip-path="url(#clip0_1032_3292)">
<path fill-rule="evenodd" clip-rule="evenodd" d="M14.07 14.47C13.6066 15.0552 13.2849 15.7398 13.13 16.47C13.1189 16.5125 13.117 16.5569 13.1244 16.6003C13.1318 16.6436 13.1483 16.6848 13.1729 16.7213C13.1975 16.7577 13.2295 16.7886 13.2669 16.8117C13.3042 16.8348 13.3461 16.8497 13.3897 16.8554C13.4333 16.8612 13.4776 16.8575 13.5196 16.8448C13.5617 16.8321 13.6006 16.8106 13.6337 16.7817C13.6669 16.7528 13.6935 16.7172 13.7118 16.6773C13.7301 16.6373 13.7397 16.5939 13.74 16.55C13.9645 15.9971 14.3056 15.4991 14.74 15.09C15.4625 14.4881 16.3609 14.1372 17.3 14.09C18.0923 13.9608 18.9052 14.0844 19.6233 14.4435C20.3413 14.8025 20.928 15.3786 21.3 16.09C21.3455 16.1613 21.4152 16.2138 21.4964 16.2377C21.5776 16.2616 21.6646 16.2552 21.7415 16.2198C21.8184 16.1845 21.8798 16.1224 21.9145 16.0452C21.9491 15.9681 21.9546 15.8809 21.93 15.8C21.6442 15.0465 21.1663 14.3809 20.5438 13.8692C19.9212 13.3575 19.1756 13.0175 18.381 12.8831C17.5865 12.7486 16.7706 12.8244 16.0143 13.1027C15.258 13.3811 14.5878 13.8525 14.07 14.47Z" fill="black"/>
<path fill-rule="evenodd" clip-rule="evenodd" d="M22.35 20.44C22.3112 20.4312 22.2711 20.4301 22.2319 20.437C22.1928 20.4438 22.1554 20.4583 22.1219 20.4797C22.0884 20.5011 22.0595 20.5289 22.0368 20.5616C22.0142 20.5943 21.9982 20.6311 21.99 20.67C21.9066 20.8794 21.792 21.075 21.65 21.25C21.2614 21.7745 20.7475 22.193 20.1552 22.4673C19.5629 22.7416 18.9113 22.8629 18.26 22.82C17.4535 22.8556 16.6551 22.6464 15.9697 22.2199C15.2844 21.7933 14.7441 21.1693 14.42 20.43L16.26 21.24C16.3271 21.2714 16.4033 21.2776 16.4747 21.2577C16.5461 21.2377 16.608 21.1928 16.6491 21.1311C16.6902 21.0694 16.7079 20.995 16.6989 20.9214C16.6898 20.8479 16.6548 20.7799 16.6 20.73C15.9459 20.1805 15.2579 19.6728 14.54 19.21C14.4042 19.0913 14.2451 19.0024 14.0728 18.949C13.9006 18.8956 13.7191 18.8789 13.54 18.9C12.85 19.08 13.08 19.95 12.34 21.78V21.85C12.34 22.03 12.46 22.12 12.62 22.17C12.6683 22.1991 12.7236 22.2145 12.78 22.2145C12.8364 22.2145 12.8917 22.1991 12.94 22.17C13.2754 21.7048 13.554 21.2013 13.77 20.67C14.0075 21.431 14.4351 22.1189 15.0124 22.6687C15.5897 23.2185 16.2976 23.612 17.0693 23.8122C17.8409 24.0124 18.6509 24.0125 19.4226 23.8127C20.1944 23.6128 20.9025 23.2196 21.48 22.67C21.93 22.24 23.05 20.6 22.35 20.44Z" fill="black"/>
<path fill-rule="evenodd" clip-rule="evenodd" d="M23.49 15.62C23.18 15.4 23 15.67 22.02 17.48L19.81 16.35C19.7446 16.3137 19.6684 16.3021 19.5952 16.3176C19.5221 16.3331 19.457 16.3744 19.4119 16.4341C19.3669 16.4938 19.3449 16.5677 19.35 16.6423C19.3552 16.7169 19.3871 16.7871 19.44 16.84C20.2047 17.5923 21.0459 18.2626 21.95 18.84C22.0878 18.8976 22.2403 18.9102 22.3857 18.8761C22.5312 18.8419 22.6621 18.7628 22.76 18.65C22.85 18.53 22.89 18.48 23.4 16.81C23.63 16.16 24 15.79 23.49 15.62Z" fill="black"/>
<path fill-rule="evenodd" clip-rule="evenodd" d="M11.1 14.62C9.03291 14.4651 6.95711 14.4651 4.89001 14.62C3.38001 14.71 2.16001 14.85 1.42001 14.88C1.32718 14.88 1.23816 14.9169 1.17252 14.9825C1.10688 15.0481 1.07001 15.1372 1.07001 15.23C1.07001 15.3228 1.10688 15.4118 1.17252 15.4775C1.23816 15.5431 1.32718 15.58 1.42001 15.58C4.66073 15.8554 7.92244 15.7548 11.14 15.28C11.1833 15.2774 11.2257 15.2662 11.2648 15.2472C11.3038 15.2282 11.3387 15.2017 11.3675 15.1692C11.3963 15.1367 11.4184 15.0988 11.4325 15.0578C11.4467 15.0168 11.4526 14.9733 11.45 14.93C11.4474 14.8867 11.4362 14.8443 11.4172 14.8052C11.3982 14.7662 11.3717 14.7313 11.3392 14.7025C11.3067 14.6737 11.2689 14.6516 11.2278 14.6375C11.1868 14.6233 11.1433 14.6174 11.1 14.62Z" fill="black"/>
<path fill-rule="evenodd" clip-rule="evenodd" d="M6.71998 7.99999C4.76927 9.64982 2.99024 11.4925 1.40998 13.5C1.34368 13.5782 1.31117 13.6796 1.31961 13.7818C1.32805 13.884 1.37675 13.9787 1.45498 14.045C1.53322 14.1113 1.6346 14.1438 1.7368 14.1354C1.83901 14.1269 1.93368 14.0782 1.99998 14C3.29998 12.64 5.15998 11.45 7.51998 8.49999C7.71998 7.63999 7.56998 7.33999 6.71998 7.99999Z" fill="black"/>
<path fill-rule="evenodd" clip-rule="evenodd" d="M19.06 0.809997C18.23 -3.33786e-06 3.47998 -0.640003 0.909984 1.19C0.747232 1.32185 0.634345 1.50529 0.589984 1.71C0.0999835 3.47 0.219984 12.78 0.459984 14.44C0.478731 14.5124 0.523004 14.5755 0.584646 14.6178C0.646287 14.6602 0.721143 14.6788 0.795422 14.6702C0.8697 14.6617 0.938395 14.6266 0.98885 14.5715C1.0393 14.5163 1.06812 14.4447 1.06998 14.37C0.945678 10.4814 1.08935 6.58885 1.49998 2.72C2.87998 3.83 8.64998 8.53 10.43 8.5C12.36 8.45 18.55 1.78 18.65 2.26C18.9252 4.89151 18.9553 7.54291 18.74 10.18C18.732 10.2728 18.7613 10.365 18.8213 10.4363C18.8813 10.5075 18.9672 10.552 19.06 10.56C19.1528 10.568 19.245 10.5387 19.3163 10.4787C19.3875 10.4187 19.432 10.3328 19.44 10.24C19.58 8.69 20.17 1.91 19.06 0.809997ZM11.47 6.81C10.37 7.49 10.47 7.52 9.46998 6.99C6.79058 5.45951 4.19057 3.79403 1.67998 2C1.61998 1.16 15.89 0.859997 18 1.53C16.0062 3.4931 13.8183 5.24876 11.47 6.77V6.81Z" fill="black"/>
<path fill-rule="evenodd" clip-rule="evenodd" d="M13.81 7.79C12.74 7.01 12.37 7.14 12.94 8.49C13.609 9.33252 14.3704 10.0973 15.21 10.77C15.2727 10.8285 15.3548 10.8619 15.4405 10.8639C15.5263 10.8659 15.6098 10.8364 15.6752 10.7808C15.7406 10.7253 15.7833 10.6477 15.7953 10.5627C15.8072 10.4778 15.7875 10.3914 15.74 10.32C15.2039 9.40002 14.5556 8.55018 13.81 7.79Z" fill="black"/>
</g>
<defs>
<clipPath id="clip0_1032_3292">
<rect width="24" height="24" fill="white"/>
</clipPath>
</defs>
</svg>
