<svg width="24" height="24" viewBox="0 0 24 24" fill="none" xmlns="http://www.w3.org/2000/svg">
<g clip-path="url(#clip0_1032_3263)">
<path fill-rule="evenodd" clip-rule="evenodd" d="M22.48 9.71999L20 7.80999C19.9635 6.34566 19.8265 4.88556 19.59 3.43999C19.5 2.43999 19.67 1.22999 18.91 0.439993C17.91 -0.560007 5.49001 0.709993 4.66001 1.05999C4.45565 1.12245 4.26873 1.23184 4.1142 1.37943C3.95966 1.52702 3.84179 1.70872 3.77001 1.90999C3.5087 3.90534 3.55592 5.92901 3.91001 7.90999L1.71001 9.60999C1.15001 10.09 0.870014 14.16 0.820014 14.91C0.690397 17.4376 0.750566 19.9714 1.00001 22.49C1.00001 22.5669 1.03057 22.6407 1.08495 22.6951C1.13934 22.7494 1.2131 22.78 1.29001 22.78C1.36693 22.78 1.44069 22.7494 1.49507 22.6951C1.54946 22.6407 1.58001 22.5669 1.58001 22.49C2.10001 22.79 1.45001 22.39 6.48001 18.73C7.05001 18.32 10.55 15.85 11.18 15.86C12.41 15.86 20.43 21.86 21.42 22.6C21.42 22.7 21.35 22.78 21.33 22.85C19.33 22.98 3.12001 22.99 2.05001 22.95C1.97109 22.9637 1.89954 23.0048 1.84796 23.0661C1.79639 23.1274 1.76811 23.2049 1.76811 23.285C1.76811 23.3651 1.79639 23.4426 1.84796 23.5039C1.89954 23.5652 1.97109 23.6063 2.05001 23.62C3.99001 23.74 21.19 24.35 22.05 23.87C22.1694 23.798 22.2664 23.6941 22.33 23.57C22.9 22.34 24.06 11 22.48 9.71999ZM22.31 11.27C21.5126 11.4565 20.7355 11.7211 19.99 12.06C19.91 11.6 19.99 11.48 19.99 8.60999L21.99 10.26C22.1785 10.5651 22.2884 10.9121 22.31 11.27ZM4.00001 8.68999C4.00001 9.19999 4.00001 8.05999 4.25001 11.85C3.60123 11.482 2.93365 11.1482 2.25001 10.85C2.36001 9.73999 2.66001 10.05 4.00001 8.68999ZM1.52001 21.85C1.52001 21.14 2.14001 11.65 2.14001 11.57C4.21925 13.1549 6.41178 14.5854 8.70001 15.85C6.1077 17.5991 3.70176 19.6096 1.52001 21.85ZM11.14 14.68C10.5 14.7946 9.89262 15.0471 9.36001 15.42C7.9419 14.238 6.43402 13.1681 4.85001 12.22C4.32001 -6.67572e-06 3.40001 2.05999 9.00001 1.61999C18.57 0.849993 16.12 1.25999 18.25 1.18999C18.66 1.71999 18.57 2.79999 18.66 3.53999C19.1419 6.07377 19.3531 8.65158 19.29 11.23C19.2647 11.6096 19.2647 11.9904 19.29 12.37C17.2182 13.2809 15.2132 14.3368 13.29 15.53C12.641 15.0989 11.9084 14.8093 11.14 14.68ZM21.53 21.91C19.1029 19.7623 16.5518 17.7589 13.89 15.91C18.89 14.01 20.36 12.73 22.37 11.91C22.4199 15.2629 22.1385 18.6124 21.53 21.91Z" fill="black"/>
<path fill-rule="evenodd" clip-rule="evenodd" d="M9.74001 4.2C9.37174 3.85499 8.91847 3.61394 8.42652 3.50149C7.93458 3.38905 7.42159 3.40924 6.94001 3.56C5.93001 4.2 5.39001 6.22 6.71001 7C8.49001 8 11.36 5.89 9.74001 4.2ZM8.85001 4.58C9.93001 6.58 7.55001 6.37001 7.24001 6.01C7.0901 5.87038 6.98669 5.68808 6.94376 5.48777C6.90084 5.28746 6.92047 5.0788 7.00001 4.89C7.24001 4.28 7.88001 3.81 8.85001 4.58Z" fill="black"/>
<path fill-rule="evenodd" clip-rule="evenodd" d="M15.65 12.12C16.3 12.12 16.51 11.37 16.55 10.73C16.5589 9.08844 16.0127 7.49206 15 6.2C14.8536 6.04367 14.6608 5.93851 14.45 5.9C12.89 5.66 12.12 7.9 11.64 9.4C10.88 7.9 9.49003 7.84 8.64003 8.91C7.79003 9.98 6.87003 12.62 8.25003 12.23C8.31401 12.2131 8.37059 12.1754 8.41096 12.123C8.45133 12.0705 8.47321 12.0062 8.47321 11.94C8.47321 11.8738 8.45133 11.8095 8.41096 11.757C8.37059 11.7046 8.31401 11.667 8.25003 11.65C8.34003 11.5 8.25003 11.15 8.34003 11.02C8.55135 10.4363 8.85894 9.89211 9.25003 9.41C9.73003 8.89 10.25 8.85 10.69 9.46C11.13 10.07 11.17 11.27 11.36 11.55H9.43003C9.3511 11.5637 9.27955 11.6048 9.22797 11.6661C9.1764 11.7274 9.14812 11.8049 9.14812 11.885C9.14812 11.9651 9.1764 12.0426 9.22797 12.1039C9.27955 12.1652 9.3511 12.2063 9.43003 12.22C11.5014 12.3981 13.5855 12.3645 15.65 12.12ZM12.15 11.54C12.4866 10.1579 12.9728 8.81668 13.6 7.54C14.6 5.91 15.76 10.54 15.53 11.09C15.27 10.91 13 11.5 12.15 11.54Z" fill="black"/>
</g>
<defs>
<clipPath id="clip0_1032_3263">
<rect width="24" height="24" fill="white"/>
</clipPath>
</defs>
</svg>
