<svg width="24" height="24" viewBox="0 0 24 24" fill="none" xmlns="http://www.w3.org/2000/svg">
<g clip-path="url(#clip0_1032_3276)">
<path fill-rule="evenodd" clip-rule="evenodd" d="M23.54 17.62C23.3427 17.0371 23.0522 16.49 22.68 16C22.1316 15.4064 21.4667 14.9322 20.7269 14.607C19.9871 14.2818 19.1881 14.1126 18.38 14.11V12.02C18.3699 11.9235 18.3357 11.8312 18.2807 11.7513C18.2257 11.6714 18.1515 11.6067 18.0649 11.5629C17.9784 11.5191 17.8822 11.4977 17.7853 11.5007C17.6883 11.5037 17.5937 11.531 17.51 11.58C17.2952 11.7278 17.0973 11.8988 16.92 12.09C12.99 15.36 12.49 15.83 12.49 16.28C12.49 16.55 12.61 16.66 13.66 17.73C15.4 19.51 16.66 21.35 17.39 20.99C17.95 20.71 17.89 20.17 17.97 18.49C18.4503 18.5914 18.9015 18.7999 19.29 19.1C19.7372 19.3734 20.0792 19.7896 20.2606 20.2813C20.4421 20.7731 20.4524 21.3116 20.29 21.81C19.77 23.39 18.72 23.46 19.07 23.92C19.0927 23.9512 19.1214 23.9775 19.1545 23.9975C19.1875 24.0174 19.2242 24.0306 19.2624 24.0362C19.3006 24.0418 19.3395 24.0397 19.3768 24.03C19.4142 24.0204 19.4493 24.0034 19.48 23.98C20.2297 23.4093 20.7652 22.6025 21 21.69C21.1436 21.0834 21.1022 20.4478 20.8812 19.8649C20.6602 19.2821 20.2697 18.7788 19.76 18.42C19.1358 17.8816 18.3527 17.5621 17.53 17.51C16.86 17.51 17.11 18.46 16.95 19.3V19.78C16.56 19.41 13.86 16.35 13.79 16.27C14.8738 15.1542 16.0369 14.1182 17.27 13.17V14.57C17.2 15.57 18.59 14.57 20.7 15.64C21.1828 15.8542 21.6123 16.1723 21.958 16.5716C22.3037 16.9709 22.5571 17.4415 22.7 17.95C23.2 19.12 22.61 21.56 21.01 22.95C20.9758 22.9789 20.9477 23.0142 20.9272 23.054C20.9067 23.0937 20.8943 23.1371 20.8906 23.1817C20.8869 23.2263 20.892 23.2712 20.9056 23.3138C20.9192 23.3564 20.9411 23.3959 20.97 23.43C20.9989 23.4641 21.0342 23.4923 21.074 23.5128C21.1137 23.5332 21.1571 23.5457 21.2017 23.5494C21.2463 23.5531 21.2911 23.548 21.3337 23.5344C21.3763 23.5208 21.4158 23.4989 21.45 23.47C23.38 21.93 24.14 19.15 23.54 17.62Z" fill="black"/>
<path fill-rule="evenodd" clip-rule="evenodd" d="M10.82 14.23C8.80713 14.0684 6.78526 14.0517 4.77 14.18C3.31 14.28 2.12 14.41 1.4 14.44C1.30982 14.44 1.22334 14.4758 1.15958 14.5396C1.09582 14.6033 1.06 14.6898 1.06 14.78C1.06 14.8701 1.09582 14.9566 1.15958 15.0204C1.22334 15.0842 1.30982 15.12 1.4 15.12C4.55386 15.3922 7.72873 15.2948 10.86 14.83C10.8994 14.8273 10.9379 14.817 10.9733 14.7995C11.0087 14.782 11.0403 14.7577 11.0663 14.728C11.0923 14.6983 11.1122 14.6637 11.1248 14.6263C11.1375 14.5889 11.1426 14.5494 11.14 14.51C11.1374 14.4706 11.127 14.4321 11.1095 14.3967C11.092 14.3613 11.0677 14.3297 11.038 14.3037C11.0083 14.2777 10.9737 14.2578 10.9363 14.2452C10.8989 14.2325 10.8594 14.2273 10.82 14.23Z" fill="black"/>
<path fill-rule="evenodd" clip-rule="evenodd" d="M6.55004 7.76C4.64953 9.37104 2.92037 11.1739 1.39004 13.14C1.36115 13.1741 1.33926 13.2136 1.32564 13.2562C1.31201 13.2988 1.30691 13.3437 1.31062 13.3883C1.31434 13.4329 1.3268 13.4763 1.34728 13.516C1.36777 13.5558 1.39589 13.5911 1.43004 13.62C1.46418 13.6489 1.50368 13.6708 1.54628 13.6844C1.58888 13.698 1.63375 13.7031 1.67832 13.6994C1.72289 13.6957 1.7663 13.6832 1.80605 13.6628C1.84581 13.6423 1.88115 13.6141 1.91004 13.58C3.17004 12.26 5.00004 11.1 7.28004 8.24C7.68004 7.45 7.56004 7.17 6.55004 7.76Z" fill="black"/>
<path fill-rule="evenodd" clip-rule="evenodd" d="M13.55 7.66999C12.27 7.02999 12.15 7.40999 12.68 8.35999C13.3229 9.13743 14.0396 9.85077 14.82 10.49C14.8783 10.559 14.9617 10.6019 15.0517 10.6094C15.1417 10.6169 15.231 10.5883 15.3 10.53C15.369 10.4716 15.4119 10.3883 15.4194 10.2983C15.4269 10.2083 15.3983 10.119 15.34 10.05C14.832 9.19366 14.2318 8.39557 13.55 7.66999Z" fill="black"/>
<path fill-rule="evenodd" clip-rule="evenodd" d="M18.58 0.789987C17.77 -1.26958e-05 3.40001 -0.630013 0.900007 1.15999C0.734689 1.28525 0.620877 1.46664 0.580007 1.66999C0.110007 3.37999 0.230007 12.45 0.460007 14.07C0.478458 14.1399 0.521547 14.2008 0.581341 14.2415C0.641135 14.2822 0.71361 14.2999 0.785424 14.2914C0.857238 14.2828 0.923557 14.2487 0.972174 14.1951C1.02079 14.1416 1.04843 14.0723 1.05001 14C0.937487 10.2115 1.0778 6.41977 1.47001 2.64999C2.84001 3.74999 8.47001 8.30999 10.17 8.27999C11.12 8.27999 12.99 6.67999 13.8 6.00999C18.5 2.15999 18 1.46999 18.17 2.19999C18.4452 4.76462 18.4754 7.34964 18.26 9.91999C18.2534 10.0102 18.2828 10.0993 18.3419 10.1677C18.401 10.2362 18.4848 10.2784 18.575 10.285C18.6652 10.2916 18.7543 10.2622 18.8227 10.2031C18.8912 10.144 18.9334 10.0602 18.94 9.96999C19.08 8.45999 19.65 1.85999 18.58 0.789987ZM11.18 6.58999C10.11 7.25999 10.24 7.27999 9.18001 6.76999C6.59191 5.30676 4.07876 3.71476 1.65001 1.99999C1.59001 1.13999 15.49 0.839987 17.58 1.49999C15.6262 3.41083 13.4816 5.11641 11.18 6.58999Z" fill="black"/>
</g>
<defs>
<clipPath id="clip0_1032_3276">
<rect width="24" height="24" fill="white"/>
</clipPath>
</defs>
</svg>
