<svg width="24" height="24" viewBox="0 0 24 24" fill="none" xmlns="http://www.w3.org/2000/svg">
<g clip-path="url(#clip0_1032_3259)">
<path fill-rule="evenodd" clip-rule="evenodd" d="M22.74 9.33002C22.26 8.93002 19.74 7.00002 17.86 5.67002C17.795 5.62228 17.7137 5.60231 17.634 5.6145C17.5543 5.62669 17.4827 5.67004 17.435 5.73502C17.3872 5.8 17.3673 5.88128 17.3795 5.96098C17.3916 6.04069 17.435 6.11228 17.5 6.16002C18.34 6.80002 19.16 7.45002 19.88 8.03002C22.58 10.19 22.35 9.89002 22.5 10.94C20.7835 11.4747 19.1117 12.1434 17.5 12.94C15.71 13.82 14.5 14.61 13.24 15.3C12.6015 14.8727 11.8841 14.5769 11.13 14.43C10.4713 14.5449 9.84625 14.8045 9.29998 15.19C8.73997 14.75 7.99998 14.19 7.18998 13.55C5.55143 12.3852 3.81492 11.3647 1.99998 10.5C2.09998 9.77002 2.21998 9.89002 2.13998 9.83002C2.99998 9.00002 4.72998 7.50002 6.51998 6.13002C6.59291 6.07698 6.64179 5.99713 6.65585 5.90806C6.66992 5.81898 6.64802 5.72796 6.59497 5.65502C6.54193 5.58209 6.46209 5.53321 6.37301 5.51915C6.28393 5.50508 6.19291 5.52698 6.11998 5.58002C4.68998 6.58002 2.55998 8.09002 1.34998 9.13002C0.309975 10 0.289975 20.08 0.639975 22.46C0.649988 22.5379 0.690162 22.6088 0.751867 22.6574C0.813571 22.706 0.891881 22.7285 0.969975 22.72C0.969975 22.72 1.63998 22.36 1.65998 22.35C4.13092 20.0421 6.83551 17.9977 9.72997 16.25C11.1 15.45 11 15.42 12.25 16.1C15.4819 18.0829 18.6063 20.2359 21.61 22.55C21.61 22.84 21.9 22.79 19.5 22.84C17.1 22.89 3.06998 22.93 1.70998 22.84C1.62855 22.8539 1.55467 22.8962 1.50141 22.9593C1.44814 23.0225 1.41892 23.1024 1.41892 23.185C1.41892 23.2676 1.44814 23.3476 1.50141 23.4107C1.55467 23.4738 1.62855 23.5161 1.70998 23.53C3.38998 23.63 21.36 24.26 22.25 23.78C22.3753 23.7123 22.4766 23.6076 22.54 23.48C23.15 22.31 24.4 10.71 22.74 9.33002ZM1.21998 21.81C1.21998 19.34 1.88998 11.37 1.89998 11.29C4.01444 12.9084 6.24737 14.3658 8.57998 15.65C5.92117 17.4446 3.45476 19.5088 1.21998 21.81ZM21.74 21.86C19.2502 19.6769 16.6358 17.6401 13.91 15.76C19.14 13.76 21.14 12.15 22.57 11.61C22.6221 15.0454 22.3441 18.4778 21.74 21.86Z" fill="black"/>
<path fill-rule="evenodd" clip-rule="evenodd" d="M6.58996 8.33001C6.93996 9.80001 10.53 13.17 12.24 13.33C13.95 13.49 17 8.81001 16.85 7.86001C16.7 6.91001 15.52 7.00001 14.63 6.79001H14.26C13.874 4.57451 13.3564 2.38397 12.71 0.230011C12.6795 0.145142 12.6165 0.0758648 12.5349 0.0374198C12.4533 -0.00102514 12.3598 -0.00548863 12.275 0.0250113C12.1901 0.0555112 12.1208 0.118476 12.0824 0.200054C12.0439 0.281633 12.0395 0.375142 12.07 0.460011C12.77 2.53001 13.33 6.93001 13.46 7.22001C13.67 7.68001 14.19 7.65001 14.46 7.71001C14.85 7.81001 15.52 7.85001 15.82 7.95001C15.76 8.03001 15.75 8.25001 15.66 8.42001C15 9.73001 13 12.24 12.34 12.18C11.11 12.07 7.99996 9.05001 7.71996 8.25001C7.80697 8.19418 7.90116 8.15045 7.99996 8.12001C10.25 7.55001 10.28 8.06001 10.61 6.12001C10.61 6.04001 11.44 0.390011 11.42 0.310011C11.31 -0.0899887 10.93 0.0100113 10.8 0.250011C10.67 0.490011 10.59 1.33001 10.15 4.00001C9.64996 7.10001 9.54996 6.63001 9.48996 6.89001C8.12996 7.16001 6.27996 7.05001 6.58996 8.33001Z" fill="black"/>
</g>
<defs>
<clipPath id="clip0_1032_3259">
<rect width="24" height="24" fill="white"/>
</clipPath>
</defs>
</svg>
