<svg width="24" height="24" viewBox="0 0 24 24" fill="none" xmlns="http://www.w3.org/2000/svg">
<g clip-path="url(#clip0_1032_3284)">
<path fill-rule="evenodd" clip-rule="evenodd" d="M23.71 23.43C22.9748 22.1073 21.9491 20.9687 20.71 20.1C21.2973 19.5888 21.7294 18.923 21.9571 18.1783C22.1847 17.4337 22.1988 16.6401 21.9977 15.8878C21.7966 15.1356 21.3884 14.4548 20.8196 13.9231C20.2507 13.3914 19.5441 13.03 18.78 12.88C18.0913 12.7404 17.3799 12.7601 16.7 12.9375C16.0202 13.115 15.3898 13.4454 14.8572 13.9038C14.3246 14.3621 13.9038 14.9361 13.627 15.5819C13.3502 16.2277 13.2246 16.9282 13.26 17.63C13.36 19.9 15.52 21.63 17.02 21.46C17.1022 21.4534 17.1784 21.4144 17.2319 21.3515C17.2853 21.2887 17.3116 21.2072 17.305 21.125C17.2984 21.0428 17.2593 20.9666 17.1965 20.9131C17.1337 20.8597 17.0522 20.8334 16.97 20.84C16.2032 20.721 15.504 20.3324 14.9981 19.744C14.4921 19.1556 14.2127 18.406 14.21 17.63C14.2135 17.0907 14.3346 16.5586 14.5648 16.0709C14.795 15.5831 15.1288 15.1514 15.5429 14.8059C15.957 14.4603 16.4414 14.2092 16.9625 14.07C17.4836 13.9308 18.0287 13.907 18.56 14C21.19 14.52 22.19 17.57 19.92 19.76C19.5117 20.1863 19.0221 20.5264 18.48 20.76C18.3973 20.7941 18.3307 20.8585 18.294 20.9401C18.2574 21.0218 18.2533 21.1143 18.2828 21.1988C18.3122 21.2833 18.3729 21.3533 18.4523 21.3944C18.5318 21.4356 18.624 21.4447 18.71 21.42C19.2414 21.2353 19.7357 20.9576 20.17 20.6C20.9823 21.8484 21.9961 22.9534 23.17 23.87C23.2312 23.9316 23.3132 23.9682 23.3999 23.9727C23.4866 23.9772 23.5719 23.9493 23.6392 23.8945C23.7065 23.8396 23.751 23.7617 23.7641 23.6759C23.7772 23.5901 23.7579 23.5024 23.71 23.43Z" fill="black"/>
<path fill-rule="evenodd" clip-rule="evenodd" d="M11.07 14.64C9.00084 14.4684 6.92171 14.4517 4.85003 14.59C3.34003 14.69 2.12003 14.83 1.38003 14.85C1.2872 14.85 1.19818 14.8869 1.13254 14.9525C1.0669 15.0182 1.03003 15.1072 1.03003 15.2C1.03003 15.2928 1.0669 15.3819 1.13254 15.4475C1.19818 15.5131 1.2872 15.55 1.38003 15.55C4.62373 15.8276 7.88862 15.7303 11.11 15.26C11.1922 15.2547 11.269 15.217 11.3234 15.1551C11.3778 15.0932 11.4053 15.0122 11.4 14.93C11.3947 14.8478 11.357 14.771 11.2951 14.7167C11.2332 14.6623 11.1522 14.6347 11.07 14.64Z" fill="black"/>
<path fill-rule="evenodd" clip-rule="evenodd" d="M6.64001 7.99998C4.69796 9.64624 2.93185 11.4894 1.37001 13.5C1.3037 13.5703 1.26803 13.664 1.27085 13.7606C1.27366 13.8572 1.31472 13.9487 1.38501 14.015C1.45529 14.0813 1.54903 14.117 1.64561 14.1141C1.74219 14.1113 1.8337 14.0703 1.90001 14C3.20001 12.65 5.05001 11.46 7.40001 8.53998C7.65001 7.47998 7.33001 7.43998 6.64001 7.99998Z" fill="black"/>
<path fill-rule="evenodd" clip-rule="evenodd" d="M13.84 7.86C12.84 7.35 12.5 7.52 12.96 8.57C13.6236 9.38263 14.3674 10.1264 15.18 10.79C15.241 10.8616 15.328 10.9061 15.4217 10.9136C15.5155 10.9211 15.6084 10.891 15.68 10.83C15.7516 10.769 15.7961 10.6821 15.8036 10.5883C15.8111 10.4945 15.781 10.4016 15.72 10.33C15.1914 9.43647 14.5605 8.60755 13.84 7.86Z" fill="black"/>
<path fill-rule="evenodd" clip-rule="evenodd" d="M19.05 0.81999C18.21 -1.01328e-05 3.44001 -0.64001 0.860008 1.18999C0.70174 1.32572 0.589856 1.50753 0.540008 1.70999C0.0600083 3.46999 0.170008 12.8 0.410008 14.47C0.437225 14.5314 0.48363 14.5822 0.542245 14.615C0.60086 14.6477 0.668517 14.6605 0.735044 14.6515C0.801571 14.6425 0.863372 14.6121 0.911154 14.5649C0.958936 14.5178 0.990117 14.4564 1.00001 14.39C0.890433 10.4974 1.04412 6.60185 1.46001 2.72999C2.85001 3.84999 8.60001 8.54999 10.4 8.50999C12.59 8.44999 18.53 1.74999 18.63 2.25999C18.9152 4.89761 18.9453 7.55658 18.72 10.2C18.7134 10.2928 18.7439 10.3845 18.8048 10.4548C18.8658 10.5251 18.9522 10.5684 19.045 10.575C19.1378 10.5816 19.2295 10.5511 19.2998 10.4902C19.3701 10.4292 19.4134 10.3428 19.42 10.25C19.56 8.70999 20.15 1.90999 19.05 0.81999ZM11.44 6.81999C10.34 7.50999 10.44 7.52999 9.44001 7.00999C7.55001 6.00999 3.44001 3.28999 1.67001 2.08999C1.58001 1.15999 15.87 0.85999 18 1.52999C15.9967 3.49757 13.7988 5.25659 11.44 6.77999V6.81999Z" fill="black"/>
</g>
<defs>
<clipPath id="clip0_1032_3284">
<rect width="24" height="24" fill="white"/>
</clipPath>
</defs>
</svg>
