<svg width="24" height="24" viewBox="0 0 24 24" fill="none" xmlns="http://www.w3.org/2000/svg">
<g clip-path="url(#clip0_1032_3312)">
<path d="M18 4.45999C17.499 4.51474 16.9921 4.46711 16.51 4.31999C16.27 4.26999 15.95 4.08999 15.51 3.95999C15.1195 3.82852 14.7119 3.75441 14.3 3.73999H14.1C13.1 3.73999 13.16 4.52999 14.1 4.59999H14.2C14.5184 4.68776 14.8267 4.8084 15.12 4.95999C15.4706 5.13926 15.8351 5.28975 16.21 5.40999C16.817 5.53558 17.4431 5.53558 18.05 5.40999C19.3 4.81999 19.23 4.24999 18.49 4.40999C18.33 4.40999 18.17 4.43999 18 4.45999Z" fill="black"/>
<path d="M20.49 1.94C20.4122 1.9426 20.3384 1.97535 20.2843 2.03133C20.2302 2.08731 20.2 2.16214 20.2 2.24C20.172 2.55576 20.0978 2.86571 19.98 3.16C19.87 3.46 18.25 7.05 18.04 7.46C17.7481 8.07565 17.4139 8.6704 17.04 9.24C16.8223 9.6422 16.51 9.9854 16.13 10.24C15.7651 10.4229 15.3476 10.4724 14.95 10.38C14.5989 10.334 14.2596 10.222 13.95 10.05C13.8304 9.97716 13.7264 9.88133 13.644 9.76805C13.5616 9.65476 13.5025 9.52627 13.47 9.39C13.2384 8.14408 13.1445 6.87646 13.19 5.61C13.19 5.61 13.32 1.94 13.36 1.61C13.4 1.28 13.47 1.17 13.51 0.980003C13.702 0.910523 13.9066 0.883237 14.11 0.900003C14.8733 0.882455 15.6366 0.93602 16.39 1.06C17.4875 1.2197 18.5685 1.4774 19.62 1.83C19.6979 1.84479 19.7785 1.8319 19.8479 1.79355C19.9173 1.75521 19.9711 1.69382 20 1.62C20.0159 1.5787 20.0233 1.53463 20.0217 1.49041C20.0202 1.4462 20.0098 1.40274 19.9911 1.36262C19.9725 1.32251 19.9459 1.28655 19.9131 1.2569C19.8803 1.22725 19.8418 1.2045 19.8 1.19C18.2912 0.62626 16.7198 0.246845 15.12 0.0600029C14.5366 -0.0276914 13.9434 -0.0276914 13.36 0.0600029C13.1382 0.0936439 12.9322 0.194918 12.77 0.350003C12.5698 0.612332 12.4422 0.92273 12.4 1.25C12.235 2.21244 12.1315 3.18441 12.09 4.16C11.9588 5.99349 12.0427 7.83603 12.34 9.65C12.4502 10.0952 12.7031 10.4921 13.06 10.78C13.4171 11.0618 13.8347 11.2569 14.28 11.35C14.18 11.62 14.08 11.96 13.98 12.35C13.88 12.74 13.88 12.79 13.85 13.02C13.8119 13.2483 13.7885 13.4787 13.78 13.71V14.19C13.674 13.8767 13.5296 13.5778 13.35 13.3C13.1636 12.9904 12.9125 12.7246 12.614 12.521C12.3154 12.3173 11.9763 12.1805 11.62 12.12C11.0517 12.0793 10.4809 12.1506 9.94003 12.33C9.54281 12.4689 9.1661 12.6606 8.82003 12.9C8.48003 13.14 8.21003 13.4 7.95003 13.55C7.60269 13.7668 7.30049 14.0486 7.06003 14.38C6.90579 14.6061 6.76874 14.8434 6.65003 15.09C6.61242 15.0205 6.5653 14.9565 6.51003 14.9C6.33044 14.7398 6.11402 14.6264 5.88003 14.57C5.46477 14.5215 5.04528 14.5215 4.63003 14.57L3.57003 14.66C3.53225 14.6729 3.49767 14.6937 3.4686 14.7211C3.43954 14.7485 3.41666 14.7818 3.40151 14.8187C3.38636 14.8556 3.37928 14.8954 3.38075 14.9353C3.38221 14.9752 3.3922 15.0143 3.41003 15.05C3.50003 15.28 3.57003 15.19 4.61003 15.26C4.91652 15.2705 5.22128 15.3107 5.52003 15.38C5.65106 15.398 5.7715 15.4617 5.86003 15.56V19.42L5.80003 21.58C5.7916 21.7165 5.7916 21.8535 5.80003 21.99C5.70003 21.99 5.59003 22.09 5.54003 22.1C5.15003 22.17 4.76003 22.26 4.38003 22.31C4.13227 22.3531 3.88148 22.3765 3.63003 22.38C3.54056 22.3799 3.45444 22.414 3.38935 22.4753C3.32426 22.5367 3.28514 22.6207 3.28003 22.71C3.27729 22.755 3.28381 22.8001 3.29916 22.8424C3.31452 22.8848 3.33839 22.9236 3.36931 22.9564C3.40023 22.9892 3.43754 23.0153 3.47894 23.0331C3.52034 23.0509 3.56495 23.0601 3.61003 23.06C3.88982 23.075 4.17023 23.075 4.45003 23.06L5.66003 22.95C5.89953 22.9415 6.13749 22.908 6.37003 22.85L6.49003 22.78C7.44634 23.3412 8.51547 23.6828 9.62003 23.78C11.2686 24.0944 12.9574 24.1383 14.62 23.91C15.0234 23.8029 15.4102 23.6414 15.77 23.43C16.0465 23.255 16.2791 23.019 16.45 22.74C16.6008 22.4848 16.7216 22.213 16.81 21.93C16.94 21.56 17.04 21.18 17.1 20.93C17.3234 20.7439 17.5128 20.5207 17.66 20.27C17.8475 19.934 17.9441 19.5548 17.94 19.17C17.9524 18.7383 17.8339 18.3131 17.6 17.95C17.6 17.89 17.51 17.84 17.47 17.79C17.5703 17.6461 17.6479 17.4875 17.7 17.32C17.7551 17.0943 17.7604 16.8593 17.7155 16.6313C17.6706 16.4034 17.5766 16.188 17.44 16C17.3371 15.7911 17.1945 15.6043 17.02 15.45C16.8602 15.3058 16.6859 15.1785 16.5 15.07C15.9954 14.8145 15.4355 14.6875 14.87 14.7H14.64C14.71 14.45 14.79 14.15 14.86 13.82C14.93 13.49 14.95 13.39 14.98 13.17L15.04 12.64C15.04 12.18 15.04 11.77 15.1 11.46C15.6338 11.5018 16.1675 11.3797 16.63 11.11C17.13 10.7641 17.5411 10.3049 17.83 9.77C18.2038 9.14498 18.5378 8.49703 18.83 7.83C19.24 6.83 19.57 5.96 20.02 4.83C20.15 4.5 20.4 3.9 20.58 3.33C20.7041 2.96541 20.7748 2.58481 20.79 2.2C20.7825 2.12664 20.7472 2.05892 20.6915 2.01062C20.6358 1.96232 20.5637 1.93707 20.49 1.94ZM16 15.87C16.1223 15.9443 16.2363 16.0314 16.34 16.13C16.4237 16.2213 16.4913 16.3261 16.54 16.44C16.6238 16.6038 16.6417 16.7934 16.59 16.97C16.513 17.1531 16.38 17.3072 16.21 17.41C16.1618 17.4482 16.1182 17.4918 16.08 17.54C15.93 17.54 15.75 17.48 15.55 17.47C15.35 17.46 15.08 17.41 14.84 17.41C14.437 17.4336 14.033 17.4336 13.63 17.41C13.5556 17.3832 13.4738 17.3859 13.4013 17.4175C13.3288 17.4491 13.2711 17.5073 13.24 17.58C13.2163 17.6558 13.2216 17.7376 13.2549 17.8097C13.2881 17.8818 13.347 17.9389 13.42 17.97C13.7728 18.1929 14.1571 18.3615 14.56 18.47C14.7276 18.5087 14.8983 18.5321 15.07 18.54C15.2461 18.5602 15.4239 18.5602 15.6 18.54C15.8525 18.5072 16.1007 18.4468 16.34 18.36H16.42C16.5198 18.4378 16.5903 18.547 16.62 18.67C16.6606 18.813 16.6775 18.9616 16.67 19.11C16.6766 19.298 16.6242 19.4834 16.52 19.64C16.4241 19.8164 16.291 19.9699 16.13 20.09H15.84H15.34H14.85H13.72C13.6458 20.0677 13.5657 20.0751 13.4968 20.1105C13.4278 20.1459 13.3752 20.2067 13.35 20.28C13.336 20.3173 13.3299 20.3572 13.332 20.397C13.3341 20.4368 13.3444 20.4757 13.3622 20.5114C13.3801 20.5471 13.405 20.5787 13.4356 20.6042C13.4662 20.6298 13.5018 20.6488 13.54 20.66C13.8507 20.8713 14.1866 21.0426 14.54 21.17C14.7024 21.2201 14.8703 21.2503 15.04 21.26C15.2147 21.2627 15.3891 21.2459 15.56 21.21L15.71 21.16L15.59 21.53C15.5237 21.7335 15.4401 21.9309 15.34 22.12C15.2318 22.299 15.076 22.4443 14.89 22.54C14.6576 22.6646 14.4129 22.7651 14.16 22.84C12.9199 23.0915 11.6491 23.1556 10.39 23.03C9.13385 22.9146 7.89546 22.6528 6.70003 22.25L7.00003 19.4V17.88C7.00003 17.36 6.92003 16.29 6.92003 16.25C6.96418 16.2121 6.9985 16.1641 7.02003 16.11C7.18159 15.7551 7.38288 15.4196 7.62003 15.11C7.83384 14.8224 8.11556 14.5922 8.44003 14.44C9.0454 14.05 9.68464 13.7154 10.35 13.44C10.7581 13.2985 11.1882 13.2308 11.62 13.24C11.8361 13.2579 12.046 13.3216 12.2356 13.4267C12.4253 13.5319 12.5904 13.6762 12.72 13.85C12.9612 14.1106 13.1542 14.4119 13.29 14.74C13.3095 14.7917 13.3329 14.8419 13.36 14.89C12.73 15 12.07 15.15 11.43 15.27C11.3404 15.2871 11.2611 15.3384 11.2088 15.4131C11.1565 15.4878 11.1354 15.58 11.15 15.67C11.167 15.7569 11.2173 15.8338 11.2902 15.8842C11.363 15.9347 11.4527 15.9547 11.54 15.94C13.86 15.56 15.15 15.32 16 15.87Z" fill="black"/>
</g>
<defs>
<clipPath id="clip0_1032_3312">
<rect width="24" height="24" fill="white"/>
</clipPath>
</defs>
</svg>
