<svg width="24" height="24" viewBox="0 0 24 24" fill="none" xmlns="http://www.w3.org/2000/svg">
<g clip-path="url(#clip0_1052_9142)">
<path fill-rule="evenodd" clip-rule="evenodd" d="M24 17.58C23.942 17.1558 23.7844 16.7515 23.54 16.4C23.4039 16.2159 23.2158 16.0766 23 16C22.66 15.8696 22.303 15.7888 21.94 15.76C21.5362 15.6998 21.1282 15.673 20.72 15.68H18.88C18.67 15.68 18.44 15.55 18.39 15.68C17.9829 15.321 17.6019 14.9333 17.25 14.52C16.63 13.8 16.06 13.02 15.56 12.4C15.06 11.78 14.32 10.95 13.68 10.27C12.68 9.26999 11.68 8.26999 10.68 7.32999C9.79001 6.52999 8.70001 5.19999 7.87001 4.44999C7.56346 4.15489 7.1943 3.93271 6.79001 3.79999C6.3512 3.72105 5.90584 3.68422 5.46001 3.68999H2.55001C2.06495 3.67595 1.57962 3.70608 1.10001 3.77999C0.837672 3.84611 0.594494 3.97284 0.390014 4.14999C0.158272 4.37457 0.0191198 4.67785 1.41338e-05 4.99999C-0.0318735 5.47613 -0.0318735 5.95386 1.41338e-05 6.42999C-0.0398403 7.1361 -0.0398403 7.84389 1.41319e-05 8.54999C0.0708903 9.06723 0.255295 9.56239 0.540014 9.99999C0.623852 10.122 0.733719 10.2238 0.861687 10.2982C0.989655 10.3725 1.13253 10.4175 1.28001 10.43C1.72709 10.466 2.17686 10.4492 2.62001 10.38C3.03764 10.3215 3.45839 10.2881 3.88001 10.28C4.13069 10.2913 4.37759 10.3454 4.61001 10.44C4.87122 10.5594 5.10844 10.7254 5.31001 10.93C5.66365 11.2707 5.99752 11.6312 6.31001 12.01C7.05001 12.86 7.62001 13.63 8.25001 14.38C8.41001 14.57 9.39001 15.68 9.86001 16.28C10.78 17.42 11.56 18.63 12.76 20.03L14.89 22.18C15.1258 22.4409 15.3798 22.6849 15.65 22.91C15.8586 23.0801 16.0956 23.2121 16.35 23.3C16.6751 23.3944 17.0115 23.4449 17.35 23.45H18.7H21.28C21.5883 23.4473 21.8959 23.4206 22.2 23.37C22.4406 23.3298 22.6734 23.2522 22.89 23.14C23.2997 22.8729 23.601 22.4688 23.74 22C23.9704 21.0856 24.0581 20.1411 24 19.2C24.0445 18.6609 24.0445 18.1191 24 17.58ZM22.93 21.35C22.9165 21.5339 22.8641 21.7128 22.7761 21.8749C22.6882 22.0369 22.5668 22.1784 22.42 22.29C22.3065 22.3573 22.1807 22.4015 22.05 22.42C21.789 22.4659 21.5249 22.4927 21.26 22.5L18.71 22.56C18.33 22.56 17.86 22.61 17.41 22.56C17.1568 22.5584 16.9048 22.5248 16.66 22.46C16.4984 22.4041 16.3465 22.3231 16.21 22.22C15.9747 22.0231 15.751 21.8128 15.54 21.59L13.4 19.5C12.18 18.13 11.4 16.94 10.46 15.82C10.21 15.52 9.06001 14.3 8.79001 13.97C8.17001 13.21 7.61001 12.42 6.88001 11.55C6.56946 11.1474 6.23555 10.7634 5.88001 10.4C5.61342 10.1263 5.30235 9.89972 4.96001 9.72999C4.64166 9.59866 4.30376 9.52095 3.96001 9.49999C3.55001 9.49999 3.17001 9.54999 2.62001 9.57999C2.41001 9.57999 2.08001 9.63999 1.75001 9.63999C1.42001 9.63999 1.38001 9.63999 1.30001 9.54999C1.09449 9.21914 0.964724 8.84691 0.920014 8.45999C0.880034 7.79393 0.880034 7.12606 0.920014 6.45999V5.29999C1.00001 5.12999 0.940014 4.99999 1.00001 4.89999C1.13414 4.80088 1.29367 4.74193 1.46001 4.72999C1.82307 4.71 2.18696 4.71 2.55001 4.72999H5.01001C5.52228 4.73219 6.03367 4.7723 6.54001 4.84999C6.88639 5.03842 7.19222 5.29328 7.44001 5.59999C8.21001 6.36999 9.11001 7.45999 9.82001 8.12999C10.82 9.07999 11.82 10.04 12.82 11.04C13.45 11.7 14.06 12.37 14.64 13.09C15.22 13.81 15.73 14.51 16.36 15.23C16.7699 15.7217 17.2253 16.1737 17.72 16.58C17.9155 16.7129 18.1439 16.789 18.38 16.8C19.14 16.88 20.78 16.68 21.75 16.8C21.94 16.8 22.17 16.8 22.37 16.89C22.4681 16.8983 22.5601 16.9408 22.63 17.01C22.7768 17.221 22.8695 17.4648 22.9 17.72C22.9344 18.1994 22.9344 18.6806 22.9 19.16C22.9576 19.8892 22.9509 20.622 22.88 21.35H22.93Z" fill="black"/>
<path fill-rule="evenodd" clip-rule="evenodd" d="M14.45 6.36997C14.0935 6.5847 13.8049 6.89571 13.6174 7.26722C13.4299 7.63873 13.3511 8.05564 13.39 8.46997C13.4039 8.5514 13.4462 8.62528 13.5093 8.67854C13.5725 8.73181 13.6524 8.76102 13.735 8.76102C13.8176 8.76102 13.8976 8.73181 13.9607 8.67854C14.0238 8.62528 14.0661 8.5514 14.08 8.46997C14.0721 8.1756 14.1566 7.88615 14.3216 7.64224C14.4866 7.39833 14.7239 7.2122 15 7.10997C15.2567 7.01394 15.536 6.99593 15.8029 7.0582C16.0698 7.12048 16.3123 7.26026 16.5 7.45997C16.8617 7.81204 17.1535 8.22938 17.36 8.68997C17.5188 9.01136 17.6493 9.34596 17.75 9.68997C18.0224 10.578 18.1639 11.5011 18.17 12.43C18.1697 12.5099 18.1992 12.587 18.2529 12.6463C18.3066 12.7055 18.3804 12.7425 18.46 12.75C18.5007 12.7527 18.5416 12.7473 18.5803 12.7342C18.6189 12.7211 18.6546 12.7005 18.6853 12.6735C18.7159 12.6466 18.7409 12.6138 18.7589 12.5772C18.7769 12.5405 18.7875 12.5007 18.79 12.46C18.9634 11.253 18.9023 10.0238 18.61 8.83997C18.388 8.04419 17.9723 7.31582 17.4 6.71997C17.51 6.71997 17.62 6.64997 17.73 6.59997C18.1118 6.42354 18.4424 6.15292 18.6908 5.81355C18.9392 5.47418 19.0972 5.07721 19.15 4.65997C19.2281 3.5395 18.8698 2.43224 18.15 1.56997C17.7535 1.06543 17.1957 0.712405 16.57 0.569972C16.347 0.522862 16.1168 0.521618 15.8933 0.566316C15.6698 0.611014 15.4577 0.700719 15.27 0.829972C15.2044 0.872966 15.1582 0.939967 15.1414 1.01661C15.1245 1.09325 15.1384 1.17344 15.18 1.23997C15.1995 1.27433 15.2259 1.30434 15.2574 1.32815C15.289 1.35197 15.325 1.36908 15.3634 1.37844C15.4018 1.38781 15.4417 1.38923 15.4807 1.38261C15.5197 1.376 15.5569 1.36149 15.59 1.33997C15.7451 1.26174 15.9163 1.22098 16.09 1.22098C16.2637 1.22098 16.435 1.26174 16.59 1.33997C16.938 1.51933 17.2315 1.78868 17.44 2.11997C17.838 2.71281 18.0599 3.40624 18.08 4.11997C18.1003 4.42413 18.0268 4.72718 17.8694 4.98825C17.7121 5.24932 17.4784 5.45585 17.2 5.57997C16.6896 5.82828 16.1051 5.87817 15.56 5.71997C14.9855 5.5548 14.4823 5.20294 14.13 4.71997C13.8057 4.27354 13.6403 3.73139 13.66 3.17997C13.68 2.91544 13.7702 2.66104 13.9214 2.44305C14.0726 2.22506 14.2793 2.05139 14.52 1.93997C14.5995 1.89728 14.66 1.82632 14.6896 1.74114C14.7192 1.65595 14.7158 1.56275 14.68 1.47997C14.6616 1.43925 14.6354 1.40255 14.6029 1.37196C14.5703 1.34137 14.532 1.3175 14.4902 1.30172C14.4485 1.28593 14.404 1.27853 14.3593 1.27995C14.3147 1.28136 14.2707 1.29157 14.23 1.30997C13.8635 1.45442 13.5418 1.69337 13.2977 2.00252C13.0535 2.31167 12.8956 2.67998 12.84 3.06997C12.7363 3.83507 12.9102 4.612 13.33 5.25997C13.6138 5.71057 13.9969 6.09026 14.45 6.36997Z" fill="black"/>
<path fill-rule="evenodd" clip-rule="evenodd" d="M9.12001 18.5499C9.07534 18.5472 9.03058 18.5534 8.98829 18.568C8.94601 18.5826 8.90702 18.6055 8.87358 18.6352C8.84013 18.6649 8.81288 18.701 8.79339 18.7413C8.77391 18.7815 8.76256 18.8253 8.76001 18.8699C8.69001 19.4099 8.67001 19.9399 8.63001 20.4799C8.63001 20.8099 8.55001 21.1399 8.48001 21.4799V21.5999C7.82001 20.9299 7.19001 20.2199 6.55001 19.5199C6.00001 18.9999 5.53001 18.4299 5.00001 17.9199C4.12001 17.0599 3.17001 16.2799 2.22001 15.4899C2.19206 15.4612 2.15863 15.4384 2.1217 15.4228C2.08477 15.4072 2.0451 15.3992 2.00501 15.3992C1.96493 15.3992 1.92525 15.4072 1.88832 15.4228C1.8514 15.4384 1.81797 15.4612 1.79001 15.4899C1.73504 15.546 1.70425 15.6214 1.70425 15.6999C1.70425 15.7785 1.73504 15.8539 1.79001 15.9099C2.50001 16.7099 3.16001 17.5399 3.87001 18.3499C4.16001 18.6999 4.48001 19.0299 4.80001 19.3499L5.80001 20.3499C6.46001 20.9599 7.16001 21.5399 7.87001 22.0999H7.59001C7.20001 22.1599 6.80001 22.2399 6.39001 22.3199C5.98001 22.3999 5.61001 22.5099 5.22001 22.6199C5.18127 22.6272 5.14432 22.6419 5.11129 22.6634C5.07826 22.6849 5.04978 22.7127 5.0275 22.7452C5.00521 22.7777 4.98954 22.8143 4.9814 22.8529C4.97325 22.8914 4.97278 22.9312 4.98001 22.9699C4.99462 23.0508 5.04075 23.1226 5.10825 23.1695C5.17576 23.2164 5.25912 23.2345 5.34001 23.2199C5.64001 23.2199 5.95001 23.1699 6.26001 23.1599H7.64001C7.90977 23.1762 8.18025 23.1762 8.45001 23.1599C8.64344 23.151 8.83197 23.0962 9.00001 22.9999C9.18939 22.8436 9.32851 22.6349 9.40001 22.3999C9.47447 22.1662 9.52145 21.9246 9.54001 21.6799C9.555 21.3935 9.555 21.1064 9.54001 20.8199C9.54001 20.1999 9.42001 19.5799 9.40001 18.9599C9.40869 18.9146 9.40833 18.868 9.39894 18.8229C9.38955 18.7777 9.37132 18.7348 9.34529 18.6967C9.31927 18.6586 9.28597 18.626 9.24731 18.6008C9.20864 18.5756 9.16538 18.5583 9.12001 18.5499Z" fill="black"/>
</g>
<defs>
<clipPath id="clip0_1052_9142">
<rect width="24" height="24" fill="white"/>
</clipPath>
</defs>
</svg>
