<svg width="24" height="24" viewBox="0 0 24 24" fill="none" xmlns="http://www.w3.org/2000/svg">
<g clip-path="url(#clip0_1046_5632)">
<path fill-rule="evenodd" clip-rule="evenodd" d="M16.91 4.04999C16.5412 3.78905 16.11 3.63034 15.66 3.58999C14.8281 3.5207 13.9919 3.5207 13.16 3.58999H10.35C9.71246 3.57979 9.07561 3.63677 8.45 3.75999C7.97327 3.85172 7.52463 4.05377 7.14 4.34999C6.89842 4.56995 6.72491 4.8545 6.64 5.16999C6.54021 5.55844 6.49643 5.95916 6.51 6.35999C6.1 18.47 6 18.1 6.24 19.18C6.31132 19.6075 6.50198 20.0061 6.79 20.33C7.09751 20.5694 7.47088 20.7089 7.86 20.73C8.58429 20.8032 9.31205 20.8366 10.04 20.83L14.38 20.88C15.1264 20.9296 15.8731 20.7885 16.55 20.47C16.8101 20.3168 17.0295 20.1033 17.1896 19.8474C17.3498 19.5915 17.4459 19.3009 17.47 19C17.56 18.41 17.61 17.8 17.65 17.19C17.7 16.29 17.72 15.39 17.74 14.52L17.83 8.77999C17.9122 7.68793 17.8619 6.58993 17.68 5.50999C17.5833 4.95444 17.3139 4.44353 16.91 4.04999ZM10.33 4.63999H13.18H15.04C14.93 5.1056 14.7794 5.56067 14.59 5.99999C14.5108 6.2335 14.3604 6.43633 14.16 6.57999C13.9729 6.63988 13.776 6.66363 13.58 6.64999C12.93 6.64999 12.12 6.58999 11.71 6.57999C9.52 6.62999 9.91 6.72999 9.71 6.35999C9.60828 6.18954 9.51808 6.01248 9.44 5.82999L9 4.68999C9.44133 4.63838 9.88604 4.62166 10.33 4.63999ZM16.68 8.75999C16.68 9.56999 16.63 10.33 16.63 11.09V14.55V17.18C16.63 17.76 16.57 18.34 16.5 18.9C16.4815 19.0869 16.4107 19.2649 16.2957 19.4134C16.1808 19.562 16.0263 19.6752 15.85 19.74C15.3782 19.89 14.8849 19.961 14.39 19.95L10.09 20H8.27C7.94663 20.0164 7.62496 19.9437 7.34 19.79C7.08299 19.4816 6.92911 19.1004 6.9 18.7C6.66 17.16 6.9 14.99 7.4 6.38999C7.40332 6.1215 7.43009 5.85382 7.48 5.58999C7.51356 5.39342 7.61217 5.21382 7.76 5.07999C7.93466 4.95014 8.13631 4.86128 8.35 4.81999L8.64 6.05999C8.72694 6.38501 8.84759 6.70005 9 6.99999C9.10462 7.20044 9.26418 7.36694 9.46 7.47999C9.70666 7.58762 9.97112 7.64865 10.24 7.65999H11.69H13.63C13.9798 7.63341 14.3203 7.53467 14.63 7.36999C14.9092 7.15573 15.1237 6.86849 15.25 6.53999C15.4731 5.95377 15.6242 5.34263 15.7 4.71999C15.8616 4.74546 16.0154 4.80698 16.15 4.89999C16.4304 5.26062 16.585 5.70319 16.59 6.15999C16.6982 7.02218 16.7283 7.89238 16.68 8.75999Z" fill="black"/>
<path fill-rule="evenodd" clip-rule="evenodd" d="M22.76 1.15C22.7494 0.943267 22.702 0.740082 22.62 0.550002C22.5674 0.441527 22.4839 0.351053 22.38 0.290002C22.0269 0.140153 21.6381 0.0950258 21.26 0.160002C20.6143 0.270061 19.9811 0.444257 19.37 0.680002C19.331 0.689319 19.2942 0.706376 19.2618 0.730163C19.2295 0.753951 19.2023 0.783985 19.1818 0.818487C19.1613 0.852989 19.1479 0.891257 19.1424 0.931024C19.137 0.970791 19.1395 1.01125 19.15 1.05C19.1712 1.12745 19.2216 1.19366 19.2906 1.23469C19.3596 1.27573 19.4418 1.28839 19.52 1.27H20.87L20.74 1.37C20.6062 1.48227 20.4793 1.60248 20.36 1.73C20.25 1.87 20.14 2 20.04 2.14C19.78 2.52 19.58 2.88 19.4 3.14C19.3421 3.21179 19.3149 3.30353 19.3242 3.39529C19.3336 3.48704 19.3788 3.57139 19.45 3.63C19.4847 3.65839 19.5247 3.67963 19.5677 3.69249C19.6107 3.70535 19.6558 3.70958 19.7004 3.70493C19.745 3.70028 19.7883 3.68685 19.8277 3.66541C19.8671 3.64397 19.9019 3.61494 19.93 3.58C20.2 3.35 20.52 3.11 20.85 2.82C20.98 2.7 21.1 2.59 21.22 2.46C21.3402 2.34176 21.4475 2.21102 21.54 2.07C21.63 1.95 21.69 1.84 21.77 1.72C21.8675 2.14802 21.9344 2.58246 21.97 3.02C21.9614 3.1098 21.9878 3.19944 22.0437 3.27024C22.0996 3.34104 22.1807 3.38753 22.27 3.4C22.3147 3.40557 22.3601 3.40221 22.4035 3.3901C22.4468 3.37799 22.4874 3.35739 22.5227 3.32947C22.5581 3.30156 22.5876 3.2669 22.6094 3.22751C22.6312 3.18812 22.645 3.14477 22.65 3.1C22.7432 2.45443 22.78 1.80196 22.76 1.15Z" fill="black"/>
<path fill-rule="evenodd" clip-rule="evenodd" d="M21.17 21C21.1663 20.9605 21.1547 20.9222 21.1361 20.8872C21.1174 20.8522 21.092 20.8213 21.0613 20.7961C21.0306 20.771 20.9953 20.7523 20.9573 20.7409C20.9193 20.7295 20.8794 20.7258 20.84 20.73C20.7613 20.74 20.6895 20.7798 20.6393 20.8412C20.589 20.9026 20.5642 20.9809 20.57 21.06V21.98C20.4676 21.8626 20.3574 21.7524 20.24 21.65C20.1181 21.5534 19.9913 21.4633 19.86 21.38C19.5405 21.1954 19.206 21.0382 18.86 20.91C18.7924 20.8662 18.7101 20.8511 18.6314 20.868C18.5526 20.8849 18.4838 20.9323 18.44 21C18.3962 21.0676 18.3811 21.1498 18.398 21.2286C18.4149 21.3074 18.4624 21.3762 18.53 21.42C18.68 21.57 18.89 21.9 19.21 22.24C19.3102 22.3502 19.4207 22.4507 19.54 22.54C19.6568 22.6356 19.7805 22.7225 19.91 22.8L20.15 22.95C19.77 23.11 19.39 23.26 19.26 23.3C19.2151 23.3061 19.172 23.3211 19.133 23.3441C19.094 23.3671 19.06 23.3977 19.033 23.434C19.006 23.4703 18.9865 23.5117 18.9757 23.5556C18.9649 23.5996 18.9629 23.6453 18.97 23.69C18.9848 23.7794 19.0337 23.8596 19.1065 23.9137C19.1792 23.9678 19.2701 23.9916 19.36 23.98C19.9098 23.9595 20.4577 23.9027 21 23.81C21.267 23.7604 21.5098 23.6231 21.69 23.42C21.7846 23.1674 21.802 22.8924 21.74 22.63C21.57 22.1 21.24 21.3 21.17 21Z" fill="black"/>
<path fill-rule="evenodd" clip-rule="evenodd" d="M4.39 23.16C4.12 23.16 3.39 23.04 2.84 22.94L3.17 22.69C3.30981 22.5702 3.44019 22.4398 3.56 22.3C3.68503 22.1637 3.8019 22.0201 3.91 21.87C4.18 21.5 4.4 21.13 4.63 20.79C4.69233 20.7237 4.72576 20.6353 4.72295 20.5444C4.72013 20.4534 4.6813 20.3673 4.615 20.305C4.5487 20.2427 4.46035 20.2092 4.36939 20.212C4.27844 20.2148 4.19233 20.2537 4.13 20.32C3.81 20.57 3.45 20.83 3.13 21.14C2.98712 21.2562 2.85339 21.3832 2.73 21.52C2.60205 21.6538 2.48501 21.7975 2.38 21.95C2.38 21.33 2.3 20.68 2.32 20.37C2.32869 20.3292 2.32906 20.2871 2.3211 20.2462C2.31314 20.2053 2.29701 20.1664 2.27367 20.1318C2.25033 20.0973 2.22026 20.0678 2.18527 20.0452C2.15027 20.0225 2.11107 20.0071 2.07 20C2.03055 19.9913 1.98974 19.9906 1.95002 19.9981C1.91031 20.0055 1.8725 20.0209 1.83888 20.0433C1.80526 20.0657 1.77652 20.0947 1.75437 20.1285C1.73222 20.1623 1.71713 20.2002 1.71 20.24C1.4973 20.9421 1.34672 21.6615 1.26 22.39C1.21839 22.6986 1.21839 23.0114 1.26 23.32C1.2725 23.4258 1.30653 23.5279 1.36 23.62C1.43341 23.7253 1.52849 23.8137 1.63888 23.8792C1.74926 23.9448 1.87239 23.986 2 24C2.79143 24.0076 3.58267 23.9708 4.37 23.89C4.41507 23.8901 4.45968 23.8809 4.50108 23.8631C4.54248 23.8453 4.57979 23.8192 4.61071 23.7864C4.64163 23.7536 4.66551 23.7148 4.68086 23.6724C4.69622 23.63 4.70273 23.585 4.7 23.54C4.70554 23.4945 4.70184 23.4484 4.68911 23.4044C4.67639 23.3604 4.6549 23.3194 4.62595 23.2839C4.597 23.2485 4.56117 23.2192 4.52063 23.1979C4.48008 23.1766 4.43565 23.1637 4.39 23.16Z" fill="black"/>
<path fill-rule="evenodd" clip-rule="evenodd" d="M4.85 0.769991C4.89453 0.772804 4.93916 0.766274 4.98101 0.75082C5.02287 0.735366 5.06103 0.711329 5.09305 0.680253C5.12507 0.649178 5.15023 0.61175 5.16693 0.570373C5.18363 0.528996 5.19149 0.484585 5.19 0.439991C5.19273 0.395002 5.18622 0.34993 5.17086 0.307555C5.15551 0.26518 5.13163 0.2264 5.10071 0.193606C5.06979 0.160812 5.03248 0.1347 4.99108 0.11688C4.94969 0.099059 4.90507 0.089908 4.86 0.0899909C4.27344 0.0118184 3.68147 -0.0182818 3.09 -9.10973e-06C2.74081 0.00642326 2.39811 0.0955249 2.09 0.259991C1.83205 0.549626 1.68657 0.922196 1.68 1.30999C1.64189 1.93352 1.70951 2.55901 1.88 3.15999C1.89139 3.19835 1.91035 3.23404 1.93574 3.26496C1.96113 3.29589 1.99245 3.32142 2.02786 3.34006C2.06327 3.35869 2.10205 3.37006 2.14192 3.37348C2.18179 3.3769 2.22193 3.37232 2.26 3.35999C2.29956 3.35303 2.33723 3.33792 2.37064 3.31563C2.40405 3.29335 2.43247 3.26436 2.45409 3.23052C2.47571 3.19667 2.49007 3.15871 2.49625 3.11903C2.50243 3.07934 2.50031 3.03881 2.49 2.99999C2.52083 2.60725 2.59119 2.21862 2.7 1.83999C2.7 1.70666 2.73 1.58666 2.79 1.47999C2.86766 1.6318 2.95448 1.77874 3.05 1.91999C3.13865 2.04623 3.23553 2.16649 3.34 2.27999L3.67 2.60999C4.05 2.93999 4.39 3.17999 4.51 3.28999C4.53692 3.3261 4.57069 3.35656 4.60939 3.37962C4.64808 3.40269 4.69093 3.4179 4.73551 3.4244C4.78008 3.4309 4.82549 3.42856 4.86916 3.41751C4.91283 3.40646 4.95389 3.38691 4.99 3.35999C5.02612 3.33307 5.05657 3.2993 5.07964 3.26061C5.1027 3.22192 5.11791 3.17906 5.12441 3.13449C5.13091 3.08992 5.12857 3.0445 5.11752 3.00083C5.10647 2.95717 5.08692 2.9161 5.06 2.87999C4.88758 2.53694 4.69732 2.20315 4.49 1.87999C4.4 1.75999 4.31 1.62999 4.21 1.50999C4.10429 1.38929 3.99071 1.27571 3.87 1.16999L3.62 0.999991L3.92 0.929991L4.85 0.769991Z" fill="black"/>
</g>
<defs>
<clipPath id="clip0_1046_5632">
<rect width="24" height="24" fill="white"/>
</clipPath>
</defs>
</svg>
