<svg width="24" height="24" viewBox="0 0 24 24" fill="none" xmlns="http://www.w3.org/2000/svg">
<g clip-path="url(#clip0_1030_2013)">
<path fill-rule="evenodd" clip-rule="evenodd" d="M18.33 20C18.4211 20 18.5087 19.9646 18.574 19.9011C18.6394 19.8376 18.6774 19.7511 18.68 19.66C18.7447 18.6878 18.6707 17.7113 18.46 16.76C18.3704 16.3482 18.2501 15.9438 18.1 15.55C17.9506 15.1563 17.77 14.775 17.56 14.41C17.0849 13.6026 16.4274 12.9176 15.64 12.41C16.134 11.9728 16.5268 11.4332 16.791 10.8288C17.0552 10.2243 17.1846 9.56953 17.17 8.91001C17.2396 8.04981 17.1618 7.18403 16.94 6.35001C16.7508 5.78681 16.4517 5.26677 16.06 4.82001C16.0283 4.78704 15.9902 4.76082 15.9481 4.7429C15.906 4.72499 15.8607 4.71575 15.815 4.71575C15.7692 4.71575 15.724 4.72499 15.6819 4.7429C15.6398 4.76082 15.6017 4.78704 15.57 4.82001C15.4988 4.87862 15.4536 4.96297 15.4442 5.05473C15.4348 5.14648 15.4621 5.23822 15.52 5.31001C15.9197 5.78887 16.1854 6.36509 16.29 6.98001C16.3706 7.62751 16.3706 8.28251 16.29 8.93001C16.2809 9.72543 16.0108 10.4958 15.5211 11.1228C15.0315 11.7497 14.3495 12.1985 13.58 12.4C12.801 12.6099 11.9848 12.6416 11.1918 12.4927C10.3989 12.3438 9.64977 12.0182 8.99999 11.54C8.55446 11.1768 8.23294 10.6841 8.07999 10.13C7.88627 9.55102 7.82143 8.93669 7.88999 8.33001C7.97735 7.45338 8.27215 6.61013 8.74999 5.87001C9.2193 5.15017 9.92754 4.61899 10.75 4.37001C11.3797 4.17937 12.0323 4.07509 12.69 4.06001C13.3373 4.04666 13.9804 4.16576 14.58 4.41001C14.6529 4.44316 14.736 4.44598 14.8111 4.41785C14.8861 4.38972 14.9468 4.33295 14.98 4.26001C15.0131 4.18708 15.016 4.10396 14.9878 4.02895C14.9597 3.95393 14.9029 3.89316 14.83 3.86001C14.1644 3.54043 13.4382 3.36656 12.7 3.35001C11.9731 3.33431 11.2472 3.41161 10.54 3.58001C9.52079 3.84433 8.62378 4.45175 7.99999 5.30001C7.38561 6.14639 6.98117 7.12665 6.81999 8.16001C6.70292 8.93697 6.76448 9.7304 6.99999 10.48C7.22138 11.2728 7.69102 11.9737 8.33999 12.48L8.55999 12.62C7.63843 13.0466 6.83511 13.692 6.21999 14.5C5.80666 15.0422 5.48878 15.651 5.27999 16.3C5.07939 16.9485 4.96836 17.6214 4.94999 18.3C4.89303 18.7912 4.86632 19.2855 4.86999 19.78C4.87116 20.0426 4.92915 20.3019 5.03999 20.54C5.08014 20.6112 5.14603 20.6644 5.22413 20.6886C5.30224 20.7127 5.38663 20.7061 5.45999 20.67C5.49619 20.6511 5.52828 20.6251 5.55443 20.5937C5.58057 20.5623 5.60025 20.5261 5.61233 20.487C5.62441 20.448 5.62866 20.407 5.62482 20.3663C5.62099 20.3256 5.60915 20.2861 5.58999 20.25C5.53445 20.0403 5.53445 19.8197 5.58999 19.61C5.65999 19.16 5.80999 18.68 5.86999 18.41C5.97606 17.8305 6.14368 17.264 6.36999 16.72C6.5734 16.1831 6.83496 15.67 7.14999 15.19C7.7217 14.3231 8.49336 13.6063 9.39999 13.1C10.8241 13.746 12.4352 13.8491 13.93 13.39C14.3567 13.2499 14.7635 13.0549 15.14 12.81C15.8537 13.5112 16.3976 14.3663 16.73 15.31C16.97 15.86 17.19 16.43 17.38 17C17.6923 17.8621 17.9004 18.7585 18 19.67C18.0048 19.756 18.0411 19.8372 18.102 19.898C18.1628 19.9589 18.244 19.9952 18.33 20Z" fill="black"/>
<path fill-rule="evenodd" clip-rule="evenodd" d="M0.240005 6.28001C0.233439 6.32644 0.233439 6.37357 0.240005 6.42001C0.264025 6.48041 0.307645 6.531 0.363862 6.56364C0.42008 6.59628 0.485635 6.60909 0.550005 6.60001C0.930005 6.54001 0.810005 6.19001 0.820005 5.78001C0.865643 4.74877 0.965783 3.72067 1.12 2.70001C1.15272 2.31157 1.23333 1.92866 1.36 1.56001C1.3862 1.49406 1.4267 1.43475 1.47857 1.38633C1.53045 1.33791 1.59241 1.3016 1.66 1.28001C2.07234 1.19704 2.49007 1.14357 2.91 1.12001C3.22385 1.06016 3.54114 1.02008 3.86 1.00001H6.22C6.30947 1.00015 6.39559 0.966035 6.46068 0.904662C6.52577 0.84329 6.56489 0.759322 6.57 0.670006C6.57 0.57718 6.53313 0.488156 6.46749 0.422518C6.40185 0.356881 6.31283 0.320006 6.22 0.320006C5.43 0.280006 4.66 0.130006 3.87 0.0800057C3.51425 0.0466211 3.15632 0.0432759 2.8 0.0700057C2.30127 0.0546662 1.80222 0.0881591 1.31 0.170006C1.08372 0.235966 0.875731 0.353316 0.702269 0.512901C0.528807 0.672486 0.394561 0.869991 0.310005 1.09001C0.125487 1.5732 0.0207871 2.08319 4.68176e-06 2.60001C-0.0155051 3.67291 0.0446441 4.74557 0.180005 5.81001C0.190024 5.96779 0.210064 6.12477 0.240005 6.28001Z" fill="black"/>
<path fill-rule="evenodd" clip-rule="evenodd" d="M6.29 23H3.92C3.61115 22.9791 3.30389 22.939 3 22.88C2.57676 22.8564 2.15571 22.803 1.74 22.72C1.67253 22.6974 1.61122 22.6594 1.5609 22.6091C1.51058 22.5588 1.47262 22.4975 1.45 22.43C1.31795 22.0658 1.23391 21.6859 1.2 21.3C1.05853 20.2787 0.971744 19.2506 0.940005 18.22C0.968942 18.0077 0.968942 17.7924 0.940005 17.58C0.940005 17.49 0.430005 17.25 0.340005 17.72L0.280005 18.19C0.133511 19.2535 0.0666582 20.3265 0.0800048 21.4C0.0911675 21.9152 0.185726 22.4251 0.360005 22.91C0.443891 23.1304 0.577915 23.3283 0.751477 23.488C0.925038 23.6477 1.13337 23.7648 1.36 23.83C1.8519 23.9152 2.35094 23.952 2.85 23.94C3.20957 23.965 3.57044 23.965 3.93 23.94C4.72001 23.88 5.49001 23.74 6.28 23.7C6.37283 23.7 6.46185 23.6631 6.52749 23.5975C6.59313 23.5319 6.63 23.4428 6.63 23.35C6.63 23.2572 6.59313 23.1682 6.52749 23.1025C6.46185 23.0369 6.37283 23 6.28 23H6.29Z" fill="black"/>
<path fill-rule="evenodd" clip-rule="evenodd" d="M17.71 1.00001C18.5 1.05001 19.29 1.00001 20.08 1.00001C20.3949 1.01016 20.7089 1.04022 21.02 1.09001C21.4432 1.1136 21.8643 1.16707 22.28 1.25001C22.3461 1.27225 22.4064 1.30891 22.4565 1.35734C22.5067 1.40577 22.5455 1.46475 22.57 1.53001C22.7018 1.89773 22.7858 2.28087 22.82 2.67001C22.9838 3.9037 23.0772 5.14571 23.1 6.39001C23.1 6.48001 23.61 6.71001 23.7 6.25001L23.76 5.78001C23.8931 4.71213 23.9466 3.63583 23.92 2.56001C23.909 2.0481 23.8144 1.54142 23.64 1.06001C23.5567 0.838138 23.423 0.638642 23.2495 0.477253C23.076 0.315863 22.8673 0.196991 22.64 0.130011C22.1472 0.0534866 21.6486 0.0200269 21.15 0.0300108C20.7903 0.0100159 20.4297 0.0100159 20.07 0.0300108C19.28 0.0900108 18.51 0.230011 17.72 0.280011C17.6298 0.280011 17.5433 0.315832 17.4796 0.379594C17.4158 0.443357 17.38 0.529837 17.38 0.620011C17.3744 0.66707 17.3787 0.714778 17.3927 0.760073C17.4066 0.805367 17.4298 0.847249 17.4609 0.88303C17.492 0.918811 17.5302 0.947701 17.5731 0.967846C17.616 0.987992 17.6626 0.998948 17.71 1.00001Z" fill="black"/>
<path fill-rule="evenodd" clip-rule="evenodd" d="M23.82 18.17C23.82 17.75 23.77 17.33 23.42 17.39C23.07 17.45 23.16 17.74 23.15 18.2C23.1151 19.2308 23.025 20.2589 22.88 21.28C22.8483 21.6686 22.7677 22.0516 22.64 22.42C22.6151 22.4867 22.575 22.5467 22.523 22.5953C22.4709 22.6439 22.4083 22.6798 22.34 22.7C21.9285 22.7879 21.5104 22.8414 21.09 22.86C20.7755 22.9098 20.4582 22.9399 20.14 22.95H17.78C17.7298 22.9414 17.6783 22.9439 17.6291 22.9573C17.58 22.9707 17.5343 22.9947 17.4954 23.0275C17.4564 23.0604 17.4251 23.1013 17.4037 23.1475C17.3822 23.1937 17.3711 23.2441 17.3711 23.295C17.3711 23.346 17.3822 23.3963 17.4037 23.4425C17.4251 23.4887 17.4564 23.5297 17.4954 23.5625C17.5343 23.5954 17.58 23.6194 17.6291 23.6327C17.6783 23.6461 17.7298 23.6486 17.78 23.64C18.57 23.69 19.34 23.83 20.13 23.89C20.4864 23.9101 20.8436 23.9101 21.2 23.89C21.6986 23.9004 22.1972 23.8669 22.69 23.79C22.9166 23.7217 23.1246 23.6023 23.298 23.4411C23.4713 23.2799 23.6054 23.0811 23.69 22.86C23.8644 22.3786 23.959 21.8719 23.97 21.36C23.994 20.2945 23.9439 19.2286 23.82 18.17Z" fill="black"/>
</g>
<defs>
<clipPath id="clip0_1030_2013">
<rect width="24" height="24" fill="white"/>
</clipPath>
</defs>
</svg>
