<svg width="24" height="24" viewBox="0 0 24 24" fill="none" xmlns="http://www.w3.org/2000/svg">
<g clip-path="url(#clip0_1052_9154)">
<path fill-rule="evenodd" clip-rule="evenodd" d="M23.28 17.55C23.1 16.88 22.88 16.24 22.64 15.55C22.29 14.6 21.9 13.68 21.49 12.74C21 11.59 20.49 10.49 19.97 9.41C19.17 7.74 18.34 6.14 17.51 4.51C16.9426 3.36112 16.2265 2.29194 15.38 1.33C14.7529 0.581746 13.8606 0.105143 12.89 0C12.5806 0.00589002 12.2765 0.0810669 12 0.22C11.6379 0.388818 11.3013 0.607618 11 0.87C10.431 1.37885 9.90895 1.93776 9.43998 2.54C8.96187 3.12625 8.52419 3.74434 8.12998 4.39C6.99998 6.23 5.99999 7.71 4.99999 9.48C4.39999 10.48 3.76999 11.65 3.09999 13.01C2.78999 13.61 2.32999 14.7 1.88999 15.79C1.44999 16.88 0.999985 18 0.819985 18.62C0.542916 19.2398 0.309025 19.878 0.119985 20.53C-0.0207808 21.0373 -0.0615375 21.5671 -1.48248e-05 22.09C0.0880976 22.4539 0.300264 22.7757 0.599985 23C1.37999 23.67 2.11999 23.73 3.90999 23.72C5.69999 23.71 7.79998 23.62 8.68998 23.62L16.87 23.67C17.87 23.67 18.87 23.89 19.82 23.95C20.2825 23.9901 20.7475 23.9901 21.21 23.95C21.5754 23.9291 21.9375 23.8687 22.29 23.77C22.5975 23.6696 22.8734 23.4903 23.09 23.25C23.6641 22.5925 23.9865 21.7528 24 20.88C23.9223 19.741 23.6798 18.6193 23.28 17.55ZM22.18 22.46C22.0783 22.5606 21.9499 22.63 21.81 22.66C21.56 22.71 21.32 22.72 21.08 22.75C20.6874 22.785 20.2925 22.785 19.9 22.75C18.9 22.69 17.9 22.48 16.9 22.45L8.67999 22.37C7.78999 22.37 5.59999 22.46 3.89999 22.46C2.19999 22.46 0.969985 22.46 1.35999 20.81C1.52941 20.192 1.7433 19.5871 1.99999 19C2.18999 18.38 2.58999 17.3 2.99999 16.24C3.40999 15.18 3.85999 14.12 4.14999 13.54C4.81999 12.2 5.41999 11.08 5.99999 10.06C6.99999 8.29 7.99998 6.83 9.12998 5C9.49781 4.39765 9.90889 3.82281 10.36 3.28C10.7938 2.73761 11.2758 2.23557 11.8 1.78C11.9733 1.62149 12.1646 1.48388 12.37 1.37C12.5082 1.28457 12.6675 1.23953 12.83 1.24C13.4944 1.34651 14.0924 1.70458 14.5 2.24C15.2614 3.12214 15.9035 4.10052 16.41 5.15C17.23 6.76 18.07 8.36 18.87 10.01C19.39 11.07 19.87 12.16 20.4 13.29C20.8 14.2 21.2 15.1 21.54 16.03C21.7813 16.6356 21.9916 17.253 22.17 17.88C22.5304 18.8439 22.7526 19.8539 22.83 20.88C22.8039 21.4663 22.574 22.0251 22.18 22.46Z" fill="black"/>
<path fill-rule="evenodd" clip-rule="evenodd" d="M16.1 13C15.4579 12.7726 14.7647 12.7311 14.1 12.88L13.38 13.05C13.38 12.83 13.47 12.61 13.52 12.38L13.58 12.17C13.9908 12.0807 14.381 11.9145 14.73 11.68C15.1623 11.4009 15.5172 11.0172 15.7619 10.5645C16.0067 10.1117 16.1332 9.60462 16.13 9.09002C16.112 8.4605 15.891 7.85366 15.5 7.36002C13.91 5.28002 11.5 6.49002 11.26 6.62002C10.833 6.85224 10.4689 7.18472 10.1989 7.58886C9.92886 7.99299 9.76109 8.45668 9.70999 8.94002C9.6871 9.62182 9.90283 10.2902 10.32 10.83C10.7083 11.337 11.217 11.7392 11.8 12C12.1031 12.1246 12.4235 12.2021 12.75 12.23C12.64 12.55 12.53 12.87 12.43 13.23C12.257 13.2444 12.083 13.2444 11.91 13.23C11.3317 13.1707 10.7709 12.9973 10.26 12.72C9.80982 12.4421 9.4731 12.0133 9.30999 11.51C9.28933 11.4252 9.25128 11.3457 9.19827 11.2764C9.14525 11.2071 9.07842 11.1496 9.002 11.1074C8.92559 11.0653 8.84126 11.0395 8.75436 11.0317C8.66746 11.0239 8.57988 11.0342 8.49717 11.062C8.41447 11.0898 8.33844 11.1345 8.2739 11.1932C8.20937 11.2519 8.15774 11.3234 8.12228 11.4032C8.08682 11.4829 8.0683 11.5691 8.06791 11.6563C8.06751 11.7436 8.08525 11.83 8.11999 11.91C8.3332 12.7277 8.8383 13.4391 9.53999 13.91C10.1958 14.3124 10.9278 14.5746 11.69 14.68H12.05C11.97 15.02 11.89 15.36 11.84 15.68C11.72 16.48 11.96 15.68 10.84 16.41C10.2348 17.0128 9.77336 17.7443 9.48999 18.55C9.15377 19.2953 8.97667 20.1025 8.96999 20.92C8.97755 21.016 9.00402 21.1095 9.04789 21.1952C9.09175 21.281 9.15213 21.3571 9.22556 21.4194C9.29899 21.4817 9.38401 21.5288 9.47573 21.5581C9.56745 21.5874 9.66406 21.5982 9.75999 21.59C9.85466 21.5825 9.9469 21.5562 10.0314 21.5129C10.1159 21.4695 10.191 21.4099 10.2523 21.3374C10.3137 21.2649 10.3601 21.181 10.3888 21.0904C10.4176 20.9999 10.4282 20.9046 10.42 20.81C10.5078 20.239 10.6939 19.6875 10.97 19.18C11.1516 18.6757 11.4226 18.2082 11.77 17.8C11.8341 17.7389 11.9152 17.6986 12.0026 17.6843C12.0901 17.67 12.1797 17.6825 12.26 17.72C12.61 17.9506 12.9441 18.2046 13.26 18.48C13.756 18.861 14.3009 19.1738 14.88 19.41C15.4929 19.6692 16.1549 19.7921 16.82 19.77C16.9114 19.7814 17.0043 19.7733 17.0923 19.7461C17.1803 19.7189 17.2616 19.6733 17.3307 19.6123C17.3998 19.5513 17.4551 19.4763 17.493 19.3923C17.5309 19.3083 17.5505 19.2172 17.5505 19.125C17.5505 19.0329 17.5309 18.9418 17.493 18.8578C17.4551 18.7738 17.3998 18.6988 17.3307 18.6378C17.2616 18.5768 17.1803 18.5312 17.0923 18.504C17.0043 18.4768 16.9114 18.4686 16.82 18.48C16.3458 18.4527 15.8826 18.3267 15.46 18.11C15.009 17.8888 14.5888 17.6098 14.21 17.28C12.68 16.01 12.81 16.54 12.92 15.82C12.9563 15.424 13.0131 15.0302 13.09 14.64C13.5 14.58 13.91 14.47 14.45 14.35C14.8444 14.2575 15.2569 14.2783 15.64 14.41C16.0218 14.5358 16.3658 14.756 16.64 15.05C16.7011 15.1206 16.7757 15.1782 16.8594 15.2196C16.9431 15.2609 17.0342 15.2851 17.1273 15.2907C17.2205 15.2962 17.3139 15.2831 17.4019 15.2521C17.49 15.2211 17.5709 15.1728 17.64 15.11C17.7816 14.9865 17.8685 14.8119 17.8816 14.6245C17.8947 14.437 17.833 14.252 17.71 14.11C17.2734 13.6125 16.7202 13.2311 16.1 13ZM12.26 11C11.8627 10.811 11.519 10.5257 11.26 10.17C10.9864 9.84356 10.847 9.42535 10.87 9.00002C10.9081 8.70351 11.0195 8.42117 11.1941 8.17849C11.3687 7.93581 11.601 7.74044 11.87 7.61002C13.11 6.90002 15.1 7.42002 15.1 9.10002C15.0907 9.42969 15 9.75194 14.836 10.0381C14.672 10.3242 14.4397 10.5654 14.16 10.74C13.8904 10.939 13.5752 11.0672 13.2432 11.1126C12.9112 11.158 12.5731 11.1193 12.26 11Z" fill="black"/>
<path fill-rule="evenodd" clip-rule="evenodd" d="M8.46 15.36C8.2331 15.1342 7.95532 14.9662 7.65 14.87C7.59082 14.856 7.52917 14.856 7.47 14.87H7.28C6.93598 14.892 6.60794 15.0231 6.34357 15.2443C6.0792 15.4655 5.89228 15.7653 5.81 16.1C5.7599 16.458 5.84922 16.8216 6.05952 17.1157C6.26981 17.4097 6.58501 17.6117 6.94 17.68C7.19721 17.7479 7.466 17.7598 7.72821 17.715C7.99042 17.6701 8.23997 17.5695 8.46 17.42C8.64869 17.2951 8.79292 17.1136 8.87198 16.9016C8.95104 16.6896 8.96085 16.458 8.9 16.24C8.8405 15.9106 8.6878 15.6052 8.46 15.36ZM7.65 16.65C7.52296 16.6893 7.38703 16.6893 7.26 16.65C7.02 16.57 6.88 16.43 6.91 16.27C6.94 16.11 7.15 16 7.4 16H7.51C7.57395 16.0376 7.63422 16.0811 7.69 16.13C7.78123 16.2356 7.84328 16.3631 7.87 16.5C7.9 16.6 7.76 16.62 7.65 16.65Z" fill="black"/>
</g>
<defs>
<clipPath id="clip0_1052_9154">
<rect width="24" height="24" fill="white"/>
</clipPath>
</defs>
</svg>
