<svg width="24" height="24" viewBox="0 0 24 24" fill="none" xmlns="http://www.w3.org/2000/svg">
<g clip-path="url(#clip0_1047_6118)">
<path fill-rule="evenodd" clip-rule="evenodd" d="M19.47 10.63C19.11 10.63 18.76 10.7 18.41 10.76C17.61 10.88 16.96 11.05 16.16 11.2C16.1212 11.2392 16.0936 11.288 16.0799 11.3414C16.0663 11.3949 16.0672 11.451 16.0825 11.504C16.0978 11.557 16.1269 11.6049 16.1669 11.6429C16.2069 11.6808 16.2563 11.7075 16.31 11.72C17.1 11.72 17.72 11.82 18.5 11.8C18.86 11.8 19.21 11.8 19.57 11.73L20.62 11.6C21.34 11.49 21.89 11.34 22.62 11.22C22.97 11.03 22.76 10.66 22.28 10.6H20.54C20.17 10.58 19.82 10.6 19.47 10.63Z" fill="black"/>
<path fill-rule="evenodd" clip-rule="evenodd" d="M3 13.4499L4 13.3899L5.05 13.2599C5.86 13.1399 6.68 12.9799 7.23 12.8999C7.47 12.6899 7.57 12.3299 7.08 12.2199C6.3715 12.1546 5.65849 12.1546 4.95 12.2199L3.95 12.2799L2.95 12.3999C2.35 12.4899 1.95 12.6499 1.34 12.7699C0.989999 12.8699 1.05 13.3699 1.45 13.4799C2 13.4999 2.41 13.4699 3 13.4499Z" fill="black"/>
<path fill-rule="evenodd" clip-rule="evenodd" d="M22.64 6.64999C21.8196 5.20055 20.7301 3.921 19.43 2.87999C18.1521 1.81714 16.6822 1.00922 15.1 0.499988C13.6971 0.0916032 12.2195 0.00950976 10.78 0.259988C8.05246 0.771554 5.55081 2.11672 3.62 4.10999C2.29513 5.48243 1.27309 7.11768 0.62 8.90999C-0.038589 10.7333 -0.170284 12.7053 0.24 14.6C0.432704 15.4266 0.710868 16.2309 1.07 17C1.42469 17.7706 1.83233 18.5157 2.29 19.23C3.0225 20.3572 3.97476 21.3252 5.08987 22.0761C6.20498 22.8269 7.46003 23.3452 8.78 23.6C11.3997 24.0888 14.1038 23.8395 16.59 22.88C17.348 22.6118 18.0809 22.2771 18.78 21.88C19.4817 21.4594 20.1326 20.9594 20.72 20.39C22.4708 18.6085 23.5851 16.2991 23.89 13.82C24.2337 11.3581 23.7965 8.85035 22.64 6.64999ZM22.88 13.65C22.6004 15.9019 21.5885 17.9995 20 19.62C19.4724 20.1223 18.8885 20.5618 18.26 20.93C17.6222 21.3042 16.953 21.6221 16.26 21.88C13.9509 22.7793 11.4371 23.0182 9 22.57C7.80998 22.3568 6.67511 21.906 5.66314 21.2445C4.65118 20.583 3.78285 19.7244 3.11 18.72C2.65731 18.0549 2.25614 17.3562 1.91 16.63C1.56476 15.9151 1.29013 15.1682 1.09 14.4C0.703999 12.6584 0.793806 10.845 1.35 9.14999C1.93425 7.44461 2.87514 5.88329 4.11 4.56999C5.93181 2.68787 8.3073 1.43706 10.89 0.999988C12.2272 0.786416 13.5956 0.882202 14.89 1.27999C16.3569 1.78179 17.7146 2.55903 18.89 3.56999C20.0881 4.55436 21.0861 5.75948 21.83 7.11999C22.8477 9.14617 23.2145 11.4374 22.88 13.68V13.65Z" fill="black"/>
<path fill-rule="evenodd" clip-rule="evenodd" d="M8 14C8.29698 14.7342 8.80525 15.3638 9.46038 15.8088C10.1155 16.2539 10.888 16.4944 11.68 16.5C12.4791 16.5238 13.2676 16.3118 13.9469 15.8903C14.6263 15.4688 15.1664 14.8566 15.5 14.13C15.8202 13.4177 15.9427 12.6324 15.8547 11.8565C15.7668 11.0805 15.4715 10.3425 15 9.72002C14.659 9.24474 14.2008 8.8658 13.67 8.62002C12.19 7.94002 11.62 8.05002 9.67 9.00002C9.29616 9.17806 8.95743 9.42195 8.67 9.72002C8.16668 10.298 7.83678 11.0063 7.71825 11.7635C7.59972 12.5206 7.69738 13.2959 8 14ZM9.35 10.2C9.8213 9.70884 10.418 9.35601 11.0755 9.17973C11.733 9.00346 12.4262 9.01048 13.08 9.20002C13.6082 9.38749 14.0633 9.7376 14.38 10.2C14.7147 10.7141 14.9085 11.3071 14.9418 11.9196C14.9752 12.5321 14.8469 13.1427 14.57 13.69C14.3165 14.2293 13.9082 14.681 13.3971 14.9873C12.8859 15.2936 12.2951 15.4408 11.7 15.41C11.1083 15.4236 10.5257 15.2619 10.0257 14.9451C9.5257 14.6284 9.13055 14.1708 8.89 13.63C8.63544 13.0743 8.54173 12.4584 8.6195 11.8521C8.69727 11.2458 8.94342 10.6735 9.33 10.2H9.35Z" fill="black"/>
</g>
<defs>
<clipPath id="clip0_1047_6118">
<rect width="24" height="24" fill="white"/>
</clipPath>
</defs>
</svg>
