<svg width="24" height="24" viewBox="0 0 24 24" fill="none" xmlns="http://www.w3.org/2000/svg">
<g clip-path="url(#clip0_1046_5639)">
<path fill-rule="evenodd" clip-rule="evenodd" d="M24 11.08C23.94 10.32 23.83 9.81 23.8 8.74C23.7986 8.06737 23.7248 7.39685 23.58 6.74C23.4575 6.21831 23.1825 5.74489 22.79 5.38C22.6733 5.29312 22.5496 5.21618 22.42 5.15L22.65 3.45C22.7456 2.93834 22.8024 2.42021 22.82 1.9C22.8344 1.47849 22.7267 1.06181 22.51 0.7C22.3571 0.476442 22.1361 0.308123 21.88 0.22C21.448 0.0754896 20.9956 0.00121277 20.54 0L19.17 0C18.17 0 17.1 0.12 16.07 0.12C15.56 0.12 15.07 0.12 14.55 0.17C13.81 0.17 13.07 0.29 12.32 0.34C11.8968 0.339441 11.4758 0.400068 11.07 0.52C10.8281 0.593409 10.6149 0.740174 10.46 0.94C10.3603 1.06925 10.3043 1.22683 10.3 1.39C10.3034 1.72479 10.3301 2.05893 10.38 2.39C10.3932 2.89631 10.4433 3.40099 10.53 3.9C10.6 4.27 10.68 4.66 10.79 5.11H10.08C9.98335 4.91661 9.8549 4.74083 9.7 4.59C9.50826 4.37649 9.26826 4.21191 9 4.11C8.64547 4.00024 8.27993 3.92981 7.91 3.9C6.86633 3.78789 5.81366 3.78789 4.77 3.9C4.25828 3.93393 3.76321 4.09552 3.33 4.37C3.13013 4.53326 2.98383 4.75272 2.91 5V5.14C2.57798 5.09817 2.24202 5.09817 1.91 5.14C1.58494 5.1769 1.27316 5.28997 1 5.47C0.703208 5.72846 0.505286 6.08189 0.44 6.47C0.272946 7.20196 0.182459 7.94932 0.17 8.7C0.17 9.7 0.0599997 10.48 0.0299997 11.32V12.48L0.12 19.09C0.117226 19.6417 0.177619 20.192 0.3 20.73C0.380704 21.1505 0.574283 21.5411 0.86 21.86C1.13585 22.1326 1.4821 22.323 1.86 22.41C2.22951 22.4371 2.60049 22.4371 2.97 22.41C3.03374 22.5608 3.11785 22.7021 3.22 22.83C3.64438 23.3268 4.21486 23.6768 4.85 23.83C5.71962 24.0501 6.63038 24.0501 7.5 23.83C8.17212 23.6814 8.81895 23.4355 9.42 23.1C9.66998 22.9417 9.88174 22.73 10.04 22.48L18.39 22.72C19.3718 22.798 20.3582 22.798 21.34 22.72C21.8329 22.6757 22.3104 22.5257 22.74 22.28C23.0197 22.0644 23.2315 21.7727 23.35 21.44C23.5415 20.8433 23.659 20.2253 23.7 19.6C23.79 18.91 23.86 18.36 23.9 17.79C23.9207 17.3769 23.9207 16.9631 23.9 16.55L24 12.14V11.08ZM11.23 3.75C11.1931 3.28072 11.1931 2.80928 11.23 2.34C11.23 2.17 10.99 1.34 11.23 1.43V1.5C11.3597 1.40346 11.5184 1.35407 11.68 1.36C11.9365 1.34528 12.1935 1.34528 12.45 1.36L16.15 1.28L20.59 1.08C20.8498 1.06494 21.1102 1.06494 21.37 1.08C21.52 1.08 21.67 1.08 21.75 1.21C21.8866 1.41855 21.9627 1.66083 21.97 1.91C21.9752 2.39124 21.9485 2.8723 21.89 3.35L21.76 4.87C21.6631 4.83282 21.5625 4.806 21.46 4.79C20.489 4.69375 19.511 4.69375 18.54 4.79C17.12 4.79 15.3 4.87 13.54 4.94C12.8733 4.94 12.2067 4.97 11.54 5.03C11.33 4.54 11.27 4.14 11.23 3.75ZM2 21.67C1.7769 21.5966 1.57923 21.4614 1.43 21.28C1.27248 21.0664 1.17572 20.8141 1.15 20.55C1.0683 20.0746 1.04146 19.5915 1.07 19.11C1.12 17.91 1.18 16.85 1.2 15.78C1.22 14.71 1.2 13.65 1.2 12.44V8.69C1.15928 8.10738 1.15928 7.52262 1.2 6.94C1.2 6.56 1.27 6.21 1.44 6.08C1.60762 5.95712 1.79796 5.86875 2 5.82C2.28748 5.77321 2.57905 5.75645 2.87 5.77V6V9.39C2.87 10.78 2.93 12.39 2.94 14.18C2.94 15.18 2.94 16.18 2.86 17.34V21.04C2.84543 21.2898 2.84543 21.5402 2.86 21.79C2.5692 21.7894 2.27986 21.749 2 21.67ZM9.37 19.54C9.37 20.01 9.37 20.54 9.27 21.01C9.2457 21.29 9.1852 21.5656 9.09 21.83C8.97423 22.0275 8.79421 22.1793 8.58 22.26C8.13371 22.4814 7.66415 22.6525 7.18 22.77C6.60511 22.9347 6.00185 22.9756 5.41 22.89C4.87779 22.8398 4.37947 22.6065 4 22.23C3.88801 22.0861 3.82182 21.9119 3.81 21.73C3.79577 21.4835 3.79577 21.2365 3.81 20.99V17.33V14.12C3.76 12.31 3.64 10.73 3.63 9.34L3.6 6C3.58552 5.78691 3.58552 5.57309 3.6 5.36C3.6271 5.21472 3.70956 5.08565 3.83 5C4.27485 4.77392 4.77188 4.67037 5.27 4.7C6.11213 4.67517 6.95489 4.71865 7.79 4.83C8.03747 4.86714 8.28158 4.92399 8.52 5C8.69888 5.03477 8.86486 5.11776 9 5.24C9.18718 5.45827 9.31769 5.7193 9.38 6C9.50197 6.46022 9.5658 6.93391 9.57 7.41C9.66 9.26 9.76 10.75 9.78 12.3C9.8005 13.3779 9.76378 14.456 9.67 15.53L9.37 19.54ZM22.73 17.68C22.73 18.23 22.64 18.76 22.57 19.43C22.5418 19.9008 22.4783 20.3688 22.38 20.83C22.3507 21.0445 22.2483 21.2423 22.09 21.39C21.6819 21.6031 21.2303 21.7195 20.77 21.73C19.9756 21.8032 19.1773 21.8266 18.38 21.8H10.29C10.3453 21.5864 10.3854 21.3692 10.41 21.15C10.47 20.65 10.47 20.15 10.51 19.65L10.82 15.58C10.91 14.36 10.93 13.28 10.91 12.24C10.86 10.67 10.72 9.17 10.6 7.31C10.5712 6.76886 10.4841 6.23241 10.34 5.71C11.34 5.71 12.34 5.65 13.43 5.65H18.43C19.2193 5.60177 20.0107 5.60177 20.8 5.65C21.2362 5.66629 21.6575 5.81255 22.01 6.07C22.2392 6.30635 22.3924 6.60586 22.45 6.93C22.5637 7.51946 22.6073 8.1203 22.58 8.72L22.79 12.09L22.71 16.48C22.76 17 22.75 17.32 22.73 17.68Z" fill="black"/>
<path fill-rule="evenodd" clip-rule="evenodd" d="M20.42 7.21002C20.2838 7.16895 20.1422 7.14872 20 7.15002H18.73H16.44L14.08 7.38002H13.37C13.2333 7.39241 13.0988 7.42267 12.97 7.47002C12.8859 7.50546 12.819 7.57234 12.7835 7.6564C12.748 7.74045 12.7468 7.83505 12.78 7.92002C12.7928 7.952 12.8096 7.98224 12.83 8.01002V10.31C12.7966 10.6425 12.7966 10.9775 12.83 11.31C12.8467 11.4002 12.882 11.4859 12.9337 11.5616C12.9853 11.6374 13.0522 11.7015 13.13 11.75C13.4193 11.8877 13.7309 11.9723 14.05 12C14.696 12.101 15.3469 12.1678 16 12.2L19 12.29C19.3949 12.3353 19.7926 12.352 20.19 12.34C20.3786 12.3286 20.5626 12.2775 20.73 12.19C20.9909 12.003 21.1839 11.7363 21.28 11.43C21.4188 10.9455 21.4895 10.444 21.49 9.94002C21.5757 9.26819 21.5143 8.58575 21.31 7.94002C21.2208 7.76296 21.0956 7.60652 20.9423 7.4808C20.789 7.35507 20.6111 7.26283 20.42 7.21002ZM20.3 9.90002C20.2929 10.1882 20.2661 10.4755 20.22 10.76C20.21 10.8993 20.1727 11.0352 20.11 11.16H19H16H14.44C14.1954 11.1525 13.9516 11.1292 13.71 11.09C13.6249 10.8525 13.581 10.6023 13.58 10.35L13.45 8.14002H14.15L16.45 8.00002L18.67 8.10002L20.06 8.18002C20.29 8.27002 20.31 8.50002 20.34 8.73002C20.3589 9.12046 20.3455 9.51178 20.3 9.90002Z" fill="black"/>
<path fill-rule="evenodd" clip-rule="evenodd" d="M14.38 16.48C14.6036 16.5259 14.8357 16.5049 15.0474 16.4195C15.2591 16.3341 15.4409 16.1882 15.57 16C15.6367 15.8183 15.6581 15.6231 15.6323 15.4313C15.6066 15.2395 15.5344 15.0569 15.4221 14.8993C15.3098 14.7416 15.1607 14.6138 14.9879 14.5268C14.815 14.4398 14.6235 14.3963 14.43 14.4C14.2797 14.4088 14.1327 14.4476 13.9976 14.514C13.8625 14.5805 13.742 14.6733 13.6432 14.7869C13.5445 14.9006 13.4695 15.0328 13.4225 15.1759C13.3756 15.3189 13.3577 15.4699 13.37 15.62C13.4042 15.862 13.5258 16.0831 13.7119 16.2416C13.898 16.4 14.1356 16.4848 14.38 16.48Z" fill="black"/>
<path fill-rule="evenodd" clip-rule="evenodd" d="M18.53 16.45C19.04 16.6 19.82 16.55 20.07 16C20.1758 15.7206 20.1763 15.4123 20.0714 15.1326C19.9665 14.8529 19.7634 14.6209 19.5 14.48C19.2812 14.4128 19.049 14.4024 18.8251 14.4496C18.6012 14.4968 18.393 14.6002 18.22 14.75C18.0872 14.8637 17.9865 15.0103 17.9279 15.175C17.8694 15.3398 17.8551 15.5171 17.8865 15.6891C17.9179 15.8611 17.9938 16.0219 18.1067 16.1554C18.2196 16.2889 18.3656 16.3905 18.53 16.45Z" fill="black"/>
<path fill-rule="evenodd" clip-rule="evenodd" d="M14.49 18C14.2105 18.0325 13.9503 18.159 13.7522 18.359C13.5541 18.5589 13.4299 18.8202 13.4 19.1C13.3913 19.3478 13.4665 19.5913 13.6136 19.791C13.7606 19.9907 13.9708 20.1348 14.21 20.2C14.4164 20.2552 14.6336 20.2552 14.84 20.2C15.098 20.1623 15.3381 20.0461 15.5277 19.8672C15.7173 19.6883 15.8473 19.4554 15.9 19.2C16 18.59 15.06 17.9 14.49 18Z" fill="black"/>
<path fill-rule="evenodd" clip-rule="evenodd" d="M19.51 18C19.2133 17.9032 18.8934 17.9033 18.5968 18.0004C18.3001 18.0975 18.0421 18.2865 17.86 18.54C17.7923 18.7071 17.7659 18.888 17.7831 19.0674C17.8003 19.2468 17.8605 19.4194 17.9587 19.5706C18.0568 19.7218 18.19 19.847 18.3469 19.9357C18.5039 20.0244 18.6799 20.0739 18.86 20.08C19.1332 20.1573 19.4259 20.125 19.6756 19.9898C19.9253 19.8546 20.1124 19.6273 20.1971 19.3563C20.2818 19.0853 20.2574 18.7919 20.1291 18.5386C20.0008 18.2853 19.7786 18.092 19.51 18Z" fill="black"/>
</g>
<defs>
<clipPath id="clip0_1046_5639">
<rect width="24" height="24" fill="white"/>
</clipPath>
</defs>
</svg>
