<svg width="24" height="24" viewBox="0 0 24 24" fill="none" xmlns="http://www.w3.org/2000/svg">
<g clip-path="url(#clip0_1034_4253)">
<path fill-rule="evenodd" clip-rule="evenodd" d="M15.71 5.61001C15.489 5.61103 15.2683 5.59431 15.05 5.56001C15.11 5.34001 15.2 5.08001 15.29 4.80001C15.72 3.38001 15.93 1.89001 14.79 0.930012C14.7371 0.888574 14.6707 0.868349 14.6036 0.87329C14.5366 0.87823 14.4739 0.907981 14.4276 0.956729C14.3814 1.00548 14.355 1.06972 14.3536 1.1369C14.3521 1.20408 14.3758 1.26937 14.42 1.32001C15.6 2.60001 14.15 4.37001 14 5.71001C13.85 7.05001 17.07 6.61001 18.18 6.10001L19.87 5.39001C19.9399 5.3534 19.9955 5.29422 20.0275 5.22208C20.0596 5.14994 20.0663 5.06908 20.0466 4.99263C20.0269 4.91618 19.982 4.84863 19.919 4.80095C19.8561 4.75328 19.7789 4.72828 19.7 4.73001C17.58 5.50001 17.49 5.65001 15.71 5.61001Z" fill="black"/>
<path fill-rule="evenodd" clip-rule="evenodd" d="M15.88 0.06C14.5 0 15.13 0 6 0C5.91381 0 5.83114 0.034241 5.77019 0.0951903C5.70924 0.15614 5.675 0.238805 5.675 0.325C5.675 0.411195 5.70924 0.49386 5.77019 0.55481C5.83114 0.615759 5.91381 0.65 6 0.65C14.51 0.72 14.76 0.65 15.82 0.81C16.88 0.97 19.57 3.46 20.25 4.51C20.3932 4.68332 20.4804 4.89604 20.5 5.12C20.4 6.66 19.76 11.12 19.5 12.2C19.24 13.28 19.05 14 18.87 14.91C18.8 15.27 18.35 19.51 17.22 20.06C15.63 20.83 13.85 20.32 12.22 20.46C10.6978 20.6069 9.16923 20.6769 7.64 20.67C2.24 20.48 2.49 20.56 1.03 19.86C2.36 18.05 3.25 13.86 3.72 11.41C4.25 8.71 4.07 5.96 4.28 3.24C4.28 2.77 4.75 0.24 3.98 0.62C3.67 0.76 3.77 1.22 3.77 1.43C3.77 2.78 3.44 8.02 3.36 8.89C2.96381 12.1569 2.12965 15.3556 0.880004 18.4C0.720004 18.7 0.530004 18.99 0.350004 19.27C0.205715 19.4397 0.0908001 19.6324 0.0100036 19.84C-0.0051427 19.9955 0.0280143 20.1519 0.104959 20.2879C0.181904 20.4239 0.298896 20.5329 0.440004 20.6C1.06445 20.9529 1.73878 21.2091 2.44 21.36C5.71035 21.6828 9.00227 21.7263 12.28 21.49C13.97 21.34 15.85 21.88 17.69 20.98C19.37 20.16 19.75 15.73 19.87 15.1C20.04 14.19 20.28 13.3 20.46 12.4C20.64 11.5 21.25 6.9 21.34 5.16C21.42 3.65 17.27 0.17 15.88 0.06Z" fill="black"/>
<path fill-rule="evenodd" clip-rule="evenodd" d="M23.09 5.81C22.99 7.35 22.15 13.52 21.93 14.56C21.71 15.6 21.48 16.36 21.3 17.27C21.23 17.63 20.78 21.87 19.65 22.42C18.06 23.18 16.28 22.68 14.65 22.82C13.65 22.91 11.41 23.07 10.07 23.03C4.92001 22.84 4.93001 23.03 3.67001 22.46C2.94001 22.17 2.76001 22.87 3.21001 23.18C3.72582 23.4842 4.30336 23.6688 4.90001 23.72C8.16711 24.043 11.456 24.0832 14.73 23.84C16.42 23.7 18.3 24.24 20.14 23.34C21.82 22.52 22.21 18.09 22.32 17.46C22.49 16.55 22.73 15.66 22.91 14.76C23.09 13.86 23.92 7.68 24 6C24.05 5.06 23.2 4.92 23.09 5.81Z" fill="black"/>
<path fill-rule="evenodd" clip-rule="evenodd" d="M8.11001 11.6C9.55001 10.35 9.90001 10.4 9.71001 10.07C9.67162 10.0159 9.61399 9.97845 9.54892 9.96544C9.48385 9.95242 9.41626 9.96478 9.36001 9.99998C8.36001 10.49 5.69001 11.89 6.04001 12.93C6.27001 13.6 9.18001 15.61 9.38001 15.61C9.45613 15.6075 9.52845 15.5761 9.5823 15.5223C9.63616 15.4684 9.66751 15.3961 9.67001 15.32C9.67001 15.11 9.46001 15.02 9.30001 14.88C8.75001 14.4 7.48001 13.22 7.18001 12.88C7.18001 12.88 7.08001 12.81 7.03001 12.76C7.35962 12.3461 7.72069 11.9583 8.11001 11.6Z" fill="black"/>
<path fill-rule="evenodd" clip-rule="evenodd" d="M12.46 15.23C12.46 15.3069 12.4906 15.3807 12.5449 15.4351C12.5993 15.4895 12.6731 15.52 12.75 15.52C13.7985 14.9145 14.7805 14.2006 15.68 13.39C15.97 13.07 16.26 12.79 16.07 12.39C15.57 11.39 13.8 10.39 12.77 9.93003C12.713 9.90934 12.6506 9.90922 12.5935 9.9297C12.5364 9.95018 12.4883 9.98996 12.4575 10.0422C12.4266 10.0944 12.415 10.1557 12.4246 10.2156C12.4342 10.2754 12.4644 10.3301 12.51 10.37C13.4634 11.0249 14.3332 11.794 15.1 12.66C14.77 12.92 14.48 13.39 12.83 14.81C12.67 14.93 12.46 15 12.46 15.23Z" fill="black"/>
</g>
<defs>
<clipPath id="clip0_1034_4253">
<rect width="24" height="24" fill="white"/>
</clipPath>
</defs>
</svg>
