<svg width="24" height="24" viewBox="0 0 24 24" fill="none" xmlns="http://www.w3.org/2000/svg">
<g clip-path="url(#clip0_1034_4298)">
<path fill-rule="evenodd" clip-rule="evenodd" d="M10.22 9.44C10.03 8.8 9.37 8.8 8.89 9.71C8.59396 10.7387 8.37667 11.7884 8.24 12.85C8.27223 12.8675 8.30832 12.8767 8.345 12.8767C8.38168 12.8767 8.41777 12.8675 8.45 12.85C8.68159 12.601 8.86774 12.3133 9 12C9.44723 12.095 9.91102 12.0778 10.35 11.95C10.4124 12.1551 10.4526 12.3663 10.47 12.58C10.47 12.84 10.92 12.89 11.03 12.52C10.9754 11.9832 10.8784 11.4515 10.74 10.93C10.68 10.83 10.79 11.21 10.22 9.44ZM9.14 11.56C9.23351 10.9711 9.3808 10.392 9.58 9.83C9.71 10.16 10 10.93 10.2 11.54C9.85028 11.4606 9.48648 11.4674 9.14 11.56Z" fill="black"/>
<path fill-rule="evenodd" clip-rule="evenodd" d="M16.09 9.44C15.9 8.8 15.25 8.8 14.77 9.71C14.474 10.7387 14.2567 11.7884 14.12 12.85C14.1522 12.8675 14.1883 12.8767 14.225 12.8767C14.2617 12.8767 14.2978 12.8675 14.33 12.85C14.5524 12.5829 14.7251 12.2781 14.84 11.95C15.2872 12.045 15.751 12.0278 16.19 11.9C16.2421 12.1075 16.2822 12.3179 16.31 12.53C16.31 12.79 16.76 12.84 16.87 12.47C16.8105 11.9339 16.7136 11.4026 16.58 10.88C16.56 10.83 16.67 11.21 16.09 9.44ZM15 11.56C15.0948 10.9723 15.2387 10.3937 15.43 9.83C15.58 10.21 15.87 10.96 16.05 11.54C15.7036 11.4606 15.3431 11.4675 15 11.56Z" fill="black"/>
<path fill-rule="evenodd" clip-rule="evenodd" d="M13.48 12C13.6876 11.0831 13.8412 10.1549 13.94 9.21999C13.94 9.10999 13.61 8.97999 13.45 9.29999C13.39 9.42999 13.28 10.44 13.25 10.52L12.74 11.75C12.39 10.87 12.33 10.66 12.23 10.43C12.0517 10.0357 11.8514 9.65178 11.63 9.27999C11.45 9.02999 11.19 9.09999 11.17 9.27999C11.15 9.45999 12 12 12 12.08C12.35 13 13.15 13.27 13.48 12Z" fill="black"/>
<path fill-rule="evenodd" clip-rule="evenodd" d="M5.25 9.59998C5.42 9.96998 6.63 9.59998 6.73 9.59998C6.81327 10.1133 6.81327 10.6367 6.73 11.15C6.49 13.01 5.59 12.08 5.55 11.54C5.55 11.4763 5.52471 11.4153 5.4797 11.3703C5.4347 11.3253 5.37365 11.3 5.31 11.3C5.24635 11.3 5.1853 11.3253 5.14029 11.3703C5.09528 11.4153 5.07 11.4763 5.07 11.54C5.04833 11.8567 5.13572 12.1713 5.31765 12.4314C5.49958 12.6916 5.76508 12.8816 6.07 12.97C6.88 13.12 7.32 11.97 7.33 11.2C7.33 10.81 7.23 9.57998 7.21 9.52998C7.7 9.52998 7.87 9.52998 7.95 9.34998C8.03 9.16998 8 9.09998 7.73 8.99998C7.48803 8.96586 7.24429 8.94583 7 8.93998C6.69429 8.93611 6.39009 8.98343 6.1 9.07998C5.8908 9.15648 5.67705 9.21993 5.46 9.26998C5.2 9.37998 5.21 9.52998 5.25 9.59998Z" fill="black"/>
<path fill-rule="evenodd" clip-rule="evenodd" d="M15.71 5.61001C15.489 5.61103 15.2683 5.59431 15.05 5.56001C15.11 5.34001 15.2 5.08001 15.29 4.80001C15.72 3.38001 15.93 1.89001 14.79 0.930012C14.7371 0.888574 14.6707 0.868349 14.6036 0.87329C14.5366 0.87823 14.4739 0.907981 14.4276 0.956729C14.3814 1.00548 14.355 1.06972 14.3536 1.1369C14.3521 1.20408 14.3758 1.26937 14.42 1.32001C15.6 2.60001 14.15 4.37001 14 5.71001C13.85 7.05001 17.07 6.61001 18.18 6.10001L19.87 5.39001C19.9399 5.3534 19.9955 5.29422 20.0275 5.22208C20.0596 5.14994 20.0663 5.06908 20.0466 4.99263C20.0269 4.91618 19.982 4.84863 19.919 4.80095C19.8561 4.75328 19.7789 4.72828 19.7 4.73001C17.58 5.50001 17.49 5.65001 15.71 5.61001Z" fill="black"/>
<path fill-rule="evenodd" clip-rule="evenodd" d="M15.88 0.06C14.5 0 15.13 0 6 0C5.9138 0 5.83114 0.034241 5.77019 0.0951903C5.70924 0.15614 5.675 0.238805 5.675 0.325C5.675 0.411195 5.70924 0.49386 5.77019 0.55481C5.83114 0.615759 5.9138 0.65 6 0.65C14.51 0.72 14.76 0.65 15.82 0.81C16.88 0.97 19.57 3.46 20.25 4.51C20.3932 4.68332 20.4804 4.89604 20.5 5.12C20.4 6.66 19.76 11.12 19.5 12.2C19.24 13.28 19.05 14 18.87 14.91C18.8 15.27 18.35 19.51 17.22 20.06C15.63 20.83 13.85 20.32 12.22 20.46C10.6978 20.6069 9.16922 20.6769 7.64 20.67C2.24 20.48 2.49 20.56 1.03 19.86C2.36 18.05 3.25 13.86 3.72 11.41C4.25 8.71 4.07 5.96 4.28 3.24C4.28 2.77 4.75 0.24 3.98 0.62C3.67 0.76 3.77 1.22 3.77 1.43C3.77 2.78 3.44 8.02 3.36 8.89C2.9638 12.1569 2.12965 15.3556 0.88 18.4C0.72 18.7 0.53 18.99 0.35 19.27C0.205712 19.4397 0.0907962 19.6324 0.00999975 19.84C-0.00514651 19.9955 0.0280105 20.1519 0.104955 20.2879C0.1819 20.4239 0.298892 20.5329 0.44 20.6C1.06445 20.9529 1.73877 21.2091 2.44 21.36C5.71035 21.6828 9.00226 21.7263 12.28 21.49C13.97 21.34 15.85 21.88 17.69 20.98C19.37 20.16 19.75 15.73 19.87 15.1C20.04 14.19 20.28 13.3 20.46 12.4C20.64 11.5 21.25 6.9 21.34 5.16C21.42 3.65 17.27 0.17 15.88 0.06Z" fill="black"/>
<path fill-rule="evenodd" clip-rule="evenodd" d="M23.09 5.81C22.99 7.35 22.15 13.52 21.93 14.56C21.71 15.6 21.48 16.36 21.3 17.27C21.23 17.63 20.78 21.87 19.65 22.42C18.06 23.18 16.28 22.68 14.65 22.82C13.65 22.91 11.41 23.07 10.07 23.03C4.92 22.84 4.93 23.03 3.67 22.46C2.94 22.17 2.76 22.87 3.21 23.18C3.72581 23.4842 4.30335 23.6688 4.9 23.72C8.1671 24.043 11.456 24.0832 14.73 23.84C16.42 23.7 18.3 24.24 20.14 23.34C21.82 22.52 22.21 18.09 22.32 17.46C22.49 16.55 22.73 15.66 22.91 14.76C23.09 13.86 23.92 7.68 24 6C24.05 5.06 23.2 4.92 23.09 5.81Z" fill="black"/>
</g>
<defs>
<clipPath id="clip0_1034_4298">
<rect width="24" height="24" fill="white"/>
</clipPath>
</defs>
</svg>
