<svg width="24" height="24" viewBox="0 0 24 24" fill="none" xmlns="http://www.w3.org/2000/svg">
<g clip-path="url(#clip0_1034_4327)">
<path fill-rule="evenodd" clip-rule="evenodd" d="M17.37 21.29C17.4722 21.3907 17.594 21.4694 17.7278 21.5212C17.8616 21.573 18.0046 21.5968 18.148 21.5912C18.2914 21.5855 18.4321 21.5506 18.5614 21.4885C18.6907 21.4264 18.806 21.3384 18.9 21.23C19.0039 21.0262 19.0348 20.7929 18.9875 20.569C18.9401 20.3452 18.8175 20.1444 18.64 20C17.69 19.48 16.52 20.44 17.37 21.29Z" fill="black"/>
<path fill-rule="evenodd" clip-rule="evenodd" d="M24 21.09C23.3175 18.7632 22.3502 16.5296 21.12 14.44C20.7885 13.9289 20.4138 13.4471 20 13C19.84 12.93 19.36 12.93 19.55 13.44C19.8 14.19 19.76 13.44 21.02 15.88C21.6725 17.263 22.237 18.6858 22.71 20.14C22.86 20.57 23.17 21.39 22.95 21.8C22.5 22.66 21.23 22.72 20.25 22.75C18.07 22.87 15.45 22.89 13.45 22C12.35 21.52 13.16 20.59 13.64 19.48C14.41 17.65 17.56 12.15 18.64 12.59C18.7096 12.6056 18.7824 12.596 18.8455 12.5628C18.9086 12.5295 18.9578 12.4749 18.9842 12.4087C19.0107 12.3425 19.0128 12.2691 18.99 12.2015C18.9672 12.1339 18.9211 12.0767 18.86 12.04C17.11 11.27 13.49 17.47 12.72 19.04C12.2 20.18 10.86 22 13 23C15.14 24 17.83 24 20.32 23.84C21.75 23.74 23.21 23.53 23.84 22.24C24.0114 21.8826 24.0673 21.4807 24 21.09Z" fill="black"/>
<path fill-rule="evenodd" clip-rule="evenodd" d="M18.66 16.53C18.5686 15.9889 18.4416 15.4544 18.28 14.93C18.2 14.8 17.87 14.69 17.73 15.12C17.68 15.26 17.57 15.9 17.54 16.04C17.5104 16.2791 17.5104 16.5209 17.54 16.76C17.6101 17.3542 17.7373 17.9402 17.92 18.51C18.57 18.84 18.75 17.26 18.66 16.53Z" fill="black"/>
<path fill-rule="evenodd" clip-rule="evenodd" d="M10.08 18.16C3.21999 18 3.17999 18 2.43999 17.88C2.01643 17.8348 1.61602 17.6642 1.28999 17.39C1.5804 16.9562 1.81871 16.4896 1.99999 16C4.35999 9.77001 3.75999 6.36001 3.99999 3.14001C3.92999 3.46001 3.99999 1.00001 3.99999 1.00001C3.98827 0.957616 3.96737 0.918319 3.93877 0.884901C3.91017 0.851484 3.87457 0.824765 3.83449 0.806636C3.79442 0.788507 3.75085 0.779412 3.70687 0.779995C3.66289 0.780578 3.61957 0.790824 3.57999 0.810009C3.26999 0.940009 3.35999 1.42001 3.34999 1.57001C2.99999 8.63001 2.68999 10 1.69999 13.43C1.45014 14.3496 1.13946 15.2516 0.769992 16.13C0.449992 16.74 0.0499922 17.22 0.0099922 17.43C-0.00766132 17.5936 0.0262139 17.7586 0.106888 17.9021C0.187563 18.0455 0.311009 18.1601 0.459992 18.23C1.02792 18.5305 1.63822 18.7429 2.26999 18.86C3.09999 18.99 3.26999 18.95 10.11 18.86C10.2028 18.856 10.2903 18.8153 10.3531 18.7469C10.4159 18.6784 10.449 18.5878 10.445 18.495C10.441 18.4022 10.4003 18.3147 10.3319 18.2519C10.2634 18.1891 10.1728 18.156 10.08 18.16Z" fill="black"/>
<path fill-rule="evenodd" clip-rule="evenodd" d="M5.35999 1.00001L12.52 1.21001C12.8319 1.69287 12.9985 2.25518 13 2.83001C12.81 4.12001 11.19 5.97001 13.23 6.14001C14.1753 6.18106 15.1187 6.02439 16 5.68001L17.18 5.15001C17.2298 5.13716 17.2758 5.11285 17.3146 5.07902C17.3533 5.0452 17.3835 5.00281 17.403 4.95521C17.4224 4.90762 17.4304 4.85614 17.4264 4.80489C17.4225 4.75364 17.4065 4.70403 17.38 4.66001C17.15 4.28001 16.3 4.66001 15.69 4.91001C14.9409 5.06755 14.1742 5.12472 13.41 5.08001C13.8 3.73001 14.24 2.70001 13.34 1.22001H13.92C14.83 1.31001 17.92 4.14001 17.92 4.70001C17.92 6.14001 17.63 8.47001 17.49 9.86001C17.4986 9.9152 17.523 9.96672 17.5602 10.0084C17.5974 10.05 17.6459 10.0801 17.6997 10.0949C17.7536 10.1096 17.8106 10.1086 17.8639 10.0917C17.9171 10.0749 17.9644 10.0431 18 10C18.18 8.81001 18.65 6.40001 18.81 4.82001C18.97 3.24001 15.3 0.270014 14 0.150014C12.92 0.0800138 13.6 0.150014 5.36999 0.300014C5.27716 0.298688 5.18761 0.334291 5.12104 0.398991C5.05446 0.463691 5.01632 0.552188 5.01499 0.645014C5.01366 0.73784 5.04927 0.82739 5.11397 0.893966C5.17867 0.960541 5.26716 0.998688 5.35999 1.00001Z" fill="black"/>
<path fill-rule="evenodd" clip-rule="evenodd" d="M8.49998 8.47999C8.49998 8.16999 8.29998 8.09999 8.00998 8.13999C7.76754 8.23182 7.53876 8.35631 7.32998 8.50999C6.52502 8.88566 5.83468 9.469 5.32998 10.2C5.00998 10.82 5.72998 11.2 5.87998 11.37C6.47117 11.883 7.09226 12.3605 7.73998 12.8C7.80597 12.847 7.8866 12.869 7.96732 12.8618C8.04805 12.8547 8.12357 12.8189 8.18027 12.761C8.23697 12.7031 8.27112 12.6268 8.27657 12.546C8.28202 12.4651 8.2584 12.385 8.20998 12.32C7.89998 11.96 7.47998 11.57 7.10998 11.16C6.73998 10.75 6.88998 10.8 6.47998 10.52C7.64998 8.99999 8.54998 8.99999 8.49998 8.47999Z" fill="black"/>
<path fill-rule="evenodd" clip-rule="evenodd" d="M13.64 9.16998C12.9371 8.6981 12.1435 8.37796 11.31 8.22998C11.2578 8.25832 11.2142 8.30022 11.1838 8.35126C11.1535 8.4023 11.1375 8.46059 11.1375 8.51998C11.1375 8.57937 11.1535 8.63766 11.1838 8.6887C11.2142 8.73974 11.2578 8.78164 11.31 8.80998C11.8382 9.08524 12.3432 9.40295 12.82 9.75998C12.62 10.07 11.91 10.92 11.54 11.35C11.17 11.78 10.54 12.01 10.86 12.35C11.18 12.69 11.72 12.27 12.14 11.92C13.14 11.15 14.69 9.99998 13.64 9.16998Z" fill="black"/>
<path fill-rule="evenodd" clip-rule="evenodd" d="M19 0.999997C19.9392 1.85258 20.601 2.96728 20.9 4.2C20.9 5.67 19.99 9.63 19.9 11.06C19.8894 11.1396 19.9108 11.2201 19.9596 11.2838C20.0083 11.3476 20.0804 11.3894 20.16 11.4C20.2395 11.4106 20.3201 11.3892 20.3838 11.3404C20.4476 11.2917 20.4894 11.2196 20.5 11.14C20.68 9.92 21.77 5.88 21.93 4.26C21.8888 3.45923 21.659 2.67952 21.2593 1.98441C20.8596 1.2893 20.3013 0.698447 19.63 0.259997C18.6 -0.260003 18.47 0.719997 19 0.999997Z" fill="black"/>
</g>
<defs>
<clipPath id="clip0_1034_4327">
<rect width="24" height="24" fill="white"/>
</clipPath>
</defs>
</svg>
