<svg width="24" height="24" viewBox="0 0 24 24" fill="none" xmlns="http://www.w3.org/2000/svg">
<g clip-path="url(#clip0_1034_4288)">
<path fill-rule="evenodd" clip-rule="evenodd" d="M5.35 14.4C5.54 14.69 5.86 14.56 5.86 14.32C5.86 14.26 5.75 14.26 5.86 12.97V12.49C6.13925 12.569 6.43767 12.5441 6.7 12.42C6.74214 13.0438 6.81892 13.6647 6.93 14.28C6.96182 14.3158 7.0026 14.3425 7.04816 14.3574C7.09372 14.3723 7.14242 14.3747 7.18925 14.3645C7.23608 14.3544 7.27936 14.3319 7.31464 14.2995C7.34992 14.267 7.37593 14.2258 7.39 14.18C7.46563 13.7678 7.49913 13.349 7.49 12.93C7.52351 12.3854 7.49668 11.8387 7.41 11.3C7.29962 10.9773 7.23565 10.6406 7.22 10.3C7.24254 10.2483 7.24362 10.1897 7.22299 10.1372C7.20236 10.0847 7.16172 10.0425 7.11 10.02C7.08439 10.0088 7.05683 10.0028 7.0289 10.0023C7.00097 10.0018 6.97322 10.0068 6.94722 10.017C6.89471 10.0376 6.85254 10.0783 6.83 10.13C6.68294 10.6839 6.63221 11.2589 6.68 11.83C5.75 11.55 5.86 11.92 5.86 11.52C5.84368 11.0475 5.79692 10.5765 5.72 10.11C5.6 9.98998 5.46 9.98998 5.35 10.21C5.24355 10.6299 5.1733 11.0581 5.14 11.49C4.96996 12.2337 4.96996 13.0062 5.14 13.75C5.18251 13.9746 5.25306 14.193 5.35 14.4Z" fill="black"/>
<path fill-rule="evenodd" clip-rule="evenodd" d="M10.66 10.29C10.66 9.88998 8.24 10.04 8.13 10.12C8.02 10.2 7.99 10.25 8.01 10.32C7.99704 10.3589 7.99704 10.401 8.01 10.44C8.37447 10.6061 8.76949 10.6946 9.17 10.7V11.29C9.0726 12.0492 9.04582 12.8158 9.09 13.58C9.09 13.72 9.03 14.26 9.22 14.42C9.24156 14.4436 9.26781 14.4625 9.29708 14.4755C9.32635 14.4884 9.358 14.4951 9.39 14.4951C9.422 14.4951 9.45365 14.4884 9.48292 14.4755C9.51219 14.4625 9.53845 14.4436 9.56 14.42C9.68 14.31 9.71 13.68 9.72 13.63C9.9157 12.8622 9.95313 12.0627 9.83 11.28C9.83 11.18 9.83 10.77 9.76 10.63C9.95 10.63 10.26 10.63 10.38 10.56C10.5 10.49 10.67 10.36 10.66 10.29Z" fill="black"/>
<path fill-rule="evenodd" clip-rule="evenodd" d="M14.25 14.28C14.3126 13.8562 14.3427 13.4283 14.34 13C14.4586 12.1418 14.4821 11.2733 14.41 10.41C14.3896 10.3452 14.3565 10.2852 14.3126 10.2334C14.2687 10.1816 14.2149 10.139 14.1544 10.1083C14.0938 10.0776 14.0278 10.0592 13.9601 10.0544C13.8923 10.0495 13.8243 10.0582 13.76 10.08C13.3942 10.2283 13.0785 10.4781 12.85 10.8C12.7932 10.5811 12.691 10.3767 12.55 10.2C12.4717 10.1111 12.3722 10.0435 12.2607 10.0036C12.1492 9.9637 12.0294 9.95272 11.9125 9.9717C11.7956 9.99068 11.6854 10.039 11.5923 10.1122C11.4992 10.1853 11.4261 10.2809 11.38 10.39C11.2273 10.8793 11.1432 11.3875 11.13 11.9V13.9C11.24 14.7 11.84 14.28 11.6 14C11.5757 13.036 11.6663 12.0725 11.87 11.13C12.11 10.26 12.1 11.27 12.15 11.5C12.2 11.73 12.23 12.29 12.69 12.29C13.15 12.29 13.04 11.61 13.69 10.99C13.7317 11.656 13.7317 12.324 13.69 12.99C13.6628 13.4295 13.6628 13.8704 13.69 14.31C13.694 14.3842 13.7273 14.4539 13.7826 14.5036C13.8379 14.5533 13.9107 14.5789 13.985 14.575C14.0593 14.571 14.1289 14.5377 14.1786 14.4824C14.2283 14.427 14.254 14.3542 14.25 14.28Z" fill="black"/>
<path fill-rule="evenodd" clip-rule="evenodd" d="M15.46 10.29C15.46 10.4 15.24 12.5 15.23 12.61C15.224 13.0381 15.2744 13.4651 15.38 13.88C15.63 14.64 16.27 14.66 17.05 14.48C17.3338 14.4669 17.6139 14.4095 17.88 14.31C18.04 14.15 17.96 13.88 17.59 13.84C17.192 13.8898 16.7909 13.9098 16.39 13.9C16.07 13.85 16.14 13.9 15.9 10.66C15.91 10.5703 15.91 10.4797 15.9 10.39C15.9138 10.359 15.9206 10.3252 15.9199 10.2912C15.9191 10.2573 15.9108 10.2239 15.8956 10.1935C15.8804 10.1631 15.8586 10.1364 15.8319 10.1154C15.8051 10.0944 15.774 10.0797 15.7409 10.0721C15.7077 10.0646 15.6733 10.0645 15.6401 10.0719C15.6069 10.0792 15.5758 10.0938 15.5489 10.1147C15.5221 10.1355 15.5002 10.162 15.4848 10.1924C15.4694 10.2227 15.4609 10.256 15.46 10.29Z" fill="black"/>
<path fill-rule="evenodd" clip-rule="evenodd" d="M15.71 5.61001C15.489 5.61103 15.2683 5.59431 15.05 5.56001C15.11 5.34001 15.2 5.08001 15.29 4.80001C15.72 3.38001 15.93 1.89001 14.79 0.930012C14.7371 0.888574 14.6707 0.868349 14.6036 0.87329C14.5366 0.87823 14.4739 0.907981 14.4276 0.956729C14.3814 1.00548 14.355 1.06972 14.3536 1.1369C14.3521 1.20408 14.3758 1.26937 14.42 1.32001C15.6 2.60001 14.15 4.37001 14 5.71001C13.85 7.05001 17.07 6.61001 18.18 6.10001L19.87 5.39001C19.9399 5.3534 19.9955 5.29422 20.0275 5.22208C20.0596 5.14994 20.0663 5.06908 20.0466 4.99263C20.0269 4.91618 19.982 4.84863 19.919 4.80095C19.8561 4.75328 19.7789 4.72828 19.7 4.73001C17.58 5.50001 17.49 5.65001 15.71 5.61001Z" fill="black"/>
<path fill-rule="evenodd" clip-rule="evenodd" d="M15.88 0.06C14.5 0 15.13 0 6 0C5.9138 0 5.83114 0.034241 5.77019 0.0951903C5.70924 0.15614 5.675 0.238805 5.675 0.325C5.675 0.411195 5.70924 0.49386 5.77019 0.55481C5.83114 0.615759 5.9138 0.65 6 0.65C14.51 0.72 14.76 0.65 15.82 0.81C16.88 0.97 19.57 3.46 20.25 4.51C20.3932 4.68332 20.4804 4.89604 20.5 5.12C20.4 6.66 19.76 11.12 19.5 12.2C19.24 13.28 19.05 14 18.87 14.91C18.8 15.27 18.35 19.51 17.22 20.06C15.63 20.83 13.85 20.32 12.22 20.46C10.6978 20.6069 9.16922 20.6769 7.64 20.67C2.24 20.48 2.49 20.56 1.03 19.86C2.36 18.05 3.25 13.86 3.72 11.41C4.25 8.71 4.07 5.96 4.28 3.24C4.28 2.77 4.75 0.24 3.98 0.62C3.67 0.76 3.77 1.22 3.77 1.43C3.77 2.78 3.44 8.02 3.36 8.89C2.9638 12.1569 2.12965 15.3556 0.88 18.4C0.72 18.7 0.53 18.99 0.35 19.27C0.205712 19.4397 0.0907962 19.6324 0.00999975 19.84C-0.00514651 19.9955 0.0280105 20.1519 0.104955 20.2879C0.1819 20.4239 0.298892 20.5329 0.44 20.6C1.06445 20.9529 1.73877 21.2091 2.44 21.36C5.71035 21.6828 9.00226 21.7263 12.28 21.49C13.97 21.34 15.85 21.88 17.69 20.98C19.37 20.16 19.75 15.73 19.87 15.1C20.04 14.19 20.28 13.3 20.46 12.4C20.64 11.5 21.25 6.9 21.34 5.16C21.42 3.65 17.27 0.17 15.88 0.06Z" fill="black"/>
<path fill-rule="evenodd" clip-rule="evenodd" d="M23.09 5.81C22.99 7.35 22.15 13.52 21.93 14.56C21.71 15.6 21.48 16.36 21.3 17.27C21.23 17.63 20.78 21.87 19.65 22.42C18.06 23.18 16.28 22.68 14.65 22.82C13.65 22.91 11.41 23.07 10.07 23.03C4.92 22.84 4.93 23.03 3.67 22.46C2.94 22.17 2.76 22.87 3.21 23.18C3.72581 23.4842 4.30335 23.6688 4.9 23.72C8.1671 24.043 11.456 24.0832 14.73 23.84C16.42 23.7 18.3 24.24 20.14 23.34C21.82 22.52 22.21 18.09 22.32 17.46C22.49 16.55 22.73 15.66 22.91 14.76C23.09 13.86 23.92 7.68 24 6C24.05 5.06 23.2 4.92 23.09 5.81Z" fill="black"/>
</g>
<defs>
<clipPath id="clip0_1034_4288">
<rect width="24" height="24" fill="white"/>
</clipPath>
</defs>
</svg>
