<svg width="24" height="24" viewBox="0 0 24 24" fill="none" xmlns="http://www.w3.org/2000/svg">
<g clip-path="url(#clip0_1047_6141)">
<path fill-rule="evenodd" clip-rule="evenodd" d="M12.42 16.6899C12.2492 16.2081 12.0488 15.7372 11.82 15.2799C11.2584 14.2138 10.5882 13.2084 9.82 12.2799C9.79804 12.248 9.76989 12.2207 9.73722 12.1999C9.70455 12.179 9.66802 12.1648 9.62979 12.1583C9.59156 12.1518 9.55242 12.153 9.51466 12.1619C9.47691 12.1707 9.44132 12.1871 9.41 12.2099C9.3476 12.256 9.30546 12.3244 9.29241 12.4008C9.27936 12.4773 9.29642 12.5558 9.34 12.6199C9.91052 13.5993 10.4021 14.6225 10.81 15.6799C10.99 16.1399 11.17 16.5799 11.34 17.0399C11.51 17.4999 11.67 17.9399 11.83 18.3999C12.19 19.4599 12.52 20.5399 12.83 21.6999C12.8384 21.7427 12.8551 21.7834 12.8793 21.8197C12.9034 21.8559 12.9346 21.887 12.9708 21.9112C13.0071 21.9354 13.0478 21.9521 13.0905 21.9605C13.1333 21.9689 13.1773 21.9687 13.22 21.9599C13.3069 21.9429 13.3838 21.8926 13.4342 21.8198C13.4847 21.747 13.5047 21.6573 13.49 21.5699C13.3471 20.4021 13.1367 19.2435 12.86 18.0999C12.7377 17.6227 12.5908 17.1521 12.42 16.6899Z" fill="black"/>
<path fill-rule="evenodd" clip-rule="evenodd" d="M15.34 12.12C14.8049 11.6412 14.2295 11.2096 13.62 10.83C13.3586 10.671 13.0882 10.5274 12.81 10.4C12.5353 10.2662 12.2512 10.1525 11.96 10.06C11.2838 9.8556 10.5959 9.69198 9.9 9.57002C9.86325 9.55762 9.8244 9.55273 9.78572 9.55562C9.74705 9.5585 9.70935 9.56912 9.67485 9.58684C9.64036 9.60455 9.60976 9.629 9.58488 9.65875C9.56 9.6885 9.54134 9.72293 9.53 9.76002C9.51739 9.79612 9.51206 9.83436 9.51429 9.87254C9.51652 9.91072 9.52629 9.94808 9.54302 9.98247C9.55975 10.0169 9.58311 10.0476 9.61177 10.0729C9.64043 10.0982 9.67381 10.1176 9.71 10.13C10.44 10.46 11.11 10.84 11.82 11.13C12.16 11.3 12.52 11.45 12.82 11.61C13.12 11.77 13.52 11.9 13.87 12.07C14.2134 12.2308 14.5472 12.4111 14.87 12.61C14.9045 12.6449 14.9461 12.6719 14.992 12.6892C15.0379 12.7064 15.087 12.7136 15.1359 12.7101C15.1848 12.7066 15.2324 12.6926 15.2754 12.669C15.3184 12.6454 15.3558 12.6127 15.385 12.5733C15.4142 12.5339 15.4345 12.4887 15.4445 12.4407C15.4546 12.3927 15.4541 12.343 15.4432 12.2952C15.4323 12.2474 15.4112 12.2025 15.3813 12.1637C15.3514 12.1248 15.3134 12.0928 15.27 12.07L15.34 12.12Z" fill="black"/>
<path fill-rule="evenodd" clip-rule="evenodd" d="M9.91 7.30995C10.64 6.99995 11.35 6.77995 12.05 6.50995L13.05 6.09995C13.39 5.96995 13.72 5.81995 14.05 5.70995C14.4005 5.59432 14.7578 5.5008 15.12 5.42995C15.1993 5.41087 15.2691 5.36392 15.3166 5.29767C15.3642 5.23142 15.3864 5.15029 15.3791 5.06906C15.3718 4.98783 15.3356 4.91192 15.277 4.85518C15.2184 4.79844 15.1414 4.76464 15.06 4.75995C14.3664 4.7603 13.6751 4.84083 13 4.99995C12.7075 5.07021 12.4202 5.16043 12.14 5.26995C11.8567 5.37391 11.5824 5.501 11.32 5.64995C10.7329 6.00211 10.1654 6.38601 9.62 6.79995C9.5783 6.81361 9.54011 6.83625 9.50812 6.86628C9.47612 6.8963 9.4511 6.93298 9.43482 6.97373C9.41854 7.01447 9.4114 7.05829 9.4139 7.1021C9.41639 7.14591 9.42847 7.18863 9.44927 7.22727C9.47007 7.2659 9.49909 7.2995 9.53429 7.3257C9.56949 7.35189 9.61001 7.37005 9.65299 7.37889C9.69596 7.38772 9.74036 7.38703 9.78304 7.37684C9.82572 7.36666 9.86564 7.34724 9.9 7.31995L9.91 7.30995Z" fill="black"/>
<path fill-rule="evenodd" clip-rule="evenodd" d="M9.28 1.99997C9.19768 1.96653 9.10555 1.96665 9.02332 2.00029C8.94108 2.03393 8.87528 2.09843 8.84 2.17997C8.57329 2.65144 8.33616 3.13905 8.13 3.63997C8.04826 3.85853 7.98144 4.08237 7.93 4.30997C7.86923 4.53587 7.82907 4.76682 7.81 4.99997C7.77501 5.53607 7.77501 6.07387 7.81 6.60997C7.79633 6.65286 7.79249 6.69828 7.79875 6.74286C7.80502 6.78744 7.82124 6.83004 7.84622 6.86749C7.87119 6.90495 7.90427 6.93631 7.94301 6.95924C7.98175 6.98217 8.02515 6.99609 8.07 6.99997C8.10812 7.00412 8.14669 7.00067 8.18346 6.98982C8.22024 6.97896 8.2545 6.96093 8.28426 6.93675C8.31402 6.91257 8.33869 6.88273 8.35684 6.84895C8.37499 6.81517 8.38626 6.77813 8.39 6.73997C8.55 6.14997 8.77 5.61997 8.92 5.04997C9.01 4.71997 9.07 4.37997 9.14 4.04997C9.25 3.53997 9.32 3.04997 9.46 2.50997C9.49089 2.46681 9.51092 2.41683 9.51837 2.36427C9.52583 2.31172 9.5205 2.25814 9.50283 2.20809C9.48516 2.15804 9.45568 2.11298 9.41689 2.07675C9.3781 2.04052 9.33114 2.01418 9.28 1.99997Z" fill="black"/>
<path fill-rule="evenodd" clip-rule="evenodd" d="M2.3 5.99994C2.98165 6.25796 3.64925 6.5517 4.3 6.87994C4.51 6.98994 4.72 7.07994 4.93 7.16994C5.14 7.25994 5.36 7.33994 5.58 7.44994C5.8 7.55994 6.1 7.71994 6.37 7.88994C6.39889 7.91555 6.43254 7.93522 6.46904 7.94782C6.50553 7.96042 6.54414 7.96571 6.58268 7.96339C6.62122 7.96107 6.65892 7.95118 6.69363 7.93429C6.72835 7.9174 6.75939 7.89383 6.785 7.86494C6.81061 7.83605 6.83028 7.8024 6.84288 7.76591C6.85548 7.72942 6.86077 7.6908 6.85845 7.65226C6.85613 7.61373 6.84624 7.57603 6.82935 7.54131C6.81246 7.5066 6.78889 7.47555 6.76 7.44994C6.39116 6.99945 5.96794 6.59638 5.5 6.24994C5.29092 6.11376 5.07003 5.99663 4.84 5.89994C4.61396 5.79745 4.37983 5.71383 4.14 5.64994C3.59375 5.51411 3.03925 5.4139 2.48 5.34994C2.39817 5.3382 2.31486 5.35669 2.24566 5.40193C2.17647 5.44718 2.12613 5.51608 2.10406 5.59576C2.082 5.67543 2.08972 5.76042 2.12579 5.83481C2.16185 5.90921 2.22378 5.96791 2.3 5.99994Z" fill="black"/>
<path fill-rule="evenodd" clip-rule="evenodd" d="M6.23 9.67999C6.26808 9.67539 6.30489 9.66334 6.33832 9.64452C6.37174 9.6257 6.40113 9.60048 6.42481 9.5703C6.44849 9.54012 6.46599 9.50557 6.47632 9.46863C6.48665 9.43169 6.4896 9.39307 6.485 9.35499C6.4804 9.31691 6.46835 9.2801 6.44953 9.24667C6.43071 9.21325 6.40549 9.18386 6.37531 9.16018C6.34513 9.1365 6.31059 9.119 6.27364 9.10867C6.2367 9.09834 6.19808 9.09539 6.16 9.09999C5.38177 9.08438 4.60408 9.15143 3.84 9.29999C3.49745 9.36619 3.16243 9.4667 2.84 9.59999C2.52107 9.72349 2.21328 9.87404 1.92 10.05C1.2584 10.4632 0.653328 10.9607 0.120001 11.53C0.0749479 11.5532 0.0358566 11.5865 0.00576032 11.6273C-0.024336 11.6681 -0.044628 11.7153 -0.0535412 11.7652C-0.0624544 11.8151 -0.0597491 11.8664 -0.0456352 11.9151C-0.0315213 11.9638 -0.00637835 12.0086 0.0278427 12.046C0.0620638 12.0834 0.104443 12.1124 0.151691 12.1308C0.19894 12.1492 0.249788 12.1564 0.300289 12.152C0.35079 12.1475 0.399587 12.1315 0.442893 12.1051C0.486199 12.0788 0.522849 12.0428 0.550001 12C1.22449 11.5255 1.95292 11.1327 2.72 10.83C3.16 10.64 3.61 10.47 4.08 10.31C4.78193 10.0526 5.50018 9.84217 6.23 9.67999Z" fill="black"/>
<path fill-rule="evenodd" clip-rule="evenodd" d="M7 11.0599C6.36067 11.4711 5.77602 11.9617 5.26 12.5199C5.03803 12.7658 4.83731 13.0301 4.66 13.3099C4.48562 13.5865 4.32865 13.8738 4.19 14.1699C3.8795 14.8677 3.65129 15.5993 3.51 16.3499C3.48508 16.4335 3.49422 16.5235 3.53545 16.6003C3.57667 16.6771 3.64661 16.7345 3.73 16.7599C3.81619 16.7847 3.90869 16.7745 3.98736 16.7314C4.06603 16.6883 4.12448 16.6159 4.15 16.5299C4.37967 15.9739 4.65042 15.4357 4.96 14.9199C5.24 14.4399 5.56 13.9899 5.87 13.5299C6.31447 12.8208 6.8197 12.1516 7.38 11.5299C7.43435 11.4755 7.46488 11.4018 7.46488 11.3249C7.46488 11.248 7.43435 11.1743 7.38 11.1199C7.33494 11.0652 7.2714 11.0289 7.20138 11.0178C7.13137 11.0068 7.05973 11.0217 7 11.0599Z" fill="black"/>
<path fill-rule="evenodd" clip-rule="evenodd" d="M17.9 10.48C17.3351 11.2311 16.8618 12.0469 16.49 12.91C16.34 13.28 16.2 13.66 16.08 14.04C15.9667 14.4182 15.8732 14.8021 15.8 15.19C15.62 16.1 15.55 17.01 15.46 17.92C15.438 17.961 15.4263 18.0067 15.4257 18.0532C15.4251 18.0997 15.4357 18.1457 15.4566 18.1872C15.4775 18.2288 15.5081 18.2647 15.5457 18.2919C15.5834 18.3192 15.6271 18.337 15.6731 18.3438C15.7192 18.3506 15.7661 18.3463 15.8101 18.3311C15.8541 18.316 15.8938 18.2905 15.9258 18.2567C15.9579 18.223 15.9813 18.1821 15.9942 18.1374C16.0072 18.0927 16.0091 18.0456 16 18C16.3 17 16.65 15.95 17 14.91C17.2 14.24 17.38 13.56 17.6 12.91C17.8356 12.1952 18.1265 11.4997 18.47 10.83C18.4936 10.7932 18.5098 10.7522 18.5176 10.7092C18.5253 10.6661 18.5246 10.622 18.5153 10.5793C18.506 10.5366 18.4884 10.4961 18.4635 10.4602C18.4385 10.4243 18.4068 10.3936 18.37 10.37C18.3332 10.3464 18.2922 10.3302 18.2492 10.3224C18.2061 10.3147 18.162 10.3155 18.1193 10.3247C18.0766 10.334 18.0361 10.3516 18.0002 10.3766C17.9643 10.4015 17.9336 10.4332 17.91 10.47L17.9 10.48Z" fill="black"/>
<path fill-rule="evenodd" clip-rule="evenodd" d="M21.54 12C21.5106 11.8702 21.4705 11.7431 21.42 11.62C21.3645 11.496 21.3011 11.3757 21.23 11.26C21.0331 11.0027 20.8084 10.7679 20.56 10.56C20.5405 10.527 20.5146 10.4982 20.4838 10.4753C20.4531 10.4524 20.4181 10.4358 20.3809 10.4265C20.3437 10.4172 20.305 10.4154 20.2671 10.4211C20.2292 10.4269 20.1928 10.4401 20.16 10.46C20.0946 10.5031 20.048 10.5693 20.0295 10.6453C20.0109 10.7214 20.0218 10.8016 20.06 10.87C20.16 11.17 20.18 11.44 20.26 11.73C20.2929 11.847 20.3364 11.9608 20.39 12.07C20.44 12.18 20.5 12.29 20.56 12.4C20.72 12.66 20.89 12.89 21.07 13.15C21.1018 13.2322 21.165 13.2984 21.2457 13.334C21.3263 13.3697 21.4178 13.3718 21.5 13.34C21.5822 13.3081 21.6484 13.245 21.6841 13.1643C21.7197 13.0837 21.7218 12.9922 21.69 12.91C21.64 12.61 21.61 12.32 21.54 12Z" fill="black"/>
<path fill-rule="evenodd" clip-rule="evenodd" d="M23.74 8.51999C23.4533 8.37087 23.1469 8.26313 22.83 8.19999C22.6907 8.18016 22.5493 8.18016 22.41 8.19999C22.2701 8.2063 22.132 8.23326 22 8.27999C21.6992 8.39192 21.4163 8.54687 21.16 8.73999C21.1229 8.75133 21.0885 8.76999 21.0587 8.79487C21.029 8.81975 21.0045 8.85035 20.9868 8.88485C20.9691 8.91934 20.9585 8.95704 20.9556 8.99572C20.9527 9.03439 20.9576 9.07325 20.97 9.10999C20.9824 9.14745 21.0021 9.18209 21.028 9.21192C21.0538 9.24176 21.0853 9.2662 21.1206 9.28385C21.1559 9.3015 21.1943 9.31201 21.2337 9.31478C21.273 9.31755 21.3126 9.31253 21.35 9.29999C21.6598 9.28438 21.9702 9.28438 22.28 9.29999L22.78 9.24999C23.0478 9.203 23.3184 9.17294 23.59 9.15999C23.6775 9.17783 23.7684 9.16057 23.8433 9.11192C23.9181 9.06328 23.9708 8.98716 23.99 8.89999C24.005 8.81667 23.9875 8.73077 23.9409 8.66004C23.8944 8.58931 23.8225 8.53917 23.74 8.51999Z" fill="black"/>
<path fill-rule="evenodd" clip-rule="evenodd" d="M21 7.43998C21.39 7.14998 21.77 6.95997 22.13 6.71997C22.49 6.47997 22.53 6.41998 22.73 6.27998C23.0425 6.03284 23.3773 5.81524 23.73 5.62998C23.7712 5.61752 23.8094 5.59689 23.8424 5.56934C23.8754 5.54178 23.9025 5.50785 23.9221 5.46958C23.9417 5.43131 23.9534 5.38949 23.9565 5.3466C23.9595 5.30372 23.9539 5.26065 23.94 5.21997C23.9291 5.16991 23.9068 5.12306 23.8747 5.08314C23.8425 5.04321 23.8016 5.01132 23.755 4.98997C23.7084 4.96862 23.6575 4.95841 23.6063 4.96015C23.5551 4.96189 23.505 4.97552 23.46 4.99998C23.0262 5.05935 22.6023 5.17708 22.2 5.34998C22.0262 5.42363 21.8617 5.51762 21.71 5.62998C21.5555 5.73595 21.4115 5.8565 21.28 5.98997C21.0131 6.30542 20.7691 6.63961 20.55 6.98997C20.495 7.04605 20.4642 7.12145 20.4642 7.19998C20.4642 7.2785 20.495 7.3539 20.55 7.40998C20.5749 7.44533 20.6074 7.47467 20.6451 7.49585C20.6828 7.51703 20.7247 7.52952 20.7678 7.53239C20.811 7.53527 20.8542 7.52846 20.8944 7.51247C20.9346 7.49648 20.9706 7.47171 21 7.43998Z" fill="black"/>
<path fill-rule="evenodd" clip-rule="evenodd" d="M18.67 6.31995C18.6084 6.2057 18.5346 6.09841 18.45 5.99995C18.3673 5.90908 18.277 5.82545 18.18 5.74995C17.9458 5.58034 17.6983 5.42985 17.44 5.29995C17.41 5.26753 17.3737 5.24166 17.3333 5.22397C17.2928 5.20628 17.2491 5.19714 17.205 5.19714C17.1609 5.19714 17.1172 5.20628 17.0768 5.22397C17.0363 5.24166 17 5.26753 16.97 5.29995C16.9095 5.36322 16.8757 5.44739 16.8757 5.53495C16.8757 5.6225 16.9095 5.70667 16.97 5.76995C17.13 5.99995 17.24 6.21995 17.39 6.44995C17.54 6.67995 17.5 6.61995 17.57 6.70995C17.6381 6.79142 17.7116 6.86825 17.79 6.93995C17.98 7.11995 18.19 7.23995 18.4 7.43995C18.4385 7.50758 18.5022 7.55716 18.5772 7.57779C18.6522 7.59842 18.7324 7.5884 18.8 7.54995C18.8676 7.51149 18.9172 7.44774 18.9378 7.37273C18.9585 7.29771 18.9485 7.21758 18.91 7.14995C18.8616 6.86509 18.7811 6.58665 18.67 6.31995Z" fill="black"/>
<path fill-rule="evenodd" clip-rule="evenodd" d="M14.8 8.26995C14.7973 8.31411 14.8035 8.35836 14.8183 8.40007C14.833 8.44179 14.856 8.48011 14.8858 8.51276C14.9157 8.54541 14.9518 8.57172 14.992 8.59014C15.0323 8.60855 15.0758 8.61869 15.12 8.61995C15.35 8.69995 15.54 8.79995 15.76 8.86995L16.03 8.93995C16.1231 8.94951 16.2169 8.94951 16.31 8.93995C16.5412 8.92994 16.7715 8.90657 17 8.86995C17.0375 8.8803 17.0767 8.88272 17.1152 8.87706C17.1537 8.87141 17.1906 8.8578 17.2235 8.8371C17.2564 8.8164 17.2847 8.78907 17.3065 8.75685C17.3282 8.72463 17.3431 8.68822 17.35 8.64995C17.3682 8.57571 17.3563 8.49729 17.317 8.43175C17.2777 8.36621 17.2141 8.31884 17.14 8.29995C16.9362 8.14967 16.7185 8.01908 16.49 7.90995C16.3942 7.86936 16.2933 7.84243 16.19 7.82995C16.0836 7.81995 15.9764 7.81995 15.87 7.82995C15.6211 7.85955 15.3741 7.90295 15.13 7.95995C15.0472 7.96416 14.9686 7.99763 14.9081 8.0544C14.8477 8.11118 14.8094 8.18756 14.8 8.26995Z" fill="black"/>
</g>
<defs>
<clipPath id="clip0_1047_6141">
<rect width="24" height="24" fill="white"/>
</clipPath>
</defs>
</svg>
