<svg width="24" height="24" viewBox="0 0 24 24" fill="none" xmlns="http://www.w3.org/2000/svg">
<g clip-path="url(#clip0_1033_3713)">
<path fill-rule="evenodd" clip-rule="evenodd" d="M9.44998 13.42C9.13998 13.06 8.53998 13.67 9.27998 14.05C9.27998 14.21 9.18998 14.36 9.15998 14.51C9.03998 15.13 8.88998 16.69 9.50998 16.51C9.58717 16.4909 9.65408 16.4429 9.69689 16.3759C9.73969 16.3089 9.75512 16.228 9.73998 16.15C9.66761 15.4947 9.77116 14.832 10.04 14.23C11.2557 14.533 12.517 14.6076 13.76 14.45C14.2 16.2 14.17 16.31 14.27 16.35C14.54 16.92 15.06 16.57 14.98 16.19C14.98 16.07 14.83 15.71 14.82 15.66C14.4 13.35 14.05 10.22 12.19 8.99998C11.26 8.40998 10.74 9.67998 10.39 10.72C10.17 11.51 9.75998 12.46 9.44998 13.42ZM11.45 11.13C11.5199 10.7895 11.6169 10.4551 11.74 10.13C12.65 10.83 13.19 12.58 13.53 13.67C13.02 13.58 12.53 13.48 11.98 13.42C11.4584 13.359 10.9315 13.359 10.41 13.42C10.76 12.56 11.2 11.78 11.44 11.13H11.45Z" fill="black"/>
<path fill-rule="evenodd" clip-rule="evenodd" d="M24 10.93C23.9629 10.0322 23.777 9.14687 23.45 8.30999C22.57 6.09999 22.3 6.45999 17 5.76999C16.6398 5.74695 16.2838 5.67978 15.94 5.56999L14.75 2.34999C14.58 1.97998 14.03 1.72999 13.26 1.64999C13.18 1.64999 9.44 1.39999 8.7 1.95999C7.96 2.51999 7.44 4.59999 6.85 5.63999C5.5 6.30999 2.23 5.53999 0.740001 6.63999C0.45018 6.96406 0.277618 7.3761 0.250001 7.80999C0.0800009 8.83998 0.120001 10.13 0.120001 16C0.120001 17.64 -0.279999 19.73 0.340001 21C0.960001 22.27 5.07 22.23 6.52 22.27H17.23C20.34 22.33 22.85 23.12 23.64 20.1C23.9512 17.0538 24.0714 13.9912 24 10.93ZM22.89 16.09C22.8 17.59 23.01 20.04 21.95 20.94C21.24 21.55 18.45 21.16 17.28 21.13C6.5 21.13 3.13 21.26 1.6 20.68C1.47 20.63 1.35 20.61 1.31 20.54C0.820001 19.54 1.18 17.34 1.14 15.94C1.06 14 1 12.06 1 10.1C1.06 7.31999 1 7.20999 2.24 6.99999C3.88 6.65999 6.24 6.90999 7.24 6.31999C7.76 6.01999 8.54 2.90999 9.15 2.51999C9.28365 2.43905 9.42856 2.37839 9.58 2.33999C9.67 2.33999 12.42 2.26999 13.15 2.33999C13.61 2.39999 13.99 2.43999 14.09 2.65999C14.51 3.65999 15.09 5.99999 15.47 6.23998C16.8506 6.59799 18.2589 6.83884 19.68 6.95999C21.92 7.32999 21.99 7.16999 22.54 8.66999C23.24 10.43 23.13 11.73 22.87 16.09H22.89Z" fill="black"/>
<path fill-rule="evenodd" clip-rule="evenodd" d="M13.64 7.77998C13.5704 7.75807 13.4953 7.76224 13.4286 7.7917C13.3619 7.82116 13.3082 7.87391 13.2776 7.94008C13.247 8.00624 13.2415 8.0813 13.2622 8.15122C13.2828 8.22114 13.3283 8.28113 13.39 8.31998C16.16 9.66998 17.14 11.54 16.83 14.11C16.6602 14.7589 16.34 15.3587 15.8953 15.8608C15.4505 16.3629 14.8937 16.7532 14.27 17C11.27 18.29 8.88997 17.44 7.56997 14.54C7.20807 13.6913 7.12541 12.7494 7.33393 11.8507C7.54245 10.9519 8.03135 10.1427 8.72997 9.53998C9.30694 9.18772 9.92056 8.89936 10.56 8.67998C11.21 8.49998 11.1 7.98998 10.76 7.91998C9.88537 8.13908 9.04442 8.47547 8.25997 8.91998C7.38637 9.61735 6.75815 10.5753 6.46678 11.6545C6.1754 12.7337 6.23608 13.8777 6.63997 14.92C9.46997 21.66 17.53 18.18 17.81 14.15C18 11 16.51 8.99998 13.64 7.77998Z" fill="black"/>
</g>
<defs>
<clipPath id="clip0_1033_3713">
<rect width="24" height="24" fill="white"/>
</clipPath>
</defs>
</svg>
