<svg width="24" height="24" viewBox="0 0 24 24" fill="none" xmlns="http://www.w3.org/2000/svg">
<g clip-path="url(#clip0_1030_2078)">
<path fill-rule="evenodd" clip-rule="evenodd" d="M22.84 11.8C22.3215 11.37 21.6734 11.1269 21 11.11C20.7419 11.1218 20.488 11.1794 20.25 11.28C19.9296 11.433 19.6332 11.6317 19.37 11.87C19.2986 11.9255 19.2514 12.0065 19.2384 12.096C19.2253 12.1854 19.2474 12.2765 19.3 12.35C19.3572 12.4222 19.4399 12.4696 19.5311 12.4826C19.6222 12.4956 19.7149 12.4732 19.79 12.42C19.9856 12.2643 20.1929 12.1239 20.41 12C20.6085 11.9104 20.8224 11.8595 21.04 11.85C21.539 11.88 22.0123 12.0814 22.38 12.42C22.5623 12.5581 22.7123 12.7344 22.8194 12.9365C22.9265 13.1386 22.9881 13.3616 23 13.59C22.9719 13.9422 22.866 14.2837 22.69 14.59C22.5001 14.9184 22.2644 15.2181 21.99 15.48C21.17 16.28 19.91 17.61 18.72 18.91C17.53 20.21 16.42 21.45 15.86 22.01C15.0252 22.4593 14.1121 22.7445 13.17 22.85C13.17 19.28 13.37 19.75 13.67 19.35C14.67 18.01 17.17 15.11 18.31 13.79L18.89 13.11C18.9165 13.0639 18.9335 13.0129 18.94 12.96C18.95 12.8935 18.9373 12.8256 18.9041 12.7671C18.8708 12.7087 18.8188 12.6631 18.7565 12.6377C18.6942 12.6123 18.6252 12.6086 18.5606 12.6272C18.4959 12.6457 18.4394 12.6855 18.4 12.74L17.8 13.39C16.6 14.67 13.96 17.48 12.88 18.78C12.6316 19.0464 12.4379 19.359 12.31 19.7C12.31 20 12.03 22.11 12.01 22.98C11.9873 23.2429 12.0505 23.5061 12.19 23.73C12.3479 23.8539 12.5302 23.9429 12.725 23.9912C12.9198 24.0394 13.1226 24.0459 13.32 24.01C14.2454 23.8504 15.1579 23.6231 16.05 23.33C16.4078 23.1084 16.7285 22.8317 17 22.51C18.32 21.08 21.2 17.69 22.65 16.18C22.981 15.8301 23.2574 15.4323 23.47 15C23.693 14.5656 23.8193 14.088 23.84 13.6C23.8173 13.2446 23.7158 12.8987 23.5429 12.5874C23.3699 12.276 23.1298 12.0071 22.84 11.8Z" fill="black"/>
<path fill-rule="evenodd" clip-rule="evenodd" d="M9.90001 20.73C8.30001 20.73 6.39001 20.73 4.78001 20.66C3.88743 20.648 2.99613 20.5879 2.11001 20.48C1.94001 20.48 1.78001 20.35 1.72001 20.38C1.66609 20.2324 1.63572 20.0771 1.63001 19.92V19.07C1.57001 18.34 1.50001 15.25 1.38001 12.19C1.19001 8.92002 1.00001 5.67002 1.00001 5.35002V5.00002C1.29372 4.78847 1.63934 4.66059 2.00001 4.63002C2.32001 4.63002 2.66001 4.63002 3.00001 4.57002C2.94079 4.74395 2.89072 4.92086 2.85001 5.10002C2.82778 5.24585 2.82778 5.3942 2.85001 5.54002C2.85001 5.83002 2.93001 6.21002 2.93001 6.21002C2.94573 6.34055 3.00608 6.46163 3.10085 6.55275C3.19562 6.64387 3.31897 6.69943 3.45001 6.71002C3.45001 6.71002 6.01001 6.71002 8.37001 6.71002C9.70001 6.71002 10.96 6.71002 11.67 6.63002C11.7481 6.63852 11.8264 6.61605 11.8881 6.56743C11.9498 6.51882 11.99 6.44794 12 6.37002C11.9975 6.3306 11.9872 6.29206 11.9697 6.25663C11.9522 6.22119 11.9279 6.18956 11.8982 6.16354C11.8685 6.13752 11.8339 6.11764 11.7964 6.10502C11.759 6.0924 11.7194 6.08731 11.68 6.09002C11.12 6.09002 10.24 6.09002 9.25001 6.02002C7.27001 5.93002 5.00001 5.76002 4.00001 5.68002V5.38002C4.03742 5.21747 4.08416 5.0572 4.14001 4.90002C4.18379 4.77258 4.24432 4.65151 4.32001 4.54002C4.4746 4.32388 4.68562 4.15438 4.93001 4.05002C5.3882 3.85121 5.86816 3.70689 6.36001 3.62002L6.65001 3.55002C6.79316 3.51195 6.91757 3.42309 7.00001 3.30002C7.08207 3.16533 7.11062 3.00475 7.08001 2.85002L6.95001 2.18002C6.95139 2.05322 6.9808 1.9283 7.03612 1.8142C7.09144 1.7001 7.17131 1.59964 7.27001 1.52002C7.53082 1.30189 7.83903 1.14779 8.17001 1.07002C8.333 1.02051 8.50702 1.02051 8.67001 1.07002C8.84725 1.12345 9.00865 1.2196 9.14001 1.35002C9.31339 1.52956 9.43143 1.75521 9.48001 2.00002C9.53654 2.29647 9.55669 2.5987 9.54001 2.90002C9.53903 3.00967 9.57812 3.1159 9.64993 3.19876C9.72175 3.28162 9.82134 3.33541 9.93001 3.35002C10.2682 3.3791 10.6029 3.43935 10.93 3.53002C11.2461 3.62386 11.5486 3.75831 11.83 3.93002C12.0388 4.07393 12.1908 4.2861 12.26 4.53002C12.3424 4.82649 12.3861 5.13236 12.39 5.44002C12.4039 5.52145 12.4462 5.59533 12.5093 5.64859C12.5725 5.70186 12.6524 5.73107 12.735 5.73107C12.8176 5.73107 12.8976 5.70186 12.9607 5.64859C13.0238 5.59533 13.0661 5.52145 13.08 5.44002C13.102 4.98536 13.0375 4.53066 12.89 4.10002C12.7712 3.77018 12.555 3.48422 12.27 3.28002C11.9367 3.05092 11.5733 2.86918 11.19 2.74002C10.9461 2.6523 10.6952 2.58539 10.44 2.54002C10.4644 2.20402 10.434 1.86628 10.35 1.54002C10.2425 1.24518 10.0796 0.973632 9.87001 0.740024C9.63126 0.474362 9.33318 0.268791 9.00001 0.140024C8.65559 -0.0155752 8.27243 -0.0643412 7.90001 2.38363e-05C7.28728 0.125359 6.72635 0.431953 6.29001 0.880024C5.96371 1.23451 5.78179 1.69822 5.78001 2.18002V2.53002C5.29125 2.63552 4.8152 2.79309 4.36001 3.00002C3.95937 3.20663 3.61588 3.5089 3.36001 3.88002C3.36001 3.88002 3.36001 3.93002 3.36001 3.96002C2.76993 3.92369 2.17785 3.93707 1.59001 4.00002C1.2305 4.06119 0.888991 4.20121 0.590012 4.41002C0.483242 4.48954 0.400249 4.59674 0.350012 4.72002C0.294271 4.89219 0.257389 5.0699 0.240012 5.25002C0.240012 5.57002 0.150012 8.89002 0.240012 12.25C0.300012 15.33 0.450012 18.44 0.510012 19.18C0.53243 19.6249 0.596035 20.0668 0.700012 20.5C0.760766 20.7644 0.888137 21.0088 1.07001 21.21C1.23677 21.3449 1.43742 21.4314 1.65001 21.46C2.13 21.5334 2.61449 21.5735 3.10001 21.58C4.88001 21.58 7.73001 21.51 9.96001 21.45C10.0528 21.45 10.1419 21.4131 10.2075 21.3475C10.2731 21.2819 10.31 21.1928 10.31 21.1C10.31 21.0072 10.2731 20.9182 10.2075 20.8525C10.1419 20.7869 10.0528 20.75 9.96001 20.75L9.90001 20.73Z" fill="black"/>
<path fill-rule="evenodd" clip-rule="evenodd" d="M14 4.26005C14.2093 4.30956 14.4088 4.39408 14.59 4.51005C14.7209 4.60004 14.8387 4.70773 14.94 4.83005L15 5.00005C15 5.50005 15 6.53005 15.09 7.75005C15.09 8.19005 15.14 8.66005 15.18 9.13005C15.28 10.25 15.42 11.39 15.46 12.34C15.46 12.3808 15.468 12.4211 15.4836 12.4587C15.4992 12.4963 15.522 12.5305 15.5508 12.5593C15.5796 12.588 15.6138 12.6109 15.6514 12.6265C15.689 12.642 15.7293 12.65 15.77 12.65C15.8107 12.65 15.851 12.642 15.8886 12.6265C15.9262 12.6109 15.9604 12.588 15.9892 12.5593C16.018 12.5305 16.0408 12.4963 16.0564 12.4587C16.072 12.4211 16.08 12.3808 16.08 12.34C16.18 11.34 16.28 10.21 16.29 9.07005V7.67005C16.2104 6.74032 16.0802 5.81561 15.9 4.90005C15.8753 4.71645 15.8141 4.53965 15.72 4.38005C15.5168 4.15302 15.2725 3.96642 15 3.83005C14.7349 3.69402 14.4465 3.60921 14.15 3.58005C14.1053 3.57144 14.0593 3.5719 14.0148 3.5814C13.9702 3.5909 13.928 3.60926 13.8907 3.63537C13.8534 3.66149 13.8217 3.69484 13.7976 3.73343C13.7734 3.77202 13.7572 3.81508 13.75 3.86005C13.7318 3.94611 13.7477 4.03586 13.7944 4.11045C13.841 4.18504 13.9147 4.23866 14 4.26005Z" fill="black"/>
<path fill-rule="evenodd" clip-rule="evenodd" d="M12.51 15.42C12.5892 15.3916 12.6614 15.3466 12.7218 15.2879C12.7822 15.2293 12.8293 15.1584 12.86 15.08C12.899 14.9988 12.9052 14.9056 12.8773 14.8199C12.8494 14.7343 12.7894 14.6626 12.71 14.62C12.71 14.46 12.58 14.24 12.54 14.11C12.5314 14.0389 12.5087 13.9701 12.4732 13.9079C12.4378 13.8456 12.3903 13.7909 12.3335 13.7472C12.2767 13.7034 12.2118 13.6714 12.1425 13.653C12.0733 13.6346 12.001 13.6302 11.93 13.64C11.7974 13.681 11.6748 13.7491 11.57 13.84C11.41 13.97 11.25 14.16 11.15 14.24C10.8599 14.5297 10.5215 14.7665 10.15 14.94C10.0143 15.0094 9.86197 15.0397 9.71006 15.0273C9.55815 15.0149 9.41269 14.9605 9.29001 14.87C9.29001 14.87 9.29001 14.87 9.29001 14.79C9.27558 14.6738 9.27558 14.5563 9.29001 14.44C9.41725 13.8831 9.5912 13.3378 9.81001 12.81C9.8087 12.6942 9.77147 12.5816 9.70346 12.4877C9.63546 12.3939 9.54002 12.3235 9.43031 12.2862C9.32061 12.2489 9.20203 12.2466 9.09093 12.2795C8.97983 12.3124 8.88168 12.379 8.81001 12.47C8.25428 13.461 7.53012 14.3476 6.67001 15.09C6.13001 15.52 5.59001 15.79 5.11001 15.48C4.79001 15.29 4.74001 14.85 4.73001 14.39C4.75608 13.5775 4.89749 12.7728 5.15001 12C5.18754 11.8864 5.23437 11.776 5.29001 11.67C5.36048 11.559 5.43728 11.4522 5.52001 11.35C5.66635 11.1539 5.84569 10.9847 6.05001 10.85C6.13049 10.7937 6.22268 10.7563 6.31968 10.7407C6.41667 10.7251 6.51594 10.7317 6.61001 10.76C6.68566 10.7898 6.76997 10.7887 6.84479 10.7569C6.91961 10.7251 6.97895 10.6652 7.01001 10.59C7.02448 10.552 7.0313 10.5114 7.03008 10.4707C7.02886 10.43 7.01963 10.3899 7.00292 10.3527C6.9862 10.3156 6.96232 10.2821 6.93266 10.2542C6.90299 10.2263 6.86811 10.2045 6.83001 10.19C6.68742 10.1306 6.53448 10.1 6.38001 10.1C6.22554 10.1 6.0726 10.1306 5.93001 10.19C5.54188 10.3381 5.19776 10.5824 4.93001 10.9C4.80001 11.05 4.71001 11.15 4.63001 11.26C4.53543 11.4053 4.45506 11.5594 4.39001 11.72C3.95752 12.7152 3.72315 13.7852 3.70001 14.87C3.70438 15.1671 3.77485 15.4594 3.90631 15.7258C4.03777 15.9921 4.22692 16.2259 4.46001 16.41C4.80122 16.6305 5.1988 16.7477 5.60501 16.7477C6.01123 16.7477 6.40881 16.6305 6.75001 16.41C7.34299 16.0601 7.86805 15.6062 8.30001 15.07C8.35442 15.3233 8.50499 15.5456 8.72001 15.69C8.92974 15.8291 9.16802 15.9193 9.41726 15.9539C9.6665 15.9885 9.92033 15.9667 10.16 15.89C10.7335 15.6715 11.2523 15.3302 11.68 14.89L11.79 14.76C11.8605 14.9311 11.9406 15.0981 12.03 15.26C12.0779 15.3394 12.1526 15.3991 12.2405 15.4284C12.3285 15.4578 12.424 15.4548 12.51 15.42Z" fill="black"/>
</g>
<defs>
<clipPath id="clip0_1030_2078">
<rect width="24" height="24" fill="white"/>
</clipPath>
</defs>
</svg>
