<svg width="24" height="24" viewBox="0 0 24 24" fill="none" xmlns="http://www.w3.org/2000/svg">
<g clip-path="url(#clip0_1030_2068)">
<path fill-rule="evenodd" clip-rule="evenodd" d="M23.67 18.13C23.4264 17.1952 22.9479 16.3381 22.28 15.64C21.7608 15.1892 21.1552 14.849 20.5 14.64C19.86 14.4096 19.1783 14.3176 18.5 14.37C17.8144 14.3974 17.1438 14.5788 16.5379 14.9008C15.932 15.2228 15.4064 15.6771 15 16.23C14.5823 16.7791 14.2868 17.4111 14.1333 18.0838C13.9798 18.7564 13.9719 19.4541 14.11 20.13C14.454 21.52 15.3255 22.7215 16.54 23.48C17.1665 23.8025 17.8572 23.9807 18.5614 24.0015C19.2657 24.0222 19.9657 23.8851 20.61 23.6C20.6462 23.5862 20.6792 23.5655 20.7073 23.5389C20.7354 23.5124 20.758 23.4805 20.7737 23.4452C20.7895 23.4099 20.7982 23.3719 20.7993 23.3333C20.8004 23.2946 20.7938 23.2561 20.78 23.22C20.7663 23.1839 20.7455 23.1509 20.7189 23.1228C20.6924 23.0947 20.6605 23.0721 20.6252 23.0563C20.59 23.0405 20.5519 23.0319 20.5133 23.0308C20.4746 23.0297 20.4362 23.0362 20.4 23.05C19.8422 23.2677 19.2426 23.3573 18.6455 23.3123C18.0484 23.2673 17.469 23.0888 16.95 22.79C15.9675 22.0928 15.2992 21.0365 15.09 19.85C15.0159 19.3306 15.0496 18.8015 15.1889 18.2957C15.3283 17.7899 15.5704 17.3182 15.9 16.91C16.2223 16.4947 16.6323 16.1556 17.1007 15.917C17.5692 15.6785 18.0846 15.5463 18.61 15.53H18.73C19.2254 15.4911 19.7234 15.5593 20.19 15.73C20.7001 15.8517 21.1799 16.0763 21.6 16.39C22.1733 16.9413 22.5967 17.6297 22.83 18.39C23.0846 19.1424 23.0846 19.9576 22.83 20.71C22.7125 21.0287 22.5436 21.326 22.33 21.59C22.1116 21.8634 21.8634 22.1116 21.59 22.33C21.5498 22.3555 21.5153 22.3892 21.4889 22.4289C21.4626 22.4686 21.4448 22.5134 21.4368 22.5604C21.4289 22.6074 21.4309 22.6555 21.4427 22.7017C21.4546 22.7479 21.476 22.791 21.5056 22.8284C21.5352 22.8657 21.5723 22.8964 21.6145 22.9185C21.6568 22.9406 21.7032 22.9536 21.7508 22.9565C21.7983 22.9595 21.846 22.9525 21.8907 22.9358C21.9353 22.9192 21.976 22.8934 22.01 22.86C22.3338 22.6213 22.6291 22.3462 22.89 22.04C23.1731 21.7337 23.403 21.3822 23.57 21C23.9242 20.0816 23.9594 19.0709 23.67 18.13Z" fill="black"/>
<path fill-rule="evenodd" clip-rule="evenodd" d="M13.11 3.59001C12.7684 3.34412 12.395 3.14564 12 3.00001C11.7262 2.90229 11.4454 2.82541 11.16 2.77001C11.1622 2.4105 11.1083 2.05285 11 1.71001C10.901 1.37114 10.7305 1.05742 10.5 0.790014C10.2531 0.506032 9.94077 0.286384 9.59002 0.150014C9.22536 -0.00883305 8.82309 -0.060851 8.43002 1.37612e-05C7.7691 0.145379 7.17077 0.495275 6.72002 1.00001C6.39346 1.35911 6.20865 1.82471 6.20002 2.31001C6.18976 2.4565 6.18976 2.60353 6.20002 2.75001C5.64724 2.85655 5.10981 3.03121 4.60002 3.27001C4.15852 3.47878 3.7793 3.79939 3.50002 4.20001V4.28001C2.87914 4.25301 2.2571 4.27642 1.64002 4.35001C1.24776 4.4112 0.874826 4.56175 0.550016 4.79001C0.442183 4.87093 0.356253 4.97749 0.300016 5.10001C0.24432 5.28199 0.210745 5.47001 0.200016 5.66001C0.150016 6.00001 0.120016 9.61001 0.180016 13.23C0.240016 16.59 0.390016 19.96 0.450016 20.77C0.469083 21.2509 0.529303 21.7294 0.630016 22.2C0.684331 22.4935 0.811565 22.7686 1.00002 23C1.17713 23.1351 1.38835 23.2182 1.61002 23.24C2.648 23.3735 3.69348 23.4403 4.74002 23.44C7.40852 23.5058 10.0786 23.4357 12.74 23.23C12.819 23.2116 12.8888 23.1655 12.9368 23.1002C12.9847 23.0348 13.0078 22.9545 13.0018 22.8736C12.9957 22.7928 12.961 22.7167 12.9038 22.6592C12.8467 22.6017 12.7708 22.5665 12.69 22.56C10.8109 22.64 8.92916 22.64 7.05002 22.56C4.84002 22.49 2.92002 22.35 2.05002 22.21L1.77002 22.15C1.72138 22.0355 1.69101 21.914 1.68002 21.79C1.62537 21.4291 1.5953 21.065 1.59002 20.7L1.00002 5.75001V5.37001C1.31722 5.1533 1.6867 5.02554 2.07002 5.00001C2.44002 5.00001 2.83002 5.00001 3.21002 4.93001C3.12827 5.12571 3.05815 5.32606 3.00002 5.53001C2.98097 5.6861 2.98097 5.84393 3.00002 6.00001C3.00002 6.32001 3.09002 6.75001 3.09002 6.75001C3.10434 6.87391 3.16272 6.98852 3.2545 7.07296C3.34629 7.1574 3.46536 7.20604 3.59002 7.21001C3.59002 7.21001 6.35002 7.27001 8.90002 7.27001C10.32 7.27001 11.68 7.27001 12.45 7.20001C12.5296 7.20001 12.6059 7.16841 12.6621 7.11215C12.7184 7.05588 12.75 6.97958 12.75 6.90001C12.75 6.82045 12.7184 6.74414 12.6621 6.68788C12.6059 6.63162 12.5296 6.60001 12.45 6.60001C11.85 6.60001 10.89 6.60001 9.82002 6.54001C7.71002 6.44001 5.18002 6.26001 4.15002 6.19001V5.79001C4.18941 5.61052 4.2395 5.43353 4.30002 5.26001C4.3484 5.11516 4.41565 4.97731 4.50002 4.85001C4.6777 4.61076 4.91113 4.41853 5.18002 4.29001C5.67706 4.07473 6.19711 3.91704 6.73002 3.82001L7.00002 3.74001C7.07395 3.72524 7.14406 3.69543 7.20599 3.65242C7.26792 3.60942 7.32035 3.55414 7.36002 3.49001C7.40441 3.42876 7.43462 3.3584 7.44845 3.28403C7.46229 3.20965 7.45941 3.13313 7.44002 3.06001L7.31002 2.31001C7.31099 2.16231 7.34468 2.01665 7.40865 1.88352C7.47263 1.75038 7.5653 1.63307 7.68002 1.54001C7.97189 1.30299 8.31385 1.13543 8.68002 1.05001C8.86287 0.99668 9.05716 0.99668 9.24002 1.05001C9.43821 1.1161 9.61924 1.2254 9.77002 1.37001C9.96697 1.57659 10.1051 1.83209 10.17 2.11001C10.2271 2.44008 10.2472 2.77549 10.23 3.11001C10.229 3.21702 10.267 3.32072 10.337 3.40171C10.4069 3.4827 10.504 3.53543 10.61 3.55001C10.9783 3.58577 11.343 3.65268 11.7 3.75001C12.0515 3.8513 12.3879 3.99929 12.7 4.19001C12.9317 4.35448 13.098 4.5952 13.17 4.87001C13.2606 5.19571 13.3077 5.53196 13.31 5.87001C13.31 5.96019 13.3458 6.04667 13.4096 6.11043C13.4734 6.17419 13.5598 6.21001 13.65 6.21001C13.7402 6.21001 13.8267 6.17419 13.8904 6.11043C13.9542 6.04667 13.99 5.96019 13.99 5.87001C14.0152 5.38088 13.9439 4.89157 13.78 4.43001C13.6469 4.08865 13.4132 3.79574 13.11 3.59001Z" fill="black"/>
<path fill-rule="evenodd" clip-rule="evenodd" d="M15 4.54001C15.4472 4.63278 15.8831 4.7736 16.3 4.96001C16.5138 5.0405 16.6984 5.18334 16.83 5.37001C16.9858 5.82156 17.0767 6.29292 17.1 6.77001C17.18 7.49001 17.24 8.37001 17.31 9.30001C17.42 10.56 17.57 11.91 17.66 13.17C17.6626 13.2478 17.6954 13.3216 17.7514 13.3757C17.8073 13.4298 17.8822 13.4601 17.96 13.46C17.9998 13.4614 18.0394 13.4546 18.0765 13.44C18.1135 13.4254 18.1471 13.4034 18.1753 13.3752C18.2034 13.3471 18.2255 13.3135 18.24 13.2764C18.2546 13.2394 18.2614 13.1998 18.26 13.16C18.32 12.05 18.4 10.87 18.41 9.74001V8.27001C18.3789 7.71678 18.3155 7.16584 18.22 6.62001C18.1462 6.02043 17.9596 5.44023 17.67 4.91001C17.4799 4.6345 17.2117 4.42209 16.9 4.30001C16.3362 4.07572 15.7438 3.93099 15.14 3.87001C15.0512 3.85557 14.9603 3.87693 14.8872 3.92941C14.8141 3.9819 14.7647 4.06123 14.75 4.15001C14.7347 4.23458 14.7519 4.32182 14.7983 4.39418C14.8447 4.46653 14.9168 4.51864 15 4.54001Z" fill="black"/>
<path fill-rule="evenodd" clip-rule="evenodd" d="M20.73 17.1C20.6516 17.0568 20.5594 17.0462 20.4733 17.0706C20.3872 17.0949 20.3141 17.1522 20.27 17.23L18.44 20C17.44 19.23 17.39 19.22 17.27 19.26C17.15 19.3 16.93 19.4 17.06 19.65C17.06 19.65 17.75 20.52 17.84 20.65C17.9137 20.7739 18.0173 20.8773 18.1413 20.9507C18.2654 21.0241 18.4059 21.0651 18.55 21.07C18.6976 21.0652 18.8423 21.0277 18.9737 20.9603C19.1051 20.8928 19.22 20.7971 19.31 20.68C19.6051 20.306 19.863 19.9041 20.08 19.48C20.41 18.83 20.64 18.11 20.86 17.6C20.8881 17.5598 20.9071 17.5139 20.9157 17.4656C20.9244 17.4172 20.9224 17.3676 20.9101 17.3201C20.8977 17.2726 20.8752 17.2283 20.8442 17.1903C20.8131 17.1524 20.7741 17.1215 20.73 17.1Z" fill="black"/>
<path fill-rule="evenodd" clip-rule="evenodd" d="M3.22 8.11999C3.18057 8.11585 3.14071 8.11956 3.10272 8.13092C3.06473 8.14228 3.02938 8.16105 2.99869 8.18616C2.968 8.21127 2.9426 8.24221 2.92394 8.27719C2.90529 8.31218 2.89375 8.35052 2.89 8.38999C2.66811 10.6496 2.61796 12.9228 2.74 15.19C2.80568 16.7142 2.98282 18.2316 3.27 19.73C3.30599 19.9007 3.40624 20.0511 3.55 20.15C3.86772 20.2961 4.20431 20.3971 4.55 20.45C5.54787 20.5314 6.54997 20.5481 7.55 20.5C8.94 20.5 10.55 20.38 11.83 20.27C11.8747 20.2702 11.9189 20.261 11.9598 20.2431C12.0007 20.2252 12.0374 20.1989 12.0676 20.1659C12.0977 20.133 12.1206 20.094 12.1348 20.0517C12.149 20.0093 12.1542 19.9645 12.15 19.92C12.1487 19.8758 12.1386 19.8322 12.1202 19.792C12.1018 19.7518 12.0755 19.7157 12.0428 19.6858C12.0102 19.656 11.9718 19.633 11.9301 19.6182C11.8884 19.6035 11.8442 19.5973 11.8 19.6H7.55C6.63391 19.5942 5.71897 19.5341 4.81 19.42H4.35C4.2 18.64 4.08 17.53 3.95 16.3C3.84 15.23 3.72 14.08 3.64 12.96C3.51503 11.4802 3.47163 9.99458 3.51 8.50999C3.52424 8.46475 3.52754 8.41677 3.51964 8.37001C3.51174 8.32324 3.49287 8.27901 3.46457 8.24095C3.43627 8.20289 3.39935 8.17209 3.35683 8.15106C3.31432 8.13003 3.26743 8.11938 3.22 8.11999Z" fill="black"/>
<path fill-rule="evenodd" clip-rule="evenodd" d="M14.68 12.08C14.74 12.66 14.85 13.28 14.93 14.08C14.93 14.1596 14.9616 14.2359 15.0179 14.2922C15.0742 14.3484 15.1505 14.38 15.23 14.38C15.3096 14.38 15.3859 14.3484 15.4422 14.2922C15.4984 14.2359 15.53 14.1596 15.53 14.08C15.63 13.31 15.74 12.67 15.77 12.08C15.7853 11.7936 15.7853 11.5065 15.77 11.22C15.77 10.91 15.77 10.63 15.68 10.36C15.58 9.64002 15.43 9.03002 15.31 8.36002C15.3063 8.3153 15.2937 8.27178 15.273 8.23195C15.2523 8.19213 15.224 8.15679 15.1896 8.12797C15.1552 8.09915 15.1154 8.07742 15.0726 8.06405C15.0298 8.05067 14.9847 8.0459 14.94 8.05002C14.8957 8.05372 14.8525 8.06634 14.8132 8.08714C14.7739 8.10794 14.7391 8.13648 14.7111 8.17104C14.6831 8.20561 14.6624 8.24548 14.6501 8.28827C14.6379 8.33105 14.6345 8.37587 14.64 8.42002V10.42V11.25C14.64 11.54 14.65 11.78 14.68 12.08Z" fill="black"/>
<path fill-rule="evenodd" clip-rule="evenodd" d="M5.50003 11.49L6.16003 11.55L7.70003 11.66H9.30003H10.91C11.44 11.66 11.91 11.66 12.32 11.73C12.4073 11.7416 12.4957 11.7189 12.5665 11.6667C12.6374 11.6145 12.6853 11.5368 12.7 11.45C12.7145 11.3612 12.6931 11.2703 12.6406 11.1972C12.5881 11.1241 12.5088 11.0747 12.42 11.06C11.4907 10.8154 10.5449 10.6382 9.59003 10.53C8.94433 10.4799 8.29572 10.4799 7.65003 10.53L6.20003 10.74L5.61003 10.8C5.23003 10.8 5.25003 11.02 5.34003 11.2C5.31828 11.2278 5.30518 11.2614 5.30236 11.2966C5.29954 11.3318 5.30713 11.367 5.32418 11.3979C5.34123 11.4288 5.36699 11.454 5.39826 11.4704C5.42952 11.4868 5.46491 11.4936 5.50003 11.49Z" fill="black"/>
<path fill-rule="evenodd" clip-rule="evenodd" d="M12.49 14.92C12.5703 14.939 12.6547 14.9283 12.7276 14.8897C12.8005 14.8511 12.8569 14.7873 12.8862 14.7102C12.9156 14.6332 12.9159 14.548 12.8872 14.4707C12.8585 14.3934 12.8026 14.3292 12.73 14.29C11.9061 14.1595 11.0741 14.086 10.24 14.07H9.24004C8.90004 14.07 8.56004 14.07 8.24004 14.13C7.24004 14.22 6.40004 14.39 5.88004 14.49C5.8111 14.5028 5.74881 14.5392 5.70397 14.5931C5.65913 14.647 5.63458 14.7149 5.63458 14.785C5.63458 14.8551 5.65913 14.923 5.70397 14.9769C5.74881 15.0308 5.8111 15.0673 5.88004 15.08C6.40004 15.08 7.27004 15.18 8.23004 15.21H9.23004C9.56004 15.21 9.91004 15.21 10.23 15.15C11.45 15 12.41 14.9 12.49 14.92Z" fill="black"/>
</g>
<defs>
<clipPath id="clip0_1030_2068">
<rect width="24" height="24" fill="white"/>
</clipPath>
</defs>
</svg>
