<svg width="24" height="24" viewBox="0 0 24 24" fill="none" xmlns="http://www.w3.org/2000/svg">
<g clip-path="url(#clip0_1030_2062)">
<path fill-rule="evenodd" clip-rule="evenodd" d="M21.2 13.41C21.2 11.46 21.1 9.28 20.92 7.61C20.878 6.72825 20.6782 5.86118 20.33 5.05C20.1539 4.78383 19.9035 4.5752 19.61 4.45C19.0482 4.20362 18.4565 4.03215 17.85 3.94C17.7603 3.92787 17.6694 3.94994 17.5953 4.00182C17.5211 4.05371 17.4693 4.1316 17.45 4.22C17.4356 4.31147 17.458 4.40493 17.5123 4.4799C17.5667 4.55488 17.6486 4.60525 17.74 4.62C18.2016 4.70115 18.6538 4.82846 19.09 5C19.3311 5.07517 19.5437 5.22159 19.7 5.42C19.9704 6.14388 20.1191 6.90754 20.14 7.68C20.29 9.33 20.3 11.49 20.3 13.42C20.3 15.35 20.35 17.23 20.3 18.9C20.3116 19.8489 20.2615 20.7976 20.15 21.74C20.15 21.86 20.04 21.97 20.03 22.04C17.9883 22.5423 15.8925 22.7908 13.79 22.78C10.8196 22.9032 7.84453 22.8531 4.87997 22.63C4.56997 22.63 4.26997 22.45 4.15997 22.48C4.11401 22.3297 4.08056 22.1758 4.05997 22.02C4.05997 21.67 3.98997 21.31 3.96997 21.08C3.88997 20.14 3.67997 15.76 3.52997 11.93C3.40997 8.87 3.30997 6.16 3.33997 5.85V5.45C3.6695 5.21637 4.057 5.07798 4.45997 5.05C4.87205 5.01026 5.28603 4.99357 5.69997 5C5.62933 5.21277 5.57254 5.42989 5.52997 5.65C5.5115 5.80612 5.5115 5.96388 5.52997 6.12C5.52997 6.45 5.61997 6.88 5.61997 6.88C5.63846 7.00659 5.70049 7.12278 5.79541 7.20856C5.89032 7.29435 6.01216 7.34436 6.13997 7.35C6.13997 7.35 8.94997 7.41 11.54 7.41C12.99 7.41 14.38 7.41 15.16 7.33C15.2379 7.31999 15.3088 7.27981 15.3574 7.21811C15.406 7.1564 15.4285 7.07809 15.42 7C15.4187 6.96102 15.4096 6.9227 15.3932 6.88732C15.3768 6.85194 15.3534 6.82023 15.3245 6.79409C15.2956 6.76795 15.2617 6.74792 15.2248 6.73519C15.1879 6.72246 15.1489 6.71729 15.11 6.72C14.5 6.72 13.52 6.72 12.43 6.65C10.28 6.55 7.69997 6.37 6.64997 6.29V5.89C6.69066 5.70754 6.74073 5.5273 6.79997 5.35C6.85057 5.2029 6.91766 5.062 6.99997 4.93C7.17863 4.68523 7.41588 4.48924 7.68997 4.36C8.19867 4.14593 8.72816 3.98507 9.26997 3.88L9.58997 3.81C9.67202 3.7994 9.75092 3.77167 9.82156 3.7286C9.89219 3.68553 9.95298 3.62809 9.99997 3.56C10.0538 3.41827 10.0538 3.26173 9.99997 3.12L9.85997 2.36C9.86207 2.20961 9.89614 2.06138 9.95994 1.92517C10.0237 1.78896 10.1158 1.66789 10.23 1.57C10.5236 1.33359 10.8647 1.16307 11.23 1.07C11.4159 1.0147 11.614 1.0147 11.8 1.07C12.0025 1.13798 12.1871 1.25078 12.34 1.4C12.5383 1.611 12.6794 1.86916 12.75 2.15C12.8007 2.48077 12.8208 2.81553 12.81 3.15C12.807 3.25915 12.8456 3.36536 12.918 3.44707C12.9904 3.52878 13.0913 3.57988 13.2 3.59C13.5729 3.62756 13.9413 3.70124 14.3 3.81C14.6551 3.90589 14.9927 4.0578 15.3 4.26C15.5398 4.4248 15.7134 4.66928 15.79 4.95C15.9085 5.28851 15.9792 5.64193 16 6C16 6.09017 16.0358 6.17665 16.0996 6.24042C16.1633 6.30418 16.2498 6.34 16.34 6.34C16.4301 6.34 16.5166 6.30418 16.5804 6.24042C16.6442 6.17665 16.68 6.09017 16.68 6C16.7035 5.5019 16.6357 5.00371 16.48 4.53C16.3499 4.17612 16.1165 3.86952 15.81 3.65C15.445 3.39858 15.0482 3.19682 14.63 3.05C14.3522 2.9568 14.0681 2.88328 13.78 2.83C13.7999 2.46316 13.7628 2.09545 13.67 1.74C13.5627 1.39232 13.3819 1.07175 13.14 0.799999C12.8844 0.514376 12.566 0.291887 12.21 0.149999C11.8302 -0.0179833 11.4093 -0.0701621 11 -6.55651e-07C10.34 0.154947 9.74116 0.503102 9.27997 0.999999C8.93115 1.37795 8.74134 1.87575 8.74997 2.39C8.73972 2.53649 8.73972 2.68351 8.74997 2.83C8.18716 2.93991 7.6398 3.11788 7.11997 3.36C6.67502 3.56729 6.28974 3.88378 5.99997 4.28C6.00536 4.30639 6.00536 4.33361 5.99997 4.36C5.3653 4.34458 4.73034 4.37466 4.09997 4.45C3.70524 4.51926 3.33006 4.67274 2.99997 4.9C2.89055 4.98105 2.80715 5.09226 2.75997 5.22C2.70255 5.40155 2.66893 5.58979 2.65997 5.78V11.95C2.71997 15.81 2.81997 20.21 2.87997 21.16C2.88611 21.6507 2.93969 22.1396 3.03997 22.62C3.10123 22.909 3.2355 23.1776 3.42997 23.4C3.77845 23.6003 4.16874 23.7167 4.56997 23.74C7.08998 23.9649 9.62062 24.0484 12.15 23.99C15.55 23.92 19.03 23.62 20.59 22.99C20.7662 22.9179 20.9089 22.7823 20.99 22.61C21.1961 22.0187 21.2976 21.3961 21.29 20.77C21.4 18.91 21.26 16 21.2 13.41Z" fill="black"/>
<path fill-rule="evenodd" clip-rule="evenodd" d="M14.05 15.63C13.9855 15.5853 13.9109 15.5574 13.8328 15.5489C13.7548 15.5404 13.6759 15.5516 13.6034 15.5814C13.5308 15.6113 13.4668 15.6588 13.4173 15.7197C13.3678 15.7806 13.3344 15.8529 13.32 15.93C13.1474 16.6309 12.9371 17.3219 12.69 18C12.4661 18.652 12.1495 19.2683 11.75 19.83C11.75 19.83 11.75 19.89 11.75 19.91H9.59997C8.83418 19.9219 8.06861 19.8751 7.30997 19.77C7.14878 19.682 6.98172 19.6051 6.80997 19.54C6.63997 18.61 6.50997 17.28 6.37997 15.85C6.29997 15 6.19997 14 6.12997 13.14C6.00069 11.6304 5.95728 10.1146 5.99997 8.60002C6.0031 8.51995 5.97606 8.44162 5.92422 8.38051C5.87237 8.31941 5.79949 8.27998 5.71997 8.27002C5.63932 8.26445 5.55967 8.2906 5.49802 8.34291C5.43638 8.39521 5.3976 8.46954 5.38997 8.55002C5.15394 10.8522 5.10044 13.1694 5.22997 15.48C5.29594 17.035 5.4798 18.5828 5.77997 20.11C5.81367 20.2255 5.87363 20.3317 5.95517 20.4201C6.03671 20.5086 6.1376 20.577 6.24997 20.62C6.5307 20.7101 6.81833 20.7769 7.10997 20.82C7.74554 20.873 8.38441 20.873 9.01997 20.82C13.24 20.66 12.67 20.68 13.31 20.56C13.6468 20.5037 13.9806 20.4302 14.31 20.34C15.1747 20.1027 15.9929 19.7206 16.73 19.21C17.2588 18.8496 17.6749 18.3469 17.93 17.76C18.4792 16.4311 18.7218 14.9956 18.64 13.56V12.38C18.64 11.99 18.56 11.58 18.51 11.2C18.37 10.07 18.18 9.11002 18.07 8.49002C18.0662 8.44531 18.0536 8.40179 18.0329 8.36196C18.0123 8.32213 17.9839 8.28679 17.9495 8.25797C17.9151 8.22915 17.8754 8.20743 17.8325 8.19405C17.7897 8.18067 17.7447 8.17591 17.7 8.18002C17.6548 8.18243 17.6105 8.19411 17.57 8.21434C17.5295 8.23457 17.4936 8.26292 17.4645 8.29763C17.4355 8.33233 17.4138 8.37265 17.401 8.41607C17.3882 8.45949 17.3844 8.50509 17.39 8.55002V11.29C17.39 11.66 17.39 12.05 17.44 12.45C17.49 12.85 17.49 13.22 17.53 13.61C17.83 16.42 17.65 16.26 17.25 17.46C17.043 17.8994 16.6894 18.253 16.25 18.46C15.5706 18.8488 14.83 19.1193 14.06 19.26L13.36 19.38C13.4503 19.1809 13.5304 18.9773 13.6 18.77C13.8438 18.0789 14.0344 17.3702 14.17 16.65C14.5366 16.7741 14.9233 16.8283 15.31 16.81C15.9041 16.7954 16.4864 16.6412 17.01 16.36C17.0904 16.3211 17.1523 16.2521 17.1823 16.1678C17.2122 16.0836 17.2078 15.991 17.17 15.91C17.1517 15.868 17.1251 15.8302 17.0918 15.7987C17.0585 15.7673 17.0191 15.7429 16.9762 15.727C16.9332 15.7112 16.8875 15.7041 16.8418 15.7064C16.796 15.7086 16.7512 15.72 16.71 15.74C16.2748 15.9396 15.7982 16.0322 15.32 16.01C14.868 16.0144 14.4253 15.8819 14.05 15.63Z" fill="black"/>
<path fill-rule="evenodd" clip-rule="evenodd" d="M15 10.23C14.0517 9.97721 13.0856 9.79669 12.11 9.69001C11.4443 9.63889 10.7756 9.63889 10.11 9.69001L8.63996 9.90001L7.99996 10C7.60996 10 7.62996 10.23 7.72996 10.41C7.7234 10.4349 7.72295 10.4611 7.72867 10.4862C7.73438 10.5113 7.74608 10.5347 7.76278 10.5544C7.77947 10.574 7.80066 10.5893 7.82454 10.599C7.84843 10.6087 7.8743 10.6125 7.89996 10.61L8.56996 10.68L10.14 10.79H11.77H13.42C13.97 10.79 14.42 10.79 14.84 10.86C14.8847 10.8671 14.9303 10.8652 14.9743 10.8543C15.0183 10.8435 15.0596 10.824 15.0959 10.797C15.1323 10.77 15.1628 10.736 15.1858 10.697C15.2089 10.6581 15.2239 10.6149 15.23 10.57C15.2339 10.496 15.2136 10.4228 15.1721 10.3614C15.1305 10.3 15.0701 10.2539 15 10.23Z" fill="black"/>
<path fill-rule="evenodd" clip-rule="evenodd" d="M13 14.32C14.21 14.24 15.19 14.1 15.27 14.13C15.3137 14.1521 15.3615 14.1648 15.4104 14.1672C15.4593 14.1697 15.5081 14.1619 15.5538 14.1443C15.5995 14.1267 15.6409 14.0997 15.6755 14.0651C15.7101 14.0305 15.7371 13.989 15.7547 13.9433C15.7722 13.8976 15.78 13.8488 15.7775 13.7999C15.7751 13.751 15.7623 13.7032 15.7402 13.6595C15.7181 13.6159 15.6871 13.5773 15.6492 13.5464C15.6112 13.5155 15.5672 13.4928 15.52 13.48C14.6862 13.3429 13.8445 13.2594 13 13.23H12C11.68 13.23 11.31 13.23 11 13.28C10 13.37 9.12 13.53 8.6 13.62C8.51954 13.6251 8.44425 13.6614 8.39011 13.7212C8.33597 13.7809 8.30723 13.8594 8.31 13.94C8.31248 13.9803 8.32309 14.0198 8.34119 14.0559C8.3593 14.092 8.38451 14.1241 8.41534 14.1503C8.44616 14.1764 8.48195 14.1961 8.52055 14.2081C8.55916 14.22 8.59979 14.2241 8.64 14.22C9.17 14.22 10.05 14.34 11.03 14.39H12.03L13 14.32Z" fill="black"/>
</g>
<defs>
<clipPath id="clip0_1030_2062">
<rect width="24" height="24" fill="white"/>
</clipPath>
</defs>
</svg>
