<svg width="24" height="24" viewBox="0 0 24 24" fill="none" xmlns="http://www.w3.org/2000/svg">
<g clip-path="url(#clip0_1030_2095)">
<path fill-rule="evenodd" clip-rule="evenodd" d="M3.29 7.60002C3.21788 7.59134 3.14474 7.59847 3.07566 7.62092C3.00659 7.64337 2.94323 7.6806 2.89 7.73002C2.84 7.73002 2.76 7.91002 2.71 7.96002L2.22 8.48002L1.05 9.93002C0.889999 10.15 0.749999 10.38 0.609999 10.61C0.469999 10.84 0.219999 11.29 0.0399985 11.61C0.0159093 11.6416 -0.00119657 11.6779 -0.0101843 11.7165C-0.019172 11.7552 -0.0198362 11.7953 -0.0121328 11.8343C-0.00442939 11.8732 0.0114655 11.9101 0.0344977 11.9424C0.0575298 11.9747 0.0871727 12.0018 0.12146 12.0218C0.155747 12.0418 0.193896 12.0543 0.233374 12.0584C0.272853 12.0626 0.31276 12.0583 0.350448 12.0458C0.388135 12.0333 0.422743 12.013 0.451974 11.9861C0.481206 11.9593 0.504393 11.9265 0.519999 11.89C0.689999 11.61 0.869999 11.35 1.05 11.09C1.23 10.83 1.43 10.59 1.63 10.35L2.79 9.24002V9.41002C2.68876 10.0546 2.5485 10.6924 2.37 11.32C2.19 12.16 2.02 13.01 1.89 13.87C1.75623 14.7311 1.67276 15.5992 1.64 16.47C1.63729 16.5108 1.64264 16.5516 1.65576 16.5903C1.66888 16.6289 1.68951 16.6646 1.71645 16.6953C1.7434 16.7259 1.77613 16.751 1.81278 16.7689C1.84942 16.7869 1.88926 16.7975 1.93 16.8C2.0133 16.8056 2.09548 16.7784 2.159 16.7242C2.22253 16.67 2.26236 16.5932 2.27 16.51C2.34471 15.838 2.45486 15.1704 2.6 14.51C2.81 13.51 3.08 12.51 3.38 11.57C3.58389 10.9153 3.74095 10.247 3.85 9.57002C3.91653 9.0456 3.88603 8.51341 3.76 8.00002C3.73939 7.88957 3.68145 7.78955 3.59589 7.71673C3.51032 7.64391 3.40233 7.6027 3.29 7.60002Z" fill="black"/>
<path fill-rule="evenodd" clip-rule="evenodd" d="M13.57 16.08L11.85 16L10.56 15.82L9.99999 15.67C9.90051 15.6372 9.80358 15.5971 9.70999 15.55L9.87999 15.38C10.1 15.14 10.41 14.88 10.65 14.62C11.2298 14.0014 11.774 13.3503 12.28 12.67C12.6183 12.1611 12.8622 11.5954 13 11C13.051 10.7956 13.0911 10.5887 13.12 10.38C13.1451 10.2143 13.1451 10.0457 13.12 9.88002C13.1163 9.75132 13.0961 9.62361 13.06 9.50002C13.0549 9.36487 13.0348 9.23071 13 9.10002C12.9438 8.89471 12.8469 8.70278 12.7151 8.53562C12.5833 8.36846 12.4192 8.22946 12.2327 8.12687C12.0462 8.02428 11.841 7.96019 11.6292 7.93841C11.4175 7.91662 11.2035 7.93757 11 8.00002C10.0434 8.34156 9.21571 8.97021 8.62999 9.80002C8.60701 9.82891 8.58994 9.86205 8.57977 9.89753C8.56959 9.93302 8.56651 9.97016 8.57068 10.0068C8.57486 10.0435 8.58623 10.079 8.60412 10.1113C8.62202 10.1436 8.6461 10.172 8.67499 10.195C8.70388 10.218 8.73702 10.2351 8.7725 10.2452C8.80799 10.2554 8.84513 10.2585 8.88181 10.2543C8.91849 10.2502 8.95399 10.2388 8.98628 10.2209C9.01856 10.203 9.04701 10.1789 9.06999 10.15C9.6025 9.4823 10.3293 8.99657 11.15 8.76002C11.55 8.70002 11.88 8.88002 12.08 9.44002L12.16 9.91002C12.176 10.0027 12.176 10.0974 12.16 10.19C12.1233 10.3659 12.0766 10.5395 12.02 10.71C11.8825 11.1737 11.666 11.6101 11.38 12C10.9052 12.6518 10.3979 13.2793 9.85999 13.88C9.46258 14.2788 9.12568 14.7336 8.85999 15.23C8.71999 15.66 8.79999 16.17 9.75999 16.47L10.45 16.63L11.84 16.73L13.63 16.68C13.6707 16.6787 13.7108 16.6694 13.7479 16.6526C13.785 16.6359 13.8185 16.6119 13.8463 16.5822C13.8742 16.5525 13.8959 16.5176 13.9103 16.4794C13.9246 16.4413 13.9313 16.4007 13.93 16.36C13.928 16.3167 13.9166 16.2744 13.8967 16.2359C13.8767 16.1974 13.8487 16.1637 13.8145 16.1371C13.7803 16.1105 13.7407 16.0916 13.6985 16.0817C13.6563 16.0719 13.6124 16.0713 13.57 16.08Z" fill="black"/>
<path fill-rule="evenodd" clip-rule="evenodd" d="M23.28 11.29C22.9367 11.0191 22.5245 10.8494 22.09 10.8C22.1491 10.717 22.2026 10.6302 22.25 10.54C22.3989 10.2538 22.4865 9.93965 22.5072 9.61766C22.5279 9.29568 22.4811 8.97292 22.37 8.67001C22 7.51001 21.26 7.14001 20.52 7.20001C19.9661 7.32449 19.4458 7.5678 18.9952 7.91312C18.5445 8.25844 18.1743 8.69752 17.91 9.20001C17.8753 9.26584 17.8664 9.34221 17.8849 9.41428C17.9033 9.48634 17.9479 9.54898 18.01 9.59001C18.0738 9.62657 18.1494 9.63657 18.2205 9.61786C18.2916 9.59915 18.3525 9.55323 18.39 9.49001C18.6191 9.09382 18.932 8.7525 19.3068 8.48994C19.6817 8.22737 20.1094 8.04992 20.56 7.97001C21 7.97001 21.35 8.26001 21.56 8.97001C21.618 9.16137 21.6346 9.36288 21.6087 9.56115C21.5828 9.75942 21.5151 9.94992 21.41 10.12C21.1983 10.4707 20.889 10.7521 20.52 10.93C20.0856 11.0247 19.658 11.1484 19.24 11.3C19.1164 11.3396 19.0103 11.4209 18.94 11.53C18.85 11.66 18.76 12.41 19.45 12.35C19.6487 12.3206 19.8456 12.2805 20.04 12.23L20.64 11.99C20.9488 11.9203 21.2636 11.8802 21.58 11.87C21.9541 11.8327 22.3294 11.9283 22.64 12.14C23.17 12.56 23.09 13.29 22.83 13.95C22.5872 14.6659 22.0934 15.2698 21.44 15.65C21.0671 15.7934 20.6604 15.8247 20.27 15.74C19.6 15.62 18.94 15.31 18.27 15.15C18.2293 15.1395 18.1869 15.1371 18.1453 15.143C18.1036 15.1489 18.0636 15.1629 18.0274 15.1842C17.9911 15.2056 17.9595 15.2339 17.9342 15.2675C17.9089 15.3011 17.8905 15.3393 17.88 15.38C17.8695 15.4207 17.8671 15.4631 17.873 15.5047C17.8789 15.5464 17.8929 15.5864 17.9142 15.6226C17.9356 15.6589 17.9639 15.6905 17.9975 15.7158C18.031 15.7411 18.0693 15.7595 18.11 15.77C18.78 15.96 19.44 16.3 20.11 16.45C20.6375 16.5832 21.1918 16.5659 21.71 16.4C22.2347 16.1341 22.6985 15.7622 23.072 15.3077C23.4456 14.8533 23.7207 14.3263 23.88 13.76C24.0435 13.3362 24.0736 12.8726 23.9664 12.4312C23.8591 11.9897 23.6197 11.5916 23.28 11.29Z" fill="black"/>
<path fill-rule="evenodd" clip-rule="evenodd" d="M8.30001 12.07C7.81299 11.9331 7.31409 11.8427 6.81001 11.8C6.59694 11.785 6.38308 11.785 6.17001 11.8C5.95854 11.8074 5.74794 11.8308 5.54001 11.87C5.05773 11.9819 4.58336 12.1256 4.12001 12.3C4.08297 12.306 4.04752 12.3194 4.01575 12.3394C3.98399 12.3593 3.95657 12.3855 3.93512 12.4163C3.91366 12.4471 3.89861 12.4819 3.89086 12.5186C3.88311 12.5553 3.88282 12.5932 3.89001 12.63C3.89587 12.6668 3.90927 12.702 3.92939 12.7333C3.9495 12.7647 3.97588 12.7915 4.00688 12.8122C4.03787 12.8329 4.07281 12.8469 4.10949 12.8534C4.14617 12.8599 4.1838 12.8587 4.22001 12.85C4.74001 12.85 5.22001 12.9 5.84001 12.85C6.15001 12.85 6.47001 12.85 6.78001 12.79C7.25399 12.7243 7.73155 12.6876 8.21001 12.68C8.25077 12.6856 8.29224 12.683 8.332 12.6725C8.37175 12.6619 8.40901 12.6435 8.44158 12.6183C8.47416 12.5932 8.50141 12.5618 8.52174 12.5261C8.54207 12.4903 8.55508 12.4508 8.56001 12.41C8.5663 12.3312 8.54322 12.2529 8.49522 12.1901C8.44721 12.1274 8.37768 12.0846 8.30001 12.07Z" fill="black"/>
<path fill-rule="evenodd" clip-rule="evenodd" d="M17 12.29C16.5774 12.1565 16.1415 12.0693 15.7 12.03C15.5168 12.0199 15.3332 12.0199 15.15 12.03L14.62 12.1C14.19 12.19 13.81 12.34 13.41 12.45C13.3357 12.45 13.2645 12.4795 13.212 12.532C13.1595 12.5845 13.13 12.6558 13.13 12.73C13.13 12.8043 13.1595 12.8755 13.212 12.928C13.2645 12.9805 13.3357 13.01 13.41 13.01C13.8844 13.0723 14.3617 13.109 14.84 13.12C15.1144 13.1112 15.3881 13.0878 15.66 13.05C16.0532 12.9809 16.4509 12.9408 16.85 12.93C16.9335 12.9446 17.0194 12.9253 17.0888 12.8766C17.1582 12.8278 17.2054 12.7535 17.22 12.67C17.2387 12.5906 17.2264 12.507 17.1855 12.4363C17.1446 12.3657 17.0782 12.3134 17 12.29Z" fill="black"/>
</g>
<defs>
<clipPath id="clip0_1030_2095">
<rect width="24" height="24" fill="white"/>
</clipPath>
</defs>
</svg>
