<svg width="24" height="24" viewBox="0 0 24 24" fill="none" xmlns="http://www.w3.org/2000/svg">
<g clip-path="url(#clip0_1030_2128)">
<path d="M21.37 16.71C21.267 16.1131 21.0346 15.5459 20.6891 15.0484C20.3436 14.5509 19.8934 14.135 19.37 13.83C18.9397 13.6071 18.4776 13.4519 18 13.37C17.2998 13.2528 16.589 13.2125 15.88 13.25C15.72 13.25 15.23 13.42 14.88 13.46L14.41 11.46C14.2421 10.7423 14.0147 10.0399 13.73 9.35998C13.4371 8.66802 13.0574 8.01612 12.6 7.41998C12.3208 7.03657 11.9834 6.69916 11.6 6.41998C11.2949 6.1801 10.9266 6.03417 10.54 5.99998C10.1831 5.9534 9.82089 6.02623 9.50975 6.20712C9.19862 6.38802 8.9561 6.6668 8.82002 6.99998C8.58097 7.79677 8.51281 8.63505 8.62002 9.45998C8.67576 10.298 8.77591 11.1325 8.92002 11.96C9.06077 12.7915 9.2545 13.6132 9.50002 14.42C9.59002 14.69 9.67002 14.97 9.75002 15.24C9.3172 15.4146 8.92605 15.6785 8.60211 16.0145C8.27817 16.3505 8.02872 16.7511 7.87002 17.19C7.67899 17.6732 7.59045 18.1908 7.61002 18.71C7.63186 19.2492 7.78643 19.7748 8.06002 20.24C8.26414 20.5609 8.52111 20.8449 8.82002 21.08C9.23603 21.3785 9.68581 21.6269 10.16 21.82L10.97 22.05C11.1219 22.1556 11.2568 22.2837 11.37 22.43C11.69 22.87 11.9 23.43 12.25 23.81C12.2767 23.8464 12.3103 23.8772 12.349 23.9005C12.3877 23.9238 12.4307 23.9391 12.4753 23.9456C12.52 23.9522 12.5656 23.9497 12.6093 23.9384C12.653 23.9272 12.6941 23.9073 12.73 23.88C12.7676 23.8542 12.7995 23.821 12.8236 23.7823C12.8477 23.7436 12.8636 23.7004 12.8701 23.6553C12.8767 23.6102 12.8739 23.5643 12.8618 23.5203C12.8497 23.4764 12.8287 23.4354 12.8 23.4C12.5 22.96 12.35 22.4 12.08 21.96C11.9373 21.7149 11.7548 21.4952 11.54 21.31C11.4274 21.2225 11.3028 21.1518 11.17 21.1C10.99 21.02 10.78 20.98 10.6 20.88C10.2234 20.688 9.86806 20.4567 9.54002 20.19C9.34856 20.0338 9.18316 19.8481 9.05002 19.64C8.85983 19.3175 8.73775 18.9594 8.69132 18.5879C8.64488 18.2164 8.67507 17.8394 8.78002 17.48C8.8701 17.1522 9.02431 16.8455 9.23372 16.5778C9.44314 16.31 9.7036 16.0864 10 15.92C10.09 16.2 10.18 16.49 10.28 16.76C10.4676 17.2721 10.6846 17.7729 10.93 18.26C10.9665 18.3322 11.0299 18.3873 11.1065 18.4135C11.1831 18.4397 11.2669 18.4348 11.34 18.4C11.3759 18.382 11.4078 18.3571 11.4338 18.3266C11.4598 18.2961 11.4795 18.2607 11.4916 18.2224C11.5037 18.1842 11.5081 18.144 11.5044 18.104C11.5006 18.0641 11.489 18.0253 11.47 17.99C11.2541 17.5219 11.0671 17.041 10.91 16.55C10.67 15.8 10.48 15.04 10.28 14.26C10.0766 13.4772 9.92297 12.6822 9.82002 11.88C9.71919 11.0767 9.65579 10.2692 9.63002 9.45998C9.54744 8.78674 9.61576 8.10355 9.83002 7.45998C9.8881 7.33137 9.98767 7.22597 10.1128 7.1607C10.2379 7.09542 10.3813 7.07404 10.52 7.09998C10.7521 7.12568 10.968 7.23182 11.13 7.39998C11.3565 7.59816 11.5579 7.82314 11.73 8.06998C12.1362 8.59772 12.4724 9.17587 12.73 9.78998C12.9906 10.4157 13.2013 11.061 13.36 11.72L13.84 14C13.8666 14.1373 13.9361 14.2627 14.0386 14.3579C14.141 14.4532 14.2711 14.5135 14.41 14.53C14.9097 14.524 15.408 14.4772 15.9 14.39C16.5317 14.3258 17.1683 14.3258 17.8 14.39C18.1921 14.4378 18.5738 14.5492 18.93 14.72C19.3374 14.9499 19.6897 15.2658 19.9626 15.6458C20.2355 16.0257 20.4223 16.4605 20.51 16.92C20.7946 18.4401 20.7946 19.9999 20.51 21.52L20.19 23.07C20.1795 23.114 20.1778 23.1596 20.1849 23.2043C20.192 23.2489 20.2079 23.2918 20.2316 23.3303C20.2794 23.4081 20.3562 23.4638 20.445 23.485C20.5339 23.5062 20.6275 23.4913 20.7053 23.4434C20.7439 23.4198 20.7774 23.3887 20.8039 23.3521C20.8304 23.3155 20.8495 23.274 20.86 23.23L21.23 21.64C21.5851 20.0199 21.6325 18.3476 21.37 16.71Z" fill="black"/>
<path d="M13.35 6.86997C13.3927 6.88398 13.4377 6.88938 13.4825 6.88589C13.5272 6.88239 13.5709 6.87006 13.6108 6.8496C13.6508 6.82915 13.6864 6.80098 13.7154 6.76671C13.7444 6.73245 13.7664 6.69277 13.78 6.64997C13.9283 6.21392 13.9792 5.75064 13.9291 5.29278C13.879 4.83492 13.7291 4.39362 13.49 3.99997C13.2523 3.58004 12.9262 3.21677 12.5342 2.93533C12.1423 2.65388 11.6939 2.46098 11.22 2.36997C10.5377 2.2603 9.84227 2.2603 9.15999 2.36997C8.45471 2.48494 7.7767 2.72903 7.15999 3.08997C6.90293 3.26452 6.66496 3.46563 6.44999 3.68997C6.15679 3.99859 5.89237 4.33331 5.65999 4.68997C5.23338 5.3058 5.04503 6.05565 5.12999 6.79997C5.23324 7.50022 5.53518 8.15616 5.99999 8.68997C6.20255 8.93403 6.43428 9.15232 6.68999 9.33997C6.87108 9.48222 7.07833 9.58754 7.29999 9.64997C7.3769 9.67384 7.46014 9.66618 7.53141 9.62867C7.60267 9.59117 7.65612 9.52689 7.67999 9.44997C7.70386 9.37306 7.69619 9.28982 7.65869 9.21855C7.62118 9.14729 7.5569 9.09384 7.47999 9.06997C7.30192 8.99327 7.13928 8.88484 6.99999 8.74997C6.84661 8.59411 6.70926 8.42326 6.58999 8.23997C6.24689 7.80306 6.04151 7.27395 5.99999 6.71997C5.99625 6.20241 6.1811 5.70118 6.51999 5.30997C6.70315 5.05958 6.90364 4.82233 7.11999 4.59997C7.30634 4.3874 7.52181 4.20224 7.75999 4.04997C8.24766 3.77329 8.77839 3.5806 9.32999 3.47997C9.89439 3.35603 10.4744 3.31894 11.05 3.36997C11.3856 3.40566 11.7094 3.5135 11.9994 3.68611C12.2894 3.85872 12.5386 4.09201 12.73 4.36997C12.935 4.65561 13.0744 4.98295 13.1384 5.32865C13.2023 5.67436 13.1892 6.02991 13.1 6.36997C13.0779 6.41876 13.067 6.47186 13.068 6.52541C13.069 6.57896 13.082 6.6316 13.1059 6.67951C13.1299 6.72741 13.1642 6.76937 13.2064 6.80232C13.2487 6.83527 13.2977 6.85838 13.35 6.86997Z" fill="black"/>
<path d="M7.37001 11.84C6.67521 11.7116 6.00194 11.4861 5.37001 11.17C4.78729 10.8597 4.31031 10.3827 4.00001 9.8C3.80366 9.43757 3.65573 9.05093 3.56001 8.65C3.45285 8.24541 3.39906 7.82854 3.40001 7.41C3.4083 6.46499 3.6126 5.53198 4.00001 4.67C4.35083 3.81723 4.9033 3.06231 5.61001 2.47C6.30716 1.90721 7.12522 1.51359 8.00001 1.32C8.91514 1.1385 9.85265 1.09804 10.78 1.2C11.31 1.2 11.86 1.27 12.38 1.36C12.706 1.41338 13.0247 1.50398 13.33 1.63C13.8988 1.90467 14.398 2.30469 14.79 2.8C15.2213 3.30304 15.5599 3.87863 15.79 4.5C15.9353 4.90655 16.0457 5.32472 16.12 5.75C16.1823 6.16356 16.2024 6.58237 16.18 7C16.1553 7.45702 16.0539 7.90663 15.88 8.33C15.6053 9.00203 15.2706 9.64797 14.88 10.26C14.8471 10.2985 14.823 10.3437 14.8092 10.3925C14.7955 10.4412 14.7925 10.4924 14.8005 10.5424C14.8085 10.5924 14.8272 10.6401 14.8554 10.6822C14.8836 10.7243 14.9206 10.7597 14.9638 10.7861C15.0071 10.8125 15.0555 10.8292 15.1058 10.835C15.1561 10.8408 15.2071 10.8357 15.2553 10.8199C15.3034 10.8041 15.3475 10.778 15.3846 10.7435C15.4217 10.709 15.4508 10.6669 15.47 10.62C15.8958 9.98586 16.2671 9.3168 16.58 8.62C16.7994 8.1282 16.9411 7.6053 17 7.07C17.0544 6.5882 17.0544 6.1018 17 5.62C16.9366 5.14211 16.8329 4.67043 16.69 4.21C16.4547 3.48718 16.0961 2.81054 15.63 2.21C15.1485 1.54924 14.509 1.01977 13.77 0.669997C13.3929 0.495347 12.997 0.364494 12.59 0.279997C12.0243 0.176567 11.4535 0.103131 10.88 0.059997C9.83623 -0.0585849 8.78037 -0.0147314 7.75001 0.189997C6.69543 0.418804 5.70909 0.891425 4.87001 1.57C4.02978 2.29863 3.38665 3.22721 3.00001 4.27C2.597 5.28007 2.40966 6.36325 2.45001 7.45C2.4789 7.93132 2.56278 8.40775 2.70001 8.87C2.83538 9.33642 3.03032 9.78343 3.28001 10.2C3.6194 10.7545 4.0855 11.2206 4.64001 11.56C5.45075 12.0124 6.33968 12.3076 7.26001 12.43C7.29875 12.4372 7.33854 12.4368 7.3771 12.4286C7.41566 12.4205 7.45224 12.4048 7.48474 12.3825C7.51724 12.3602 7.54503 12.3318 7.56653 12.2987C7.58803 12.2657 7.6028 12.2287 7.61001 12.19C7.61725 12.1513 7.61678 12.1115 7.60863 12.0729C7.60048 12.0344 7.58482 11.9978 7.56253 11.9653C7.54024 11.9328 7.51177 11.905 7.47873 11.8835C7.4457 11.862 7.40876 11.8472 7.37001 11.84Z" fill="black"/>
</g>
<defs>
<clipPath id="clip0_1030_2128">
<rect width="24" height="24" fill="white"/>
</clipPath>
</defs>
</svg>
