<svg width="24" height="24" viewBox="0 0 24 24" fill="none" xmlns="http://www.w3.org/2000/svg">
<g clip-path="url(#clip0_1030_2139)">
<path fill-rule="evenodd" clip-rule="evenodd" d="M21.48 14C20.81 13.61 19.71 13.35 18.87 13H18.81C19.0482 11.6015 18.9766 10.1678 18.6 8.80001C18.11 7.27001 17.07 6.42001 15.42 6.87001C15.121 6.94647 14.8522 7.11154 14.6487 7.34354C14.4453 7.57554 14.3167 7.86364 14.28 8.17001C14.2545 9.15187 14.3724 10.1322 14.63 11.08C14.8334 12.0427 14.8334 13.0373 14.63 14C14.5142 14.4356 14.3097 14.8426 14.0292 15.1953C13.7487 15.5481 13.3983 15.8391 13 16.05C12.5129 16.2953 11.9487 16.3384 11.43 16.17C10.8399 16.016 10.2993 15.713 9.85995 15.29C9.43259 14.9612 8.91199 14.7763 8.37297 14.762C7.83394 14.7476 7.30423 14.9044 6.85995 15.21C6.68936 15.321 6.54423 15.4669 6.43413 15.6381C6.32404 15.8093 6.25148 16.0018 6.22124 16.2031C6.191 16.4044 6.20378 16.6098 6.25871 16.8057C6.31365 17.0017 6.4095 17.1838 6.53995 17.34C7.0655 18.1988 7.74325 18.9545 8.53995 19.57C9.33956 20.1202 10.1862 20.5987 11.07 21C11.4266 21.1799 11.7248 21.4573 11.93 21.8C12.1495 22.4254 12.2808 23.0784 12.32 23.74C12.3348 23.8302 12.3833 23.9113 12.4557 23.967C12.5281 24.0227 12.619 24.0488 12.71 24.04C12.7994 24.0252 12.8796 23.9763 12.9337 23.9036C12.9878 23.8308 13.0115 23.7399 13 23.65C12.979 22.9088 12.8511 22.1746 12.62 21.47C12.3679 20.9889 11.9871 20.5872 11.52 20.31C10.682 19.908 9.88492 19.4257 9.13995 18.87C8.46429 18.307 7.89233 17.6301 7.44995 16.87C7.40131 16.8035 7.37021 16.7259 7.35952 16.6442C7.34883 16.5625 7.3589 16.4795 7.38881 16.4027C7.41871 16.326 7.46747 16.258 7.5306 16.2051C7.59372 16.1522 7.66916 16.1161 7.74995 16.1C7.94661 16.0027 8.16511 15.958 8.38418 15.9703C8.60324 15.9826 8.81539 16.0514 8.99995 16.17C9.57816 16.7565 10.2981 17.1836 11.09 17.41C11.513 17.5414 11.9579 17.5878 12.3989 17.5466C12.84 17.5055 13.2685 17.3775 13.66 17.17C14.5373 16.6922 15.2383 15.9457 15.66 15.04C16.155 13.7015 16.2351 12.2448 15.89 10.86C15.6867 10.1357 15.5396 9.39689 15.45 8.65001C15.45 8.35001 15.45 8.07001 15.76 7.98001C17.07 7.57001 17.65 8.69001 17.88 10.12C18.1551 12.2405 17.8294 14.3956 16.94 16.34C16.888 16.4278 16.8725 16.5325 16.8968 16.6315C16.9211 16.7306 16.9833 16.8162 17.07 16.87C17.1593 16.9225 17.2655 16.9383 17.3662 16.914C17.4669 16.8898 17.5543 16.8274 17.61 16.74C18.1367 15.8082 18.5019 14.7938 18.69 13.74C19.21 14.04 19.77 14.31 20.27 14.59L19.86 15.22C19.7701 15.368 19.6899 15.5216 19.62 15.68C19.54 15.84 19.48 16 19.41 16.16C19.25 16.56 19.13 16.95 18.96 17.32C18.9252 17.3617 18.8996 17.4102 18.8846 17.4623C18.8697 17.5145 18.8658 17.5692 18.8732 17.6229C18.8806 17.6767 18.8991 17.7283 18.9276 17.7745C18.9561 17.8206 18.9939 17.8604 19.0386 17.8911C19.0833 17.9218 19.1339 17.9429 19.1872 17.953C19.2406 17.963 19.2954 17.9618 19.3482 17.9495C19.401 17.9372 19.4507 17.9139 19.4941 17.8813C19.5374 17.8487 19.5735 17.8074 19.6 17.76C19.9216 17.4498 20.2191 17.1155 20.49 16.76C20.6029 16.605 20.7032 16.4411 20.79 16.27C20.8795 16.0971 20.9532 15.9163 21.01 15.73C21.06 15.53 21.06 15.34 21.09 15.14C21.3459 15.3576 21.5358 15.6424 21.6383 15.9622C21.7408 16.2821 21.7518 16.6242 21.67 16.95C21.4433 17.7936 21.1071 18.6038 20.67 19.36C19.8674 20.6118 19.3518 22.0255 19.16 23.5C19.1572 23.6044 19.1954 23.7058 19.2664 23.7824C19.3375 23.859 19.4356 23.9048 19.54 23.91C19.6417 23.9128 19.7405 23.8756 19.8153 23.8065C19.89 23.7373 19.9348 23.6417 19.94 23.54C20.04 22.39 20.94 21.18 21.7 19.94C22.2933 19.0896 22.7332 18.142 23 17.14C23.132 16.5221 23.0542 15.8778 22.7789 15.3091C22.5036 14.7404 22.0465 14.2797 21.48 14Z" fill="black"/>
<path fill-rule="evenodd" clip-rule="evenodd" d="M11.76 3.80999C11.9982 3.72607 12.2422 3.65924 12.49 3.60999C12.69 3.60999 12.89 3.60999 13.08 3.53999C13.2751 3.51392 13.4688 3.4772 13.66 3.42999L14.81 3.18999L14.53 3.60999L13.66 4.91999C13.6292 4.9626 13.6074 5.01099 13.5958 5.06224C13.5842 5.1135 13.5831 5.16656 13.5926 5.21826C13.602 5.26995 13.6218 5.3192 13.6508 5.36305C13.6797 5.4069 13.7172 5.44445 13.7611 5.47344C13.8049 5.50243 13.8541 5.52227 13.9058 5.53176C13.9575 5.54125 14.0105 5.5402 14.0618 5.52867C14.1131 5.51714 14.1615 5.49537 14.2041 5.46466C14.2468 5.43396 14.2828 5.39495 14.31 5.34999L16 3.68999C16.2447 3.41654 16.45 3.11025 16.61 2.77999C16.663 2.66386 16.6905 2.53767 16.6905 2.40999C16.6905 2.2823 16.663 2.15611 16.61 2.03999C16.4557 1.77089 16.2481 1.5361 16 1.34999C15.7095 1.15456 15.4091 0.974313 15.1 0.809986L14 0.0799864C13.935 0.0188103 13.8492 -0.0152588 13.76 -0.0152588C13.6707 -0.0152588 13.5849 0.0188103 13.52 0.0799864C13.4564 0.143715 13.4208 0.230017 13.4208 0.319986C13.4208 0.409956 13.4564 0.496258 13.52 0.559986L14.42 1.55999L15.02 2.18999C14.6889 2.13648 14.355 2.10309 14.02 2.08999C13.7989 2.08674 13.578 2.10347 13.36 2.13999C13.1372 2.17536 12.9192 2.23574 12.71 2.31999C12.2228 2.53894 11.7791 2.84381 11.4 3.21999C11.3608 3.24346 11.3267 3.27459 11.2998 3.31152C11.2729 3.34845 11.2538 3.39042 11.2435 3.43492C11.2331 3.47942 11.2319 3.52554 11.2398 3.57053C11.2477 3.61552 11.2646 3.65846 11.2895 3.69677C11.3144 3.73509 11.3467 3.768 11.3846 3.79354C11.4225 3.81908 11.4651 3.83673 11.5099 3.84543C11.5548 3.85413 11.6009 3.85371 11.6456 3.84418C11.6903 3.83465 11.7326 3.81622 11.77 3.78999L11.76 3.80999Z" fill="black"/>
<path fill-rule="evenodd" clip-rule="evenodd" d="M4.76 7.70998C5.32946 7.46373 5.92252 7.27609 6.53 7.14998H6.66L6.72 7.35998C6.92 7.93998 7.15 8.48998 7.37 9.05998C7.37482 9.1159 7.39166 9.17012 7.41935 9.21894C7.44705 9.26775 7.48496 9.31002 7.53049 9.34284C7.57602 9.37566 7.6281 9.39827 7.68316 9.40912C7.73823 9.41997 7.79499 9.4188 7.84957 9.4057C7.90415 9.39261 7.95525 9.36788 7.9994 9.33322C8.04354 9.29856 8.07969 9.25478 8.10536 9.20487C8.13104 9.15496 8.14563 9.10009 8.14816 9.04402C8.15069 8.98795 8.14108 8.932 8.12 8.87998C8.05 8.22998 8 7.62998 7.91 6.99998V6.70998C8.57 6.48998 9.21 6.22998 9.83 5.97998C9.88011 5.9672 9.92717 5.94458 9.96845 5.91344C10.0097 5.8823 10.0444 5.84326 10.0705 5.79859C10.0965 5.75393 10.1134 5.70452 10.1202 5.65326C10.127 5.60199 10.1235 5.54989 10.11 5.49998C10.0798 5.40206 10.0132 5.31946 9.92386 5.26922C9.83455 5.21898 9.72936 5.20494 9.63 5.22998C9 5.31998 8.34 5.35998 7.63 5.48998H7.55C7.34 4.89998 7.07 4.36998 6.82 3.79998C6.81069 3.75599 6.79249 3.71436 6.76652 3.67765C6.74054 3.64094 6.70734 3.60993 6.66894 3.58652C6.63055 3.5631 6.58777 3.54779 6.54324 3.54151C6.49871 3.53522 6.45337 3.53811 6.41 3.54998C6.36217 3.55992 6.31704 3.58006 6.2777 3.60901C6.23835 3.63796 6.2057 3.67505 6.18198 3.71775C6.15825 3.76045 6.14401 3.80777 6.14022 3.85647C6.13642 3.90517 6.14317 3.95412 6.16 3.99998C6.22 4.60998 6.24 5.20998 6.34 5.81998C5.60414 6.14278 4.9332 6.59685 4.36 7.15998C4.28769 7.21218 4.23878 7.2907 4.22382 7.37861C4.20885 7.46653 4.22903 7.5568 4.28 7.62998C4.3059 7.6672 4.33899 7.69885 4.37731 7.72309C4.41564 7.74732 4.45842 7.76365 4.50314 7.7711C4.54787 7.77856 4.59363 7.77699 4.63775 7.76649C4.68186 7.756 4.72342 7.73678 4.76 7.70998Z" fill="black"/>
<path fill-rule="evenodd" clip-rule="evenodd" d="M6.29998 13.46C6.28625 13.4109 6.2628 13.3652 6.23103 13.3254C6.19926 13.2856 6.15982 13.2526 6.11505 13.2283C6.07027 13.2041 6.02108 13.1891 5.97039 13.1842C5.9197 13.1793 5.86855 13.1847 5.81998 13.2C5.39998 13.28 4.99998 13.31 4.59998 13.4C4.40201 13.4482 4.2081 13.5117 4.01998 13.59L3.90998 13.64C3.91428 13.6001 3.91428 13.5599 3.90998 13.52C4.05998 13.15 4.24998 12.8 4.39998 12.44C4.61076 11.8616 4.87176 11.3028 5.17998 10.77C5.21239 10.7376 5.23792 10.6989 5.25501 10.6564C5.27211 10.6139 5.28044 10.5683 5.27948 10.5225C5.27853 10.4767 5.26831 10.4315 5.24946 10.3897C5.2306 10.3479 5.20349 10.3104 5.16975 10.2794C5.13602 10.2483 5.09636 10.2244 5.05315 10.2091C5.00994 10.1938 4.96409 10.1874 4.91834 10.1902C4.87259 10.1931 4.82789 10.2052 4.78693 10.2258C4.74596 10.2463 4.70959 10.275 4.67998 10.31C4.20344 10.6582 3.78205 11.0763 3.42998 11.55C3.28733 11.7621 3.16353 11.9863 3.05998 12.22C2.9683 12.4583 2.89149 12.7021 2.82998 12.95V13.07C2.74998 12.96 2.68998 12.84 2.60998 12.72C2.28998 12.24 1.93998 11.78 1.60998 11.32C1.58912 11.2804 1.56045 11.2456 1.52571 11.2174C1.49096 11.1893 1.45086 11.1685 1.40784 11.1564C1.36483 11.1442 1.31979 11.1409 1.27546 11.1467C1.23114 11.1525 1.18845 11.1672 1.14998 11.19C1.07144 11.236 1.01393 11.3109 0.989657 11.3986C0.965385 11.4864 0.976262 11.5801 1.01998 11.66L2.06998 14.26C2.16593 14.5207 2.27953 14.7747 2.40998 15.02C2.47412 15.1271 2.565 15.2156 2.67369 15.277C2.78238 15.3383 2.90516 15.3704 3.02998 15.37C3.26615 15.3582 3.49598 15.2896 3.69998 15.17C3.99998 15 4.29998 14.72 4.51998 14.57C4.68686 14.4651 4.86058 14.3716 5.03998 14.29C5.36998 14.17 5.68998 14.07 6.03998 13.94C6.1375 13.9099 6.21935 13.8428 6.26796 13.7531C6.31657 13.6633 6.32806 13.5581 6.29998 13.46Z" fill="black"/>
</g>
<defs>
<clipPath id="clip0_1030_2139">
<rect width="24" height="24" fill="white"/>
</clipPath>
</defs>
</svg>
