<svg width="24" height="24" viewBox="0 0 24 24" fill="none" xmlns="http://www.w3.org/2000/svg">
<g clip-path="url(#clip0_1035_4868)">
<path d="M23.87 13.91C23.8055 13.6421 23.6544 13.4031 23.44 13.23C22.24 10.1 21.77 7.11 20 4.32C19.7061 4.0403 19.3246 3.87073 18.92 3.84C16.06 3.32 5.92 3.24 3.78 4.74C3 5.27 0.409999 12.22 -5.53206e-07 13.49C-0.0265222 13.5709 -0.0198238 13.659 0.0186212 13.735C0.0570662 13.8109 0.124108 13.8685 0.204999 13.895C0.28589 13.9215 0.374004 13.9148 0.449956 13.8764C0.525909 13.8379 0.583478 13.7709 0.609999 13.69C1.6744 10.9192 2.92388 8.22314 4.35 5.62C6.14 4.62 16.22 4.56 18.59 4.87C19.23 4.96 19.18 4.58 20.37 7.09C21.05 8.53 21.74 10.89 22.5 12.83L22.07 12.76C18.8105 12.2426 15.5065 12.0616 12.21 12.22C9.11518 12.3681 6.03621 12.7525 3 13.37C2.22312 13.5598 1.47846 13.8631 0.789999 14.27C-0.410001 15.02 0.0999995 17.36 0.229999 18.66C0.249451 19.0533 0.299604 19.4445 0.379999 19.83C0.559999 20.43 1.11 20.49 1.13 19.69C1.13 19.29 0.899999 18.96 0.889999 18.61C0.839999 17.79 0.419999 15.39 1.19 14.94C1.81787 14.5967 2.49124 14.3442 3.19 14.19C6.18387 13.6744 9.21258 13.3869 12.25 13.33C15.4861 13.2469 18.7231 13.4611 21.92 13.97C22.08 13.97 22.65 14.05 22.69 14.2C22.8656 15.7772 22.8016 17.3719 22.5 18.93C22.44 19.22 22.89 18.93 18.45 19.29C13.12 19.71 7.69 19.54 2.45 19.6C2.35452 19.6 2.26295 19.6379 2.19544 19.7054C2.12793 19.773 2.09 19.8645 2.09 19.96C2.09 20.0555 2.12793 20.147 2.19544 20.2146C2.26295 20.2821 2.35452 20.32 2.45 20.32C7.76 20.38 13.2 20.66 18.54 20.37C22.54 20.14 23.23 20.5 23.54 19.63C23.9848 17.7575 24.0965 15.8213 23.87 13.91Z" fill="black"/>
<path d="M4.79 15.58C4.3 15.33 3.99 16.42 4.06 17.01C4.12193 17.3263 4.26908 17.6198 4.48557 17.8586C4.70205 18.0975 4.97965 18.2726 5.28841 18.3653C5.59717 18.4579 5.92537 18.4645 6.23757 18.3842C6.54978 18.304 6.83415 18.14 7.06 17.91C7.3939 17.5868 7.59999 17.154 7.6404 16.6911C7.68082 16.2281 7.55285 15.7662 7.28 15.39C6.8 14.9 5.78 14.77 5.78 15.34C5.7826 15.4364 5.82273 15.5279 5.89184 15.5952C5.96095 15.6624 6.05358 15.7 6.15 15.7C7.15 15.79 6.38 17.58 5.44 17.18C5.33503 17.1611 5.23598 17.1177 5.15086 17.0535C5.06574 16.9892 4.99693 16.9058 4.95 16.81C4.68 16.14 5.21 15.8 4.79 15.58Z" fill="black"/>
<path d="M16.62 17.31C16.67 17.13 16.78 16.9 16.85 16.6C16.9566 16.1289 16.8891 15.6352 16.66 15.21C16.66 15.1251 16.6263 15.0437 16.5663 14.9837C16.5063 14.9237 16.4249 14.89 16.34 14.89C16.2551 14.89 16.1737 14.9237 16.1137 14.9837C16.0537 15.0437 16.02 15.1251 16.02 15.21C15.82 15.5197 15.7037 15.8761 15.6827 16.2442C15.6617 16.6123 15.7365 16.9795 15.9 17.31C15.9 17.4055 15.9379 17.497 16.0054 17.5646C16.073 17.6321 16.1645 17.67 16.26 17.67C16.3555 17.67 16.447 17.6321 16.5146 17.5646C16.5821 17.497 16.62 17.4055 16.62 17.31Z" fill="black"/>
<path d="M19.19 17.43C19.2719 17.2013 19.3387 16.9674 19.39 16.73C19.4567 16.2808 19.3685 15.8224 19.14 15.43C19.1482 15.3839 19.1463 15.3366 19.1342 15.2914C19.1222 15.2462 19.1004 15.2041 19.0704 15.1683C19.0404 15.1324 19.0028 15.1035 18.9604 15.0837C18.918 15.0639 18.8718 15.0536 18.825 15.0536C18.7782 15.0536 18.732 15.0639 18.6896 15.0837C18.6472 15.1035 18.6096 15.1324 18.5796 15.1683C18.5496 15.2041 18.5278 15.2462 18.5157 15.2914C18.5037 15.3366 18.5018 15.3839 18.51 15.43C18.3957 15.6567 18.3052 15.8946 18.24 16.14C18.1988 16.5861 18.2782 17.0351 18.47 17.44C18.4707 17.4873 18.4806 17.534 18.4993 17.5774C18.518 17.6208 18.5451 17.6601 18.579 17.6931C18.6129 17.7261 18.6529 17.752 18.6968 17.7695C18.7408 17.787 18.7877 17.7957 18.835 17.795C18.8823 17.7943 18.929 17.7844 18.9724 17.7657C19.0158 17.747 19.0551 17.7199 19.0881 17.686C19.1211 17.6521 19.147 17.6121 19.1645 17.5681C19.182 17.5242 19.1907 17.4773 19.19 17.43Z" fill="black"/>
</g>
<defs>
<clipPath id="clip0_1035_4868">
<rect width="24" height="24" fill="white"/>
</clipPath>
</defs>
</svg>
