<svg width="24" height="24" viewBox="0 0 24 24" fill="none" xmlns="http://www.w3.org/2000/svg">
<g clip-path="url(#clip0_1035_4874)">
<path fill-rule="evenodd" clip-rule="evenodd" d="M16.25 8.36C17 8.28 17 7 16.16 7C15 7.08 15.48 8.47 16.25 8.36Z" fill="black"/>
<path fill-rule="evenodd" clip-rule="evenodd" d="M16.13 6.44C16.1629 6.44028 16.1955 6.4335 16.2255 6.42011C16.2556 6.40672 16.2824 6.38704 16.3042 6.3624C16.326 6.33775 16.3423 6.30872 16.3519 6.27725C16.3615 6.24579 16.3643 6.21262 16.36 6.18C16.41 5.78 16.49 5.41 16.54 5.01C16.5499 4.84014 16.5499 4.66985 16.54 4.5V4V2.8C16.5485 2.7272 16.5282 2.65395 16.4833 2.59599C16.4384 2.53803 16.3726 2.49997 16.3 2.49C16.2637 2.48438 16.2267 2.48621 16.1912 2.49538C16.1557 2.50455 16.1224 2.52086 16.0934 2.54332C16.0644 2.56578 16.0402 2.59392 16.0225 2.62601C16.0047 2.65811 15.9936 2.69349 15.99 2.73C15.8766 3.12506 15.7832 3.52557 15.71 3.93C15.672 4.10103 15.6485 4.27499 15.64 4.45C15.63 4.62652 15.63 4.80347 15.64 4.98C15.6818 5.39904 15.7587 5.81383 15.87 6.22C15.8711 6.25205 15.8789 6.28352 15.8929 6.31238C15.9069 6.34123 15.9268 6.36684 15.9513 6.38756C15.9758 6.40828 16.0043 6.42365 16.0351 6.43268C16.0659 6.44171 16.0982 6.4442 16.13 6.44Z" fill="black"/>
<path fill-rule="evenodd" clip-rule="evenodd" d="M4.14 7.89C5.06 7.79 5.95 7.73 6.83 7.64C7.12 7.64 7.41 7.58 7.7 7.55C7.99 7.52 8.28 7.46 8.58 7.43C8.88 7.4 9.3 7.43 9.68 7.43C9.71152 7.43394 9.7435 7.43163 9.77413 7.42321C9.80475 7.41479 9.83342 7.40042 9.85849 7.38092C9.88356 7.36142 9.90455 7.33717 9.92025 7.30956C9.93595 7.28195 9.94606 7.25152 9.95 7.22C9.95394 7.18848 9.95163 7.1565 9.94321 7.12587C9.93479 7.09525 9.92042 7.06658 9.90092 7.04151C9.88142 7.01644 9.85717 6.99545 9.82956 6.97975C9.80195 6.96405 9.77152 6.95394 9.74 6.95C8.97682 6.7697 8.19406 6.68571 7.41 6.7C6.93738 6.70748 6.46602 6.75094 6 6.83C5.34 6.96 4.69 7.17 4 7.35C3.96337 7.35477 3.92811 7.36701 3.8964 7.38596C3.86469 7.40491 3.83721 7.43016 3.81565 7.46015C3.79409 7.49015 3.77891 7.52425 3.77106 7.56034C3.76321 7.59644 3.76285 7.63376 3.77 7.67C3.77465 7.71144 3.78884 7.75124 3.81145 7.78628C3.83406 7.82132 3.86448 7.85064 3.90032 7.87195C3.93617 7.89327 3.97646 7.90599 4.01804 7.90912C4.05963 7.91225 4.10137 7.9057 4.14 7.89Z" fill="black"/>
<path fill-rule="evenodd" clip-rule="evenodd" d="M16.25 12C16.25 11.9363 16.2247 11.8753 16.1797 11.8303C16.1347 11.7853 16.0737 11.76 16.01 11.76C15.9445 11.7625 15.8823 11.7896 15.836 11.836C15.7896 11.8823 15.7625 11.9445 15.76 12.01C15.76 13.5 15.7 15.01 15.76 16.63V19.63C15.7409 20.5953 15.6507 21.5579 15.49 22.51C15.4579 22.4779 15.417 22.4561 15.3726 22.4472C15.3281 22.4383 15.282 22.4427 15.24 22.46C13.7373 22.9014 12.1759 23.1104 10.61 23.08C9.68 23.08 8.73 23.08 7.79 22.97C6.36764 22.8646 4.95217 22.681 3.55 22.42C3.5263 22.4098 3.50079 22.4046 3.475 22.4046C3.44921 22.4046 3.42369 22.4098 3.4 22.42C3.34975 22.1459 3.31967 21.8685 3.31 21.59V19.32V15.92C3.31 14.77 3.38 13.65 3.46 12.52C3.53946 11.0063 3.69633 9.49766 3.93 8C3.93891 7.96909 3.94123 7.93666 3.93682 7.90479C3.93241 7.87293 3.92137 7.84235 3.90441 7.81502C3.88745 7.78769 3.86494 7.76422 3.83834 7.74613C3.81174 7.72804 3.78165 7.71573 3.75 7.71C3.71913 7.70259 3.6871 7.70138 3.65576 7.70643C3.62442 7.71149 3.59439 7.72271 3.56742 7.73946C3.54045 7.7562 3.51707 7.77812 3.49863 7.80396C3.48019 7.8298 3.46706 7.85905 3.46 7.89C2.97332 9.7565 2.63889 11.6594 2.46 13.58C2.38 14.58 2.35 15.51 2.36 16.48C2.37 17.45 2.44 18.42 2.54 19.37C2.62 20.1 2.62 20.87 2.7 21.62C2.72574 21.9579 2.78265 22.2926 2.87 22.62C4.38388 23.2039 5.9615 23.6067 7.57 23.82C8.18333 23.9 8.79333 23.95 9.4 23.97C10.0162 24.0051 10.6338 24.0051 11.25 23.97C16.55 23.53 16.53 22.48 16.68 18.57C16.7249 17.6839 16.7249 16.7961 16.68 15.91C16.52 14.55 16.34 13.23 16.25 12Z" fill="black"/>
<path fill-rule="evenodd" clip-rule="evenodd" d="M10.31 19.05C10.2357 19.05 10.1645 19.0795 10.112 19.132C10.0595 19.1845 10.03 19.2557 10.03 19.33C10.03 19.4043 10.0595 19.4755 10.112 19.528C10.1645 19.5805 10.2357 19.61 10.31 19.61C10.8923 19.5944 11.4612 19.4311 11.9632 19.1355C12.4652 18.8399 12.8839 18.4217 13.18 17.92C13.7884 16.9374 14.0457 15.7777 13.91 14.63C13.7862 13.7534 13.4071 12.9326 12.82 12.27C12.1741 11.5301 11.3135 11.0101 10.3581 10.7824C9.40274 10.5548 8.40012 10.6308 7.49 11C6.48721 11.3826 5.6206 12.0543 5 12.93C4.41641 13.814 4.17797 14.8817 4.33 15.93C4.44515 16.7246 4.82999 17.4554 5.42 18C5.37097 18.0266 5.33225 18.0688 5.31 18.12C5.19167 18.3688 5.14224 18.6447 5.16686 18.9191C5.19149 19.1935 5.28926 19.4563 5.45 19.68C5.60143 19.8995 5.79523 20.0865 6.02 20.23C6.25366 20.3756 6.51659 20.4678 6.79 20.5C7.02896 20.521 7.26974 20.4973 7.5 20.43C7.8056 20.3419 8.0957 20.2069 8.36 20.03C8.3997 20.0069 8.43118 19.9719 8.45 19.93C8.49106 19.9165 8.52812 19.893 8.5578 19.8615C8.58748 19.8301 8.60886 19.7918 8.62 19.75L9.83 15.85C9.88 15.65 9.94 15.44 9.98 15.24C9.99471 15.0904 9.99471 14.9396 9.98 14.79V14.46C9.96825 14.3412 9.91441 14.2306 9.82821 14.1481C9.74202 14.0656 9.62915 14.0166 9.51 14.01C9.35333 14.0164 9.20276 14.0725 9.08 14.17C8.90075 14.3236 8.73359 14.4908 8.58 14.67L7 16.44L5.8 17.69C5.34022 17.1919 5.05883 16.5553 5 15.88C4.91388 14.9917 5.16362 14.1033 5.7 13.39C6.25097 12.6867 6.99444 12.1586 7.84 11.87C8.65708 11.5503 9.5566 11.5082 10.4 11.75C11.0849 11.9643 11.7019 12.3539 12.19 12.88C12.6991 13.3921 13.0468 14.0422 13.19 14.75C13.3397 15.7185 13.1563 16.7092 12.67 17.56C12.4421 17.9937 12.104 18.3597 11.6897 18.6213C11.2754 18.8829 10.7996 19.0307 10.31 19.05ZM7.44 17L9 15.65L8.14 19.55C7.94077 19.613 7.73677 19.6598 7.53 19.69C7.3233 19.7084 7.11501 19.6852 6.91747 19.6216C6.71992 19.5581 6.53716 19.4555 6.38 19.32C6.23826 19.2326 6.11021 19.1248 6 19C5.8666 18.8282 5.79287 18.6175 5.79 18.4L7.44 17Z" fill="black"/>
<path fill-rule="evenodd" clip-rule="evenodd" d="M21.39 9.47H13.32C12.9205 9.49759 12.5195 9.49759 12.12 9.47C11.9518 9.45374 11.7867 9.41332 11.63 9.35C11.56 9.35 11.49 9.35 11.47 9.24C11.4742 9.12454 11.505 9.0116 11.56 8.91C11.69 8.6 11.89 8.29 11.98 8.1L14.07 4.31C14.46 3.54 14.84 2.76 15.25 2C15.5 1.54 15.76 1.09 16.04 0.640001C17.0145 1.45257 17.846 2.42266 18.5 3.51C18.9289 4.20136 19.3195 4.91577 19.67 5.65C20.2122 6.75594 20.6572 7.90694 21 9.09C21.0236 9.14952 21.0669 9.19916 21.1226 9.23065C21.1783 9.26213 21.2432 9.27357 21.3063 9.26304C21.3695 9.25252 21.4271 9.22067 21.4696 9.17281C21.5122 9.12494 21.537 9.06395 21.54 9C21.3175 7.7817 20.9828 6.5866 20.54 5.43C20.3405 4.92951 20.11 4.4419 19.85 3.97C19.5987 3.48461 19.3147 3.01687 19 2.57C18.2373 1.53703 17.2791 0.663853 16.18 1.2815e-06C16.1359 -0.034876 16.0813 -0.0538483 16.025 -0.0538483C15.9687 -0.0538483 15.9141 -0.034876 15.87 1.2815e-06C15.8364 0.00427033 15.8039 0.015337 15.7747 0.0325282C15.7455 0.0497195 15.7201 0.0726759 15.7 0.100001C15.36 0.570001 15.05 1.1 14.75 1.57C14.3 2.31 13.87 3.06 13.43 3.8C12.99 4.54 12.33 5.51 11.8 6.37C11.5667 6.75 11.3467 7.14 11.14 7.54C10.9474 7.86134 10.777 8.19545 10.63 8.54C10.5504 8.76423 10.5263 9.00444 10.56 9.24C10.6095 9.4463 10.7151 9.63489 10.8651 9.7849C11.0151 9.93492 11.2037 10.0405 11.41 10.09C12.0454 10.2373 12.7 10.2845 13.35 10.23L21.35 9.91C21.4225 9.90741 21.4912 9.87677 21.5416 9.82454C21.5919 9.77231 21.62 9.70256 21.62 9.63C21.6 9.58484 21.5679 9.54604 21.5274 9.51783C21.4868 9.48962 21.4393 9.47308 21.39 9.47Z" fill="black"/>
</g>
<defs>
<clipPath id="clip0_1035_4874">
<rect width="24" height="24" fill="white"/>
</clipPath>
</defs>
</svg>
