<svg width="24" height="24" viewBox="0 0 24 24" fill="none" xmlns="http://www.w3.org/2000/svg">
<g clip-path="url(#clip0_1030_2151)">
<path fill-rule="evenodd" clip-rule="evenodd" d="M9.74 18.28C9.33149 18.1904 8.93035 18.0701 8.54 17.92C8.15761 17.7771 7.79208 17.5927 7.45 17.37C6.85524 16.9928 6.36195 16.4757 6.01329 15.8638C5.66464 15.2519 5.47123 14.5639 5.45 13.86C5.4029 12.4422 5.84418 11.0513 6.7 9.91996C7.24597 9.16157 7.95283 8.53325 8.77 8.07996C9.5973 7.6417 10.5064 7.37953 11.44 7.30996C12.6809 7.23827 13.915 7.53882 14.984 8.1731C16.053 8.80737 16.9082 9.74645 17.44 10.87C17.7571 11.401 17.9633 11.9907 18.0462 12.6035C18.1292 13.2164 18.0872 13.8397 17.9227 14.4359C17.7583 15.0321 17.4748 15.5888 17.0893 16.0724C16.7039 16.5561 16.2245 16.9566 15.68 17.25C15.6349 17.2758 15.5954 17.3104 15.5639 17.3517C15.5323 17.393 15.5094 17.4402 15.4963 17.4905C15.4833 17.5408 15.4804 17.5932 15.4879 17.6446C15.4954 17.6961 15.5131 17.7455 15.54 17.79C15.5649 17.8347 15.5985 17.874 15.6389 17.9054C15.6793 17.9369 15.7257 17.9598 15.7752 17.9729C15.8247 17.986 15.8763 17.9889 15.927 17.9815C15.9776 17.9741 16.0263 17.9566 16.07 17.93C19.28 16.17 19.65 13.02 18.44 10.39C17.8328 9.05127 16.8456 7.92053 15.6011 7.13826C14.3565 6.35599 12.9096 5.95668 11.44 5.98996C10.314 6.06398 9.21807 6.3849 8.23 6.92996C7.00799 7.61954 6.01026 8.64625 5.35594 9.8875C4.70162 11.1287 4.41837 12.5321 4.54 13.93C4.58826 14.7653 4.83701 15.5768 5.26521 16.2956C5.6934 17.0145 6.28845 17.6197 7 18.06C7.39903 18.2906 7.82139 18.4784 8.26 18.62C8.68415 18.7659 9.11872 18.8795 9.56 18.96C9.65274 18.9777 9.74874 18.9583 9.8273 18.9059C9.90586 18.8535 9.9607 18.7724 9.98 18.68C9.99616 18.5954 9.98063 18.5079 9.93635 18.4341C9.89208 18.3604 9.82218 18.3055 9.74 18.28Z" fill="black"/>
<path fill-rule="evenodd" clip-rule="evenodd" d="M11.9 16.8C12.3523 16.711 12.774 16.5069 13.1243 16.2073C13.4746 15.9078 13.7418 15.5229 13.9 15.09C13.9259 15.045 13.9423 14.9953 13.9483 14.9437C13.9542 14.8922 13.9495 14.84 13.9345 14.7904C13.9196 14.7407 13.8946 14.6947 13.8611 14.655C13.8276 14.6154 13.7864 14.5831 13.74 14.56C13.695 14.5341 13.6453 14.5176 13.5938 14.5117C13.5422 14.5057 13.4901 14.5104 13.4404 14.5254C13.3907 14.5404 13.3447 14.5654 13.3051 14.5988C13.2654 14.6323 13.2331 14.6735 13.21 14.72C13.0152 15.0174 12.7359 15.2497 12.408 15.3869C12.08 15.5241 11.7185 15.56 11.37 15.49C11.1644 15.466 10.9627 15.4156 10.77 15.34C10.252 15.1749 9.80459 14.8403 9.49998 14.39C9.48353 14.3416 9.45641 14.2976 9.42062 14.2612C9.38484 14.2248 9.34132 14.1969 9.29329 14.1796C9.24527 14.1624 9.19396 14.1561 9.14318 14.1613C9.09241 14.1666 9.04346 14.1832 8.99998 14.21C8.91524 14.2472 8.84872 14.3166 8.81499 14.4028C8.78125 14.489 8.78305 14.5851 8.81998 14.67C9.02822 15.4207 9.50979 16.0663 10.17 16.48C10.4764 16.6591 10.8171 16.7716 11.17 16.81C11.4124 16.8437 11.6586 16.8403 11.9 16.8Z" fill="black"/>
<path fill-rule="evenodd" clip-rule="evenodd" d="M23.89 12.44C23.8277 12.1748 23.7302 11.9192 23.6 11.68C23.3638 11.2597 23.0426 10.8933 22.657 10.604C22.2713 10.3148 21.8296 10.109 21.36 9.99998C21.2835 9.41183 21.1632 8.83021 21 8.25998C20.6293 6.98062 19.9835 5.79774 19.1077 4.79414C18.2319 3.79054 17.1474 2.99049 15.93 2.44998C14.6424 1.96334 13.2693 1.74343 11.8941 1.80359C10.5189 1.86376 9.17021 2.20275 7.93 2.79998C6.6545 3.32205 5.52684 4.14958 4.64625 5.20978C3.76566 6.26997 3.15912 7.53034 2.88 8.87998C2.88 9.11998 2.88 9.35998 2.82 9.59998C2.31111 9.69489 1.82982 9.90213 1.41117 10.2066C0.992523 10.5111 0.647075 10.9051 0.399996 11.36C0.269829 11.5992 0.172295 11.8548 0.109996 12.12C-0.053918 12.6748 -0.053918 13.2652 0.109996 13.82C0.258903 14.2381 0.509699 14.6125 0.839698 14.9093C1.1697 15.2062 1.56849 15.416 2 15.52C2.1988 15.5824 2.40303 15.6259 2.61 15.65C2.81284 15.6699 3.01715 15.6699 3.22 15.65C3.31155 15.6468 3.39923 15.6123 3.4684 15.5522C3.53757 15.4922 3.58402 15.4102 3.6 15.32C3.64056 15.3395 3.68499 15.3496 3.73 15.3496C3.775 15.3496 3.81943 15.3395 3.86 15.32C3.92121 15.2924 3.97287 15.2472 4.00847 15.1903C4.04406 15.1333 4.06199 15.0671 4.06 15C3.82581 14.0148 3.67858 13.0109 3.62 12C3.56428 11.0117 3.63485 10.0204 3.83 9.04998C4.14388 7.89885 4.72895 6.83965 5.53622 5.96104C6.34349 5.08243 7.34949 4.40999 8.47 3.99998C9.55542 3.47967 10.7342 3.18237 11.9366 3.12569C13.1389 3.06901 14.3404 3.25409 15.47 3.66998C16.5332 4.11805 17.4879 4.78917 18.2694 5.63796C19.0509 6.48676 19.6411 7.49345 20 8.58998C20.757 10.8738 20.6897 13.3506 19.81 15.59C19.7906 15.6379 19.7809 15.6891 19.7814 15.7408C19.782 15.7925 19.7928 15.8436 19.8133 15.891C19.8338 15.9385 19.8635 15.9814 19.9007 16.0172C19.9379 16.0531 19.9818 16.0812 20.03 16.1C20.0918 16.1199 20.1582 16.1199 20.22 16.1C19.9421 16.6817 19.6071 17.2344 19.22 17.75C18.8504 18.2511 18.4167 18.7016 17.93 19.09C17.1817 19.7637 16.2166 20.1468 15.21 20.17C15.1655 20.0893 15.0939 20.027 15.0079 19.994C14.9219 19.9611 14.827 19.9596 14.74 19.99C14.642 20.0299 14.5638 20.1071 14.5226 20.2045C14.4814 20.302 14.4804 20.4118 14.52 20.51C14.52 20.64 14.52 20.73 14.39 20.82C14.23 20.9418 14.0399 21.0178 13.84 21.04C13.5608 21.0932 13.2729 21.0795 13 21C12.7232 20.9322 12.4641 20.8061 12.24 20.63C12.07 20.51 11.94 20.43 12 20.31C12.0752 20.1641 12.1941 20.0452 12.34 19.97L13.02 19.75C13.2118 19.7185 13.4057 19.7018 13.6 19.7H14.22C14.3088 19.7144 14.3998 19.6931 14.4729 19.6406C14.546 19.5881 14.5953 19.5088 14.61 19.42C14.6187 19.3747 14.6183 19.3281 14.6089 19.2829C14.5995 19.2377 14.5813 19.1948 14.5553 19.1567C14.5293 19.1186 14.496 19.0861 14.4573 19.0609C14.4186 19.0357 14.3754 19.0184 14.33 19.01L13 18.79C12.8303 18.775 12.6597 18.775 12.49 18.79C12.3102 18.8039 12.1325 18.8374 11.96 18.89C11.6766 18.9608 11.4158 19.1026 11.2024 19.302C10.9889 19.5015 10.8298 19.752 10.74 20.03C10.6743 20.3465 10.7105 20.6756 10.8435 20.9703C10.9764 21.2649 11.1992 21.5098 11.48 21.67C11.8803 21.9342 12.3348 22.1051 12.81 22.17C13.2638 22.2159 13.7221 22.1578 14.15 22C14.5595 21.8457 14.9096 21.5656 15.15 21.2C15.1937 21.1072 15.2272 21.01 15.25 20.91C16.2865 21.0479 17.3396 20.8442 18.25 20.33C19.0788 19.848 19.768 19.1588 20.25 18.33C20.6873 17.6125 20.9953 16.8239 21.16 16H21.44C21.6464 15.9676 21.8502 15.9208 22.05 15.86C22.4668 15.7444 22.8494 15.5293 23.1646 15.2332C23.4799 14.9371 23.7186 14.5688 23.86 14.16C24.0413 13.6025 24.0517 13.0035 23.89 12.44ZM2.73 14.8C2.58665 14.752 2.44638 14.6952 2.31 14.63C2.07624 14.5159 1.87123 14.3505 1.71021 14.1462C1.5492 13.9419 1.43633 13.7039 1.38 13.45C1.31292 13.12 1.31292 12.7799 1.38 12.45C1.4495 12.0397 1.60591 11.6489 1.83874 11.304C2.07157 10.9591 2.37545 10.6679 2.73 10.45C2.72005 10.9973 2.74008 11.5448 2.79 12.09C2.88996 13.0747 3.07736 14.0485 3.35 15C3.29 15 3.25 14.93 3.18 14.93L2.73 14.8ZM21.73 14.94C20.22 15.67 21.63 14 21.46 10.82C22.0917 11.2805 22.5186 11.9694 22.65 12.74C22.7157 13.0701 22.7157 13.4099 22.65 13.74C22.594 14.0007 22.4781 14.2449 22.3115 14.4532C22.1449 14.6614 21.9321 14.8281 21.69 14.94H21.73Z" fill="black"/>
<path fill-rule="evenodd" clip-rule="evenodd" d="M8.82999 10.51C8.64913 10.5049 8.46905 10.5355 8.29999 10.6C7.92017 10.7493 7.57852 10.9817 7.29999 11.28C7.22213 11.3294 7.16689 11.4075 7.1463 11.4974C7.1257 11.5872 7.1414 11.6816 7.18999 11.76C7.32999 12.01 9.18999 11.76 9.54999 11.76C9.70945 11.7663 9.86743 11.7931 10.02 11.84C10.1108 11.893 10.2186 11.9091 10.321 11.8849C10.4233 11.8607 10.5125 11.7981 10.57 11.71C10.6225 11.6207 10.6382 11.5145 10.614 11.4137C10.5897 11.313 10.5274 11.2256 10.44 11.17C10.1408 10.8719 9.76827 10.658 9.35999 10.55C9.18688 10.5066 9.00765 10.4931 8.82999 10.51Z" fill="black"/>
<path fill-rule="evenodd" clip-rule="evenodd" d="M16.08 11.76C16.1277 11.6804 16.1419 11.5852 16.1194 11.4952C16.0969 11.4052 16.0395 11.3278 15.96 11.28C15.6843 10.9785 15.3418 10.7456 14.96 10.6C14.7909 10.5356 14.6109 10.505 14.43 10.51C14.2479 10.4997 14.0654 10.5199 13.89 10.57C13.4826 10.6802 13.1106 10.8938 12.81 11.19C12.7243 11.2472 12.664 11.3353 12.6416 11.4359C12.6193 11.5365 12.6366 11.6419 12.69 11.73C12.7458 11.8201 12.835 11.8844 12.9381 11.9088C13.0412 11.9331 13.1498 11.9156 13.24 11.86C13.3926 11.8132 13.5505 11.7863 13.71 11.78C14.84 11.69 15.87 12.12 16.08 11.76Z" fill="black"/>
</g>
<defs>
<clipPath id="clip0_1030_2151">
<rect width="24" height="24" fill="white"/>
</clipPath>
</defs>
</svg>
