<svg width="24" height="24" viewBox="0 0 24 24" fill="none" xmlns="http://www.w3.org/2000/svg">
<g clip-path="url(#clip0_1030_2170)">
<path fill-rule="evenodd" clip-rule="evenodd" d="M1.60999 9C2.22569 9.25014 2.90474 9.29915 3.54999 9.14C3.85311 9.05074 4.13077 8.89092 4.36022 8.67364C4.58966 8.45637 4.76436 8.18781 4.86999 7.89C5.0122 7.49461 5.05646 7.07064 4.99899 6.6544C4.94152 6.23816 4.78402 5.84205 4.53999 5.5C4.21124 5.07621 3.73083 4.79658 3.19999 4.72C2.64211 4.6194 2.06666 4.70245 1.55999 4.95668C1.05333 5.21091 0.642787 5.62262 0.389985 6.13C0.229471 6.7552 0.293163 7.41689 0.569985 8C0.780159 8.45112 1.15097 8.80767 1.60999 9ZM1.15999 6.35C1.29471 5.99624 1.56332 5.70976 1.90767 5.55255C2.25203 5.39535 2.64444 5.38006 2.99999 5.51C3.30635 5.5709 3.57806 5.74609 3.75999 6C3.96728 6.37151 4.02111 6.80934 3.90999 7.22C3.88026 7.39734 3.80328 7.56339 3.68713 7.70065C3.57098 7.83792 3.41996 7.94133 3.24999 8C2.92156 8.08092 2.57841 8.08092 2.24999 8C2.09835 7.97633 1.95299 7.92255 1.82247 7.84183C1.69194 7.76111 1.5789 7.65509 1.48999 7.53C1.23354 7.19314 1.11549 6.77102 1.15999 6.35Z" fill="black"/>
<path fill-rule="evenodd" clip-rule="evenodd" d="M19 4.81C18.9217 4.87824 18.8482 4.95175 18.78 5.03C18.4503 5.3988 18.1463 5.78972 17.87 6.2L17.28 7.1C17.28 7.1 17.03 7.31 17 7.41C16.633 7.20691 16.2339 7.06823 15.82 7C14.937 6.84933 14.0294 6.94617 13.1981 7.27978C12.3667 7.61338 11.644 8.17073 11.11 8.89L11 8.83L9.8 8.21C9.329 8.05398 8.84787 7.93036 8.36 7.84C7.87251 7.77659 7.38158 7.7432 6.89 7.74L6.14 7.54C6.04982 7.54 5.96334 7.57583 5.89958 7.63959C5.83582 7.70335 5.8 7.78983 5.8 7.88C5.80155 7.96569 5.83362 8.04802 5.89045 8.11218C5.94727 8.17633 6.02512 8.21811 6.11 8.23C6.11 8.32 6.32 8.38 6.46 8.45C6.5576 8.5059 6.66172 8.54956 6.77 8.58C7.24 8.69 7.68 8.85 8.14 8.96C8.6 9.07 9.05 9.13 9.52 9.24L10.69 9.49H10.8V9.57C10.4939 10.714 10.6037 11.9295 11.11 13C11.2558 13.2875 11.441 13.5534 11.66 13.79L12.19 14.26C12.4035 14.4145 12.6312 14.5484 12.87 14.66C13.3987 14.8738 13.9602 14.9956 14.53 15.02H15.31C15.6476 14.9925 15.9822 14.9357 16.31 14.85C16.9885 14.6381 17.5831 14.2183 18.01 13.65C18.12 13.77 18.3 14.01 18.57 14.31C18.6453 14.404 18.729 14.491 18.82 14.57C18.96 14.69 19.1 14.8 19.24 14.9C20.14 15.14 20.24 14.73 20.18 14.2L20 14C19.8694 13.8785 19.7289 13.7681 19.58 13.67L19.25 13.49C18.88 13.3 18.58 13.18 18.43 13.12C18.6149 12.7672 18.7496 12.3902 18.83 12C19.0881 10.7566 18.8513 9.46163 18.17 8.39C18.0195 8.16825 17.8376 7.96951 17.63 7.8L17.85 7.62L18.78 6.83C19.06 6.48 19.39 6.14 19.69 5.77C19.79 5.66 19.88 5.54 19.97 5.42C20.24 4.44 20 4.18 19 4.81ZM14.45 15.66V16.09V16.73C14.45 16.94 14.54 17.35 14.59 17.66C14.64 17.97 15.54 18.21 15.59 17.75C15.64 17.29 15.59 17.03 15.59 16.67C15.5849 16.4489 15.5648 16.2284 15.53 16.01C15.5028 15.8611 15.466 15.7142 15.42 15.57C15.28 15.17 14.54 15.26 14.45 15.66ZM10.79 14.37L10.49 14.56C10.03 14.84 9.57 15.1 9.12 15.4C8.67 15.7 8.24 16 7.82 16.32C7 17 6.16 17.68 5.37 18.39L5.12 18.61C4.2 19.61 4.44 19.78 5.61 19.34L6 19.1C6.51 18.72 7 18.37 7.55 18C8.1 17.63 8.55 17.26 9.07 16.88C9.74 16.36 10.38 15.82 11.07 15.3L11.4 15.03C11.67 14.37 11.49 14.16 10.79 14.37ZM17.72 11.77C17.6388 12.2269 17.4363 12.6535 17.1337 13.0054C16.8311 13.3572 16.4396 13.6213 16 13.77C15.2528 13.9675 14.4672 13.9675 13.72 13.77C13.3657 13.7039 13.0293 13.5637 12.7329 13.3587C12.4365 13.1536 12.1868 12.8883 12 12.58C11.5184 11.7494 11.3516 10.7734 11.53 9.83C12 7.96 14.21 7.45 15.64 7.83C15.9827 7.88946 16.3095 8.01866 16.6002 8.20959C16.8909 8.40053 17.1393 8.64914 17.33 8.94C17.8039 9.80317 17.9428 10.8108 17.72 11.77Z" fill="black"/>
<path fill-rule="evenodd" clip-rule="evenodd" d="M14.7 18.29C14.3646 18.2544 14.0255 18.2816 13.7 18.37C13.3539 18.441 13.0328 18.6023 12.7693 18.8377C12.5058 19.0731 12.3094 19.3741 12.2 19.71C12.0353 20.388 12.1354 21.1033 12.48 21.71C12.7272 22.1342 13.117 22.4567 13.58 22.62C14.201 22.8197 14.869 22.8197 15.49 22.62C15.9007 22.4944 16.2544 22.229 16.49 21.87C16.6861 21.5312 16.7991 21.1509 16.82 20.76C16.8227 20.714 16.8163 20.668 16.8012 20.6245C16.786 20.581 16.7625 20.5409 16.7318 20.5065C16.7012 20.4721 16.664 20.4441 16.6225 20.4242C16.581 20.4042 16.536 20.3926 16.49 20.39C16.4445 20.3859 16.3987 20.391 16.3553 20.405C16.3118 20.419 16.2716 20.4416 16.2371 20.4715C16.2026 20.5013 16.1744 20.5378 16.1543 20.5788C16.1342 20.6198 16.1225 20.6644 16.12 20.71C16.0916 20.9661 15.991 21.2089 15.83 21.41C15.6843 21.5849 15.4832 21.7049 15.26 21.75C14.9013 21.806 14.5343 21.7751 14.19 21.66C14.0455 21.6219 13.9104 21.5543 13.7933 21.4614C13.6763 21.3684 13.5798 21.2522 13.51 21.12C13.3156 20.7921 13.2447 20.4056 13.31 20.03C13.3603 19.8572 13.4523 19.6993 13.5778 19.5703C13.7033 19.4413 13.8586 19.345 14.03 19.29C14.3417 19.1438 14.6892 19.0917 15.03 19.14C15.3622 19.164 15.6715 19.3186 15.89 19.57C15.9399 19.6248 16.0079 19.6599 16.0814 19.6689C16.155 19.6779 16.2294 19.6603 16.2911 19.6191C16.3528 19.578 16.3977 19.5161 16.4177 19.4448C16.4377 19.3734 16.4314 19.2972 16.4 19.23C16.2052 18.9055 15.9105 18.6529 15.56 18.51L14.7 18.29Z" fill="black"/>
<path fill-rule="evenodd" clip-rule="evenodd" d="M23.33 0.810004C23.009 0.377182 22.5318 0.0865971 22 3.73274e-06C21.4431 -0.103089 20.8678 -0.0222657 20.361 0.230278C19.8541 0.482822 19.4431 0.893382 19.19 1.4C19.0211 2.0288 19.0887 2.69771 19.38 3.28C19.5142 3.55373 19.7091 3.79316 19.95 3.98L20.73 4.35C21.2617 4.48377 21.8183 4.48377 22.35 4.35C22.641 4.26962 22.91 4.1244 23.1369 3.92523C23.3637 3.72607 23.5426 3.47813 23.66 3.2C23.8022 2.80461 23.8465 2.38065 23.789 1.96441C23.7315 1.54817 23.574 1.15206 23.33 0.810004ZM22.7 2.55C22.671 2.72305 22.5936 2.88436 22.4768 3.0153C22.36 3.14624 22.2086 3.24148 22.04 3.29C21.711 3.36606 21.369 3.36606 21.04 3.29C20.8884 3.26634 20.743 3.21256 20.6125 3.13184C20.4819 3.05112 20.3689 2.94509 20.28 2.82C19.42 1.53 20.42 0.440004 21.85 0.820004C22.1502 0.88912 22.4118 1.07193 22.58 1.33C22.7732 1.70675 22.8161 2.14283 22.7 2.55Z" fill="black"/>
<path fill-rule="evenodd" clip-rule="evenodd" d="M4.38 20.32L3.86 19.83C3.59696 19.6702 3.30452 19.5648 3 19.52C2.44343 19.4184 1.8689 19.5011 1.36358 19.7555C0.858266 20.01 0.449742 20.4223 0.199995 20.93C0.0330709 21.5576 0.108022 22.2251 0.409995 22.8C0.604798 23.2479 0.962144 23.6052 1.41 23.8C2.04429 24.0604 2.74561 24.1095 3.41 23.94C3.71179 23.8551 3.9894 23.7005 4.22043 23.4886C4.45146 23.2766 4.62944 23.0134 4.74 22.72C4.88056 22.321 4.92125 21.8936 4.85849 21.4752C4.79573 21.0569 4.63145 20.6602 4.38 20.32ZM3.74 22C3.71021 22.1743 3.63136 22.3365 3.5127 22.4675C3.39403 22.5986 3.24046 22.6931 3.07 22.74C2.74121 22.8179 2.39878 22.8179 2.07 22.74C1.91784 22.718 1.77184 22.665 1.64109 22.5841C1.51034 22.5032 1.39764 22.3963 1.31 22.27C1.0744 21.9428 0.964366 21.5417 0.999995 21.14C1.06297 20.96 1.16207 20.7947 1.29121 20.6544C1.42034 20.514 1.57679 20.4015 1.75096 20.3238C1.92513 20.2461 2.11335 20.2048 2.30405 20.2024C2.49476 20.2 2.68395 20.2366 2.86 20.31C3.15973 20.3801 3.42108 20.5627 3.59 20.82C3.78781 21.1801 3.84143 21.6019 3.74 22Z" fill="black"/>
<path fill-rule="evenodd" clip-rule="evenodd" d="M23.49 14.73C23.2773 14.4602 22.9824 14.2671 22.65 14.18C22.3008 14.1004 21.9377 14.1042 21.5903 14.1911C21.2428 14.2779 20.9207 14.4454 20.65 14.68L20.24 15.44C20.1698 15.8657 20.2218 16.3027 20.39 16.7C20.5582 17.0484 20.8455 17.3251 21.2 17.48C21.6848 17.6794 22.22 17.7214 22.73 17.6C22.9744 17.5314 23.1984 17.4046 23.3831 17.2304C23.5677 17.0563 23.7073 16.84 23.79 16.6C23.8941 16.2872 23.9211 15.9538 23.8689 15.6283C23.8167 15.3028 23.6867 14.9946 23.49 14.73ZM22.77 16.05C22.7529 16.1488 22.7081 16.2407 22.6408 16.315C22.5736 16.3894 22.4866 16.4431 22.39 16.47C22.1696 16.5209 21.9404 16.5209 21.72 16.47C21.6278 16.462 21.5383 16.4348 21.4574 16.39C21.3764 16.3452 21.3057 16.2839 21.25 16.21C21.1605 16.1046 21.0938 15.9817 21.0543 15.8491C21.0147 15.7166 21.003 15.5773 21.02 15.44C21.12 14.91 21.73 14.76 22.25 14.91C22.4401 14.9567 22.6049 15.0749 22.71 15.24C22.7761 15.3633 22.8156 15.4991 22.8259 15.6386C22.8363 15.7782 22.8172 15.9183 22.77 16.05Z" fill="black"/>
</g>
<defs>
<clipPath id="clip0_1030_2170">
<rect width="24" height="24" fill="white"/>
</clipPath>
</defs>
</svg>
