<svg width="24" height="24" viewBox="0 0 24 24" fill="none" xmlns="http://www.w3.org/2000/svg">
<g clip-path="url(#clip0_1044_5295)">
<path fill-rule="evenodd" clip-rule="evenodd" d="M12.63 5.51001C12.8381 5.23802 12.9848 4.92415 13.06 4.59001C13.78 1.05001 8.93 -0.999989 7 2.00001C6.57561 1.66566 6.06156 1.46474 5.52292 1.42271C4.98428 1.38067 4.44528 1.49941 3.97416 1.76388C3.50304 2.02835 3.12098 2.42666 2.87637 2.90839C2.63175 3.39011 2.53557 3.93359 2.6 4.47001C0.6 4.47001 -0.919999 6.34001 0.600001 8.75001C0.911169 9.08566 1.28481 9.3574 1.7 9.55001C2.41 9.88001 2.77 9.55001 2.61 9.20001C2.45 8.85001 2.39 9.27001 1.61 8.72001C1.46563 8.62412 1.33158 8.51353 1.21 8.39001C0.944105 8.06812 0.781761 7.67335 0.744283 7.25752C0.706805 6.8417 0.795945 6.42426 1 6.06001C1.16497 5.85042 1.37423 5.67989 1.6128 5.56061C1.85136 5.44132 2.11335 5.37624 2.38 5.37001H2.78C2.86 5.37001 3.03 5.51001 3.07 5.53001C3.17276 5.57939 3.28997 5.58974 3.39979 5.55912C3.50961 5.52851 3.60456 5.45902 3.66695 5.3636C3.72934 5.26817 3.75492 5.15332 3.73893 5.04044C3.72293 4.92756 3.66645 4.82434 3.58 4.75001C3.53 4.75001 3.58 4.65001 3.53 4.59001C3.45299 4.24647 3.48453 3.8875 3.62028 3.56266C3.75603 3.23781 3.98928 2.96313 4.28783 2.77654C4.58638 2.58994 4.9355 2.50064 5.28698 2.52097C5.63845 2.5413 5.97495 2.67025 6.25 2.89001C6.39 3.05389 6.49544 3.24437 6.56 3.45001C6.60519 3.5589 6.68145 3.65206 6.77927 3.71786C6.87708 3.78366 6.99211 3.81919 7.11 3.82001C7.9 3.82001 7.57 2.69001 8.58 2.04001C8.94843 1.83927 9.36565 1.74555 9.78454 1.76943C10.2034 1.79331 10.6073 1.93383 10.9505 2.17514C11.2938 2.41644 11.5627 2.74891 11.7269 3.13499C11.8912 3.52107 11.9442 3.94538 11.88 4.36001C11.732 4.70968 11.5512 5.04451 11.34 5.36001L11.15 5.58001C11.0651 5.63479 10.9957 5.71045 10.9484 5.79975C10.9011 5.88905 10.8776 5.989 10.88 6.09001C10.88 6.22001 11.27 6.85001 11.75 6.59001H11.88C12.68 6.48001 13.5 7.93001 12.57 8.59001C10.42 10.07 8.85 9.59001 5.94 9.48001C5.1714 9.49136 4.40469 9.40057 3.66 9.21001C3.57513 9.1636 3.4753 9.1528 3.38247 9.17999C3.28964 9.20719 3.21141 9.27014 3.165 9.35501C3.11859 9.43988 3.10779 9.53971 3.13498 9.63254C3.16218 9.72537 3.22513 9.8036 3.31 9.85001C4.14476 10.131 5.01922 10.2762 5.9 10.28C8.9 10.49 10.65 11.05 13.14 9.45001C13.4792 9.21774 13.7475 8.89625 13.9154 8.52104C14.0834 8.14583 14.1443 7.73151 14.0915 7.32384C14.0388 6.91616 13.8743 6.53101 13.6164 6.21092C13.3585 5.89084 13.0171 5.64827 12.63 5.51001Z" fill="black"/>
<path fill-rule="evenodd" clip-rule="evenodd" d="M23.35 18.08C22.6733 17.0515 21.9034 16.0874 21.05 15.2C20.1495 14.3313 19.1759 13.5417 18.14 12.84C17.8951 12.681 17.6124 12.5898 17.3208 12.5758C17.0292 12.5617 16.739 12.6253 16.48 12.76C15.1019 14.0821 13.8405 15.5208 12.71 17.06C12 17.99 11.27 18.71 11.36 19.16C11.3689 19.2242 11.396 19.2846 11.4381 19.3339C11.4802 19.3832 11.5355 19.4194 11.5975 19.4384C11.6596 19.4573 11.7257 19.4581 11.7881 19.4407C11.8506 19.4232 11.9067 19.3883 11.95 19.34C12.09 19.2 11.47 19.97 13.26 17.7C13.49 20.7 12.26 22.63 14.42 23.08C14.8883 23.1931 15.3683 23.2502 15.85 23.25C17.08 23.06 16.16 20.53 17.24 20.42C17.98 20.33 17.96 22.42 18.08 22.81C18.1071 22.9132 18.156 23.0093 18.2232 23.0921C18.2905 23.1749 18.3746 23.2423 18.47 23.29C19.06 23.57 21.32 23.54 21.82 23.02C22.32 22.5 22.16 21.88 22.21 17.95C22.84 18.69 23.38 19.54 23.79 19.33C23.8547 19.3033 23.9096 19.2573 23.9472 19.1982C23.9848 19.1392 24.0032 19.07 24 19C24 18.57 23.4 18.17 23.35 18.08ZM21.15 22.28C20.8271 22.3817 20.4873 22.4191 20.15 22.39C19.8669 22.4069 19.5831 22.4069 19.3 22.39C19.2823 22.228 19.2522 22.0675 19.21 21.91C19 20.43 18.55 19 17.11 19.2C15.87 19.34 15.52 20.2 15.46 21.42V22C15.1803 21.9814 14.8997 21.9814 14.62 22C13.62 21.87 14.13 20.84 14.09 19.54C14.0961 18.7111 14.019 17.8836 13.86 17.07C14.63 16.26 15.46 15.38 16.43 14.48C17.21 13.72 17 13.41 18.31 14.38C19.4819 15.1435 20.5565 16.0468 21.51 17.07C21.48 17.19 21.31 22 21.15 22.28Z" fill="black"/>
<path fill-rule="evenodd" clip-rule="evenodd" d="M7.38999 20.36C6.79524 20.2948 6.22084 20.1053 5.70403 19.8038C5.18721 19.5023 4.73953 19.0956 4.38999 18.61C4.01999 17.92 4.11999 17.5 4.38999 13.82C4.80229 14.3257 5.26836 14.7851 5.77999 15.19C5.85999 15.27 6.52999 15.95 6.77999 15.95C7.02999 15.95 7.30999 15.59 6.96999 15.15C6.4924 14.7265 6.05703 14.2576 5.66999 13.75C5.17999 13.12 4.98999 12.52 4.59999 12.29C3.86999 11.87 3.01999 12.62 2.54999 13.29C2.07999 13.96 1.62999 14.29 1.28999 14.7C1.21999 14.78 0.349989 15.8 0.289989 15.91C0.2753 15.9596 0.272862 16.0121 0.282886 16.0628C0.29291 16.1136 0.315095 16.1612 0.347541 16.2015C0.379987 16.2418 0.421725 16.2736 0.469177 16.2943C0.516628 16.3149 0.568378 16.3237 0.619989 16.32C1.06208 16.0282 1.47411 15.6932 1.84999 15.32C2.41505 14.924 2.94682 14.4826 3.43999 14C3.30999 14.87 2.92999 17.42 2.92999 17.49C2.89716 18.0731 3.01421 18.6549 3.26999 19.18C4.40999 21.33 7.81999 21.43 8.66999 20.94C10.26 20 7.46999 20.37 7.38999 20.36Z" fill="black"/>
</g>
<defs>
<clipPath id="clip0_1044_5295">
<rect width="24" height="24" fill="white"/>
</clipPath>
</defs>
</svg>
