<svg width="24" height="24" viewBox="0 0 24 24" fill="none" xmlns="http://www.w3.org/2000/svg">
<g clip-path="url(#clip0_1051_8634)">
<path fill-rule="evenodd" clip-rule="evenodd" d="M15.81 19.4C15.5867 19.2442 15.349 19.1103 15.1 19C13.57 18.4 13.72 18.85 14.48 18.26C16.91 16.4 16.59 11.82 13.37 11.19C13.2825 11.1722 13.1916 11.1895 13.1167 11.2381C13.0419 11.2868 12.9892 11.3629 12.97 11.45C12.84 12.05 13.76 11.66 14.64 12.78C16.02 14.56 14.98 18.88 10.5 17.84C7.05 17.14 7.5 11.07 12.21 11.38C12.2519 11.3909 12.2956 11.3926 12.3382 11.385C12.3807 11.3774 12.4211 11.3606 12.4566 11.3359C12.4921 11.3112 12.5219 11.2791 12.5438 11.2419C12.5658 11.2046 12.5794 11.163 12.5838 11.12C12.5882 11.077 12.5832 11.0335 12.5692 10.9926C12.5552 10.9517 12.5325 10.9143 12.5027 10.8829C12.4729 10.8516 12.4367 10.8271 12.3965 10.811C12.3564 10.795 12.3132 10.7878 12.27 10.79C11.2793 10.604 10.2547 10.7771 9.38006 11.2781C8.50539 11.7792 7.83784 12.5754 7.49713 13.5241C7.15642 14.4728 7.16484 15.5118 7.52089 16.4549C7.87694 17.3979 8.55732 18.1833 9.44 18.67C7.25 19.56 5.44 21.34 5.77 23.67C5.77 23.7496 5.80161 23.8259 5.85787 23.8822C5.91413 23.9384 5.99044 23.97 6.07 23.97C6.14957 23.97 6.22587 23.9384 6.28213 23.8822C6.33839 23.8259 6.37 23.7496 6.37 23.67C6.46396 22.9994 6.74464 22.3687 7.18 21.85C7.8264 21.022 8.57198 20.2765 9.4 19.63C10.34 19.06 10.29 19.1 10.35 19.02C10.6801 19.0856 11.0141 19.129 11.35 19.15C11.001 20.437 10.9736 21.79 11.27 23.09C11.2653 23.1098 11.2653 23.1303 11.27 23.15C11.2778 23.191 11.2942 23.2298 11.3183 23.2638C11.3424 23.2978 11.3736 23.3262 11.4096 23.347C11.4457 23.3679 11.4858 23.3808 11.5273 23.3848C11.5688 23.3887 11.6106 23.3837 11.65 23.37C11.711 23.3721 11.7709 23.3535 11.8199 23.3172C11.8689 23.2808 11.9042 23.229 11.92 23.17C11.9247 23.1402 11.9247 23.1099 11.92 23.08C12.1089 22.0917 12.1927 21.0861 12.17 20.08C12 19.08 12.02 19.28 12.03 19.18C12.4028 19.1666 12.7724 19.1061 13.13 19C13.8227 19.3846 14.4907 19.8121 15.13 20.28C16.0601 21.2331 16.7671 22.3807 17.2 23.64C17.204 23.6881 17.2183 23.7348 17.2417 23.7769C17.2652 23.819 17.2973 23.8557 17.3361 23.8845C17.3748 23.9132 17.4192 23.9334 17.4663 23.9437C17.5134 23.954 17.5622 23.9542 17.6094 23.9442C17.6565 23.9341 17.7011 23.9142 17.7399 23.8857C17.7788 23.8571 17.8112 23.8207 17.8349 23.7787C17.8586 23.7367 17.8731 23.6901 17.8774 23.6421C17.8818 23.594 17.8758 23.5456 17.86 23.5C17.8136 22.7135 17.608 21.9445 17.2557 21.2397C16.9033 20.535 16.4115 19.9091 15.81 19.4Z" fill="black"/>
<path fill-rule="evenodd" clip-rule="evenodd" d="M11.19 13.94C10.4761 14.381 9.64878 14.6035 8.80999 14.58C8.73905 14.5855 8.67237 14.6161 8.62188 14.6663C8.5714 14.7164 8.54038 14.7829 8.53437 14.8538C8.52836 14.9247 8.54775 14.9954 8.58908 15.0533C8.63041 15.1113 8.69099 15.1526 8.75999 15.17C10.76 15.55 11.53 15.17 13.17 14.1C13.79 14.72 14.35 15.51 14.71 15.1C14.7735 15.0363 14.8092 14.95 14.8092 14.86C14.8092 14.77 14.7735 14.6837 14.71 14.62C13.86 13.73 13.78 12.75 12.9 13C12.3126 13.2807 11.7417 13.5945 11.19 13.94Z" fill="black"/>
<path fill-rule="evenodd" clip-rule="evenodd" d="M10.07 5.44003C9.57999 6.37003 8.36999 8.15003 9.41999 8.44003C10.31 8.70003 11.24 7.68003 11.84 6.99003C11.84 6.99003 12.05 6.85003 12.2 6.72003C12.44 6.97003 12.7 7.22003 12.97 7.45003C13.484 7.88688 14.0738 8.22582 14.71 8.45003C15.78 8.55003 15.35 6.67003 15.16 5.60003L15 5.38003C15.76 5.01003 17.11 4.38003 17.05 3.51003C16.98 2.51003 15.54 2.61003 14.43 2.51003H14.14L13.12 0.63003C12.4 -0.26997 11.57 -0.10997 11.12 0.79003L10.45 2.27003C10.45 2.33003 10.3 2.46003 10.27 2.55003C9.50189 2.505 8.73211 2.60335 7.99999 2.84003C7.50999 3.12003 7.52999 3.73003 7.93999 4.18003C8.58717 4.69816 9.30424 5.12234 10.07 5.44003ZM10.07 3.44003C10.26 3.44003 10.48 3.58003 10.78 3.44003C11.08 3.30003 11.17 2.89003 12.07 1.14003C12.1422 1.1898 12.2092 1.24676 12.27 1.31003C12.42 1.51003 13.11 3.06003 13.41 3.39003C13.5218 3.50237 13.6645 3.57894 13.82 3.61003C14.4924 3.62432 15.1619 3.70132 15.82 3.84003C15.2764 4.1394 14.7076 4.39037 14.12 4.59003C14.0094 4.66808 13.9247 4.77733 13.8766 4.90381C13.8285 5.0303 13.8192 5.16825 13.85 5.30003C14.0425 5.91605 14.1764 6.54885 14.25 7.19003C13.6003 6.80899 13.0105 6.33383 12.5 5.78003C11.69 4.95003 10.81 7.57003 9.74999 7.78003C9.74497 7.7168 9.74497 7.65326 9.74999 7.59003C9.85999 7.05003 10.56 5.91003 10.75 5.36003C10.75 5.50003 10.86 4.91003 10.47 4.91003L9.54999 4.46003C9.38999 4.34003 8.54999 3.87003 8.40999 3.62003C8.52999 3.59003 9.99999 3.42003 10.09 3.41003L10.07 3.44003Z" fill="black"/>
<path fill-rule="evenodd" clip-rule="evenodd" d="M24 6.40004C23.9 5.40004 22.52 5.57004 21.44 5.46004C21.3203 5.44752 21.1997 5.44752 21.08 5.46004L20.08 3.78004C19.41 3.00004 18.71 3.15004 18.33 3.92004L17.69 5.31004C17.6529 5.39058 17.6487 5.48243 17.6784 5.56599C17.7081 5.64956 17.7692 5.71823 17.8488 5.75737C17.9283 5.7965 18.02 5.803 18.1043 5.77548C18.1886 5.74795 18.2588 5.68859 18.3 5.61004C19.21 3.78004 19.11 3.87004 19.43 4.30004C19.56 4.47004 20.26 5.97004 20.53 6.30004C20.8 6.63004 21.19 6.48004 21.35 6.51004C21.82 6.58004 22.64 6.51004 22.96 6.62004C22.96 6.62004 21.29 7.36004 21.17 7.42004C21.0524 7.49432 20.9618 7.60433 20.9114 7.73393C20.861 7.86352 20.8535 8.00586 20.89 8.14004C21.0595 8.68147 21.18 9.23704 21.25 9.80004C19.25 8.75004 19.61 7.48004 18.25 9.21004C18.09 9.40004 17.33 10.45 16.9 10.52C16.7837 9.9055 16.7837 9.27458 16.9 8.66004C16.9292 8.58578 16.9276 8.50297 16.8958 8.42983C16.8639 8.35669 16.8042 8.29921 16.73 8.27004C16.6557 8.24086 16.5729 8.24238 16.4998 8.27427C16.4266 8.30615 16.3692 8.36578 16.34 8.44004C16.1598 9.0905 16.0889 9.76634 16.13 10.44C16.2 11.31 16.83 11.44 17.55 11.02C18.0593 10.6528 18.5138 10.2151 18.9 9.72004L19.22 9.49004C19.6951 9.99294 20.2408 10.4241 20.84 10.77C21.35 11.04 21.84 11.33 22.2 10.94C22.56 10.55 22.2 8.94004 22.13 8.13004C22.83 7.79004 24.07 7.17004 24 6.40004Z" fill="black"/>
<path fill-rule="evenodd" clip-rule="evenodd" d="M1.87 8.18004C1.74313 8.82035 1.65961 9.46848 1.62 10.12C1.58641 10.2711 1.58507 10.4276 1.61609 10.5792C1.64711 10.7309 1.70978 10.8743 1.8 11C2.19 11.39 2.65 11.1 3.16 10.83C3.75982 10.481 4.30556 10.0465 4.78 9.54004L5.1 9.77004C5.49369 10.2379 5.94764 10.6515 6.45 11C7.16 11.4 7.8 11.3 7.87 10.42C7.91169 9.74633 7.84072 9.07039 7.66 8.42004C7.64556 8.38327 7.62401 8.3497 7.59659 8.32126C7.56918 8.29282 7.53643 8.27005 7.50021 8.25427C7.464 8.23848 7.42503 8.22998 7.38553 8.22926C7.34603 8.22853 7.30677 8.23559 7.27 8.25004C7.23323 8.26448 7.19967 8.28603 7.17123 8.31345C7.14278 8.34086 7.12002 8.37362 7.10423 8.40983C7.08845 8.44604 7.07995 8.48501 7.07922 8.52451C7.0785 8.56401 7.08556 8.60327 7.1 8.64004C7.21634 9.25458 7.21634 9.8855 7.1 10.5C6.66 10.43 5.89 9.36004 5.75 9.19004C4.38 7.46004 4.75 8.73004 2.75 9.78004C2.82123 9.21724 2.94169 8.66178 3.11 8.12004C3.14648 7.98586 3.13897 7.84352 3.08857 7.71393C3.03817 7.58433 2.94755 7.47432 2.83 7.40004C2.71 7.33004 1.05 6.58004 1.04 6.60004C1.36 6.52004 2.18 6.60004 2.65 6.49004C2.81 6.49004 3.23 6.49004 3.47 6.28004C3.71 6.07004 4.66 4.00004 4.84 4.05004C5.02 4.10004 5.03 4.21004 5.73 5.61004C5.77115 5.68859 5.84136 5.74795 5.92565 5.77548C6.00995 5.803 6.10166 5.7965 6.18123 5.75737C6.2608 5.71823 6.32194 5.64956 6.3516 5.56599C6.38126 5.48243 6.3771 5.39058 6.34 5.31004L5.7 3.92004C5.32 3.15004 4.62 3.00004 4 3.78004L3 5.46004C2.88033 5.44752 2.75968 5.44752 2.64 5.46004C1.49 5.62004 0.100004 5.47004 3.52925e-06 6.45004C-0.0699965 7.22004 1.17 7.83004 1.87 8.18004Z" fill="black"/>
</g>
<defs>
<clipPath id="clip0_1051_8634">
<rect width="24" height="24" fill="white"/>
</clipPath>
</defs>
</svg>
