<svg width="24" height="24" viewBox="0 0 24 24" fill="none" xmlns="http://www.w3.org/2000/svg">
<g clip-path="url(#clip0_1033_3765)">
<path fill-rule="evenodd" clip-rule="evenodd" d="M23.63 23.4299C22.8925 22.1034 21.8675 20.9588 20.63 20.0799C21.221 19.5652 21.6557 18.895 21.8848 18.1456C22.114 17.3961 22.1283 16.5974 21.9263 15.8402C21.7242 15.083 21.3138 14.3976 20.7418 13.862C20.1697 13.3263 19.4589 12.9618 18.69 12.8099C17.9963 12.6726 17.2805 12.6949 16.5967 12.8752C15.9129 13.0555 15.2791 13.3891 14.7433 13.8507C14.2075 14.3123 13.7839 14.8897 13.5043 15.5393C13.2248 16.1889 13.0968 16.8936 13.13 17.5999C13.23 19.8799 15.41 21.5999 16.91 21.4499C16.9922 21.4499 17.0711 21.4173 17.1292 21.3591C17.1874 21.301 17.22 21.2222 17.22 21.1399C17.22 21.0577 17.1874 20.9789 17.1292 20.9207C17.0711 20.8626 16.9922 20.8299 16.91 20.8299C16.3222 20.82 15.762 20.5793 15.35 20.1599C12.49 17.7799 15.1 13.2199 18.48 13.9699C21.12 14.4999 22.13 17.5699 19.85 19.7699C19.4381 20.2011 18.9409 20.5417 18.39 20.7699C18.3144 20.8109 18.2559 20.8776 18.2251 20.9579C18.1944 21.0383 18.1934 21.127 18.2225 21.2079C18.2515 21.2889 18.3085 21.3569 18.3833 21.3994C18.458 21.442 18.5456 21.4563 18.63 21.4399C19.1628 21.2516 19.6599 20.9744 20.1 20.6199C20.9098 21.8731 21.9239 22.9818 23.1 23.8999C23.1309 23.9347 23.1683 23.9631 23.2101 23.9835C23.2519 24.0038 23.2974 24.0157 23.3438 24.0185C23.3902 24.0213 23.4368 24.0149 23.4807 23.9997C23.5247 23.9845 23.5652 23.9608 23.6 23.9299C23.6348 23.8991 23.6632 23.8617 23.6835 23.8198C23.7039 23.778 23.7158 23.7326 23.7186 23.6862C23.7214 23.6397 23.715 23.5932 23.6998 23.5492C23.6846 23.5053 23.6609 23.4647 23.63 23.4299Z" fill="black"/>
<path d="M7.67001 2.09997C5.67001 2.48997 5.12001 3.58997 5.37001 4.92997C5.94001 7.92997 11.14 6.71997 9.97001 3.51997C9.83379 3.03845 9.52201 2.62549 9.09621 2.36261C8.67041 2.09972 8.16153 2.00601 7.67001 2.09997ZM6.31001 4.69997C5.77001 2.82997 8.53001 1.99997 9.00001 3.81997C9.47001 5.63997 6.71001 6.09997 6.31001 4.69997Z" fill="black"/>
<path d="M19.09 0.649994C19.0619 0.619703 19.0279 0.595537 18.99 0.579011C18.9522 0.562485 18.9113 0.553955 18.87 0.553955C18.8287 0.553955 18.7878 0.562485 18.75 0.579011C18.7121 0.595537 18.6781 0.619703 18.65 0.649994C18.5 0.799994 18.65 0.809994 18.65 1.39999C18.65 2.14999 18.11 11.55 19.07 11.59C19.116 11.5913 19.1618 11.5836 19.2047 11.5672C19.2477 11.5508 19.287 11.5262 19.3205 11.4946C19.3539 11.463 19.3808 11.4252 19.3996 11.3832C19.4184 11.3412 19.4287 11.296 19.43 11.25C19.54 10.09 19.66 8.78999 19.7 7.49999C19.77 4.53999 19.38 0.889994 19.09 0.649994Z" fill="black"/>
<path d="M2.11001 14.68C1.50001 14.52 1.69001 14.53 1.66001 14.08C1.63001 13.63 1.32001 2.58997 1.66001 1.33997C2.66001 1.05997 9.60001 0.92997 10.9 0.93997C17.66 1.01997 17.9 1.26997 17.9 0.71997C17.9013 0.674002 17.8936 0.628223 17.8772 0.585248C17.8609 0.542274 17.8362 0.502946 17.8046 0.469513C17.773 0.43608 17.7352 0.409197 17.6932 0.390401C17.6512 0.371605 17.606 0.361264 17.56 0.35997C0.850008 -0.35003 0.710007 -3.016e-05 0.490007 1.18997C0.100007 3.29997 0.320007 14.36 0.830007 15.1C1.71001 16.32 10.04 15.99 11.55 15.93C11.6239 15.9167 11.6908 15.8779 11.739 15.8204C11.7872 15.7628 11.8137 15.6901 11.8137 15.615C11.8137 15.5399 11.7872 15.4672 11.739 15.4096C11.6908 15.352 11.6239 15.3132 11.55 15.3C10.89 15.31 4.46001 15.32 2.11001 14.68Z" fill="black"/>
<path d="M18.2 8.44998C16.87 6.38998 14.93 5.13998 12.63 6.44998C10.63 7.65998 9.58001 10.27 8.63001 12.45C8.63001 12.56 8.63001 12.59 8.43001 12.22C7.92585 11.429 7.18859 10.814 6.32001 10.46C4.02001 9.58998 2.92001 10.1 1.81001 11.36C1.53001 11.72 1.66001 12.58 1.97001 12.25C3.13001 10.98 3.63001 10.79 5.97001 11.56C6.94757 11.8731 7.78329 12.5212 8.33001 13.39C8.33001 13.52 8.10001 14.22 7.96001 14.71C7.88001 14.99 8.57001 15.29 8.67001 14.71C9.76001 11.71 12.28 6.27998 15.15 7.10998C15.9661 7.42163 16.7012 7.91393 17.3 8.54998C17.5084 8.77283 17.7359 8.97695 17.98 9.15998C18.3 9.34998 18.39 8.69998 18.2 8.44998Z" fill="black"/>
</g>
<defs>
<clipPath id="clip0_1033_3765">
<rect width="24" height="24" fill="white"/>
</clipPath>
</defs>
</svg>
