<svg width="24" height="24" viewBox="0 0 24 24" fill="none" xmlns="http://www.w3.org/2000/svg">
<g clip-path="url(#clip0_1052_9175)">
<path fill-rule="evenodd" clip-rule="evenodd" d="M19.43 6.48998C19.3847 6.15273 19.3179 5.81872 19.23 5.48998C19.1374 5.1474 19.017 4.81296 18.87 4.48998C18.3249 3.32987 17.5291 2.30522 16.54 1.48998C15.5579 0.658246 14.3494 0.139334 13.07 -2.21329e-05C12.1573 -0.0454461 11.2444 0.0835223 10.38 0.379978C9.53964 0.665995 8.7397 1.05924 7.99999 1.54998C6.48396 2.46678 5.33206 3.88015 4.73999 5.54998C3.31999 10.73 8.42999 12.8 9.04999 9.48998C9.05177 8.51382 8.99165 7.53853 8.86999 6.56998C8.91186 6.19083 9.04464 5.82738 9.25704 5.51053C9.46944 5.19367 9.75518 4.93277 10.09 4.74998C10.7534 4.30763 11.5444 4.09671 12.34 4.14998C12.6022 4.18846 12.86 4.25209 13.11 4.33998C13.3475 4.43562 13.5725 4.55987 13.78 4.70998C13.9899 4.87401 14.16 5.08329 14.2778 5.32224C14.3955 5.56118 14.4578 5.82361 14.46 6.08998C14.4541 6.67081 14.2954 7.23987 14 7.73998C13.28 9.04998 11.82 9.73998 10.86 10.74C10.3631 11.2844 10.0182 11.95 9.85999 12.67C9.74999 13.28 9.62999 13.93 9.56999 14.57C9.52052 15.0081 9.50048 15.4491 9.50999 15.89C9.49262 16.2723 9.5681 16.6532 9.72999 17C9.85497 17.2199 10.0586 17.3842 10.3 17.46C10.4707 17.5081 10.6444 17.5449 10.82 17.57L11.48 17.62C11.8882 17.674 12.3018 17.674 12.71 17.62C13.067 17.5634 13.3984 17.3995 13.66 17.15C13.8004 17 13.8942 16.8123 13.93 16.61C13.9592 16.1905 13.9592 15.7695 13.93 15.35C13.9616 14.7841 14.0419 14.222 14.17 13.67C14.2624 13.3406 14.404 13.0271 14.59 12.74C14.6902 12.5964 14.8241 12.4797 14.98 12.4C15.3039 12.2299 15.6379 12.0796 15.98 11.95C16.9556 11.6185 17.8513 11.0872 18.61 10.39C19.1214 9.82213 19.4185 9.09353 19.45 8.32998V7.42998C19.4654 7.11656 19.4587 6.80245 19.43 6.48998ZM18.36 8.19998C18.3462 8.71365 18.1514 9.20595 17.81 9.58998C17.1592 10.1637 16.3965 10.5962 15.57 10.86C15.1778 11.0055 14.7939 11.1724 14.42 11.36C14.114 11.5326 13.8509 11.7718 13.65 12.06C13.3907 12.4474 13.2012 12.8772 13.09 13.33C12.9444 13.9511 12.8508 14.5833 12.81 15.22V16.35C12.6774 16.4315 12.5256 16.4763 12.37 16.48C12.1108 16.5097 11.8491 16.5097 11.59 16.48C10.98 16.41 10.59 16.48 10.59 15.88C10.5704 15.3892 10.5905 14.8976 10.65 14.41C10.71 13.9 10.8 13.41 10.88 12.91C10.99 12.3712 11.246 11.8731 11.62 11.47C12.62 10.36 14.1 9.57998 14.83 8.19998C15.2938 7.40676 15.4703 6.47805 15.33 5.56998C15.2055 4.93424 14.8491 4.36751 14.33 3.97998C14.0583 3.77169 13.7543 3.60952 13.43 3.49998C13.1073 3.38263 12.7715 3.30538 12.43 3.26998C11.4398 3.21832 10.4599 3.49228 9.63999 4.04998C9.20203 4.31065 8.83339 4.67308 8.56531 5.10654C8.29722 5.54 8.13761 6.03171 8.09999 6.53998C8.24025 7.47052 8.32042 8.40913 8.33999 9.34998C8.18999 10.17 6.56999 11.09 5.50999 8.74998C5.24414 8.16416 5.1235 7.52287 5.15832 6.8805C5.19314 6.23812 5.38238 5.61363 5.70999 5.05998C6.36243 3.89892 7.29816 2.92191 8.42999 2.21998C9.11978 1.79149 9.86278 1.45529 10.64 1.21998C11.4015 0.976046 12.2021 0.877666 13 0.929978C14.0852 1.08865 15.0966 1.5734 15.9 2.31998C16.754 3.0569 17.4366 3.97158 17.9 4.99998C18.01 5.26998 18.1 5.53998 18.19 5.81998C18.2562 6.09684 18.3063 6.37731 18.34 6.65998C18.34 6.91998 18.39 7.18998 18.39 7.45998C18.398 7.70705 18.3879 7.95437 18.36 8.19998Z" fill="black"/>
<path fill-rule="evenodd" clip-rule="evenodd" d="M8.99999 20.32C8.81798 20.4987 8.6734 20.7119 8.5747 20.9471C8.476 21.1824 8.42517 21.4349 8.42517 21.69C8.42517 21.9451 8.476 22.1976 8.5747 22.4329C8.6734 22.6681 8.81798 22.8813 8.99999 23.06C9.11925 23.1845 9.24616 23.3014 9.37999 23.41C9.51504 23.5204 9.66274 23.6144 9.81999 23.69C10.3194 23.9339 10.8768 24.0343 11.43 23.98C11.9944 23.9254 12.5251 23.6864 12.94 23.3C13.2461 23.0103 13.4716 22.6459 13.5944 22.2426C13.7171 21.8394 13.7328 21.4112 13.64 21C13.17 18.86 10.43 18.72 8.99999 20.32ZM12.22 22.53C11.9535 22.7371 11.6274 22.8528 11.29 22.86C10.9444 22.8906 10.5973 22.8211 10.29 22.66L9.78999 22.28C9.20999 21.72 9.51999 21.05 10.04 20.59C11.6 19.25 12.67 20.37 12.79 21.19C12.8157 21.4433 12.7769 21.699 12.6772 21.9332C12.5775 22.1675 12.4203 22.3728 12.22 22.53Z" fill="black"/>
</g>
<defs>
<clipPath id="clip0_1052_9175">
<rect width="24" height="24" fill="white"/>
</clipPath>
</defs>
</svg>
