<svg width="24" height="24" viewBox="0 0 24 24" fill="none" xmlns="http://www.w3.org/2000/svg">
<g clip-path="url(#clip0_1047_6181)">
<path fill-rule="evenodd" clip-rule="evenodd" d="M16.22 5.22995C15.73 4.99995 15.64 4.57995 14.87 4.60995C14.5 4.60995 14.03 4.85995 13.79 4.79995C13.55 4.73995 12.98 3.79995 11.86 4.31995C11.47 4.50995 11.05 4.87995 10.92 4.85995C10.41 4.85995 9.61999 3.36995 8.05999 4.38995C7.54999 4.71995 6.58999 5.77995 6.92999 6.20995C6.95362 6.24146 6.98324 6.26802 7.01714 6.28809C7.05104 6.30816 7.08856 6.32136 7.12756 6.32693C7.16656 6.3325 7.20628 6.33034 7.24444 6.32056C7.28261 6.31078 7.31847 6.29358 7.34999 6.26995C7.55999 6.10995 7.41999 5.67995 8.34999 5.15995C9.27999 4.63995 9.34999 5.00995 9.86999 5.44995C9.45999 7.31995 9.63999 7.77995 9.99999 9.99995C9.99999 10.0901 10.0358 10.1766 10.0996 10.2404C10.1633 10.3041 10.2498 10.3399 10.34 10.3399C10.4302 10.3399 10.5166 10.3041 10.5804 10.2404C10.6442 10.1766 10.68 10.0901 10.68 9.99995C10.8505 8.67207 10.8505 7.32783 10.68 5.99995C11.58 6.21995 12.15 5.40995 12.52 5.37995C12.89 5.34995 13.07 6.00995 13.95 5.93995C13.3795 7.19471 13.0992 8.56193 13.13 9.93995C13.1127 10.0288 13.1315 10.1209 13.1821 10.1959C13.2328 10.2709 13.3111 10.3227 13.4 10.3399C13.4888 10.3572 13.5809 10.3384 13.6559 10.2878C13.7309 10.2372 13.7827 10.1588 13.8 10.0699C14.1314 9.24576 14.3695 8.38709 14.51 7.50995C14.55 6.92396 14.55 6.33593 14.51 5.74995C15.37 5.39995 15.23 5.74995 15.91 6.03995C16.41 6.21995 16.66 5.94995 17.02 6.21995C17.38 6.48995 17.55 5.85995 17.24 5.64995C16.93 5.43995 16.66 5.42995 16.22 5.22995Z" fill="black"/>
<path fill-rule="evenodd" clip-rule="evenodd" d="M9.57999 14.4799C9.16999 12.8699 7.81999 9.62993 6.65999 5.47993C6.52999 5.03993 6.37999 4.30993 5.88999 4.19993C5.8473 4.18793 5.80263 4.18466 5.75865 4.19031C5.71467 4.19597 5.67228 4.21043 5.63401 4.23283C5.59574 4.25523 5.56238 4.28511 5.53591 4.3207C5.50945 4.35628 5.49043 4.39683 5.47999 4.43993C5.41999 4.66993 5.99999 5.59993 5.99999 5.67993L7.44999 10.9999C7.87999 12.4599 8.72999 14.6699 8.60999 16.4299C8.48999 18.1899 7.13999 18.7899 5.32999 18.7999C3.51999 18.8099 3.32999 17.3199 2.81999 15.7199C2.06763 13.6818 1.45946 11.5933 0.999993 9.46993C0.529993 6.49993 0.769993 5.85993 3.36999 5.14993C3.44999 5.14993 4.99999 4.99993 5.05999 4.99993C5.0967 4.98287 5.12958 4.95856 5.15664 4.92847C5.18371 4.89837 5.20441 4.86311 5.21749 4.8248C5.23057 4.7865 5.23576 4.74594 5.23275 4.70558C5.22975 4.66521 5.2186 4.62587 5.19999 4.58993C4.97999 3.91993 1.92999 4.73993 1.04999 5.35993C0.661132 5.65525 0.358597 6.04947 0.173919 6.50149C-0.0107598 6.95352 -0.0708217 7.4468 -7.36117e-06 7.92993C-7.36117e-06 10.5899 1.21999 14.2699 1.75999 16.0599C1.98958 17.1416 2.44259 18.1635 3.08999 19.0599C4.08999 20.1399 5.59999 20.0599 7.08999 19.7299C7.84055 19.5818 8.5148 19.1737 8.99405 18.5774C9.4733 17.981 9.72682 17.2348 9.70999 16.4699C9.77174 15.8039 9.72787 15.1323 9.57999 14.4799Z" fill="black"/>
<path fill-rule="evenodd" clip-rule="evenodd" d="M12.93 13.8199C11.54 13.6699 11.03 15.0099 9.92999 14.5799C9.68999 14.6499 9.68999 15.4399 10.05 15.5299L10.29 15.5799C11.61 15.8599 12.34 14.8399 12.9 14.8199C13.14 14.8199 13.37 15.0599 13.78 15.2499C14.07 15.2499 14.15 14.7099 14.02 14.4199C13.7482 14.0861 13.3574 13.871 12.93 13.8199Z" fill="black"/>
<path fill-rule="evenodd" clip-rule="evenodd" d="M23.85 7.07998C23.6174 6.45757 23.1848 5.92997 22.62 5.57998C21.3565 4.87482 19.9368 4.49669 18.49 4.47998C17.49 4.68998 13.18 16.34 13.82 18.34C14.27 19.74 18.49 20.04 19.47 19.96C19.8161 19.9414 20.1549 19.8529 20.4659 19.7C20.777 19.547 21.0539 19.3327 21.28 19.07C22.21 18.01 22.92 14.92 23.22 13.54C23.66 11.5 24.29 8.37998 23.85 7.07998ZM22.22 13.31C21.97 14.31 21.69 15.31 21.36 16.31C20.75 18.15 20.43 18.94 18.66 18.81C17.6487 18.7197 16.6458 18.5526 15.66 18.31C14.89 18.07 14.66 17.84 14.71 17.31C15.0792 15.2473 15.6348 13.2223 16.37 11.26C16.37 11.18 18.37 5.04998 19.12 5.05998C20.1809 5.26027 21.1971 5.64981 22.12 6.20998C23.57 7.21998 23.4 8.46998 22.22 13.31Z" fill="black"/>
<path fill-rule="evenodd" clip-rule="evenodd" d="M18.94 9.23995C18.8546 9.3867 18.7993 9.54896 18.7772 9.71729C18.7551 9.88563 18.7668 10.0567 18.8114 10.2205C18.8561 10.3843 18.9329 10.5375 19.0374 10.6714C19.1419 10.8052 19.2719 10.9169 19.42 11C19.6748 11.1561 19.9715 11.2303 20.2698 11.2124C20.5681 11.1946 20.8538 11.0856 21.0883 10.9003C21.3227 10.7149 21.4946 10.462 21.5808 10.1759C21.6669 9.88967 21.6631 9.58394 21.57 9.29995C20.69 7.24995 19.23 8.70995 18.94 9.23995ZM20.41 10.07C20.02 10.21 19.55 9.84995 20.07 9.27995C20.59 8.70995 20.57 8.80995 20.78 9.46995C20.92 9.90995 20.61 9.99995 20.41 10.07Z" fill="black"/>
<path fill-rule="evenodd" clip-rule="evenodd" d="M17.26 13.2299C17.0491 13.5357 16.9575 13.9081 17.0025 14.2768C17.0474 14.6455 17.2258 14.985 17.504 15.2312C17.7821 15.4773 18.1408 15.6131 18.5122 15.6129C18.8836 15.6127 19.2421 15.4764 19.52 15.2299C19.6798 15.1191 19.8161 14.9776 19.9208 14.8137C20.0256 14.6498 20.0967 14.4667 20.1302 14.2751C20.1637 14.0835 20.1588 13.8872 20.1159 13.6975C20.0729 13.5077 19.9927 13.3284 19.88 13.1699C19.83 13.0799 18.23 11.6499 17.26 13.2299ZM19.15 14.2999C19.0691 14.4326 18.9388 14.5276 18.7879 14.5642C18.6369 14.6007 18.4776 14.5758 18.345 14.4949C18.2124 14.4141 18.1173 14.2838 18.0808 14.1328C18.0442 13.9819 18.0691 13.8226 18.15 13.6899C18.54 12.7899 19.76 13.6699 19.15 14.2999Z" fill="black"/>
<path fill-rule="evenodd" clip-rule="evenodd" d="M4.8 7.22992C4.37306 7.20666 3.94608 7.27493 3.54768 7.43015C3.14928 7.58537 2.78867 7.82396 2.49 8.12992C2.49 8.28992 2.43 8.40992 2.49 8.46992C3.21 8.91992 4.64 8.04992 4.95 7.86992C5.00205 7.87142 5.05374 7.86093 5.10109 7.83929C5.14845 7.81764 5.1902 7.7854 5.22312 7.74507C5.25605 7.70473 5.27927 7.65738 5.291 7.60665C5.30273 7.55592 5.30265 7.50317 5.29077 7.45248C5.27889 7.40178 5.25552 7.3545 5.22247 7.31426C5.18942 7.27403 5.14758 7.24192 5.10016 7.22041C5.05274 7.19891 5.00101 7.18859 4.94897 7.19023C4.89693 7.19188 4.84596 7.20546 4.8 7.22992Z" fill="black"/>
<path fill-rule="evenodd" clip-rule="evenodd" d="M6.16999 9.64992C5.50622 9.64055 4.84922 9.78427 4.24999 10.0699C3.24999 10.6699 3.24999 10.5999 3.18999 10.8399C3.22181 10.9358 3.28634 11.0173 3.37228 11.0704C3.45821 11.1234 3.56006 11.1445 3.65999 11.1299C4.63085 11.1651 5.58534 10.8728 6.36999 10.2999C6.45618 10.2734 6.52831 10.2137 6.57051 10.134C6.6127 10.0543 6.62151 9.96112 6.59499 9.87493C6.56847 9.78873 6.50879 9.7166 6.42909 9.6744C6.34938 9.63221 6.25618 9.6234 6.16999 9.64992Z" fill="black"/>
<path fill-rule="evenodd" clip-rule="evenodd" d="M6.79 12.4499C6.71 12.4499 4.11 12.6699 3.85 13.3899C3.58 13.8299 4.75 13.8199 5.27 13.7999C5.89271 13.7023 6.48464 13.4628 7 13.0999C7.08619 13.072 7.1578 13.0111 7.19906 12.9305C7.24031 12.8498 7.24785 12.7561 7.22 12.6699C7.19215 12.5837 7.1312 12.5121 7.05056 12.4708C6.96992 12.4296 6.87619 12.422 6.79 12.4499Z" fill="black"/>
<path fill-rule="evenodd" clip-rule="evenodd" d="M4.99999 16.07C4.96316 16.0844 4.92952 16.1058 4.90101 16.1332C4.87251 16.1606 4.8497 16.1934 4.83391 16.2297C4.81811 16.2659 4.80963 16.3049 4.80896 16.3444C4.80829 16.384 4.81544 16.4232 4.82999 16.46C4.82999 16.57 4.94999 16.61 5.11999 16.7C5.76999 17.06 6.34999 16.7 6.91999 16.23C6.99257 16.1908 7.04843 16.1266 7.07716 16.0493C7.1059 15.972 7.10555 15.8869 7.07619 15.8098C7.04683 15.7327 6.99045 15.6689 6.91757 15.6303C6.84468 15.5917 6.76024 15.581 6.67999 15.6C5.13999 15.69 5.76999 15.79 4.99999 16.07Z" fill="black"/>
</g>
<defs>
<clipPath id="clip0_1047_6181">
<rect width="24" height="24" fill="white"/>
</clipPath>
</defs>
</svg>
