<svg width="24" height="24" viewBox="0 0 24 24" fill="none" xmlns="http://www.w3.org/2000/svg">
<g clip-path="url(#clip0_1047_6208)">
<path d="M16.41 10C16.12 9.00002 15.53 7.47002 15.41 7.00002C15.4004 6.94078 15.3749 6.88526 15.3361 6.83945C15.2974 6.79363 15.2468 6.75926 15.19 6.74002C14.9102 6.27682 14.5181 5.89163 14.05 5.62002C12.9783 5.03792 11.84 4.58797 10.66 4.28002C10.25 4.16002 9.84 4.05002 9.43 3.96002L7.59 3.56002C7.54792 3.54976 7.5042 3.54814 7.46148 3.55527C7.41875 3.5624 7.37792 3.57813 7.34146 3.6015C7.305 3.62488 7.27366 3.65541 7.24934 3.69125C7.22503 3.72709 7.20824 3.7675 7.2 3.81002C7.18812 3.85144 7.185 3.89488 7.19085 3.93757C7.1967 3.98026 7.21139 4.02127 7.23397 4.05796C7.25655 4.09466 7.28654 4.12625 7.32201 4.15071C7.35749 4.17517 7.39767 4.19196 7.44 4.20002L9.26 4.64002C9.65 4.74002 10.05 4.85002 10.44 4.98002C11.3951 5.23698 12.3254 5.57832 13.22 6.00002C13.7606 6.23856 14.2096 6.64546 14.5 7.16002C14.5475 7.3267 14.5475 7.50334 14.5 7.67002C14.4 8.07002 14.22 8.50002 14.13 8.76002C13.8999 9.35622 13.6395 9.94031 13.35 10.51C12.63 11.94 11.72 13.51 11.23 14.67C10.87 15.54 10.43 16.58 9.97 17.46C9.65 18.08 9.05 18.87 9.06 18.89C8.87799 18.8978 8.69587 18.8775 8.52 18.83C7.39956 18.5806 6.29972 18.2463 5.23 17.83C4.12051 17.4312 3.04107 16.9533 2 16.4C1.81 16.28 1.61 16.14 1.55 16.09C1.49511 15.4074 1.60485 14.7215 1.87 14.09C2.30564 13.0041 2.7997 11.9426 3.35 10.91C4 9.70002 4.51 8.47002 5.1 7.25002C5.49 6.45002 5.89 5.65002 6.32 4.87002C6.3399 4.83725 6.35311 4.80085 6.35885 4.76294C6.3646 4.72503 6.36277 4.68635 6.35347 4.64915C6.34417 4.61195 6.32759 4.57697 6.30468 4.54622C6.28176 4.51547 6.25298 4.48957 6.22 4.47002C6.18663 4.45053 6.14969 4.4379 6.11137 4.43289C6.07305 4.42787 6.03411 4.43057 5.99684 4.44082C5.95958 4.45106 5.92474 4.46866 5.89437 4.49256C5.864 4.51647 5.83871 4.5462 5.82 4.58002C5.47 5.16002 5.14 5.76002 4.82 6.36002C4.08 7.75002 3.4 9.17002 2.67 10.57C2.05851 11.6106 1.50111 12.682 1 13.78C0.784059 14.3183 0.64275 14.8835 0.58 15.46C0.51 15.85 0.24 17 0.0899997 18C-0.00393493 18.396 -0.0343141 18.8045 -3.0268e-07 19.21C0.12648 19.4787 0.332429 19.7021 0.59 19.85C2.24404 20.8254 4.00153 21.6136 5.83 22.2C6.9151 22.5964 8.04271 22.8649 9.19 23C9.57365 23.0392 9.96075 22.9736 10.31 22.81C11.25 22.27 12.46 20.46 13.53 18.35C14.7139 15.9482 15.7167 13.4613 16.53 10.91C16.5233 10.6032 16.483 10.2981 16.41 10ZM8.58 21.81C7.41956 21.5983 6.27642 21.3009 5.16 20.92C3.8634 20.5096 2.59978 20.0015 1.38 19.4C1.18266 19.3014 0.99515 19.1842 0.82 19.05C0.786736 19.0401 0.75603 19.023 0.73 19C0.7049 18.5713 0.735149 18.1411 0.82 17.72C0.82 17.44 0.9 17.16 0.95 16.88C0.995723 16.9251 1.04599 16.9653 1.1 17C2.25658 17.7507 3.49447 18.368 4.79 18.84C6.07404 19.3844 7.41608 19.7803 8.79 20.02H9V20.6C9.0101 20.7909 9.03013 20.9812 9.06 21.17C9.06 21.42 9.17 21.67 9.23 21.91C9.01163 21.8889 8.79463 21.8555 8.58 21.81ZM12.58 17.81C11.9497 19.1548 11.1278 20.401 10.14 21.51C10.14 21.41 9.78 19.63 9.78 19.63C10.1375 19.2677 10.4377 18.8529 10.67 18.4C11.2425 17.313 11.7533 16.1945 12.2 15.05C12.66 13.89 13.52 12.33 14.2 10.9C14.5038 10.3001 14.771 9.68231 15 9.05002C15 8.89002 15.13 8.68002 15.2 8.45002C15.38 9.03002 15.58 9.68002 15.7 10.2C15.7634 10.4253 15.8036 10.6565 15.82 10.89C14.8697 13.2698 13.7846 15.5936 12.57 17.85L12.58 17.81Z" fill="black"/>
<path d="M11.43 10.73C11.6532 10.6304 11.8388 10.4623 11.96 10.25C12.1104 9.95381 12.2278 9.64193 12.31 9.32003C12.39 9.07003 12.54 8.75003 12.63 8.45003C12.6837 8.27822 12.714 8.09995 12.72 7.92003C12.7241 7.76017 12.6709 7.6041 12.57 7.48003C12.3968 7.30556 12.189 7.1693 11.96 7.08003L10.28 6.52003L8 5.93003C7.94682 5.91264 7.88992 5.90996 7.83535 5.92229C7.78077 5.93461 7.73054 5.96148 7.69 6.00003C7.62327 5.97508 7.54969 5.97555 7.4833 6.00138C7.4169 6.0272 7.36233 6.07655 7.33 6.14003L6.51 7.64003C6.42757 7.78123 6.36371 7.93248 6.32 8.09003C6.27927 8.22026 6.27927 8.35981 6.32 8.49003C6.37674 8.63527 6.46172 8.76783 6.57 8.88003C6.7659 9.06205 6.98041 9.22294 7.21 9.36003C7.55085 9.57876 7.91263 9.76301 8.29 9.91003C8.82 10.13 9.37 10.29 9.89 10.47C10.1685 10.5894 10.4561 10.6864 10.75 10.76C10.9749 10.8147 11.2108 10.8043 11.43 10.73ZM8.64 9.00003C8.29632 8.90246 7.96174 8.77532 7.64 8.62003C7.49941 8.55426 7.36254 8.48082 7.23 8.40003C7.16883 8.37171 7.11431 8.33082 7.07 8.28003C7.06844 8.1694 7.09239 8.05991 7.14 7.96003L7.75 6.58003L10 7.31003L11.55 8.00003L11.64 8.09003L11.27 9.00003C11.2233 9.24514 11.1564 9.48597 11.07 9.72003C11.02 9.89003 10.42 9.49003 10.24 9.43003C9.72 9.27003 9.17 9.14003 8.64 9.00003Z" fill="black"/>
<path d="M9.15 11.73C8.98239 11.5705 8.79798 11.4297 8.6 11.31C8.41494 11.18 8.2131 11.0757 8 11C7.24721 10.7487 6.42815 10.7843 5.7 11.1C4.98775 11.4426 4.42061 12.0275 4.1 12.75C3.94449 13.0835 3.8639 13.447 3.8639 13.815C3.8639 14.1829 3.94449 14.5465 4.1 14.88C4.30573 15.2337 4.57925 15.5433 4.90487 15.7911C5.23049 16.0389 5.60181 16.2201 5.99755 16.3241C6.39329 16.4281 6.80568 16.4531 7.21108 16.3975C7.61647 16.3418 8.0069 16.2068 8.36 16C9.15021 15.5771 9.74011 14.8577 10 14C10.0781 13.5702 10.0223 13.1269 9.84 12.73C9.66917 12.3595 9.43576 12.0212 9.15 11.73ZM7.92 15.35C7.67318 15.5454 7.38522 15.6822 7.07783 15.7501C6.77044 15.8181 6.45163 15.8154 6.14545 15.7422C5.83926 15.669 5.55368 15.5273 5.31023 15.3277C5.06677 15.1281 4.8718 14.8759 4.74 14.59C4.6628 14.3552 4.63802 14.1064 4.66739 13.8611C4.69676 13.6158 4.77958 13.3798 4.91 13.17C5.17132 12.6904 5.58719 12.3133 6.09 12.1C6.58641 11.9135 7.1336 11.9135 7.63 12.1C7.76657 12.1402 7.89758 12.1973 8.02 12.27C8.14813 12.3486 8.26865 12.439 8.38 12.54C8.57246 12.7231 8.73449 12.9358 8.86 13.17C8.96991 13.3717 9.01856 13.601 9 13.83C8.92893 14.142 8.79693 14.4368 8.6116 14.6977C8.42626 14.9585 8.19123 15.1802 7.92 15.35Z" fill="black"/>
<path d="M23.9 17C23.7066 16.5748 23.4614 16.1751 23.17 15.81C23.1385 15.7536 23.0884 15.7098 23.0282 15.6861C22.9681 15.6624 22.9016 15.6602 22.84 15.68C22.7782 15.251 22.5612 14.8596 22.23 14.58C21.7703 14.2041 21.2784 13.8695 20.76 13.58C20.4932 13.4351 20.2611 13.2337 20.08 12.99C19.8834 12.6856 19.7476 12.346 19.68 11.99C19.6279 11.7333 19.6011 11.472 19.6 11.21C19.6039 10.9453 19.6273 10.6813 19.67 10.42L20.09 9.33C20.41 8.54637 20.674 7.74102 20.88 6.92C21.0217 6.34106 21.0856 5.74582 21.07 5.15C21.0216 4.38474 20.7867 3.64294 20.3858 2.9893C19.9849 2.33566 19.4302 1.79003 18.77 1.4C18.2995 1.14058 17.7619 1.02856 17.2269 1.07849C16.692 1.12842 16.1844 1.33799 15.77 1.68C15.4127 1.94541 15.1189 2.287 14.91 2.68C14.652 3.23343 14.4348 3.80495 14.26 4.39C14.2455 4.42473 14.2382 4.46202 14.2384 4.49964C14.2386 4.53727 14.2465 4.57446 14.2614 4.609C14.2763 4.64353 14.2981 4.6747 14.3253 4.70065C14.3526 4.7266 14.3848 4.74678 14.42 4.76C14.4554 4.77466 14.4934 4.78215 14.5318 4.78203C14.5701 4.7819 14.608 4.77418 14.6434 4.7593C14.6787 4.74442 14.7108 4.72268 14.7376 4.69534C14.7645 4.66799 14.7857 4.63559 14.8 4.6C14.9978 4.04868 15.2386 3.51371 15.52 3C15.696 2.70209 15.9349 2.44614 16.22 2.25C16.6091 1.98519 17.0791 1.86609 17.5474 1.91364C18.0156 1.9612 18.4521 2.17237 18.78 2.51C19.5141 3.18986 19.9521 4.1306 20 5.13C20.0111 5.62819 19.9573 6.12571 19.84 6.61C19.6527 7.38239 19.4121 8.14087 19.12 8.88L16.43 17.06C16.4262 17.0932 16.4262 17.1268 16.43 17.16C16.3372 17.1973 16.247 17.2407 16.16 17.29C16.0345 17.3662 15.9291 17.4713 15.8526 17.5966C15.776 17.7218 15.7306 17.8636 15.72 18.01C15.7129 18.0521 15.7143 18.0952 15.7241 18.1367C15.7339 18.1783 15.7519 18.2174 15.777 18.2519C15.8022 18.2864 15.834 18.3155 15.8706 18.3375C15.9071 18.3595 15.9478 18.3739 15.99 18.38C16.0334 18.3871 16.0778 18.3854 16.1205 18.3751C16.1633 18.3648 16.2035 18.3461 16.2389 18.32C16.2743 18.2939 16.3042 18.261 16.3267 18.2232C16.3492 18.1854 16.3639 18.1436 16.37 18.1C16.37 17.98 16.5 17.94 16.61 17.9C16.7676 17.861 16.9324 17.861 17.09 17.9C17.3365 17.9655 17.5654 18.0851 17.76 18.25C17.9504 18.4122 18.1039 18.6134 18.21 18.84C18.27 18.96 18.36 19.07 18.31 19.13C18.26 19.19 17.9 19.2 17.76 19.18L16.89 19L15.67 18.51C15.6372 18.4903 15.6008 18.4773 15.5629 18.4716C15.525 18.466 15.4864 18.4679 15.4493 18.4772C15.4121 18.4864 15.3772 18.503 15.3464 18.5258C15.3157 18.5485 15.2897 18.5772 15.27 18.61C15.2503 18.6428 15.2373 18.6792 15.2316 18.7171C15.226 18.755 15.2279 18.7936 15.2372 18.8307C15.2464 18.8679 15.263 18.9028 15.2857 18.9336C15.3085 18.9643 15.3372 18.9903 15.37 19.01L16.57 19.76L17.45 20.18C17.7037 20.2776 17.9772 20.3122 18.2472 20.2809C18.5171 20.2495 18.7755 20.1531 19 20C19.4 19.7 19.62 19.14 19.16 18.32C18.956 17.9712 18.6714 17.6763 18.33 17.46C17.9948 17.2391 17.6099 17.1051 17.21 17.07H17.14L18.82 12.7C18.909 12.9987 19.0368 13.2845 19.2 13.55C19.4118 13.8474 19.6845 14.0963 20 14.28C20.55 14.61 21.26 14.82 21.76 15.19C21.8931 15.2673 22.0066 15.3743 22.0916 15.5027C22.1766 15.631 22.2308 15.7773 22.25 15.93C22.2383 15.9692 22.2383 16.0109 22.25 16.05C22.0282 16.1142 21.8162 16.2084 21.62 16.33L20.91 16.87C20.6944 17.0226 20.5308 17.2378 20.4413 17.4864C20.3519 17.7349 20.341 18.005 20.41 18.26C20.4889 18.4393 20.6119 18.5956 20.7675 18.7145C20.9231 18.8334 21.1063 18.911 21.3 18.94C21.8712 19.0493 22.4618 18.9902 23 18.77C23.2203 18.6823 23.4187 18.5473 23.5811 18.3745C23.7436 18.2017 23.8661 17.9953 23.94 17.77C23.9995 17.5147 23.9857 17.2478 23.9 17ZM23.1 17.52C23.05 17.64 22.9 17.68 22.76 17.75C22.4751 17.8686 22.1686 17.9265 21.86 17.92C21.6912 17.9482 21.5188 17.9482 21.35 17.92C21.3 17.92 21.35 17.79 21.56 17.56L22.05 17.06C22.1798 16.9551 22.3207 16.8646 22.47 16.79C22.6137 16.7179 22.7698 16.6738 22.93 16.66C22.99 16.8 23.05 16.95 23.1 17.09C23.1415 17.2235 23.1415 17.3665 23.1 17.5V17.52Z" fill="black"/>
</g>
<defs>
<clipPath id="clip0_1047_6208">
<rect width="24" height="24" fill="white"/>
</clipPath>
</defs>
</svg>
