<svg width="24" height="24" viewBox="0 0 24 24" fill="none" xmlns="http://www.w3.org/2000/svg">
<g clip-path="url(#clip0_1030_2214)">
<path fill-rule="evenodd" clip-rule="evenodd" d="M23.18 6.24001C23.4997 5.77034 23.7743 5.27145 24 4.75001C24.0088 4.61317 23.9894 4.47597 23.943 4.34695C23.8965 4.21793 23.824 4.09983 23.73 4.00001C22.9065 3.13327 21.9911 2.35871 21 1.69001C20.56 1.34747 20.0621 1.08666 19.53 0.920014C19.4219 0.901537 19.3109 0.911146 19.2076 0.947919C19.1042 0.984692 19.0121 1.0474 18.94 1.13001C18.63 1.49001 17.94 2.07001 17.2 2.78001C16.95 3.02001 16.69 3.28001 16.45 3.56001C15 5.13001 13.49 7.00001 12.77 7.82001C11.25 6.24001 8.04999 2.82001 6.45999 1.52001C6.14686 1.23995 5.77412 1.03477 5.36999 0.920014C5.27916 0.89706 5.18468 0.892312 5.092 0.906042C4.99932 0.919772 4.91027 0.95171 4.82999 1.00001C4.73999 1.11001 0.999993 3.67001 0.199993 5.11001C0.0905559 5.27703 0.0241525 5.46853 0.00670408 5.66745C-0.0107444 5.86636 0.0213044 6.0665 0.0999925 6.25001C0.278266 6.55446 0.500683 6.83079 0.759992 7.07001C1.07215 7.39583 1.40627 7.69987 1.75999 7.98001C2.00999 8.17001 2.66999 8.76001 3.43999 9.48001C4.68999 10.61 6.19999 12 6.93999 12.75C5.93999 13.61 3.60999 15.63 2.22999 17.01C1.81335 17.3976 1.44106 17.8302 1.11999 18.3C1.03933 18.4293 0.994464 18.5777 0.989992 18.73C1.11916 19.1591 1.36086 19.5459 1.68999 19.85C2.61473 20.7881 3.58595 21.6792 4.59999 22.52C4.74999 22.65 5.00999 23.21 5.50999 23.07C5.70449 22.9693 5.88585 22.845 6.04999 22.7C6.32999 22.5 7.91999 21.19 9.56999 19.76C10.73 18.76 11.91 17.7 12.69 16.93L13.1 17.27C14.78 18.66 18.95 22.22 19.1 22.5C19.1201 22.5403 19.1481 22.5761 19.1822 22.6055C19.2163 22.6349 19.2559 22.6572 19.2987 22.6711C19.3414 22.6851 19.3866 22.6904 19.4314 22.6868C19.4763 22.6832 19.52 22.6707 19.56 22.65L19.89 22.45C20.48 22.05 21.75 21.09 22.5 20.45C22.529 20.4212 22.5521 20.3869 22.5678 20.3492C22.5835 20.3114 22.5916 20.2709 22.5916 20.23C22.5916 20.1891 22.5835 20.1486 22.5678 20.1109C22.5521 20.0731 22.529 20.0388 22.5 20.01C22.472 19.9813 22.4386 19.9585 22.4017 19.9429C22.3648 19.9273 22.3251 19.9192 22.285 19.9192C22.2449 19.9192 22.2052 19.9273 22.1683 19.9429C22.1314 19.9585 22.0979 19.9813 22.07 20.01C21.33 20.63 20.07 21.56 19.49 21.94H19.43C18.5 21 15.08 17.94 13.59 16.66L13 16.13C12.9141 16.0635 12.8086 16.0274 12.7 16.0274C12.5914 16.0274 12.4859 16.0635 12.4 16.13C11.63 16.89 10.31 18.03 9.01999 19.13C7.38999 20.5 5.81999 21.76 5.53999 21.95L5.43999 22.03L5.24999 21.83C4.91999 21.54 4.16999 20.88 3.46999 20.2C2.98619 19.7735 2.54111 19.305 2.13999 18.8C2.18423 18.7049 2.23783 18.6145 2.29999 18.53C2.93127 17.8636 3.59896 17.2326 4.29999 16.64C5.99999 15 8.16999 13.21 8.16999 13.21C8.23148 13.1584 8.28116 13.0942 8.31567 13.0218C8.35017 12.9493 8.3687 12.8703 8.36999 12.79C8.37526 12.7102 8.36274 12.6303 8.33334 12.5559C8.30395 12.4815 8.2584 12.4146 8.19999 12.36C8.19999 12.36 5.99999 10.19 4.27999 8.62001C3.45999 7.86001 2.76999 7.23001 2.49999 7.00001C2.17978 6.76063 1.87886 6.49649 1.59999 6.21001C1.00999 5.62001 1.10999 5.77001 1.46999 5.35001C1.69999 5.08001 1.96999 4.84001 2.10999 4.68001C3.10104 3.75649 4.16444 2.9138 5.28999 2.16001C5.43197 2.25255 5.56883 2.3527 5.69999 2.46001C7.43999 3.85001 11.11 7.78001 12.38 9.00001C12.434 9.05535 12.4986 9.09932 12.5698 9.12934C12.6411 9.15936 12.7177 9.17483 12.795 9.17483C12.8723 9.17483 12.9489 9.15936 13.0202 9.12934C13.0914 9.09932 13.156 9.05535 13.21 9.00001C13.28 8.93001 13.42 8.77001 13.61 8.54001C14.32 7.69001 15.82 5.84001 17.22 4.25001L19.53 1.94001H19.62C20.7082 2.55277 21.7159 3.29849 22.62 4.16001C22.7654 4.29832 22.9023 4.44525 23.03 4.60001C22.846 4.97902 22.639 5.34637 22.41 5.70001C22.1412 6.11621 21.8403 6.51075 21.51 6.88001L17.4 11.63C17.3308 11.7128 17.2929 11.8172 17.2929 11.925C17.2929 12.0329 17.3308 12.1373 17.4 12.22C17.5681 12.4527 17.7483 12.6764 17.94 12.89C19.09 14.22 21.71 17.08 22.73 18.4C22.91 18.63 22.98 18.91 23.07 18.91C23.082 18.9933 23.1206 19.0705 23.18 19.13C23.2126 19.1633 23.2515 19.1897 23.2944 19.2077C23.3373 19.2258 23.3834 19.2351 23.43 19.2351C23.4766 19.2351 23.5227 19.2258 23.5656 19.2077C23.6085 19.1897 23.6474 19.1633 23.68 19.13C23.7381 19.0463 23.7692 18.9469 23.7692 18.845C23.7692 18.7431 23.7381 18.6437 23.68 18.56C23.3794 18.0835 23.0452 17.629 22.68 17.2C21.42 15.67 19.34 13.34 18.45 12.27L18.2 12L22.2 7.52001C22.5563 7.1169 22.8838 6.68918 23.18 6.24001Z" fill="black"/>
</g>
<defs>
<clipPath id="clip0_1030_2214">
<rect width="24" height="24" fill="white"/>
</clipPath>
</defs>
</svg>
