<svg width="24" height="24" viewBox="0 0 24 24" fill="none" xmlns="http://www.w3.org/2000/svg">
<g clip-path="url(#clip0_1030_2221)">
<path fill-rule="evenodd" clip-rule="evenodd" d="M23.09 15.87C22.8741 15.4331 22.5752 15.0425 22.21 14.72C21.7906 14.345 21.2743 14.0955 20.72 14C20.2043 13.9051 19.6757 13.9051 19.16 14C18.9 14 18.66 14.11 18.41 14.18C18.16 14.25 17.71 14.4 17.41 14.53C17.3599 14.543 17.3137 14.568 17.2753 14.6029C17.237 14.6377 17.2077 14.6813 17.19 14.73L16.69 14.03C15.8845 12.9923 14.8033 12.2022 13.57 11.75C13.2146 11.6549 12.8399 11.6596 12.487 11.7637C12.1341 11.8678 11.8168 12.0672 11.57 12.34C11.438 12.4834 11.342 12.656 11.2898 12.8438C11.2376 13.0316 11.2309 13.2291 11.27 13.42C11.4203 13.9235 11.6684 14.3924 12 14.8C12.507 15.4685 13.1102 16.0582 13.79 16.55C14.0736 16.7484 14.3673 16.932 14.67 17.1H14.32C13.9549 17.0478 13.5826 17.0841 13.2346 17.2059C12.8865 17.3278 12.5728 17.5315 12.32 17.8C11.93 18.31 11.94 19.11 13.01 20C13.3976 20.2958 13.8392 20.5132 14.31 20.64C14.79 20.78 15.31 20.85 15.75 20.94C16.15 20.9899 16.5369 21.1155 16.89 21.31C17.3257 21.5646 17.7345 21.8628 18.11 22.2C18.71 22.73 19.26 23.32 19.8 23.88C19.8682 23.9561 19.9636 24.0024 20.0656 24.0088C20.1676 24.0153 20.2681 23.9815 20.3454 23.9147C20.4227 23.8478 20.4707 23.7533 20.4791 23.6514C20.4874 23.5496 20.4554 23.4485 20.39 23.37C19.89 22.73 19.39 22.07 18.82 21.47C18.4325 21.0421 18.0038 20.6536 17.54 20.31C17.2765 20.1193 16.9869 19.9677 16.68 19.86C16.1404 19.6868 15.589 19.5531 15.03 19.46C14.5748 19.402 14.1379 19.245 13.75 19C13.5784 18.8892 13.4235 18.7545 13.29 18.6C13.29 18.53 13.17 18.48 13.21 18.43C13.3431 18.2834 13.5075 18.1686 13.691 18.0942C13.8745 18.0198 14.0724 17.9876 14.27 18L15.8 17.9C15.8533 17.8966 15.9052 17.8813 15.9519 17.8554C15.9986 17.8295 16.0389 17.7934 16.07 17.75C16.1304 17.7502 16.1894 17.7321 16.2393 17.6982C16.2893 17.6643 16.3278 17.6161 16.35 17.56C16.3681 17.5187 16.3778 17.4742 16.3785 17.4291C16.3792 17.384 16.371 17.3392 16.3542 17.2973C16.3375 17.2554 16.3126 17.2173 16.2809 17.1851C16.2493 17.153 16.2116 17.1274 16.17 17.11C15.5108 16.7725 14.9016 16.345 14.36 15.84C13.8237 15.3299 13.3655 14.7436 13 14.1C12.91 13.96 12.77 13.74 12.65 13.51C12.5903 13.4222 12.54 13.3283 12.5 13.23C12.6539 13.0842 12.8502 12.9911 13.0605 12.9641C13.2708 12.9371 13.4842 12.9777 13.67 13.08C14.5387 13.4472 15.3295 13.9766 16 14.64L16.88 15.64C16.9064 15.6885 16.9428 15.7308 16.9867 15.7642C17.0307 15.7976 17.0813 15.8213 17.1351 15.8336C17.1889 15.846 17.2448 15.8468 17.2989 15.836C17.3531 15.8252 17.4043 15.803 17.4492 15.7709C17.4942 15.7388 17.5318 15.6976 17.5596 15.6498C17.5874 15.6021 17.6047 15.5491 17.6104 15.4941C17.6162 15.4392 17.6102 15.3837 17.5929 15.3313C17.5756 15.2788 17.5473 15.2307 17.51 15.19H17.57L18.43 15.06C18.7064 15.045 18.9835 15.045 19.26 15.06C19.6572 15.0732 20.0509 15.1405 20.43 15.26C20.7747 15.3643 21.0946 15.5379 21.37 15.77C22.254 16.6714 22.8941 17.7829 23.23 19C23.2642 19.0968 23.3336 19.1773 23.4243 19.2254C23.5151 19.2736 23.6206 19.2859 23.72 19.26C23.7702 19.2464 23.817 19.2226 23.8577 19.1902C23.8983 19.1577 23.9318 19.1173 23.9562 19.0713C23.9806 19.0254 23.9953 18.975 23.9993 18.9231C24.0034 18.8713 23.9968 18.8192 23.98 18.77C23.806 17.7698 23.507 16.7955 23.09 15.87Z" fill="black"/>
<path fill-rule="evenodd" clip-rule="evenodd" d="M1.49997 0.0799868C1.22569 0.150892 0.96961 0.279257 0.748676 0.456582C0.527742 0.633906 0.347 0.856144 0.21842 1.10858C0.089839 1.36101 0.0163536 1.63788 0.00282967 1.92085C-0.0106943 2.20382 0.0360519 2.48644 0.139972 2.74999C1.16997 5.18999 4.99997 3.46999 3.99997 1.25999C3.7917 0.798099 3.42561 0.425579 2.96741 0.209311C2.50922 -0.00695802 1.98893 -0.0528101 1.49997 0.0799868ZM2.69997 2.86999C2.69997 2.86999 1.57997 3.68999 1.20997 2.38999C1.18385 2.27354 1.18168 2.153 1.2036 2.0357C1.22552 1.91839 1.27107 1.80676 1.33749 1.70761C1.4039 1.60846 1.48978 1.52385 1.58992 1.45894C1.69006 1.39402 1.80235 1.35015 1.91997 1.32999C2.12177 1.2624 2.34099 1.26851 2.53871 1.34723C2.73643 1.42596 2.89985 1.57219 2.99997 1.75999C3.06839 1.84799 3.11544 1.95068 3.13741 2.05996C3.15939 2.16925 3.15569 2.28214 3.1266 2.38975C3.09752 2.49736 3.04385 2.59675 2.96981 2.68008C2.89578 2.76342 2.80341 2.82843 2.69997 2.86999Z" fill="black"/>
<path fill-rule="evenodd" clip-rule="evenodd" d="M1.49997 6.50999C1.22569 6.5809 0.96961 6.70926 0.748676 6.88659C0.527742 7.06391 0.347 7.28615 0.21842 7.53858C0.089839 7.79102 0.0163536 8.06789 0.00282967 8.35086C-0.0106943 8.63383 0.0360519 8.91645 0.139972 9.17999C1.16997 11.62 4.99997 9.89999 3.99997 7.68999C3.79334 7.22676 3.42747 6.85296 2.96876 6.63645C2.51006 6.41995 1.98893 6.37508 1.49997 6.50999ZM1.20997 8.81999C1.18385 8.70355 1.18168 8.58301 1.2036 8.4657C1.22552 8.34839 1.27107 8.23677 1.33749 8.13762C1.4039 8.03847 1.48978 7.95386 1.58992 7.88894C1.69006 7.82403 1.80235 7.78015 1.91997 7.75999C2.12177 7.69241 2.34099 7.69852 2.53871 7.77724C2.73643 7.85596 2.89985 8.0022 2.99997 8.18999C3.66997 9.28999 1.61997 10.26 1.20997 8.81999Z" fill="black"/>
<path fill-rule="evenodd" clip-rule="evenodd" d="M1.49994 13C1.23291 13.072 0.983734 13.1987 0.768153 13.372C0.552572 13.5453 0.375275 13.7614 0.247464 14.0067C0.119653 14.252 0.0441077 14.5211 0.0256006 14.797C0.00709357 15.073 0.0460275 15.3498 0.139942 15.61C1.13994 18.05 4.94994 16.33 3.98994 14.12C3.77336 13.6699 3.40479 13.3107 2.94924 13.1058C2.49369 12.9009 1.98042 12.8634 1.49994 13ZM2.69994 15.78C2.69994 15.78 1.57994 16.6 1.20994 15.3C1.18382 15.1835 1.18165 15.063 1.20357 14.9457C1.22549 14.8284 1.27104 14.7168 1.33746 14.6176C1.40387 14.5184 1.48975 14.4338 1.58989 14.3689C1.69003 14.304 1.80232 14.2601 1.91994 14.24C2.11609 14.1681 2.33111 14.1668 2.52816 14.2361C2.7252 14.3054 2.89199 14.4411 2.99994 14.62C3.06836 14.708 3.11541 14.8107 3.13738 14.92C3.15936 15.0292 3.15566 15.1421 3.12657 15.2497C3.09749 15.3573 3.04382 15.4567 2.96978 15.5401C2.89575 15.6234 2.80338 15.6884 2.69994 15.73V15.78Z" fill="black"/>
<path fill-rule="evenodd" clip-rule="evenodd" d="M11.25 1.25999C11.0439 0.800999 10.6812 0.430281 10.2269 0.214106C9.77257 -0.00206973 9.25616 -0.0496094 8.76999 0.0799854C8.49571 0.150891 8.23963 0.279256 8.0187 0.45658C7.79776 0.633905 7.61702 0.856143 7.48844 1.10858C7.35986 1.36101 7.28637 1.63788 7.27285 1.92085C7.25933 2.20382 7.30607 2.48644 7.40999 2.74999C8.42999 5.18999 12.22 3.46999 11.25 1.25999ZM9.18999 1.32999C9.39322 1.2618 9.614 1.26754 9.81341 1.34621C10.0128 1.42487 10.1781 1.57141 10.28 1.75999C10.94 2.85999 8.87999 3.82999 8.46999 2.38999C8.44541 2.27293 8.44468 2.15212 8.46784 2.03477C8.49099 1.91742 8.53757 1.80595 8.60477 1.70701C8.67198 1.60806 8.75844 1.52368 8.85899 1.4589C8.95954 1.39412 9.07212 1.35028 9.18999 1.32999Z" fill="black"/>
<path fill-rule="evenodd" clip-rule="evenodd" d="M11.25 7.68999C11.0455 7.22967 10.6831 6.85768 10.2283 6.64127C9.77342 6.42485 9.25617 6.37829 8.76999 6.50999C8.49571 6.58089 8.23963 6.70926 8.0187 6.88658C7.79776 7.06391 7.61702 7.28615 7.48844 7.53858C7.35986 7.79101 7.28637 8.06788 7.27285 8.35086C7.25933 8.63383 7.30607 8.91644 7.40999 9.17999C8.42999 11.62 12.22 9.89999 11.25 7.68999ZM9.18999 7.75999C9.39322 7.6918 9.614 7.69754 9.81341 7.77621C10.0128 7.85488 10.1781 8.00141 10.28 8.18999C10.94 9.28999 8.87999 10.26 8.46999 8.81999C8.44541 8.70293 8.44468 8.58212 8.46784 8.46477C8.49099 8.34743 8.53757 8.23595 8.60477 8.13701C8.67198 8.03807 8.75844 7.95368 8.85899 7.88891C8.95954 7.82413 9.07212 7.78028 9.18999 7.75999Z" fill="black"/>
<path fill-rule="evenodd" clip-rule="evenodd" d="M8.76998 13C8.49693 13.0711 8.24201 13.1992 8.02199 13.3759C7.80196 13.5525 7.62181 13.7737 7.49336 14.025C7.36491 14.2762 7.29108 14.5518 7.2767 14.8335C7.26233 15.1153 7.30775 15.397 7.40998 15.66C8.40998 18.1 12.22 16.38 11.25 14.17C11.0454 13.7102 10.6825 13.3391 10.2273 13.1243C9.77212 12.9096 9.25496 12.8655 8.76998 13ZM8.46998 15.3C8.4454 15.1829 8.44466 15.0621 8.46782 14.9448C8.49098 14.8274 8.53755 14.716 8.60476 14.617C8.67196 14.5181 8.75843 14.4337 8.85898 14.3689C8.95953 14.3041 9.0721 14.2603 9.18998 14.24C9.39321 14.1718 9.61399 14.1775 9.8134 14.2562C10.0128 14.3349 10.178 14.4814 10.28 14.67C10.94 15.73 8.87998 16.68 8.46998 15.25V15.3Z" fill="black"/>
<path fill-rule="evenodd" clip-rule="evenodd" d="M18.52 1.25999C18.3112 0.793831 17.9419 0.418218 17.4793 0.201617C17.0167 -0.0149844 16.4917 -0.0581502 16 0.0799881C15.7257 0.150893 15.4696 0.279259 15.2487 0.456583C15.0277 0.633908 14.847 0.856145 14.7184 1.10858C14.5898 1.36101 14.5164 1.63788 14.5028 1.92085C14.4893 2.20383 14.5361 2.48644 14.64 2.74999C15.7 5.18999 19.48 3.46999 18.52 1.25999ZM16.45 1.32999C16.6531 1.25971 16.8746 1.26444 17.0745 1.34331C17.2745 1.42217 17.4396 1.56998 17.54 1.75999C18.2 2.85999 16.15 3.82999 15.74 2.38999C15.7138 2.27354 15.7117 2.153 15.7336 2.0357C15.7555 1.91839 15.8011 1.80677 15.8675 1.70761C15.9339 1.60846 16.0198 1.52386 16.1199 1.45894C16.2201 1.39402 16.3324 1.35015 16.45 1.32999Z" fill="black"/>
<path fill-rule="evenodd" clip-rule="evenodd" d="M18.52 7.68998C18.3129 7.22245 17.9438 6.84553 17.4807 6.62868C17.0176 6.41184 16.4917 6.36968 16 6.50998C15.7257 6.58088 15.4696 6.70925 15.2487 6.88657C15.0277 7.0639 14.847 7.28614 14.7184 7.53857C14.5898 7.791 14.5164 8.06787 14.5028 8.35084C14.4893 8.63382 14.5361 8.91643 14.64 9.17998C15.7 11.62 19.49 9.89998 18.52 7.68998ZM16.45 7.75998C16.6531 7.6897 16.8746 7.69443 17.0745 7.7733C17.2745 7.85216 17.4396 7.99997 17.54 8.18998C18.2 9.28998 16.15 10.26 15.74 8.81998C15.7138 8.70353 15.7117 8.58299 15.7336 8.46569C15.7555 8.34838 15.8011 8.23676 15.8675 8.13761C15.9339 8.03845 16.0198 7.95385 16.1199 7.88893C16.2201 7.82401 16.3324 7.78014 16.45 7.75998Z" fill="black"/>
</g>
<defs>
<clipPath id="clip0_1030_2221">
<rect width="24" height="24" fill="white"/>
</clipPath>
</defs>
</svg>
