<svg width="24" height="24" viewBox="0 0 24 24" fill="none" xmlns="http://www.w3.org/2000/svg">
<g clip-path="url(#clip0_1035_4927)">
<path fill-rule="evenodd" clip-rule="evenodd" d="M11.26 10.91C11.3658 11.0133 11.4916 11.0941 11.6296 11.1473C11.7677 11.2004 11.9151 11.225 12.0629 11.2194C12.2107 11.2137 12.3558 11.1781 12.4894 11.1146C12.623 11.0511 12.7423 10.9611 12.84 10.85C12.9629 10.6389 13.0043 10.3902 12.9564 10.1507C12.9085 9.91124 12.7746 9.69756 12.58 9.55C11.59 9 10.38 10 11.26 10.91Z" fill="black"/>
<path fill-rule="evenodd" clip-rule="evenodd" d="M6.74 12.65C7.69557 13.0656 8.70589 13.3417 9.74 13.47C11.29 13.66 15.19 13.71 16.62 13.08C17.0996 12.9153 17.5068 12.5885 17.7715 12.1559C18.0361 11.7233 18.1417 11.212 18.07 10.71C17.83 9.09 14.82 2.71 13.97 2.3C13.8 2.22 13.31 2.22 13.5 2.75C14.4288 4.07273 15.2007 5.49897 15.8 7C16.3129 8.25506 16.7471 9.54089 17.1 10.85C17.1341 11.0386 17.1132 11.2329 17.04 11.41C16.8581 11.7308 16.5671 11.9756 16.22 12.1C15.11 12.55 11.34 12.5 9.9 12.32C8.97135 12.2159 8.06224 11.9802 7.2 11.62C6.06 11.12 6.91 10.15 7.4 9.01C8.09 7.39 11.4 1.4 12.6 1.88C12.6728 1.89875 12.7499 1.89041 12.8171 1.85652C12.8842 1.82264 12.9367 1.76552 12.9648 1.6958C12.9929 1.62608 12.9948 1.54851 12.97 1.47754C12.9452 1.40657 12.8954 1.34702 12.83 1.31C10.73 0.379999 5.57 9.55 5.53 11C5.53456 11.3668 5.65364 11.7231 5.87059 12.0189C6.08754 12.3147 6.3915 12.5354 6.74 12.65Z" fill="black"/>
<path fill-rule="evenodd" clip-rule="evenodd" d="M11.84 8C12.4 8.29 12.59 7.16 12.61 6.52C12.6063 5.75827 12.4675 5.00323 12.2 4.29C12.12 4.16 11.78 4.04 11.63 4.49C11.358 5.11936 11.2746 5.81416 11.39 6.49C11.43 7.38 11.54 7.89 11.84 8Z" fill="black"/>
<path fill-rule="evenodd" clip-rule="evenodd" d="M3.31 17.39C2.33 15.28 1 7.42 1.24 6.7C1.39 6.3 1.05 5.96 4.14 5.32C4.92953 5.14572 5.7324 5.03867 6.54 5C6.62143 4.98608 6.69531 4.94382 6.74857 4.88068C6.80184 4.81754 6.83105 4.7376 6.83105 4.655C6.83105 4.57239 6.80184 4.49245 6.74857 4.42931C6.69531 4.36617 6.62143 4.32391 6.54 4.31C5.69067 4.31505 4.84243 4.37182 4 4.48C0.550002 5 0.560002 5.51 0.210002 6.28C-0.429998 7.77 1.26 14.74 2.76 17.66C2.80239 17.7207 2.86508 17.7641 2.93673 17.7826C3.00839 17.8011 3.08428 17.7933 3.15071 17.7607C3.21713 17.7281 3.2697 17.6728 3.29892 17.6048C3.32813 17.5368 3.33206 17.4606 3.31 17.39Z" fill="black"/>
<path fill-rule="evenodd" clip-rule="evenodd" d="M20 5.33C20.9512 5.51776 21.819 6.00065 22.48 6.71C22.75 7.71 22.02 14.87 21.42 17.43C21.4049 17.5154 21.422 17.6033 21.468 17.6768C21.5141 17.7503 21.5857 17.8041 21.6692 17.8277C21.7526 17.8514 21.8418 17.8432 21.9195 17.8048C21.9973 17.7665 22.058 17.7006 22.09 17.62C22.7244 15.4527 23.1892 13.2394 23.48 11C23.757 9.45076 23.7806 7.86682 23.55 6.31C23.4401 6.08016 23.2752 5.88095 23.07 5.73C21.56 4.48 19.47 4.36 17.48 4.36C17.4398 4.35866 17.3997 4.36543 17.3621 4.3799C17.3246 4.39437 17.2903 4.41626 17.2614 4.44425C17.2324 4.47224 17.2095 4.50577 17.1938 4.54284C17.1781 4.5799 17.17 4.61975 17.17 4.66C17.15 5.21 17.91 4.8 20 5.33Z" fill="black"/>
<path fill-rule="evenodd" clip-rule="evenodd" d="M24 18.91C23.78 18 21.67 18.05 22 18.79C22.0156 18.8322 22.0393 18.8708 22.0699 18.9038C22.1005 18.9367 22.1374 18.9632 22.1783 18.9818C22.2192 19.0004 22.2634 19.0107 22.3083 19.0121C22.3532 19.0135 22.398 19.006 22.44 18.99C22.739 18.8984 23.0619 18.9271 23.34 19.07C23.3378 19.5241 23.2278 19.9711 23.0192 20.3744C22.8106 20.7777 22.5093 21.1258 22.14 21.39C21.85 21.54 6.08 21.92 2.14 21.33C1.51 20.69 1 19.24 1.14 19.33C15.64 18.25 21.07 19.44 21.14 18.73C21.1255 18.6293 21.0749 18.5373 20.9976 18.4711C20.9204 18.4049 20.8217 18.369 20.72 18.37C18.47 18.2 4.21 17.59 1.12 18.24C0.753919 18.285 0.420054 18.4717 0.189999 18.76C-0.350001 19.76 0.5 21.41 1.25 22.19C2.51 23.49 22.03 22.37 22.44 22.19C22.9721 21.8352 23.398 21.3428 23.6727 20.7653C23.9474 20.1878 24.0605 19.5466 24 18.91Z" fill="black"/>
</g>
<defs>
<clipPath id="clip0_1035_4927">
<rect width="24" height="24" fill="white"/>
</clipPath>
</defs>
</svg>
