<svg width="24" height="24" viewBox="0 0 24 24" fill="none" xmlns="http://www.w3.org/2000/svg">
<g clip-path="url(#clip0_1030_2253)">
<path fill-rule="evenodd" clip-rule="evenodd" d="M4.65 5.00001C4.00512 4.78921 3.32798 4.69441 2.65 4.72001C1.97682 4.69689 1.3037 4.76757 0.65 4.93001C0.515581 4.96479 0.393658 5.03668 0.298168 5.13748C0.202677 5.23828 0.13747 5.3639 0.11 5.50001C0.05 5.81001 0 8.00001 0 10.52C0 12.24 0.11 14.08 0.23 15.52C0.26221 16.3051 0.386392 17.0838 0.6 17.84C0.630183 17.9424 0.686703 18.0351 0.763914 18.1088C0.841125 18.1825 0.936324 18.2346 1.04 18.26C1.51041 18.3255 1.98508 18.3556 2.46 18.35C3.15779 18.3581 3.85549 18.328 4.55 18.26C4.59433 18.2611 4.63838 18.2527 4.67918 18.2353C4.71998 18.2179 4.75658 18.192 4.7865 18.1593C4.81643 18.1266 4.83898 18.0878 4.85265 18.0456C4.86631 18.0034 4.87077 17.9588 4.86571 17.9148C4.86065 17.8707 4.84621 17.8282 4.82334 17.7903C4.80048 17.7523 4.76973 17.7196 4.73317 17.6945C4.69661 17.6694 4.65509 17.6525 4.61141 17.6448C4.56774 17.6371 4.52293 17.6389 4.48 17.65H2.81C2.32441 17.6449 1.83982 17.6048 1.36 17.53C1.36 17.42 1.23 17.18 1.2 16.9C1.1 16.01 1.08 14.56 1.08 12.99C1.08 10.17 1.15 6.99001 1.22 5.99001C1.97264 5.86048 2.73793 5.8202 3.5 5.87001H4C4 6.27001 4.06 6.98001 4.08 7.87001C4.15 10.66 4.17 15.11 4.28 16.98C4.27869 17.0273 4.2867 17.0744 4.30358 17.1185C4.32046 17.1627 4.34587 17.2031 4.37837 17.2375C4.41087 17.2719 4.44982 17.2995 4.493 17.3188C4.53617 17.3381 4.58272 17.3487 4.63 17.35C4.67728 17.3513 4.72435 17.3433 4.76853 17.3264C4.81271 17.3096 4.85313 17.2841 4.88749 17.2516C4.92184 17.2191 4.94947 17.1802 4.96877 17.137C4.98807 17.0938 4.99869 17.0473 5 17C5 15.14 5.11 10.7 5.14 7.92001V5.57001C5.11475 5.44067 5.05631 5.32012 4.9704 5.22019C4.8845 5.12026 4.77408 5.04438 4.65 5.00001Z" fill="black"/>
<path fill-rule="evenodd" clip-rule="evenodd" d="M23.92 5.81002C23.9022 5.68365 23.8512 5.56428 23.7721 5.46413C23.693 5.36397 23.5888 5.28663 23.47 5.24002C22.8239 5.03435 22.1477 4.93968 21.47 4.96002C20.797 4.94147 20.1245 5.01209 19.47 5.17002C19.3343 5.20555 19.2114 5.27895 19.1158 5.38164C19.0202 5.48433 18.9558 5.61209 18.93 5.75002C18.93 6.04002 18.82 7.75002 18.83 9.80002C18.84 11.85 18.93 14.08 19.07 15.8C19.1009 16.582 19.2251 17.3575 19.44 18.11C19.4712 18.2113 19.5267 18.3035 19.6016 18.3784C19.6765 18.4534 19.7687 18.5088 19.87 18.54C20.3409 18.6001 20.8152 18.6302 21.29 18.63C22.01 18.63 22.75 18.63 23.23 18.55H23.32C23.4113 18.5584 23.5023 18.5307 23.5734 18.4727C23.6444 18.4147 23.6899 18.3312 23.7 18.24C23.85 16.86 23.94 14.41 23.98 12.05C24 9.18002 24 6.43002 23.92 5.81002ZM23 17.92H21.62C21.1346 17.9099 20.6504 17.8699 20.17 17.8C20.17 17.69 20.04 17.45 20.01 17.17C19.8996 15.8664 19.8562 14.558 19.88 13.25C19.88 10.44 19.96 7.25002 20.02 6.25002C20.7752 6.14364 21.5397 6.12016 22.3 6.18002C22.4761 6.21565 22.6498 6.26241 22.82 6.32002C22.91 7.32002 23 9.64002 23.04 12.08C23.1 14.25 23.1 16.52 23 17.92Z" fill="black"/>
<path fill-rule="evenodd" clip-rule="evenodd" d="M16.16 1.65C16.0936 1.69484 16.0472 1.7636 16.0304 1.84189C16.0137 1.92018 16.0278 2.00192 16.07 2.07C16.63 2.92 16.69 6.31 16.56 10.07C16.4459 13.7533 16.1119 17.4265 15.56 21.07C15.47 21.52 15.48 22.07 15.32 21.99C15.16 21.91 15.32 21.99 15.39 21.91C15.2147 21.971 15.0338 22.0145 14.85 22.04C13.774 22.2038 12.6882 22.294 11.6 22.31C10.649 22.3444 9.69686 22.3143 8.74998 22.22C8.46589 22.1783 8.18744 22.1045 7.91998 22C7.91998 21.89 7.82998 21.62 7.78998 21.36C7.52948 18.2673 7.44601 15.1622 7.53998 12.06C7.52135 8.63779 7.67487 5.2168 7.99998 1.81L8.28998 1.66C9.11637 1.42523 9.97089 1.30411 10.83 1.3C11.9283 1.24657 13.0293 1.29007 14.12 1.43C14.1647 1.43707 14.2104 1.43514 14.2543 1.42433C14.2983 1.41351 14.3396 1.39403 14.376 1.36701C14.4123 1.34 14.4429 1.30601 14.4659 1.26703C14.4889 1.22804 14.5039 1.18486 14.51 1.14C14.5216 1.0501 14.4978 0.959206 14.4437 0.886463C14.3896 0.813721 14.3094 0.764802 14.22 0.750004C12.6308 0.515434 11.0189 0.475138 9.41998 0.630004C8.83356 0.65885 8.25587 0.783848 7.70998 1C7.59904 1.04639 7.49853 1.11453 7.41437 1.20041C7.33021 1.28629 7.26411 1.38816 7.21998 1.5C6.92998 2.33 6.43998 10.34 6.41998 16.22C6.36958 18.1512 6.46653 20.0835 6.70998 22C6.74949 22.3544 6.91231 22.6836 7.16998 22.93C7.73998 23.33 9.69998 23.52 11.67 23.46C13.1847 23.4922 14.6936 23.2621 16.13 22.78C16.4251 22.3992 16.6024 21.9403 16.64 21.46C17.059 18.3734 17.2927 15.2645 17.34 12.15C17.47 7.47 17.29 2.77 16.58 1.74C16.5587 1.70613 16.5308 1.67686 16.498 1.65393C16.4652 1.631 16.4281 1.61486 16.3889 1.60648C16.3498 1.59809 16.3094 1.59762 16.2701 1.6051C16.2307 1.61257 16.1933 1.62784 16.16 1.65Z" fill="black"/>
</g>
<defs>
<clipPath id="clip0_1030_2253">
<rect width="24" height="24" fill="white"/>
</clipPath>
</defs>
</svg>
