<svg width="24" height="24" viewBox="0 0 24 24" fill="none" xmlns="http://www.w3.org/2000/svg">
<g clip-path="url(#clip0_1030_2258)">
<path fill-rule="evenodd" clip-rule="evenodd" d="M23 1.76C22.62 1.42963 22.1498 1.22065 21.65 1.16C17.7336 0.562035 13.7675 0.354349 9.81 0.540005C7.1591 0.501874 4.51329 0.783915 1.93 1.38001C1.71919 1.42576 1.52073 1.51645 1.34815 1.64588C1.17558 1.77531 1.03295 1.94044 0.929998 2.13001C0.387403 5.3288 0.0998315 8.56565 0.0699981 11.81C-0.0700019 16 -1.90735e-06 20.3 0.339998 21.54C0.473547 21.8202 0.670478 22.0655 0.915204 22.2564C1.15993 22.4473 1.44573 22.5786 1.75 22.64C3.51025 23.1058 5.31958 23.3609 7.14 23.4C11.2853 23.5811 15.4382 23.4808 19.57 23.1C20.6816 23.0627 21.7795 22.8431 22.82 22.45C23.1296 22.113 23.3225 21.6852 23.37 21.23C23.821 18.1745 24.0317 15.0884 24 12C24 7.37 23.7 2.70001 23 1.76ZM9.39 22.38C7.07583 22.3851 4.7672 22.1539 2.5 21.69C2.20284 21.6185 1.91444 21.5145 1.64 21.38C1.53 21.32 1.44 21.29 1.42 21.22C1.07 20.03 1.06 15.92 1.17 11.84C1.17033 8.70874 1.38751 5.58126 1.82 2.48001C1.8972 2.42042 1.9811 2.37008 2.07 2.33C2.51042 2.17233 2.96629 2.06172 3.43 2.00001C6.26399 1.53947 9.12894 1.29543 12 1.27H15.78C15.83 2.99001 15.78 5.68001 15.68 8.64001V11.8V14.96V22.32C13.66 22.42 11.47 22.44 9.39 22.38ZM22.51 20.84C22.4451 21.1317 22.3616 21.419 22.26 21.7C21.4978 21.919 20.7123 22.0466 19.92 22.08C18.92 22.18 17.68 22.27 16.33 22.32C16.44 20.45 16.6 17.73 16.69 14.8C16.69 13.13 16.78 11.4 16.76 9.73C16.76 6.36 16.55 3.23 16.37 1.31C17.788 1.3418 19.2033 1.44861 20.61 1.63001C21.2608 1.6433 21.8975 1.82227 22.46 2.15001C23.06 2.91001 23.25 6.25 23.25 9.96C23.2973 13.6007 23.0498 17.2392 22.51 20.84Z" fill="black"/>
</g>
<defs>
<clipPath id="clip0_1030_2258">
<rect width="24" height="24" fill="white"/>
</clipPath>
</defs>
</svg>
