<svg width="24" height="24" viewBox="0 0 24 24" fill="none" xmlns="http://www.w3.org/2000/svg">
<g clip-path="url(#clip0_1033_3772)">
<path fill-rule="evenodd" clip-rule="evenodd" d="M23.88 9.72002C23.8111 8.21623 23.1876 6.79124 22.13 5.72002C21.7546 5.29181 21.2938 4.94691 20.7771 4.70751C20.2604 4.46812 19.6993 4.33953 19.13 4.33002C17.15 4.25002 10.67 4.00002 8.74997 4.15002C7.86004 4.10356 6.9704 4.24672 6.13997 4.57002C5.5566 4.86697 5.07069 5.32511 4.73997 5.89002C4.36997 6.51002 4.73997 6.22002 3.23997 6.89002C1.56997 7.86002 0.429972 7.75002 0.0599723 10.36C-0.0308143 11.2811 -0.0308143 12.2089 0.0599723 13.13C0.012688 14.237 0.344266 15.3269 0.999972 16.22C1.40588 16.5766 1.88316 16.8425 2.39997 17C3.09928 17.3417 3.83357 17.6066 4.58997 17.79L4.99997 18C5.30001 18.5923 5.76098 19.0879 6.32997 19.43C7.65533 19.6247 8.99095 19.7416 10.33 19.78C11.72 19.92 13.17 19.9 14.56 19.9C17.34 19.74 19.69 19.97 20.41 19.55C20.93 19.26 20.88 18.71 20.53 18.67C20.18 18.63 21.12 18.91 18.53 19C17.9845 18.8875 17.4842 18.617 17.0912 18.2223C16.6983 17.8275 16.4301 17.326 16.32 16.78C15.6 14.22 15.81 8.78002 17.77 6.71002C18.49 5.92002 19.09 5.26002 20.08 5.66002C23.67 7.15002 23.56 12.81 22.28 16.43C21.73 18 21.28 18 21.28 18.37C21.2786 18.4147 21.2861 18.4592 21.302 18.5009C21.3179 18.5427 21.3418 18.5809 21.3724 18.6134C21.4031 18.6459 21.4398 18.6721 21.4806 18.6904C21.5214 18.7086 21.5653 18.7187 21.61 18.72C22.47 18.71 24.5 13.75 23.88 9.72002ZM2.81997 16.29C1.81997 15.68 1.33997 15.89 1.23997 13.07C1.17997 11.97 0.949972 10.07 1.51997 9.07002C1.86997 8.46002 3.00997 8.07002 3.65997 7.60002C4.30997 7.13002 3.75997 7.38002 3.41997 9.06002C2.89988 11.7803 3.30469 14.5964 4.56997 17.06C3.96007 16.8686 3.37317 16.6103 2.81997 16.29ZM15 13.05C14.9865 13.8004 15.0434 14.5503 15.17 15.29C15.45 16.82 15.7 18.16 16.98 19.02C12.73 19.11 6.18997 18.44 6.86997 18.5C5.57997 17.83 3.18997 12.16 4.99997 7.84002C5.90997 5.65002 6.49997 5.32002 7.99997 5.18002C10.87 4.92002 17.81 4.94002 17.91 4.95002C15.44 6.80002 15 9.91002 15 13.05Z" fill="black"/>
<path fill-rule="evenodd" clip-rule="evenodd" d="M13 15.37C11.87 11.97 12 9.84002 14.65 5.37002C14.85 4.91002 14.04 4.92002 13.73 5.25002C13.2621 5.78819 12.8531 6.37486 12.51 7.00002C11.84 8.15002 13.08 7.14002 8.80998 7.27002C9.06416 6.67519 9.3686 6.10312 9.71998 5.56002C9.95998 5.16002 9.14998 5.13002 8.88998 5.56002C7.64997 7.20623 7.01755 9.23069 7.09998 11.29C6.87135 13.7269 7.50866 16.1664 8.89998 18.18C9.21998 18.53 9.74998 18.54 9.81998 18.18C9.33256 17.6022 8.98977 16.9166 8.81998 16.18C10.22 16.33 10.34 16.02 12.16 16.08C12.4224 16.9099 12.8323 17.6856 13.37 18.37C13.74 18.83 14.63 18.75 14.37 18.45C14 18.06 13.77 17.86 13 15.37ZM8.49998 8.06002C9.57757 8.42055 10.719 8.55003 11.85 8.44002C11.5041 9.3629 11.3083 10.3352 11.27 11.32C11.27 11.55 11.43 11.43 10.45 11.32C9.63037 11.1899 8.79177 11.2515 7.99998 11.5C7.96996 10.3333 8.13905 9.16995 8.49998 8.06002ZM8.58998 15.28C8.27724 14.3077 8.08907 13.2997 8.02998 12.28C9.39998 12.36 9.10998 12.39 10.03 12.42H11.33C11.4175 13.401 11.6223 14.3679 11.94 15.3C10.8498 14.9628 9.68413 14.9558 8.58998 15.28Z" fill="black"/>
<path fill-rule="evenodd" clip-rule="evenodd" d="M21.81 12.8C22.0476 11.7432 22.0883 10.6516 21.93 9.58004C21.755 8.79603 21.2862 8.10891 20.62 7.66004C20.5915 7.62848 20.5567 7.60333 20.5178 7.58626C20.4788 7.56918 20.4367 7.56057 20.3943 7.56099C20.3518 7.56141 20.3098 7.57086 20.2713 7.5887C20.2327 7.60654 20.1984 7.63238 20.1705 7.66449C20.1427 7.69661 20.122 7.73427 20.1098 7.77499C20.0976 7.8157 20.0942 7.85854 20.0999 7.90067C20.1055 7.94279 20.12 7.98324 20.1424 8.01934C20.1649 8.05543 20.1947 8.08635 20.23 8.11004C20.7057 8.86677 20.9491 9.7464 20.93 10.64C21.16 12.81 21.03 13.13 21.46 13.13C21.5046 13.1314 21.5491 13.1239 21.5909 13.108C21.6327 13.0922 21.6709 13.0682 21.7034 13.0376C21.7359 13.0069 21.762 12.9702 21.7803 12.9294C21.7986 12.8887 21.8087 12.8447 21.81 12.8Z" fill="black"/>
</g>
<defs>
<clipPath id="clip0_1033_3772">
<rect width="24" height="24" fill="white"/>
</clipPath>
</defs>
</svg>
