<svg width="24" height="24" viewBox="0 0 24 24" fill="none" xmlns="http://www.w3.org/2000/svg">
<g clip-path="url(#clip0_1033_3815)">
<path d="M8.94002 7.15998C8.20002 6.31998 6.72002 7.39998 7.75002 8.37998C8.39002 8.99998 9.64002 7.99998 8.94002 7.15998Z" fill="black"/>
<path d="M7.75001 11.9999C8.39001 12.6099 9.64001 11.5799 8.94001 10.7799C8.24001 9.97995 6.72001 10.9999 7.75001 11.9999Z" fill="black"/>
<path d="M12.76 7.15998C12.02 6.31998 10.54 7.39998 11.57 8.37998C12.21 8.99998 13.46 7.99998 12.76 7.15998Z" fill="black"/>
<path d="M11.57 11.9999C12.21 12.6099 13.46 11.5799 12.76 10.7799C12.06 9.97995 10.54 10.9999 11.57 11.9999Z" fill="black"/>
<path d="M16.65 7.15997C16.5745 7.06319 16.4791 6.98369 16.3704 6.92682C16.2616 6.86994 16.1419 6.83701 16.0194 6.83023C15.8968 6.82345 15.7742 6.84299 15.6598 6.88752C15.5455 6.93206 15.4419 7.00056 15.3562 7.08842C15.2705 7.17629 15.2046 7.28148 15.163 7.39693C15.1213 7.51239 15.1048 7.63542 15.1146 7.75777C15.1245 7.88012 15.1604 7.99894 15.2199 8.10626C15.2795 8.21359 15.3613 8.30691 15.46 8.37997C16.1 8.99997 17.36 7.99997 16.65 7.15997Z" fill="black"/>
<path d="M15.46 12C16.1 12.61 17.36 11.58 16.65 10.78C16.5745 10.6832 16.4791 10.6037 16.3704 10.5468C16.2616 10.4899 16.1419 10.457 16.0194 10.4502C15.8968 10.4434 15.7742 10.463 15.6598 10.5075C15.5455 10.5521 15.4419 10.6206 15.3562 10.7084C15.2705 10.7963 15.2046 10.9015 15.163 11.0169C15.1213 11.1324 15.1048 11.2554 15.1146 11.3778C15.1245 11.5001 15.1604 11.6189 15.2199 11.7263C15.2795 11.8336 15.3613 11.9269 15.46 12Z" fill="black"/>
<path d="M20 5.74998C19.72 5.08998 18.76 4.98998 18.22 4.83998C16.4194 4.48649 14.5784 4.38552 12.75 4.53998C10.75 4.53998 8.63997 4.53998 6.60997 4.71998C6.53355 4.73344 6.46431 4.77339 6.41443 4.83283C6.36454 4.89227 6.3372 4.96738 6.3372 5.04498C6.3372 5.12258 6.36454 5.19769 6.41443 5.25713C6.46431 5.31657 6.53355 5.35652 6.60997 5.36998C8.65997 5.22998 10.66 5.28998 12.69 5.36998C14.4367 5.26564 16.1896 5.40022 17.9 5.76998C18.1 5.82998 18.99 6.01998 19.04 6.14998C19.38 6.98998 19.14 8.92998 19.1 9.87998C19.1494 10.442 19.0864 11.0081 18.9147 11.5455C18.743 12.0829 18.466 12.5807 18.1 13.01C16.78 14.17 13.88 13.72 12.24 13.76C10.24 13.84 5.74997 14.18 5.15997 12.62C4.89655 10.4205 4.90662 8.19694 5.18997 5.99998C5.19665 5.93004 5.17772 5.86005 5.13668 5.80302C5.09565 5.74599 5.0353 5.70579 4.96686 5.6899C4.89842 5.67402 4.82654 5.68352 4.76458 5.71664C4.70261 5.74976 4.65478 5.80425 4.62997 5.86998C4.38997 6.86998 4.10997 11.79 4.46997 12.87C4.69114 13.3297 5.02929 13.7233 5.45053 14.0111C5.87176 14.299 6.36127 14.471 6.86997 14.51C7.69997 14.66 7.39997 14.51 7.39997 14.75C7.55997 18.54 7.48997 19.01 7.78997 19.7C7.97059 20.0971 8.2642 20.4321 8.63413 20.6633C9.00405 20.8945 9.43389 21.0116 9.86997 21C9.68834 21.6624 9.73412 22.3666 9.99997 23C10.0181 23.0764 10.063 23.1439 10.1265 23.1902C10.19 23.2366 10.268 23.2587 10.3463 23.2527C10.4247 23.2467 10.4983 23.2129 10.554 23.1574C10.6097 23.1019 10.6437 23.0283 10.65 22.95C10.834 22.3371 10.8683 21.6889 10.75 21.06L12.32 20.96C12.1789 21.7246 12.234 22.5124 12.48 23.25C12.4934 23.3264 12.5334 23.3956 12.5928 23.4455C12.6523 23.4954 12.7274 23.5228 12.805 23.5228C12.8826 23.5228 12.9577 23.4954 13.0171 23.4455C13.0766 23.3956 13.1165 23.3264 13.13 23.25C13.3576 22.4964 13.3818 21.6959 13.2 20.93C13.5711 20.9297 13.9406 20.8826 14.3 20.79C16.46 20.18 16.48 16.67 16.63 14.79C19.33 14.37 20.15 12.64 20.21 9.92998C20.25 8.79998 20.49 6.83998 20 5.74998ZM14.53 19.53C14.16 19.9 13.33 19.78 10.65 19.96C8.20997 19.78 8.57997 20 7.99997 14.75C7.99997 14.54 7.48997 14.83 12.33 14.75C13.33 14.75 14.7 14.89 16 14.75C15.76 16.43 15.64 18.4 14.53 19.53Z" fill="black"/>
<path d="M23.53 5.19999C23.1072 5.23331 22.7003 5.37626 22.3496 5.61475C21.9989 5.85324 21.7164 6.17903 21.53 6.55999C21.4716 6.60773 21.4346 6.67669 21.4271 6.75171C21.4196 6.82672 21.4422 6.90165 21.49 6.95999C21.5377 7.01834 21.6067 7.05533 21.6817 7.06284C21.7567 7.07034 21.8316 7.04773 21.89 6.99999C22.3719 6.87908 22.8199 6.64994 23.2 6.32999C23.41 6.14999 23.58 5.95999 23.79 5.77999C23.8453 5.73392 23.8841 5.67099 23.9004 5.60082C23.9166 5.53065 23.9095 5.45709 23.88 5.39136C23.8505 5.32564 23.8004 5.27135 23.7372 5.2368C23.674 5.20225 23.6012 5.18932 23.53 5.19999Z" fill="black"/>
<path d="M0.539999 4.30996C0.473558 4.26796 0.39431 4.25107 0.316518 4.2623C0.238726 4.27354 0.167498 4.31217 0.115655 4.37125C0.0638116 4.43032 0.034757 4.50597 0.0337201 4.58456C0.0326833 4.66315 0.0597324 4.73953 0.109999 4.79996C0.299999 5.03996 0.429999 5.31996 0.609999 5.58996C0.926182 6.0777 1.35487 6.48238 1.86 6.76996C1.91194 6.81727 1.97929 6.84412 2.04954 6.84551C2.11979 6.8469 2.18815 6.82274 2.24193 6.77752C2.2957 6.7323 2.33123 6.66909 2.34191 6.59965C2.35259 6.53021 2.3377 6.45925 2.3 6.39996C2.17113 5.94693 1.94762 5.5264 1.64423 5.16613C1.34084 4.80586 0.964483 4.51405 0.539999 4.30996Z" fill="black"/>
<path d="M5.46002 1.99999C5.65124 2.55064 5.99873 3.03365 6.46002 3.38999C6.47906 3.42217 6.50426 3.45028 6.53416 3.47271C6.56407 3.49515 6.5981 3.51148 6.63431 3.52077C6.67053 3.53005 6.70822 3.53211 6.74523 3.52683C6.78224 3.52155 6.81785 3.50904 6.85002 3.48999C6.8822 3.47095 6.91031 3.44576 6.93274 3.41586C6.95518 3.38595 6.97151 3.35192 6.98079 3.3157C6.99008 3.27949 6.99214 3.2418 6.98686 3.20479C6.98158 3.16778 6.96906 3.13217 6.95002 3.09999C6.86249 2.20072 6.43724 1.36809 5.76002 0.769994C5.70963 0.710986 5.64006 0.671623 5.56352 0.65882C5.48699 0.646017 5.40839 0.660594 5.34154 0.69999C5.27469 0.739385 5.22385 0.801079 5.19797 0.874233C5.17209 0.947387 5.17282 1.02732 5.20002 1.09999C5.31002 1.39999 5.35002 1.68999 5.46002 1.99999Z" fill="black"/>
<path d="M11.83 2.69997C11.83 2.77689 11.8605 2.85065 11.9149 2.90504C11.9693 2.95942 12.0431 2.98997 12.12 2.98997C12.1969 2.98997 12.2707 2.95942 12.3251 2.90504C12.3794 2.85065 12.41 2.77689 12.41 2.69997C12.7 1.79997 12.76 1.92997 12.41 0.779975C12.3965 0.703553 12.3566 0.634318 12.2971 0.584432C12.2377 0.534547 12.1626 0.507202 12.085 0.507202C12.0074 0.507202 11.9323 0.534547 11.8728 0.584432C11.8134 0.634318 11.7734 0.703553 11.76 0.779975C11.45 1.99997 11.49 1.77997 11.83 2.69997Z" fill="black"/>
<path d="M17.36 3.44C17.61 3.17 17.88 2.94 18.12 2.63C18.46 2.16 18.61 1.63 18.85 1.25C18.9097 1.189 18.9427 1.10679 18.9417 1.02146C18.9408 0.936136 18.906 0.854674 18.845 0.795C18.784 0.735326 18.7018 0.702329 18.6165 0.703267C18.5311 0.704204 18.4497 0.739 18.39 0.8C17.9696 1.04794 17.6125 1.3902 17.347 1.79976C17.0815 2.20932 16.9148 2.67498 16.86 3.16C16.8359 3.22483 16.8358 3.29614 16.8597 3.36105C16.8835 3.42597 16.9298 3.48021 16.9902 3.51401C17.0505 3.5478 17.1209 3.55891 17.1888 3.54534C17.2566 3.53177 17.3173 3.49441 17.36 3.44Z" fill="black"/>
</g>
<defs>
<clipPath id="clip0_1033_3815">
<rect width="24" height="24" fill="white"/>
</clipPath>
</defs>
</svg>
