<svg width="24" height="24" viewBox="0 0 24 24" fill="none" xmlns="http://www.w3.org/2000/svg">
<g clip-path="url(#clip0_1033_3781)">
<path fill-rule="evenodd" clip-rule="evenodd" d="M11.6299 17.74C12.481 17.7371 13.3229 17.564 14.106 17.2308C14.8891 16.8976 15.5977 16.4112 16.1899 15.8C17.2668 14.5117 17.8232 12.8675 17.7499 11.19C17.6854 10.3435 17.3762 9.534 16.8599 8.86C15.1699 6.53 13.5199 6.86 11.5499 6.5C10.9999 6.5 11.0999 6.77 11.0699 13.07V17.19C11.0726 17.3368 11.1327 17.4767 11.2375 17.5795C11.3422 17.6824 11.4831 17.74 11.6299 17.74ZM16.2499 9.28C16.6446 9.83176 16.8767 10.483 16.9199 11.16C16.7499 14.55 14.8399 16.35 12.1899 16.61C12.1899 13.51 12.0499 10.43 11.9199 7.26C14.5299 7.4 15.1899 7.69 16.2499 9.28Z" fill="black"/>
<path fill-rule="evenodd" clip-rule="evenodd" d="M23.58 10.43C23.35 10.31 22.96 10.27 22.79 10.18C21.773 9.7458 20.8044 9.20618 19.9 8.56999C20.2131 7.29183 20.4502 5.99623 20.61 4.68999C20.61 4.46999 21.08 3.42999 20.2 3.41999C20.12 3.41999 15.2 4.14999 15.2 4.22999C14.56 2.99999 13.35 0.269992 12.1 0.459992C11 0.629992 10.4 2.27999 9.84998 2.99999C9.12998 3.99999 8.84998 4.33999 8.84998 4.55999C8.84998 4.77999 8.93997 4.91999 9.22997 4.88999C9.61289 4.40578 9.97005 3.90175 10.3 3.37999C10.78 2.82999 11.47 1.25999 12.19 1.15999C12.42 1.15999 12.7 1.47999 12.87 1.65999C13.3942 2.35373 13.8371 3.10531 14.19 3.89999C14.36 4.21999 14.49 4.75999 14.89 4.95999C15 4.99999 19 4.49999 19.11 4.47999C19.22 4.45999 19.52 4.47999 19.79 4.47999C18.91 9.05999 18.94 8.47999 18.94 8.72999C18.94 9.50999 20.8 10.24 22.68 11.3C19.68 14.88 18.84 14.56 19.12 15.45C19.5017 16.2241 19.6969 17.0769 19.69 17.94C19.8 19.28 19.69 19.3 19.8 19.83C19.06 19.83 20.23 19.94 16.69 19.6C16.04 19.51 15.4 19.15 14.88 19.83C14.7521 20.0588 14.6049 20.2762 14.44 20.48L12.66 22.2C12.4581 22.0462 12.2441 21.909 12.02 21.79C10.41 20.6 10.02 19.41 7.39998 19.61C6.3361 19.7078 5.28236 19.8951 4.24998 20.17C4.24998 19.94 4.61998 16.7 4.61998 16.7C4.61998 16.47 4.92998 15.99 4.76998 15.7C4.28998 14.77 3.14998 14.79 0.949975 12.79C1.94998 11.79 4.48997 10.79 4.15998 9.35999C3.98997 8.60999 4.28998 10.43 3.22998 5.41999C3.53783 5.32832 3.85932 5.2911 4.17998 5.30999C4.25997 5.30999 7.56998 5.96999 7.55998 5.05999C7.56278 5.01415 7.55599 4.96822 7.54003 4.92516C7.52407 4.88209 7.4993 4.84283 7.46729 4.80988C7.43529 4.77694 7.39676 4.75104 7.35418 4.73384C7.31159 4.71664 7.26588 4.70851 7.21997 4.70999C6.66997 4.64999 2.83998 4.53999 2.58998 4.78999C2.54496 4.84003 2.5103 4.89849 2.48799 4.962C2.46568 5.0255 2.45616 5.09279 2.45998 5.15999C2.69834 6.67953 3.03234 8.18251 3.45998 9.65999C2.74998 11 0.799975 11.35 0.119975 12.42C0.0292463 12.5239 -0.020752 12.6571 -0.020752 12.795C-0.020752 12.9329 0.0292463 13.0661 0.119975 13.17C1.99998 15 3.47998 15.49 3.86998 16C3.52998 17.1 3.70998 16.33 3.34998 19.56C3.27998 20.14 3.01998 20.88 3.54998 21.15C4.22998 21.49 4.74998 20.85 7.46997 20.68C7.87995 20.6089 8.30057 20.6294 8.70168 20.7401C9.10278 20.8507 9.47443 21.0488 9.78998 21.32C10.33 21.75 12.06 23.32 12.16 23.42C12.2774 23.515 12.4239 23.5668 12.575 23.5668C12.726 23.5668 12.8725 23.515 12.99 23.42C15.41 21.06 15.28 21.25 15.73 20.53L16.54 20.68C20.45 21.06 19.87 21.06 20.19 21.06C21.41 21.06 20.86 19.78 20.86 19.52C20.86 18.96 20.86 18.4 20.78 17.84C20.7788 16.9714 20.5948 16.1128 20.24 15.32C21.1321 14.5724 21.9616 13.753 22.72 12.87C23.58 11.82 24.58 11 23.58 10.43Z" fill="black"/>
</g>
<defs>
<clipPath id="clip0_1033_3781">
<rect width="24" height="24" fill="white"/>
</clipPath>
</defs>
</svg>
