<svg width="24" height="24" viewBox="0 0 24 24" fill="none" xmlns="http://www.w3.org/2000/svg">
<g clip-path="url(#clip0_1052_9210)">
<path fill-rule="evenodd" clip-rule="evenodd" d="M23.87 15.07C23.9959 14.4382 24.0296 13.7914 23.97 13.15C23.8958 12.0983 23.5957 11.0751 23.09 10.15C22.9416 9.89683 22.734 9.68355 22.4848 9.5285C22.2357 9.37346 21.9527 9.2813 21.66 9.25998C21.4029 9.28339 21.1554 9.36947 20.9392 9.51068C20.7231 9.65188 20.5448 9.84392 20.42 10.07C20.204 8.99005 19.8121 7.95291 19.26 6.99998C19.0909 6.63987 18.8385 6.32513 18.5238 6.08172C18.2091 5.8383 17.8411 5.67318 17.45 5.59998C17.2641 5.61145 17.085 5.67465 16.9331 5.78242C16.7811 5.8902 16.6623 6.03828 16.59 6.20998C16.5476 6.13487 16.4973 6.06448 16.44 5.99998C15.92 5.61998 15.35 5.47998 14.89 5.99998C14.8185 6.05692 14.7713 6.13895 14.7581 6.2294C14.7448 6.31985 14.7665 6.41196 14.8186 6.48703C14.8708 6.5621 14.9496 6.61451 15.039 6.63363C15.1284 6.65275 15.2217 6.63714 15.3 6.58998C15.43 6.52998 15.5 6.64998 15.58 6.72998C15.6558 6.81054 15.7198 6.90145 15.77 6.99998C15.8521 7.09571 15.9289 7.19586 16 7.29998L16.2 7.56998C16.33 7.72998 16.46 7.84998 16.55 7.95998L16.69 8.16998C16.9613 9.07285 17.3126 9.94967 17.74 10.79C17.7771 10.8788 17.848 10.9493 17.9371 10.9859C18.0262 11.0224 18.1262 11.0221 18.215 10.985C18.3039 10.9478 18.3743 10.8769 18.4109 10.7879C18.4475 10.6988 18.4471 10.5988 18.41 10.51C17.8826 9.34579 17.5709 8.09552 17.49 6.81998C17.65 6.81998 17.79 7.01998 17.97 7.20998C18.3247 7.61226 18.6302 8.05539 18.88 8.52998C19.3433 9.33587 19.6964 10.2002 19.93 11.1C19.6036 12.0648 19.4645 13.083 19.52 14.1C19.1059 14.1407 18.7078 14.2814 18.36 14.51C18.0397 14.7334 17.7676 15.0191 17.56 15.35C17.2667 15.8299 17.0507 16.3529 16.92 16.9C16.8842 16.9888 16.8852 17.0883 16.9227 17.1764C16.9602 17.2645 17.0312 17.3342 17.12 17.37C17.2089 17.4058 17.3083 17.4048 17.3964 17.3673C17.4846 17.3298 17.5542 17.2588 17.59 17.17C17.8675 16.7055 18.2036 16.2787 18.59 15.9C18.73 15.75 18.88 15.61 19.03 15.47L19.31 15.2C19.5708 14.9606 19.8926 14.7979 20.24 14.73C20.2821 14.7327 20.3242 14.7271 20.3641 14.7134C20.4039 14.6998 20.4407 14.6785 20.4723 14.6506C20.5039 14.6227 20.5297 14.5889 20.5482 14.551C20.5666 14.5132 20.5775 14.472 20.58 14.43C20.5802 14.3458 20.5482 14.2648 20.4905 14.2034C20.4329 14.1421 20.354 14.1051 20.27 14.1H20.21C20.2044 13.3246 20.3294 12.5538 20.58 11.82C20.712 11.3814 20.9183 10.9687 21.19 10.6C21.31 10.43 21.42 10.28 21.55 10.29C21.9 10.29 22.09 10.65 22.25 11.04C22.5182 11.7559 22.6799 12.5072 22.73 13.27C22.7816 13.7936 22.7614 14.3218 22.67 14.84C22.45 16.19 21.9 17.36 21.67 18.84C21.6022 19.2807 21.6022 19.7292 21.67 20.17C21.77 20.72 22 21.17 22.23 21.94C22.2369 21.9837 22.2527 22.0254 22.2766 22.0627C22.3004 22.0999 22.3317 22.1318 22.3684 22.1564C22.4052 22.1809 22.4467 22.1976 22.4902 22.2053C22.5337 22.213 22.5784 22.2117 22.6214 22.2013C22.6643 22.1909 22.7047 22.1717 22.7399 22.1449C22.7751 22.1181 22.8043 22.0844 22.8258 22.0457C22.8473 22.0071 22.8605 21.9644 22.8647 21.9204C22.8689 21.8764 22.8639 21.832 22.85 21.79C22.69 21 22.49 20.59 22.43 20.06C22.406 19.697 22.4398 19.3324 22.53 18.98C22.91 17.52 23.59 16.41 23.87 15.07Z" fill="black"/>
<path fill-rule="evenodd" clip-rule="evenodd" d="M7.09 16.9099C6.95932 16.3629 6.74334 15.8398 6.45 15.3599C6.24241 15.0291 5.97034 14.7434 5.65 14.5199C5.30224 14.2914 4.90416 14.1507 4.49 14.1099C4.54555 13.093 4.40639 12.0747 4.08 11.1099C4.29778 10.2127 4.63407 9.34842 5.08 8.53994C5.33226 8.06134 5.64115 7.6148 6 7.20994C6.18 7.01994 6.32 6.84994 6.48 6.81994C6.39917 8.09548 6.08745 9.34575 5.56 10.5099C5.52287 10.5988 5.52256 10.6987 5.55913 10.7878C5.5957 10.8769 5.66616 10.9478 5.755 10.9849C5.84385 11.0221 5.94381 11.0224 6.03289 10.9858C6.12197 10.9492 6.19287 10.8788 6.23 10.7899C6.67109 9.95102 7.03589 9.07416 7.32 8.16994L7.46 7.99994C7.55 7.88994 7.68 7.76994 7.81 7.60994L8 7.29994C8.07115 7.19582 8.14793 7.09567 8.23 6.99994C8.28026 6.90141 8.34423 6.8105 8.42 6.72994C8.5 6.64994 8.57 6.52994 8.7 6.58994C8.77832 6.6371 8.87164 6.65271 8.96103 6.63359C9.05043 6.61447 9.12921 6.56206 9.18137 6.48699C9.23354 6.41192 9.2552 6.31981 9.24194 6.22936C9.22869 6.13891 9.18152 6.05688 9.11 5.99994C8.65 5.52994 8.11 5.66994 7.56 5.99994C7.50484 6.05182 7.45462 6.10874 7.41 6.16994C7.3377 5.99825 7.21888 5.85016 7.06693 5.74238C6.91498 5.63461 6.73594 5.57142 6.55 5.55994C6.15494 5.63723 5.78427 5.80841 5.46925 6.05903C5.15424 6.30965 4.90412 6.63236 4.74 6.99994C4.18483 7.96214 3.79286 9.00964 3.58 10.0999C3.45524 9.87388 3.27697 9.68185 3.0608 9.54064C2.84463 9.39943 2.59714 9.31335 2.34 9.28994C2.04736 9.31126 1.76429 9.40342 1.51517 9.55846C1.26606 9.71351 1.05837 9.92679 0.910005 10.1799C0.404342 11.105 0.104183 12.1283 0.0300049 13.1799C-0.0295595 13.8214 0.00412364 14.4681 0.130005 15.0999C0.410005 16.4399 1.13 17.5499 1.38 18.9899C1.46309 19.3198 1.49679 19.6602 1.48 19.9999C1.42 20.5299 1.22 20.9399 1.06 21.7299C1.04138 21.812 1.05482 21.8981 1.09757 21.9706C1.14033 22.0431 1.20916 22.0965 1.29 22.1199C1.37343 22.1382 1.46068 22.1233 1.53341 22.0786C1.60614 22.0338 1.65868 21.9626 1.68 21.8799C1.91 21.0699 2.14001 20.6599 2.24001 20.1099C2.30786 19.6692 2.30786 19.2207 2.24001 18.7799C2.05 17.3299 1.5 16.1599 1.24 14.7799C1.14864 14.2618 1.12845 13.7336 1.18 13.2099C1.23015 12.4471 1.39187 11.6958 1.66 10.9799C1.82 10.5899 2.01 10.2699 2.36 10.2299C2.49001 10.2299 2.60001 10.3699 2.72001 10.5399C2.99169 10.9087 3.19802 11.3213 3.33 11.7599C3.58057 12.4937 3.70566 13.2645 3.70001 14.0399C3.616 14.045 3.53711 14.082 3.47948 14.1434C3.42186 14.2047 3.38985 14.2858 3.39001 14.3699C3.39255 14.412 3.40337 14.4531 3.42186 14.491C3.44034 14.5288 3.46611 14.5627 3.4977 14.5905C3.52929 14.6184 3.56607 14.6398 3.60594 14.6534C3.6458 14.667 3.68796 14.6726 3.73001 14.6699C4.07609 14.7417 4.39698 14.9038 4.66 15.1399L4.94 15.4099C5.09 15.5499 5.24001 15.6899 5.38 15.8399C5.76641 16.2186 6.1025 16.6455 6.38 17.1099C6.41581 17.1988 6.48544 17.2698 6.57358 17.3073C6.61723 17.3258 6.6641 17.3356 6.71153 17.3361C6.75896 17.3366 6.80601 17.3277 6.85 17.3099C6.894 17.2922 6.93407 17.266 6.96793 17.2328C7.00179 17.1996 7.02877 17.16 7.04735 17.1164C7.06592 17.0727 7.07571 17.0258 7.07617 16.9784C7.07662 16.931 7.06773 16.8839 7.05 16.8399L7.09 16.9099Z" fill="black"/>
<path fill-rule="evenodd" clip-rule="evenodd" d="M16.45 20.14C16.283 19.8496 16.0852 19.578 15.86 19.33C15.39 18.82 14.86 18.4 14.36 17.9C13.9019 17.4608 13.508 16.9592 13.19 16.41C12.8631 15.8496 12.6045 15.252 12.42 14.63C12.3966 14.5453 12.3429 14.4721 12.2693 14.4243C12.1956 14.3764 12.1069 14.3571 12.02 14.37C11.9331 14.3571 11.8444 14.3764 11.7708 14.4243C11.6971 14.4721 11.6435 14.5453 11.62 14.63C11.4355 15.252 11.1769 15.8496 10.85 16.41C10.5197 16.9618 10.1123 17.4635 9.64 17.9C9.18 18.4 8.64 18.82 8.14 19.33C7.91479 19.578 7.71698 19.8496 7.55 20.14C7.33141 20.5159 7.14733 20.9109 7 21.32C6.82758 21.9282 6.71044 22.5507 6.65 23.18C6.63974 23.2202 6.6379 23.262 6.64461 23.3029C6.65132 23.3438 6.66642 23.3828 6.68897 23.4176C6.71151 23.4523 6.74102 23.4821 6.77562 23.5049C6.81022 23.5276 6.84917 23.543 6.89 23.55C6.97217 23.568 7.05811 23.5529 7.12923 23.508C7.20034 23.463 7.25092 23.3919 7.27 23.31C7.39347 22.8352 7.54371 22.3678 7.72 21.91C7.90649 21.4842 8.15226 21.087 8.45 20.73C8.62259 20.5268 8.8062 20.3331 9 20.15C9.5 19.66 10.06 19.21 10.52 18.71C10.9886 18.145 11.3788 17.5194 11.68 16.85C11.8076 16.4864 11.9145 16.1158 12 15.74C12.0888 16.116 12.199 16.4866 12.33 16.85C12.6313 17.5194 13.0214 18.145 13.49 18.71C13.95 19.21 14.49 19.66 15.01 20.15C15.197 20.3337 15.3739 20.5273 15.54 20.73C15.8377 21.087 16.0835 21.4842 16.27 21.91C16.4463 22.3678 16.5965 22.8352 16.72 23.31C16.7391 23.3919 16.7897 23.463 16.8608 23.508C16.9319 23.5529 17.0178 23.568 17.1 23.55C17.1408 23.543 17.1798 23.5276 17.2144 23.5049C17.249 23.4821 17.2785 23.4523 17.301 23.4176C17.3236 23.3828 17.3387 23.3438 17.3454 23.3029C17.3521 23.262 17.3503 23.2202 17.34 23.18C17.2828 22.5511 17.169 21.9285 17 21.32C16.8527 20.9109 16.6686 20.5159 16.45 20.14Z" fill="black"/>
<path fill-rule="evenodd" clip-rule="evenodd" d="M9.27001 7.12991C8.99939 7.54208 8.75876 7.9732 8.55001 8.41991C8.29412 9.0145 8.15492 9.65275 8.14001 10.2999C8.11515 10.5961 8.11515 10.8938 8.14001 11.1899C8.21565 11.7625 8.45498 12.3012 8.82927 12.7411C9.20356 13.181 9.69689 13.5035 10.25 13.6699C11.3095 13.9721 12.4456 13.8427 13.41 13.3099C14.3069 12.8086 14.9765 11.9815 15.28 10.9999C15.6121 10.0484 15.5619 9.00515 15.14 8.08991C14.9409 7.67878 14.6887 7.29552 14.39 6.94991C13.77 6.18991 13.01 5.55991 12.39 4.78991C12.39 4.78991 11.83 4.39991 11.62 4.59991C11.1826 4.96712 10.7685 5.36122 10.38 5.77991C9.97365 6.19874 9.6024 6.65026 9.27001 7.12991ZM11.81 5.22991C12.42 6.01991 13.13 6.66991 13.71 7.44991C13.9378 7.76206 14.1321 8.09722 14.29 8.44991C14.5582 9.14493 14.5582 9.91488 14.29 10.6099C14.0551 11.3029 13.575 11.8862 12.94 12.2499C12.25 12.6182 11.4459 12.7111 10.69 12.5099C10.3369 12.42 10.0176 12.2294 9.77078 11.9613C9.52401 11.6932 9.36045 11.3592 9.30001 10.9999C9.25365 10.7692 9.22688 10.5351 9.22001 10.2999C9.19065 9.70814 9.29312 9.11724 9.52001 8.56991C9.66001 8.22991 9.83001 7.89991 10 7.56991C10.2629 7.10571 10.5639 6.66419 10.9 6.24991C11.182 5.89147 11.4859 5.55082 11.81 5.22991Z" fill="black"/>
<path fill-rule="evenodd" clip-rule="evenodd" d="M9.25001 4.26997C9.60763 4.37088 9.989 4.34657 10.3309 4.20108C10.6728 4.05558 10.9548 3.79763 11.13 3.46997C11.2471 3.10581 11.2471 2.71413 11.13 2.34997C10.932 1.72932 10.6529 1.13754 10.3 0.589967C10.2716 0.544478 10.2336 0.505714 10.1887 0.476359C10.1438 0.447005 10.0931 0.427763 10.04 0.419967C9.93339 0.406275 9.82566 0.435004 9.74001 0.499967C9.2807 0.881834 8.85266 1.29983 8.46001 1.74997C8.23806 1.99428 8.08003 2.28973 8.00001 2.60997C7.94582 2.99583 8.04703 3.38742 8.28142 3.69869C8.51581 4.00996 8.8642 4.21544 9.25001 4.26997ZM9.36001 2.08997C9.51562 1.84328 9.68592 1.60619 9.87001 1.37997C9.99354 1.68437 10.0906 1.99887 10.16 2.31997C10.2366 2.52643 10.2366 2.75351 10.16 2.95997C10.05 3.15997 9.77001 3.13997 9.56001 3.08997C9.35001 3.03997 9.10001 2.99997 9.11001 2.73997C9.14008 2.5064 9.22582 2.28348 9.36001 2.08997Z" fill="black"/>
<path fill-rule="evenodd" clip-rule="evenodd" d="M15 4.86C15.3842 4.82467 15.7442 4.65661 16.0179 4.38469C16.2916 4.11277 16.4621 3.75398 16.5 3.37C16.4915 2.97568 16.3585 2.59417 16.12 2.28C15.6733 1.76091 15.1626 1.30057 14.6 0.909998C14.5098 0.846961 14.3985 0.821827 14.29 0.839998C14.2326 0.842303 14.1765 0.857964 14.1261 0.885737C14.0758 0.91351 14.0326 0.952632 14 0.999998C13.6746 1.54062 13.4065 2.11372 13.2 2.71C13.1004 3.03345 13.0731 3.37483 13.12 3.71C13.1632 3.91158 13.2469 4.10228 13.366 4.2705C13.4852 4.43872 13.6373 4.58094 13.8132 4.68851C13.989 4.79608 14.1849 4.86676 14.389 4.89624C14.593 4.92572 14.8009 4.91339 15 4.86ZM14.48 1.8C14.7275 2.05537 14.9548 2.32953 15.16 2.62C15.3135 2.8007 15.3922 3.03321 15.38 3.27C15.38 3.53 15.07 3.62 14.83 3.66C14.59 3.7 14.34 3.66 14.26 3.46C14.1991 3.2171 14.1991 2.9629 14.26 2.72C14.3156 2.40937 14.3891 2.10219 14.48 1.8Z" fill="black"/>
<path fill-rule="evenodd" clip-rule="evenodd" d="M9.78002 9.99996C9.64144 10.2675 9.58904 10.5714 9.63002 10.87C9.64689 11.0182 9.70203 11.1595 9.79002 11.28C9.83951 11.37 9.9077 11.4484 9.99002 11.51C10.2757 11.7292 10.6304 11.8392 10.99 11.82C11.0353 11.8338 11.0829 11.8386 11.1301 11.8341C11.1772 11.8295 11.223 11.8157 11.2648 11.7934C11.3067 11.7711 11.3436 11.7408 11.3737 11.7041C11.4038 11.6675 11.4263 11.6253 11.44 11.58C11.4553 11.5354 11.4611 11.4881 11.4571 11.4411C11.4531 11.3942 11.4393 11.3486 11.4168 11.3072C11.3942 11.2658 11.3633 11.2296 11.326 11.2008C11.2887 11.172 11.2458 11.1513 11.2 11.14C10.1 10.36 10.42 10.05 10.44 10.04C10.4429 9.95569 10.4134 9.8735 10.3577 9.81027C10.3019 9.74705 10.224 9.70757 10.14 9.69996C10.0964 9.6944 10.0521 9.69788 10.0099 9.7102C9.96768 9.72252 9.92846 9.74341 9.89469 9.77156C9.86091 9.79971 9.83329 9.83452 9.81356 9.87381C9.79383 9.91311 9.78241 9.95605 9.78002 9.99996Z" fill="black"/>
</g>
<defs>
<clipPath id="clip0_1052_9210">
<rect width="24" height="24" fill="white"/>
</clipPath>
</defs>
</svg>
