<svg width="24" height="24" viewBox="0 0 24 24" fill="none" xmlns="http://www.w3.org/2000/svg">
<g clip-path="url(#clip0_1032_3333)">
<path fill-rule="evenodd" clip-rule="evenodd" d="M11.67 21.36C11.5373 20.1134 11.3202 18.8772 11.02 17.66C11.0187 17.621 11.0096 17.5827 10.9932 17.5473C10.9768 17.5119 10.9534 17.4802 10.9245 17.4541C10.8956 17.428 10.8616 17.4079 10.8248 17.3952C10.7879 17.3825 10.7489 17.3773 10.71 17.38C10.18 17.38 10.42 18.38 10.43 18.62C10.4115 19.587 10.475 20.5538 10.62 21.51C10.98 23.38 11.01 23.61 11.11 23.71C11.21 23.81 11.44 23.97 11.64 23.79C11.7551 22.9847 11.7652 22.1679 11.67 21.36Z" fill="black"/>
<path fill-rule="evenodd" clip-rule="evenodd" d="M7.80997 14C7.89749 14 7.98143 13.9652 8.04332 13.9033C8.1052 13.8415 8.13997 13.7575 8.13997 13.67C8.13997 13.5825 8.1052 13.4985 8.04332 13.4367C7.98143 13.3748 7.89749 13.34 7.80997 13.34C6.61067 13.1464 5.38139 13.2776 4.24997 13.72C4.16265 13.7419 4.08497 13.792 4.02894 13.8625C3.97291 13.933 3.94165 14.02 3.93997 14.11C4.28997 15 7.72997 14.06 7.80997 14Z" fill="black"/>
<path fill-rule="evenodd" clip-rule="evenodd" d="M6.57998 6.09999C6.57998 6.63999 6.84998 6.62999 7.23998 6.09999C7.17647 5.23782 7.17647 4.37216 7.23998 3.50999C7.23998 2.96999 7.31998 1.50999 7.31998 1.36999C7.77998 0.959991 9.62998 1.12999 10.68 1.14999C10.76 1.47999 10.68 0.899991 10.74 3.24999C10.7283 3.35634 10.7283 3.46364 10.74 3.56999C10.17 3.70999 8.73998 3.56999 8.16998 3.65999C8.1273 3.66853 8.08672 3.68539 8.05055 3.7096C8.01439 3.73382 7.98335 3.76493 7.9592 3.80114C7.93506 3.83736 7.91829 3.87797 7.90984 3.92067C7.90139 3.96337 7.90144 4.00731 7.90998 4.04999C7.91851 4.09267 7.93537 4.13325 7.95959 4.16941C7.98381 4.20558 8.01491 4.23662 8.05113 4.26076C8.08734 4.28491 8.12796 4.30168 8.17066 4.31013C8.21335 4.31857 8.2573 4.31853 8.29998 4.30999C9.05998 4.17999 10.46 4.64999 11.3 4.30999C11.66 4.13999 11.67 3.65999 11.68 3.30999C11.7992 2.38466 11.8159 1.449 11.73 0.519991C11.6604 0.385141 11.5561 0.271366 11.4277 0.190476C11.2993 0.109587 11.1516 0.0645327 11 0.0599907C9.92816 -0.0206479 8.85179 -0.0206479 7.77998 0.0599907C5.91998 0.389991 6.37998 1.43999 6.36998 1.81999C6.31641 3.25004 6.38667 4.68205 6.57998 6.09999Z" fill="black"/>
<path fill-rule="evenodd" clip-rule="evenodd" d="M21.73 11.08C21.22 8.77998 21.02 7.39998 18.92 6.84998C17.45 6.45998 8.17999 5.40998 3.91999 7.67998C3.4871 7.93023 3.10847 8.26432 2.80627 8.66268C2.50406 9.06104 2.28435 9.51567 2.15999 9.99998C1.84283 11.0916 1.68454 12.2232 1.68999 13.36C1.72673 14.6146 1.83021 15.8664 1.99999 17.11C2.00967 17.1606 2.03267 17.2077 2.06661 17.2465C2.10056 17.2853 2.14422 17.3143 2.19311 17.3306C2.242 17.3469 2.29435 17.3499 2.34477 17.3392C2.3952 17.3286 2.44187 17.3047 2.47999 17.27C2.74999 17.07 1.75999 11.47 3.55999 9.32998C4.15494 8.61183 4.9932 8.13754 5.91519 7.9974C6.83718 7.85726 7.77852 8.06105 8.55999 8.56998C10.22 9.56998 10.47 12.16 10.63 14.12C10.74 15.51 10.86 16.24 9.71999 16.43C9.63999 16.43 4.71999 16.88 4.03999 16.74C3.70999 16.67 3.52999 16.31 3.24999 16.59C3.21884 16.6207 3.19411 16.6573 3.17724 16.6976C3.16036 16.738 3.15166 16.7812 3.15166 16.825C3.15166 16.8687 3.16036 16.912 3.17724 16.9523C3.19411 16.9927 3.21884 17.0293 3.24999 17.06C3.46487 17.2302 3.71246 17.3545 3.97738 17.425C4.24231 17.4955 4.5189 17.5108 4.78999 17.47C6.08999 17.47 9.78999 17.32 9.84999 17.31C11.7 17.08 11.73 15.72 11.64 14.05C11.48 11.05 11.12 8.36998 8.40999 7.23998H8.72999C14.99 7.47998 15.37 6.92998 18.64 7.88998C20.05 8.29998 20.13 8.88998 20.64 11.32C20.97 12.74 21.93 15.76 20.43 16.21C19.33 16.54 12.3 16.63 12.04 16.64C11.9525 16.64 11.8685 16.6747 11.8066 16.7366C11.7448 16.7985 11.71 16.8825 11.71 16.97C11.71 17.0575 11.7448 17.1414 11.8066 17.2033C11.8685 17.2652 11.9525 17.3 12.04 17.3H14.53C14.1384 19.2136 14.0172 21.1727 14.17 23.12C14.17 23.5 14.17 24.01 14.55 23.96C14.6195 23.9668 14.6891 23.9483 14.7461 23.9079C14.803 23.8674 14.8435 23.8078 14.86 23.74C14.92 23.61 15.23 21.02 15.26 20.47C15.2956 19.9306 15.2956 19.3894 15.26 18.85C15.2226 18.334 15.2226 17.816 15.26 17.3C16.34 17.3 17.47 17.3 18.96 17.24C20.1 17.18 21.33 17.32 21.96 16.24C22.74 14.74 22.08 12.69 21.73 11.08Z" fill="black"/>
</g>
<defs>
<clipPath id="clip0_1032_3333">
<rect width="24" height="24" fill="white"/>
</clipPath>
</defs>
</svg>
