<svg width="24" height="24" viewBox="0 0 24 24" fill="none" xmlns="http://www.w3.org/2000/svg">
<g clip-path="url(#clip0_1035_4999)">
<path fill-rule="evenodd" clip-rule="evenodd" d="M15 5.67L15.12 10.6C15.12 10.6955 15.1579 10.787 15.2254 10.8546C15.293 10.9221 15.3845 10.96 15.48 10.96C15.5755 10.96 15.667 10.9221 15.7346 10.8546C15.8021 10.787 15.84 10.6955 15.84 10.6L15.98 5.6C15.98 5 13.59 1.08 12.98 0.489998C12.7891 0.365823 12.5677 0.296626 12.34 0.289998C7.24 -0.120002 8.09 -0.100002 2.24 0.489998C0.870004 0.769998 0.650004 0.719998 0.590004 0.759998C0.542471 0.789646 0.503268 0.830906 0.476088 0.879892C0.448908 0.928878 0.434647 0.983977 0.434647 1.04C0.434647 1.09602 0.448908 1.15112 0.476088 1.2001C0.503268 1.24909 0.542471 1.29035 0.590004 1.32C0.779864 1.36486 0.975267 1.38171 1.17 1.37C2.58914 1.15325 4.02508 1.06622 5.46 1.11C7.73946 1.07542 10.0185 1.20241 12.28 1.49C12.78 2.11 14.38 4.55 14.81 5.32C14.9 5.47 14.92 5.68 15 5.67Z" fill="black"/>
<path fill-rule="evenodd" clip-rule="evenodd" d="M9.29 18.82C8.29 18.82 2.57 18.73 1.72 18.13C1.32 17.85 1.45 17.36 1.46 16.75C1.46 15.46 1.36 13.09 1.46 12.75C1.5798 12.74 1.70021 12.74 1.82 12.75C2.6 12.75 3.18 12.75 3.25 11.84C3.31265 10.7371 3.22858 9.63077 3 8.55C2.62 7.78 1.32 8.46 1.13 8.1C0.880005 7.58 1 3.49 1 3.4C1 3.31 0.430005 2.92 0.360005 3.47C0.211959 5.13338 0.211959 6.80662 0.360005 8.47C0.770005 9.36 1.61 9.04 2.12 9.11C2.19892 9.94146 2.19892 10.7785 2.12 11.61C-0.369995 11.29 0.270005 12.78 0.290005 16.75C0.290005 17.75 0.290005 18.48 1.12 19.03C2.31 19.79 7.91001 19.6 9.31001 19.54C9.40548 19.5373 9.496 19.4969 9.56163 19.4275C9.62727 19.3581 9.66266 19.2655 9.66 19.17C9.65735 19.0745 9.61688 18.984 9.54749 18.9184C9.4781 18.8527 9.38548 18.8173 9.29 18.82Z" fill="black"/>
<path fill-rule="evenodd" clip-rule="evenodd" d="M5.87 7.32C6.0458 6.55959 6.12642 5.78028 6.11 4.99999C6 3.61 6 3.76 5.7 3.63C5.6 3.57 5.38 3.63 5.21 3.9C4.96669 4.53693 4.87095 5.22073 4.93 5.9C4.97456 6.37073 5.04803 6.83828 5.15 7.3C5.14735 7.39547 5.18273 7.48809 5.24837 7.55748C5.31401 7.62687 5.40452 7.66734 5.5 7.67C5.59548 7.67265 5.6881 7.63726 5.75749 7.57162C5.82688 7.50599 5.86735 7.41547 5.87 7.32Z" fill="black"/>
<path fill-rule="evenodd" clip-rule="evenodd" d="M8.00001 3.82C7.77516 4.4169 7.67258 5.0529 7.69834 5.69023C7.72411 6.32755 7.87771 6.9532 8.15001 7.53C8.32001 7.66 8.46001 7.69 8.58001 7.62C9.26001 7.17 8.58001 4.04 8.58001 3.96C8.57143 3.89605 8.54373 3.83619 8.50053 3.78827C8.45733 3.74034 8.40065 3.7066 8.33793 3.69146C8.27521 3.67632 8.20938 3.68049 8.14908 3.70343C8.08877 3.72637 8.03681 3.767 8.00001 3.82Z" fill="black"/>
<path fill-rule="evenodd" clip-rule="evenodd" d="M10.63 3.87C10.63 4.44 10.53 5.11 10.51 5.87C10.5454 7.0732 10.6623 8.27262 10.86 9.46C10.86 9.50727 10.8693 9.55409 10.8874 9.59776C10.9055 9.64144 10.932 9.68113 10.9655 9.71456C10.9989 9.74799 11.0386 9.7745 11.0822 9.79259C11.1259 9.81069 11.1727 9.82 11.22 9.82C11.2673 9.82 11.3141 9.81069 11.3578 9.79259C11.4015 9.7745 11.4411 9.74799 11.4746 9.71456C11.508 9.68113 11.5345 9.64144 11.5526 9.59776C11.5707 9.55409 11.58 9.50727 11.58 9.46C11.9113 7.59057 11.8017 5.66963 11.26 3.85C11.2666 3.80375 11.2631 3.75662 11.2495 3.7119C11.236 3.66719 11.2129 3.62597 11.1817 3.59116C11.1505 3.55635 11.1121 3.52878 11.0692 3.5104C11.0262 3.49201 10.9798 3.48325 10.9331 3.48473C10.8864 3.48622 10.8406 3.49791 10.7989 3.51898C10.7572 3.54005 10.7206 3.57 10.6917 3.60672C10.6629 3.64343 10.6424 3.68603 10.6317 3.73152C10.621 3.777 10.6205 3.82427 10.63 3.87Z" fill="black"/>
<path fill-rule="evenodd" clip-rule="evenodd" d="M13.53 15.74C13.32 16.18 13.05 16.89 13.53 16.96C13.613 16.9689 13.6963 16.946 13.7632 16.8959C13.83 16.8458 13.8753 16.7722 13.89 16.69C13.9455 16.4775 14.0405 16.2774 14.17 16.1C14.5122 15.5579 14.9817 15.1078 15.5377 14.7888C16.0937 14.4699 16.7194 14.2917 17.36 14.27C18.1142 14.1359 18.8914 14.2444 19.58 14.58C21.32 15.43 21.15 16.58 21.76 16.35C21.8027 16.3296 21.8409 16.3011 21.8726 16.266C21.9042 16.2308 21.9286 16.1898 21.9444 16.1452C21.9602 16.1006 21.9671 16.0534 21.9646 16.0062C21.9621 15.9589 21.9504 15.9127 21.93 15.87C21.5905 15.0426 21.0156 14.333 20.2766 13.8291C19.5377 13.3253 18.6671 13.0494 17.7729 13.0355C16.8786 13.0217 15.9999 13.2705 15.2457 13.7513C14.4915 14.232 13.895 14.9235 13.53 15.74Z" fill="black"/>
<path fill-rule="evenodd" clip-rule="evenodd" d="M23.51 15.79C23.4687 15.7621 23.4199 15.7471 23.37 15.7471C23.3201 15.7471 23.2713 15.7621 23.23 15.79C23.18 15.79 23.23 15.79 23.12 15.88C22.7055 16.4224 22.347 17.0054 22.05 17.62L19.87 16.54C19.8024 16.5072 19.7254 16.4993 19.6525 16.5176C19.5797 16.5359 19.5155 16.5792 19.4714 16.64C19.4273 16.7009 19.406 16.7753 19.4112 16.8502C19.4164 16.9252 19.4479 16.9959 19.5 17.05C20.2636 17.7644 21.1017 18.3947 22 18.93C22.1408 18.9842 22.2948 18.9941 22.4413 18.9584C22.5879 18.9226 22.72 18.8429 22.82 18.73C23.0901 18.1527 23.3012 17.5497 23.45 16.93C23.45 16.79 23.79 16.15 23.79 16.15C23.79 16.15 23.74 15.86 23.51 15.79Z" fill="black"/>
<path fill-rule="evenodd" clip-rule="evenodd" d="M22 20.72C21.7406 21.2194 21.3755 21.6562 20.93 22C20.1719 22.5265 19.2621 22.79 18.34 22.75C17.5667 22.8007 16.7964 22.6144 16.1317 22.216C15.4671 21.8176 14.9397 21.2259 14.62 20.52L16.36 21.26C16.4303 21.3051 16.5156 21.3204 16.5972 21.3026C16.6788 21.2848 16.7499 21.2353 16.795 21.165C16.8401 21.0947 16.8554 21.0094 16.8376 20.9278C16.8198 20.8462 16.7703 20.7751 16.7 20.73C15.9049 20.062 15.0399 19.4819 14.12 19C13.9756 18.9537 13.8205 18.9528 13.6757 18.9975C13.5308 19.0422 13.4032 19.1304 13.31 19.25C13.0729 19.8408 12.8953 20.4539 12.78 21.08C12.78 21.21 12.48 21.87 12.48 21.87C12.48 21.87 12.48 22.16 12.76 22.23C12.809 22.2623 12.8664 22.2794 12.925 22.2794C12.9837 22.2794 13.041 22.2623 13.09 22.23C13.4202 21.7704 13.7017 21.2778 13.93 20.76C14.1577 21.5148 14.5751 22.1985 15.1424 22.7459C15.7097 23.2933 16.4079 23.6861 17.1703 23.8868C17.9327 24.0874 18.7338 24.0892 19.4971 23.8919C20.2604 23.6946 20.9603 23.3049 21.53 22.76C22.034 22.2361 22.4104 21.603 22.63 20.91C22.6552 20.8265 22.6462 20.7363 22.6049 20.6594C22.5637 20.5825 22.4936 20.5252 22.41 20.5C22.3265 20.4748 22.2363 20.4838 22.1594 20.5251C22.0826 20.5663 22.0252 20.6365 22 20.72Z" fill="black"/>
</g>
<defs>
<clipPath id="clip0_1035_4999">
<rect width="24" height="24" fill="white"/>
</clipPath>
</defs>
</svg>
