<svg width="24" height="24" viewBox="0 0 24 24" fill="none" xmlns="http://www.w3.org/2000/svg">
<g clip-path="url(#clip0_1035_4990)">
<path d="M1.81001 1.4C3.25473 1.17111 4.71836 1.08403 6.18001 1.14C8.51944 1.09848 10.8588 1.22548 13.18 1.52C13.69 2.15 15.32 4.64 15.76 5.42C15.85 5.58 15.87 5.79 15.94 5.78L16.07 10.78C16.0844 10.8664 16.1289 10.945 16.1958 11.0016C16.2626 11.0583 16.3474 11.0894 16.435 11.0894C16.5226 11.0894 16.6074 11.0583 16.6743 11.0016C16.7411 10.945 16.7857 10.8664 16.8 10.78L16.9 5.7C16.9 5.09 14.46 1.1 13.9 0.490001C13.7049 0.366838 13.4806 0.29781 13.25 0.290001C8.00001 -0.139999 8.89001 -0.109999 2.92001 0.490001C1.50001 0.790001 1.27001 0.730001 1.21001 0.780001C1.16248 0.809648 1.12328 0.850909 1.0961 0.899895C1.06892 0.948881 1.05466 1.00398 1.05466 1.06C1.05466 1.11602 1.06892 1.17112 1.0961 1.22011C1.12328 1.26909 1.16248 1.31035 1.21001 1.34C1.40507 1.39437 1.60805 1.41467 1.81001 1.4Z" fill="black"/>
<path d="M10.09 19.19C9.04002 19.19 3.24001 19.1 2.37001 18.5C1.96001 18.21 2.09001 17.7 2.10001 17.09C2.10001 15.77 2.00001 13.36 2.10001 13.02C2.22288 13.0048 2.34715 13.0048 2.47001 13.02C3.27002 13.02 3.86002 13.02 3.93002 12.1C4.00111 10.9681 3.92379 9.83181 3.70002 8.72C3.32001 7.94 2.00001 8.63 1.79001 8.26C1.51001 7.73 1.65001 3.56 1.63001 3.47C1.61001 3.38 1.05001 3 1.00001 3.54C0.845144 5.24983 0.845144 6.97017 1.00001 8.68C1.42001 9.57 2.28001 9.25 2.80001 9.32C2.87475 10.1684 2.87475 11.0216 2.80001 11.87C0.230015 11.52 0.890015 13 0.910015 17.09C0.910015 18.09 0.860015 18.85 1.76001 19.42C2.97002 20.18 8.68002 20 10.11 19.93C10.2081 19.9273 10.3012 19.8858 10.3687 19.8146C10.4362 19.7433 10.4727 19.6481 10.47 19.55C10.4674 19.4519 10.4258 19.3588 10.3546 19.2913C10.2833 19.2238 10.1881 19.1873 10.09 19.19Z" fill="black"/>
<path d="M6.43 3.7C6.32 3.64 6.1 3.7 5.93 3.98C5.67922 4.62206 5.57998 5.31333 5.64 6C5.7 6.64 5.83 7.22 5.86 7.42C5.8512 7.473 5.85404 7.52727 5.86833 7.57905C5.88262 7.63084 5.90802 7.67889 5.94275 7.71986C5.97749 7.76084 6.02073 7.79377 6.06947 7.81635C6.11821 7.83893 6.17128 7.85063 6.225 7.85063C6.27872 7.85063 6.33179 7.83893 6.38054 7.81635C6.42928 7.79377 6.47252 7.76084 6.50725 7.71986C6.54199 7.67889 6.56738 7.63084 6.58167 7.57905C6.59596 7.52727 6.5988 7.473 6.59 7.42C6.78015 6.63137 6.86423 5.82088 6.84 5.01C6.69 3.68 6.69 3.84 6.43 3.7Z" fill="black"/>
<path d="M8.78001 3.89C8.55009 4.49995 8.44575 5.15006 8.47324 5.80133C8.50073 6.4526 8.6595 7.0916 8.94001 7.68C9.11001 7.82 9.25001 7.85 9.37001 7.77C10.07 7.31 9.37001 4.12 9.37001 4.03C9.36382 3.96334 9.33688 3.90029 9.29297 3.84974C9.24906 3.79919 9.19041 3.76369 9.12526 3.74823C9.06012 3.73277 8.99176 3.73814 8.92983 3.76357C8.86789 3.789 8.81549 3.83322 8.78001 3.89Z" fill="black"/>
<path d="M12.43 9.61C12.764 7.70348 12.651 5.74546 12.1 3.89C12.0812 3.81319 12.0354 3.7457 11.971 3.6998C11.9066 3.6539 11.8279 3.63266 11.7492 3.63992C11.6704 3.64719 11.5969 3.6825 11.542 3.7394C11.4871 3.79631 11.4545 3.87105 11.45 3.95C11.45 4.53 11.35 5.21 11.34 5.95C11.3747 7.17977 11.4917 8.40584 11.69 9.62C11.6914 9.71813 11.7316 9.81171 11.8019 9.88016C11.8723 9.94862 11.9669 9.98633 12.065 9.985C12.1632 9.98367 12.2567 9.94342 12.3252 9.87309C12.3936 9.80277 12.4314 9.70813 12.43 9.61Z" fill="black"/>
<path d="M17.46 18.05C16.79 18.19 16.28 19 16.84 19.56C17.0044 19.7219 17.2075 19.8389 17.43 19.9C19.19 20.29 19 17.74 17.46 18.05Z" fill="black"/>
<path d="M23.1 20.09C22.523 19.5721 21.881 19.1317 21.19 18.78C22.07 18.19 22.84 17.89 22.83 17.12C22.7468 16.3145 22.3945 15.5606 21.83 14.98C21.11 14.46 20.62 14.87 19.62 15.45C19.57 14.61 19.72 13.92 19.04 13.45C18.2865 13.0696 17.4396 12.9134 16.6 13C15.53 13.25 15.6 14.19 15.6 15.47L14.51 14.8C13.37 14.22 12.51 15.39 12.18 16.62C11.94 17.52 12.29 17.85 13.07 18.35C13.85 18.85 13.35 18.44 13.5 19.35C11.65 20.59 11.9 20.35 12.79 22.15C13.0206 22.4544 13.2972 22.7209 13.61 22.94C13.8362 23.0362 14.0838 23.0711 14.3278 23.0413C14.5718 23.0114 14.8036 22.9179 15 22.77C15.79 22.28 15.68 22.11 15.69 22.47C15.7 22.83 15.62 23.47 15.99 23.71C16.58 24.07 18.69 24.2 19.09 23.49C19.31 23.11 19.33 23.11 19.27 22.49C19.2634 22.4051 19.2233 22.3264 19.1586 22.271C19.0939 22.2157 19.0099 22.1884 18.925 22.195C18.8401 22.2016 18.7614 22.2417 18.7061 22.3064C18.6507 22.3711 18.6234 22.4551 18.63 22.54C18.63 23.04 18.63 22.88 18.52 23.11C18.27 23.51 16.81 23 16.52 22.96C16.23 22.92 16.52 23.18 16.52 21.42C16.5229 21.342 16.504 21.2647 16.4653 21.1968C16.4267 21.1289 16.37 21.0732 16.3014 21.0358C16.2329 20.9984 16.1552 20.9808 16.0773 20.9851C15.9993 20.9894 15.924 21.0153 15.86 21.06C15.35 21.4 14.55 22.12 14.08 22.16C13.61 22.2 13.31 20.91 13.2 20.7C13.75 20.45 13.2 20.8 14.37 20.06C14.4715 19.9919 14.5479 19.8925 14.5876 19.777C14.6273 19.6614 14.6282 19.5361 14.59 19.42C14.36 18.72 14.85 18.35 14.39 17.98C13.51 17.28 13.76 17.48 13.24 17.09C13.3437 16.6936 13.5275 16.3226 13.78 16C13.78 15.95 13.86 15.88 13.92 15.91C15.99 17.21 15.69 17.14 16.4 16.91C17.11 16.68 16.66 15.91 16.88 14.23C16.78 14.23 16.88 14.34 16.88 14.23C17.3882 14.2416 17.8899 14.3467 18.36 14.54V15C18.48 16.55 18.42 16.77 18.8 17C18.8882 17.0509 18.9882 17.0777 19.09 17.0777C19.1918 17.0777 19.2918 17.0509 19.38 17C21.2 15.85 21.09 15.89 21.21 16C21.33 16.11 21.51 16.31 21.81 17.22C20.43 18.22 20.29 18.22 20.25 18.54C20.11 19.6 19.95 19.25 22.31 20.59C22.2001 21.1401 21.9076 21.6369 21.48 22C20.8533 21.7109 20.2484 21.3767 19.67 21C19.5904 20.9456 19.4925 20.9251 19.3978 20.9429C19.3031 20.9607 19.2194 21.0154 19.165 21.095C19.1106 21.1746 19.0901 21.2725 19.1079 21.3672C19.1257 21.4619 19.1804 21.5456 19.26 21.6C19.8727 22.0525 20.5215 22.4539 21.2 22.8C22.14 23.18 23.54 20.91 23.1 20.09Z" fill="black"/>
</g>
<defs>
<clipPath id="clip0_1035_4990">
<rect width="24" height="24" fill="white"/>
</clipPath>
</defs>
</svg>
