<svg width="24" height="24" viewBox="0 0 24 24" fill="none" xmlns="http://www.w3.org/2000/svg">
<g clip-path="url(#clip0_1035_4953)">
<path fill-rule="evenodd" clip-rule="evenodd" d="M22.2 4.78C22.01 4.55 21.64 4.29 21.49 4.13C20.0365 2.83387 18.4889 1.64728 16.86 0.580001C16.7864 0.527402 16.6954 0.505313 16.6059 0.518362C16.5164 0.531411 16.4355 0.578586 16.38 0.650001C16.01 1.15 16.9 1.29 19.68 3.53C20.3511 4.08186 20.992 4.66938 21.6 5.29C21.67 5.8 20.13 7.46 19.74 7.98C19.35 8.5 9.17 22.42 8.4 22.84L2.74 18.18C2.95639 17.4623 3.3209 16.798 3.81 16.23C4.03 16.63 4.08 16.81 5 17.13C5.07184 17.1678 5.15483 17.1786 5.23396 17.1605C5.31309 17.1425 5.38314 17.0967 5.43145 17.0314C5.47977 16.9662 5.50315 16.8859 5.49738 16.8049C5.49162 16.7239 5.45707 16.6477 5.4 16.59C5.1 16.19 5.22 15.94 4.4 15.52L5.66 14C6.01 14.48 7.03 15.14 7.33 14.8C7.39351 14.7363 7.42917 14.65 7.42917 14.56C7.42917 14.47 7.39351 14.3837 7.33 14.32C6.86 13.59 6.89 13.53 6.24 13.32C6.4 13.12 6.86 12.19 7.18 11.83C7.44 11.91 7.86 12.21 8.02 12.24C10.84 12.71 12.5 9.55 11.63 8.11C11.41 7.73 10.81 7.27 10.73 7.11C10.97 7.11 11.29 6.46 11.37 6.35L11.97 5.56C12.1298 5.75417 12.3275 5.91372 12.551 6.02892C12.7745 6.14411 13.0192 6.21253 13.27 6.23C13.3409 6.27496 13.426 6.29208 13.5088 6.27804C13.5916 6.26401 13.6663 6.21982 13.7185 6.15399C13.7707 6.08816 13.7966 6.00536 13.7913 5.92153C13.7861 5.8377 13.75 5.75879 13.69 5.7C13.3 5.1 13.01 4.87 12.44 4.93L13.84 3.08C14.12 3.56 14.08 3.68 14.91 3.92C14.9452 3.94705 14.9854 3.96674 15.0283 3.97789C15.0713 3.98904 15.116 3.99141 15.1599 3.98488C15.2037 3.97834 15.2459 3.96303 15.2837 3.93986C15.3215 3.91668 15.3543 3.88612 15.38 3.85C15.54 3.64 15.25 2.69 14.26 2.51C14.68 1.94 15.44 0.880001 15.74 0.510001C15.7984 0.473017 15.8423 0.416984 15.8641 0.351384C15.886 0.285784 15.8845 0.214644 15.86 0.150001C15.8234 0.107663 15.7781 0.0737013 15.7272 0.0504239C15.6763 0.0271465 15.621 0.0150986 15.565 0.0150986C15.509 0.0150986 15.4537 0.0271465 15.4028 0.0504239C15.3519 0.0737013 15.3066 0.107663 15.27 0.150001C15.05 0.400001 14.77 0.72 10.75 5.91C10.4 6.37 9.28 6.82 10.32 7.91C10.64 8.25 11.03 8.5 11 8.99C10.9879 9.33657 10.9017 9.67653 10.7473 9.98704C10.5929 10.2976 10.3738 10.5714 10.1048 10.7902C9.8358 11.0091 9.52305 11.1678 9.1876 11.2557C8.85215 11.3436 8.50177 11.3587 8.16 11.3C7.82 11.23 7.3 10.86 6.85 10.92C6.4 10.98 5.69 12.32 5.4 12.7C4.38 14 2 16.19 1.63 18C1.47 18.86 2.31 19.31 2.93 19.78C7.52 23.66 7.57 23.71 7.86 23.87C8.98 24.5 9.79 22.95 10.4 22.26C11.77 20.74 11.98 20.26 20.4 8.52C21.22 7.41 23 5.71 22.2 4.78Z" fill="black"/>
<path fill-rule="evenodd" clip-rule="evenodd" d="M17.59 3.81C17.13 3.76 17.06 4.17 16.27 5.03C15.2456 5.99948 14.2931 7.04224 13.42 8.15C12.97 8.99 13.9 9.42 14.42 9.8C14.94 10.18 15.63 10.87 16.15 10.35C16.3 10.2 16.27 10.02 18.71 6.29C18.87 6.05 19.4 5.56 19.33 5.16C18.9176 4.52784 18.3048 4.05244 17.59 3.81ZM17.51 4.55L18.33 5.25C18.2069 5.41674 18.0934 5.59036 17.99 5.77C15.42 9.38 15.52 9.22 15.49 9.3C15.1048 9.05992 14.7076 8.83963 14.3 8.64C15.2 7.6 16.71 5.68 17.51 4.55Z" fill="black"/>
<path fill-rule="evenodd" clip-rule="evenodd" d="M9.77 18.3C9.72491 18.3663 9.70801 18.4478 9.72301 18.5266C9.73802 18.6053 9.78369 18.6749 9.85 18.72C9.9163 18.7651 9.9978 18.782 10.0766 18.767C10.1553 18.752 10.2249 18.7063 10.27 18.64C10.97 17.78 11.77 16.83 12.32 16C12.51 15.72 12.88 15.34 13.12 15C14.04 13.51 12.6 13.31 11.35 12.39C10.75 12.01 10.88 12.15 9.35 14.12C7.94 15.86 8.19 15.61 7.18 16.97C6.93 17.34 6.32 17.97 6.58 18.42C6.86728 18.8206 7.23091 19.1604 7.65 19.42C7.94 19.65 8.48 20.18 8.92 20.23C9.0115 20.2406 9.10347 20.2144 9.17567 20.1572C9.24787 20.1 9.29439 20.0165 9.305 19.925C9.31561 19.8335 9.28943 19.7415 9.23223 19.6693C9.17504 19.5971 9.0915 19.5506 9 19.54C8.8 19.54 8.31 18.92 8.17 18.78C7.915 18.5684 7.68666 18.3267 7.49 18.06C7.92 17.55 7.71 18.19 9.1 16.14C11.43 12.68 10.64 12.67 11.38 13.31C11.54 13.45 12.67 13.97 12.38 14.23C11.3843 15.5018 10.5104 16.8645 9.77 18.3Z" fill="black"/>
</g>
<defs>
<clipPath id="clip0_1035_4953">
<rect width="24" height="24" fill="white"/>
</clipPath>
</defs>
</svg>
