<svg width="24" height="24" viewBox="0 0 24 24" fill="none" xmlns="http://www.w3.org/2000/svg">
<g clip-path="url(#clip0_1032_3357)">
<path d="M24 9.60001C23.91 7.60001 22.39 4.78001 19.81 2.72001C17.6541 0.978624 14.9713 0.0197515 12.2 1.44963e-05C9.24188 -0.05894 6.36073 0.945206 4.08003 2.83001C1.801 4.74025 0.364331 7.46992 0.0800274 10.43C-0.0999726 13.49 0.380027 15.28 1.45003 16.51C2.52003 17.74 4.39003 18.51 6.93003 19.36C7.02003 19.36 7.05003 19.51 7.10003 19.66C7.21387 20.1704 7.21387 20.6996 7.10003 21.21C6.98501 21.9695 6.67491 22.6862 6.20003 23.29C6.15061 23.355 6.12069 23.4327 6.11378 23.514C6.10687 23.5953 6.12325 23.6769 6.16101 23.7493C6.19876 23.8216 6.25633 23.8818 6.32699 23.9226C6.39765 23.9635 6.47848 23.9834 6.56003 23.98C6.85422 23.9867 7.14848 23.97 7.44003 23.93C8.69623 23.8035 9.91044 23.4079 11 22.77C11.3726 22.4974 11.7087 22.1781 12 21.82C12.69 20.98 13.28 19.92 13.62 19.48C14.03 19.48 15.02 19.48 16.06 19.35C16.6527 19.2891 17.2407 19.1889 17.82 19.05C19.8266 18.5095 21.5595 17.2401 22.68 15.49C23.7162 13.7095 24.1772 11.6524 24 9.60001ZM22 15.08C21.0169 16.6924 19.4646 17.8771 17.65 18.4C17.1047 18.5425 16.55 18.6461 15.99 18.71C14.67 18.87 13.59 18.64 13.26 18.88C12.93 19.12 12.34 20.21 11.7 21.04C11.394 21.4652 11.0267 21.8426 10.61 22.16C9.61342 22.7283 8.50372 23.0697 7.36003 23.16C7.73843 22.4313 7.95664 21.63 8.00003 20.81C8.05972 20.2732 7.99821 19.7299 7.82003 19.22C7.77106 19.0636 7.68837 18.9199 7.57778 18.7989C7.4672 18.678 7.33142 18.5828 7.18003 18.52C4.85003 17.67 3.18003 17.06 2.18003 15.86C1.18003 14.66 0.930027 13.18 1.18003 10.5C1.47543 7.83912 2.80417 5.40071 4.88003 3.71001C6.96492 2.00589 9.58778 1.09852 12.28 1.15001C14.7972 1.14814 17.2418 1.99352 19.22 3.55001C21.57 5.37001 23.03 7.85001 23.15 9.65001C23.3194 11.5417 22.8965 13.4392 21.94 15.08H22Z" fill="black"/>
<path d="M18.9 7.56002C18.8461 7.32671 18.7476 7.106 18.61 6.91002C18.3587 6.5508 18.0741 6.216 17.76 5.91002C17.4906 5.64122 17.1842 5.41224 16.85 5.23002C16.6389 5.12815 16.4016 5.09326 16.17 5.13002C15.9365 5.20299 15.7215 5.32582 15.54 5.49002C15.18 5.78002 14.67 6.23002 14.3 6.49002C14.2085 6.38192 14.1081 6.28158 14 6.19002C13.8279 6.05861 13.6475 5.93837 13.46 5.83002V4.68002C13.4537 4.418 13.396 4.15977 13.29 3.92002C13.1999 3.80381 13.0868 3.70742 12.9578 3.63688C12.8287 3.56634 12.6865 3.52315 12.54 3.51002C12.024 3.49837 11.5081 3.53857 11 3.63002C10.6904 3.63556 10.3822 3.67242 10.08 3.74002C9.90617 3.78388 9.74729 3.87368 9.62004 4.00002C9.53462 4.14091 9.49938 4.30656 9.52004 4.47002C9.52004 4.84002 9.65004 5.60002 9.72004 6.10002C9.45072 6.18653 9.18967 6.29697 8.94004 6.43002C8.80563 6.49565 8.68108 6.5798 8.57004 6.68002C8.25917 6.3498 7.92497 6.04235 7.57004 5.76002C7.4023 5.6402 7.20543 5.56767 7.00004 5.55002C6.83711 5.58071 6.6892 5.66523 6.58004 5.79002C6.42004 5.96002 6.20004 6.25002 5.99004 6.47002C5.7495 6.74623 5.55072 7.05619 5.40004 7.39002C5.29656 7.59734 5.26828 7.83417 5.32004 8.06002C5.3812 8.19914 5.47774 8.31981 5.60004 8.41002C5.90004 8.66002 6.60004 9.08002 6.95004 9.41002C6.88837 9.63119 6.86138 9.86058 6.87004 10.09C6.85475 10.2563 6.85475 10.4237 6.87004 10.59C6.44506 10.7443 6.04173 10.9526 5.67004 11.21C5.50683 11.3201 5.37375 11.4693 5.28293 11.6439C5.1921 11.8186 5.14642 12.0132 5.15004 12.21C5.16602 12.3526 5.20662 12.4913 5.27004 12.62C5.41004 12.91 5.71004 13.25 5.81004 13.46C5.98206 13.8227 6.20424 14.1593 6.47004 14.46C6.56556 14.5631 6.68172 14.6448 6.81094 14.6999C6.94017 14.7551 7.07956 14.7824 7.22004 14.78C7.4801 14.7646 7.73015 14.6743 7.94004 14.52C8.12742 14.3978 8.30466 14.2607 8.47004 14.11C8.60401 14.2213 8.74424 14.3248 8.89004 14.42C9.15236 14.5813 9.43047 14.7153 9.72004 14.82C9.65448 15.2103 9.61439 15.6045 9.60004 16C9.55762 16.3399 9.60592 16.6849 9.74004 17C9.82247 17.0914 9.92258 17.1651 10.0343 17.2166C10.146 17.2682 10.267 17.2966 10.39 17.3C11.1474 17.3288 11.9059 17.3054 12.66 17.23C12.8898 17.216 13.1176 17.1792 13.34 17.12C13.4648 17.0809 13.5733 17.002 13.6491 16.8955C13.7249 16.789 13.7639 16.6607 13.76 16.53L13.7 15.14C13.866 15.0686 14.0264 14.9851 14.18 14.89C14.4051 14.7538 14.6191 14.6 14.82 14.43C15.14 14.76 15.56 15.13 15.66 15.22C15.7888 15.3283 15.9465 15.3964 16.1135 15.416C16.2806 15.4355 16.4498 15.4056 16.6 15.33C17.0442 15.0368 17.4594 14.7019 17.84 14.33C18.1103 14.0944 18.3283 13.8049 18.48 13.48C18.6443 13.1518 18.7201 12.7865 18.7 12.42C18.6635 12.1186 18.5176 11.8411 18.29 11.64C17.95 11.31 17.35 10.95 16.96 10.64C17.0037 10.4297 17.0172 10.2142 17 10C16.989 9.84032 16.9587 9.68252 16.91 9.53002C17.4288 9.1979 17.9264 8.83386 18.4 8.44002C18.5406 8.33675 18.6578 8.20499 18.7439 8.05336C18.8301 7.90172 18.8833 7.73362 18.9 7.56002ZM16 8.90002C15.8966 8.96595 15.8197 9.06636 15.7831 9.18348C15.7465 9.3006 15.7525 9.42689 15.8 9.54002C15.8783 9.72085 15.9256 9.91352 15.94 10.11C15.9508 10.2928 15.927 10.476 15.87 10.65C15.8412 10.7466 15.84 10.8492 15.8665 10.9464C15.8931 11.0436 15.9462 11.1315 16.02 11.2C16.39 11.56 17.62 12.5 17.62 12.49C17.6056 12.6662 17.5556 12.8377 17.4731 12.9941C17.3906 13.1505 17.2773 13.2886 17.14 13.4C16.83 13.67 16.35 13.87 16.21 14.06L15.41 13.28C15.3656 13.1987 15.3023 13.1292 15.2255 13.0773C15.1487 13.0255 15.0605 12.9928 14.9685 12.9821C14.8764 12.9713 14.7831 12.9827 14.6964 13.0154C14.6097 13.0481 14.5321 13.1011 14.47 13.17C14.2637 13.3899 14.0321 13.5846 13.78 13.75C13.5607 13.9136 13.3133 14.0356 13.05 14.11C12.9141 14.1338 12.7911 14.2053 12.7031 14.3116C12.6152 14.4179 12.568 14.552 12.57 14.69L12.59 16C11.9628 16.0729 11.3315 16.1063 10.7 16.1C10.7008 15.5793 10.7544 15.0599 10.86 14.55C10.8942 14.4149 10.8748 14.2717 10.8058 14.1506C10.7368 14.0294 10.6237 13.9397 10.49 13.9C10.1848 13.8064 9.88729 13.6894 9.60004 13.55C9.36562 13.4722 9.15774 13.3301 9.00004 13.14C8.96578 13.0753 8.91894 13.0181 8.86227 12.9717C8.8056 12.9254 8.74025 12.8908 8.67004 12.87C8.59937 12.8486 8.5247 12.8438 8.45185 12.8559C8.37901 12.868 8.30995 12.8968 8.25004 12.94C8.05004 13.07 7.76004 13.36 7.47004 13.58C7.36004 13.66 7.27004 13.76 7.18004 13.76C7.09004 13.76 7.18004 13.76 7.10004 13.68C7.06192 13.609 7.02852 13.5355 7.00004 13.46C6.88004 13.28 6.79004 13.09 6.72004 12.97L6.14004 12.1C6.14004 12.1 6.14004 12.01 6.24004 11.97C6.35294 11.8621 6.48095 11.7711 6.62004 11.7C6.94198 11.5287 7.27624 11.3816 7.62004 11.26C7.72662 11.2174 7.8129 11.1357 7.86123 11.0316C7.90956 10.9275 7.91629 10.8089 7.88004 10.7C7.79915 10.4922 7.75189 10.2727 7.74004 10.05C7.72847 9.84833 7.76266 9.64664 7.84004 9.46002C7.86868 9.38099 7.87352 9.2953 7.85397 9.21354C7.83442 9.13178 7.79133 9.05755 7.73004 9.00002C7.55008 8.81756 7.35245 8.65342 7.14004 8.51002C6.79004 8.27002 6.35004 8.00002 6.14004 7.81002C6.20004 7.72002 6.20004 7.51002 6.28004 7.38002C6.34938 7.24693 6.42966 7.11982 6.52004 7.00002C6.70106 6.75726 6.90906 6.53584 7.14004 6.34002C7.23004 6.40002 7.33004 6.50002 7.45004 6.60002C7.79004 6.90002 8.14004 7.28002 8.38004 7.45002C8.41988 7.48297 8.4667 7.5064 8.51695 7.51853C8.56721 7.53066 8.61956 7.53117 8.67004 7.52002C8.72243 7.51038 8.77203 7.48924 8.81527 7.45811C8.8585 7.42699 8.89428 7.38665 8.92004 7.34002C9.00411 7.19385 9.1293 7.07561 9.28004 7.00002C9.56004 6.84877 9.85083 6.71841 10.15 6.61002C10.2281 6.59769 10.2981 6.55507 10.3449 6.49141C10.3917 6.42775 10.4115 6.3482 10.4 6.27002C10.4 6.27002 10.19 4.83002 10.16 4.38002L10.35 4.33002C10.5899 4.3167 10.8302 4.3167 11.07 4.33002C11.46 4.33002 11.87 4.22002 12.21 4.23002C12.287 4.21917 12.3654 4.22715 12.4385 4.25328C12.5117 4.27941 12.5774 4.3229 12.63 4.38002V6.00002C12.6179 6.08547 12.6338 6.17254 12.6753 6.24824C12.7167 6.32394 12.7815 6.3842 12.86 6.42002C13.0668 6.51948 13.2587 6.64739 13.43 6.80002C13.6027 6.94957 13.7511 7.12499 13.87 7.32002C13.9009 7.36643 13.9406 7.40625 13.987 7.43715C14.0333 7.46805 14.0853 7.48942 14.14 7.50002C14.1937 7.51142 14.2492 7.51107 14.3027 7.49899C14.3562 7.4869 14.4065 7.46337 14.45 7.43002L16.3 6.00002C16.42 6.00002 16.53 6.07002 16.64 6.15002C16.8109 6.2807 16.9714 6.42446 17.12 6.58002C17.2963 6.76558 17.46 6.96269 17.61 7.17002C17.7061 7.29699 17.793 7.43066 17.87 7.57002C17.2793 8.05754 16.6544 8.50202 16 8.90002Z" fill="black"/>
<path d="M12.7701 8.73999C12.6625 8.70402 12.5521 8.67726 12.4401 8.65999C10.8201 8.43999 10.3301 9.04999 10.0901 9.79999C10.0221 10.0067 9.99846 10.2255 10.0207 10.442C10.0428 10.6585 10.1104 10.8679 10.2189 11.0565C10.3274 11.2452 10.4743 11.4089 10.6503 11.537C10.8262 11.6651 11.0272 11.7547 11.2401 11.8C11.7057 11.8672 12.1802 11.768 12.5801 11.52C12.9398 11.2952 13.2359 10.9819 13.4401 10.61C13.5373 10.4403 13.599 10.2526 13.6214 10.0584C13.6437 9.8641 13.6262 9.6673 13.5701 9.47999C13.506 9.30142 13.3999 9.14093 13.2606 9.01211C13.1213 8.88329 12.9531 8.78995 12.7701 8.73999ZM12.5801 10.12C12.4295 10.3167 12.2341 10.4744 12.0101 10.58C11.8414 10.6894 11.6394 10.7354 11.4401 10.71C10.9601 10.66 10.9001 10.14 11.0501 9.76999C11.3401 9.07999 11.8201 9.27999 12.4801 9.45999C12.5402 9.48716 12.5926 9.52877 12.6327 9.58111C12.6729 9.63345 12.6994 9.6949 12.7101 9.75999C12.7136 9.82565 12.704 9.89136 12.6817 9.95321C12.6593 10.0151 12.6248 10.0718 12.5801 10.12Z" fill="black"/>
</g>
<defs>
<clipPath id="clip0_1032_3357">
<rect width="24" height="24" fill="white"/>
</clipPath>
</defs>
</svg>
