<svg width="24" height="24" viewBox="0 0 24 24" fill="none" xmlns="http://www.w3.org/2000/svg">
<g clip-path="url(#clip0_1032_3406)">
<path d="M7.64002 7.92998C7.43135 7.84651 7.21758 7.77636 7.00002 7.71998C7.55767 7.29364 7.99807 6.73282 8.28002 6.08998C9.93002 2.39998 4.79002 0.99998 2.71002 3.56998C1.71002 4.84998 1.49002 6.62998 2.95002 7.71998C3.14445 7.85153 3.34833 7.96851 3.56002 8.06998C2.76546 8.47968 2.07988 9.07271 1.56002 9.79998C0.93106 10.7731 0.499545 11.8604 0.29002 13C0.0411846 14.1095 0.0411846 15.2604 0.29002 16.37C0.357116 16.6964 0.535317 16.9894 0.794251 17.1991C1.05319 17.4088 1.37683 17.5222 1.71002 17.52C1.98635 17.5141 2.25724 17.4421 2.50002 17.31C2.44911 18.2193 2.44911 19.1307 2.50002 20.04C2.55109 20.8218 2.66818 21.5979 2.85002 22.36C2.98026 22.8421 3.26923 23.2662 3.67024 23.5637C4.07125 23.8613 4.56088 24.015 5.06002 24C5.54667 23.9739 6.0163 23.812 6.41572 23.5328C6.81513 23.2536 7.12839 22.8681 7.32002 22.42C7.5346 21.8756 7.66933 21.303 7.72002 20.72C7.82002 19.72 7.81002 18.6 7.84002 17.43H8.11002C8.52829 17.4216 8.92973 17.2637 9.2416 16.9849C9.55346 16.7061 9.75512 16.3247 9.81002 15.91C10.1224 14.2277 10.1224 12.5023 9.81002 10.82C9.7005 10.2018 9.447 9.618 9.07001 9.11594C8.69303 8.61387 8.20315 8.20759 7.64002 7.92998ZM3.44002 4.11998C5.05002 1.79998 8.44002 3.45998 7.44002 5.66998C7.2775 6.02623 7.04233 6.34457 6.74957 6.60461C6.45682 6.86464 6.11295 7.06062 5.74002 7.17998C5.38012 7.28499 5.0005 7.3035 4.63209 7.23399C4.26369 7.16448 3.91691 7.00892 3.62002 6.77998C2.62002 6.13998 2.83002 4.99998 3.44002 4.11998ZM8.93002 15.81C8.90905 16.0228 8.813 16.2211 8.65908 16.3696C8.50516 16.518 8.30343 16.6068 8.09002 16.62C7.72002 16.62 7.38002 16.37 7.30002 15.79C7.30002 15.41 7.22002 15 7.20002 14.58C7.18002 14.16 7.20002 13.77 7.20002 13.37C7.20272 13.3232 7.19599 13.2763 7.18023 13.2322C7.16448 13.1881 7.14002 13.1475 7.10831 13.113C7.0766 13.0785 7.03829 13.0507 6.99564 13.0313C6.95299 13.0119 6.90687 13.0012 6.86002 13C6.81537 12.9986 6.77089 13.0061 6.72913 13.022C6.68736 13.0379 6.64914 13.0618 6.61663 13.0924C6.58413 13.1231 6.55798 13.1598 6.53969 13.2006C6.5214 13.2414 6.51131 13.2853 6.51002 13.33V14.59C6.51002 15 6.51002 15.46 6.57002 15.86C6.58144 16.0988 6.64142 16.3329 6.7463 16.5478C6.85118 16.7627 6.99875 16.954 7.18002 17.11C7.08002 18.11 7.01002 19.17 6.89002 20.11C6.81514 20.7654 6.63269 21.4039 6.35002 22C6.22495 22.2521 6.03275 22.4649 5.79457 22.6149C5.55639 22.7648 5.28146 22.8462 5.00002 22.85C4.74689 22.8516 4.5004 22.769 4.29943 22.6151C4.09845 22.4612 3.95441 22.2448 3.89002 22C3.60911 21.1375 3.41154 20.2501 3.30002 19.35C3.18479 18.4608 3.1147 17.5663 3.09002 16.67C3.11569 16.6383 3.13909 16.6049 3.16002 16.57C3.39736 16.146 3.55338 15.6813 3.62002 15.2C3.69131 14.5359 3.7147 13.8675 3.69002 13.2C3.69136 13.1606 3.68491 13.1213 3.67106 13.0844C3.6572 13.0475 3.63621 13.0137 3.60927 12.9849C3.58234 12.9561 3.55 12.9329 3.51409 12.9166C3.47819 12.9003 3.43942 12.8913 3.40002 12.89C3.31951 12.8899 3.24214 12.9212 3.18428 12.9772C3.12642 13.0332 3.09262 13.1095 3.09002 13.19C3.11226 13.8181 3.08216 14.4469 3.00002 15.07C2.93357 15.4669 2.79095 15.8472 2.58002 16.19C2.49116 16.336 2.36637 16.4567 2.21757 16.5407C2.06877 16.6248 1.90091 16.6693 1.73002 16.67C1.57848 16.664 1.43397 16.6045 1.32225 16.5019C1.21053 16.3994 1.13886 16.2605 1.12002 16.11C0.974203 15.127 1.04243 14.1241 1.32002 13.17C1.52919 12.207 1.91577 11.2914 2.46002 10.47C2.98882 9.73698 3.72828 9.18239 4.58002 8.87998C5.43541 8.59939 6.36398 8.64209 7.19002 8.99998C7.60835 9.20421 7.9734 9.50299 8.25631 9.87268C8.53922 10.2424 8.73221 10.6728 8.82002 11.13C9.13544 12.6709 9.17269 14.2559 8.93002 15.81Z" fill="black"/>
<path d="M23.33 6.71C23.6501 6.11463 23.8505 5.46237 23.92 4.79C23.9812 4.16066 23.826 3.52927 23.48 3C23.207 2.53852 22.7832 2.18533 22.28 2C21.735 1.86409 21.165 1.86409 20.62 2C20.4491 1.54042 20.1794 1.12396 19.83 0.780002C19.3404 0.298263 18.6866 0.0196096 18 2.48943e-06C17.1547 -0.0465858 16.3099 0.100486 15.53 0.430003C14.8566 0.725076 14.3031 1.23976 13.96 1.89L13.86 2.06C13.77 2.06 13.61 2.17 13.44 2.21C12.854 2.33157 12.2928 2.55134 11.78 2.86C11.2517 3.19332 10.8314 3.67268 10.57 4.24C10.4365 4.51586 10.3714 4.81978 10.3801 5.12611C10.3888 5.43243 10.4711 5.73217 10.62 6C10.8811 6.45799 11.2194 6.86736 11.62 7.21C11.7078 7.28415 11.8014 7.35103 11.9 7.41C11.8652 7.82271 11.899 8.23834 12 8.64C12.0478 8.83579 12.138 9.01872 12.2641 9.17594C12.3902 9.33315 12.5493 9.46083 12.73 9.55C13.1487 9.75392 13.6191 9.8271 14.08 9.76C14.5983 9.66634 15.1002 9.49791 15.57 9.26L15.69 9.4C15.9378 9.70352 16.2313 9.96667 16.56 10.18C16.896 10.3757 17.2722 10.492 17.66 10.52C18.1669 10.5532 18.6674 10.3923 19.06 10.07C19.1979 9.96219 19.3222 9.83794 19.43 9.7H19.51C19.9797 9.87321 20.4709 9.98089 20.97 10.02C21.2774 10.0603 21.5897 10.0386 21.8886 9.95616C22.1875 9.87372 22.4668 9.73221 22.71 9.54C23.0298 9.25684 23.2418 8.87171 23.31 8.45C23.3468 7.96819 23.296 7.4837 23.16 7.02C23.16 7.02 23.25 6.85 23.33 6.71ZM23 5.07C22.8629 5.70084 22.6479 6.3122 22.36 6.89C22.36 7.1 22.58 7.6 22.58 8.17C22.5798 8.32749 22.5457 8.48309 22.4802 8.62628C22.4146 8.76947 22.3191 8.89692 22.2 9C21.8574 9.21996 21.4636 9.34754 21.0571 9.37031C20.6506 9.39309 20.2451 9.31031 19.88 9.13C19.8349 9.07724 19.779 9.03487 19.716 9.00583C19.653 8.97678 19.5844 8.96173 19.515 8.96173C19.4456 8.96173 19.3771 8.97678 19.314 9.00583C19.251 9.03487 19.1951 9.07724 19.15 9.13C18.9784 9.34134 18.762 9.51196 18.5164 9.62955C18.2709 9.74714 18.0023 9.80877 17.73 9.81C17.4484 9.77977 17.1778 9.68386 16.94 9.53C16.6442 9.31504 16.3872 9.05127 16.18 8.75C16.0782 8.61542 15.9441 8.50878 15.79 8.44C15.6541 8.39196 15.5059 8.39196 15.37 8.44C14.9397 8.66926 14.4781 8.83434 14 8.93C13.7036 8.9699 13.4022 8.91383 13.14 8.77C13.0511 8.71303 12.978 8.63464 12.9273 8.54203C12.8767 8.44942 12.8501 8.34557 12.85 8.24C12.79 7.74 12.85 7.24 12.85 7.13C12.7972 6.99393 12.7153 6.87105 12.61 6.77C12.1868 6.41528 11.8252 5.9929 11.54 5.52C11.4757 5.3911 11.4423 5.24904 11.4423 5.105C11.4423 4.96097 11.4757 4.8189 11.54 4.69C11.7229 4.32126 12.0074 4.01248 12.36 3.8C12.9275 3.5048 13.5385 3.30224 14.17 3.2C14.3238 3.16728 14.4677 3.09876 14.59 3C14.6824 2.89647 14.7568 2.77816 14.81 2.65C15.047 2.12058 15.4706 1.69695 16 1.46C16.6333 1.20068 17.317 1.08787 18 1.13C18.2065 1.12554 18.4119 1.16213 18.6041 1.23767C18.7964 1.3132 18.9717 1.42616 19.12 1.57C19.4069 1.84819 19.6229 2.19111 19.75 2.57C19.785 2.69502 19.851 2.80916 19.9419 2.90182C20.0328 2.99448 20.1457 3.06265 20.27 3.1C20.76 3.02855 21.2548 2.99511 21.75 3C21.9423 3.0288 22.1256 3.10034 22.2866 3.20937C22.4475 3.3184 22.582 3.46214 22.68 3.63C22.9663 4.05169 23.0807 4.56676 23 5.07Z" fill="black"/>
<path d="M13.27 13.05C12.875 12.9981 12.475 12.9981 12.08 13.05C11.9167 13.1211 11.7716 13.2281 11.6556 13.3632C11.5395 13.4983 11.4556 13.6579 11.41 13.83C11.3637 13.9974 11.3523 14.1725 11.3763 14.3445C11.4004 14.5165 11.4595 14.6818 11.55 14.83C11.6881 15.0645 11.889 15.2557 12.13 15.3821C12.371 15.5084 12.6426 15.5649 12.914 15.5452C13.1854 15.5254 13.4459 15.4302 13.666 15.2703C13.8862 15.1103 14.0573 14.892 14.16 14.64C14.2537 14.4412 14.2884 14.2196 14.26 14.0016C14.2317 13.7836 14.1414 13.5783 14 13.41C13.8032 13.2126 13.5465 13.086 13.27 13.05ZM13.37 14.14C13.3505 14.2059 13.317 14.2669 13.2719 14.3187C13.2267 14.3706 13.171 14.4121 13.1084 14.4406C13.0458 14.469 12.9779 14.4837 12.9092 14.4836C12.8404 14.4835 12.7725 14.4686 12.71 14.44C12.6119 14.4088 12.5251 14.3498 12.46 14.27C12.41 14.2 12.33 14.14 12.33 14.05C12.33 13.96 12.33 13.82 12.43 13.77C12.53 13.72 13.52 13.5 13.37 14.14Z" fill="black"/>
<path d="M15.69 11.37C15.5249 11.3876 15.3669 11.446 15.23 11.54C14.9859 11.7052 14.8092 11.9525 14.7321 12.237C14.6551 12.5215 14.6827 12.8242 14.81 13.09C14.9545 13.4413 15.1849 13.7508 15.48 13.99C15.8047 14.255 16.2109 14.3998 16.63 14.4C16.9651 14.3878 17.2918 14.2915 17.58 14.12C17.8858 13.9413 18.1247 13.6673 18.26 13.34C18.3647 13.0963 18.3959 12.8273 18.3497 12.5661C18.3035 12.3049 18.182 12.063 18 11.87C17.55 11.38 15.72 11.37 15.69 11.37ZM17.36 12.91C17.2864 13.0247 17.1777 13.1124 17.05 13.16C16.9098 13.2279 16.7557 13.2622 16.6 13.26C16.4384 13.2543 16.2834 13.1945 16.16 13.09C15.9865 12.9846 15.8394 12.841 15.73 12.67C15.63 12.5 15.56 12.31 15.73 12.15C15.797 12.0667 15.8939 12.0129 16 12C16.2477 11.9511 16.5033 11.9589 16.7475 12.023C16.9917 12.0871 17.2182 12.2057 17.41 12.37C17.4632 12.4527 17.4871 12.5507 17.4781 12.6486C17.469 12.7465 17.4275 12.8385 17.36 12.91Z" fill="black"/>
</g>
<defs>
<clipPath id="clip0_1032_3406">
<rect width="24" height="24" fill="white"/>
</clipPath>
</defs>
</svg>
