<svg width="24" height="24" viewBox="0 0 24 24" fill="none" xmlns="http://www.w3.org/2000/svg">
<g clip-path="url(#clip0_1032_3345)">
<path d="M24 9.60001C23.91 7.60001 22.39 4.78001 19.81 2.72001C17.6541 0.978624 14.9713 0.0197515 12.2 1.44963e-05C9.24188 -0.05894 6.36073 0.945206 4.08003 2.83001C1.801 4.74025 0.364331 7.46992 0.0800274 10.43C-0.0999726 13.49 0.380027 15.28 1.45003 16.51C2.52003 17.74 4.39003 18.51 6.93003 19.36C7.02003 19.36 7.05003 19.51 7.10003 19.66C7.21387 20.1704 7.21387 20.6996 7.10003 21.21C6.98501 21.9695 6.67491 22.6862 6.20003 23.29C6.15061 23.355 6.12069 23.4327 6.11378 23.514C6.10687 23.5953 6.12325 23.6769 6.16101 23.7493C6.19876 23.8216 6.25633 23.8818 6.32699 23.9226C6.39765 23.9635 6.47848 23.9834 6.56003 23.98C6.85422 23.9867 7.14848 23.97 7.44003 23.93C8.69623 23.8035 9.91044 23.4079 11 22.77C11.3726 22.4974 11.7087 22.1781 12 21.82C12.69 20.98 13.28 19.92 13.62 19.48C14.03 19.48 15.02 19.48 16.06 19.35C16.6527 19.2891 17.2407 19.1889 17.82 19.05C19.8266 18.5095 21.5595 17.2401 22.68 15.49C23.7162 13.7095 24.1772 11.6524 24 9.60001ZM22 15.08C21.0169 16.6924 19.4646 17.8771 17.65 18.4C17.1047 18.5425 16.55 18.6461 15.99 18.71C14.67 18.87 13.59 18.64 13.26 18.88C12.93 19.12 12.34 20.21 11.7 21.04C11.394 21.4652 11.0267 21.8426 10.61 22.16C9.61342 22.7283 8.50372 23.0697 7.36003 23.16C7.73843 22.4313 7.95664 21.63 8.00003 20.81C8.05972 20.2732 7.99821 19.7299 7.82003 19.22C7.77106 19.0636 7.68837 18.9199 7.57778 18.7989C7.4672 18.678 7.33142 18.5828 7.18003 18.52C4.85003 17.67 3.18003 17.06 2.18003 15.86C1.18003 14.66 0.930027 13.18 1.18003 10.5C1.47543 7.83912 2.80417 5.40071 4.88003 3.71001C6.96492 2.00589 9.58778 1.09852 12.28 1.15001C14.7972 1.14814 17.2418 1.99352 19.22 3.55001C21.57 5.37001 23.03 7.85001 23.15 9.65001C23.3194 11.5417 22.8965 13.4392 21.94 15.08H22Z" fill="black"/>
<path d="M19.86 12.32C19.67 11.71 19.47 11.1 19.28 10.61C18.7246 9.24313 18.0556 7.92518 17.28 6.67004C17.1607 6.43435 16.9959 6.22463 16.7951 6.05299C16.5942 5.88135 16.3614 5.7512 16.11 5.67004C15.9005 5.68901 15.6973 5.75124 15.5131 5.85279C15.3289 5.95435 15.1678 6.09302 15.04 6.26004C14.36 7.07479 13.7636 7.95589 13.26 8.89004L12.6 10.37C12.51 10.32 11.13 9.99004 10.83 9.89004C10.6571 9.82831 10.4722 9.80777 10.29 9.83004C9.92168 10.0477 9.60991 10.3492 9.38 10.71C8.67 11.66 7.68 13.32 7.23 14.07L5.43 14.19C5.35044 14.19 5.27413 14.2217 5.21787 14.2779C5.16161 14.3342 5.13 14.4105 5.13 14.49C5.13 14.5696 5.16161 14.6459 5.21787 14.7022C5.27413 14.7584 5.35044 14.79 5.43 14.79C5.9 14.79 8.03 14.94 10.54 14.97H12.72L14.9 15C17.31 14.89 19.38 14.76 19.98 14.75C20.0247 14.7514 20.0691 14.7439 20.1109 14.728C20.1527 14.7122 20.1909 14.6882 20.2234 14.6576C20.2559 14.6269 20.282 14.5902 20.3003 14.5494C20.3186 14.5087 20.3287 14.4647 20.33 14.42C20.2212 13.7102 20.0642 13.0086 19.86 12.32ZM14.86 13.87H12.7C11.97 13.87 11.23 13.87 10.52 13.93C9.65001 13.93 8.83001 14.02 8.10001 14.07C8.48001 13.5 9.00001 12.73 9.51 12.07C9.81001 11.66 10.11 11.29 10.34 11.07C10.4051 11.0034 10.4791 10.9462 10.56 10.9C11.1151 11.1486 11.6864 11.3591 12.27 11.53C12.5602 11.6089 12.8691 11.5805 13.14 11.45C13.3187 11.3215 13.4657 11.1539 13.57 10.96C13.84 10.52 14.16 9.74004 14.27 9.54004C14.38 9.34004 14.74 8.74004 15.04 8.28004C15.303 7.82854 15.6041 7.40032 15.94 7.00004L16.02 6.90004C16.1071 6.95393 16.1876 7.01768 16.26 7.09004C16.6257 7.56424 16.9597 8.06198 17.26 8.58004C17.85 9.58004 18.38 10.58 18.52 10.9C18.73 11.36 18.97 11.9 19.19 12.51C19.41 13.12 19.52 13.51 19.64 13.97C18.77 14 17 13.9 14.89 13.87H14.86Z" fill="black"/>
<path d="M7.32004 8.73001C7.90048 8.63198 8.43176 8.34347 8.83004 7.91001C9.02381 7.68422 9.16475 7.41803 9.2426 7.13086C9.32045 6.84368 9.33324 6.54276 9.28004 6.25001C9.14723 5.75806 8.86432 5.31976 8.47071 4.99613C8.0771 4.67251 7.59237 4.47967 7.08402 4.44446C6.57567 4.40925 6.06899 4.53342 5.63452 4.79969C5.20005 5.06595 4.85942 5.46107 4.66004 5.93001C4.54209 6.15933 4.47283 6.41057 4.45663 6.66794C4.44044 6.92531 4.47765 7.18325 4.56593 7.42555C4.65421 7.66784 4.79165 7.88926 4.96961 8.07589C5.14757 8.26252 5.36221 8.41032 5.60004 8.51001C6.13661 8.76022 6.73778 8.83711 7.32004 8.73001ZM5.80004 6.00001C5.93557 5.73194 6.15262 5.51375 6.41997 5.37682C6.68733 5.23989 6.99122 5.19127 7.28795 5.23794C7.58469 5.28462 7.85898 5.42419 8.07138 5.63659C8.28378 5.849 8.42336 6.12328 8.47004 6.42001C8.48165 6.58358 8.45621 6.74765 8.39561 6.90001C8.33501 7.05238 8.24082 7.1891 8.12004 7.30001C7.83649 7.53275 7.4863 7.66932 7.12004 7.69001C6.77921 7.7426 6.43045 7.69029 6.12004 7.54001C5.98436 7.47264 5.86576 7.37533 5.7732 7.25541C5.68063 7.1355 5.61652 6.99612 5.5857 6.8478C5.55488 6.69948 5.55816 6.5461 5.59529 6.39924C5.63242 6.25237 5.70244 6.11586 5.80004 6.00001Z" fill="black"/>
</g>
<defs>
<clipPath id="clip0_1032_3345">
<rect width="24" height="24" fill="white"/>
</clipPath>
</defs>
</svg>
