<svg width="24" height="24" viewBox="0 0 24 24" fill="none" xmlns="http://www.w3.org/2000/svg">
<g clip-path="url(#clip0_1032_3400)">
<path d="M23.83 2.8C23.8203 2.30718 23.7735 1.81579 23.69 1.33C23.6554 1.15192 23.5683 0.988244 23.44 0.86C23.3059 0.770739 23.1569 0.706377 23 0.67C22.2994 0.539676 21.5914 0.452843 20.88 0.41C18.12 0.18 13.59 0 11.77 0C11.23 0 7.13 0 4.1 0.1C3.20585 0.130691 2.3143 0.214169 1.43 0.35C1.12241 0.388575 0.827992 0.498124 0.57 0.67C0.462101 0.774916 0.382912 0.90575 0.34 1.05C0.218353 1.60909 0.14806 2.17812 0.13 2.75C0 5.07 0 9 0 9.87C0 10.74 0.13 14.49 0.26 16.76C0.26 17.49 0.34 18.06 0.38 18.33C0.388787 18.4676 0.437433 18.5996 0.52 18.71C0.805404 18.9426 1.15343 19.0853 1.52 19.12C2.23486 19.192 2.95514 19.192 3.67 19.12C4.44 19.05 5.1 18.99 5.67 18.99C7.21 18.99 7.08 19.36 7.13 19.55C7.244 20.1008 7.244 20.6692 7.13 21.22C6.98597 22.0254 6.64214 22.7819 6.13 23.42C6.09004 23.4796 6.06778 23.5494 6.06581 23.6211C6.06384 23.6929 6.08222 23.7637 6.11884 23.8254C6.15547 23.8872 6.20882 23.9373 6.27274 23.9699C6.33666 24.0026 6.40851 24.0165 6.48 24.01C6.8712 24.0056 7.26053 23.9552 7.64 23.86C8.63888 23.6754 9.56874 23.2226 10.33 22.55C10.7023 22.1338 11.0369 21.6853 11.33 21.21C11.83 20.42 12.13 19.69 12.41 19.29C12.5 19.29 12.74 19.22 12.98 19.22C14.63 19.22 18.5 19.39 19.88 19.5C20.6092 19.5496 21.3408 19.5496 22.07 19.5C22.4925 19.4936 22.902 19.3536 23.24 19.1C23.56 18.4003 23.7238 17.6394 23.72 16.87C24 14.27 24 9.86 24 9C24 8.14 23.94 4.76 23.83 2.8ZM22.83 15.86C22.8196 16.6227 22.7629 17.3842 22.66 18.14C22.66 18.26 22.59 18.4 22.58 18.45C22.5007 18.4841 22.4161 18.5043 22.33 18.51C22.055 18.5503 21.7778 18.5737 21.5 18.58H20.04C18.83 18.51 15.73 18.4 13.84 18.41C13.3559 18.3996 12.8716 18.4197 12.39 18.47C12.2394 18.4801 12.0975 18.544 11.99 18.65C11.67 19.02 11.35 19.89 10.77 20.83C10.5007 21.2507 10.1891 21.6428 9.84 22C9.0738 22.676 8.12318 23.1078 7.11 23.24C7.53827 22.481 7.79752 21.6385 7.87 20.77C8.1 18.11 6.53 18.27 5.74 18.26C5.16 18.26 4.47 18.26 3.67 18.37C3.10415 18.413 2.53585 18.413 1.97 18.37C1.66513 18.3795 1.3637 18.3033 1.1 18.15L0.9 9.87C0.9 9.16 0.9 6.71 1.01 4.57C1.01 3.46 1.12 2.43 1.21 1.79C1.22837 1.64525 1.25508 1.50167 1.29 1.36C1.42 1.36 1.63 1.36 1.8 1.31C2.93912 1.18549 4.0841 1.12207 5.23 1.12C8.05 1.06 11.29 1.12 11.76 1.12C13.12 1.12 16.02 1.24 18.54 1.39C19.98 1.48 21.29 1.58 22.12 1.68L22.59 1.76C22.5966 1.87657 22.5966 1.99343 22.59 2.11C22.75 3.81 22.82 7.88 22.81 8.99C22.86 9.75 22.93 13.25 22.84 15.86H22.83Z" fill="black"/>
<path d="M19.27 5.80001C18.57 5.74001 16.61 5.60001 14.32 5.51001H12.2H10.08C8 5.58001 6.14 5.73001 5.08 5.83001C5.00043 5.83001 4.92413 5.86162 4.86787 5.91788C4.81161 5.97414 4.78 6.05044 4.78 6.13001C4.78 6.20957 4.81161 6.28588 4.86787 6.34214C4.92413 6.3984 5.00043 6.43001 5.08 6.43001C6.08 6.43001 7.96 6.55001 10.02 6.61001H12.13H14.25C16.52 6.61001 18.48 6.49001 19.18 6.51001C19.2712 6.51276 19.3598 6.47981 19.4271 6.41817C19.4943 6.35653 19.5348 6.27108 19.54 6.18001C19.5495 6.09456 19.5273 6.0086 19.4775 5.93852C19.4277 5.86844 19.3538 5.81913 19.27 5.80001Z" fill="black"/>
<path d="M19 9.51001H14.18H12.12C11.43 9.51001 10.73 9.51001 10.06 9.59001C7.72001 9.72001 5.78001 9.89001 5.28001 9.90001C5.20045 9.90001 5.12414 9.93162 5.06788 9.98788C5.01162 10.0441 4.98001 10.1204 4.98001 10.2C4.98001 10.2796 5.01162 10.3559 5.06788 10.4121C5.12414 10.4684 5.20045 10.5 5.28001 10.5C5.79001 10.5 7.75001 10.66 10.12 10.68H12.18C12.88 10.68 13.57 10.63 14.25 10.59C16.15 10.48 17.92 10.32 19.06 10.22C19.1502 10.22 19.2367 10.1842 19.3004 10.1204C19.3642 10.0567 19.4 9.97018 19.4 9.88001C19.4 9.78984 19.3642 9.70336 19.3004 9.63959C19.2367 9.57583 19.1502 9.54001 19.06 9.54001L19 9.51001Z" fill="black"/>
<path d="M12.3 13.34C11.88 13.34 10.9 13.24 9.77001 13.23H8.70001C8.34001 13.23 7.97001 13.23 7.63001 13.31C6.57001 13.43 5.63001 13.6 5.15001 13.64C5.07044 13.64 4.99414 13.6716 4.93787 13.7278C4.88161 13.7841 4.85001 13.8604 4.85001 13.94C4.85001 14.0195 4.88161 14.0959 4.93787 14.1521C4.99414 14.2084 5.07044 14.24 5.15001 14.24C6.11263 14.352 7.08089 14.4088 8.05001 14.41C8.62001 14.41 9.21001 14.41 9.76001 14.3C10.9 14.19 11.88 14.03 12.31 14C12.4002 14 12.4867 13.9642 12.5504 13.9004C12.6142 13.8366 12.65 13.7502 12.65 13.66C12.6487 13.6158 12.6386 13.5722 12.6202 13.532C12.6018 13.4918 12.5755 13.4557 12.5428 13.4258C12.5102 13.396 12.4718 13.373 12.4301 13.3582C12.3884 13.3435 12.3442 13.3373 12.3 13.34Z" fill="black"/>
</g>
<defs>
<clipPath id="clip0_1032_3400">
<rect width="24" height="24" fill="white"/>
</clipPath>
</defs>
</svg>
