<svg width="24" height="24" viewBox="0 0 24 24" fill="none" xmlns="http://www.w3.org/2000/svg">
<g clip-path="url(#clip0_1035_5036)">
<path fill-rule="evenodd" clip-rule="evenodd" d="M10.54 11.37C10.4686 11.383 10.404 11.4206 10.3575 11.4764C10.3109 11.5321 10.2855 11.6024 10.2855 11.675C10.2855 11.7476 10.3109 11.8179 10.3575 11.8736C10.404 11.9294 10.4686 11.967 10.54 11.98C10.946 12.1789 11.4042 12.2453 11.85 12.17C12.15 12.11 12.38 12.01 12.53 11.99C12.6202 11.9993 12.7103 11.9724 12.7807 11.9152C12.851 11.858 12.8957 11.7752 12.905 11.685C12.9143 11.5948 12.8874 11.5047 12.8302 11.4343C12.773 11.364 12.6902 11.3193 12.6 11.31C12.281 11.1402 11.9233 11.0564 11.562 11.0669C11.2008 11.0775 10.8486 11.1819 10.54 11.37Z" fill="black"/>
<path fill-rule="evenodd" clip-rule="evenodd" d="M22.11 19.62C20.85 18.31 19.7 17.39 18.25 15.68C23.3 9.26 19.44 1.06 11.94 0.060002C10.3781 -0.0718622 8.80667 0.153095 7.34451 0.717866C5.88234 1.28264 4.56771 2.17244 3.5 3.32C2.42761 4.45225 1.63489 5.81962 1.18518 7.31287C0.735466 8.80611 0.641231 10.3838 0.910001 11.92C1.91 18.09 5.97 20.79 11.62 19.92C11.7014 19.8999 11.7725 19.8505 11.8196 19.7812C11.8668 19.712 11.8867 19.6277 11.8756 19.5446C11.8644 19.4616 11.823 19.3855 11.7592 19.3312C11.6954 19.2768 11.6138 19.2479 11.53 19.25C6.3 19.89 2.69 17.45 1.97 11.74C1.77274 10.3788 1.89011 8.99041 2.31308 7.6816C2.73606 6.37279 3.4534 5.17834 4.41 4.19C5.34556 3.19082 6.49338 2.41427 7.76889 1.91756C9.0444 1.42086 10.4151 1.21666 11.78 1.32C18.61 2.11 22.18 9.68 17.16 15.66C16.2705 16.7549 15.1639 17.6537 13.91 18.3C13.8303 18.3496 13.7717 18.427 13.7456 18.5172C13.7196 18.6074 13.7278 18.7041 13.7688 18.7886C13.8098 18.8731 13.8807 18.9394 13.9677 18.9747C14.0547 19.0101 14.1517 19.012 14.24 18.98C15.5997 18.3215 16.8057 17.3846 17.78 16.23C20.71 20.05 23 21.39 21.71 22.58C20.99 23.25 20.12 22.38 19.17 21.47C18.1729 20.575 17.228 19.6234 16.34 18.62C16.3157 18.5885 16.2854 18.5621 16.2509 18.5422C16.2164 18.5224 16.1784 18.5096 16.1389 18.5045C16.0994 18.4994 16.0593 18.5021 16.0209 18.5125C15.9825 18.5229 15.9465 18.5407 15.915 18.565C15.8835 18.5893 15.8571 18.6196 15.8372 18.6541C15.8174 18.6886 15.8046 18.7266 15.7995 18.7661C15.7944 18.8056 15.7971 18.8457 15.8075 18.8841C15.8179 18.9225 15.8357 18.9585 15.86 18.99C16.6587 20.1078 17.5201 21.1796 18.44 22.2C19.72 23.53 21.04 24.76 22.44 23.43C23.73 22.27 23.27 20.85 22.11 19.62Z" fill="black"/>
<path fill-rule="evenodd" clip-rule="evenodd" d="M13.38 13.76C12.59 13.76 11.38 13.59 10.38 13.57C9.05 13.57 8.02 13.71 7.38 13.68C7.56299 11.7692 7.62311 9.84854 7.56 7.93C7.56 7.72 7.71 7.37 7.66 7.2C8.01 7.2 13.73 7.03 13.82 7.2C14.2075 9.01949 14.3455 10.8833 14.23 12.74C14.2181 12.8196 14.2382 12.9006 14.2861 12.9653C14.3339 13.03 14.4054 13.0731 14.485 13.085C14.5646 13.0969 14.6456 13.0768 14.7103 13.0289C14.775 12.9811 14.8181 12.9096 14.83 12.83C14.8258 12.7834 14.8258 12.7366 14.83 12.69C15.1453 12.8245 15.4879 12.8827 15.83 12.86C16.116 12.8658 16.4016 12.8355 16.68 12.77C17.2 12.77 17.24 12.11 16.68 11.95C16.3962 11.8356 16.09 11.7878 15.7849 11.8104C15.4798 11.8329 15.1839 11.9252 14.92 12.08C15.13 9.86 14.65 10.77 15.81 10.69C16.29 10.69 17.07 10.69 17.07 10.26C17.0661 10.1496 17.0257 10.0436 16.9551 9.95853C16.8845 9.8735 16.7878 9.81424 16.68 9.79C16.4141 9.67183 16.1251 9.61496 15.8343 9.62362C15.5435 9.63227 15.2584 9.70622 15 9.84V8.43C15.2668 8.53554 15.5538 8.57997 15.84 8.56C16.1257 8.56044 16.4107 8.53027 16.69 8.47C17.21 8.47 17.25 7.81 16.69 7.65C16.407 7.53411 16.1012 7.48466 15.7961 7.50547C15.4909 7.52627 15.1947 7.61677 14.93 7.77C14.83 6.48 14.66 6.11 13.19 6.02C13.3111 5.77739 13.3782 5.51147 13.3868 5.24047C13.3955 4.96947 13.3454 4.69982 13.24 4.45C13.08 3.91 12.42 3.94 12.42 4.45C12.3597 4.7293 12.3296 5.01426 12.33 5.3C12.3087 5.52648 12.336 5.75489 12.41 5.97H11.11C11.2164 5.73076 11.2714 5.47184 11.2714 5.21C11.2714 4.94816 11.2164 4.68924 11.11 4.45C11.0838 4.34139 11.0226 4.2444 10.9359 4.17394C10.8491 4.10348 10.7417 4.06345 10.63 4.06C10.2 4.06 10.23 4.83 10.2 5.32C10.1729 5.53995 10.2004 5.76318 10.28 5.97H8.9C9.01948 5.73686 9.08999 5.48174 9.10719 5.22034C9.12439 4.95894 9.08791 4.69678 9 4.45C8.84 3.91 8.18 3.94 8.18 4.45C8.08788 4.73241 8.02751 5.02421 8 5.32C7.97907 5.571 8.0132 5.82355 8.1 6.06C6.8 6.15 6.37 6.16 6.47 7.71C6.22734 7.58985 5.962 7.5224 5.69142 7.51206C5.42084 7.50171 5.15113 7.54872 4.9 7.65C4.78954 7.67432 4.6903 7.73468 4.61789 7.82157C4.54548 7.90846 4.50401 8.01696 4.5 8.13C4.5 8.56 5.27 8.53 5.76 8.56C6.02833 8.5865 6.29912 8.5488 6.55 8.45V9.85C6.29238 9.70602 6.00517 9.62304 5.71046 9.60743C5.41575 9.59183 5.12138 9.64402 4.85 9.76C4.31 9.91 4.34 10.57 4.85 10.57C5.12853 10.635 5.41404 10.6652 5.7 10.66C5.99618 10.6853 6.29416 10.6408 6.57 10.53L6.63 12.06C6.36319 11.8988 6.06239 11.8022 5.7516 11.7778C5.4408 11.7535 5.12864 11.8022 4.84 11.92C4.72954 11.9443 4.6303 12.0047 4.55789 12.0916C4.48548 12.1785 4.44401 12.287 4.44 12.4C4.44 12.83 5.21 12.8 5.7 12.83C6.04127 12.8559 6.38385 12.8011 6.7 12.67C6.63 14.56 6.7 14.23 8.2 14.51C8.06762 14.8259 8.00946 15.1681 8.03 15.51C8.03 15.99 8.03 16.77 8.46 16.77C8.57354 16.7677 8.68293 16.7269 8.77018 16.6542C8.85742 16.5815 8.91731 16.4813 8.94 16.37C9.0527 16.0897 9.10045 15.7876 9.07967 15.4862C9.05888 15.1849 8.97011 14.8921 8.82 14.63C10.99 14.94 10.12 14.35 10.2 15.51C10.2 15.99 10.2 16.77 10.63 16.77C10.743 16.766 10.8515 16.7245 10.9384 16.6521C11.0253 16.5797 11.0857 16.4805 11.11 16.37C11.2173 16.1028 11.2632 15.8148 11.2441 15.5275C11.2251 15.2401 11.1417 14.9607 11 14.71C13.14 14.59 12.19 14.3 12.27 15.49C12.27 15.97 12.27 16.75 12.7 16.75C12.8135 16.7477 12.9229 16.7069 13.0102 16.6342C13.0974 16.5615 13.1573 16.4613 13.18 16.35C13.3034 16.0509 13.3525 15.7263 13.3228 15.4041C13.2932 15.0818 13.1859 14.7716 13.01 14.5L13.38 14.45C13.4302 14.4586 13.4817 14.4561 13.5309 14.4427C13.58 14.4293 13.6257 14.4054 13.6646 14.3725C13.7036 14.3397 13.7349 14.2987 13.7564 14.2525C13.7778 14.2063 13.789 14.1559 13.789 14.105C13.789 14.054 13.7778 14.0037 13.7564 13.9575C13.7349 13.9113 13.7036 13.8703 13.6646 13.8375C13.6257 13.8046 13.58 13.7807 13.5309 13.7673C13.4817 13.7539 13.4302 13.7514 13.38 13.76Z" fill="black"/>
</g>
<defs>
<clipPath id="clip0_1035_5036">
<rect width="24" height="24" fill="white"/>
</clipPath>
</defs>
</svg>
