<svg width="24" height="24" viewBox="0 0 24 24" fill="none" xmlns="http://www.w3.org/2000/svg">
<g clip-path="url(#clip0_1035_5009)">
<path fill-rule="evenodd" clip-rule="evenodd" d="M23.6 16.64C22.9492 16.4492 22.2776 16.3384 21.6 16.31L20.78 16.44C20.9 15.14 20.96 13.75 20.97 12.44C21.1093 12.5002 21.2584 12.5341 21.41 12.54C22.1393 12.7891 22.9307 12.7891 23.66 12.54C23.706 12.54 23.7515 12.5309 23.7939 12.5134C23.8364 12.4958 23.875 12.47 23.9075 12.4375C23.94 12.405 23.9658 12.3664 23.9834 12.3239C24.001 12.2815 24.01 12.236 24.01 12.19C24.01 12.144 24.001 12.0985 23.9834 12.0561C23.9658 12.0136 23.94 11.975 23.9075 11.9425C23.875 11.91 23.8364 11.8842 23.7939 11.8666C23.7515 11.8491 23.706 11.84 23.66 11.84C22.49 11.61 22.55 11.31 20.97 11.68C20.97 10.33 20.97 8.99 20.87 7.8C20.9942 7.83502 21.1214 7.85845 21.25 7.87C21.6003 7.99016 21.9699 8.04441 22.34 8.03C22.7302 8.00619 23.118 7.9527 23.5 7.87C23.5839 7.85587 23.6601 7.81245 23.7151 7.74746C23.7701 7.68247 23.8002 7.60011 23.8002 7.515C23.8002 7.42989 23.7701 7.34753 23.7151 7.28254C23.6601 7.21755 23.5839 7.17414 23.5 7.16C22.38 7 22.36 6.66 20.8 7C20.55 3.61 20.37 3.09 17.21 3C17.2452 2.87242 17.2687 2.74187 17.28 2.61C17.5097 1.87758 17.5097 1.09242 17.28 0.360002C17.28 0.31404 17.271 0.268527 17.2534 0.226063C17.2358 0.183599 17.21 0.145015 17.1775 0.112515C17.145 0.0800143 17.1064 0.0542335 17.0639 0.0366443C17.0215 0.0190552 16.976 0.0100021 16.93 0.0100021C16.884 0.0100021 16.8385 0.0190552 16.7961 0.0366443C16.7536 0.0542335 16.715 0.0800143 16.6825 0.112515C16.65 0.145015 16.6242 0.183599 16.6066 0.226063C16.5891 0.268527 16.58 0.31404 16.58 0.360002C16.37 1.54 16.09 1.36 16.44 2.98H12.5C12.7486 2.1584 12.7486 1.2816 12.5 0.460002C12.4859 0.376073 12.4425 0.299866 12.3775 0.244907C12.3125 0.189949 12.2301 0.159793 12.145 0.159793C12.0599 0.159793 11.9775 0.189949 11.9125 0.244907C11.8476 0.299866 11.8041 0.376073 11.79 0.460002C11.6078 1.03995 11.5068 1.64234 11.49 2.25C11.5115 2.50199 11.5482 2.75245 11.6 3C11.53 3 8.93001 3.06 7.80001 3.12C8.05019 2.32591 8.05019 1.4741 7.80001 0.680002C7.78587 0.596073 7.74246 0.519866 7.67747 0.464907C7.61248 0.409949 7.53012 0.379793 7.44501 0.379793C7.35989 0.379793 7.27754 0.409949 7.21255 0.464907C7.14756 0.519866 7.10414 0.596073 7.09001 0.680002C6.87001 1.94 6.63001 1.68 6.92001 3.16C5.92001 3.21 5.11001 3.27 4.49001 3.34C2.98001 3.51 3.30001 5.34 3.36001 6.68C1.81001 6.32 2.00001 6.58 0.800006 6.77C0.716077 6.78414 0.63987 6.82755 0.584911 6.89254C0.529953 6.95753 0.499797 7.03989 0.499797 7.125C0.499797 7.21011 0.529953 7.29247 0.584911 7.35746C0.63987 7.42245 0.716077 7.46587 0.800006 7.48C1.50768 7.73675 2.27939 7.7578 3.00001 7.54C3.10648 7.54905 3.21353 7.54905 3.32001 7.54L3.39001 11.48C3.01989 11.362 2.6424 11.2685 2.26001 11.2C1.65325 11.21 1.05082 11.3042 0.470006 11.48C0.386077 11.4941 0.30987 11.5376 0.254911 11.6025C0.199953 11.6675 0.169797 11.7499 0.169797 11.835C0.169797 11.9201 0.199953 12.0025 0.254911 12.0675C0.30987 12.1325 0.386077 12.1759 0.470006 12.19C1.19309 12.4564 1.98375 12.4775 2.72001 12.25C2.78001 12.25 3.21001 12.25 3.22001 12.1C3.28421 12.1256 3.3558 12.1256 3.42001 12.1L3.49001 16.16C1.64001 15.76 1.81001 16.05 0.390006 16.24C0.338397 16.2313 0.285514 16.234 0.23504 16.2478C0.184567 16.2616 0.137717 16.2863 0.097755 16.3201C0.057793 16.3539 0.0256798 16.396 0.0036528 16.4435C-0.0183742 16.491 -0.0297852 16.5427 -0.0297852 16.595C-0.0297852 16.6473 -0.0183742 16.699 0.0036528 16.7465C0.0256798 16.794 0.057793 16.8361 0.097755 16.8699C0.137717 16.9037 0.184567 16.9284 0.23504 16.9422C0.285514 16.956 0.338397 16.9587 0.390006 16.95C1.23956 17.2019 2.14143 17.2192 3.00001 17C3.16982 16.9914 3.33784 16.9611 3.50001 16.91V18.91C3.51414 18.9939 3.55756 19.0701 3.62255 19.1251C3.68754 19.1801 3.76989 19.2102 3.85501 19.2102C3.94012 19.2102 4.02248 19.1801 4.08747 19.1251C4.15246 19.0701 4.19587 18.9939 4.21001 18.91V6.62C4.21001 5.78 3.99001 4.36 4.51001 4.31C9.06247 4.05278 13.6251 4.02941 18.18 4.24C19.18 4.32 19.25 4.59 19.36 5.35C19.8 8.22 20.01 17.95 19.04 19.49C16.96 20.27 7.14001 20.1 4.31001 19.64C4.26953 19.6317 4.22782 19.6317 4.18732 19.6398C4.14681 19.6478 4.10833 19.6639 4.07414 19.6871C4.03995 19.7103 4.01073 19.7401 3.9882 19.7747C3.96568 19.8093 3.9503 19.8481 3.94297 19.8887C3.93564 19.9294 3.9365 19.9711 3.94552 20.0114C3.95453 20.0517 3.97151 20.0898 3.99546 20.1235C4.0194 20.1571 4.04983 20.1856 4.08496 20.2074C4.12009 20.2291 4.1592 20.2436 4.20001 20.25C4.84001 20.37 5.76001 20.48 6.84001 20.57C6.79317 20.741 6.75644 20.9147 6.73001 21.09C6.48001 22.16 6.73001 22.38 6.93001 23.35C6.94414 23.4339 6.98756 23.5101 7.05255 23.5651C7.11754 23.6201 7.19989 23.6502 7.28501 23.6502C7.37012 23.6502 7.45248 23.6201 7.51747 23.5651C7.58246 23.5101 7.62587 23.4339 7.64001 23.35C7.86487 22.6134 7.86487 21.8266 7.64001 21.09C7.64001 21.04 7.64001 20.7 7.52001 20.63C8.74001 20.72 10.1 20.78 11.52 20.82C11.1 22.34 11.44 22.49 11.63 23.57C11.63 23.6628 11.6669 23.7519 11.7325 23.8175C11.7982 23.8831 11.8872 23.92 11.98 23.92C12.0728 23.92 12.1619 23.8831 12.2275 23.8175C12.2931 23.7519 12.33 23.6628 12.33 23.57C12.5719 22.8361 12.5719 22.0439 12.33 21.31C12.33 21.31 12.33 20.88 12.19 20.84H16.19C16.09 21.46 16.07 21.46 16.05 21.66C16.065 22.3367 16.1658 23.0087 16.35 23.66C16.3413 23.7116 16.344 23.7645 16.3578 23.815C16.3717 23.8654 16.3963 23.9123 16.4301 23.9523C16.4639 23.9922 16.506 24.0243 16.5535 24.0464C16.601 24.0684 16.6527 24.0798 16.705 24.0798C16.7573 24.0798 16.809 24.0684 16.8565 24.0464C16.904 24.0243 16.9461 23.9922 16.9799 23.9523C17.0137 23.9123 17.0384 23.8654 17.0522 23.815C17.066 23.7645 17.0687 23.7116 17.06 23.66C17.3031 22.841 17.3031 21.969 17.06 21.15V20.8C17.8521 20.7794 18.6384 20.6585 19.4 20.44C20.21 20.14 20.45 18.21 20.56 17.35L20.92 17.4C21.7616 17.6272 22.6484 17.6272 23.49 17.4C23.5908 17.4146 23.6932 17.3885 23.7748 17.3276C23.8564 17.2666 23.9104 17.1758 23.925 17.075C23.9396 16.9742 23.9135 16.8718 23.8526 16.7902C23.7916 16.7086 23.7008 16.6546 23.6 16.64Z" fill="black"/>
<path fill-rule="evenodd" clip-rule="evenodd" d="M8.66001 14.83C7.45001 15.24 7.54001 14.49 7.10001 14.49C7.0501 14.4887 7.00042 14.4972 6.95381 14.5151C6.90719 14.5329 6.86456 14.5598 6.82834 14.5942C6.79212 14.6286 6.76303 14.6697 6.74272 14.7153C6.72242 14.7609 6.7113 14.8101 6.71001 14.86C6.71001 16.73 11.87 15.67 11.45 12.57C11.4064 12.3218 11.3037 12.0877 11.1505 11.8875C10.9973 11.6873 10.7982 11.527 10.57 11.42C10.7478 11.2101 10.8803 10.9657 10.9594 10.7023C11.0384 10.4388 11.0623 10.1618 11.0294 9.8887C10.9966 9.61558 10.9077 9.35218 10.7685 9.11496C10.6292 8.87773 10.4425 8.67179 10.22 8.51C9.8659 8.26037 9.44326 8.12637 9.01001 8.12637C8.57676 8.12637 8.15411 8.26037 7.80001 8.51C7.45468 8.92339 7.18397 9.39375 7.00001 9.9C6.9925 9.96346 7.00251 10.0278 7.02896 10.0859C7.0554 10.1441 7.09726 10.1939 7.15001 10.23C7.92001 10.77 8.15001 7.98 9.60001 9.23C10.22 9.76 9.83001 10.61 9.19001 11.14C8.58839 11.13 8.00681 11.3562 7.57001 11.77C7.13001 12.4 7.80001 13.06 8.57001 12.84C8.92062 12.7274 9.25638 12.573 9.57001 12.38C9.81001 12.38 10.23 12.49 10.29 12.74C10.48 13.73 9.60001 14.51 8.66001 14.83Z" fill="black"/>
<path fill-rule="evenodd" clip-rule="evenodd" d="M16.6 11.72C16.8079 11.1672 16.8337 10.5624 16.6736 9.99395C16.5135 9.42547 16.1759 8.92304 15.71 8.56C13.77 6.89 11.42 9.73 12.43 10.5C12.88 10.84 13.55 10.63 13.43 10.2C13.43 10.11 12.71 9.65 13.94 9.2C14.0596 9.15036 14.1919 9.14008 14.3178 9.17064C14.4436 9.20121 14.5565 9.27103 14.64 9.37C14.898 9.60912 15.0722 9.92484 15.1371 10.2706C15.2019 10.6163 15.1538 10.9737 15 11.29C14.5 12.4716 13.7045 13.5047 12.69 14.29C12.14 14.83 11.94 15.42 12.69 15.69C13.8538 15.805 15.0262 15.805 16.19 15.69C17.14 15.55 17.19 15.06 16.92 14.81C16.0759 14.7285 15.228 14.6918 14.38 14.7C15.3694 13.9194 16.1352 12.8914 16.6 11.72Z" fill="black"/>
</g>
<defs>
<clipPath id="clip0_1035_5009">
<rect width="24" height="24" fill="white"/>
</clipPath>
</defs>
</svg>
