<svg width="24" height="24" viewBox="0 0 24 24" fill="none" xmlns="http://www.w3.org/2000/svg">
<path fill-rule="evenodd" clip-rule="evenodd" d="M22.16 16.63C21.253 16.3746 20.2956 16.3574 19.38 16.58H18.99C18.99 15.64 19.04 14.64 19.05 13.63C19.5494 13.7576 20.0653 13.8082 20.58 13.78C21.15 13.72 21.68 13.57 22.25 13.5C22.296 13.5 22.3415 13.491 22.3839 13.4734C22.4264 13.4558 22.465 13.43 22.4975 13.3975C22.53 13.365 22.5558 13.3264 22.5734 13.2839C22.5909 13.2415 22.6 13.196 22.6 13.15C22.6 13.104 22.5909 13.0585 22.5734 13.0161C22.5558 12.9736 22.53 12.935 22.4975 12.9025C22.465 12.87 22.4264 12.8442 22.3839 12.8266C22.3415 12.8091 22.296 12.8 22.25 12.8C21.3261 12.5444 20.3524 12.5272 19.42 12.75C19.2969 12.739 19.1731 12.739 19.05 12.75V10.08C19.78 10.2 19.72 10.21 19.96 10.23C20.7126 10.2313 21.4633 10.1542 22.2 10C22.2502 10.0086 22.3017 10.0061 22.3509 9.99271C22.4 9.97933 22.4457 9.95538 22.4846 9.92252C22.5236 9.88967 22.5549 9.84871 22.5764 9.8025C22.5978 9.75629 22.6089 9.70595 22.6089 9.655C22.6089 9.60405 22.5978 9.55371 22.5764 9.50751C22.5549 9.4613 22.5236 9.42034 22.4846 9.38748C22.4457 9.35463 22.4 9.33067 22.3509 9.31729C22.3017 9.30391 22.2502 9.30142 22.2 9.31C21.2769 9.05107 20.3032 9.03042 19.37 9.25H19.02C19.02 8.31 19.02 7.41 18.94 6.55C19.4088 6.67705 19.8951 6.7277 20.38 6.7C20.93 6.65 21.44 6.49 21.98 6.42C22.0728 6.42 22.1618 6.38313 22.2275 6.31749C22.2931 6.25185 22.33 6.16283 22.33 6.07C22.33 5.97718 22.2931 5.88815 22.2275 5.82252C22.1618 5.75688 22.0728 5.72 21.98 5.72C21.0882 5.48747 20.1518 5.48747 19.26 5.72H18.9C18.9 4.94 18.82 4.21 18.77 3.58C19.13 3.64 19.31 3.69 19.56 3.72C20.2949 3.70157 21.0258 3.60434 21.74 3.43C21.786 3.43 21.8315 3.42095 21.8739 3.40336C21.9164 3.38577 21.955 3.35999 21.9875 3.32749C22.02 3.29499 22.0458 3.25641 22.0634 3.21394C22.0809 3.17148 22.09 3.12597 22.09 3.08C22.09 3.03404 22.0809 2.98853 22.0634 2.94606C22.0458 2.9036 22.02 2.86502 21.9875 2.83252C21.955 2.80001 21.9164 2.77423 21.8739 2.75664C21.8315 2.73906 21.786 2.73 21.74 2.73C20.7344 2.48764 19.6856 2.48764 18.68 2.73C18.56 1.36 18.2 0.430003 16.84 0.220003C13.0715 -0.111826 9.27917 -0.0649243 5.52 0.360003C4.59 0.510003 4.52 1.64 4.52 2.56C4.15785 2.40625 3.76844 2.32701 3.375 2.32701C2.98156 2.32701 2.59215 2.40625 2.23 2.56C2.13717 2.56 2.04815 2.59688 1.98251 2.66252C1.91687 2.72815 1.88 2.81718 1.88 2.91C1.88 3.00283 1.91687 3.09185 1.98251 3.15749C2.04815 3.22313 2.13717 3.26 2.23 3.26C3.23 3.48 3.36 3.71 4.52 3.34C4.52 4.48 4.52 3.93 4.61 5.53C3.7567 5.28893 2.8533 5.28893 2 5.53C1.90717 5.53 1.81815 5.56688 1.75251 5.63252C1.68687 5.69815 1.65 5.78718 1.65 5.88C1.65 5.97283 1.68687 6.06185 1.75251 6.12749C1.81815 6.19313 1.90717 6.23 2 6.23C2.65203 6.40808 3.32413 6.50218 4 6.51C4.21871 6.48198 4.4357 6.44192 4.65 6.39L4.71 9.09C4.5501 9.04363 4.38594 9.01348 4.22 9C3.40476 8.78116 2.54371 8.80199 1.74 9.06C1.65858 9.07392 1.5847 9.11618 1.53143 9.17932C1.47817 9.24246 1.44895 9.3224 1.44895 9.405C1.44895 9.48761 1.47817 9.56755 1.53143 9.63069C1.5847 9.69383 1.65858 9.73609 1.74 9.75C3.09 9.95 2.95 10.24 4.66 9.85V12.67C4.66 12.53 4.17 12.54 4.11 12.53C3.30085 12.2894 2.43915 12.2894 1.63 12.53C1.53717 12.53 1.44815 12.5669 1.38251 12.6325C1.31687 12.6982 1.28 12.7872 1.28 12.88C1.28 12.9728 1.31687 13.0619 1.38251 13.1275C1.44815 13.1931 1.53717 13.23 1.63 13.23C2.43194 13.497 3.28799 13.5589 4.12 13.41C4.12 13.41 4.46 13.36 4.67 13.3L4.74 16.4C4.67 16.29 4.27 16.29 4.21 16.28C3.39615 16.0545 2.5341 16.0718 1.73 16.33C1.63717 16.33 1.54815 16.3669 1.48251 16.4325C1.41687 16.4982 1.38 16.5872 1.38 16.68C1.38 16.7728 1.41687 16.8619 1.48251 16.9275C1.54815 16.9931 1.63717 17.03 1.73 17.03C2.91 17.2 3.1 17.54 4.73 17.11L4.8 20.11H4.46C3.64551 19.8896 2.78495 19.907 1.98 20.16C1.88717 20.16 1.79815 20.1969 1.73251 20.2625C1.66687 20.3282 1.63 20.4172 1.63 20.51C1.63 20.6028 1.66687 20.6919 1.73251 20.7575C1.79815 20.8231 1.88717 20.86 1.98 20.86C2.48 20.93 2.98 21.08 3.44 21.14C3.93114 21.1837 4.42612 21.1363 4.9 21V21.37C4.9 21.4628 4.93687 21.5519 5.00251 21.6175C5.06815 21.6831 5.15717 21.72 5.25 21.72C5.34283 21.72 5.43185 21.6831 5.49749 21.6175C5.56312 21.5519 5.6 21.4628 5.6 21.37C5.36 5.18 5.4 1.46 5.68 1.37C9.33939 1.04335 13.0206 1.04335 16.68 1.37C16.8238 1.38015 16.9623 1.42802 17.0817 1.50877C17.2011 1.58953 17.2971 1.70033 17.36 1.83C17.93 3.13 18.01 13.32 18 15.05C18 23.92 17.25 22.42 17.47 22.65C15.84 23.65 8.02 23.23 5.7 22.54C5.62465 22.5251 5.54645 22.5387 5.48055 22.5782C5.41466 22.6177 5.36577 22.6802 5.34336 22.7537C5.32094 22.8271 5.3266 22.9063 5.35924 22.9758C5.39187 23.0454 5.44916 23.1003 5.52 23.13C7.81 23.86 16.13 24.52 17.99 23.36C18.47 23.06 18.62 21.78 18.69 21.22L19.64 21.37C20.3981 21.3612 21.1529 21.2673 21.89 21.09C21.936 21.09 21.9815 21.0809 22.0239 21.0634C22.0664 21.0458 22.105 21.02 22.1375 20.9875C22.17 20.955 22.1958 20.9164 22.2134 20.8739C22.2309 20.8315 22.24 20.786 22.24 20.74C22.24 20.694 22.2309 20.6485 22.2134 20.6061C22.1958 20.5636 22.17 20.525 22.1375 20.4925C22.105 20.46 22.0664 20.4342 22.0239 20.4166C21.9815 20.3991 21.936 20.39 21.89 20.39C20.8679 20.1438 19.802 20.1438 18.78 20.39C18.86 19.55 18.92 18.55 18.97 17.47C20.89 17.82 20.69 17.54 22.16 17.35C22.2555 17.35 22.347 17.3121 22.4146 17.2446C22.4821 17.177 22.52 17.0855 22.52 16.99C22.52 16.8945 22.4821 16.803 22.4146 16.7354C22.347 16.6679 22.2555 16.63 22.16 16.63Z" fill="black"/>
<path fill-rule="evenodd" clip-rule="evenodd" d="M7.47 20.54C7.58 20.91 7.8 21.18 8.56 21.24C9.35028 21.2956 10.1445 21.2418 10.92 21.08C11.26 20.89 11.52 20.17 11.92 19.31C12.2591 19.7115 12.5448 20.1552 12.77 20.63C12.8608 20.8369 13.0159 21.0089 13.2123 21.1206C13.4086 21.2323 13.6358 21.2777 13.86 21.25C16.92 21.25 16.58 21.44 16.53 18C16.44 12.79 16.2 9 15.99 4.88C15.99 4.65 15.99 4.13 15.79 3.88C15.59 3.63 15.19 3.7 14.99 3.63C12.27 2.63 13.44 2.83 11.68 5.88C11.373 5.14464 11.0189 4.42983 10.62 3.74C9.65445 3.36879 8.58555 3.36879 7.62 3.74C7.29 3.91 7.3 4.99 7.25 6.69C7.13 10.73 7.15 19.42 7.47 20.54ZM8.13 4.35C8.73893 4.18582 9.37342 4.13832 10 4.21H10.14C10.5275 5.02108 10.9615 5.80906 11.44 6.57C11.59 6.64 11.98 6.57 12.05 6.46C12.6341 5.66877 13.0991 4.79615 13.43 3.87C15.35 4.54 14.87 4.41 15.07 4.47C15.0938 4.62526 15.1272 4.77889 15.17 4.93C15.22 6.62 15.54 16.5 15.38 20.03H13.85C13.5437 19.5093 13.2099 19.0052 12.85 18.52C12.66 18.24 12.47 17.82 12.06 17.66C11.22 17.35 10.96 18.72 10.3 19.97C9.71722 20.0058 9.13278 20.0058 8.55 19.97C8.09 15.07 8 5.7 8.13 4.35Z" fill="black"/>
</svg>
