<svg width="24" height="24" viewBox="0 0 24 24" fill="none" xmlns="http://www.w3.org/2000/svg">
<g clip-path="url(#clip0_1047_6238)">
<path fill-rule="evenodd" clip-rule="evenodd" d="M3.73998 10.63C3.67886 10.4118 3.64526 10.1867 3.63998 9.96005C3.63998 9.75005 3.63998 9.56005 3.84998 9.46005C4.05852 9.34761 4.28538 9.27312 4.51998 9.24005C4.96998 9.17005 5.43998 9.15005 5.78998 9.10005C5.78998 9.58005 5.78998 10.1 5.87998 10.53C5.88253 10.5747 5.89388 10.6185 5.91336 10.6587C5.93285 10.699 5.9601 10.7351 5.99354 10.7648C6.02699 10.7945 6.06597 10.8174 6.10826 10.832C6.15055 10.8466 6.19531 10.8528 6.23998 10.85C6.28425 10.8476 6.32757 10.8362 6.36734 10.8165C6.40711 10.7969 6.44252 10.7695 6.47146 10.7359C6.50039 10.7023 6.52226 10.6632 6.53575 10.621C6.54924 10.5787 6.55408 10.5342 6.54998 10.49C6.54557 9.63163 6.58897 8.77364 6.67998 7.92005H7.23998H7.94998C8.18998 7.92005 8.41998 7.92005 8.64998 7.83005C9.22998 7.74005 9.77998 7.62005 10.34 7.53005C10.3933 7.53138 10.4464 7.52202 10.4961 7.50252C10.5458 7.48302 10.5911 7.45376 10.6293 7.41649C10.6675 7.37921 10.6979 7.33466 10.7186 7.28547C10.7393 7.23627 10.75 7.18343 10.75 7.13005C10.7438 7.07605 10.7269 7.02381 10.7004 6.97638C10.6738 6.92895 10.6381 6.88728 10.5953 6.85378C10.5525 6.82028 10.5035 6.79562 10.4511 6.78125C10.3986 6.76688 10.3439 6.76307 10.29 6.77005C9.71998 6.77005 9.14998 6.65005 8.55998 6.63005H7.80998C7.55738 6.63961 7.30626 6.67309 7.05998 6.73005L6.79998 6.79005V6.59005C6.90084 6.0821 7.04469 5.58364 7.22998 5.10005C7.25649 5.14066 7.29424 5.17268 7.33863 5.19221C7.38302 5.21174 7.43213 5.21794 7.47998 5.21005C7.90998 5.21005 8.87998 5.08005 9.28998 5.01005C9.90335 4.87024 10.5244 4.76673 11.15 4.70005C11.2595 4.71167 11.3693 4.6808 11.4568 4.61381C11.5443 4.54683 11.6027 4.44884 11.62 4.34005C11.62 4.28579 11.6091 4.23209 11.5877 4.18221C11.5664 4.13233 11.5351 4.08731 11.4958 4.04989C11.4566 4.01248 11.4101 3.98344 11.3592 3.96456C11.3083 3.94568 11.2542 3.93734 11.2 3.94005C10.5393 3.82964 9.86959 3.78275 9.19998 3.80005C8.97022 3.78517 8.73974 3.78517 8.50998 3.80005C8.25082 3.84217 7.99631 3.90914 7.74998 4.00005C7.91475 3.70305 8.12005 3.43044 8.35998 3.19005C9.25895 2.0558 10.5648 1.31679 12 1.13005C12.71 0.983628 13.446 1.02668 14.1341 1.25488C14.8222 1.48307 15.4382 1.88838 15.92 2.43005C15.9828 2.50703 16.0726 2.55714 16.1711 2.57015C16.2696 2.58316 16.3693 2.55808 16.45 2.50005C16.526 2.44394 16.5776 2.3609 16.5944 2.26794C16.6111 2.17497 16.5916 2.07913 16.54 2.00005C16.013 1.28307 15.3042 0.719718 14.4868 0.368139C13.6693 0.0165596 12.7729 -0.110509 11.89 4.89242e-05C11.0073 0.0834398 10.1502 0.342218 9.36892 0.761208C8.58761 1.1802 7.89781 1.75097 7.33998 2.44005C6.67558 3.37978 6.21879 4.45016 5.99998 5.58005C5.80231 6.50649 5.71504 7.45308 5.73998 8.40005C5.31998 8.35005 4.73998 8.25005 4.21998 8.23005C3.91485 8.22314 3.61069 8.26707 3.31998 8.36005C2.99365 8.48785 2.7187 8.71989 2.53785 9.02009C2.35701 9.32029 2.28042 9.67183 2.31998 10.02C2.37005 10.39 2.47451 10.7506 2.62998 11.09C2.99793 11.7859 3.45882 12.4284 3.99998 13C4.0295 13.0403 4.06687 13.0743 4.10985 13.0997C4.15282 13.1252 4.20051 13.1417 4.25003 13.1482C4.29956 13.1548 4.34989 13.1512 4.39801 13.1378C4.44612 13.1243 4.49101 13.1013 4.52998 13.07C4.60696 13.0072 4.65707 12.9174 4.67008 12.8189C4.68309 12.7204 4.65802 12.6207 4.59998 12.54C4.237 11.9406 3.94822 11.2992 3.73998 10.63Z" fill="black"/>
<path fill-rule="evenodd" clip-rule="evenodd" d="M21.68 9.13005C21.6876 8.98982 21.6637 8.84966 21.6101 8.71987C21.5565 8.59008 21.4744 8.47397 21.37 8.38005C21.0256 8.18032 20.6448 8.05114 20.25 8.00005C19.5841 7.95594 18.9159 7.95594 18.25 8.00005V6.25005C18.25 5.69005 18.25 5.71005 18.11 5.71005C17.97 5.71005 17.47 5.90005 17.47 6.47005C17.47 6.47005 17.39 8.01005 17.12 9.73005C16.9664 9.62826 16.7839 9.57912 16.6 9.59005C16.4136 9.57496 16.2264 9.57496 16.04 9.59005C15.8476 9.6079 15.657 9.64135 15.47 9.69005C15.0292 9.79622 14.6003 9.947 14.19 10.14C14.1385 10.1494 14.0894 10.1692 14.046 10.1984C14.0025 10.2276 13.9655 10.2654 13.9373 10.3095C13.9092 10.3537 13.8904 10.4031 13.8823 10.4548C13.8741 10.5066 13.8768 10.5594 13.89 10.61C13.9304 10.7114 14.007 10.7941 14.1049 10.8421C14.2029 10.8902 14.3151 10.9001 14.42 10.87H15.68C15.9642 10.8735 16.2482 10.8568 16.53 10.82C16.6699 10.7966 16.8072 10.7597 16.94 10.71C16.87 11.07 16.79 11.4201 16.7 11.7701C16.61 12.12 16.53 12.34 16.44 12.59L16.36 12.53C16.1758 12.4819 15.9887 12.4452 15.8 12.42C15.6036 12.405 15.4064 12.405 15.21 12.42C15.0187 12.4362 14.8284 12.4629 14.64 12.5C14.19 12.59 13.79 12.72 13.36 12.85C12.93 12.9801 12.88 13.09 12.93 13.29C12.9784 13.4034 13.0647 13.4964 13.1742 13.553C13.2837 13.6096 13.4095 13.6262 13.53 13.6C13.98 13.6 14.38 13.67 14.82 13.69C14.9927 13.7101 15.1672 13.7101 15.34 13.69C15.5609 13.6674 15.7769 13.61 15.98 13.5201C15.4886 14.2576 14.7398 14.7853 13.88 15C11.68 15.88 9.80999 15.58 8.52999 14.16C8.14999 13.89 7.64999 14.5 7.97999 14.95C8.87999 16.35 9.97999 16.48 11.59 16.55C11.59 16.74 11.51 16.92 11.5 17.1C11.49 17.2801 11.5 17.6101 11.45 17.8601V18.39H11.4C9.47448 18.331 7.64081 17.5533 6.25999 16.21C5.96999 15.94 5.42999 16.2801 5.68999 16.68C6.35506 17.5491 7.20972 18.2548 8.18884 18.7435C9.16797 19.2322 10.2457 19.491 11.34 19.5H11.67C11.78 19.5 11.67 19.7501 11.74 19.8701C11.3938 19.915 11.0565 20.0128 10.74 20.16C9.64233 20.7136 8.79282 21.6594 8.35999 22.81C8.33013 22.8907 8.33013 22.9794 8.35999 23.06C8.31406 23.0818 8.2749 23.1156 8.24671 23.1579C8.21853 23.2001 8.20238 23.2493 8.19999 23.3C8.19589 23.3442 8.20073 23.3887 8.21422 23.431C8.22771 23.4732 8.24958 23.5123 8.27851 23.5459C8.30745 23.5795 8.34286 23.6069 8.38263 23.6265C8.4224 23.6462 8.46572 23.6576 8.50999 23.66C9.39919 23.8262 10.2974 23.9397 11.2 24H12.38C12.78 24 13.15 24 13.54 23.9C14.44 23.8 15.33 23.63 16.22 23.49C16.3217 23.4824 16.4163 23.4351 16.4836 23.3585C16.5509 23.2818 16.5855 23.1819 16.58 23.08C16.5696 23.0105 16.5397 22.9454 16.4936 22.8922C16.4476 22.8391 16.3874 22.8002 16.32 22.7801C15.8584 21.6572 15.0157 20.733 13.94 20.17C13.5251 19.9736 13.0777 19.8549 12.62 19.82V19.46C13.5016 19.4292 14.3754 19.2847 15.22 19.0301C16.5163 18.6305 17.6898 17.9078 18.63 16.93C19.3991 16.0795 20.0423 15.1231 20.54 14.09C21.0478 13.0577 21.3855 11.9501 21.54 10.8101C21.6223 10.2536 21.6691 9.69246 21.68 9.13005ZM15.34 22.71H13.47H12.33C11.95 22.71 11.57 22.7101 11.19 22.7701L9.08999 22.92C9.59814 22.1557 10.3375 21.574 11.2 21.26C11.5639 21.1347 11.9452 21.0672 12.33 21.06C12.927 21.0748 13.5118 21.2323 14.0355 21.5193C14.5591 21.8064 15.0065 22.2147 15.34 22.71ZM20.52 10.65C20.34 11.6662 20.0027 12.648 19.52 13.5601C19.0387 14.4722 18.4291 15.3107 17.71 16.05C16.915 16.869 15.9287 17.4772 14.84 17.82C14.1517 18.0464 13.4409 18.1973 12.72 18.2701V17.76L12.46 16.46C13.1471 16.4086 13.8219 16.25 14.46 15.99C15.4235 15.5825 16.2349 14.883 16.78 13.99C17.0908 13.4229 17.3453 12.8268 17.54 12.21C17.8245 11.3144 18.022 10.3935 18.13 9.46005C18.13 9.36005 18.13 9.08005 18.18 8.73005C18.69 8.73005 19.24 8.73005 19.79 8.78005C20.1413 8.79793 20.4836 8.89721 20.79 9.07005C21 9.33005 20.56 10.47 20.52 10.65Z" fill="black"/>
<path fill-rule="evenodd" clip-rule="evenodd" d="M9.33 12.6801C10.74 11.4901 12.16 10.2701 13.55 9.03008C13.61 8.97008 14.88 7.89008 20.33 2.66008C20.3905 2.59681 20.4243 2.51263 20.4243 2.42508C20.4243 2.33753 20.3905 2.25335 20.33 2.19008C20.3 2.15766 20.2637 2.1318 20.2232 2.11411C20.1828 2.09641 20.1391 2.08728 20.095 2.08728C20.0509 2.08728 20.0072 2.09641 19.9667 2.11411C19.9263 2.1318 19.89 2.15766 19.86 2.19008C17.98 3.77008 15.86 5.50008 13.59 7.36008C12.71 8.09008 11.81 8.85008 10.94 9.62008C10.07 10.3901 9.19 11.1701 8.34 11.9501C5.53 14.5101 2.48 17.4801 2.42 17.5401C2.38306 17.5747 2.35362 17.6165 2.33349 17.6629C2.31336 17.7094 2.30298 17.7595 2.30298 17.8101C2.30298 17.8607 2.31336 17.9108 2.33349 17.9572C2.35362 18.0037 2.38306 18.0455 2.42 18.0801C2.49094 18.1491 2.58601 18.1877 2.685 18.1877C2.78398 18.1877 2.87905 18.1491 2.95 18.0801C4.63 16.6101 5.17 16.2101 9.33 12.6801Z" fill="black"/>
</g>
<defs>
<clipPath id="clip0_1047_6238">
<rect width="24" height="24" fill="white"/>
</clipPath>
</defs>
</svg>
