<svg width="24" height="24" viewBox="0 0 24 24" fill="none" xmlns="http://www.w3.org/2000/svg">
<g clip-path="url(#clip0_1046_5708)">
<path fill-rule="evenodd" clip-rule="evenodd" d="M15.94 13.16C15.8689 13.1767 15.8071 13.2206 15.7678 13.2822C15.7286 13.3439 15.715 13.4185 15.73 13.49C16.1311 15.1775 16.3787 16.8979 16.47 18.63C16.47 19.94 16.38 21.11 15.62 21.41C13.0009 22.3168 10.2677 22.852 7.5 23C6.26805 23.1198 5.02467 22.9801 3.85 22.59C3.46 22.42 3.17 22.18 3.14 21.8C2.87 19.14 2.22 14.73 1.78 11.3C1.66 10.3 1.55 9.43999 1.48 8.68999C1.32743 7.63583 1.23063 6.57435 1.19 5.50999C1.1674 4.86415 1.31207 4.22344 1.61 3.64999C1.84105 3.22804 2.18805 2.88104 2.61 2.64999C2.65569 3.08481 2.74617 3.51375 2.88 3.92999C2.97475 4.21383 3.13588 4.47095 3.35 4.67999C3.50226 4.80943 3.68444 4.89881 3.88 4.93999C4.20891 5.0067 4.54466 5.03356 4.88 5.01999C5.36912 5.01973 5.8574 4.97959 6.34 4.89999C7.03 4.78999 7.71 4.59999 8.34 4.46999C8.84 4.35999 9.75 4.34999 10.44 4.13999C10.822 4.05208 11.1697 3.85387 11.44 3.56999C11.6283 3.33029 11.746 3.04287 11.78 2.73999C11.8144 2.2606 11.8144 1.77937 11.78 1.29999C12.2031 1.34275 12.6158 1.45775 13 1.63999C13.0759 1.67962 13.1642 1.68822 13.2463 1.66396C13.3284 1.6397 13.3978 1.58449 13.44 1.50999C13.4791 1.4356 13.4875 1.3488 13.4631 1.26834C13.4388 1.18788 13.3838 1.12022 13.31 1.07999C12.241 0.577598 11.054 0.38034 9.88 0.509986C8.04 0.609986 6.1 1.09999 4.88 1.25999C3.97754 1.32251 3.09029 1.52493 2.25 1.85999C1.66363 2.14327 1.17588 2.59618 0.85 3.15999C0.457069 3.86292 0.250519 4.65469 0.25 5.45999C0.270086 6.55688 0.350206 7.65185 0.49 8.73999C0.57 9.83999 0.72 11.22 0.9 12.74C1.3 15.92 1.84 19.58 2.07 21.91C2.10574 22.1982 2.20847 22.474 2.36996 22.7154C2.53146 22.9568 2.74723 23.157 3 23.3C3.9576 23.7915 5.02412 24.0323 6.1 24C9.45604 23.9414 12.7773 23.3089 15.92 22.13C16.71 21.79 17.1 20.8 17.17 19.52C17.1289 17.4411 16.83 15.3753 16.28 13.37C16.2718 13.3337 16.2564 13.2994 16.2348 13.2691C16.2132 13.2389 16.1857 13.2132 16.1541 13.1936C16.1224 13.1741 16.0872 13.161 16.0504 13.1553C16.0137 13.1495 15.9761 13.1511 15.94 13.16ZM5 2.05999C6.17 1.87999 8.08 1.34999 9.9 1.20999C10.3195 1.17998 10.7405 1.17998 11.16 1.20999C11.16 1.53999 11.16 1.97999 11.06 2.37999C11.0445 2.60313 10.9607 2.81609 10.82 2.98999C10.6485 3.12825 10.4395 3.21186 10.22 3.22999C9.53 3.36999 8.65 3.32999 8.14 3.39999C7.37 3.55999 6.58 3.74999 5.79 3.89999C5.45978 3.96666 5.12584 4.01341 4.79 4.03999C4.60019 4.05209 4.40981 4.05209 4.22 4.03999H3.87C3.68057 3.87553 3.53604 3.66563 3.45 3.42999C3.33368 3.10267 3.23685 2.76875 3.16 2.42999C3.76232 2.25711 4.37767 2.13337 5 2.05999Z" fill="black"/>
<path fill-rule="evenodd" clip-rule="evenodd" d="M22.19 3.86999C22.1289 3.81305 22.0485 3.78139 21.965 3.78139C21.8815 3.78139 21.8011 3.81305 21.74 3.86999C21.7094 3.89896 21.6851 3.93385 21.6685 3.97253C21.6518 4.01121 21.6433 4.05288 21.6433 4.09499C21.6433 4.1371 21.6518 4.17877 21.6685 4.21745C21.6851 4.25613 21.7094 4.29102 21.74 4.31999C22.3913 4.9269 22.8127 5.74027 22.933 6.62231C23.0533 7.50436 22.865 8.40086 22.4 9.15999C21.6858 10.2854 20.5571 11.0843 19.2583 11.3838C17.9594 11.6832 16.5949 11.4591 15.46 10.76C14.722 10.3167 14.1655 9.6256 13.89 8.80999C13.5724 8.02592 13.4931 7.1656 13.6621 6.3367C13.8311 5.5078 14.2408 4.74716 14.84 4.14999C15.4922 3.61942 16.2615 3.25195 17.0841 3.07804C17.9067 2.90413 18.7589 2.9288 19.57 3.14999C19.29 3.64999 19.02 4.14999 18.76 4.64999C18.5 5.14999 18.26 5.64999 18.01 6.18999C17.32 7.74999 17.77 8.29999 16.62 7.38999C16.13 6.97999 15.62 6.45999 15.36 6.25999C15.3025 6.21199 15.2299 6.1857 15.155 6.1857C15.0801 6.1857 15.0075 6.21199 14.95 6.25999C14.9001 6.31661 14.8725 6.3895 14.8725 6.46499C14.8725 6.54048 14.9001 6.61337 14.95 6.66999C15.22 6.92999 15.79 7.66999 16.3 8.11999C16.567 8.40413 16.917 8.59662 17.3 8.66999C17.4373 8.65676 17.5703 8.61528 17.6908 8.54817C17.8112 8.48105 17.9165 8.38975 18 8.27999C18.3878 7.7791 18.7229 7.23958 19 6.66999C19.36 5.93999 19.71 5.21999 20.05 4.48999C20.39 3.75999 20.66 2.99999 21 2.30999C21.34 1.61999 21.6 1.08999 21.93 0.48999C21.9551 0.455414 21.9725 0.415878 21.9811 0.374029C21.9897 0.33218 21.9892 0.288983 21.9797 0.247326C21.9703 0.20567 21.952 0.166516 21.9262 0.132484C21.9004 0.0984522 21.8676 0.0703268 21.83 0.04999C21.7583 0.00515337 21.6718 -0.00949651 21.5894 0.00924033C21.5069 0.0279772 21.4353 0.078578 21.39 0.14999C20.85 0.94999 20.39 1.77999 19.86 2.62999C18.9275 2.31006 17.9306 2.22481 16.9574 2.38178C15.9842 2.53876 15.0646 2.93312 14.28 3.52999C13.5185 4.21996 12.9789 5.12047 12.7297 6.1174C12.4804 7.11434 12.5327 8.16282 12.88 9.12999C13.2141 10.1925 13.9255 11.096 14.88 11.67C15.8059 12.244 16.8707 12.5552 17.96 12.57C19.0104 12.56 20.0403 12.2785 20.9497 11.7528C21.8591 11.2271 22.6171 10.4752 23.15 9.56999C23.6695 8.65429 23.8576 7.58758 23.6828 6.54942C23.5079 5.51125 22.9808 4.56502 22.19 3.86999Z" fill="black"/>
<path fill-rule="evenodd" clip-rule="evenodd" d="M6.25 10.12C6.40742 9.88765 6.60765 9.68742 6.84 9.53C7.3636 9.22919 7.97065 9.10637 8.57 9.18C9.17578 9.18361 9.7619 9.39546 10.23 9.78C10.5487 10.0948 10.8033 10.4684 10.98 10.88C11.3681 12.0184 11.8291 13.1307 12.36 14.21C12.5284 14.497 12.7225 14.7681 12.94 15.02C13.0953 15.2133 13.2852 15.3761 13.5 15.5C13.5735 15.5414 13.6601 15.553 13.7419 15.5326C13.8237 15.5121 13.8946 15.4611 13.94 15.39C13.9618 15.3539 13.9762 15.3139 13.9824 15.2722C13.9887 15.2305 13.9866 15.188 13.9764 15.1471C13.9662 15.1063 13.948 15.0678 13.9229 15.034C13.8977 15.0001 13.8662 14.9716 13.83 14.95C13.6824 14.8542 13.5536 14.7322 13.45 14.59C13.2791 14.3492 13.1222 14.0988 12.98 13.84C12.5359 12.753 12.1552 11.6411 11.84 10.51C11.6546 9.97773 11.3695 9.48563 11 9.06C10.381 8.46319 9.56845 8.10834 8.71 8.06C7.86284 7.9712 7.00982 8.16076 6.28 8.6C5.94027 8.84122 5.65143 9.14705 5.43 9.5C5.21929 9.83525 5.05766 10.1989 4.95 10.58C4.61 11.8 5.09 13.39 4.9 14.72C4.84455 15.2347 4.60267 15.7113 4.22 16.06C3.83 16.4 4.62 16.75 4.69 16.75C5.69 16.83 6.69 16.99 7.69 17.03C8.35801 17.0554 9.02697 17.0253 9.69 16.94C10.8288 16.7842 11.926 16.4072 12.92 15.83C12.9945 15.7878 13.0497 15.7184 13.074 15.6363C13.0982 15.5542 13.0896 15.4659 13.05 15.39C13.0115 15.3145 12.9446 15.2573 12.864 15.231C12.7833 15.2048 12.6956 15.2116 12.62 15.25C11.8967 15.5437 11.1361 15.7356 10.36 15.82C9.63 15.92 8.9 15.93 8.16 15.96C7.08667 16.02 6.02667 16.09 4.98 16.17C5.30642 15.7906 5.52716 15.3318 5.62 14.84C5.89 13.58 5.52 12.02 5.94 10.84C6.01015 10.587 6.11445 10.3448 6.25 10.12Z" fill="black"/>
<path fill-rule="evenodd" clip-rule="evenodd" d="M10.77 17.89C10.6618 18.049 10.5414 18.1995 10.41 18.34C10.306 18.4489 10.1798 18.5342 10.04 18.59C9.74632 18.6993 9.43246 18.7436 9.12 18.72C8.80107 18.7157 8.48444 18.6652 8.18 18.57C7.75951 18.4584 7.40011 18.1853 7.18 17.81C7.16884 17.7745 7.1508 17.7416 7.12692 17.7131C7.10304 17.6847 7.07378 17.6612 7.04082 17.644C7.00785 17.6268 6.97183 17.6163 6.9348 17.613C6.89777 17.6098 6.86046 17.6138 6.825 17.625C6.78954 17.6362 6.75663 17.6542 6.72815 17.6781C6.69966 17.702 6.67616 17.7312 6.65898 17.7642C6.6418 17.7972 6.63128 17.8332 6.62803 17.8702C6.62477 17.9072 6.62884 17.9445 6.64 17.98C6.72927 18.3667 6.91709 18.7237 7.18519 19.0164C7.4533 19.309 7.79256 19.5273 8.17 19.65C8.5442 19.7863 8.94495 19.8337 9.34063 19.7886C9.73631 19.7435 10.1161 19.607 10.45 19.39C10.6304 19.263 10.7891 19.1076 10.92 18.93C11.0753 18.7011 11.2061 18.4564 11.31 18.2C11.3323 18.1639 11.3466 18.1234 11.3521 18.0813C11.3576 18.0392 11.3541 17.9964 11.3418 17.9557C11.3295 17.9151 11.3087 17.8775 11.2808 17.8455C11.253 17.8135 11.2186 17.7877 11.18 17.77C11.1093 17.7336 11.0273 17.7258 10.951 17.7481C10.8747 17.7704 10.8099 17.8212 10.77 17.89Z" fill="black"/>
</g>
<defs>
<clipPath id="clip0_1046_5708">
<rect width="24" height="24" fill="white"/>
</clipPath>
</defs>
</svg>
