<svg width="24" height="24" viewBox="0 0 24 24" fill="none" xmlns="http://www.w3.org/2000/svg">
<g clip-path="url(#clip0_1046_5721)">
<path fill-rule="evenodd" clip-rule="evenodd" d="M8.56 20.16L6.28 20C5.78 20 4.87 20 4.08 19.92C3.66478 19.9345 3.25446 19.8267 2.9 19.61C2.60558 19.2167 2.44127 18.7412 2.43 18.25C2.35666 17.4116 2.35666 16.5684 2.43 15.73C2.51 14.27 2.73 11.1 2.9 8.29001C3 6.00001 3.08 4.00001 3.1 3.32001C3.09166 2.98479 3.11847 2.64963 3.18 2.32001C3.21244 2.082 3.32122 1.86093 3.49 1.69001C3.78799 1.4794 4.12992 1.3392 4.49 1.28001C4.59329 1.91431 4.73352 2.54205 4.91 3.16001C4.99731 3.53201 5.13882 3.88916 5.33 4.22001C5.69976 4.42492 6.10248 4.56368 6.52 4.63001C7.31 4.80001 8.38 4.94001 8.9 5.01001C9.5654 5.06809 10.2346 5.06809 10.9 5.01001C11.3738 4.9864 11.8418 4.89549 12.29 4.74001C12.5941 4.56833 12.841 4.31098 13 4.00001C13.3999 3.10206 13.7341 2.1763 14 1.23001C14.3227 1.35446 14.5916 1.58797 14.76 1.89001C14.8867 2.09974 14.9938 2.32067 15.08 2.55001C15.1607 2.78169 15.2242 3.019 15.27 3.26001C15.3921 4.09789 15.4556 4.94328 15.46 5.79001C15.46 7.12001 15.4 8.49001 15.32 9.65001C15.3265 9.73083 15.3617 9.80667 15.4192 9.86383C15.4767 9.921 15.5527 9.95574 15.6336 9.96177C15.7145 9.9678 15.7948 9.94474 15.8602 9.89674C15.9255 9.84874 15.9716 9.77897 15.99 9.70001C16.1 8.52001 16.21 7.14001 16.23 5.79001C16.2514 4.90439 16.2046 4.01844 16.09 3.14001C16.0485 2.84386 15.9782 2.55247 15.88 2.27001C15.7868 1.98568 15.6662 1.71107 15.52 1.45001C15.2989 1.02073 14.9493 0.671145 14.52 0.450007C13.9184 0.176247 13.2603 0.0494275 12.6 0.0800069L6.65 6.88247e-06C5.87604 -0.031395 5.10102 0.0256408 4.34 0.170007C3.76146 0.260111 3.21477 0.493914 2.75 0.850007C2.44774 1.11363 2.23172 1.46205 2.13 1.85001C2.02146 2.32187 1.97772 2.80633 2 3.29001L1.47 15.71C1.42202 16.755 1.49585 17.8021 1.69 18.83C1.78537 19.3379 2.02091 19.809 2.37 20.19C2.73995 20.4529 3.17684 20.6054 3.63 20.63C4.52 20.73 5.63 20.63 6.27 20.63L8.57 20.71C8.63893 20.6973 8.70123 20.6608 8.74606 20.6069C8.7909 20.553 8.81545 20.4851 8.81545 20.415C8.81545 20.3449 8.7909 20.277 8.74606 20.2231C8.70123 20.1692 8.63893 20.1328 8.57 20.12L8.56 20.16ZM6.62 1.10001L12.62 1.03001H13.29C13.13 1.45001 12.84 2.18001 12.52 2.82001C12.04 3.82001 12.33 3.92001 10.81 3.96001C10.2058 3.97463 9.60127 3.95125 9 3.89001L5.91 3.55001C5.56543 2.78566 5.27798 1.99683 5.05 1.19001C5.57051 1.12259 6.09519 1.09251 6.62 1.10001Z" fill="black"/>
<path fill-rule="evenodd" clip-rule="evenodd" d="M20.78 17.89C20.8048 17.7209 20.8048 17.5491 20.78 17.38C20.7664 17.2451 20.743 17.1114 20.71 16.98C21.177 16.6702 21.6276 16.3364 22.06 15.98C22.1945 15.8832 22.3057 15.7575 22.3853 15.6121C22.4649 15.4668 22.5109 15.3055 22.52 15.14C22.473 14.9202 22.3811 14.7125 22.25 14.53C22.0297 14.1916 21.7714 13.8795 21.48 13.6C21.2311 13.3542 20.9482 13.1454 20.64 12.98C20.4433 12.8889 20.2252 12.8543 20.01 12.88C19.7926 12.9529 19.592 13.0685 19.42 13.22C19.09 13.48 18.65 13.87 18.32 14.15C18.2308 14.0523 18.1338 13.962 18.03 13.88C17.8856 13.7564 17.7279 13.6491 17.56 13.56C17.56 13.27 17.56 12.87 17.51 12.56C17.5034 12.3184 17.449 12.0805 17.35 11.86C17.2665 11.7502 17.1612 11.6589 17.0408 11.5918C16.9203 11.5247 16.7873 11.4832 16.65 11.47C16.2075 11.4658 15.7657 11.5027 15.33 11.58C15.0475 11.5871 14.7663 11.6206 14.49 11.68C14.3275 11.7214 14.1768 11.8002 14.05 11.91C13.9645 12.0434 13.9291 12.2029 13.95 12.36C13.95 12.69 14.07 13.36 14.13 13.82C13.8917 13.8955 13.6607 13.9926 13.44 14.11C13.3261 14.1682 13.2188 14.2386 13.12 14.32C12.8458 14.0263 12.5481 13.7554 12.23 13.51C12.0612 13.3878 11.8584 13.3213 11.65 13.32C11.5396 13.3336 11.4355 13.3788 11.35 13.45C11.19 13.57 10.95 13.92 10.72 14.16C10.496 14.4111 10.3106 14.6942 10.17 15C10.08 15.2005 10.0521 15.4234 10.09 15.64C10.1552 15.7681 10.2473 15.8807 10.36 15.97C10.63 16.19 11.24 16.57 11.57 16.85C11.5139 17.0449 11.487 17.2471 11.49 17.45C11.4963 17.5943 11.513 17.738 11.54 17.88C11.1551 18.0141 10.7914 18.2027 10.46 18.44C10.3113 18.5404 10.1896 18.676 10.1059 18.8348C10.0221 18.9935 9.9789 19.1705 9.98 19.35C9.99589 19.485 10.033 19.6166 10.09 19.74C10.22 20 10.49 20.32 10.58 20.51C10.7377 20.8476 10.9432 21.1608 11.19 21.44C11.2818 21.5363 11.3918 21.6133 11.5138 21.6665C11.6357 21.7198 11.767 21.7481 11.9 21.75C12.0798 21.7428 12.255 21.6913 12.41 21.6C12.6306 21.4702 12.8382 21.3195 13.03 21.15C13.1441 21.2446 13.2643 21.3314 13.39 21.41C13.6196 21.5498 13.8604 21.6702 14.11 21.77C14.11 22.09 14.02 22.47 14 22.77C13.9693 23.0835 14.0174 23.3998 14.14 23.69C14.2236 23.7825 14.3253 23.8569 14.4388 23.9085C14.5524 23.9601 14.6753 23.9879 14.8 23.99C15.5781 24.0164 16.357 23.9829 17.13 23.89C17.2796 23.8775 17.4255 23.8367 17.56 23.77C17.6594 23.7236 17.7423 23.648 17.7977 23.5533C17.853 23.4586 17.8783 23.3494 17.87 23.24L17.83 22L18.24 21.79C18.43 21.67 18.62 21.53 18.79 21.4C19.08 21.68 19.44 22 19.53 22.08C19.6524 22.1856 19.8038 22.2517 19.9645 22.2696C20.1251 22.2874 20.2874 22.2562 20.43 22.18C20.8389 21.919 21.2178 21.6138 21.56 21.27C21.8142 21.0565 22.0189 20.7904 22.16 20.49C22.309 20.1785 22.3778 19.8348 22.36 19.49C22.3238 19.2042 22.1853 18.9413 21.97 18.75C21.5885 18.4429 21.1913 18.1558 20.78 17.89ZM21.14 20C21.0648 20.1529 20.9593 20.289 20.83 20.4C20.56 20.63 20.16 20.8 20.02 20.97L19.34 20.31C19.2973 20.2274 19.2348 20.1567 19.1579 20.1043C19.0811 20.052 18.9925 20.0195 18.9 20.01C18.8076 20 18.7141 20.012 18.6272 20.0451C18.5403 20.0781 18.4625 20.1312 18.4 20.2C18.2159 20.3947 18.0114 20.5691 17.79 20.72C17.5951 20.8638 17.3744 20.969 17.14 21.03C17.0085 21.0573 16.8902 21.1287 16.8047 21.2323C16.7193 21.336 16.6717 21.4657 16.67 21.6L16.73 22.79C16.1919 22.8461 15.6511 22.8728 15.11 22.87C15.1095 22.4196 15.1564 21.9705 15.25 21.53C15.2821 21.3962 15.263 21.2553 15.1964 21.135C15.1297 21.0147 15.0204 20.9237 14.89 20.88C14.6105 20.8036 14.3391 20.6997 14.08 20.57C13.8798 20.4899 13.7064 20.3546 13.58 20.18C13.5457 20.1153 13.4989 20.0581 13.4422 20.0117C13.3856 19.9653 13.3202 19.9308 13.25 19.91C13.179 19.8913 13.1049 19.888 13.0325 19.9C12.9601 19.9121 12.8911 19.9393 12.83 19.98C11.7 20.87 12 21.04 11.45 20.03L10.92 19.26C10.92 19.26 10.92 19.2 11 19.17C11.1025 19.0831 11.213 19.0061 11.33 18.94C11.6232 18.7818 11.9273 18.6448 12.24 18.53C12.3399 18.4878 12.4213 18.411 12.4691 18.3136C12.5168 18.2162 12.5278 18.1048 12.5 18C12.4274 17.8179 12.3835 17.6256 12.37 17.43C12.36 17.2521 12.3908 17.0742 12.46 16.91C12.4941 16.8365 12.5057 16.7545 12.4932 16.6744C12.4808 16.5943 12.4448 16.5197 12.39 16.46C12.2274 16.2903 12.0462 16.1394 11.85 16.01C11.56 15.8 11.19 15.57 10.97 15.41C11.0263 15.1506 11.1352 14.9056 11.29 14.69C11.4533 14.4784 11.6413 14.287 11.85 14.12C11.92 14.17 12 14.25 12.09 14.33C12.4 14.6 12.72 14.94 12.94 15.1C12.9798 15.1329 13.0267 15.1564 13.0769 15.1685C13.1272 15.1806 13.1795 15.1811 13.23 15.17C13.2806 15.159 13.3282 15.1372 13.3696 15.1062C13.4111 15.0751 13.4453 15.0355 13.47 14.99C13.5829 14.841 13.7354 14.7267 13.91 14.66C15.2 14.01 14.74 14.79 14.6 12.33H14.75C14.9665 12.3168 15.1835 12.3168 15.4 12.33C15.7316 12.2829 16.0653 12.2529 16.4 12.24C16.4637 12.2294 16.529 12.2349 16.5901 12.2558C16.6512 12.2768 16.7062 12.3126 16.75 12.36V13.83C16.7336 13.9146 16.7465 14.0022 16.7865 14.0785C16.8264 14.1548 16.8912 14.2153 16.97 14.25C17.1565 14.3364 17.3285 14.4511 17.48 14.59C17.6338 14.728 17.7683 14.8861 17.88 15.06C17.9094 15.1046 17.9476 15.1427 17.9923 15.172C18.0371 15.2012 18.0873 15.221 18.14 15.23C18.2472 15.2511 18.3584 15.2295 18.45 15.17L20.11 13.87C20.2 13.87 20.29 13.93 20.38 13.99C20.5354 14.1134 20.6824 14.247 20.82 14.39C20.9731 14.5585 21.1167 14.7354 21.25 14.92C21.3288 15.0228 21.4023 15.1296 21.47 15.24C20.9322 15.678 20.3604 16.0726 19.76 16.42C19.6594 16.4885 19.5849 16.589 19.5486 16.7052C19.5123 16.8213 19.5163 16.9464 19.56 17.06C19.63 17.2186 19.6739 17.3874 19.69 17.56C19.6992 17.719 19.6788 17.8784 19.63 18.03C19.6 18.1256 19.5972 18.2277 19.6219 18.3249C19.6466 18.422 19.6979 18.5103 19.77 18.58C20.46 19.12 21.43 19.44 21.14 20Z" fill="black"/>
<path fill-rule="evenodd" clip-rule="evenodd" d="M17.2 15.85C17.0761 15.8095 16.949 15.7794 16.82 15.76C16.6403 15.7451 16.4597 15.7451 16.28 15.76C16.2155 15.7363 16.1446 15.7363 16.08 15.76C15.6385 15.6716 15.1799 15.762 14.8049 16.0114C14.43 16.2607 14.1693 16.6486 14.08 17.09C13.9913 17.3318 13.9561 17.59 13.9769 17.8467C13.9977 18.1034 14.074 18.3525 14.2004 18.5769C14.3269 18.8013 14.5005 18.9956 14.7093 19.1463C14.9182 19.297 15.1572 19.4007 15.41 19.45C15.9527 19.5287 16.5057 19.4117 16.97 19.12C17.3866 18.8514 17.7302 18.4838 17.97 18.05C18.0818 17.8549 18.1536 17.6394 18.1811 17.4161C18.2085 17.1929 18.1912 16.9664 18.13 16.75C18.0596 16.5358 17.9382 16.342 17.7761 16.1852C17.6141 16.0284 17.4164 15.9134 17.2 15.85ZM17.11 17.54C16.9172 17.7997 16.6675 18.0117 16.38 18.16C16.1395 18.3041 15.8591 18.3672 15.58 18.34C15.4704 18.3202 15.366 18.2779 15.2734 18.2159C15.1808 18.1539 15.102 18.0734 15.0419 17.9796C14.9819 17.8857 14.9418 17.7805 14.9243 17.6704C14.9067 17.5604 14.9121 17.4479 14.94 17.34C15.04 16.81 15.41 16.29 16.05 16.4C16.086 16.4098 16.124 16.4098 16.16 16.4H16.23L16.92 16.58C17.0098 16.6153 17.0895 16.672 17.1523 16.7452C17.215 16.8184 17.2589 16.9059 17.28 17C17.2911 17.1947 17.2306 17.3868 17.11 17.54Z" fill="black"/>
</g>
<defs>
<clipPath id="clip0_1046_5721">
<rect width="24" height="24" fill="white"/>
</clipPath>
</defs>
</svg>
