<svg width="24" height="24" viewBox="0 0 24 24" fill="none" xmlns="http://www.w3.org/2000/svg">
<g clip-path="url(#clip0_1046_5687)">
<path fill-rule="evenodd" clip-rule="evenodd" d="M15.72 3.99998C16.124 3.08655 16.4583 2.14386 16.72 1.17998C17.0494 1.31199 17.3243 1.55168 17.5 1.85998C17.6266 2.07323 17.7337 2.29747 17.82 2.52998C17.9066 2.76666 17.9702 3.01112 18.01 3.25998C18.0991 3.78875 18.1459 4.32377 18.15 4.85998C18.15 6.13998 17.97 7.32998 17.95 8.73998C17.9499 8.83209 17.985 8.92076 18.0483 8.98772C18.1115 9.05469 18.198 9.09486 18.29 9.09998C18.3811 9.10002 18.4687 9.06452 18.534 9.00103C18.5994 8.93754 18.6374 8.85106 18.64 8.75998C18.69 7.33998 18.9 6.14998 18.93 4.85998C18.9414 4.28126 18.9046 3.7026 18.82 3.12998C18.7772 2.83173 18.7103 2.53743 18.62 2.24998C18.5191 1.96707 18.3954 1.69283 18.25 1.42998C18.0217 1.00595 17.674 0.658249 17.25 0.429981C16.6484 0.169206 15.995 0.0494871 15.34 0.0799806L9.31 -1.93627e-05C8.53652 -0.028104 7.76223 0.0255264 7 0.159981C6.40479 0.25118 5.84138 0.488222 5.36 0.849981C5.05449 1.11444 4.83218 1.46179 4.72 1.84998C4.59615 2.32986 4.53894 2.8245 4.55 3.31998C4.55 4.25998 4.34 7.69998 4.21 10.86C4.12 12.92 4.07 14.86 4.04 15.91C3.99203 16.9749 4.06584 18.0418 4.26 19.09C4.36862 19.6146 4.62544 20.097 5 20.48C5.37595 20.7544 5.82493 20.911 6.29 20.93C7.16485 20.9991 8.04271 21.0225 8.92 21H11C11.5 21 12 21 12.4 20.94C12.4796 20.94 12.5559 20.9084 12.6121 20.8521C12.6684 20.7959 12.7 20.7195 12.7 20.64C12.7 20.5604 12.6684 20.4841 12.6121 20.4278C12.5559 20.3716 12.4796 20.34 12.4 20.34H11.03L8.97 20.28C8.46 20.28 7.54 20.28 6.73 20.21C6.31593 20.2148 5.90826 20.1077 5.55 19.9C5.25694 19.4983 5.09301 19.017 5.08 18.52C4.97683 17.6842 4.95005 16.8407 5 16C5.07 14.52 5.3 11.3 5.46 8.44998C5.59 6.14998 5.68 4.08998 5.69 3.38998C5.68784 3.05497 5.7146 2.72039 5.77 2.38998C5.80161 2.14672 5.91436 1.92123 6.09 1.74998C6.38866 1.54058 6.7303 1.4005 7.09 1.33998C7.16 1.79998 7.35 2.60998 7.52 3.24998C7.60966 3.62594 7.75457 3.98653 7.95 4.31998C8.32584 4.5273 8.73555 4.66613 9.16 4.72998C9.96 4.89998 11.04 5.04998 11.57 5.11998C12.2357 5.17174 12.9043 5.17174 13.57 5.11998C14.0568 5.10343 14.5385 5.01584 15 4.85998C15.325 4.65678 15.5771 4.35565 15.72 3.99998ZM13.51 3.99998C12.8958 4.01481 12.2813 3.99143 11.67 3.92998L8.56 3.58998C8.34485 3.1079 8.15787 2.61374 8 2.10998C7.89123 1.80823 7.79778 1.50117 7.72 1.18998C8.24706 1.11996 8.77833 1.08655 9.31 1.08998L15.34 0.999981H16C15.84 1.42998 15.54 2.16998 15.22 2.82998C14.76 3.85998 15.05 3.99998 13.51 3.99998Z" fill="black"/>
<path fill-rule="evenodd" clip-rule="evenodd" d="M19.94 18.18C19.8897 17.8422 19.7578 17.5217 19.5556 17.2464C19.3535 16.971 19.0873 16.7492 18.78 16.6C17.9733 16.2694 17.0959 16.1489 16.23 16.25C15.8951 16.2829 15.557 16.2592 15.23 16.18C15.131 16.1579 15.0412 16.1057 14.9732 16.0305C14.9051 15.9552 14.8621 15.8607 14.85 15.76C14.8296 15.458 14.8903 15.156 15.0256 14.8853C15.161 14.6146 15.3662 14.3849 15.62 14.22C16.1572 13.7843 16.8284 13.5476 17.52 13.55C17.8431 13.5472 18.1633 13.6119 18.46 13.74C18.7725 13.8787 19.0678 14.0532 19.34 14.26C19.3715 14.2836 19.4074 14.3008 19.4455 14.3106C19.4837 14.3204 19.5234 14.3225 19.5624 14.317C19.6014 14.3114 19.6389 14.2982 19.6728 14.2781C19.7067 14.2581 19.7364 14.2315 19.76 14.2C19.7855 14.1696 19.8045 14.1344 19.8158 14.0964C19.8272 14.0584 19.8306 14.0185 19.8259 13.9792C19.8212 13.9398 19.8085 13.9018 19.7886 13.8676C19.7687 13.8333 19.7419 13.8035 19.71 13.78C19.4059 13.5187 19.0699 13.2969 18.71 13.12C18.3429 12.9408 17.9466 12.829 17.54 12.79C17.5547 12.5903 17.5547 12.3897 17.54 12.19C17.4814 11.7523 17.448 11.3115 17.44 10.87C17.4456 10.8305 17.4433 10.7904 17.4332 10.7518C17.4232 10.7133 17.4055 10.6771 17.3813 10.6455C17.3571 10.6138 17.3268 10.5873 17.2923 10.5675C17.2577 10.5476 17.2195 10.5349 17.18 10.53C17.1018 10.5185 17.0223 10.5383 16.9586 10.5851C16.8949 10.6319 16.8523 10.7019 16.84 10.78C16.7181 11.176 16.6475 11.586 16.63 12C16.616 12.1597 16.616 12.3203 16.63 12.48C16.63 12.59 16.63 12.69 16.7 12.81C15.9199 12.9298 15.1928 13.2778 14.61 13.81C14.3102 14.0659 14.0738 14.3878 13.9194 14.7504C13.765 15.113 13.6967 15.5065 13.72 15.9C13.7349 16.1556 13.8154 16.4031 13.9538 16.6185C14.0922 16.834 14.2837 17.0101 14.51 17.13C15.0565 17.3826 15.6612 17.4828 16.26 17.42C16.9337 17.322 17.6213 17.3942 18.26 17.63C18.4149 17.7002 18.5504 17.8069 18.6549 17.941C18.7594 18.0752 18.8298 18.2327 18.86 18.4C18.9004 18.7356 18.847 19.0759 18.7058 19.383C18.5646 19.6901 18.341 19.9521 18.06 20.14C17.7809 20.3823 17.4547 20.5642 17.1019 20.6743C16.7491 20.7845 16.3774 20.8204 16.01 20.78C15.7624 20.7366 15.529 20.6337 15.33 20.48C15.1074 20.3188 14.9088 20.1269 14.74 19.91C14.7133 19.8735 14.6797 19.8428 14.641 19.8195C14.6023 19.7962 14.5594 19.7808 14.5147 19.7743C14.47 19.7678 14.4245 19.7703 14.3807 19.7815C14.337 19.7928 14.296 19.8127 14.26 19.84C14.1886 19.8955 14.1414 19.9764 14.1284 20.0659C14.1153 20.1554 14.1374 20.2464 14.19 20.32C14.4278 20.6579 14.7221 20.9522 15.06 21.19C15.3016 21.3657 15.5776 21.4884 15.87 21.55C16.1616 21.5949 16.4584 21.5949 16.75 21.55C16.675 21.8385 16.6248 22.1329 16.6 22.43C16.585 22.593 16.585 22.757 16.6 22.92C16.6279 23.1625 16.6713 23.403 16.73 23.64C16.7299 23.6851 16.7391 23.7297 16.7569 23.7711C16.7747 23.8125 16.8008 23.8498 16.8336 23.8807C16.8664 23.9116 16.9052 23.9355 16.9476 23.9509C16.9899 23.9662 17.035 23.9727 17.08 23.97C17.1711 23.9648 17.2565 23.9243 17.3182 23.8571C17.3798 23.7898 17.4128 23.7012 17.41 23.61C17.41 23.3 17.51 22.98 17.51 22.66C17.51 22.34 17.43 21.83 17.43 21.42C17.857 21.2964 18.2596 21.1002 18.62 20.84C19.0624 20.5599 19.4195 20.1638 19.6523 19.6947C19.885 19.2257 19.9846 18.7017 19.94 18.18Z" fill="black"/>
</g>
<defs>
<clipPath id="clip0_1046_5687">
<rect width="24" height="24" fill="white"/>
</clipPath>
</defs>
</svg>
