<svg width="24" height="24" viewBox="0 0 24 24" fill="none" xmlns="http://www.w3.org/2000/svg">
<g clip-path="url(#clip0_1046_5650)">
<path fill-rule="evenodd" clip-rule="evenodd" d="M21.8 8.06C21.7948 7.13755 21.738 6.21612 21.63 5.3C21.5285 4.61872 21.361 3.94891 21.13 3.3C20.9714 2.83041 20.7347 2.39092 20.43 2C19.8812 1.33007 19.1579 0.824816 18.34 0.540001C17.1708 0.185189 15.951 0.0263752 14.73 0.0700012C13.73 0.0700012 12.41 0.0100012 11.15 1.18418e-06H8.74C7.19155 -0.0405129 5.65375 0.267046 4.24 0.900001C3.76333 1.17364 3.35585 1.55307 3.04897 2.00905C2.7421 2.46503 2.54402 2.98538 2.47 3.53C2.42 3.78 2.37 4.6 2.33 5.63C2.27 7.18 2.22 9.21 2.2 10.44C2.18 11.67 2.2 12.88 2.2 14.18C2.2 15.07 2.29 15.93 2.36 16.68C2.41701 17.5917 2.54406 18.4977 2.74 19.39C2.89665 20.0378 3.18986 20.6447 3.6 21.17C4.07786 21.7378 4.66216 22.2066 5.32 22.55C6.2706 23.0164 7.27966 23.3528 8.32 23.55C10.5373 24.0579 12.8302 24.1461 15.08 23.81C16.6323 23.5675 18.0941 22.9227 19.32 21.94C19.65 21.66 20.02 21.36 20.32 21.03C20.5837 20.7859 20.8125 20.5066 21 20.2C21.3725 19.4535 21.5966 18.6419 21.66 17.81C21.7642 16.6531 21.8043 15.4913 21.78 14.33C21.78 13.29 21.84 10.36 21.8 8.06ZM19.52 14C18.32 14 17.12 14.11 15.94 14.13C14.23 14.19 12.52 14.13 10.82 14.21C9.68 14.21 8.54 14.33 7.39 14.41C6.56 14.48 5.71 14.61 4.86 14.68C4.30706 14.7097 3.75293 14.7097 3.2 14.68C3.2 14.68 3.14 14.68 3.11 14.68C3.11 14.28 3.11 13.88 3.05 13.47C3 12.45 3 11.36 3 10.45C5 10.53 6.92 10.59 8.89 10.59C9.94 10.59 10.98 10.59 12.03 10.52C13.08 10.45 14.12 10.41 15.17 10.35L19 10C19.4 10 19.84 9.88 20.28 9.86H20.67C20.67 11.53 20.62 13.18 20.61 14.06C20.27 14 19.89 14 19.52 14ZM3.14 3.65C3.20518 3.20987 3.37077 2.79063 3.62394 2.42474C3.87711 2.05886 4.21108 1.75613 4.6 1.54C5.92475 1.00224 7.3527 0.766525 8.78 0.850001H11.14C12.4 0.850001 13.72 0.940001 14.7 0.980001C15.8176 0.953755 16.9321 1.10911 18 1.44C18.6488 1.69247 19.216 2.11787 19.64 2.67C19.869 2.97285 20.0479 3.31047 20.17 3.67C20.3655 4.25909 20.5061 4.865 20.59 5.48C20.6763 6.34051 20.713 7.20527 20.7 8.07V9.14C20.5635 9.1298 20.4265 9.1298 20.29 9.14C19.84 9.14 19.39 9.19 18.97 9.2L15.11 9.3C13.44 9.35 11.76 9.36 10.11 9.44C7.74 9.55 5.37 9.73 3.01 9.82C3 8.58 3 7 3 5.66C3.07 4.68 3.1 3.89 3.14 3.65ZM20 19.65C19.8812 19.8573 19.7367 20.0488 19.57 20.22C19.2771 20.5121 18.9665 20.786 18.64 21.04C17.5677 21.903 16.289 22.4717 14.93 22.69C12.8237 23.0219 10.6741 22.9609 8.59 22.51C7.63538 22.3545 6.70669 22.0685 5.83 21.66C5.2778 21.3945 4.78728 21.0164 4.39 20.55C4.05368 20.1424 3.81432 19.6636 3.69 19.15C3.4825 18.3065 3.34867 17.4466 3.29 16.58C3.29 16.19 3.21 15.76 3.17 15.32C3.6 15.32 4.03 15.39 4.47 15.4C5.47 15.4 6.47 15.35 7.47 15.35H9.52H12.6C13.68 15.35 14.88 15.25 16.02 15.17C17.16 15.09 18.4 14.89 19.59 14.81H20.67C20.6789 15.7881 20.6389 16.766 20.55 17.74C20.4917 18.4062 20.3049 19.0548 20 19.65Z" fill="black"/>
<path fill-rule="evenodd" clip-rule="evenodd" d="M12.72 11.53C12.5951 11.5003 12.468 11.4802 12.34 11.47H11.74C11.2272 11.4441 10.7186 11.573 10.28 11.84C10.02 12.11 10.02 12.02 10.09 12.43C10.09 12.57 10.14 12.97 10.27 13.04C10.5874 13.1658 10.9328 13.2038 11.27 13.15C11.75 13.1401 12.2284 13.0899 12.7 13C12.8238 12.9645 12.9371 12.8993 13.03 12.81C13.1609 12.6274 13.2213 12.4036 13.2 12.18C13.2 11.76 13.31 11.69 12.72 11.53Z" fill="black"/>
<path fill-rule="evenodd" clip-rule="evenodd" d="M7.23999 16.34C7.01247 16.222 6.75315 16.18 6.49999 16.22C5.84999 16.42 5.40999 17.01 5.71999 17.6C5.82264 17.7704 5.97033 17.9091 6.14678 18.0008C6.32323 18.0926 6.52159 18.1338 6.71999 18.12C6.89653 18.1228 7.07119 18.0834 7.22945 18.0051C7.38772 17.9269 7.52503 17.812 7.62999 17.67C7.7494 17.4409 7.77549 17.1744 7.70278 16.9265C7.63008 16.6785 7.46423 16.4684 7.23999 16.34Z" fill="black"/>
<path fill-rule="evenodd" clip-rule="evenodd" d="M9.62 18.05C9.90849 18.1824 10.2348 18.2072 10.54 18.12C10.7754 18.0297 10.968 17.8539 11.0792 17.6277C11.1905 17.4014 11.2122 17.1416 11.14 16.9C11.07 16.7691 10.9718 16.6555 10.8525 16.5672C10.7331 16.479 10.5956 16.4185 10.45 16.39C10.2513 16.3491 10.0458 16.3549 9.84968 16.407C9.65358 16.459 9.47226 16.5559 9.32 16.69C9.23925 16.7953 9.1825 16.917 9.15373 17.0465C9.12496 17.176 9.12486 17.3103 9.15344 17.4398C9.18203 17.5694 9.23859 17.6912 9.31919 17.7966C9.39978 17.902 9.50245 17.9885 9.62 18.05Z" fill="black"/>
<path fill-rule="evenodd" clip-rule="evenodd" d="M13.62 16.33C13.4275 16.3656 13.2459 16.4456 13.0897 16.5637C12.9334 16.6817 12.8069 16.8345 12.72 17.01C12.6625 17.13 12.6334 17.2615 12.6347 17.3946C12.6361 17.5276 12.6679 17.6585 12.7278 17.7773C12.7877 17.8961 12.874 17.9996 12.9801 18.0798C13.0863 18.16 13.2094 18.2148 13.34 18.24C14.14 18.34 15 17.24 14.34 16.6C14.2437 16.5097 14.1306 16.4394 14.007 16.393C13.8834 16.3467 13.7519 16.3253 13.62 16.33Z" fill="black"/>
<path fill-rule="evenodd" clip-rule="evenodd" d="M16.89 18C17.11 18.0387 17.3365 18.013 17.5423 17.9261C17.7481 17.8392 17.9244 17.6947 18.05 17.51C18.34 16.94 17.44 16.29 16.99 16.37C16.31 16.44 15.7 17.75 16.89 18Z" fill="black"/>
<path fill-rule="evenodd" clip-rule="evenodd" d="M6.1 19.3C5.94079 19.3936 5.8106 19.5295 5.72388 19.6925C5.63716 19.8556 5.59728 20.0394 5.60867 20.2238C5.62006 20.4081 5.68227 20.5857 5.78841 20.7368C5.89455 20.888 6.04047 21.0067 6.21 21.08C7.41 21.63 7.8 20.08 7.37 19.39C7.21 19.13 6.5 19.09 6.1 19.3Z" fill="black"/>
<path fill-rule="evenodd" clip-rule="evenodd" d="M10.53 19.2C10.2466 19.1159 9.94351 19.127 9.66711 19.2318C9.39072 19.3366 9.15636 19.5292 9 19.78C8.91204 20.0822 8.93411 20.4058 9.06228 20.6933C9.19045 20.9808 9.41641 21.2135 9.7 21.35C9.85991 21.4012 10.0291 21.4168 10.1957 21.3956C10.3622 21.3744 10.5221 21.317 10.6641 21.2274C10.8061 21.1378 10.9268 21.0182 11.0177 20.877C11.1085 20.7358 11.1673 20.5764 11.19 20.41C11.1864 20.1699 11.1244 19.9343 11.0095 19.7235C10.8945 19.5127 10.7299 19.333 10.53 19.2Z" fill="black"/>
<path fill-rule="evenodd" clip-rule="evenodd" d="M13.93 19.32C13.7228 19.2313 13.4942 19.2048 13.2722 19.2439C13.0503 19.2829 12.8445 19.3859 12.68 19.54C12.5028 19.7982 12.4209 20.11 12.4482 20.4219C12.4756 20.7339 12.6105 21.0266 12.83 21.25C13.4 21.71 14.25 21.1 14.43 20.51C14.4753 20.2844 14.4518 20.0504 14.3627 19.8382C14.2736 19.6261 14.1228 19.4456 13.93 19.32Z" fill="black"/>
<path fill-rule="evenodd" clip-rule="evenodd" d="M17 19C16.7348 18.9589 16.4641 19.0248 16.2475 19.1833C16.0309 19.3417 15.8861 19.5798 15.845 19.845C15.8039 20.1102 15.8698 20.3809 16.0283 20.5975C16.1868 20.8141 16.4248 20.9589 16.69 21C16.8681 21.04 17.0531 21.0385 17.2306 20.9957C17.408 20.9528 17.5733 20.8696 17.7134 20.7526C17.8536 20.6356 17.965 20.488 18.039 20.321C18.1129 20.1541 18.1475 19.9724 18.14 19.79C18.0648 19.5503 17.9119 19.3426 17.7055 19.1995C17.499 19.0564 17.2508 18.9862 17 19Z" fill="black"/>
</g>
<defs>
<clipPath id="clip0_1046_5650">
<rect width="24" height="24" fill="white"/>
</clipPath>
</defs>
</svg>
