<svg width="24" height="24" viewBox="0 0 24 24" fill="none" xmlns="http://www.w3.org/2000/svg">
<g clip-path="url(#clip0_1046_5726)">
<path fill-rule="evenodd" clip-rule="evenodd" d="M22.36 15.45C22.3291 15.4211 22.2929 15.3986 22.2533 15.3837C22.2138 15.3689 22.1716 15.3619 22.1294 15.3633C22.0871 15.3647 22.0456 15.3744 22.0071 15.3919C21.9686 15.4093 21.9339 15.4342 21.905 15.465C21.8761 15.4959 21.8536 15.5321 21.8387 15.5717C21.8238 15.6113 21.8169 15.6534 21.8183 15.6956C21.8197 15.7379 21.8294 15.7795 21.8468 15.818C21.8643 15.8565 21.8891 15.8911 21.92 15.92C22.6085 16.4898 23.0576 17.2976 23.178 18.1832C23.2985 19.0687 23.0814 19.9671 22.57 20.7C22.0329 21.418 21.3285 21.9937 20.5181 22.3772C19.7076 22.7606 18.8157 22.9401 17.92 22.9C17.0144 22.8727 16.1289 22.6256 15.34 22.18C14.5627 21.7735 13.964 21.0929 13.66 20.27C13.3305 19.4859 13.2595 18.6172 13.4573 17.79C13.6551 16.9628 14.1114 16.2202 14.76 15.67C15.4441 15.1906 16.2217 14.8608 17.0419 14.7023C17.8621 14.5438 18.7065 14.56 19.52 14.75C19.04 15.6 18.59 16.46 18.12 17.31C17.46 18.72 17.81 19.39 16.63 18.48C16.1 18.09 15.56 17.58 15.3 17.39C15.2739 17.3634 15.2428 17.3423 15.2085 17.3279C15.1741 17.3134 15.1373 17.306 15.1 17.306C15.0628 17.306 15.0259 17.3134 14.9915 17.3279C14.9572 17.3423 14.9261 17.3634 14.9 17.39C14.8493 17.4423 14.8209 17.5122 14.8209 17.585C14.8209 17.6578 14.8493 17.7278 14.9 17.78C15.2 18.05 15.79 18.78 16.33 19.21C16.6041 19.483 16.9515 19.6705 17.33 19.75C17.475 19.7411 17.6163 19.7007 17.7441 19.6316C17.8719 19.5626 17.9831 19.4665 18.07 19.35C18.4506 18.8548 18.7853 18.326 19.07 17.77C19.43 17.06 19.81 16.35 20.16 15.65C20.51 14.95 20.84 14.22 21.16 13.51C21.48 12.8 21.8 12.32 22.16 11.74C22.183 11.7046 22.1988 11.6649 22.2064 11.6234C22.2141 11.5818 22.2135 11.5392 22.2047 11.4979C22.1958 11.4565 22.179 11.4174 22.155 11.3826C22.131 11.3478 22.1005 11.318 22.065 11.295C22.0295 11.2721 21.9899 11.2563 21.9484 11.2486C21.9068 11.241 21.8642 11.2416 21.8228 11.2504C21.7815 11.2592 21.7423 11.2761 21.7075 11.3C21.6727 11.324 21.643 11.3546 21.62 11.39C20.97 12.29 20.36 13.21 19.79 14.18C18.8601 13.898 17.8798 13.8226 16.9176 13.9591C15.9555 14.0955 15.0348 14.4406 14.22 14.97C13.3803 15.6022 12.7698 16.4911 12.481 17.5018C12.1923 18.5124 12.2411 19.5896 12.62 20.57C12.992 21.6518 13.7603 22.5524 14.77 23.09C15.729 23.6216 16.8037 23.91 17.9 23.93C18.9519 23.9318 19.9885 23.6779 20.9205 23.1901C21.8525 22.7024 22.6519 21.9954 23.25 21.13C23.8355 20.2424 24.0688 19.1683 23.9042 18.1178C23.7396 17.0673 23.1889 16.116 22.36 15.45Z" fill="black"/>
<path fill-rule="evenodd" clip-rule="evenodd" d="M13.88 9.87003C13.492 9.76831 13.1436 9.55229 12.88 9.25003C12.6512 9.03819 12.3668 8.89597 12.06 8.84003C11.9168 8.8087 11.7677 8.81835 11.6297 8.86787C11.4918 8.91739 11.3706 9.00479 11.28 9.12003C11.1374 9.31277 11.0509 9.54119 11.03 9.78003C11.0132 10.2113 11.0604 10.6426 11.17 11.06C11.2964 11.654 11.3865 12.2551 11.44 12.86C11.4661 13.2243 11.4254 13.5903 11.32 13.94C11.233 14.1816 11.1081 14.4077 10.95 14.61L10.83 14.74C10.7134 14.3839 10.5449 14.047 10.33 13.74L10.22 13.47L10.11 13.15C9.77836 11.9451 9.51131 10.7234 9.31001 9.49003C9.19132 8.94492 9.02054 8.41247 8.80001 7.90003C8.57545 7.36164 8.23386 6.87999 7.80001 6.49003C7.63246 6.32672 7.43352 6.19909 7.21523 6.11487C6.99694 6.03065 6.76383 5.99158 6.53001 6.00003C6.32188 6.00983 6.11998 6.0741 5.94449 6.18641C5.769 6.29872 5.62607 6.45515 5.53001 6.64003C5.26527 7.26438 5.18544 7.95162 5.30001 8.62003C5.43001 9.62003 5.77001 10.7 5.99001 11.75C6.08365 12.1612 6.14385 12.5792 6.17001 13C6.20971 13.2954 6.20971 13.5947 6.17001 13.89C6.144 14.118 6.02898 14.3265 5.85001 14.47C5.78543 14.5195 5.70635 14.5463 5.62501 14.5463C5.54366 14.5463 5.46458 14.5195 5.40001 14.47C5.1908 14.3659 5.01691 14.2024 4.90001 14C4.67899 13.3006 4.37694 12.6293 4.00001 12C3.70641 11.5471 3.24679 11.2276 2.72001 11.11H2.62001C1.70001 11.18 1.62001 11.73 2.69001 11.75C3.00894 11.8599 3.27835 12.0797 3.45001 12.37C3.75914 12.9517 4.00392 13.5653 4.18001 14.2C4.38043 14.644 4.73601 14.9996 5.18001 15.2C5.36065 15.2807 5.55946 15.3122 5.75619 15.2911C5.95292 15.27 6.14056 15.1972 6.30001 15.08C6.58152 14.8726 6.79127 14.5824 6.90001 14.25C7.0231 13.8453 7.07718 13.4227 7.06001 13C7.05351 12.5236 7.00667 12.0486 6.92001 11.58C6.74001 10.58 6.43001 9.53003 6.34001 8.51003C6.29186 8.17844 6.29186 7.84163 6.34001 7.51003C6.34001 7.33003 6.41001 7.14003 6.59001 7.12003C6.71545 7.12462 6.83822 7.1576 6.94908 7.21649C7.05993 7.27538 7.15598 7.35865 7.23001 7.46003C7.4582 7.72282 7.64379 8.01976 7.78001 8.34003C7.91252 8.66551 8.02278 8.99961 8.11001 9.34003C8.52001 10.74 8.63001 12.21 9.11001 13.59L9.25001 13.94L9.37001 14.23C9.50808 14.6301 9.67176 15.0209 9.86001 15.4C9.91641 15.5131 9.99652 15.6128 10.0949 15.6922C10.1932 15.7715 10.3075 15.8288 10.43 15.86C10.6278 15.8739 10.8261 15.8424 11.0098 15.7679C11.1936 15.6934 11.3578 15.5778 11.49 15.43C11.7986 15.0916 12.0275 14.6884 12.16 14.25C12.2844 13.7945 12.3251 13.3201 12.28 12.85C12.2291 12.1946 12.1356 11.5433 12 10.9C11.9177 10.602 11.8609 10.2976 11.83 9.99003C11.8167 9.84733 11.8482 9.70403 11.92 9.58003C11.92 9.52003 12.06 9.58003 12.14 9.58003C12.2456 9.61993 12.3436 9.67741 12.43 9.75003C12.7991 10.1416 13.2818 10.4074 13.81 10.51H14C14.78 10.45 14.66 9.86003 13.88 9.87003Z" fill="black"/>
<path fill-rule="evenodd" clip-rule="evenodd" d="M15 5.37001C14.8632 4.27224 14.6324 3.18825 14.31 2.13001C14.0869 1.59433 13.7262 1.12716 13.2643 0.775918C12.8024 0.42467 12.2558 0.201834 11.68 0.130013C9.38 -0.289987 6.2 0.650013 4.55 0.910013C3.67126 0.998391 2.81127 1.22098 2 1.57001C1.37982 1.86701 0.863918 2.34457 0.52 2.94001C0.15237 3.65302 -0.0266444 4.44825 -4.68455e-07 5.25001C0.0483239 6.32877 0.158505 7.40388 0.33 8.47001C0.57274 11.3046 0.959909 14.1249 1.49 16.92C1.8271 18.8331 2.52263 20.6652 3.54 22.32C3.77595 22.6876 4.08667 23.0013 4.45194 23.2408C4.81721 23.4803 5.22883 23.6402 5.66 23.71C6.95 23.92 8.66 23.51 11.12 22.91C11.157 22.9031 11.1921 22.8886 11.2232 22.8673C11.2542 22.846 11.2804 22.8185 11.3002 22.7865C11.32 22.7545 11.3329 22.7187 11.338 22.6814C11.3431 22.6441 11.3404 22.6062 11.33 22.57C11.3218 22.5337 11.3064 22.4994 11.2848 22.4692C11.2632 22.4389 11.2357 22.4132 11.2041 22.3937C11.1724 22.3741 11.1372 22.3611 11.1004 22.3553C11.0637 22.3495 11.0261 22.3511 10.99 22.36C9.52038 22.7476 8.01671 22.9921 6.5 23.09C6.03984 23.1164 5.58104 23.0189 5.17128 22.8079C4.76152 22.5969 4.41578 22.2799 4.17 21.89C3.26315 20.2947 2.65964 18.5452 2.39 16.73C2.07 15.09 1.47 9.13001 1.39 8.36001C1.23027 7.32974 1.12679 6.29154 1.08 5.25001C1.05075 4.63381 1.18167 4.02055 1.46 3.47001C1.68997 3.06472 2.03911 2.74002 2.46 2.54001H2.54C2.5872 2.94756 2.67428 3.34948 2.8 3.74001C2.90299 4.03337 3.07042 4.2999 3.29 4.52001C3.43323 4.65139 3.60954 4.74127 3.8 4.78001C4.12826 4.85123 4.46459 4.87813 4.8 4.86001C5.27696 4.8541 5.75233 4.80389 6.22 4.71001C6.89 4.58001 7.54 4.38001 8.22 4.24001C8.71 4.11001 9.59 4.09001 10.22 3.87001C10.6125 3.77906 10.964 3.56113 11.22 3.25001C11.3873 2.99225 11.4871 2.69648 11.51 2.39001C11.5453 1.9574 11.5453 1.52263 11.51 1.09001C11.9471 1.11848 12.3683 1.26454 12.7291 1.51274C13.09 1.76094 13.3771 2.10206 13.56 2.50001C13.8809 3.47755 14.1151 4.48142 14.26 5.50001C14.43 6.50001 15.26 12.22 15.32 12.92C15.3224 12.9626 15.3335 13.0043 15.3528 13.0424C15.372 13.0804 15.3989 13.1142 15.4317 13.1414C15.4646 13.1686 15.5027 13.1887 15.5437 13.2006C15.5847 13.2124 15.6277 13.2156 15.67 13.21C15.7122 13.2051 15.7529 13.1918 15.7899 13.171C15.8269 13.1501 15.8593 13.1221 15.8854 13.0886C15.9114 13.0551 15.9306 13.0168 15.9417 12.9758C15.9528 12.9349 15.9556 12.8921 15.95 12.85C15.67 10.92 15.34 7.79001 15 5.37001ZM10.7 2.00001C10.6947 2.23712 10.618 2.46712 10.48 2.66001C10.262 2.85836 9.98391 2.97805 9.69 3.00001C9.05 3.10001 8.34 3.09001 7.91 3.17001C7.17 3.34001 6.4 3.55001 5.63 3.71001C5.32364 3.78271 5.01304 3.83615 4.7 3.87001C4.51373 3.88713 4.32627 3.88713 4.14 3.87001C4.03569 3.90173 3.92431 3.90173 3.82 3.87001C3.62042 3.69631 3.47179 3.47164 3.39 3.22001C3.27069 2.91753 3.17376 2.6067 3.1 2.29001C3.62 2.14001 4.17 2.06001 4.72 1.96001C6.62775 1.44496 8.57965 1.11015 10.55 0.960013H10.75C10.7526 1.30734 10.7359 1.65454 10.7 2.00001Z" fill="black"/>
</g>
<defs>
<clipPath id="clip0_1046_5726">
<rect width="24" height="24" fill="white"/>
</clipPath>
</defs>
</svg>
