<svg width="24" height="24" viewBox="0 0 24 24" fill="none" xmlns="http://www.w3.org/2000/svg">
<g clip-path="url(#clip0_1033_3840)">
<path fill-rule="evenodd" clip-rule="evenodd" d="M23.8 3.99999C23.64 2.99999 24.11 1.50999 21 0.569992C19.8242 0.257944 18.6161 0.0834433 17.4 0.0499922C14.11 -0.160008 13.06 0.379992 7.91002 0.429992C7.86405 0.429992 7.81854 0.439045 7.77608 0.456634C7.73361 0.474223 7.69503 0.500004 7.66253 0.532505C7.63003 0.565005 7.60425 0.603589 7.58666 0.646053C7.56907 0.688517 7.56002 0.734029 7.56002 0.779992C7.56002 0.825955 7.56907 0.871467 7.58666 0.913931C7.60425 0.956395 7.63003 0.994979 7.66253 1.02748C7.69503 1.05998 7.73361 1.08576 7.77608 1.10335C7.81854 1.12094 7.86405 1.12999 7.91002 1.12999C9.45123 1.17855 10.994 1.13514 12.53 0.999992C12.32 2.77999 12.24 2.84999 12.18 4.10999C12.12 5.53999 12.26 9.03999 12.34 9.41999C12.4401 9.92796 12.6805 10.3977 13.034 10.776C13.3875 11.1542 13.84 11.4258 14.34 11.56C16.34 12.17 22.64 11.06 22.72 11.01C22.72 11.4 22.72 11.78 22.66 12.16C22.56 13.07 22.66 13.64 22.2 14.31C21.37 15.46 20.08 15.19 18.67 15.39C15.2762 15.7022 11.8654 15.789 8.46002 15.65C7.13935 15.762 5.81766 15.4465 4.69002 14.75C4.00002 14.29 4.08002 12.41 4.00002 11.48C3.73357 9.0728 3.67669 6.64702 3.83002 4.22999C4.00002 2.72999 4.51002 1.38999 6.00002 1.37999C6.08223 1.37999 6.16108 1.34733 6.21922 1.2892C6.27736 1.23106 6.31002 1.15221 6.31002 1.06999C6.31002 0.987775 6.27736 0.908925 6.21922 0.850789C6.16108 0.792653 6.08223 0.759992 6.00002 0.759992C4.14002 0.739992 3.33002 2.29999 3.12002 4.15999C2.91001 6.61885 2.91001 9.09114 3.12002 11.55C3.20002 12.67 3.05002 14 3.68002 15.08C3.96691 15.4472 4.34181 15.7361 4.77002 15.92C6.29002 16.86 8.32002 16.7 11.14 16.78C11.04 17.78 10.92 18.32 10.84 19.43C10.76 19.43 6.31002 19.19 6.25002 19.27C6.29052 18.9642 6.22666 18.6537 6.06877 18.3888C5.91089 18.1238 5.66821 17.9199 5.38002 17.81C4.25007 17.487 3.06782 17.3885 1.90002 17.52C-0.349984 18 -0.419984 20.38 1.24002 21.13C2.17641 21.4416 3.16762 21.554 4.15002 21.46C5.32002 21.53 5.98002 21.41 6.15002 20.02C8.63002 20.85 8.83002 20.51 10.78 20.19C10.7226 21.305 10.7661 22.4229 10.91 23.53C10.9852 23.5832 11.0778 23.6056 11.169 23.5926C11.2601 23.5795 11.3428 23.5321 11.4 23.46C11.9598 21.2866 12.1057 19.0273 11.83 16.8H14.25C14.25 16.94 14.19 16.52 14.25 18.86C14.2264 19.9796 14.3168 21.0987 14.52 22.2C14.52 22.29 14.8 23.43 14.84 23.52C15.01 24.11 15.59 24.21 15.52 23.27C15.17 18.11 15.85 22.18 14.96 17.09C14.9608 16.9869 14.9404 16.8848 14.9 16.79C16.2145 16.7862 17.5273 16.696 18.83 16.52C19.7214 16.4752 20.6076 16.3582 21.48 16.17C22.0161 16.0031 22.4988 15.6981 22.8797 15.2856C23.2606 14.8731 23.5263 14.3676 23.65 13.82C23.8366 12.244 23.8968 10.6556 23.83 9.06999C23.9346 7.38125 23.9245 5.68737 23.8 3.99999ZM5.50002 20.58C4.39002 20.58 1.43002 20.81 1.27002 19.58C2.18002 18.09 4.82002 18.58 5.08002 18.58C5.34002 18.58 5.46002 18.72 5.51002 19.26C5.58002 20.05 5.43002 20.4 5.50002 20.58ZM13.92 9.99999C13.29 9.43999 13.43 8.19999 13.35 7.28999C13.0361 5.20819 12.979 3.09571 13.18 0.999992C15.78 0.829992 20.71 0.719992 22.51 2.54999C22.79 2.82999 22.71 3.72999 22.78 4.20999C22.99 5.77999 22.73 6.92999 22.73 10.43C22.06 10.05 15.64 11.54 13.92 9.99999Z" fill="black"/>
<path fill-rule="evenodd" clip-rule="evenodd" d="M20.57 3.25002C19.7427 2.7025 18.7389 2.48816 17.76 2.65002C17.134 2.75181 16.5564 3.04939 16.11 3.50002C15.777 3.85103 15.5269 4.27216 15.3779 4.7325C15.229 5.19284 15.185 5.6807 15.2493 6.16025C15.3135 6.6398 15.4844 7.09887 15.7493 7.50375C16.0142 7.90864 16.3664 8.24906 16.78 8.50002C17.2714 8.72673 17.8084 8.83743 18.3494 8.82356C18.8903 8.80969 19.4209 8.67162 19.9 8.42002C20.3484 8.17837 20.7329 7.83348 21.0216 7.41386C21.3103 6.99424 21.4951 6.51193 21.5605 6.00679C21.626 5.50166 21.5703 4.98819 21.3981 4.50883C21.2259 4.02947 20.942 3.59798 20.57 3.25002ZM19.52 7.65002C19.1664 7.8127 18.7795 7.89021 18.3905 7.87631C18.0015 7.86242 17.6212 7.75751 17.28 7.57002C16.933 7.32644 16.6763 6.97481 16.55 6.57002C16.3494 6.20389 16.2778 5.78093 16.3468 5.36918C16.4157 4.95744 16.6211 4.58085 16.93 4.30002C17.1904 3.99591 17.5405 3.78232 17.93 3.69002C18.6656 3.4914 19.4484 3.56969 20.13 3.91002C20.4418 4.14466 20.6835 4.46009 20.829 4.82218C20.9744 5.18427 21.0181 5.57924 20.9553 5.96436C20.8925 6.34948 20.7255 6.7101 20.4726 7.00721C20.2196 7.30431 19.8902 7.5266 19.52 7.65002Z" fill="black"/>
<path fill-rule="evenodd" clip-rule="evenodd" d="M20.16 4.79002C19.66 4.19002 18.87 4.29002 18.79 4.53002C18.7643 4.5612 18.7451 4.59727 18.7337 4.63604C18.7222 4.67482 18.7187 4.71552 18.7234 4.75568C18.7281 4.79584 18.7408 4.83465 18.7608 4.86977C18.7809 4.90488 18.8078 4.93558 18.84 4.96002C19.0366 5.08181 19.1848 5.26794 19.2596 5.48672C19.3343 5.70551 19.331 5.94344 19.25 6.16002C19.25 6.20599 19.2591 6.2515 19.2767 6.29396C19.2943 6.33643 19.3201 6.37501 19.3526 6.40751C19.3851 6.44001 19.4236 6.46579 19.4661 6.48338C19.5086 6.50097 19.5541 6.51002 19.6 6.51002C19.69 6.51002 19.78 6.51002 19.91 6.38002C20.0685 6.22086 20.1972 6.03459 20.29 5.83002C20.3485 5.65813 20.3671 5.47522 20.3446 5.29508C20.3221 5.11493 20.259 4.94225 20.16 4.79002Z" fill="black"/>
<path fill-rule="evenodd" clip-rule="evenodd" d="M11.16 7.39001C11.6 6.95001 11.35 5.97001 11.35 5.52001C11.35 4.77001 11.35 3.61001 10.79 3.06001C10.45 2.74001 10.05 2.87001 9.65999 2.88001C4.51999 2.99001 5.10999 2.88001 4.84999 4.73001C4.58999 6.58001 4.60999 6.94001 4.84999 7.24001C5.84999 8.38001 7.64999 7.98001 8.84999 7.93001C9.50999 7.88001 10.56 8.00001 11.16 7.39001ZM10.23 6.70001C9.79999 6.60001 7.26999 7.00001 6.59999 7.00001C6.2446 6.99924 5.89712 6.895 5.59999 6.70001C5.59999 6.61001 5.54999 4.87001 5.53999 4.79001L5.59999 4.00001C5.65999 3.49001 8.59999 3.92001 10.06 3.83001C10.24 4.00001 10.51 6.77001 10.23 6.70001Z" fill="black"/>
<path fill-rule="evenodd" clip-rule="evenodd" d="M6.25002 12.61C6.2531 12.946 6.3593 13.2729 6.55425 13.5465C6.7492 13.8202 7.02349 14.0273 7.34002 14.14C9.01002 14.67 11.34 12.67 9.82002 11.07C8.30002 9.46999 6.10002 10.5 6.25002 12.61ZM7.68002 13C7.12002 12.84 7.18002 11.4 7.68002 11.11C8.43002 10.67 9.20002 11.5 9.32002 11.98C9.44002 12.46 8.24002 13.18 7.68002 13Z" fill="black"/>
</g>
<defs>
<clipPath id="clip0_1033_3840">
<rect width="24" height="24" fill="white"/>
</clipPath>
</defs>
</svg>
