<svg width="24" height="24" viewBox="0 0 24 24" fill="none" xmlns="http://www.w3.org/2000/svg">
<g clip-path="url(#clip0_1049_7814)">
<path fill-rule="evenodd" clip-rule="evenodd" d="M11 5.89C10.5712 5.60587 10.0874 5.41508 9.58003 5.33C9.41926 5.30108 9.26404 5.24709 9.12003 5.17C9.00003 5.13 9.00003 5.09 9.00003 5C8.82003 4.14 10.37 4.41 10.74 4.6C10.8041 4.63798 10.8804 4.64983 10.953 4.63307C11.0257 4.61631 11.089 4.57224 11.13 4.51C11.1647 4.44417 11.1736 4.3678 11.1552 4.29573C11.1367 4.22367 11.0921 4.16103 11.03 4.12C10.8399 4.00691 10.6389 3.91311 10.43 3.84C10.4668 3.78141 10.4938 3.71724 10.51 3.65V3.44V2.93C10.5351 2.84911 10.527 2.76159 10.4877 2.68661C10.4483 2.61164 10.3808 2.55532 10.3 2.53C10.2606 2.51774 10.2192 2.51346 10.1781 2.51741C10.1371 2.52137 10.0972 2.53348 10.0609 2.55304C10.0246 2.5726 9.99252 2.59921 9.96661 2.63131C9.94071 2.66341 9.92147 2.70037 9.91003 2.74C9.79454 2.88005 9.68768 3.02699 9.59003 3.18C9.55908 3.24488 9.53236 3.31168 9.51003 3.38C9.49599 3.45266 9.49599 3.52734 9.51003 3.6C9.50521 3.63986 9.50521 3.68015 9.51003 3.72C9.33488 3.71844 9.16021 3.7386 8.99003 3.78C8.67966 3.83165 8.402 4.00312 8.21683 4.25749C8.03167 4.51186 7.95381 4.82878 8.00003 5.14C8.01931 5.31602 8.07897 5.4852 8.17437 5.63437C8.26977 5.78354 8.39833 5.90867 8.55003 6C8.97775 6.22944 9.43554 6.39775 9.91003 6.5C10.13 6.57 10.37 6.59 10.37 6.85C10.37 7.11 10.09 7.26 9.79003 7.32C9.37764 7.41085 8.94708 7.36885 8.56003 7.2C8.45263 7.15562 8.35684 7.0872 8.28003 7C8.17745 6.88748 8.08383 6.76712 8.00003 6.64C7.95965 6.5663 7.89268 6.51078 7.81278 6.48477C7.73287 6.45875 7.64605 6.4642 7.57003 6.5C7.49622 6.54024 7.44122 6.60789 7.41689 6.68835C7.39257 6.76882 7.40088 6.85562 7.44003 6.93C7.522 7.13799 7.63311 7.33327 7.77003 7.51C7.87859 7.6458 8.01069 7.76096 8.16003 7.85C8.26746 7.91242 8.38149 7.96273 8.50003 8C8.46492 8.05835 8.44117 8.12282 8.43003 8.19C8.42018 8.25965 8.42018 8.33035 8.43003 8.4V8.91C8.40483 8.98957 8.41227 9.07588 8.45072 9.14996C8.48916 9.22403 8.55546 9.27981 8.63503 9.305C8.71459 9.3302 8.80091 9.32275 8.87498 9.28431C8.94906 9.24586 9.00483 9.17957 9.03003 9.1C9.14882 8.95901 9.25585 8.8085 9.35003 8.65C9.39186 8.58932 9.42235 8.52156 9.44003 8.45C9.45489 8.38079 9.45489 8.30921 9.44003 8.24C9.711 8.26424 9.98409 8.24738 10.25 8.19C10.5555 8.13606 10.8335 7.98008 11.0388 7.74756C11.2441 7.51505 11.3644 7.21976 11.38 6.91C11.4 6.72217 11.376 6.53227 11.3101 6.35527C11.2441 6.17827 11.138 6.019 11 5.89Z" fill="black"/>
<path fill-rule="evenodd" clip-rule="evenodd" d="M10.28 15.63C10.5846 15.5782 10.8625 15.4241 11.0679 15.1933C11.2733 14.9625 11.3939 14.6686 11.41 14.36C11.4226 14.1721 11.3912 13.9839 11.3183 13.8103C11.2454 13.6367 11.133 13.4825 10.99 13.36C10.5612 13.0759 10.0774 12.8851 9.57 12.8C9.41177 12.762 9.25769 12.7084 9.11 12.64C9.04 12.64 8.97 12.56 8.95 12.47C8.87 12.12 9.1 11.94 9.4 11.89C9.83812 11.85 10.2796 11.9116 10.69 12.07C10.722 12.0897 10.7576 12.1027 10.7948 12.1083C10.8319 12.114 10.8698 12.112 10.9062 12.1027C10.9426 12.0934 10.9767 12.0768 11.0066 12.054C11.0365 12.0312 11.0614 12.0026 11.08 11.97C11.1141 11.9057 11.1227 11.8309 11.1042 11.7605C11.0856 11.6901 11.0413 11.6292 10.98 11.59C10.7898 11.4769 10.5888 11.3831 10.38 11.31C10.4168 11.2514 10.4438 11.1872 10.46 11.12V10.91V10.4C10.485 10.3191 10.477 10.2316 10.4376 10.1566C10.3983 10.0816 10.3308 10.0253 10.25 10C10.2106 9.98774 10.1692 9.98346 10.1281 9.98741C10.0871 9.99137 10.0472 10.0035 10.0109 10.023C9.97455 10.0426 9.9425 10.0692 9.91659 10.1013C9.89068 10.1334 9.87145 10.1704 9.86 10.21C9.74452 10.35 9.63766 10.497 9.54 10.65C9.50906 10.7149 9.48234 10.7817 9.46 10.85C9.44597 10.9227 9.44597 10.9973 9.46 11.07C9.45519 11.1099 9.45519 11.1501 9.46 11.19C9.28486 11.1884 9.11019 11.2086 8.94 11.25C8.63885 11.313 8.37338 11.4892 8.19844 11.7423C8.02351 11.9954 7.95247 12.306 8 12.61C8.01522 12.79 8.07188 12.964 8.16557 13.1184C8.25925 13.2728 8.38741 13.4034 8.54 13.5C8.96773 13.7294 9.42552 13.8977 9.9 14C10.12 14.06 10.36 14.09 10.36 14.35C10.36 14.61 10.08 14.76 9.78 14.82C9.36762 14.9109 8.93705 14.8688 8.55 14.7C8.44369 14.6492 8.34852 14.5778 8.27 14.49C8.17045 14.3739 8.08018 14.2502 8 14.12C7.95912 14.0577 7.8978 14.0117 7.82661 13.9898C7.75542 13.9679 7.67882 13.9715 7.61 14C7.5362 14.0402 7.48119 14.1079 7.45687 14.1884C7.43254 14.2688 7.44085 14.3556 7.48 14.43C7.5664 14.6358 7.6772 14.8306 7.81 15.01C7.91857 15.1458 8.05067 15.261 8.2 15.35C8.29475 15.4099 8.39525 15.4601 8.5 15.5C8.4649 15.5584 8.44115 15.6228 8.43 15.69C8.42016 15.7597 8.42016 15.8303 8.43 15.9V16.41C8.40481 16.4896 8.41225 16.5759 8.4507 16.65C8.48914 16.724 8.55544 16.7798 8.635 16.805C8.71457 16.8302 8.80088 16.8228 8.87496 16.7843C8.94904 16.7459 9.00481 16.6796 9.03 16.6C9.1488 16.459 9.25583 16.3085 9.35 16.15C9.39184 16.0893 9.42233 16.0216 9.44 15.95C9.45429 15.8807 9.45429 15.8093 9.44 15.74C9.72405 15.7478 10.0075 15.7106 10.28 15.63Z" fill="black"/>
<path fill-rule="evenodd" clip-rule="evenodd" d="M16.36 6.7C16.386 6.62169 16.3808 6.53636 16.3454 6.46183C16.31 6.38729 16.2471 6.32932 16.17 6.3C15.7773 6.09468 15.3559 5.94972 14.92 5.87C14.736 5.83031 14.5483 5.8102 14.36 5.81C14.177 5.7951 13.993 5.7951 13.81 5.81C13.3961 5.90417 12.9887 6.02441 12.59 6.17C12.5544 6.17488 12.5201 6.18682 12.4891 6.20513C12.4582 6.22344 12.4312 6.24775 12.4098 6.27662C12.3884 6.3055 12.3729 6.33837 12.3644 6.37329C12.3558 6.40821 12.3543 6.44449 12.36 6.48C12.37 6.55262 12.408 6.61843 12.466 6.66331C12.5239 6.70818 12.5972 6.72854 12.67 6.72C13.13 6.72 13.57 6.82 14.03 6.83H14.81C15.208 6.81661 15.6063 6.84004 16 6.9C16.0742 6.9189 16.1528 6.90871 16.2197 6.87153C16.2867 6.83435 16.3368 6.77298 16.36 6.7Z" fill="black"/>
<path fill-rule="evenodd" clip-rule="evenodd" d="M14.67 13.33C14.4861 13.2898 14.2983 13.2697 14.11 13.27C13.927 13.2555 13.7431 13.2555 13.5601 13.27C13.1495 13.3642 12.7453 13.4844 12.3501 13.63C12.285 13.6478 12.2286 13.6885 12.1912 13.7447C12.1537 13.8008 12.1378 13.8685 12.1463 13.9354C12.1549 14.0023 12.1872 14.0639 12.2375 14.1088C12.2878 14.1537 12.3526 14.179 12.42 14.18C12.88 14.18 13.32 14.28 13.79 14.29H14.5601C14.9459 14.2551 15.3342 14.2551 15.72 14.29C15.7996 14.3155 15.886 14.3088 15.9608 14.2715C16.0355 14.2341 16.0927 14.169 16.1201 14.09C16.1341 14.0507 16.14 14.0089 16.1374 13.9672C16.1349 13.9255 16.124 13.8847 16.1053 13.8474C16.0866 13.81 16.0606 13.7768 16.0287 13.7498C15.9969 13.7227 15.9599 13.7024 15.92 13.69C15.524 13.5075 15.1025 13.3861 14.67 13.33Z" fill="black"/>
<path fill-rule="evenodd" clip-rule="evenodd" d="M5.17002 15.58C5.17002 16.43 5.24002 17.01 5.27002 17.2C5.27479 17.2366 5.28703 17.2719 5.30598 17.3036C5.32493 17.3353 5.35018 17.3628 5.38017 17.3844C5.41017 17.4059 5.44427 17.4211 5.48036 17.4289C5.51646 17.4368 5.55378 17.4372 5.59002 17.43C5.66279 17.4177 5.72778 17.3772 5.77085 17.3173C5.81392 17.2574 5.83159 17.1829 5.82002 17.11C5.69002 16.26 5.77002 6.72 5.73002 2.86V1.43C5.95002 1.38 6.39002 1.35 6.73002 1.3C8.89197 1.07071 11.0681 1.00386 13.24 1.1C14.6633 1.10515 16.0818 1.26611 17.47 1.58C17.6455 1.62192 17.814 1.6893 17.97 1.78C18.0015 1.79765 18.0316 1.81771 18.06 1.84C18.46 3.28 17.63 9.77 17.45 14C17.3786 15.0533 17.402 16.1109 17.52 17.16C17.5261 17.2009 17.5403 17.2403 17.5618 17.2756C17.5833 17.311 17.6116 17.3417 17.6452 17.3659C17.6787 17.3902 17.7168 17.4074 17.7571 17.4167C17.7975 17.426 17.8392 17.4271 17.88 17.42C17.9216 17.4153 17.9617 17.402 17.9978 17.3809C18.0339 17.3598 18.0652 17.3314 18.0897 17.2975C18.1142 17.2636 18.1313 17.225 18.14 17.1841C18.1486 17.1432 18.1486 17.1009 18.14 17.06C17.78 14.65 19 6.79 19.14 3.22C19.1701 2.65293 19.123 2.08439 19 1.53C18.89 1.16 18.38 0.76 17.48 0.53C15.6446 0.152774 13.7737 -0.0249254 11.9 4.67524e-07C9.78973 -0.0665078 7.67827 0.0876626 5.60002 0.46C5.33477 0.513102 5.08512 0.62596 4.87002 0.79C4.78591 0.862858 4.72295 0.957011 4.68776 1.06258C4.65257 1.16815 4.64644 1.28125 4.67002 1.39C4.80002 2 5.00002 11.66 5.17002 15.58Z" fill="black"/>
<path fill-rule="evenodd" clip-rule="evenodd" d="M23 10.06C22.9536 9.19136 22.8162 8.32998 22.59 7.49C22.4961 7.04408 22.2654 6.63858 21.93 6.33C21.7397 6.20931 21.5142 6.15645 21.29 6.18C20.96 6.18 20.44 6.28 19.53 6.35C19.4558 6.35 19.3845 6.3795 19.332 6.43201C19.2795 6.48452 19.25 6.55574 19.25 6.63C19.2551 6.7034 19.2879 6.77212 19.3417 6.82225C19.3956 6.87238 19.4665 6.90018 19.54 6.9H21.09C21.43 6.9 21.41 6.9 21.49 6.96C21.57 7.02 21.68 7.34 21.75 7.71C21.8759 8.50731 21.9428 9.31284 21.95 10.12C21.95 11.12 22.02 12.31 22.03 13.44V18.44V18.5L13.31 18.66C11.98 18.66 10.66 18.79 9.31002 18.83C8.44394 18.875 7.5761 18.875 6.71002 18.83L3.07002 18.7C2.84532 18.6864 2.62161 18.6597 2.40002 18.62C2.28524 18.6077 2.17873 18.5544 2.10002 18.47C2.02471 18.3253 1.99014 18.1628 2.00002 18C2.00002 17.57 2.06002 17.1 2.00002 16.79L2.05002 11.36C2.05002 10.6 1.99002 9.57 2.00002 8.58C1.98868 7.98062 2.0322 7.38145 2.13002 6.79C2.15263 6.67323 2.20782 6.56525 2.28922 6.47854C2.37063 6.39182 2.47491 6.32993 2.59002 6.3C2.87996 6.23693 3.18008 6.23693 3.47002 6.3C3.51613 6.31721 3.56587 6.32239 3.61454 6.31507C3.66321 6.30776 3.70921 6.28817 3.74822 6.25816C3.78723 6.22815 3.81796 6.18871 3.83752 6.14355C3.85708 6.09838 3.86482 6.04898 3.86002 6C3.87501 5.92847 3.86144 5.85391 3.8222 5.79225C3.78296 5.73059 3.72117 5.68672 3.65002 5.67C3.17888 5.5592 2.68574 5.58698 2.23002 5.75C2.06075 5.82688 1.91243 5.94332 1.79757 6.0895C1.68271 6.23569 1.60467 6.40734 1.57002 6.59C1.43936 7.21537 1.36573 7.85132 1.35002 8.49C1.30002 9.49 1.35002 10.49 1.30002 11.28L1.00002 16.74C1.00002 17.12 0.890022 17.74 0.930022 18.22C0.947928 18.5123 1.03351 18.7964 1.18002 19.05C1.31952 19.2555 1.5134 19.4183 1.74002 19.52C2.14284 19.6716 2.56963 19.7495 3.00002 19.75C3.37002 19.75 3.74002 19.81 4.11002 19.83C4.95002 19.83 5.78002 19.83 6.62002 19.88H8.62002L10 19.78C9.93002 19.92 9.86002 20.05 9.80002 20.19C9.48002 20.89 9.19002 21.6 8.87002 22.3C8.87002 22.39 8.53002 22.93 8.46002 23.17C8.41202 23.3093 8.41202 23.4607 8.46002 23.6C8.49255 23.6721 8.5395 23.7368 8.59797 23.7902C8.65644 23.8435 8.7252 23.8843 8.80002 23.91C8.92518 23.9409 9.05207 23.9643 9.18002 23.98C9.36322 23.99 9.54682 23.99 9.73002 23.98C9.99002 23.98 10.24 23.98 10.49 23.91C11.396 23.7459 12.311 23.6357 13.23 23.58C15.35 23.47 15.71 23.98 15.23 21.85C15.1773 21.6129 15.1105 21.3792 15.03 21.15C14.9513 20.9241 14.8578 20.7036 14.75 20.49C14.5776 20.1469 14.3873 19.8132 14.18 19.49L22 19.12C22.2377 18.9324 22.4525 18.7176 22.64 18.48C22.77 17.33 23.03 14.94 23.07 12.6C23.05 11.72 23 10.85 23 10.06ZM13.86 21.06C13.97 21.41 14.11 21.75 14.24 22.06L14.57 22.83C13.9632 22.7486 13.3522 22.7018 12.74 22.69C11.95 22.69 11.16 22.69 10.36 22.8H9.61002C9.69002 22.67 9.76002 22.56 9.77002 22.53C10 21.8 10.18 21.05 10.42 20.32C10.4934 20.0933 10.5734 19.8633 10.66 19.63C11.53 19.56 12.4 19.49 13.28 19.44H13.44C13.54 20.05 13.66 20.57 13.83 21.1L13.86 21.06Z" fill="black"/>
</g>
<defs>
<clipPath id="clip0_1049_7814">
<rect width="24" height="24" fill="white"/>
</clipPath>
</defs>
</svg>
