<svg width="24" height="24" viewBox="0 0 24 24" fill="none" xmlns="http://www.w3.org/2000/svg">
<g clip-path="url(#clip0_1049_7943)">
<path fill-rule="evenodd" clip-rule="evenodd" d="M19.8 8.25C20.8 6.3 22.66 2.59 20.49 2.3C18.7589 2.04221 17.0101 1.92183 15.26 1.94C15.308 1.64244 15.3315 1.34141 15.33 1.04C15.27 -0.26 13.51 -4.8615e-07 13 -4.8615e-07C12.4981 -0.0238598 11.9954 0.0301123 11.51 0.16C8.14 0.89 8.37 0.73 7.28 1C6.38223 1.21616 5.51776 1.55253 4.71 2C4.52831 2.13623 4.38939 2.32161 4.30966 2.53425C4.22992 2.74688 4.21269 2.97789 4.26 3.2C4.26 3.44 5 6.69 5.15 7.27C5.41 8.33 5.52 8.5 6.06 10.69C6.13 10.98 6.14 11.49 6.57 11.53C6.60943 11.5341 6.64929 11.5304 6.68728 11.5191C6.72527 11.5077 6.76063 11.4889 6.79131 11.4638C6.822 11.4387 6.8474 11.4078 6.86606 11.3728C6.88472 11.3378 6.89625 11.2995 6.9 11.26C6.9 10.93 6.39 9.67 5.78 5.57C7 5.86 9.29 3.58 9 1.75C12 1.18 11.77 0.9 13 0.86C13.39 0.86 14.35 0.64 14.59 0.96C14.69 1.09 14.59 1.79 14.64 1.96C14.12 1.96 11.4 2.12 11.04 2.51C10.6956 3.07906 10.5221 3.7351 10.54 4.4C10.48 4.86 9.9 9.83 9.98 10.27C9.98063 10.3167 9.99149 10.3628 10.0118 10.4049C10.0322 10.447 10.0615 10.4841 10.0977 10.5136C10.1339 10.5432 10.1762 10.5644 10.2215 10.5759C10.2668 10.5874 10.3141 10.5888 10.36 10.58C10.52 10.58 11.21 6 11.22 5.92C11.6068 6.02549 12.0133 6.03603 12.405 5.95072C12.7968 5.86541 13.1621 5.68678 13.47 5.43C13.8556 5.16349 14.175 4.81224 14.4038 4.40316C14.6326 3.99408 14.7647 3.53804 14.79 3.07H17.27C17.175 3.45613 17.1668 3.85852 17.2459 4.24821C17.3251 4.6379 17.4896 5.0052 17.7277 5.32366C17.9659 5.64213 18.2717 5.90383 18.6231 6.08995C18.9745 6.27606 19.3628 6.38195 19.76 6.4C19.56 6.9 19.34 7.4 19.11 7.91L18.81 8.74C18.68 9.14 19.3 9.47 19.47 9.08C19.52 8.94 19.43 9.17 19.8 8.25ZM5.68 4.89C5.58 4.19 5.39 3.26 5.39 3.24C5.3 2.52 5.54 2.8 6.21 2.52C6.85476 2.25315 7.52483 2.05213 8.21 1.92C8.07 2.7 6.46 4.77 5.68 4.89ZM12.9 4.45C11.64 5.45 11.9 5.15 11.34 5.23C11.4226 4.61067 11.5394 3.99639 11.69 3.39C11.78 3.39 12.69 3.2 14.08 3.11C13.92 3.67 13.2 4.2 12.9 4.45ZM18.81 4.82C17.81 3.82 17.98 3.23 17.96 3.14C18.77 3.14 19.58 3.25 20.37 3.33C20.79 3.33 20.2 5.22 20.06 5.63C19.572 5.49042 19.1368 5.20839 18.81 4.82Z" fill="black"/>
<path fill-rule="evenodd" clip-rule="evenodd" d="M22.54 14.8C22.28 13.67 21.59 12.8 20.43 12.93C20.29 12.69 20.85 10.53 19.17 9.78C18.9591 9.67705 18.7328 9.60948 18.5 9.58C18.0182 9.5102 17.5272 9.60912 17.11 9.86C16.58 10.11 14.34 10.78 14.34 10.8C13.87 10.92 9.33999 11.73 8.06999 11.8C6.60999 11.85 4.18999 11.65 5.12999 10.51C5.1827 10.4528 5.21196 10.3778 5.21196 10.3C5.21196 10.2222 5.1827 10.1472 5.12999 10.09C4.73999 9.76 4.26999 10.63 4.29999 11.15C4.36999 12.44 6.80999 12.81 8.09999 12.86C12.3 13.01 17.44 10.78 17.68 10.3C19.18 10.55 19.51 11.72 19.75 13.3C19.22 14.05 18.61 13.67 16.94 14.03C15.69 14.3 14.94 14.91 15.01 16.19C15.02 16.655 15.1666 17.1069 15.4315 17.4892C15.6965 17.8715 16.0681 18.1674 16.5 18.34C16.7941 18.4356 17.0949 18.5091 17.4 18.56C18.2355 18.7432 19.1024 18.7261 19.93 18.51C19.83 21.29 19.52 21.28 17.93 21.82C15.36 22.66 7.16999 23.55 4.92999 22.16C3.54999 21.4 3.32999 20 2.99999 18.57C2.54334 16.7027 2.28855 14.7917 2.23999 12.87C2.18999 9.8 2.39999 9.77 4.23999 8.44C4.30054 8.38392 4.33863 8.30774 4.34715 8.22566C4.35568 8.14358 4.33405 8.06119 4.28632 7.99387C4.23859 7.92656 4.168 7.8789 4.08771 7.85978C4.00743 7.84067 3.92294 7.85141 3.84999 7.89C1.84999 9.28 1.48999 9.5 1.42999 12.89C1.40215 14.8717 1.59331 16.8503 1.99999 18.79C2.36999 20.58 2.61999 22.12 4.23999 23.13C7.42999 25.13 18.7 23.38 20.03 21.46C20.4812 20.4753 20.6574 19.3868 20.54 18.31C21.2429 18.0677 21.8335 17.5779 22.2015 16.9319C22.5696 16.286 22.6899 15.5282 22.54 14.8ZM17.63 17.47C17.2378 17.434 16.8586 17.311 16.52 17.11C15.99 16.68 15.79 15.6 16.38 15.22C17.78 14.33 19.6 15.08 20.38 13.6C20.47 13.6 21.54 13.29 21.79 14.95C22.05 17 19.59 17.93 17.63 17.47Z" fill="black"/>
<path fill-rule="evenodd" clip-rule="evenodd" d="M15.87 9.2C16.229 9.05659 16.6136 8.98851 17 9C17.09 9.51 18 9.31 17.93 8.91C17.84 8.19 17.41 7.99 16.67 7.91C16.3036 7.87776 15.9351 7.94096 15.6004 8.09342C15.2657 8.24588 14.9762 8.48242 14.76 8.78C14.5634 9.12296 14.4697 9.51523 14.49 9.91C14.4 10.3 15.3 10.21 15.31 9.85C15.5 9.4 15.6 9.32 15.87 9.2Z" fill="black"/>
</g>
<defs>
<clipPath id="clip0_1049_7943">
<rect width="24" height="24" fill="white"/>
</clipPath>
</defs>
</svg>
