<svg width="24" height="24" viewBox="0 0 24 24" fill="none" xmlns="http://www.w3.org/2000/svg">
<g clip-path="url(#clip0_1049_7892)">
<path fill-rule="evenodd" clip-rule="evenodd" d="M20.89 12.16C20.935 12.1566 20.9788 12.1437 21.0185 12.1222C21.0582 12.1006 21.0929 12.0709 21.1202 12.035C21.1476 11.9992 21.1671 11.9579 21.1774 11.9139C21.1877 11.87 21.1886 11.8243 21.18 11.78C21.1228 11.1028 20.9989 10.4329 20.81 9.78C20.7239 9.51349 20.6203 9.25292 20.5 9C20.3669 8.73582 20.22 8.4788 20.06 8.23C18.06 5.3 18.76 6.93 16.29 7.57C15.2633 7.80212 14.2124 7.90956 13.16 7.89C12.1139 7.92543 11.0746 8.07294 10.06 8.33C9.05682 8.58004 8.09634 8.97772 7.21001 9.51C6.91342 9.68275 6.64666 9.90224 6.42001 10.16C6.34948 10.2363 6.29534 10.3262 6.26094 10.4243C6.22654 10.5223 6.21261 10.6264 6.22001 10.73C6.25602 10.8756 6.32826 11.0098 6.43001 11.12C6.60001 11.29 6.84001 11.48 6.93001 11.57C6.99304 11.6229 7.07271 11.6519 7.15501 11.6519C7.2373 11.6519 7.31697 11.6229 7.38001 11.57C7.40791 11.5447 7.43022 11.5138 7.44548 11.4794C7.46074 11.4449 7.46862 11.4077 7.46862 11.37C7.46862 11.3323 7.46074 11.2951 7.44548 11.2606C7.43022 11.2262 7.40791 11.1953 7.38001 11.17L7.00001 10.67V10.62C7.07903 10.5369 7.17004 10.4661 7.27001 10.41C7.43001 10.31 7.58001 10.23 7.68001 10.18C8.54615 9.79626 9.45148 9.50789 10.38 9.32C11.3131 9.10358 12.2634 8.96973 13.22 8.92C12.6226 9.07836 12.1122 9.46661 11.8 10C11.6573 10.2256 11.5756 10.4845 11.5631 10.7512C11.5506 11.018 11.6077 11.2833 11.7287 11.5213C11.8497 11.7593 12.0305 11.9618 12.2534 12.1088C12.4763 12.2559 12.7336 12.3424 13 12.36C13.3 12.36 16.12 12.52 15.47 10.14C15.3609 9.71473 15.0923 9.34773 14.72 9.11503C14.3477 8.88233 13.9001 8.80176 13.47 8.89C14.5291 8.81936 15.5763 8.62469 16.59 8.31C17.2401 8.07617 17.848 7.73845 18.39 7.31C18.69 7.88 18.94 8.44 19.2 8.98C19.46 9.52 19.66 9.87 19.87 10.34C20.08 10.81 20.3 11.34 20.49 11.87C20.5048 11.9614 20.5551 12.0433 20.6301 12.0976C20.7051 12.152 20.7985 12.1744 20.89 12.16ZM14.48 10.16C14.48 10.27 15.13 11.87 13.32 11.55C13.1935 11.5336 13.0731 11.4856 12.97 11.4105C12.8669 11.3353 12.7843 11.2354 12.73 11.12C12.6795 10.9781 12.6658 10.8256 12.6903 10.6769C12.7148 10.5283 12.7766 10.3882 12.87 10.27C13.0175 9.97926 13.272 9.75702 13.58 9.65C13.6733 9.62293 13.771 9.615 13.8674 9.6267C13.9638 9.63839 14.0568 9.66946 14.1409 9.71803C14.225 9.76661 14.2984 9.83169 14.3567 9.90937C14.4149 9.98704 14.4569 10.0757 14.48 10.17V10.16Z" fill="black"/>
<path fill-rule="evenodd" clip-rule="evenodd" d="M8.46001 14.82C8.3855 14.8622 8.33029 14.9316 8.30604 15.0137C8.28178 15.0958 8.29038 15.1841 8.33001 15.26L8.47001 15.55C8.61187 15.897 8.78246 16.2315 8.98001 16.55C9.02281 16.6065 9.07694 16.6535 9.13893 16.688C9.20091 16.7224 9.2694 16.7435 9.34001 16.75C9.56445 16.7609 9.78711 16.7052 9.98001 16.59C10.2811 16.4078 10.5685 16.2039 10.84 15.98C11.2115 15.692 11.5988 15.4249 12 15.18C12.3967 14.9301 12.8074 14.7031 13.23 14.5C13.8801 14.1978 14.5837 14.0279 15.3 14C16.49 13.89 17.71 13.93 18.87 13.72C19.3954 13.6371 19.9068 13.4823 20.39 13.26C20.4421 13.247 20.4908 13.2228 20.5326 13.1891C20.5744 13.1554 20.6084 13.113 20.6322 13.0649C20.656 13.0168 20.669 12.964 20.6703 12.9103C20.6717 12.8566 20.6613 12.8033 20.64 12.754C20.6187 12.7047 20.5869 12.6607 20.5468 12.6249C20.5067 12.5892 20.4594 12.5626 20.408 12.547C20.3566 12.5314 20.3024 12.5271 20.2493 12.5346C20.1961 12.542 20.1451 12.5609 20.1 12.59C19.0135 12.9081 17.8726 12.9967 16.75 12.85C15.9269 12.7913 15.1001 12.808 14.28 12.9C13.7299 12.9861 13.1967 13.1582 12.7 13.41C12.3355 13.6007 11.9817 13.811 11.64 14.04C11.1376 14.3933 10.6629 14.7845 10.22 15.21C10.11 15.32 9.93001 15.51 9.73001 15.68C9.6721 15.7249 9.61853 15.7751 9.57001 15.83C9.42787 15.6077 9.26005 15.403 9.07001 15.22L8.89001 14.93C8.84647 14.8596 8.77736 14.8088 8.69718 14.7883C8.617 14.7678 8.532 14.7792 8.46001 14.82Z" fill="black"/>
<path fill-rule="evenodd" clip-rule="evenodd" d="M2.79 16.32C3.09858 16.0961 3.38944 15.8487 3.66 15.58C4.04 15.21 4.39 14.8 4.74 14.39C5.23067 13.72 5.87552 13.178 6.62 12.81C6.66053 12.7996 6.69855 12.7812 6.73176 12.7557C6.76497 12.7303 6.79269 12.6984 6.81325 12.662C6.8338 12.6255 6.84677 12.5853 6.85137 12.5437C6.85596 12.5021 6.8521 12.46 6.84 12.42C6.81668 12.3396 6.76279 12.2716 6.68988 12.2304C6.61698 12.1893 6.53086 12.1784 6.45 12.2C5.8933 12.3098 5.3634 12.5272 4.89 12.84C4.53543 13.0753 4.20096 13.3395 3.89 13.63C3.59 13.91 3.31 14.22 3.03 14.52L2.51 15C1.984 15.724 1.21281 16.2322 0.339996 16.43C0.243599 16.4377 0.154041 16.4828 0.0904943 16.5557C0.0269476 16.6286 -0.00553653 16.7235 -3.73222e-06 16.82C0.00255086 16.8673 0.0144153 16.9136 0.0349094 16.9563C0.0554036 16.999 0.0841246 17.0373 0.119426 17.0689C0.154728 17.1005 0.195916 17.1248 0.24063 17.1404C0.285344 17.156 0.332704 17.1627 0.379996 17.16C1.2535 17.1507 2.09994 16.8556 2.79 16.32Z" fill="black"/>
<path fill-rule="evenodd" clip-rule="evenodd" d="M3.64 18.36C4.01728 17.9964 4.37447 17.6125 4.71 17.21C5.02148 16.8145 5.35536 16.4373 5.71 16.08C6.00642 15.7815 6.34299 15.5257 6.71 15.32C6.78651 15.2851 6.8462 15.2214 6.87614 15.1428C6.90608 15.0642 6.90388 14.977 6.87 14.9C6.85362 14.8612 6.82976 14.8261 6.79978 14.7965C6.76979 14.767 6.73428 14.7437 6.69526 14.7279C6.65625 14.7121 6.6145 14.7041 6.57242 14.7045C6.53033 14.7049 6.48873 14.7135 6.45 14.73C5.84119 14.9259 5.27468 15.2346 4.78 15.64C4.42631 15.9238 4.09221 16.2311 3.78 16.56C3.49 16.87 3.22 17.22 2.92 17.56C2.65025 17.8931 2.33752 18.1891 1.99 18.44C1.66196 18.6765 1.27362 18.8152 0.869996 18.84C0.775138 18.8371 0.682802 18.8708 0.612077 18.9341C0.541353 18.9974 0.497647 19.0854 0.489996 19.18C0.487295 19.2273 0.493955 19.2747 0.509592 19.3194C0.52523 19.3641 0.549538 19.4053 0.581124 19.4406C0.612709 19.4759 0.650951 19.5046 0.693658 19.5251C0.736364 19.5456 0.782695 19.5574 0.829996 19.56C1.22837 19.5841 1.62728 19.5227 2 19.38C2.60642 19.1471 3.16299 18.801 3.64 18.36Z" fill="black"/>
<path fill-rule="evenodd" clip-rule="evenodd" d="M8.35 16.79C8.33362 16.7512 8.30976 16.7161 8.27978 16.6865C8.2498 16.657 8.21428 16.6337 8.17527 16.6179C8.13625 16.6021 8.09451 16.5941 8.05242 16.5945C8.01033 16.5949 7.96873 16.6035 7.93 16.62C7.32463 16.8239 6.75949 17.1318 6.26 17.53C5.90631 17.8138 5.57222 18.1211 5.26 18.45C4.96 18.77 4.7 19.11 4.39 19.45C4.12903 19.7877 3.81892 20.0843 3.47 20.33C3.14411 20.5705 2.75454 20.7097 2.35 20.73C2.30271 20.7273 2.25534 20.734 2.21063 20.7496C2.16592 20.7652 2.12473 20.7895 2.08943 20.8211C2.05413 20.8527 2.0254 20.891 2.00491 20.9337C1.98442 20.9764 1.97255 21.0227 1.97 21.07C1.96446 21.1665 1.99695 21.2614 2.0605 21.3343C2.12404 21.4072 2.2136 21.4523 2.31 21.46C2.75318 21.5138 3.20279 21.4589 3.62 21.3C4.21906 21.0735 4.76903 20.734 5.24 20.3C5.61 19.92 5.98 19.54 6.31 19.14C6.61841 18.742 6.95245 18.3645 7.31 18.01C7.6021 17.7066 7.93944 17.4502 8.31 17.25C8.34358 17.2229 8.37135 17.1894 8.39164 17.1513C8.41192 17.1133 8.42431 17.0715 8.42804 17.0285C8.43178 16.9856 8.42679 16.9423 8.41338 16.9013C8.39997 16.8603 8.37841 16.8225 8.35 16.79Z" fill="black"/>
<path fill-rule="evenodd" clip-rule="evenodd" d="M4.44999 11.88C4.46637 11.9188 4.49023 11.9539 4.52021 11.9835C4.5502 12.013 4.58571 12.0363 4.62472 12.0521C4.66374 12.0679 4.70548 12.0759 4.74757 12.0755C4.78966 12.0751 4.83126 12.0665 4.86999 12.05C4.94122 12.0099 4.99437 11.944 5.01854 11.8659C5.04272 11.7878 5.03608 11.7034 4.99999 11.63C4.99999 11.5 4.69999 11.05 4.53999 10.63C4.45999 10.43 4.36999 10.26 4.39999 10.16C4.43655 10.0646 4.49475 9.97906 4.56999 9.91C4.72951 9.73921 4.89986 9.57888 5.07999 9.43C5.49978 9.0577 5.95152 8.72307 6.42999 8.43C6.92608 8.12387 7.45215 7.86921 7.99999 7.67C9.1751 7.22502 10.4074 6.94894 11.66 6.85C12.55 6.74 13.43 6.62 14.3 6.43C14.8613 6.30311 15.4127 6.13601 15.95 5.93C16.6362 5.65056 17.2819 5.28062 17.87 4.83C18.3751 4.42822 18.8345 3.97215 19.24 3.47C19.46 3.84 19.69 4.21 19.88 4.59C20.07 4.97 20.29 5.5 20.49 5.97C20.69 6.44 20.9 6.89 21.1 7.35C21.75 8.75 22.41 10.15 23.1 11.52C23.1177 11.564 23.1439 11.6041 23.1772 11.6379C23.2104 11.6718 23.2499 11.6988 23.2936 11.7173C23.3372 11.7359 23.3841 11.7457 23.4315 11.7462C23.4789 11.7466 23.526 11.7377 23.57 11.72C23.614 11.7023 23.6541 11.6761 23.6879 11.6428C23.7218 11.6096 23.7488 11.5701 23.7673 11.5264C23.7859 11.4828 23.7957 11.4359 23.7962 11.3885C23.7966 11.341 23.7877 11.294 23.77 11.25C23.31 10.16 23 9 22.6 8C22.3398 7.26256 22.036 6.54128 21.69 5.84C19.02 0.720001 19.25 2.84 17.32 4.19C16.7695 4.53246 16.1782 4.80458 15.56 5C14.6757 5.25687 13.7678 5.42437 12.85 5.5C11.85 5.61 10.92 5.68 9.97999 5.85C9.12288 5.99908 8.28686 6.2509 7.48999 6.6C6.92528 6.88027 6.38938 7.2152 5.88999 7.6C5.38656 7.95857 4.92084 8.36733 4.49999 8.82C4.27777 9.03695 4.07685 9.27471 3.89999 9.53C3.78498 9.6674 3.709 9.83318 3.67999 10.01C3.66383 10.2667 3.71922 10.5229 3.83999 10.75C3.99999 11.2 4.37999 11.74 4.44999 11.88Z" fill="black"/>
<path fill-rule="evenodd" clip-rule="evenodd" d="M23.74 12.31C23.6472 12.2851 23.5484 12.2973 23.4644 12.3439C23.3804 12.3906 23.3179 12.4681 23.29 12.56C23.2332 12.7495 23.1596 12.9336 23.07 13.11C22.9892 13.2812 22.8885 13.4423 22.77 13.59C22.2112 14.2754 21.4221 14.7339 20.55 14.88C19.4572 15.0101 18.3528 15.0101 17.26 14.88C16.0373 14.7679 14.8046 14.911 13.64 15.3C12.9864 15.5708 12.3791 15.9419 11.84 16.4C11.0863 17.0679 10.4149 17.8232 9.83999 18.65L8.84999 20V20.1L8.79999 20.05L8.13999 19C8.09376 18.9357 8.02593 18.8901 7.9489 18.8717C7.87187 18.8532 7.79077 18.8631 7.72041 18.8995C7.65006 18.9359 7.59514 18.9964 7.56568 19.0699C7.53623 19.1434 7.53421 19.2251 7.55999 19.3L8.11999 20.46C8.22304 20.6527 8.33654 20.8397 8.45999 21.02C8.51709 21.1056 8.60238 21.1685 8.70104 21.1977C8.79969 21.227 8.90548 21.2207 8.99999 21.18C9.07945 21.132 9.15042 21.0712 9.20999 21C9.32999 20.86 9.43999 20.64 9.52999 20.53L10.53 19.26C11.0307 18.6693 11.5792 18.1207 12.17 17.62C12.7286 17.13 13.3637 16.7348 14.05 16.45C15.059 16.1229 16.1225 15.9972 17.18 16.08C18.3654 16.1538 19.5554 16.0731 20.72 15.84C21.79 15.5999 22.7337 14.9732 23.37 14.08C23.5118 13.8814 23.6293 13.6665 23.72 13.44C23.8115 13.222 23.8884 12.9982 23.95 12.77C23.9799 12.681 23.9748 12.5839 23.9358 12.4985C23.8968 12.4131 23.8268 12.3457 23.74 12.31Z" fill="black"/>
</g>
<defs>
<clipPath id="clip0_1049_7892">
<rect width="24" height="24" fill="white"/>
</clipPath>
</defs>
</svg>
