<svg width="24" height="24" viewBox="0 0 24 24" fill="none" xmlns="http://www.w3.org/2000/svg">
<g clip-path="url(#clip0_1052_9219)">
<path fill-rule="evenodd" clip-rule="evenodd" d="M0.659985 23.13L7.50999 22.8601C8.42999 22.8601 9.41999 22.8 10.41 22.8C11.92 22.8 13.41 22.8501 14.73 22.8601L23.66 23.1201C23.7511 23.1227 23.8375 23.1607 23.901 23.226C23.9645 23.2914 24 23.3789 24 23.47C24.0001 23.5151 23.9909 23.5597 23.9731 23.6011C23.9553 23.6425 23.9292 23.6798 23.8964 23.7108C23.8636 23.7417 23.8248 23.7656 23.7824 23.7809C23.74 23.7963 23.695 23.8028 23.65 23.8L14.73 24L7.51999 23.91L0.659985 23.73C0.58042 23.73 0.504114 23.6984 0.447853 23.6422C0.391592 23.5859 0.359985 23.5096 0.359985 23.43C0.362488 23.3513 0.394898 23.2764 0.450626 23.2207C0.506354 23.165 0.581214 23.1326 0.659985 23.13Z" fill="black"/>
<path fill-rule="evenodd" clip-rule="evenodd" d="M21.31 15.3801V17.3801C21.31 17.8301 21.24 18.2701 21.21 18.7201C21.18 19.1701 21.1 19.8201 21.06 20.3801C21.04 20.7398 21.04 21.1003 21.06 21.4601C21.0655 21.5513 21.0352 21.6411 20.9754 21.7102C20.9156 21.7794 20.8311 21.8224 20.74 21.8301C20.6958 21.8342 20.6513 21.8293 20.6091 21.8158C20.5668 21.8023 20.5277 21.7805 20.4941 21.7515C20.4605 21.7226 20.4331 21.6872 20.4135 21.6474C20.3939 21.6077 20.3825 21.5643 20.38 21.5201C20.3269 21.1421 20.2935 20.7615 20.28 20.3801C20.28 19.8101 20.28 19.2501 20.22 18.6901C20.16 18.1301 20.22 17.8001 20.22 17.3501C20.22 16.6801 20.22 16.0001 20.31 15.3501C20.38 14.4701 20.48 13.9301 20.58 13.0501C20.5992 12.969 20.6452 12.8969 20.7106 12.8452C20.7759 12.7936 20.8567 12.7655 20.94 12.7655C21.0233 12.7655 21.1041 12.7936 21.1694 12.8452C21.2348 12.8969 21.2808 12.969 21.3 13.0501C21.24 13.9401 21.31 14.4901 21.31 15.3801Z" fill="black"/>
<path fill-rule="evenodd" clip-rule="evenodd" d="M14.52 14.51C14.59 15.02 14.66 15.51 14.69 16.04C14.74 16.79 14.69 17.55 14.77 18.3C14.85 19.05 14.68 19.86 14.64 20.64V21.64C14.647 21.6849 14.6447 21.7308 14.6332 21.7748C14.6216 21.8187 14.6012 21.8599 14.573 21.8955C14.5448 21.9312 14.5096 21.9607 14.4695 21.9821C14.4294 22.0035 14.3853 22.0164 14.34 22.02C14.2513 22.0285 14.1629 22.0017 14.0937 21.9456C14.0245 21.8895 13.9801 21.8085 13.97 21.72C13.91 21.38 13.88 21.04 13.85 20.72C13.79 19.96 13.78 19.19 13.69 18.43C13.6 17.67 13.59 17.16 13.58 16.53C13.57 15.9 13.58 15.27 13.58 14.64L13.64 13.47C13.85 13.12 14.26 13.14 14.32 13.47C14.38 13.8 14.45 14.06 14.52 14.51Z" fill="black"/>
<path fill-rule="evenodd" clip-rule="evenodd" d="M10.78 15.41V19.02C10.78 19.82 10.78 20.62 10.86 21.42C10.8613 21.4594 10.8703 21.4982 10.8866 21.5341C10.9029 21.57 10.9261 21.6023 10.9549 21.6293C10.9837 21.6562 11.0175 21.6772 11.0544 21.691C11.0913 21.7049 11.1306 21.7113 11.17 21.71C11.2098 21.7101 11.2492 21.702 11.2858 21.6862C11.3224 21.6704 11.3553 21.6472 11.3825 21.6181C11.4097 21.589 11.4306 21.5547 11.4439 21.5171C11.4573 21.4796 11.4627 21.4397 11.46 21.4V19.02C11.46 17.82 11.55 16.63 11.61 15.43V14.07C11.5989 13.8846 11.6519 13.701 11.76 13.55C11.8834 13.4508 12.0266 13.3792 12.18 13.34C12.3686 13.2756 12.5628 13.2288 12.76 13.2L15.11 12.88L18 12.69H19.08H20.01H21.73L22.4 12.75C22.4983 12.7613 22.5953 12.7814 22.69 12.81C22.8 13.0448 22.858 13.3007 22.86 13.56V15.24V18.06C22.86 18.82 22.93 19.55 22.95 20.29V21.75C22.9459 21.7947 22.9507 21.8397 22.964 21.8826C22.9774 21.9254 22.9991 21.9652 23.0279 21.9996C23.0568 22.034 23.0921 22.0623 23.1319 22.083C23.1718 22.1036 23.2153 22.1162 23.26 22.12C23.3497 22.1257 23.4381 22.0967 23.507 22.039C23.5759 21.9813 23.6199 21.8993 23.63 21.81C23.68 21.29 23.7 20.81 23.71 20.29V18.05L23.87 15.26C23.9417 14.5758 23.9651 13.8875 23.94 13.2C23.9185 12.8235 23.8015 12.4587 23.6 12.14C23.506 12.0227 23.3906 11.9243 23.26 11.85C23.068 11.7701 22.8662 11.7163 22.66 11.69C22.4 11.69 22.15 11.62 21.89 11.6C21.63 11.58 21.14 11.6 20.77 11.6H20.21V10.38C20.2149 10.1362 20.1811 9.89322 20.11 9.66C20.0523 9.50509 19.9518 9.36981 19.82 9.27C19.7233 9.19478 19.6103 9.14339 19.49 9.12C19.2871 9.10122 19.0829 9.10122 18.88 9.12L17 9H16C15.7574 9.01706 15.5166 9.05385 15.28 9.11C15.1123 9.13992 14.9482 9.18683 14.79 9.25C14.65 9.30318 14.5307 9.39987 14.4497 9.52587C14.3687 9.65187 14.3302 9.80053 14.34 9.95C14.3687 10.162 14.4088 10.3723 14.46 10.58L14.57 11.83C14.33 11.83 14.09 11.83 13.85 11.92C13.44 11.99 13.03 12.08 12.62 12.17C12.3217 12.2307 12.0302 12.3211 11.75 12.44C11.5302 12.5367 11.3276 12.6684 11.15 12.83C10.9196 13.0847 10.7791 13.4078 10.75 13.75C10.7224 14.3034 10.7324 14.858 10.78 15.41ZM15.23 11.74L15.3 10.51V10.13H18.74C19.25 10.13 19.07 9.74 19.25 10.44L19.37 11.49H19.04H17.97L15.23 11.74Z" fill="black"/>
<path fill-rule="evenodd" clip-rule="evenodd" d="M20.57 4.85005L18.83 6.46005C18.7646 6.52418 18.6766 6.5601 18.585 6.5601C18.4934 6.5601 18.4054 6.52418 18.34 6.46005C18.2765 6.39632 18.2408 6.31002 18.2408 6.22005C18.2408 6.13008 18.2765 6.04378 18.34 5.98005L19.81 4.09005L19.93 3.99005L18.22 4.12005C17.67 4.12005 17.11 4.20005 16.55 4.22005C15.55 4.22005 14.65 4.22005 13.71 4.16005C13.6706 4.16276 13.631 4.15767 13.5936 4.14505C13.5561 4.13244 13.5215 4.11255 13.4918 4.08653C13.4621 4.06051 13.4378 4.02888 13.4203 3.99345C13.4028 3.95801 13.3925 3.91948 13.39 3.88005C13.3859 3.84115 13.3896 3.80182 13.4011 3.76443C13.4126 3.72704 13.4315 3.69235 13.4567 3.66245C13.4819 3.63256 13.513 3.60808 13.5479 3.59048C13.5828 3.57288 13.6209 3.56253 13.66 3.56005C14.48 3.41005 15.29 3.23005 16.12 3.12005C16.48 3.12005 16.83 3.05005 17.19 3.04005C17.55 3.03005 17.91 3.04005 18.27 3.04005C18.9 3.04005 19.52 3.12005 20.14 3.20005L19.89 2.95005L18.51 1.07005C18.4813 1.04209 18.4584 1.00867 18.4428 0.971738C18.4272 0.93481 18.4192 0.895133 18.4192 0.855049C18.4192 0.814965 18.4272 0.775287 18.4428 0.73836C18.4584 0.701433 18.4813 0.668004 18.51 0.640049C18.5371 0.611609 18.5696 0.588967 18.6057 0.573497C18.6418 0.558026 18.6807 0.550049 18.72 0.550049C18.7593 0.550049 18.7981 0.558026 18.8342 0.573497C18.8703 0.588967 18.9029 0.611609 18.93 0.640049L20.69 2.21005C20.8902 2.3975 21.0742 2.60156 21.24 2.82005C21.3581 2.98493 21.4306 3.17813 21.45 3.38005C21.4638 3.63234 21.3935 3.88209 21.25 4.09005C21.0477 4.36419 20.82 4.61865 20.57 4.85005Z" fill="black"/>
<path fill-rule="evenodd" clip-rule="evenodd" d="M-4.75906e-06 13.8C0.0595155 14.4923 0.238848 15.1691 0.529995 15.8C0.63314 16.0423 0.796694 16.2541 1.00503 16.4152C1.21337 16.5762 1.45953 16.6812 1.72 16.72C1.94457 16.7568 2.17435 16.7465 2.39472 16.6897C2.61508 16.6329 2.82121 16.5308 3 16.39V18.77L3.05 22C3.05737 22.0885 3.09718 22.1711 3.16179 22.232C3.22639 22.293 3.31123 22.3278 3.4 22.33C3.48772 22.3276 3.57135 22.2924 3.63433 22.2313C3.6973 22.1702 3.73501 22.0876 3.74 22L4 18.8C4 17.98 4.11 17.06 4.11 16.12C4.11 14.73 3.98 13.31 3.91 12.12C3.91 12.0404 3.87839 11.9641 3.82213 11.9079C3.76587 11.8516 3.68956 11.82 3.61 11.82C3.53043 11.82 3.45412 11.8516 3.39786 11.9079C3.3416 11.9641 3.31 12.0404 3.31 12.12C3.23 13.12 3.1 14.29 3.02 15.45L2.69 15.82C2.58216 15.9234 2.45253 16.0013 2.31063 16.0481C2.16873 16.0948 2.01816 16.1091 1.87 16.09C1.73799 16.056 1.61705 15.9883 1.51892 15.8937C1.42079 15.7991 1.34882 15.6807 1.31 15.55C1.09458 14.9678 0.989458 14.3507 0.999995 13.73C0.96936 13.1128 1.01979 12.4941 1.15 11.89C1.31909 10.9169 1.69784 9.99215 2.26 9.18001C2.8211 8.39941 3.61082 7.81237 4.52 7.50001C4.86988 7.39357 5.23435 7.34295 5.6 7.35001C5.98045 7.33603 6.36096 7.37643 6.73 7.47001C7.02182 7.54872 7.29648 7.68096 7.54 7.86001C8.18466 8.44351 8.89236 8.95332 9.64999 9.38001C9.92831 9.49727 10.216 9.59093 10.51 9.66001C10.8025 9.72843 11.1002 9.77192 11.4 9.79001L12.66 9.85001C12.7046 9.8546 12.7498 9.85036 12.7928 9.83752C12.8358 9.82468 12.8758 9.80349 12.9107 9.77517C12.9455 9.74685 12.9744 9.71195 12.9957 9.67245C13.0171 9.63296 13.0304 9.58966 13.035 9.54501C13.0396 9.50036 13.0353 9.45524 13.0225 9.41223C13.0097 9.36922 12.9885 9.32916 12.9602 9.29434C12.9318 9.25952 12.8969 9.23061 12.8574 9.20928C12.818 9.18795 12.7746 9.1746 12.73 9.17001L11.46 9.05001C11.2031 9.02027 10.9489 8.97011 10.7 8.90001C10.4599 8.82876 10.2258 8.73848 10 8.63001C9.31658 8.18596 8.68293 7.66965 8.10999 7.09001C7.88414 6.91088 7.63525 6.76289 7.37 6.65001C7.9344 6.38936 8.4005 5.9548 8.7 5.41001C8.93343 4.87365 9.0539 4.29496 9.0539 3.71001C9.0539 3.12505 8.93343 2.54637 8.7 2.01001C8.35417 1.25551 7.74937 0.649964 6.99531 0.303206C6.24125 -0.043553 5.38788 -0.108549 4.59 0.120007C3.71582 0.26813 2.92421 0.726059 2.36 1.41001C2.05751 1.8408 1.85403 2.33315 1.76414 2.85179C1.67424 3.37044 1.70014 3.90255 1.84 4.41001C1.94913 4.89433 2.16454 5.34834 2.47066 5.7392C2.77677 6.13006 3.16594 6.448 3.61 6.67001C2.69856 7.06271 1.91062 7.69514 1.33 8.50001C0.683321 9.46092 0.259655 10.5543 0.0899952 11.7C-0.0270818 12.3936 -0.0573146 13.099 -4.75906e-06 13.8ZM6.27 5.88001C5.60141 6.00067 4.91311 5.94904 4.27 5.73001C3.93504 5.58935 3.63762 5.37232 3.40149 5.09625C3.16535 4.82018 2.99704 4.49271 2.91 4.14001C2.79351 3.78843 2.75202 3.41635 2.78819 3.04775C2.82436 2.67915 2.93739 2.32223 3.12 2.00001C3.50994 1.43332 4.09295 1.02806 4.76 0.860007C5.10275 0.734664 5.46863 0.685263 5.83235 0.71522C6.19607 0.745176 6.54894 0.853776 6.86656 1.03351C7.18418 1.21324 7.45898 1.45982 7.67194 1.75619C7.88491 2.05256 8.03096 2.39165 8.1 2.75001C8.27576 3.48445 8.18356 4.25751 7.84 4.93001C7.66259 5.19249 7.43035 5.41336 7.1593 5.57738C6.88824 5.74139 6.58483 5.84464 6.27 5.88001Z" fill="black"/>
<path fill-rule="evenodd" clip-rule="evenodd" d="M8.29001 22.0001C8.24505 22.0042 8.19972 21.999 8.15683 21.9849C8.11394 21.9708 8.0744 21.9481 8.04066 21.9181C8.00691 21.8881 7.97968 21.8515 7.96065 21.8105C7.94162 21.7696 7.93119 21.7252 7.93001 21.6801L7.66001 18.5801C7.66001 17.7301 7.53001 16.8701 7.51001 15.9901C7.51001 14.6801 7.51001 13.3701 7.57001 12.0901C7.56189 12.0454 7.56368 11.9995 7.57525 11.9556C7.58683 11.9117 7.60791 11.8708 7.63701 11.836C7.6661 11.8011 7.7025 11.7731 7.74362 11.7538C7.78475 11.7346 7.8296 11.7246 7.87501 11.7246C7.92042 11.7246 7.96527 11.7346 8.00639 11.7538C8.04752 11.7731 8.08392 11.8011 8.11301 11.836C8.14211 11.8708 8.16319 11.9117 8.17476 11.9556C8.18634 11.9995 8.18813 12.0454 8.18001 12.0901C8.34001 13.3501 8.55001 14.6601 8.65001 15.9701C8.71001 16.8501 8.65001 17.7201 8.71001 18.5701L8.62001 21.6801C8.61504 21.765 8.57838 21.845 8.51728 21.9043C8.45618 21.9635 8.37508 21.9977 8.29001 22.0001Z" fill="black"/>
</g>
<defs>
<clipPath id="clip0_1052_9219">
<rect width="24" height="24" fill="white"/>
</clipPath>
</defs>
</svg>
