<svg width="24" height="24" viewBox="0 0 24 24" fill="none" xmlns="http://www.w3.org/2000/svg">
<g clip-path="url(#clip0_1030_2398)">
<path fill-rule="evenodd" clip-rule="evenodd" d="M22.86 0.369993C22.73 0.369993 17.75 0.0499933 13.17 0.00999333C11.0146 -0.0502583 8.85752 0.0165241 6.70999 0.209993C5.75226 0.303966 4.80706 0.498368 3.88999 0.789993C3.203 1.0378 2.60225 1.47882 2.15999 2.05999C1.94982 2.36285 1.79727 2.70184 1.70999 3.05999C1.52999 3.75999 1.50999 4.58999 1.37999 5.19999C1.15553 6.36407 1.02843 7.54482 0.999986 8.72999C0.929936 9.88894 0.929936 11.0511 0.999986 12.21L1.45999 17.37C1.49021 17.8095 1.5639 18.245 1.67999 18.67C1.77173 19.019 1.95066 19.3391 2.19999 19.6C2.61453 19.9827 3.13964 20.2243 3.69999 20.29C4.40872 20.3499 5.12125 20.3499 5.82999 20.29L13.7 19.99C13.7473 19.99 13.7941 19.9807 13.8378 19.9626C13.8814 19.9445 13.9211 19.918 13.9545 19.8846C13.988 19.8511 14.0145 19.8114 14.0326 19.7678C14.0507 19.7241 14.06 19.6773 14.06 19.63C14.06 19.5827 14.0507 19.5359 14.0326 19.4922C14.0145 19.4486 13.988 19.4089 13.9545 19.3754C13.9211 19.342 13.8814 19.3155 13.8378 19.2974C13.7941 19.2793 13.7473 19.27 13.7 19.27L5.82999 19.39C5.1647 19.4507 4.49527 19.4507 3.82999 19.39C3.45648 19.3531 3.10529 19.1951 2.82999 18.94C2.70705 18.7937 2.62433 18.618 2.58999 18.43C2.50087 18.0593 2.44729 17.6809 2.42999 17.3L2.08999 12.17C2.02494 11.0543 2.02494 9.93571 2.08999 8.81999C2.14902 7.70169 2.30629 6.59074 2.55999 5.49999C2.66999 4.97999 2.68999 4.28999 2.80999 3.65999C2.85229 3.33773 2.96128 3.02781 3.12999 2.74999C3.43482 2.35167 3.84796 2.04962 4.31999 1.87999C5.14993 1.59703 6.00839 1.40589 6.87999 1.30999C8.97033 1.05452 11.0741 0.924289 13.18 0.919993C17.65 0.829993 22.53 0.919993 22.65 0.919993C22.7283 0.946005 22.8136 0.940762 22.8882 0.905358C22.9627 0.869954 23.0207 0.807126 23.05 0.729993C23.0671 0.657161 23.0573 0.580602 23.0224 0.514439C22.9874 0.448276 22.9298 0.396972 22.86 0.369993Z" fill="black"/>
<path fill-rule="evenodd" clip-rule="evenodd" d="M16.51 18.4C15.8414 17.5992 15.1268 16.8379 14.37 16.12C13 14.79 13.08 14.89 13 14.88C12.92 14.87 12.52 15.13 12.77 15.45L13.09 15.83C13.59 16.45 14.51 17.63 15.18 18.55C15.48 18.96 16.04 19.42 15.82 19.55C15.6912 19.8764 15.5011 20.1751 15.26 20.43C14.5223 21.3334 13.7238 22.1854 12.87 22.98C12.47 23.35 12.31 23.42 12.4 23.59C12.49 23.76 12.58 24.13 12.9 23.9L13.07 23.78C13.39 23.55 14.07 23.07 14.72 22.5C15.3689 21.9724 15.965 21.3829 16.5 20.74C16.798 20.3616 16.9725 19.9008 17 19.42C16.9335 19.0414 16.764 18.6885 16.51 18.4Z" fill="black"/>
<path fill-rule="evenodd" clip-rule="evenodd" d="M20 17.44C18.91 16.1 17.21 14.44 17.21 14.44C17.1812 14.411 17.1469 14.3879 17.1092 14.3722C17.0714 14.3565 17.0309 14.3484 16.99 14.3484C16.9491 14.3484 16.9086 14.3565 16.8709 14.3722C16.8331 14.3879 16.7988 14.411 16.77 14.44C16.7108 14.4999 16.6776 14.5807 16.6776 14.665C16.6776 14.7492 16.7108 14.8301 16.77 14.89C16.77 14.89 17.64 16.03 18.48 17.21C18.83 17.7 19.16 18.21 19.48 18.61C19.6507 18.8309 19.7981 19.0688 19.92 19.32C19.99 19.32 19.87 19.47 19.82 19.57C19.6924 19.8073 19.5522 20.0376 19.4 20.26C18.7491 21.1939 18.048 22.0919 17.3 22.95C17.15 23.13 17.03 23.25 16.98 23.31C16.93 23.37 16.07 25.31 19.09 22.31C19.7549 21.6666 20.3514 20.9562 20.87 20.19C21.056 19.8903 21.1499 19.5426 21.14 19.19C20.8828 18.5353 20.4949 17.9399 20 17.44Z" fill="black"/>
</g>
<defs>
<clipPath id="clip0_1030_2398">
<rect width="24" height="24" fill="white"/>
</clipPath>
</defs>
</svg>
