<svg width="24" height="24" viewBox="0 0 24 24" fill="none" xmlns="http://www.w3.org/2000/svg">
<g clip-path="url(#clip0_1030_2403)">
<path fill-rule="evenodd" clip-rule="evenodd" d="M23.05 9.73999C22.661 9.16614 22.1518 8.68376 21.5578 8.32632C20.9638 7.96888 20.2992 7.74492 19.61 7.66999C18.2596 7.55066 16.9059 7.85848 15.74 8.54999C14.733 9.1447 13.7854 9.83452 12.91 10.61C10.91 12.32 9.19997 14.31 7.03997 15.79C6.43715 16.1669 5.7496 16.3869 5.03997 16.43C4.34637 16.5086 3.6442 16.4087 2.99997 16.14C1.29997 15.29 0.869972 13.36 1.19997 11.56C1.52997 9.75999 2.75997 7.84999 4.43997 7.55999C5.09983 7.43954 5.77408 7.41931 6.43997 7.49999C7.07889 7.54942 7.69802 7.74439 8.24997 8.06999C8.52316 8.28113 8.77142 8.52269 8.98997 8.78999C9.23014 9.0363 9.43844 9.31178 9.60997 9.60999C9.07028 9.58111 8.53271 9.52101 7.99997 9.42999C7.43748 9.33979 6.88494 9.1958 6.34997 8.99999C6.26891 8.95709 6.17425 8.94773 6.08635 8.97391C5.99846 9.00009 5.92435 9.05973 5.87997 9.13999C5.84129 9.21666 5.83214 9.30487 5.85426 9.38784C5.87639 9.47082 5.92825 9.54276 5.99997 9.58999C6.96176 10.1704 8.00742 10.5988 9.09997 10.86C9.69933 11.0369 10.341 11.0052 10.92 10.77C11.1175 10.6274 11.2562 10.4176 11.31 10.18C11.3338 9.94058 11.3338 9.6994 11.31 9.45999C11.31 8.90999 11.24 7.27999 11.22 6.57999C11.22 6.33999 11.27 5.88999 10.87 5.95999C10.67 5.88999 10.47 5.95999 10.42 6.25999V6.54999C10.34 7.17999 10.18 8.54999 10.1 9.23999C9.917 8.90531 9.69549 8.59319 9.43997 8.30999C9.18317 7.99493 8.89503 7.70678 8.57997 7.44999C7.94329 7.04933 7.22642 6.7933 6.47997 6.69999C5.74708 6.59455 5.00287 6.59455 4.26997 6.69999C2.23997 6.99999 0.649972 9.07999 0.159972 11.36C-0.330028 13.64 0.279972 16.06 2.41997 17.2C3.26709 17.6013 4.20665 17.7671 5.13997 17.68C6.0696 17.6383 6.97244 17.3557 7.75997 16.86C9.85908 15.223 11.8624 13.4668 13.76 11.6C14.5765 10.8726 15.4567 10.22 16.39 9.64999C17.3145 9.07809 18.3957 8.81216 19.48 8.88999C20.0039 8.93695 20.5113 9.0972 20.9671 9.35965C21.423 9.62211 21.8163 9.98049 22.12 10.41C22.5454 11.0194 22.8128 11.7249 22.8983 12.4632C22.9838 13.2015 22.8848 13.9494 22.61 14.64C22.3192 15.3328 21.8436 15.9324 21.2352 16.3733C20.6268 16.8142 19.9089 17.0794 19.16 17.14C18.165 17.1955 17.171 17.0139 16.26 16.61C15.3323 16.3166 14.5545 15.6749 14.09 14.82C14.0519 14.7249 13.9788 14.6481 13.8858 14.6053C13.7928 14.5625 13.6869 14.557 13.59 14.59C13.5404 14.6054 13.4946 14.631 13.4556 14.6653C13.4166 14.6995 13.3852 14.7416 13.3635 14.7887C13.3418 14.8359 13.3303 14.8871 13.3297 14.939C13.3291 14.9909 13.3394 15.0423 13.36 15.09C13.7608 15.978 14.472 16.6891 15.36 17.09C16.5739 17.79 17.9595 18.1364 19.36 18.09C20.2824 18.0352 21.1717 17.7259 21.929 17.1963C22.6862 16.6667 23.282 15.9376 23.65 15.09C24.0056 14.2193 24.1371 13.2732 24.0323 12.3385C23.9274 11.4038 23.5897 10.5103 23.05 9.73999Z" fill="black"/>
</g>
<defs>
<clipPath id="clip0_1030_2403">
<rect width="24" height="24" fill="white"/>
</clipPath>
</defs>
</svg>
