<svg width="24" height="24" viewBox="0 0 24 24" fill="none" xmlns="http://www.w3.org/2000/svg">
<g clip-path="url(#clip0_1030_2405)">
<path fill-rule="evenodd" clip-rule="evenodd" d="M5.52 8.64999C5.58477 8.58288 5.62096 8.49325 5.62096 8.39999C5.62096 8.30672 5.58477 8.2171 5.52 8.14999C4.95 7.45999 2.37 5.36999 1.52 4.27999L1.46 4.15999C1.59 4.05999 1.79 3.92999 1.94 3.78999C2.94 2.93999 4.44 1.57999 5.23 0.929989L5.67 0.589989C5.73324 0.56167 5.78473 0.51233 5.81572 0.450351C5.84671 0.388372 5.85529 0.317576 5.84 0.249989C5.84 0.249989 5.63 -0.140011 5.33 0.0599892L5.14 0.179989C4.8 0.399989 4.08 0.859989 3.31 1.38999C2.54 1.91999 1.48 2.66999 0.910001 3.13999C0.606826 3.35937 0.36845 3.65647 0.220001 3.99999C0.196327 4.20761 0.238292 4.41744 0.340001 4.59999C0.54367 4.93871 0.796415 5.24538 1.09 5.50999C2.25 6.60999 4.46 8.05999 5 8.61999C5.03066 8.65838 5.06907 8.68988 5.11271 8.71245C5.15635 8.73501 5.20426 8.74814 5.25331 8.75097C5.30236 8.7538 5.35146 8.74627 5.39741 8.72887C5.44335 8.71147 5.48513 8.6846 5.52 8.64999Z" fill="black"/>
<path fill-rule="evenodd" clip-rule="evenodd" d="M23.65 19.38C23.4561 19.0345 23.2022 18.7263 22.9 18.47C21.75 17.39 19.54 15.94 18.98 15.38C18.9177 15.311 18.8305 15.2697 18.7377 15.265C18.6449 15.2603 18.554 15.2927 18.485 15.355C18.4161 15.4173 18.3747 15.5045 18.37 15.5973C18.3653 15.6901 18.3977 15.781 18.46 15.85C19.02 16.54 21.61 18.63 22.46 19.72L22.52 19.84C22.38 19.94 22.19 20.07 22.03 20.21C21.09 21.06 19.54 22.42 18.75 23.07C18.55 23.23 18.41 23.36 18.33 23.41C18.278 23.4414 18.2368 23.4879 18.2118 23.5432C18.1868 23.5986 18.1792 23.6602 18.19 23.72C18.19 23.72 18.39 24.11 18.7 23.91L18.88 23.79C19.23 23.57 19.95 23.11 20.72 22.58C21.49 22.05 22.55 21.3 23.12 20.83C23.4226 20.6016 23.6604 20.2983 23.81 19.95C23.8225 19.7474 23.7661 19.5465 23.65 19.38Z" fill="black"/>
<path fill-rule="evenodd" clip-rule="evenodd" d="M3.16001 4.42999C3.17145 4.46962 3.19069 4.50657 3.2166 4.53868C3.2425 4.57078 3.27455 4.59739 3.31088 4.61695C3.3472 4.63651 3.38706 4.64862 3.42812 4.65258C3.46918 4.65653 3.51062 4.65225 3.55001 4.63999C5.7891 4.32881 8.05364 4.24171 10.31 4.37999C11.26 4.37999 12.23 4.37999 13.18 4.46999C14.74 4.46999 16.24 4.58999 17.48 4.67999C18.2732 4.73086 19.0619 4.83779 19.84 4.99999C19.99 4.99999 20.11 4.99999 20.15 5.08999C20.4658 5.79566 20.5999 6.56919 20.54 7.33999C20.62 8.68999 20.54 10.26 20.54 11.34C20.5373 11.4338 20.5713 11.525 20.6348 11.5941C20.6983 11.6632 20.7863 11.7048 20.88 11.71C20.926 11.7113 20.9718 11.7036 21.0147 11.6872C21.0577 11.6708 21.097 11.6462 21.1305 11.6146C21.1639 11.583 21.1908 11.5452 21.2096 11.5032C21.2284 11.4612 21.2387 11.416 21.24 11.37C21.32 10.11 21.46 8.14999 21.41 6.65999C21.4533 5.87269 21.273 5.0892 20.89 4.39999C20.1996 3.97222 19.4113 3.72783 18.6 3.68999C16.9876 3.4862 15.3651 3.37269 13.74 3.34999C9.53001 3.26999 4.74001 3.61999 3.33001 4.08999C3.26795 4.11975 3.21756 4.16931 3.18678 4.23087C3.156 4.29243 3.14658 4.36248 3.16001 4.42999Z" fill="black"/>
<path fill-rule="evenodd" clip-rule="evenodd" d="M19.61 20C19.6603 19.9776 19.7051 19.9445 19.7414 19.9031C19.7776 19.8616 19.8045 19.8128 19.82 19.76C19.8327 19.6978 19.8283 19.6332 19.8071 19.5733C19.786 19.5135 19.749 19.4604 19.7 19.42C19.46 19.21 18.56 19.52 17.97 19.53C16.36 19.53 13.72 19.53 11.15 19.42C9.51999 19.37 7.90999 19.33 6.61999 19.27C5.81107 19.24 5.0055 19.1497 4.20999 19C4.05763 18.454 3.95718 17.8949 3.90999 17.33C3.73999 15.83 3.64999 13.88 3.59999 12.59C3.59487 12.4954 3.55364 12.4063 3.4848 12.3412C3.41596 12.2761 3.32475 12.2399 3.22999 12.24C3.18361 12.2399 3.1377 12.2493 3.09509 12.2676C3.05248 12.286 3.01407 12.3128 2.98222 12.3465C2.95037 12.3803 2.92576 12.4201 2.9099 12.4637C2.89404 12.5073 2.88726 12.5537 2.88999 12.6C2.88999 13.91 2.88999 15.89 2.95999 17.41C2.96626 18.1607 3.08767 18.9061 3.31999 19.62C3.37611 19.7287 3.45864 19.8215 3.55999 19.89C3.83809 20.0345 4.13928 20.1292 4.44999 20.17C5.64959 20.3422 6.85842 20.4424 8.06999 20.47C9.17999 20.47 10.42 20.53 11.65 20.47C14.57 20.47 17.48 20.23 18.8 20.07C19.0718 20.0785 19.3437 20.055 19.61 20Z" fill="black"/>
<path fill-rule="evenodd" clip-rule="evenodd" d="M10.38 15.23H11.48H12.7C13.34 15.23 13.96 15.12 14.59 15.05C14.6739 15.0358 14.7501 14.9924 14.8051 14.9274C14.86 14.8625 14.8902 14.7801 14.8902 14.695C14.8902 14.6099 14.86 14.5275 14.8051 14.4625C14.7501 14.3975 14.6739 14.3541 14.59 14.34C14.05 14.27 13.52 14.16 12.98 14.1C13.04 13.1 13.13 12.17 13.15 11.19V9.70998C13.1472 9.20969 13.097 8.71079 13 8.21998C12.9203 7.93981 12.7804 7.68044 12.59 7.45998C12.5102 7.35827 12.4022 7.28225 12.2795 7.24136C12.1569 7.20047 12.0249 7.19651 11.9 7.22998C11.6608 7.31659 11.4427 7.45292 11.26 7.62998C11.1217 7.77958 10.9915 7.93647 10.87 8.09998C10.6947 8.34128 10.5376 8.59532 10.4 8.85998C10.2809 9.02702 10.1835 9.20846 10.11 9.39998C10.0935 9.46039 10.0921 9.52396 10.1061 9.58502C10.12 9.64609 10.1488 9.70275 10.19 9.74998C10.2265 9.79818 10.276 9.83504 10.3326 9.85628C10.3893 9.87752 10.4508 9.88227 10.51 9.86998C10.5887 9.86489 10.6625 9.83 10.7164 9.77241C10.7703 9.71481 10.8002 9.63885 10.8 9.55998C10.89 9.55998 10.98 9.26998 11 9.23998C11.02 9.20998 11.27 8.89998 11.42 8.73998C11.5578 8.59356 11.7084 8.4597 11.87 8.33998C11.8804 8.44639 11.8804 8.55357 11.87 8.65998C11.92 9.06998 11.87 9.51998 11.93 9.85998L12.2 14.14H11.43L10.27 14.46L9.87 14.59C9.69 14.59 9.69 14.74 9.75 14.87C10 15.24 9.89 15.23 10.38 15.23Z" fill="black"/>
</g>
<defs>
<clipPath id="clip0_1030_2405">
<rect width="24" height="24" fill="white"/>
</clipPath>
</defs>
</svg>
