<svg width="24" height="24" viewBox="0 0 24 24" fill="none" xmlns="http://www.w3.org/2000/svg">
<g clip-path="url(#clip0_1030_2392)">
<path d="M23.89 10.38C23.6768 8.69444 23.0592 7.08541 22.09 5.69C21.0654 4.13081 19.6894 2.83367 18.0725 1.90278C16.4556 0.97189 14.6429 0.433204 12.78 0.329997C10.9041 0.228894 9.02977 0.554295 7.29774 1.28174C5.56572 2.00919 4.02111 3.11977 2.78001 4.53C1.37099 6.20701 0.457883 8.24394 0.143419 10.4116C-0.171044 12.5793 0.12561 14.7917 1.00001 16.8C2.58001 20.36 6.10001 23.15 11.26 23.62C12.185 23.6999 13.1151 23.6999 14.04 23.62C14.9753 23.5408 15.8982 23.3529 16.79 23.06C16.8762 23.0321 16.9478 22.9712 16.9891 22.8906C17.0303 22.8099 17.0379 22.7162 17.01 22.63C16.9822 22.5438 16.9212 22.4722 16.8406 22.4309C16.7599 22.3897 16.6662 22.3821 16.58 22.41C15.7417 22.672 14.876 22.8364 14 22.9C13.1133 22.9593 12.2231 22.9392 11.34 22.84C6.56001 22.33 3.34001 19.72 1.92001 16.4C1.15167 14.5629 0.911209 12.5479 1.22567 10.5816C1.54014 8.61533 2.39705 6.77581 3.70001 5.27C4.82162 4.00463 6.21179 3.00586 7.76892 2.34668C9.32605 1.68749 11.0108 1.38455 12.7 1.46C14.4053 1.53334 16.0701 2.00252 17.5627 2.83042C19.0554 3.65831 20.3349 4.8222 21.3 6.23C22.212 7.49431 22.8086 8.95833 23.04 10.5C23.2771 12.0573 23.216 13.6455 22.86 15.18C22.6851 16.0926 22.3961 16.9795 22 17.82C21.578 18.6245 20.963 19.3117 20.21 19.82C20.1769 19.8421 20.1486 19.8706 20.1266 19.9038C20.1047 19.9369 20.0895 19.9742 20.0821 20.0132C20.0746 20.0523 20.075 20.0925 20.0833 20.1314C20.0915 20.1704 20.1074 20.2073 20.13 20.24C20.1764 20.3047 20.2458 20.3491 20.324 20.364C20.4022 20.3789 20.4831 20.3631 20.55 20.32C21.2291 19.8755 21.8136 19.3011 22.27 18.63C22.8995 17.6159 23.3558 16.504 23.62 15.34C24.0258 13.7191 24.1174 12.0354 23.89 10.38Z" fill="black"/>
<path d="M17.82 8C17.7865 7.68074 17.6986 7.36957 17.56 7.08C17.4309 6.9127 17.2578 6.7846 17.06 6.71C16.6099 6.54298 16.1283 6.47809 15.65 6.52C15.3681 6.50959 15.0893 6.58162 14.8478 6.72726C14.6062 6.87291 14.4124 7.08585 14.29 7.34C14.2269 8.30897 14.2269 9.28103 14.29 10.25C14.38 12.86 14.63 16.37 14.72 16.75C14.7543 16.8949 14.8288 17.0271 14.9349 17.1315C15.0411 17.2359 15.1746 17.3082 15.32 17.34C15.73 17.4147 16.1501 17.4147 16.56 17.34C16.6047 17.3362 16.6483 17.3236 16.6881 17.303C16.7279 17.2823 16.7633 17.254 16.7921 17.2196C16.8209 17.1852 16.8426 17.1454 16.856 17.1026C16.8694 17.0597 16.8741 17.0147 16.87 16.97C16.8663 16.9253 16.8537 16.8818 16.833 16.8419C16.8123 16.8021 16.784 16.7668 16.7496 16.7379C16.7152 16.7091 16.6754 16.6874 16.6326 16.674C16.5898 16.6607 16.5447 16.6559 16.5 16.66C16.3035 16.6705 16.1066 16.6705 15.91 16.66C15.784 16.6635 15.6585 16.6431 15.54 16.6H15.47C15.47 16.35 15.41 14.76 15.39 12.99C15.33 6.99 14.96 7.45 16.39 7.71H16.56C16.56 7.81 16.69 8.06 16.74 8.31C16.87 9.14 17 10.43 17.08 11.77C17.1993 13.2109 17.1993 14.6591 17.08 16.1C17.0677 16.1792 17.0855 16.2601 17.13 16.3267C17.1744 16.3934 17.2422 16.4409 17.32 16.46C17.3595 16.4671 17.4 16.4663 17.4391 16.4575C17.4782 16.4488 17.5152 16.4322 17.5478 16.4089C17.5804 16.3856 17.6081 16.356 17.6291 16.3218C17.6501 16.2877 17.664 16.2496 17.67 16.21C17.9411 14.4369 18.0515 12.643 18 10.85C17.9926 9.89741 17.9325 8.94596 17.82 8Z" fill="black"/>
<path d="M6.36003 10.45C6.28011 10.4497 6.20295 10.4792 6.14373 10.5329C6.08451 10.5866 6.04752 10.6604 6.04003 10.74L5.72003 14.65C5.6145 15.3181 5.65891 16.0012 5.85003 16.65C5.96121 16.8613 6.14431 17.0258 6.36623 17.1138C6.58815 17.2019 6.83425 17.2076 7.06003 17.13C8.36252 16.5104 9.58482 15.7347 10.7 14.82C11.3146 14.3622 11.8809 13.8428 12.39 13.27C12.5906 13.0582 12.7289 12.7952 12.79 12.51C12.8061 12.2387 12.7361 11.9692 12.59 11.74C12.2354 11.2065 11.8117 10.7223 11.33 10.3C10.0516 9.06737 8.59119 8.03868 7.00003 7.25001C6.83827 7.20516 6.66551 7.22363 6.51689 7.30165C6.36827 7.37968 6.25496 7.5114 6.20003 7.67001C6.03351 8.3026 5.99274 8.96172 6.08003 9.61001C6.08258 9.65469 6.09392 9.69842 6.11341 9.7387C6.1329 9.77898 6.16015 9.81502 6.19359 9.84475C6.22704 9.87448 6.26602 9.89732 6.30831 9.91195C6.3506 9.92658 6.39536 9.93272 6.44003 9.93001C6.5311 9.92484 6.61655 9.88432 6.67819 9.81708C6.73983 9.74983 6.77278 9.66119 6.77003 9.57001C6.74343 9.13245 6.76355 8.69331 6.83003 8.26001C6.84403 8.19044 6.86759 8.12313 6.90003 8.06001C7.86397 8.61718 8.7571 9.2887 9.56003 10.06C10.1829 10.6066 10.7614 11.2018 11.29 11.84C11.425 11.9897 11.5519 12.1466 11.67 12.31V12.38C11.6 12.46 11.47 12.56 11.37 12.66C10.9445 13.1374 10.4868 13.5852 10 14C9.37003 14.51 8.67003 15 8.08003 15.45C7.70225 15.7477 7.2971 16.0088 6.87003 16.23C6.81003 16.23 6.76003 16.3 6.72003 16.23C6.65885 16.1341 6.62433 16.0237 6.62003 15.91C6.59861 15.5003 6.59861 15.0897 6.62003 14.68L6.70003 10.77C6.70166 10.7258 6.69383 10.6818 6.67704 10.6409C6.66025 10.6 6.63491 10.5631 6.6027 10.5328C6.5705 10.5025 6.53218 10.4794 6.49033 10.4651C6.44847 10.4509 6.40404 10.4457 6.36003 10.45Z" fill="black"/>
<path d="M11.67 12.36V12.41V12.47V12.4C11.67 12.38 11.69 12.37 11.67 12.36Z" fill="black"/>
</g>
<defs>
<clipPath id="clip0_1030_2392">
<rect width="24" height="24" fill="white"/>
</clipPath>
</defs>
</svg>
