<svg width="24" height="24" viewBox="0 0 24 24" fill="none" xmlns="http://www.w3.org/2000/svg">
<path d="M17.55 5.57003C17.17 4.05216 16.3237 2.69167 15.13 1.68003C14.5938 1.16353 13.9999 0.710538 13.36 0.330027C12.836 0.0309017 12.2203 -0.0651899 11.63 0.0600269C11.481 0.0911383 11.3434 0.162634 11.2323 0.266693C11.1212 0.370752 11.0408 0.503366 11 0.650027C10.9511 1.16923 10.9883 1.69293 11.11 2.20003C11.21 3.20003 11.3 4.20003 11.32 5.20003C11.3359 5.86729 11.3159 6.53492 11.26 7.20003C11.11 9.25003 11.09 11.3 10.95 13.34C10.95 13.85 10.88 14.34 10.83 14.86L10.62 18C10.3819 17.3872 9.97221 16.856 9.43999 16.47C8.46003 15.8937 7.29307 15.725 6.18999 16C5.0768 16.1927 4.06167 16.7566 3.30999 17.6C3.07805 17.901 2.89885 18.2391 2.77999 18.6C2.62876 19.1072 2.54142 19.6312 2.51999 20.16C2.49972 20.3996 2.49972 20.6405 2.51999 20.88C2.54007 21.1286 2.59044 21.3737 2.66999 21.61C2.80204 22.1182 3.05862 22.5854 3.41653 22.9695C3.77445 23.3536 4.22243 23.6425 4.71999 23.81C5.42745 23.9679 6.15973 23.9792 6.87173 23.8434C7.58373 23.7075 8.26038 23.4273 8.85999 23.02C9.43778 22.6897 9.95792 22.2675 10.4 21.77C11.3 20.77 11.12 19.91 11.4 16.59C11.4 16.02 11.53 15.46 11.62 14.9C11.7267 14.1334 11.8167 13.3634 11.89 12.59C12.06 10.81 12.15 9.02003 12.34 7.24003C12.4066 6.54212 12.4333 5.84098 12.42 5.14003C12.42 4.14003 12.3 3.14003 12.2 2.06003C12.2 1.88003 12.11 1.62003 12.06 1.35003C12.05 1.2603 12.05 1.16975 12.06 1.08003C12.3248 1.07138 12.5872 1.13352 12.82 1.26003C13.3943 1.58194 13.9281 1.97137 14.41 2.42003C15.2844 3.13361 15.971 4.05025 16.41 5.09003C16.6335 5.58829 16.733 6.13329 16.6999 6.67839C16.6668 7.2235 16.5022 7.75247 16.22 8.22003C16.058 8.4748 15.8667 8.70973 15.65 8.92003C15.43 9.14499 15.1926 9.3523 14.94 9.54003C14.8875 9.60917 14.8643 9.69624 14.8755 9.78235C14.8868 9.86846 14.9315 9.94667 15 10C15.054 10.073 15.1343 10.1222 15.2238 10.1371C15.3134 10.152 15.4052 10.1316 15.48 10.08C15.7611 9.87754 16.0314 9.66058 16.29 9.43003C16.5539 9.19622 16.792 8.93472 17 8.65003C17.2939 8.19994 17.4941 7.69522 17.5886 7.16603C17.6831 6.63684 17.67 6.09403 17.55 5.57003ZM8.46999 22.33C7.61815 22.8751 6.60514 23.1116 5.59999 23C5.1551 22.949 4.73798 22.7577 4.40899 22.4539C4.08001 22.1501 3.85621 21.7495 3.76999 21.31C3.72226 21.1432 3.6888 20.9726 3.66999 20.8C3.65501 20.6203 3.65501 20.4397 3.66999 20.26C3.68487 19.896 3.73511 19.5343 3.81999 19.18C3.89091 18.8621 4.02712 18.5625 4.21999 18.3C4.78804 17.6337 5.56232 17.1762 6.41999 17C7.27183 16.7242 8.19776 16.7924 8.99999 17.19C9.43474 17.4542 9.78243 17.8402 9.99999 18.3C10.62 19.73 10.46 21 8.46999 22.33Z" fill="black"/>
<path d="M7.18999 3.17006C6.7429 2.54826 6.10868 2.08573 5.37999 1.85006C5.06072 1.71024 4.72454 1.61274 4.37999 1.56006C4.0894 1.51981 3.79413 1.5874 3.54999 1.75006C3.37924 1.89199 3.26559 2.09089 3.22999 2.31006C3.22999 2.52006 3.32999 2.57006 3.40999 2.74006C3.63999 3.18006 3.85999 3.39006 4.04999 3.84006C4.23999 4.29006 4.28999 4.44006 4.38999 4.75006C4.65999 5.56006 5.05999 6.64006 5.38999 7.60006C5.46999 7.83006 5.54999 8.07006 5.61999 8.31006L6.18999 9.89006C5.89547 9.66751 5.55304 9.51684 5.18999 9.45006C4.87999 9.37006 4.35999 9.68006 3.86999 10.0001C3.43164 10.2951 3.11536 10.7393 2.97999 11.2501C2.92841 11.4319 2.91145 11.6219 2.92999 11.8101C2.94709 12.0706 3.00444 12.327 3.09999 12.5701C3.13205 12.6825 3.17914 12.7902 3.23999 12.8901C3.2913 12.9995 3.35872 13.1006 3.43999 13.1901C3.59273 13.3964 3.79403 13.5619 4.02603 13.6717C4.25804 13.7816 4.51358 13.8326 4.76999 13.8201C5.11159 13.754 5.43676 13.621 5.72679 13.4288C6.01682 13.2365 6.266 12.9889 6.45999 12.7001C6.6627 12.4447 6.82153 12.1575 6.92999 11.8501C7.14999 11.2101 6.92999 10.8501 6.44999 9.31006C6.36999 9.04006 6.30999 8.77006 6.23999 8.50006C6.16999 8.23006 6.04999 7.76006 5.93999 7.40006C5.68999 6.56006 5.40999 5.73006 5.16999 4.88006C5.07118 4.54074 4.95435 4.20693 4.81999 3.88006C4.61999 3.42006 4.38999 2.97006 4.14999 2.52006C4.14999 2.44006 4.02999 2.33006 3.95999 2.22006C3.9559 2.17682 3.9559 2.13329 3.95999 2.09006C4.08482 2.05954 4.21516 2.05954 4.33999 2.09006C4.65795 2.12994 4.9701 2.20714 5.26999 2.32006C5.80478 2.47998 6.2923 2.76837 6.68999 3.16006C6.88353 3.34573 7.02921 3.57553 7.11454 3.8298C7.19988 4.08406 7.22234 4.35522 7.17999 4.62006C7.13447 4.75309 7.07409 4.88056 6.99999 5.00006C6.94212 5.1426 6.87185 5.2798 6.78999 5.41006C6.776 5.44654 6.77501 5.48673 6.78718 5.52386C6.79934 5.56099 6.82393 5.59279 6.85679 5.61392C6.88966 5.63505 6.9288 5.64421 6.96763 5.63986C7.00646 5.63552 7.04261 5.61793 7.06999 5.59006C7.16293 5.44906 7.24645 5.30208 7.31999 5.15006C7.39125 4.98871 7.44813 4.8214 7.48999 4.65006C7.58723 4.13648 7.47955 3.60523 7.18999 3.17006ZM5.89999 12.3201C5.63217 12.6906 5.2487 12.9615 4.80999 13.0901C4.62154 13.1247 4.42711 13.1045 4.24983 13.0318C4.07255 12.9591 3.91988 12.837 3.80999 12.6801C3.7608 12.623 3.72035 12.559 3.68999 12.4901C3.65069 12.4161 3.61725 12.3392 3.58999 12.2601C3.53944 12.1063 3.49935 11.9493 3.46999 11.7901C3.44499 11.6445 3.44499 11.4957 3.46999 11.3501C3.59967 10.9795 3.84508 10.6604 4.16999 10.4401C4.48124 10.1923 4.87279 10.0677 5.26999 10.0901C5.49107 10.1323 5.69565 10.2363 5.85999 10.3901C6.35999 10.8701 6.50999 11.4401 5.89999 12.3201Z" fill="black"/>
<path d="M21.45 15.9C21.2721 15.1631 20.8704 14.4994 20.3 14C20.0423 13.7431 19.7572 13.5151 19.45 13.32C19.1926 13.1731 18.8922 13.1201 18.6 13.17C18.388 13.2387 18.2072 13.3804 18.09 13.57C18.058 13.6425 18.0415 13.7208 18.0415 13.8C18.0415 13.8792 18.058 13.9576 18.09 14.03C18.3602 14.6986 18.4664 15.422 18.4 16.14C18.19 17.78 17.94 19.4 17.94 19.4C17.6728 19.1779 17.3767 18.9929 17.06 18.85C16.6531 18.7166 16.2177 18.6958 15.8 18.79C15.2801 18.8873 14.814 19.172 14.49 19.59C14.3775 19.7399 14.2866 19.9048 14.22 20.08C14.1436 20.3304 14.0966 20.5888 14.08 20.85C14.0698 20.9665 14.0698 21.0836 14.08 21.2C14.0902 21.3214 14.1103 21.4418 14.14 21.56C14.2036 21.8113 14.3282 22.0431 14.5025 22.235C14.6769 22.4268 14.8959 22.5728 15.14 22.66C15.4798 22.7388 15.832 22.7484 16.1756 22.6883C16.5192 22.6282 16.8472 22.4995 17.14 22.31C17.4242 22.1481 17.6835 21.946 17.91 21.71C18.3193 20.9142 18.561 20.0429 18.62 19.15C18.931 17.347 18.9915 15.5096 18.8 13.69C18.9295 13.6937 19.0563 13.7279 19.17 13.79C19.4491 13.9516 19.7077 14.1464 19.94 14.37C20.3805 14.7216 20.7246 15.1792 20.94 15.7C21.0463 15.9455 21.0909 16.2132 21.07 16.4799C21.0491 16.7466 20.9633 17.0041 20.82 17.23C20.7378 17.352 20.644 17.4659 20.54 17.57C20.427 17.6751 20.3067 17.772 20.18 17.86C20.1512 17.8914 20.1352 17.9324 20.1352 17.975C20.1352 18.0176 20.1512 18.0587 20.18 18.09C20.2045 18.1264 20.2421 18.1519 20.2849 18.1613C20.3278 18.1706 20.3726 18.163 20.41 18.14C20.5519 18.0445 20.6857 17.9375 20.81 17.82C20.9443 17.707 21.0621 17.5757 21.16 17.43C21.3125 17.2094 21.4171 16.9593 21.4671 16.6957C21.517 16.4322 21.5112 16.1612 21.45 15.9ZM16.8 21.71C16.4141 21.9467 15.9593 22.0454 15.51 21.99C15.3123 21.9562 15.1294 21.8638 14.985 21.7247C14.8405 21.5856 14.7412 21.4063 14.7 21.21C14.6905 21.1336 14.6905 21.0564 14.7 20.98C14.6904 20.9003 14.6904 20.8197 14.7 20.74C14.7062 20.574 14.7331 20.4094 14.78 20.25C14.815 20.1099 14.876 19.9776 14.96 19.86C15.221 19.5645 15.5727 19.364 15.96 19.29C16.3436 19.1812 16.754 19.2205 17.11 19.4C17.2985 19.5234 17.445 19.7013 17.53 19.91C17.79 20.56 17.71 21.13 16.8 21.71Z" fill="black"/>
</svg>
