<svg width="24" height="24" viewBox="0 0 24 24" fill="none" xmlns="http://www.w3.org/2000/svg">
<g clip-path="url(#clip0_1047_6309)">
<path fill-rule="evenodd" clip-rule="evenodd" d="M13.21 11.05C13.2399 11.0761 13.2749 11.0958 13.3127 11.1078C13.3506 11.1199 13.3905 11.124 13.43 11.12C14.9599 11.098 16.4357 10.5508 17.61 9.56998C18.0008 9.19559 18.3134 8.74736 18.5297 8.25127C18.7459 7.75518 18.8616 7.22111 18.87 6.67998C18.913 6.11895 18.7452 5.56204 18.3994 5.11818C18.0535 4.67432 17.5545 4.37544 17 4.27998C16.6727 4.21543 16.3357 4.21758 16.0092 4.28631C15.6828 4.35504 15.3735 4.48894 15.1 4.67998C14.8313 4.14514 14.3912 3.71565 13.85 3.45998C13.603 3.34069 13.3346 3.27194 13.0607 3.25776C12.7867 3.24358 12.5127 3.28425 12.2547 3.3774C11.9967 3.47055 11.7599 3.61429 11.5581 3.80019C11.3564 3.98609 11.1939 4.21041 11.08 4.45998C10.5575 5.38722 10.421 6.48288 10.7 7.50998C11.1355 8.92859 12.0154 10.1696 13.21 11.05ZM12 4.99998C12.118 4.77288 12.3185 4.59964 12.5603 4.51593C12.8022 4.43222 13.0669 4.44441 13.3 4.54998C13.5696 4.68088 13.7948 4.88808 13.9477 5.14585C14.1006 5.40363 14.1744 5.70063 14.16 5.99998C14.1867 6.12363 14.2474 6.23736 14.3352 6.32841C14.423 6.41946 14.5345 6.48421 14.6571 6.51538C14.7797 6.54654 14.9086 6.5429 15.0292 6.50485C15.1498 6.4668 15.2575 6.39585 15.34 6.29998C15.4714 6.03717 15.6821 5.82235 15.9423 5.68595C16.2026 5.54955 16.4991 5.49849 16.79 5.53998C17.079 5.57746 17.3429 5.72323 17.5286 5.94783C17.7142 6.17244 17.8076 6.45913 17.79 6.74998C17.8101 7.26239 17.7028 7.77179 17.4777 8.23253C17.2525 8.69327 16.9166 9.09097 16.5 9.38998C15.6098 10.001 14.5759 10.3697 13.5 10.46C12.7228 9.76289 12.1316 8.88302 11.78 7.89998C11.5826 7.43413 11.4995 6.92778 11.5378 6.42327C11.5761 5.91875 11.7346 5.43073 12 4.99998Z" fill="black"/>
<path fill-rule="evenodd" clip-rule="evenodd" d="M23.2 1.34994C23.1428 0.952209 22.9362 0.591215 22.6222 0.34042C22.3083 0.0896255 21.9106 -0.0321244 21.51 -5.51045e-05C21.1422 0.0296653 20.7928 0.172938 20.51 0.409945C20.2581 0.191783 19.9495 0.0496047 19.62 -5.51045e-05C19.4287 -0.0374854 19.2318 -0.0362249 19.041 0.00365189C18.8502 0.0435287 18.6693 0.121214 18.509 0.232126C18.3487 0.343039 18.2122 0.484931 18.1076 0.649435C18.003 0.813939 17.9324 0.997722 17.9 1.18994C17.8124 1.52579 17.7929 1.87578 17.8427 2.21927C17.8925 2.56277 18.0106 2.89281 18.19 3.18994C18.7077 4.06814 19.5411 4.71556 20.52 4.99994C21.4546 4.7555 22.2771 4.19778 22.85 3.41995C23.0421 3.11508 23.1719 2.77521 23.2319 2.41993C23.292 2.06466 23.2812 1.70101 23.2 1.34994ZM21.83 3.16995C20.55 4.81994 19.74 3.93994 19.18 3.05994C19.0292 2.83439 18.9342 2.57619 18.9029 2.30667C18.8716 2.03715 18.9049 1.76406 19 1.50994C19.0215 1.41725 19.0787 1.33682 19.1593 1.28623C19.2399 1.23564 19.3372 1.219 19.43 1.23994C19.8028 1.3814 20.1668 1.54503 20.52 1.72994C21.05 1.43994 21.01 1.30994 21.63 1.24994C21.7431 1.23748 21.8568 1.26738 21.9492 1.33387C22.0415 1.40036 22.106 1.49872 22.13 1.60994C22.2144 1.87432 22.2311 2.15564 22.1787 2.42816C22.1263 2.70068 22.0064 2.95572 21.83 3.16995Z" fill="black"/>
<path fill-rule="evenodd" clip-rule="evenodd" d="M3.79001 13.49C4.08001 13.61 4.38001 13.72 4.68001 13.82L5.61001 14.12L6.55001 14.39C7.01001 14.5 7.35001 13.71 6.97001 13.48L6.00001 13C5.70001 12.86 5.39001 12.73 5.08001 12.62C4.77001 12.51 4.44001 12.41 4.08001 12.33C3.75043 12.2648 3.41587 12.228 3.08001 12.22C2.49001 12.32 2.23001 12.87 2.75001 13.11L3.79001 13.49Z" fill="black"/>
<path fill-rule="evenodd" clip-rule="evenodd" d="M12.07 16.4399C12.191 16.3203 12.3045 16.1934 12.41 16.0599C12.5402 15.862 12.6412 15.6465 12.71 15.4199C12.7655 15.1124 12.7655 14.7974 12.71 14.4899C12.6488 14.1304 12.5088 13.7889 12.3 13.4899C12.0361 13.1307 11.6954 12.8348 11.3027 12.6237C10.91 12.4127 10.4753 12.2918 10.03 12.2699C9.54515 12.2609 9.0661 12.3766 8.63883 12.606C8.21156 12.8354 7.8504 13.1708 7.59002 13.5799C7.30948 13.9537 7.13534 14.3965 7.08604 14.8613C7.03675 15.3261 7.11414 15.7955 7.31002 16.2199C7.44652 16.4669 7.61833 16.6926 7.82002 16.8899C8.20102 17.3462 8.74016 17.6418 9.3297 17.7178C9.91924 17.7939 10.5157 17.6446 11 17.2999C11.4081 17.0839 11.7713 16.792 12.07 16.4399ZM10.54 16.5099C8.62002 17.5899 7.89002 15.7799 8.12002 14.8199C8.232 14.4154 8.48031 14.0621 8.82291 13.8197C9.16552 13.5774 9.58136 13.4608 10 13.4899C10.2609 13.5037 10.5159 13.5722 10.7485 13.6911C10.9811 13.81 11.1861 13.9765 11.35 14.1799C11.4688 14.3822 11.5422 14.6079 11.5652 14.8413C11.5881 15.0747 11.5601 15.3104 11.4831 15.532C11.4061 15.7535 11.2819 15.9557 11.119 16.1246C10.9562 16.2934 10.7586 16.4249 10.54 16.5099Z" fill="black"/>
<path fill-rule="evenodd" clip-rule="evenodd" d="M15.28 18.9399C14.89 18.5599 14.47 18.1799 14.05 17.8299C13.5575 17.4198 13.0361 17.0455 12.49 16.7099C12.3789 16.6729 12.2581 16.6778 12.1504 16.7236C12.0426 16.7694 11.9553 16.853 11.9049 16.9587C11.8545 17.0644 11.8445 17.1849 11.8768 17.2975C11.909 17.41 11.9813 17.5069 12.08 17.5699C12.6 18.0599 12.53 18.0499 13.03 18.5699C13.4188 18.9758 13.833 19.3565 14.27 19.7099C14.5817 19.9727 14.9164 20.207 15.27 20.4099C15.61 20.4999 16.27 20.0799 16 19.6699L15.28 18.9399Z" fill="black"/>
<path fill-rule="evenodd" clip-rule="evenodd" d="M15.91 14.22C15.5576 14.185 15.2025 14.185 14.85 14.22C14.3583 14.2435 13.8713 14.3275 13.4 14.47C12.96 14.85 13.11 15.14 13.52 15.38C13.8486 15.449 14.1851 15.4725 14.52 15.45H15.27H16.27C16.86 15.45 16.85 15.45 17.45 15.38C18.32 15.23 17.99 14.58 17.69 14.46C17.1073 14.315 16.5104 14.2345 15.91 14.22Z" fill="black"/>
<path fill-rule="evenodd" clip-rule="evenodd" d="M17.81 11.1899C17.7534 11.1089 17.6674 11.0531 17.5703 11.0344C17.4732 11.0158 17.3727 11.0357 17.29 11.0899C17.2496 11.1179 17.2152 11.1536 17.1888 11.195C17.1623 11.2364 17.1444 11.2826 17.136 11.331C17.1276 11.3794 17.129 11.429 17.14 11.4769C17.151 11.5248 17.1714 11.57 17.2 11.6099C17.6874 12.4259 18.0034 13.3326 18.1289 14.2748C18.2544 15.2169 18.1868 16.1748 17.93 17.0899C17.3493 18.9092 16.1906 20.4892 14.63 21.5899C13.3286 22.3708 11.8377 22.779 10.32 22.7699C8.80454 22.8204 7.302 22.4758 5.96001 21.7699C5.23841 21.3555 4.56727 20.8589 3.96001 20.2899C2.86705 19.3565 2.15527 18.0539 1.96001 16.6299C1.84298 15.3845 1.99099 14.1284 2.39431 12.9443C2.79763 11.7602 3.44711 10.675 4.30001 9.75991C5.64749 8.45 7.42355 7.67208 9.30001 7.56991C9.38754 7.56991 9.47147 7.53514 9.53336 7.47326C9.59525 7.41137 9.63001 7.32743 9.63001 7.23991C9.62503 7.1523 9.58732 7.06975 9.52435 7.00863C9.46137 6.94751 9.37774 6.91228 9.29001 6.90991C7.22277 6.95086 5.2404 7.73955 3.71001 9.12991C2.21427 10.5815 1.22254 12.4739 0.880015 14.5299C0.731763 15.3988 0.708193 16.2844 0.810015 17.1599C1.07083 18.7171 1.87081 20.133 3.07001 21.1599C3.75947 21.7997 4.5213 22.3568 5.34001 22.8199C6.87762 23.6325 8.60215 24.0257 10.34 23.9599C12.0822 23.9324 13.781 23.4124 15.24 22.4599C16.9821 21.1871 18.2407 19.3609 18.81 17.2799C19.064 16.25 19.1063 15.1792 18.9345 14.1324C18.7626 13.0856 18.38 12.0846 17.81 11.1899Z" fill="black"/>
<path fill-rule="evenodd" clip-rule="evenodd" d="M4.22002 18.32C4.75002 18.16 5.22002 17.95 5.77002 17.74C6.32002 17.53 6.77002 17.29 7.39002 17.04C7.63002 16.84 7.39002 16.18 6.71002 16.3C6.16344 16.385 5.6249 16.5154 5.10002 16.69C4.58002 16.85 4.30002 16.95 3.80002 17.15C3.47985 17.2838 3.18022 17.4622 2.91002 17.68C2.59002 18.1 2.61002 18.37 3.15002 18.56C3.51357 18.5146 3.8719 18.4342 4.22002 18.32Z" fill="black"/>
</g>
<defs>
<clipPath id="clip0_1047_6309">
<rect width="24" height="24" fill="white"/>
</clipPath>
</defs>
</svg>
