<svg width="24" height="24" viewBox="0 0 24 24" fill="none" xmlns="http://www.w3.org/2000/svg">
<g clip-path="url(#clip0_1047_6301)">
<path d="M5.06 6.39993C5.56 6.39993 6.06 6.34993 6.57 6.30993C7.33 6.24993 8.08 6.14993 8.83 6.10993C8.91316 6.10997 8.99308 6.07763 9.05281 6.01976C9.11254 5.9619 9.1474 5.88305 9.15 5.79993C9.15133 5.7579 9.14437 5.71602 9.12951 5.67668C9.11465 5.63735 9.09218 5.60133 9.06339 5.57068C9.0346 5.54003 9.00005 5.51536 8.96172 5.49807C8.92339 5.48078 8.88203 5.47122 8.84 5.46993C8.1 5.38993 7.36 5.31993 6.6 5.29993H5.6C5.28 5.29993 4.96 5.29993 4.6 5.37993C3.85 5.47993 3.13 5.62993 2.4 5.74993C2.32664 5.7575 2.25892 5.79273 2.21062 5.84846C2.16232 5.9042 2.13707 5.97624 2.14 6.04993C2.14253 6.08673 2.15232 6.12267 2.16878 6.15568C2.18525 6.18869 2.20808 6.21812 2.23596 6.24228C2.26384 6.26644 2.29621 6.28486 2.33123 6.29647C2.36625 6.30807 2.40321 6.31265 2.44 6.30993C3.35 6.34993 4.2 6.41993 5.06 6.39993Z" fill="black"/>
<path d="M14.41 6.15993C14.4112 6.19628 14.4198 6.23201 14.4352 6.26497C14.4506 6.29793 14.4725 6.32743 14.4996 6.35171C14.5267 6.376 14.5584 6.39456 14.5928 6.40628C14.6273 6.418 14.6637 6.42264 14.7 6.41993C15.6 6.41993 16.5 6.54993 17.41 6.55993H19.02C19.83 6.55993 20.63 6.44993 21.44 6.44993C21.4815 6.45404 21.5235 6.44973 21.5633 6.43725C21.6031 6.42476 21.64 6.40437 21.6717 6.37729C21.7035 6.35021 21.7294 6.317 21.748 6.27965C21.7666 6.2423 21.7775 6.20158 21.78 6.15993C21.7831 6.07721 21.755 5.99635 21.7013 5.93337C21.6476 5.87039 21.5722 5.8299 21.49 5.81993C20.69 5.69993 19.9 5.59993 19.09 5.54993H18.09H17.09C16.29 5.61993 15.51 5.76993 14.72 5.87993C14.6805 5.87396 14.6401 5.87684 14.6019 5.88836C14.5636 5.89988 14.5284 5.91974 14.4987 5.94653C14.469 5.97332 14.4457 6.00636 14.4304 6.04326C14.415 6.08016 14.4081 6.12001 14.41 6.15993Z" fill="black"/>
<path d="M7 12C7 11.9151 6.96628 11.8337 6.90627 11.7737C6.84626 11.7137 6.76487 11.68 6.68 11.68C6.23 11.61 5.78 11.53 5.31 11.48C5.11679 11.47 4.9232 11.47 4.73 11.48C4.53346 11.4699 4.33653 11.4699 4.14 11.48C3.67 11.48 3.22 11.62 2.76 11.68C2.68744 11.6799 2.61769 11.708 2.56546 11.7584C2.51323 11.8088 2.48259 11.8775 2.48 11.95C2.47724 11.9871 2.48218 12.0243 2.49451 12.0594C2.50684 12.0946 2.52629 12.1267 2.55164 12.154C2.577 12.1812 2.6077 12.2029 2.64184 12.2177C2.67597 12.2325 2.71279 12.2401 2.75 12.24C3.2 12.33 3.65 12.44 4.12 12.5C4.31637 12.5152 4.51363 12.5152 4.71 12.5C4.90654 12.5099 5.10346 12.5099 5.3 12.5C5.77 12.5 6.22 12.39 6.68 12.33C6.76577 12.3274 6.84716 12.2915 6.9069 12.2299C6.96665 12.1682 7.00004 12.0858 7 12Z" fill="black"/>
<path d="M21.21 11.9299C20.79 11.8699 20.38 11.8199 19.95 11.7999H19.41C19.2319 11.8161 19.0549 11.8428 18.88 11.8799C18.46 11.9799 18.08 12.1299 17.67 12.2699C17.6334 12.2747 17.5981 12.2869 17.5664 12.3059C17.5347 12.3248 17.5072 12.3501 17.4856 12.3801C17.4641 12.4101 17.4489 12.4442 17.4411 12.4803C17.4332 12.5164 17.4328 12.5537 17.44 12.5899C17.4449 12.6255 17.4568 12.6598 17.4751 12.6908C17.4934 12.7217 17.5177 12.7487 17.5466 12.7701C17.5755 12.7916 17.6084 12.807 17.6433 12.8155C17.6782 12.8241 17.7145 12.8256 17.75 12.8199C18.17 12.8199 18.57 12.8899 18.99 12.8899C19.1632 12.8999 19.3368 12.8999 19.51 12.8899L20 12.7999C20.41 12.7299 20.8 12.6299 21.21 12.5599C21.2507 12.5586 21.2908 12.5493 21.3279 12.5325C21.365 12.5158 21.3985 12.4918 21.4263 12.4621C21.4542 12.4324 21.4759 12.3975 21.4903 12.3593C21.5046 12.3212 21.5113 12.2806 21.51 12.2399C21.51 12.1594 21.4788 12.082 21.4228 12.0242C21.3668 11.9663 21.2905 11.9325 21.21 11.9299Z" fill="black"/>
<path d="M21.37 18.87H19.37L18.53 18.94C18.2476 18.9712 17.9672 19.0179 17.69 19.08C17.04 19.22 16.42 19.43 15.79 19.63C15.7543 19.6359 15.7201 19.6491 15.6895 19.6685C15.659 19.688 15.6326 19.7134 15.6121 19.7433C15.5916 19.7731 15.5773 19.8068 15.57 19.8423C15.5628 19.8778 15.5628 19.9144 15.57 19.95C15.5823 20.0227 15.6228 20.0877 15.6827 20.1308C15.7426 20.1738 15.8171 20.1915 15.89 20.18C16.54 20.13 17.18 20.13 17.89 20.09C18.16 20.09 18.44 20.09 18.71 20L19.53 19.87C20.17 19.76 20.8 19.62 21.43 19.52C21.514 19.5123 21.5919 19.4729 21.6476 19.4096C21.7034 19.3464 21.7329 19.2642 21.73 19.18C21.729 19.1352 21.7185 19.0911 21.6994 19.0507C21.6802 19.0102 21.6528 18.9742 21.6189 18.9449C21.585 18.9157 21.5453 18.894 21.5024 18.881C21.4595 18.8681 21.4144 18.8643 21.37 18.87Z" fill="black"/>
<path d="M16.2 13.84C16.2752 13.4574 16.237 13.0611 16.09 12.7C15.8482 12.1965 15.4707 11.7705 15 11.47C14.3375 10.9496 13.5223 10.6614 12.68 10.65C12.3965 10.6521 12.1144 10.689 11.84 10.76C11.6273 9.97144 11.4669 9.16969 11.36 8.35998C11.36 8.08998 11.28 7.80999 11.25 7.52998C12.2244 6.60845 13.1177 5.60475 13.92 4.52998C14.4635 3.6264 14.7312 2.58366 14.69 1.52998C14.6852 1.3167 14.637 1.10663 14.5483 0.9126C14.4596 0.718573 14.3322 0.544659 14.1741 0.401477C14.0159 0.258294 13.8303 0.148847 13.6284 0.0798175C13.4265 0.010788 13.2127 -0.0163757 13 -1.52336e-05C12.4745 0.049626 11.9757 0.255094 11.5677 0.590047C11.1597 0.925 10.861 1.37417 10.71 1.87998C10.2337 3.15718 10.0261 4.51889 10.1 5.87998C10.1 6.35998 10.18 6.87998 10.23 7.33998C9.29694 8.23807 8.54054 9.30314 8 10.48C7.76238 11.0856 7.6633 11.7367 7.71002 12.3856C7.75674 13.0345 7.94807 13.6647 8.27 14.23C8.72408 14.9159 9.3404 15.4793 10.0643 15.87C10.7882 16.2607 11.5974 16.4668 12.42 16.47H12.48C12.54 16.72 12.58 16.98 12.62 17.23C12.8685 18.5487 12.726 19.9113 12.21 21.15C12.0372 21.6056 11.7613 22.0151 11.4039 22.3465C11.0465 22.6778 10.6174 22.922 10.15 23.06C9.16691 23.2862 8.13464 23.1326 7.26 22.63C6.8559 22.3746 6.54946 21.9907 6.39 21.54C6.18665 21.0854 6.1073 20.5851 6.16 20.09C6.21591 19.6221 6.43133 19.1877 6.77 18.86C7.14232 18.5618 7.59475 18.3808 8.07 18.34C8.43596 18.3153 8.80111 18.3987 9.12 18.58C9.51 18.79 9.83 19.05 9.88 19.25C9.90989 19.4793 9.8795 19.7124 9.79181 19.9263C9.70413 20.1402 9.56219 20.3276 9.38 20.47C9.30367 20.5477 9.21263 20.6094 9.11219 20.6515C9.01175 20.6937 8.90392 20.7154 8.795 20.7154C8.68608 20.7154 8.57825 20.6937 8.4778 20.6515C8.37736 20.6094 8.28632 20.5477 8.21 20.47C8.18359 20.4424 8.15183 20.4206 8.11666 20.4057C8.0815 20.3909 8.04367 20.3834 8.0055 20.3837C7.96734 20.384 7.92964 20.3922 7.89473 20.4076C7.85981 20.423 7.82842 20.4454 7.80247 20.4734C7.77653 20.5014 7.75658 20.5344 7.74386 20.5704C7.73113 20.6063 7.7259 20.6445 7.72847 20.6826C7.73105 20.7207 7.74139 20.7579 7.75884 20.7918C7.7763 20.8257 7.80052 20.8557 7.83 20.88C8.07416 21.1449 8.41347 21.3021 8.77345 21.3171C9.13342 21.3321 9.48464 21.2037 9.75 20.96C10.0143 20.7447 10.2192 20.4654 10.3452 20.1486C10.4713 19.8318 10.5142 19.488 10.47 19.15C10.285 18.6531 9.92129 18.243 9.45 18C9.00741 17.757 8.50325 17.6492 8 17.69C7.38552 17.7323 6.79897 17.9627 6.32 18.35C5.85866 18.7858 5.56492 19.3698 5.49 20C5.4011 20.6294 5.48046 21.2712 5.72 21.86C5.94478 22.478 6.3664 23.005 6.92 23.36C7.96356 23.9806 9.20419 24.1808 10.39 23.92C10.9861 23.7608 11.5374 23.4658 12.0006 23.0581C12.4638 22.6504 12.8264 22.1411 13.06 21.57C13.6729 20.1755 13.8675 18.633 13.62 17.13C13.62 16.9 13.55 16.66 13.5 16.43C14.1695 16.3481 14.7945 16.0515 15.2813 15.5846C15.7681 15.1177 16.0904 14.5055 16.2 13.84ZM11.65 2.29998C11.93 1.62998 12.33 1.07998 12.99 1.05998C13.0779 1.04855 13.1672 1.05608 13.2519 1.08207C13.3366 1.10807 13.4148 1.15192 13.4811 1.21067C13.5474 1.26943 13.6004 1.34172 13.6364 1.42268C13.6725 1.50363 13.6907 1.59137 13.69 1.67998C13.7255 2.49448 13.5203 3.30139 13.1 3.99998C12.5268 4.81974 11.8808 5.58618 11.17 6.28998V5.79998C11.0849 4.61263 11.2484 3.42058 11.65 2.29998ZM9.06 13.83C8.73248 13.2004 8.5888 12.4914 8.64539 11.784C8.70198 11.0766 8.95656 10.3995 9.38 9.82998C9.68219 9.37672 10.0164 8.94563 10.38 8.53998C10.5069 9.42013 10.6872 10.2917 10.92 11.15C10.753 11.2567 10.5927 11.3736 10.44 11.5C10.3831 11.5611 10.3514 11.6415 10.3514 11.725C10.3514 11.8085 10.3831 11.8889 10.44 11.95C10.4994 12.0062 10.5782 12.0376 10.66 12.0376C10.7418 12.0376 10.8206 12.0062 10.88 11.95C10.9692 11.8777 11.0627 11.8109 11.16 11.75C11.55 13.01 12.03 14.29 12.38 15.58C11.7257 15.5821 11.0808 15.4236 10.502 15.1185C9.92319 14.8134 9.42805 14.371 9.06 13.83ZM13.33 15.62C12.99 14.2 12.46 12.78 12.05 11.39C12.2697 11.3388 12.4944 11.312 12.72 11.31C13.4166 11.3344 14.0866 11.5834 14.63 12.02C14.9141 12.2284 15.1552 12.4899 15.34 12.79C15.4969 13.0657 15.5501 13.3885 15.49 13.7C15.3844 14.2098 15.1172 14.6719 14.7281 15.0178C14.339 15.3637 13.8487 15.5749 13.33 15.62Z" fill="black"/>
</g>
<defs>
<clipPath id="clip0_1047_6301">
<rect width="24" height="24" fill="white"/>
</clipPath>
</defs>
</svg>
