<svg width="24" height="24" viewBox="0 0 24 24" fill="none" xmlns="http://www.w3.org/2000/svg">
<g clip-path="url(#clip0_1047_6293)">
<path fill-rule="evenodd" clip-rule="evenodd" d="M15.06 13C14.9975 12.9117 14.9171 12.8376 14.8241 12.7825C14.731 12.7274 14.6274 12.6924 14.52 12.68C14.1826 12.6407 13.8408 12.6783 13.52 12.79C12.8069 13.0133 12.1143 13.2977 11.45 13.64C10.72 14.01 10.16 14.35 10.16 14.35C10.0724 14.3994 9.99883 14.4703 9.94633 14.556C9.89382 14.6418 9.8641 14.7395 9.86 14.84L9.96 16.44C10.01 16.86 10.05 17.17 10.09 17.44C10.0119 17.4154 9.92811 17.4154 9.85 17.44C9.40642 17.4014 8.96164 17.4995 8.57548 17.7212C8.18933 17.9429 7.88031 18.2775 7.69 18.68C7.47 19.28 7.69 19.99 8.96 20.28C9.33737 20.327 9.72031 20.2654 10.0639 20.1024C10.4075 19.9395 10.6976 19.6819 10.9 19.36C11.0289 19.1748 11.1061 18.9586 11.1237 18.7336C11.1412 18.5086 11.0986 18.283 11 18.08C11 18.08 11 17.98 11 17.93V16.41V15.18C11.33 15.02 11.91 14.74 12.52 14.47C13.0708 14.19 13.6466 13.9623 14.24 13.79C14.3884 14.1204 14.4667 14.4779 14.47 14.84V16.16C14.4 16.16 14.35 16.08 14.27 16.05C14.189 16.0012 14.0931 15.9834 14 16C13.5575 15.9684 13.1155 16.0695 12.7308 16.2904C12.346 16.5113 12.0358 16.8419 11.84 17.24C11.63 17.85 11.84 18.55 13.11 18.84C13.4717 18.8855 13.8389 18.8313 14.172 18.6833C14.5051 18.5352 14.7914 18.299 15 18C15.1476 17.7319 15.2004 17.4219 15.15 17.12C15.3009 16.2339 15.3911 15.3385 15.42 14.44C15.4279 13.9368 15.3038 13.4403 15.06 13ZM9.14 19C9.03292 18.9849 8.92854 18.9546 8.83 18.91H8.76C8.76 18.91 8.76 18.66 8.91 18.54C9.11646 18.2701 9.40954 18.0794 9.74 18C9.76639 18.0054 9.7936 18.0054 9.82 18C10.09 18.15 10.17 18.34 10.11 18.52C10.0325 18.7028 9.89197 18.8518 9.71399 18.9399C9.53602 19.0279 9.33237 19.0493 9.14 19ZM13.32 17.66C13.2137 17.6416 13.1097 17.6114 13.01 17.57H12.93C12.93 17.57 12.93 17.32 13.08 17.2C13.2936 16.9324 13.5945 16.7483 13.93 16.68H14.01C14.29 16.82 14.37 17.01 14.3 17.2C14.2171 17.3799 14.0733 17.5248 13.894 17.6089C13.7147 17.6931 13.5114 17.7112 13.32 17.66Z" fill="black"/>
<path fill-rule="evenodd" clip-rule="evenodd" d="M20.79 16.8101C19.07 20.8101 18.04 20.9401 16.86 21.0101C15.21 21.1001 12.59 21.1201 10.2 21.0701C8.45 21.0701 6.82 20.9701 5.81 20.8401C4.96 20.7301 4.6 20.7401 3.15 16.4801C2.66398 15.2379 2.32826 13.942 2.15 12.6201C1.97 12.2601 1.44 12.1301 1.47 12.6201C1.58641 14.0253 1.88214 15.4099 2.35 16.7401C2.77139 18.4159 3.4458 20.0176 4.35 21.4901C4.82847 21.7836 5.3702 21.9585 5.93 22.0001C7.80588 22.2111 9.69229 22.3146 11.58 22.3101C13.7233 22.3528 15.8672 22.266 18 22.0501C18.3578 22.0284 18.7032 21.911 19 21.7101C20.1661 20.3643 21.0807 18.8197 21.7 17.1501C22.3272 15.6917 22.7155 14.1419 22.85 12.5601C22.85 12.1401 22.29 12.1601 22.1 12.6801C21.8803 14.1164 21.4383 15.5097 20.79 16.8101Z" fill="black"/>
<path fill-rule="evenodd" clip-rule="evenodd" d="M4.92 5.78004C5.01 5.56004 5.11 5.30004 5.23 5.05004C5.30139 4.87522 5.41472 4.72067 5.56 4.60004C5.8735 4.37412 6.23139 4.21733 6.61 4.14004C7.03137 4.03344 7.46558 3.98632 7.9 4.00004C8.46 4.00004 8.31 3.34004 7.9 3.25004C7.43574 3.15888 6.96033 3.13865 6.49 3.19004C5.94129 3.22751 5.40808 3.38815 4.93 3.66004C4.66235 3.8318 4.43952 4.06492 4.28 4.34004C4.09709 4.65895 3.94314 4.99363 3.82 5.34004C3.69 5.73004 3.57 6.11004 3.46 6.51004C3.28 7.20004 3.22 7.51004 3.06 8.18004C3.06 8.49004 3.7 8.67004 3.91 8.12004L4.92 5.78004Z" fill="black"/>
<path fill-rule="evenodd" clip-rule="evenodd" d="M22.64 8.93005C22.5 8.93005 19.72 8.50005 18.78 8.47005C15.56 8.35005 11.41 8.47005 10.08 8.53005C8.21 8.60005 6.31 8.53005 4.44 8.63005C3.15866 8.65445 1.88542 8.83922 0.65 9.18005C0.572195 9.19912 0.504375 9.24668 0.459938 9.31334C0.415502 9.37999 0.397682 9.46089 0.41 9.54005C0.34784 9.55271 0.290131 9.58158 0.242717 9.62373C0.195303 9.66587 0.159868 9.7198 0.14 9.78005C-0.00557935 10.0598 -0.0531676 10.3803 0.004842 10.6903C0.0628515 11.0003 0.22311 11.2819 0.46 11.49C1.36 12.24 3.89 12.06 3.93 12.06H4.85H6.06H9.81C11.69 12.06 13.56 12.06 15.46 12.13C16.97 12.13 18.64 12.4 20.23 12.32C22.79 12.18 23.83 11.21 23.98 10.7C24.13 10.19 23.68 9.30005 22.64 8.93005ZM22.75 10.44L22.66 10.51C22.4767 10.6311 22.2737 10.7191 22.06 10.77C21.2311 10.9651 20.3815 11.0592 19.53 11.05C18.15 11.05 16.75 10.92 15.47 10.93C13.88 10.93 12.32 10.93 10.75 10.98C9.18 11.03 7.62 11 6 11.1L4.78 11.16L3.86 11.22C2.98174 11.3369 2.08927 11.286 1.23 11.07C1.1316 11.0388 1.04108 10.9867 0.964574 10.9174C0.888065 10.8481 0.827361 10.7631 0.786577 10.6683C0.745793 10.5734 0.725884 10.4709 0.7282 10.3677C0.730516 10.2645 0.755003 10.163 0.8 10.07C0.815129 10.0336 0.822917 9.99451 0.822917 9.95505C0.822917 9.91558 0.815129 9.8765 0.8 9.84005C1.99273 9.57795 3.20893 9.43723 4.43 9.42005C6.31 9.42005 8.2 9.52005 10.07 9.52005C11.39 9.52005 15.51 9.52005 18.69 9.70005C19.8684 9.71381 21.0418 9.85463 22.19 10.12C22.49 10.18 22.91 10.38 22.75 10.44Z" fill="black"/>
<path fill-rule="evenodd" clip-rule="evenodd" d="M22 6.82003C22 6.40003 21.92 6.00003 21.86 5.58003C21.8 5.35003 21.76 4.88003 21.64 4.58003C21.5714 4.32725 21.4286 4.10084 21.23 3.93003C20.7476 3.6057 20.1813 3.42851 19.6 3.42003C18.9315 3.40432 18.2628 3.4411 17.6 3.53003C16.97 3.63003 16.74 4.37003 17.37 4.34003C18 4.31003 18.32 4.42003 19.06 4.49003C19.61 4.49003 20.28 4.49003 20.57 4.69003L21.21 8.30003C21.21 8.76003 22.21 8.71003 22.07 8.30003C21.93 7.89003 22 7.30003 22 6.82003Z" fill="black"/>
<path fill-rule="evenodd" clip-rule="evenodd" d="M9.17 5.00002C10.0765 5.46261 11.073 5.72197 12.09 5.76002C12.8458 5.891 13.6138 5.93795 14.38 5.90002C14.9549 5.85714 15.5109 5.67526 16 5.37002C16.2733 5.17137 16.4962 4.91136 16.6508 4.6109C16.8054 4.31044 16.8873 3.9779 16.89 3.64002C16.8697 3.09827 16.6651 2.57966 16.31 2.17002C16.0806 1.96278 15.8016 1.81813 15.5 1.75002C15.1708 1.68597 14.8349 1.66247 14.5 1.68002H12.58H9.53H9.44C9.39749 1.66276 9.35185 1.65454 9.306 1.65591C9.26014 1.65727 9.21507 1.66818 9.17366 1.68794C9.13226 1.7077 9.09543 1.73588 9.06553 1.77068C9.03563 1.80547 9.01331 1.84612 9 1.89002C8.91 2.07002 8.81 2.26002 8.73 2.45002C8.48932 2.85829 8.40144 3.33875 8.48203 3.80577C8.56261 4.27279 8.80642 4.69602 9.17 5.00002ZM9.28 3.00002L9.46 2.46002H9.55L12.55 2.62002L14.47 2.73002C14.6982 2.73391 14.9257 2.75733 15.15 2.80002C15.2896 2.81837 15.4194 2.88154 15.52 2.98002C15.5972 3.08144 15.6522 3.19794 15.6815 3.32197C15.7108 3.446 15.7137 3.5748 15.69 3.70002C15.6813 3.82208 15.6474 3.94102 15.5907 4.04942C15.5339 4.15782 15.4554 4.25334 15.36 4.33002C15.0281 4.52385 14.654 4.6337 14.27 4.65002C13.6048 4.7127 12.9352 4.7127 12.27 4.65002C11.4067 4.70732 10.5411 4.58122 9.73 4.28002C9.33 4.00002 9.17 3.66002 9.28 3.00002Z" fill="black"/>
</g>
<defs>
<clipPath id="clip0_1047_6293">
<rect width="24" height="24" fill="white"/>
</clipPath>
</defs>
</svg>
