<svg width="24" height="24" viewBox="0 0 24 24" fill="none" xmlns="http://www.w3.org/2000/svg">
<g clip-path="url(#clip0_1044_5326)">
<path fill-rule="evenodd" clip-rule="evenodd" d="M17.1 1.33001C17.0507 1.11409 16.9311 0.920636 16.76 0.780014C15.67 1.40071e-05 13.1 0.180014 7.88 0.380014C7.78983 0.380014 7.70335 0.415835 7.63959 0.479598C7.57582 0.54336 7.54 0.62984 7.54 0.720014C7.54 0.810188 7.57582 0.896668 7.63959 0.96043C7.70335 1.02419 7.78983 1.06001 7.88 1.06001C8.1 1.06001 12.71 0.940014 14.88 1.19001C16.82 1.41001 16.12 1.99001 16.2 2.91001C16.3909 4.51447 16.3471 6.13818 16.07 7.73001C15.92 7.73001 15.64 7.92001 15.32 7.98001C13.96 8.23001 8.42 8.72001 7.26 8.11001C7.04641 6.82496 6.95933 5.52206 7 4.22001C7.13594 3.07516 7.19939 1.92287 7.19 0.770014C7 0.600014 6.71 0.640014 6.6 1.08001C6.6 1.23001 6.6 0.820014 6.26 4.14001C6.11671 5.6312 6.20441 7.13558 6.52 8.60001C6.91 9.33002 8.9 9.42001 9.74 9.46001C9.54009 9.83414 9.49003 10.2703 9.6 10.68L8.85 10.8C8.77044 10.8 8.69413 10.8316 8.63787 10.8879C8.58161 10.9441 8.55 11.0204 8.55 11.1C8.55 11.1796 8.58161 11.2559 8.63787 11.3121C8.69413 11.3684 8.77044 11.4 8.85 11.4C10.6436 11.7674 12.495 11.7469 14.28 11.34C14.3247 11.3367 14.3682 11.3247 14.4082 11.3046C14.4482 11.2844 14.4838 11.2566 14.5131 11.2228C14.5423 11.1889 14.5646 11.1495 14.5787 11.107C14.5927 11.0645 14.5983 11.0197 14.595 10.975C14.5917 10.9304 14.5797 10.8868 14.5596 10.8468C14.5394 10.8068 14.5116 10.7712 14.4777 10.7419C14.4438 10.7127 14.4045 10.6904 14.362 10.6763C14.3195 10.6623 14.2747 10.6567 14.23 10.66H13.61C13.6489 10.2367 13.5943 9.80992 13.45 9.41001C14.3753 9.33889 15.2942 9.20187 16.2 9.00001C16.96 8.80001 17.14 8.51001 17.2 8.06001C17.3562 7.1247 17.4365 6.17828 17.44 5.23001C17.4029 3.92449 17.2894 2.62226 17.1 1.33001ZM10.73 9.48001H12.4C12.3897 9.87873 12.5052 10.2706 12.73 10.6C9.3 10.32 10.94 11.15 10.73 9.48001Z" fill="black"/>
<path fill-rule="evenodd" clip-rule="evenodd" d="M15.62 7.08C15.6302 7.08732 15.6424 7.09126 15.655 7.09126C15.6676 7.09126 15.6798 7.08732 15.69 7.08C15.7394 7.06192 15.7806 7.02677 15.8063 6.98091C15.832 6.93506 15.8404 6.88152 15.83 6.83C15.9 6.65 15.9 6.44 15.63 6.41C13.0533 5.99493 10.4267 5.99493 7.85 6.41C7.25 6.8 7.43 7.02 7.85 7.19C10.4401 7.29623 13.034 7.25951 15.62 7.08Z" fill="black"/>
<path d="M9.63 19C9.69 18.82 9.7 18.61 9.43 18.57C6.84957 18.1593 4.22043 18.1593 1.64 18.57C0.9 18.93 1.11 19.16 1.64 19.35H2.84C3.86506 19.4314 4.89494 19.4314 5.92 19.35C7.11074 19.2537 8.30574 19.2203 9.5 19.25C9.5475 19.2302 9.58652 19.1942 9.61028 19.1486C9.63403 19.1029 9.64101 19.0503 9.63 19Z" fill="black"/>
<path d="M10.9 13.47C10.8474 13.2526 10.7286 13.057 10.56 12.91C9.47 12.1 6.9 12.32 1.68 12.52C1.58983 12.52 1.50335 12.5558 1.43959 12.6196C1.37582 12.6834 1.34 12.7698 1.34 12.86C1.34 12.9502 1.37582 13.0367 1.43959 13.1004C1.50335 13.1642 1.58983 13.2 1.68 13.2C1.9 13.2 6.51 13.07 8.68 13.32C10.62 13.54 9.92 14.12 10 15.04C10.1915 16.6444 10.1477 18.2682 9.87 19.86C9.72 19.86 9.43 20.05 9.12 20.11C7.77 20.36 2.23 20.86 1.06 20.25C0.823641 18.9673 0.716438 17.6641 0.740003 16.36C0.899257 15.2133 0.986096 14.0577 1 12.9C0.830003 12.73 0.520003 12.77 0.410003 13.22C0.410003 13.36 0.410003 12.96 0.0700031 16.28C-0.0733752 17.7679 0.014329 19.269 0.330003 20.73C0.720003 21.46 2.71 21.56 3.55 21.6C3.35072 21.9707 3.30064 22.4036 3.41 22.81L2.66 22.93C2.58858 22.943 2.52397 22.9806 2.47745 23.0364C2.43094 23.0921 2.40546 23.1624 2.40546 23.235C2.40546 23.3076 2.43094 23.3779 2.47745 23.4336C2.52397 23.4894 2.58858 23.527 2.66 23.54C4.45346 23.9086 6.30513 23.8881 8.09 23.48C8.17143 23.4661 8.24531 23.4238 8.29857 23.3607C8.35184 23.2976 8.38105 23.2176 8.38105 23.135C8.38105 23.0524 8.35184 22.9725 8.29857 22.9093C8.24531 22.8462 8.17143 22.8039 8.09 22.79H7.47C7.50829 22.3667 7.45368 21.9401 7.31 21.54C8.21669 21.4685 9.11621 21.3247 10 21.11C10.76 20.91 10.94 20.62 11 20.18C11.1566 19.2414 11.2369 18.2916 11.24 17.34C11.2022 16.0445 11.0887 14.7523 10.9 13.47ZM4.53 21.62H6.2C6.18838 22.0158 6.30405 22.4049 6.53 22.73C3.1 22.46 4.74 23.28 4.53 21.62Z" fill="black"/>
<path fill-rule="evenodd" clip-rule="evenodd" d="M23.81 14.94C23.73 14.29 23.81 13.27 23.28 12.94C22.28 12.23 20.5 12.44 19.18 12.39C17.61 12.39 15.96 12.49 14.41 12.55C14.3198 12.55 14.2334 12.5858 14.1696 12.6496C14.1058 12.7134 14.07 12.7998 14.07 12.89C14.07 12.9802 14.1058 13.0667 14.1696 13.1304C14.2334 13.1942 14.3198 13.23 14.41 13.23C15.96 13.23 17.54 13.13 19.13 13.23C19.79 13.23 20.67 13.23 21.44 13.34C23.38 13.56 22.68 14.14 22.76 15.06C22.9532 16.6644 22.9094 18.2884 22.63 19.88C22.48 19.88 22.2 20.07 21.88 20.13C20.36 20.41 14.97 20.87 13.82 20.27C13.34 19.18 13.57 15.39 13.66 14.09C13.6998 13.701 13.6998 13.309 13.66 12.92C13.6022 12.8644 13.5252 12.8333 13.445 12.8333C13.3648 12.8333 13.2878 12.8644 13.23 12.92C12.99 13.16 13.03 13.74 12.99 14C12.717 15.6181 12.6231 17.2614 12.71 18.9C12.7321 19.5195 12.8295 20.134 13 20.73C13.4 21.46 15.38 21.56 16.22 21.6C16.0231 21.9717 15.9766 22.4049 16.09 22.81L15.34 22.93C15.2686 22.943 15.204 22.9806 15.1575 23.0364C15.1109 23.0921 15.0855 23.1624 15.0855 23.235C15.0855 23.3076 15.1109 23.3779 15.1575 23.4336C15.204 23.4894 15.2686 23.527 15.34 23.54C17.1335 23.908 18.9851 23.8875 20.77 23.48C20.8514 23.4661 20.9253 23.4238 20.9786 23.3607C21.0318 23.2976 21.0611 23.2176 21.0611 23.135C21.0611 23.0524 21.0318 22.9725 20.9786 22.9093C20.9253 22.8462 20.8514 22.8039 20.77 22.79H20.14C20.1907 22.355 20.1428 21.9141 20 21.5C24.27 21.15 23.72 20.66 23.93 18.99C24.0547 17.6402 24.0144 16.2801 23.81 14.94ZM17.25 21.62H18.92C18.9077 22.0159 19.0234 22.4052 19.25 22.73C15.82 22.46 17.46 23.28 17.25 21.62Z" fill="black"/>
<path fill-rule="evenodd" clip-rule="evenodd" d="M22.19 19.22C22.2439 19.2037 22.2899 19.1683 22.3194 19.1204C22.3488 19.0725 22.3597 19.0154 22.35 18.96C22.42 18.78 22.42 18.57 22.15 18.53C19.625 18.114 17.0503 18.0971 14.52 18.48C13.78 18.71 13.97 18.99 14.52 19.29C20.81 19.52 16.75 19.22 22.19 19.22Z" fill="black"/>
</g>
<defs>
<clipPath id="clip0_1044_5326">
<rect width="24" height="24" fill="white"/>
</clipPath>
</defs>
</svg>
