<svg width="24" height="24" viewBox="0 0 24 24" fill="none" xmlns="http://www.w3.org/2000/svg">
<g clip-path="url(#clip0_1044_5358)">
<path fill-rule="evenodd" clip-rule="evenodd" d="M22.47 15C21.4965 14.8195 20.5099 14.7191 19.52 14.7C19.5391 13.9668 19.6025 13.2355 19.71 12.51C19.7512 11.2734 19.6336 10.0366 19.36 8.82999C19.36 8.73186 19.321 8.63775 19.2516 8.56836C19.1822 8.49897 19.0881 8.45999 18.99 8.45999C18.8919 8.45999 18.7978 8.49897 18.7284 8.56836C18.659 8.63775 18.62 8.73186 18.62 8.82999C18.3862 10.777 18.4367 12.7476 18.77 14.68C4.06 14.3 6.28 15.19 6.08 14.68C5.88 14.17 6.36 13.14 6.28 11.53L5.92 9.15999C5.92 9.06186 5.88101 8.96775 5.81163 8.89836C5.74224 8.82897 5.64813 8.78999 5.55 8.78999C5.45187 8.78999 5.35776 8.82897 5.28837 8.89836C5.21898 8.96775 5.18 9.06186 5.18 9.15999C5.1 10.55 4.83 13.59 5.46 14.83C4.61 14.9 3.31 14.88 2.27 15.05C0.199997 15.4 0.419997 16.13 0.409997 17.25C0.409997 17.88 0.329997 18.74 0.329997 19.13C0.321191 19.2579 0.357343 19.3849 0.432205 19.4889C0.507068 19.593 0.615936 19.6677 0.739997 19.7C0.837329 19.6975 0.929978 19.6577 0.998825 19.5888C1.06767 19.52 1.10747 19.4273 1.11 19.33C1.11 17.81 1.11 18.54 1.19 17.27C1.19 17.01 1.19 16.34 1.28 16.27C2.03 15.71 4.46 15.86 5.58 15.79C7.7 15.65 9.23 15.64 11.08 15.65C11.02 16.41 11.08 18.2 11.7 18.7C12.32 19.2 17.6 18.87 19.45 18.63C19.5837 18.6239 19.7141 18.5863 19.8305 18.5202C19.9469 18.4542 20.0461 18.3616 20.12 18.25C20.2958 17.5137 20.3465 16.7531 20.27 16C20.942 16.0126 21.6114 16.0862 22.27 16.22C22.5091 17.3642 22.4817 18.5481 22.19 19.68C22.09 19.68 3.05 20.49 1.87 20.44C0.689997 20.39 0.869997 20.08 0.589997 20.19C0.309997 20.3 0.309997 20.85 1.07 21.03C1.57463 21.1216 2.08725 21.1618 2.6 21.15L2.35 21.66C2.17 22.09 1.86 23.91 2.48 23.91C3.25 24.07 3.33 21.21 3.36 21.12C6.25 21 14 21.08 18.74 21C18.85 22.24 19.57 24 19.87 24C19.9673 23.9975 20.06 23.9577 20.1288 23.8888C20.1977 23.82 20.2375 23.7273 20.24 23.63C20.3412 23.1784 20.3455 22.7104 20.2524 22.257C20.1593 21.8036 19.971 21.3752 19.7 21C20.81 21.0679 21.9237 20.9599 23 20.68C23.73 20.14 23.67 17.86 23.54 16.96C23.41 16.06 23.8 15.33 22.47 15ZM19.28 17.56C18.4521 17.6336 17.6202 17.6503 16.79 17.61C13.89 17.61 14.02 17.74 12.16 17.75C11.9339 17.0739 11.7961 16.3714 11.75 15.66C14.96 15.66 17.19 15.83 19.45 15.96C19.445 16.4909 19.3881 17.0201 19.28 17.54V17.56Z" fill="black"/>
<path fill-rule="evenodd" clip-rule="evenodd" d="M16.92 6.88999C16.886 6.92245 16.8594 6.96178 16.8419 7.00536C16.8244 7.04893 16.8163 7.09575 16.8184 7.14267C16.8204 7.1896 16.8324 7.23555 16.8536 7.27746C16.8748 7.31937 16.9047 7.35628 16.9413 7.38571C16.9779 7.41514 17.0204 7.43641 17.0658 7.44811C17.1113 7.45981 17.1588 7.46167 17.2051 7.45355C17.2513 7.44544 17.2953 7.42754 17.3341 7.40106C17.3729 7.37458 17.4056 7.34012 17.43 7.29999C17.6308 7.11774 17.8891 7.01159 18.16 6.99999C18.5935 6.92516 19.0365 6.92516 19.47 6.99999C19.7817 7.09861 20.0707 7.25839 20.32 7.46999C20.381 7.5469 20.47 7.59643 20.5676 7.60769C20.6651 7.61894 20.7631 7.59099 20.84 7.52999C20.9169 7.46899 20.9664 7.37994 20.9777 7.28242C20.9889 7.1849 20.961 7.0869 20.9 7.00999C19.92 5.32999 17.81 5.20999 16.92 6.88999Z" fill="black"/>
<path fill-rule="evenodd" clip-rule="evenodd" d="M3.35 7.28001C3.30839 7.34842 3.29308 7.42963 3.30691 7.5085C3.32074 7.58736 3.36278 7.65851 3.42519 7.70868C3.48759 7.75885 3.56611 7.78462 3.64611 7.78118C3.7261 7.77775 3.80212 7.74534 3.86 7.69001C4.05176 7.48719 4.31179 7.36252 4.59 7.34001C5.0286 7.29477 5.47171 7.32522 5.9 7.43001C6.21521 7.52044 6.50582 7.68113 6.75 7.90001C6.811 7.97692 6.90005 8.02645 6.99757 8.03771C7.09509 8.04896 7.19309 8.02101 7.27 7.96001C7.34691 7.89901 7.39644 7.80996 7.4077 7.71244C7.41895 7.61492 7.391 7.51692 7.33 7.44001C6.36 5.73001 4.26 5.57001 3.35 7.28001Z" fill="black"/>
<path fill-rule="evenodd" clip-rule="evenodd" d="M22.32 5.49C22.3886 5.43003 22.4326 5.34688 22.4437 5.25647C22.4547 5.16606 22.4321 5.07474 22.38 5C21.1 3.05 19 2.16 16.87 3.32C16.361 3.60399 15.8988 3.96491 15.5 4.39C15.2 4.71 15.68 5.16 15.97 4.85C16.5039 4.49013 17.1061 4.24404 17.7392 4.12705C18.3724 4.01006 19.0228 4.02468 19.65 4.17C21.62 4.67 21.79 5.91 22.32 5.49Z" fill="black"/>
<path fill-rule="evenodd" clip-rule="evenodd" d="M8.81 5.36001C7.54 3.44001 5.47 2.54001 3.3 3.71001C2.78825 3.98991 2.32552 4.35131 1.93 4.78001C1.87013 4.84161 1.83664 4.92412 1.83664 5.01001C1.83664 5.09591 1.87013 5.17842 1.93 5.24001C2.21 5.51001 2.38 5.16001 3 4.88001C3.8561 4.45733 4.82526 4.32053 5.76491 4.48974C6.70457 4.65895 7.56512 5.12524 8.22 5.82001C8.281 5.89825 8.37058 5.94906 8.46903 5.96125C8.56749 5.97344 8.66676 5.94601 8.745 5.88501C8.82324 5.82401 8.87404 5.73443 8.88623 5.63598C8.89842 5.53752 8.871 5.43825 8.81 5.36001Z" fill="black"/>
<path fill-rule="evenodd" clip-rule="evenodd" d="M14.81 3C16.09 1.06 19.81 0.780002 21.5 1.91C22.0489 2.24077 22.553 2.64071 23 3.1C23.061 3.17691 23.1501 3.22645 23.2476 3.2377C23.3451 3.24895 23.4431 3.221 23.52 3.16C23.5969 3.099 23.6464 3.00995 23.6577 2.91243C23.6689 2.81491 23.641 2.71691 23.58 2.64C23.1481 2.07663 22.6476 1.56937 22.09 1.13C21.4928 0.658493 20.8005 0.32215 20.0607 0.144178C19.321 -0.0337941 18.5514 -0.049158 17.8051 0.0991462C17.0589 0.24745 16.3536 0.555892 15.7381 1.00319C15.1226 1.45049 14.6115 2.026 14.24 2.69C14.2162 2.76328 14.2188 2.84257 14.2473 2.91413C14.2759 2.98569 14.3285 3.04502 14.3962 3.08183C14.4639 3.11864 14.5423 3.1306 14.6179 3.11566C14.6935 3.10071 14.7614 3.0598 14.81 3Z" fill="black"/>
<path fill-rule="evenodd" clip-rule="evenodd" d="M1.23999 3.40001C2.51999 1.46001 6.23999 1.18001 7.92999 2.31001C8.47757 2.63485 8.98161 3.028 9.42999 3.48001C9.46151 3.51743 9.50009 3.54829 9.54353 3.5708C9.58697 3.59332 9.63442 3.60706 9.68317 3.61124C9.73192 3.61542 9.78102 3.60995 9.82766 3.59516C9.8743 3.58036 9.91757 3.55652 9.95499 3.52501C9.99242 3.49349 10.0233 3.45491 10.0458 3.41147C10.0683 3.36803 10.082 3.32058 10.0862 3.27183C10.0904 3.22308 10.0849 3.17398 10.0701 3.12734C10.0553 3.0807 10.0315 3.03743 9.99999 3.00001C9.56262 2.44441 9.06265 1.94109 8.50999 1.50001C7.91239 1.02943 7.21968 0.694336 6.47978 0.517906C5.73989 0.341476 4.9705 0.327927 4.22486 0.478197C3.47922 0.628467 2.77513 0.938967 2.16133 1.38821C1.54753 1.83745 1.03868 2.4147 0.669994 3.08001C0.64097 3.15416 0.639738 3.2363 0.666525 3.31129C0.693311 3.38628 0.74631 3.44906 0.815747 3.48804C0.885183 3.52702 0.966373 3.53958 1.04434 3.5234C1.12231 3.50722 1.1918 3.4634 1.23999 3.40001Z" fill="black"/>
<path fill-rule="evenodd" clip-rule="evenodd" d="M4.09999 18.67C4.26113 18.3627 4.33055 18.0156 4.3 17.67C4.3 17.45 3.99 16.79 3.77 16.76C3.24 16.44 2.67 19.01 3.77 19.01C3.85609 19.0009 3.93626 18.9619 3.99656 18.8998C4.05685 18.8376 4.09346 18.7563 4.09999 18.67Z" fill="black"/>
<path fill-rule="evenodd" clip-rule="evenodd" d="M6.61 18.67C6.77622 18.3646 6.84596 18.0159 6.81 17.67C6.81 17.45 6.51 16.79 6.28 16.76C5.75 16.44 5.19 19.01 6.28 19.01C6.36684 19.0029 6.44814 18.9645 6.50882 18.9019C6.5695 18.8394 6.60545 18.757 6.61 18.67Z" fill="black"/>
</g>
<defs>
<clipPath id="clip0_1044_5358">
<rect width="24" height="24" fill="white"/>
</clipPath>
</defs>
</svg>
