<svg width="24" height="24" viewBox="0 0 24 24" fill="none" xmlns="http://www.w3.org/2000/svg">
<g clip-path="url(#clip0_1044_5300)">
<path fill-rule="evenodd" clip-rule="evenodd" d="M23.81 9.99999C23.6823 9.6564 23.4384 9.36832 23.1206 9.18568C22.8028 9.00303 22.4312 8.93734 22.07 8.99999C21.6329 9.12646 21.2542 9.40255 21 9.77999C20.8952 9.93585 20.8174 10.1083 20.77 10.29H20.6C20.4972 10.2747 20.3928 10.2747 20.29 10.29C20.1872 10.2754 20.0828 10.2754 19.98 10.29C19.93 10.29 19.9 10.29 19.86 10.34C19.79 10.11 19.74 9.86999 19.66 9.63999C19.3736 8.85509 18.9504 8.12716 18.41 7.48999C17.8767 6.89864 17.2642 6.38378 16.59 5.95999C16.6716 5.88132 16.7484 5.79784 16.82 5.70999C16.8934 5.63342 16.9542 5.54565 17 5.44999C17.0134 5.3672 17.0134 5.28278 17 5.19999C17.0103 5.10694 17.0103 5.01304 17 4.91999C17.153 4.93497 17.307 4.93497 17.46 4.91999C17.806 4.81459 18.1061 4.59507 18.3113 4.29724C18.5165 3.99941 18.6147 3.64083 18.59 3.27999C18.6058 2.95462 18.5173 2.63272 18.3374 2.36113C18.1576 2.08954 17.8957 1.88245 17.59 1.76999C17.5447 1.7522 17.4963 1.74351 17.4477 1.74444C17.399 1.74537 17.351 1.75589 17.3064 1.7754C17.2618 1.7949 17.2215 1.82302 17.1878 1.85812C17.1541 1.89323 17.1277 1.93464 17.11 1.97999C17.0922 2.02529 17.0835 2.07365 17.0845 2.12231C17.0854 2.17097 17.0959 2.21897 17.1154 2.26356C17.1349 2.30815 17.163 2.34845 17.1981 2.38216C17.2332 2.41586 17.2747 2.44231 17.32 2.45999C17.4135 2.52299 17.488 2.61028 17.5356 2.71247C17.5832 2.81467 17.602 2.9279 17.59 3.03999C17.59 3.32999 17.51 3.67999 17.25 3.69999C17.1265 3.71924 17.0004 3.71227 16.8798 3.67953C16.7592 3.6468 16.6468 3.58903 16.55 3.50999C16.3999 3.41117 16.2845 3.26778 16.22 3.09999C16.182 2.95276 16.1985 2.79675 16.2665 2.66074C16.3345 2.52473 16.4494 2.41791 16.59 2.35999C16.6697 2.33054 16.735 2.27149 16.7723 2.19511C16.8095 2.11874 16.8159 2.03093 16.79 1.94999C16.7625 1.86844 16.7043 1.80084 16.6277 1.76161C16.5511 1.72239 16.4622 1.71463 16.38 1.73999C16.1655 1.77833 15.9625 1.8652 15.7867 1.99397C15.6108 2.12275 15.4668 2.29 15.3654 2.48297C15.2641 2.67594 15.2083 2.88952 15.2021 3.10738C15.196 3.32523 15.2397 3.54162 15.33 3.73999C15.4684 4.09793 15.7171 4.40259 16.04 4.60999C15.9853 4.65139 15.9351 4.6983 15.89 4.74999C15.8397 4.81565 15.8023 4.89032 15.78 4.96999C15.7417 5.04839 15.718 5.1331 15.71 5.21999V5.39999C14.7992 4.94507 13.8192 4.64433 12.81 4.50999C10.8983 4.25592 8.96027 4.71905 7.37 5.80999C7.35807 5.62811 7.33131 5.44751 7.29 5.26999C7.24272 5.1539 7.18932 5.04041 7.13 4.92999C7.06572 4.82931 6.9956 4.73247 6.92 4.63999C6.84099 4.54599 6.754 4.459 6.66 4.37999H6.73C6.95894 4.09699 7.08384 3.744 7.08384 3.37999C7.08384 3.01598 6.95894 2.66299 6.73 2.37999C6.56415 2.10314 6.31603 1.88496 6.02024 1.75589C5.72446 1.62682 5.39576 1.59329 5.08 1.65999C4.98469 1.6815 4.90175 1.73983 4.8493 1.82227C4.79684 1.9047 4.77912 2.00454 4.8 2.09999C4.8094 2.14785 4.82843 2.1933 4.85593 2.23358C4.88343 2.27386 4.91883 2.30813 4.95997 2.33431C5.00112 2.3605 5.04716 2.37805 5.0953 2.3859C5.14344 2.39375 5.19266 2.39174 5.24 2.37999C5.35141 2.38639 5.45939 2.42093 5.55382 2.48039C5.64826 2.53985 5.72608 2.62228 5.78 2.71999C5.95 2.95999 6.07 3.29999 5.86 3.45999C5.76803 3.54529 5.65888 3.60994 5.53987 3.64961C5.42087 3.68928 5.29476 3.70304 5.17 3.68999C4.99476 3.68444 4.82475 3.62892 4.68 3.52999C4.56198 3.43214 4.48512 3.29344 4.46474 3.14149C4.44436 2.98954 4.48194 2.83548 4.57 2.70999C4.62254 2.64084 4.6457 2.55378 4.63447 2.46767C4.62323 2.38156 4.57851 2.30334 4.51 2.24999C4.47657 2.22425 4.43837 2.20538 4.39761 2.19446C4.35686 2.18354 4.31434 2.18079 4.27252 2.18637C4.23069 2.19195 4.19039 2.20574 4.15391 2.22696C4.11744 2.24817 4.08552 2.27639 4.06 2.30999C3.89996 2.45949 3.77667 2.64399 3.69977 2.84905C3.62287 3.05411 3.59445 3.27418 3.61672 3.49206C3.63899 3.70993 3.71135 3.9197 3.82815 4.10496C3.94495 4.29022 4.10302 4.44596 4.29 4.55999C4.64497 4.81996 5.08134 4.94413 5.52 4.90999C5.6 4.90999 5.67 4.90999 5.75 4.84999C5.77739 4.9857 5.81415 5.11935 5.86 5.24999C5.9016 5.34902 5.94833 5.44582 6 5.53999C6.05138 5.64635 6.11884 5.74417 6.2 5.82999C6.35 6.00999 6.51 6.14999 6.67 6.30999C6.28968 6.64979 5.9537 7.03617 5.67 7.45999C5.37584 7.95062 5.1249 8.46589 4.92 8.99999C4.90293 9.03873 4.89365 9.08045 4.89271 9.12278C4.89176 9.1651 4.89916 9.2072 4.91448 9.24666C4.9298 9.28613 4.95275 9.32219 4.982 9.35278C5.01126 9.38338 5.04626 9.40792 5.085 9.42499C5.12374 9.44206 5.16546 9.45133 5.20779 9.45228C5.25011 9.45323 5.29221 9.44583 5.33167 9.43051C5.37114 9.41519 5.4072 9.39224 5.4378 9.36298C5.46839 9.33373 5.49293 9.29873 5.51 9.25999C6.07722 7.88828 7.11056 6.76091 8.42781 6.07667C9.74505 5.39244 11.2616 5.19529 12.71 5.51999C14.5915 5.80932 16.3023 6.77674 17.52 8.23999C19.74 10.97 19.28 15.45 16.28 17.36C12.45 19.78 7.16 18.71 5.63 14.75C5.21121 13.4565 5.15586 12.0728 5.47 10.75C5.4915 10.6547 5.47544 10.5547 5.42515 10.4709C5.37487 10.3871 5.29424 10.3259 5.2 10.3C5.15272 10.288 5.10354 10.2855 5.05529 10.2926C5.00704 10.2997 4.96067 10.3163 4.91885 10.3414C4.87703 10.3665 4.84058 10.3996 4.8116 10.4388C4.78263 10.4781 4.76169 10.5226 4.75 10.57C4.75 10.77 4.68 10.94 4.64 11.13C4.46147 11.048 4.27774 10.9779 4.09 10.92C3.98693 10.9096 3.88307 10.9096 3.78 10.92C3.6769 10.9103 3.5731 10.9103 3.47 10.92H3.4C3.35942 10.6786 3.25203 10.4534 3.09 10.27C2.77026 9.96584 2.3589 9.77598 1.92 9.72999C1.47972 9.69502 1.04195 9.82315 0.690001 10.09C0.503174 10.2029 0.34512 10.3577 0.228289 10.5421C0.111458 10.7265 0.0390413 10.9355 0.0167436 11.1527C-0.00555409 11.3698 0.0228763 11.5892 0.0997952 11.7935C0.176714 11.9978 0.30002 12.1815 0.460001 12.33C0.485575 12.365 0.518011 12.3945 0.555337 12.4167C0.592663 12.4388 0.634098 12.4531 0.677125 12.4587C0.720152 12.4643 0.763871 12.4611 0.805624 12.4493C0.847376 12.4375 0.886291 12.4173 0.920001 12.39C0.977625 12.3273 1.0096 12.2452 1.0096 12.16C1.0096 12.0748 0.977625 11.9927 0.920001 11.93C0.832573 11.8061 0.795315 11.6536 0.815723 11.5034C0.836131 11.3531 0.912691 11.2161 1.03 11.12C1.19 11.017 1.38146 10.9745 1.57 11C1.69498 10.9819 1.82246 10.9933 1.94227 11.0332C2.06207 11.0731 2.17088 11.1405 2.26 11.23C2.47 11.38 2.35 11.72 2.18 11.96C2.01 12.2 1.87 12.33 1.64 12.3C1.59266 12.2882 1.54343 12.2862 1.4953 12.2941C1.44716 12.3019 1.40112 12.3195 1.35997 12.3457C1.31883 12.3718 1.28343 12.4061 1.25593 12.4464C1.22843 12.4867 1.2094 12.5321 1.2 12.58C1.17912 12.6754 1.19684 12.7753 1.2493 12.8577C1.30175 12.9401 1.38469 12.9985 1.48 13.02C1.79476 13.0907 2.12382 13.0601 2.42016 12.9326C2.7165 12.8051 2.96495 12.5872 3.13 12.31C3.18155 12.2103 3.22502 12.1066 3.26 12L3.45 12.07C3.55642 12.0804 3.66359 12.0804 3.77 12.07C3.8731 12.0798 3.9769 12.0798 4.08 12.07C4.22148 12.0566 4.36184 12.0332 4.5 12C4.38458 13.0121 4.49734 14.0372 4.83 15C5.29237 16.165 6.03826 17.1962 7 18C7 18 6.91 18.08 6.87 18.13C6.79419 18.2179 6.73031 18.3154 6.68 18.42C6.62401 18.5272 6.57394 18.6373 6.53 18.75C6.53 18.88 6.46 19.02 6.42 19.15L6.2 19.09C5.76811 19.0742 5.34407 19.2085 5 19.47C4.81302 19.584 4.65495 19.7398 4.53815 19.925C4.42135 20.1103 4.34899 20.32 4.32672 20.5379C4.30445 20.7558 4.33287 20.9759 4.40977 21.1809C4.48667 21.386 4.60996 21.5705 4.77 21.72C4.82336 21.7885 4.90157 21.8332 4.98768 21.8445C5.07379 21.8557 5.16085 21.8325 5.23 21.78C5.29639 21.7252 5.3395 21.6472 5.35064 21.5618C5.36177 21.4764 5.3401 21.39 5.29 21.32C5.19846 21.1965 5.15781 21.0426 5.17641 20.89C5.19502 20.7375 5.27147 20.5978 5.39 20.5C5.53655 20.4048 5.70549 20.3496 5.88 20.34C6.00483 20.3256 6.1313 20.3387 6.25051 20.3785C6.36972 20.4182 6.47878 20.4836 6.57 20.57C6.78 20.73 6.66 21.07 6.49 21.31C6.43841 21.4096 6.36116 21.4936 6.26623 21.5534C6.1713 21.6132 6.06213 21.6465 5.95 21.65C5.90266 21.6382 5.85344 21.6362 5.8053 21.6441C5.75716 21.6519 5.71112 21.6695 5.66997 21.6957C5.62883 21.7218 5.59343 21.7561 5.56593 21.7964C5.53843 21.8367 5.5194 21.8821 5.51 21.93C5.48912 22.0254 5.50684 22.1253 5.5593 22.2077C5.61175 22.2901 5.69469 22.3485 5.79 22.37C6.10579 22.4382 6.43505 22.4054 6.73116 22.2762C7.02728 22.147 7.27526 21.9279 7.44 21.65C7.6707 21.3678 7.79673 21.0145 7.79673 20.65C7.79673 20.2855 7.6707 19.9322 7.44 19.65H7.38L7.63 19.39C7.71435 19.3008 7.78511 19.1998 7.84 19.09C7.90522 18.9862 7.95887 18.8755 8 18.76C8.61072 19.1602 9.28803 19.448 10 19.61C10.5161 19.7184 11.0427 19.7687 11.57 19.76C11.6189 19.7747 11.6711 19.7747 11.72 19.76H12.49C13.8671 19.6763 15.2119 19.3086 16.44 18.68C16.435 18.7399 16.435 18.8001 16.44 18.86C16.4458 18.9429 16.4661 19.0241 16.5 19.1C16.5245 19.1788 16.5616 19.2531 16.61 19.32C16.66 19.38 16.72 19.42 16.77 19.47C16.4447 19.6747 16.1953 19.9802 16.06 20.34C15.9677 20.5347 15.9209 20.7478 15.9231 20.9632C15.9253 21.1787 15.9766 21.3908 16.0729 21.5835C16.1693 21.7762 16.3082 21.9445 16.4793 22.0756C16.6503 22.2066 16.8489 22.297 17.06 22.34C17.1436 22.3657 17.2339 22.3582 17.3121 22.3191C17.3903 22.28 17.4504 22.2123 17.48 22.13C17.5054 22.0478 17.4976 21.9589 17.4584 21.8823C17.4191 21.8057 17.3516 21.7475 17.27 21.72C17.1285 21.6638 17.013 21.5568 16.9464 21.4198C16.8798 21.2829 16.8668 21.126 16.91 20.98C16.9706 20.8129 17.0826 20.6694 17.23 20.57C17.3268 20.4909 17.4392 20.4332 17.5598 20.4004C17.6804 20.3677 17.8065 20.3607 17.93 20.38C18.2 20.38 18.28 20.75 18.27 21.04C18.2809 21.1509 18.2627 21.2628 18.2171 21.3645C18.1715 21.4663 18.1001 21.5543 18.01 21.62C17.9183 21.6559 17.8441 21.726 17.803 21.8155C17.762 21.9051 17.7573 22.0071 17.79 22.1C17.8077 22.1453 17.8341 22.1867 17.8678 22.2219C17.9015 22.257 17.9418 22.2851 17.9864 22.3046C18.031 22.3241 18.079 22.3346 18.1277 22.3355C18.1763 22.3365 18.2247 22.3278 18.27 22.31C18.5739 22.1949 18.834 21.9872 19.0135 21.7162C19.1929 21.4453 19.2827 21.1247 19.27 20.8C19.2955 20.4388 19.1962 20.0798 18.9887 19.7831C18.7812 19.4864 18.478 19.2699 18.13 19.17C17.9807 19.1502 17.8293 19.1502 17.68 19.17V18.89C17.6687 18.8025 17.6416 18.7178 17.6 18.64C17.5703 18.5594 17.5263 18.4849 17.47 18.42C17.4113 18.3367 17.3443 18.2597 17.27 18.19C18.4945 17.3462 19.4024 16.1181 19.85 14.7C19.9811 14.2796 20.0716 13.8476 20.12 13.41C20.1711 12.9418 20.1878 12.4706 20.17 12C20.17 11.81 20.12 11.62 20.09 11.43C20.1764 11.44 20.2636 11.44 20.35 11.43C20.4464 11.4397 20.5436 11.4397 20.64 11.43L20.81 11.38C20.8499 11.5639 20.9277 11.7374 21.0386 11.8894C21.1494 12.0414 21.2909 12.1686 21.4538 12.2627C21.6166 12.3569 21.7974 12.416 21.9845 12.4362C22.1715 12.4564 22.3608 12.4372 22.54 12.38C22.5822 12.3739 22.6229 12.3595 22.6594 12.3375C22.696 12.3154 22.7278 12.2864 22.753 12.2519C22.7781 12.2174 22.7961 12.1782 22.8059 12.1367C22.8157 12.0952 22.8171 12.0521 22.81 12.01C22.7976 11.926 22.7532 11.8499 22.6862 11.7978C22.6191 11.7456 22.5345 11.7214 22.45 11.73C22.2973 11.745 22.1445 11.7018 22.0222 11.6091C21.8998 11.5164 21.8169 11.3811 21.79 11.23C21.7731 11.0559 21.8116 10.8809 21.9 10.73C21.9486 10.6137 22.0222 10.5096 22.1155 10.4249C22.2088 10.3403 22.3196 10.2771 22.44 10.24C22.68 10.14 22.92 10.42 23.04 10.68C23.0962 10.7773 23.1257 10.8876 23.1257 11C23.1257 11.1123 23.0962 11.2227 23.04 11.32C22.9716 11.3892 22.9332 11.4827 22.9332 11.58C22.9332 11.6773 22.9716 11.7707 23.04 11.84C23.1109 11.909 23.206 11.9476 23.305 11.9476C23.404 11.9476 23.4991 11.909 23.57 11.84C23.8046 11.6011 23.9549 11.2922 23.9982 10.9602C24.0415 10.6282 23.9755 10.2911 23.81 9.99999Z" fill="black"/>
<path fill-rule="evenodd" clip-rule="evenodd" d="M8.54 9.04998C8.54 9.22998 8.43 9.40998 8.4 9.58998C8.26999 10.3638 8.19314 11.1456 8.17 11.93L6.3 12C5.46 12 5.3 12.57 6.3 12.79L8.19 12.96C8.21124 13.7095 8.29824 14.4557 8.45 15.19C8.15978 15.2774 7.8758 15.3843 7.6 15.51C6.72 16.08 7.31 16.59 7.78 16.41C8.25 16.23 8.42 16.24 8.78 16.17C8.91718 16.6262 9.10501 17.0656 9.34 17.48C9.46 18.01 10.34 18.4 10.58 17.78C10.2515 17.2204 9.99288 16.6226 9.81 16H10.11C10.7 15.92 11.3 15.86 11.89 15.83C12.48 15.8 12.79 15.83 13.24 15.83C13.1963 16.4806 13.1161 17.1283 13 17.77C13 18.33 13.9 17.99 14 17.31C14.1369 16.7893 14.247 16.2619 14.33 15.73C15.0834 15.7636 15.8344 15.8371 16.58 15.95C17.35 16.11 17.77 15.58 17.23 15.22C16.3309 14.9669 15.4154 14.7764 14.49 14.65C14.4948 14.6101 14.4948 14.5698 14.49 14.53C14.5151 14.037 14.5151 13.543 14.49 13.05C15.6254 12.9642 16.7543 12.8072 17.87 12.58C18.94 12.46 18.63 11.8 17.87 11.72C16.87 11.83 15.87 11.9 14.94 11.92H14.46C14.46 11.46 14.41 11.01 14.34 10.56C14.27 10.11 14.16 9.55998 14.06 9.12998C14.8247 9.07285 15.5837 8.95583 16.33 8.77998C16.379 8.77161 16.4258 8.75346 16.4676 8.72661C16.5095 8.69976 16.5454 8.66475 16.5734 8.62369C16.6014 8.58262 16.6209 8.53633 16.6306 8.48759C16.6403 8.43884 16.6401 8.38864 16.63 8.33998C16.6277 8.28988 16.615 8.24082 16.5926 8.19594C16.5703 8.15105 16.5388 8.11133 16.5002 8.07932C16.4616 8.04731 16.4167 8.02372 16.3685 8.01006C16.3202 7.99639 16.2697 7.99296 16.22 7.99998C15.4904 8.0912 14.7551 8.12797 14.02 8.10998H13.88C13.7 7.38998 13.51 6.69998 13.31 6.02998C13.3006 5.98835 13.283 5.94903 13.2582 5.91431C13.2334 5.8796 13.2019 5.8502 13.1656 5.82783C13.1292 5.80547 13.0888 5.7906 13.0466 5.7841C13.0044 5.7776 12.9614 5.7796 12.92 5.78998C12.8355 5.80912 12.7618 5.86076 12.7151 5.93374C12.6683 6.00671 12.6521 6.09516 12.67 6.17998C12.78 6.77998 12.86 7.41998 12.93 8.05998H12.36L10.67 7.99998H9.67V7.69998C9.79227 7.27496 9.96341 6.86556 10.18 6.47998C10.2244 6.398 10.2362 6.30228 10.2131 6.21196C10.19 6.12164 10.1336 6.04338 10.0553 5.99283C9.97691 5.94229 9.88237 5.92318 9.79055 5.93934C9.69873 5.9555 9.61639 6.00572 9.56 6.07998C9.3209 6.51341 9.13298 6.97316 9 7.44998C8.93 7.63998 8.91 7.82998 8.85 8.02998H7.93L7.64 7.99998C6.74 7.87998 6.34 8.46998 7.07 8.78998L7.79 8.99998C8 8.99998 8.29 8.99998 8.54 9.04998ZM13.32 13.83V14.51H11.86C11.2114 14.54 10.5662 14.6203 9.93 14.75L9.62 14.85C9.50916 14.2384 9.43569 13.6205 9.4 13L10.08 13.05C11.1493 13.105 12.2207 13.105 13.29 13.05C13.29 13.36 13.32 13.6 13.32 13.83ZM9.44 9.73998C9.44 9.54998 9.51 9.35998 9.53 9.15998L10.63 9.24998H13.05C13.05 9.77998 13.15 10.25 13.19 10.83V11.93H11H9.38C9.3529 11.1994 9.37294 10.4679 9.44 9.73998Z" fill="black"/>
</g>
<defs>
<clipPath id="clip0_1044_5300">
<rect width="24" height="24" fill="white"/>
</clipPath>
</defs>
</svg>
