<svg width="24" height="24" viewBox="0 0 24 24" fill="none" xmlns="http://www.w3.org/2000/svg">
<g clip-path="url(#clip0_1044_5350)">
<path fill-rule="evenodd" clip-rule="evenodd" d="M23.44 16.09C23.32 15.09 23.69 14.17 22.44 13.73C20.7326 13.4064 18.9978 13.249 17.26 13.26C17.416 12.4092 17.453 11.5409 17.37 10.68C17.28 10.14 17.15 9.60999 17.08 9.08999C17.0656 9.00355 17.0211 8.92501 16.9542 8.86836C16.8874 8.8117 16.8026 8.78061 16.715 8.78061C16.6274 8.78061 16.5426 8.8117 16.4758 8.86836C16.4089 8.92501 16.3644 9.00355 16.35 9.08999C16.1142 10.4642 16.155 11.8717 16.47 13.23C12.8619 13.0443 9.24499 13.1312 5.65 13.49C4.32 13.63 1.94 13.49 0.950001 14.44C0.500001 14.89 0.620001 15.81 0.610001 16.44C0.610001 18.61 0.340001 19.44 0.940001 19.44C1.33 19.44 1.31 19.44 1.4 16.49C1.4 16.2 1.4 15.25 1.53 15.09C2.26 14.4 4.58 14.58 5.74 14.48C9.70251 14.2 13.6805 14.22 17.64 14.54C23.79 14.9 22.08 14.86 22.24 16.29C22.35 17.29 22.24 19 21.45 19.47C21.19 19.61 17.45 19.69 17.38 19.7C14.9908 19.5888 12.5974 19.6055 10.21 19.75C7.84 19.93 5.48 20.26 3.21 20.5C1.21 20.71 0.370001 19.87 0.630001 20.6C0.890001 21.33 2.13 21.23 2.78 21.23C2.31 22.39 2.35 21.67 2.36 23.38C2.32456 23.4351 2.30438 23.4986 2.30153 23.564C2.29868 23.6295 2.31325 23.6945 2.34376 23.7525C2.37427 23.8105 2.41962 23.8593 2.47518 23.894C2.53075 23.9287 2.59452 23.948 2.66 23.95C2.98 24.02 3.17 23.44 3.21 23.35C3.41314 23.0635 3.54765 22.7341 3.60314 22.3873C3.65863 22.0405 3.6336 21.6856 3.53 21.35C3.53 21.35 3.53 21.3 3.53 21.29V21.23C7.31411 20.7618 11.1299 20.6013 14.94 20.75C16.2072 20.8536 17.4793 20.8837 18.75 20.84C18.58 21.54 19.45 23.56 19.49 23.74C19.5044 23.8264 19.5489 23.905 19.6158 23.9616C19.6826 24.0183 19.7674 24.0494 19.855 24.0494C19.9426 24.0494 20.0274 24.0183 20.0942 23.9616C20.1611 23.905 20.2056 23.8264 20.22 23.74C20.3339 23.2341 20.3262 22.7084 20.1976 22.206C20.0689 21.7036 19.823 21.2389 19.48 20.85C19.48 20.85 19.48 20.85 19.48 20.8C20.41 20.74 20.83 20.8 21.25 20.8C23.16 20.52 23.66 18.06 23.44 16.09Z" fill="black"/>
<path fill-rule="evenodd" clip-rule="evenodd" d="M14.07 7.4C14.0437 7.43283 14.0242 7.47051 14.0125 7.51089C14.0008 7.55127 13.9972 7.59356 14.0018 7.63535C14.0064 7.67714 14.0193 7.7176 14.0396 7.75443C14.0598 7.79126 14.0872 7.82373 14.12 7.85C14.1528 7.87626 14.1905 7.8958 14.2309 7.9075C14.2713 7.9192 14.3136 7.92284 14.3554 7.91819C14.3971 7.91355 14.4376 7.90072 14.4744 7.88044C14.5113 7.86016 14.5437 7.83283 14.57 7.8C14.8335 7.51128 15.1851 7.31789 15.57 7.25C16.184 7.14036 16.8154 7.18154 17.41 7.37C17.8334 7.51297 18.2194 7.74871 18.54 8.06C18.5695 8.09742 18.6062 8.12866 18.6478 8.15193C18.6894 8.1752 18.7352 8.19005 18.7826 8.19562C18.8299 8.20119 18.8779 8.19738 18.9238 8.1844C18.9697 8.17143 19.0126 8.14954 19.05 8.12C19.0874 8.09045 19.1187 8.05382 19.1419 8.0122C19.1652 7.97058 19.1801 7.92478 19.1856 7.87742C19.1912 7.83006 19.1874 7.78207 19.1744 7.73619C19.1614 7.6903 19.1395 7.64742 19.11 7.61C17.83 5.57 15.3 5.33 14.07 7.4Z" fill="black"/>
<path fill-rule="evenodd" clip-rule="evenodd" d="M20.78 6.30999C20.8178 6.28069 20.8493 6.24417 20.8728 6.20255C20.8964 6.16093 20.9113 6.11504 20.9169 6.06757C20.9225 6.02009 20.9186 5.97198 20.9054 5.92604C20.8922 5.8801 20.8699 5.83725 20.84 5.79999C19.17 3.38999 16.56 2.29999 13.84 3.71999C13.1597 4.04129 12.5378 4.4739 12 4.99999C11.9563 5.06452 11.9368 5.14244 11.945 5.21995C11.9533 5.29746 11.9887 5.36955 12.045 5.42346C12.1013 5.47736 12.1748 5.5096 12.2526 5.51446C12.3304 5.51931 12.4074 5.49647 12.47 5.44999C13.1716 4.93499 13.9769 4.5788 14.8299 4.40612C15.6829 4.23344 16.5633 4.24841 17.41 4.44999C20 5.16999 20.18 6.78999 20.78 6.30999Z" fill="black"/>
<path fill-rule="evenodd" clip-rule="evenodd" d="M11 3.69C12.66 0.999997 17.51 0.559997 19.9 2.19C20.6335 2.63007 21.3059 3.16465 21.9 3.78C21.961 3.85691 22.0501 3.90644 22.1476 3.91769C22.2451 3.92895 22.3431 3.901 22.42 3.84C22.4969 3.779 22.5464 3.68994 22.5577 3.59242C22.5689 3.4949 22.541 3.39691 22.48 3.32C21.8981 2.6001 21.2259 1.95815 20.48 1.41C17.29 -1.19 12.06 0.00999737 10.4 3.41C10.3629 3.48956 10.3589 3.58062 10.3889 3.66313C10.4189 3.74565 10.4804 3.81287 10.56 3.85C10.6396 3.88713 10.7306 3.89113 10.8131 3.86112C10.8957 3.83112 10.9629 3.76956 11 3.69Z" fill="black"/>
<path fill-rule="evenodd" clip-rule="evenodd" d="M5.76 18.48C5.89818 18.2888 5.99208 18.0692 6.03489 17.8372C6.07771 17.6052 6.06836 17.3666 6.00753 17.1387C5.94671 16.9108 5.83592 16.6992 5.68321 16.5194C5.5305 16.3396 5.3397 16.196 5.12462 16.0991C4.90955 16.0022 4.67561 15.9543 4.43974 15.959C4.20388 15.9637 3.97202 16.0208 3.76096 16.1262C3.54991 16.2316 3.36495 16.3826 3.21949 16.5683C3.07404 16.7541 2.97174 16.9698 2.92 17.2C2.83056 17.5221 2.83581 17.8632 2.93512 18.1824C3.03444 18.5016 3.2236 18.7855 3.48 19C3.65846 19.1323 3.86344 19.2244 4.08086 19.2701C4.29828 19.3157 4.52299 19.3137 4.73959 19.2643C4.95618 19.2149 5.15952 19.1193 5.33566 18.9839C5.51179 18.8485 5.65655 18.6766 5.76 18.48ZM4 17.24C4.28 16.32 5.58 16.66 5 17.68C4.61 18.53 3.82 17.93 4 17.24Z" fill="black"/>
<path fill-rule="evenodd" clip-rule="evenodd" d="M10.36 17.94C11.27 16.11 7.06 14.65 7.26 17.51C7.28184 17.8723 7.43692 18.2137 7.69539 18.4684C7.95387 18.7232 8.29745 18.8734 8.66 18.89C9.00083 18.8896 9.33591 18.8021 9.63344 18.6359C9.93096 18.4696 10.1811 18.2301 10.36 17.94ZM8.36 17.21C8.36 15.68 10.64 17.96 8.7 17.67C8.5 17.66 8.4 17.42 8.4 17.21H8.36Z" fill="black"/>
</g>
<defs>
<clipPath id="clip0_1044_5350">
<rect width="24" height="24" fill="white"/>
</clipPath>
</defs>
</svg>
