<svg width="24" height="24" viewBox="0 0 24 24" fill="none" xmlns="http://www.w3.org/2000/svg">
<g clip-path="url(#clip0_1044_5337)">
<path fill-rule="evenodd" clip-rule="evenodd" d="M20 14.27C19.9867 14.1798 19.9382 14.0986 19.8651 14.0442C19.7919 13.9898 19.7002 13.9667 19.61 13.98C19.5198 13.9932 19.4386 14.0418 19.3842 14.1149C19.3298 14.1881 19.3067 14.2798 19.32 14.37C19.6252 15.7782 19.7196 17.224 19.6 18.66C19.5397 19.0151 19.4562 19.3658 19.35 19.71C18.8508 19.8838 18.3283 19.9816 17.8 20C16.05 20.19 13.25 20.3 10.7 20.35C10.35 20.35 5.47 20.45 5.16 20.1C4.94189 19.5547 4.81682 18.9767 4.79 18.39C4.65402 17.1575 4.69105 15.9122 4.9 14.69C4.90892 14.6143 4.88964 14.538 4.84584 14.4756C4.80204 14.4132 4.7368 14.3691 4.66257 14.3518C4.58835 14.3345 4.51034 14.3451 4.44346 14.3817C4.37658 14.4182 4.32551 14.4782 4.3 14.55C4.1 15.32 4.2 15.55 4.05 16.32C3.83 17.38 4.05 20.17 4.47 20.72C5.08 21.45 8.7 21.5 9.76 21.51C9.50845 21.9634 9.42355 22.4905 9.52 23L8.41 23.14C8.33857 23.153 8.27397 23.1906 8.22745 23.2463C8.18093 23.3021 8.15546 23.3724 8.15546 23.445C8.15546 23.5176 8.18093 23.5879 8.22745 23.6436C8.27397 23.6993 8.33857 23.737 8.41 23.75C10.778 24.1192 13.1909 24.0922 15.55 23.67C15.6315 23.6513 15.7035 23.6041 15.7532 23.5369C15.8029 23.4697 15.8269 23.3869 15.8208 23.3035C15.8148 23.2202 15.7791 23.1417 15.7203 23.0824C15.6614 23.0231 15.5833 22.9867 15.5 22.98H14.56C14.5725 22.4274 14.4668 21.8784 14.25 21.37C15.03 21.32 19.38 21.04 19.92 20.48C20.28 20.11 20.27 19.58 20.4 18.89C20.5166 17.3385 20.3815 15.7783 20 14.27ZM13.7 22.89C8.82 22.63 10.83 23.62 10.7 21.46C11.52 21.46 12.36 21.46 13.18 21.38C13.1946 21.9247 13.3761 22.4518 13.7 22.89Z" fill="black"/>
<path fill-rule="evenodd" clip-rule="evenodd" d="M8.1 17.48C5.35 17.78 5.34 17.69 5.1 17.82C5.03732 17.8599 4.99108 17.9211 4.9697 17.9922C4.94832 18.0634 4.95323 18.1399 4.98352 18.2078C5.01382 18.2757 5.0675 18.3304 5.13476 18.362C5.20203 18.3936 5.27842 18.4 5.35 18.38C14.14 18.63 8.58 18.45 16.04 18.38H16.78H16.87C16.9126 18.3576 16.9471 18.3224 16.9686 18.2793C16.9902 18.2362 16.9976 18.1875 16.99 18.14C17.09 17.85 16.99 17.76 16.83 17.72C16.67 17.68 15.83 17.62 14.36 17.49C12.2777 17.3032 10.1829 17.2999 8.1 17.48Z" fill="black"/>
<path fill-rule="evenodd" clip-rule="evenodd" d="M4.8 5.69999C5.24713 5.83195 5.72287 5.83195 6.17 5.69999C6.23 5.69999 6.02 5.59999 6.75 6.03999C7 6.19999 8.85 7.46999 8.93 8.03999C8.94299 8.11142 8.98063 8.17602 9.03637 8.22254C9.09211 8.26906 9.1624 8.29454 9.235 8.29454C9.3076 8.29454 9.3779 8.26906 9.43363 8.22254C9.48937 8.17602 9.52701 8.11142 9.54 8.03999C9.59198 7.7804 9.58669 7.51259 9.52452 7.25524C9.46234 6.9979 9.34477 6.75722 9.18 6.54999C8.74877 5.99528 8.13652 5.60953 7.45 5.45999L7 5.29999C7.13748 5.18728 7.25863 5.05603 7.36 4.90999C7.40228 4.83436 7.415 4.74574 7.3957 4.66127C7.3764 4.5768 7.32646 4.5025 7.25554 4.45272C7.18462 4.40295 7.09775 4.38126 7.01176 4.39184C6.92576 4.40242 6.84675 4.44452 6.79 4.50999C5.79 5.88999 2.45 4.08999 4.23 1.68999C5.23 0.189991 8.44 1.80999 7.3 4.09999C7.26287 4.1716 7.25571 4.25503 7.28009 4.33192C7.30447 4.40881 7.35839 4.47286 7.43 4.50999C7.50161 4.54712 7.58503 4.55429 7.66192 4.52991C7.73881 4.50553 7.80287 4.4516 7.84 4.37999C9.65 1.13999 5.12 -1.53001 3.25 0.999991C2.07 2.73999 2.5 4.38999 4 5.29999C3.13776 5.4514 2.35774 5.90523 1.8 6.57999C1.63925 6.78943 1.52417 7.03022 1.46216 7.28686C1.40016 7.54349 1.39261 7.81026 1.44 8.06999C1.45299 8.14142 1.49063 8.20602 1.54637 8.25254C1.60211 8.29906 1.6724 8.32454 1.745 8.32454C1.8176 8.32454 1.8879 8.29906 1.94363 8.25254C1.99937 8.20602 2.03701 8.14142 2.05 8.06999C2.13 7.21999 4.66 5.83999 4.8 5.69999Z" fill="black"/>
<path fill-rule="evenodd" clip-rule="evenodd" d="M22.25 6.57999C21.8212 6.01211 21.2045 5.61515 20.51 5.45999L20 5.29999C20.1343 5.18697 20.2521 5.05569 20.35 4.90999C20.3763 4.87322 20.395 4.83164 20.4052 4.78762C20.4154 4.74359 20.4168 4.698 20.4094 4.65342C20.402 4.60885 20.3858 4.56618 20.3619 4.52784C20.338 4.48951 20.3068 4.45626 20.27 4.42999C20.2332 4.40373 20.1916 4.38496 20.1476 4.37477C20.1036 4.36457 20.058 4.36315 20.0134 4.37058C19.9689 4.37801 19.9262 4.39414 19.8879 4.41806C19.8495 4.44198 19.8163 4.47322 19.79 4.50999C18.79 5.88999 15.45 4.08999 17.23 1.68999C18.23 0.189991 21.44 1.80999 20.29 4.09999C20.2716 4.13545 20.2604 4.17418 20.257 4.21397C20.2536 4.25377 20.258 4.29384 20.2701 4.33192C20.2945 4.40881 20.3484 4.47286 20.42 4.50999C20.4555 4.52838 20.4942 4.5396 20.534 4.54301C20.5738 4.54643 20.6139 4.54198 20.6519 4.52991C20.7288 4.50553 20.7929 4.4516 20.83 4.37999C22.71 1.13999 18.18 -1.53001 16.31 0.999991C15.13 2.72999 15.56 4.37999 17.01 5.28999C16.5221 5.42377 16.0496 5.6081 15.6 5.83999C15.2056 6.04884 14.8848 6.37372 14.6809 6.77073C14.477 7.16774 14.3999 7.61776 14.46 8.05999C14.473 8.13142 14.5106 8.19602 14.5664 8.24254C14.6221 8.28906 14.6924 8.31454 14.765 8.31454C14.8376 8.31454 14.9079 8.28906 14.9636 8.24254C15.0194 8.19602 15.057 8.13142 15.07 8.05999C15.2 7.22999 17.75 5.82999 17.87 5.70999C18.3133 5.84463 18.7867 5.84463 19.23 5.70999C19.38 5.80999 21.87 7.23999 22 8.01999C22.013 8.09142 22.0506 8.15602 22.1064 8.20254C22.1621 8.24906 22.2324 8.27454 22.305 8.27454C22.3776 8.27454 22.4479 8.24906 22.5036 8.20254C22.5594 8.15602 22.597 8.09142 22.61 8.01999C22.6503 7.7681 22.6392 7.51065 22.5773 7.26317C22.5154 7.01569 22.4041 6.7833 22.25 6.57999Z" fill="black"/>
<path fill-rule="evenodd" clip-rule="evenodd" d="M14.17 14.56C14.74 13.56 16.62 12.22 17.35 10.26C18.14 12.43 18.23 12.76 18.48 12.84C18.5396 12.8467 18.6 12.8389 18.6559 12.8172C18.7118 12.7954 18.7616 12.7604 18.8009 12.7151C18.8403 12.6699 18.868 12.6157 18.8818 12.5573C18.8956 12.4989 18.895 12.4381 18.88 12.38C18.88 12.13 18.68 11.5 18.66 11.38C18.51 10.74 18.56 9.24998 17.66 8.73998C16.76 8.22998 14.82 9.85998 14.23 9.87998C14.1798 9.8714 14.1283 9.87388 14.0791 9.88727C14.03 9.90065 13.9843 9.9246 13.9454 9.95746C13.9064 9.99031 13.8751 10.0313 13.8536 10.0775C13.8322 10.1237 13.821 10.174 13.821 10.225C13.821 10.2759 13.8322 10.3263 13.8536 10.3725C13.8751 10.4187 13.9064 10.4596 13.9454 10.4925C13.9843 10.5254 14.03 10.5493 14.0791 10.5627C14.1283 10.5761 14.1798 10.5786 14.23 10.57C15.0589 10.4542 15.8756 10.2634 16.67 9.99998C15.99 11 14.26 12 13.61 14.36C13.5904 14.398 13.5791 14.4397 13.5769 14.4825C13.5748 14.5252 13.5818 14.5679 13.5974 14.6077C13.6131 14.6475 13.6372 14.6834 13.6679 14.7132C13.6986 14.7429 13.7354 14.7658 13.7756 14.7802C13.8159 14.7946 13.8588 14.8002 13.9014 14.7966C13.9441 14.7931 13.9855 14.7804 14.0228 14.7596C14.0601 14.7387 14.0926 14.7101 14.118 14.6757C14.1434 14.6413 14.1611 14.6018 14.17 14.56Z" fill="black"/>
<path fill-rule="evenodd" clip-rule="evenodd" d="M6.14 8.99999C5.24 9.53999 5.31 11 5.14 11.64C4.97 12.28 4.66 13.36 5.32 13.08C5.56 13 5.63 12.73 6.46 10.5C7.17 12.42 9.09 13.86 9.63 14.8C9.66183 14.8743 9.72185 14.9328 9.79686 14.9628C9.87188 14.9928 9.95574 14.9918 10.03 14.96C10.1043 14.9282 10.1628 14.8681 10.1928 14.7931C10.2228 14.7181 10.2218 14.6343 10.19 14.56C9.54 12.26 7.8 11.2 7.13 10.21C7.93215 10.4934 8.7591 10.701 9.6 10.83C9.65023 10.8386 9.70172 10.8361 9.75088 10.8227C9.80004 10.8093 9.84569 10.7854 9.88464 10.7525C9.92358 10.7197 9.95488 10.6787 9.97635 10.6325C9.99783 10.5863 10.009 10.5359 10.009 10.485C10.009 10.434 9.99783 10.3837 9.97635 10.3375C9.95488 10.2913 9.92358 10.2503 9.88464 10.2175C9.84569 10.1846 9.80004 10.1607 9.75088 10.1473C9.70172 10.1339 9.65023 10.1314 9.6 10.14C9 10.09 7 8.48999 6.14 8.99999Z" fill="black"/>
</g>
<defs>
<clipPath id="clip0_1044_5337">
<rect width="24" height="24" fill="white"/>
</clipPath>
</defs>
</svg>
