<svg width="24" height="24" viewBox="0 0 24 24" fill="none" xmlns="http://www.w3.org/2000/svg">
<g clip-path="url(#clip0_1044_5304)">
<path fill-rule="evenodd" clip-rule="evenodd" d="M20.38 14C20.46 13.27 20.25 12.83 19.6 12.78C19.26 12.78 18.47 12.66 18.45 13.83C18.43 15 20.28 15 20.38 14Z" fill="black"/>
<path fill-rule="evenodd" clip-rule="evenodd" d="M23.44 11.24V10.95C23.4289 10.85 23.386 10.7562 23.3176 10.6824C23.2492 10.6086 23.1589 10.5587 23.06 10.54C22.72 10.54 22.38 10.47 22.06 10.44C22.1323 9.9636 22.1524 9.48075 22.12 9C22.1081 8.54504 21.9881 8.09945 21.77 7.7C21.577 7.3748 21.3211 7.09142 21.0171 6.86646C20.7132 6.64151 20.3674 6.47952 20 6.39C19.6187 6.29647 19.2198 6.30254 18.8416 6.40761C18.4633 6.51268 18.1184 6.71323 17.84 6.99C17.4414 7.46352 17.1543 8.02058 17 8.62C16.8679 9.10931 16.7973 9.6132 16.79 10.12H16.73C16.6466 10.1115 16.5632 10.1361 16.4978 10.1885C16.4323 10.2408 16.3901 10.3168 16.38 10.4C16.3714 10.4845 16.3957 10.5691 16.4478 10.6361C16.5 10.7032 16.576 10.7476 16.66 10.76C18.12 10.95 19.59 11.01 21.05 11.17C21.55 11.23 22.05 11.29 22.55 11.38C22.545 11.4499 22.545 11.5201 22.55 11.59C22.6073 12.7634 22.5873 13.9393 22.49 15.11C22.37 16.54 22.36 16.25 21.8 16.3C20.6826 16.3668 19.5614 16.3334 18.45 16.2C17.8119 16.1387 17.1818 16.0113 16.57 15.82C16.3676 15.7671 16.1818 15.6639 16.03 15.52C15.9551 15.419 15.9163 15.2957 15.92 15.17C15.904 14.8702 15.904 14.5698 15.92 14.27C15.92 13.57 15.97 12.87 16.02 12.18C16.02 11.72 16.11 11.26 16.19 10.8C16.1973 10.7639 16.1974 10.7267 16.1902 10.6905C16.1831 10.6544 16.1689 10.62 16.1485 10.5893C16.1281 10.5587 16.1018 10.5324 16.0711 10.5119C16.0405 10.4914 16.0061 10.4772 15.97 10.47C15.9326 10.4627 15.8941 10.4629 15.8567 10.4706C15.8194 10.4782 15.7839 10.4931 15.7523 10.5145C15.7207 10.5359 15.6937 10.5632 15.6727 10.5951C15.6517 10.6269 15.6372 10.6626 15.63 10.7C15.53 11.16 15.46 11.64 15.39 12.11C15.3 12.81 15.24 13.52 15.17 14.22C15.0958 14.6054 15.0622 14.9976 15.07 15.39C15.0902 15.6165 15.1696 15.8337 15.3 16.02C15.71 16.62 17.3 17.11 19 17.29C20.1285 17.4377 21.2715 17.4377 22.4 17.29C22.6479 17.2571 22.8771 17.1407 23.05 16.96C23.4635 15.9747 23.6382 14.9057 23.56 13.84C23.57 12.79 23.49 11.73 23.44 11.24ZM17.37 10.16C17.4303 9.71988 17.548 9.28956 17.72 8.88C17.9107 8.43307 18.1975 8.03361 18.56 7.71C18.727 7.57098 18.9254 7.47467 19.1379 7.42938C19.3504 7.38408 19.5708 7.39116 19.78 7.45C20.2669 7.52322 20.7053 7.78553 21 8.18C21.1854 8.44108 21.3055 8.74287 21.35 9.06C21.4001 9.49523 21.4001 9.93476 21.35 10.37H21.13C19.86 10.26 18.61 10.24 17.37 10.16Z" fill="black"/>
<path fill-rule="evenodd" clip-rule="evenodd" d="M1.29 10.38C1.52622 10.5809 1.80757 10.7216 2.11 10.79C2.5003 10.8557 2.89447 10.8958 3.29 10.91C3.73799 10.965 4.18868 10.995 4.64 11C5.64 11 6.64 10.91 7.71 10.9H10.35C10.7418 10.8798 11.1323 10.8398 11.52 10.78C12.1246 10.7215 12.7003 10.4926 13.18 10.12C13.5139 9.80507 13.7292 9.38491 13.79 8.93C13.8509 8.60001 13.8844 8.26553 13.89 7.93C13.888 7.81883 13.8552 7.7104 13.7951 7.61682C13.7351 7.52323 13.6502 7.44817 13.55 7.4C13.37 7.32393 13.1751 7.28974 12.98 7.3C12.8268 7.29017 12.6732 7.29017 12.52 7.3L12.65 4.7C12.7167 3.73015 12.6966 2.75628 12.59 1.79C12.5308 1.27696 12.302 0.798352 11.94 0.430003C11.7604 0.285653 11.5471 0.189306 11.32 0.150003C10.9427 0.0942154 10.5613 0.0707968 10.18 0.0800031C8.20194 -0.0439203 6.21806 -0.0439203 4.24 0.0800031C3.61348 0.143108 2.99618 0.277304 2.4 0.480003C2.05465 0.585049 1.74834 0.79042 1.52 1.07C1.33348 1.37302 1.22046 1.71549 1.19 2.07C1.15991 2.50281 1.15991 2.93719 1.19 3.37C1.19 3.86 1.26 4.37 1.31 4.83C1.42 5.89 1.56 6.96 1.68 8.01C1.38458 8.06926 1.09629 8.15977 0.820003 8.28C0.820003 8.28 0.290003 8.65 0.410003 8.92C0.523547 9.22687 0.65374 9.52732 0.800003 9.82C0.93323 10.031 1.09855 10.2199 1.29 10.38ZM2.1 2.17C2.1248 1.96937 2.19676 1.77747 2.31 1.61C2.4 1.48 2.64 1.44 2.93 1.37C3.66447 1.22083 4.41074 1.13716 5.16 1.12C7.16 1.02 9.41 1.12 10.16 1.12C10.4465 1.10447 10.7335 1.10447 11.02 1.12C11.131 1.11471 11.2414 1.13886 11.34 1.19C11.6115 1.52016 11.7631 1.9326 11.77 2.36C11.8583 3.15011 11.895 3.94512 11.88 4.74V7.39L9.67 7.51C9 7.59 8.33 7.68 7.67 7.75C7.24 7.75 6.8 7.83 6.36 7.85L4.36 7.97C3.63 7.97 2.96 7.88 2.28 7.97C2.28 7.08 2.16 6.19 2.11 5.3V3.39C2.07372 2.98427 2.07038 2.57627 2.1 2.17ZM2.31 8.53C2.97 8.53 3.62 8.62 4.31 8.66H6.31H7.69C8.37 8.66 9.04 8.57 9.69 8.52L12.16 8.46L12.78 8.41C12.78 8.56 12.68 8.7 12.68 8.74C12.6604 8.87357 12.614 9.0018 12.5435 9.11694C12.4731 9.23209 12.38 9.33178 12.27 9.41C11.9603 9.57807 11.6205 9.68342 11.27 9.72C10.8003 9.80016 10.326 9.85026 9.85 9.87C9.1 9.87 8.35 9.87 7.61 9.96C6.61 10.01 5.61 10.14 4.55 10.19H3.27C2.91237 10.1952 2.55481 10.1752 2.2 10.13C2.00632 10.0947 1.82431 10.0123 1.67 9.89C1.54025 9.78473 1.43166 9.65578 1.35 9.51C1.21884 9.28923 1.10516 9.05852 1.01 8.82C1.42236 8.64591 1.86275 8.54767 2.31 8.53Z" fill="black"/>
<path fill-rule="evenodd" clip-rule="evenodd" d="M13.74 20.39C13.5582 20.3082 13.3587 20.2738 13.16 20.29C13.0054 20.2918 12.8514 20.3086 12.7 20.34L12.83 17.74C12.9069 16.7704 12.8868 15.7956 12.77 14.83C12.7157 14.3147 12.4904 13.8324 12.13 13.46C11.9478 13.3137 11.7307 13.2173 11.5 13.18C11.1258 13.1274 10.7477 13.1073 10.37 13.12C8.39198 12.995 6.40803 12.995 4.43001 13.12C3.80134 13.1731 3.18071 13.2972 2.58001 13.49C2.23375 13.5872 1.92844 13.7943 1.71001 14.08C1.52068 14.3817 1.40743 14.7249 1.38001 15.08C1.34993 15.5162 1.34993 15.9539 1.38001 16.39C1.38001 16.87 1.45001 17.39 1.50001 17.85C1.60001 18.91 1.74001 19.97 1.86001 21.03C1.56813 21.0858 1.28313 21.173 1.01001 21.29C1.01001 21.29 0.480006 21.66 0.600006 21.94C0.711852 22.2443 0.842092 22.5415 0.990006 22.83C1.10981 23.0507 1.26523 23.25 1.45001 23.42C1.68887 23.6147 1.9695 23.7516 2.27001 23.82C2.66458 23.9118 3.06586 23.972 3.47001 24C3.93001 24 4.38001 24.05 4.83001 24.05C5.83001 24.05 6.83001 23.96 7.90001 23.94H10.54C10.9285 23.9204 11.3157 23.8803 11.7 23.82C12.3057 23.7659 12.8825 23.5366 13.36 23.16C13.7174 22.8344 13.9448 22.3903 14 21.91C14.0609 21.58 14.0944 21.2455 14.1 20.91C14.0922 20.799 14.0546 20.6922 13.9913 20.6007C13.928 20.5092 13.8412 20.4364 13.74 20.39ZM2.28001 15.2C2.31106 15.0025 2.38626 14.8145 2.50001 14.65C2.59001 14.52 2.82001 14.48 3.11001 14.41C3.84507 14.2631 4.59086 14.1762 5.34001 14.15C7.34001 14.05 9.59001 14.15 10.34 14.15C10.6298 14.135 10.9202 14.135 11.21 14.15C11.3179 14.1435 11.4254 14.1678 11.52 14.22C11.8096 14.5354 11.9795 14.9423 12 15.37C12.0883 16.1568 12.125 16.9485 12.11 17.74V20.4L9.90001 20.52C9.22001 20.6 8.56001 20.69 7.90001 20.76C7.47001 20.76 7.03001 20.84 6.59001 20.85L4.59001 20.98C3.86001 20.98 3.18001 20.89 2.51001 20.98C2.45001 20.09 2.38001 19.2 2.34001 18.31C2.34001 17.68 2.28001 17.04 2.34001 16.4C2.28807 16.0023 2.26801 15.601 2.28001 15.2ZM12.91 21.72C12.8972 21.8544 12.8546 21.9842 12.7855 22.1001C12.7163 22.2159 12.6222 22.315 12.51 22.39C12.2022 22.5625 11.8614 22.6681 11.51 22.7C11.0405 22.7829 10.5662 22.8364 10.09 22.86C9.34001 22.86 8.59001 22.91 7.85001 22.94C6.85001 23 5.85001 23.13 4.79001 23.18H3.51001C3.15237 23.1855 2.79479 23.1655 2.44001 23.12C2.24645 23.0843 2.06452 23.0019 1.91001 22.88C1.77952 22.7727 1.66797 22.6443 1.58001 22.5C1.45596 22.277 1.34575 22.0466 1.25001 21.81C1.64185 21.6554 2.05877 21.574 2.48001 21.57C3.14001 21.57 3.79001 21.66 4.48001 21.7H6.48001H7.86001L9.86001 21.56L12.34 21.5L12.95 21.44C13 21.54 12.92 21.69 12.91 21.72Z" fill="black"/>
<path fill-rule="evenodd" clip-rule="evenodd" d="M13.94 3.33C14.5946 3.17456 15.2686 3.11727 15.94 3.16C16.3798 3.17057 16.8179 3.21739 17.25 3.3C17.5892 3.32896 17.9162 3.44076 18.2021 3.62558C18.4881 3.8104 18.7243 4.06258 18.89 4.36C18.9035 4.40025 18.9249 4.43742 18.9529 4.46933C18.9809 4.50124 19.015 4.52726 19.0531 4.54588C19.0913 4.56449 19.1328 4.57533 19.1751 4.57775C19.2175 4.58017 19.26 4.57414 19.3 4.56C19.3797 4.53055 19.445 4.47149 19.4823 4.39512C19.5195 4.31874 19.5259 4.23094 19.5 4.15C19.3655 3.68729 19.1088 3.2694 18.7568 2.94031C18.4049 2.61122 17.9707 2.38311 17.5 2.28C17.0128 2.14169 16.5055 2.08758 16 2.12C15.2144 2.19653 14.4525 2.43124 13.76 2.81C13.691 2.83917 13.6365 2.89454 13.6084 2.96393C13.5802 3.03332 13.5808 3.11104 13.61 3.18C13.6392 3.24895 13.6945 3.3035 13.7639 3.33163C13.8333 3.35976 13.911 3.35917 13.98 3.33H13.94Z" fill="black"/>
<path fill-rule="evenodd" clip-rule="evenodd" d="M20.68 18.81C20.6386 18.8012 20.5959 18.8008 20.5543 18.8086C20.5128 18.8165 20.4732 18.8325 20.4378 18.8557C20.4025 18.879 20.3721 18.909 20.3485 18.9441C20.3248 18.9791 20.3083 19.0185 20.3 19.06C20.0364 19.8825 19.4721 20.5753 18.72 21C18.442 21.1814 18.1282 21.3008 17.8 21.35C17.443 21.4153 17.077 21.4153 16.72 21.35C16.3276 21.2656 15.9429 21.1485 15.57 21C15.5366 20.983 15.5002 20.973 15.4628 20.9703C15.4255 20.9677 15.388 20.9726 15.3525 20.9847C15.3171 20.9968 15.2845 21.0159 15.2565 21.0409C15.2286 21.0658 15.206 21.0962 15.19 21.13C15.1616 21.1994 15.1603 21.2769 15.1862 21.3472C15.2121 21.4175 15.2634 21.4756 15.33 21.51C15.7814 21.7863 16.2608 22.0142 16.76 22.19C17.1286 22.3065 17.5134 22.3639 17.9 22.36C18.396 22.3178 18.8737 22.1528 19.29 21.88C19.5509 21.7028 19.7864 21.4908 19.99 21.25C20.4969 20.6654 20.8235 19.9464 20.93 19.18C20.9448 19.0979 20.9269 19.0133 20.8802 18.9442C20.8335 18.8751 20.7617 18.8269 20.68 18.81Z" fill="black"/>
</g>
<defs>
<clipPath id="clip0_1044_5304">
<rect width="24" height="24" fill="white"/>
</clipPath>
</defs>
</svg>
