<svg width="24" height="24" viewBox="0 0 24 24" fill="none" xmlns="http://www.w3.org/2000/svg">
<g clip-path="url(#clip0_1048_7440)">
<path fill-rule="evenodd" clip-rule="evenodd" d="M10 19.45C2.38 19.57 5.62 19.57 2.29 19.18C1.79 19.12 1.56 18.75 1.42 18.3C1.16 17.46 1.23 17.3 1.35 8.76999C1.20944 7.07449 1.27998 5.3681 1.56 3.68999C1.84 2.61999 1.55 2.26999 3 2.29999C3 2.64999 2.9 3.99999 2.93 4.18999C3.03 4.96999 3.79 4.84999 4.09 4.92999C5.64 5.30999 6.22 4.13999 6.09 2.50999C6.57154 2.66946 7.08884 2.68682 7.58 2.55999C7.58 2.66999 7.49 3.96999 7.51 4.14999C7.61 4.91999 8.35999 4.80999 8.67 4.88999C10.2 5.24999 10.78 4.12999 10.67 2.52999C11.36 2.73999 11.41 2.69999 12.44 2.46999C12.44 2.57999 12.36 3.87999 12.38 4.00999C12.3868 4.15976 12.4422 4.30324 12.5379 4.41872C12.6335 4.53419 12.7641 4.61538 12.91 4.64999C14.55 5.08999 15.5 4.64999 15.56 2.87999C15.8948 2.88973 16.2288 2.91979 16.56 2.96999C16.82 2.96999 17.02 3.05999 17.04 3.25999L17.42 10.35C17.42 10.4296 17.4516 10.5059 17.5079 10.5621C17.5641 10.6184 17.6404 10.65 17.72 10.65C17.7996 10.65 17.8759 10.6184 17.9321 10.5621C17.9884 10.5059 18.02 10.4296 18.02 10.35C18.4647 7.95315 18.4579 5.49434 18 3.09999C17.76 2.03999 16.66 2.09999 15.57 2.16999C15.5249 1.55606 15.3761 0.954213 15.13 0.389986C14.9828 0.254848 14.8095 0.151151 14.6209 0.0852309C14.4322 0.0193109 14.2321 -0.00744717 14.0327 0.00659193C13.8334 0.020631 13.639 0.0751724 13.4614 0.166883C13.2838 0.258594 13.1268 0.385548 13 0.539986C12.8001 0.843768 12.6609 1.18334 12.59 1.53999C11.9226 1.38838 11.2248 1.44421 10.59 1.69999C10.549 1.28294 10.4339 0.876559 10.25 0.499986C10.1006 0.364946 9.92512 0.262031 9.73434 0.197624C9.54356 0.133217 9.34158 0.108692 9.14093 0.125569C8.94028 0.142446 8.74524 0.200365 8.5679 0.295736C8.39056 0.391106 8.2347 0.521893 8.10999 0.679986C7.93941 0.946372 7.81751 1.24095 7.75 1.54999C7.16528 1.44038 6.56209 1.48519 6 1.67999C5.9552 1.29555 5.83994 0.922651 5.66 0.579986C5.51459 0.406195 5.32223 0.277943 5.10588 0.210557C4.88954 0.143172 4.65837 0.139502 4.44 0.199986C3.63 0.329986 3.32 0.889986 3.14 1.67999C2.59258 1.58731 2.02989 1.67875 1.54 1.93999C0.999995 2.28999 0.999995 2.99999 0.849995 3.48999C0.453067 5.22075 0.278326 6.99504 0.329995 8.76999C0.139995 13.56 0.179995 12 0.119995 15.61C0.119995 17.55 0.119995 20.03 2.21 20.19C5.63 20.44 2.34 20.57 10.04 20.13C10.0846 20.1274 10.1283 20.116 10.1686 20.0965C10.2088 20.0769 10.2448 20.0497 10.2746 20.0163C10.3043 19.9828 10.3271 19.9439 10.3418 19.9016C10.3564 19.8594 10.3626 19.8146 10.36 19.77C10.3574 19.7253 10.346 19.6816 10.3265 19.6414C10.3069 19.6012 10.2797 19.5651 10.2463 19.5354C10.2128 19.5057 10.1739 19.4829 10.1316 19.4682C10.0894 19.4536 10.0446 19.4474 10 19.45ZM13.48 1.79999C13.56 0.269987 14.48 0.649986 14.56 0.949986C14.6988 1.70029 14.6988 2.46968 14.56 3.21999C14.39 3.77999 14.11 3.64999 13.56 3.62999C13.59 2.99999 13.43 2.58999 13.48 1.79999ZM8.77999 1.06999C8.97999 0.669987 9.56999 0.939986 9.66 0.909986C9.81554 1.71925 9.81554 2.55073 9.66 3.35999C9.56999 3.66999 9.39 3.88999 9 3.76999H8.62C8.64813 3.6684 8.6682 3.56474 8.68 3.45999C8.54922 2.66488 8.58325 1.85139 8.77999 1.06999ZM4.19 1.11999C4.39 0.709987 5 0.999986 5.07 0.999986C5.22554 1.80925 5.22554 2.64073 5.07 3.44999C4.98 3.74999 4.79999 3.96999 4.41 3.84999H4.03C4.03 3.72999 4.1 3.58999 4.1 3.53999C3.956 2.73621 3.98669 1.91085 4.19 1.11999Z" fill="black"/>
<path fill-rule="evenodd" clip-rule="evenodd" d="M14.19 8.44C14.2689 8.37372 14.3192 8.27952 14.3304 8.17705C14.3416 8.07458 14.3128 7.97175 14.25 7.89C14.03 7.57 8.44999 7.1 5.72999 7.27C2.72999 7.47 3.09999 7.98 3.59999 8.1C4.65999 8.42 14.17 8.46 14.19 8.44Z" fill="black"/>
<path fill-rule="evenodd" clip-rule="evenodd" d="M11 11.61C10.68 11.53 8.19998 11.4 7.71998 11.4C7.23998 11.4 3.79998 11.5 3.71998 11.88C3.71083 11.9235 3.71147 11.9685 3.72185 12.0117C3.73222 12.055 3.75208 12.0954 3.77998 12.13C4.39772 12.3593 5.05107 12.4778 5.70998 12.48C7.47349 12.6029 9.24465 12.5594 11 12.35C11.41 12.35 11.54 11.75 11 11.61Z" fill="black"/>
<path fill-rule="evenodd" clip-rule="evenodd" d="M3.92001 16.4C5.45576 16.7403 7.04474 16.7641 8.59001 16.47C8.65351 16.4063 8.68917 16.32 8.68917 16.23C8.68917 16.14 8.65351 16.0537 8.59001 15.99C7.62254 15.6728 6.60781 15.524 5.59001 15.55C3.29001 15.65 2.85001 16.17 3.92001 16.4Z" fill="black"/>
<path fill-rule="evenodd" clip-rule="evenodd" d="M22.51 14.56C21.9134 13.8514 21.1591 13.2924 20.3076 12.9278C19.4561 12.5632 18.531 12.4032 17.6065 12.4606C16.6819 12.5179 15.7837 12.7911 14.9838 13.2581C14.1838 13.7251 13.5044 14.3731 13 15.15C11.32 17.63 12.19 21.28 13.87 22.35C13.903 22.3801 13.9421 22.4026 13.9847 22.4162C14.0272 22.4298 14.0722 22.434 14.1165 22.4286C14.1608 22.4231 14.2034 22.4082 14.2415 22.3848C14.2795 22.3613 14.312 22.33 14.3367 22.2928C14.3615 22.2557 14.378 22.2136 14.385 22.1695C14.392 22.1254 14.3894 22.0803 14.3773 22.0373C14.3653 21.9943 14.3441 21.9544 14.3152 21.9203C14.2864 21.8863 14.2505 21.8589 14.21 21.84C12.88 20.91 12.28 17.71 13.79 15.71C14.2276 15.0992 14.7973 14.5949 15.4567 14.2345C16.1161 13.8742 16.8482 13.6671 17.5986 13.6287C18.3491 13.5903 19.0985 13.7215 19.7913 14.0125C20.484 14.3036 21.1022 14.7471 21.6 15.31C24.08 18.24 22.6 22.67 18.26 23.18C17.4629 23.2914 16.6512 23.23 15.88 23C15.836 22.9855 15.7896 22.9799 15.7434 22.9834C15.6973 22.9869 15.6522 22.9994 15.6109 23.0203C15.5696 23.0412 15.5328 23.07 15.5026 23.1052C15.4724 23.1403 15.4494 23.181 15.435 23.225C15.4206 23.269 15.4149 23.3154 15.4184 23.3616C15.4219 23.4077 15.4344 23.4528 15.4553 23.4941C15.4762 23.5354 15.5051 23.5722 15.5402 23.6024C15.5753 23.6326 15.616 23.6555 15.66 23.67C16.5227 23.9555 17.4362 24.0544 18.34 23.96C19.4185 23.937 20.4682 23.6073 21.3662 23.0095C22.2642 22.4118 22.9734 21.5706 23.4108 20.5846C23.8483 19.5985 23.9959 18.5082 23.8363 17.4413C23.6768 16.3744 23.2168 15.375 22.51 14.56Z" fill="black"/>
<path fill-rule="evenodd" clip-rule="evenodd" d="M17.44 19C17.5068 19.7385 17.5068 20.4815 17.44 21.22C17.4122 21.3088 17.4207 21.4051 17.4639 21.4876C17.507 21.5701 17.5812 21.6321 17.67 21.66C17.7588 21.6878 17.8551 21.6792 17.9376 21.6361C18.0201 21.593 18.0822 21.5188 18.11 21.43C18.3821 20.6363 18.5403 19.8081 18.58 18.97C19.3022 18.9132 20.0278 18.9132 20.75 18.97C20.7953 18.9798 20.8421 18.9807 20.8877 18.9724C20.9334 18.9642 20.9769 18.947 21.0159 18.922C21.0549 18.8969 21.0886 18.8644 21.115 18.8263C21.1415 18.7882 21.1601 18.7453 21.17 18.7C21.1798 18.6547 21.1807 18.6079 21.1724 18.5622C21.1642 18.5166 21.1471 18.4731 21.122 18.4341C21.0969 18.3951 21.0644 18.3614 21.0263 18.3349C20.9882 18.3085 20.9453 18.2898 20.9 18.28C20.2182 18.0589 19.5138 17.9146 18.8 17.85C18.55 17.85 18.62 17.85 18.61 17.72C18.5429 16.9384 18.4361 16.1607 18.29 15.39C18.29 15.39 18.29 14.8 18.04 14.76C17.79 14.72 17.61 14.89 17.66 15.39C17.55 16.79 17.49 16.64 17.44 17.84C16.5876 17.9101 15.7475 18.0882 14.94 18.37C14.8992 18.3764 14.8601 18.3909 14.825 18.4126C14.7898 18.4343 14.7594 18.4629 14.7354 18.4965C14.7115 18.5302 14.6945 18.5683 14.6855 18.6086C14.6765 18.6489 14.6756 18.6906 14.683 18.7312C14.6903 18.7719 14.7057 18.8107 14.7282 18.8453C14.7507 18.8799 14.7799 18.9097 14.8141 18.9329C14.8483 18.956 14.8868 18.9721 14.9273 18.9802C14.9678 18.9883 15.0095 18.9882 15.05 18.98C15.72 18.89 16.3 18.94 17.44 19Z" fill="black"/>
</g>
<defs>
<clipPath id="clip0_1048_7440">
<rect width="24" height="24" fill="white"/>
</clipPath>
</defs>
</svg>
