<svg width="24" height="24" viewBox="0 0 24 24" fill="none" xmlns="http://www.w3.org/2000/svg">
<g clip-path="url(#clip0_1048_7460)">
<path fill-rule="evenodd" clip-rule="evenodd" d="M11.14 21.65C9.45 21.65 6.97 21.65 5.3 21.47C4.22 21.37 1.95 21.55 1.09 20.79C1.15 20.66 1.27 20.5 1.28 20.45C3.04 16.75 3.28 8.85001 3.28 8.77001C3.56 2.56001 3.64 2.85 3.42 2.77C3.38024 2.74056 3.33381 2.7214 3.28486 2.71425C3.23591 2.70709 3.18594 2.71215 3.13941 2.72898C3.09289 2.74581 3.05125 2.77388 3.0182 2.8107C2.98515 2.84752 2.96172 2.89194 2.95 2.94C2.9 3 3 2.00001 2.37 8.68001C1.27 17.73 0.169999 20.24 0.169999 20.27C0.169999 20.46 -0.200001 21.04 0.169999 21.44C1.36 22.69 3.78 22.31 5.23 22.38C6.86 22.45 9.5 22.38 11.14 22.33C11.2302 22.33 11.3167 22.2942 11.3804 22.2304C11.4442 22.1667 11.48 22.0802 11.48 21.99C11.48 21.8998 11.4442 21.8134 11.3804 21.7496C11.3167 21.6858 11.2302 21.65 11.14 21.65Z" fill="black"/>
<path fill-rule="evenodd" clip-rule="evenodd" d="M23.57 2.34999C22.8889 1.99548 22.1448 1.77804 21.38 1.70999C20.62 1.61999 4.07 1.18999 4.52 2.70999C4.5313 2.75528 4.55238 2.79754 4.58175 2.83381C4.61111 2.87009 4.64806 2.8995 4.69 2.91999C5.46171 2.92645 6.23311 2.88638 7 2.79999C10.2 2.28999 21.21 2.79999 21.3 2.84999C21.8462 2.88884 22.3828 3.01372 22.89 3.21999C22.57 4.09999 22.17 12.75 22.17 12.83C22.1634 12.9096 22.1886 12.9885 22.2402 13.0494C22.2918 13.1104 22.3654 13.1484 22.445 13.155C22.5246 13.1616 22.6035 13.1364 22.6645 13.0848C22.7254 13.0332 22.7634 12.9596 22.77 12.88C22.97 10.8 23.09 8.77999 23.42 6.81999C23.85 4.45999 24.4 2.81999 23.57 2.34999Z" fill="black"/>
<path fill-rule="evenodd" clip-rule="evenodd" d="M21.91 13.6C21.5 13.42 17.09 16.22 15.46 14.6C15.3802 14.5051 15.2715 14.4389 15.1506 14.4113C15.0297 14.3838 14.9031 14.3964 14.79 14.4473C14.677 14.4982 14.5836 14.5845 14.524 14.6933C14.4644 14.8021 14.442 14.9273 14.46 15.05C14.12 18.18 14.23 18.16 13.55 19.45C12.66 21.27 11.38 21.6 12 22C12.0405 22.0353 12.09 22.0586 12.1429 22.0675C12.1959 22.0763 12.2503 22.0702 12.3 22.05C12.38 22.05 13.3 21.27 13.36 21.19C14.7662 19.8187 15.596 17.9623 15.68 16C17.45 16.55 19.17 15.58 20.86 14.85C20.86 14.9 19.47 17.23 19.42 17.29C18.2072 18.8411 16.5714 20.0081 14.71 20.65C14.6251 20.6818 14.5564 20.746 14.5189 20.8286C14.4814 20.9111 14.4782 21.0051 14.51 21.09C14.5418 21.1749 14.6061 21.2436 14.6886 21.2811C14.7711 21.3186 14.8651 21.3218 14.95 21.29C17.0384 20.7984 18.9117 19.6442 20.29 18C20.9842 16.8876 21.5574 15.7042 22 14.47C22.11 14.18 22.26 13.75 21.91 13.6Z" fill="black"/>
</g>
<defs>
<clipPath id="clip0_1048_7460">
<rect width="24" height="24" fill="white"/>
</clipPath>
</defs>
</svg>
