<svg width="24" height="24" viewBox="0 0 24 24" fill="none" xmlns="http://www.w3.org/2000/svg">
<g clip-path="url(#clip0_1048_7448)">
<path fill-rule="evenodd" clip-rule="evenodd" d="M21.53 7.61001C21.5767 6.48965 21.5533 5.36746 21.46 4.25001C21.4 3.87001 21.46 3.25001 20.99 2.92001C19.88 2.31001 18.92 2.69001 17.81 2.28001C17.7655 1.78521 17.637 1.30161 17.43 0.85001C17.2756 0.701756 17.092 0.587323 16.8908 0.514015C16.6897 0.440707 16.4755 0.410135 16.2619 0.42425C16.0483 0.438364 15.84 0.496856 15.6503 0.59599C15.4605 0.695125 15.2936 0.832726 15.16 1.00001C14.9265 1.37447 14.7733 1.7933 14.71 2.23001C13.7606 2.06356 12.7894 2.06356 11.84 2.23001C11.7911 1.76927 11.666 1.31984 11.47 0.90001C11.3134 0.752655 11.1278 0.639497 10.9251 0.567731C10.7224 0.495964 10.507 0.46716 10.2926 0.483148C10.0781 0.499137 9.86938 0.559569 9.67957 0.660603C9.48975 0.761636 9.32303 0.90106 9.19001 1.07001C8.9937 1.39626 8.85818 1.75541 8.79001 2.13001C8.03736 2.0356 7.27306 2.12128 6.56001 2.38001C6.51351 1.9264 6.39184 1.48368 6.20001 1.07001C6.04011 0.894162 5.83662 0.763644 5.6101 0.691652C5.38359 0.61966 5.14209 0.608745 4.91001 0.66001C4.00001 0.82001 3.63001 1.56001 3.47001 2.50001C3.3707 3.36658 3.31729 4.2378 3.31001 5.11001C3.33037 5.27172 3.39626 5.42431 3.50001 5.55001C3.86001 5.94001 7.00001 6.92001 6.65001 3.08001C7.31172 3.24697 8.00825 3.21214 8.65001 2.98001C8.65001 3.15001 8.55 4.77001 8.57001 4.98001C8.67001 5.75001 9.40001 5.61001 9.78001 5.71001C11.47 6.13001 12.04 4.79001 11.91 3.03001C12.7922 3.2834 13.7278 3.2834 14.61 3.03001C14.41 6.03001 14.66 5.32001 15.75 5.62001C17.44 6.04001 18.01 4.69001 17.87 2.93001C18.94 3.22001 19.87 3.07001 20.64 3.51001C20.75 3.57001 20.72 4.11001 20.75 4.33001C20.815 5.41904 20.815 6.51098 20.75 7.60001C20.75 10.71 21.26 14.21 20.2 17.02C19.14 19.83 18.82 18.74 15.91 19.1C13.33 19.42 4.52001 20.1 2.04001 19.33C1.81001 19.26 1.31001 19.15 1.19001 18.95C0.710005 18.15 1.00001 16 1.00001 15C1.10001 6.07001 0.900005 4.44001 2.00001 3.48001C2.56001 3.00001 3.12001 3.00001 3.00001 2.63001C2.98777 2.59635 2.96895 2.56546 2.94466 2.53914C2.92037 2.51283 2.89109 2.4916 2.85851 2.47671C2.82594 2.46182 2.79073 2.45356 2.75493 2.45241C2.71914 2.45126 2.68347 2.45724 2.65001 2.47001C1.14001 3.00001 0.730005 4.00001 0.550005 5.54001C0.420005 6.61001 0.380005 8.58001 0.160005 15C0.0700053 16.26 -0.249995 18.37 0.380005 19.47C1.01001 20.57 4.18001 20.72 5.50001 20.72C9.0253 20.7726 12.5501 20.5855 16.05 20.16C17.0779 20.1409 18.1035 20.054 19.12 19.9C20.23 19.61 20.72 18.45 21.12 17.39C22.19 14.31 21.56 10.79 21.53 7.61001ZM5.53001 4.55001C5.35001 4.93001 5.07 4.92001 4.22001 4.83001C4.22001 4.67001 4.31001 4.43001 4.31001 4.35001C4.16245 3.42814 4.22396 2.4849 4.49001 1.59001C4.83001 0.93001 5.59001 1.36001 5.59001 1.36001C5.88709 2.40357 5.88015 3.51025 5.57001 4.55001H5.53001ZM10.8 4.39001C10.62 4.75001 10.34 4.76001 9.49001 4.66001C9.49001 4.50001 9.58001 4.26001 9.58001 4.18001C9.44539 3.25515 9.52058 2.31186 9.80001 1.42001C10 1.00001 10.86 0.94001 11 1.46001C11.0424 1.71479 11.0691 1.97195 11.08 2.23001C11.1836 2.95873 11.101 3.70181 10.84 4.39001H10.8ZM16.8 4.39001C16.61 4.76001 16.33 4.76001 15.48 4.67001C15.58 2.83001 15.39 2.15001 15.76 1.42001C15.98 0.99001 16.76 0.92001 16.93 1.42001C17.1355 2.38801 17.0942 3.39214 16.81 4.34001L16.8 4.39001Z" fill="black"/>
<path d="M22.68 5.54002C22.6 8.43002 22.68 11.31 22.68 14.2C22.68 15.57 22.77 16.96 22.73 18.34C22.7951 18.9843 22.6055 19.6285 22.2019 20.1349C21.7983 20.6413 21.2126 20.9697 20.57 21.05C17.7984 21.5678 14.9957 21.9019 12.18 22.05C10.82 22.15 9.45002 22.26 8.09002 22.28C6.73002 22.3 5.18002 21.98 3.89002 22.37C3.56002 22.47 3.42002 23.01 3.78002 23.17C5.18015 23.5657 6.6416 23.698 8.09002 23.56C9.71002 23.56 11.3 23.56 12.92 23.51C14.54 23.46 16.01 23.23 17.55 23.01C19.0036 22.9028 20.4345 22.5897 21.8 22.08C24.42 20.85 24 17.94 24 15.51C23.93 12.19 23.89 8.86002 23.68 5.51002C23.6634 5.39589 23.6063 5.29155 23.519 5.2161C23.4318 5.14065 23.3203 5.09912 23.205 5.09912C23.0897 5.09912 22.9782 5.14065 22.891 5.2161C22.8038 5.29155 22.7466 5.39589 22.73 5.51002L22.68 5.54002Z" fill="black"/>
</g>
<defs>
<clipPath id="clip0_1048_7448">
<rect width="24" height="24" fill="white"/>
</clipPath>
</defs>
</svg>
