<svg width="24" height="24" viewBox="0 0 24 24" fill="none" xmlns="http://www.w3.org/2000/svg">
<g clip-path="url(#clip0_1051_8785)">
<path fill-rule="evenodd" clip-rule="evenodd" d="M23.31 7.53003C22.8014 7.07096 22.1511 6.79977 21.4671 6.76157C20.783 6.72336 20.1065 6.92044 19.55 7.32003C19.0849 7.73533 18.7306 8.26006 18.5193 8.84674C18.3081 9.43342 18.2464 10.0635 18.34 10.68C18.3018 10.7804 18.244 10.8722 18.17 10.95C17.69 10.47 17.6 10.28 17.35 10.13C17.0766 9.99192 16.7785 9.90933 16.473 9.88702C16.1675 9.8647 15.8606 9.90311 15.57 10C15.2952 10.0965 15.0667 10.2929 14.93 10.55C14.3155 10.8084 13.8125 11.276 13.51 11.87C13.06 12.97 13.76 13.87 14.37 14.77C14.6694 15.2159 15.0038 15.6372 15.37 16.03C16.3943 16.9151 17.6092 17.5517 18.92 17.89C19.2243 17.9064 19.5281 17.8484 19.8051 17.7213C20.0821 17.5941 20.324 17.4015 20.51 17.16C21.15 16.43 21.97 15.33 21.7 14.44C21.24 12.88 19.8 12.82 20.33 13.61C20.5999 13.9016 20.8135 14.2407 20.96 14.61C20.974 14.7093 20.9672 14.8105 20.9398 14.907C20.9125 15.0035 20.8653 15.0932 20.8013 15.1704C20.7373 15.2476 20.6578 15.3106 20.5681 15.3553C20.4783 15.4 20.3802 15.4254 20.28 15.43C19.44 15.52 17.03 13.71 16.28 12.25C16.0302 11.9159 15.85 11.535 15.75 11.13C15.75 10.52 16.75 10.5 17.11 10.67L17.85 11.35C17.52 11.68 17.08 12.11 17.38 12.35C17.4356 12.4021 17.5089 12.431 17.585 12.431C17.6611 12.431 17.7344 12.4021 17.79 12.35C17.94 11.94 18.85 11.46 19.1 10.84C19.35 10.22 18.9 9.62003 19.78 8.49003C20.1149 8.09263 20.5912 7.84118 21.1083 7.78892C21.6253 7.73665 22.1424 7.88769 22.55 8.21003C23.42 9.13003 22.97 11.36 21.55 11.67C21.01 11.8 20.55 11.67 20.05 12.07C19.8097 12.2957 19.595 12.5472 19.41 12.82C19.12 13.21 18.77 13.55 19.19 13.73C19.61 13.91 19.65 13.63 19.96 13.26C20.12 13.0429 20.3046 12.8449 20.51 12.67C20.83 12.45 21.27 12.67 21.9 12.48C22.3659 12.3008 22.7837 12.0157 23.1205 11.6472C23.4572 11.2787 23.7037 10.837 23.8405 10.3569C23.9772 9.87687 24.0005 9.37158 23.9084 8.88097C23.8163 8.39036 23.6115 7.92787 23.31 7.53003ZM16.59 14.53C17.33 15.24 18.96 16.41 20.13 16.37C19.78 16.76 19.38 17.12 18.89 16.96C17.3887 16.4603 16.1063 15.457 15.26 14.12C14.913 13.7489 14.614 13.3357 14.37 12.89C14.26 12.6733 14.2248 12.4262 14.2701 12.1874C14.3153 11.9486 14.4383 11.7315 14.62 11.57L14.78 11.44C15.0738 12.6312 15.7018 13.7137 16.59 14.56V14.53Z" fill="black"/>
<path fill-rule="evenodd" clip-rule="evenodd" d="M12.62 21.61C11.5961 22.0059 10.5285 22.2778 9.44 22.42C8.32 22.54 7.44 22.8 6.85 22.79C6.78 22.79 6.7 22.72 6.67 22.74C5.32 19.94 0.71 5.27 0.55 5C0.521357 4.94831 0.478084 4.90622 0.425612 4.87903C0.373139 4.85184 0.313805 4.84076 0.255055 4.84717C0.196304 4.85358 0.140756 4.8772 0.09538 4.91506C0.0500043 4.95292 0.0168229 5.00335 0 5.06C0 5.15 2.22 13.43 2.47 14.28C3.37506 17.3332 4.49795 20.3175 5.83 23.21C6.37 24.21 7.93 23.47 9.55 23.21C10.673 22.9963 11.7695 22.6609 12.82 22.21C12.8723 22.1662 12.9101 22.1076 12.9287 22.042C12.9472 21.9764 12.9456 21.9067 12.9241 21.842C12.9025 21.7773 12.862 21.7206 12.8077 21.6792C12.7535 21.6378 12.6881 21.6137 12.62 21.61Z" fill="black"/>
<path fill-rule="evenodd" clip-rule="evenodd" d="M0.889989 4.36001C3.81661 3.27211 6.82642 2.42267 9.88999 1.82001C10.8153 1.61428 11.7545 1.47724 12.7 1.41001C12.57 2.41001 11.86 5.26001 13.31 5.41001C14.6904 5.35455 16.0028 4.79614 17 3.84001C17.34 5.37001 17.16 4.67001 17.8 7.00001C17.8297 7.06639 17.8826 7.1197 17.9487 7.15001C18.0149 7.18032 18.0898 7.18556 18.1595 7.16477C18.2292 7.14398 18.289 7.09857 18.3277 7.03699C18.3664 6.9754 18.3815 6.90185 18.37 6.83001C18.0898 5.67993 17.8761 4.51467 17.73 3.34001C17.62 2.57001 13.99 0.170013 12.43 0.340013C7.79999 0.740013 3.74999 2.58001 0.619989 3.75001C0.539098 3.78582 0.475744 3.85229 0.443862 3.9348C0.411981 4.01732 0.414185 4.10912 0.449989 4.19001C0.485794 4.2709 0.552265 4.33426 0.634781 4.36614C0.717297 4.39802 0.809098 4.39582 0.889989 4.36001ZM16.55 3.24001C16.13 3.83001 14.37 4.24001 13.55 4.24001C13.4153 3.34327 13.3584 2.43656 13.38 1.53001C14.5048 1.96344 15.57 2.53805 16.55 3.24001Z" fill="black"/>
<path fill-rule="evenodd" clip-rule="evenodd" d="M22.3 17.91C21.73 17.91 22.39 18.74 21.39 20.58L18.46 19.43C18.19 19.33 18.34 19.3 15.17 21.38C14.865 20.4636 14.5078 19.5655 14.1 18.69C13.69 18.13 12.27 18.6 10.26 18.97C11.7 16.85 11.95 16.54 11.53 16.15C11.11 15.76 8.91001 14.4 8.68001 14.05C8.93001 13.93 9.37001 13.74 9.81001 13.56C11.05 13.07 11.2 13.19 11.29 12.83C11.38 12.47 11.07 10.83 11.14 10.23C11.26 10.23 11.03 10.16 12.72 10.53C12.8075 10.5406 12.8957 10.516 12.9651 10.4616C13.0345 10.4072 13.0794 10.3275 13.09 10.24C13.1006 10.1525 13.076 10.0643 13.0216 9.99494C12.9673 9.92555 12.8875 9.88061 12.8 9.87C12.29 9.8 10.92 9.15 10.56 9.7C10.3872 10.6032 10.3602 11.5283 10.48 12.44C9.72392 12.6637 8.98249 12.9342 8.26001 13.25C7.96001 13.4 7.61001 13.45 7.52001 13.81C7.43001 14.17 7.80001 14.57 8.12001 14.81C8.44001 15.05 9.85001 16.15 10.49 16.63C9.85325 17.4743 9.2624 18.3522 8.72001 19.26C8.65103 19.3943 8.63432 19.5495 8.67311 19.6954C8.71191 19.8413 8.80344 19.9677 8.93001 20.05C9.39337 20.2288 9.90666 20.2288 10.37 20.05C10.98 19.94 12.59 19.57 13.37 19.51C14.17 21.11 14.37 23.11 15.29 22.51L18.43 20.25L21.43 21.3C21.5054 21.3286 21.5884 21.3304 21.665 21.3048C21.7415 21.2793 21.8069 21.2282 21.85 21.16C22.3758 20.2491 22.6421 19.2115 22.62 18.16C22.61 18.0847 22.5709 18.0164 22.5111 17.9696C22.4512 17.9229 22.3755 17.9015 22.3 17.91Z" fill="black"/>
<path fill-rule="evenodd" clip-rule="evenodd" d="M10 5.42003C10.0862 5.40146 10.1615 5.34942 10.2093 5.27534C10.2571 5.20126 10.2736 5.11122 10.255 5.02503C10.2364 4.93883 10.1844 4.86354 10.1103 4.81572C10.0362 4.7679 9.9462 4.75146 9.86001 4.77003C7.78648 5.14783 5.80011 5.90373 4.00001 7.00003C3.96324 7.01185 3.92916 7.03079 3.89971 7.05578C3.87026 7.08077 3.84602 7.11132 3.82838 7.14568C3.81073 7.18004 3.80003 7.21753 3.79688 7.25603C3.79373 7.29452 3.79819 7.33326 3.81001 7.37003C3.82183 7.4068 3.84077 7.44088 3.86576 7.47033C3.89075 7.49978 3.9213 7.52401 3.95566 7.54166C3.99001 7.5593 4.02751 7.57 4.066 7.57316C4.1045 7.57631 4.14324 7.57185 4.18001 7.56003C7.40001 6.88003 8.48001 5.88003 10 5.42003Z" fill="black"/>
<path fill-rule="evenodd" clip-rule="evenodd" d="M6.31 10.26C7.09206 10.1953 7.85516 9.98501 8.56 9.64002C9.03166 9.34463 9.54849 9.12844 10.09 9.00002C10.1689 8.98633 10.2405 8.94522 10.292 8.88393C10.3436 8.82265 10.3719 8.74512 10.3719 8.66502C10.3719 8.58492 10.3436 8.50739 10.292 8.4461C10.2405 8.38482 10.1689 8.3437 10.09 8.33002C9.64636 8.29259 9.19961 8.3332 8.77 8.45002C8.18227 8.58441 7.61188 8.78572 7.07 9.05002C7.32 8.96002 5.46 9.73002 5.42 9.81002C5.2 10.33 5.77 10.36 6.31 10.26Z" fill="black"/>
</g>
<defs>
<clipPath id="clip0_1051_8785">
<rect width="24" height="24" fill="white"/>
</clipPath>
</defs>
</svg>
