<svg width="24" height="24" viewBox="0 0 24 24" fill="none" xmlns="http://www.w3.org/2000/svg">
<g clip-path="url(#clip0_1051_8755)">
<path fill-rule="evenodd" clip-rule="evenodd" d="M19.92 12.42C18.29 12.18 10.3 12.54 9.62 12.54C8.72 12.54 8.82 12.82 8.62 12.03C8.57932 11.3133 8.36665 10.617 8 9.99995C7.19 9.18995 1.82 9.99995 1.16 11.42C0.829998 12.11 1.55 13.8 1.77 14.52C2.34848 16.9038 3.09706 19.2431 4.01 21.52C4.04315 21.5929 4.10392 21.6497 4.17893 21.6778C4.25395 21.7059 4.33706 21.7031 4.41 21.67C4.48293 21.6368 4.53971 21.576 4.56784 21.501C4.59597 21.426 4.59315 21.3429 4.56 21.27C3.73106 19.0133 3.06273 16.7009 2.56 14.35C2.2585 13.542 2.06352 12.6983 1.98 11.84C2.3 11.2 5.16 10.73 5.98 10.74L7.37 10.8C7.61 11.15 7.55 12.8 8.15 13.41C8.75 14.02 12.41 13.47 17.01 13.59C17.21 13.59 20.25 13.38 20.64 13.85C21.03 14.32 20.36 16.79 20.21 17.34C19.87 18.62 19.47 21.45 18.85 22.52C18.69 22.8 18.72 22.98 17.02 23.12C14.81 23.31 13.31 23.06 8.81 23.12L6.66 23C6.11 23 5.57 22.74 5.48 23.21C5.35 23.94 6.64 23.61 14.39 24.01C15.8739 24.1225 17.3662 24.018 18.82 23.7C20.18 23.2 20.59 19.56 21.15 17.6C21.49 16.44 22.15 14.03 21.42 13.1C21.0125 12.7084 20.4831 12.4683 19.92 12.42Z" fill="black"/>
<path fill-rule="evenodd" clip-rule="evenodd" d="M5.59001 8.36998C5.72001 8.79998 6.10001 8.76998 6.21001 8.51998C6.42001 8.05998 6.07001 7.13998 6.07001 7.11998C6.07001 7.09998 5.73001 2.99998 6.08001 1.90998C6.34001 1.11998 8.88001 1.13998 9.71001 1.12998C10.95 1.12998 17.99 1.38998 18.55 2.18998C18.71 2.42998 18.63 2.79998 18.55 3.18998C18.341 5.59681 17.9465 7.9839 17.37 10.33C17.3551 10.375 17.3497 10.4226 17.3543 10.4698C17.3589 10.517 17.3733 10.5627 17.3966 10.604C17.4199 10.6453 17.4516 10.6813 17.4896 10.7096C17.5276 10.7379 17.5712 10.758 17.6174 10.7685C17.6636 10.779 17.7115 10.7797 17.7581 10.7706C17.8046 10.7615 17.8487 10.7428 17.8876 10.7156C17.9264 10.6884 17.9592 10.6534 17.9837 10.6128C18.0082 10.5723 18.024 10.527 18.03 10.48C18.7 8.1231 19.1947 5.71987 19.51 3.28998C19.5963 3.01 19.6266 2.71576 19.5992 2.42406C19.5717 2.13237 19.487 1.84894 19.35 1.58998C18.8 0.699982 17.17 0.609982 16.16 0.449982C13.57 0.079982 8.64001 -0.400018 6.20001 0.579982C5.14001 0.999982 5.12001 1.77998 5.10001 2.83998C5.12864 4.69278 5.29241 6.54102 5.59001 8.36998Z" fill="black"/>
<path fill-rule="evenodd" clip-rule="evenodd" d="M22.82 5.32999C22.3757 4.71995 21.7317 4.28477 21 4.09999C20.9305 4.07808 20.8553 4.08224 20.7886 4.11171C20.7219 4.14117 20.6682 4.19392 20.6376 4.26008C20.607 4.32625 20.6015 4.40131 20.6222 4.47123C20.6429 4.54114 20.6883 4.60113 20.75 4.63999C22.4 5.57999 21.93 5.90999 21.67 6.47999C21.1833 7.90174 20.5847 9.28272 19.88 10.61C19.8349 10.6882 19.8228 10.7812 19.8462 10.8684C19.8696 10.9556 19.9268 11.0299 20.005 11.075C20.0832 11.1201 20.1762 11.1322 20.2634 11.1088C20.3506 11.0853 20.4249 11.0282 20.47 10.95C20.88 10.19 23.53 6.69999 22.82 5.32999Z" fill="black"/>
<path fill-rule="evenodd" clip-rule="evenodd" d="M16.54 5.26996C16.6055 5.24331 16.6628 5.19977 16.706 5.14377C16.7492 5.08777 16.7768 5.02131 16.7859 4.95117C16.7951 4.88103 16.7855 4.80973 16.7581 4.74452C16.7307 4.6793 16.6865 4.62252 16.63 4.57996C16.45 4.40996 16.01 4.35996 14.72 4.17996C13.3278 3.98723 11.9171 3.96708 10.52 4.11996C8.88 4.11996 8.8 4.11996 8.52 4.25996C8.48242 4.29851 8.45631 4.34675 8.44459 4.3993C8.43287 4.45184 8.43601 4.50661 8.45366 4.55747C8.4713 4.60833 8.50276 4.65327 8.5445 4.68727C8.58624 4.72127 8.63662 4.74298 8.69 4.74996L9.26 4.82996C11.0385 5.1712 12.8547 5.2721 14.66 5.12996C14.73 5.13996 16.46 5.30996 16.54 5.26996Z" fill="black"/>
<path fill-rule="evenodd" clip-rule="evenodd" d="M16.07 7.83C15.4731 7.54436 14.8216 7.39087 14.16 7.38C13.1493 7.21083 12.1238 7.14715 11.1 7.19C10 7.27 8.19 7 8.42 7.72C8.43242 7.75745 8.45212 7.79209 8.47796 7.82193C8.5038 7.85176 8.53527 7.8762 8.57057 7.89385C8.60587 7.9115 8.6443 7.92201 8.68367 7.92478C8.72304 7.92755 8.76257 7.92253 8.8 7.91C9.34 7.78 9.54 8.29 14.09 8.35C14.6287 8.27001 15.1773 8.28694 15.71 8.4C15.7472 8.43097 15.7906 8.45364 15.8372 8.46651C15.8839 8.47937 15.9328 8.48212 15.9806 8.47457C16.0284 8.46702 16.074 8.44936 16.1145 8.42275C16.1549 8.39614 16.1892 8.36121 16.215 8.32028C16.2409 8.27936 16.2577 8.23339 16.2643 8.18545C16.271 8.1375 16.2673 8.08869 16.2536 8.04228C16.2399 7.99586 16.2164 7.95292 16.1847 7.91631C16.1531 7.8797 16.1139 7.85027 16.07 7.83Z" fill="black"/>
<path fill-rule="evenodd" clip-rule="evenodd" d="M1.93 6.05C2.21894 6.7434 2.4726 7.45097 2.69 8.17C2.69795 8.24957 2.73719 8.32272 2.79908 8.37335C2.86097 8.42399 2.94043 8.44796 3.02 8.44C3.09956 8.43205 3.17271 8.39281 3.22334 8.33092C3.27398 8.26904 3.29795 8.18957 3.29 8.11C3.21781 7.06102 3.05385 6.02037 2.8 5C2.67 4.39 2.27 4 4.33 3.29C4.41356 3.26518 4.4844 3.2092 4.52787 3.13364C4.57134 3.05808 4.58413 2.9687 4.56359 2.88398C4.54305 2.79926 4.49076 2.72566 4.41751 2.6784C4.34426 2.63113 4.25565 2.61381 4.17 2.63C1.48 3 1.19 4.00001 1.93 6.05Z" fill="black"/>
</g>
<defs>
<clipPath id="clip0_1051_8755">
<rect width="24" height="24" fill="white"/>
</clipPath>
</defs>
</svg>
