<svg width="24" height="24" viewBox="0 0 24 24" fill="none" xmlns="http://www.w3.org/2000/svg">
<g clip-path="url(#clip0_1051_8722)">
<path fill-rule="evenodd" clip-rule="evenodd" d="M23.56 15C23.3695 13.9579 23.1123 12.9291 22.79 11.92C22.54 11.18 22.41 10.3 22.2 9.51001C21.47 6.76001 21.84 5.02001 21.5 2.43001C21.4823 2.22518 21.4159 2.02756 21.3063 1.85361C21.1967 1.67966 21.0471 1.53443 20.87 1.43001C19.1381 0.482753 17.194 -0.00928445 15.22 7.12332e-06C14.884 0.054614 14.5732 0.211796 14.33 0.450007C13.9618 0.869501 13.7465 1.40134 13.7193 1.95883C13.6921 2.51633 13.8545 3.06662 14.18 3.52001C14.63 3.95001 15.27 3.80001 15.82 3.78001C20.62 3.86001 20.59 3.87001 20.67 3.84001C20.86 4.84001 21.05 6.70001 21.16 7.74001C20.3386 7.45247 19.4794 7.28737 18.61 7.25001C14.9905 6.85458 11.3438 6.77094 7.71001 7.00001C7.63072 7.01909 7.56093 7.06603 7.51337 7.13228C7.46581 7.19853 7.44364 7.27967 7.45091 7.3609C7.45819 7.44212 7.49442 7.51803 7.55299 7.57478C7.61157 7.63152 7.68859 7.66532 7.77001 7.67001C13.49 7.45001 20.64 8.16001 20.92 8.76001C21.33 9.65001 21.44 11.08 21.78 12.17C21.89 12.55 22 12.94 22.09 13.34C22.7 15.84 22.33 15.74 22.55 15.8C20.98 16.37 2.67001 16.69 1.26001 15.75C0.890008 15.49 1.14001 15.09 1.26001 14.46C1.64185 13.1717 2.1302 11.9174 2.72001 10.71C2.74918 10.6384 2.74871 10.5581 2.71871 10.4869C2.6887 10.4156 2.63162 10.3592 2.56001 10.33C2.4884 10.3008 2.40813 10.3013 2.33687 10.3313C2.26561 10.3613 2.20918 10.4184 2.18001 10.49C1.52928 11.7144 0.993652 12.9966 0.580008 14.32C0.410008 15.07 0.0200082 15.78 0.830008 16.32C1.57764 16.7038 2.40994 16.893 3.25001 16.87C3.54001 16.87 3.50001 16.49 2.55001 19.46C2.13101 20.6045 1.83925 21.7917 1.68001 23C1.83001 23.92 3.82001 23.51 4.68001 23.61C5.45047 23.6947 6.22491 23.7381 7.00001 23.74C7.57001 23.74 8.12001 23.62 8.10001 23.05C7.612 21.0629 7.01781 19.1035 6.32001 17.18C9.65001 17.37 14.1 17.49 17.46 17.4C16.7561 19.3359 16.1585 21.3089 15.67 23.31C15.67 23.88 16.2 23.98 16.77 24C17.55 24 18.82 23.91 19.13 23.88C19.99 23.77 21.98 24.18 22.13 23.27C22.25 22.53 20.65 17.94 20.38 17.27C23.51 17 23.89 16.62 23.56 15ZM20.56 3.27001C12 2.66001 18.07 3.00001 15.16 2.92001C15.04 2.92001 14.93 2.92001 14.87 2.86001C14.58 2.57001 14.79 1.57001 15.1 1.27001C15.66 0.730007 19.25 1.75001 20.2 2.27001C20.55 2.40001 20.47 2.30001 20.58 3.23001L20.56 3.27001ZM4.81001 22.5C2.56001 22.26 1.86001 24.22 4.05001 17.15C4.05001 16.98 3.83001 17.03 5.62001 17.15C7.64001 24 7.63001 22.82 4.81001 22.5ZM19.81 17.4C20.12 18.4 20.67 20.57 21.08 22.77C20.37 22.77 19.46 22.71 19.08 22.77C18.7 22.83 17.46 22.92 16.87 22.92C16.97 22.21 17.95 18.51 18.28 17.4C20 17.31 19.75 17.24 19.8 17.4H19.81Z" fill="black"/>
<path fill-rule="evenodd" clip-rule="evenodd" d="M8.00001 12.16C8.73001 10.53 9.22001 10.16 8.80001 9.96002C8.76604 9.94091 8.72855 9.92884 8.68981 9.92454C8.65106 9.92025 8.61185 9.92381 8.57451 9.93501C8.53717 9.94621 8.50247 9.96482 8.47249 9.98974C8.44251 10.0147 8.41786 10.0454 8.40001 10.08C8.00001 10.72 6.70001 12.75 6.70001 14C6.70001 14.47 7.04001 14.63 7.56001 14.73C9.07001 15.02 17.22 15.39 17.89 14.73C18.56 14.07 17.07 10.22 16.69 9.85002C16.4596 9.66548 16.1828 9.54786 15.89 9.51002C13.8135 9.30395 11.7259 9.23047 9.64001 9.29002C9.56109 9.30371 9.48953 9.34482 9.43796 9.4061C9.38639 9.46739 9.35811 9.54492 9.35811 9.62502C9.35811 9.70512 9.38639 9.78265 9.43796 9.84393C9.48953 9.90522 9.56109 9.94633 9.64001 9.96002C11.6032 9.99241 13.563 10.136 15.51 10.39C16.09 10.49 16.04 10.33 16.51 12.09C16.6954 12.6289 16.826 13.185 16.9 13.75V13.88C13.7503 14.0938 10.5897 14.0938 7.44001 13.88C7.44001 13.72 7.57001 13.49 7.58001 13.42C7.66393 12.9834 7.80515 12.5597 8.00001 12.16Z" fill="black"/>
<path fill-rule="evenodd" clip-rule="evenodd" d="M2.65001 7.13C2.73001 10 2.65001 9.26 2.65001 9.47C2.76001 10.16 5.41001 10.47 6.19001 9.8C6.76001 9.3 6.60001 8.5 6.70001 8.02C6.93001 6.71 7.06001 5.56 5.70001 5.61C6.0354 4.99963 6.12484 4.28415 5.95001 3.61C5.93632 3.53108 5.89521 3.45952 5.83392 3.40795C5.77264 3.35637 5.69511 3.32809 5.61501 3.32809C5.53491 3.32809 5.45738 3.35637 5.39609 3.40795C5.33481 3.45952 5.2937 3.53108 5.28001 3.61C5.13001 4.31 4.73001 4.34 4.79001 5.69L4.07001 5.76C4.16586 5.29752 4.15913 4.81966 4.05028 4.36007C3.94143 3.90048 3.73311 3.47035 3.44001 3.1C2.66001 2.88 3.00001 4.87 3.32001 5.69C3.32001 5.69 3.32001 5.77 3.38001 5.84H3.26001C2.41001 5.92 2.60001 6.53 2.65001 7.13ZM3.31001 6.52H5.31001C6.42001 6.52 6.00001 6.58 5.68001 7.8C5.48001 8.67 6.06001 9.4 3.58001 9V8.81C3.21001 6.25 3.23001 6.53 3.31001 6.52Z" fill="black"/>
</g>
<defs>
<clipPath id="clip0_1051_8722">
<rect width="24" height="24" fill="white"/>
</clipPath>
</defs>
</svg>
