<svg width="24" height="24" viewBox="0 0 24 24" fill="none" xmlns="http://www.w3.org/2000/svg">
<g clip-path="url(#clip0_1051_8777)">
<path fill-rule="evenodd" clip-rule="evenodd" d="M19 13.5C18.6447 13.5381 18.2873 13.5548 17.93 13.55C8.36 12.55 8.02 13.65 5.71 13.55C5.06 13.55 4.49 13.55 4.45 13.82C4.27 14.34 5.07 14.16 5.66 14.24C6.32558 14.2938 6.99442 14.2938 7.66 14.24C7.72 14.31 7.76 14.35 7.74 14.44C7.64 14.93 5.74 16.03 6.57 17.56C6.80393 17.9621 7.15196 18.2858 7.57 18.49C7.67368 18.5221 7.78147 18.5389 7.89 18.54C7.44301 18.8837 7.07191 19.3161 6.8 19.81C6.59876 20.1432 6.49914 20.5279 6.51335 20.9169C6.52756 21.3059 6.65499 21.6823 6.88 22C7.48892 22.7438 8.29712 23.2988 9.21 23.6C9.28534 23.5788 9.34988 23.53 9.39069 23.4632C9.43149 23.3964 9.44554 23.3167 9.43 23.24C9.36 22.89 8.62 22.58 8.43 22.42C8.17135 22.2597 7.95473 22.04 7.79818 21.7791C7.64164 21.5182 7.54969 21.2236 7.53 20.92C7.53 20.48 8.2 19.77 8.53 19.48C8.86 19.19 9.53 18.48 9.14 17.99C8.75 17.5 8.33 17.61 8.07 17.49C6.15 16.67 8.73 15.33 8.44 14.23H10.44C10.232 14.4281 10.0948 14.689 10.0496 14.9727C10.0044 15.2564 10.0538 15.5471 10.19 15.8C10.6 16.65 11.66 17.14 11.81 17.8C12.05 18.69 10.13 19.8 10.81 20.95C11.13 21.45 11.61 21.56 11.98 21.82C12.35 22.08 11.64 23.52 11.64 23.61C11.6251 23.6613 11.6238 23.7155 11.636 23.7675C11.6483 23.8194 11.6737 23.8673 11.71 23.9066C11.7462 23.9458 11.7919 23.975 11.8427 23.9914C11.8935 24.0078 11.9477 24.0107 12 24C12.33 24 12.49 23.48 12.66 23.13C12.814 22.7885 12.9086 22.4233 12.94 22.05C12.94 21.05 11.94 20.87 11.7 20.46C12.43 19.35 13.19 18.64 12.88 17.52C12.41 16 10.29 15.78 11 14.74C11.61 14.09 10.85 14.4 15.14 14.26C13.84 15.62 16.21 16.61 16.73 17.26C17.48 18.14 15.55 19.39 15.93 20.94C16.05 21.45 16.42 21.49 16.63 21.94C16.84 22.39 16.84 23.66 17.46 23.64C18.08 23.62 17.51 21.64 17.14 21.12L16.85 20.75C16.71 19.75 18.58 18.69 17.9 17.04C17.719 16.6033 17.3847 16.2477 16.96 16.04C16.27 15.63 15.33 15.28 15.7 14.78C16.37 14.18 16.06 14.28 17.88 14.33C18.2558 14.3062 18.6299 14.2594 19 14.19C19.83 14.05 19.54 13.49 19 13.5Z" fill="black"/>
<path fill-rule="evenodd" clip-rule="evenodd" d="M23.65 12.75C23.6705 11.8928 23.5661 11.0371 23.34 10.21C23.01 9.59 22.09 9.66 21.64 9.56C21.19 9.46 17.57 9.24 16.64 9.27C12.1521 9.32039 7.67108 9.63426 3.22 10.21C2.56702 10.2795 1.92534 10.4307 1.31 10.66C-0.0599991 11.28 0.280001 13.54 0.470001 15C0.483334 15.4236 0.533524 15.8451 0.620001 16.26C1.07 17.7 3.02 17.56 4.51 17.4C4.9 17.4 5.77 17.47 5.69 16.97C5.69 16.76 4.54 16.77 4.46 16.78C0.820001 17.05 1.37 16.11 1.26 14.91C1.18 14.02 0.940001 12.31 1.57 11.65C3.67 11.03 3.88 11.33 5.68 11.16C13.02 10.41 7.68 10.44 16.73 10.44C18.5646 10.2694 20.4137 10.34 22.23 10.65C22.337 10.6598 22.4416 10.6869 22.54 10.73C22.8739 12.4669 22.9279 14.246 22.7 16C22.7 16.09 22.49 16.54 22.58 16.7C22.3133 16.7891 22.0387 16.8527 21.76 16.89C20.39 17.07 19.76 16.77 19.76 17.31C19.7626 17.3984 19.7996 17.4824 19.8631 17.544C19.9265 17.6056 20.0115 17.64 20.1 17.64C23.96 17.69 23.22 17.02 23.44 16.18C23.7001 15.0563 23.7711 13.8971 23.65 12.75Z" fill="black"/>
<path fill-rule="evenodd" clip-rule="evenodd" d="M6.73001 8.93998C6.85738 7.96251 6.83716 6.97145 6.67001 5.99998C6.10001 1.58998 6.01001 1.89998 6.67001 1.72998C7.10001 1.61998 7.59001 1.59998 7.92001 1.52998C10.15 0.999983 14.46 0.999983 17.73 0.999983L19.73 2.91998C19.65 4.00998 19.24 6.35998 19.26 8.07998V8.69998C19.31 8.88998 19.66 9.21998 19.92 8.26998C20.3224 6.46279 20.4505 4.60531 20.3 2.75998C20.3103 2.72404 20.3103 2.68593 20.3 2.64998C20.2973 2.57411 20.265 2.5023 20.21 2.44998C18.05 0.199983 18.14 0.229983 17.92 0.219983C15.13 -1.73748e-05 10.4 -0.230017 7.67001 0.409983C7.03001 0.569983 5.91001 0.519983 5.37001 1.25998C4.59001 2.33998 5.74001 3.66998 5.92001 8.93998C5.85001 9.32998 6.63001 9.57998 6.73001 8.93998Z" fill="black"/>
<path fill-rule="evenodd" clip-rule="evenodd" d="M21.16 11.52C20.72 11.05 20.06 13.2 21.06 13.2C21.36 13.2 22 12.35 21.16 11.52Z" fill="black"/>
<path fill-rule="evenodd" clip-rule="evenodd" d="M16.73 4.73999C16.777 4.68852 16.8108 4.62639 16.8284 4.55897C16.8461 4.49154 16.8471 4.42084 16.8313 4.35295C16.8156 4.28505 16.7836 4.222 16.738 4.16923C16.6925 4.11645 16.6348 4.07553 16.57 4.04999C15.2567 3.7282 13.9186 3.51745 12.57 3.41999C12.0857 3.41313 11.6014 3.43651 11.12 3.48999C10.4892 3.63633 9.84669 3.72668 9.19999 3.75999C9.12973 3.75945 9.06151 3.78358 9.00722 3.82819C8.95293 3.8728 8.91602 3.93505 8.90293 4.00408C8.88984 4.07311 8.90139 4.14455 8.93558 4.20594C8.96976 4.26733 9.02441 4.31477 9.09 4.33999C9.30631 4.39427 9.52731 4.42776 9.75 4.43999C15.31 4.75999 16.36 5.08999 16.73 4.73999Z" fill="black"/>
<path fill-rule="evenodd" clip-rule="evenodd" d="M16.31 6.76C15.1192 6.38086 13.8609 6.26151 12.62 6.41C11.5039 6.63848 10.4123 6.97334 9.36001 7.41C9.28177 7.42459 9.21254 7.46966 9.16753 7.53529C9.12252 7.60093 9.10543 7.68176 9.12001 7.76C9.1346 7.83824 9.17967 7.90748 9.24531 7.95249C9.31095 7.99749 9.39178 8.01459 9.47001 8C9.56001 8 10.08 7.84 10.9 7.75C12.6544 7.42863 14.4451 7.35458 16.22 7.53C16.32 7.53 17.53 7.88 17 7.03C16.87 6.79 16.43 6.78 16.31 6.76Z" fill="black"/>
</g>
<defs>
<clipPath id="clip0_1051_8777">
<rect width="24" height="24" fill="white"/>
</clipPath>
</defs>
</svg>
