<svg width="24" height="24" viewBox="0 0 24 24" fill="none" xmlns="http://www.w3.org/2000/svg">
<g clip-path="url(#clip0_1031_3136)">
<path fill-rule="evenodd" clip-rule="evenodd" d="M24 11.31C23.9743 10.9359 23.9174 10.5646 23.83 10.2C23.7831 9.98199 23.7021 9.77275 23.59 9.57999C23.4966 9.41949 23.3573 9.29062 23.19 9.20999C22.9098 9.11787 22.6144 9.08052 22.32 9.09999C21.98 9.09999 21.61 9.19999 21.32 9.25999C21.3499 8.96742 21.3499 8.67256 21.32 8.37999C21.2907 8.21752 21.2506 8.05717 21.2 7.89999C21.1387 7.74186 21.0545 7.59361 20.95 7.45999C20.8094 7.28054 20.6406 7.12517 20.45 6.99999C20.8536 6.74674 21.232 6.45541 21.58 6.12999C21.7184 6.00379 21.8277 5.84897 21.9002 5.67628C21.9728 5.50359 22.0068 5.31717 22 5.12999C21.9803 5.00274 21.9361 4.8805 21.87 4.76999C21.75 4.57999 21.53 4.35999 21.44 4.23999C21.205 3.95652 20.9511 3.68925 20.68 3.43999C20.3977 3.19691 20.0967 2.97624 19.78 2.77999C19.5871 2.66118 19.3784 2.57028 19.16 2.50999C18.9879 2.45351 18.8022 2.45351 18.63 2.50999C18.3631 2.6417 18.1252 2.82528 17.93 3.04999C17.7291 3.28902 17.5421 3.53943 17.37 3.79999C17.0754 3.4966 16.7386 3.23727 16.37 3.02999C16.1939 2.93713 16.0098 2.86016 15.82 2.79999C15.6361 2.73524 15.4445 2.6949 15.25 2.67999C14.9511 2.64396 14.6489 2.64396 14.35 2.67999C14.4338 2.31586 14.4774 1.94363 14.48 1.56999C14.4737 1.38345 14.4277 1.2004 14.3449 1.03311C14.2621 0.865815 14.1445 0.718146 14 0.599992C13.894 0.528035 13.7752 0.477112 13.65 0.449992C13.4353 0.411372 13.2181 0.38798 13 0.379992C12.634 0.350021 12.2661 0.350021 11.9 0.379992C11.5306 0.40116 11.163 0.447939 10.8 0.519992C10.582 0.566887 10.3728 0.647882 10.18 0.759992C10.017 0.850267 9.88735 0.990479 9.81003 1.15999C9.71722 1.42974 9.6798 1.71544 9.70003 1.99999C9.70003 2.34999 9.80003 2.71999 9.86003 3.04999C9.57079 3.02016 9.27926 3.02016 8.99003 3.04999C8.8177 3.07869 8.6497 3.12909 8.49003 3.19999C8.31189 3.28205 8.14679 3.38988 8.00003 3.51999C7.80615 3.66367 7.62544 3.8243 7.46003 3.99999C7.23517 3.65356 6.99147 3.31972 6.73003 2.99999C6.52099 2.78035 6.2736 2.60074 6.00003 2.46999C5.82437 2.41407 5.63568 2.41407 5.46003 2.46999C5.24405 2.52816 5.0383 2.61923 4.85003 2.73999C4.53106 2.93289 4.22988 3.15376 3.95003 3.39999C3.67577 3.64915 3.41853 3.91642 3.18003 4.19999C3.0298 4.36831 2.88956 4.54528 2.76003 4.72999C2.69041 4.83975 2.64285 4.96203 2.62003 5.08999C2.61324 5.27717 2.64729 5.46359 2.71982 5.63628C2.79235 5.80897 2.90162 5.96379 3.04003 6.08999C3.34456 6.37914 3.6799 6.634 4.04003 6.84999C3.8711 6.9939 3.71394 7.15107 3.57003 7.31999C3.4613 7.45793 3.37057 7.60914 3.30003 7.76999C3.2241 7.92948 3.16705 8.09728 3.13003 8.26999C3.05233 8.6413 3.02542 9.02144 3.05003 9.39999C2.5975 9.30522 2.14016 9.23512 1.68003 9.18999C1.38553 9.16562 1.08919 9.20309 0.810027 9.29999C0.638855 9.3748 0.497924 9.50516 0.410027 9.66999C0.297918 9.86275 0.216922 10.072 0.170027 10.29C0.0831781 10.648 0.0263147 11.0126 2.67234e-05 11.38C-0.0299568 11.7494 -0.0299568 12.1206 2.67215e-05 12.49C0.00754098 12.7147 0.0309326 12.9386 0.0700267 13.16C0.0971475 13.2852 0.148071 13.404 0.220027 13.51C0.346225 13.6484 0.50105 13.7577 0.673741 13.8302C0.846432 13.9027 1.03285 13.9368 1.22003 13.93C1.65424 13.9192 2.08634 13.8656 2.51003 13.77C2.48529 14.0127 2.48529 14.2573 2.51003 14.5C2.54137 14.6771 2.58822 14.8511 2.65003 15.02C2.75549 15.1879 2.87243 15.3483 3.00003 15.5C3.18622 15.792 3.38993 16.0726 3.61003 16.34C3.29003 16.57 2.85003 16.85 2.49003 17.15C2.2673 17.3446 2.08691 17.5828 1.96003 17.85C1.89826 18.0247 1.89826 18.2153 1.96003 18.39C2.0182 18.606 2.10927 18.8117 2.23003 19C2.42627 19.3167 2.64694 19.6176 2.89003 19.9C3.14015 20.1768 3.41093 20.4342 3.70003 20.67C3.86467 20.8204 4.03832 20.9607 4.22003 21.09C4.32979 21.1596 4.45207 21.2072 4.58003 21.23C4.76695 21.2348 4.95276 21.1999 5.12516 21.1274C5.29755 21.055 5.4526 20.9468 5.58003 20.81C5.86405 20.4986 6.1216 20.1642 6.35003 19.81C6.5195 20.0195 6.71056 20.2105 6.92003 20.38C7.05796 20.4887 7.20918 20.5794 7.37003 20.65C7.53469 20.7216 7.70535 20.7784 7.88003 20.82C8.28734 20.9063 8.705 20.9332 9.12003 20.9C9.21624 20.9088 9.31219 20.8806 9.38835 20.8211C9.46451 20.7617 9.51517 20.6755 9.53003 20.58C9.53615 20.4828 9.50568 20.3868 9.44461 20.3109C9.38354 20.2351 9.29629 20.1848 9.20003 20.17C8.87232 20.0445 8.55472 19.8941 8.25003 19.72C8.04003 19.61 7.85003 19.5 7.63003 19.41C7.41003 19.32 6.95003 19.18 6.63003 19.02V18.94C6.59205 18.889 6.54155 18.8486 6.48341 18.8228C6.42527 18.7969 6.36146 18.7865 6.29813 18.7926C6.2348 18.7986 6.1741 18.8209 6.12188 18.8572C6.06966 18.8935 6.02769 18.9427 6.00003 19C5.84003 19.16 5.54003 19.52 5.21003 19.84C5.0892 19.9819 4.94348 20.1005 4.78003 20.19C4.63883 20.0782 4.51425 19.9469 4.41003 19.8C4.18003 19.59 3.96003 19.35 3.74003 19.11C3.52003 18.87 3.33003 18.63 3.15003 18.37C2.97003 18.11 2.86003 18.05 3.27003 17.67C3.68003 17.29 3.97003 16.96 4.19003 16.67C4.19003 16.67 4.19003 16.6 4.25003 16.56C4.31037 16.5038 4.35081 16.4295 4.36524 16.3484C4.37967 16.2672 4.36731 16.1835 4.33003 16.11C4.21003 15.76 4.13003 15.4 4.02003 15.02C3.98249 14.8706 3.93574 14.7236 3.88003 14.58C3.88003 14.43 3.77003 14.29 3.71003 14.15C3.52669 13.8299 3.36951 13.4954 3.24003 13.15C3.23627 13.1079 3.22421 13.067 3.20454 13.0296C3.18488 12.9922 3.158 12.959 3.12546 12.9321C3.09292 12.9051 3.05536 12.8848 3.01495 12.8725C2.97454 12.8601 2.93208 12.8559 2.89003 12.86C2.8532 12.8628 2.81734 12.8731 2.78466 12.8903C2.75198 12.9075 2.72317 12.9312 2.70003 12.96H1.70003C1.51389 12.9725 1.32709 12.9487 1.15003 12.89C1.13913 12.7135 1.13913 12.5365 1.15003 12.36V11.36C1.15003 10.99 1.20003 10.73 1.25003 10.42C1.30003 10.11 1.25003 10.03 1.83003 10.01C2.41003 9.98999 2.83003 10.01 3.17003 10.01C3.23193 10.0109 3.29251 9.99199 3.34289 9.95601C3.39328 9.92002 3.43082 9.86885 3.45003 9.80999C3.51482 9.79188 3.57254 9.7544 3.61543 9.70257C3.65833 9.65074 3.68435 9.58703 3.69003 9.51999C3.82004 9.19748 3.97034 8.88352 4.14003 8.57999C4.25003 8.37999 4.36003 8.18999 4.45003 7.97999C4.54003 7.76999 4.68003 7.34999 4.81003 6.97999C4.85458 6.96016 4.8945 6.93123 4.92721 6.89507C4.95993 6.8589 4.98474 6.8163 5.00003 6.76999C5.01824 6.71372 5.01941 6.65332 5.0034 6.59639C4.98739 6.53945 4.9549 6.48852 4.91003 6.44999C4.8551 6.43013 4.79495 6.43013 4.74003 6.44999C4.56003 6.27999 4.30003 6.04999 4.07003 5.80999C3.92539 5.68793 3.80643 5.53837 3.72003 5.36999C3.86003 5.21999 4.00003 4.99999 4.11003 4.99999C4.32003 4.76999 4.56003 4.54999 4.80003 4.32999C5.03188 4.11953 5.27561 3.92254 5.53003 3.73999C5.70003 3.60999 5.86003 3.51999 6.23003 3.85999C6.51745 4.1083 6.79118 4.37202 7.05003 4.64999C7.05003 4.64999 7.05003 4.74999 7.05003 4.79999C7.0723 4.8356 7.10157 4.86631 7.13607 4.89026C7.17058 4.91421 7.20958 4.9309 7.25073 4.93932C7.29188 4.94774 7.33431 4.94771 7.37544 4.93923C7.41658 4.93075 7.45556 4.914 7.49003 4.88999C7.87003 4.74999 8.26003 4.69999 8.66003 4.54999C8.87177 4.47213 9.07879 4.38197 9.28003 4.27999C9.5456 4.14014 9.81944 4.01658 10.1 3.90999C10.1 3.90999 10.19 3.96999 10.25 3.95999C10.2925 3.96008 10.3345 3.95145 10.3735 3.93464C10.4124 3.91782 10.4476 3.89318 10.4766 3.86224C10.5057 3.8313 10.5281 3.79472 10.5424 3.75477C10.5568 3.71482 10.5628 3.67235 10.56 3.62999V3.45999V2.27999C10.56 1.85999 10.77 1.72999 10.97 1.69999C11.17 1.66999 11.6 1.61999 11.91 1.59999C12.22 1.57999 12.56 1.59999 12.91 1.59999H13.45C13.5049 1.77783 13.5253 1.96451 13.51 2.14999V3.29999C13.5073 3.39647 13.5423 3.4902 13.6077 3.56119C13.6731 3.63218 13.7636 3.67481 13.86 3.67999C13.9096 3.68409 13.9595 3.67726 14.0061 3.65998C14.0528 3.6427 14.0951 3.6154 14.13 3.57999C14.44 3.65999 14.77 3.80999 15.13 3.93999L15.75 4.12999C15.97 4.18999 16.19 4.21999 16.4 4.27999C16.5886 4.33942 16.7725 4.41296 16.95 4.49999C16.9162 4.56024 16.9028 4.62981 16.9118 4.69831C16.9209 4.7668 16.9518 4.83054 17 4.87999C17.0616 4.93986 17.1441 4.97335 17.23 4.97335C17.3159 4.97335 17.3984 4.93986 17.46 4.87999C17.71 4.65999 18.05 4.26999 18.46 3.95999C18.87 3.64999 19 3.70999 19.16 3.83999C19.32 3.96999 19.66 4.22999 19.9 4.42999C20.14 4.62999 20.38 4.86999 20.59 5.09999C20.66 5.16999 20.89 5.37999 20.97 5.46999C21.05 5.55999 20.77 5.73999 20.63 5.89999C20.32 6.21999 19.96 6.50999 19.8 6.66999C19.7365 6.67048 19.6745 6.68988 19.6221 6.7257C19.5696 6.76152 19.529 6.81215 19.5054 6.87114C19.4818 6.93013 19.4763 6.9948 19.4896 7.05693C19.5029 7.11906 19.5344 7.17582 19.58 7.21999C19.716 7.49732 19.82 7.78919 19.89 8.08999C19.9261 8.20924 19.9695 8.32614 20.02 8.43999C20.19 8.81999 20.4 9.16999 20.53 9.54999C20.5026 9.57943 20.4814 9.61407 20.4677 9.65187C20.4539 9.68966 20.4479 9.72983 20.45 9.76999C20.4513 9.81202 20.4609 9.85338 20.4782 9.89171C20.4955 9.93005 20.5201 9.96459 20.5508 9.99338C20.5814 10.0222 20.6174 10.0446 20.6568 10.0595C20.6961 10.0744 20.738 10.0813 20.78 10.08H22.12C22.6 10.08 22.68 10.3 22.7 10.49C22.7492 10.8014 22.7826 11.1152 22.8 11.43V12.43C22.8104 12.6065 22.8104 12.7835 22.8 12.96C22.6222 13.0149 22.4355 13.0352 22.25 13.02H21.49H21.1C21.0527 13.0173 21.0054 13.024 20.9607 13.0396C20.9159 13.0552 20.8748 13.0795 20.8395 13.1111C20.8042 13.1427 20.7754 13.1809 20.7549 13.2237C20.7344 13.2664 20.7226 13.3127 20.72 13.36C20.7154 13.4228 20.7279 13.4857 20.7561 13.542C20.7842 13.5983 20.827 13.646 20.88 13.68C20.72 14.01 20.54 14.34 20.39 14.68C20.24 15.02 20.18 15.25 20.07 15.53C19.9506 15.9607 19.7758 16.3742 19.55 16.76C19.4941 16.7338 19.4314 16.7254 19.3705 16.7362C19.3097 16.7469 19.2536 16.7762 19.21 16.82C19.1502 16.8816 19.1167 16.9641 19.1167 17.05C19.1167 17.1359 19.1502 17.2184 19.21 17.28C19.44 17.53 19.83 17.87 20.14 18.28C20.45 18.69 20.37 18.84 20.26 18.98C20.0741 19.2378 19.8738 19.4848 19.66 19.72C19.4529 19.962 19.2326 20.1923 19 20.41C18.93 20.48 18.76 20.67 18.63 20.79C18.5 20.79 18.36 20.59 18.2 20.45C17.87 20.13 17.57 19.77 17.41 19.61C17.3773 19.5752 17.3378 19.5474 17.2939 19.5285C17.2501 19.5095 17.2028 19.4997 17.155 19.4997C17.1072 19.4997 17.06 19.5095 17.0161 19.5285C16.9723 19.5474 16.9328 19.5752 16.9 19.61C16.8626 19.64 16.8323 19.678 16.8115 19.7213C16.7908 19.7646 16.78 19.812 16.78 19.86C16.5028 19.9245 16.2224 19.9746 15.94 20.01C15.68 20.01 15.44 20.08 15.2 20.14C14.76 20.23 14.36 20.39 13.91 20.48H13.79C13.7063 20.4985 13.6316 20.5455 13.5787 20.613C13.5258 20.6805 13.498 20.7643 13.5 20.85V22C13.52 22.1855 13.4996 22.3732 13.44 22.55C13.2635 22.5406 13.0866 22.5406 12.91 22.55H11.91C11.55 22.55 11.27 22.5 10.97 22.45C10.67 22.4 10.6 22.36 10.56 21.87C10.52 21.38 10.56 20.87 10.56 20.53C10.5627 20.4885 10.557 20.4468 10.5433 20.4075C10.5296 20.3682 10.5081 20.3321 10.4801 20.3013C10.4521 20.2705 10.4182 20.2457 10.3804 20.2283C10.3425 20.2109 10.3016 20.2012 10.26 20.2C10.218 20.1973 10.1758 20.2029 10.136 20.2165C10.0961 20.2301 10.0593 20.2515 10.0277 20.2794C9.99613 20.3073 9.97036 20.3411 9.95188 20.3789C9.9334 20.4168 9.92257 20.4579 9.92003 20.5C9.87003 20.9 9.71003 21.5 9.67003 22.1C9.64566 22.3945 9.68313 22.6908 9.78003 22.97C9.85642 23.1369 9.98204 23.2765 10.14 23.37C10.3343 23.479 10.543 23.5598 10.76 23.61C11.1257 23.6918 11.4966 23.7486 11.87 23.78C12.2394 23.81 12.6106 23.81 12.98 23.78C13.2047 23.7725 13.4286 23.7491 13.65 23.71C13.7752 23.6829 13.894 23.6319 14 23.56C14.1359 23.4318 14.2434 23.2766 14.3157 23.1044C14.3881 22.9322 14.4236 22.7467 14.42 22.56C14.4017 22.1192 14.3449 21.6809 14.25 21.25C14.5349 21.3225 14.8264 21.3661 15.12 21.38C15.3114 21.3887 15.5031 21.3719 15.69 21.33C15.8789 21.2932 16.0633 21.2362 16.24 21.16C16.5669 21.023 16.8731 20.8412 17.15 20.62C17.3547 20.935 17.5891 21.2297 17.85 21.5C17.9762 21.6384 18.1311 21.7477 18.3037 21.8202C18.4764 21.8927 18.6628 21.9268 18.85 21.92C18.9773 21.9002 19.0995 21.8561 19.21 21.79C19.3921 21.6576 19.5658 21.514 19.73 21.36C20.018 21.1301 20.2857 20.8759 20.53 20.6C20.7763 20.3178 21.0003 20.0169 21.2 19.7C21.3177 19.5113 21.4054 19.3055 21.46 19.09C21.5271 18.9162 21.5271 18.7237 21.46 18.55C21.3331 18.2828 21.1528 18.0446 20.93 17.85C20.6708 17.6389 20.4004 17.442 20.12 17.26C20.5139 16.8969 20.845 16.4711 21.1 16C21.2165 15.8172 21.3136 15.6228 21.39 15.42C21.4742 15.2211 21.5347 15.013 21.57 14.8C21.6389 14.471 21.6757 14.1361 21.68 13.8C22.0091 13.8686 22.3439 13.9054 22.68 13.91C22.8662 13.9161 23.0516 13.8827 23.2239 13.812C23.3963 13.7414 23.5517 13.635 23.68 13.5C23.752 13.394 23.8029 13.2752 23.83 13.15C23.8691 12.9286 23.8925 12.7047 23.9 12.48C23.9666 12.0935 24 11.7021 24 11.31Z" fill="black"/>
<path fill-rule="evenodd" clip-rule="evenodd" d="M12.19 5.26C8.72002 4.61 6.08002 6.93 5.06002 9.84C4.45969 11.3142 4.40045 12.9532 4.8928 14.4669C5.38515 15.9805 6.39731 17.2711 7.75002 18.11C8.93684 18.7472 10.263 19.0807 11.61 19.0807C12.9571 19.0807 14.2832 18.7472 15.47 18.11C16.4233 17.6437 17.2636 16.9754 17.9325 16.1516C18.6015 15.3278 19.083 14.3683 19.3438 13.3396C19.6045 12.311 19.6382 11.2379 19.4424 10.1949C19.2466 9.15192 18.8261 8.16407 18.21 7.3C17.7232 6.67711 17.1075 6.16692 16.4049 5.80444C15.7024 5.44195 14.9297 5.23575 14.14 5.2C14.0434 5.19161 13.9474 5.22148 13.8725 5.2832C13.7977 5.34492 13.7501 5.43355 13.74 5.53C13.7345 5.57757 13.7388 5.62576 13.7526 5.67161C13.7665 5.71745 13.7896 5.75997 13.8205 5.79652C13.8514 5.83308 13.8895 5.8629 13.9325 5.88414C13.9754 5.90538 14.0222 5.91758 14.07 5.92C14.7486 5.96695 15.4088 6.16126 16.0046 6.4894C16.6005 6.81754 17.1176 7.27161 17.52 7.82C18.294 8.95321 18.6736 10.3097 18.6 11.68C18.5315 12.8285 18.1532 13.9371 17.5052 14.8878C16.8573 15.8386 15.9639 16.5962 14.92 17.08C13.9085 17.6176 12.7805 17.8987 11.635 17.8987C10.4895 17.8987 9.36154 17.6176 8.35002 17.08C5.75002 15.63 5.20002 12.65 6.00002 10.14C6.80002 7.63 9.00002 5.44 12.1 5.89C12.1421 5.89902 12.1856 5.89946 12.2279 5.89128C12.2701 5.8831 12.3103 5.86648 12.346 5.8424C12.3817 5.81833 12.4122 5.7873 12.4356 5.75117C12.459 5.71504 12.4749 5.67456 12.4823 5.63215C12.4897 5.58973 12.4885 5.54626 12.4787 5.50434C12.4689 5.46241 12.4508 5.42289 12.4253 5.38815C12.3999 5.3534 12.3677 5.32414 12.3307 5.30212C12.2937 5.2801 12.2527 5.26578 12.21 5.26H12.19Z" fill="black"/>
<path fill-rule="evenodd" clip-rule="evenodd" d="M12.17 14.1C12.17 13.62 12.23 13.1 12.24 12.64V11.77C12.2386 11.476 12.2219 11.1823 12.19 10.89C12.13 10.2 11.99 9.52999 11.9 8.88999C11.8865 8.81357 11.8466 8.74433 11.7872 8.69445C11.7277 8.64456 11.6526 8.61722 11.575 8.61722C11.4974 8.61722 11.4223 8.64456 11.3629 8.69445C11.3034 8.74433 11.2635 8.81357 11.25 8.88999C11.16 9.57999 11.06 10.26 11.02 10.96C11.005 11.2565 11.005 11.5535 11.02 11.85C11.02 12.14 11.02 12.44 11.09 12.73C11.15 13.23 11.23 13.73 11.32 14.19L10.6 14.26C10.2 14.26 9.81 14.37 9.41 14.44C9.41 14.15 9.5 13.88 9.53 13.59C9.53994 13.4402 9.53994 13.2898 9.53 13.14C9.54438 12.9937 9.54438 12.8463 9.53 12.7C9.53 12.34 9.36 12.02 9.29 11.7C9.29271 11.6579 9.2871 11.6158 9.27347 11.5759C9.25985 11.5361 9.23849 11.4993 9.21062 11.4677C9.18274 11.4361 9.14891 11.4103 9.11105 11.3918C9.07319 11.3734 9.03206 11.3625 8.99 11.36C8.94665 11.3573 8.90319 11.3632 8.86211 11.3773C8.82104 11.3914 8.78315 11.4135 8.75064 11.4423C8.71812 11.4711 8.69161 11.5061 8.67262 11.5451C8.65364 11.5842 8.64255 11.6266 8.64001 11.67C8.54001 12.03 8.42001 12.36 8.35001 12.74C8.33507 12.8963 8.33507 13.0537 8.35001 13.21C8.3552 13.3682 8.37529 13.5256 8.41 13.68C8.46666 13.9848 8.5435 14.2854 8.64001 14.58C8.33001 14.58 8.02 14.67 7.7 14.7C7.61514 14.7 7.53374 14.7337 7.47373 14.7937C7.41372 14.8537 7.38 14.9351 7.38 15.02C7.38252 15.1041 7.41704 15.184 7.47651 15.2435C7.53599 15.303 7.61593 15.3375 7.7 15.34C8.65616 15.4465 9.61803 15.4932 10.58 15.48C11.27 15.48 11.98 15.42 12.69 15.36C13.4 15.3 14.06 15.21 14.75 15.2L16 15.05C16.0473 15.0579 16.0956 15.0564 16.1423 15.0455C16.189 15.0347 16.2331 15.0148 16.2721 14.987C16.3111 14.9591 16.3443 14.9238 16.3696 14.8832C16.395 14.8425 16.4121 14.7973 16.42 14.75C16.4279 14.7027 16.4264 14.6543 16.4156 14.6077C16.4048 14.561 16.3848 14.5169 16.357 14.4779C16.3291 14.4389 16.2939 14.4057 16.2532 14.3804C16.2125 14.355 16.1673 14.3379 16.12 14.33L14.86 14.21C14.91 13.53 14.98 12.85 15.04 12.21C15.1 11.57 15.12 11.06 15.13 10.49C15.13 9.48999 15.04 8.55999 14.99 7.58999C14.99 7.50512 14.9563 7.42373 14.8963 7.36371C14.8363 7.3037 14.7549 7.26999 14.67 7.26999C14.5851 7.26999 14.5037 7.3037 14.4437 7.36371C14.3837 7.42373 14.35 7.50512 14.35 7.58999C14.21 8.42999 14.05 9.24999 13.95 10.1C13.95 10.46 13.88 10.82 13.87 11.18C13.86 11.54 13.87 11.91 13.87 12.28C13.87 12.93 13.95 13.57 14.02 14.22C13.4061 14.145 12.7884 14.1049 12.17 14.1Z" fill="black"/>
</g>
<defs>
<clipPath id="clip0_1031_3136">
<rect width="24" height="24" fill="white"/>
</clipPath>
</defs>
</svg>
