<svg width="24" height="24" viewBox="0 0 24 24" fill="none" xmlns="http://www.w3.org/2000/svg">
<g clip-path="url(#clip0_1030_2484)">
<path fill-rule="evenodd" clip-rule="evenodd" d="M6.42997 4.23C5.73992 3.64807 5.01887 3.10394 4.26997 2.6L3.90997 2.36C3.84843 2.33866 3.78151 2.33866 3.71997 2.36C3.66018 2.35609 3.60072 2.37147 3.55032 2.40387C3.49992 2.43627 3.46124 2.48398 3.43997 2.54C3.42147 2.57729 3.41184 2.61836 3.41184 2.66C3.41184 2.70163 3.42147 2.7427 3.43997 2.78C3.47124 2.85158 3.52838 2.90873 3.59997 2.94C3.59997 2.94 3.72997 3.06 3.84997 3.17C4.26997 3.54 4.99997 4.37 5.59997 5C5.04997 5 4.49997 5 3.92997 4.92C3.35997 4.84 3.04997 4.92 2.60997 4.92C1.84665 4.94753 1.08547 5.01764 0.32997 5.13C0.279746 5.12141 0.228254 5.1239 0.179091 5.13728C0.129928 5.15067 0.0842796 5.17462 0.0453351 5.20748C0.00639063 5.24033 -0.0249109 5.28129 -0.0463829 5.3275C-0.0678549 5.37371 -0.0789795 5.42404 -0.0789795 5.475C-0.0789795 5.52595 -0.0678549 5.57629 -0.0463829 5.62249C-0.0249109 5.6687 0.00639063 5.70966 0.0453351 5.74251C0.0842796 5.77537 0.129928 5.79932 0.179091 5.81271C0.228254 5.82609 0.279746 5.82858 0.32997 5.82C0.96997 5.82 1.62997 5.98 2.32997 6.04C2.78504 6.08678 3.2427 6.10348 3.69997 6.09C4.48335 6.02447 5.25577 5.86327 5.99997 5.61C5.39207 6.46214 4.67986 7.23482 3.87997 7.91C3.80173 7.95641 3.74513 8.032 3.72263 8.12014C3.71149 8.16379 3.70905 8.2092 3.71546 8.25378C3.72186 8.29837 3.73699 8.34126 3.75997 8.38C3.78295 8.41874 3.81334 8.45257 3.84939 8.47957C3.88545 8.50656 3.92647 8.52619 3.97012 8.53734C4.05826 8.55984 4.15173 8.54641 4.22997 8.5C5.15798 7.95245 6.00599 7.27943 6.74997 6.5C6.94128 6.30818 7.1122 6.09705 7.25997 5.87C7.35184 5.7243 7.38407 5.54883 7.34997 5.38C7.131 4.93405 6.81697 4.54151 6.42997 4.23Z" fill="black"/>
<path fill-rule="evenodd" clip-rule="evenodd" d="M9.42996 9.46C10.7528 9.66469 12.094 9.72505 13.43 9.64C16.43 9.59 20.5 9.38 22.27 9.16C22.3094 9.15606 22.3476 9.1444 22.3825 9.12568C22.4174 9.10696 22.4482 9.08156 22.4733 9.05092C22.4984 9.02027 22.5172 8.98499 22.5286 8.94709C22.54 8.90918 22.5439 8.86939 22.54 8.83C22.536 8.7906 22.5244 8.75237 22.5056 8.71748C22.4869 8.68259 22.4615 8.65172 22.4309 8.62665C22.4002 8.60158 22.365 8.58279 22.3271 8.57135C22.2891 8.55992 22.2494 8.55606 22.21 8.56C20.69 8.68 17.48 8.74 14.69 8.72C13.1239 8.75598 11.5572 8.68917 9.99996 8.52C9.99996 8.46 9.90996 8.35 9.87996 8.23C9.69067 7.38652 9.59674 6.52445 9.59996 5.66C9.56896 4.89792 9.60913 4.13461 9.71996 3.38C9.71996 3.12 9.77996 2.71 9.87996 2.8C10.2084 2.72331 10.5431 2.67646 10.88 2.66C12.14 2.53 14.12 2.44 16.11 2.38C18.2349 2.25912 20.365 2.25912 22.49 2.38C22.5357 2.46842 22.5693 2.5626 22.59 2.66C22.6878 3.16052 22.7313 3.67013 22.72 4.18C22.72 5.33 22.65 6.69 22.59 7.59C22.5843 7.68232 22.6143 7.77329 22.6739 7.84404C22.7335 7.91479 22.818 7.95989 22.91 7.97C23.0012 7.97554 23.091 7.94517 23.1601 7.88537C23.2293 7.82557 23.2723 7.74109 23.28 7.65C23.4546 6.10656 23.5147 4.55232 23.46 3C23.4322 2.65289 23.3407 2.31388 23.19 2C23.1082 1.84102 22.9686 1.71936 22.8 1.66C20.1197 1.37964 17.423 1.28942 14.73 1.39C13.04 1.39 11.47 1.49 10.47 1.6C10.0295 1.6276 9.59682 1.72902 9.18996 1.9C8.88768 2.15253 8.69136 2.50947 8.63996 2.9C8.45822 3.84853 8.39107 4.81545 8.43996 5.78C8.45558 6.7409 8.5797 7.69696 8.80996 8.63C8.90906 8.97274 9.12942 9.26774 9.42996 9.46Z" fill="black"/>
<path fill-rule="evenodd" clip-rule="evenodd" d="M12.55 13.7C13.36 13.7 14.17 13.76 14.99 13.77H16.63L19.16 13.67H20.29C20.63 13.59 20.46 13.09 20.36 13.08L19.19 12.92L16.63 12.68C15.81 12.68 15 12.63 14.18 12.63C13.63 12.63 13.08 12.68 12.53 12.71L9.52999 12.95C9.43717 12.95 9.34814 12.9869 9.28251 13.0525C9.21687 13.1182 9.17999 13.2072 9.17999 13.3C9.17999 13.3928 9.21687 13.4819 9.28251 13.5475C9.34814 13.6131 9.43717 13.65 9.52999 13.65L12.55 13.7Z" fill="black"/>
<path fill-rule="evenodd" clip-rule="evenodd" d="M20.72 21.93L19.55 21.78L17 21.53C16.19 21.53 15.37 21.48 14.55 21.53C14 21.53 13.45 21.53 12.9 21.6L9.89998 21.85C9.84975 21.8414 9.79826 21.8439 9.7491 21.8573C9.69993 21.8707 9.65429 21.8946 9.61534 21.9275C9.5764 21.9603 9.5451 22.0013 9.52362 22.0475C9.50215 22.0937 9.49103 22.1441 9.49103 22.195C9.49103 22.246 9.50215 22.2963 9.52362 22.3425C9.5451 22.3887 9.5764 22.4297 9.61534 22.4625C9.65429 22.4954 9.69993 22.5193 9.7491 22.5327C9.79826 22.5461 9.84975 22.5486 9.89998 22.54L12.9 22.62C13.71 22.62 14.53 22.69 15.34 22.7H16.98L19.51 22.59C21.59 22.47 20.74 21.93 20.72 21.93Z" fill="black"/>
<path fill-rule="evenodd" clip-rule="evenodd" d="M23.86 17.47C23.72 17.47 22.72 17.38 22.36 17.36L19 17.15H15.77C15.05 17.15 14.34 17.15 13.62 17.22L9.61996 17.42C9.52713 17.42 9.43811 17.4569 9.37247 17.5225C9.30683 17.5881 9.26996 17.6772 9.26996 17.77C9.26996 17.8628 9.30683 17.9518 9.37247 18.0175C9.43811 18.0831 9.52713 18.12 9.61996 18.12L13.62 18.24C14.52 18.24 15.41 18.3 16.31 18.31C17.21 18.32 18.1 18.31 19 18.31L22.34 18.17C23.9 18.12 23.82 18.17 23.89 18.08C23.96 17.99 24 17.47 23.86 17.47Z" fill="black"/>
</g>
<defs>
<clipPath id="clip0_1030_2484">
<rect width="24" height="24" fill="white"/>
</clipPath>
</defs>
</svg>
