<svg width="24" height="24" viewBox="0 0 24 24" fill="none" xmlns="http://www.w3.org/2000/svg">
<g clip-path="url(#clip0_1030_2449)">
<path fill-rule="evenodd" clip-rule="evenodd" d="M23.9 5.49C23.8711 4.39189 23.7507 3.2981 23.54 2.22C23.4803 1.83891 23.2977 1.48777 23.02 1.22C22.1376 0.865135 21.2005 0.665527 20.25 0.630001C16.7662 0.314468 13.2673 0.19428 9.77003 0.270001C7.42672 0.271209 5.08681 0.448373 2.77003 0.800001C2.04993 0.87102 1.36576 1.14886 0.800029 1.6C0.424663 2.31347 0.219317 3.10405 0.200029 3.91C-0.0180782 6.69116 -0.0648332 9.4831 0.0600285 12.27C0.11868 15.417 0.433048 18.554 1.00003 21.65C1.07692 22.084 1.25888 22.4925 1.53003 22.84C2.08346 23.1785 2.71226 23.3744 3.36003 23.41C5.57103 23.6589 7.79518 23.7724 10.02 23.75C14.174 23.8049 18.3269 23.5777 22.45 23.07C22.4903 23.0653 22.5291 23.0523 22.564 23.0317C22.5989 23.0111 22.6291 22.9835 22.6527 22.9505C22.6763 22.9175 22.6926 22.88 22.7008 22.8403C22.7089 22.8006 22.7087 22.7596 22.7 22.72C22.6854 22.6411 22.6407 22.571 22.5754 22.5244C22.5102 22.4778 22.4294 22.4583 22.35 22.47C18.2485 22.9023 14.1224 23.056 10 22.93C7.81659 22.9123 5.63611 22.7654 3.47003 22.49C3.01273 22.4645 2.56612 22.3418 2.16003 22.13C1.91252 21.5959 1.77317 21.0182 1.75003 20.43C1.41353 17.7122 1.22326 14.9782 1.18003 12.24C1.07528 9.4922 1.13539 6.7406 1.36003 4C1.36319 3.4297 1.47873 2.86562 1.70003 2.34C1.79087 2.27347 1.8923 2.22275 2.00003 2.19C2.44641 2.04331 2.90485 1.93623 3.37003 1.87C6.23209 1.50845 9.11537 1.3414 12 1.37C15.27 1.37 18.55 1.45 20.62 1.67C21.2386 1.69901 21.8506 1.80998 22.44 2C22.31 2.11 22.62 2.42 22.69 2.81C22.9246 4.36975 23.0582 5.94303 23.09 7.52C23.25 11.93 23.16 17.8 23.09 21.52C23.0887 21.566 23.0964 21.6117 23.1128 21.6547C23.1292 21.6977 23.1539 21.737 23.1854 21.7705C23.217 21.8039 23.2549 21.8308 23.2968 21.8496C23.3388 21.8684 23.3841 21.8787 23.43 21.88C23.5211 21.88 23.6087 21.8445 23.674 21.781C23.7394 21.7176 23.7774 21.6311 23.78 21.54C23.92 17.21 24.12 10 23.9 5.49Z" fill="black"/>
<path fill-rule="evenodd" clip-rule="evenodd" d="M21.15 12.29C21.2797 12.1089 21.3654 11.9 21.4 11.68C21.5497 10.5164 21.5932 9.34152 21.53 8.17C21.501 7.00569 21.3807 5.84546 21.17 4.7C21.1323 4.47948 21.0316 4.27459 20.88 4.11C20.7667 4.00923 20.6287 3.94023 20.48 3.91C19.7784 3.77421 19.0647 3.71054 18.35 3.72C16.5623 3.68624 14.7745 3.77981 13 4C12.52 4.08 12.32 4.72 12.32 4.74C12.25 6.31 12.12 8.95 12.17 10.59C12.1791 11.0657 12.2428 11.5388 12.36 12C12.4119 12.1334 12.4981 12.2507 12.61 12.34C12.9711 12.5098 13.3616 12.6082 13.76 12.63C15.0383 12.7728 16.3239 12.8396 17.61 12.83C18.6163 12.862 19.6229 12.7781 20.61 12.58C20.8126 12.533 20.999 12.4329 21.15 12.29ZM20.3 11.13V11.45C20.3 11.55 20.04 11.56 19.88 11.58C18.865 11.7046 17.8427 11.7614 16.82 11.75C15.65 11.75 14.47 11.75 13.73 11.66C13.55 11.66 13.37 11.56 13.25 11.54C13.2274 11.4853 13.2107 11.4283 13.2 11.37C13.0888 10.6213 13.022 9.86662 13 9.11V4.76C13 4.51 12.87 4.63 13.1 4.6C14.3302 4.49048 15.5661 4.46042 16.8 4.51C17.7837 4.52138 18.7657 4.59486 19.74 4.73C19.93 4.73 20.11 4.88 20.2 4.87C20.29 4.86 20.2 5.13 20.2 5.25C20.3171 6.22926 20.3839 7.21389 20.4 8.2C20.4241 9.17778 20.3907 10.1561 20.3 11.13Z" fill="black"/>
<path fill-rule="evenodd" clip-rule="evenodd" d="M8.16001 5.9C8.35639 5.91509 8.55364 5.91509 8.75001 5.9C8.94306 5.91481 9.13696 5.91481 9.33001 5.9C9.90001 5.82 10.39 5.71 10.68 5.67C10.7614 5.65609 10.8353 5.61382 10.8886 5.55068C10.9418 5.48755 10.9711 5.4076 10.9711 5.325C10.9711 5.24239 10.9418 5.16245 10.8886 5.09931C10.8353 5.03618 10.7614 4.99391 10.68 4.98C10.39 4.98 9.89001 4.85 9.30001 4.81H8.71001C8.51681 4.80007 8.32322 4.80007 8.13001 4.81C7.59001 4.89 7.13001 5.02 6.79001 5.08C6.74534 5.07188 6.69943 5.07367 6.65552 5.08524C6.61162 5.09682 6.57079 5.1179 6.53593 5.147C6.50107 5.17609 6.47302 5.21249 6.45378 5.25361C6.43454 5.29474 6.42456 5.33959 6.42456 5.385C6.42456 5.43041 6.43454 5.47526 6.45378 5.51638C6.47302 5.55751 6.50107 5.59391 6.53593 5.623C6.57079 5.6521 6.61162 5.67318 6.65552 5.68475C6.69943 5.69633 6.74534 5.69812 6.79001 5.69C7.24206 5.78741 7.69955 5.85753 8.16001 5.9Z" fill="black"/>
<path fill-rule="evenodd" clip-rule="evenodd" d="M3.62006 8.92999C3.58066 8.92999 3.54165 8.93775 3.50525 8.95282C3.46885 8.9679 3.43578 8.99 3.40793 9.01785C3.38007 9.04571 3.35797 9.07878 3.34289 9.11518C3.32782 9.15158 3.32006 9.19059 3.32006 9.22999C3.31872 9.26939 3.32517 9.30867 3.33902 9.34558C3.35288 9.38249 3.37387 9.4163 3.4008 9.44509C3.42774 9.47388 3.46008 9.49708 3.49599 9.51337C3.53189 9.52965 3.57065 9.53869 3.61006 9.53999C3.97006 9.53999 4.95006 9.70999 6.10006 9.75999H7.15006C7.50006 9.75999 7.87006 9.75999 8.21006 9.69999C9.39006 9.60999 10.3801 9.47999 10.6701 9.45999C10.7515 9.44607 10.8254 9.40381 10.8786 9.34067C10.9319 9.27753 10.9611 9.19759 10.9611 9.11499C10.9611 9.03238 10.9319 8.95244 10.8786 8.8893C10.8254 8.82616 10.7515 8.7839 10.6701 8.76999C10.3801 8.76999 9.37006 8.65999 8.19006 8.60999H7.13006C6.78006 8.60999 6.42006 8.60999 6.13006 8.65999C5.00006 8.73999 4.00006 8.89999 3.62006 8.92999Z" fill="black"/>
<path fill-rule="evenodd" clip-rule="evenodd" d="M3.64003 12.73C3.99003 12.73 4.97003 12.9 6.12003 12.95H7.18003C7.54003 12.95 7.89003 12.95 8.23003 12.89C9.41003 12.8 10.4 12.67 10.69 12.65C10.7347 12.65 10.7789 12.6412 10.8201 12.6241C10.8614 12.607 10.8989 12.582 10.9304 12.5504C10.962 12.5188 10.9871 12.4814 11.0041 12.4401C11.0212 12.3988 11.03 12.3546 11.03 12.31C11.0301 12.2189 10.9946 12.1313 10.9311 12.066C10.8676 12.0006 10.7811 11.9626 10.69 11.96C10.4 11.96 9.40003 11.85 8.21003 11.8H7.15003C6.80003 11.8 6.44003 11.8 6.10003 11.85C4.97003 11.94 4.00003 12.1 3.65003 12.13C3.6098 12.1286 3.56971 12.1354 3.53215 12.1499C3.49459 12.1644 3.46033 12.1862 3.4314 12.2142C3.40248 12.2422 3.37948 12.2758 3.36378 12.3128C3.34808 12.3499 3.34 12.3897 3.34003 12.43C3.34003 12.5096 3.37163 12.5859 3.42789 12.6421C3.48416 12.6984 3.56046 12.73 3.64003 12.73Z" fill="black"/>
<path fill-rule="evenodd" clip-rule="evenodd" d="M20.54 15.72C20.54 15.6272 20.5032 15.5382 20.4375 15.4725C20.3719 15.4069 20.2829 15.37 20.19 15.37C19.53 15.37 17.19 15.21 14.48 15.11C13.68 15.11 12.86 15.11 12.03 15.05C11.2 14.99 10.37 15.05 9.57004 15.05C6.95004 15.05 4.66004 15.21 3.84004 15.26C3.76127 15.2625 3.68641 15.2949 3.63068 15.3507C3.57495 15.4064 3.54254 15.4812 3.54004 15.56C3.54002 15.6003 3.5481 15.6401 3.56379 15.6772C3.57949 15.7142 3.60249 15.7478 3.63141 15.7758C3.66034 15.8038 3.6946 15.8256 3.73216 15.8401C3.76972 15.8546 3.80981 15.8614 3.85004 15.86C4.67004 15.86 6.94004 16.06 9.56004 16.16C10.36 16.16 11.19 16.16 12.01 16.21C12.83 16.26 13.67 16.21 14.47 16.21C17.19 16.21 19.53 16.1 20.19 16.07C20.2829 16.07 20.3719 16.0331 20.4375 15.9675C20.5032 15.9019 20.54 15.8128 20.54 15.72Z" fill="black"/>
<path fill-rule="evenodd" clip-rule="evenodd" d="M11.78 18.46C11.2 18.46 10.59 18.4 9.99001 18.39C9.39001 18.38 8.78001 18.39 8.19001 18.39C6.27001 18.39 4.60001 18.55 4.00001 18.59C3.92036 18.595 3.84542 18.6295 3.78992 18.6869C3.73442 18.7442 3.70235 18.8202 3.70001 18.9C3.69999 18.9403 3.70807 18.9801 3.72377 19.0172C3.73946 19.0542 3.76246 19.0878 3.79139 19.1158C3.82031 19.1437 3.85457 19.1656 3.89213 19.1801C3.92969 19.1946 3.96978 19.2013 4.01001 19.2C4.61001 19.2 6.26001 19.4 8.18001 19.5C8.76001 19.5 9.36001 19.55 9.97001 19.56C10.58 19.57 11.18 19.56 11.76 19.56C13.76 19.56 15.46 19.45 15.95 19.43C16.0411 19.4274 16.1276 19.3894 16.1911 19.324C16.2545 19.2587 16.2901 19.1711 16.29 19.08C16.29 18.9898 16.2542 18.9034 16.1904 18.8396C16.1267 18.7758 16.0402 18.74 15.95 18.74C15.47 18.7 13.77 18.56 11.78 18.46Z" fill="black"/>
</g>
<defs>
<clipPath id="clip0_1030_2449">
<rect width="24" height="24" fill="white"/>
</clipPath>
</defs>
</svg>
