<svg width="24" height="24" viewBox="0 0 24 24" fill="none" xmlns="http://www.w3.org/2000/svg">
<g clip-path="url(#clip0_1030_2475)">
<path fill-rule="evenodd" clip-rule="evenodd" d="M7.99999 8.61999C8.17999 5.13999 8.45999 2.09999 8.62999 0.829991C8.63338 0.786268 8.646 0.743761 8.66704 0.705278C8.68807 0.666796 8.71702 0.633213 8.75199 0.606749C8.78696 0.580286 8.82715 0.561543 8.8699 0.551759C8.91265 0.541975 8.95699 0.541372 8.99999 0.549992C9.08132 0.560034 9.1557 0.600895 9.20779 0.664153C9.25989 0.727411 9.28573 0.808245 9.27999 0.889991C9.18999 2.15999 9.19999 5.18999 9.15999 8.65999C9.15999 9.73999 9.15999 10.86 9.09999 11.99C9.03999 13.12 8.99999 14.24 8.99999 15.32C8.87999 18.7 8.75999 21.7 8.78999 23.08C8.79274 23.1738 8.75873 23.265 8.69522 23.3341C8.63171 23.4032 8.54371 23.4448 8.44999 23.45C8.39818 23.4654 8.3435 23.4687 8.29024 23.4595C8.23697 23.4502 8.18656 23.4288 8.14297 23.3968C8.09938 23.3649 8.06378 23.3232 8.03897 23.2752C8.01416 23.2272 8.00082 23.174 7.99999 23.12C7.89999 21.73 7.80999 18.71 7.79999 15.3V11.96C7.79999 10.83 7.93999 9.69999 7.99999 8.61999Z" fill="black"/>
<path fill-rule="evenodd" clip-rule="evenodd" d="M0.359972 10.6C0.989972 10.6 1.58997 10.49 2.15997 10.46H2.92997C3.16997 10.46 3.45997 10.46 3.69997 10.52C4.31997 10.59 4.82997 10.69 5.19997 10.76C4.68997 10.11 4.03997 9.23 3.65997 8.76C3.55997 8.64 3.40997 8.56 3.44997 8.52C3.41678 8.50093 3.38803 8.47501 3.36561 8.44398C3.3432 8.41295 3.32764 8.3775 3.31997 8.34C3.24997 8.19 3.40997 7.74 3.83997 8.02L4.14997 8.27C4.79411 8.79193 5.41155 9.34597 5.99997 9.93C6.34311 10.2502 6.61559 10.6384 6.79997 11.07C6.81424 11.1533 6.81187 11.2386 6.79299 11.321C6.77411 11.4034 6.73909 11.4812 6.68997 11.55C6.55099 11.7386 6.39717 11.9159 6.22997 12.08C5.58378 12.7546 4.87004 13.3611 4.09997 13.89C4.06123 13.9156 4.01783 13.9333 3.97224 13.9422C3.92665 13.951 3.87976 13.9508 3.83426 13.9415C3.78876 13.9322 3.74553 13.914 3.70705 13.888C3.66857 13.8621 3.63558 13.8287 3.60997 13.79C3.58436 13.7513 3.56664 13.7079 3.5578 13.6623C3.54897 13.6167 3.5492 13.5698 3.55849 13.5243C3.56778 13.4788 3.58593 13.4356 3.61192 13.3971C3.63791 13.3586 3.67123 13.3256 3.70997 13.3C4.31564 12.731 4.86486 12.1047 5.34997 11.43C4.95997 11.49 4.39997 11.58 3.66997 11.63H2.89997L2.12997 11.57C1.55997 11.51 0.999972 11.4 0.339972 11.31C0.246248 11.3048 0.158252 11.2632 0.0947392 11.1941C0.0312267 11.125 -0.00277853 11.0338 -2.83943e-05 10.94C0.00508882 10.848 0.0452647 10.7615 0.112231 10.6983C0.179198 10.635 0.26786 10.5999 0.359972 10.6Z" fill="black"/>
<path fill-rule="evenodd" clip-rule="evenodd" d="M11.27 2.55H12.53C13.29 2.55 14.03 2.42 14.78 2.37H15.78H17.1C18.1 2.44 19.15 2.58 20.17 2.69C20.2102 2.68997 20.2501 2.69805 20.2871 2.71375C20.3242 2.72945 20.3577 2.75244 20.3857 2.78137C20.4137 2.81029 20.4356 2.84456 20.4501 2.88212C20.4645 2.91968 20.4713 2.95977 20.47 3C20.47 3.08221 20.4373 3.16106 20.3792 3.2192C20.321 3.27733 20.2422 3.31 20.16 3.31C19.16 3.37 18.16 3.45 17.09 3.5H15.79H14.48C13.83 3.5 13.19 3.44 12.48 3.4L11.19 3.28C11.0962 3.27482 11.0082 3.23324 10.9447 3.16413C10.8812 3.09501 10.8472 3.00382 10.85 2.91C10.8474 2.85667 10.857 2.80346 10.8781 2.75443C10.8992 2.70539 10.9312 2.66184 10.9718 2.6271C11.0123 2.59236 11.0602 2.56735 11.1119 2.55398C11.1636 2.54062 11.2177 2.53925 11.27 2.55Z" fill="black"/>
<path fill-rule="evenodd" clip-rule="evenodd" d="M11.2699 11H12.5299C13.2899 10.95 14.0299 10.87 14.7799 10.82H15.7799H17.0999C18.0999 10.88 19.1499 11.03 20.1699 11.14C20.2102 11.14 20.25 11.148 20.2871 11.1637C20.3242 11.1794 20.3577 11.2024 20.3857 11.2314C20.4137 11.2603 20.4356 11.2945 20.45 11.3321C20.4645 11.3697 20.4713 11.4097 20.4699 11.45C20.4699 11.5322 20.4373 11.611 20.3792 11.6692C20.321 11.7273 20.2422 11.76 20.1599 11.76C19.1599 11.76 18.1599 11.9 17.0899 11.94H15.7899H14.4799C13.8299 11.94 13.1899 11.88 12.4799 11.84L11.1899 11.72C11.0962 11.7148 11.0082 11.6732 10.9447 11.6041C10.8812 11.535 10.8472 11.4438 10.8499 11.35C10.8489 11.2975 10.8596 11.2454 10.8814 11.1977C10.9032 11.1499 10.9355 11.1076 10.9758 11.074C11.0161 11.0404 11.0635 11.0163 11.1144 11.0035C11.1654 10.9907 11.2185 10.9895 11.2699 11Z" fill="black"/>
<path fill-rule="evenodd" clip-rule="evenodd" d="M11.2699 19.77L12.5299 19.72C13.2899 19.72 14.0299 19.59 14.7799 19.54H15.7799H17.0999C18.0999 19.61 19.1499 19.75 20.1699 19.86C20.2111 19.8599 20.2518 19.8683 20.2896 19.8846C20.3273 19.9009 20.3613 19.9248 20.3895 19.9548C20.4176 19.9848 20.4393 20.0203 20.4531 20.059C20.467 20.0978 20.4727 20.1389 20.4699 20.18C20.47 20.2202 20.4619 20.2601 20.4462 20.2971C20.4305 20.3342 20.4075 20.3677 20.3786 20.3957C20.3496 20.4237 20.3154 20.4456 20.2778 20.4601C20.2403 20.4746 20.2002 20.4813 20.1599 20.48C19.1599 20.54 18.1599 20.62 17.0899 20.67H15.7899H14.4799C13.8299 20.67 13.1899 20.61 12.4799 20.57L11.1899 20.45C11.0962 20.4448 11.0082 20.4032 10.9447 20.3341C10.8812 20.265 10.8472 20.1738 10.8499 20.08C10.8545 20.0309 10.8694 19.9834 10.8937 19.9405C10.9179 19.8976 10.9509 19.8603 10.9906 19.831C11.0302 19.8017 11.0756 19.7812 11.1237 19.7707C11.1719 19.7601 11.2217 19.7599 11.2699 19.77Z" fill="black"/>
<path fill-rule="evenodd" clip-rule="evenodd" d="M23.7599 7.47H23.4399L20.3199 7.69L18.6999 7.77H17.0799C14.7099 7.77 12.5499 7.62 12.2099 7.61L11.2099 7.43C11.1184 7.4101 11.0386 7.35468 10.988 7.27592C10.9373 7.19715 10.9201 7.1015 10.9399 7.01C10.9598 6.9185 11.0153 6.83865 11.094 6.78801C11.1728 6.73738 11.2684 6.7201 11.3599 6.74L12.2399 6.82C12.5799 6.82 14.7399 6.65 17.0999 6.59H18.7199C19.2599 6.59 19.8199 6.59 20.3399 6.65C21.7399 6.71 22.9099 6.78 23.4699 6.81C24.3299 6.88 23.9399 7.46 23.7599 7.47Z" fill="black"/>
<path fill-rule="evenodd" clip-rule="evenodd" d="M18.7 16.17H17.08C14.71 16.17 12.55 16.02 12.21 16.01L11.21 15.83C11.1645 15.8205 11.1213 15.8021 11.083 15.7757C11.0447 15.7494 11.0121 15.7157 10.9869 15.6766C10.9618 15.6375 10.9447 15.5938 10.9366 15.548C10.9286 15.5022 10.9297 15.4553 10.94 15.41C10.9493 15.3647 10.9678 15.3218 10.9943 15.2839C11.0208 15.246 11.0547 15.2139 11.094 15.1896C11.1333 15.1652 11.1772 15.1492 11.2229 15.1424C11.2687 15.1356 11.3153 15.1382 11.36 15.15L12.24 15.22C12.58 15.22 14.74 15.05 17.1 14.99H18.72C19.26 14.99 19.82 14.99 20.34 15.05C21.74 15.11 22.91 15.18 23.47 15.21C24.36 15.21 23.97 15.83 23.79 15.84H23.47C22.92 15.84 21.74 15.98 20.35 16.06C19.8 16.12 19.26 16.16 18.7 16.17Z" fill="black"/>
</g>
<defs>
<clipPath id="clip0_1030_2475">
<rect width="24" height="24" fill="white"/>
</clipPath>
</defs>
</svg>
