<svg width="24" height="24" viewBox="0 0 24 24" fill="none" xmlns="http://www.w3.org/2000/svg">
<g clip-path="url(#clip0_1030_2491)">
<path fill-rule="evenodd" clip-rule="evenodd" d="M23.36 1.00001C23.3564 0.957304 23.3441 0.915797 23.3236 0.878114C23.3032 0.84043 23.2752 0.80739 23.2414 0.781078C23.2076 0.754766 23.1687 0.735754 23.1271 0.725244C23.0856 0.714733 23.0423 0.712952 23 0.720013C22.31 0.850013 15.85 0.0800128 10.89 1.28485e-05C9.07603 -0.119031 7.25454 0.0428782 5.49 0.480013C4.27756 1.06685 3.21659 1.92508 2.38937 2.98815C1.56216 4.05122 0.990933 5.29055 0.720004 6.61001C0.502939 7.53201 0.597116 8.49992 0.987845 9.36278C1.37857 10.2256 2.04388 10.9349 2.88 11.38C3.80942 11.8735 4.83076 12.1697 5.88 12.25C7.40454 12.3346 8.93363 12.2237 10.43 11.92C10.8173 11.8031 11.1923 11.649 11.55 11.46H11.64C11.64 12.15 11.56 12.85 11.53 13.54C11.48 14.44 11.46 15.35 11.43 16.26L11.36 20.37V21.51V22.19C11.36 23.79 11.36 24.01 11.71 24.01C12.06 24.01 12.1 23.79 12.06 22.19V21.51L12.16 20.41L12.49 16.31C12.6 14.5 12.77 12.69 12.84 10.88C12.89 9.66001 12.84 8.45001 12.84 7.23001C12.84 6.54001 12.99 5.23001 12.99 4.12001C13.0116 3.63398 12.9541 3.14767 12.82 2.68001C12.8077 2.64139 12.7876 2.60567 12.7611 2.57501C12.7346 2.54435 12.7021 2.51938 12.6656 2.50163C12.6292 2.48387 12.5895 2.47368 12.549 2.47169C12.5085 2.46969 12.468 2.47592 12.43 2.49001C12.3914 2.50235 12.3557 2.5224 12.325 2.54893C12.2943 2.57546 12.2694 2.60794 12.2516 2.64439C12.2339 2.68084 12.2237 2.72051 12.2217 2.76101C12.2197 2.80151 12.2259 2.84199 12.24 2.88001C12.3209 3.27812 12.3378 3.68659 12.29 4.09001C12.2 5.20001 11.92 6.53001 11.89 7.23001C11.86 7.93001 11.8 8.91001 11.75 9.75001L11.69 10.75H11.48C11.1029 10.9265 10.7156 11.0801 10.32 11.21C8.89285 11.4486 7.4409 11.5024 6 11.37C5.07467 11.2816 4.17844 10.9988 3.37 10.54C2.73981 10.1728 2.24715 9.6094 1.96726 8.93587C1.68738 8.26234 1.63566 7.5157 1.82 6.81001C2.06267 5.68466 2.55782 4.62914 3.26807 3.72313C3.97832 2.81713 4.88512 2.08431 5.92 1.58001C7.5535 1.17118 9.23789 1.00274 10.92 1.08001C15.92 1.01001 22.48 1.48001 23.16 1.32001C23.2249 1.29763 23.2802 1.25364 23.3166 1.1954C23.353 1.13716 23.3683 1.06819 23.36 1.00001Z" fill="black"/>
<path fill-rule="evenodd" clip-rule="evenodd" d="M18.88 1.58002C18.8862 1.55034 18.8862 1.5197 18.88 1.49002C18.76 1.22002 18.3 1.41002 18.29 1.44002C18.2851 1.47652 18.2851 1.51352 18.29 1.55002C18.2843 1.57639 18.2843 1.60366 18.29 1.63002C18.29 1.86002 18.29 2.35002 18.24 3.01002C18.18 4.64002 18.03 7.32002 17.97 9.95002V14.11V16.87C17.97 16.98 18.02 20.3 17.97 21.6C17.97 21.79 17.88 21.97 17.97 22C17.954 22.0487 17.954 22.1013 17.97 22.15C17.97 22.196 17.979 22.2415 17.9966 22.284C18.0142 22.3264 18.04 22.365 18.0725 22.3975C18.105 22.43 18.1436 22.4558 18.1861 22.4734C18.2285 22.491 18.274 22.5 18.32 22.5C18.4035 22.498 18.4841 22.4685 18.5492 22.4161C18.6142 22.3636 18.6602 22.2912 18.68 22.21C18.7252 22.0295 18.7553 21.8455 18.77 21.66C18.92 20.36 19.06 17.02 19.07 16.91C19.12 16.19 19.19 14.91 19.23 13.43C19.23 12.36 19.28 11.17 19.23 9.96002C19.23 7.33002 19.1 4.65002 19.05 3.02002C18.91 2.30002 18.89 1.81002 18.88 1.58002Z" fill="black"/>
</g>
<defs>
<clipPath id="clip0_1030_2491">
<rect width="24" height="24" fill="white"/>
</clipPath>
</defs>
</svg>
