<svg width="24" height="24" viewBox="0 0 24 24" fill="none" xmlns="http://www.w3.org/2000/svg">
<g clip-path="url(#clip0_1047_6353)">
<path fill-rule="evenodd" clip-rule="evenodd" d="M21.16 6.78997C20.9817 6.14333 20.6832 5.53607 20.28 4.99997C19.7859 4.36301 19.1497 3.85044 18.4221 3.50317C17.6946 3.15591 16.896 2.98359 16.09 2.99997C16.0121 2.99993 15.9373 3.03016 15.8813 3.08427C15.8253 3.13839 15.7926 3.21215 15.79 3.28997C15.7873 3.32839 15.7925 3.36696 15.8053 3.40327C15.8181 3.43959 15.8383 3.47286 15.8646 3.50102C15.8909 3.52918 15.9227 3.55161 15.958 3.56691C15.9934 3.58222 16.0315 3.59007 16.07 3.58997C16.7525 3.6388 17.4145 3.84473 18.0043 4.19166C18.5941 4.53859 19.0957 5.01715 19.47 5.58997C19.7575 6.04299 19.9702 6.53934 20.1 7.05997C20.2807 7.84976 20.2807 8.67017 20.1 9.45997C19.9504 10.2728 19.6074 11.0376 19.1 11.69C18.1882 12.7348 17.1842 13.6953 16.1 14.56C15.48 14.25 14.88 13.96 14.3 13.64C13.8098 13.3822 13.3356 13.095 12.88 12.78C12.8502 12.7482 12.8139 12.7234 12.7735 12.7071C12.7332 12.6908 12.6897 12.6835 12.6463 12.6857C12.6028 12.6879 12.5603 12.6995 12.5218 12.7197C12.4833 12.74 12.4496 12.7684 12.4232 12.8029C12.3967 12.8375 12.3781 12.8774 12.3686 12.9198C12.359 12.9623 12.3589 13.0063 12.3681 13.0489C12.3773 13.0914 12.3957 13.1314 12.4219 13.1661C12.4481 13.2009 12.4816 13.2295 12.52 13.25C12.9675 13.6094 13.4349 13.9433 13.92 14.25L15.58 15.3C15.2652 15.792 15.0164 16.3232 14.84 16.88C14.7501 17.1302 14.7135 17.3964 14.7325 17.6616C14.7514 17.9268 14.8255 18.1851 14.95 18.42C15.0147 18.5061 15.103 18.5717 15.2041 18.609C15.3052 18.6462 15.4149 18.6535 15.52 18.63L15.99 18.5C16.2 18.44 18.33 17.73 18.65 17.59C18.8581 17.5026 19.048 17.3771 19.21 17.22C19.3012 17.0909 19.3414 16.9327 19.323 16.7758C19.3045 16.6189 19.2287 16.4743 19.11 16.37C18.96 16.24 18.58 15.94 18.52 15.91C18.21 15.69 17.89 15.48 17.52 15.29L16.76 14.89C17.8304 14.1007 18.8338 13.2244 19.76 12.27C20.4303 11.5309 20.9078 10.6378 21.15 9.66997C21.3835 8.72458 21.387 7.73696 21.16 6.78997ZM17.71 16.79L17.23 16.98L15.7 17.6H15.63C15.6181 17.3174 15.6623 17.0353 15.76 16.77C15.8796 16.4269 16.0233 16.0928 16.19 15.77L17.71 16.79Z" fill="black"/>
<path fill-rule="evenodd" clip-rule="evenodd" d="M16.37 20C16.29 20.28 16.2 20.5599 16.1 20.84C16 21.11 15.9 21.3799 15.78 21.65C15.5668 22.1412 15.3055 22.6101 15 23.0499C14.684 22.2729 14.2525 21.5481 13.72 20.9C13.2 20.2799 12.65 19.7199 12.09 19.16C11.3395 18.483 10.7075 17.6853 10.22 16.7999H10.36H11.61C11.6723 16.7963 11.7332 16.7799 11.789 16.752C11.8448 16.724 11.8943 16.685 11.9345 16.6373C11.9747 16.5896 12.0048 16.5342 12.023 16.4745C12.0411 16.4147 12.0469 16.352 12.04 16.29C11.934 16.0409 11.7925 15.8085 11.62 15.6C11.21 15.06 10.54 14.32 10.15 13.88L10.51 13.53C11.531 12.6156 12.4992 11.6441 13.41 10.62C14.0229 9.86788 14.4939 9.01059 14.8 8.08995C15.1413 7.09336 15.21 6.02367 14.999 4.99162C14.788 3.95956 14.305 3.00265 13.6 2.21995C12.9032 1.44031 12.0343 0.833759 11.0623 0.448409C10.0902 0.0630602 9.04173 -0.0904856 8 -4.89447e-05C7.03311 0.0439325 6.09289 0.330856 5.26618 0.834219C4.43948 1.33758 3.75295 2.04116 3.27 2.87995C2.83749 3.7309 2.61792 4.67409 2.63011 5.62857C2.6423 6.58305 2.8859 7.52032 3.34 8.35995C3.98837 9.6467 4.89368 10.7868 6 11.71C6.92145 12.4875 7.92784 13.1584 9 13.71C8.7182 14.0283 8.45445 14.3621 8.21 14.71C7.83683 15.1433 7.50222 15.6084 7.21 16.1C7.17528 16.1619 7.15445 16.2307 7.14895 16.3015C7.14345 16.3723 7.15341 16.4435 7.17814 16.5101C7.20287 16.5767 7.24178 16.6371 7.29218 16.6871C7.34257 16.7372 7.40325 16.7757 7.47 16.7999C7.69984 16.8709 7.93952 16.9046 8.18 16.9C8.63552 16.8777 9.08951 16.831 9.54 16.76C9.87594 17.8699 10.4492 18.8935 11.22 19.76C11.55 20.12 11.89 20.45 12.22 20.76C13.0988 21.4833 13.8464 22.3527 14.43 23.33C14.4687 23.4056 14.5323 23.4656 14.61 23.5C14.6023 23.5474 14.6065 23.5959 14.6222 23.6413C14.6379 23.6867 14.6646 23.7275 14.7 23.76C14.7307 23.7911 14.7673 23.8158 14.8076 23.8327C14.848 23.8496 14.8913 23.8583 14.935 23.8583C14.9787 23.8583 15.022 23.8496 15.0624 23.8327C15.1027 23.8158 15.1393 23.7911 15.17 23.76C15.7789 23.2682 16.2996 22.6764 16.71 22.01C16.8898 21.7188 17.0405 21.4106 17.16 21.09C17.2747 20.7645 17.3616 20.43 17.42 20.09C17.4851 19.5285 17.4851 18.9614 17.42 18.4C17.37 18.09 16.65 18.2099 16.63 18.7999C16.5786 19.2068 16.4917 19.6083 16.37 20ZM6.37 11.18C5.40441 10.2814 4.62614 9.20061 4.08 7.99995C3.7081 7.27779 3.51407 6.47725 3.51407 5.66495C3.51407 4.85265 3.7081 4.05211 4.08 3.32995C4.50682 2.65317 5.09669 2.09435 5.79556 1.70474C6.49442 1.31512 7.2799 1.10717 8.08 1.09995C8.95424 1.0295 9.83283 1.16464 10.6455 1.49456C11.4581 1.82449 12.1823 2.34003 12.76 2.99995C13.3337 3.63759 13.7283 4.41569 13.904 5.25523C14.0796 6.09476 14.0299 6.96583 13.76 7.77995C13.4988 8.57786 13.092 9.32042 12.56 9.96995C11.7055 10.9874 10.787 11.9494 9.81 12.85C9.66 13 9.51 13.16 9.37 13.32C8.30313 12.7335 7.31237 12.0181 6.42 11.19L6.37 11.18ZM9.42 16.07C9.12 16.07 8.72 16.17 8.34 16.18C8.56 15.86 8.76 15.41 8.83 15.31C9.06187 14.9608 9.31571 14.6268 9.59 14.31C9.91 14.69 10.38 15.24 10.75 15.71L10.87 15.86C10.6244 15.8942 10.3808 15.9409 10.14 16L9.42 16.07Z" fill="black"/>
</g>
<defs>
<clipPath id="clip0_1047_6353">
<rect width="24" height="24" fill="white"/>
</clipPath>
</defs>
</svg>
