<svg width="24" height="24" viewBox="0 0 24 24" fill="none" xmlns="http://www.w3.org/2000/svg">
<g clip-path="url(#clip0_1047_6357)">
<path fill-rule="evenodd" clip-rule="evenodd" d="M9.18 9.57003L9.58 9.42003C9.58 9.42003 9.58 9.51003 9.66 9.54003C10.29 10.07 10.94 10.54 11.6 11.05C12.26 11.56 12.92 12 13.6 12.47C13.69 12.53 14.3 12.95 14.6 13.09C14.7271 13.1667 14.8755 13.2003 15.0233 13.1858C15.171 13.1714 15.3101 13.1098 15.42 13.01C15.6963 12.6456 15.9 12.2314 16.02 11.79C16.1649 11.1995 16.2552 10.597 16.29 9.99003C16.35 9.16003 16.41 8.33003 16.49 7.49003C16.55 6.95003 16.61 6.41003 16.68 5.87003L17.2 5.50003C17.1963 5.55083 17.2076 5.60161 17.2325 5.64605C17.2573 5.6905 17.2947 5.72665 17.34 5.75003C17.9856 6.12397 18.6535 6.45793 19.34 6.75003C20.0191 7.05532 20.7133 7.32567 21.42 7.56003C21.49 7.56003 22.37 7.86003 22.72 7.95003C22.8531 7.98701 22.9939 7.986 23.1264 7.94712C23.259 7.90824 23.378 7.83304 23.47 7.73003C23.6095 7.4825 23.6851 7.20411 23.69 6.92003C23.6755 6.44525 23.5981 5.97449 23.46 5.52003C23.3282 5.10883 23.1747 4.70493 23 4.31003C22.66 3.42003 22.26 2.56003 21.95 1.66003C21.9334 1.60074 21.9 1.54751 21.8539 1.50671C21.8078 1.46591 21.7509 1.43929 21.69 1.43003L22.05 1.00003C22.1137 0.939028 22.1505 0.855241 22.1523 0.767099C22.1542 0.678957 22.121 0.59368 22.06 0.530028C21.999 0.466376 21.9152 0.429563 21.8271 0.427688C21.7389 0.425812 21.6537 0.459028 21.59 0.520028C20.9 1.17003 20.28 1.84003 19.59 2.46003C19.31 2.72003 19.02 2.97003 18.71 3.21003C16.8423 4.63198 14.8315 5.85526 12.71 6.86003C11.4432 7.48976 10.1448 8.05384 8.82 8.55003C7.93 8.88003 7.04 9.18003 6.15 9.43003C5.57 9.59003 5 9.72003 4.42 9.82003C3.04 10.07 1.64 10.21 0.25 10.45C0.173101 10.4647 0.104585 10.5079 0.058213 10.5709C0.0118404 10.634 -0.00895575 10.7123 3.72762e-07 10.79C0.0188805 10.8599 0.0632047 10.9202 0.124266 10.959C0.185326 10.9979 0.25871 11.0125 0.33 11L1.45 10.9C1.96 11.72 2.45 12.52 3.07 13.29C3.47 13.83 3.89 14.36 4.34 14.88C4.34 14.88 4.94 15.56 5.19 15.77C5.28129 15.8541 5.39384 15.9116 5.51547 15.9363C5.6371 15.961 5.76316 15.9519 5.88 15.91C6.20198 15.7574 6.47541 15.5185 6.67 15.22C6.89896 14.8714 7.09005 14.4993 7.24 14.11C7.42333 13.6591 7.57046 13.1943 7.68 12.72C7.89 11.78 7.95 10.91 8.15 9.84003C8.49 9.78003 8.84 9.68003 9.18 9.57003ZM19.25 3.91003C19.57 3.64003 19.86 3.35003 20.15 3.07003C20.44 2.79003 20.93 2.24003 21.31 1.83003C21.54 2.76003 21.86 3.66003 22.11 4.59003C22.2225 4.96367 22.3094 5.34456 22.37 5.73003C22.37 5.94003 22.47 6.26003 22.5 6.58003V6.75003L21.63 6.51003C20.9349 6.37604 20.2473 6.20581 19.57 6.00003C18.8903 5.79005 18.2227 5.54301 17.57 5.26003C18.13 4.80003 18.71 4.36003 19.25 3.91003ZM13.2 7.91003C14.12 7.44003 15.01 6.91003 15.87 6.38003L15.24 9.88003C15.1742 10.4215 15.0638 10.9567 14.91 11.48C14.8672 11.6303 14.8137 11.7773 14.75 11.92L14.17 11.56C13.31 11.09 12.47 10.62 11.64 10.12C11.15 9.83003 10.64 9.52003 10.19 9.20003C11.2158 8.82078 12.2206 8.38682 13.2 7.90003V7.91003ZM6.9 12.08C6.75015 12.6415 6.53887 13.1848 6.27 13.7C6.13417 14.0193 5.96667 14.3242 5.77 14.61C5.71535 14.6813 5.65516 14.7482 5.59 14.81C5.42203 14.6041 5.26834 14.3869 5.13 14.16C4.54 13.58 4 13 3.43 12.38C2.86 11.76 2.58 11.38 2.17 10.86C2.96 10.79 3.76 10.73 4.55 10.63C5.16 10.56 5.76 10.46 6.37 10.33C6.71 10.26 7.04 10.17 7.37 10.08C7.19 10.8 7.07 11.44 6.9 12.08Z" fill="black"/>
<path fill-rule="evenodd" clip-rule="evenodd" d="M23.69 18.32C21.8573 18.1479 20.0435 17.8133 18.27 17.32C17.52 17.1 16.78 16.85 16.06 16.56C15.3363 16.2641 14.6286 15.9303 13.94 15.56C12.3168 14.7173 10.8273 13.639 9.52 12.36C9.4938 12.3319 9.46207 12.3094 9.4268 12.294C9.39153 12.2787 9.35347 12.2708 9.315 12.2708C9.27653 12.2708 9.23847 12.2787 9.2032 12.294C9.16793 12.3094 9.1362 12.3319 9.11 12.36C9.05565 12.4144 9.02512 12.4881 9.02512 12.565C9.02512 12.6419 9.05565 12.7156 9.11 12.77C9.33 13.03 9.56 13.26 9.79 13.51C9.72 13.87 9.67 14.23 9.62 14.59C9.57 14.95 9.55 15.39 9.53 15.8V18.23C9.51695 18.4732 9.51695 18.7169 9.53 18.96C9.54062 19.0612 9.57637 19.1581 9.634 19.242C9.69164 19.3258 9.76933 19.3939 9.86 19.44C10.1417 19.5567 10.4583 19.5567 10.74 19.44C11.1146 19.2818 11.473 19.0876 11.81 18.86C12.5 18.43 13.14 17.86 13.81 17.46C14.0311 17.3178 14.2616 17.1908 14.5 17.08C14.87 17.25 15.24 17.42 15.61 17.56L15.79 17.62C15.95 18.17 16.1 18.71 16.27 19.25C16.44 19.79 16.66 20.5 16.88 21.12C17.0308 21.5667 17.2078 22.0042 17.41 22.43C17.5744 22.7642 17.798 23.0657 18.07 23.32C18.1872 23.4207 18.3323 23.4832 18.486 23.4993C18.6396 23.5153 18.7945 23.4842 18.93 23.41C19.3348 23.1843 19.7024 22.8976 20.02 22.56C20.4368 22.141 20.8275 21.6969 21.19 21.23C21.72 20.56 22.19 19.84 22.68 19.1C22.7006 19.0384 22.7006 18.9717 22.68 18.91H23.57C23.6128 18.9141 23.6561 18.9096 23.6971 18.8966C23.7381 18.8836 23.7761 18.8625 23.8088 18.8345C23.8415 18.8064 23.8682 18.7721 23.8873 18.7336C23.9064 18.695 23.9175 18.653 23.92 18.61C23.9138 18.5446 23.8887 18.4825 23.8479 18.431C23.8071 18.3795 23.7523 18.341 23.69 18.32ZM13.47 16.82C12.74 17.18 12.05 17.64 11.33 17.99C11.2 18.05 10.84 18.32 10.58 18.45V18.2L10.36 15.81C10.36 15.41 10.3 15.03 10.29 14.65V14.12C11.2137 15.0371 12.2444 15.8395 13.36 16.51L13.7 16.7C13.67 16.74 13.56 16.77 13.47 16.82ZM20.55 20.68C20.1745 21.0819 19.7737 21.4593 19.35 21.81C19.1738 22.0352 18.9762 22.2428 18.76 22.43C18.6341 22.278 18.5236 22.1138 18.43 21.94C18.21 21.54 18.03 21.1 17.87 20.76C17.54 20.06 17.21 19.36 16.87 18.65C16.76 18.41 16.67 18.17 16.57 17.92C17.03 18.07 17.49 18.21 17.96 18.32C19.295 18.625 20.653 18.819 22.02 18.9C21.56 19.52 21.08 20.12 20.55 20.68Z" fill="black"/>
</g>
<defs>
<clipPath id="clip0_1047_6357">
<rect width="24" height="24" fill="white"/>
</clipPath>
</defs>
</svg>
