<svg width="24" height="24" viewBox="0 0 24 24" fill="none" xmlns="http://www.w3.org/2000/svg">
<g clip-path="url(#clip0_1031_3150)">
<path fill-rule="evenodd" clip-rule="evenodd" d="M22.59 13.25C21.8487 13.0049 21.0705 12.8899 20.29 12.91C19.19 12.91 18.05 13.04 17.08 13.07L11.54 13.23C9.73 13.3 7.87 13.38 6.03 13.52C4.78 13.62 3.55 13.76 2.36 13.95C2.31645 13.9561 2.27456 13.9708 2.23678 13.9933C2.19901 14.0158 2.16611 14.0457 2.14002 14.0811C2.11394 14.1165 2.09519 14.1567 2.08488 14.1995C2.07458 14.2422 2.07292 14.2866 2.08 14.33C2.08485 14.3731 2.09843 14.4148 2.1199 14.4525C2.14137 14.4903 2.17029 14.5232 2.2049 14.5494C2.23951 14.5756 2.27909 14.5945 2.32122 14.6049C2.36336 14.6153 2.40718 14.6171 2.45 14.61C3.63 14.45 4.85 14.35 6.08 14.29C7.91 14.21 9.77 14.21 11.56 14.2H17.1C18.05 14.2 19.19 14.09 20.27 14.11C20.9116 14.113 21.549 14.2142 22.16 14.41C22.48 14.53 22.69 14.62 22.73 14.77C22.77 14.92 22.67 14.89 22.61 14.96C22.1937 15.351 21.6659 15.6026 21.1 15.68C20.4377 15.7779 19.7695 15.8314 19.1 15.84H15.94L5.88 16.13C5.06 16.13 4.15 16.27 3.27 16.26C2.72321 16.2713 2.17764 16.2039 1.65 16.06C1.2 15.93 0.910004 15.72 0.830004 15.44C0.804051 15.2689 0.82798 15.0939 0.898925 14.9361C0.969869 14.7782 1.08482 14.6442 1.23 14.55C1.3061 14.4858 1.35397 14.3943 1.36332 14.2952C1.37267 14.1961 1.34276 14.0973 1.28 14.02C1.24553 13.9846 1.20432 13.9565 1.15881 13.9373C1.1133 13.9181 1.0644 13.9082 1.015 13.9082C0.965608 13.9082 0.916711 13.9181 0.871198 13.9373C0.825685 13.9565 0.784477 13.9846 0.750004 14.02C0.469359 14.1909 0.247327 14.4431 0.113374 14.7432C-0.0205788 15.0433 -0.0601179 15.3769 4.11458e-06 15.7C0.101133 15.9985 0.277626 16.2658 0.512389 16.476C0.747151 16.6862 1.03223 16.8323 1.34 16.9C1.9378 17.0764 2.55681 17.1706 3.18 17.18C4.08 17.18 5.01 17.13 5.84 17.12H11.01C10.94 17.55 10.86 17.98 10.8 18.41C10.31 18.71 9.8 19 9.32 19.32C9.06 19.49 8.81 19.67 8.56 19.86C8.31 20.05 8.07 20.25 7.85 20.46C7.3251 20.9773 6.83092 21.5249 6.37 22.1C6.33886 22.1307 6.31413 22.1673 6.29725 22.2076C6.28038 22.248 6.27168 22.2913 6.27168 22.335C6.27168 22.3787 6.28038 22.422 6.29725 22.4624C6.31413 22.5027 6.33886 22.5393 6.37 22.57C6.39984 22.6008 6.43558 22.6254 6.4751 22.6421C6.51461 22.6589 6.55709 22.6675 6.6 22.6675C6.64292 22.6675 6.6854 22.6589 6.72491 22.6421C6.76443 22.6254 6.80017 22.6008 6.83 22.57C7.41 22.16 8.02 21.8 8.62 21.39C8.86 21.22 9.11 21.03 9.35 20.84C9.59 20.65 9.82 20.45 10.05 20.25C10.28 20.05 10.5 19.83 10.72 19.62V20.24C10.72 20.93 10.8 21.6 10.85 22.24C10.8411 22.2944 10.8441 22.35 10.8589 22.4031C10.8736 22.4562 10.8997 22.5055 10.9354 22.5475C10.9711 22.5895 11.0154 22.6232 11.0655 22.6463C11.1155 22.6695 11.1699 22.6814 11.225 22.6814C11.2801 22.6814 11.3345 22.6695 11.3846 22.6463C11.4346 22.6232 11.4789 22.5895 11.5146 22.5475C11.5503 22.5055 11.5764 22.4562 11.5911 22.4031C11.6059 22.35 11.6089 22.2944 11.6 22.24C11.69 21.57 11.82 20.92 11.91 20.24L11.97 19.6C12.2 19.87 12.42 20.15 12.66 20.42L13.17 20.95C13.35 21.13 13.54 21.29 13.73 21.45C14.19 21.82 14.67 22.13 15.14 22.45C15.1698 22.4808 15.2056 22.5054 15.2451 22.5221C15.2846 22.5389 15.3271 22.5475 15.37 22.5475C15.4129 22.5475 15.4554 22.5389 15.4949 22.5221C15.5344 22.5054 15.5702 22.4808 15.6 22.45C15.6322 22.4209 15.6579 22.3854 15.6755 22.3458C15.6931 22.3062 15.7022 22.2633 15.7022 22.22C15.7022 22.1767 15.6931 22.1338 15.6755 22.0942C15.6579 22.0546 15.6322 22.0191 15.6 21.99C15.26 21.49 14.94 20.99 14.6 20.53C14.42 20.34 14.25 20.16 14.07 19.99C13.89 19.82 13.68 19.65 13.49 19.5C13.01 19.13 12.49 18.81 12.04 18.5C12.0114 18.0109 11.958 17.5236 11.88 17.04H15.93H19.12C19.8499 17.0301 20.5783 16.97 21.3 16.86C21.8343 16.8014 22.3478 16.6202 22.8005 16.3305C23.2532 16.0409 23.6329 15.6505 23.91 15.19C24.16 14.59 24 13.77 22.59 13.25Z" fill="black"/>
<path fill-rule="evenodd" clip-rule="evenodd" d="M7.80003 9L9.80003 10.42C9.85872 10.4609 9.92852 10.4828 10 10.4828C10.0715 10.4828 10.1413 10.4609 10.2 10.42C10.2034 10.4921 10.2277 10.5616 10.27 10.62C10.3427 10.6897 10.4394 10.7286 10.54 10.7286C10.6407 10.7286 10.7374 10.6897 10.81 10.62C11.1694 10.3221 11.4661 9.95584 11.683 9.54248C11.8999 9.12912 12.0326 8.67684 12.0736 8.21183C12.1145 7.74682 12.0628 7.27832 11.9214 6.83343C11.78 6.38854 11.5519 5.97611 11.25 5.62C10.7069 4.82765 9.89671 4.25724 8.96762 4.01303C8.03854 3.76883 7.0526 3.86714 6.19003 4.29C5.6421 4.5879 5.16359 4.99863 4.78608 5.49507C4.40858 5.99152 4.14066 6.56239 4.00003 7.17C3.84481 7.77426 3.84406 8.40785 3.99783 9.01247C4.15161 9.61709 4.45498 10.1733 4.88003 10.63C5.44769 11.1957 6.19274 11.5488 6.99003 11.63C7.73593 11.705 8.48905 11.6057 9.19003 11.34C9.27233 11.3104 9.34007 11.2503 9.37918 11.1721C9.41829 11.0939 9.42576 11.0036 9.40003 10.92C9.37663 10.837 9.32167 10.7665 9.24691 10.7235C9.17215 10.6805 9.08354 10.6685 9.00003 10.69C8.39438 10.8742 7.75425 10.9153 7.13003 10.81C6.55372 10.7148 6.02576 10.4297 5.63003 10C5.3058 9.60417 5.12281 9.11152 5.11003 8.6H6.11003C8.00003 8.46 7.32003 8.62 7.80003 9ZM10.37 10C10.3549 9.93155 10.3202 9.86899 10.27 9.82L8.54003 8C8.38367 7.82334 8.21669 7.65636 8.04003 7.5C8.04003 7.5 8.04003 7.5 7.97003 7.5C8.08198 7.29933 8.18215 7.09232 8.27003 6.88C8.34699 6.71422 8.41378 6.54391 8.47003 6.37C8.52279 6.1924 8.56618 6.01215 8.60003 5.83V5.18C9.30507 5.33775 9.93802 5.72456 10.4 6.28C10.8775 6.78336 11.1412 7.45227 11.1356 8.14606C11.13 8.83984 10.8556 9.50441 10.37 10ZM5.20003 7.61C5.19635 7.56341 5.19635 7.5166 5.20003 7.47C5.30825 7.04987 5.50051 6.65603 5.76519 6.31228C6.02988 5.96853 6.36151 5.682 6.74003 5.47C7.00181 5.33091 7.28624 5.23949 7.58003 5.2C7.52003 5.31 7.46003 5.42 7.41003 5.53C7.27506 5.85183 7.1745 6.18703 7.11003 6.53C7.0658 6.79152 7.03576 7.05524 7.02003 7.32C6.79695 7.30502 6.57311 7.30502 6.35003 7.32C5.96134 7.39404 5.57735 7.49087 5.20003 7.61Z" fill="black"/>
<path fill-rule="evenodd" clip-rule="evenodd" d="M14.71 6.50999C14.51 6.50999 14.31 6.50999 14.18 8.36999C14.165 8.58306 14.165 8.79692 14.18 9.00999C14.188 9.22804 14.2114 9.44525 14.25 9.65999C14.49 11.37 14.62 11.54 14.94 11.52C15.26 11.5 15.31 11.31 15.43 9.60999C15.4451 9.39693 15.4451 9.18306 15.43 8.96999C15.4249 8.75552 15.4048 8.54167 15.37 8.32999C15.12 6.47999 14.9 6.49999 14.71 6.50999Z" fill="black"/>
<path fill-rule="evenodd" clip-rule="evenodd" d="M17.71 3.74001C17.6663 3.73727 17.6225 3.74352 17.5814 3.75837C17.5402 3.77323 17.5025 3.79636 17.4707 3.82636C17.4388 3.85635 17.4134 3.89256 17.3961 3.93274C17.3788 3.97293 17.3699 4.01625 17.37 4.06001C17.25 4.89001 17.09 5.70001 17 6.54001C17 6.90001 16.94 7.26001 16.93 7.62001C16.92 7.98001 16.93 8.34001 16.93 8.70001C16.93 9.55001 17.07 10.38 17.18 11.22C17.1876 11.3199 17.2335 11.413 17.3079 11.4801C17.3824 11.5471 17.4798 11.5829 17.58 11.58C17.6295 11.5775 17.678 11.5651 17.7226 11.5434C17.7672 11.5218 17.807 11.4914 17.8397 11.4541C17.8723 11.4168 17.8972 11.3733 17.9127 11.3262C17.9282 11.2791 17.9341 11.2294 17.93 11.18C17.93 10.33 18.07 9.50001 18.13 8.64001C18.13 8.08001 18.2 7.51001 18.2 6.95001C18.2 5.95001 18.08 5.03001 18.02 4.08001C18.0203 3.9948 17.9886 3.91257 17.9312 3.8496C17.8738 3.78664 17.7949 3.74752 17.71 3.74001Z" fill="black"/>
<path fill-rule="evenodd" clip-rule="evenodd" d="M1.07003 13.63C1.06733 13.6728 1.07327 13.7158 1.08751 13.7563C1.10176 13.7968 1.124 13.834 1.15293 13.8657C1.18185 13.8974 1.21686 13.923 1.25588 13.9409C1.29489 13.9588 1.33711 13.9687 1.38003 13.97C1.4237 13.9727 1.46747 13.9665 1.50864 13.9516C1.5498 13.9368 1.58748 13.9136 1.61934 13.8836C1.65121 13.8536 1.67659 13.8174 1.6939 13.7772C1.71122 13.7371 1.72011 13.6937 1.72003 13.65C1.87003 12.17 2.03003 10.65 2.06003 9.20998V6.55998C2.06003 5.22998 1.92003 3.91998 1.90003 2.55998C1.88545 2.47104 1.83974 2.39017 1.77105 2.33181C1.70236 2.27346 1.61516 2.24142 1.52503 2.24142C1.4349 2.24142 1.3477 2.27346 1.27901 2.33181C1.21031 2.39017 1.1646 2.47104 1.15003 2.55998C1.00003 3.85998 0.890027 5.14998 0.840027 6.44998V8.10998V9.76998C0.900027 11.06 1.00003 12.34 1.07003 13.63Z" fill="black"/>
<path fill-rule="evenodd" clip-rule="evenodd" d="M2.21 2.29C2.69 2.35 3.21 2.38 3.67 2.41C4.78 2.41 5.89 2.41 7.02 2.48C9.02 2.57 11.02 2.66 13.02 2.67C14.37 2.67 15.71 2.66999 17.02 2.61L20.79 2.66C20.96 2.66 21.79 2.52 21.66 2.72C21.763 2.96419 21.8206 3.22513 21.83 3.49V5.3V10.39C21.83 11.13 21.83 11.86 21.89 12.59C21.8912 12.6404 21.9027 12.69 21.9237 12.7357C21.9448 12.7815 21.9749 12.8225 22.0124 12.8562C22.0498 12.8899 22.0938 12.9157 22.1415 12.9318C22.1892 12.9479 22.2398 12.9541 22.29 12.95C22.3382 12.9487 22.3856 12.9378 22.4294 12.9179C22.4733 12.898 22.5127 12.8694 22.5454 12.834C22.578 12.7986 22.6032 12.7569 22.6194 12.7116C22.6357 12.6662 22.6427 12.6181 22.64 12.57V10.4C22.7 8.7 22.8 6.99 22.83 5.3C22.9301 4.57066 22.9868 3.83604 23 3.1C22.9624 2.70527 22.8248 2.32665 22.6 2C22.4769 1.82665 22.3018 1.69704 22.1 1.63C21.7118 1.52611 21.3119 1.47234 20.91 1.47C20.15 1.47 19.37 1.39 18.6 1.37H17.04L7 1.57C5.88 1.57 4.77 1.67 3.66 1.68C3.19 1.68 2.72 1.68 2.25 1.63C2.20661 1.62441 2.16255 1.62751 2.12037 1.63911C2.07819 1.65071 2.03874 1.67058 2.00431 1.69757C1.96988 1.72455 1.94116 1.75811 1.91982 1.7963C1.89848 1.83448 1.88494 1.87653 1.88 1.92C1.87588 1.96627 1.8813 2.0129 1.8959 2.057C1.91051 2.1011 1.934 2.14174 1.96492 2.17641C1.99584 2.21109 2.03355 2.23905 2.0757 2.25859C2.11785 2.27812 2.16356 2.28881 2.21 2.29Z" fill="black"/>
</g>
<defs>
<clipPath id="clip0_1031_3150">
<rect width="24" height="24" fill="white"/>
</clipPath>
</defs>
</svg>
