<svg width="24" height="24" viewBox="0 0 24 24" fill="none" xmlns="http://www.w3.org/2000/svg">
<g clip-path="url(#clip0_1031_3141)">
<path fill-rule="evenodd" clip-rule="evenodd" d="M15.5999 2.00001C15.6799 2.41001 15.6599 2.78001 16.0499 2.79001C16.4399 2.80001 16.3999 2.50001 16.6099 2.01001C17.3299 1.88001 17.6099 1.94001 17.6099 1.59001C17.6099 1.24001 17.3099 1.15001 16.7399 0.950012C16.5699 0.0900122 16.4899 -0.0499878 16.2599 -0.0499878C16.0299 -0.0499878 15.9799 0.100012 15.6399 0.780012C14.5799 0.950012 14.4899 1.06001 14.4599 1.27001C14.4299 1.48001 14.4099 1.70001 15.5999 2.00001Z" fill="black"/>
<path fill-rule="evenodd" clip-rule="evenodd" d="M21.53 13.9C21.33 13.39 21.32 13.01 20.96 13.05C20.6 13.09 20.7 13.33 20.54 13.96H20.45C19 14.36 19.07 14.54 19.08 14.69C19.09 14.84 19.26 15.07 20.51 15.16C20.84 16.58 21.13 16.47 21.26 16.46C21.39 16.45 21.65 16.3 21.73 15.05V15C22.73 14.71 22.97 14.72 22.96 14.35C22.95 13.98 22.83 14 21.53 13.9Z" fill="black"/>
<path fill-rule="evenodd" clip-rule="evenodd" d="M5.18999 8.00002C4.88615 8.01644 4.58633 8.07708 4.29999 8.18002C4.16876 8.23906 4.05382 8.32905 3.96499 8.44225C3.87617 8.55546 3.81612 8.68852 3.78999 8.83002C3.70635 9.30875 3.66619 9.79406 3.66999 10.28C3.66999 11.34 3.59999 12.4 3.60999 13.47C3.60999 14.19 3.60999 14.91 3.69999 15.62C3.76999 16.62 3.69999 19.02 3.75999 20.06C3.748 20.2365 3.748 20.4136 3.75999 20.59C3.76872 20.7021 3.80777 20.8097 3.87294 20.9013C3.93811 20.9929 4.02697 21.065 4.12999 21.11C4.66857 21.2262 5.21926 21.2765 5.76999 21.26C7.47999 21.26 10.26 21.2 11.36 21.17L14.31 21.03C14.31 21.03 14.89 21.03 15.1 20.98C15.2152 20.9697 15.3235 20.9205 15.4071 20.8406C15.4906 20.7606 15.5446 20.6547 15.56 20.54C15.5777 20.2069 15.5777 19.8731 15.56 19.54C15.5 18.76 15.37 17.88 15.29 17.3C15.285 17.25 15.2701 17.2015 15.2463 17.1573C15.2224 17.113 15.19 17.074 15.151 17.0424C15.1119 17.0107 15.0669 16.9872 15.0187 16.973C14.9705 16.9589 14.9199 16.9545 14.87 16.96C14.7681 16.9726 14.6753 17.0247 14.6117 17.1052C14.5481 17.1857 14.5187 17.288 14.53 17.39C14.53 17.88 14.66 18.6 14.7 19.29V20.04L14.29 20.13H11.36C10.52 20.13 8.73999 20.13 7.18999 20.07C6.27999 20.07 5.45999 20.07 5.00999 20.01C5.00999 18.94 5.00999 16.5 4.94999 15.51C4.88999 14.82 4.86999 14.13 4.84999 13.44V10.27C4.82999 8.81002 3.99999 9.22002 7.09999 8.94002L13.22 8.54002C13.3102 8.53339 13.394 8.49121 13.4531 8.42276C13.5122 8.35431 13.5416 8.26519 13.535 8.17502C13.5284 8.08485 13.4862 8.001 13.4177 7.94192C13.3493 7.88285 13.2602 7.85339 13.17 7.86002L6.99999 8.00002H5.18999Z" fill="black"/>
<path fill-rule="evenodd" clip-rule="evenodd" d="M2.38998 10.79C2.38998 9.36 2.50998 7.94 2.65998 6.52H2.77998C3.30487 6.42701 3.8369 6.38016 4.36998 6.38C4.71998 6.38 5.07998 6.38 5.43998 6.32C8.10998 6 6.99998 6.37 7.89998 5.13C8.02667 4.9375 8.18567 4.76835 8.36998 4.63C8.57122 4.45998 8.80161 4.32785 9.04998 4.24C9.19475 4.17548 9.35148 4.14214 9.50998 4.14214C9.66848 4.14214 9.8252 4.17548 9.96998 4.24C10.6089 4.62204 11.0829 5.22795 11.3 5.94C11.3127 5.98882 11.3351 6.03462 11.3657 6.07471C11.3963 6.11481 11.4346 6.1484 11.4784 6.17354C11.5221 6.19867 11.5704 6.21484 11.6205 6.2211C11.6706 6.22736 11.7214 6.22359 11.77 6.21C11.8598 6.17411 11.933 6.10615 11.9755 6.0193C12.018 5.93245 12.0267 5.83292 12 5.74C11.929 5.1503 11.7078 4.5887 11.3576 4.10895C11.0074 3.6292 10.54 3.24737 9.99998 3C9.72693 2.91983 9.44024 2.89711 9.15798 2.93325C8.87572 2.96939 8.60401 3.06362 8.35998 3.21C8.07217 3.37867 7.81517 3.5951 7.59998 3.85C7.38014 4.11519 7.20762 4.41626 7.08998 4.74C7.01948 4.93331 6.95939 5.13026 6.90998 5.33C6.50307 5.2242 6.08845 5.15064 5.66998 5.11C5.42705 5.09001 5.1829 5.09001 4.93998 5.11C4.69118 5.13051 4.44398 5.16726 4.19998 5.22C1.94998 5.74 1.67998 5.22 1.19998 11.57C1.12998 12.38 1.09998 13.19 1.09998 14V16.42C1.20998 18.3 1.40998 20.17 1.63998 22.04C1.64371 22.0909 1.65764 22.1405 1.68096 22.1859C1.70428 22.2313 1.73649 22.2715 1.77569 22.3041C1.81488 22.3368 1.86026 22.3612 1.9091 22.376C1.95794 22.3907 2.00925 22.3955 2.05998 22.39C2.15892 22.3776 2.24967 22.3287 2.31442 22.2528C2.37916 22.177 2.41324 22.0797 2.40998 21.98C2.30998 19.75 2.30998 17.52 2.33998 15.28V12.62C2.37998 12 2.37998 11.38 2.38998 10.79Z" fill="black"/>
<path fill-rule="evenodd" clip-rule="evenodd" d="M17.54 14.15C17.5316 14.1059 17.5146 14.064 17.4899 14.0265C17.4652 13.989 17.4333 13.9568 17.3962 13.9317C17.359 13.9066 17.3172 13.8891 17.2732 13.8803C17.2293 13.8714 17.184 13.8713 17.14 13.88C17.0522 13.8993 16.9753 13.9516 16.925 14.026C16.8747 14.1005 16.855 14.1914 16.87 14.28C16.9569 15.3678 16.9736 16.4601 16.92 17.55C16.92 18.27 16.92 18.99 16.87 19.7C16.8405 20.4737 16.7435 21.2433 16.58 22C16.551 22.0982 16.5609 22.2037 16.6074 22.2948C16.6539 22.3859 16.7335 22.4558 16.83 22.49C16.9268 22.5185 17.0309 22.5084 17.1204 22.4618C17.2099 22.4152 17.2778 22.3357 17.31 22.24C17.6847 21.3417 17.9499 20.4016 18.1 19.44C18.1672 19.03 18.204 18.6155 18.21 18.2C18.2348 17.787 18.2348 17.373 18.21 16.96C18.0668 16.006 17.8426 15.066 17.54 14.15Z" fill="black"/>
<path fill-rule="evenodd" clip-rule="evenodd" d="M16.16 22.47C15.377 22.6339 14.5799 22.7209 13.78 22.73C12.55 22.73 11.29 22.73 10.11 22.68C9.49998 22.68 8.89998 22.68 8.29998 22.75C7.39998 22.8 6.49998 22.89 5.59998 22.92H3.67998C3.63528 22.9144 3.58992 22.9178 3.54653 22.9299C3.50315 22.942 3.4626 22.9626 3.42724 22.9905C3.39189 23.0184 3.36243 23.0531 3.34058 23.0925C3.31874 23.1319 3.30494 23.1752 3.29998 23.22C3.29406 23.3081 3.32169 23.3953 3.37733 23.4639C3.43297 23.5325 3.51251 23.5776 3.59998 23.59C4.68551 23.7708 5.78074 23.8877 6.87998 23.94C7.31998 23.94 7.74998 23.94 8.18998 24H10.13C11.34 23.94 12.61 23.92 13.87 23.77C14.7146 23.6705 15.5481 23.4931 16.36 23.24C16.4594 23.212 16.5436 23.1458 16.5942 23.0558C16.6448 22.9658 16.6577 22.8595 16.63 22.76C16.6182 22.7101 16.5967 22.6629 16.5667 22.6213C16.5367 22.5797 16.4988 22.5444 16.4552 22.5175C16.4115 22.4905 16.363 22.4725 16.3123 22.4643C16.2616 22.4562 16.2099 22.4581 16.16 22.47Z" fill="black"/>
<path fill-rule="evenodd" clip-rule="evenodd" d="M19.44 10.67C19.5 10.67 19.54 10.81 19.61 10.88C19.6892 10.9629 19.7802 11.0336 19.88 11.09C20.0157 11.1389 20.1642 11.1389 20.3 11.09C20.3878 11.0672 20.4698 11.026 20.5405 10.9691C20.6111 10.9122 20.6689 10.841 20.71 10.76C20.8264 10.5439 20.8946 10.3051 20.91 10.06C20.9356 9.66043 20.9356 9.25962 20.91 8.86002C20.91 8.39002 20.91 7.92002 20.8 7.46002C20.66 6.38002 20.42 5.33003 20.22 4.26002C20.1921 4.16974 20.1316 4.09308 20.0502 4.04501C19.9689 3.99693 19.8725 3.9809 19.78 4.00002C19.699 4.01294 19.6247 4.05235 19.5686 4.11207C19.5125 4.1718 19.4778 4.24846 19.47 4.33002C18.54 4.55002 17.59 4.62002 16.64 4.77002C16.2 4.85002 15.76 4.95002 15.34 5.06002C14.9176 5.17168 14.511 5.33632 14.13 5.55002C13.9424 5.65046 13.7918 5.8081 13.7 6.00002C13.6707 6.09337 13.6673 6.19291 13.6902 6.28802C13.7131 6.38313 13.7614 6.47023 13.83 6.54002L14.13 6.77002L15.13 7.53003C15.13 7.53003 15.05 7.53003 15.03 7.61002C14.53 8.39003 14.03 9.18002 13.53 9.95002C13.19 10.45 12.84 10.95 12.47 11.42C12.47 11.42 12.24 11.89 12.03 12.18C11.66 11.93 11.3 11.66 10.92 11.41C10.6985 11.2595 10.4681 11.1226 10.23 11C9.98498 10.8573 9.73113 10.7304 9.46997 10.62C9.37827 10.581 9.27963 10.5608 9.17997 10.5608C9.0803 10.5608 8.98166 10.581 8.88997 10.62C8.66893 10.7518 8.47539 10.9249 8.31997 11.13C8.04997 11.47 7.81997 11.93 7.61997 12.2L5.30997 15.67C5.259 15.7432 5.23882 15.8335 5.25378 15.9214C5.26875 16.0093 5.31766 16.0878 5.38997 16.14C5.46472 16.1916 5.55658 16.212 5.64614 16.1971C5.73571 16.1822 5.81596 16.133 5.86997 16.06C6.18997 15.6334 6.5233 15.2134 6.86997 14.8C7.41997 14.18 7.99997 13.58 8.52997 13C8.71997 12.79 8.94997 12.45 9.18997 12.15L9.35997 11.97C9.48997 12.06 9.62997 12.19 9.65997 12.21L11.71 13.53C11.863 13.6031 12.0364 13.6221 12.2016 13.5839C12.3669 13.5458 12.5144 13.4528 12.62 13.32C12.9185 12.9529 13.1956 12.569 13.45 12.17C13.79 11.64 14.12 11.1 14.45 10.54C14.91 9.72002 15.32 8.89002 15.76 8.07002C15.782 8.01956 15.7934 7.96509 15.7934 7.91002C15.7934 7.85496 15.782 7.80049 15.76 7.75002H15.84C15.9035 7.6863 15.9391 7.59999 15.9391 7.51003C15.9391 7.42006 15.9035 7.33375 15.84 7.27002L15.11 6.45002C15.34 6.39002 15.57 6.35002 15.68 6.33002C16.36 6.13002 17.06 5.98002 17.76 5.79002C18.3485 5.6261 18.9263 5.42571 19.49 5.19002L19.62 8.99002V9.66002C19.4921 9.58487 19.3715 9.49781 19.26 9.40002C19.0275 9.21776 18.8132 9.01348 18.62 8.79002C18.596 8.75344 18.5647 8.72218 18.5281 8.69816C18.4915 8.67414 18.4504 8.65788 18.4073 8.65038C18.3642 8.64288 18.32 8.64431 18.2774 8.65457C18.2349 8.66483 18.1949 8.6837 18.16 8.71002C18.0972 8.75284 18.0523 8.81724 18.0338 8.89099C18.0154 8.96474 18.0247 9.04269 18.06 9.11002C17.17 10.25 16.27 11.4 15.33 12.51C14.71 13.24 14.08 13.95 13.4 14.63C11.57 16.41 12.61 15.9 10.67 14.91C10.4353 14.7927 10.1911 14.6957 9.93997 14.62C9.8475 14.5962 9.75085 14.5938 9.6573 14.6128C9.56375 14.6319 9.47576 14.672 9.39997 14.73C8.79541 15.2288 8.22106 15.7631 7.67997 16.33C6.88997 17.17 6.13997 18.06 5.36997 18.89C5.30646 18.9538 5.2708 19.0401 5.2708 19.13C5.2708 19.22 5.30646 19.3063 5.36997 19.37C5.43656 19.4319 5.52408 19.4663 5.61497 19.4663C5.70585 19.4663 5.79337 19.4319 5.85997 19.37C6.67997 18.61 7.49997 17.8 8.36997 17.04C8.8196 16.6386 9.29027 16.2614 9.77997 15.91C9.88997 15.96 10.06 15.99 10.08 16.01C10.47 16.23 10.88 16.58 11.29 16.85C11.5133 16.9983 11.7554 17.116 12.01 17.2C12.1717 17.2572 12.3482 17.2572 12.51 17.2C12.7069 17.0817 12.8942 16.9479 13.07 16.8L14.33 15.53C14.99 14.79 15.6 14.01 16.19 13.22C17 12.11 17.76 10.96 18.53 9.82002C18.59 9.89002 18.63 9.97002 18.69 10.04C18.9232 10.2692 19.174 10.4798 19.44 10.67Z" fill="black"/>
</g>
<defs>
<clipPath id="clip0_1031_3141">
<rect width="24" height="24" fill="white"/>
</clipPath>
</defs>
</svg>
