<svg width="24" height="24" viewBox="0 0 24 24" fill="none" xmlns="http://www.w3.org/2000/svg">
<g clip-path="url(#clip0_1046_5760)">
<path fill-rule="evenodd" clip-rule="evenodd" d="M17.78 19.64C17.61 19.39 17.37 19.16 17.21 18.95C16.84 18.49 16.46 18.02 16.05 17.58C15.7787 17.272 15.4916 16.9783 15.19 16.7C14.9545 16.4664 14.7003 16.2524 14.43 16.06C14.1845 15.8978 13.9029 15.7982 13.61 15.77C13.3742 15.7656 13.1419 15.828 12.94 15.95C12.47 16.21 11.83 16.86 11.24 17.26C11.1187 17.3393 10.9917 17.4095 10.86 17.47C10.79 17.47 10.71 17.54 10.66 17.47L7.45 13.74C7.02 13.26 6.45 12.74 5.91 12.09C5.60594 11.7507 5.36847 11.3572 5.21 10.93C5.21 10.76 5.29 10.6 5.44 10.41C5.86 9.89001 6.57 9.35001 7 8.84001C7.24085 8.6079 7.41964 8.31909 7.52 8.00001C7.53559 7.826 7.49718 7.65142 7.41 7.50001C7.29 7.28001 7.08 7.09001 7 7.00001L5.19 4.65001C5.1369 4.60961 5.07217 4.58741 5.00545 4.58673C4.93872 4.58605 4.87356 4.60692 4.81964 4.64623C4.76572 4.68555 4.72593 4.74121 4.70618 4.80495C4.68642 4.86869 4.68777 4.9371 4.71 5.00001L6.43 7.30001L6.83 7.83001C6.83 8.09001 6.5 8.35001 6.17 8.65001C5.6569 9.07778 5.17562 9.54234 4.73 10.04C4.60401 10.1887 4.51337 10.3641 4.46487 10.5529C4.41637 10.7417 4.41129 10.939 4.45 11.13C4.6255 11.6604 4.9004 12.1525 5.26 12.58C5.75 13.21 6.36 13.81 6.79 14.3L9.88 18.09C10.0233 18.2747 10.2221 18.4084 10.4472 18.4714C10.6723 18.5344 10.9117 18.5234 11.13 18.44C11.7582 18.1585 12.3385 17.7806 12.85 17.32C13.0207 17.1746 13.2011 17.0409 13.39 16.92C13.45 16.92 13.56 16.92 13.56 16.85C13.6893 16.8814 13.8092 16.9431 13.91 17.03C14.1 17.18 14.27 17.35 14.43 17.5C14.59 17.65 14.96 18.03 15.21 18.31C15.46 18.59 15.95 19.19 16.3 19.64C16.44 19.81 16.62 19.99 16.77 20.19C16.8276 20.2631 16.8747 20.3439 16.91 20.43C17.05 20.86 16.67 21.2 16.28 21.5C15.7984 21.8596 15.2566 22.1305 14.68 22.3C12.6855 22.8663 10.5532 22.6886 8.68 21.8C6.77776 20.857 5.09739 19.5209 3.75 17.88C2.01425 16.0157 0.984869 13.6032 0.84 11.06C0.73 7.91001 2.19 5.33001 3.76 4.56001C3.8362 4.51598 3.89301 4.44485 3.91911 4.3608C3.94522 4.27676 3.9387 4.18596 3.90087 4.10651C3.86303 4.02705 3.79665 3.96476 3.71494 3.93205C3.63324 3.89934 3.54222 3.89862 3.46 3.93001C1.69 4.76001 0 7.57001 0 11.08C0.094552 13.8474 1.15609 16.4942 3 18.56C4.4056 20.3503 6.18323 21.8141 8.21 22.85C10.3261 23.877 12.7449 24.094 15.01 23.46C15.8835 23.2023 16.6893 22.755 17.37 22.15C17.6569 21.9122 17.8717 21.5989 17.9901 21.2455C18.1085 20.8921 18.1258 20.5127 18.04 20.15C17.9802 19.9676 17.8925 19.7956 17.78 19.64Z" fill="black"/>
<path fill-rule="evenodd" clip-rule="evenodd" d="M23.69 1.13999C23.5834 0.932695 23.4234 0.757611 23.2265 0.632802C23.0296 0.507992 22.803 0.437979 22.57 0.429987C22.5306 0.420245 22.4894 0.420245 22.45 0.429987C22.2316 0.351834 21.9997 0.318409 21.7681 0.331699C21.5365 0.344989 21.3099 0.404722 21.1019 0.507347C20.8938 0.609971 20.7085 0.75339 20.557 0.929072C20.4055 1.10475 20.2909 1.30911 20.22 1.52999C20.093 1.76022 20.016 2.01465 19.994 2.27666C19.972 2.53867 20.0055 2.80237 20.0923 3.05055C20.1792 3.29874 20.3173 3.52583 20.4979 3.71699C20.6784 3.90816 20.8972 4.05911 21.14 4.15999C21.6649 4.3599 22.2451 4.3599 22.77 4.15999C23.0344 4.06369 23.2739 3.90957 23.4712 3.70888C23.6684 3.5082 23.8183 3.26601 23.91 2.99999C23.9993 2.69096 24.0259 2.36719 23.9881 2.04774C23.9503 1.7283 23.8489 1.41965 23.69 1.13999ZM23 2.62999C22.94 2.74812 22.8554 2.85207 22.7519 2.93485C22.6484 3.01763 22.5284 3.07735 22.4 3.10999C22.135 3.20543 21.845 3.20543 21.58 3.10999C21.4674 3.06583 21.3653 2.9987 21.2801 2.91286C21.1949 2.82702 21.1286 2.72437 21.0853 2.61146C21.042 2.49854 21.0227 2.37784 21.0287 2.25706C21.0347 2.13629 21.0658 2.01808 21.12 1.90999C21.3 1.34999 21.75 0.829987 22.33 1.06999H22.42C22.4627 1.08019 22.5073 1.08019 22.55 1.06999C22.84 1.06999 22.98 1.36999 23.06 1.64999C23.1537 1.97379 23.1325 2.32004 23 2.62999Z" fill="black"/>
<path fill-rule="evenodd" clip-rule="evenodd" d="M17.38 0.350031H17.31C17.2583 0.30759 17.1961 0.279943 17.13 0.270031C16.6188 0.215183 16.1024 0.305282 15.64 0.530031C15.1493 0.736287 14.7314 1.08453 14.44 1.53003C14.2875 1.79407 14.1926 2.08741 14.1615 2.39076C14.1305 2.6941 14.1641 3.00058 14.26 3.29003C14.372 3.60802 14.571 3.88816 14.8345 4.09855C15.0979 4.30894 15.4151 4.44112 15.75 4.48003C16.3413 4.53729 16.9337 4.38123 17.42 4.04003C17.9058 3.72142 18.2607 3.2387 18.42 2.68003C18.5412 2.14915 18.4814 1.59297 18.25 1.10003C18.1652 0.921318 18.044 0.762289 17.8942 0.633136C17.7444 0.503983 17.5693 0.407555 17.38 0.350031ZM17.51 2.43003C17.3772 2.74312 17.1406 3.00091 16.84 3.16003C16.5622 3.33164 16.2338 3.40227 15.91 3.36003C15.7815 3.34552 15.6592 3.29714 15.5555 3.21983C15.4518 3.14252 15.3706 3.03906 15.32 2.92003C15.2004 2.62157 15.2004 2.28849 15.32 1.99003C15.4669 1.67003 15.703 1.3992 16 1.21003C16.2997 1.01493 16.6435 0.898032 17 0.870031C17.0459 0.932404 17.1082 0.980857 17.18 1.01003C17.2888 1.06951 17.3818 1.15406 17.4513 1.25667C17.5209 1.35927 17.565 1.47698 17.58 1.60003C17.6339 1.87785 17.6096 2.16516 17.51 2.43003Z" fill="black"/>
<path fill-rule="evenodd" clip-rule="evenodd" d="M9.54 4.07C10.0694 4.22732 10.6363 4.20267 11.15 4C11.4164 3.89747 11.6577 3.73912 11.8578 3.53559C12.0578 3.33206 12.212 3.08807 12.31 2.82C12.4061 2.51711 12.4335 2.19662 12.3902 1.88181C12.347 1.567 12.2342 1.26578 12.06 1C11.9587 0.839808 11.8241 0.703302 11.6654 0.599769C11.5066 0.496236 11.3274 0.428103 11.14 0.400003C10.699 0.199004 10.2074 0.136251 9.73 0.220003C9.3733 0.285798 9.04724 0.464608 8.8 0.730003C8.59246 0.972857 8.43951 1.25747 8.35152 1.56457C8.26353 1.87167 8.24255 2.19409 8.29 2.51C8.32706 2.86244 8.46456 3.19682 8.68616 3.47337C8.90775 3.74992 9.20412 3.95701 9.54 4.07ZM9.54 1.29C9.60628 1.19509 9.69084 1.11436 9.78871 1.05255C9.88659 0.990731 9.99582 0.949069 10.11 0.930003C10.2787 0.900492 10.4513 0.900492 10.62 0.930003C10.6515 0.991792 10.7006 1.04284 10.7611 1.07667C10.8217 1.11049 10.8909 1.12558 10.96 1.12C11.24 1.12 11.4 1.35 11.49 1.61C11.6008 1.88942 11.6008 2.20059 11.49 2.48C11.4213 2.6042 11.3284 2.71333 11.2167 2.80094C11.1051 2.88854 10.977 2.95284 10.84 2.99C10.5535 3.07986 10.2465 3.07986 9.96 2.99C9.82466 2.94006 9.70558 2.85401 9.61567 2.74119C9.52577 2.62837 9.46847 2.49308 9.45 2.35C9.38687 2.17899 9.35876 1.99702 9.36735 1.81493C9.37594 1.63283 9.42105 1.45432 9.5 1.29H9.54Z" fill="black"/>
</g>
<defs>
<clipPath id="clip0_1046_5760">
<rect width="24" height="24" fill="white"/>
</clipPath>
</defs>
</svg>
