<svg width="24" height="24" viewBox="0 0 24 24" fill="none" xmlns="http://www.w3.org/2000/svg">
<g clip-path="url(#clip0_1046_5754)">
<path fill-rule="evenodd" clip-rule="evenodd" d="M17.8 19.82C17.63 19.58 17.4 19.35 17.23 19.14C16.86 18.67 16.48 18.2 16.08 17.76C15.8052 17.4552 15.5148 17.1648 15.21 16.89C14.9771 16.6536 14.7226 16.4393 14.45 16.25C14.2072 16.0807 13.9247 15.9774 13.63 15.95C13.3942 15.9456 13.1619 16.008 12.96 16.13C12.49 16.4 11.85 17.04 11.26 17.44C11.141 17.5231 11.0136 17.5934 10.88 17.65C10.81 17.65 10.73 17.72 10.68 17.65L7.47 13.92C7.04 13.45 6.47 12.92 5.93 12.28C5.62427 11.9381 5.38668 11.541 5.23 11.11C5.18 10.95 5.31 10.78 5.46 10.59C5.87 10.07 6.59 9.53 7 9C7.24135 8.76542 7.41126 8.46723 7.49 8.14C7.51442 7.96681 7.47915 7.79047 7.39 7.64C7.27 7.44 7.06 7.25 6.96 7.11L5.21 4.83C5.18807 4.79088 5.1579 4.75698 5.1216 4.73064C5.08529 4.70431 5.04369 4.68617 4.99969 4.67747C4.95569 4.66878 4.91032 4.66973 4.86673 4.68028C4.82313 4.69082 4.78234 4.7107 4.74717 4.73854C4.71201 4.76638 4.6833 4.80152 4.66304 4.84153C4.64277 4.88155 4.63143 4.92548 4.6298 4.97031C4.62816 5.01513 4.63628 5.05977 4.65358 5.10116C4.67088 5.14254 4.69695 5.17968 4.73 5.21L6.45 7.51L6.85 8.04C6.71023 8.36921 6.48173 8.6531 6.19 8.86C5.67457 9.28516 5.1931 9.74991 4.75 10.25C4.62204 10.3976 4.53014 10.5728 4.48155 10.762C4.43295 10.9512 4.429 11.149 4.47 11.34C4.6455 11.8704 4.9204 12.3625 5.28 12.79C5.77 13.43 6.38 14.02 6.81 14.51L9.9 18.31C10.0456 18.4916 10.245 18.6224 10.4696 18.6835C10.6943 18.7446 10.9325 18.7329 11.15 18.65C11.7802 18.3723 12.3611 17.994 12.87 17.53C13.06 17.38 13.25 17.23 13.41 17.13C13.57 17.03 13.58 17.13 13.58 17.06C13.7115 17.0911 13.8323 17.1567 13.93 17.25C14.12 17.39 14.29 17.57 14.45 17.71C14.61 17.85 14.98 18.24 15.23 18.52C15.48 18.8 15.97 19.4 16.32 19.85C16.46 20.02 16.64 20.2 16.79 20.4C16.8499 20.4752 16.8971 20.5597 16.93 20.65C17.07 21.08 16.69 21.42 16.3 21.72C15.816 22.0757 15.275 22.3463 14.7 22.52C12.7055 23.0863 10.5732 22.9086 8.7 22.02C6.79681 21.0741 5.11636 19.7345 3.77 18.09C2.02782 16.2179 0.997972 13.7936 0.86 11.24C0.75 8.09 2.2 5.51 3.78 4.74C3.86118 4.69911 3.92327 4.62825 3.95313 4.54239C3.98299 4.45654 3.97828 4.36244 3.94 4.28C3.92169 4.23802 3.89509 4.20017 3.86179 4.16872C3.82849 4.13728 3.78918 4.11289 3.74621 4.09701C3.70325 4.08113 3.65753 4.0741 3.61178 4.07633C3.56603 4.07856 3.52121 4.09002 3.48 4.11C1.71 4.94 0 7.75 0 11.26C0.0979029 14.0267 1.159 16.6724 3 18.74C4.40859 20.5157 6.18185 21.9684 8.2 23C10.3133 24.0371 12.7359 24.2544 15 23.61C15.8795 23.3596 16.6901 22.9116 17.37 22.3C17.6609 22.0656 17.8779 21.7521 17.995 21.3974C18.1121 21.0426 18.1243 20.6615 18.03 20.3C17.976 20.1301 17.8986 19.9685 17.8 19.82Z" fill="black"/>
<path fill-rule="evenodd" clip-rule="evenodd" d="M14.41 12.14C14.5002 12.161 14.595 12.1454 14.6737 12.0967C14.7524 12.048 14.8086 11.9701 14.83 11.88C15.106 11.1244 15.106 10.2956 14.83 9.53998C14.7075 9.206 14.5245 8.8975 14.29 8.62998C14.0488 8.3641 13.7562 8.1498 13.43 7.99998C12.7103 7.6335 11.881 7.54452 11.1 7.74998C11.0606 7.75458 11.0225 7.76689 10.9879 7.78621C10.9532 7.80554 10.9227 7.83149 10.8981 7.8626C10.8735 7.89371 10.8553 7.92936 10.8444 7.96752C10.8336 8.00567 10.8304 8.04559 10.835 8.08498C10.8396 8.12438 10.8519 8.16249 10.8712 8.19713C10.8906 8.23176 10.9165 8.26226 10.9476 8.28686C10.9787 8.31147 11.0144 8.32971 11.0525 8.34054C11.0907 8.35137 11.1306 8.35458 11.17 8.34998C11.78 8.36364 12.3693 8.5741 12.85 8.94998C13.0461 9.09093 13.227 9.25178 13.39 9.42998C13.6875 9.73398 13.9115 10.102 14.0449 10.5058C14.1784 10.9096 14.2177 11.3386 14.16 11.76C14.1474 11.843 14.1659 11.9278 14.2121 11.9979C14.2583 12.0681 14.3288 12.1187 14.41 12.14Z" fill="black"/>
<path fill-rule="evenodd" clip-rule="evenodd" d="M18 6.79998C17.3694 5.8893 16.5246 5.14755 15.54 4.63998C14.6068 4.19179 13.5726 3.9953 12.54 4.06998C11.5484 4.12962 10.5852 4.42441 9.73 4.92998C9.65839 4.96711 9.60447 5.03117 9.58009 5.10806C9.55571 5.18495 9.56287 5.26837 9.6 5.33998C9.63713 5.41159 9.70119 5.46552 9.77808 5.48989C9.85497 5.51427 9.93839 5.50711 10.01 5.46998C10.8042 5.08751 11.6789 4.90227 12.56 4.92998C13.4166 4.95124 14.2534 5.19228 14.99 5.62998C15.7886 6.08227 16.4728 6.71175 16.99 7.46998C17.3978 7.96585 17.7375 8.51405 18 9.09998C18.3212 9.80974 18.4671 10.5863 18.4253 11.3643C18.3835 12.1422 18.1553 12.8987 17.76 13.57C17.7337 13.6072 17.7151 13.6493 17.7054 13.6938C17.6957 13.7383 17.695 13.7843 17.7034 13.829C17.7118 13.8738 17.7291 13.9164 17.7543 13.9544C17.7794 13.9923 17.812 14.0249 17.85 14.05C17.9248 14.1015 18.0166 14.122 18.1062 14.107C18.1957 14.0921 18.276 14.043 18.33 13.97C18.8561 13.2192 19.1919 12.3519 19.3086 11.4426C19.4253 10.5333 19.3194 9.60928 19 8.74998C18.7656 8.05384 18.4285 7.39659 18 6.79998Z" fill="black"/>
<path fill-rule="evenodd" clip-rule="evenodd" d="M23.87 7.45998C23.7799 6.90399 23.6256 6.36034 23.41 5.83998C23.1976 5.32806 22.9399 4.83611 22.64 4.36998C21.916 3.24636 20.9658 2.28594 19.85 1.54998C18.7303 0.830827 17.474 0.350792 16.16 0.139983C13.5768 -0.234332 10.9411 0.206107 8.62 1.39998C8.54598 1.43473 8.48868 1.49731 8.46059 1.5741C8.43249 1.65089 8.43587 1.73567 8.47 1.80998C8.4862 1.84628 8.50944 1.879 8.53839 1.90624C8.56734 1.93347 8.60141 1.95468 8.63863 1.96864C8.67584 1.9826 8.71546 1.98902 8.75518 1.98753C8.7949 1.98605 8.83393 1.97668 8.87 1.95998C11.1042 0.954742 13.5946 0.664839 16 1.12998C17.1587 1.3773 18.2588 1.84586 19.24 2.50998C20.2061 3.17183 21.0319 4.01804 21.67 4.99998C21.9424 5.4006 22.1767 5.82578 22.37 6.26998C22.5645 6.70644 22.712 7.16234 22.81 7.62998C23.0032 8.6754 23.0403 9.74369 22.92 10.8C22.8129 11.8627 22.5396 12.9021 22.11 13.88L20.86 16C20.8171 16.081 20.8077 16.1757 20.8339 16.2636C20.8601 16.3515 20.9197 16.4256 21 16.47C21.0811 16.5129 21.1757 16.5222 21.2636 16.4961C21.3515 16.4699 21.4256 16.4102 21.47 16.33L22.82 14.22C23.3266 13.1801 23.6642 12.0661 23.82 10.92C24.0053 9.77526 24.0221 8.60958 23.87 7.45998Z" fill="black"/>
</g>
<defs>
<clipPath id="clip0_1046_5754">
<rect width="24" height="24" fill="white"/>
</clipPath>
</defs>
</svg>
