<svg width="24" height="24" viewBox="0 0 24 24" fill="none" xmlns="http://www.w3.org/2000/svg">
<g clip-path="url(#clip0_1046_5820)">
<path fill-rule="evenodd" clip-rule="evenodd" d="M22.42 1.73997C22.6737 1.59651 22.906 1.4181 23.11 1.20997C23.32 0.999971 23.46 0.739971 23.6 0.589971C23.6635 0.526243 23.6992 0.439941 23.6992 0.349971C23.6992 0.260002 23.6635 0.1737 23.6 0.109971C23.5363 0.0464632 23.45 0.0108032 23.36 0.0108032C23.27 0.0108032 23.1837 0.0464632 23.12 0.109971C22.8904 0.277068 22.6792 0.468145 22.49 0.679971C22.3 0.889971 22.17 1.14997 22.03 1.29997C21.9765 1.35119 21.9439 1.42037 21.9383 1.49422C21.9328 1.56807 21.9547 1.64135 22 1.69997C22.0243 1.73115 22.0546 1.75704 22.0893 1.77606C22.1239 1.79508 22.162 1.80682 22.2014 1.81056C22.2407 1.81431 22.2804 1.80998 22.318 1.79784C22.3556 1.7857 22.3903 1.76601 22.42 1.73997Z" fill="black"/>
<path fill-rule="evenodd" clip-rule="evenodd" d="M22.89 3.58995C22.6051 3.40987 22.2769 3.3097 21.94 3.29995C21.8618 3.28845 21.7823 3.30825 21.7186 3.35506C21.6549 3.40187 21.6123 3.4719 21.6 3.54995C21.5885 3.62812 21.6083 3.70768 21.6551 3.77134C21.7019 3.835 21.772 3.87762 21.85 3.88995C21.9324 3.91795 22.0099 3.95842 22.08 4.00995C22.2104 4.09359 22.3341 4.1872 22.45 4.28995C22.66 4.43995 22.89 4.56995 23.07 4.70995C23.1007 4.74109 23.1373 4.76582 23.1776 4.7827C23.218 4.79958 23.2613 4.80827 23.305 4.80827C23.3487 4.80827 23.392 4.79958 23.4324 4.7827C23.4727 4.76582 23.5093 4.74109 23.54 4.70995C23.6035 4.64622 23.6392 4.55992 23.6392 4.46995C23.6392 4.37998 23.6035 4.29368 23.54 4.22995C23.3572 3.98473 23.138 3.7689 22.89 3.58995Z" fill="black"/>
<path fill-rule="evenodd" clip-rule="evenodd" d="M18.69 4.63999C18.87 4.46999 19.09 4.33999 19.28 4.16999C19.47 3.99999 19.62 3.80999 19.82 3.64999C19.8538 3.63127 19.8836 3.60599 19.9075 3.57562C19.9314 3.54525 19.949 3.51041 19.9592 3.47314C19.9695 3.43588 19.9721 3.39694 19.9671 3.35862C19.9621 3.32029 19.9495 3.28336 19.93 3.24999C19.8885 3.18294 19.823 3.13424 19.7468 3.1138C19.6706 3.09336 19.5895 3.10273 19.52 3.13999C19.246 3.23692 18.9869 3.37155 18.75 3.53999C18.5375 3.72926 18.3494 3.94425 18.19 4.17999C18.1265 4.24371 18.0908 4.33002 18.0908 4.41999C18.0908 4.50996 18.1265 4.59626 18.19 4.65999C18.2239 4.69198 18.2638 4.71688 18.3075 4.73322C18.3512 4.74956 18.3976 4.75702 18.4442 4.75516C18.4908 4.75329 18.5365 4.74215 18.5787 4.72237C18.6209 4.70259 18.6588 4.67458 18.69 4.63999Z" fill="black"/>
<path fill-rule="evenodd" clip-rule="evenodd" d="M19.16 1.09995C19.31 1.26995 19.5 1.39995 19.6 1.51995C19.6197 1.55411 19.6459 1.58405 19.6772 1.60807C19.7084 1.63209 19.7441 1.64971 19.7822 1.65993C19.8203 1.67014 19.86 1.67276 19.8991 1.66761C19.9382 1.66247 19.9759 1.64967 20.01 1.62995C20.0773 1.58855 20.1256 1.52227 20.1443 1.4455C20.163 1.36874 20.1507 1.28769 20.11 1.21995C20.0367 0.986508 19.9252 0.766854 19.78 0.569948C19.6179 0.378268 19.4211 0.218825 19.2 0.0999482C19.1642 0.0733938 19.1235 0.0543563 19.0801 0.0439832C19.0368 0.03361 18.9918 0.032116 18.9479 0.0395911C18.904 0.0470663 18.8621 0.0633558 18.8246 0.0874779C18.7872 0.1116 18.755 0.143055 18.73 0.179948C18.678 0.251915 18.6562 0.341377 18.6693 0.429207C18.6823 0.517036 18.7293 0.596263 18.8 0.649948C18.91 0.749948 19 0.939948 19.16 1.09995Z" fill="black"/>
<path fill-rule="evenodd" clip-rule="evenodd" d="M21.5 10V7.75V5.62C21.5 5.54044 21.4684 5.46413 21.4121 5.40787C21.3559 5.35161 21.2796 5.32 21.2 5.32C21.1204 5.32 21.0441 5.35161 20.9879 5.40787C20.9316 5.46413 20.9 5.54044 20.9 5.62L20.83 7.67C20.76 8.67 20.72 9.67 20.69 10.67C20.64 12.15 20.61 13.6 20.56 15.19C20.56 16.32 20.5 17.48 20.44 18.64C20.39 19.4 20.33 20.16 20.23 20.9C20.2121 21.1024 20.1478 21.2979 20.042 21.4714C19.9362 21.6448 19.7918 21.7915 19.62 21.9C18.9177 22.216 18.1482 22.3534 17.38 22.3L11.75 22.4C11.21 22.4 10.23 22.45 9.38 22.4C8.93133 22.426 8.48437 22.3255 8.09 22.11C7.87566 21.9007 7.72042 21.6386 7.64 21.35C7.54076 20.9803 7.47714 20.6019 7.45 20.22C8.28643 19.8047 9.06613 19.2837 9.77 18.67C10.3065 18.2504 10.6639 17.6428 10.77 16.97C10.8497 16.4594 10.7535 15.937 10.4973 15.4882C10.2412 15.0394 9.84014 14.691 9.36 14.5C8.88484 14.3503 8.37516 14.3503 7.9 14.5V11.61C7.9 10.15 8.05 8.61 8.12 7.38C8.19 6.15 8.23 4.98 8.24 4.55C8.23683 4.19463 8.26696 3.83975 8.33 3.49C8.36734 3.22478 8.49023 2.979 8.68 2.79C8.90582 2.61449 9.1641 2.48535 9.44 2.41C9.44 2.41 9.44 2.51 9.44 2.57C9.49 2.85 9.59 3.17 9.62 3.4C9.70385 3.78009 9.83137 4.1492 10 4.5C10.1436 4.85172 10.3247 5.18699 10.54 5.5C10.6471 5.62038 10.7914 5.70137 10.95 5.73C11.355 5.8092 11.7676 5.84275 12.18 5.83H13.35C14 5.83 14.64 5.7 15.09 5.63C15.54 5.56 15.82 5.52 16.19 5.49C16.4229 5.47029 16.6571 5.47029 16.89 5.49C16.9334 5.49558 16.9775 5.49248 17.0196 5.48088C17.0618 5.46928 17.1013 5.44941 17.1357 5.42243C17.1701 5.39544 17.1988 5.36188 17.2202 5.3237C17.2415 5.28551 17.2551 5.24346 17.26 5.2C17.2751 5.15403 17.2802 5.10538 17.2749 5.05729C17.2697 5.0092 17.2542 4.96278 17.2296 4.92113C17.205 4.87948 17.1718 4.84356 17.1322 4.81578C17.0926 4.78799 17.0475 4.76898 17 4.76C16.7349 4.72138 16.4678 4.69801 16.2 4.69H15.04H13.22C10.97 4.69 11.41 4.94 10.87 4.06C10.7007 3.80463 10.5566 3.53334 10.44 3.25C10.38 3.02 10.22 2.72 10.13 2.43C10.1212 2.37368 10.1212 2.31632 10.13 2.26C10.7892 2.13408 11.4588 2.07047 12.13 2.07L15.84 2L17.51 1.93C17.6002 1.93 17.6867 1.89418 17.7504 1.83042C17.8142 1.76665 17.85 1.68017 17.85 1.59C17.85 1.49983 17.8142 1.41335 17.7504 1.34958C17.6867 1.28582 17.6002 1.25 17.51 1.25H15.83L12.15 1.17C11.3244 1.12274 10.4961 1.16634 9.68 1.3C9.07057 1.39023 8.49319 1.6308 8 2C7.68474 2.2616 7.45202 2.60893 7.33 3C7.19548 3.50543 7.13154 4.02704 7.14 4.55V9.6V9.96C6.18755 9.91682 5.23836 10.099 4.36956 10.4917C3.50076 10.8844 2.73688 11.4765 2.14 12.22C1.47619 12.9758 0.969655 13.8562 0.65 14.81C0.334513 15.7766 0.222164 16.7979 0.32 17.81C0.423205 18.8534 0.61048 19.8867 0.88 20.9C1.15188 21.9028 1.52723 22.8747 2 23.8C2.01837 23.8407 2.04458 23.8774 2.07715 23.908C2.10971 23.9386 2.14798 23.9625 2.18977 23.9783C2.23156 23.994 2.27605 24.0014 2.32071 24C2.36536 23.9986 2.40929 23.9884 2.45 23.97C2.53047 23.9311 2.59237 23.862 2.62232 23.7778C2.65226 23.6936 2.64784 23.601 2.61 23.52C2.23134 22.5985 1.94982 21.6399 1.77 20.66C1.57685 19.6707 1.46315 18.6675 1.43 17.66C1.39052 16.8023 1.50916 15.9447 1.78 15.13C2.03355 14.3043 2.42951 13.5293 2.95 12.84C3.4286 12.1581 4.05873 11.5965 4.79093 11.1992C5.52313 10.8018 6.33747 10.5796 7.17 10.55C7.17 11.99 7.25 13.44 7.35 14.65V14.71C6.7319 15.0299 6.20798 15.5056 5.83 16.09C5.80702 16.1222 5.7906 16.1586 5.78168 16.1971C5.77276 16.2356 5.77151 16.2755 5.77801 16.3145C5.78451 16.3535 5.79863 16.3908 5.81956 16.4244C5.84049 16.4579 5.86783 16.487 5.9 16.51C5.93217 16.533 5.96856 16.5494 6.00708 16.5583C6.0456 16.5672 6.0855 16.5685 6.1245 16.562C6.1635 16.5555 6.20084 16.5414 6.23438 16.5204C6.26792 16.4995 6.29702 16.4722 6.32 16.44C6.57853 16.0744 6.91985 15.7751 7.31609 15.5666C7.71233 15.358 8.15227 15.2461 8.6 15.24C9.29 15.24 9.74 15.84 9.6 16.91C9.6 17.37 9.12 17.78 8.6 18.19C7.78636 18.8203 6.93108 19.3949 6.04 19.91C5.80895 20.1279 5.63722 20.4011 5.54099 20.7038C5.44477 21.0065 5.42722 21.3287 5.49 21.64C5.54821 22.4431 5.87998 23.2019 6.43 23.79C6.49763 23.8497 6.5862 23.88 6.67621 23.8744C6.76623 23.8688 6.85033 23.8276 6.91 23.76C6.96967 23.6924 7.00004 23.6038 6.99441 23.5138C6.98878 23.4238 6.94763 23.3397 6.88 23.28C6.56223 22.8827 6.37378 22.3976 6.34 21.89C6.28331 21.596 6.28331 21.294 6.34 21C6.34 20.87 6.4 20.77 6.49 20.72L6.72 20.6C6.73907 20.9372 6.78929 21.272 6.87 21.6C6.97583 22.0179 7.18964 22.4007 7.49 22.71C7.8745 23.0054 8.33659 23.1826 8.82 23.22C9.76372 23.3142 10.7116 23.3609 11.66 23.36C12.46 23.36 13.39 23.42 14.5 23.44H17.33C18.2971 23.4988 19.2635 23.3131 20.14 22.9C20.462 22.7068 20.7339 22.4404 20.9337 22.1224C21.1335 21.8045 21.2556 21.4439 21.29 21.07C21.39 20.3 21.46 19.51 21.49 18.72C21.54 17.54 21.49 16.36 21.49 15.22C21.57 13.38 21.51 11.7 21.5 10Z" fill="black"/>
<path fill-rule="evenodd" clip-rule="evenodd" d="M17.47 13.37C17.7911 12.6238 17.9184 11.8085 17.84 11C17.7958 10.4391 17.5948 9.90203 17.26 9.44997C17.101 9.2725 16.9154 9.1207 16.71 8.99997C16.4016 8.80895 16.0637 8.6704 15.71 8.58997C15.4766 8.52323 15.2395 8.46981 15 8.42997C14.8203 8.41508 14.6397 8.41508 14.46 8.42997C14.1267 8.35923 13.7802 8.38349 13.46 8.49997C12.8104 8.74905 12.2257 9.14225 11.75 9.64997C11.2788 10.1793 10.9668 10.831 10.85 11.53C10.7164 12.2311 10.7681 12.955 11 13.63C11.2254 14.184 11.6077 14.6602 12.1 15C12.4105 15.1938 12.7473 15.342 13.1 15.44C12.75 15.59 12.39 15.75 12.17 15.87C12.1337 15.8862 12.101 15.9094 12.0737 15.9384C12.0465 15.9673 12.0253 16.0014 12.0113 16.0386C11.9974 16.0758 11.991 16.1154 11.9925 16.1552C11.9939 16.1949 12.0033 16.2339 12.02 16.27C12.0527 16.3408 12.1118 16.396 12.1846 16.424C12.2574 16.452 12.3382 16.4506 12.41 16.42C12.61 16.35 12.93 16.26 13.26 16.18C13.5329 16.113 13.8103 16.0662 14.09 16.04C14.3904 15.9879 14.6962 15.9745 15 16C15.3019 16.0406 15.5997 16.1075 15.89 16.2C16.5174 16.3874 17.1187 16.6528 17.68 16.99C17.9297 17.1247 18.1643 17.2856 18.38 17.47C18.5997 17.6363 18.7892 17.8393 18.94 18.07C18.9826 18.1494 19.0542 18.2093 19.1399 18.2373C19.2256 18.2652 19.3188 18.259 19.4 18.22C19.4796 18.1775 19.539 18.1052 19.5653 18.019C19.5915 17.9327 19.5824 17.8395 19.54 17.76C19.3915 17.4401 19.1923 17.1463 18.95 16.89C18.7147 16.6378 18.4606 16.4038 18.19 16.19C17.5973 15.7351 16.94 15.3711 16.24 15.11L15.94 15.03C16.6161 14.6567 17.153 14.0742 17.47 13.37ZM11.93 13.18C11.7276 12.69 11.6586 12.1552 11.73 11.63C11.771 11.0932 11.9654 10.5795 12.29 10.15C13.29 8.93997 13.96 8.78997 15.54 9.29997C15.7578 9.36648 15.9661 9.46058 16.16 9.57997C16.3345 9.68753 16.4844 9.83063 16.6 9.99997C16.8682 10.422 16.9846 10.9229 16.93 11.42C16.9064 11.9449 16.7735 12.4592 16.54 12.93C16.2945 13.4199 15.9033 13.8217 15.42 14.08C14.9396 14.339 14.3934 14.4503 13.85 14.4C13.4424 14.3647 13.0503 14.2271 12.71 14C12.3723 13.8127 12.1001 13.5266 11.93 13.18Z" fill="black"/>
</g>
<defs>
<clipPath id="clip0_1046_5820">
<rect width="24" height="24" fill="white"/>
</clipPath>
</defs>
</svg>
