<svg width="24" height="24" viewBox="0 0 24 24" fill="none" xmlns="http://www.w3.org/2000/svg">
<g clip-path="url(#clip0_1046_5785)">
<path fill-rule="evenodd" clip-rule="evenodd" d="M22.63 3.67998C22.4802 2.66881 22.0147 1.73083 21.3 0.999977C20.6527 0.524006 19.8895 0.230465 19.09 0.149977C17.4284 -0.0126449 15.7568 -0.0460786 14.09 0.0499774H8.39001C7.12951 0.0133535 5.86876 0.113945 4.63001 0.349977C3.74913 0.513033 2.91965 0.883215 2.21001 1.42998C1.77591 1.82813 1.4638 2.34137 1.31001 2.90998C1.12511 3.66204 1.04436 4.43594 1.07001 5.20998V16.28C1.07001 19.28 1.19001 22.08 1.32001 23.67C1.333 23.7414 1.37064 23.806 1.42638 23.8525C1.48212 23.899 1.55241 23.9245 1.62501 23.9245C1.69761 23.9245 1.76791 23.899 1.82364 23.8525C1.87938 23.806 1.91702 23.7414 1.93001 23.67C1.82001 22.08 1.80001 19.28 1.83001 16.32V13.71L7.59001 13.63L12.14 13.46C12.5424 13.4441 12.9375 13.3474 13.3017 13.1756C13.6659 13.0038 13.9918 12.7604 14.26 12.46C14.7964 11.8622 15.0859 11.083 15.07 10.28C15.07 9.19998 14.98 6.71998 14.95 4.47998C15 3.18998 15 1.99998 15 1.16998C16.0792 1.1102 17.1608 1.1102 18.24 1.16998C19.0622 1.15748 19.8719 1.37202 20.58 1.78998C21.2861 2.61175 21.6948 3.64746 21.74 4.72998C21.9462 6.49203 22.003 8.26835 21.91 10.04C21.91 11.29 21.85 12.68 21.84 14.13V23.64C21.84 23.7302 21.8758 23.8166 21.9396 23.8804C22.0034 23.9442 22.0898 23.98 22.18 23.98C22.2711 23.98 22.3587 23.9445 22.424 23.881C22.4894 23.8175 22.5274 23.7311 22.53 23.64C22.58 20.81 22.59 17.34 22.66 14.14C22.66 12.71 22.74 11.33 22.81 10.08C22.996 7.94681 22.9356 5.79932 22.63 3.67998ZM14.16 4.44998C14.08 6.69998 14 9.18998 14 10.27C14.0112 10.7877 13.8212 11.2895 13.47 11.67C13.1172 12.0363 12.638 12.2544 12.13 12.28L7.62001 12.63L1.89001 13.06C2.00001 9.58998 2.00001 6.41998 2.08001 5.22998C2.07394 4.55515 2.15802 3.88254 2.33001 3.22998C2.42879 2.84782 2.63327 2.50124 2.92001 2.22998C3.51189 1.80498 4.19831 1.53041 4.92001 1.42998C6.07771 1.22138 7.25444 1.13757 8.43001 1.17998H14.17H14.34C14.26 1.99998 14.21 3.19998 14.16 4.44998Z" fill="black"/>
<path fill-rule="evenodd" clip-rule="evenodd" d="M5.49002 7.61C5.40701 7.59954 5.32302 7.59954 5.24002 7.61C4.92838 7.63098 4.62958 7.74217 4.38002 7.93C4.12214 8.12501 3.92121 8.38554 3.79811 8.6845C3.67501 8.98346 3.63423 9.30994 3.68002 9.63C3.71444 9.87954 3.8165 10.1149 3.97515 10.3106C4.1338 10.5062 4.34298 10.6547 4.58002 10.74C4.77639 10.8096 4.98191 10.85 5.19002 10.86C5.38957 10.8629 5.58844 10.836 5.78002 10.78C6.15047 10.6691 6.49191 10.4779 6.78002 10.22C7.01603 10.0128 7.18053 9.73628 7.25002 9.43C7.30909 9.17877 7.30532 8.91685 7.23904 8.66742C7.17276 8.418 7.04601 8.18876 6.87002 8C6.69916 7.81289 6.47943 7.67724 6.2356 7.60833C5.99177 7.53942 5.73354 7.54 5.49002 7.61ZM6.32002 9.14C6.25841 9.27216 6.15219 9.37839 6.02002 9.44C5.85038 9.54164 5.66423 9.61271 5.47002 9.65C5.38439 9.669 5.29564 9.669 5.21002 9.65C5.13073 9.66513 5.0493 9.66513 4.97002 9.65C4.88535 9.62815 4.81018 9.57917 4.756 9.51054C4.70182 9.44191 4.67162 9.35742 4.67002 9.27C4.64128 9.00851 4.71673 8.74624 4.88002 8.54C4.97717 8.43226 5.0966 8.34696 5.23002 8.29C5.31002 8.29 5.39002 8.23 5.46002 8.29C5.4871 8.31844 5.51968 8.34108 5.55578 8.35655C5.59188 8.37202 5.63074 8.38 5.67002 8.38C5.70929 8.38 5.74816 8.37202 5.78425 8.35655C5.82035 8.34108 5.85293 8.31844 5.88002 8.29C6.01607 8.33694 6.13464 8.42413 6.22002 8.54C6.28598 8.62343 6.32974 8.72221 6.34723 8.82713C6.36471 8.93204 6.35535 9.03968 6.32002 9.14Z" fill="black"/>
<path fill-rule="evenodd" clip-rule="evenodd" d="M11.76 7.66996C11.5053 7.49539 11.2117 7.38588 10.9049 7.35101C10.5981 7.31615 10.2874 7.35699 10 7.46996H9.95002C9.62862 7.56385 9.34478 7.7562 9.13848 8.01991C8.93217 8.28363 8.81379 8.60542 8.80002 8.93996C8.75851 9.15424 8.76272 9.37488 8.81238 9.58741C8.86204 9.79995 8.95603 9.99961 9.08819 10.1733C9.22036 10.347 9.38772 10.4908 9.57931 10.5954C9.77091 10.6999 9.98243 10.7628 10.2 10.78C10.3718 10.7798 10.5429 10.7596 10.71 10.72C10.921 10.6568 11.1228 10.566 11.31 10.45C11.5717 10.2978 11.8051 10.1016 12 9.86996C12.2127 9.60047 12.3383 9.27259 12.36 8.92997C12.3769 8.68606 12.3306 8.44191 12.2255 8.22117C12.1204 8.00043 11.96 7.81056 11.76 7.66996ZM11.34 8.80997C11.3161 8.91304 11.2681 9.009 11.2 9.08996C11.07 9.2438 10.9101 9.36967 10.73 9.45996L10.24 9.62997C9.76002 9.62997 9.64002 9.12996 9.72002 8.72996C9.73546 8.60831 9.77865 8.49183 9.84628 8.38953C9.9139 8.28722 10.0041 8.20184 10.11 8.13997H10.22C10.3652 8.10167 10.5167 8.09434 10.6649 8.11846C10.8131 8.14258 10.9545 8.19761 11.08 8.27996C11.172 8.33153 11.2461 8.40984 11.2925 8.50449C11.339 8.59915 11.3555 8.70568 11.34 8.80997Z" fill="black"/>
<path fill-rule="evenodd" clip-rule="evenodd" d="M6.64001 3.07995C6.60693 3.06535 6.57117 3.0578 6.53501 3.0578C6.49886 3.0578 6.46309 3.06535 6.43001 3.07995C6.4062 3.01028 6.3559 2.9528 6.29001 2.91995C6.05168 2.76087 5.77156 2.67596 5.48501 2.67596C5.19847 2.67596 4.91835 2.76087 4.68001 2.91995C4.43068 3.07311 4.22687 3.29019 4.08971 3.54867C3.95256 3.80715 3.88706 4.09762 3.90001 4.38995C3.92157 4.65033 4.01505 4.8996 4.17001 5.10995C4.36812 5.37752 4.62462 5.5964 4.92001 5.74995C5.3343 5.96981 5.81581 6.02688 6.27001 5.90995C6.71595 5.78951 7.09666 5.49859 7.33001 5.09995C7.44074 4.91812 7.50585 4.7122 7.51978 4.49977C7.53371 4.28733 7.49605 4.07468 7.41001 3.87995C7.26176 3.52681 6.98723 3.24159 6.64001 3.07995ZM6.55001 4.56995C6.48131 4.64975 6.39716 4.71481 6.30264 4.76121C6.20811 4.80762 6.10517 4.8344 6.00001 4.83995C5.81501 4.87109 5.62491 4.83941 5.46001 4.74995C5.33236 4.68382 5.21728 4.59582 5.12001 4.48995C5.05846 4.42267 5.0169 4.33956 5.00001 4.24995C4.96358 4.12713 4.96206 3.9966 4.99562 3.87297C5.02917 3.74934 5.09649 3.63749 5.19001 3.54995C5.29606 3.44915 5.42961 3.38205 5.57379 3.35714C5.71796 3.33222 5.86628 3.35059 6.00001 3.40995C6.05249 3.4235 6.10754 3.4235 6.16001 3.40995C6.16966 3.46106 6.19091 3.50927 6.22211 3.55087C6.25332 3.59248 6.29365 3.62638 6.34001 3.64995C6.49865 3.75969 6.61229 3.92305 6.66001 4.10995C6.68505 4.1894 6.68804 4.27415 6.66866 4.35517C6.64929 4.43618 6.60828 4.51042 6.55001 4.56995Z" fill="black"/>
<path fill-rule="evenodd" clip-rule="evenodd" d="M11.78 5.10996C12.0246 4.80702 12.1495 4.42486 12.131 4.03596C12.1126 3.64705 11.9521 3.27843 11.68 2.99996C11.646 2.962 11.6044 2.93167 11.5579 2.91099C11.5113 2.8903 11.4609 2.87973 11.41 2.87996C11.2641 2.73847 11.089 2.63067 10.897 2.56416C10.705 2.49766 10.5008 2.47406 10.2986 2.49503C10.0965 2.51601 9.90145 2.58105 9.72718 2.68556C9.55291 2.79008 9.40368 2.93153 9.29 3.09996C9.01775 3.43597 8.88647 3.86449 8.92377 4.29533C8.96107 4.72617 9.16405 5.12575 9.49 5.40996C9.65652 5.54914 9.85009 5.65229 10.0585 5.71288C10.2669 5.77347 10.4856 5.7902 10.7008 5.76201C10.916 5.73382 11.123 5.66132 11.3087 5.54909C11.4945 5.43686 11.6549 5.28734 11.78 5.10996ZM10.2 3.43996C10.3069 3.32475 10.4518 3.25215 10.6081 3.2356C10.7644 3.21905 10.9214 3.25968 11.05 3.34996H11.14C11.207 3.43253 11.2566 3.52777 11.2859 3.62998C11.3152 3.73218 11.3235 3.83925 11.3105 3.94476C11.2974 4.05027 11.2632 4.15205 11.2098 4.24402C11.1565 4.33598 11.0851 4.41624 11 4.47996C10.9494 4.53578 10.8876 4.58038 10.8187 4.6109C10.7499 4.64143 10.6753 4.6572 10.6 4.6572C10.5246 4.6572 10.4501 4.64143 10.3812 4.6109C10.3124 4.58038 10.2506 4.53578 10.2 4.47996C10.1303 4.42209 10.0757 4.34819 10.0409 4.26459C10.0061 4.18098 9.99203 4.09018 10 3.99996C9.99615 3.79516 10.0673 3.596 10.2 3.43996Z" fill="black"/>
</g>
<defs>
<clipPath id="clip0_1046_5785">
<rect width="24" height="24" fill="white"/>
</clipPath>
</defs>
</svg>
