<svg width="24" height="24" viewBox="0 0 24 24" fill="none" xmlns="http://www.w3.org/2000/svg">
<g clip-path="url(#clip0_1046_5815)">
<path fill-rule="evenodd" clip-rule="evenodd" d="M23.91 7.17002C23.882 7.1413 23.8486 7.11846 23.8117 7.10287C23.7748 7.08728 23.7351 7.07925 23.695 7.07925C23.6549 7.07925 23.6152 7.08728 23.5783 7.10287C23.5414 7.11846 23.508 7.1413 23.48 7.17002C23 7.59002 22.39 8.00002 21.8 8.54002C21.4861 8.8295 21.1889 9.13667 20.91 9.46002C20.76 9.61002 20.62 9.78002 20.48 9.95002C20.364 9.68344 20.2015 9.43964 20 9.23002C19.6046 8.80126 19.1618 8.4188 18.68 8.09002L14.52 5.00002C14.5255 4.95891 14.522 4.9171 14.51 4.87743C14.4979 4.83775 14.4774 4.80112 14.45 4.77002C14.3939 4.71505 14.3185 4.68427 14.24 4.68427C14.1615 4.68427 14.0861 4.71505 14.03 4.77002L12.26 6.20002C11.68 6.71002 11.1 7.20002 10.54 7.77002C10.2016 8.01747 9.89877 8.3102 9.64 8.64002C9.48986 8.84805 9.42542 9.10582 9.46 9.36002C9.51181 9.69558 9.642 10.0142 9.84 10.29C10.0939 10.6473 10.3783 10.9819 10.69 11.29L11.07 11.69C10.9922 11.8507 10.8911 11.9989 10.77 12.13C10.54 12.37 10.28 12.58 10.06 12.79L7.86 15C7.7 15.17 7.55 15.37 7.37 15.53C7.26657 15.6226 7.13763 15.6819 7 15.7C5.94277 15.5922 4.89812 15.3846 3.88 15.08C3.32769 14.973 2.75751 15.0039 2.22 15.17C2.02975 15.2326 1.85325 15.3311 1.7 15.46C1.41831 15.6901 1.15732 15.9444 0.919999 16.22C0.779999 16.36 0.559999 16.52 0.399999 16.68C0.293566 16.7745 0.199488 16.882 0.119999 17C0.0337611 17.1723 -0.0111389 17.3623 -0.0111389 17.555C-0.0111389 17.7477 0.0337611 17.9377 0.119999 18.11C0.389568 18.5799 0.726473 19.0078 1.12 19.38C1.44 19.74 1.78 20.09 2.12 20.38C2.91 21.15 3.75 21.89 4.54 22.65C4.82545 22.987 5.14 23.2982 5.48 23.58C5.72056 23.7651 6.01648 23.8638 6.32 23.86C6.84129 23.8129 7.34118 23.6302 7.77 23.33C8.58466 22.736 9.34136 22.0664 10.03 21.33L17.62 13.99L19.74 11.75C19.9523 11.5556 20.1527 11.3486 20.34 11.13C20.79 10.81 21.21 10.5 21.59 10.19L22.2 9.64002C22.4 9.44002 22.59 9.24002 22.76 9.04002C23.2 8.50002 23.53 7.98002 23.89 7.50002C23.9253 7.45302 23.946 7.39669 23.9496 7.33803C23.9531 7.27936 23.9394 7.22094 23.91 7.17002ZM3 19.65C2.67 19.32 2.34 19 2 18.65C1.88 18.51 1.66 18.3 1.47 18.06C1.361 17.9347 1.26703 17.7971 1.19 17.65V17.54L1.7 17C1.88 16.81 2.07 16.59 2.27 16.4C2.36211 16.3174 2.46674 16.2499 2.58 16.2C2.9489 16.0857 3.33988 16.0617 3.72 16.13C4.81684 16.4185 5.9385 16.6026 7.07 16.68C7.29811 16.6601 7.51787 16.5846 7.71 16.46C8.02576 16.2259 8.30834 15.9501 8.55 15.64L10.66 13.42C10.89 13.19 11.17 12.95 11.4 12.69C11.5779 12.4871 11.723 12.2577 11.83 12.01C11.9095 11.8145 11.9095 11.5956 11.83 11.4C11.6775 11.1503 11.4849 10.9273 11.26 10.74C10.9706 10.4682 10.7031 10.1739 10.46 9.86002C10.3248 9.67862 10.2294 9.47077 10.18 9.25002C10.1769 9.18947 10.1879 9.12902 10.2122 9.07347C10.2365 9.01792 10.2734 8.96881 10.32 8.93002C10.5313 8.6947 10.7585 8.47418 11 8.27002C11.55 7.74002 12.11 7.21002 12.68 6.69002C13.25 6.17002 13.59 5.86002 14.05 5.46002L17.86 8.46002C17.64 8.67002 17.43 8.89002 17.21 9.09002C15.87 10.36 14.47 11.55 13.15 12.83C12.71 13.28 12.27 13.74 11.85 14.21C10.85 15.3 9.96 16.42 8.94 17.47C7.92 18.52 7.02 19.27 6.09 20.21C5.69945 20.6092 5.33535 21.0335 5 21.48C4.28 20.89 3.6 20.28 3 19.65ZM17 13.42L9.3 20.61C8.72884 21.1912 8.12449 21.7388 7.49 22.25C7.15661 22.5413 6.74744 22.732 6.31 22.8C6.18 22.8 6.08 22.67 5.97 22.57C5.86 22.47 5.58 22.12 5.41 21.95H5.48C5.84818 21.5386 6.24232 21.1511 6.66 20.79C7.66 19.9 8.75 19.09 9.66 18.21C10.1333 17.77 10.5833 17.32 11.01 16.86C12.01 15.79 12.94 14.67 14.01 13.61L18.4 8.86002C18.7654 9.13365 19.1006 9.4454 19.4 9.79002C19.5942 10.005 19.7196 10.2732 19.76 10.56C19.76 10.67 19.68 10.75 19.61 10.83C19.54 10.91 19.27 11.14 19.14 11.27L17 13.42Z" fill="black"/>
<path fill-rule="evenodd" clip-rule="evenodd" d="M9.23 4.42999C8.93142 4.59577 8.66949 4.82028 8.46 5.08999C8.26928 5.34422 8.11449 5.62351 8 5.91999C7.90533 6.12411 7.82514 6.33463 7.76 6.54999C7.70757 6.71226 7.67402 6.88004 7.66 7.04999C7.65286 7.08945 7.6537 7.12994 7.66248 7.16906C7.67125 7.20819 7.68778 7.24516 7.71108 7.27779C7.73439 7.31042 7.764 7.33804 7.79817 7.35903C7.83233 7.38002 7.87036 7.39395 7.91 7.39999C7.98935 7.41169 8.07014 7.39218 8.13541 7.34557C8.20068 7.29895 8.24533 7.22885 8.26 7.14999C8.29331 7.04356 8.34773 6.94493 8.42 6.85999C8.53285 6.70167 8.65647 6.55131 8.79 6.40999C8.95329 6.22058 9.12688 6.04031 9.31 5.86999C9.52834 5.60985 9.78453 5.38399 10.07 5.19999C10.4242 4.98689 10.8085 4.82844 11.21 4.72999C11.3002 4.72071 11.383 4.67599 11.4402 4.60566C11.4974 4.53533 11.5243 4.44517 11.515 4.35499C11.5057 4.26482 11.461 4.18203 11.3907 4.12483C11.3203 4.06763 11.2302 4.04071 11.14 4.04999C10.4806 4.00084 9.82034 4.1322 9.23 4.42999Z" fill="black"/>
<path fill-rule="evenodd" clip-rule="evenodd" d="M4.37 8.09002C4.4456 8.06677 4.50945 8.01551 4.54849 7.94672C4.58753 7.87794 4.5988 7.79684 4.58 7.72001C4.47888 7.14414 4.52708 6.55195 4.72 6.00001C4.91181 5.43057 5.18461 4.89171 5.53 4.40001C5.8922 3.85879 6.2968 3.34718 6.74 2.87001C7.02049 2.55352 7.32835 2.26239 7.66 2.00001C8.3019 1.5251 9.03323 1.18494 9.81 1.00001C10.5861 0.790177 11.4039 0.790177 12.18 1.00001C12.2219 1.01565 12.2666 1.02259 12.3113 1.02041C12.3561 1.01823 12.3999 1.00697 12.4401 0.987328C12.4803 0.967683 12.5161 0.94006 12.5453 0.906139C12.5745 0.872218 12.5965 0.832709 12.61 0.790015C12.6305 0.707833 12.6206 0.620992 12.582 0.545597C12.5433 0.470202 12.4787 0.411371 12.4 0.380015C11.5156 0.0506243 10.5591 -0.0357042 9.63 0.130015C8.69502 0.271375 7.7995 0.605065 7 1.11001C6.49633 1.46855 6.04239 1.89224 5.65 2.37001C5.27932 2.83705 4.945 3.33184 4.65 3.85001C4.31522 4.45744 4.07257 5.11125 3.93 5.79001C3.77222 6.47765 3.79634 7.19454 4 7.87001C4.02118 7.94746 4.07158 8.01367 4.14059 8.05471C4.2096 8.09574 4.29184 8.1084 4.37 8.09002Z" fill="black"/>
</g>
<defs>
<clipPath id="clip0_1046_5815">
<rect width="24" height="24" fill="white"/>
</clipPath>
</defs>
</svg>
