<svg width="24" height="24" viewBox="0 0 24 24" fill="none" xmlns="http://www.w3.org/2000/svg">
<g clip-path="url(#clip0_1033_3853)">
<path d="M20 9.22999C20.18 7.94999 20.76 3.73999 20 2.70999C18.29 0.349994 7.57001 1.69999 6.06001 1.57999C6.01395 1.57175 5.96664 1.57372 5.92142 1.58574C5.8762 1.59777 5.83416 1.61957 5.79828 1.64961C5.76239 1.67964 5.73353 1.71718 5.71373 1.75958C5.69393 1.80197 5.68367 1.8482 5.68367 1.89499C5.68367 1.94179 5.69393 1.98801 5.71373 2.03041C5.73353 2.07281 5.76239 2.11035 5.79828 2.14038C5.83416 2.17042 5.8762 2.19222 5.92142 2.20424C5.96664 2.21627 6.01395 2.21823 6.06001 2.20999C7.26001 2.32999 18.06 1.32999 19.35 3.20999C20.26 4.56999 17.45 18 17.15 19C16.3 21.83 15.92 21 13.28 21.23C10.04 21.46 4.19001 22.16 1.79001 20.86C1.10001 20.49 0.720013 20.15 0.990013 18.39C1.14001 17.39 1.45001 16.39 1.57001 15.64C1.87001 13.85 2.25001 12.09 2.65001 10.34C4.48001 2.59999 5.00001 2.27999 4.45001 2.14999C4.41522 2.13938 4.37864 2.13591 4.34247 2.13979C4.3063 2.14366 4.27129 2.15481 4.23953 2.17255C4.20778 2.1903 4.17994 2.21428 4.15768 2.24305C4.13542 2.27183 4.11921 2.3048 4.11001 2.33999C2.90001 6.71999 1.61001 11.09 0.760013 15.53C0.270013 18.12 -0.939987 20.44 1.33001 21.73C4.07001 23.28 9.95001 22.56 13.33 22.33C16.41 22.12 17.61 23.33 18.83 16.16C20.16 19.21 20.74 20.88 21.83 21.6C22.0799 21.7185 22.3573 21.767 22.6326 21.7405C22.908 21.7139 23.1709 21.6131 23.3935 21.449C23.6162 21.2848 23.7901 21.0634 23.8969 20.8083C24.0037 20.5531 24.0393 20.2738 24 20C23.48 15.75 21.47 12.81 20 9.22999ZM22.86 20.52C22.74 20.68 22.55 20.83 22.41 20.75C22.0369 20.4935 21.7315 20.1504 21.52 19.75C21.32 19.45 19.84 16.69 19.07 14.98C19.27 13.77 19.56 12.13 19.82 10.44C20.23 11.59 23.57 19.57 22.84 20.52H22.86Z" fill="black"/>
<path d="M14.73 17.75C14.68 18.01 15.17 17.93 15.21 17.75C15.53 16.51 16.5 12.87 16.59 12.43C17.74 7.16002 18.59 6.16002 18.12 4.83002C17.73 3.76002 16 4.00002 14.91 4.00002C12.06 4.00002 9.42999 3.77002 6.58999 4.00002C6.58999 3.92178 6.55891 3.84674 6.50358 3.79142C6.44826 3.7361 6.37322 3.70502 6.29499 3.70502C6.21675 3.70502 6.14171 3.7361 6.08639 3.79142C6.03107 3.84674 5.99999 3.92178 5.99999 4.00002C5.37999 6.11002 5.75999 5.44002 2.99999 16.15C2.84999 16.76 2.30999 17.88 2.55999 18.64C2.97999 19.9 4.78999 19.64 11.07 19.46C12.47 19.46 13.97 19.66 15.38 19.56C15.4539 19.5468 15.5208 19.508 15.569 19.4504C15.6172 19.3928 15.6436 19.3201 15.6436 19.245C15.6436 19.1699 15.6172 19.0972 15.569 19.0396C15.5208 18.982 15.4539 18.9432 15.38 18.93C13.99 18.98 12.51 18.71 11.12 18.66C6.51999 18.61 3.58999 18.49 3.47999 18.14C3.36999 17.79 5.86999 7.29002 6.47999 4.61002C9.35999 4.47002 12.07 4.87002 14.92 4.98002H16.7C17.06 4.98002 17.25 5.20002 17.22 5.65002C17.14 6.55002 14.82 17.26 14.73 17.75Z" fill="black"/>
<path d="M13.08 10.33C12.59 10.27 12.4 10.51 10.52 12.23C10 11.13 9.16 9.83997 8 10.18C7.24 10.4 7 10.93 5.19 13.07C4.77 13.61 4.42 14.38 5.03 14.26C6.3 13 5.51 13.78 6.96 12.41C8.09 11.25 8.27 10.6 9.26 12C10.0004 13.2991 10.8537 14.5305 11.81 15.68C11.8715 15.7296 11.9491 15.7547 12.028 15.7505C12.1069 15.7463 12.1814 15.7131 12.2373 15.6573C12.2932 15.6014 12.3264 15.5269 12.3306 15.448C12.3348 15.3691 12.3096 15.2914 12.26 15.23C11.6822 14.5075 11.2045 13.7103 10.84 12.86L13 11.4C13.5786 11.7867 14.1208 12.2251 14.62 12.71L14.97 13.09C15.21 13.46 15.57 12.95 15.43 12.4C14.1 10.51 13.62 10.4 13.08 10.33Z" fill="black"/>
<path d="M9.00002 8.60998C9.0672 8.5921 9.12533 8.54987 9.16309 8.4915C9.20085 8.43313 9.21555 8.3628 9.20432 8.29419C9.1931 8.22558 9.15675 8.16361 9.10235 8.12032C9.04796 8.07703 8.9794 8.05552 8.91002 8.05999C8.54002 8.05999 7.99002 7.76998 8.13002 7.34999C8.2074 7.18245 8.32963 7.03958 8.48318 6.93722C8.63673 6.83485 8.81561 6.77697 9.00002 6.76999C9.71002 6.66999 10.63 7.43999 10 7.99999L9.49002 8.28999C9.44949 8.30034 9.41147 8.3188 9.37826 8.34424C9.34505 8.36968 9.31733 8.40159 9.29677 8.43802C9.27622 8.47446 9.26325 8.51469 9.25866 8.55627C9.25406 8.59785 9.25793 8.63994 9.27003 8.67999C9.36003 9.01999 9.73003 8.90999 10.06 8.77998C12.15 7.92999 10.8 5.47999 8.90002 5.70999C8.51516 5.745 8.15178 5.90296 7.86363 6.16049C7.57548 6.41802 7.37787 6.76145 7.30002 7.13998C7.2839 7.35778 7.31895 7.57633 7.40238 7.77816C7.48581 7.97998 7.61529 8.1595 7.78049 8.30234C7.94568 8.44519 8.14201 8.5474 8.35376 8.60082C8.56552 8.65424 8.78684 8.65738 9.00002 8.60998Z" fill="black"/>
</g>
<defs>
<clipPath id="clip0_1033_3853">
<rect width="24" height="24" fill="white"/>
</clipPath>
</defs>
</svg>
