<svg width="24" height="24" viewBox="0 0 24 24" fill="none" xmlns="http://www.w3.org/2000/svg">
<g clip-path="url(#clip0_1033_3847)">
<path d="M24 19.52C23.81 7.99999 23.83 14.4 23.27 8.06999C23.3235 7.66021 23.2276 7.24489 23 6.89999C22.5155 6.43283 21.8729 6.16509 21.2 6.14999C19.62 5.99999 20.95 6.40999 18.59 4.32999C17.76 3.59999 17.3 3.32999 14.94 1.56999C14.3955 1.08985 13.744 0.746976 13.04 0.569986C11.8 0.369986 10.78 1.13999 9.79 1.76999C7.81164 2.92287 6.00415 4.34665 4.42 5.99999C3.33964 6.15091 2.29394 6.48933 1.33 6.99999C0 7.82999 0 9.05999 0 15.91C0.33 20.59 0.11 20.13 0.29 21.09C0.69 23.31 2.23 23.19 4.88 23.24C6.24 23.24 7.6 23.38 8.97 23.44C10.65 23.51 10.82 23.44 14.97 23.3C17.1351 23.3907 19.3034 23.2263 21.43 22.81C22.11 22.63 23.06 22.64 23.58 21.92C23.9803 21.188 24.128 20.3444 24 19.52ZM10.34 2.70999C13.05 1.05999 12.42 1.27999 16.92 4.17999C17.6586 4.67779 18.3544 5.23639 19 5.84999C19.16 5.99999 19.36 5.97999 17.95 5.84999C13.7902 5.58902 9.61759 5.60572 5.46 5.89999C6.96886 4.66649 8.60474 3.59714 10.34 2.70999ZM21.19 21.71C19.09 22.25 18.19 22.02 10.74 22.38C8.86 22.38 6.83 22.24 4.89 22.24C4.22 22.24 1.94 22.33 1.55 21.8C0.91 20.96 1.15 19.38 1.03 18.3C0.746397 15.4189 0.689555 12.52 0.86 9.62999C1 7.99999 1.1 7.75999 2.57 7.14999C4.35 6.39999 8.79 6.49999 10.25 6.48999C12.7965 6.40936 15.3456 6.49956 17.88 6.75999C19.1773 6.82434 20.4678 6.98816 21.74 7.24999C21.97 7.32999 22.23 7.44999 22.25 7.68999C22.27 7.92999 22.25 7.44999 22.37 9.50999C22.87 13.14 22.8 11.36 22.8 19.57C22.8264 19.9629 22.8264 20.3571 22.8 20.75C22.77 21.59 22.42 21.38 21.19 21.69V21.71Z" fill="black"/>
<path d="M21.68 15.36C21.7311 13.2379 21.6644 11.1147 21.48 9C21.34 8.45 20.89 8.25 20.33 8.17C20.27 8.16 8.13999 8 7.84999 8C6.92999 8 5.97999 8.27 5.06999 8.38C4.15999 8.49 2.84999 8.38 2.81999 8.83C2.70346 11.5844 2.76359 14.3433 2.99999 17.09C2.98815 17.818 3.02155 18.5461 3.09999 19.27C3.20999 20.18 3.31999 20.53 4.60999 20.61C9.89915 21.1762 15.2345 21.1594 20.52 20.56C20.8469 20.5459 21.1614 20.4305 21.42 20.23C22 19.75 21.85 19.62 21.68 15.36ZM20.68 19.36C19.95 19.59 15.08 20.69 4.26999 19.69C3.87999 19.69 3.92999 18.69 3.59999 14.69C3.43306 12.8651 3.36962 11.0321 3.40999 9.2C5.60999 9.06 4.58999 9.2 7.88999 8.76L20 9.17C20.1554 9.17118 20.3087 9.20526 20.45 9.27C20.55 10.79 20.75 19.25 20.67 19.36H20.68Z" fill="black"/>
<path d="M10.45 16.11C11.694 14.8481 13.0311 13.6815 14.45 12.62C14.9794 12.1834 15.634 11.9267 16.319 11.8871C17.0041 11.8476 17.6839 12.0272 18.26 12.4C18.6478 12.5677 18.9905 12.8246 19.26 13.15C19.54 13.47 19.68 13.59 19.91 13.84C20.27 14.3 20.62 13.62 20.16 12.96C19.9588 12.6879 19.7347 12.4337 19.49 12.2C18.9676 11.6931 18.3336 11.3159 17.6388 11.0988C16.9441 10.8817 16.2081 10.8307 15.49 10.95C14.2065 11.359 13.0357 12.0608 12.07 13C10.0246 14.8506 8.09752 16.8278 6.30001 18.92C5.90001 19.36 6.49001 19.78 7.09001 19.14C8.15559 18.0712 9.27717 17.0598 10.45 16.11Z" fill="black"/>
<path d="M5.99998 14C6.52096 14.0647 7.04911 13.9644 7.51013 13.7133C7.97115 13.4622 8.34182 13.0728 8.56998 12.6C8.76998 12.11 8.86998 11.21 8.40998 11.12C8.73998 10.66 7.40998 9.03998 5.57998 9.86998C5.16236 10.0594 4.81476 10.3752 4.5862 10.7728C4.35764 11.1704 4.25964 11.6297 4.30604 12.0859C4.35244 12.5421 4.54088 12.9723 4.8448 13.3157C5.14872 13.6591 5.55277 13.8985 5.99998 14ZM5.99998 10.7C6.14458 10.5968 6.30853 10.5239 6.48198 10.4856C6.65544 10.4473 6.83485 10.4444 7.00945 10.4771C7.18406 10.5097 7.35027 10.5773 7.49813 10.6758C7.646 10.7742 7.77247 10.9015 7.86998 11.05C7.91122 11.1229 7.97945 11.1768 8.05998 11.2C8.02529 11.2389 8.00003 11.2854 7.98616 11.3356C7.97229 11.3859 7.97017 11.4387 7.97998 11.49C7.99087 11.7144 7.95019 11.9383 7.86105 12.1445C7.77191 12.3507 7.63669 12.5338 7.46577 12.6796C7.29485 12.8254 7.09278 12.9301 6.87508 12.9857C6.65739 13.0412 6.42986 13.0461 6.20998 13C5.97491 12.9316 5.76586 12.7941 5.61 12.6053C5.45414 12.4165 5.35868 12.1852 5.33603 11.9414C5.31338 11.6977 5.36459 11.4527 5.483 11.2385C5.60141 11.0242 5.78154 10.8505 5.99998 10.74V10.7Z" fill="black"/>
</g>
<defs>
<clipPath id="clip0_1033_3847">
<rect width="24" height="24" fill="white"/>
</clipPath>
</defs>
</svg>
