<svg width="24" height="24" viewBox="0 0 24 24" fill="none" xmlns="http://www.w3.org/2000/svg">
<g clip-path="url(#clip0_1047_6386)">
<path fill-rule="evenodd" clip-rule="evenodd" d="M9 16.78C9.30005 17.3825 9.82129 17.8459 10.4549 18.0732C11.0884 18.3005 11.7853 18.2743 12.4 18C12.6979 17.8888 12.9688 17.7155 13.1945 17.4915C13.4202 17.2675 13.5957 16.9981 13.7092 16.701C13.8227 16.404 13.8717 16.0862 13.8529 15.7688C13.834 15.4513 13.7478 15.1415 13.6 14.86C13.6 14.86 13.54 14.79 13.52 14.75C13.27 13.56 12.99 12.38 12.67 11.2C12.45 10.38 12.19 9.57 11.99 8.74C11.75 8.33528 11.5459 7.91032 11.38 7.47C11.8982 7.21824 12.478 7.12103 13.05 7.19C13.7268 7.19255 14.3786 7.44546 14.88 7.9C14.9437 7.98619 15.0389 8.04357 15.1449 8.05951C15.2509 8.07545 15.3588 8.04865 15.445 7.985C15.5312 7.92135 15.5886 7.82606 15.6045 7.7201C15.6205 7.61414 15.5937 7.50619 15.53 7.42C14.9332 6.7208 14.0934 6.27408 13.18 6.17C12.2562 5.96196 11.2881 6.10076 10.46 6.56C10.3485 6.66182 10.2657 6.79121 10.2201 6.93515C10.1745 7.0791 10.1675 7.23252 10.2 7.38C10.3306 7.96649 10.4976 8.54427 10.7 9.11C10.89 9.73 11.07 10.36 11.3 10.96C11.62 11.86 11.97 12.74 12.3 13.63C11 13.09 8.18 14.83 9 16.78ZM12.58 15.29C12.6386 15.4292 12.6676 15.5791 12.6651 15.7301C12.6627 15.8811 12.6289 16.03 12.566 16.1673C12.503 16.3046 12.4121 16.4272 12.2992 16.5276C12.1863 16.6279 12.0537 16.7036 11.91 16.75C11.7129 16.8362 11.5001 16.8807 11.285 16.8807C11.0699 16.8807 10.8571 16.8362 10.66 16.75C10.406 16.6528 10.1867 16.4822 10.03 16.26C9.54 15.41 11.82 13.26 12.58 15.29Z" fill="black"/>
<path fill-rule="evenodd" clip-rule="evenodd" d="M21.19 14C21.1442 13.9958 21.0981 14.0012 21.0545 14.0159C21.0109 14.0306 20.9709 14.0543 20.937 14.0854C20.9031 14.1164 20.8761 14.1542 20.8577 14.1964C20.8392 14.2385 20.8298 14.284 20.83 14.33C20.83 14.9 20.83 16.75 20.68 18.38C20.6911 19.1855 20.5273 19.9839 20.2 20.72C20.048 20.8916 19.8503 21.0164 19.63 21.08C19.198 21.1901 18.7555 21.2538 18.31 21.27C17.74 21.35 16 21.4 13.91 21.44H9.48001C7.92287 21.459 6.36618 21.3754 4.82001 21.19C4.46001 21.13 3.97001 21.12 4.07001 20.99C3.90547 20.6824 3.80031 20.3465 3.76001 20C3.65146 19.3082 3.58799 18.61 3.57001 17.91L3.62001 14.12C4.00001 14.46 4.38001 14.79 4.77001 15.12C5.16001 15.45 5.60001 15.74 6.00001 16C6.06712 16.0648 6.15674 16.1009 6.25001 16.1009C6.34327 16.1009 6.4329 16.0648 6.50001 16C6.53327 15.9674 6.55969 15.9285 6.57773 15.8856C6.59577 15.8426 6.60506 15.7965 6.60506 15.75C6.60506 15.7034 6.59577 15.6573 6.57773 15.6144C6.55969 15.5715 6.53327 15.5326 6.50001 15.5C6.22001 15.21 5.95001 14.91 5.69001 14.61C5.30001 14.15 4.93001 13.68 4.55001 13.19C4.32882 12.8849 4.08833 12.5943 3.83001 12.32C3.68674 12.191 3.50264 12.1167 3.31001 12.11C3.09775 12.1161 2.8922 12.1857 2.72001 12.31C2.48813 12.5145 2.27093 12.735 2.07001 12.97L0.110008 15.38C0.0725098 15.4163 0.0426962 15.4599 0.0223365 15.508C0.00197671 15.5561 -0.0085144 15.6078 -0.0085144 15.66C-0.0085144 15.7122 0.00197671 15.7639 0.0223365 15.812C0.0426962 15.8601 0.0725098 15.9036 0.110008 15.94C0.145495 15.9772 0.188165 16.0068 0.235434 16.0271C0.282703 16.0473 0.333588 16.0577 0.385008 16.0577C0.436428 16.0577 0.487313 16.0473 0.534583 16.0271C0.581852 16.0068 0.624522 15.9772 0.660008 15.94L2.78001 14L2.56001 17.88C2.54654 18.7535 2.60675 19.6266 2.74001 20.49C2.79019 20.9239 2.9298 21.3427 3.15001 21.72C3.45459 22.0459 3.85938 22.2606 4.30001 22.33C5.51717 22.5933 6.75543 22.7472 8.00001 22.79C10 22.88 12.32 22.87 14.3 22.79C16.28 22.71 17.97 22.56 18.53 22.47C19.0287 22.408 19.5207 22.3009 20 22.15C20.4007 22.0002 20.7485 21.7359 21 21.39C21.3549 20.7006 21.5368 19.9353 21.53 19.16C21.65 17.38 21.53 15.05 21.53 14.4C21.5409 14.3503 21.5401 14.2989 21.5278 14.2496C21.5155 14.2003 21.492 14.1545 21.4591 14.1158C21.4262 14.0771 21.3848 14.0465 21.3381 14.0264C21.2914 14.0063 21.2407 13.9973 21.19 14Z" fill="black"/>
<path fill-rule="evenodd" clip-rule="evenodd" d="M23.88 8.20996C23.8052 8.13667 23.7047 8.09562 23.6 8.09562C23.4953 8.09562 23.3948 8.13667 23.32 8.20996L21.2 10.07L21.47 6.19996C21.4845 5.32776 21.4377 4.45562 21.33 3.58996C21.2826 3.15369 21.1464 2.73172 20.93 2.34996C20.6295 2.02234 20.2283 1.80418 19.79 1.72996C18.5903 1.46185 17.3685 1.30452 16.14 1.25996C14.14 1.13996 11.82 1.11996 9.84 1.16996C8.42971 1.1815 7.02104 1.26829 5.62 1.42996C5.09445 1.4768 4.57507 1.57733 4.07 1.72996C3.67268 1.87579 3.3256 2.13263 3.07 2.46996C2.70301 3.21731 2.50824 4.03742 2.5 4.86996C2.36 6.79996 2.5 9.34997 2.5 9.99996C2.49142 10.0502 2.4939 10.1017 2.50729 10.1508C2.52067 10.2 2.54462 10.2457 2.57748 10.2846C2.61033 10.3235 2.65129 10.3548 2.6975 10.3763C2.74371 10.3978 2.79405 10.4089 2.845 10.4089C2.89595 10.4089 2.94629 10.3978 2.99249 10.3763C3.0387 10.3548 3.07966 10.3235 3.11252 10.2846C3.14537 10.2457 3.16933 10.2 3.18271 10.1508C3.19609 10.1017 3.19858 10.0502 3.19 9.99996C3.24 9.42997 3.25 7.40996 3.41 5.62996C3.41161 4.75924 3.59201 3.89813 3.94 3.09996C4.09002 2.93077 4.28379 2.80621 4.5 2.73996C4.93721 2.64278 5.3824 2.58588 5.83 2.56996C6.32 2.50996 7.66 2.47996 9.33 2.45996C11 2.43996 12.87 2.45996 14.66 2.45996C16.2153 2.45562 17.769 2.5592 19.31 2.76996C20 2.88996 20.15 2.63996 20.37 4.04996C20.4639 4.74613 20.514 5.44752 20.52 6.14996L20.36 9.99996C19.98 9.64996 19.61 9.31996 19.22 8.99996C18.83 8.67996 18.41 8.33996 18 7.99996C17.9674 7.9667 17.9285 7.94028 17.8856 7.92224C17.8427 7.90421 17.7966 7.89491 17.75 7.89491C17.7034 7.89491 17.6573 7.90421 17.6144 7.92224C17.5715 7.94028 17.5326 7.9667 17.5 7.99996C17.4359 8.06539 17.3999 8.15335 17.3999 8.24496C17.3999 8.33658 17.4359 8.42454 17.5 8.48996C17.78 8.78996 18.05 9.08996 18.3 9.39996C18.7 9.85996 19.06 10.33 19.43 10.83C19.6464 11.1364 19.8801 11.4302 20.13 11.71C20.2723 11.8418 20.4563 11.9197 20.65 11.93C20.8618 11.9307 21.0684 11.8642 21.24 11.74C21.4797 11.5406 21.7006 11.3197 21.9 11.08L23.9 8.69996C23.9515 8.62765 23.9775 8.54026 23.9739 8.45154C23.9703 8.36282 23.9372 8.27784 23.88 8.20996Z" fill="black"/>
</g>
<defs>
<clipPath id="clip0_1047_6386">
<rect width="24" height="24" fill="white"/>
</clipPath>
</defs>
</svg>
