<svg width="24" height="24" viewBox="0 0 24 24" fill="none" xmlns="http://www.w3.org/2000/svg">
<path fill-rule="evenodd" clip-rule="evenodd" d="M16 12.06C16 11.67 15.74 11.53 15.63 11.33C15.39 10.87 14.86 10.44 15.01 10.09C15.25 9.56002 16.01 9.45002 16.58 9.59002C16.9799 9.77477 17.3907 9.93507 17.81 10.07C18.18 10.13 18.47 9.76002 18.81 9.35002C19.2819 8.82446 19.6425 8.20874 19.87 7.54002C19.8781 7.42439 19.8502 7.30909 19.79 7.21002C19.1752 6.56363 18.4714 6.00806 17.7 5.56002C17.7 5.56002 17.56 5.42002 17.46 5.35002C17.7439 4.81448 17.8883 4.21608 17.88 3.61002C17.8332 3.16906 17.6642 2.74994 17.3919 2.39992C17.1197 2.04991 16.755 1.7829 16.3392 1.62903C15.9233 1.47515 15.4727 1.44052 15.0382 1.52904C14.6037 1.61756 14.2025 1.82571 13.88 2.13002C13.37 2.70002 14.22 3.00002 14.29 2.51002L14.61 2.26002C14.8863 2.11145 15.1974 2.03945 15.5109 2.05147C15.8244 2.0635 16.129 2.15911 16.3931 2.32841C16.6573 2.4977 16.8714 2.73453 17.0132 3.01437C17.1551 3.29421 17.2196 3.60689 17.2 3.92002C17.1173 4.37496 16.9548 4.8117 16.72 5.21002C16.33 6.01002 17.21 5.87002 19.02 7.57002C18.7131 8.1326 18.3181 8.6424 17.85 9.08002L16.85 8.66002C16.3454 8.48098 15.7942 8.48282 15.2907 8.66523C14.7873 8.84764 14.3628 9.19928 14.09 9.66002C13.63 10.66 14.37 11.19 14.71 11.84C14.93 12.28 15.06 11.98 14.71 12.66C14.4398 13.1932 14.1039 13.6904 13.71 14.14C12.71 13.82 7.21 10.91 6.55 9.80002C6.74524 9.07281 7.08537 8.39253 7.55 7.80002C8.68 8.40002 9.36 8.91002 10.39 8.32002C12.49 7.10002 11.81 4.70002 9.44 4.32002C9.70583 3.71001 10.0414 3.13283 10.44 2.60002C10.69 2.33002 11.7 2.83002 12 2.98002C12.0769 3.01848 12.166 3.0248 12.2475 2.99761C12.3291 2.97042 12.3965 2.91193 12.435 2.83502C12.4735 2.75811 12.4798 2.66907 12.4526 2.58749C12.4254 2.50591 12.3669 2.43848 12.29 2.40002C10.06 1.20002 10 1.84002 8.77 4.00002C8.61 4.28002 8.41 4.59002 8.64 4.87002C8.87 5.15002 9.56 5.08002 9.82 5.17002C10.52 5.42002 11.1 6.11002 10.74 6.76002C10.5 7.18002 9.91 7.70002 9.42 7.63002C7.42 6.78002 7.53 6.13002 6.62 7.46002C6.07986 8.14587 5.73442 8.96454 5.62 9.83002C5.62 11.62 13.37 15.22 13.87 15.24C14.75 15.29 16 12.62 16 12.06Z" fill="black"/>
<path fill-rule="evenodd" clip-rule="evenodd" d="M8.71 19.57C8.39 18.18 8.97 14.49 7.33 14.52C5.87 14.52 6.15 15.71 5.63 17.12C5.49 17.51 5.51 17.55 4.63 16.74C4.46092 16.5695 4.3101 16.3818 4.18 16.18C4.26 15.79 4.1 16.08 4.4 13.58C4.51 12.69 4.47 11.65 3.68 11.23C3.43282 11.0933 3.14783 11.0408 2.86817 11.0805C2.58851 11.1202 2.32938 11.2499 2.13 11.45C2.01215 11.2818 1.84919 11.1503 1.65988 11.0707C1.47058 10.9911 1.26263 10.9666 1.06 11C0 11.12 0 12.34 0 13.37C0.06 16.11 2.2 19.05 4.24 20.88L4.86 22.46C4.95 22.73 5.53 22.41 5.43 22.14L5 20.47C5 20.34 0.77 16.99 0.81 13.36C0.81 12.95 0.81 11.84 1.19 11.8C1.77 11.74 1.66 12.26 2.46 14.35C2.74704 15.1346 3.11221 15.8884 3.55 16.6C3.99568 17.2528 4.61115 17.7714 5.33 18.1C6.58 18.33 6.41 16.28 6.79 15.7C6.88 15.55 7.05 15.48 7.33 15.47C8.33 15.47 7.55 19.83 8.21 20.12C8.44 20.23 8.9 19.91 8.75 19.71C8.77 19.69 8.72 19.63 8.71 19.57ZM2.41 11.92C2.52754 11.7881 2.69 11.7048 2.86567 11.6863C3.04133 11.6679 3.21758 11.7155 3.36 11.82C3.76 12.09 3.67 13.07 3.63 13.62C3.58366 14.1568 3.60044 14.6971 3.68 15.23C3.19766 14.1502 2.77372 13.0453 2.41 11.92Z" fill="black"/>
<path fill-rule="evenodd" clip-rule="evenodd" d="M15.25 19.71C15.1 19.91 15.56 20.23 15.79 20.12C16.45 19.83 15.7 15.43 16.67 15.47C16.95 15.47 17.12 15.55 17.21 15.7C17.59 16.28 17.42 18.33 18.67 18.1C19.3889 17.7715 20.0043 17.2528 20.45 16.6C20.9016 15.8901 21.2802 15.1362 21.58 14.35C22.38 12.26 22.27 11.74 22.85 11.8C23.26 11.8 23.23 12.95 23.23 13.36C23.23 16.99 19.09 20.36 19.04 20.47L18.57 22.14C18.47 22.41 19.05 22.73 19.14 22.46L19.76 20.88C21.76 19.05 23.94 16.11 24 13.37C24 12.37 24 11.12 22.94 11C22.7328 10.9606 22.5185 10.9821 22.3233 11.0619C22.128 11.1418 21.9601 11.2766 21.84 11.45C21.6406 11.25 21.3815 11.1203 21.1018 11.0806C20.8222 11.0409 20.5372 11.0933 20.29 11.23C19.5 11.65 19.46 12.69 19.57 13.58C19.88 16.18 19.71 15.81 19.79 16.18C19.6599 16.3819 19.5091 16.5695 19.34 16.74C18.49 17.55 18.51 17.51 18.34 17.12C17.82 15.71 18.1 14.54 16.64 14.52C14.99 14.52 15.58 18.18 15.26 19.57C15.28 19.63 15.23 19.69 15.25 19.71ZM20.32 15.23C20.3996 14.6972 20.4163 14.1568 20.37 13.62C20.37 13.07 20.24 12.09 20.64 11.82C20.7824 11.7155 20.9587 11.6679 21.1343 11.6864C21.31 11.7049 21.4725 11.7882 21.59 11.92C21.2263 13.0453 20.8023 14.1503 20.32 15.23Z" fill="black"/>
</svg>
