<svg width="24" height="24" viewBox="0 0 24 24" fill="none" xmlns="http://www.w3.org/2000/svg">
<g clip-path="url(#clip0_1035_5061)">
<path fill-rule="evenodd" clip-rule="evenodd" d="M23.71 9.08C23.3559 7.01451 22.681 5.01707 21.71 3.16C20.77 1.8 18.82 2.16 17.19 1.85C12.08 1 4.72 1.79 2.94 2.43C0.779998 3.21 1.13 4.64 0.529998 7C-0.454956 11.1251 -0.0760124 15.4584 1.61 19.35C2.04503 20.2792 2.59609 21.1494 3.25 21.94C3.79 22.34 4.16 21.55 3.67 21.37C3.18 21.19 3.59 21.37 3.54 21.37C3.41029 21.1537 3.29342 20.93 3.19 20.7C0.920396 16.6147 0.359568 11.7974 1.63 7.3C1.83 6.56 2.12 4.53 2.53 4.06C3.1 3.42 5.29 3.23 6.14 3.14C9.74465 2.67504 13.3937 2.66832 17 3.12C18.1664 3.14936 19.3264 3.30357 20.46 3.58C20.8 3.74 21.26 4.85 21.41 5.19C23.2899 9.61971 23.6039 14.5579 22.3 19.19C22.1643 19.7338 21.9522 20.2557 21.67 20.74C21.2 21.28 21.37 21.27 21.33 21.36C16.5082 21.0683 11.6713 21.1385 6.86 21.57C6.8043 21.5552 6.74569 21.5552 6.69 21.57C6.59 21.57 6.28 22.19 6.83 22.24C11.6891 22.5773 16.5671 22.5371 21.42 22.12C21.5255 22.1185 21.6261 22.0754 21.7 22C21.93 22 22 21.88 22.3 21.2C22.19 21.34 22.43 21.12 22.71 20.49C23.9917 16.83 24.3355 12.9071 23.71 9.08Z" fill="black"/>
<path fill-rule="evenodd" clip-rule="evenodd" d="M11.91 13.17C9.31999 13.4 8.41999 14.81 8.45999 17.25C8.45999 17.3534 8.50108 17.4526 8.57422 17.5258C8.64736 17.5989 8.74656 17.64 8.84999 17.64C8.95343 17.64 9.05263 17.5989 9.12577 17.5258C9.19891 17.4526 9.23999 17.3534 9.23999 17.25C9.30999 15.02 10.24 14.36 11.97 14.32C12.3349 14.2727 12.7057 14.3114 13.053 14.4329C13.4002 14.5545 13.7143 14.7555 13.97 15.02C14.4832 16.1869 14.7814 17.437 14.85 18.71C13.8508 18.7677 12.8492 18.7677 11.85 18.71C11.08 18.78 9.47999 18.91 9.12999 18.91C9.04141 18.8951 8.95048 18.9148 8.87602 18.965C8.80156 19.0153 8.74928 19.0923 8.72999 19.18C8.73201 19.2884 8.77394 19.3922 8.84776 19.4715C8.92157 19.5508 9.02207 19.6002 9.12999 19.61H11.94C12.71 19.61 14.94 20.31 15.68 19.61C16.59 18.69 15.52 15.07 14.99 14.3C14.6028 13.8811 14.1217 13.5602 13.5862 13.3638C13.0507 13.1673 12.4762 13.1009 11.91 13.17Z" fill="black"/>
<path fill-rule="evenodd" clip-rule="evenodd" d="M7.47999 12.33C7.88999 12.22 8.20999 11.95 8.33999 11.15C8.46401 9.69747 8.36963 8.23455 8.05999 6.81C8.04568 6.59819 7.95441 6.39892 7.80337 6.24973C7.65234 6.10054 7.45197 6.01172 7.23999 6C6.92356 5.90295 6.58798 5.88595 6.26335 5.95052C5.93873 6.0151 5.6352 6.15923 5.37999 6.37C4.98874 7.22092 4.75496 8.1357 4.68999 9.07C4.53484 9.99211 4.59994 10.9378 4.87999 11.83C5.25999 12.46 6.85999 12.5 7.47999 12.33ZM5.79999 11C5.67897 9.77729 5.64556 8.54748 5.69999 7.32C5.78999 6.32 6.57999 6.97 7.09999 7C7.37999 8 7.09999 10.78 7.09999 11C7.09999 11.22 5.68999 11.32 5.79999 11Z" fill="black"/>
<path fill-rule="evenodd" clip-rule="evenodd" d="M18.23 11.32H17.91C17.71 11.32 17.49 11.37 17.37 11.24C17.0785 9.79819 16.9311 8.33098 16.93 6.86C16.93 6.76983 16.8942 6.68335 16.8304 6.61958C16.7667 6.55582 16.6802 6.52 16.59 6.52C16.4998 6.52 16.4133 6.55582 16.3496 6.61958C16.2858 6.68335 16.25 6.76983 16.25 6.86C15.82 11.55 16.31 11.94 16.39 12.05C16.7141 12.3452 17.1128 12.546 17.543 12.6307C17.9731 12.7153 18.4182 12.6805 18.83 12.53C18.9494 12.4969 19.0598 12.4375 19.1533 12.3562C19.2467 12.2749 19.3208 12.1737 19.37 12.06C19.8241 10.172 19.7862 8.19914 19.26 6.33C18.99 5.74 17.69 5.65 17.35 5.86C16.35 6.45 18.22 6.93 18.45 6.8C18.6143 8.30888 18.5401 9.83422 18.23 11.32Z" fill="black"/>
</g>
<defs>
<clipPath id="clip0_1035_5061">
<rect width="24" height="24" fill="white"/>
</clipPath>
</defs>
</svg>
