<svg width="24" height="24" viewBox="0 0 24 24" fill="none" xmlns="http://www.w3.org/2000/svg">
<g clip-path="url(#clip0_1051_8844)">
<path fill-rule="evenodd" clip-rule="evenodd" d="M6.00002 9.86999C6.07419 9.88491 6.15126 9.87026 6.21478 9.82916C6.2783 9.78806 6.32324 9.72376 6.34002 9.64999C6.61002 8.79998 6.84002 7.94999 7.11002 7.09999C7.27093 6.57408 7.47496 6.06234 7.72002 5.56999C8.09155 4.79977 8.62343 4.11787 9.28002 3.56999C9.45099 3.68188 9.64661 3.75052 9.85002 3.76999C10.33 3.76999 12.85 3.61999 12.25 1.62999C12.1327 1.2385 11.8922 0.89529 11.5644 0.651291C11.2365 0.407292 10.8387 0.275513 10.43 0.275513C10.0213 0.275513 9.62353 0.407292 9.29567 0.651291C8.96781 0.89529 8.72736 1.2385 8.61002 1.62999C8.54202 1.86365 8.5238 2.10899 8.55653 2.35014C8.58925 2.59129 8.6722 2.82289 8.80002 3.02999C7.98488 3.50356 7.29819 4.16965 6.80002 4.96999C6.47142 5.5213 6.23498 6.12253 6.10002 6.74999C5.91002 7.63999 5.91002 8.54998 5.79002 9.43999C5.76906 9.48135 5.75798 9.52701 5.75764 9.57337C5.7573 9.61974 5.76771 9.66556 5.78806 9.70722C5.80841 9.74889 5.83814 9.78527 5.87491 9.81351C5.91169 9.84175 5.95451 9.86108 6.00002 9.86999ZM9.58002 1.99999C9.63094 1.84745 9.7218 1.71135 9.84314 1.60583C9.96449 1.50031 10.1119 1.42923 10.27 1.39999C10.4873 1.35523 10.7133 1.384 10.9124 1.48176C11.1116 1.57952 11.2725 1.74072 11.37 1.93999C11.69 2.69999 10.86 3.19999 10.04 3.08999C9.92722 3.08917 9.8167 3.05809 9.72002 2.99999C9.59143 2.87101 9.50824 2.70374 9.48299 2.52337C9.45774 2.343 9.49179 2.15931 9.58002 1.99999Z" fill="black"/>
<path fill-rule="evenodd" clip-rule="evenodd" d="M1.74001 16.83C2.94535 17.0621 4.17366 17.1527 5.40001 17.1C8.26001 17.1 11.12 17 13.98 16.99C15.2 16.99 16.41 16.99 17.63 17.05C18.8794 17.1714 20.1356 17.2081 21.39 17.16C22.0072 17.1189 22.6047 16.9265 23.13 16.6C23.4301 16.3903 23.6596 16.0946 23.7881 15.7518C23.9167 15.409 23.9383 15.0353 23.85 14.68C23.4528 13.452 22.8584 12.2969 22.09 11.26L20.09 7.43997C19.9279 7.03526 19.734 6.64404 19.51 6.26997C19.3992 6.11819 19.2511 5.99763 19.08 5.91997C18.0942 5.71264 17.0868 5.62533 16.08 5.65997C13.59 5.65997 10.36 5.81997 9.33001 5.88997C9.24422 5.89762 9.16482 5.93851 9.10877 6.00391C9.05272 6.0693 9.02445 6.15402 9.03001 6.23997C9.03766 6.32576 9.07855 6.40516 9.14395 6.46122C9.20934 6.51727 9.29406 6.54553 9.38001 6.53997C10.27 6.53997 12.83 6.39997 15.11 6.41997C16.3331 6.38471 17.5566 6.47856 18.76 6.69997C18.94 7.01997 19.22 7.69997 19.3 7.82997L21.25 11.73C21.8284 12.5771 22.324 13.4779 22.73 14.42C22.89 14.93 22.96 15.42 22.52 15.73C21.9892 16.014 21.3913 16.1487 20.79 16.12C19.69 16.12 18.48 15.98 17.67 15.95C16.03 15.95 14.38 15.89 12.74 15.95C10.29 15.95 7.84001 16.11 5.38001 16.17C4.37951 16.2258 3.37612 16.199 2.38001 16.09C1.85062 16.0598 1.33923 15.8871 0.900011 15.59C0.881805 15.5451 0.850429 15.5067 0.810011 15.48C0.804998 15.4301 0.804998 15.3798 0.810011 15.33C0.857501 15.1022 0.93133 14.8807 1.03001 14.67C1.24001 14.19 1.52001 13.67 1.61001 13.49C2.26001 12.06 2.88001 10.61 3.61001 9.18997C4.0853 8.26003 4.61973 7.36152 5.21001 6.49997C5.24176 6.43773 5.24996 6.36611 5.23311 6.29829C5.21627 6.23048 5.1755 6.17103 5.11831 6.13088C5.06113 6.09072 4.99136 6.07257 4.92186 6.07975C4.85235 6.08694 4.78778 6.11897 4.74001 6.16997C4.11726 7.04036 3.54949 7.94879 3.04001 8.88997C2.30001 10.27 1.64001 11.72 1.00001 13.14C0.621317 13.7711 0.312815 14.4417 0.080011 15.14C0.0311739 15.2817 0.0148048 15.4325 0.0321139 15.5814C0.049423 15.7302 0.0999676 15.8733 0.180011 16C0.607429 16.4235 1.1499 16.7122 1.74001 16.83Z" fill="black"/>
<path fill-rule="evenodd" clip-rule="evenodd" d="M23.92 16.6C23.9076 16.5151 23.8636 16.4381 23.7969 16.3844C23.7301 16.3306 23.6455 16.304 23.56 16.31C23.476 16.3224 23.4 16.3668 23.3478 16.4338C23.2957 16.5009 23.2714 16.5855 23.28 16.67C23.2955 16.9297 23.2955 17.1902 23.28 17.45C23.2766 17.5847 23.246 17.7174 23.19 17.84C23.0569 18.0405 22.8775 18.2061 22.6668 18.3227C22.4562 18.4394 22.2207 18.5036 21.98 18.51C21.1148 18.5811 20.2452 18.5811 19.38 18.51H17.98L14.06 18.36L10.85 18.25H4.44001C3.44582 18.4024 2.43421 18.4024 1.44001 18.25C1.20949 18.2018 1.00743 18.0643 0.878096 17.8675C0.748766 17.6707 0.702709 17.4307 0.750015 17.2C0.830015 16.8 0.110015 16.58 0.110015 17.2C0.0673184 17.5603 0.149178 17.9245 0.341999 18.2319C0.53482 18.5393 0.826999 18.7715 1.17001 18.89C2.24405 19.1411 3.35033 19.2254 4.45001 19.14C5.53001 19.19 6.60001 19.25 7.67001 19.27H9.18002C9.18002 19.61 9.10002 19.96 9.08002 20.32C9.06001 20.68 9.08002 20.76 9.08002 20.99C9.08002 21.22 9.08002 21.43 9.16002 21.65C9.25611 22.1786 9.40003 22.6974 9.59002 23.2C9.61351 23.2834 9.66801 23.3548 9.74237 23.3994C9.81672 23.444 9.90531 23.4585 9.99002 23.44C10.0307 23.4295 10.069 23.4111 10.1026 23.3858C10.1362 23.3605 10.1645 23.3288 10.1858 23.2926C10.2072 23.2564 10.2212 23.2163 10.2271 23.1747C10.2329 23.1331 10.2305 23.0907 10.22 23.05C10.19 22.5404 10.19 22.0295 10.22 21.52C10.22 21.18 10.22 20.83 10.17 20.52C10.1145 20.1096 10.0377 19.7024 9.94001 19.3H10.94L13.86 19.39C13.78 19.69 13.7 20 13.65 20.31C13.6053 20.5378 13.5752 20.7683 13.56 21V21.7C13.56 22.25 13.62 22.78 13.68 23.33C13.6787 23.3728 13.686 23.4155 13.7014 23.4555C13.7169 23.4955 13.7403 23.5319 13.7701 23.5627C13.8 23.5935 13.8357 23.618 13.8752 23.6347C13.9147 23.6514 13.9571 23.66 14 23.66C14.0849 23.66 14.1663 23.6262 14.2263 23.5662C14.2863 23.5062 14.32 23.4248 14.32 23.34C14.4 22.79 14.52 22.27 14.59 21.72C14.647 21.359 14.6837 20.9951 14.7 20.63C14.7 20.22 14.7 19.81 14.65 19.4H18H19.42C20.4926 19.4651 21.5691 19.3843 22.62 19.16C22.8824 19.0859 23.1268 18.959 23.3383 18.787C23.5498 18.6151 23.724 18.4017 23.85 18.16C23.948 17.9505 23.996 17.7211 23.99 17.49C23.9837 17.1922 23.9603 16.895 23.92 16.6Z" fill="black"/>
<path fill-rule="evenodd" clip-rule="evenodd" d="M10.37 8.99999L9.43 12.35C9.29872 12.6429 9.18518 12.9434 9.09 13.25C9.03579 13.4157 9.03579 13.5943 9.09 13.76C9.22108 14.0014 9.43921 14.1838 9.7 14.27C10.1182 14.4127 10.5583 14.4804 11 14.47H12.68C13.5 14.42 14.32 14.33 15.13 14.28C15.4994 14.3097 15.8706 14.3097 16.24 14.28C16.5259 14.239 16.7862 14.0928 16.97 13.87C17.2628 13.4467 17.3909 12.9311 17.33 12.42C17.1887 11.4976 16.9507 10.5926 16.62 9.71999C16.56 9.51999 16.48 9.03999 16.36 8.71999C16.3029 8.58623 16.2215 8.46417 16.12 8.35999C15.925 8.19969 15.6898 8.09592 15.44 8.05999C15.0081 8.01076 14.5719 8.01076 14.14 8.05999L10.85 8.35999C10.66 8.30999 10.37 8.99999 10.37 8.99999ZM10.92 9.14999C10.9399 9.08822 10.9399 9.02176 10.92 8.95999L14.21 8.81999C14.4763 8.80047 14.7437 8.80047 15.01 8.81999C15.1991 8.81631 15.3845 8.8723 15.54 8.97999L15.72 9.89999C15.9423 10.6155 16.1226 11.3434 16.26 12.08C16.3457 12.4156 16.3066 12.771 16.15 13.08C16.09 13 15.93 13.08 15.81 13.08H15.09L11 13.5C10.7539 13.5239 10.5061 13.5239 10.26 13.5C10.1603 13.5104 10.0597 13.5104 9.96 13.5C10.14 13.36 10.13 12.73 10.16 12.6L10.92 9.14999Z" fill="black"/>
</g>
<defs>
<clipPath id="clip0_1051_8844">
<rect width="24" height="24" fill="white"/>
</clipPath>
</defs>
</svg>
