<svg width="24" height="24" viewBox="0 0 24 24" fill="none" xmlns="http://www.w3.org/2000/svg">
<g clip-path="url(#clip0_1051_8867)">
<path fill-rule="evenodd" clip-rule="evenodd" d="M24 21.81C24.0087 21.3016 23.9016 20.7978 23.6868 20.3369C23.472 19.8761 23.155 19.4702 22.76 19.15C22.4967 18.9941 22.2095 18.8826 21.91 18.82C23.52 17.56 23.31 14.55 21.17 14.11C21.0839 14.1 20.9972 14.1224 20.9267 14.1727C20.8561 14.223 20.8068 14.2977 20.7881 14.3823C20.7694 14.4669 20.7828 14.5554 20.8256 14.6307C20.8685 14.706 20.9377 14.7628 21.02 14.79C22.69 15.19 22.52 18.79 19.43 18.15C17.5 17.72 17.84 14.29 20.43 14.48C20.504 14.476 20.5742 14.4457 20.6278 14.3945C20.6814 14.3433 20.7148 14.2745 20.7221 14.2007C20.7294 14.127 20.7099 14.053 20.6674 13.9923C20.6248 13.9317 20.5619 13.8882 20.49 13.87C19.8722 13.7682 19.2382 13.8756 18.6884 14.1752C18.1386 14.4749 17.7047 14.9495 17.4554 15.5239C17.2062 16.0982 17.1559 16.7393 17.3125 17.3455C17.4691 17.9517 17.8237 18.4883 18.32 18.87C17.8657 19.0239 17.456 19.2866 17.1266 19.6352C16.7971 19.9838 16.558 20.4077 16.43 20.87C16.0976 20.2066 15.5311 19.69 14.84 19.42C13.7 18.98 13.84 19.3 14.37 18.85C16.44 17.15 16.13 13.09 13.37 12.53C13.2839 12.52 13.1972 12.5424 13.1267 12.5927C13.0561 12.643 13.0068 12.7177 12.9881 12.8023C12.9694 12.8869 12.9828 12.9754 13.0256 13.0507C13.0685 13.126 13.1377 13.1828 13.22 13.21C15.92 13.89 15.35 19.45 10.91 18.37C8.01 17.77 8.43001 12.46 12.35 12.78C12.3894 12.7839 12.4292 12.78 12.4671 12.7686C12.505 12.7572 12.5403 12.7384 12.5709 12.7133C12.6016 12.6882 12.627 12.6574 12.6457 12.6225C12.6644 12.5876 12.6761 12.5494 12.68 12.51C12.6839 12.4706 12.6801 12.4308 12.6686 12.3929C12.6572 12.355 12.6384 12.3197 12.6133 12.289C12.5883 12.2584 12.5574 12.233 12.5225 12.2143C12.4876 12.1956 12.4494 12.1839 12.41 12.18C11.5428 12.0475 10.6565 12.2184 9.90074 12.6637C9.14495 13.109 8.56598 13.8015 8.26157 14.6242C7.95717 15.4469 7.94599 16.3495 8.22991 17.1795C8.51384 18.0095 9.07548 18.7161 9.82 19.18C9.23167 19.4278 8.68521 19.7651 8.2 20.18C7.2 21.03 7.83 21.13 7.3 20.09C7.03409 19.5422 6.56911 19.1165 6 18.9C5.55 18.76 5.62 18.82 5.68 18.77C6.23435 18.2861 6.58709 17.6119 6.66855 16.8806C6.75002 16.1493 6.55428 15.414 6.12 14.82C5.69 14.33 4.62 13.74 4.48 14.36C4.46438 14.4484 4.48239 14.5395 4.53049 14.6154C4.5786 14.6912 4.65333 14.7464 4.74 14.77C6 15.12 6 17.17 5 17.93C4.721 18.0953 4.41042 18.2003 4.08833 18.2382C3.76623 18.2761 3.43977 18.246 3.13 18.15C1.2 17.72 1.53 14.29 4.13 14.48C4.20404 14.476 4.27421 14.4457 4.3278 14.3945C4.38139 14.3433 4.41485 14.2745 4.4221 14.2007C4.42936 14.127 4.40994 14.053 4.36735 13.9923C4.32477 13.9317 4.26185 13.8882 4.19 13.87C3.57223 13.7682 2.93816 13.8756 2.3884 14.1752C1.83865 14.4749 1.40471 14.9495 1.15544 15.5239C0.906173 16.0982 0.855863 16.7393 1.01249 17.3455C1.16912 17.9517 1.52371 18.4883 2.02 18.87C1.40897 19.0912 0.874416 19.4835 0.480005 20C0.269221 20.2837 0.118032 20.6072 0.0355411 20.9509C-0.04695 21.2946 -0.059038 21.6515 4.71622e-06 22C0.0129911 22.0714 0.0506347 22.136 0.106372 22.1825C0.16211 22.229 0.232406 22.2545 0.305005 22.2545C0.377603 22.2545 0.447899 22.229 0.503637 22.1825C0.559375 22.136 0.597018 22.0714 0.610005 22C0.799354 21.4006 1.14444 20.8623 1.61 20.44C1.94723 20.0102 2.3526 19.6386 2.81 19.34C3.40833 19.4718 4.02987 19.4546 4.62 19.29C5.22151 19.5526 5.74257 19.9702 6.13 20.5C6.48209 20.9178 6.77485 21.3821 7 21.88C6.77506 22.4306 6.69585 23.0298 6.77 23.62C6.78299 23.6914 6.82063 23.756 6.87637 23.8025C6.93211 23.849 7.00241 23.8745 7.075 23.8745C7.1476 23.8745 7.2179 23.849 7.27364 23.8025C7.32937 23.756 7.36702 23.6914 7.38 23.62C7.4487 23.0283 7.68069 22.4673 8.05 22C8.60203 21.2819 9.23262 20.6279 9.93001 20.05L10.59 19.61C10.6351 19.5967 10.6763 19.5727 10.71 19.54C11.4888 19.728 12.3012 19.728 13.08 19.54C14.2054 20.0566 15.1371 20.9183 15.74 22C16.0527 22.5045 16.3108 23.0408 16.51 23.6C16.5378 23.6791 16.593 23.7457 16.6657 23.7875C16.7384 23.8293 16.8236 23.8437 16.906 23.8279C16.9884 23.8122 17.0624 23.7674 17.1145 23.7017C17.1666 23.636 17.1934 23.5538 17.19 23.47C17.1346 23.0269 17.0443 22.5889 16.92 22.16C17.05 21.97 16.86 21.91 17.34 21.16C17.41 21.06 17.95 20.47 18.02 20.39C18.3522 19.9556 18.7584 19.5832 19.22 19.29C19.8087 19.4169 20.4193 19.3997 21 19.24C21.5773 19.5258 22.0676 19.9608 22.42 20.5C22.7917 20.9533 23.0949 21.4587 23.32 22C23.3452 22.0901 23.4052 22.1666 23.4868 22.2126C23.5683 22.2585 23.6648 22.2702 23.755 22.245C23.8452 22.2198 23.9216 22.1598 23.9676 22.0782C24.0135 21.9966 24.0252 21.9001 24 21.81Z" fill="black"/>
<path fill-rule="evenodd" clip-rule="evenodd" d="M3.39001 2.08C3.39001 1.35 3.68001 1.31 3.39001 1.08C3.10001 0.850003 3.00001 0.940003 2.78001 1.6C2.65001 2.08 2.62001 2.85 2.56001 3.14C1.92572 6.29435 1.82768 9.53306 2.27001 12.72C2.27329 12.7679 2.28598 12.8148 2.30736 12.8578C2.32874 12.9008 2.35838 12.9392 2.39459 12.9708C2.43081 13.0023 2.47289 13.0265 2.51843 13.0418C2.56397 13.0571 2.61208 13.0633 2.66001 13.06C2.70794 13.0567 2.75476 13.044 2.79779 13.0227C2.84081 13.0013 2.87921 12.9716 2.91078 12.9354C2.94235 12.8992 2.96648 12.8571 2.98179 12.8116C2.9971 12.766 3.00329 12.7179 3.00001 12.67C2.83001 9.68 3.38001 2.52 3.39001 2.08Z" fill="black"/>
<path fill-rule="evenodd" clip-rule="evenodd" d="M19.3 4.61999C14.238 4.31059 9.16194 4.31059 4.09999 4.61999C3.53999 4.69999 3.53999 5.23999 4.09999 5.26999C5.85999 5.26999 7.75999 5.50999 11.24 5.51999C14.72 5.52999 16.9 5.34999 19.36 5.28999C19.4308 5.26256 19.4908 5.21284 19.5308 5.14834C19.5709 5.08383 19.5889 5.00805 19.5822 4.93241C19.5754 4.85677 19.5442 4.78539 19.4933 4.72904C19.4424 4.67268 19.3745 4.63441 19.3 4.61999Z" fill="black"/>
<path fill-rule="evenodd" clip-rule="evenodd" d="M5.00001 1.12998C7.92001 1.12998 10.93 0.959978 13.85 1.12998C15.98 1.24998 19.44 1.04998 20.67 2.02998C20.93 2.22998 21.02 4.23998 21.1 4.88998C21.4838 7.37721 21.5878 9.8996 21.41 12.41C21.4007 12.4895 21.4234 12.5695 21.4731 12.6324C21.5228 12.6952 21.5954 12.7357 21.675 12.745C21.7546 12.7543 21.8346 12.7316 21.8974 12.6819C21.9602 12.6322 22.0007 12.5595 22.01 12.48C22.3178 9.92757 22.3514 7.34953 22.11 4.78998C22.03 3.72998 22.16 1.78998 21.39 1.12998C19.67 -0.190022 16.18 0.189978 13.87 0.0999779C10.87 0.0199779 7.87001 0.309978 4.95001 0.439978C4.86855 0.458662 4.79646 0.505877 4.74679 0.573086C4.69711 0.640294 4.67313 0.72306 4.67917 0.806415C4.68521 0.889771 4.72088 0.968214 4.77972 1.02756C4.83857 1.0869 4.91671 1.12323 5.00001 1.12998Z" fill="black"/>
<path fill-rule="evenodd" clip-rule="evenodd" d="M5.00002 3.24995C5.06287 3.32041 5.1399 3.3768 5.22607 3.4154C5.31224 3.45401 5.40559 3.47397 5.50002 3.47397C5.59444 3.47397 5.68779 3.45401 5.77396 3.4154C5.86013 3.3768 5.93716 3.32041 6.00002 3.24995C6.07622 3.09666 6.09989 2.92256 6.06736 2.7545C6.03483 2.58643 5.94791 2.43373 5.82002 2.31995C5.18002 1.89995 4.39002 2.61995 5.00002 3.24995Z" fill="black"/>
<path fill-rule="evenodd" clip-rule="evenodd" d="M7.17 2.99999C7.23369 3.06908 7.31099 3.12422 7.39705 3.16193C7.48311 3.19965 7.57605 3.21912 7.67 3.21912C7.76396 3.21912 7.8569 3.19965 7.94296 3.16193C8.02902 3.12422 8.10632 3.06908 8.17 2.99999C8.26555 2.84041 8.30093 2.65195 8.26975 2.46858C8.23858 2.28522 8.14291 2.11903 8 1.99999C7.39 1.64999 6.6 2.35999 7.17 2.99999Z" fill="black"/>
<path fill-rule="evenodd" clip-rule="evenodd" d="M9.58999 3C9.65284 3.07047 9.72988 3.12685 9.81605 3.16546C9.90222 3.20406 9.99557 3.22402 10.09 3.22402C10.1844 3.22402 10.2778 3.20406 10.3639 3.16546C10.4501 3.12685 10.5271 3.07047 10.59 3C10.71 2.88 10.75 2.25 10.42 2.07C9.80999 1.65 8.99999 2.36 9.58999 3Z" fill="black"/>
</g>
<defs>
<clipPath id="clip0_1051_8867">
<rect width="24" height="24" fill="white"/>
</clipPath>
</defs>
</svg>
