<svg width="24" height="24" viewBox="0 0 24 24" fill="none" xmlns="http://www.w3.org/2000/svg">
<g clip-path="url(#clip0_1051_8862)">
<path fill-rule="evenodd" clip-rule="evenodd" d="M23.93 2.72999C23.8991 2.289 23.7422 1.86614 23.4781 1.51163C23.214 1.15712 22.8537 0.885836 22.44 0.729992C21.11 0.179992 19 0.569992 17.45 0.599992C14.88 0.669992 10 0.739992 6.27 0.839992C3.78 0.899992 1.83 0.999992 1.42 1.05999C1.13217 1.10447 0.850349 1.18164 0.580005 1.28999C0.403781 1.35981 0.255949 1.48652 0.160005 1.64999C0.0424004 1.94544 -0.0121001 2.26223 4.60923e-06 2.57999C4.60923e-06 3.23999 0.140005 3.99999 0.120005 4.47999C0.119631 4.55462 0.147087 4.62671 0.197013 4.68218C0.246938 4.73766 0.315748 4.77253 0.390005 4.77999C0.464635 4.78037 0.536725 4.75291 0.592197 4.70298C0.64767 4.65306 0.682542 4.58425 0.690005 4.50999C0.690005 4.04999 0.590005 3.24999 0.610005 2.58999C0.602709 2.36072 0.643589 2.13248 0.730005 1.91999C0.730005 1.84999 0.890005 1.84999 1.01 1.81999C1.18413 1.77199 1.36116 1.73525 1.54 1.70999C1.85 1.65999 3.04 1.63999 4.68 1.63999H17.47C18.798 1.49058 20.1367 1.46045 21.47 1.54999C21.8166 1.55808 22.1483 1.69271 22.4025 1.9285C22.6568 2.16429 22.8159 2.48494 22.85 2.82999L22.92 3.57999C22.92 3.72999 22.78 3.76999 22.67 3.79999C22.3722 3.8517 22.0678 3.8517 21.77 3.79999C20.47 3.79999 11.64 4.05999 6.15 4.15999H2.26C2.18358 4.17345 2.11435 4.21341 2.06446 4.27284C2.01458 4.33228 1.98723 4.40739 1.98723 4.48499C1.98723 4.56259 2.01458 4.6377 2.06446 4.69714C2.11435 4.75658 2.18358 4.79654 2.26 4.80999H8.13C13.54 4.80999 20.62 4.74999 21.78 4.80999C22.2732 4.8558 22.7705 4.79789 23.24 4.63999C23.4445 4.56229 23.6237 4.42971 23.7578 4.25682C23.8918 4.08393 23.9757 3.87742 24 3.65999L23.93 2.72999Z" fill="black"/>
<path fill-rule="evenodd" clip-rule="evenodd" d="M21.83 4.99999C21.788 4.99728 21.7458 5.0029 21.7059 5.01652C21.6661 5.03015 21.6293 5.05151 21.5977 5.07938C21.5661 5.10725 21.5403 5.14109 21.5219 5.17895C21.5034 5.21681 21.4926 5.25794 21.49 5.29999L21.13 15.24C21.1208 15.9091 21.0707 16.577 20.98 17.24C20.9232 17.6098 20.7639 17.9562 20.52 18.24C20.3254 18.4349 20.0727 18.5612 19.8 18.6C19.2748 18.6549 18.7453 18.6549 18.22 18.6L12.37 18.38C11.45 18.38 10.52 18.27 9.59002 18.24H8.37002L5.62002 18.31C4.92759 18.3602 4.23244 18.3602 3.54002 18.31C3.16047 18.3153 2.78796 18.2074 2.47002 18C2.3872 17.9021 2.34121 17.7782 2.34002 17.65C2.31958 17.3003 2.31958 16.9497 2.34002 16.6C2.34002 15.69 2.27002 12.71 2.28002 10.06C2.28002 8.11999 2.28002 6.35999 2.40002 5.72999C2.41049 5.69173 2.41271 5.65169 2.40654 5.61251C2.40037 5.57333 2.38595 5.53591 2.36422 5.50272C2.3425 5.46953 2.31397 5.44134 2.28053 5.42001C2.24709 5.39868 2.2095 5.3847 2.17025 5.37899C2.131 5.37328 2.09099 5.37597 2.05286 5.38689C2.01473 5.39781 1.97935 5.41671 1.94907 5.44233C1.9188 5.46796 1.89431 5.49972 1.87723 5.53552C1.86015 5.57132 1.85088 5.61034 1.85002 5.64999C1.76002 6.15999 1.69002 7.43999 1.63002 8.94999C1.52002 11.82 1.45002 15.56 1.44002 16.62C1.39992 17.0691 1.39992 17.5209 1.44002 17.97C1.48825 18.2467 1.621 18.5017 1.82002 18.7C2.16173 18.9744 2.56793 19.1568 3.00002 19.23C3.86529 19.3751 4.74383 19.4254 5.62002 19.38L8.39002 19.33H9.56002L10.95 19.41C10.9525 19.4266 10.9525 19.4434 10.95 19.46C10.9451 19.5499 10.9451 19.6401 10.95 19.73C10.9402 19.8197 10.9402 19.9103 10.95 20C10.9606 20.0583 10.9774 20.1152 11 20.17C10.6199 20.2626 10.2734 20.4601 10 20.74C9.72901 21.0127 9.54761 21.3615 9.48002 21.74C9.45505 21.9679 9.47966 22.1985 9.55215 22.4159C9.62465 22.6334 9.74331 22.8327 9.90002 23C10.2668 23.3313 10.7365 23.526 11.2301 23.5515C11.7237 23.577 12.211 23.4317 12.61 23.14C12.8199 22.9872 12.9883 22.7844 13.1 22.55C13.2351 22.2504 13.2758 21.9169 13.2169 21.5936C13.158 21.2703 13.0021 20.9726 12.77 20.74C12.5332 20.481 12.2282 20.2938 11.89 20.2C11.89 20.14 11.89 20.07 11.96 20C11.9703 19.9069 11.9703 19.813 11.96 19.72C11.9699 19.6303 11.9699 19.5397 11.96 19.45H12.32L18.18 19.61C18.7808 19.6514 19.3843 19.6279 19.98 19.54C20.4564 19.4546 20.8919 19.2158 21.22 18.86C21.5774 18.4363 21.8064 17.9194 21.88 17.37C21.9709 16.6705 22.011 15.9653 22 15.26C22.09 13.08 22 9.90999 22.07 7.25999C22.07 6.53999 22.07 5.86999 22.13 5.25999C22.1166 5.18921 22.0797 5.12503 22.0252 5.07785C21.9708 5.03066 21.902 5.00323 21.83 4.99999ZM12.34 22.25C12.2862 22.4097 12.185 22.5492 12.05 22.65C11.98 22.7 11.05 23.17 10.54 22.49C10.4866 22.4119 10.4509 22.3232 10.4354 22.2299C10.4199 22.1367 10.4248 22.0411 10.45 21.95C10.5027 21.7733 10.6072 21.6165 10.75 21.5C10.8925 21.3689 11.0638 21.273 11.25 21.22C11.3935 21.1866 11.543 21.1902 11.6847 21.2305C11.8264 21.2707 11.9555 21.3462 12.06 21.45C12.1819 21.5395 12.2739 21.6639 12.3239 21.8066C12.3738 21.9494 12.3795 22.104 12.34 22.25Z" fill="black"/>
<path fill-rule="evenodd" clip-rule="evenodd" d="M5.81 11.75V13.27C5.81 14.45 5.93 15.62 5.99 16.81C6.00345 16.8864 6.04341 16.9557 6.10285 17.0056C6.16229 17.0554 6.2374 17.0828 6.315 17.0828C6.39259 17.0828 6.46771 17.0554 6.52715 17.0056C6.58658 16.9557 6.62654 16.8864 6.64 16.81C6.64 16.32 6.64 15.81 6.71 15.35H9.12H10.31L11.5 15.24C12.43 15.13 13.35 14.97 14.28 14.79C14.3218 14.7852 14.3622 14.7719 14.3988 14.7509C14.4353 14.7299 14.4671 14.7018 14.4924 14.6681C14.5177 14.6344 14.5358 14.5959 14.5457 14.555C14.5556 14.514 14.5571 14.4715 14.55 14.43C14.5376 14.346 14.4932 14.27 14.4262 14.2178C14.3591 14.1657 14.2745 14.1414 14.19 14.15C13.19 14.21 12.3 14.15 11.35 14.22C10.72 14.22 10.09 14.22 9.46 14.32C8.54 14.4 7.65 14.56 6.75 14.72C6.75 14.25 6.75 13.77 6.82 13.29V12.56C8.04 12.44 9.26 12.42 10.5 12.37C11.37 12.37 12.24 12.3 13.1 12.25C14.57 12.15 16.02 12 17.47 11.82C17.5549 11.8134 17.6336 11.7733 17.6889 11.7086C17.7443 11.6439 17.7716 11.5599 17.765 11.475C17.7584 11.3901 17.7183 11.3114 17.6536 11.2561C17.5889 11.2007 17.5049 11.1734 17.42 11.18H13.5C12.62 11.18 11.74 11.18 10.87 11.29C9.52368 11.4174 8.18737 11.6345 6.87 11.94V11.76V10.24C6.87 9.93002 6.87 9.62002 6.81 9.30002C7.27861 9.39673 7.7529 9.46353 8.23 9.50002C8.52647 9.51501 8.82352 9.51501 9.12 9.50002L10 9.44002C10.68 9.36002 11.35 9.24002 12 9.13002C12.0849 9.13002 12.1663 9.0963 12.2263 9.03629C12.2863 8.97628 12.32 8.89489 12.32 8.81002C12.32 8.72515 12.2863 8.64375 12.2263 8.58374C12.1663 8.52373 12.0849 8.49002 12 8.49002C11.33 8.49002 10.65 8.43002 10 8.42002H9.09H8.23L6.77 8.53002C6.77 7.91002 6.68 7.28002 6.64 6.65002C6.6275 6.58357 6.59217 6.52358 6.54013 6.48042C6.48809 6.43726 6.42261 6.41364 6.355 6.41364C6.28739 6.41364 6.2219 6.43726 6.16986 6.48042C6.11782 6.52358 6.0825 6.58357 6.07 6.65002L5.92 8.86002C5.92 9.31002 5.86 9.77002 5.84 10.22C5.82 10.67 5.81 11.24 5.81 11.75Z" fill="black"/>
</g>
<defs>
<clipPath id="clip0_1051_8862">
<rect width="24" height="24" fill="white"/>
</clipPath>
</defs>
</svg>
