<svg width="24" height="24" viewBox="0 0 24 24" fill="none" xmlns="http://www.w3.org/2000/svg">
<g clip-path="url(#clip0_1050_8263)">
<path fill-rule="evenodd" clip-rule="evenodd" d="M4.47999 8.68997C4.64999 8.98997 4.86999 9.02997 5.04999 8.89997C5.43999 8.64997 4.78999 8.37997 5.17999 5.80997C5.60999 2.99997 7.17999 3.99997 7.52999 3.60997C7.59476 3.54286 7.63095 3.45324 7.63095 3.35997C7.63095 3.26671 7.59476 3.17708 7.52999 3.10997C7.23999 2.79997 6.59999 2.99997 6.35999 2.99997C4.93999 2.99997 4.12999 4.24997 3.99999 5.67997C3.99058 6.70309 4.15283 7.72053 4.47999 8.68997Z" fill="black"/>
<path fill-rule="evenodd" clip-rule="evenodd" d="M10.38 13.24C10.356 13.2722 10.3389 13.3091 10.3299 13.3483C10.3209 13.3875 10.3201 13.4281 10.3276 13.4676C10.3352 13.5071 10.3508 13.5446 10.3736 13.5777C10.3964 13.6108 10.4258 13.6389 10.46 13.66C10.55 13.73 10.24 13.91 12.71 12.89L12.93 12.8C12.8766 13.6065 13.0646 14.4107 13.47 15.11C13.47 15.2028 13.5069 15.2919 13.5725 15.3575C13.6382 15.4231 13.7272 15.46 13.82 15.46C14.67 15.46 13.96 12.58 13.67 12.53C13.67 12.44 13.54 12.63 16.49 11.2C18.94 10.01 19.28 10.33 19.43 9.89C20 8.1 10.9 12.37 10.38 13.24Z" fill="black"/>
<path fill-rule="evenodd" clip-rule="evenodd" d="M10.41 15.69C9.59 16.25 9.67 16.57 10.6 16.69C11.518 16.9524 12.3189 17.5204 12.87 18.3C13.2762 18.8188 13.5569 19.4246 13.69 20.07C13.87 20.43 14.09 20.51 14.45 19.72C14.19 17.2 12.13 15.53 10.41 15.69Z" fill="black"/>
<path fill-rule="evenodd" clip-rule="evenodd" d="M22.43 7.37999C21.9 5.73999 20.12 3.55999 18.43 3.93999C17.97 4.04999 17.48 4.18999 16.99 4.32999C16.8 3.81999 16.63 3.39999 16.58 3.26999C16.2914 2.53395 15.8032 1.89299 15.1704 1.41918C14.5375 0.945362 13.785 0.657467 12.9975 0.587858C12.2099 0.518248 11.4186 0.669683 10.7124 1.02514C10.0063 1.3806 9.41322 1.92598 9 2.59999C8.09082 4.31017 7.81796 6.28748 8.23 8.17999C7.08813 8.75788 5.9946 9.4267 4.96 10.18C4.4102 10.203 3.8734 10.3543 3.39246 10.6216C2.91151 10.889 2.49973 11.2652 2.19 11.72C0.829066 13.9909 0.0749205 16.5736 0 19.22C0.00360152 19.7295 0.171991 20.2241 0.48 20.63C0.55 20.71 4.48 23.79 7.34 23.42C7.63853 23.4056 7.93003 23.3244 8.19307 23.1825C8.45612 23.0406 8.68401 22.8416 8.86 22.6C10.76 19.54 8.55 10.78 6.09 10.66C6.02015 10.5946 5.94297 10.5376 5.86 10.49C6.57231 9.78455 7.40997 9.2182 8.33 8.81999C8.3681 8.98893 8.41482 9.15582 8.47 9.31999C8.83 10.32 9.58 10.01 9.47 9.58999C9.45529 9.52793 9.42118 9.47217 9.37263 9.43081C9.32408 9.38945 9.26361 9.36464 9.2 9.35999C9.2 9.24999 9.08 9.41999 8.97 8.49999C11.4374 7.38258 13.9763 6.43048 16.57 5.64999C17.07 7.03999 16.77 6.85999 16.85 7.00999C16.7726 7.03728 16.7073 7.09087 16.6655 7.16142C16.6236 7.23196 16.6078 7.31496 16.6209 7.39594C16.634 7.47691 16.6752 7.55072 16.7371 7.60446C16.7991 7.6582 16.878 7.68847 16.96 7.68999C17.41 7.68999 17.67 7.29999 17.6 6.60999C17.5512 6.20272 17.4641 5.80095 17.34 5.40999C18.5 5.05999 18.79 4.92999 19.04 5.02999C19.625 5.27949 20.1227 5.69715 20.47 6.22999C20.8387 6.67861 21.1232 7.19016 21.31 7.73999C22.31 10.9 23.74 14.11 22.1 17.05C21.83 17.54 21.1 17.58 20.5 17.79C18.06 18.71 11.24 22.3 9.91 22.32C9.8185 22.32 9.73075 22.3563 9.66605 22.421C9.60135 22.4857 9.565 22.5735 9.565 22.665C9.565 22.7565 9.60135 22.8442 9.66605 22.9089C9.73075 22.9736 9.8185 23.01 9.91 23.01C12.46 23.01 15.58 20.54 20.84 18.74C21.59 18.48 22.49 18.48 23.02 17.57C25 14.24 23.56 10.91 22.43 7.37999ZM6.94 12C7.94 13.34 8.61 17.31 8.64 19C8.70349 20.0468 8.46022 21.0894 7.94 22C6.8 23.74 1.44 20 1.37 19.87C0.81 19.23 1.37 16.62 1.79 14.87C2.21 13.12 2.79 11.54 4.25 10.96C4.74915 10.9015 5.25503 10.9657 5.72378 11.1469C6.19253 11.3281 6.61 11.621 6.94 12ZM8.94 7.79999C8.78497 6.39577 9.02389 4.97611 9.63 3.69999C9.81654 3.2741 10.0912 2.89258 10.436 2.58059C10.7807 2.26861 11.1877 2.03323 11.63 1.88999C12.4098 1.65859 13.245 1.69735 14 1.99999C15.22 2.49999 15.63 3.43999 16.16 4.64999C13.6647 5.50487 11.2406 6.55477 8.91 7.78999L8.94 7.79999Z" fill="black"/>
<path fill-rule="evenodd" clip-rule="evenodd" d="M21.35 13.37C21.6506 13.1492 21.9897 12.9864 22.35 12.89C22.85 12.89 22.85 11.95 22.09 11.99C21.5665 12.1357 21.0816 12.3952 20.67 12.75C19.3435 14.1348 18.5653 15.9543 18.48 17.87C18.48 18.46 18.79 18.36 19.48 17.42C19.8369 15.9622 20.4718 14.5871 21.35 13.37Z" fill="black"/>
</g>
<defs>
<clipPath id="clip0_1050_8263">
<rect width="24" height="24" fill="white"/>
</clipPath>
</defs>
</svg>
