<svg width="24" height="24" viewBox="0 0 24 24" fill="none" xmlns="http://www.w3.org/2000/svg">
<g clip-path="url(#clip0_1050_8277)">
<path fill-rule="evenodd" clip-rule="evenodd" d="M23.42 17.39C23.42 17.31 23.31 14.99 23.25 14.91C22.9302 14.5726 22.5748 14.2708 22.19 14.01C22.1611 13.9844 22.1275 13.9647 22.091 13.9521C22.0545 13.9395 22.0159 13.9342 21.9773 13.9365C21.9388 13.9388 21.9011 13.9487 21.8664 13.9656C21.8317 13.9825 21.8006 14.0061 21.775 14.035C21.7494 14.0639 21.7297 14.0975 21.7171 14.134C21.7045 14.1705 21.6992 14.2091 21.7016 14.2476C21.7039 14.2862 21.7138 14.3239 21.7307 14.3586C21.7475 14.3933 21.7711 14.4244 21.8 14.45C21.92 14.56 22.15 15.03 22.39 15.25C21.99 15.43 20.01 16.02 19.62 16.12C18.9712 15.5226 18.2405 15.0209 17.45 14.63C18.499 14.3813 19.5258 14.0469 20.52 13.63C24.52 11.55 20.52 7.17997 17.74 11.87C16.66 10.16 14.01 8.69997 12.52 10.16C11.03 11.62 12.99 13.16 14.69 14.1C15.1305 14.3108 15.5849 14.4912 16.05 14.64C15 15.04 14.2 14.91 13.4 15.53C11.4 14.31 11.4 14.15 11.24 14.1C11.5096 13.9196 11.812 13.7939 12.13 13.73C12.2202 13.73 12.3067 13.6941 12.3704 13.6304C12.4342 13.5666 12.47 13.4801 12.47 13.39C12.47 13.2998 12.4342 13.2133 12.3704 13.1496C12.3067 13.0858 12.2202 13.05 12.13 13.05C11.43 13.05 10.18 13.27 10.13 13.99C9.97497 15.1934 9.91478 16.4071 9.95 17.62C9.91538 18.5402 10.051 19.459 10.35 20.33C11.7162 21.4957 13.1818 22.5397 14.73 23.45C14.9699 23.6628 15.2539 23.8198 15.5617 23.9097C15.8694 23.9996 16.1933 24.0202 16.51 23.97C17.4109 23.7818 18.2993 23.538 19.17 23.24C20.5437 22.8583 21.84 22.2389 23 21.41C23.24 21.25 23.93 21.12 23.86 20.3C23.6545 19.3398 23.5075 18.368 23.42 17.39ZM18.6 12.64C20 9.70997 21.86 10.87 21.13 12C20.3866 12.8957 19.3539 13.504 18.21 13.72C18.3609 13.3679 18.4912 13.0073 18.6 12.64ZM13.18 10.85C14.18 9.94997 16.18 11.39 16.79 12.49C17.13 13.07 17.22 13.86 16.57 14.08C16.0557 13.9019 15.5545 13.6881 15.07 13.44C14.18 12.9 12.4 11.55 13.18 10.85ZM16.81 15.08C17.1 15.39 17.89 15.91 18.39 16.35C15.8 16.73 16.39 17.26 14.39 16.13C15 15.79 16.51 15.32 16.81 15.08ZM11.12 19.08C10.9554 17.5957 10.8753 16.1033 10.88 14.61C11.5355 15.2041 12.2232 15.7616 12.94 16.28C12.6976 17.7961 12.5473 19.3256 12.49 20.86C10.72 19.33 11.2 19.71 11.12 19.06V19.08ZM13.12 21.35C13.28 21.11 13.98 17.11 13.99 16.99C14.3316 17.2222 14.6854 17.4358 15.05 17.63C15.0703 19.0389 15.0102 20.4479 14.87 21.85C14.845 22.1528 14.845 22.4572 14.87 22.76C14.37 22.37 13.72 21.86 13.08 21.33L13.12 21.35ZM16.25 22.95C16.05 23 15.93 22.95 15.89 22.86C15.67 22.31 15.89 20.22 15.73 17.86C16.4753 17.9084 17.2227 17.8098 17.93 17.57C18.38 17.51 18.81 17.45 19.24 17.35C19.8535 18.6689 20.2389 20.0822 20.38 21.53C19.0253 22.0957 17.6317 22.5636 16.21 22.93L16.25 22.95ZM21 21.29C21.1703 19.8227 20.9278 18.337 20.3 17L22.37 16.13C23.03 15.91 22.44 16.13 22.7 17.41L23 20.16C22.3718 20.6011 21.702 20.9795 21 21.29Z" fill="black"/>
<path fill-rule="evenodd" clip-rule="evenodd" d="M9.37 5.33999C10.26 5.33999 11.17 5.24999 12.06 5.27999C14.82 5.34999 14.22 5.53999 14.31 5.81999L14.7 7.73999C14.7187 7.8107 14.7626 7.87213 14.8234 7.91275C14.8843 7.95336 14.9579 7.97035 15.0303 7.96052C15.1028 7.95069 15.1692 7.91473 15.217 7.85938C15.2648 7.80403 15.2908 7.73313 15.29 7.65999C15.01 5.08999 15.07 4.88999 14.54 4.65999C13.9128 4.44985 13.2663 4.30246 12.61 4.21999C12.615 3.18315 12.2617 2.17641 11.61 1.36999C11.3545 1.09497 11.045 0.875611 10.7009 0.725608C10.3568 0.575605 9.9854 0.498185 9.61 0.498185C9.23461 0.498185 8.86325 0.575605 8.51913 0.725608C8.17501 0.875611 7.86552 1.09497 7.61 1.36999C6.9675 2.2755 6.4995 3.29289 6.23 4.36999C6.23 4.50999 6.53 4.43999 4.13 4.62999C4.37592 3.658 4.71066 2.71069 5.13 1.79999C5.31919 1.43307 5.62216 1.13733 5.99353 0.957048C6.3649 0.77677 6.78469 0.721665 7.19 0.799987C7.234 0.808523 7.27924 0.80831 7.32315 0.799361C7.36706 0.790412 7.40878 0.772901 7.44592 0.747829C7.48307 0.722758 7.51491 0.690615 7.53963 0.653238C7.56435 0.61586 7.58147 0.573979 7.59 0.529987C7.59854 0.485994 7.59833 0.44075 7.58938 0.39684C7.58043 0.352929 7.56292 0.311211 7.53785 0.274068C7.51277 0.236924 7.48063 0.205083 7.44325 0.180361C7.40588 0.15564 7.364 0.138523 7.32 0.129987C6.81998 -0.0197622 6.29017 -0.0404042 5.78 0.0699866C5.21052 0.21996 4.6992 0.537499 4.3123 0.981462C3.92539 1.42543 3.68072 1.97535 3.61 2.55999C3.4913 3.27128 3.41782 3.98939 3.39 4.70999C2.66 4.70999 2.57 4.70999 2.49 4.86999C2.41 5.02999 2.28 4.99999 2.08 6.11999C1.32 9.23999 1.08 9.69999 0.770004 11.05C0.426457 12.487 0.22218 13.9538 0.160004 15.43C0.350004 17.24 2.33 16.89 3.88 16.92L7.58 17.1C7.66288 17.0995 7.74274 17.0688 7.80457 17.0137C7.8664 16.9585 7.90595 16.8826 7.91577 16.8003C7.9256 16.718 7.90503 16.635 7.85793 16.5668C7.81083 16.4986 7.74044 16.4499 7.66 16.43L5 16.17C5.01781 15.4461 4.99778 14.7218 4.94 14C4.87581 11.3216 4.64537 8.6498 4.25 5.99999C4.25 5.74999 4.25 5.61999 4.17 5.43999C6.35 5.43999 7 5.45999 9.37 5.33999ZM8.15 2.38999C9.26 1.06999 11.41 1.38999 11.88 4.17999C10.2292 4.11674 8.57601 4.20041 6.94 4.42999C7.26863 3.70836 7.67432 3.02439 8.15 2.38999ZM4.32 16.09C3.41 16 2.77 16 2.1 15.93C1.18 15.78 1.22 15.59 1.26 15.01C1.3 14.43 1.83 11.08 2.41 8.51999C2.94 4.92999 2.79 5.51999 3.18 5.42999H3.5C3.4891 5.64898 3.51272 5.86833 3.57 6.07999C3.57 8.07999 3.57 10.08 3.65 11.31C3.71 12 4.2 15.69 4.32 16.09Z" fill="black"/>
</g>
<defs>
<clipPath id="clip0_1050_8277">
<rect width="24" height="24" fill="white"/>
</clipPath>
</defs>
</svg>
