<svg width="24" height="24" viewBox="0 0 24 24" fill="none" xmlns="http://www.w3.org/2000/svg">
<g clip-path="url(#clip0_1034_4462)">
<path fill-rule="evenodd" clip-rule="evenodd" d="M23 3.11999C22.45 2.55999 20 0.309995 19.21 0.119995C18.42 -0.070005 6.46 -5.04497e-06 5.65 -5.04497e-06C5.55718 -5.04497e-06 5.46815 0.0368699 5.40251 0.102508C5.33688 0.168145 5.3 0.257169 5.3 0.349995C5.3 0.442821 5.33688 0.531845 5.40251 0.597482C5.46815 0.66312 5.55718 0.699995 5.65 0.699995C6.34 0.699995 18.29 0.819995 18.94 0.989995C20.08 1.76861 21.1416 2.65611 22.11 3.64C22.01 3.74 22.18 4.17999 22.19 4.63999C22.25 7.26999 22.13 14.53 22.09 16.05C21 17 13.81 22.8 12.43 22.83C10.51 22.89 2.97 18.58 1.77 17.15C1.65 15.74 1.41 4.91999 1.41 4.64999C7.86513 5.00472 14.3349 5.00472 20.79 4.64999C20.8828 4.64999 20.9719 4.61312 21.0375 4.54748C21.1031 4.48184 21.14 4.39282 21.14 4.29999C21.14 4.20717 21.1031 4.11814 21.0375 4.05251C20.9719 3.98687 20.8828 3.95 20.79 3.95C14.3804 3.62173 7.9578 3.63842 1.55 3.99999C1.95709 3.00406 2.48793 2.06333 3.13 1.2C3.17507 1.13579 3.19411 1.05688 3.1833 0.979185C3.17249 0.901489 3.13262 0.830781 3.07174 0.781315C3.01086 0.731848 2.93349 0.707302 2.85523 0.712624C2.77696 0.717947 2.70363 0.752742 2.65 0.809995C2.33035 1.18175 2.04267 1.57983 1.79 1.99999C1.49498 2.63662 1.16102 3.25445 0.790002 3.84999C0.725908 3.9293 0.690649 4.02803 0.690002 4.12999C0.690002 4.47 0.690002 17.24 0.890002 17.58C2.06 19.24 10 24 12.45 24C14.35 24 22.37 17.45 23.08 16.72C23.1895 16.5917 23.2498 16.4287 23.25 16.26C23.25 16.17 23.44 3.59999 23 3.11999Z" fill="black"/>
<path fill-rule="evenodd" clip-rule="evenodd" d="M9.07 15.43C9.07 15.11 8.22 14.89 8.22 15.43V17.58C8.23178 17.6684 8.27426 17.7498 8.34 17.81C8.98505 18.454 9.7585 18.9548 10.61 19.28C11 19.45 11.74 20.11 12.28 19.85C13.2436 19.3215 14.1544 18.702 15 18C15.39 17.71 16.15 17.39 16.37 16.77C16.5256 15.9289 16.5525 15.0691 16.45 14.22C16.45 11.55 16.5 11.85 16.45 11.68C16.31 10.78 14.93 11.16 14.54 11.14C13.313 11.0334 12.0804 11.0067 10.85 11.06C12.4689 10.064 14.0313 8.97899 15.53 7.80999C15.76 7.64999 16.06 7.49999 16.05 7.17999C16.0179 7.04613 15.9408 6.92736 15.8316 6.8436C15.7223 6.75985 15.5876 6.71621 15.45 6.71999L14.51 6.78999C8.28 6.90999 7.87 6.47999 7.22 6.86999C7.07 6.94999 7.22 7.37999 7.3 7.51999C7.38 7.65999 11.41 7.62999 13.98 7.67999C9.98 10.68 7.9 10.93 7.9 11.8C7.89666 11.9364 7.94066 12.0697 8.02453 12.1772C8.1084 12.2848 8.22694 12.36 8.36 12.39C8.46 12.39 15.27 12.27 15.36 12.26C15.29 13.72 15.63 15.86 15.44 16.46C15.35 16.72 15.44 16.34 12.04 18.83C10.37 18.09 9.88 18.04 9.2 17.42C9.2 17.34 9.08 15.52 9.07 15.43Z" fill="black"/>
</g>
<defs>
<clipPath id="clip0_1034_4462">
<rect width="24" height="24" fill="white"/>
</clipPath>
</defs>
</svg>
