<svg width="24" height="24" viewBox="0 0 24 24" fill="none" xmlns="http://www.w3.org/2000/svg">
<g clip-path="url(#clip0_1034_4410)">
<path fill-rule="evenodd" clip-rule="evenodd" d="M9.27 13.3C10.1154 12.8283 10.9304 12.3039 11.71 11.73C11.7526 11.6462 11.7607 11.5492 11.7327 11.4595C11.7047 11.3698 11.6427 11.2946 11.56 11.25C10.97 10.87 10.41 10.47 9.81 10.09L9.06 9.63C8.79 9.48 8.54 9.34 8.27 9.22C7.67 8.93 7.07 8.7 6.48 8.44C6.48 8.32 6.57 8.21 6.61 8.08C6.65 7.95 6.61 7.9 6.61 7.82V7.68C7.30157 7.67087 7.98966 7.58025 8.66 7.41C9.32985 7.23625 9.94316 6.8917 10.44 6.41C10.7305 6.15123 10.9574 5.82894 11.1031 5.46819C11.2488 5.10744 11.3093 4.71795 11.28 4.33C11.2418 3.95343 11.124 3.58928 10.9343 3.26171C10.7447 2.93414 10.4876 2.65064 10.18 2.43C9.73545 2.1028 9.23342 1.86196 8.7 1.72C8.18087 1.58591 7.64611 1.52201 7.11 1.53C7.01453 1.53 6.92296 1.56793 6.85544 1.63544C6.78793 1.70296 6.75 1.79453 6.75 1.89C6.75253 1.98468 6.79127 2.07479 6.85824 2.14176C6.92522 2.20874 7.01532 2.24748 7.11 2.25C7.5727 2.26246 8.031 2.34333 8.47 2.49C8.8906 2.62573 9.28347 2.83572 9.63 3.11C9.82588 3.26458 9.98747 3.45818 10.1045 3.67853C10.2216 3.89889 10.2916 4.14117 10.31 4.39C10.3087 4.62833 10.2541 4.86335 10.1503 5.07788C10.0465 5.29242 9.89605 5.48105 9.71 5.63C9.31776 5.96039 8.85099 6.19034 8.35 6.3C7.51886 6.47571 6.66844 6.54294 5.82 6.5C5.41906 6.51011 5.01793 6.49005 4.62 6.44C4.22783 6.39947 3.83978 6.32587 3.46 6.22C2.92121 6.09837 2.44087 5.79463 2.1 5.36C1.95051 5.15711 1.86174 4.91591 1.84403 4.66451C1.82633 4.41311 1.88042 4.16185 2 3.94L2.33 3.36C2.80507 2.91309 3.37642 2.58123 4 2.39C4.64746 2.17581 5.31951 2.04476 6 2C6.08487 2 6.16627 1.96629 6.22628 1.90628C6.28629 1.84627 6.32 1.76487 6.32 1.68C6.32 1.59513 6.28629 1.51374 6.22628 1.45373C6.16627 1.39372 6.08487 1.36 6 1.36C5.09441 1.35075 4.19313 1.48578 3.33 1.76C2.72181 1.94813 2.15975 2.26152 1.68 2.68C1.58556 2.78011 1.49866 2.88707 1.42 3C1.31028 3.15174 1.21329 3.31229 1.13 3.48C0.900179 3.86346 0.78552 4.30493 0.799705 4.75176C0.81389 5.19859 0.956321 5.6319 1.21 6C1.6919 6.68469 2.40028 7.17702 3.21 7.39C3.64879 7.51772 4.09679 7.61133 4.55 7.67C4.86 7.67 5.17 7.67 5.49 7.72V7.83C5.48017 7.91639 5.48017 8.00361 5.49 8.09C5.52488 8.2414 5.57514 8.38883 5.64 8.53C5.06 8.7 4.48 8.86 3.91 9.09C3.63 9.21 3.34 9.35 3.06 9.49C2.78 9.63 2.52 9.79 2.26 9.96C1.63 10.34 1.05 10.75 0.430003 11.15C0.285234 11.3421 0.151678 11.5425 0.0300034 11.75C0.0113775 11.8321 0.0248161 11.9182 0.0675702 11.9907C0.110324 12.0632 0.179163 12.1166 0.260003 12.14C0.456994 12.2235 0.644687 12.3274 0.820003 12.45C1.29 12.77 1.71 13.18 2.16 13.45C2.62291 13.7016 3.10043 13.9253 3.59 14.12C4.22828 14.348 4.8794 14.5384 5.54 14.69C5.54 14.87 5.42 15.04 5.38 15.23C5.36506 15.3395 5.36506 15.4505 5.38 15.56C5.36962 15.6731 5.36962 15.7869 5.38 15.9C5.4234 16.1209 5.48357 16.3382 5.56 16.55H1.56C1.47678 16.5472 1.39575 16.577 1.33413 16.633C1.27252 16.6891 1.23516 16.7669 1.23 16.85C1.23256 16.9318 1.26451 17.0099 1.32 17.07C1.08 17.62 0.860003 18.16 0.660003 18.73C0.522031 19.1464 0.408505 19.5704 0.320003 20C0.320003 20.2 0.120003 20.83 0.0700034 21.25C0.0529466 21.4355 0.0733507 21.6225 0.130003 21.8C0.217052 21.9578 0.337187 22.0949 0.482175 22.2019C0.627162 22.3089 0.793574 22.3833 0.970003 22.42C1.75677 22.6004 2.5631 22.681 3.37 22.66C5.5928 22.5965 7.80832 22.376 10 22C10.49 21.92 9.9 22 10.77 19.62C10.86 19.35 10.95 19.07 11.03 18.79C11.1025 18.5275 11.156 18.2602 11.19 17.99C11.2048 17.7398 11.1603 17.4897 11.06 17.26C10.9764 17.072 10.8218 16.9246 10.63 16.85C10.4049 16.7715 10.1684 16.7309 9.93 16.73L8.51 16.56H7.64L6.34 16.61C6.34 16.4 6.45 16.2 6.49 15.98C6.50038 15.8669 6.50038 15.7531 6.49 15.64C6.49947 15.5235 6.49947 15.4065 6.49 15.29C6.4355 15.1122 6.36867 14.9385 6.29 14.77L7.84 14.14C8.35 13.82 8.82 13.59 9.27 13.3ZM8.42 17.74L9.89 17.85C9.97992 17.8556 10.0701 17.8556 10.16 17.85V18C10.149 18.1814 10.1256 18.3618 10.09 18.54C10.0357 18.8772 9.96225 19.2111 9.87 19.54C9.72 20.07 9.54 20.59 9.4 21.11C9.38546 21.1555 9.38546 21.2045 9.4 21.25C8.67 21.25 7.47 21.34 6.16 21.36H3.92C3.19 21.36 2.32 21.36 1.75 21.27H1.13C0.800003 21.27 1.21 20.27 1.23 20.03C1.28333 19.5684 1.36684 19.1107 1.48 18.66C1.6 18.19 1.73 17.73 1.88 17.28C1.88508 17.2469 1.88508 17.2131 1.88 17.18L5.71 17.6L8.42 17.74ZM6.22 13.94L6 14.08L2.7 12.41C2.19 12.21 1.7 11.92 1.17 11.72C1.11469 11.6963 1.05791 11.6763 1 11.66C1.6 11.43 2.2 11.2 2.78 10.94L3.63 10.54C3.9 10.4 4.17 10.26 4.43 10.1C5 9.75 5.55 9.37 6.14 9C6.66 9.41 7.14 9.83 7.69 10.2C7.93848 10.3697 8.19548 10.5266 8.46 10.67C8.73 10.82 9 10.95 9.27 11.07C9.54 11.19 9.97 11.36 10.27 11.5C9.72 11.74 9.17 11.97 8.63 12.26C8.09 12.55 7.73 12.8 7.28 13.06C6.83 13.32 6.6 13.67 6.22 13.94Z" fill="black"/>
<path fill-rule="evenodd" clip-rule="evenodd" d="M1.08 21.18C1.08 21.23 1.08 21.25 1.14 21.27C1.2 21.29 1.11 21.14 1.08 21.18Z" fill="black"/>
<path d="M19.4 7.44999V6.62999L19.27 5.69999C19.2032 5.39423 19.0735 5.10569 18.8893 4.85264C18.7052 4.5996 18.4704 4.38757 18.2 4.22999C17.4423 3.93925 16.6288 3.82304 15.82 3.88999C14.92 3.88999 14.02 3.99999 13.11 4.01999H11.97C11.887 4.01109 11.8036 4.03401 11.7368 4.08411C11.67 4.13422 11.6247 4.20779 11.61 4.28999C11.5986 4.37346 11.6205 4.45807 11.671 4.52547C11.7216 4.59286 11.7967 4.63761 11.88 4.64999C12.4017 4.76001 12.9292 4.84014 13.46 4.88999C14.24 4.97999 15.02 5.01999 15.79 5.09999C16.4145 5.04315 17.0441 5.11462 17.64 5.30999C17.9449 5.46945 18.1747 5.74244 18.28 6.06999L18.46 6.72999C18.46 6.95999 18.46 7.19999 18.51 7.43999V7.55999C18.41 7.79999 19.24 7.84999 19.35 7.55999C19.39 7.49999 19.39 7.46999 19.4 7.44999Z" fill="black"/>
<path d="M18 15.85C17.9741 16.2361 17.924 16.6202 17.85 17C17.8067 17.2383 17.7431 17.4725 17.66 17.7C17.6135 17.8701 17.5315 18.0284 17.4195 18.1645C17.3075 18.3007 17.1679 18.4116 17.01 18.49C16.6255 18.6749 16.2065 18.7771 15.78 18.79C14.85 18.89 13.91 18.91 12.98 19C12.5672 19.0287 12.1564 19.0821 11.75 19.16C11.667 19.1746 11.5924 19.2196 11.5407 19.2861C11.489 19.3526 11.4638 19.436 11.47 19.52C11.4824 19.6033 11.5271 19.6784 11.5945 19.729C11.6619 19.7795 11.7465 19.8014 11.83 19.79H13C13.95 19.79 14.89 19.94 15.83 19.96C16.5665 19.9742 17.2906 19.7688 17.91 19.37C18.349 19.0271 18.6563 18.5432 18.78 18C18.864 17.6384 18.9176 17.2705 18.94 16.9C18.96 16.5503 18.96 16.1997 18.94 15.85V15C18.9372 14.8949 18.896 14.7946 18.8242 14.7178C18.7525 14.641 18.6551 14.5932 18.5504 14.5834C18.4458 14.5735 18.3412 14.6023 18.2564 14.6644C18.1715 14.7264 18.1124 14.8173 18.09 14.92L18 15.85Z" fill="black"/>
<path d="M24 10.6C23.84 8.25002 23.33 8.42002 23.29 8.42002H23.22C22.122 8.22272 21.0135 8.08916 19.9 8.02002H17.56C16.86 8.02002 16.19 8.09002 15.56 8.16002C15.0845 8.2136 14.6133 8.30048 14.15 8.42002C13.7879 8.9885 13.5243 9.61392 13.37 10.27C13.328 10.5013 13.3013 10.7352 13.29 10.97C13.2751 11.2031 13.2751 11.4369 13.29 11.67C13.3602 12.215 13.4979 12.7491 13.7 13.26C13.7259 13.3522 13.7855 13.4311 13.8671 13.4812C13.9487 13.5313 14.0461 13.5487 14.14 13.53C14.1881 13.516 14.2327 13.4917 14.2707 13.4589C14.3086 13.4262 14.3391 13.3856 14.36 13.34C14.3603 13.4045 14.3821 13.4671 14.422 13.5178C14.4618 13.5685 14.5174 13.6045 14.58 13.62C15.0396 13.7616 15.5118 13.8587 15.99 13.91C16.64 14 18.78 14.08 19.19 14.12H20.19C21.2981 14.0967 22.4037 14.0032 23.5 13.84C23.73 13.84 23.77 14.01 23.95 11.68C23.9942 11.3218 24.0109 10.9608 24 10.6ZM19.69 13H18.05C17.28 13 16.48 13.15 15.69 13.15C15.3556 13.1572 15.0212 13.1371 14.69 13.09C14.6212 13.0754 14.5495 13.0854 14.4874 13.1183C14.4252 13.1512 14.3766 13.2049 14.35 13.27C14.35 13.27 14.35 13.22 14.35 13.18C14.3298 12.9037 14.3298 12.6263 14.35 12.35C14.35 12.07 14.4 11.8 14.42 11.52C14.44 11.24 14.42 10.97 14.42 10.7V9.12002H15.14C15.92 9.12002 16.69 9.25002 17.5 9.31002H22.87C22.87 9.71002 22.77 10.1 22.74 10.5V11.19V11.89C22.74 12.36 22.85 12.82 22.91 13.28C21.89 13.14 20.8 13 19.69 13Z" fill="black"/>
</g>
<defs>
<clipPath id="clip0_1034_4410">
<rect width="24" height="24" fill="white"/>
</clipPath>
</defs>
</svg>
