<svg width="24" height="24" viewBox="0 0 24 24" fill="none" xmlns="http://www.w3.org/2000/svg">
<g clip-path="url(#clip0_1034_4424)">
<path fill-rule="evenodd" clip-rule="evenodd" d="M2.75001 10.15C2.75001 10.67 2.94001 11.15 3.00001 11.63C2.99728 11.6789 3.00458 11.7279 3.02145 11.7739C3.03832 11.8199 3.0644 11.862 3.09811 11.8976C3.13181 11.9331 3.17242 11.9615 3.21746 11.9808C3.26249 12.0001 3.311 12.0101 3.36001 12.01C3.45913 12.0127 3.55541 11.9766 3.62827 11.9093C3.70114 11.8421 3.74482 11.749 3.75001 11.65L3.90001 10.51C5.02687 10.3484 6.16206 10.2516 7.30001 10.22C7.30001 10.63 7.40001 11.04 7.46001 11.45C7.45731 11.4986 7.46423 11.5472 7.48037 11.5932C7.49651 11.6391 7.52155 11.6814 7.55407 11.7176C7.58658 11.7538 7.62593 11.7833 7.66984 11.8043C7.71376 11.8253 7.76139 11.8374 7.81001 11.84C7.91016 11.8428 8.00757 11.807 8.08205 11.74C8.15652 11.673 8.20234 11.5799 8.21001 11.48C8.28001 11.04 8.37001 10.62 8.43001 10.19H9.43001C10.13 10.19 10.82 10.19 11.51 10.25V11.14V11.85L10.8 11.91C10.18 12.01 9.59001 12.18 8.99001 12.3C8.90159 12.3051 8.81868 12.3446 8.75891 12.41C8.69915 12.4753 8.66725 12.5615 8.67001 12.65C8.67763 12.7366 8.71816 12.817 8.78326 12.8747C8.84837 12.9323 8.93309 12.9629 9.02001 12.96C9.73001 13.02 10.41 13.12 11.14 13.12H11.58V13.26C11.5685 13.3578 11.5954 13.4563 11.6551 13.5346C11.7148 13.613 11.8026 13.6651 11.9 13.68C11.9488 13.6885 11.9989 13.6868 12.0471 13.675C12.0952 13.6633 12.1404 13.6417 12.1799 13.6117C12.2193 13.5816 12.2521 13.5438 12.2762 13.5004C12.3003 13.4571 12.3152 13.4093 12.32 13.36C12.3248 13.2667 12.3248 13.1732 12.32 13.08C12.94 13.08 13.53 12.94 14.14 12.95C14.1887 12.957 14.2382 12.9543 14.2858 12.9419C14.3334 12.9296 14.378 12.9079 14.4171 12.8781C14.4562 12.8483 14.489 12.811 14.5135 12.7684C14.5381 12.7258 14.5539 12.6788 14.56 12.63C14.567 12.5813 14.5643 12.5318 14.552 12.4842C14.5396 12.4366 14.5179 12.3919 14.4881 12.3528C14.4583 12.3137 14.421 12.281 14.3784 12.2564C14.3358 12.2319 14.2888 12.2161 14.24 12.21C13.6665 12.0591 13.081 11.9587 12.49 11.91C12.5603 11.58 12.6104 11.2461 12.64 10.91V10.3H13.75L15.64 10.44C15.64 10.77 15.73 11.11 15.8 11.44C15.8013 11.4894 15.8124 11.5382 15.8329 11.5832C15.8533 11.6283 15.8826 11.6688 15.9189 11.7024C15.9553 11.736 15.998 11.7619 16.0446 11.7787C16.0911 11.7954 16.1406 11.8027 16.19 11.8C16.2899 11.7923 16.383 11.7465 16.4501 11.672C16.5171 11.5975 16.5529 11.5001 16.55 11.4C16.55 11.1 16.62 10.81 16.67 10.51C17.17 10.51 17.67 10.56 18.18 10.62L20.31 10.78C20.31 11.12 20.39 11.45 20.41 11.78C20.4071 11.8801 20.4429 11.9775 20.51 12.052C20.577 12.1265 20.6701 12.1723 20.77 12.18C20.8194 12.1827 20.8689 12.1754 20.9154 12.1587C20.962 12.1419 21.0047 12.116 21.0411 12.0824C21.0775 12.0488 21.1067 12.0083 21.1271 11.9632C21.1476 11.9182 21.1587 11.8694 21.16 11.82C21.2826 11.3321 21.3794 10.8381 21.45 10.34C21.4699 10.1204 21.4699 9.89953 21.45 9.67998C21.5012 9.45662 21.5313 9.22896 21.54 8.99998C21.18 7.05998 21.15 7.21998 20.98 7.17998C20.657 7.10172 20.3298 7.04163 20 6.99998C19.24 6.86998 18.45 6.81998 17.7 6.71998C16.2678 6.51816 14.8257 6.39464 13.38 6.34998C11.9184 6.32372 10.4564 6.37379 9.00001 6.49998C7.83001 6.63998 6.68001 6.69998 5.55001 6.85998C2.64001 7.24998 3.00001 7.49998 2.75001 9.10998C2.69995 9.45484 2.69995 9.80512 2.75001 10.15ZM19.56 7.76998C19.84 7.76998 20.11 7.82998 20.39 7.86998C20.39 8.27998 20.39 8.67998 20.34 9.09998V9.70998V9.96998L18.4 9.67998C17.9 9.59998 17.4 9.54998 16.89 9.46998C16.8955 9.43352 16.8955 9.39644 16.89 9.35998V8.73998C16.89 8.36998 16.81 8.01998 16.76 7.65998H17.57C18.23 7.71998 18.89 7.71998 19.56 7.76998ZM16 7.64998C15.91 7.98998 15.8 8.31998 15.74 8.64998C15.7047 8.85487 15.6846 9.06211 15.68 9.26998C15.11 9.18998 14.55 9.07998 13.98 9.02998C13.56 9.02998 13.14 9.02998 12.72 8.97998C12.72 8.50998 12.63 8.03998 12.61 7.56998H13.37C14.21 7.58998 15.09 7.61998 16 7.64998ZM9.13001 7.64998C10.04 7.58998 10.95 7.64998 11.86 7.64998C11.76 8.08998 11.68 8.53998 11.62 8.98998H10.96C10.15 8.98998 9.35001 9.08998 8.54001 9.15998C8.54502 9.07338 8.54502 8.98657 8.54001 8.89998C8.54001 8.49998 8.45001 8.11998 8.40001 7.73998L9.13001 7.64998ZM5.67001 7.64998H7.67001C7.55557 8.00756 7.46208 8.37151 7.39001 8.73998V9.14998C6.28001 9.28998 5.18001 9.49998 4.09001 9.74998V8.99998C4.03647 8.63897 4.00641 8.27487 4.00001 7.90998C4.54188 7.80861 5.08965 7.7418 5.64001 7.70998L5.67001 7.64998Z" fill="black"/>
<path fill-rule="evenodd" clip-rule="evenodd" d="M23 20C22.3415 19.7859 21.763 19.3782 21.34 18.83C20.9698 18.2925 20.7774 17.6525 20.79 17C20.7595 16.0211 20.6049 15.05 20.33 14.11C20.2076 13.752 20.0025 13.4278 19.7315 13.1637C19.4605 12.8996 19.1311 12.7031 18.77 12.59C18.7222 12.5668 18.6701 12.5538 18.617 12.552C18.5638 12.5502 18.5109 12.5595 18.4617 12.5794C18.4124 12.5993 18.3678 12.6293 18.3309 12.6675C18.2939 12.7057 18.2654 12.7512 18.2471 12.8011C18.2288 12.851 18.2212 12.9042 18.2248 12.9572C18.2283 13.0102 18.243 13.0619 18.2678 13.1089C18.2925 13.156 18.3269 13.1973 18.3686 13.2302C18.4103 13.2631 18.4585 13.2869 18.51 13.3C18.7344 13.4056 18.9304 13.5632 19.0817 13.7598C19.233 13.9563 19.3353 14.186 19.38 14.43C19.4853 14.9328 19.5257 15.447 19.5 15.96V17.09C19.5668 17.9969 19.9407 18.854 20.56 19.52C21.1808 20.1331 21.9849 20.5264 22.85 20.64C22.8935 20.6544 22.9395 20.6596 22.9852 20.6553C23.0308 20.6509 23.075 20.6371 23.115 20.6147C23.155 20.5923 23.1899 20.5618 23.2174 20.5252C23.245 20.4886 23.2646 20.4467 23.2751 20.402C23.2856 20.3574 23.2866 20.3111 23.2782 20.2661C23.2697 20.221 23.252 20.1782 23.2262 20.1404C23.2003 20.1026 23.1668 20.0706 23.1279 20.0464C23.0889 20.0222 23.0454 20.0064 23 20Z" fill="black"/>
<path fill-rule="evenodd" clip-rule="evenodd" d="M9.27 15.83C9.2243 15.8484 9.18286 15.876 9.14825 15.911C9.11364 15.9461 9.08659 15.9879 9.06878 16.0338C9.05097 16.0797 9.04277 16.1288 9.0447 16.1781C9.04663 16.2273 9.05865 16.2756 9.08 16.32C9.15951 16.5335 9.17918 16.7646 9.13688 16.9884C9.09458 17.2122 8.99193 17.4203 8.84 17.59C8.56444 17.8867 8.25955 18.1547 7.93 18.39C7.56651 18.6917 7.23174 19.0265 6.93 19.39C6.64792 19.8022 6.40678 20.2409 6.21 20.7C5.95 21.35 5.78 22.02 5.57 22.7C5.53957 22.7811 5.54126 22.8708 5.57471 22.9507C5.60816 23.0306 5.67086 23.0947 5.75 23.13C5.82113 23.1603 5.90083 23.1638 5.97436 23.1399C6.04789 23.116 6.11028 23.0663 6.15 23C6.43 22.47 6.69 22 6.97 21.49C7.22941 21.0189 7.53779 20.5764 7.89 20.17C8.15986 19.8636 8.45056 19.5763 8.76 19.31C9.12018 18.9701 9.43299 18.5833 9.69 18.16C9.90212 17.8427 10.0219 17.4727 10.0361 17.0913C10.0502 16.7099 9.95807 16.3321 9.77 16C9.72317 15.9141 9.64577 15.849 9.55315 15.8175C9.46054 15.786 9.35948 15.7905 9.27 15.83Z" fill="black"/>
<path fill-rule="evenodd" clip-rule="evenodd" d="M16.38 19.41C16.0783 19.0465 15.7435 18.7117 15.38 18.41C15.0504 18.1747 14.7456 17.9067 14.47 17.61C14.3181 17.4403 14.2154 17.2323 14.1731 17.0084C14.1308 16.7846 14.1505 16.5535 14.23 16.34C14.2513 16.2956 14.2634 16.2473 14.2653 16.1981C14.2672 16.1488 14.259 16.0997 14.2412 16.0538C14.2234 16.0079 14.1964 15.9661 14.1617 15.931C14.1271 15.896 14.0857 15.8684 14.04 15.85C13.9481 15.812 13.8452 15.8105 13.7523 15.8458C13.6594 15.8811 13.5834 15.9506 13.54 16.04C13.3559 16.3698 13.266 16.7438 13.2801 17.1212C13.2942 17.4986 13.4118 17.8649 13.62 18.18C13.877 18.6033 14.1898 18.9901 14.55 19.33C14.8594 19.5963 15.1501 19.8837 15.42 20.19C15.7721 20.5988 16.0836 21.0409 16.35 21.51C16.62 22 16.88 22.51 17.16 23.02C17.1959 23.0968 17.2599 23.1569 17.3389 23.1877C17.4179 23.2186 17.5057 23.2179 17.5841 23.1857C17.6626 23.1536 17.7257 23.0925 17.7603 23.0151C17.7949 22.9376 17.7984 22.8499 17.77 22.77C17.56 22.06 17.39 21.39 17.13 20.77C16.9267 20.2925 16.6754 19.8368 16.38 19.41Z" fill="black"/>
<path fill-rule="evenodd" clip-rule="evenodd" d="M6.24999 14.59C6.33999 14.42 6.40999 14.24 6.49999 14.08C6.56174 13.9178 6.64229 13.7634 6.73999 13.62C6.83335 13.4892 6.95683 13.3829 7.09999 13.31C7.15142 13.3078 7.20182 13.2948 7.24797 13.272C7.29411 13.2492 7.33499 13.217 7.36798 13.1775C7.40097 13.138 7.42536 13.092 7.43957 13.0425C7.45378 12.993 7.45752 12.9411 7.45053 12.8901C7.44354 12.8391 7.42599 12.7901 7.39899 12.7463C7.372 12.7025 7.33615 12.6648 7.29375 12.6356C7.25134 12.6064 7.20332 12.5864 7.15273 12.5768C7.10215 12.5672 7.05013 12.5683 6.99999 12.58C6.70308 12.593 6.41342 12.6758 6.15453 12.8218C5.89564 12.9677 5.67482 13.1727 5.50999 13.42C5.31654 13.6722 5.17698 13.9616 5.09999 14.27C5.01477 14.7045 4.98121 15.1476 4.99999 15.59C4.98973 15.6321 4.98811 15.6758 4.99524 15.7185C5.00237 15.7612 5.0181 15.8021 5.04147 15.8385C5.06485 15.875 5.09538 15.9063 5.13122 15.9307C5.16707 15.955 5.20747 15.9718 5.24999 15.98C5.33481 15.9979 5.42326 15.9817 5.49623 15.9349C5.56921 15.8881 5.62085 15.8145 5.63999 15.73C5.76999 15.39 5.99999 15 6.24999 14.59Z" fill="black"/>
<path fill-rule="evenodd" clip-rule="evenodd" d="M17.83 13.42C17.663 13.1725 17.4404 12.9676 17.1799 12.8217C16.9194 12.6758 16.6283 12.593 16.33 12.58C16.2821 12.5701 16.2327 12.5698 16.1846 12.5791C16.1366 12.5883 16.0908 12.6069 16.0499 12.6339C16.0091 12.6608 15.9739 12.6955 15.9465 12.736C15.9191 12.7765 15.8999 12.8221 15.89 12.87C15.8802 12.9179 15.8799 12.9673 15.8891 13.0154C15.8983 13.0634 15.917 13.1092 15.9439 13.15C15.9708 13.1909 16.0055 13.2261 16.046 13.2535C16.0866 13.2809 16.1321 13.3001 16.18 13.31C16.3268 13.3816 16.4538 13.488 16.55 13.62C16.6477 13.7634 16.7283 13.9178 16.79 14.08C16.87 14.24 16.95 14.42 17.04 14.59C17.27 15.02 17.52 15.39 17.68 15.73C17.6883 15.7725 17.705 15.8129 17.7294 15.8488C17.7537 15.8846 17.785 15.9151 17.8215 15.9385C17.8579 15.9619 17.8988 15.9776 17.9415 15.9847C17.9842 15.9919 18.0279 15.9902 18.07 15.98C18.1546 15.9608 18.2282 15.9092 18.2749 15.8362C18.3217 15.7632 18.3379 15.6748 18.32 15.59C18.3467 15.1479 18.3164 14.7043 18.23 14.27C18.1566 13.9621 18.0204 13.6728 17.83 13.42Z" fill="black"/>
<path fill-rule="evenodd" clip-rule="evenodd" d="M8.35999 13.56C8.03033 13.6985 7.72615 13.8912 7.45999 14.13C7.34464 14.2288 7.24366 14.3432 7.15999 14.47C7.07359 14.5961 7.0062 14.7342 6.95999 14.88C6.87183 15.2059 6.8281 15.5423 6.82999 15.88C6.80426 15.9636 6.81173 16.0538 6.85084 16.1321C6.88995 16.2103 6.95769 16.2704 7.03999 16.3C7.12357 16.3257 7.21385 16.3182 7.29206 16.2791C7.37028 16.24 7.43042 16.1723 7.45999 16.09C7.65999 15.79 7.89999 15.59 8.09999 15.32C8.29999 15.05 8.27999 15.02 8.36999 14.87C8.4961 14.618 8.6433 14.3771 8.80999 14.15C8.88296 14.0875 8.92959 13.9998 8.94049 13.9044C8.95139 13.8089 8.92576 13.7129 8.86874 13.6356C8.81173 13.5584 8.72756 13.5055 8.63318 13.4878C8.53879 13.47 8.44118 13.4887 8.35999 13.54V13.56Z" fill="black"/>
<path fill-rule="evenodd" clip-rule="evenodd" d="M14.4 13.65C14.3437 13.7302 14.3205 13.8292 14.3354 13.9261C14.3504 14.023 14.4021 14.1104 14.48 14.17C14.6467 14.3972 14.7939 14.638 14.92 14.89C15.01 15.04 15.09 15.2 15.19 15.34C15.29 15.48 15.63 15.81 15.83 16.11C15.8392 16.156 15.8582 16.1994 15.8856 16.2375C15.9129 16.2756 15.9481 16.3074 15.9887 16.3308C16.0294 16.3542 16.0745 16.3687 16.1212 16.3733C16.1678 16.3779 16.215 16.3725 16.2594 16.3574C16.3038 16.3424 16.3445 16.3181 16.3788 16.2861C16.413 16.254 16.4401 16.2151 16.4581 16.1718C16.4762 16.1285 16.4848 16.0819 16.4834 16.035C16.482 15.9881 16.4706 15.9421 16.45 15.9C16.4551 15.5628 16.4148 15.2264 16.33 14.9C16.2792 14.7561 16.2121 14.6186 16.13 14.49C16.0432 14.3656 15.9426 14.2516 15.83 14.15C15.5623 13.9132 15.2585 13.7208 14.93 13.58C14.8502 13.5195 14.7498 13.4929 14.6506 13.506C14.5514 13.5191 14.4613 13.5709 14.4 13.65Z" fill="black"/>
<path fill-rule="evenodd" clip-rule="evenodd" d="M23.94 11.83C23.94 11.13 24.01 10.36 24 9.59999C24.0088 8.2343 23.8612 6.87209 23.56 5.53999C23.5686 5.49417 23.5668 5.447 23.5547 5.40199C23.5426 5.35697 23.5205 5.31527 23.49 5.27999C23.29 4.64999 23.66 5.08999 21.22 4.72999L18.66 4.38999C18.742 3.94001 18.8832 3.50288 19.08 3.08999C19.2002 2.81388 19.3511 2.55222 19.53 2.30999C19.6529 2.10954 19.8227 1.94199 20.0248 1.82179C20.2269 1.70158 20.4552 1.63233 20.69 1.61999C20.7386 1.62701 20.7882 1.62428 20.8358 1.61193C20.8834 1.59959 20.928 1.57789 20.9671 1.5481C21.0062 1.5183 21.039 1.48102 21.0635 1.43842C21.0881 1.39582 21.1039 1.34876 21.11 1.29999C21.117 1.25133 21.1143 1.20177 21.1019 1.15419C21.0896 1.1066 21.0679 1.06196 21.0381 1.02285C21.0083 0.983753 20.971 0.95098 20.9284 0.92645C20.8858 0.90192 20.8388 0.886124 20.79 0.879986C20.4016 0.773001 19.9914 0.774211 19.6036 0.883485C19.2159 0.99276 18.8654 1.20594 18.59 1.49999C18.4568 1.64364 18.3395 1.80122 18.24 1.96999C18.0911 2.20702 17.983 2.46727 17.92 2.73999C17.8096 3.25076 17.8096 3.77921 17.92 4.28999L17.34 4.21999C16.27 4.10999 15.21 4.03999 14.14 4.01999C12.56 4.01999 10.97 4.07999 9.39 4.10999C7.54 4.20999 5.7 4.31999 3.88 4.54999C0.419997 4.99999 0.669997 5.29999 0.549996 7.28999C0.489996 8.22999 0.329996 9.34999 0.239996 10.42C0.159996 11.09 0.109996 11.75 0.0799965 12.32C0.0499965 12.89 0.0799965 13.32 0.0799965 13.63C0.0917474 14.2137 0.19987 14.7915 0.399997 15.34C0.501216 15.641 0.697818 15.9008 0.959996 16.08C1.09254 16.1549 1.23875 16.2025 1.39 16.22H2.47H2.57C2.57 16.48 2.57 16.76 2.5 16.98C2.50088 17.6369 2.29441 18.2773 1.91 18.81C1.4899 19.3656 0.911044 19.7805 0.249997 20C0.207283 20.0093 0.166922 20.0272 0.131401 20.0526C0.0958802 20.0781 0.0659534 20.1106 0.0434661 20.1481C0.0209787 20.1855 0.00640753 20.2272 0.000651172 20.2706C-0.00510518 20.3139 -0.00192469 20.3579 0.0099965 20.4C0.0312498 20.4848 0.0853191 20.5578 0.160323 20.6028C0.235327 20.6478 0.325129 20.6612 0.409997 20.64C1.2813 20.5127 2.08625 20.1014 2.7 19.47C3.32352 18.7909 3.69735 17.9198 3.76 17V15.87C3.73577 15.3574 3.77269 14.8438 3.87 14.34C3.91498 14.0947 4.01846 13.864 4.17165 13.6673C4.32485 13.4705 4.52324 13.3137 4.75 13.21C4.83467 13.1688 4.90105 13.0978 4.9363 13.0105C4.97154 12.9232 4.97313 12.8259 4.94076 12.7375C4.90839 12.6491 4.84437 12.5759 4.76109 12.532C4.67781 12.4881 4.58121 12.4767 4.49 12.5C4.13593 12.6236 3.81624 12.8294 3.55721 13.1006C3.29819 13.3718 3.10722 13.7006 3 14.06C2.82025 14.5529 2.70594 15.0673 2.66 15.59C2.48 15.59 2.13 15.54 1.82 15.51C1.71829 15.5071 1.61878 15.4797 1.53 15.43C1.3974 15.2811 1.32286 15.0894 1.32 14.89C1.26937 14.4815 1.26937 14.0684 1.32 13.66C1.32 13.1 1.43 12.27 1.5 11.33C1.55 10.57 1.57 9.73999 1.58 8.93999C1.61045 7.89603 1.5435 6.85151 1.38 5.81999C2.24604 5.64963 3.12064 5.52611 4 5.44999C5.81 5.31999 7.63 5.32999 9.45 5.34999C11.27 5.36999 13.12 5.23999 14.96 5.24999H17.3L21.14 5.53999C21.53 5.53999 21.96 5.53999 22.38 5.63999C22.5565 5.66446 22.7306 5.70462 22.9 5.75999C22.9 6.09999 22.95 6.46999 22.95 6.90999C22.95 7.90999 22.81 9.20999 22.76 10.41C22.68 11.84 22.69 13.18 22.76 13.98L22.9 15.57C22.8026 15.67 22.6696 15.7275 22.53 15.73C22.2917 15.767 22.0511 15.7871 21.81 15.79C21.7211 15.8046 21.6402 15.8503 21.5818 15.919C21.5235 15.9877 21.4914 16.0749 21.4914 16.165C21.4914 16.2551 21.5235 16.3423 21.5818 16.411C21.6402 16.4797 21.7211 16.5254 21.81 16.54C22.1982 16.5934 22.5918 16.5934 22.98 16.54C23.2218 16.4885 23.4398 16.3584 23.6 16.17C23.7185 15.9941 23.7908 15.7912 23.81 15.58C23.8425 15.0638 23.8425 14.5461 23.81 14.03C23.81 13.48 23.89 12.71 23.94 11.83Z" fill="black"/>
<path fill-rule="evenodd" clip-rule="evenodd" d="M11.86 16L11.5 15.94C11.3768 15.9303 11.2531 15.9303 11.13 15.94C10.91 15.99 9.97998 16.26 9.99998 16.6C9.99998 16.71 9.99998 16.9 11.13 17.15H11.46H11.79C12.94 17 13 16.9 13 16.68C13 16.46 13 16.25 11.86 16Z" fill="black"/>
</g>
<defs>
<clipPath id="clip0_1034_4424">
<rect width="24" height="24" fill="white"/>
</clipPath>
</defs>
</svg>
