<svg width="24" height="24" viewBox="0 0 24 24" fill="none" xmlns="http://www.w3.org/2000/svg">
<g clip-path="url(#clip0_1034_4470)">
<path fill-rule="evenodd" clip-rule="evenodd" d="M18.88 12C18.8677 11.9246 18.8261 11.8571 18.7644 11.8121C18.7026 11.7672 18.6255 11.7484 18.55 11.76C18.4749 11.7768 18.4088 11.8209 18.3645 11.8837C18.3201 11.9465 18.3007 12.0236 18.31 12.1C18.4215 13.34 18.4583 14.5856 18.42 15.83V17.43V19.03C18.42 20.13 18.29 21.23 18.17 22.33C17.7948 22.4241 17.4141 22.4942 17.03 22.54C16.21 22.62 15.37 22.62 14.56 22.67C13.56 22.73 12.56 22.8 11.63 22.83H10.4L5.9 22.7C5.94233 22.6726 5.97679 22.6347 6 22.59C6.31027 21.9741 6.53244 21.3177 6.66 20.64C6.83596 19.6492 6.93293 18.6461 6.95 17.64C6.98734 16.107 6.88357 14.5739 6.64 13.06C6.24487 10.9431 5.69676 8.8576 5 6.81997C5.33147 6.77195 5.66529 6.74191 6 6.72997H7.41H8.84L11.63 6.38997C11.6681 6.39131 11.7061 6.38513 11.7418 6.37177C11.7775 6.35842 11.8102 6.33816 11.838 6.31216C11.8659 6.28615 11.8884 6.25491 11.9041 6.22022C11.9199 6.18553 11.9287 6.14806 11.93 6.10997C11.9328 6.07156 11.9275 6.03299 11.9147 5.99667C11.9019 5.96036 11.8817 5.92708 11.8554 5.89892C11.8291 5.87077 11.7973 5.84833 11.762 5.83303C11.7266 5.81772 11.6885 5.80988 11.65 5.80997L8.85 5.62997H7.85C7.54 5.62997 7.15 5.67997 6.85 5.71997C6.14154 5.81371 5.44235 5.9676 4.76 6.17997C4.704 6.19779 4.65502 6.23277 4.62 6.27997C4.58239 6.28908 4.54707 6.30588 4.51628 6.32931C4.48549 6.35275 4.45989 6.38231 4.4411 6.41614C4.4223 6.44997 4.41073 6.48732 4.4071 6.52585C4.40346 6.56437 4.40786 6.60323 4.42 6.63997C4.86 8.44997 5.22 10.28 5.52 12.12C5.7 13.22 5.85 14.31 5.94 15.42C6.02 16.15 6.08 16.88 6.09 17.62C6.14164 18.5803 6.11824 19.5433 6.02 20.5C5.94985 21.0557 5.80869 21.6002 5.6 22.12L5 22.37C4.8896 22.4263 4.77176 22.4667 4.65 22.49C4.45921 22.5318 4.26175 22.5329 4.07049 22.4933C3.87923 22.4536 3.69847 22.3741 3.54 22.26C3.22215 22.0046 2.99437 21.6541 2.89 21.26C2.75807 20.905 2.69978 20.5269 2.71869 20.1487C2.73761 19.7704 2.83332 19.4 3 19.06C3.13 19.12 3.25 19.2 3.38 19.25C3.48405 19.2804 3.59162 19.2973 3.7 19.3C3.80949 19.3149 3.92051 19.3149 4.03 19.3C4.29091 19.2298 4.54265 19.1291 4.78 19C4.86752 18.9867 4.94619 18.9392 4.9987 18.868C5.05121 18.7967 5.07326 18.7075 5.06 18.62C5.04674 18.5325 4.99925 18.4538 4.92799 18.4013C4.85673 18.3488 4.76752 18.3267 4.68 18.34C4.44 18.34 4.25 18.23 4.02 18.19C3.88216 18.1585 3.74137 18.1417 3.6 18.14C1.46 18.22 1.74 20.99 1.75 21.05C1.8064 21.4885 1.9528 21.9107 2.18 22.29C2.33777 22.5655 2.55256 22.8041 2.81 22.99C3.06369 23.1654 3.35353 23.2817 3.65815 23.3301C3.96277 23.3786 4.27439 23.358 4.57 23.27C6.03 23.45 7.48 23.71 8.95 23.86C9.4 23.91 9.85 23.93 10.3 23.95C10.8654 23.9957 11.4329 24.0124 12 24C12.86 23.94 13.7 23.82 14.55 23.71C15.4 23.6 16.21 23.54 17.03 23.39C19.03 23.04 18.86 23.63 19.36 19.19C19.42 18.6433 19.46 18.0933 19.48 17.54V15.89C19.3946 14.5782 19.1939 13.2765 18.88 12Z" fill="black"/>
<path fill-rule="evenodd" clip-rule="evenodd" d="M22 7.99999L22.25 6.32999V5.42999L22.09 4.79999C22.0098 4.56855 21.8781 4.35831 21.7049 4.1851C21.5317 4.0119 21.3214 3.88022 21.09 3.79999C20.8978 3.74683 20.6994 3.71992 20.5 3.71999C20.5502 3.24841 20.5702 2.77411 20.56 2.29999C20.5231 1.83065 20.3569 1.3807 20.08 0.999986C19.7763 0.658462 19.3986 0.390832 18.9758 0.217524C18.5529 0.0442151 18.096 -0.0301904 17.64 -1.35824e-05C17.1781 -0.00634465 16.7214 0.0973733 16.3075 0.302563C15.8936 0.507753 15.5346 0.808518 15.26 1.17999C15.0906 1.48664 14.998 1.82975 14.99 2.17999C14.9889 2.71843 15.0493 3.25525 15.17 3.77999H14.96C14.9274 3.76996 14.8926 3.76996 14.86 3.77999H14.72C14.2063 4.27461 13.8247 4.89 13.61 5.56999C13.4187 6.5785 13.3283 7.60356 13.34 8.62999L13.39 9.89999C13.3765 10.0597 13.3765 10.2203 13.39 10.38C13.4145 10.4619 13.4516 10.5395 13.5 10.61C13.5793 10.708 13.6827 10.7838 13.8 10.83C13.9428 10.8808 14.0901 10.9176 14.24 10.94C14.457 10.9875 14.678 11.0143 14.9 11.02H15.8C17 11 18.14 11 19.29 11C20.06 11 20.84 10.94 21.62 10.88C21.6633 10.8787 21.706 10.8689 21.7455 10.8511C21.7851 10.8333 21.8207 10.8079 21.8505 10.7763C21.8802 10.7447 21.9034 10.7076 21.9187 10.6671C21.9341 10.6265 21.9413 10.5833 21.94 10.54C21.9285 10.4694 21.8973 10.4036 21.85 10.35C21.83 9.98359 21.83 9.61638 21.85 9.24999C21.89 8.77999 22 8.36999 22 7.99999ZM15.79 2.47999C15.8098 2.19918 15.9067 1.92928 16.07 1.69999C16.2102 1.54037 16.3893 1.41979 16.59 1.34999C16.9307 1.20109 17.2982 1.12285 17.67 1.11999C17.9642 1.07367 18.2649 1.09363 18.5504 1.17841C18.8359 1.26318 19.0988 1.41063 19.32 1.60999C19.4996 1.82928 19.6201 2.09092 19.67 2.36999C19.7312 2.78708 19.7579 3.2085 19.75 3.62999H19.44L17.55 3.53999C17.08 3.53999 16.61 3.53999 16.14 3.61999L15.79 3.66999C15.7646 3.27373 15.7646 2.87625 15.79 2.47999ZM15.79 9.96999H14.96C14.7956 9.96046 14.6319 9.94042 14.47 9.90999L14.4 8.65999C14.2988 7.69931 14.2988 6.73066 14.4 5.76999C14.4462 5.23176 14.701 4.73293 15.11 4.37999H15.53H16.12C16.58 4.37999 17.03 4.37999 17.48 4.45999L19.29 4.73999C19.7467 4.74493 20.2019 4.79179 20.65 4.87999C20.7306 4.90274 20.8045 4.94463 20.8655 5.00208C20.9264 5.05954 20.9725 5.13086 21 5.20999L21.13 5.59999L21.2 6.30999L21.1 7.88999C21.1 8.33999 21.04 8.77999 21.05 9.21999C21.053 9.55443 21.0764 9.88838 21.12 10.22L15.79 9.96999Z" fill="black"/>
<path fill-rule="evenodd" clip-rule="evenodd" d="M18.36 5.52C18.011 5.39422 17.6404 5.33982 17.27 5.36C16.9827 5.38616 16.7061 5.48174 16.464 5.63852C16.2218 5.7953 16.0214 6.00858 15.88 6.26C15.7377 6.50064 15.6576 6.773 15.6471 7.05239C15.6367 7.33179 15.6961 7.60938 15.82 7.86C15.9552 8.10725 16.1605 8.30903 16.41 8.44C16.7202 8.60202 17.0608 8.6974 17.41 8.72C17.4476 8.72713 17.4862 8.72649 17.5235 8.71812C17.5608 8.70976 17.596 8.69384 17.6269 8.67136C17.6578 8.64887 17.6838 8.62029 17.7033 8.58738C17.7227 8.55447 17.7352 8.51793 17.74 8.48C17.7515 8.40447 17.7328 8.32744 17.6879 8.26565C17.6429 8.20386 17.5754 8.1623 17.5 8.15C17.2871 8.09684 17.0844 8.009 16.9 7.89C16.7616 7.80803 16.6557 7.6809 16.6 7.53C16.5713 7.40587 16.5727 7.27669 16.604 7.15319C16.6353 7.02969 16.6956 6.91546 16.78 6.82C16.8414 6.72153 16.9249 6.63867 17.0238 6.57794C17.1227 6.5172 17.2344 6.48026 17.35 6.47C17.5795 6.45982 17.8091 6.48684 18.03 6.55C18.2314 6.5859 18.4205 6.67187 18.58 6.8C18.6291 6.87599 18.6552 6.96454 18.6552 7.055C18.6552 7.14547 18.6291 7.23401 18.58 7.31C18.5064 7.56048 18.3377 7.77223 18.11 7.9C18.028 7.92941 17.9609 7.99008 17.9234 8.06877C17.8859 8.14746 17.8811 8.23777 17.91 8.32C17.9415 8.40278 18.0041 8.46999 18.0844 8.50734C18.1647 8.5447 18.2564 8.54924 18.34 8.52C18.5891 8.42128 18.8147 8.27151 19.0025 8.08034C19.1902 7.88917 19.3358 7.66083 19.43 7.41C19.5099 7.21103 19.5389 6.99528 19.5145 6.78227C19.49 6.56926 19.4129 6.3657 19.29 6.19C19.0496 5.88318 18.7271 5.65086 18.36 5.52Z" fill="black"/>
<path fill-rule="evenodd" clip-rule="evenodd" d="M11 14C11.0624 13.954 11.1045 13.8855 11.1176 13.8091C11.1306 13.7327 11.1136 13.6541 11.07 13.59C11.0258 13.5283 10.9591 13.4864 10.8843 13.4733C10.8095 13.4602 10.7326 13.477 10.67 13.52L10 14C9.81762 14.1026 9.64374 14.2197 9.48 14.35C9.37546 14.4313 9.27531 14.5181 9.18 14.61C9.10571 14.6826 9.0356 14.7594 8.97 14.84C8.89855 14.946 8.86345 15.0723 8.87 15.2C8.9047 15.5257 9.06201 15.826 9.31 16.04C9.70988 16.3224 10.1312 16.5731 10.57 16.79C10.5998 16.8208 10.6356 16.8454 10.6751 16.8621C10.7146 16.8789 10.7571 16.8875 10.8 16.8875C10.8429 16.8875 10.8854 16.8789 10.9249 16.8621C10.9644 16.8454 11.0002 16.8208 11.03 16.79C11.0611 16.7593 11.0859 16.7227 11.1027 16.6824C11.1196 16.642 11.1283 16.5987 11.1283 16.555C11.1283 16.5113 11.1196 16.468 11.1027 16.4276C11.0859 16.3873 11.0611 16.3507 11.03 16.32C10.86 16.13 10.57 15.88 10.31 15.62C10.2239 15.5321 10.1437 15.4385 10.07 15.34L10.58 14.69L11 14Z" fill="black"/>
<path fill-rule="evenodd" clip-rule="evenodd" d="M13.53 13.29C13.28 13.73 13 14.12 12.75 14.56C12.6481 14.7441 12.5579 14.9345 12.48 15.13C12.3903 15.3236 12.3168 15.5243 12.26 15.73C12.1062 16.2152 11.9826 16.7095 11.89 17.21C11.8761 17.2507 11.8705 17.2937 11.8735 17.3366C11.8766 17.3795 11.8883 17.4213 11.9079 17.4596C11.9275 17.4979 11.9546 17.5318 11.9876 17.5594C12.0206 17.5869 12.0588 17.6075 12.1 17.62C12.1822 17.6489 12.2725 17.6441 12.3512 17.6066C12.4299 17.5691 12.4906 17.502 12.52 17.42C12.74 16.97 13.01 16.55 13.24 16.1C13.3961 15.8009 13.5363 15.4939 13.66 15.18C13.8366 14.6305 13.9736 14.0691 14.07 13.5C14.0963 13.427 14.0933 13.3466 14.0616 13.2757C14.0299 13.2049 13.972 13.149 13.9 13.12C13.8284 13.094 13.7494 13.0973 13.6801 13.1291C13.6109 13.161 13.557 13.2187 13.53 13.29Z" fill="black"/>
<path fill-rule="evenodd" clip-rule="evenodd" d="M14.24 16.22C14.1688 16.2705 14.1198 16.3464 14.1031 16.432C14.0863 16.5176 14.1031 16.6064 14.15 16.68C14.2023 16.7519 14.2799 16.8011 14.3672 16.8179C14.4545 16.8346 14.5449 16.8175 14.62 16.77C15.04 16.54 15.48 16.38 15.91 16.16C16.1136 16.0612 16.3077 15.9441 16.49 15.81C16.7117 15.6319 16.907 15.4231 17.07 15.19C17.1036 15.1144 17.121 15.0327 17.121 14.95C17.121 14.8673 17.1036 14.7855 17.07 14.71C17.0266 14.591 16.9544 14.4845 16.86 14.4C16.714 14.298 16.5602 14.2077 16.4 14.13L15.19 13.54C15.1578 13.5185 15.1217 13.5037 15.0837 13.4964C15.0457 13.4891 15.0067 13.4895 14.9688 13.4975C14.931 13.5056 14.8951 13.5211 14.8634 13.5432C14.8316 13.5653 14.8046 13.5935 14.784 13.6262C14.7633 13.6589 14.7493 13.6953 14.743 13.7335C14.7366 13.7716 14.7379 13.8107 14.7469 13.8483C14.7558 13.8859 14.7722 13.9214 14.7951 13.9526C14.8179 13.9838 14.8468 14.0101 14.88 14.03L15.82 14.91H15.75L14.24 16.22Z" fill="black"/>
</g>
<defs>
<clipPath id="clip0_1034_4470">
<rect width="24" height="24" fill="white"/>
</clipPath>
</defs>
</svg>
