<svg width="24" height="24" viewBox="0 0 24 24" fill="none" xmlns="http://www.w3.org/2000/svg">
<g clip-path="url(#clip0_1034_4436)">
<path fill-rule="evenodd" clip-rule="evenodd" d="M18.3 22.75C17.637 22.8385 16.9688 22.882 16.3 22.88C14.7 22.88 13.09 22.75 11.51 22.76H7.41001L5.00001 22.74C4.5373 22.7256 4.07617 22.6788 3.62001 22.6C3.18339 22.5315 2.75899 22.4001 2.36001 22.21L1.87001 22C1.62878 21.3163 1.48078 20.6032 1.43001 19.88C1.33001 18.61 1.43001 17.28 1.35001 16.12C1.35001 15.37 1.29001 14.61 1.29001 13.85V11.59C1.35001 10.39 1.38001 9.15 1.47001 7.92C1.77001 7.92 2.06001 7.84 2.35001 7.82H4.44001C5.13001 7.82 5.78001 7.72 6.44001 7.67C7.10001 7.62 7.77001 7.53 8.44001 7.53C9.00564 7.5248 9.57078 7.56493 10.13 7.65C10.2283 7.66628 10.3292 7.64431 10.4118 7.58859C10.4944 7.53287 10.5526 7.44763 10.5743 7.35037C10.5961 7.25312 10.5798 7.15122 10.5288 7.06561C10.4778 6.97999 10.3959 6.91715 10.3 6.89C9.32351 6.60744 8.31592 6.44622 7.30001 6.41H6.10001C5.49001 6.41 4.89001 6.51 4.31001 6.57C3.73001 6.63 2.91001 6.81 2.21001 6.97L1.53001 7.17C1.61246 6.21583 1.76961 5.2696 2.00001 4.34C2.01211 4.29666 2.01549 4.25135 2.00995 4.2067C2.00441 4.16204 1.99006 4.11893 1.96774 4.07987C1.94541 4.0408 1.91556 4.00655 1.8799 3.97911C1.84424 3.95167 1.80349 3.93157 1.76001 3.92C1.71667 3.9079 1.67136 3.90452 1.62671 3.91006C1.58205 3.9156 1.53894 3.92994 1.49987 3.95227C1.46081 3.97459 1.42656 4.00445 1.39912 4.04011C1.37167 4.07577 1.35158 4.11652 1.34001 4.16C0.734443 6.57312 0.385837 9.04353 0.300006 11.53C0.240006 12.3 0.190006 13.07 0.160006 13.85C0.130006 14.63 0.160006 15.39 0.160006 16.16C0.160006 17.34 0.0800062 18.69 0.160006 20C0.209683 20.912 0.40551 21.8101 0.740006 22.66C0.820845 22.8324 0.949207 22.9781 1.11001 23.08C1.33707 23.2041 1.57467 23.3078 1.82001 23.39C2.22264 23.5775 2.64538 23.7185 3.08001 23.81C3.71261 23.9336 4.35546 23.9972 5.00001 24H7.50001L11.58 23.81C13.17 23.75 14.78 23.81 16.38 23.76C17.0804 23.7346 17.7785 23.6645 18.47 23.55C18.5702 23.5328 18.6596 23.4772 18.7194 23.395C18.7792 23.3128 18.8045 23.2106 18.79 23.11C18.7875 23.0517 18.7719 22.9947 18.7444 22.9432C18.717 22.8918 18.6783 22.8471 18.6313 22.8126C18.5843 22.778 18.5301 22.7545 18.4728 22.7436C18.4154 22.7328 18.3564 22.735 18.3 22.75Z" fill="black"/>
<path fill-rule="evenodd" clip-rule="evenodd" d="M11.47 14.31C11.5672 14.3197 11.6645 14.2936 11.7437 14.2365C11.8229 14.1794 11.8785 14.0952 11.9 14C11.9084 13.8981 11.8764 13.797 11.8109 13.7184C11.7455 13.6398 11.6518 13.5901 11.55 13.58C10.5299 13.4048 9.49228 13.3544 8.46001 13.43C7.85438 13.4826 7.25301 13.5762 6.66001 13.71C5.77001 13.92 4.92001 14.21 4.07001 14.42C4.02524 14.425 3.9819 14.4388 3.9425 14.4606C3.90311 14.4824 3.86845 14.5119 3.84054 14.5473C3.81263 14.5826 3.79202 14.6232 3.77991 14.6665C3.7678 14.7099 3.76444 14.7553 3.77001 14.8C3.78246 14.8913 3.83039 14.9739 3.9034 15.0301C3.9764 15.0863 4.06861 15.1114 4.16001 15.1C5.16001 15.1 6.16001 15.04 7.16001 14.92L7.81001 14.82C8.14034 15.6548 8.26053 16.5579 8.16001 17.45C8.10735 17.8754 7.96413 18.2846 7.74001 18.65C7.51934 19.0133 7.2183 19.3212 6.86001 19.55C6.69757 19.6706 6.52335 19.7745 6.34001 19.86C6.1873 19.9397 6.02118 19.9906 5.85001 20.01C5.66959 20.0094 5.49052 19.9789 5.32001 19.92C4.97872 19.7959 4.64484 19.6523 4.32001 19.49C4.22836 19.4444 4.12248 19.4367 4.0252 19.4685C3.92792 19.5003 3.84704 19.5691 3.80001 19.66C3.77608 19.7051 3.7615 19.7546 3.75712 19.8055C3.75274 19.8563 3.75867 19.9076 3.77453 19.9561C3.7904 20.0047 3.81589 20.0495 3.84948 20.088C3.88306 20.1264 3.92406 20.1577 3.97001 20.18C4.28001 20.37 4.59001 20.6 4.97001 20.77C5.24162 20.9093 5.53652 20.9974 5.84001 21.03C6.08543 21.0414 6.33123 21.0178 6.57001 20.96C6.88864 20.8732 7.19706 20.7525 7.49001 20.6C7.93592 20.3636 8.3268 20.0356 8.63701 19.6375C8.94723 19.2394 9.16976 18.7802 9.29001 18.29C9.49248 17.0469 9.24043 15.7724 8.58001 14.7L8.90001 14.65C9.74544 14.4637 10.6052 14.35 11.47 14.31Z" fill="black"/>
<path fill-rule="evenodd" clip-rule="evenodd" d="M16.15 19.51C15.6207 19.8636 15.0057 20.0674 14.37 20.1C13.7354 20.1292 13.1091 19.9462 12.59 19.58C12.5084 19.5279 12.4104 19.5081 12.315 19.5243C12.2195 19.5404 12.1336 19.5915 12.0737 19.6676C12.0138 19.7436 11.9844 19.8392 11.9911 19.9358C11.9978 20.0324 12.0402 20.123 12.11 20.19C12.7505 20.7095 13.5455 21.0015 14.37 21.02C15.1878 21.0508 15.998 20.8534 16.71 20.45C17.2648 20.1475 17.7146 19.6837 18 19.12C18.208 18.6832 18.2507 18.1858 18.12 17.72C18.0417 17.4433 17.8995 17.1887 17.705 16.9769C17.5105 16.765 17.2691 16.6017 17 16.5C16.207 16.2731 15.3927 16.129 14.57 16.07C14.05 15.99 13.57 15.86 13.57 15.21C13.57 15.1 13.65 15.03 13.74 14.96C13.8687 14.8585 14.0059 14.7682 14.15 14.69C14.6485 14.4152 15.2018 14.2547 15.77 14.22C16.3402 14.191 16.9075 14.3189 17.41 14.59C17.448 14.6138 17.4904 14.6299 17.5347 14.6372C17.5789 14.6446 17.6242 14.6431 17.6679 14.6329C17.7116 14.6227 17.7528 14.6039 17.7892 14.5776C17.8256 14.5514 17.8565 14.5182 17.88 14.48C17.9255 14.4025 17.9395 14.3105 17.919 14.223C17.8985 14.1355 17.8452 14.0593 17.77 14.01C17.1747 13.6185 16.4822 13.4004 15.77 13.38C15.0591 13.3482 14.3506 13.4817 13.7 13.77C13.3656 13.9007 13.0574 14.0904 12.79 14.33C12.6667 14.451 12.5695 14.5959 12.5041 14.7558C12.4388 14.9157 12.4068 15.0873 12.41 15.26C12.3964 15.5379 12.444 15.8154 12.5494 16.0728C12.6548 16.3303 12.8154 16.5615 13.02 16.75C13.7815 17.2452 14.6717 17.506 15.58 17.5C15.9214 17.5171 16.2583 17.5845 16.58 17.7C16.6777 17.729 16.7673 17.7801 16.8419 17.8495C16.9166 17.9189 16.9741 18.0047 17.01 18.1C17.0426 18.2184 17.0515 18.3422 17.036 18.464C17.0206 18.5859 16.9812 18.7035 16.92 18.81C16.7265 19.1045 16.4616 19.3453 16.15 19.51Z" fill="black"/>
<path fill-rule="evenodd" clip-rule="evenodd" d="M13.81 2.53001C13.23 2.53001 12.93 2.37001 12.53 2.62001C12.2778 2.9357 12.1371 3.326 12.13 3.73001V3.94001C12 4.47001 12 5.00001 12 5.54001L11.87 7.00001V8.00001V9.00001C11.8608 9.12651 11.8608 9.25351 11.87 9.38001C11.9105 9.52203 11.9988 9.64568 12.12 9.73001C12.1999 9.78757 12.2926 9.82492 12.3902 9.83885C12.4877 9.85278 12.5871 9.84289 12.68 9.81001C13.0281 9.67924 13.3352 9.45838 13.57 9.17001C13.9526 8.65851 14.2874 8.11287 14.57 7.54001C14.5838 7.46839 14.6039 7.39813 14.63 7.33001L15.63 8.63001C15.78 8.83001 16.13 9.38001 16.19 9.44001C16.2836 9.5595 16.4197 9.6383 16.57 9.66001C16.6811 9.68772 16.7981 9.6794 16.9042 9.63626C17.0102 9.59312 17.0998 9.51739 17.16 9.42001C17.2705 9.27229 17.3457 9.10127 17.38 8.92001C17.437 8.64019 17.4672 8.35557 17.47 8.07001L17.3 5.46001L17.11 3.88001C17.11 3.26001 16.98 3.05001 16.8 2.88001C16.45 2.49001 14.93 2.62001 13.81 2.53001ZM16.42 7.53001C16.27 7.32001 16.14 7.10001 15.98 6.89001C15.8141 6.65887 15.6337 6.43843 15.44 6.23001C15.3094 6.07406 15.1619 5.93318 15 5.81001C14.8837 5.73151 14.7497 5.68338 14.61 5.67001C14.4776 5.65714 14.3442 5.68229 14.2255 5.7425C14.1069 5.80272 14.0078 5.89552 13.94 6.01001C13.7696 6.28556 13.6193 6.57296 13.49 6.87001C13.36 7.12001 13.18 7.49001 12.98 7.87001L12.87 7.00001V5.56001V4.21001V3.72001H13.75L16.3 3.80001L16.4 5.50001L16.45 7.00001L16.42 7.53001Z" fill="black"/>
<path fill-rule="evenodd" clip-rule="evenodd" d="M23.85 9.51C23.38 -0.499996 23.8 0.850004 16.08 0.220004C14.63 0.100004 13.09 4.28315e-06 11.59 4.28315e-06C9.06898 -0.074707 6.548 0.150201 4.08001 0.670004C4.03809 0.679752 3.99865 0.698124 3.96422 0.723949C3.92979 0.749774 3.90111 0.782487 3.88001 0.820004C3.83863 0.847257 3.80315 0.882544 3.77566 0.923771C3.74818 0.964998 3.72925 1.01133 3.72001 1.06C3.59295 1.30663 3.49881 1.56887 3.44001 1.84C3.42034 1.94912 3.42034 2.06088 3.44001 2.17C3.44123 2.27852 3.45807 2.38629 3.49001 2.49C3.52894 2.66813 3.59291 2.83983 3.68001 3L2.86001 3.11C2.77227 3.12929 2.69531 3.18157 2.64505 3.25603C2.59479 3.33049 2.57508 3.42142 2.59001 3.51C2.59791 3.55474 2.61524 3.59728 2.64085 3.6348C2.66646 3.67232 2.69976 3.70396 2.73855 3.72761C2.77733 3.75125 2.82071 3.76638 2.86579 3.77196C2.91087 3.77755 2.95663 3.77347 3.00001 3.76L5.30001 3.66C6.77001 3.59 8.22001 3.66 9.68001 3.66C10.46 3.66 10.54 3.61 11.32 3.66C11.86 3.66 11.73 2.41 11.17 2.4H8.78001C7.59001 2.46 6.40001 2.59 5.22001 2.76L4.57001 2.85C4.64602 2.67477 4.69653 2.48956 4.72001 2.3C4.73983 2.15066 4.73983 1.99935 4.72001 1.85C4.67723 1.66376 4.62381 1.48013 4.56001 1.3C5.68081 1.15857 6.81067 1.10174 7.94001 1.13C8.85001 1.13 9.85001 1.21 10.94 1.25L13.89 1.36C17.35 1.47 20.7 1.62 22.21 1.81C22.46 3.71 22.58 5.61 22.64 7.51V9.78V13.19V21.19L22.24 21.11C22.1135 21.1001 21.9865 21.1001 21.86 21.11C21.7369 21.1001 21.6131 21.1001 21.49 21.11C21.19 21.16 20.94 21.26 20.66 21.33C20.66 21.06 20.75 20.78 20.78 20.51C20.94 19.07 20.97 17.59 21.04 16.22C21.09 14.5 21.13 12.79 21.04 11.08C20.94 8.51 20.65 5.96 20.37 3.4C20.3532 3.3162 20.3062 3.24146 20.2381 3.18988C20.1699 3.1383 20.0852 3.11344 20 3.12C19.94 3.12 19.91 3.12 19.87 3.18L17.78 2.94C17.18 2.87 17.35 3.65 17.78 3.82C18.58 3.82 18.91 3.93 19.71 3.96C19.71 4.86 19.73 5.76 19.77 6.66C19.58 6.66 19.39 6.55 19.18 6.51C19.0202 6.4997 18.8598 6.4997 18.7 6.51C18.5404 6.49515 18.3797 6.49515 18.22 6.51H18.05C17.9713 6.58474 17.9087 6.6747 17.8659 6.77441C17.8231 6.87412 17.801 6.98149 17.801 7.09C17.801 7.19851 17.8231 7.30589 17.8659 7.4056C17.9087 7.50531 17.9713 7.59527 18.05 7.67H18.25H18.7C18.8532 7.68033 19.0069 7.68033 19.16 7.67L19.79 7.57V11.7V16.15C19.79 17.6 19.88 18.96 19.79 20.39C19.7567 21.3106 19.6294 22.2253 19.41 23.12C19.3808 23.2195 19.3924 23.3264 19.4421 23.4174C19.4918 23.5083 19.5756 23.5758 19.675 23.605C19.7745 23.6342 19.8814 23.6226 19.9724 23.573C20.0634 23.5233 20.1308 23.4395 20.16 23.34C20.3 22.9 20.41 22.45 20.51 21.99C20.8064 22.1267 21.1143 22.2371 21.43 22.32C21.5632 22.3299 21.6969 22.3299 21.83 22.32C21.9644 22.3132 22.0981 22.2965 22.23 22.27C23.74 21.96 23.58 22.62 23.86 14.34C23.91 12.8 23.93 11.15 23.85 9.51Z" fill="black"/>
</g>
<defs>
<clipPath id="clip0_1034_4436">
<rect width="24" height="24" fill="white"/>
</clipPath>
</defs>
</svg>
