<svg width="24" height="24" viewBox="0 0 24 24" fill="none" xmlns="http://www.w3.org/2000/svg">
<g clip-path="url(#clip0_1034_4397)">
<path fill-rule="evenodd" clip-rule="evenodd" d="M24 14.28C23.6508 13.5713 23.2285 12.901 22.74 12.28C22.3694 11.8206 21.8774 11.4742 21.32 11.28C21.0445 11.2141 20.7556 11.2315 20.49 11.33C20.1 11.45 19.63 11.68 19.21 11.83C18.79 11.98 18.6 11.77 18.44 11.56C18.12 11.12 17.87 10.56 17.59 10.19C17.1805 9.62484 16.6331 9.17387 16 8.88003C15.7942 8.80562 15.5744 8.77779 15.3565 8.79854C15.1386 8.81929 14.9281 8.8881 14.74 9.00003C14.3921 9.188 14.1305 9.50338 14.01 9.88003C13.8613 10.3674 13.8896 10.8916 14.09 11.36C14.2553 11.7328 14.4634 12.0852 14.71 12.41C15.2377 13.0228 15.7318 13.6637 16.19 14.33C16.32 14.54 16.46 14.75 16.58 14.97C16.1976 14.7816 15.795 14.6373 15.38 14.54C15.1045 14.4902 14.8206 14.5179 14.56 14.62C14.3851 14.6956 14.233 14.8157 14.1189 14.9683C14.0049 15.121 13.9328 15.3008 13.91 15.49C13.8908 16.0944 14.0546 16.6904 14.38 17.2C14.6825 17.6456 15.087 18.0125 15.56 18.27C16.5 18.79 17.62 18.82 18.73 19.27C18.7681 19.2968 18.8117 19.315 18.8576 19.3232C18.9034 19.3315 18.9506 19.3296 18.9957 19.3177C19.0407 19.3058 19.0827 19.2842 19.1185 19.2544C19.1544 19.2247 19.1833 19.1874 19.2033 19.1453C19.2232 19.1031 19.2337 19.0571 19.2341 19.0105C19.2344 18.9639 19.2245 18.9178 19.2052 18.8754C19.1858 18.833 19.1574 18.7953 19.122 18.765C19.0865 18.7347 19.0449 18.7125 19 18.7C18.09 18.24 17.15 18.11 16.33 17.7C15.8255 17.4774 15.4027 17.1035 15.12 16.63C15.0106 16.437 14.9329 16.2277 14.89 16.01C14.8809 15.8902 14.8809 15.7699 14.89 15.65C14.89 15.59 14.89 15.52 14.95 15.5C15.1906 15.4645 15.4359 15.5178 15.64 15.65C15.98 15.8 16.34 15.99 16.64 16.11C16.8733 16.1989 17.1204 16.2463 17.37 16.25C17.5214 16.2502 17.6671 16.1922 17.7769 16.088C17.8868 15.9837 17.9523 15.8412 17.96 15.69C17.9593 15.4649 17.9359 15.2404 17.89 15.02C17.8355 14.8012 17.7549 14.5897 17.65 14.39C17.52 14.14 17.37 13.9 17.24 13.66C16.7621 12.9642 16.2446 12.2964 15.69 11.66C15.5004 11.4123 15.3393 11.1439 15.21 10.86C15.1356 10.6939 15.1079 10.5107 15.13 10.33C15.1353 10.271 15.1544 10.214 15.1856 10.1637C15.2169 10.1133 15.2595 10.071 15.31 10.04C15.49 9.93003 15.68 10.04 15.85 10.17C16.1416 10.3964 16.4037 10.6584 16.63 10.95C16.92 11.31 17.2 11.85 17.53 12.28C17.7033 12.509 17.9127 12.7083 18.15 12.87C18.2998 12.9576 18.4671 13.0111 18.6399 13.0267C18.8128 13.0422 18.987 13.0195 19.15 12.96C19.6002 12.7985 20.0409 12.6115 20.47 12.4C20.7 12.3 20.89 12.17 21.03 12.21C21.4422 12.3292 21.8128 12.5613 22.1 12.88C22.5725 13.4299 22.9879 14.0263 23.34 14.66C23.396 14.7278 23.4743 14.7735 23.561 14.7887C23.6476 14.804 23.7368 14.788 23.8126 14.7434C23.8885 14.6989 23.946 14.6288 23.9748 14.5457C24.0036 14.4626 24.0019 14.372 23.97 14.29L24 14.28Z" fill="black"/>
<path fill-rule="evenodd" clip-rule="evenodd" d="M6.14 8.24003C6.17641 8.21859 6.20805 8.18992 6.23299 8.1558C6.25792 8.12168 6.27561 8.08282 6.28497 8.04162C6.29434 8.00041 6.29518 7.95772 6.28745 7.91618C6.27971 7.87463 6.26356 7.83511 6.24 7.80003C6.19288 7.72793 6.11943 7.67712 6.03535 7.65843C5.95127 7.63975 5.86322 7.65468 5.79 7.70003L4.73 8.40003C4.5 8.57003 4.08 8.77003 3.73 9.01003C3.54663 9.15821 3.3909 9.33763 3.27 9.54003C3.22005 9.64642 3.19415 9.7625 3.19415 9.88003C3.19415 9.99756 3.22005 10.1136 3.27 10.22C3.42187 10.5194 3.62882 10.7874 3.88 11.01C4.09391 11.1777 4.32525 11.3219 4.57 11.44C5.06 11.68 5.57 11.83 6.08 12.05C6.16194 12.082 6.25259 12.0837 6.33567 12.0548C6.41876 12.026 6.48886 11.9685 6.5334 11.8927C6.57794 11.8168 6.594 11.7276 6.57872 11.641C6.56344 11.5544 6.5178 11.476 6.45 11.42C6.08 11.15 5.67 10.92 5.29 10.66C5.07352 10.5105 4.87839 10.3322 4.71 10.13C4.65003 10.0912 4.59319 10.0477 4.54 10L5.38 9.10003L6.14 8.24003Z" fill="black"/>
<path fill-rule="evenodd" clip-rule="evenodd" d="M8.88 6.60001C8.55 7.24001 8.18 7.85001 7.88 8.50001C7.74714 8.7764 7.63028 9.0602 7.53 9.35001C7.42 9.63001 7.33 9.93001 7.24 10.22C7.04 10.92 6.9 11.63 6.76 12.33C6.7444 12.4185 6.76152 12.5096 6.80815 12.5864C6.85479 12.6631 6.92775 12.7203 7.01344 12.7472C7.09914 12.7742 7.1917 12.769 7.27386 12.7327C7.35603 12.6964 7.42219 12.6315 7.46 12.55C7.74 11.88 8.07 11.24 8.36 10.55C8.55 10.11 8.74 9.66001 8.89 9.20001C9.15 8.41001 9.3 7.62001 9.5 6.82001C9.52688 6.73894 9.52225 6.65072 9.48705 6.5729C9.45184 6.49507 9.38864 6.43336 9.31 6.40001C9.2687 6.38416 9.22462 6.37678 9.18041 6.37831C9.13619 6.37984 9.09274 6.39024 9.05262 6.40889C9.01251 6.42755 8.97655 6.45409 8.9469 6.48692C8.91724 6.51975 8.89449 6.55821 8.88 6.60001Z" fill="black"/>
<path fill-rule="evenodd" clip-rule="evenodd" d="M11.25 10.06L10.76 10.63L9.89 11.5C9.80964 11.5548 9.7541 11.639 9.73538 11.7345C9.71667 11.8299 9.73629 11.9289 9.79 12.01C9.81542 12.0503 9.84858 12.0851 9.88755 12.1124C9.92652 12.1398 9.97053 12.1591 10.017 12.1694C10.0635 12.1796 10.1116 12.1805 10.1585 12.172C10.2053 12.1636 10.25 12.1459 10.29 12.12L11.42 11.37L12.08 10.87C12.3026 10.6716 12.5037 10.4504 12.68 10.21C12.8425 10.0027 12.9523 9.75904 13 9.49999C13.0031 9.40645 12.9859 9.31334 12.9496 9.22705C12.9134 9.14075 12.8589 9.0633 12.79 8.99999C12.6282 8.8451 12.4506 8.70767 12.26 8.58999C11.9369 8.39459 11.6031 8.21764 11.26 8.05999C10.9344 7.90811 10.6005 7.77457 10.26 7.65999C10.1816 7.62568 10.0929 7.62319 10.0126 7.65304C9.93241 7.6829 9.86692 7.74276 9.83 7.81999C9.79569 7.89842 9.79319 7.98712 9.82305 8.06735C9.8529 8.14758 9.91276 8.21307 9.99 8.24999C10.2693 8.42524 10.5366 8.619 10.79 8.82999C11.0408 9.03782 11.278 9.26162 11.5 9.49999C11.63 9.55999 11.81 9.41999 11.25 10.06Z" fill="black"/>
<path fill-rule="evenodd" clip-rule="evenodd" d="M12.93 2.48001C13.23 2.54001 13.68 1.67001 13.68 1.65001C13.7231 1.56989 13.747 1.48091 13.75 1.39001C13.76 1.29694 13.76 1.20307 13.75 1.11001C13.64 0.0100068 13.35 0.110007 13.25 0.0500068C13.15 -0.00999315 12.92 0.0500068 12.61 0.960007C12.5699 1.0349 12.5429 1.11605 12.53 1.20001C12.5198 1.28637 12.5198 1.37364 12.53 1.46001C12.53 1.46001 12.64 2.43001 12.93 2.48001Z" fill="black"/>
<path fill-rule="evenodd" clip-rule="evenodd" d="M17.34 3.93002C17.4386 3.86788 17.5292 3.79401 17.61 3.71002C17.6915 3.63058 17.7651 3.54352 17.83 3.45002C18.56 2.52002 18.5 2.45002 18.37 2.24002C18.24 2.03002 18 2.00002 17.05 2.59002C16.9459 2.65765 16.8458 2.7311 16.75 2.81002C16.6647 2.89869 16.5846 2.99218 16.51 3.09002C15.83 4.09002 16.03 4.27002 16.11 4.35002C16.19 4.43002 16.34 4.61002 17.34 3.93002Z" fill="black"/>
<path fill-rule="evenodd" clip-rule="evenodd" d="M17.54 6.47C17.6 6.85 18.98 6.83 19.01 6.83C19.2097 6.81184 19.4072 6.77501 19.6 6.72C20.8 6.42 20.85 6.33 20.85 6.1C20.85 5.87 20.66 5.61 19.49 5.55C19.3504 5.53526 19.2096 5.53526 19.07 5.55C18.9347 5.57046 18.801 5.60053 18.67 5.64C17.46 6.12 17.52 6.34 17.54 6.47Z" fill="black"/>
<path d="M4.75 18.29C4.70797 18.2913 4.66661 18.3008 4.62828 18.3181C4.58995 18.3354 4.5554 18.3601 4.52661 18.3907C4.49782 18.4214 4.47535 18.4574 4.46049 18.4967C4.44563 18.5361 4.43867 18.578 4.44 18.62C4.44 20.17 4.44 20.29 4.87 20.62C5.16087 20.8565 5.50351 21.021 5.87 21.1C5.84663 21.614 5.98056 22.123 6.25393 22.5589C6.5273 22.9949 6.9271 23.3371 7.4 23.54C7.82851 23.7411 8.28867 23.8663 8.76 23.91C9.22237 23.9523 9.68855 23.9185 10.14 23.81C10.7028 23.7223 11.2268 23.4692 11.6453 23.0827C12.0638 22.6963 12.3579 22.1941 12.49 21.64C12.5102 21.5909 12.5197 21.5381 12.5177 21.4851C12.5157 21.4321 12.5024 21.3802 12.4785 21.3328C12.4547 21.2854 12.421 21.2437 12.3796 21.2105C12.3383 21.1772 12.2903 21.1533 12.2389 21.1403C12.1875 21.1272 12.1338 21.1254 12.0817 21.1349C12.0295 21.1444 11.9799 21.165 11.9364 21.1953C11.8929 21.2257 11.8564 21.265 11.8294 21.3106C11.8024 21.3563 11.7856 21.4072 11.78 21.46C11.6175 21.8159 11.3575 22.1185 11.03 22.3326C10.7026 22.5468 10.3212 22.6637 9.93 22.67C9.59766 22.7063 9.26234 22.7063 8.93 22.67C8.58826 22.636 8.25223 22.5587 7.93 22.44C7.6336 22.3624 7.36128 22.2119 7.13776 22.0024C6.91423 21.7928 6.74657 21.5308 6.65 21.24L6.93 21.3C7.97495 21.4925 9.03914 21.5596 10.1 21.5C10.8318 21.446 11.5506 21.2773 12.23 21L13.05 20.5C13.1494 20.4237 13.24 20.3364 13.32 20.24C13.4087 20.1401 13.4889 20.0331 13.56 19.92C13.7577 19.6828 13.8659 19.3838 13.8659 19.075C13.8659 18.7662 13.7577 18.4672 13.56 18.23C13.4268 18.0847 13.2674 17.9659 13.09 17.88C12.3266 17.6625 11.5328 17.5713 10.74 17.61L8.44 17.8C7.58 17.9 6.72 18.06 5.85 18.17L4.75 18.29ZM5.34 19.29L5.56 18.87L8.56 18.72H10.82C11.341 18.7024 11.862 18.7529 12.37 18.87C12.4814 18.8929 12.5848 18.9446 12.67 19.02C12.6436 19.098 12.6066 19.172 12.56 19.24L12.34 19.5L11.79 19.83C11.0765 20.1496 10.3106 20.336 9.53 20.38C8.68803 20.4515 7.84138 20.4482 7 20.37C6.44706 20.3848 5.89957 20.2574 5.41 20C5.25 19.87 5.21 19.65 5.34 19.31V19.29Z" fill="black"/>
<path d="M13.32 17.1C13.5 16.1 13.38 16.1 13.21 16C13.04 15.9 12.81 16.09 12.21 16.95C12.1906 16.9953 12.1671 17.0388 12.14 17.08C12.14 17.4 13.14 17.73 13.29 17.4L13.32 17.1Z" fill="black"/>
<path d="M15.56 6.45999C15.3167 5.70416 14.8948 5.01812 14.33 4.45999C13.7872 3.92372 13.167 3.47202 12.49 3.11999C11.4042 2.57032 10.2161 2.25185 9.00089 2.18472C7.7857 2.11759 6.56978 2.30326 5.43 2.72999C4.25821 3.12447 3.18852 3.77394 2.29798 4.63163C1.40744 5.48932 0.718224 6.53386 0.279999 7.68999C-0.074641 8.82971 -0.074641 10.0503 0.279999 11.19C0.617054 12.2911 1.17509 13.3119 1.92 14.19C2.37 14.72 2.92 15.19 3.38 15.67C3.5758 15.8659 3.75633 16.0765 3.92 16.3C4.18695 16.6526 4.41181 17.0352 4.59 17.44C4.59 17.52 4.65 17.61 4.69 17.7C4.77 18.06 5.42 17.93 5.43 17.65C5.44 17.37 5.32 17.32 5.25 17.16C5.06615 16.7005 4.8349 16.2615 4.56 15.85C4.39203 15.5802 4.20488 15.3229 4 15.08C3.57 14.57 3.07 14.08 2.66 13.57C2.05023 12.7773 1.60794 11.8689 1.36 10.9C1.11934 9.97563 1.16114 9.00037 1.48 8.09999C1.8618 7.11744 2.45326 6.22996 3.21318 5.49941C3.97309 4.76885 4.88317 4.2128 5.88 3.86999C6.87008 3.47793 7.92846 3.28748 8.99311 3.3098C10.0578 3.33212 11.1072 3.56677 12.08 3.99999C12.6899 4.29657 13.2554 4.67691 13.76 5.12999C14.2475 5.55946 14.6277 6.09716 14.87 6.69999C14.9019 6.79049 14.9677 6.86507 15.0535 6.90798C15.1393 6.95089 15.2385 6.95878 15.33 6.92999C15.3768 6.91542 15.4201 6.89145 15.4572 6.85956C15.4944 6.82767 15.5247 6.78853 15.5462 6.74454C15.5678 6.70054 15.5801 6.65261 15.5825 6.60368C15.5848 6.55476 15.5772 6.50586 15.56 6.45999Z" fill="black"/>
</g>
<defs>
<clipPath id="clip0_1034_4397">
<rect width="24" height="24" fill="white"/>
</clipPath>
</defs>
</svg>
