<svg width="24" height="24" viewBox="0 0 24 24" fill="none" xmlns="http://www.w3.org/2000/svg">
<g clip-path="url(#clip0_1034_4512)">
<path fill-rule="evenodd" clip-rule="evenodd" d="M0.819993 5.89999C1.74999 5.89999 1.81999 6.44999 3.81999 5.89999C3.8716 5.90868 3.92448 5.90601 3.97496 5.89218C4.02543 5.87834 4.07228 5.85367 4.11224 5.81987C4.15221 5.78608 4.18432 5.74398 4.20635 5.6965C4.22837 5.64903 4.23978 5.59732 4.23978 5.54499C4.23978 5.49265 4.22837 5.44094 4.20635 5.39347C4.18432 5.34599 4.15221 5.30389 4.11224 5.2701C4.07228 5.23631 4.02543 5.21163 3.97496 5.19779C3.92448 5.18396 3.8716 5.18129 3.81999 5.18999C3.61999 5.18999 3.16999 5.02999 2.70999 4.95999C2.79999 4.35999 2.92999 3.75999 2.97999 3.13999C3.02999 2.51999 2.97999 1.04999 2.38999 0.789986C2.29518 0.720944 2.17798 0.689845 2.06142 0.702796C1.94485 0.715748 1.83734 0.771815 1.75999 0.859986C0.909993 1.85999 0.889993 2.63999 1.26999 2.44999L1.79999 2.12999C1.76642 3.08719 1.78979 4.04555 1.86999 4.99999C1.4717 5.04926 1.0796 5.13975 0.699993 5.26999C0.579993 5.36999 0.489993 5.45999 0.509993 5.57999C0.508652 5.62153 0.515679 5.66292 0.530657 5.70169C0.545634 5.74046 0.568256 5.77583 0.597177 5.80568C0.626098 5.83554 0.660727 5.85927 0.699005 5.87547C0.737283 5.89167 0.778428 5.90001 0.819993 5.89999Z" fill="black"/>
<path fill-rule="evenodd" clip-rule="evenodd" d="M8.05999 5.72999C8.4384 5.89613 8.86437 5.91874 9.25824 5.79358C9.6521 5.66843 9.98689 5.40408 10.2 5.04999C10.91 3.84999 10.29 1.27999 9.63999 0.819987C9.25999 0.349987 8.09999 0.739987 7.74999 1.04999C6.14999 2.45999 5.85999 5.11999 8.05999 5.72999ZM8.32999 1.61999C8.65999 1.24999 9.15999 1.17999 9.32999 1.61999C9.60203 2.45559 9.6229 3.35265 9.38999 4.19999C9.25999 4.56999 8.95999 4.73999 8.38999 4.57999C8.14015 4.52458 7.92106 4.3755 7.77782 4.16343C7.63458 3.95136 7.57809 3.69245 7.61999 3.43999C7.65642 2.77311 7.90521 2.13537 8.32999 1.61999Z" fill="black"/>
<path fill-rule="evenodd" clip-rule="evenodd" d="M16.14 5.86999C18.92 5.40999 17.82 0.319985 16.05 0.359985C15.7771 0.328582 15.5006 0.357047 15.2398 0.443399C14.979 0.529751 14.7402 0.671913 14.54 0.859985C14.1476 1.35447 13.8778 1.93481 13.7526 2.55355C13.6275 3.1723 13.6506 3.81187 13.82 4.41999C13.9501 4.91118 14.2624 5.33441 14.6933 5.60372C15.1242 5.87304 15.6414 5.96824 16.14 5.86999ZM15.14 1.37999C15.5623 1.26523 16.0076 1.26523 16.43 1.37999C17 2.28999 17 4.51999 16 4.67999C14.54 4.88999 14.41 2.24999 15.11 1.37999H15.14Z" fill="black"/>
<path fill-rule="evenodd" clip-rule="evenodd" d="M20.29 2.76999C20.67 2.95999 20.73 2.45999 21.29 1.84999L21.49 4.26999C21.49 4.31999 21.49 4.75999 21.54 5.12999C21.2 5.12999 20.38 4.94999 20.19 5.47999C20.19 5.55999 20.19 5.63999 20.29 5.75999C20.85 6.75999 22.69 6.04999 22.78 6.04999C22.8253 6.06444 22.873 6.06982 22.9204 6.06582C22.9678 6.06183 23.0139 6.04855 23.0562 6.02672C23.0984 6.0049 23.136 5.97497 23.1666 5.93864C23.1973 5.90231 23.2205 5.8603 23.235 5.81499C23.2494 5.76969 23.2548 5.72198 23.2508 5.67459C23.2468 5.62721 23.2335 5.58107 23.2117 5.53882C23.1899 5.49657 23.16 5.45903 23.1236 5.42835C23.0873 5.39766 23.0453 5.37444 23 5.35999C22.8073 5.26862 22.6015 5.20789 22.39 5.17999C22.55 3.60999 22.83 2.58999 22.39 1.17999C22.18 0.769991 22 0.619991 21.69 0.639991C21.5085 0.635944 21.3314 0.696155 21.19 0.809991C20.782 1.27076 20.4449 1.7898 20.19 2.34999C20.1683 2.38393 20.1536 2.42189 20.1469 2.46162C20.1401 2.50135 20.1415 2.54203 20.1508 2.58122C20.1601 2.62042 20.1773 2.65734 20.2012 2.68977C20.2251 2.7222 20.2553 2.74949 20.29 2.76999Z" fill="black"/>
<path fill-rule="evenodd" clip-rule="evenodd" d="M1.53999 14.23C1.92636 14.2772 2.31798 14.207 2.66396 14.0287C3.00993 13.8504 3.29426 13.5721 3.47999 13.23C3.74366 12.8064 3.90292 12.3262 3.94464 11.8289C3.98637 11.3317 3.90937 10.8316 3.71999 10.37C3.70625 10.32 3.68186 10.2735 3.64849 10.2338C3.61513 10.1941 3.57358 10.1621 3.52668 10.1399C3.47979 10.1178 3.42866 10.106 3.37679 10.1054C3.32493 10.1049 3.27355 10.1155 3.22619 10.1366C3.17882 10.1578 3.13658 10.1889 3.10235 10.2279C3.06813 10.2668 3.04273 10.3127 3.0279 10.3624C3.01307 10.4122 3.00915 10.4645 3.01641 10.5158C3.02368 10.5672 3.04196 10.6164 3.06999 10.66C3.38999 11.53 2.78999 13.24 1.69999 13.05C0.859994 12.92 0.999994 9.88 1.99999 9.7C2.20999 9.7 2.36999 9.83 2.63999 9.87C2.72089 9.88857 2.80584 9.87424 2.87616 9.83016C2.94649 9.78609 2.99643 9.71589 3.01499 9.635C3.03356 9.55411 3.01923 9.46916 2.97516 9.39883C2.93109 9.3285 2.86089 9.27857 2.77999 9.26C2.50999 9.17 2.41999 9 1.99999 9C-0.150006 9 -0.940006 14 1.53999 14.23Z" fill="black"/>
<path fill-rule="evenodd" clip-rule="evenodd" d="M23.76 13.67C23.4866 13.5293 23.1931 13.4315 22.89 13.38C22.98 12.23 23.31 9.54998 22.42 8.83998C22.3306 8.74429 22.2099 8.68365 22.0797 8.66899C21.9496 8.65432 21.8185 8.68659 21.71 8.75998C21.5208 8.90889 21.3699 9.1009 21.27 9.31998C21.18 9.47998 20.72 10.08 20.96 10.4C21.2 10.72 21.52 10.4 21.77 10.17C22.11 13.99 21.99 12.42 21.98 13.35H21.89C21.6052 13.4204 21.3247 13.5072 21.05 13.61C20.85 13.74 20.81 13.87 20.84 13.95C20.87 14.03 20.84 14.1 20.94 14.14C20.9606 14.1702 20.9895 14.1938 21.0232 14.208C21.0569 14.2222 21.094 14.2263 21.13 14.22C21.67 14.3 21.9 14.53 22.5 14.49C23.1 14.45 23.38 14.31 23.5 14.32C23.5862 14.3545 23.6825 14.3533 23.7679 14.3167C23.8532 14.2801 23.9205 14.2112 23.955 14.125C23.9895 14.0388 23.9883 13.9424 23.9517 13.8571C23.9152 13.7718 23.8462 13.7045 23.76 13.67Z" fill="black"/>
<path fill-rule="evenodd" clip-rule="evenodd" d="M23.26 22.34L22.64 22.2C22.7235 21.6299 22.7769 21.0557 22.8 20.48C22.8 19.79 22.7 17.72 22.04 17.48C21.38 17.24 21.39 17.57 20.62 18.66C20.5583 18.7034 20.5139 18.7672 20.4946 18.8402C20.4754 18.9131 20.4826 18.9905 20.5149 19.0587C20.5472 19.1269 20.6025 19.1815 20.6712 19.2128C20.7398 19.2442 20.8173 19.2502 20.89 19.23C21.1212 19.1135 21.3256 18.95 21.49 18.75C21.49 19.13 21.49 18.54 21.8 22.07C21.615 22.0346 21.425 22.0346 21.24 22.07C20.8978 22.1995 20.5639 22.3498 20.24 22.52C20.09 22.65 20.05 22.76 20.07 22.81C20.09 22.86 20.07 23.11 20.31 23.11C21.3056 23.2983 22.3308 23.2607 23.31 23C23.3725 22.9674 23.4241 22.9173 23.4583 22.8557C23.4926 22.7941 23.508 22.7238 23.5027 22.6535C23.4974 22.5832 23.4715 22.5161 23.4284 22.4603C23.3852 22.4046 23.3267 22.3628 23.26 22.34Z" fill="black"/>
<path d="M7.36999 13.45C8.09204 13.5108 8.81794 13.5108 9.53999 13.45L9.98999 13.37C11.5395 13.0201 13.0131 12.3934 14.34 11.52C14.47 11.43 14.95 11.3 14.97 11.11C15.6188 11.9218 16.3238 12.6871 17.08 13.4C17.1518 13.4511 17.2399 13.4741 17.3276 13.4646C17.4153 13.4551 17.4964 13.4137 17.5556 13.3484C17.6148 13.283 17.6479 13.1982 17.6487 13.11C17.6496 13.0218 17.618 12.9364 17.56 12.87C16.16 11.55 15.76 9.63997 14.56 10.03C14.35 10.1 14.67 9.97997 11.56 11.81C10.1792 12.5954 8.59286 12.9441 7.00999 12.81C6.95148 12.8334 6.90118 12.8736 6.86541 12.9254C6.82963 12.9773 6.80998 13.0386 6.80891 13.1016C6.80785 13.1647 6.82541 13.2266 6.8594 13.2797C6.8934 13.3327 6.9423 13.3746 6.99999 13.4H7.15999L7.36999 13.45Z" fill="black"/>
<path d="M5.48999 15.55C4.99999 11.45 7.99999 7.88997 13.2 8.31997C13.2772 8.31783 13.351 8.28784 13.4078 8.23555C13.4646 8.18326 13.5006 8.11218 13.5091 8.03543C13.5177 7.95869 13.4982 7.88145 13.4542 7.81796C13.4103 7.75447 13.3448 7.70901 13.27 7.68997C8.99999 7.18997 6.34999 8.99997 5.21999 11.61C4.54252 12.8531 4.35012 14.3032 4.67999 15.68C4.87999 16.34 5.41999 16 5.48999 15.55Z" fill="black"/>
<path d="M19 15.71C18.871 15.1742 18.5687 14.6961 18.14 14.35C17.8265 14.0847 17.4574 13.8933 17.06 13.79C16.9716 13.7807 16.883 13.8045 16.8111 13.8566C16.7392 13.9088 16.6891 13.9857 16.6705 14.0726C16.6519 14.1594 16.6661 14.2501 16.7103 14.3272C16.7545 14.4042 16.8256 14.4622 16.91 14.49C18.91 14.97 18.7 19.31 15.05 18.49C12.76 17.98 13.15 13.89 16.21 14.12C16.2922 14.1279 16.3742 14.1029 16.438 14.0504C16.5017 13.9979 16.542 13.9222 16.55 13.84C16.5579 13.7577 16.5329 13.6757 16.4804 13.612C16.4279 13.5482 16.3522 13.5079 16.27 13.5C11.95 12.96 11.27 18.83 14.79 19.67C15.2896 19.774 15.8022 19.801 16.31 19.75C16.6523 19.6783 16.9871 19.5745 17.31 19.44C17.9984 19.1316 18.5503 18.5822 18.8616 17.8951C19.1729 17.208 19.2221 16.4308 19 15.71Z" fill="black"/>
<path d="M16.4 20.12C15.4609 20.7221 14.402 21.1127 13.2969 21.2646C12.1917 21.4166 11.0668 21.3263 9.99999 21C9.27072 20.8892 8.58208 20.5931 8 20.14C7.57 19.75 5.8 19.9 6.92 20.8C7.72678 21.4762 8.67778 21.9585 9.69999 22.21C13.97 23.15 16.26 22.54 17.84 20.36C18.11 20 17.09 19.61 16.4 20.12Z" fill="black"/>
<path d="M7.85999 19.68C9.45999 19.83 10.56 19.61 11.27 18.89C12.81 17.33 12.37 14.25 10.14 13.79C10.0501 13.7763 9.95841 13.7971 9.88326 13.8482C9.80811 13.8994 9.75508 13.977 9.73483 14.0657C9.71458 14.1543 9.72859 14.2473 9.77407 14.326C9.81954 14.4047 9.8931 14.4633 9.97999 14.49C11.98 14.97 11.77 19.31 8.12999 18.49C5.82999 17.98 6.22999 13.89 9.27999 14.12C9.3264 14.1254 9.37342 14.1198 9.41731 14.1038C9.46121 14.0878 9.50075 14.0618 9.5328 14.0278C9.56485 13.9938 9.58852 13.9528 9.60192 13.908C9.61532 13.8633 9.61808 13.816 9.60999 13.77C9.60999 13.46 8.21999 13.46 7.32999 13.77C6.90253 13.9892 6.53187 14.3048 6.24726 14.6918C5.96265 15.0788 5.77187 15.5266 5.68999 16C5.57467 16.7511 5.68246 17.5196 5.99999 18.21C6.19389 18.5685 6.45883 18.8838 6.77862 19.1365C7.09841 19.3892 7.46635 19.5742 7.85999 19.68Z" fill="black"/>
<path d="M15.24 8.47998C15.1485 8.46009 15.0528 8.47736 14.9741 8.528C14.8953 8.57863 14.8399 8.65848 14.82 8.74998C14.8001 8.84148 14.8174 8.93714 14.868 9.0159C14.9186 9.09467 14.9985 9.15009 15.09 9.16998C16.1875 9.45083 17.1571 10.0961 17.84 11C18.6264 12.01 19.0175 13.2722 18.94 14.55C18.94 14.94 19.67 15.44 19.8 14.91C20.0627 13.8723 20.014 12.7802 19.66 11.77C19.2645 10.8905 18.6509 10.1266 17.8774 9.55082C17.1038 8.97503 16.196 8.60643 15.24 8.47998Z" fill="black"/>
<path d="M7.50999 16.49C7.46135 16.5555 7.43961 16.6372 7.44921 16.7183C7.45882 16.7993 7.49903 16.8737 7.56164 16.9261C7.62425 16.9784 7.7045 17.0049 7.78599 17.0001C7.86748 16.9952 7.94403 16.9594 7.99999 16.9C8.17999 16.78 9.31999 16.48 9.65999 16.71C9.72642 16.768 9.81183 16.7996 9.90001 16.7987C9.98819 16.7979 10.073 16.7648 10.1384 16.7056C10.2037 16.6464 10.2451 16.5653 10.2546 16.4776C10.2641 16.3899 10.2411 16.3018 10.19 16.23C10.0569 15.9726 9.84969 15.7609 9.59516 15.6224C9.34062 15.4839 9.05041 15.4248 8.76197 15.4528C8.47353 15.4807 8.20009 15.5945 7.97693 15.7794C7.75377 15.9643 7.59113 16.2118 7.50999 16.49Z" fill="black"/>
<path d="M15 16.21C14.9477 16.2848 14.9257 16.3767 14.9386 16.4672C14.9515 16.5576 14.9983 16.6397 15.0695 16.6969C15.1407 16.7541 15.231 16.7821 15.322 16.7753C15.4131 16.7684 15.4982 16.7272 15.56 16.66C16.0612 16.5482 16.5834 16.5758 17.07 16.74C17.1303 16.7912 17.2075 16.8182 17.2866 16.8159C17.3657 16.8135 17.4411 16.7819 17.4983 16.7272C17.5554 16.6726 17.5903 16.5986 17.5962 16.5197C17.602 16.4408 17.5785 16.3625 17.53 16.3C17.4392 16.0423 17.2729 15.8179 17.0527 15.6561C16.8325 15.4943 16.5687 15.4026 16.2957 15.3929C16.0226 15.3831 15.753 15.4559 15.5218 15.6017C15.2907 15.7474 15.1089 15.9594 15 16.21Z" fill="black"/>
<path d="M4.12999 22.7C3.69288 22.597 3.24806 22.5301 2.79999 22.5C2.97886 21.2643 2.99902 20.0108 2.85999 18.77C2.85999 18.53 2.78999 17.55 2.39999 17.24C2.16999 17.07 1.93999 16.99 1.70999 17.24C1.2738 17.7594 1.04576 18.4221 1.06999 19.1C1.10342 19.1583 1.15386 19.205 1.21457 19.2339C1.27527 19.2627 1.34334 19.2724 1.40967 19.2615C1.476 19.2506 1.53743 19.2197 1.58574 19.173C1.63405 19.1263 1.66693 19.0659 1.67999 19C2.12999 22.92 2.13999 22.47 1.94999 22.48C0.219994 22.59 -0.0500063 23.28 0.519994 23.4C1.7156 23.6975 2.9625 23.7249 4.16999 23.48C4.54999 23.47 4.73999 22.9 4.12999 22.7Z" fill="black"/>
</g>
<defs>
<clipPath id="clip0_1034_4512">
<rect width="24" height="24" fill="white"/>
</clipPath>
</defs>
</svg>
