<svg width="24" height="24" viewBox="0 0 24 24" fill="none" xmlns="http://www.w3.org/2000/svg">
<g clip-path="url(#clip0_1046_5837)">
<path d="M5.87 5.99997C5.88392 6.08139 5.92618 6.15527 5.98932 6.20854C6.05246 6.2618 6.1324 6.29102 6.215 6.29102C6.29761 6.29102 6.37755 6.2618 6.44069 6.20854C6.50383 6.15527 6.54609 6.08139 6.56 5.99997C6.56 5.51997 6.73 4.99997 6.78 4.55997C6.77124 4.00449 6.70421 3.45146 6.58 2.90997C6.59194 2.81714 6.56651 2.72338 6.50931 2.6493C6.45211 2.57522 6.36783 2.5269 6.275 2.51497C6.18218 2.50303 6.08841 2.52846 6.01433 2.58566C5.94026 2.64286 5.89194 2.72714 5.88 2.81997C5.5648 3.85604 5.56133 4.96194 5.87 5.99997Z" fill="black"/>
<path d="M7.17 8.47002C7.8 7.78002 6.85 6.97001 6.17 6.89001C5.87895 6.9191 5.60522 7.04193 5.39 7.24001C5.18 7.41001 4.95 7.52001 4.93 7.95001C4.9 9.00001 6.58 9.12002 7.17 8.47002Z" fill="black"/>
<path d="M24 8.53C23.9272 7.95187 23.6377 7.42292 23.19 7.05C22.3467 6.44303 21.4457 5.92051 20.5 5.49C19.1539 4.80873 17.7521 4.24335 16.31 3.8C15.8912 3.64717 15.4407 3.60245 15 3.67C14.7813 3.77188 14.5735 3.89586 14.38 4.04C14.15 4.2 13.88 4.4 13.58 4.64C13.5409 4.66193 13.507 4.69209 13.4806 4.7284C13.4543 4.76471 13.4362 4.8063 13.4275 4.85031C13.4188 4.89431 13.4197 4.93967 13.4303 4.98327C13.4408 5.02687 13.4607 5.06766 13.4885 5.10282C13.5164 5.13799 13.5515 5.1667 13.5915 5.18696C13.6315 5.20723 13.6755 5.21857 13.7203 5.2202C13.7651 5.22183 13.8098 5.21372 13.8512 5.19642C13.8925 5.17912 13.9297 5.15305 13.96 5.12C14.25 4.89 14.51 4.71 14.73 4.56C14.8896 4.44883 15.0605 4.35497 15.24 4.28C15.48 4.27155 15.719 4.31593 15.94 4.41C16.13 4.41 16.33 4.53 16.55 4.61C16.55 4.61 16.25 5.15 16.15 5.37C16.0716 5.54089 16.021 5.72317 16 5.91C15.9912 6.06465 16.0151 6.21942 16.0703 6.36418C16.1254 6.50893 16.2105 6.64041 16.32 6.75C16.6675 7.09119 17.0698 7.37174 17.51 7.58L18.83 8.15C19.0484 8.26825 19.285 8.34936 19.53 8.39C19.7327 8.41959 19.9396 8.39545 20.13 8.32L21 7.79L21.39 7.61H21.45C21.5167 7.57191 21.5719 7.51666 21.61 7.45C21.645 7.36341 21.645 7.26659 21.61 7.18C21.9 7.37 22.53 7.75 22.74 7.9C22.95 8.05 22.48 8.63 22.28 8.9C21.2777 10.321 20.2029 11.6895 19.06 13C17.23 15.16 15.15 17.47 13.82 18.9C13.13 19.63 12.69 20.14 12.6 20.19C12.1639 20.2596 11.717 20.1933 11.32 20C10.1163 19.599 8.96221 19.0622 7.88 18.4C6.60803 17.7052 5.45105 16.8181 4.45 15.77C4.23 15.5 4.06 15.29 4.12 15.11C4.20104 14.9274 4.30523 14.756 4.43 14.6C4.6 14.37 4.83 14.09 5.09 13.78C5.11955 13.7459 5.14208 13.7062 5.15631 13.6634C5.17055 13.6205 5.1762 13.5753 5.17295 13.5302C5.1697 13.4852 5.15761 13.4413 5.13737 13.4009C5.11713 13.3605 5.08914 13.3245 5.055 13.295C5.02086 13.2655 4.98123 13.2429 4.93838 13.2287C4.89552 13.2145 4.85029 13.2088 4.80525 13.2121C4.76022 13.2153 4.71626 13.2274 4.6759 13.2476C4.63553 13.2679 4.59955 13.2959 4.57 13.33C4.23 13.72 3.95 14.06 3.75 14.33C3.42488 14.8498 3.17253 15.4117 3 16C2.87637 16.5818 2.81602 17.1752 2.82 17.77C2.9026 18.2379 3.12994 18.6681 3.47 19C4.58456 20.1386 5.85365 21.1148 7.24 21.9C8.42177 22.6288 9.68338 23.2193 11 23.66C11.6407 23.8871 12.3261 23.9591 13 23.87C13.5191 23.6866 13.9907 23.3893 14.38 23C15.6999 21.7703 16.9328 20.4504 18.07 19.05C20.88 15.65 23.74 11.48 23.84 10.69C23.9888 9.98027 24.0426 9.25391 24 8.53ZM21.15 7L20.77 7.11L19.86 7.48C19.8072 7.49051 19.7528 7.49051 19.7 7.48C19.5675 7.42334 19.4431 7.34937 19.33 7.26L18.05 6.61C17.7342 6.4867 17.4297 6.33613 17.14 6.16C17.05 6.1 16.91 6.07 16.91 5.96C16.8882 5.84099 16.8882 5.71901 16.91 5.6C16.948 5.44627 16.9982 5.2958 17.06 5.15L17.12 4.9C17.78 5.17 18.52 5.5 19.26 5.9C20 6.3 20.66 6.64 21.26 7H21.15ZM18.28 17.08C16.8976 18.7805 15.422 20.403 13.86 21.94C13.5522 22.276 13.1864 22.5538 12.78 22.76C11.78 22.99 9.65 22.12 7.72 21.05C6.38739 20.3589 5.15867 19.4836 4.07 18.45C3.79 18.16 3.59 17.92 3.58 17.72C3.5682 17.2556 3.59161 16.7909 3.65 16.33L3.71 16C3.77 16.09 3.78 16.17 3.85 16.26C4.88023 17.4126 6.0808 18.4007 7.41 19.19C8.702 20.0568 10.1135 20.7306 11.6 21.19C12.063 21.3296 12.557 21.3296 13.02 21.19C13.6753 20.6633 14.2873 20.0847 14.85 19.46C16.51 17.72 19.06 14.89 20.99 12.46C21.841 11.4261 22.6227 10.337 23.33 9.2C23.2965 9.6708 23.2296 10.1386 23.13 10.6C23 11.25 20.69 14.21 18.28 17.08Z" fill="black"/>
<path d="M10.23 10.5C11.1437 10.7686 12.0719 10.9856 13.01 11.15C13.2023 11.196 13.4029 11.1945 13.5945 11.1457C13.7862 11.0969 13.9631 11.0023 14.11 10.87C14.2035 10.7248 14.2424 10.5512 14.22 10.38C14.1505 10.0291 14.0256 9.69158 13.85 9.37999C13.4247 8.58331 12.933 7.82395 12.38 7.10999C12.6611 5.62786 12.3983 4.09408 11.64 2.78999C11.2457 2.08939 10.6949 1.48934 10.0306 1.03661C9.36621 0.583886 8.60627 0.290726 7.81 0.17999C6.74143 -0.00712875 5.64535 0.0342563 4.59393 0.301419C3.54251 0.568582 2.55963 1.05546 1.71 1.72999C0.400001 2.91999 -0.379999 4.86999 0.180001 7.84999C0.34883 8.9405 0.865466 9.94728 1.65293 10.7203C2.4404 11.4934 3.45656 11.9913 4.55 12.14C5.55908 12.2975 6.59041 12.2324 7.57163 11.9491C8.55286 11.6657 9.4602 11.1712 10.23 10.5ZM1.32 7.62999C0.840001 5.16999 1.41 3.54999 2.47 2.53999C3.19151 1.94873 4.02837 1.51441 4.92716 1.26475C5.82594 1.01508 6.76692 0.955564 7.69 1.08999C8.36339 1.15855 9.01204 1.38085 9.58593 1.73974C10.1598 2.09864 10.6436 2.58454 11 3.15999C11.7419 4.35245 12.0095 5.77978 11.75 7.15999C11.7393 7.21146 11.739 7.26456 11.7494 7.31612C11.7597 7.36767 11.7803 7.41661 11.81 7.45999C11.81 7.45999 12.44 8.37999 12.81 9.03999C13.0316 9.40878 13.2191 9.79707 13.37 10.2V10.37H13.32C12.9821 10.3446 12.6473 10.2877 12.32 10.2C11.47 9.98999 10.51 9.64999 10.1 9.56999C10.0302 9.5542 9.95743 9.55697 9.88901 9.57803C9.82059 9.59908 9.75887 9.63768 9.71 9.68999C9.03127 10.2774 8.23107 10.7075 7.36668 10.9496C6.50229 11.1916 5.59509 11.2395 4.71 11.09C3.84882 10.9526 3.05455 10.5421 2.44423 9.91922C1.83391 9.29629 1.43981 8.4938 1.32 7.62999Z" fill="black"/>
</g>
<defs>
<clipPath id="clip0_1046_5837">
<rect width="24" height="24" fill="white"/>
</clipPath>
</defs>
</svg>
