<svg width="24" height="24" viewBox="0 0 24 24" fill="none" xmlns="http://www.w3.org/2000/svg">
<g clip-path="url(#clip0_1046_5828)">
<path d="M14.15 17.67C14.0695 17.67 13.9921 17.7013 13.9343 17.7572C13.8764 17.8132 13.8426 17.8895 13.84 17.97V18.74C12.28 18.67 10.72 18.51 9.17 18.41C8.08 18.35 7 18.29 6 18.3C4.42266 18.3323 2.8492 18.4693 1.29 18.71C1.18 16.35 1.12 12.92 1.17 9.77001C1.17 6.15001 1.34 2.90001 1.82 2.13001C1.91 1.99001 2.18 1.91001 2.53 1.80001C3.36548 1.58285 4.21901 1.44227 5.08 1.38001C6.96257 1.20417 8.85743 1.20417 10.74 1.38001C11.2567 1.4319 11.7684 1.52554 12.27 1.66001C12.62 1.76001 12.89 1.85001 12.98 2.00001C13.0399 2.13006 13.0803 2.2682 13.1 2.41001C13.1605 2.6606 13.2072 2.91431 13.24 3.17001C13.2548 3.26017 13.3033 3.34133 13.3757 3.39704C13.4482 3.45275 13.5391 3.47883 13.63 3.47001C13.7194 3.45522 13.7996 3.4063 13.8537 3.33355C13.9078 3.26081 13.9316 3.16992 13.92 3.08001C13.8855 2.74394 13.8321 2.41008 13.76 2.08001C13.7369 1.91464 13.6826 1.75515 13.6 1.61001C13.3962 1.32048 13.1 1.10889 12.76 1.01001C12.1375 0.824127 11.4974 0.703478 10.85 0.650013C8.577 0.367037 6.27965 0.336853 4 0.560013C3.18297 0.620987 2.3785 0.796018 1.61 1.08001C1.36627 1.19486 1.1562 1.37049 1 1.59001C0.45 2.40001 0.0999997 5.87001 -3.18512e-07 9.75001C-0.0800003 15 0.23 20.93 0.54 21.87C0.676283 22.1476 0.871113 22.3924 1.11107 22.5875C1.35103 22.7825 1.63042 22.9233 1.93 23C3.72732 23.4874 5.58995 23.6898 7.45 23.6C9.29672 23.6112 11.1344 23.3415 12.9 22.8C13.4132 22.6473 13.8627 22.3313 14.18 21.9C14.3129 21.493 14.3837 21.0682 14.39 20.64C14.39 19.98 14.45 19.07 14.45 18C14.4542 17.9582 14.4496 17.9159 14.4364 17.876C14.4232 17.836 14.4018 17.7993 14.3735 17.7682C14.3452 17.7371 14.3107 17.7123 14.2722 17.6954C14.2337 17.6784 14.1921 17.6698 14.15 17.67ZM13.58 21.52C13.336 21.804 13.0059 22.0006 12.64 22.08C10.9471 22.5426 9.19373 22.7449 7.44 22.68C5.69828 22.7252 3.96031 22.4957 2.29 22C1.93 21.86 1.64 21.75 1.57 21.55C1.432 20.8376 1.35173 20.1153 1.33 19.39C2.72 19.39 4.09 19.39 5.45 19.45L8.57 19.53C10.3233 19.53 12.0633 19.5 13.79 19.44V20.22C13.7709 20.66 13.7004 21.0963 13.58 21.52Z" fill="black"/>
<path d="M13.34 4.67998C12.3817 4.5581 11.4157 4.50796 10.45 4.52998C8.11123 4.44254 5.76928 4.55629 3.45 4.86998C2.99 4.96998 2.89 5.20998 2.85 5.32998C2.68025 5.9832 2.5929 6.65508 2.59 7.32998C2.56383 7.75491 2.61119 8.18117 2.73 8.58998C2.77878 8.74974 2.87251 8.89207 3 8.99998C3.90477 9.2372 4.83477 9.36478 5.77 9.37998C7.95 9.51998 10.85 9.59998 11.87 9.61998C12.3681 9.63827 12.8668 9.61149 13.36 9.53998C13.6898 9.495 13.992 9.33149 14.21 9.07998C14.3133 8.93975 14.3756 8.77357 14.39 8.59998C14.4453 7.93446 14.4453 7.2655 14.39 6.59998C14.3673 6.18498 14.2899 5.77478 14.16 5.37998C14.0942 5.19867 13.9882 5.03458 13.85 4.89998C13.6988 4.78903 13.5244 4.71381 13.34 4.67998ZM13.27 8.34998C13.27 8.34998 12.98 8.40998 12.84 8.41998H11.9H5.84C5.03812 8.4402 4.23586 8.40009 3.44 8.29998C3.40123 8.22454 3.37425 8.1436 3.36 8.05998C3.30125 7.8075 3.27106 7.54921 3.27 7.28998C3.24995 6.75094 3.28682 6.21129 3.38 5.67998C3.38488 5.6301 3.38488 5.57986 3.38 5.52998C3.78 5.42998 6.77 5.40998 9.38 5.46998C10.67 5.46998 11.86 5.56998 12.62 5.66998C12.86 5.66998 13.17 5.73998 13.17 5.73998V6.25998C13.2447 6.95405 13.2781 7.65195 13.27 8.34998Z" fill="black"/>
<path d="M16.4 12.05C16.3372 11.8701 16.2307 11.7086 16.09 11.58C15.9302 11.4734 15.7495 11.4018 15.56 11.37C14.606 11.2379 13.6428 11.1844 12.68 11.21C7.8 11.21 6.25 11.35 5.62 11.56C5.19 11.7 5.09 11.9 5.06 12.01C4.89209 12.6638 4.80147 13.3351 4.79 14.01C4.76702 14.4322 4.81778 14.8552 4.94 15.26C4.99935 15.4278 5.11167 15.5717 5.26 15.67C6.15684 15.8892 7.07675 16 8 16C10.18 16.15 13.09 16.23 14.11 16.25C14.6051 16.2702 15.101 16.24 15.59 16.16C15.9206 16.1157 16.2251 15.9564 16.45 15.71C16.5468 15.5627 16.6084 15.395 16.63 15.22C16.6853 14.5545 16.6853 13.8856 16.63 13.22C16.6022 12.822 16.5249 12.429 16.4 12.05ZM15.5 15H15.45C15.3288 15.0316 15.2049 15.0517 15.08 15.06H14.14H8.07C7.26973 15.107 6.46693 15.0869 5.67 15C5.62983 14.9242 5.59958 14.8436 5.58 14.76C5.52519 14.5105 5.49836 14.2555 5.5 14C5.51283 13.4115 5.55622 12.8241 5.63 12.24C6.03 12.15 9.02 12.12 11.63 12.18C12.92 12.18 14.52 12.31 15.28 12.36C15.43 12.36 15.42 12.83 15.44 12.98C15.5271 13.6497 15.5472 14.3264 15.5 15Z" fill="black"/>
<path d="M16.15 6.42C16.5286 6.5238 16.9125 6.60725 17.3 6.67C17.463 6.68525 17.627 6.68525 17.79 6.67C17.9532 6.68025 18.1168 6.68025 18.28 6.67C18.72 6.61 19.11 6.52 19.43 6.47C19.5228 6.47 19.6119 6.43313 19.6775 6.36749C19.7431 6.30185 19.78 6.21283 19.78 6.12C19.7774 6.02892 19.7394 5.94245 19.674 5.87896C19.6087 5.81547 19.5211 5.77997 19.43 5.78C19.11 5.72 18.72 5.63 18.28 5.58C17.9484 5.53144 17.6116 5.53144 17.28 5.58C16.8925 5.64276 16.5086 5.72621 16.13 5.83C16.0504 5.83 15.9741 5.86161 15.9179 5.91787C15.8616 5.97413 15.83 6.05044 15.83 6.13C15.83 6.20957 15.8616 6.28587 15.9179 6.34214C15.9741 6.3984 16.0504 6.43 16.13 6.43L16.15 6.42Z" fill="black"/>
<path d="M20.65 13.22C20.99 13.17 21.28 13.08 21.54 13.02C21.6302 13.02 21.7167 12.9842 21.7804 12.9204C21.8442 12.8566 21.88 12.7702 21.88 12.68C21.88 12.5898 21.8442 12.5033 21.7804 12.4396C21.7167 12.3758 21.6302 12.34 21.54 12.34C21.28 12.28 20.99 12.19 20.65 12.13C20.5202 12.1201 20.3898 12.1201 20.26 12.13C20.1338 12.1147 20.0062 12.1147 19.88 12.13C19.5779 12.1928 19.2806 12.2763 18.99 12.38C18.9104 12.38 18.8341 12.4116 18.7779 12.4679C18.7216 12.5241 18.69 12.6004 18.69 12.68C18.69 12.7596 18.7216 12.8359 18.7779 12.8921C18.8341 12.9484 18.9104 12.98 18.99 12.98C19.2806 13.0837 19.5779 13.1672 19.88 13.23C20.0065 13.2403 20.1335 13.2403 20.26 13.23C20.3901 13.2365 20.5204 13.2332 20.65 13.22Z" fill="black"/>
<path d="M20 8.99998C20.72 8.99998 21.44 8.84999 22.16 8.76999C22.2502 8.76999 22.3367 8.73416 22.4004 8.6704C22.4642 8.60664 22.5 8.52016 22.5 8.42999C22.5 8.33981 22.4642 8.25333 22.4004 8.18957C22.3367 8.12581 22.2502 8.08999 22.16 8.08999C21.44 7.99999 20.72 7.84998 20 7.80998C19.7137 7.78998 19.4263 7.78998 19.14 7.80998C18.9459 7.81629 18.7523 7.83298 18.56 7.85999C18.33 7.85999 17.96 7.96998 17.62 7.99998C17.448 8.03026 17.272 8.03026 17.1 7.99998C17.0632 7.98423 17.0237 7.97586 16.9837 7.97538C16.9437 7.97489 16.904 7.98228 16.8669 7.99714C16.8297 8.012 16.7959 8.03403 16.7672 8.06197C16.7386 8.08991 16.7158 8.12321 16.7 8.15998C16.6842 8.19675 16.6759 8.23627 16.6754 8.27627C16.6749 8.31627 16.6823 8.35598 16.6972 8.39312C16.712 8.43027 16.734 8.46412 16.762 8.49275C16.7899 8.52138 16.8232 8.54423 16.86 8.55999C17.0368 8.64726 17.2255 8.70791 17.42 8.73998C17.81 8.82998 18.28 8.85998 18.56 8.89998C18.84 8.93998 18.94 8.89999 19.14 8.95999C19.4258 8.98831 19.7128 9.00166 20 8.99998Z" fill="black"/>
<path d="M23.66 14.52C23.32 14.46 22.92 14.37 22.49 14.32C22.3235 14.3101 22.1565 14.3101 21.99 14.32C21.8237 14.3049 21.6563 14.3049 21.49 14.32C21.05 14.38 20.66 14.5 20.32 14.57C20.2486 14.583 20.184 14.6207 20.1375 14.6764C20.0909 14.7321 20.0655 14.8024 20.0655 14.875C20.0655 14.9476 20.0909 15.0179 20.1375 15.0737C20.184 15.1294 20.2486 15.1671 20.32 15.18C20.66 15.25 21.05 15.37 21.49 15.43C21.6565 15.4403 21.8235 15.4403 21.99 15.43H22.49C22.92 15.38 23.32 15.29 23.66 15.23C23.7414 15.2161 23.8153 15.1739 23.8686 15.1107C23.9218 15.0476 23.9511 14.9676 23.9511 14.885C23.9511 14.8024 23.9218 14.7225 23.8686 14.6594C23.8153 14.5962 23.7414 14.554 23.66 14.54V14.52Z" fill="black"/>
</g>
<defs>
<clipPath id="clip0_1046_5828">
<rect width="24" height="24" fill="white"/>
</clipPath>
</defs>
</svg>
