<svg width="24" height="24" viewBox="0 0 24 24" fill="none" xmlns="http://www.w3.org/2000/svg">
<g clip-path="url(#clip0_1046_5844)">
<path fill-rule="evenodd" clip-rule="evenodd" d="M0.689997 7.78999C0.731083 7.79138 0.772017 7.78432 0.810258 7.76923C0.8485 7.75415 0.883233 7.73136 0.912302 7.70229C0.94137 7.67322 0.964155 7.63849 0.97924 7.60025C0.994326 7.56201 1.00139 7.52107 0.999997 7.47999L1.13 2.61999C1.13 1.50999 0.539997 1.26999 2.78 1.17999C3.78 1.10999 4.78 1.06999 5.78 0.999988C6.39 0.999988 7.05 0.889988 7.72 0.799988C7.80597 0.787581 7.88359 0.741775 7.93601 0.672508C7.98842 0.603241 8.01142 0.5161 8 0.429988C7.9963 0.385645 7.98367 0.342508 7.96287 0.303171C7.94208 0.263833 7.91354 0.229109 7.87897 0.201084C7.84441 0.17306 7.80454 0.152315 7.76175 0.140097C7.71896 0.127879 7.67415 0.124441 7.63 0.129988H6.17C5 0.159988 3.89 0.0999883 2.74 0.0799883C2.19043 0.0473505 1.63896 0.0877019 1.1 0.199988C0.793498 0.286998 0.516773 0.456492 0.299997 0.689988C0.172366 0.85622 0.0897104 1.05253 0.059997 1.25999C-0.00130568 1.71726 -0.0213865 2.17912 -3.02587e-06 2.63999L0.379997 7.48999C0.382594 7.57046 0.416398 7.64676 0.474255 7.70276C0.532112 7.75875 0.609483 7.79003 0.689997 7.78999Z" fill="black"/>
<path fill-rule="evenodd" clip-rule="evenodd" d="M16.67 1.06997C17 1.06997 17.37 1.06997 17.75 1.01997H19.39C19.87 1.01997 20.72 1.07997 21.49 1.14997C21.8894 1.15914 22.2846 1.23345 22.66 1.36997C22.76 1.42997 22.75 1.57997 22.76 1.71997C22.783 2.00618 22.783 2.29376 22.76 2.57997L23 6.99997C22.9973 7.04413 23.0035 7.08838 23.0182 7.13009C23.033 7.1718 23.056 7.21013 23.0858 7.24278C23.1157 7.27543 23.1518 7.30174 23.192 7.32016C23.2323 7.33857 23.2758 7.34871 23.32 7.34997C23.3663 7.35135 23.4125 7.34325 23.4556 7.32615C23.4986 7.30905 23.5378 7.28332 23.5706 7.25054C23.6033 7.21776 23.6291 7.17862 23.6462 7.13553C23.6633 7.09244 23.6714 7.04631 23.67 6.99997L23.87 2.60997C23.9243 2.11934 23.9007 1.62321 23.8 1.13997C23.7072 0.817843 23.4918 0.544963 23.2 0.37997C22.6829 0.166405 22.1295 0.054367 21.57 0.0499698C20.8324 0.0356107 20.0946 0.0623187 19.36 0.12997L16.6 0.46997C16.5605 0.474885 16.5223 0.487627 16.4877 0.507453C16.4532 0.52728 16.4229 0.553792 16.3987 0.585444C16.3745 0.617095 16.3568 0.653251 16.3468 0.691801C16.3367 0.730351 16.3344 0.770522 16.34 0.80997C16.35 0.887884 16.3902 0.958762 16.4519 1.00738C16.5136 1.05599 16.5919 1.07847 16.67 1.06997Z" fill="black"/>
<path fill-rule="evenodd" clip-rule="evenodd" d="M7.48 22.7999H4.23C3.56412 22.8457 2.89588 22.8457 2.23 22.7999C0.97 22.6799 1.1 22.5199 1.11 21.7999C1.11 21.4199 1.11 20.88 1.02 20.29C0.93 19.1 0.75 17.6599 0.69 16.8899C0.690022 16.8497 0.681944 16.8099 0.666246 16.7728C0.650548 16.7357 0.627552 16.7022 0.598626 16.6742C0.569701 16.6462 0.535438 16.6243 0.497878 16.6099C0.460319 16.5954 0.42023 16.5886 0.38 16.5899C0.301298 16.595 0.227493 16.6299 0.173615 16.6875C0.119737 16.7451 0.0898357 16.8211 0.09 16.8999L0 21.79C0.00344644 22.1582 0.0538533 22.5245 0.15 22.8799C0.212339 23.1327 0.356487 23.3577 0.56 23.5199C1.04804 23.8204 1.60705 23.986 2.18 23.9999C2.89962 24.0109 3.61887 23.9607 4.33 23.8499L7.54 23.53C7.63017 23.522 7.71349 23.4785 7.77163 23.4092C7.82977 23.3398 7.85796 23.2501 7.85 23.1599C7.84204 23.0698 7.79859 22.9865 7.7292 22.9283C7.65981 22.8702 7.57017 22.842 7.48 22.8499V22.7999Z" fill="black"/>
<path fill-rule="evenodd" clip-rule="evenodd" d="M24 19.76L23.64 16.2C23.64 16.1204 23.6084 16.0441 23.5521 15.9878C23.4959 15.9316 23.4196 15.9 23.34 15.9C23.2604 15.9 23.1841 15.9316 23.1279 15.9878C23.0716 16.0441 23.04 16.1204 23.04 16.2V19.74C23.04 20.07 22.96 20.82 22.87 21.49C22.8592 21.8131 22.8019 22.1331 22.7 22.44C22.65 22.53 22.5 22.53 22.36 22.56C22.22 22.59 21.78 22.66 21.58 22.69C21.1067 22.77 20.6293 22.8234 20.15 22.85C18.88 22.93 17.35 22.96 16.6 23.02C16.5089 23.0251 16.4235 23.0657 16.3618 23.1329C16.3002 23.2001 16.2672 23.2888 16.27 23.38C16.2725 23.4246 16.2839 23.4684 16.3034 23.5087C16.3229 23.5489 16.3501 23.585 16.3836 23.6147C16.417 23.6444 16.456 23.6673 16.4983 23.6819C16.5406 23.6965 16.5853 23.7027 16.63 23.7C17.38 23.7 18.9 23.81 20.17 23.84C20.7005 23.8571 21.2316 23.8404 21.76 23.79C22.1785 23.7664 22.5937 23.7028 23 23.6C23.2792 23.5037 23.5185 23.3172 23.68 23.07C23.8701 22.6194 23.9785 22.1385 24 21.65C24.0389 21.0206 24.0389 20.3894 24 19.76Z" fill="black"/>
<path fill-rule="evenodd" clip-rule="evenodd" d="M16.2 10.58L17.93 10.34C18.178 10.3433 18.4258 10.3232 18.67 10.28C18.7904 10.2414 18.9024 10.1803 19 10.1C19.2062 9.90982 19.3581 9.66821 19.44 9.39996C19.5503 8.9643 19.6173 8.5188 19.64 8.06996C19.8466 7.28585 19.8706 6.46478 19.71 5.66996C19.6164 5.45524 19.4685 5.26858 19.2809 5.12832C19.0933 4.98806 18.8724 4.89902 18.64 4.86996L17.85 4.76996H16.6C16.11 4.76996 15.53 4.76996 14.96 4.85996C14.6244 4.89371 14.2907 4.94377 13.96 5.00996C13.9258 4.9594 13.8766 4.92091 13.8193 4.89997C13.7619 4.87903 13.6995 4.8767 13.6408 4.89332C13.582 4.90993 13.5301 4.94465 13.4922 4.99253C13.4544 5.0404 13.4326 5.09899 13.43 5.15996C13.35 5.71996 13.29 6.27996 13.25 6.84996C13.21 7.41996 13.12 7.99996 13.1 8.52996C13.1 8.69996 13.01 9.07996 13 9.38996C12.9882 9.58424 13.019 9.77875 13.09 9.95996C13.1947 10.1404 13.3392 10.2946 13.5125 10.4107C13.6858 10.5268 13.8833 10.6018 14.09 10.63C14.792 10.7156 15.5028 10.6987 16.2 10.58ZM13.93 9.52996V8.52996V6.85996V5.67996C14.2603 5.62149 14.5946 5.58806 14.93 5.57996H16.53L17.72 5.66996L18.37 5.78996C18.4745 5.80589 18.5704 5.85735 18.6414 5.93567C18.7124 6.01399 18.7543 6.11438 18.76 6.21996C18.7359 6.79916 18.6419 7.37333 18.48 7.92996C18.29 9.09996 18.24 9.12996 17.72 9.18996L16 9.47996C15.5739 9.56311 15.1431 9.61989 14.71 9.64996C14.4944 9.681 14.2756 9.681 14.06 9.64996C14 9.58996 14 9.57996 13.93 9.52996Z" fill="black"/>
<path fill-rule="evenodd" clip-rule="evenodd" d="M10.84 14.7699C10.8545 14.5735 10.8545 14.3763 10.84 14.1799C10.8179 14.0235 10.7559 13.8754 10.66 13.7499C10.5091 13.5592 10.3083 13.4138 10.08 13.3299C9.68848 13.2084 9.27986 13.151 8.87 13.1599C8.20057 13.15 7.53151 13.1968 6.87 13.2999C6.19119 13.4017 5.53293 13.611 4.92 13.9199C4.83882 13.9608 4.77673 14.0317 4.74687 14.1175C4.71701 14.2034 4.72172 14.2975 4.76 14.3799C4.78014 14.4202 4.80807 14.456 4.84217 14.4854C4.87627 14.5148 4.91587 14.5371 4.95866 14.5511C5.00145 14.565 5.04659 14.5703 5.09145 14.5667C5.13631 14.5631 5.18001 14.5506 5.22 14.5299C5.78053 14.2936 6.37419 14.1452 6.98 14.0899C7.60213 14.0352 8.22787 14.0352 8.85 14.0899C9.07534 14.1081 9.29919 14.1415 9.52 14.1899C9.64325 14.2099 9.75796 14.2656 9.85 14.3499V14.8099V16.3999C9.87534 16.7495 9.87534 17.1004 9.85 17.4499C9.84718 17.5689 9.82696 17.6868 9.79 17.7999C9.71824 17.777 9.64464 17.7603 9.57 17.7499C9.29 17.7499 9 17.7499 8.72 17.8099L7.87 17.9199L6.47 18.1899C5 18.4099 5 18.3299 5 17.8499V15.2399C5 15.1604 4.96839 15.0841 4.91213 15.0278C4.85587 14.9715 4.77957 14.9399 4.7 14.9399C4.62044 14.9399 4.54413 14.9715 4.48787 15.0278C4.43161 15.0841 4.4 15.1604 4.4 15.2399L4.17 17.8299C4.14674 18.0627 4.14674 18.2972 4.17 18.5299C4.1883 18.6754 4.25117 18.8116 4.35 18.9199C4.47841 19.0426 4.63719 19.1289 4.81 19.1699C5.08553 19.2313 5.36812 19.2548 5.65 19.2399L6.65 19.1699L8 18.9999L9.56 18.8699C9.75616 18.8899 9.95384 18.8899 10.15 18.8699C10.3641 18.8233 10.551 18.6939 10.67 18.5099C10.8069 18.2839 10.8955 18.0319 10.93 17.7699C10.9751 17.2977 10.9751 16.8222 10.93 16.3499L10.84 14.7699Z" fill="black"/>
<path fill-rule="evenodd" clip-rule="evenodd" d="M11.38 7.76995C11.33 6.94995 11.23 6.13995 11.18 5.32995C11.18 5.24943 11.1488 5.17206 11.0928 5.11421C11.0368 5.05635 10.9605 5.02255 10.88 5.01995C10.8411 5.01861 10.8023 5.02511 10.7659 5.03909C10.7296 5.05306 10.6964 5.0742 10.6684 5.10127C10.6404 5.12833 10.6182 5.16076 10.603 5.19661C10.5878 5.23246 10.58 5.27101 10.58 5.30995C10.47 6.12995 10.37 6.93995 10.31 7.75995C10.31 8.10995 10.31 8.45995 10.26 8.80995C10.26 9.55995 10.39 9.80995 9.5 9.88995C9.08363 9.96036 8.66227 9.99714 8.24 9.99995C8.15124 9.98855 8.06157 10.0126 7.99043 10.0669C7.91929 10.1212 7.87243 10.2013 7.86 10.2899C7.85296 10.3341 7.85496 10.3792 7.86589 10.4226C7.87681 10.4659 7.89643 10.5066 7.92355 10.5421C7.95067 10.5776 7.98472 10.6073 8.02365 10.6293C8.06258 10.6512 8.10556 10.6651 8.15 10.6699C8.80937 10.791 9.4802 10.8379 10.15 10.8099C10.5328 10.7975 10.9026 10.6684 11.21 10.4399C11.346 10.2904 11.4301 10.1011 11.45 9.89995C11.4747 9.56707 11.4747 9.23282 11.45 8.89995C11.4 8.46995 11.4 8.11995 11.38 7.76995Z" fill="black"/>
<path fill-rule="evenodd" clip-rule="evenodd" d="M6.73 6.69997C6.58685 6.68969 6.44315 6.68969 6.3 6.69997C5.95 6.69997 5.64 6.81998 5.3 6.81998C5.22655 6.81028 5.1521 6.82811 5.09101 6.87002C5.02992 6.91194 4.9865 6.97498 4.96912 7.047C4.95173 7.11902 4.96161 7.19493 4.99686 7.2601C5.0321 7.32527 5.09021 7.3751 5.16 7.39998C5.55417 7.60802 5.97984 7.74991 6.42 7.81998C6.66911 7.84984 6.92089 7.84984 7.17 7.81998C7.53 7.81998 7.87 7.66998 8.23 7.62998C8.32118 7.63273 8.40982 7.59978 8.47707 7.53814C8.54431 7.4765 8.58483 7.39105 8.59 7.29998C8.58249 7.21775 8.54444 7.14133 8.48335 7.08579C8.42226 7.03025 8.34256 6.99963 8.26 6.99998C7.90192 6.90501 7.53773 6.83484 7.17 6.78997C7.02568 6.74948 6.87863 6.7194 6.73 6.69997Z" fill="black"/>
<path fill-rule="evenodd" clip-rule="evenodd" d="M13.64 13.57C14.29 13.57 14.99 13.64 15.74 13.63C16.14 13.63 16.55 13.57 16.96 13.53C17.59 13.47 18.2 13.38 18.79 13.36C18.8346 13.3639 18.8796 13.359 18.9224 13.3456C18.9652 13.3321 19.0048 13.3104 19.0392 13.2816C19.0736 13.2528 19.1019 13.2175 19.1226 13.1778C19.1434 13.138 19.1561 13.0946 19.16 13.05C19.1639 13.0053 19.159 12.9603 19.1456 12.9176C19.1321 12.8748 19.1104 12.8351 19.0816 12.8007C19.0528 12.7664 19.0176 12.738 18.9778 12.7173C18.9381 12.6966 18.8946 12.6839 18.85 12.68C18.2391 12.5624 17.6211 12.4856 17 12.45H16.19C15.9252 12.4651 15.6614 12.4952 15.4 12.54C14.75 12.65 14.16 12.83 13.6 12.97C13.5194 12.98 13.446 13.0212 13.3955 13.0848C13.3451 13.1484 13.3215 13.2292 13.33 13.31C13.3399 13.3842 13.3772 13.452 13.4346 13.5001C13.4919 13.5482 13.5652 13.5731 13.64 13.57Z" fill="black"/>
<path fill-rule="evenodd" clip-rule="evenodd" d="M17 17.08C17.2354 17.0769 17.4699 17.0501 17.7 17C17.9113 16.9345 18.1012 16.8136 18.25 16.65C18.3661 16.4911 18.4228 16.2964 18.41 16.1C18.41 15.74 18.26 15.16 18.25 14.99C18.25 14.9095 18.2188 14.8321 18.1628 14.7743C18.1068 14.7164 18.0305 14.6826 17.95 14.68C17.9106 14.68 17.8716 14.6878 17.8352 14.7028C17.7988 14.7179 17.7657 14.74 17.7379 14.7679C17.71 14.7957 17.6879 14.8288 17.6728 14.8652C17.6578 14.9016 17.65 14.9406 17.65 14.98C17.65 15.13 17.57 15.75 17.51 16.07H17.4C17.2653 16.0552 17.1317 16.0319 17 16C16.52 16 15.91 15.88 15.34 15.88C14.8703 15.8657 14.406 15.9835 14 16.22C13.7568 16.3757 13.5665 16.6014 13.4541 16.8673C13.3416 17.1333 13.3123 17.4271 13.37 17.71L13.52 18.6C13.5371 18.6896 13.5884 18.769 13.6631 18.8213C13.7378 18.8736 13.83 18.8946 13.92 18.88C13.9641 18.8716 14.006 18.8546 14.0435 18.8299C14.081 18.8052 14.1132 18.7734 14.1383 18.7362C14.1634 18.699 14.1809 18.6572 14.1897 18.6133C14.1986 18.5693 14.1987 18.524 14.19 18.48V17.67C14.1818 17.5124 14.2359 17.358 14.3407 17.2401C14.4455 17.1222 14.5926 17.0503 14.75 17.04C15.082 16.9982 15.418 16.9982 15.75 17.04C16.18 17.08 16.63 17.1 17 17.08Z" fill="black"/>
</g>
<defs>
<clipPath id="clip0_1046_5844">
<rect width="24" height="24" fill="white"/>
</clipPath>
</defs>
</svg>
