<svg width="24" height="24" viewBox="0 0 24 24" fill="none" xmlns="http://www.w3.org/2000/svg">
<g clip-path="url(#clip0_1047_6413)">
<path d="M17.26 11.16C17.3237 11.2235 17.41 11.2592 17.5 11.2592C17.59 11.2592 17.6763 11.2235 17.74 11.16C18.23 10.86 18.3 9.71999 18.1 9.15999C18.0768 9.04448 18.0143 8.94058 17.9231 8.86593C17.832 8.79128 17.7178 8.75049 17.6 8.75049C17.4822 8.75049 17.368 8.79128 17.2769 8.86593C17.1857 8.94058 17.1232 9.04448 17.1 9.15999C16.9826 9.82942 17.0376 10.5177 17.26 11.16Z" fill="black"/>
<path d="M23.81 6.72003C23.71 5.32002 23.81 3.92003 22.81 2.84003C20.42 0.190025 16.65 0.650025 13.28 0.630025C11.53 0.630025 4.39 1.16003 1.68 2.86003C1.3273 3.04078 1.01837 3.29643 0.774813 3.60908C0.531258 3.92173 0.358968 4.28382 0.269998 4.67003C-0.190002 7.19003 -0.180002 11.9 1.27 14.67C1.2861 14.7051 1.30904 14.7366 1.33747 14.7627C1.3659 14.7888 1.39925 14.8089 1.43558 14.822C1.4719 14.835 1.51046 14.8407 1.54899 14.8386C1.58753 14.8366 1.62527 14.8269 1.66 14.81C1.45019 16.4121 1.43005 18.0333 1.6 19.64C1.67 20.17 1.67 20.76 1.76 21.3C2.15 23.62 4.41 23.35 7.04 23.38C16.83 23.47 16.27 22.96 18.04 23.2C19.0906 23.4134 20.1767 23.3757 21.21 23.09C22.33 22.67 23.16 21.66 23.21 19.69C23.1226 17.5224 22.882 15.3637 22.49 13.23C22.31 11.9 22.43 10.4 21.9 9.43003C20.4 6.71002 9.52 7.78003 4.6 7.84003C5.5098 7.52329 6.44721 7.29229 7.4 7.15003C11.4036 6.41886 15.3477 5.39273 19.2 4.08003C19.7 3.91003 19.28 3.37003 19.2 3.37003C19.12 3.37003 19.49 3.30003 17.93 3.68003C12.42 5.00003 4.85 6.33003 3 8.00003C2.82 7.94003 2.38 8.00003 2.29 8.89003L2 11.5C1.94 12.39 1.84 13.29 1.74 14.19C0.179998 10.76 0.999998 4.90003 1.34 4.41003C2.5 2.74003 6.42 2.41003 11.6 1.87003C14.0628 1.64967 16.5411 1.66976 19 1.93003C20.58 2.24003 22.3 3.06003 22.7 4.61003C23.144 7.38654 23.2848 10.2031 23.12 13.01C22.9818 13.6322 22.8916 14.2641 22.85 14.9C22.85 14.9902 22.8858 15.0767 22.9496 15.1404C23.0133 15.2042 23.0998 15.24 23.19 15.24C23.2802 15.24 23.3667 15.2042 23.4304 15.1404C23.4942 15.0767 23.53 14.9902 23.53 14.9C23.5914 14.3001 23.695 13.7053 23.84 13.12C24.0746 10.9926 24.0646 8.8452 23.81 6.72003ZM2.61 11.53L2.88 8.93003C3 8.51003 7.42 8.21003 11.52 8.30003C13.9297 8.31101 16.3368 8.45791 18.73 8.74002C20.12 9.06002 20.85 9.19003 21.15 10.3C21.3113 11.1438 21.3916 12.001 21.39 12.86C18.54 13.61 18.45 12.22 2.54 12.69C2.57 12.31 2.6 11.92 2.61 11.53ZM2.49 13.4C2.62761 13.3871 2.76446 13.3671 2.9 13.34C5.07 13.43 19.45 14.34 21.45 13.58C21.91 17.58 22.34 19.85 21.85 21C21.23 22.43 19.75 22.26 18.21 22.06C16.39 21.83 15.8 22.28 7.01 22.36C2.01 22.42 2.82 22.18 2.41 19.52C2.19701 17.4839 2.22386 15.4299 2.49 13.4Z" fill="black"/>
<path d="M11.78 10.6601C11.78 10.7502 11.8158 10.8367 11.8796 10.9005C11.9433 10.9642 12.0298 11.0001 12.12 11.0001C12.2102 11.0001 12.2967 10.9642 12.3604 10.9005C12.4242 10.8367 12.46 10.7502 12.46 10.6601C12.713 10.0174 12.713 9.30273 12.46 8.66007C12.4 8.31007 11.86 8.34007 11.73 8.66007C11.5913 8.97675 11.5239 9.32003 11.5326 9.66563C11.5412 10.0112 11.6257 10.3507 11.78 10.6601Z" fill="black"/>
<path d="M8.77 10.3C9 11.19 9.15 11.04 9.26 11.08C9.37 11.12 9.51 11.19 9.74 10.3C9.82396 9.73674 9.77604 9.16165 9.6 8.62003C9.5 8.29003 9.17 8.44003 9.01 8.62003C8.89525 8.82326 8.81101 9.04228 8.76 9.27003C8.64818 9.60484 8.65171 9.96745 8.77 10.3Z" fill="black"/>
<path d="M14.44 10.68C14.54 10.82 14.61 10.89 14.67 10.89C14.73 10.89 14.94 10.95 15.03 10.8C15.1778 10.4873 15.2544 10.1458 15.2544 9.79998C15.2544 9.45415 15.1778 9.11263 15.03 8.79998C14.87 8.51998 14.29 8.53998 14.25 8.86998C14.09 9.76998 14 9.99998 14.44 10.68Z" fill="black"/>
<path d="M10.59 17.41C10.04 14.92 8.59 14.18 6.89 14.26C2.45 14.45 2.83 19.16 5.38 20.64C7.1 21.59 11.32 20.81 10.59 17.41ZM7 19.88C6.4142 19.8315 5.86099 19.5902 5.42679 19.194C4.99259 18.7978 4.70185 18.2689 4.6 17.69C4.6 17.62 3.94 15.16 7.26 14.95C8.41 14.87 9.13 15.33 9.63 17.12C9.8213 17.6396 9.8213 18.2104 9.63 18.73C9.19 19.8 7.35 19.89 7 19.88Z" fill="black"/>
<path d="M20.72 18.9001C20.2577 18.8196 19.7893 18.7795 19.32 18.7801C17.06 18.6301 17.09 18.2101 13 18.7801C12.43 18.7801 11.86 18.6901 12 19.1901C12 19.4701 12.37 19.4601 13 19.5101C15.75 19.7201 20.14 19.6801 20.77 19.6801C21.16 19.6501 21.29 19.0701 20.72 18.9001Z" fill="black"/>
<path d="M14.49 17.15C14.87 17.15 16.34 17.26 17.28 17.29H20.67C20.7602 17.29 20.8466 17.2542 20.9104 17.1904C20.9742 17.1267 21.01 17.0402 21.01 16.95C21.01 16.42 16.44 15.95 14.43 16.19L12.89 16.39C12.3 16.44 11.76 16.31 11.89 16.8C11.89 17.05 12.12 17.11 14.49 17.15Z" fill="black"/>
</g>
<defs>
<clipPath id="clip0_1047_6413">
<rect width="24" height="24" fill="white"/>
</clipPath>
</defs>
</svg>
