<svg width="24" height="24" viewBox="0 0 24 24" fill="none" xmlns="http://www.w3.org/2000/svg">
<g clip-path="url(#clip0_1030_2536)">
<path fill-rule="evenodd" clip-rule="evenodd" d="M23.86 11.76C23.79 11.37 23.93 10.83 23.86 10.37C23.8285 10.0677 23.7065 9.78188 23.51 9.55C23.3663 9.41296 23.1912 9.31337 23 9.26C22.5921 9.16292 22.1777 9.09607 21.76 9.06C21.11 9 20.5 9 19.9 9C19 9 18.13 9.06 17.12 9.14C17.12 9.14 15.07 9.14 4.49997 9.28C3.93997 9.28 3.37997 9.3 2.81997 9.34C2.38802 9.35519 1.95731 9.39525 1.52997 9.46C1.30859 9.49539 1.09526 9.56988 0.899972 9.68C0.586246 9.86034 0.34829 10.148 0.229972 10.49C0.118619 10.9002 0.0747122 11.3257 0.0999724 11.75C0.0301182 12.3307 -0.00328063 12.9152 -2.75795e-05 13.5C0.00241238 13.646 0.0368018 13.7897 0.100724 13.921C0.164645 14.0523 0.256548 14.168 0.369972 14.26C0.517425 14.3353 0.676183 14.3859 0.839972 14.41C1.23997 14.49 1.83997 14.54 2.13997 14.58C2.74997 14.68 7.30997 14.85 11.88 14.95C16.45 15.05 21 15 21.65 15C22.1703 14.9747 22.6866 14.8942 23.19 14.76C23.4175 14.6849 23.6164 14.5418 23.76 14.35C23.9175 14.0581 24 13.7317 24 13.4C24.0012 12.8503 23.9544 12.3015 23.86 11.76ZM22.86 13.61C22.4176 13.6316 21.9786 13.6986 21.55 13.81C20.75 13.9 13.45 13.81 8.05997 13.72C5.10997 13.72 2.73997 13.65 2.30997 13.59L1.09997 13.46C1.02684 12.893 0.99343 12.3216 0.999972 11.75C0.970963 11.4641 0.970963 11.1759 0.999972 10.89C1.0138 10.7935 1.04763 10.701 1.09929 10.6183C1.15095 10.5357 1.2193 10.4647 1.29997 10.41C1.46278 10.3251 1.63847 10.2677 1.81997 10.24C2.15997 10.19 2.52997 10.18 2.81997 10.15C3.35997 10.09 3.89997 10.06 4.43997 10.05C9.59997 9.89 15.27 10 17.17 10C17.99 10 18.72 9.92 19.44 9.93C20.1855 9.92928 20.9304 9.97604 21.67 10.07C22.4 10.16 22.81 9.87 22.82 10.66C22.82 11.1 22.73 11.58 22.82 11.94C22.8688 12.2714 22.8988 12.6052 22.91 12.94C22.9272 13.1657 22.9035 13.3927 22.84 13.61H22.86Z" fill="black"/>
</g>
<defs>
<clipPath id="clip0_1030_2536">
<rect width="24" height="24" fill="white"/>
</clipPath>
</defs>
</svg>
