<svg width="24" height="24" viewBox="0 0 24 24" fill="none" xmlns="http://www.w3.org/2000/svg">
<g clip-path="url(#clip0_1048_7231)">
<path d="M1.79999 7C2.00255 7.20438 2.25929 7.34663 2.53999 7.41C2.86716 7.48903 3.20364 7.52268 3.53999 7.51C3.98724 7.51849 4.43461 7.5018 4.87999 7.46C5.51999 7.46 6.15999 7.33 6.79999 7.29C7.20068 7.30424 7.60187 7.28752 7.99999 7.24C8.29625 7.19794 8.56673 7.04847 8.75999 6.82C9.02128 6.47968 9.18699 6.07577 9.23999 5.65C9.29358 5.13853 9.31362 4.62409 9.29999 4.11C9.40958 3.08978 9.26174 2.05836 8.86999 1.11C8.66158 0.800654 8.38421 0.543905 8.05971 0.359967C7.73522 0.176029 7.37245 0.0699221 6.99999 0.05L5.76999 0C5.36647 0.0224826 4.96529 0.0759737 4.56999 0.16C3.70999 0.34 2.87999 0.63 1.99999 0.75C1.92263 0.743331 1.84549 0.765014 1.78293 0.811009C1.72038 0.857004 1.67668 0.924173 1.65999 1C1.58157 1.41227 1.53808 1.83042 1.52999 2.25V4.06C1.52999 4.42 1.38999 5.27 1.41999 5.93C1.41608 6.32039 1.55072 6.69952 1.79999 7ZM2.21999 1.44C3.06999 1.35 3.87999 1.12 4.71999 0.99C5.07254 0.919344 5.43053 0.879196 5.78999 0.87L6.78999 0.96C7.03189 0.971053 7.26771 1.03936 7.47806 1.15932C7.68841 1.27927 7.86729 1.44744 7.99999 1.65C8.25629 2.43684 8.31805 3.27407 8.17999 4.09C8.18655 4.55133 8.15981 5.01252 8.09999 5.47C8.09999 5.69 8.01999 6.07 7.87999 6.07H6.75999L3.55999 6.4C3.33375 6.41985 3.10622 6.41985 2.87999 6.4C2.72724 6.39787 2.57952 6.34511 2.45999 6.25C2.32999 6.14 2.32999 5.87 2.31999 5.58V3.99C2.31999 3.4 2.20999 2.8 2.18999 2.21C2.18637 1.943 2.19639 1.67598 2.21999 1.41V1.44Z" fill="black"/>
<path d="M1.85001 15.39C1.99454 15.5365 2.18537 15.6284 2.39001 15.65C2.79963 15.6751 3.2104 15.6751 3.62001 15.65C4.36001 15.71 5.09001 15.8 5.83001 15.81C6.35348 15.8181 6.87634 15.7711 7.39001 15.67C7.69957 15.6205 8.00411 15.5435 8.30001 15.44C8.56531 15.3517 8.80542 15.2008 9.00001 15C9.17982 14.8025 9.29496 14.5548 9.33001 14.29C9.35036 13.917 9.35036 13.5431 9.33001 13.17C9.45006 12.0432 9.45006 10.9068 9.33001 9.78002C9.24225 9.192 8.93936 8.65748 8.48001 8.28002C8.18182 8.09059 7.83302 7.99642 7.48001 8.01002C6.89045 8.03718 6.30287 8.09728 5.72001 8.19002C5.23001 8.19002 4.72001 8.27002 4.23001 8.33002C3.48001 8.41002 2.74001 8.52002 2.01001 8.63002C1.96652 8.63315 1.92424 8.64572 1.88611 8.66685C1.84798 8.68799 1.81491 8.71718 1.78921 8.7524C1.76351 8.78762 1.74579 8.82802 1.73729 8.87078C1.7288 8.91355 1.72973 8.95765 1.74001 9.00002C1.72834 9.03917 1.72834 9.08087 1.74001 9.12002V9.21002C1.66979 9.52316 1.61969 9.84048 1.59001 10.16C1.51001 10.88 1.50001 11.61 1.43001 12.31C1.32334 13.0082 1.30319 13.7169 1.37001 14.42C1.43259 14.783 1.59936 15.1201 1.85001 15.39ZM2.27001 12.34V10.18C2.28796 9.88846 2.32134 9.59805 2.37001 9.31002C2.37451 9.27349 2.37451 9.23655 2.37001 9.20002C2.98001 9.14002 3.60001 9.09002 4.22001 9.05002C4.84001 9.01002 5.26001 9.00002 5.74001 9.00002C6.05001 9.00002 6.66001 8.91002 7.20001 8.92002C7.41979 8.88071 7.64632 8.90859 7.85001 9.00002C8.01173 9.18371 8.13561 9.39752 8.21455 9.62918C8.29348 9.86084 8.32592 10.1058 8.31001 10.35C8.30531 11.2655 8.2519 12.1802 8.15001 13.09V13.86V14.17C8.0526 14.2637 7.93167 14.3294 7.80001 14.36C7.59001 14.42 7.36001 14.46 7.17001 14.5C6.73271 14.5938 6.28721 14.644 5.84001 14.65C5.12001 14.65 4.41001 14.65 3.69001 14.58C3.43001 14.58 2.31001 14.67 2.27001 14.4C2.22154 13.7142 2.22154 13.0258 2.27001 12.34Z" fill="black"/>
<path d="M9.35001 17C9.23555 16.7296 9.02036 16.5144 8.75001 16.4C8.42748 16.295 8.08898 16.2476 7.75001 16.26C7.33554 16.2644 6.92161 16.2911 6.51001 16.34C6.04001 16.34 5.51001 16.43 5.08001 16.49C3.98001 16.64 2.88001 16.84 1.79001 16.99C1.74959 16.9937 1.71033 17.0055 1.67462 17.0248C1.6389 17.0441 1.60747 17.0704 1.58223 17.1022C1.55699 17.134 1.53846 17.1705 1.52776 17.2097C1.51707 17.2489 1.51443 17.2898 1.52001 17.33C1.5312 17.3831 1.5515 17.4338 1.58001 17.48C1.44001 18.32 1.28001 19.09 1.19001 19.89C1.12073 20.4672 1.09733 21.049 1.12001 21.63C1.11873 22.0281 1.16915 22.4248 1.27001 22.81C1.36357 23.1553 1.58064 23.4542 1.88001 23.65C2.0401 23.7364 2.21815 23.7844 2.40001 23.79H3.17001L5.52001 23.89C6.35637 24.0232 7.20525 24.0601 8.05001 24C8.51959 23.9355 8.95331 23.7134 9.28001 23.37C9.40423 23.2151 9.49912 23.0389 9.56001 22.85C9.65273 22.5242 9.70644 22.1885 9.72001 21.85C9.78012 21.2553 9.80016 20.6573 9.78001 20.06C9.78001 19.46 9.71001 18.87 9.64001 18.3C9.60987 17.8544 9.51209 17.4161 9.35001 17ZM8.57001 21.7C8.57001 21.87 8.57001 22.07 8.50001 22.26C8.49432 22.3641 8.45969 22.4645 8.40001 22.55C8.16949 22.7473 7.87325 22.8508 7.57001 22.84C6.91879 22.8493 6.26761 22.8192 5.62001 22.75H4.16001H3.16001L2.39001 22.83C2.24943 22.7227 2.15617 22.5649 2.13001 22.39C2.06593 22.1271 2.02246 21.8596 2.00001 21.59C1.95627 21.0609 1.95627 20.5291 2.00001 20C2.06001 19.2 2.18001 18.42 2.29001 17.58C3.09001 17.51 3.90001 17.41 4.71001 17.34C5.34001 17.28 5.96001 17.24 6.58001 17.23C6.96641 17.2096 7.35361 17.2096 7.74001 17.23C7.95284 17.2355 8.16291 17.2795 8.36001 17.36C8.46001 17.36 8.45001 17.55 8.48001 17.68C8.52174 17.9248 8.54846 18.1719 8.56001 18.42C8.56001 18.97 8.63001 19.53 8.63001 20.1C8.63908 20.6373 8.61905 21.1748 8.57001 21.71V21.7Z" fill="black"/>
<path d="M22.79 15C22.6314 16.5182 22.0951 17.9724 21.23 19.23C20.3593 20.4769 19.1766 21.4734 17.8 22.12C16.9153 22.5183 15.9677 22.7586 15 22.83C13.6069 22.9123 12.2096 22.8889 10.82 22.76C10.7413 22.7549 10.6675 22.72 10.6136 22.6624C10.5598 22.6049 10.5299 22.5289 10.53 22.45C10.5313 22.4097 10.5406 22.3701 10.5575 22.3335C10.5745 22.2969 10.5986 22.2641 10.6284 22.237C10.6583 22.21 10.6933 22.1892 10.7314 22.176C10.7695 22.1627 10.8098 22.1573 10.85 22.16C12.2055 22.2059 13.5624 22.1525 14.91 22C15.771 21.8969 16.6071 21.643 17.38 21.25C18.5691 20.6165 19.5774 19.6908 20.31 18.56C21.0392 17.4379 21.4947 16.1603 21.64 14.83C21.815 13.4966 21.6593 12.1406 21.1868 10.8816C20.7142 9.62249 19.9392 8.49898 18.93 7.61002C18.2071 6.99355 17.3619 6.53689 16.45 6.27002C15.0165 5.87083 13.5452 5.62281 12.06 5.53002C11.9925 5.52243 11.9284 5.49586 11.8753 5.45339C11.8222 5.41091 11.7823 5.35427 11.76 5.29002C11.7552 5.34658 11.7552 5.40346 11.76 5.46002L12.22 5.94002L13.87 8.06002C13.9271 8.11704 13.9591 8.19438 13.9591 8.27502C13.9591 8.35566 13.9271 8.433 13.87 8.49002C13.813 8.54704 13.7357 8.57908 13.655 8.57908C13.5744 8.57908 13.4971 8.54704 13.44 8.49002L11.44 6.73002C11.2319 6.55927 11.038 6.372 10.86 6.17002C10.7275 6.01056 10.6441 5.816 10.62 5.61002C10.6043 5.20046 10.7048 4.79481 10.91 4.44002C11.1687 4.02969 11.4777 3.65342 11.83 3.32002L12.88 2.32002C12.9455 2.25589 13.0334 2.21997 13.125 2.21997C13.2166 2.21997 13.3046 2.25589 13.37 2.32002C13.4335 2.38375 13.4692 2.47005 13.4692 2.56002C13.4692 2.64999 13.4335 2.73629 13.37 2.80002L12.51 3.94002C12.3111 4.22329 12.1275 4.51705 11.96 4.82002C11.9359 4.86134 11.9158 4.90487 11.9 4.95002C11.9678 4.89611 12.0539 4.87098 12.14 4.88002C13.68 4.92977 15.211 5.13413 16.71 5.49002C17.7515 5.75997 18.7254 6.24354 19.57 6.91002C20.7373 7.88428 21.643 9.13432 22.2053 10.5469C22.7675 11.9596 22.9685 13.4901 22.79 15Z" fill="black"/>
</g>
<defs>
<clipPath id="clip0_1048_7231">
<rect width="24" height="24" fill="white"/>
</clipPath>
</defs>
</svg>
