<svg width="24" height="24" viewBox="0 0 24 24" fill="none" xmlns="http://www.w3.org/2000/svg">
<g clip-path="url(#clip0_1030_2538)">
<path fill-rule="evenodd" clip-rule="evenodd" d="M2 9.64001C3.23 9.64001 6 9.87001 9.72 9.94001C11.44 9.94001 13.29 9.99001 15.15 9.94001C18.02 9.94001 20.89 9.72001 23.3 9.56001C23.3433 9.55871 23.386 9.54889 23.4255 9.5311C23.4651 9.51331 23.5007 9.4879 23.5305 9.45632C23.5602 9.42475 23.5834 9.38762 23.5987 9.34707C23.6141 9.30653 23.6213 9.26335 23.62 9.22001C23.6187 9.17666 23.6089 9.134 23.5911 9.09446C23.5733 9.05491 23.5479 9.01926 23.5163 8.98954C23.4847 8.95983 23.4476 8.93662 23.4071 8.92126C23.3665 8.90589 23.3233 8.89867 23.28 8.90001C20.87 8.90001 18.01 8.78001 15.15 8.72001H13.15H13C13.07 8.04001 13.17 6.94001 13.18 5.91001C13.18 5.10001 13.13 4.35001 13.12 3.91001L12.87 2.00001C13.62 2.90001 14.65 4.18001 14.87 4.45001C14.9185 4.53673 14.9991 4.60099 15.0944 4.62903C15.1897 4.65707 15.2923 4.64665 15.38 4.60001C15.4309 4.57144 15.4748 4.53181 15.5083 4.48404C15.5419 4.43627 15.5643 4.38157 15.5739 4.32399C15.5835 4.2664 15.58 4.20739 15.5638 4.15132C15.5475 4.09525 15.5189 4.04354 15.48 4.00001C14.8342 2.81481 14.1231 1.66637 13.35 0.560006C13.2529 0.41077 13.135 0.276091 13 0.160006C12.9223 0.0837865 12.8262 0.0289872 12.7211 0.000947282C12.6159 -0.0270927 12.5053 -0.027417 12.4 5.77979e-06C12.051 0.180402 11.7469 0.436676 11.51 0.750006C10.84 1.58001 9.86 3.07001 9.62 3.40001C9.56298 3.46764 9.53516 3.55515 9.54266 3.64329C9.55016 3.73143 9.59237 3.81298 9.66 3.87001C9.72763 3.92703 9.81514 3.95485 9.90328 3.94735C9.99143 3.93984 10.073 3.89764 10.13 3.83001L12.06 2.00001L11.87 3.93001V5.99001C12 7.00001 12.1 8.00001 12.14 8.70001H9.09C6.6 8.70001 4.44 8.78001 2.98 8.80001C0.399999 8.85001 0.249999 9.00001 0.239999 9.21001C0.229999 9.42001 0.609999 9.52001 1.5 9.60001C1.6654 9.62612 1.83255 9.63949 2 9.64001Z" fill="black"/>
<path fill-rule="evenodd" clip-rule="evenodd" d="M22.61 13H21.06C19.61 13 17.44 12.92 14.96 12.89H10.89H8.89003C6.00003 12.91 3.13003 13 0.730025 13C0.651103 13.0137 0.579548 13.0548 0.527974 13.1161C0.4764 13.1774 0.44812 13.2549 0.44812 13.335C0.44812 13.4151 0.4764 13.4926 0.527974 13.5539C0.579548 13.6152 0.651103 13.6563 0.730025 13.67C3.13003 13.82 6.00003 13.99 8.88003 14.05H14.31C18.07 13.98 21.22 13.79 22.45 13.74C22.6297 13.7547 22.8103 13.7547 22.99 13.74C23.77 13.67 23.67 13.57 23.76 13.42C23.85 13.27 23.54 12.94 22.61 13Z" fill="black"/>
<path fill-rule="evenodd" clip-rule="evenodd" d="M15.32 19.45C15.2322 19.4034 15.1297 19.3929 15.0344 19.421C14.9391 19.449 14.8585 19.5133 14.81 19.6C14.64 19.87 13.6 21.17 12.81 22.07L13.07 20C13.07 19.56 13.13 18.82 13.07 18C13.0534 16.997 12.9833 15.9956 12.86 15C12.8614 14.9471 12.852 14.8945 12.8323 14.8453C12.8127 14.7962 12.7833 14.7515 12.7459 14.7141C12.7085 14.6767 12.6638 14.6473 12.6147 14.6276C12.5655 14.608 12.5129 14.5986 12.46 14.6C12.3529 14.6126 12.255 14.6668 12.1876 14.7511C12.1202 14.8353 12.0887 14.9427 12.1 15.05C12.1 15.66 11.9 16.87 11.84 17.99C11.79 18.81 11.84 19.57 11.84 19.99L12.05 21.99C11.3 21.27 10.35 20.32 10.05 20.08C10.0224 20.0452 9.98802 20.0163 9.94897 19.995C9.90991 19.9738 9.86697 19.9607 9.82273 19.9565C9.77848 19.9522 9.73383 19.957 9.69147 19.9705C9.6491 19.9839 9.60989 20.0058 9.57619 20.0348C9.54249 20.0638 9.51499 20.0992 9.49535 20.1391C9.4757 20.179 9.46431 20.2224 9.46187 20.2668C9.45942 20.3112 9.46596 20.3556 9.48111 20.3974C9.49625 20.4392 9.51968 20.4775 9.54999 20.51C9.77999 20.85 10.76 22.33 11.44 23.16C11.6766 23.4697 11.9766 23.7254 12.32 23.91C12.4222 23.9373 12.5297 23.9387 12.6326 23.9143C12.7356 23.8899 12.8309 23.8403 12.91 23.77C13.0495 23.6526 13.1738 23.5182 13.28 23.37C13.91 22.52 15.28 20.27 15.41 19.9C15.4461 19.8254 15.4568 19.7411 15.4406 19.6599C15.4243 19.5786 15.382 19.5049 15.32 19.45Z" fill="black"/>
</g>
<defs>
<clipPath id="clip0_1030_2538">
<rect width="24" height="24" fill="white"/>
</clipPath>
</defs>
</svg>
