<svg width="24" height="24" viewBox="0 0 24 24" fill="none" xmlns="http://www.w3.org/2000/svg">
<g clip-path="url(#clip0_1030_2543)">
<path fill-rule="evenodd" clip-rule="evenodd" d="M24 10.53V8.64001C24 5.96001 23.85 3.29001 23.84 1.05001C23.8413 1.00929 23.8346 0.968713 23.8203 0.93059C23.8059 0.892467 23.7842 0.857548 23.7563 0.827829C23.7285 0.79811 23.695 0.774174 23.6579 0.757389C23.6208 0.740604 23.5807 0.731299 23.54 0.730007C23.499 0.727264 23.4578 0.732993 23.419 0.746836C23.3803 0.76068 23.3448 0.782343 23.3148 0.810478C23.2848 0.838614 23.2609 0.872622 23.2446 0.910387C23.2283 0.948153 23.2199 0.98887 23.22 1.03001C23 3.27001 22.88 6.00001 22.83 8.63001V12.93C22.19 12.93 21.09 12.74 20.04 12.68H18.04L15.68 12.91L17.51 11C17.5454 10.9753 17.5753 10.9434 17.5977 10.9065C17.6201 10.8695 17.6345 10.8283 17.64 10.7854C17.6455 10.7426 17.642 10.699 17.6297 10.6576C17.6174 10.6162 17.5966 10.5778 17.5686 10.5449C17.5406 10.512 17.506 10.4853 17.4671 10.4666C17.4282 10.4478 17.3858 10.4374 17.3426 10.436C17.2994 10.4346 17.2564 10.4422 17.2164 10.4584C17.1763 10.4746 17.1401 10.499 17.11 10.53C16.8 10.75 15.41 11.66 14.64 12.29C14.3435 12.5066 14.1034 12.7912 13.94 13.12C13.9134 13.2129 13.9105 13.3109 13.9315 13.4052C13.9524 13.4995 13.9966 13.5871 14.06 13.66C14.171 13.7926 14.2987 13.9103 14.44 14.01C15.4852 14.7314 16.5666 15.399 17.68 16.01C17.7638 16.0526 17.8608 16.0607 17.9505 16.0327C18.0402 16.0047 18.1154 15.9427 18.16 15.86C18.2029 15.7789 18.2123 15.6843 18.1861 15.5964C18.1599 15.5085 18.1003 15.4344 18.02 15.39C17.76 15.23 16.52 14.22 15.68 13.52L18.05 13.76C18.48 13.76 19.22 13.82 20 13.81C21.06 13.81 22.18 13.7 22.84 13.63V13.68C22.91 17.19 23.08 20.13 23.12 21.27C23.1051 21.4397 23.1051 21.6103 23.12 21.78C23.27 23.45 23.83 23.36 23.81 21.78V19.96C23.81 18.6 23.89 16.58 23.91 14.26C24 13.13 24 11.84 24 10.53Z" fill="black"/>
<path fill-rule="evenodd" clip-rule="evenodd" d="M5 13.39L7.16 13.13C7.20072 13.1287 7.24078 13.1194 7.2779 13.1026C7.31501 13.0859 7.34846 13.0619 7.37632 13.0322C7.40418 13.0025 7.42592 12.9676 7.44027 12.9294C7.45463 12.8913 7.46133 12.8507 7.46 12.81C7.46009 12.7689 7.45172 12.7282 7.43541 12.6904C7.4191 12.6526 7.39519 12.6186 7.36518 12.5905C7.33517 12.5624 7.29969 12.5407 7.26096 12.5269C7.22222 12.513 7.18105 12.5073 7.14 12.51L5 12.27C4.4437 12.2413 3.8863 12.2413 3.33 12.27C2.53 12.32 1.71 12.45 1.16 12.49V9.65002C1.16 7.33002 1.08 5.31002 1.06 3.95002V2.26002V2.13002C1.06 0.610022 0.5 0.520022 0.35 2.19002C0.32 2.34002 0.09 7.27002 0 10.3V15.37C0.05 18.05 0.21 20.73 0.36 22.97C0.361292 23.0107 0.370597 23.0508 0.387382 23.0879C0.404167 23.125 0.428103 23.1585 0.457822 23.1863C0.487541 23.2142 0.52246 23.2359 0.560583 23.2503C0.598706 23.2647 0.639285 23.2714 0.68 23.27C0.757435 23.2732 0.833237 23.2472 0.892468 23.1972C0.9517 23.1472 0.990064 23.0769 1 23C1 20.76 1.11 18.09 1.16 15.42V13.52V13.33C1.89 13.4221 2.62436 13.4755 3.36 13.49C4.05 13.45 4.67 13.39 5 13.39Z" fill="black"/>
<path fill-rule="evenodd" clip-rule="evenodd" d="M8.58998 11.94C7.81998 11.3 6.42998 10.39 6.11998 10.17C6.0899 10.139 6.05367 10.1146 6.01362 10.0984C5.97356 10.0822 5.93056 10.0746 5.88738 10.076C5.8442 10.0774 5.80179 10.0878 5.76287 10.1066C5.72395 10.1253 5.68938 10.152 5.66138 10.1849C5.63338 10.2178 5.61256 10.2562 5.60027 10.2976C5.58798 10.339 5.58448 10.3826 5.58999 10.4254C5.59551 10.4683 5.60993 10.5095 5.63231 10.5465C5.6547 10.5834 5.68456 10.6153 5.71998 10.64C5.98998 10.92 7.22998 12.17 7.88998 12.86C7.09998 13.54 5.49998 14.86 5.20998 15.02C5.16927 15.0423 5.13336 15.0725 5.10429 15.1087C5.07522 15.1449 5.05357 15.1864 5.04057 15.231C5.02757 15.2756 5.02348 15.3223 5.02852 15.3684C5.03357 15.4146 5.04766 15.4593 5.06998 15.5C5.09231 15.5407 5.12243 15.5766 5.15864 15.6057C5.19484 15.6348 5.23641 15.6564 5.28099 15.6694C5.32556 15.6824 5.37225 15.6865 5.41841 15.6815C5.46456 15.6764 5.50927 15.6623 5.54998 15.64C6.66772 15.0365 7.74953 14.3687 8.78998 13.64C8.92804 13.5401 9.05538 13.4261 9.16998 13.3C9.23344 13.2251 9.27757 13.1358 9.29849 13.04C9.31941 12.9441 9.31649 12.8445 9.28998 12.75C9.12622 12.4269 8.8859 12.1489 8.58998 11.94Z" fill="black"/>
</g>
<defs>
<clipPath id="clip0_1030_2543">
<rect width="24" height="24" fill="white"/>
</clipPath>
</defs>
</svg>
