<svg width="24" height="24" viewBox="0 0 24 24" fill="none" xmlns="http://www.w3.org/2000/svg">
<g clip-path="url(#clip0_1033_3888)">
<path fill-rule="evenodd" clip-rule="evenodd" d="M22.6 7.05004C22.5804 7.00276 22.5515 6.95993 22.515 6.92409C22.4785 6.88825 22.4352 6.86015 22.3876 6.84148C22.3399 6.8228 22.289 6.81393 22.2379 6.8154C22.1868 6.81687 22.1365 6.82865 22.09 6.85004C20.7158 8.57024 19.4944 10.4072 18.44 12.34C17.6022 14.0098 16.9966 15.7862 16.64 17.62C16.64 17.62 16.56 17.62 16.54 17.69C15.98 18.37 15.54 18.69 14.96 19.49C14.96 17.49 12.87 16.49 11.04 18.49C10.8436 18.6708 10.6869 18.8903 10.5797 19.1347C10.4724 19.3791 10.4171 19.6431 10.4171 19.91C10.4171 20.1769 10.4724 20.4409 10.5797 20.6853C10.6869 20.9298 10.8436 21.1493 11.04 21.33C12.69 22.85 15.27 21.6 16.46 19.69C16.452 20.084 16.4957 20.4774 16.59 20.86C16.7418 21.4381 16.9634 21.9956 17.25 22.52C17.5493 23.033 17.9942 23.4456 18.5283 23.7055C19.0624 23.9655 19.6616 24.061 20.25 23.98C22.99 23.4 21.54 18.57 18.98 19.37C18.4776 19.5479 18.0579 19.9037 17.8 20.37C17.72 19.37 17.51 18.89 17.38 18.02C17.38 17.97 17.38 17.94 17.33 17.9C18.7442 14.5767 20.3365 11.332 22.1 8.18004C22.2738 9.0114 22.3343 9.86244 22.28 10.71C21.87 13.52 20.8 16.2 18.18 17.35C18.138 17.3658 18.0995 17.3897 18.0667 17.4203C18.0339 17.451 18.0074 17.4878 17.9889 17.5286C17.9703 17.5695 17.9599 17.6136 17.9584 17.6584C17.9569 17.7033 17.9642 17.748 17.98 17.79C17.9957 17.8321 18.0196 17.8706 18.0503 17.9034C18.0809 17.9362 18.1177 17.9626 18.1586 17.9812C18.1994 17.9997 18.2435 18.0101 18.2884 18.0116C18.3332 18.0131 18.378 18.0058 18.42 17.99C21.75 16.99 23.17 14.29 23.42 10.84C23.3813 9.53711 23.1034 8.25241 22.6 7.05004ZM13.66 21C12.51 21.23 11.04 20.43 12.04 19.29C13.47 17.65 14.69 19.21 13.71 20.88C13.681 20.9137 13.6635 20.9558 13.66 21ZM18.12 22.2C18.12 20.97 19.02 19.94 19.84 20.59C20.44 21.06 20.84 22.87 19.55 22.87C19.0208 22.8682 18.5099 22.6766 18.11 22.33C18.1193 22.2976 18.1227 22.2637 18.12 22.23V22.2Z" fill="black"/>
<path fill-rule="evenodd" clip-rule="evenodd" d="M15.85 4.90998C14.9082 4.5952 13.9229 4.42987 12.93 4.41998C12.6994 4.4418 12.4773 4.51856 12.2825 4.64383C12.0876 4.7691 11.9256 4.93923 11.81 5.13998C11.65 5.38998 11.92 4.91998 10.37 8.13998C9.09998 7.46998 6.87998 6.26998 6.14998 7.46998C5.91581 7.96714 5.7121 8.47808 5.53998 8.99998C5.12756 9.90315 4.79301 10.8399 4.53998 11.8C4.39998 12.58 4.53998 13.48 4.97998 12.88C5.47866 11.7269 6.04636 10.6048 6.67998 9.51998C7.27998 8.39998 6.25999 7.83998 8.59999 8.63998C10.39 9.20998 11.08 9.63998 13.25 10.33C13.2996 10.3502 13.3529 10.3599 13.4065 10.3586C13.4601 10.3573 13.5128 10.3449 13.5614 10.3223C13.61 10.2997 13.6534 10.2673 13.6889 10.2272C13.7245 10.187 13.7513 10.14 13.7679 10.089C13.7844 10.038 13.7903 9.9842 13.785 9.93085C13.7798 9.8775 13.7637 9.8258 13.7376 9.77898C13.7116 9.73215 13.6761 9.6912 13.6335 9.65868C13.5909 9.62616 13.542 9.60278 13.49 9.58998C12.6624 9.25988 11.8544 8.88259 11.07 8.45998C12.67 6.26998 12.26 6.85998 12.98 5.74998C13.2909 5.69523 13.609 5.69523 13.92 5.74998C14.7994 5.76911 15.6703 5.92775 16.5 6.21998C17.37 6.40998 16.92 5.48998 16.57 5.15998C16.337 5.05758 16.0963 4.97398 15.85 4.90998Z" fill="black"/>
<path fill-rule="evenodd" clip-rule="evenodd" d="M19.05 8.73001C18.75 7.82001 16.44 0.850011 16.36 0.730011C15.66 -0.779989 13.94 0.480011 10.93 1.50001C5.92999 3.19001 4.00999 3.50001 2.26999 4.55001C1.78999 4.79001 0.939991 5.15001 0.649991 5.76001C0.259991 6.59001 1.27999 8.25001 1.64999 9.09001C3.07999 12.54 3.80999 14.92 5.64999 17.8C5.62103 17.8502 5.60578 17.9071 5.60578 17.965C5.60578 18.0229 5.62103 18.0798 5.64999 18.13C5.83999 18.56 6.38999 18.23 9.64999 17.18C11.8285 16.4503 13.9424 15.5405 15.97 14.46C16.0195 14.4409 16.0646 14.412 16.1025 14.3749C16.1405 14.3378 16.1704 14.2934 16.1906 14.2443C16.2108 14.1952 16.2207 14.1426 16.2198 14.0895C16.2189 14.0365 16.2072 13.9842 16.1854 13.9358C16.1636 13.8874 16.1322 13.844 16.093 13.8082C16.0539 13.7724 16.0078 13.745 15.9577 13.7276C15.9076 13.7102 15.8545 13.7032 15.8015 13.7071C15.7486 13.7109 15.6971 13.7255 15.65 13.75C11.98 15.09 10.95 14.98 6.35999 17.42C5.81158 16.4543 5.33044 15.4519 4.91999 14.42C7.34257 14.0244 9.69842 13.2941 11.92 12.25C13.5483 11.6287 15.1234 10.8762 16.63 10C16.7188 9.94697 16.783 9.8608 16.8083 9.76047C16.8336 9.66014 16.818 9.55386 16.765 9.46501C16.7119 9.37616 16.6258 9.31203 16.5254 9.28671C16.4251 9.26139 16.3188 9.27697 16.23 9.33001C14.6053 10.0463 12.935 10.6543 11.23 11.15C8.16999 12.29 7.07999 13.15 4.49999 13.82C4.49999 13.71 3.13999 10.06 2.65999 8.73001C2.28555 7.95866 1.99069 7.15115 1.77999 6.32001C2.13194 6.0739 2.50314 5.85653 2.88999 5.67001C4.31999 4.82001 10.07 3.26001 13 2.00001C13.35 1.85001 14 1.52001 14.59 1.32001C15 1.14001 15.18 0.66001 16 2.79001L18.32 9.00001C18.3603 9.09044 18.4336 9.16213 18.5248 9.20055C18.6161 9.23897 18.7186 9.24123 18.8114 9.20688C18.9043 9.17253 18.9806 9.10414 19.0249 9.01558C19.0692 8.92702 19.0782 8.82493 19.05 8.73001Z" fill="black"/>
</g>
<defs>
<clipPath id="clip0_1033_3888">
<rect width="24" height="24" fill="white"/>
</clipPath>
</defs>
</svg>
