<svg width="24" height="24" viewBox="0 0 24 24" fill="none" xmlns="http://www.w3.org/2000/svg">
<g clip-path="url(#clip0_1046_5856)">
<path fill-rule="evenodd" clip-rule="evenodd" d="M5.88999 12.38H6.78999C7.19478 12.3845 7.59932 12.3578 7.99999 12.3C8.20755 12.2528 8.39795 12.149 8.54999 12C8.74989 11.7556 8.86873 11.455 8.88999 11.14C8.96999 10.49 8.88999 9.43001 8.95999 8.89001C9.02999 8.35001 8.99999 7.00001 8.99999 6.17001C9.0014 5.91331 8.96776 5.65761 8.89999 5.41001C8.86017 5.30557 8.79485 5.21275 8.70999 5.14001C8.50128 4.98179 8.25791 4.87553 7.99999 4.83001C8.0979 4.08181 8.05379 3.32186 7.86999 2.59001C7.6906 1.96133 7.3572 1.38733 6.89999 0.920012C6.52037 0.558558 6.05478 0.29997 5.54731 0.168725C5.03983 0.0374808 4.50725 0.0379236 3.99999 0.170012C3.04777 0.378053 2.19447 0.903428 1.57999 1.66001C1.26204 2.11364 1.06265 2.63961 0.99999 3.19001C0.945663 3.85818 0.979283 4.53059 1.09999 5.19001H0.74999C0.593313 5.21588 0.439337 5.25605 0.28999 5.31001C0.205383 5.33955 0.135858 5.40129 0.0965322 5.48181C0.0572068 5.56234 0.0512616 5.65513 0.0799895 5.74001C0.097825 5.79061 0.128904 5.83551 0.16999 5.87001V7.87001C0.16999 8.54001 0.13999 9.26001 0.0999895 10C0.0999895 10.31 -1.04924e-05 11.11 -1.04924e-05 11.47C-0.00308849 11.5854 0.0138279 11.7004 0.0499895 11.81C0.0959978 11.9058 0.1616 11.991 0.242559 12.0599C0.323517 12.1288 0.418029 12.1799 0.519989 12.21C0.757314 12.278 1.00313 12.3116 1.24999 12.31H3.85999C4.52999 12.31 5.20999 12.37 5.88999 12.38ZM1.79999 3.38001C1.90088 3.00541 2.09331 2.66177 2.35999 2.38001C2.87126 1.85363 3.53664 1.50343 4.25999 1.38001C4.5841 1.28779 4.92552 1.27416 5.25594 1.34024C5.58637 1.40633 5.89628 1.55023 6.15999 1.76001C6.61689 2.17705 6.94042 2.71975 7.08999 3.32001C7.21273 3.81015 7.26658 4.31501 7.24999 4.82001H5.93999L4.14999 4.90001L1.69999 5.11001C1.65369 4.5182 1.68733 3.92284 1.79999 3.34001V3.38001ZM0.86999 11.25L0.90999 10C0.90999 9.31001 0.90999 8.61001 0.85999 7.92001C0.80999 7.23001 0.79999 6.56001 0.74999 5.91001H0.949989H1.76999L4.18999 5.75001H5.90999H7.36999C7.55658 5.75888 7.73981 5.80299 7.90999 5.88001V5.90001C7.96999 6.60001 7.90999 8.23001 7.82999 8.90001C7.74999 11.43 8.02999 11.14 6.71999 11.23H3.86999L1.27999 11.32C1.19999 11.32 0.99999 11.22 0.86999 11.25Z" fill="black"/>
<path fill-rule="evenodd" clip-rule="evenodd" d="M5.21 8.88003C5.26498 8.75497 5.29143 8.61923 5.28741 8.48268C5.2834 8.34613 5.24902 8.21218 5.18678 8.09057C5.12454 7.96896 5.03599 7.86274 4.92758 7.77962C4.81916 7.6965 4.6936 7.63856 4.56 7.61003C3.62 7.48003 2.89 8.70003 3.64 9.29003C3.74753 9.37226 3.86969 9.43334 4 9.47003C4.11809 9.51239 4.24346 9.53069 4.36873 9.52384C4.494 9.51699 4.61663 9.48513 4.7294 9.43015C4.84216 9.37516 4.94278 9.29816 5.02532 9.20368C5.10786 9.1092 5.17065 8.99915 5.21 8.88003Z" fill="black"/>
<path fill-rule="evenodd" clip-rule="evenodd" d="M18.81 14C19.631 13.2881 20.366 12.4827 21 11.6C21.3327 11.1373 21.508 10.5799 21.5 10.01C21.4224 9.57064 21.2291 9.15987 20.94 8.82003C20.4059 8.19277 19.8242 7.6077 19.2 7.07003L17.2 5.14003C16.7612 4.689 16.2751 4.28667 15.75 3.94003C15.367 3.67276 14.9238 3.50442 14.46 3.45003C14.1479 3.43131 13.8374 3.50804 13.57 3.67003C13.2374 3.87018 12.9345 4.1159 12.67 4.40003L10.22 6.69003C10.1848 6.71433 10.1552 6.74587 10.1332 6.78255C10.1111 6.81922 10.0972 6.86018 10.0923 6.90268C10.0875 6.94517 10.0917 6.98822 10.1048 7.02893C10.118 7.06965 10.1396 7.10709 10.1684 7.13874C10.1972 7.17039 10.2324 7.19552 10.2717 7.21245C10.3109 7.22937 10.3534 7.2377 10.3962 7.23688C10.4389 7.23606 10.481 7.22609 10.5196 7.20767C10.5582 7.18924 10.5924 7.16277 10.62 7.13003L13.13 4.92003C13.3549 4.68931 13.6107 4.49077 13.89 4.33003C14.0347 4.24444 14.2024 4.20599 14.37 4.22003C14.5338 4.24392 14.6926 4.2946 14.84 4.37003L14.12 5.76003C14.04 5.93003 13.91 6.14003 13.83 6.34003C13.7864 6.47563 13.7661 6.61764 13.77 6.76003C13.7881 7.11849 13.9059 7.4648 14.11 7.76003C14.5046 8.2643 14.9358 8.73891 15.4 9.18003C15.699 9.52202 16.0343 9.83049 16.4 10.1C16.6951 10.3197 17.0376 10.4669 17.4 10.53C17.8194 10.5819 18.2451 10.5304 18.64 10.38C19.15 10.18 19.57 9.83003 20.04 9.61003L20.12 9.55003C20.2468 9.71409 20.3325 9.9061 20.37 10.11C20.3121 10.5653 20.1086 10.9897 19.79 11.32C19.2436 11.9803 18.645 12.5956 18 13.16C17.41 13.7 16.86 14.22 16.33 14.75C15.53 15.53 14.76 16.33 13.9 17.18C13.3 17.78 12.68 18.41 12.03 19.01C11.6157 19.4049 11.1818 19.7787 10.73 20.13C10.5917 20.2416 10.4261 20.3144 10.2503 20.3407C10.0746 20.3671 9.89495 20.3461 9.72998 20.28C9.28948 20.0517 8.89057 19.7508 8.54998 19.39L5.48998 16.39C5.19998 16.09 4.64998 15.59 4.21998 15.1C3.94998 14.8 3.69998 14.51 3.69998 14.28C3.68153 14.199 3.63559 14.1268 3.56997 14.0758C3.50435 14.0247 3.42309 13.998 3.33998 14C3.29532 14.0013 3.25136 14.0114 3.2106 14.0297C3.16985 14.048 3.13309 14.0741 3.10245 14.1066C3.0718 14.1391 3.04786 14.1774 3.03199 14.2191C3.01613 14.2609 3.00865 14.3054 3.00998 14.35C3.05844 14.7203 3.21496 15.0682 3.45998 15.35C3.91919 15.9109 4.40998 16.4451 4.92998 16.95L7.92998 20.04C8.41951 20.5989 9.04202 21.0254 9.73998 21.28C10.0216 21.355 10.3169 21.3623 10.6019 21.3015C10.8869 21.2407 11.1535 21.1134 11.38 20.93C11.86 20.58 12.32 20.19 12.78 19.79C13.45 19.2 14.1 18.58 14.72 17.98L18.81 14ZM18.39 9.56003C18.128 9.6305 17.852 9.6305 17.59 9.56003C17.4013 9.48193 17.2285 9.3701 17.08 9.23003C16.7825 8.98565 16.508 8.71452 16.26 8.42003C15.92 8.04003 15.36 7.61003 14.99 7.13003C14.8673 6.99234 14.7783 6.82801 14.73 6.65003C14.7159 6.59085 14.7159 6.52921 14.73 6.47003C14.78 6.33003 14.84 6.19003 14.87 6.08003L15.35 4.70003C15.7674 4.99598 16.1558 5.33081 16.51 5.70003L18.51 7.70003C18.84 8.03003 19.32 8.48003 19.72 8.94003C19.2897 9.17363 18.8455 9.38069 18.39 9.56003Z" fill="black"/>
<path fill-rule="evenodd" clip-rule="evenodd" d="M23.89 16.8C23.2937 16.2319 22.6204 15.7505 21.89 15.37C21.5086 15.1326 21.0693 15.0046 20.62 15C20.4714 15.0327 20.3379 15.1135 20.24 15.23C20.0336 15.4917 19.8591 15.7771 19.72 16.08C19.396 16.8005 19.1545 17.5553 19 18.33C18.9903 18.4035 19.0081 18.4779 19.05 18.539C19.092 18.6001 19.155 18.6435 19.227 18.6609C19.2991 18.6783 19.375 18.6684 19.4401 18.6331C19.5053 18.5979 19.5551 18.5398 19.58 18.47C19.9202 17.8126 20.3079 17.181 20.74 16.58L20.87 16.39C21.3573 17.4883 21.5036 18.7076 21.29 19.89C21.1662 20.4676 20.9066 21.0074 20.5327 21.4647C20.1589 21.9221 19.6814 22.2838 19.14 22.52C18.3458 22.9083 17.4439 23.0175 16.58 22.83C15.6723 22.7079 14.8241 22.31 14.15 21.69C14.1264 21.6585 14.0967 21.6319 14.0628 21.6119C14.0289 21.5918 13.9914 21.5786 13.9524 21.573C13.9134 21.5674 13.8737 21.5696 13.8355 21.5794C13.7974 21.5892 13.7615 21.6064 13.73 21.63C13.6988 21.6527 13.6725 21.6814 13.6525 21.7145C13.6326 21.7475 13.6194 21.7842 13.6138 21.8224C13.6082 21.8606 13.6103 21.8995 13.62 21.9369C13.6296 21.9742 13.6466 22.0093 13.67 22.04C14.372 22.8715 15.3216 23.4567 16.38 23.71C17.4541 24.0284 18.6049 23.9684 19.64 23.54C20.3278 23.2194 20.9279 22.7374 21.3893 22.1349C21.8507 21.5325 22.1597 20.8275 22.29 20.08C22.438 18.8194 22.212 17.5431 21.64 16.41C21.88 16.5 22.13 16.59 22.38 16.71C22.7625 16.8649 23.1278 17.0593 23.47 17.29C23.5337 17.3535 23.62 17.3892 23.71 17.3892C23.8 17.3892 23.8863 17.3535 23.95 17.29C23.9794 17.2544 24.0013 17.2132 24.0143 17.1688C24.0272 17.1245 24.031 17.078 24.0254 17.0321C24.0198 16.9862 24.0049 16.942 23.9816 16.9021C23.9583 16.8622 23.9272 16.8275 23.89 16.8Z" fill="black"/>
</g>
<defs>
<clipPath id="clip0_1046_5856">
<rect width="24" height="24" fill="white"/>
</clipPath>
</defs>
</svg>
