<svg width="24" height="24" viewBox="0 0 24 24" fill="none" xmlns="http://www.w3.org/2000/svg">
<g clip-path="url(#clip0_1052_9257)">
<path fill-rule="evenodd" clip-rule="evenodd" d="M0.510014 15.1901C0.554805 15.5042 0.694346 15.7973 0.910014 16.0301C1.3465 16.3547 1.87602 16.5301 2.42001 16.5301C3.47072 16.517 4.51688 16.3896 5.54001 16.1501C5.63019 16.1368 5.7114 16.0883 5.76579 16.0151C5.82017 15.942 5.84328 15.8502 5.83001 15.7601C5.81675 15.6699 5.76821 15.5887 5.69508 15.5343C5.62194 15.4799 5.53019 15.4568 5.44001 15.4701C4.59934 15.5972 3.75026 15.6608 2.90001 15.6601C2.44478 15.6896 1.99314 15.5625 1.62001 15.3001C1.62001 15.3001 1.62001 15.1801 1.57001 15.1001C1.5323 14.8888 1.51223 14.6747 1.51001 14.4601C1.51001 13.7301 1.51001 12.9001 1.46001 12.6101L1.39001 12.1101C1.59974 12.1254 1.81029 12.1254 2.02001 12.1101C2.24283 12.0929 2.46369 12.0561 2.68001 12.0001C3.00815 11.8998 3.3421 11.8196 3.68001 11.7601C3.76106 11.7536 3.83732 11.7191 3.89571 11.6626C3.9541 11.606 3.99098 11.5309 4.00001 11.4501C4.00272 11.4054 3.99658 11.3606 3.98195 11.3183C3.96732 11.2761 3.94448 11.2371 3.91476 11.2036C3.88503 11.1702 3.84899 11.1429 3.80871 11.1234C3.76842 11.104 3.72469 11.0926 3.68001 11.0901C3.32368 10.9967 2.95813 10.9431 2.59001 10.9301C2.44018 10.9201 2.28985 10.9201 2.14001 10.9301C1.99026 10.9479 1.84279 10.9815 1.70001 11.0301C1.54001 11.0301 1.40001 11.1401 1.25001 11.2001L1.18001 10.7301L1.07001 9.42007C1.03905 9.18389 1.06975 8.94372 1.15912 8.72292C1.24849 8.50212 1.39349 8.30821 1.58001 8.16007C2.37168 7.79488 3.23894 7.62348 4.11001 7.66007C4.18872 7.65498 4.26252 7.62008 4.3164 7.56249C4.37028 7.5049 4.40018 7.42893 4.40001 7.35007C4.40004 7.30981 4.39196 7.26997 4.37626 7.2329C4.36056 7.19584 4.33757 7.16231 4.30864 7.13432C4.27972 7.10633 4.24545 7.08444 4.20789 7.06997C4.17033 7.05549 4.13024 7.04872 4.09001 7.05007C3.07399 6.92926 2.04383 7.05974 1.09001 7.43007C0.743498 7.63342 0.458358 7.92662 0.264733 8.27866C0.0711076 8.63071 -0.0238093 9.02852 -0.00998556 9.43007C-0.0249511 9.67984 -0.0249511 9.93029 -0.00998556 10.1801C-0.00998556 10.4301 -0.00998556 10.6801 0.0400144 10.9201L0.310014 12.8301C0.380014 13.1501 0.350014 14.4201 0.510014 15.1901Z" fill="black"/>
<path fill-rule="evenodd" clip-rule="evenodd" d="M11.63 7.75001C11.5947 7.73106 11.5559 7.71938 11.516 7.71568C11.476 7.71197 11.4358 7.7163 11.3976 7.72842C11.3593 7.74054 11.3239 7.7602 11.2934 7.78624C11.2629 7.81227 11.238 7.84416 11.22 7.88001C10.78 8.56001 10.31 9.24001 9.87001 9.96001L9.75001 9.81001C9.02469 9.04217 8.24247 8.33015 7.41001 7.68001C7.38206 7.65128 7.34863 7.62845 7.3117 7.61286C7.27478 7.59727 7.2351 7.58923 7.19501 7.58923C7.15493 7.58923 7.11525 7.59727 7.07832 7.61286C7.0414 7.62845 7.00797 7.65128 6.98001 7.68001C6.92441 7.73777 6.89334 7.81483 6.89334 7.89501C6.89334 7.97519 6.92441 8.05225 6.98001 8.11001C7.36001 8.53001 7.73001 8.98001 8.10001 9.45001C8.47001 9.92001 8.65001 10.2 8.93001 10.58L9.26001 11L9.04001 11.41C8.86001 11.79 8.70001 12.18 8.55001 12.57C8.21123 13.5005 7.9634 14.4617 7.81001 15.44C7.7951 15.485 7.78976 15.5326 7.79434 15.5798C7.79892 15.627 7.81332 15.6727 7.83662 15.714C7.85992 15.7553 7.89159 15.7913 7.92961 15.8196C7.96764 15.848 8.01116 15.868 8.0574 15.8785C8.10363 15.889 8.15155 15.8898 8.19808 15.8806C8.24461 15.8715 8.28872 15.8528 8.32758 15.8256C8.36644 15.7984 8.39918 15.7635 8.42371 15.7229C8.44824 15.6823 8.46401 15.637 8.47001 15.59C8.63134 15.0809 8.81824 14.5803 9.03001 14.09C9.25001 13.6 9.50001 13.09 9.73001 12.64C9.84001 12.43 9.93001 12.22 10.04 12.01C10.84 13.01 11.64 14.01 12.31 15.01C12.3551 15.0882 12.4294 15.1454 12.5166 15.1688C12.6038 15.1923 12.6968 15.1801 12.775 15.135C12.8533 15.0899 12.9104 15.0156 12.9338 14.9284C12.9573 14.8412 12.9451 14.7482 12.9 14.67C12.444 13.7541 11.94 12.8628 11.39 12C11.14 11.62 10.89 11.25 10.61 10.89C11.01 9.99001 11.38 9.08001 11.76 8.21001C11.786 8.17244 11.8033 8.1296 11.8108 8.08455C11.8183 8.03949 11.8158 7.99334 11.8033 7.94939C11.7909 7.90544 11.769 7.86478 11.739 7.83031C11.709 7.79584 11.6718 7.76842 11.63 7.75001Z" fill="black"/>
<path fill-rule="evenodd" clip-rule="evenodd" d="M15.9 11.19C15.82 10.19 15.65 9.10003 15.5 7.96003C15.4975 7.9206 15.4872 7.88207 15.4697 7.84663C15.4522 7.8112 15.4279 7.77957 15.3982 7.75355C15.3684 7.72753 15.3339 7.70764 15.2964 7.69503C15.259 7.68241 15.2194 7.67732 15.18 7.68003C15.1402 7.67994 15.1008 7.68805 15.0642 7.70385C15.0277 7.71966 14.9947 7.74283 14.9675 7.77191C14.9403 7.801 14.9194 7.83538 14.9061 7.8729C14.8927 7.91043 14.8873 7.9503 14.89 7.99003C14.89 8.99003 14.78 9.91003 14.76 10.82V12.04C14.76 12.45 14.81 12.85 14.85 13.25C14.94 14.17 15.09 15.09 15.26 16.08C15.2638 16.1247 15.2764 16.1683 15.297 16.2081C15.3177 16.2479 15.3461 16.2833 15.3805 16.3121C15.4148 16.3409 15.4546 16.3626 15.4974 16.376C15.5403 16.3894 15.5853 16.3941 15.63 16.39C15.6812 16.3933 15.7325 16.3853 15.7802 16.3666C15.828 16.3478 15.871 16.3188 15.9063 16.2816C15.9416 16.2444 15.9683 16.1999 15.9845 16.1513C16.0007 16.1026 16.006 16.051 16 16V13.11C16 12.47 15.94 11.83 15.9 11.19Z" fill="black"/>
<path fill-rule="evenodd" clip-rule="evenodd" d="M23.58 7.09998C22.7426 6.97685 21.8945 6.94332 21.05 6.99998C20.5611 7.02471 20.0738 7.07478 19.59 7.14998C18.87 7.25998 18.18 7.42998 17.45 7.46998C17.3694 7.46722 17.2909 7.49595 17.2312 7.55009C17.1715 7.60424 17.1352 7.67952 17.13 7.75998C17.1273 7.8002 17.1327 7.84055 17.146 7.87862C17.1592 7.9167 17.18 7.95172 17.207 7.98158C17.2341 8.01145 17.2669 8.03556 17.3035 8.05246C17.3401 8.06937 17.3797 8.07873 17.42 8.07998C18.2515 8.22641 19.0964 8.28341 19.94 8.24998H20.3V10.87C20.3 11.26 20.3 11.65 20.37 12.03C20.44 12.41 20.45 12.81 20.5 13.19C20.62 14.1 20.78 15 20.92 15.9C20.9301 15.9911 20.9756 16.0747 21.0466 16.1327C21.1177 16.1906 21.2087 16.2184 21.3 16.21C21.3883 16.1977 21.4689 16.153 21.5262 16.0846C21.5835 16.0163 21.6133 15.9291 21.61 15.84V13.11C21.61 12.7233 21.59 12.3333 21.55 11.94C21.55 11.55 21.49 11.16 21.43 10.78C21.31 9.89998 21.12 9.03998 20.95 8.17998L21.42 8.11998C22.1269 7.98453 22.8417 7.89435 23.56 7.84998C23.6047 7.85269 23.6494 7.84655 23.6917 7.83192C23.734 7.81729 23.773 7.79445 23.8064 7.76472C23.8399 7.73499 23.8671 7.69896 23.8866 7.65867C23.9061 7.61839 23.9175 7.57466 23.92 7.52998C23.9342 7.47852 23.936 7.42445 23.9254 7.37214C23.9148 7.31983 23.892 7.27075 23.8589 7.22888C23.8258 7.18702 23.7833 7.15353 23.7348 7.13114C23.6864 7.10874 23.6334 7.09807 23.58 7.09998Z" fill="black"/>
<path fill-rule="evenodd" clip-rule="evenodd" d="M23.74 3.73002C23.2433 3.6008 22.7331 3.53032 22.22 3.52002H20.02H16.25C15 3.52002 13.74 3.59002 12.48 3.64002C11.22 3.69002 10.18 3.72002 9.09 3.74002C7.36 3.74002 5.69 3.80002 3.96 3.87002C2.78 3.87002 1.56 3.99002 0.28 4.13002C0.208863 4.13443 0.141619 4.16402 0.0903127 4.21349C0.0390068 4.26297 0.00699093 4.32909 0 4.40002C0.0024794 4.43905 0.0128297 4.47719 0.0304282 4.51212C0.0480268 4.54705 0.0725098 4.57806 0.102404 4.60328C0.132299 4.6285 0.166987 4.64742 0.204381 4.65889C0.241776 4.67036 0.281104 4.67414 0.32 4.67002C3.82 4.50002 6.78 4.80002 10.07 4.81002C10.87 4.81002 11.68 4.81002 12.53 4.73002C14.03 4.63002 15.53 4.55002 17.02 4.47002C18.02 4.47002 19.02 4.38002 20.02 4.35002C20.68 4.35002 21.45 4.27002 22.2 4.27002C22.6601 4.26067 23.1198 4.30429 23.57 4.40002C23.6147 4.41207 23.6613 4.41516 23.7071 4.40909C23.753 4.40303 23.7972 4.38794 23.8371 4.36469C23.8771 4.34145 23.9121 4.3105 23.9401 4.27366C23.968 4.23681 23.9884 4.19479 24 4.15002C24.0118 4.10532 24.0144 4.05869 24.0076 4.01296C24.0008 3.96722 23.9847 3.92336 23.9604 3.88405C23.9361 3.84474 23.904 3.8108 23.8661 3.78432C23.8282 3.75784 23.7853 3.73936 23.74 3.73002Z" fill="black"/>
<path fill-rule="evenodd" clip-rule="evenodd" d="M23.29 19.07H21.7C20.5 19.07 19.4 19.22 18.07 19.2C17 19.2 15.94 19.04 14.87 18.99H14C13.3 18.99 12.61 19.04 11.92 19.09C10.33 19.22 8.76 19.43 7.17 19.53C6.46 19.53 5.78 19.62 5.17 19.64C3.52 19.71 1.98 19.7 0.350002 19.78C0.30975 19.78 0.269904 19.788 0.232839 19.8037C0.195774 19.8194 0.162247 19.8424 0.134255 19.8714C0.106262 19.9003 0.0843771 19.9346 0.0699026 19.9721C0.0554281 20.0097 0.0486602 20.0498 0.0500019 20.09C0.0512935 20.1294 0.0603389 20.1682 0.0766212 20.2041C0.0929034 20.24 0.116103 20.2723 0.144894 20.2992C0.173684 20.3262 0.207501 20.3472 0.244411 20.361C0.281321 20.3749 0.3206 20.3813 0.360002 20.38C1.99 20.38 3.52 20.51 5.17 20.55H7.26C7.72 20.55 8.18 20.55 8.64 20.5C10.45 20.39 12.25 20.16 14.07 20.11H18.07C19.42 20.06 20.52 19.88 21.73 19.79C22.22 19.79 22.73 19.72 23.26 19.72C23.3502 19.72 23.4367 19.6842 23.5004 19.6204C23.5642 19.5566 23.6 19.4702 23.6 19.38C23.6 19.2898 23.5642 19.2033 23.5004 19.1396C23.4367 19.0758 23.3502 19.04 23.26 19.04L23.29 19.07Z" fill="black"/>
</g>
<defs>
<clipPath id="clip0_1052_9257">
<rect width="24" height="24" fill="white"/>
</clipPath>
</defs>
</svg>
