<svg width="24" height="24" viewBox="0 0 24 24" fill="none" xmlns="http://www.w3.org/2000/svg">
<g clip-path="url(#clip0_1049_7974)">
<path fill-rule="evenodd" clip-rule="evenodd" d="M18 12.19C17.4726 11.617 17.1112 10.9113 16.9544 10.1485C16.7976 9.38565 16.8514 8.59456 17.11 7.86C18.5716 7.21013 19.9735 6.43385 21.3 5.54C24 4.3 23 0.890003 21.7 1.13C20.02 1.46 18.11 -0.469997 15.89 1.13C15.8211 1.09549 15.7572 1.05175 15.7 1C15.5158 0.729576 15.3011 0.481273 15.06 0.260003C14.9308 0.131217 14.7689 0.0402202 14.5917 -0.00313577C14.4145 -0.0464918 14.2288 -0.0405556 14.0548 0.0140303C13.8807 0.0686161 13.7249 0.169772 13.6042 0.306548C13.4835 0.443323 13.4025 0.610508 13.37 0.790003C13.2135 1.27356 13.1624 1.78503 13.22 2.29C12.1763 2.56145 11.169 2.95764 10.22 3.47C9.05567 4.02173 8.03036 4.8283 7.22001 5.83C6.33001 6.71 6.56001 5.68 3.22001 7.68C0.220006 9.48 -1.05999 14.1 1.47001 18.68C2.12001 19.85 2.89001 22.68 3.92001 23.35C4.67225 23.7103 5.51354 23.8424 6.34001 23.73C8.48001 23.73 7.67001 21.94 7.87001 21.14C8.01001 20.57 8.58001 19.9 8.87001 19.25C9.34001 18.04 8.87001 19.54 8.87001 19.84C8.84523 20.273 8.84523 20.707 8.87001 21.14C8.87001 22.09 8.87001 23.04 9.63001 23.62C9.99195 23.8099 10.3889 23.9238 10.7964 23.9547C11.204 23.9857 11.6135 23.933 12 23.8C12.2152 23.7562 12.419 23.6682 12.5985 23.5417C12.778 23.4152 12.9294 23.2529 13.0431 23.065C13.1568 22.8771 13.2303 22.6677 13.259 22.45C13.2877 22.2323 13.2711 22.011 13.21 21.8C12.89 20.05 13.28 21.25 13.99 20.3C14.541 19.5448 14.8856 18.659 14.99 17.73C14.9993 17.6436 14.9752 17.5568 14.9226 17.4876C14.87 17.4185 14.7928 17.372 14.7071 17.358C14.6213 17.3439 14.5333 17.3632 14.4614 17.4119C14.3894 17.4607 14.3388 17.5351 14.32 17.62C14.1795 18.3995 13.8344 19.1277 13.32 19.73C13.06 20.01 12.32 20.11 12.14 20.73C12.0805 21.2684 12.0805 21.8116 12.14 22.35C12.14 22.71 11.68 22.74 11.14 22.9C9.75001 23.2 9.76 22.63 9.53001 21.17C9.45178 20.7774 9.40165 20.3797 9.38001 19.98C9.38001 19.83 9.52001 18.98 9.68001 18.93C11.63 18.46 11.53 18.36 13.13 16.81C13.1871 16.7523 13.2216 16.6761 13.2274 16.5951C13.2332 16.5141 13.2098 16.4338 13.1615 16.3686C13.1131 16.3033 13.0431 16.2575 12.964 16.2395C12.8848 16.2214 12.8018 16.2322 12.73 16.27C12.2 16.58 11.73 16.85 11.16 17.15C10.59 17.45 10.86 17.35 9.47001 18.25C8.76001 18.59 9.14001 18.54 9.32001 17.06C9.55437 15.3509 9.27594 13.6107 8.52001 12.06C8.50571 12.0182 8.48292 11.9799 8.45307 11.9473C8.42323 11.9148 8.38697 11.8888 8.34658 11.8709C8.30619 11.8531 8.26254 11.8438 8.21839 11.8436C8.17423 11.8435 8.13052 11.8524 8.09001 11.87C7.30001 12.18 9.09001 13.34 8.53001 17C8.37794 18.2131 7.9165 19.3667 7.19001 20.35C6.63001 21.35 6.92001 21.64 6.82001 22.55C6.81893 22.6534 6.78765 22.7542 6.73001 22.84H6.25001C4.25001 22.84 4.39001 22.73 3.80001 21.61C3.21001 20.49 3.01001 19.42 2.38001 18.25C0.210006 14.12 1.23001 10.09 3.69001 8.52C4.38414 8.05491 5.11681 7.6501 5.88001 7.31C6.3131 7.22304 6.73798 7.09926 7.15001 6.94C7.90001 6.52 8.33001 5.67 8.91001 5.19C9.94716 4.36127 11.0992 3.68757 12.33 3.19C12.61 3.07 13.21 2.74 13.33 2.91C13.3711 2.97631 13.4369 3.02357 13.5128 3.04138C13.5888 3.0592 13.6687 3.04611 13.735 3.005C13.8013 2.96389 13.8486 2.89813 13.8664 2.82218C13.8842 2.74623 13.8711 2.66631 13.83 2.6C13.91 2.52 13.71 1.01 14.27 0.760003C14.83 0.510003 15.27 2.69 16.33 1.96C18.18 0.720003 19.63 2.57 21.8 2.23C21.9669 2.70922 21.9669 3.23078 21.8 3.71C21.632 4.14517 21.3074 4.50184 20.89 4.71C19.644 5.65894 18.323 6.50506 16.94 7.24C16.82 7.24 16.59 7.59 16.56 7.67C16.4459 7.99804 16.3491 8.33183 16.27 8.67C16.0495 9.65142 16.1455 10.6775 16.5444 11.6009C16.9432 12.5244 17.6243 13.2977 18.49 13.81C20.08 14.51 19.85 14.35 19.85 14.57C19.8171 14.9472 19.6861 15.3091 19.47 15.62C18.26 17.08 16 16.53 14.63 15.32C13.7292 14.4078 12.9948 13.3451 12.46 12.18C12.4455 12.1328 12.4208 12.0894 12.3878 12.0527C12.3548 12.016 12.3141 11.987 12.2688 11.9676C12.2234 11.9482 12.1743 11.9389 12.125 11.9404C12.0756 11.9418 12.0272 11.954 11.9831 11.9761C11.9389 11.9982 11.9001 12.0296 11.8693 12.0682C11.8385 12.1068 11.8165 12.1516 11.8048 12.1995C11.7931 12.2475 11.792 12.2974 11.8015 12.3459C11.811 12.3943 11.831 12.4401 11.86 12.48C12.3593 13.7708 13.0839 14.9626 14 16C15.79 17.77 18.63 18.35 20.32 16.39C20.91 15.68 21.32 14.21 20.55 13.58C19.78 12.95 19.26 13.41 18 12.19Z" fill="black"/>
<path fill-rule="evenodd" clip-rule="evenodd" d="M23.86 8.34001C23.7804 8.0823 23.6469 7.84448 23.4683 7.64237C23.2897 7.44027 23.0702 7.27849 22.8242 7.16781C22.5783 7.05714 22.3116 7.00009 22.0419 7.00047C21.7722 7.00084 21.5056 7.05864 21.26 7.17001C20.6661 7.41662 20.0854 7.69365 19.52 8.00001L18.6 8.33001C18.42 8.33001 18.08 8.24001 17.92 8.45001C17.8749 8.49479 17.8441 8.552 17.8317 8.61434C17.8192 8.67668 17.8256 8.74131 17.85 8.80001C17.93 9.04001 18.45 9.02 18.7 8.99001C19.5992 8.85693 20.479 8.61516 21.32 8.27001C22.1 8.05001 22.77 8.10001 22.86 8.91001C22.911 9.21472 22.8794 9.52753 22.7687 9.81593C22.6579 10.1043 22.4719 10.3578 22.23 10.55C21.72 10.87 20.87 11.05 21.15 11.55C21.1977 11.6268 21.2732 11.6823 21.3608 11.7046C21.4484 11.727 21.5413 11.7146 21.62 11.67C21.95 11.49 22.29 11.43 22.62 11.28C23.1156 10.9888 23.5041 10.5453 23.7275 10.0156C23.9509 9.48591 23.9974 8.89824 23.86 8.34001Z" fill="black"/>
</g>
<defs>
<clipPath id="clip0_1049_7974">
<rect width="24" height="24" fill="white"/>
</clipPath>
</defs>
</svg>
