<svg width="24" height="24" viewBox="0 0 24 24" fill="none" xmlns="http://www.w3.org/2000/svg">
<g clip-path="url(#clip0_1049_8003)">
<path fill-rule="evenodd" clip-rule="evenodd" d="M19.76 13.57C18.76 13.57 18.98 15.08 19.76 15.1C20.36 15.1 20.69 14.93 20.68 14.41C20.69 14.14 20.71 13.51 19.76 13.57Z" fill="black"/>
<path fill-rule="evenodd" clip-rule="evenodd" d="M19.3 6C19.3 5.73 19.3 5.11 18.37 5.16C17.44 5.21 17.58 6.68 18.37 6.7C19 6.75 19.31 6.56 19.3 6Z" fill="black"/>
<path fill-rule="evenodd" clip-rule="evenodd" d="M7.72 2.76C6.72 3.05 7.30001 4.42 8.08001 4.26C8.67001 4.14 8.95 3.87 8.82 3.37C8.75 3.11 8.63 2.49 7.72 2.76Z" fill="black"/>
<path fill-rule="evenodd" clip-rule="evenodd" d="M4.73 10.48C3.73 10.48 3.94 11.99 4.73 12.02C5.33 12.02 5.67 11.84 5.65 11.32C5.66 11.05 5.68 10.42 4.73 10.48Z" fill="black"/>
<path fill-rule="evenodd" clip-rule="evenodd" d="M11.26 5.7C11.7 5.3 12.1 4.88 12.54 4.45C12.5814 4.42031 12.6164 4.38261 12.6429 4.33914C12.6694 4.29567 12.6869 4.24731 12.6944 4.19694C12.7018 4.14657 12.6991 4.09521 12.6863 4.04592C12.6736 3.99663 12.651 3.95041 12.62 3.91C12.62 3.91 12.55 3.91 12.51 3.84C11.86 3.19 11.21 2.51 10.51 1.89C10.0418 1.45075 9.53655 1.05261 9.00001 0.699999C8.60061 0.446352 8.17047 0.244723 7.72001 0.099999C7.34996 0.000205822 6.96007 0.000205822 6.59001 0.099999C6.37748 0.144915 6.17658 0.233448 6.00001 0.359999C5.73001 0.559999 5.48001 0.859999 5.27001 1.04C4.952 1.31425 4.64827 1.60463 4.36001 1.91C4.15077 2.13515 3.96327 2.37957 3.80001 2.64C3.67807 2.84673 3.58393 3.06865 3.52001 3.3C3.4586 3.49528 3.4586 3.70471 3.52001 3.9C3.57 4.02628 3.65719 4.13439 3.77001 4.21C3.93856 4.29707 4.11221 4.37387 4.29001 4.44L5.40001 4.9C5.78311 5.09349 6.15382 5.31057 6.51001 5.55C7.30001 6.06 8.00001 6.64 8.76001 7.17C9.10001 7.44 9.63001 7.09 9.63001 7.09C9.91001 6.82 11.2 5.75 11.26 5.7ZM9.75001 5.31C9.44461 5.65051 9.19182 6.03475 9.00001 6.45C8.39001 5.89 7.77001 5.3 7.12001 4.77C6.76785 4.46283 6.3935 4.18207 6.00001 3.93L4.88001 3.36C5.00503 3.17196 5.14552 2.99468 5.30001 2.83C5.55001 2.56 5.84001 2.3 6.11001 2.06L6.90001 1.33C7.11064 1.25762 7.33939 1.25762 7.55001 1.33C7.84077 1.42732 8.12195 1.55117 8.39001 1.7C8.91651 1.98658 9.41531 2.32134 9.88001 2.7C10.47 3.15 11.02 3.7 11.58 4.14C11.26 4.31 10.92 4.46 10.58 4.66C10.278 4.84213 9.99924 5.06041 9.75001 5.31Z" fill="black"/>
<path fill-rule="evenodd" clip-rule="evenodd" d="M16.1 9.33C16.14 9.42558 16.2155 9.50192 16.3106 9.54295C16.4057 9.58398 16.5131 9.58651 16.61 9.55C16.6614 9.52953 16.708 9.49861 16.7468 9.45921C16.7857 9.4198 16.8159 9.37277 16.8357 9.32107C16.8554 9.26938 16.8642 9.21416 16.8615 9.15889C16.8588 9.10363 16.8447 9.04952 16.82 9C16.7326 8.55701 16.6191 8.11957 16.48 7.69C16.4221 7.50551 16.352 7.32511 16.27 7.15C16.1831 6.97788 16.0862 6.81094 15.98 6.65C15.7638 6.36857 15.5335 6.09822 15.29 5.84C15.94 5.54 16.58 5.23 17.24 4.95C17.9 4.67 18.7 4.33 19.45 4.06L20.21 3.84V3.89C20.323 4.14481 20.4231 4.40514 20.51 4.67L21.13 6C21.0475 6.0689 20.9607 6.13237 20.87 6.19C20.4771 6.39256 20.0731 6.57284 19.66 6.73C19.1592 6.93705 18.6746 7.18106 18.21 7.46C17.7344 7.74805 17.2888 8.08306 16.88 8.46C16.8136 8.52867 16.7746 8.61933 16.7706 8.7148C16.7666 8.81026 16.7978 8.90387 16.8582 8.97788C16.9187 9.05188 17.0042 9.10112 17.0985 9.11626C17.1928 9.1314 17.2894 9.11138 17.37 9.06C17.7631 8.75651 18.1891 8.49822 18.64 8.29C19.0879 8.06986 19.5527 7.88594 20.03 7.74C20.5052 7.61249 20.9699 7.44868 21.42 7.25C21.7867 7.07534 22.1083 6.81873 22.36 6.5C22.47 6.35792 22.5202 6.17854 22.5 6C22.4441 5.78963 22.36 5.58779 22.25 5.4L21.75 4.26C21.64 3.99 21.54 3.69 21.41 3.41C21.2991 3.17811 21.1615 2.95996 21 2.76C20.9286 2.66168 20.8298 2.58651 20.7161 2.54384C20.6023 2.50117 20.4785 2.49288 20.36 2.52C20.2546 2.53794 20.1509 2.5647 20.05 2.6L19 3C18.41 3.29 17.83 3.59 17.26 3.91C16.41 4.39 15.58 4.91 14.75 5.39C14.66 5.44 14.41 5.78 14.53 5.99C14.64 6.43 15.88 9 16.1 9.33Z" fill="black"/>
<path fill-rule="evenodd" clip-rule="evenodd" d="M15.1 14.26C14.8669 14.3409 14.6425 14.4447 14.43 14.57C14.2163 14.697 14.0154 14.8444 13.83 15.01C13.752 15.0827 13.6817 15.1631 13.62 15.25C13.6377 13.9842 13.544 12.7194 13.34 11.47C13.25 11.03 13.14 10.59 13.02 10.15L13.92 9.49001L14.44 9.11001C14.6969 8.90483 14.9285 8.66985 15.13 8.41001C15.33 7.79001 14.95 7.41001 14.66 7.51001C14.5193 7.55647 14.3823 7.61329 14.25 7.68001C14.0335 7.7921 13.8291 7.92614 13.64 8.08001C13.4539 8.23282 13.2769 8.39644 13.11 8.57001C12.95 8.74001 12.83 8.94001 12.69 9.12001C12.3829 8.18271 11.9632 7.28616 11.44 6.45001C11.04 6.16001 10.59 6.74001 10.9 7.27001C11.5354 8.6637 11.9309 10.1546 12.07 11.68C12.18 12.45 12.21 13.23 12.27 14.02C12.17 13.9 12.1 13.77 12 13.65C11.7707 13.399 11.5233 13.1651 11.26 12.95C10.9895 12.7426 10.7018 12.5586 10.4 12.4C10.0222 12.1828 9.60332 12.0465 9.17 12C8.62 11.86 8.38 12.15 8.79 12.81C9.18 13.12 9.34 13.15 9.79 13.48C10.24 13.81 10.54 14.03 10.9 14.32C11.4564 14.7542 11.9509 15.2622 12.37 15.83V21.43C12.3671 21.5328 12.404 21.6328 12.4729 21.7091C12.5418 21.7855 12.6375 21.8323 12.74 21.84C12.7907 21.8427 12.8415 21.8352 12.8893 21.8179C12.937 21.8007 12.9809 21.774 13.0182 21.7395C13.0555 21.705 13.0854 21.6634 13.1064 21.6171C13.1273 21.5708 13.1387 21.5208 13.14 21.47C13.3 19.84 13.46 18.21 13.54 16.58L13.95 16.29C14.19 16.14 14.45 16.03 14.7 15.89L15.42 15.47L16.04 15.11C16.35 14.88 16.04 14.47 15.68 14.21C15.4872 14.1542 15.2805 14.172 15.1 14.26Z" fill="black"/>
<path fill-rule="evenodd" clip-rule="evenodd" d="M23.17 13.08C23.17 12.8 21.1 11.71 20.68 11.57C20.3719 11.4658 20.0533 11.3954 19.73 11.36C19.3975 11.3274 19.0625 11.3274 18.73 11.36C18.0009 11.4545 17.2898 11.6567 16.62 11.96C16.5655 11.9738 16.5159 12.0027 16.477 12.0434C16.4381 12.0841 16.4114 12.1349 16.4 12.19C16.3263 12.2168 16.2641 12.2683 16.224 12.3357C16.1839 12.4032 16.1684 12.4824 16.18 12.56C16.18 13.05 16.34 14.99 16.34 15C16.43 15.45 16.57 15.87 16.62 16.31C16.6205 16.383 16.6426 16.4543 16.6835 16.5148C16.7245 16.5753 16.7824 16.6224 16.85 16.65C16.8795 16.6758 16.9134 16.6961 16.95 16.71C16.95 16.71 17 16.71 17.03 16.71C17.661 16.6845 18.2921 16.7587 18.9 16.93C19.3563 17.0617 19.8039 17.222 20.24 17.41C20.69 17.59 21.14 17.76 21.58 17.96C21.7133 18.0204 21.8626 18.0354 22.0053 18.0029C22.148 17.9704 22.276 17.8921 22.37 17.78C22.5271 17.5611 22.6612 17.3265 22.77 17.08C22.8882 16.777 22.9721 16.4617 23.02 16.14C23.0762 15.6922 23.103 15.2413 23.1 14.79L23.17 13.08ZM22.17 14.72C22.143 15.1203 22.0862 15.5181 22 15.91C21.9326 16.1403 21.8456 16.3645 21.74 16.58C21.51 16.48 21.27 16.39 21.03 16.31C20.6024 16.1716 20.1643 16.0679 19.72 16C18.9748 15.8801 18.2152 15.8801 17.47 16C17.5489 15.6384 17.5925 15.27 17.6 14.9C17.6199 14.6971 17.6199 14.4928 17.6 14.29C17.5766 14.0895 17.5331 13.8918 17.47 13.7C17.3341 13.3215 17.1772 12.951 17 12.59C17.6257 12.5401 18.2543 12.5401 18.88 12.59C19.3054 12.6047 19.7294 12.6448 20.15 12.71C20.8567 12.7684 21.5407 12.9873 22.15 13.35C22.223 13.3929 22.3054 13.4169 22.39 13.42L22.17 14.72Z" fill="black"/>
<path fill-rule="evenodd" clip-rule="evenodd" d="M8.77001 10.65C8.78388 10.608 8.78916 10.5636 8.78555 10.5196C8.78194 10.4755 8.7695 10.4326 8.74898 10.3934C8.72845 10.3542 8.70026 10.3196 8.66608 10.2915C8.6319 10.2634 8.59243 10.2425 8.55001 10.23C8.50893 10.2124 8.4647 10.2033 8.42001 10.2033C8.37531 10.2033 8.33109 10.2124 8.29001 10.23C7.66188 9.82458 6.99121 9.48925 6.29001 9.22999C5.55937 8.93538 4.78623 8.75982 4.00001 8.70999C3.58118 8.68258 3.16058 8.71286 2.75001 8.79999C2.39199 8.88042 2.06733 9.06892 1.82001 9.33999C1.72281 9.46466 1.65142 9.60743 1.61001 9.75999C1.56001 9.93999 1.55001 10.15 1.51001 10.32L1.21001 11.6C1.12001 11.93 0.990007 12.28 0.910007 12.6C0.840577 12.8846 0.810298 13.1772 0.820007 13.47C0.815574 13.6149 0.863773 13.7566 0.955691 13.8687C1.04761 13.9808 1.17703 14.0559 1.32001 14.08C1.45584 14.1013 1.59417 14.1013 1.73001 14.08C2.25001 14.08 3.47001 13.89 3.90001 13.92C4.33001 13.95 4.75001 13.92 5.16001 14.01C5.56841 14.0468 5.9731 14.117 6.37001 14.22C6.65502 14.3171 6.95032 14.3808 7.25001 14.41C7.42967 14.4253 7.60843 14.3717 7.75001 14.26C7.86118 14.1783 7.94768 14.0676 8.00001 13.94C8.06358 13.6727 8.11364 13.4023 8.15001 13.13L8.77001 10.65ZM7.28001 12.9C7.19001 13.18 7.45001 13.56 6.66001 13.29C6.3066 13.1703 5.94585 13.0734 5.58001 13C5.05859 12.8863 4.53105 12.8028 4.00001 12.75C3.40255 12.7434 2.80513 12.7668 2.21001 12.82C2.28001 12.52 2.38001 12.22 2.46001 11.94L2.73001 10.52C2.81001 9.94999 2.82001 9.93999 3.20001 9.85999C3.4624 9.80072 3.73107 9.77385 4.00001 9.77999C4.69872 9.7624 5.39533 9.86385 6.06001 10.08C6.73956 10.3119 7.39043 10.6205 8.00001 11L7.28001 12.9Z" fill="black"/>
<path fill-rule="evenodd" clip-rule="evenodd" d="M15.7 19.43C15.2013 19.239 14.6738 19.1342 14.14 19.12C14.0843 19.111 14.0272 19.1142 13.9728 19.1294C13.9184 19.1446 13.868 19.1714 13.825 19.208C13.7819 19.2447 13.7474 19.2902 13.7237 19.3414C13.7 19.3927 13.6878 19.4485 13.6878 19.505C13.6878 19.5615 13.7 19.6173 13.7237 19.6686C13.7474 19.7198 13.7819 19.7654 13.825 19.802C13.868 19.8386 13.9184 19.8654 13.9728 19.8806C14.0272 19.8958 14.0843 19.899 14.14 19.89C14.582 19.9348 15.0141 20.0495 15.42 20.23C15.8212 20.407 16.1897 20.6504 16.51 20.95C16.5989 21.0392 16.6702 21.1444 16.72 21.26C16.746 21.2946 16.76 21.3367 16.76 21.38C16.76 21.4233 16.746 21.4654 16.72 21.5C16.3192 21.8914 15.8226 22.1707 15.28 22.31C14.3994 22.5816 13.4815 22.7132 12.56 22.7C11.8875 22.7066 11.2165 22.6361 10.56 22.49C10.1407 22.4082 9.74248 22.2415 9.39001 22L9.05001 21.61C8.99314 21.5327 8.95303 21.4444 8.93224 21.3507C8.91144 21.257 8.91042 21.16 8.92925 21.0659C8.94807 20.9717 8.98632 20.8826 9.04155 20.8041C9.09678 20.7256 9.16778 20.6595 9.25001 20.61C9.94354 20.14 10.7532 19.8701 11.59 19.83C11.6802 19.83 11.7667 19.7942 11.8304 19.7304C11.8942 19.6667 11.93 19.5802 11.93 19.49C11.93 19.3998 11.8942 19.3134 11.8304 19.2496C11.7667 19.1858 11.6802 19.15 11.59 19.15C10.5826 19.125 9.5872 19.3739 8.71001 19.87C8.51901 19.9718 8.35081 20.1116 8.21572 20.2807C8.08063 20.4498 7.9815 20.6448 7.92439 20.8535C7.86728 21.0623 7.85339 21.2806 7.88359 21.4949C7.91379 21.7092 7.98744 21.9151 8.10001 22.1C8.16329 22.2343 8.24037 22.3617 8.33001 22.48C8.42299 22.6115 8.53031 22.7323 8.65001 22.84C9.08745 23.2181 9.6031 23.4947 10.16 23.65C10.9195 23.8553 11.7033 23.9562 12.49 23.95C13.557 23.9456 14.6155 23.7597 15.62 23.4C16.3518 23.1581 17.0024 22.7186 17.5 22.13C17.6122 21.9919 17.6921 21.8303 17.7336 21.6573C17.7751 21.4842 17.7773 21.304 17.74 21.13C17.6493 20.735 17.4272 20.3824 17.11 20.13C16.6859 19.8138 16.2083 19.5767 15.7 19.43Z" fill="black"/>
</g>
<defs>
<clipPath id="clip0_1049_8003">
<rect width="24" height="24" fill="white"/>
</clipPath>
</defs>
</svg>
