<svg width="24" height="24" viewBox="0 0 24 24" fill="none" xmlns="http://www.w3.org/2000/svg">
<path fill-rule="evenodd" clip-rule="evenodd" d="M17.73 20.63C17.6356 20.6257 17.5414 20.6412 17.4533 20.6754C17.3653 20.7095 17.2853 20.7617 17.2185 20.8285C17.1517 20.8953 17.0995 20.9753 17.0654 21.0633C17.0312 21.1514 17.0157 21.2456 17.02 21.34C17.02 21.67 17.34 21.92 17.81 21.94C17.9922 21.9395 18.1681 21.8736 18.3057 21.7543C18.4434 21.635 18.5336 21.4702 18.56 21.29C18.5326 21.0946 18.4312 20.9172 18.2767 20.7944C18.1223 20.6715 17.9266 20.6127 17.73 20.63Z" fill="black"/>
<path fill-rule="evenodd" clip-rule="evenodd" d="M14.56 20.63C14.4652 20.6242 14.3703 20.6385 14.2815 20.6721C14.1927 20.7057 14.1121 20.7578 14.045 20.825C13.9778 20.8921 13.9257 20.9727 13.8921 21.0615C13.8585 21.1503 13.8441 21.2452 13.85 21.34C13.85 21.67 14.17 21.92 14.63 21.94C14.7284 21.9551 14.829 21.948 14.9243 21.9193C15.0197 21.8906 15.1074 21.8411 15.1812 21.7742C15.255 21.7074 15.313 21.6249 15.3509 21.5328C15.3888 21.4408 15.4057 21.3414 15.4004 21.242C15.3951 21.1425 15.3677 21.0455 15.3202 20.958C15.2727 20.8705 15.2063 20.7947 15.1258 20.7361C15.0453 20.6775 14.9527 20.6375 14.8549 20.6192C14.757 20.6008 14.6563 20.6045 14.56 20.63Z" fill="black"/>
<path fill-rule="evenodd" clip-rule="evenodd" d="M6.72999 16.16C6.79925 16.2068 6.88406 16.2246 6.96628 16.2096C7.0485 16.1947 7.12162 16.1481 7.16999 16.08C7.47999 15.77 7.85999 15.52 8.16999 15.19C8.34999 15.01 8.51999 14.8 8.68999 14.61C8.93033 14.2932 9.18736 13.9895 9.45999 13.7C9.5369 13.6472 9.5903 13.5666 9.60896 13.4752C9.62761 13.3838 9.61006 13.2887 9.55999 13.21C9.53392 13.1717 9.50051 13.1389 9.46168 13.1136C9.42285 13.0883 9.37938 13.071 9.3338 13.0626C9.28821 13.0542 9.24142 13.055 9.19613 13.0648C9.15085 13.0747 9.10797 13.0934 9.06999 13.12C8.69451 13.3079 8.33644 13.5288 7.99999 13.78C7.85727 13.8928 7.72353 14.0165 7.59999 14.15C7.46448 14.2769 7.34674 14.4216 7.24999 14.58C7.02939 14.9459 6.84197 15.3307 6.68999 15.73C6.63943 15.7928 6.61533 15.8728 6.62279 15.9531C6.63026 16.0334 6.66871 16.1076 6.72999 16.16Z" fill="black"/>
<path fill-rule="evenodd" clip-rule="evenodd" d="M9.1 18.18C9.16844 18.2237 9.25095 18.2398 9.3308 18.2249C9.41064 18.2101 9.48186 18.1654 9.52999 18.1C9.84463 17.7485 10.1785 17.4146 10.53 17.1C10.8 16.84 11.08 16.61 11.36 16.35C11.64 16.09 11.9 15.85 12.15 15.58C12.96 14.78 13.75 13.96 14.57 13.23C14.61 13.2032 14.644 13.1685 14.6699 13.1279C14.6958 13.0874 14.7131 13.042 14.7207 12.9945C14.7283 12.947 14.726 12.8984 14.714 12.8518C14.7019 12.8052 14.6804 12.7616 14.6508 12.7237C14.6212 12.6858 14.5841 12.6544 14.5417 12.6315C14.4994 12.6086 14.4529 12.5947 14.4049 12.5906C14.357 12.5865 14.3087 12.5923 14.2631 12.6077C14.2176 12.6231 14.1756 12.6477 14.14 12.68C13.45 13.13 12.74 13.59 12.07 14.12C11.78 14.35 11.51 14.58 11.25 14.83C10.9789 15.0793 10.725 15.3465 10.49 15.63C9.9248 16.2859 9.42571 16.996 9 17.75C8.97804 17.7847 8.9632 17.8235 8.95635 17.8639C8.94949 17.9044 8.95075 17.9459 8.96005 17.9859C8.96936 18.0259 8.98652 18.0637 9.01054 18.097C9.03457 18.1303 9.06497 18.1585 9.1 18.18Z" fill="black"/>
<path fill-rule="evenodd" clip-rule="evenodd" d="M14.06 17.37C14.0226 17.4364 14.0111 17.5143 14.0275 17.5887C14.044 17.6632 14.0872 17.7289 14.1491 17.7735C14.211 17.818 14.287 17.8382 14.3628 17.8302C14.4386 17.8222 14.5088 17.7865 14.56 17.73C14.91 17.39 15.3 17.08 15.64 16.73C15.82 16.52 15.98 16.29 16.15 16.06C16.3778 15.7028 16.639 15.368 16.93 15.06C17.0037 15.0042 17.0531 14.9222 17.068 14.831C17.0829 14.7398 17.0621 14.6463 17.01 14.57C16.9832 14.5325 16.9492 14.5006 16.91 14.4762C16.8708 14.4519 16.8272 14.4355 16.7816 14.4281C16.7361 14.4206 16.6895 14.4223 16.6446 14.4329C16.5997 14.4435 16.5574 14.4629 16.52 14.49C16.0992 14.7005 15.7062 14.9625 15.35 15.27C15.2009 15.4009 15.0637 15.5448 14.94 15.7C14.8209 15.8479 14.7139 16.005 14.62 16.17C14.39 16.56 14.25 17 14.06 17.37Z" fill="black"/>
<path fill-rule="evenodd" clip-rule="evenodd" d="M21.74 19.62C21.66 19.25 21.02 16.57 20.87 15.79C20.7986 15.4519 20.7084 15.1181 20.6 14.79C20.3764 14.2494 20.1157 13.7248 19.82 13.22C19.36 12.5 18.82 11.84 18.32 11.15C18.7047 10.5103 19.039 9.84158 19.32 9.15C19.4604 8.77334 19.5805 8.38946 19.68 8C19.7791 7.63438 19.8592 7.26389 19.92 6.89C20.04 6.22 20.09 5.55 20.15 4.89C20.5223 4.27582 20.7766 3.59753 20.9 2.89C20.9257 2.61023 20.8702 2.32898 20.74 2.08C20.5474 1.76492 20.2655 1.51428 19.93 1.36C19.2957 1.05416 18.6229 0.835511 17.93 0.710001C16.6358 0.41305 15.3227 0.20589 14 0.0900009C12.6682 -0.000993349 11.3318 -0.000993349 9.99999 0.0900009C9.54999 0.0900009 9.08999 0.160001 8.62999 0.220001C8.16999 0.280001 7.72999 0.350001 7.27999 0.430001C6.36893 0.553771 5.4738 0.77504 4.60999 1.09C3.96526 1.31667 3.43198 1.78194 3.11999 2.39C3.04262 2.58416 3.00193 2.791 2.99999 3C2.99951 3.28362 3.03649 3.56607 3.10999 3.84C3.15307 4.01423 3.20992 4.18477 3.27999 4.35V4.41C3.25995 4.48196 3.25995 4.55804 3.27999 4.63C3.51999 5.51 3.71999 6.39 3.96999 7.27C4.07999 7.64 4.18999 8.01 4.30999 8.38C4.42999 8.75 4.57999 9.12 4.72999 9.47C5.03999 10.21 5.40999 10.91 5.72999 11.63C5.22999 12.28 4.72999 12.93 4.24999 13.63C4.03999 13.95 3.85999 14.27 3.67999 14.63C3.50297 14.9549 3.34276 15.2887 3.19999 15.63C2.87267 16.4682 2.62491 17.3354 2.45999 18.22C2.44969 18.2683 2.44971 18.3182 2.46005 18.3664C2.47039 18.4147 2.49082 18.4602 2.51999 18.5C2.51595 18.5514 2.5248 18.6031 2.54576 18.6502C2.56671 18.6974 2.5991 18.7385 2.63999 18.77C2.63999 18.9 2.52999 19.03 2.47999 19.17C2.37902 19.4265 2.29876 19.6907 2.23999 19.96C2.20131 20.1208 2.17787 20.2848 2.16999 20.45C2.15004 20.6194 2.15004 20.7906 2.16999 20.96C2.25022 21.4173 2.45235 21.8444 2.75507 22.1964C3.05778 22.5484 3.44988 22.8122 3.88999 22.96C5.04195 23.393 6.25181 23.6525 7.47999 23.73C9.17541 23.8829 10.8783 23.9363 12.58 23.89C14.288 23.8167 15.9871 23.6026 17.66 23.25C18.2 23.14 18.74 23.04 19.28 22.91C19.6492 22.8245 20.0132 22.7177 20.37 22.59C20.4139 22.5765 20.4547 22.5542 20.4898 22.5245C20.5249 22.4947 20.5536 22.4582 20.5741 22.4171C20.5947 22.3759 20.6067 22.3311 20.6094 22.2852C20.6122 22.2393 20.6056 22.1933 20.59 22.15C20.59 22.15 20.53 22.08 20.5 22.05C20.5825 22.0422 20.6599 22.007 20.72 21.95C21.1185 21.6473 21.4235 21.2383 21.6 20.77C21.6706 20.567 21.711 20.3547 21.72 20.14C21.7518 19.9685 21.7586 19.7934 21.74 19.62ZM3.79999 2.7C4.07598 2.27697 4.5068 1.97898 4.99999 1.87C5.81867 1.63466 6.66008 1.48716 7.50999 1.43L10.15 1.21C11.4189 1.13485 12.6911 1.13485 13.96 1.21C15.2372 1.27415 16.5095 1.4144 17.77 1.63C18.3132 1.71072 18.8485 1.83785 19.37 2.01C19.6546 2.08511 19.9094 2.24566 20.1 2.47C20.1796 2.63099 20.2042 2.81368 20.17 2.99C20.11 3.30145 20.0196 3.60625 19.9 3.9H19.83C19.51 3.68 19.1767 3.47 18.83 3.27C18.5596 3.16167 18.2823 3.07148 18 3C16.8062 2.59857 15.5663 2.34993 14.31 2.26C13.3808 2.20496 12.4492 2.20496 11.52 2.26C10.58 2.26 9.64999 2.39 8.75999 2.47C7.64422 2.54923 6.54766 2.80228 5.50999 3.22C4.86776 3.50618 4.33974 3.99901 4.00999 4.62C3.93897 4.49324 3.88196 4.35911 3.83999 4.22C3.7882 4.08441 3.75131 3.94358 3.72999 3.8C3.68872 3.61285 3.6686 3.42165 3.66999 3.23C3.66978 3.04541 3.71439 2.86354 3.79999 2.7ZM3.73999 17.12C3.95999 16.69 4.19999 16.27 4.42999 15.84C4.65999 15.41 4.88999 14.98 5.10999 14.55C5.50999 13.75 5.86999 12.94 6.24999 12.15H6.32999C6.36805 12.1357 6.40281 12.1139 6.43217 12.0858C6.46152 12.0576 6.48485 12.0239 6.50075 11.9864C6.51665 11.949 6.52478 11.9088 6.52465 11.8681C6.52452 11.8275 6.51613 11.7873 6.49999 11.75C6.24999 10.87 6.04999 10 5.79999 9.13C5.68999 8.76 5.56999 8.39 5.43999 8.03C5.30999 7.67 5.16999 7.3 4.99999 6.94C4.76999 6.36 4.51999 5.78 4.26999 5.2C4.31438 5.18446 4.35413 5.15799 4.38559 5.12304C4.41705 5.08809 4.4392 5.04577 4.44999 5C4.59322 4.72234 4.79106 4.47648 5.03163 4.27715C5.2722 4.07782 5.55055 3.92913 5.84999 3.84C6.82205 3.54566 7.83461 3.40728 8.85 3.43L11.58 3.33C12.47 3.33 13.36 3.28 14.26 3.33C15.4367 3.3459 16.6077 3.49689 17.75 3.78C17.9742 3.84237 18.1918 3.92608 18.4 4.03C18.74 4.19 19.06 4.38 19.4 4.56C19.16 5.56 18.86 6.56 18.57 7.56C18.46 7.93 18.36 8.3 18.26 8.67C18.16 9.04 18.09 9.42 17.99 9.79C17.89 10.16 17.71 10.7 17.54 11.15C17.5148 11.1077 17.4798 11.0721 17.4381 11.046C17.3964 11.0199 17.349 11.0042 17.3 11C15.9131 10.8351 14.5165 10.7649 13.12 10.79C12.3 10.79 11.47 10.85 10.64 10.91C9.40999 11.01 8.18999 11.18 6.95999 11.21C6.91928 11.2087 6.8787 11.2154 6.84058 11.2297C6.80246 11.2441 6.76754 11.2658 6.73782 11.2937C6.7081 11.3215 6.68416 11.355 6.66738 11.3921C6.65059 11.4292 6.64129 11.4693 6.63999 11.51C6.63725 11.551 6.64298 11.5922 6.65682 11.631C6.67067 11.6697 6.69233 11.7052 6.72047 11.7352C6.7486 11.7652 6.78261 11.7891 6.82037 11.8054C6.85814 11.8217 6.89886 11.8301 6.93999 11.83C8.32479 11.9802 9.71711 12.0504 11.11 12.04C11.93 12.04 12.75 11.96 13.58 11.9C14.81 11.81 16.03 11.69 17.26 11.7C17.3291 11.699 17.3964 11.6776 17.4533 11.6385C17.5103 11.5993 17.5543 11.5442 17.58 11.48C17.606 11.5344 17.6478 11.5797 17.7 11.61C17.7584 11.6298 17.8216 11.6298 17.88 11.61L19.51 15.16C19.6774 15.5521 19.8243 15.9526 19.95 16.36C20.14 16.97 20.3 17.59 20.5 18.21C18.5721 18.5761 16.6204 18.8034 14.66 18.89C13.76 18.89 12.86 18.94 11.95 18.94C11.04 18.94 10.15 18.94 9.24999 18.88C7.24106 18.8126 5.2377 18.629 3.24999 18.33C3.38999 17.92 3.54999 17.52 3.73999 17.12ZM20.6 20.34C20.6099 20.4698 20.6099 20.6002 20.6 20.73C20.5685 21.0253 20.4692 21.3093 20.31 21.56C20.2517 21.6244 20.2194 21.7081 20.2194 21.795C20.2194 21.8819 20.2517 21.9656 20.31 22.03C20.31 22.03 20.26 22.03 20.24 22.03C19.9121 22.1336 19.5781 22.2171 19.24 22.28L17.62 22.52C16.2942 22.7092 14.9587 22.8227 13.62 22.86C11.6182 22.921 9.61454 22.8609 7.61999 22.68C6.49211 22.679 5.37036 22.5139 4.28999 22.19C3.98029 22.1112 3.69732 21.951 3.47048 21.7259C3.24363 21.5008 3.08118 21.2191 2.99999 20.91C2.99047 20.7868 2.99047 20.6632 2.99999 20.54C2.99046 20.4068 2.99046 20.2732 2.99999 20.14C2.99999 19.9 3.09999 19.67 3.15999 19.44C3.21999 19.21 3.25999 19.15 3.30999 19.01C5.24449 19.479 7.20921 19.8132 9.18999 20.01C10.11 20.09 11.04 20.13 11.96 20.12C12.88 20.11 13.82 20.12 14.74 20C16.7364 19.809 18.7133 19.4511 20.65 18.93V19.72C20.65 19.99 20.62 20.14 20.6 20.34Z" fill="black"/>
<path fill-rule="evenodd" clip-rule="evenodd" d="M7.66999 10.58C7.68317 10.6177 7.704 10.6523 7.73116 10.6816C7.75833 10.7108 7.79126 10.7342 7.82787 10.7502C7.86449 10.7661 7.904 10.7743 7.94395 10.7743C7.98389 10.7743 8.0234 10.766 8.05999 10.75C8.09809 10.7356 8.13297 10.7138 8.16263 10.6859C8.1923 10.6579 8.21618 10.6245 8.23289 10.5873C8.24961 10.5502 8.25884 10.5101 8.26006 10.4694C8.26128 10.4286 8.25446 10.3881 8.23999 10.35C8.05999 9.67 7.92999 8.99 7.71999 8.35C7.59999 7.96 7.43999 7.58 7.28999 7.2C7.13999 6.82 6.92999 6.28 6.76999 5.81C7.0999 5.73935 7.43387 5.68925 7.76999 5.66H9.95999L13.51 5.45C13.9642 5.43981 14.4185 5.45986 14.87 5.51C15.44 5.57 16 5.67 16.56 5.76C16.4 6.19 16.23 6.6 16.08 7.03C16 7.26 15.93 7.49 15.87 7.73C15.81 7.97 15.76 8.21 15.71 8.45C15.61 9.03 15.55 9.61 15.49 10.19C15.4746 10.2365 15.4692 10.2857 15.474 10.3344C15.4788 10.3832 15.4939 10.4304 15.5181 10.4729C15.5423 10.5155 15.5752 10.5525 15.6146 10.5816C15.654 10.6106 15.6991 10.6311 15.7469 10.6417C15.7947 10.6522 15.8442 10.6526 15.8922 10.6428C15.9402 10.633 15.9856 10.6133 16.0255 10.5849C16.0654 10.5564 16.0988 10.5199 16.1237 10.4778C16.1486 10.4356 16.1644 10.3887 16.17 10.34C16.37 9.78 16.61 9.25 16.8 8.69C16.9323 8.31767 17.0392 7.9368 17.12 7.55C17.2212 6.93824 17.278 6.31996 17.29 5.7C17.3311 5.66151 17.3621 5.6134 17.38 5.56C17.3981 5.4713 17.3811 5.37904 17.3326 5.30259C17.2842 5.22614 17.2079 5.17145 17.12 5.15C16.42 4.95 15.73 4.76 15.02 4.6C14.5353 4.49259 14.0443 4.41577 13.55 4.37C13.0506 4.33494 12.5494 4.33494 12.05 4.37C11.32 4.37 10.59 4.52 9.87999 4.58C9.16999 4.64 8.39999 4.76 7.66999 4.91C5.99999 5.15 5.89999 5.26 5.99999 5.55C6.03611 6.18593 6.12305 6.81794 6.25999 7.44C6.32999 7.7 6.38999 7.96 6.47999 8.22L6.77999 8.96C6.99999 9.52 7.35999 10 7.66999 10.58Z" fill="black"/>
</svg>
