<svg width="24" height="24" viewBox="0 0 24 24" fill="none" xmlns="http://www.w3.org/2000/svg">
<g clip-path="url(#clip0_1046_5867)">
<path fill-rule="evenodd" clip-rule="evenodd" d="M23.26 13C22.8922 11.8623 22.3081 10.8063 21.54 9.89002C20.8167 8.98171 19.8863 8.25987 18.8268 7.7849C17.7672 7.30993 16.6094 7.09566 15.45 7.16002L15.33 3.70002C15.3406 3.17487 15.2835 2.65055 15.16 2.14002C15.0522 1.7523 14.8332 1.40466 14.53 1.14002C14.0469 0.733211 13.4691 0.454641 12.85 0.330018C12.0139 0.164223 11.1622 0.0904501 10.31 0.110018L6.48001 0.0500184C5.36159 -0.0342509 4.23842 -0.0342509 3.12001 0.0500184C2.54543 0.10935 1.99683 0.319821 1.53001 0.660018C0.994466 1.1766 0.643172 1.85459 0.530007 2.59002C0.29071 4.04715 0.226922 5.52771 0.340007 7.00002C0.340007 7.80002 0.400007 8.57002 0.410007 9.33002C0.410007 11.13 0.410007 12.88 0.460007 14.81C0.460007 15.99 0.460007 17.22 0.570007 18.44C0.620007 19.27 0.690007 20.09 0.810007 20.88C0.853261 21.2511 0.983606 21.6066 1.19041 21.9177C1.39722 22.2288 1.67462 22.4865 2.00001 22.67C2.89302 23.0868 3.87648 23.2725 4.86001 23.21H7.86001C9.01001 23.21 9.98001 23.21 10.86 23.15C11.802 23.1492 12.7433 23.0992 13.68 23C14.1757 22.9709 14.652 22.797 15.05 22.5C15.3832 22.1354 15.6082 21.6853 15.7 21.2C15.8051 20.7498 15.872 20.2915 15.9 19.83L16.25 20.02C16.3118 20.0683 16.3632 20.1287 16.401 20.1975C16.4388 20.2662 16.4623 20.3419 16.47 20.42C16.5403 20.79 16.5403 21.17 16.47 21.54C16.4301 22.1707 16.1922 22.7726 15.79 23.26C15.7565 23.2896 15.7292 23.3254 15.7095 23.3655C15.6899 23.4056 15.6784 23.4492 15.6756 23.4938C15.6728 23.5384 15.6788 23.5831 15.6933 23.6253C15.7078 23.6676 15.7305 23.7065 15.76 23.74C15.7896 23.7735 15.8254 23.8008 15.8655 23.8205C15.9056 23.8401 15.9492 23.8516 15.9938 23.8544C16.0384 23.8572 16.083 23.8512 16.1253 23.8367C16.1675 23.8222 16.2065 23.7996 16.24 23.77C16.8866 23.0663 17.2745 22.1635 17.34 21.21C17.4132 20.8497 17.3928 20.4767 17.2808 20.1266C17.1687 19.7764 16.9688 19.4609 16.7 19.21C15.6177 18.5912 14.5786 17.8996 13.59 17.14C12.96 16.61 12.41 16.08 12.37 15.5C12.22 14.12 12.83 13.42 13.71 13.38C14.265 13.39 14.8098 13.5311 15.2999 13.7917C15.79 14.0524 16.2115 14.4253 16.53 14.88C16.5475 14.924 16.5752 14.9631 16.6107 14.9943C16.6462 15.0255 16.6886 15.0479 16.7345 15.0596C16.7803 15.0713 16.8282 15.072 16.8744 15.0617C16.9205 15.0513 16.9636 15.0302 17 15C17.0331 14.979 17.0615 14.9513 17.0832 14.9187C17.105 14.8861 17.1196 14.8492 17.1262 14.8106C17.1328 14.7719 17.1312 14.7323 17.1215 14.6943C17.1119 14.6563 17.0943 14.6208 17.07 14.59C16.7138 14.0374 16.2474 13.5642 15.7 13.2L15.5 7.76002C16.5295 7.78393 17.5392 8.04767 18.4488 8.53027C19.3584 9.01287 20.143 9.70102 20.74 10.54C21.3789 11.3842 21.8692 12.3311 22.19 13.34C22.5174 14.3427 22.6597 15.3965 22.61 16.45C22.547 17.6433 22.3932 18.8301 22.15 20C21.9375 21.1914 21.6024 22.3576 21.15 23.48C21.1225 23.5209 21.1043 23.5673 21.0965 23.6159C21.0887 23.6646 21.0916 23.7143 21.105 23.7618C21.1183 23.8092 21.1418 23.8531 21.1739 23.8906C21.2059 23.928 21.2456 23.958 21.2904 23.9786C21.3352 23.9991 21.3839 24.0097 21.4332 24.0096C21.4824 24.0095 21.5311 23.9986 21.5757 23.9778C21.6204 23.957 21.66 23.9268 21.6918 23.8892C21.7236 23.8516 21.7469 23.8075 21.76 23.76C22.2921 22.6285 22.7076 21.4457 23 20.23C23.3127 19.0049 23.5333 17.7581 23.66 16.5C23.7524 15.3185 23.6166 14.1302 23.26 13ZM3.71001 1.13002C4.65001 1.05002 5.71001 1.13002 6.46001 1.13002H10.33C11.1128 1.09235 11.8973 1.13929 12.67 1.27002H12.82C12.8289 1.34643 12.8289 1.42361 12.82 1.50002C12.74 1.79002 12.59 2.10002 12.53 2.33002C12.4273 2.62537 12.2897 2.90737 12.12 3.17002C11.9997 3.38706 11.8626 3.59435 11.71 3.79002H11.51C11.16 3.79002 10.62 3.74002 10.03 3.70002L7.73001 3.55002C7.397 3.52916 7.06301 3.52916 6.73001 3.55002C6.41001 3.55002 6.10001 3.61002 5.79001 3.66002C5.46052 3.73094 5.1263 3.77773 4.79001 3.80002C4.62837 3.8085 4.46708 3.77761 4.32001 3.71002C4.1378 3.56723 3.99356 3.38177 3.90001 3.17002C3.56001 2.58002 3.22001 1.78002 2.90001 1.25002C3.16738 1.19395 3.43786 1.15388 3.71001 1.13002ZM12.84 12.65C11.89 12.98 11.19 13.92 11.27 15.6C11.3819 16.3804 11.777 17.0923 12.38 17.6C13.2503 18.353 14.211 18.9946 15.24 19.51C15.2038 20.0292 15.1235 20.5444 15 21.05C14.9288 21.4042 14.7629 21.7325 14.52 22C14.1094 22.2324 13.6412 22.3434 13.17 22.32C12.27 22.39 11.26 22.32 10.69 22.32H7.76001C6.89001 22.32 5.92001 22.32 4.83001 22.26C4.01469 22.3125 3.19936 22.1576 2.46001 21.81C2.26634 21.6911 2.10428 21.5272 1.98762 21.3322C1.87097 21.1372 1.80317 20.9169 1.79001 20.69C1.69001 19.92 1.63001 19.13 1.60001 18.33C1.55001 17.13 1.55001 15.91 1.55001 14.74V10.04C1.55001 9.04002 1.55001 7.97002 1.48001 6.89002C1.40215 5.71019 1.42556 4.52585 1.55001 3.35002C1.56467 2.67316 1.80785 2.02116 2.24001 1.50002L2.32001 1.45002C2.57001 2.01002 2.86001 2.88002 3.17001 3.52002C3.32109 3.89517 3.56966 4.22315 3.89001 4.47002C4.15938 4.63314 4.46541 4.72598 4.78001 4.74002C5.16124 4.74601 5.54237 4.72261 5.92001 4.67002H6.92001H7.58001C8.42001 4.67002 10.03 4.82002 11.02 4.79002C11.316 4.78757 11.611 4.75405 11.9 4.69002C12.0216 4.66293 12.1307 4.59607 12.21 4.50002C12.4288 4.18745 12.6132 3.85218 12.76 3.50002C12.9283 3.15953 13.0559 2.80039 13.14 2.43002C13.14 2.20002 13.29 1.89002 13.34 1.60002V1.40002C13.5399 1.47071 13.726 1.5756 13.89 1.71002C14.077 1.86889 14.2098 2.08212 14.27 2.32002C14.3854 2.75367 14.4392 3.20138 14.43 3.65002L14.97 12.8C14.3024 12.4905 13.5444 12.4371 12.84 12.65Z" fill="black"/>
<path fill-rule="evenodd" clip-rule="evenodd" d="M9.4 9.00002C9.21286 8.75306 9.00905 8.51919 8.79 8.30002C8.56768 8.0432 8.29986 7.82962 8 7.67002C7.80574 7.5827 7.59187 7.54821 7.38 7.57002C7.02034 7.62167 6.68155 7.77033 6.4 8.00002C5.93255 8.46169 5.49499 8.95269 5.09 9.47002L4 10.79C3.97156 10.8171 3.94892 10.8497 3.93345 10.8858C3.91798 10.9219 3.91 10.9607 3.91 11C3.91 11.0393 3.91798 11.0782 3.93345 11.1143C3.94892 11.1504 3.97156 11.1829 4 11.21C4.05608 11.265 4.13148 11.2958 4.21 11.2958C4.28853 11.2958 4.36392 11.265 4.42 11.21C4.60348 11.0166 4.79708 10.833 5 10.66C5.20113 10.4825 5.41141 10.3156 5.63 10.16C5.92 9.93002 6.39 9.49002 6.85 9.16002L7 9.00002C6.91642 9.39991 6.853 9.80376 6.81 10.21C6.75 10.72 6.71 11.21 6.69 11.75C6.67 12.29 6.69 12.75 6.69 13.25V15.92C6.70571 16.473 6.75917 17.0243 6.85 17.57C6.79321 17.5101 6.73312 17.4533 6.67 17.4C6.49 17.26 6.27 17.1 6.02 16.93C5.48 16.57 4.85 16.19 4.46 15.93C4.42849 15.9064 4.39262 15.8892 4.35446 15.8794C4.31629 15.8696 4.27658 15.8675 4.23758 15.873C4.19858 15.8786 4.16106 15.8918 4.12716 15.9119C4.09326 15.932 4.06364 15.9585 4.04 15.99C4.01637 16.0215 3.99917 16.0574 3.98939 16.0956C3.97961 16.1337 3.97745 16.1734 3.98302 16.2125C3.98859 16.2515 4.00179 16.289 4.02186 16.3229C4.04193 16.3568 4.06849 16.3864 4.1 16.41L6 18.22C6.16679 18.3721 6.34388 18.5124 6.53 18.64C6.66301 18.72 6.80829 18.7774 6.96 18.81C7.17312 18.8525 7.39427 18.8244 7.59 18.73C7.86499 18.5758 8.11458 18.3802 8.33 18.15C8.69 17.78 9.16 17.39 9.56 16.98C9.71921 16.7965 9.86619 16.6028 10 16.4C10.0502 16.3745 10.0932 16.3369 10.1253 16.2907C10.1574 16.2444 10.1775 16.1909 10.1838 16.135C10.1901 16.0791 10.1824 16.0225 10.1614 15.9702C10.1404 15.918 10.1068 15.8718 10.0636 15.8358C10.0203 15.7997 9.96881 15.775 9.91365 15.7638C9.8585 15.7526 9.80142 15.7552 9.74754 15.7715C9.69366 15.7878 9.64467 15.8172 9.60495 15.8571C9.56524 15.897 9.53605 15.9461 9.52 16C9.35591 16.1582 9.1786 16.3021 8.99 16.43C8.53 16.77 7.99 17.08 7.57 17.43C7.54971 17.097 7.54971 16.763 7.57 16.43C7.62 15.38 7.78 14.26 7.85 13.32V11.54C7.85 10.95 7.75 10.38 7.75 9.81002V8.88002L8.08 9.12002C8.35978 9.34134 8.62376 9.58192 8.87 9.84002C9.27 10.26 9.65 10.71 10.05 11.12C10.1137 11.1835 10.2 11.2192 10.29 11.2192C10.38 11.2192 10.4663 11.1835 10.53 11.12C10.5935 11.0563 10.6292 10.97 10.6292 10.88C10.6292 10.7901 10.5935 10.7038 10.53 10.64C10.18 10.08 9.82 9.50002 9.4 9.00002Z" fill="black"/>
</g>
<defs>
<clipPath id="clip0_1046_5867">
<rect width="24" height="24" fill="white"/>
</clipPath>
</defs>
</svg>
