<svg width="24" height="24" viewBox="0 0 24 24" fill="none" xmlns="http://www.w3.org/2000/svg">
<g clip-path="url(#clip0_1034_4609)">
<path d="M8.20001 4.94001C8.15225 4.74651 8.05188 4.57 7.91001 4.43001C7.64497 4.11118 7.33899 3.82874 7.00001 3.59001C7.17169 3.45041 7.3029 3.26742 7.38001 3.06001C7.47062 2.78905 7.48304 2.49804 7.41582 2.22035C7.34861 1.94267 7.2045 1.68954 7.00001 1.49001C6.81926 1.26925 6.58699 1.09632 6.32368 0.986456C6.06036 0.876595 5.77406 0.833171 5.49001 0.860011C5.07921 0.940256 4.71352 1.17184 4.46536 1.5089C4.21719 1.84595 4.10465 2.26391 4.15001 2.68001C4.19088 2.92026 4.28323 3.14883 4.42072 3.35004C4.55821 3.55126 4.7376 3.72035 4.94657 3.84574C5.15554 3.97112 5.38916 4.04983 5.63141 4.07645C5.87365 4.10308 6.11879 4.07701 6.35001 4.00001C6.60001 4.30001 7.17001 4.91001 7.25001 5.00001C7.52001 5.29001 8.40001 5.53001 8.20001 4.94001ZM6.59001 2.82001C6.55671 2.94187 6.49105 3.05244 6.40001 3.14001C6.29879 3.2735 6.15728 3.37085 5.99643 3.41766C5.83558 3.46447 5.66394 3.45825 5.5069 3.39992C5.34986 3.34159 5.21577 3.23425 5.12448 3.09379C5.03319 2.95333 4.98954 2.78721 5.00001 2.62001C5.00492 2.47247 5.05385 2.32977 5.1405 2.21026C5.22715 2.09074 5.34757 1.99988 5.48627 1.94934C5.62498 1.89881 5.77563 1.89091 5.91885 1.92667C6.06208 1.96243 6.19133 2.04021 6.29001 2.15001C6.39397 2.22594 6.47633 2.32769 6.52894 2.44519C6.58156 2.56269 6.6026 2.69189 6.59001 2.82001Z" fill="black"/>
<path d="M8.33 17.77C8.12 18.05 7.94 18.35 7.75 18.65C7.56 18.95 7.37 19.24 7.16 19.53C6.85484 19.3636 6.50403 19.3005 6.16 19.35C5.74892 19.4258 5.38193 19.6549 5.1332 19.9909C4.88447 20.3268 4.77253 20.7447 4.82 21.16C5.06 22.89 7.49 22.87 8.03 21.54C8.12657 21.2826 8.15245 21.004 8.10497 20.7332C8.05749 20.4624 7.93838 20.2092 7.76 20C8.10024 19.7364 8.40895 19.4344 8.68 19.1C8.90946 18.815 9.11357 18.5105 9.29 18.19C9.44 17.93 9.47001 17.85 9.60001 17.59C9.58747 17.5133 9.55722 17.4406 9.51168 17.3776C9.46613 17.3147 9.40654 17.2632 9.33763 17.2273C9.26871 17.1914 9.19237 17.172 9.11467 17.1708C9.03697 17.1695 8.96005 17.1864 8.89001 17.22C8.68879 17.3879 8.5015 17.5719 8.33 17.77ZM7.33 21.3C7.28652 21.4916 7.17321 21.6601 7.01219 21.7726C6.85117 21.8852 6.654 21.9337 6.45915 21.9087C6.26429 21.8837 6.08573 21.787 5.95831 21.6375C5.8309 21.488 5.76376 21.2964 5.77 21.1C5.78642 20.9656 5.83942 20.8382 5.92324 20.7318C6.00705 20.6254 6.11847 20.544 6.24534 20.4966C6.37221 20.4491 6.50967 20.4374 6.64274 20.4627C6.77582 20.488 6.89939 20.5493 7 20.64C7.10286 20.7141 7.184 20.8144 7.235 20.9305C7.286 21.0465 7.30499 21.1741 7.29 21.3H7.33Z" fill="black"/>
<path d="M17.68 6.70002C17.6647 6.35549 17.5868 6.01662 17.45 5.70002C17.3818 5.59147 17.2875 5.50168 17.1757 5.43881C17.0639 5.37595 16.9382 5.34199 16.81 5.34002C16.29 5.28002 16.33 5.09002 15.69 5.56002C15.4626 5.71158 15.2769 5.91791 15.15 6.16002C14.9459 6.23903 14.7289 6.27971 14.51 6.28002C14.3343 6.27875 14.1607 6.24131 14 6.17002C13.6765 5.95265 13.3952 5.67817 13.17 5.36002C12.9566 5.12535 12.6652 4.97611 12.35 4.94002C12.2207 4.92928 12.0906 4.946 11.9683 4.98908C11.8459 5.03217 11.7341 5.10065 11.64 5.19002C11.42 5.38002 11.22 5.81002 10.76 6.09002C10.5106 6.23502 10.2284 6.31417 9.94002 6.32002C9.60004 6.33674 9.26013 6.28575 8.94002 6.17002C8.54615 5.77133 8.01044 5.54482 7.45002 5.54002C7.32933 5.53415 7.21007 5.56818 7.11066 5.63687C7.01125 5.70555 6.93723 5.80506 6.90002 5.92002C6.74424 6.26148 6.64624 6.62645 6.61002 7.00002C6.57998 7.50958 6.57998 8.02046 6.61002 8.53002C6.61002 8.94002 6.69002 10.53 6.85002 12.16C6.91677 12.9776 7.0404 13.7896 7.22002 14.59C7.52399 15.3013 8.02765 15.9092 8.67002 16.34C9.63415 16.8353 10.6376 17.25 11.67 17.58C11.7061 17.5873 11.7433 17.5874 11.7795 17.5803C11.8156 17.5731 11.85 17.559 11.8807 17.5385C11.9113 17.5181 11.9377 17.4918 11.9581 17.4612C11.9786 17.4305 11.9929 17.3962 12 17.36C12.0072 17.3245 12.0072 17.2879 12 17.2524C11.9927 17.2169 11.9784 17.1832 11.9579 17.1533C11.9374 17.1235 11.9111 17.0981 11.8805 17.0786C11.8499 17.0591 11.8158 17.046 11.78 17.04C10.14 16.69 8.38002 15.68 7.91002 14.37C7.77647 13.6027 7.68965 12.8279 7.65002 12.05C7.55002 10.47 7.55002 8.86002 7.54002 8.46002C7.51011 7.99049 7.51011 7.51954 7.54002 7.05002C7.56204 6.85252 7.60563 6.65802 7.67002 6.47002C8.32922 6.93459 9.09749 7.22054 9.90002 7.30002C10.3753 7.32437 10.8484 7.22077 11.27 7.00002C11.6075 6.78193 11.9024 6.50404 12.14 6.18002C12.14 6.18002 12.21 6.06002 12.25 6.02002C12.386 6.11561 12.5044 6.23403 12.6 6.37002C12.8424 6.67818 13.1452 6.93343 13.49 7.12002C13.8001 7.27474 14.1436 7.35032 14.49 7.34002C14.9579 7.33879 15.4182 7.222 15.83 7.00002C16.0848 6.86184 16.3288 6.70473 16.56 6.53002C16.6364 6.7758 16.6965 7.02634 16.74 7.28002C16.74 7.82002 16.79 8.36002 16.79 8.54002C16.79 8.72002 16.79 10.49 16.65 12.15C16.59 13.05 16.52 13.93 16.43 14.49C16.0704 15.2072 15.5068 15.8022 14.81 16.2C14.0905 16.649 13.2878 16.9483 12.45 17.08C12.4086 17.0836 12.3684 17.0957 12.3319 17.1156C12.2954 17.1355 12.2635 17.1628 12.2381 17.1957C12.2127 17.2286 12.1944 17.2664 12.1844 17.3067C12.1745 17.3471 12.1729 17.3891 12.18 17.43C12.1849 17.4709 12.198 17.5103 12.2183 17.5461C12.2386 17.5819 12.2659 17.6132 12.2984 17.6384C12.331 17.6635 12.3683 17.6819 12.408 17.6925C12.4478 17.7031 12.4893 17.7056 12.53 17.7C13.4339 17.4751 14.317 17.174 15.17 16.8C16.0195 16.3454 16.7154 15.6495 17.17 14.8C17.1757 14.7703 17.1757 14.7398 17.17 14.71C17.28 14.14 17.38 13.22 17.47 12.26C17.62 10.57 17.72 8.78002 17.73 8.60002C17.74 8.42002 17.74 7.39002 17.68 6.70002Z" fill="black"/>
<path d="M18.3 20.65C18.1191 20.4204 17.883 20.2403 17.6137 20.1267C17.3444 20.013 17.0507 19.9694 16.76 20H16.66C16.52 19.65 16.4 19.3 16.26 18.94C16.2003 18.7724 16.1302 18.6088 16.05 18.45C15.97 18.29 15.89 18.13 15.8 17.97C15.6893 17.784 15.5692 17.6037 15.44 17.43C15.27 17.1 14.7 17.43 14.7 17.72C14.7413 17.9502 14.7981 18.1774 14.87 18.4C14.933 18.5743 15.0065 18.7446 15.09 18.91C15.177 19.0789 15.2738 19.2425 15.38 19.4C15.5863 19.7123 15.81 20.0128 16.05 20.3C15.8213 20.467 15.642 20.6927 15.5311 20.9532C15.4202 21.2137 15.3818 21.4994 15.42 21.78C15.63 23.39 17.54 23.29 18.24 22.69C18.4087 22.5476 18.5393 22.3655 18.62 22.16C18.7032 21.9023 18.7175 21.6273 18.6613 21.3623C18.6052 21.0974 18.4806 20.8518 18.3 20.65ZM17.86 22C17.8289 22.1257 17.763 22.24 17.67 22.33C17.5654 22.451 17.4262 22.5369 17.2711 22.5761C17.116 22.6153 16.9527 22.6059 16.8032 22.5491C16.6536 22.4924 16.5252 22.391 16.4352 22.2588C16.3452 22.1266 16.298 21.9699 16.3 21.81C16.3019 21.6307 16.3706 21.4586 16.4926 21.3273C16.6147 21.196 16.7814 21.1149 16.96 21.1C17.0751 21.0864 17.1918 21.1011 17.2998 21.143C17.4079 21.1848 17.5041 21.2524 17.58 21.34C17.6795 21.4166 17.7576 21.5177 17.8066 21.6333C17.8557 21.7489 17.8741 21.8752 17.86 22Z" fill="black"/>
<path d="M19.56 2.00002C19.3733 1.77312 19.1327 1.59659 18.8602 1.48654C18.5877 1.3765 18.292 1.33644 18 1.37002C17.5863 1.44589 17.2168 1.676 16.9662 2.01384C16.7156 2.35168 16.6026 2.77206 16.65 3.19002C16.6904 3.44737 16.7859 3.69296 16.93 3.91002C16.6994 4.04175 16.4847 4.19945 16.29 4.38002C16.1891 4.46071 16.1129 4.56812 16.07 4.69002C16.07 4.86002 16.4 5.14002 16.79 4.87002C16.97 4.70002 17.3 4.52002 17.45 4.35002C17.7781 4.4767 18.1325 4.52018 18.4814 4.47655C18.8304 4.43293 19.1632 4.30357 19.45 4.10002C19.6127 3.95438 19.7394 3.77295 19.82 3.57002C19.9248 3.30965 19.956 3.02546 19.9102 2.74855C19.8643 2.47164 19.7432 2.21268 19.56 2.00002ZM19.11 3.33002C19.0805 3.45117 19.0182 3.56187 18.93 3.65002C18.8264 3.77494 18.6863 3.86442 18.5294 3.90599C18.3725 3.94755 18.2066 3.93913 18.0547 3.88189C17.9028 3.82466 17.7725 3.72146 17.6821 3.58669C17.5916 3.45191 17.5454 3.29227 17.55 3.13002C17.5543 2.94984 17.6252 2.77763 17.7489 2.64655C17.8726 2.51547 18.0404 2.43478 18.22 2.42002C18.335 2.40725 18.4514 2.42239 18.5594 2.46417C18.6673 2.50595 18.7636 2.57313 18.84 2.66002C18.9393 2.73868 19.0164 2.84181 19.0637 2.95928C19.111 3.07675 19.127 3.20451 19.11 3.33002Z" fill="black"/>
<path d="M22.64 9.78002C22.351 9.74713 22.0585 9.78761 21.7893 9.89773C21.5201 10.0078 21.2831 10.184 21.1 10.41C20.952 10.5866 20.8399 10.7904 20.77 11.01C20.59 11.01 20.31 10.92 19.96 10.87H19.5C19.3535 10.8603 19.2065 10.8603 19.06 10.87C18.69 10.92 18.34 11.03 18.06 11.1C18.0195 11.0923 17.9778 11.0935 17.9378 11.1038C17.8979 11.114 17.8607 11.1329 17.8289 11.1592C17.7971 11.1855 17.7716 11.2185 17.754 11.2558C17.7364 11.2931 17.7273 11.3338 17.7273 11.375C17.7273 11.4163 17.7364 11.457 17.754 11.4943C17.7716 11.5316 17.7971 11.5646 17.8289 11.5908C17.8607 11.6171 17.8979 11.636 17.9378 11.6463C17.9778 11.6565 18.0195 11.6578 18.06 11.65C18.38 11.72 18.72 11.83 19.06 11.89C19.3557 11.9231 19.6543 11.9231 19.95 11.89L20.73 11.77C20.73 11.84 20.73 11.92 20.78 12C20.8645 12.2034 20.9945 12.3847 21.16 12.53C21.87 13.13 23.77 13.23 23.99 11.62C24.0429 11.1989 23.9324 10.7735 23.6813 10.4312C23.4302 10.089 23.0576 9.85598 22.64 9.78002ZM21.74 12.06C21.6431 11.9731 21.5765 11.8575 21.55 11.73C21.5306 11.6059 21.5456 11.4788 21.5931 11.3624C21.6407 11.2461 21.7192 11.145 21.82 11.07C21.8959 10.9825 21.9921 10.9148 22.1002 10.873C22.2083 10.8311 22.3249 10.8164 22.44 10.83C22.6196 10.8448 22.7874 10.9255 22.9111 11.0566C23.0348 11.1876 23.1057 11.3598 23.11 11.54C23.112 11.6999 23.0648 11.8566 22.9748 11.9888C22.8848 12.121 22.7564 12.2224 22.6069 12.2791C22.4573 12.3359 22.294 12.3453 22.1389 12.3061C21.9839 12.2669 21.8446 12.181 21.74 12.06Z" fill="black"/>
<path d="M6.39001 12.22C6.45543 12.2236 6.5199 12.2032 6.57142 12.1627C6.62293 12.1222 6.65798 12.0644 6.67001 12C6.67006 11.9275 6.64193 11.8577 6.59157 11.8055C6.5412 11.7533 6.47253 11.7226 6.40001 11.72C6.03001 11.65 5.64001 11.53 5.22001 11.47H4.71001H4.21001C3.81001 11.47 3.48001 11.56 3.27001 11.59C3.20558 11.326 3.08254 11.08 2.91001 10.87C2.72433 10.645 2.48507 10.4703 2.21422 10.362C1.94337 10.2537 1.64963 10.2152 1.36001 10.25C0.958552 10.325 0.598472 10.5444 0.347869 10.8669C0.0972653 11.1894 -0.0264881 11.5925 1.20713e-05 12C0.230012 13.62 2.12001 13.51 2.83001 12.92C2.99599 12.7712 3.12593 12.5865 3.21001 12.38C3.21001 12.38 3.21001 12.3 3.21001 12.25C3.52041 12.3194 3.83415 12.3728 4.15001 12.41C4.32319 12.4203 4.49683 12.4203 4.67001 12.41C4.83653 12.4199 5.00349 12.4199 5.17001 12.41C5.63001 12.39 6.00001 12.29 6.39001 12.22ZM2.46001 12.14C2.42671 12.2619 2.36106 12.3725 2.27001 12.46C2.16541 12.581 2.02615 12.6669 1.8711 12.7061C1.71604 12.7453 1.55268 12.7359 1.40316 12.6791C1.25363 12.6224 1.12517 12.521 1.03517 12.3888C0.94517 12.2566 0.897987 12.0999 0.900012 11.94C0.904924 11.7925 0.953851 11.6498 1.0405 11.5303C1.12716 11.4108 1.24758 11.3199 1.38628 11.2694C1.52498 11.2188 1.67563 11.2109 1.81886 11.2467C1.96208 11.2824 2.09134 11.3602 2.19001 11.47C2.28707 11.5505 2.36257 11.6539 2.4097 11.7709C2.45684 11.8879 2.47413 12.0147 2.46001 12.14Z" fill="black"/>
<path d="M12.25 15.73C12.3142 15.7556 12.3858 15.7556 12.45 15.73C13.1295 15.5051 13.751 15.1329 14.27 14.64C14.6422 14.2864 14.9088 13.8363 15.04 13.34C15.126 12.9738 15.1928 12.6033 15.24 12.23C15.3 11.69 15.34 11.14 15.39 10.61C15.4309 10.3084 15.451 10.0044 15.45 9.70002C15.4299 9.45705 15.3655 9.21982 15.26 9.00002C15.1508 8.82056 15.0055 8.66571 14.8334 8.54522C14.6613 8.42474 14.466 8.34125 14.26 8.30002C13.5563 8.20895 12.8438 8.20895 12.14 8.30002C11.68 8.30002 11.2 8.30002 10.73 8.36002C10.51 8.36002 10.29 8.36002 10.08 8.45002C9.87088 8.48823 9.6664 8.54857 9.47002 8.63002C9.28463 8.7117 9.12294 8.83899 9.00002 9.00002C8.88338 9.1968 8.80532 9.41401 8.77002 9.64002C8.72998 10.0424 8.72998 10.4477 8.77002 10.85L8.87002 12C8.89644 12.4116 8.96003 12.8199 9.06002 13.22C9.14741 13.5093 9.29766 13.7756 9.50002 14C9.77738 14.2936 10.0748 14.5676 10.39 14.82C10.855 15.1792 11.3391 15.513 11.84 15.82C11.87 15.8403 11.9038 15.8544 11.9394 15.8614C11.9749 15.8683 12.0115 15.8681 12.047 15.8606C12.0824 15.8532 12.116 15.8386 12.1458 15.8179C12.1755 15.7972 12.2007 15.7707 12.22 15.74C12.22 15.74 12.24 15.75 12.25 15.73ZM12.05 15.33C11.6194 15.0229 11.2086 14.6889 10.82 14.33C10.5417 14.0919 10.2872 13.8273 10.06 13.54C9.93962 13.3808 9.8575 13.1961 9.82002 13C9.7664 12.6323 9.73633 12.2616 9.73002 11.89V10.79V10.04C9.73266 9.86534 9.77724 9.69386 9.86002 9.54002L10.26 9.43002L10.8 9.36002H12.19C12.7236 9.28926 13.2618 9.25917 13.8 9.27002C14.05 9.27002 14.28 9.27002 14.39 9.48002C14.4593 9.61252 14.4938 9.76051 14.49 9.91002V10.56C14.49 11.1 14.49 11.64 14.42 12.18C14.42 12.52 14.36 12.87 14.3 13.18C14.1831 13.6384 13.924 14.0479 13.56 14.35C13.1801 14.6901 12.7435 14.9608 12.27 15.15C12.2216 15.1603 12.1764 15.182 12.1382 15.2133C12.0999 15.2446 12.0697 15.2846 12.05 15.33Z" fill="black"/>
</g>
<defs>
<clipPath id="clip0_1034_4609">
<rect width="24" height="24" fill="white"/>
</clipPath>
</defs>
</svg>
