<svg width="24" height="24" viewBox="0 0 24 24" fill="none" xmlns="http://www.w3.org/2000/svg">
<g clip-path="url(#clip0_1032_3419)">
<path d="M22.61 5.29003C22.9102 4.99386 23.1411 4.63497 23.2864 4.23907C23.4316 3.84317 23.4875 3.42006 23.45 3.00003C23.19 0.33003 19 1.00003 16.44 5.63003C16.3993 5.69777 16.387 5.77882 16.4057 5.85559C16.4244 5.93235 16.4727 5.99863 16.54 6.04003C16.5763 6.06666 16.6179 6.08506 16.662 6.09396C16.7062 6.10287 16.7517 6.10206 16.7955 6.09159C16.8392 6.08112 16.8802 6.06125 16.9155 6.03335C16.9508 6.00545 16.9797 5.97019 17 5.93003C17.8 4.66003 19.52 2.79003 21 2.50003C21.3986 2.35791 21.8373 2.37948 22.22 2.56003C22.66 2.89003 22.42 3.81003 22.1 4.27003L21.35 5.00003C21.28 5.12003 20.71 5.53003 21.05 6.00003C21.39 6.47003 22.05 6.00003 22.66 6.70003C23.75 7.91003 20.89 8.59003 20.97 9.40003C20.97 9.76003 21.4 9.82003 21.82 9.91003C23.54 10.23 21.2 13.06 18.52 13.39C18.4325 13.4025 18.353 13.4475 18.2973 13.5161C18.2417 13.5847 18.2141 13.6719 18.22 13.76C18.3 14.48 20.28 13.66 20.87 13.35C21.6019 12.9982 22.2525 12.4975 22.78 11.88C22.9546 11.6999 23.0908 11.4861 23.1802 11.2517C23.2697 11.0173 23.3105 10.7671 23.3002 10.5164C23.2899 10.2657 23.2287 10.0198 23.1204 9.79345C23.012 9.56715 22.8588 9.36525 22.67 9.20003C24.7 7.84003 24.17 5.90003 22.61 5.29003Z" fill="black"/>
<path d="M5.47998 13.08C4.77577 12.961 4.09848 12.7171 3.47998 12.36C2.79998 11.98 1.80998 11.22 1.63998 10.44C1.35998 9.08003 2.84998 10.09 2.99998 9.09003C3.00595 8.979 2.98335 8.8683 2.93432 8.7685C2.8853 8.66871 2.8115 8.58316 2.71998 8.52003C2.53998 8.39003 2.05998 8.11003 2.02998 8.09003C1.76712 7.92729 1.531 7.7249 1.32998 7.49003C1.2141 7.37095 1.13431 7.2215 1.09982 7.05897C1.06534 6.89643 1.07757 6.72746 1.13511 6.57159C1.19264 6.41572 1.29313 6.27932 1.42495 6.17817C1.55677 6.07702 1.71452 6.01526 1.87998 6.00003C2.09998 6.00003 2.64998 6.00003 2.99998 5.68003C3.62998 4.89003 1.75998 4.61003 1.62998 3.00003C1.60151 2.86731 1.60772 2.7295 1.64801 2.59989C1.6883 2.47027 1.7613 2.35322 1.85998 2.26003C2.0037 2.16021 2.175 2.10777 2.34998 2.11003C3.29318 2.15686 4.18939 2.53589 4.87998 3.18003C5.72651 3.88926 6.46142 4.72193 7.05998 5.65003C7.07953 5.68301 7.10543 5.71179 7.13617 5.7347C7.16692 5.75761 7.20191 5.7742 7.23911 5.7835C7.27631 5.7928 7.31498 5.79463 7.35289 5.78888C7.39081 5.78314 7.4272 5.76993 7.45998 5.75003C7.49414 5.73034 7.52408 5.70412 7.5481 5.67286C7.57212 5.6416 7.58974 5.6059 7.59996 5.56783C7.61017 5.52975 7.61278 5.49003 7.60764 5.45094C7.60249 5.41186 7.5897 5.37417 7.56998 5.34003C6.98646 4.31846 6.25144 3.39126 5.38998 2.59003C4.79147 2.01292 4.07012 1.57875 3.27998 1.32003C2.91332 1.211 2.53249 1.15707 2.14998 1.16003C1.8361 1.17684 1.53235 1.27694 1.26998 1.45003C1.06249 1.59807 0.890959 1.79087 0.76806 2.01417C0.645161 2.23746 0.574045 2.48553 0.559975 2.74003C0.524927 3.15534 0.582049 3.57328 0.727257 3.96396C0.872466 4.35464 1.10218 4.70842 1.39998 5.00003C1.05368 5.1346 0.744948 5.35071 0.499975 5.63003C0.196658 5.95832 0.0195049 6.38349 -2.47198e-05 6.83003C-0.010895 7.24886 0.115534 7.65975 0.359975 8.00003C0.633615 8.36036 0.972905 8.66572 1.35998 8.90003C1.12488 9.06344 0.943842 9.29322 0.839975 9.56003C0.736448 9.84834 0.712272 10.1592 0.769975 10.46C0.836698 10.8674 1.0091 11.2501 1.26998 11.57C1.79125 12.1629 2.42301 12.6486 3.12998 13C3.84317 13.3668 4.61462 13.6071 5.40998 13.71C5.49865 13.7185 5.5871 13.6918 5.65629 13.6357C5.72548 13.5795 5.7699 13.4985 5.77998 13.41C5.78032 13.3275 5.7497 13.2478 5.69416 13.1867C5.63862 13.1256 5.5622 13.0875 5.47998 13.08Z" fill="black"/>
<path d="M8.38995 17.37C8.31203 17.3672 8.23608 17.3949 8.17821 17.4472C8.12034 17.4994 8.0851 17.5722 8.07995 17.65C7.95995 18.21 7.80995 18.75 7.70995 19.31C7.66193 19.5477 7.62853 19.7882 7.60995 20.03C7.60995 20.27 7.60995 20.51 7.55995 20.75V22.45C7.55061 22.5364 7.57473 22.6232 7.62736 22.6924C7.67998 22.7616 7.75711 22.808 7.8429 22.822C7.92869 22.8361 8.01661 22.8168 8.0886 22.7681C8.16059 22.7193 8.21117 22.6449 8.22995 22.56C8.37995 21.99 8.53995 21.45 8.65995 20.88C8.70995 20.64 8.74995 20.4 8.77995 20.15C8.79477 19.9069 8.79477 19.6631 8.77995 19.42C8.77995 18.83 8.70995 18.27 8.65995 17.68C8.66267 17.6419 8.65784 17.6036 8.64572 17.5674C8.63361 17.5312 8.61446 17.4977 8.58937 17.4689C8.56428 17.4401 8.53375 17.4165 8.49953 17.3996C8.46531 17.3826 8.42807 17.3725 8.38995 17.37Z" fill="black"/>
<path d="M12.1099 17.1C12.1166 17.0205 12.0913 16.9415 12.0398 16.8806C11.9882 16.8196 11.9145 16.7817 11.8349 16.775C11.7554 16.7684 11.6764 16.7936 11.6155 16.8452C11.5545 16.8968 11.5166 16.9705 11.5099 17.05C11.3623 17.6901 11.2785 18.3434 11.2599 19C11.2667 19.3745 11.2934 19.7484 11.3399 20.12C11.4101 20.657 11.4402 21.1985 11.4299 21.74C11.4121 21.8275 11.4294 21.9184 11.478 21.9933C11.5267 22.0681 11.6028 22.1208 11.6899 22.14C11.7785 22.155 11.8695 22.1352 11.9439 22.085C12.0184 22.0347 12.0707 21.9578 12.0899 21.87C12.2964 21.2229 12.4076 20.5492 12.4199 19.87C12.4299 19.4857 12.4098 19.1012 12.3599 18.72C12.2899 18.19 12.1399 17.66 12.1099 17.1Z" fill="black"/>
<path d="M15.91 19.21C15.8 18.74 15.64 18.31 15.51 17.85C15.5 17.7721 15.4598 17.7012 15.3981 17.6526C15.3364 17.604 15.2581 17.5815 15.18 17.59C15.1418 17.5938 15.1048 17.605 15.071 17.6232C15.0372 17.6413 15.0074 17.666 14.9832 17.6958C14.959 17.7255 14.941 17.7598 14.9301 17.7966C14.9193 17.8333 14.9158 17.8719 14.92 17.91C14.8684 18.385 14.8417 18.8623 14.84 19.34C14.853 19.7411 14.9066 20.1398 15 20.53C15.1 20.99 15.23 21.43 15.34 21.89C15.3476 21.9785 15.3896 22.0604 15.4568 22.1183C15.5241 22.1763 15.6114 22.2056 15.7 22.2C15.7447 22.1962 15.7882 22.1837 15.828 22.163C15.8679 22.1423 15.9032 22.114 15.932 22.0796C15.9608 22.0452 15.9826 22.0054 15.9959 21.9626C16.0093 21.9198 16.0141 21.8747 16.01 21.83C16.0349 21.3537 16.0349 20.8764 16.01 20.4C16.025 20.2003 16.025 19.9997 16.01 19.8C15.9921 19.601 15.9586 19.4038 15.91 19.21Z" fill="black"/>
<path d="M16.81 7.55004C16.5708 7.42832 16.3081 7.36008 16.04 7.35004C14.5813 7.26052 13.1186 7.26052 11.66 7.35004C10.126 7.38337 8.60165 7.60162 7.11995 8.00004C6.81995 8.14004 6.38995 8.41004 6.38995 9.76004C6.39437 11.4305 6.48783 13.0995 6.66995 14.76C6.69168 14.9255 6.7687 15.0788 6.88851 15.195C7.00832 15.3111 7.16389 15.3834 7.32995 15.4C8.46995 15.4 12.4 15.29 14.77 15.17C15.55 15.17 16.17 15.1 16.46 15.07C16.5957 15.0583 16.7281 15.021 16.85 14.96C17.0439 14.7641 17.161 14.5051 17.18 14.23C17.3434 13.0169 17.4236 11.7941 17.42 10.57C17.4333 9.81884 17.3696 9.06826 17.23 8.33004C17.1735 8.03304 17.0268 7.76066 16.81 7.55004ZM15.81 8.46004C15.913 8.44865 16.0169 8.44865 16.12 8.46004C15.52 8.78004 14.23 9.46004 13.07 10L11.84 10.56C11.38 10.76 11.29 10.85 10.77 10.56C10.25 10.27 9.76995 9.97004 9.25995 9.56004C8.74995 9.15004 8.29995 9.00004 7.91995 8.67004C8.54304 8.5752 9.1705 8.51179 9.79995 8.48004C11.7846 8.35844 13.7746 8.35176 15.76 8.46004H15.81ZM16.18 14C16.18 14.08 16.07 14.09 15.99 14.1C14.99 14.17 12.93 14.37 10.99 14.5C8.54995 14.66 7.61995 14.7 7.33995 14.71C7.32681 14.7114 7.31352 14.7102 7.30086 14.7064C7.2882 14.7026 7.27641 14.6964 7.26618 14.688C7.25595 14.6796 7.24748 14.6693 7.24127 14.6576C7.23505 14.646 7.2312 14.6332 7.22995 14.62C7.14854 13.8127 7.11514 13.0013 7.12995 12.19C7.12995 11.05 7.12995 9.80004 7.22995 9.10004C7.9185 9.79204 8.64995 10.44 9.41995 11.04C9.89992 11.4559 10.4621 11.766 11.07 11.95C11.7559 11.8635 12.4146 11.628 13 11.26C14.1049 10.6078 15.1763 9.90025 16.21 9.14004C16.21 9.38004 16.26 9.65004 16.28 9.95004C16.3386 11.3007 16.3052 12.6539 16.18 14Z" fill="black"/>
</g>
<defs>
<clipPath id="clip0_1032_3419">
<rect width="24" height="24" fill="white"/>
</clipPath>
</defs>
</svg>
