<svg width="24" height="24" viewBox="0 0 24 24" fill="none" xmlns="http://www.w3.org/2000/svg">
<g clip-path="url(#clip0_1031_3170)">
<path fill-rule="evenodd" clip-rule="evenodd" d="M18.7 11.3C17.5008 9.39987 15.6179 8.0325 13.44 7.48001C13.3 7.48001 13.15 7.48001 13.01 7.43001C12.4015 7.21337 11.7532 7.13148 11.11 7.19001C10.8015 7.22867 10.4992 7.30594 10.21 7.42001H10.07C8.95127 7.66267 7.90182 8.15493 6.99999 8.86001C6.49087 9.24525 6.02184 9.68078 5.59999 10.16C5.3369 10.5033 5.13401 10.8888 4.99999 11.3C4.96994 11.3737 4.96756 11.4558 4.99329 11.5312C5.01902 11.6065 5.07112 11.6701 5.13999 11.71C5.13999 11.71 5.13999 11.79 5.13999 11.83C6.32287 13.7326 8.19776 15.102 10.37 15.65C11.466 15.9214 12.6095 15.939 13.7134 15.7016C14.8173 15.4642 15.8524 14.978 16.74 14.28C17.2388 13.8971 17.7008 13.4686 18.12 13C18.405 12.658 18.6344 12.2733 18.8 11.86C18.8198 11.8079 18.8247 11.7512 18.8141 11.6965C18.8035 11.6417 18.7778 11.591 18.74 11.55C18.7534 11.4645 18.7394 11.377 18.7 11.3ZM12.24 14.57C11.8041 14.5652 11.3694 14.5251 10.94 14.45C10.7529 14.4044 10.5717 14.3373 10.4 14.25C9.79244 13.8407 9.3358 13.2436 9.09999 12.55C8.81038 11.6763 8.87869 10.7235 9.28999 9.90001C9.54334 9.37377 9.96588 8.94772 10.49 8.69001C11.2363 8.58507 11.9937 8.58507 12.74 8.69001C13.2341 8.89336 13.6671 9.22137 13.9966 9.64201C14.3261 10.0627 14.5409 10.5616 14.62 11.09C14.698 11.4753 14.6979 11.8722 14.6197 12.2575C14.5416 12.6427 14.387 13.0083 14.1651 13.3328C13.9433 13.6572 13.6586 13.9339 13.3279 14.1464C12.9972 14.3589 12.6273 14.5029 12.24 14.57ZM5.74999 11.4C5.89389 11.1549 6.06497 10.9268 6.25999 10.72C6.68836 10.3406 7.15407 10.0055 7.64999 9.72001C7.83714 9.61144 8.03085 9.51458 8.22999 9.43001C7.98755 9.99036 7.86247 10.5944 7.86247 11.205C7.86247 11.8156 7.98755 12.4196 8.22999 12.98C8.37737 13.269 8.55147 13.5435 8.74999 13.8C7.56235 13.2678 6.52988 12.4419 5.74999 11.4ZM16.16 13.48C15.6877 13.7514 15.1883 13.9726 14.67 14.14C15.061 13.7084 15.3531 13.1967 15.5258 12.6405C15.6986 12.0843 15.7478 11.4972 15.67 10.92C15.6106 10.4112 15.4617 9.91689 15.23 9.46001C16.3322 9.98502 17.2975 10.7586 18.05 11.72C17.9053 11.9845 17.7234 12.227 17.51 12.44C17.0983 12.8338 16.6457 13.1824 16.16 13.48Z" fill="black"/>
<path fill-rule="evenodd" clip-rule="evenodd" d="M11.65 3.15001C11.59 3.40335 11.54 3.66335 11.5 3.93001C11.4754 4.20614 11.4754 4.48389 11.5 4.76001C11.5363 5.23792 11.6234 5.7106 11.76 6.17001C11.7625 6.20419 11.7718 6.23754 11.7872 6.26813C11.8027 6.29871 11.8241 6.32594 11.8501 6.34825C11.8761 6.37055 11.9063 6.38749 11.9389 6.39809C11.9715 6.40869 12.0058 6.41274 12.04 6.41001C12.0747 6.40888 12.1087 6.40054 12.14 6.38554C12.1713 6.37053 12.1991 6.34918 12.2216 6.32285C12.2442 6.29651 12.261 6.26577 12.2711 6.23257C12.2811 6.19937 12.2842 6.16445 12.28 6.13001C12.28 5.73001 12.42 5.35001 12.47 4.96001V4.45001V3.94001C12.47 3.77001 12.42 3.39001 12.39 3.11001H12.46C12.679 3.06426 12.8803 2.95668 13.04 2.80001C13.2451 2.59632 13.3821 2.33413 13.4323 2.04944C13.4824 1.76475 13.4432 1.47152 13.32 1.21001C13.2187 0.954179 13.0623 0.723841 12.8618 0.535428C12.6612 0.347016 12.4216 0.205172 12.16 0.120015C11.7621 -0.00746715 11.33 0.0257805 10.9563 0.21265C10.5826 0.399519 10.2968 0.725181 10.16 1.12001C9.79999 2.59001 11.6 3.15001 11.65 3.15001ZM11.92 1.15001C12.045 1.18516 12.1608 1.24724 12.2593 1.33189C12.3577 1.41653 12.4365 1.5217 12.49 1.64001C12.5584 1.74209 12.5948 1.86217 12.5948 1.98501C12.5948 2.10786 12.5584 2.22794 12.49 2.33001C12.3526 2.44329 12.1875 2.51784 12.0117 2.54596C11.8359 2.57409 11.6558 2.55478 11.49 2.49001C11.3916 2.45738 11.3007 2.40545 11.2225 2.33725C11.1444 2.26906 11.0807 2.18598 11.0351 2.09287C10.9895 1.99976 10.9628 1.89849 10.9568 1.79498C10.9508 1.69146 10.9655 1.58779 11 1.49001C11.075 1.32022 11.2119 1.18538 11.3828 1.11293C11.5537 1.04049 11.7458 1.03587 11.92 1.10001V1.15001Z" fill="black"/>
<path fill-rule="evenodd" clip-rule="evenodd" d="M20.51 4.55002C20.29 4.76002 20.07 4.97002 19.87 5.20002C19.6549 5.43236 19.4608 5.68335 19.29 5.95002C19.0283 6.42797 18.814 6.93036 18.65 7.45002C18.6309 7.484 18.6189 7.52148 18.6146 7.56022C18.6103 7.59897 18.6138 7.63818 18.625 7.67552C18.6362 7.71286 18.6548 7.74756 18.6798 7.77754C18.7047 7.80752 18.7354 7.83217 18.77 7.85002C18.8034 7.86951 18.8403 7.88214 18.8787 7.88715C18.917 7.89217 18.9559 7.88947 18.9932 7.87922C19.0305 7.86898 19.0653 7.85138 19.0957 7.82748C19.126 7.80357 19.1513 7.77384 19.17 7.74002C19.47 7.38002 19.79 7.09002 20.09 6.74002C20.22 6.59002 20.33 6.44002 20.44 6.29002C20.5559 6.1329 20.6628 5.9693 20.76 5.80002C20.92 5.53002 21.07 5.24002 21.21 4.96002H21.29C21.5264 5.04725 21.7815 5.07138 22.03 5.03002C22.3528 4.96585 22.6479 4.80371 22.8752 4.5657C23.1025 4.3277 23.2508 4.0254 23.3 3.70002C23.3606 3.40526 23.3572 3.10092 23.2899 2.80762C23.2226 2.51431 23.093 2.23889 22.91 2.00002C22.6072 1.63269 22.1719 1.39943 21.6984 1.35077C21.2249 1.3021 20.7512 1.44195 20.38 1.74002C19.12 2.85002 20.46 4.51002 20.51 4.55002ZM22.07 2.78002C22.1646 2.89219 22.2334 3.0238 22.2714 3.16551C22.3094 3.30723 22.3158 3.45557 22.29 3.60002C22.2957 3.74102 22.2587 3.88044 22.1837 4.00001C22.1088 4.11957 21.9994 4.21369 21.87 4.27002C21.6582 4.29066 21.4448 4.25315 21.2528 4.16153C21.0607 4.0699 20.8973 3.92763 20.78 3.75002C20.7085 3.65403 20.6572 3.54444 20.6295 3.42797C20.6017 3.3115 20.598 3.19058 20.6186 3.07263C20.6392 2.95468 20.6837 2.84217 20.7492 2.74199C20.8148 2.64182 20.9002 2.55607 21 2.49002C21.1828 2.39797 21.3931 2.37666 21.5905 2.43019C21.788 2.48371 21.9588 2.60829 22.07 2.78002Z" fill="black"/>
<path fill-rule="evenodd" clip-rule="evenodd" d="M3.49002 4.55002C3.71002 4.76002 3.93002 4.97002 4.13002 5.20002C4.33375 5.44987 4.51449 5.71763 4.67002 6.00002C4.93172 6.47797 5.14608 6.98036 5.31002 7.50002C5.32913 7.534 5.34119 7.57148 5.34549 7.61022C5.34979 7.64897 5.34623 7.68818 5.33503 7.72552C5.32382 7.76286 5.30521 7.79756 5.28029 7.82754C5.25538 7.85752 5.22467 7.88217 5.19002 7.90002C5.15664 7.91951 5.11971 7.93214 5.08139 7.93715C5.04306 7.94217 5.00413 7.93947 4.96686 7.92922C4.92959 7.91898 4.89475 7.90138 4.86438 7.87748C4.83401 7.85357 4.80873 7.82384 4.79002 7.79002C4.49002 7.43002 4.17002 7.14002 3.87002 6.79002C3.74002 6.64002 3.63002 6.49002 3.52002 6.34002C3.40413 6.1829 3.29729 6.0193 3.20002 5.85002C3.00002 5.57002 2.89002 5.28002 2.75002 5.00002H2.67002C2.43362 5.08725 2.17857 5.11138 1.93002 5.07002C1.61283 5.00838 1.32173 4.85216 1.09504 4.6219C0.868349 4.39163 0.716688 4.09813 0.660016 3.78002C0.592626 3.47011 0.596305 3.14896 0.670778 2.84068C0.745251 2.5324 0.888583 2.24499 1.09002 2.00002C1.3928 1.63269 1.82811 1.39943 2.30165 1.35077C2.7752 1.3021 3.24885 1.44195 3.62002 1.74002C4.88002 2.85002 3.54002 4.51002 3.49002 4.55002ZM1.93002 2.78002C1.83543 2.89219 1.76669 3.0238 1.72867 3.16551C1.69065 3.30723 1.68428 3.45557 1.71002 3.60002C1.70433 3.74102 1.7414 3.88044 1.81635 4.00001C1.8913 4.11957 2.00063 4.21369 2.13002 4.27002C2.34181 4.29066 2.55523 4.25315 2.74729 4.16153C2.93936 4.0699 3.1028 3.92763 3.22002 3.75002C3.29159 3.65403 3.34282 3.54444 3.37057 3.42797C3.39833 3.3115 3.40202 3.19058 3.38143 3.07263C3.36083 2.95468 3.31638 2.84217 3.2508 2.74199C3.18522 2.64182 3.09988 2.55607 3.00002 2.49002C2.81728 2.39797 2.60699 2.37666 2.4095 2.43019C2.21202 2.48371 2.04126 2.60829 1.93002 2.78002Z" fill="black"/>
<path fill-rule="evenodd" clip-rule="evenodd" d="M11.65 20.85C11.59 20.6034 11.54 20.3434 11.5 20.07C11.4754 19.7939 11.4754 19.5161 11.5 19.24C11.5363 18.7621 11.6234 18.2894 11.76 17.83C11.7625 17.7958 11.7718 17.7625 11.7873 17.7319C11.8027 17.7013 11.8241 17.6741 11.8501 17.6518C11.8761 17.6295 11.9063 17.6126 11.9389 17.602C11.9715 17.5914 12.0058 17.5873 12.04 17.59C12.0747 17.5912 12.1087 17.5995 12.14 17.6145C12.1713 17.6295 12.1991 17.6509 12.2216 17.6772C12.2442 17.7035 12.2611 17.7343 12.2711 17.7675C12.2812 17.8007 12.2842 17.8356 12.28 17.87C12.28 18.27 12.42 18.65 12.47 19.04V19.55V20.06C12.47 20.23 12.42 20.61 12.39 20.89H12.46C12.679 20.9358 12.8803 21.0434 13.04 21.2C13.2451 21.4037 13.3821 21.6659 13.4323 21.9506C13.4824 22.2353 13.4432 22.5285 13.32 22.79C13.2167 23.048 13.0571 23.2796 12.853 23.4682C12.6489 23.6567 12.4053 23.7974 12.14 23.88C11.7421 24.0075 11.3101 23.9743 10.9363 23.7874C10.5626 23.6005 10.2768 23.2749 10.14 22.88C9.8 21.41 11.6 20.85 11.65 20.85ZM11.92 22.85C12.045 22.8149 12.1608 22.7528 12.2593 22.6682C12.3577 22.5835 12.4365 22.4783 12.49 22.36C12.5584 22.258 12.5949 22.1379 12.5949 22.015C12.5949 21.8922 12.5584 21.7721 12.49 21.67C12.3527 21.5568 12.1876 21.4822 12.0118 21.4541C11.836 21.426 11.6558 21.4453 11.49 21.51C11.3916 21.5427 11.3007 21.5946 11.2226 21.6628C11.1444 21.731 11.0807 21.8141 11.0351 21.9072C10.9895 22.0003 10.9629 22.1016 10.9568 22.2051C10.9508 22.3086 10.9655 22.4123 11 22.51C11.075 22.6798 11.2119 22.8147 11.3828 22.8871C11.5537 22.9596 11.7458 22.9642 11.92 22.9V22.85Z" fill="black"/>
<path fill-rule="evenodd" clip-rule="evenodd" d="M20.51 19.45C20.29 19.24 20.07 19.03 19.87 18.8C19.6549 18.5677 19.4608 18.3167 19.29 18.05C19.0283 17.5721 18.814 17.0697 18.65 16.55C18.6309 16.516 18.6189 16.4786 18.6146 16.4398C18.6103 16.4011 18.6138 16.3619 18.625 16.3245C18.6362 16.2872 18.6548 16.2525 18.6798 16.2225C18.7047 16.1925 18.7354 16.1679 18.77 16.15C18.8034 16.1305 18.8403 16.1179 18.8787 16.1129C18.917 16.1079 18.9559 16.1106 18.9932 16.1208C19.0305 16.1311 19.0653 16.1487 19.0957 16.1726C19.126 16.1965 19.1513 16.2262 19.17 16.26C19.47 16.62 19.79 16.91 20.09 17.26C20.22 17.41 20.33 17.56 20.44 17.71C20.5559 17.8672 20.6628 18.0308 20.76 18.2C20.92 18.47 21.07 18.76 21.21 19.04H21.29C21.5264 18.9528 21.7815 18.9287 22.03 18.97C22.3528 19.0342 22.6479 19.1963 22.8752 19.4343C23.1025 19.6723 23.2508 19.9746 23.3 20.3C23.3606 20.5948 23.3572 20.8991 23.2899 21.1924C23.2226 21.4857 23.093 21.7612 22.91 22C22.6072 22.3674 22.1719 22.6006 21.6984 22.6493C21.2249 22.6979 20.7512 22.5581 20.38 22.26C19.12 21.15 20.46 19.49 20.51 19.45ZM22.07 21.22C22.1646 21.1079 22.2334 20.9762 22.2714 20.8345C22.3094 20.6928 22.3158 20.5445 22.29 20.4C22.2957 20.259 22.2587 20.1196 22.1837 20C22.1088 19.8805 21.9994 19.7864 21.87 19.73C21.6582 19.7094 21.4448 19.7469 21.2528 19.8385C21.0607 19.9301 20.8973 20.0724 20.78 20.25C20.7085 20.346 20.6572 20.4556 20.6295 20.5721C20.6017 20.6886 20.598 20.8095 20.6186 20.9274C20.6392 21.0454 20.6837 21.1579 20.7492 21.2581C20.8148 21.3582 20.9002 21.444 21 21.51C21.1828 21.6021 21.3931 21.6234 21.5905 21.5699C21.788 21.5163 21.9588 21.3918 22.07 21.22Z" fill="black"/>
<path fill-rule="evenodd" clip-rule="evenodd" d="M3.49002 19.45C3.71002 19.24 3.93002 19.03 4.13002 18.8C4.33375 18.5502 4.51449 18.2824 4.67002 18C4.93172 17.5221 5.14608 17.0197 5.31002 16.5C5.32913 16.466 5.34119 16.4286 5.34549 16.3898C5.34979 16.3511 5.34623 16.3118 5.33503 16.2745C5.32382 16.2372 5.30521 16.2025 5.28029 16.1725C5.25538 16.1425 5.22467 16.1179 5.19002 16.1C5.15664 16.0805 5.11971 16.0679 5.08139 16.0629C5.04306 16.0579 5.00413 16.0606 4.96686 16.0708C4.92959 16.0811 4.89475 16.0986 4.86438 16.1226C4.83401 16.1465 4.80873 16.1762 4.79002 16.21C4.49002 16.57 4.17002 16.86 3.87002 17.21C3.74002 17.36 3.63002 17.51 3.52002 17.66C3.40413 17.8171 3.29729 17.9807 3.20002 18.15C3.04002 18.42 2.89002 18.71 2.75002 18.99H2.67002C2.43362 18.9028 2.17857 18.8787 1.93002 18.92C1.61145 18.9823 1.31936 19.14 1.09252 19.3722C0.865692 19.6044 0.714847 19.9001 0.660016 20.22C0.592626 20.5299 0.596305 20.8511 0.670778 21.1593C0.745251 21.4676 0.888583 21.755 1.09002 22C1.3928 22.3673 1.82811 22.6006 2.30165 22.6493C2.7752 22.6979 3.24885 22.5581 3.62002 22.26C4.88002 21.15 3.54002 19.49 3.49002 19.45ZM1.93002 21.22C1.83543 21.1078 1.76669 20.9762 1.72867 20.8345C1.69065 20.6928 1.68428 20.5445 1.71002 20.4C1.70433 20.259 1.7414 20.1196 1.81635 20C1.8913 19.8805 2.00063 19.7863 2.13002 19.73C2.34181 19.7094 2.55523 19.7469 2.74729 19.8385C2.93936 19.9301 3.1028 20.0724 3.22002 20.25C3.29159 20.346 3.34282 20.4556 3.37057 20.5721C3.39833 20.6885 3.40202 20.8094 3.38143 20.9274C3.36083 21.0454 3.31638 21.1579 3.2508 21.258C3.18522 21.3582 3.09988 21.444 3.00002 21.51C2.81728 21.6021 2.60699 21.6234 2.4095 21.5698C2.21202 21.5163 2.04126 21.3917 1.93002 21.22Z" fill="black"/>
</g>
<defs>
<clipPath id="clip0_1031_3170">
<rect width="24" height="24" fill="white"/>
</clipPath>
</defs>
</svg>
