<svg width="24" height="24" viewBox="0 0 24 24" fill="none" xmlns="http://www.w3.org/2000/svg">
<g clip-path="url(#clip0_1031_3179)">
<path fill-rule="evenodd" clip-rule="evenodd" d="M22.75 19.42C22.58 19.07 22.4 18.73 22.22 18.42C22.0347 18.0955 21.8169 17.7906 21.57 17.51C21.3642 17.3007 21.1241 17.1282 20.86 17C20.3535 16.7529 19.775 16.6961 19.23 16.84C19.2338 16.7734 19.2338 16.7066 19.23 16.64C19.23 16.55 19.18 16.46 19.14 16.37C19.0925 16.2895 19.039 16.2126 18.98 16.14C20.2149 15.4632 21.2365 14.4555 21.93 13.23C22.5133 12.2105 22.7845 11.0422 22.71 9.86999C22.619 8.69978 22.2263 7.57314 21.57 6.59999C21.5451 6.55658 21.5119 6.5185 21.4723 6.48795C21.4327 6.45741 21.3874 6.43498 21.3391 6.42198C21.2908 6.40897 21.2404 6.40563 21.1908 6.41215C21.1412 6.41868 21.0933 6.43493 21.05 6.45999C20.9633 6.51378 20.9012 6.59939 20.8769 6.69846C20.8526 6.79754 20.8681 6.9022 20.92 6.98999C21.4476 7.86283 21.7532 8.85168 21.81 9.86999C21.8137 10.8773 21.5329 11.8652 21 12.72C20.3907 13.6751 19.5694 14.477 18.6 15.0632C17.6305 15.6494 16.5389 16.0042 15.41 16.1C14.3063 16.2771 13.1767 16.1999 12.1074 15.874C11.0382 15.5482 10.0574 14.9825 9.24002 14.22C8.47314 13.4884 7.91787 12.5635 7.63275 11.5427C7.34763 10.5219 7.34323 9.44307 7.62002 8.41999C7.89688 7.37436 8.3981 6.40156 9.08886 5.5692C9.77962 4.73683 10.6434 4.06486 11.62 3.59999C12.7214 3.08633 13.9408 2.87906 15.15 2.99999C16.3586 3.10734 17.5225 3.50904 18.54 4.16999C18.6136 4.20311 18.6966 4.20895 18.7742 4.18648C18.8517 4.16401 18.9187 4.1147 18.9632 4.04735C19.0077 3.98 19.0268 3.89902 19.017 3.81889C19.0073 3.73876 18.9694 3.66471 18.91 3.60999C17.8158 2.8503 16.5525 2.36968 15.23 2.20999C13.8715 2.0318 12.49 2.22175 11.23 2.75999C10.0977 3.25237 9.08681 3.98634 8.26803 4.9105C7.44924 5.83465 6.84241 6.92665 6.49002 8.10999C6.13349 9.33635 6.11927 10.6369 6.44889 11.8708C6.77851 13.1046 7.43941 14.2248 8.36002 15.11C9.32201 15.9982 10.4749 16.6539 11.7301 17.0266C12.9852 17.3994 14.3092 17.4792 15.6 17.26C16.3736 17.1352 17.1291 16.9169 17.85 16.61V16.66C17.8788 16.753 17.9156 16.8433 17.96 16.93C18.0074 17.0193 18.0644 17.1031 18.13 17.18C18.1919 17.2451 18.2587 17.3053 18.33 17.36C18.0775 17.5916 17.8752 17.8727 17.7359 18.1858C17.5966 18.4989 17.5231 18.8373 17.52 19.18C17.5313 19.5552 17.6234 19.9236 17.79 20.26C18.0001 20.6698 18.2443 21.0612 18.52 21.43L20.08 23.8C20.1264 23.8756 20.201 23.9296 20.2872 23.9503C20.3735 23.9709 20.4644 23.9564 20.54 23.91C20.6156 23.8636 20.6697 23.789 20.6903 23.7028C20.7109 23.6165 20.6964 23.5256 20.65 23.45L19.38 20.93C19.1753 20.5775 18.9982 20.2097 18.85 19.83C18.7797 19.6312 18.7491 19.4206 18.76 19.21C18.767 19.0162 18.8162 18.8263 18.9043 18.6535C18.9924 18.4808 19.1173 18.3294 19.27 18.21C19.428 18.1043 19.611 18.0422 19.8006 18.0299C19.9902 18.0177 20.1798 18.0556 20.35 18.14C20.5318 18.2097 20.6958 18.319 20.83 18.46C20.9962 18.6331 21.1467 18.8205 21.28 19.02C21.57 19.42 21.82 19.83 22.06 20.24C22.44 20.88 22.8 21.54 23.17 22.18C23.2188 22.2691 23.3004 22.3358 23.3975 22.3656C23.4946 22.3955 23.5996 22.3863 23.69 22.34C23.7348 22.3178 23.7746 22.2868 23.8071 22.2489C23.8395 22.2109 23.864 22.1668 23.8789 22.1191C23.8939 22.0715 23.899 22.0213 23.894 21.9716C23.8891 21.9219 23.8741 21.8737 23.85 21.83C23.47 21 23.13 20.2 22.75 19.42Z" fill="black"/>
<path fill-rule="evenodd" clip-rule="evenodd" d="M7.24999 15.12L6.51999 16.65C6.25822 16.9625 6.02401 17.2971 5.81999 17.65C5.73999 17.54 5.66999 17.43 5.63999 17.4C5.29999 17.13 4.98999 16.85 4.63999 16.56C4.33258 16.2809 4.04207 15.9837 3.76999 15.67C3.69999 15.59 3.37999 15.15 3.09999 14.83C3.29332 14.6747 3.45609 14.4848 3.57999 14.27C3.64906 14.0867 3.6774 13.8905 3.66303 13.6951C3.64866 13.4997 3.59193 13.3097 3.49678 13.1385C3.40162 12.9672 3.27033 12.8187 3.11202 12.7032C2.9537 12.5878 2.77216 12.5082 2.57999 12.47C2.37517 12.4415 2.16662 12.4571 1.96833 12.5158C1.77004 12.5745 1.5866 12.675 1.43033 12.8104C1.27405 12.9458 1.14856 13.1131 1.06226 13.3011C0.975964 13.489 0.930865 13.6932 0.929989 13.9C0.954353 14.1157 1.03448 14.3214 1.16248 14.4967C1.29049 14.6721 1.46195 14.8111 1.65999 14.9C1.50999 15.24 1.36999 15.8 1.31999 15.9L-1.07922e-05 19.52C-0.0245903 19.5637 -0.0388977 19.6124 -0.0418474 19.6624C-0.0447971 19.7125 -0.0363116 19.7625 -0.0170348 19.8088C0.00224204 19.855 0.0318037 19.8963 0.069407 19.9294C0.10701 19.9626 0.151667 19.9867 0.199989 20C0.239971 20.0182 0.283187 20.0283 0.327104 20.0296C0.371021 20.0309 0.414753 20.0234 0.455736 20.0075C0.496719 19.9917 0.534127 19.9678 0.565767 19.9374C0.597407 19.9069 0.622641 19.8704 0.639989 19.83L2.35999 16.43C2.35999 16.38 2.41999 16.15 2.47999 15.93C2.64999 16.2 2.79999 16.54 2.83999 16.59C3.14497 16.9505 3.47946 17.285 3.83999 17.59C4.18837 17.8889 4.5522 18.1693 4.92999 18.43L5.29999 18.73C5.11707 18.9493 5.01473 19.2245 5.00999 19.51C5.04687 19.8424 5.20494 20.1495 5.45397 20.3728C5.70301 20.596 6.02556 20.7196 6.35999 20.72C6.6257 20.7206 6.88594 20.6445 7.10945 20.5008C7.33296 20.3572 7.51024 20.152 7.61999 19.91C7.72769 19.5976 7.71335 19.256 7.57982 18.9537C7.4463 18.6514 7.20347 18.4108 6.89999 18.28C7.0854 17.8645 7.24242 17.4368 7.36999 17L7.93999 15.47C7.98104 15.377 7.98414 15.2716 7.94865 15.1764C7.91316 15.0811 7.84188 15.0035 7.74999 14.96C7.70669 14.9375 7.65936 14.9238 7.61074 14.9197C7.56212 14.9156 7.51317 14.9211 7.4667 14.936C7.42023 14.9508 7.37715 14.9748 7.33996 15.0063C7.30277 15.0379 7.27219 15.0766 7.24999 15.12Z" fill="black"/>
<path fill-rule="evenodd" clip-rule="evenodd" d="M20.51 3.5C20.5599 3.50427 20.6101 3.50427 20.66 3.5C20.04 4.42 19.4 5.33 18.75 6.22C18.1 7.11 17.24 8.22 16.46 9.22L15.2 10.78L15.11 10.85L14.25 10.11C14.03 9.92 13.82 9.74 13.59 9.56C13.08 9.16 12.59 8.79 12.03 8.41L11.91 8.32C12.0574 8.19262 12.1854 8.04439 12.29 7.88C12.3574 7.69917 12.3844 7.50575 12.369 7.31337C12.3536 7.12098 12.2963 6.93431 12.2009 6.7665C12.1056 6.5987 11.9746 6.45384 11.8172 6.34214C11.6598 6.23044 11.4798 6.15461 11.29 6.12C11.0924 6.09031 10.8909 6.10263 10.6984 6.15616C10.506 6.20968 10.327 6.3032 10.1732 6.43061C10.0193 6.55802 9.89411 6.71645 9.80568 6.89555C9.71724 7.07465 9.66759 7.2704 9.65996 7.47C9.6766 7.68012 9.74695 7.88244 9.86428 8.05756C9.9816 8.23267 10.142 8.37469 10.33 8.47C10.28 8.56 10.23 8.63 10.18 8.73C9.91996 9.3 9.71996 10.05 9.59996 10.37L8.80996 12.11C8.78623 12.1869 8.79058 12.2698 8.82223 12.3439C8.85389 12.4179 8.91079 12.4783 8.98281 12.5143C9.05483 12.5503 9.13729 12.5596 9.21552 12.5405C9.29374 12.5214 9.36264 12.4751 9.40996 12.41L10.33 10.7C10.46 10.44 10.68 9.86 10.93 9.36C10.98 9.27 11.02 9.18 11.07 9.1L11.36 9.27L13.36 11.04L14.44 11.98C14.2124 12.2046 14.0829 12.5102 14.08 12.83C14.1219 13.1586 14.2841 13.4601 14.5353 13.6762C14.7864 13.8922 15.1087 14.0076 15.44 14C15.6989 13.9991 15.9522 13.9243 16.1701 13.7843C16.388 13.6444 16.5614 13.4451 16.67 13.21C16.7669 12.9295 16.7641 12.6241 16.6621 12.3454C16.5601 12.0667 16.3651 11.8317 16.11 11.68L16.17 11.6L17.45 10C18.17 9 18.88 7.92 19.56 6.86C20.24 5.8 20.84 4.86 21.44 3.8L21.6 3.85C21.9295 3.95184 22.2811 3.95798 22.6139 3.86768C22.9468 3.77739 23.2471 3.59439 23.48 3.34C23.666 3.15215 23.8089 2.92602 23.8987 2.67734C23.9885 2.42865 24.0231 2.16339 24 1.9C23.9531 1.42865 23.7405 0.98924 23.4 0.659997C23.0693 0.321753 22.644 0.0916411 22.18 -2.8098e-06C21.813 -0.0388614 21.442 0.00671445 21.0954 0.133239C20.7487 0.259764 20.4356 0.463887 20.18 0.729997C19.8985 0.995804 19.7155 1.34926 19.661 1.73255C19.6066 2.11583 19.6837 2.50627 19.88 2.84C20.0169 3.1197 20.2369 3.35022 20.51 3.5ZM21 1.65C21.1297 1.5208 21.2872 1.42299 21.4605 1.36406C21.6339 1.30513 21.8184 1.28663 22 1.31C22.2169 1.33352 22.4221 1.42048 22.59 1.56C22.759 1.6831 22.8822 1.85904 22.94 2.06C22.962 2.17761 22.96 2.29844 22.9342 2.41528C22.9085 2.53211 22.8594 2.64255 22.79 2.74C22.73 2.82 22.18 3.59 21.08 2.88C20.9254 2.78088 20.8036 2.63822 20.73 2.47C20.6865 2.32206 20.689 2.1644 20.7372 2.01794C20.7855 1.87148 20.8771 1.74315 21 1.65Z" fill="black"/>
</g>
<defs>
<clipPath id="clip0_1031_3179">
<rect width="24" height="24" fill="white"/>
</clipPath>
</defs>
</svg>
