<svg width="24" height="24" viewBox="0 0 24 24" fill="none" xmlns="http://www.w3.org/2000/svg">
<g clip-path="url(#clip0_1034_4635)">
<path fill-rule="evenodd" clip-rule="evenodd" d="M12.276 15.591C11.999 14.928 10.159 15.536 9.402 17.296C8.96785 18.262 8.82776 19.3345 8.99919 20.3796C9.17062 21.4248 9.64599 22.3963 10.366 23.173C10.7463 23.4484 11.186 23.6304 11.6496 23.7044C12.1132 23.7783 12.5878 23.7421 13.0348 23.5987C13.4819 23.4553 13.8889 23.2087 14.223 22.8789C14.5571 22.549 14.8089 22.1452 14.958 21.7C15.1701 20.7781 15.1963 19.8231 15.0351 18.891C14.8738 17.9588 14.5284 17.0681 14.019 16.271C13.604 15.812 12.665 15.282 12.276 15.591ZM12.14 16.086C11.7309 16.161 11.352 16.352 11.0483 16.6362C10.7446 16.9204 10.529 17.2858 10.427 17.689C10.1553 18.423 10.0794 19.2151 10.2069 19.9873C10.3343 20.7596 10.6608 21.4853 11.154 22.093C11.3681 22.2431 11.6141 22.3415 11.8727 22.3805C12.1313 22.4194 12.3954 22.3978 12.6442 22.3173C12.893 22.2369 13.1198 22.0998 13.3066 21.9168C13.4935 21.7339 13.6353 21.5101 13.721 21.263C14.052 20.38 14.096 16.771 12.458 16.357C12.3861 16.343 12.3191 16.3108 12.2634 16.2633C12.2077 16.2158 12.1652 16.1547 12.14 16.086Z" fill="black"/>
<path fill-rule="evenodd" clip-rule="evenodd" d="M13.019 0.337009C12.819 -0.120991 11.588 -0.0529909 10.941 0.191009C9.34905 1.16215 8.09056 2.59504 7.333 4.29901C4.141 10.206 3.553 13.517 10.079 14.033C12.563 14.21 15.059 13.955 17.456 13.279C18.0294 13.1074 18.5199 12.7313 18.8342 12.2219C19.1485 11.7125 19.2648 11.1055 19.161 10.516C18.929 8.66801 14.624 -0.527991 13.019 0.337009ZM12.819 0.873009C12.7334 0.915405 12.6354 0.925352 12.543 0.901009C9.386 0.250009 6.274 9.22001 6.32 10.718C6.402 13.547 15.078 12.823 16.949 12.06C17.639 11.784 17.963 11.464 17.879 10.651C17.4711 9.10492 16.9163 7.6014 16.222 6.16101C13.502 0.142009 13.063 1.52601 12.82 0.874009L12.819 0.873009Z" fill="black"/>
<path fill-rule="evenodd" clip-rule="evenodd" d="M12.46 9.17899C12.21 8.47699 9.974 9.00699 10.546 10.712C10.6331 10.9754 10.7976 11.2066 11.0179 11.3752C11.2383 11.5438 11.5044 11.6422 11.7814 11.6574C12.0585 11.6726 12.3337 11.604 12.5713 11.4605C12.8088 11.317 12.9976 11.1053 13.113 10.853C13.519 9.87799 12.875 9.18699 12.461 9.17899H12.46Z" fill="black"/>
<path fill-rule="evenodd" clip-rule="evenodd" d="M12.339 8.04901C13.516 2.61701 10.339 -0.240989 11.51 8.01901C11.5061 8.07454 11.5135 8.13027 11.5316 8.18289C11.5497 8.23552 11.5783 8.28396 11.6155 8.32534C11.6527 8.36672 11.6979 8.40018 11.7483 8.42375C11.7987 8.44731 11.8534 8.46049 11.909 8.46251C11.9646 8.46452 12.0201 8.45532 12.0721 8.43546C12.1241 8.41561 12.1715 8.38549 12.2117 8.34691C12.2518 8.30834 12.2837 8.26208 12.3056 8.2109C12.3275 8.15972 12.3388 8.10467 12.339 8.04901Z" fill="black"/>
<path fill-rule="evenodd" clip-rule="evenodd" d="M19.918 21.432C20.161 23.472 20.148 24.052 20.672 23.997C21.197 23.941 21.001 23.582 20.948 21.289C21.778 21.156 22.706 21.181 22.64 20.595C22.573 20.01 21.827 20.239 20.93 20.297C20.888 18.034 20.896 18.087 20.783 16.058C20.617 13.55 15.445 19.393 16.103 20.802C16.553 21.728 18.885 21.546 19.918 21.432ZM19.796 20.355C19.686 19.25 19.647 18.62 19.559 17.429C18.8561 18.0959 18.2533 18.8608 17.769 19.7C17.309 20.595 17.279 20.214 18.045 20.294C18.626 20.354 19.212 20.372 19.796 20.347V20.355Z" fill="black"/>
<path fill-rule="evenodd" clip-rule="evenodd" d="M5.351 21.07C5.572 22.952 5.556 23.833 6.122 23.78C6.689 23.728 6.448 23.303 6.399 20.999C7.277 20.929 8.159 20.977 8.092 20.379C8.034 19.866 7.54 20.026 6.379 20.012C6.341 17.829 6.343 17.846 6.236 15.842C6.22815 15.7261 6.19014 15.6144 6.12575 15.5177C6.06135 15.4211 5.97281 15.343 5.86891 15.2911C5.765 15.2393 5.64935 15.2155 5.53342 15.2221C5.41748 15.2288 5.3053 15.2656 5.208 15.329C3.66487 16.7774 2.37177 18.4709 1.381 20.341C1.35431 20.4388 1.35016 20.5413 1.36889 20.6409C1.38762 20.7405 1.42873 20.8345 1.48912 20.9159C1.5495 20.9973 1.62758 21.0639 1.71747 21.1107C1.80736 21.1575 1.9067 21.1832 2.008 21.186C2.008 21.186 3.732 21.159 5.351 21.07ZM5.233 19.993C5.136 18.984 5.113 18.611 5.02 17.346C4.32872 18.1711 3.68309 19.0334 3.086 19.929C3.688 19.951 4.467 19.976 5.233 19.993Z" fill="black"/>
</g>
<defs>
<clipPath id="clip0_1034_4635">
<rect width="24" height="24" fill="white"/>
</clipPath>
</defs>
</svg>
