<svg width="24" height="24" viewBox="0 0 24 24" fill="none" xmlns="http://www.w3.org/2000/svg">
<g clip-path="url(#clip0_1044_5416)">
<path fill-rule="evenodd" clip-rule="evenodd" d="M22.26 4.82999C22.0193 4.66624 21.7303 4.5887 21.44 4.60999C19.7237 4.68189 18.0136 4.86225 16.32 5.14999C16.2829 5.17577 16.2525 5.21016 16.2316 5.25021C16.2106 5.29026 16.1997 5.33479 16.1997 5.37999C16.1997 5.42519 16.2106 5.46972 16.2316 5.50978C16.2525 5.54983 16.2829 5.58421 16.32 5.60999C16.48 5.73999 16.15 5.60999 18.56 5.52999C18.4482 5.8246 18.402 6.14002 18.4244 6.45432C18.4469 6.76862 18.5375 7.07426 18.69 7.34999C18.709 7.42483 18.7545 7.49026 18.818 7.53421C18.8815 7.57816 18.9587 7.59767 19.0355 7.58915C19.1122 7.58062 19.1833 7.54463 19.2356 7.48781C19.2879 7.43099 19.3179 7.35718 19.32 7.27999C19.41 6.57999 19.66 6.38999 19.32 5.49999H20.97C21.69 5.49999 21.68 5.26999 21.78 6.20999C21.8513 7.0418 21.8513 7.87819 21.78 8.70999C21.67 9.27999 21.47 9.34999 21.19 9.41999C20.7734 9.49547 20.3527 9.54556 19.93 9.56999C19.13 9.70999 16.8 10.12 16.24 9.30999C16.0253 8.96596 15.8983 8.57453 15.87 8.16999C15.67 6.61999 16.22 5.64999 15.87 5.45999C15.73 5.37999 15.47 5.38999 15.36 5.71999C15.25 6.04999 15.24 6.57999 15.21 6.71999C15.0078 7.73377 15.1375 8.78573 15.58 9.71999C16.35 10.97 18.75 10.72 20.12 10.56C20.86 10.46 22.01 10.56 22.55 9.70999C22.8647 9.09331 22.9932 8.39843 22.92 7.70999C22.83 6.90999 22.79 5.40999 22.26 4.82999Z" fill="black"/>
<path fill-rule="evenodd" clip-rule="evenodd" d="M15.61 4.48001C15.61 1.48001 19.18 0.110005 20.69 1.79001C21.1226 2.25423 21.3898 2.84833 21.45 3.48001C21.45 3.56487 21.4837 3.64627 21.5437 3.70628C21.6037 3.76629 21.6851 3.80001 21.77 3.80001C21.8549 3.80001 21.9363 3.76629 21.9963 3.70628C22.0563 3.64627 22.09 3.56487 22.09 3.48001C22.125 2.65278 21.8552 1.84148 21.3317 1.20001C20.8082 0.558549 20.0674 0.131543 19.25 5.49108e-06C18.3808 -0.0738417 17.5122 0.148915 16.7858 0.631965C16.0594 1.11502 15.5181 1.82987 15.25 2.66001C15.062 3.24714 14.994 3.86607 15.05 4.48001C15.05 4.55427 15.0795 4.62549 15.132 4.678C15.1845 4.73051 15.2557 4.76001 15.33 4.76001C15.4043 4.76001 15.4755 4.73051 15.528 4.678C15.5805 4.62549 15.61 4.55427 15.61 4.48001Z" fill="black"/>
<path fill-rule="evenodd" clip-rule="evenodd" d="M7.17 11.12C7.30506 10.9324 7.36274 10.7 7.33109 10.471C7.29944 10.242 7.18088 10.034 7 9.89C6.82766 9.78149 6.62111 9.741 6.42055 9.7764C6.22 9.81181 6.0398 9.92057 5.91502 10.0815C5.79025 10.2425 5.72984 10.4441 5.74555 10.6472C5.76125 10.8502 5.85196 11.0401 6 11.18C6.32 11.63 6.8 11.53 7.17 11.12Z" fill="black"/>
<path fill-rule="evenodd" clip-rule="evenodd" d="M6 16.29C6.36 16.74 6.85 16.63 7.22 16.23C7.34727 16.0356 7.39538 15.8 7.35448 15.5713C7.31357 15.3426 7.18675 15.1382 7 15C6.82768 14.9111 6.62968 14.8854 6.44036 14.9272C6.25104 14.9691 6.08234 15.0759 5.96355 15.2291C5.84476 15.3824 5.78337 15.5724 5.79003 15.7662C5.79668 15.9599 5.87097 16.1453 6 16.29Z" fill="black"/>
<path fill-rule="evenodd" clip-rule="evenodd" d="M6.06001 21.12C6.42001 21.56 6.91001 21.46 7.28001 21.06C7.41076 20.8676 7.46193 20.632 7.42278 20.4027C7.38362 20.1734 7.2572 19.9681 7.07001 19.83C6.89812 19.7074 6.68558 19.6559 6.47663 19.6861C6.26769 19.7163 6.07844 19.8259 5.94829 19.9921C5.81815 20.1584 5.75713 20.3684 5.77794 20.5785C5.79875 20.7886 5.89978 20.9825 6.06001 21.12Z" fill="black"/>
<path fill-rule="evenodd" clip-rule="evenodd" d="M4.53 11.35C4.65939 11.158 4.71073 10.9239 4.67357 10.6954C4.63642 10.4669 4.51355 10.2611 4.33 10.12C4.15768 10.0311 3.95968 10.0054 3.77036 10.0473C3.58104 10.0891 3.41235 10.1959 3.29355 10.3492C3.17476 10.5024 3.11337 10.6924 3.12003 10.8862C3.12668 11.08 3.20097 11.2653 3.33 11.41C3.67 11.86 4.16 11.76 4.53 11.35Z" fill="black"/>
<path fill-rule="evenodd" clip-rule="evenodd" d="M3.43001 16.27C3.79001 16.71 4.27001 16.61 4.64001 16.21C4.76582 16.0204 4.81512 15.7902 4.77802 15.5657C4.74091 15.3412 4.62014 15.139 4.44001 15C4.26979 14.9011 4.06966 14.8668 3.8762 14.9032C3.68274 14.9397 3.50886 15.0446 3.38633 15.1986C3.26379 15.3527 3.20077 15.5457 3.2088 15.7424C3.21682 15.9392 3.29534 16.1264 3.43001 16.27Z" fill="black"/>
<path fill-rule="evenodd" clip-rule="evenodd" d="M3.53 21.09C3.89 21.54 4.38 21.44 4.75 21.03C4.8818 20.8388 4.93458 20.604 4.89731 20.3748C4.86004 20.1456 4.7356 19.9396 4.55 19.8C4.37721 19.6982 4.17341 19.6624 3.97627 19.6992C3.77913 19.7361 3.60198 19.843 3.4776 20.0003C3.35321 20.1576 3.28999 20.3547 3.29962 20.555C3.30925 20.7553 3.39109 20.9454 3.53 21.09Z" fill="black"/>
<path fill-rule="evenodd" clip-rule="evenodd" d="M16.6 13.12C16.25 19.64 16.22 21.78 15.72 22.24C15.2714 22.5639 14.7489 22.7702 14.2 22.84C13.56 22.93 13.7 22.91 5.74001 22.79C5.23001 22.79 2.85001 22.91 2.58001 22.37C2.15001 21.53 2.19001 19.11 2.17001 18.15C2.61001 18.23 2.71001 18.15 3.05001 18.15C5.69751 18.5414 8.37768 18.6654 11.05 18.52C12.26 18.43 15.55 18.27 15.84 17.86C15.8771 17.8241 15.9045 17.7794 15.92 17.7302C15.9354 17.6809 15.9383 17.6286 15.9283 17.5779C15.9184 17.5272 15.896 17.4799 15.8631 17.4401C15.8302 17.4003 15.7879 17.3693 15.74 17.35C15.1715 17.3001 14.5987 17.3338 14.04 17.45C11.71 17.45 4.54001 17.32 2.22001 17.51C2.11001 17.51 2.16001 18.11 2.04001 10.51C2.04001 9.22001 2.21001 9.24001 2.04001 9.07001C1.98993 9.0229 1.92376 8.99667 1.85501 8.99667C1.78625 8.99667 1.72009 9.0229 1.67001 9.07001C1.38001 9.27001 1.45001 9.56001 1.19001 19.89C1.15482 20.8864 1.29356 21.8813 1.60001 22.83C2.14001 24.1 4.40001 24 5.74001 24C13.43 24 13.74 24.06 14.66 23.85C15.3641 23.6968 16.0116 23.3505 16.53 22.85C17.29 21.95 17.15 19.63 17.3 13.15C17.304 13.0572 17.2709 12.9666 17.2081 12.8981C17.1453 12.8297 17.0578 12.789 16.965 12.785C16.8722 12.781 16.7816 12.8141 16.7131 12.8769C16.6447 12.9397 16.604 13.0272 16.6 13.12Z" fill="black"/>
<path fill-rule="evenodd" clip-rule="evenodd" d="M3.10001 8.66999C6.30607 8.81655 9.51863 8.7196 12.71 8.37999C12.7922 8.37999 12.8711 8.34733 12.9292 8.28919C12.9874 8.23106 13.02 8.15221 13.02 8.06999C13.02 7.98777 12.9874 7.90892 12.9292 7.85079C12.8711 7.79265 12.7922 7.75999 12.71 7.75999C11.1073 7.57127 9.4934 7.49441 7.88001 7.52999C5.79001 7.58999 3.27001 7.99999 3.10001 7.99999C3.03274 8.02646 2.97499 8.07257 2.93429 8.13233C2.89359 8.19208 2.87183 8.2627 2.87183 8.33499C2.87183 8.40729 2.89359 8.47791 2.93429 8.53766C2.97499 8.59741 3.03274 8.64352 3.10001 8.66999Z" fill="black"/>
<path fill-rule="evenodd" clip-rule="evenodd" d="M8.90001 12.59C7.90001 12.59 3.77001 12.66 3.40001 12.73C3.32044 12.7088 3.23571 12.72 3.16444 12.7613C3.09318 12.8026 3.04122 12.8704 3.02001 12.95C2.99879 13.0296 3.01005 13.1143 3.05131 13.1856C3.09256 13.2568 3.16044 13.3088 3.24001 13.33C3.32001 13.33 7.14001 13.79 8.90001 13.78C11.1 13.78 13.07 13.57 14.57 13.44C14.6628 13.44 14.7519 13.4031 14.8175 13.3375C14.8831 13.2718 14.92 13.1828 14.92 13.09C14.92 12.9972 14.8831 12.9081 14.8175 12.8425C14.7519 12.7769 14.6628 12.74 14.57 12.74C14.57 12.74 9.85001 12.6 8.90001 12.59Z" fill="black"/>
</g>
<defs>
<clipPath id="clip0_1044_5416">
<rect width="24" height="24" fill="white"/>
</clipPath>
</defs>
</svg>
