<svg width="24" height="24" viewBox="0 0 24 24" fill="none" xmlns="http://www.w3.org/2000/svg">
<g clip-path="url(#clip0_1044_5385)">
<path fill-rule="evenodd" clip-rule="evenodd" d="M20.74 0.440008C20.4709 0.595055 20.2223 0.783185 20 1.00001C19.9392 1.04751 19.899 1.11663 19.8878 1.19298C19.8767 1.26934 19.8953 1.34707 19.94 1.41001C20.18 1.73001 20.44 1.35001 20.94 1.17001C21.79 0.840008 23 2.00001 23 2.47001C23.012 3.03222 22.8121 3.57838 22.44 4.00001C22.53 4.00001 20.44 2.42001 19.85 1.83001C19.8193 1.79887 19.7827 1.77414 19.7424 1.75726C19.702 1.74038 19.6587 1.73169 19.615 1.73169C19.5713 1.73169 19.528 1.74038 19.4876 1.75726C19.4473 1.77414 19.4107 1.79887 19.38 1.83001C18.98 2.24001 19.67 2.47001 21.84 4.57001C21.52 5.04001 21.44 5.06001 17.89 8.72001C17.692 8.26113 17.403 7.84725 17.0403 7.50345C16.6776 7.15966 16.2488 6.89312 15.78 6.72001C16.91 5.32001 19.09 2.81001 19 2.92001C19.0339 2.85622 19.0437 2.78231 19.0275 2.71188C19.0114 2.64145 18.9703 2.57922 18.9119 2.53665C18.8535 2.49407 18.7817 2.474 18.7097 2.48013C18.6377 2.48626 18.5703 2.51817 18.52 2.57001C15.65 5.57001 14.04 7.17001 13.98 7.67001C13.74 9.83001 13.58 10.83 13.89 11.16C14.49 11.81 16.89 11.08 17.4 10.76C19.6172 8.57028 21.682 6.23149 23.58 3.76001C25 1.47001 22.36 -0.419992 20.74 0.440008ZM16.8 9.81001C16.1669 10.0935 15.491 10.2692 14.8 10.33C14.8 8.61001 14.99 7.90001 14.91 7.87001C14.83 7.84001 15.03 7.67001 15.15 7.51001L15.31 7.30001C15.8999 8.03923 16.5708 8.71008 17.31 9.30001C17.1497 9.47942 16.9794 9.64968 16.8 9.81001Z" fill="black"/>
<path fill-rule="evenodd" clip-rule="evenodd" d="M5.75999 11.45C5.88338 11.2666 5.93144 11.0428 5.8942 10.825C5.85696 10.6071 5.73728 10.412 5.55999 10.28C5.39688 10.1474 5.18777 10.085 4.97867 10.1066C4.76957 10.1281 4.5776 10.2319 4.44499 10.395C4.31238 10.5581 4.25 10.7672 4.27156 10.9763C4.29313 11.1854 4.39688 11.3774 4.55999 11.51C4.93999 11.94 5.39999 11.84 5.75999 11.45Z" fill="black"/>
<path fill-rule="evenodd" clip-rule="evenodd" d="M4.58999 16.4C4.92999 16.82 5.39999 16.72 5.74999 16.34C5.87747 16.1571 5.92892 15.9318 5.89347 15.7116C5.85802 15.4915 5.73846 15.2937 5.55999 15.16C5.39432 15.0517 5.19402 15.0095 4.99873 15.0418C4.80344 15.0741 4.6274 15.1786 4.50544 15.3345C4.38348 15.4904 4.3245 15.6864 4.34015 15.8837C4.35581 16.081 4.44497 16.2653 4.58999 16.4Z" fill="black"/>
<path fill-rule="evenodd" clip-rule="evenodd" d="M4.68999 21C5.03999 21.43 5.49999 21.33 5.85999 20.94C5.98337 20.7566 6.03143 20.5328 5.9942 20.315C5.95696 20.0971 5.83728 19.902 5.65999 19.77C5.49529 19.672 5.30059 19.6372 5.11215 19.6721C4.92371 19.707 4.75438 19.8092 4.6357 19.9597C4.51703 20.1102 4.45711 20.2987 4.46709 20.4901C4.47708 20.6815 4.5563 20.8627 4.68999 21Z" fill="black"/>
<path fill-rule="evenodd" clip-rule="evenodd" d="M3.22999 11.67C3.35285 11.4838 3.39759 11.2568 3.35456 11.0379C3.31153 10.819 3.18418 10.6258 2.99999 10.5C2.83688 10.3674 2.62778 10.305 2.41867 10.3266C2.20957 10.3481 2.0176 10.4519 1.88499 10.615C1.75238 10.7781 1.69 10.9872 1.71157 11.1963C1.73313 11.4054 1.83688 11.5974 1.99999 11.73C2.40999 12.16 2.86999 12.06 3.22999 11.67Z" fill="black"/>
<path fill-rule="evenodd" clip-rule="evenodd" d="M2.17 16.37C2.52 16.8 2.98 16.7 3.34 16.32C3.46398 16.1351 3.51234 15.9097 3.47514 15.6901C3.43793 15.4706 3.31799 15.2737 3.14 15.14C2.9753 15.042 2.7806 15.0072 2.59216 15.0421C2.40372 15.077 2.23439 15.1792 2.11571 15.3297C1.99704 15.4802 1.93712 15.6687 1.9471 15.8601C1.95709 16.0515 2.03631 16.2327 2.17 16.37Z" fill="black"/>
<path fill-rule="evenodd" clip-rule="evenodd" d="M2.27999 21C2.61999 21.42 3.08999 21.33 3.43999 20.94C3.56748 20.7571 3.61892 20.5318 3.58347 20.3116C3.54803 20.0915 3.42846 19.8937 3.24999 19.76C3.08432 19.6517 2.88402 19.6095 2.68873 19.6418C2.49345 19.6741 2.3174 19.7786 2.19545 19.9345C2.07349 20.0904 2.0145 20.2864 2.03016 20.4837C2.04581 20.681 2.13497 20.8653 2.27999 21Z" fill="black"/>
<path fill-rule="evenodd" clip-rule="evenodd" d="M14.77 13.37C14.44 19.6 14.4 21.65 13.93 22.09C13.4967 22.3955 12.9957 22.5912 12.47 22.66C11.86 22.75 11.96 22.72 4.37999 22.61C3.89999 22.61 1.62999 22.73 1.37999 22.21C0.959993 21.41 0.999992 19.08 0.979992 18.21C1.25967 18.229 1.54031 18.229 1.81999 18.21C4.35505 18.5839 6.92104 18.7045 9.47999 18.57C10.64 18.48 13.79 18.33 14.06 17.94C14.2 17.74 14.19 17.58 13.97 17.45C13.4252 17.4016 12.8762 17.4319 12.34 17.54C10.11 17.54 3.25999 17.42 1.03999 17.6C0.939992 17.6 0.979992 18.17 0.869992 10.96C0.869992 9.72 1.02999 9.74 0.869992 9.57C0.820331 9.53024 0.75861 9.50858 0.694992 9.50858C0.631375 9.50858 0.569654 9.53024 0.519992 9.57C0.249992 9.77 0.309992 9.97 0.0599925 19.92C0.0183248 20.8718 0.147013 21.8234 0.439992 22.73C0.999992 23.9 3.15999 23.8 4.43999 23.8C11.81 23.8 12.15 23.8 12.97 23.66C13.6429 23.5146 14.2624 23.1858 14.76 22.71C15.49 21.84 15.35 19.61 15.5 13.43C15.5079 13.3332 15.4771 13.2372 15.4143 13.1631C15.3515 13.089 15.2618 13.043 15.165 13.035C15.0682 13.027 14.9722 13.0579 14.8981 13.1207C14.824 13.1835 14.7779 13.2732 14.77 13.37Z" fill="black"/>
<path fill-rule="evenodd" clip-rule="evenodd" d="M1.85999 9.11001C4.92596 9.25494 7.99854 9.16132 11.05 8.83001C11.0933 8.83801 11.1378 8.83639 11.1804 8.82526C11.223 8.81414 11.2626 8.79377 11.2964 8.76562C11.3303 8.73747 11.3575 8.70221 11.3762 8.66236C11.3949 8.6225 11.4045 8.57903 11.4045 8.53501C11.4045 8.49099 11.3949 8.44751 11.3762 8.40766C11.3575 8.3678 11.3303 8.33255 11.2964 8.3044C11.2626 8.27624 11.223 8.25588 11.1804 8.24475C11.1378 8.23362 11.0933 8.23201 11.05 8.24001C9.52078 8.05292 7.98037 7.97272 6.43999 8.00001C4.50999 8.06001 1.96999 8.40001 1.85999 8.41001C1.76717 8.41001 1.67814 8.44688 1.61251 8.51252C1.54687 8.57816 1.50999 8.66718 1.50999 8.76001C1.50999 8.85283 1.54687 8.94186 1.61251 9.0075C1.67814 9.07313 1.76717 9.11001 1.85999 9.11001Z" fill="black"/>
<path fill-rule="evenodd" clip-rule="evenodd" d="M7.40999 12.86C6.40999 12.86 2.49999 12.92 2.14999 12.99C2.07931 12.9822 2.00814 12.9997 1.94917 13.0395C1.89021 13.0792 1.84729 13.1386 1.82807 13.2071C1.80885 13.2756 1.81458 13.3487 1.84424 13.4133C1.8739 13.4779 1.92555 13.5299 1.98999 13.56C2.06999 13.56 5.71999 14.01 7.40999 14C9.52999 14 11.41 13.8 12.83 13.67C12.9089 13.6563 12.9805 13.6152 13.032 13.5539C13.0836 13.4926 13.1119 13.4151 13.1119 13.335C13.1119 13.2549 13.0836 13.1774 13.032 13.1161C12.9805 13.0548 12.9089 13.0137 12.83 13C12.83 13 8.31999 12.87 7.40999 12.86Z" fill="black"/>
</g>
<defs>
<clipPath id="clip0_1044_5385">
<rect width="24" height="24" fill="white"/>
</clipPath>
</defs>
</svg>
