<svg width="24" height="24" viewBox="0 0 24 24" fill="none" xmlns="http://www.w3.org/2000/svg">
<g clip-path="url(#clip0_1030_2574)">
<path d="M8.61 10.74C8.93646 10.5546 9.22181 10.3047 9.44873 10.0056C9.67564 9.70647 9.83938 9.36435 9.93 9C10.0221 8.65244 10.0431 8.28986 9.99162 7.934C9.94017 7.57814 9.81738 7.23634 9.6306 6.9291C9.44383 6.62186 9.19693 6.35551 8.9047 6.14602C8.61247 5.93653 8.28094 5.78823 7.93 5.71C7.5112 5.59412 7.0688 5.59412 6.65 5.71C6.2086 5.8243 5.79907 6.03772 5.45251 6.33402C5.10596 6.63032 4.8315 7.00172 4.65 7.42C4.45312 7.87121 4.39271 8.37021 4.47623 8.85537C4.55976 9.34053 4.78356 9.7906 5.12 10.15C5.57168 10.5956 6.14027 10.9041 6.76 11.04C7.39268 11.1659 8.04954 11.0594 8.61 10.74ZM5.61 7.74C5.71166 7.44524 5.87739 7.17667 6.09525 6.95362C6.31312 6.73056 6.57771 6.55857 6.87 6.45C7.21566 6.32471 7.59434 6.32471 7.94 6.45C8.18511 6.49218 8.41712 6.59058 8.61783 6.73748C8.81853 6.88437 8.98247 7.07577 9.09679 7.29666C9.21111 7.51755 9.2727 7.76192 9.27672 8.0106C9.28075 8.25929 9.22711 8.50553 9.12 8.73C9.04436 8.97796 8.91577 9.20654 8.74311 9.39992C8.57045 9.5933 8.35785 9.74686 8.12 9.85C7.75797 9.97668 7.36423 9.9802 7 9.86C6.59861 9.7603 6.23208 9.55283 5.94 9.26C5.74839 9.06069 5.61822 8.81042 5.56502 8.53911C5.51182 8.2678 5.53785 7.98691 5.64 7.73L5.61 7.74Z" fill="black"/>
<path d="M7.67998 17.17C7.92788 17.2136 8.17846 17.2403 8.42998 17.25C8.58506 17.2603 8.74074 17.2434 8.88998 17.2C9.09701 17.143 9.28183 17.0244 9.41998 16.86C9.61701 16.6049 9.75992 16.3122 9.83998 16C9.95998 15.6 9.95998 15.16 10.08 14.77C10.1122 14.6188 10.1973 14.4841 10.32 14.39C10.3751 14.3403 10.4402 14.303 10.5109 14.2806C10.5816 14.2582 10.6563 14.2512 10.73 14.26C11.1931 14.4572 11.6758 14.6047 12.17 14.7C12.4484 14.6923 12.7189 14.6056 12.95 14.45C13.29 14.1939 13.6048 13.906 13.89 13.59C14.0844 13.4142 14.2649 13.2236 14.43 13.02C14.5483 12.8645 14.6272 12.6826 14.66 12.49C14.687 12.307 14.6628 12.1201 14.59 11.95C14.4814 11.6978 14.3328 11.4648 14.15 11.26C13.9248 10.9917 13.7241 10.7039 13.55 10.4C13.4852 10.3121 13.4416 10.2104 13.4225 10.1029C13.4034 9.99533 13.4094 9.88485 13.44 9.78C13.5358 9.58649 13.6722 9.41594 13.84 9.28C14.0295 9.12449 14.2378 8.99346 14.46 8.89C14.62 8.81 14.84 8.77 15.02 8.68C15.1729 8.61384 15.3044 8.50652 15.4 8.37C15.5256 8.1924 15.6047 7.9861 15.63 7.77C15.6602 7.53095 15.6602 7.28905 15.63 7.05L15.49 6.2C15.49 6 15.43 5.75 15.38 5.53C15.3549 5.39782 15.3111 5.26987 15.25 5.15C15.1453 4.95015 14.9762 4.79157 14.77 4.7C14.472 4.58926 14.1578 4.52844 13.84 4.52C13.6164 4.49857 13.399 4.43405 13.2 4.33C13.0198 4.2633 12.8609 4.14931 12.74 4C12.6753 3.85063 12.6514 3.68677 12.6707 3.52514C12.69 3.36352 12.7519 3.20991 12.85 3.08C13.0485 2.77553 13.1876 2.43622 13.26 2.08C13.2881 1.82865 13.2354 1.57488 13.1095 1.35551C12.9836 1.13614 12.7912 0.962578 12.56 0.860003C12.181 0.631301 11.7787 0.443578 11.36 0.300003C11.1213 0.207571 10.8616 0.183335 10.61 0.230003C9.87998 0.450003 9.51998 1.23 8.91998 1.59C8.73767 1.70226 8.52221 1.74818 8.30998 1.72C8.14141 1.70282 7.98154 1.63678 7.84998 1.53C7.71008 1.40834 7.5976 1.25837 7.51998 1.09C7.51998 0.970003 7.42998 0.720003 7.34998 0.560003C7.31501 0.455619 7.25288 0.362427 7.16998 0.290003C6.96031 0.142127 6.70588 0.0714534 6.44998 0.0900032C5.86399 0.173084 5.2941 0.345062 4.75998 0.600003C4.54581 0.674131 4.35701 0.807393 4.21543 0.984365C4.07385 1.16134 3.98528 1.37479 3.95998 1.6C3.95169 2.02704 3.99534 2.4535 4.08998 2.87C4.13383 3.01183 4.1431 3.16209 4.117 3.30822C4.09091 3.45436 4.03021 3.59212 3.93998 3.71C3.64998 4.02 3.31998 3.93 2.99998 3.83C2.67906 3.70689 2.34244 3.62946 1.99998 3.6C1.84305 3.59844 1.68795 3.63383 1.54723 3.70332C1.40652 3.77281 1.28413 3.87445 1.18998 4C0.806868 4.43484 0.520544 4.94614 0.349978 5.5C0.269737 5.72052 0.2363 5.95533 0.251795 6.18948C0.26729 6.42363 0.331378 6.65198 0.439978 6.86C0.779978 7.37 1.31998 7.64 1.66998 8.1C1.77396 8.23803 1.84262 8.39938 1.86998 8.57C1.88926 8.67792 1.88399 8.78879 1.85456 8.8944C1.82513 9 1.7723 9.09762 1.69998 9.18C1.38957 9.50453 1.0553 9.80537 0.699978 10.08C0.355848 10.3505 0.109942 10.7263 -2.22884e-05 11.15C-0.0449173 11.4034 -0.0135948 11.6644 0.0899777 11.9C0.288208 12.2718 0.544801 12.6095 0.849978 12.9C1.16212 13.314 1.49592 13.7112 1.84998 14.09C2.08812 14.3241 2.39132 14.4809 2.71998 14.54C3.30655 14.4847 3.88611 14.3708 4.44998 14.2C4.56683 14.1611 4.69313 14.1611 4.80998 14.2C4.87293 14.235 4.9272 14.2838 4.96874 14.3426C5.01029 14.4015 5.03805 14.469 5.04998 14.54C5.08455 15.0453 5.18887 15.5433 5.35998 16.02C5.57229 16.3658 5.89186 16.6327 6.26998 16.78C6.72124 16.9701 7.19515 17.1012 7.67998 17.17ZM6.11998 14.05C5.97538 13.7208 5.72086 13.4522 5.39998 13.29C5.09253 13.1305 4.74184 13.0744 4.39998 13.13C3.89998 13.2 3.39998 13.53 2.89998 13.49C2.76998 13.49 2.63998 13.34 2.49998 13.2C2.14998 12.86 1.81998 12.41 1.62998 12.2C1.46134 12.0379 1.30429 11.8641 1.15998 11.68C1.07998 11.56 0.989978 11.44 1.01998 11.32C1.09441 11.0356 1.26824 10.7873 1.50998 10.62C1.87463 10.3567 2.20989 10.055 2.50998 9.72C2.65912 9.53633 2.76454 9.32115 2.81825 9.09073C2.87195 8.86031 2.87255 8.62069 2.81998 8.39C2.767 8.07429 2.63258 7.77786 2.42998 7.53C1.99998 7.12 1.46998 6.88 1.13998 6.39C0.989978 6.18 1.07998 5.83 1.19998 5.49C1.32171 5.12632 1.50802 4.78756 1.74998 4.49C1.90998 4.32 2.10998 4.37 2.31998 4.42C2.66987 4.54218 3.03199 4.626 3.39998 4.67C3.59871 4.68022 3.79708 4.64397 3.97935 4.56412C4.16162 4.48427 4.32276 4.36302 4.44998 4.21C4.59197 4.04562 4.69604 3.85201 4.7548 3.64289C4.81356 3.43377 4.82557 3.21428 4.78998 3C4.6831 2.56738 4.61945 2.12521 4.59998 1.68C4.61135 1.56459 4.65486 1.45468 4.72556 1.36276C4.79627 1.27084 4.89134 1.2006 4.99998 1.16C5.44135 0.996294 5.8965 0.872466 6.35998 0.790003C6.47117 0.758843 6.58879 0.758843 6.69998 0.790003C6.71509 0.96657 6.76978 1.13747 6.85998 1.29C6.97332 1.56809 7.15163 1.81498 7.37998 2.01C7.61586 2.21585 7.90888 2.34492 8.21998 2.38C8.60123 2.44464 8.99292 2.3663 9.31998 2.16C9.85998 1.83 10.17 1.11 10.83 0.930003C10.95 0.930003 11.17 1.01 11.4 1.11C11.646 1.21834 11.8834 1.34538 12.11 1.49C12.33 1.64 12.43 1.75 12.41 1.9C12.3015 2.25051 12.1504 2.58635 11.96 2.9C11.8313 3.13626 11.7639 3.40099 11.7639 3.67C11.7639 3.93902 11.8313 4.20375 11.96 4.44C12.1127 4.6997 12.3253 4.91913 12.58 5.08C12.9312 5.29405 13.3226 5.43361 13.73 5.49L14.37 5.6L14.52 6.43L14.62 7.18C14.6302 7.31982 14.6302 7.46019 14.62 7.6C14.6152 7.67033 14.5947 7.73868 14.56 7.8L14 8C13.6331 8.16437 13.2954 8.38727 13 8.66C12.7837 8.86434 12.6044 9.10454 12.47 9.37C12.3785 9.57802 12.3313 9.80277 12.3313 10.03C12.3313 10.2572 12.3785 10.482 12.47 10.69C12.677 11.1596 12.9497 11.5973 13.28 11.99L13.54 12.39L13.12 12.83C12.96 12.98 12.76 13.21 12.54 13.4C12.32 13.59 12.32 13.61 12.19 13.61C11.942 13.5817 11.7031 13.4998 11.49 13.37C11.2137 13.2417 10.9144 13.1702 10.61 13.16C10.2452 13.1708 9.89393 13.3007 9.60998 13.53C9.36333 13.7125 9.16998 13.9576 9.04998 14.24C8.90937 14.726 8.79916 15.2203 8.71998 15.72C8.66852 15.8619 8.60496 15.999 8.52998 16.13L7.83998 16C7.5316 15.9692 7.22688 15.9089 6.92998 15.82C6.73218 15.7846 6.55426 15.6779 6.42998 15.52C6.34053 15.2938 6.29308 15.0532 6.28998 14.81C6.26835 14.5501 6.21115 14.2944 6.11998 14.05Z" fill="black"/>
<path d="M15.77 12.36C16.1396 12.6133 16.439 12.9563 16.6402 13.3568C16.8413 13.7572 16.9375 14.2022 16.92 14.65C16.9203 14.9914 16.8594 15.3301 16.74 15.65C16.599 16.1155 16.2933 16.5137 15.88 16.77C15.4345 17.035 14.9159 17.1507 14.4 17.1C14.1555 17.102 13.915 17.038 13.7038 16.9148C13.4927 16.7916 13.3186 16.6138 13.2 16.4C13.1695 16.3138 13.106 16.2433 13.0235 16.2039C12.9409 16.1645 12.8462 16.1595 12.76 16.19C12.6738 16.2205 12.6032 16.284 12.5638 16.3665C12.5244 16.449 12.5195 16.5438 12.55 16.63C12.6549 16.9238 12.8272 17.1889 13.0529 17.4042C13.2786 17.6195 13.5516 17.779 13.85 17.87C14.6996 18.1547 15.6259 18.1046 16.44 17.73C16.9977 17.4224 17.44 16.9415 17.7 16.36C17.9557 15.8037 18.0592 15.1894 18 14.58C17.9444 13.9842 17.7294 13.4144 17.3774 12.9305C17.0255 12.4466 16.5496 12.0664 16 11.83C15.9648 11.8058 15.9248 11.7894 15.8828 11.7818C15.8407 11.7743 15.7975 11.7758 15.7561 11.7863C15.7147 11.7968 15.676 11.8161 15.6426 11.8427C15.6093 11.8694 15.582 11.9029 15.5626 11.941C15.5432 11.979 15.5321 12.0208 15.5302 12.0635C15.5282 12.1061 15.5354 12.1487 15.5513 12.1884C15.5671 12.2281 15.5913 12.2639 15.6221 12.2935C15.6529 12.3231 15.6897 12.3458 15.73 12.36H15.77Z" fill="black"/>
<path d="M22.23 16.14C22.6841 15.9317 23.1191 15.6841 23.53 15.4C23.704 15.2139 23.836 14.9926 23.917 14.751C23.9981 14.5095 24.0264 14.2534 24 14C23.8643 13.0356 23.5233 12.1114 23 11.29C22.8565 11.0266 22.6321 10.8163 22.36 10.69C21.988 10.5449 21.5879 10.4868 21.19 10.52C20.9991 10.5491 20.804 10.5335 20.6201 10.4745C20.4361 10.4155 20.2684 10.3147 20.13 10.18C20.072 10.1139 20.0301 10.0353 20.0075 9.95025C19.985 9.86525 19.9824 9.77617 20 9.69001C20.0968 9.26097 20.1702 8.827 20.22 8.39001C20.224 8.08659 20.1553 7.78663 20.0196 7.51522C19.8839 7.24381 19.6851 7.00885 19.44 6.83001C18.7554 6.39175 17.9711 6.13375 17.16 6.08001C17.1206 6.07439 17.0804 6.07669 17.0418 6.08677C17.0033 6.09684 16.9671 6.1145 16.9355 6.1387C16.9038 6.16291 16.8773 6.19317 16.8575 6.22774C16.8377 6.2623 16.8249 6.30047 16.82 6.34001C16.8144 6.37945 16.8167 6.41963 16.8268 6.45818C16.8368 6.49673 16.8545 6.53288 16.8787 6.56453C16.9029 6.59618 16.9332 6.6227 16.9677 6.64252C17.0023 6.66235 17.0405 6.67509 17.08 6.68001C17.773 6.73525 18.4406 6.96581 19.02 7.35001C19.1721 7.46798 19.2947 7.61977 19.378 7.79334C19.4614 7.96691 19.5031 8.1575 19.5 8.35001C19.5 8.83001 19.22 9.35001 19.23 9.83001C19.2303 10.1349 19.3404 10.4295 19.54 10.66C19.7059 10.875 19.9271 11.0409 20.18 11.14C20.5452 11.2724 20.9316 11.3368 21.32 11.33C21.67 11.33 22.02 11.33 22.23 11.7C22.5927 12.3173 22.8528 12.9894 23 13.69C23.06 14.07 23.08 14.44 22.85 14.69C22.62 14.94 21.7 15.19 21.27 15.54C21.0534 15.7068 20.9014 15.9436 20.84 16.21C20.7961 16.4001 20.7976 16.5979 20.8445 16.7873C20.8915 16.9767 20.9824 17.1524 21.11 17.3C21.3152 17.526 21.5431 17.7304 21.79 17.91C21.93 18.01 22.08 18.09 22.12 18.22L21.89 18.75C21.6155 19.2078 21.3184 19.6516 21 20.08C20.8424 20.3082 20.654 20.5135 20.44 20.69L20.1 20.58C19.6008 20.2803 19.0793 20.0195 18.54 19.8C18.3479 19.7394 18.1447 19.7233 17.9454 19.7527C17.7462 19.7822 17.5563 19.8565 17.39 19.97C17.1279 20.1463 16.9202 20.3922 16.79 20.68C16.6466 21.1084 16.5494 21.5509 16.5 22C16.5 22.23 16.43 22.45 16.19 22.52C15.9305 22.5884 15.6665 22.6385 15.4 22.67C14.97 22.72 14.53 22.73 14.09 22.77L13.54 22.85C13.3971 22.6509 13.292 22.4271 13.23 22.19C13.1132 21.7947 12.9415 21.4177 12.72 21.07C12.5956 20.8924 12.4367 20.7416 12.2529 20.6265C12.0691 20.5114 11.8641 20.4344 11.65 20.4C11.3449 20.3412 11.0289 20.3945 10.76 20.55C10.4375 20.766 10.162 21.0449 9.95 21.37C9.76 21.61 9.59 21.89 9.21 21.74C9.00831 21.6492 8.81434 21.5422 8.63 21.42C8.14 21.09 7.7 20.68 7.22 20.36C7.08 20.27 6.85 20.15 6.66 20.02C6.58606 19.9764 6.52149 19.9187 6.47 19.85C6.38 19.64 6.57 19.35 6.76 19.07C6.95377 18.7673 7.20522 18.5057 7.5 18.3C7.53904 18.2773 7.57317 18.2471 7.60039 18.211C7.62761 18.175 7.64739 18.1339 7.65856 18.0902C7.66973 18.0464 7.67208 18.0009 7.66545 17.9562C7.65883 17.9115 7.64338 17.8686 7.62 17.83C7.59828 17.7913 7.56897 17.7574 7.53384 17.7303C7.4987 17.7031 7.45846 17.6834 7.41552 17.6722C7.37257 17.661 7.32781 17.6586 7.2839 17.6651C7.24 17.6716 7.19786 17.6868 7.16 17.71C6.68161 18.0184 6.28388 18.4367 6 18.93C5.86672 19.1079 5.77581 19.3139 5.73422 19.5322C5.69263 19.7506 5.70145 19.9756 5.76 20.19C5.83591 20.3425 5.9453 20.4758 6.08 20.58C6.29 20.76 6.59 20.92 6.75 21.04C7.23 21.37 7.65 21.8 8.13 22.13C8.35575 22.2986 8.60082 22.4396 8.86 22.55C9.13276 22.6867 9.44707 22.7152 9.74 22.63C10.1444 22.4819 10.4935 22.2131 10.74 21.86C10.94 21.6 11.12 21.28 11.5 21.35C11.5936 21.3682 11.6825 21.405 11.7615 21.4582C11.8406 21.5115 11.9081 21.5801 11.96 21.66C12.1477 22.0077 12.2921 22.3772 12.39 22.76C12.4972 23.1172 12.6894 23.4432 12.95 23.71C13.0714 23.8145 13.221 23.8806 13.38 23.9C13.648 23.9076 13.9161 23.8875 14.18 23.84C14.64 23.84 15.08 23.84 15.53 23.77C15.867 23.7431 16.2014 23.6896 16.53 23.61C16.867 23.5338 17.1632 23.334 17.36 23.05C17.5654 22.6808 17.6882 22.2713 17.72 21.85C17.77 21.5 17.78 21.12 18.09 20.91C18.2 20.83 18.33 20.91 18.47 20.96C18.93 21.15 19.4 21.51 19.73 21.65C19.9703 21.7589 20.2272 21.8265 20.49 21.85C20.6704 21.8469 20.8466 21.7951 21 21.7C21.3581 21.4422 21.6722 21.1281 21.93 20.77C22.29 20.27 22.61 19.69 22.85 19.29C23.0241 19.0146 23.1461 18.7095 23.21 18.39C23.2487 18.1859 23.2315 17.9751 23.16 17.78C23.1148 17.6554 23.047 17.5401 22.96 17.44C22.7486 17.2061 22.5103 16.998 22.25 16.82C22.1427 16.7537 22.0452 16.673 21.96 16.58C21.9342 16.5578 21.9136 16.5301 21.8998 16.499C21.8859 16.4679 21.8792 16.4341 21.88 16.4C21.91 16.27 22.08 16.22 22.23 16.14Z" fill="black"/>
</g>
<defs>
<clipPath id="clip0_1030_2574">
<rect width="24" height="24" fill="white"/>
</clipPath>
</defs>
</svg>
