<svg width="24" height="24" viewBox="0 0 24 24" fill="none" xmlns="http://www.w3.org/2000/svg">
<g clip-path="url(#clip0_1048_7267)">
<path d="M21.17 21C19.4 19.85 16.05 18 15.17 17.6C14.68 17.37 14.76 17.33 14.24 17.09C13.16 16.6 13.1 16.25 13.14 15.39C12.75 11.87 12.83 15.07 12.93 3.73003C12.63 3.12003 12.15 3.28003 12.02 3.87003C11.6262 6.85553 11.5993 9.878 11.94 12.87C12.11 16.63 12.08 16.46 12.15 16.64C11.47 16.98 11.34 17.27 9.44999 18.34C8.24999 19 6.99999 19.61 5.87999 20.28L2.73999 22.12C1.73999 23.7 5.10999 21.71 12.4 17.62C13.1245 18.043 13.8965 18.3787 14.7 18.62C19.86 21.14 20.06 21.2 21.17 21.91C21.94 22.16 22 21.91 21.17 21Z" fill="black"/>
<path d="M23.52 22.81C23.46 22.53 23.57 22.92 21.1 17.62C18.78 13.08 16.64 5.9 13.24 0.780002C13.15 0.650002 12.66 -1.12 11.52 1.22C9.89 4.62 10.26 3.54 9.37 5.35C8.73 6.66 8.18 8 7.55 9.33L1.42 21.5C1.16 22.06 0.490001 22.71 0.470001 23.4C0.470001 23.92 0.970001 23.72 1.28 23.81C9.38 24.01 14.34 24.17 21.67 23.48C22.09 23.48 22.94 23.79 23.35 23.43C23.4297 23.3503 23.4872 23.2512 23.517 23.1425C23.5468 23.0338 23.5479 22.9192 23.52 22.81ZM21.59 22.5C14.921 23.2901 8.19812 23.5275 1.49 23.21C1.17 23.21 0.970001 23.86 8.36 9.73C9.81 6.87 11.57 2.38 12.66 2.29C13.75 2.2 19.78 16.2 21.8 20.81C22.7 22.66 21.85 22.48 21.59 22.5Z" fill="black"/>
</g>
<defs>
<clipPath id="clip0_1048_7267">
<rect width="24" height="24" fill="white"/>
</clipPath>
</defs>
</svg>
