<svg width="24" height="24" viewBox="0 0 24 24" fill="none" xmlns="http://www.w3.org/2000/svg">
<g clip-path="url(#clip0_1030_2608)">
<path fill-rule="evenodd" clip-rule="evenodd" d="M16.8 14.11C16.54 13.27 16.3 12.43 16.04 11.59C15.86 11.03 15.67 10.46 15.46 9.91C15.25 9.36 14.96 8.52 14.68 7.85C14.48 7.38 14.28 6.92 14.04 6.48C13.9128 6.22307 13.7726 5.97275 13.62 5.73C13.4995 5.5303 13.3475 5.35133 13.17 5.2C12.9922 5.05885 12.7836 4.96171 12.5612 4.91653C12.3387 4.87134 12.1088 4.87939 11.89 4.94C11.2015 5.17711 10.5613 5.53616 10 6C8.85001 6.81 7.74001 7.67 6.66001 8.56C5.58001 9.45 4.54001 10.39 3.52001 11.36L1.78001 13.05C1.23001 13.58 1.00001 13.89 0.870005 13.97C0.740005 14.05 0.730006 13.89 0.610005 13.48C0.590931 13.4022 0.543368 13.3344 0.476713 13.2899C0.410059 13.2455 0.329162 13.2277 0.250005 13.24C0.20934 13.2459 0.170326 13.2601 0.135384 13.2818C0.100442 13.3034 0.0703158 13.332 0.0468751 13.3657C0.0234345 13.3995 0.00717882 13.4377 -0.000883669 13.478C-0.00894616 13.5183 -0.00864351 13.5598 5.48689e-06 13.6C0.0794495 14.4939 0.213028 15.3822 0.400005 16.26C0.500005 16.76 0.650005 17.26 0.800005 17.79C1.07001 18.69 1.37001 19.51 1.50001 20.05C1.50465 20.0975 1.51897 20.1436 1.54209 20.1854C1.5652 20.2272 1.59662 20.2638 1.63441 20.293C1.6722 20.3221 1.71556 20.3433 1.76183 20.3551C1.8081 20.3669 1.85629 20.3691 1.90345 20.3616C1.9506 20.3541 1.99572 20.337 2.03602 20.3114C2.07633 20.2858 2.11096 20.2522 2.13781 20.2127C2.16465 20.1732 2.18313 20.1286 2.1921 20.0817C2.20108 20.0349 2.20037 19.9866 2.19001 19.94C2.19001 19.38 2.05001 18.52 1.89001 17.6C1.76717 16.925 1.60692 16.2573 1.41001 15.6C1.31001 15.26 1.14001 14.82 1.02001 14.5C1.22001 14.5 1.35001 14.26 1.52001 14.11L2.25001 13.44L4.00001 11.87C5.00001 10.96 6.10001 10.07 7.19001 9.23C8.28001 8.39 9.41001 7.59 10.56 6.84C10.9209 6.58268 11.3021 6.35525 11.7 6.16C11.97 6.04 12.24 5.9 12.43 6.07C12.5219 6.14972 12.5997 6.24438 12.66 6.35C12.7844 6.56072 12.8979 6.77767 13 7C13.2154 7.4163 13.409 7.84355 13.58 8.28C13.85 8.95 14.09 9.63 14.35 10.28L15.68 14.42C15.832 14.8455 15.9589 15.2796 16.06 15.72C16.1036 15.9513 16.1036 16.1887 16.06 16.42L15.7 16.62L13.5 17.25C12.8766 17.4317 12.2419 17.572 11.6 17.67C10.6 17.83 9.60001 17.93 8.60001 18.05C7.85001 18.14 7.09001 18.3 6.33001 18.39C6.01851 18.4336 5.70452 18.4569 5.39001 18.46C4.87001 18.46 4.23001 18.38 3.65001 18.35C3.37062 18.3239 3.0894 18.3239 2.81001 18.35C2.71858 18.3647 2.63673 18.4151 2.58238 18.4901C2.52802 18.5651 2.50559 18.6585 2.52001 18.75C2.5371 18.8402 2.58804 18.9205 2.66241 18.9745C2.73677 19.0284 2.82892 19.0518 2.92001 19.04C3.14901 19.0097 3.381 19.0097 3.61001 19.04C3.61001 19.04 3.76001 18.94 4.14001 19.8L4.46001 20.52C4.68187 20.993 5.02738 21.3972 5.46001 21.69C5.93166 21.9945 6.4528 22.2145 7.00001 22.34C7.87267 22.5456 8.79041 22.4247 9.58001 22C9.85867 21.8308 10.0941 21.599 10.2677 21.323C10.4413 21.0471 10.5482 20.7345 10.58 20.41C10.6051 20.2074 10.6051 20.0026 10.58 19.8C10.58 19.54 10.47 19.3 10.41 19.03C10.3918 18.9576 10.3537 18.8918 10.3 18.84L11.84 18.68C12.5141 18.5918 13.1821 18.4615 13.84 18.29L16.11 17.7C16.3606 17.6294 16.595 17.5105 16.8 17.35C16.991 17.1993 17.1307 16.9932 17.2 16.76C17.2753 16.3736 17.2753 15.9764 17.2 15.59C17.0951 15.0894 16.9615 14.5953 16.8 14.11ZM9.80001 19.84C9.81431 19.973 9.81431 20.1071 9.80001 20.24C9.75339 20.4168 9.66825 20.5811 9.55069 20.7211C9.43313 20.8612 9.28606 20.9735 9.12001 21.05C8.56041 21.311 7.92702 21.3676 7.33001 21.21C6.86003 21.1356 6.4066 20.9799 5.99001 20.75C5.72977 20.6082 5.50167 20.4141 5.32001 20.18L4.92001 19.56C4.59001 19.01 4.75001 19.26 5.57001 19.26C5.91001 19.26 6.25001 19.26 6.57001 19.2C7.33001 19.13 8.09001 19 8.84001 18.93C9.74001 18.84 9.72001 18.61 9.76001 19.84H9.80001Z" fill="black"/>
<path fill-rule="evenodd" clip-rule="evenodd" d="M16.31 7.05C16.3496 7.04396 16.3877 7.03003 16.4218 7.00904C16.456 6.98805 16.4856 6.96043 16.5089 6.9278C16.5322 6.89517 16.5487 6.8582 16.5575 6.81907C16.5663 6.77995 16.5671 6.73946 16.56 6.7C16.56 6.53 16.73 6.02 16.73 5.7H16.83L18.33 5.99C18.5892 6.01898 18.8508 6.01898 19.11 5.99C19.224 5.97201 19.3305 5.92206 19.4173 5.84595C19.504 5.76984 19.5674 5.67068 19.6 5.56C19.6832 5.27671 19.7335 4.9848 19.75 4.69C19.7729 3.9528 19.7529 3.21488 19.69 2.48C19.9498 2.57445 20.2236 2.62514 20.5 2.63C20.5914 2.61526 20.6733 2.56488 20.7276 2.48991C20.782 2.41494 20.8044 2.32148 20.79 2.23C20.7828 2.18504 20.7666 2.14198 20.7424 2.10339C20.7183 2.06479 20.6866 2.03145 20.6493 2.00533C20.612 1.97921 20.5698 1.96086 20.5252 1.95136C20.4807 1.94185 20.4347 1.94139 20.39 1.95C20.1322 1.87081 19.8865 1.75639 19.66 1.61C19.5837 1.56708 19.4976 1.54453 19.41 1.54453C19.3224 1.54453 19.2363 1.56708 19.16 1.61C19.063 1.68391 18.9899 1.78479 18.95 1.9C18.8876 2.19659 18.8475 2.49743 18.83 2.8L18.54 4.8L17 4.72C16.91 4.72 16.65 4.64 16.48 4.63C16.3469 4.61382 16.212 4.63458 16.09 4.69C15.988 4.76195 15.9036 4.85596 15.843 4.96503C15.7824 5.07411 15.7472 5.19544 15.74 5.32C15.7673 5.82194 15.8546 6.31881 16 6.8C16.0141 6.87145 16.0529 6.93565 16.1095 6.98137C16.1662 7.02708 16.2372 7.05138 16.31 7.05Z" fill="black"/>
<path fill-rule="evenodd" clip-rule="evenodd" d="M19.47 12.18C19.84 11.68 20.13 11 20.39 10.59C20.39 10.59 20.45 10.4 20.51 10.26L20.85 10.52L21.41 11.04C21.61 11.25 21.82 11.6 22.06 11.85C22.2048 12.0117 22.382 12.1411 22.58 12.23C22.689 12.2767 22.8091 12.2912 22.9261 12.2717C23.0431 12.2522 23.152 12.1995 23.24 12.12C23.526 11.6932 23.7515 11.2287 23.91 10.74C23.91 10.65 23.81 9.54 22.75 11.22L22.7 11.15C22.52 10.88 22.36 10.56 22.21 10.35L21.61 9.67C21.48 9.55 21.32 9.39 21.16 9.26C21.01 9.14443 20.8407 9.0564 20.66 9C20.5597 8.96467 20.452 8.9553 20.3471 8.97279C20.2422 8.99028 20.1434 9.03404 20.06 9.1C19.7825 9.37555 19.5497 9.69269 19.37 10.04C19.17 10.46 18.97 11.14 18.68 11.66C18.6172 11.783 18.5436 11.9001 18.46 12.01C18.35 11.83 17.92 11.65 17.7 11.41C17.6444 11.3627 17.574 11.3365 17.501 11.3361C17.4281 11.3356 17.3573 11.3609 17.3011 11.4075C17.245 11.4541 17.2071 11.519 17.1941 11.5908C17.181 11.6626 17.1938 11.7367 17.23 11.8C17.4621 12.1708 17.7448 12.5074 18.07 12.8C18.1686 12.8724 18.2857 12.9156 18.4078 12.9244C18.5299 12.9333 18.6519 12.9075 18.76 12.85C19.0426 12.6811 19.285 12.4524 19.47 12.18Z" fill="black"/>
<path fill-rule="evenodd" clip-rule="evenodd" d="M23.94 17.92C23.7691 17.4947 23.5651 17.0835 23.33 16.69C23.1809 16.5195 22.9746 16.4093 22.75 16.38C22.284 16.359 21.8184 16.4304 21.38 16.59C20.38 16.92 20.07 17.94 19.59 15.86C19.5863 15.8205 19.5747 15.7822 19.5561 15.7472C19.5374 15.7122 19.512 15.6813 19.4813 15.6562C19.4506 15.6311 19.4153 15.6123 19.3773 15.6009C19.3393 15.5896 19.2994 15.5859 19.26 15.59C19.2196 15.5937 19.1803 15.6055 19.1446 15.6248C19.1089 15.6441 19.0775 15.6704 19.0522 15.7022C19.027 15.734 19.0084 15.7706 18.9978 15.8097C18.9871 15.8489 18.9844 15.8898 18.99 15.93C19.0218 16.4829 19.1192 17.0301 19.28 17.56C19.3438 17.7784 19.4606 17.9777 19.62 18.14C19.8511 18.2509 20.116 18.2688 20.36 18.19C20.7972 18.0678 21.225 17.914 21.64 17.73C21.9582 17.5715 22.2938 17.4507 22.64 17.37C22.58 17.62 23.08 17.93 23.36 18.3C23.3843 18.3388 23.4162 18.3723 23.4538 18.3984C23.4914 18.4246 23.5339 18.4429 23.5787 18.4522C23.6235 18.4616 23.6698 18.4618 23.7147 18.4528C23.7596 18.4438 23.8022 18.4259 23.84 18.4C23.8788 18.3757 23.9123 18.3438 23.9384 18.3062C23.9646 18.2686 23.9829 18.2261 23.9922 18.1813C24.0016 18.1365 24.0017 18.0902 23.9928 18.0453C23.9838 18.0004 23.9658 17.9578 23.94 17.92Z" fill="black"/>
</g>
<defs>
<clipPath id="clip0_1030_2608">
<rect width="24" height="24" fill="white"/>
</clipPath>
</defs>
</svg>
