<svg width="24" height="24" viewBox="0 0 24 24" fill="none" xmlns="http://www.w3.org/2000/svg">
<g clip-path="url(#clip0_1050_8337)">
<path fill-rule="evenodd" clip-rule="evenodd" d="M5.63 20.31C5.63 20.64 5.26 20.58 4.94 20.52C4.07 20.35 3.65 19.93 3.73 18.8C3.82 17.52 4.55 16.57 5.58 17.3C5.641 17.3557 5.72163 17.3849 5.80414 17.3811C5.88666 17.3774 5.9643 17.341 6.02 17.28C6.0757 17.219 6.10488 17.1384 6.10113 17.0558C6.09738 16.9733 6.061 16.8957 6 16.84C3.85 14.71 1.51 18.72 3.2 20.7C3.75844 21.1683 4.47183 21.4109 5.2 21.38C5.86 21.32 6.37 21.02 6.33 20.31C6.33 20.2172 6.29313 20.1281 6.22749 20.0625C6.16185 19.9969 6.07283 19.96 5.98 19.96C5.88717 19.96 5.79815 19.9969 5.73251 20.0625C5.66687 20.1281 5.63 20.2172 5.63 20.31Z" fill="black"/>
<path fill-rule="evenodd" clip-rule="evenodd" d="M8 20.38V18.07C7.79 16.44 7.84 16.72 7.83 16.68C7.78532 16.6293 7.72694 16.5927 7.6619 16.5745C7.59686 16.5563 7.52793 16.5573 7.46345 16.5774C7.39896 16.5974 7.34166 16.6358 7.29847 16.6877C7.25527 16.7396 7.22802 16.8029 7.22 16.87C7.22 16.96 6.88 19.38 6.88 19.63C6.88 20.07 6.96 20.98 7.37 21.17C7.89673 21.3341 8.45217 21.3853 9 21.32C9.55 21.2 9.65 20.84 9.44 20.63C8.97602 20.4719 8.49012 20.3876 8 20.38Z" fill="black"/>
<path fill-rule="evenodd" clip-rule="evenodd" d="M12.86 17.3C10.8 14.67 9.37999 18.55 10.51 20.38C10.6126 20.5719 10.7544 20.74 10.9262 20.8735C11.098 21.0069 11.296 21.1027 11.5073 21.1546C11.7186 21.2064 11.9385 21.2133 12.1526 21.1746C12.3667 21.1359 12.5702 21.0525 12.75 20.93C13.1806 20.4287 13.4264 19.795 13.4464 19.1344C13.4664 18.4739 13.2594 17.8264 12.86 17.3ZM11.93 20.09C11.25 20 11 18.71 11.11 18C11.24 17.09 11.55 16.61 12.23 17.7C12.91 18.79 12.33 20.14 11.93 20.09Z" fill="black"/>
<path fill-rule="evenodd" clip-rule="evenodd" d="M15.07 17.66C15.0475 17.5845 15.0421 17.5049 15.0542 17.4271C15.0663 17.3493 15.0956 17.2751 15.14 17.21C15.56 16.67 16.09 17.36 16.41 17.26C16.73 17.16 16.7 16.47 15.64 16.26C15.3485 16.2218 15.0524 16.2751 14.7924 16.4124C14.5325 16.5497 14.3216 16.7643 14.1888 17.0266C14.056 17.2889 14.0079 17.5859 14.0511 17.8767C14.0943 18.1675 14.2267 18.4377 14.43 18.65C14.94 19.26 15.97 19.6 15.88 20.06C15.79 20.52 15.33 20.76 15.08 20.66C15 20.66 14.63 20.28 14.44 20.28C14.3515 20.28 14.2665 20.3144 14.2031 20.376C14.1396 20.4376 14.1026 20.5216 14.1 20.61C14.1 20.94 14.48 21.2 14.77 21.36C14.9765 21.4344 15.196 21.4657 15.4151 21.4522C15.6341 21.4386 15.8481 21.3804 16.0438 21.2811C16.2396 21.1819 16.4129 21.0436 16.5533 20.8749C16.6936 20.7062 16.798 20.5105 16.86 20.3C17.35 18.78 15.16 18.21 15.07 17.66Z" fill="black"/>
<path fill-rule="evenodd" clip-rule="evenodd" d="M20.66 16.33L19.09 16.12C18.8547 16.1195 18.6252 16.1925 18.4333 16.3287C18.2415 16.465 18.097 16.6577 18.02 16.88C17.8189 17.5884 17.7712 18.3316 17.88 19.06C17.828 19.6622 17.828 20.2678 17.88 20.87C17.8977 20.9908 17.9557 21.102 18.0447 21.1855C18.1337 21.2691 18.2484 21.32 18.37 21.33C18.6041 21.2963 18.8349 21.2428 19.06 21.17C19.23 21.12 19.71 21.17 20 21.08C20.56 20.98 20.66 20.64 20.51 20.38C20.36 20.12 19.01 20.33 18.88 20.32L18.98 19.19C19.36 19.19 20.45 19 20.45 18.63C20.45 18.26 19.28 18.01 18.91 18.08C18.895 17.8603 18.895 17.6397 18.91 17.42C18.91 17.21 18.91 17 19.14 16.96C20.75 16.88 20.76 16.96 20.83 16.7C20.8559 16.6284 20.8527 16.5494 20.8209 16.4801C20.789 16.4109 20.7313 16.357 20.66 16.33Z" fill="black"/>
<path fill-rule="evenodd" clip-rule="evenodd" d="M20.45 1.27C20.86 1.37 21.21 1.94 21.56 2.56C22.0323 3.45553 22.4206 4.39286 22.72 5.36C22.9129 6.35633 22.8684 7.38409 22.59 8.36C22.43 8.68 22.12 8.82 21.59 8.79C21.2895 8.77904 20.9911 8.73545 20.7 8.66C20.3939 8.61598 20.1012 8.50521 19.8426 8.33552C19.584 8.16583 19.3659 7.94138 19.2038 7.67805C19.0416 7.41472 18.9392 7.11896 18.904 6.8117C18.8688 6.50444 18.9016 6.19319 19 5.9L22.21 5.84C22.2889 5.82631 22.3605 5.7852 22.4121 5.72392C22.4636 5.66263 22.4919 5.5851 22.4919 5.505C22.4919 5.4249 22.4636 5.34737 22.4121 5.28609C22.3605 5.2248 22.2889 5.18369 22.21 5.17L19.07 5C17.44 0.510001 17.66 1.1 17.58 0.940001C18.5442 0.970164 19.5042 1.08055 20.45 1.27ZM16.87 8.55C16.6043 8.63609 16.3241 8.66805 16.0458 8.64401C15.7676 8.61996 15.497 8.54039 15.25 8.41C14.8057 8.19033 14.449 7.82642 14.2383 7.37776C14.0276 6.92909 13.9753 6.42222 14.09 5.94H18.09C18.2069 6.44879 18.1504 6.98208 17.9293 7.45502C17.7082 7.92796 17.3354 8.31339 16.87 8.55ZM16.79 0.940001C16.79 1.06 16.89 1.19 16.93 1.32C17.0508 2.58797 17.3679 3.82945 17.87 5L14.13 4.87C14.0799 3.50508 13.8202 2.15597 13.36 0.870001C13.54 0.840001 16.76 0.850001 16.79 0.940001ZM12.12 8.44C11.7246 8.60124 11.2951 8.661 10.8707 8.61384C10.4463 8.56669 10.0404 8.41411 9.69 8.17C9.22 5.73 9.28 6.3 9.38 5.87C10.18 5.87 12.71 5.93 13.15 5.94C13.21 6.81 13.41 7.71 12.12 8.44ZM11.88 0.840001C13.38 0.840001 12.36 0.610001 13.03 4.84C12.03 4.84 10.96 4.79 9.94 4.79L11.24 2.2C11.5255 1.78429 11.7417 1.32498 11.88 0.840001ZM7.74 1.63C8.21 1.01 8.2 1.1 8.07 0.880001C11.44 0.820001 11.17 0.820001 11.07 0.880001C10.1257 2.08978 9.30812 3.39328 8.63 4.77C7.42 4.77 6.27 4.77 5.26 4.83C6.27 3.67 7.08 2.49 7.74 1.63ZM4.49 5.69L8.32 5.84C8.32 6.17 8.32 5.65 8.43 7.36C8.14 7.54 8.14 8.21 7.64 8.56C7.26954 8.75657 6.85941 8.86677 6.44032 8.88236C6.02123 8.89794 5.60404 8.81851 5.22 8.65C4.2 8.18 4.32 6.38 4.49 5.69ZM21.2 9.87C23.35 10.06 23.87 8.94 23.93 6.8L23.76 5.16C23.3588 3.91011 22.8117 2.71184 22.13 1.59C21.8074 1.013 21.2898 0.569832 20.67 0.340001C17.62 -0.379999 6.16 0.260001 5.13 0.270001C5.08116 0.261532 5.03106 0.263843 4.98321 0.276773C4.93536 0.289703 4.89092 0.31294 4.85299 0.344855C4.81507 0.376769 4.78458 0.41659 4.76366 0.461528C4.74275 0.506466 4.73191 0.555434 4.73191 0.605001C4.73191 0.654568 4.74275 0.703536 4.76366 0.748474C4.78458 0.793411 4.81507 0.833233 4.85299 0.865147C4.89092 0.897062 4.93536 0.920298 4.98321 0.933229C5.03106 0.946159 5.08116 0.94847 5.13 0.940001H7.42C6.1026 2.1628 4.89775 3.50151 3.82 4.94C2.5 4.93 1.58 5 1.34 5C1.26639 5.01806 1.20235 5.06331 1.16074 5.12666C1.11913 5.19001 1.10304 5.26676 1.11571 5.34149C1.12837 5.41622 1.16885 5.48338 1.22901 5.52948C1.28917 5.57558 1.36455 5.5972 1.44 5.59H3.55C3.63 8 3.86 6.59 3.29 8.4C2.29 9.68 -0.0699975 7.51 0.930002 5.4C1.79439 3.88062 2.77392 2.42971 3.86 1.06C3.90081 0.999228 3.91799 0.925632 3.9083 0.853074C3.89862 0.780516 3.86274 0.714002 3.80742 0.66606C3.7521 0.618118 3.68116 0.592056 3.60796 0.592781C3.53477 0.593507 3.46436 0.620971 3.41 0.670001C3.08 1.05 2.41 1.93 1.77 2.85C-0.289997 5.78 0.110002 5.53 0.0900024 7.34C0.107155 7.82694 0.276529 8.29625 0.574298 8.68192C0.872068 9.06758 1.28325 9.35019 1.75 9.49L2.48 9.6C2.78082 9.62815 3.08377 9.57748 3.35906 9.45298C3.63434 9.32849 3.87247 9.13447 4.05 8.89C5.05 10.11 7.73 10.29 8.77 8.8C9.29346 9.26075 9.93734 9.56282 10.6263 9.67085C11.3152 9.77889 12.0206 9.6884 12.66 9.41C13.0309 9.1741 13.3674 8.88806 13.66 8.56C14.0823 9.08239 14.6573 9.45965 15.3046 9.63897C15.952 9.81828 16.6391 9.79067 17.27 9.56C17.768 9.34349 18.1994 8.99835 18.52 8.56C18.9996 9.1477 19.6609 9.55928 20.4 9.73L21.2 9.87Z" fill="black"/>
<path fill-rule="evenodd" clip-rule="evenodd" d="M23 14.58C22.254 14.2705 21.4574 14.101 20.65 14.08C20.9208 13.1266 21.095 12.1483 21.17 11.16C21.17 10.25 20.24 10.07 20.07 11.03C19.9729 12.0169 19.9495 13.0096 20 14C14.3154 13.6149 8.61025 13.6449 2.93001 14.09C3.07944 12.9395 3.02528 11.7717 2.77001 10.64C2.51001 9.58 1.72001 9.87 1.72001 10.64C1.74655 11.2173 1.81338 11.792 1.92001 12.36C1.92001 12.45 2.25001 14.1 2.27001 14.18C0.50001 14.44 0.34001 14.63 0.38001 15.42C0.44001 16.83 0.85001 21.61 1.38001 22.92C1.44001 23.07 1.77001 23.32 2.38001 23.44C5.60001 24.08 19.76 24.29 21.91 23.31C22.77 22.92 23.07 20.81 23.21 19.86C23.35 18.91 23.76 15.18 23 14.58ZM21.57 21.82C21.49 22.05 21.42 22.41 21.34 22.32C19.39 23.11 4.21001 23.21 1.98001 22.56C1.43001 21 1.00001 15.55 0.91001 15.23C1.38001 14.61 8.65001 14.61 9.42001 14.61C13.3948 14.5986 17.3672 14.8022 21.32 15.22C22.55 15.4 22.32 15.38 22.32 15.96C22.3571 17.9369 22.1181 19.9092 21.61 21.82H21.57Z" fill="black"/>
</g>
<defs>
<clipPath id="clip0_1050_8337">
<rect width="24" height="24" fill="white"/>
</clipPath>
</defs>
</svg>
