<svg width="24" height="24" viewBox="0 0 24 24" fill="none" xmlns="http://www.w3.org/2000/svg">
<g clip-path="url(#clip0_1050_8377)">
<path fill-rule="evenodd" clip-rule="evenodd" d="M16 12.4C15.85 11.77 15.75 11.12 15.65 10.47C14.9 5.47001 15.28 4.81001 14.39 4.53001C13.738 4.33959 13.0675 4.21892 12.39 4.17001C12.3806 3.1751 12.0273 2.21408 11.39 1.45001C11.1315 1.18019 10.821 0.965476 10.4773 0.818793C10.1336 0.672111 9.76372 0.596494 9.39002 0.596494C9.01632 0.596494 8.64648 0.672111 8.30276 0.818793C7.95905 0.965476 7.64857 1.18019 7.39002 1.45001C6.72037 2.35939 6.24703 3.39802 6.00002 4.50001L4.00002 4.64001C4.44002 3.17001 4.93002 1.41001 5.87002 1.08001C6.22856 0.937629 6.61675 0.8861 7.00002 0.930012C7.04599 0.942022 7.09388 0.944814 7.14093 0.938227C7.18798 0.931641 7.23326 0.915807 7.27416 0.891637C7.31506 0.867468 7.35078 0.835441 7.37924 0.797404C7.40771 0.759366 7.42837 0.716071 7.44002 0.670012C7.55002 0.210012 6.87002 0.130012 6.44002 0.110012C5.96329 0.0654714 5.48349 0.15293 5.05313 0.362817C4.62277 0.572704 4.25845 0.89693 4.00002 1.30001C3.45924 2.34128 3.20717 3.50837 3.27002 4.68001C2.35002 4.73001 2.37002 4.62001 2.09002 5.41001C1.37002 9.07001 0.64002 9.70001 0.12002 13.6C1.97068e-05 14.34 -0.19998 15.36 0.35002 16C1.11002 16.85 2.75002 16.58 3.75002 16.6L6.75002 16.81C6.8378 16.809 6.92218 16.7759 6.98729 16.7171C7.0524 16.6582 7.09377 16.5776 7.10359 16.4903C7.11342 16.4031 7.09104 16.3153 7.04066 16.2434C6.99028 16.1715 6.91537 16.1205 6.83002 16.1L4.89002 15.83C4.89002 14.83 4.42002 6.31001 4.05002 5.44001C9.31002 5.44001 11.66 5.06001 13.82 5.62001C14.36 7.62001 14.4 9.06001 15.38 12.62C15.4092 12.7022 15.4698 12.7695 15.5486 12.807C15.5876 12.8256 15.6299 12.8363 15.673 12.8385C15.7162 12.8407 15.7593 12.8345 15.8 12.82C15.8407 12.8056 15.8782 12.7832 15.9103 12.7543C15.9424 12.7254 15.9684 12.6904 15.987 12.6514C16.0056 12.6124 16.0163 12.5702 16.0185 12.527C16.0208 12.4839 16.0145 12.4407 16 12.4ZM4.16002 15.71C3.37002 15.6 2.69002 15.65 1.98002 15.54C0.98002 15.38 0.98002 15.54 1.66002 11.62C2.13002 9.05001 2.48002 7.90001 2.71002 5.67001C2.94002 5.40001 2.47002 5.43001 3.35002 5.43001C3.35002 5.51001 3.46002 10.81 3.49002 11.1C3.5829 12.6528 3.80703 14.195 4.16002 15.71ZM6.81002 4.44001C7.34002 3.44001 8.08002 1.86001 9.21002 1.81001C10.62 1.66001 11.39 2.74001 11.66 4.12001C10.0382 4.12269 8.41816 4.22957 6.81002 4.44001Z" fill="black"/>
<path fill-rule="evenodd" clip-rule="evenodd" d="M9.92005 16.57C9.92005 16.66 9.83005 15.14 9.81005 15.06C9.79005 14.98 9.25005 14.64 9.18005 15.15C8.77583 17.7486 8.73881 20.3911 9.07005 23C9.07005 23.21 9.07005 23.69 9.27005 23.81C9.31152 23.8484 9.36145 23.8766 9.41581 23.8921C9.47016 23.9076 9.52741 23.9101 9.58291 23.8994C9.63842 23.8887 9.69062 23.8651 9.73529 23.8304C9.77996 23.7958 9.81585 23.7511 9.84005 23.7C10.0484 21.3289 10.0752 18.9453 9.92005 16.57Z" fill="black"/>
<path fill-rule="evenodd" clip-rule="evenodd" d="M16.47 16.18C16.47 16.27 16.37 14.76 16.36 14.67C16.35 14.58 15.79 14.25 15.73 14.76C15.3169 17.3545 15.2798 19.995 15.62 22.6C15.62 22.82 15.62 23.29 15.81 23.41C15.8498 23.4509 15.899 23.4815 15.9533 23.4991C16.0075 23.5166 16.0653 23.5207 16.1215 23.5108C16.1777 23.5009 16.2306 23.4775 16.2757 23.4425C16.3207 23.4075 16.3566 23.362 16.38 23.31C16.5986 20.9395 16.6287 18.5553 16.47 16.18Z" fill="black"/>
<path fill-rule="evenodd" clip-rule="evenodd" d="M24 18.58C24 18.39 23.86 15.07 23.78 14.67C23.78 14.52 23.21 14.25 23.15 14.76C22.7202 17.3523 22.6696 19.9932 23 22.6C23 22.82 23 23.29 23.19 23.41C23.2298 23.4509 23.2789 23.4815 23.3332 23.4991C23.3875 23.5166 23.4453 23.5207 23.5014 23.5108C23.5576 23.5009 23.6106 23.4775 23.6556 23.4425C23.7007 23.4075 23.7365 23.362 23.76 23.31C23.84 23.22 24.05 19.48 24 18.58Z" fill="black"/>
<path fill-rule="evenodd" clip-rule="evenodd" d="M20.93 14.68C20.34 14.6 20.63 15.14 20.39 16.49C20.39 16.9 20.54 20.17 20.61 20.79C20.6242 20.874 20.6676 20.9502 20.7326 21.0051C20.7975 21.0601 20.8799 21.0902 20.965 21.0902C21.0501 21.0902 21.1325 21.0601 21.1975 21.0051C21.2625 20.9502 21.3059 20.874 21.32 20.79C21.5975 19.3641 21.6616 17.9048 21.51 16.46C21.18 15 21.18 14.71 20.93 14.68Z" fill="black"/>
<path fill-rule="evenodd" clip-rule="evenodd" d="M21.12 21.65C20.99 21.65 20.88 21.56 20.79 21.65C20.6269 21.8129 20.5124 22.018 20.4594 22.2424C20.4064 22.4667 20.417 22.7014 20.49 22.92C20.49 22.97 20.68 23.4 20.75 23.4C21.79 24.51 21.73 21.77 21.12 21.65Z" fill="black"/>
<path fill-rule="evenodd" clip-rule="evenodd" d="M18.62 14.68C18.03 14.6 18.31 15.14 18.07 16.49C18.07 16.9 18.23 20.17 18.3 20.79C18.3 21.22 19.01 21.22 19.01 20.79C19.2778 19.3628 19.3384 17.9045 19.19 16.46C18.87 15 18.87 14.71 18.62 14.68Z" fill="black"/>
<path fill-rule="evenodd" clip-rule="evenodd" d="M18.81 21.65C18.67 21.65 18.57 21.56 18.47 21.65C18.3115 21.8158 18.2008 22.0214 18.1498 22.245C18.0987 22.4686 18.1092 22.7019 18.18 22.92C18.18 22.97 18.37 23.4 18.44 23.4C19.48 24.51 19.41 21.77 18.81 21.65Z" fill="black"/>
<path fill-rule="evenodd" clip-rule="evenodd" d="M13.83 14.68C13.25 14.6 13.53 15.14 13.29 16.49C13.29 16.9 13.44 20.17 13.51 20.79C13.5242 20.874 13.5676 20.9502 13.6326 21.0051C13.6976 21.0601 13.7799 21.0902 13.865 21.0902C13.9502 21.0902 14.0325 21.0601 14.0975 21.0051C14.1625 20.9502 14.2059 20.874 14.22 20.79C14.4984 19.3642 14.5625 17.9048 14.41 16.46C14.09 15 14.08 14.71 13.83 14.68Z" fill="black"/>
<path fill-rule="evenodd" clip-rule="evenodd" d="M14 21.65C13.87 21.65 13.76 21.56 13.67 21.65C13.5076 21.8133 13.3943 22.0189 13.3431 22.2435C13.2918 22.468 13.3046 22.7024 13.38 22.92C13.38 22.97 13.57 23.4 13.63 23.4C14.69 24.51 14.63 21.77 14 21.65Z" fill="black"/>
<path fill-rule="evenodd" clip-rule="evenodd" d="M11.52 14.68C10.93 14.6 11.22 15.14 10.98 16.49C10.98 16.9 11.13 20.17 11.2 20.79C11.2142 20.874 11.2576 20.9502 11.3226 21.0051C11.3876 21.0601 11.4699 21.0902 11.555 21.0902C11.6402 21.0902 11.7225 21.0601 11.7875 21.0051C11.8525 20.9502 11.8959 20.874 11.91 20.79C12.1828 19.3634 12.2434 17.9044 12.09 16.46C11.77 15 11.77 14.71 11.52 14.68Z" fill="black"/>
<path fill-rule="evenodd" clip-rule="evenodd" d="M11.7101 21.65C11.5701 21.65 11.4701 21.56 11.3701 21.65C11.2115 21.8158 11.1009 22.0214 11.0498 22.245C10.9988 22.4686 11.0092 22.7019 11.0801 22.92C11.0801 22.97 11.2701 23.4 11.3401 23.4C12.3801 24.51 12.3101 21.77 11.7101 21.65Z" fill="black"/>
</g>
<defs>
<clipPath id="clip0_1050_8377">
<rect width="24" height="24" fill="white"/>
</clipPath>
</defs>
</svg>
