<svg width="24" height="24" viewBox="0 0 24 24" fill="none" xmlns="http://www.w3.org/2000/svg">
<g clip-path="url(#clip0_1050_8470)">
<path fill-rule="evenodd" clip-rule="evenodd" d="M16.83 18.56C17.246 18.2523 17.5372 17.805 17.65 17.3C17.654 17.2343 17.6451 17.1684 17.6236 17.1062C17.6022 17.044 17.5687 16.9866 17.525 16.9374C17.4814 16.8881 17.4284 16.848 17.3692 16.8193C17.31 16.7906 17.2457 16.7738 17.18 16.77H16.84C15.8904 16.7852 14.941 16.7283 14 16.6L13.74 16.11C13.52 15.66 13.3 15.24 13.06 14.81C12.82 14.38 12.73 14.24 12.54 13.96C12.4882 13.889 12.4206 13.8313 12.3424 13.7913C12.2642 13.7514 12.1778 13.7304 12.09 13.73C12.003 13.7267 11.9166 13.7462 11.8394 13.7865C11.7622 13.8268 11.6969 13.8866 11.65 13.96C11.4536 14.2326 11.2733 14.5164 11.11 14.81C10.87 15.24 10.66 15.66 10.44 16.11L10.17 16.59C9.21205 16.7168 8.24616 16.7736 7.27998 16.76H6.89998C6.76646 16.7701 6.64171 16.8303 6.55081 16.9287C6.45991 17.027 6.40959 17.1561 6.40998 17.29C6.52959 17.7972 6.82776 18.2445 7.24998 18.55C7.8358 19.0183 8.45774 19.4396 9.10998 19.81C9.17553 19.845 9.23607 19.8888 9.28998 19.94L9.22997 20.07C9.07997 20.43 8.47997 21.55 8.22997 22.24C8.16452 22.4365 8.13406 22.6429 8.13998 22.85C8.14217 22.9202 8.16155 22.9888 8.19642 23.0499C8.23129 23.1109 8.28058 23.1624 8.33998 23.2C8.54574 23.3357 8.78024 23.4216 9.02494 23.4511C9.26964 23.4807 9.51786 23.4529 9.74998 23.37C10.5756 23.051 11.3376 22.587 12 22C12.6884 22.5695 13.4698 23.0161 14.31 23.32C14.5445 23.4114 14.7965 23.449 15.0475 23.43C15.2985 23.4109 15.542 23.3358 15.76 23.21C15.8182 23.1665 15.8662 23.1109 15.9008 23.047C15.9353 22.9831 15.9555 22.9125 15.96 22.84C15.9771 22.625 15.9428 22.4091 15.86 22.21C15.63 21.52 15.03 20.4 14.86 20.05V19.88L15 19.8C15.6409 19.4342 16.2527 19.0196 16.83 18.56ZM13.83 19.9C13.8881 20.0794 13.9617 20.2534 14.05 20.42C14.4684 21.1474 14.8295 21.9064 15.13 22.69C14.7916 22.7617 14.4388 22.7158 14.13 22.56C12.63 21.97 12.22 21.13 11.82 21.41C11.2343 21.8942 10.5931 22.3071 9.90998 22.64C9.74839 22.7262 9.57028 22.7771 9.38752 22.7892C9.20475 22.8012 9.0215 22.7742 8.84998 22.71C9.17286 21.9145 9.55736 21.1455 9.99998 20.41C10.086 20.2457 10.1596 20.0753 10.22 19.9C10.2475 19.8053 10.2475 19.7047 10.22 19.61C10.22 19.56 10.1 19.43 9.87998 19.27C9.65998 19.11 8.80998 18.58 8.18998 18.09C8.0533 17.9845 7.92307 17.871 7.79998 17.75C8.68176 17.7796 9.56451 17.7394 10.44 17.63C10.6278 17.5755 10.7994 17.4759 10.94 17.34C11.1258 17.1133 11.2774 16.8606 11.39 16.59C11.61 16.17 11.82 15.75 12.05 15.34C12.28 15.75 12.49 16.17 12.7 16.59C12.8162 16.8587 12.9676 17.1109 13.15 17.34C13.2964 17.4784 13.4752 17.5781 13.67 17.63C14.5425 17.7347 15.4215 17.7748 16.3 17.75L15.9 18.09C15.29 18.58 14.55 19.03 14.2 19.26C14.0612 19.3489 13.9448 19.4687 13.86 19.61C13.8357 19.7056 13.8392 19.8062 13.87 19.9H13.83Z" fill="black"/>
<path fill-rule="evenodd" clip-rule="evenodd" d="M6.20999 21C6.17927 20.9324 6.12376 20.8791 6.05492 20.8512C5.98607 20.8233 5.90914 20.8229 5.83999 20.85C5.80565 20.8642 5.77448 20.8851 5.74829 20.9114C5.7221 20.9378 5.70143 20.9691 5.68746 21.0036C5.6735 21.038 5.66654 21.0749 5.66697 21.112C5.66741 21.1492 5.67523 21.1859 5.68999 21.22C5.94457 21.7342 6.17156 22.2616 6.36999 22.8C6.15579 22.804 5.94465 22.7486 5.75999 22.64C5.29311 22.4088 4.85926 22.1162 4.46999 21.77C4.38993 21.7122 4.29372 21.6811 4.19499 21.6811C4.09627 21.6811 4.00005 21.7122 3.91999 21.77C3.56073 22.0453 3.1832 22.2959 2.78999 22.52C2.59397 22.6545 2.35643 22.7148 2.11999 22.69C2.37025 22.2296 2.64394 21.7824 2.93999 21.35C3.00962 21.2156 3.06653 21.075 3.10999 20.93C3.14336 20.8191 3.14336 20.7009 3.10999 20.59C3.0273 20.447 2.91049 20.3268 2.76999 20.24C2.53999 20.09 2.02999 19.79 1.58999 19.46C2.0657 19.4296 2.53765 19.356 2.99999 19.24C3.15854 19.2052 3.30204 19.1212 3.40999 19C3.54979 18.8326 3.66127 18.6434 3.73999 18.44C3.87999 18.14 4.01999 17.83 4.17999 17.53V17.47V17.52C4.34999 17.8 4.50999 18.1 4.66999 18.4C4.74675 18.587 4.85498 18.7595 4.98999 18.91C5.08283 19.0066 5.20046 19.0758 5.32999 19.11C5.40738 19.1158 5.48432 19.0941 5.5473 19.0488C5.61028 19.0034 5.65527 18.9374 5.67437 18.8621C5.69347 18.7869 5.68546 18.7074 5.65174 18.6375C5.61802 18.5676 5.56075 18.5118 5.48999 18.48L5.26999 18.1C5.11999 17.77 4.96999 17.46 4.80999 17.16C4.70012 16.9424 4.57654 16.732 4.43999 16.53C4.40486 16.4805 4.35837 16.4402 4.30444 16.4123C4.25051 16.3845 4.19069 16.37 4.12999 16.37C4.06776 16.3692 4.00624 16.3833 3.95056 16.4111C3.89489 16.439 3.8467 16.4797 3.80999 16.53C3.66402 16.7248 3.53042 16.9285 3.40999 17.14C3.23196 17.4421 3.0619 17.7489 2.89999 18.06L2.72999 18.36C2.04427 18.4109 1.35572 18.4109 0.669994 18.36H0.489994C0.41286 18.3624 0.337218 18.3819 0.268556 18.4171C0.199893 18.4523 0.139931 18.5024 0.093018 18.5636C0.0461054 18.6249 0.0134188 18.6959 -0.00267101 18.7713C-0.0187608 18.8468 -0.0178504 18.9249 -5.76954e-06 19C0.0836327 19.398 0.307151 19.7527 0.629994 20C1.03599 20.345 1.46719 20.6592 1.91999 20.94C1.61135 21.506 1.35366 22.0983 1.14999 22.71C1.11573 22.8419 1.12014 22.9808 1.1627 23.1103C1.20526 23.2397 1.28416 23.3542 1.38999 23.44C1.57373 23.557 1.78104 23.632 1.99711 23.6597C2.21319 23.6873 2.43271 23.667 2.63999 23.6C3.21066 23.3589 3.73512 23.0206 4.18999 22.6C4.67653 22.9405 5.21289 23.2037 5.77999 23.38C5.96434 23.4445 6.16094 23.4664 6.35495 23.4438C6.54896 23.4213 6.73533 23.355 6.89999 23.25C6.97655 23.1833 7.03233 23.096 7.06069 22.9985C7.08906 22.901 7.08882 22.7974 7.05999 22.7C6.81935 22.113 6.53523 21.5447 6.20999 21Z" fill="black"/>
<path fill-rule="evenodd" clip-rule="evenodd" d="M24 19C24.0054 18.9309 23.997 18.8614 23.9751 18.7955C23.9533 18.7297 23.9186 18.669 23.8729 18.6168C23.8273 18.5646 23.7716 18.5221 23.7093 18.4917C23.647 18.4614 23.5792 18.4438 23.51 18.44H23.26C22.5742 18.4909 21.8857 18.4909 21.2 18.44L21.03 18.14C20.8681 17.8289 20.698 17.5221 20.52 17.22C20.3995 17.0085 20.266 16.8047 20.12 16.61C20.0833 16.5597 20.0351 16.519 19.9794 16.4911C19.9237 16.4633 19.8622 16.4492 19.8 16.45C19.7393 16.45 19.6795 16.4645 19.6255 16.4923C19.5716 16.5201 19.5251 16.5605 19.49 16.61C19.3534 16.8119 19.2298 17.0224 19.12 17.24C18.96 17.54 18.81 17.85 18.66 18.18L18.44 18.56C18.3692 18.5918 18.3119 18.6476 18.2782 18.7175C18.2445 18.7874 18.2365 18.8669 18.2556 18.9421C18.2747 19.0173 18.3197 19.0834 18.3827 19.1287C18.4456 19.1741 18.5226 19.1958 18.6 19.19C18.7295 19.1558 18.8471 19.0866 18.94 18.99C19.075 18.8395 19.1832 18.667 19.26 18.48C19.42 18.18 19.58 17.88 19.75 17.6V17.55V17.61C19.91 17.91 20.05 18.22 20.19 18.52C20.2687 18.7234 20.3802 18.9126 20.52 19.08C20.624 19.194 20.7599 19.2741 20.91 19.31C21.3912 19.4021 21.88 19.449 22.37 19.45C21.93 19.78 21.37 20.08 21.19 20.23C21.0495 20.3168 20.9327 20.437 20.85 20.58C20.8166 20.6909 20.8166 20.8091 20.85 20.92C20.8934 21.065 20.9503 21.2056 21.02 21.34C21.316 21.7723 21.5897 22.2196 21.84 22.68C21.6035 22.7048 21.366 22.6445 21.17 22.51C20.7768 22.2858 20.3992 22.0353 20.04 21.76C19.9599 21.7022 19.8637 21.6711 19.765 21.6711C19.6662 21.6711 19.57 21.7022 19.49 21.76C19.1007 22.1062 18.6669 22.3988 18.2 22.63C18.0153 22.7386 17.8042 22.794 17.59 22.79C17.7884 22.2516 18.0154 21.7242 18.27 21.21C18.2847 21.1759 18.2926 21.1392 18.293 21.102C18.2934 21.0649 18.2865 21.028 18.2725 20.9936C18.2585 20.9591 18.2379 20.9278 18.2117 20.9014C18.1855 20.8751 18.1543 20.8542 18.12 20.84C18.0508 20.8128 17.9739 20.8133 17.905 20.8412C17.8362 20.8691 17.7807 20.9223 17.75 20.99C17.4216 21.5573 17.1374 22.149 16.9 22.76C16.8711 22.8574 16.8709 22.961 16.8993 23.0585C16.9276 23.156 16.9834 23.2433 17.06 23.31C17.2246 23.415 17.411 23.4813 17.605 23.5038C17.799 23.5263 17.9956 23.5045 18.18 23.44C18.7471 23.2637 19.2834 23.0005 19.77 22.66C20.2248 23.0805 20.7493 23.4189 21.32 23.66C21.5273 23.7269 21.7468 23.7473 21.9629 23.7197C22.1789 23.692 22.3862 23.617 22.57 23.5C22.6758 23.4142 22.7547 23.2997 22.7973 23.1703C22.8398 23.0408 22.8442 22.9019 22.81 22.77C22.6063 22.1583 22.3486 21.566 22.04 21C22.5086 20.7017 22.9533 20.3673 23.37 20C23.6928 19.7527 23.9163 19.3979 24 19Z" fill="black"/>
<path fill-rule="evenodd" clip-rule="evenodd" d="M2.59999 9.23999C2.77504 9.31001 2.96147 9.3473 3.14999 9.34999C3.10173 9.98759 3.12858 10.6287 3.22999 11.26C3.32059 11.7009 3.44086 12.1353 3.58999 12.56C3.79999 13.2 4.05999 13.81 4.25999 14.44C4.27907 14.5219 4.32965 14.593 4.40076 14.6379C4.47188 14.6828 4.55782 14.698 4.63999 14.68C4.72245 14.6608 4.79438 14.6107 4.84092 14.5399C4.88745 14.4692 4.90502 14.3833 4.88999 14.3C4.80906 13.5542 4.68889 12.8132 4.52999 12.08C4.43999 11.65 4.32999 11.23 4.20999 10.81C4.08999 10.39 3.92999 9.80999 3.81999 9.35999H19.46C19.35 9.84999 19.2 10.36 19.06 10.82C18.92 11.28 18.84 11.66 18.74 12.09C18.58 12.83 18.48 13.57 18.39 14.31C18.3714 14.3935 18.3868 14.481 18.4328 14.5532C18.4787 14.6254 18.5514 14.6764 18.635 14.695C18.7185 14.7136 18.806 14.6982 18.8782 14.6522C18.9504 14.6063 19.0014 14.5335 19.02 14.45C19.22 13.82 19.48 13.21 19.69 12.57C19.8357 12.145 19.9527 11.7107 20.04 11.27C20.1495 10.6261 20.1797 9.97122 20.13 9.31999H20.25C20.6465 9.28471 21.033 9.1762 21.39 8.99999C21.5872 8.87453 21.7398 8.69001 21.826 8.47274C21.9122 8.25546 21.9276 8.01653 21.87 7.78999C21.8223 7.52239 21.7205 7.26733 21.5709 7.04038C21.4214 6.81342 21.2271 6.61934 21 6.46999C20.4735 6.36113 19.9376 6.30419 19.4 6.29999C19.4852 5.62942 19.4307 4.94848 19.24 4.29999C19.1334 3.94356 18.9714 3.60611 18.76 3.29999C18.5455 2.98859 18.2741 2.72055 17.96 2.50999C17.3685 2.15697 16.6885 1.98004 16 1.99999C15.887 1.72142 15.7127 1.4719 15.49 1.26999C15.156 0.953174 14.7516 0.720126 14.31 0.589988C13.7223 0.436755 13.1173 0.359459 12.51 0.359988H11.23C10.8 0.359988 10.38 0.359988 9.95999 0.419988C9.88394 0.425069 9.81268 0.458905 9.76067 0.514625C9.70867 0.570345 9.67982 0.64377 9.67999 0.719988C9.68253 0.759415 9.69283 0.797952 9.71031 0.833386C9.72778 0.86882 9.75208 0.900454 9.78182 0.926471C9.81155 0.952487 9.84613 0.972375 9.88357 0.984991C9.92101 0.997607 9.96057 1.0027 9.99999 0.999988H11.24C11.65 0.999988 12.06 1.05999 12.48 1.10999C12.999 1.16425 13.5095 1.28179 14 1.45999C14.2936 1.5575 14.5606 1.72181 14.78 1.93999C14.9156 2.05995 15.0072 2.2219 15.04 2.39999C15.04 2.48999 14.97 2.52999 14.86 2.57999C14.6935 2.65604 14.513 2.69689 14.33 2.69999H13.26L9.76999 2.80999C9.53834 2.82073 9.3063 2.80055 9.07999 2.74999C8.88441 2.71471 8.7016 2.62848 8.54999 2.49999C8.49827 2.42847 8.4664 2.34454 8.45761 2.25673C8.44883 2.16891 8.46345 2.08033 8.49999 1.99999C8.57444 1.71814 8.75316 1.47509 8.99999 1.31999C9.07425 1.27092 9.12598 1.19437 9.14379 1.10716C9.16161 1.01996 9.14405 0.929249 9.09499 0.854988C9.04592 0.780727 8.96937 0.728999 8.88216 0.711183C8.79496 0.693367 8.70425 0.710923 8.62999 0.759988C8.2033 1.02002 7.89479 1.43615 7.76999 1.91999C7.15991 2.0763 6.58141 2.3368 6.05999 2.68999C5.80458 2.88215 5.57591 3.10746 5.37999 3.35999C5.18198 3.61649 5.02045 3.89917 4.89999 4.19999C4.63439 4.87386 4.51508 5.5965 4.54999 6.31999C4.55207 6.38622 4.57677 6.44975 4.61999 6.49999C3.79999 6.49999 3.00999 6.49999 2.27999 6.59999C2.24195 6.59847 2.20402 6.60501 2.16869 6.61919C2.13337 6.63336 2.10143 6.65485 2.07499 6.68223C2.04855 6.70962 2.0282 6.74229 2.01527 6.77809C2.00235 6.81389 1.99714 6.85203 1.99999 6.88999C2.00513 6.96514 2.03932 7.03535 2.09531 7.08574C2.1513 7.13613 2.22471 7.16276 2.29999 7.15999H5.05999C7.24999 7.15999 9.57999 7.30999 11.54 7.29999H18.04C18.8852 7.2916 19.7301 7.33502 20.57 7.42999C20.686 7.62156 20.7863 7.82222 20.87 8.02999C20.6337 8.12476 20.384 8.18212 20.13 8.19999C19.6582 8.24789 19.1841 8.26792 18.71 8.25999L4.10999 8.63999C3.69965 8.71032 3.28033 8.71032 2.86999 8.63999C2.77179 8.5871 2.68558 8.5145 2.61675 8.42674C2.54792 8.33898 2.49796 8.23796 2.46999 8.12999V7.57999C2.4741 7.53846 2.46979 7.49654 2.45731 7.45672C2.44483 7.4169 2.42443 7.38001 2.39736 7.34826C2.37028 7.31651 2.33707 7.29056 2.29972 7.27196C2.26236 7.25335 2.22164 7.24248 2.17999 7.23999C2.13795 7.23728 2.09578 7.2429 2.05592 7.25652C2.01606 7.27014 1.97927 7.2915 1.94768 7.31938C1.91609 7.34725 1.89032 7.38109 1.87184 7.41894C1.85336 7.4568 1.84253 7.49794 1.83999 7.53999C1.81896 7.69255 1.80561 7.84608 1.79999 7.99999C1.80045 8.10616 1.8208 8.21131 1.85999 8.30999C1.90756 8.5098 1.99852 8.69669 2.1264 8.85741C2.25429 9.01813 2.41597 9.14874 2.59999 9.23999ZM11.53 6.40999C9.58999 6.48999 7.28999 6.40999 5.12999 6.48999C5.16392 6.45456 5.18504 6.4088 5.18999 6.35999C5.28783 5.75307 5.4981 5.16975 5.80999 4.63999C5.93622 4.41793 6.07651 4.20416 6.22999 3.99999C6.38324 3.8049 6.55034 3.62109 6.72999 3.44999C7.05281 3.1335 7.40811 2.85195 7.78999 2.60999C7.82607 2.7736 7.89777 2.92724 7.99999 3.05999C8.18931 3.24566 8.41366 3.39182 8.65999 3.48999C9.00404 3.61205 9.36507 3.67953 9.72999 3.68999L13.23 3.76999H14.4C14.7142 3.74565 15.0219 3.66786 15.31 3.53999C15.5002 3.46173 15.6682 3.33773 15.799 3.17899C15.9299 3.02025 16.0195 2.83167 16.06 2.62999C16.5278 2.77947 16.9576 3.02851 17.32 3.35999C17.5447 3.54262 17.7403 3.75843 17.9 3.99999C18.0669 4.22326 18.2078 4.46482 18.32 4.71999C18.5384 5.22489 18.6735 5.76186 18.72 6.30999H18.06C15.73 6.25999 12.64 6.36999 11.53 6.40999Z" fill="black"/>
<path fill-rule="evenodd" clip-rule="evenodd" d="M11.89 9.71999C11.77 9.71999 11.57 9.71999 11.37 10.93C11.3605 11.0632 11.3605 11.1968 11.37 11.33V11.74C11.55 12.88 11.7 13 11.94 12.99C12.18 12.98 12.24 12.86 12.38 11.73V11.33C12.3899 11.2002 12.3899 11.0698 12.38 10.94C12.22 9.69999 12 9.71999 11.89 9.71999Z" fill="black"/>
<path fill-rule="evenodd" clip-rule="evenodd" d="M16.15 10.16C15.8483 10.5757 15.5966 11.0255 15.4 11.5C15.3041 11.7831 15.2338 12.0743 15.19 12.37C15.11 12.8 15.09 13.23 15.01 13.67C14.9849 13.7509 14.993 13.8384 15.0323 13.9134C15.0717 13.9883 15.1392 14.0447 15.22 14.07C15.2593 14.084 15.3011 14.0899 15.3428 14.0874C15.3845 14.0848 15.4252 14.0739 15.4626 14.0552C15.5 14.0365 15.5332 14.0105 15.5602 13.9787C15.5872 13.9468 15.6076 13.9099 15.62 13.87C15.8203 13.476 16.0005 13.0722 16.16 12.66C16.2288 12.4932 16.2889 12.323 16.34 12.15C16.34 11.97 16.43 11.8 16.46 11.62C16.54 11.21 16.56 10.8 16.66 10.39C16.6908 10.3209 16.6935 10.2425 16.6673 10.1715C16.6411 10.1005 16.5883 10.0425 16.52 10.01C16.4859 9.99522 16.4492 9.98739 16.412 9.98696C16.3749 9.98652 16.338 9.99349 16.3036 10.0075C16.2691 10.0214 16.2378 10.0421 16.2114 10.0683C16.1851 10.0945 16.1642 10.1256 16.15 10.16Z" fill="black"/>
<path fill-rule="evenodd" clip-rule="evenodd" d="M7.52 10.16C7.50677 10.1248 7.48659 10.0926 7.46064 10.0653C7.4347 10.0381 7.40353 10.0163 7.36899 10.0014C7.33445 9.98646 7.29726 9.97864 7.25963 9.9784C7.22201 9.97816 7.18472 9.98551 7.15 10C7.0817 10.0326 7.02884 10.0905 7.00268 10.1615C6.97653 10.2325 6.97915 10.3109 7.01 10.38C7.11 10.79 7.14 11.2 7.21 11.61C7.21 11.79 7.29 11.96 7.34 12.14C7.39 12.32 7.45 12.48 7.51 12.65C7.66949 13.0622 7.84972 13.466 8.05 13.86C8.07652 13.9409 8.13409 14.0079 8.21004 14.0464C8.28599 14.0848 8.37411 14.0915 8.455 14.065C8.53589 14.0385 8.60293 13.9809 8.64138 13.905C8.67982 13.829 8.68652 13.7409 8.66 13.66C8.58 13.22 8.57 12.79 8.49 12.36C8.43795 12.065 8.36442 11.7743 8.27 11.49C8.07659 11.0171 7.82463 10.5702 7.52 10.16Z" fill="black"/>
</g>
<defs>
<clipPath id="clip0_1050_8470">
<rect width="24" height="24" fill="white"/>
</clipPath>
</defs>
</svg>
