<svg width="24" height="24" viewBox="0 0 24 24" fill="none" xmlns="http://www.w3.org/2000/svg">
<g clip-path="url(#clip0_1050_8310)">
<path fill-rule="evenodd" clip-rule="evenodd" d="M24 7.47999C23.8039 5.87439 23.228 4.33865 22.32 2.99999C21.8878 2.49856 21.4053 2.04284 20.88 1.63999C20 0.99999 6.83999 1.04999 3.64999 1.54999C3.56728 1.56982 3.495 1.61992 3.44742 1.69042C3.39984 1.76092 3.38041 1.84669 3.39297 1.93081C3.40552 2.01493 3.44915 2.0913 3.51525 2.14483C3.58134 2.19836 3.66509 2.22518 3.74999 2.21999C4.50999 2.11999 5.62999 2.04999 6.91999 2.00999C6.39838 3.51 6.06254 5.06828 5.91999 6.64999L4.40999 6.99999C3.25999 7.09999 2.18999 6.81999 0.999988 7.06999C1.42992 5.56939 1.98521 4.10758 2.65999 2.69999C2.67661 2.62851 2.66645 2.55341 2.63144 2.48892C2.59643 2.42442 2.53899 2.37499 2.46999 2.34999C2.21999 2.25999 2.03999 2.43999 1.68999 3.25999C0.879988 5.12999 -0.0900117 6.99999 0.0999883 8.92999C0.379988 11.85 3.92999 12.49 5.67999 10.06L5.91999 9.69999C5.93256 10.0552 6.01646 10.4042 6.16668 10.7263C6.3169 11.0484 6.53038 11.337 6.79442 11.5749C7.05845 11.8128 7.36765 11.9952 7.70361 12.1112C8.03956 12.2271 8.39541 12.2744 8.74999 12.25C9.4506 12.2229 10.1308 12.0069 10.7188 11.6249C11.3067 11.2429 11.7805 10.7091 12.09 10.08C13.25 12.78 16.87 13.62 18 10.08C18.4526 10.6861 19.0966 11.1217 19.8276 11.3164C20.5586 11.511 21.3339 11.4533 22.0281 11.1525C22.7222 10.8517 23.2945 10.3255 23.6524 9.65898C24.0102 8.9925 24.1327 8.22474 24 7.47999ZM16.64 2.11999C16.6589 3.65292 16.7792 5.18293 17 6.69999C16.19 6.69999 13.28 6.62999 12.64 6.59999C12.755 5.06548 12.755 3.5245 12.64 1.98999C14.06 1.99999 15.44 2.05999 16.64 2.11999ZM7.63999 1.99999H12C11.7357 3.50597 11.5953 5.03107 11.58 6.55999C8.99999 6.38999 8.20999 6.19999 7.04999 6.42999C7.21999 5.52999 7.63999 1.99999 7.63999 1.99999ZM5.63999 8.45999C5.01999 9.39999 4.63999 10.23 3.63999 10.6C3.34152 10.7325 3.01516 10.7899 2.68939 10.7672C2.36363 10.7445 2.04838 10.6424 1.77119 10.4697C1.49399 10.2971 1.26329 10.0592 1.09922 9.77687C0.935152 9.49452 0.842717 9.1763 0.829988 8.84999C0.780297 8.46157 0.780297 8.06841 0.829988 7.67999C0.856431 7.68488 0.883546 7.68488 0.909988 7.67999C1.97999 7.48999 3.29999 7.86999 4.46999 7.79999L5.82999 7.62999C5.84522 7.91132 5.79382 8.19227 5.67999 8.44999L5.63999 8.45999ZM11 9.79999C10.15 11.29 7.99999 11.73 7.22999 10.5C6.7946 9.56402 6.6517 8.51846 6.81999 7.49999C8.61999 7.26999 8.92999 7.55999 11.6 7.64999C11.65 8.49999 11.76 8.08999 11 9.79999ZM15.62 11.26C15.1149 11.2761 14.6161 11.1447 14.1846 10.8819C13.753 10.619 13.4074 10.2361 13.19 9.77999C12.96 9.36999 12.87 8.71999 12.46 8.32999C12.37 8.27999 12.37 8.39999 12.46 7.69999C13.99 7.69999 15.14 7.69999 17.14 7.58999C17.37 8.78999 16.73 11.09 15.61 11.26H15.62ZM22.69 8.99999C22.5355 9.30897 22.3123 9.57844 22.0374 9.78767C21.7626 9.99691 21.4434 10.1404 21.1044 10.207C20.7655 10.2736 20.4158 10.2617 20.0822 10.172C19.7485 10.0824 19.4399 9.91751 19.18 9.68999C18.542 9.1469 18.1433 8.37462 18.07 7.53999L20.43 7.43999C20.5202 7.43999 20.6066 7.40417 20.6704 7.34041C20.7342 7.27664 20.77 7.19016 20.77 7.09999C20.77 7.00982 20.7342 6.92334 20.6704 6.85957C20.6066 6.79581 20.5202 6.75999 20.43 6.75999H18.05C17.9605 5.22202 17.7296 3.69557 17.36 2.19999C18.36 2.25999 19.13 2.31999 19.69 2.38999C19.98 2.38999 20.26 2.60999 20.32 2.51999C21.2634 3.17766 21.9658 4.12588 22.32 5.21999C22.74 6.44999 23.21 7.77999 22.69 8.99999Z" fill="black"/>
<path fill-rule="evenodd" clip-rule="evenodd" d="M3.05005 14.45C2.99624 14.4159 2.93472 14.3959 2.87115 14.3917C2.80758 14.3876 2.744 14.3996 2.68624 14.4265C2.62849 14.4533 2.57842 14.4943 2.54064 14.5456C2.50287 14.5969 2.47859 14.6569 2.47005 14.72C2.47005 14.8 2.19005 17.48 2.23005 18.21C2.23005 18.63 2.23005 19.06 2.60005 19.28C4.28005 20.19 6.30005 19.6 7.96005 19.79C8.73005 19.86 9.83005 20.08 10.29 19.4C10.61 18.93 10.35 18.13 10.34 17.72C10.34 16.11 10.61 13.59 9.34005 13.44C9.34005 13.44 6.34005 13.5 5.42005 13.37C4.68931 13.3605 3.95933 13.4207 3.24005 13.55C3.17242 13.5746 3.11548 13.622 3.07899 13.6841C3.0425 13.7461 3.02873 13.8189 3.04005 13.89C3.12005 14.54 4.24005 13.89 5.30005 14.14C5.57005 14.14 5.84005 14.22 6.11005 14.25C6.04005 14.72 5.95005 15.52 5.93005 16.1C4.94778 16.0932 3.96697 16.1769 3.00005 16.35V16.03C3.08005 14.35 3.11005 14.54 3.05005 14.45ZM9.39005 18.8C9.34005 18.94 8.26005 18.67 8.07005 18.65H6.86005C6.93663 18.1734 6.98339 17.6924 7.00005 17.21C9.07005 17.07 9.06005 17.15 9.21005 17.12C9.14974 17.6864 9.21111 18.2592 9.39005 18.8ZM9.18005 14.45C9.27669 15.0952 9.30351 15.749 9.26005 16.4C8.5185 16.232 7.76038 16.1482 7.00005 16.15C6.94023 15.5281 6.84339 14.9104 6.71005 14.3C8.92005 14.45 9.00005 14.63 9.18005 14.45ZM6.00005 17.24C6.00005 17.47 6.06005 17.71 6.08005 17.94C6.20005 18.7 6.20005 18.64 6.18005 18.73C5.11844 18.914 4.02823 18.842 3.00005 18.52V16.96C3.09005 17 5.47005 17.22 6.00005 17.24Z" fill="black"/>
<path fill-rule="evenodd" clip-rule="evenodd" d="M14.7 18.36C13.83 17.95 13.7 20.46 14.45 20.46C14.5402 20.46 14.6267 20.4242 14.6904 20.3604C14.7542 20.2966 14.79 20.2102 14.79 20.12C15.15 19 14.78 18.4 14.7 18.36Z" fill="black"/>
<path fill-rule="evenodd" clip-rule="evenodd" d="M13.07 20.85C13.16 19.85 13.26 18.6 13.43 17.6C13.5177 16.9844 13.8273 16.422 14.3006 16.0187C14.7739 15.6154 15.3783 15.3989 16 15.41C18.3 15.34 18.37 17.92 18.66 20C18.79 21.05 19.75 21.29 19.66 20C19.57 18.71 19.35 17.91 19.3 17.72C19.1144 16.7294 18.6653 15.807 18 15.05C17.3694 14.5323 16.5732 14.2595 15.7576 14.2815C14.9421 14.3036 14.1618 14.619 13.56 15.17C12.41 16.17 12.28 17.34 12.13 18.78C12.05 19.53 12.2 19.6 12.13 20.17C12 21.22 12.81 21.7 13.07 20.85Z" fill="black"/>
<path fill-rule="evenodd" clip-rule="evenodd" d="M23.59 16.32C23.51 14.49 23.22 13.4 23.2 11.55C23.2 11.4598 23.1642 11.3733 23.1004 11.3096C23.0367 11.2458 22.9502 11.21 22.86 11.21C22.7698 11.21 22.6834 11.2458 22.6196 11.3096C22.5558 11.3733 22.52 11.4598 22.52 11.55C22.52 13.43 23.23 18.76 22.58 20.85C22.58 20.99 22.26 21.4 22.38 21.51C22.28 21.51 7.76002 21.79 5.80002 21.8C4.80002 21.8 1.89002 21.8 1.02002 21.68C0.750018 17.24 0.710018 20.06 0.750018 11.16C0.750018 11.0804 0.718411 11.0041 0.66215 10.9479C0.605889 10.8916 0.529583 10.86 0.450018 10.86C0.370453 10.86 0.294147 10.8916 0.237886 10.9479C0.181625 11.0041 0.150018 11.0804 0.150018 11.16C0.150018 13.02 -0.129982 18.47 0.150018 20.16C0.150018 20.54 0.0900182 21.94 0.370018 22.33C1.19002 23.46 22.13 22.47 22.28 22.46C23.4 22.36 23.28 21.72 23.47 21.13C23.65 20.31 23.72 19.4 23.59 16.32Z" fill="black"/>
</g>
<defs>
<clipPath id="clip0_1050_8310">
<rect width="24" height="24" fill="white"/>
</clipPath>
</defs>
</svg>
