<svg width="24" height="24" viewBox="0 0 24 24" fill="none" xmlns="http://www.w3.org/2000/svg">
<g clip-path="url(#clip0_1050_8511)">
<path d="M1.14999 6.83001C1.10142 6.52145 1.14309 6.20543 1.26999 5.92001C2.62999 5.78001 2.78999 5.83001 2.99999 5.47001C3.20999 5.11001 2.21999 4.08001 3.99999 4.34001C4.99999 4.50001 5.12999 5.23001 5.37999 5.50001L4.51999 6.83001C4.14999 7.48001 4.51999 7.44001 5.51999 6.83001C5.83999 6.29001 7.39999 4.00001 8.22999 4.75001C9.47999 5.92001 10.15 6.45001 10.55 6.83001C11.46 7.58001 11.64 7.34001 11.62 6.83001C11.1582 6.23346 10.6641 5.66261 10.14 5.12001C10.32 4.79001 10.09 4.12001 10.38 2.01001C10.4093 1.77682 10.4561 1.54617 10.52 1.32001C10.87 1.38001 11.33 1.44001 11.41 1.44001C12.1463 1.28769 12.8988 1.22723 13.65 1.26001C13.78 1.31001 13.82 1.45001 13.86 1.59001C13.9 1.73001 14.35 4.44001 14.48 5.48001C14.55 6.11001 14.59 6.48001 14.61 6.83001C14.85 7.56001 15.22 7.55001 15.37 6.83001C15.3717 5.32011 15.2915 3.81123 15.13 2.31001C15.03 1.41001 14.99 0.510007 14.13 0.150007C13.27 -0.209993 12.4 0.360007 10.41 0.220007C9.17999 0.140007 9.51999 2.05001 9.44999 4.38001L8.19999 3.05001C7.41999 2.27001 6.47999 3.83001 5.84999 4.79001C5.07999 2.79001 1.84999 2.84001 1.57999 4.71001C1.33605 4.72414 1.09852 4.79361 0.885415 4.91316C0.672307 5.03271 0.489206 5.1992 0.349987 5.40001C0.194342 5.86093 0.170104 6.35609 0.279987 6.83001C0.379987 7.42001 0.649987 7.50001 1.14999 6.83001Z" fill="black"/>
<path d="M22.77 1.16C21.6729 0.954114 20.5471 0.954114 19.45 1.16C18.45 1.46 18.09 1.03 17.66 3.07C16.838 5.44867 16.2421 7.8995 15.88 10.39C14.88 15.99 15.11 15.07 14.94 15.91C14.85 15.91 5.72 15.98 4.85 15.91C4.10439 15.7675 3.34872 15.6839 2.59 15.66C2.3883 14.1129 1.99182 12.5976 1.41 11.15C1.31665 10.7722 1.25312 10.3877 1.22 10C1.16 9 1.44 9.32 1.72 9.26C3.72 8.84 15.53 8.42 15.61 8.42C15.6812 8.44589 15.7593 8.44566 15.8304 8.41936C15.9014 8.39306 15.9609 8.34239 15.9981 8.27637C16.0353 8.21036 16.0479 8.13328 16.0336 8.05887C16.0193 7.98445 15.979 7.91752 15.92 7.87C15.7356 7.81014 15.5437 7.77648 15.35 7.77H9.68C8.9 7.77 0.349995 7.62 0.869995 8.2C-0.250005 8.48 -0.0300045 10.2 0.229995 11.36C1.03 13.59 0.739995 12.71 1.5 15.24C1.56 15.46 1.58 16.12 1.93 16.37C3.35 17.37 11.36 16.62 14.93 16.57C14.65 17.45 14.59 18.17 13.86 18.36C13.1949 18.4242 12.5251 18.4242 11.86 18.36C9.91 18.45 6.36 18.11 5.46 18.17C4.42673 18.3165 3.3834 18.38 2.34 18.36C2.25 18.36 1.42 18.21 1.62 18.76C1.62629 18.8123 1.64625 18.862 1.67784 18.9041C1.70944 18.9462 1.75157 18.9793 1.8 19C1.43874 19.1136 1.11181 19.3161 0.84925 19.589C0.586691 19.8619 0.396916 20.1964 0.297359 20.5618C0.197801 20.9272 0.191654 21.3117 0.279481 21.6801C0.367308 22.0485 0.546293 22.3888 0.799995 22.67C1.08431 23.1187 1.48717 23.48 1.96405 23.714C2.44092 23.948 2.97322 24.0456 3.50209 23.9959C4.03095 23.9462 4.53577 23.7513 4.96073 23.4325C5.38568 23.1138 5.71422 22.6838 5.91 22.19C6.17494 21.7 6.26194 21.1333 6.1562 20.5863C6.05046 20.0394 5.7585 19.546 5.33 19.19C5.93 19.19 7.76999 19.49 9.02999 19.56C10.1001 19.6135 11.1726 19.5935 12.24 19.5C10.71 20.96 11.71 23.11 13.62 23.58C17.31 24.46 17.49 19.17 14.91 18.74C15.55 17.99 15.21 17.49 16.35 13.22C17.85 7.56 17.91 4.31 18.26 4.29C19.26 4.23 21.84 4.5 22.54 4.45C24.33 4.32 24.49 1.5 22.77 1.16ZM5 21.7C4.8257 22.0916 4.5215 22.411 4.13885 22.6041C3.75619 22.7973 3.31857 22.8523 2.9 22.76C2.09 22.56 1.01 21.52 1.19 20.76C1.27219 20.4301 1.45371 20.1334 1.71 19.91C3.46 18.34 6 19.74 5 21.7ZM15.75 20.76C15.8058 21.0743 15.7637 21.3982 15.6296 21.6879C15.4955 21.9776 15.2757 22.2191 15 22.38C14.6907 22.464 14.3657 22.4724 14.0524 22.4045C13.7392 22.3367 13.4468 22.1945 13.2 21.99C13.0029 21.8638 12.8462 21.6836 12.7487 21.4708C12.6512 21.258 12.6169 21.0217 12.65 20.79C12.91 19.28 15.49 18.79 15.7 20.76H15.75ZM22.46 3.25C21.78 3.33 19.46 3.36 18.33 3.49C18.44 2.95 18.52 2.62 18.55 2.41C18.63 1.83 18.35 2.09 19.63 1.85C20.6036 1.83713 21.5729 1.98236 22.5 2.28C22.9 2.4 22.85 3.21 22.46 3.25Z" fill="black"/>
</g>
<defs>
<clipPath id="clip0_1050_8511">
<rect width="24" height="24" fill="white"/>
</clipPath>
</defs>
</svg>
