<svg width="24" height="24" viewBox="0 0 24 24" fill="none" xmlns="http://www.w3.org/2000/svg">
<g clip-path="url(#clip0_1050_8420)">
<path fill-rule="evenodd" clip-rule="evenodd" d="M4.80001 19.43C4.09001 18.8 3.80001 18.68 2.66001 19.5C2.16001 19.87 1.60001 20.38 1.15001 20.73C1.65001 17 1.80001 18.28 3.00001 7.99998C3.00001 7.79998 3.36001 6.78998 3.13001 6.64998C3.36001 6.25998 2.67001 5.82998 2.49001 6.48998C2.31001 7.14998 2.76001 5.48998 1.62001 11.64C1.46001 12.83 -0.239994 20.34 6.09457e-06 21.6C0.0149441 21.6972 0.0514311 21.7899 0.106798 21.8712C0.162165 21.9525 0.23501 22.0204 0.320006 22.07C1.06001 22.49 1.92001 21.38 2.94001 20.49C3.19318 20.221 3.49088 19.9977 3.82001 19.83C3.86442 19.8396 3.90569 19.8602 3.94001 19.89C6.18001 21.53 6.49001 22.63 6.94001 22.68C7.03125 22.6855 7.12105 22.6552 7.19019 22.5954C7.25934 22.5356 7.30234 22.4511 7.31001 22.36C7.42001 21.94 5.15001 19.75 4.80001 19.43Z" fill="black"/>
<path fill-rule="evenodd" clip-rule="evenodd" d="M5.74999 6.18999C6.25999 6.27999 6.38999 4.46 6.44999 4.29999C6.68517 3.69619 7.02355 3.13788 7.44999 2.64999C9.18999 0.559995 10.45 2.15999 10.63 2.03999C10.91 2.48999 11.91 1.92999 10.63 1.14999C10.0505 0.736083 9.33696 0.554141 8.62999 0.639995C6.82999 0.999995 5.99999 2.32999 5.56999 3.99999C5.42999 4.67999 5.07999 6.12999 5.74999 6.18999Z" fill="black"/>
<path fill-rule="evenodd" clip-rule="evenodd" d="M22.71 6.99998C22.6765 6.8781 22.616 6.76534 22.5328 6.67011C22.4497 6.57489 22.3462 6.49964 22.23 6.44998C21.0061 6.09625 19.7327 5.94426 18.46 5.99998C18.3491 4.87433 17.9571 3.7946 17.32 2.85998C15.73 0.659983 12.78 0.859983 11.71 2.73998C11.238 3.8042 10.9473 4.93987 10.85 6.09998C9.84998 6.09998 7.53998 6.15998 7.31998 6.41998C7.09998 6.67998 7.31998 9.09998 7.31998 9.72998C7.23998 12.45 7.99998 22.37 7.99998 22.45C8.11998 23.07 8.40998 23.12 8.99998 23.18C9.85998 23.27 13.71 23.46 15.07 23.38C15.72 23.38 16.37 23.27 17.02 23.2C18.02 23.09 20.02 23.32 21.54 23.2C22.3 23.12 23.71 22.82 23.89 22.08C24.2 21.06 23.4 8.92998 22.71 6.99998ZM12.71 3.28998C12.9682 2.94439 13.3262 2.68625 13.7356 2.55036C14.1451 2.41447 14.5864 2.40736 15 2.52998C16.43 2.80998 17.33 4.58998 17.6 6.02998C15.6627 6.22284 13.7131 6.25963 11.77 6.13998C11.9203 5.15862 12.224 4.207 12.67 3.31998L12.71 3.28998ZM22.82 21.64C21.73 22.34 18.24 21.92 16.95 22.08C15.914 22.2381 14.8679 22.3217 13.82 22.33C8.92998 22.26 8.97998 22.48 8.89998 21.33C8.14998 12.58 7.99998 11.33 7.99998 9.74998V6.88998C8.99998 6.88998 9.99998 6.81998 10.66 6.88998C10.31 8.95998 10.3 9.11998 10.36 9.23998C10.3864 9.30906 10.431 9.36969 10.4891 9.41546C10.5472 9.46124 10.6166 9.49044 10.69 9.49998C11.13 9.55998 10.97 9.26998 11.47 6.93998C13.5267 7.104 15.5932 7.104 17.65 6.93998C18.03 9.11998 17.99 9.33998 18.17 9.46998C18.2288 9.52339 18.3055 9.55297 18.385 9.55297C18.4645 9.55297 18.5411 9.52339 18.6 9.46998C18.6992 8.64867 18.6858 7.81765 18.56 6.99998C19.6145 7.00398 20.6637 7.14858 21.68 7.42998C21.68 7.52998 21.81 7.72998 21.85 7.91998C22.4187 12.4727 22.7425 17.0526 22.82 21.64Z" fill="black"/>
<path fill-rule="evenodd" clip-rule="evenodd" d="M6.41999 6.28998L4.41999 6.39998C3.24999 6.57998 3.64999 6.91998 3.82999 6.95998C4.69113 7.03764 5.55686 7.05101 6.41999 6.99998C7.19999 6.74998 7.13999 6.51998 6.41999 6.28998Z" fill="black"/>
</g>
<defs>
<clipPath id="clip0_1050_8420">
<rect width="24" height="24" fill="white"/>
</clipPath>
</defs>
</svg>
