<svg width="24" height="24" viewBox="0 0 24 24" fill="none" xmlns="http://www.w3.org/2000/svg">
<g clip-path="url(#clip0_1050_8318)">
<path fill-rule="evenodd" clip-rule="evenodd" d="M12.4 9.21C12.7299 9.45017 13.1142 9.60484 13.5186 9.6602C13.9229 9.71556 14.3346 9.66988 14.717 9.52724C15.0993 9.3846 15.4404 9.14945 15.7096 8.84281C15.9789 8.53617 16.168 8.16758 16.26 7.77C16.7237 8.30445 17.3614 8.65778 18.0604 8.76757C18.7595 8.87736 19.4748 8.73655 20.08 8.37C19.7912 9.42926 19.826 10.5507 20.18 11.59C20.188 11.6696 20.2272 11.7427 20.2891 11.7934C20.351 11.844 20.4305 11.868 20.51 11.86C20.5896 11.852 20.6627 11.8128 20.7134 11.7509C20.764 11.689 20.788 11.6096 20.78 11.53C21.0932 10.2828 21.1274 8.9819 20.88 7.72C21.99 6.39 21.45 4.66 20.88 3.15C20.4904 2.04111 19.7495 1.08963 18.77 0.440005C17.9 -0.239995 6.12001 4.82798e-06 3.74001 0.350005C3.69296 0.352881 3.64702 0.365511 3.6051 0.387094C3.56319 0.408676 3.52623 0.438739 3.49655 0.475372C3.46688 0.512006 3.44515 0.554409 3.43274 0.59989C3.42034 0.645371 3.41752 0.692935 3.42448 0.739562C3.43144 0.786188 3.44802 0.830858 3.47317 0.870734C3.49832 0.91061 3.53148 0.94482 3.57056 0.971193C3.60963 0.997565 3.65377 1.01552 3.70015 1.02393C3.74654 1.03233 3.79417 1.03099 3.84001 1.02C4.48001 0.940005 5.43001 0.880005 6.51001 0.850005C6.05548 2.06984 5.76298 3.34405 5.64001 4.64C4.53771 4.92628 3.3944 5.02099 2.26001 4.92C1.9917 4.92634 1.72427 4.95308 1.46001 5C1.85165 3.75569 2.34325 2.54508 2.93001 1.38C2.94079 1.30938 2.92685 1.23719 2.89054 1.17567C2.85422 1.11414 2.79777 1.06704 2.73073 1.04234C2.66369 1.01764 2.59018 1.01686 2.52263 1.04012C2.45508 1.06338 2.39763 1.10926 2.36001 1.17C1.96585 1.82544 1.63118 2.51486 1.36001 3.23C-1.30999 8.8 3.56001 10.31 5.54001 7.63C6.17001 8.63 6.45001 9.33 7.71001 9.5C8.51571 9.59242 9.3279 9.3938 10 8.94C10.4547 8.65065 10.8295 8.2518 11.09 7.78C11.3922 8.36439 11.8443 8.85792 12.4 9.21ZM18.22 1.21C19.018 1.74898 19.6156 2.53643 19.92 3.45C20.4173 4.42648 20.5315 5.55365 20.24 6.61C20.1016 6.86 19.9097 7.07634 19.6779 7.24355C19.4462 7.41075 19.1804 7.5247 18.8995 7.57725C18.6186 7.62979 18.3296 7.61964 18.0531 7.54751C17.7766 7.47538 17.5194 7.34306 17.3 7.16C16.14 5.78 16.3 5.79 16.35 5.48C17.01 5.48 17.68 5.4 18.35 5.39C18.4402 5.39 18.5267 5.35418 18.5904 5.29042C18.6542 5.22666 18.69 5.14018 18.69 5.05C18.69 4.95983 18.6542 4.87335 18.5904 4.80959C18.5267 4.74583 18.4402 4.71 18.35 4.71L16.35 4.65C16.2744 3.41541 16.07 2.19209 15.74 1C16.55 1 17.22 1.1 17.74 1.16C17.94 1.19 18.17 1.33 18.22 1.26V1.21ZM15 1C14.9792 2.24446 15.0595 3.48854 15.24 4.72L11.61 4.62C11.71 3.37534 11.71 2.12467 11.61 0.880005C12.82 0.870005 14 0.910005 15 1ZM7.25001 0.830005H10.91C10.6699 2.04587 10.5394 3.28082 10.52 4.52C9.28322 4.36112 8.03354 4.32761 6.79001 4.42C7.00001 3.59 7.25001 0.830005 7.25001 0.830005ZM4.83001 7.11C4.58202 7.5183 4.20163 7.82931 3.7522 7.99125C3.30278 8.15319 2.81144 8.15628 2.36001 8C1.36001 7.62 1.23001 6.69 1.36001 5.66C1.65926 5.62986 1.96077 5.62986 2.26001 5.66C3.36885 5.84705 4.50118 5.84705 5.61001 5.66C5.59001 6.22 5.11001 6.63 4.83001 7.11ZM9.39001 8C8.62001 8.54 7.39001 8.68001 6.91001 7.89C6.55224 7.14058 6.42353 6.30224 6.54001 5.48C7.89491 5.41716 9.25267 5.46398 10.6 5.62C10.5829 6.08071 10.4658 6.53218 10.2569 6.94314C10.048 7.3541 9.75217 7.71472 9.39001 8ZM11.46 5.64C12.76 5.64 13.75 5.64001 15.46 5.53C15.64 6.36 15.09 8.33 14.17 8.47001C13.7566 8.47662 13.3498 8.36662 12.996 8.15261C12.6423 7.9386 12.356 7.62924 12.17 7.26C11.8715 6.76338 11.6331 6.23298 11.46 5.68V5.64Z" fill="black"/>
<path fill-rule="evenodd" clip-rule="evenodd" d="M23.46 17.86C23.3856 17.7184 23.2732 17.6003 23.1355 17.519C22.9977 17.4378 22.8399 17.3965 22.68 17.4C22.41 15.27 22.17 13.51 20.22 13.85C20.22 12.91 19.6 12.79 18.67 12.75C15.76 12.75 15.09 12.8 14.59 13.65C14.0343 13.5996 13.4801 13.7613 13.0386 14.1025C12.5972 14.4438 12.3011 14.9395 12.21 15.49C12.0482 16.1435 11.9974 16.8196 12.06 17.49C11.9751 17.5088 11.9007 17.5594 11.8519 17.6314C11.8032 17.7033 11.7839 17.7913 11.798 17.8771C11.812 17.9628 11.8585 18.04 11.9277 18.0926C11.9969 18.1452 12.0836 18.1693 12.17 18.16H14.11C14.16 18.54 14.24 19.08 14.31 19.8C13.5757 19.7834 12.8411 19.8102 12.11 19.88C11.9798 19.3894 11.816 18.9082 11.62 18.44C11.5659 18.4017 11.5013 18.3811 11.435 18.3811C11.3687 18.3811 11.3041 18.4017 11.25 18.44C11 18.61 11.08 18.58 12.12 22.44C12.1692 22.8677 12.3163 23.2784 12.55 23.64C13 24.11 14.24 23.98 14.76 23.99C16.4702 24.054 18.1826 24.0273 19.89 23.91C20.5 23.86 21.95 24.19 22.35 23.39C22.814 22.2785 23.1495 21.1176 23.35 19.93C23.44 19.34 23.83 18.57 23.46 17.86ZM15.58 13.62C16.7739 13.7742 17.9762 13.8544 19.18 13.86C19.1614 14.0781 19.1314 14.2951 19.09 14.51C19.09 14.51 15.53 14.61 15.33 14.51C15.13 14.41 15.12 14.42 15.11 14.33C15.1011 14.1768 15.142 14.0247 15.2268 13.8967C15.3115 13.7687 15.4354 13.6716 15.58 13.62ZM12.7 17.42C12.8471 16.9361 13.0241 16.4619 13.23 16C13.78 14.6 13.48 14.86 14.38 14.41C14.3888 14.5966 14.4496 14.777 14.5557 14.9307C14.6617 15.0845 14.8087 15.2055 14.98 15.28C15.5132 15.4811 16.0804 15.5762 16.65 15.56C18.65 15.7 19.98 16.05 20.16 14.56C20.2713 14.5669 20.3817 14.5836 20.49 14.61C20.57 14.61 21.22 14.55 21.9 17.24C18.8327 17.0958 15.7593 17.156 12.7 17.42ZM18.14 18.09C18.0498 18.6556 18.003 19.2273 18 19.8C16.8 19.71 16.5 19.8 15.45 19.75L15.27 19.13C14.78 18.03 14.84 18.22 14.82 18.13C16.17 18.08 16.93 18.06 18.14 18.09ZM22.21 19.64C22.03 20.31 21.92 21 21.75 21.64C21.27 23.46 21.75 22.55 19.75 22.74C17.5398 22.9492 15.3199 23.0393 13.1 23.01L12.29 20.51C13.0077 20.5385 13.7226 20.6154 14.43 20.74C14.5793 21.3596 14.7904 21.9626 15.06 22.54C15.64 23.07 15.59 20.94 15.58 20.86C16.3894 20.9052 17.2006 20.9052 18.01 20.86C18.07 21.41 18.09 22.59 18.62 22.42C19.15 22.25 18.89 22.16 19.04 20.85C19.7357 20.8976 20.4346 20.8335 21.11 20.66C21.2002 20.66 21.2867 20.6242 21.3504 20.5604C21.4142 20.4967 21.45 20.4102 21.45 20.32C21.45 20.2298 21.4142 20.1433 21.3504 20.0796C21.2867 20.0158 21.2002 19.98 21.11 19.98C20.4468 20.1041 19.7646 20.0836 19.11 19.92C19.11 19.35 19.04 19.78 18.97 18.12C20.15 18.1865 21.3252 18.32 22.49 18.52C22.4259 18.9 22.3323 19.2745 22.21 19.64Z" fill="black"/>
<path fill-rule="evenodd" clip-rule="evenodd" d="M5.73001 15.93C6.40001 15.93 6.32001 14.19 5.79001 14.19C4.88001 14.2 5.22001 15.93 5.73001 15.93Z" fill="black"/>
<path fill-rule="evenodd" clip-rule="evenodd" d="M8.14001 12.26C8.24001 12.48 8.45001 14.59 8.59001 16.1C8.73001 17.61 9.27001 17.42 9.43001 16.1C9.43001 15.19 9.50001 14.21 9.50001 14.16C9.53762 13.3008 9.39806 12.443 9.09001 11.64C8.99103 11.4775 8.83922 11.3539 8.66001 11.29C7.1755 11.1323 5.68084 11.0922 4.19001 11.17C3.93001 11.24 3.75001 11.53 4.03001 11.77C4.11001 11.84 7.81001 12.28 8.14001 12.26Z" fill="black"/>
<path fill-rule="evenodd" clip-rule="evenodd" d="M3.41001 16.1C3.73001 16.85 4.07001 16.81 4.41001 16.1C4.41001 15.64 4.41001 15.21 4.47001 15.1V14.1C4.18001 12.1 4.28001 12.27 4.05001 12.16C4.00747 12.1428 3.96154 12.1356 3.91578 12.1389C3.87001 12.1422 3.82562 12.156 3.78602 12.1792C3.74642 12.2024 3.71266 12.2344 3.68735 12.2726C3.66204 12.3109 3.64584 12.3545 3.64001 12.4C3.4622 13.3901 3.37185 14.394 3.37001 15.4C3.33001 15.55 3.37001 15.82 3.41001 16.1Z" fill="black"/>
<path fill-rule="evenodd" clip-rule="evenodd" d="M9.76001 17.68C9.14001 17.68 3.12001 17.35 2.04001 17.25C1.85698 17.235 1.67303 17.235 1.49001 17.25C1.31001 9.78 1.28001 16.1 1.26001 8.52C1.26001 8.44044 1.2284 8.36413 1.17214 8.30787C1.11588 8.25161 1.03957 8.22 0.960007 8.22C0.880442 8.22 0.804136 8.25161 0.747875 8.30787C0.691614 8.36413 0.660007 8.44044 0.660007 8.52C0.406731 11.4864 0.353277 14.4664 0.500007 17.44C0.560007 17.95 0.720007 18.23 1.21001 18.31C4.05699 18.4817 6.91121 18.4984 9.76001 18.36C9.85018 18.36 9.93666 18.3242 10.0004 18.2604C10.0642 18.1967 10.1 18.1102 10.1 18.02C10.1 17.9298 10.0642 17.8433 10.0004 17.7796C9.93666 17.7158 9.85018 17.68 9.76001 17.68Z" fill="black"/>
</g>
<defs>
<clipPath id="clip0_1050_8318">
<rect width="24" height="24" fill="white"/>
</clipPath>
</defs>
</svg>
