<svg width="24" height="24" viewBox="0 0 24 24" fill="none" xmlns="http://www.w3.org/2000/svg">
<g clip-path="url(#clip0_1050_8391)">
<path fill-rule="evenodd" clip-rule="evenodd" d="M16.35 8.69999C16.026 8.87283 15.692 9.02643 15.35 9.15999C15.1357 9.23045 14.9144 9.27739 14.69 9.29999C13.69 9.39999 12.79 9.21999 11.88 9.39999C11.4119 9.49722 10.9671 9.68397 10.57 9.94999C10.0065 10.3306 9.55993 10.8603 9.27997 11.48C9.01776 12.0808 8.90455 12.736 8.94997 13.39C8.97404 13.8539 9.09294 14.3081 9.29933 14.7243C9.50572 15.1405 9.79522 15.51 10.15 15.81C10.09 16.01 10.01 16.21 9.95997 16.42C9.92326 16.5076 9.92263 16.6061 9.95821 16.6941C9.9938 16.7821 10.0627 16.8525 10.15 16.89C10.239 16.9234 10.3375 16.9213 10.425 16.8841C10.5125 16.8469 10.5823 16.7773 10.62 16.69C10.71 16.52 10.84 16.4 10.94 16.24C11.6325 16.3648 12.3377 16.4051 13.04 16.36C13.3785 16.3341 13.7136 16.2738 14.04 16.18C14.738 15.9953 15.3846 15.6532 15.93 15.18C16.4808 14.6811 16.8853 14.0415 17.1 13.33C17.46 12.12 17.22 8.20999 16.35 8.69999ZM15.83 12.89C15.6046 13.4802 15.2371 14.0058 14.76 14.42C14.4283 14.7043 14.0579 14.9399 13.66 15.12C13.3393 15.256 13.0036 15.3533 12.66 15.41C12.2957 15.4697 11.9285 15.5098 11.56 15.53C11.4871 15.5374 11.4178 15.5651 11.36 15.61C11.54 15.38 11.7 15.12 11.88 14.9L12.48 14.18C12.68 13.95 12.88 13.71 13.09 13.48C13.5832 12.9204 14.1181 12.3989 14.69 11.92C14.7791 11.8608 14.8415 11.769 14.864 11.6644C14.8864 11.5598 14.867 11.4505 14.81 11.36C14.7489 11.2702 14.6554 11.2075 14.5492 11.1851C14.4429 11.1627 14.3321 11.1824 14.24 11.24C13.5295 11.6058 12.8592 12.0448 12.24 12.55C11.9697 12.7787 11.7158 13.0259 11.48 13.29C11.2478 13.5574 11.0403 13.8452 10.86 14.15C10.7273 14.3853 10.6104 14.6292 10.51 14.88C10.2315 14.4272 10.0956 13.901 10.12 13.37C10.1472 13.0047 10.2351 12.6464 10.38 12.31C10.5794 11.8045 10.9282 11.3719 11.38 11.07C11.7265 10.8284 12.123 10.6678 12.54 10.6C13.3 10.46 14.09 10.48 14.89 10.31C15.1827 10.2435 15.4676 10.1463 15.74 10.02C15.89 9.94999 16.04 9.84999 16.19 9.75999C16.348 10.8168 16.2238 11.8966 15.83 12.89Z" fill="black"/>
<path fill-rule="evenodd" clip-rule="evenodd" d="M22.86 7.28C23.4279 6.50017 23.7735 5.58083 23.86 4.62C23.8749 4.42695 23.8749 4.23305 23.86 4.04C23.8388 3.84405 23.802 3.6501 23.75 3.46C23.6333 2.96384 23.3641 2.51668 22.9803 2.18129C22.5965 1.8459 22.1173 1.63913 21.61 1.59C20.9586 1.5743 20.312 1.70548 19.7182 1.97381C19.1244 2.24214 18.5987 2.64073 18.18 3.14C18.1407 3.17253 18.1087 3.21305 18.0863 3.25887C18.0638 3.30469 18.0513 3.35476 18.0497 3.40576C18.048 3.45676 18.0573 3.50753 18.0767 3.5547C18.0962 3.60186 18.1255 3.64435 18.1626 3.67935C18.1997 3.71434 18.2439 3.74104 18.2921 3.75768C18.3404 3.77431 18.3916 3.7805 18.4424 3.77584C18.4932 3.77117 18.5425 3.75575 18.5869 3.73061C18.6313 3.70547 18.6698 3.67117 18.7 3.63C19.3349 3.06021 20.1477 2.72803 21 2.69C21.3381 2.66303 21.6739 2.76431 21.9407 2.97368C22.2076 3.18306 22.3858 3.4852 22.44 3.82L22.5 4.54C22.4557 5.27711 22.2214 5.99021 21.82 6.61C21.514 7.09735 21.1731 7.5619 20.8 8C20.57 7 20.31 6 20 5C19.9785 4.90731 19.9213 4.82688 19.8407 4.77628C19.7601 4.72569 19.6628 4.70905 19.57 4.73C19.5132 4.74367 19.4611 4.77217 19.4189 4.81257C19.3767 4.85298 19.3461 4.90386 19.33 4.96C18.93 4.96 18.53 4.96 18.13 4.89C17.73 4.82 17.13 4.77 16.61 4.71C16.6252 4.47358 16.6252 4.23642 16.61 4C16.5269 3.24319 16.2515 2.52024 15.81 1.9C15.3363 1.2471 14.701 0.728622 13.9664 0.395507C13.2318 0.0623918 12.4232 -0.0739063 11.62 4.88013e-07C10.8116 0.106101 10.0522 0.44682 9.43542 0.980015C8.81869 1.51321 8.37179 2.21549 8.14998 3C7.97355 3.60435 7.88267 4.23043 7.87998 4.86V5.05L6.50998 5.25C6.46268 5.25255 6.41635 5.26442 6.37364 5.28491C6.33093 5.30541 6.29269 5.33413 6.2611 5.36943C6.22952 5.40473 6.20521 5.44592 6.18957 5.49063C6.17394 5.53535 6.16728 5.58271 6.16998 5.63C6.16998 5.63 6.16998 5.63 6.16998 5.71C6.16998 5.79 6.08998 5.78 6.06998 5.83C5.92998 6.4 5.75998 7 5.59998 7.57C5.23998 8.91 4.94998 10.27 4.59998 11.57C4.39998 12.28 4.19998 12.99 4.03998 13.71C3.91998 14.19 3.82998 14.71 3.74998 15.18L3.37998 18.24C3.29261 18.689 3.23581 19.1433 3.20998 19.6C3.21859 19.8736 3.28326 20.1424 3.39998 20.39C3.6143 20.7982 3.96971 21.1145 4.39998 21.28C4.76308 21.4158 5.14346 21.5 5.52998 21.53C4.90723 21.9937 4.20105 22.3332 3.44998 22.53C3.29309 22.5728 3.13227 22.5996 2.96998 22.61C2.82369 22.6249 2.67626 22.6249 2.52998 22.61C1.66998 22.51 1.23998 22.07 1.17998 21.47C1.14801 20.6612 1.41902 19.8695 1.93998 19.25C1.97452 19.2182 2.00209 19.1795 2.02095 19.1365C2.03981 19.0935 2.04954 19.047 2.04954 19C2.04954 18.953 2.03981 18.9065 2.02095 18.8635C2.00209 18.8205 1.97452 18.7818 1.93998 18.75C1.8712 18.6846 1.7799 18.6481 1.68498 18.6481C1.59005 18.6481 1.49876 18.6846 1.42998 18.75C0.940298 19.1717 0.567895 19.7127 0.348885 20.3207C0.129876 20.9287 0.071692 21.5829 0.179977 22.22C0.31302 22.6867 0.580055 23.1041 0.948001 23.4205C1.31595 23.7369 1.76863 23.9384 2.24998 24C2.4512 24.0365 2.6555 24.0532 2.85998 24.05C3.14966 24.043 3.43785 24.0061 3.71998 23.94C4.79506 23.6253 5.78827 23.0792 6.62998 22.34C6.86998 22.14 7.07998 21.9 7.29998 21.68C8.11998 21.68 8.93998 21.73 9.75998 21.68C11.36 21.68 12.96 21.54 14.53 21.48C15.92 21.42 17.4 21.48 18.86 21.4C19.8472 21.3607 20.8284 21.2268 21.79 21C21.8961 20.9761 21.9883 20.9111 22.0465 20.8192C22.1046 20.7273 22.1238 20.6161 22.1 20.51C22.0711 20.4136 22.0114 20.3292 21.93 20.27C21.93 18.5 21.88 16.73 21.78 14.97C21.73 14.19 21.67 13.41 21.59 12.64C21.51 11.87 21.4 11.08 21.27 10.31C21.2 9.95 21.12 9.59 21.04 9.23C21.7078 8.63985 22.3172 7.98684 22.86 7.28ZM9.21998 3.38C9.41692 2.84056 9.76122 2.36718 10.2138 2.01364C10.6663 1.6601 11.2089 1.44057 11.78 1.38C12.3566 1.31265 12.941 1.38981 13.4804 1.60453C14.0198 1.81925 14.4973 2.16478 14.87 2.61C15.2354 3.051 15.4831 3.57737 15.59 4.14C15.59 4.28 15.59 4.43 15.64 4.58C15.44 4.58 15.24 4.58 15.03 4.52C13.88 4.52 12.74 4.52 11.6 4.59C10.68 4.66 9.76998 4.78 8.85998 4.91C8.90732 4.38559 9.02852 3.8705 9.21998 3.38ZM18.83 20.45C17.38 20.45 15.9 20.35 14.51 20.35H9.74998H8.58998C9.02998 19.86 9.44998 19.35 9.84998 18.93C9.92456 18.8519 9.96617 18.748 9.96617 18.64C9.96617 18.532 9.92456 18.4281 9.84998 18.35C9.77074 18.2776 9.6673 18.2375 9.55998 18.2375C9.45266 18.2375 9.34922 18.2776 9.26998 18.35C8.60998 18.96 7.86998 19.64 7.10998 20.35H6.61998C6.17483 20.3482 5.73038 20.3148 5.28998 20.25C5.00998 20.2 4.71998 20.15 4.60998 19.91C4.5594 19.7936 4.53877 19.6664 4.54998 19.54C4.54998 19.2 4.65998 18.85 4.68998 18.54L4.93998 15.46C4.93998 14.99 5.05998 14.53 5.13998 14.06C5.25998 13.35 5.40998 12.65 5.56998 11.95C5.86998 10.6 6.08998 9.21 6.37998 7.85C6.49998 7.28 6.63998 6.71 6.80998 6.15V6.06H7.93998C7.97888 6.59312 8.04564 7.12385 8.13998 7.65C8.14486 7.69705 8.15923 7.74261 8.18221 7.78395C8.2052 7.82529 8.23632 7.86154 8.27371 7.89051C8.31109 7.91948 8.35396 7.94058 8.39973 7.95252C8.44549 7.96447 8.4932 7.96701 8.53998 7.96C8.63388 7.94753 8.71909 7.89854 8.77712 7.82366C8.83515 7.74878 8.86133 7.65405 8.84998 7.56C8.82459 7.06032 8.82459 6.55968 8.84998 6.06C13.53 6.06 12.85 5.95 15.07 5.92H15.79V7.14C15.8052 7.23648 15.8543 7.32437 15.9286 7.38783C16.0028 7.45129 16.0973 7.48616 16.195 7.48616C16.2927 7.48616 16.3871 7.45129 16.4614 7.38783C16.5356 7.32437 16.5848 7.23648 16.6 7.14C16.6 6.74 16.67 6.3 16.69 5.87H18.15H19.44C19.57 6.68 19.69 7.49 19.78 8.3C19.78 8.62 19.84 8.95 19.88 9.3L19.56 9.66C19.4854 9.73813 19.4438 9.84199 19.4438 9.95C19.4438 10.058 19.4854 10.1619 19.56 10.24C19.6148 10.2856 19.6811 10.3153 19.7516 10.3259C19.8221 10.3365 19.8942 10.3275 19.96 10.3V10.79C20.05 11.6 20.13 12.42 20.23 13.23C20.52 15.62 20.84 18.01 21.07 20.42C20.3253 20.489 19.5763 20.499 18.83 20.45Z" fill="black"/>
</g>
<defs>
<clipPath id="clip0_1050_8391">
<rect width="24" height="24" fill="white"/>
</clipPath>
</defs>
</svg>
