<svg width="24" height="24" viewBox="0 0 24 24" fill="none" xmlns="http://www.w3.org/2000/svg">
<g clip-path="url(#clip0_1050_8327)">
<path fill-rule="evenodd" clip-rule="evenodd" d="M10.64 7.99999C11.0661 8.28843 11.5455 8.48901 12.05 8.58999C12.8125 8.73025 13.5849 8.81049 14.36 8.82999C15.5054 8.83114 16.649 8.74086 17.78 8.55999C18.5776 8.47419 19.3668 8.32369 20.14 8.10999C20.5433 8.00941 20.9104 7.79813 21.2 7.49999C21.2869 7.38973 21.3497 7.2624 21.3841 7.12628C21.4186 6.99017 21.424 6.84833 21.4 6.70999C21.3846 6.58199 21.3612 6.45507 21.33 6.32999C21.3765 6.30532 21.4174 6.27127 21.45 6.22999C21.497 6.14495 21.5086 6.04486 21.4824 5.95131C21.4562 5.85776 21.3943 5.77826 21.31 5.72999L21.13 5.63999C21 5.26999 20.88 4.95999 20.84 4.84999C20.5718 3.63515 20.0201 2.50096 19.23 1.53999C18.8113 1.06177 18.2969 0.676801 17.72 0.409987C16.9618 0.0567875 16.1222 -0.0848758 15.29 -1.29081e-05C14.4707 0.10043 13.6864 0.391553 13 0.849987C10.83 2.26999 10.35 4.84999 10.79 5.07999C10.5494 5.43708 10.3355 5.81143 10.15 6.19999C10.0344 6.45007 9.98284 6.725 10 6.99999C10.0313 7.20201 10.1044 7.39529 10.2146 7.56747C10.3248 7.73966 10.4697 7.88697 10.64 7.99999ZM13.64 1.79999C14.2049 1.49223 14.822 1.29217 15.46 1.20999C16.0838 1.12641 16.7185 1.19503 17.31 1.40999C17.8922 1.61122 18.4147 1.95501 18.83 2.40999C19.474 3.1439 19.9061 4.03922 20.08 4.99999C19.3561 4.6304 18.5907 4.34842 17.8 4.15999C17.2659 4.05783 16.7237 4.00427 16.18 3.99999C15.6243 3.97612 15.0677 4.01301 14.52 4.10999C13.4196 4.31413 12.3677 4.72469 11.42 5.31999C11.63 4.92999 10.87 3.35999 13.62 1.83999L13.64 1.79999ZM11 6.30999C11 6.24999 11.05 6.19999 11.07 6.14999C11.1126 6.17456 11.1609 6.1875 11.21 6.1875C11.2592 6.1875 11.3074 6.17456 11.35 6.14999C12.4118 5.66419 13.5544 5.37938 14.72 5.30999C15.7 5.22998 16.6858 5.25681 17.66 5.38999C18.6161 5.52508 19.5506 5.78392 20.44 6.15999C20.58 6.78999 20.84 6.96999 19.59 7.15999C18.9505 7.25739 18.3062 7.32081 17.66 7.34999C16.78 7.46999 15.85 7.53999 14.94 7.57999C14.0399 7.63508 13.1368 7.61501 12.24 7.51999C11.9329 7.49181 11.6323 7.41414 11.35 7.28999C11.11 7.17999 10.88 7.06999 10.84 6.84999C10.8494 6.65978 10.9042 6.47459 11 6.30999Z" fill="black"/>
<path fill-rule="evenodd" clip-rule="evenodd" d="M19 10.89C19.1223 10.6253 19.2226 10.3511 19.3 10.07C19.3693 9.80054 19.4194 9.52652 19.45 9.24999C19.4586 9.20264 19.4576 9.15406 19.447 9.1071C19.4365 9.06015 19.4167 9.01579 19.3887 8.97663C19.3607 8.93748 19.3252 8.90433 19.2842 8.87914C19.2432 8.85395 19.1976 8.83724 19.15 8.82999C19.1032 8.82146 19.0552 8.82254 19.0089 8.83318C18.9626 8.84381 18.9189 8.86377 18.8805 8.89185C18.8421 8.91992 18.8099 8.95551 18.7857 8.99645C18.7616 9.0374 18.746 9.08283 18.74 9.12999C18.68 9.36999 18.61 9.59999 18.53 9.82999C18.4435 10.0496 18.3364 10.2606 18.21 10.46C17.9051 10.9587 17.4707 11.3653 16.9529 11.6365C16.4352 11.9077 15.8535 12.0333 15.27 12C14.813 11.991 14.3618 11.896 13.94 11.72C13.2939 11.4571 12.7574 10.9806 12.42 10.37L11.89 8.89999C11.8785 8.85907 11.859 8.82086 11.8326 8.78757C11.8062 8.75429 11.7734 8.72659 11.7361 8.70611C11.6989 8.68563 11.658 8.67278 11.6157 8.66829C11.5734 8.66381 11.5307 8.66778 11.49 8.67999C11.4089 8.70546 11.3407 8.76128 11.2997 8.83581C11.2587 8.91034 11.2481 8.99781 11.27 9.07999L11.64 10.71C11.9618 11.5941 12.5994 12.3279 13.43 12.77C13.9925 13.0621 14.6163 13.2163 15.25 13.22C15.7229 13.2325 16.1941 13.1579 16.64 13C17.1536 12.8223 17.6267 12.5442 18.0319 12.182C18.437 11.8197 18.7661 11.3806 19 10.89Z" fill="black"/>
<path fill-rule="evenodd" clip-rule="evenodd" d="M16.08 11.34C16.2104 11.2144 16.3157 11.0651 16.39 10.9C16.467 10.6956 16.5043 10.4784 16.5 10.26C16.5172 10.2096 16.5234 10.156 16.518 10.103C16.5126 10.05 16.4958 9.9988 16.4688 9.95287C16.4418 9.90695 16.4052 9.8674 16.3615 9.83692C16.3178 9.80645 16.268 9.78577 16.2156 9.7763C16.1632 9.76684 16.1093 9.76881 16.0577 9.78207C16.0061 9.79534 15.958 9.81959 15.9166 9.85318C15.8753 9.88676 15.8417 9.92888 15.8181 9.97665C15.7945 10.0244 15.7815 10.0767 15.78 10.13C15.7385 10.2203 15.6847 10.3045 15.62 10.38C15.51 10.5 14.98 10.38 14.95 10.38C14.92 10.38 14.72 10.26 14.66 10.14C14.6566 10.0959 14.6442 10.053 14.6234 10.014C14.6026 9.97494 14.574 9.94064 14.5393 9.91323C14.5046 9.88582 14.4646 9.8659 14.4218 9.85472C14.3791 9.84355 14.3344 9.84135 14.2908 9.84828C14.2471 9.85521 14.2053 9.87112 14.1681 9.89499C14.1309 9.91887 14.0991 9.9502 14.0746 9.987C14.0501 10.0238 14.0335 10.0653 14.0258 10.1088C14.0181 10.1524 14.0196 10.197 14.03 10.24C14.0124 10.4713 14.0547 10.7032 14.1528 10.9134C14.2509 11.1236 14.4014 11.3049 14.59 11.44C14.7551 11.5729 14.9582 11.65 15.17 11.66C15.3354 11.6701 15.5011 11.6471 15.6574 11.5921C15.8137 11.5371 15.9574 11.4514 16.08 11.34Z" fill="black"/>
<path fill-rule="evenodd" clip-rule="evenodd" d="M16.05 17.83C15.8503 17.845 15.6497 17.845 15.45 17.83L14.5 17.65C14.2859 17.5999 14.0901 17.4909 13.9346 17.3354C13.7791 17.1799 13.6701 16.9841 13.62 16.77C13.3966 15.8809 13.2891 14.9667 13.3 14.05C13.3084 14.0025 13.3062 13.9538 13.2938 13.9073C13.2813 13.8608 13.2588 13.8175 13.2278 13.7806C13.1968 13.7437 13.1581 13.714 13.1145 13.6937C13.0708 13.6733 13.0232 13.6628 12.975 13.6628C12.9268 13.6628 12.8792 13.6733 12.8356 13.6937C12.7919 13.714 12.7532 13.7437 12.7222 13.7806C12.6913 13.8175 12.6687 13.8608 12.6563 13.9073C12.6438 13.9538 12.6417 14.0025 12.65 14.05C12.4013 15.0636 12.3369 16.1136 12.46 17.15C12.5577 17.5774 12.7849 17.9643 13.1106 18.2578C13.4364 18.5514 13.8447 18.7372 14.28 18.79H15.47C15.713 18.7703 15.9538 18.7302 16.19 18.67C16.4208 18.6102 16.6479 18.5368 16.87 18.45C16.92 18.45 16.95 18.39 16.99 18.35C17.0439 18.3487 17.0961 18.3312 17.14 18.3C17.3844 18.1151 17.5772 17.8707 17.7 17.59C17.8302 17.2193 17.9076 16.8322 17.93 16.44C17.93 16.16 17.98 15.88 17.98 15.59C17.98 15.3 17.98 15.2 17.93 15.01C17.8623 14.5076 17.7382 14.0145 17.56 13.54C17.5517 13.4985 17.5352 13.4591 17.5115 13.4241C17.4879 13.389 17.4575 13.359 17.4222 13.3357C17.3868 13.3125 17.3472 13.2965 17.3057 13.2886C17.2641 13.2808 17.2214 13.2812 17.18 13.29C17.1379 13.297 17.0977 13.3127 17.0619 13.336C17.0261 13.3593 16.9955 13.3897 16.972 13.4254C16.9485 13.4611 16.9327 13.5012 16.9255 13.5433C16.9182 13.5854 16.9198 13.6285 16.93 13.67C16.9092 14.3064 16.8491 14.941 16.75 15.57V16.42C16.823 16.7175 16.8533 17.0239 16.84 17.33C16.821 17.4842 16.7586 17.6299 16.66 17.75C16.4601 17.7983 16.2556 17.8251 16.05 17.83Z" fill="black"/>
<path d="M23.82 18C23.69 17.0036 23.3745 16.0403 22.89 15.16C22.4799 14.4177 21.9209 13.7682 21.2481 13.2519C20.5753 12.7357 19.8031 12.364 18.98 12.16C18.9407 12.146 18.8989 12.1401 18.8572 12.1426C18.8155 12.1451 18.7747 12.1561 18.7374 12.1748C18.7 12.1934 18.6668 12.2195 18.6398 12.2513C18.6127 12.2831 18.5924 12.3201 18.58 12.36C18.5659 12.4 18.5598 12.4425 18.5623 12.4849C18.5647 12.5272 18.5755 12.5687 18.5941 12.6069C18.6127 12.645 18.6388 12.6791 18.6707 12.7071C18.7026 12.7351 18.7398 12.7565 18.78 12.77C20.1264 13.3502 21.1998 14.4236 21.78 15.77C22.1656 16.558 22.4512 17.3911 22.63 18.25C22.9165 19.594 23.0507 20.966 23.03 22.34C23.0284 22.4051 23.0497 22.4688 23.09 22.52C21.3 22.44 19.26 22.29 17.48 22.28H15.73C14.61 22.33 13.5 22.42 12.38 22.5C12.3763 21.922 12.3429 21.3446 12.28 20.77C12.2181 20.4036 12.0631 20.0593 11.83 19.77C11.5525 19.4498 11.1758 19.2316 10.76 19.15C9.99527 19.0367 9.2196 19.0165 8.45001 19.09C7.96001 19.09 7.45001 19.16 6.96001 19.2C7.00195 19.1553 7.03141 19.1004 7.04545 19.0407C7.05949 18.981 7.05761 18.9187 7.04001 18.86C6.98001 18.65 6.94001 18.42 6.89001 18.2C6.93316 18.2056 6.97686 18.2056 7.02001 18.2C7.40453 18.2832 7.79659 18.3268 8.19001 18.33C8.35555 18.3263 8.52006 18.3028 8.68001 18.26C8.84494 18.2183 9.00563 18.1614 9.16001 18.09C9.51203 17.9348 9.84714 17.7438 10.16 17.52C10.16 17.52 10.22 17.52 10.27 17.52C10.3655 17.52 10.4571 17.4821 10.5246 17.4145C10.5921 17.347 10.63 17.2555 10.63 17.16C10.715 16.0817 10.715 14.9983 10.63 13.92C10.63 13.28 10.52 12.65 10.44 12.03C10 8.89999 10.27 8.82999 9.22001 8.76999L7.12001 8.57999C6.67001 8.57999 6.22001 8.50999 5.76001 8.49999C5.30001 8.48999 4.86001 8.49999 4.41001 8.49999C1.00001 8.78999 1.08001 9.05999 0.670007 9.62999C0.603843 9.72077 0.546895 9.81791 0.500006 9.91999C0.456211 10.0231 0.422715 10.1303 0.400006 10.24C0.400006 10.24 0.400006 10.32 0.400006 10.33V14.07C0.394357 14.6252 0.454782 15.1791 0.580006 15.72C0.735078 16.3579 0.956275 16.9779 1.24001 17.57C1.26554 17.6516 1.32089 17.7206 1.39502 17.7632C1.46915 17.8059 1.55663 17.819 1.64001 17.8C1.6889 17.839 1.74785 17.8632 1.81001 17.87C2.04175 17.9806 2.28265 18.071 2.53001 18.14C2.63278 18.1552 2.73723 18.1552 2.84001 18.14H3.15001L3.63001 18L4.00001 19.25C4.02278 19.3065 4.06123 19.3554 4.11084 19.3908C4.16044 19.4263 4.21913 19.4468 4.28001 19.45C3.57001 19.54 2.86001 19.63 2.15001 19.68C1.62001 19.68 1.15001 19.74 0.570006 19.75C0.527646 19.7472 0.485174 19.7532 0.445224 19.7676C0.405273 19.7819 0.368695 19.8043 0.337756 19.8334C0.306818 19.8625 0.282177 19.8976 0.265363 19.9365C0.248548 19.9755 0.239918 20.0175 0.240006 20.06V20.18C0.196773 20.209 0.160767 20.2475 0.134761 20.2925C0.108755 20.3376 0.0934437 20.3881 0.0900065 20.44C0.0442737 20.9587 0.0309145 21.4797 0.0500065 22C0.0708698 22.2852 0.163769 22.5605 0.320006 22.8C0.544655 23.1174 0.852659 23.3666 1.21001 23.52C1.6718 23.7315 2.16489 23.8666 2.67001 23.92C3.46052 24.0019 4.25578 24.0286 5.05001 24C6.21001 24 7.37001 23.79 8.51001 23.71L10.85 23.45C10.9464 23.4423 11.036 23.3972 11.0995 23.3243C11.1631 23.2514 11.1955 23.1565 11.19 23.06C11.1862 23.0113 11.1729 22.9639 11.1507 22.9205C11.1285 22.877 11.0979 22.8384 11.0608 22.8068C11.0236 22.7752 10.9805 22.7512 10.934 22.7363C10.8876 22.7214 10.8386 22.7159 10.79 22.72H8.48001H2.77001C2.37345 22.7259 1.97849 22.6685 1.60001 22.55C1.37555 22.5091 1.16742 22.405 1.00001 22.25C0.874621 22.0882 0.798268 21.8939 0.780006 21.69C0.720006 21.25 0.780006 20.77 0.780006 20.43C2.05034 20.537 3.32562 20.5737 4.60001 20.54H6.20001C6.99001 20.54 7.79001 20.43 8.57001 20.4C9.16226 20.308 9.76065 20.2612 10.36 20.26C10.649 20.2366 10.9357 20.3263 11.16 20.51C11.3601 20.7289 11.4861 21.0053 11.52 21.3C11.61 21.75 11.63 22.22 11.7 22.65C11.6221 22.6573 11.5496 22.6929 11.4962 22.75C11.4428 22.8071 11.4121 22.8818 11.41 22.96C11.41 23.0449 11.4437 23.1263 11.5037 23.1863C11.5637 23.2463 11.6451 23.28 11.73 23.28H12.12H12.2C13.4 23.36 14.59 23.46 15.79 23.51H17.54H19.28C20.64 23.51 22 23.37 23.36 23.3C23.4564 23.2974 23.548 23.2573 23.6152 23.1881C23.6824 23.119 23.72 23.0264 23.72 22.93C23.7187 22.8401 23.6829 22.7542 23.62 22.69C23.6735 22.663 23.7197 22.6234 23.7545 22.5747C23.7894 22.5259 23.8118 22.4694 23.82 22.41C24.0266 20.9472 24.0266 19.4627 23.82 18ZM9.32001 11C9.29001 11.5262 9.29001 12.0537 9.32001 12.58C9.32001 13.22 9.45001 13.85 9.54001 14.48C9.66001 15.3 9.79001 16.11 9.88001 16.92C9.54001 17 9.22001 17.02 8.88001 17.07L8.62001 17.12C8.62001 16.58 8.71001 16.04 8.73001 15.5C8.74506 15.2068 8.74506 14.9131 8.73001 14.62C8.71206 14.3251 8.67868 14.0314 8.63001 13.74C8.51994 13.1494 8.36618 12.5678 8.17001 12C8.26528 11.9801 8.35035 11.9269 8.41001 11.85C8.69001 11.6 8.94001 11.39 9.18001 11.13C9.23001 11.09 9.27001 11 9.32001 11ZM1.00001 11.26C1.18335 11.0753 1.35375 10.8781 1.51001 10.67C1.56961 10.5857 1.6199 10.4951 1.66001 10.4C1.66001 10.3 1.72001 10.21 1.74001 10.11C1.76001 10.01 1.81001 9.71999 1.85001 9.52999C2.72001 9.58999 3.57001 9.68999 4.45001 9.72999H5.77001C6.22001 9.72999 6.67001 9.67999 7.12001 9.64999L8.94001 9.51999L8.71001 9.75999C8.60794 9.86067 8.52042 9.97511 8.45001 10.1C8.36711 10.2209 8.29356 10.3479 8.23001 10.48C8.11001 10.74 8.01001 11 7.90001 11.26C7.0842 11.0744 6.25491 10.954 5.42001 10.9C5.06362 10.8802 4.7064 10.8802 4.35001 10.9C3.99001 10.9 3.64001 10.9 3.28001 10.97C2.49001 11.06 1.72001 11.23 0.950006 11.37C0.940006 11.3 1.00001 11.29 1.00001 11.26ZM5.30001 19.34L4.43001 19.43C4.50152 19.4029 4.55998 19.3495 4.59343 19.2807C4.62689 19.2119 4.63282 19.133 4.61001 19.06C4.5413 18.7562 4.4879 18.4491 4.45001 18.14C4.45001 17.83 4.38001 17.52 4.36001 17.21C4.31187 16.7849 4.28517 16.3577 4.28001 15.93C4.2725 15.7024 4.30638 15.4754 4.38001 15.26C4.38001 15.14 4.44001 15.05 4.51001 15.05C4.5864 15.0652 4.65842 15.0973 4.72073 15.144C4.78304 15.1908 4.83405 15.2509 4.87001 15.32C5.16615 15.7417 5.40177 16.2029 5.57001 16.69C5.87001 17.5 6.09001 18.37 6.40001 19.12C6.40001 19.18 6.48001 19.21 6.52001 19.25C6.11001 19.28 5.70001 19.3 5.30001 19.34ZM6.43001 16C6.30141 15.5439 6.11311 15.1068 5.87001 14.7C5.73091 14.4632 5.53618 14.2638 5.3027 14.1192C5.06921 13.9746 4.80399 13.889 4.53001 13.87C4.21806 13.8676 3.91534 13.9757 3.67554 14.1753C3.43574 14.3748 3.27435 14.6528 3.22001 14.96C3.14387 15.3011 3.1236 15.6524 3.16001 16C3.2145 16.3644 3.29131 16.725 3.39001 17.08C3.28828 17.0474 3.18478 17.0207 3.08001 17C2.98024 16.9902 2.87977 16.9902 2.78001 17C2.67693 16.9896 2.57308 16.9896 2.47001 17C2.25614 17.0556 2.04842 17.1327 1.85001 17.23C1.75545 16.6639 1.69202 16.093 1.66001 15.52C1.66001 15.11 1.66001 14.69 1.55001 14.28C1.45001 13.55 1.28001 12.86 1.17001 12.17C1.16519 12.1091 1.14451 12.0504 1.11001 12C1.95001 12 2.79001 12.1 3.66001 12.1H5.31001C6.00001 12 6.74001 12 7.45001 12V13.83V14.68C7.45001 14.96 7.45001 15.25 7.53001 15.54C7.61001 16.14 7.70001 16.73 7.79001 17.33C7.53001 17.43 7.28001 17.55 6.99001 17.64C6.9146 17.6446 6.84348 17.6766 6.79001 17.73C6.69962 17.1476 6.57947 16.5701 6.43001 16Z" fill="black"/>
<path d="M20.88 20C20.9196 19.6347 20.9397 19.2675 20.94 18.9V17.79C20.87 16.94 20.73 16.1 20.59 15.25C20.5848 15.1642 20.5464 15.0839 20.4829 15.026C20.4194 14.9681 20.3359 14.9372 20.25 14.94C20.2079 14.9425 20.1668 14.9534 20.129 14.9718C20.0911 14.9903 20.0573 15.0161 20.0294 15.0477C20.0015 15.0793 19.9802 15.1161 19.9665 15.1559C19.9529 15.1958 19.9473 15.2379 19.95 15.28C19.95 16.28 19.79 17.2 19.75 18.16V19.88V21.31C19.96 22.15 20.28 22.18 20.75 21.31C20.78 20.82 20.84 20.39 20.88 20Z" fill="black"/>
</g>
<defs>
<clipPath id="clip0_1050_8327">
<rect width="24" height="24" fill="white"/>
</clipPath>
</defs>
</svg>
