<svg width="24" height="24" viewBox="0 0 24 24" fill="none" xmlns="http://www.w3.org/2000/svg">
<g clip-path="url(#clip0_1047_6439)">
<path fill-rule="evenodd" clip-rule="evenodd" d="M14.25 14.07C14.01 13.19 13.71 12.33 13.43 11.47C13.3028 11.0368 13.1389 10.6153 12.94 10.21C12.8912 10.1152 12.8185 10.0349 12.729 9.97701C12.6395 9.91911 12.5364 9.88566 12.43 9.88C12.1978 9.88668 11.9722 9.95954 11.78 10.09C11.4972 10.3007 11.2299 10.5312 10.98 10.78C10.48 11.19 9.98 11.6 9.46 11.96C9.11881 12.2007 8.75747 12.4115 8.38 12.59C7.71955 12.9018 7.02941 13.1464 6.32 13.32C5.62265 13.5053 4.90046 13.5795 4.18 13.54C3.89 13.54 3.59 13.46 3.3 13.41C2.59 13.26 1.89 13.06 1.19 12.94C0.89 12.88 0.56 13.64 0.56 13.66C0.652229 14.3802 0.799323 15.0922 1 15.79C1.27 16.79 1.64 17.85 2 18.85C2.24845 19.5692 2.60962 20.2442 3.07 20.85C3.53597 21.4326 4.10552 21.9242 4.75 22.3C5.23876 22.5772 5.75069 22.8114 6.28 23C7.06672 23.2793 7.87202 23.5032 8.69 23.67C9.01 23.74 9.42 23.88 9.8 23.94C10.0023 23.9693 10.2077 23.9693 10.41 23.94C10.7556 23.8815 11.0798 23.7332 11.35 23.51C11.8108 23.0804 12.2142 22.593 12.55 22.06C13.3245 20.993 13.9502 19.8257 14.41 18.59C14.7011 17.7076 14.7832 16.7696 14.65 15.85C14.5549 15.2487 14.4213 14.6542 14.25 14.07ZM13.37 18.31C12.9462 19.4455 12.371 20.5185 11.66 21.5C11.4187 21.8946 11.1372 22.2633 10.82 22.6C10.6811 22.7703 10.4922 22.8927 10.28 22.95C10.1276 22.9743 9.97237 22.9743 9.82 22.95C9.49 22.89 9.16 22.79 8.89 22.74C8.25179 22.6143 7.62086 22.454 7 22.26C6.38031 22.0818 5.78051 21.8405 5.21 21.54C4.6293 21.231 4.1133 20.8135 3.69 20.31C3.26682 19.7938 2.9292 19.2131 2.69 18.59C2.31 17.59 1.92 16.59 1.62 15.59C1.41594 14.9373 1.26873 14.2681 1.18 13.59C1.86 13.73 2.54 13.94 3.18 14.09C3.50937 14.1657 3.84345 14.2192 4.18 14.25C4.97726 14.3267 5.78173 14.2692 6.56 14.08C7.32922 13.9123 8.07965 13.6677 8.8 13.35C9.22079 13.1636 9.6255 12.9429 10.01 12.69C10.57 12.33 11.1 11.91 11.63 11.5C11.77 11.39 11.96 11.2 12.16 11.04C12.273 11.2888 12.4033 11.5294 12.55 11.76C12.8 12.62 13.07 13.48 13.3 14.35C13.4507 14.9131 13.5708 15.4839 13.66 16.06C13.737 16.8223 13.6378 17.5921 13.37 18.31Z" fill="black"/>
<path fill-rule="evenodd" clip-rule="evenodd" d="M9.54 18.7399C9.25806 18.7179 8.97442 18.7415 8.7 18.8099C8.42077 18.8673 8.15568 18.9795 7.92 19.1399C7.37916 19.517 6.995 20.079 6.84 20.7199C6.82524 20.754 6.81741 20.7907 6.81698 20.8279C6.81654 20.865 6.82351 20.9019 6.83747 20.9363C6.85143 20.9708 6.87211 21.0021 6.8983 21.0284C6.92448 21.0548 6.95566 21.0757 6.99 21.0899C7.05915 21.117 7.13608 21.1166 7.20492 21.0887C7.27377 21.0608 7.32928 21.0075 7.36 20.9399C7.61205 20.5362 7.98716 20.2242 8.43 20.0499C8.61533 19.9733 8.80579 19.9098 9 19.8599C9.65744 19.6723 10.3573 19.6968 11 19.9299C11.0374 19.9496 11.0784 19.9617 11.1205 19.9656C11.1626 19.9695 11.2051 19.965 11.2455 19.9525C11.2859 19.9399 11.3234 19.9196 11.3559 19.8925C11.3884 19.8655 11.4153 19.8323 11.435 19.7949C11.4547 19.7575 11.4668 19.7165 11.4707 19.6744C11.4746 19.6323 11.4701 19.5898 11.4576 19.5494C11.4451 19.509 11.4247 19.4715 11.3976 19.439C11.3706 19.4065 11.3374 19.3796 11.3 19.3599C10.7768 19.0046 10.1704 18.791 9.54 18.7399Z" fill="black"/>
<path fill-rule="evenodd" clip-rule="evenodd" d="M11.34 14.75C11.2379 14.8903 11.108 15.0081 10.9582 15.0958C10.8085 15.1836 10.6423 15.2395 10.47 15.26L10.21 15.33C9.96771 15.3933 9.7114 15.3757 9.48 15.28C9.45111 15.2564 9.41785 15.2387 9.38211 15.2279C9.34637 15.2171 9.30886 15.2134 9.27172 15.2172C9.1967 15.2247 9.12774 15.2617 9.08 15.32C9.05636 15.3489 9.03865 15.3822 9.02786 15.4179C9.01708 15.4536 9.01344 15.4911 9.01716 15.5283C9.02466 15.6033 9.06165 15.6723 9.12 15.72C9.24603 15.8933 9.40578 16.0393 9.58965 16.1493C9.77353 16.2592 9.97773 16.3309 10.19 16.36C10.3846 16.3881 10.5831 16.371 10.77 16.31C10.9525 16.2579 11.1225 16.1694 11.27 16.05C11.5937 15.7981 11.8256 15.4467 11.93 15.05C11.9483 15.0114 11.9587 14.9694 11.9606 14.9267C11.9625 14.884 11.9557 14.8413 11.9408 14.8012C11.9259 14.7611 11.9031 14.7244 11.8738 14.6933C11.8444 14.6622 11.8091 14.6373 11.77 14.62C11.6952 14.5834 11.6092 14.5764 11.5295 14.6005C11.4497 14.6247 11.382 14.6781 11.34 14.75Z" fill="black"/>
<path fill-rule="evenodd" clip-rule="evenodd" d="M7.23 16.07C7.1701 16.0108 7.08925 15.9775 7.005 15.9775C6.92075 15.9775 6.83991 16.0108 6.78 16.07C6.33993 16.3481 5.8306 16.4971 5.31 16.5H4.87C4.49399 16.5171 4.11797 16.4663 3.76 16.35C3.72706 16.3242 3.68892 16.3057 3.6482 16.296C3.60747 16.2863 3.56513 16.2856 3.52408 16.2938C3.48303 16.302 3.44424 16.319 3.41039 16.3436C3.37653 16.3683 3.34841 16.3999 3.32795 16.4365C3.3075 16.473 3.29519 16.5135 3.29189 16.5552C3.28858 16.597 3.29435 16.6389 3.3088 16.6782C3.32324 16.7175 3.34602 16.7532 3.37558 16.7829C3.40513 16.8125 3.44076 16.8354 3.48 16.85C3.84182 17.1765 4.27772 17.4098 4.75 17.53C4.96522 17.5654 5.18478 17.5654 5.4 17.53C5.60537 17.5105 5.80718 17.4634 6 17.39C6.44814 17.1926 6.845 16.8949 7.16 16.52C7.19551 16.4961 7.2257 16.4652 7.24867 16.4291C7.27163 16.393 7.28689 16.3526 7.29346 16.3103C7.30003 16.268 7.29779 16.2249 7.28687 16.1835C7.27595 16.1422 7.25659 16.1035 7.23 16.07Z" fill="black"/>
<path fill-rule="evenodd" clip-rule="evenodd" d="M23.24 2.35995C23.1794 2.17184 23.0644 2.0059 22.9096 1.8831C22.7547 1.76029 22.567 1.68612 22.37 1.66995C21.8391 1.69685 21.3158 1.80825 20.82 1.99995C20.3635 2.09861 19.8969 2.14226 19.43 2.12995C18.9507 2.12283 18.4727 2.07937 18 1.99995C17.5022 1.89773 17.0138 1.75389 16.54 1.56995C15.8124 1.28303 15.1042 0.948989 14.42 0.569949C14.011 0.287888 13.5479 0.093794 13.06 -5.09296e-05C12.9123 -0.0115331 12.7637 0.00641954 12.6229 0.0527666C12.4822 0.0991137 12.352 0.172934 12.24 0.269949C12.0448 0.458985 11.9122 0.703276 11.86 0.969949C11.74 1.41995 11.7 1.96995 11.65 2.26995L11.42 3.75995L10.72 8.33995C10.7144 8.37677 10.7161 8.41435 10.7252 8.45048C10.7342 8.48661 10.7504 8.52057 10.7728 8.55037C10.7951 8.58017 10.8232 8.60522 10.8553 8.62403C10.8875 8.64285 10.9231 8.65506 10.96 8.65995C10.9968 8.66559 11.0344 8.66383 11.0705 8.65477C11.1067 8.64571 11.1406 8.62953 11.1704 8.60718C11.2002 8.58483 11.2253 8.55676 11.2441 8.52461C11.2629 8.49246 11.2751 8.45688 11.28 8.41995L12.16 3.88995L12.45 2.42995C12.5 2.20995 12.55 1.75995 12.65 1.35995C12.6789 1.23053 12.7333 1.10815 12.81 0.999949C12.93 0.909949 13.08 0.999949 13.22 0.999949C13.4683 1.10358 13.7061 1.23083 13.93 1.37995C14.5202 1.74837 15.1312 2.08226 15.76 2.37995C16.3993 2.68263 17.07 2.91402 17.76 3.06995C18.2936 3.17932 18.8356 3.24288 19.38 3.25995C19.9337 3.28426 20.4883 3.23721 21.03 3.11995C21.3 3.05995 21.66 2.86995 22.03 2.78995C22.12 2.78995 22.21 2.70995 22.25 2.78995C22.4098 3.25322 22.4375 3.75183 22.33 4.22995C22.21 5.11995 21.91 6.06995 21.76 6.73995C21.61 7.40995 21.44 8.54995 21.16 9.47995C21.0061 10.0249 20.7592 10.5392 20.43 10.9999C20.1925 11.304 19.9169 11.5762 19.61 11.8099C19.1203 12.1711 18.5981 12.4858 18.05 12.7499C17.6815 12.9445 17.3007 13.1149 16.91 13.2599C16.6869 13.3458 16.449 13.3866 16.21 13.3799C16.1679 13.3744 16.1252 13.3772 16.0842 13.3883C16.0432 13.3994 16.0049 13.4185 15.9714 13.4446C15.9379 13.4706 15.9099 13.5031 15.889 13.5401C15.8682 13.577 15.8549 13.6178 15.85 13.6599C15.8429 13.7022 15.8447 13.7455 15.8552 13.787C15.8657 13.8286 15.8848 13.8675 15.9111 13.9013C15.9374 13.9352 15.9704 13.9632 16.0081 13.9836C16.0458 14.004 16.0873 14.0164 16.13 14.0199C16.468 14.0474 16.8081 14.0066 17.13 13.8999C17.554 13.7611 17.9683 13.5941 18.37 13.3999C18.9691 13.1191 19.5414 12.7844 20.08 12.3999C20.4524 12.1348 20.7886 11.8222 21.08 11.4699C21.4832 10.9464 21.7943 10.358 22 9.72995C22.31 8.79995 22.5 7.77995 22.71 6.95995C23.0334 5.96139 23.2742 4.93795 23.43 3.89995C23.4888 3.37882 23.4237 2.85116 23.24 2.35995Z" fill="black"/>
<path fill-rule="evenodd" clip-rule="evenodd" d="M13.1 5.35992C13.3812 5.34689 13.6616 5.39819 13.92 5.50992L14.18 5.63992L14.58 5.83992C14.9499 6.03293 15.2873 6.28262 15.58 6.57992C15.6302 6.64876 15.705 6.69553 15.7889 6.71044C15.8728 6.72535 15.9592 6.70725 16.03 6.65992C16.0995 6.60796 16.1466 6.53136 16.1614 6.44583C16.1763 6.3603 16.1579 6.27232 16.11 6.19992C15.9221 5.80352 15.6685 5.44175 15.36 5.12992C15.2161 4.99265 15.0547 4.87496 14.88 4.77992C14.697 4.67617 14.4974 4.60511 14.29 4.56992C13.815 4.49667 13.3291 4.58469 12.91 4.81992C12.8744 4.83024 12.8413 4.84752 12.8124 4.87075C12.7836 4.89398 12.7596 4.9227 12.7419 4.95525C12.7243 4.98781 12.7132 5.02354 12.7095 5.06039C12.7057 5.09724 12.7093 5.13447 12.72 5.16992C12.7312 5.20818 12.7502 5.24372 12.7758 5.27431C12.8013 5.30491 12.8329 5.3299 12.8686 5.34773C12.9043 5.36556 12.9432 5.37585 12.983 5.37794C13.0228 5.38004 13.0627 5.37391 13.1 5.35992Z" fill="black"/>
<path fill-rule="evenodd" clip-rule="evenodd" d="M18.63 7.12C18.8434 6.91126 19.0819 6.72987 19.34 6.58C19.4574 6.49718 19.5811 6.42363 19.71 6.36C19.8027 6.30834 19.8997 6.26484 20 6.23C20.213 6.14726 20.4427 6.11641 20.67 6.14C20.7327 6.15372 20.7982 6.14762 20.8573 6.12254C20.9164 6.09746 20.9663 6.05464 21 6C21.0289 5.91777 21.0241 5.82746 20.9866 5.74877C20.9491 5.67008 20.882 5.60941 20.8 5.58C20.3751 5.32965 19.8694 5.25435 19.39 5.37C19.2679 5.40186 19.1504 5.4489 19.04 5.51C18.8853 5.60381 18.744 5.71819 18.62 5.85C18.3795 6.14386 18.2024 6.48434 18.1 6.85C18.0742 6.88294 18.0558 6.92108 18.046 6.9618C18.0363 7.00253 18.0356 7.04487 18.0438 7.08592C18.052 7.12697 18.069 7.16576 18.0936 7.19962C18.1183 7.23347 18.1499 7.26159 18.1865 7.28205C18.223 7.3025 18.2635 7.31481 18.3052 7.31811C18.347 7.32142 18.3889 7.31565 18.4282 7.30121C18.4675 7.28676 18.5032 7.26398 18.5329 7.23442C18.5625 7.20487 18.5854 7.16925 18.6 7.13L18.63 7.12Z" fill="black"/>
<path fill-rule="evenodd" clip-rule="evenodd" d="M16.85 10.9C17.4099 10.8387 17.9477 10.6469 18.42 10.34C18.4588 10.3238 18.4939 10.2998 18.5231 10.2696C18.5524 10.2394 18.5752 10.2036 18.5901 10.1643C18.6051 10.125 18.6119 10.0831 18.6102 10.0411C18.6084 9.9991 18.5982 9.95789 18.58 9.91998C18.5637 9.87996 18.5395 9.84367 18.5087 9.81327C18.478 9.78288 18.4415 9.75902 18.4013 9.74314C18.3611 9.72725 18.3181 9.71967 18.275 9.72085C18.2318 9.72202 18.1893 9.73193 18.15 9.74998C17.5539 9.93413 16.9161 9.93413 16.32 9.74998C16.1476 9.71264 15.9773 9.6659 15.81 9.60998C15.3701 9.48468 14.9496 9.29962 14.56 9.05998C14.5056 9.00563 14.4319 8.9751 14.355 8.9751C14.2781 8.9751 14.2044 9.00563 14.15 9.05998C14.1234 9.08605 14.1023 9.11716 14.0878 9.15151C14.0734 9.18585 14.066 9.22273 14.066 9.25998C14.066 9.29723 14.0734 9.3341 14.0878 9.36845C14.1023 9.40279 14.1234 9.43391 14.15 9.45998C14.4826 9.89855 14.8969 10.2687 15.37 10.55C15.5899 10.6671 15.8257 10.7513 16.07 10.8C16.3237 10.8715 16.5865 10.9052 16.85 10.9Z" fill="black"/>
</g>
<defs>
<clipPath id="clip0_1047_6439">
<rect width="24" height="24" fill="white"/>
</clipPath>
</defs>
</svg>
