<svg width="24" height="24" viewBox="0 0 24 24" fill="none" xmlns="http://www.w3.org/2000/svg">
<g clip-path="url(#clip0_1035_5090)">
<path fill-rule="evenodd" clip-rule="evenodd" d="M17.52 5.13C17.19 4.89 17.3 5.13 17.17 4.58C16.9154 3.389 16.5813 2.21637 16.17 1.07C16.0895 0.858962 15.955 0.672754 15.78 0.53C15.21 0.15 9.2 -0.47 8.49 0.53C7.81386 1.9282 7.28436 3.39269 6.91 4.9C5.87326 5.60917 5.00015 6.53184 4.34924 7.60611C3.69832 8.68038 3.28465 9.88142 3.13596 11.1287C2.98728 12.3759 3.10702 13.6406 3.48715 14.8377C3.86729 16.0349 4.49903 17.137 5.34 18.07C8.74 21.73 14.56 21.3 17.95 18.68C18.0141 18.6231 18.0543 18.5442 18.0627 18.4589C18.071 18.3736 18.0469 18.2883 17.9951 18.2201C17.9433 18.1519 17.8676 18.1057 17.7833 18.0909C17.6989 18.076 17.612 18.0936 17.54 18.14C14.4 20.47 9.07 20.77 6.07 17.4C5.20631 16.3867 4.61238 15.1718 4.34325 13.8678C4.07411 12.5639 4.13848 11.2131 4.53039 9.9406C4.9223 8.66815 5.62907 7.5152 6.58519 6.58862C7.54132 5.66203 8.71587 4.99179 10 4.64C11.7328 4.13749 13.5846 4.23548 15.2547 4.91804C16.9248 5.60061 18.3152 6.82767 19.2 8.4C20.0565 10.0267 20.4049 11.8731 20.2 13.7C19.95 15.35 19.07 15.59 19.52 15.92C19.5824 15.9688 19.6616 15.991 19.7403 15.9816C19.819 15.9722 19.8908 15.9321 19.94 15.87C21.77 13.49 21.14 7.81 17.52 5.13ZM7.76 4.37C8.91 1.37 9.2 1.3 9.24 1.21C11.2413 1.1031 13.248 1.15996 15.24 1.38C15.08 1.29 15.24 0.87 16.39 4.38C15.0776 3.62493 13.5904 3.22671 12.0763 3.22495C10.5623 3.2232 9.07411 3.61797 7.76 4.37Z" fill="black"/>
<path fill-rule="evenodd" clip-rule="evenodd" d="M16.4 20.43C15.8 20.26 16.05 21.23 15.09 22.63C14.76 22.72 9.23 23.06 9.04 22.78C8.60536 22.0278 8.22441 21.2459 7.9 20.44C7.86667 20.3755 7.81105 20.3252 7.74348 20.2986C7.6759 20.2719 7.60096 20.2707 7.53255 20.2951C7.46415 20.3196 7.40693 20.368 7.37152 20.4314C7.33611 20.4948 7.32491 20.5689 7.34 20.64C7.59 21.48 8.15 23.46 8.67 23.64C10.49 24.34 15.17 23.71 15.67 23.39C16.17 23.07 16.43 21.7 16.67 20.81C16.6774 20.7249 16.6543 20.64 16.6048 20.5704C16.5554 20.5008 16.4828 20.451 16.4 20.43Z" fill="black"/>
<path d="M11.51 5.61C11.51 5.96 11.51 6.29 11.45 6.61V7.11C11.3956 7.37534 11.4235 7.65096 11.53 7.9C11.5909 7.99957 11.676 8.08206 11.7775 8.13978C11.8789 8.19749 11.9933 8.22853 12.11 8.23C12.2275 8.23256 12.3434 8.20322 12.4456 8.14511C12.5477 8.087 12.6322 8.00229 12.69 7.9C12.7726 7.75801 12.8077 7.59332 12.79 7.43V7.22V7L12.7 6.49L12.5 6V5.87C12.5 5.76 12.5 5.96 12.5 5.87V5.6C12.4957 5.47648 12.4459 5.35892 12.36 5.27C12.3128 5.2244 12.2559 5.18996 12.1936 5.1692C12.1313 5.14843 12.0652 5.14187 12 5.15C11.8788 5.15255 11.7633 5.20184 11.6776 5.28756C11.5918 5.37327 11.5426 5.4888 11.54 5.61H11.51Z" fill="black"/>
<path d="M16.24 7.2C15.9988 7.44304 15.7451 7.67335 15.48 7.89L15.09 8.22C14.8642 8.36665 14.6895 8.57979 14.59 8.83C14.5609 8.94464 14.5622 9.0649 14.5937 9.17889C14.6253 9.29288 14.6861 9.39667 14.77 9.48C14.8526 9.56485 14.9568 9.62553 15.0713 9.65549C15.1859 9.68545 15.3064 9.68355 15.42 9.65C15.5744 9.60722 15.7111 9.51611 15.81 9.39C15.8588 9.33774 15.9023 9.28079 15.94 9.22L16.07 9L16.36 8.57C16.46 8.44 16.55 8.3 16.64 8.16C16.6691 8.12519 16.6959 8.08844 16.72 8.05C16.66 8.12 16.77 7.97 16.72 8.05L16.89 7.84C16.9592 7.75129 16.9978 7.64251 17 7.53C16.9988 7.40583 16.9484 7.28719 16.86 7.2C16.7709 7.1156 16.6528 7.06857 16.53 7.06857C16.4072 7.06857 16.2891 7.1156 16.2 7.2H16.24Z" fill="black"/>
<path d="M7 7.83C7.25 8.08 7.46 8.34 7.69 8.6L8.05 9C8.19665 9.22582 8.40979 9.40053 8.66 9.5C8.77391 9.52845 8.89314 9.52779 9.00673 9.49808C9.12032 9.46837 9.22461 9.41057 9.31 9.33C9.39394 9.2468 9.454 9.14259 9.4839 9.02825C9.5138 8.91391 9.51246 8.79364 9.48 8.68C9.43489 8.52385 9.3444 8.38462 9.22 8.28L9.05 8.16L8.86 8L8.44 7.7L8 7.43L7.89 7.36C7.8 7.3 7.96 7.42 7.89 7.36L7.68 7.18C7.59085 7.0956 7.47276 7.04857 7.35 7.04857C7.22724 7.04857 7.10915 7.0956 7.02 7.18C6.9356 7.26915 6.88857 7.38724 6.88857 7.51C6.88857 7.63276 6.9356 7.75085 7.02 7.84L7 7.83Z" fill="black"/>
<path d="M17.33 16.35C17.087 16.1088 16.8566 15.8551 16.64 15.59L16.31 15.2C16.1634 14.9742 15.9502 14.7995 15.7 14.7C15.5854 14.6709 15.4651 14.6722 15.3511 14.7037C15.2371 14.7353 15.1333 14.7961 15.05 14.88C14.966 14.961 14.9058 15.0635 14.8758 15.1763C14.8458 15.2891 14.8473 15.408 14.88 15.52C14.9228 15.6772 15.0137 15.8171 15.14 15.92L15.31 16.05L15.49 16.18L15.92 16.47L16.33 16.75L16.44 16.83C16.37 16.77 16.52 16.88 16.44 16.83L16.65 17C16.7399 17.0843 16.8569 17.1339 16.98 17.14C17.1042 17.1388 17.2228 17.0884 17.31 17C17.3944 16.9109 17.4414 16.7928 17.4414 16.67C17.4414 16.5472 17.3944 16.4291 17.31 16.34L17.33 16.35Z" fill="black"/>
<path d="M7 16.35C7.25 16.11 7.46 15.85 7.69 15.59L8.02 15.2C8.16665 14.9742 8.37979 14.7995 8.63 14.7C8.74464 14.6709 8.8649 14.6722 8.97889 14.7037C9.09288 14.7353 9.19667 14.7961 9.28 14.88C9.364 14.961 9.42424 15.0635 9.45421 15.1763C9.48417 15.2891 9.48272 15.408 9.45 15.52C9.40724 15.6772 9.31632 15.8171 9.19 15.92L9.02 16.05L8.83 16.18L8.41 16.47L8 16.75L7.89 16.83C7.8 16.88 7.96 16.77 7.89 16.83L7.69 17C7.60007 17.0843 7.48312 17.1339 7.36 17.14C7.2935 17.1435 7.22702 17.1328 7.16495 17.1087C7.10289 17.0846 7.04666 17.0475 7 17C6.9156 16.9109 6.86857 16.7928 6.86857 16.67C6.86857 16.5472 6.9156 16.4291 7 16.34V16.35Z" fill="black"/>
<path d="M18.81 11.73C18.46 11.73 18.12 11.73 17.81 11.67H17.3C17.0371 11.614 16.7632 11.6456 16.52 11.76C16.4166 11.8173 16.3304 11.9014 16.2706 12.0035C16.2108 12.1055 16.1795 12.2217 16.18 12.34C16.1815 12.4579 16.2137 12.5733 16.2733 12.675C16.3329 12.7766 16.4179 12.8611 16.52 12.92C16.6671 12.9979 16.8356 13.0259 17 13H17.2H17.43L17.93 12.91L18.42 12.82H18.55C18.46 12.82 18.65 12.82 18.55 12.82H18.83C18.89 12.8192 18.9492 12.8064 19.0041 12.7823C19.0591 12.7583 19.1087 12.7235 19.15 12.68C19.1947 12.6375 19.2302 12.5863 19.2543 12.5295C19.2784 12.4728 19.2905 12.4117 19.29 12.35C19.2874 12.2288 19.2382 12.1133 19.1524 12.0276C19.0667 11.9418 18.9512 11.8926 18.83 11.89L18.81 11.73Z" fill="black"/>
<path d="M13 18.57C13 18.22 13 17.88 13.06 17.57V17.06C13.116 16.7971 13.0844 16.5232 12.97 16.28C12.9127 16.1766 12.8286 16.0904 12.7265 16.0306C12.6245 15.9708 12.5083 15.9395 12.39 15.94C12.2721 15.9415 12.1567 15.9737 12.055 16.0333C11.9534 16.0929 11.8689 16.1779 11.81 16.28C11.7308 16.4231 11.6993 16.5878 11.72 16.75V16.95C11.7152 17.0266 11.7152 17.1034 11.72 17.18L11.81 17.68L11.9 18.17V18.3C11.9 18.21 11.9 18.4 11.9 18.3V18.58C11.9008 18.64 11.9136 18.6992 11.9377 18.7541C11.9617 18.8091 11.9965 18.8587 12.04 18.9C12.0813 18.9462 12.1323 18.9828 12.1893 19.007C12.2464 19.0312 12.3081 19.0425 12.37 19.04C12.4912 19.0374 12.6067 18.9882 12.6924 18.9024C12.7782 18.8167 12.8274 18.7012 12.83 18.58L13 18.57Z" fill="black"/>
<path d="M5.39 12.91C5.73 12.91 6.07 12.91 6.39 12.96H6.89C7.15473 13.0246 7.43359 12.9963 7.68 12.88C7.7728 12.8223 7.85033 12.7431 7.90604 12.6491C7.96174 12.5551 7.99397 12.4491 8 12.34C8.00256 12.2225 7.97322 12.1066 7.91511 12.0044C7.857 11.9023 7.77229 11.8178 7.67 11.76C7.52687 11.6808 7.36225 11.6493 7.2 11.67H6.99L6.77 11.72L6.26 11.81L5.78 11.9H5.64C5.54 11.9 5.74 11.9 5.64 11.9H5.37C5.24763 11.9006 5.12991 11.947 5.04 12.03C4.9557 12.1199 4.90608 12.2369 4.9 12.36C4.90493 12.4831 4.95603 12.5998 5.04313 12.6869C5.13022 12.774 5.24693 12.8251 5.37 12.83L5.39 12.91Z" fill="black"/>
</g>
<defs>
<clipPath id="clip0_1035_5090">
<rect width="24" height="24" fill="white"/>
</clipPath>
</defs>
</svg>
