<svg width="24" height="24" viewBox="0 0 24 24" fill="none" xmlns="http://www.w3.org/2000/svg">
<g clip-path="url(#clip0_1035_5103)">
<path fill-rule="evenodd" clip-rule="evenodd" d="M15.38 9.71C15.2388 9.53246 15.0886 9.36224 14.93 9.2C14.62 8.83 14.32 8.45 14 8.08C13.68 7.71 13.56 7.58 13.32 7.35C13.2246 7.2235 13.1175 7.10631 13 7C12.8796 6.9075 12.7526 6.82395 12.62 6.75C12.518 6.67376 12.4072 6.60997 12.29 6.56C12.1891 6.53511 12.0834 6.53877 11.9845 6.57055C11.8856 6.60234 11.7975 6.66101 11.73 6.74C11.6624 6.83388 11.6117 6.93877 11.58 7.05C11.5482 7.21167 11.5281 7.37543 11.52 7.54L11.4 9.01L11.3 10.86L8.61 8.86C8.54743 8.81698 8.47049 8.80022 8.3957 8.8133C8.32091 8.82639 8.25424 8.86829 8.21 8.93C8.18738 8.96052 8.1712 8.99532 8.16245 9.03228C8.1537 9.06925 8.15257 9.10761 8.15911 9.14503C8.16566 9.18245 8.17976 9.21815 8.20054 9.24995C8.22132 9.28174 8.24836 9.30898 8.28 9.33C8.73 9.67 9.47 10.27 10.28 10.92L11.28 11.74V12.1C10.4014 12.7501 9.4829 13.3446 8.53 13.88C8.48472 13.8939 8.44297 13.9174 8.40758 13.9489C8.37219 13.9804 8.34399 14.0191 8.3249 14.0625C8.30581 14.1058 8.29627 14.1528 8.29694 14.2001C8.29761 14.2475 8.30847 14.2941 8.32878 14.3369C8.34909 14.3797 8.37837 14.4176 8.41464 14.4481C8.4509 14.4786 8.49331 14.5009 8.53896 14.5135C8.58461 14.5261 8.63245 14.5288 8.67922 14.5213C8.72599 14.5138 8.77059 14.4963 8.81 14.47C9.62108 14.0313 10.4027 13.5403 11.15 13L11.06 14.56C11.06 14.95 10.98 15.36 10.98 15.77C10.9776 16.0615 11.001 16.3526 11.05 16.64C11.0791 16.8316 11.1294 17.0195 11.2 17.2C11.2414 17.3062 11.3105 17.3994 11.4 17.47C11.4816 17.5487 11.5872 17.598 11.7 17.61C12.0975 17.468 12.4691 17.262 12.8 17C13.15 16.77 13.5 16.53 13.8 16.27C14.1466 16.0204 14.4804 15.7534 14.8 15.47C15.0142 15.2786 15.2024 15.0601 15.36 14.82C15.4143 14.7239 15.4429 14.6154 15.4429 14.505C15.4429 14.3946 15.4143 14.2861 15.36 14.19C15.2196 13.9845 15.0551 13.7965 14.87 13.63C14.5 13.29 14.03 12.98 13.68 12.7L12.75 12H12.83C13.1541 11.8095 13.4879 11.6359 13.83 11.48C14.08 11.38 14.33 11.28 14.57 11.16C14.7461 11.0783 14.9165 10.9848 15.08 10.88C15.2145 10.7904 15.3416 10.6901 15.46 10.58C15.5166 10.5254 15.5583 10.4572 15.5811 10.3819C15.6038 10.3067 15.6069 10.2268 15.59 10.15C15.5482 9.99148 15.4769 9.84223 15.38 9.71ZM13.18 13.38C13.46 13.61 13.83 13.88 14.18 14.17C14.3187 14.2883 14.4429 14.4225 14.55 14.57C14.44 14.66 14.26 14.76 14.22 14.79C13.92 15.04 13.61 15.28 13.29 15.5C12.97 15.72 12.63 15.95 12.29 16.15L12.13 16.26C12.12 16.1102 12.12 15.9598 12.13 15.81C12.13 15.43 12.13 15.05 12.21 14.68C12.27 14 12.32 13.32 12.35 12.68L13.18 13.38ZM14.18 10.38C13.95 10.5 13.72 10.6 13.48 10.71C13.1067 10.8878 12.7429 11.0847 12.39 11.3H12.34L12.43 9.07L12.52 8L12.62 8.08L14.23 9.82L14.56 10.16C14.4443 10.2371 14.3241 10.3073 14.2 10.37L14.18 10.38Z" fill="black"/>
<path fill-rule="evenodd" clip-rule="evenodd" d="M16 5.33C14.8045 4.64209 13.4493 4.28004 12.07 4.28004C10.6907 4.28004 9.33553 4.64209 8.14 5.33L7.36 5.81C6.41173 6.45328 5.61272 7.29277 5.01705 8.27165C4.42137 9.25052 4.04294 10.3459 3.90734 11.4838C3.77175 12.6216 3.88218 13.7753 4.23114 14.8667C4.5801 15.9581 5.15946 16.9619 5.93 17.81C9.03 21.15 14.35 20.81 17.44 18.37C17.4788 18.3484 17.5124 18.3188 17.5388 18.2831C17.5651 18.2475 17.5835 18.2066 17.5926 18.1632C17.6018 18.1198 17.6016 18.0749 17.5919 18.0317C17.5823 17.9884 17.5634 17.9477 17.5367 17.9123C17.51 17.8769 17.476 17.8476 17.437 17.8265C17.398 17.8054 17.3549 17.7929 17.3107 17.7898C17.2665 17.7868 17.2221 17.7932 17.1806 17.8088C17.139 17.8243 17.1013 17.8486 17.07 17.88C14.19 20 9.32 20.28 6.58 17.2C5.79353 16.2746 5.25283 15.166 5.00781 13.9765C4.7628 12.7871 4.82136 11.555 5.17809 10.3941C5.53482 9.23326 6.17823 8.18095 7.04894 7.33432C7.91964 6.4877 8.98958 5.87405 10.16 5.55C11.7439 5.08812 13.4377 5.17795 14.9638 5.80476C16.49 6.43157 17.758 7.5582 18.56 9C19.3349 10.488 19.6515 12.1722 19.47 13.84C19.23 15.35 18.47 15.56 18.84 15.84C18.8906 15.8901 18.9588 15.9182 19.03 15.9182C19.1012 15.9182 19.1694 15.8901 19.22 15.84C20.92 13.63 20.35 8.44 17 6L16 5.33Z" fill="black"/>
<path fill-rule="evenodd" clip-rule="evenodd" d="M7.76 4.37C8.91 1.37 9.2 1.3 9.24 1.21C11.2413 1.1031 13.248 1.15996 15.24 1.38C15.7772 2.42926 16.2028 3.53195 16.51 4.67C16.51 4.67 17.32 5.11 17.19 4.58C16.9354 3.389 16.6013 2.21637 16.19 1.07C16.1095 0.858962 15.975 0.672754 15.8 0.53C15.23 0.15 9.22 -0.47 8.51 0.53C7.82699 1.92742 7.29079 3.39192 6.91 4.9C6.77 5.58 7.44 5.28 7.76 4.37Z" fill="black"/>
<path fill-rule="evenodd" clip-rule="evenodd" d="M16.4 20.43C15.8 20.26 16.05 21.23 15.09 22.63C14.76 22.72 9.23 23.06 9.04 22.78C8.60536 22.0278 8.22441 21.2459 7.9 20.44C7.86667 20.3755 7.81105 20.3252 7.74348 20.2986C7.6759 20.2719 7.60096 20.2707 7.53255 20.2951C7.46415 20.3196 7.40693 20.368 7.37152 20.4314C7.33611 20.4948 7.32491 20.5689 7.34 20.64C7.59 21.48 8.15 23.46 8.67 23.64C10.49 24.34 15.17 23.71 15.67 23.39C16.17 23.07 16.43 21.7 16.67 20.81C16.6774 20.7249 16.6543 20.64 16.6048 20.5704C16.5554 20.5008 16.4828 20.451 16.4 20.43Z" fill="black"/>
</g>
<defs>
<clipPath id="clip0_1035_5103">
<rect width="24" height="24" fill="white"/>
</clipPath>
</defs>
</svg>
