<svg width="24" height="24" viewBox="0 0 24 24" fill="none" xmlns="http://www.w3.org/2000/svg">
<g clip-path="url(#clip0_1035_5083)">
<path fill-rule="evenodd" clip-rule="evenodd" d="M5.61 11.13C6.17 10.61 6.12 10.01 5.75 9.72C5.6266 9.60717 5.47392 9.53137 5.30944 9.50131C5.14496 9.47124 4.97533 9.48812 4.82 9.55C4.75531 9.55134 4.69255 9.57226 4.64 9.61C4.52846 9.68107 4.43213 9.77355 4.35658 9.8821C4.28104 9.99065 4.22777 10.1131 4.19987 10.2424C4.17197 10.3717 4.16999 10.5052 4.19404 10.6352C4.21809 10.7653 4.2677 10.8893 4.34 11C4.57 11.36 5 11.48 5.61 11.13Z" fill="black"/>
<path fill-rule="evenodd" clip-rule="evenodd" d="M7.61 11C7.84 11.34 8.27 11.43 8.86 11C9.00129 10.8587 9.10257 10.6824 9.15351 10.4892C9.20446 10.2959 9.20325 10.0926 9.15 9.9C9.09241 9.72318 8.96863 9.5755 8.80459 9.48789C8.64056 9.40028 8.44899 9.37953 8.27 9.43C7.35 9.69 7 10.13 7.61 11Z" fill="black"/>
<path fill-rule="evenodd" clip-rule="evenodd" d="M5.64 13.48C4.69 12.96 4.08 13.56 4.17 14.48C4.18669 14.624 4.24587 14.7598 4.34 14.87C4.58 15.22 5.08 15.37 5.72 14.77C6.36 14.17 6.05 13.7 5.64 13.48Z" fill="black"/>
<path fill-rule="evenodd" clip-rule="evenodd" d="M8.24 13.28C8.01 13.2 7.44 13.39 7.24 14.07C7.19943 14.2071 7.19943 14.3529 7.24 14.49C7.33 14.86 7.72 15.14 8.44 14.95C9.11 14.6 9.24 14.03 8.98 13.67C8.90147 13.546 8.79183 13.4448 8.662 13.3763C8.53216 13.3079 8.38666 13.2747 8.24 13.28Z" fill="black"/>
<path fill-rule="evenodd" clip-rule="evenodd" d="M14.41 8.48C15.32 8.48 16.23 8.6 17.14 8.63C17.7528 8.66499 18.3672 8.66499 18.98 8.63C19.9886 8.55459 20.9909 8.41093 21.98 8.2H22.03C22.0999 8.19276 22.1648 8.16038 22.2126 8.10888C22.2605 8.05737 22.2879 7.99025 22.29 7.92C22.3045 7.13092 22.2307 6.34269 22.07 5.57C21.9387 4.76931 21.6607 3.99973 21.25 3.3C21.009 2.94689 20.7416 2.61259 20.45 2.3C20.1661 1.98066 19.8586 1.68315 19.53 1.41C19.3123 1.22156 19.0701 1.06346 18.81 0.940001C18.5573 0.814004 18.2926 0.713508 18.02 0.640001C17.7286 0.562559 17.4307 0.512343 17.13 0.490001C17.1259 0.446021 17.1121 0.403497 17.0896 0.365467C17.0671 0.327437 17.0365 0.294838 17 0.270001C15.4532 0.0538719 13.8914 -0.0364242 12.33 7.17118e-07C10.7629 0.0368307 9.20265 0.220975 7.67 0.550001C7.07 0.680001 6.4 0.770001 5.78 1C5.31802 1.14562 4.8873 1.37624 4.51 1.68C3.77517 2.30367 3.20797 3.10119 2.86 4C2.39449 5.28852 2.10521 6.63402 2 8C1.64767 10.5206 1.56052 13.0712 1.74 15.61C1.90125 17.3614 2.41487 19.0621 3.25 20.61C3.64648 21.3256 4.11923 21.9961 4.66 22.61C5.03948 23.0653 5.49239 23.454 6 23.76C6.3113 23.9135 6.65295 23.9955 7 24C7.68 24 8.5 23.93 9 23.93L15.27 23.73C15.3575 23.73 15.4415 23.6952 15.5033 23.6333C15.5652 23.5715 15.6 23.4875 15.6 23.4C15.6 23.4 15.6 23.34 15.6 23.3C16.1402 23.4241 16.7019 23.42 17.2402 23.288C17.7785 23.1561 18.2785 22.8999 18.7 22.54C20.2325 21.1614 21.3276 19.3641 21.85 17.37L22.34 15.27C22.3467 15.1926 22.325 15.1155 22.279 15.0529C22.233 14.9904 22.1658 14.9467 22.09 14.93H21.98C20.988 14.7508 19.9862 14.6306 18.98 14.57H17.09C16.19 14.62 15.3 14.72 14.41 14.79C14.41 14.4 14.35 14.01 14.34 13.61V11.41C14.25 10.6 14.29 9.55 14.41 8.48ZM5.14 2.39C5.4159 2.15152 5.735 1.9682 6.08 1.85C6.66812 1.66514 7.26562 1.51159 7.87 1.39C9.34255 1.02914 10.8459 0.808161 12.36 0.730001C13.3193 0.680007 14.2807 0.680007 15.24 0.730001C14.7442 0.927526 14.282 1.20077 13.87 1.54C12.3784 2.88212 11.3698 4.67781 11 6.65H10.41H8.79C7.94 6.65 7.09 6.65 6.24 6.72C5.39 6.79 4.56 6.87 3.72 6.9H3.25C3.34708 6.04723 3.54168 5.20841 3.83 4.4C4.09373 3.63198 4.54384 2.94137 5.14 2.39ZM2.83 15.54C2.67379 13.0738 2.76424 10.5982 3.1 8.15C3.1 7.96 3.1 7.77 3.16 7.58C3.98043 7.71487 4.80893 7.79505 5.64 7.82C6.29 7.82 6.94 7.82 7.58 7.76C8.01 7.76 8.43 7.67 8.86 7.63C9.29 7.59 9.92 7.46 10.45 7.41H10.88C10.4579 9.91653 10.3303 12.4638 10.5 15C10.5719 15.7193 10.6854 16.4338 10.84 17.14L5.9 17.5H4.98L3.16 17.45C3.00784 16.8213 2.8976 16.1833 2.83 15.54ZM9 23.1C8.61 23.1 7.95 23.16 7.34 23.1C7.03632 23.1393 6.72765 23.105 6.44 23C6.02605 22.7301 5.66087 22.392 5.36 22C4.8781 21.4121 4.45914 20.7753 4.11 20.1C3.79167 19.4877 3.537 18.8443 3.35 18.18C3.86 18.27 4.35 18.38 4.9 18.46C5.23079 18.5189 5.56466 18.559 5.9 18.58C6.67245 18.5715 7.44375 18.5181 8.21 18.42C9.15 18.29 10.07 18.08 11 17.87C11.2127 18.668 11.5146 19.4396 11.9 20.17C12.0609 20.4714 12.2413 20.762 12.44 21.04C12.6408 21.3126 12.8614 21.5699 13.1 21.81C13.2942 22.0131 13.5013 22.2035 13.72 22.38C13.9459 22.5493 14.1831 22.703 14.43 22.84C14.56 22.91 14.69 22.96 14.82 23.02L9 23.1ZM18.1 15.62H19.27L21.55 15.51L21.12 17.19C20.604 19.012 19.5601 20.6404 18.12 21.87C17.6808 22.2379 17.1359 22.4565 16.5643 22.4942C15.9926 22.532 15.4238 22.3869 14.94 22.08C14.7396 21.9572 14.546 21.8236 14.36 21.68C14.1779 21.5333 14.0074 21.3729 13.85 21.2C13.6504 20.9834 13.4666 20.7529 13.3 20.51C13.1315 20.2697 12.9778 20.0192 12.84 19.76C12.1211 18.269 11.6999 16.6522 11.6 15C11.442 12.4364 11.5762 9.86322 12 7.33C12.2261 5.40796 13.105 3.62176 14.49 2.27C14.9453 1.8598 15.4943 1.56774 16.0889 1.41953C16.6835 1.27131 17.3055 1.27147 17.9 1.42C18.1231 1.47718 18.3406 1.55415 18.55 1.65C18.7555 1.74124 18.95 1.85529 19.13 1.99C19.4345 2.24042 19.725 2.50749 20 2.79C20.2694 3.07328 20.5199 3.37393 20.75 3.69C21.1307 4.30305 21.3951 4.98106 21.53 5.69C21.6766 6.32354 21.7604 6.97001 21.78 7.62C20.97 7.62 20.18 7.62 19.37 7.54H18.23H17.09C16.22 7.54 15.36 7.68 14.5 7.77C14.5928 6.96206 14.7981 6.17106 15.11 5.42C15.3261 4.84479 15.7273 4.35775 16.2504 4.03551C16.7736 3.71327 17.3891 3.57414 18 3.64C18.0769 3.64928 18.1544 3.62763 18.2153 3.57981C18.2763 3.53199 18.3157 3.46191 18.325 3.385C18.3343 3.30809 18.3126 3.23064 18.2648 3.16969C18.217 3.10874 18.1469 3.06928 18.07 3.06C17.3083 2.92212 16.5224 3.04439 15.8387 3.40714C15.1549 3.76988 14.6129 4.35204 14.3 5.06C13.7984 6.03484 13.4606 7.08553 13.3 8.17C13.1554 9.21777 13.0686 10.2727 13.04 11.33V13.6C13.04 14.0667 13.09 14.5367 13.19 15.01C13.2592 15.4779 13.3527 15.9418 13.47 16.4C13.7394 17.49 14.2332 18.5118 14.92 19.4C15.1611 19.7386 15.486 20.0088 15.8629 20.1841C16.2398 20.3594 16.6557 20.4338 17.07 20.4C17.1567 20.3875 17.2352 20.3421 17.2892 20.2732C17.3433 20.2043 17.3686 20.1172 17.36 20.03C17.3499 19.9441 17.3066 19.8657 17.2393 19.8114C17.1719 19.7572 17.086 19.7316 17 19.74C16.7244 19.7378 16.4534 19.6695 16.2098 19.5407C15.9661 19.4119 15.757 19.2265 15.6 19C15.0373 18.1724 14.6556 17.2353 14.48 16.25C14.43 16 14.4 15.74 14.37 15.49C15.2 15.54 16.05 15.6 16.9 15.63C17.29 15.61 17.67 15.62 18.06 15.62H18.1Z" fill="black"/>
</g>
<defs>
<clipPath id="clip0_1035_5083">
<rect width="24" height="24" fill="white"/>
</clipPath>
</defs>
</svg>
