<svg width="24" height="24" viewBox="0 0 24 24" fill="none" xmlns="http://www.w3.org/2000/svg">
<g clip-path="url(#clip0_1035_5115)">
<path fill-rule="evenodd" clip-rule="evenodd" d="M13 16.46C13.9 15.25 15.17 12.7 15.12 11.15C15.1005 10.4466 14.8061 9.77889 14.3 9.29C13.7729 8.70331 13.0722 8.30038 12.3 8.14C11.8863 8.09716 11.4682 8.14083 11.0722 8.26822C10.6763 8.39561 10.3111 8.60395 10 8.88C9.31615 9.3922 8.86308 10.1545 8.74001 11C8.67108 12.1628 8.95329 13.3196 9.55001 14.32L10.86 16.32C11.0074 16.5865 11.171 16.8436 11.35 17.09C11.3882 17.1394 11.4365 17.1802 11.4917 17.2095C11.5469 17.2388 11.6077 17.256 11.67 17.26C11.7487 17.2549 11.8225 17.22 11.8764 17.1624C11.9303 17.1048 11.9602 17.0289 11.96 16.95C11.96 16.5 11.48 16.08 11.44 15.95L10.3 14C9.94086 13.2681 9.74954 12.4652 9.74001 11.65C9.81001 8.39 13.91 8.95 14.12 11.23C14.26 12.67 13 15.23 12.44 16.1C12.389 16.1732 12.3689 16.2635 12.3838 16.3514C12.3988 16.4393 12.4477 16.5178 12.52 16.57C12.5584 16.5954 12.6016 16.6128 12.6469 16.621C12.6922 16.6292 12.7387 16.6282 12.7836 16.6179C12.8285 16.6076 12.8708 16.5883 12.908 16.5611C12.9452 16.534 12.9765 16.4996 13 16.46Z" fill="black"/>
<path fill-rule="evenodd" clip-rule="evenodd" d="M11.72 10.65C11.01 10.57 10.37 11.97 11.29 12.43C11.97 12.77 12.23 12.43 12.49 12.1C12.592 11.9619 12.6529 11.7978 12.6656 11.6266C12.6783 11.4554 12.6424 11.284 12.5618 11.1324C12.4813 10.9808 12.3595 10.855 12.2106 10.7696C12.0616 10.6843 11.8915 10.6428 11.72 10.65Z" fill="black"/>
<path fill-rule="evenodd" clip-rule="evenodd" d="M16 5.33C14.8045 4.64209 13.4493 4.28004 12.07 4.28004C10.6907 4.28004 9.33553 4.64209 8.14 5.33L7.36 5.81C6.41173 6.45328 5.61272 7.29277 5.01705 8.27165C4.42137 9.25052 4.04293 10.3459 3.90734 11.4838C3.77175 12.6216 3.88217 13.7753 4.23113 14.8667C4.5801 15.9581 5.15945 16.9619 5.93 17.81C9.03 21.15 14.35 20.81 17.44 18.37C17.4788 18.3484 17.5124 18.3188 17.5388 18.2831C17.5651 18.2475 17.5835 18.2066 17.5926 18.1632C17.6018 18.1198 17.6015 18.0749 17.5919 18.0317C17.5823 17.9884 17.5634 17.9477 17.5367 17.9123C17.51 17.8769 17.476 17.8476 17.437 17.8265C17.398 17.8054 17.3549 17.7929 17.3107 17.7898C17.2665 17.7868 17.2221 17.7932 17.1806 17.8088C17.139 17.8243 17.1013 17.8486 17.07 17.88C14.19 20 9.32 20.28 6.58 17.2C5.79352 16.2746 5.25282 15.166 5.00781 13.9765C4.76279 12.7871 4.82135 11.555 5.17809 10.3941C5.53482 9.23326 6.17823 8.18095 7.04893 7.33432C7.91964 6.4877 8.98957 5.87405 10.16 5.55C11.7439 5.08812 13.4377 5.17795 14.9638 5.80476C16.49 6.43157 17.758 7.5582 18.56 9C19.3349 10.488 19.6515 12.1722 19.47 13.84C19.23 15.35 18.47 15.56 18.84 15.84C18.8906 15.8901 18.9588 15.9182 19.03 15.9182C19.1012 15.9182 19.1694 15.8901 19.22 15.84C20.92 13.63 20.35 8.44 17 6L16 5.33Z" fill="black"/>
<path fill-rule="evenodd" clip-rule="evenodd" d="M7.76 4.37C8.91 1.37 9.2 1.3 9.24 1.21C11.2413 1.1031 13.248 1.15996 15.24 1.38C15.7772 2.42926 16.2028 3.53195 16.51 4.67C16.51 4.67 17.32 5.11 17.19 4.58C16.9354 3.389 16.6013 2.21637 16.19 1.07C16.1095 0.858962 15.975 0.672754 15.8 0.53C15.23 0.15 9.22 -0.47 8.51 0.53C7.82699 1.92742 7.29078 3.39192 6.91 4.9C6.77 5.58 7.44 5.28 7.76 4.37Z" fill="black"/>
<path fill-rule="evenodd" clip-rule="evenodd" d="M16.4 20.43C15.8 20.26 16.05 21.23 15.09 22.63C14.76 22.72 9.22998 23.06 9.03998 22.78C8.60534 22.0278 8.22439 21.2459 7.89998 20.44C7.86665 20.3755 7.81103 20.3252 7.74346 20.2986C7.67588 20.2719 7.60094 20.2707 7.53253 20.2951C7.46413 20.3196 7.40691 20.368 7.3715 20.4314C7.33609 20.4948 7.32489 20.569 7.33998 20.64C7.58998 21.48 8.14998 23.46 8.66998 23.64C10.49 24.34 15.17 23.71 15.67 23.39C16.17 23.07 16.43 21.7 16.67 20.81C16.6774 20.7249 16.6542 20.64 16.6048 20.5704C16.5553 20.5008 16.4827 20.451 16.4 20.43Z" fill="black"/>
</g>
<defs>
<clipPath id="clip0_1035_5115">
<rect width="24" height="24" fill="white"/>
</clipPath>
</defs>
</svg>
