<svg width="24" height="24" viewBox="0 0 24 24" fill="none" xmlns="http://www.w3.org/2000/svg">
<g clip-path="url(#clip0_1032_3452)">
<path d="M6 18C6.77323 18.8105 7.70488 19.4533 8.73706 19.8886C9.76923 20.3238 10.8799 20.5421 12 20.53C14.2704 20.4354 16.4269 19.5101 18.06 17.93C18.971 17.0409 19.6566 15.9473 20.06 14.74C20.3608 13.9746 20.4573 13.144 20.34 12.33C20.3114 12.2088 20.2549 12.096 20.1751 12.0006C20.0952 11.9051 19.9942 11.8296 19.88 11.78C19.5072 11.7508 19.1328 11.7508 18.76 11.78C17.15 11.78 13.69 11.98 10.58 12.15C7.47 12.32 4.37 12.65 4.37 12.65C4.27251 12.7224 4.19233 12.8156 4.13526 12.9229C4.07819 13.0301 4.04565 13.1487 4.04 13.27C4.01959 13.8905 4.12153 14.5089 4.34 15.09C4.67603 16.1688 5.24243 17.1617 6 18ZM9.13 13C12.45 12.93 16.7 12.9 18.65 12.9H19.31C19.253 13.7813 19.0002 14.6387 18.57 15.41C18.2444 16.0524 17.8153 16.6368 17.3 17.14C15.8737 18.5371 13.9926 19.3747 12 19.5C10.9998 19.5342 10.0032 19.3638 9.07123 18.9993C8.13924 18.6348 7.29151 18.0837 6.58 17.38C6.00737 16.7746 5.55591 16.0651 5.25 15.29C5.00888 14.7564 4.84717 14.1904 4.77 13.61C4.76108 13.4534 4.76108 13.2965 4.77 13.14C6.23304 13.0134 7.70188 12.9667 9.17 13H9.13Z" fill="black"/>
<path d="M23.87 10C23.7581 8.97645 23.5266 7.96957 23.18 7C22.5109 5.20543 21.337 3.64265 19.8 2.5C18.2886 1.36743 16.5053 0.653429 14.63 0.430002C14.539 0.421182 14.4482 0.447269 14.3757 0.502976C14.3033 0.558683 14.2548 0.639843 14.24 0.730002C14.2314 0.819796 14.2578 0.909442 14.3137 0.980241C14.3696 1.05104 14.4506 1.09753 14.54 1.11C16.2908 1.35433 17.9445 2.06208 19.33 3.16C20.71 4.23693 21.7514 5.68788 22.33 7.34C22.6569 8.24203 22.8817 9.17788 23 10.13C23.0852 11.0848 23.0852 12.0452 23 13C22.9086 13.9418 22.6899 14.8669 22.35 15.75C22.0192 16.6404 21.5863 17.4893 21.06 18.28C19.9445 19.8753 18.3722 21.0954 16.55 21.78C14.7291 22.5071 12.7634 22.7982 10.81 22.63C9.72941 22.5372 8.6664 22.2984 7.64999 21.92C6.64244 21.548 5.70569 21.0069 4.87999 20.32C2.80435 18.4788 1.46226 15.9508 1.09999 13.2C0.635935 10.4447 1.27539 7.61744 2.87999 5.33C3.72633 4.15467 4.78441 3.14745 5.99999 2.36C7.23208 1.59559 8.62585 1.12986 10.07 1C10.78 0.930002 11.48 0.870002 12.19 0.870002C12.6581 0.870183 13.1257 0.900244 13.59 0.960002C13.6306 0.970567 13.673 0.972481 13.7145 0.965618C13.7559 0.958756 13.7954 0.943272 13.8305 0.920167C13.8656 0.897062 13.8954 0.866852 13.9181 0.831491C13.9407 0.79613 13.9557 0.756406 13.962 0.71489C13.9684 0.673374 13.9659 0.630991 13.9548 0.590483C13.9437 0.549975 13.9243 0.512246 13.8977 0.479736C13.8711 0.447226 13.838 0.42066 13.8005 0.401758C13.763 0.382855 13.7219 0.372037 13.68 0.370002C13.1914 0.275664 12.6969 0.215518 12.2 0.190002C11.47 0.190002 10.74 0.190002 10.01 0.280002C8.45599 0.418959 6.95437 0.911519 5.61999 1.72C4.29854 2.53356 3.13903 3.58458 2.19999 4.82C0.406506 7.2692 -0.344868 10.3286 0.109987 13.33C0.464983 16.3507 1.90404 19.14 4.15999 21.18C5.08067 21.9609 6.12946 22.5766 7.25999 23C8.37756 23.4107 9.54418 23.6729 10.73 23.78C12.8662 23.9508 15.0128 23.6221 17 22.82C19.0214 22.0263 20.7496 20.6298 21.95 18.82C22.5132 17.9568 22.973 17.0305 23.32 16.06C23.6688 15.0933 23.8874 14.0844 23.97 13.06C24.0321 12.0391 23.9986 11.0147 23.87 10Z" fill="black"/>
<path d="M5.34999 9.72003C5.87494 9.98723 6.46217 10.1081 7.04999 10.07C7.623 10.0321 8.17855 9.85716 8.66999 9.56003C9.14899 9.28845 9.56676 8.9209 9.89714 8.4804C10.2275 8.03989 10.4634 7.53592 10.59 7.00003C10.6021 6.95669 10.6055 6.91139 10.5999 6.86673C10.5944 6.82208 10.58 6.77897 10.5577 6.7399C10.5354 6.70083 10.5055 6.66659 10.4699 6.63914C10.4342 6.6117 10.3935 6.59161 10.35 6.58003C10.3066 6.56793 10.2613 6.56455 10.2167 6.57009C10.172 6.57563 10.1289 6.58998 10.0899 6.6123C10.0508 6.63463 10.0165 6.66448 9.9891 6.70014C9.96165 6.7358 9.94156 6.77655 9.92999 6.82003C9.59567 7.62214 8.9602 8.26121 8.15999 8.60003C7.79588 8.77605 7.40284 8.88447 6.99999 8.92003C6.60114 8.97389 6.19515 8.92572 5.81999 8.78003C5.48536 8.64309 5.18244 8.43887 4.92998 8.18003C4.64881 7.90016 4.39746 7.59184 4.17998 7.26003C4.14544 7.18849 4.08392 7.13357 4.00893 7.10732C3.93395 7.08107 3.85161 7.08565 3.77999 7.12003C3.71023 7.15648 3.65696 7.21809 3.63096 7.29237C3.60496 7.36665 3.60819 7.44804 3.63999 7.52003C3.85718 8.02686 4.14321 8.50132 4.48998 8.93003C4.72627 9.24343 5.0177 9.51114 5.34999 9.72003Z" fill="black"/>
<path d="M20 6.29C19.9105 6.28088 19.8208 6.30559 19.7487 6.35926C19.6765 6.41293 19.627 6.49168 19.61 6.58C19.5639 6.8513 19.4867 7.11639 19.38 7.37C19.2834 7.5917 19.1441 7.79219 18.97 7.96C18.6549 8.26451 18.2594 8.47268 17.83 8.56C17.4191 8.65561 16.9897 8.63484 16.59 8.5C16.1429 8.37738 15.7388 8.13289 15.4227 7.79384C15.1066 7.45478 14.891 7.03452 14.8 6.58C14.7907 6.50044 14.7502 6.42782 14.6874 6.37812C14.6245 6.32843 14.5445 6.30572 14.465 6.315C14.3854 6.32429 14.3128 6.3648 14.2631 6.42762C14.2134 6.49045 14.1907 6.57044 14.2 6.65C14.2111 7.27777 14.4066 7.88839 14.7623 8.40583C15.1179 8.92327 15.6179 9.32465 16.2 9.56C16.8059 9.81317 17.4809 9.8485 18.11 9.66C18.7222 9.467 19.26 9.08985 19.65 8.58C19.8075 8.35119 19.9258 8.09771 20 7.83C20.1231 7.45789 20.197 7.07128 20.22 6.68C20.2368 6.59938 20.2237 6.5154 20.1832 6.44367C20.1428 6.37195 20.0777 6.31734 20 6.29Z" fill="black"/>
</g>
<defs>
<clipPath id="clip0_1032_3452">
<rect width="24" height="24" fill="white"/>
</clipPath>
</defs>
</svg>
