<svg width="24" height="24" viewBox="0 0 24 24" fill="none" xmlns="http://www.w3.org/2000/svg">
<g clip-path="url(#clip0_1032_3597)">
<path d="M23.87 10C23.7581 8.97645 23.5266 7.96957 23.18 7C22.5109 5.20543 21.337 3.64265 19.8 2.5C18.291 1.36324 16.5065 0.64877 14.63 0.430003C14.539 0.421183 14.4482 0.44727 14.3757 0.502977C14.3033 0.558684 14.2548 0.639843 14.24 0.730003C14.2314 0.819797 14.2578 0.909443 14.3137 0.980242C14.3696 1.05104 14.4506 1.09753 14.54 1.11C16.2932 1.35637 17.9497 2.0638 19.34 3.16C20.718 4.23889 21.7589 5.68919 22.34 7.34C22.6635 8.24242 22.8849 9.17827 23 10.13C23.0852 11.0848 23.0852 12.0452 23 13C22.9072 13.9406 22.6921 14.8651 22.36 15.75C22.0217 16.6389 21.5857 17.4874 21.06 18.28C19.9445 19.8753 18.3722 21.0954 16.55 21.78C14.7291 22.5071 12.7634 22.7982 10.81 22.63C9.72941 22.5372 8.6664 22.2984 7.64999 21.92C6.64244 21.548 5.70569 21.0069 4.87999 20.32C2.80435 18.4788 1.46226 15.9508 1.09999 13.2C0.635935 10.4447 1.27539 7.61744 2.87999 5.33C3.72633 4.15467 4.78441 3.14745 5.99999 2.36C7.23208 1.59559 8.62585 1.12986 10.07 1C10.78 0.930003 11.49 0.870003 12.19 0.870003C12.6582 0.865089 13.1262 0.895173 13.59 0.960003C13.6306 0.970568 13.673 0.972481 13.7145 0.965619C13.7559 0.958757 13.7954 0.943273 13.8305 0.920168C13.8656 0.897063 13.8954 0.866853 13.9181 0.831492C13.9407 0.79613 13.9557 0.756407 13.962 0.714891C13.9684 0.673375 13.9659 0.630991 13.9548 0.590484C13.9437 0.549976 13.9243 0.512247 13.8977 0.479737C13.8711 0.447227 13.838 0.420661 13.8005 0.401759C13.763 0.382856 13.7219 0.372037 13.68 0.370003C13.1914 0.275665 12.6969 0.215519 12.2 0.190003C11.4653 0.177998 10.7306 0.211395 9.99999 0.290003C8.44916 0.422122 6.95 0.911574 5.61999 1.72C4.29854 2.53356 3.13903 3.58458 2.19999 4.82C0.406506 7.26921 -0.344868 10.3286 0.109987 13.33C0.464983 16.3507 1.90404 19.14 4.15999 21.18C5.08067 21.9609 6.12946 22.5766 7.25999 23C8.37617 23.4154 9.54343 23.6777 10.73 23.78C12.8662 23.9508 15.0128 23.6221 17 22.82C19.0201 22.024 20.7477 20.628 21.95 18.82C22.5113 17.9522 22.971 17.0228 23.32 16.05C23.6688 15.0833 23.8874 14.0744 23.97 13.05C24.0315 12.0324 23.998 11.0114 23.87 10Z" fill="black"/>
<path d="M20.27 10C20.3594 9.98523 20.4396 9.93631 20.4937 9.86357C20.5478 9.79083 20.5715 9.69994 20.56 9.61003C20.4437 8.81941 20.0285 8.10354 19.4 7.61003C18.7686 7.12296 17.9869 6.87182 17.19 6.90003C16.4056 6.95391 15.6575 7.25104 15.05 7.75003C14.4819 8.25427 14.0691 8.90982 13.86 9.64003C13.8457 9.67741 13.839 9.71728 13.8403 9.75729C13.8417 9.79729 13.851 9.83663 13.8678 9.87297C13.8845 9.90931 13.9084 9.94193 13.938 9.96891C13.9676 9.99588 14.0022 10.0167 14.04 10.03C14.1144 10.0568 14.1962 10.0541 14.2687 10.0225C14.3412 9.99089 14.3989 9.93277 14.43 9.86003C14.6928 9.30991 15.1097 8.84789 15.63 8.53003C15.8238 8.41064 16.0322 8.31655 16.25 8.25003C16.5706 8.13083 16.9081 8.06332 17.25 8.05003C17.8042 7.98445 18.3645 8.10776 18.84 8.40003C19.3148 8.69427 19.6694 9.14807 19.84 9.68003C19.843 9.73102 19.8571 9.78074 19.8814 9.82568C19.9056 9.87063 19.9394 9.90973 19.9804 9.94022C20.0214 9.97072 20.0685 9.99187 20.1186 10.0022C20.1686 10.0125 20.2203 10.0118 20.27 10Z" fill="black"/>
<path d="M4.38997 12.77C4.31437 12.7933 4.25052 12.8445 4.21148 12.9133C4.17244 12.9821 4.16117 13.0632 4.17997 13.14C4.54151 14.8983 5.44356 16.4996 6.75997 17.72C8.19996 18.8637 10.0025 19.4527 11.84 19.38C13.6854 19.4077 15.4837 18.7965 16.93 17.65C18.27 16.4568 19.2793 14.9378 19.86 13.24C19.8777 13.1986 19.8871 13.1542 19.8877 13.1092C19.8882 13.0642 19.8799 13.0195 19.8632 12.9777C19.8465 12.9359 19.8217 12.8979 19.7902 12.8656C19.7588 12.8334 19.7213 12.8077 19.68 12.79C19.6386 12.7723 19.5941 12.7629 19.5491 12.7623C19.5041 12.7618 19.4595 12.7701 19.4177 12.7868C19.3759 12.8035 19.3378 12.8283 19.3056 12.8597C19.2734 12.8912 19.2477 12.9286 19.23 12.97C18.6094 14.5003 17.6118 15.8488 16.33 16.89C15.0243 17.8319 13.4382 18.3042 11.83 18.23C10.2453 18.353 8.66754 17.9179 7.36997 17C6.10711 15.9688 5.19521 14.5712 4.75997 13C4.75179 12.9601 4.73555 12.9222 4.71225 12.8887C4.68895 12.8553 4.65908 12.8269 4.62445 12.8054C4.58982 12.7839 4.55117 12.7696 4.51085 12.7636C4.47054 12.7575 4.42941 12.7597 4.38997 12.77Z" fill="black"/>
<path d="M8.93998 8.67998C9.12857 8.27381 9.15713 7.81149 9.01998 7.3852C8.88282 6.9589 8.59003 6.59997 8.19998 6.37998C7.93447 6.26116 7.64342 6.21081 7.35342 6.23352C7.06343 6.25623 6.78376 6.35128 6.53998 6.50998C5.53998 7.10998 4.92998 8.69998 6.07998 9.50998C6.32111 9.64816 6.58758 9.73637 6.86353 9.76935C7.13948 9.80233 7.41924 9.77941 7.68613 9.70196C7.95303 9.6245 8.2016 9.49409 8.41702 9.31851C8.63244 9.14293 8.81029 8.92577 8.93998 8.67998Z" fill="black"/>
</g>
<defs>
<clipPath id="clip0_1032_3597">
<rect width="24" height="24" fill="white"/>
</clipPath>
</defs>
</svg>
