<svg width="24" height="24" viewBox="0 0 24 24" fill="none" xmlns="http://www.w3.org/2000/svg">
<g clip-path="url(#clip0_1032_3519)">
<path d="M23.47 10.13C23.4253 10.1338 23.3818 10.1463 23.342 10.167C23.3021 10.1877 23.2668 10.216 23.238 10.2504C23.2092 10.2848 23.1874 10.3246 23.1741 10.3674C23.1607 10.4102 23.1559 10.4553 23.16 10.5C23.2078 10.9484 23.2311 11.3991 23.23 11.85C23.23 12.31 23.23 12.76 23.18 13.2C23.0905 14.1583 22.8719 15.1002 22.53 16C22.189 16.8945 21.7461 17.7468 21.21 18.54C20.0849 20.1535 18.494 21.385 16.65 22.07C14.8146 22.7801 12.8394 23.054 10.88 22.87C9.79831 22.772 8.73511 22.5264 7.72002 22.14C6.72531 21.7593 5.80479 21.2076 5.00002 20.51C2.94134 18.6608 1.61431 16.1345 1.26002 13.39C0.794742 10.6497 1.41919 7.83614 3.00002 5.54999C3.84316 4.3601 4.90546 3.34192 6.13002 2.54999C7.33693 1.77467 8.70512 1.28554 10.13 1.11999C10.84 1.04999 11.54 0.989987 12.25 0.989987C12.7183 0.985073 13.1862 1.01516 13.65 1.07999C13.6894 1.0859 13.7296 1.08399 13.7683 1.07437C13.8069 1.06475 13.8433 1.04762 13.8753 1.02394C13.9074 1.00026 13.9344 0.970502 13.955 0.936366C13.9755 0.90223 13.9891 0.864383 13.995 0.824987C14.0009 0.78559 13.999 0.745415 13.9894 0.706756C13.9798 0.668097 13.9627 0.631711 13.939 0.599674C13.9153 0.567638 13.8855 0.54058 13.8514 0.520043C13.8173 0.499507 13.7794 0.485896 13.74 0.479987C13.2463 0.411993 12.7484 0.378578 12.25 0.379987C11.52 0.379987 10.79 0.379987 10.06 0.469987C8.50232 0.599067 6.99598 1.08863 5.66002 1.89999C4.33029 2.71005 3.16361 3.76142 2.22002 4.99999C0.415724 7.45594 -0.342886 10.5263 0.110023 13.54C0.472926 16.5671 1.92706 19.358 4.20002 21.39C5.12692 22.1623 6.17864 22.771 7.31002 23.19C8.43056 23.5969 9.60134 23.8493 10.79 23.94C12.9049 24.1133 15.0311 23.7914 17 23C19.0051 22.1965 20.7178 20.8012 21.91 19C22.4595 18.1406 22.9091 17.2213 23.25 16.26C23.601 15.2944 23.8164 14.2848 23.89 13.26V11.85C23.8816 11.3786 23.8482 10.9079 23.79 10.44C23.7829 10.3585 23.7467 10.2822 23.6879 10.2253C23.6291 10.1683 23.5517 10.1345 23.47 10.13Z" fill="black"/>
<path d="M14.59 1.3L17.11 2C17.1446 2.01876 17.1827 2.03029 17.2218 2.03388C17.261 2.03747 17.3005 2.03305 17.3379 2.02089C17.3754 2.00873 17.4099 1.98908 17.4395 1.96314C17.4691 1.9372 17.4931 1.90551 17.51 1.87C17.5449 1.79691 17.5497 1.7131 17.5235 1.63649C17.4974 1.55987 17.4423 1.49653 17.37 1.46C16.9583 1.22417 16.5225 1.03308 16.07 0.890003C15.6165 0.757296 15.1509 0.670198 14.68 0.630003C14.5901 0.618427 14.4992 0.642185 14.4265 0.696276C14.3537 0.750366 14.3048 0.83057 14.29 0.920003C14.2845 0.964702 14.2878 1.01006 14.2999 1.05345C14.312 1.09684 14.3326 1.13739 14.3606 1.17274C14.3885 1.2081 14.4231 1.23756 14.4625 1.2594C14.5019 1.28125 14.5453 1.29505 14.59 1.3Z" fill="black"/>
<path d="M9.05003 10.16C9.23624 9.75348 9.26356 9.29198 9.12661 8.86632C8.98966 8.44067 8.69836 8.08168 8.31003 7.86001C8.0437 7.74265 7.75219 7.69398 7.46219 7.71844C7.17218 7.74289 6.89294 7.83971 6.65003 8.00001C5.65003 8.60001 5.04003 10.18 6.19003 11C6.43176 11.1378 6.69879 11.2255 6.97516 11.2577C7.25153 11.29 7.53157 11.2662 7.79854 11.1878C8.06552 11.1094 8.31394 10.978 8.52897 10.8014C8.744 10.6248 8.92121 10.4066 9.05003 10.16Z" fill="black"/>
<path d="M15.77 11C15.9867 11.125 16.2279 11.2015 16.477 11.2242C16.7261 11.247 16.9772 11.2155 17.2129 11.1318C17.4487 11.0482 17.6635 10.9144 17.8425 10.7397C18.0216 10.565 18.1606 10.3536 18.25 10.12C18.31 9.78001 17.53 9.71001 16.86 9.21001C16.19 8.71001 16.2 7.91001 15.57 8.21001C15.2095 8.46413 14.9633 8.84988 14.8847 9.28396C14.8061 9.71803 14.9014 10.1656 15.15 10.53C15.3202 10.7298 15.5318 10.8901 15.77 11Z" fill="black"/>
<path d="M5.31003 19C5.34948 19.0056 5.38965 19.0033 5.4282 18.9932C5.46675 18.9831 5.50291 18.9655 5.53456 18.9413C5.56621 18.9171 5.59272 18.8868 5.61255 18.8523C5.63238 18.8177 5.64512 18.7795 5.65003 18.74C5.99565 17.342 6.79372 16.0974 7.92003 15.2C8.95716 14.254 10.2971 13.7081 11.7 13.66C13.2603 13.5963 14.8077 13.9667 16.17 14.73C16.8335 15.1264 17.4085 15.6549 17.8592 16.2828C18.3099 16.9107 18.6267 17.6245 18.79 18.38C18.8073 18.4688 18.8591 18.5472 18.9341 18.5978C19.0091 18.6485 19.1012 18.6672 19.19 18.65C19.2789 18.6327 19.3572 18.5809 19.4079 18.5059C19.4585 18.4309 19.4773 18.3388 19.46 18.25C19.3283 17.3727 19.0147 16.5326 18.5394 15.7835C18.0641 15.0344 17.4376 14.3929 16.7 13.9C15.1999 12.9695 13.4651 12.4873 11.7 12.51C10.8533 12.5164 10.0191 12.7147 9.26003 13.09C8.52104 13.4479 7.84548 13.9242 7.26003 14.5C6.0641 15.5973 5.27463 17.067 5.02003 18.67C5.01732 18.7107 5.02268 18.7516 5.0358 18.7902C5.04892 18.8289 5.06954 18.8646 5.09649 18.8952C5.12343 18.9259 5.15617 18.9509 5.19281 18.9689C5.22946 18.9869 5.26929 18.9974 5.31003 19Z" fill="black"/>
<path d="M17.52 7.91999C17.96 8.71999 18.89 9.29999 20.58 9.31999C22.27 9.33999 23.21 8.76999 23.66 7.99999C23.8922 7.48259 24.0072 6.92029 23.9969 6.35328C23.9865 5.78626 23.851 5.22855 23.6 4.71999C23.3491 4.09489 23.0447 3.49265 22.69 2.91999C20.54 -0.700012 20.32 0.0599874 20.27 0.129987C19.94 0.589987 19.21 1.57999 18.53 2.72999C18.171 3.33966 17.8568 3.97467 17.59 4.62999C17.3457 5.14205 17.2131 5.70022 17.201 6.26746C17.189 6.83469 17.2977 7.398 17.52 7.91999ZM18.52 4.91999C18.7225 4.29008 18.9767 3.67799 19.28 3.08999C19.71 2.21999 20.19 1.43999 20.52 0.909987C20.979 1.55131 21.3997 2.21913 21.78 2.90999C22.1798 3.58685 22.5146 4.30003 22.78 5.03999C22.9511 5.41514 23.0397 5.82266 23.0397 6.23499C23.0397 6.64731 22.9511 7.05483 22.78 7.42999C22.46 7.92999 21.78 8.17999 20.64 8.15999C19.5 8.13999 18.85 7.86999 18.54 7.34999C18.3639 6.97427 18.2676 6.5661 18.2573 6.15128C18.247 5.73646 18.3228 5.324 18.48 4.93999L18.52 4.91999Z" fill="black"/>
</g>
<defs>
<clipPath id="clip0_1032_3519">
<rect width="24" height="24" fill="white"/>
</clipPath>
</defs>
</svg>
