<svg width="24" height="24" viewBox="0 0 24 24" fill="none" xmlns="http://www.w3.org/2000/svg">
<g clip-path="url(#clip0_1032_3500)">
<path d="M23.87 10C23.7581 8.97645 23.5266 7.96956 23.18 7C22.5074 5.20735 21.3342 3.64549 19.8 2.5C18.2886 1.36743 16.5053 0.653428 14.63 0.430001C14.539 0.42118 14.4482 0.447268 14.3757 0.502975C14.3033 0.558682 14.2548 0.639841 14.24 0.730001C14.2314 0.819794 14.2578 0.909441 14.3137 0.98024C14.3696 1.05104 14.4506 1.09753 14.54 1.11C16.2932 1.35637 17.9497 2.0638 19.34 3.16C20.718 4.23888 21.7589 5.68919 22.34 7.34C22.6635 8.24242 22.8849 9.17826 23 10.13C23.0853 11.0848 23.0853 12.0452 23 13C22.9086 13.9418 22.6899 14.8669 22.35 15.75C22.0192 16.6403 21.5863 17.4893 21.06 18.28C19.9445 19.8753 18.3722 21.0954 16.55 21.78C14.7291 22.5071 12.7634 22.7982 10.81 22.63C9.72941 22.5372 8.6664 22.2984 7.64999 21.92C6.64244 21.548 5.70569 21.0069 4.87999 20.32C2.80435 18.4788 1.46226 15.9508 1.09999 13.2C0.635935 10.4447 1.27539 7.61744 2.87999 5.33C3.72633 4.15467 4.78441 3.14745 5.99999 2.36C7.23208 1.59559 8.62585 1.12986 10.07 1C10.78 0.930001 11.49 0.870001 12.19 0.870001C12.6582 0.865087 13.1262 0.895171 13.59 0.960001C13.6306 0.970566 13.673 0.972479 13.7145 0.965617C13.7559 0.958755 13.7954 0.943271 13.8305 0.920166C13.8656 0.897061 13.8954 0.86685 13.9181 0.831489C13.9407 0.796128 13.9557 0.756404 13.962 0.714888C13.9684 0.673372 13.9659 0.630989 13.9548 0.590482C13.9437 0.549974 13.9243 0.512245 13.8977 0.479735C13.8711 0.447225 13.838 0.420659 13.8005 0.401756C13.763 0.382854 13.7219 0.372035 13.68 0.370001C13.1914 0.275663 12.6969 0.215517 12.2 0.190001C11.4656 0.179581 10.7311 0.209626 9.99999 0.280001C8.44943 0.420451 6.95139 0.912959 5.61999 1.72C4.29854 2.53355 3.13903 3.58458 2.19999 4.82C0.406506 7.2692 -0.344868 10.3286 0.109987 13.33C0.460542 16.3521 1.90037 19.1429 4.15999 21.18C5.08067 21.9609 6.12946 22.5766 7.25999 23C8.37756 23.4107 9.54418 23.6729 10.73 23.78C12.8662 23.9508 15.0128 23.6221 17 22.82C19.0214 22.0263 20.7496 20.6298 21.95 18.82C22.5132 17.9568 22.973 17.0305 23.32 16.06C23.6688 15.0933 23.8874 14.0844 23.97 13.06C24.0321 12.0391 23.9986 11.0147 23.87 10Z" fill="black"/>
<path d="M6.59998 6.44003C5.59998 7.04003 4.98998 8.62003 6.13998 9.44003C6.3811 9.57821 6.64758 9.66642 6.92353 9.6994C7.19947 9.73239 7.47923 9.70947 7.74613 9.63201C8.01303 9.55455 8.2616 9.42415 8.47702 9.24856C8.69243 9.07298 8.87029 8.85582 8.99998 8.61003C9.18857 8.20386 9.21713 7.74154 9.07998 7.31525C8.94282 6.88896 8.65003 6.53003 8.25998 6.31003C7.99447 6.19122 7.70341 6.14087 7.41342 6.16358C7.12343 6.18629 6.84376 6.28133 6.59998 6.44003Z" fill="black"/>
<path d="M15.72 9.42001C15.9611 9.56995 16.2361 9.65673 16.5196 9.67234C16.8031 9.68794 17.086 9.63187 17.3421 9.5093C17.5982 9.38672 17.8193 9.2016 17.9849 8.97102C18.1506 8.74044 18.2555 8.47183 18.29 8.19C18.36 7.83569 18.3154 7.46828 18.1625 7.14104C18.0097 6.8138 17.7566 6.54374 17.44 6.37001C15.74 5.64001 14.06 7.5 15.1 8.9C15.2626 9.11991 15.4751 9.29812 15.72 9.42001Z" fill="black"/>
</g>
<defs>
<clipPath id="clip0_1032_3500">
<rect width="24" height="24" fill="white"/>
</clipPath>
</defs>
</svg>
