<svg width="24" height="24" viewBox="0 0 24 24" fill="none" xmlns="http://www.w3.org/2000/svg">
<g clip-path="url(#clip0_1032_3474)">
<path d="M17.15 18.59C18.0702 17.7227 18.7344 16.6192 19.07 15.4C19.2499 14.8756 19.2845 14.3124 19.17 13.77C19.1418 13.6867 19.0959 13.6106 19.0355 13.5467C18.9751 13.4828 18.9016 13.4328 18.82 13.4C18.77 13.4 16.98 13.31 14.7 13.34C13.46 13.34 12.07 13.39 10.76 13.45C9.08002 13.53 7.53002 13.65 6.55002 13.75C6.12081 13.7772 5.69711 13.8613 5.29002 14C5.12773 14.1247 5.02018 14.3075 4.99002 14.51C4.94186 14.9458 4.99315 15.3869 5.14002 15.8C5.45649 16.8982 6.02881 17.9058 6.81002 18.74C6.84641 18.771 6.89226 18.7886 6.94002 18.79C6.94002 18.79 6.94002 18.86 6.94002 18.89C6.9048 20.1832 7.36235 21.4415 8.22002 22.41C8.65616 22.9042 9.19137 23.3012 9.79091 23.5751C10.3904 23.849 11.0409 23.9938 11.7 24C13.0199 23.8383 14.2552 23.2644 15.23 22.36C15.7616 21.9277 16.1893 21.3816 16.4818 20.762C16.7743 20.1424 16.924 19.4651 16.92 18.78C16.9247 18.7502 16.9247 18.7198 16.92 18.69C17.0064 18.6862 17.0883 18.6506 17.15 18.59ZM14.47 21.52C13.7121 22.2908 12.7339 22.8079 11.67 23C11.1424 23.0404 10.6126 22.9586 10.1217 22.7609C9.63089 22.5632 9.19228 22.2549 8.84002 21.86C8.21499 20.9521 7.76713 19.9342 7.52002 18.86C7.54305 18.6397 7.6261 18.43 7.76011 18.2536C7.89412 18.0773 8.07396 17.9412 8.28002 17.86C8.69578 17.6234 9.16208 17.4897 9.64002 17.47C9.89683 17.4909 10.1476 17.5587 10.38 17.67C10.7469 17.829 11.1042 18.0093 11.45 18.21C11.5618 18.2779 11.6893 18.3158 11.82 18.32C11.97 18.32 12.63 17.92 13.38 17.7C13.6509 17.6126 13.9362 17.5787 14.22 17.6C14.5844 17.6623 14.9279 17.8134 15.22 18.04C15.3558 18.1237 15.4717 18.2359 15.5597 18.3689C15.6478 18.5018 15.7059 18.6523 15.73 18.81C15.7359 19.3271 15.6258 19.8391 15.4077 20.308C15.1897 20.777 14.8692 21.1912 14.47 21.52ZM16.21 17.41C15.686 16.9383 15.0225 16.6504 14.32 16.59C13.8948 16.5687 13.4697 16.6334 13.07 16.78C12.651 16.9426 12.2462 17.14 11.86 17.37H11.78C11.42 17.1879 11.0493 17.0276 10.67 16.89C10.3279 16.762 9.96528 16.6977 9.60002 16.7C8.87237 16.7702 8.17922 17.044 7.60002 17.49C7.38362 17.6579 7.20048 17.8648 7.06002 18.1C6.74437 17.699 6.48217 17.2586 6.28002 16.79C6.02926 16.234 5.86083 15.6445 5.78002 15.04C5.78762 14.9248 5.80774 14.8108 5.84002 14.7C6.33002 14.65 7.36002 14.64 8.63002 14.61L13.35 14.47C15.35 14.4 17.19 14.3 18.06 14.27H18.22C18.2528 14.3804 18.2696 14.4948 18.27 14.61C18.1879 15.2676 17.9952 15.9066 17.7 16.5C17.4339 17.0622 17.0756 17.5759 16.64 18.02C16.53 17.7951 16.3848 17.5892 16.21 17.41Z" fill="black"/>
<path d="M1.16003 13C0.990824 11.6386 1.05849 10.2583 1.36003 8.92C1.64121 7.58839 2.20004 6.33103 3.00003 5.23C3.84187 4.06955 4.88915 3.07311 6.09003 2.29C7.29445 1.50441 8.66273 1.00498 10.09 0.83C10.79 0.75 11.49 0.68 12.2 0.67C12.6613 0.667033 13.1222 0.693755 13.58 0.75C13.6533 0.753459 13.7254 0.729927 13.7825 0.683857C13.8396 0.637788 13.8779 0.572376 13.89 0.5C13.8971 0.461123 13.8962 0.421204 13.8873 0.382694C13.8785 0.344183 13.8618 0.307894 13.8384 0.276054C13.815 0.244214 13.7853 0.217495 13.7512 0.197538C13.7171 0.177581 13.6793 0.164807 13.64 0.16C13.1544 0.0720556 12.6632 0.0185887 12.17 0C11.44 0 10.72 0 9.99002 0.07C8.42818 0.17338 6.91324 0.646369 5.57003 1.45C4.23786 2.25648 3.06785 3.3044 2.12003 4.54C1.20584 5.75312 0.570727 7.1531 0.260025 8.64C-0.0466443 10.1077 -0.083917 11.619 0.150025 13.1C0.573183 16.0629 2.05872 18.771 4.33003 20.72C4.39375 20.7835 4.48006 20.8192 4.57003 20.8192C4.66 20.8192 4.7463 20.7835 4.81003 20.72C4.87353 20.6563 4.90919 20.57 4.90919 20.48C4.90919 20.39 4.87353 20.3037 4.81003 20.24C2.75843 18.347 1.46181 15.7751 1.16003 13Z" fill="black"/>
<path d="M23.9 9.79002C23.785 8.76794 23.557 7.76178 23.22 6.79002C22.5239 4.99654 21.3305 3.4389 19.78 2.30002C18.2521 1.18881 16.4587 0.49906 14.58 0.300022C14.4917 0.291178 14.4033 0.316207 14.3328 0.370047C14.2622 0.423886 14.2148 0.502515 14.2 0.590022C14.1944 0.634722 14.1978 0.680083 14.2099 0.723471C14.222 0.766858 14.2426 0.807408 14.2705 0.842763C14.2984 0.878119 14.3331 0.907575 14.3725 0.929422C14.4119 0.951268 14.4552 0.965069 14.5 0.970022C16.2311 1.24744 17.8588 1.9751 19.22 3.08002C20.5746 4.15157 21.5947 5.588 22.16 7.22002C22.4595 8.1087 22.6607 9.02752 22.76 9.96002C22.8792 10.8951 22.9093 11.8393 22.85 12.78C22.7925 13.7174 22.6075 14.6426 22.3 15.53C22.0043 16.4316 21.6015 17.2945 21.1 18.1C20.4763 19.1002 19.6606 19.9669 18.7 20.65C18.6669 20.6721 18.6386 20.7006 18.6166 20.7338C18.5946 20.767 18.5795 20.8042 18.5721 20.8433C18.5646 20.8824 18.565 20.9225 18.5732 20.9615C18.5815 21.0004 18.5974 21.0373 18.62 21.07C18.6664 21.1347 18.7358 21.1791 18.814 21.194C18.8922 21.2089 18.9731 21.1932 19.04 21.15C19.5646 20.8088 20.0597 20.4241 20.52 20C20.9808 19.563 21.3962 19.0806 21.76 18.56C22.3446 17.7253 22.8311 16.826 23.21 15.88C23.5899 14.9177 23.8388 13.9087 23.95 12.88C24.0362 11.8509 24.0194 10.8158 23.9 9.79002Z" fill="black"/>
<path d="M8.00005 6.59999C7.85514 6.53245 7.69527 6.50342 7.53587 6.51568C7.37647 6.52794 7.22293 6.58109 7.09005 6.66999C6.56005 6.99999 6.20005 7.86999 6.84005 8.29999C6.97084 8.37572 7.11548 8.42444 7.26543 8.44328C7.41538 8.46212 7.56758 8.45069 7.71304 8.40966C7.85849 8.36864 7.99423 8.29885 8.11224 8.20444C8.23025 8.11002 8.32811 7.99289 8.40005 7.85999C8.49811 7.63726 8.51159 7.38642 8.43795 7.15446C8.36432 6.92251 8.20862 6.72537 8.00005 6.59999Z" fill="black"/>
<path d="M8.45001 4.43003C8.10412 4.32245 7.7416 4.27841 7.38001 4.30003C7.03704 4.33256 6.70039 4.41336 6.38001 4.54003C5.63721 4.8226 5.00339 5.33386 4.57001 6.00003C4.16754 6.65309 3.93068 7.39458 3.88001 8.16003C3.84677 8.64461 3.91138 9.13093 4.07001 9.59003C4.24634 10.0777 4.57172 10.4976 5.00001 10.79C5.21977 10.9308 5.45898 11.0386 5.71001 11.11C6.80442 11.3898 7.96044 11.3019 9.00001 10.86C9.7404 10.543 10.3433 9.97209 10.7 9.25003C11.0831 8.43678 11.1508 7.51032 10.89 6.65003C10.752 6.0784 10.4457 5.56131 10.0107 5.16556C9.57574 4.76982 9.0321 4.5136 8.45001 4.43003ZM9.86001 8.80003C9.56964 9.29989 9.11314 9.68208 8.57001 9.88003C8.00875 10.0909 7.40725 10.1729 6.81001 10.12C6.59004 10.1006 6.37241 10.0604 6.16001 10C5.97978 9.96317 5.80725 9.89552 5.65001 9.80003C5.41203 9.63535 5.23048 9.40143 5.13001 9.13003C5.00956 8.81095 4.95513 8.47075 4.97001 8.13003C4.96684 7.53212 5.10746 6.94221 5.38001 6.41003C5.66991 5.88898 6.11338 5.46995 6.65001 5.21003C6.90149 5.09141 7.1727 5.02022 7.45001 5.00003C7.72061 4.94535 7.99941 4.94535 8.27001 5.00003C8.36301 5.01943 8.45133 5.05679 8.53001 5.11003C9.28001 5.64003 9.79001 5.39003 10.11 6.79003C10.2844 7.4675 10.1951 8.18592 9.86001 8.80003Z" fill="black"/>
<path d="M13.35 9.13998C13.3887 9.14722 13.4285 9.14675 13.4671 9.1386C13.5057 9.13045 13.5422 9.11478 13.5747 9.0925C13.6072 9.07021 13.635 9.04174 13.6565 9.0087C13.678 8.97567 13.6928 8.93873 13.7 8.89998C13.876 8.29773 14.1873 7.74364 14.61 7.27998C14.7851 7.08607 14.9998 6.93212 15.2397 6.82859C15.4795 6.72506 15.7388 6.67437 16 6.67998C16.3111 6.65962 16.6229 6.70621 16.9144 6.81662C17.206 6.92702 17.4705 7.09867 17.69 7.31998C18.1664 7.80376 18.4749 8.42772 18.57 9.09998C18.5726 9.14466 18.5839 9.18839 18.6034 9.22867C18.6229 9.26895 18.6501 9.30499 18.6836 9.33472C18.717 9.36445 18.756 9.38729 18.7983 9.40192C18.8406 9.41655 18.8853 9.42269 18.93 9.41998C19.0184 9.41481 19.1013 9.37535 19.1611 9.30998C19.2209 9.24461 19.2528 9.15851 19.25 9.06998C19.2554 8.19397 18.9587 7.34285 18.41 6.65998C18.116 6.30685 17.7474 6.02326 17.3307 5.8296C16.914 5.63594 16.4595 5.53703 16 5.53998C15.3137 5.55188 14.6584 5.82763 14.17 6.30998C13.5622 7.00612 13.1819 7.87149 13.08 8.78998C13.0729 8.83093 13.0744 8.87291 13.0844 8.91325C13.0944 8.95359 13.1127 8.99141 13.1381 9.02432C13.1635 9.05722 13.1954 9.0845 13.2319 9.10441C13.2684 9.12432 13.3086 9.13643 13.35 9.13998Z" fill="black"/>
</g>
<defs>
<clipPath id="clip0_1032_3474">
<rect width="24" height="24" fill="white"/>
</clipPath>
</defs>
</svg>
