<svg width="24" height="24" viewBox="0 0 24 24" fill="none" xmlns="http://www.w3.org/2000/svg">
<g clip-path="url(#clip0_1032_3555)">
<path d="M3.59002 6.13998C4.05511 6.36898 4.57308 6.46913 5.09002 6.42998C5.95778 6.29942 6.83278 6.22261 7.71002 6.19998C7.92078 6.18208 8.13274 6.21549 8.32778 6.29733C8.52282 6.37918 8.69515 6.50704 8.83002 6.66998C8.93185 6.81393 8.99381 6.98225 9.00962 7.15787C9.02542 7.33349 8.99451 7.51016 8.92002 7.66998C8.72727 8.08245 8.40391 8.41986 8.00002 8.62998C7.36002 8.97906 6.6387 9.15162 5.91002 9.12998C5.15791 9.11394 4.41665 8.94732 3.73002 8.63998C3.64758 8.6017 3.55348 8.59699 3.46762 8.62685C3.38177 8.65671 3.31091 8.7188 3.27002 8.79998C3.23244 8.88364 3.22919 8.97871 3.26098 9.06474C3.29278 9.15076 3.35706 9.22087 3.44002 9.25998C4.20032 9.64594 5.02969 9.87708 5.88002 9.93998H6.20002C6.17982 10.1963 6.17982 10.4537 6.20002 10.71C6.20002 11.09 6.36002 11.45 6.43002 11.81C6.43612 11.8548 6.45112 11.898 6.47413 11.937C6.49714 11.976 6.52771 12.01 6.56404 12.037C6.60036 12.064 6.64172 12.0835 6.68567 12.0943C6.72963 12.1051 6.77531 12.1071 6.82002 12.1C6.90753 12.0852 6.98615 12.0378 7.03999 11.9672C7.09383 11.8967 7.11886 11.8083 7.11002 11.72C7.11002 11.42 7.11002 11.11 7.04002 10.81C6.97002 10.51 7.00002 10.21 6.90002 9.89998C7.43286 9.8451 7.95309 9.70322 8.44002 9.47998C8.80033 9.31247 9.12378 9.07504 9.39158 8.7815C9.65938 8.48795 9.86619 8.14412 10 7.76998C10.084 7.48595 10.106 7.1872 10.0646 6.89393C10.0232 6.60065 9.91931 6.31968 9.76002 6.06998C9.60149 5.80725 9.38806 5.58187 9.13434 5.40928C8.88063 5.23668 8.59261 5.12094 8.29002 5.06998C7.18806 5.01037 6.08296 5.08763 5.00002 5.29998C4.72807 5.33235 4.45238 5.30853 4.19002 5.22998C4.10444 5.20772 4.02495 5.1665 3.95745 5.10938C3.88994 5.05226 3.83614 4.9807 3.80002 4.89998C3.77532 4.80933 3.76968 4.71454 3.78345 4.6216C3.79722 4.52866 3.8301 4.43958 3.88002 4.35998C4.00764 4.12756 4.17716 3.92074 4.38002 3.74998C4.89644 3.35319 5.50573 3.09502 6.15002 2.99998C6.82056 2.87499 7.51257 2.93727 8.15002 3.17998C8.22166 3.19994 8.29816 3.19257 8.36468 3.15931C8.4312 3.12605 8.483 3.06927 8.51002 2.99998C8.52627 2.96402 8.535 2.92512 8.53569 2.88566C8.53638 2.84621 8.52901 2.80702 8.51404 2.77051C8.49906 2.734 8.47679 2.70094 8.44858 2.67333C8.42038 2.64573 8.38684 2.62417 8.35002 2.60998C7.72207 2.32997 7.03658 2.20315 6.35002 2.23998V1.77998C6.32311 1.48385 6.27634 1.18985 6.21002 0.899983C6.19522 0.81055 6.1463 0.730347 6.07356 0.676256C6.00082 0.622165 5.90992 0.598408 5.82002 0.609983C5.77516 0.616085 5.73198 0.631082 5.693 0.654096C5.65401 0.677109 5.62002 0.707676 5.59301 0.744002C5.566 0.780328 5.54651 0.821682 5.53569 0.865639C5.52488 0.909596 5.52295 0.955271 5.53002 0.999983C5.51307 1.2864 5.51307 1.57357 5.53002 1.85998C5.54837 2.00551 5.57847 2.14931 5.62002 2.28998C4.96161 2.41161 4.33732 2.67429 3.79002 3.05998C3.41034 3.3149 3.0981 3.65802 2.88002 4.05998C2.71182 4.40167 2.67619 4.79357 2.78002 5.15998C2.83627 5.37213 2.93781 5.56957 3.07763 5.73874C3.21745 5.90791 3.39226 6.0448 3.59002 6.13998Z" fill="black"/>
<path d="M15.1 5.41996C15.5065 5.72835 15.9849 5.92798 16.49 5.99996C17.3523 6.04966 18.2106 6.15319 19.06 6.30996C19.2599 6.34309 19.4491 6.42282 19.6124 6.54269C19.7757 6.66257 19.9085 6.81922 20 6.99996C20.0703 7.16236 20.0962 7.34049 20.0751 7.51617C20.054 7.69186 19.9867 7.8588 19.88 7.99996C19.6058 8.3375 19.2365 8.58486 18.82 8.70996C18.129 8.90637 17.3995 8.92358 16.7 8.75996C15.9786 8.5953 15.2981 8.28569 14.7 7.84996C14.6645 7.82239 14.624 7.80206 14.5807 7.79015C14.5374 7.77824 14.4921 7.77498 14.4476 7.78055C14.403 7.78612 14.36 7.80042 14.3209 7.82263C14.2819 7.84483 14.2476 7.87451 14.22 7.90996C14.1924 7.94542 14.1721 7.98596 14.1602 8.02927C14.1483 8.07259 14.145 8.11782 14.1506 8.16239C14.1562 8.20696 14.1705 8.25 14.1927 8.28905C14.2149 8.32809 14.2445 8.36239 14.28 8.38996C14.9366 8.91641 15.6912 9.30729 16.5 9.53996L16.8 9.60996C16.7446 9.85726 16.7046 10.1077 16.68 10.36V11.46C16.6773 11.5046 16.6834 11.5494 16.6981 11.5917C16.7127 11.634 16.7355 11.673 16.7653 11.7064C16.795 11.7398 16.831 11.7671 16.8713 11.7866C16.9116 11.8061 16.9553 11.8174 17 11.82C17.0444 11.8256 17.0895 11.8218 17.1324 11.8089C17.1753 11.796 17.215 11.7742 17.2489 11.745C17.2828 11.7158 17.3102 11.6797 17.3294 11.6393C17.3485 11.5988 17.359 11.5547 17.36 11.51C17.41 11.21 17.47 10.92 17.49 10.62C17.51 10.32 17.49 10.02 17.49 9.71996C18.0154 9.76645 18.5448 9.73273 19.06 9.61996C19.4585 9.54316 19.8368 9.38439 20.1707 9.15372C20.5047 8.92305 20.7871 8.62551 21 8.27996C21.1425 8.02422 21.2271 7.74032 21.2478 7.4483C21.2685 7.15628 21.2249 6.86327 21.12 6.58996C21.013 6.31115 20.848 6.05822 20.636 5.84791C20.424 5.63759 20.1697 5.47469 19.89 5.36996C18.8523 5.06958 17.78 4.90487 16.7 4.87996C16.4343 4.85257 16.1763 4.77449 15.94 4.64996C15.8568 4.61483 15.7834 4.56011 15.7259 4.49046C15.6685 4.42081 15.6287 4.3383 15.61 4.24996C15.6039 4.16023 15.6168 4.07021 15.6478 3.98578C15.6788 3.90135 15.7273 3.8244 15.79 3.75996C15.96 3.56166 16.1673 3.39859 16.4 3.27996C16.9796 2.98554 17.625 2.84472 18.2746 2.87098C18.9241 2.89724 19.5561 3.08971 20.11 3.42996C20.1422 3.45295 20.1786 3.46937 20.2171 3.47828C20.2556 3.4872 20.2955 3.48845 20.3345 3.48195C20.3735 3.47545 20.4108 3.46133 20.4444 3.4404C20.4779 3.41947 20.507 3.39214 20.53 3.35996C20.553 3.32779 20.5694 3.29141 20.5783 3.25289C20.5872 3.21437 20.5885 3.17447 20.582 3.13547C20.5755 3.09647 20.5614 3.05913 20.5404 3.02558C20.5195 2.99204 20.4922 2.96295 20.46 2.93996C19.9235 2.55014 19.304 2.29 18.65 2.17996C18.65 2.04996 18.71 1.89996 18.73 1.74996C18.7495 1.46697 18.7495 1.18296 18.73 0.899964C18.7355 0.808717 18.7052 0.718921 18.6454 0.649778C18.5856 0.580635 18.5011 0.537632 18.41 0.529964C18.3623 0.51982 18.313 0.520049 18.2654 0.530634C18.2178 0.54122 18.1731 0.561916 18.1342 0.591318C18.0953 0.62072 18.0632 0.65814 18.04 0.701041C18.0169 0.743943 18.0032 0.791321 18 0.839964C17.9369 1.11698 17.8902 1.39746 17.86 1.67996C17.85 1.82312 17.85 1.96681 17.86 2.10996C17.2213 2.09412 16.5867 2.21694 16 2.46996C15.5708 2.65213 15.193 2.93719 14.9 3.29996C14.6795 3.58552 14.5662 3.93944 14.58 4.29996C14.5809 4.51308 14.6279 4.72349 14.7176 4.91679C14.8074 5.11009 14.9378 5.28173 15.1 5.41996Z" fill="black"/>
<path d="M9.80002 1.26997C10.0851 1.20153 10.3769 1.16464 10.67 1.15997H11.59H12.5C13.0986 1.10221 13.7014 1.10221 14.3 1.15997C14.3381 1.1723 14.3782 1.17689 14.4181 1.17346C14.458 1.17004 14.4968 1.15867 14.5322 1.14004C14.5676 1.1214 14.5989 1.09587 14.6243 1.06495C14.6497 1.03402 14.6686 0.998331 14.68 0.959973C14.6922 0.922572 14.6967 0.883075 14.6932 0.843887C14.6897 0.8047 14.6782 0.766641 14.6595 0.732028C14.6408 0.697415 14.6152 0.666971 14.5844 0.642549C14.5535 0.618128 14.518 0.600239 14.48 0.589973C13.9435 0.298893 13.3622 0.0994819 12.76 -2.67457e-05C12.5071 -0.0204989 12.2529 -0.0204989 12 -2.67448e-05C11.7479 0.00899416 11.4971 0.0390993 11.25 0.0899733C10.6596 0.184267 10.0866 0.366278 9.55002 0.629973C9.50789 0.645372 9.46935 0.669198 9.43674 0.699995C9.40412 0.730792 9.37813 0.767914 9.36035 0.809093C9.34257 0.850272 9.33337 0.894645 9.33331 0.939499C9.33326 0.984354 9.34234 1.02875 9.36002 1.06997C9.37558 1.11214 9.39935 1.1508 9.42995 1.18372C9.46055 1.21664 9.49738 1.24317 9.5383 1.26177C9.57921 1.28037 9.62341 1.29067 9.66834 1.29208C9.71326 1.29349 9.75802 1.28597 9.80002 1.26997Z" fill="black"/>
<path d="M23.72 10.24C23.5905 9.23618 23.349 8.25004 23 7.29998C22.9866 7.25728 22.9646 7.21777 22.9354 7.18385C22.9061 7.14993 22.8703 7.12231 22.8301 7.10266C22.7899 7.08302 22.7461 7.07176 22.7014 7.06958C22.6567 7.0674 22.612 7.07434 22.57 7.08998C22.4847 7.12161 22.415 7.18525 22.3758 7.2674C22.3366 7.34954 22.3309 7.44373 22.36 7.52998C22.6632 8.43817 22.8645 9.37728 22.96 10.33C23.0498 11.2845 23.0498 12.2454 22.96 13.2C22.8836 14.1565 22.6785 15.0984 22.35 16C21.9992 16.8769 21.5461 17.7093 21 18.48C19.8892 20.076 18.3251 21.3022 16.51 22C14.6902 22.7175 12.7292 23.005 10.78 22.84C9.69991 22.7504 8.63691 22.5149 7.62002 22.14C6.60722 21.7752 5.66379 21.2409 4.83002 20.56C3.02537 18.993 1.76772 16.891 1.24002 14.56C0.659754 12.2094 0.784968 9.73985 1.60002 7.45998C1.62511 7.41982 1.64067 7.37446 1.6455 7.32736C1.65033 7.28026 1.64431 7.23268 1.62789 7.18826C1.61148 7.14385 1.58511 7.10379 1.55081 7.07115C1.51651 7.03852 1.47519 7.01417 1.43002 6.99998C1.38866 6.97902 1.343 6.96794 1.29664 6.9676C1.25027 6.96726 1.20446 6.97767 1.16279 6.99802C1.12112 7.01837 1.08474 7.0481 1.0565 7.08487C1.02826 7.12165 1.00893 7.16447 1.00002 7.20998C0.0617814 9.59518 -0.150444 12.2045 0.390025 14.71C0.891485 17.2578 2.19087 19.5799 4.10002 21.34C5.01497 22.121 6.05662 22.7399 7.18002 23.17C8.29073 23.5921 9.45564 23.8547 10.64 23.95C12.7825 24.1404 14.9394 23.8147 16.93 23C18.9424 22.2044 20.6604 20.8076 21.85 19C22.4009 18.1364 22.8537 17.214 23.2 16.25C23.5424 15.2824 23.7542 14.2735 23.83 13.25C23.8918 12.2455 23.855 11.2373 23.72 10.24Z" fill="black"/>
<path d="M18.94 13.84C18.6073 13.8104 18.2727 13.8104 17.94 13.84C16.54 13.84 13.52 14.02 10.82 14.18C8.12003 14.34 5.39003 14.63 5.39003 14.63C5.29949 14.6962 5.22474 14.7817 5.17114 14.8802C5.11754 14.9788 5.08643 15.088 5.08003 15.2C5.0632 15.7483 5.15145 16.2948 5.34003 16.81C5.62573 17.7628 6.11347 18.6427 6.77003 19.39C7.45096 20.1056 8.27222 20.673 9.18245 21.0567C10.0927 21.4404 11.0723 21.6322 12.06 21.62C14.0563 21.5398 15.9534 20.7283 17.39 19.34C18.3207 18.4227 18.9815 17.2673 19.3 16C19.4739 15.4458 19.4946 14.855 19.36 14.29C19.3264 14.1892 19.2715 14.0969 19.199 14.0192C19.1266 13.9416 19.0382 13.8804 18.94 13.84ZM17.69 17C17.4083 17.5485 17.0402 18.0482 16.6 18.48C15.3759 19.7187 13.7382 20.4628 12 20.57C11.1378 20.6032 10.2778 20.4598 9.47302 20.1485C8.66822 19.8373 7.93555 19.3647 7.32003 18.76C6.84443 18.245 6.46509 17.6489 6.20003 17C5.99452 16.5381 5.85321 16.0502 5.78003 15.55V15.18C7.02598 15.054 8.27773 14.9939 9.53003 15C12.43 14.94 16.13 14.94 17.82 14.94H18.32C18.2622 15.6643 18.0472 16.3672 17.69 17Z" fill="black"/>
</g>
<defs>
<clipPath id="clip0_1032_3555">
<rect width="24" height="24" fill="white"/>
</clipPath>
</defs>
</svg>
