<svg width="24" height="24" viewBox="0 0 24 24" fill="none" xmlns="http://www.w3.org/2000/svg">
<g clip-path="url(#clip0_1032_3493)">
<path d="M10.32 1.21998C10.7064 1.20014 11.0936 1.20014 11.48 1.21998H11.96H12.44C12.83 1.21998 13.19 1.08998 13.59 1.06998C13.6682 1.08148 13.7477 1.06168 13.8114 1.01487C13.8751 0.968063 13.9177 0.898029 13.93 0.81998C13.9371 0.781103 13.9362 0.741184 13.9273 0.702674C13.9184 0.664163 13.9018 0.627874 13.8784 0.596034C13.855 0.564194 13.8253 0.537475 13.7912 0.517518C13.7571 0.497561 13.7192 0.484787 13.68 0.47998C13.285 0.309127 12.8726 0.181712 12.45 0.0999799C12.2703 0.0850002 12.0897 0.0850002 11.91 0.0999799C11.7284 0.108533 11.5478 0.131944 11.37 0.16998C10.9608 0.26982 10.5597 0.400185 10.17 0.55998C10.1239 0.571634 10.0807 0.59229 10.0426 0.620756C10.0046 0.649222 9.97255 0.684936 9.94838 0.725838C9.92421 0.76674 9.90838 0.812022 9.90179 0.859073C9.89521 0.906124 9.898 0.954013 9.91001 0.99998C9.93952 1.08052 9.99757 1.14742 10.0732 1.18797C10.1487 1.22853 10.2366 1.23992 10.32 1.21998Z" fill="black"/>
<path d="M24 11.07C24 10.9798 23.9642 10.8933 23.9004 10.8296C23.8367 10.7658 23.7502 10.73 23.66 10.73C23.5699 10.73 23.4834 10.7658 23.4196 10.8296C23.3559 10.8933 23.32 10.9798 23.32 11.07V12.07C23.32 12.38 23.32 12.76 23.27 13.07C23.1716 14.0126 22.9462 14.9377 22.6 15.82C22.2623 16.7078 21.8227 17.5535 21.29 18.34C20.1632 19.917 18.5884 21.119 16.77 21.79C14.9559 22.5027 13.0026 22.7901 11.06 22.63C9.98437 22.5388 8.92533 22.3068 7.91003 21.94C6.89952 21.6203 5.94971 21.1335 5.10003 20.5C3.86742 19.4707 2.88008 18.1793 2.21003 16.72C1.5259 15.236 1.13863 13.6326 1.07003 12C1.06744 11.9222 1.03469 11.8484 0.978705 11.7943C0.922723 11.7402 0.847894 11.7099 0.770032 11.71C0.68956 11.7126 0.613256 11.7464 0.557265 11.8042C0.501274 11.8621 0.46999 11.9395 0.470032 12.02C0.473688 13.736 0.813416 15.4346 1.47003 17.02C2.13779 18.6356 3.16356 20.0785 4.47003 21.24C5.36328 22.0277 6.38917 22.6506 7.50003 23.08C8.6034 23.5052 9.76169 23.7712 10.94 23.87C13.0551 24.0473 15.1822 23.7254 17.15 22.93C19.1277 22.142 20.8192 20.7714 22 19C22.5451 18.1411 22.9881 17.2215 23.32 16.26C23.6666 15.2941 23.8754 14.2841 23.94 13.26V12.18C24 11.8 24 11.44 24 11.07Z" fill="black"/>
<path d="M12.39 4.58999C12.0715 5.20097 11.8767 5.86876 11.8166 6.55513C11.7566 7.24151 11.8325 7.93298 12.04 8.58999C12.2336 9.25389 12.5629 9.87039 13.007 10.4005C13.4511 10.9307 14.0003 11.3629 14.62 11.67C15.8412 12.2344 17.1911 12.4623 18.53 12.33C19.5537 12.2712 20.5452 11.951 21.41 11.4C21.8583 11.1023 22.2399 10.7149 22.5308 10.2622C22.8217 9.80954 23.0155 9.30142 23.1 8.76999C23.2287 8.03385 23.2118 7.27959 23.05 6.54999C22.8797 5.78834 22.4904 5.09312 21.93 4.54999C21.4061 4.08373 20.7929 3.72892 20.1276 3.50716C19.4623 3.28539 18.7588 3.20129 18.06 3.25999C17.5706 3.28787 17.0951 3.43331 16.6738 3.68398C16.2526 3.93465 15.8979 4.28316 15.64 4.69999C15.321 5.26879 15.235 5.93908 15.4 6.56999C15.4696 6.88905 15.6052 7.19001 15.7981 7.45351C15.991 7.71702 16.2369 7.93723 16.52 8.09999C17.0471 8.36854 17.6447 8.46639 18.23 8.37999C18.4479 8.34993 18.6544 8.2642 18.8296 8.13108C19.0048 7.99795 19.1427 7.82193 19.23 7.61999C19.2484 7.57928 19.2586 7.53535 19.26 7.49069C19.2614 7.44604 19.254 7.40155 19.2382 7.35976C19.2224 7.31797 19.1986 7.2797 19.168 7.24714C19.1374 7.21457 19.1007 7.18836 19.06 7.16999C18.9762 7.13613 18.8826 7.13595 18.7988 7.1695C18.7149 7.20304 18.6473 7.26772 18.61 7.34999C18.49 7.62999 18.18 7.69999 17.87 7.70999C17.5222 7.70236 17.1805 7.61693 16.87 7.45999C16.6902 7.34992 16.5346 7.20456 16.4126 7.03269C16.2906 6.86081 16.2046 6.66599 16.16 6.45999C16.0513 6.03269 16.116 5.57976 16.34 5.19999C16.5978 4.82901 16.9552 4.53835 17.3709 4.36145C17.7866 4.18455 18.2439 4.12858 18.69 4.19999C19.6347 4.26502 20.5281 4.65348 21.22 5.29999C21.6167 5.71213 21.8874 6.22911 22 6.78999C22.1149 7.38112 22.1149 7.98886 22 8.57999C21.9329 8.96275 21.7872 9.32745 21.5721 9.65104C21.3569 9.97464 21.077 10.2501 20.75 10.46C20.0496 10.9009 19.2467 11.1525 18.42 11.19C17.286 11.3066 16.1413 11.1238 15.1 10.66C14.6041 10.4253 14.1617 10.0912 13.8005 9.67832C13.4392 9.26544 13.1667 8.78266 13 8.25999C12.6393 7.18699 12.7184 6.0148 13.22 4.99999C13.7338 3.93927 14.5251 3.03738 15.51 2.38999C16.2853 1.8276 17.1966 1.48238 18.15 1.38999C18.6173 1.36477 19.0846 1.4411 19.5196 1.61373C19.9546 1.78636 20.3471 2.05119 20.67 2.38999C20.7255 2.42628 20.7916 2.44312 20.8577 2.43788C20.9239 2.43265 20.9864 2.40562 21.0356 2.36104C21.0847 2.31645 21.1177 2.25683 21.1294 2.1915C21.141 2.12617 21.1307 2.05882 21.1 1.99999C20.7227 1.58241 20.2587 1.25237 19.7405 1.03299C19.2223 0.813613 18.6624 0.710196 18.1 0.729988C17.0132 0.790281 15.9614 1.13513 15.05 1.72999C13.9213 2.42559 13.0021 3.41391 12.39 4.58999Z" fill="black"/>
<path d="M5.51 12C7.77 12 9.9 10.81 10.21 8.27999C10.2756 7.60058 10.1797 6.91527 9.93 6.27999C9.6985 5.62138 9.30267 5.03279 8.78 4.56999C8.08992 4.04609 7.23481 3.78708 6.37 3.83999C5.93025 3.85063 5.49859 3.96049 5.10725 4.16135C4.71591 4.36222 4.37501 4.6489 4.11 4.99999C3.89375 5.36838 3.77973 5.78782 3.77973 6.21499C3.77973 6.64217 3.89375 7.0616 4.11 7.42999C4.26372 7.6988 4.50833 7.90391 4.79982 8.0084C5.09131 8.1129 5.41052 8.10992 5.7 7.99999C5.74242 7.98748 5.7819 7.96657 5.81608 7.9385C5.85026 7.91043 5.87845 7.87578 5.89897 7.8366C5.91949 7.79742 5.93193 7.75451 5.93554 7.71043C5.93916 7.66635 5.93387 7.62199 5.92 7.57999C5.89449 7.49401 5.83603 7.42159 5.75736 7.37851C5.67869 7.33543 5.58619 7.32518 5.5 7.34999C5.03 7.48999 4.73 7.14999 4.6 6.73999C4.51879 6.52137 4.4883 6.28716 4.51082 6.05504C4.53334 5.82291 4.60828 5.59893 4.73 5.39999C4.93891 5.16598 5.19692 4.98099 5.48561 4.85825C5.7743 4.73552 6.08653 4.67806 6.4 4.68999C7.04414 4.67204 7.67412 4.88086 8.18 5.27999C8.56305 5.63755 8.84577 6.08921 9 6.58999C9.18024 7.07856 9.24194 7.60293 9.18 8.11999C8.91 10.05 7.24 10.86 5.52 10.84C4.65693 10.88 3.80065 10.6701 3.0539 10.2355C2.30714 9.80093 1.70163 9.16014 1.31 8.38999C0.530003 6.49999 1.5 4.32999 3 2.93999C4.5 1.54999 6.85 0.939993 8.61 2.33999C8.63847 2.37155 8.67331 2.3967 8.71223 2.41378C8.75115 2.43085 8.79325 2.43946 8.83574 2.43904C8.87824 2.43862 8.92016 2.42918 8.95873 2.41133C8.9973 2.39349 9.03164 2.36765 9.05947 2.33554C9.08731 2.30342 9.108 2.26576 9.12018 2.22504C9.13236 2.18433 9.13575 2.14149 9.13013 2.09936C9.12451 2.05724 9.11 2.01679 9.08757 1.9807C9.06513 1.9446 9.03529 1.91368 9 1.88999C7.06 0.119993 4.4 0.689993 2.48 2.29999C0.560003 3.90999 -0.559997 6.49999 0.290003 8.78999C0.751996 9.77601 1.49238 10.6053 2.41992 11.1757C3.34746 11.7461 4.42161 12.0326 5.51 12Z" fill="black"/>
<path d="M17.61 14.34C17.6114 14.2958 17.6038 14.2518 17.5878 14.2106C17.5718 14.1694 17.5477 14.1319 17.517 14.1001C17.4862 14.0684 17.4494 14.0432 17.4087 14.026C17.368 14.0088 17.3242 14 17.28 14C15.948 13.9155 14.612 13.9155 13.28 14C12.7001 14.0398 12.1226 14.1099 11.55 14.21C10.9789 14.3078 10.4144 14.4414 9.86002 14.61C8.56277 15.0192 7.32789 15.6046 6.19002 16.35C6.15536 16.3678 6.12465 16.3925 6.09974 16.4225C6.07482 16.4524 6.05621 16.4871 6.04501 16.5245C6.0338 16.5618 6.03025 16.601 6.03454 16.6398C6.03884 16.6785 6.05091 16.716 6.07002 16.75C6.08885 16.785 6.11446 16.8159 6.14534 16.8409C6.17622 16.8659 6.21177 16.8846 6.24992 16.8957C6.28807 16.9069 6.32805 16.9104 6.36755 16.9059C6.40705 16.9015 6.44528 16.8893 6.48002 16.87C7.81653 16.2579 9.22401 15.8145 10.67 15.55H10.79C10.91 15.77 11.02 15.99 11.12 16.22C11.2346 16.4724 11.3185 16.7376 11.37 17.01C11.4272 17.768 11.5442 18.5204 11.72 19.26C11.9448 19.8403 12.3756 20.3173 12.93 20.6C13.5367 20.9626 14.2558 21.0887 14.9496 20.954C15.6434 20.8193 16.2631 20.4333 16.69 19.87C17.2511 19.1493 17.6083 18.2912 17.7244 17.3853C17.8405 16.4793 17.7112 15.5589 17.35 14.72C17.3924 14.7128 17.4329 14.6972 17.4691 14.674C17.5053 14.6508 17.5364 14.6206 17.5607 14.5852C17.5849 14.5497 17.6018 14.5097 17.6103 14.4676C17.6188 14.4255 17.6187 14.3821 17.61 14.34ZM16.32 18.5C15.71 19.5 14.68 20.22 13.45 19.5C13.1091 19.3558 12.8319 19.0929 12.67 18.76C12.4514 18.1067 12.2809 17.4382 12.16 16.76C12.0868 16.5144 11.9897 16.2766 11.87 16.05C11.75 15.81 11.61 15.59 11.47 15.36C12.07 15.25 12.67 15.14 13.27 15.06C14.39 14.9 15.51 14.79 16.64 14.72C16.8831 15.3318 16.9807 15.9917 16.9252 16.6477C16.8696 17.3036 16.6625 17.9377 16.32 18.5Z" fill="black"/>
</g>
<defs>
<clipPath id="clip0_1032_3493">
<rect width="24" height="24" fill="white"/>
</clipPath>
</defs>
</svg>
