<svg width="24" height="24" viewBox="0 0 24 24" fill="none" xmlns="http://www.w3.org/2000/svg">
<g clip-path="url(#clip0_1032_3482)">
<path d="M9.62001 22.1C9.57529 22.0914 9.52929 22.0919 9.48476 22.1014C9.44022 22.1109 9.39804 22.1292 9.36074 22.1554C9.32343 22.1815 9.29175 22.2148 9.26757 22.2534C9.2434 22.292 9.22722 22.3351 9.22001 22.38C9.19837 22.465 9.15598 22.5433 9.09664 22.6079C9.0373 22.6725 8.96287 22.7213 8.88001 22.75C8.51306 22.8729 8.12661 22.9272 7.74001 22.91C6.87001 22.91 5.91001 23 4.99001 22.91C4.41534 22.8734 3.84924 22.7521 3.31001 22.55C2.92518 22.4298 2.60235 22.1644 2.41001 21.81C2.34793 21.6425 2.33188 21.4613 2.36354 21.2855C2.39519 21.1096 2.47339 20.9454 2.59001 20.81C2.71384 20.6345 2.87417 20.4878 3.06001 20.38C3.42302 20.1771 3.8048 20.0096 4.20001 19.88C4.52446 19.7874 4.83419 19.6494 5.12001 19.47C5.28439 19.3596 5.40197 19.1921 5.45001 19C5.49551 18.6984 5.49551 18.3917 5.45001 18.09C5.38001 17.51 5.20001 16.88 5.14001 16.37C5.05001 15.5 4.97001 14.62 4.91001 13.74C4.85001 12.86 4.86001 12 4.86001 11.1C4.86271 11.0598 4.85729 11.0195 4.84405 10.9814C4.83082 10.9433 4.81005 10.9083 4.78298 10.8784C4.75591 10.8486 4.7231 10.8245 4.68651 10.8075C4.64992 10.7906 4.6103 10.7813 4.57001 10.78C4.49182 10.7821 4.41711 10.8128 4.36 10.8662C4.30288 10.9197 4.26731 10.9922 4.26001 11.07C4.20001 11.96 4.17001 12.86 4.16001 13.76C4.15001 14.66 4.16001 15.55 4.16001 16.44C4.16001 16.95 4.33001 17.59 4.36001 18.18C4.38534 18.3625 4.38534 18.5476 4.36001 18.73C4.36001 18.66 4.36001 18.56 4.43001 18.61C4.50001 18.66 4.43001 18.7 4.36001 18.73C4.29001 18.76 3.88001 18.8 3.79001 18.83C3.32659 18.9821 2.87806 19.1763 2.45001 19.41C2.11521 19.6082 1.82837 19.878 1.61001 20.2C1.38664 20.4972 1.24742 20.849 1.20695 21.2185C1.16648 21.588 1.22626 21.9616 1.38001 22.3C1.55041 22.609 1.78192 22.88 2.06042 23.0966C2.33893 23.3133 2.65861 23.4709 3.00001 23.56C3.64734 23.7644 4.32124 23.8722 5.00001 23.88C5.95256 23.8715 6.90395 23.8114 7.85001 23.7C8.3303 23.6882 8.80454 23.59 9.25001 23.41C9.43397 23.3297 9.59462 23.2041 9.71701 23.045C9.8394 22.8859 9.91955 22.6984 9.95001 22.5C9.95872 22.4515 9.95676 22.4016 9.94425 22.3539C9.93175 22.3061 9.90901 22.2617 9.87761 22.2236C9.84622 22.1856 9.80691 22.1548 9.76242 22.1335C9.71794 22.1121 9.66934 22.1007 9.62001 22.1Z" fill="black"/>
<path d="M8.54999 10.55C8.54624 10.5106 8.53471 10.4722 8.51605 10.4372C8.4974 10.4022 8.47199 10.3713 8.44131 10.3462C8.41062 10.3211 8.37526 10.3023 8.33727 10.291C8.29928 10.2796 8.25942 10.2759 8.21999 10.28C8.17957 10.2837 8.14031 10.2955 8.1046 10.3148C8.06888 10.3341 8.03745 10.3604 8.01221 10.3922C7.98697 10.424 7.96844 10.4606 7.95774 10.4997C7.94705 10.5389 7.94441 10.5798 7.94999 10.62V13.62V14.9V16.19C7.94999 17.19 8.04999 18.19 8.07999 19.19C8.0939 19.2714 8.13617 19.3453 8.19931 19.3986C8.26244 19.4519 8.34239 19.4811 8.42499 19.4811C8.5076 19.4811 8.58754 19.4519 8.65068 19.3986C8.71381 19.3453 8.75608 19.2714 8.76999 19.19C8.86999 18.19 8.97999 17.19 9.02999 16.19V14.88C9.02999 14.44 9.02999 14.01 8.97999 13.57C8.88744 12.5568 8.74392 11.5488 8.54999 10.55Z" fill="black"/>
<path d="M16.26 9.69C16.1848 9.69761 16.1156 9.73427 16.067 9.79217C16.0185 9.85007 15.9944 9.92464 16 10C15.95 11.07 15.88 12.12 15.88 13.19V15.29C15.88 15.99 15.88 16.82 15.96 17.59C15.9701 17.9248 16.0001 18.2588 16.05 18.59C16.0526 18.6347 16.0639 18.6784 16.0834 18.7187C16.1029 18.759 16.1301 18.795 16.1636 18.8247C16.197 18.8545 16.236 18.8773 16.2783 18.8919C16.3206 18.9066 16.3653 18.9127 16.41 18.91C16.5011 18.9023 16.5856 18.8593 16.6454 18.7902C16.7052 18.721 16.7356 18.6313 16.73 18.54C16.7084 18.207 16.7084 17.873 16.73 17.54C16.79 16.77 16.91 16 16.96 15.23C17.01 14.46 16.96 13.8 16.91 13.09C16.83 12.02 16.65 10.98 16.52 9.92C16.5059 9.85945 16.4732 9.80478 16.4267 9.76358C16.3801 9.72237 16.3218 9.69666 16.26 9.69Z" fill="black"/>
<path d="M21.9 18.48C21.4509 18.2128 20.966 18.0108 20.46 17.88C20.23 17.82 19.96 17.8 19.72 17.74H19.66V16.24C19.66 15.13 19.58 14.03 19.57 12.92V10.72C19.5727 10.6806 19.5676 10.641 19.555 10.6036C19.5424 10.5661 19.5225 10.5316 19.4965 10.5018C19.4705 10.4721 19.4389 10.4478 19.4034 10.4303C19.368 10.4128 19.3295 10.4025 19.29 10.4C19.2506 10.3973 19.211 10.4024 19.1736 10.415C19.1362 10.4276 19.1016 10.4475 19.0719 10.4735C19.0421 10.4995 19.0178 10.5312 19.0003 10.5666C18.9829 10.602 18.9726 10.6406 18.97 10.68C18.89 11.61 18.83 12.53 18.79 13.46L18.67 16.23L18.6 17.65C18.5932 17.7866 18.5932 17.9234 18.6 18.06C18.6021 18.1353 18.6191 18.2094 18.65 18.278C18.6809 18.3467 18.7251 18.4085 18.78 18.46C18.9278 18.5938 19.1013 18.6959 19.29 18.76C19.57 18.87 19.91 18.9 20.19 18.98C20.538 19.0687 20.8739 19.1997 21.19 19.37C21.4621 19.4978 21.6989 19.69 21.88 19.93C22.0061 20.1404 22.0824 20.3767 22.1032 20.6211C22.124 20.8655 22.0887 21.1114 22 21.34C21.9265 21.5951 21.7992 21.8315 21.6267 22.0333C21.4542 22.2351 21.2406 22.3976 21 22.51C20.3739 22.8176 19.6954 23.0042 19 23.06C17.9148 23.14 16.8252 23.14 15.74 23.06C15.5365 23.0574 15.3358 23.0132 15.15 22.93C15.0751 22.8982 15.0073 22.8517 14.9507 22.7934C14.894 22.735 14.8496 22.6658 14.82 22.59C14.7909 22.5038 14.7286 22.4327 14.6471 22.3924C14.5655 22.3521 14.4712 22.3458 14.385 22.375C14.2988 22.4042 14.2278 22.4664 14.1874 22.548C14.1471 22.6296 14.1409 22.7238 14.17 22.81C14.2596 23.0762 14.4311 23.3073 14.66 23.47C14.9584 23.6679 15.3029 23.785 15.66 23.81C16.7831 23.9652 17.9164 24.0354 19.05 24.02C19.8486 23.9821 20.6342 23.8027 21.37 23.49C21.747 23.3226 22.0843 23.0776 22.3601 22.7708C22.6358 22.4641 22.8436 22.1026 22.97 21.71C23.1053 21.3079 23.1449 20.8799 23.0859 20.4598C23.0269 20.0398 22.8708 19.6392 22.63 19.29C22.4405 18.976 22.1927 18.7011 21.9 18.48Z" fill="black"/>
<path d="M2.15015 17.69C2.23041 17.6456 2.29005 17.5715 2.31623 17.4836C2.34241 17.3957 2.33305 17.3011 2.29015 17.22C1.34642 15.3123 0.902546 13.1962 1.00015 11.07C1.05182 8.97344 1.75038 6.94413 3.00015 5.26C3.84708 4.10327 4.89754 3.11041 6.10015 2.33C7.30173 1.537 8.67101 1.03379 10.1001 0.86C10.7896 0.761803 11.484 0.701712 12.1801 0.68C12.6444 0.67863 13.1084 0.701997 13.5701 0.75C13.609 0.757107 13.6489 0.756193 13.6875 0.747314C13.726 0.738435 13.7623 0.721779 13.7941 0.698367C13.8259 0.674955 13.8527 0.645282 13.8726 0.61117C13.8926 0.577059 13.9053 0.539227 13.9101 0.5C13.9173 0.461123 13.9163 0.421204 13.9075 0.382694C13.8986 0.344183 13.8819 0.307894 13.8585 0.276054C13.8351 0.244214 13.8054 0.217495 13.7713 0.197538C13.7372 0.177581 13.6994 0.164807 13.6601 0.16C13.1745 0.0725773 12.6833 0.0191144 12.1901 0L9.99015 0C8.41384 0.121483 6.8888 0.61498 5.54015 1.44C4.1966 2.25122 3.01912 3.30994 2.07015 4.56C0.720841 6.43595 -0.00341541 8.6892 0.000149221 11C-0.0106798 13.2786 0.568065 15.5212 1.68015 17.51C1.71945 17.5955 1.79063 17.6621 1.87847 17.6958C1.96631 17.7294 2.06382 17.7273 2.15015 17.69Z" fill="black"/>
<path d="M23.93 9.84999C23.8358 8.82824 23.621 7.82123 23.29 6.84999C22.606 5.03884 21.411 3.46517 19.85 2.31999C18.3122 1.19926 16.5034 0.508876 14.61 0.319995C14.5653 0.314422 14.5199 0.317787 14.4766 0.329895C14.4332 0.342002 14.3926 0.362611 14.3573 0.390523C14.3219 0.418435 14.2925 0.453094 14.2706 0.492488C14.2488 0.531881 14.235 0.575222 14.23 0.619995C14.223 0.664138 14.225 0.709252 14.2359 0.752598C14.2468 0.795944 14.2664 0.836618 14.2936 0.872154C14.3207 0.907689 14.3547 0.937344 14.3937 0.95932C14.4326 0.981296 14.4756 0.995134 14.52 0.999995C16.2531 1.28932 17.8803 2.02709 19.24 3.13999C20.6143 4.20573 21.6552 5.64219 22.24 7.27999C22.5421 8.16284 22.7532 9.07424 22.87 9.99999C22.9948 10.9378 23.0383 11.8847 23 12.83C22.9767 13.4671 22.8896 14.1003 22.74 14.72C22.585 15.3483 22.3811 15.9635 22.13 16.56C22.0969 16.6329 22.094 16.716 22.1222 16.7911C22.1503 16.8661 22.2071 16.9268 22.28 16.96C22.3529 16.9931 22.4361 16.996 22.5111 16.9678C22.5861 16.9397 22.6469 16.8829 22.68 16.81C22.9829 16.1976 23.237 15.5623 23.44 14.91C23.6487 14.2591 23.7927 13.5892 23.87 12.91C23.9966 11.8949 24.0168 10.8693 23.93 9.84999Z" fill="black"/>
<path d="M9.20002 8.29999C9.04325 7.80004 8.73853 7.3594 8.32611 7.03625C7.91368 6.7131 7.41295 6.52262 6.89002 6.48999C6.61499 6.48078 6.34056 6.52143 6.08002 6.60999C5.70093 6.73161 5.35753 6.94452 5.08002 7.22999C4.48749 7.87417 4.17149 8.7252 4.20002 9.59999C4.19152 9.67808 4.214 9.75639 4.26261 9.81809C4.31123 9.8798 4.38211 9.91997 4.46002 9.92999C4.49891 9.93558 4.53853 9.93321 4.57647 9.92302C4.61442 9.91283 4.6499 9.89504 4.68076 9.87073C4.71162 9.84642 4.73722 9.81608 4.756 9.78158C4.77478 9.74707 4.78635 9.7091 4.79002 9.66999C4.92311 9.02944 5.27706 8.45604 5.79002 8.04999C5.9828 7.89913 6.19899 7.7809 6.43002 7.69999C6.83362 7.55727 7.27581 7.56926 7.67109 7.73365C8.06636 7.89804 8.38665 8.20315 8.57002 8.58999C8.60877 8.66553 8.67439 8.72384 8.75396 8.75345C8.83354 8.78306 8.92131 8.78182 9.00002 8.74999C9.04339 8.73451 9.08317 8.71039 9.11693 8.67908C9.1507 8.64777 9.17775 8.60993 9.19646 8.56785C9.21516 8.52577 9.22512 8.48033 9.22573 8.43428C9.22634 8.38824 9.2176 8.34255 9.20002 8.29999Z" fill="black"/>
<path d="M17.8 7.29999C18.2329 7.38843 18.6192 7.63054 18.8876 7.98161C19.156 8.33268 19.2882 8.769 19.26 9.20999C19.2529 9.25489 19.2553 9.30077 19.2668 9.34474C19.2783 9.38871 19.2988 9.42982 19.327 9.4655C19.3552 9.50117 19.3904 9.53065 19.4305 9.55207C19.4706 9.57349 19.5147 9.5864 19.56 9.58999C19.6486 9.59842 19.7371 9.57171 19.8063 9.51561C19.8755 9.45951 19.9199 9.37849 19.93 9.28999C20.0518 8.77322 20.0138 8.23163 19.8209 7.73696C19.6281 7.24229 19.2895 6.81789 18.85 6.51999C18.6249 6.36463 18.3745 6.24958 18.11 6.17999C17.7094 6.08006 17.2905 6.08006 16.89 6.17999C16.4379 6.29191 16.0268 6.52988 15.7046 6.86623C15.3824 7.20257 15.1624 7.62348 15.07 8.07999C15.0574 8.11741 15.0524 8.15694 15.0552 8.19631C15.058 8.23568 15.0685 8.27411 15.0861 8.30941C15.1038 8.34471 15.1282 8.37618 15.158 8.40202C15.1879 8.42786 15.2225 8.44756 15.26 8.45999C15.2967 8.47416 15.3359 8.48072 15.3752 8.47927C15.4145 8.47782 15.4531 8.46839 15.4886 8.45155C15.5242 8.43471 15.5559 8.41082 15.5819 8.38132C15.6079 8.35183 15.6277 8.31735 15.64 8.27999C15.7717 8.002 15.9739 7.76338 16.2266 7.58793C16.4793 7.41247 16.7735 7.30629 17.08 7.27999C17.3194 7.24668 17.5627 7.25344 17.8 7.29999Z" fill="black"/>
<path d="M14.9 20.3C14.9666 19.6655 15 19.028 15 18.39C15 17.9 15 16.24 14.89 15.56C14.872 15.398 14.821 15.2414 14.74 15.1C14.707 15.0443 14.6621 14.9967 14.6085 14.9604C14.5549 14.9241 14.494 14.9 14.43 14.89C11.43 14.76 11.1 14.75 10.33 14.73C10.2906 14.73 10.2516 14.7377 10.2152 14.7528C10.1788 14.7679 10.1457 14.79 10.1179 14.8178C10.09 14.8457 10.0679 14.8788 10.0529 14.9152C10.0378 14.9516 10.03 14.9906 10.03 15.03L10 18.1C9.95865 18.8728 9.95865 19.6472 10 20.42C10.0082 20.5592 10.0545 20.6935 10.1339 20.8081C10.2132 20.9227 10.3226 21.0133 10.45 21.07C10.55 21.07 12.9 21.31 13.83 21.29C14.1086 21.3037 14.3826 21.2147 14.6 21.04C14.7602 20.8222 14.8633 20.5678 14.9 20.3ZM13.76 20.14C13.05 20.14 11.61 20.14 11.01 20.08C10.91 19.46 10.83 18.32 10.82 18.08L10.67 15.42L13.98 15.75C14.0033 16.6138 13.9832 17.4782 13.92 18.34C13.89 18.81 13.85 19.64 13.76 20.14Z" fill="black"/>
</g>
<defs>
<clipPath id="clip0_1032_3482">
<rect width="24" height="24" fill="white"/>
</clipPath>
</defs>
</svg>
