<svg width="24" height="24" viewBox="0 0 24 24" fill="none" xmlns="http://www.w3.org/2000/svg">
<g clip-path="url(#clip0_1032_3603)">
<path d="M23.87 10C23.7581 8.97645 23.5266 7.96956 23.18 7C22.5109 5.20543 21.337 3.64265 19.8 2.5C18.2886 1.36743 16.5053 0.653428 14.63 0.430001C14.539 0.42118 14.4482 0.447268 14.3757 0.502975C14.3033 0.558682 14.2548 0.639841 14.24 0.730001C14.2314 0.819794 14.2578 0.909441 14.3137 0.98024C14.3696 1.05104 14.4506 1.09753 14.54 1.11C16.2932 1.35637 17.9497 2.0638 19.34 3.16C20.718 4.23888 21.7589 5.68919 22.34 7.34C22.6635 8.24242 22.8849 9.17826 23 10.13C23.0853 11.0848 23.0853 12.0452 23 13C22.9072 13.9406 22.6921 14.8651 22.36 15.75C22.0217 16.6389 21.5857 17.4874 21.06 18.28C19.9445 19.8753 18.3722 21.0954 16.55 21.78C14.7291 22.5071 12.7634 22.7982 10.81 22.63C9.72941 22.5372 8.6664 22.2984 7.64999 21.92C6.64244 21.548 5.70569 21.0069 4.87999 20.32C2.80435 18.4788 1.46226 15.9508 1.09999 13.2C0.635935 10.4447 1.27539 7.61744 2.87999 5.33C3.72633 4.15467 4.78441 3.14745 5.99999 2.36C7.23129 1.5939 8.62547 1.12803 10.07 1C10.78 0.930001 11.48 0.870001 12.19 0.870001C12.6582 0.865087 13.1262 0.895171 13.59 0.960001C13.6306 0.970566 13.673 0.972479 13.7145 0.965617C13.7559 0.958755 13.7954 0.943271 13.8305 0.920166C13.8656 0.897061 13.8954 0.86685 13.9181 0.831489C13.9407 0.796128 13.9557 0.756404 13.962 0.714888C13.9684 0.673372 13.9659 0.630989 13.9548 0.590482C13.9437 0.549974 13.9243 0.512245 13.8977 0.479735C13.8711 0.447225 13.838 0.420659 13.8005 0.401756C13.763 0.382854 13.7219 0.372035 13.68 0.370001C13.1914 0.275663 12.6969 0.215517 12.2 0.190001C11.4656 0.179581 10.7311 0.209626 9.99999 0.280001C8.44943 0.420451 6.95139 0.912959 5.61999 1.72C4.29658 2.53093 3.13662 3.58236 2.19999 4.82C0.406506 7.2692 -0.344868 10.3286 0.109987 13.33C0.464983 16.3507 1.90404 19.14 4.15999 21.18C5.08067 21.9609 6.12946 22.5766 7.25999 23C8.38069 23.4117 9.55076 23.674 10.74 23.78C12.8729 23.95 15.0161 23.6213 17 22.82C19.0214 22.0263 20.7496 20.6298 21.95 18.82C22.5132 17.9568 22.973 17.0305 23.32 16.06C23.6688 15.0933 23.8874 14.0844 23.97 13.06C24.0321 12.0391 23.9986 11.0147 23.87 10Z" fill="black"/>
<path d="M8.99998 8.61003C9.18857 8.20386 9.21713 7.74154 9.07998 7.31525C8.94282 6.88896 8.65003 6.53003 8.25998 6.31003C7.99447 6.19122 7.70341 6.14087 7.41342 6.16358C7.12343 6.18629 6.84376 6.28133 6.59998 6.44003C5.59998 7.04003 4.98998 8.62003 6.13998 9.44003C6.3811 9.57821 6.64758 9.66642 6.92353 9.6994C7.19947 9.73239 7.47923 9.70947 7.74613 9.63201C8.01303 9.55455 8.2616 9.42415 8.47702 9.24856C8.69243 9.07298 8.87029 8.85582 8.99998 8.61003Z" fill="black"/>
<path d="M15.72 9.42001C15.9611 9.56995 16.2361 9.65673 16.5196 9.67234C16.8031 9.68794 17.0859 9.63187 17.3421 9.5093C17.5982 9.38672 17.8193 9.2016 17.9849 8.97102C18.1506 8.74044 18.2555 8.47183 18.29 8.19C18.3609 7.83677 18.3177 7.47015 18.1668 7.14303C18.0158 6.81591 17.7648 6.54522 17.45 6.37001C15.74 5.64001 14.06 7.5 15.1 8.9C15.2626 9.11991 15.4751 9.29812 15.72 9.42001Z" fill="black"/>
<path d="M12.76 14.45C12.76 14.06 12.7 13.67 12.66 13.28C12.6641 13.2403 12.66 13.2002 12.648 13.1621C12.6359 13.1241 12.6161 13.0889 12.5898 13.0589C12.5635 13.0288 12.5313 13.0046 12.4952 12.9875C12.4591 12.9705 12.4199 12.9611 12.38 12.96C12.3406 12.9573 12.301 12.9624 12.2636 12.975C12.2261 12.9876 12.1915 13.0075 12.1618 13.0335C12.1321 13.0595 12.1078 13.0911 12.0903 13.1266C12.0728 13.162 12.0625 13.2005 12.06 13.24C11.97 13.65 11.86 14.05 11.77 14.46H10.77C9.52998 14.46 8.29998 14.6 7.07998 14.75C6.90008 14.251 6.68279 13.7663 6.42998 13.3C6.42377 13.2527 6.40638 13.2076 6.37926 13.1684C6.35214 13.1292 6.31607 13.097 6.27404 13.0746C6.23201 13.0521 6.18523 13.0399 6.13757 13.0391C6.08991 13.0383 6.04274 13.0489 5.99998 13.07C5.96172 13.0812 5.92619 13.1002 5.89559 13.1257C5.865 13.1513 5.84001 13.1829 5.82218 13.2186C5.80435 13.2542 5.79406 13.2932 5.79196 13.333C5.78987 13.3728 5.796 13.4126 5.80998 13.45C5.86998 13.87 5.88998 14.37 5.95998 14.92L4.79998 15.11C4.76044 15.1149 4.72228 15.1276 4.68771 15.1475C4.65315 15.1673 4.62288 15.1938 4.59868 15.2254C4.57448 15.2571 4.55682 15.2933 4.54674 15.3318C4.53666 15.3704 4.53437 15.4105 4.53998 15.45C4.55236 15.5287 4.5946 15.5997 4.65791 15.6481C4.72122 15.6965 4.80075 15.7187 4.87998 15.71C5.27998 15.71 5.68998 15.64 6.08998 15.63C6.08998 15.83 6.18998 16.03 6.24998 16.23C6.40998 16.74 6.58998 17.23 6.74998 17.69C6.76722 17.7788 6.81905 17.8572 6.89406 17.9078C6.96908 17.9585 7.06114 17.9772 7.14998 17.96C7.23883 17.9427 7.31719 17.8909 7.36783 17.8159C7.41846 17.7409 7.43722 17.6488 7.41998 17.56C7.41998 17.07 7.36998 16.56 7.30998 16.01C7.30998 15.87 7.30998 15.73 7.23998 15.59H10.16H11.6V16.17V17.76C11.5906 17.8464 11.6148 17.9331 11.6674 18.0023C11.72 18.0715 11.7971 18.1179 11.8829 18.132C11.9687 18.1461 12.0566 18.1268 12.1286 18.0781C12.2006 18.0293 12.2512 17.9549 12.27 17.87C12.42 17.34 12.57 16.87 12.68 16.28C12.68 16.06 12.76 15.83 12.79 15.6H13.79C14.79 15.6 15.79 15.54 16.79 15.47V16.07V17.71C16.7843 17.7997 16.8133 17.8881 16.871 17.957C16.9287 18.0258 17.0107 18.0699 17.1 18.08C17.1449 18.0855 17.1905 18.0818 17.2339 18.0689C17.2774 18.0561 17.3177 18.0345 17.3524 18.0054C17.3871 17.9763 17.4154 17.9404 17.4357 17.8999C17.4559 17.8594 17.4676 17.8152 17.47 17.77C17.58 17.22 17.74 16.7 17.85 16.16C17.85 15.89 17.95 15.63 17.98 15.36C18.57 15.3 19.16 15.26 19.75 15.19C19.8393 15.1799 19.9213 15.1358 19.979 15.067C20.0367 14.9981 20.0657 14.9097 20.06 14.82C20.0562 14.7753 20.0436 14.7317 20.023 14.6919C20.0023 14.6521 19.9739 14.6167 19.9395 14.5879C19.9051 14.5591 19.8654 14.5374 19.8226 14.524C19.7797 14.5106 19.7347 14.5059 19.69 14.51H18.01C18.01 14.06 18.01 13.61 17.94 13.15C17.94 13.0704 17.9084 12.9941 17.8521 12.9378C17.7959 12.8816 17.7195 12.85 17.64 12.85C17.5604 12.85 17.4841 12.8816 17.4279 12.9378C17.3716 12.9941 17.34 13.0704 17.34 13.15C17.23 13.63 17.09 14.08 16.97 14.55H14.39L12.76 14.45Z" fill="black"/>
</g>
<defs>
<clipPath id="clip0_1032_3603">
<rect width="24" height="24" fill="white"/>
</clipPath>
</defs>
</svg>
