<svg width="24" height="24" viewBox="0 0 24 24" fill="none" xmlns="http://www.w3.org/2000/svg">
<g clip-path="url(#clip0_1032_3527)">
<path d="M6.70001 19C7.39738 19.7367 8.24007 20.3206 9.17474 20.7147C10.1094 21.1089 11.1157 21.3048 12.13 21.29C14.1792 21.2099 16.1269 20.3768 17.6 18.95C18.568 18.0152 19.2599 16.832 19.6 15.53C19.7733 14.9586 19.794 14.3519 19.66 13.77C19.6224 13.6711 19.5648 13.5809 19.4909 13.5052C19.4169 13.4295 19.3281 13.3699 19.23 13.33C18.8973 13.3022 18.5628 13.3022 18.23 13.33C16.79 13.33 13.7 13.57 10.92 13.68C9.04923 13.6441 7.17964 13.7982 5.34001 14.14C5.25082 14.212 5.1773 14.3015 5.12399 14.403C5.07068 14.5044 5.03869 14.6157 5.03001 14.73C5.0077 15.2926 5.09954 15.8539 5.30001 16.38C5.57615 17.3425 6.05332 18.2355 6.70001 19ZM9.53001 14.51C12.53 14.45 16.3 14.44 18.04 14.44H18.56C18.4928 15.1904 18.2715 15.9189 17.91 16.58C17.6178 17.1443 17.2362 17.6576 16.78 18.1C15.5316 19.3638 13.8627 20.1253 12.09 20.24C11.2051 20.2761 10.3222 20.1296 9.49641 19.8096C8.67059 19.4896 7.91953 19.003 7.29001 18.38C6.78097 17.8453 6.38027 17.2171 6.11001 16.53C5.89282 16.0437 5.74795 15.5283 5.68001 15V14.62C6.95958 14.4988 8.24489 14.4487 9.53001 14.47V14.51Z" fill="black"/>
<path d="M8.57001 8.71999C7.81001 9.21999 7.01001 9.71999 6.27001 10.2C6.23179 10.2235 6.19861 10.2544 6.17237 10.2908C6.14613 10.3272 6.12736 10.3684 6.11713 10.4121C6.10691 10.4558 6.10543 10.5011 6.11279 10.5453C6.12015 10.5896 6.1362 10.632 6.16001 10.67C6.21079 10.7435 6.28775 10.7948 6.37514 10.8134C6.46252 10.832 6.5537 10.8165 6.63001 10.77C7.42001 10.34 8.26001 9.97999 9.07001 9.55999C9.43001 9.36999 9.78001 9.16999 10.07 8.94999C10.4122 8.7548 10.7253 8.51242 11 8.22999C11.1656 8.0316 11.2668 7.78739 11.29 7.52999C11.2879 7.40719 11.2535 7.2871 11.1904 7.18178C11.1272 7.07646 11.0374 6.98963 10.93 6.92999L9.93001 6.34999C9.46049 6.08695 8.96856 5.86609 8.46001 5.68999C7.71965 5.43594 6.96502 5.22558 6.20001 5.05999C6.16261 5.04777 6.12311 5.04329 6.08392 5.04683C6.04473 5.05036 6.00668 5.06183 5.97206 5.08054C5.93745 5.09925 5.90701 5.12481 5.88258 5.15566C5.85816 5.18651 5.84027 5.222 5.83001 5.25999C5.81779 5.29739 5.81331 5.33689 5.81685 5.37607C5.82038 5.41526 5.83185 5.45332 5.85056 5.48793C5.86927 5.52255 5.89483 5.55299 5.92568 5.57741C5.95653 5.60183 5.99202 5.61972 6.03001 5.62999C6.65001 5.86999 7.22001 6.08999 7.77001 6.34999C8.32113 6.61048 8.84674 6.92183 9.34001 7.27999L9.92001 7.65999C9.75523 7.80409 9.58156 7.93769 9.40001 8.05999C9.19001 8.28999 8.89001 8.50999 8.57001 8.71999Z" fill="black"/>
<path d="M16.48 6.16003L17.92 5.08003C17.982 5.03396 18.0246 4.96637 18.0394 4.89053C18.0542 4.81469 18.0402 4.73605 18 4.67003C17.9813 4.63621 17.956 4.60648 17.9256 4.58257C17.8953 4.55867 17.8604 4.54108 17.8231 4.53083C17.7859 4.52058 17.7469 4.51788 17.7086 4.5229C17.6703 4.52791 17.6334 4.54054 17.6 4.56003L16 5.44003C15.56 5.68003 14.51 6.15003 13.89 6.44003C13.6286 6.57578 13.3946 6.75888 13.2 6.98003C13.1268 7.10768 13.0969 7.25565 13.115 7.4017C13.133 7.54776 13.1979 7.68402 13.3 7.79003C13.8144 8.23715 14.3861 8.61379 15 8.91003C15.59 9.24003 16.16 9.53003 16.72 9.91003C17.0926 10.1233 17.4531 10.357 17.8 10.61C17.8347 10.6384 17.8747 10.6597 17.9177 10.6725C17.9607 10.6854 18.0058 10.6896 18.0504 10.685C18.095 10.6803 18.1383 10.6669 18.1777 10.6454C18.2171 10.624 18.2519 10.595 18.28 10.56C18.3326 10.488 18.3566 10.3991 18.3473 10.3104C18.3381 10.2217 18.2963 10.1396 18.23 10.08C17.89 9.77003 17.54 9.49003 17.18 9.22003C16.65 8.82003 16.11 8.46003 15.56 8.07003C15.49 8.07003 14.8 7.74003 14.44 7.50003C14.62 7.41003 14.86 7.31003 15.04 7.20003C15.55 6.81003 16.17 6.39003 16.48 6.16003Z" fill="black"/>
<path d="M4 13C4.15546 12.7413 4.2733 12.4619 4.35 12.17C4.5 11.6 4.53 10.98 4.69 10.43C4.76439 10.2287 4.86892 10.0399 5 9.86998C5.20678 9.58353 5.43051 9.30971 5.67 9.04998C5.7335 8.98625 5.76916 8.89995 5.76916 8.80998C5.76916 8.72001 5.7335 8.63371 5.67 8.56998L5.57 8.50998C5.62659 8.48821 5.67526 8.4498 5.70959 8.39982C5.74392 8.34983 5.76229 8.29062 5.76229 8.22998C5.76229 8.16934 5.74392 8.11013 5.70959 8.06014C5.67526 8.01016 5.62659 7.97175 5.57 7.94998C5.18816 7.817 4.78339 7.76258 4.38 7.78998C3.96945 7.80896 3.56293 7.87951 3.17 7.99998C2.08191 8.36064 1.13876 9.06187 0.479996 9.99998C0.23771 10.3524 0.0816155 10.7568 0.0242952 11.1807C-0.0330252 11.6045 0.010032 12.0358 0.149996 12.44C0.291427 12.8152 0.528073 13.1471 0.836662 13.403C1.14525 13.659 1.51515 13.8303 1.91 13.9C2.30855 13.9802 2.72208 13.937 3.09547 13.7762C3.46886 13.6154 3.78438 13.3446 4 13ZM1.22 12.06C1.1167 11.7399 1.10023 11.3981 1.17226 11.0696C1.2443 10.741 1.40225 10.4375 1.63 10.19C2.11431 9.57536 2.73824 9.08513 3.45 8.75998C3.74984 8.62622 4.06583 8.53209 4.39 8.47998C4.68074 8.42481 4.97926 8.42481 5.27 8.47998L5.16 8.55998C4.87038 8.82441 4.60283 9.11203 4.36 9.41998C4.17692 9.6413 4.03163 9.89133 3.93 10.16C3.73 10.7 3.65 11.32 3.45 11.88C3.3831 12.0787 3.28886 12.2672 3.17 12.44C3.054 12.5879 2.89866 12.7002 2.72178 12.7638C2.54491 12.8275 2.35367 12.84 2.17 12.8C1.96234 12.7735 1.76558 12.6918 1.60024 12.5634C1.4349 12.435 1.30704 12.2646 1.23 12.07L1.22 12.06Z" fill="black"/>
<path d="M22.59 7.99999C21.9601 7.60514 21.2421 7.37285 20.5003 7.32398C19.7585 7.27511 19.0162 7.41119 18.34 7.71999C18.2684 7.75454 18.2135 7.81605 18.1873 7.89104C18.161 7.96603 18.1656 8.04837 18.2 8.11999C18.232 8.17727 18.2808 8.22334 18.3398 8.25196C18.3988 8.28057 18.4652 8.29036 18.53 8.27999L18.48 8.34999C18.4619 8.39131 18.4522 8.43581 18.4515 8.48091C18.4507 8.52602 18.459 8.57081 18.4757 8.61269C18.4925 8.65457 18.5174 8.6927 18.549 8.72486C18.5807 8.75701 18.6184 8.78255 18.66 8.79999C19.028 8.98333 19.3187 9.29176 19.48 9.66999C19.76 10.27 19.85 10.98 20.08 11.6C20.2272 12.1539 20.55 12.6451 21 13C21.2693 13.209 21.6041 13.3156 21.9447 13.301C22.2853 13.2863 22.6096 13.1513 22.86 12.92C23.4787 12.3662 23.8823 11.612 24 10.79C24.056 10.2388 23.953 9.68318 23.7031 9.18874C23.4532 8.69431 23.067 8.28179 22.59 7.99999ZM22.86 10.62C22.7926 11.058 22.6135 11.4713 22.34 11.82C22.15 12.05 21.92 12.24 21.62 12.06C21.1785 11.7366 20.8694 11.264 20.75 10.73C20.5653 10.0513 20.2604 9.4112 19.85 8.83999C19.6012 8.54889 19.2855 8.32243 18.93 8.17999H18.87C19.7673 7.96231 20.7131 8.07966 21.53 8.50999C21.9561 8.67392 22.3168 8.97285 22.5569 9.36109C22.7971 9.74934 22.9035 10.2055 22.86 10.66V10.62Z" fill="black"/>
<path d="M3 5.39001C3.91094 4.291 5.00755 3.36024 6.24 2.64001C6.97028 2.22154 7.7451 1.88612 8.55 1.64001C9.08502 1.46978 9.63372 1.34599 10.19 1.27001C10.881 1.14054 11.5788 1.0504 12.28 1.00001C12.7395 0.970147 13.2005 0.970147 13.66 1.00001C13.73 1.01397 13.8027 1.00251 13.865 0.967688C13.9273 0.932862 13.9752 0.876954 14 0.81001C14.0115 0.731835 13.9917 0.652279 13.9449 0.588619C13.8981 0.524959 13.828 0.482337 13.75 0.47001C13.1467 0.350762 12.5347 0.280533 11.92 0.26001H10.1C9.47133 0.289118 8.84768 0.386354 8.24 0.55001C7.33058 0.803333 6.46669 1.19816 5.68 1.72001C4.39815 2.59365 3.29784 3.70753 2.44 5.00001C2.3874 5.07356 2.36531 5.16462 2.37836 5.2541C2.39141 5.34358 2.43858 5.42454 2.51 5.48001C2.54749 5.50795 2.59033 5.52786 2.63586 5.5385C2.68139 5.54913 2.72863 5.55026 2.77462 5.54181C2.8206 5.53337 2.86435 5.51553 2.90313 5.48941C2.94191 5.46329 2.97489 5.42945 3 5.39001Z" fill="black"/>
<path d="M23.1 15.12C23.0151 15.0973 22.9249 15.1073 22.8471 15.1481C22.7693 15.1888 22.7096 15.2573 22.68 15.34C22.4889 15.8716 22.2618 16.3895 22 16.89C21.7502 17.389 21.4662 17.8702 21.15 18.33C20.0105 19.9026 18.4255 21.0974 16.6 21.76C14.7879 22.4665 12.8377 22.7471 10.9 22.58C9.8256 22.499 8.76652 22.2771 7.74999 21.92C6.7544 21.5669 5.82491 21.0498 4.99999 20.39C4.32726 19.8474 3.7288 19.2187 3.21999 18.52C2.7026 17.8182 2.26648 17.0601 1.91999 16.26C1.90669 16.2235 1.88621 16.1901 1.85975 16.1617C1.83329 16.1333 1.80139 16.1105 1.76595 16.0946C1.73051 16.0788 1.69225 16.0702 1.65344 16.0694C1.61462 16.0686 1.57604 16.0756 1.53999 16.09C1.50315 16.1044 1.46951 16.1259 1.44101 16.1533C1.4125 16.1806 1.3897 16.2134 1.3739 16.2497C1.3581 16.2859 1.34962 16.3249 1.34895 16.3644C1.34828 16.404 1.35543 16.4432 1.36999 16.48C1.69571 17.34 2.11489 18.1616 2.61999 18.93C3.12037 19.7098 3.71857 20.4222 4.39999 21.05C5.28686 21.8337 6.30157 22.4594 7.39999 22.9C8.49882 23.3211 9.649 23.5935 10.82 23.71C12.9367 23.8737 15.062 23.5309 17.02 22.71C19.0029 21.9049 20.6894 20.5081 21.85 18.71C22.1654 18.2099 22.4461 17.6887 22.69 17.15C22.9321 16.6106 23.1392 16.0561 23.31 15.49C23.3223 15.4136 23.3082 15.3354 23.27 15.2681C23.2318 15.2008 23.1719 15.1486 23.1 15.12Z" fill="black"/>
<path d="M14.6 1.26C15.6527 1.46813 16.6654 1.84284 17.6 2.37C18 2.59 18.38 2.83 18.76 3.09C19.14 3.35 19.49 3.62 19.84 3.9C20.6812 4.56264 21.4105 5.35607 22 6.25C22.018 6.28585 22.0429 6.31774 22.0734 6.34378C22.1039 6.36981 22.1393 6.38947 22.1775 6.40159C22.2158 6.41371 22.256 6.41804 22.296 6.41434C22.3359 6.41063 22.3747 6.39895 22.41 6.38C22.468 6.33797 22.5097 6.27715 22.5279 6.20787C22.5461 6.1386 22.5398 6.06514 22.51 6C22.0299 4.92306 21.3514 3.94607 20.51 3.12C20.1499 2.76822 19.7582 2.45022 19.34 2.17C18.9202 1.89178 18.4788 1.64766 18.02 1.44C16.9669 0.966183 15.8408 0.67535 14.69 0.580004C14.6453 0.574432 14.5999 0.577797 14.5566 0.589904C14.5132 0.602012 14.4726 0.62262 14.4373 0.650532C14.4019 0.678445 14.3724 0.713104 14.3506 0.752497C14.3288 0.79189 14.315 0.835232 14.31 0.880004C14.3012 0.968308 14.3262 1.05667 14.38 1.12722C14.4339 1.19777 14.5125 1.24523 14.6 1.26Z" fill="black"/>
</g>
<defs>
<clipPath id="clip0_1032_3527">
<rect width="24" height="24" fill="white"/>
</clipPath>
</defs>
</svg>
