<svg width="24" height="24" viewBox="0 0 24 24" fill="none" xmlns="http://www.w3.org/2000/svg">
<path d="M12.76 11.56C12.9107 11.4033 13.0156 11.2084 13.0633 10.9963C13.111 10.7843 13.0997 10.5632 13.0307 10.3571C12.9616 10.151 12.8375 9.96771 12.6716 9.82719C12.5058 9.68667 12.3046 9.59425 12.09 9.55997C11.8394 9.50793 11.5791 9.52875 11.34 9.61997C11.1276 9.69404 10.9411 9.82776 10.8028 10.0051C10.6644 10.1825 10.5801 10.3959 10.56 10.62C10.5548 10.8272 10.5952 11.0331 10.6781 11.2232C10.761 11.4132 10.8845 11.5828 11.04 11.72C11.2902 11.9247 11.6109 12.0227 11.9328 11.9927C12.2547 11.9628 12.5519 11.8073 12.76 11.56ZM11.68 10.42C11.83 10.33 11.94 10.25 12.06 10.27C12.38 10.33 12.41 10.63 12.25 10.85C12.09 11.07 11.91 11.11 11.78 10.96C11.6842 10.8907 11.6196 10.7865 11.6 10.67C11.6 10.57 11.6 10.47 11.68 10.42Z" fill="black"/>
<path d="M18.54 2.47001C18.5646 2.08374 18.5646 1.69629 18.54 1.31001C18.519 1.07903 18.4436 0.856291 18.32 0.660015C18.0693 0.35028 17.7133 0.143789 17.32 0.0800145C16.5854 0.00197432 15.8446 0.00197432 15.11 0.0800145C13 0.100015 10.88 0.340015 8.79 0.450015H7.24C7.15513 0.450015 7.07374 0.483729 7.01373 0.54374C6.95372 0.603752 6.92 0.685145 6.92 0.770015C6.92478 0.853329 6.96002 0.931979 7.01903 0.990987C7.07804 1.05 7.15669 1.08524 7.24 1.09001H8.82C10.9 1.00001 13 0.850015 15.06 0.840015C15.646 0.801037 16.234 0.801037 16.82 0.840015C17.16 0.890015 17.47 0.940015 17.6 1.13001C17.6527 1.253 17.6766 1.38638 17.67 1.52001V2.44001L17.51 6.62001V11.02C17.51 11.64 17.51 12.26 17.44 12.88C17.4432 13.2678 17.4198 13.6554 17.37 14.04C17.37 14.31 17.29 14.59 17.09 14.7C16.9918 14.7409 16.8863 14.7614 16.78 14.76H15.94L12.94 14.86C11.94 14.93 10.87 15.08 9.84 15.14H8.55C8.16869 15.1455 7.78845 15.0984 7.42 15C7.11369 14.9091 6.85076 14.7101 6.68 14.44C6.46763 14.0449 6.34473 13.6079 6.32 13.16C6.24 12.39 6.32 11.56 6.27 10.88V9.41001C6.27 8.24001 6.37 7.07001 6.35 5.90001C6.32 5.00001 6.23 4.00001 6.19 3.07001V1.88001C6.19005 1.8048 6.16087 1.73252 6.10863 1.67841C6.05639 1.6243 5.98517 1.59261 5.91 1.59001C5.83744 1.58997 5.7677 1.61809 5.71547 1.66846C5.66323 1.71882 5.63259 1.7875 5.63 1.86001V3.09001C5.63 4.02001 5.72 4.96001 5.71 5.90001C5.71 7.06001 5.59 8.21001 5.53 9.37001V10.89C5.48025 11.8027 5.48025 12.7174 5.53 13.63C5.58715 14.0673 5.72264 14.4908 5.93 14.88C6.14139 15.2566 6.46224 15.56 6.85 15.75C7.37238 15.9863 7.93684 16.1155 8.51 16.13C9.07961 16.16 9.6504 16.16 10.22 16.13C10.1402 17.0182 10.1402 17.9118 10.22 18.8C10.02 18.94 9.78 19.15 9.5 19.39C8.74 20.05 7.81 20.93 7.59 21.12C7.32257 21.3697 7.08742 21.6519 6.89 21.96C6.71794 22.2248 6.62752 22.5343 6.63 22.85C6.64436 23.082 6.73905 23.3017 6.89782 23.4714C7.05659 23.6411 7.26951 23.7502 7.5 23.78H7.98C8.09183 23.7663 8.20224 23.7429 8.31 23.71C8.41032 23.6838 8.50755 23.6469 8.6 23.6C8.81123 23.4959 9.01213 23.372 9.2 23.23C9.44 23.05 9.67 22.84 9.91 22.65L11.67 21.24C11.7497 21.2496 11.8303 21.2496 11.91 21.24C12.1188 21.2405 12.3235 21.1815 12.5 21.07L13.61 22.27C13.9216 22.6401 14.2555 22.9908 14.61 23.32C14.9019 23.5749 15.2419 23.7687 15.61 23.89C15.821 23.9721 16.0535 23.9803 16.2697 23.913C16.4858 23.8458 16.6728 23.7073 16.8 23.52C16.9382 23.2869 17.0111 23.021 17.0111 22.75C17.0111 22.4791 16.9382 22.2131 16.8 21.98C16.4358 21.4622 16.0312 20.974 15.59 20.52C14.9777 19.8554 14.3266 19.2276 13.64 18.64C13.7517 17.7078 13.7852 16.7678 13.74 15.83L15.99 15.77H17.04C17.2536 15.7528 17.4613 15.6915 17.65 15.59C17.9747 15.4038 18.2147 15.0992 18.32 14.74C18.4543 14.1702 18.5115 13.585 18.49 13C18.54 12.15 18.55 11.3 18.55 10.44C18.55 9.18001 18.48 7.92001 18.47 6.66001L18.54 2.47001ZM9.37 22C9.12 22.16 8.88 22.34 8.62 22.5C8.47636 22.5885 8.32588 22.6654 8.17 22.73L7.89 22.79H7.67L7.78 22.61C7.91092 22.3586 8.0758 22.1265 8.27 21.92C8.47 21.7 9.27 20.7 9.97 19.92L10.32 19.55V19.69C10.4326 20.1447 10.6678 20.5598 11 20.89L9.37 22ZM14.56 20.85C15.0273 21.4072 15.4518 21.9989 15.83 22.62C15.858 22.6641 15.8769 22.7134 15.8855 22.7649C15.894 22.8165 15.8922 22.8692 15.88 22.92V22.97C15.6489 22.8984 15.4323 22.7867 15.24 22.64C14.86 22.37 14.51 22.05 14.24 21.79L13.01 20.79C13.2212 20.4865 13.3769 20.1479 13.47 19.79C13.4653 19.7268 13.4653 19.6633 13.47 19.6C13.74 19.79 14.15 20.29 14.56 20.8V20.85ZM12.56 18.9C12.4758 19.2827 12.3413 19.6526 12.16 20C12.07 20.12 12.01 20.24 11.89 20.24C11.77 20.24 11.68 20.13 11.59 20C11.3928 19.6436 11.2511 19.2592 11.17 18.86C10.9753 17.9485 10.8616 17.0216 10.83 16.09C11.55 16.03 12.27 15.96 12.99 15.92C12.9507 16.9066 12.8201 17.8875 12.6 18.85L12.56 18.9Z" fill="black"/>
<path d="M8.67 9.58006C8.42796 9.97786 8.2909 10.4306 8.27166 10.8959C8.25242 11.3611 8.35163 11.8236 8.56 12.2401C8.91039 12.8186 9.45139 13.2571 10.09 13.4801C12.09 14.2401 16.14 14.0001 15.35 10.0401C15.2281 9.18631 14.7768 8.41422 14.0928 7.88904C13.4087 7.36385 12.5463 7.12732 11.69 7.23006C11.0482 7.38389 10.4467 7.67316 9.92587 8.07846C9.40501 8.48377 8.97682 8.99574 8.67 9.58006ZM11.85 8.29006C12.4564 8.20354 13.0725 8.35825 13.5661 8.72097C14.0597 9.08369 14.3914 9.6255 14.49 10.2301C14.97 12.1401 13.49 13.6201 10.75 12.9601C10.4459 12.8883 10.1612 12.7509 9.91588 12.5574C9.67056 12.3639 9.47058 12.1191 9.33 11.8401C9.20687 11.4633 9.18931 11.0599 9.27922 10.6738C9.36913 10.2878 9.56307 9.93369 9.84 9.65006C10.3257 8.97087 11.0389 8.48834 11.85 8.29006Z" fill="black"/>
<path d="M11.5 6.13999C14.76 6.13999 14.04 3.80999 13.93 3.53999C13.7377 3.06194 13.3683 2.67655 12.8988 2.46416C12.4294 2.25178 11.896 2.22879 11.41 2.39999C11.0215 2.55058 10.6759 2.79444 10.4039 3.11009C10.1318 3.42574 9.94161 3.80348 9.85 4.20999C9.77451 4.50753 9.79149 4.82101 9.89869 5.10865C10.0059 5.39629 10.1982 5.64443 10.45 5.81999C10.7581 6.03338 11.1252 6.14525 11.5 6.13999ZM10.92 4.20999C11.0785 3.84659 11.3728 3.55951 11.74 3.40999C11.9922 3.30362 12.2751 3.29599 12.5326 3.38862C12.7901 3.48126 13.0034 3.66737 13.13 3.90999C13.46 4.52999 13.27 5.63999 11.54 5.41999C11.3377 5.39057 11.1492 5.29983 11 5.15999C10.69 4.89999 10.77 4.53999 10.92 4.20999Z" fill="black"/>
</svg>
