<svg width="24" height="24" viewBox="0 0 24 24" fill="none" xmlns="http://www.w3.org/2000/svg">
<g clip-path="url(#clip0_1047_6449)">
<path fill-rule="evenodd" clip-rule="evenodd" d="M20.23 14.78C20.837 13.119 20.8996 11.3079 20.4088 9.60897C19.918 7.91003 18.8992 6.41137 17.5 5.32995C17.4301 5.28546 17.3463 5.26803 17.2645 5.28096C17.1826 5.29388 17.1083 5.33626 17.0554 5.40013C17.0026 5.464 16.975 5.54496 16.9776 5.62779C16.9803 5.71063 17.0132 5.78963 17.07 5.84995C18.3204 6.85094 19.22 8.22364 19.6389 9.7696C20.0577 11.3156 19.9741 12.9547 19.4 14.45C17 20.45 7.23 20.86 4.67 14.07C2.11 7.27995 9.86 1.49995 15.86 4.99995C15.9263 5.02528 15.9994 5.02631 16.0663 5.00285C16.1333 4.9794 16.1897 4.93298 16.2257 4.87183C16.2617 4.81069 16.2748 4.73877 16.2628 4.66886C16.2507 4.59895 16.2143 4.53556 16.16 4.48995C9.61 0.43995 0.88 6.88995 3.63 14.46C6.38 22.03 17.58 21.83 20.23 14.78Z" fill="black"/>
<path fill-rule="evenodd" clip-rule="evenodd" d="M15.39 7.29996C16.2656 8.00934 16.8933 8.97844 17.1827 10.0676C17.472 11.1567 17.4081 12.3095 17 13.36C15.32 17.5 8.49 17.82 6.69 13.08C4.89 8.33995 10.3 4.24995 14.53 6.64996C14.5628 6.66965 14.5992 6.68269 14.6371 6.68833C14.675 6.69396 14.7136 6.69208 14.7507 6.6828C14.7879 6.67351 14.8228 6.657 14.8536 6.63421C14.8843 6.61141 14.9103 6.58279 14.93 6.54996C14.9497 6.51712 14.9627 6.48074 14.9684 6.44287C14.974 6.405 14.9721 6.36639 14.9628 6.32924C14.9536 6.2921 14.937 6.25715 14.9143 6.22639C14.8915 6.19563 14.8628 6.16965 14.83 6.14995C10.06 3.19995 3.65 7.90996 5.65 13.46C7.65 19.01 15.9 18.88 17.83 13.68C18.2712 12.4664 18.3153 11.1439 17.9558 9.90364C17.5963 8.66337 16.8518 7.56948 15.83 6.77996C15.761 6.72161 15.6717 6.69304 15.5817 6.70054C15.4917 6.70805 15.4083 6.751 15.35 6.81996C15.2917 6.88891 15.2631 6.97822 15.2706 7.06824C15.2781 7.15826 15.321 7.24161 15.39 7.29996Z" fill="black"/>
<path fill-rule="evenodd" clip-rule="evenodd" d="M11.32 9C10.9172 9.0129 10.5228 9.11854 10.1676 9.3087C9.81226 9.49887 9.50561 9.76842 9.27148 10.0964C9.03734 10.4244 8.88201 10.802 8.81758 11.1998C8.75316 11.5976 8.78136 12.0049 8.9 12.39C9.09498 12.9148 9.44439 13.3681 9.90218 13.6903C10.36 14.0126 10.9046 14.1885 11.4644 14.195C12.0242 14.2015 12.5728 14.0382 13.0379 13.7267C13.5031 13.4152 13.8629 12.9701 14.07 12.45C14.1771 12.0357 14.1865 11.6022 14.0973 11.1837C14.0082 10.7652 13.8229 10.3732 13.5562 10.0386C13.2895 9.70395 12.9486 9.43594 12.5605 9.2557C12.1724 9.07546 11.7477 8.98792 11.32 9ZM13.23 12.18C13.0636 12.481 12.8157 12.729 12.5147 12.8956C12.2138 13.0621 11.872 13.1405 11.5286 13.1217C11.1851 13.1029 10.8539 12.9877 10.5729 12.7893C10.292 12.5909 10.0726 12.3174 9.94 12C9.84494 11.7519 9.80831 11.4852 9.83296 11.2206C9.8576 10.956 9.94287 10.7007 10.0821 10.4744C10.2214 10.2481 10.4109 10.0569 10.636 9.91568C10.8611 9.77444 11.1157 9.68696 11.38 9.66C11.6899 9.62538 12.0034 9.67229 12.2896 9.79609C12.5757 9.9199 12.8246 10.1163 13.0115 10.3659C13.1984 10.6154 13.3169 10.9095 13.3552 11.2189C13.3935 11.5283 13.3504 11.8424 13.23 12.13V12.18Z" fill="black"/>
<path fill-rule="evenodd" clip-rule="evenodd" d="M24 5.24001C24 4.24001 24.16 2.72001 23.49 1.79001C21.89 -0.359993 15.75 0.540007 12.42 0.470007C11.64 0.450007 6.8 0.250007 5.54 0.280007C4.50433 0.230581 3.48471 0.550163 2.66254 1.1819C1.84037 1.81363 1.26897 2.71655 1.05 3.73001C0.663036 5.23952 0.39884 6.77788 0.26 8.33001C0 11.4 0 17.8 0 18.41C0.11 20.41 0.44 21.73 2.09 22.41C3.17982 22.7826 4.31888 22.9916 5.47 23.03C7.67 23.26 9.9 23.55 12.12 23.66C14.4307 23.7554 16.7454 23.6584 19.04 23.37C20.0676 23.1898 21.0212 22.7164 21.7859 22.0067C22.5506 21.297 23.0938 20.3813 23.35 19.37C23.91 17.47 23.74 15.23 23.85 13.22C24 10.52 24 7.94001 24 5.24001ZM23.07 5.24001C23.07 7.82001 23.02 10.54 22.85 13.12C22.63 16.51 23.16 20.12 20.18 21.84C19.23 22.41 17.71 22.37 16.57 22.48C12.98 22.84 9.23 22.31 5.57 21.96C4.52229 21.9405 3.48236 21.7756 2.48 21.47C1.28 21 1.1 20 1 18.35C1 17.78 0.8 11.6 1.05 8.35001C1.16619 6.83805 1.39685 5.33708 1.74 3.86001C1.91998 2.99258 2.40362 2.21786 3.10389 1.67524C3.80417 1.13261 4.67511 0.857717 5.56 0.900007C6.56 0.900007 11.14 1.15001 12.41 1.20001C15.14 1.30001 21.55 0.620007 22.75 2.31001C23.22 3.00001 23.05 4.42001 23.05 5.25001L23.07 5.24001Z" fill="black"/>
<path fill-rule="evenodd" clip-rule="evenodd" d="M6 4.30002C7.14 2.30002 4 1.53002 3.17 3.40002C2.54 4.90002 5.09 6.00002 6 4.30002ZM4.18 3.54002C4.27675 3.2994 4.4632 3.10578 4.7 3.00002C5.15 2.87002 5.5 3.15002 5.33 3.57002C5.25667 3.74254 5.12218 3.88187 4.95236 3.96124C4.78254 4.04061 4.58938 4.05442 4.41 4.00002C4.13 3.90002 4.08 3.71002 4.18 3.54002Z" fill="black"/>
<path fill-rule="evenodd" clip-rule="evenodd" d="M21.26 2.36007C20.8127 2.30171 20.3579 2.36028 19.94 2.53007C19.5737 2.71893 19.2814 3.0253 19.11 3.40007C18.46 4.90007 21 6.00007 22 4.30007C22.1211 4.13325 22.1986 3.93889 22.2257 3.73456C22.2528 3.53024 22.2285 3.32238 22.155 3.1298C22.0816 2.93722 21.9613 2.76599 21.805 2.6316C21.6487 2.4972 21.4614 2.40388 21.26 2.36007ZM21.26 3.60007C21.1831 3.76893 21.0471 3.90383 20.8777 3.97935C20.7082 4.05488 20.517 4.0658 20.34 4.01007C20.06 3.90007 20.02 3.71007 20.11 3.54007C20.57 2.69007 21.52 3.00007 21.25 3.60007H21.26Z" fill="black"/>
<path fill-rule="evenodd" clip-rule="evenodd" d="M2.78 18.19C1.87 18.64 1.28 19.93 2.7 20.69C3.07309 20.8457 3.48982 20.8617 3.87373 20.7349C4.25763 20.6082 4.58295 20.3473 4.79 20C5.6 18.49 4.15 17.5 2.78 18.19ZM4.09 19.26C4.01311 19.4285 3.87658 19.5626 3.70672 19.6365C3.53686 19.7103 3.34567 19.7187 3.17 19.66C2.89 19.55 2.85 19.37 2.94 19.2C3.45 18.28 4.34 18.65 4.09 19.26Z" fill="black"/>
<path fill-rule="evenodd" clip-rule="evenodd" d="M18.7 18.19C17.79 18.64 17.2 19.93 18.62 20.69C18.9931 20.8457 19.4098 20.8617 19.7937 20.7349C20.1776 20.6082 20.5029 20.3473 20.71 20C21.52 18.49 20.07 17.5 18.7 18.19ZM20 19.26C19.9195 19.4278 19.781 19.5608 19.61 19.6344C19.439 19.7079 19.2472 19.717 19.07 19.66C18.8 19.55 18.75 19.37 18.85 19.2C19.38 18.27 20.26 18.65 20 19.26Z" fill="black"/>
</g>
<defs>
<clipPath id="clip0_1047_6449">
<rect width="24" height="24" fill="white"/>
</clipPath>
</defs>
</svg>
