<svg width="24" height="24" viewBox="0 0 24 24" fill="none" xmlns="http://www.w3.org/2000/svg">
<g clip-path="url(#clip0_1050_8526)">
<path fill-rule="evenodd" clip-rule="evenodd" d="M23.5 8.71999C22.99 6.65999 22.34 4.82999 20.5 3.55999C20.4743 3.51941 20.4389 3.48585 20.397 3.46235C20.3551 3.43884 20.308 3.42611 20.2599 3.42531C20.2119 3.42451 20.1644 3.43565 20.1217 3.45775C20.0791 3.47985 20.0426 3.5122 20.0155 3.5519C19.9884 3.5916 19.9716 3.6374 19.9667 3.6852C19.9617 3.73299 19.9686 3.78127 19.9869 3.8257C20.0052 3.87013 20.0343 3.90932 20.0715 3.93974C20.1087 3.97016 20.1528 3.99086 20.2 3.99999C23.2 6.18999 24.46 13.48 21.12 18.06C20.1704 19.4776 18.899 20.6505 17.4096 21.483C15.9202 22.3154 14.255 22.7839 12.55 22.85C10.8572 22.9025 9.17513 22.5635 7.63486 21.8593C6.09458 21.155 4.73773 20.1047 3.67002 18.79C-1.68998 11.89 1.77002 1.68999 11.48 0.78999C13.2214 0.589786 14.9855 0.77063 16.65 1.31999C16.7259 1.32914 16.8026 1.31248 16.8678 1.2727C16.933 1.23291 16.983 1.17232 17.0095 1.10069C17.0361 1.02906 17.0378 0.950575 17.0143 0.877879C16.9908 0.805183 16.9435 0.742519 16.88 0.69999C15.1255 0.0889053 13.2589 -0.132897 11.41 0.0499899C1.00002 0.85999 -2.99998 11.87 2.78002 19.51C3.9512 20.9722 5.44848 22.1399 7.15197 22.9196C8.85547 23.6993 10.7179 24.0693 12.59 24C19.7 23.72 25.45 16.67 23.5 8.71999Z" fill="black"/>
<path fill-rule="evenodd" clip-rule="evenodd" d="M8.66 10.59C8.67719 10.4746 8.64788 10.3571 8.5785 10.2634C8.50912 10.1696 8.40535 10.1073 8.29 10.09C8.23271 10.0801 8.174 10.0819 8.11743 10.0953C8.06085 10.1087 8.00759 10.1334 7.96085 10.168C7.91411 10.2026 7.87488 10.2463 7.84551 10.2965C7.81614 10.3467 7.79726 10.4023 7.79 10.46C7.7 10.9 7.6 11.35 7.5 11.79C7.43 12.06 7.36 12.32 7.28 12.58C6.85865 11.7643 6.32699 11.0106 5.7 10.34C5.33302 9.95283 4.85387 9.69052 4.33 9.58997C4.1159 9.58722 3.90921 9.66832 3.75412 9.81594C3.59902 9.96356 3.50782 10.166 3.5 10.38C3.5 10.83 3.5 11.98 3.56 12.06L3.74 13.22L4.26 15.22C4.28813 15.3176 4.35236 15.4009 4.43965 15.4529C4.52694 15.5049 4.63075 15.5217 4.73 15.5C4.78226 15.4877 4.83132 15.4644 4.87396 15.4318C4.91659 15.3992 4.95182 15.3579 4.97733 15.3106C5.00284 15.2634 5.01805 15.2113 5.02196 15.1577C5.02587 15.1042 5.01838 15.0504 5 15L4.76 13.1V12V11.49L4.86 11.61C5.30833 12.1342 5.70048 12.704 6.03 13.31C6.03 13.31 6.43 14.15 6.61 14.45C6.67229 14.5721 6.76287 14.6776 6.8742 14.7576C6.98553 14.8376 7.11438 14.8899 7.25 14.91C7.38655 14.9068 7.51955 14.8658 7.63428 14.7917C7.749 14.7176 7.84097 14.6131 7.9 14.49C8.03408 14.125 8.14104 13.7507 8.22 13.37C8.30929 12.9971 8.37939 12.62 8.43 12.24C8.54 11.7 8.6 11.15 8.66 10.59Z" fill="black"/>
<path fill-rule="evenodd" clip-rule="evenodd" d="M14.37 8.99999C13.5057 8.90407 12.6317 8.94456 11.78 9.11999C11.1286 9.29544 10.5461 9.66519 10.11 10.18C9.84675 10.5161 9.65432 10.902 9.54432 11.3145C9.43432 11.727 9.40905 12.1575 9.47002 12.58C9.5537 13.1224 9.76632 13.6368 10.09 14.08C10.4678 14.6397 11.0179 15.0608 11.6569 15.2792C12.2959 15.4976 12.9887 15.5014 13.63 15.29C13.7427 15.2595 13.8387 15.1855 13.8969 15.0842C13.955 14.9829 13.9705 14.8627 13.94 14.75C13.9095 14.6373 13.8355 14.5413 13.7342 14.4832C13.6329 14.425 13.5127 14.4095 13.4 14.44C12.9658 14.5263 12.5153 14.4661 12.1189 14.2689C11.7226 14.0716 11.4029 13.7484 11.21 13.35C11.1304 13.2394 11.0601 13.1223 11 13L11.28 13.08C11.4308 13.1179 11.5848 13.1414 11.74 13.15C11.8965 13.16 12.0535 13.16 12.21 13.15C13.66 13.07 13.77 12.99 13.82 12.68C13.82 12.52 13.97 12.2 12.35 11.77C12.1865 11.7246 12.0191 11.6945 11.85 11.68C11.6873 11.6599 11.5227 11.6599 11.36 11.68L11 11.7C11.0595 11.481 11.1577 11.2744 11.29 11.09C11.5784 10.6392 12.018 10.3059 12.53 10.15C13.1465 9.97139 13.7799 9.85745 14.42 9.80999C14.5115 9.79521 14.5947 9.74834 14.6547 9.6778C14.7148 9.60726 14.7478 9.51764 14.7478 9.42499C14.7478 9.33235 14.7148 9.24273 14.6547 9.17219C14.5947 9.10164 14.5115 9.05478 14.42 9.03999L14.37 8.99999Z" fill="black"/>
<path fill-rule="evenodd" clip-rule="evenodd" d="M20.84 9.50999C20.7832 9.51846 20.7287 9.53823 20.6796 9.56812C20.6306 9.59801 20.5881 9.63742 20.5545 9.68403C20.521 9.73063 20.4971 9.78349 20.4843 9.83947C20.4715 9.89545 20.47 9.95343 20.48 10.01C20.525 10.5927 20.4845 11.1789 20.36 11.75C20.2686 12.3149 20.0969 12.8638 19.85 13.38C19.7731 13.5483 19.6862 13.7119 19.59 13.87C19.46 13.75 19.49 13.57 19.49 13.39C19.49 13.01 19.55 12.61 19.49 12.25C19.4735 11.9625 19.4023 11.6807 19.28 11.42C19.2283 11.3052 19.1458 11.2071 19.0416 11.1365C18.9375 11.0659 18.8157 11.0255 18.69 11.02C18.5644 11.0009 18.436 11.0159 18.3181 11.0634C18.2003 11.1109 18.0973 11.1892 18.02 11.29C17.9408 11.4754 17.874 11.6658 17.82 11.86L17.62 12.47C17.5039 12.7568 17.3599 13.0314 17.19 13.29C16.79 13.89 16.56 14.29 16.61 12.97C16.6432 12.433 16.71 11.8986 16.81 11.37L17 10.2C17.0118 10.1507 17.0136 10.0996 17.0053 10.0496C16.9971 9.9996 16.9789 9.95177 16.9519 9.90891C16.9249 9.86605 16.8895 9.82903 16.848 9.80002C16.8065 9.77101 16.7595 9.7506 16.71 9.73999C16.6601 9.7281 16.6083 9.72617 16.5577 9.73432C16.507 9.74247 16.4585 9.76053 16.4148 9.78747C16.3712 9.81441 16.3333 9.84969 16.3033 9.89131C16.2733 9.93293 16.2518 9.98005 16.24 10.03L16 11.19C15.7501 11.9787 15.5957 12.7945 15.54 13.62C15.5188 13.8943 15.5751 14.1691 15.7024 14.4131C15.8297 14.6571 16.0229 14.8604 16.26 15C16.4875 15.0955 16.7365 15.1282 16.981 15.0948C17.2254 15.0614 17.4565 14.963 17.65 14.81C17.8714 14.6627 18.0673 14.4803 18.23 14.27C18.3429 14.5176 18.5145 14.7339 18.73 14.9C18.8743 15.0292 19.0495 15.1192 19.2386 15.1612C19.4278 15.2032 19.6245 15.1959 19.81 15.14C20.3376 14.8798 20.743 14.4242 20.94 13.87C21.1822 13.2275 21.3337 12.5543 21.39 11.87C21.4804 11.2064 21.4804 10.5336 21.39 9.86999C21.3809 9.80858 21.3588 9.7498 21.3254 9.69751C21.2919 9.64522 21.2477 9.6006 21.1958 9.5666C21.1438 9.5326 21.0853 9.50998 21.0239 9.50022C20.9626 9.49046 20.8999 9.49379 20.84 9.50999Z" fill="black"/>
</g>
<defs>
<clipPath id="clip0_1050_8526">
<rect width="24" height="24" fill="white"/>
</clipPath>
</defs>
</svg>
