<svg width="24" height="24" viewBox="0 0 24 24" fill="none" xmlns="http://www.w3.org/2000/svg">
<g clip-path="url(#clip0_1033_3948)">
<path d="M12.7 1.00001C12.6261 1.01323 12.5591 1.05203 12.5109 1.10962C12.4627 1.16721 12.4363 1.23991 12.4363 1.31501C12.4363 1.3901 12.4627 1.46281 12.5109 1.5204C12.5591 1.57798 12.6261 1.61678 12.7 1.63001C22.56 1.39001 27.7 14.49 17.7 20.75C13 23.75 7.10998 22.88 3.92998 20C0.219982 16.54 -0.460018 9.72001 3.89998 4.81001C5.82171 2.61866 8.48589 1.21534 11.38 0.870007C11.4444 0.852592 11.5005 0.812725 11.5382 0.757595C11.5758 0.702466 11.5925 0.6357 11.5853 0.569338C11.578 0.502976 11.5473 0.441383 11.4987 0.395667C11.45 0.34995 11.3867 0.323118 11.32 0.320007C8.27014 0.627001 5.44183 2.05185 3.37998 4.32001C-1.39002 9.49001 -0.810018 16.91 3.22998 20.71C6.68998 23.96 13.14 24.95 18.33 21.61C28.9 14.81 23.35 0.580007 12.7 1.00001Z" fill="black"/>
<path d="M19.33 10.28C19.07 7.65002 16.69 8.63002 15.25 8.70002C14.82 8.11002 14.49 7.70002 14.36 7.50002C13.65 6.21002 13.45 5.41002 13.01 5.68002C12.9698 5.70145 12.9355 5.73234 12.91 5.77002C11.77 5.70002 9.20997 5.18002 8.70997 6.02002C8.60997 6.19002 7.70997 8.12002 7.76997 8.16002C6.78408 8.39057 5.78054 8.53776 4.76997 8.60002C4.73226 8.61438 4.69825 8.637 4.67043 8.66622C4.64262 8.69545 4.6217 8.73054 4.60923 8.76891C4.59676 8.80728 4.59305 8.84796 4.59837 8.88796C4.60369 8.92795 4.6179 8.96624 4.63997 9.00002C4.60195 8.98629 4.5614 8.98095 4.52113 8.98438C4.48085 8.9878 4.44179 8.9999 4.40663 9.01986C4.37147 9.03981 4.34105 9.06714 4.31746 9.09997C4.29387 9.13279 4.27767 9.17034 4.26997 9.21002C3.60997 14.03 2.37997 16.5 5.93997 17.15C7.38519 17.297 8.83991 17.3271 10.29 17.24C11.67 17.24 13.29 17.52 14.82 17.53C16.0015 17.5506 17.1781 17.3714 18.3 17C19.81 16.29 19.3 14 19.3 12.4C19.3449 11.6943 19.3549 10.9868 19.33 10.28ZM18.1 15.91C18.0063 16.0245 17.8753 16.1024 17.73 16.13C15.59 16.89 12.54 16.28 10.3 16.26C9.36997 16.26 7.92997 16.46 6.64997 16.38C4.43997 16.25 4.20997 15.57 4.25997 14.09C4.25997 13.09 4.95997 9.39002 4.75997 9.09002C4.79937 9.09977 4.84056 9.09977 4.87997 9.09002C8.66997 9.09002 8.09997 9.24002 8.81997 8.09002C9.06756 7.60693 9.26847 7.1013 9.41997 6.58002C10.2 6.22002 12.11 6.38002 13.06 6.31002C13.51 7.16002 14.39 9.31002 15.2 9.31002C16.01 9.31002 17.83 8.74002 18.31 9.55002C18.61 10.06 18.39 11.71 18.38 12.31C18.37 13.34 18.59 15.19 18.1 15.91Z" fill="black"/>
<path d="M12.14 9.81996C8.97998 9.10996 7.29998 13.82 10.14 14.57C10.68 14.72 12.14 14.76 11.99 14.2C11.84 13.64 11.51 14.2 10.56 13.98C9.60998 13.76 9.30998 13.06 9.83998 11.98C9.9938 11.5675 10.2912 11.2242 10.6775 11.0132C11.0639 10.8022 11.5134 10.7376 11.9436 10.8312C12.3738 10.9247 12.7558 11.1702 13.0196 11.5227C13.2835 11.8751 13.4114 12.3108 13.38 12.75C13.23 14.23 12.13 14.09 12.38 14.62C12.4219 14.692 12.4903 14.7449 12.5706 14.7673C12.6509 14.7897 12.7368 14.7799 12.81 14.74C13.2722 14.4744 13.6447 14.0771 13.8799 13.5987C14.1152 13.1203 14.2024 12.5827 14.1305 12.0545C14.0585 11.5263 13.8307 11.0316 13.4762 10.6335C13.1216 10.2355 12.6564 9.95223 12.14 9.81996Z" fill="black"/>
</g>
<defs>
<clipPath id="clip0_1033_3948">
<rect width="24" height="24" fill="white"/>
</clipPath>
</defs>
</svg>
