<svg width="24" height="24" viewBox="0 0 24 24" fill="none" xmlns="http://www.w3.org/2000/svg">
<g clip-path="url(#clip0_1047_6465)">
<path fill-rule="evenodd" clip-rule="evenodd" d="M23.92 5.13C23.83 4.44 23.11 4.46 19.05 4.13C11.38 3.4 2.05001 4 1.20001 4.4C-0.219994 5.07 -0.0599938 7.89 0.110006 9.4C0.340006 11.51 0.210006 13.87 0.400006 16.04C0.470006 16.8 0.110006 19.15 1.12001 19.66C1.83788 20.005 2.62352 20.1861 3.42001 20.19L21.26 19.83C21.3604 19.8303 21.4583 19.7984 21.5393 19.739C21.6203 19.6796 21.6801 19.5959 21.71 19.5C21.708 19.4531 21.695 19.4073 21.6721 19.3663C21.6492 19.3254 21.617 19.2903 21.5781 19.2641C21.5392 19.2378 21.4947 19.2211 21.4481 19.2151C21.4016 19.2092 21.3542 19.2143 21.31 19.23C20.5429 19.1991 19.7745 19.2192 19.01 19.29C18.78 18.59 18.37 17.56 18.31 17.42C17.95 16.61 17.69 16.24 17.31 16.04C14.7222 15.5933 12.0908 15.4523 9.47001 15.62C8.59044 15.6992 7.71582 15.826 6.85001 16C4.92001 16.56 4.85001 18.21 4.06001 19.08C4.03127 19.1089 4.00853 19.1433 3.99308 19.181C3.97764 19.2188 3.9698 19.2592 3.97001 19.3H3.47001C1.38001 19.18 1.47001 18.68 1.47001 18.03V16.03C1.31001 13.82 1.47001 11.65 1.24001 9.35C1.13001 8.25 0.980006 6.5 1.58001 5.57C1.61201 5.52206 1.65505 5.48251 1.70551 5.45466C1.75598 5.42682 1.81239 5.4115 1.87001 5.41C2.55001 5.29 9.50001 4.84 12.63 4.83C16.63 4.83 22.97 5.38 23.05 5.4C23.05 6.14 22.61 18.24 22.23 18.88C22.173 18.9093 22.1251 18.9537 22.0916 19.0084C22.0581 19.0631 22.0402 19.1259 22.04 19.19C22.04 19.52 22.46 19.66 22.74 19.34C23.17 18.86 23.31 16.59 23.31 16.13C23.31 13.27 24.28 7.88 23.92 5.13ZM7.40001 16.83C10.1637 16.6497 12.9363 16.6497 15.7 16.83C16.99 16.83 17 16.66 17.6 17.83C17.89 18.38 18.23 19.24 18.3 19.39C14.55 19.39 9.45001 18.84 6.64001 19.14C6.02001 19.2 5.35001 19.28 4.64001 19.31C5.58001 18.19 5.67001 17 7.40001 16.83Z" fill="black"/>
<path fill-rule="evenodd" clip-rule="evenodd" d="M3.51999 10.43C3.32904 10.7408 3.1842 11.0776 3.08999 11.43C3.05031 11.652 3.06408 11.8803 3.13016 12.0959C3.19624 12.3116 3.31274 12.5084 3.46999 12.67C4.75999 14.23 6.47 13.89 8.06 14.02C10.7287 14.1587 13.4044 14.0785 16.06 13.78C17.43 13.66 19.79 13.55 20.06 12.33C20.1492 11.8282 20.1288 11.3131 20 10.82C19.46 8.99001 17.39 9.08001 11.68 8.82001C10.68 8.82001 5.68 8.75001 4.91999 9.15001C4.38841 9.49974 3.91584 9.93181 3.51999 10.43ZM19 12.17C18.91 12.63 14.34 12.93 13.55 13C13.2698 12.1589 13.309 11.2441 13.66 10.43C13.66 10.31 14.01 10.05 14.1 9.84001C17.49 10.21 19.41 9.88001 19 12.17ZM13 9.73001C12.5976 10.1768 12.3462 10.739 12.2815 11.3368C12.2169 11.9346 12.3423 12.5376 12.64 13.06C11.51 13.15 11.48 13.17 10.18 13.2C10.75 11.9 10.87 10.48 9.82999 9.51001C10.8699 9.52649 11.9081 9.59993 12.94 9.73001H13ZM6.49999 9.51001H8.79999C9.08778 9.87378 9.29463 10.2948 9.40672 10.7449C9.51881 11.1949 9.53356 11.6638 9.44999 12.12C9.45815 12.4994 9.37948 12.8757 9.22 13.22C6.07999 13.22 5.21999 13.35 4.21999 12.45C3.93999 12.19 3.69999 11.9 3.76999 11.6C3.87363 10.9697 4.21372 10.4025 4.72096 10.0142C5.22821 9.62587 5.86443 9.44556 6.49999 9.51001Z" fill="black"/>
<path fill-rule="evenodd" clip-rule="evenodd" d="M16.59 6.33005C14.66 6.22005 13.48 5.65005 9.72001 5.85005C9.31001 5.85005 5.22001 6.11005 4.95001 6.42005C4.8973 6.47729 4.86804 6.55225 4.86804 6.63005C4.86804 6.70786 4.8973 6.78282 4.95001 6.84005C5.04001 6.91005 7.29001 6.84005 7.37001 6.84005C12.19 7.00005 20.73 7.44005 19.69 6.75005C20.36 6.34005 18.11 6.41005 16.59 6.33005Z" fill="black"/>
</g>
<defs>
<clipPath id="clip0_1047_6465">
<rect width="24" height="24" fill="white"/>
</clipPath>
</defs>
</svg>
