<svg width="24" height="24" viewBox="0 0 24 24" fill="none" xmlns="http://www.w3.org/2000/svg">
<g clip-path="url(#clip0_1034_4642)">
<path fill-rule="evenodd" clip-rule="evenodd" d="M17.521 0.237995C4.454 -0.150005 3.365 -0.150005 1.807 0.901995C-0.0160009 2.14 0.243999 3.987 0.230999 5.967C0.134999 20.076 -0.165001 23.535 4.071 23.68C7.085 23.803 19.84 24.522 22.047 23.284C23.787 22.315 23.703 20.299 23.719 17.584C23.81 0.917995 24.801 0.456995 17.521 0.237995ZM22.534 2.698C22.8296 5.99596 22.8583 9.3124 22.62 12.615C22.59 22.275 23.211 22.6 18.332 22.691C15.612 22.751 12.897 22.77 10.204 22.668C0.733999 22.272 1.677 23.817 1.505 12.341C1.505 11.719 1.359 3.916 1.573 3.143C1.966 1.736 3.363 1.319 4.821 1.171C5.428 1.113 19.511 0.938995 21.07 1.397C21.4111 1.46202 21.7286 1.61714 21.9896 1.84626C22.2505 2.07538 22.4454 2.37015 22.554 2.7L22.534 2.698Z" fill="black"/>
<path fill-rule="evenodd" clip-rule="evenodd" d="M4.39 4.07999C5.322 4.72999 6 5.28099 7.192 6.07299C8.385 6.86499 8.37 6.52699 7.27 7.11499C4.332 8.69999 4.077 8.88999 4.282 9.29799C4.488 9.70799 4.644 9.62099 7.317 8.42299C10.652 6.93299 12.283 7.08699 4.783 3.40599C4.73875 3.38012 4.68983 3.36322 4.63904 3.35625C4.58825 3.34929 4.53659 3.35239 4.48701 3.36539C4.43742 3.37839 4.39088 3.40103 4.35004 3.43202C4.3092 3.463 4.27487 3.50173 4.249 3.54599C4.22313 3.59024 4.20623 3.63916 4.19926 3.68995C4.1923 3.74073 4.19541 3.7924 4.20841 3.84198C4.23466 3.94213 4.30062 4.02774 4.39 4.07999Z" fill="black"/>
<path fill-rule="evenodd" clip-rule="evenodd" d="M16.458 9.788C16.5141 9.79075 16.5702 9.78195 16.6227 9.76214C16.6753 9.74233 16.7232 9.71193 16.7635 9.67282C16.8039 9.63372 16.8357 9.58675 16.8571 9.53483C16.8786 9.4829 16.8891 9.42713 16.888 9.37097C16.887 9.31481 16.8745 9.25946 16.8511 9.20836C16.8278 9.15726 16.7943 9.11148 16.7526 9.07389C16.7108 9.03629 16.6618 9.00767 16.6086 8.9898C16.5553 8.97192 16.499 8.96519 16.443 8.97C14.7222 8.69621 12.9674 8.71548 11.253 9.027C10.524 9.004 10.003 10.755 16.458 9.788Z" fill="black"/>
</g>
<defs>
<clipPath id="clip0_1034_4642">
<rect width="24" height="24" fill="white"/>
</clipPath>
</defs>
</svg>
