<svg width="24" height="24" viewBox="0 0 24 24" fill="none" xmlns="http://www.w3.org/2000/svg">
<g clip-path="url(#clip0_1030_2671)">
<path fill-rule="evenodd" clip-rule="evenodd" d="M24 10.07C24 9.02 23.94 8.18 24 7.93C24.0494 7.71524 24.0361 7.49079 23.9617 7.28337C23.8872 7.07594 23.7547 6.89428 23.58 6.76001C23.1567 6.50046 22.6661 6.37174 22.17 6.39H20.17C20.0985 6.40299 20.0339 6.44063 19.9874 6.49637C19.9409 6.55211 19.9154 6.62241 19.9154 6.69501C19.9154 6.7676 19.9409 6.8379 19.9874 6.89364C20.0339 6.94938 20.0985 6.98702 20.17 7L22.17 7.17001C22.4583 7.19578 22.7395 7.27371 23 7.4C23.16 7.48001 23.14 7.62001 23.1 7.78001C23.0041 8.58999 22.9507 9.40444 22.94 10.22V13.54V15.54C22.8956 15.6966 22.7914 15.8295 22.65 15.91C22.334 16.0502 21.9951 16.1315 21.65 16.15L19.73 16.26C19.6485 16.2739 19.5747 16.3162 19.5214 16.3793C19.4681 16.4425 19.4389 16.5224 19.4389 16.605C19.4389 16.6876 19.4681 16.7676 19.5214 16.8307C19.5747 16.8938 19.6485 16.9361 19.73 16.95H21.73C22.1622 16.9531 22.5917 16.8821 23 16.74C23.352 16.5852 23.6287 16.2977 23.77 15.94C23.9339 15.1001 24.011 14.2456 24 13.39V10.07Z" fill="black"/>
<path fill-rule="evenodd" clip-rule="evenodd" d="M14.39 16.66C14.39 16.6206 14.3822 16.5816 14.3671 16.5452C14.3521 16.5088 14.33 16.4757 14.3021 16.4479C14.2743 16.42 14.2412 16.3979 14.2048 16.3828C14.1684 16.3678 14.1294 16.36 14.09 16.36L2.52998 16.16C2.25696 16.1632 1.98571 16.1157 1.72998 16.02C1.54227 15.9614 1.38455 15.8324 1.28998 15.66C1.12654 14.3635 1.07968 13.0549 1.14998 11.75C1.14998 10.51 1.19998 9.27 1.28998 8.48C1.29228 8.28338 1.32259 8.08808 1.37998 7.9C1.50471 7.77337 1.65955 7.68046 1.82998 7.63C2.05125 7.53842 2.28302 7.4746 2.51998 7.44C3.83998 7.28 5.31998 7.16 6.85998 7.08C8.99998 7 11.3 6.9 13.42 6.88C13.5102 6.88 13.5966 6.84418 13.6604 6.78042C13.7242 6.71666 13.76 6.63018 13.76 6.54C13.76 6.44983 13.7242 6.36335 13.6604 6.29959C13.5966 6.23582 13.5102 6.2 13.42 6.2C11.29 6.2 8.99998 6.13 6.82998 6.2C5.25998 6.2 3.74998 6.31 2.41998 6.42C2.02022 6.46599 1.62939 6.57044 1.25998 6.73C0.946146 6.85303 0.670232 7.05652 0.459982 7.32C0.12703 8.48332 -0.0280574 9.6903 -1.83135e-05 10.9C-0.0935787 12.6543 -0.0064536 14.4135 0.259982 16.15C0.437709 16.5032 0.73045 16.7854 1.08998 16.95C1.53552 17.1629 2.02671 17.2625 2.51998 17.24L14.09 17C14.133 17.0004 14.1756 16.9915 14.2148 16.974C14.2541 16.9565 14.2892 16.9307 14.3176 16.8985C14.3461 16.8663 14.3673 16.8283 14.3797 16.7871C14.3922 16.746 14.3957 16.7026 14.39 16.66Z" fill="black"/>
<path fill-rule="evenodd" clip-rule="evenodd" d="M21.29 19.77C21.0023 19.7459 20.7246 19.6533 20.48 19.5C20.03 19.25 19.6 18.9 19.23 18.65C18.7999 18.4024 18.4521 18.0338 18.23 17.59C18.049 16.7867 17.9817 15.962 18.03 15.14C18.03 14.87 18.03 14.56 17.98 14.24V11.03V10.34C17.98 9.34 17.98 8.34 18.04 7.57C18.1182 6.97338 18.3452 6.406 18.7 5.92C19.0578 5.39401 19.5005 4.93105 20.01 4.55C20.2235 4.39796 20.4474 4.26096 20.68 4.14C20.8715 4.06262 21.0739 4.0154 21.28 4C21.3595 4 21.4358 3.96839 21.4921 3.91213C21.5484 3.85587 21.58 3.77957 21.58 3.7C21.58 3.62044 21.5484 3.54413 21.4921 3.48787C21.4358 3.43161 21.3595 3.4 21.28 3.4C21.0213 3.40261 20.7648 3.4465 20.52 3.53C20.1708 3.6505 19.8356 3.80806 19.52 4C18.9 4.39387 18.352 4.89107 17.9 5.47C17.6745 5.75368 17.4769 6.05842 17.31 6.38C17.2243 6.01952 17.068 5.67962 16.85 5.38C16.4217 4.86946 15.8945 4.45104 15.3 4.15C14.9878 3.95175 14.6518 3.79383 14.3 3.68C14.0564 3.59165 13.799 3.54762 13.54 3.55C13.4595 3.54996 13.3821 3.58124 13.3242 3.63723C13.2664 3.69323 13.2326 3.76953 13.23 3.85C13.23 3.92957 13.2616 4.00587 13.3178 4.06213C13.3741 4.11839 13.4504 4.15 13.53 4.15C13.7705 4.16569 14.0053 4.23034 14.22 4.34C14.4539 4.45859 14.6779 4.5957 14.89 4.75C15.2916 5.00037 15.6581 5.30303 15.98 5.65C16.2486 5.9842 16.4091 6.39232 16.44 6.82C16.57 7.71 16.65 9 16.71 10.34V11.34C16.71 12.34 16.76 13.34 16.82 14.18V15.32C16.8734 16.1387 16.806 16.9609 16.62 17.76C16.4046 18.211 16.0554 18.5847 15.62 18.83C15.2179 19.1342 14.8007 19.4179 14.37 19.68C14.126 19.8348 13.848 19.9274 13.56 19.95C13.4698 19.95 13.3833 19.9858 13.3196 20.0496C13.2558 20.1133 13.22 20.1998 13.22 20.29C13.22 20.3802 13.2558 20.4667 13.3196 20.5304C13.3833 20.5942 13.4698 20.63 13.56 20.63C13.866 20.6331 14.1692 20.5718 14.45 20.45C15.0081 20.1825 15.5462 19.8751 16.06 19.53C16.6643 19.2263 17.1576 18.7399 17.47 18.14C17.796 18.6574 18.2509 19.0813 18.79 19.37C19.3015 19.7187 19.8398 20.0264 20.4 20.29C20.681 20.411 20.984 20.4722 21.29 20.47C21.3801 20.47 21.4666 20.4342 21.5304 20.3704C21.5941 20.3067 21.63 20.2202 21.63 20.13C21.63 20.0398 21.5941 19.9533 21.5304 19.8896C21.4666 19.8258 21.3801 19.79 21.29 19.79V19.77Z" fill="black"/>
</g>
<defs>
<clipPath id="clip0_1030_2671">
<rect width="24" height="24" fill="white"/>
</clipPath>
</defs>
</svg>
