<svg width="24" height="24" viewBox="0 0 24 24" fill="none" xmlns="http://www.w3.org/2000/svg">
<g clip-path="url(#clip0_1030_2665)">
<path fill-rule="evenodd" clip-rule="evenodd" d="M13.23 14.7C12.56 12.43 12.09 9.86999 11.36 7.48999C11.0543 6.43971 10.663 5.41628 10.19 4.42999C9.86729 3.76567 9.46791 3.14141 8.99999 2.56999C8.63561 2.10394 8.14157 1.75603 7.57999 1.56999C7.27928 1.48325 6.96102 1.47733 6.65729 1.55282C6.35356 1.62831 6.0751 1.78256 5.84999 1.99999C5.20413 2.82962 4.73453 3.78243 4.46999 4.79999C3.65809 6.9255 2.95714 9.09176 2.36999 11.29C1.75999 13.5 1.24999 15.75 0.809993 17.89L-6.58445e-06 22.08C-0.0149242 22.125 -0.0202635 22.1726 -0.0156817 22.2198C-0.0110999 22.267 0.00330184 22.3127 0.0265984 22.354C0.049895 22.3953 0.0815714 22.4313 0.119593 22.4596C0.157615 22.4879 0.201141 22.508 0.247376 22.5185C0.293611 22.529 0.341533 22.5297 0.388063 22.5206C0.434594 22.5115 0.478704 22.4928 0.517561 22.4656C0.556419 22.4384 0.589163 22.4034 0.613693 22.3629C0.638222 22.3223 0.653993 22.277 0.659993 22.23L1.65999 18.08C1.96999 16.83 2.31999 15.54 2.65999 14.25H3.01999H4.59999L9.31999 13.74L10.89 13.63H11.89C12.02 14.09 12.15 14.55 12.3 14.99C12.49 15.59 12.75 16.54 12.99 17.55C13.35 19 13.7 20.55 13.89 21.47C13.8995 21.5204 13.919 21.5684 13.9475 21.6111C13.9761 21.6538 14.0129 21.6902 14.0559 21.7183C14.0989 21.7463 14.1471 21.7653 14.1977 21.7742C14.2482 21.7831 14.3 21.7817 14.35 21.77C14.4485 21.7483 14.5347 21.6893 14.5907 21.6054C14.6466 21.5215 14.6679 21.4192 14.65 21.32C14.48 20.43 14.17 18.82 13.86 17.32C13.64 16.3 13.41 15.32 13.23 14.7ZM10.88 12.77L9.30999 12.67C8.64394 12.6296 7.97605 12.6296 7.30999 12.67C6.72999 12.67 6.13999 12.79 5.56999 12.88C5.17999 12.94 4.80999 13.03 4.42999 13.1L2.88999 13.38C3.05999 12.79 3.22999 12.19 3.40999 11.6C4.07999 9.42999 4.81999 7.27999 5.64999 5.27999C5.8617 4.54533 6.15696 3.83737 6.52999 3.16999C6.59688 3.04335 6.70373 2.94234 6.83393 2.88267C6.96413 2.82299 7.11039 2.80799 7.24999 2.83999C7.55285 2.95311 7.81433 3.15533 7.99999 3.41999C8.4109 3.90355 8.76333 4.43388 9.04999 4.99999C9.51435 5.92119 9.90556 6.87747 10.22 7.85999C10.76 9.45999 11.22 11.16 11.64 12.78L10.88 12.77Z" fill="black"/>
<path fill-rule="evenodd" clip-rule="evenodd" d="M23.65 19.5C23.43 18.31 23.2 17.34 23.04 16.57C22.8063 15.5456 22.4885 14.5422 22.09 13.57C21.72 12.63 21.28 11.65 20.83 10.74C20.5 10.07 20.16 9.44 19.83 8.9C19.4933 8.19082 19.0327 7.5474 18.47 7C18.336 6.91044 18.1824 6.85458 18.0223 6.83717C17.8621 6.81976 17.7001 6.84131 17.55 6.9C17.235 7.01192 16.9531 7.20101 16.73 7.45C16.4526 7.75471 16.211 8.09023 16.01 8.45C15.59 9.2 15.29 10.03 14.8 10.75C14.7737 10.7861 14.7548 10.827 14.7444 10.8705C14.7339 10.9139 14.7322 10.9589 14.7391 11.003C14.7461 11.0471 14.7617 11.0894 14.785 11.1275C14.8083 11.1656 14.8389 11.1987 14.875 11.225C14.9111 11.2513 14.952 11.2702 14.9955 11.2806C15.0389 11.291 15.0839 11.2928 15.128 11.2859C15.1721 11.2789 15.2144 11.2633 15.2525 11.24C15.2906 11.2167 15.3237 11.1861 15.35 11.15C15.9 10.46 16.26 9.64 16.76 8.92C16.9438 8.6314 17.1658 8.36901 17.42 8.14C17.507 8.0557 17.6087 7.98793 17.72 7.94C17.77 7.94 17.83 7.87 17.88 7.94C18.2389 8.41474 18.5378 8.93199 18.77 9.48C19.17 10.26 19.63 11.21 20.09 12.2C20.7519 13.5454 21.3362 14.9277 21.84 16.34H21.79C21.7002 16.3305 21.6097 16.3305 21.52 16.34C21.06 16.27 19.93 16.18 19.72 16.17H18.17C17.35 16.17 16.56 16.34 15.77 16.44C15.6798 16.44 15.5933 16.4758 15.5296 16.5396C15.4658 16.6033 15.43 16.6898 15.43 16.78C15.43 16.8702 15.4658 16.9566 15.5296 17.0204C15.5933 17.0842 15.6798 17.12 15.77 17.12C16.56 17.22 17.35 17.41 18.16 17.45C18.7046 17.4633 19.2493 17.4365 19.79 17.37C19.99 17.37 21.05 17.18 21.49 17.15H21.56C21.6396 17.1772 21.726 17.1773 21.8056 17.1501C21.8852 17.123 21.9536 17.0702 22 17C22.0029 16.9801 22.0029 16.9599 22 16.94C22.21 17.68 22.49 18.6 22.78 19.74C22.94 20.32 23.09 20.97 23.24 21.67C23.2472 21.7199 23.2644 21.7678 23.2908 21.8108C23.3171 21.8537 23.3519 21.8909 23.3931 21.9199C23.4343 21.9489 23.481 21.9692 23.5304 21.9796C23.5797 21.9899 23.6306 21.99 23.68 21.98C23.7803 21.9606 23.869 21.9025 23.927 21.8184C23.985 21.7342 24.0076 21.6307 23.99 21.53C23.89 20.77 23.77 20.11 23.65 19.5Z" fill="black"/>
</g>
<defs>
<clipPath id="clip0_1030_2665">
<rect width="24" height="24" fill="white"/>
</clipPath>
</defs>
</svg>
