<svg width="24" height="24" viewBox="0 0 24 24" fill="none" xmlns="http://www.w3.org/2000/svg">
<g clip-path="url(#clip0_1030_2700)">
<path fill-rule="evenodd" clip-rule="evenodd" d="M3.49001 1.07C3.58325 1.06403 3.67677 1.06403 3.77001 1.07C3.87001 1.68 3.97001 2.89 3.98001 3.07C3.97726 3.10973 3.98273 3.1496 3.99607 3.18713C4.00941 3.22466 4.03033 3.25903 4.05754 3.28812C4.08475 3.3172 4.11766 3.34037 4.15421 3.35618C4.19077 3.37199 4.23018 3.3801 4.27001 3.38C4.30941 3.38134 4.34869 3.37489 4.3856 3.36104C4.42251 3.34718 4.45633 3.32619 4.48512 3.29926C4.51391 3.27232 4.53711 3.23998 4.55339 3.20407C4.56967 3.16817 4.57872 3.12941 4.58001 3.09C4.58001 2.83 4.65001 1.39 4.58001 0.800002C4.57285 0.620409 4.5138 0.446739 4.41001 0.300002C4.28603 0.2238 4.14525 0.179163 4.00001 0.170002C3.36747 0.0481116 2.72413 -0.00885068 2.08001 1.74518e-06C1.63826 -0.00738877 1.19667 0.0227192 0.76001 0.0900017C0.575671 0.1128 0.407275 0.205955 0.29001 0.350002C0.218982 0.447996 0.171114 0.560828 0.15001 0.680002C0.122184 1.01275 0.122184 1.34725 0.15001 1.68C0.147586 2.51165 0.221226 3.34177 0.37001 4.16C0.441829 4.2518 0.532612 4.32702 0.636161 4.38052C0.73971 4.43402 0.853585 4.46454 0.97001 4.47C1.2798 4.48603 1.59022 4.48603 1.90001 4.47C1.82001 5.8 1.70001 7.68 1.65001 9.74V11.97C1.65001 12.72 1.65001 13.47 1.71001 14.2C1.78001 16.2 1.90001 18.04 1.96001 19.4C1.95433 19.4264 1.95433 19.4536 1.96001 19.48C1.55512 19.483 1.15089 19.5131 0.75001 19.57C0.568597 19.6014 0.403045 19.693 0.28001 19.83C0.208982 19.928 0.161114 20.0408 0.14001 20.16C0.112184 20.4928 0.112184 20.8272 0.14001 21.16C0.152016 21.9966 0.242412 22.8303 0.41001 23.65C0.473425 23.7511 0.560035 23.8355 0.662649 23.8964C0.765262 23.9573 0.880918 23.9928 1.00001 24C1.82393 24.0386 2.64959 24.0152 3.47001 23.93C3.51423 23.9287 3.55775 23.9186 3.59798 23.9002C3.63821 23.8818 3.67432 23.8555 3.70417 23.8228C3.73403 23.7902 3.75701 23.7518 3.77176 23.7101C3.7865 23.6684 3.79271 23.6242 3.79001 23.58C3.78484 23.4889 3.74432 23.4035 3.67708 23.3418C3.60983 23.2802 3.52119 23.2472 3.43001 23.25C2.71137 23.2503 1.99338 23.2068 1.28001 23.12C1.27454 23.0334 1.27454 22.9466 1.28001 22.86V20.72C2.02383 20.638 2.77168 20.5979 3.52001 20.6C3.61324 20.5937 3.70678 20.5937 3.80001 20.6C3.90001 21.21 4.00001 22.41 4.01001 22.6C4.00868 22.6394 4.01512 22.6787 4.02897 22.7156C4.04283 22.7525 4.06382 22.7863 4.09076 22.8151C4.11769 22.8439 4.15003 22.8671 4.18594 22.8834C4.22184 22.8997 4.26061 22.9087 4.30001 22.91C4.38052 22.91 4.4579 22.8788 4.51575 22.8228C4.57361 22.7668 4.60741 22.6905 4.61001 22.61C4.61001 22.36 4.68001 20.92 4.61001 20.32C4.60285 20.1404 4.5438 19.9667 4.44001 19.82C4.3174 19.7157 4.16879 19.6466 4.01001 19.62C3.54854 19.5297 3.08013 19.4795 2.61001 19.47C2.61381 19.4368 2.61381 19.4032 2.61001 19.37C2.61001 18 2.73001 16.15 2.76001 14.16V11.93V9.71C2.68001 7.65 2.55001 5.78 2.51001 4.51C2.51594 4.48705 2.51594 4.46296 2.51001 4.44L3.51001 4.37C3.60018 4.37 3.68666 4.33418 3.75043 4.27042C3.81419 4.20666 3.85001 4.12018 3.85001 4.03C3.85001 3.93983 3.81419 3.85335 3.75043 3.78959C3.68666 3.72582 3.60018 3.69 3.51001 3.69C2.79137 3.69026 2.07338 3.64684 1.36001 3.56C1.35454 3.47342 1.35454 3.38658 1.36001 3.3V1.15C2.06808 1.08549 2.77909 1.05879 3.49001 1.07Z" fill="black"/>
<path fill-rule="evenodd" clip-rule="evenodd" d="M20.22 4.49H21.4C21.4 5.4 21.33 7.68 21.4 10.27C21.4 11.43 21.46 12.65 21.5 13.82C21.58 15.91 21.7 17.82 21.68 19.14C21.6773 19.2312 21.7102 19.3198 21.7718 19.3871C21.8335 19.4543 21.9189 19.4948 22.01 19.5C22.0547 19.5013 22.0991 19.4939 22.1409 19.478C22.1827 19.4621 22.2209 19.4382 22.2534 19.4075C22.2859 19.3769 22.312 19.3401 22.3303 19.2994C22.3486 19.2586 22.3587 19.2147 22.36 19.17C22.47 17.92 22.57 16.01 22.59 13.96V11.73C22.59 10.99 22.59 10.22 22.51 9.5C22.37 7.23 22.16 5.3 22.08 4.5H22.74C22.8302 4.5 22.9167 4.46418 22.9804 4.40042C23.0442 4.33666 23.08 4.25018 23.08 4.16C23.08 4.06983 23.0442 3.98335 22.9804 3.91959C22.9167 3.85582 22.8302 3.82 22.74 3.82C22.0174 3.81061 21.2961 3.75718 20.58 3.66V3.4C20.58 2.78 20.58 1.82 20.64 1.26C21.3841 1.18387 22.1322 1.15382 22.88 1.17C22.9732 1.16374 23.0668 1.16374 23.16 1.17C23.26 1.78 23.34 2.98 23.35 3.17C23.3473 3.20973 23.3527 3.24961 23.3661 3.28713C23.3794 3.32466 23.4003 3.35903 23.4275 3.38812C23.4547 3.4172 23.4877 3.44037 23.5242 3.45618C23.5608 3.47199 23.6002 3.4801 23.64 3.48C23.6794 3.48134 23.7187 3.47489 23.7556 3.46104C23.7925 3.44718 23.8263 3.42619 23.8551 3.39926C23.8839 3.37232 23.9071 3.33998 23.9234 3.30407C23.9397 3.26817 23.9487 3.22941 23.95 3.19C23.95 2.94 24.04 1.5 24 0.900003C23.9994 0.720837 23.9436 0.546218 23.84 0.400003C23.6812 0.288959 23.4936 0.226425 23.3 0.220003C22.6639 0.0929773 22.0184 0.0193874 21.37 2.65916e-06C20.9285 -0.0142227 20.4866 0.0125588 20.05 0.0800027C19.8696 0.108003 19.704 0.196096 19.58 0.330003C19.509 0.427997 19.4611 0.540829 19.44 0.660003C19.3853 0.990347 19.3652 1.32549 19.38 1.66C19.3822 2.49567 19.4625 3.3293 19.62 4.15C19.6861 4.24997 19.7749 4.33289 19.8792 4.39198C19.9835 4.45107 20.1003 4.48466 20.22 4.49Z" fill="black"/>
<path fill-rule="evenodd" clip-rule="evenodd" d="M23.73 19.91C23.6074 19.8057 23.4588 19.7366 23.3 19.71C22.6645 19.583 22.0181 19.5194 21.37 19.52C20.9289 19.5088 20.4875 19.5322 20.05 19.59C19.8697 19.618 19.704 19.7061 19.58 19.84C19.511 19.9391 19.4633 20.0515 19.44 20.17C19.3916 20.4708 19.3715 20.7755 19.38 21.08C18.19 20.98 16.46 20.88 14.6 20.84H12.46C11.75 20.84 11.01 20.84 10.32 20.91C8.01002 21.03 6.05002 21.23 5.32002 21.3C5.24045 21.3 5.16415 21.3316 5.10789 21.3879C5.05163 21.4441 5.02002 21.5204 5.02002 21.6C5.02002 21.6796 5.05163 21.7559 5.10789 21.8121C5.16415 21.8684 5.24045 21.9 5.32002 21.9C6.11002 21.9 8.40002 22 11 22.01C12.12 22.01 13.29 22.01 14.42 21.94C16.34 21.88 18.13 21.79 19.35 21.79C19.3696 22.4218 19.4432 23.0508 19.57 23.67C19.6409 23.7628 19.7315 23.8387 19.8352 23.8924C19.939 23.946 20.0533 23.9759 20.17 23.98C20.989 24.0383 21.8111 24.0383 22.63 23.98C22.6751 23.9801 22.7197 23.9709 22.7611 23.9531C22.8025 23.9353 22.8398 23.9092 22.8707 23.8764C22.9016 23.8436 22.9255 23.8048 22.9409 23.7624C22.9562 23.7201 22.9627 23.675 22.96 23.63C22.9587 23.5853 22.9486 23.5414 22.9303 23.5006C22.9121 23.4599 22.8859 23.4231 22.8534 23.3925C22.8209 23.3618 22.7827 23.3379 22.7409 23.322C22.6992 23.3062 22.6547 23.2987 22.61 23.3C21.8876 23.2937 21.1663 23.2436 20.45 23.15V22.88C20.45 22.27 20.45 21.3 20.51 20.74C21.2545 20.6689 22.0023 20.6388 22.75 20.65C22.8432 20.6437 22.9368 20.6437 23.03 20.65C23.13 21.26 23.21 22.47 23.22 22.65C23.2173 22.6902 23.2227 22.7306 23.236 22.7686C23.2492 22.8067 23.27 22.8417 23.297 22.8716C23.3241 22.9015 23.3569 22.9256 23.3935 22.9425C23.4301 22.9594 23.4697 22.9688 23.51 22.97C23.5898 22.9677 23.6658 22.9356 23.7232 22.8801C23.7805 22.8246 23.8151 22.7497 23.82 22.67C23.82 22.42 23.91 20.98 23.87 20.39C23.8691 20.2201 23.8206 20.0538 23.73 19.91Z" fill="black"/>
<path fill-rule="evenodd" clip-rule="evenodd" d="M15.22 6.7H16.22C16.3498 6.6792 16.4829 6.70021 16.6 6.76C16.74 6.86 16.77 7.08 16.78 7.46V8.46V9.77C16.78 9.81465 16.7888 9.85886 16.8059 9.90011C16.823 9.94136 16.848 9.97884 16.8796 10.0104C16.9111 10.042 16.9486 10.067 16.9899 10.0841C17.0311 10.1012 17.0753 10.11 17.12 10.11C17.1646 10.11 17.2088 10.1012 17.2501 10.0841C17.2913 10.067 17.3288 10.042 17.3604 10.0104C17.392 9.97884 17.417 9.94136 17.4341 9.90011C17.4512 9.85886 17.46 9.81465 17.46 9.77L17.51 8.46V7.46C17.5495 7.20776 17.5313 6.94985 17.4568 6.70565C17.3823 6.46144 17.2535 6.23728 17.08 6.05C16.72 5.72 16.08 5.74 15.17 5.63C14.95 5.63 14.76 5.63 14.57 5.58C14.38 5.53 14.18 5.58 13.96 5.58L12.1 5.77C11.62 5.77 11.1 5.85 10.66 5.92L8.52998 6.21C8.17167 6.26159 7.81745 6.33845 7.46998 6.44C7.26636 6.50228 7.0787 6.60805 6.91998 6.75C6.84773 6.82297 6.80196 6.91801 6.78998 7.02C6.77793 7.19646 6.77793 7.37354 6.78998 7.55V9.01C6.79107 9.27304 6.85995 9.53135 6.98998 9.76C7.01231 9.79283 7.04088 9.82094 7.07407 9.84273C7.10726 9.86452 7.14441 9.87956 7.18341 9.88698C7.22241 9.89441 7.2625 9.89409 7.30137 9.88603C7.34025 9.87796 7.37715 9.86232 7.40998 9.84C7.44281 9.81768 7.47092 9.7891 7.49271 9.75591C7.5145 9.72272 7.52954 9.68557 7.53697 9.64657C7.5444 9.60757 7.54407 9.56749 7.53601 9.52861C7.52795 9.48974 7.51231 9.45283 7.48998 9.42C7.43387 9.21375 7.43387 8.99625 7.48998 8.79C7.48998 8.33 7.58998 7.79 7.59998 7.55C7.60998 7.31 7.36998 7.32 7.95998 7.23C8.17984 7.21874 8.40013 7.21874 8.61998 7.23L11.89 7C11.89 7.37 11.89 8.58 11.83 9.08C11.77 9.58 11.78 9.88 11.76 10.27C11.76 10.88 11.69 11.49 11.67 12.09C11.65 12.69 11.67 13.46 11.67 14.15L11.77 16C11.77 16.08 11.69 16.5 11.77 16.58C11.85 16.66 11.77 16.63 11.77 16.66H11.59C10.8 16.74 10.05 16.88 9.50998 16.89C9.47055 16.8859 9.43069 16.8896 9.3927 16.9009C9.35471 16.9123 9.31935 16.9311 9.28867 16.9562C9.25798 16.9813 9.23257 17.0122 9.21392 17.0472C9.19526 17.0822 9.18373 17.1205 9.17998 17.16C9.17584 17.1994 9.17955 17.2393 9.19091 17.2773C9.20227 17.3153 9.22105 17.3506 9.24615 17.3813C9.27126 17.412 9.3022 17.4374 9.33719 17.4561C9.37217 17.4747 9.41051 17.4863 9.44998 17.49C10.1953 17.6395 10.9507 17.7331 11.71 17.77H12.82C13.17 17.77 13.61 17.69 13.91 17.66H15.44C15.4846 17.6659 15.53 17.663 15.5735 17.6513C15.617 17.6397 15.6578 17.6196 15.6936 17.5922C15.7293 17.5648 15.7593 17.5307 15.7819 17.4917C15.8044 17.4527 15.8191 17.4096 15.825 17.365C15.8309 17.3204 15.8279 17.275 15.8163 17.2315C15.8047 17.188 15.7846 17.1472 15.7572 17.1114C15.7298 17.0757 15.6957 17.0456 15.6567 17.0231C15.6177 17.0006 15.5746 16.9859 15.53 16.98L13.91 16.7C13.7 16.7 13.46 16.65 13.19 16.64H12.5V16.02L12.66 14.11C12.66 13.71 12.72 13.31 12.75 12.91C12.75 12.3 12.82 11.69 12.83 11.08C12.84 10.47 12.83 9.7 12.73 9.01C12.73 8.51 12.53 7.27 12.49 6.92L14.18 6.72L15.22 6.7Z" fill="black"/>
<path fill-rule="evenodd" clip-rule="evenodd" d="M13.3 2.36C15.06 2.36 16.74 2.21 17.93 2.22C18.0202 2.22 18.1067 2.18418 18.1704 2.12042C18.2342 2.05665 18.27 1.97017 18.27 1.88C18.27 1.78983 18.2342 1.70334 18.1704 1.63958C18.1067 1.57582 18.0202 1.54 17.93 1.54C16.77 1.43 15.13 1.32 13.39 1.28H11.45C10.81 1.28 10.13 1.28 9.45 1.34C7.39 1.46 5.65 1.65 4.93 1.73C4.85044 1.73 4.77413 1.76161 4.71787 1.81787C4.66161 1.87413 4.63 1.95043 4.63 2.03C4.63 2.10956 4.66161 2.18587 4.71787 2.24213C4.77413 2.29839 4.85044 2.33 4.93 2.33C5.73 2.33 7.77 2.44 10.09 2.44C11.21 2.43 12.27 2.4 13.3 2.36Z" fill="black"/>
</g>
<defs>
<clipPath id="clip0_1030_2700">
<rect width="24" height="24" fill="white"/>
</clipPath>
</defs>
</svg>
