<svg width="24" height="24" viewBox="0 0 24 24" fill="none" xmlns="http://www.w3.org/2000/svg">
<g clip-path="url(#clip0_1030_2653)">
<path fill-rule="evenodd" clip-rule="evenodd" d="M14.4 8.81C14.44 8.8221 14.4821 8.82597 14.5237 8.82137C14.5653 8.81677 14.6055 8.80381 14.6419 8.78325C14.6784 8.76269 14.7103 8.73498 14.7357 8.70176C14.7612 8.66855 14.7796 8.63053 14.79 8.59L15.3 7C15.45 6.56 15.61 6.11 15.78 5.66H16.4H17.14C17.39 5.66 17.82 5.5 18.14 5.47L18.74 5.37C19.2158 5.37996 19.6903 5.4234 20.16 5.5C20.16 5.59 20.23 5.7 20.28 5.79C20.33 5.88 20.5 6.38 20.63 6.79C20.82 7.36 21 7.98 21.1 8.33C21.1257 8.42118 21.1863 8.49856 21.2686 8.54536C21.351 8.59216 21.4485 8.6046 21.54 8.58C21.6308 8.55637 21.7088 8.49819 21.7574 8.41787C21.806 8.33754 21.8212 8.24142 21.8 8.15L21.11 5.48C20.78 4.57 20.56 3.54 20.2 2.59C20.042 2.15293 19.8446 1.73118 19.61 1.33C19.4413 1.01717 19.2366 0.725181 19 0.46C18.7686 0.236353 18.4823 0.0776851 18.17 -2.71946e-07C17.9596 -0.0441305 17.7414 -0.0332641 17.5364 0.0315492C17.3315 0.0963626 17.1467 0.212933 17 0.37C16.7245 0.696834 16.508 1.06903 16.36 1.47C16.0364 2.14619 15.7526 2.84071 15.51 3.55C15.1456 4.6001 14.8352 5.66817 14.58 6.75L14.21 8.42C14.1869 8.49699 14.1936 8.57985 14.2288 8.65211C14.264 8.72437 14.3251 8.78074 14.4 8.81ZM17.4 2.01C17.49 1.76109 17.6073 1.52296 17.75 1.3C17.767 1.26586 17.7949 1.23843 17.8294 1.22211C17.8639 1.20578 17.9028 1.20152 17.94 1.21C18.0698 1.25325 18.1844 1.33312 18.27 1.44C18.4174 1.59131 18.5512 1.75528 18.67 1.93C18.889 2.26877 19.0764 2.62694 19.23 3C19.52 3.64 19.76 4.32 20.01 5L19.1 4.69L18.79 4.62L18.19 4.53C17.8593 4.47873 17.5241 4.46198 17.19 4.48C16.87 4.48 16.57 4.61 16.26 4.67H16.17C16.1956 4.59495 16.2256 4.52148 16.26 4.45C16.5924 3.61202 16.973 2.79398 17.4 2V2.01Z" fill="black"/>
<path fill-rule="evenodd" clip-rule="evenodd" d="M20.29 15.4C20.1303 14.9637 19.9329 14.5421 19.7 14.14C19.5045 13.8392 19.2764 13.5609 19.02 13.31C18.7936 13.0964 18.5138 12.9479 18.21 12.88C18.0001 12.8273 17.78 12.8299 17.5714 12.8878C17.3628 12.9456 17.1728 13.0567 17.02 13.21C16.7446 13.5368 16.528 13.909 16.38 14.31C16.0566 14.9876 15.7695 15.6819 15.52 16.39C15.162 17.4446 14.855 18.5159 14.6 19.6L14.23 21.27C14.208 21.3495 14.2175 21.4345 14.2566 21.5072C14.2958 21.5799 14.3615 21.6346 14.44 21.66C14.5209 21.6816 14.607 21.6707 14.6799 21.6296C14.7528 21.5885 14.8067 21.5204 14.83 21.44L15.34 19.81C15.49 19.37 15.65 18.92 15.82 18.47L16.44 18.53C16.6865 18.5447 16.9336 18.5447 17.18 18.53C17.53 18.53 17.86 18.38 18.18 18.34C19.38 18.15 18.72 18.26 20.18 18.34C20.18 18.44 20.25 18.54 20.3 18.64C20.35 18.74 20.52 19.23 20.65 19.64C20.84 20.21 21.02 20.83 21.12 21.18C21.1458 21.2716 21.206 21.3498 21.2879 21.3982C21.3699 21.4466 21.4673 21.4616 21.56 21.44C21.6048 21.4284 21.6468 21.408 21.6837 21.3801C21.7205 21.3521 21.7514 21.3171 21.7747 21.2771C21.7979 21.2372 21.813 21.193 21.8191 21.1471C21.8252 21.1013 21.8221 21.0547 21.81 21.01L21.2 18.3C20.87 17.39 20.65 16.36 20.29 15.4ZM19.14 17.48L18.83 17.42L18.23 17.32C17.8976 17.2853 17.5624 17.2853 17.23 17.32C16.91 17.32 16.61 17.44 16.3 17.5H16.21C16.21 17.43 16.26 17.36 16.29 17.28C16.64 16.45 17.02 15.63 17.44 14.86C17.534 14.6128 17.6512 14.3751 17.79 14.15C17.8097 14.1188 17.8384 14.0944 17.8724 14.0801C17.9064 14.0658 17.944 14.0623 17.98 14.07C18.108 14.1119 18.2221 14.188 18.31 14.29C18.4553 14.4406 18.5859 14.6046 18.7 14.78C18.9249 15.1099 19.1159 15.4617 19.27 15.83C19.56 16.48 19.8 17.15 20.04 17.83C19.79 17.7 19.49 17.6 19.14 17.48Z" fill="black"/>
<path fill-rule="evenodd" clip-rule="evenodd" d="M13.2 10.86C14.4 10.95 15.59 11.11 16.8 11.15C17.61 11.15 18.41 11.15 19.21 11.1L21.82 10.91H22.17C22.41 10.91 22.78 10.28 22.1 10.2H21.82L19.2 10C18.4 10 17.61 9.95001 16.8 10C15.59 10 14.4 10.18 13.2 10.27C13.154 10.2618 13.1066 10.2637 13.0614 10.2758C13.0162 10.2878 12.9742 10.3096 12.9383 10.3396C12.9024 10.3697 12.8735 10.4072 12.8537 10.4496C12.8339 10.492 12.8237 10.5382 12.8237 10.585C12.8237 10.6318 12.8339 10.678 12.8537 10.7204C12.8735 10.7628 12.9024 10.8004 12.9383 10.8304C12.9742 10.8604 13.0162 10.8822 13.0614 10.8943C13.1066 10.9063 13.154 10.9082 13.2 10.9V10.86Z" fill="black"/>
<path fill-rule="evenodd" clip-rule="evenodd" d="M22.14 23H21.86L19.24 22.83C18.44 22.83 17.64 22.77 16.84 22.83C15.63 22.83 14.43 23 13.24 23.1C13.1578 23.1 13.0789 23.1327 13.0208 23.1908C12.9627 23.2489 12.93 23.3278 12.93 23.41C12.93 23.4922 12.9627 23.5711 13.0208 23.6292C13.0789 23.6873 13.1578 23.72 13.24 23.72C14.43 23.82 15.63 23.98 16.84 24.01H19.25C19.55 24.01 21.18 23.86 21.86 23.83H22.1C22.1359 23.8403 22.174 23.8403 22.21 23.83C22.45 23.71 22.82 23.1 22.14 23Z" fill="black"/>
<path fill-rule="evenodd" clip-rule="evenodd" d="M8.65 19.36C8.56721 19.3607 8.4872 19.3899 8.42344 19.4428C8.35969 19.4956 8.3161 19.5688 8.3 19.65C8.3 19.65 8.22 19.81 8.14 19.94C7.67384 20.7068 7.13467 21.4269 6.53 22.09C6.28 22.36 6.26 22.57 6.09 22.52V22.44C6.3008 21.0302 6.39113 19.6051 6.36 18.18V16.44C6.36 15.85 6.3 15.27 6.24 14.71C6.11 13.33 5.91 12.09 5.75 11.21C6.59156 12.2729 7.34411 13.4034 8 14.59C8.0356 14.6766 8.10355 14.746 8.18943 14.7833C8.27532 14.8206 8.37237 14.823 8.46 14.79C8.54736 14.7524 8.61687 14.6826 8.65411 14.595C8.69135 14.5075 8.69346 14.409 8.66 14.32C8.09435 12.9628 7.40477 11.6606 6.6 10.43C6.4195 10.1334 6.21903 9.8494 6 9.57999C5.92059 9.48855 5.81939 9.41861 5.70577 9.37666C5.59215 9.33471 5.46979 9.3221 5.35 9.33999C5.19604 9.3859 5.0554 9.46822 4.94 9.57999C4.57389 9.95508 4.23942 10.3598 3.94 10.79C3.19 11.84 2.31 13.3 1.85 14.07C1.71 14.31 1.61 14.49 1.57 14.58C1.52583 14.6592 1.50502 14.7494 1.51 14.84C1.52103 14.8893 1.54291 14.9355 1.57405 14.9753C1.60518 15.0151 1.64479 15.0474 1.69 15.07C1.73108 15.0876 1.77531 15.0967 1.82 15.0967C1.86469 15.0967 1.90892 15.0876 1.95 15.07C2.13 15 2.4 14.5 2.43 14.46C2.97 13.76 4.06 12.46 4.87 11.46C4.94892 11.3642 5.02237 11.2641 5.09 11.16C5.09 12.16 5.09 13.73 5.16 15.41C5.16 16.32 5.24 17.25 5.29 18.12C5.41 19.94 5.56 21.47 5.5 21.93C5 21.53 4.23 20.76 2.88 19.5C2.8243 19.439 2.74666 19.4026 2.66414 19.3989C2.58163 19.3951 2.501 19.4243 2.44 19.48C2.379 19.5357 2.34262 19.6133 2.33887 19.6959C2.33512 19.7784 2.3643 19.859 2.42 19.92C2.75 20.34 3.66 21.69 4.49 22.62C4.86522 23.0959 5.35331 23.4705 5.91 23.71C6.16911 23.7448 6.43204 23.6844 6.65 23.54C7.09082 23.2069 7.46414 22.7928 7.75 22.32C8.18973 21.6175 8.57422 20.882 8.9 20.12C8.9428 20.0234 8.97629 19.9229 9 19.82C9.01797 19.766 9.02249 19.7083 9.01315 19.6522C9.00382 19.596 8.98091 19.5429 8.94643 19.4976C8.91194 19.4523 8.86692 19.4161 8.81526 19.3921C8.7636 19.3681 8.70688 19.3571 8.65 19.36Z" fill="black"/>
</g>
<defs>
<clipPath id="clip0_1030_2653">
<rect width="24" height="24" fill="white"/>
</clipPath>
</defs>
</svg>
