<svg width="24" height="24" viewBox="0 0 24 24" fill="none" xmlns="http://www.w3.org/2000/svg">
<g clip-path="url(#clip0_1033_3931)">
<path d="M21.88 7.92C18.27 1.31 9.14999 -0.43 4.10999 5.9C4.53999 5 4.43999 2.61 4.99999 0.359999C5.00984 0.322573 5.01222 0.283573 5.007 0.245226C5.00178 0.206879 4.98905 0.169936 4.96955 0.136507C4.95005 0.103078 4.92416 0.073817 4.89335 0.050395C4.86254 0.026973 4.82742 0.00984858 4.78999 -5.6345e-07C4.71441 -0.0198918 4.63401 -0.00894165 4.5665 0.030441C4.49899 0.0698236 4.44988 0.134413 4.42999 0.209999C4.18999 1.06 3.99999 1.64 3.75999 2.77C2.88999 6.77 3.03999 5.77 2.97999 6.21C2.87999 6.89 3.50999 7.32 4.09999 7.51C5.67999 7.99 8.09999 7.28 10.1 8.15C10.1382 8.16908 10.1799 8.18031 10.2226 8.18301C10.2653 8.18572 10.308 8.17984 10.3484 8.16574C10.3888 8.15164 10.4259 8.12959 10.4576 8.1009C10.4893 8.07221 10.5149 8.03746 10.533 7.9987C10.551 7.95995 10.5611 7.91796 10.5626 7.87524C10.5642 7.83252 10.5572 7.78992 10.542 7.74995C10.5268 7.70999 10.5037 7.67348 10.4742 7.64257C10.4447 7.61166 10.4092 7.58699 10.37 7.57C8.10999 6.45 5.79999 6.94 4.42999 6.48C4.29999 6.48 4.42999 6.48 4.56999 6.35C5.74923 4.83183 7.36951 3.71591 9.20836 3.15549C11.0472 2.59506 13.0145 2.61759 14.84 3.22C20 4.76 23.84 10.96 21.38 16.22C16.31 27.57 1.06999 23.13 1.37999 14.63C1.37999 14.5557 1.35049 14.4845 1.29798 14.432C1.24547 14.3795 1.17425 14.35 1.09999 14.35C1.02573 14.35 0.954513 14.3795 0.902003 14.432C0.849493 14.4845 0.819993 14.5557 0.819993 14.63C0.279993 23.8 16.73 29.14 22.37 16.7C22.9771 15.2993 23.249 13.7763 23.1639 12.252C23.0788 10.7278 22.6392 9.24444 21.88 7.92Z" fill="black"/>
<path d="M8.91998 14.26C9.09998 13.26 9.32998 10.68 8.49998 10.12C8.41654 10.0567 8.3147 10.0225 8.20998 10.0225C8.10527 10.0225 8.00342 10.0567 7.91998 10.12C7.70998 10.29 8.22998 9.87997 6.17998 11.65C6.11766 11.6911 6.07421 11.7553 6.05921 11.8284C6.04421 11.9015 6.05887 11.9776 6.09998 12.04C6.14109 12.1023 6.20527 12.1457 6.27841 12.1607C6.35155 12.1757 6.42766 12.1611 6.48998 12.12C8.23998 11 7.99998 11.09 7.99998 11.29C8.14998 13.29 7.44998 15.92 7.80998 17.86C7.82192 17.9448 7.86708 18.0215 7.93553 18.0731C8.00398 18.1246 8.09011 18.1469 8.17498 18.135C8.25985 18.123 8.3365 18.0779 8.38808 18.0094C8.43965 17.941 8.46192 17.8548 8.44998 17.77C8.45925 16.5849 8.61715 15.4057 8.91998 14.26Z" fill="black"/>
<path d="M15.18 10.5599C15.2543 10.5361 15.316 10.4837 15.3516 10.4143C15.3873 10.3449 15.3939 10.2642 15.37 10.1899C15.3461 10.1157 15.2937 10.054 15.2243 10.0183C15.155 9.98269 15.0743 9.97608 15 9.99995C9.53999 11.7699 10.35 19.2799 15.25 18.2999C18.69 17.5199 19.13 11.4899 15.94 10.4399C15.8994 10.4202 15.8551 10.4093 15.8099 10.4079C15.7648 10.4065 15.7199 10.4146 15.6781 10.4318C15.6364 10.449 15.5987 10.4748 15.5677 10.5076C15.5366 10.5404 15.5129 10.5794 15.498 10.622C15.483 10.6646 15.4773 10.7099 15.4811 10.7549C15.485 10.7999 15.4983 10.8435 15.5202 10.883C15.5421 10.9225 15.5722 10.9569 15.6083 10.9839C15.6445 11.011 15.6859 11.0301 15.73 11.0399C18.15 11.9799 17.53 16.7999 15.03 17.2399C13.03 17.6399 12.09 16.1799 12.22 14.2399C12.3066 13.4067 12.632 12.6161 13.1571 11.9633C13.6822 11.3105 14.3846 10.8232 15.18 10.5599Z" fill="black"/>
</g>
<defs>
<clipPath id="clip0_1033_3931">
<rect width="24" height="24" fill="white"/>
</clipPath>
</defs>
</svg>
