<svg width="24" height="24" viewBox="0 0 24 24" fill="none" xmlns="http://www.w3.org/2000/svg">
<g clip-path="url(#clip0_1030_2765)">
<path fill-rule="evenodd" clip-rule="evenodd" d="M18.77 7.55C18.4291 7.25706 18.0645 6.99283 17.68 6.76C17.8337 6.66803 17.9777 6.56082 18.11 6.44C18.2189 6.29965 18.3191 6.1527 18.41 6C18.41 6 18.73 5.5 18.74 5.47L18.87 5.56C19.18 5.76 19.5 5.92 19.79 6.14C19.8215 6.17218 19.859 6.19783 19.9005 6.21549C19.9419 6.23316 19.9864 6.24249 20.0315 6.24295C20.0765 6.24341 20.1212 6.235 20.163 6.2182C20.2047 6.20139 20.2428 6.17652 20.275 6.145C20.3072 6.11349 20.3328 6.07594 20.3505 6.03451C20.3681 5.99308 20.3775 5.94858 20.3779 5.90354C20.3784 5.8585 20.37 5.81382 20.3532 5.77203C20.3364 5.73024 20.3115 5.69218 20.28 5.66C20.0606 5.3288 19.8166 5.01458 19.55 4.72C19.4364 4.59652 19.3126 4.48279 19.18 4.38C19.0502 4.27509 18.9093 4.18456 18.76 4.11C18.402 3.92653 18.0223 3.78878 17.63 3.7C17.5946 3.68105 17.5559 3.66938 17.5159 3.66567C17.476 3.66196 17.4358 3.6663 17.3975 3.67842C17.3593 3.69054 17.3239 3.7102 17.2934 3.73623C17.2629 3.76227 17.2379 3.79415 17.22 3.83C17.1868 3.90228 17.1818 3.98431 17.2058 4.0601C17.2299 4.1359 17.2813 4.20003 17.35 4.24C17.57 4.41 17.8 4.7 18.13 5.01H18.2C18.0407 5.07536 17.8896 5.15927 17.75 5.26C17.5933 5.34837 17.4459 5.45222 17.31 5.57C17.1938 5.70364 17.0901 5.84757 17 6L16.84 6.3C15.8185 5.81827 14.7347 5.48168 13.62 5.3C13.74 5.3 13.72 4.95 13.74 4.87C13.7738 4.75229 13.7972 4.63182 13.81 4.51C13.8344 4.33083 13.8344 4.14918 13.81 3.97C13.7488 3.63153 13.6652 3.29747 13.56 2.97C13.96 2.97 14.37 2.97 14.82 2.9C15.1724 2.88092 15.5152 2.77808 15.82 2.6C15.9715 2.48641 16.0877 2.33212 16.1549 2.15509C16.2222 1.97806 16.2378 1.78556 16.2 1.6C16.1798 1.42257 16.122 1.25146 16.0307 1.09802C15.9393 0.944582 15.8164 0.81232 15.67 0.710003C15.1552 0.429567 14.5851 0.265701 14 0.230003C13.1122 0.0983452 12.2172 0.0215328 11.32 3.47353e-06C10.6907 -0.00102519 10.0634 0.0694264 9.44999 0.210003C9.14659 0.264544 8.84619 0.334637 8.54999 0.420003C8.39162 0.465976 8.24023 0.533258 8.09999 0.620003C7.80345 0.794645 7.56771 1.05614 7.42463 1.36913C7.28155 1.68211 7.23804 2.03149 7.29999 2.37C7.3666 2.61627 7.51674 2.83172 7.7247 2.97948C7.93266 3.12725 8.18552 3.19813 8.43999 3.18L10.25 3C10.248 3.02663 10.248 3.05337 10.25 3.08L10.13 3.48C10.13 3.59 10.07 3.69 10.06 3.8C10.04 3.96942 10.04 4.14059 10.06 4.31C10.0887 4.50608 10.1424 4.69765 10.22 4.88V5.04C9.81147 5.05821 9.40422 5.09827 8.99999 5.16C8.01983 5.30777 7.0785 5.6476 6.22999 6.16L6.13999 5.99C6.05236 5.85034 5.95548 5.71671 5.84999 5.59C5.71136 5.47869 5.56425 5.37838 5.40999 5.29L5.19999 5.19L5.27999 5.13C5.63999 4.8 5.92999 4.42 6.27999 4.01C6.34364 3.96226 6.38572 3.8912 6.39697 3.81243C6.40822 3.73366 6.38772 3.65366 6.33999 3.59C6.29044 3.52569 6.21765 3.48338 6.13724 3.47216C6.05684 3.46094 5.97524 3.48171 5.90999 3.53C5.46999 3.75 5.07999 3.91 4.70999 4.13C4.5453 4.23181 4.38822 4.34544 4.23999 4.47C4.08938 4.59884 3.94584 4.7357 3.80999 4.88C3.51051 5.23111 3.23964 5.60564 2.99999 6C2.93586 6.06543 2.89994 6.15339 2.89994 6.245C2.89994 6.33662 2.93586 6.42458 2.99999 6.49C3.06658 6.55186 3.1541 6.58623 3.24499 6.58623C3.33587 6.58623 3.42339 6.55186 3.48999 6.49C3.85999 6.18 4.21999 5.96 4.53999 5.72C4.47999 5.8 4.70999 6.04 4.72999 6.07C4.81398 6.21601 4.90752 6.35631 5.00999 6.49C5.13798 6.60433 5.2751 6.70801 5.41999 6.8C4.10416 7.8937 3.14629 9.35663 2.66999 11C2.23468 12.4158 2.08739 13.9044 2.23681 15.378C2.38624 16.8517 2.82935 18.2804 3.53999 19.58C4.21237 20.6323 5.09043 21.5379 6.12148 22.2425C7.15252 22.947 8.31529 23.436 9.53999 23.68C11.9204 24.2859 14.4291 24.1498 16.73 23.29C16.7722 23.2744 16.8108 23.2507 16.8437 23.2201C16.8767 23.1895 16.9032 23.1526 16.9218 23.1117C16.9404 23.0708 16.9507 23.0266 16.9521 22.9817C16.9535 22.9368 16.946 22.892 16.93 22.85C16.8945 22.7659 16.8277 22.699 16.7436 22.6635C16.6596 22.628 16.565 22.6268 16.48 22.66C15.2787 23.0953 14.0075 23.3055 12.73 23.28C12.7805 23.0856 12.8205 22.8887 12.85 22.69C12.8594 22.5802 12.8594 22.4698 12.85 22.36C12.8647 22.2505 12.8647 22.1395 12.85 22.03C12.7724 21.7619 12.672 21.501 12.55 21.25C12.5378 21.1723 12.4974 21.1018 12.4365 21.052C12.3756 21.0022 12.2986 20.9766 12.22 20.98C12.1805 20.9838 12.1422 20.9953 12.1072 21.0139C12.0722 21.0326 12.0413 21.058 12.0162 21.0887C11.991 21.1194 11.9723 21.1547 11.9609 21.1927C11.9496 21.2307 11.9458 21.2706 11.95 21.31C11.88 21.62 11.79 21.82 11.75 22.07C11.7397 22.1798 11.7397 22.2902 11.75 22.4C11.75 22.5 11.75 22.61 11.8 22.73C11.8438 22.9061 11.8973 23.0797 11.96 23.25C11.2204 23.1926 10.4874 23.0688 9.76999 22.88C8.61514 22.5841 7.52166 22.0864 6.53999 21.41C6.70999 21.29 6.87999 21.18 7.02999 21.06C7.18458 20.9354 7.32539 20.7946 7.44999 20.64C7.65444 20.3299 7.81591 19.9935 7.92999 19.64C7.95497 19.609 7.9733 19.5732 7.98386 19.5349C7.99441 19.4965 7.99695 19.4564 7.99132 19.417C7.98569 19.3776 7.97202 19.3397 7.95114 19.3059C7.93027 19.272 7.90264 19.2428 7.86999 19.22C7.80757 19.1712 7.72837 19.149 7.64967 19.1584C7.57098 19.1678 7.49919 19.2079 7.44999 19.27C7.20999 19.45 6.95999 19.56 6.71999 19.74C6.60527 19.8163 6.49812 19.9033 6.39999 20C6.31455 20.0955 6.23443 20.1957 6.15999 20.3C6.04999 20.48 5.94999 20.67 5.83999 20.87C5.2544 20.364 4.76342 19.7579 4.38999 19.08C3.71463 17.7821 3.3323 16.3518 3.26999 14.89C3.47999 14.94 3.67999 14.99 3.87999 15.02C4.07924 15.0444 4.28073 15.0444 4.47999 15.02C4.82371 14.9636 5.15943 14.8663 5.47999 14.73C5.51902 14.7275 5.55715 14.7172 5.59208 14.6996C5.62701 14.682 5.65802 14.6575 5.68325 14.6276C5.70847 14.5977 5.72739 14.563 5.73886 14.5256C5.75032 14.4882 5.75411 14.4489 5.74999 14.41C5.74745 14.3706 5.73714 14.332 5.71967 14.2966C5.70219 14.2612 5.67789 14.2295 5.64816 14.2035C5.61842 14.1775 5.58385 14.1576 5.5464 14.145C5.50896 14.1324 5.4694 14.1273 5.42999 14.13C5.12999 14.07 4.87999 13.96 4.57999 13.9C4.45687 13.8897 4.3331 13.8897 4.20999 13.9C4.08351 13.8901 3.95646 13.8901 3.82999 13.9C3.62384 13.9335 3.42009 13.9802 3.21999 14.04C3.25203 13.1023 3.41356 12.1735 3.69999 11.28C4.01398 10.3526 4.49152 9.48901 5.10999 8.73C5.29999 8.97 5.41999 9.21 5.60999 9.45C5.68637 9.54637 5.77362 9.63362 5.86999 9.71C5.96314 9.79671 6.06738 9.87069 6.17999 9.93C6.44152 10.0919 6.71575 10.2324 6.99999 10.35C7.03534 10.3778 7.07586 10.3984 7.11921 10.4104C7.16256 10.4225 7.20787 10.4258 7.25252 10.4203C7.29717 10.4147 7.34026 10.4003 7.37931 10.3779C7.41836 10.3556 7.45258 10.3257 7.47999 10.29C7.53258 10.2164 7.55467 10.1254 7.54162 10.0359C7.52858 9.94643 7.4814 9.86547 7.40999 9.81C7.19999 9.55 7.05999 9.31 6.86999 9.1C6.7445 8.94577 6.60002 8.80801 6.43999 8.69C6.12653 8.49926 5.79063 8.34811 5.43999 8.24C6.44673 7.19453 7.78032 6.52421 9.21999 6.34C10.053 6.20676 10.8971 6.15652 11.74 6.19C11.7364 6.23326 11.7364 6.27674 11.74 6.32C11.7297 6.44312 11.7297 6.56688 11.74 6.69C11.7305 6.81649 11.7305 6.94352 11.74 7.07C11.74 7.35 11.88 7.63 11.97 7.95C11.9777 8.0411 12.0207 8.12558 12.0898 8.18538C12.1589 8.24518 12.2487 8.27555 12.34 8.27C12.4311 8.26234 12.5156 8.21933 12.5754 8.15019C12.6352 8.08105 12.6655 7.99125 12.66 7.9C12.66 7.58 12.8 7.31 12.83 7.03C12.8592 6.83442 12.8592 6.63559 12.83 6.44C12.8346 6.38009 12.8346 6.31991 12.83 6.26C14.5777 6.41777 16.2567 7.01645 17.71 8L17.55 8.1C17.4496 8.17513 17.356 8.25878 17.27 8.35C17.1855 8.44372 17.1085 8.54404 17.04 8.65C16.877 8.9108 16.73 9.1813 16.6 9.46C16.5718 9.4948 16.5506 9.53482 16.5379 9.57778C16.5251 9.62074 16.5209 9.66579 16.5256 9.71036C16.5302 9.75493 16.5436 9.79815 16.5649 9.83755C16.5863 9.87696 16.6152 9.91177 16.65 9.94C16.7203 9.99702 16.8103 10.0238 16.9003 10.0144C16.9449 10.0098 16.9881 9.9964 17.0275 9.97505C17.0669 9.9537 17.1018 9.9248 17.13 9.89C17.39 9.69 17.64 9.56 17.86 9.37C18.0121 9.26111 18.1528 9.13715 18.28 9C18.3539 8.89457 18.4207 8.78432 18.48 8.67C20.0395 10.1711 20.9449 12.2261 21 14.39C20.73 14.33 20.49 14.23 20.21 14.18C20.0869 14.1697 19.9631 14.1697 19.84 14.18C19.7138 14.1652 19.5862 14.1652 19.46 14.18C19.1558 14.2306 18.8552 14.3007 18.56 14.39C18.4689 14.3952 18.3835 14.4357 18.3218 14.5029C18.2602 14.5702 18.2272 14.6588 18.23 14.75C18.2352 14.8411 18.2757 14.9265 18.3429 14.9882C18.4102 15.0498 18.4988 15.0828 18.59 15.08C18.92 15.13 19.19 15.23 19.47 15.26C19.6692 15.2844 19.8707 15.2844 20.07 15.26C20.3905 15.2167 20.7035 15.1292 21 15C21.0103 15.6108 20.9869 16.2218 20.93 16.83C20.8351 17.8561 20.5178 18.8491 20 19.74C19.8405 19.9961 19.6669 20.2432 19.48 20.48C19.4581 20.4344 19.4233 20.3962 19.38 20.37C19.17 20.11 19.03 19.87 18.84 19.66C18.7145 19.5058 18.57 19.368 18.41 19.25C18.0996 19.0535 17.7629 18.902 17.41 18.8C17.3447 18.7517 17.2631 18.7309 17.1827 18.7422C17.1023 18.7534 17.0295 18.7957 16.98 18.86C16.9352 18.9273 16.9175 19.009 16.9305 19.0888C16.9435 19.1685 16.9862 19.2404 17.05 19.29C17.24 19.53 17.36 19.77 17.55 20C17.6235 20.1018 17.711 20.1927 17.81 20.27C17.9057 20.3536 18.0095 20.4273 18.12 20.49C18.3827 20.6499 18.6567 20.7903 18.94 20.91L19.04 20.96C18.6845 21.3318 18.2926 21.6668 17.87 21.96C17.8365 21.9817 17.8076 22.0097 17.785 22.0426C17.7623 22.0754 17.7464 22.1124 17.738 22.1514C17.7296 22.1904 17.729 22.2306 17.7363 22.2699C17.7435 22.3091 17.7583 22.3465 17.78 22.38C17.8017 22.4135 17.8297 22.4424 17.8625 22.465C17.8954 22.4877 17.9323 22.5036 17.9713 22.512C18.0103 22.5203 18.0506 22.5209 18.0898 22.5137C18.1291 22.5065 18.1665 22.4917 18.2 22.47C19.1481 21.8751 19.9511 21.0756 20.55 20.13C21.1384 19.1766 21.5199 18.1103 21.67 17C22.29 12.34 20.91 9.37 18.77 7.55ZM8.16999 2.06C8.19249 1.94064 8.24328 1.8284 8.3181 1.73271C8.39291 1.63701 8.48958 1.56064 8.59999 1.51C8.7058 1.45322 8.82097 1.41596 8.93999 1.4C9.18999 1.4 9.43999 1.33 9.68999 1.29C10.2271 1.18776 10.7733 1.14085 11.32 1.15C12.1763 1.17034 13.0309 1.2371 13.88 1.35C14.2181 1.36685 14.5535 1.4205 14.88 1.51C15.06 1.57 15.26 1.63 15.29 1.82C15.32 2.01 15.29 1.91 15.2 1.93C15.0569 1.97749 14.9095 2.01098 14.76 2.03C14.13 2.12 13.57 2.18 13.02 2.23C11.02 2.4 9.39999 2.36 8.51999 2.36C8.25999 2.34 8.15999 2.21 8.16999 2.06ZM11.03 5.06L11.09 4.85C11.09 4.71 11.16 4.6 11.19 4.46C11.2 4.37363 11.2 4.28638 11.19 4.2C11.1781 3.97184 11.1514 3.74469 11.11 3.52C11.11 2.98 11.11 2.98 12.75 3.02C12.6964 3.29385 12.663 3.57126 12.65 3.85C12.6349 4.02301 12.6349 4.197 12.65 4.37C12.65 4.54 12.74 4.69 12.77 4.85C12.8 5.01 12.77 5.04 12.83 5.17C12.2229 5.09496 11.6117 5.05822 11 5.06H11.03Z" fill="black"/>
<path fill-rule="evenodd" clip-rule="evenodd" d="M10.57 15.05C10.5307 15.3682 10.5878 15.6908 10.734 15.9761C10.8802 16.2614 11.1088 16.4961 11.39 16.65C11.6973 16.762 12.0294 16.7877 12.3503 16.7242C12.6711 16.6607 12.9685 16.5106 13.21 16.29C14.56 15.11 13.21 14 12.85 13.78C12.6763 13.6838 12.4853 13.6228 12.2879 13.6005C12.0906 13.5781 11.8908 13.595 11.7 13.65C11.51 13.23 11.34 12.82 11.14 12.43C11.03 12.22 10.91 12.03 10.79 11.84C10.67 11.65 10.52 11.46 10.38 11.29C10.037 10.8626 9.66972 10.4553 9.27999 10.07C9.22631 9.99927 9.14708 9.95235 9.05925 9.93927C8.97142 9.92618 8.88196 9.94798 8.81 10C8.77355 10.0267 8.74279 10.0603 8.7195 10.099C8.6962 10.1377 8.68085 10.1806 8.67434 10.2253C8.66782 10.27 8.67027 10.3155 8.68154 10.3593C8.69282 10.403 8.71269 10.444 8.73999 10.48C8.96999 10.88 9.18999 11.36 9.47999 11.88C9.57979 12.0842 9.69339 12.2813 9.81999 12.47C9.94089 12.6652 10.0745 12.8523 10.22 13.03C10.48 13.36 10.78 13.67 11.09 14.03C10.8005 14.297 10.616 14.6588 10.57 15.05ZM12.52 14.49C12.86 14.6 13.52 15.05 12.67 15.57C12.5631 15.6523 12.4355 15.7033 12.3013 15.7174C12.1671 15.7315 12.0317 15.7082 11.91 15.65C11.73 15.56 11.7 15.33 11.71 15.13C11.72 14.93 11.71 14.67 11.97 14.59C12.0474 14.5314 12.1376 14.4919 12.2331 14.4745C12.3286 14.4571 12.4269 14.4624 12.52 14.49Z" fill="black"/>
</g>
<defs>
<clipPath id="clip0_1030_2765">
<rect width="24" height="24" fill="white"/>
</clipPath>
</defs>
</svg>
