<svg width="24" height="24" viewBox="0 0 24 24" fill="none" xmlns="http://www.w3.org/2000/svg">
<g clip-path="url(#clip0_1052_9309)">
<path fill-rule="evenodd" clip-rule="evenodd" d="M23.68 0.240024C23.6366 0.238691 23.5935 0.245912 23.5529 0.261276C23.5124 0.276639 23.4752 0.299844 23.4437 0.329562C23.4121 0.359281 23.3867 0.394931 23.3689 0.434475C23.3511 0.474019 23.3413 0.516682 23.34 0.560024L22.99 5.56002C22.9756 6.0465 22.9051 6.52969 22.78 7.00002C22.7069 7.26593 22.5696 7.50977 22.38 7.71002C22.1764 7.88656 21.9266 8.00107 21.66 8.04002C21.14 8.14002 20.56 8.12002 20.11 8.17002C19.88 8.17002 19.65 8.17002 19.42 8.22002V5.92002C19.42 5.55002 19.42 5.17002 19.37 4.79002C19.32 4.41002 19.37 4.28002 19.29 4.02002C19.21 3.76002 19.21 3.58002 19.15 3.37002C19.0916 3.14858 19.0181 2.9314 18.93 2.72002C18.6935 2.12503 18.2394 1.64235 17.66 1.37002C16.57 0.800024 15.09 1.00002 13.91 0.740024C13.2491 0.632093 12.5793 0.588555 11.91 0.610024C11.2398 0.635306 10.5719 0.702101 9.90999 0.810024C8.6435 0.917508 7.38877 1.135 6.15999 1.46002C5.55636 1.63399 5.0173 1.98178 4.60999 2.46002C4.44106 2.70108 4.33142 2.9786 4.28999 3.27002C4.24442 3.80238 4.24442 4.33766 4.28999 4.87002C4.28999 5.66002 4.38999 6.44002 4.47999 7.21002C4.54999 7.80002 4.63999 8.39002 4.72999 8.98002H4.53999C3.81121 9.00328 3.0818 8.96313 2.35999 8.86002C1.93626 8.80176 1.53762 8.62497 1.20999 8.35002C1.07717 8.15519 1.00418 7.92579 0.999986 7.69002C0.889986 7.10002 0.909986 6.44002 0.879986 6.17002C0.789986 5.20002 0.689986 4.23002 0.649986 3.26002C0.615043 2.61717 0.615043 1.97288 0.649986 1.33002C0.657114 1.29247 0.656475 1.25385 0.648109 1.21654C0.639743 1.17924 0.623827 1.14405 0.601342 1.11313C0.578857 1.08221 0.550278 1.05623 0.517368 1.03677C0.484458 1.01732 0.447913 1.00482 0.409986 1.00002C0.371866 0.995875 0.333302 0.999326 0.296526 1.01018C0.259749 1.02103 0.22549 1.03907 0.19573 1.06325C0.16597 1.08743 0.141301 1.11727 0.12315 1.15105C0.104999 1.18482 0.093727 1.22186 0.0899856 1.26002C0.0247288 1.92464 -0.00531323 2.59224 -1.4447e-05 3.26002C-1.4447e-05 4.26002 0.0699855 5.26002 0.129986 6.26002C0.115179 6.86423 0.138559 7.46877 0.199986 8.07002C0.248975 8.41358 0.394638 8.73612 0.619986 9.00002C1.05305 9.39492 1.58539 9.66455 2.15999 9.78002C2.93104 9.9288 3.71471 10.0025 4.49999 10C5.74999 10.06 6.98999 10.05 8.22999 10C10.07 9.91002 11.91 9.72002 13.75 9.58002C15.26 9.45002 16.75 9.41002 18.27 9.30002C18.92 9.30002 19.57 9.18002 20.22 9.10002C20.871 9.06425 21.5172 8.96715 22.15 8.81002C22.4747 8.70547 22.7673 8.51958 23 8.27002C23.2789 7.96302 23.4781 7.59213 23.58 7.19002C23.7062 6.65905 23.7733 6.11575 23.78 5.57002L23.98 0.570024C23.9803 0.487461 23.9497 0.407768 23.8942 0.346676C23.8386 0.285583 23.7622 0.247529 23.68 0.240024ZM5.16999 3.63002C5.18288 3.42361 5.25588 3.22547 5.37999 3.06002C5.82232 2.63631 6.39139 2.36934 6.99999 2.30002C8.08999 2.06002 9.32999 2.03002 10.13 1.91002C10.736 1.81444 11.347 1.75433 11.96 1.73002C12.5612 1.69641 13.1642 1.72321 13.76 1.81002C14.71 1.95002 15.87 1.81002 16.83 2.05002C17.1074 2.1032 17.3681 2.22162 17.5907 2.39551C17.8133 2.56939 17.9913 2.79374 18.11 3.05002C18.1913 3.2208 18.2582 3.39809 18.31 3.58002C18.3672 3.76389 18.4139 3.95086 18.45 4.14002V4.50002C16.3 4.58002 14.12 4.68002 11.95 4.83002C11.24 4.83002 10.52 4.93002 9.79999 4.99002C9.07999 5.05002 8.36999 5.13002 7.65999 5.17002C6.94999 5.21002 5.99999 5.22002 5.15999 5.22002V4.89002C5.15999 4.53002 5.11999 4.06002 5.16999 3.63002ZM18.17 8.27002C16.66 8.34002 15.17 8.36002 13.64 8.46002C11.8 8.60002 9.96999 8.78002 8.13999 8.89002C7.23999 9.00002 6.31999 9.00002 5.37999 9.00002C5.31999 8.39002 5.24999 7.78002 5.20999 7.18002C5.16999 6.58002 5.20999 6.29002 5.20999 5.84002C6.93428 6.0121 8.66836 6.06556 10.4 6.00002C11.48 6.00002 12.57 5.85002 13.65 5.73002C15.27 5.55002 16.88 5.30002 18.49 5.12002H18.54L18.63 5.91002L18.76 8.22002L18.17 8.27002Z" fill="black"/>
<path fill-rule="evenodd" clip-rule="evenodd" d="M18.36 14.64C18.0959 14.5267 17.8015 14.5055 17.5239 14.5799C17.2464 14.6542 17.002 14.8198 16.83 15.05C16.5056 15.4691 16.3079 15.9722 16.26 16.5C16.2101 17.1423 16.2101 17.7876 16.26 18.43C16.1259 18.3457 15.9756 18.2906 15.8188 18.2683C15.662 18.2459 15.5023 18.2567 15.35 18.3C14.9787 18.4505 14.6784 18.7364 14.51 19.1C14.3698 19.3525 14.3171 19.6443 14.36 19.93C14.4191 20.2767 14.5268 20.6133 14.68 20.93C14.8644 21.3638 15.0714 21.7877 15.3 22.2C15.5259 22.6135 15.7798 23.0111 16.06 23.39C16.0823 23.4215 16.1106 23.4483 16.1433 23.4689C16.176 23.4894 16.2124 23.5034 16.2505 23.5099C16.2885 23.5164 16.3275 23.5153 16.3652 23.5068C16.4028 23.4982 16.4385 23.4823 16.47 23.46C16.5015 23.4376 16.5283 23.4093 16.5489 23.3766C16.5694 23.344 16.5834 23.3075 16.5899 23.2695C16.5964 23.2314 16.5953 23.1924 16.5868 23.1548C16.5782 23.1171 16.5623 23.0815 16.54 23.05C16.2965 22.679 16.0793 22.2913 15.89 21.89C15.6993 21.4867 15.5323 21.0727 15.39 20.65C15.3083 20.4382 15.2414 20.221 15.19 20C15.1631 19.8528 15.1879 19.701 15.26 19.57C15.3338 19.4382 15.4406 19.3279 15.57 19.25C15.63 19.25 15.69 19.25 15.76 19.3L16.16 19.68C16.21 19.73 16.27 19.86 16.31 19.91C16.3764 19.9928 16.4675 20.0523 16.57 20.08C16.6429 20.1053 16.7207 20.1131 16.7972 20.1027C16.8736 20.0922 16.9465 20.0639 17.01 20.02C17.0735 19.9807 17.1278 19.9282 17.1692 19.8661C17.2106 19.804 17.2382 19.7337 17.25 19.66C17.41 18.83 17.25 17.66 17.33 16.66C17.3586 16.3408 17.4688 16.0343 17.65 15.77C17.6902 15.7242 17.7446 15.6934 17.8045 15.6825C17.8644 15.6716 17.9263 15.6813 17.98 15.71C18.142 15.772 18.2964 15.8526 18.44 15.95C18.8787 16.2531 19.2813 16.6054 19.64 17C20.2674 17.711 20.6218 18.6218 20.64 19.57C20.6396 20.5652 20.4212 21.5483 20 22.45C19.9628 22.5295 19.9588 22.6206 19.9888 22.7031C20.0188 22.7856 20.0804 22.8528 20.16 22.89C20.2395 22.9271 20.3306 22.9311 20.4131 22.9011C20.4956 22.8711 20.5628 22.8095 20.6 22.73C21.1096 21.7515 21.3964 20.6724 21.44 19.57C21.4813 18.4077 21.1052 17.2691 20.38 16.36C19.847 15.6397 19.1559 15.0513 18.36 14.64Z" fill="black"/>
<path fill-rule="evenodd" clip-rule="evenodd" d="M9.09999 18.5601C8.83137 18.5256 8.55841 18.5547 8.30309 18.6451C8.04777 18.7354 7.81722 18.8844 7.62999 19.0801C7.62999 18.9201 7.56999 18.7501 7.53999 18.5801C7.44999 17.8501 7.44999 17.0501 7.36999 16.5001C7.3337 16.1373 7.24964 15.7809 7.11999 15.4401C7.02066 15.2027 6.84461 15.0055 6.61999 14.8801C6.43262 14.7838 6.22686 14.7287 6.01647 14.7183C5.80608 14.708 5.59591 14.7427 5.39999 14.8201C4.5836 15.2056 3.89251 15.8136 3.40607 16.5742C2.91963 17.3349 2.65757 18.2172 2.64999 19.1201C2.73908 20.6353 3.19185 22.1068 3.96999 23.4101C3.98902 23.4488 4.01567 23.4832 4.04835 23.5114C4.08103 23.5395 4.11906 23.5608 4.16015 23.5739C4.20125 23.5869 4.24457 23.5916 4.2875 23.5875C4.33044 23.5834 4.3721 23.5707 4.40999 23.5501C4.44956 23.532 4.48501 23.506 4.51419 23.4737C4.54337 23.4414 4.56566 23.4035 4.5797 23.3624C4.59374 23.3212 4.59923 23.2776 4.59584 23.2342C4.59246 23.1908 4.58026 23.1486 4.55999 23.1101C3.91532 21.8745 3.57262 20.5037 3.55999 19.1101C3.60887 18.2459 3.9633 17.4271 4.55999 16.8001C4.8213 16.4957 5.12429 16.2297 5.45999 16.0101C5.68999 15.8601 5.92999 15.7101 6.14999 15.8301C6.36999 15.9501 6.21999 16.0201 6.24999 16.1401C6.27999 16.2601 6.24999 16.5101 6.31999 16.6501C6.42999 17.2901 6.40999 18.2901 6.59999 19.0901C6.6929 19.5173 6.88855 19.9155 7.16999 20.2501C7.21945 20.3082 7.28067 20.3552 7.34962 20.388C7.41857 20.4207 7.49368 20.4385 7.56999 20.4401C7.98999 20.4401 8.08999 20.0801 8.39999 19.7201C8.70999 19.3601 8.82999 19.3501 9.01999 19.3801C9.20999 19.4101 9.18999 19.5701 9.15999 19.8301L9.02999 20.4801L8.70999 21.6601L7.99999 23.3401C7.96794 23.4094 7.96354 23.4884 7.98769 23.5608C8.01185 23.6333 8.06274 23.6938 8.12999 23.7301C8.16472 23.7469 8.20246 23.7566 8.241 23.7587C8.27954 23.7607 8.31809 23.7551 8.35442 23.742C8.39074 23.729 8.42409 23.7088 8.45252 23.6827C8.48096 23.6566 8.50389 23.6251 8.51999 23.5901L9.26999 22.0001L9.68999 20.8001L9.88999 20.0501C9.99999 19.1101 9.60999 18.6701 9.09999 18.5601Z" fill="black"/>
<path fill-rule="evenodd" clip-rule="evenodd" d="M8.80998 10.93C8.7544 10.8779 8.68111 10.849 8.60498 10.849C8.52885 10.849 8.45556 10.8779 8.39998 10.93C8.17066 11.1225 7.99958 11.3752 7.90596 11.6596C7.81233 11.944 7.79987 12.2489 7.86998 12.54C7.90208 12.7397 7.9592 12.9345 8.03998 13.12C8.13989 13.3631 8.26033 13.5973 8.39998 13.82C8.65998 14.27 8.99998 14.66 8.67998 15.16C8.62687 15.2307 8.60343 15.3194 8.61463 15.4071C8.62583 15.4949 8.6708 15.5748 8.73998 15.63C8.80789 15.6836 8.89417 15.7084 8.98021 15.6991C9.06626 15.6897 9.14518 15.647 9.19998 15.58C9.34592 15.4364 9.46177 15.2652 9.54075 15.0763C9.61974 14.8874 9.66027 14.6847 9.65998 14.48C9.66082 14.1099 9.57882 13.7443 9.41998 13.41C9.29998 13.13 9.14998 12.86 9.00998 12.6C8.77998 12.19 8.52998 11.8 8.84998 11.31C8.88672 11.2513 8.90274 11.1819 8.89549 11.1131C8.88824 11.0442 8.85814 10.9797 8.80998 10.93Z" fill="black"/>
<path fill-rule="evenodd" clip-rule="evenodd" d="M12.56 13.2501C12.426 13.0139 12.3058 12.7701 12.2 12.5201C12.0804 12.2922 12.0218 12.0373 12.03 11.7801C12.0395 11.4722 12.1004 11.168 12.21 10.8801C12.2289 10.8469 12.2408 10.8101 12.245 10.7721C12.2492 10.7341 12.2456 10.6957 12.2343 10.6591C12.2231 10.6226 12.2045 10.5887 12.1796 10.5597C12.1548 10.5306 12.1243 10.5069 12.09 10.4901C12.0568 10.4712 12.02 10.4592 11.982 10.4551C11.944 10.4509 11.9056 10.4545 11.869 10.4658C11.8325 10.477 11.7986 10.4956 11.7696 10.5204C11.7405 10.5452 11.7168 10.5758 11.7 10.6101C11.4154 10.9818 11.2173 11.4122 11.12 11.8701C11.0498 12.1997 11.0498 12.5404 11.12 12.8701C11.2383 13.1768 11.3856 13.4714 11.56 13.7501C11.7148 13.9598 11.8488 14.1842 11.96 14.4201C12.0158 14.5517 12.0395 14.6947 12.0291 14.8373C12.0187 14.9799 11.9744 15.118 11.9 15.2401C11.8703 15.2745 11.848 15.3147 11.8346 15.3582C11.8212 15.4017 11.8169 15.4474 11.822 15.4926C11.8271 15.5378 11.8414 15.5815 11.8642 15.6208C11.887 15.6602 11.9177 15.6945 11.9543 15.7214C11.9909 15.7484 12.0327 15.7675 12.0771 15.7775C12.1215 15.7875 12.1674 15.7883 12.2121 15.7797C12.2568 15.7711 12.2992 15.7534 12.3367 15.7277C12.3742 15.7019 12.4059 15.6687 12.43 15.6301C12.6126 15.4426 12.7472 15.2137 12.8221 14.963C12.897 14.7122 12.91 14.447 12.86 14.1901C12.8061 13.8639 12.705 13.5472 12.56 13.2501Z" fill="black"/>
<path fill-rule="evenodd" clip-rule="evenodd" d="M15.36 10.3901C15.3056 10.3357 15.2319 10.3052 15.155 10.3052C15.0781 10.3052 15.0044 10.3357 14.95 10.3901C14.7287 10.5595 14.5539 10.7823 14.442 11.0376C14.3301 11.2929 14.2847 11.5724 14.31 11.8501C14.3283 12.1632 14.41 12.4694 14.55 12.7501C14.7 13.0801 14.94 13.3901 15.1 13.7501C15.2579 13.9739 15.3638 14.2301 15.41 14.5001C15.4218 14.566 15.4179 14.6338 15.3988 14.6981C15.3797 14.7623 15.3459 14.8212 15.3 14.8701C15.2689 14.9008 15.2441 14.9373 15.2272 14.9777C15.2104 15.018 15.2017 15.0613 15.2017 15.1051C15.2017 15.1488 15.2104 15.1921 15.2272 15.2324C15.2441 15.2728 15.2689 15.3094 15.3 15.3401C15.3633 15.4006 15.4474 15.4343 15.535 15.4343C15.6225 15.4343 15.7067 15.4006 15.77 15.3401C15.9061 15.247 16.0204 15.1254 16.105 14.9839C16.1896 14.8423 16.2425 14.684 16.26 14.5201C16.3035 14.1065 16.2487 13.6884 16.1 13.3001C15.9542 12.9356 15.7838 12.5814 15.59 12.2401C15.4059 12.0109 15.2821 11.7393 15.23 11.4501C15.2132 11.202 15.2801 10.9555 15.42 10.7501C15.4527 10.6923 15.4646 10.625 15.4537 10.5594C15.4428 10.4939 15.4097 10.4341 15.36 10.3901Z" fill="black"/>
</g>
<defs>
<clipPath id="clip0_1052_9309">
<rect width="24" height="24" fill="white"/>
</clipPath>
</defs>
</svg>
