<svg width="24" height="24" viewBox="0 0 24 24" fill="none" xmlns="http://www.w3.org/2000/svg">
<g clip-path="url(#clip0_1030_2773)">
<path fill-rule="evenodd" clip-rule="evenodd" d="M20.22 14.25C20.1518 12.7794 20.0016 11.3138 19.77 9.86C19.7577 9.78195 19.715 9.71191 19.6514 9.6651C19.5877 9.6183 19.5082 9.59849 19.43 9.61C19.3921 9.61479 19.3555 9.62729 19.3226 9.64675C19.2897 9.6662 19.2611 9.69218 19.2386 9.7231C19.2162 9.75402 19.2002 9.78921 19.1919 9.82651C19.1835 9.86382 19.1829 9.90244 19.19 9.94C19.381 11.3794 19.4911 12.8283 19.52 14.28C19.5558 15.725 19.5057 17.1709 19.37 18.61C19.3226 19.428 19.1506 20.2339 18.86 21C18.6847 21.4497 18.3867 21.8412 18 22.13C17.0186 22.6688 15.9195 22.9573 14.8 22.97C12.91 23.11 10.8 22.97 9.45 22.97C8.16455 23.049 6.87545 23.049 5.59 22.97C4.81965 22.9102 4.07193 22.6815 3.4 22.3C3.56 22.18 3.24 21.68 3.19 21.3C3.14 20.72 3.11 20.13 3.1 19.93C2.95973 18.3742 2.91965 16.811 2.98 15.25C2.98 13.67 3.17 12.1 3.37 10.55C5.28419 10.164 7.228 9.94319 9.18 9.89C10.44 9.83 11.72 9.81 12.99 9.81C14.99 9.81 16.9 9.87 18.74 9.99C18.8089 9.97725 18.8712 9.94077 18.9161 9.88688C18.9609 9.83299 18.9855 9.7651 18.9855 9.695C18.9855 9.62489 18.9609 9.557 18.9161 9.50311C18.8712 9.44923 18.8089 9.41274 18.74 9.4C16.9 9.05 15 8.82 13 8.74C11.7076 8.66996 10.4124 8.66996 9.12 8.74C8.73 8.74 8.36 8.85 7.98 8.89C7.9141 7.78103 8.06701 6.66994 8.43 5.62C8.62198 5.07265 8.9307 4.57361 9.33476 4.15746C9.73882 3.74131 10.2285 3.41802 10.77 3.21C11.0903 3.07526 11.4263 2.9812 11.77 2.93C12.1004 2.86749 12.4396 2.86749 12.77 2.93C13.2114 3.01242 13.6087 3.25009 13.89 3.6C14.1426 4.03328 14.3185 4.5069 14.41 5C14.4185 5.05058 14.4369 5.099 14.4641 5.14247C14.4913 5.18594 14.5268 5.22362 14.5686 5.25335C14.6104 5.28307 14.6577 5.30426 14.7077 5.31569C14.7577 5.32713 14.8094 5.32859 14.86 5.32C14.99 5.32 15.19 5.18 15.32 5.17C16.53 5.17 17.54 5.5 16.85 3.31C16.6399 2.5981 16.2628 1.94669 15.75 1.41C15.1849 0.913683 14.5275 0.533679 13.8154 0.291734C13.1033 0.049788 12.3505 -0.0493491 11.6 -3.66103e-06C10.0957 0.00646202 8.63346 0.497375 7.43 1.4C6.49781 2.19992 5.84313 3.27471 5.56 4.47C5.2803 6.05535 5.32111 7.68068 5.68 9.25C4.6658 9.44354 3.66402 9.69732 2.68 10.01C2.6156 10.0307 2.56182 10.0758 2.53007 10.1355C2.49833 10.1953 2.49113 10.265 2.51 10.33C2.52615 10.3846 2.56116 10.4316 2.60879 10.4627C2.65641 10.4939 2.71354 10.5071 2.77 10.5C2.54 12.01 2.36 13.55 2.26 15.09C2.15503 16.6849 2.15503 18.2851 2.26 19.88C2.26412 20.6254 2.31086 21.3699 2.4 22.11C2.43261 22.4032 2.56709 22.6757 2.78 22.88C3.57059 23.4105 4.48185 23.7337 5.43 23.82C6.75987 23.9385 8.09614 23.9685 9.43 23.91C11.5456 24.0458 13.6685 24.019 15.78 23.83C16.7477 23.7072 17.6745 23.3652 18.49 22.83C19.0282 22.4436 19.4419 21.9083 19.68 21.29C19.9859 20.4383 20.1579 19.5444 20.19 18.64C20.2788 17.1783 20.2888 15.7128 20.22 14.25ZM6.36 4.68C6.64264 3.67708 7.23825 2.79067 8.06 2.15C9.10401 1.40231 10.3559 1.00017 11.64 0.999996C12.915 0.852905 14.1969 1.21197 15.21 2C15.6695 2.41944 16.0137 2.94964 16.21 3.54C16.3151 3.86615 16.392 4.20071 16.44 4.54H15.31H15C14.8754 3.93674 14.604 3.37348 14.21 2.9C13.8601 2.51813 13.4038 2.24991 12.9 2.13C12.4789 2.0045 12.0377 1.96038 11.6 2C11.1749 2.05455 10.7584 2.16205 10.36 2.32C9.2868 2.75564 8.41125 3.57069 7.9 4.61C7.3208 5.99641 7.1474 7.51885 7.4 9C7 9.06 6.6 9.09 6.21 9.16C5.9587 7.67174 6.00972 6.14811 6.36 4.68Z" fill="black"/>
<path fill-rule="evenodd" clip-rule="evenodd" d="M13.25 20.75C13.7636 20.636 14.2461 20.4114 14.6641 20.0919C15.082 19.7724 15.4253 19.3657 15.67 18.9C16.2216 18.0008 16.4802 16.9525 16.41 15.9C16.294 14.466 15.6615 13.1229 14.63 12.12C14.0704 11.6341 13.4022 11.2897 12.6818 11.1157C11.9614 10.9417 11.2097 10.9432 10.49 11.12C9.94279 11.2413 9.42506 11.47 8.96676 11.7926C8.50847 12.1153 8.1187 12.5257 7.82001 13C7.23583 13.8981 6.89155 14.931 6.82001 16C6.62001 18.22 7.57001 20.44 9.99001 20.86C10.346 20.9265 10.7094 20.9433 11.07 20.91C11.4079 20.8738 11.7424 20.8102 12.07 20.72C12.1072 20.7129 12.1426 20.6984 12.174 20.6772C12.2054 20.6561 12.2322 20.6288 12.2527 20.597C12.2733 20.5653 12.2872 20.5296 12.2936 20.4923C12.3 20.455 12.2988 20.4168 12.29 20.38C12.2829 20.3428 12.2684 20.3074 12.2473 20.276C12.2261 20.2446 12.1988 20.2178 12.1671 20.1973C12.1353 20.1767 12.0997 20.1628 12.0624 20.1564C12.025 20.15 11.9868 20.1512 11.95 20.16C11.6409 20.2282 11.3263 20.2684 11.01 20.28C10.7044 20.2977 10.3978 20.2707 10.1 20.2C8.16001 19.76 7.53001 17.9 7.77001 16.11C7.90207 15.225 8.24505 14.3847 8.77001 13.66C9.23431 12.9579 9.95007 12.4604 10.77 12.27C11.3263 12.1265 11.9086 12.116 12.4698 12.2394C13.0309 12.3627 13.5551 12.6164 14 12.98C14.886 13.7977 15.453 14.9033 15.6 16.1C15.6452 16.9484 15.4363 17.791 15 18.52C14.8246 18.9035 14.567 19.2437 14.2456 19.5168C13.9242 19.7898 13.5468 19.9889 13.14 20.1C13.0978 20.1061 13.0572 20.1205 13.0206 20.1425C12.984 20.1645 12.9522 20.1936 12.9271 20.2281C12.9019 20.2626 12.8839 20.3017 12.8741 20.3433C12.8643 20.3848 12.8629 20.4279 12.87 20.47C12.8848 20.5568 12.9326 20.6345 13.0035 20.6867C13.0744 20.7389 13.1627 20.7616 13.25 20.75Z" fill="black"/>
<path fill-rule="evenodd" clip-rule="evenodd" d="M12.56 18.74C12.9527 18.7396 13.3336 18.6056 13.64 18.36C13.7766 18.2579 13.8979 18.1366 14 18C14.0924 17.8817 14.1666 17.7503 14.22 17.61C14.3303 17.2877 14.391 16.9505 14.4 16.61C14.4219 16.5371 14.4143 16.4584 14.3788 16.3911C14.3432 16.3237 14.2826 16.273 14.21 16.25C14.1739 16.2377 14.1357 16.2329 14.0977 16.2359C14.0597 16.2389 14.0228 16.2496 13.9891 16.2674C13.9554 16.2852 13.9256 16.3097 13.9017 16.3394C13.8778 16.369 13.8602 16.4033 13.85 16.44C13.69 16.69 13.45 16.9 13.24 17.17C13.15 17.28 13.07 17.4 12.99 17.51C12.9249 17.6252 12.8513 17.7355 12.77 17.84C12.6835 17.9397 12.5782 18.0212 12.46 18.08C12.4127 18.0826 12.3665 18.0954 12.3246 18.1174C12.2827 18.1395 12.246 18.1703 12.2171 18.2078C12.1881 18.2453 12.1676 18.2886 12.1568 18.3347C12.1461 18.3809 12.1454 18.4288 12.1549 18.4752C12.1643 18.5216 12.1836 18.5654 12.2115 18.6037C12.2394 18.642 12.2752 18.6739 12.3164 18.6971C12.3577 18.7203 12.4035 18.7344 12.4507 18.7383C12.4979 18.7423 12.5454 18.736 12.59 18.72L12.56 18.74Z" fill="black"/>
<path fill-rule="evenodd" clip-rule="evenodd" d="M12.52 14.38C12.88 14.56 13.2 14.82 13.19 15.21C13.1873 15.2533 13.1931 15.2968 13.2073 15.3379C13.2214 15.379 13.2435 15.4168 13.2723 15.4494C13.3011 15.4819 13.336 15.5084 13.3751 15.5274C13.4142 15.5464 13.4566 15.5574 13.5 15.56C13.5433 15.5627 13.5868 15.5568 13.6279 15.5427C13.6689 15.5286 13.7068 15.5065 13.7393 15.4777C13.7719 15.4489 13.7984 15.4139 13.8174 15.3749C13.8363 15.3358 13.8474 15.2934 13.85 15.25C13.8629 14.9238 13.7822 14.6008 13.6174 14.3191C13.4526 14.0373 13.2106 13.8086 12.92 13.66C12.3857 13.3105 11.7408 13.1716 11.11 13.27C10.4718 13.4055 9.89523 13.7453 9.46756 14.2379C9.03989 14.7305 8.78446 15.3491 8.73997 16C8.67767 16.6345 8.84532 17.2703 9.21241 17.7915C9.57949 18.3128 10.1216 18.6849 10.74 18.84C10.7761 18.8525 10.8143 18.8577 10.8524 18.8554C10.8906 18.8531 10.9279 18.8433 10.9623 18.8266C10.9966 18.8099 11.0273 18.7866 11.0527 18.758C11.078 18.7294 11.0975 18.6961 11.11 18.66C11.1224 18.6239 11.1277 18.5857 11.1254 18.5475C11.1231 18.5094 11.1133 18.4721 11.0966 18.4377C11.0799 18.4034 11.0566 18.3726 11.028 18.3473C10.9994 18.3219 10.9661 18.3025 10.93 18.29C10.5131 18.1156 10.1675 17.8052 9.94964 17.4094C9.73173 17.0135 9.6543 16.5555 9.72997 16.11C9.82074 15.6949 10.021 15.3116 10.31 15C10.5866 14.6607 10.9544 14.4075 11.37 14.27C11.7544 14.1713 12.1612 14.2102 12.52 14.38Z" fill="black"/>
<path fill-rule="evenodd" clip-rule="evenodd" d="M11.37 15C11.11 15 10.85 15.67 10.8 15.83C10.7902 15.913 10.7902 15.9969 10.8 16.08C10.7848 16.1626 10.7848 16.2474 10.8 16.33C11 17.18 11.17 17.21 11.33 17.21C11.49 17.21 11.63 17.21 11.83 16.32C11.8443 16.244 11.8443 16.166 11.83 16.09C11.8349 16.0101 11.8349 15.9299 11.83 15.85C11.62 14.93 11.46 15 11.37 15Z" fill="black"/>
<path d="M18.69 6.33999C19.23 7.57999 21.69 7.84999 21.79 6.89999C21.89 5.94999 21.39 5.64999 20.68 5.74999C19.9942 5.86072 19.3254 6.05901 18.69 6.33999Z" fill="black"/>
<path d="M18.31 4.71999C19.23 4.86999 20.31 3.16999 19.87 2.63999C19.43 2.10999 19 2.38999 18.78 2.99999C18.5675 3.55658 18.41 4.13267 18.31 4.71999Z" fill="black"/>
</g>
<defs>
<clipPath id="clip0_1030_2773">
<rect width="24" height="24" fill="white"/>
</clipPath>
</defs>
</svg>
