<svg width="24" height="24" viewBox="0 0 24 24" fill="none" xmlns="http://www.w3.org/2000/svg">
<g clip-path="url(#clip0_1048_7271)">
<path fill-rule="evenodd" clip-rule="evenodd" d="M13.58 15.11C13.4898 15.11 13.4034 15.0742 13.3396 15.0104C13.2758 14.9466 13.24 14.8602 13.24 14.77C13.1995 14.0739 13.1995 13.3761 13.24 12.68C13.35 12.18 13.36 11.6 13.79 11.68C13.8731 11.6898 13.9496 11.73 14.005 11.7927C14.0603 11.8554 14.0906 11.9363 14.09 12.02C14.3533 12.7455 14.3882 13.5341 14.19 14.28C14.1867 14.4627 14.1598 14.6442 14.11 14.82C14 15 13.86 15.16 13.58 15.11Z" fill="black"/>
<path fill-rule="evenodd" clip-rule="evenodd" d="M13.43 19.45C13.3398 19.45 13.2534 19.4142 13.1896 19.3504C13.1258 19.2867 13.09 19.2002 13.09 19.11C13.0227 18.2078 13.1141 17.3007 13.36 16.43C13.4185 16.362 13.5008 16.3191 13.59 16.31C13.74 16.24 13.97 16.31 14.07 16.73C14.1559 16.965 14.2098 17.2106 14.23 17.46C14.28 18.05 14 19.55 13.43 19.45Z" fill="black"/>
<path fill-rule="evenodd" clip-rule="evenodd" d="M8.31 9.35003C8.56 9.51003 8.42 9.89003 8.31 9.89003C7.19097 10.1585 6.03941 10.2663 4.89 10.21C4.82649 10.1463 4.79083 10.06 4.79083 9.97003C4.79083 9.88006 4.82649 9.79376 4.89 9.73003C5.43 8.86003 8.21 9.25003 8.31 9.35003Z" fill="black"/>
<path fill-rule="evenodd" clip-rule="evenodd" d="M0.350007 9.48997C1.30001 8.99997 2.11001 9.40997 3.00001 9.40997C3.33665 9.37017 3.67792 9.40429 4.00001 9.50997C4.06434 9.54591 4.11321 9.60427 4.13727 9.67392C4.16134 9.74357 4.15893 9.81964 4.13049 9.88763C4.10206 9.95562 4.0496 10.0108 3.98312 10.0426C3.91663 10.0743 3.84077 10.0805 3.77001 10.06C2.01001 10.4 1.35001 10.32 0.950006 10.47C0.950006 10.55 1.18001 12.96 0.950006 13.2C0.720006 13.44 0.410007 13.33 0.260007 12.77C0.19279 12.3903 0.159326 12.0055 0.160007 11.62C0.0900065 10.8 -0.249994 9.80997 0.350007 9.48997Z" fill="black"/>
<path fill-rule="evenodd" clip-rule="evenodd" d="M0.820007 14.23C1.04001 14.23 1.32001 15.12 1.36001 15.34C1.46001 15.86 1.08001 17.16 0.660007 17.07C0.569834 17.07 0.483353 17.0342 0.419591 16.9704C0.355829 16.9067 0.320007 16.8202 0.320007 16.73C0.320007 16.34 0.440007 14.73 0.480007 14.48C0.484814 14.4408 0.497588 14.403 0.517545 14.3688C0.537502 14.3347 0.564221 14.3051 0.596061 14.2816C0.627901 14.2582 0.664191 14.2416 0.702701 14.2327C0.741212 14.2238 0.781131 14.2229 0.820007 14.23Z" fill="black"/>
<path fill-rule="evenodd" clip-rule="evenodd" d="M15.22 7.75C15.1565 7.80933 15.0726 7.84207 14.9857 7.84149C14.8987 7.84091 14.8153 7.80705 14.7526 7.74687C14.6899 7.68669 14.6526 7.60477 14.6484 7.51793C14.6442 7.4311 14.6734 7.34596 14.73 7.28C15.59 6.36 17.1 6.06 18.05 5.48C18.28 5.34 18.44 5.21 18.69 5.03C18.49 5.03 18.08 5.03 17.93 5.11C16.67 5.38 4.39001 5.64 5.49001 5C5.07001 4.74 5.63001 4.57 9.56001 4.45C14.02 3.82 16.01 4.61 17.83 4.45H18.52C18.3921 4.27038 18.2518 4.09996 18.1 3.94C16.77 2.53 14.75 1.28 14.69 0.940001C14.6704 0.873763 14.6692 0.803422 14.6865 0.736546C14.7038 0.669669 14.7391 0.608788 14.7885 0.560451C14.8378 0.512114 14.8994 0.478151 14.9667 0.462213C15.0339 0.446276 15.1042 0.448969 15.17 0.470001C15.7472 0.790267 16.2901 1.16892 16.79 1.6C17.5231 2.05568 18.2247 2.56016 18.89 3.11C19.62 3.79 20.3 4.95 19.56 5.72C18.42 6.89 16.12 6.88 15.22 7.75Z" fill="black"/>
<path fill-rule="evenodd" clip-rule="evenodd" d="M2.14998 22.87C2.8846 22.7572 3.62674 22.7003 4.36998 22.7C4.45998 22.7 12.81 22.7 12.9 22.64C14.74 19.7 14.9 20.56 17.4 17.15C18.47 15.71 19.45 14.2 20.52 12.73C21.08 11.96 21.99 11.2 22.52 10.44C22.44 10.44 22.61 10.37 18.82 10.27C16.73 10.27 14.91 10.58 12.61 10.55C11.874 10.4175 11.1278 10.3506 10.38 10.35C10.48 10.47 6.72998 15.46 6.56998 15.66C5.05998 17.54 3.56998 19.14 2.80998 20.2C2.5963 20.5175 2.409 20.8519 2.24998 21.2C1.57998 22 1.33998 21.31 2.24998 19.81C3.05998 18.62 4.33998 17.22 5.91998 15.19C6.91998 13.93 6.91998 13.84 9.13998 10.56C9.31998 10.3 9.50998 9.76002 9.85998 9.56002C10.63 9.13002 11.94 9.56002 12.61 9.56002C16 9.56002 24.88 8.22002 23.91 10.36C23.32 11.63 22.15 12.43 21.41 13.43C20.32 14.89 19.33 16.43 18.23 17.83C15.61 21.21 16.3 19.52 13.62 23.16C13.5357 23.2788 13.4265 23.3778 13.3 23.45C13.3 23.45 3.85998 23.38 3.29998 23.45C1.18998 23.55 1.87998 23.61 1.59998 23.62C1.56021 23.6214 1.52058 23.6146 1.48355 23.6C1.44652 23.5854 1.41288 23.5634 1.38474 23.5353C1.3566 23.5071 1.33456 23.4735 1.31997 23.4365C1.30539 23.3994 1.29859 23.3598 1.29998 23.32C1.28998 22.87 1.87998 22.92 2.14998 22.87Z" fill="black"/>
<path fill-rule="evenodd" clip-rule="evenodd" d="M0.629992 19.38C0.999992 18.28 1.44999 19.9 1.45999 21C1.40999 21.44 1.27999 22.49 1.22999 22.77C1.21631 22.849 1.17519 22.9205 1.11391 22.9721C1.05262 23.0237 0.975092 23.0519 0.894992 23.0519C0.814893 23.0519 0.737364 23.0237 0.676077 22.9721C0.61479 22.9205 0.573679 22.849 0.559992 22.77C0.402475 22.1323 0.328522 21.4768 0.339992 20.82C0.401788 20.3337 0.498708 19.8524 0.629992 19.38Z" fill="black"/>
</g>
<defs>
<clipPath id="clip0_1048_7271">
<rect width="24" height="24" fill="white"/>
</clipPath>
</defs>
</svg>
