<svg width="24" height="24" viewBox="0 0 24 24" fill="none" xmlns="http://www.w3.org/2000/svg">
<g clip-path="url(#clip0_1033_3960)">
<path d="M23.17 20.2C22.61 19.79 22.02 19.59 21.08 19.02C20.97 19.02 19.41 14.92 18.46 14.31C17.51 13.7 16.68 14.02 16.54 15.65C16.6316 16.2915 16.8204 16.9153 17.1 17.5C16.0978 17.6627 15.0713 17.5872 14.1037 17.2797C13.1361 16.9722 12.2544 16.4413 11.53 15.73C10.32 14.55 8.02996 15.42 8.84996 17.52C9.15234 18.2721 9.60045 18.9571 10.1685 19.5354C10.7366 20.1138 11.4134 20.5741 12.16 20.89C14.32 21.56 18.16 22.23 19.83 23.89C19.8574 23.9254 19.892 23.9547 19.9315 23.9759C19.971 23.9971 20.0145 24.0097 20.0592 24.0131C20.1039 24.0164 20.1488 24.0103 20.191 23.9951C20.2331 23.98 20.2717 23.9562 20.3041 23.9252C20.3365 23.8942 20.362 23.8568 20.379 23.8153C20.396 23.7738 20.4041 23.7292 20.4027 23.6844C20.4014 23.6396 20.3907 23.5956 20.3713 23.5552C20.3518 23.5148 20.3241 23.479 20.29 23.45C18.57 21.59 14.68 20.8 12.44 20.02C11.2323 19.4279 10.2954 18.3981 9.81996 17.14C9.44996 16.14 10.37 16.07 10.82 16.48C11.6845 17.3387 12.752 17.9649 13.9233 18.3006C15.0947 18.6363 16.3319 18.6704 17.52 18.4C17.78 18.34 18.19 18.25 18.17 17.85C18.17 17.17 17.42 16.16 17.43 15.69C17.54 13.01 19.51 17.02 20.64 19.42C21.2841 19.9738 22.0225 20.4073 22.82 20.7C22.8849 20.7204 22.9546 20.7196 23.019 20.6977C23.0834 20.6758 23.1392 20.634 23.1782 20.5782C23.2172 20.5225 23.2375 20.4558 23.236 20.3878C23.2345 20.3197 23.2114 20.2539 23.17 20.2Z" fill="black"/>
<path d="M9.09997 1C6.84401 1.24249 4.56366 0.898024 2.47997 1.21072e-06C2.40041 -0.0384552 2.30883 -0.0437294 2.22537 -0.0146613C2.14192 0.0144068 2.07343 0.0754363 2.03497 0.155001C1.99652 0.234566 1.99124 0.326149 2.02031 0.409603C2.04938 0.493056 2.11041 0.561545 2.18997 0.600001C4.35181 1.61773 6.73497 2.0751 9.11997 1.93C9.6111 2.00836 10.0739 2.21127 10.4643 2.51939C10.8547 2.8275 11.1596 3.23053 11.35 3.69C11.35 3.79 7.15997 3.6 6.34997 3.79C4.84997 4.13 7.96997 6.58 7.58997 7.79C7.31997 8.62 4.04997 5.36 3.52997 4.84L3.13997 4.51C2.49811 4.27368 1.82336 4.13873 1.13997 4.11C1.09797 4.09139 1.05246 4.08203 1.00652 4.08258C0.960578 4.08312 0.915295 4.09355 0.873747 4.11316C0.832198 4.13276 0.795358 4.16108 0.765732 4.1962C0.736106 4.23131 0.714388 4.27239 0.702054 4.31665C0.689721 4.3609 0.687061 4.40729 0.694256 4.45267C0.701451 4.49804 0.718333 4.54134 0.743752 4.57961C0.769171 4.61788 0.802533 4.65022 0.841568 4.67445C0.880604 4.69867 0.924398 4.71421 0.969974 4.72C1.77997 4.9 2.27997 5.04 3.10997 5.18C3.75997 5.89 6.10997 8.44 7.02997 8.66C8.58997 9 8.88997 7.47 8.09997 6.05C7.88997 5.67 7.57997 5.18 7.33997 4.78C8.75997 4.78 10.17 4.66 10.95 4.61C11.3389 4.59115 11.7095 4.43935 12 4.18C12.1306 4.07041 12.2252 3.92408 12.2716 3.76002C12.3179 3.59595 12.3139 3.42174 12.26 3.26C11.9898 2.63065 11.5525 2.08729 10.9955 1.68888C10.4384 1.29048 9.78285 1.05223 9.09997 1Z" fill="black"/>
<path d="M18.34 6.83002C18.3121 6.2072 18.1976 5.5913 18 5.00002C17.8656 4.61234 17.6105 4.2779 17.2722 4.04575C16.9339 3.8136 16.53 3.69594 16.12 3.71002C15.0452 3.6201 13.9648 3.6201 12.89 3.71002C12.34 3.71002 12.11 4.53002 12.81 4.52002C13.8722 4.456 14.937 4.44932 16 4.50002C16.3026 4.50149 16.5936 4.61627 16.8157 4.82175C17.0379 5.02722 17.175 5.30846 17.2 5.61002C17.3479 6.77381 17.4048 7.94738 17.37 9.12002C17.1317 8.66334 16.8172 8.25073 16.44 7.90002C16.2507 7.7339 16.0385 7.59582 15.81 7.49002C14.59 6.95002 14.16 7.49002 12.87 8.77002C12.5656 8.22905 12.1009 7.79581 11.54 7.53002C10.78 7.26002 10.15 7.97002 9.71997 8.31002C8.56965 9.22509 7.559 10.3031 6.71997 11.51C6.70144 10.6725 6.72814 9.83464 6.79997 9.00002C6.79783 8.92283 6.76784 8.84902 6.71555 8.7922C6.66325 8.73539 6.59218 8.69939 6.51543 8.69087C6.43868 8.68234 6.36144 8.70185 6.29795 8.7458C6.23446 8.78976 6.18901 8.85519 6.16997 8.93002C5.93997 11.37 5.75997 12.24 6.76997 12.85C7.51997 13.3 8.11997 13.18 12.09 13.46C13.46 13.56 17.03 13.58 18.02 12.61C18.1692 12.4276 18.2784 12.2157 18.3404 11.9883C18.4025 11.7609 18.4159 11.523 18.38 11.29C18.4 8.30002 18.42 7.61002 18.34 6.83002ZM17.27 11.83C16.66 12.43 13.08 12.51 12.14 12.48C8.48997 12.36 7.64997 12.48 7.03997 12.08C8.05805 11.0036 9.17272 10.0228 10.37 9.15002C10.58 8.98002 11.12 8.44002 11.25 8.48002C11.81 8.62002 12.74 9.98002 13.61 10.69C13.6389 10.7267 13.6755 10.7566 13.7172 10.7777C13.7589 10.7987 13.8047 10.8104 13.8514 10.8118C13.8981 10.8133 13.9446 10.8045 13.9875 10.786C14.0304 10.7676 14.0688 10.74 14.0999 10.7052C14.1311 10.6704 14.1542 10.6291 14.1677 10.5844C14.1812 10.5397 14.1847 10.4925 14.178 10.4463C14.1714 10.4001 14.1547 10.3558 14.1291 10.3168C14.1035 10.2777 14.0697 10.2446 14.03 10.22C13.7452 9.93349 13.4905 9.61851 13.27 9.28002C14.87 8.28002 14.86 8.22002 15.38 8.45002C16.1741 8.91622 16.8433 9.56822 17.33 10.35C17.31 11.4 17.32 11.07 17.27 11.84V11.83Z" fill="black"/>
</g>
<defs>
<clipPath id="clip0_1033_3960">
<rect width="24" height="24" fill="white"/>
</clipPath>
</defs>
</svg>
