<svg width="24" height="24" viewBox="0 0 24 24" fill="none" xmlns="http://www.w3.org/2000/svg">
<g clip-path="url(#clip0_1034_4670)">
<path fill-rule="evenodd" clip-rule="evenodd" d="M4.26999 11.8C4.22724 11.3438 4.0291 10.916 3.70873 10.5884C3.38835 10.2607 2.96517 10.053 2.50999 10C1.93535 9.95383 1.36432 10.1251 0.909991 10.48C0.475283 10.8251 0.171793 11.3085 0.0499906 11.85C-0.550009 14.69 3.80999 14.74 4.23999 12.54C4.26346 12.2941 4.27348 12.047 4.26999 11.8ZM0.999991 12.11C1.10327 11.8648 1.2605 11.6461 1.45999 11.47C1.59248 11.3432 1.74959 11.2449 1.9216 11.1813C2.09361 11.1176 2.27686 11.09 2.45999 11.1C2.59505 11.1074 2.7272 11.1422 2.84845 11.2021C2.96969 11.2621 3.07751 11.346 3.16539 11.4489C3.25326 11.5517 3.31936 11.6713 3.35968 11.8004C3.40001 11.9295 3.41372 12.0654 3.39999 12.2C3.46999 14.22 0.389991 13.78 0.999991 12.11Z" fill="black"/>
<path fill-rule="evenodd" clip-rule="evenodd" d="M17 11.91C17.0227 10.826 16.6253 9.77514 15.8909 8.97742C15.1566 8.17969 14.1422 7.69688 13.06 7.62999C11.8296 7.53452 10.6039 7.86654 9.58998 8.56999C8.57663 9.26797 7.83772 10.2968 7.49998 11.48C7.49998 11.62 7.42998 11.75 7.39998 11.89C7.34688 12.1295 7.32337 12.3747 7.32998 12.62C7.32998 14.42 8.46998 16.1 11.41 16.35C11.4849 16.356 11.5594 16.3337 11.6187 16.2874C11.678 16.2411 11.7177 16.1742 11.73 16.1C11.7334 16.0241 11.7088 15.9495 11.6609 15.8905C11.613 15.8315 11.545 15.7922 11.47 15.78H11.32L13.75 13.71L16.07 11.77C16.0803 11.9131 16.0803 12.0568 16.07 12.2C16.1039 12.6442 16.0481 13.0907 15.9059 13.5128C15.7637 13.935 15.538 14.3242 15.2422 14.6574C14.9464 14.9905 14.5866 15.2606 14.1842 15.4518C13.7818 15.6429 13.3451 15.7512 12.9 15.77C12.8579 15.7713 12.8166 15.7808 12.7783 15.7981C12.7399 15.8154 12.7054 15.8401 12.6766 15.8707C12.6478 15.9014 12.6253 15.9374 12.6105 15.9768C12.5956 16.0161 12.5886 16.058 12.59 16.1C12.5913 16.142 12.6008 16.1834 12.6181 16.2217C12.6354 16.26 12.6601 16.2946 12.6907 16.3234C12.7214 16.3522 12.7574 16.3746 12.7967 16.3895C12.8361 16.4044 12.8779 16.4113 12.92 16.41C13.9325 16.4127 14.9083 16.0313 15.6506 15.3427C16.393 14.6542 16.8466 13.7098 16.92 12.7C16.9782 12.4408 17.0051 12.1756 17 11.91ZM8.39998 11.75C8.73195 10.817 9.36053 10.0184 10.1895 9.47662C11.0185 8.93481 12.0022 8.67958 12.99 8.74999C13.247 8.76161 13.5019 8.80186 13.75 8.86999C13.0794 9.22098 12.4404 9.62916 11.84 10.09C11.4864 10.3595 11.1522 10.6536 10.84 10.97C10.5148 11.2858 10.2077 11.6197 9.91998 11.97C9.38998 12.59 8.91998 13.26 8.45998 13.97C8.15673 13.2649 8.13525 12.4704 8.39998 11.75ZM13.95 12.17C13.63 12.38 13.34 12.62 13.04 12.85C12.74 13.08 12.46 13.38 12.2 13.66C11.63 14.28 11.14 14.95 10.59 15.59C9.8956 15.4086 9.27404 15.0175 8.80998 14.47C9.54998 13.69 10.32 12.95 11.09 12.2C11.67 11.64 12.21 11.07 12.81 10.55C13.3612 10.0641 13.9423 9.61317 14.55 9.19999C15.2074 9.61431 15.691 10.2544 15.91 11C15.25 11.36 14.58 11.74 14 12.17H13.95Z" fill="black"/>
<path fill-rule="evenodd" clip-rule="evenodd" d="M6.82 11.82L6.27 11.75C6.08013 11.7401 5.88988 11.7401 5.7 11.75C5.51347 11.74 5.32654 11.74 5.14 11.75H4.72C4.45 11.97 4.24 12.56 4.72 12.68C4.83455 12.7129 4.95161 12.7363 5.07001 12.75C5.26846 12.7817 5.46903 12.7984 5.67 12.8H6.26001C6.44492 12.7915 6.62885 12.768 6.81 12.73C7.09 12.59 7.07 11.92 6.82 11.82Z" fill="black"/>
<path fill-rule="evenodd" clip-rule="evenodd" d="M18.76 11.77H18.26C18.013 11.7545 17.7659 11.7991 17.54 11.9C17.25 12.07 17.39 12.63 17.54 12.74C17.7657 12.8412 18.0137 12.8825 18.26 12.86C18.4365 12.8703 18.6135 12.8703 18.79 12.86C18.9397 12.8475 19.0874 12.8173 19.23 12.77C19.64 12.61 19.47 11.94 19.23 11.87L18.76 11.77Z" fill="black"/>
<path fill-rule="evenodd" clip-rule="evenodd" d="M22.22 9.99998C21.6742 9.95213 21.1291 10.0998 20.6822 10.4167C20.2352 10.7336 19.9155 11.1991 19.78 11.73C19.78 11.73 19.78 11.8 19.78 11.83C19.7421 12.0718 19.7421 12.3181 19.78 12.56C20.07 14.1 23.87 14.76 24.02 12.08C24.0404 11.8248 24.0099 11.5681 23.9301 11.3249C23.8504 11.0816 23.7231 10.8566 23.5555 10.6631C23.388 10.4695 23.1837 10.3112 22.9544 10.1973C22.7251 10.0835 22.4754 10.0164 22.22 9.99998ZM20.68 12C20.7774 11.7683 20.9323 11.5652 21.13 11.41C21.4097 11.1777 21.7669 11.0598 22.13 11.08C22.3847 11.0953 22.6239 11.2074 22.7986 11.3933C22.9734 11.5792 23.0704 11.8248 23.07 12.08C23.17 14 20.1 13.53 20.68 12Z" fill="black"/>
</g>
<defs>
<clipPath id="clip0_1034_4670">
<rect width="24" height="24" fill="white"/>
</clipPath>
</defs>
</svg>
