<svg width="24" height="24" viewBox="0 0 24 24" fill="none" xmlns="http://www.w3.org/2000/svg">
<g clip-path="url(#clip0_1034_4687)">
<path fill-rule="evenodd" clip-rule="evenodd" d="M2.32 0.420001C2.23115 0.457131 2.16069 0.528035 2.12412 0.617115C2.08755 0.706195 2.08787 0.806153 2.125 0.895001C2.16213 0.983848 2.23303 1.05431 2.32211 1.09088C2.41119 1.12745 2.51115 1.12713 2.6 1.09C4.9 0.190001 6 2.69 4.94 4.43C4.23 5.61 1.94 5.5 1.26 4.66C0.996654 4.27248 0.841184 3.82186 0.809551 3.35439C0.777918 2.88693 0.871262 2.41947 1.08 2C1.10501 1.96092 1.12122 1.91687 1.12752 1.8709C1.13381 1.82493 1.13003 1.77814 1.11644 1.73378C1.10285 1.68941 1.07977 1.64854 1.04881 1.61398C1.01785 1.57942 0.979746 1.55201 0.937137 1.53364C0.894528 1.51527 0.848435 1.50639 0.802052 1.50762C0.75567 1.50884 0.710108 1.52013 0.668524 1.54071C0.62694 1.56129 0.590329 1.59067 0.561229 1.62681C0.53213 1.66295 0.511237 1.70498 0.499999 1.75C-1.77 6.47 4.4 7.87 6 5.06C7.33 2.71 5.69 -1.06 2.32 0.420001Z" fill="black"/>
<path fill-rule="evenodd" clip-rule="evenodd" d="M9.54001 11C8.64001 11.52 8.40001 13.38 9.40001 13.94C9.70869 14.1012 10.0518 14.1854 10.4 14.1854C10.7483 14.1854 11.0913 14.1012 11.4 13.94C13.24 12.88 11.39 9.87999 9.54001 11Z" fill="black"/>
<path fill-rule="evenodd" clip-rule="evenodd" d="M9.36999 17.86C8.46999 18.38 8.21999 20.24 9.21999 20.79C9.52788 20.9537 9.87127 21.0393 10.22 21.0393C10.5687 21.0393 10.9121 20.9537 11.22 20.79C13.06 19.77 11.21 16.79 9.36999 17.86Z" fill="black"/>
<path fill-rule="evenodd" clip-rule="evenodd" d="M22.15 1.4C17.9862 1.10257 13.8048 1.15609 9.64999 1.56C9.47999 1.56 8.56999 1.64 8.44999 1.68C8.38879 1.69884 8.33439 1.73507 8.29342 1.78428C8.25245 1.8335 8.22668 1.89357 8.21926 1.95717C8.21184 2.02077 8.22309 2.08516 8.25163 2.14248C8.28017 2.19981 8.32477 2.24759 8.37999 2.28C8.49999 2.34 8.31999 2.28 9.67999 2.28C13.8343 2.51668 17.9995 2.48661 22.15 2.19C23 2.19 24.22 2.19 23.96 1.78C24.21 1.4 23.19 1.45 22.15 1.4Z" fill="black"/>
<path fill-rule="evenodd" clip-rule="evenodd" d="M11.67 6C14.0101 6.1029 16.3547 5.97562 18.67 5.62C18.7564 5.60564 18.835 5.56108 18.8916 5.49424C18.9483 5.4274 18.9794 5.34262 18.9794 5.255C18.9794 5.16738 18.9483 5.0826 18.8916 5.01576C18.835 4.94892 18.7564 4.90435 18.67 4.89C17.31 4.89 15.67 4.81 14.16 4.81C12.08 4.81 10.69 4.98 9.65999 5.04C9.04999 5.04 8.56999 5.04 8.50999 5.11C8.44999 5.18 8.10999 5.62 8.63999 5.73C8.82999 5.73 10.54 5.89 11.67 6Z" fill="black"/>
<path fill-rule="evenodd" clip-rule="evenodd" d="M23.07 11.92C21.29 11.92 19.68 11.74 17.63 11.85C16.69 11.9 15.87 12.01 15.3 12.05C14.9656 12.0543 14.6317 12.0776 14.3 12.12C14.2277 12.1464 14.1673 12.1979 14.1299 12.2652C14.0925 12.3325 14.0806 12.411 14.0964 12.4863C14.1122 12.5617 14.1546 12.6288 14.2159 12.6754C14.2771 12.722 14.3532 12.7449 14.43 12.74C14.59 12.74 16.93 13.03 18.02 13.06C19.7313 13.0541 21.4396 12.9171 23.13 12.65C23.2167 12.6302 23.2935 12.5797 23.346 12.5079C23.3986 12.4361 23.4235 12.3477 23.4162 12.259C23.409 12.1703 23.3699 12.0872 23.3063 12.0249C23.2427 11.9627 23.1588 11.9254 23.07 11.92Z" fill="black"/>
<path fill-rule="evenodd" clip-rule="evenodd" d="M23.14 19.36C21.39 19.36 19.7 19.17 17.7 19.28C16.76 19.34 15.94 19.44 15.37 19.48C14.8 19.52 14.37 19.53 14.37 19.55C14.37 19.57 13.97 20.06 14.5 20.17C14.68 20.17 17.04 20.47 18.09 20.49C19.8009 20.4834 21.5089 20.3497 23.2 20.09C23.2868 20.0702 23.3635 20.0197 23.416 19.9479C23.4686 19.8761 23.4936 19.7877 23.4863 19.699C23.479 19.6103 23.4399 19.5272 23.3764 19.4649C23.3128 19.4027 23.2288 19.3654 23.14 19.36Z" fill="black"/>
<path fill-rule="evenodd" clip-rule="evenodd" d="M5.34 11.64C5.43639 11.6374 5.52795 11.5973 5.59519 11.5282C5.66243 11.4591 5.70004 11.3664 5.7 11.27C5.89 10.54 5.96 8.71001 5.35 8.67001C5.30535 8.66868 5.26087 8.67616 5.21911 8.69203C5.17734 8.70789 5.13912 8.73183 5.10661 8.76248C5.07411 8.79313 5.04796 8.82988 5.02967 8.87064C5.01138 8.91139 5.00129 8.95536 5 9.00001C4.51 10.17 4.83 11.64 5.34 11.64Z" fill="black"/>
<path fill-rule="evenodd" clip-rule="evenodd" d="M5.34 15.77C5.43639 15.7674 5.52795 15.7273 5.59519 15.6582C5.66243 15.589 5.70004 15.4964 5.7 15.4C5.89 14.67 5.96 12.84 5.35 12.8C5.26464 12.7969 5.18125 12.826 5.1164 12.8816C5.05155 12.9372 5.00999 13.0152 5 13.1C4.51 14.31 4.83 15.77 5.34 15.77Z" fill="black"/>
<path fill-rule="evenodd" clip-rule="evenodd" d="M5.34 20.06C5.43639 20.0574 5.52795 20.0173 5.59519 19.9482C5.66243 19.8791 5.70004 19.7864 5.7 19.69C5.89 18.96 5.96 17.13 5.35 17.09C5.26405 17.0845 5.17933 17.1127 5.11394 17.1688C5.04854 17.2248 5.00765 17.3042 5 17.39C4.51 18.59 4.83 20.06 5.34 20.06Z" fill="black"/>
<path fill-rule="evenodd" clip-rule="evenodd" d="M5.58 21.48C5.57337 21.3951 5.5333 21.3164 5.4686 21.261C5.4039 21.2057 5.31987 21.1784 5.235 21.185C5.15013 21.1916 5.07137 21.2317 5.01605 21.2964C4.96073 21.3611 4.93337 21.4451 4.94 21.53C4.75997 21.8305 4.65992 22.1721 4.64942 22.5222C4.63892 22.8723 4.7183 23.2193 4.88 23.53C4.8712 23.583 4.87404 23.6373 4.88833 23.689C4.90262 23.7408 4.92802 23.7889 4.96275 23.8299C4.99749 23.8708 5.04073 23.9038 5.08947 23.9263C5.13821 23.9489 5.19128 23.9606 5.245 23.9606C5.29872 23.9606 5.35179 23.9489 5.40054 23.9263C5.44928 23.9038 5.49252 23.8708 5.52725 23.8299C5.56199 23.7889 5.58738 23.7408 5.60167 23.689C5.61596 23.6373 5.6188 23.583 5.61 23.53C5.85 22.65 6.1 22.6 5.58 21.48Z" fill="black"/>
</g>
<defs>
<clipPath id="clip0_1034_4687">
<rect width="24" height="24" fill="white"/>
</clipPath>
</defs>
</svg>
