<svg width="24" height="24" viewBox="0 0 24 24" fill="none" xmlns="http://www.w3.org/2000/svg">
<path fill-rule="evenodd" clip-rule="evenodd" d="M6.29 1.06999C12.12 1.79999 14.88 0.779993 19.16 0.709993C19.2502 0.709993 19.3367 0.674171 19.4004 0.610409C19.4642 0.546647 19.5 0.460166 19.5 0.369993C19.5 0.279819 19.4642 0.193339 19.4004 0.129576C19.3367 0.0658141 19.2502 0.0299928 19.16 0.0299928C17.05 -7.24383e-06 14.93 -7.24196e-06 12.64 0.109993C5.34 0.529993 5.3 0.279993 4.76 0.409993C4.70839 0.419882 4.66015 0.442726 4.6198 0.476379C4.57944 0.510032 4.54831 0.553389 4.52931 0.602379C4.51032 0.651369 4.50408 0.704384 4.5112 0.756443C4.51832 0.808503 4.53855 0.857899 4.57 0.899993C5.13389 1.02884 5.7118 1.08596 6.29 1.06999Z" fill="black"/>
<path fill-rule="evenodd" clip-rule="evenodd" d="M19.16 3.21999C17.04 3.21999 14.92 3.16999 12.64 3.29999C5.05 3.73999 4.75 3.39999 4.55 3.73999C4.51188 3.79037 4.49125 3.85182 4.49125 3.91499C4.49125 3.97817 4.51188 4.03962 4.55 4.08999C5.11352 4.22189 5.69139 4.28236 6.27 4.26999C12.1 4.99999 14.91 3.99999 19.16 3.89999C19.2502 3.89999 19.3367 3.86417 19.4004 3.80041C19.4642 3.73665 19.5 3.65017 19.5 3.55999C19.5 3.46982 19.4642 3.38334 19.4004 3.31958C19.3367 3.25581 19.2502 3.21999 19.16 3.21999Z" fill="black"/>
<path fill-rule="evenodd" clip-rule="evenodd" d="M19.16 6.11999C17.04 6.11999 14.93 6.05999 12.64 6.19999C5.04 6.63999 4.75 6.29999 4.55 6.63999C4.51103 6.68808 4.48976 6.74809 4.48976 6.80999C4.48976 6.87189 4.51103 6.9319 4.55 6.97999C5.11352 7.11189 5.69139 7.17236 6.27 7.15999C12.1 7.88999 14.86 6.86999 19.14 6.78999C19.1885 6.79977 19.2386 6.79884 19.2867 6.78727C19.3348 6.7757 19.3798 6.75376 19.4186 6.72299C19.4574 6.69221 19.4889 6.65335 19.5111 6.60911C19.5333 6.56486 19.5456 6.51631 19.5471 6.46684C19.5485 6.41737 19.5392 6.36817 19.5197 6.32269C19.5002 6.2772 19.471 6.23652 19.4341 6.20349C19.3973 6.17046 19.3536 6.14588 19.3063 6.13145C19.2589 6.11703 19.209 6.11312 19.16 6.11999Z" fill="black"/>
<path fill-rule="evenodd" clip-rule="evenodd" d="M16.85 14.43C16.1989 12.9386 15.3331 11.5506 14.28 10.31C13.8 9.77999 13.45 9.10999 12.51 9.17999C10.17 9.34999 5.1 15.23 6.51 16.91C7.17 17.7 9.78 15.91 10.51 15.25C10.63 16.41 11.27 22.98 11.51 23.8C11.5381 23.8629 11.5885 23.9132 11.6514 23.9413C11.7144 23.9694 11.7855 23.9733 11.8511 23.9523C11.9167 23.9312 11.9723 23.8867 12.0071 23.8272C12.042 23.7678 12.0537 23.6975 12.04 23.63C11.75 22.63 11.34 15.24 11.25 14.56C11.16 13.88 10.44 13.94 10 14.5C9.22147 15.241 8.28446 15.795 7.26 16.12C7.29696 15.8812 7.36766 15.6489 7.47 15.43C8.15 13.85 11.05 10.36 12.62 10.24C13.38 10.18 16 14.39 16.47 15.88C15.13 15.31 13.92 13.8 13.4 13.81C13.2774 13.8341 13.1679 13.9024 13.0923 14.002C13.0167 14.1015 12.9803 14.2254 12.99 14.35C13.12 15.67 13.27 13.43 12.2 23.69C12.2132 23.7639 12.252 23.8308 12.3096 23.879C12.3672 23.9272 12.4399 23.9536 12.515 23.9536C12.5901 23.9536 12.6628 23.9272 12.7204 23.879C12.778 23.8308 12.8168 23.7639 12.83 23.69C12.83 23.76 14.09 17.2 13.91 15.14C14.62 15.74 15.63 16.77 16.77 16.81C17.27 16.81 17.61 16.45 17.38 15.63C17.233 15.2175 17.0558 14.8165 16.85 14.43Z" fill="black"/>
</svg>
