<svg width="24" height="24" viewBox="0 0 24 24" fill="none" xmlns="http://www.w3.org/2000/svg">
<g clip-path="url(#clip0_1047_6470)">
<path d="M10.07 11.39C9.93 10.8 9.4 10.56 8.94 10.95C8.58867 11.3746 8.32371 11.8638 8.16 12.39C8.08 12.29 7.7 11.77 7.56 11.63C7.03 11.12 6.56 11.2 6.36 11.52C5.87 12.29 6.42 13.67 6.68 14.52C6.72994 14.7717 6.8176 15.0145 6.94 15.24C6.98681 15.3285 7.06663 15.3949 7.16211 15.4248C7.2576 15.4548 7.36105 15.4459 7.45 15.4C7.83 15.21 7.45 14.75 7.34 14.4C6.98 12.04 7.01 12.9 7.61 13.35C7.71592 13.4432 7.8429 13.5092 7.98 13.5423C8.1171 13.5755 8.26022 13.5748 8.397 13.5404C8.53379 13.506 8.66015 13.4388 8.7652 13.3446C8.87024 13.2505 8.95083 13.1322 9 13C9.13684 12.7466 9.26035 12.4863 9.37 12.22L10 14.44C10.0233 14.5226 10.0779 14.5928 10.1521 14.6358C10.2263 14.6788 10.3144 14.6913 10.3976 14.6705C10.4808 14.6497 10.5527 14.5973 10.5979 14.5244C10.6432 14.4515 10.6583 14.3638 10.64 14.28C10 11.45 10.21 11.94 10.07 11.39Z" fill="black"/>
<path d="M13.16 10.8501C11.64 10.2801 10.97 11.8501 11.32 13.1801C11.55 14.0701 12.32 15.0001 13.23 14.7001C14.14 14.4001 14.29 13.1501 13.96 12.2001C13.7881 11.7003 13.5158 11.2409 13.16 10.8501ZM13 13.6301C12.81 13.7801 12.08 12.6301 12.22 11.9001C12.28 11.5701 12.85 10.7301 13.22 12.4201C13.23 12.7601 13.25 13.3901 13 13.6301Z" fill="black"/>
<path d="M17.14 9.75004C17.14 9.66252 17.1052 9.57859 17.0434 9.5167C16.9815 9.45481 16.8975 9.42004 16.81 9.42004C16.7225 9.42004 16.6386 9.45481 16.5767 9.5167C16.5148 9.57859 16.48 9.66252 16.48 9.75004L16.26 12.21C14.47 9.78004 14.66 9.95004 14.46 10.03C14.26 10.11 14.21 10.24 14.31 10.56C14.41 10.88 14.87 11.7 15.8 13.44C15.96 13.69 16.11 14.13 16.53 14.22C16.6098 14.2406 16.6931 14.2438 16.7743 14.2297C16.8554 14.2155 16.9327 14.1842 17.0008 14.1378C17.0689 14.0915 17.1264 14.0311 17.1693 13.9608C17.2123 13.8905 17.2398 13.8118 17.25 13.73C17.3049 12.4024 17.2681 11.0726 17.14 9.75004Z" fill="black"/>
<path d="M20.6 5.76006C16.2 6.61006 16.79 6.58006 16.77 6.48006C16.77 5.20006 17.02 5.37006 16.48 4.12006C16.08 3.64006 15.69 3.71006 15.58 4.26006C15.5255 5.09908 15.7241 5.93515 16.15 6.66006C15.4 6.81006 11.88 7.53006 10.93 7.74006C10.9809 7.70516 11.0211 7.65667 11.0458 7.6001C11.0706 7.54353 11.0789 7.48115 11.07 7.42006C11.1405 6.62078 10.9772 5.81824 10.6 5.11006C10.47 4.67006 9.82001 4.90006 9.83001 5.27006C9.70001 6.44006 10.13 6.76006 10.42 7.54006C10.51 8.06006 11.98 7.38006 6.26001 8.87006C6.29301 8.06488 6.20537 7.2593 6.00001 6.48006C5.98542 6.34745 5.91875 6.22607 5.81467 6.14262C5.71059 6.05916 5.57761 6.02047 5.44501 6.03506C5.3124 6.04965 5.19102 6.11631 5.10756 6.2204C5.02411 6.32448 4.98542 6.45745 5.00001 6.59006C4.96431 7.4502 5.17229 8.30294 5.60001 9.05006C4.43592 9.32025 3.28753 9.65408 2.16001 10.0501C1.68001 10.3201 1.89001 10.6801 2.26001 10.5801C3.63001 10.0001 16.33 7.77006 20.74 6.44006C21.07 6.40006 20.85 5.77006 20.6 5.76006Z" fill="black"/>
<path d="M21.22 3.13006C20.94 2.13006 20.27 2.00006 19.22 2.13006C18.72 2.18006 7.22 4.33006 5.96 4.62006C-0.569998 6.11006 -0.219998 6.44006 0.190002 8.86006C0.663044 12.0971 1.30054 15.3079 2.1 18.4801C2.26509 19.7076 2.81877 20.85 3.68 21.7401C4.27 22.2301 7.68 21.5901 9.38 21.2901C10.38 21.1301 21.38 19.0801 21.82 18.5301C21.8476 18.5038 21.8697 18.4724 21.8851 18.4375C21.9006 18.4027 21.909 18.3652 21.9099 18.3271C21.9108 18.2891 21.9043 18.2512 21.8906 18.2156C21.8768 18.1801 21.8563 18.1476 21.83 18.1201C21.8037 18.0925 21.7723 18.0703 21.7375 18.0549C21.7027 18.0395 21.6651 18.0311 21.6271 18.0301C21.589 18.0292 21.5511 18.0358 21.5156 18.0495C21.4801 18.0632 21.4476 18.0838 21.42 18.1101C20.87 18.3501 6.66 21.2401 4.24 20.9801C3 19.8301 1.09 7.37006 1.08 7.22006C1.07 7.07006 1.68 6.96006 2.19 6.78006C4.9 5.78006 19.95 2.61006 20.19 3.17006C21.38 5.80006 23.28 16.9401 23.32 17.1701C23.09 17.4201 22.08 17.4801 22.32 18.0101C22.3587 18.0881 22.4267 18.1476 22.5091 18.1757C22.5915 18.2038 22.6817 18.1982 22.76 18.1601C23.2 17.9401 23.76 17.8501 23.96 17.3701C24.16 16.8901 21.79 5.14006 21.22 3.13006Z" fill="black"/>
<path d="M3.70001 17.6201C3.36001 17.7501 3.36001 18.3501 3.82001 18.2501C5.03407 18.1894 6.24313 18.0525 7.44001 17.8401C7.35264 18.6866 7.54968 19.538 8.00001 20.2601C8.04842 20.3323 8.11673 20.389 8.19667 20.4232C8.27661 20.4574 8.36475 20.4678 8.45044 20.453C8.53613 20.4381 8.61569 20.3988 8.6795 20.3397C8.74331 20.2807 8.78864 20.2044 8.81001 20.1201C8.81001 19.9701 8.45001 18.8501 8.07001 17.7401C14.01 16.8101 12.28 16.7401 12.41 17.3101C12.5046 17.9689 12.6689 18.6159 12.9 19.2401C13.09 19.5201 13.29 19.5201 13.48 19.2401C13.4769 18.525 13.3307 17.8178 13.05 17.1601C13.0353 17.0995 13.0041 17.0441 12.9601 17C12.916 16.9559 12.8606 16.9248 12.8 16.9101C13.75 16.7301 17.24 16.0001 17.98 15.8301C17.9347 16.5352 18.117 17.2363 18.5 17.8301L18.6 18.0001C18.96 18.2901 19.18 18.2001 19.3 17.8601C19.2743 17.459 19.2141 17.0608 19.12 16.6701C19.005 16.3268 18.8646 15.9925 18.7 15.6701C20.45 15.2801 21.6 15.0601 22.38 14.8901C22.86 14.7301 22.76 14.2101 22.27 14.2101C9.43001 16.2001 6.36001 17.4301 3.70001 17.6201Z" fill="black"/>
</g>
<defs>
<clipPath id="clip0_1047_6470">
<rect width="24" height="24" fill="white"/>
</clipPath>
</defs>
</svg>
