<svg width="24" height="24" viewBox="0 0 24 24" fill="none" xmlns="http://www.w3.org/2000/svg">
<g clip-path="url(#clip0_1047_6549)">
<path fill-rule="evenodd" clip-rule="evenodd" d="M23.21 15.24C23.1781 14.8208 23.0442 14.4157 22.82 14.06C22.6688 13.8222 22.4387 13.6452 22.17 13.56C21.8796 13.4844 21.5799 13.4508 21.28 13.46H19.99L19.83 12.78L19.53 12.15C19.3717 11.8707 19.1445 11.6366 18.87 11.47C18.38 11.16 17.8 11.18 17.21 10.84C17.15 10.84 17.14 10.7 17.09 10.62C17.0051 10.4248 16.8978 10.2402 16.77 10.07C16.677 9.94635 16.5617 9.84121 16.43 9.75999C16.2059 9.62464 15.9582 9.53302 15.7 9.48999C15.4087 9.44441 15.1148 9.41769 14.82 9.40999H14.71C14.71 9.20999 14.79 9.01999 14.82 8.80999C14.8299 8.65682 14.8299 8.50317 14.82 8.34999C14.82 8.19999 14.82 8.03999 14.77 7.88999C14.7 7.51999 14.6 7.17999 14.5 6.80999C14.4925 6.75427 14.4724 6.70099 14.4412 6.65421C14.41 6.60742 14.3686 6.56836 14.32 6.53999C14.4 6.53999 14.5 6.46999 14.58 6.41999C15.0397 6.12888 15.4289 5.7392 15.7195 5.27914C16.0101 4.81909 16.1947 4.30018 16.26 3.75999C16.3396 3.2242 16.2904 2.67714 16.1165 2.16414C15.9426 1.65113 15.649 1.18694 15.26 0.809992C14.9471 0.523698 14.5791 0.304212 14.1785 0.164943C13.7779 0.0256742 13.353 -0.0304526 12.93 -8.09878e-06C12.1787 0.0364156 11.4564 0.301592 10.86 0.759992C10.4152 1.13193 10.0712 1.60998 9.86001 2.14999C9.64354 2.64098 9.54355 3.17537 9.56783 3.7114C9.59212 4.24744 9.74003 4.7706 10 5.23999C10.3055 5.76308 10.7622 6.18142 11.31 6.43999C11.3879 6.47262 11.4681 6.49936 11.55 6.51999C11.55 6.51999 11.55 6.51999 11.55 6.57999C11.47 6.98999 11.38 7.37999 11.32 7.79999C11.3052 7.97301 11.3052 8.14697 11.32 8.31999C11.305 8.49634 11.305 8.67364 11.32 8.84999C11.32 9.06999 11.39 9.27999 11.44 9.48999H11.38C11.1647 9.55466 10.9594 9.64889 10.77 9.76999C10.5554 9.91191 10.3828 10.1087 10.27 10.34C9.87001 11.13 10.32 10.98 9.49001 11.34C9.06568 11.4776 8.68588 11.7262 8.39001 12.06C8.16924 12.3275 8.03343 12.6548 8.00001 13V13.3H6.45001C6.48421 12.8673 6.48421 12.4327 6.45001 12C6.38392 11.6136 6.22996 11.2475 6.00001 10.93C5.9228 10.8385 5.82829 10.7631 5.7219 10.7082C5.61551 10.6533 5.49933 10.6199 5.38001 10.61C4.99741 10.5765 4.61261 10.5765 4.23001 10.61C3.67718 10.6108 3.12881 10.709 2.61001 10.9C2.29156 11.0393 2.0403 11.2977 1.91001 11.62C1.85753 11.778 1.83052 11.9434 1.83001 12.11C1.84557 12.3918 1.87897 12.6724 1.93001 12.95L2.11001 13.81C1.85506 13.8803 1.61465 13.9955 1.40001 14.15C0.590014 14.83 0.800014 15.3 0.810014 19C0.776056 19.3692 0.776056 19.7408 0.810014 20.11C0.853009 20.3348 0.952847 20.5448 1.10001 20.72C1.17124 20.823 1.26317 20.91 1.36993 20.9754C1.47668 21.0408 1.59592 21.0833 1.72001 21.1C3.07001 21.1 3.36001 21.26 4.94001 21.29C5.59001 21.29 6.24001 21.23 6.94001 21.19C8.33001 21.08 9.72001 21.05 11.11 21C12.5 20.95 13.91 20.91 15.31 20.84C16.52 20.78 17.73 20.69 18.93 20.56C19.56 20.5 22.04 20.31 22.22 20.27C22.2684 20.3033 22.3227 20.3271 22.38 20.34C22.4273 20.3455 22.4753 20.3417 22.5211 20.3285C22.5669 20.3154 22.6097 20.2933 22.6469 20.2636C22.6841 20.2338 22.715 20.1969 22.7379 20.1551C22.7607 20.1133 22.775 20.0674 22.78 20.02L23.14 16.88C23.2248 16.3377 23.2482 15.7876 23.21 15.24ZM10.86 4.67999C10.6474 4.3555 10.5132 3.98598 10.4681 3.60067C10.423 3.21536 10.4681 2.82483 10.6 2.45999C10.7356 2.05246 10.9651 1.6825 11.27 1.37999C11.7747 1.02299 12.3821 0.840415 13 0.859992C13.2985 0.84113 13.5976 0.88475 13.8783 0.988063C14.159 1.09138 14.415 1.25211 14.63 1.45999C14.8751 1.74095 15.0508 2.07556 15.1428 2.43685C15.2349 2.79814 15.2408 3.17601 15.16 3.53999C15.0988 3.9955 14.9106 4.4246 14.6171 4.77827C14.3236 5.13193 13.9365 5.39589 13.5 5.53999C13.331 5.58846 13.1558 5.61204 12.98 5.60999C12.5705 5.6183 12.1643 5.53637 11.79 5.36999C11.4188 5.23673 11.0952 4.99667 10.86 4.67999ZM13.66 8.79999C13.6915 8.96952 13.7349 9.13661 13.79 9.29999H13.24C12.93 9.29999 12.62 9.29999 12.31 9.34999C12.31 9.19999 12.38 9.03999 12.4 8.87999C12.4151 8.70699 12.4151 8.533 12.4 8.35999C12.41 8.1868 12.41 8.01318 12.4 7.83999C12.4 7.46999 12.3 7.12999 12.23 6.76999C12.4608 6.81581 12.6949 6.84256 12.93 6.84999C13.2207 6.85903 13.511 6.8219 13.79 6.73999C13.78 6.77257 13.78 6.80741 13.79 6.83999C13.79 7.19999 13.67 7.53999 13.63 7.89999V8.35999C13.6305 8.50715 13.6405 8.65413 13.66 8.79999ZM8.73001 13.05C8.73346 12.9415 8.75921 12.8349 8.80566 12.7369C8.85212 12.6388 8.91827 12.5514 9.00001 12.48C9.22537 12.3409 9.47196 12.2395 9.73001 12.18H10.12C10.2263 12.1513 10.3252 12.1001 10.41 12.03C10.697 11.7023 10.9299 11.331 11.1 10.93C11.1438 10.8645 11.202 10.8098 11.27 10.77C11.3739 10.7171 11.4851 10.68 11.6 10.66C11.8213 10.6166 12.0451 10.5865 12.27 10.57C12.603 10.5483 12.937 10.5483 13.27 10.57C13.77 10.57 14.27 10.62 14.77 10.65H15.44C15.5916 10.6462 15.7421 10.677 15.88 10.74C16.14 10.88 16.21 11.24 16.39 11.44C16.4909 11.5702 16.6167 11.679 16.76 11.76C17.2595 11.9332 17.7708 12.0703 18.29 12.17C18.5275 12.2467 18.7342 12.3974 18.88 12.6L19.13 13.06L19.26 13.44H18.69L13.97 13.27C12.56 13.27 11.17 13.37 9.77001 13.37H8.77001L8.73001 13.05ZM2.79001 12.31C2.80325 12.2247 2.83388 12.143 2.88001 12.07C2.90001 12 3.00001 12 3.00001 12C3.10888 11.957 3.22341 11.9301 3.34001 11.92C3.65124 11.8726 3.96526 11.8459 4.28001 11.84L4.90001 11.76C5.22001 11.76 5.23001 11.45 5.44001 12.17C5.54593 12.5425 5.61624 12.9242 5.65001 13.31H5.45001C4.63001 13.38 3.80001 13.48 3.01001 13.62H2.74001V12.87C2.76001 12.75 2.76001 12.53 2.79001 12.31ZM22.27 16.79L22.07 19.55C21.8029 19.6036 21.5321 19.637 21.26 19.65C20.45 19.7 19.62 19.65 18.84 19.65C16.05 19.82 13.25 19.72 10.46 19.77C9.24668 19.77 8.03668 19.83 6.83001 19.95C6.06001 20.02 5.30001 20.09 4.54001 20.13H3.03001C2.77689 20.1446 2.52314 20.1446 2.27001 20.13C2.10845 20.1359 1.9497 20.0865 1.82001 19.99C1.7349 19.8784 1.69236 19.7401 1.70001 19.6V18.89C1.51001 15.54 1.38001 14.99 1.86001 14.65C2.26789 14.4376 2.72017 14.3245 3.18001 14.32C3.97005 14.2255 4.76445 14.1721 5.56001 14.16C6.3478 14.1395 7.13608 14.1695 7.92001 14.25C8.74001 14.34 9.55001 14.38 10.37 14.4H13.99C15.21 14.4 16.49 14.49 17.74 14.5H18.74H21.31C21.4965 14.49 21.6835 14.49 21.87 14.5C21.9504 14.5119 22.0244 14.5507 22.08 14.61C22.2256 14.8364 22.3179 15.0928 22.35 15.36C22.3731 15.8381 22.3463 16.3174 22.27 16.79Z" fill="black"/>
<path fill-rule="evenodd" clip-rule="evenodd" d="M20.06 22.0499C19.9542 22.2571 19.7998 22.4355 19.61 22.5699H18.45H14.63C13.13 22.5699 11.63 22.6399 10.12 22.7199C9.12001 22.7699 8.12001 22.8599 7.12001 22.9399C6.57001 22.9899 5.82001 23.1399 5.12001 23.1399C4.72523 23.1419 4.3376 23.0346 4.00001 22.8299C3.77515 22.638 3.60016 22.3943 3.49001 22.1199C3.38001 21.9099 3.29001 21.6799 3.20001 21.4599C2.84001 21.1399 2.46001 21.3199 2.59001 21.6699C2.67759 22.0115 2.79126 22.3458 2.93001 22.6699C3.06786 22.9752 3.27298 23.2452 3.53001 23.4599C3.86797 23.7 4.25918 23.8545 4.67001 23.9099C5.49852 23.9804 6.3315 23.9804 7.16001 23.9099L14.66 23.6499L18.45 23.4699H19.45C19.6771 23.4599 19.8976 23.391 20.09 23.2699C20.3721 23.0463 20.6009 22.7628 20.76 22.4399C21.07 21.8399 21.14 21.2899 21.44 20.7799C21.44 20.2799 20.82 20.3699 20.73 20.7799C20.64 21.1899 20.34 21.5899 20.06 22.0499Z" fill="black"/>
</g>
<defs>
<clipPath id="clip0_1047_6549">
<rect width="24" height="24" fill="white"/>
</clipPath>
</defs>
</svg>
