<svg width="24" height="24" viewBox="0 0 24 24" fill="none" xmlns="http://www.w3.org/2000/svg">
<g clip-path="url(#clip0_1047_6572)">
<path fill-rule="evenodd" clip-rule="evenodd" d="M22 8.88998C21.3478 6.9539 20.3293 5.16133 19 3.60998C18.135 2.59594 17.124 1.7163 16 0.999982C15.06 0.379982 13 -0.780018 9.27 0.769982C7.7561 1.41101 6.40853 2.38919 5.33 3.62998C4.26838 4.85545 3.39238 6.2301 2.73 7.70998C1.32485 10.6408 0.84025 13.9284 1.34 17.14C1.52361 18.2484 1.94604 19.3037 2.57802 20.2327C3.21 21.1617 4.03641 21.9421 5 22.52C5.99797 23.0805 7.0831 23.4693 8.21 23.67C9.85817 23.9738 11.5378 24.0712 13.21 23.96C15.2068 23.885 17.1671 23.4017 18.97 22.54C20.2241 21.9228 21.2679 20.9486 21.97 19.74C22.2939 19.1413 22.5265 18.4975 22.66 17.83C22.8411 16.8708 22.9282 15.8961 22.92 14.92C22.9628 12.872 22.6515 10.832 22 8.88998ZM21.6 17.6C21.4766 18.159 21.2746 18.6977 21 19.2C20.3937 20.2024 19.5073 21.0054 18.45 21.51C16.7893 22.2927 14.9851 22.725 13.15 22.78C11.8456 22.8694 10.5355 22.8258 9.24 22.65C7.97451 22.4972 6.74765 22.1143 5.62 21.52C4.7876 21.0291 4.07142 20.3638 3.52074 19.5697C2.97005 18.7756 2.59794 17.8716 2.43 16.92C1.90041 13.9274 2.28009 10.8447 3.52 8.06998C4.12484 6.64947 4.92965 5.32272 5.91 4.12998C6.8926 2.95325 8.13067 2.01615 9.52999 1.38998C13.11 -0.170017 15.39 1.49998 15.58 1.61998C16.6047 2.3231 17.5182 3.17592 18.29 4.14998C19.5289 5.62287 20.4727 7.3204 21.07 9.14998C21.6565 10.9941 21.9171 12.9264 21.84 14.86C21.834 15.7801 21.7402 16.6976 21.56 17.6H21.6Z" fill="black"/>
<path fill-rule="evenodd" clip-rule="evenodd" d="M16.89 12.58C16.8874 12.534 16.8758 12.489 16.8559 12.4475C16.8359 12.406 16.8079 12.3688 16.7735 12.3382C16.7391 12.3075 16.699 12.2839 16.6555 12.2688C16.612 12.2537 16.566 12.2473 16.52 12.25L9.8 12.16C9.25139 12.2082 8.70066 12.2282 8.15 12.22C7.91758 12.2232 7.69128 12.1455 7.51 12C7.22 12.14 7.4 11.09 7.38 10.87C7.28 10.03 7.18 9.20997 7.12 8.36997C7.12 7.89997 7.06 7.42997 7.05 6.95997C7.73848 6.85163 8.43328 6.78816 9.13 6.76997H12.42H14.66L16.77 6.63997C16.8299 6.64538 16.8901 6.64538 16.95 6.63997C16.9797 6.7578 16.9965 6.87851 17 6.99997V8.14997V9.90997C17 10.81 16.93 11.7 16.88 12.59C16.8743 12.6823 16.9044 12.7733 16.964 12.844C17.0235 12.9148 17.1081 12.9599 17.2 12.97C17.2923 12.9757 17.3833 12.9456 17.454 12.886C17.5248 12.8264 17.5699 12.7419 17.58 12.65C17.68 11.75 17.79 10.86 17.88 9.95997C17.93 9.35997 17.98 8.75997 18 8.14997C18.0459 7.65102 18.0459 7.14892 18 6.64997C17.956 6.36232 17.8465 6.08861 17.68 5.84997C17.578 5.72262 17.4378 5.63146 17.28 5.58997C17.074 5.56571 16.866 5.56571 16.66 5.58997L14.5 5.69997C13.88 5.69997 13.26 5.75997 12.63 5.78997C11.63 5.78997 10.73 5.88997 9.78 5.97997C8.70766 6.05541 7.64376 6.22269 6.6 6.47997C6.6 6.47997 6.54 6.47997 6.5 6.54997L6.41 6.60997C6.36384 6.65523 6.33546 6.71556 6.33 6.77997C6.33 7.34997 6.27 7.91997 6.26 8.48997V11.02C6.24052 11.3864 6.24052 11.7536 6.26 12.12C6.28807 12.3744 6.38486 12.6164 6.54 12.82C6.82511 13.125 7.20642 13.3227 7.62 13.38C8.32154 13.4511 9.02847 13.4511 9.73 13.38C11.08 13.3 12.42 13.26 13.73 13.19C14.63 13.14 15.53 13.08 16.43 13C16.4903 13.0225 16.5557 13.0279 16.6189 13.0156C16.6822 13.0034 16.7408 12.9739 16.7883 12.9305C16.8359 12.8871 16.8705 12.8314 16.8885 12.7695C16.9064 12.7077 16.9069 12.6421 16.89 12.58Z" fill="black"/>
<path fill-rule="evenodd" clip-rule="evenodd" d="M5.7 17.8C5.7724 18.1576 5.98348 18.472 6.28707 18.6744C6.59066 18.8767 6.96205 18.9507 7.32 18.88C7.72267 18.8161 8.0871 18.6045 8.34224 18.2865C8.59738 17.9685 8.72492 17.5669 8.7 17.16C8.68549 16.938 8.62337 16.7217 8.51785 16.5259C8.41232 16.33 8.26588 16.1592 8.08847 16.0249C7.91105 15.8907 7.70682 15.7963 7.48966 15.748C7.27249 15.6997 7.04748 15.6988 6.82991 15.7452C6.61234 15.7916 6.40731 15.8843 6.22876 16.017C6.0502 16.1497 5.9023 16.3193 5.7951 16.5142C5.68791 16.7091 5.62393 16.9249 5.60752 17.1467C5.59111 17.3686 5.62265 17.5914 5.7 17.8ZM7.15 17.71C6.74 17.8 6.59 17.4 6.62 17.06C6.71 16.06 7.76 16.48 7.71 17.16C7.70036 17.3044 7.63798 17.4402 7.53473 17.5416C7.43148 17.643 7.29455 17.7029 7.15 17.71Z" fill="black"/>
<path fill-rule="evenodd" clip-rule="evenodd" d="M10.59 18.71C10.5604 18.961 10.6008 19.2152 10.7067 19.4447C10.8126 19.6741 10.9798 19.8698 11.19 20.01C11.4694 20.166 11.792 20.2265 12.1089 20.1824C12.4257 20.1383 12.7196 19.9921 12.9458 19.7659C13.172 19.5396 13.3183 19.2458 13.3624 18.9289C13.4064 18.612 13.3459 18.2894 13.19 18.01C12.45 16.82 10.86 17 10.59 18.71ZM12.13 19.03C12.0792 19.0572 12.0226 19.0714 11.965 19.0714C11.9074 19.0714 11.8508 19.0572 11.8 19.03C11.7375 19.005 11.6826 18.9642 11.6405 18.9116C11.5984 18.8591 11.5707 18.7965 11.56 18.73C11.5288 18.5526 11.5569 18.3699 11.64 18.21C11.6775 18.1429 11.721 18.0793 11.77 18.02C11.8696 18.0249 11.9669 18.0516 12.0551 18.0983C12.1432 18.1449 12.22 18.2104 12.28 18.29C12.3271 18.3427 12.3611 18.4057 12.3794 18.474C12.3976 18.5423 12.3995 18.6139 12.3849 18.683C12.3702 18.7522 12.3396 18.8169 12.2953 18.872C12.251 18.9271 12.1944 18.9709 12.13 19V19.03Z" fill="black"/>
<path fill-rule="evenodd" clip-rule="evenodd" d="M16.24 17.44C16.3071 17.747 16.4849 18.0186 16.7394 18.2031C16.9939 18.3875 17.3073 18.4718 17.62 18.44C17.8438 18.4314 18.0612 18.3628 18.2494 18.2414C18.4377 18.1201 18.5898 17.9503 18.69 17.75C18.8125 17.4862 18.8578 17.1931 18.8206 16.9047C18.7834 16.6162 18.6654 16.3441 18.48 16.12C18.2704 15.907 17.9956 15.7702 17.6992 15.7314C17.4029 15.6925 17.1021 15.7538 16.8447 15.9055C16.5872 16.0572 16.3878 16.2907 16.2783 16.5687C16.1687 16.8467 16.1552 17.1534 16.24 17.44ZM17.75 17.06C17.7474 17.1139 17.7242 17.1648 17.6851 17.2021C17.646 17.2393 17.594 17.2601 17.54 17.26C17.4851 17.2704 17.4285 17.2667 17.3754 17.2492C17.3224 17.2317 17.2746 17.2011 17.2366 17.1601C17.1987 17.1191 17.1717 17.0692 17.1583 17.0149C17.1449 16.9607 17.1455 16.904 17.16 16.85C17.1668 16.7198 17.2121 16.5945 17.29 16.49C17.3794 16.4754 17.4706 16.4754 17.56 16.49C17.6347 16.5192 17.6978 16.5718 17.74 16.64C17.7988 16.7732 17.8024 16.9242 17.75 17.06Z" fill="black"/>
</g>
<defs>
<clipPath id="clip0_1047_6572">
<rect width="24" height="24" fill="white"/>
</clipPath>
</defs>
</svg>
