<svg width="24" height="24" viewBox="0 0 24 24" fill="none" xmlns="http://www.w3.org/2000/svg">
<path fill-rule="evenodd" clip-rule="evenodd" d="M0.400005 2.67002C3.40001 2.75002 6.4 2.72002 9.4 2.76002C10.68 2.76002 11.95 2.76002 13.22 2.87002L17.68 2.80002C17.9463 2.77979 18.2137 2.77979 18.48 2.80002C18.5395 2.799 18.5982 2.81315 18.6507 2.84115C18.7032 2.86914 18.7477 2.91006 18.78 2.96002C18.8752 3.1455 18.9233 3.35156 18.92 3.56002C18.92 4.05002 18.86 4.56002 18.85 4.95002L19 12.9C19 13.0061 19.0421 13.1079 19.1172 13.1829C19.1922 13.2579 19.2939 13.3 19.4 13.3C19.4516 13.3014 19.5029 13.2923 19.5509 13.2731C19.5988 13.254 19.6423 13.2254 19.6788 13.1889C19.7153 13.1524 19.744 13.1088 19.7631 13.0609C19.7822 13.0129 19.7914 12.9616 19.79 12.91L20 5.00002C20.0886 4.42104 20.1287 3.83568 20.12 3.25002C20.108 2.91621 20.0153 2.59027 19.85 2.30002C19.7553 2.12626 19.627 1.9731 19.4724 1.84948C19.3179 1.72586 19.1403 1.63426 18.95 1.58002C18.5442 1.48323 18.1269 1.44285 17.71 1.46002L13.27 1.51002H9.39001C6.39001 1.60002 3.39001 1.83002 0.390005 1.92002C0.297179 1.92002 0.208156 1.9569 0.142518 2.02254C0.0768801 2.08817 0.0400052 2.1772 0.0400052 2.27002C0.0326291 2.32085 0.0365297 2.37268 0.0514302 2.42183C0.0663307 2.47098 0.091866 2.51625 0.126224 2.55443C0.160582 2.5926 0.202921 2.62275 0.250236 2.64272C0.297552 2.6627 0.348684 2.67202 0.400005 2.67002Z" fill="black"/>
<path fill-rule="evenodd" clip-rule="evenodd" d="M23.94 16.59C23.8994 16.1181 23.8225 15.6501 23.71 15.19C23.6327 14.921 23.5036 14.6696 23.33 14.45C23.271 14.3782 23.198 14.319 23.1155 14.276C23.0331 14.233 22.9427 14.2072 22.85 14.2C22.6975 14.1928 22.5467 14.2348 22.42 14.32C22.33 14.38 21.71 15.04 21.42 15.27C21.13 15.5 20.65 15.97 20.24 16.27L19.69 16.67C19.18 14.48 20.12 14.52 18.03 14.49H15.46C14.98 14.49 14.46 14.41 14.01 14.39C13.6606 14.3601 13.3094 14.3601 12.96 14.39C12.5565 14.4267 12.1715 14.5766 11.8495 14.8225C11.5275 15.0685 11.2816 15.4004 11.14 15.78C10.8438 16.7001 10.7052 17.6637 10.73 18.63C10.6802 19.2023 10.6802 19.7778 10.73 20.35C10.771 20.6757 10.8874 20.9873 11.07 21.26C11.5863 21.8889 12.3305 22.288 13.14 22.37C14.1369 22.4814 15.1431 22.4814 16.14 22.37C16.6882 22.3628 17.2357 22.3261 17.78 22.26C18.1963 22.2273 18.6065 22.1398 19 22C19.0475 21.9833 19.0912 21.9572 19.1285 21.9234C19.1659 21.8896 19.1961 21.8487 19.2175 21.8032C19.2389 21.7576 19.2511 21.7082 19.2532 21.6578C19.2553 21.6075 19.2475 21.5573 19.23 21.51C19.2825 21.5127 19.3351 21.505 19.3847 21.4874C19.4342 21.4697 19.4798 21.4425 19.5188 21.4072C19.5579 21.3719 19.5895 21.3292 19.612 21.2817C19.6345 21.2341 19.6474 21.1826 19.65 21.13C19.65 20.84 19.72 20.56 19.76 20.27C19.9635 20.4531 20.1808 20.6203 20.41 20.77C20.6373 20.8936 20.8749 20.9973 21.12 21.08C21.49 21.22 21.86 21.29 22.24 21.44C22.3302 21.4956 22.4388 21.5132 22.5419 21.4888C22.645 21.4644 22.7342 21.4001 22.79 21.31C22.8173 21.2661 22.8356 21.2173 22.8438 21.1662C22.852 21.1152 22.8501 21.0631 22.838 21.0128C22.8259 20.9626 22.8039 20.9152 22.7734 20.8736C22.7428 20.8319 22.7043 20.7967 22.66 20.77C22.3657 20.4818 22.0516 20.2145 21.72 19.97C21.5771 19.8717 21.4266 19.7847 21.27 19.71C21.1196 19.6322 20.9622 19.5686 20.8 19.52C20.4972 19.4441 20.1899 19.3873 19.88 19.35V19.02V18.1C19.88 17.79 19.88 17.66 19.81 17.45C20.11 17.31 20.4 17.16 20.68 17C21.15 16.73 21.6 16.44 22.06 16.15L22.43 15.9C22.43 16.21 22.51 16.52 22.54 16.75C22.6468 17.3324 22.7235 17.9198 22.77 18.51C22.86 19.42 22.93 20.33 23.02 21.24C23.0276 21.3435 23.0741 21.4402 23.1502 21.5107C23.2263 21.5812 23.3263 21.6203 23.43 21.62C23.4826 21.6175 23.5341 21.6046 23.5816 21.5821C23.6292 21.5595 23.6718 21.5279 23.7071 21.4889C23.7424 21.4499 23.7697 21.4043 23.7874 21.3547C23.805 21.3051 23.8127 21.2526 23.81 21.2C23.81 20.13 23.92 19.07 23.92 17.99C23.9733 17.53 23.98 17.0634 23.94 16.59ZM17.75 21.43C17.2238 21.4617 16.6962 21.4617 16.17 21.43C15.2443 21.4864 14.3153 21.4395 13.4 21.29C12.9141 21.2268 12.4725 20.9755 12.17 20.59C12.0885 20.4186 12.0507 20.2296 12.06 20.04V18.74C12.0279 17.9303 12.1224 17.1206 12.34 16.34C12.3968 16.1577 12.5022 15.9943 12.6449 15.8674C12.7877 15.7406 12.9623 15.655 13.15 15.62C13.4374 15.567 13.7281 15.5336 14.02 15.52H15.44C16.31 15.52 17.17 15.38 18.05 15.32H18.56V17.32V18.19C18.56 18.48 18.56 18.77 18.63 19.06C18.69 19.75 18.77 20.43 18.82 21.13C18.82 21.19 18.82 21.23 18.87 21.29C18.7988 21.2649 18.7212 21.2649 18.65 21.29C18.3569 21.3735 18.0546 21.4205 17.75 21.43Z" fill="black"/>
<path fill-rule="evenodd" clip-rule="evenodd" d="M3.32 16.85C2.82 16.85 2.12 17 1.51 17H1.41V16.76V14.28C1.41 13.09 1.41 11.9 1.32 10.71C1.18 8.94003 1 7.17003 1 5.40003V3.19003C1 3.0972 0.963125 3.00818 0.897487 2.94254C0.83185 2.8769 0.742826 2.84003 0.65 2.84003C0.557174 2.84003 0.46815 2.8769 0.402513 2.94254C0.336875 3.00818 0.3 3.0972 0.3 3.19003C0.13 4.65003 0.08 6.14003 0.05 7.62003C0 8.74003 0 9.85003 0 11V14.32L0.06 16.87V17.55C0.0739203 17.6708 0.117801 17.7863 0.187655 17.8858C0.25751 17.9853 0.351126 18.0659 0.46 18.12C0.781361 18.2291 1.12195 18.27 1.46 18.24C2.07 18.24 2.76 18 3.26 17.97L8.13 17.76C8.23434 17.7574 8.33353 17.7141 8.4064 17.6394C8.47927 17.5647 8.52003 17.4644 8.52 17.36C8.52002 17.308 8.50961 17.2564 8.48939 17.2084C8.46916 17.1605 8.43954 17.117 8.40226 17.0807C8.36498 17.0443 8.3208 17.0158 8.27232 16.9968C8.22384 16.9778 8.17205 16.9687 8.12 16.97L3.32 16.85Z" fill="black"/>
<path fill-rule="evenodd" clip-rule="evenodd" d="M14.94 12.66C14.7893 12.056 14.5134 11.4904 14.13 11C13.9579 10.7827 13.7559 10.5908 13.53 10.43C13.3101 10.2684 13.0675 10.1404 12.81 10.05C12.6895 10.0095 12.5657 9.97935 12.44 9.96001C13.2591 9.38618 13.8335 8.52636 14.05 7.55001C14.1667 6.907 14.0399 6.24356 13.6942 5.68897C13.3485 5.13437 12.8087 4.72834 12.18 4.55001C11.9714 4.47162 11.7576 4.40812 11.54 4.36001C11.3109 4.30155 11.0762 4.26802 10.84 4.26001C10.0483 4.25041 9.27061 4.46914 8.59999 4.89001C7.9124 5.27965 7.35565 5.86424 6.99999 6.57001C6.77847 7.00291 6.69609 7.49367 6.76411 7.97517C6.83213 8.45667 7.04723 8.90541 7.37999 9.26001C7.88889 9.73663 8.54486 10.0258 9.23999 10.08C8.49772 10.1326 7.77914 10.3638 7.14539 10.7538C6.51164 11.1438 5.98147 11.6811 5.59999 12.32C5.36718 12.7083 5.18567 13.1251 5.05999 13.56C4.78663 14.4399 4.76584 15.3789 4.99999 16.27C5.10999 16.65 5.83999 16.45 5.84999 16.27C5.85217 15.4933 5.99795 14.7237 6.27999 14C6.42085 13.6544 6.58801 13.3201 6.77999 13C6.96714 12.6916 7.18131 12.4005 7.41999 12.13C7.95603 11.4661 8.68156 10.9813 9.49999 10.74C9.59141 10.7253 9.67326 10.6749 9.72762 10.5999C9.78197 10.5249 9.8044 10.4315 9.78999 10.34C9.76861 10.2614 9.72315 10.1915 9.65999 10.14H9.80999C9.90282 10.14 9.99184 10.1031 10.0575 10.0375C10.1231 9.97186 10.16 9.88283 10.16 9.79001C10.16 9.69718 10.1231 9.60816 10.0575 9.54252C9.99184 9.47688 9.90282 9.44001 9.80999 9.44001C9.48517 9.4345 9.16532 9.35934 8.87204 9.2196C8.57876 9.07986 8.31889 8.8788 8.10999 8.63001C7.94461 8.3979 7.85573 8.12 7.85573 7.83501C7.85573 7.55001 7.94461 7.27211 8.10999 7.04001C8.38831 6.5961 8.78246 6.23652 9.24999 6.00001C9.71697 5.727 10.2491 5.58534 10.79 5.59001C10.9429 5.5747 11.097 5.5747 11.25 5.59001C11.4127 5.63086 11.573 5.68094 11.73 5.74001C11.955 5.79871 12.164 5.90698 12.3418 6.05687C12.5195 6.20677 12.6615 6.39451 12.7574 6.60636C12.8533 6.81821 12.9005 7.04881 12.8958 7.28129C12.8911 7.51377 12.8344 7.74224 12.73 7.95001C12.547 8.46555 12.2233 8.91956 11.7957 9.26066C11.368 9.60175 10.8533 9.8163 10.31 9.88001C10.2579 9.88127 10.2066 9.89297 10.1591 9.9144C10.1116 9.93583 10.0689 9.96656 10.0334 10.0048C9.99801 10.043 9.97061 10.0879 9.95284 10.1369C9.93507 10.1859 9.9273 10.238 9.92999 10.29C9.9326 10.3944 9.97589 10.4935 10.0506 10.5664C10.1254 10.6393 10.2256 10.68 10.33 10.68C10.5644 10.6585 10.7957 10.6115 11.02 10.54C11.4457 10.7149 11.8541 10.9292 12.24 11.18C12.5153 11.3368 12.7763 11.5175 13.02 11.72C13.5005 12.0603 13.9056 12.496 14.21 13C14.2296 13.0485 14.2588 13.0926 14.2958 13.1296C14.3329 13.1665 14.3769 13.1957 14.4255 13.2153C14.474 13.2349 14.5259 13.2445 14.5783 13.2436C14.6306 13.2427 14.6822 13.2313 14.73 13.21C14.7814 13.1895 14.828 13.1586 14.8668 13.1192C14.9057 13.0798 14.9359 13.0328 14.9557 12.9811C14.9754 12.9294 14.9842 12.8742 14.9815 12.8189C14.9788 12.7636 14.9647 12.7095 14.94 12.66Z" fill="black"/>
</svg>
