<svg width="24" height="24" viewBox="0 0 24 24" fill="none" xmlns="http://www.w3.org/2000/svg">
<g clip-path="url(#clip0_1047_6504)">
<path fill-rule="evenodd" clip-rule="evenodd" d="M2.2 1.67002C2.33 1.77002 2.48 1.87002 2.62 1.96002L3.07 2.22002C4.3 2.93002 4.41 3.14002 4.69 2.87002C4.82 2.74002 5.08 2.46002 3.8 1.25002C3.65148 1.1095 3.49086 0.98234 3.32 0.87002C3.15557 0.755172 2.97755 0.661123 2.79 0.59002C2.79 0.59002 1.14 2.0206e-05 1 0.50002C0.870003 0.79002 1 0.79002 2.2 1.67002Z" fill="black"/>
<path fill-rule="evenodd" clip-rule="evenodd" d="M7.00001 5.18008C6.92996 5.02498 6.84979 4.87465 6.76001 4.73008C5.76001 3.36008 5.52001 3.73008 5.49001 3.73008C5.46001 3.73008 5.19001 3.82008 5.64001 5.30008C5.64001 5.44008 5.75001 5.59008 5.81001 5.73008C5.87001 5.87008 5.95001 6.01008 6.03001 6.14008C6.73001 7.37008 6.81001 7.44008 7.09001 7.35008C7.37001 7.26008 7.55001 7.27008 7.16001 5.69008C7.123 5.51538 7.06942 5.34461 7.00001 5.18008Z" fill="black"/>
<path fill-rule="evenodd" clip-rule="evenodd" d="M9.28001 14.92C9.3632 14.8172 9.43061 14.7026 9.48001 14.58C9.69001 14.04 10.07 12.69 10.15 12.46C10.1787 12.3774 10.1795 12.2878 10.1524 12.2047C10.1254 12.1217 10.0718 12.0498 10 12C9.90453 11.9602 9.79716 11.96 9.70151 11.9994C9.60587 12.0387 9.52979 12.1145 9.49001 12.21C9.49001 12.28 9.34001 12.5 9.21001 12.77C9.13001 12.41 9.07001 12.05 8.99001 11.69C8.80363 10.9164 8.56986 10.1549 8.29001 9.40998C8.26868 9.32252 8.21355 9.24709 8.13669 9.20022C8.05983 9.15336 7.96752 9.13889 7.88001 9.15998C7.83691 9.17042 7.79636 9.18944 7.76078 9.2159C7.72519 9.24236 7.69531 9.27573 7.67291 9.314C7.6505 9.35226 7.63605 9.39466 7.63039 9.43864C7.62474 9.48262 7.62801 9.52729 7.64001 9.56998C7.76001 10.46 7.77001 11.36 7.85001 12.26C7.85001 12.65 7.96001 13.04 8.02001 13.43C8.07528 13.8338 8.15206 14.2344 8.25001 14.63C8.2967 14.8067 8.40712 14.9598 8.56001 15.06C8.6756 15.1316 8.81395 15.1569 8.94742 15.131C9.0809 15.105 9.19966 15.0297 9.28001 14.92Z" fill="black"/>
<path fill-rule="evenodd" clip-rule="evenodd" d="M11.82 10C11.8879 9.92987 11.9482 9.85278 12 9.77005C12.0454 9.67347 12.0822 9.57308 12.11 9.47005C12.43 8.40005 12.34 8.32005 12.17 8.21005C12 8.10005 11.76 8.05005 11.04 8.89005C10.9677 8.97695 10.904 9.07073 10.85 9.17005C10.7955 9.26714 10.755 9.37153 10.73 9.48005C10.73 9.59005 10.51 10.61 10.81 10.75C10.88 10.79 11.09 10.93 11.82 10Z" fill="black"/>
<path fill-rule="evenodd" clip-rule="evenodd" d="M14.21 7.63004C14.3133 7.59465 14.4136 7.55118 14.51 7.50004L14.79 7.31004C15.73 6.58004 15.69 6.43004 15.6 6.24004C15.51 6.05004 15.34 5.91004 14.24 6.24004C14.1202 6.27452 14.0032 6.31797 13.89 6.37004C13.7783 6.4308 13.6742 6.50465 13.58 6.59004C13.33 6.82004 12.73 7.52004 12.95 7.79004C13 7.86004 13 8.00004 14.21 7.63004Z" fill="black"/>
<path fill-rule="evenodd" clip-rule="evenodd" d="M23.74 4.87004C23.4502 4.15935 22.8991 3.58675 22.2 3.27004C21.5408 2.96579 20.8128 2.84157 20.09 2.91004C19.6571 2.94208 19.2355 3.06355 18.8519 3.26677C18.4682 3.46999 18.1309 3.75055 17.8612 4.09073C17.5915 4.43091 17.3953 4.82332 17.2849 5.24317C17.1746 5.66303 17.1525 6.10121 17.22 6.53004C17.62 9.78004 22.37 10.4 23.58 8.08004C23.8272 7.58514 23.969 7.04434 23.9966 6.49182C24.0241 5.9393 23.9368 5.38708 23.74 4.87004ZM22.74 7.66004C21.97 9.41004 18.43 8.93004 18.31 6.44004C18.2766 6.1662 18.3003 5.88842 18.3795 5.62416C18.4587 5.3599 18.5917 5.11489 18.7701 4.90451C18.9486 4.69413 19.1686 4.52294 19.4164 4.40171C19.6642 4.28047 19.9344 4.21181 20.21 4.20004C20.7049 4.15543 21.2032 4.23447 21.66 4.43004C22.0941 4.59969 22.4503 4.92378 22.66 5.34004C22.8265 5.7028 22.9168 6.09583 22.9254 6.49486C22.934 6.89389 22.8607 7.29045 22.71 7.66004H22.74Z" fill="black"/>
<path fill-rule="evenodd" clip-rule="evenodd" d="M6.91 19.2701C6.78 18.5501 6.58 17.8701 6.43 17.1601C6.42623 17.1154 6.41365 17.0718 6.39298 17.032C6.37231 16.9922 6.34396 16.9568 6.30956 16.928C6.27517 16.8992 6.2354 16.8775 6.19257 16.8641C6.14974 16.8507 6.10469 16.8459 6.06 16.8501C6.01479 16.8525 5.97056 16.8642 5.93005 16.8844C5.88955 16.9046 5.85364 16.933 5.82456 16.9677C5.79548 17.0024 5.77386 17.0427 5.76103 17.0861C5.74821 17.1295 5.74445 17.1751 5.75 17.2201C5.75 18.0501 5.66 18.8701 5.69 19.7001V20.1801C5.18 20.1101 4.62 20.0001 4 20.0001C3.72 20.0001 3.43 19.9501 3.15 19.9401C2.87 19.9301 2.59 19.9401 2.31 19.9401C1.64 19.9401 1 20.0401 0.310003 20.0301C0.266446 20.0215 0.22158 20.0221 0.178259 20.0318C0.134939 20.0415 0.0941107 20.0601 0.0583711 20.0864C0.0226316 20.1128 -0.00723748 20.1462 -0.0293371 20.1847C-0.0514367 20.2232 -0.0652833 20.2659 -0.0699966 20.3101C-0.0786317 20.3535 -0.0784486 20.3982 -0.0694581 20.4415C-0.0604675 20.4848 -0.0428532 20.5259 -0.0176631 20.5623C0.00752695 20.5987 0.0397782 20.6296 0.0771719 20.6533C0.114566 20.677 0.156338 20.6929 0.200003 20.7001C0.854771 20.9036 1.5231 21.0607 2.2 21.1701C2.5 21.1701 2.79 21.2301 3.08 21.2401C3.37 21.2501 3.65 21.2401 3.94 21.2401C4.56 21.2401 5.16 21.1201 5.76 21.0501C5.75452 21.1033 5.75452 21.1569 5.76 21.2101C5.86 21.9501 6.02 22.6601 6.14 23.3901C6.14758 23.4909 6.19305 23.5851 6.26726 23.6537C6.34147 23.7224 6.43892 23.7604 6.54 23.7601C6.60353 23.7757 6.67002 23.7748 6.73305 23.7572C6.79608 23.7396 6.85351 23.7061 6.89978 23.6598C6.94605 23.6136 6.97958 23.5561 6.99714 23.4931C7.0147 23.4301 7.01569 23.3636 7 23.3001C7 22.5701 7.09 21.8501 7.08 21.1201V20.1901C7.03889 19.8807 6.98215 19.5737 6.91 19.2701Z" fill="black"/>
<path fill-rule="evenodd" clip-rule="evenodd" d="M21.5 20.27C20.05 20.19 18.6 20.09 17.14 20.04H15.27C14.64 20.04 14 20 13.4 20C11.95 20.06 10.51 20.19 9.06 20.27C8.96983 20.27 8.88335 20.3058 8.81958 20.3696C8.75582 20.4333 8.72 20.5198 8.72 20.61C8.71866 20.6542 8.72621 20.6982 8.74219 20.7394C8.75817 20.7806 8.78227 20.8181 8.81305 20.8498C8.84382 20.8815 8.88066 20.9068 8.92136 20.924C8.96206 20.9412 9.00581 20.95 9.05 20.95C10.5 21.05 11.95 21.18 13.41 21.24H15.27H17.14C18.6 21.18 20.04 21.09 21.5 21.02C21.6008 21.02 21.6974 20.98 21.7687 20.9087C21.84 20.8374 21.88 20.7408 21.88 20.64C21.875 20.5418 21.833 20.4491 21.7626 20.3805C21.6921 20.3118 21.5983 20.2724 21.5 20.27Z" fill="black"/>
</g>
<defs>
<clipPath id="clip0_1047_6504">
<rect width="24" height="24" fill="white"/>
</clipPath>
</defs>
</svg>
