<svg width="24" height="24" viewBox="0 0 24 24" fill="none" xmlns="http://www.w3.org/2000/svg">
<g clip-path="url(#clip0_1047_6567)">
<path fill-rule="evenodd" clip-rule="evenodd" d="M23.43 17.27C23.3049 15.6401 22.9688 14.0333 22.43 12.49C22.0544 11.4038 21.4392 10.4161 20.63 9.59997C20.3349 9.33464 19.9967 9.12159 19.63 8.96997C19.1474 8.78672 18.6529 8.63638 18.15 8.51997C17.2325 8.29132 16.2946 8.15398 15.35 8.10997C13.99 8.03997 12.63 8.10997 11.22 8.10997C10.56 8.10997 7.22 8.35997 6.81 8.43997C5.96726 8.56484 5.13959 8.77595 4.34 9.06997C3.77023 9.29009 3.25503 9.63128 2.83 10.07C2.42133 10.5229 2.08413 11.0354 1.83 11.59C1.47589 12.3862 1.19474 13.2129 0.989998 14.06L0.709998 16L0.509998 17.66V18.84C0.480145 20.1345 0.772218 21.4162 1.36 22.57C1.59254 23.0302 1.99386 23.3828 2.48019 23.5543C2.96651 23.7257 3.50025 23.7027 3.97 23.49C4.34468 23.3318 4.69223 23.1158 5 22.85C5.57071 22.3407 6.10221 21.7891 6.59 21.2C6.97094 21.3041 7.36936 21.3279 7.76 21.27C8.28527 21.1509 8.76565 20.8844 9.14472 20.5018C9.5238 20.1192 9.78581 19.6363 9.9 19.11C10.34 19.2 10.75 19.31 11.2 19.36C11.383 19.375 11.567 19.375 11.75 19.36C11.9365 19.3699 12.1235 19.3699 12.31 19.36C12.71 19.3 13.09 19.22 13.49 19.14C13.5834 19.4995 13.7428 19.8386 13.96 20.14C14.2621 20.5348 14.6644 20.8413 15.1252 21.0278C15.586 21.2142 16.0884 21.2737 16.58 21.2C16.8321 21.1512 17.075 21.0635 17.3 20.94C17.6325 21.5259 18.0429 22.0642 18.52 22.54C18.9996 23.0288 19.5572 23.4343 20.17 23.74C20.557 23.9552 20.9984 24.0525 21.44 24.02C21.7816 23.9764 22.0969 23.8135 22.33 23.56C22.9282 22.8637 23.3012 22.0025 23.4 21.09C23.5577 19.8221 23.5678 18.5402 23.43 17.27ZM11.27 8.88997C12.6 8.88997 13.88 8.88997 15.15 9.04997C15.0204 9.75498 14.8535 10.4526 14.65 11.14C14.5351 11.5294 14.3092 11.8768 14 12.14C13.8476 12.2263 13.6752 12.2712 13.5 12.27C13.06 12.27 12.58 12.27 12.24 12.33L10.73 12.49C10.437 12.5111 10.143 12.5111 9.85 12.49C9.60041 12.4961 9.35214 12.4519 9.12 12.36C8.93763 12.2506 8.77905 12.1057 8.65366 11.9339C8.52828 11.7622 8.43862 11.567 8.39 11.36C8.13971 10.6121 7.96222 9.84191 7.86 9.05997C7.86 8.99997 7.86 8.96997 7.79 8.91997C9.17 8.99997 9.15 8.82997 11.27 8.88997ZM8.87 18.68C8.81334 19.0173 8.65906 19.3306 8.42624 19.5812C8.19342 19.8318 7.89226 20.0087 7.56 20.09C7.27193 20.1392 6.97598 20.1114 6.70206 20.0096C6.42814 19.9078 6.18596 19.7354 6 19.51C5.78866 19.2938 5.64201 19.0229 5.57662 18.7278C5.51124 18.4327 5.52973 18.1251 5.63 17.84C5.78166 17.4842 6.01051 17.1665 6.3 16.91C6.60402 16.7167 6.95086 16.601 7.31005 16.5731C7.66923 16.5452 8.02978 16.6059 8.36 16.75C8.63045 16.9822 8.82403 17.291 8.91509 17.6357C9.00616 17.9803 8.99044 18.3445 8.87 18.68ZM16.4 20C16.112 20.0461 15.817 20.017 15.5437 19.9153C15.2703 19.8137 15.0279 19.643 14.84 19.42C14.6304 19.2028 14.4856 18.9314 14.422 18.6363C14.3584 18.3412 14.3785 18.0342 14.48 17.75C15.32 15.75 18.36 16.07 17.72 18.59C17.6602 18.9276 17.5036 19.2406 17.2693 19.4909C17.0349 19.7412 16.7329 19.9181 16.4 20ZM22.4 21C22.3585 21.7256 22.1008 22.4221 21.66 23C21.602 23.0648 21.5312 23.117 21.452 23.1531C21.3728 23.1893 21.287 23.2086 21.2 23.21C20.9672 23.2009 20.7389 23.143 20.53 23.04C19.9894 22.7878 19.4931 22.4501 19.06 22.04C18.6169 21.6258 18.2302 21.1551 17.91 20.64L17.85 20.57C18.3226 20.1182 18.6439 19.5314 18.77 18.89C18.9089 18.3482 18.8768 17.7767 18.6781 17.2539C18.4793 16.7311 18.1237 16.2827 17.66 15.97C16.9335 15.6514 16.1122 15.6254 15.3671 15.8974C14.6219 16.1694 14.0104 16.7184 13.66 17.43C13.4906 17.7372 13.3948 18.0795 13.38 18.43C13.01 18.38 12.65 18.32 12.27 18.29C12.0868 18.2797 11.9032 18.2797 11.72 18.29C11.537 18.2755 11.353 18.2755 11.17 18.29C10.7695 18.3497 10.3723 18.4298 9.98 18.53C10.0481 18.0447 9.9783 17.5501 9.77846 17.1026C9.57862 16.6552 9.25686 16.2731 8.85 16C8.68451 15.9068 8.5058 15.8393 8.32 15.8C7.93899 15.6803 7.53527 15.6514 7.14111 15.7157C6.74695 15.7799 6.37329 15.9355 6.05 16.17L6 16.23C5.52541 16.5409 5.13405 16.9632 4.86 17.46C4.64256 17.8992 4.55528 18.3915 4.60843 18.8788C4.66159 19.366 4.85296 19.8279 5.16 20.21C5.36506 20.4817 5.6195 20.7124 5.91 20.89C5.55 21.26 5.2 21.64 4.81 21.97C4.47319 22.2849 4.07482 22.5266 3.64 22.68C3.36907 22.7868 3.06719 22.7839 2.79836 22.6719C2.52953 22.5599 2.31491 22.3476 2.2 22.08C1.75644 21.0781 1.5642 19.983 1.64 18.89L1.71 17.79L1.91 16.19L2.22 14.41C2.37859 13.6248 2.60614 12.8551 2.9 12.11C3.08561 11.6364 3.33818 11.1919 3.65 10.79C3.96117 10.421 4.34608 10.1213 4.78 9.90997C5.49408 9.59639 6.2378 9.35518 7 9.18997L7.24 9.12997V9.18997C7.2477 10.1858 7.39583 11.1755 7.68 12.13C7.84107 12.6285 8.16965 13.0561 8.61 13.34C8.89932 13.5054 9.21902 13.6108 9.55 13.65C9.9816 13.7048 10.4184 13.7048 10.85 13.65L12.44 13.47C12.82 13.4 13.44 13.41 13.9 13.29C14.188 13.2259 14.4559 13.0919 14.68 12.9C15.0967 12.4913 15.3851 11.9701 15.51 11.4C15.6603 10.6665 15.7705 9.92542 15.84 9.17997C15.84 9.17997 15.84 9.17997 15.84 9.11997C16.5408 9.20552 17.2331 9.34935 17.91 9.54997C18.3527 9.67147 18.7869 9.82179 19.21 9.99997C19.4458 10.1066 19.6621 10.2519 19.85 10.43C20.5255 11.1274 21.0348 11.9683 21.34 12.89C21.8417 14.3414 22.1608 15.8497 22.29 17.38C22.4723 18.5507 22.5193 19.7385 22.43 20.92L22.4 21Z" fill="black"/>
<path fill-rule="evenodd" clip-rule="evenodd" d="M12.59 3.90001C12.2086 3.79993 11.8122 3.76944 11.42 3.81001C11.0353 3.85093 10.6602 3.9557 10.31 4.12001C9.54646 4.50882 8.89565 5.08732 8.42 5.80001C8.39308 5.83087 8.3725 5.86673 8.35944 5.90555C8.34638 5.94436 8.34109 5.98537 8.34388 6.02623C8.34666 6.06708 8.35747 6.10699 8.37568 6.14367C8.39389 6.18036 8.41914 6.21309 8.45 6.24001C8.48086 6.26693 8.51673 6.28751 8.55554 6.30057C8.59435 6.31364 8.63536 6.31892 8.67622 6.31614C8.71708 6.31335 8.75698 6.30255 8.79367 6.28434C8.83035 6.26613 8.86308 6.24087 8.89 6.21001C9.42169 5.7445 10.0502 5.40293 10.73 5.21001C10.9966 5.1161 11.271 5.04583 11.55 5.00001C12.0225 4.92294 12.5068 4.96487 12.959 5.12201C13.4112 5.27915 13.8171 5.54655 14.14 5.90001C14.1726 5.93327 14.2115 5.95969 14.2544 5.97773C14.2973 5.99577 14.3434 6.00506 14.39 6.00506C14.4366 6.00506 14.4827 5.99577 14.5256 5.97773C14.5685 5.95969 14.6074 5.93327 14.64 5.90001C14.673 5.86829 14.6992 5.83024 14.7171 5.78814C14.735 5.74604 14.7443 5.70076 14.7443 5.65501C14.7443 5.60926 14.735 5.56398 14.7171 5.52188C14.6992 5.47978 14.673 5.44173 14.64 5.41001C14.1568 4.68001 13.4305 4.14498 12.59 3.90001Z" fill="black"/>
<path fill-rule="evenodd" clip-rule="evenodd" d="M6.36 4.19997C7.19781 2.96926 8.41173 2.04304 9.82 1.55997C10.618 1.2636 11.4718 1.1475 12.32 1.21997C12.8828 1.2555 13.4347 1.39095 13.95 1.61997C14.4123 1.82333 14.8407 2.09651 15.22 2.42997C15.8064 2.98782 16.3419 3.59691 16.82 4.24997C16.8459 4.28864 16.8795 4.32157 16.9186 4.34673C16.9578 4.37189 17.0017 4.38874 17.0477 4.39624C17.0936 4.40374 17.1406 4.40173 17.1857 4.39033C17.2308 4.37893 17.2731 4.35839 17.31 4.32997C17.3475 4.30314 17.3794 4.26916 17.4038 4.22997C17.4281 4.19077 17.4445 4.14715 17.4519 4.10161C17.4594 4.05607 17.4577 4.00951 17.4471 3.96461C17.4365 3.91971 17.4171 3.87735 17.39 3.83997C16.9428 3.10571 16.4307 2.41295 15.86 1.76997C15.4387 1.32955 14.9532 0.955325 14.42 0.659974C13.7997 0.324117 13.1208 0.110259 12.42 0.0299744C11.3954 -0.0700477 10.3623 0.0952515 9.42 0.509974C7.86864 1.18662 6.59745 2.3766 5.82 3.87997C5.79899 3.91543 5.78517 3.95468 5.77932 3.99548C5.77348 4.03628 5.77573 4.07783 5.78594 4.11776C5.79616 4.15769 5.81414 4.19521 5.83886 4.22819C5.86357 4.26117 5.89454 4.28896 5.93 4.30997C5.96546 4.33099 6.00471 4.34481 6.0455 4.35065C6.0863 4.35649 6.12785 4.35424 6.16778 4.34403C6.20771 4.33382 6.24524 4.31584 6.27822 4.29112C6.3112 4.2664 6.33899 4.23543 6.36 4.19997Z" fill="black"/>
</g>
<defs>
<clipPath id="clip0_1047_6567">
<rect width="24" height="24" fill="white"/>
</clipPath>
</defs>
</svg>
