<svg width="24" height="24" viewBox="0 0 24 24" fill="none" xmlns="http://www.w3.org/2000/svg">
<g clip-path="url(#clip0_1047_6535)">
<path fill-rule="evenodd" clip-rule="evenodd" d="M18.48 13.5001C18.444 13.3165 18.3938 13.136 18.33 12.9601C18.1413 12.2317 17.8554 11.5321 17.48 10.8801C17.1664 10.4271 16.724 10.0787 16.21 9.88009C15.8201 9.71897 15.4146 9.59833 15 9.52009C14.6073 9.43606 14.2099 9.37595 13.81 9.34009H12.86C11.6496 9.36791 10.4443 9.50851 9.26 9.76009C8.54052 9.92 7.86043 10.2226 7.26 10.6501C7.0704 10.8031 6.89925 10.9776 6.75 11.1701C6.54725 11.4469 6.36987 11.7414 6.22 12.0501C6.13369 12.2348 6.06019 12.4253 6 12.6201C5.94 12.8201 5.9 13.0101 5.86 13.2101C5.81399 13.4913 5.78726 13.7753 5.78 14.0601V15.2601C5.74128 16.0036 5.81545 16.7488 6 17.4701C6.11035 17.8692 6.34939 18.2207 6.68 18.4701C7.20807 18.8068 7.84502 18.9284 8.46 18.8101C9.05913 18.7207 9.61333 18.4401 10.04 18.0101C10.1336 17.9218 10.2144 17.8208 10.28 17.7101C10.48 17.4201 10.6 17.0901 10.8 16.8201H11L12.34 16.7001L13.67 16.7501C13.73 16.7501 13.91 16.8301 13.99 16.7501C14.43 17.2301 14.78 18.0901 15.32 18.5801C15.4955 18.756 15.7071 18.8918 15.9402 18.9781C16.1732 19.0644 16.4222 19.0992 16.67 19.0801C16.8555 19.0711 17.0382 19.0306 17.21 18.9601C17.3668 18.8975 17.5174 18.8205 17.66 18.7301C17.9728 18.5485 18.2404 18.2986 18.443 17.999C18.6456 17.6995 18.7779 17.358 18.83 17.0001C18.8954 16.088 18.8246 15.1713 18.62 14.2801C18.58 14.0001 18.54 13.7601 18.48 13.5001ZM11.48 10.0301H11.54H12.89C13.1865 10.0149 13.4835 10.0149 13.78 10.0301L14.44 10.1401C14.3256 10.4821 14.1886 10.8162 14.03 11.1401C13.927 11.3605 13.7641 11.5476 13.56 11.6801L13.02 11.7701C12.72 11.7701 12.39 11.8401 12.07 11.8501C11.757 11.8702 11.443 11.8702 11.13 11.8501C11.0002 11.8594 10.8698 11.8594 10.74 11.8501C10.6513 11.8448 10.5653 11.8173 10.49 11.7701L10.28 11.3701C10.1558 11.1368 10.0456 10.8964 9.95 10.6501C9.91407 10.552 9.88401 10.4518 9.86 10.3501C10.3885 10.1986 10.9263 10.0817 11.47 10.0001L11.48 10.0301ZM10.13 15.4601C10.0522 15.518 9.9621 15.5571 9.8667 15.5744C9.7713 15.5918 9.67319 15.5869 9.58 15.5601C9.47549 15.5518 9.37452 15.5184 9.28572 15.4627C9.19691 15.407 9.1229 15.3306 9.07 15.2401C9.03754 15.1642 9.0208 15.0826 9.0208 15.0001C9.0208 14.9176 9.03754 14.8359 9.07 14.7601C9.0667 14.7302 9.0667 14.7 9.07 14.6701C9.13262 14.6077 9.20324 14.5539 9.28 14.5101C9.35147 14.4682 9.42909 14.4378 9.51 14.4201C9.62736 14.3881 9.74835 14.3713 9.87 14.3701C9.95616 14.3662 10.042 14.3833 10.12 14.4201C10.3 14.5001 10.31 14.7101 10.3 14.9001C10.3099 15.0008 10.299 15.1024 10.268 15.1987C10.2371 15.2951 10.1867 15.384 10.12 15.4601H10.13ZM14.62 15.6201C14.525 15.6102 14.4341 15.5767 14.3554 15.5225C14.2768 15.4684 14.213 15.3953 14.17 15.3101C14.1378 15.2324 14.1212 15.1492 14.1212 15.0651C14.1212 14.981 14.1378 14.8978 14.17 14.8201C14.1846 14.7858 14.2013 14.7524 14.22 14.7201C14.2763 14.6618 14.3402 14.6113 14.41 14.5701C14.4763 14.5322 14.5468 14.502 14.62 14.4801L14.96 14.4301C15.0327 14.4325 15.1041 14.4495 15.17 14.4801C15.34 14.5601 15.33 14.7701 15.33 14.9701C15.3313 15.1781 15.2525 15.3786 15.11 15.5301C15.0409 15.5858 14.9588 15.6232 14.8715 15.6389C14.7841 15.6546 14.6942 15.6482 14.61 15.6201H14.62ZM17.89 16.8201C17.8508 17.0294 17.766 17.2275 17.6415 17.4004C17.5171 17.5732 17.3561 17.7165 17.17 17.8201C17.087 17.8767 16.996 17.9206 16.9 17.9501C16.8167 17.9811 16.7288 17.998 16.64 18.0001C16.4861 17.9987 16.3352 17.9575 16.202 17.8804C16.0687 17.8032 15.9578 17.6929 15.88 17.5601C15.65 17.2601 15.44 16.9201 15.23 16.5601C15.4443 16.5045 15.6451 16.4058 15.82 16.2701C16.1461 15.9275 16.3286 15.473 16.33 15.0001C16.3332 14.7273 16.2537 14.4599 16.102 14.2332C15.9503 14.0065 15.7334 13.8311 15.48 13.7301C15.3118 13.695 15.1382 13.695 14.97 13.7301C14.7632 13.7594 14.5614 13.8166 14.37 13.9001C14.2421 13.9136 14.1172 13.9473 14 14.0001C13.7737 14.1669 13.5917 14.3866 13.47 14.6401C13.342 14.904 13.3034 15.2023 13.36 15.4901C13.36 15.4901 13.36 15.5401 13.36 15.5601H12.92H12.31L11.23 15.6601C11.3328 15.41 11.3772 15.1399 11.36 14.8701C11.3616 14.5923 11.2768 14.3208 11.1174 14.0933C10.9579 13.8657 10.7317 13.6934 10.47 13.6001C10.298 13.5696 10.122 13.5696 9.95 13.6001C9.73652 13.6281 9.5279 13.6853 9.33 13.7701C9.19181 13.8237 9.0608 13.8942 8.94 13.9801C8.70031 14.1391 8.50433 14.3557 8.37 14.6101C8.24111 14.8808 8.20255 15.1858 8.26 15.4801C8.31918 15.7323 8.44226 15.965 8.61739 16.1559C8.79252 16.3468 9.01382 16.4894 9.26 16.5701C9.39198 16.6168 9.53014 16.6438 9.67 16.6501L9.27 17.3001C8.99724 17.5656 8.64695 17.7372 8.27 17.7901C7.93063 17.8638 7.57607 17.8142 7.27 17.6501C7.05447 17.4702 6.9122 17.2176 6.87 16.9401C6.7644 16.3832 6.71748 15.8168 6.73 15.2501V14.0701C6.70513 13.8274 6.70513 13.5828 6.73 13.3401C6.74942 13.175 6.77948 13.0113 6.82 12.8501C6.86855 12.6828 6.92869 12.519 7 12.3601C7.09404 12.1357 7.20433 11.9184 7.33 11.7101C7.44869 11.5178 7.59721 11.3457 7.77 11.2001C8.22287 10.851 8.73903 10.593 9.29 10.4401V10.7601C9.35 11.0401 9.43 11.3101 9.51 11.5801C9.59 11.8501 9.59 11.9201 9.65 12.0801C9.70138 12.1865 9.76884 12.2843 9.85 12.3701C9.98669 12.4984 10.1461 12.6001 10.32 12.6701C10.5291 12.7524 10.7474 12.8094 10.97 12.8401C11.3369 12.8992 11.7086 12.9226 12.08 12.9101C12.4462 12.8893 12.8104 12.8426 13.17 12.7701C13.377 12.7321 13.581 12.6786 13.78 12.6101C13.8941 12.5603 14.0016 12.4965 14.1 12.4201C14.327 12.2216 14.5079 11.9758 14.63 11.7001C14.817 11.2445 14.9609 10.7725 15.06 10.2901C15.3362 10.3559 15.607 10.4429 15.87 10.5501C16.2423 10.712 16.5587 10.9797 16.78 11.3201C17.099 11.9195 17.3377 12.5584 17.49 13.2201L17.7 14.4001C17.8797 15.1934 17.9404 16.009 17.88 16.8201H17.89Z" fill="black"/>
<path fill-rule="evenodd" clip-rule="evenodd" d="M4.16 18.61C4.16033 18.5248 4.12866 18.4426 4.07125 18.3796C4.01384 18.3166 3.93488 18.2775 3.85 18.27C3.76583 18.2699 3.68479 18.3019 3.62345 18.3595C3.56211 18.4171 3.5251 18.496 3.52 18.58C3.52098 19.3219 3.56438 20.0631 3.65 20.8C3.19212 20.3869 2.77057 19.9353 2.39 19.45C2.08024 19.0431 1.82788 18.5956 1.64 18.12C1.26123 17.0545 1.07171 15.9309 1.08 14.8C1.04417 13.661 1.17214 12.5227 1.46 11.42C1.59773 10.6874 1.8879 9.99188 2.31169 9.37859C2.73548 8.76531 3.28342 8.24793 3.92 7.86001C3.98658 7.82561 4.03788 7.76752 4.06379 7.6972C4.0897 7.62687 4.08835 7.54939 4.06 7.48001C4.0275 7.41417 3.97125 7.36311 3.90258 7.33713C3.83391 7.31114 3.75794 7.31217 3.69 7.34001C1.84 8.10001 0.689999 10.09 0.209999 12.34C-0.00905453 13.3578 -0.0797863 14.402 -1.08033e-06 15.44C0.0826846 16.4757 0.339629 17.4899 0.759999 18.44C1.02158 18.9752 1.35832 19.4702 1.76 19.91C3.54 22 4 21.59 3.26 21.59L0.769999 21.78C0.733229 21.78 0.696819 21.7873 0.662848 21.8013C0.628876 21.8154 0.598009 21.836 0.572009 21.862C0.546009 21.888 0.525384 21.9189 0.511313 21.9529C0.497241 21.9868 0.489999 22.0232 0.489999 22.06C0.488654 22.0963 0.494643 22.1325 0.507609 22.1664C0.520574 22.2003 0.540249 22.2313 0.565456 22.2574C0.590663 22.2836 0.620884 22.3044 0.654311 22.3185C0.687738 22.3327 0.723685 22.34 0.759999 22.34L3.24 22.63C3.46167 22.6655 3.68555 22.6855 3.91 22.69C3.98609 22.6872 4.0608 22.6689 4.12958 22.6362C4.19835 22.6036 4.25974 22.5572 4.31 22.5C4.61489 22.0974 4.74792 21.5904 4.68 21.09C4.61 20.24 4.17 19.21 4.16 18.61Z" fill="black"/>
<path fill-rule="evenodd" clip-rule="evenodd" d="M23.84 13.73C23.4426 11.4928 22.2137 9.48868 20.4 8.11997C20.62 8.11997 20.84 8.05997 21.07 8.04997C21.5362 8.02024 22.0038 8.02024 22.47 8.04997C22.5535 8.06449 22.6394 8.04527 22.7088 7.99652C22.7782 7.94777 22.8254 7.87348 22.84 7.78997C22.8545 7.70643 22.8353 7.62055 22.7865 7.55118C22.7378 7.4818 22.6635 7.43461 22.58 7.41997C21.9969 7.24423 21.3969 7.13027 20.79 7.07997C20.3687 7.06367 19.9469 7.08711 19.53 7.14997C19.4088 7.18163 19.3009 7.25103 19.2218 7.34811C19.1427 7.44519 19.0965 7.56491 19.09 7.68997V8.25997L19.3 10.45C19.2922 10.4905 19.2935 10.5322 19.3038 10.5721C19.314 10.6121 19.3329 10.6493 19.3592 10.681C19.3855 10.7128 19.4184 10.7384 19.4557 10.756C19.493 10.7735 19.5338 10.7826 19.575 10.7826C19.6162 10.7826 19.657 10.7735 19.6943 10.756C19.7316 10.7384 19.7645 10.7128 19.7908 10.681C19.8171 10.6493 19.836 10.6121 19.8462 10.5721C19.8565 10.5322 19.8578 10.4905 19.85 10.45L20.09 8.58997C21.5687 9.97892 22.5195 11.838 22.78 13.85C22.915 14.7132 22.9452 15.5895 22.87 16.46C22.7765 17.7694 22.3976 19.0425 21.76 20.19C21.5338 20.6257 21.2799 21.0466 21 21.45C20.8324 21.6916 20.6303 21.9072 20.4 22.09C20.3343 22.1431 20.2915 22.2193 20.2803 22.303C20.2692 22.3867 20.2905 22.4715 20.34 22.54C20.3655 22.5736 20.3974 22.6018 20.4339 22.623C20.4704 22.6442 20.5107 22.658 20.5525 22.6636C20.5943 22.6692 20.6369 22.6664 20.6776 22.6555C20.7184 22.6446 20.7566 22.6257 20.79 22.6C21.0738 22.3943 21.3293 22.1522 21.55 21.88C21.8634 21.4905 22.1539 21.0832 22.42 20.66C23.2073 19.4546 23.7132 18.0875 23.9 16.66C24.0343 15.6862 24.0141 14.6974 23.84 13.73Z" fill="black"/>
<path fill-rule="evenodd" clip-rule="evenodd" d="M7.76 7.00003C8.14256 6.96882 8.50514 6.81614 8.79478 6.56428C9.08443 6.31241 9.28597 5.97456 9.37 5.60003C9.45004 5.29181 9.45004 4.96825 9.37 4.66003C9.28703 4.36739 9.12836 4.10179 8.91 3.89003C9.00999 3.71145 9.07132 3.51384 9.09 3.31003C9.16352 2.98451 9.11569 2.64336 8.95551 2.3506C8.79532 2.05785 8.53379 1.83363 8.22 1.72003C7.93303 1.6367 7.62802 1.63865 7.34215 1.72566C7.05627 1.81266 6.80189 1.98096 6.61 2.21003C6.58339 2.2361 6.56225 2.26722 6.54782 2.30156C6.53339 2.3359 6.52596 2.37278 6.52596 2.41003C6.52596 2.44728 6.53339 2.48416 6.54782 2.5185C6.56225 2.55284 6.58339 2.58396 6.61 2.61003C6.6352 2.63635 6.66547 2.65729 6.69899 2.6716C6.7325 2.68591 6.76856 2.69328 6.805 2.69328C6.84144 2.69328 6.8775 2.68591 6.91101 2.6716C6.94453 2.65729 6.9748 2.63635 7 2.61003C7.1284 2.48157 7.29303 2.39548 7.47179 2.3633C7.65054 2.33113 7.83486 2.35441 8 2.43003C8.22 2.53003 8.28 2.79003 8.2 3.17003C8.12 3.55003 7.69 3.61003 7.66 3.64003C7.56685 3.69182 7.49312 3.77257 7.45 3.87003C7.40623 3.9497 7.38329 4.03913 7.38329 4.13003C7.38329 4.22093 7.40623 4.31036 7.45 4.39003C7.52717 4.51379 7.64885 4.60327 7.79 4.64003C7.79 4.64003 8.08 4.75003 8.12 4.64003C8.2147 4.72638 8.28388 4.83707 8.32 4.96003C8.35513 5.09783 8.35513 5.24223 8.32 5.38003C8.29807 5.5722 8.21548 5.75238 8.08421 5.89443C7.95295 6.03648 7.77984 6.13302 7.59 6.17003C7.37427 6.21956 7.14921 6.21044 6.9382 6.14361C6.72718 6.07679 6.5379 5.95471 6.39 5.79003C6.33632 5.74412 6.26895 5.71726 6.1984 5.71364C6.12786 5.71002 6.0581 5.72985 6 5.77003C5.96564 5.79481 5.93654 5.82616 5.91439 5.86228C5.89223 5.89839 5.87748 5.93854 5.87096 5.9804C5.86445 6.02226 5.86632 6.065 5.87645 6.10614C5.88659 6.14727 5.90479 6.18598 5.93 6.22003C6.14047 6.4984 6.42011 6.71686 6.74114 6.85369C7.06218 6.99053 7.41343 7.04098 7.76 7.00003Z" fill="black"/>
<path fill-rule="evenodd" clip-rule="evenodd" d="M10.64 5.91003C10.7455 6.12581 10.9037 6.31152 11.1 6.45003C11.2447 6.55751 11.4072 6.63874 11.58 6.69003C11.749 6.7385 11.9242 6.76208 12.1 6.76003C12.2933 6.76849 12.4865 6.74137 12.67 6.68003C12.8173 6.62862 12.9557 6.55438 13.08 6.46003C13.1743 6.37047 13.2612 6.2735 13.34 6.17003C13.4128 6.06928 13.4764 5.96218 13.53 5.85003C13.6296 5.68059 13.693 5.49232 13.716 5.29714C13.7391 5.10195 13.7214 4.9041 13.6641 4.7161C13.6068 4.5281 13.511 4.35406 13.3829 4.20498C13.2549 4.0559 13.0972 3.93503 12.92 3.85003C12.6519 3.70485 12.3423 3.65546 12.0423 3.71C11.7423 3.76454 11.4699 3.91976 11.27 4.15003V3.79003C11.2716 3.42229 11.3464 3.05856 11.49 2.72003C11.5394 2.58662 11.6154 2.46464 11.7134 2.3615C11.8114 2.25836 11.9293 2.17621 12.06 2.12003C12.1906 2.07234 12.331 2.05743 12.4687 2.07661C12.6064 2.09579 12.7374 2.14847 12.85 2.23003C12.9524 2.30257 13.0464 2.38644 13.13 2.48003C13.2165 2.58517 13.2966 2.69536 13.37 2.81003C13.4078 2.87565 13.4697 2.92389 13.5426 2.94445C13.6155 2.965 13.6935 2.95624 13.76 2.92003C13.8239 2.88062 13.8701 2.81795 13.8887 2.74521C13.9074 2.67247 13.8971 2.59533 13.86 2.53003C13.7662 2.35764 13.6627 2.1907 13.55 2.03003C13.46 1.92003 13.36 1.82003 13.26 1.72003C13.068 1.55 12.8374 1.42928 12.5883 1.3683C12.3391 1.30732 12.0789 1.30791 11.83 1.37003C11.5861 1.44081 11.3588 1.55952 11.1613 1.7192C10.9639 1.87889 10.8002 2.07635 10.68 2.30003C10.4307 2.73596 10.2773 3.22008 10.23 3.72003C10.195 4.21501 10.2458 4.71232 10.38 5.19003C10.4456 5.43711 10.5326 5.67802 10.64 5.91003ZM11.64 4.79003C11.6779 4.71142 11.7317 4.64155 11.7981 4.58484C11.8644 4.52813 11.9418 4.48582 12.0254 4.46059C12.1089 4.43537 12.1968 4.42777 12.2834 4.4383C12.37 4.44882 12.4536 4.47723 12.5286 4.52172C12.6037 4.56621 12.6687 4.62581 12.7196 4.69675C12.7704 4.76769 12.8059 4.84842 12.8239 4.93382C12.8419 5.01922 12.842 5.10742 12.8241 5.19284C12.8062 5.27826 12.7707 5.35903 12.72 5.43003C12.43 5.76003 12.57 5.69003 12.15 5.73003C12.0737 5.74045 11.9963 5.74045 11.92 5.73003C11.8514 5.70329 11.7873 5.66619 11.73 5.62003C11.6577 5.56042 11.6054 5.48018 11.58 5.39003C11.5165 5.26562 11.4662 5.13491 11.43 5.00003C11.477 4.98419 11.5191 4.95656 11.5524 4.9198C11.5856 4.88303 11.6089 4.83835 11.62 4.79003H11.64Z" fill="black"/>
<path fill-rule="evenodd" clip-rule="evenodd" d="M16 6.37999C16.2205 6.47117 16.4603 6.50612 16.6977 6.48168C16.9351 6.45724 17.1627 6.37419 17.36 6.23999C17.8342 5.94955 18.1889 5.49909 18.36 4.96999C18.6 4.26314 18.6 3.49683 18.36 2.78999C18.2216 2.32608 17.9195 1.92814 17.51 1.66999C17.2316 1.57797 16.9368 1.54645 16.6452 1.57752C16.3537 1.60859 16.0721 1.70154 15.8194 1.85016C15.5666 1.99878 15.3485 2.19965 15.1796 2.43932C15.0107 2.679 14.8949 2.95197 14.84 3.23999C14.699 3.84516 14.7408 4.47856 14.96 5.05999C15.1269 5.61588 15.4986 6.08768 16 6.37999ZM15.5 3.37999C15.61 2.37999 16.73 2.03999 17.13 2.37999C17.2879 2.56231 17.3948 2.78309 17.44 3.01999C17.5549 3.45248 17.5549 3.90749 17.44 4.33999C17.4046 4.5301 17.3314 4.7112 17.225 4.87263C17.1185 5.03406 16.9808 5.17256 16.82 5.27999C16.7455 5.33295 16.6564 5.36141 16.565 5.36141C16.4736 5.36141 16.3845 5.33295 16.31 5.27999C16.0689 5.1154 15.8784 4.88684 15.76 4.61999C15.5512 4.23785 15.4542 3.80467 15.48 3.36999L15.5 3.37999Z" fill="black"/>
</g>
<defs>
<clipPath id="clip0_1047_6535">
<rect width="24" height="24" fill="white"/>
</clipPath>
</defs>
</svg>
