<svg width="24" height="24" viewBox="0 0 24 24" fill="none" xmlns="http://www.w3.org/2000/svg">
<g clip-path="url(#clip0_1047_6641)">
<path d="M22.9 7.09001C22.48 6.00001 21.59 5.17001 19.65 5.00001C17.96 4.88001 17.91 5.21001 18.12 4.78001C18.8321 3.38461 19.4372 1.93711 19.93 0.450007C19.9495 0.367865 19.9378 0.281395 19.8971 0.207427C19.8564 0.13346 19.7896 0.0772857 19.7097 0.0498387C19.6299 0.0223917 19.5427 0.0256351 19.4651 0.0589377C19.3875 0.0922403 19.3251 0.15322 19.29 0.230007C19.15 0.620007 16.94 5.12001 16.84 5.12001C16.32 4.26001 15.84 4.12001 14.52 2.20001C13.28 0.660007 13.15 7.27177e-06 12.69 0.310007C12.23 0.620007 12.84 1.31001 15.6 5.18001C13.11 5.24001 8.36999 5.12001 5.46999 5.18001C5.37982 5.18001 5.29334 5.21583 5.22958 5.27959C5.16581 5.34335 5.12999 5.42983 5.12999 5.52001C5.12999 5.61018 5.16581 5.69666 5.22958 5.76042C5.29334 5.82419 5.37982 5.86001 5.46999 5.86001C7.85999 5.86001 11.68 5.94001 14.27 5.98001C19.27 6.05001 17.6 5.73001 19.56 5.90001C20.72 6.01001 21.56 6.33001 21.97 7.39001C22.48 8.84001 22.79 17.47 22.02 19.31C21.7991 19.7542 21.458 20.1274 21.0355 20.3873C20.613 20.6472 20.126 20.7832 19.63 20.78C14.5616 21.0733 9.48122 21.1 4.40999 20.86C3.78884 20.7937 3.18167 20.6318 2.60999 20.38C1.60999 19.92 1.71999 18.68 1.60999 17.62C1.31999 14.33 0.149992 6.78001 3.30999 6.19001C4.06999 5.99001 3.56999 5.49001 3.19999 5.59001C-0.550007 6.20001 0.489993 13.92 0.769993 17.74C0.939993 20.12 0.959993 21.27 3.92999 21.82C3.75496 22.3926 3.64428 22.9829 3.59999 23.58C3.58275 23.6689 3.60152 23.7609 3.65215 23.8359C3.70278 23.9109 3.78114 23.9628 3.86999 23.98C3.95884 23.9972 4.0509 23.9785 4.12591 23.9279C4.20093 23.8772 4.25275 23.7989 4.26999 23.71C4.45566 23.1283 4.54682 22.5206 4.53999 21.91C9.42102 22.2175 14.3156 22.2475 19.2 22C19.2612 22.6028 19.4235 23.191 19.68 23.74C19.7065 23.8262 19.7662 23.8983 19.8459 23.9405C19.9256 23.9827 20.0188 23.9915 20.105 23.965C20.1912 23.9385 20.2633 23.8788 20.3055 23.7991C20.3477 23.7194 20.3565 23.6262 20.33 23.54C20.24 23.14 20.09 22.38 19.99 21.9C22.73 21.45 23.35 19.96 23.51 17.42C23.7 14.54 23.47 8.60001 22.9 7.09001Z" fill="black"/>
<path d="M4.54999 11C4.73207 10.4566 4.97707 9.93642 5.27999 9.44998C5.36999 9.28998 5.56999 9.20998 5.54999 8.99998C5.54999 8.99998 5.25999 8.57998 5.00999 8.83998C3.34999 10.62 2.61999 15.51 4.74999 18.33C5.55999 19.41 14.68 19.15 15.96 19.08C17.24 19.01 18.88 19.02 19.69 17.83C20.94 16 20.95 13.99 20.55 11.83C20.47 11.41 19.92 9.27998 19.42 8.98998C18.07 8.21998 8.12999 8.47998 6.55999 8.48998C6.46982 8.48998 6.38334 8.5258 6.31958 8.58956C6.25582 8.65332 6.21999 8.7398 6.21999 8.82998C6.21999 8.92015 6.25582 9.00663 6.31958 9.07039C6.38334 9.13415 6.46982 9.16998 6.55999 9.16998C6.89999 9.16998 17.31 9.21998 18.84 9.81998C19.1463 10.5177 19.3678 11.2496 19.5 12C19.7242 12.875 19.7733 13.7857 19.6446 14.6798C19.5159 15.5738 19.2119 16.4337 18.75 17.21C18.24 17.94 16.75 17.91 15.89 17.96C14.17 18.08 7.07999 18.29 5.42999 17.77C4.82792 16.9818 4.43877 16.052 4.29999 15.07C4.10826 13.7103 4.1933 12.3259 4.54999 11Z" fill="black"/>
</g>
<defs>
<clipPath id="clip0_1047_6641">
<rect width="24" height="24" fill="white"/>
</clipPath>
</defs>
</svg>
