<svg width="24" height="24" viewBox="0 0 24 24" fill="none" xmlns="http://www.w3.org/2000/svg">
<path fill-rule="evenodd" clip-rule="evenodd" d="M15.31 2.38C15.2284 2.3871 15.1522 2.42337 15.0953 2.48215C15.0383 2.54093 15.0045 2.61828 15 2.7C14.8 5.4 15 8.98 14.45 12.2C14.2703 13.4942 13.8996 14.7546 13.35 15.94C12.26 18.22 10.24 19.83 6.44998 19.94C5.42767 19.9038 4.41651 19.715 3.44998 19.38C2.4411 19.1326 1.49006 18.691 0.649979 18.08C0.614646 18.0443 0.572592 18.016 0.526249 17.9967C0.479906 17.9773 0.430191 17.9674 0.379979 17.9674C0.329767 17.9674 0.280052 17.9773 0.233709 17.9967C0.187365 18.016 0.145312 18.0443 0.109979 18.08C0.0403066 18.1526 0.00140381 18.2494 0.00140381 18.35C0.00140381 18.4506 0.0403066 18.5474 0.109979 18.62C0.99136 19.3602 2.01114 19.9176 3.10998 20.26C4.17623 20.6735 5.29897 20.923 6.43998 21C10.81 21 13.2 19.11 14.44 16.48C15.0393 15.1755 15.4146 13.7792 15.55 12.35C15.94 9.06 15.55 5.45 15.55 2.72C15.5533 2.64475 15.5315 2.57053 15.4881 2.50899C15.4446 2.44745 15.382 2.40208 15.31 2.38Z" fill="black"/>
<path fill-rule="evenodd" clip-rule="evenodd" d="M6.74997 10.3C7.68997 10.3 8.28997 9.36 8.48997 8.11C8.5552 7.60878 8.5552 7.10122 8.48997 6.6C8.39561 5.88393 8.26545 5.17304 8.09997 4.47C8.09997 4.37983 8.06415 4.29335 8.00038 4.22958C7.93662 4.16582 7.85014 4.13 7.75997 4.13C7.66979 4.13 7.58331 4.16582 7.51955 4.22958C7.45579 4.29335 7.41997 4.37983 7.41997 4.47C7.41997 4.86 7.30997 5.88 7.26997 6.96C7.27394 7.47421 7.25057 7.98827 7.19997 8.5C7.11997 9.01 7.06997 9.45 6.66997 9.5C6.5692 9.51491 6.47791 9.5677 6.41473 9.6476C6.35154 9.72751 6.32123 9.82851 6.32997 9.93C6.32948 9.9831 6.34043 10.0357 6.36206 10.0842C6.3837 10.1327 6.41552 10.1759 6.45537 10.211C6.49521 10.2461 6.54215 10.2722 6.59298 10.2876C6.64381 10.3029 6.69735 10.3072 6.74997 10.3Z" fill="black"/>
<path fill-rule="evenodd" clip-rule="evenodd" d="M6.52999 12.11C6.28423 12.0801 6.03575 12.0801 5.78999 12.11C5.20611 12.1596 4.65203 12.3892 4.20422 12.7672C3.75641 13.1451 3.43697 13.6528 3.28999 14.22C3.15685 14.7891 3.19286 15.3848 3.39361 15.9337C3.59436 16.4827 3.9511 16.961 4.41999 17.31C4.81609 17.6013 5.28148 17.7841 5.76999 17.84C6.21854 17.8857 6.67159 17.8553 7.10999 17.75C7.41896 17.6766 7.71783 17.5657 7.99999 17.42C8.88899 16.934 9.5922 16.1675 9.99999 15.24C10.022 15.1948 10.0348 15.1456 10.0376 15.0954C10.0405 15.0451 10.0333 14.9948 10.0166 14.9474C9.99983 14.8999 9.97383 14.8563 9.94008 14.819C9.90634 14.7817 9.86552 14.7514 9.81999 14.73C9.77638 14.7064 9.72836 14.6921 9.67896 14.6879C9.62955 14.6838 9.57982 14.6899 9.53287 14.7058C9.48593 14.7218 9.44279 14.7473 9.40616 14.7807C9.36953 14.8141 9.34019 14.8547 9.31999 14.9C9.18104 15.1526 9.01687 15.3905 8.82999 15.61C8.64648 15.8202 8.4421 16.0111 8.21999 16.18C8.02783 16.3153 7.81956 16.4262 7.59999 16.51C7.3767 16.5933 7.14551 16.6536 6.90999 16.69C6.57887 16.7443 6.24111 16.7443 5.90999 16.69C5.6317 16.6411 5.37223 16.5165 5.15999 16.33C4.88774 16.1239 4.68132 15.843 4.56591 15.5216C4.4505 15.2002 4.43107 14.8522 4.50999 14.52C4.5825 14.1658 4.76607 13.8439 5.03402 13.6011C5.30197 13.3583 5.64035 13.2073 5.99999 13.17C6.16937 13.1494 6.34062 13.1494 6.50999 13.17C6.80202 13.1752 7.09307 13.2053 7.37999 13.26C8.13282 13.3766 8.86625 13.5953 9.55999 13.91C9.64123 13.949 9.7344 13.9552 9.82008 13.9273C9.90577 13.8993 9.97738 13.8394 10.02 13.76C10.0404 13.7208 10.0528 13.6778 10.0563 13.6337C10.0598 13.5896 10.0544 13.5452 10.0404 13.5032C10.0264 13.4612 10.0041 13.4225 9.97481 13.3893C9.94554 13.3561 9.90989 13.3291 9.86999 13.31C9.50889 13.1027 9.13478 12.919 8.74999 12.76C8.36744 12.6058 7.97688 12.4723 7.57999 12.36C7.23598 12.2533 6.88519 12.1697 6.52999 12.11Z" fill="black"/>
<path fill-rule="evenodd" clip-rule="evenodd" d="M10.27 4.62C10.4954 4.40214 10.7965 4.28025 11.11 4.28C11.203 4.2696 11.2969 4.2696 11.39 4.28C11.8795 4.37776 12.3247 4.63015 12.66 5C12.6871 5.04261 12.7228 5.0792 12.7646 5.10752C12.8065 5.13584 12.8537 5.15528 12.9033 5.16465C12.953 5.17402 13.0041 5.17312 13.0534 5.162C13.1027 5.15088 13.1491 5.12978 13.19 5.1C13.2315 5.07189 13.267 5.03584 13.2945 4.99393C13.3221 4.95202 13.341 4.90508 13.3503 4.85582C13.3596 4.80655 13.3591 4.75593 13.3487 4.70688C13.3383 4.65783 13.3184 4.61131 13.29 4.57C13.0824 4.10016 12.7632 3.6882 12.36 3.37C12.1638 3.21989 11.9393 3.11103 11.7 3.05C11.4318 2.97488 11.1481 2.97488 10.88 3.05C10.608 3.14753 10.3615 3.30519 10.1589 3.51124C9.95634 3.71728 9.80288 3.96639 9.70998 4.24C9.66001 4.31439 9.64144 4.4055 9.65829 4.49351C9.67514 4.58153 9.72606 4.65933 9.79998 4.71C9.8751 4.75747 9.96548 4.77459 10.0528 4.75787C10.14 4.74116 10.2177 4.69187 10.27 4.62Z" fill="black"/>
<path fill-rule="evenodd" clip-rule="evenodd" d="M2.49001 5.05C2.91988 4.69833 3.44648 4.4856 4.00001 4.44C4.13314 4.42977 4.26687 4.42977 4.40001 4.44C4.77003 4.44221 5.12619 4.58111 5.40001 4.83C5.45068 4.90391 5.52848 4.95483 5.61649 4.97169C5.70451 4.98854 5.79561 4.96997 5.87001 4.92C5.91297 4.89729 5.95074 4.86588 5.9809 4.82777C6.01106 4.78966 6.03295 4.74568 6.04518 4.69864C6.05741 4.65161 6.0597 4.60254 6.05193 4.55457C6.04415 4.50659 6.02647 4.46077 6.00001 4.42C5.88359 4.13919 5.70814 3.88669 5.48557 3.67965C5.26299 3.4726 4.99849 3.31584 4.71001 3.22C4.44882 3.13485 4.17089 3.11426 3.90001 3.16C3.64039 3.19251 3.38929 3.27395 3.16001 3.4C2.6634 3.6699 2.24095 4.05801 1.93001 4.53C1.89307 4.56461 1.86363 4.60643 1.8435 4.65287C1.82337 4.69931 1.81299 4.74939 1.81299 4.8C1.81299 4.85062 1.82337 4.90069 1.8435 4.94713C1.86363 4.99358 1.89307 5.03539 1.93001 5.07C1.96697 5.10756 2.01134 5.13702 2.0603 5.15651C2.10926 5.176 2.16174 5.18509 2.21441 5.18321C2.26707 5.18133 2.31877 5.16852 2.36621 5.14558C2.41366 5.12265 2.45582 5.0901 2.49001 5.05Z" fill="black"/>
<path fill-rule="evenodd" clip-rule="evenodd" d="M17.43 13.2C17.419 13.1538 17.3985 13.1105 17.3698 13.0727C17.3411 13.035 17.3047 13.0037 17.2632 12.9808C17.2216 12.9579 17.1757 12.944 17.1284 12.9399C17.0812 12.9358 17.0336 12.9417 16.9887 12.9571C16.9438 12.9725 16.9027 12.9972 16.8679 13.0294C16.8331 13.0617 16.8055 13.1009 16.7868 13.1445C16.7681 13.1881 16.7587 13.2352 16.7592 13.2826C16.7598 13.33 16.7703 13.3768 16.79 13.42C16.8133 13.8173 16.7966 14.216 16.74 14.61L16.68 15.28V15.73C16.6558 16.0723 16.5817 16.4092 16.46 16.73C16.4321 16.7719 16.4127 16.819 16.4031 16.8684C16.3935 16.9178 16.3939 16.9687 16.4041 17.018C16.4143 17.0673 16.4343 17.1141 16.4628 17.1557C16.4912 17.1972 16.5277 17.2327 16.57 17.26C16.6115 17.2893 16.6585 17.3098 16.7082 17.3202C16.7579 17.3305 16.8092 17.3306 16.8589 17.3203C16.9086 17.3099 16.9557 17.2895 16.9972 17.2602C17.0387 17.2309 17.0737 17.1934 17.1 17.15C17.4399 16.7831 17.7018 16.351 17.87 15.88C17.9411 15.6595 17.9848 15.4311 18 15.2C18.03 14.9877 18.03 14.7723 18 14.56C17.8919 14.0765 17.6989 13.6161 17.43 13.2Z" fill="black"/>
<path fill-rule="evenodd" clip-rule="evenodd" d="M19.25 11C19.2104 11.0209 19.1756 11.0495 19.1474 11.0843C19.1193 11.119 19.0985 11.1591 19.0864 11.2021C19.0742 11.2452 19.0709 11.2902 19.0767 11.3345C19.0825 11.3788 19.0972 11.4215 19.12 11.46C19.5379 12.4578 19.7061 13.5425 19.61 14.62C19.61 15.27 19.54 15.93 19.46 16.62C19.3458 17.6369 19.1382 18.6411 18.84 19.62C18.8188 19.6657 18.8071 19.7154 18.8057 19.7658C18.8044 19.8162 18.8133 19.8663 18.8321 19.9132C18.8508 19.96 18.8789 20.0025 18.9147 20.0381C18.9504 20.0736 18.9931 20.1015 19.04 20.12C19.1345 20.1578 19.2398 20.1582 19.3346 20.121C19.4293 20.0838 19.5064 20.012 19.55 19.92C20.0412 18.9681 20.4172 17.9609 20.67 16.92C20.8343 16.2055 20.9048 15.4727 20.88 14.74C20.8386 13.4828 20.4282 12.2656 19.7 11.24C19.6922 11.1912 19.6732 11.1449 19.6445 11.1047C19.6158 11.0645 19.5782 11.0315 19.5346 11.0082C19.491 10.985 19.4426 10.9721 19.3933 10.9707C19.3439 10.9693 19.2948 10.9793 19.25 11Z" fill="black"/>
<path fill-rule="evenodd" clip-rule="evenodd" d="M23.89 13.51C23.7863 12.8053 23.6156 12.1122 23.38 11.44C23.1599 10.7471 22.8216 10.0975 22.38 9.52C22.3282 9.44574 22.2491 9.39507 22.1601 9.37913C22.071 9.36319 21.9792 9.38328 21.905 9.435C21.8307 9.48672 21.78 9.56582 21.7641 9.6549C21.7481 9.74398 21.7682 9.83574 21.82 9.91C22.0842 10.3476 22.2798 10.8231 22.4 11.32C22.5811 12.0768 22.675 12.8518 22.68 13.63C22.7249 14.3827 22.7249 15.1373 22.68 15.89C22.6705 16.6432 22.6104 17.3949 22.5 18.14C22.3588 19.1446 22.1073 20.1305 21.75 21.08C21.7287 21.1257 21.7171 21.1754 21.7157 21.2258C21.7143 21.2762 21.7233 21.3263 21.742 21.3732C21.7608 21.42 21.7889 21.4625 21.8246 21.4981C21.8604 21.5336 21.903 21.5615 21.95 21.58C22.0415 21.6206 22.1454 21.6235 22.239 21.5879C22.3327 21.5523 22.4085 21.4812 22.45 21.39C23.0744 20.1845 23.5191 18.8942 23.77 17.56C23.8927 16.8997 23.9662 16.2312 23.99 15.56C23.997 14.8753 23.9636 14.1908 23.89 13.51Z" fill="black"/>
</svg>
