<svg width="24" height="24" viewBox="0 0 24 24" fill="none" xmlns="http://www.w3.org/2000/svg">
<g clip-path="url(#clip0_1030_2849)">
<path d="M1.30996 15.21C1.36996 15.29 1.40996 15.37 1.47996 15.46C2.63395 16.7498 3.98381 17.85 5.47996 18.72C6.90432 19.67 8.4611 20.4046 10.1 20.9C10.6153 21.0546 11.1646 21.0546 11.68 20.9C12.4014 20.3196 13.0707 19.6772 13.68 18.98C15.53 17.05 18.37 13.9 20.52 11.23C21.4797 10.0276 22.3615 8.76501 23.16 7.45C23.3959 7.08576 23.5558 6.67758 23.63 6.25C23.5143 5.84272 23.2595 5.48886 22.91 5.25C21.9979 4.57537 21.0235 3.98937 20 3.5C18.4995 2.74942 16.9412 2.12072 15.34 1.62C14.8731 1.44988 14.3706 1.40169 13.88 1.48C13.6361 1.59186 13.4048 1.7293 13.19 1.89C12.8821 2.098 12.585 2.32163 12.3 2.56C12.24 2.61879 12.2039 2.6977 12.1986 2.78153C12.1934 2.86536 12.2193 2.94816 12.2715 3.01399C12.3236 3.07982 12.3983 3.12401 12.4811 3.13804C12.5639 3.15208 12.649 3.13496 12.72 3.09C13.04 2.84 13.33 2.63 13.58 2.47C13.7572 2.34477 13.9485 2.24073 14.15 2.16C14.4173 2.14569 14.6843 2.19361 14.93 2.3L15.6 2.53L15.54 2.7C15.3925 2.91091 15.2653 3.13524 15.16 3.37C15.0706 3.56918 15.0165 3.78234 15 4C14.9939 4.17046 15.0217 4.34042 15.0818 4.50005C15.1419 4.65968 15.233 4.80582 15.35 4.93C15.7367 5.31136 16.1867 5.62266 16.68 5.85L18.15 6.49C18.3932 6.62259 18.6568 6.71384 18.93 6.76C19.1565 6.79092 19.3871 6.76338 19.6 6.68L20.6 6.08L21.03 5.88H21.09C21.1721 5.84368 21.2393 5.78009 21.28 5.7C21.3143 5.60294 21.3143 5.49706 21.28 5.4C21.6 5.61 21.89 5.82 22.12 6C22.65 6.42 22.61 6.3 22.5 6.54C22.3645 6.81855 22.2073 7.08604 22.03 7.34C21.27 8.47 19.91 10.12 18.41 11.88C16.41 14.27 14.06 16.88 12.58 18.44C11.81 19.26 11.32 19.82 11.22 19.87C10.7379 19.9574 10.2408 19.9017 9.78996 19.71C8.46271 19.2381 7.19166 18.6211 5.99996 17.87C4.58762 17.0984 3.30531 16.1097 2.19996 14.94C1.94996 14.63 1.75996 14.4 1.81996 14.21C1.914 14.0048 2.03507 13.8131 2.17996 13.64C2.35996 13.38 2.60996 13.08 2.89996 12.73C2.93564 12.6947 2.96396 12.6526 2.98329 12.6063C3.00261 12.5599 3.01257 12.5102 3.01257 12.46C3.01257 12.4098 3.00261 12.3601 2.98329 12.3137C2.96396 12.2674 2.93564 12.2253 2.89996 12.19C2.86549 12.1546 2.82428 12.1265 2.77877 12.1073C2.73325 12.0881 2.68436 12.0782 2.63496 12.0782C2.58556 12.0782 2.53667 12.0881 2.49115 12.1073C2.44564 12.1265 2.40443 12.1546 2.36996 12.19C2.04752 12.5404 1.74377 12.9076 1.45996 13.29C1.26253 13.495 1.10637 13.736 0.999961 14C0.999961 14 0.749961 14.27 1.30996 15.21ZM20.31 5.27L19.31 5.68C19.2505 5.69089 19.1895 5.69089 19.13 5.68C18.983 5.61901 18.8451 5.53826 18.72 5.44L17.29 4.71C16.9422 4.57384 16.6075 4.40649 16.29 4.21C16.16 4.12 16 4.09 16 4C15.9762 3.86773 15.9762 3.73227 16 3.6C16.05 3.41 16.12 3.23 16.17 3.09L16.24 2.82C16.98 3.12 17.8 3.49 18.62 3.91C19.44 4.33 20.19 4.73 20.85 5.13C20.6585 5.13526 20.4706 5.18308 20.3 5.27H20.31Z" fill="black"/>
<path d="M23.31 8.46C23.2318 8.76875 23.1106 9.06498 22.95 9.34C21.2699 11.7879 19.4607 14.1445 17.53 16.4C15.9901 18.2888 14.3477 20.0915 12.61 21.8C12.2721 22.1802 11.8649 22.4924 11.41 22.72C10.25 22.98 7.93 22.01 5.78 20.82C4.2963 20.0453 2.9267 19.0694 1.71 17.92C1.45586 17.7095 1.27114 17.4272 1.18 17.11C1.15063 16.6939 1.15063 16.2761 1.18 15.86C1.18 15.55 0.659998 15.2 0.589998 15.49C0.439919 16.0254 0.346079 16.5751 0.309998 17.13C0.390102 17.6601 0.643242 18.1488 1.03 18.52C2.27305 19.7867 3.68666 20.8738 5.23 21.75C6.54997 22.5796 7.96303 23.2509 9.44 23.75C10.1496 23.9938 10.9054 24.0725 11.65 23.98C12.227 23.7722 12.7499 23.4372 13.18 23C14.6569 21.6406 16.0307 20.1732 17.29 18.61C20.42 14.83 23.6 10.18 23.72 9.31C23.8328 8.80494 23.8666 8.28541 23.82 7.77C23.6 7.42 23.39 8.22 23.31 8.46Z" fill="black"/>
<path fill-rule="evenodd" clip-rule="evenodd" d="M7.45997 11.91C7.5634 11.91 7.6626 11.8689 7.73574 11.7958C7.80888 11.7226 7.84997 11.6234 7.84997 11.52C7.92997 10.04 8.05997 8.52 8.09997 7.07V4.07C7.99997 3.6 7.83997 1.55 7.83997 0.73V0.54C7.8622 0.493121 7.87374 0.441885 7.87374 0.39C7.87374 0.338115 7.8622 0.286878 7.83997 0.24C7.69997 -0.12 7.44997 -2.68221e-07 7.29997 0.11C7.18201 0.281655 7.11288 0.482122 7.09997 0.69C6.98997 1.51 6.87997 3.59 6.83997 4.11V7.11C6.83997 8.6 6.99997 10.11 7.08997 11.56C7.09737 11.6538 7.1393 11.7415 7.20765 11.8062C7.276 11.8708 7.36591 11.9078 7.45997 11.91Z" fill="black"/>
<path fill-rule="evenodd" clip-rule="evenodd" d="M9.85998 7.22L10.07 8.63C10.1025 8.84289 10.1493 9.05336 10.21 9.26C10.226 9.31129 10.253 9.35848 10.2891 9.39829C10.3252 9.43809 10.3695 9.46956 10.419 9.49049C10.4685 9.51143 10.5219 9.52134 10.5756 9.51953C10.6294 9.51771 10.682 9.50422 10.73 9.48C11.05 9.31 10.89 9.56 11.05 7.22C11.075 6.7937 11.075 6.3663 11.05 5.94C11.05 5.66 10.99 5.38 10.95 5.09C10.83 4.46004 10.7631 3.82114 10.75 3.18C10.7587 3.13599 10.7586 3.0907 10.7497 3.04673C10.7408 3.00275 10.7234 2.96097 10.6983 2.92379C10.6732 2.88661 10.6409 2.85476 10.6035 2.83008C10.566 2.8054 10.5241 2.78838 10.48 2.78C10.4353 2.77139 10.3893 2.77185 10.3447 2.78135C10.3002 2.79086 10.258 2.80921 10.2207 2.83533C10.1834 2.86144 10.1517 2.89479 10.1275 2.93338C10.1034 2.97198 10.0872 3.01503 10.08 3.06C9.86575 3.75391 9.74798 4.47399 9.72998 5.2V6.2C9.72998 6.51 9.83998 6.89 9.85998 7.22Z" fill="black"/>
<path fill-rule="evenodd" clip-rule="evenodd" d="M13.27 8.2C13.34 8.2 13.56 8.14 13.71 7.78C13.8476 7.50176 13.9452 7.20551 14 6.9C14.0301 6.71454 14.0301 6.52546 14 6.34C13.9311 6.04985 13.8305 5.76816 13.7 5.5C13.6974 5.40892 13.6594 5.32244 13.594 5.25895C13.5287 5.19546 13.4411 5.15996 13.35 5.16C13.3049 5.15992 13.2603 5.16907 13.2189 5.18689C13.1775 5.20471 13.1402 5.23082 13.1093 5.26361C13.0784 5.29641 13.0545 5.33519 13.0391 5.37756C13.0238 5.41994 13.0173 5.46501 13.02 5.51C12.8947 5.77234 12.7975 6.0472 12.73 6.33C12.7047 6.51246 12.7047 6.69754 12.73 6.88C12.85 8.26 13.14 8.2 13.27 8.2Z" fill="black"/>
<path fill-rule="evenodd" clip-rule="evenodd" d="M3.19998 9V9.46C3.11998 10.37 3.58998 10.34 3.58998 10.34C3.58998 10.34 4.05998 10.34 3.97998 9.46V9.12L4.13998 8.12C4.24006 7.59105 4.31018 7.05686 4.34998 6.52C4.35685 5.97827 4.32342 5.43677 4.24998 4.9L4.09998 3.58V3.14C4.12749 3.05029 4.12691 2.95431 4.09831 2.86493C4.06971 2.77556 4.01447 2.69707 3.93998 2.64C3.74998 2.46 3.43998 2.64 3.41998 3.05C3.41998 3.17 3.30998 3.49 3.29998 3.57L3.16998 4.91V6.44V7.99L3.19998 9Z" fill="black"/>
<path fill-rule="evenodd" clip-rule="evenodd" d="M0.859986 8.54C0.999986 8.54 1.21999 8.63 1.42999 7.17C1.45013 6.99056 1.45013 6.80944 1.42999 6.63C1.29999 5.27 1.11999 5.31 1.08999 5.29C1.05999 5.27 0.769986 5.2 0.539986 5.57C0.357932 5.87957 0.229459 6.21765 0.159986 6.57C0.134985 6.76587 0.134985 6.96413 0.159986 7.16C0.204664 7.46832 0.28521 7.77037 0.399986 8.06C0.539986 8.45 0.779986 8.56 0.859986 8.54Z" fill="black"/>
</g>
<defs>
<clipPath id="clip0_1030_2849">
<rect width="24" height="24" fill="white"/>
</clipPath>
</defs>
</svg>
