<svg width="24" height="24" viewBox="0 0 24 24" fill="none" xmlns="http://www.w3.org/2000/svg">
<g clip-path="url(#clip0_1030_2839)">
<path fill-rule="evenodd" clip-rule="evenodd" d="M18.4 18.56C18.3526 18.565 18.3067 18.5793 18.2649 18.6022C18.2231 18.625 18.1862 18.6559 18.1565 18.6931C18.1267 18.7304 18.1046 18.7731 18.0915 18.8189C18.0784 18.8647 18.0745 18.9127 18.08 18.96C18.2172 19.6747 18.1236 20.4145 17.8126 21.0724C17.5016 21.7304 16.9894 22.2724 16.35 22.62C15.6974 22.8907 14.979 22.961 14.2863 22.8221C13.5936 22.6832 12.9578 22.3413 12.46 21.84C11.8736 21.3435 11.4882 20.6502 11.3759 19.8901C11.2636 19.1299 11.4322 18.3549 11.85 17.71C12.0198 17.3553 12.2606 17.0393 12.5576 16.7815C12.8546 16.5238 13.2014 16.3298 13.5765 16.2117C13.9516 16.0935 14.3469 16.0537 14.738 16.0947C15.1291 16.1357 15.5076 16.2566 15.85 16.45C15.9247 16.4905 16.0121 16.5006 16.0941 16.4782C16.176 16.4559 16.2462 16.4028 16.29 16.33C16.3115 16.2947 16.3258 16.2554 16.3319 16.2145C16.338 16.1736 16.3359 16.1319 16.3257 16.0918C16.3154 16.0517 16.2972 16.0141 16.2722 15.9812C16.2472 15.9482 16.2159 15.9206 16.18 15.9C15.7614 15.6264 15.291 15.4418 14.798 15.3576C14.305 15.2734 13.8 15.2914 13.3143 15.4105C12.8286 15.5296 12.3726 15.7472 11.9744 16.0499C11.5763 16.3526 11.2447 16.7338 11 17.17C10.4134 18.0281 10.1608 19.0711 10.2897 20.1025C10.4186 21.134 10.9202 22.0827 11.7 22.77C12.3854 23.3947 13.2416 23.8008 14.159 23.9362C15.0764 24.0716 16.0134 23.9301 16.85 23.53C17.6399 23.0713 18.261 22.3703 18.6212 21.531C18.9814 20.6916 19.0617 19.7585 18.85 18.87C18.8445 18.8184 18.828 18.7686 18.8014 18.724C18.7749 18.6794 18.739 18.641 18.6963 18.6116C18.6535 18.5821 18.6049 18.5623 18.5538 18.5534C18.5027 18.5445 18.4502 18.5467 18.4 18.56Z" fill="black"/>
<path fill-rule="evenodd" clip-rule="evenodd" d="M20.4 14.71C20.3666 14.6764 20.3268 14.6498 20.2831 14.6316C20.2393 14.6135 20.1924 14.6041 20.145 14.6041C20.0976 14.6041 20.0507 14.6135 20.0069 14.6316C19.9632 14.6498 19.9234 14.6764 19.89 14.71C18.8893 15.5158 17.9562 16.4021 17.1 17.36C16.43 18.09 15.82 18.81 15.36 19.36L14.91 19.92C14.2804 19.3641 13.6859 18.7696 13.13 18.14C13.0701 18.0808 12.9892 18.0475 12.905 18.0475C12.8208 18.0475 12.7399 18.0808 12.68 18.14C12.6494 18.169 12.6251 18.2039 12.6085 18.2425C12.5918 18.2812 12.5833 18.3229 12.5833 18.365C12.5833 18.4071 12.5918 18.4488 12.6085 18.4875C12.6251 18.5261 12.6494 18.561 12.68 18.59C13.2127 19.3928 13.8043 20.1549 14.45 20.87C14.5559 20.9806 14.692 21.0577 14.8414 21.0914C14.9908 21.1252 15.1468 21.1143 15.29 21.06C15.7687 20.7387 16.1968 20.3477 16.56 19.9C16.91 19.51 17.32 19.02 17.73 18.51C18.5601 17.3915 19.4514 16.3199 20.4 15.3C20.4456 15.2655 20.4825 15.2209 20.508 15.1697C20.5334 15.1185 20.5467 15.0622 20.5467 15.005C20.5467 14.9478 20.5334 14.8915 20.508 14.8403C20.4825 14.7891 20.4456 14.7445 20.4 14.71Z" fill="black"/>
<path fill-rule="evenodd" clip-rule="evenodd" d="M4.49001 6.17C4.49001 6.08248 4.45525 5.99854 4.39336 5.93666C4.33147 5.87477 4.24753 5.84 4.16001 5.84C4.07514 5.84 3.99375 5.87372 3.93374 5.93373C3.87373 5.99374 3.84001 6.07513 3.84001 6.16C3.75001 6.73 3.62001 7.28 3.55001 7.86C3.53484 8.1031 3.53484 8.3469 3.55001 8.59V9.32C3.61001 9.91 3.71001 10.47 3.81001 11.04C3.81257 11.0873 3.82443 11.1336 3.84493 11.1763C3.86542 11.219 3.89414 11.2573 3.92944 11.2889C3.96475 11.3205 4.00593 11.3448 4.05065 11.3604C4.09536 11.376 4.14272 11.3827 4.19001 11.38C4.23777 11.3788 4.28477 11.3679 4.32813 11.3478C4.37149 11.3278 4.41029 11.2991 4.44215 11.2635C4.474 11.2279 4.49822 11.1861 4.51334 11.1408C4.52845 11.0955 4.53412 11.0476 4.53001 11C4.53001 10.44 4.65001 9.89 4.70001 9.32V8.6V7.87C4.68001 7.29 4.56001 6.74 4.49001 6.17Z" fill="black"/>
<path fill-rule="evenodd" clip-rule="evenodd" d="M7.25002 7.64C7.19002 6.44 7.10002 5.27 7.11002 4.1C7.11558 4.01405 7.08731 3.92933 7.03126 3.86394C6.97521 3.79854 6.89581 3.75765 6.81002 3.75C6.76798 3.74729 6.72581 3.75291 6.68595 3.76653C6.64608 3.78016 6.6093 3.80152 6.57771 3.82939C6.54612 3.85726 6.52035 3.8911 6.50187 3.92896C6.48339 3.96682 6.47256 4.00795 6.47002 4.05C6.27373 5.23853 6.14353 6.43704 6.08002 7.64V9.18C6.08002 9.72 6.08002 10.18 6.17002 10.72C6.28002 11.93 6.44002 13.11 6.57002 14.28C6.5777 14.3764 6.62282 14.466 6.69571 14.5295C6.7686 14.593 6.86347 14.6255 6.96002 14.62C7.00732 14.6174 7.05365 14.6056 7.09636 14.5851C7.13906 14.5646 7.1773 14.5359 7.20889 14.5006C7.24048 14.4653 7.26478 14.4241 7.28042 14.3794C7.29606 14.3347 7.30272 14.2873 7.30002 14.24V10.67V9.15C7.30002 8.63 7.27002 8.14 7.25002 7.64Z" fill="black"/>
<path fill-rule="evenodd" clip-rule="evenodd" d="M9.58003 9.40345e-07C9.53799 -0.00270906 9.49583 0.0029089 9.45597 0.0165325C9.4161 0.0301561 9.37932 0.0515171 9.34773 0.0793901C9.31614 0.107263 9.29037 0.141099 9.27188 0.178957C9.2534 0.216815 9.24258 0.25795 9.24003 0.300001C9.00003 2.2 8.83003 4.12 8.71003 6.06C8.66003 6.88 8.64003 7.71 8.62003 8.53C8.60003 9.35 8.62003 10.19 8.62003 11.01C8.62003 12.95 8.77003 14.88 8.89003 16.79C8.89133 16.8373 8.90193 16.8838 8.92123 16.927C8.94053 16.9702 8.96815 17.0092 9.00251 17.0417C9.03687 17.0742 9.0773 17.0996 9.12149 17.1165C9.16567 17.1333 9.21275 17.1413 9.26003 17.14C9.35466 17.1349 9.44371 17.0936 9.50883 17.0248C9.57395 16.956 9.61017 16.8648 9.61003 16.77C9.61003 14.77 9.72003 12.84 9.78003 10.86C9.78003 9.54 9.86003 8.23 9.87003 6.92V0.340001C9.8756 0.256698 9.84839 0.174516 9.79421 0.110995C9.74003 0.0474735 9.66317 0.00764216 9.58003 9.40345e-07Z" fill="black"/>
<path fill-rule="evenodd" clip-rule="evenodd" d="M11.34 10.2C11.3387 10.2473 11.3467 10.2944 11.3636 10.3385C11.3804 10.3827 11.4059 10.4232 11.4384 10.4575C11.4709 10.4919 11.5098 10.5195 11.553 10.5388C11.5962 10.5581 11.6428 10.5687 11.69 10.57C11.7874 10.5701 11.8812 10.5329 11.9519 10.4659C12.0226 10.3989 12.0649 10.3073 12.07 10.21C12.14 9.68 12.22 9.21 12.27 8.63V7.96V7.29C12.2 6.76 12.08 6.29 12 5.74C12.0002 5.65584 11.9682 5.57479 11.9106 5.51345C11.8529 5.45211 11.774 5.4151 11.69 5.41C11.6472 5.40866 11.6045 5.41595 11.5645 5.43143C11.5245 5.44691 11.4881 5.47027 11.4573 5.50012C11.4265 5.52997 11.402 5.5657 11.3853 5.60519C11.3686 5.64468 11.36 5.68712 11.36 5.73C11.2434 6.2513 11.1566 6.77882 11.1 7.31V7.99V8.65C11.18 9.18 11.28 9.68 11.34 10.2Z" fill="black"/>
<path fill-rule="evenodd" clip-rule="evenodd" d="M16.68 10.2C16.6787 10.2473 16.6867 10.2944 16.7036 10.3385C16.7204 10.3827 16.7459 10.4232 16.7784 10.4575C16.8109 10.4919 16.8498 10.5195 16.893 10.5388C16.9362 10.5581 16.9828 10.5687 17.03 10.57C17.1274 10.5701 17.2212 10.5329 17.2919 10.4659C17.3626 10.3989 17.4049 10.3073 17.41 10.21C17.48 9.68 17.56 9.21 17.61 8.63V7.96V7.29C17.54 6.76 17.42 6.29 17.34 5.74C17.3401 5.69581 17.3312 5.65207 17.314 5.61136C17.2968 5.57066 17.2716 5.53383 17.2399 5.50305C17.2082 5.47227 17.1706 5.44817 17.1294 5.43219C17.0882 5.41621 17.0442 5.40866 17 5.41C16.9572 5.40866 16.9145 5.41595 16.8745 5.43143C16.8345 5.44691 16.798 5.47027 16.7673 5.50012C16.7365 5.52997 16.712 5.5657 16.6953 5.60519C16.6786 5.64468 16.67 5.68712 16.67 5.73C16.5534 6.2513 16.4666 6.77882 16.41 7.31V7.99C16.41 8.22 16.41 8.43 16.46 8.65C16.52 9.18 16.62 9.68 16.68 10.2Z" fill="black"/>
<path fill-rule="evenodd" clip-rule="evenodd" d="M13.86 13.1C13.8613 13.1486 13.8722 13.1965 13.892 13.2409C13.9118 13.2853 13.9401 13.3253 13.9754 13.3587C14.0107 13.3922 14.0523 13.4183 14.0977 13.4357C14.1431 13.4531 14.1914 13.4613 14.24 13.46C14.2869 13.4587 14.333 13.4481 14.3756 13.4287C14.4183 13.4092 14.4566 13.3815 14.4883 13.3469C14.52 13.3124 14.5445 13.2719 14.5602 13.2278C14.576 13.1836 14.5827 13.1368 14.58 13.09C14.64 12.09 14.71 11.09 14.75 10.09V8.79V7.5C14.7 6.5 14.58 5.5 14.53 4.5C14.5301 4.41419 14.4967 4.33173 14.4369 4.27012C14.3772 4.20851 14.2958 4.1726 14.21 4.17C14.1276 4.17235 14.049 4.20547 13.9898 4.26285C13.9306 4.32022 13.895 4.39769 13.89 4.48C13.77 5.48 13.64 6.48 13.59 7.48V8.78V10.08C13.66 11.09 13.78 12.09 13.86 13.1Z" fill="black"/>
</g>
<defs>
<clipPath id="clip0_1030_2839">
<rect width="24" height="24" fill="white"/>
</clipPath>
</defs>
</svg>
