<svg width="24" height="24" viewBox="0 0 24 24" fill="none" xmlns="http://www.w3.org/2000/svg">
<g clip-path="url(#clip0_1047_6670)">
<path fill-rule="evenodd" clip-rule="evenodd" d="M18.83 9.12995L18.52 8.71995C18.19 8.41995 17.72 8.59995 17.74 8.87995C17.74 8.95995 17.74 9.06995 17.84 9.13995C18.15 9.43995 17.96 9.31995 18.06 9.49995C18.33 10.4 18.4 12.5 17.54 13.22C17.4673 13.2811 17.4194 13.3666 17.4053 13.4606C17.3911 13.5545 17.4118 13.6504 17.4634 13.7302C17.5149 13.81 17.5938 13.8682 17.6853 13.8939C17.7767 13.9197 17.8744 13.9111 17.96 13.87C18.3523 13.6366 18.6901 13.322 18.9508 12.9473C19.2114 12.5726 19.3889 12.1465 19.4713 11.6975C19.5537 11.2486 19.5391 10.7872 19.4285 10.3443C19.3179 9.90148 19.1138 9.48742 18.83 9.12995Z" fill="black"/>
<path fill-rule="evenodd" clip-rule="evenodd" d="M22.12 5.60997C22 5.43997 20.47 3.90997 20.24 4.55997C19.75 4.94997 20.93 5.23997 21.39 6.06997C21.974 7.17234 22.3663 8.36604 22.55 9.59997C23.19 13.31 21.68 16.21 19.27 17.47C19.224 17.493 19.1831 17.5248 19.1494 17.5636C19.1157 17.6024 19.09 17.6475 19.0738 17.6962C19.0575 17.745 19.051 17.7965 19.0547 17.8477C19.0583 17.899 19.072 17.949 19.095 17.995C19.118 18.0409 19.1498 18.0819 19.1886 18.1156C19.2274 18.1493 19.2725 18.1749 19.3213 18.1912C19.37 18.2075 19.4215 18.2139 19.4727 18.2103C19.524 18.2067 19.574 18.193 19.62 18.17C24.51 15.86 25.25 10.06 22.12 5.60997Z" fill="black"/>
<path fill-rule="evenodd" clip-rule="evenodd" d="M13.8 3.39996C11.9 0.999963 6.43 5.90996 5.08 8.75996C5.02128 8.71948 4.95131 8.69849 4.88 8.69996C2 8.64996 -0.77 10.93 0.2 13.83C0.392462 14.4209 0.741411 14.9486 1.20977 15.3571C1.67813 15.7656 2.2484 16.0396 2.86 16.15C3.35893 16.2646 3.86821 16.3283 4.38 16.34C6.59 16.23 6.38 16.13 5.64 9.89996C5.58 9.55996 4.89 9.48996 4.99 10.3C5.13443 11.8934 5.13443 13.4966 4.99 15.09C4.63 15.04 4.91 15.09 3.74 15L2.74 14.73C1.25 14.18 0.31 11.56 2.92 10.07C4.66 9.06996 5.17 9.99996 5.92 8.72996C7.13821 6.91224 8.77822 5.41633 10.7 4.36996C11.29 4.05996 12.48 3.54996 12.87 4.09996C13.87 5.47996 14.12 16.51 12.93 19.17C12.59 19.93 12.12 20.38 11.32 20.17C10.1 19.85 7.68 18.01 6.32 16.48C6.25104 16.3977 6.15225 16.3463 6.04535 16.3369C5.93846 16.3275 5.83222 16.361 5.75 16.43C5.66778 16.4989 5.61633 16.5977 5.60695 16.7046C5.59757 16.8115 5.63104 16.9177 5.7 17C6.84335 18.3184 8.16628 19.4697 9.63 20.42C9.99285 20.7268 10.4167 20.9533 10.8735 21.0843C11.3303 21.2153 11.8097 21.2479 12.28 21.18C13.96 20.75 14.45 18.48 14.69 16.76C15 14.12 15.41 5.50996 13.8 3.39996Z" fill="black"/>
</g>
<defs>
<clipPath id="clip0_1047_6670">
<rect width="24" height="24" fill="white"/>
</clipPath>
</defs>
</svg>
