<svg width="24" height="24" viewBox="0 0 24 24" fill="none" xmlns="http://www.w3.org/2000/svg">
<g clip-path="url(#clip0_1052_9336)">
<path d="M11 19.6701C10.9529 19.3243 10.8551 18.9874 10.71 18.6701C10.5856 18.4067 10.392 18.1821 10.15 18.0201C9.61894 17.7129 9.0359 17.5061 8.43 17.4101C7.5951 17.2775 6.75402 17.1874 5.91 17.1401C5.51367 17.1236 5.11918 17.0768 4.73 17.0001C4.55216 16.9682 4.38628 16.8887 4.25 16.7701C4.14 16.6601 4.18 16.4501 4.19 16.2501C4.19 15.8901 4.28 15.5201 4.3 15.2501C4.3 14.6001 4.41 13.9601 4.45 13.3101V11.9801C4.44399 11.6096 4.3694 11.2434 4.23 10.9001C4.12096 10.6335 3.94115 10.4018 3.71 10.2301C3.38112 10.0772 3.02264 9.99871 2.66 10.0001C2.15889 9.93309 1.6511 9.93309 1.15 10.0001C1.11152 10.0072 1.07488 10.022 1.04228 10.0436C1.00968 10.0653 0.981793 10.0933 0.960304 10.126C0.938816 10.1587 0.924167 10.1954 0.91724 10.2339C0.910312 10.2724 0.91125 10.3119 0.919996 10.3501C0.927209 10.3888 0.941985 10.4257 0.96348 10.4588C0.984975 10.4918 1.01277 10.5203 1.04527 10.5426C1.07777 10.5649 1.11435 10.5805 1.15291 10.5887C1.19147 10.5968 1.23126 10.5973 1.27 10.5901C1.63215 10.5486 1.99785 10.5486 2.36 10.5901C2.69085 10.6009 3.01384 10.6936 3.3 10.8601C3.42944 10.9779 3.51422 11.1369 3.54 11.3101C3.57396 11.5287 3.57396 11.7514 3.54 11.9701C3.54 12.2801 3.54 12.5901 3.46 12.9001C3.38 13.6501 3.25 14.3901 3.15 15.1401C3.0565 15.6278 3.00962 16.1234 3.01 16.6201C3.0242 16.9474 3.14739 17.2607 3.36 17.5101C3.57833 17.7319 3.84541 17.8996 4.14 18.0001C4.68247 18.1412 5.23959 18.2184 5.8 18.2301C6.5 18.2301 7.4 18.2301 8.23 18.3801C8.72062 18.4254 9.19864 18.561 9.64 18.7801C9.77853 18.869 9.88667 18.9981 9.95 19.1501C10.0425 19.3579 10.1096 19.5762 10.15 19.8001C10.2537 20.2315 10.3305 20.6691 10.38 21.1101C10.4064 21.5497 10.4064 21.9904 10.38 22.4301C10.3773 22.4747 10.3834 22.5195 10.3981 22.5618C10.4127 22.6041 10.4355 22.643 10.4653 22.6765C10.495 22.7099 10.531 22.7372 10.5713 22.7567C10.6116 22.7762 10.6553 22.7875 10.7 22.7901C10.7447 22.7928 10.7894 22.7866 10.8317 22.772C10.874 22.7574 10.913 22.7345 10.9464 22.7048C10.9799 22.6751 11.0071 22.639 11.0266 22.5987C11.0461 22.5585 11.0574 22.5147 11.06 22.4701C11.0875 22.0005 11.0875 21.5297 11.06 21.0601C11.0655 20.596 11.0454 20.1319 11 19.6701Z" fill="black"/>
<path d="M7.99999 6.87001C8.42263 6.90613 8.84833 6.87234 9.25999 6.77001C9.68304 6.674 10.0837 6.49746 10.44 6.25001C10.9623 5.83342 11.3632 5.28418 11.6007 4.6597C11.8381 4.03521 11.9035 3.3584 11.79 2.70001C11.7284 2.03232 11.4396 1.40597 10.9719 0.925512C10.5041 0.445052 9.88578 0.139552 9.21999 0.0600052C7.21999 -0.159995 6.60999 0.260005 6.07999 0.660005C5.38318 1.17355 4.90488 1.93026 4.73999 2.78001C4.66168 3.26121 4.6825 3.75334 4.80115 4.22622C4.9198 4.6991 5.13378 5.14276 5.42999 5.53001C5.7417 5.91972 6.13124 6.24017 6.57375 6.47089C7.01625 6.70161 7.502 6.83754 7.99999 6.87001ZM9.10999 0.790005C9.58363 0.879001 10.0136 1.12455 10.331 1.48724C10.6484 1.84994 10.8347 2.30874 10.86 2.79001C10.9184 3.26856 10.8471 3.75402 10.6536 4.19558C10.4601 4.63715 10.1514 5.01859 9.75999 5.30001C9.53203 5.46754 9.27403 5.58975 8.99999 5.66001C8.70507 5.72756 8.4018 5.75115 8.09999 5.73001C7.75247 5.70602 7.41318 5.61324 7.10182 5.45704C6.79046 5.30085 6.51323 5.08436 6.28622 4.82014C6.05922 4.55592 5.88696 4.24924 5.77946 3.9179C5.67195 3.58656 5.63134 3.23717 5.65999 2.89001C5.67999 2.65001 5.99999 0.260005 9.10999 0.790005Z" fill="black"/>
<path d="M16 13.46C15.328 13.0723 14.6087 12.7732 13.86 12.57C13.1215 12.3521 12.3593 12.2245 11.59 12.19C11.2116 12.1793 10.844 12.0614 10.53 11.85C10.3891 11.7512 10.2695 11.625 10.1784 11.479C10.0873 11.3329 10.0267 11.17 10 11C9.99608 10.1591 9.92586 9.31985 9.79001 8.49C9.29001 7.22 7.00001 6.92 6.12001 8.8C5.72341 9.87717 5.5499 11.0237 5.61001 12.17C5.64081 13.011 5.9788 13.8114 6.56001 14.42C7.10407 15.002 7.76525 15.4621 8.50001 15.77C9.38001 16.15 10.7 15.9 11.68 16.23C11.8363 16.2715 11.9822 16.3455 12.1079 16.4471C12.2337 16.5488 12.3367 16.6759 12.41 16.82C12.7312 17.4647 12.9312 18.163 13 18.88C13.0749 19.6181 13.0749 20.3619 13 21.1C12.9168 21.8857 13.1388 22.6733 13.62 23.3C13.8078 23.5195 14.0409 23.6958 14.3033 23.8166C14.5657 23.9375 14.8511 24 15.14 24C15.7808 24.0186 16.404 23.7894 16.88 23.36C17.3475 22.9507 17.6672 22.399 17.79 21.79C18.1046 20.081 18.1046 18.329 17.79 16.62C17.7178 16.0004 17.5222 15.4016 17.2148 14.8589C16.9073 14.3161 16.4943 13.8405 16 13.46ZM16.62 21.58C16.5469 21.9352 16.3568 22.2557 16.08 22.49C15.8296 22.7279 15.4953 22.8573 15.15 22.85C14.9823 22.8528 14.8169 22.8107 14.671 22.7281C14.525 22.6455 14.4038 22.5253 14.32 22.38C14.1283 22.0181 14.0483 21.6074 14.09 21.2C14.1747 20.3855 14.1747 19.5645 14.09 18.75C13.9955 17.9057 13.7482 17.0857 13.36 16.33C13.2213 16.066 13.0285 15.8343 12.7942 15.6499C12.5598 15.4655 12.2892 15.3327 12 15.26C11 14.96 9.74001 15.26 8.87001 14.91C8.24378 14.6711 7.6748 14.3031 7.20001 13.83C6.75074 13.3831 6.47439 12.7914 6.42001 12.16C6.33427 11.1262 6.45669 10.0857 6.78001 9.1C7.36001 7.8 8.88001 7.91 9.15001 8.69C9.2509 9.47905 9.28435 10.2753 9.25001 11.07C9.28383 11.3467 9.37514 11.6134 9.51808 11.8527C9.66101 12.0921 9.85242 12.299 10.08 12.46C10.5096 12.7815 11.0243 12.9693 11.56 13C12.2407 13.0621 12.9118 13.2031 13.56 13.42C14.2204 13.6219 14.8522 13.9076 15.44 14.27C16.184 14.9185 16.6407 15.8354 16.71 16.82C16.9657 18.3992 16.9352 20.0116 16.62 21.58Z" fill="black"/>
<path d="M22.64 3.44006C22.3391 2.56711 21.7742 1.80936 21.0234 1.27184C20.2727 0.734308 19.3733 0.443622 18.45 0.440063C17.525 0.511959 16.6368 0.833367 15.88 1.37006C15.4814 1.67017 15.1099 2.0048 14.77 2.37006C14.5322 2.62089 14.3211 2.89569 14.14 3.19006C13.5591 4.20477 13.3174 5.37841 13.45 6.54006C13.5054 7.14555 13.6981 7.73045 14.0135 8.25028C14.3289 8.77012 14.7586 9.21122 15.27 9.54006C15.7211 9.8183 16.2047 10.04 16.71 10.2001C17.2264 10.3544 17.7612 10.4385 18.3 10.4501C19.3497 10.4407 20.3677 10.0897 21.2 9.45006C22.0289 8.81862 22.6349 7.93939 22.93 6.94006C23.2169 5.77294 23.1151 4.54405 22.64 3.44006ZM22 6.64006C21.7288 7.42104 21.2222 8.09878 20.55 8.58006C19.8952 9.06217 19.1031 9.32154 18.29 9.32006C17.8621 9.31047 17.4378 9.23975 17.03 9.11006C16.6158 8.97965 16.2194 8.79826 15.85 8.57006C15.4751 8.3307 15.1595 8.0091 14.9274 7.62965C14.6952 7.2502 14.5525 6.82287 14.51 6.38006C14.3843 5.43477 14.5556 4.47378 15 3.63006C15.1641 3.32055 15.3693 3.03464 15.61 2.78006C15.8595 2.5155 16.1268 2.26826 16.41 2.04006C16.9258 1.6369 17.5228 1.35032 18.16 1.20006C20.21 0.740064 21.54 2.64006 21.93 3.73006C22.2649 4.66744 22.2894 5.68766 22 6.64006Z" fill="black"/>
<path d="M19.59 5.72999H18.9C18.38 5.67999 18.79 5.45999 18.81 5.08999V4.46999C18.81 4.01999 18.71 3.56999 18.63 2.96999C18.6313 2.93059 18.6249 2.89131 18.611 2.8544C18.5972 2.81749 18.5762 2.78367 18.5492 2.75488C18.5223 2.72609 18.49 2.70289 18.4541 2.68661C18.4182 2.67033 18.3794 2.66128 18.34 2.65999C18.3003 2.65725 18.2604 2.66271 18.2229 2.67605C18.1853 2.68939 18.151 2.71032 18.1219 2.73752C18.0928 2.76473 18.0696 2.79764 18.0538 2.83419C18.038 2.87075 18.0299 2.91017 18.03 2.94999C17.91 3.54999 17.8 3.94999 17.73 4.42999C17.73 4.64999 17.73 4.85999 17.68 5.07999C17.6548 5.3494 17.6548 5.62058 17.68 5.88999C17.7004 6.07056 17.7857 6.23757 17.92 6.35999C18.1107 6.51303 18.3456 6.60068 18.59 6.60999C18.9433 6.58154 19.2942 6.52807 19.64 6.44999C19.6847 6.44744 19.7284 6.4361 19.7687 6.41661C19.809 6.39712 19.845 6.36987 19.8747 6.33643C19.9045 6.30298 19.9273 6.264 19.9419 6.22171C19.9566 6.17942 19.9627 6.13466 19.96 6.08999C19.9649 6.04063 19.9586 5.99079 19.9416 5.94419C19.9246 5.8976 19.8973 5.85543 19.8617 5.82084C19.8262 5.78624 19.7833 5.76011 19.7362 5.74438C19.6892 5.72865 19.6392 5.72374 19.59 5.72999Z" fill="black"/>
</g>
<defs>
<clipPath id="clip0_1052_9336">
<rect width="24" height="24" fill="white"/>
</clipPath>
</defs>
</svg>
