<svg width="24" height="24" viewBox="0 0 24 24" fill="none" xmlns="http://www.w3.org/2000/svg">
<g clip-path="url(#clip0_1052_9355)">
<path fill-rule="evenodd" clip-rule="evenodd" d="M24 16.0599C23.9685 15.8057 23.853 15.5692 23.6719 15.3881C23.4907 15.2069 23.2543 15.0914 23 15.0599H22.23L19.91 15.1399L10.91 15.4599C8.82 15.5399 6.7 15.7199 4.58 15.7899C3.18308 15.8417 1.7844 15.8183 0.389996 15.7199C0.30934 15.7144 0.229697 15.7405 0.168049 15.7928C0.106401 15.8451 0.0676275 15.9194 0.059996 15.9999C0.056584 16.0785 0.0822264 16.1556 0.132028 16.2165C0.18183 16.2773 0.252304 16.3177 0.329996 16.3299C1.39 16.4299 2.46 16.4799 3.53 16.4899C6 16.4899 8.48 16.3699 10.93 16.3499H17.26C18.17 16.3499 19.07 16.3499 19.98 16.2899H22.27C22.63 16.2899 23.05 15.9099 22.87 16.6199C22.8058 16.8473 22.729 17.071 22.64 17.2899C22.3535 18.1113 21.9601 18.8913 21.47 19.6099C20.9691 20.2871 20.3234 20.844 19.58 21.2399C18.517 21.823 17.37 22.238 16.18 22.4699C14.3356 22.8115 12.4656 22.9955 10.59 23.0199C9.69706 23.0276 8.80474 22.9708 7.92 22.8499C7.0379 22.7541 6.16504 22.5869 5.31 22.3499C4.11008 21.9351 3.04314 21.2065 2.22 20.2399C1.35499 19.2955 0.821373 18.0949 0.699996 16.8199C0.700079 16.7749 0.690928 16.7303 0.673107 16.6889C0.655287 16.6475 0.629175 16.6101 0.596381 16.5792C0.563587 16.5483 0.524807 16.5244 0.482432 16.5091C0.440057 16.4937 0.394985 16.4872 0.349996 16.4899C0.258925 16.4951 0.173471 16.5356 0.111833 16.6029C0.0501945 16.6701 0.0172431 16.7588 0.019996 16.8499C0.100672 18.2745 0.645005 19.6336 1.57 20.7199C2.4728 21.8226 3.65841 22.6591 5 23.1399C5.90324 23.4256 6.83029 23.6298 7.77 23.7499C8.70341 23.8943 9.64562 23.9745 10.59 23.9899C12.5225 24.001 14.4526 23.8505 16.36 23.5399C17.665 23.2974 18.9259 22.8591 20.1 22.2399C20.9995 21.7554 21.776 21.0712 22.37 20.2399C22.9276 19.4381 23.3718 18.5632 23.69 17.6399C23.9165 17.1451 24.0227 16.6037 24 16.0599Z" fill="black"/>
<path fill-rule="evenodd" clip-rule="evenodd" d="M0.919982 11.7199C0.999982 11.9199 1.07998 12.1099 1.17998 12.3099C1.27998 12.5099 1.36998 12.6899 1.46998 12.8799C1.70998 13.3399 1.97998 13.7699 2.23998 14.2299C2.27966 14.2999 2.34287 14.3535 2.41837 14.3813C2.49387 14.4091 2.57677 14.4092 2.65233 14.3816C2.7279 14.354 2.79123 14.3005 2.83108 14.2306C2.87093 14.1608 2.88472 14.079 2.86998 13.9999C2.73998 13.4899 2.62998 12.9999 2.46998 12.4999C2.39998 12.2799 2.31998 12.0699 2.22998 11.8599C2.13998 11.6499 2.02998 11.4499 1.90998 11.2599C1.61051 10.8087 1.26899 10.3868 0.889982 9.99993C0.86884 9.96573 0.840818 9.9363 0.807695 9.91351C0.774572 9.89072 0.737073 9.87507 0.697578 9.86755C0.658083 9.86003 0.617455 9.8608 0.578274 9.86981C0.539093 9.87883 0.502215 9.8959 0.469982 9.91993C0.405279 9.96628 0.360884 10.0357 0.345991 10.1139C0.331099 10.1921 0.346849 10.273 0.389982 10.3399C0.609982 10.7799 0.739982 11.2499 0.919982 11.7199Z" fill="black"/>
<path fill-rule="evenodd" clip-rule="evenodd" d="M4.23998 12.55V14.55C4.25296 14.6214 4.29061 14.686 4.34634 14.7325C4.40208 14.779 4.47238 14.8045 4.54498 14.8045C4.61758 14.8045 4.68787 14.779 4.74361 14.7325C4.79935 14.686 4.83699 14.6214 4.84998 14.55C4.84998 13.87 4.84998 13.19 4.89998 12.55C4.94998 11.91 4.89998 11.19 4.89998 10.55C4.79539 9.13009 4.82888 7.7034 4.99998 6.28998C5.11391 5.40396 5.41379 4.55201 5.87998 3.78998C6.3178 3.13453 6.8821 2.57312 7.53979 2.13867C8.19747 1.70422 8.9353 1.40548 9.70998 1.25998C10.4627 1.07356 11.2486 1.06695 12.0044 1.24068C12.7601 1.4144 13.4643 1.76359 14.06 2.25998C14.4132 2.61713 14.6711 3.05725 14.81 3.53998C15.0133 4.23415 15.1407 4.94833 15.19 5.66998C15.07 5.66998 14.93 5.83998 14.89 5.84998C14.5988 5.92835 14.3008 5.97859 14 5.99998C13.8139 6.02014 13.6261 6.02014 13.44 5.99998C13.2857 5.54518 13.102 5.1009 12.89 4.66998C12.6241 4.19885 12.2189 3.82159 11.73 3.58998C11.2532 3.36614 10.7224 3.28288 10.2 3.34998C9.99758 3.37209 9.79705 3.40885 9.59998 3.45998C9.41224 3.51785 9.22851 3.588 9.04998 3.66998C8.50952 3.92068 8.03637 4.29621 7.66952 4.76564C7.30267 5.23507 7.05262 5.78495 6.93998 6.36998C6.74955 7.99442 6.74955 9.63554 6.93998 11.26L7.07998 14.36C7.07998 14.4502 7.1158 14.5366 7.17956 14.6004C7.24332 14.6642 7.3298 14.7 7.41998 14.7C7.51015 14.7 7.59663 14.6642 7.66039 14.6004C7.72415 14.5366 7.75998 14.4502 7.75998 14.36L7.69998 11.25C7.54799 9.69486 7.58156 8.12717 7.79998 6.57998C7.89018 6.12297 8.09027 5.69478 8.38296 5.33239C8.67566 4.97001 9.05217 4.68431 9.47998 4.49998C9.61286 4.44291 9.74993 4.3961 9.88998 4.35998C10.0273 4.32293 10.168 4.29949 10.31 4.28998C10.6525 4.25647 10.9978 4.31517 11.31 4.45998C11.6066 4.61197 11.848 4.85334 12 5.14998C12.1909 5.56898 12.3546 5.99988 12.49 6.43998C12.5433 6.58909 12.6367 6.72059 12.76 6.81998C13.0195 6.96818 13.3113 7.05058 13.61 7.05998C14.133 7.08711 14.6573 7.04678 15.17 6.93998C15.4606 6.86895 15.7399 6.75789 16 6.60998C16.1043 6.54532 16.191 6.4557 16.2521 6.34922C16.3132 6.24273 16.3468 6.12271 16.35 5.99998C16.3162 5.05493 16.165 4.11774 15.9 3.20998C15.7103 2.5385 15.3484 1.9283 14.85 1.43998C14.1209 0.81577 13.2527 0.375567 12.3183 0.156323C11.3839 -0.0629215 10.4106 -0.0548087 9.47998 0.17998C8.56172 0.365029 7.69085 0.735373 6.92057 1.26838C6.15028 1.80139 5.49678 2.48586 4.99998 3.27998C4.4976 4.1697 4.18439 5.15358 4.07998 6.16998C3.96448 7.62536 3.98456 9.08832 4.13998 10.54C4.19331 11.2 4.22664 11.87 4.23998 12.55Z" fill="black"/>
<path fill-rule="evenodd" clip-rule="evenodd" d="M14.47 8.92997C14.4863 8.89401 14.495 8.8551 14.4957 8.81565C14.4964 8.77619 14.489 8.73701 14.474 8.7005C14.459 8.66399 14.4368 8.63092 14.4086 8.60332C14.3804 8.57572 14.3468 8.55416 14.31 8.53997C14.2344 8.5102 14.15 8.51133 14.0752 8.54313C14.0004 8.57493 13.9411 8.63484 13.91 8.70997C13.59 9.37997 12.97 10.27 12.64 11.13C12.4656 11.5609 12.3937 12.0265 12.43 12.49C12.4957 12.8886 12.6928 13.2538 12.99 13.5274C13.2871 13.801 13.6673 13.9674 14.07 14C14.435 14.067 14.8114 14.0351 15.1599 13.9076C15.5085 13.7801 15.8166 13.5617 16.0522 13.275C16.2879 12.9883 16.4426 12.6438 16.5002 12.2771C16.5579 11.9105 16.5164 11.5351 16.38 11.19C16.0469 10.3562 15.5309 9.60779 14.87 8.99997C14.8181 8.94941 14.7522 8.91568 14.6808 8.90319C14.6095 8.8907 14.536 8.90003 14.47 8.92997ZM15.23 12.53C15.1017 12.6599 14.9433 12.7562 14.7689 12.8103C14.5944 12.8643 14.4093 12.8745 14.23 12.84C14.066 12.841 13.9063 12.7876 13.776 12.688C13.6457 12.5885 13.5521 12.4485 13.51 12.29C13.4507 11.8715 13.4988 11.4447 13.65 11.05C13.83 10.47 14.1 9.88997 14.31 9.37997C14.3229 9.41414 14.3434 9.44493 14.37 9.46997C14.8908 10.0426 15.2739 10.7267 15.49 11.47C15.5296 11.6548 15.5268 11.8462 15.4818 12.0298C15.4368 12.2134 15.3507 12.3844 15.23 12.53Z" fill="black"/>
</g>
<defs>
<clipPath id="clip0_1052_9355">
<rect width="24" height="24" fill="white"/>
</clipPath>
</defs>
</svg>
