<svg width="24" height="24" viewBox="0 0 24 24" fill="none" xmlns="http://www.w3.org/2000/svg">
<g clip-path="url(#clip0_1049_8050)">
<path fill-rule="evenodd" clip-rule="evenodd" d="M23.92 22.29V22.37L23.82 21.96L23.53 20.68C23.41 20.15 23.3 19.61 23.16 19.09C23.065 18.7131 22.9379 18.3451 22.78 17.99C22.6804 17.7632 22.5668 17.5428 22.44 17.33C22.3496 17.2204 22.2454 17.1229 22.13 17.04C21.96 16.64 21.8 16.23 21.61 15.83C21.33 15.22 21.02 14.63 20.73 14.01C20.4932 13.5471 20.2119 13.1083 19.89 12.7C19.6468 12.4057 19.3433 12.167 19 12C18.8006 11.9127 18.5873 11.8619 18.37 11.85H17.21C17.1314 11.8429 17.0529 11.8643 16.9887 11.9101C16.9245 11.956 16.8788 12.0234 16.86 12.1C16.8148 12.0022 16.7613 11.9085 16.7 11.82C16.6109 11.6937 16.499 11.5852 16.37 11.5L15.5 9.32999C15.3182 8.72088 15.084 8.12866 14.8 7.55999C14.55 7.12539 14.2089 6.75011 13.8 6.45999C13.4537 6.22106 13.0497 6.07947 12.63 6.04999C12.1451 6.04352 11.6604 6.0736 11.18 6.13999L7.49999 6.37999C7.46433 6.32734 7.41421 6.28612 7.35566 6.26128C7.29712 6.23644 7.23264 6.22905 7.16999 6.23999C7.0839 6.26357 7.01006 6.31914 6.96359 6.39536C6.91712 6.47157 6.90152 6.56266 6.91999 6.64999C6.91999 6.76999 6.91999 6.88999 6.97999 6.99999H6.88999C6.30999 7.54999 5.70999 8.10999 5.13999 8.70999C4.75264 9.11633 4.3919 9.54723 4.05999 9.99999C3.98998 10.1145 3.95199 10.2458 3.94999 10.38C3.9812 10.6025 4.03825 10.8207 4.11999 11.03L4.34999 11.61H4.21999C4.11022 11.6 3.99977 11.6 3.88999 11.61C3.77559 11.6266 3.66434 11.6603 3.55999 11.71C3.2979 11.8188 3.05221 11.9635 2.82999 12.14C2.75794 12.1742 2.69847 12.2301 2.65999 12.3C2.65999 12.3 2.57999 12.3 2.54999 12.36C2.27666 12.6333 2.01666 12.9133 1.76999 13.2C1.40999 13.63 1.05999 14.08 0.769995 14.53C0.639995 14.7 0.439995 14.89 0.299995 15.1C0.204968 15.2394 0.137113 15.3954 0.0999947 15.56C0.0147437 16.0043 0.0492577 16.4634 0.199995 16.89C0.390904 17.4202 0.635509 17.9295 0.929995 18.41C1.21999 18.89 1.51999 19.41 1.81999 19.85C3.99999 23.29 3.99999 23.29 4.29999 23.29C4.29999 23.29 4.37999 23.37 4.43999 23.38C5.9719 23.5776 7.51544 23.6712 9.05999 23.66C10.6254 23.7186 12.193 23.6618 13.75 23.49C13.8341 23.4711 13.9132 23.4346 13.9821 23.3829C14.0511 23.3312 14.1083 23.2654 14.15 23.19C14.1462 23.1735 14.1462 23.1564 14.15 23.14C14.15 23.14 14.21 23.2 14.26 23.21C15.7921 23.4069 17.3353 23.5037 18.88 23.5C20.4454 23.5533 22.0126 23.4965 23.57 23.33C23.6634 23.315 23.7517 23.277 23.8267 23.2194C23.9018 23.1618 23.9613 23.0864 24 23C24.05 22.9 23.92 22.29 23.92 22.29ZM18.08 12.66C18.2306 12.6857 18.3739 12.7437 18.5 12.83C18.6987 12.9878 18.8622 13.1853 18.98 13.41C19.2233 13.7984 19.4405 14.2027 19.63 14.62L21 16.88H18.15C18.152 16.85 18.152 16.82 18.15 16.79C18.1549 16.8164 18.1549 16.8436 18.15 16.87L18.05 16.46L17.77 15.17C17.64 14.65 17.54 14.11 17.4 13.59C17.2973 13.2064 17.1635 12.8318 17 12.47C17 12.47 17.06 12.47 17.09 12.47C17.39 12.58 17.75 12.6 18.08 12.66ZM16.86 16.75C16.02 16.85 14.57 16.95 13.08 17H11.93C11.8935 16.9955 11.8565 16.9955 11.82 17H11.31H10.51C9.87199 17.0011 9.2344 16.9677 8.59999 16.9L8.40999 16.55C8.58999 15.96 8.76999 15.37 8.95999 14.79C9.14999 14.21 9.31999 13.79 9.51999 13.31C10.03 12.08 9.71999 12.31 13.52 12.53L15.33 12.59H15.69C15.76 12.7 15.89 12.82 15.92 12.89C16.0459 13.1896 16.1528 13.4969 16.24 13.81C16.38 14.32 16.49 14.81 16.62 15.35L16.86 16.75ZM11.28 7.31999C11.7063 7.29515 12.1337 7.29515 12.56 7.31999C12.7494 7.33238 12.9322 7.39446 13.09 7.49999C13.342 7.68883 13.553 7.927 13.71 8.19999C14.0029 8.68587 14.2571 9.19412 14.47 9.71999L15.31 11.35H15.24H13.47H10.57C9.27999 11.35 9.81999 11.79 9.00999 9.55999C8.91999 9.30999 8.81999 9.06999 8.71999 8.82999C8.61999 8.58999 8.50999 8.34999 8.39999 8.11999L7.88999 7.11999L11.28 7.31999ZM5.90999 9.37999C6.29999 8.83999 6.71999 8.37999 7.11999 7.83999C7.11999 8.07999 7.17999 8.32999 7.24999 8.56999C7.32226 8.83708 7.4159 9.09792 7.52999 9.34999C7.64 9.59999 7.76999 9.83999 7.89999 10.08C8.21999 10.64 8.58999 11.15 8.89999 11.68C8.89999 11.74 8.98999 11.76 9.03999 11.8C8.98319 11.8552 8.93589 11.9194 8.89999 11.99C8.7719 12.3356 8.66831 12.6898 8.58999 13.05C8.40999 13.5633 8.24999 14.0833 8.10999 14.61C8.00999 14.97 7.93 15.33 7.83999 15.69L5.83999 11.93L5.26999 10.62C5.26999 10.62 5.20999 10.54 5.16999 10.48C5.40999 10.11 5.64999 9.73999 5.90999 9.37999ZM1.99999 17.77C1.75101 17.3586 1.53693 16.9271 1.35999 16.48C1.25415 16.2587 1.20272 16.0152 1.20999 15.77L1.58999 15.11C1.85999 14.63 2.12999 14.11 2.42999 13.69L2.67999 13.33C2.77999 13.67 2.86999 14.01 2.99999 14.33C3.08228 14.5463 3.17917 14.7568 3.28999 14.96C3.39999 15.16 3.51999 15.36 3.64999 15.55C3.96113 15.9935 4.29491 16.4208 4.64999 16.83C4.70436 16.9162 4.79075 16.9773 4.89014 16.9998C4.98954 17.0223 5.0938 17.0044 5.17999 16.95C5.26619 16.8956 5.32726 16.8092 5.34976 16.7098C5.37227 16.6105 5.35436 16.5062 5.29999 16.42C5.08 15.93 4.90999 15.42 4.68999 14.92C4.5539 14.5757 4.39349 14.2415 4.20999 13.92C3.96258 13.5379 3.68857 13.1736 3.38999 12.83H3.78999C3.94462 12.8288 4.09872 12.812 4.24999 12.78C4.42735 12.7245 4.59575 12.6436 4.74999 12.54C5.00736 13.0562 5.29452 13.5571 5.60999 14.04C6.24 15.04 6.93 15.88 7.60999 16.83C8.29 17.78 7.60999 16.89 7.60999 16.92H6.60999H5.81999C5.62953 16.9349 5.44653 17.0005 5.28999 17.11C5.14689 17.2138 5.03598 17.356 4.96999 17.52C4.82999 17.86 4.71999 18.42 4.65999 18.59C4.48999 19.1 4.32999 19.59 4.18999 20.15C4.08999 20.48 4.01999 20.81 3.93999 21.15L1.99999 17.77ZM9.04999 22.68C7.55695 22.7579 6.06041 22.7378 4.56999 22.62L4.35999 22.22C4.52999 21.65 4.69999 21.09 4.88999 20.52C5.07999 19.95 5.24999 19.52 5.44999 19.05C5.94999 17.85 5.94999 18.05 6.53999 18.11L9.40999 18.26L11.22 18.33L11.58 18.38C11.64 18.49 11.78 18.61 11.81 18.68C11.939 18.9784 12.046 19.2859 12.13 19.6C12.27 20.11 12.38 20.6 12.5 21.14L12.83 22.43C12 22.53 10.53 22.62 9.04999 22.68ZM12.91 18H14.58C14.51 18.24 14.45 18.48 14.42 18.57C14.24 19.09 14.09 19.57 13.94 20.13C13.87 20.38 13.82 20.64 13.75 20.89C13.63 20.37 13.53 19.83 13.39 19.3C13.2839 18.9253 13.1537 18.5578 13 18.2L12.91 18ZM18.91 22.53C13.91 22.71 14.55 22.28 14.15 22.59C14.15 22.47 14.06 22.4 14.75 20.38C14.92 19.88 15.1 19.38 15.3 18.91C15.36 18.77 15.78 18.24 15.73 17.98H16.32H16.39L19.27 18.13L21.07 18.2H21.43C21.56 18.2 21.63 18.43 21.66 18.5C21.7947 18.7962 21.9018 19.1041 21.98 19.42C22.13 19.93 22.23 20.42 22.36 20.97L22.69 22.25C21.81 22.37 20.36 22.46 18.88 22.51L18.91 22.53Z" fill="black"/>
<path fill-rule="evenodd" clip-rule="evenodd" d="M1.79001 4.88C1.77046 4.97385 1.78617 5.07161 1.83413 5.15462C1.88209 5.23762 1.95894 5.30006 2.05001 5.33C2.34339 5.42878 2.61745 5.57765 2.86001 5.77C3.08618 5.93141 3.27117 6.14381 3.40001 6.39C3.46001 6.5 3.49001 6.96 3.55001 7.15C3.59098 7.28377 3.67109 7.40219 3.78001 7.49C3.87447 7.57163 3.99516 7.61655 4.12001 7.61655C4.24486 7.61655 4.36554 7.57163 4.46001 7.49C4.57139 7.40448 4.65208 7.2852 4.69001 7.15V6.72L5.00001 5.93C5.09061 5.77074 5.1908 5.61712 5.30001 5.47C5.39734 5.33286 5.51157 5.20855 5.64001 5.1C5.64001 5.1 6.00001 4.85 6.11001 4.76C6.20645 4.68523 6.28262 4.58747 6.33153 4.47566C6.38045 4.36386 6.40055 4.24158 6.39001 4.12C6.33579 3.89585 6.19574 3.70194 6.00001 3.58C5.79001 3.46 5.23001 3.19 5.17001 3.12C5.07229 3.03081 4.982 2.93382 4.90001 2.83C4.76438 2.66802 4.64388 2.49396 4.54001 2.31L4.39001 2C4.3314 1.85276 4.25768 1.71201 4.17001 1.58C4.10621 1.51832 4.02769 1.474 3.94192 1.45124C3.85615 1.42849 3.76599 1.42806 3.68001 1.45C3.59677 1.4646 3.51847 1.49967 3.45214 1.55203C3.38581 1.6044 3.33353 1.67242 3.30001 1.75C3.07166 2.35748 2.77652 2.93771 2.42001 3.48C2.17668 3.8054 1.86636 4.07479 1.51001 4.27C1.46252 4.2831 1.41844 4.30637 1.38083 4.33819C1.34323 4.37 1.31298 4.40962 1.29219 4.45428C1.2714 4.49894 1.26057 4.54759 1.26044 4.59685C1.26031 4.64611 1.27088 4.69482 1.29143 4.73959C1.31199 4.78436 1.34202 4.82413 1.37946 4.85615C1.4169 4.88817 1.46085 4.91167 1.50827 4.92502C1.55569 4.93838 1.60544 4.94127 1.65409 4.93349C1.70274 4.92572 1.74911 4.90747 1.79001 4.88ZM3.05001 4C3.28723 3.75232 3.49834 3.48089 3.68001 3.19C3.68001 3.27 3.77001 3.35 3.82001 3.42C3.94944 3.62845 4.10026 3.82283 4.27001 4C4.39612 4.10026 4.52986 4.19053 4.67001 4.27C4.53333 4.40586 4.41255 4.55683 4.31001 4.72C4.18911 4.93131 4.08544 5.15203 4.00001 5.38V5.5C3.88596 5.38606 3.76216 5.28233 3.63001 5.19C3.26384 4.92715 2.85426 4.73082 2.42001 4.61C2.65131 4.42989 2.86253 4.22537 3.05001 4Z" fill="black"/>
<path fill-rule="evenodd" clip-rule="evenodd" d="M14 5.57L14.19 5.52L14.31 5.57C14.8668 5.71529 15.3832 5.98545 15.82 6.36C16.2598 6.70816 16.6039 7.16238 16.82 7.68L17.16 9.21C17.1731 9.27305 17.1985 9.33291 17.2347 9.38614C17.271 9.43937 17.3174 9.48494 17.3712 9.52023C17.4251 9.55552 17.4854 9.57985 17.5487 9.59182C17.612 9.60379 17.677 9.60317 17.74 9.59C17.8305 9.58255 17.9176 9.55197 17.9929 9.50119C18.0682 9.45041 18.1292 9.38113 18.17 9.3C18.2017 9.2014 18.2284 9.10128 18.25 9L18.39 8.59L18.88 7.43C19.0502 7.13543 19.2477 6.85754 19.47 6.6C19.7038 6.34628 19.958 6.11217 20.23 5.9C20.4 5.76 20.65 5.65 20.85 5.51C20.9922 5.41527 21.1201 5.30079 21.23 5.17C21.3179 5.07622 21.3739 4.95709 21.3901 4.82959C21.4062 4.70209 21.3817 4.57274 21.32 4.46C21.253 4.32917 21.1486 4.22125 21.02 4.15L20.72 4.07L20.33 3.93C20.164 3.86142 20.0063 3.7742 19.86 3.67C19.7021 3.56065 19.5548 3.43678 19.42 3.3C19.2024 3.08423 19.008 2.84626 18.84 2.59C18.6777 2.34535 18.5498 2.07952 18.46 1.8C18.4 1.63 18.4 1.24 18.34 1C18.3129 0.83715 18.2478 0.682978 18.15 0.55C18.0967 0.481485 18.0285 0.426048 17.9505 0.387921C17.8725 0.349794 17.7868 0.329984 17.7 0.33C17.6162 0.323641 17.5321 0.336558 17.4541 0.36776C17.3761 0.398963 17.3063 0.447621 17.25 0.51C17.1726 0.585803 17.1202 0.683526 17.1 0.79C17.095 0.859912 17.095 0.930089 17.1 1L17 1.42C16.9506 1.61318 16.8905 1.80347 16.82 1.99C16.7476 2.17976 16.6607 2.36364 16.56 2.54C16.2457 3.08557 15.8475 3.57826 15.38 4C14.9125 4.42866 14.3702 4.76763 13.78 5C13.7372 5.01361 13.6975 5.03557 13.6633 5.0646C13.629 5.09363 13.6008 5.12916 13.5804 5.16914C13.5599 5.20912 13.5476 5.25276 13.5441 5.29753C13.5406 5.34231 13.546 5.38733 13.56 5.43C13.6023 5.50443 13.671 5.56019 13.7526 5.58615C13.8342 5.6121 13.9225 5.60633 14 5.57ZM15.91 4.57C16.4828 4.13618 16.9853 3.61676 17.4 3.03C17.45 2.95 17.5 2.88 17.54 2.8C17.6052 2.9441 17.6787 3.08433 17.76 3.22C17.9619 3.58169 18.207 3.91749 18.49 4.22C18.6755 4.40941 18.8762 4.58332 19.09 4.74L19.39 4.93C19.0643 5.19246 18.7661 5.4873 18.5 5.81C18.2185 6.1437 17.9831 6.51367 17.8 6.91L17.68 7.24C17.363 6.63007 16.9117 6.10008 16.36 5.69C16.0113 5.41188 15.6281 5.17996 15.22 5C15.4506 4.87923 15.6743 4.74569 15.89 4.6L15.91 4.57Z" fill="black"/>
</g>
<defs>
<clipPath id="clip0_1049_8050">
<rect width="24" height="24" fill="white"/>
</clipPath>
</defs>
</svg>
