<svg width="24" height="24" viewBox="0 0 24 24" fill="none" xmlns="http://www.w3.org/2000/svg">
<g clip-path="url(#clip0_1049_8070)">
<path fill-rule="evenodd" clip-rule="evenodd" d="M22 2.65C22 2.65 21.93 2.55 21.87 2.53C21.6359 2.42694 21.4275 2.27325 21.26 2.08C21.1032 1.88664 20.9906 1.66139 20.93 1.42C20.66 0.419999 20.82 0.329999 20.46 0.0999986C20.3577 0.0229296 20.2331 -0.0187531 20.105 -0.0187531C19.9769 -0.0187531 19.8523 0.0229296 19.75 0.0999986C19.6025 0.212653 19.4856 0.360494 19.41 0.529999C19.27 0.799999 19.19 1.26 19.09 1.44C18.9798 1.71692 18.7966 1.95881 18.56 2.14C18.2734 2.32905 17.9549 2.46458 17.62 2.54C17.5359 2.55243 17.4599 2.59679 17.4078 2.66385C17.3556 2.7309 17.3313 2.81549 17.34 2.9C17.3449 2.94215 17.3582 2.98291 17.379 3.01988C17.3998 3.05686 17.4278 3.08932 17.4613 3.11538C17.4948 3.14144 17.5332 3.16057 17.5742 3.17167C17.6151 3.18276 17.6579 3.18559 17.7 3.18C17.7114 3.23178 17.7344 3.28029 17.7673 3.32187C17.8003 3.36345 17.8422 3.397 17.89 3.42C18.136 3.56192 18.3614 3.73688 18.56 3.94C18.734 4.11736 18.8701 4.32832 18.96 4.56L19.15 5.15L19.25 5.39C19.2921 5.48863 19.3572 5.57572 19.4399 5.64395C19.5227 5.71217 19.6206 5.75955 19.7254 5.78208C19.8302 5.80462 19.939 5.80166 20.0424 5.77346C20.1459 5.74525 20.2411 5.69262 20.32 5.62C20.4224 5.49571 20.5004 5.35322 20.55 5.2C20.61 5.02 20.63 4.8 20.69 4.66C20.7763 4.26424 20.9661 3.89847 21.24 3.6C21.416 3.40483 21.6455 3.26572 21.9 3.2C21.9417 3.19632 21.9822 3.18421 22.0192 3.16442C22.0561 3.14463 22.0886 3.11757 22.1148 3.08485C22.141 3.05214 22.1602 3.01447 22.1714 2.9741C22.1826 2.93374 22.1855 2.89152 22.18 2.85C22.1684 2.8046 22.1459 2.76269 22.1146 2.72786C22.0832 2.69303 22.0439 2.66631 22 2.65ZM20.48 3.11C20.2133 3.32549 19.9865 3.58611 19.81 3.88C19.6706 3.70058 19.5094 3.53933 19.33 3.4C19.1276 3.26715 18.9133 3.15333 18.69 3.06C18.8789 3.0099 19.063 2.94297 19.24 2.86C19.5742 2.67398 19.8615 2.41403 20.08 2.1C20.2313 2.33895 20.4204 2.55173 20.64 2.73C20.727 2.77931 20.8172 2.82274 20.91 2.86C20.76 2.93129 20.6161 3.01491 20.48 3.11Z" fill="black"/>
<path fill-rule="evenodd" clip-rule="evenodd" d="M20.45 14.87C20.032 14.046 19.5184 13.274 18.92 12.57C18.8866 12.5364 18.8468 12.5098 18.8031 12.4916C18.7593 12.4735 18.7124 12.4641 18.665 12.4641C18.6176 12.4641 18.5707 12.4735 18.5269 12.4916C18.4832 12.5098 18.4434 12.5364 18.41 12.57C18.373 12.6 18.3423 12.6371 18.3197 12.6791C18.2971 12.7211 18.283 12.7671 18.2784 12.8146C18.2737 12.862 18.2786 12.9099 18.2926 12.9555C18.3066 13.001 18.3295 13.0434 18.36 13.08C18.7341 13.5622 19.0685 14.0738 19.36 14.61C19.5644 14.9627 19.7255 15.3388 19.84 15.73C19.84 15.82 19.9 15.89 19.84 15.94C19.6009 16.2936 19.248 16.5547 18.84 16.68C18.64 16.75 16.84 16.96 16.59 16.98C15.2 17.1 13.77 17.12 12.33 17.12H10.75C9.12 17.12 7.47 17.12 5.9 17C5.69 17 5.4 17 5.11 16.92C5.11 16.92 3.93 16.66 3.74 16.58C3.54331 16.5219 3.3604 16.4247 3.2023 16.2941C3.04419 16.1634 2.91414 16.0022 2.82 15.82C2.76411 15.4792 2.81657 15.1294 2.97 14.82C3.22 14.17 3.62 13.51 3.81 13.1C4.05759 13.1844 4.31181 13.248 4.57 13.29C4.69313 13.2999 4.81686 13.2999 4.94 13.29L5.3 13.23C6.44 13.01 6.53 12.92 6.54 12.68C6.55 12.44 6.62 12.27 5.27 12.08C5.14378 12.0648 5.01621 12.0648 4.89 12.08C4.7635 12.0707 4.63649 12.0707 4.51 12.08C4.33799 12.1109 4.16775 12.151 4 12.2C3.89 11.74 3.79 11.28 3.67 10.81C3.61 10.59 3.55 10.37 3.47 10.16C3.40318 9.94382 3.31959 9.73318 3.22 9.53C3.05832 9.18709 2.87805 8.85326 2.68 8.53C3.6 8.53 4.51 8.44 5.41 8.44C6.64 8.44 7.84 8.49 9.05 8.52C10.26 8.55 11.48 8.52 12.71 8.52C13.94 8.52 15.3 8.52 16.62 8.43C17.44 8.43 18.23 8.34 19.01 8.26C18.7851 8.61776 18.5815 8.9884 18.4 9.37C18.33 9.54 18.27 9.71 18.21 9.89C18.15 10.07 18.13 10.25 18.1 10.44C18.03 10.87 18 11.29 17.95 11.71C17.72 11.66 17.49 11.61 17.25 11.58C17.1104 11.5653 16.9696 11.5653 16.83 11.58H16.41C15.07 11.82 15.13 12.01 15.13 12.13C15.13 12.25 15.13 12.54 16.42 12.75C16.563 12.7646 16.707 12.7646 16.85 12.75L17.27 12.7C17.61 12.64 17.91 12.54 18.27 12.47C18.3664 12.4674 18.4579 12.4273 18.5252 12.3582C18.5924 12.2891 18.63 12.1964 18.63 12.1C18.63 12.1 18.63 12.05 18.63 12.02C18.63 11.99 18.7 11.96 18.72 11.91C18.91 11.51 19.11 11.13 19.27 10.73C19.3453 10.5601 19.4121 10.3866 19.47 10.21C19.5228 10.0324 19.5661 9.85215 19.6 9.67C19.67 9.23 19.67 8.81 19.72 8.36C19.7347 8.2983 19.7301 8.23358 19.7069 8.17457C19.6836 8.11556 19.6428 8.0651 19.59 8.03C19.6281 7.96584 19.652 7.89422 19.66 7.82C19.6562 7.77267 19.6431 7.72655 19.6214 7.6843C19.5998 7.64205 19.5699 7.60451 19.5337 7.57383C19.4974 7.54316 19.4555 7.51996 19.4102 7.50557C19.365 7.49119 19.3173 7.48589 19.27 7.49H16.69C15.4 7.49 14.11 7.37 12.88 7.31C12.8856 7.22343 12.8856 7.13658 12.88 7.05C12.8398 6.85431 12.7795 6.6633 12.7 6.48C12.5569 6.13951 12.3223 5.84529 12.0223 5.62995C11.7222 5.41461 11.3684 5.28656 11 5.26C10.6563 5.22573 10.3095 5.27513 9.9891 5.40399C9.66869 5.53285 9.38422 5.73734 9.16 6C8.9622 6.24425 8.8098 6.52198 8.71 6.82C8.67358 6.99169 8.64687 7.1653 8.63 7.34H7.46C5.69819 7.41903 3.94215 7.59597 2.2 7.87C2.13758 7.85474 2.07241 7.85474 2.01 7.87C1.93211 7.90135 1.86911 7.96121 1.83381 8.03738C1.79851 8.11355 1.79357 8.20032 1.82 8.28C1.92 8.82 1.98 9.34 2.11 9.88C2.16147 10.1011 2.22829 10.3183 2.31 10.53C2.39 10.75 2.48 10.96 2.58 11.17C2.81 11.65 3.07 12.1 3.33 12.56V12.61C2.90428 13.2843 2.52989 13.9896 2.21 14.72C2.02738 15.0919 1.95454 15.5082 2 15.92C2 16.57 1.89 17.31 1.91 18.09C1.92353 18.4051 1.95693 18.7191 2.01 19.03C2.18345 20.0967 2.57126 21.1173 3.15 22.03C3.19508 22.1149 3.27204 22.1784 3.36393 22.2065C3.40943 22.2204 3.45723 22.2252 3.5046 22.2207C3.55196 22.2162 3.59797 22.2023 3.64 22.18C3.68202 22.1577 3.71923 22.1273 3.74951 22.0906C3.7798 22.0539 3.80255 22.0116 3.81648 21.9661C3.83041 21.9206 3.83524 21.8728 3.83069 21.8254C3.82615 21.778 3.81232 21.732 3.79 21.69C3.65258 21.3338 3.54879 20.9655 3.48 20.59C3.4 20.22 3.36 19.83 3.3 19.43C3.24 19.03 3.2 18.65 3.13 18.26C3.06 17.87 3 17.44 2.89 17C3.04047 17.1203 3.20107 17.2274 3.37 17.32C4.17816 17.5985 5.00314 17.8257 5.84 18C6.84 18.09 7.84 18.16 8.84 18.22V18.85C8.85784 19.1394 8.9255 19.4236 9.04 19.69C9.22504 20.06 9.51111 20.37 9.86506 20.5842C10.219 20.7983 10.6264 20.9078 11.04 20.9C11.4316 20.8904 11.8158 20.7906 12.1626 20.6085C12.5094 20.4264 12.8097 20.1669 13.04 19.85C13.2261 19.607 13.3497 19.322 13.4 19.02C13.4249 18.7706 13.4249 18.5194 13.4 18.27C14.52 18.27 15.63 18.16 16.72 18.04C17.5591 17.9819 18.3882 17.8241 19.19 17.57C19.29 17.57 19.37 17.46 19.46 17.42C19.39 17.69 19.31 17.96 19.26 18.24C19.1902 18.7103 19.1502 19.1846 19.14 19.66V21.79C19.1359 21.8373 19.1412 21.885 19.1556 21.9302C19.17 21.9755 19.1932 22.0174 19.2238 22.0537C19.2545 22.0899 19.292 22.1198 19.3343 22.1414C19.3765 22.1631 19.4227 22.1762 19.47 22.18C19.5666 22.1884 19.6627 22.1585 19.7375 22.0968C19.8123 22.0351 19.8599 21.9465 19.87 21.85C20 21.18 20.14 20.51 20.25 19.85C20.3 19.56 20.33 19.28 20.37 18.99C20.41 18.7 20.42 18.41 20.44 18.12C20.44 17.57 20.44 17.04 20.51 16.5L20.6 16.4C20.6895 16.1497 20.7225 15.8827 20.6966 15.6182C20.6706 15.3536 20.5864 15.0981 20.45 14.87ZM10 6.79C10.1233 6.67665 10.2696 6.59134 10.429 6.53993C10.5884 6.48851 10.7571 6.47223 10.9233 6.49218C11.0896 6.51213 11.2496 6.56786 11.3923 6.65552C11.535 6.74318 11.657 6.8607 11.75 7C11.833 7.11552 11.9034 7.23955 11.96 7.37H9.56H9.49C9.6094 7.13746 9.78463 6.93817 10 6.79ZM12.59 18.63C12.5254 18.8348 12.4161 19.0226 12.27 19.18C12.1089 19.3372 11.9179 19.4607 11.7084 19.5431C11.4989 19.6256 11.2751 19.6653 11.05 19.66C10.8405 19.6786 10.6298 19.6422 10.4387 19.5545C10.2476 19.4669 10.0826 19.3309 9.96 19.16C9.83369 18.9796 9.74524 18.7755 9.7 18.56V18.24C10.24 18.24 10.79 18.3 11.34 18.31H12.69C12.6521 18.4203 12.6053 18.5273 12.55 18.63H12.59Z" fill="black"/>
<path fill-rule="evenodd" clip-rule="evenodd" d="M5.63 15.84C6.05 15.3 4.9 15.6 7.99 15.48L9.35999 15.3C9.41 15.37 9.56 15.43 9.6 15.48L10.6 16.6C10.92 17.05 11.48 16.91 11.97 16.7C12.39 15.84 12.37 15.41 12.79 15.4C13.4911 15.4682 14.1957 15.4949 14.9 15.48L16.27 15.3C16.27 15.37 16.47 15.43 16.51 15.48L17.31 16.58C17.55 16.76 18.16 16.63 18.03 16.36L17.29 14.88C17.1804 14.7072 17.0531 14.5463 16.91 14.4C16.8131 14.323 16.7004 14.2684 16.58 14.24C16.381 14.1888 16.1752 14.1685 15.97 14.18C15.67 14.18 15.37 14.18 15.08 14.24C15.109 14.1898 15.1242 14.1329 15.1242 14.075C15.1242 14.0171 15.109 13.9602 15.08 13.91C14.77 13.47 14.54 12.85 14.23 12.33C14.0788 12.0589 13.8827 11.8154 13.65 11.61C13.5122 11.5196 13.3542 11.4646 13.19 11.45H12.43L10.83 11.39H9.72999C9.39355 11.3973 9.05862 11.4375 8.72999 11.51C8.55394 11.5595 8.39484 11.6564 8.27 11.79C8.03808 12.1274 7.85933 12.4984 7.74 12.89C7.58999 13.35 7.48 13.82 7.38 14.24C7.00393 14.21 6.62607 14.21 6.25 14.24C5.94955 14.2757 5.65623 14.3566 5.38 14.48C5.25822 14.5288 5.15618 14.6167 5.09 14.73C4.99517 14.9375 4.91497 15.1513 4.85 15.37L4.62 16.09C4.62 16.45 5.19 16.65 5.37 16.36L5.63 15.84ZM8.47 13.25C8.58957 13.01 8.73727 12.7851 8.91 12.58C8.91 12.64 9.09 12.58 9.18 12.58H9.68999H12.34C12.82 12.58 12.81 12.12 13.34 12.85C13.7 13.3 13.99 13.85 14.34 14.24C13.9038 14.2102 13.4662 14.2102 13.03 14.24C12.7296 14.2757 12.4362 14.3566 12.16 14.48C12.0382 14.5288 11.9362 14.6167 11.87 14.73C11.78 14.89 11.66 15.28 11.62 15.37L11.19 16.02L10.38 14.83C10.2704 14.6724 10.1429 14.5281 10 14.4C9.90199 14.3248 9.78971 14.2704 9.67 14.24C9.47095 14.1888 9.2652 14.1685 9.06 14.18C8.71 14.18 8.35 14.24 8.06 14.25C8.18 13.9101 8.31683 13.5763 8.47 13.25Z" fill="black"/>
<path fill-rule="evenodd" clip-rule="evenodd" d="M18.59 22.66C18.0971 22.7367 17.5988 22.7735 17.1 22.77C16.33 22.77 15.56 22.77 14.78 22.72H13L10.47 22.79H8.80002C7.89002 22.79 6.94002 22.92 5.99002 22.87C5.39318 22.843 4.80355 22.7284 4.24002 22.53C4.20128 22.5135 4.15968 22.5049 4.11759 22.5045C4.07551 22.5041 4.03376 22.5121 3.99475 22.5279C3.95573 22.5437 3.92022 22.567 3.89024 22.5965C3.86025 22.6261 3.83639 22.6612 3.82002 22.7C3.78614 22.777 3.78393 22.8642 3.81387 22.9428C3.84382 23.0214 3.9035 23.0851 3.98002 23.12C4.5859 23.4102 5.23393 23.6026 5.90002 23.69C6.84099 23.8402 7.78881 23.9436 8.74002 24H11.18C12.39 24 13.6 23.85 14.8 23.78C15.6 23.73 16.37 23.71 17.15 23.63C17.6854 23.5858 18.2169 23.5023 18.74 23.38C18.7866 23.3701 18.8309 23.3512 18.8702 23.3243C18.9095 23.2973 18.9431 23.2629 18.9691 23.223C18.9951 23.1831 19.013 23.1384 19.0217 23.0916C19.0304 23.0447 19.0299 22.9966 19.02 22.95C19.0102 22.9034 18.9912 22.8592 18.9643 22.8199C18.9374 22.7806 18.9029 22.7469 18.863 22.7209C18.8231 22.6949 18.7784 22.6771 18.7316 22.6683C18.6847 22.6596 18.6366 22.6601 18.59 22.67V22.66Z" fill="black"/>
<path fill-rule="evenodd" clip-rule="evenodd" d="M3.06999 7.52C3.26461 7.07199 3.49537 6.64056 3.75999 6.23C3.91669 5.98868 4.11673 5.77846 4.34999 5.61C5.08616 5.15563 5.9349 4.9166 6.79999 4.92C8.23999 4.82 9.81999 5 11 5C12.2793 4.874 13.5645 4.81725 14.85 4.83C15.6317 4.83146 16.3949 5.06843 17.04 5.51C17.223 5.64829 17.3907 5.80586 17.54 5.98C17.7669 6.26778 17.9773 6.56827 18.17 6.88C18.1955 6.9242 18.2299 6.96265 18.271 6.99293C18.3121 7.0232 18.359 7.04465 18.4087 7.05592C18.4585 7.06719 18.5101 7.06804 18.5602 7.05842C18.6103 7.04879 18.6579 7.0289 18.7 7C18.7809 6.94847 18.8387 6.86753 18.861 6.77425C18.8834 6.68097 18.8687 6.58264 18.82 6.5C18.6317 6.15127 18.4178 5.81702 18.18 5.5C18.0165 5.26434 17.8214 5.05234 17.6 4.87C16.8625 4.25206 15.957 3.86895 15 3.77C13.6679 3.68892 12.3321 3.68892 11 3.77C9.5664 3.72024 8.13121 3.7436 6.69999 3.84C5.65607 3.91689 4.65789 4.29947 3.82999 4.94C3.54041 5.19029 3.29969 5.49205 3.11999 5.83C2.86903 6.28892 2.65502 6.7671 2.47999 7.26C2.46195 7.29926 2.45204 7.34176 2.45086 7.38495C2.44969 7.42815 2.45727 7.47113 2.47316 7.51131C2.48904 7.55149 2.5129 7.58804 2.54329 7.61875C2.57368 7.64946 2.60998 7.6737 2.64999 7.69C2.72847 7.72063 2.81569 7.72008 2.89378 7.68847C2.97187 7.65687 3.03491 7.59659 3.06999 7.52Z" fill="black"/>
</g>
<defs>
<clipPath id="clip0_1049_8070">
<rect width="24" height="24" fill="white"/>
</clipPath>
</defs>
</svg>
