<svg width="24" height="24" viewBox="0 0 24 24" fill="none" xmlns="http://www.w3.org/2000/svg">
<path fill-rule="evenodd" clip-rule="evenodd" d="M20.64 5.16C20.6112 5.0929 20.5581 5.03915 20.4913 5.00949C20.4246 4.97983 20.3491 4.97644 20.28 5C20.2442 5.01128 20.211 5.02965 20.1824 5.05402C20.1539 5.07839 20.1305 5.10826 20.1137 5.14184C20.0969 5.17543 20.087 5.21205 20.0847 5.24953C20.0823 5.28701 20.0875 5.32458 20.1 5.36C20.363 6.29891 20.514 7.26562 20.55 8.24C20.5857 9.17514 20.4571 10.1093 20.17 11C19.8606 11.9366 19.3752 12.8054 18.74 13.56C18.1071 14.3199 17.3578 14.9747 16.52 15.5C14.8433 16.6114 12.8468 17.1387 10.84 17C10.3432 16.9488 9.8555 16.831 9.39 16.65C8.66537 16.3711 7.96329 16.0368 7.29 15.65C7.25332 15.6287 7.21275 15.6148 7.17067 15.6093C7.12858 15.6038 7.08582 15.6067 7.04488 15.6179C7.00393 15.629 6.96561 15.6482 6.93215 15.6744C6.8987 15.7005 6.87077 15.733 6.85 15.77C6.82824 15.8061 6.81382 15.8461 6.80758 15.8878C6.80133 15.9295 6.80337 15.972 6.81359 16.0129C6.82381 16.0537 6.84201 16.0922 6.86713 16.126C6.89226 16.1599 6.92382 16.1884 6.96 16.21C7.65023 16.6233 8.36867 16.9875 9.11 17.3H9.21C9.09701 17.6718 8.96006 18.0359 8.8 18.39C8.4 19.31 7.91 20.2 7.56 21.13C7.37332 21.5102 7.23877 21.9138 7.16 22.33C7.13588 22.5829 7.18813 22.8371 7.31 23.06C7.46337 23.3363 7.70694 23.5517 8 23.67C8.50182 23.8765 9.03749 23.9884 9.58 24H12.58C13.26 24 13.93 23.93 14.58 23.87C15.0567 23.8367 15.5272 23.7426 15.98 23.59C16.2285 23.4971 16.4514 23.3462 16.63 23.15C16.8182 22.9338 16.9213 22.6566 16.92 22.37C16.8706 21.8903 16.7279 21.4249 16.5 21C16.2 20.17 15.87 19.34 15.5 18.54C15.32 18.15 15.12 17.77 14.91 17.4C15.6792 17.1601 16.415 16.8241 17.1 16.4C18.0544 15.8249 18.8977 15.0831 19.59 14.21C20.2823 13.3197 20.789 12.2996 21.08 11.21C21.334 10.1873 21.4085 9.1282 21.3 8.08C21.1938 7.0844 20.9723 6.1045 20.64 5.16ZM14.82 18.85C15.15 19.66 15.42 20.47 15.68 21.3C15.7776 21.5543 15.8578 21.8149 15.92 22.08C15.9429 22.1499 15.9493 22.2242 15.9389 22.297C15.9285 22.3698 15.9015 22.4393 15.86 22.5C15.7427 22.5987 15.6012 22.6643 15.45 22.69C15.1205 22.7573 14.7861 22.7974 14.45 22.81C13.83 22.86 13.18 22.88 12.53 22.9H9.62C9.3125 22.9072 9.00491 22.8905 8.7 22.85C8.48 22.85 8.26 22.78 8.16 22.62C8.1042 22.5232 8.08638 22.4092 8.11 22.3C8.18017 21.9977 8.27037 21.7004 8.38 21.41C8.66 20.48 9.08 19.57 9.38 18.65C9.52077 18.2812 9.63767 17.9038 9.73 17.52C10.0568 17.6251 10.3911 17.7054 10.73 17.76C11.8945 17.9154 13.0777 17.8544 14.22 17.58C14.44 18 14.65 18.43 14.82 18.85Z" fill="black"/>
<path fill-rule="evenodd" clip-rule="evenodd" d="M15.39 11.72C15.0213 12.1685 14.5697 12.542 14.06 12.82C13.5592 13.1311 13.0074 13.3511 12.43 13.47C12.0576 13.5566 11.6707 13.5593 11.2971 13.478C10.9236 13.3968 10.5727 13.2335 10.27 13C10.2064 12.943 10.1227 12.9136 10.0373 12.9183C9.952 12.923 9.87203 12.9613 9.81501 13.025C9.75799 13.0886 9.72859 13.1723 9.73327 13.2577C9.73796 13.343 9.77636 13.423 9.84001 13.48C10.2976 13.8882 10.8527 14.1717 11.4517 14.3031C12.0508 14.4344 12.6735 14.4093 13.26 14.23C13.7245 14.1214 14.172 13.9499 14.59 13.72C15.2299 13.375 15.7889 12.8978 16.23 12.32C16.6467 11.7154 16.9109 11.0189 17 10.29C17.0774 9.57831 16.999 8.85829 16.77 8.18C16.7581 8.14013 16.7377 8.10329 16.7103 8.07199C16.6829 8.04068 16.6491 8.01564 16.6112 7.99857C16.5732 7.98149 16.532 7.97278 16.4904 7.97303C16.4488 7.97327 16.4077 7.98247 16.37 8C16.3344 8.01032 16.3013 8.02759 16.2724 8.05082C16.2436 8.07405 16.2196 8.10277 16.2019 8.13533C16.1843 8.16788 16.1732 8.20362 16.1695 8.24047C16.1657 8.27731 16.1693 8.31454 16.18 8.35C16.3147 8.94919 16.3147 9.5708 16.18 10.17C16.0489 10.744 15.7775 11.2766 15.39 11.72Z" fill="black"/>
<path fill-rule="evenodd" clip-rule="evenodd" d="M10.44 4.46C9.32066 4.83418 8.35474 5.56477 7.69 6.54C7.17029 7.39002 6.95518 8.39154 7.08 9.38C7.12333 9.6692 7.204 9.95156 7.32 10.22C7.82 10.84 8.21 10.52 7.96 9.68V9.3C7.93063 8.52624 8.16317 7.7652 8.62 7.14C9.16912 6.36415 9.93926 5.77174 10.83 5.44C11.5254 5.17103 12.2929 5.15334 13 5.39C13.72 5.81 14.26 5.21 13.68 4.81C13.1979 4.51956 12.6582 4.33778 12.0986 4.27733C11.5391 4.21688 10.973 4.27922 10.44 4.46Z" fill="black"/>
<path fill-rule="evenodd" clip-rule="evenodd" d="M4.16 12.88C3.68404 11.9719 3.42719 10.9651 3.41 9.94C3.35549 8.34178 3.8146 6.76815 4.72 5.45C5.85426 3.79583 7.47107 2.53172 9.35 1.83C11.2272 1.09865 13.2974 1.02811 15.22 1.63C15.7442 1.79023 16.2503 2.00473 16.73 2.27C17.54 2.71 17.73 2.27 17.3 1.79L17.18 1.69C16.6426 1.3625 16.0729 1.09108 15.48 0.879999C13.39 0.112555 11.0971 0.10194 9 0.849999C6.89925 1.59738 5.09399 2.99953 3.85 4.85C2.88554 6.38614 2.44032 8.19158 2.58 10C2.66193 11.1834 3.02905 12.3293 3.65 13.34C4.18 14 4.71 13.56 4.16 12.88Z" fill="black"/>
<path fill-rule="evenodd" clip-rule="evenodd" d="M22.36 0.16C22.3394 0.122772 22.3114 0.0901809 22.2776 0.0642562C22.2439 0.0383315 22.2052 0.0196277 22.1639 0.00930924C22.1227 -0.00100925 22.0797 -0.00272161 22.0377 0.00427874C21.9958 0.0112791 21.9557 0.0268423 21.92 0.0499996C20.9342 0.639954 19.9978 1.30881 19.12 2.05C15.19 5.21 4.12 14.58 1.68 17.05C1.6534 17.0761 1.63226 17.1072 1.61783 17.1415C1.6034 17.1759 1.59596 17.2127 1.59596 17.25C1.59596 17.2873 1.6034 17.3241 1.61783 17.3585C1.63226 17.3928 1.6534 17.4239 1.68 17.45C1.73559 17.502 1.80887 17.531 1.885 17.531C1.96113 17.531 2.03442 17.502 2.09 17.45C3.18 16.45 4.34 15.45 5.53 14.53C6.92 13.44 8.36 12.41 9.77 11.35C11.18 10.29 12.57 9.14 13.92 8C15.84 6.31 17.64 4.32 19.62 2.6C20.4446 1.86749 21.3238 1.19889 22.25 0.6C22.2862 0.578398 22.3177 0.549861 22.3429 0.516029C22.368 0.482197 22.3862 0.443735 22.3964 0.402852C22.4066 0.361969 22.4087 0.31947 22.4024 0.277794C22.3962 0.236119 22.3818 0.196088 22.36 0.16Z" fill="black"/>
</svg>
