<svg width="24" height="24" viewBox="0 0 24 24" fill="none" xmlns="http://www.w3.org/2000/svg">
<g clip-path="url(#clip0_1034_4751)">
<path fill-rule="evenodd" clip-rule="evenodd" d="M23.91 9.19999C23.73 8.61999 22.53 8.59999 21.7 8.55999C21.8599 7.76524 21.9601 6.95967 22 6.14999L23.47 6.04999C23.5628 6.04999 23.6518 6.01311 23.7175 5.94747C23.7831 5.88184 23.82 5.79281 23.82 5.69999C23.82 5.60716 23.7831 5.51814 23.7175 5.4525C23.6518 5.38686 23.5628 5.34999 23.47 5.34999L22 5.25999C22 4.47999 21.9 3.98999 21.79 3.07999C21.79 2.98716 21.7531 2.89814 21.6875 2.8325C21.6218 2.76686 21.5328 2.72999 21.44 2.72999C21.3472 2.72999 21.2582 2.76686 21.1925 2.8325C21.1269 2.89814 21.09 2.98716 21.09 3.07999C21.09 3.73999 20.93 4.42999 20.87 5.18999C19.8177 5.12443 18.7623 5.12443 17.71 5.18999C17.65 3.97999 17.58 3.65999 17.49 2.52999C17.4759 2.44606 17.4324 2.36985 17.3675 2.31489C17.3025 2.25993 17.2201 2.22978 17.135 2.22978C17.0499 2.22978 16.9675 2.25993 16.9025 2.31489C16.8376 2.36985 16.7941 2.44606 16.78 2.52999C16.63 4.01999 16.59 4.23999 16.56 5.26999C15.62 5.35999 14.68 5.47999 13.72 5.59999C13.72 4.53999 13.83 2.59999 13.13 2.27999C10.86 1.11999 3.55 1.27999 1.13 1.84999C0.737551 1.89544 0.378548 2.0929 0.13 2.39999C-0.26 3.19999 0.13 21.07 1.29 21.83C3.08 23.01 19.6 22.53 22.13 22.27C22.66 22.22 23.31 22.18 23.46 21.87C23.4819 21.8289 23.4952 21.7838 23.499 21.7374C23.5027 21.691 23.4969 21.6444 23.4819 21.6003C23.4669 21.5562 23.443 21.5157 23.4117 21.4813C23.3805 21.4468 23.3424 21.4191 23.3 21.4C23.04 21.27 22.2 21.55 21.85 21.58C15.6734 21.8826 9.48359 21.7823 3.32 21.28C1.6 21.06 2 21.14 1.87 20.6C1.43 18.13 1.22 9.83999 1.18 7.17999C1.91 7.24999 11.42 7.02999 11.79 6.89999C11.8665 6.87967 11.9339 6.83399 11.9812 6.77042C12.0284 6.70685 12.0527 6.62914 12.05 6.54999C12.05 6.01999 11.31 6.25999 10.75 6.17999L7.43 5.99999C3.6 5.76999 2.87 6.49999 1.18 6.53999V3.06999C3.4323 2.68903 5.71673 2.5316 8 2.59999C9.51969 2.56133 11.0357 2.76729 12.49 3.20999C12.6788 4.84967 12.719 6.50307 12.61 8.14999C12.61 8.61999 12.52 9.03999 12.91 9.27999C13.91 9.88999 21.19 9.05999 23.18 9.53999C23.27 10.46 23.4 17.17 23.25 19.69C23.25 19.7722 23.2827 19.8511 23.3408 19.9092C23.3989 19.9673 23.4778 20 23.56 20C23.6422 20 23.7211 19.9673 23.7792 19.9092C23.8373 19.8511 23.87 19.7722 23.87 19.69C24 17.57 24.06 9.66999 23.91 9.19999ZM13.58 8.40999C13.58 8.15999 13.67 6.51999 13.68 6.27999L16.54 6.35999C16.589 7.09498 16.6825 7.82632 16.82 8.54999C15.738 8.60482 14.6532 8.55794 13.58 8.40999ZM17.51 8.53999C17.59 7.61999 17.65 7.28999 17.69 6.35999C18.44 6.35999 18.69 6.35999 20.8 6.22999C20.7999 7.00431 20.8669 7.77719 21 8.53999C19.93 8.51999 18.69 8.52999 17.51 8.53999Z" fill="black"/>
<path fill-rule="evenodd" clip-rule="evenodd" d="M3.54 5.09C4.2 4.81 3.89 3.55 3.09 3.64C2.9726 3.64811 2.85856 3.68267 2.75642 3.74111C2.65428 3.79955 2.56668 3.88034 2.50019 3.97743C2.4337 4.07452 2.39004 4.1854 2.37248 4.30176C2.35493 4.41812 2.36392 4.53694 2.3988 4.64933C2.43368 4.76172 2.49354 4.86476 2.57389 4.95074C2.65424 5.03671 2.753 5.10339 2.86278 5.14578C2.97256 5.18817 3.0905 5.20517 3.20778 5.19551C3.32506 5.18585 3.43864 5.14978 3.54 5.09Z" fill="black"/>
<path fill-rule="evenodd" clip-rule="evenodd" d="M6.58 5.09C7.23 4.81 6.92 3.55 6.12 3.64C5.9981 3.64409 5.87881 3.67635 5.77146 3.73425C5.66412 3.79216 5.57164 3.87413 5.50127 3.97374C5.4309 4.07336 5.38455 4.18792 5.36585 4.30844C5.34715 4.42897 5.35661 4.55218 5.39349 4.66844C5.43038 4.7847 5.49367 4.89083 5.57843 4.97854C5.66319 5.06624 5.7671 5.13313 5.88203 5.17396C5.99695 5.2148 6.11977 5.22846 6.24087 5.2139C6.36196 5.19933 6.47803 5.15692 6.58 5.09Z" fill="black"/>
<path fill-rule="evenodd" clip-rule="evenodd" d="M12.48 16.62C12.48 15.25 12.43 14.19 12.3 12.84C12.12 11.02 12.22 11.04 10.16 10.91C8.20369 10.762 6.24072 10.722 4.28 10.79C3.75 10.91 3.91 11.79 4.44 11.67C4.97 11.55 9.44 12.03 10.44 12.16C9.36604 12.9282 8.22471 13.5976 7.03 14.16C6.36 13.8 6.03 13.66 5.63 13.42C3.54 11.8 2.4 10.75 2.32 11.57C2.21 12.83 1.94 17.5 2.43 18.66C2.57 19.02 2.98 19.04 3.32 19.08C6.04866 19.3389 8.79691 19.3121 11.52 19C11.8039 18.9769 12.0675 18.8437 12.2544 18.6288C12.4413 18.4139 12.5366 18.1343 12.52 17.85C12.57 17.44 12.48 16.75 12.48 16.62ZM11.54 12.35C11.54 12.5 11.48 12 11.54 16.35C11.5147 16.7229 11.5147 17.0971 11.54 17.47C10.92 17 9.29 15.54 8.44 15C9.57646 14.2449 10.6174 13.3551 11.54 12.35ZM5 14.55C5.84 15.2 5.82 14.95 5.48 15.21C5.48 15.21 3.15 17.68 3.04 17.81C2.90982 16.0524 2.90982 14.2876 3.04 12.53C3.21 12.7 3 12.5 5 14.55ZM3.76 18.29C6.42 16.42 6.61 16.15 7.05 15.88C8.26494 16.4828 9.44664 17.1504 10.59 17.88C8.87 18 5.33 18.3 3.76 18.29Z" fill="black"/>
<path fill-rule="evenodd" clip-rule="evenodd" d="M20.56 16.36C19.2622 15.9796 17.9115 15.8107 16.56 15.86C15.96 15.94 14.56 16.13 14.4 16.18C14.3202 16.2075 14.2535 16.2636 14.2129 16.3376C14.1722 16.4115 14.1605 16.4979 14.18 16.58C14.3 16.99 15.09 16.85 15.18 16.85C19.89 17.33 17.44 16.85 20.57 17.06C20.94 17.06 20.94 16.36 20.56 16.36Z" fill="black"/>
<path fill-rule="evenodd" clip-rule="evenodd" d="M20.56 12.26C19.2619 11.8814 17.9111 11.7159 16.56 11.77C15.96 11.85 14.56 12.03 14.4 12.08C14.3195 12.1095 14.2526 12.1675 14.212 12.2431C14.1714 12.3187 14.1601 12.4066 14.18 12.49C14.3 12.9 15.09 12.75 15.18 12.76C19.89 13.24 17.44 12.76 20.57 12.96C20.94 13 20.94 12.26 20.56 12.26Z" fill="black"/>
</g>
<defs>
<clipPath id="clip0_1034_4751">
<rect width="24" height="24" fill="white"/>
</clipPath>
</defs>
</svg>
