<svg width="24" height="24" viewBox="0 0 24 24" fill="none" xmlns="http://www.w3.org/2000/svg">
<g clip-path="url(#clip0_1034_4700)">
<path fill-rule="evenodd" clip-rule="evenodd" d="M23.63 7.50998C23.5 6.33998 23.56 3.99998 22.72 3.35998C20.8 1.86998 16.59 2.26998 13.91 2.15998C10.41 1.99998 6.76 2.29998 3.3 2.39998C3.22107 2.41367 3.14952 2.45478 3.09794 2.51607C3.04637 2.57736 3.01809 2.65488 3.01809 2.73498C3.01809 2.81508 3.04637 2.89261 3.09794 2.9539C3.14952 3.01519 3.22107 3.0563 3.3 3.06998C6.76 2.99998 10.37 2.78998 13.87 2.99998C16.34 3.13998 20.54 2.86998 22.12 4.12998C22.52 4.44998 22.53 6.80998 22.61 7.61998C22.9465 10.5356 22.9734 13.4787 22.69 16.4C22.6471 17.377 22.4962 18.3462 22.24 19.29C19.86 20.62 2.59 21.65 1.54 19.83C1.16131 18.3514 0.946682 16.8356 0.899996 15.31C0.700367 12.7512 0.750605 10.179 1.05 7.62998C1.13 7.62998 8.34999 7.95998 13.62 7.85998C15.95 7.85998 18.29 7.69998 20.38 7.65998C20.4702 7.65998 20.5567 7.62416 20.6204 7.5604C20.6842 7.49664 20.72 7.41016 20.72 7.31998C20.72 7.22981 20.6842 7.14333 20.6204 7.07957C20.5567 7.01581 20.4702 6.97998 20.38 6.97998C12.5 6.81998 7.63 6.54998 1.09 6.99998C1.09 6.44998 1.19 5.93998 1.26 5.38998C1.25215 4.75375 1.32268 4.11898 1.47 3.49998C1.51332 3.44221 1.53436 3.37075 1.52924 3.29872C1.52412 3.22669 1.49319 3.15892 1.44213 3.10785C1.39106 3.05679 1.3233 3.02586 1.25126 3.02074C1.17923 3.01562 1.10777 3.03666 1.05 3.07998C0.629996 3.51998 0.709996 4.85998 0.639996 5.32998C0.569996 5.79998 0.499996 6.37998 0.439996 6.89998C0.0441407 9.70147 -0.0764346 12.535 0.0799956 15.36C0.103765 17.0177 0.328745 18.6665 0.749996 20.27C2.21 22.94 17.99 21.71 21.67 20.71C23.12 20.32 23.36 19.92 23.55 18.79C24.1263 15.054 24.1532 11.2538 23.63 7.50998Z" fill="black"/>
<path fill-rule="evenodd" clip-rule="evenodd" d="M4.53999 5.38998C4.62518 5.22454 4.65081 5.03481 4.61257 4.85269C4.57432 4.67058 4.47454 4.50718 4.32999 4.38998C3.56999 3.98998 2.62999 4.76998 3.32999 5.46998C3.41362 5.5464 3.51184 5.60511 3.61874 5.64259C3.72564 5.68007 3.83902 5.69554 3.95206 5.68806C4.06509 5.68059 4.17545 5.65033 4.27648 5.5991C4.37752 5.54788 4.46716 5.47675 4.53999 5.38998Z" fill="black"/>
<path fill-rule="evenodd" clip-rule="evenodd" d="M7.16999 5.10997C7.2582 4.94605 7.28649 4.7565 7.24999 4.57397C7.21348 4.39144 7.11446 4.22735 6.96999 4.10997C6.19999 3.69997 5.25999 4.48997 5.96999 5.17997C6.05277 5.25541 6.1498 5.31354 6.25537 5.35093C6.36094 5.38833 6.47293 5.40423 6.58474 5.39771C6.69654 5.39119 6.80592 5.36237 6.90643 5.31296C7.00694 5.26354 7.09655 5.19453 7.16999 5.10997Z" fill="black"/>
<path fill-rule="evenodd" clip-rule="evenodd" d="M10.05 5.10997C10.1371 4.94496 10.1638 4.75469 10.1255 4.57208C10.0871 4.38946 9.98613 4.226 9.84 4.10997C9.07 3.69997 8.13 4.48997 8.84 5.17997C8.92298 5.25698 9.02067 5.31642 9.1272 5.35472C9.23373 5.39303 9.3469 5.4094 9.45992 5.40286C9.57294 5.39632 9.68347 5.36701 9.78487 5.31668C9.88628 5.26634 9.97646 5.19604 10.05 5.10997Z" fill="black"/>
<path fill-rule="evenodd" clip-rule="evenodd" d="M3.47 18C3.82946 18.0644 4.19917 18.0407 4.54749 17.931C4.8958 17.8213 5.21233 17.6288 5.47 17.37C6.09 16.55 5.82 14.91 3.83 14.96C3.46156 14.9749 3.11051 15.1206 2.83988 15.3711C2.56924 15.6215 2.39676 15.9603 2.35339 16.3264C2.31003 16.6926 2.39863 17.0623 2.60328 17.369C2.80794 17.6757 3.11524 17.8994 3.47 18ZM4.92 16.64C4.78605 16.7797 4.61674 16.8804 4.43007 16.9315C4.24341 16.9825 4.04639 16.982 3.86 16.93C3.49 16.8 3.36 16.21 3.53 16.05C4.16 15.41 5.3 15.78 4.92 16.64Z" fill="black"/>
<path fill-rule="evenodd" clip-rule="evenodd" d="M9.99999 11.62C10.067 11.6518 10.1435 11.6577 10.2146 11.6364C10.2858 11.6151 10.3465 11.5682 10.385 11.5048C10.4236 11.4414 10.4372 11.3659 10.4234 11.293C10.4095 11.22 10.3691 11.1548 10.31 11.11C8.81999 10.11 6.30999 12.83 7.00999 15.03C7.75999 17.41 10.36 17.5 11.01 16.13C11.22 15.69 11.19 15.06 10.71 15.13C10.6215 15.1299 10.5365 15.1644 10.473 15.226C10.4096 15.2876 10.3726 15.3716 10.37 15.46C10.37 15.9 10.3 16.15 9.68999 16.17C8.91999 16.17 8.36999 15.57 8.11999 14.74C7.67999 13.41 8.99999 11.12 9.99999 11.62Z" fill="black"/>
<path fill-rule="evenodd" clip-rule="evenodd" d="M12 12.1C11.12 14.21 11.27 16.9 13.56 16.97C13.8934 17.0034 14.2283 16.9226 14.5098 16.741C14.7914 16.5593 15.003 16.2875 15.11 15.97C15.38 15.26 15.95 11.49 13.88 11.04C13.4913 10.9571 13.0857 11.0191 12.7394 11.2143C12.3932 11.4095 12.1302 11.7245 12 12.1ZM14.36 15.29C14.26 15.67 14.07 15.95 13.61 15.91C12.3 15.82 12.53 13.58 12.92 12.44C12.9584 12.2556 13.0631 12.0917 13.2142 11.9793C13.3653 11.8669 13.5524 11.8138 13.74 11.83C14.85 12 14.52 14.43 14.31 15.29H14.36Z" fill="black"/>
<path fill-rule="evenodd" clip-rule="evenodd" d="M17 13.09C17.28 13.47 17.59 13.9 17.78 14.09C17.8721 14.2123 17.9975 14.3055 18.141 14.3587C18.2846 14.4119 18.4404 14.4227 18.59 14.39C19.3 14.11 19.36 12.86 19.65 12.2C19.9577 13.3937 20.1321 14.6178 20.17 15.85C20.17 16.14 20.17 16.59 20.6 16.43C20.94 16.43 20.88 16.11 20.87 15.81C20.8 12.08 20.93 11.4 19.93 11.04C19.62 10.92 19.2 11.04 18.88 11.58C18.6874 12.0622 18.5271 12.5566 18.4 13.06C18.04 12.63 17.54 11.97 17.26 11.71C16.77 11.23 16.26 11.41 16.19 11.83C15.81 13.52 16.48 15.59 16.56 16.49C16.552 16.5333 16.5536 16.5778 16.5647 16.6204C16.5759 16.663 16.5962 16.7026 16.6244 16.7364C16.6525 16.7703 16.6878 16.7975 16.7276 16.8162C16.7675 16.8348 16.811 16.8445 16.855 16.8445C16.899 16.8445 16.9425 16.8348 16.9823 16.8162C17.0222 16.7975 17.0575 16.7703 17.0856 16.7364C17.1138 16.7026 17.1341 16.663 17.1453 16.6204C17.1564 16.5778 17.158 16.5333 17.15 16.49C16.9992 15.3633 16.949 14.2255 17 13.09Z" fill="black"/>
</g>
<defs>
<clipPath id="clip0_1034_4700">
<rect width="24" height="24" fill="white"/>
</clipPath>
</defs>
</svg>
