<svg width="24" height="24" viewBox="0 0 24 24" fill="none" xmlns="http://www.w3.org/2000/svg">
<g clip-path="url(#clip0_1034_4759)">
<path fill-rule="evenodd" clip-rule="evenodd" d="M20.66 12.46C20.39 12.6215 20.1414 12.8164 19.92 13.04C19.8563 13.0878 19.8143 13.1588 19.803 13.2376C19.7918 13.3164 19.8123 13.3964 19.86 13.46C20.1 13.78 20.37 13.4 20.86 13.21C21.74 12.86 22.97 14 22.96 14.53C22.9769 15.0973 22.7806 15.6503 22.41 16.08C22.49 16.08 20.35 14.4 19.77 13.85C19.7063 13.7865 19.62 13.7509 19.53 13.7509C19.44 13.7509 19.3537 13.7865 19.29 13.85C18.87 14.27 19.63 14.55 21.8 16.64C21.44 17.17 20.89 17.64 17.8 20.89C17.5911 20.4297 17.2924 20.0158 16.9215 19.6724C16.5506 19.3289 16.115 19.063 15.64 18.89C17.48 16.6 18.82 15.16 18.92 15.01C18.9581 14.9553 18.9769 14.8895 18.9735 14.8229C18.97 14.7564 18.9445 14.6929 18.9009 14.6424C18.8573 14.592 18.7982 14.5575 18.7329 14.5444C18.6675 14.5312 18.5997 14.5403 18.54 14.57C18.45 14.57 18.42 14.67 17.99 15.12C15.46 17.73 13.86 19.37 13.8 19.86C13.55 22.04 13.4 23.1 13.71 23.43C14.32 24.09 16.78 23.34 17.3 23.02C19.5643 20.7695 21.6725 18.3673 23.61 15.83C25.07 13.47 22.28 11.6 20.66 12.46ZM16.66 22.03C16.0256 22.3114 15.3505 22.4903 14.66 22.56C14.5854 21.5871 14.7009 20.6089 15 19.68C15.34 19.22 14.95 19.52 16.49 20.81C16.76 21.04 17.02 21.24 17.25 21.46C16.9 21.78 16.69 22 16.65 22L16.66 22.03Z" fill="black"/>
<path fill-rule="evenodd" clip-rule="evenodd" d="M11.47 20.73C8.14 20.73 3.9 20.54 1.99 20.31C1.74 20.31 1.5 20.17 1.36 20.14C0.889998 17.94 1.22 1.35 1.06 1.19C1.00276 1.13729 0.927804 1.10803 0.849998 1.10803C0.772193 1.10803 0.697232 1.13729 0.639998 1.19C0.259998 1.56 -0.460002 18.5 0.409998 20.78C0.458284 20.8902 0.532695 20.9869 0.626788 21.0618C0.720881 21.1367 0.83182 21.1876 0.949998 21.21C2.43 21.61 9.95 21.46 11.47 21.42C11.5514 21.4061 11.6253 21.3638 11.6786 21.3007C11.7318 21.2375 11.761 21.1576 11.761 21.075C11.761 20.9924 11.7318 20.9124 11.6786 20.8493C11.6253 20.7862 11.5514 20.7439 11.47 20.73Z" fill="black"/>
<path fill-rule="evenodd" clip-rule="evenodd" d="M2.14 1.25001C3.23 1.40001 9.74 1.42001 12.55 1.46001C12.33 2.46001 11.89 4.84001 12.55 5.62001C12.93 6.08001 15.88 6.33001 16.47 6.28001C16.5602 6.28001 16.6467 6.24419 16.7104 6.18042C16.7742 6.11666 16.81 6.03018 16.81 5.94001C16.81 5.84983 16.7742 5.76335 16.7104 5.69959C16.6467 5.63583 16.5602 5.60001 16.47 5.60001C12.86 5.35001 13.4 4.80001 13.35 4.23001C13.2601 3.31294 13.23 2.39099 13.26 1.47001C13.74 1.47001 13.18 1.11001 17 4.56001C17 5.79001 17.08 8.90001 17 10.47C16.9 13.77 16.66 14.11 17.12 14.14C17.1589 14.1441 17.1982 14.1403 17.2356 14.1289C17.273 14.1174 17.3077 14.0985 17.3376 14.0733C17.3675 14.048 17.392 14.017 17.4096 13.9821C17.4272 13.9472 17.4375 13.909 17.44 13.87C17.56 12.67 18.2 7.02001 17.95 5.23001C17.73 3.68001 18.66 4.85001 14.23 0.530008C14 0.270008 13.37 0.330008 12.67 0.340008C10 0.380008 3.32 0.670008 2.22 0.580008C2.17321 0.568405 2.12449 0.566885 2.07707 0.575548C2.02964 0.584211 1.98461 0.602859 1.94494 0.630254C1.90528 0.65765 1.87189 0.693167 1.847 0.73445C1.82211 0.775732 1.80628 0.821836 1.80056 0.869702C1.79485 0.917569 1.79938 0.966103 1.81385 1.01209C1.82832 1.05807 1.85241 1.10045 1.8845 1.13641C1.9166 1.17238 1.95598 1.20111 2.00003 1.22069C2.04408 1.24027 2.09179 1.25027 2.14 1.25001Z" fill="black"/>
<path fill-rule="evenodd" clip-rule="evenodd" d="M3.92 7.36C4.944 6.87 6.10426 6.74304 7.21 7C7.28293 7.03448 7.36658 7.03857 7.44253 7.01138C7.51848 6.98419 7.58052 6.92794 7.615 6.855C7.64948 6.78207 7.65357 6.69842 7.62638 6.62247C7.59919 6.54652 7.54293 6.48448 7.47 6.45C6.19519 6.00015 4.80481 6.00015 3.53 6.45C3.14512 6.66476 2.84687 7.00665 2.68633 7.41712C2.52579 7.82759 2.51295 8.28111 2.65 8.7C2.98 9.4 3.57 9.47 4.26 9.6C5.20409 9.74986 6.16591 9.74986 7.11 9.6C7.67235 9.58468 8.22211 9.43006 8.71 9.15C9.79 8.38 8.9 6.91 7.88 6.91C7.78983 6.91 7.70335 6.94582 7.63958 7.00959C7.57582 7.07335 7.54 7.15983 7.54 7.25C7.54 7.34018 7.57582 7.42666 7.63958 7.49042C7.70335 7.55418 7.78983 7.59 7.88 7.59C8.23 7.59 8.62 8.2 8.25 8.42C7.01115 8.66782 5.73827 8.6949 4.49 8.5C3.81 8.37 3.49 8.42 3.72 7.8C3.77 7.61 3.81 7.42 3.92 7.36Z" fill="black"/>
<path fill-rule="evenodd" clip-rule="evenodd" d="M3.05 15.41C4.41 16.41 7.26 16.05 8.63 15.3C8.90766 15.1276 9.11212 14.859 9.20434 14.5454C9.29657 14.2318 9.2701 13.8953 9.13 13.6C8.94736 13.346 8.72835 13.1203 8.48 12.93C8.14 12.63 7.68 13.13 8.01 13.43L8.47 13.97C8.49515 14.0732 8.48747 14.1816 8.44804 14.2802C8.4086 14.3788 8.33937 14.4626 8.25 14.52C6.93 15.1 3.25 15.09 3.58 14.03C3.61516 13.9052 3.67602 13.7891 3.75868 13.6893C3.84135 13.5894 3.94398 13.5079 4.06 13.45C4.95575 13.0888 5.91422 12.9086 6.88 12.92C6.95166 12.9344 7.02609 12.9229 7.09014 12.8877C7.15419 12.8525 7.20375 12.7958 7.23006 12.7277C7.25638 12.6595 7.25776 12.5842 7.23396 12.5151C7.21016 12.446 7.16272 12.3875 7.1 12.35C6.31 12.03 4.49 12.42 3.78 12.55C3.48053 12.615 3.20507 12.7621 2.98449 12.9748C2.76392 13.1875 2.60694 13.4575 2.53115 13.7544C2.45537 14.0513 2.46376 14.3635 2.5554 14.6559C2.64704 14.9483 2.81831 15.2094 3.05 15.41Z" fill="black"/>
<path fill-rule="evenodd" clip-rule="evenodd" d="M15.46 11.92C15.5502 11.92 15.6367 11.8842 15.7004 11.8204C15.7642 11.7567 15.8 11.6702 15.8 11.58C15.8 11.4898 15.7642 11.4033 15.7004 11.3396C15.6367 11.2758 15.5502 11.24 15.46 11.24C12.34 10.54 13.35 12.24 13.07 9.95C13.02 9.55 13.07 8.76 12.56 8.36C11.8061 7.93802 10.9228 7.8098 10.08 8C10.0004 8.00928 9.92781 8.04979 9.87812 8.11262C9.82842 8.17544 9.80571 8.25544 9.815 8.335C9.82428 8.41457 9.86479 8.48718 9.92761 8.53688C9.99044 8.58658 10.0704 8.60928 10.15 8.6C10.7943 8.51622 11.4478 8.65752 12 9C12.11 9.11 12 9.78 12 10C12.03 10.9543 11.9999 11.9095 11.91 12.86C11.9353 13.363 11.9353 13.867 11.91 14.37C11.83 14.31 10.08 14.51 10.06 14.95C10.0631 15.0363 10.0955 15.119 10.1518 15.1844C10.2082 15.2499 10.2851 15.2941 10.37 15.31C10.9343 15.3826 11.5057 15.3826 12.07 15.31C13.07 15.07 12.88 13.85 13.01 13.05C13.07 12.72 13.1 12.39 13.13 12.05C13.9029 12.2333 14.7123 12.1881 15.46 11.92Z" fill="black"/>
</g>
<defs>
<clipPath id="clip0_1034_4759">
<rect width="24" height="24" fill="white"/>
</clipPath>
</defs>
</svg>
