<svg width="24" height="24" viewBox="0 0 24 24" fill="none" xmlns="http://www.w3.org/2000/svg">
<g clip-path="url(#clip0_1044_5452)">
<path fill-rule="evenodd" clip-rule="evenodd" d="M12.94 16.22C12.8472 16.22 12.7581 16.2569 12.6925 16.3225C12.6269 16.3881 12.59 16.4772 12.59 16.57C12.59 16.6628 12.6269 16.7518 12.6925 16.8175C12.7581 16.8831 12.8472 16.92 12.94 16.92C14.59 16.92 14.03 19.22 12.71 20C11.79 20.54 10.63 20 10.57 18.59C10.5205 18.2392 10.578 17.8816 10.735 17.564C10.892 17.2464 11.1412 16.9836 11.45 16.81C11.5192 16.7767 11.5736 16.7189 11.6026 16.6478C11.6317 16.5767 11.6333 16.4973 11.6071 16.4251C11.581 16.3528 11.5289 16.2929 11.4611 16.2569C11.3933 16.2208 11.3145 16.2112 11.24 16.23C10.7656 16.4138 10.3589 16.7385 10.0746 17.1605C9.79037 17.5824 9.64217 18.0813 9.64998 18.59C9.56884 19.05 9.62428 19.5237 9.80943 19.9525C9.99457 20.3813 10.3013 20.7465 10.6918 21.0029C11.0822 21.2593 11.5392 21.3957 12.0063 21.3951C12.4734 21.3946 12.9301 21.2572 13.32 21C15.3 19.73 15.67 16.15 12.94 16.22Z" fill="black"/>
<path fill-rule="evenodd" clip-rule="evenodd" d="M11.41 12.64C10.5127 12.8069 9.64826 13.1176 8.84999 13.56C7.89742 14.2016 7.13701 15.0899 6.64999 16.13C6.64999 16.2122 6.68265 16.2911 6.74079 16.3492C6.79893 16.4073 6.87778 16.44 6.95999 16.44C7.21999 16.44 7.18999 16.25 7.38999 16.01C7.91944 15.4071 8.54861 14.8997 9.24999 14.51C11.69 13.64 13.17 13.16 16 14.92C16.0756 14.9623 16.1642 14.975 16.2487 14.9557C16.3332 14.9364 16.4075 14.8864 16.4573 14.8155C16.507 14.7446 16.5287 14.6577 16.5181 14.5717C16.5076 14.4857 16.4655 14.4067 16.4 14.35C14.89 13.22 13.38 12.36 11.41 12.64Z" fill="black"/>
<path fill-rule="evenodd" clip-rule="evenodd" d="M17.41 9.56999C15.4711 8.30271 13.1525 7.74779 10.85 7.99999C9.51255 8.30176 8.21886 8.77219 6.99999 9.39999C5.86999 9.92999 3.69999 12.54 3.71999 13C3.71996 13.0402 3.72804 13.0801 3.74374 13.1172C3.75944 13.1542 3.78243 13.1877 3.81136 13.2157C3.84028 13.2437 3.87455 13.2656 3.91211 13.2801C3.94967 13.2946 3.98976 13.3013 4.02999 13.3C4.30999 13.3 4.23999 13.11 4.48999 12.78C5.30228 11.7844 6.2882 10.9442 7.39999 10.3C8.55322 9.79025 9.76111 9.41446 11 9.17999C13.0461 8.972 15.1071 9.39048 16.91 10.38C19.6 11.83 19.86 13.16 20.37 12.67C20.4348 12.6029 20.4709 12.5133 20.4709 12.42C20.4709 12.3267 20.4348 12.2371 20.37 12.17C19.5218 11.1573 18.5236 10.2805 17.41 9.56999Z" fill="black"/>
<path fill-rule="evenodd" clip-rule="evenodd" d="M23.9 8.58999C22.6614 7.13824 21.1998 5.89268 19.57 4.89999C17.9137 3.90148 16.0968 3.19772 14.2 2.81999C10.39 2.12999 8.29 3.11999 4.73 4.66999C3.16 5.36999 4.63275e-08 9.05999 4.63275e-08 9.72999C-2.23225e-05 9.77024 0.00805598 9.81009 0.0237539 9.84715C0.0394517 9.88422 0.0624481 9.91775 0.0913736 9.94574C0.120299 9.97373 0.154562 9.99562 0.192122 10.0101C0.229681 10.0246 0.26977 10.0313 0.31 10.03C0.62 10.03 0.47 9.86999 0.86 9.32999C2.0401 7.83326 3.47552 6.55695 5.1 5.55999C8.32 4.28999 10.61 3.35999 14 3.99999C15.7887 4.28269 17.5145 4.87488 19.1 5.74999C20.7021 6.63085 22.1509 7.76556 23.39 9.10999C23.459 9.17762 23.552 9.21509 23.6485 9.21415C23.7451 9.21321 23.8374 9.17395 23.905 9.10499C23.9726 9.03603 24.0101 8.94304 24.0092 8.84646C24.0082 8.74987 23.969 8.65762 23.9 8.58999Z" fill="black"/>
</g>
<defs>
<clipPath id="clip0_1044_5452">
<rect width="24" height="24" fill="white"/>
</clipPath>
</defs>
</svg>
