<svg width="24" height="24" viewBox="0 0 24 24" fill="none" xmlns="http://www.w3.org/2000/svg">
<g clip-path="url(#clip0_1030_2868)">
<path fill-rule="evenodd" clip-rule="evenodd" d="M4.36996 18.21C3.91313 18.0303 3.421 17.9585 2.93188 18.0001C2.44276 18.0418 1.96985 18.1957 1.54996 18.45C1.14171 18.7065 0.801322 19.0577 0.557617 19.4738C0.313913 19.8898 0.174077 20.3584 0.149956 20.84C0.0886777 21.4976 0.270585 22.1549 0.661257 22.6875C1.05193 23.2201 1.62426 23.591 2.26996 23.73C2.30939 23.7484 2.35236 23.758 2.39588 23.7582C2.43939 23.7583 2.48242 23.749 2.52198 23.7308C2.56153 23.7127 2.59667 23.6862 2.62494 23.6531C2.65321 23.62 2.67395 23.5811 2.68571 23.5392C2.69747 23.4973 2.69998 23.4534 2.69305 23.4104C2.68613 23.3675 2.66994 23.3265 2.6456 23.2904C2.62127 23.2544 2.58938 23.224 2.55214 23.2015C2.5149 23.1789 2.47321 23.1648 2.42996 23.16C1.95924 23.0135 1.55546 22.7054 1.28996 22.29C1.06013 21.9018 0.975111 21.4448 1.04996 21C1.08434 20.6675 1.19872 20.3484 1.38332 20.0697C1.56791 19.7911 1.81723 19.5613 2.10996 19.4C2.38271 19.2403 2.68787 19.1439 3.00289 19.1179C3.3179 19.0919 3.63473 19.1371 3.92996 19.25C4.27956 19.383 4.58818 19.6054 4.82505 19.8949C5.06192 20.1844 5.21877 20.531 5.27996 20.9C5.3451 21.2808 5.29854 21.6723 5.14593 22.0273C4.99331 22.3822 4.74116 22.6853 4.41996 22.9C4.30054 22.9831 4.16898 23.0472 4.02996 23.09C3.79895 23.1728 3.56147 23.2364 3.31996 23.28C3.2754 23.286 3.23254 23.301 3.194 23.3242C3.15546 23.3473 3.12205 23.3781 3.09583 23.4146C3.06961 23.4511 3.05113 23.4926 3.04152 23.5365C3.03192 23.5804 3.03138 23.6259 3.03996 23.67C3.05697 23.7569 3.10725 23.8338 3.18009 23.8842C3.25294 23.9347 3.34259 23.9547 3.42996 23.94C3.70688 23.9071 3.98097 23.8536 4.24996 23.78C4.45295 23.7304 4.64813 23.653 4.82996 23.55C5.30812 23.279 5.69703 22.8747 5.94919 22.3863C6.20136 21.898 6.30587 21.3468 6.24996 20.8C6.19351 20.2406 5.98978 19.7062 5.65952 19.2513C5.32927 18.7963 4.8843 18.437 4.36996 18.21Z" fill="black"/>
<path fill-rule="evenodd" clip-rule="evenodd" d="M20.28 9.15C18.8995 7.00067 17.1045 5.14794 15 3.7C12.869 2.28172 10.4967 1.26501 7.99999 0.699999C6.7607 0.40893 5.49994 0.218312 4.22999 0.129999C2.96094 0.0364479 1.68616 0.0531773 0.419994 0.179999C0.380958 0.182479 0.342828 0.192829 0.307897 0.210428C0.272966 0.228026 0.241955 0.252509 0.216732 0.282404C0.191509 0.312298 0.172593 0.346986 0.161124 0.384381C0.149655 0.421775 0.145869 0.461104 0.149994 0.499999C0.157615 0.577836 0.195331 0.649619 0.255105 0.700053C0.314879 0.750488 0.391985 0.775586 0.469994 0.769999C1.70315 0.682254 2.94178 0.709035 4.16999 0.849999C5.39747 0.975942 6.61191 1.20679 7.79999 1.54C10.1429 2.17745 12.3563 3.21983 14.34 4.62C16.3087 6.01111 18.0038 7.75363 19.34 9.76C22.0337 13.8609 23.4149 18.6848 23.3 23.59C23.3 23.6785 23.3344 23.7635 23.396 23.8269C23.4576 23.8904 23.5416 23.9274 23.63 23.93C23.6733 23.9313 23.7165 23.9241 23.7571 23.9087C23.7976 23.8934 23.8347 23.8702 23.8663 23.8405C23.8979 23.8107 23.9233 23.7751 23.9411 23.7355C23.9589 23.696 23.9687 23.6533 23.97 23.61C24.2663 18.5243 22.977 13.4719 20.28 9.15Z" fill="black"/>
<path fill-rule="evenodd" clip-rule="evenodd" d="M10.32 9.7C8.85412 8.74161 7.22319 8.06347 5.50997 7.7C4.65255 7.49071 3.77977 7.35027 2.89997 7.28C2.02321 7.22441 1.14329 7.24448 0.269973 7.34C0.192137 7.34762 0.120354 7.38534 0.0699197 7.44511C0.0194853 7.50488 -0.00561276 7.58199 -2.6655e-05 7.66C0.00990952 7.73686 0.0482735 7.80721 0.107505 7.85718C0.166736 7.90716 0.242539 7.93314 0.319973 7.93C1.15697 7.87376 1.99741 7.8972 2.82997 8C3.662 8.09573 4.48477 8.25961 5.28997 8.49C6.86666 8.94097 8.35472 9.65795 9.68997 10.61C11.0183 11.5507 12.1666 12.7227 13.08 14.07C14.9132 16.8432 15.8649 20.1061 15.81 23.43C15.8099 23.5185 15.8444 23.6035 15.906 23.6669C15.9676 23.7304 16.0515 23.7674 16.14 23.77C16.1833 23.7713 16.2265 23.7641 16.267 23.7487C16.3076 23.7334 16.3447 23.7102 16.3763 23.6805C16.4079 23.6507 16.4333 23.6151 16.4511 23.5755C16.4689 23.536 16.4787 23.4933 16.48 23.45C16.7076 19.9404 15.8411 16.4465 14 13.45C13.0378 11.9653 11.7862 10.6899 10.32 9.7Z" fill="black"/>
</g>
<defs>
<clipPath id="clip0_1030_2868">
<rect width="24" height="24" fill="white"/>
</clipPath>
</defs>
</svg>
