<svg width="24" height="24" viewBox="0 0 24 24" fill="none" xmlns="http://www.w3.org/2000/svg">
<g clip-path="url(#clip0_1051_8960)">
<path fill-rule="evenodd" clip-rule="evenodd" d="M11.267 3.00701C10.7051 2.35418 10.1818 1.66901 9.70001 0.955005C9.66474 0.917228 9.63732 0.872816 9.61937 0.824351C9.60141 0.775886 9.59326 0.724335 9.5954 0.672694C9.59754 0.621053 9.60992 0.570352 9.63183 0.523539C9.65374 0.476726 9.68473 0.434735 9.72301 0.400005C10.2 -0.0399946 12.119 2.07201 12.821 2.84501L12.979 3.01801C13.5 3.61201 12.61 4.48301 11.236 5.82801C11.026 6.03301 10.806 6.248 10.577 6.47601C10.5058 6.55636 10.4063 6.60593 10.2993 6.61427C10.1922 6.62262 10.0862 6.58907 10.0034 6.52072C9.92067 6.45236 9.8677 6.35454 9.85568 6.24788C9.84367 6.14122 9.87354 6.03406 9.93901 5.94901C10.195 5.57301 10.367 5.31101 10.513 5.08901C10.758 4.71501 10.929 4.45601 11.295 3.96601H11.201C10.632 3.96601 9.87301 3.96501 8.86101 3.98801C6.49301 4.04501 5.28901 3.99101 4.63101 4.56501C3.77401 5.31401 3.85001 7.13101 3.48401 11.658C3.48113 11.7623 3.43718 11.8613 3.36171 11.9334C3.28624 12.0055 3.18536 12.0449 3.08101 12.043C2.65101 12.03 2.64101 11.877 2.60101 8.71401C2.52401 2.42401 4.51401 2.35701 11.267 3.00701Z" fill="black"/>
<path fill-rule="evenodd" clip-rule="evenodd" d="M20.367 19.497C21.104 17.277 21.333 14.921 21.037 12.601C21.0221 12.4993 21.0477 12.3958 21.1082 12.3127C21.1688 12.2296 21.2594 12.1735 21.3608 12.1565C21.4622 12.1395 21.5662 12.1629 21.6506 12.2217C21.7349 12.2805 21.7929 12.37 21.812 12.471C22.192 14.127 22.317 15.831 22.183 17.525C21.785 21.985 19.201 21.682 13.935 21.065L13.295 20.99C13.8412 21.6441 14.35 22.3285 14.819 23.04C14.8546 23.0787 14.882 23.1242 14.8997 23.1737C14.9174 23.2232 14.925 23.2758 14.922 23.3283C14.919 23.3808 14.9055 23.4321 14.8824 23.4793C14.8592 23.5265 14.8267 23.5686 14.787 23.603C14.309 24.033 12.437 21.926 11.732 21.133C11.6759 21.0695 11.6196 21.0061 11.563 20.943C11.048 20.342 11.952 19.482 13.346 18.155C13.558 17.953 13.781 17.741 14.012 17.517C14.0859 17.4485 14.1822 17.4093 14.2829 17.4068C14.3836 17.4042 14.4818 17.4385 14.559 17.5031C14.6363 17.5677 14.6874 17.6583 14.7026 17.7579C14.7179 17.8575 14.6963 17.9592 14.642 18.044C14.384 18.413 14.209 18.672 14.062 18.891C13.798 19.281 13.62 19.545 13.212 20.074C13.677 20.086 14.126 20.1 14.558 20.113C17.575 20.205 19.747 20.273 20.367 19.497Z" fill="black"/>
<path fill-rule="evenodd" clip-rule="evenodd" d="M14.377 9.312C13.956 9.365 13.535 9.425 13.116 9.493C13.0118 9.49857 12.9141 9.54531 12.8443 9.62296C12.7745 9.7006 12.7385 9.80277 12.744 9.907C12.7496 10.0112 12.7963 10.109 12.874 10.1787C12.9516 10.2485 13.0538 10.2846 13.158 10.279C18.833 10.392 22.969 10.223 23.602 10.149C23.6575 10.1485 23.7122 10.137 23.7631 10.1149C23.8139 10.0929 23.8599 10.0609 23.8981 10.0208C23.9364 9.98069 23.9662 9.93332 23.9858 9.88148C24.0054 9.82964 24.0144 9.77439 24.0123 9.71901C24.0101 9.66362 23.9969 9.60923 23.9733 9.55906C23.9498 9.50889 23.9164 9.46396 23.8751 9.42694C23.8339 9.38992 23.7856 9.36155 23.7332 9.34352C23.6808 9.3255 23.6253 9.31818 23.57 9.322C23.1051 9.26233 22.639 9.21166 22.172 9.17L22.192 8.85C22.207 8.567 22.226 8.227 22.265 7.825C22.314 7.307 22.389 6.773 22.465 6.24C22.798 3.888 23.128 1.56 21.118 0.786999C19.7583 0.46252 18.3611 0.322264 16.964 0.369999C16.044 0.351999 15.056 0.369999 14.566 1.203C14.23 3.893 14.166 6.61 14.376 9.313L14.377 9.312ZM15.202 9.218C17.2137 9.01172 19.2389 8.97259 21.257 9.101C21.255 8.831 21.27 8.501 21.287 8.111C21.299 7.867 21.312 7.599 21.321 7.308L21.328 7.122C16.465 7.69 16.358 5.003 21.377 6.222C21.395 5.947 21.414 5.684 21.433 5.433C21.456 5.115 21.479 4.816 21.494 4.537C15.542 5.066 17.142 2.523 21.515 3.64C21.492 2.777 21.297 2.209 20.67 1.975C19.0148 1.63115 17.3112 1.58914 15.641 1.851C15.495 2.092 15.252 7.501 15.202 9.218Z" fill="black"/>
<path fill-rule="evenodd" clip-rule="evenodd" d="M2.28697 16.57L0.639973 17.652C0.556051 17.7103 0.452896 17.7342 0.351885 17.7185C0.250875 17.7029 0.159752 17.649 0.0974003 17.568C0.0350485 17.487 0.00624756 17.3851 0.0169659 17.2835C0.0276842 17.1818 0.0771 17.0882 0.154973 17.022C0.850973 16.402 5.50597 12.328 6.34197 12.744C8.41842 13.8008 10.375 15.0782 12.178 16.554C12.2228 16.5848 12.261 16.6242 12.2906 16.6699C12.3201 16.7155 12.3404 16.7665 12.3503 16.82C12.3601 16.8735 12.3593 16.9284 12.3479 16.9816C12.3366 17.0348 12.3148 17.0852 12.284 17.13C12.2531 17.1748 12.2137 17.213 12.1681 17.2426C12.1224 17.2722 12.0714 17.2924 12.0179 17.3023C11.9644 17.3121 11.9095 17.3113 11.8564 17.3C11.8032 17.2886 11.7528 17.2668 11.708 17.236C11.395 17.049 10.822 16.714 10.143 16.322C10.191 16.787 10.247 17.239 10.3 17.673C10.6 20.103 10.83 21.976 9.33897 22.568C7.39322 22.9559 5.38629 22.9149 3.45797 22.448C2.16797 21.879 2.19997 20.595 2.25797 18.23C2.27097 17.728 2.28497 17.176 2.28797 16.572L2.28697 16.57ZM2.98697 16.111C3.04003 16.1756 3.07119 16.2555 3.07597 16.339C3.49397 20.662 3.49897 20.772 3.50897 20.772C3.51097 20.772 3.51297 20.768 3.51897 20.793C3.78197 21.882 8.33197 21.539 8.79097 21.418C9.33997 21.278 9.33097 20.746 9.29697 18.523C9.28697 17.834 9.27297 16.983 9.27297 15.93C9.26984 15.895 9.27119 15.8597 9.27697 15.825C8.13497 15.173 6.88697 14.476 6.09697 14.072L2.98697 16.111Z" fill="black"/>
</g>
<defs>
<clipPath id="clip0_1051_8960">
<rect width="24" height="24" fill="white"/>
</clipPath>
</defs>
</svg>
