<svg width="24" height="24" viewBox="0 0 24 24" fill="none" xmlns="http://www.w3.org/2000/svg">
<g clip-path="url(#clip0_1030_2886)">
<path fill-rule="evenodd" clip-rule="evenodd" d="M6.42403 13.735L6.45803 13.21L6.49103 12.143C6.57403 9.638 6.66103 7.018 6.08903 6.982C6.03753 6.97917 5.98599 6.98674 5.93748 7.00427C5.88897 7.02179 5.84449 7.04891 5.80669 7.084C5.76889 7.1191 5.73855 7.16144 5.71747 7.20852C5.6964 7.25559 5.68503 7.30643 5.68403 7.358C5.49503 8.656 4.60703 17.22 5.81203 17.22C6.22203 17.22 6.22803 17.095 6.33803 15.17L6.37603 14.521C8.62603 14.805 10.893 14.933 13.161 14.905C14.3881 14.9822 15.6041 14.6318 16.6019 13.9134C17.5998 13.1951 18.3179 12.1532 18.634 10.965C18.881 9.75 18.926 8.502 18.767 7.273C18.745 7.17144 18.685 7.08212 18.5994 7.02325C18.5138 6.96439 18.4089 6.94042 18.3062 6.95624C18.2035 6.97206 18.1107 7.02648 18.0467 7.10839C17.9828 7.19029 17.9525 7.29352 17.962 7.397C17.9833 8.48406 17.8479 9.56852 17.56 10.617C16.51 13.698 14.083 13.706 10.294 13.717C9.73603 13.719 9.14803 13.72 8.53103 13.732C8.32703 13.732 8.10103 13.736 7.86703 13.74C7.38903 13.748 6.87503 13.757 6.42403 13.735Z" fill="black"/>
<path fill-rule="evenodd" clip-rule="evenodd" d="M6.16801 0.148C5.48079 0.0763034 4.78699 0.192093 4.1603 0.483068C3.53361 0.774043 2.99744 1.22934 2.60875 1.80058C2.22005 2.37183 1.99335 3.0377 1.95272 3.72745C1.9121 4.4172 2.05906 5.10507 2.37801 5.718C5.29501 11.051 13.174 5.658 8.58601 1.335C8.58001 1.339 7.41301 0.278 6.16801 0.148ZM8.00501 1.906C11.228 5.43 5.43501 8.627 3.48001 5.11C2.30001 2.989 4.84501 -0.24 8.00501 1.906Z" fill="black"/>
<path fill-rule="evenodd" clip-rule="evenodd" d="M5.879 16.524C5.22403 16.4119 4.55114 16.4732 3.92717 16.7017C3.30321 16.9302 2.74989 17.318 2.32222 17.8265C1.89454 18.3351 1.60738 18.9467 1.48928 19.6006C1.37118 20.2545 1.42624 20.928 1.649 21.554C1.93274 22.1832 2.36883 22.7318 2.91784 23.1501C3.46685 23.5684 4.11146 23.8433 4.79339 23.9499C5.47533 24.0565 6.17308 23.9915 6.82357 23.7607C7.47406 23.5299 8.05676 23.1406 8.519 22.628C9.03344 22.1224 9.38297 21.4731 9.52169 20.7653C9.66042 20.0575 9.58185 19.3242 9.29631 18.6619C9.01078 17.9995 8.53161 17.439 7.92174 17.0539C7.31186 16.6688 6.59978 16.4771 5.879 16.504V16.524ZM5.837 17.318C6.35648 17.3207 6.8632 17.4792 7.29153 17.7732C7.71985 18.0671 8.05005 18.4829 8.23936 18.9667C8.42866 19.4505 8.46835 19.9799 8.35329 20.4865C8.23823 20.9931 7.97371 21.4535 7.594 21.808C7.26465 22.1554 6.85623 22.418 6.40351 22.5735C5.9508 22.7289 5.46721 22.7727 4.99393 22.701C4.52066 22.6293 4.07173 22.4443 3.68537 22.1617C3.29902 21.8791 2.98669 21.5073 2.775 21.078C2.61794 20.6178 2.58027 20.1252 2.66552 19.6464C2.75078 19.1676 2.95617 18.7184 3.26245 18.3406C3.56873 17.9629 3.96588 17.6691 4.4167 17.4867C4.86751 17.3044 5.35724 17.2394 5.84 17.298L5.837 17.318Z" fill="black"/>
<path fill-rule="evenodd" clip-rule="evenodd" d="M16.67 0.273C15.7181 0.637192 14.9352 1.3414 14.4725 2.24945C14.0097 3.1575 13.9002 4.20486 14.165 5.189C14.4935 5.97726 15.0424 6.65406 15.7458 7.13826C16.4492 7.62247 17.2774 7.89355 18.131 7.919C18.6652 7.98109 19.2065 7.93393 19.722 7.78037C20.2374 7.62681 20.7163 7.37006 21.1295 7.02573C21.5426 6.68139 21.8815 6.25665 22.1254 5.77731C22.3694 5.29798 22.5134 4.77405 22.5486 4.23736C22.5838 3.70067 22.5095 3.16242 22.3303 2.65532C22.1511 2.14821 21.8706 1.68283 21.506 1.28745C21.1414 0.892078 20.7002 0.574955 20.2092 0.355353C19.7183 0.135751 19.1878 0.018254 18.65 0.00999988C18.65 0.0159999 17.624 -0.0920001 16.67 0.273ZM18.606 0.826C19.1882 0.802146 19.7634 0.96088 20.251 1.28C20.65 1.59049 20.9653 1.99553 21.1685 2.4585C21.3716 2.92148 21.4562 3.42779 21.4145 3.93165C21.3728 4.43551 21.2062 4.92103 20.9297 5.34432C20.6532 5.76761 20.2756 6.11532 19.831 6.356C19.0156 6.73317 18.085 6.7763 17.2383 6.47617C16.3915 6.17604 15.6958 5.55647 15.3 4.75C15.1229 4.016 15.211 3.24303 15.5489 2.56776C15.8867 1.89249 16.4524 1.35842 17.146 1.06C17.278 1.003 17.832 0.826 18.606 0.826Z" fill="black"/>
</g>
<defs>
<clipPath id="clip0_1030_2886">
<rect width="24" height="24" fill="white"/>
</clipPath>
</defs>
</svg>
