<svg width="24" height="24" viewBox="0 0 24 24" fill="none" xmlns="http://www.w3.org/2000/svg">
<g clip-path="url(#clip0_1044_5465)">
<path fill-rule="evenodd" clip-rule="evenodd" d="M23.94 16.15C23.743 14.6244 23.0632 13.2017 22 12.09C21.3702 11.6083 20.7012 11.1801 20 10.81C19.922 10.7807 19.836 10.781 19.7583 10.8109C19.6805 10.8407 19.6164 10.8981 19.5782 10.9721C19.54 11.0461 19.5302 11.1316 19.5508 11.2123C19.5714 11.293 19.621 11.3634 19.69 11.41C20.3289 11.7664 20.9375 12.1745 21.51 12.63C22.0965 13.2913 22.5383 14.0679 22.807 14.9101C23.0756 15.7522 23.1652 16.6412 23.07 17.52C22.1856 17.5983 21.2973 17.6217 20.41 17.59C20.4094 16.6811 20.2712 15.7775 20 14.91C20.6 14.91 21.13 14.91 21.57 14.86C21.6489 14.8463 21.7205 14.8052 21.772 14.7439C21.8236 14.6826 21.8519 14.6051 21.8519 14.525C21.8519 14.4449 21.8236 14.3674 21.772 14.3061C21.7205 14.2448 21.6489 14.2037 21.57 14.19C21.06 14.19 20.42 14.09 19.71 14.01L19 12.14C18.9895 12.1032 18.9718 12.0689 18.9481 12.0389C18.9243 12.009 18.8948 11.984 18.8614 11.9654C18.7939 11.9279 18.7143 11.9188 18.64 11.94C18.5657 11.9612 18.5029 12.0111 18.4654 12.0786C18.4279 12.1461 18.4188 12.2257 18.44 12.3L18.78 13.92C17.7182 13.7936 16.6492 13.7368 15.58 13.75C15.701 13.2502 15.9037 12.7738 16.18 12.34C16.5185 11.8444 16.9539 11.4226 17.46 11.1C17.7 10.99 17.46 10.92 17.93 10.98C18.0031 10.9808 18.074 10.9548 18.1294 10.907C18.1847 10.8592 18.2207 10.7928 18.2305 10.7203C18.2404 10.6478 18.2234 10.5743 18.1828 10.5134C18.1421 10.4526 18.0807 10.4087 18.01 10.39C14.64 9.91999 12.2 12 11 15.23C10.497 16.5326 10.436 17.9643 10.8263 19.305C11.2165 20.6456 12.0365 21.8209 13.16 22.65C14.2532 23.4075 15.542 23.8329 16.8714 23.875C18.2007 23.9172 19.5139 23.5742 20.6528 22.8875C21.7918 22.2007 22.708 21.1994 23.2912 20.0041C23.8744 18.8088 24.0997 17.4704 23.94 16.15ZM19 14.92C19.1458 15.7963 19.2293 16.6819 19.25 17.57L15.09 17.48C15.124 16.5952 15.2141 15.7134 15.36 14.84C16.61 14.91 17.89 14.93 19 14.92ZM16.51 11C15.7403 11.5536 15.1466 12.3175 14.8 13.2C14.33 14.29 15.11 13.48 12.46 14.12C12.8132 13.2979 13.3707 12.5798 14.0796 12.0337C14.7884 11.4877 15.625 11.1318 16.51 11ZM12.12 14.82C12.8423 14.7206 13.5733 14.7005 14.3 14.76C14.1216 15.6495 14.0212 16.553 14 17.46C13 17.46 12.21 17.46 11.58 17.37C11.5527 16.4922 11.738 15.6208 12.12 14.83V14.82ZM13.76 21.7C13.1545 21.2763 12.6486 20.7259 12.2773 20.0869C11.906 19.448 11.6783 18.7358 11.61 18C12.24 18.13 13.07 18.27 14 18.38C14.0468 19.859 14.5421 21.2888 15.42 22.48C14.8338 22.301 14.2752 22.0419 13.76 21.71V21.7ZM16.76 22.81C16.1981 22.25 15.7615 21.5771 15.4788 20.8359C15.1961 20.0947 15.0738 19.3019 15.12 18.51C16.4996 18.6343 17.8857 18.671 19.27 18.62C19.22 19.55 18.93 21.84 18.27 22.74C17.7679 22.8509 17.2509 22.8779 16.74 22.82L16.76 22.81ZM19.29 22.43C19.8637 21.2094 20.2287 19.9013 20.37 18.56C21.2315 18.5073 22.0895 18.4071 22.94 18.26C22.6822 19.188 22.2183 20.0458 21.5829 20.7696C20.9474 21.4933 20.1568 22.0643 19.27 22.44L19.29 22.43Z" fill="black"/>
<path fill-rule="evenodd" clip-rule="evenodd" d="M8.24 16.07C6.69 16.07 3.45 15.98 2.02 15.37C1.49 15.15 1.44 15.37 1.18 11.37C1.02313 9.23883 1.03985 7.09844 1.23 4.96999C2.81 4.96999 5.23 5.20999 8.54 5.21999C11.71 5.21999 13.72 5.05999 16.02 4.98999C16.0989 4.9763 16.1705 4.93519 16.2221 4.8739C16.2736 4.81262 16.3019 4.73509 16.3019 4.65499C16.3019 4.57489 16.2736 4.49736 16.2221 4.43607C16.1705 4.37479 16.0989 4.33367 16.02 4.31999C11.1049 4.00915 6.17509 4.00915 1.26 4.31999C1.41 1.24999 1.59 1.18999 1.42 1.02999C1.36796 0.97084 1.29474 0.934538 1.21615 0.928925C1.13757 0.923311 1.05993 0.948837 1 0.999988C0.660004 1.40999 0.700004 2.48999 0.630004 2.92999C0.160004 6.92999 -0.119996 8.25999 0.050004 11.39C0.0885708 12.8024 0.293314 14.2054 0.660004 15.57C1.47 17.05 6.58 16.82 8.26 16.74C8.33867 16.7241 8.40919 16.681 8.45909 16.6181C8.50899 16.5552 8.53504 16.4768 8.53265 16.3966C8.53026 16.3163 8.49956 16.2396 8.44601 16.1798C8.39245 16.12 8.31948 16.0811 8.24 16.07Z" fill="black"/>
<path fill-rule="evenodd" clip-rule="evenodd" d="M2.81001 1.07999C5.49001 1.07999 8.31001 0.949992 10.97 1.15999C13.11 1.27999 16.16 1.06999 17.27 1.98999C17.52 2.18999 17.56 3.04999 18.08 8.23999C18.072 8.28328 18.0736 8.32779 18.0848 8.37038C18.0959 8.41296 18.1162 8.45258 18.1444 8.48642C18.1726 8.52025 18.2078 8.54748 18.2477 8.56616C18.2875 8.58485 18.331 8.59454 18.375 8.59454C18.419 8.59454 18.4625 8.58485 18.5024 8.56616C18.5422 8.54748 18.5775 8.52025 18.6056 8.48642C18.6338 8.45258 18.6541 8.41296 18.6653 8.37038C18.6764 8.32779 18.678 8.28328 18.67 8.23999C18.47 2.58999 18.55 1.78999 17.94 1.23999C16.39 -0.170008 13.18 0.179992 11 0.0699922C8.24001 -7.7635e-06 5.53001 0.279992 2.79001 0.409992C2.71134 0.425854 2.64082 0.469031 2.59092 0.531884C2.54103 0.594737 2.51497 0.673214 2.51736 0.753429C2.51976 0.833645 2.55045 0.910428 2.60401 0.970192C2.65756 1.02996 2.73054 1.06885 2.81001 1.07999Z" fill="black"/>
<path fill-rule="evenodd" clip-rule="evenodd" d="M2.8 2.99998C2.85759 3.07852 2.93286 3.14239 3.01973 3.18641C3.1066 3.23044 3.20262 3.25338 3.3 3.25338C3.39739 3.25338 3.49341 3.23044 3.58028 3.18641C3.66714 3.14239 3.74242 3.07852 3.8 2.99998C3.87145 2.85895 3.8945 2.69833 3.86558 2.5429C3.83666 2.38747 3.75739 2.24588 3.64 2.13998C3 1.77998 2.27 2.43998 2.8 2.99998Z" fill="black"/>
<path fill-rule="evenodd" clip-rule="evenodd" d="M4.84 2.78998C4.89758 2.86852 4.97286 2.93239 5.05973 2.97641C5.1466 3.02043 5.24261 3.04337 5.34 3.04337C5.43739 3.04337 5.5334 3.02043 5.62027 2.97641C5.70714 2.93239 5.78242 2.86852 5.84 2.78998C5.91145 2.64895 5.93449 2.48833 5.90558 2.3329C5.87666 2.17747 5.79739 2.03588 5.68 1.92998C5 1.54998 4.31 2.20998 4.84 2.78998Z" fill="black"/>
<path fill-rule="evenodd" clip-rule="evenodd" d="M7.07 2.78998C7.12717 2.86094 7.19952 2.91818 7.28171 2.95751C7.36391 2.99684 7.45388 3.01726 7.545 3.01726C7.63613 3.01726 7.72609 2.99684 7.80829 2.95751C7.89049 2.91818 7.96283 2.86094 8.02 2.78998C8.09145 2.64895 8.11449 2.48833 8.08558 2.3329C8.05666 2.17747 7.97739 2.03588 7.86 1.92998C7.27 1.54998 6.54 2.20998 7.07 2.78998Z" fill="black"/>
</g>
<defs>
<clipPath id="clip0_1044_5465">
<rect width="24" height="24" fill="white"/>
</clipPath>
</defs>
</svg>
