<svg width="24" height="24" viewBox="0 0 24 24" fill="none" xmlns="http://www.w3.org/2000/svg">
<g clip-path="url(#clip0_1033_3628)">
<path fill-rule="evenodd" clip-rule="evenodd" d="M15.11 10.19C18.11 10.63 16.73 10.53 21.2 10.53C22.04 10.53 22.57 10.53 22.43 10.13C22.57 9.74 22.06 9.79 21.2 9.73C19.2166 9.41321 17.2072 9.2893 15.2 9.36C14.8879 9.32314 14.5742 9.30311 14.26 9.3C14.1595 9.28486 14.0571 9.30851 13.9734 9.36615C13.8898 9.42379 13.8312 9.51109 13.8095 9.61035C13.7879 9.70961 13.8048 9.81338 13.8569 9.90061C13.909 9.98783 13.9923 10.052 14.09 10.08C14.56 10.15 15 10.17 15.11 10.19Z" fill="black"/>
<path fill-rule="evenodd" clip-rule="evenodd" d="M24 7.27C24.0369 6.88865 23.9498 6.50557 23.7517 6.17767C23.5535 5.84978 23.2548 5.59458 22.9 5.45C21.5957 5.09258 20.2521 4.89776 18.9 4.87C17.059 4.81103 15.2162 4.85443 13.38 5C13.17 3.91 11.84 3.8 10.81 3.68C9.56 3.54 9.81 3.68 9.81 3.5C9.97509 2.88421 9.97509 2.23579 9.81 1.62C9.21 0.299999 6.94 0.459999 5.6 0.599999C4.26 0.739999 4.34 1.68 4.18 2.71C4.18 2.71 4.12 3.17 4.11 3.48C2.11 3.57 0.85 3.48 1.11 3.87C0.72 4.53 4.3 3.99 8.11 4.26C13.74 4.66 12.25 4.99 12.54 6.26C12.6456 7.22378 12.6456 8.19622 12.54 9.16C12.54 12.16 12.7 15.3 12.43 18.1C12.33 19.17 12.72 22.28 10.11 22.38C9.26 22.38 8.33 22.3 7.69 22.28C2.25 22.13 1.61 21.97 1.27 20.91C0.91224 19.6088 0.793651 18.2535 0.92 16.91C0.92 14.18 1.38 7.58 1.26 7.57C1.37 5.86 1.52 5.07 1.49 4.94C1.48559 4.89212 1.46893 4.84619 1.44161 4.80662C1.4143 4.76705 1.37726 4.73518 1.33405 4.71408C1.29085 4.69298 1.24294 4.68336 1.19494 4.68615C1.14694 4.68894 1.10047 4.70404 1.06 4.73C0.86 4.82 0.85 5.13 0.82 5.44C0.6 8.12 0 13.75 0 18.72C0 20.09 0.32 22.28 1.63 22.85C2.94 23.42 6.43 23.38 7.73 23.38C8.69748 23.466 9.66951 23.4894 10.64 23.45C12.64 23.22 13.42 20.77 13.49 20.21C13.56 19.65 13.49 18.83 13.59 18.21C13.82 15.51 13.4 5.73 13.41 5.56C14.89 5.75 15.73 5.44 18.86 5.76C20.0235 5.86715 21.177 6.0644 22.31 6.35C22.93 6.59 22.93 6.9 22.89 7.56C22.85 8.22 22.75 8.81 22.74 9.21L22.62 12.34C22.62 13.34 22.91 13.24 20.99 13.91C20.1445 14.2687 19.4168 14.8577 18.89 15.61C17.83 17.03 18.36 19.27 17.71 20.66C17.5424 20.9994 17.2732 21.2781 16.9399 21.4573C16.6065 21.6366 16.2255 21.7074 15.85 21.66C15.11 21.6 14.29 21.28 14.29 21.85C14.29 21.9385 14.3244 22.0235 14.386 22.0869C14.4476 22.1504 14.5316 22.1874 14.62 22.19C14.97 22.19 15.37 22.33 15.79 22.37C16.3199 22.4519 16.8621 22.3634 17.3384 22.1171C17.8147 21.8709 18.2005 21.4797 18.44 21C19.19 19.56 18.83 17.26 19.68 16.2C21.2 14.3 22.21 15.13 23.39 13.96C23.5608 13.7266 23.6817 13.4606 23.7454 13.1784C23.809 12.8963 23.814 12.6041 23.76 12.32C24 7 24 7.94 24 7.27ZM9.11 3.54C7.68667 3.41964 6.25714 3.38958 4.83 3.45C4.86844 3.25847 4.89516 3.06478 4.91 2.87C5.2 1.93 5.09 1.7 5.71 1.69C6.33 1.68 8.64 1.47 9 2C9.36 2.53 9 3.15 9.11 3.54Z" fill="black"/>
<path fill-rule="evenodd" clip-rule="evenodd" d="M4.22997 8.78999C4.16997 9.31999 4.16997 10.04 4.11997 10.86C4.06997 11.68 2.99997 18 3.53997 21.51C3.53997 21.87 4.45997 21.78 4.32997 21.4C4.23513 20.7882 4.1983 20.1687 4.21997 19.55C4.21997 17.55 5.10997 13.37 4.99997 10.87C4.89997 8.66999 4.83997 9.41999 4.99997 8.86999C6.90997 8.95999 8.20997 8.86999 11.1 8.77999C11.57 8.77999 12.24 8.92999 12.37 8.55999C12.61 7.89999 11.37 8.03999 11.15 8.00999C8.6697 7.73431 6.16977 7.68076 3.67997 7.84999H1.87997C1.51997 7.84999 1.52997 8.22999 1.87997 8.47999C2.6413 8.71013 3.43501 8.81483 4.22997 8.78999Z" fill="black"/>
<path fill-rule="evenodd" clip-rule="evenodd" d="M15.62 8.37002C15.77 8.68002 15.94 8.77002 16.02 8.74002C16.3 8.74002 16.38 8.51002 16.52 7.74002C16.5463 7.52368 16.5269 7.30423 16.4632 7.09582C16.3994 6.88742 16.2928 6.69468 16.15 6.53002C15.92 6.40002 15 7.19002 15.62 8.37002Z" fill="black"/>
<path fill-rule="evenodd" clip-rule="evenodd" d="M18.83 8.37002C18.98 8.68002 19.15 8.77002 19.23 8.74002C19.51 8.74002 19.59 8.51002 19.72 7.74002C19.7509 7.5243 19.7347 7.30446 19.6725 7.0956C19.6104 6.88673 19.5038 6.69379 19.36 6.53002C19.13 6.40002 18.23 7.19002 18.83 8.37002Z" fill="black"/>
</g>
<defs>
<clipPath id="clip0_1033_3628">
<rect width="24" height="24" fill="white"/>
</clipPath>
</defs>
</svg>
