<svg width="24" height="24" viewBox="0 0 24 24" fill="none" xmlns="http://www.w3.org/2000/svg">
<g clip-path="url(#clip0_1052_8982)">
<path fill-rule="evenodd" clip-rule="evenodd" d="M15.83 6.26004C15.287 5.96247 14.6652 5.84022 14.05 5.91004C13.55 5.95943 13.0643 6.10547 12.62 6.34004C12.62 6.34004 12.62 6.28004 12.62 6.25004C12.4967 5.95088 12.3078 5.68323 12.0672 5.46688C11.8267 5.25052 11.5405 5.09098 11.23 5.00004C10.3415 4.69904 9.37855 4.69904 8.49001 5.00004C7.34362 5.57082 6.45451 6.55277 6.00001 7.75004C5.71832 8.34825 5.62579 9.01816 5.73478 9.67034C5.84378 10.3225 6.14911 10.9259 6.61001 11.4C6.7214 11.5098 6.8497 11.601 6.99001 11.67C7.1357 11.7403 7.28605 11.8004 7.44001 11.85C7.42597 11.9863 7.42597 12.1237 7.44001 12.26C7.64076 12.8351 7.91288 13.3827 8.25001 13.89L8.79001 14.79C9.03001 15.19 9.65001 14.79 9.40001 14.21L9.06001 13.46C8.88758 13.1201 8.73727 12.7694 8.61001 12.41C8.54667 12.2805 8.50287 12.1424 8.48001 12H10.08C10.8243 11.9609 11.5656 11.8774 12.3 11.75C13.04 11.62 13.12 11.33 13 11.03C12.88 10.73 12.63 10.9 12.42 10.9H11.77C11.6327 10.6303 11.519 10.3493 11.43 10.06C11.3952 9.88172 11.3952 9.69836 11.43 9.52004C11.5293 9.09204 11.7214 8.69108 11.9927 8.34548C12.2639 7.99989 12.6078 7.7181 13 7.52004C13.3632 7.27845 13.766 7.10245 14.19 7.00004C14.6048 6.90297 15.0387 6.92727 15.44 7.07004C15.7376 7.18116 16.0097 7.35123 16.24 7.57004C16.3435 7.66827 16.4342 7.77914 16.51 7.90004C16.75 8.04004 17.12 7.71004 17.05 7.45004C16.7739 6.93347 16.3488 6.51188 15.83 6.24004V6.26004ZM10.51 9.40004C10.499 9.70474 10.5536 10.0082 10.67 10.29C10.7546 10.4924 10.8514 10.6895 10.96 10.88C10.73 10.88 10.45 10.88 10.1 10.83H8.53001C8.33476 10.7966 8.13526 10.7966 7.94001 10.83C7.79449 10.8849 7.66898 10.9825 7.58001 11.11L7.41001 11.03C7.30952 10.9747 7.2184 10.9038 7.14001 10.82C6.90442 10.5265 6.74845 10.1773 6.68714 9.80591C6.62584 9.43457 6.66127 9.0537 6.79001 8.70004C6.95563 8.12714 7.23446 7.59329 7.61001 7.13004C7.9619 6.6612 8.41253 6.27543 8.93001 6.00004C9.57404 5.69234 10.3012 5.60452 11 5.75004C11.2216 5.78403 11.4327 5.86726 11.6179 5.99359C11.803 6.11992 11.9575 6.28614 12.07 6.48004C12.07 6.54004 12.14 6.57004 12.19 6.61004C11.7177 6.91832 11.3213 7.32942 11.0304 7.81257C10.7394 8.29572 10.5616 8.83841 10.51 9.40004Z" fill="black"/>
<path fill-rule="evenodd" clip-rule="evenodd" d="M23.27 8.36005C22.7444 6.75396 21.8894 5.27518 20.7599 4.01821C19.6303 2.76124 18.251 1.75373 16.71 1.06006C15.8768 0.687717 15.0048 0.409334 14.11 0.230056C11.1651 -0.111914 8.19396 0.596341 5.72001 2.23006C3.75665 3.37276 2.17129 5.06589 1.16001 7.10006C0.665855 8.27379 0.329588 9.50788 0.160006 10.7701C-0.0283428 12.0311 -0.0652714 13.3102 0.0500057 14.5801C0.210632 16.0061 0.70015 17.3754 1.48001 18.5801C2.21855 19.8768 3.22477 21.0014 4.43174 21.8791C5.63871 22.7567 7.01873 23.3672 8.48001 23.6701C10.0007 23.9466 11.5531 24.0039 13.09 23.8401C15.3951 23.6553 17.6248 22.9327 19.6 21.7301C20.9455 20.8969 22.0327 19.7058 22.74 18.2901C24.1889 15.1718 24.3787 11.6148 23.27 8.36005ZM2.41001 18.0001C1.70588 16.9499 1.25097 15.7528 1.08001 14.5001C0.93056 13.3181 0.93056 12.122 1.08001 10.9401C1.22696 9.73392 1.53643 8.55321 2.00001 7.43006C2.89784 5.53777 4.3256 3.94675 6.11001 2.85006C8.41023 1.25272 11.2239 0.571593 14 0.940056C14.8388 1.1145 15.6543 1.38635 16.43 1.75006C18.0008 2.43393 19.3758 3.49955 20.43 4.85006C20.04 5.25006 19.64 5.64006 19.21 6.01006C16.67 8.23006 16.92 8.19006 15.21 9.71006C15.16 9.71006 12.92 11.7101 11.07 13.5801C10.51 14.1501 8.20001 16.4001 7.71001 16.9301C7.00001 17.7101 6.18001 18.5201 5.45001 19.3701C5.16001 19.7101 4.89001 20.0601 4.63001 20.3701C3.78704 19.6832 3.04034 18.8861 2.41001 18.0001ZM21.84 17.8301C21.0193 19.3602 19.7196 20.5791 18.14 21.3001C16.5457 22.0805 14.8192 22.5554 13.05 22.7001C11.6197 22.8527 10.1749 22.7988 8.76001 22.5401C7.40863 22.3004 6.13754 21.7301 5.06001 20.8801C5.33001 20.5501 5.61001 20.2201 5.92001 19.8801C6.70001 19.0801 7.56001 18.3301 8.31001 17.6101C9.06001 16.8901 9.86001 16.1201 10.62 15.3701L13.79 12.1901C14.49 11.4901 15.19 10.7701 15.9 10.0801C17.1 8.89005 18.47 7.80006 19.71 6.61006C20.1 6.24006 20.47 5.85006 20.82 5.45006C21.5006 6.43358 22.0329 7.51176 22.4 8.65005C23.4008 11.6547 23.2002 14.9301 21.84 17.7901V17.8301Z" fill="black"/>
<path fill-rule="evenodd" clip-rule="evenodd" d="M12.46 19.8201C12.46 19.8701 12.53 19.8201 12.57 19.8201C12.61 19.8201 12.44 19.7901 12.46 19.8201Z" fill="black"/>
<path fill-rule="evenodd" clip-rule="evenodd" d="M15.93 12C15.8853 11.9945 15.8399 11.9978 15.7966 12.0099C15.7532 12.0221 15.7126 12.0427 15.6773 12.0706C15.6419 12.0985 15.6124 12.1331 15.5906 12.1725C15.5688 12.2119 15.555 12.2553 15.55 12.3C15.4847 12.6926 15.3808 13.0778 15.24 13.45C15.04 14 14.78 14.45 14.49 15.2C14.2 15.95 13.86 16.79 13.49 17.57C13.28 18.09 13.07 18.57 12.82 19.11C12.7501 19.376 12.6529 19.634 12.53 19.88C12.53 19.88 12.61 19.88 12.59 19.88C12.44 20.09 12.08 19.3 11.8 18.88C11.41 18.28 11.06 17.64 10.95 17.48C10.9303 17.4459 10.9041 17.4159 10.8728 17.3919C10.8416 17.3679 10.8059 17.3503 10.7678 17.3401C10.7297 17.3299 10.69 17.3272 10.6509 17.3324C10.6118 17.3375 10.5741 17.3503 10.54 17.37C10.5058 17.3897 10.4759 17.416 10.4519 17.4472C10.4279 17.4785 10.4102 17.5142 10.4 17.5522C10.3898 17.5903 10.3872 17.63 10.3923 17.6691C10.3975 17.7082 10.4103 17.7459 10.43 17.78C10.7739 18.5968 11.1611 19.3946 11.59 20.17C11.7555 20.4791 12.0246 20.7198 12.35 20.85C12.4983 20.8738 12.6502 20.8617 12.7928 20.8148C12.9355 20.7678 13.0648 20.6873 13.17 20.58C13.4404 20.2829 13.6631 19.9455 13.83 19.58C14.1662 18.9317 14.4634 18.2638 14.72 17.58C14.97 16.9 15.17 16.2 15.38 15.5C15.59 14.8 15.81 14.25 15.96 13.69C16.0851 13.2599 16.1623 12.8172 16.19 12.37C16.1974 12.2876 16.1754 12.2052 16.1278 12.1374C16.0802 12.0697 16.0101 12.021 15.93 12Z" fill="black"/>
</g>
<defs>
<clipPath id="clip0_1052_8982">
<rect width="24" height="24" fill="white"/>
</clipPath>
</defs>
</svg>
