<svg width="24" height="24" viewBox="0 0 24 24" fill="none" xmlns="http://www.w3.org/2000/svg">
<g clip-path="url(#clip0_1047_5919)">
<path fill-rule="evenodd" clip-rule="evenodd" d="M11.55 14.2L12 12.51L12.24 12.99C12.44 13.44 12.63 13.91 12.83 14.36C13.63 16.12 12.31 13.11 15.61 20.5C15.94 21.24 16.25 21.77 16.61 22.5C17 22.86 17.37 22.67 17.23 22.34C16.92 21.52 16.69 21 16.36 20.19C12.28 9.91002 15.36 17.79 13.85 13.94C13.66 13.47 12.58 11.09 12.49 10.94C11.88 9.94002 11.44 10.69 11.42 10.76C11.4 10.83 10.73 13.13 10.53 13.92C9.98999 16.17 9.03999 20.29 8.52999 22.53C8.46999 23.01 9.00999 22.93 9.14999 22.53C9.26999 22 10.54 17.92 11.55 14.2Z" fill="black"/>
<path fill-rule="evenodd" clip-rule="evenodd" d="M20.79 22.79C20.7806 22.7471 20.7627 22.7065 20.7374 22.6705C20.7121 22.6346 20.6798 22.6041 20.6426 22.5809C20.6053 22.5576 20.5638 22.542 20.5204 22.5349C20.477 22.5279 20.4327 22.5296 20.39 22.54C20.0594 22.598 19.7254 22.6348 19.39 22.65C18.88 22.65 18.39 22.65 17.87 22.72L15.36 22.84C10.81 23.22 8.79001 23.26 4.12001 23.39C4.08149 23.3899 4.04337 23.3977 4.00803 23.413C3.97269 23.4283 3.94088 23.4508 3.9146 23.4789C3.88832 23.5071 3.86813 23.5404 3.8553 23.5767C3.84246 23.613 3.83726 23.6516 3.84001 23.69C3.8413 23.7281 3.85009 23.7655 3.86587 23.8002C3.88165 23.8349 3.90411 23.8662 3.93197 23.8922C3.95983 23.9182 3.99255 23.9384 4.02825 23.9518C4.06394 23.9651 4.10192 23.9713 4.14001 23.97H11.59C12.46 23.97 13.3 23.97 14.14 23.91C15.41 23.84 16.67 23.69 17.95 23.52C18.54 23.44 19.13 23.4 19.72 23.31C19.9828 23.2711 20.2432 23.2177 20.5 23.15C20.543 23.1463 20.5849 23.1339 20.623 23.1136C20.6611 23.0933 20.6948 23.0655 20.7219 23.0319C20.749 22.9982 20.769 22.9595 20.7807 22.9179C20.7924 22.8763 20.7956 22.8328 20.79 22.79Z" fill="black"/>
<path fill-rule="evenodd" clip-rule="evenodd" d="M23.41 11.48C23.3633 11.0755 23.2 10.6933 22.94 10.38C22.7401 10.1456 22.4835 9.9665 22.1946 9.8597C21.9057 9.7529 21.5942 9.72201 21.29 9.77C21.0957 9.7974 20.9068 9.85475 20.73 9.94C20.6546 9.97612 20.5812 10.0162 20.51 10.06C20.51 9.73 20.41 9.41 20.34 9.06C20.1694 8.31576 19.9039 7.59654 19.55 6.92L19.39 6.66H19.44C19.5852 6.63961 19.7288 6.60954 19.87 6.57L20.17 6.45C20.365 6.35153 20.5354 6.21057 20.6686 6.0375C20.8019 5.86443 20.8946 5.66366 20.94 5.45C21.037 5.04635 21.0019 4.62224 20.84 4.24C20.6397 3.78232 20.3181 3.38811 19.91 3.1C19.4978 2.79677 19.0016 2.62904 18.49 2.62C18.1184 2.6186 17.7575 2.74503 17.468 2.97808C17.1786 3.21113 16.978 3.53663 16.9 3.9C16.8634 4.00675 16.8398 4.11756 16.83 4.23C16.6 4.11 16.37 3.98 16.13 3.88C15.5812 3.665 15.0161 3.49445 14.44 3.37C14.4859 3.30351 14.526 3.23326 14.56 3.16C14.6309 2.9934 14.6813 2.81878 14.71 2.64C14.7595 2.32277 14.7417 1.99869 14.6578 1.68879C14.5739 1.37889 14.4257 1.09009 14.223 0.841142C14.0202 0.592195 13.7674 0.388661 13.4809 0.243751C13.1944 0.0988407 12.8807 0.0157927 12.56 -2.92808e-06C12.0568 -0.0788019 11.5415 -0.00568417 11.08 0.209997C10.7089 0.366959 10.3939 0.632335 10.1762 0.971363C9.95853 1.31039 9.84831 1.70726 9.86 2.11C9.84073 2.26942 9.84073 2.43058 9.86 2.59C9.89803 2.72946 9.94479 2.8664 10 3C10.058 3.12977 10.1283 3.25367 10.21 3.37H10.13C9.34321 3.57297 8.58667 3.87895 7.88 4.28C7.80486 3.88146 7.6215 3.51128 7.35 3.21C7.0029 2.82288 6.51868 2.58615 6 2.55C5.66087 2.55753 5.32752 2.63933 5.02344 2.78965C4.71935 2.93996 4.45192 3.15513 4.24 3.42C4.03434 3.68117 3.88543 3.98238 3.80278 4.30437C3.72013 4.62636 3.70556 4.96206 3.76 5.29C3.80034 5.51931 3.88164 5.73949 4 5.94C4.11076 6.13211 4.25269 6.30446 4.42 6.45C4.57929 6.59196 4.75367 6.71603 4.94 6.82L5.13 6.9C4.47524 7.81049 3.97831 8.82464 3.66 9.9L3.45 9.78C3.27476 9.70765 3.08909 9.66376 2.9 9.65C2.5766 9.60906 2.2481 9.6478 1.9431 9.76283C1.63809 9.87786 1.36582 10.0657 1.15 10.31C0.92093 10.5624 0.753067 10.8642 0.659422 11.192C0.565777 11.5197 0.548866 11.8647 0.609999 12.2C0.723127 12.7376 1.01584 13.2208 1.44 13.57C1.65847 13.7533 1.92094 13.8764 2.20153 13.9273C2.48211 13.9781 2.77111 13.9549 3.04 13.86C3.15762 13.8195 3.26877 13.7623 3.37 13.69C3.58158 15.0059 4.16442 16.234 5.05 17.23H4.92C4.78166 17.2874 4.65072 17.3613 4.53 17.45C4.40423 17.5426 4.28708 17.6463 4.18 17.76C3.96259 18.0054 3.81313 18.3034 3.74647 18.6244C3.67981 18.9454 3.69827 19.2783 3.8 19.59C3.94544 19.9903 4.20648 20.3383 4.55 20.59C4.75662 20.7713 5.00244 20.9023 5.26817 20.9728C5.53391 21.0432 5.81235 21.0511 6.08166 20.9959C6.35096 20.9407 6.60382 20.8238 6.8204 20.6545C7.03699 20.4852 7.21141 20.268 7.33 20.02C7.40593 19.8605 7.46298 19.6927 7.5 19.52C7.50983 19.4002 7.50983 19.2798 7.5 19.16C7.91621 19.3713 8.34737 19.5518 8.79 19.7C9.02 19.77 9.27 19.23 9.01 19.12C8.5976 18.9689 8.19657 18.7885 7.81 18.58C7.45914 18.3954 7.12461 18.1813 6.81 17.94L6.66 17.8C6.92102 17.6142 7.17141 17.4139 7.41 17.2C7.54812 17.1434 7.68183 17.0765 7.81 17C7.91096 16.891 7.99827 16.7701 8.07 16.64C8.16971 16.4822 8.25987 16.3186 8.34 16.15C8.66523 16.4828 9.04808 16.7538 9.47 16.95C9.79 17.01 9.99 16.53 9.78 16.43C9.2548 16.144 8.79389 15.7533 8.42579 15.282C8.05769 14.8107 7.79024 14.2688 7.64 13.69C7.53694 13.2783 7.49317 12.854 7.51 12.43H8.38C9.21 12.43 9.76 12.34 10.59 12.25C10.94 12.25 11.35 11.47 10.59 11.54C9.83 11.61 9.49 11.41 8.73 11.35H7.64C7.77469 10.8101 8.005 10.2987 8.32 9.84C8.73864 9.12759 9.31296 8.51908 10 8.06C10.4382 7.82089 10.9222 7.67772 11.42 7.64V8.45C11.42 9.06 11.55 9.32 11.59 9.94C11.59 10.38 12.07 10.52 12.24 10.08C12.3 9.47 12.43 9.02 12.47 8.41L12.53 7.63C13.6176 7.69701 14.6504 8.13058 15.46 8.86C16.0893 9.4181 16.512 10.172 16.66 11H16.31C15.91 11 15.52 11 15.13 11.08C14.45 11.16 13.95 11.3 13.28 11.41C12.79 11.52 12.81 11.96 13.28 12.11H15.56C15.93 12.11 16.29 12.11 16.66 12.05C16.6139 12.7107 16.4965 13.3645 16.31 14C16.1804 14.4153 15.962 14.7975 15.67 15.12C15.4671 15.3371 15.2221 15.5106 14.95 15.63C14.7 15.81 14.79 16.53 15.26 16.41C15.6268 16.2581 15.9401 16.0005 16.16 15.67C16.2201 15.8714 16.2936 16.0685 16.38 16.26C16.4336 16.3722 16.4972 16.4792 16.57 16.58C16.648 16.678 16.7315 16.7714 16.82 16.86C17 17.05 17.2 17.21 17.39 17.39C17.0046 17.807 16.543 18.1465 16.03 18.39C15.69 18.53 15.93 19.22 16.27 19.18C16.61 19.14 16.37 19.07 16.55 18.98C16.6188 18.9437 16.6856 18.9036 16.75 18.86C16.8121 19.2197 16.9575 19.5598 17.1746 19.8533C17.3916 20.1467 17.6743 20.3853 18 20.55C18.3005 20.7123 18.6433 20.7791 18.9828 20.7416C19.3222 20.7041 19.6422 20.564 19.9 20.34C20.2608 20.0353 20.4959 19.6078 20.56 19.14C20.6086 18.7001 20.5288 18.2555 20.33 17.86C20.08 17.3463 19.6383 16.9513 19.1 16.76C19.7708 15.813 20.2373 14.7369 20.47 13.6C20.47 13.6 20.47 13.5 20.47 13.45C20.67 13.51 21.01 13.59 21.29 13.64C21.4529 13.6571 21.6171 13.6571 21.78 13.64C22.0302 13.6082 22.2714 13.5267 22.4896 13.4002C22.7077 13.2737 22.8984 13.1048 23.0503 12.9036C23.2022 12.7023 23.3122 12.4726 23.374 12.2281C23.4358 11.9837 23.448 11.7293 23.41 11.48ZM3.35 11.19C3.26475 11.7893 3.24129 12.3959 3.28 13C3.24408 13.0323 3.20365 13.0593 3.16 13.08C3.06283 13.13 2.9581 13.1638 2.85 13.18C2.70682 13.1928 2.56268 13.1703 2.4302 13.1145C2.29771 13.0587 2.18091 12.9714 2.09 12.86C1.87257 12.6216 1.73607 12.3206 1.7 12C1.66195 11.828 1.661 11.6498 1.69721 11.4774C1.73342 11.3049 1.80596 11.1422 1.91 11C2.01453 10.8468 2.15262 10.7194 2.31377 10.6276C2.47492 10.5357 2.65489 10.4818 2.84 10.47C2.94597 10.4528 3.05402 10.4528 3.16 10.47C3.26857 10.4955 3.3707 10.5432 3.46 10.61C3.42 10.82 3.38 11 3.35 11.19ZM17.45 4.5C17.475 4.39148 17.5154 4.28709 17.57 4.19C17.6456 4.02604 17.772 3.89081 17.9306 3.80435C18.0891 3.71789 18.2712 3.6848 18.45 3.71C18.7479 3.75768 19.0295 3.87787 19.27 4.06C19.5328 4.23015 19.7521 4.45965 19.91 4.73C20.027 4.90327 20.08 5.11188 20.06 5.32C20.0556 5.41722 20.03 5.51232 19.9851 5.59866C19.9402 5.68501 19.8771 5.76054 19.8 5.82L19.3 6C19.2537 6.0118 19.2102 6.03298 19.1724 6.06221C19.1346 6.09145 19.1031 6.12814 19.08 6.17C18.7917 5.76182 18.456 5.38923 18.08 5.06C17.8642 4.87899 17.6371 4.71198 17.4 4.56C17.4138 4.53776 17.4306 4.51756 17.45 4.5ZM5 5.92C4.91606 5.80681 4.84871 5.68222 4.8 5.55C4.75425 5.43224 4.73381 5.30617 4.74 5.18C4.73304 4.79035 4.87216 4.41221 5.13 4.12C5.24729 3.96093 5.39715 3.8287 5.56959 3.73213C5.74203 3.63557 5.93308 3.57688 6.13 3.56C6.27174 3.54689 6.41464 3.5642 6.54916 3.61077C6.68367 3.65733 6.80669 3.73207 6.91 3.83C7.03547 3.92211 7.14093 4.03874 7.22 4.17281C7.29907 4.30689 7.3501 4.45562 7.37 4.61C7.37 4.61 7.37 4.61 7.37 4.69C7.18691 4.81104 7.01002 4.9412 6.84 5.08C6.34384 5.46991 5.88821 5.90879 5.48 6.39C5.41 6.39 5.34 6.31 5.28 6.26C5.17517 6.15664 5.08133 6.0427 5 5.92ZM7 18.92C6.95082 18.9683 6.91915 19.0317 6.91 19.1C6.88938 19.2156 6.85928 19.3293 6.82 19.44C6.77877 19.5429 6.72503 19.6403 6.66 19.73C6.5848 19.8442 6.48432 19.9395 6.36634 20.0085C6.24836 20.0776 6.11606 20.1185 5.9797 20.1282C5.84333 20.1379 5.70657 20.116 5.58003 20.0643C5.45348 20.0126 5.34055 19.9324 5.25 19.83C5.02653 19.6659 4.86737 19.4289 4.8 19.16C4.76018 19.0292 4.74763 18.8915 4.76311 18.7557C4.77859 18.6198 4.82177 18.4885 4.89 18.37C4.91601 18.276 4.95293 18.1854 5 18.1C5.06296 18.0227 5.13711 17.9553 5.22 17.9C5.29276 17.8492 5.37405 17.812 5.46 17.79H5.54C5.82603 18.0626 6.12646 18.3196 6.44 18.56C6.64 18.67 6.82 18.76 7 18.87V18.92ZM7.78 15.58C7.60344 15.7012 7.43322 15.8314 7.27 15.97C7.16232 16.0692 7.06206 16.1762 6.97 16.29C6.87683 16.4052 6.79003 16.5253 6.71 16.65C6.54 16.92 6.4 17.19 6.24 17.45L6 17.22C5.34639 16.571 4.84156 15.7877 4.52042 14.9244C4.19927 14.0611 4.06947 13.1384 4.14 12.22C4.95 12.27 5.75 12.34 6.56 12.38C6.56402 12.8958 6.64491 13.4081 6.8 13.9C7.01637 14.5002 7.34562 15.0535 7.77 15.53L7.78 15.58ZM7.5 9.21C7.09919 9.84665 6.83053 10.5574 6.71 11.3H6.51C5.75 11.3 4.99 11.41 4.23 11.48V11.33C4.56076 9.48517 5.45923 7.78963 6.8 6.48C6.94 6.79 7.08 7.1 7.25 7.4C7.33 7.52 7.41 7.65 7.5 7.76C7.59206 7.87384 7.69232 7.98079 7.8 8.08L8.14 8.33C7.93 8.59 7.72 8.88 7.5 9.21ZM11.5 6.21V6.5C10.7948 6.53662 10.1089 6.74242 9.5 7.1C9.23751 7.25643 8.99275 7.44084 8.77 7.65C8.77 7.56 8.68 7.47 8.62 7.38C8.54566 7.26031 8.46208 7.14663 8.37 7.04C8.28104 6.93282 8.1841 6.83254 8.08 6.74C7.84 6.5 7.58 6.31 7.34 6.08L7.51 5.94C8.39372 5.24595 9.41712 4.7513 10.51 4.49C10.9473 4.38776 11.392 4.32088 11.84 4.29C11.68 4.92 11.59 5.57 11.53 6.22L11.5 6.21ZM10.9 3.21V3.14C10.8297 3.01974 10.7822 2.88752 10.76 2.75C10.7344 2.64831 10.7177 2.54458 10.71 2.44C10.6947 2.34729 10.6947 2.2527 10.71 2.16C10.7395 1.98095 10.8098 1.81112 10.9156 1.6637C11.0214 1.51627 11.1598 1.39524 11.32 1.31C11.6584 1.12403 12.0471 1.05049 12.43 1.1C13.21 1.17 13.99 1.61 13.95 2.52C13.9463 2.64215 13.9261 2.76324 13.89 2.88C13.8579 2.99248 13.8108 3.10011 13.75 3.2C12.8139 3.06319 11.8619 3.07669 10.93 3.24L10.9 3.21ZM15.9 7.12C15.78 7.29 15.68 7.46 15.58 7.63C14.685 6.9744 13.6258 6.57979 12.52 6.49C12.52 5.74 12.46 4.98 12.4 4.2C12.8292 4.20475 13.2574 4.24489 13.68 4.32C14.3625 4.44448 15.0321 4.63195 15.68 4.88C16.2827 5.1175 16.8406 5.45564 17.33 5.88C17.0879 6.04115 16.8542 6.21472 16.63 6.4C16.4994 6.50869 16.3758 6.62559 16.26 6.75C16.1601 6.87425 16.073 7.00826 16 7.15L15.9 7.12ZM16.23 8.18C16.38 8.07 16.53 7.96 16.68 7.83C16.8072 7.72457 16.9275 7.611 17.04 7.49L17.35 7.1C17.52 6.87 17.67 6.64 17.83 6.42C18.0992 6.72896 18.3371 7.06395 18.54 7.42C18.8546 8.02012 19.0995 8.65424 19.27 9.31C19.4079 9.88533 19.5015 10.4704 19.55 11.06C18.87 11.01 18.2 10.96 17.55 10.95C17.4541 9.92187 17.0136 8.95631 16.3 8.21L16.23 8.18ZM19.35 18.18C19.3896 18.3747 19.3896 18.5753 19.35 18.77C19.3358 19.0346 19.2171 19.2828 19.02 19.46C18.8781 19.5736 18.7018 19.6355 18.52 19.6355C18.3382 19.6355 18.1619 19.5736 18.02 19.46C17.8191 19.3496 17.6484 19.1916 17.5228 18.9998C17.3973 18.808 17.3208 18.5883 17.3 18.36C17.6605 18.1178 17.9955 17.8397 18.3 17.53C18.39 17.44 18.45 17.34 18.53 17.25C18.752 17.3196 18.9515 17.4471 19.1079 17.6193C19.2643 17.7915 19.372 18.0023 19.42 18.23L19.35 18.18ZM19.45 13.36C19.2192 14.6234 18.6645 15.8053 17.84 16.79C17.7668 16.5939 17.6867 16.4005 17.6 16.21C17.5426 16.0999 17.4792 15.9931 17.41 15.89C17.341 15.7878 17.2605 15.6938 17.17 15.61C16.9683 15.4197 16.7546 15.2427 16.53 15.08C16.7136 14.8158 16.8647 14.5304 16.98 14.23C17.2381 13.509 17.4126 12.7608 17.5 12L19.58 11.84C19.6104 12.364 19.5903 12.8898 19.52 13.41L19.45 13.36ZM21.55 12.78C21.3837 12.7965 21.2163 12.7965 21.05 12.78C20.8625 12.7738 20.6756 12.7572 20.49 12.73C20.5519 12.0648 20.5519 11.3952 20.49 10.73C20.7213 10.6211 20.9744 10.5663 21.23 10.57C21.3836 10.5829 21.532 10.6312 21.6639 10.711C21.7957 10.7908 21.9073 10.8999 21.99 11.03C22.1035 11.2047 22.1753 11.4031 22.2 11.61C22.2734 11.849 22.2545 12.1069 22.1471 12.3327C22.0398 12.5586 21.8517 12.736 21.62 12.83L21.55 12.78Z" fill="black"/>
<path fill-rule="evenodd" clip-rule="evenodd" d="M13.31 17.11C13.4257 17.0781 13.5367 17.031 13.64 16.97C13.9 16.63 13.64 16.08 12.99 16.2C12.76 16.2 11.26 16.42 11.25 16.42C11.1629 16.4475 11.0868 16.5021 11.0327 16.5758C10.9787 16.6496 10.9496 16.7386 10.9496 16.83C10.9496 16.9214 10.9787 17.0104 11.0327 17.0841C11.0868 17.1578 11.1629 17.2124 11.25 17.24C11.932 17.4269 12.6569 17.3812 13.31 17.11Z" fill="black"/>
<path fill-rule="evenodd" clip-rule="evenodd" d="M14.54 19C14.1127 19.1418 13.6746 19.2488 13.23 19.32C12.665 19.4499 12.0892 19.5269 11.51 19.55C11.1204 19.5576 10.7312 19.5207 10.35 19.44C9.99999 19.44 10.06 19.88 10.35 20.09C10.59 20.14 10.53 20.19 10.77 20.22L10.5 20.79C10.4278 20.986 10.3975 21.195 10.4113 21.4035C10.4251 21.612 10.4826 21.8152 10.58 22C10.7851 22.3267 11.0803 22.5872 11.43 22.75C12.0255 22.9791 12.681 23.0002 13.29 22.81C13.5377 22.7466 13.7716 22.6382 13.98 22.49C14.2487 22.314 14.4595 22.0626 14.5858 21.7673C14.7121 21.4719 14.7484 21.1459 14.69 20.83C14.6632 20.6713 14.6162 20.5167 14.55 20.37C14.4671 20.1861 14.3701 20.0089 14.26 19.84C14.453 19.7939 14.6433 19.7372 14.83 19.67C15.38 19.57 14.92 18.87 14.54 19ZM13.43 21.65C13.2407 21.7411 13.0382 21.8019 12.83 21.83C12.5126 21.8891 12.1853 21.8649 11.88 21.76C11.6978 21.7126 11.5341 21.6115 11.41 21.47C11.2969 21.3365 11.2396 21.1646 11.25 20.99L11.35 20.56C11.3883 20.4793 11.4389 20.4051 11.5 20.34C11.5377 20.3009 11.5777 20.2641 11.62 20.23C12.2125 20.2074 12.8016 20.1304 13.38 20L13.65 19.94C13.6353 19.9889 13.6353 20.0411 13.65 20.09C13.7237 20.2525 13.7871 20.4195 13.84 20.59C13.8504 20.683 13.8504 20.7769 13.84 20.87C13.8535 21.0242 13.822 21.1791 13.7492 21.3158C13.6764 21.4525 13.5655 21.5651 13.43 21.64V21.65Z" fill="black"/>
</g>
<defs>
<clipPath id="clip0_1047_5919">
<rect width="24" height="24" fill="white"/>
</clipPath>
</defs>
</svg>
