<svg width="24" height="24" viewBox="0 0 24 24" fill="none" xmlns="http://www.w3.org/2000/svg">
<g clip-path="url(#clip0_1047_5914)">
<path fill-rule="evenodd" clip-rule="evenodd" d="M21 12.27V11.56H21.14C21.3012 11.535 21.4589 11.4914 21.61 11.43C21.731 11.3711 21.8345 11.2814 21.91 11.17C21.9429 11.1013 21.9599 11.0262 21.9599 10.95C21.9599 10.8739 21.9429 10.7987 21.91 10.73C21.91 10.65 21.74 10.47 21.72 10.43L21.15 9.50003C20.7548 8.81154 20.3242 8.14398 19.86 7.50003C19.52 7.06342 19.1307 6.66747 18.7 6.32003C18.4441 6.0972 18.1698 5.89648 17.88 5.72003C17.6959 5.61765 17.4905 5.55946 17.28 5.55003C17.2033 5.54564 17.1265 5.55865 17.0555 5.58809C16.9845 5.61752 16.9211 5.66263 16.87 5.72003C16.7473 5.89398 16.6339 6.07423 16.53 6.26003L15.46 7.88003C15.4164 7.94416 15.3994 8.02269 15.4124 8.09913C15.4255 8.17557 15.4676 8.24398 15.53 8.29003C15.5608 8.31432 15.5963 8.33187 15.6343 8.34155C15.6723 8.35123 15.7119 8.35282 15.7506 8.34622C15.7892 8.33962 15.8261 8.32498 15.8587 8.30324C15.8913 8.2815 15.919 8.25315 15.94 8.22003L17.2 6.78003L17.4 6.61003C17.61 6.77003 17.79 6.99003 17.95 7.13003C18.3122 7.43319 18.6469 7.76783 18.95 8.13003C19.42 8.72003 19.87 9.35003 20.29 9.95003L20.88 10.72H20.68C20.36 10.49 18.78 10.58 16.85 11.03C16.8118 11.0349 16.7749 11.0474 16.7415 11.0667C16.7082 11.086 16.679 11.1118 16.6557 11.1426C16.6325 11.1733 16.6155 11.2083 16.606 11.2457C16.5964 11.283 16.5944 11.3219 16.6 11.36C16.6037 11.3978 16.615 11.4345 16.6333 11.4678C16.6515 11.5011 16.6764 11.5303 16.7063 11.5537C16.7363 11.5771 16.7706 11.5942 16.8074 11.6039C16.8441 11.6135 16.8824 11.6156 16.92 11.61H18.27C18.7051 11.6214 19.1392 11.6582 19.57 11.72H19.89L19.95 12.18L20.11 13.41C20.11 13.85 20.89 13.8 20.91 13.41L21 12.27Z" fill="black"/>
<path fill-rule="evenodd" clip-rule="evenodd" d="M24 16.61V15.66C24 15.35 24 15.23 23.94 15.01C23.9233 14.8247 23.8932 14.6409 23.85 14.46C23.8112 14.333 23.7254 14.2257 23.61 14.16C23.3958 14.052 23.1599 13.9939 22.92 13.99H21.74C21.45 13.99 22.56 13.99 19.37 13.93H17.01L14.71 14C14.71 13.81 14.71 13.62 14.66 13.42C14.66 12.77 14.71 12.1 14.71 11.42V10.63H15C15.2797 10.6119 15.5508 10.5261 15.79 10.38C15.8462 10.3423 15.8927 10.2918 15.9257 10.2328C15.9587 10.1737 15.9773 10.1076 15.98 10.04C16.0014 9.97506 16.0014 9.90497 15.98 9.84001C15.9301 9.73742 15.8698 9.64024 15.8 9.55001L15.42 8.84001C15.1591 8.39274 14.8614 7.96794 14.53 7.57001C14.07 7.00001 13.53 6.46001 13.11 5.88001L12.2 4.81001L12 4.48001C12.7217 4.34194 13.4307 4.1446 14.12 3.89001C14.5531 3.69967 14.924 3.39124 15.19 3.00001C15.2374 2.9364 15.2693 2.8626 15.2832 2.78448C15.2971 2.70636 15.2926 2.62608 15.27 2.55001C15.2418 2.42641 15.171 2.31667 15.07 2.24001C14.93 2.15957 14.7827 2.0926 14.63 2.04001L13.88 1.60001L12.32 0.800015C12.24 0.800015 12.02 0.630015 11.87 0.580015C11.757 0.529119 11.6338 0.505157 11.51 0.510015C11.3706 0.535992 11.2449 0.610507 11.1552 0.720341C11.0655 0.830174 11.0176 0.968228 11.02 1.11001C11.02 1.30001 11.07 1.79001 11.07 1.83001L11.14 4.20001H11.09C10.9461 4.3281 10.8215 4.47629 10.72 4.64001L9.85 5.73001C9.44 6.25001 9.04 6.73001 8.68 7.32001C8.30138 7.8576 7.95735 8.41873 7.65 9.00001C7.48276 9.29698 7.34221 9.6082 7.23 9.93001C7.13431 10.1893 7.11693 10.4709 7.18 10.74C7.1973 10.8098 7.23513 10.8729 7.2886 10.921C7.34208 10.9691 7.40874 11.0001 7.48 11.01H8.23C8.23 11.28 8.3 11.64 8.3 11.69L8.47 14.34C1.92 14.82 2.79 14.75 0.34 15.15C0.301838 15.1538 0.264798 15.165 0.231021 15.1832C0.197245 15.2013 0.167404 15.226 0.143224 15.2558C0.119044 15.2855 0.101006 15.3198 0.0901538 15.3566C0.0793015 15.3933 0.0758504 15.4319 0.08 15.47C0.16 16.3 0.01 16.08 0 18.47V19.61C0 20.17 0.06 20.73 0.07 21.3L0.14 22.53C0.02 22.53 0.14 22.84 0.14 22.94C0.15485 23.0455 0.202381 23.1438 0.275918 23.2209C0.349455 23.298 0.445303 23.3502 0.55 23.37C0.858382 23.4382 1.17545 23.4585 1.49 23.43C2.11 23.43 2.64 23.17 3.39 23.09H3.47H3.53C3.6033 23.069 3.66627 23.0216 3.70686 22.957C3.74745 22.8925 3.76281 22.8152 3.75 22.74C3.48283 21.5583 3.48283 20.3318 3.75 19.15C3.81783 18.8088 3.98047 18.4937 4.21925 18.2408C4.45804 17.9878 4.7633 17.8074 5.1 17.72C5.3666 17.6418 5.65124 17.6511 5.91219 17.7465C6.17314 17.8418 6.39667 18.0183 6.55 18.25C7.04439 19.1086 7.28375 20.0903 7.24 21.08C7.24 21.19 7.19 22.18 7.24 22.58C7.2429 22.709 7.2795 22.8351 7.34616 22.9456C7.41282 23.0561 7.50722 23.1473 7.62 23.21C7.83411 23.2907 8.06121 23.3313 8.29 23.33C8.65 23.33 9.08 23.25 9.37 23.27H9.83C9.94649 23.275 10.0619 23.2454 10.1615 23.1849C10.2612 23.1244 10.3407 23.0357 10.39 22.93C10.4701 22.7297 10.5108 22.5158 10.51 22.3C10.51 21.95 10.51 21.54 10.45 21.3C10.45 20.65 10.3 19.92 10.3 19.22C10.2848 18.8171 10.3529 18.4154 10.5 18.04C10.6744 17.7792 10.9433 17.5963 11.25 17.53C11.6161 17.4036 12.0032 17.3493 12.39 17.37C12.77 17.3976 13.1263 17.565 13.39 17.84C13.8102 18.3783 14.0856 19.0152 14.19 19.69C14.28 20.04 14.35 20.43 14.41 20.82C14.5 21.42 14.57 22.04 14.65 22.59C14.6554 22.6336 14.6697 22.6757 14.6921 22.7136C14.7145 22.7514 14.7444 22.7842 14.78 22.81C14.7967 22.8582 14.8258 22.9012 14.8645 22.9346C14.9031 22.9679 14.9499 22.9905 15 23H16.55C16.7165 23.0104 16.8835 23.0104 17.05 23C17.1041 22.9912 17.1558 22.9716 17.2022 22.9424C17.2486 22.9132 17.2886 22.875 17.32 22.83C17.4256 22.6854 17.4942 22.5172 17.52 22.34C17.5436 22.0405 17.5436 21.7396 17.52 21.44C17.4357 20.3734 17.4963 19.3003 17.7 18.25C17.7461 17.99 17.8753 17.7519 18.0683 17.5716C18.2612 17.3913 18.5074 17.2784 18.77 17.25C19.0231 17.2057 19.2837 17.2406 19.5163 17.3497C19.749 17.4589 19.9423 17.6371 20.07 17.86C20.5286 18.7502 20.7879 19.7295 20.83 20.73L21 21.94V22.4C21.0056 22.4679 21.0277 22.5335 21.0642 22.591C21.1008 22.6484 21.1509 22.6962 21.21 22.73C21.4565 22.8475 21.727 22.9058 22 22.9C22.52 22.9 23.15 22.82 23.51 22.81C23.87 22.8 24 22 24 22V16.61ZM12 1.89001L13.29 2.61001L13.91 2.93001C13.7506 3.04421 13.5797 3.14141 13.4 3.22001C12.89 3.45001 12.32 3.61001 11.82 3.79001L12 1.89001ZM7.85 10.4C7.86886 10.3319 7.89225 10.265 7.92 10.2C8.04207 9.93005 8.18939 9.67224 8.36 9.43001C8.63 9.00001 8.93 8.60001 9.23 8.20001C9.69 7.59001 10.18 7.01001 10.7 6.43001L11.4 5.59001L12.27 6.66001C12.85 7.29001 13.48 7.87001 14.04 8.52001C14.2754 8.78147 14.4926 9.05879 14.69 9.35001L15.07 9.96001H14.83C14.73 10 8 10.41 7.85 10.4ZM9.13 11.29H9.78H12.12L13.64 11.09H13.84V11.55C13.9 12.2 13.84 12.87 13.96 13.55C13.9836 13.7383 14.017 13.9252 14.06 14.11C13.06 14.11 12.13 14.19 11.16 14.25L9.16 14.39L9.27 11.77C9.27 11.77 9.15 11.48 9.13 11.29ZM22.25 22.16C22.1136 22.1711 21.9764 22.1711 21.84 22.16C21.8327 22.0751 21.8159 21.9912 21.79 21.91L21.74 20.61C21.7516 19.4323 21.4987 18.267 21 17.2C20.7731 16.7885 20.4246 16.4571 20.0021 16.2513C19.5797 16.0454 19.1039 15.9751 18.64 16.05C18.1485 16.0923 17.685 16.2971 17.3228 16.6321C16.9607 16.9671 16.7204 17.4133 16.64 17.9C16.4635 19.0634 16.4635 20.2467 16.64 21.41C16.64 21.55 16.64 21.76 16.69 21.97V22.17H16.44L15.19 22.3C15.14 21.79 15.09 21.24 15.03 20.71C14.97 20.18 14.92 19.87 14.84 19.5C14.745 18.7088 14.4565 17.9532 14 17.3C13.595 16.8396 13.0303 16.5501 12.42 16.49C11.8022 16.431 11.1791 16.5166 10.6 16.74C10.1376 16.8998 9.7498 17.2236 9.51 17.65C9.29034 18.1481 9.17465 18.6857 9.17 19.23C9.17 19.95 9.25 20.7 9.27 21.37C9.27 21.58 9.32 21.88 9.32 22.17H8.32V21.04C8.32158 19.8277 7.97445 18.6405 7.32 17.62C7.04972 17.2467 6.66711 16.9696 6.22811 16.8293C5.7891 16.6889 5.31671 16.6927 4.88 16.84C4.39145 16.9799 3.95389 17.2584 3.62025 17.6417C3.28661 18.025 3.07118 18.4968 3 19C2.791 20.1644 2.82505 21.3594 3.1 22.51C2.6 22.51 2.16 22.62 1.73 22.63C1.55052 22.6494 1.36948 22.6494 1.19 22.63V21.37C1.19 20.79 1.19 20.22 1.11 19.65C1 18.31 0.78 17.05 0.73 15.74L2.41 15.54L17 15.08L21.68 15C21.93 15 22.33 14.95 22.68 14.95H22.91C22.9323 15.0248 22.9591 15.0983 22.99 15.17C22.99 15.35 22.99 15.54 23.06 15.73C23.13 15.92 23.06 16.32 23.06 16.61L23.34 22C23.3209 22.0516 23.3209 22.1084 23.34 22.16C23.07 22.15 22.64 22.18 22.25 22.16Z" fill="black"/>
<path fill-rule="evenodd" clip-rule="evenodd" d="M4 12.86C4 12.86 3.94 12.68 3.9 12.55H4.1C4.41 12.47 4.74 12.38 5.1 12.31C5.30796 12.2692 5.51844 12.2425 5.73 12.23C5.77337 12.2341 5.81712 12.2296 5.85874 12.2167C5.90036 12.2039 5.93902 12.1829 5.97249 12.155C6.00596 12.1271 6.03357 12.0929 6.05374 12.0542C6.07391 12.0156 6.08623 11.9734 6.09 11.93C6.09555 11.8414 6.06623 11.7541 6.0083 11.6869C5.95038 11.6196 5.86844 11.5777 5.78 11.57C4.65065 11.4852 3.51513 11.5423 2.4 11.74C2.49082 11.4802 2.61164 11.2318 2.76 11L4.32 8.81L5.32 7.44C5.43 7.51 5.54 7.6 5.63 7.67L6.86 8.81C6.92232 8.87232 7.00685 8.90734 7.095 8.90734C7.18314 8.90734 7.26767 8.87232 7.33 8.81C7.39232 8.74767 7.42734 8.66314 7.42734 8.575C7.42734 8.48686 7.39232 8.40232 7.33 8.34L6.17 7C6.02441 6.85113 5.86725 6.71403 5.7 6.59C5.55121 6.48554 5.38541 6.40772 5.21 6.36C5.13308 6.34464 5.05372 6.34653 4.97763 6.36556C4.90155 6.38458 4.83063 6.42025 4.77 6.47C4.67 6.53 4.59 6.71 4.51 6.81L3.43 8.14C3.15 8.52 2.86 8.9 2.6 9.3C2.34193 9.70414 2.10494 10.1214 1.89 10.55C1.74173 10.8301 1.61471 11.1209 1.51 11.42C1.43551 11.6815 1.43551 11.9585 1.51 12.22C1.51886 12.2753 1.53952 12.328 1.57058 12.3746C1.60164 12.4212 1.64237 12.4606 1.69 12.49C1.84563 12.5154 2.00436 12.5154 2.16 12.49L2.49 12.44H2.94V12.95L3.15 14.37C3.15 14.87 3.9 14.7 3.98 14.29L4 12.86Z" fill="black"/>
</g>
<defs>
<clipPath id="clip0_1047_5914">
<rect width="24" height="24" fill="white"/>
</clipPath>
</defs>
</svg>
