<svg width="24" height="24" viewBox="0 0 24 24" fill="none" xmlns="http://www.w3.org/2000/svg">
<g clip-path="url(#clip0_1031_2964)">
<path d="M23.61 22.84C22.49 22.79 21.24 22.73 20.02 22.69H17.61C15.15 22.69 12.7 22.51 10.25 22.48C9.18 22.48 8.12 22.48 7.05 22.56L2.45 22.81C2.17164 22.8486 1.89102 22.8686 1.61 22.87H1.25V22.32C1.22523 22.0639 1.22523 21.8061 1.25 21.55C1.3 20.88 1.45 20.21 1.5 19.55C1.55462 18.5507 1.55462 17.5493 1.5 16.55C1.41 14.27 1.12 12 1.19 9.72C1.19 8.72 1.25 7.72 1.25 6.72V4.72C1.16 3.79 0.999996 2.89 0.999996 2C0.965553 1.6475 0.965553 1.29249 0.999996 0.939998C1.01487 0.863187 0.999143 0.783606 0.956177 0.718222C0.913211 0.652839 0.846402 0.606827 0.769996 0.589998C0.689107 0.575434 0.605746 0.593587 0.538238 0.640467C0.470731 0.687348 0.424603 0.759117 0.409996 0.839998C0.345698 1.22324 0.315579 1.61143 0.319996 2C0.319996 2.89 0.469996 3.8 0.489996 4.64V6.64C0.489996 7.64 0.389996 8.64 0.319996 9.64C0.169996 12.26 0.449996 14.89 0.429996 17.51C0.429996 18.16 0.429996 18.79 0.359996 19.43C0.289996 20.07 0.159996 20.76 0.109996 21.43C0.0774297 21.7625 0.0774297 22.0975 0.109996 22.43C0.0968464 22.6465 0.0968464 22.8635 0.109996 23.08C0.143056 23.2635 0.2222 23.4355 0.339996 23.58C0.550505 23.8077 0.833004 23.956 1.14 24C1.59495 24.0559 2.05504 24.0559 2.51 24L7.13 23.69C8.13 23.59 9.21 23.55 10.24 23.54C12.7 23.54 15.15 23.64 17.62 23.54H19.99C21.22 23.54 22.46 23.59 23.57 23.61C23.6612 23.6128 23.7498 23.5798 23.8171 23.5182C23.8843 23.4565 23.9248 23.3711 23.93 23.28C23.9435 23.2296 23.9455 23.1769 23.936 23.1256C23.9265 23.0743 23.9056 23.0258 23.8749 22.9837C23.8443 22.9415 23.8046 22.9067 23.7587 22.8819C23.7129 22.857 23.6621 22.8427 23.61 22.84Z" fill="black"/>
<path d="M3.16001 17C3.39946 17.0994 3.65211 17.1634 3.91001 17.19H4.33001C4.27031 17.5375 4.23024 17.888 4.21001 18.24V19.19V20.59C4.20607 20.6346 4.21096 20.6796 4.22441 20.7224C4.23786 20.7652 4.25959 20.8048 4.28838 20.8392C4.31716 20.8736 4.35244 20.9019 4.39218 20.9226C4.43192 20.9434 4.47536 20.9561 4.52001 20.96C4.56466 20.9639 4.60965 20.959 4.6524 20.9456C4.69516 20.9321 4.73485 20.9104 4.76921 20.8816C4.80357 20.8528 4.83192 20.8176 4.85265 20.7778C4.87337 20.7381 4.88607 20.6946 4.89001 20.65C4.98356 20.1044 5.04035 19.5532 5.06001 19V17.2C5.3523 17.235 5.64772 17.235 5.94001 17.2C6.11591 17.1809 6.28257 17.1114 6.42001 17C6.67435 16.722 6.83825 16.3732 6.89001 16C6.92521 15.3328 6.90514 14.6639 6.83001 14L6.75001 11.64C6.77009 11.3971 6.77009 11.1529 6.75001 10.91C6.7309 10.7244 6.65394 10.5495 6.53001 10.41C6.32346 10.1968 6.05323 10.0564 5.76001 10.01C5.48139 9.9706 5.19862 9.9706 4.92001 10.01C4.92001 9.01 5.05001 7.95 5.10001 6.92C5.11892 6.09538 5.08552 5.27039 5.00001 4.45C5.00859 4.39977 5.0061 4.34828 4.99272 4.29912C4.97934 4.24995 4.95538 4.20431 4.92253 4.16536C4.88967 4.12642 4.84871 4.09511 4.8025 4.07364C4.7563 4.05217 4.70596 4.04105 4.65501 4.04105C4.60406 4.04105 4.55372 4.05217 4.50751 4.07364C4.46131 4.09511 4.42034 4.12642 4.38749 4.16536C4.35464 4.20431 4.33068 4.24995 4.3173 4.29912C4.30391 4.34828 4.30143 4.39977 4.31001 4.45C4.31001 5.16 4.25001 5.86 4.21001 6.56V8C4.20528 8.68441 4.23531 9.36863 4.30001 10.05L3.39001 10.28H3.27001C3.22686 10.2446 3.1747 10.222 3.11938 10.2146C3.06407 10.2072 3.0078 10.2154 2.95689 10.2383C2.90599 10.2611 2.86246 10.2977 2.83121 10.344C2.79997 10.3902 2.78223 10.4442 2.78001 10.5L2.65001 13.36L2.50001 15.42C2.48755 15.6098 2.48755 15.8002 2.50001 15.99C2.50906 16.1661 2.56802 16.3361 2.67001 16.48C2.78368 16.6942 2.95294 16.8738 3.16001 17ZM3.42001 11L4.76001 10.75C4.98938 10.7259 5.22064 10.7259 5.45001 10.75C5.61014 10.7616 5.76005 10.833 5.87001 10.95L5.81001 11.6L5.74001 14V15.42C5.74001 15.64 5.67001 16.14 5.67001 16.14L4.07001 16C3.9268 16.0086 3.78321 16.0086 3.64001 16H3.53001C3.53775 15.8534 3.53775 15.7066 3.53001 15.56V13.51L3.38001 11H3.42001Z" fill="black"/>
<path d="M8.06997 10.66C8.43245 10.7871 8.81645 10.8415 9.19997 10.82C9.15306 11.1749 9.12635 11.5321 9.11997 11.89C9.12808 12.4688 9.1715 13.0465 9.24997 13.62C9.25252 13.6647 9.26387 13.7084 9.28336 13.7487C9.30284 13.789 9.33009 13.825 9.36354 13.8547C9.39698 13.8845 9.43597 13.9073 9.47826 13.9219C9.52055 13.9366 9.56531 13.9427 9.60997 13.94C9.65511 13.9388 9.69952 13.9284 9.74046 13.9094C9.7814 13.8903 9.818 13.8631 9.848 13.8294C9.87799 13.7956 9.90074 13.7561 9.91484 13.7132C9.92894 13.6703 9.93409 13.625 9.92997 13.58C9.92997 13.02 9.98997 12.46 9.98997 11.89C9.98997 11.53 9.98997 11.17 9.91997 10.81C10.1083 10.8027 10.2956 10.7793 10.48 10.74C10.738 10.6938 10.9735 10.5638 11.15 10.37C11.2972 10.1982 11.4062 9.99708 11.47 9.78C11.5461 9.40835 11.5796 9.02924 11.57 8.65C11.6499 8.02924 11.542 7.39877 11.26 6.84C11.1087 6.65669 10.9146 6.51339 10.6949 6.42271C10.4752 6.33204 10.2365 6.29676 9.99997 6.32H9.60997V4.22V2.58V0.960002C9.57416 0.720057 9.51039 0.485126 9.41997 0.260002C9.41204 0.213994 9.39443 0.170194 9.36832 0.131495C9.3422 0.0927954 9.30817 0.0600781 9.26847 0.0355041C9.22878 0.0109302 9.18432 -0.00494099 9.13803 -0.0110609C9.09175 -0.0171808 9.04469 -0.0134101 8.99997 2.0247e-06C8.95649 0.0115782 8.91574 0.0316699 8.88008 0.0591125C8.84442 0.0865551 8.81457 0.120803 8.79224 0.15987C8.76992 0.198938 8.75557 0.242048 8.75003 0.286701C8.74449 0.331355 8.74787 0.376664 8.75997 0.420002C8.79457 0.61137 8.8113 0.805538 8.80997 1C8.80997 1.54 8.71997 2.09 8.70997 2.61C8.69997 3.13 8.70997 3.71 8.76997 4.26C8.76997 4.97 8.87997 5.69 8.92997 6.4L8.27997 6.48C8.22118 6.4861 8.16511 6.50788 8.11761 6.54307C8.07012 6.57825 8.03294 6.62554 8.00997 6.68C7.98804 6.6265 7.95062 6.58078 7.90251 6.5487C7.8544 6.51663 7.79779 6.49967 7.73997 6.5C7.65776 6.5 7.57891 6.53266 7.52077 6.5908C7.46263 6.64894 7.42997 6.72778 7.42997 6.81V8.81V9.57C7.42888 9.72207 7.44908 9.87354 7.48997 10.02C7.53267 10.1632 7.60694 10.2951 7.70731 10.4058C7.80769 10.5166 7.93161 10.6035 8.06997 10.66ZM8.36997 7.2H9.94997C10.23 7.2 10.4 7.28 10.48 7.41C10.5266 7.5205 10.5471 7.64027 10.54 7.76C10.54 8.03 10.54 8.33 10.47 8.63C10.4 8.93 10.47 9.06 10.4 9.28C10.3991 9.39733 10.3644 9.51191 10.3 9.61C10.3 9.61 9.55997 9.7 9.29997 9.71H8.29997C8.26027 9.62154 8.23657 9.52674 8.22997 9.43V8.77L8.02997 7.1C8.07127 7.14728 8.12519 7.1818 8.18541 7.19952C8.24563 7.21723 8.30966 7.2174 8.36997 7.2Z" fill="black"/>
<path d="M12.87 16.42C13.0882 16.5673 13.3385 16.6599 13.6 16.69C13.8596 16.7103 14.1204 16.7103 14.38 16.69C14.38 16.84 14.32 16.98 14.3 17.13V18.27C14.2935 18.3146 14.2957 18.3602 14.3068 18.4039C14.3178 18.4477 14.3373 18.4888 14.3642 18.5251C14.3912 18.5613 14.425 18.5918 14.4637 18.615C14.5025 18.6381 14.5454 18.6534 14.59 18.66C14.6347 18.6666 14.6802 18.6643 14.7239 18.6533C14.7677 18.6422 14.8089 18.6227 14.8451 18.5958C14.8813 18.5688 14.9119 18.535 14.935 18.4963C14.9582 18.4576 14.9735 18.4146 14.98 18.37C15.0717 18.0625 15.1386 17.7482 15.18 17.43C15.195 17.1736 15.195 16.9164 15.18 16.66C15.4192 16.6547 15.6571 16.6245 15.89 16.57C16.1816 16.4969 16.4457 16.3405 16.65 16.12C16.779 15.9671 16.8591 15.779 16.88 15.58C16.8999 15.3504 16.8999 15.1196 16.88 14.89V10.79V9.72C16.8789 9.35287 16.8352 8.9871 16.75 8.63C16.6935 8.4269 16.5869 8.24123 16.44 8.09C16.3189 7.97895 16.1639 7.91201 16 7.9C15.7844 7.86936 15.5656 7.86936 15.35 7.9H14.85C14.9152 7.60051 14.9553 7.29613 14.97 6.99C14.9443 6.65737 14.8976 6.32671 14.83 6C14.8386 5.94977 14.8361 5.89828 14.8227 5.84912C14.8093 5.79996 14.7854 5.75431 14.7525 5.71536C14.7197 5.67642 14.6787 5.64512 14.6325 5.62365C14.5863 5.60217 14.536 5.59105 14.485 5.59105C14.4341 5.59105 14.3837 5.60217 14.3375 5.62365C14.2913 5.64512 14.2504 5.67642 14.2175 5.71536C14.1846 5.75431 14.1607 5.79996 14.1473 5.84912C14.1339 5.89828 14.1314 5.94977 14.14 6C14.14 6.35 14.06 6.7 14.06 7C14.06 7.3 14.13 7.65 14.17 8L13.17 8.08C13.0905 8.08995 13.0176 8.12938 12.9658 8.19049C12.9139 8.25159 12.8869 8.32992 12.89 8.41C12.8974 8.4758 12.9256 8.53752 12.9706 8.5861C13.0156 8.63469 13.075 8.66759 13.14 8.68C13.14 9 13.14 9.31 13.08 9.68C12.98 10.6 12.8 11.52 12.69 12.41C12.62 13.01 12.48 13.61 12.4 14.22C12.3799 14.503 12.3799 14.787 12.4 15.07C12.3937 15.3343 12.4308 15.5978 12.51 15.85C12.5741 16.07 12.6989 16.2676 12.87 16.42ZM13.37 14.27C13.37 13.67 13.52 13.06 13.56 12.46C13.62 11.56 13.75 10.62 13.8 9.7V8.7H15.34H15.81C15.8739 8.79086 15.9088 8.89894 15.91 9.01C15.9298 9.2763 15.9298 9.5437 15.91 9.81V10.81L15.8 12.57C15.8314 13.5339 15.8081 14.4988 15.73 15.46C15.4523 15.5087 15.1717 15.5388 14.89 15.55L14.04 15.6C13.8635 15.6234 13.684 15.5992 13.52 15.53C13.4944 15.5055 13.4741 15.4759 13.4604 15.4433C13.4466 15.4106 13.4397 15.3754 13.44 15.34C13.415 15.2281 13.3983 15.1144 13.39 15C13.3679 14.7573 13.3613 14.5135 13.37 14.27Z" fill="black"/>
<path d="M19 16.13C19.0323 16.3912 19.1322 16.6394 19.29 16.85C19.3474 16.9277 19.4209 16.992 19.5055 17.0386C19.59 17.0852 19.6837 17.113 19.78 17.12C19.983 17.1358 20.187 17.1358 20.39 17.12H20.63C20.6149 17.293 20.6149 17.467 20.63 17.64C20.63 17.92 20.72 18.2 20.76 18.49C20.7739 18.5714 20.8162 18.6453 20.8793 18.6986C20.9424 18.7518 21.0224 18.781 21.105 18.781C21.1876 18.781 21.2675 18.7518 21.3307 18.6986C21.3938 18.6453 21.4361 18.5714 21.45 18.49C21.4869 18.1982 21.5036 17.9041 21.5 17.61C21.4821 17.4472 21.4486 17.2864 21.4 17.13C21.6948 17.1208 21.9872 17.0738 22.27 16.99C22.6273 16.8933 22.9433 16.6826 23.17 16.39C23.3719 15.9344 23.3898 15.4185 23.22 14.95C23.132 14.6296 22.9863 14.328 22.79 14.06C22.6771 13.9245 22.5279 13.8239 22.36 13.77C22.1407 13.7445 21.9193 13.7445 21.7 13.77C21.715 13.4935 21.715 13.2165 21.7 12.94C21.7 11.94 21.54 11.03 21.54 10.07C21.54 8.74999 21.6 7.41 21.54 6.07C21.5219 5.15894 21.4181 4.2516 21.23 3.36C21.2395 3.31417 21.2382 3.26675 21.2262 3.22152C21.2141 3.17629 21.1916 3.13452 21.1605 3.09953C21.1294 3.06455 21.0906 3.03732 21.0471 3.02004C21.0036 3.00276 20.9566 2.99589 20.91 3C20.831 3.01688 20.7616 3.06395 20.7168 3.1312C20.672 3.19845 20.6552 3.28054 20.67 3.36C20.7697 4.02189 20.8165 4.69067 20.81 5.36C20.81 6.91 20.68 8.47999 20.68 10.03C20.68 11.03 20.88 11.95 20.95 12.91C20.9649 13.2065 20.9649 13.5035 20.95 13.8C20.4127 13.9439 19.864 14.0409 19.31 14.09C19.2698 14.0873 19.2294 14.0927 19.1913 14.1059C19.1533 14.1192 19.1183 14.14 19.0884 14.167C19.0585 14.1941 19.0344 14.2269 19.0175 14.2635C19.0006 14.3001 18.9912 14.3397 18.99 14.38C18.9906 14.4603 19.0189 14.538 19.07 14.6C19.031 14.659 19.0134 14.7296 19.02 14.8C19.06 15.18 19 15.68 19 16.13ZM21.36 14.59C21.6294 14.5645 21.9006 14.5645 22.17 14.59C22.27 14.72 22.46 15.83 22.28 15.88C21.8 16 20.67 16.06 20.28 16.11C20.1435 16.1206 20.0065 16.1206 19.87 16.11C19.8204 16.0091 19.7866 15.9012 19.77 15.79C19.72 15.41 19.77 15 19.7 14.65C20.25 14.68 20.83 14.59 21.37 14.59H21.36Z" fill="black"/>
</g>
<defs>
<clipPath id="clip0_1031_2964">
<rect width="24" height="24" fill="white"/>
</clipPath>
</defs>
</svg>
