<svg width="24" height="24" viewBox="0 0 24 24" fill="none" xmlns="http://www.w3.org/2000/svg">
<g clip-path="url(#clip0_1034_3988)">
<path fill-rule="evenodd" clip-rule="evenodd" d="M5.89 4.61C5.67123 4.6061 5.45886 4.68384 5.29431 4.82806C5.12975 4.97227 5.02483 5.17261 5 5.39C5.00394 5.52116 5.03589 5.64995 5.0937 5.76774C5.15152 5.88553 5.23386 5.98959 5.3352 6.07294C5.43654 6.15629 5.55454 6.21699 5.68128 6.25098C5.80801 6.28497 5.94055 6.29146 6.07 6.27C6.19098 6.24462 6.30507 6.19345 6.40449 6.11999C6.50391 6.04653 6.58632 5.95249 6.64611 5.8443C6.7059 5.73611 6.74166 5.6163 6.75096 5.49303C6.76026 5.36976 6.74288 5.24594 6.7 5.13C6.62806 4.97554 6.51375 4.84467 6.37036 4.75262C6.22697 4.66057 6.06039 4.61111 5.89 4.61Z" fill="black"/>
<path fill-rule="evenodd" clip-rule="evenodd" d="M10.72 4.61C10.5029 4.6086 10.293 4.68746 10.1306 4.83144C9.96815 4.97542 9.86466 5.17435 9.84 5.39C9.84394 5.52116 9.87588 5.64995 9.9337 5.76774C9.99151 5.88553 10.0739 5.9896 10.1752 6.07294C10.2765 6.15629 10.3945 6.21699 10.5213 6.25098C10.648 6.28497 10.7805 6.29146 10.91 6.27C11.031 6.24462 11.1451 6.19345 11.2445 6.11999C11.3439 6.04653 11.4263 5.95249 11.4861 5.8443C11.5459 5.73611 11.5817 5.6163 11.591 5.49303C11.6003 5.36977 11.5829 5.24594 11.54 5.13C11.4673 4.974 11.3515 4.8421 11.2061 4.74994C11.0608 4.65777 10.8921 4.60921 10.72 4.61Z" fill="black"/>
<path fill-rule="evenodd" clip-rule="evenodd" d="M15.81 18.22C15.7747 18.1843 15.7326 18.156 15.6863 18.1367C15.6399 18.1173 15.5902 18.1074 15.54 18.1074C15.4898 18.1074 15.4401 18.1173 15.3937 18.1367C15.3474 18.156 15.3053 18.1843 15.27 18.22L14.19 19.4C13.74 19.05 13.31 18.68 12.86 18.29C12.63 18.09 12.39 17.9 12.15 17.71L11.41 17.15C10.81 16.71 10.21 16.29 9.64 15.86C9.60506 15.8204 9.56226 15.7885 9.51433 15.7664C9.4664 15.7443 9.41438 15.7324 9.3616 15.7315C9.30881 15.7306 9.25642 15.7407 9.20776 15.7612C9.15909 15.7816 9.11523 15.812 9.07896 15.8504C9.04269 15.8887 9.01481 15.9342 8.99711 15.984C8.9794 16.0337 8.97224 16.0866 8.9761 16.1392C8.97997 16.1919 8.99475 16.2432 9.01953 16.2898C9.0443 16.3364 9.07852 16.3773 9.11999 16.41C9.59999 16.96 10.12 17.53 10.63 18.07C10.8616 18.2963 11.1053 18.5099 11.36 18.71C11.6108 18.9168 11.8747 19.1072 12.15 19.28C12.6263 19.5507 13.1208 19.7879 13.63 19.99L13.28 20.36C13.2343 20.4203 13.1716 20.4655 13.1 20.49C12.9153 20.5069 12.7293 20.4759 12.56 20.4C12.1784 20.2682 11.8074 20.1078 11.45 19.92C10.91 19.68 10.38 19.38 9.85 19.08C9.32 18.78 8.84999 18.46 8.31999 18.08C7.66264 17.6036 7.05909 17.057 6.52 16.45C6.46631 16.3793 6.38708 16.3323 6.29925 16.3193C6.21142 16.3062 6.12196 16.328 6.05 16.38C5.98081 16.4351 5.93585 16.5151 5.92464 16.6028C5.91344 16.6906 5.93688 16.7792 5.98999 16.85C7.30498 18.2828 8.77005 19.5701 10.36 20.69C10.9531 21.0543 11.5876 21.3464 12.25 21.56C12.4409 21.5992 12.6351 21.6193 12.83 21.62C13.23 21.57 13.61 21.49 13.61 21.43C13.7108 21.3867 13.8051 21.3295 13.89 21.26C14.0694 21.0605 14.2364 20.8501 14.39 20.63L15.85 18.73C15.9103 18.6562 15.9398 18.562 15.9323 18.467C15.9249 18.372 15.8811 18.2835 15.81 18.22Z" fill="black"/>
<path fill-rule="evenodd" clip-rule="evenodd" d="M13.17 22.08C12.62 22.16 12.75 22.49 12.65 22.57H11.97C11.4604 22.646 10.945 22.6761 10.43 22.66C10.1919 22.6607 9.96006 22.5835 9.77 22.44C9.69513 22.3939 9.63858 22.3232 9.61 22.24C9.61 22.07 9.53 21.88 9.49 21.71C9.46455 21.2498 9.36318 20.7971 9.19 20.37C9.08575 20.2504 8.95644 20.1553 8.81126 20.0913C8.66608 20.0274 8.50859 19.9962 8.35 20C7.87013 19.969 7.39259 19.9089 6.92 19.82C6.44426 19.7404 5.97348 19.6336 5.51 19.5C5.24342 19.4345 4.98258 19.3475 4.73 19.24C4.4933 19.14 4.26577 19.0195 4.05 18.88C3.72202 18.6696 3.40495 18.4426 3.1 18.2C2.82875 17.9805 2.59269 17.7209 2.4 17.43C2.27522 17.2389 2.1902 17.0246 2.15 16.8C2.07919 16.3906 2.04904 15.9753 2.06 15.56V12.65L1.94 8C2.77227 8.32568 3.62389 8.59953 4.49 8.82C4.93296 8.90493 5.38033 8.96502 5.83 9C6.28418 9.06017 6.74185 9.09024 7.2 9.09C8.26773 9.10525 9.33396 9.00466 10.38 8.79C10.4334 8.78951 10.4862 8.77776 10.5347 8.75552C10.5833 8.73327 10.6267 8.70103 10.6619 8.6609C10.6972 8.62077 10.7236 8.57365 10.7395 8.52262C10.7553 8.47159 10.7602 8.41779 10.7538 8.36474C10.7475 8.31169 10.73 8.26058 10.7025 8.21474C10.6751 8.1689 10.6382 8.12937 10.5945 8.09873C10.5507 8.06808 10.501 8.04701 10.4485 8.03689C10.396 8.02677 10.342 8.02783 10.29 8.04C9.42669 8.08176 8.5616 8.0684 7.7 8C6.9 7.93 6.11 7.8 5.31 7.69C4.15 7.53 3 7.41 1.87 7.2C1.87 6.94 1.94 6.68 2 6.43C2.10772 6.01736 2.27623 5.62305 2.5 5.26C3.00805 4.42982 3.73451 3.75525 4.6 3.31C5.17722 3.01122 5.78827 2.78292 6.42 2.63C7.22169 2.43328 8.04453 2.33588 8.87 2.34C9.69783 2.33148 10.5237 2.42212 11.33 2.61C11.8296 2.74176 12.3127 2.92962 12.77 3.17C13.4608 3.56866 14.1285 4.00602 14.77 4.48C14.851 4.53941 14.9522 4.56435 15.0515 4.54936C15.1508 4.53437 15.2402 4.48067 15.3 4.4C15.3307 4.36041 15.3531 4.31498 15.3658 4.26648C15.3784 4.21798 15.3811 4.16741 15.3736 4.11785C15.3661 4.06829 15.3487 4.02076 15.3223 3.97815C15.2958 3.93555 15.2611 3.89875 15.22 3.87C14.5843 3.32388 13.9164 2.8163 13.22 2.35C13.3843 2.22991 13.5352 2.09245 13.67 1.94C13.7751 1.80317 13.8656 1.65569 13.94 1.5C14.47 0.499999 14.43 0.409999 14.29 0.249999C14.15 0.0899986 14 -0.130001 13 0.749999C12.9035 0.834486 12.8193 0.932106 12.75 1.04C12.6708 1.1384 12.6099 1.25015 12.57 1.37C12.5039 1.56438 12.4603 1.76569 12.44 1.97C12.1834 1.83279 11.9197 1.70928 11.65 1.6C10.7642 1.30734 9.84207 1.13907 8.91 1.1C7.97088 1.06154 7.03113 1.15922 6.12 1.39C5.94 1.44 5.79 1.55 5.61 1.6C5.59767 1.43391 5.5675 1.26963 5.52 1.11C5.47326 0.994313 5.40919 0.886411 5.33 0.789999C5.26024 0.682414 5.17613 0.584848 5.08 0.499999C4.69 0.179999 3.94 -0.260001 3.7 0.199999C3.57 0.449999 3.7 0.419999 4.15 1.27C4.21671 1.40772 4.29711 1.53838 4.39 1.66C4.48842 1.77573 4.60291 1.87676 4.73 1.96C4.49 2.07 4.23 2.13 4 2.26C3.00644 2.85794 2.20217 3.72461 1.68 4.76C1.49501 5.12688 1.36046 5.51708 1.28 5.92C0.919997 7.54 1.38 5.64 0.889997 12.57C0.839997 13.07 0.799997 13.57 0.789997 14.07C0.779997 14.57 0.789997 15.07 0.789997 15.57C0.785671 16.0688 0.822462 16.5672 0.899997 17.06C0.989703 17.4346 1.14547 17.7901 1.36 18.11C1.58655 18.4195 1.85207 18.6985 2.15 18.94C2.38991 19.1183 2.64037 19.2819 2.9 19.43C2.70901 19.9844 2.57826 20.5577 2.51 21.14C2.46492 21.5488 2.46492 21.9612 2.51 22.37C2.53584 22.5964 2.5793 22.8204 2.64 23.04C2.70494 23.2189 2.81115 23.3799 2.95 23.51C3.25045 23.7634 3.61279 23.9325 4 24C4.44464 24.0601 4.89535 24.0601 5.34 24C5.56728 23.9461 5.78843 23.869 6 23.77C6.83 23.51 7.17 23.55 7.5 22.42C7.55697 22.2861 7.59403 22.1446 7.61 22C7.62545 21.8571 7.62545 21.7129 7.61 21.57C7.52264 21.2687 7.41232 20.9745 7.28 20.69C7.64 20.69 8 20.75 8.35 20.75C8.39568 20.7538 8.44165 20.7477 8.48478 20.7322C8.52791 20.7166 8.56721 20.692 8.6 20.66V21.85C8.59113 22.1276 8.60786 22.4055 8.65 22.68C8.70914 22.931 8.8333 23.1621 9.01 23.35C9.37599 23.7238 9.8678 23.9483 10.39 23.98C11.0034 23.9927 11.6156 23.922 12.21 23.77C12.4717 23.7293 12.7294 23.6658 12.98 23.58C13.1546 23.5222 13.3126 23.4227 13.44 23.29C13.5982 23.0844 13.6953 22.8383 13.72 22.58C13.68 22.27 13.57 22 13.17 22.08ZM6.58 20.7C6.48315 21.0291 6.40305 21.3628 6.34 21.7C6.32502 21.8797 6.32502 22.0603 6.34 22.24V22.77C6.16534 22.8353 5.98436 22.8822 5.8 22.91C5.61698 22.9252 5.43302 22.9252 5.25 22.91C4.95114 22.8884 4.65391 22.8483 4.36 22.79C3.89 22.68 3.64 22.79 3.51 20.86C3.48996 20.5036 3.48996 20.1464 3.51 19.79C3.77541 19.9344 4.05317 20.0549 4.34 20.15C4.63775 20.2498 4.94174 20.33 5.25 20.39C5.68 20.47 6.13 20.53 6.57 20.59C6.6 20.65 6.58 20.67 6.58 20.7Z" fill="black"/>
<path fill-rule="evenodd" clip-rule="evenodd" d="M23.14 8.75997C23.0447 8.59152 22.9269 8.43677 22.79 8.29997L21.79 7.23997C21 6.56208 20.1683 5.93419 19.3 5.35997C16.45 3.50997 16.47 3.07997 13 6.71997C12.43 7.32997 11.88 7.96997 11.36 8.62997C10.59 9.62997 9.89001 10.63 9.09001 11.58C9.05064 11.6093 9.01808 11.6468 8.99459 11.69C8.9711 11.7331 8.95722 11.7808 8.95392 11.8298C8.95062 11.8788 8.95798 11.9279 8.97547 11.9738C8.99297 12.0196 9.0202 12.0612 9.05528 12.0955C9.09037 12.1299 9.13248 12.1562 9.17872 12.1728C9.22496 12.1893 9.27423 12.1956 9.32314 12.1913C9.37205 12.187 9.41945 12.1721 9.46206 12.1477C9.50468 12.1233 9.54151 12.09 9.57001 12.05C10.36 11.36 11.12 10.63 11.86 9.86997C12.13 9.58997 12.4 9.30998 12.66 9.01998C12.92 8.72998 13.42 8.15997 13.8 7.71997C14.18 7.27997 14.61 6.71997 15.03 6.28997C15.5179 6.91951 16.0528 7.5112 16.63 8.05998C17.0665 8.43859 17.5239 8.79247 18 9.11997C18.7 9.60997 19.43 10.04 20.12 10.53C20.1545 10.5654 20.1957 10.5935 20.2412 10.6127C20.2867 10.6319 20.3356 10.6418 20.385 10.6418C20.4344 10.6418 20.4833 10.6319 20.5288 10.6127C20.5743 10.5935 20.6155 10.5654 20.65 10.53C20.6857 10.4946 20.714 10.4526 20.7333 10.4062C20.7527 10.3599 20.7626 10.3102 20.7626 10.26C20.7626 10.2098 20.7527 10.16 20.7333 10.1137C20.714 10.0674 20.6857 10.0253 20.65 9.98997C19.98 9.31997 19.31 8.63997 18.58 7.98997C18.15 7.61997 17.71 7.26997 17.26 6.92997C16.81 6.58997 16.17 6.13997 15.64 5.72997C15.9538 5.37769 16.2877 5.04381 16.64 4.72997C17.18 5.07997 17.72 5.44997 18.24 5.84997C18.76 6.24997 19.34 6.77997 19.88 7.24997C20.24 7.56997 20.6 7.87997 20.95 8.24997L21.89 9.18997L22.04 9.27997C21.9973 9.5944 21.8919 9.89705 21.73 10.17C21.22 11.09 20.33 11.96 19.89 12.76C19.8564 12.8018 19.832 12.8503 19.8185 12.9023C19.805 12.9542 19.8027 13.0084 19.8116 13.0614C19.8206 13.1143 19.8407 13.1647 19.8706 13.2093C19.9004 13.2539 19.9394 13.2917 19.9849 13.3201C20.0304 13.3486 20.0815 13.3671 20.1346 13.3744C20.1878 13.3817 20.2419 13.3776 20.2934 13.3625C20.3449 13.3474 20.3926 13.3215 20.4334 13.2866C20.4742 13.2517 20.5071 13.2085 20.53 13.16C21.06 12.41 22.04 11.62 22.65 10.74C22.9786 10.293 23.1885 9.77007 23.26 9.21997C23.2717 9.05762 23.2295 8.89594 23.14 8.75997Z" fill="black"/>
<path fill-rule="evenodd" clip-rule="evenodd" d="M7.85999 14.46L7.09999 14.79C6.58634 14.9348 6.0478 14.9689 5.51999 14.89C4.67036 14.7154 3.8514 14.4155 3.08999 14C3.04548 13.9757 2.99657 13.9606 2.94612 13.9555C2.89568 13.9504 2.84473 13.9555 2.79627 13.9704C2.74781 13.9853 2.70283 14.0098 2.66397 14.0423C2.62511 14.0749 2.59315 14.1149 2.56999 14.16C2.54591 14.2038 2.53094 14.2519 2.52597 14.3016C2.52101 14.3513 2.52616 14.4015 2.54111 14.4492C2.55606 14.4968 2.5805 14.541 2.61296 14.5789C2.64542 14.6169 2.68523 14.6479 2.72999 14.67C3.5249 15.2045 4.39424 15.619 5.30999 15.9C5.98111 16.0668 6.68027 16.0873 7.35999 15.96C7.60259 15.9214 7.84054 15.8577 8.06999 15.77C8.23323 15.7076 8.39052 15.6306 8.53999 15.54C8.67978 15.4489 8.81341 15.3487 8.93999 15.24C9.07013 15.1118 9.18736 14.9711 9.28999 14.82C9.57184 14.4734 9.71639 14.0353 9.69611 13.5891C9.67582 13.1428 9.49212 12.7196 9.17999 12.4C8.38495 11.7447 7.41465 11.3378 6.38999 11.23C5.86999 11.15 5.38999 11.07 4.80999 11.02C4.45174 10.9735 4.09119 10.9468 3.72999 10.94C3.68635 10.9359 3.64232 10.9408 3.60064 10.9544C3.55896 10.968 3.52052 10.99 3.48771 11.0191C3.45489 11.0481 3.42839 11.0836 3.40986 11.1233C3.39133 11.1631 3.38117 11.2062 3.37999 11.25C3.37589 11.2942 3.38073 11.3387 3.39422 11.3809C3.40771 11.4232 3.42958 11.4623 3.45851 11.4959C3.48745 11.5295 3.52286 11.5569 3.56263 11.5765C3.6024 11.5961 3.64572 11.6075 3.68999 11.61C4.0264 11.6515 4.36025 11.7116 4.68999 11.79C5.19999 11.9 5.68999 12.04 6.19999 12.18C6.952 12.3412 7.64443 12.7082 8.19999 13.24C8.30504 13.3645 8.36266 13.5221 8.36266 13.685C8.36266 13.8479 8.30504 14.0055 8.19999 14.13L7.85999 14.46Z" fill="black"/>
<path fill-rule="evenodd" clip-rule="evenodd" d="M19.25 13.4C18.4412 13.2059 17.5935 13.2511 16.81 13.53C16.6453 13.5973 16.4878 13.6811 16.34 13.78L16.08 13.98C16.0368 14.0011 15.9992 14.0319 15.97 14.07C15.9225 14.1159 15.8867 14.1726 15.8658 14.2353C15.8449 14.298 15.8395 14.3648 15.85 14.43C15.6326 15.053 15.4981 15.7019 15.45 16.36C15.405 16.9256 15.5157 17.4928 15.77 18C15.9315 18.2964 16.1889 18.5291 16.5 18.66C16.9166 18.8259 17.3746 18.8574 17.81 18.75C18.4351 18.5996 19.0042 18.2734 19.45 17.81C19.8704 17.3777 20.2092 16.8729 20.45 16.32C20.5689 16.0303 20.656 15.7285 20.71 15.42C20.7652 15.1663 20.7652 14.9037 20.71 14.65C20.6016 14.3296 20.4088 14.0443 20.1518 13.8243C19.8948 13.6044 19.5833 13.4578 19.25 13.4ZM19.49 15.35C19.4296 15.5238 19.3595 15.6941 19.28 15.86C19.1002 16.2795 18.8499 16.665 18.54 17C18.2696 17.2987 17.9244 17.5196 17.54 17.64C17.3663 17.6981 17.1822 17.7186 17 17.7C16.9368 17.6948 16.8755 17.6761 16.8203 17.645C16.7651 17.6139 16.7172 17.5713 16.68 17.52C16.466 17.1954 16.345 16.8185 16.33 16.43C16.3074 15.8378 16.368 15.2454 16.51 14.67C16.5893 14.6077 16.6729 14.5509 16.76 14.5C16.8629 14.4406 16.9742 14.3968 17.09 14.37C17.6022 14.243 18.1377 14.243 18.65 14.37C19.07 14.47 19.46 14.65 19.54 15.05C19.5387 15.152 19.5219 15.2532 19.49 15.35Z" fill="black"/>
</g>
<defs>
<clipPath id="clip0_1034_3988">
<rect width="24" height="24" fill="white"/>
</clipPath>
</defs>
</svg>
