<svg width="24" height="24" viewBox="0 0 24 24" fill="none" xmlns="http://www.w3.org/2000/svg">
<g clip-path="url(#clip0_1034_4006)">
<path fill-rule="evenodd" clip-rule="evenodd" d="M22 2.91999C21.8728 2.40644 21.6261 1.93018 21.28 1.52999C20.18 0.259995 17.61 -5.42402e-06 16.16 0.209995C15.4705 0.282612 14.8086 0.520514 14.2306 0.903509C13.6527 1.2865 13.1756 1.80329 12.84 2.40999C12.34 3.30999 12.49 9.92999 12.6 11.09C12.6 11.28 13 14.17 13.02 14.25C13.036 14.3598 13.0768 14.4645 13.1393 14.5562C13.2019 14.6479 13.2845 14.7241 13.3809 14.779C13.4773 14.834 13.585 14.8663 13.6957 14.8733C13.8065 14.8804 13.9174 14.8622 14.02 14.82C14.4368 14.4926 14.7952 14.097 15.08 13.65C15.5613 12.6346 15.9853 11.5929 16.35 10.53C16.5 10.18 16.2 9.75999 16.89 11.09C17.2037 11.986 17.6744 12.819 18.28 13.55C18.82 13.92 19.34 13.64 19.61 13.03C20.61 10.15 18.99 5.75999 19.35 3.43999C19.35 3.20999 19.85 3.29999 19.93 3.30999C20.4269 3.30768 20.9218 3.375 21.4 3.50999C22 3.77999 22.07 3.24999 22 2.91999ZM19.56 2.47999C19.4009 2.49943 19.2489 2.55681 19.1166 2.64731C18.9843 2.7378 18.8757 2.85876 18.8 2.99999C18.02 4.24999 19.8 11.45 18.67 12.77C18.4427 12.3206 18.265 11.8478 18.14 11.36C18.14 11.36 17 8.80999 16.94 8.75999C16.68 8.32999 16.1 8.27999 15.74 8.94999C15.2416 10.3889 14.6607 11.798 14 13.17C14 12.91 13.85 12.63 13.68 10.98C13.63 10.51 13.21 3.60999 13.6 2.82999C13.8665 2.33179 14.2492 1.90527 14.7158 1.58667C15.1824 1.26808 15.719 1.06682 16.28 0.999995C17.6385 0.800862 19.0257 0.991593 20.28 1.54999C20.6751 1.79573 20.9992 2.14045 21.22 2.54999C21.59 3.19999 20.79 2.31999 19.58 2.47999H19.56Z" fill="black"/>
<path fill-rule="evenodd" clip-rule="evenodd" d="M23.6 8.30998C23.47 7.11998 23.45 3.80998 22.6 3.18998C22.34 2.98998 22.18 3.78998 22.29 4.01998C22.4 4.24998 22.35 4.10998 22.48 4.91998C22.61 5.72998 23.04 11.7 23.03 14.26C23.03 15.26 22.74 20.59 22.31 21.39C19.69 22.86 1.84 23.39 1.38 21.39C0.860003 19 0.470003 6.31998 1 3.33998C1.00055 3.26972 0.97641 3.20149 0.931802 3.1472C0.887195 3.09291 0.824946 3.05601 0.755912 3.04291C0.686878 3.02982 0.615439 3.04138 0.554051 3.07556C0.492664 3.10975 0.445224 3.1644 0.420003 3.22998C-0.209997 6.22998 -0.119997 19.08 0.420003 21.65C0.530003 22.18 1.13 22.7 2.17 23.04C6.7 24.53 22.17 23.87 23.25 21.93C23.65 21.21 23.64 20.01 23.82 18.24C24.0764 14.9309 24.0027 11.6045 23.6 8.30998Z" fill="black"/>
<path fill-rule="evenodd" clip-rule="evenodd" d="M2.23001 3.07998C3.23001 3.07998 6.23001 3.21998 8.23001 3.15998C9.51001 3.15998 10.87 2.98998 12.23 2.92998C12.3096 2.92998 12.3859 2.89837 12.4421 2.84211C12.4984 2.78585 12.53 2.70955 12.53 2.62998C12.53 2.55042 12.4984 2.47411 12.4421 2.41785C12.3859 2.36159 12.3096 2.32998 12.23 2.32998C8.9073 1.92314 5.54579 1.95003 2.23001 2.40998C2.15109 2.42367 2.07953 2.46478 2.02796 2.52607C1.97638 2.58735 1.9481 2.66488 1.9481 2.74498C1.9481 2.82508 1.97638 2.90261 2.02796 2.9639C2.07953 3.02518 2.15109 3.0663 2.23001 3.07998Z" fill="black"/>
<path fill-rule="evenodd" clip-rule="evenodd" d="M3.43001 5.65997C3.50862 5.74447 3.6038 5.81186 3.70961 5.85794C3.81542 5.90402 3.92959 5.92781 4.04501 5.92781C4.16042 5.92781 4.27459 5.90402 4.3804 5.85794C4.48621 5.81186 4.58139 5.74447 4.66 5.65997C4.74712 5.49496 4.77381 5.30469 4.73546 5.12208C4.69711 4.93947 4.59614 4.776 4.45 4.65997C3.69 4.18997 2.75001 4.99997 3.43001 5.65997Z" fill="black"/>
<path fill-rule="evenodd" clip-rule="evenodd" d="M6.06001 5.37996C6.13691 5.46557 6.23097 5.53402 6.33606 5.58089C6.44116 5.62775 6.55494 5.65197 6.67001 5.65197C6.78508 5.65197 6.89886 5.62775 7.00396 5.58089C7.10905 5.53402 7.20311 5.46557 7.28001 5.37996C7.36632 5.2156 7.39355 5.02658 7.35714 4.84454C7.32073 4.6625 7.22289 4.49849 7.08001 4.37996C6.31001 3.90996 5.38001 4.68996 6.06001 5.37996Z" fill="black"/>
<path fill-rule="evenodd" clip-rule="evenodd" d="M8.92 5.37996C8.99861 5.46446 9.09379 5.53185 9.1996 5.57793C9.30541 5.62401 9.41958 5.6478 9.535 5.6478C9.65041 5.6478 9.76458 5.62401 9.87039 5.57793C9.9762 5.53185 10.0714 5.46446 10.15 5.37996C10.2352 5.21452 10.2608 5.02479 10.2226 4.84267C10.1843 4.66056 10.0845 4.49716 9.93999 4.37996C9.17999 3.90996 8.24 4.68996 8.92 5.37996Z" fill="black"/>
<path fill-rule="evenodd" clip-rule="evenodd" d="M1.21001 7.85C4.2024 8.15223 7.21762 8.15223 10.21 7.85C10.3002 7.85 10.3867 7.81417 10.4504 7.75041C10.5142 7.68665 10.55 7.60017 10.55 7.51C10.55 7.41982 10.5142 7.33334 10.4504 7.26958C10.3867 7.20582 10.3002 7.17 10.21 7.17C7.21875 6.82369 4.19639 6.84384 1.21001 7.23C1.12779 7.23 1.04894 7.26266 0.990806 7.32079C0.93267 7.37893 0.900009 7.45778 0.900009 7.54C0.900009 7.62221 0.93267 7.70106 0.990806 7.7592C1.04894 7.81734 1.12779 7.85 1.21001 7.85Z" fill="black"/>
</g>
<defs>
<clipPath id="clip0_1034_4006">
<rect width="24" height="24" fill="white"/>
</clipPath>
</defs>
</svg>
