<svg width="24" height="24" viewBox="0 0 24 24" fill="none" xmlns="http://www.w3.org/2000/svg">
<g clip-path="url(#clip0_1034_4034)">
<path d="M3.18001 7.07996L6.91001 7.19996H12.03C13.74 7.19996 15.44 7.12996 17.15 7.09996L20.45 7.02996H22.15C22.2412 7.03271 22.3298 6.99976 22.3971 6.93812C22.4643 6.87648 22.5048 6.79103 22.51 6.69996C22.5113 6.6553 22.5039 6.61082 22.488 6.56906C22.4721 6.5273 22.4482 6.48908 22.4175 6.45657C22.3869 6.42407 22.3501 6.39792 22.3094 6.37963C22.2686 6.36133 22.2247 6.35125 22.18 6.34996L20.45 6.22996L17.15 6.11996C15.44 6.11996 13.73 6.01996 12.03 6.01996C10.33 6.01996 8.61001 6.07996 6.90001 6.12996L3.19001 6.27996C2.79237 6.26776 2.3944 6.28783 2.00001 6.33996C1.69001 6.33996 1.53001 7.01996 2.00001 7.02996L3.18001 7.07996Z" fill="black"/>
<path d="M23.85 5.93998C23.8945 5.15276 23.8711 4.36317 23.78 3.57998C23.7167 3.17346 23.5477 2.7907 23.29 2.46998C23.0856 2.24043 22.8176 2.07683 22.52 1.99998C22.192 1.91733 21.8574 1.86379 21.52 1.83998C20.99 1.78998 20.46 1.75998 19.93 1.72998H17.57C15.24 1.72998 12.92 1.61998 10.57 1.59998C9.01 1.59998 7.45 1.59998 5.9 1.66998L2.9 1.88998C2.57 1.88998 2.19 1.88998 1.83 1.95998C1.56576 2.00886 1.30516 2.07568 1.05 2.15998C0.922354 2.19475 0.80862 2.26824 0.724452 2.37031C0.640285 2.47239 0.58982 2.59804 0.580002 2.72998C0.540002 3.35998 0.490002 3.99998 0.450002 4.71998C0.360002 6.29998 0.310002 7.87998 0.220002 9.46998C0.160002 10.42 0.0500021 11.36 0.0100021 12.31V13.56C0.0100021 14.14 0.150002 18.56 0.290002 20.1C0.312654 20.497 0.383164 20.8899 0.500002 21.27C0.5382 21.3888 0.611393 21.4934 0.710002 21.57C0.872789 21.6926 1.06056 21.778 1.26 21.82C1.59133 21.873 1.92507 21.9097 2.26 21.93L3.52 22L5.4 22.13L8.35 22.2C9.55 22.2 10.78 22.34 12 22.39H13.62C15.21 22.39 18.81 22.27 21.01 22.09C21.6059 22.0556 22.1979 21.972 22.78 21.84C22.9575 21.7891 23.1148 21.6842 23.23 21.54C23.4047 21.2879 23.524 21.0016 23.58 20.7C23.6483 20.1561 23.6783 19.6081 23.67 19.06L24 12.79L23.85 5.93998ZM22.52 19.05V20.35C22.5026 20.5083 22.4621 20.6633 22.4 20.81C22.28 20.81 22.06 20.88 21.84 20.9C20.99 21.01 19.63 21.09 18.22 21.16C16.46 21.24 14.63 21.29 13.62 21.33H12.62C11.22 21.33 9.79 21.17 8.41 21.18H5.49L3.65 21.09L2.4 21H1.59L1.36 20.95C1.36 20.89 1.3 20.82 1.28 20.74C1.18551 20.1336 1.1221 19.5228 1.09 18.91C1 17.42 0.840002 14 0.810002 13.51C0.780002 13.02 0.810002 12.45 0.810002 11.93C0.810002 11.12 0.920002 10.32 0.950002 9.49998C0.980002 8.67998 1.07 5.33998 1.1 4.74998C1.13 4.15998 1.16 3.41998 1.21 2.74998C1.26 2.74998 1.73 2.59998 1.94 2.57998C2.15 2.55998 2.66 2.57998 2.94 2.57998L5.89 2.39998H10.52C12.84 2.39998 15.17 2.56998 17.52 2.62998C18.29 2.62998 19.07 2.62998 19.85 2.70998C20.36 2.70998 20.85 2.77998 21.38 2.83998C21.6221 2.85634 21.8627 2.88976 22.1 2.93998C22.2539 2.96309 22.397 3.0329 22.51 3.13998C22.6981 3.41805 22.8022 3.74435 22.81 4.07998C22.87 4.73998 22.81 5.46998 22.81 5.97998L22.88 12.34V13.18L22.52 19.05Z" fill="black"/>
<path d="M3.54001 3.7C3.33643 3.62745 3.11327 3.63234 2.91308 3.71375C2.71288 3.79516 2.54964 3.94739 2.45447 4.14143C2.35931 4.33547 2.33887 4.55774 2.39706 4.76588C2.45526 4.97401 2.58801 5.15346 2.77001 5.27C3.53001 5.69 5.00001 4.53 3.54001 3.7Z" fill="black"/>
<path d="M6.7 3.76998C5.79 3.33998 5 4.59998 5.87 5.13998C6.09001 5.20849 6.3242 5.21775 6.54894 5.16684C6.77367 5.11592 6.981 5.00662 7.15 4.84998C7.36 4.60998 7.34 4.09998 6.7 3.76998Z" fill="black"/>
<path d="M8.54 5C8.66137 5.09916 8.80434 5.16841 8.95739 5.20216C9.11044 5.23591 9.26928 5.23321 9.4211 5.19428C9.57292 5.15536 9.71346 5.08129 9.83139 4.97806C9.94931 4.87483 10.0413 4.74533 10.1 4.6C10.1181 4.4644 10.1047 4.32646 10.0609 4.19688C10.017 4.0673 9.94389 3.94957 9.84716 3.85284C9.75043 3.75611 9.6327 3.68298 9.50312 3.63913C9.37354 3.59528 9.2356 3.58189 9.1 3.6C8.93222 3.58703 8.76467 3.62798 8.62178 3.71689C8.4789 3.80579 8.36813 3.938 8.30563 4.09425C8.24313 4.2505 8.23216 4.42263 8.27432 4.58555C8.31648 4.74847 8.40956 4.89367 8.54 5Z" fill="black"/>
<path fill-rule="evenodd" clip-rule="evenodd" d="M8.17 11.6C7.82 9.59996 7.71 9.59996 6.06 9.69996C4.58 9.77996 4.33 9.55996 4.06 10.84C4 11.16 3.98 11.69 3.92 12.15C3.87104 12.4334 3.91672 12.7251 4.05 12.98C4.5 13.76 5.67 13.74 6.47 13.76C7.94 13.8 8.29 13 8.17 11.6ZM7.09 12.31C7.09 12.61 7.09 12.55 6.49 12.63C4.28 12.72 4.79 12.75 4.89 10.43C5.58812 10.5379 6.29358 10.5914 7 10.59C7.11426 11.1558 7.14459 11.7353 7.09 12.31Z" fill="black"/>
<path fill-rule="evenodd" clip-rule="evenodd" d="M7.84 15.82C7.53 15.16 6.71 15.32 6.06 15.36C4.57 15.43 4.33 15.22 4.06 16.49C4 16.81 3.98 17.35 3.92 17.81C3.87104 18.0934 3.91672 18.3851 4.05 18.64C4.5 19.41 5.67 19.4 6.47 19.42C8.54 19.47 8.39 17.77 7.84 15.82ZM7.09 18C7.09 18.29 7.09 18.23 6.49 18.32C4.29 18.4 4.78 18.44 4.89 16.12C5.58987 16.208 6.29462 16.2514 7 16.25C7.11754 16.8255 7.14788 17.4154 7.09 18Z" fill="black"/>
<path fill-rule="evenodd" clip-rule="evenodd" d="M14.37 11.6C14.02 9.59996 13.91 9.59996 12.26 9.69996C10.78 9.77996 10.53 9.55996 10.26 10.84C10.2 11.16 10.17 11.69 10.11 12.15C10.0641 12.4345 10.1133 12.7262 10.25 12.98C10.69 13.76 11.86 13.74 12.67 13.76C14.14 13.8 14.48 13 14.37 11.6ZM13.28 12.31C13.28 12.61 13.28 12.55 12.69 12.63C10.48 12.72 10.98 12.75 11.09 10.43C11.7881 10.5379 12.4936 10.5914 13.2 10.59C13.3067 11.1568 13.3336 11.7357 13.28 12.31Z" fill="black"/>
<path fill-rule="evenodd" clip-rule="evenodd" d="M14 15.82C13.69 15.16 12.87 15.32 12.23 15.36C10.74 15.43 10.5 15.22 10.23 16.49C10.17 16.81 10.14 17.35 10.08 17.81C10.0341 18.0945 10.0833 18.3862 10.22 18.64C10.66 19.41 11.83 19.4 12.64 19.42C14.74 19.47 14.58 17.77 14 15.82ZM13.28 18C13.28 18.29 13.28 18.23 12.69 18.32C10.48 18.4 10.98 18.44 11.09 16.12C11.7892 16.218 12.494 16.2714 13.2 16.28C13.3069 16.8468 13.3339 17.4257 13.28 18Z" fill="black"/>
<path fill-rule="evenodd" clip-rule="evenodd" d="M20.57 11.6C20.21 9.59996 20.1 9.59996 18.45 9.69996C16.97 9.77996 16.72 9.55996 16.45 10.84C16.38 11.16 16.36 11.69 16.3 12.15C16.251 12.4334 16.2967 12.7251 16.43 12.98C16.88 13.76 18.05 13.74 18.85 13.76C20.33 13.8 20.68 13 20.57 11.6ZM19.48 12.31C19.43 12.61 19.48 12.55 18.88 12.63C16.67 12.72 17.18 12.75 17.28 10.43C17.9781 10.5379 18.6836 10.5914 19.39 10.59C19.5043 11.1558 19.5346 11.7353 19.48 12.31Z" fill="black"/>
<path fill-rule="evenodd" clip-rule="evenodd" d="M20.23 15.82C19.92 15.16 19.1 15.32 18.45 15.36C16.96 15.43 16.72 15.22 16.45 16.49C16.38 16.81 16.36 17.35 16.3 17.81C16.251 18.0934 16.2967 18.3851 16.43 18.64C16.88 19.41 18.05 19.4 18.85 19.42C20.93 19.47 20.78 17.77 20.23 15.82ZM19.48 18C19.43 18.29 19.48 18.23 18.88 18.32C16.68 18.4 17.18 18.44 17.28 16.12C17.9792 16.218 18.684 16.2714 19.39 16.28C19.5046 16.8457 19.5349 17.4253 19.48 18Z" fill="black"/>
</g>
<defs>
<clipPath id="clip0_1034_4034">
<rect width="24" height="24" fill="white"/>
</clipPath>
</defs>
</svg>
