<svg width="24" height="24" viewBox="0 0 24 24" fill="none" xmlns="http://www.w3.org/2000/svg">
<path d="M18.34 11.82C18.2622 11.8298 18.1908 11.8678 18.1392 11.9268C18.0876 11.9858 18.0594 12.0616 18.06 12.14V13.66C17.99 15.06 17.86 16.78 17.85 17.28C17.84 17.78 17.85 18.48 17.85 19.15C17.8384 19.5023 17.7387 19.8461 17.56 20.15C17.47 20.27 17.19 20.33 16.81 20.42C15.3967 20.7048 13.9613 20.8654 12.52 20.9C11.0793 20.9897 9.63349 20.9495 8.20001 20.78C7.92441 20.7691 7.65463 20.6974 7.41001 20.57C7.20416 20.362 7.05003 20.1085 6.96001 19.83C6.79471 19.3372 6.66767 18.8324 6.58001 18.32C6.37001 17.32 6.20001 16.32 6.08001 15.32C5.96001 14.32 5.90001 13.32 5.89001 12.26C5.87801 12.1985 5.84501 12.1431 5.79667 12.1033C5.74832 12.0635 5.68764 12.0417 5.62501 12.0417C5.56237 12.0417 5.50169 12.0635 5.45334 12.1033C5.405 12.1431 5.372 12.1985 5.36001 12.26C5.33182 13.304 5.35853 14.3488 5.44001 15.39C5.51001 16.39 5.63001 17.47 5.80001 18.49C5.86839 19.0508 5.9787 19.6057 6.13001 20.15C6.25864 20.5598 6.47732 20.9357 6.77001 21.25C7.12992 21.5151 7.55503 21.6775 8.00001 21.72C9.49663 21.9335 11.0111 21.9939 12.52 21.9C14.0287 21.8456 15.5287 21.6481 17 21.31C17.4666 21.2237 17.8958 20.9969 18.23 20.66C18.44 20.3313 18.5701 19.958 18.61 19.57C18.6593 18.8108 18.6593 18.0492 18.61 17.29C18.61 16.79 18.67 15.07 18.68 13.68V12.1C18.6776 12.0587 18.6667 12.0184 18.648 11.9815C18.6293 11.9446 18.6031 11.912 18.5712 11.8857C18.5393 11.8594 18.5023 11.84 18.4625 11.8287C18.4227 11.8174 18.381 11.8144 18.34 11.82Z" fill="black"/>
<path d="M19.86 7.51001C19.2746 7.24996 18.6406 7.11704 18 7.12001C17.1274 7.13312 16.2561 7.19321 15.39 7.30001C13.63 7.44001 11.9 7.46001 10.16 7.61001C9.41 7.68001 8.65 7.78001 7.9 7.92001C7.15 8.06001 6.6 8.15001 6 8.29001C5.57333 8.39001 5.14333 8.51001 4.71 8.65001C4.42627 8.71428 4.15105 8.81162 3.89 8.94001C3.81381 8.97945 3.74791 9.03616 3.69756 9.10562C3.6472 9.17507 3.61379 9.25534 3.6 9.34001C3.57511 9.64951 3.57511 9.96051 3.6 10.27C3.63274 10.7199 3.69285 11.1674 3.78 11.61C3.78599 11.652 3.80178 11.692 3.8261 11.7267C3.85043 11.7615 3.88259 11.79 3.92 11.81C3.94409 11.8638 3.9864 11.9073 4.03946 11.9329C4.09251 11.9585 4.15291 11.9646 4.21 11.95C5.38 11.71 6.54 11.5 7.71 11.35C8.87756 11.1977 10.0527 11.1109 11.23 11.09L15.23 10.98L18.47 11.07C18.67 11.07 19.02 11.17 19.31 11.18C19.5535 11.1975 19.7961 11.1343 20 11C20.2232 10.7697 20.3948 10.4946 20.5034 10.1928C20.612 9.8911 20.6552 9.56971 20.63 9.25001C20.6312 8.85054 20.56 8.45415 20.42 8.08001C20.3106 7.82708 20.111 7.62391 19.86 7.51001ZM19.49 10C19.49 10.09 18.73 10.1 18.49 10.1H15.21L11.21 10.35C10.0104 10.4141 8.81525 10.5443 7.63 10.74C6.53 10.92 5.45 11.15 4.35 11.4C4.35 11.1 4.27 10.78 4.24 10.46C4.22001 10.1603 4.22001 9.85968 4.24 9.56001C4.87367 9.40979 5.49806 9.22281 6.11 9.00001C6.75 8.88001 7.39 8.79001 8.03 8.69001C8.67 8.59001 9.49 8.50001 10.22 8.45001C11.96 8.34001 13.69 8.38001 15.45 8.28001C16.24 8.28001 17.12 8.10001 17.97 8.12001C18.4614 8.12782 18.9469 8.22965 19.4 8.42001C19.4325 8.47377 19.4593 8.53074 19.48 8.59001C19.5426 8.818 19.5729 9.05362 19.57 9.29001C19.581 9.52942 19.554 9.76905 19.49 10Z" fill="black"/>
<path d="M14.37 14C13.5911 14.2846 12.7692 14.4334 11.94 14.44C11.1021 14.5661 10.2482 14.539 9.42 14.36C9.27057 14.2801 9.15122 14.1537 9.08 14C8.99201 13.8601 8.93411 13.7035 8.91 13.54L8.85 12.83C8.85272 12.7906 8.84762 12.751 8.835 12.7136C8.82239 12.6761 8.8025 12.6416 8.77648 12.6118C8.75047 12.5821 8.71883 12.5578 8.6834 12.5403C8.64796 12.5228 8.60943 12.5125 8.57 12.51C8.49256 12.5069 8.41676 12.5328 8.35753 12.5828C8.2983 12.6328 8.25994 12.7031 8.25 12.78V13.63C8.28021 13.8824 8.35827 14.1268 8.48 14.35C8.61339 14.5918 8.81054 14.7924 9.05 14.93C9.99225 15.2308 10.9838 15.3463 11.97 15.27C12.9729 15.2915 13.9706 15.1218 14.91 14.77C15.1708 14.6001 15.3705 14.3514 15.48 14.06C15.5909 13.7183 15.6317 13.3578 15.6 13C15.6003 12.8006 15.5734 12.6021 15.52 12.41C15.4588 12.2429 15.3424 12.1018 15.19 12.01C14.9896 11.9032 14.767 11.845 14.54 11.84C14.1591 11.8367 13.7784 11.8568 13.4 11.9L11.76 12C11.39 12 11.03 12.1 10.67 12.17C10.14 12.27 9.62 12.4 9.08 12.53C9.04646 12.5371 9.01465 12.5508 8.98642 12.5703C8.95819 12.5897 8.93408 12.6146 8.91549 12.6434C8.89691 12.6722 8.8842 12.7044 8.87811 12.7381C8.87202 12.7719 8.87266 12.8065 8.88 12.84C8.88712 12.8735 8.9008 12.9053 8.92026 12.9336C8.93972 12.9618 8.96457 12.9859 8.99338 13.0045C9.0222 13.0231 9.0544 13.0358 9.08815 13.0419C9.12189 13.048 9.15651 13.0473 9.19 13.04C9.72 12.96 10.24 12.87 10.77 12.81C11.1017 12.7677 11.4356 12.7443 11.77 12.74H13.4H14.32C14.4282 12.7445 14.5356 12.7613 14.64 12.79V13.01C14.6605 13.2228 14.6605 13.4372 14.64 13.65C14.6256 13.7254 14.5936 13.7964 14.5467 13.8572C14.4998 13.918 14.4393 13.9669 14.37 14Z" fill="black"/>
<path d="M2.49 12.33C2.19 12.44 1.9 12.49 1.61 12.6C1.48245 12.643 1.35869 12.6965 1.24 12.76C1.1199 12.83 1.00614 12.9103 0.899999 13C0.631086 13.1905 0.377022 13.4011 0.139999 13.63C0.0828781 13.6704 0.0423051 13.7302 0.0257644 13.7982C0.00922376 13.8662 0.0178313 13.9379 0.0499992 14C0.0703619 14.0336 0.0973221 14.0626 0.129247 14.0854C0.161172 14.1083 0.197397 14.1244 0.235729 14.1328C0.274061 14.1412 0.313702 14.1418 0.352252 14.1344C0.390801 14.127 0.427457 14.1119 0.459999 14.09C0.759999 13.97 1.06 13.91 1.36 13.79C1.56253 13.7171 1.75691 13.6232 1.94 13.51C2.253 13.292 2.53842 13.0368 2.79 12.75C2.84397 12.7067 2.87996 12.6449 2.89104 12.5765C2.90213 12.5082 2.8875 12.4382 2.85 12.38C2.83026 12.3523 2.80507 12.3289 2.77597 12.3113C2.74687 12.2936 2.71448 12.2821 2.68077 12.2774C2.64707 12.2728 2.61277 12.275 2.57996 12.284C2.54716 12.2931 2.51655 12.3087 2.49 12.33Z" fill="black"/>
<path d="M23.86 12.5C23.6251 12.2687 23.3708 12.0579 23.1 11.87C22.9927 11.7906 22.879 11.7204 22.76 11.66C22.6413 11.5965 22.5176 11.543 22.39 11.5C22.1 11.39 21.81 11.34 21.51 11.23C21.4828 11.2092 21.4517 11.1942 21.4185 11.186C21.3853 11.1777 21.3507 11.1763 21.317 11.182C21.2832 11.1876 21.251 11.2001 21.2223 11.2187C21.1936 11.2372 21.169 11.2615 21.15 11.29C21.1125 11.3482 21.0979 11.4182 21.109 11.4865C21.12 11.5549 21.156 11.6167 21.21 11.66C21.4616 11.9468 21.747 12.2019 22.06 12.42C22.2431 12.5332 22.4375 12.6271 22.64 12.7C22.94 12.82 23.24 12.88 23.54 13C23.6057 13.0296 23.6798 13.0346 23.7488 13.0141C23.8178 12.9935 23.8772 12.9489 23.916 12.8882C23.9548 12.8276 23.9705 12.755 23.9602 12.6837C23.9499 12.6124 23.9144 12.5472 23.86 12.5Z" fill="black"/>
<path d="M3.84001 7.08002C3.8645 7.05583 3.88394 7.02702 3.89721 6.99527C3.91048 6.96351 3.91732 6.92943 3.91732 6.89502C3.91732 6.8606 3.91048 6.82652 3.89721 6.79476C3.88394 6.76301 3.8645 6.7342 3.84001 6.71002C3.65582 6.3778 3.4416 6.06315 3.20001 5.77002C3.08963 5.65299 2.96917 5.54591 2.84001 5.45002C2.71469 5.34867 2.58086 5.25834 2.44001 5.18002C2.13001 5.00002 1.80001 4.86002 1.44001 4.70002C1.37376 4.66137 1.29523 4.64957 1.22055 4.66703C1.14587 4.68449 1.08071 4.72989 1.03846 4.7939C0.996218 4.85791 0.98009 4.93567 0.993396 5.0112C1.0067 5.08673 1.04843 5.1543 1.11001 5.20002L1.88001 5.94002C1.99001 6.04002 2.09001 6.14002 2.21001 6.23002C2.31994 6.3254 2.43694 6.41232 2.56001 6.49002C2.85001 6.69002 3.15001 6.84002 3.44001 7.06002C3.4629 7.09066 3.49227 7.11587 3.52603 7.13385C3.55979 7.15184 3.5971 7.16216 3.6353 7.16407C3.67351 7.16598 3.71166 7.15943 3.74704 7.14491C3.78243 7.13038 3.81417 7.10822 3.84001 7.08002Z" fill="black"/>
<path d="M20.55 3.84001C20.33 4.06001 20.12 4.26001 19.92 4.48001C19.8377 4.58252 19.761 4.68934 19.69 4.80001C19.6202 4.90789 19.56 5.02166 19.51 5.14001C19.4089 5.43059 19.3287 5.72801 19.27 6.03001C19.2529 6.05991 19.2422 6.09303 19.2385 6.12728C19.2348 6.16153 19.2382 6.19617 19.2485 6.22904C19.2589 6.2619 19.2759 6.29228 19.2985 6.31825C19.3211 6.34423 19.3489 6.36526 19.38 6.38001C19.4425 6.41214 19.5151 6.41863 19.5823 6.39809C19.6496 6.37755 19.7061 6.3316 19.74 6.27001C19.94 6.04001 20.15 5.86001 20.34 5.62001L20.55 5.32001C20.6108 5.21725 20.6643 5.11032 20.71 5.00001C20.84 4.73001 20.93 4.47001 21.05 4.19001C21.0951 4.1237 21.112 4.0422 21.097 3.96344C21.082 3.88467 21.0363 3.81509 20.97 3.77001C20.9037 3.72492 20.8222 3.70802 20.7434 3.72302C20.6647 3.73803 20.5951 3.7837 20.55 3.85001V3.84001Z" fill="black"/>
<path d="M10.69 4.23001C10.8002 4.54321 10.9271 4.85031 11.07 5.15001C11.087 5.21265 11.1268 5.26666 11.1816 5.30143C11.2364 5.33621 11.3022 5.34924 11.3661 5.33796C11.43 5.32668 11.4874 5.29191 11.527 5.24048C11.5666 5.18905 11.5855 5.12468 11.58 5.06001C11.58 4.68001 11.65 4.33001 11.63 3.94001C11.6147 3.73147 11.5847 3.52429 11.54 3.32001C11.48 3.00001 11.38 2.70001 11.34 2.38001C11.3379 2.30183 11.3072 2.22712 11.2538 2.17001C11.2004 2.11289 11.1279 2.07732 11.05 2.07001C10.9721 2.06724 10.8961 2.09493 10.8383 2.14719C10.7804 2.19946 10.7452 2.27221 10.74 2.35001C10.6612 2.67838 10.611 3.01297 10.59 3.35001C10.5797 3.49316 10.5797 3.63686 10.59 3.78001C10.6073 3.93314 10.6408 4.08399 10.69 4.23001Z" fill="black"/>
</svg>
