<svg width="24" height="24" viewBox="0 0 24 24" fill="none" xmlns="http://www.w3.org/2000/svg">
<path d="M22.93 2.39999C22.9039 1.91951 22.7992 1.44656 22.62 0.999987C22.5278 0.788475 22.3653 0.615359 22.16 0.509987C21.3722 0.243267 20.5508 0.0884235 19.72 0.0499866C18.5242 -0.0150346 17.3258 -0.0150346 16.13 0.0499866C15.33 0.0499866 14.52 0.0499866 13.71 0.129987C12.9 0.209987 12.1 0.209987 11.29 0.279987C9.54999 0.419987 7.83999 0.619987 6.12999 0.719987C4.98796 0.791672 3.84278 0.79835 2.69999 0.739987C2.66101 0.741237 2.62269 0.750336 2.58731 0.76674C2.55193 0.783143 2.52022 0.806514 2.49408 0.835455C2.46794 0.864395 2.44791 0.89831 2.43518 0.935171C2.42245 0.972033 2.41728 1.01108 2.41999 1.04999C2.41104 1.12775 2.43183 1.20603 2.4782 1.2691C2.52458 1.33216 2.59309 1.37535 2.66999 1.38999C3.82713 1.48979 4.98924 1.51984 6.14999 1.47999C7.86999 1.47999 9.57999 1.29999 11.33 1.22999L16.14 1.16999C17.25 1.16999 18.47 1.16999 19.65 1.25999C20.3467 1.31832 21.0345 1.45587 21.7 1.66999C21.7592 2.06043 21.786 2.45512 21.78 2.84999C21.03 2.97999 19.78 3.06999 18.4 3.14999C13.14 3.41999 4.72999 3.40999 2.85999 3.59999C2.20999 3.66999 1.85999 3.45999 1.73999 3.07999C1.6062 2.4672 1.6062 1.83277 1.73999 1.21999C1.75088 1.13595 1.73178 1.05077 1.68605 0.979434C1.64033 0.908096 1.5709 0.855175 1.48999 0.829987C1.40157 0.835154 1.31866 0.874619 1.2589 0.939986C1.19913 1.00535 1.16724 1.09146 1.16999 1.17999C1.16999 1.51999 0.799992 3.03999 1.38999 3.84999C1.5697 4.07212 1.80496 4.24277 2.0719 4.34463C2.33885 4.44649 2.62799 4.47594 2.90999 4.42999V6.06999C2.90999 8.43999 3.10999 10.79 3.03999 13.16C2.96222 14.4385 2.94887 15.7201 2.99999 17C3.03529 17.9249 3.26709 18.8316 3.67999 19.66C3.84034 19.9622 4.05767 20.2304 4.31999 20.45C4.28034 20.9972 4.30046 21.5471 4.37999 22.09C4.45581 22.5109 4.60835 22.9142 4.82999 23.28C4.95418 23.484 5.12498 23.6556 5.32837 23.7807C5.53176 23.9059 5.76193 23.981 5.99999 24C6.27157 23.9792 6.52893 23.8702 6.7329 23.6897C6.93688 23.5092 7.07631 23.267 7.12999 23C7.22588 22.7122 7.28305 22.4129 7.29999 22.11C7.31994 21.8404 7.31994 21.5696 7.29999 21.3H7.64999C8.98226 21.3754 10.3177 21.3754 11.65 21.3C13.4 21.19 15.15 20.97 16.92 20.71V21.36C17.0039 21.8552 17.1803 22.3301 17.44 22.76C17.558 22.9529 17.7105 23.1224 17.89 23.26C18.4 23.63 18.98 23.63 19.41 22.73C19.4703 22.6008 19.5205 22.467 19.56 22.33C19.56 22.19 19.62 22.06 19.64 21.93C19.66 21.8 19.7 21.43 19.71 21.16C19.72 20.89 19.71 20.7 19.71 20.47C19.8012 20.4558 19.8914 20.4358 19.98 20.41C20.4465 20.2218 20.825 19.8648 21.04 19.41C21.3888 18.6653 21.5924 17.8609 21.64 17.04C21.6906 15.8898 21.6706 14.7377 21.58 13.59L21.21 4.58999C21.2133 4.50087 21.1835 4.41369 21.1262 4.34533C21.0689 4.27698 20.9883 4.23231 20.9 4.21999C20.8109 4.23692 20.7311 4.28599 20.6758 4.35789C20.6205 4.42979 20.5935 4.51951 20.6 4.60999L20.8 13.67C20.8649 14.7724 20.8649 15.8776 20.8 16.98C20.7562 17.6374 20.5829 18.2797 20.29 18.87C20.2019 19.0194 20.08 19.146 19.9341 19.2398C19.7883 19.3336 19.6225 19.3918 19.45 19.41C18.77 19.53 17.98 19.41 17.45 19.41C15.45 19.68 13.55 19.91 11.59 20.04C10.2943 20.1101 8.99571 20.1101 7.69999 20.04C6.95491 20.0692 6.20971 19.9849 5.48999 19.79C5.07046 19.6484 4.71565 19.361 4.48999 18.98C4.14554 18.3194 3.94449 17.5936 3.89999 16.85C3.77999 15.59 3.89999 14.22 3.89999 13.09V12.35C4.45999 12.35 5.01999 12.28 5.57999 12.26H10.24L13.5 12.1C14.59 12.04 15.67 11.95 16.75 11.93C17.83 11.91 18.61 11.93 19.53 12.01C19.6175 12.01 19.7015 11.9752 19.7633 11.9133C19.8252 11.8514 19.86 11.7675 19.86 11.68C19.8721 11.5903 19.8501 11.4994 19.7982 11.4253C19.7463 11.3511 19.6684 11.2993 19.58 11.28C18.0247 11.0402 16.4537 10.9165 14.88 10.91H12.54C11.76 10.91 10.97 10.98 10.2 11.01C8.86999 11.13 7.53999 11.2 6.19999 11.33C5.41999 11.41 4.64999 11.51 3.86999 11.64C3.69999 9.84999 3.53999 7.99999 3.47999 6.05999V4.40999C5.74999 4.34999 11.78 4.51999 16.48 4.40999C18.4617 4.45431 20.4433 4.31707 22.4 3.99999C22.514 3.96167 22.6163 3.89461 22.6968 3.80528C22.7774 3.71595 22.8336 3.60736 22.86 3.48999C22.9536 3.1346 22.9774 2.76443 22.93 2.39999ZM17.53 20.64C17.95 20.58 18.53 20.64 19.07 20.64C19.07 20.79 19.02 20.95 18.99 21.1C18.9439 21.3061 18.8872 21.5097 18.82 21.71L18.6 22.18C18.49 22.37 18.37 22.26 18.25 22.18C17.9581 21.9155 17.7263 21.5915 17.57 21.23L17.44 20.73L17.53 20.64ZM5.16999 21C5.63726 21.1644 6.12541 21.2621 6.61999 21.29C6.63031 21.4765 6.63031 21.6635 6.61999 21.85C6.57828 22.0966 6.5008 22.3358 6.38999 22.56C6.36396 22.6239 6.31737 22.6772 6.2576 22.7116C6.19783 22.746 6.1283 22.7595 6.05999 22.75C5.9708 22.7458 5.88379 22.721 5.80574 22.6776C5.72768 22.6343 5.6607 22.5735 5.60999 22.5C5.38961 22.2378 5.2292 21.9307 5.13999 21.6C5.06999 21.36 5.01999 21.12 4.96999 20.88L5.16999 21Z" fill="black"/>
<path d="M9.22 7.25997C9.37628 7.69077 9.62189 8.08366 9.94073 8.41283C10.2596 8.74201 10.6444 9.00003 11.07 9.16997C11.8399 9.43542 12.6706 9.47017 13.46 9.26997C13.9041 9.18248 14.3281 9.01291 14.71 8.76997C14.9922 8.55629 15.2357 8.29586 15.43 7.99997C15.6793 7.61178 15.7788 7.14615 15.71 6.68997C15.6843 6.52125 15.6217 6.36027 15.5266 6.21853C15.4315 6.07679 15.3064 5.95777 15.16 5.86997C14.9766 5.76444 14.7712 5.70283 14.56 5.68997C14.21 5.68997 13.8 5.74997 13.56 5.74997L12 5.90997C11.45 5.97997 10.9 6.03997 10.34 6.12997C10.0972 6.16554 9.85679 6.21563 9.62 6.27997C9.54389 6.30324 9.47917 6.35404 9.43849 6.42245C9.39781 6.49087 9.38409 6.57198 9.4 6.64997C9.4 6.64997 9.4 6.64997 9.4 6.70997C9.36393 6.70066 9.32608 6.70066 9.29 6.70997C9.20954 6.77484 9.1573 6.86834 9.14425 6.97088C9.1312 7.07341 9.15835 7.17701 9.22 7.25997ZM10.66 6.84997H12.08H13.5H14.36C14.4814 6.84791 14.6015 6.87536 14.71 6.92997L14.64 7.16997C14.4916 7.40085 14.2934 7.59561 14.06 7.73997C13.8116 7.88991 13.5419 8.00119 13.26 8.06997C12.6211 8.31146 11.9247 8.35672 11.26 8.19997C10.9331 8.10339 10.63 7.93967 10.37 7.71926C10.11 7.49886 9.89881 7.22663 9.75 6.91997C10.052 6.88137 10.3557 6.858 10.66 6.84997Z" fill="black"/>
<path d="M9.15999 15.48C9.32321 15.9041 9.57028 16.291 9.88643 16.6174C10.2026 16.9439 10.5813 17.2032 11 17.38C11.7744 17.6418 12.6082 17.6731 13.4 17.47C13.8467 17.3913 14.2722 17.221 14.65 16.97C14.9351 16.7666 15.1765 16.5082 15.36 16.21C15.6165 15.8285 15.7201 15.3644 15.65 14.91C15.6199 14.7427 15.5555 14.5835 15.4609 14.4424C15.3662 14.3012 15.2433 14.1812 15.1 14.09C14.9155 13.987 14.7107 13.9255 14.5 13.91C14.1657 13.9173 13.832 13.9406 13.5 13.98L12 14.12C11.45 14.2 10.89 14.24 10.34 14.34C10.0972 14.3755 9.85678 14.4256 9.61999 14.49C9.54254 14.5112 9.47634 14.5616 9.4353 14.6306C9.39427 14.6996 9.38161 14.7818 9.39999 14.86C9.39531 14.8797 9.39531 14.9002 9.39999 14.92C9.35691 14.928 9.31601 14.945 9.27999 14.97C9.2066 15.0299 9.15505 15.1124 9.13335 15.2046C9.11165 15.2968 9.12101 15.3936 9.15999 15.48ZM10.6 15.05H12L13.41 15.1H14.28C14.4013 15.0991 14.5211 15.1265 14.63 15.18L14.55 15.41C14.4148 15.6466 14.2265 15.8485 14 16C13.7516 16.1499 13.4819 16.2612 13.2 16.33C12.56 16.5662 11.8652 16.6114 11.2 16.46C10.8694 16.3555 10.5647 16.182 10.3061 15.951C10.0476 15.72 9.84096 15.4368 9.69999 15.12C9.99999 15.08 10.3 15.06 10.6 15.05Z" fill="black"/>
</svg>
