<svg width="24" height="24" viewBox="0 0 24 24" fill="none" xmlns="http://www.w3.org/2000/svg">
<g clip-path="url(#clip0_1035_4776)">
<path fill-rule="evenodd" clip-rule="evenodd" d="M23.52 9.07999C23.31 8.48999 21.52 8.38999 20.91 8.47999C20.44 8.53999 20.39 9 20.71 9.1C20.86 9.15 20.88 9.1 21.07 9.1C21.5696 9.08552 22.0692 9.12576 22.56 9.22C22.72 9.22 22.86 9.41999 22.93 9.36999C23.42 10.93 23.55 13.89 22.59 15.24C22.37 15.56 21.35 15.18 20.77 15.31C20.19 15.44 20.16 15.72 20.08 16.16C19.9 17.11 20.08 19.82 19.77 20.16C19.46 20.5 17.77 20.63 17.11 20.71C12.99 21.22 7.44 20.49 2.99 20.94C2.7209 20.973 2.44783 20.9391 2.19492 20.8414C1.94202 20.7438 1.71708 20.5853 1.54 20.38C0.899998 19.36 1.15 6.5 1.42 4.08999C1.69 3.70999 3.62 3.50999 4.04 3.45999C6.8144 3.08219 9.61008 2.88179 12.41 2.85999C18.87 2.85999 19.76 2.66999 19.99 3.65999C20.228 4.91577 20.3419 6.19192 20.33 7.46999C20.33 7.56017 20.3658 7.64665 20.4296 7.71041C20.4933 7.77417 20.5798 7.80999 20.67 7.80999C20.7602 7.80999 20.8467 7.77417 20.9104 7.71041C20.9742 7.64665 21.01 7.56017 21.01 7.46999C21.0418 6.13004 20.9414 4.79021 20.71 3.46999C20.33 1.73999 18.71 2.05999 12.41 1.96999C9.57624 1.94733 6.74389 2.10431 3.93 2.43999C2.88 2.57999 0.999998 2.71999 0.479998 3.64999C0.0799979 4.39999 -0.420002 19.46 0.589998 20.94C0.88157 21.318 1.26588 21.6142 1.70566 21.7999C2.14543 21.9857 2.62574 22.0546 3.1 22C7.32 21.56 12.96 22.19 17.24 21.58C18.13 21.45 19.71 21.39 20.39 20.72C21.07 20.05 20.79 18.27 20.83 16.87C20.83 15.87 20.83 16 21.34 16.04C22.03 16.1 22.81 16.23 23.22 15.63C24.29 14.05 24.13 10.85 23.52 9.07999Z" fill="black"/>
<path fill-rule="evenodd" clip-rule="evenodd" d="M13.69 11C13.59 11.12 13.69 11.23 13.76 11.37C13.83 11.51 13.83 11.37 13.91 11.44C14.18 11.44 14.48 11.58 14.91 11.63C14.91 11.63 15.14 12.63 15.14 12.69C15.14 12.94 15.28 12.98 15.44 12.93C15.65 13.03 15.9 13.03 15.84 12.62C15.84 12.54 15.96 11.9 15.99 11.62C17.65 11.33 17.57 10.76 15.89 10.62C15.8729 10.2531 15.7952 9.89154 15.66 9.55C15.6321 9.5166 15.5968 9.49017 15.5568 9.47281C15.5169 9.45545 15.4735 9.44764 15.43 9.45C15.08 9.37 14.91 10.33 14.88 10.63C14.465 10.684 14.0625 10.8092 13.69 11Z" fill="black"/>
<path fill-rule="evenodd" clip-rule="evenodd" d="M6.55 10.68C5.38 10.95 5.34 10.81 5.22 11.15C5.22 11.25 5.22 11.37 5.41 11.5C5.78217 11.6227 6.16332 11.7163 6.55 11.78C7.24732 11.79 7.94104 11.6783 8.6 11.45C8.64884 11.4585 8.69894 11.4561 8.74679 11.4432C8.79464 11.4303 8.83909 11.407 8.87701 11.3751C8.91494 11.3432 8.94543 11.3034 8.96634 11.2585C8.98726 11.2135 8.9981 11.1646 8.9981 11.115C8.9981 11.0654 8.98726 11.0165 8.96634 10.9715C8.94543 10.9266 8.91494 10.8868 8.87701 10.8548C8.83909 10.8229 8.79464 10.7997 8.74679 10.7868C8.69894 10.7738 8.64884 10.7715 8.6 10.78C7.92643 10.6371 7.23428 10.6033 6.55 10.68Z" fill="black"/>
<path fill-rule="evenodd" clip-rule="evenodd" d="M12.74 13.5C14 14.84 16.96 15.58 18.33 13.94C18.7701 13.3238 19.0645 12.6156 19.191 11.869C19.3174 11.1224 19.2726 10.3568 19.06 9.63C18.7909 8.8749 18.2514 8.24637 17.5459 7.86589C16.8403 7.4854 16.0188 7.37998 15.24 7.57C11.12 8.15 10.85 12.28 8.13001 13.57C6.13001 14.51 4.48001 14.28 3.78001 12.2C3.15001 10.38 4.00001 8.27 6.10001 8.25C6.80707 8.21965 7.51227 8.34346 8.16671 8.61283C8.82116 8.88221 9.40918 9.2907 9.89001 9.81C9.93851 9.86573 10.0059 9.90161 10.0792 9.91075C10.1525 9.9199 10.2266 9.90166 10.2873 9.85953C10.348 9.81741 10.3911 9.75437 10.4082 9.68249C10.4253 9.61061 10.4152 9.53494 10.38 9.47C9.85784 8.84464 9.20485 8.34144 8.46707 7.99588C7.7293 7.65032 6.9247 7.4708 6.11001 7.47C0.690006 7.31 1.74001 17.73 8.61 14.57C11.72 13.12 11.92 9.18 15.41 8.57C15.7157 8.47582 16.038 8.44792 16.3554 8.48816C16.6728 8.52841 16.9779 8.63587 17.2505 8.80337C17.523 8.97088 17.7567 9.19458 17.936 9.45956C18.1152 9.72453 18.2359 10.0247 18.29 10.34C18.4785 11.3812 18.2601 12.4551 17.68 13.34C16.68 14.6 14.24 13.97 13.23 12.96C13.1584 12.895 13.0639 12.8611 12.9673 12.8658C12.8707 12.8705 12.78 12.9134 12.715 12.985C12.65 13.0566 12.6162 13.1511 12.6208 13.2477C12.6255 13.3443 12.6684 13.435 12.74 13.5Z" fill="black"/>
</g>
<defs>
<clipPath id="clip0_1035_4776">
<rect width="24" height="24" fill="white"/>
</clipPath>
</defs>
</svg>
