<svg width="24" height="24" viewBox="0 0 24 24" fill="none" xmlns="http://www.w3.org/2000/svg">
<g clip-path="url(#clip0_1050_8079)">
<path fill-rule="evenodd" clip-rule="evenodd" d="M18.1 12.06L18.83 12.48C18.8933 12.5016 18.9617 12.5029 19.0258 12.4836C19.0898 12.4644 19.1462 12.4255 19.187 12.3726C19.2278 12.3196 19.251 12.2552 19.2534 12.1884C19.2557 12.1215 19.237 12.0557 19.2 12L18.45 11.44C18.1967 11.3122 17.9277 11.2181 17.65 11.16C17.6599 11.1004 17.6599 11.0396 17.65 10.98C17.6427 10.9178 17.6258 10.8571 17.6 10.8C17.28 9.98998 17.16 9.99998 17 9.99998C16.84 9.99998 16.68 9.99998 16.44 10.84C16.4301 10.9063 16.4301 10.9737 16.44 11.04C16.441 11.0566 16.441 11.0733 16.44 11.09C16.3968 11.085 16.3532 11.085 16.31 11.09C16.0056 11.1464 15.7256 11.2943 15.5076 11.5142C15.2896 11.734 15.1439 12.0151 15.09 12.32C15.0322 12.5345 15.0238 12.7593 15.0653 12.9775C15.1069 13.1958 15.1974 13.4017 15.33 13.58C15.8107 14.0726 16.4208 14.4192 17.09 14.58C17.2622 14.636 17.4295 14.7062 17.59 14.79C17.6535 14.8206 17.708 14.867 17.7483 14.9248C17.7885 14.9826 17.8133 15.0498 17.82 15.12C17.82 15.21 17.74 15.26 17.67 15.31C17.5476 15.3932 17.4169 15.4636 17.28 15.52C16.868 15.6984 16.4149 15.7607 15.97 15.7C15.7621 15.6755 15.5639 15.5983 15.3942 15.4758C15.2244 15.3533 15.0888 15.1896 15 15C14.9826 14.9559 14.9564 14.9158 14.923 14.8822C14.8896 14.8485 14.8497 14.822 14.8057 14.8042C14.7618 14.7865 14.7147 14.7778 14.6673 14.7788C14.6199 14.7798 14.5732 14.7904 14.53 14.81C14.4847 14.8275 14.4434 14.854 14.4086 14.8879C14.3738 14.9218 14.3462 14.9624 14.3275 15.0073C14.3089 15.0521 14.2994 15.1003 14.2999 15.1489C14.3003 15.1975 14.3105 15.2455 14.33 15.29C14.4248 15.5393 14.5708 15.7659 14.7585 15.9554C14.9463 16.1449 15.1716 16.2929 15.42 16.39C15.8493 16.5563 16.3121 16.618 16.77 16.57C16.6651 16.7214 16.5811 16.8862 16.52 17.06C16.5046 17.1392 16.5046 17.2207 16.52 17.3C16.5057 17.376 16.5057 17.454 16.52 17.53C16.82 18.31 16.95 18.41 17.18 18.38C17.41 18.35 17.48 18.38 17.68 17.47C17.6899 17.4003 17.6899 17.3296 17.68 17.26C17.6946 17.1907 17.6946 17.1192 17.68 17.05C17.6073 16.8764 17.5204 16.7092 17.42 16.55C17.42 16.55 17.42 16.5 17.42 16.48C17.42 16.46 17.56 16.48 17.62 16.48C17.9693 16.3844 18.2935 16.2137 18.57 15.98C18.712 15.8605 18.8247 15.71 18.8992 15.5401C18.9738 15.3702 19.0083 15.1854 19 15C19.0082 14.7709 18.9628 14.5431 18.8673 14.3348C18.7718 14.1264 18.6289 13.9433 18.45 13.8C17.9205 13.464 17.3443 13.2079 16.74 13.04C16.45 12.93 16.15 12.82 16.21 12.44C16.3 11.53 18.08 12.05 18.1 12.06Z" fill="black"/>
<path fill-rule="evenodd" clip-rule="evenodd" d="M3.44 2.59998C3.39794 2.59585 3.35548 2.60009 3.31507 2.61246C3.27467 2.62483 3.23711 2.64508 3.20457 2.67204C3.17202 2.69901 3.14515 2.73215 3.12548 2.76955C3.10582 2.80696 3.09376 2.84789 3.09 2.88998C2.87265 3.87911 2.719 4.88117 2.63 5.88998C2.60504 6.32629 2.60504 6.76367 2.63 7.19998C2.63 7.62998 2.63 8.05998 2.68 8.49998C2.76 9.49998 2.89 10.5 2.99 11.5C3.00436 11.5864 3.04892 11.665 3.11576 11.7216C3.1826 11.7783 3.26738 11.8094 3.355 11.8094C3.44262 11.8094 3.5274 11.7783 3.59424 11.7216C3.66108 11.665 3.70564 11.5864 3.72 11.5C3.72 10.5 3.81 9.49998 3.84 8.49998V7.21998V5.94998C3.84 4.94998 3.74 3.94998 3.77 2.94998C3.77273 2.90499 3.76622 2.85992 3.75086 2.81755C3.7355 2.77517 3.71163 2.73639 3.68071 2.7036C3.64979 2.6708 3.61248 2.64469 3.57108 2.62687C3.52968 2.60905 3.48507 2.5999 3.44 2.59998Z" fill="black"/>
<path fill-rule="evenodd" clip-rule="evenodd" d="M5.46001 2.46C5.41795 2.45587 5.37549 2.46011 5.33509 2.47248C5.29468 2.48485 5.25712 2.5051 5.22458 2.53206C5.19204 2.55902 5.16516 2.59216 5.14549 2.62957C5.12583 2.66697 5.11377 2.7079 5.11001 2.75L4.80001 5.12C4.80001 5.67 4.74001 6.21 4.73001 6.76C4.73001 7.6 4.80001 8.43 4.84001 9.26C4.83731 9.3086 4.84423 9.35726 4.86037 9.40319C4.87651 9.44911 4.90156 9.49141 4.93407 9.52763C4.96659 9.56386 5.00593 9.59332 5.04985 9.61432C5.09377 9.63532 5.1414 9.64744 5.19001 9.65C5.28649 9.65274 5.38022 9.61769 5.45121 9.5523C5.5222 9.48691 5.56483 9.39637 5.57001 9.3C5.68001 8.47 5.85001 7.66 5.93001 6.82C6.00001 6.27 6.00001 5.7 6.00001 5.15L5.75001 2.81C5.75414 2.76794 5.7499 2.72548 5.73753 2.68507C5.72516 2.64466 5.70491 2.6071 5.67795 2.57456C5.65099 2.54202 5.61785 2.51514 5.58044 2.49548C5.54303 2.47582 5.5021 2.46376 5.46001 2.46Z" fill="black"/>
<path fill-rule="evenodd" clip-rule="evenodd" d="M7.73 2.99997C7.73276 2.91409 7.70192 2.83053 7.64403 2.76703C7.58614 2.70354 7.50577 2.66513 7.42 2.65997C7.37459 2.65703 7.32908 2.66381 7.28649 2.67986C7.24391 2.6959 7.20524 2.72085 7.17306 2.75303C7.14088 2.78521 7.11594 2.82388 7.09989 2.86646C7.08385 2.90904 7.07706 2.95456 7.08 2.99997C6.93366 3.79962 6.84012 4.60803 6.8 5.41997C6.77496 5.90298 6.77496 6.38696 6.8 6.86997C6.88 7.58997 7 8.28997 7 8.99997C6.99123 9.09618 7.01943 9.19213 7.07887 9.26829C7.13832 9.34445 7.22454 9.39511 7.32 9.40997C7.3681 9.41549 7.41681 9.41126 7.46323 9.39752C7.50965 9.38378 7.55282 9.36082 7.59017 9.33001C7.62751 9.29921 7.65825 9.26118 7.68056 9.21822C7.70287 9.17526 7.71629 9.12824 7.72 9.07997C7.86784 8.37146 7.96144 7.65271 8 6.92997V5.99997C8.01991 5.69696 8.01991 5.39298 8 5.08997C7.91 4.37997 7.79 3.68997 7.73 2.99997Z" fill="black"/>
<path fill-rule="evenodd" clip-rule="evenodd" d="M9.51001 2.52C9.46798 2.51866 9.4261 2.52563 9.38677 2.54049C9.34743 2.55535 9.31141 2.57782 9.28076 2.60661C9.25011 2.6354 9.22544 2.66994 9.20815 2.70827C9.19087 2.74661 9.1813 2.78797 9.18001 2.83L8.86001 6.35C8.86001 7.07 8.80001 7.79 8.78001 8.52V11.81C8.77121 11.863 8.77405 11.9173 8.78834 11.969C8.80263 12.0208 8.82803 12.0689 8.86276 12.1099C8.89749 12.1508 8.94073 12.1838 8.98948 12.2063C9.03822 12.2289 9.09129 12.2406 9.14501 12.2406C9.19873 12.2406 9.2518 12.2289 9.30054 12.2063C9.34929 12.1838 9.39253 12.1508 9.42726 12.1099C9.46199 12.0689 9.48739 12.0208 9.50168 11.969C9.51597 11.9173 9.51881 11.863 9.51001 11.81C9.65001 10.72 9.83001 9.64 9.94001 8.55C10.01 7.81 10.03 7.08 10.06 6.34L9.82001 2.86C9.82271 2.81715 9.81676 2.7742 9.80252 2.7337C9.78828 2.6932 9.76603 2.65598 9.73711 2.62426C9.70818 2.59254 9.67317 2.56696 9.63416 2.54904C9.59514 2.53113 9.55292 2.52125 9.51001 2.52Z" fill="black"/>
<path fill-rule="evenodd" clip-rule="evenodd" d="M11.49 9.60999C11.5864 9.61002 11.6791 9.57242 11.7482 9.50518C11.8173 9.43794 11.8574 9.34638 11.86 9.24999C11.94 8.50999 12.04 7.78999 12.11 7.05999C12.11 6.74999 12.16 6.43999 12.18 6.11999C12.2 5.79999 12.18 5.49999 12.18 5.18999C12.18 4.44999 12.09 3.72999 12.06 2.99999C12.0684 2.95254 12.0662 2.90383 12.0537 2.8573C12.0413 2.81076 12.0188 2.76752 11.9878 2.73061C11.9568 2.69371 11.9181 2.66403 11.8745 2.64367C11.8308 2.62331 11.7832 2.61276 11.735 2.61276C11.6868 2.61276 11.6392 2.62331 11.5956 2.64367C11.5519 2.66403 11.5132 2.69371 11.4822 2.73061C11.4513 2.76752 11.4287 2.81076 11.4163 2.8573C11.4038 2.90383 11.4017 2.95254 11.41 2.99999C11.27 3.72999 11.1 4.43999 11.01 5.18999C11.01 5.49999 10.95 5.81999 10.94 6.12999C10.93 6.43999 10.94 6.75999 10.94 7.12999C10.94 7.86999 11.06 8.59999 11.12 9.33999C11.1424 9.42 11.1911 9.49015 11.2582 9.53913C11.3253 9.5881 11.407 9.61307 11.49 9.60999Z" fill="black"/>
<path fill-rule="evenodd" clip-rule="evenodd" d="M13.43 7.99998C13.435 8.09556 13.4759 8.18572 13.5445 8.25246C13.6131 8.3192 13.7043 8.3576 13.8 8.35998C13.8473 8.35998 13.8941 8.35067 13.9378 8.33258C13.9814 8.31449 14.0211 8.28797 14.0546 8.25454C14.088 8.22111 14.1145 8.18143 14.1326 8.13775C14.1507 8.09407 14.16 8.04726 14.16 7.99998C14.22 7.39998 14.31 6.80998 14.37 6.18998C14.37 5.93998 14.42 5.67998 14.44 5.41998C14.46 5.15998 14.44 4.89998 14.44 4.64998C14.44 4.01998 14.34 3.42998 14.33 2.81998C14.3356 2.77791 14.3328 2.73514 14.3217 2.69418C14.3106 2.65321 14.2914 2.61486 14.2654 2.58135C14.2393 2.54785 14.2069 2.51987 14.1699 2.49903C14.1329 2.47819 14.0922 2.46492 14.05 2.45998C13.964 2.45154 13.8781 2.47719 13.8107 2.53142C13.7434 2.58565 13.7001 2.66413 13.69 2.74998C13.515 3.34873 13.3715 3.95623 13.26 4.56998C13.26 4.82998 13.2 5.09998 13.18 5.36998C13.16 5.63998 13.18 5.89998 13.18 6.15998C13.26 6.74998 13.34 7.35998 13.43 7.99998Z" fill="black"/>
<path fill-rule="evenodd" clip-rule="evenodd" d="M16.17 2.56999C16.0857 2.56709 16.0035 2.59656 15.9403 2.65235C15.8771 2.70814 15.8376 2.78601 15.83 2.86999C15.71 3.38999 15.56 3.86999 15.47 4.42999C15.4319 4.65153 15.4085 4.87535 15.4 5.09999C15.385 5.32975 15.385 5.56023 15.4 5.78999C15.4465 6.33053 15.5233 6.86804 15.63 7.39999C15.6352 7.49637 15.6778 7.5869 15.7488 7.65229C15.8198 7.71768 15.9135 7.75274 16.01 7.74999C16.0586 7.74743 16.1062 7.73531 16.1502 7.71431C16.1941 7.69331 16.2334 7.66386 16.2659 7.62763C16.2985 7.5914 16.3235 7.54911 16.3396 7.50318C16.3558 7.45725 16.3627 7.40859 16.36 7.35999C16.41 6.82999 16.51 6.30999 16.57 5.77999C16.57 5.42999 16.64 5.06999 16.64 4.71999C16.64 4.09999 16.52 3.51999 16.47 2.90999C16.4727 2.86795 16.4671 2.82579 16.4535 2.78592C16.4398 2.74606 16.4185 2.70927 16.3906 2.67769C16.3627 2.6461 16.3289 2.62032 16.291 2.60184C16.2532 2.58336 16.2121 2.57253 16.17 2.56999Z" fill="black"/>
<path fill-rule="evenodd" clip-rule="evenodd" d="M0.370003 4.44998C0.454873 4.44998 0.536266 4.41627 0.596277 4.35626C0.656289 4.29625 0.690003 4.21485 0.690003 4.12998L0.930003 2.87998C1.00226 2.44533 1.14765 2.02606 1.36 1.63998C1.5 1.41998 1.72 1.31998 2.14 1.32998L3 1.29998L4.56 1.23998C4.61366 1.25438 4.66997 1.25579 4.72427 1.24412C4.77858 1.23244 4.82933 1.208 4.87233 1.17282C4.91532 1.13765 4.94932 1.09274 4.97152 1.04182C4.99373 0.9909 5.00349 0.935426 5 0.879985C5.00017 0.828765 4.9897 0.778068 4.96926 0.731103C4.94882 0.684139 4.91885 0.64193 4.88125 0.60715C4.84365 0.572369 4.79924 0.545774 4.75082 0.529049C4.70241 0.512323 4.65105 0.505832 4.6 0.509985L3.11 0.299985L2.17 0.159985C1.88461 0.124087 1.59483 0.150171 1.32044 0.236459C1.04604 0.322747 0.793486 0.467207 0.580003 0.659985C0.335634 0.906737 0.168782 1.21958 0.100003 1.55998C0.0281457 1.95247 -0.00534546 2.35101 3.27814e-06 2.74998L0.0500033 4.12998C0.0500033 4.21485 0.0837175 4.29625 0.143729 4.35626C0.203741 4.41627 0.285134 4.44998 0.370003 4.44998Z" fill="black"/>
<path fill-rule="evenodd" clip-rule="evenodd" d="M4.72 13.33L3.16 13.27H2.27C1.85 13.27 1.63 13.17 1.49 12.95C1.27602 12.5646 1.13053 12.1451 1.06 11.71L0.820001 10.44C0.820001 10.3551 0.786287 10.2737 0.726275 10.2137C0.666264 10.1537 0.58487 10.12 0.500001 10.12C0.415132 10.12 0.333739 10.1537 0.273727 10.2137C0.213715 10.2737 0.180001 10.3551 0.180001 10.44V11.82C0.157821 12.214 0.174568 12.6093 0.230001 13C0.299151 13.3432 0.465811 13.6591 0.710001 13.91C0.924331 14.101 1.17727 14.2436 1.45163 14.3282C1.72599 14.4127 2.01533 14.4372 2.3 14.4L3.24 14.26L4.73 14.05C4.78299 14.0588 4.83727 14.056 4.88905 14.0417C4.94083 14.0274 4.98888 14.002 5.02986 13.9672C5.07084 13.9325 5.10376 13.8893 5.12634 13.8405C5.14893 13.7918 5.16062 13.7387 5.16062 13.685C5.16062 13.6313 5.14893 13.5782 5.12634 13.5295C5.10376 13.4807 5.07084 13.4375 5.02986 13.4027C4.98888 13.368 4.94083 13.3426 4.88905 13.3283C4.83727 13.314 4.78299 13.3112 4.73 13.32L4.72 13.33Z" fill="black"/>
<path fill-rule="evenodd" clip-rule="evenodd" d="M14.55 1.46998L16.11 1.52998H17C17.42 1.52998 17.64 1.62998 17.78 1.84998C17.9896 2.23726 18.1349 2.65606 18.21 3.08998L18.45 4.33998C18.45 4.42485 18.4837 4.50625 18.5437 4.56626C18.6037 4.62627 18.6851 4.65998 18.77 4.65998C18.8549 4.65998 18.9363 4.62627 18.9963 4.56626C19.0563 4.50625 19.09 4.42485 19.09 4.33998L19.14 2.99998C19.134 2.59298 19.0871 2.18761 19 1.78998C18.9288 1.44755 18.7624 1.13215 18.52 0.879983C18.3139 0.698276 18.0726 0.560989 17.811 0.476683C17.5495 0.392378 17.2734 0.362865 17 0.389983L16 0.529983L14.54 0.739983C14.4436 0.742589 14.3521 0.782719 14.2848 0.851827C14.2176 0.920935 14.18 1.01356 14.18 1.10998C14.18 1.15811 14.1896 1.20576 14.2083 1.2501C14.227 1.29444 14.2545 1.33458 14.289 1.36814C14.3235 1.40171 14.3643 1.42801 14.4092 1.4455C14.454 1.463 14.5019 1.47132 14.55 1.46998Z" fill="black"/>
<path fill-rule="evenodd" clip-rule="evenodd" d="M23.87 21.28C23.7329 20.917 23.537 20.5792 23.29 20.28L21.29 18L21.5 17.8C21.7507 17.496 21.9593 17.1597 22.12 16.8C22.1387 16.7619 22.1496 16.7206 22.1521 16.6783C22.1547 16.636 22.1488 16.5936 22.1349 16.5536C22.1209 16.5136 22.0992 16.4768 22.0709 16.4453C22.0426 16.4138 22.0083 16.3882 21.97 16.37C21.8916 16.3357 21.8029 16.3332 21.7227 16.363C21.6424 16.3929 21.5769 16.4527 21.54 16.53C21.3867 16.8185 21.1986 17.0872 20.98 17.33C20.7461 17.5805 20.4919 17.8113 20.22 18.02C19.8212 18.3424 19.3887 18.6206 18.93 18.85C18.4976 19.072 18.0248 19.2046 17.54 19.24C16.7516 19.2736 15.9657 19.1301 15.24 18.82C14.5215 18.5337 13.8833 18.0773 13.38 17.49C12.7667 16.7371 12.3816 15.8246 12.27 14.86C12.0966 13.9161 12.2188 12.9418 12.62 12.07C13.2067 10.9916 14.1561 10.1556 15.3 9.70998C16.4218 9.18082 17.6978 9.07774 18.89 9.41998C20.1112 9.891 21.1035 10.8152 21.66 12C21.9769 12.5717 22.1613 13.2074 22.1994 13.8599C22.2374 14.5125 22.1283 15.1653 21.88 15.77C21.8566 15.8128 21.8424 15.8601 21.8383 15.9088C21.8342 15.9575 21.8404 16.0065 21.8564 16.0527C21.8724 16.0988 21.8979 16.1411 21.9313 16.1768C21.9646 16.2125 22.0051 16.2408 22.05 16.26C22.0927 16.2803 22.139 16.2921 22.1862 16.2946C22.2334 16.2971 22.2807 16.2902 22.3252 16.2744C22.3698 16.2586 22.4108 16.2342 22.446 16.2026C22.4811 16.1709 22.5097 16.1327 22.53 16.09C22.8543 15.3873 23.0163 14.6208 23.0042 13.847C22.9921 13.0732 22.8061 12.3121 22.46 11.62C21.8185 10.1913 20.6562 9.06108 19.21 8.45998C17.7752 7.97705 16.2131 8.03754 14.82 8.62998C13.3976 9.1745 12.2142 10.2055 11.48 11.54C10.9683 12.638 10.801 13.8651 11 15.06C11.1784 16.2429 11.692 17.3499 12.48 18.25C13.1297 18.9335 13.9314 19.4542 14.82 19.77C15.6919 20.0914 16.6246 20.2144 17.55 20.13C18.0519 20.0831 18.5423 19.9512 19 19.74L19.27 19.58C19.4035 20.037 19.5672 20.4847 19.76 20.92C19.9975 21.4484 20.2715 21.9596 20.58 22.45C20.7285 22.6902 20.8921 22.9207 21.07 23.14C21.2196 23.3126 21.395 23.4611 21.59 23.58C21.8437 23.7524 22.1433 23.8446 22.45 23.8446C22.7567 23.8446 23.0563 23.7524 23.31 23.58C23.5247 23.4062 23.698 23.1869 23.8174 22.9378C23.9367 22.6887 23.9991 22.4162 24 22.14C24.0081 21.8479 23.9641 21.5567 23.87 21.28ZM22.56 22.57C22.46 22.65 22.31 22.62 22.15 22.57C22.0233 22.5026 21.9112 22.4108 21.82 22.3C21.6754 22.1539 21.5385 22.0004 21.41 21.84C21.0634 21.4411 20.7523 21.0128 20.48 20.56C20.2272 20.1494 20.0034 19.7217 19.81 19.28C20.1076 19.0827 20.3916 18.8655 20.66 18.63L20.74 18.56C21.02 18.92 21.3 19.28 21.56 19.66C21.82 20.04 22.16 20.5 22.43 20.93C22.5576 21.1185 22.6586 21.3238 22.73 21.54C22.7904 21.7201 22.8108 21.9112 22.79 22.1C22.7846 22.1896 22.7615 22.2773 22.722 22.358C22.6825 22.4387 22.6275 22.5107 22.56 22.57Z" fill="black"/>
</g>
<defs>
<clipPath id="clip0_1050_8079">
<rect width="24" height="24" fill="white"/>
</clipPath>
</defs>
</svg>
