<svg width="24" height="24" viewBox="0 0 24 24" fill="none" xmlns="http://www.w3.org/2000/svg">
<g clip-path="url(#clip0_1047_5938)">
<path fill-rule="evenodd" clip-rule="evenodd" d="M23.88 9.20002C23.8691 9.11729 23.8306 9.04065 23.7707 8.98256C23.7108 8.92447 23.633 8.88833 23.55 8.88002C23.5149 8.83819 23.4702 8.80545 23.4197 8.78456C23.3692 8.76367 23.3144 8.75526 23.26 8.76002C22.82 8.76002 22.38 8.76002 21.94 8.69002C22.2096 8.36284 22.4042 7.98053 22.51 7.57002C22.631 6.87347 22.6846 6.16686 22.67 5.46002L22.73 3.46002C22.7439 3.00485 22.7138 2.54939 22.64 2.10002C22.5756 1.83186 22.4564 1.57992 22.29 1.36002C22.156 1.17875 21.9759 1.03674 21.7683 0.948796C21.5608 0.860852 21.3334 0.830196 21.11 0.860023C20.914 0.884511 20.7248 0.94747 20.5532 1.04529C20.3816 1.1431 20.231 1.27385 20.11 1.43002C19.9019 1.70202 19.7552 2.01589 19.68 2.35002C19.58 2.77581 19.5363 3.21287 19.55 3.65002V3.95002C19.327 3.87149 19.1 3.80473 18.87 3.75002C18.7436 3.73968 18.6165 3.73968 18.49 3.75002C18.3605 3.73422 18.2295 3.73422 18.1 3.75002C18.0012 3.78063 17.9043 3.81737 17.81 3.86002C17.857 3.52886 17.8771 3.19443 17.87 2.86002C17.8558 2.39863 17.7177 1.94957 17.47 1.56002C17.3253 1.33114 17.1238 1.14358 16.8851 1.01558C16.6465 0.887575 16.3788 0.823479 16.108 0.829518C15.8373 0.835557 15.5727 0.911525 15.34 1.05004C15.1073 1.18856 14.9144 1.38491 14.78 1.62002C14.5928 1.92711 14.464 2.26613 14.4 2.62002C14.3558 2.95189 14.3558 3.28815 14.4 3.62002C14.2141 3.55813 14.0235 3.51131 13.83 3.48002C13.7069 3.46973 13.5831 3.46973 13.46 3.48002C13.3418 3.48961 13.2247 3.50969 13.11 3.54002H13.03C13.0639 3.13013 13.0538 2.71778 13 2.31002C12.917 1.97676 12.7674 1.66379 12.56 1.39002C12.4398 1.23304 12.2894 1.10172 12.1177 1.00382C11.9459 0.905925 11.7563 0.843428 11.56 0.820023C11.3364 0.788 11.1084 0.817647 10.9004 0.905764C10.6925 0.99388 10.5125 1.13712 10.38 1.32002C10.2045 1.53428 10.0843 1.7884 10.03 2.06002C9.95803 2.50968 9.92457 2.96467 9.93001 3.42002L9.99001 5.42002C9.98356 6.12702 10.0405 6.83318 10.16 7.53002C10.2689 8.05307 10.5339 8.53078 10.92 8.90002C10.4991 8.95155 10.0817 9.02835 9.67001 9.13002C9.62464 9.13843 9.58138 9.15572 9.54271 9.18091C9.50405 9.20609 9.47075 9.23868 9.44473 9.27678C9.41871 9.31489 9.40047 9.35776 9.39108 9.40294C9.38169 9.44812 9.38133 9.4947 9.39001 9.54002C9.41138 9.61588 9.45705 9.68263 9.52001 9.73002C9.45265 10.2539 9.47974 10.7857 9.60001 11.3C9.69601 11.5904 9.89058 11.838 10.15 12C10.5178 12.225 10.925 12.3777 11.35 12.45C11.9316 12.5467 12.5204 12.5935 13.11 12.59C12.8 13.47 12.49 14.34 12.26 15.25C12.1 15.85 11.99 16.47 11.88 17.08C11.71 17.98 11.58 18.87 11.37 19.76C9.75001 20 10 19.47 9.78001 21.49C9.75059 21.7601 9.78133 22.0333 9.87001 22.29C9.98601 22.5443 10.1878 22.7496 10.44 22.87C10.7202 23.0037 11.0212 23.0883 11.33 23.12C11.7112 23.1715 12.0953 23.1983 12.48 23.2C13.03 23.2 13.57 23.15 14.11 23.14C15.3 23.06 16.54 23.01 17.77 22.99H20.21C20.3161 22.9993 20.4215 22.9661 20.5031 22.8976C20.5847 22.8292 20.6357 22.7311 20.645 22.625C20.6543 22.5189 20.6211 22.4135 20.5526 22.3319C20.4841 22.2503 20.3861 22.1993 20.28 22.19C19.28 22.05 18.23 21.94 17.18 21.87C16.13 21.8 15.09 21.8 14.07 21.8L11.41 22C11.2738 22.0163 11.1362 22.0163 11 22C10.9 22 10.78 22 10.73 21.91C10.6506 21.7488 10.616 21.5692 10.63 21.39C10.6397 21.1352 10.6664 20.8813 10.71 20.63H11.71C12.93 20.63 14.14 20.83 15.36 20.92C16.19 20.98 17.02 21 17.83 21.02L20.78 20.81C21.14 20.81 21.45 20.43 21.5 21.22C21.5066 21.591 21.4866 21.9619 21.44 22.33C21.4281 22.4361 21.4588 22.5426 21.5253 22.626C21.5919 22.7095 21.6889 22.7631 21.795 22.775C21.9011 22.787 22.0076 22.7563 22.091 22.6897C22.1745 22.6231 22.2281 22.5261 22.24 22.42C22.3401 21.9428 22.397 21.4575 22.41 20.97C22.3964 20.7031 22.3211 20.443 22.19 20.21C22.1352 20.1104 22.0609 20.0227 21.9716 19.9523C21.8823 19.8819 21.7797 19.8301 21.67 19.8C21.3855 19.731 21.0924 19.7041 20.8 19.72H20.59V19.66C20.45 18.66 20.32 17.66 20.13 16.6C20.02 16.01 19.89 15.42 19.75 14.83C19.61 14.24 19.4 13.44 19.27 12.74C19.78 12.69 20.27 12.68 20.79 12.61C21.4064 12.5762 22.0186 12.4892 22.62 12.35C22.9524 12.2601 23.2534 12.0801 23.49 11.83C23.783 11.514 23.9625 11.1094 24 10.68C24.0133 10.1838 23.9731 9.68761 23.88 9.20002ZM11.17 5.48002L11.26 3.48002V2.48002C11.2562 2.35267 11.291 2.22715 11.36 2.12002C11.36 2.12002 11.36 2.02002 11.42 2.03002C11.5005 2.05024 11.5756 2.08778 11.64 2.14002C11.8122 2.31896 11.9421 2.53424 12.02 2.77002C12.1157 3.06283 12.1827 3.36425 12.22 3.67002V3.90002C12.22 4.44002 12.47 4.71002 12.9 4.69002C12.9952 4.7192 13.092 4.74258 13.19 4.76002C13.3031 4.76967 13.4169 4.76967 13.53 4.76002L13.87 4.70002C14.14 4.63002 14.38 4.53002 14.66 4.44002C14.7319 4.44037 14.8024 4.41974 14.8628 4.38067C14.9232 4.3416 14.9709 4.28577 15 4.22002C15.0252 4.18048 15.0422 4.13627 15.05 4.09002C15.05 4.09002 15.05 4.09002 15.05 4.01002C15.0934 3.66147 15.1878 3.32118 15.33 3.00002C15.4357 2.74161 15.5921 2.50699 15.79 2.31002C15.8354 2.25549 15.8918 2.21123 15.9556 2.1802C16.0194 2.14916 16.0891 2.13206 16.16 2.13002C16.2224 2.13713 16.2825 2.15782 16.3361 2.19065C16.3896 2.22347 16.4354 2.26763 16.47 2.32002C16.6407 2.50146 16.7584 2.7263 16.81 2.97002C17.06 4.03002 16.81 4.88002 17.37 4.87002C17.4463 4.86454 17.5194 4.83672 17.58 4.79002C17.7767 4.85515 17.977 4.90858 18.18 4.95002C18.2995 4.96498 18.4205 4.96498 18.54 4.95002C18.6598 4.95986 18.7802 4.95986 18.9 4.95002C19.2 4.95002 19.46 4.81002 19.74 4.75002C19.8087 4.8043 19.8926 4.83576 19.98 4.84002C20.026 4.83873 20.0712 4.82839 20.1132 4.80959C20.1552 4.7908 20.193 4.76391 20.2246 4.73048C20.2562 4.69705 20.2809 4.65772 20.2972 4.61474C20.3136 4.57177 20.3213 4.52599 20.32 4.48002L20.39 3.65002C20.4358 3.34489 20.5061 3.04393 20.6 2.75002C20.6829 2.51776 20.82 2.30864 21 2.14002C21.25 1.90002 21.27 2.14002 21.28 2.14002C21.3399 2.25099 21.3741 2.37404 21.38 2.50002V3.50002L21.46 5.50002C21.556 6.13523 21.5861 6.77863 21.55 7.42002C21.53 7.78642 21.3934 8.13683 21.16 8.42002C21.0913 8.48935 21.0519 8.58245 21.05 8.68002C19.89 8.62002 18.72 8.54002 17.56 8.51002H15.26L13.73 8.63002C12.99 8.71002 12.25 8.77002 11.5 8.86002C11.5495 8.79545 11.5763 8.71637 11.5763 8.63502C11.5763 8.55368 11.5495 8.4746 11.5 8.41002C11.2677 8.12533 11.1282 7.77637 11.1 7.41002C11.0667 6.76588 11.0901 6.12006 11.17 5.48002ZM18.59 15.34C18.6864 15.9584 18.8234 16.5697 19 17.17C19.25 18.02 19.56 18.84 19.83 19.68H17.91C17.16 19.68 16.39 19.62 15.62 19.61H14.08C13.54 19.61 12.85 19.7 12.23 19.74C12.5498 19.0089 12.8302 18.2612 13.07 17.5C13.19 17.12 13.29 16.73 13.38 16.34C13.47 15.95 13.54 15.57 13.59 15.18C13.71 14.35 13.77 13.51 13.87 12.68H13.93C15.29 12.76 16.69 12.85 18.07 12.82H18.5C18.4529 13.661 18.4831 14.5045 18.59 15.34ZM23.1 10.57C23.0733 10.7801 22.9865 10.9781 22.85 11.14C22.6642 11.2784 22.4414 11.3584 22.21 11.37C21.71 11.44 21.15 11.37 20.75 11.42C19.86 11.48 18.97 11.47 18.07 11.48C16.7 11.48 15.34 11.48 14 11.42C13.35 11.42 12.56 11.53 11.81 11.51C11.3902 11.5264 10.9724 11.4442 10.59 11.27C10.5196 11.2319 10.4582 11.1792 10.4099 11.1154C10.3616 11.0516 10.3275 10.9781 10.31 10.9C10.2336 10.5487 10.2 10.1894 10.21 9.83002C10.5952 9.78677 10.9824 9.76341 11.37 9.76002C12.19 9.76002 12.99 9.76002 13.81 9.81002C14.63 9.86002 15.37 9.81002 16.16 9.81002H18.52C20.05 9.81002 21.58 9.70002 23.11 9.59002C23.1396 9.9162 23.1362 10.2445 23.1 10.57Z" fill="black"/>
<path fill-rule="evenodd" clip-rule="evenodd" d="M7.78001 21.84C6.92001 21.76 6.06001 21.66 5.18001 21.6H4.07001H2.95001H2.53001C2.74001 21 2.97001 20.41 3.20001 19.81C3.43001 19.21 3.58001 18.81 3.72001 18.27C3.87273 17.6849 3.98631 17.0902 4.06001 16.49C4.03306 16.3844 3.97481 16.2895 3.89291 16.2176C3.81101 16.1458 3.70929 16.1004 3.60112 16.0874C3.49294 16.0744 3.38337 16.0945 3.28679 16.1449C3.19022 16.1953 3.11116 16.2738 3.06001 16.37L2.58001 17.6C2.46001 17.91 2.34001 18.23 2.24001 18.6C2.14001 18.97 2.05001 19.26 1.97001 19.6C1.80548 20.3254 1.68526 21.0601 1.61001 21.8L0.350006 21.9C0.303189 21.9 0.256845 21.9094 0.213716 21.9276C0.170586 21.9458 0.131549 21.9725 0.0989145 22.006C0.0662798 22.0396 0.040711 22.0794 0.0237218 22.123C0.00673247 22.1666 -0.00133205 22.2132 5.56707e-06 22.26C-1.41188e-05 22.3055 0.00910035 22.3506 0.0268089 22.3925C0.0445174 22.4344 0.0704597 22.4723 0.103098 22.504C0.135737 22.5357 0.174408 22.5606 0.21682 22.5771C0.259232 22.5935 0.304522 22.6013 0.350006 22.6C1.22001 22.69 2.07001 22.82 2.95001 22.88H4.07001H5.18001C6.05001 22.82 6.91001 22.72 7.78001 22.65C7.88609 22.65 7.98783 22.6079 8.06285 22.5329C8.13786 22.4578 8.18001 22.3561 8.18001 22.25C8.18001 22.1439 8.13786 22.0422 8.06285 21.9672C7.98783 21.8922 7.88609 21.85 7.78001 21.85V21.84Z" fill="black"/>
<path fill-rule="evenodd" clip-rule="evenodd" d="M8.87001 12.12C8.83529 11.6711 8.71044 11.2339 8.50294 10.8343C8.29543 10.4348 8.00952 10.0812 7.66229 9.79462C7.31505 9.50806 6.91362 9.29443 6.48197 9.16649C6.05032 9.03855 5.59732 8.99894 5.15001 9.05C4.79349 9.09306 4.44189 9.17008 4.10001 9.28C3.77637 9.39568 3.46211 9.5361 3.16001 9.7C2.91904 9.82328 2.69121 9.97071 2.48001 10.14C2.2615 10.3135 2.06354 10.5115 1.89001 10.73C1.39878 11.2741 1.117 11.9752 1.09502 12.708C1.07304 13.4407 1.31228 14.1574 1.77001 14.73C2.17879 15.2487 2.70204 15.6657 3.29882 15.9485C3.89561 16.2313 4.54973 16.3721 5.21001 16.36C5.30549 16.36 5.39706 16.3221 5.46457 16.2546C5.53208 16.187 5.57001 16.0955 5.57001 16C5.57134 15.954 5.5636 15.9083 5.54724 15.8653C5.53087 15.8223 5.50619 15.783 5.47461 15.7495C5.44304 15.7161 5.40518 15.6892 5.36321 15.6704C5.32124 15.6516 5.27598 15.6413 5.23001 15.64C4.70789 15.5872 4.20309 15.4234 3.74948 15.1595C3.29587 14.8957 2.90395 14.5378 2.60001 14.11C2.34159 13.7184 2.22905 13.2485 2.28206 12.7824C2.33507 12.3162 2.55027 11.8835 2.89001 11.56C3.01161 11.418 3.14918 11.2905 3.30001 11.18C3.45451 11.0662 3.61844 10.9659 3.79001 10.88C4.02852 10.7554 4.27585 10.6484 4.53001 10.56C4.77273 10.475 5.02436 10.418 5.28001 10.39C5.56892 10.3449 5.86395 10.3584 6.14754 10.4297C6.43112 10.501 6.69746 10.6286 6.93072 10.805C7.16397 10.9813 7.35936 11.2028 7.50527 11.4562C7.65117 11.7096 7.74461 11.9897 7.78001 12.28C7.92148 12.9016 7.84339 13.553 7.55902 14.1236C7.27464 14.6942 6.80152 15.1487 6.22001 15.41C6.12188 15.4501 6.04311 15.5267 6.00023 15.6237C5.95734 15.7206 5.95368 15.8304 5.99001 15.93C6.02809 16.0274 6.10279 16.106 6.19811 16.149C6.29344 16.192 6.40181 16.1959 6.50001 16.16C9.18001 15.26 8.88001 12.21 8.87001 12.12Z" fill="black"/>
<path fill-rule="evenodd" clip-rule="evenodd" d="M8.49 18.38C8.44531 18.1529 8.38517 17.929 8.31 17.71C8.24144 17.4912 8.15791 17.2774 8.06 17.07C7.89 16.71 7.77 16.54 7.58 16.19C7.23 15.82 6.82 16.07 6.82 16.57C6.80679 16.9518 6.8336 17.3339 6.9 17.71C6.99879 18.052 7.12245 18.3862 7.27 18.71C7.48 19.21 7.74 19.71 7.92 20.18C7.94614 20.2827 8.01014 20.3718 8.09916 20.4292C8.18818 20.4867 8.29564 20.5085 8.4 20.49C8.4523 20.4783 8.50171 20.4562 8.5453 20.4251C8.58889 20.3939 8.62577 20.3543 8.65375 20.3086C8.68174 20.2629 8.70025 20.212 8.70819 20.159C8.71614 20.106 8.71335 20.0519 8.7 20C8.67279 19.4554 8.60257 18.9137 8.49 18.38Z" fill="black"/>
</g>
<defs>
<clipPath id="clip0_1047_5938">
<rect width="24" height="24" fill="white"/>
</clipPath>
</defs>
</svg>
