<svg width="24" height="24" viewBox="0 0 24 24" fill="none" xmlns="http://www.w3.org/2000/svg">
<g clip-path="url(#clip0_1034_4134)">
<path fill-rule="evenodd" clip-rule="evenodd" d="M10.33 13.29C10.3547 13.4905 10.4219 13.6834 10.5271 13.8558C10.6323 14.0283 10.773 14.1763 10.94 14.29C11.2533 14.4997 11.6245 14.6057 12.0013 14.5932C12.3781 14.5806 12.7414 14.4501 13.04 14.22C13.1972 14.0884 13.3268 13.927 13.4212 13.7451C13.5156 13.5631 13.573 13.3643 13.59 13.16C13.5893 12.9438 13.5457 12.7299 13.4615 12.5307C13.3774 12.3316 13.2545 12.1512 13.1 12C12.934 11.8339 12.7355 11.7038 12.517 11.6178C12.2985 11.5318 12.0647 11.4917 11.83 11.5C11.5963 11.5068 11.3671 11.5661 11.1594 11.6734C10.9517 11.7807 10.7708 11.9333 10.63 12.12C10.3866 12.4585 10.2795 12.8761 10.33 13.29ZM11.58 12.84C11.6683 12.7621 11.7822 12.7194 11.9 12.72C12.0341 12.7116 12.1663 12.7545 12.27 12.84C12.39 12.94 12.51 13.04 12.52 13.18C12.5314 13.2554 12.5275 13.3323 12.5086 13.4061C12.4897 13.48 12.4562 13.5493 12.41 13.61C12.3627 13.6899 12.2966 13.757 12.2174 13.8055C12.1383 13.854 12.0485 13.8825 11.9559 13.8884C11.8632 13.8943 11.7705 13.8775 11.6858 13.8394C11.6012 13.8014 11.5271 13.7432 11.47 13.67C11.4259 13.6103 11.3943 13.5424 11.3771 13.4702C11.3599 13.398 11.3575 13.3231 11.37 13.25C11.3946 13.0944 11.4682 12.9508 11.58 12.84Z" fill="black"/>
<path fill-rule="evenodd" clip-rule="evenodd" d="M23.89 12.05V10.34L23.8 8.55998L23.7 6.24997C23.7071 5.43777 23.6604 4.62599 23.56 3.81997C23.4839 3.37411 23.2907 2.95651 23 2.60997C22.8538 2.46376 22.6706 2.36006 22.47 2.30997C22.14 2.21997 21.6 2.17997 21.47 2.13997C20.8789 2.00924 20.2814 1.90911 19.68 1.83997C18.8 1.73997 17.9 1.68997 17.02 1.65997C15.28 1.59997 13.55 1.55997 11.83 1.58997C10.11 1.61997 8.37 1.70997 6.63 1.89997L1.93 2.66997C1.85023 2.68957 1.78025 2.73739 1.733 2.80458C1.68575 2.87177 1.66442 2.95379 1.67296 3.03549C1.68149 3.11718 1.71931 3.19303 1.77943 3.249C1.83955 3.30497 1.9179 3.33729 2 3.33997L6.71 2.72997C8.0752 2.6518 9.44261 2.61845 10.81 2.62997C12.86 2.62997 14.91 2.74997 16.97 2.88997C17.82 2.88997 18.69 2.98997 19.54 3.09997C20.1 3.16997 20.65 3.25997 21.19 3.37997C21.73 3.49997 22.19 2.95997 22.4 4.37997C22.48 5.07997 22.45 5.85997 22.47 6.37997L22.6 8.65997L22.74 10.46L22.83 12.12C22.9661 13.1675 23.0229 14.2239 23 15.28C22.9743 15.9101 22.7424 16.5144 22.34 17C21.8085 17.3102 21.1921 17.4433 20.58 17.38C19.46 17.43 18.15 17.32 17.36 17.29C17.3134 17.2727 17.2639 17.2649 17.2143 17.2672C17.1646 17.2694 17.116 17.2817 17.0712 17.3031C17.0264 17.3246 16.9864 17.3548 16.9535 17.3921C16.9207 17.4294 16.8957 17.4728 16.88 17.52C16.7298 17.863 16.5595 18.1969 16.37 18.52C16.1875 18.8391 15.9802 19.1434 15.75 19.43L14.95 20.28L14.23 20.84L13.84 21.05L13.66 21.13C13.6652 21.0567 13.6652 20.9832 13.66 20.91C13.638 20.637 13.5946 20.3661 13.53 20.1C13.3645 19.4677 13.2343 18.8267 13.14 18.18C13.09 17.86 13.07 17.54 13.05 17.23C13.081 17.1965 13.105 17.1571 13.1204 17.1141C13.1359 17.0712 13.1425 17.0256 13.14 16.98C13.14 16.29 12.34 16.78 7.34 16.64C6.15296 16.6149 4.96803 16.5281 3.79 16.38L1.79 16.03C1.67139 15.9717 1.5475 15.9248 1.42 15.89V15.63V14.45V8.81997C1.42 7.73997 1.3 6.58997 1.34 5.45997C1.30187 4.73738 1.34548 4.01278 1.47 3.29997C1.48215 3.25795 1.48583 3.21393 1.48081 3.17048C1.4758 3.12702 1.4622 3.085 1.4408 3.04684C1.41939 3.00869 1.39062 2.97518 1.35615 2.94825C1.32168 2.92132 1.28219 2.90151 1.24 2.88997C1.1565 2.86766 1.06763 2.87799 0.991471 2.91886C0.915311 2.95972 0.857573 3.02806 0.829998 3.10997C0.601571 3.85578 0.450771 4.62319 0.379998 5.39997C0.279998 6.54997 0.279998 7.71997 0.239998 8.80998C0.199998 9.89997 0.0899977 11.06 -2.32365e-06 12.19V14.51C-0.0109707 15.0079 0.0157724 15.506 0.0799977 16C0.107086 16.3009 0.210327 16.59 0.379998 16.84C0.479632 16.9891 0.628173 17.0987 0.799998 17.15C1.01322 17.2114 1.23039 17.2582 1.45 17.29L3.61 17.6C4.81 17.7 6.05 17.71 7.29 17.69C8.97 17.69 10.65 17.53 12.29 17.41C12.2701 17.8064 12.2701 18.2036 12.29 18.6C12.29 19.18 12.35 19.74 12.4 20.31C12.4 20.69 12.4 21.04 12.46 21.31C12.4856 21.5477 12.5642 21.7766 12.69 21.98C12.94 22.35 13.39 22.64 14.36 22.22L14.93 21.9C15.0683 21.8113 15.1988 21.7109 15.32 21.6C15.4882 21.4549 15.6422 21.2942 15.78 21.12L16.55 20C16.7689 19.6439 16.9627 19.273 17.13 18.89C17.24 18.62 17.34 18.34 17.43 18.06C18.6693 18.1832 19.9146 18.2366 21.16 18.22C21.8189 18.2457 22.4671 18.0484 23 17.66C23.5825 17.0395 23.9354 16.2386 24 15.39C24.0558 14.2755 24.019 13.1583 23.89 12.05Z" fill="black"/>
<path fill-rule="evenodd" clip-rule="evenodd" d="M6.53 7.52999C7.02869 7.08637 7.55292 6.67232 8.1 6.28999C8.13755 6.2684 8.17033 6.23942 8.19635 6.20479C8.22236 6.17016 8.24108 6.13062 8.25137 6.08854C8.26165 6.04647 8.26329 6.00275 8.25618 5.96002C8.24907 5.9173 8.23336 5.87646 8.21 5.83999C8.18923 5.80297 8.16131 5.77046 8.12785 5.74434C8.09439 5.71822 8.05608 5.69902 8.01513 5.68785C7.97418 5.67668 7.93142 5.67377 7.88934 5.67929C7.84725 5.68481 7.80669 5.69864 7.77 5.71999C7.13968 6.01471 6.52848 6.3487 5.94 6.71999C5.35255 7.10937 4.79134 7.53696 4.26 7.99999C3.97322 8.22763 3.70257 8.47489 3.45 8.73999C3.31007 8.89586 3.22263 9.09174 3.2 9.29999C3.18191 9.47894 3.20004 9.65971 3.2533 9.83151C3.30656 10.0033 3.39386 10.1626 3.51 10.3C3.86421 10.6966 4.27943 11.0342 4.74 11.3C4.97564 11.4439 5.21938 11.5741 5.47 11.69C5.72 11.81 5.97 11.92 6.23 12.02L7.23 12.34C7.56 12.44 7.89 12.52 8.23 12.59C8.32076 12.5987 8.41161 12.5744 8.48598 12.5217C8.56035 12.4689 8.61328 12.3912 8.63511 12.3027C8.65694 12.2142 8.64621 12.1207 8.60488 12.0395C8.56356 11.9582 8.49439 11.8945 8.41 11.86C8.1 11.76 7.81 11.65 7.52 11.53L6.66 11.12L5.4 10.32C5.27 10.22 5.06 10.06 4.85 9.87999C4.15 9.28999 4.6 9.45999 5.15 8.93999C5.58203 8.4434 6.04282 7.9726 6.53 7.52999Z" fill="black"/>
<path fill-rule="evenodd" clip-rule="evenodd" d="M19 8.71997L18.42 9.29997L17.04 10.4L14.89 11.92C14.8033 11.9685 14.739 12.049 14.711 12.1444C14.6829 12.2397 14.6934 12.3422 14.74 12.43C14.763 12.4739 14.7947 12.5127 14.833 12.5442C14.8714 12.5756 14.9157 12.599 14.9632 12.613C15.0108 12.627 15.0607 12.6313 15.11 12.6256C15.1592 12.6199 15.2069 12.6044 15.25 12.58L17.6 11.26L19.18 10.26L20 9.56997L20.51 8.87997C20.6451 8.67335 20.717 8.43184 20.717 8.18497C20.717 7.93811 20.6451 7.69659 20.51 7.48997C20.3375 7.23612 20.0889 7.04354 19.8 6.93997C19.42 6.78997 18.92 6.71997 18.52 6.59997L15.2 5.70997C15.1165 5.68212 15.0253 5.6886 14.9465 5.72799C14.8677 5.76737 14.8078 5.83643 14.78 5.91997C14.7522 6.00351 14.7586 6.0947 14.798 6.17346C14.8374 6.25223 14.9065 6.31212 14.99 6.33997L18.11 7.64997C19.64 8.27997 19.62 7.87997 19 8.71997Z" fill="black"/>
<path fill-rule="evenodd" clip-rule="evenodd" d="M11.74 10.83C11.839 10.8223 11.9311 10.7761 11.9966 10.7013C12.062 10.6266 12.0955 10.5292 12.09 10.43C12.14 9.76997 12.22 9.07997 12.3 8.35997C12.3 8.06997 12.36 7.76997 12.38 7.47997C12.4 7.18997 12.38 6.88997 12.38 6.59997C12.38 5.88997 12.38 5.19997 12.47 4.59997C12.4818 4.55794 12.4852 4.514 12.4801 4.47066C12.4749 4.42731 12.4613 4.3854 12.4399 4.34733C12.4186 4.30926 12.3899 4.27577 12.3556 4.24877C12.3213 4.22177 12.282 4.20179 12.24 4.18997C12.198 4.17815 12.154 4.17472 12.1107 4.17988C12.0673 4.18505 12.0254 4.1987 11.9874 4.22005C11.9493 4.24141 11.9158 4.27006 11.8888 4.30436C11.8618 4.33866 11.8418 4.37794 11.83 4.41997C11.543 5.09712 11.322 5.80038 11.17 6.51997C11.118 6.8246 11.0813 7.13165 11.06 7.43997V8.36997C11.06 9.11997 11.2 9.83997 11.29 10.52C11.2984 10.5703 11.3168 10.6184 11.3442 10.6614C11.3715 10.7044 11.4073 10.7415 11.4492 10.7704C11.4912 10.7993 11.5386 10.8195 11.5886 10.8297C11.6385 10.84 11.69 10.8401 11.74 10.83Z" fill="black"/>
</g>
<defs>
<clipPath id="clip0_1034_4134">
<rect width="24" height="24" fill="white"/>
</clipPath>
</defs>
</svg>
