<svg width="24" height="24" viewBox="0 0 24 24" fill="none" xmlns="http://www.w3.org/2000/svg">
<g clip-path="url(#clip0_1031_3013)">
<path d="M18.59 9.31001C18.4083 9.21193 18.2064 9.15717 18 9.15001C17.51 9.15001 16.76 9.29001 16.47 9.31001C16.2969 9.29797 16.1232 9.29797 15.95 9.31001C15.8146 9.34251 15.6924 9.41582 15.6 9.52001C15.36 9.82001 15.26 10.27 15.05 10.6C15.0173 10.6571 14.9709 10.7052 14.9151 10.7401C14.8593 10.775 14.7957 10.7956 14.73 10.8C14.49 10.8 14.35 10.8 14.27 10.65C13.97 10.25 13.89 9.65001 13.37 9.43001C13.0873 9.33371 12.7878 9.29627 12.49 9.32001C12.05 9.32001 11.54 9.41001 11.15 9.45001C11.1991 9.32637 11.2392 9.19938 11.27 9.07001C11.39 8.47001 11.27 7.82001 11.4 7.21001L11.58 7.27001C11.7707 7.31511 11.9693 7.31511 12.16 7.27001C12.8645 7.03816 13.4498 6.53903 13.79 5.88001C13.9178 5.63988 13.9847 5.37203 13.9847 5.10001C13.9847 4.82798 13.9178 4.56013 13.79 4.32001C13.7091 4.17861 13.5947 4.05914 13.4571 3.972C13.3194 3.88486 13.1625 3.83268 13 3.82001C12.6944 3.78515 12.3857 3.78515 12.08 3.82001H11.82C11.5491 3.38332 11.3562 2.90282 11.25 2.40001C11.1662 2.09938 11.0197 1.81991 10.82 1.58001C10.559 1.36792 10.2535 1.21734 9.92636 1.13944C9.59917 1.06153 9.25863 1.05831 8.93003 1.13001C8.84605 1.13762 8.76818 1.1771 8.71239 1.24032C8.6566 1.30355 8.62713 1.38574 8.63003 1.47001C8.63258 1.51206 8.6434 1.55319 8.66188 1.59105C8.68036 1.62891 8.70614 1.66274 8.73773 1.69062C8.76932 1.71849 8.8061 1.73985 8.84596 1.75348C8.88583 1.7671 8.92799 1.77272 8.97003 1.77001C9.72003 1.77001 10.11 1.77001 10.32 2.05001C10.4842 2.28523 10.5904 2.55592 10.63 2.84001C10.7479 3.38824 10.9721 3.90804 11.29 4.37001C11.3422 4.43889 11.4084 4.49591 11.4842 4.53728C11.5601 4.57866 11.6439 4.60345 11.73 4.61001H12.67C12.83 4.61001 13 4.61001 13.07 4.72001C13.1454 4.88379 13.1705 5.06628 13.142 5.24432C13.1135 5.42236 13.0328 5.58793 12.91 5.72001C12.6622 6.05644 12.311 6.30234 11.91 6.42001C11.83 6.42001 11.72 6.42001 11.61 6.35001C11.4103 6.30275 11.2042 6.28923 11 6.31001C10.8657 6.31846 10.738 6.3711 10.6367 6.45973C10.5354 6.54836 10.4662 6.668 10.44 6.80001C10.27 7.48001 10.36 8.22001 10.21 8.91001C10.1643 9.09378 10.0901 9.26925 9.99003 9.43001C9.73003 9.43001 9.31003 9.25001 9.26003 9.25001C8.97069 9.16626 8.67124 9.12252 8.37003 9.12001C8.22484 8.65053 8.01625 8.20306 7.75003 7.79001C7.58702 7.57266 7.37565 7.39626 7.13265 7.27476C6.88966 7.15326 6.62171 7.09001 6.35003 7.09001C6.11031 7.07547 5.87083 7.12197 5.65397 7.22515C5.43711 7.32833 5.24996 7.48483 5.11003 7.68001C4.79363 8.24035 4.59618 8.85992 4.53003 9.50001L4.13003 9.57001H2.51003C2.17255 9.56903 1.83654 9.52535 1.51003 9.44001C1.26003 9.38001 1.21003 9.16001 1.21003 8.92001C1.27027 8.33652 1.42213 7.76619 1.66003 7.23001C2.12721 6.11705 2.84199 5.12525 3.75003 4.33001C4.65916 3.50925 5.73312 2.89214 6.90003 2.52001C6.9539 2.48788 6.99543 2.4386 7.01795 2.38006C7.04048 2.32153 7.04269 2.25712 7.02425 2.19717C7.0058 2.13722 6.96776 2.0852 6.91623 2.04945C6.86469 2.0137 6.80264 1.99629 6.74003 2.00001C5.47889 2.35485 4.30674 2.9716 3.30003 3.81001C2.2733 4.6557 1.45544 5.72679 0.91003 6.94001C0.534116 7.68371 0.342077 8.50673 0.35003 9.34001C0.379024 9.59024 0.483547 9.82571 0.649684 10.0151C0.815821 10.2044 1.03569 10.3387 1.28003 10.4C1.66545 10.507 2.06087 10.5741 2.46003 10.6H4.14003C4.40311 10.6162 4.66694 10.6162 4.93003 10.6C5.04913 10.5921 5.16318 10.5489 5.2576 10.4759C5.35201 10.4029 5.42249 10.3033 5.46003 10.19C5.54416 9.60999 5.68827 9.04027 5.89003 8.49001C5.92158 8.38964 5.984 8.30178 6.06838 8.23894C6.15277 8.1761 6.25483 8.14148 6.36003 8.14001C6.47265 8.13962 6.58379 8.16565 6.68453 8.21602C6.78526 8.26638 6.87277 8.33968 6.94003 8.43001C7.2029 8.8851 7.4142 9.36808 7.57003 9.87001C7.61453 9.96467 7.68155 10.047 7.76523 10.1097C7.84891 10.1725 7.94669 10.2138 8.05003 10.23C8.44956 10.2576 8.8505 10.2576 9.25003 10.23C9.35003 10.23 10.01 10.32 10.25 10.31C10.3468 10.3121 10.4428 10.2925 10.531 10.2527C10.6193 10.2129 10.6975 10.1539 10.76 10.08V10.02C11.15 10.02 11.83 9.95001 12.4 9.96001C12.5974 9.95152 12.7945 9.98211 12.98 10.05C13.21 10.16 13.24 10.41 13.32 10.63C13.3971 10.901 13.5456 11.1462 13.75 11.34C14.0096 11.5475 14.3388 11.6477 14.67 11.62C14.9698 11.6148 15.2576 11.5011 15.48 11.3C15.7288 10.9928 15.9403 10.6571 16.11 10.3C16.51 10.3 17.8 10.17 17.8 10.17C17.8 10.34 17.58 11.57 17.47 12.06C17.3614 12.5531 17.2279 13.0404 17.07 13.52L16 16.7C15.9261 16.9763 15.8326 17.247 15.72 17.51C15.6699 17.6278 15.5907 17.731 15.49 17.81C15.168 18.0094 14.8062 18.1357 14.43 18.18C13.7948 18.24 13.1553 18.24 12.52 18.18H11.14C10.9902 18.1903 10.8399 18.1903 10.69 18.18C10.8531 17.8048 10.9576 17.4069 11 17C11.133 16.2593 11.133 15.5008 11 14.76C10.9598 14.6586 10.8931 14.5699 10.8069 14.5031C10.7207 14.4363 10.6182 14.3938 10.51 14.38L9.75003 14.28C9.47293 14.2335 9.21368 14.1125 9.00003 13.93C8.91223 13.8575 8.84028 13.7677 8.78867 13.6662C8.73706 13.5647 8.70689 13.4537 8.70003 13.34C8.70003 13.06 8.70003 12.91 8.88003 12.88C9.21595 12.8621 9.55271 12.8924 9.88003 12.97C10.1002 13.0234 10.3299 13.0234 10.55 12.97C10.6586 12.9017 10.7484 12.8074 10.8112 12.6957C10.8741 12.5839 10.9081 12.4582 10.91 12.33C10.9465 11.7806 10.9465 11.2294 10.91 10.68C10.9075 10.638 10.8967 10.5968 10.8782 10.559C10.8597 10.5211 10.8339 10.4873 10.8023 10.4594C10.7707 10.4315 10.734 10.4102 10.6941 10.3965C10.6542 10.3829 10.6121 10.3773 10.57 10.38C10.4869 10.3852 10.4091 10.4225 10.3531 10.4841C10.2971 10.5458 10.2673 10.6268 10.27 10.71C10.3019 11.2474 10.2818 11.7865 10.21 12.32C9.91968 12.2839 9.63229 12.2271 9.35003 12.15C9.00828 12.0823 8.6536 12.1391 8.35003 12.31C8.18991 12.4351 8.06449 12.5991 7.98572 12.7864C7.90695 12.9737 7.87745 13.1781 7.90003 13.38C7.90147 13.7415 8.02084 14.0926 8.24003 14.38C8.56243 14.7754 8.99894 15.0618 9.49003 15.2L10.09 15.31C10.1341 15.7155 10.1341 16.1245 10.09 16.53C10.0612 17.0105 9.9171 17.4769 9.67003 17.89C9.67003 17.94 9.57003 17.94 9.51003 17.96C9.3013 18.0197 9.08671 18.0566 8.87003 18.07H7.62003C7.12898 18.0828 6.63765 18.0594 6.15003 18C5.8756 17.9748 5.60798 17.9003 5.36003 17.78C5.2146 17.7015 5.09091 17.5881 5.00003 17.45C4.78003 17.11 4.61003 16.72 4.42003 16.45C3.64053 15.4097 2.93863 14.3134 2.32003 13.17C1.9221 12.4093 1.60697 11.608 1.38003 10.78C1.37573 10.7405 1.36304 10.7023 1.34283 10.668C1.32261 10.6337 1.29532 10.6042 1.26278 10.5813C1.23024 10.5584 1.1932 10.5427 1.15412 10.5352C1.11504 10.5278 1.07482 10.5288 1.03614 10.5381C0.997457 10.5474 0.961206 10.5648 0.929798 10.5893C0.89839 10.6137 0.872547 10.6445 0.853992 10.6797C0.835436 10.7149 0.824593 10.7536 0.822186 10.7933C0.819778 10.8331 0.825861 10.8728 0.84003 10.91C1.02525 11.7941 1.3139 12.6534 1.70003 13.47C2.28304 14.6825 2.95139 15.8521 3.70003 16.97C3.91003 17.29 4.08003 17.78 4.33003 18.16C4.47209 18.3838 4.66369 18.572 4.89003 18.71C5.23667 18.8927 5.61214 19.0145 6.00003 19.07L6.47003 19.13V19.86C6.47583 20.0696 6.51988 20.2763 6.60003 20.47C6.68602 20.6779 6.82371 20.8603 7.00003 21L7.18003 21.1C7.17518 21.1298 7.17518 21.1602 7.18003 21.19C7.21717 21.7717 7.38099 22.3383 7.66003 22.85C7.88632 23.2279 8.21594 23.5332 8.61003 23.73C9.08686 23.9402 9.60595 24.037 10.1265 24.0127C10.647 23.9884 11.1548 23.8437 11.61 23.59C12.0897 23.3548 12.4749 22.9631 12.7022 22.4795C12.9294 21.996 12.9851 21.4494 12.86 20.93C13.0173 20.8545 13.165 20.7605 13.3 20.65C13.524 20.438 13.7018 20.182 13.8223 19.8981C13.9427 19.6141 14.0032 19.3084 14 19H14.54C15.0428 18.9581 15.5307 18.808 15.97 18.56C16.211 18.4111 16.4078 18.2005 16.54 17.95C16.6821 17.6581 16.8057 17.3575 16.91 17.05C17.2 16.32 17.53 15.6 17.82 14.87C17.95 14.54 18.07 14.22 18.18 13.87C18.35 13.36 18.5 12.87 18.62 12.31C18.7391 11.7765 18.8193 11.2351 18.86 10.69C18.8922 10.3742 18.8922 10.0559 18.86 9.74001C18.8462 9.65388 18.8151 9.57143 18.7688 9.49755C18.7224 9.42368 18.6616 9.3599 18.59 9.31001ZM11.52 22.49C11.1505 22.7284 10.7282 22.8727 10.29 22.91C9.85653 22.9699 9.41504 22.9289 9.00003 22.79C8.67589 22.6861 8.3971 22.4744 8.21003 22.19C8.04322 21.9264 7.91524 21.6401 7.83003 21.34H7.89003C8.29025 21.4039 8.69475 21.4374 9.10003 21.44C9.69003 21.44 10.28 21.37 10.84 21.33C11.307 21.2921 11.7713 21.2253 12.23 21.13C12.2399 21.3988 12.1796 21.6656 12.0551 21.904C11.9306 22.1425 11.7462 22.3444 11.52 22.49ZM12.77 20C12.1447 20.2857 11.4507 20.3863 10.77 20.29C10.13 20.34 9.46003 20.39 8.77003 20.4C8.50024 20.415 8.22982 20.415 7.96003 20.4C7.80868 20.3924 7.65981 20.3585 7.52003 20.3C7.39752 20.2636 7.28925 20.1903 7.21003 20.09C7.13808 19.9504 7.09714 19.7969 7.09003 19.64C7.08038 19.4768 7.08038 19.3132 7.09003 19.15H7.60003C8.23198 19.165 8.86409 19.1282 9.49003 19.04C9.78272 18.9851 10.0595 18.8655 10.3 18.69C10.3442 18.7431 10.4035 18.7815 10.47 18.8C10.6813 18.8392 10.8953 18.8626 11.11 18.87H12.47L13.32 18.95C13.3057 19.1535 13.2494 19.3518 13.1547 19.5325C13.0601 19.7132 12.9291 19.8723 12.77 20Z" fill="black"/>
<path d="M23.58 4.3C23.4143 3.85485 23.2206 3.42065 23 3C22.7046 2.3208 22.257 1.71863 21.6917 1.24005C21.1264 0.761468 20.4586 0.419301 19.74 0.240004C18.3505 -0.112075 16.8912 -0.0774943 15.52 0.340004C15.4791 0.351493 15.4409 0.371017 15.4076 0.397435C15.3743 0.423853 15.3466 0.456637 15.3261 0.493873C15.3057 0.531109 15.2928 0.572051 15.2883 0.61431C15.2838 0.656569 15.2878 0.699299 15.3 0.740004C15.3255 0.818993 15.3797 0.885499 15.452 0.926271C15.5243 0.967043 15.6093 0.979087 15.69 0.960004C16.9427 0.610186 18.2673 0.610186 19.52 0.960004C20.1174 1.12368 20.6686 1.42385 21.1302 1.83686C21.5918 2.24987 21.9512 2.76443 22.18 3.34C22.25 3.51 22.41 3.86 22.53 4.21C22.65 4.56 22.73 4.67 22.69 4.8C22.65 4.93 22.56 4.91 22.48 4.97C22.25 5.12 21.96 5.26 21.73 5.4C21.589 5.48838 21.4611 5.5961 21.35 5.72C21.2913 5.78477 21.246 5.86055 21.2169 5.94295C21.1877 6.02535 21.1752 6.11272 21.18 6.2C21.18 6.36 21.25 6.62 21.25 6.74C21.2381 6.96534 21.173 7.18465 21.06 7.38C21.0315 7.45057 20.9852 7.51254 20.9256 7.55986C20.866 7.60718 20.7952 7.63824 20.72 7.65C20.49 7.65 20.39 7.51 20.29 7.36C20.1454 7.11477 19.978 6.88375 19.79 6.67C19.6127 6.4785 19.3833 6.34296 19.13 6.28C18.9692 6.23937 18.8008 6.23937 18.64 6.28C18.2775 6.42294 17.9265 6.59344 17.59 6.79C17.5059 6.83966 17.4149 6.87672 17.32 6.9C17.32 6.9 17.27 6.9 17.25 6.9C17.1732 6.79295 17.1063 6.67915 17.05 6.56C16.88 6.19 16.75 5.75 16.59 5.43L16.52 5.29C17.0311 4.99136 17.4712 4.58534 17.81 4.1C17.9797 3.83767 18.0441 3.52094 17.9903 3.21317C17.9366 2.9054 17.7686 2.62927 17.52 2.44C17.3949 2.31663 17.2465 2.21947 17.0833 2.15421C16.9202 2.08896 16.7457 2.05693 16.57 2.06C16.0479 2.16144 15.5383 2.31902 15.05 2.53L15 2.36L14.44 0.810004C14.4148 0.738396 14.3622 0.679729 14.2938 0.64691C14.2253 0.614091 14.1466 0.609809 14.075 0.635004C14.0034 0.6602 13.9447 0.71281 13.9119 0.78126C13.8791 0.849711 13.8748 0.928396 13.9 1L14.39 2.57C14.39 2.57 14.48 2.89 14.53 3C14.5565 3.06842 14.6033 3.12711 14.664 3.16821C14.7248 3.20932 14.7967 3.23088 14.87 3.23C15.36 3.23 15.87 2.89 16.38 2.81C16.4909 2.78249 16.6071 2.78564 16.7163 2.81911C16.8255 2.85258 16.9236 2.9151 17 3C17.0989 3.08212 17.1646 3.19738 17.1848 3.32431C17.2051 3.45125 17.1785 3.58121 17.11 3.69C16.74 4.14661 16.2762 4.51834 15.75 4.78C15.6685 4.82633 15.6023 4.89553 15.5596 4.97906C15.517 5.06259 15.4997 5.15678 15.51 5.25C15.5594 5.47538 15.6367 5.69372 15.74 5.9C15.88 6.22 16 6.66 16.15 7.04C16.2342 7.23866 16.3416 7.42664 16.47 7.6C16.5642 7.72556 16.6866 7.82719 16.8273 7.89668C16.968 7.96617 17.1231 8.00157 17.28 8C17.6794 7.95571 18.0629 7.81874 18.4 7.6C18.6 7.49 18.93 7.36 18.93 7.36C19.0683 7.47779 19.1836 7.6202 19.27 7.78C19.4084 8.01402 19.5764 8.22914 19.77 8.42C19.9114 8.54985 20.0797 8.64679 20.263 8.70385C20.4463 8.7609 20.6399 8.77667 20.83 8.75C21.0282 8.72948 21.2198 8.66717 21.3922 8.5672C21.5646 8.46723 21.7138 8.33185 21.83 8.17C22.1266 7.76953 22.2941 7.28812 22.31 6.79C22.3351 6.62428 22.3351 6.45573 22.31 6.29C22.59 6.09 23.01 5.9 23.31 5.67C23.4644 5.53322 23.5843 5.3619 23.66 5.17C23.7221 4.8786 23.6942 4.5752 23.58 4.3Z" fill="black"/>
</g>
<defs>
<clipPath id="clip0_1031_3013">
<rect width="24" height="24" fill="white"/>
</clipPath>
</defs>
</svg>
