<svg width="24" height="24" viewBox="0 0 24 24" fill="none" xmlns="http://www.w3.org/2000/svg">
<g clip-path="url(#clip0_1031_3101)">
<path d="M7.05002 18.41C6.96756 18.4292 6.89563 18.4793 6.8491 18.5501C6.80256 18.6208 6.785 18.7067 6.80002 18.79C6.80718 18.8311 6.82254 18.8703 6.84519 18.9053C6.86785 18.9403 6.89733 18.9703 6.93187 18.9937C6.96641 19.017 7.00531 19.0331 7.04623 19.0411C7.08715 19.0491 7.12925 19.0487 7.17002 19.04C7.34856 19.0158 7.53007 19.0519 7.68582 19.1424C7.84158 19.233 7.9627 19.3729 8.03002 19.54C8.21834 19.9135 8.28479 20.3367 8.22002 20.75C8.15084 21.0942 8.01344 21.4211 7.81594 21.7113C7.61843 22.0016 7.36481 22.2493 7.07002 22.44C6.80192 22.646 6.4922 22.7911 6.16238 22.8654C5.83256 22.9396 5.49052 22.9412 5.16002 22.87C4.65737 22.7371 4.21837 22.4298 3.92157 22.0029C3.62477 21.576 3.48952 21.0575 3.54002 20.54C3.54002 19.69 4.09002 18.4 5.54002 18.65C5.57614 18.6585 5.61358 18.6599 5.65021 18.654C5.68684 18.648 5.72195 18.6349 5.75352 18.6154C5.78509 18.5959 5.81251 18.5704 5.83422 18.5403C5.85592 18.5102 5.87149 18.4761 5.88002 18.44C5.88856 18.4039 5.8899 18.3665 5.88397 18.3298C5.87803 18.2932 5.86494 18.2581 5.84544 18.2265C5.82594 18.1949 5.80041 18.1675 5.77031 18.1458C5.74022 18.1241 5.70614 18.1085 5.67002 18.1C4.29002 17.72 2.89002 18.49 2.67002 20.49C2.57048 21.2339 2.74066 21.9888 3.14974 22.618C3.55883 23.2473 4.17975 23.7091 4.90002 23.92C5.38169 24.0245 5.88068 24.0195 6.36013 23.9052C6.83958 23.791 7.28723 23.5705 7.67002 23.26C8.05164 22.9722 8.37139 22.6105 8.6102 22.1964C8.84901 21.7824 9.00199 21.3245 9.06002 20.85C9.09531 20.4929 9.05958 20.1323 8.95488 19.7891C8.85019 19.4458 8.67861 19.1267 8.45002 18.85C8.28023 18.6543 8.05947 18.5096 7.8123 18.4319C7.56512 18.3542 7.30124 18.3466 7.05002 18.41Z" fill="black"/>
<path d="M10.39 5.34001C9.97825 4.92332 9.64012 4.43979 9.39005 3.91001C9.35546 3.84062 9.29685 3.78614 9.22511 3.75672C9.15338 3.72729 9.0734 3.7249 9.00005 3.75001C8.92281 3.78693 8.86295 3.85242 8.83309 3.93265C8.80324 4.01289 8.80573 4.10158 8.84005 4.18001C9.14258 4.94011 9.61057 5.62331 10.21 6.18001C10.8538 6.76325 11.6914 7.08626 12.56 7.08626C13.4287 7.08626 14.2663 6.76325 14.91 6.18001C15.3652 5.79431 15.7183 5.30238 15.9381 4.74772C16.1579 4.19306 16.2375 3.59279 16.17 3.00001C16.1576 2.54581 16.0468 2.09973 15.8452 1.69254C15.6436 1.28535 15.356 0.926765 15.0024 0.641538C14.6487 0.356312 14.2373 0.151239 13.7967 0.0404793C13.356 -0.0702805 12.8966 -0.084089 12.45 7.13021e-06C11.6169 0.107345 10.8329 0.454735 10.1937 0.99984C9.55446 1.54495 9.08762 2.26422 8.85005 3.07001C8.83353 3.10535 8.82431 3.14366 8.82294 3.18265C8.82157 3.22164 8.82809 3.2605 8.84209 3.29691C8.8561 3.33332 8.87731 3.36654 8.90445 3.39456C8.93159 3.42258 8.9641 3.44484 9.00005 3.46001C9.0355 3.47073 9.07273 3.47432 9.10958 3.47056C9.14643 3.46679 9.18216 3.45576 9.21472 3.43808C9.24727 3.42041 9.27599 3.39646 9.29922 3.36761C9.32245 3.33875 9.33973 3.30558 9.35005 3.27001C9.59868 2.61056 10.0334 2.03747 10.6014 1.62032C11.1695 1.20317 11.8464 0.959883 12.55 0.920007C12.865 0.875977 13.1856 0.899495 13.4907 0.988998C13.7959 1.0785 14.0784 1.23194 14.3196 1.4391C14.5609 1.64627 14.7552 1.90242 14.8898 2.19052C15.0243 2.47862 15.096 2.79206 15.1 3.11001C15.1361 3.52872 15.0724 3.95002 14.9143 4.33937C14.7561 4.72873 14.5079 5.07507 14.19 5.35001C13.9403 5.5997 13.6438 5.79759 13.3173 5.93229C12.9909 6.06699 12.6411 6.13586 12.288 6.13493C11.9348 6.134 11.5854 6.0633 11.2597 5.92688C10.934 5.79046 10.6384 5.59101 10.39 5.34001Z" fill="black"/>
<path d="M21.35 20.49C21.2 18.86 20 17.66 18.35 18.1C18.3139 18.1085 18.2798 18.1241 18.2497 18.1458C18.2196 18.1675 18.1941 18.1949 18.1746 18.2265C18.1551 18.2581 18.142 18.2932 18.1361 18.3298C18.1302 18.3664 18.1315 18.4039 18.14 18.44C18.1486 18.4761 18.1641 18.5102 18.1858 18.5403C18.2075 18.5704 18.235 18.5959 18.2665 18.6154C18.2981 18.6349 18.3332 18.648 18.3698 18.6539C18.4065 18.6599 18.4439 18.6585 18.48 18.65C19.88 18.4 20.41 19.65 20.43 20.54C20.4805 21.0575 20.3453 21.576 20.0485 22.0029C19.7517 22.4298 19.3127 22.7371 18.81 22.87C18.4795 22.9412 18.1375 22.9396 17.8077 22.8653C17.4779 22.7911 17.1681 22.646 16.9 22.44C16.6052 22.2493 16.3516 22.0015 16.1541 21.7113C15.9566 21.421 15.8192 21.0942 15.75 20.75C15.7036 20.3304 15.7911 19.9068 16 19.54C16.0674 19.3729 16.1885 19.233 16.3442 19.1424C16.5 19.0519 16.6815 19.0158 16.86 19.04C16.9008 19.0487 16.9429 19.0491 16.9838 19.0411C17.0247 19.0331 17.0636 19.017 17.0982 18.9937C17.1327 18.9703 17.1622 18.9403 17.1849 18.9053C17.2075 18.8703 17.2229 18.8311 17.23 18.79C17.2451 18.7067 17.2275 18.6208 17.181 18.55C17.1344 18.4793 17.0625 18.4292 16.98 18.41C16.7261 18.3501 16.4604 18.3623 16.213 18.4454C15.9656 18.5284 15.7464 18.679 15.58 18.88C15.3514 19.1566 15.1799 19.4758 15.0752 19.819C14.9705 20.1623 14.9347 20.5229 14.97 20.88C15.0281 21.3544 15.181 21.8124 15.4199 22.2264C15.6587 22.6405 15.9784 23.0022 16.36 23.29C16.7428 23.6005 17.1905 23.821 17.6699 23.9352C18.1494 24.0494 18.6484 24.0545 19.13 23.95C19.8542 23.7365 20.4772 23.2692 20.885 22.6338C21.2927 21.9984 21.4578 21.2373 21.35 20.49Z" fill="black"/>
<path d="M16.89 14.18C17.5799 14.625 18.0873 15.3027 18.32 16.09C18.3933 16.3149 18.4469 16.5458 18.48 16.78C18.72 17.78 19 17.78 19.32 16.78C19.2831 16.2611 19.1754 15.7497 19 15.26C18.7086 14.4598 18.1866 13.7638 17.5 13.26C16.8484 12.827 16.1377 12.4902 15.39 12.26C14.7041 12.0901 14.0348 11.8591 13.39 11.57C12.9421 11.3362 12.5888 10.9546 12.39 10.49C12.3947 10.4602 12.3947 10.4298 12.39 10.4C12.45 9.92001 12.52 9.45001 12.56 8.97001V8.36001V8.21001C12.38 7.30001 11.82 7.21001 11.5 8.21001V8.37001V8.98001C11.5 9.41001 11.61 10.32 11.59 10.37C11.4047 10.895 11.0204 11.326 10.52 11.57C9.87522 11.8591 9.20589 12.0901 8.52 12.26C7.77227 12.4902 7.06162 12.827 6.41 13.26C5.72339 13.7638 5.20143 14.4598 4.91 15.26C4.7379 15.7571 4.63363 16.2751 4.6 16.8C4.43 17.64 4.6 17.9 5.44 16.8C5.47313 16.5592 5.52665 16.3217 5.6 16.09C5.83273 15.3027 6.34012 14.625 7.03 14.18C7.64036 13.7851 8.30362 13.4787 9 13.27C9.71741 13.0116 10.4047 12.6763 11.05 12.27C11.4742 11.9847 11.8184 11.5957 12.05 11.14C12.2816 11.5957 12.6258 11.9847 13.05 12.27C13.6953 12.6763 14.3826 13.0116 15.1 13.27C15.7339 13.4938 16.3357 13.7997 16.89 14.18Z" fill="black"/>
</g>
<defs>
<clipPath id="clip0_1031_3101">
<rect width="24" height="24" fill="white"/>
</clipPath>
</defs>
</svg>
