<svg width="24" height="24" viewBox="0 0 24 24" fill="none" xmlns="http://www.w3.org/2000/svg">
<g clip-path="url(#clip0_1049_7527)">
<path fill-rule="evenodd" clip-rule="evenodd" d="M23.41 18.78C23.0413 18.0479 22.5955 17.3573 22.08 16.72C21.6893 16.26 21.1813 15.9144 20.61 15.72C20.3368 15.6581 20.0513 15.679 19.79 15.78C19.38 15.9 18.88 16.16 18.44 16.32C18.3156 16.3614 18.1887 16.3948 18.06 16.42C18.06 16.42 17.96 16.42 17.93 16.42C17.7723 16.3054 17.6368 16.1631 17.53 16C17.2 15.54 16.92 14.95 16.63 14.56C16.2852 14.0608 15.8471 13.633 15.34 13.3C15.1129 13.1521 14.8503 13.0676 14.5795 13.0553C14.3088 13.043 14.0396 13.1033 13.8 13.23C13.4648 13.4233 13.2121 13.7328 13.09 14.1C12.9414 14.5907 12.9697 15.118 13.17 15.59C13.3398 15.9741 13.5546 16.3366 13.81 16.67C14.372 17.3054 14.8962 17.9732 15.38 18.67C15.52 18.91 15.68 19.14 15.81 19.39L15.9 19.58C15.4199 19.3546 14.9214 19.1706 14.41 19.03C14.1378 18.981 13.8573 19.0087 13.6 19.11C13.4257 19.186 13.2767 19.31 13.1705 19.4677C13.0642 19.6253 13.0051 19.81 13 20C12.9746 20.6145 13.1387 21.2219 13.47 21.74C13.7793 22.201 14.1941 22.5815 14.68 22.85C15.68 23.41 16.85 23.44 18.01 23.96C18.0434 23.977 18.0798 23.9871 18.1172 23.9897C18.1545 23.9923 18.192 23.9874 18.2275 23.9753C18.2629 23.9632 18.2955 23.9441 18.3235 23.9191C18.3514 23.8942 18.374 23.8639 18.39 23.83C18.407 23.7966 18.4171 23.7602 18.4197 23.7228C18.4223 23.6855 18.4174 23.648 18.4053 23.6125C18.3932 23.5771 18.3741 23.5445 18.3491 23.5165C18.3242 23.4886 18.2939 23.466 18.26 23.45C17.26 22.96 16.31 22.84 15.45 22.45C14.9027 22.2107 14.442 21.8093 14.13 21.3C13.9802 21.0349 13.885 20.7425 13.85 20.44C13.85 20.25 13.79 20.05 13.96 19.99C14.1436 19.9426 14.338 19.9602 14.51 20.04C15.1603 20.3737 15.8535 20.616 16.57 20.76C16.7072 20.7601 16.839 20.707 16.9379 20.6119C17.0367 20.5168 17.0948 20.3871 17.1 20.25C17.0889 20.0305 17.0554 19.8127 17 19.6C16.9394 19.3785 16.8556 19.164 16.75 18.96C16.62 18.69 16.45 18.44 16.31 18.19C15.8149 17.4278 15.2739 16.6964 14.69 16C14.4864 15.7328 14.312 15.4445 14.17 15.14C14.0845 14.9453 14.0567 14.7301 14.09 14.52C14.0976 14.441 14.1232 14.3648 14.1648 14.2972C14.2064 14.2296 14.2629 14.1724 14.33 14.13C14.56 14 14.79 14.13 15.01 14.29C15.3264 14.5311 15.6089 14.8136 15.85 15.13C16.15 15.51 16.44 16.13 16.79 16.53C16.9638 16.7677 17.1769 16.9739 17.42 17.14C17.5619 17.2196 17.7192 17.268 17.8813 17.2818C18.0435 17.2956 18.2067 17.2745 18.36 17.22C18.8319 17.0562 19.2928 16.8625 19.74 16.64C20 16.53 20.23 16.4 20.39 16.45C20.8341 16.5819 21.2347 16.8306 21.55 17.17C22.0452 17.7587 22.4806 18.3952 22.85 19.07C22.8716 19.1062 22.9001 19.1377 22.934 19.1629C22.9678 19.188 23.0063 19.2062 23.0471 19.2164C23.088 19.2266 23.1305 19.2287 23.1722 19.2224C23.2139 19.2162 23.2539 19.2018 23.29 19.18C23.3546 19.1387 23.4022 19.0757 23.4242 19.0023C23.4463 18.9289 23.4412 18.85 23.41 18.78Z" fill="black"/>
<path fill-rule="evenodd" clip-rule="evenodd" d="M17.17 3.76999C17.2097 2.94911 17.0804 2.12882 16.79 1.35999C16.39 0.819994 15 0.399994 13.18 0.209994C10.4287 -0.0340481 7.66125 -0.0340481 4.90999 0.209994C4.23505 0.297978 3.56685 0.431618 2.90999 0.609994C2.4057 0.756937 1.94318 1.02074 1.55999 1.37999C1.29997 1.67042 1.10858 2.0156 0.999989 2.38999C0.709821 3.63232 0.565513 4.90424 0.569989 6.17999C0.451741 8.54444 0.616238 10.9146 1.05999 13.24C1.18225 13.6666 1.35691 14.0764 1.57999 14.46C1.75395 14.7614 2.00619 15.0102 2.30999 15.18C2.62662 15.3215 2.96455 15.4093 3.30999 15.44H4.69999C5.95999 15.44 7.79999 15.33 9.41999 15.28H11.42C11.4943 15.28 11.5655 15.2505 11.618 15.198C11.6705 15.1455 11.7 15.0743 11.7 15C11.7 14.9257 11.6705 14.8545 11.618 14.802C11.5655 14.7495 11.4943 14.72 11.42 14.72C11.01 14.72 10.55 14.67 10.06 14.66C9.92999 14.66 5.86999 14.74 4.68999 14.66H3.35999C3.10689 14.6362 2.85987 14.5685 2.62999 14.46C2.48069 14.3391 2.3667 14.1802 2.29999 14C2.12326 13.6857 1.98877 13.3495 1.89999 13C1.69061 10.7563 1.59715 8.50331 1.61999 6.24999C1.66509 5.19175 1.79214 4.1386 1.99999 3.09999C2.03905 2.74127 2.16615 2.39775 2.36999 2.09999C2.62863 1.86247 2.94081 1.69094 3.27999 1.59999C3.87807 1.43765 4.486 1.31406 5.09999 1.22999C5.57999 1.13999 11.1 1.04999 11.95 1.09999C13.0022 1.13059 14.0496 1.2544 15.08 1.46999C15.4468 1.51098 15.7939 1.6568 16.08 1.88999C16.2756 2.51031 16.3602 3.16027 16.33 3.80999C16.38 4.72999 16.39 11.81 16.5 12.63C16.5037 12.6721 16.5158 12.713 16.5355 12.7504C16.5551 12.7878 16.582 12.821 16.6146 12.8479C16.6471 12.8749 16.6847 12.8951 16.7251 12.9075C16.7655 12.9199 16.8079 12.9241 16.85 12.92C16.9358 12.9099 17.0143 12.8666 17.0686 12.7993C17.1228 12.7319 17.1484 12.646 17.14 12.56C17 11.15 17.25 6.55999 17.17 3.76999Z" fill="black"/>
<path fill-rule="evenodd" clip-rule="evenodd" d="M10.35 6.99999H9.63998V6.09999C9.63998 5.39999 9.63998 4.69999 9.57998 3.98999C9.51998 3.27999 9.57998 2.62999 9.66998 1.79999C9.66998 1.34999 8.98998 1.22999 8.92998 1.94999C8.68843 3.50149 8.57139 5.06983 8.57998 6.63999V7.05999C7.93998 7.05999 7.28998 7.17999 6.64998 7.26999C5.57998 7.41999 4.52998 7.60999 3.46998 7.72999C2.92998 7.78999 2.76998 7.80999 2.22998 7.82999C1.68998 7.84999 1.71998 8.46999 2.14998 8.47999C2.86609 8.51998 3.58387 8.51998 4.29998 8.47999C5.06998 8.47999 5.83998 8.39999 6.60998 8.32999C7.37998 8.25999 7.93998 8.19999 8.60998 8.15999C8.60998 8.71999 8.65998 9.28999 8.69998 9.85999C8.80998 11.38 8.95998 12.58 9.08998 14.09C9.08998 14.43 9.81998 14.46 9.77998 13.99C9.77998 11.93 9.77998 10.28 9.69998 8.22V8.04999C11.21 7.93999 12.7 7.91999 14.25 7.83999C14.88 7.83999 14.97 7.83999 15.6 7.72999C16.23 7.61999 16.1 6.99999 15.52 6.99999C13.6 6.99999 12.27 6.93999 10.35 6.99999Z" fill="black"/>
<path fill-rule="evenodd" clip-rule="evenodd" d="M6.16999 11.09L6.08999 11L6.21999 10.86C6.58999 10.43 6.92999 9.98999 7.32999 9.56999C7.39012 9.52426 7.43003 9.45688 7.44124 9.38218C7.45244 9.30747 7.43405 9.23134 7.38999 9.16999C7.33337 9.12007 7.26047 9.09253 7.18499 9.09253C7.1095 9.09253 7.03661 9.12007 6.97999 9.16999C6.4625 9.46609 5.9678 9.80035 5.49999 10.17C5.40999 10.24 5.33999 10.32 5.25999 10.39C4.78999 10.07 4.25999 9.80999 3.83999 9.47999C3.81373 9.45372 3.78255 9.43289 3.74823 9.41868C3.71391 9.40446 3.67713 9.39715 3.63999 9.39715C3.60285 9.39715 3.56607 9.40446 3.53175 9.41868C3.49743 9.43289 3.46625 9.45372 3.43999 9.47999C3.41373 9.50625 3.39289 9.53743 3.37868 9.57175C3.36446 9.60607 3.35715 9.64285 3.35715 9.67999C3.35715 9.71713 3.36446 9.75391 3.37868 9.78823C3.39289 9.82254 3.41373 9.85372 3.43999 9.87999C3.78704 10.3288 4.1646 10.7531 4.56999 11.15L4.44999 11.29C4.1055 11.7698 3.79155 12.2708 3.50999 12.79C3.48504 12.8241 3.46706 12.8629 3.45707 12.9039C3.44709 12.945 3.44529 12.9877 3.45179 13.0295C3.45829 13.0713 3.47296 13.1114 3.49496 13.1475C3.51695 13.1836 3.54585 13.215 3.57999 13.24C3.61413 13.2649 3.65286 13.2829 3.69395 13.2929C3.73504 13.3029 3.7777 13.3047 3.81949 13.2982C3.86127 13.2917 3.90137 13.277 3.93749 13.255C3.97361 13.233 4.00504 13.2041 4.02999 13.17C4.41999 12.74 4.82999 12.35 5.22999 11.95L5.36999 11.82L5.64999 12.04C6.11804 12.3338 6.56878 12.6543 6.99999 13C7.0599 13.0592 7.14074 13.0924 7.22499 13.0924C7.30924 13.0924 7.39008 13.0592 7.44999 13C7.48055 12.971 7.50489 12.9361 7.52153 12.8974C7.53816 12.8588 7.54674 12.8171 7.54674 12.775C7.54674 12.7329 7.53816 12.6912 7.52153 12.6525C7.50489 12.6138 7.48055 12.579 7.44999 12.55C7.08084 12.0158 6.65134 11.5259 6.16999 11.09Z" fill="black"/>
<path fill-rule="evenodd" clip-rule="evenodd" d="M3.15 4.87C3.66 4.87 4.14999 4.81 4.65999 4.78C4.65451 4.81646 4.65451 4.85354 4.65999 4.89C4.69869 5.38915 4.77897 5.8842 4.9 6.37C4.89733 6.41738 4.90492 6.46478 4.92224 6.50896C4.93955 6.55314 4.9662 6.59307 5.00035 6.62602C5.0345 6.65897 5.07536 6.68417 5.12014 6.69989C5.16491 6.71561 5.21255 6.72149 5.25981 6.71713C5.30706 6.71277 5.35282 6.69827 5.39396 6.67461C5.4351 6.65096 5.47066 6.61871 5.4982 6.58007C5.52574 6.54142 5.54463 6.49729 5.55357 6.45069C5.56251 6.40408 5.56129 6.35609 5.55 6.31C5.55 5.84 5.65 5.36 5.69 4.87C5.69498 4.80677 5.69498 4.74324 5.69 4.68H5.76999C6.04999 4.68 6.32 4.59 6.61 4.58C6.89631 4.56 7.18368 4.56 7.46999 4.58C7.55331 4.59503 7.63922 4.57746 7.70995 4.53093C7.78068 4.4844 7.83081 4.41246 7.84999 4.33C7.85876 4.28862 7.85922 4.24591 7.85138 4.20435C7.84353 4.16278 7.82751 4.12319 7.80427 4.08785C7.78102 4.05251 7.75099 4.02213 7.71593 3.99847C7.68087 3.97481 7.64146 3.95834 7.59999 3.95C7.08269 3.77305 6.5451 3.66217 5.99999 3.62C5.92675 3.61502 5.85324 3.61502 5.78 3.62C5.78 3.15 5.68999 2.69 5.63999 2.24C5.64271 2.20241 5.6378 2.16466 5.62558 2.12901C5.61335 2.09336 5.59405 2.06055 5.56884 2.03254C5.54363 2.00452 5.51303 1.98189 5.47886 1.96599C5.44469 1.95009 5.40766 1.94125 5.36999 1.94C5.29472 1.93723 5.22131 1.96386 5.16532 2.01425C5.10933 2.06464 5.07514 2.13485 5.07 2.21C4.97 2.68 4.84 3.14 4.76 3.63C4.75559 3.66319 4.75559 3.69681 4.76 3.73C4.70681 3.72437 4.65318 3.72437 4.59999 3.73C4.05312 3.88779 3.51839 4.08497 2.99999 4.32C2.92807 4.33893 2.86617 4.38478 2.82708 4.44806C2.788 4.51133 2.77472 4.58721 2.78999 4.66C2.79927 4.69776 2.81605 4.73327 2.83933 4.76441C2.86261 4.79555 2.89191 4.8217 2.92549 4.84129C2.95908 4.86088 2.99626 4.87352 3.03483 4.87845C3.07339 4.88338 3.11256 4.88051 3.15 4.87Z" fill="black"/>
<path fill-rule="evenodd" clip-rule="evenodd" d="M11.15 4.53999C11.605 4.58851 12.0624 4.61188 12.52 4.60999C12.7818 4.588 13.0423 4.55127 13.3 4.49999C13.69 4.43999 14.06 4.32999 14.45 4.28999C14.4918 4.29563 14.5343 4.29239 14.5747 4.28049C14.6152 4.26859 14.6527 4.2483 14.6848 4.22093C14.7168 4.19357 14.7428 4.15975 14.7609 4.12168C14.7791 4.08361 14.789 4.04215 14.79 3.99999C14.7941 3.95794 14.7899 3.91548 14.7775 3.87507C14.7651 3.83466 14.7449 3.7971 14.7179 3.76456C14.691 3.73202 14.6578 3.70514 14.6204 3.68548C14.583 3.66581 14.5421 3.65375 14.5 3.64999C14.0901 3.54956 13.6715 3.48928 13.25 3.46999C13.0768 3.46001 12.9032 3.46001 12.73 3.46999C12.5583 3.4894 12.388 3.51946 12.22 3.55999C11.81 3.66999 11.46 3.82999 11.08 3.94999C11.0047 3.95999 10.9364 3.9991 10.8896 4.05893C10.8429 4.11877 10.8215 4.19454 10.83 4.26999C10.831 4.30954 10.8404 4.34842 10.8575 4.38408C10.8746 4.41974 10.8991 4.45137 10.9293 4.47688C10.9596 4.50239 10.9949 4.5212 11.0329 4.53208C11.0709 4.54296 11.1108 4.54566 11.15 4.53999Z" fill="black"/>
<path fill-rule="evenodd" clip-rule="evenodd" d="M14.12 11.44C14.1964 11.4265 14.2656 11.3866 14.3155 11.3272C14.3654 11.2677 14.3928 11.1926 14.3928 11.115C14.3928 11.0374 14.3654 10.9623 14.3155 10.9029C14.2656 10.8434 14.1964 10.8035 14.12 10.79C13.78 10.79 13.47 10.72 13.12 10.72H12.7C12.5645 10.7394 12.4307 10.7695 12.3 10.81C11.98 10.92 11.71 11.07 11.41 11.2C11.3417 11.2184 11.2825 11.2611 11.2434 11.3201C11.2044 11.3791 11.1883 11.4503 11.1982 11.5203C11.208 11.5904 11.2431 11.6544 11.2968 11.7004C11.3506 11.7464 11.4193 11.7711 11.49 11.77C11.83 11.77 12.14 11.84 12.49 11.84H12.89L13.28 11.74C13.54 11.64 13.82 11.53 14.12 11.44Z" fill="black"/>
<path fill-rule="evenodd" clip-rule="evenodd" d="M13.09 9.07999C12.9502 9.07018 12.8098 9.07018 12.67 9.07999C12.5333 9.09789 12.399 9.13145 12.27 9.17999C11.9664 9.29363 11.6693 9.42383 11.38 9.56999C11.3421 9.57478 11.3055 9.58729 11.2726 9.60674C11.2397 9.62619 11.2111 9.65218 11.1886 9.6831C11.1661 9.71401 11.1502 9.74921 11.1419 9.78651C11.1335 9.82381 11.1329 9.86243 11.14 9.89999C11.1522 9.97276 11.1927 10.0377 11.2527 10.0808C11.3126 10.1239 11.3871 10.1416 11.46 10.13C11.7916 10.1736 12.1255 10.197 12.46 10.2C12.5931 10.2103 12.7268 10.2103 12.86 10.2C12.992 10.1795 13.1223 10.1495 13.25 10.11C13.56 10.02 13.84 9.89999 14.14 9.80999C14.2258 9.80234 14.3052 9.76145 14.3612 9.69606C14.4173 9.63066 14.4455 9.54594 14.44 9.45999C14.4299 9.37601 14.388 9.29909 14.3229 9.24513C14.2577 9.19116 14.1744 9.16426 14.09 9.16999C13.7594 9.11445 13.4251 9.08436 13.09 9.07999Z" fill="black"/>
</g>
<defs>
<clipPath id="clip0_1049_7527">
<rect width="24" height="24" fill="white"/>
</clipPath>
</defs>
</svg>
