<svg width="24" height="24" viewBox="0 0 24 24" fill="none" xmlns="http://www.w3.org/2000/svg">
<g clip-path="url(#clip0_1047_5956)">
<path d="M23.63 12.88C22.76 10.33 20.13 12.41 18.01 13.94C18.01 12.1 18.23 10.83 15.1 10.48C17.82 8.88001 16.58 5.23001 14.1 4.74001C11.91 4.37001 9.8 5.89001 10.19 8.20001C10.2665 8.65214 10.451 9.07913 10.7278 9.44472C11.0046 9.81031 11.3656 10.1037 11.78 10.3C10.1 10.3 8.44 10.37 6.78 10.5C7.6056 10.2581 8.34916 9.79465 8.93 9.16001C10.93 6.50001 8.93 2.52001 5.93 1.93001C5.17829 1.78999 4.40578 1.80653 3.66075 1.97859C2.91572 2.15066 2.21419 2.47454 1.6 2.93001C1.00083 3.41357 0.540402 4.04718 0.265533 4.76641C-0.00933617 5.48563 -0.0888411 6.26482 0.0351029 7.02474C0.159047 7.78466 0.482019 8.4982 0.971177 9.09281C1.46033 9.68742 2.09823 10.1419 2.82 10.41C2.89201 10.4381 2.97192 10.4383 3.04407 10.4106C3.11622 10.3828 3.1754 10.3291 3.21 10.26C3.04 10.87 4.35 10.72 3.68 10.79C3.59071 10.8001 3.50872 10.8441 3.45101 10.913C3.39331 10.9819 3.3643 11.0703 3.37 11.16C3.44 11.83 4.17 11.16 9.74 11.16C11.7899 11.1072 13.8399 11.258 15.86 11.61C16.53 11.8 16.86 12 16.92 12.61V16.75C16.92 17.83 16.92 19.55 16.3 20.4C15.83 21.01 13.96 20.86 13.16 20.9C10.3151 21.2107 7.44228 21.1603 4.61 20.75C2 20.17 2 20.44 1.85 18C1.78 17 1.22 12.51 2.18 11.76C2.48136 11.6297 2.79228 11.5227 3.11 11.44C3.16406 11.4006 3.20392 11.3447 3.22362 11.2808C3.24332 11.2169 3.24181 11.1483 3.2193 11.0853C3.1968 11.0223 3.15452 10.9682 3.09877 10.9312C3.04302 10.8942 2.9768 10.8763 2.91 10.88C2.55503 10.8771 2.20767 10.9829 1.91452 11.1831C1.62138 11.3833 1.39648 11.6683 1.27 12C1.00199 13.0113 0.870823 14.0539 0.880002 15.1C0.880002 15.42 1.05 19.1 1.11 19.47C1.14534 19.8416 1.28395 20.1959 1.51015 20.4928C1.73636 20.7896 2.04113 21.0173 2.39 21.15C4.18663 21.7314 6.05346 22.0677 7.94 22.15C9.7 22.22 11.46 22.09 13.21 22.01C15.7 21.89 17.61 22.33 17.97 18.8C19.11 19.54 21.4 20.8 22.75 20.7C23.84 20.6 23.75 19.31 23.8 18.51C24.1253 16.6412 24.0675 14.7258 23.63 12.88ZM3.25 10.22C3.39 9.71001 2.5 9.93001 1.56 8.69001C1.28475 8.3217 1.08477 7.90277 0.971488 7.45715C0.858202 7.01153 0.83383 6.54795 0.899765 6.0929C0.9657 5.63786 1.12065 5.20027 1.35576 4.80513C1.59087 4.40999 1.90153 4.06505 2.27 3.79001C2.74358 3.42479 3.29303 3.1704 3.87791 3.04559C4.4628 2.92077 5.06822 2.92869 5.64964 3.06876C6.23106 3.20884 6.77367 3.47751 7.23753 3.855C7.70139 4.23249 8.07471 4.70918 8.33 5.25001C8.60123 5.77776 8.73006 6.36714 8.70375 6.95993C8.67745 7.55271 8.49692 8.12837 8.18 8.63001C7.59051 9.20237 6.87263 9.62538 6.08631 9.86372C5.29999 10.102 4.46806 10.1488 3.66 10C3.5765 9.9777 3.48763 9.98803 3.41147 10.0289C3.33531 10.0698 3.27758 10.1381 3.25 10.22ZM11 8.10001C11.0007 7.75867 11.0783 7.42187 11.2271 7.11468C11.3759 6.80749 11.5921 6.53782 11.8596 6.32573C12.127 6.11364 12.4389 5.9646 12.7719 5.8897C13.1049 5.8148 13.4505 5.81597 13.7831 5.89312C14.1156 5.97027 14.4264 6.12141 14.6924 6.3353C14.9584 6.54919 15.1728 6.82031 15.3195 7.1285C15.4663 7.43669 15.5416 7.77401 15.54 8.11534C15.5383 8.45668 15.4597 8.79325 15.31 9.10001C14.9705 9.60023 14.4573 9.95659 13.87 10.1C13.6873 10.1207 13.5027 10.1207 13.32 10.1C12.7552 10.1097 12.2065 9.91125 11.7786 9.54239C11.3508 9.17354 11.0736 8.66011 11 8.10001ZM22.57 19.7C21.5425 19.6813 20.5371 19.3989 19.65 18.88C18.44 18.28 18.32 18.05 18.02 18.15V14.7C19.1795 13.8355 20.4689 13.1604 21.84 12.7C21.9238 12.6796 22.011 12.6772 22.0958 12.6929C22.1805 12.7087 22.261 12.7422 22.3319 12.7914C22.4028 12.8405 22.4624 12.9041 22.5069 12.978C22.5514 13.0519 22.5797 13.1344 22.59 13.22C23.13 15.07 22.63 19.34 22.57 19.7Z" fill="black"/>
<path d="M3.84 13.85C3.71 19.36 3.9 19.28 8.44 18.91C9.31 18.82 10.75 19.01 11.44 18.04C11.8342 17.3051 11.9445 16.4509 11.75 15.64C11.57 14.19 11.49 12.99 9.92 12.71C8.03 12.38 6.5 13.21 4.73 13.25C4.6775 13.2497 4.62563 13.2615 4.57846 13.2846C4.5313 13.3077 4.49012 13.3413 4.45815 13.383C4.42618 13.4246 4.40429 13.4731 4.39421 13.5247C4.38412 13.5762 4.3861 13.6294 4.4 13.68C4.36636 13.6208 4.31358 13.5749 4.25036 13.5496C4.18713 13.5244 4.11721 13.5215 4.05207 13.5412C3.98694 13.561 3.93046 13.6023 3.89192 13.6584C3.85339 13.7146 3.83508 13.7821 3.84 13.85ZM9.72 13.65C10.67 13.87 10.55 14.73 10.63 15.75C10.82 18 10.38 17.55 8.32 17.75C7.7 17.83 5.32 18.3 4.9 17.82C4.48 17.34 4.46 13.82 4.43 13.74C4.82 14.4 7.8 13.2 9.72 13.65Z" fill="black"/>
<path d="M15.47 14.57C14.886 14.3957 14.2685 14.3649 13.67 14.48C13 14.67 12.67 14.63 12.5 14.95C12.44 15.06 12.5 15.18 12.69 15.31C12.7996 15.3527 12.9136 15.3829 13.03 15.4L13.72 15.56C14.3182 15.5754 14.9134 15.47 15.47 15.25C15.5602 15.25 15.6467 15.2142 15.7104 15.1504C15.7742 15.0867 15.81 15.0002 15.81 14.91C15.81 14.8198 15.7742 14.7334 15.7104 14.6696C15.6467 14.6058 15.5602 14.57 15.47 14.57Z" fill="black"/>
<path d="M15.46 16.49C15.1608 16.3685 14.8488 16.2813 14.53 16.23C13.9528 16.2385 13.3826 16.3573 12.85 16.58C12.8059 16.6027 12.769 16.6371 12.7432 16.6794C12.7173 16.7218 12.7037 16.7704 12.7037 16.82C12.7037 16.8696 12.7173 16.9182 12.7432 16.9605C12.769 17.0029 12.8059 17.0373 12.85 17.06C13.218 17.1735 13.5919 17.2669 13.97 17.34C14.1664 17.355 14.3636 17.355 14.56 17.34C14.87 17.34 15.13 17.19 15.43 17.15C15.4794 17.1644 15.5315 17.1675 15.5823 17.1588C15.633 17.1502 15.6812 17.1302 15.7231 17.1003C15.765 17.0703 15.7995 17.0312 15.8241 16.986C15.8487 16.9408 15.8627 16.8905 15.865 16.8391C15.8674 16.7876 15.858 16.7363 15.8376 16.689C15.8172 16.6418 15.7864 16.5997 15.7474 16.5661C15.7084 16.5325 15.6622 16.5082 15.6124 16.495C15.5627 16.4818 15.5105 16.4801 15.46 16.49Z" fill="black"/>
</g>
<defs>
<clipPath id="clip0_1047_5956">
<rect width="24" height="24" fill="white"/>
</clipPath>
</defs>
</svg>
