<svg width="24" height="24" viewBox="0 0 24 24" fill="none" xmlns="http://www.w3.org/2000/svg">
<g clip-path="url(#clip0_1033_3643)">
<path d="M6.36 13.53C5.25752 13.7795 4.13037 13.9036 3 13.9H2.8C2.47166 13.1358 2.27878 12.3203 2.23 11.49C1.15 6.48997 1.04 6.57997 2.23 6.21997C4.06 5.65997 5.13 5.67997 5.4 4.72997C5.4 4.60997 6.02 2.72997 6.07 2.49997L8.82 1.99997C9.43 2.77997 9.96 3.76997 10.33 3.87997C11.8231 3.87008 13.3136 3.75311 14.79 3.52997C15.99 4.33997 16.2 6.44997 16.59 8.29997C16.6019 8.3875 16.6482 8.46669 16.7185 8.52014C16.7888 8.57359 16.8775 8.59691 16.965 8.58497C17.0525 8.57304 17.1317 8.52683 17.1852 8.4565C17.2386 8.38617 17.2619 8.29749 17.25 8.20997C16.93 6.34997 16.77 3.91997 15.25 2.83997C14.71 2.44997 10.6 2.91997 10.69 2.90997C9.6 1.43997 9.69 0.909973 8.56 0.909973C7.54852 1.04292 6.5465 1.23998 5.56 1.49997C5 1.79997 4.56 3.36997 4.41 3.99997C4.19 3.28997 4.13 2.82997 3.65 2.65997C2.51893 2.6951 1.40941 2.97845 0.400002 3.48997C-0.269998 3.99997 2.11596e-06 4.76997 0.500002 5.87997C2.11596e-06 6.39997 0.330002 7.45997 0.500002 8.22997C2 13.88 1.55 12.79 1.78 13.5C2.06 14.38 2.39 14.64 3.27 14.62C4.35207 14.5373 5.42561 14.3668 6.48 14.11C6.54657 14.0846 6.60192 14.0363 6.63615 13.9738C6.67038 13.9113 6.68125 13.8387 6.66682 13.7689C6.65238 13.6991 6.61358 13.6368 6.55737 13.593C6.50115 13.5492 6.43119 13.5269 6.36 13.53ZM0.940002 4.52997C0.940002 4.08997 2.78 3.93997 3.31 3.59997C3.52423 3.91536 3.70838 4.25016 3.86 4.59997C2.92103 4.82595 1.99883 5.11664 1.1 5.46997C1.01396 5.1699 0.960323 4.86147 0.940002 4.54997V4.52997Z" fill="black"/>
<path d="M23.87 14.76C23.6 13.67 23.29 13.51 22.56 13.23C22.87 12.42 23.38 11.67 22.5 11.23C22.0079 11.0867 21.5068 10.9764 21 10.9C20.8506 10.8816 20.6994 10.9132 20.57 10.99C20.4193 11.1343 20.3119 11.3179 20.26 11.52C20.1643 11.8442 20.1271 12.1828 20.15 12.52L19.15 12.22C18.62 10.36 18.93 9.99998 18 9.61998C16.8897 9.27648 15.732 9.11109 14.57 9.12998C14.06 9.33998 13.89 9.84998 13.01 10.95C13.13 9.78998 13.26 9.38998 12.87 9.02998C12.63 8.80998 9.53997 8.02998 9.01997 8.84998C8.77225 9.50341 8.66987 10.203 8.71997 10.9C8.02997 11.22 7.84997 12.81 7.19997 16.43C7.05997 17.25 6.54997 18.37 6.84997 19.29C7.14997 20.21 9.70997 20.68 10.94 20.94C21.19 23.15 19.87 22.94 20.49 23.01C20.9331 23.1109 21.3973 23.058 21.8063 22.8599C22.2153 22.6618 22.5446 22.3303 22.74 21.92C23.01 21.39 23.06 21.09 23.81 17.45C24.0444 16.571 24.0649 15.6486 23.87 14.76ZM21 11.64C21.3238 11.7669 21.6585 11.864 22 11.93C22.3 11.93 21.91 13.02 21.91 13.02L20.67 12.64C20.7343 12.2933 20.8453 11.9569 21 11.64ZM9.62997 9.71998C9.78997 9.27998 11.37 9.93998 12.17 9.79998C12.26 10.14 12.17 9.55998 12.31 11.08C11.3553 10.9043 10.3897 10.794 9.41997 10.75V10.44C9.48997 10.24 9.53997 9.99998 9.62997 9.71998ZM22.37 19.29C22.14 20.11 22.02 21.54 21.37 21.89C20.85 22.14 18.93 21.5 18.37 21.37C10.37 19.69 8.89997 19.37 8.09997 19.03C7.60997 18.8 7.75997 19.17 9.17997 11.64C9.99997 11.32 12.36 12.03 13.27 11.76C13.73 11.62 14.54 9.87998 14.96 9.75998C16.0441 9.76409 17.1172 9.97803 18.12 10.39C18.21 10.72 18.39 11.86 18.5 12.39C18.72 13.27 20.15 13.1 22.84 14.33C23.49 15.47 22.78 17.55 22.37 19.29Z" fill="black"/>
<path d="M6.76 10.08C6.39 9.46996 6.3 8.07996 6.87 7.61996C7.26455 7.24507 7.76285 6.99766 8.3 6.90996C8.83203 6.80345 9.38459 6.88846 9.86 7.14996C9.92498 7.20964 10.011 7.24105 10.0991 7.2373C10.1873 7.23355 10.2703 7.19494 10.33 7.12996C10.3897 7.06498 10.4211 6.97896 10.4173 6.89082C10.4136 6.80268 10.375 6.71964 10.31 6.65996C9.72782 6.16026 8.97631 5.9026 8.21 5.93996C7.45277 5.98354 6.73003 6.27123 6.15 6.75996C5.15 7.69996 5.48 9.54996 6.29 10.44C6.3105 10.4784 6.3391 10.5118 6.37383 10.538C6.40856 10.5643 6.44858 10.5826 6.49111 10.5919C6.53365 10.6011 6.57767 10.6009 6.62014 10.5914C6.66261 10.5819 6.70251 10.5633 6.73706 10.5368C6.7716 10.5104 6.79998 10.4767 6.82022 10.4382C6.84046 10.3996 6.85207 10.3572 6.85425 10.3137C6.85644 10.2702 6.84914 10.2268 6.83286 10.1865C6.81659 10.1461 6.79172 10.1098 6.76 10.08Z" fill="black"/>
<path d="M16 13.83C15.9685 13.8083 15.933 13.7931 15.8956 13.7851C15.8582 13.7772 15.8196 13.7767 15.782 13.7836C15.7444 13.7906 15.7085 13.8049 15.6764 13.8257C15.6444 13.8465 15.6167 13.8735 15.595 13.905C15.5734 13.9365 15.5581 13.972 15.5501 14.0094C15.5422 14.0468 15.5417 14.0854 15.5486 14.123C15.5556 14.1606 15.5699 14.1965 15.5907 14.2286C15.6116 14.2607 15.6385 14.2883 15.67 14.31C16.171 14.5878 16.5543 15.0377 16.7492 15.5763C16.9441 16.115 16.9373 16.706 16.73 17.24C16.5889 17.4969 16.393 17.7196 16.1563 17.8924C15.9195 18.0652 15.6477 18.1839 15.36 18.24C12.36 18.88 11.69 15.5 13.36 14.56C13.66 14.4 14.62 14.44 14.69 14.02C14.6988 13.9773 14.6989 13.9333 14.6906 13.8905C14.6822 13.8478 14.6655 13.8071 14.6413 13.7708C14.6171 13.7346 14.586 13.7034 14.5497 13.6793C14.5135 13.6551 14.4728 13.6384 14.43 13.63C14.0108 13.5982 13.59 13.6632 13.2 13.8201C12.81 13.977 12.4613 14.2215 12.1809 14.5347C11.9005 14.848 11.696 15.2215 11.5831 15.6265C11.4703 16.0314 11.4521 16.4569 11.53 16.87C12.36 20.69 17.1 19.72 17.62 17.53C17.8243 16.8212 17.7742 16.0632 17.4783 15.3874C17.1825 14.7116 16.6595 14.1607 16 13.83Z" fill="black"/>
<path d="M3.17997 7.35999C3.14417 7.29103 3.08244 7.23912 3.00836 7.21568C2.93429 7.19224 2.85393 7.19918 2.78497 7.23499C2.71602 7.27079 2.66411 7.33252 2.64067 7.4066C2.61722 7.48067 2.62417 7.56103 2.65997 7.62999C3.02997 8.62999 2.60997 10.07 3.73997 12.15C3.77313 12.2322 3.83758 12.2979 3.91916 12.3326C4.00074 12.3673 4.09276 12.3681 4.17497 12.335C4.25719 12.3018 4.32287 12.2374 4.35757 12.1558C4.39226 12.0742 4.39313 11.9822 4.35997 11.9C3.99997 10.6 4.37997 8.99999 3.17997 7.35999Z" fill="black"/>
<path d="M9.99999 13.2399C9.92999 14.3299 8.99999 15.4699 9.21999 17.8199C9.21999 17.9075 9.25476 17.9914 9.31665 18.0533C9.37853 18.1152 9.46247 18.1499 9.54999 18.1499C9.63751 18.1499 9.72145 18.1152 9.78334 18.0533C9.84522 17.9914 9.87999 17.9075 9.87999 17.8199C10.07 16.4699 11.04 15.1599 10.58 13.1799C10.5761 13.1419 10.5647 13.1049 10.5464 13.0712C10.5282 13.0376 10.5036 13.0078 10.4738 12.9837C10.4441 12.9595 10.4099 12.9415 10.3733 12.9305C10.3366 12.9196 10.2981 12.916 10.26 12.9199C10.2219 12.9239 10.185 12.9353 10.1513 12.9535C10.1176 12.9717 10.0879 12.9964 10.0637 13.0261C10.0396 13.0558 10.0215 13.09 10.0106 13.1267C9.99965 13.1634 9.99605 13.2019 9.99999 13.2399Z" fill="black"/>
<path d="M12.54 6.50999C11.93 5.50999 12.1 5.17999 11.74 5.19999C11.7015 5.19989 11.6634 5.20774 11.628 5.22304C11.5927 5.23835 11.5609 5.26078 11.5346 5.28894C11.5083 5.31709 11.4881 5.35037 11.4753 5.38668C11.4625 5.423 11.4573 5.46157 11.46 5.49999C11.5274 5.94765 11.6311 6.38911 11.77 6.81999C11.8371 7.02175 11.9667 7.19689 12.14 7.31999C12.45 7.47999 14.84 7.44999 15.14 6.62999C15.2103 5.87995 15.0311 5.12768 14.63 4.48999C14.568 4.42051 14.4902 4.36698 14.4032 4.33391C14.3162 4.30084 14.2225 4.2892 14.13 4.29999C13.6059 4.33949 13.0886 4.44361 12.59 4.60999C12.5468 4.6194 12.506 4.63738 12.4699 4.66287C12.4338 4.68835 12.4032 4.72083 12.3799 4.75836C12.3566 4.79589 12.3411 4.83772 12.3343 4.88137C12.3274 4.92501 12.3294 4.96959 12.3402 5.01245C12.3509 5.05531 12.3701 5.09558 12.3967 5.13087C12.4232 5.16617 12.4566 5.19577 12.4948 5.21792C12.533 5.24008 12.5753 5.25433 12.6192 5.25984C12.663 5.26534 12.7075 5.26199 12.75 5.24999C13.1465 5.18508 13.5487 5.16162 13.95 5.17999C14.0131 5.48657 14.0532 5.79744 14.07 6.10999C13.7426 6.21057 13.4084 6.28744 13.07 6.33999C12.9 6.37999 12.68 6.47999 12.54 6.50999Z" fill="black"/>
<path d="M21.84 14.65C21.3443 14.4838 20.8308 14.3764 20.31 14.33C20.2666 14.3229 20.2222 14.3246 20.1795 14.3349C20.1368 14.3452 20.0965 14.3639 20.0611 14.39C20.0257 14.4161 19.9959 14.449 19.9734 14.4868C19.9508 14.5246 19.9361 14.5664 19.93 14.61C19.85 15.07 20.36 14.93 21.33 15.39C21.2689 15.699 21.1854 16.0031 21.08 16.3C20.7437 16.2626 20.4098 16.2058 20.08 16.13C19.9 16.13 19.65 16.13 19.51 16.07C19.4738 15.6909 19.4738 15.3091 19.51 14.93C19.5308 14.8575 19.5235 14.7798 19.4895 14.7125C19.4556 14.6451 19.3976 14.593 19.3269 14.5666C19.2563 14.5401 19.1783 14.5412 19.1085 14.5696C19.0386 14.598 18.9821 14.6517 18.95 14.72C18.8409 15.16 18.7673 15.6082 18.73 16.06C18.7029 16.2703 18.7526 16.4834 18.87 16.66C19.2143 16.8925 19.5919 17.0712 19.99 17.19C20.54 17.37 21.5 17.62 21.88 17.19C22.238 16.5196 22.3645 15.7497 22.24 15C22.2023 14.9164 22.1471 14.8419 22.0781 14.7815C22.0091 14.7211 21.9279 14.6763 21.84 14.65Z" fill="black"/>
</g>
<defs>
<clipPath id="clip0_1033_3643">
<rect width="24" height="24" fill="white"/>
</clipPath>
</defs>
</svg>
