<svg width="24" height="24" viewBox="0 0 24 24" fill="none" xmlns="http://www.w3.org/2000/svg">
<path fill-rule="evenodd" clip-rule="evenodd" d="M8.22998 19.75C7.352 20.764 6.56245 21.8513 5.86998 23C5.59998 23.51 6.22998 23.8 6.47998 23.37C6.55998 23.37 9.71998 19.59 10.12 19.11C10.46 18.41 10.12 18.19 9.50998 18.55C8.89998 18.91 8.27998 19.7 8.22998 19.75Z" fill="black"/>
<path fill-rule="evenodd" clip-rule="evenodd" d="M13.45 18C14.09 17.47 14.14 16.17 13.84 14.89C15.26 14.77 17.26 14.72 17.22 13.2C17.22 11.42 15.06 11.28 13.41 11.32C13.3189 11.3226 13.2324 11.3607 13.1689 11.426C13.1054 11.4914 13.0699 11.5789 13.07 11.67C13.07 12.22 13.72 11.89 14.98 12.14C15.58 12.26 16.19 12.47 16.3 13.07C16.41 13.67 15.77 13.66 15.3 13.72C12.9315 13.8685 10.5556 13.8484 8.18998 13.66C7.78998 13.66 7.81998 13 8.06998 12.82C8.99998 12.16 11.07 12.27 12.16 12.26C12.1987 12.2692 12.2389 12.2707 12.2782 12.2644C12.3175 12.258 12.3552 12.244 12.3891 12.2231C12.423 12.2022 12.4524 12.1749 12.4757 12.1426C12.499 12.1103 12.5158 12.0738 12.525 12.035C12.5342 11.9963 12.5356 11.9561 12.5293 11.9168C12.523 11.8775 12.509 11.8398 12.4881 11.8059C12.4672 11.772 12.4398 11.7426 12.4075 11.7193C12.3753 11.696 12.3387 11.6792 12.3 11.67C10.09 11.53 6.72998 11.14 6.89998 13.49C6.9111 13.7901 7.02737 14.0767 7.22846 14.2998C7.42954 14.5228 7.70264 14.668 7.99998 14.71C8.62998 14.79 9.26998 14.84 9.91998 14.88L9.83998 15.51C9.77998 16.17 9.12998 17.36 10.17 18.03C10.17 18.03 10.55 18.3 10.62 18.21C10.3318 18.9799 10.124 19.7775 9.99998 20.59C9.97193 21.6187 10.0187 22.6481 10.14 23.67C10.1555 23.7468 10.1931 23.8173 10.2483 23.8729C10.3035 23.9284 10.3738 23.9666 10.4505 23.9825C10.5272 23.9985 10.6068 23.9916 10.6796 23.9627C10.7524 23.9339 10.8151 23.8842 10.86 23.82C11.05 23.48 11.33 18.43 11.32 18.34C11.6125 18.3703 11.9074 18.3703 12.2 18.34C12.2 18.42 12.55 23.6 12.67 23.82C12.7148 23.8842 12.7775 23.9339 12.8503 23.9627C12.9231 23.9916 13.0028 23.9985 13.0795 23.9825C13.1561 23.9666 13.2264 23.9284 13.2816 23.8729C13.3368 23.8173 13.3745 23.7468 13.39 23.67C13.717 21.8547 13.5442 19.9847 12.89 18.26C13.0994 18.2346 13.2954 18.1436 13.45 18ZM13.21 16.73C13.06 17.48 10.73 17.24 10.65 17.04C10.48 16.66 10.65 16.04 10.65 15.53V14.94C11.4561 14.9815 12.2638 14.9815 13.07 14.94C13.2258 15.5163 13.2733 16.1165 13.21 16.71V16.73Z" fill="black"/>
<path fill-rule="evenodd" clip-rule="evenodd" d="M16.46 21.77C16.24 21.47 16.07 21.15 15.88 20.83C15.4382 19.9788 14.7923 19.2504 14 18.71C13.43 18.17 13.29 18.79 13.54 19.4C14.1636 20.4685 14.8904 21.4733 15.71 22.4C16.23 22.89 16.94 23.9 17.31 23.6C17.68 23.3 16.74 22.17 16.46 21.77Z" fill="black"/>
<path fill-rule="evenodd" clip-rule="evenodd" d="M18.66 3.00003C18.32 1.81003 16.66 2.44003 15.93 2.20003C15.93 2.11003 15.81 1.91003 15.79 1.83003C15.7624 1.38826 15.6468 0.956465 15.45 0.560029C15.3466 0.393935 15.1967 0.261824 15.019 0.18006C14.8412 0.0982954 14.6434 0.0704695 14.45 0.100029C14.3598 0.100029 14.2733 0.13585 14.2096 0.199612C14.1458 0.263375 14.11 0.349855 14.11 0.440029C14.11 0.530202 14.1458 0.616683 14.2096 0.680445C14.2733 0.744207 14.3598 0.780029 14.45 0.780029C15.22 0.730029 14.72 2.44003 15.45 2.78003C16.0697 2.9606 16.7155 3.03499 17.36 3.00003C18.28 3.09003 17.9 3.53003 17.89 4.26003C17.68 8.37003 17.79 8.79003 16.89 9.01003C16.52 9.10003 17.42 9.01003 8.88999 9.23003C8.16704 9.31924 7.43367 9.26831 6.72999 9.08003C6.29999 8.73003 6.36999 7.60003 6.31999 7.00003C6.25999 5.24003 6.15999 4.44003 6.51999 3.68003C6.74999 3.18003 6.89999 3.13003 7.10999 3.08003C7.76999 2.94003 10.52 2.86003 10.91 2.66003C11.3 2.46003 11.15 2.25003 11.18 2.07003C11.4 0.650029 12.06 0.610029 13.55 0.620029C13.6296 0.620029 13.7059 0.588422 13.7621 0.532161C13.8184 0.4759 13.85 0.399594 13.85 0.320029C13.85 0.240464 13.8184 0.164158 13.7621 0.107897C13.7059 0.0516358 13.6296 0.0200287 13.55 0.0200287C12.42 2.87462e-05 11.42 2.87294e-05 10.81 0.910029C10.6263 1.25 10.5012 1.61849 10.44 2.00003C7.08999 2.10003 6.60999 2.14003 6.16999 2.55003C5.79251 2.96182 5.52132 3.45958 5.37999 4.00003C5.16133 5.67832 5.18828 7.37951 5.45999 9.05003C5.56948 9.40009 5.7833 9.70834 6.07282 9.93353C6.36234 10.1587 6.71375 10.2901 7.07999 10.31C7.75999 10.42 7.94999 10.39 15.31 10.15C16.46 10.15 17.9 10.15 18.41 9.04003C18.6408 8.38579 18.7427 7.69302 18.71 7.00003C18.8217 5.66818 18.8049 4.32867 18.66 3.00003Z" fill="black"/>
<path fill-rule="evenodd" clip-rule="evenodd" d="M12.3 3.70001C11.6501 3.90492 11.0852 4.31693 10.6916 4.8731C10.2979 5.42927 10.0972 6.09901 10.12 6.78001C10.23 8.50001 14.12 9.91001 15.52 6.89001C16.38 5.00001 14.18 3.07001 12.3 3.70001ZM14.8 5.63001C14.8258 6.02977 14.7152 6.42646 14.4863 6.75523C14.2575 7.08401 13.9238 7.32542 13.54 7.44001C12.54 7.78001 11.27 7.08001 11.23 6.69001C11.177 6.23318 11.2791 5.77179 11.52 5.38001C11.6756 5.06162 11.9231 4.79725 12.2306 4.62114C12.5381 4.44503 12.8914 4.36528 13.2448 4.39221C13.5981 4.41914 13.9353 4.55152 14.2125 4.7722C14.4898 4.99289 14.6944 5.29172 14.8 5.63001Z" fill="black"/>
<path fill-rule="evenodd" clip-rule="evenodd" d="M8.18 1.22006C8.34576 1.1907 8.50943 1.15062 8.67 1.10006C12.27 -0.179944 6.72 0.210056 6.75 0.770056C6.77 1.16006 7.82 1.26006 8.18 1.22006Z" fill="black"/>
</svg>
