<svg width="24" height="24" viewBox="0 0 24 24" fill="none" xmlns="http://www.w3.org/2000/svg">
<g clip-path="url(#clip0_1047_5962)">
<path d="M19 3.20002C18.9354 2.57044 18.7414 1.96101 18.43 1.41002C18.1383 0.91183 17.6767 0.535495 17.13 0.350021C16.0359 0.0961214 14.9118 -0.00483998 13.79 0.0500214C11.67 -0.0299786 9.57 -0.013312 7.49 0.100021C-0.93 0.550021 1.12 -1.20998 0.82 9.28002C0.79 11 0.71 12.7 0.68 14.41V17.86C0.5958 18.6377 0.5958 19.4223 0.68 20.2C0.771226 20.6373 1.01599 21.0275 1.37 21.3C1.90471 21.6683 2.51734 21.9078 3.16 22C4.45322 22.1649 5.75645 22.2384 7.06 22.22C7.72 22.22 8.38 22.28 9.06 22.28C9.72795 22.2814 10.3955 22.248 11.06 22.18C11.68 22.12 12.32 22.08 12.95 22.04C17.95 21.81 17.5 21.97 17.55 21.97C17.5908 21.9756 17.6322 21.9731 17.672 21.9625C17.7117 21.9519 17.749 21.9335 17.7816 21.9084C17.8142 21.8832 17.8414 21.8519 17.8617 21.8161C17.8821 21.7803 17.8951 21.7409 17.9 21.7C18.04 20.55 18.15 19.38 18.24 18.2C18.38 16.45 18.47 14.69 18.55 12.96L19.07 5.81002C19.126 4.9397 19.1025 4.06609 19 3.20002ZM18 5.76002L17.65 12.94C17.65 14.66 17.58 16.42 17.49 18.17C17.44 19.17 17.37 20.23 17.28 21.25C15.82 21.3 14.35 21.25 12.89 21.3C12.25 21.3 11.6 21.3 10.96 21.38C10.32 21.46 9.68 21.43 9.04 21.38C8.4 21.33 7.75 21.32 7.11 21.26C6.11 21.17 4.95 21.21 3.85 21.06C3.20604 21 2.58728 20.78 2.05 20.42C1.94206 20.3252 1.85582 20.2082 1.79714 20.0771C1.73847 19.9459 1.70875 19.8037 1.71 19.66C1.64 19.01 1.77 18.27 1.71 17.77C1.71 16.93 1.71 16.08 1.66 15.23V9.23002L1.6 1.23002C3.6 1.02335 5.56333 0.900021 7.49 0.860021C9.56 0.860021 11.62 0.860021 13.71 1.03002C14.6036 1.02382 15.4963 1.08735 16.38 1.22002C16.6127 1.24913 16.8365 1.32752 17.0366 1.44994C17.2366 1.57237 17.4082 1.73604 17.54 1.93002C17.7872 2.36404 17.9437 2.84373 18 3.34002C18.0698 4.14518 18.0698 4.95487 18 5.76002Z" fill="black"/>
<path d="M13.34 8.55003C12.819 8.12968 12.2675 7.74863 11.69 7.41003C11.2216 7.1249 10.7857 6.78959 10.39 6.41003C9.99296 5.99738 9.66841 5.52069 9.43 5.00003C9.39945 4.93245 9.34332 4.87976 9.27396 4.85351C9.20459 4.82726 9.12764 4.82961 9.06 4.86003C8.94177 4.94691 8.83135 5.04395 8.73 5.15003C8.54 5.50003 8.36 5.88003 8.15 6.23003C8.0228 6.44309 7.87183 6.64102 7.7 6.82003C7.17 7.39003 6.54 7.82003 5.99 8.32003C5.72668 8.55338 5.48256 8.80753 5.26 9.08003C4.72059 9.71651 4.37371 10.4935 4.26 11.32C4.21474 11.7849 4.26989 12.254 4.42172 12.6957C4.57355 13.1374 4.8185 13.5413 5.14 13.88C5.45159 14.2242 5.85963 14.4664 6.31092 14.5752C6.76222 14.684 7.23583 14.6544 7.67 14.49V14.61C7.55522 14.881 7.41808 15.1419 7.26 15.39C6.71 16.09 6.64 15.87 6.63 16.26C6.63254 16.3405 6.65486 16.419 6.69497 16.4888C6.73509 16.5586 6.79176 16.6174 6.86 16.66C7.01467 16.7606 7.18819 16.8287 7.37 16.86C7.6693 16.8891 7.9707 16.8891 8.27 16.86C8.71 16.86 9.16 16.86 9.61 16.8C10.06 16.74 10.22 16.73 10.52 16.68C10.9594 16.6205 11.3916 16.5166 11.81 16.37C11.8489 16.3214 11.8771 16.265 11.8926 16.2047C11.9081 16.1444 11.9106 16.0814 11.9 16.02C11.8709 15.8152 11.8102 15.6162 11.72 15.43C11.53 15.03 11.23 14.66 11.02 14.26C11.1834 14.3151 11.3505 14.3586 11.52 14.39C11.6794 14.4099 11.8406 14.4099 12 14.39C12.5077 14.3457 12.9916 14.1548 13.3928 13.8406C13.794 13.5263 14.0953 13.1023 14.26 12.62C14.6003 11.6902 14.6003 10.6699 14.26 9.74003C14.049 9.27783 13.7342 8.87059 13.34 8.55003ZM13.34 12.36C13.2517 12.7078 13.0652 13.0228 12.8028 13.2675C12.5404 13.5122 12.2131 13.6762 11.86 13.74C11.7606 13.7551 11.6594 13.7551 11.56 13.74C10.39 13.62 10.66 13.46 10.41 13.51C10.3691 13.5161 10.3297 13.5303 10.2944 13.5518C10.259 13.5733 10.2283 13.6016 10.2041 13.6352C10.1798 13.6687 10.1626 13.7068 10.1533 13.7471C10.144 13.7875 10.1429 13.8293 10.15 13.87C10.3089 14.49 10.5441 15.0879 10.85 15.65H10.31L8.18 15.79H7.91L7.97 15.69C8.10044 15.3853 8.20742 15.0711 8.29 14.75C8.37561 14.4213 8.43909 14.0872 8.48 13.75C8.48728 13.7139 8.48737 13.6767 8.48025 13.6406C8.47312 13.6044 8.45894 13.57 8.4385 13.5394C8.41806 13.5087 8.39177 13.4824 8.36114 13.4619C8.33051 13.4414 8.29614 13.4272 8.26 13.42C7.8989 13.7124 7.43828 13.8529 6.97549 13.8118C6.51269 13.7708 6.084 13.5514 5.78 13.2C5.56948 12.9436 5.41746 12.6443 5.33456 12.3231C5.25165 12.0018 5.23986 11.6663 5.3 11.34C5.4023 10.7075 5.67157 10.1137 6.08 9.62003C6.73 8.77003 7.59 8.09003 8.29 7.20003C8.42378 7.0156 8.5441 6.82177 8.65 6.62003C8.83 6.27003 8.97 5.89003 9.12 5.53003C9.31826 5.9505 9.55955 6.3493 9.84 6.72003C10.2276 7.20614 10.6669 7.64874 11.15 8.04003C11.6668 8.40305 12.161 8.79711 12.63 9.22003C12.898 9.4531 13.1099 9.74366 13.25 10.07C13.5786 10.7901 13.625 11.6074 13.38 12.36H13.34Z" fill="black"/>
<path fill-rule="evenodd" clip-rule="evenodd" d="M22.81 3.62002C22.3582 3.17612 21.8158 2.83502 21.22 2.62002C20.8203 2.49616 20.4127 2.39927 20 2.33002C19.2 2.33002 19.14 2.86002 19.63 3.14002C19.8494 3.29458 20.0977 3.40341 20.36 3.46002C20.9898 3.61373 21.5709 3.9232 22.05 4.36002C22.1386 4.47172 22.2037 4.60014 22.2415 4.7376C22.2793 4.87506 22.289 5.01873 22.27 5.16002C22.25 5.81002 22 6.52002 22 7.00002C21.91 7.84002 21.79 8.68002 21.68 9.52002C21.4 11.52 21.09 13.52 20.82 15.45L19.69 23.45C17.69 23.36 15.69 23.15 13.77 22.89C13.03 22.79 11.38 22.33 10.84 22.35C9.99 22.35 9.95 23.08 10.91 23.28C11.87 23.48 12.91 23.63 13.71 23.71C15.71 23.8967 17.71 24 19.71 24.02C20.53 23.97 20.14 23.9 21.63 15.62C21.91 13.93 22.25 12.25 22.53 10.62C22.7167 9.48002 22.8767 8.34002 23.01 7.20002C23.1967 6.43985 23.304 5.66235 23.33 4.88002C23.3185 4.41016 23.1332 3.96124 22.81 3.62002Z" fill="black"/>
</g>
<defs>
<clipPath id="clip0_1047_5962">
<rect width="24" height="24" fill="white"/>
</clipPath>
</defs>
</svg>
