<svg width="24" height="24" viewBox="0 0 24 24" fill="none" xmlns="http://www.w3.org/2000/svg">
<g clip-path="url(#clip0_1049_7537)">
<path fill-rule="evenodd" clip-rule="evenodd" d="M7.34999 13.85C7.32873 13.7652 7.27467 13.6922 7.19966 13.6472C7.12466 13.6022 7.03485 13.5888 6.94999 13.61H5.67999H4.86999C4.34526 13.6041 3.82371 13.6922 3.32999 13.87C3.29191 13.8759 3.25545 13.8896 3.22291 13.9102C3.19036 13.9308 3.16241 13.9579 3.14082 13.9898C3.11923 14.0218 3.10446 14.0578 3.09744 14.0957C3.09041 14.1335 3.09128 14.1725 3.09999 14.21C3.10478 14.2479 3.11729 14.2845 3.13674 14.3174C3.15619 14.3503 3.18218 14.3789 3.21309 14.4014C3.24401 14.4238 3.2792 14.4398 3.31651 14.4481C3.35381 14.4565 3.39243 14.4571 3.42999 14.45C3.83719 14.4884 4.23934 14.5688 4.62999 14.69C4.82299 14.706 5.01698 14.706 5.20999 14.69C5.40812 14.6888 5.60568 14.6688 5.79999 14.63C6.24868 14.5398 6.68745 14.4058 7.10999 14.23C7.18938 14.2067 7.25755 14.1553 7.30173 14.0853C7.34591 14.0154 7.36307 13.9317 7.34999 13.85Z" fill="black"/>
<path fill-rule="evenodd" clip-rule="evenodd" d="M15.88 16.48C15.3349 16.359 14.7724 16.3387 14.22 16.42C14.22 16.2 14.17 15.98 14.14 15.76C14.09 15.36 14.02 14.97 13.96 14.57H14.11H15.18C15.2176 14.5756 15.2559 14.5735 15.2926 14.5638C15.3294 14.5542 15.3637 14.5371 15.3937 14.5137C15.4236 14.4903 15.4485 14.4611 15.4668 14.4278C15.485 14.3945 15.4963 14.3578 15.5 14.32C15.5056 14.2819 15.5036 14.243 15.494 14.2057C15.4845 14.1683 15.4675 14.1333 15.4443 14.1025C15.421 14.0718 15.3918 14.046 15.3585 14.0267C15.3251 14.0074 15.2882 13.9949 15.25 13.99L14.07 13.9H13.87C13.87 13.63 13.79 13.37 13.76 13.1C13.768 13.0567 13.7664 13.0122 13.7553 12.9696C13.7441 12.927 13.7238 12.8874 13.6956 12.8536C13.6675 12.8198 13.6322 12.7925 13.5923 12.7738C13.5525 12.7552 13.509 12.7455 13.465 12.7455C13.421 12.7455 13.3775 12.7552 13.3376 12.7738C13.2978 12.7925 13.2625 12.8198 13.2344 12.8536C13.2062 12.8874 13.1859 12.927 13.1747 12.9696C13.1636 13.0122 13.162 13.0567 13.17 13.1C13.17 13.4 13.17 13.7 13.12 14C12.3421 14.1226 11.6087 14.4428 10.99 14.93C10.7516 15.1345 10.5872 15.4118 10.5222 15.7191C10.4571 16.0263 10.495 16.3464 10.63 16.63C10.7898 16.9797 11.0703 17.2602 11.42 17.42C11.8586 17.6061 12.3344 17.6883 12.81 17.66H13.24C13.24 17.84 13.24 18.02 13.31 18.19C13.38 18.59 13.47 18.99 13.55 19.38H13.02C12.2914 19.2957 11.5962 19.0273 11 18.6C10.9659 18.5724 10.9266 18.5519 10.8845 18.5394C10.8424 18.527 10.7983 18.523 10.7546 18.5277C10.6665 18.537 10.5857 18.5811 10.53 18.65C10.5024 18.6842 10.4818 18.7234 10.4694 18.7655C10.457 18.8076 10.453 18.8517 10.4577 18.8954C10.467 18.9835 10.511 19.0643 10.58 19.12C11.2699 19.6403 12.0767 19.9836 12.93 20.12C13.22 20.17 13.51 20.19 13.79 20.21L13.94 20.83C13.9461 20.8736 13.9608 20.9155 13.9833 20.9532C14.0058 20.991 14.0357 21.0239 14.0711 21.05C14.1065 21.0761 14.1467 21.0948 14.1895 21.1051C14.2322 21.1154 14.2766 21.1171 14.32 21.11C14.4088 21.0953 14.4881 21.046 14.5406 20.9729C14.5931 20.8998 14.6144 20.8088 14.6 20.72V20.2C14.9173 20.1858 15.2323 20.1389 15.54 20.06C16.1532 19.8948 16.701 19.5458 17.11 19.06C17.2859 18.8501 17.3959 18.5929 17.4261 18.3207C17.4564 18.0485 17.4055 17.7734 17.28 17.53C17.1452 17.2575 16.9483 17.0206 16.7051 16.8382C16.4619 16.6558 16.1793 16.5331 15.88 16.48ZM12.75 16.57C12.4924 16.5986 12.2317 16.5817 11.98 16.52C11.8881 16.5046 11.8004 16.4699 11.7229 16.4182C11.6453 16.3665 11.5796 16.299 11.53 16.22C11.34 15.85 11.53 15.57 11.88 15.34C12.2493 15.0849 12.6581 14.8923 13.09 14.77V15.84V16.54L12.75 16.57ZM16.08 18.57C15.8274 18.8166 15.5235 19.0044 15.19 19.12C14.9499 19.2002 14.7018 19.2538 14.45 19.28C14.45 18.86 14.45 18.44 14.37 18.02V17.5C14.6862 17.4751 15.0038 17.4751 15.32 17.5C15.5181 17.4884 15.7156 17.5307 15.8917 17.6222C16.0677 17.7137 16.2157 17.8512 16.32 18.02C16.34 18.23 16.23 18.42 16.08 18.59V18.57Z" fill="black"/>
<path fill-rule="evenodd" clip-rule="evenodd" d="M20.59 16.12C20.4312 15.5898 20.1917 15.0873 19.88 14.63C19.5081 14.1023 19.104 13.598 18.67 13.12C19.0722 12.9705 19.4087 12.6836 19.62 12.31C19.7569 12.0532 19.8343 11.7688 19.8464 11.478C19.8586 11.1872 19.8051 10.8973 19.69 10.63C19.8446 10.5636 19.9894 10.4761 20.12 10.37C20.3385 10.1325 20.4962 9.84565 20.5798 9.53395C20.6634 9.22225 20.6703 8.89495 20.6 8.58C20.5331 8.2839 20.3998 8.00691 20.21 7.77C20.4444 7.64293 20.6348 7.44785 20.7562 7.21044C20.8776 6.97303 20.9242 6.70443 20.89 6.44C20.7657 6.10841 20.5707 5.80784 20.3186 5.55918C20.0665 5.31051 19.7632 5.1197 19.43 5C19.2347 4.90594 19.0303 4.83222 18.82 4.78C18.6143 4.71988 18.4033 4.6797 18.19 4.66C17.5492 4.65111 16.9084 4.67447 16.27 4.73L15.61 4.79C15.5496 4.75406 15.486 4.72392 15.42 4.7L14.49 4.46C14.23 4.46 13.97 4.35 13.7 4.32C13.4969 4.30504 13.293 4.30504 13.09 4.32C12.5055 4.43172 11.9505 4.66325 11.46 5C10.35 5.74 8.99997 6.86 8.58997 7.21C8.29901 7.4238 7.95076 7.54569 7.58997 7.56H5.67997C5.64238 7.55729 5.60463 7.56219 5.56898 7.57442C5.53334 7.58664 5.50052 7.60594 5.47251 7.63115C5.4445 7.65636 5.42186 7.68697 5.40596 7.72114C5.39006 7.75531 5.38122 7.79233 5.37997 7.83C5.37726 7.8689 5.38243 7.90795 5.39516 7.94481C5.40789 7.98168 5.42792 8.01559 5.45406 8.04453C5.4802 8.07347 5.51191 8.09684 5.54729 8.11325C5.58267 8.12965 5.621 8.13875 5.65997 8.14C6.43541 8.24324 7.21855 8.27671 7.99997 8.24C8.38207 8.20151 8.74919 8.07114 9.06997 7.86C9.47997 7.59 10.58 6.79 11.6 6.15C12.0687 5.78988 12.6014 5.52182 13.17 5.36C13.3029 5.3448 13.4371 5.3448 13.57 5.36C13.81 5.36 14.05 5.45 14.28 5.49L15 5.7C15.28 5.8 15.48 5.91 15.52 6.09C15.56 6.27 15.42 6.38 15.19 6.54C14.925 6.74356 14.6226 6.89306 14.3 6.98C13.9387 7.0674 13.5708 7.12427 13.2 7.15C13.0718 7.15775 12.9517 7.21553 12.8657 7.31092C12.7796 7.40631 12.7345 7.53166 12.74 7.66C12.7487 7.73976 12.7487 7.82024 12.74 7.9C12.7949 8.5887 12.5838 9.27227 12.15 9.81C11.5967 10.3902 10.8491 10.7462 10.05 10.81C10.0065 10.8149 9.96446 10.8285 9.92628 10.8498C9.88809 10.8712 9.85453 10.8999 9.82755 10.9343C9.80056 10.9687 9.78069 11.0082 9.76909 11.0504C9.75749 11.0925 9.75439 11.1366 9.75997 11.18C9.76702 11.2562 9.80116 11.3274 9.85621 11.3806C9.91125 11.4338 9.98355 11.4655 10.06 11.47C9.63997 12.02 9.24997 12.58 8.87997 13.16C8.42917 13.8698 8.01853 14.6042 7.64997 15.36C7.38503 15.9242 7.16761 16.5096 6.99997 17.11C6.8788 17.5245 6.79842 17.9499 6.75997 18.38C6.72957 19.0198 6.84627 19.6581 7.10111 20.2458C7.35594 20.8335 7.74212 21.3549 8.22997 21.77C9.59415 22.9668 11.2882 23.7232 13.09 23.94C14.902 24.1812 16.7435 23.8305 18.34 22.94C19.1374 22.4506 19.7932 21.7612 20.2422 20.9404C20.6912 20.1195 20.918 19.1955 20.9 18.26C20.9149 17.8956 20.8948 17.5306 20.84 17.17C20.7769 16.8155 20.6935 16.4649 20.59 16.12ZM18.87 11.84C18.7382 12.0099 18.5551 12.1328 18.348 12.1904C18.1408 12.2481 17.9206 12.2374 17.72 12.16C17.0602 12.1015 16.4265 11.8742 15.88 11.5C15.7394 11.4198 15.6249 11.3007 15.5504 11.157C15.4759 11.0133 15.4445 10.8511 15.46 10.69C15.4926 10.5481 15.5615 10.4172 15.66 10.31L15.74 10.25C15.9556 10.3636 16.1796 10.4605 16.41 10.54C16.9498 10.7242 17.5111 10.8384 18.08 10.88C18.4145 10.8985 18.7501 10.8784 19.08 10.82C19.1253 10.9948 19.13 11.1776 19.0936 11.3544C19.0572 11.5313 18.9807 11.6974 18.87 11.84ZM19.48 9.6C19.345 9.67755 19.195 9.72529 19.04 9.74C18.7441 9.77057 18.4459 9.77057 18.15 9.74C17.6696 9.69759 17.1942 9.61054 16.73 9.48C16.481 9.42699 16.2368 9.35341 16 9.26C16.17 9.11 15.95 8.57 16.1 8.26C16.1559 8.09024 16.2405 7.93129 16.35 7.79C16.7217 8.00261 17.1278 8.14816 17.55 8.22C18.1771 8.3458 18.8229 8.3458 19.45 8.22L19.59 8.17C19.7224 8.35611 19.805 8.57298 19.83 8.8C19.8359 8.95113 19.8075 9.10165 19.7469 9.24022C19.6863 9.37879 19.595 9.5018 19.48 9.6ZM18 5.63L19 6C19.3155 6.1248 19.5894 6.33626 19.79 6.61C19.88 6.74 19.79 6.87 19.56 7.02L19.22 7.2C18.7268 7.36072 18.2074 7.42522 17.69 7.39C17.3851 7.36715 17.0853 7.29977 16.8 7.19C16.7767 7.13052 16.7351 7.08002 16.6811 7.04584C16.6271 7.01167 16.5637 6.99561 16.5 7L16.38 6.92C16.6019 6.63682 16.7026 6.27725 16.66 5.92C16.6282 5.79153 16.5812 5.66731 16.52 5.55C17.0143 5.55154 17.5083 5.57824 18 5.63ZM17.75 22.05C16.3381 22.7911 14.7272 23.0643 13.15 22.83C11.5968 22.6378 10.1318 22.0025 8.92997 21C8.54597 20.6954 8.23394 20.3099 8.01613 19.8708C7.79833 19.4317 7.68013 18.95 7.66997 18.46C7.68876 17.9922 7.76602 17.5286 7.89997 17.08C8.03457 16.6109 8.20507 16.1529 8.40997 15.71C8.72556 14.9622 9.08622 14.2342 9.48997 13.53C9.9016 12.8405 10.3489 12.1729 10.83 11.53C10.8386 11.4905 10.8386 11.4495 10.83 11.41C11.5524 11.2754 12.2178 10.927 12.74 10.41C13.3178 9.7898 13.6456 8.97757 13.66 8.13C14.035 8.1066 14.4068 8.04631 14.77 7.95C15.0494 7.86497 15.3179 7.7475 15.57 7.6C15.4233 7.78272 15.3022 7.98458 15.21 8.2C15.0324 8.59131 14.9601 9.02216 15 9.45C15.012 9.56674 15.0495 9.6794 15.11 9.78L15.02 9.84C14.851 10.0001 14.7239 10.1993 14.65 10.42C14.5271 10.745 14.5113 11.1007 14.6048 11.4353C14.6984 11.7699 14.8964 12.0659 15.17 12.28C15.8331 12.8198 16.6325 13.1659 17.48 13.28C17.6131 13.29 17.7468 13.29 17.88 13.28C18.34 13.87 18.83 14.43 19.22 15.05C19.4708 15.4528 19.6596 15.891 19.78 16.35C19.8643 16.678 19.9212 17.0125 19.95 17.35C19.9749 17.6628 19.9749 17.9772 19.95 18.29C19.933 19.0474 19.7264 19.7884 19.3491 20.4452C18.9717 21.1021 18.4357 21.6539 17.79 22.05H17.75Z" fill="black"/>
<path fill-rule="evenodd" clip-rule="evenodd" d="M11.65 3.09001L12.11 3.98001C12.1287 4.01382 12.154 4.04356 12.1844 4.06746C12.2147 4.09137 12.2496 4.10896 12.2868 4.11921C12.3241 4.12946 12.363 4.13215 12.4014 4.12714C12.4397 4.12212 12.4766 4.1095 12.51 4.09001C12.578 4.05199 12.6286 3.98898 12.651 3.91431C12.6734 3.83965 12.6659 3.7592 12.63 3.69001L12.29 2.87001L12.18 2.29001C12.18 1.88001 12.18 1.69001 12.37 1.64001C12.6178 1.61789 12.8673 1.65207 13.1 1.74001C13.4754 1.85467 13.8681 1.90207 14.26 1.88001C14.4433 1.84275 14.619 1.77515 14.78 1.68001C14.98 1.56001 15.18 1.39001 15.39 1.25001C15.6 1.11001 15.53 1.10001 15.61 1.12001C15.69 1.14001 15.74 1.26001 15.81 1.34001C15.9053 1.4826 16.0088 1.6195 16.12 1.75001C16.2307 1.87289 16.3628 1.97455 16.51 2.05001C17.0311 2.18377 17.5838 2.1084 18.05 1.84001C18.22 1.77001 18.38 1.69001 18.54 1.64001H18.65C18.6901 1.80703 18.7103 1.97823 18.71 2.15001L18.57 2.83001L18.18 3.67001C18.1331 3.74358 18.1163 3.83237 18.1331 3.91799C18.1498 4.00362 18.1988 4.07952 18.27 4.13001C18.3081 4.15429 18.3508 4.17025 18.3955 4.17683C18.4402 4.18341 18.4857 4.18046 18.5292 4.16819C18.5726 4.15591 18.613 4.13457 18.6476 4.10559C18.6822 4.0766 18.7103 4.04062 18.73 4.00001L19.26 3.08001L19.52 2.22001C19.5841 2.00021 19.5967 1.7686 19.5568 1.54314C19.5169 1.31769 19.4256 1.10446 19.29 0.920006C19.091 0.782843 18.8586 0.702061 18.6174 0.686217C18.3762 0.670373 18.1352 0.720057 17.92 0.830006L17.28 1.00001C17.17 1.00001 17.08 1.08001 17 1.00001C16.92 0.920006 16.84 0.790006 16.75 0.660006C16.641 0.487134 16.5061 0.331999 16.35 0.200006C16.2097 0.100106 16.0493 0.0318673 15.88 5.89713e-06C15.6462 -0.0548812 15.401 -0.0338651 15.18 0.0600059C14.9174 0.180421 14.6719 0.335101 14.45 0.520006C14.3349 0.631947 14.199 0.720275 14.05 0.780006C13.7145 0.802204 13.3777 0.775253 13.05 0.700006C12.7167 0.63983 12.3737 0.660404 12.05 0.760006C11.62 0.930006 11.23 1.32001 11.39 2.34001L11.65 3.09001Z" fill="black"/>
</g>
<defs>
<clipPath id="clip0_1049_7537">
<rect width="24" height="24" fill="white"/>
</clipPath>
</defs>
</svg>
