<svg width="24" height="24" viewBox="0 0 24 24" fill="none" xmlns="http://www.w3.org/2000/svg">
<g clip-path="url(#clip0_1049_7550)">
<path fill-rule="evenodd" clip-rule="evenodd" d="M15.3 22.71H13.04C12.561 22.6864 12.0854 22.616 11.62 22.5C11.2326 22.3223 10.8612 22.1115 10.51 21.87C10.3491 21.7966 10.1764 21.7525 9.99999 21.74C9.56999 21.74 9.10999 22.14 8.63999 22.36C8.60171 22.3862 8.5564 22.4003 8.50999 22.4003C8.46359 22.4003 8.41827 22.3862 8.37999 22.36C8.27999 22.3 8.31999 22.17 8.31999 22.04C8.35403 21.5873 8.35403 21.1327 8.31999 20.68C8.31176 20.582 8.27784 20.4879 8.22167 20.4071C8.16549 20.3263 8.08903 20.2618 7.99999 20.22C7.89696 20.1688 7.78028 20.1519 7.66696 20.1717C7.55364 20.1915 7.44959 20.247 7.36999 20.33C7.30999 20.39 7.14999 20.79 7.06999 20.94L6.47999 21.71C6.19485 22.0159 5.85588 22.2667 5.47999 22.45C5.32493 22.5282 5.15367 22.569 4.97999 22.569C4.80631 22.569 4.63505 22.5282 4.47999 22.45C4.18722 22.2808 3.93459 22.0501 3.73952 21.7739C3.54444 21.4977 3.41155 21.1825 3.34999 20.85C3.97151 19.9045 4.49744 18.8996 4.91999 17.85C5.10999 17.4 5.27999 16.93 5.42999 16.46C5.57999 15.99 5.66999 15.46 5.75999 15.02C5.75999 15.02 5.82999 14.48 5.85999 14.28C5.86353 14.2401 5.86353 14.1999 5.85999 14.16C5.87239 14.0973 5.87239 14.0327 5.85999 13.97C5.84381 13.8965 5.81272 13.8272 5.76866 13.7662C5.7246 13.7052 5.6685 13.6539 5.60383 13.6155C5.53915 13.5771 5.46728 13.5523 5.39266 13.5428C5.31804 13.5332 5.24226 13.5391 5.16999 13.56C4.34014 13.7768 3.6246 14.3027 3.16999 15.03C2.53521 15.9897 2.13762 17.0865 2.00999 18.23C1.86163 19.1934 1.91268 20.1771 2.15999 21.12C1.60952 21.8969 0.929623 22.5734 0.149992 23.12C0.107243 23.1439 0.0699849 23.1765 0.0406261 23.2157C0.0112673 23.2549 -0.00953826 23.2998 -0.0204454 23.3476C-0.0313525 23.3953 -0.0321184 23.4448 -0.0226935 23.4929C-0.0132686 23.5409 0.00613723 23.5865 0.0342693 23.6266C0.0624014 23.6667 0.0986335 23.7004 0.140623 23.7256C0.182612 23.7508 0.229424 23.7669 0.278032 23.7729C0.32664 23.7789 0.375962 23.7746 0.422808 23.7603C0.469655 23.746 0.512984 23.7221 0.549993 23.69C1.24487 23.2346 1.87119 22.6824 2.40999 22.05C2.71091 22.7196 3.22402 23.2713 3.86999 23.62C4.39312 23.8753 4.99382 23.9218 5.54999 23.75C6.23207 23.522 6.84007 23.1144 7.30999 22.57C7.38393 22.8305 7.54666 23.0569 7.76999 23.21C7.91256 23.313 8.07604 23.3835 8.24885 23.4163C8.42166 23.4491 8.59957 23.4436 8.76999 23.4C9.06205 23.2958 9.33301 23.14 9.56999 22.94C9.70999 22.85 9.80999 22.72 9.94999 22.72C10.09 22.72 10.59 23.07 10.95 23.24C11.0835 23.3089 11.2244 23.3626 11.37 23.4C11.901 23.5016 12.4395 23.5584 12.98 23.57C13.74 23.57 14.52 23.57 15.28 23.5C15.3321 23.5 15.3836 23.4896 15.4316 23.4694C15.4796 23.4492 15.523 23.4195 15.5594 23.3823C15.5957 23.345 15.6242 23.3008 15.6432 23.2523C15.6622 23.2038 15.6713 23.1521 15.67 23.1C15.6656 23.0013 15.6258 22.9076 15.5578 22.8359C15.4899 22.7642 15.3983 22.7195 15.3 22.71ZM3.23999 18.46C3.34281 17.5155 3.65728 16.6062 4.15999 15.8C4.26702 15.625 4.39095 15.4609 4.52999 15.31C4.48207 15.6164 4.41865 15.9201 4.33999 16.22C4.25221 16.6629 4.13868 17.1003 3.99999 17.53C3.77434 18.1526 3.51735 18.7634 3.22999 19.36C3.21345 19.0601 3.21679 18.7595 3.23999 18.46Z" fill="black"/>
<path fill-rule="evenodd" clip-rule="evenodd" d="M23.91 5.37C23.8745 5.33279 23.8319 5.30317 23.7846 5.28293C23.7373 5.26269 23.6864 5.25225 23.635 5.25225C23.5836 5.25225 23.5327 5.26269 23.4854 5.28293C23.4382 5.30317 23.3955 5.33279 23.36 5.37C22.9413 5.69769 22.547 6.05529 22.18 6.44C21.53 7.09 20.93 7.78 20.27 8.44C20.305 8.3633 20.311 8.27656 20.2872 8.19573C20.2633 8.1149 20.211 8.0454 20.14 8C19.58 7.5 19.05 7 18.47 6.51L17.72 5.92C17.4635 5.72845 17.1964 5.5515 16.92 5.39C16.36 5.05 15.78 4.77 15.21 4.47C15.64 3.17 16.12 1.88 16.58 0.640004C16.6137 0.553616 16.6127 0.457574 16.5773 0.371883C16.5419 0.286192 16.4748 0.21746 16.39 0.180004C16.305 0.146769 16.2104 0.148032 16.1264 0.183523C16.0423 0.219014 15.9754 0.285926 15.94 0.370004C15.34 1.65 14.72 2.96 14.16 4.3C13.77 5.2 13.42 6.11 13.16 7.02C13.1314 7.17104 13.1519 7.32726 13.2185 7.46581C13.285 7.60436 13.3942 7.71796 13.53 7.79L13.9 8L15.25 8.7L17.76 10.19C17.76 10.86 17.63 11.83 17.51 12.81C17.42 13.58 17.3 14.33 17.19 14.89C17.19 15.19 17.19 15.58 17.04 15.53C16.8021 15.7019 16.5434 15.843 16.27 15.95C15.78 16.16 15.16 16.33 14.54 16.58C13.1024 17.1487 11.5961 17.5253 10.06 17.7C9.87001 16.3 9.41001 12.92 9.42001 12.46C9.39402 12.0965 9.44272 11.7315 9.56311 11.3876C9.6835 11.0436 9.87302 10.728 10.12 10.46C11.0619 9.59198 12.1619 8.91301 13.36 8.46C13.4028 8.44248 13.4418 8.41664 13.4746 8.38397C13.5074 8.35129 13.5333 8.31244 13.551 8.26966C13.5687 8.22688 13.5777 8.18102 13.5775 8.13473C13.5774 8.08844 13.568 8.04265 13.55 8C13.5345 7.95663 13.5104 7.91686 13.4791 7.88309C13.4478 7.84932 13.4099 7.82227 13.3679 7.80357C13.3258 7.78486 13.2803 7.77491 13.2343 7.77429C13.1883 7.77368 13.1426 7.78243 13.1 7.8C11.7029 8.11653 10.3879 8.72296 9.24001 9.58C8.84925 9.9509 8.54397 10.4024 8.34537 10.9033C8.14678 11.4041 8.05964 11.9421 8.09001 12.48C8.09001 12.98 8.84001 16.24 9.15001 17.57L9.27001 18.08C9.27001 18.23 8.89001 19.56 15.68 17.54C16.5882 17.3369 17.4286 16.9029 18.12 16.28C18.2517 16.1001 18.3376 15.8907 18.37 15.67C18.4678 15.1587 18.5246 14.6404 18.54 14.12C18.59 13 18.54 11.63 18.54 10.64H18.61C18.711 10.7023 18.8256 10.7393 18.9439 10.748C19.0623 10.7567 19.181 10.7368 19.29 10.69C19.7345 10.4056 20.1439 10.07 20.51 9.69C21.36 8.84 22.06 7.85 22.85 6.94C23.155 6.56098 23.4894 6.20655 23.85 5.88C23.9183 5.81555 23.9617 5.72914 23.9727 5.6359C23.9836 5.54267 23.9614 5.44854 23.91 5.37ZM19.73 8.91C18.92 9.75 19.5 9.74 17.27 8.33C16.83 8.05 16.37 7.78 15.89 7.52L14.49 6.83C14.62 6.31 14.79 5.83 14.95 5.27C15.36 5.65 15.75 6.05 16.18 6.41C16.43 6.62 16.68 6.81 16.94 6.99C17.2 7.17 17.46 7.35 17.74 7.52C18.38 7.91 19.03 8.26 19.68 8.63C19.7589 8.68416 19.8556 8.70566 19.95 8.69L19.73 8.91Z" fill="black"/>
<path fill-rule="evenodd" clip-rule="evenodd" d="M11.36 16.83C11.6177 16.6455 11.8354 16.4108 12 16.14C12.15 15.9 12.26 15.82 12.39 15.57C12.69 14.97 12.93 14.37 13.19 13.78C15.4 14.34 15.71 12.88 15.76 12.43C15.795 12.0692 15.7272 11.7059 15.5644 11.3821C15.4016 11.0582 15.1504 10.7871 14.84 10.6C14.5548 10.43 14.2351 10.3265 13.9044 10.2971C13.5737 10.2676 13.2407 10.3131 12.93 10.43C12.6317 10.5799 12.3757 10.8021 12.1853 11.0764C11.9949 11.3506 11.8762 11.6681 11.84 12C11.7872 12.2724 11.816 12.5544 11.9227 12.8105C12.0294 13.0667 12.2094 13.2857 12.44 13.44C12.07 13.92 11.69 14.39 11.32 14.89L10.84 15.58C10.6715 15.8536 10.553 16.1549 10.49 16.47C10.36 17.17 10.82 17.19 11.36 16.83ZM13 12.28C13.0223 12.149 13.0733 12.0246 13.1494 11.9157C13.2255 11.8068 13.3247 11.716 13.44 11.65C13.5738 11.6028 13.7161 11.5847 13.8575 11.5967C13.9989 11.6088 14.1361 11.6508 14.26 11.72C14.3911 11.7799 14.5028 11.8753 14.5824 11.9956C14.6619 12.1158 14.7062 12.2559 14.71 12.4C14.71 12.98 14.16 13.4 13.2 12.82C13.1058 12.7707 13.0332 12.6882 12.9963 12.5884C12.9593 12.4887 12.9606 12.3788 13 12.28Z" fill="black"/>
</g>
<defs>
<clipPath id="clip0_1049_7550">
<rect width="24" height="24" fill="white"/>
</clipPath>
</defs>
</svg>
