<svg width="24" height="24" viewBox="0 0 24 24" fill="none" xmlns="http://www.w3.org/2000/svg">
<path fill-rule="evenodd" clip-rule="evenodd" d="M23.84 6.43999C23.4 4.79999 21.41 4.31999 20.41 6.21999C20.2181 6.58721 20.1186 6.99566 20.12 7.40999C20.1272 7.71879 20.2037 8.02203 20.3439 8.29725C20.4841 8.57248 20.6844 8.81265 20.93 8.99999C21.1412 9.1482 21.3845 9.24416 21.64 9.27999C21.6143 10.7408 21.5142 12.1994 21.34 13.65C21.2678 14.2307 21.0735 14.7896 20.77 15.29C20.5948 15.5259 20.3859 15.7348 20.15 15.91C19.6 16.33 18.93 16.74 18.46 17.08C18.46 14.28 18.3 11.45 18.46 8.68C18.6233 7.46018 18.7035 6.23068 18.7 4.99999C18.6776 4.07166 18.3971 3.1679 17.89 2.38999C17.7987 2.27589 17.6775 2.18935 17.54 2.13999C17.2105 2.07458 16.8759 2.03778 16.54 2.02999C16 1.99999 15.44 1.89999 14.88 1.86999L13.2 1.79999C10.7 1.72999 7.99 1.60999 5.35 1.79999C-0.49 2.13999 0.520001 2.25999 0.410001 6.19999V10.75C0.410001 12.57 0.240001 14.38 0.190001 16.2V18.58C0.170001 19 5.73695e-07 19.82 0.0900006 20.47C0.100543 20.841 0.207372 21.2028 0.400001 21.52C0.599859 21.7502 0.845175 21.9365 1.12053 22.0673C1.39588 22.1981 1.69531 22.2705 2 22.28C3.09585 22.3145 4.19271 22.261 5.28 22.12C7.7 21.98 10.15 21.89 12.59 21.72C13.04 21.72 18.14 21.25 18.15 21.17C18.3016 20.0694 18.3884 18.9608 18.41 17.85C18.9 17.53 19.85 17.15 20.58 16.73C20.9531 16.5337 21.291 16.2769 21.58 15.97C22.1326 15.1382 22.441 14.1682 22.47 13.17C22.4718 11.8776 22.4084 10.586 22.28 9.29999C22.4699 9.24911 22.6517 9.17168 22.82 9.06999C23.2448 8.79435 23.5719 8.39191 23.755 7.91982C23.9381 7.44772 23.9678 6.92995 23.84 6.43999ZM17.54 13.73C15.72 13.73 13.9 13.8 12.08 13.86C12.13 13 12.23 12.16 12.28 11.31C12.28 10.73 12.36 10.16 12.35 9.57999C12.35 8.67999 12.26 7.78999 12.19 6.88999C13.19 6.77999 14.4 6.63999 15.55 6.57999C16.2156 6.52606 16.8844 6.52606 17.55 6.57999C17.55 7.30999 17.45 8.01999 17.42 8.57999C17.38 10.34 17.46 12 17.54 13.73ZM7.27 9.72999C7.23 8.84999 7.1 7.93999 7 6.99999H7.62C8.94 6.99999 10.26 6.99999 11.62 6.89999C11.53 7.64999 11.42 8.38999 11.34 9.14999C11.34 9.50999 11.32 9.86999 11.28 10.23V11.32C11.28 12.16 11.38 13 11.47 13.84H11.14C9.81 13.84 8.49 13.99 7.14 14.07C7.14 13.23 7.27 12.39 7.3 11.54C7.29 11 7.3 10.38 7.27 9.76999V9.72999ZM5.38 2.55999C8 2.48999 10.68 2.71999 13.16 2.87999L16.43 3.11999C16.51 3.11999 16.95 3.30999 17.11 3.23999C17.4002 3.8041 17.5608 4.4259 17.58 5.05999V5.90999C16.8955 5.79829 16.2035 5.73812 15.51 5.72999C14.13 5.72999 12.71 5.81999 11.51 5.83999C10.18 5.91 8.85 5.90999 7.51 5.95999C5.51 6.02999 3.85 6.17999 1.84 6.34999C1.77107 6.36274 1.70877 6.39922 1.66393 6.45311C1.61909 6.507 1.59454 6.57489 1.59454 6.64499C1.59454 6.7151 1.61909 6.78299 1.66393 6.83688C1.70877 6.89076 1.77107 6.92725 1.84 6.93999C3.42 6.93999 4.65 6.93999 6.22 7.01999C6.22 7.81999 6.11 8.60999 6.08 9.40999V10.54V11.67C6.08 12.51 6.22 13.33 6.3 14.16C4.91 14.26 3.51 14.21 2.12 14.28C1.8 14.28 1.47 14.28 1.12 14.35V10.74C1.07 9.22999 0.990001 7.74 0.970001 6.20999C0.970001 5.20999 0.970001 4.20999 1.04 3.20999C1.08422 3.14878 1.10864 3.0755 1.11 2.99999C2.51733 2.72608 3.94638 2.57882 5.38 2.55999ZM17.38 20.56C15.78 20.73 14.17 20.84 12.55 20.9C10.11 20.99 7.66 21 5.24 21.06C4.71 21.06 3.55 21.24 2.54 21.2C2 21.2 1.54 21.2 1.3 20.88C1.19312 20.656 1.15153 20.4065 1.18 20.16C1.18 19.56 1.26 18.91 1.24 18.53V15H2.24C3.77 15 5.29 15.26 6.83 15.25C8.37 15.24 9.7 15.13 11.13 15.02C13.28 14.87 15.42 14.63 17.56 14.44C17.61 15.44 17.65 16.44 17.67 17.44C17.69 18.44 17.67 19.56 17.55 20.61C17.5071 20.5843 17.4595 20.5673 17.41 20.56H17.38ZM22.29 8.1C22.1803 8.17267 22.0516 8.21143 21.92 8.21143C21.7884 8.21143 21.6597 8.17267 21.55 8.1C21.4172 8.01361 21.3053 7.89883 21.2223 7.76395C21.1393 7.62906 21.0873 7.47743 21.07 7.31999C21.018 6.97916 21.0703 6.63058 21.22 6.31999C21.71 5.31999 22.78 5.7 22.94 6.60999C22.9972 6.89503 22.9655 7.19075 22.8493 7.45721C22.7331 7.72367 22.5378 7.94804 22.29 8.1Z" fill="black"/>
<path fill-rule="evenodd" clip-rule="evenodd" d="M5.11 17.76C5.02362 17.75 4.93638 17.75 4.85 17.76C4.77006 17.7761 4.69269 17.803 4.62 17.84C3.78 18.23 3.84 18.38 3.85 18.47C3.85 18.84 4.85 18.89 4.91 18.89C5.04497 18.8805 5.17711 18.8466 5.3 18.79C6.13 18.46 6.13 18.29 6.12 18.15C6.11 18.01 6.14 17.8 5.11 17.76Z" fill="black"/>
<path fill-rule="evenodd" clip-rule="evenodd" d="M4.26 12.49C4.49 12.49 4.59 12.4 4.7 11.27C4.70997 11.1502 4.70997 11.0298 4.7 10.91C4.71082 10.7902 4.71082 10.6698 4.7 10.55C4.4 9.38999 4.2 9.41999 4.08 9.41999C3.96 9.41999 3.74 9.41999 3.59 10.6C3.57998 10.7231 3.57998 10.8469 3.59 10.97C3.59189 11.0949 3.60867 11.2191 3.64 11.34C3.89 12.43 4 12.51 4.26 12.49Z" fill="black"/>
<path fill-rule="evenodd" clip-rule="evenodd" d="M9.3 12C9.51 12 9.63 11.94 9.9 10.94C9.9 10.84 9.9 10.73 9.97 10.63C9.98 10.5202 9.98 10.4098 9.97 10.3C9.88 9.2 9.67 9.2 9.56 9.19C9.25 9.19 8.91 10.19 8.91 10.19C8.87243 10.2965 8.8489 10.4074 8.84 10.52C8.83035 10.6331 8.83035 10.7469 8.84 10.86C8.94 11.84 9.09 11.93 9.3 12Z" fill="black"/>
<path fill-rule="evenodd" clip-rule="evenodd" d="M15 8.75001C14.87 8.75001 14.65 8.70001 14.38 9.99001C14.3529 10.1252 14.3362 10.2623 14.33 10.4V10.83C14.44 12 14.53 12.15 14.79 12.16C15.05 12.17 15.16 12.04 15.39 10.88C15.4199 10.7416 15.4399 10.6013 15.45 10.46C15.4647 10.3204 15.4647 10.1796 15.45 10.04C15.36 8.74001 15.16 8.75001 15 8.75001Z" fill="black"/>
</svg>
