<svg width="24" height="24" viewBox="0 0 24 24" fill="none" xmlns="http://www.w3.org/2000/svg">
<g clip-path="url(#clip0_1035_4814)">
<path fill-rule="evenodd" clip-rule="evenodd" d="M16.84 14.3C17.4341 14.4969 18.0426 14.6473 18.66 14.75C19.5982 14.8802 20.5431 14.957 21.49 14.98C21.5764 14.9657 21.655 14.9211 21.7116 14.8542C21.7683 14.7874 21.7994 14.7026 21.7994 14.615C21.7994 14.5274 21.7683 14.4426 21.7116 14.3758C21.655 14.3089 21.5764 14.2644 21.49 14.25C20.2841 13.8538 19.0461 13.5627 17.79 13.38C17.42 13.38 17.13 13.32 16.89 13.31C16.13 13.6 16.25 14.24 16.84 14.3ZM6.09 11.91C1.47 11.41 1.94 11.43 1.16 11.55C1.39007 8.96145 2.49386 6.52816 4.29 4.65001C5.14635 6.21007 6.22797 7.63539 7.5 8.88001C8.18 9.49001 8.43 9.24001 8.36 8.35001C7.2892 6.84927 6.10222 5.43492 4.81 4.12001C6.88835 2.28092 9.56481 1.26081 12.34 1.25001C11.86 4.62001 11.91 3.91001 11.8 4.72001C11.75 5.06001 11.6 6.36001 11.53 7.38001C11.53 8.15001 12.19 8.24001 12.53 7.38001C12.64 6.82001 12.75 6.27001 12.76 6.23001C13.1394 4.59224 13.2709 2.9068 13.15 1.23001C14.8142 1.34898 16.4278 1.85367 17.8632 2.70414C19.2986 3.55461 20.5163 4.72751 21.42 6.13001C24.59 10.75 23.08 17.94 20 20C19.9594 20.0201 19.9235 20.0487 19.8947 20.0838C19.866 20.1188 19.845 20.1596 19.8332 20.2034C19.8214 20.2472 19.819 20.2929 19.8262 20.3377C19.8335 20.3825 19.8501 20.4252 19.8751 20.463C19.9001 20.5009 19.9329 20.533 19.9712 20.5572C20.0095 20.5814 20.0526 20.5972 20.0975 20.6036C20.1424 20.6099 20.1881 20.6066 20.2316 20.5939C20.2752 20.5813 20.3155 20.5595 20.35 20.53C23.28 18.62 24.35 13.8 23.94 10.41C23.5973 7.68384 22.3195 5.16098 20.3245 3.27172C18.3294 1.38247 15.7408 0.243826 13 0.0500066C10.9547 -0.0711143 8.91179 0.322683 7.0581 1.19535C5.20441 2.06803 3.59921 3.3917 2.38942 5.04521C1.17962 6.69873 0.403882 8.62927 0.133196 10.6601C-0.13749 12.691 0.105524 14.7573 0.839997 16.67C3.41 23.06 11.05 25.17 16.55 23.33C16.5952 23.3164 16.6372 23.2938 16.6735 23.2636C16.7097 23.2334 16.7395 23.1961 16.761 23.1541C16.7825 23.112 16.7953 23.0661 16.7985 23.019C16.8018 22.9719 16.7955 22.9246 16.78 22.88C16.59 22.29 16.13 22.95 13.78 23.12C6.52 23.6 1.08 18.88 1.12 12.41C1.34033 12.5069 1.56763 12.5872 1.8 12.65C2.28 12.73 4.66 12.88 5.12 12.89H6.05C6.73 12.78 6.85 12.2 6.09 11.91Z" fill="black"/>
<path fill-rule="evenodd" clip-rule="evenodd" d="M16 12.41C15.8973 11.4523 15.484 10.5546 14.8231 9.85396C14.1622 9.15333 13.2901 8.68833 12.34 8.53001C11.1651 8.35547 9.96829 8.64214 9 9.33001C8.08562 9.96202 7.44293 10.9153 7.2 12L7.09 12.74C7.04789 13.3107 7.12176 13.8841 7.30714 14.4255C7.49252 14.9669 7.78558 15.4652 8.16866 15.8903C8.55175 16.3154 9.01692 16.6586 9.53617 16.8992C10.0554 17.1397 10.618 17.2727 11.19 17.29C11.8647 17.3616 12.547 17.2865 13.19 17.07C13.2815 17.0395 13.3571 16.9739 13.4003 16.8876C13.4434 16.8014 13.4505 16.7015 13.42 16.61C13.3895 16.5185 13.3239 16.4429 13.2376 16.3997C13.1514 16.3566 13.0515 16.3495 12.96 16.38C12.4103 16.5335 11.834 16.5676 11.27 16.48C10.6376 16.4305 10.032 16.2036 9.5228 15.8252C9.01364 15.4468 8.62161 14.9324 8.39179 14.3412C8.16197 13.7499 8.1037 13.1058 8.22368 12.4829C8.34365 11.86 8.63701 11.2836 9.07 10.82C9.41665 10.4257 9.84851 10.1154 10.3328 9.91269C10.8172 9.70999 11.3413 9.62017 11.8655 9.65004C12.3897 9.67991 12.9002 9.82869 13.3584 10.0851C13.8166 10.3415 14.2104 10.6988 14.51 11.13C15.58 12.6 15.08 14.92 14.18 15.54C14.1097 15.5878 14.0613 15.6615 14.0453 15.7449C14.0294 15.8284 14.0473 15.9147 14.095 15.985C14.1427 16.0553 14.2164 16.1037 14.2999 16.1197C14.3833 16.1356 14.4697 16.1178 14.54 16.07C15.162 15.6322 15.5945 14.9746 15.75 14.23C15.9282 13.6402 16.0125 13.026 16 12.41Z" fill="black"/>
</g>
<defs>
<clipPath id="clip0_1035_4814">
<rect width="24" height="24" fill="white"/>
</clipPath>
</defs>
</svg>
