<svg width="24" height="24" viewBox="0 0 24 24" fill="none" xmlns="http://www.w3.org/2000/svg">
<g clip-path="url(#clip0_1046_5583)">
<path fill-rule="evenodd" clip-rule="evenodd" d="M7.19 16.52C6.94391 16.5468 6.70207 16.6039 6.47 16.69C6.27153 16.777 6.08084 16.8807 5.9 17C5.85289 16.8426 5.81614 16.6822 5.79 16.52C5.77058 16.2537 5.77058 15.9863 5.79 15.72C5.82378 15.5404 5.89536 15.3699 6 15.22C6.10753 15.184 6.21793 15.1573 6.33 15.14C6.86 15.08 7.71 15.05 8.51 15.03H10.35C10.4282 15.0279 10.5029 14.9973 10.56 14.9438C10.6171 14.8904 10.6527 14.8179 10.66 14.74C10.6627 14.7003 10.6573 14.6604 10.6439 14.6229C10.6306 14.5854 10.6097 14.551 10.5825 14.5219C10.5553 14.4928 10.5224 14.4696 10.4858 14.4538C10.4492 14.438 10.4098 14.4299 10.37 14.43C9.69 14.43 7.8 14.28 6.65 14.28C6.3386 14.2776 6.02753 14.301 5.72 14.35C5.61726 14.38 5.52189 14.4311 5.44 14.5C5.22039 14.7305 5.06222 15.0125 4.98 15.32C4.87854 15.7017 4.8281 16.0951 4.83 16.49C4.79459 16.9326 4.79459 17.3774 4.83 17.82C4.8402 17.9104 4.87047 17.9974 4.91862 18.0745C4.96676 18.1517 5.03155 18.2171 5.10825 18.266C5.18494 18.3149 5.2716 18.346 5.36187 18.3571C5.45215 18.3682 5.54376 18.3589 5.63 18.33C6.02 18.17 6.34 17.96 6.7 17.81C6.88691 17.7274 7.08634 17.6767 7.29 17.66C7.62398 17.6283 7.96084 17.6701 8.27697 17.7824C8.5931 17.8947 8.88083 18.0748 9.12 18.31C9.36782 18.5464 9.56548 18.8302 9.70121 19.1446C9.83694 19.459 9.90795 19.7976 9.91 20.14C9.9635 20.878 9.78896 21.6145 9.41 22.25C9.18823 22.526 8.90839 22.7497 8.59037 22.9052C8.27236 23.0608 7.92398 23.1444 7.57 23.15C7.08511 23.1821 6.60421 23.0442 6.21 22.76C5.77529 22.4913 5.42791 22.1023 5.21 21.64C5.17836 21.5547 5.11472 21.485 5.03258 21.4458C4.95044 21.4066 4.85625 21.4009 4.77 21.43C4.68466 21.4617 4.61499 21.5253 4.57579 21.6074C4.53658 21.6896 4.53092 21.7838 4.56 21.87C4.80105 22.4729 5.20641 22.9961 5.73 23.38C6.2711 23.803 6.94358 24.0224 7.63 24C8.11869 24.0101 8.60339 23.9102 9.04825 23.7077C9.49311 23.5052 9.88674 23.2052 10.2 22.83C10.7438 22.0477 11.024 21.1124 11 20.16C11.0141 19.6645 10.9254 19.1715 10.7395 18.712C10.5536 18.2524 10.2746 17.8364 9.92 17.49C9.56614 17.1349 9.1373 16.8635 8.66492 16.6957C8.19254 16.5278 7.68859 16.4678 7.19 16.52Z" fill="black"/>
<path fill-rule="evenodd" clip-rule="evenodd" d="M20 19.16C19.7916 19.0217 19.5498 18.9423 19.3 18.93C18.5149 18.8606 17.7251 18.8606 16.94 18.93C16.8957 18.9325 16.8524 18.9439 16.8126 18.9635C16.7729 18.9831 16.7375 19.0105 16.7085 19.0441C16.6796 19.0777 16.6577 19.1168 16.6442 19.159C16.6307 19.2013 16.6259 19.2458 16.63 19.29C16.6325 19.3346 16.6439 19.3784 16.6634 19.4187C16.6829 19.4589 16.7101 19.495 16.7436 19.5247C16.777 19.5544 16.816 19.5773 16.8583 19.5919C16.9006 19.6065 16.9453 19.6127 16.99 19.61C17.7939 19.5737 18.5993 19.6307 19.39 19.78C19.4624 20.2558 19.4072 20.7424 19.23 21.19C19.0492 21.6779 18.7294 22.102 18.31 22.41C17.5669 22.8515 16.6815 22.9877 15.84 22.79C15.4227 22.73 15.025 22.5742 14.678 22.3348C14.331 22.0953 14.0442 21.7788 13.84 21.41C13.6297 20.9637 13.5107 20.48 13.4901 19.9871C13.4695 19.4942 13.5477 19.0022 13.72 18.54C14.0114 17.5254 14.6258 16.6336 15.47 16C15.9566 15.6724 16.5164 15.4697 17.1 15.41C17.3726 15.3612 17.6526 15.3726 17.9204 15.4435C18.1881 15.5143 18.4371 15.6428 18.65 15.82C18.675 15.8549 18.7072 15.884 18.7444 15.9054C18.7817 15.9268 18.823 15.9399 18.8658 15.9439C18.9085 15.9479 18.9516 15.9427 18.9922 15.9287C19.0328 15.9146 19.0698 15.892 19.1009 15.8624C19.132 15.8327 19.1563 15.7968 19.1723 15.7569C19.1883 15.7171 19.1955 15.6743 19.1935 15.6314C19.1916 15.5885 19.1804 15.5466 19.1608 15.5084C19.1412 15.4702 19.1137 15.4366 19.08 15.41C18.8724 15.1939 18.6242 15.0208 18.3497 14.9007C18.0751 14.7806 17.7796 14.7158 17.48 14.71C16.6181 14.6624 15.7607 14.8637 15.01 15.29C13.9649 15.9693 13.1684 16.9694 12.74 18.14C12.499 18.7348 12.3826 19.3727 12.3981 20.0143C12.4136 20.6559 12.5606 21.2875 12.83 21.87C13.1034 22.3926 13.4939 22.845 13.9709 23.1919C14.4479 23.5388 14.9986 23.7709 15.58 23.87C16.7099 24.089 17.8805 23.8556 18.84 23.22C19.3864 22.764 19.7892 22.1597 20 21.48C20.2293 20.8162 20.2571 20.0995 20.08 19.42C20.0802 19.3272 20.0523 19.2366 20 19.16Z" fill="black"/>
<path fill-rule="evenodd" clip-rule="evenodd" d="M13.62 10.07C14.0889 10.1775 14.5318 10.377 14.9232 10.6567C15.3145 10.9365 15.6465 11.2911 15.9 11.7C15.9201 11.7402 15.9481 11.7761 15.9822 11.8055C16.0163 11.8348 16.0559 11.8572 16.0987 11.8711C16.1414 11.8851 16.1866 11.8904 16.2314 11.8868C16.2763 11.8831 16.32 11.8706 16.36 11.85C16.4394 11.8074 16.4993 11.7358 16.5273 11.6501C16.5552 11.5644 16.549 11.4712 16.51 11.39C16.2722 10.8343 15.9206 10.3346 15.478 9.92294C15.0354 9.51131 14.5115 9.19692 13.94 8.99999C13.4504 8.83281 12.9373 8.74504 12.42 8.73999C11.9061 8.74694 11.3966 8.83468 10.91 8.99999C9.79109 9.35893 8.82354 10.0802 8.16 11.05C8.12994 11.0794 8.1064 11.1148 8.09092 11.1539C8.07544 11.1931 8.06835 11.235 8.07013 11.277C8.0719 11.319 8.08249 11.3602 8.10121 11.3979C8.11993 11.4356 8.14636 11.4689 8.17879 11.4957C8.21122 11.5224 8.24893 11.5421 8.28945 11.5534C8.32998 11.5647 8.37242 11.5673 8.41402 11.5611C8.45563 11.5549 8.49547 11.54 8.53095 11.5174C8.56644 11.4949 8.59678 11.4651 8.62 11.43C9.32045 10.7248 10.2152 10.2443 11.19 10.05C11.5949 9.96717 12.0068 9.92364 12.42 9.91999C12.8247 9.91931 13.2279 9.9697 13.62 10.07Z" fill="black"/>
<path fill-rule="evenodd" clip-rule="evenodd" d="M9.44 5.88002C10.2765 5.66375 11.1361 5.54958 12 5.54002C12.8453 5.52322 13.6892 5.61736 14.51 5.82002C16.4561 6.32361 18.1776 7.46422 19.4 9.06002C19.4269 9.09942 19.4613 9.13312 19.5013 9.15922C19.5412 9.18531 19.5859 9.20329 19.6328 9.21211C19.6797 9.22093 19.7279 9.22043 19.7746 9.21063C19.8213 9.20084 19.8656 9.18194 19.905 9.15502C19.9444 9.1281 19.9781 9.09368 20.0042 9.05373C20.0303 9.01378 20.0483 8.96909 20.0571 8.92219C20.0659 8.8753 20.0654 8.82713 20.0556 8.78043C20.0458 8.73373 20.0269 8.68941 20 8.65002C18.7672 6.80088 16.934 5.43391 14.81 4.78002C12.9742 4.2264 11.0158 4.2264 9.18 4.78002C7.047 5.45283 5.19494 6.80937 3.91 8.64002C3.8864 8.67288 3.86994 8.71031 3.86167 8.74991C3.8534 8.7895 3.85351 8.8304 3.86198 8.86995C3.87046 8.90951 3.88712 8.94685 3.91089 8.97958C3.93465 9.01232 3.96501 9.03972 4 9.06002C4.06127 9.09887 4.13455 9.11419 4.20625 9.10316C4.27796 9.09213 4.34324 9.05549 4.39 9.00002C5.71073 7.46346 7.47485 6.37355 9.44 5.88002Z" fill="black"/>
<path fill-rule="evenodd" clip-rule="evenodd" d="M22.88 6.71999C22.15 3.60999 19.45 1.50999 16.14 0.55999C14.8374 0.196567 13.4923 0.00824428 12.14 -9.88302e-06C10.7893 -0.00755845 9.44384 0.167356 8.14 0.51999C4.94 1.40999 2.22 3.40999 1.14 6.43999C1.11083 6.51425 1.11235 6.59706 1.14423 6.6702C1.17611 6.74334 1.23574 6.80082 1.31 6.82999C1.38426 6.85916 1.46707 6.85764 1.54021 6.82576C1.61335 6.79388 1.67083 6.73425 1.7 6.65999C2.82 3.92999 5.43 2.29999 8.4 1.57999C9.62215 1.29076 10.8741 1.14644 12.13 1.14999C13.3871 1.14679 14.6398 1.29792 15.86 1.59999C18.86 2.36999 21.44 4.10999 22.22 6.88999C22.2293 6.93399 22.2475 6.97562 22.2735 7.01232C22.2995 7.04903 22.3327 7.08005 22.3711 7.10346C22.4095 7.12687 22.4522 7.14219 22.4968 7.14847C22.5413 7.15475 22.5866 7.15187 22.63 7.13999C22.6744 7.12951 22.7162 7.11021 22.753 7.08324C22.7897 7.05627 22.8207 7.02218 22.844 6.98299C22.8674 6.9438 22.8826 6.90033 22.8887 6.85514C22.8949 6.80996 22.8919 6.764 22.88 6.71999Z" fill="black"/>
</g>
<defs>
<clipPath id="clip0_1046_5583">
<rect width="24" height="24" fill="white"/>
</clipPath>
</defs>
</svg>
