<svg width="24" height="24" viewBox="0 0 24 24" fill="none" xmlns="http://www.w3.org/2000/svg">
<g clip-path="url(#clip0_1030_1886)">
<path fill-rule="evenodd" clip-rule="evenodd" d="M4.25 22.52C3.76 22.41 3.34 22.3 2.97 22.2C2.62012 22.1322 2.2828 22.0108 1.97 21.84L1.32 18.84C1.32281 18.7912 1.31508 18.7424 1.29732 18.6969C1.27957 18.6514 1.25222 18.6103 1.21713 18.5763C1.18204 18.5423 1.14004 18.5162 1.09398 18.4999C1.04792 18.4836 0.998897 18.4775 0.950238 18.4818C0.901578 18.4862 0.854429 18.501 0.812001 18.5252C0.769573 18.5494 0.732864 18.5825 0.704372 18.6222C0.67588 18.6619 0.656275 18.7072 0.646893 18.7552C0.63751 18.8031 0.638571 18.8525 0.650001 18.9C0.627811 19.7342 0.654524 20.569 0.730001 21.4C0.752712 21.9017 0.963329 22.3765 1.32 22.73C1.6327 22.8856 1.972 22.9806 2.32 23.01C2.95841 23.0653 3.59938 23.0853 4.24 23.07C4.31158 23.0664 4.37948 23.0372 4.43142 22.9878C4.48335 22.9384 4.51589 22.8721 4.52314 22.8008C4.5304 22.7295 4.51188 22.6579 4.47095 22.5991C4.43002 22.5403 4.36938 22.498 4.3 22.48L4.25 22.52Z" fill="black"/>
<path fill-rule="evenodd" clip-rule="evenodd" d="M23.08 18.77C22.9913 18.7616 22.9029 18.7883 22.8337 18.8444C22.7645 18.9005 22.7201 18.9815 22.71 19.07L22.06 22.07C21.7472 22.2408 21.4099 22.3622 21.06 22.43C20.69 22.53 20.27 22.64 19.78 22.75C19.7021 22.76 19.6312 22.8002 19.5826 22.8619C19.534 22.9236 19.5115 23.0019 19.52 23.08C19.5238 23.1182 19.535 23.1552 19.5532 23.189C19.5713 23.2228 19.596 23.2526 19.6258 23.2768C19.6555 23.301 19.6898 23.319 19.7265 23.3299C19.7633 23.3407 19.8019 23.3442 19.84 23.34C20.4806 23.3604 21.1219 23.3404 21.76 23.28C22.1098 23.2608 22.4511 23.1652 22.76 23C23.1167 22.6465 23.3273 22.1717 23.35 21.67C23.4259 20.839 23.4526 20.0042 23.43 19.17C23.4412 19.1195 23.4403 19.0671 23.4275 19.017C23.4146 18.9669 23.3902 18.9205 23.3561 18.8815C23.3221 18.8426 23.2793 18.8122 23.2314 18.7929C23.1834 18.7735 23.1316 18.7657 23.08 18.77Z" fill="black"/>
<path fill-rule="evenodd" clip-rule="evenodd" d="M1.06999 16.34C1.14425 15.9397 1.19765 15.5358 1.22999 15.13C1.24496 14.9603 1.24496 14.7897 1.22999 14.62C1.21927 14.4524 1.19924 14.2854 1.16999 14.12C1.08999 13.73 0.999987 13.36 0.909987 13C0.908693 12.9554 0.898611 12.9114 0.880318 12.8706C0.862024 12.8299 0.835878 12.7931 0.803374 12.7625C0.770869 12.7318 0.732644 12.7079 0.690882 12.692C0.64912 12.6762 0.604641 12.6687 0.559987 12.67C0.473261 12.6725 0.390778 12.7081 0.329428 12.7695C0.268077 12.8308 0.232502 12.9133 0.229987 13C0.169987 13.42 0.109987 13.81 0.0899868 14.22C0.0799897 14.3899 0.0799897 14.5602 0.0899868 14.73C0.0990427 14.9011 0.119084 15.0715 0.149987 15.24C0.239987 15.65 0.369987 16.01 0.479987 16.41C0.485136 16.4878 0.520379 16.5606 0.578246 16.6128C0.636114 16.6651 0.712058 16.6928 0.789987 16.69C0.832265 16.6878 0.873594 16.6766 0.911258 16.6573C0.948921 16.638 0.982066 16.6109 1.00851 16.5778C1.03496 16.5448 1.05411 16.5065 1.06471 16.4655C1.0753 16.4245 1.0771 16.3817 1.06999 16.34Z" fill="black"/>
<path fill-rule="evenodd" clip-rule="evenodd" d="M23.77 13.17C23.77 13.0798 23.7342 12.9934 23.6704 12.9296C23.6067 12.8658 23.5202 12.83 23.43 12.83C23.3398 12.83 23.2533 12.8658 23.1896 12.9296C23.1258 12.9934 23.09 13.0798 23.09 13.17C23.02 13.57 22.91 13.95 22.84 14.34C22.8095 14.5053 22.7895 14.6723 22.78 14.84C22.765 15.0097 22.765 15.1803 22.78 15.35C22.813 15.7558 22.8664 16.1596 22.94 16.56C22.932 16.6033 22.9336 16.6478 22.9447 16.6904C22.9559 16.733 22.9762 16.7726 23.0044 16.8064C23.0325 16.8403 23.0678 16.8675 23.1077 16.8862C23.1475 16.9049 23.191 16.9146 23.235 16.9146C23.279 16.9146 23.3225 16.9049 23.3623 16.8862C23.4022 16.8675 23.4375 16.8403 23.4656 16.8064C23.4938 16.7726 23.5141 16.733 23.5253 16.6904C23.5364 16.6478 23.538 16.6033 23.53 16.56C23.64 16.17 23.77 15.81 23.86 15.4C23.8898 15.2313 23.9099 15.061 23.92 14.89C23.93 14.7168 23.93 14.5432 23.92 14.37C23.89 14 23.83 13.58 23.77 13.17Z" fill="black"/>
<path fill-rule="evenodd" clip-rule="evenodd" d="M10.46 22.35C10.05 22.28 9.68001 22.17 9.29001 22.1C9.12498 22.0662 8.95799 22.0428 8.79001 22.03C8.62016 22.02 8.44986 22.02 8.28001 22.03C7.87425 22.063 7.4704 22.1164 7.07001 22.19C7.00108 22.2028 6.93878 22.2392 6.89394 22.2931C6.8491 22.347 6.82455 22.4149 6.82455 22.485C6.82455 22.5551 6.8491 22.623 6.89394 22.6769C6.93878 22.7308 7.00108 22.7673 7.07001 22.78C7.47001 22.89 7.83001 23.03 8.24001 23.11C8.40841 23.1438 8.57873 23.1672 8.75001 23.18H9.26001C9.67001 23.18 10.06 23.1 10.48 23.04C10.5702 23.04 10.6567 23.0042 10.7204 22.9404C10.7842 22.8767 10.82 22.7902 10.82 22.7C10.82 22.6098 10.7842 22.5234 10.7204 22.4596C10.6567 22.3958 10.5702 22.36 10.48 22.36L10.46 22.35Z" fill="black"/>
<path fill-rule="evenodd" clip-rule="evenodd" d="M6.64001 1.69001C7.0403 1.76427 7.44418 1.81767 7.85001 1.85001C8.01987 1.86 8.19016 1.86 8.36001 1.85001L8.86001 1.78001C9.25001 1.71001 9.62001 1.60001 10.02 1.53001C10.1102 1.53001 10.1967 1.49418 10.2604 1.43042C10.3242 1.36666 10.36 1.28018 10.36 1.19001C10.36 1.09983 10.3242 1.01335 10.2604 0.949589C10.1967 0.885827 10.1102 0.850006 10.02 0.850006C9.59001 0.780006 9.20001 0.720006 8.79001 0.700006C8.61682 0.690005 8.4432 0.690005 8.27001 0.700006C8.10155 0.707901 7.93417 0.731334 7.77001 0.770006C7.36001 0.850006 7.00001 1.00001 6.60001 1.10001C6.52221 1.10515 6.44946 1.1404 6.39719 1.19826C6.34493 1.25613 6.31724 1.33208 6.32001 1.41001C6.32255 1.44943 6.33286 1.48797 6.35033 1.5234C6.36781 1.55884 6.39211 1.59047 6.42184 1.61649C6.45157 1.6425 6.48615 1.66239 6.52359 1.67501C6.56103 1.68762 6.6006 1.69272 6.64001 1.69001Z" fill="black"/>
<path fill-rule="evenodd" clip-rule="evenodd" d="M0.55 10.36C0.588083 10.36 0.625794 10.3525 0.660978 10.3379C0.696163 10.3234 0.728132 10.302 0.755061 10.2751C0.78199 10.2482 0.803351 10.2162 0.817925 10.181C0.832499 10.1458 0.84 10.1081 0.84 10.07C0.93 9.70002 1 9.37002 1.1 9.00002C1.11484 8.85039 1.11484 8.69965 1.1 8.55002V8.10002C1.08 7.74002 1 7.40002 1 7.00002C1 6.90587 0.962598 6.81557 0.896023 6.749C0.829448 6.68242 0.739152 6.64502 0.645 6.64502C0.550848 6.64502 0.460553 6.68242 0.393977 6.749C0.327402 6.81557 0.29 6.90587 0.29 7.00002C0.21 7.36002 0.11 7.70002 0.05 8.07002V8.53002C0.0228814 8.6854 0.0061775 8.84241 0 9.00002C0.0575005 9.36054 0.134277 9.71772 0.23 10.07C0.229781 10.1108 0.238151 10.1511 0.254564 10.1884C0.270976 10.2257 0.295063 10.2591 0.325255 10.2865C0.355447 10.3138 0.391065 10.3345 0.429789 10.3472C0.468513 10.3599 0.509473 10.3642 0.55 10.36Z" fill="black"/>
<path fill-rule="evenodd" clip-rule="evenodd" d="M24 8.27002C23.94 7.90002 23.84 7.56002 23.76 7.21002C23.7588 7.1658 23.7486 7.12228 23.7302 7.08205C23.7118 7.04182 23.6855 7.00571 23.6528 6.97585C23.6202 6.946 23.5818 6.92302 23.5401 6.90827C23.4984 6.89353 23.4542 6.88732 23.41 6.89002C23.3653 6.88982 23.3211 6.89898 23.2802 6.9169C23.2393 6.93483 23.2026 6.96112 23.1724 6.99409C23.1423 7.02706 23.1194 7.06597 23.1052 7.10833C23.091 7.15069 23.0858 7.19554 23.09 7.24002C23.04 7.59002 22.97 7.93002 22.93 8.30002V8.76002C22.9152 8.90965 22.9152 9.06039 22.93 9.21002C22.99 9.57002 23.1 9.90002 23.19 10.21C23.1887 10.2489 23.1952 10.2877 23.2092 10.3241C23.2231 10.3604 23.2443 10.3936 23.2713 10.4216C23.2984 10.4496 23.3308 10.4718 23.3667 10.487C23.4025 10.5022 23.4411 10.51 23.48 10.51C23.5194 10.51 23.5584 10.5023 23.5948 10.4872C23.6312 10.4721 23.6643 10.45 23.6921 10.4222C23.72 10.3943 23.7421 10.3612 23.7572 10.3248C23.7723 10.2884 23.78 10.2494 23.78 10.21C23.8698 9.87377 23.9432 9.53337 24 9.19002C24.0098 9.03684 24.0098 8.8832 24 8.73002V8.27002Z" fill="black"/>
<path fill-rule="evenodd" clip-rule="evenodd" d="M17.48 22.32C17.12 22.27 16.78 22.2 16.41 22.17C16.2602 22.1601 16.1098 22.1601 15.96 22.17C15.8104 22.1552 15.6596 22.1552 15.51 22.17C15.15 22.23 14.82 22.34 14.45 22.42C14.3722 22.4226 14.2984 22.4553 14.2443 22.5113C14.1902 22.5673 14.16 22.6421 14.16 22.72C14.1586 22.7598 14.1654 22.7994 14.18 22.8364C14.1946 22.8735 14.2166 22.9071 14.2448 22.9352C14.2729 22.9634 14.3065 22.9854 14.3436 23C14.3806 23.0146 14.4202 23.0214 14.46 23.02C14.8121 23.1167 15.1693 23.1935 15.53 23.25C15.6832 23.2602 15.8368 23.2602 15.99 23.25C16.1413 23.2482 16.292 23.2314 16.44 23.2C16.82 23.14 17.16 23.05 17.51 22.97C17.6002 22.97 17.6867 22.9342 17.7504 22.8704C17.8142 22.8067 17.85 22.7202 17.85 22.63C17.85 22.5398 17.8142 22.4533 17.7504 22.3896C17.6867 22.3258 17.6002 22.29 17.51 22.29L17.48 22.32Z" fill="black"/>
<path fill-rule="evenodd" clip-rule="evenodd" d="M14.62 1.61998C14.98 1.70998 15.31 1.81998 15.67 1.87998C15.8232 1.89024 15.9768 1.89024 16.13 1.87998H16.58C16.95 1.87998 17.29 1.76998 17.64 1.71998C17.6888 1.72845 17.7389 1.72614 17.7868 1.71321C17.8347 1.70028 17.8791 1.67704 17.917 1.64513C17.9549 1.61321 17.9854 1.57339 18.0064 1.52845C18.0273 1.48351 18.0381 1.43455 18.0381 1.38498C18.0381 1.33541 18.0273 1.28644 18.0064 1.24151C17.9854 1.19657 17.9549 1.15675 17.917 1.12483C17.8791 1.09292 17.8347 1.06968 17.7868 1.05675C17.7389 1.04382 17.6888 1.04151 17.64 1.04998C17.32 0.99998 17 0.87998 16.61 0.81998H16.15C15.9968 0.810007 15.8432 0.810007 15.69 0.81998C15.3304 0.861102 14.9733 0.921186 14.62 0.99998C14.5421 0.999936 14.4673 1.03017 14.4113 1.08428C14.3554 1.1384 14.3226 1.21216 14.32 1.28998C14.3141 1.33213 14.3175 1.37507 14.3301 1.41575C14.3426 1.45643 14.364 1.49384 14.3926 1.52534C14.4213 1.55684 14.4565 1.58164 14.4958 1.598C14.5351 1.61436 14.5775 1.62186 14.62 1.61998Z" fill="black"/>
<path fill-rule="evenodd" clip-rule="evenodd" d="M0.800007 4.67998C0.8781 4.68848 0.956411 4.66601 1.01812 4.61739C1.07982 4.56878 1.11999 4.4979 1.13001 4.41998C1.23001 4.05998 1.33001 3.73998 1.43001 3.41998C1.53001 3.09998 1.61001 2.93998 1.69001 2.73998C1.73867 2.56181 1.81638 2.39287 1.92001 2.23998C2.00001 2.10998 2.26001 2.00998 2.62001 1.87998C2.98001 1.74998 3.28001 1.65998 3.69001 1.54998C3.77845 1.54232 3.86039 1.50038 3.91831 1.43311C3.97624 1.36584 4.00556 1.27858 4.00001 1.18998C3.99437 1.14331 3.97883 1.09839 3.95443 1.05821C3.93002 1.01803 3.89731 0.983533 3.85849 0.957022C3.81967 0.930511 3.77564 0.912599 3.72933 0.904487C3.68303 0.896375 3.63553 0.898249 3.59001 0.909984C3.02215 0.914748 2.45613 0.975035 1.90001 1.08998C1.55913 1.15131 1.24512 1.31529 1.00001 1.55998C0.80538 1.82881 0.66913 2.13538 0.600007 2.45998C0.517857 3.08647 0.49776 3.71954 0.540007 4.34998C0.53151 4.42808 0.553984 4.50639 0.602599 4.56809C0.651214 4.6298 0.722093 4.66997 0.800007 4.67998Z" fill="black"/>
<path fill-rule="evenodd" clip-rule="evenodd" d="M20.31 1.77002C20.72 1.88002 21.07 2.00002 21.38 2.11002C21.69 2.22002 22 2.33002 22.08 2.46002C22.1836 2.61291 22.2613 2.78184 22.31 2.96002C22.39 3.17002 22.49 3.38002 22.57 3.64002C22.65 3.90002 22.77 4.25002 22.87 4.64002C22.8887 4.71073 22.9326 4.77217 22.9934 4.81278C23.0543 4.85339 23.1278 4.87038 23.2003 4.86056C23.2728 4.85073 23.3392 4.81476 23.387 4.75941C23.4348 4.70407 23.4608 4.63316 23.46 4.56002C23.4924 3.93192 23.4622 3.30216 23.37 2.68002C23.3074 2.35333 23.1705 2.0454 22.97 1.78002C22.7343 1.53695 22.4313 1.36981 22.1 1.30002C21.5431 1.19007 20.9775 1.12983 20.41 1.12002C20.3658 1.11298 20.3207 1.11499 20.2774 1.12591C20.234 1.13684 20.1934 1.15645 20.1578 1.18357C20.1223 1.21069 20.0926 1.24475 20.0707 1.28367C20.0487 1.3226 20.0348 1.36559 20.03 1.41002C20.0237 1.49406 20.0489 1.57742 20.1007 1.64393C20.1524 1.71045 20.227 1.75538 20.31 1.77002Z" fill="black"/>
<path fill-rule="evenodd" clip-rule="evenodd" d="M15.23 12.66C18.13 12.58 20.9 12.45 23.05 12.44C23.1402 12.44 23.2267 12.4042 23.2904 12.3404C23.3542 12.2767 23.39 12.1902 23.39 12.1C23.39 12.0098 23.3542 11.9234 23.2904 11.8596C23.2267 11.7958 23.1402 11.76 23.05 11.76C20.95 11.67 18.25 11.6 15.42 11.59H12.89V11.32C12.89 10.32 12.89 9.32001 12.84 8.32001C12.78 5.87001 12.66 3.50001 12.57 1.41001C12.57 1.31983 12.5342 1.23335 12.4704 1.16959C12.4067 1.10583 12.3202 1.07001 12.23 1.07001C12.1398 1.07001 12.0533 1.10583 11.9896 1.16959C11.9258 1.23335 11.89 1.31983 11.89 1.41001C11.89 3.50001 11.81 5.87001 11.77 8.32001V11.27V11.56C10.77 11.56 9.84 11.61 8.91 11.65C5.91 11.78 3.13 11.99 1.3 12.1C1.22044 12.1 1.14413 12.1316 1.08787 12.1879C1.03161 12.2441 1 12.3204 1 12.4C1 12.4796 1.03161 12.5559 1.08787 12.6121C1.14413 12.6684 1.22044 12.7 1.3 12.7C3.3 12.7 6.54 12.76 10 12.7H11.76V14.24C11.76 16.74 11.89 19.12 11.9 21.14C11.8987 21.1794 11.9051 21.2187 11.919 21.2556C11.9328 21.2925 11.9538 21.3263 11.9807 21.3551C12.0077 21.3839 12.04 21.4071 12.0759 21.4234C12.1118 21.4397 12.1506 21.4487 12.19 21.45C12.2682 21.4479 12.3429 21.4172 12.4 21.3638C12.4571 21.3104 12.4927 21.2379 12.5 21.16C12.63 19.16 12.77 16.75 12.84 14.25V12.68L15.23 12.66Z" fill="black"/>
</g>
<defs>
<clipPath id="clip0_1030_1886">
<rect width="24" height="24" fill="white"/>
</clipPath>
</defs>
</svg>
