<svg width="24" height="24" viewBox="0 0 24 24" fill="none" xmlns="http://www.w3.org/2000/svg">
<g clip-path="url(#clip0_1046_5606)">
<path fill-rule="evenodd" clip-rule="evenodd" d="M24 11.66C23.9907 10.5841 23.853 9.51323 23.59 8.46998C23.535 8.26399 23.4243 8.07715 23.27 7.92998C23.0417 7.76308 22.7838 7.64092 22.51 7.56998C22.04 7.44998 21.45 7.39998 20.95 7.31998C20.7084 7.30538 20.4744 7.22969 20.27 7.09998C20.16 6.99998 20.17 6.74998 20.15 6.47998C20.1139 5.95536 20.0234 5.43591 19.88 4.92998C19.7831 4.6513 19.6056 4.40767 19.37 4.22998C18.9563 3.97745 18.4844 3.83621 18 3.81998C17.11 3.73998 16 3.81998 15.17 3.81998L8.70001 3.99998C3.12001 3.99998 2.64001 3.99998 1.94001 4.17998C1.45187 4.30208 1.00602 4.55438 0.650008 4.90998C0.372912 5.21655 0.18602 5.59379 0.110008 5.99998C0.0184027 6.56847 -0.0184328 7.14445 8.44197e-06 7.71998V13.13C8.44197e-06 13.86 8.44151e-06 16.31 0.110008 17.79C0.123343 18.2562 0.218104 18.7164 0.390008 19.15C1.01578 19.7393 1.8405 20.0713 2.70001 20.08C4.38343 20.2081 6.07223 20.2514 7.76001 20.21H15.01C15.8848 20.2289 16.7599 20.1921 17.63 20.1C18.2665 20.0459 18.8872 19.8729 19.46 19.59C19.6214 19.5068 19.7646 19.3923 19.8813 19.2532C19.9981 19.1142 20.086 18.9533 20.14 18.78C20.2778 18.197 20.3416 17.5989 20.33 17C20.33 16.78 20.33 16.56 20.44 16.46C20.7242 16.2832 21.0464 16.1769 21.38 16.15C21.8366 16.0967 22.2881 16.0064 22.73 15.88C23.0293 15.7801 23.2956 15.6003 23.5 15.36C23.6854 15.0989 23.8055 14.7971 23.85 14.48C23.9965 13.5476 24.0468 12.6026 24 11.66ZM22.79 14.18C22.7767 14.3574 22.7291 14.5306 22.65 14.69C22.48 14.9 22.17 14.92 21.85 14.97C21.3983 15.0233 20.9506 15.1069 20.51 15.22C20.2442 15.3005 19.9939 15.4256 19.77 15.59C19.4938 15.8244 19.3125 16.1515 19.26 16.51C19.18 16.91 19.2 17.41 19.16 17.88C19.16 18.16 19.16 18.44 18.94 18.55C18.4901 18.7633 18.006 18.8954 17.51 18.94C16.6826 19.0221 15.8514 19.0588 15.02 19.05L7.79001 19.12C6.60001 19.12 4.45001 19.25 2.79001 19.12C2.00001 19 1.39001 18.92 1.17001 18.61C1.01495 17.9549 0.941064 17.2831 0.950008 16.61C0.870008 15.26 0.840008 13.71 0.830008 13.16L0.750008 7.70998C0.695636 7.1914 0.695636 6.66856 0.750008 6.14998C0.784757 5.8545 0.906587 5.57604 1.10001 5.34998C1.37115 5.06516 1.71815 4.8639 2.10001 4.76998C2.94001 4.53998 3.17001 4.63998 8.68001 4.76998H15.14H17.51C17.9558 4.73575 18.403 4.81487 18.81 4.99998C19.04 5.16998 19.06 5.53998 19.1 5.90998C19.1296 6.39771 19.1964 6.88246 19.3 7.35998C19.3469 7.53264 19.4362 7.69079 19.56 7.81998C19.7834 8.01715 20.0509 8.15776 20.34 8.22998C21.0876 8.29497 21.8237 8.4563 22.53 8.70998C22.46 8.77998 22.63 8.98998 22.68 9.21998C22.8412 10.2654 22.9148 11.3224 22.9 12.38C22.9038 12.9825 22.8603 13.5843 22.77 14.18H22.79Z" fill="black"/>
<path fill-rule="evenodd" clip-rule="evenodd" d="M7.08002 8.13996C7.02478 7.84292 6.88999 7.56643 6.69002 7.33996C6.2538 7.01056 5.71603 6.84428 5.17002 6.86995C3.57002 6.86995 3.46002 7.49995 3.38002 8.86995C3.30002 10.24 3.38002 12.58 3.30002 14.06C3.30002 14.44 3.30002 15.3 3.38002 15.95C3.4026 16.2925 3.47677 16.6296 3.60002 16.95C3.76057 17.1261 3.95958 17.2628 4.18158 17.3496C4.40358 17.4363 4.64258 17.4706 4.88002 17.45C5.47149 17.4532 6.04127 17.2274 6.47002 16.82C6.722 16.5323 6.90347 16.1899 7.00002 15.82C7.12045 15.3585 7.19416 14.8861 7.22002 14.41C7.22002 13.79 7.28002 13.16 7.22002 12.54C7.22002 11.61 7.22002 10.69 7.13002 9.76996C7.15909 9.22618 7.14236 8.68093 7.08002 8.13996ZM6.25002 9.78995V12.53C6.25002 13.13 6.21002 13.73 6.13002 14.33C6.09529 14.727 6.01818 15.1193 5.90002 15.5C5.84563 15.6976 5.75023 15.8816 5.62002 16.04C5.49111 16.1503 5.33625 16.226 5.17002 16.26C4.26002 16.46 4.58002 16.65 4.31002 14.02C4.31002 12.75 4.11002 10.89 4.07002 9.48995C4.00002 7.80995 3.87002 7.54996 5.15002 7.60996C5.49033 7.59672 5.82512 7.69892 6.10002 7.89996C6.215 8.07864 6.27418 8.28751 6.27002 8.49995C6.29443 8.92988 6.28774 9.361 6.25002 9.78995Z" fill="black"/>
</g>
<defs>
<clipPath id="clip0_1046_5606">
<rect width="24" height="24" fill="white"/>
</clipPath>
</defs>
</svg>
