<svg width="24" height="24" viewBox="0 0 24 24" fill="none" xmlns="http://www.w3.org/2000/svg">
<g clip-path="url(#clip0_1046_5595)">
<path fill-rule="evenodd" clip-rule="evenodd" d="M24 11.66C23.9907 10.5841 23.853 9.51323 23.59 8.46998C23.535 8.26399 23.4243 8.07715 23.27 7.92998C23.0417 7.76308 22.7838 7.64092 22.51 7.56998C22.04 7.44998 21.45 7.39998 20.95 7.31998C20.7084 7.30538 20.4744 7.22969 20.27 7.09998C20.16 6.99998 20.17 6.74998 20.15 6.47998C20.1139 5.95536 20.0234 5.43591 19.88 4.92998C19.7831 4.6513 19.6056 4.40767 19.37 4.22998C18.9563 3.97745 18.4844 3.83621 18 3.81998C17.11 3.73998 16 3.81998 15.17 3.81998L8.7 3.99998C3.12 3.99998 2.64 3.99998 1.94 4.17998C1.45186 4.30208 1.00601 4.55438 0.650001 4.90998C0.372904 5.21655 0.186012 5.59379 0.110001 5.99998C0.0183951 6.56847 -0.0184405 7.14445 8.12579e-07 7.71998V13.13C8.12579e-07 13.86 8.12113e-07 16.31 0.110001 17.79C0.123336 18.2562 0.218096 18.7164 0.390001 19.15C1.01577 19.7393 1.84049 20.0713 2.7 20.08C4.38342 20.2081 6.07222 20.2514 7.76 20.21H15.01C15.8848 20.2289 16.7599 20.1921 17.63 20.1C18.2665 20.0459 18.8872 19.8729 19.46 19.59C19.6214 19.5068 19.7646 19.3923 19.8813 19.2532C19.998 19.1142 20.086 18.9533 20.14 18.78C20.2778 18.197 20.3416 17.5989 20.33 17C20.33 16.78 20.33 16.56 20.44 16.46C20.7242 16.2832 21.0464 16.1769 21.38 16.15C21.8366 16.0967 22.2881 16.0064 22.73 15.88C23.0293 15.7801 23.2956 15.6003 23.5 15.36C23.6854 15.0989 23.8055 14.7971 23.85 14.48C23.9965 13.5476 24.0468 12.6026 24 11.66ZM22.79 14.18C22.7767 14.3574 22.7291 14.5306 22.65 14.69C22.48 14.9 22.17 14.92 21.85 14.97C21.3983 15.0233 20.9506 15.1069 20.51 15.22C20.2441 15.3005 19.9939 15.4256 19.77 15.59C19.4938 15.8244 19.3125 16.1515 19.26 16.51C19.18 16.91 19.2 17.41 19.16 17.88C19.16 18.16 19.16 18.44 18.94 18.55C18.4901 18.7633 18.0059 18.8954 17.51 18.94C16.6826 19.0221 15.8514 19.0588 15.02 19.05L7.79 19.12C6.6 19.12 4.45 19.25 2.79 19.12C2 19 1.39 18.92 1.17 18.61C1.01494 17.9549 0.941056 17.2831 0.950001 16.61C0.870001 15.26 0.840001 13.71 0.830001 13.16L0.750001 7.70998C0.695628 7.1914 0.695628 6.66856 0.750001 6.14998C0.784749 5.8545 0.906579 5.57604 1.1 5.34998C1.37114 5.06516 1.71814 4.8639 2.1 4.76998C2.94 4.53998 3.17 4.63998 8.68 4.76998H15.14H17.51C17.9558 4.73575 18.403 4.81487 18.81 4.99998C19.04 5.16998 19.06 5.53998 19.1 5.90998C19.1296 6.39771 19.1964 6.88246 19.3 7.35998C19.3468 7.53264 19.4362 7.69079 19.56 7.81998C19.7834 8.01715 20.0509 8.15776 20.34 8.22998C21.0876 8.29497 21.8237 8.4563 22.53 8.70998C22.46 8.77998 22.63 8.98998 22.68 9.21998C22.8412 10.2654 22.9148 11.3224 22.9 12.38C22.9038 12.9825 22.8603 13.5843 22.77 14.18H22.79Z" fill="black"/>
</g>
<defs>
<clipPath id="clip0_1046_5595">
<rect width="24" height="24" fill="white"/>
</clipPath>
</defs>
</svg>
