<svg width="24" height="24" viewBox="0 0 24 24" fill="none" xmlns="http://www.w3.org/2000/svg">
<g clip-path="url(#clip0_1046_5610)">
<path fill-rule="evenodd" clip-rule="evenodd" d="M15.87 10.31C15.2083 10.189 14.5407 10.1022 13.87 10.05H13.76C13.7234 9.88547 13.7 9.71827 13.69 9.55001C13.69 8.55001 13.77 6.92001 13.69 6.13001C13.6866 5.9433 13.6563 5.75806 13.6 5.58001C13.35 5.07001 12.89 5.58001 12.53 5.94001C11.64 6.89001 9.77 9.13001 8.6 10.59C8.16 11.15 7.81 11.59 7.66 11.82C7.58089 11.9149 7.53197 12.0314 7.51949 12.1543C7.50702 12.2773 7.53157 12.4011 7.59 12.51C7.75868 12.6787 7.98213 12.7816 8.22 12.8C8.81 12.89 10.11 12.91 10.71 12.94C10.71 13.94 10.57 16.36 10.52 17.45V17.96C10.5091 18.0865 10.5379 18.2133 10.6024 18.3226C10.6669 18.432 10.764 18.5184 10.88 18.57C10.9812 18.6138 11.0931 18.6267 11.2016 18.6071C11.3101 18.5875 11.4104 18.5364 11.49 18.46C11.5904 18.3705 11.684 18.2735 11.77 18.17C12.15 17.73 12.93 16.76 13.77 15.68C14.7484 14.4142 15.6564 13.0955 16.49 11.73C16.6589 11.4767 16.7365 11.1733 16.71 10.87C16.6207 10.7199 16.4989 10.5917 16.3535 10.4947C16.2081 10.3978 16.0429 10.3347 15.87 10.31ZM15.54 11.48C14.79 12.66 12.96 14.99 11.78 16.48C11.78 15.94 11.83 15.33 11.84 14.76V12.7C11.8445 12.5623 11.8137 12.4258 11.7507 12.3033C11.6878 12.1809 11.5946 12.0765 11.48 12C11.3271 11.9387 11.1646 11.9048 11 11.9H8.82C8.81712 11.8801 8.81712 11.8599 8.82 11.84C9.82 10.47 12 7.60001 13 6.42001H13.05V6.48001C13.05 7.29001 12.94 8.60001 12.91 9.48001C12.8873 9.78626 12.8873 10.0938 12.91 10.4C12.9275 10.5414 12.9992 10.6704 13.11 10.76C13.3408 10.8643 13.5876 10.9286 13.84 10.95C14.4623 11.0159 15.0801 11.1195 15.69 11.26L15.54 11.48Z" fill="black"/>
<path fill-rule="evenodd" clip-rule="evenodd" d="M20.59 10.68C20.4777 10.3478 20.2799 10.051 20.0167 9.81927C19.7534 9.58759 19.4338 9.42921 19.09 9.36001C19.0131 9.33438 18.9291 9.33991 18.8562 9.37543C18.7833 9.41095 18.7272 9.47363 18.7 9.55002C18.6773 9.62564 18.6844 9.70707 18.7197 9.77768C18.755 9.8483 18.8159 9.90278 18.89 9.93002C19.0743 10.0444 19.2285 10.2012 19.3398 10.3874C19.4512 10.5735 19.5164 10.7836 19.53 11C19.5653 11.1814 19.5854 11.3653 19.59 11.55C19.6053 11.7364 19.6053 11.9237 19.59 12.11C19.5711 12.3287 19.5072 12.5411 19.4022 12.7339C19.2972 12.9266 19.1535 13.0955 18.98 13.23C18.9398 13.2502 18.9039 13.2781 18.8745 13.3122C18.8452 13.3463 18.8228 13.3859 18.8089 13.4287C18.7949 13.4715 18.7896 13.5166 18.7932 13.5615C18.7969 13.6063 18.8094 13.65 18.83 13.69C18.8491 13.7299 18.8761 13.7656 18.9093 13.7948C18.9425 13.8241 18.9812 13.8464 19.0232 13.8604C19.0652 13.8744 19.1096 13.8798 19.1537 13.8763C19.1978 13.8728 19.2408 13.8605 19.28 13.84C19.5992 13.7148 19.8863 13.5195 20.1199 13.2686C20.3536 13.0176 20.5279 12.7174 20.63 12.39C20.8303 11.841 20.8303 11.239 20.63 10.69L20.59 10.68Z" fill="black"/>
<path fill-rule="evenodd" clip-rule="evenodd" d="M23.71 9.78004C23.3092 8.25073 22.3814 6.91204 21.09 6.00004C21.0585 5.97574 21.0225 5.95789 20.9841 5.94751C20.9457 5.93713 20.9056 5.93441 20.8661 5.93952C20.8266 5.94463 20.7886 5.95746 20.7541 5.97728C20.7196 5.9971 20.6893 6.02352 20.665 6.05504C20.6407 6.08656 20.6229 6.12255 20.6125 6.16096C20.6021 6.19938 20.5994 6.23946 20.6045 6.27893C20.6096 6.31839 20.6224 6.35647 20.6422 6.39097C20.6621 6.42548 20.6885 6.45574 20.72 6.48004C21.7405 7.41561 22.4197 8.66489 22.65 10.03C22.7719 10.6023 22.8389 11.185 22.85 11.77C22.8635 12.3533 22.8165 12.9364 22.71 13.51C22.4912 14.8728 21.7795 16.1076 20.71 16.98C20.6732 17.0063 20.642 17.0396 20.6181 17.0779C20.5941 17.1162 20.578 17.1589 20.5706 17.2035C20.5632 17.248 20.5646 17.2936 20.5748 17.3377C20.585 17.3817 20.6037 17.4233 20.63 17.46C20.6563 17.4968 20.6895 17.528 20.7278 17.552C20.7662 17.5759 20.8089 17.592 20.8534 17.5994C20.898 17.6069 20.9436 17.6055 20.9876 17.5953C21.0316 17.5851 21.0732 17.5663 21.11 17.54C22.427 16.6493 23.3619 15.2968 23.73 13.75C24.0689 12.4359 24.0516 11.0553 23.68 9.75004L23.71 9.78004Z" fill="black"/>
<path fill-rule="evenodd" clip-rule="evenodd" d="M5.26001 9.63999C4.74714 9.97965 4.33316 10.4488 4.06001 11C3.94556 11.2559 3.87783 11.5302 3.86001 11.81C3.84762 12.0936 3.8814 12.3773 3.96001 12.65C4.1406 13.2495 4.50426 13.7775 5.00001 14.16C5.0666 14.2218 5.15412 14.2562 5.24501 14.2562C5.3359 14.2562 5.42342 14.2218 5.49001 14.16C5.55414 14.0946 5.59006 14.0066 5.59006 13.915C5.59006 13.8234 5.55414 13.7354 5.49001 13.67C5.29086 13.4226 5.14461 13.137 5.06032 12.8308C4.97604 12.5247 4.95551 12.2044 5.00001 11.89C5.01622 11.7113 5.04631 11.5341 5.09001 11.36C5.18503 10.8922 5.38317 10.4515 5.67001 10.07C5.72498 10.0139 5.75577 9.93852 5.75577 9.85999C5.75577 9.78147 5.72498 9.70607 5.67001 9.64999C5.61571 9.5966 5.54312 9.56585 5.46699 9.56399C5.39085 9.56214 5.31685 9.58931 5.26001 9.63999Z" fill="black"/>
<path fill-rule="evenodd" clip-rule="evenodd" d="M3.73 17.74C3.10615 17.3762 2.57141 16.8776 2.16484 16.2808C1.75828 15.6839 1.49014 15.0038 1.38 14.29C1.24079 13.6728 1.16705 13.0427 1.16 12.41C1.14061 11.7813 1.17742 11.1522 1.27 10.53C1.53 8.89001 2.2 7.53001 3.44 7.15001C3.47888 7.14173 3.51572 7.1258 3.54839 7.10316C3.58105 7.08052 3.60889 7.05161 3.63029 7.01811C3.65169 6.98462 3.66622 6.94721 3.67304 6.90805C3.67986 6.86889 3.67882 6.82877 3.67 6.79001C3.6629 6.75153 3.64808 6.71489 3.62644 6.68229C3.6048 6.64969 3.57679 6.62181 3.54409 6.60032C3.51139 6.57883 3.47468 6.56418 3.43617 6.55725C3.39765 6.55033 3.35814 6.55126 3.32 6.56001C1.77 6.81001 0.640002 8.35001 0.200002 10.32C0.0420602 11.0185 -0.0251607 11.7344 2.32598e-06 12.45C0.0276825 13.1645 0.141848 13.873 0.340002 14.56C0.530336 15.3917 0.911223 16.1679 1.45265 16.8273C1.99407 17.4867 2.68124 18.0114 3.46 18.36C3.50146 18.3835 3.5474 18.3981 3.59484 18.4027C3.64227 18.4073 3.69015 18.4019 3.73536 18.3868C3.78057 18.3717 3.82211 18.3473 3.85727 18.3151C3.89243 18.2829 3.92043 18.2437 3.93946 18.2C3.95849 18.1563 3.96812 18.1091 3.96773 18.0615C3.96733 18.0138 3.95692 17.9667 3.93717 17.9234C3.91742 17.88 3.88877 17.8413 3.85308 17.8097C3.81739 17.7781 3.77546 17.7543 3.73 17.74Z" fill="black"/>
</g>
<defs>
<clipPath id="clip0_1046_5610">
<rect width="24" height="24" fill="white"/>
</clipPath>
</defs>
</svg>
