<svg width="24" height="24" viewBox="0 0 24 24" fill="none" xmlns="http://www.w3.org/2000/svg">
<g clip-path="url(#clip0_1049_7564)">
<path fill-rule="evenodd" clip-rule="evenodd" d="M20.12 19.72C20.0183 19.7252 19.9227 19.7699 19.8536 19.8447C19.7844 19.9194 19.7473 20.0182 19.75 20.12C19.75 20.61 19.96 21.27 20.01 21.88C20.0381 22.0976 20.007 22.3186 19.92 22.52C19.83 22.39 19.46 22.52 19.33 22.47L16.69 22.33C15.3567 22.2691 14.0209 22.2891 12.69 22.39C10.718 22.5781 8.76044 22.8954 6.83 23.34C6.78645 23.3461 6.74455 23.3608 6.70678 23.3833C6.669 23.4058 6.6361 23.4357 6.61002 23.4711C6.58393 23.5065 6.56518 23.5467 6.55488 23.5895C6.54457 23.6322 6.54291 23.6766 6.55 23.72C6.55421 23.7713 6.57038 23.821 6.59722 23.865C6.62406 23.9089 6.66082 23.946 6.70455 23.9732C6.74829 24.0004 6.79779 24.017 6.8491 24.0217C6.9004 24.0263 6.95208 24.0189 7 24C8.29 23.85 9.59 23.75 10.88 23.68C11.88 23.63 12.82 23.62 13.79 23.6C14.76 23.58 15.71 23.55 16.68 23.6H19.34C19.635 23.6443 19.935 23.6443 20.23 23.6C20.3967 23.5606 20.5449 23.4653 20.65 23.33C20.8824 23.0012 20.9921 22.6013 20.96 22.2C20.96 21.51 20.58 20.75 20.55 20.2C20.5652 20.1383 20.5651 20.0739 20.5498 20.0123C20.5344 19.9506 20.5042 19.8937 20.4618 19.8464C20.4195 19.7991 20.3662 19.7628 20.3066 19.7408C20.247 19.7188 20.183 19.7116 20.12 19.72Z" fill="black"/>
<path fill-rule="evenodd" clip-rule="evenodd" d="M22.85 5.17C22.92 5.02 23.01 4.88 23.07 4.73C23.3773 4.0211 23.5209 3.25204 23.49 2.48C23.4641 2.05927 23.3458 1.6494 23.1436 1.27954C22.9414 0.909675 22.6602 0.588897 22.32 0.340004C21.9251 0.0852521 21.4531 -0.0223015 20.9868 0.0362133C20.5205 0.0947282 20.0897 0.315574 19.77 0.660004C19.4008 1.00421 19.081 1.39796 18.82 1.83C18.0175 3.23255 17.4054 4.73578 17 6.3C16.62 7.58 16.32 8.88 16.05 10.19L14.47 10.91C14.3116 10.9838 14.158 11.0673 14.01 11.16C13.9052 11.2387 13.8168 11.3372 13.75 11.45C13.6401 11.6564 13.5818 11.8862 13.58 12.12C13.599 12.5109 13.6696 12.8976 13.79 13.27L14.13 14.27L14.5 15.27C14.5 15.34 14.61 15.57 14.67 15.66C14.731 15.7543 14.8131 15.8331 14.91 15.89C15.0253 15.956 15.1573 15.9872 15.29 15.98C15.456 15.9476 15.6197 15.9042 15.78 15.85L16.88 15.34C17.19 15.16 17.69 14.98 18.08 14.75C18.302 14.6281 18.5016 14.4692 18.67 14.28C18.754 14.175 18.8123 14.0517 18.84 13.92C18.8505 13.6888 18.8338 13.4572 18.79 13.23L18.63 11.91C19.14 11.2 19.63 10.47 20.14 9.74C20.65 9.01 21.14 8.26 21.57 7.51C21.85 7.06 22.15 6.51 22.45 6.03C22.6037 6.41053 22.6419 6.82788 22.56 7.23C22.4679 7.6278 22.3303 8.01368 22.15 8.38C21.87 8.99 21.54 9.64001 21.21 10.31C21.1737 10.3509 21.1467 10.3991 21.1308 10.4514C21.1149 10.5037 21.1105 10.5588 21.1178 10.6129C21.1251 10.6671 21.144 10.719 21.1732 10.7652C21.2025 10.8114 21.2413 10.8507 21.2871 10.8805C21.3329 10.9103 21.3846 10.9299 21.4386 10.9379C21.4927 10.946 21.5479 10.9422 21.6003 10.927C21.6528 10.9117 21.7014 10.8854 21.7427 10.8496C21.7841 10.8139 21.8173 10.7697 21.84 10.72C22.3291 10.1444 22.7832 9.53999 23.2 8.91C23.5112 8.44178 23.7097 7.90782 23.78 7.35C23.8122 6.93858 23.7444 6.52548 23.5825 6.1459C23.4205 5.76632 23.1692 5.43151 22.85 5.17ZM17.77 13.66L17.54 13.78C17.12 13.96 16.61 14.09 16.28 14.24L15.55 14.53L15.25 13.77L14.86 12.88C14.769 12.6858 14.6921 12.4853 14.63 12.28C14.63 12.15 14.54 12.02 14.58 11.92L14.9 11.67L16.47 10.67C16.5718 10.8069 16.6931 10.9282 16.83 11.03C16.9711 11.1241 17.1264 11.195 17.29 11.24C17.4665 11.2942 17.6471 11.3344 17.83 11.36C17.8151 11.4225 17.8151 11.4875 17.83 11.55V13.23C17.81 13.35 17.72 13.57 17.77 13.66ZM20.66 6.94C20.25 7.71 19.81 8.47001 19.37 9.22001L18.37 10.78C18.2099 10.5815 18.0361 10.3943 17.85 10.22C17.7639 10.1543 17.6737 10.0942 17.58 10.04C17.4878 9.98984 17.3906 9.94961 17.29 9.92C17.11 9.92 16.94 9.87001 16.78 9.85001C17.02 8.97001 17.27 8.08 17.57 7.22C17.78 6.62 18.06 6.04 18.32 5.45V5.52C18.4374 5.62525 18.5647 5.71902 18.7 5.8C18.8572 5.88826 19.0253 5.9555 19.2 6C19.552 6.14432 19.917 6.25481 20.29 6.33C20.336 6.3563 20.387 6.37267 20.4397 6.37808C20.4925 6.38349 20.5457 6.3778 20.5961 6.3614C20.6465 6.34499 20.6929 6.31822 20.7324 6.28281C20.7718 6.2474 20.8034 6.20414 20.8251 6.15579C20.8468 6.10745 20.8582 6.05509 20.8585 6.00209C20.8588 5.94909 20.848 5.89662 20.8268 5.84804C20.8056 5.79947 20.7744 5.75587 20.7354 5.72004C20.6963 5.68421 20.6502 5.65695 20.6 5.64C20.31 5.43 20.08 5.18 19.8 4.96C19.6155 4.8143 19.4217 4.68069 19.22 4.56C19.0802 4.49473 18.9366 4.43796 18.79 4.39C18.8157 4.31825 18.8458 4.24813 18.88 4.18C19.1747 3.59471 19.5088 3.03008 19.88 2.49C20.1045 2.158 20.3662 1.85269 20.66 1.58C20.7777 1.43547 20.9432 1.33786 21.1267 1.30484C21.3101 1.27182 21.4993 1.30558 21.66 1.4C21.8417 1.54015 21.9905 1.71844 22.0959 1.92231C22.2013 2.12619 22.2607 2.35069 22.27 2.58C22.3074 3.16621 22.2152 3.75345 22 4.3C21.6203 5.21243 21.1724 6.09493 20.66 6.94Z" fill="black"/>
<path fill-rule="evenodd" clip-rule="evenodd" d="M8.5 15.86C8.41422 15.6133 8.26749 15.3923 8.07343 15.2174C7.87937 15.0426 7.64428 14.9197 7.39 14.86C7.05916 14.8023 6.72083 14.8023 6.39 14.86L6.33 14.48C6.33 14.18 6.22 13.9 6.16 13.6C6.44173 13.6001 6.72173 13.6439 6.99 13.73C7.0318 13.7555 7.07861 13.7717 7.12723 13.7774C7.17586 13.7831 7.22514 13.7783 7.27173 13.7632C7.31831 13.7481 7.36108 13.7232 7.39712 13.69C7.43317 13.6569 7.46163 13.6164 7.48056 13.5712C7.4995 13.5261 7.50846 13.4774 7.50683 13.4284C7.5052 13.3795 7.49303 13.3315 7.47113 13.2877C7.44924 13.2439 7.41815 13.2053 7.37998 13.1747C7.34181 13.144 7.29748 13.122 7.25 13.11C6.85293 12.947 6.42913 12.8588 6 12.85C6 12.61 5.89 12.37 5.85 12.13C5.85 12.0425 5.81523 11.9585 5.75334 11.8967C5.69145 11.8348 5.60752 11.8 5.52 11.8C5.43247 11.8 5.34854 11.8348 5.28665 11.8967C5.22476 11.9585 5.19 12.0425 5.19 12.13V12.82C4.87378 12.8516 4.56386 12.929 4.27 13.05C4.06622 13.1252 3.87964 13.2406 3.72136 13.3893C3.56307 13.538 3.43631 13.7171 3.34862 13.9158C3.26092 14.1145 3.21408 14.3288 3.21088 14.546C3.20769 14.7632 3.24819 14.9788 3.33 15.18C3.39999 15.4169 3.52816 15.6325 3.70283 15.8072C3.87749 15.9818 4.0931 16.11 4.33 16.18C4.65469 16.2735 4.99545 16.2973 5.33 16.25C5.33 16.39 5.38 16.52 5.41 16.66C5.5 17.1 5.64 17.52 5.76 17.95C5.16108 18.0756 4.537 17.9834 4 17.69C3.96132 17.6535 3.91541 17.6256 3.86525 17.6079C3.81509 17.5903 3.76179 17.5834 3.70879 17.5877C3.65579 17.5919 3.60428 17.6073 3.55758 17.6327C3.51088 17.6581 3.47004 17.693 3.43769 17.7352C3.40534 17.7774 3.3822 17.8259 3.36978 17.8776C3.35736 17.9293 3.35592 17.9831 3.36556 18.0354C3.3752 18.0876 3.39571 18.1373 3.42576 18.1812C3.45581 18.2251 3.49472 18.2621 3.54 18.29C4.25094 18.8033 5.12985 19.0284 6 18.92C6 18.99 6 19.05 6.05 19.12C6.05787 19.1699 6.07551 19.2178 6.10188 19.2609C6.12826 19.3039 6.16286 19.3414 6.20372 19.3711C6.24458 19.4008 6.29089 19.4222 6.34001 19.434C6.38913 19.4459 6.44009 19.4479 6.49 19.44C6.5399 19.4321 6.58776 19.4145 6.63085 19.3881C6.67394 19.3617 6.71141 19.3271 6.74112 19.2863C6.77084 19.2454 6.79221 19.1991 6.80403 19.15C6.81585 19.1009 6.81787 19.0499 6.81 19V18.82C7.02885 18.7681 7.24295 18.6979 7.45 18.61C7.70701 18.5076 7.94 18.353 8.13422 18.156C8.32844 17.959 8.47967 17.7238 8.57835 17.4654C8.67703 17.2069 8.72102 16.9308 8.70754 16.6545C8.69405 16.3781 8.62338 16.1076 8.5 15.86ZM4.42 14.86C4.19 14.29 4.55 13.95 5.03 13.79C5.0732 13.7852 5.11679 13.7852 5.16 13.79V14.67V15.12C4.85 15.15 4.55 15.2 4.42 14.85V14.86ZM6.71 17.76C6.71 17.36 6.65 16.97 6.61 16.57V16.15C6.93 16.1 7.25 16.04 7.39 16.36C7.66 17 7.28 17.48 6.71 17.75V17.76Z" fill="black"/>
<path fill-rule="evenodd" clip-rule="evenodd" d="M20.5 16.14C20.4749 15.9578 20.4382 15.7775 20.39 15.6C20.28 15.17 20.11 14.79 20 14.37C20.0085 14.3212 20.0061 14.2711 19.9932 14.2232C19.9803 14.1754 19.9571 14.1309 19.9251 14.093C19.8932 14.0551 19.8534 14.0246 19.8085 14.0037C19.7635 13.9828 19.7146 13.9719 19.665 13.9719C19.6154 13.9719 19.5665 13.9828 19.5215 14.0037C19.4766 14.0246 19.4368 14.0551 19.4048 14.093C19.3729 14.1309 19.3497 14.1754 19.3368 14.2232C19.3238 14.2711 19.3215 14.3212 19.33 14.37C19.2438 14.8153 19.1937 15.2667 19.18 15.72C19.1817 15.9077 19.1985 16.095 19.23 16.28C19.259 16.4697 19.3025 16.6569 19.36 16.84C19.46 17.19 19.6 17.53 19.73 17.84H19.62C17.62 18.49 15.57 19.05 13.52 19.55C11.47 20.05 9.38999 20.46 7.30999 20.81C6.39999 20.98 5.30999 21.33 4.24999 21.53C3.74504 21.6442 3.22725 21.6912 2.70999 21.67C2.53999 21.07 2.32999 19.96 2.30999 19.86C1.98999 18.55 1.69999 17.22 1.45999 15.86C1.21999 14.5 1.06999 13.52 0.929993 12.3C1.82685 11.9605 2.74154 11.67 3.66999 11.43C4.60999 11.18 5.55999 10.98 6.51999 10.78L9.38999 10.17C11.34 9.74001 13.26 9.24001 15.14 8.69001C15.1853 8.68082 15.2283 8.66279 15.2667 8.63696C15.305 8.61113 15.3379 8.578 15.3634 8.53947C15.389 8.50093 15.4067 8.45774 15.4155 8.41237C15.4244 8.36699 15.4242 8.32032 15.415 8.27501C15.4058 8.2297 15.3878 8.18665 15.3619 8.14831C15.3361 8.10997 15.303 8.0771 15.2644 8.05156C15.2259 8.02603 15.1827 8.00833 15.1373 7.99948C15.092 7.99064 15.0453 7.99082 15 8.00001C13.27 8.31001 11.5 8.50001 9.73999 8.79001C8.56999 9.00001 7.39999 9.23001 6.23999 9.53001C4.2979 10.0066 2.40846 10.6766 0.599993 11.53C0.537506 11.5104 0.470603 11.5099 0.407798 11.5284C0.344993 11.547 0.289127 11.5838 0.24731 11.6342C0.205492 11.6846 0.179614 11.7463 0.172968 11.8114C0.166323 11.8766 0.179211 11.9422 0.209993 12C0.279993 13.36 0.409993 14.73 0.579993 16.09C0.749993 17.45 0.959993 18.81 1.19999 20.15C1.19999 20.27 1.41999 21.75 1.58999 22.3C1.62653 22.447 1.70126 22.5818 1.80662 22.6907C1.91198 22.7996 2.04423 22.8787 2.18999 22.92C2.76984 23.0103 3.36015 23.0103 3.93999 22.92C5.16999 22.76 6.47999 22.31 7.53999 22.12C9.63999 21.68 11.72 21.18 13.78 20.6C15.84 20.02 17.87 19.35 19.87 18.6C19.9201 18.5783 19.9654 18.5467 20.0032 18.5072C20.041 18.4677 20.0705 18.4211 20.09 18.37C20.1458 18.384 20.2042 18.384 20.26 18.37C20.3585 18.3483 20.4447 18.2894 20.5007 18.2055C20.5566 18.1216 20.5779 18.0193 20.56 17.92V16.61C20.53 16.5 20.52 16.31 20.5 16.14Z" fill="black"/>
<path fill-rule="evenodd" clip-rule="evenodd" d="M9.66999 18C9.59769 18.0522 9.54878 18.1307 9.53381 18.2186C9.51885 18.3065 9.53903 18.3968 9.58999 18.47C9.61401 18.5066 9.64528 18.5378 9.68186 18.5619C9.71844 18.5859 9.75955 18.6021 9.80267 18.6096C9.84578 18.6171 9.88997 18.6157 9.93251 18.6055C9.97505 18.5952 10.015 18.5763 10.05 18.55C10.4708 18.3021 10.849 17.9881 11.17 17.62L11.35 17.39C11.506 17.5548 11.6929 17.6873 11.9 17.78C12.299 17.9487 12.7379 17.9998 13.1649 17.9271C13.5919 17.8545 13.9893 17.6612 14.31 17.37C14.3784 17.3054 14.4205 17.2178 14.428 17.124C14.4356 17.0303 14.4081 16.937 14.3508 16.8624C14.2936 16.7877 14.2107 16.7369 14.1182 16.7199C14.0257 16.7028 13.9301 16.7207 13.85 16.77C13.6391 16.9192 13.3907 17.0067 13.1328 17.0226C12.8749 17.0385 12.6177 16.9822 12.39 16.86C12.2802 16.7922 12.1889 16.6983 12.1244 16.5866C12.0598 16.4749 12.0239 16.349 12.02 16.22C12.08 16.07 12.14 15.91 12.19 15.74C12.2296 15.5921 12.2596 15.4418 12.28 15.29V14.8C12.2679 14.6689 12.2479 14.5387 12.22 14.41C12.1833 14.3286 12.1295 14.2561 12.0622 14.1974C11.9948 14.1387 11.9157 14.0952 11.83 14.07C11.6864 14.0125 11.5262 14.0126 11.3827 14.0704C11.2393 14.1281 11.1236 14.239 11.06 14.38C10.9804 14.532 10.92 14.6932 10.88 14.86C10.8338 15.0543 10.8003 15.2513 10.78 15.45C10.7488 15.7191 10.7488 15.9909 10.78 16.26C10.6895 16.5502 10.5653 16.8287 10.41 17.09C10.2123 17.4301 9.96263 17.7371 9.66999 18Z" fill="black"/>
</g>
<defs>
<clipPath id="clip0_1049_7564">
<rect width="24" height="24" fill="white"/>
</clipPath>
</defs>
</svg>
