<svg width="24" height="24" viewBox="0 0 24 24" fill="none" xmlns="http://www.w3.org/2000/svg">
<g clip-path="url(#clip0_1052_9021)">
<path fill-rule="evenodd" clip-rule="evenodd" d="M23.3 4.29003C23.1246 3.52018 22.7377 2.81459 22.1829 2.25275C21.6282 1.69091 20.9275 1.29515 20.16 1.11003C20.1166 1.09887 20.0715 1.09635 20.0272 1.10262C19.9829 1.10889 19.9402 1.12383 19.9017 1.14658C19.8632 1.16933 19.8295 1.19945 19.8026 1.23521C19.7757 1.27098 19.7561 1.31169 19.745 1.35503C19.7338 1.39836 19.7313 1.44348 19.7375 1.48778C19.7438 1.53209 19.7588 1.57473 19.7815 1.61327C19.8043 1.65181 19.8344 1.68548 19.8701 1.71238C19.9059 1.73928 19.9466 1.75887 19.99 1.77003C20.4691 1.89565 20.9158 2.12211 21.3004 2.43424C21.685 2.74638 21.9985 3.13701 22.22 3.58003C21.72 4.01003 21.22 4.49003 20.68 4.88003C20.2986 5.16716 19.8578 5.36533 19.39 5.46003C19.2129 5.50575 19.0271 5.50575 18.85 5.46003C18.49 5.35003 18.17 5.14003 17.85 4.99003C17.3 4.77003 16.74 4.56003 16.17 4.37003C15.6 4.18003 15 4.00003 14.42 3.80003C13.84 3.60003 13.22 3.56003 12.63 3.41003C12.4008 3.3646 12.1765 3.29764 11.96 3.21003L11.6 3.00003C11.76 3.00003 11.89 2.59003 12 2.48003C12.43 2.02003 12.92 1.58003 13.36 1.11003L13.59 0.860029C14.3892 0.760764 15.195 0.723986 16 0.750029C16.5637 0.759229 17.1257 0.816098 17.68 0.920029C18.2363 1.01841 18.7798 1.17944 19.3 1.40003C19.3746 1.42794 19.4569 1.42701 19.5309 1.39742C19.6049 1.36783 19.6652 1.31171 19.7 1.24003C19.7279 1.1654 19.7269 1.08305 19.6973 1.00907C19.6678 0.935094 19.6116 0.874816 19.54 0.840029C18.9689 0.588679 18.372 0.400883 17.76 0.280029C17.1824 0.136461 16.5936 0.0427831 16 2.85544e-05C14.6236 -0.0783835 13.2429 0.0156801 11.89 0.280029C10.5246 0.551096 9.19563 0.980672 7.92995 1.56003C6.89485 2.0082 6.02715 2.77094 5.44995 3.74003C4.96995 4.60003 5.04995 4.74003 4.77995 8.08003C4.71995 8.78003 4.68995 9.50003 4.69995 10.3C4.88068 11.0395 5.30298 11.6976 5.89995 12.17C6.64336 12.8823 7.48945 13.4789 8.40995 13.94C9.6742 14.3998 10.9804 14.7348 12.31 14.94C13.6576 15.196 15.035 15.2566 16.4 15.12C17.8394 14.9469 19.2468 14.5698 20.58 14C21.5148 13.5904 22.3429 12.9711 23 12.19C23.5036 11.4612 23.807 10.6129 23.88 9.73003C24.0747 7.89608 23.877 6.04169 23.3 4.29003ZM6.39995 4.29003C6.84554 3.50072 7.52758 2.87114 8.34995 2.49003C9.51111 1.9022 10.7358 1.44925 12 1.14003L12.36 1.07003C12.03 1.35003 11.69 1.62003 11.36 1.91003C11.1536 2.06832 10.9597 2.24216 10.78 2.43003C10.6506 2.58179 10.5735 2.7711 10.56 2.97003C10.5501 3.17849 10.6138 3.38378 10.74 3.55003C10.9394 3.79706 11.1924 3.99541 11.48 4.13003C11.7414 4.25727 12.0122 4.36425 12.29 4.45003C12.87 4.63003 13.48 4.72003 14.06 4.90003L17.42 6.00003C17.82 6.14003 18.18 6.33003 18.57 6.43003C18.8979 6.51471 19.242 6.51471 19.57 6.43003C20.1541 6.26224 20.696 5.97254 21.16 5.58003C21.62 5.20003 22.04 4.76003 22.46 4.34003V4.50003C22.6003 5.14215 22.5913 5.80793 22.4335 6.446C22.2757 7.08406 21.9734 7.67733 21.55 8.18003C21.2071 8.57683 20.7846 8.89709 20.31 9.12003C19.5717 9.45417 18.7962 9.69923 18 9.85003C16.5656 10.1374 15.0983 10.2249 13.64 10.11C12.1885 9.99736 10.7607 9.67745 9.39995 9.16003C8.76006 8.91735 8.16008 8.58028 7.61995 8.16003C7.09933 7.76345 6.67537 7.25402 6.37995 6.67003C6.18516 6.29577 6.08512 5.87944 6.0886 5.45754C6.09209 5.03563 6.199 4.62102 6.39995 4.25003V4.29003ZM23 9.61003C22.9167 10.3328 22.648 11.0217 22.22 11.61C21.6356 12.2449 20.9186 12.7433 20.12 13.07C18.8686 13.5699 17.5517 13.8865 16.21 14.01C14.9575 14.1167 13.6964 14.0562 12.46 13.83C11.1997 13.6374 9.9584 13.3363 8.74995 12.93C7.93016 12.5562 7.17159 12.0606 6.49995 11.46C5.98995 11.02 5.49995 10.59 5.49995 10.25V8.11003V7.51003C5.8634 8.11443 6.34256 8.64116 6.90995 9.06003C7.54332 9.55622 8.24791 9.95403 8.99995 10.24C10.4716 10.8001 12.0187 11.1371 13.59 11.24C15.1535 11.3404 16.7233 11.2123 18.25 10.86C19.1492 10.666 20.0198 10.3568 20.84 9.94003C21.4214 9.6453 21.9356 9.23331 22.35 8.73003C22.7018 8.27712 22.9786 7.77068 23.17 7.23003C23.1974 8.02714 23.1405 8.82492 23 9.61003Z" fill="black"/>
<path fill-rule="evenodd" clip-rule="evenodd" d="M5.64999 13.61C5.21975 13.8629 4.75483 14.0516 4.26999 14.17L3.66999 14.3L3.05999 14.41C2.58134 14.5051 2.08865 14.5051 1.60999 14.41C1.57322 14.3942 1.53371 14.3859 1.49371 14.3854C1.45371 14.3849 1.414 14.3923 1.37686 14.4072C1.33971 14.422 1.30586 14.444 1.27723 14.472C1.2486 14.4999 1.22575 14.5332 1.20999 14.57C1.19424 14.6068 1.18587 14.6463 1.18539 14.6863C1.1849 14.7263 1.19229 14.766 1.20715 14.8031C1.22201 14.8403 1.24404 14.8741 1.27198 14.9028C1.29992 14.9314 1.33322 14.9542 1.36999 14.97C1.90008 15.2911 2.50114 15.4766 3.11999 15.51C3.38237 15.5176 3.64461 15.4907 3.89999 15.43C4.1563 15.3785 4.40498 15.2945 4.63999 15.18C5.1825 14.9419 5.67463 14.6025 6.08999 14.18C6.1535 14.1163 6.18916 14.03 6.18916 13.94C6.18916 13.85 6.1535 13.7637 6.08999 13.7C6.03771 13.6374 5.96569 13.5943 5.88575 13.578C5.80581 13.5616 5.72268 13.5729 5.64999 13.61Z" fill="black"/>
<path fill-rule="evenodd" clip-rule="evenodd" d="M11.85 19.43C11.81 19.17 11.78 18.91 11.76 18.65C11.745 18.3903 11.745 18.1298 11.76 17.87C11.7615 17.2514 11.898 16.6405 12.16 16.08C12.2053 16.0045 12.2194 15.9144 12.1996 15.8286C12.1797 15.7428 12.1273 15.6681 12.0535 15.6201C11.9796 15.5722 11.89 15.5548 11.8036 15.5715C11.7171 15.5883 11.6406 15.638 11.59 15.71C11.1167 16.3034 10.8065 17.01 10.69 17.76C10.6315 18.09 10.6147 18.4259 10.64 18.76C10.6551 19.0828 10.7122 19.4021 10.81 19.71C11.042 20.4183 11.4164 21.0717 11.91 21.63C11.9321 21.6631 11.9606 21.6915 11.9938 21.7134C12.027 21.7354 12.0642 21.7505 12.1033 21.758C12.1423 21.7654 12.1825 21.765 12.2214 21.7568C12.2604 21.7486 12.2973 21.7327 12.33 21.71C12.3947 21.6637 12.4391 21.5942 12.454 21.516C12.4689 21.4378 12.4531 21.3569 12.41 21.29C12.1213 20.7054 11.9321 20.0768 11.85 19.43Z" fill="black"/>
<path fill-rule="evenodd" clip-rule="evenodd" d="M5.19998 20.59C5.09973 20.5323 4.99207 20.4886 4.87998 20.46L4.93998 20.2C4.96006 20.0373 4.96006 19.8727 4.93998 19.71C4.8832 19.2529 4.71493 18.8168 4.44998 18.44C4.18243 18.0414 3.80818 17.7261 3.36998 17.53C3.04519 17.3895 2.68893 17.3377 2.33756 17.3798C1.98619 17.422 1.65231 17.5567 1.36998 17.77C1.10875 17.9835 0.905748 18.2595 0.779862 18.5725C0.653976 18.8854 0.609297 19.2251 0.649981 19.56C0.669854 19.7276 0.710153 19.8922 0.769981 20.05C0.811545 20.1669 0.861681 20.2805 0.919981 20.39C0.795755 20.425 0.677689 20.4789 0.569981 20.55C0.399051 20.6618 0.260985 20.8172 0.169981 21C0.0980747 21.1569 0.0608521 21.3274 0.0608521 21.5C0.0608521 21.6726 0.0980747 21.8431 0.169981 22C0.269913 22.2198 0.40882 22.4197 0.579981 22.59C0.534697 22.7434 0.534697 22.9066 0.579981 23.06C0.660621 23.2721 0.795352 23.4593 0.970783 23.6032C1.14621 23.747 1.35624 23.8425 1.57998 23.88C1.80568 23.9097 2.03428 23.9097 2.25998 23.88C2.50767 23.8571 2.74697 23.7785 2.95998 23.65C2.99775 23.6139 3.0313 23.5737 3.05998 23.53C3.20082 23.6289 3.35165 23.7127 3.50998 23.78C3.69589 23.8795 3.89434 23.9535 4.09998 24C4.47169 24.0633 4.85386 23.9989 5.18431 23.8173C5.51477 23.6357 5.77405 23.3477 5.91998 23C6.0591 22.6744 6.10927 22.3176 6.06534 21.9662C6.02142 21.6148 5.88498 21.2814 5.66998 21C5.54313 20.8325 5.38314 20.693 5.19998 20.59ZM4.96998 22.59C4.84998 22.88 4.35998 23.34 3.43998 22.66C3.38833 22.6157 3.32729 22.5837 3.26147 22.5664C3.19565 22.549 3.12676 22.5469 3.05998 22.56C2.95762 22.5859 2.86209 22.6337 2.77998 22.7C2.69998 22.77 2.60998 22.91 2.54998 22.96C2.44465 23.0311 2.32531 23.0789 2.19998 23.1C2.054 23.12 1.90596 23.12 1.75998 23.1C1.03998 23.01 1.69998 22.41 1.33998 22.1C1.29148 22.0648 1.23474 22.0426 1.17521 22.0356C1.11567 22.0286 1.05534 22.037 0.999981 22.06L0.899981 21.89C0.856216 21.8085 0.833311 21.7175 0.833311 21.625C0.833311 21.5325 0.856216 21.4415 0.899981 21.36C0.923278 21.301 0.95717 21.2468 0.999981 21.2C1.07488 21.1618 1.1563 21.1381 1.23998 21.13L1.50998 21.2C1.61174 21.2096 1.71377 21.1849 1.79998 21.13C1.89438 21.0864 1.96806 21.0076 2.0054 20.9106C2.04274 20.8135 2.04079 20.7057 1.99998 20.61C1.91998 20.36 1.79998 20.12 1.71998 19.87C1.62399 19.6563 1.59939 19.4174 1.64983 19.1887C1.70026 18.9599 1.82304 18.7535 1.99998 18.6C2.1395 18.5183 2.29828 18.4752 2.45998 18.4752C2.62168 18.4752 2.78046 18.5183 2.91998 18.6C3.15652 18.7142 3.35461 18.8949 3.48998 19.12C3.64738 19.3505 3.75 19.6138 3.78998 19.89V20.07C3.60998 19.99 3.49998 20.62 3.51998 20.77C3.53864 20.9217 3.61359 21.0609 3.72998 21.16C3.83811 21.2461 3.9555 21.3199 4.07998 21.38C4.31998 21.49 4.59998 21.46 4.79998 21.71C4.90308 21.833 4.97508 21.979 5.00989 22.1356C5.0447 22.2922 5.0413 22.455 4.99998 22.61L4.96998 22.59Z" fill="black"/>
<path fill-rule="evenodd" clip-rule="evenodd" d="M8.17999 16.0001C7.73352 16.1784 7.33096 16.4513 6.99999 16.8001C6.86002 16.955 6.73916 17.1263 6.63999 17.3101C6.5477 17.4957 6.474 17.6899 6.41999 17.8901C6.29322 18.359 6.25925 18.8481 6.31999 19.3301C6.31726 19.375 6.32378 19.4201 6.33913 19.4625C6.35449 19.5049 6.37836 19.5436 6.40928 19.5764C6.4402 19.6092 6.47751 19.6353 6.51891 19.6532C6.56031 19.671 6.60492 19.6801 6.64999 19.6801C6.69465 19.6814 6.73913 19.6739 6.78089 19.658C6.82265 19.6422 6.86088 19.6182 6.89338 19.5876C6.92589 19.5569 6.95203 19.5202 6.97033 19.4794C6.98862 19.4387 6.9987 19.3947 6.99999 19.3501C7.07512 19.026 7.19281 18.7133 7.34999 18.4201L7.56999 18.0001C7.67999 17.8001 7.77999 17.6001 7.88999 17.4101C8.0546 17.0502 8.26647 16.7139 8.51999 16.4101C8.55274 16.3889 8.58088 16.3613 8.60274 16.329C8.62459 16.2967 8.6397 16.2603 8.64717 16.2221C8.65463 16.1838 8.65431 16.1444 8.6462 16.1063C8.6381 16.0681 8.62238 16.032 8.59999 16.0001C8.54276 15.9473 8.4678 15.9181 8.38999 15.9181C8.31219 15.9181 8.23723 15.9473 8.17999 16.0001Z" fill="black"/>
<path fill-rule="evenodd" clip-rule="evenodd" d="M11.74 7.60998C12.1278 7.7656 12.5253 7.89588 12.93 7.99998C13.53 8.13998 14.13 8.22998 14.73 8.37998C14.8162 8.40906 14.9104 8.40339 14.9926 8.36419C15.0747 8.32498 15.1383 8.25532 15.17 8.16998C15.19 8.12876 15.2014 8.08394 15.2037 8.0382C15.2059 7.99245 15.1989 7.94672 15.183 7.90376C15.1671 7.8608 15.1427 7.82149 15.1113 7.78819C15.0798 7.75489 15.042 7.72829 15 7.70998C14.45 7.43998 13.91 7.17998 13.35 6.94998L12.63 6.67998C12.39 6.59998 12.15 6.52998 11.9 6.46998C11.32 6.31998 10.75 6.22998 10.18 6.04998C10.1439 6.03328 10.1049 6.02391 10.0652 6.02243C10.0254 6.02094 9.98583 6.02736 9.94861 6.04132C9.91139 6.05527 9.87732 6.07649 9.84837 6.10372C9.81943 6.13096 9.79618 6.16368 9.77998 6.19998C9.7456 6.2716 9.74102 6.35394 9.76727 6.42893C9.79352 6.50391 9.84844 6.56543 9.91998 6.59998C10.4951 6.99064 11.1042 7.32867 11.74 7.60998Z" fill="black"/>
</g>
<defs>
<clipPath id="clip0_1052_9021">
<rect width="24" height="24" fill="white"/>
</clipPath>
</defs>
</svg>
