<svg width="24" height="24" viewBox="0 0 24 24" fill="none" xmlns="http://www.w3.org/2000/svg">
<g clip-path="url(#clip0_1044_5231)">
<path fill-rule="evenodd" clip-rule="evenodd" d="M18 13.6C19.0851 14.2284 20.2992 14.6012 21.55 14.69C22.27 14.44 22.55 13.69 23.04 13.19L23.39 13.39C23.4677 13.4284 23.557 13.4366 23.6404 13.413C23.7238 13.3894 23.7955 13.3356 23.8416 13.2622C23.8876 13.1887 23.9048 13.1008 23.8897 13.0154C23.8747 12.93 23.8284 12.8533 23.76 12.8C22.48 11.97 17.35 10.06 16.38 11.23C15.54 12.23 13.38 20.35 13.5 21.55C13.5382 21.7311 13.614 21.9021 13.7225 22.052C13.831 22.2019 13.9699 22.3273 14.13 22.42C15.44 23.34 20.53 24.66 21.6 23.62C22.08 23.15 23.75 14.88 23.85 14.35C23.8585 14.3113 23.8594 14.2712 23.8524 14.2322C23.8455 14.1931 23.8309 14.1558 23.8096 14.1224C23.7882 14.0889 23.7605 14.0601 23.7279 14.0373C23.6954 14.0146 23.6587 13.9985 23.62 13.99C23.5813 13.9815 23.5412 13.9807 23.5022 13.9876C23.4631 13.9945 23.4258 14.0091 23.3924 14.0305C23.3589 14.0518 23.33 14.0795 23.3073 14.1121C23.2846 14.1446 23.2685 14.1813 23.26 14.22C22 19.59 20.8 23 20.88 22.89C20.88 22.94 20.88 22.98 20.82 22.97C20.76 22.96 20.82 22.92 20.82 22.9C20.5794 22.9519 20.3306 22.9519 20.09 22.9C17.89 22.83 14.3 21.49 14.58 21.28C14.58 20.28 16.44 12.57 17 11.77C17.159 11.6958 17.3359 11.668 17.51 11.69C17.49 12.44 17.41 13.25 18 13.6ZM22.34 12.88C22.1 13.09 21.84 13.37 21.59 13.58C21.34 13.79 21.2 13.63 20.59 13.42C18.76 12.79 18.84 12.85 18.59 12.74C18.74 12.57 18.64 12.17 18.51 11.83C19.8122 12.0358 21.0869 12.388 22.31 12.88H22.34Z" fill="black"/>
<path fill-rule="evenodd" clip-rule="evenodd" d="M12.54 5.00001C11.99 4.55001 12 5.00001 12.32 4.38001C12.6357 3.67591 12.6679 2.87725 12.41 2.15001C11.62 6.4373e-06 8.55 -0.849993 7 1.00001C6.68 1.38001 6.79 1.38001 6.69 1.30001C6.28066 0.996129 5.79074 0.819813 5.28163 0.793153C4.77253 0.766492 4.26687 0.890672 3.82803 1.15013C3.38919 1.40959 3.03668 1.7928 2.81467 2.25172C2.59266 2.71065 2.51103 3.22489 2.58 3.73001C0.69 3.76001 -0.76 5.51001 0.71 7.79001C0.9 8.08001 2 8.87001 2.48 8.63001C2.55426 8.59951 2.61336 8.54076 2.64431 8.46668C2.67525 8.3926 2.6755 8.30927 2.645 8.23501C2.6145 8.16075 2.55575 8.10164 2.48167 8.0707C2.4076 8.03976 2.32426 8.03951 2.25 8.07001C2.25 8.22001 1.87 7.91001 1.66 7.76001C1.51695 7.67447 1.38864 7.56641 1.28 7.44001C1.03743 7.13143 0.891016 6.75829 0.859009 6.36709C0.827001 5.97589 0.910812 5.58391 1.1 5.24001C1.25523 5.03917 1.45346 4.87565 1.68015 4.76144C1.90684 4.64724 2.15622 4.58524 2.41 4.58001H2.79L3.07 4.74001C3.16591 4.77366 3.27038 4.77386 3.36642 4.74057C3.46245 4.70728 3.54438 4.64246 3.59888 4.55666C3.65337 4.47086 3.67721 4.36914 3.66652 4.26806C3.65583 4.16699 3.61124 4.07251 3.54 4.00001C3.5217 3.94824 3.5217 3.89177 3.54 3.84001C3.49064 3.53303 3.53123 3.21833 3.65686 2.93392C3.78248 2.64951 3.98777 2.40756 4.24792 2.2373C4.50808 2.06704 4.81197 1.97574 5.12288 1.97445C5.4338 1.97316 5.73844 2.06192 6 2.23001C6.13546 2.3825 6.23461 2.5637 6.29 2.76001C6.33473 2.86357 6.4087 2.95184 6.50283 3.014C6.59697 3.07617 6.70719 3.10953 6.82 3.11001C7.57 3.11001 7.26 2.04001 8.21 1.43001C8.55923 1.23798 8.95534 1.14778 9.35329 1.16968C9.75123 1.19157 10.1351 1.32467 10.4611 1.55385C10.7872 1.78304 11.0424 2.0991 11.1978 2.46612C11.3531 2.83313 11.4024 3.23638 11.34 3.63001C11.2055 3.9803 11.0346 4.31548 10.83 4.63001L10.65 4.83001C10.5712 4.88316 10.5064 4.95456 10.4611 5.03813C10.4159 5.1217 10.3915 5.21497 10.39 5.31001C10.39 5.44001 10.76 6.04001 11.22 5.79001H11.34C12.11 5.68001 12.88 7.06001 11.99 7.66001C9.99 9.07001 8.48 8.61001 5.71 8.51001C4.98188 8.51534 4.25605 8.42798 3.55 8.25001C3.47043 8.20492 3.37622 8.19329 3.28808 8.21767C3.19993 8.24205 3.12509 8.30044 3.08 8.38001C3.03491 8.45957 3.02328 8.55379 3.04766 8.64193C3.07204 8.73007 3.13043 8.80492 3.21 8.85001C4.00171 9.12284 4.83262 9.2647 5.67 9.27001C8.5 9.46001 10.18 9.99001 12.54 8.47001C12.8289 8.28202 13.0663 8.02486 13.2306 7.72188C13.3949 7.4189 13.481 7.07968 13.481 6.73501C13.481 6.39033 13.3949 6.05111 13.2306 5.74813C13.0663 5.44515 12.8289 5.188 12.54 5.00001Z" fill="black"/>
<path fill-rule="evenodd" clip-rule="evenodd" d="M9.59 16.91C9.22 16.56 9.04 16.27 8.69 16.34C8.64965 16.3504 8.61191 16.3692 8.5792 16.395C8.54649 16.4208 8.51951 16.4532 8.5 16.49C8.3 16.77 8.8 17.11 9.03 17.49L10.09 18.83C9.32852 18.843 8.57915 18.6383 7.93 18.24C7.18384 17.744 6.56203 17.0828 6.11285 16.3075C5.66367 15.5323 5.39921 14.664 5.34 13.77C5.31008 13.2571 5.31008 12.7429 5.34 12.23L6.65 13.7C6.77 13.86 6.99 14.41 7.36 14.38C7.40987 14.3833 7.45986 14.3756 7.5064 14.3573C7.55295 14.3391 7.5949 14.3109 7.62928 14.2746C7.66365 14.2383 7.6896 14.1949 7.70528 14.1474C7.72097 14.1 7.72599 14.0496 7.72 14C7.30834 13.1136 6.80564 12.2724 6.22 11.49C6.0268 11.1775 5.76737 10.9112 5.46 10.71C4.46 10.24 2.3 13.71 2.28 13.77C2.26683 13.8156 2.26638 13.8639 2.27872 13.9098C2.29106 13.9556 2.31571 13.9972 2.35 14.03C2.58 14.34 2.83 14.09 4.65 12.39C4.63561 12.6995 4.59547 13.0072 4.53 13.31C4.31381 14.466 4.49198 15.661 5.03595 16.7036C5.57993 17.7463 6.4582 18.576 7.53 19.06C8.24982 19.3517 9.02409 19.4848 9.8 19.45C8.8 20.5 8.08 20.81 8.15 21.16C8.3 21.79 9.01 21.29 9.55 20.92L11.41 19.53C12.21 18.89 10.48 17.61 9.59 16.91Z" fill="black"/>
</g>
<defs>
<clipPath id="clip0_1044_5231">
<rect width="24" height="24" fill="white"/>
</clipPath>
</defs>
</svg>
