<svg width="24" height="24" viewBox="0 0 24 24" fill="none" xmlns="http://www.w3.org/2000/svg">
<g clip-path="url(#clip0_1044_5225)">
<path fill-rule="evenodd" clip-rule="evenodd" d="M22.7 17.28C22.1641 16.9183 21.5258 16.7395 20.88 16.77C20.5987 16.82 20.3281 16.9181 20.08 17.06C19.92 16.75 19.76 16.44 19.58 16.14C19.4696 15.9451 19.3459 15.758 19.21 15.58C19.0811 15.398 18.9408 15.2243 18.79 15.06C18.42 14.67 18.02 14.34 17.63 13.97C17.5713 13.9086 17.4923 13.8706 17.4077 13.8631C17.3231 13.8556 17.2387 13.8792 17.1702 13.9294C17.1016 13.9795 17.0537 14.0529 17.0352 14.1358C17.0168 14.2187 17.0292 14.3055 17.07 14.38C17.31 14.87 17.5 15.38 17.78 15.81C17.8916 16.0041 18.0152 16.1912 18.15 16.37C18.29 16.55 18.44 16.72 18.59 16.88C18.74 17.04 19.09 17.39 19.35 17.64C19.26 17.74 19.13 17.8 19.06 17.92C18.8337 18.2441 18.7124 18.6298 18.7124 19.025C18.7124 19.4202 18.8337 19.806 19.06 20.13C19.4309 20.6342 19.9701 20.9889 20.58 21.13C20.58 21.13 22.41 21.55 23.25 20.53C23.6223 20.05 23.8199 19.4574 23.81 18.85C23.7505 18.5233 23.6203 18.2135 23.4286 17.9423C23.2369 17.6711 22.9882 17.4451 22.7 17.28ZM22.57 19.89C22.15 20.75 21.12 20.44 20.8 20.32C20.4367 20.1673 20.1392 19.891 19.96 19.54C19.899 19.3911 19.8827 19.2278 19.9128 19.0698C19.943 18.9118 20.0185 18.7659 20.13 18.65C20.3369 18.3516 20.6531 18.1468 21.01 18.08C21.3584 18.0597 21.7054 18.1395 22.01 18.31C22.165 18.3787 22.3039 18.4791 22.4176 18.6049C22.5313 18.7306 22.6173 18.8789 22.67 19.04C22.7193 19.3271 22.6846 19.6222 22.57 19.89Z" fill="black"/>
<path fill-rule="evenodd" clip-rule="evenodd" d="M13.66 20C13.3347 19.7905 12.971 19.6477 12.59 19.58C12.64 19.23 12.7 18.89 12.74 18.53C12.78 18.17 12.74 18.11 12.74 17.89V17.25C12.74 16.73 12.6 16.25 12.53 15.72C12.53 15.6298 12.4942 15.5433 12.4304 15.4796C12.3667 15.4158 12.2802 15.38 12.19 15.38C12.0998 15.38 12.0133 15.4158 11.9496 15.4796C11.8858 15.5433 11.85 15.6298 11.85 15.72C11.72 16.23 11.56 16.72 11.48 17.23C11.4452 17.4484 11.4251 17.6689 11.42 17.89V18.56C11.4578 18.8963 11.5146 19.2301 11.59 19.56C10.9375 19.7067 10.3674 20.1011 10 20.66C9.77234 20.9835 9.65015 21.3694 9.65015 21.765C9.65015 22.1606 9.77234 22.5465 10 22.87C10.3691 23.3762 10.9091 23.7314 11.52 23.87C11.52 23.87 13.35 24.29 14.18 23.27C14.5567 22.7924 14.7548 22.1981 14.74 21.59C14.686 21.2625 14.5614 20.9507 14.3749 20.6762C14.1884 20.4017 13.9445 20.1709 13.66 20ZM13.54 22.61C13.12 23.47 12.09 23.18 11.77 23.05C11.4028 22.9035 11.1033 22.6254 10.93 22.27C10.8664 22.1216 10.8486 21.9576 10.8789 21.799C10.9092 21.6404 10.9862 21.4945 11.1 21.38C11.2017 21.2315 11.3318 21.1046 11.4829 21.0068C11.6339 20.9089 11.8029 20.842 11.98 20.81C12.3287 20.7868 12.6765 20.8668 12.98 21.04C13.1368 21.1058 13.2772 21.2054 13.3913 21.3315C13.5053 21.4577 13.5902 21.6074 13.64 21.77C13.6923 22.057 13.6575 22.353 13.54 22.62V22.61Z" fill="black"/>
<path fill-rule="evenodd" clip-rule="evenodd" d="M13.41 13.32C15.83 13.32 17.98 13.22 18.87 13.15C19.5068 13.0796 20.1083 12.8215 20.5979 12.4083C21.0876 11.9952 21.4434 11.4458 21.62 10.83C21.7408 10.3824 21.7474 9.91169 21.639 9.46093C21.5307 9.01017 21.311 8.59381 21 8.25C21.1697 8.03683 21.2955 7.79211 21.37 7.53C21.4792 7.16968 21.5398 6.79637 21.55 6.42C21.6048 5.94646 21.5846 5.46722 21.49 5C21.4003 4.66964 21.2585 4.3557 21.07 4.07C20.6016 3.43923 19.9531 2.96509 19.21 2.71C18.3241 2.43379 17.3789 2.40955 16.48 2.64C16.346 2.17223 16.118 1.7367 15.81 1.36C15.3865 0.845621 14.8345 0.452337 14.21 0.219997C13.5949 0.00227384 12.9384 -0.0729503 12.29 -3.47197e-06C11.4814 0.133618 10.7224 0.478601 10.09 0.999997C9.68378 1.37588 9.34549 1.81905 9.09 2.31C8.50866 2.01201 7.86319 1.86095 7.21 1.87C6.63317 1.87147 6.06348 1.99769 5.54 2.24C4.97199 2.50384 4.48761 2.91902 4.14 3.44C3.81094 3.97381 3.62496 4.58341 3.6 5.21C3.61825 5.89857 3.76758 6.57735 4.04 7.21C3.59011 7.40843 3.17749 7.68238 2.82 8.02C2.26359 8.54277 1.92743 9.25801 1.88 10.02C1.86351 10.4612 1.94459 10.9005 2.11744 11.3067C2.2903 11.7129 2.55068 12.076 2.88 12.37C3.53779 12.9511 4.3928 13.2587 5.27 13.23L8.5 13.3C10.07 13.33 11.8 13.33 13.41 13.32ZM5.27 12C4.67664 12.0478 4.08626 11.8771 3.61 11.52C3.38453 11.3475 3.19836 11.129 3.06387 10.879C2.92938 10.629 2.84966 10.3532 2.83 10.07V10C2.8486 9.67132 2.93879 9.35067 3.09424 9.06048C3.2497 8.7703 3.46668 8.51758 3.73 8.32C3.97123 8.11837 4.24078 7.95327 4.53 7.83C4.53 7.83 4.6 7.83 4.64 7.83C4.68 7.83 4.69 7.83 4.71 7.76C5.03252 7.62696 5.36751 7.52646 5.71 7.46C5.79039 7.44602 5.86337 7.40439 5.91633 7.3423C5.96928 7.28022 5.99888 7.20159 6 7.12C5.9939 7.07514 5.9789 7.03196 5.95589 6.99297C5.93287 6.95399 5.90231 6.92 5.86598 6.89299C5.82966 6.86597 5.7883 6.84649 5.74434 6.83567C5.70039 6.82486 5.65471 6.82293 5.61 6.83C5.31935 6.86422 5.03181 6.92106 4.75 7C4.65059 6.55727 4.61024 6.10332 4.63 5.65C4.65859 5.11481 4.85842 4.60298 5.2 4.19C5.43024 3.87932 5.73214 3.62888 6.08 3.46C6.44442 3.26693 6.84084 3.14157 7.25 3.09C8.07889 3.04083 8.90004 3.27343 9.58 3.75C9.64763 3.82956 9.7441 3.879 9.84818 3.88744C9.95226 3.89588 10.0554 3.86263 10.135 3.795C10.2146 3.72737 10.264 3.6309 10.2724 3.52682C10.2809 3.42273 10.2476 3.31956 10.18 3.24C10.0352 3.06851 9.8745 2.91114 9.7 2.77C9.98308 2.41284 10.3205 2.10239 10.7 1.85C11.22 1.52432 11.8168 1.34151 12.43 1.32C12.9652 1.26722 13.505 1.34975 14 1.56C14.3359 1.69674 14.6442 1.89325 14.91 2.14C15.2555 2.45893 15.5091 2.86463 15.6445 3.31487C15.7799 3.76511 15.7922 4.24342 15.68 4.7C15.6612 4.74846 15.6525 4.80026 15.6545 4.85221C15.6565 4.90416 15.6691 4.95514 15.6916 5.00201C15.7141 5.04887 15.746 5.09063 15.7853 5.12468C15.8246 5.15874 15.8704 5.18437 15.92 5.2C15.9692 5.21715 16.0214 5.22427 16.0734 5.22093C16.1254 5.21759 16.1762 5.20386 16.2228 5.18055C16.2694 5.15725 16.3109 5.12484 16.3447 5.08524C16.3786 5.04564 16.4042 4.99965 16.42 4.95C16.6167 4.45155 16.6821 3.91097 16.61 3.38C17.1936 3.36225 17.7749 3.46083 18.32 3.67C18.5839 3.77442 18.8381 3.90156 19.08 4.05C19.4305 4.23664 19.7373 4.49571 19.98 4.81C20.1469 5.02281 20.2755 5.26307 20.36 5.52C20.4539 5.81272 20.5176 6.11429 20.55 6.42C20.5751 6.66603 20.5751 6.91397 20.55 7.16C20.5404 7.35648 20.4857 7.5481 20.39 7.72C20.3525 7.67754 20.3125 7.63746 20.27 7.6C20.1834 7.54155 20.0774 7.51928 19.9746 7.53797C19.8719 7.55666 19.7805 7.61481 19.72 7.7C19.6621 7.785 19.6401 7.88944 19.6588 7.99058C19.6776 8.09172 19.7355 8.18136 19.82 8.24C20.2068 8.47311 20.5033 8.83026 20.6612 9.25332C20.8192 9.67637 20.8293 10.1404 20.69 10.57C20.5555 10.9854 20.2999 11.3511 19.956 11.6202C19.6121 11.8893 19.1956 12.0494 18.76 12.08C17.96 12.08 16.15 12.08 14.05 12.03H9.31C7.76 12.03 6.31 12 5.27 12Z" fill="black"/>
<path fill-rule="evenodd" clip-rule="evenodd" d="M6 13.8C5.66 14.19 5.31 14.53 5 14.94C4.87092 15.1103 4.75076 15.2872 4.64 15.47C4.54 15.65 4.44 15.85 4.35 16.04C4.14 16.49 3.97 16.95 3.79 17.41C3.36459 17.2112 2.89948 17.1121 2.43 17.12C2.06268 17.1724 1.71061 17.302 1.39694 17.5002C1.08326 17.6984 0.815076 17.9608 0.61 18.27C0.385065 18.5946 0.264545 18.9801 0.264545 19.375C0.264545 19.7699 0.385065 20.1554 0.61 20.48C0.984657 20.9849 1.5272 21.3395 2.14 21.48C2.14 21.48 3.97 21.9 4.8 20.88C5.17675 20.4024 5.37482 19.8081 5.36 19.2C5.27392 18.6362 4.96837 18.1293 4.51 17.79C4.83 17.4 5.16 17.04 5.51 16.64C5.64232 16.4698 5.76582 16.2929 5.88 16.11C5.99186 15.9265 6.09206 15.7361 6.18 15.54C6.39 15.07 6.52 14.59 6.69 14.1C6.7097 14.0547 6.72028 14.0059 6.72114 13.9565C6.722 13.9072 6.71313 13.8581 6.69502 13.8121C6.67691 13.7661 6.64993 13.7242 6.61561 13.6887C6.58129 13.6531 6.54031 13.6247 6.495 13.605C6.44969 13.5853 6.40095 13.5747 6.35156 13.5738C6.30216 13.573 6.25308 13.5819 6.20711 13.6C6.16115 13.6181 6.1192 13.6451 6.08366 13.6794C6.04813 13.7137 6.0197 13.7547 6 13.8ZM4.13 20.24C3.71 21.09 2.68 20.8 2.36 20.67C1.99276 20.5235 1.69328 20.2454 1.52 19.89C1.45641 19.7416 1.43862 19.5776 1.46891 19.419C1.4992 19.2604 1.57619 19.1145 1.69 19C1.79167 18.8515 1.9218 18.7246 2.07286 18.6268C2.22392 18.5289 2.3929 18.462 2.57 18.43C2.91859 18.408 3.26604 18.4879 3.57 18.66C3.7268 18.7258 3.8672 18.8254 3.98125 18.9515C4.09531 19.0777 4.18023 19.2274 4.23 19.39C4.27992 19.677 4.24517 19.9724 4.13 20.24Z" fill="black"/>
</g>
<defs>
<clipPath id="clip0_1044_5225">
<rect width="24" height="24" fill="white"/>
</clipPath>
</defs>
</svg>
