<svg width="24" height="24" viewBox="0 0 24 24" fill="none" xmlns="http://www.w3.org/2000/svg">
<g clip-path="url(#clip0_1044_5204)">
<path fill-rule="evenodd" clip-rule="evenodd" d="M21.26 7.67C21.913 6.80658 22.2644 5.75255 22.26 4.67C21.91 0.669997 14.75 -1.67 12.26 3.13C12.1147 2.94845 11.9428 2.78998 11.75 2.66C11.0477 2.14084 10.2073 1.84138 9.33498 1.79941C8.46264 1.75744 7.5974 1.97484 6.84851 2.42418C6.09961 2.87352 5.50061 3.53465 5.12713 4.32412C4.75364 5.11359 4.62241 5.99601 4.75 6.86C1.36 6.46 -1.25 9.74 0.609996 13.34C1.18 14.46 3.41 15.29 4.07 14.96C4.13065 14.9176 4.17414 14.8549 4.19261 14.7833C4.21107 14.7116 4.2033 14.6357 4.17069 14.5693C4.13808 14.5029 4.08279 14.4503 4.01481 14.4211C3.94682 14.3919 3.87063 14.3879 3.8 14.41C3.295 14.3754 2.80356 14.2314 2.35978 13.9879C1.916 13.7444 1.53049 13.4073 1.23 13C0.933974 12.3744 0.777039 11.6921 0.769996 11C0.771964 10.5239 0.877572 10.0539 1.07948 9.62264C1.2814 9.19143 1.57477 8.80935 1.93922 8.50294C2.30368 8.19653 2.73047 7.97315 3.18996 7.84831C3.64944 7.72346 4.1306 7.70015 4.6 7.78C4.8923 7.84067 5.17052 7.95603 5.42 8.12C5.52835 8.16479 5.64918 8.16925 5.76054 8.13255C5.87191 8.09586 5.96642 8.02045 6.02692 7.92001C6.08742 7.81958 6.10991 7.70077 6.09029 7.58518C6.07067 7.46958 6.01025 7.36485 5.92 7.29C5.67 7.05 5.73 6.48 5.74 6.11C5.77649 5.50644 5.97518 4.92391 6.31511 4.42385C6.65504 3.92379 7.12362 3.52472 7.67142 3.26874C8.21922 3.01276 8.82595 2.90934 9.42762 2.96941C10.0293 3.02947 10.6036 3.25078 11.09 3.61C11.82 4.12 11.61 5.08 12.34 5.06C12.81 5.06 12.85 4.73 13.25 3.72C15.08 -0.0800033 20.89 1.82 21.25 4.72C21.2438 5.68225 20.9165 6.6149 20.32 7.37C20.32 7.37 19.77 7.71 19.84 7.85C19.7708 7.89567 19.7143 7.95816 19.6758 8.03162C19.6373 8.10507 19.6181 8.18709 19.62 8.27C19.62 8.39 19.99 8.94 20.43 8.61C23.2 7.96 24.09 12.12 22.26 13.68C21.4306 14.35 20.4479 14.8035 19.4 15C19.3195 15.0277 19.2519 15.0837 19.2098 15.1576C19.1676 15.2315 19.1538 15.3182 19.171 15.4016C19.1881 15.4849 19.2351 15.5591 19.303 15.6104C19.3709 15.6616 19.4552 15.6864 19.54 15.68C20.694 15.4813 21.7821 15.0042 22.71 14.29C24.93 12.49 24.18 8 21.26 7.67Z" fill="black"/>
<path fill-rule="evenodd" clip-rule="evenodd" d="M7.99999 13.26C7.94065 13.3147 7.90272 13.3888 7.89298 13.4689C7.88324 13.549 7.90233 13.63 7.94682 13.6974C7.99132 13.7647 8.05833 13.814 8.13586 13.8365C8.21338 13.859 8.29638 13.8531 8.36999 13.82C10.37 12.52 13.59 12.55 15.25 14.76C15.7142 15.4095 16.012 16.163 16.1172 16.9544C16.2224 17.7457 16.1318 18.5508 15.8535 19.2991C15.5751 20.0473 15.1174 20.7158 14.5205 21.246C13.9237 21.7762 13.2058 22.1518 12.43 22.34C11.7683 22.5031 11.0786 22.5169 10.4109 22.3802C9.74325 22.2436 9.11439 21.96 8.56999 21.55C8.97999 20.96 10.34 19.7 11.52 18.15C12.35 17.05 13.1 15.87 14.01 14.88C14.057 14.814 14.079 14.7334 14.0718 14.6527C14.0647 14.5719 14.0289 14.4964 13.971 14.4397C13.9131 14.383 13.8368 14.3489 13.756 14.3434C13.6751 14.338 13.595 14.3616 13.53 14.41C11.3995 16.3899 9.54002 18.6427 7.99999 21.11C6.53999 19.72 5.99999 16.75 7.09999 15.38C7.12974 15.3203 7.13877 15.2525 7.12566 15.1871C7.11255 15.1218 7.07805 15.0626 7.0276 15.0191C6.97716 14.9755 6.91363 14.95 6.84707 14.9465C6.7805 14.9431 6.71468 14.9619 6.65999 15C5.54999 16.26 5.71999 18.59 6.30999 20.06C6.81031 21.2773 7.72198 22.2804 8.88607 22.8944C10.0502 23.5084 11.3928 23.6944 12.68 23.42C13.6349 23.2028 14.5197 22.7486 15.2528 22.0993C15.9859 21.4499 16.5436 20.6264 16.8744 19.7046C17.2052 18.7829 17.2985 17.7927 17.1457 16.8254C16.9929 15.8581 16.5989 14.9449 16 14.17C15.0167 13.0534 13.6536 12.342 12.1753 12.1739C10.697 12.0057 9.20896 12.3928 7.99999 13.26Z" fill="black"/>
</g>
<defs>
<clipPath id="clip0_1044_5204">
<rect width="24" height="24" fill="white"/>
</clipPath>
</defs>
</svg>
