<svg width="24" height="24" viewBox="0 0 24 24" fill="none" xmlns="http://www.w3.org/2000/svg">
<g clip-path="url(#clip0_1048_7030)">
<path fill-rule="evenodd" clip-rule="evenodd" d="M2.91003 18.34C3.61003 19.29 4.60003 22.34 3.23003 22.6C2.7594 22.6725 2.27799 22.5881 1.86003 22.36C1.09003 21.98 0.860027 21.58 1.14003 20.55C1.63003 18.55 2.39003 18.43 2.42003 18.09C2.45003 17.75 2.12003 17.44 1.78003 17.71C1.11165 18.4599 0.589346 19.3282 0.240027 20.27C-0.0214448 20.753 -0.0946056 21.3157 0.0346833 21.8495C0.163972 22.3833 0.486532 22.8502 0.940027 23.16C2.43003 24.25 4.75003 24.01 4.94003 21.99C4.87629 20.5138 4.36732 19.0915 3.48003 17.91C3.42301 17.8344 3.33829 17.7846 3.24452 17.7714C3.15076 17.7583 3.05561 17.783 2.98003 17.84C2.90444 17.897 2.8546 17.9817 2.84147 18.0755C2.82835 18.1693 2.85301 18.2644 2.91003 18.34Z" fill="black"/>
<path fill-rule="evenodd" clip-rule="evenodd" d="M22.93 1.43C22.3417 0.897517 21.6032 0.559841 20.8156 0.463179C20.0279 0.366516 19.2297 0.515589 18.53 0.889999C18.05 1.14 17.48 1.72 17.12 1.74C16.6 1.76 15.81 0.499999 14.91 0.249999C14.677 0.202425 14.4365 0.205173 14.2046 0.258059C13.9728 0.310945 13.7549 0.412748 13.5655 0.556657C13.3762 0.700565 13.2197 0.883258 13.1067 1.09251C12.9936 1.30176 12.9266 1.53274 12.91 1.77C12.91 3 14.64 5.11 15.28 6.14C15.4911 6.51533 15.7319 6.87314 16 7.21C16.82 8.21 17.25 7.21 16.72 7.05C16.42 7 16 6 15.87 5.8C15.36 4.88 13.87 2.91 13.81 1.92C13.81 1.53 14.28 1.08 14.63 1.19C14.98 1.3 15.39 1.81 15.77 2.19C17.29 3.61 18.11 2.42 19.06 1.93C19.5366 1.6886 20.0723 1.58858 20.6039 1.64174C21.1354 1.6949 21.6407 1.89901 22.06 2.23C24.42 4.9 20.84 6.69 20.49 7.71C20.2 8.57 22.32 10.39 20.94 11.01C20.7665 11.0718 20.5784 11.08 20.4001 11.0336C20.2218 10.9873 20.0615 10.8885 19.94 10.75C19.1132 9.95233 18.3755 9.06713 17.74 8.11C17.6908 8.03484 17.6145 7.98149 17.527 7.96101C17.4396 7.94054 17.3475 7.9545 17.27 8C16.72 8.37 17.6 9.15 18.12 9.82C17.81 9.82 11.41 14.38 9.06005 15.37C7.83005 15.89 7.97005 15.42 7.42005 14.92C6.36005 13.92 5.75005 15.6 4.42005 15.64C4.18005 15.64 4.03005 15.49 3.92005 15.13C3.81005 14.77 4.16005 14.64 4.45005 14.47C5.28005 13.99 5.97005 13.56 5.75005 12.54C5.56843 12.1109 5.4278 11.6656 5.33005 11.21C5.30005 9.66 13.31 6 13.9 4.66C13.9227 4.60475 13.9294 4.54427 13.9194 4.48541C13.9094 4.42655 13.8832 4.37165 13.8437 4.32692C13.8041 4.28219 13.7529 4.2494 13.6957 4.23228C13.6385 4.21515 13.5777 4.21436 13.52 4.23C13.21 4.3 11.66 5.35 7.28005 8.23C6.19005 9 3.85005 9.74 4.33005 11.72C4.48336 12.1076 4.59727 12.5096 4.67005 12.92C4.58005 13.38 2.31005 13.7 2.82005 15.46C2.87773 15.7644 3.01847 16.047 3.22672 16.2764C3.43497 16.5058 3.70261 16.6732 4.00005 16.76C4.99178 16.7662 5.96294 16.4772 6.79005 15.93C6.93319 16.1478 7.12531 16.329 7.35105 16.4593C7.57678 16.5895 7.82987 16.6651 8.09005 16.68C9.18236 16.5208 10.2154 16.0834 11.09 15.41C12.72 14.51 16.79 11.55 18.31 10.41C18.3759 10.3591 18.4248 10.2893 18.45 10.21C18.8179 10.7376 19.2708 11.2005 19.79 11.58C20.0103 11.7279 20.2634 11.8198 20.5272 11.8478C20.7911 11.8757 21.0578 11.8388 21.3041 11.7402C21.5505 11.6417 21.7691 11.4845 21.9409 11.2823C22.1127 11.0801 22.2326 10.839 22.29 10.58C22.43 9.75 21.72 8.66 21.47 7.92C24.57 5.47 24.52 3.25 22.93 1.43Z" fill="black"/>
<path fill-rule="evenodd" clip-rule="evenodd" d="M11.14 8.48001C11.0108 8.39513 10.8691 8.33102 10.72 8.29001C8.51002 8.12001 9.13002 8.49001 9.87002 8.89001C10.1107 8.94192 10.3323 9.05962 10.51 9.23001C11.2285 10.1686 12.0355 11.0359 12.92 11.82C14.17 12.34 14.45 12.11 13.85 11.21C13 10.55 12.4 9.40001 11.14 8.48001Z" fill="black"/>
</g>
<defs>
<clipPath id="clip0_1048_7030">
<rect width="24" height="24" fill="white"/>
</clipPath>
</defs>
</svg>
