<svg width="24" height="24" viewBox="0 0 24 24" fill="none" xmlns="http://www.w3.org/2000/svg">
<g clip-path="url(#clip0_1048_6996)">
<path fill-rule="evenodd" clip-rule="evenodd" d="M1.99999 18.29C1.70512 18.2855 1.41289 18.3462 1.14423 18.4678C0.875576 18.5894 0.637141 18.769 0.446007 18.9936C0.254873 19.2181 0.11577 19.4822 0.0386611 19.7669C-0.0384472 20.0515 -0.0516525 20.3497 -8.64454e-06 20.64C0.289991 23.32 3.25999 22.92 3.99999 22.24C4.1939 22.0549 4.34664 21.8309 4.4483 21.5828C4.54995 21.3347 4.59823 21.068 4.58999 20.8C4.63349 20.4387 4.59691 20.0721 4.48284 19.7265C4.36878 19.3808 4.18003 19.0645 3.92999 18.8C3.3724 18.3961 2.68435 18.2142 1.99999 18.29ZM3.24999 21.66C3.08999 21.77 1.04999 22.66 1.07999 20.59C1.06769 20.4556 1.08512 20.3202 1.13102 20.1933C1.17693 20.0663 1.2502 19.9511 1.34563 19.8557C1.44106 19.7602 1.55631 19.687 1.68323 19.6411C1.81014 19.5952 1.94559 19.5777 2.07999 19.59C2.46002 19.5164 2.8538 19.5916 3.17999 19.8C3.30979 19.93 3.40934 20.087 3.47157 20.2599C3.53379 20.4327 3.55715 20.6171 3.53999 20.8C3.54999 21.21 3.48999 21.5 3.23999 21.66H3.24999Z" fill="black"/>
<path fill-rule="evenodd" clip-rule="evenodd" d="M16.67 18.29C16.3751 18.2855 16.0829 18.3462 15.8142 18.4678C15.5456 18.5894 15.3072 18.769 15.116 18.9936C14.9249 19.2181 14.7858 19.4822 14.7087 19.7669C14.6316 20.0515 14.6184 20.3497 14.67 20.64C14.97 23.32 17.94 22.92 18.67 22.24C18.866 22.0564 19.0201 21.8328 19.1219 21.5843C19.2237 21.3358 19.2708 21.0683 19.26 20.8C19.3056 20.4386 19.27 20.0715 19.1559 19.7255C19.0417 19.3795 18.8518 19.0633 18.6 18.8C18.0424 18.3961 17.3544 18.2142 16.67 18.29ZM17.93 21.66C17.77 21.77 15.73 22.66 15.75 20.59C15.7395 20.456 15.7581 20.3213 15.8046 20.1952C15.8512 20.0691 15.9245 19.9546 16.0195 19.8596C16.1146 19.7645 16.2291 19.6912 16.3552 19.6447C16.4813 19.5981 16.616 19.5795 16.75 19.59C17.13 19.5175 17.5234 19.5926 17.85 19.8C17.9763 19.9321 18.073 20.0896 18.1333 20.2621C18.1937 20.4346 18.2164 20.618 18.2 20.8C18.23 21.21 18.17 21.5 17.93 21.66Z" fill="black"/>
<path fill-rule="evenodd" clip-rule="evenodd" d="M6.65 18.29C6.35779 18.294 6.06982 18.3604 5.80538 18.4848C5.54094 18.6091 5.30614 18.7886 5.11674 19.0112C4.92734 19.2337 4.78771 19.4942 4.70721 19.7751C4.62671 20.056 4.6072 20.3509 4.65 20.64C4.95 23.32 7.92 22.92 8.7 22.24C8.89778 22.0573 9.05377 21.8341 9.15733 21.5856C9.26088 21.337 9.30955 21.0691 9.3 20.8C9.34836 20.4392 9.31506 20.0722 9.20256 19.7261C9.09005 19.3799 8.90122 19.0634 8.65 18.8C8.07392 18.3787 7.35747 18.196 6.65 18.29ZM7.9 21.66C7.74 21.77 5.7 22.66 5.73 20.59C5.7177 20.4556 5.73512 20.3202 5.78103 20.1932C5.82694 20.0663 5.9002 19.9511 5.99563 19.8556C6.09106 19.7602 6.20632 19.6869 6.33323 19.641C6.46014 19.5951 6.5956 19.5777 6.73 19.59C7.11003 19.5164 7.5038 19.5916 7.83 19.8C7.9598 19.93 8.05935 20.087 8.12157 20.2598C8.1838 20.4327 8.20716 20.6171 8.19 20.8C8.21 21.21 8.15 21.5 7.9 21.66Z" fill="black"/>
<path fill-rule="evenodd" clip-rule="evenodd" d="M21.34 18.29C21.0478 18.294 20.7598 18.3604 20.4954 18.4848C20.2309 18.6092 19.9961 18.7887 19.8067 19.0112C19.6173 19.2338 19.4777 19.4942 19.3972 19.7751C19.3167 20.0561 19.2972 20.351 19.34 20.64C19.64 23.32 22.61 22.92 23.39 22.24C23.5896 22.0583 23.7475 21.8354 23.8528 21.5869C23.9581 21.3383 24.0083 21.0699 24 20.8C24.0484 20.4393 24.0151 20.0723 23.9026 19.7261C23.7901 19.3799 23.6012 19.0634 23.35 18.8C22.7713 18.3762 22.0508 18.1934 21.34 18.29ZM22.59 21.66C22.43 21.77 20.39 22.66 20.42 20.59C20.4077 20.4556 20.4251 20.3202 20.471 20.1933C20.5169 20.0664 20.5902 19.9511 20.6856 19.8557C20.7811 19.7602 20.8963 19.687 21.0232 19.6411C21.1501 19.5952 21.2856 19.5777 21.42 19.59C21.8 19.5165 22.1938 19.5916 22.52 19.8C22.6498 19.93 22.7494 20.087 22.8116 20.2599C22.8738 20.4327 22.8972 20.6171 22.88 20.8C22.9 21.21 22.84 21.5 22.59 21.66Z" fill="black"/>
<path fill-rule="evenodd" clip-rule="evenodd" d="M2.21998 13.44C1.95359 13.4469 1.69171 13.5104 1.45172 13.6263C1.21173 13.7421 0.999103 13.9076 0.827946 14.1119C0.65679 14.3161 0.531012 14.5545 0.458953 14.811C0.386894 15.0676 0.370201 15.3365 0.40998 15.6C0.69998 18.03 3.40998 17.67 4.09998 17.06C4.28045 16.8919 4.42289 16.6872 4.51775 16.4595C4.61261 16.2318 4.65769 15.9865 4.64998 15.74C4.68791 15.4128 4.65386 15.0813 4.55022 14.7686C4.44658 14.456 4.27585 14.1698 4.04998 13.93C3.52837 13.5319 2.87071 13.3558 2.21998 13.44ZM3.30998 16.44C2.90998 16.71 1.43998 17.14 1.45998 15.53C1.4554 15.4211 1.47397 15.3125 1.51447 15.2114C1.55498 15.1102 1.61649 15.0188 1.69494 14.9432C1.77339 14.8676 1.867 14.8095 1.96957 14.7727C2.07215 14.736 2.18136 14.7214 2.28998 14.73C2.61033 14.6736 2.94028 14.734 3.21998 14.9C3.32747 15.0102 3.40991 15.1423 3.46168 15.2873C3.51346 15.4322 3.53334 15.5867 3.51998 15.74C3.54998 16.08 3.50998 16.32 3.30998 16.46V16.44Z" fill="black"/>
<path fill-rule="evenodd" clip-rule="evenodd" d="M16.9 13.44C16.6336 13.447 16.3717 13.5105 16.1317 13.6263C15.8918 13.7421 15.6791 13.9077 15.508 14.1119C15.3368 14.3162 15.211 14.5545 15.139 14.811C15.0669 15.0676 15.0502 15.3365 15.09 15.6C15.39 18.04 18.09 17.67 18.79 17.06C18.9671 16.8899 19.1067 16.6845 19.1997 16.4572C19.2927 16.2298 19.3371 15.9856 19.33 15.74C19.3729 15.4126 19.3412 15.0797 19.2373 14.7663C19.1334 14.4529 18.96 14.167 18.73 13.93C18.2089 13.531 17.5508 13.3548 16.9 13.44ZM17.99 16.44C17.59 16.71 16.12 17.13 16.15 15.53C16.1438 15.4207 16.1612 15.3114 16.2011 15.2095C16.2411 15.1076 16.3025 15.0155 16.3813 14.9395C16.4602 14.8635 16.5545 14.8055 16.6578 14.7693C16.7611 14.7332 16.871 14.7198 16.98 14.73C17.3003 14.6763 17.6294 14.7364 17.91 14.9C18.0163 15.0107 18.0972 15.1431 18.1473 15.2882C18.1973 15.4332 18.2153 15.5874 18.2 15.74C18.23 16.08 18.2 16.32 18 16.46L17.99 16.44Z" fill="black"/>
<path fill-rule="evenodd" clip-rule="evenodd" d="M6.87998 13.44C6.61359 13.447 6.35171 13.5105 6.11172 13.6263C5.87173 13.7421 5.65911 13.9077 5.48795 14.1119C5.31679 14.3162 5.19102 14.5545 5.11896 14.811C5.0469 15.0676 5.0302 15.3365 5.06998 15.6C5.35998 18.03 8.06998 17.67 8.75998 17.06C8.94045 16.8919 9.08289 16.6872 9.17775 16.4595C9.27261 16.2319 9.3177 15.9865 9.30998 15.74C9.348 15.412 9.31303 15.0797 9.20757 14.7667C9.10212 14.4538 8.92878 14.1681 8.69998 13.93C8.44399 13.7322 8.15136 13.5871 7.83899 13.503C7.52661 13.4189 7.20068 13.3975 6.87998 13.44ZM7.96998 16.44C7.56998 16.71 6.09998 17.14 6.11998 15.53C6.1154 15.4212 6.13397 15.3126 6.17448 15.2114C6.21498 15.1103 6.27649 15.0188 6.35494 14.9432C6.43339 14.8676 6.527 14.8095 6.62958 14.7728C6.73215 14.736 6.84136 14.7214 6.94998 14.73C7.27034 14.6737 7.60029 14.734 7.87998 14.9C7.98747 15.0102 8.06991 15.1423 8.12169 15.2873C8.17346 15.4322 8.19334 15.5867 8.17998 15.74C8.20998 16.08 8.16998 16.32 7.99998 16.46L7.96998 16.44Z" fill="black"/>
<path fill-rule="evenodd" clip-rule="evenodd" d="M23.45 17.06C23.6284 16.8904 23.7695 16.6853 23.8642 16.458C23.9589 16.2307 24.0052 15.9862 24 15.74C24.038 15.412 24.003 15.0797 23.8976 14.7667C23.7921 14.4538 23.6188 14.1681 23.39 13.93C23.134 13.7322 22.8414 13.5871 22.529 13.503C22.2166 13.4189 21.8907 13.3975 21.57 13.44C21.3036 13.447 21.0417 13.5105 20.8017 13.6263C20.5617 13.7421 20.3491 13.9077 20.178 14.1119C20.0068 14.3162 19.881 14.5545 19.809 14.811C19.7369 15.0676 19.7202 15.3365 19.76 15.6C20.05 18 22.74 17.67 23.45 17.06ZM21.64 14.75C21.9603 14.6937 22.2903 14.754 22.57 14.92C22.6775 15.0302 22.7599 15.1623 22.8117 15.3073C22.8635 15.4522 22.8833 15.6067 22.87 15.76C22.87 16.08 22.87 16.32 22.66 16.46C22.26 16.73 20.79 17.16 20.81 15.55C20.8054 15.4412 20.824 15.3326 20.8645 15.2314C20.905 15.1303 20.9665 15.0388 21.0449 14.9632C21.1234 14.8876 21.217 14.8295 21.3196 14.7928C21.4222 14.756 21.5314 14.7414 21.64 14.75Z" fill="black"/>
<path fill-rule="evenodd" clip-rule="evenodd" d="M4 11.87C4.16601 11.7182 4.29747 11.5325 4.38546 11.3254C4.47345 11.1184 4.51592 10.8949 4.51 10.67C4.55679 10.3712 4.53521 10.0657 4.44687 9.7764C4.35854 9.48714 4.20574 9.22168 4 9C3.76894 8.81864 3.5039 8.68538 3.22051 8.6081C2.93713 8.53081 2.64114 8.51106 2.35 8.55C2.10417 8.55481 1.86231 8.61289 1.6411 8.72023C1.4199 8.82756 1.22461 8.98161 1.0687 9.17174C0.912799 9.36186 0.799992 9.58355 0.738064 9.82149C0.676136 10.0594 0.66656 10.308 0.709996 10.55C0.999996 12.75 3.41 12.41 4 11.87ZM2.38 9.87C2.64074 9.82289 2.90974 9.8689 3.14 10C3.22718 10.0869 3.29394 10.1921 3.33545 10.308C3.37696 10.4238 3.39218 10.5475 3.38 10.67C3.38 10.93 3.38 11.12 3.24 11.23C3.1 11.34 1.67 12.08 1.72 10.48C1.72189 10.3934 1.74219 10.3082 1.77956 10.2301C1.81693 10.152 1.8705 10.0827 1.93672 10.0269C2.00294 9.97106 2.08029 9.92999 2.16362 9.90639C2.24694 9.88279 2.33434 9.8772 2.42 9.89L2.38 9.87Z" fill="black"/>
<path fill-rule="evenodd" clip-rule="evenodd" d="M18.73 11.87C18.8927 11.7161 19.0212 11.5298 19.1074 11.3231C19.1935 11.1164 19.2353 10.8939 19.23 10.67C19.2729 10.3689 19.2465 10.062 19.153 9.77264C19.0594 9.48326 18.901 9.21902 18.69 9.00004C18.4509 8.82025 18.178 8.69042 17.8877 8.61826C17.5973 8.54611 17.2955 8.53311 17 8.58004C16.7547 8.58652 16.5137 8.6457 16.2933 8.75356C16.073 8.86143 15.8784 9.01545 15.7228 9.20517C15.5673 9.39489 15.4543 9.61587 15.3917 9.8531C15.3291 10.0903 15.3183 10.3383 15.36 10.58C15.68 12.75 18.09 12.41 18.73 11.87ZM17.11 9.87004C17.3675 9.82274 17.6334 9.86884 17.86 10C17.9472 10.0869 18.0139 10.1921 18.0554 10.308C18.097 10.4239 18.1122 10.5476 18.1 10.67C18.1 10.93 18.1 11.12 17.96 11.23C17.82 11.34 16.4 12.08 16.44 10.48C16.4437 10.3968 16.4642 10.3152 16.5003 10.24C16.5363 10.1649 16.5871 10.0977 16.6496 10.0427C16.7122 9.98759 16.7852 9.94569 16.8643 9.91947C16.9434 9.89325 17.0269 9.88324 17.11 9.89004V9.87004Z" fill="black"/>
<path fill-rule="evenodd" clip-rule="evenodd" d="M8.69999 11.87C8.86601 11.7182 8.99746 11.5325 9.08545 11.3255C9.17345 11.1184 9.21592 10.8949 9.20999 10.67C9.25159 10.3682 9.22367 10.0608 9.12835 9.77134C9.03303 9.48191 8.87283 9.21809 8.65999 9.00002C8.42542 8.82261 8.15765 8.69403 7.87253 8.62189C7.58741 8.54975 7.29071 8.53552 6.99999 8.58002C6.75416 8.58483 6.5123 8.64291 6.2911 8.75025C6.06989 8.85759 5.8746 9.01164 5.7187 9.20176C5.56279 9.39189 5.44999 9.61357 5.38806 9.85152C5.32613 10.0895 5.31655 10.338 5.35999 10.58C5.64999 12.75 8.05999 12.41 8.69999 11.87ZM7.07999 9.87002C7.34073 9.82291 7.60973 9.86893 7.83999 10C8.07999 10.18 8.05999 10.5 8.07999 10.67C8.09999 10.84 8.07999 11.12 7.93999 11.23C7.79999 11.34 6.36999 12.08 6.41999 10.48C6.42242 10.3972 6.4417 10.3158 6.47663 10.2407C6.51156 10.1656 6.56143 10.0984 6.62318 10.0432C6.68494 9.98797 6.75729 9.94592 6.83583 9.91959C6.91436 9.89326 6.99744 9.8832 7.07999 9.89002V9.87002Z" fill="black"/>
<path fill-rule="evenodd" clip-rule="evenodd" d="M23.39 11.87C23.5545 11.717 23.6849 11.5311 23.7728 11.3243C23.8607 11.1176 23.904 10.8946 23.9 10.67C23.9416 10.3681 23.9137 10.0607 23.8184 9.77132C23.723 9.48189 23.5628 9.21807 23.35 9C23.1189 8.81864 22.8539 8.68538 22.5705 8.6081C22.2871 8.53081 21.9911 8.51106 21.7 8.55C21.4542 8.55481 21.2123 8.61289 20.9911 8.72023C20.7699 8.82756 20.5746 8.98161 20.4187 9.17174C20.2628 9.36186 20.15 9.58355 20.0881 9.82149C20.0261 10.0594 20.0166 10.308 20.06 10.55C20.34 12.75 22.75 12.41 23.39 11.87ZM21.77 9.87C22.0307 9.82289 22.2997 9.8689 22.53 10C22.77 10.18 22.75 10.5 22.77 10.67C22.79 10.84 22.77 11.12 22.63 11.23C22.49 11.34 21.06 12.08 21.11 10.48C21.1124 10.3972 21.1317 10.3158 21.1666 10.2407C21.2016 10.1656 21.2514 10.0984 21.3132 10.0431C21.3749 9.98794 21.4473 9.94589 21.5258 9.91956C21.6044 9.89323 21.6875 9.88317 21.77 9.89V9.87Z" fill="black"/>
<path fill-rule="evenodd" clip-rule="evenodd" d="M4 6.73C4.14933 6.59059 4.26818 6.42177 4.34907 6.23418C4.42995 6.04659 4.47113 5.84428 4.47 5.64C4.50014 5.37408 4.47192 5.10479 4.38729 4.8509C4.30266 4.59702 4.16366 4.36465 3.98 4.17C3.77249 4.00751 3.53491 3.88764 3.28092 3.81728C3.02693 3.74692 2.76154 3.72745 2.5 3.76C2.27827 3.76281 2.05976 3.81348 1.85942 3.90853C1.65908 4.00359 1.48163 4.14079 1.3392 4.31075C1.19677 4.48071 1.09273 4.67943 1.03419 4.89331C0.975647 5.10719 0.963985 5.33119 1 5.55C1.25 7.48 3.37 7.2 4 6.73ZM2.52 5.08C2.86 5.08 3.05 5.08 3.14 5.19C3.23511 5.33225 3.28718 5.49891 3.29 5.67C3.29 5.85 3.29 6 3.21 6.08C3.13 6.16 2 6.76 2 5.5C2.00182 5.43652 2.01737 5.37418 2.04557 5.31727C2.07376 5.26037 2.11395 5.21024 2.16335 5.17034C2.21276 5.13043 2.27022 5.1017 2.33178 5.0861C2.39335 5.07051 2.45756 5.06842 2.52 5.08Z" fill="black"/>
<path fill-rule="evenodd" clip-rule="evenodd" d="M18.64 6.73C18.7875 6.58972 18.9045 6.42051 18.9836 6.23296C19.0628 6.04541 19.1024 5.84355 19.1 5.64C19.1329 5.37395 19.106 5.1039 19.0213 4.84957C18.9365 4.59525 18.796 4.36307 18.61 4.17C18.4025 4.00751 18.1649 3.88764 17.9109 3.81728C17.6569 3.74692 17.3915 3.72745 17.13 3.76C16.9105 3.76725 16.6951 3.82105 16.498 3.91785C16.3008 4.01465 16.1265 4.15223 15.9866 4.32147C15.8467 4.49071 15.7443 4.68776 15.6863 4.89956C15.6282 5.11135 15.6159 5.33306 15.65 5.55C15.93 7.48 18.06 7.2 18.64 6.73ZM17.2 5.08C17.54 5.08 17.73 5.08 17.82 5.19C17.9151 5.33225 17.9672 5.49891 17.97 5.67C17.97 5.85 17.97 6 17.9 6.08C17.83 6.16 16.66 6.76 16.71 5.5C16.7108 5.43895 16.7246 5.37878 16.7505 5.32348C16.7764 5.26819 16.8138 5.21904 16.8601 5.17931C16.9065 5.13957 16.9608 5.11017 17.0194 5.09304C17.078 5.07592 17.1395 5.07147 17.2 5.08Z" fill="black"/>
<path fill-rule="evenodd" clip-rule="evenodd" d="M8.60998 6.73C8.75947 6.59125 8.87779 6.42233 8.95709 6.23442C9.03639 6.04651 9.07487 5.8439 9.06998 5.64C9.10495 5.37468 9.07998 5.10489 8.99691 4.85049C8.91384 4.59609 8.77478 4.36356 8.58998 4.17C8.38247 4.00751 8.14489 3.88764 7.8909 3.81728C7.63691 3.74692 7.37152 3.72745 7.10998 3.76C6.88995 3.76564 6.67369 3.81838 6.47577 3.91467C6.27784 4.01096 6.10286 4.14855 5.96261 4.31818C5.82236 4.48781 5.7201 4.68553 5.66272 4.89802C5.60534 5.11051 5.59417 5.33283 5.62998 5.55C5.90998 7.48 7.99998 7.2 8.60998 6.73ZM7.17998 5.08C7.50998 5.08 7.69998 5.08 7.79998 5.19C7.90781 5.32956 7.97681 5.49516 7.99998 5.67C7.99998 5.85 7.99998 6 7.91998 6.08C7.83998 6.16 6.67998 6.76 6.72998 5.5C6.73518 5.38505 6.78519 5.27672 6.86931 5.19821C6.95343 5.1197 7.06495 5.07727 7.17998 5.08Z" fill="black"/>
<path fill-rule="evenodd" clip-rule="evenodd" d="M23.3 6.73C23.4495 6.59125 23.5678 6.42233 23.6471 6.23442C23.7264 6.04651 23.7649 5.8439 23.76 5.64C23.7928 5.37476 23.7668 5.10555 23.6839 4.85148C23.6009 4.59742 23.463 4.36475 23.28 4.17C23.0725 4.00751 22.8349 3.88764 22.5809 3.81728C22.3269 3.74692 22.0615 3.72745 21.8 3.76C21.58 3.76564 21.3637 3.81838 21.1658 3.91467C20.9678 4.01096 20.7929 4.14855 20.6526 4.31818C20.5124 4.48781 20.4101 4.68553 20.3527 4.89802C20.2953 5.11051 20.2842 5.33283 20.32 5.55C20.6 7.48 22.72 7.2 23.3 6.73ZM21.87 5.08C22.2 5.08 22.39 5.08 22.49 5.19C22.5801 5.33461 22.6317 5.49983 22.64 5.67C22.64 5.85 22.64 6 22.56 6.08C22.48 6.16 21.32 6.76 21.37 5.5C21.3722 5.4385 21.3873 5.37815 21.4143 5.32285C21.4413 5.26754 21.4796 5.21852 21.5267 5.17894C21.5738 5.13936 21.6287 5.1101 21.6878 5.09306C21.747 5.07602 21.809 5.07157 21.87 5.08Z" fill="black"/>
<path fill-rule="evenodd" clip-rule="evenodd" d="M12.34 19.64C12.41 17.91 12.49 16.19 12.54 14.47C12.54 13.64 12.54 12.81 12.59 11.99C12.64 11.17 12.59 10.33 12.59 9.51002C12.59 7.79002 12.47 6.07002 12.42 4.36002C12.4742 4.34713 12.5253 4.32331 12.57 4.29002L12.73 4.21002C12.8969 4.12322 13.0545 4.01933 13.2 3.90002C13.5628 3.65545 13.8273 3.29017 13.9463 2.86908C14.0653 2.44798 14.0311 1.99834 13.85 1.60002C13.6325 1.20509 13.2994 0.886137 12.8955 0.685941C12.4915 0.485746 12.036 0.413891 11.59 0.480018C11.3648 0.493925 11.1446 0.55253 10.9422 0.652415C10.7399 0.752301 10.5595 0.891469 10.4115 1.0618C10.2635 1.23214 10.1509 1.43023 10.0802 1.64454C10.0096 1.85884 9.9823 2.08506 9.99998 2.31002C10.0528 2.77299 10.2414 3.20997 10.5422 3.56589C10.8429 3.92181 11.2423 4.18073 11.69 4.31002C11.56 6.02002 11.42 7.74002 11.35 9.47002V11.95V14.44C11.35 16.17 11.48 17.9 11.56 19.63C11.1337 19.6804 10.7435 19.8939 10.4713 20.2258C10.1991 20.5577 10.066 20.9821 10.1 21.41C10.18 22.63 11.63 24.41 13.31 23C13.6752 22.7551 13.9412 22.388 14.0603 21.9647C14.1794 21.5414 14.1439 21.0895 13.96 20.69C13.8005 20.3925 13.5683 20.1402 13.2851 19.9566C13.0018 19.773 12.6767 19.6641 12.34 19.64ZM11.14 2.64002C11.1114 2.54601 11.1056 2.44656 11.123 2.34986C11.1405 2.25316 11.1806 2.16199 11.2402 2.08386C11.2998 2.00573 11.377 1.94287 11.4657 1.90048C11.5543 1.85808 11.6518 1.83736 11.75 1.84002C11.9346 1.80107 12.1265 1.81515 12.3034 1.88062C12.4804 1.94609 12.6352 2.06029 12.75 2.21002C12.8534 2.39314 12.8909 2.60615 12.8563 2.81358C12.8218 3.021 12.7172 3.21033 12.56 3.35002C12.35 3.57002 11.4 3.68002 11.14 2.59002V2.64002ZM12.67 22.47C11.95 23.31 11.33 22.21 11.23 21.77C11.1973 21.6762 11.1881 21.5758 11.2031 21.4776C11.2181 21.3794 11.2568 21.2863 11.3159 21.2065C11.3751 21.1266 11.4528 21.0624 11.5424 21.0195C11.632 20.9765 11.7307 20.9561 11.83 20.96C12.0155 20.9222 12.208 20.9378 12.3851 21.0051C12.5621 21.0723 12.7164 21.1885 12.83 21.34C12.9237 21.5131 12.9588 21.712 12.9299 21.9067C12.9011 22.1014 12.8099 22.2815 12.67 22.42V22.47Z" fill="black"/>
</g>
<defs>
<clipPath id="clip0_1048_6996">
<rect width="24" height="24" fill="white"/>
</clipPath>
</defs>
</svg>
