<svg width="24" height="24" viewBox="0 0 24 24" fill="none" xmlns="http://www.w3.org/2000/svg">
<g clip-path="url(#clip0_1033_3697)">
<path fill-rule="evenodd" clip-rule="evenodd" d="M1.05004 6.59998C1.59004 6.59998 1.28004 6.05998 1.24004 3.78998C1.24004 2.09998 1.14004 1.48998 3.04004 1.20998C4.11004 1.05998 5.27004 1.20998 6.34004 1.15998C6.43401 1.14498 6.51955 1.09697 6.58131 1.02457C6.64306 0.952177 6.67699 0.860135 6.67699 0.764977C6.67699 0.669818 6.64306 0.577776 6.58131 0.50538C6.51955 0.432983 6.43401 0.384975 6.34004 0.369977C4.45004 0.219977 2.38004 -0.660023 0.500036 0.999977C-0.569964 1.99998 0.500036 5.08998 0.680036 6.29998C0.690116 6.38848 0.734528 6.4695 0.80372 6.5256C0.872912 6.5817 0.961358 6.60841 1.05004 6.59998Z" fill="black"/>
<path fill-rule="evenodd" clip-rule="evenodd" d="M6.34001 22.84C5.27001 22.79 4.11001 22.94 3.04001 22.79C1.13001 22.51 1.21001 21.89 1.24001 20.21C1.24001 17.95 1.59001 17.45 1.05001 17.4C0.958765 17.3945 0.86897 17.4248 0.799826 17.4846C0.730683 17.5444 0.68768 17.6289 0.680013 17.72C0.460013 19 -0.579987 22.05 0.500013 23C2.37001 24.63 4.44001 23.76 6.35001 23.61C6.43363 23.5853 6.50687 23.5339 6.55861 23.4637C6.61034 23.3936 6.63772 23.3084 6.63659 23.2212C6.63546 23.134 6.60587 23.0496 6.55233 22.9808C6.4988 22.912 6.42424 22.8625 6.34001 22.84Z" fill="black"/>
<path fill-rule="evenodd" clip-rule="evenodd" d="M17.66 1.15997C18.73 1.20997 19.89 1.05997 20.96 1.20997C22.86 1.48997 22.79 2.09997 22.76 3.78997C22.76 6.05997 22.41 6.54997 22.95 6.59997C22.9955 6.60407 23.0413 6.59896 23.0848 6.58497C23.1282 6.57097 23.1684 6.54837 23.2029 6.51851C23.2375 6.48864 23.2656 6.45213 23.2858 6.41115C23.3059 6.37017 23.3175 6.32555 23.32 6.27997C23.54 4.99997 24.58 1.99997 23.5 0.99997C21.63 -0.65003 19.56 0.21997 17.65 0.36997C17.5562 0.386115 17.4712 0.435189 17.4104 0.508373C17.3495 0.581556 17.3167 0.674051 17.3179 0.769237C17.3191 0.864423 17.3542 0.956059 17.4169 1.02768C17.4796 1.0993 17.5658 1.1462 17.66 1.15997Z" fill="black"/>
<path fill-rule="evenodd" clip-rule="evenodd" d="M23 17.4C22.46 17.45 22.77 17.9399 22.81 20.2099C22.81 21.8899 22.92 22.51 21.01 22.79C19.94 22.94 18.78 22.79 17.71 22.84C17.616 22.8549 17.5305 22.903 17.4687 22.9754C17.407 23.0477 17.373 23.1398 17.373 23.235C17.373 23.3301 17.407 23.4222 17.4687 23.4945C17.5305 23.5669 17.616 23.615 17.71 23.63C19.61 23.78 21.71 24.63 23.56 23.02C24.63 22.02 23.56 19.0199 23.38 17.72C23.3762 17.6739 23.3634 17.6291 23.3422 17.5881C23.321 17.547 23.2919 17.5106 23.2566 17.4808C23.2213 17.4511 23.1804 17.4286 23.1364 17.4148C23.0924 17.4009 23.046 17.3958 23 17.4Z" fill="black"/>
<path fill-rule="evenodd" clip-rule="evenodd" d="M10 7.99997C9.78062 7.82601 9.51189 7.72574 9.23215 7.71344C8.9524 7.70115 8.67592 7.77746 8.44208 7.9315C8.20825 8.08554 8.029 8.30946 7.92987 8.57134C7.83075 8.83322 7.81681 9.1197 7.89003 9.38997C7.88084 9.43396 7.8804 9.47934 7.88875 9.5235C7.89709 9.56766 7.91405 9.60975 7.93866 9.64736C7.96326 9.68496 7.99504 9.71736 8.03216 9.74268C8.06929 9.76801 8.11104 9.78578 8.15503 9.79497C8.19903 9.80416 8.2444 9.8046 8.28856 9.79626C8.33272 9.78792 8.37481 9.77096 8.41242 9.74635C8.45003 9.72174 8.48242 9.68997 8.50775 9.65284C8.53307 9.61572 8.55084 9.57396 8.56003 9.52997C8.56003 9.45997 9.50003 8.73997 9.72003 8.76997C9.82214 8.8071 9.93482 8.80215 10.0333 8.7562C10.1317 8.71026 10.2079 8.62708 10.245 8.52497C10.2822 8.42286 10.2772 8.31019 10.2313 8.21173C10.1853 8.11327 10.1021 8.0371 10 7.99997Z" fill="black"/>
<path fill-rule="evenodd" clip-rule="evenodd" d="M12 8.51999L13.13 8.08999C13.2449 8.04252 13.3662 8.0122 13.49 7.99999C13.5379 8.01903 13.5891 8.02844 13.6407 8.02769C13.6923 8.02694 13.7432 8.01604 13.7905 7.99561C13.8379 7.97518 13.8808 7.94563 13.9167 7.90863C13.9526 7.87163 13.9809 7.82792 14 7.77999C14.019 7.73206 14.0284 7.68084 14.0277 7.62927C14.0269 7.5777 14.016 7.52678 13.9956 7.47942C13.9752 7.43207 13.9456 7.3892 13.9086 7.35326C13.8716 7.31733 13.8279 7.28903 13.78 7.26999C13.5912 7.0892 13.3555 6.9649 13.0997 6.91114C12.8438 6.85739 12.5781 6.87634 12.3325 6.96584C12.0868 7.05534 11.8712 7.21183 11.7099 7.41757C11.5487 7.62332 11.4482 7.8701 11.42 8.12999C11.3742 8.20689 11.3597 8.29838 11.3793 8.38568C11.3989 8.47297 11.4512 8.54944 11.5255 8.59936C11.5997 8.64929 11.6903 8.66888 11.7785 8.65412C11.8668 8.63936 11.946 8.59136 12 8.51999Z" fill="black"/>
<path fill-rule="evenodd" clip-rule="evenodd" d="M13 11C13.0106 10.8965 12.9797 10.7931 12.9141 10.7125C12.8485 10.6319 12.7535 10.5806 12.65 10.57C12.5466 10.5594 12.4432 10.5903 12.3625 10.6559C12.2819 10.7216 12.2306 10.8165 12.22 10.92C12.1876 11.021 12.1344 11.1142 12.0637 11.1934C11.9931 11.2726 11.9067 11.3362 11.81 11.38C11.2898 11.4502 10.7604 11.3632 10.29 11.13C10.2627 11.0889 10.2269 11.054 10.1851 11.0277C10.1433 11.0014 10.0964 10.9843 10.0474 10.9774C9.99854 10.9705 9.94873 10.9741 9.90129 10.9879C9.85385 11.0016 9.80986 11.0252 9.77221 11.0572C9.73456 11.0892 9.7041 11.1288 9.68284 11.1733C9.66158 11.2179 9.64999 11.2665 9.64884 11.3159C9.64769 11.3652 9.657 11.4143 9.67617 11.4598C9.69533 11.5053 9.72391 11.5463 9.76003 11.58C10.67 13.49 13.12 12.93 13 11Z" fill="black"/>
<path fill-rule="evenodd" clip-rule="evenodd" d="M18.18 19.78C18.2321 19.78 18.2836 19.7696 18.3316 19.7494C18.3796 19.7292 18.423 19.6995 18.4594 19.6623C18.4957 19.625 18.5242 19.5808 18.5432 19.5323C18.5622 19.4838 18.5713 19.432 18.57 19.38C18.83 16.17 17.65 14.38 15.86 13.13C16.5154 12.5122 16.9978 11.7336 17.259 10.8716C17.5202 10.0096 17.5513 9.09421 17.349 8.21649C17.1468 7.33877 16.7183 6.52928 16.1062 5.8685C15.4941 5.20772 14.7197 4.71868 13.86 4.44999C8.41999 2.49999 2.79999 7.56999 6.18999 12.62C6.68364 13.3574 7.33201 13.9785 8.08999 14.44C6.40999 15.57 5.37999 17 5.43999 20.13C5.44609 20.2263 5.48679 20.3171 5.55458 20.3858C5.62238 20.4544 5.7127 20.4962 5.8089 20.5036C5.9051 20.5109 6.0007 20.4831 6.07809 20.4255C6.15547 20.3679 6.20942 20.2843 6.22999 20.19C6.62838 18.188 7.55744 16.3299 8.91999 14.81C9.40468 15.0128 9.92458 15.1181 10.45 15.12C10.5002 15.1286 10.5517 15.1261 10.6009 15.1127C10.65 15.0993 10.6957 15.0754 10.7346 15.0425C10.7736 15.0097 10.8049 14.9687 10.8263 14.9225C10.8478 14.8763 10.8589 14.8259 10.8589 14.775C10.8589 14.724 10.8478 14.6737 10.8263 14.6275C10.8049 14.5813 10.7736 14.5403 10.7346 14.5075C10.6957 14.4746 10.65 14.4507 10.6009 14.4373C10.5517 14.4239 10.5002 14.4214 10.45 14.43C9.94231 14.3875 9.44878 14.2411 8.99999 14C7.93162 13.4938 7.09441 12.602 6.65662 11.5038C6.21883 10.4056 6.21289 9.18239 6.63999 8.07999C8.06999 5.07999 13.02 4.43999 15.31 6.89999C17.6 9.35999 15.86 13.38 12.58 14C12.4892 14.0298 12.4121 14.0912 12.3626 14.1729C12.3131 14.2547 12.2945 14.3515 12.3102 14.4458C12.3259 14.5401 12.3749 14.6256 12.4482 14.6869C12.5216 14.7482 12.6144 14.7812 12.71 14.78C13.6386 14.6447 14.5167 14.2728 15.26 13.7C16.0923 14.7057 16.7483 15.8452 17.2 17.07C18 19.18 17.57 19.79 18.18 19.78Z" fill="black"/>
</g>
<defs>
<clipPath id="clip0_1033_3697">
<rect width="24" height="24" fill="white"/>
</clipPath>
</defs>
</svg>
