<svg width="24" height="24" viewBox="0 0 24 24" fill="none" xmlns="http://www.w3.org/2000/svg">
<g clip-path="url(#clip0_1033_3707)">
<path fill-rule="evenodd" clip-rule="evenodd" d="M16.39 10.25C17.64 10.98 19.96 10.07 19.39 8.25001C18.79 6.19001 16.39 6.87001 15.88 7.45001C15.5932 7.89415 15.4864 8.4308 15.5811 8.95089C15.6758 9.47099 15.965 9.9355 16.39 10.25ZM16.75 8.00001C16.85 7.91001 18.21 7.00001 18.39 8.47001C18.3998 8.55364 18.3919 8.63841 18.3668 8.71879C18.3417 8.79917 18.3 8.87337 18.2444 8.93657C18.1887 8.99977 18.1204 9.05054 18.0438 9.08559C17.9672 9.12064 17.8842 9.13918 17.8 9.14001C16.96 9.32001 16.8 9.08001 16.68 8.55001C16.62 8.28001 16.61 8.10001 16.75 8.00001Z" fill="black"/>
<path fill-rule="evenodd" clip-rule="evenodd" d="M6.99999 13.37C7.42512 13.6769 7.72972 14.1226 7.86118 14.6302C7.99263 15.1378 7.9427 15.6753 7.71999 16.15C7.67831 16.2359 7.66872 16.3339 7.69296 16.4262C7.7172 16.5186 7.77367 16.5992 7.85217 16.6535C7.93066 16.7079 8.02601 16.7323 8.12098 16.7225C8.21595 16.7127 8.30427 16.6693 8.36999 16.6C8.70144 16.2641 8.94015 15.848 9.06283 15.3923C9.18552 14.9366 9.18798 14.4569 9.06999 14C8.99686 13.7508 8.86918 13.521 8.69621 13.3273C8.52325 13.1336 8.30934 12.9808 8.06999 12.88C8.47732 12.9709 8.87077 13.1155 9.23999 13.31C11.17 14.19 11.1 15.15 11.64 14.79C11.7284 14.7326 11.7907 14.6427 11.8131 14.5397C11.8356 14.4367 11.8165 14.329 11.76 14.24C11.5265 13.6456 11.1541 13.1157 10.674 12.6947C10.1938 12.2737 9.61981 11.9738 8.99999 11.82C9.56287 11.3445 10.2261 11.0026 10.94 10.82C10.9971 10.8291 11.0556 10.8257 11.1113 10.8101C11.167 10.7944 11.2186 10.7669 11.2626 10.7293C11.3067 10.6918 11.342 10.6451 11.3662 10.5926C11.3905 10.54 11.403 10.4829 11.403 10.425C11.403 10.3671 11.3905 10.31 11.3662 10.2574C11.342 10.2049 11.3067 10.1582 11.2626 10.1207C11.2186 10.0831 11.167 10.0556 11.1113 10.0399C11.0556 10.0243 10.9971 10.0209 10.94 10.03C10.0934 9.91622 9.23422 10.1115 8.51999 10.58C8.67551 10.0951 8.65554 9.57095 8.46359 9.09929C8.27163 8.62763 7.91992 8.2385 7.46999 8C7.4306 7.96717 7.38512 7.94242 7.33616 7.92716C7.2872 7.91191 7.23571 7.90645 7.18464 7.91109C7.13357 7.91573 7.08391 7.93039 7.0385 7.95422C6.99309 7.97806 6.95282 8.0106 6.91999 8.05C6.88716 8.08939 6.86241 8.13487 6.84716 8.18383C6.8319 8.23279 6.82644 8.28428 6.83108 8.33535C6.83573 8.38643 6.85038 8.43608 6.87422 8.48149C6.89805 8.5269 6.9306 8.56717 6.96999 8.6C7.75999 9.46 7.13999 10.46 6.65999 11.65C5.76999 10.54 4.55999 10.07 2.49999 10.79C2.39788 10.8112 2.30839 10.8721 2.25119 10.9593C2.19399 11.0465 2.17378 11.1529 2.19499 11.255C2.21621 11.3571 2.27712 11.4466 2.36433 11.5038C2.45153 11.561 2.55788 11.5812 2.65999 11.56C3.95002 11.4865 5.2286 11.8377 6.29999 12.56C5.15362 13.169 4.2261 14.1208 3.64701 15.2826C3.06792 16.4444 2.86619 17.758 3.06999 19.04C3.13999 19.33 3.73999 19.23 3.66999 18.9C3.69928 17.7689 4.0215 16.6648 4.60517 15.6955C5.18884 14.7262 6.014 13.925 6.99999 13.37Z" fill="black"/>
<path fill-rule="evenodd" clip-rule="evenodd" d="M23.71 13.09C24.09 7.89001 23.9 8.52001 24 5.22001C24.05 3.40001 23.61 3.48001 23.25 3.58001C16.39 5.16001 7.63997 5.36001 1.09997 2.77001C1.05492 2.75128 1.00637 2.74247 0.957612 2.74416C0.908853 2.74586 0.861031 2.75803 0.817394 2.77985C0.773756 2.80167 0.735326 2.83263 0.704712 2.87061C0.674098 2.9086 0.652019 2.95273 0.639973 3.00001C0.624728 3.04543 0.624728 3.09459 0.639973 3.14001C0.603928 3.07227 0.546027 3.01871 0.475685 2.98804C0.405342 2.95738 0.326695 2.95141 0.252531 2.97111C0.178367 2.99081 0.113048 3.03502 0.0671948 3.09655C0.0213412 3.15808 -0.00235014 3.23331 -2.71901e-05 3.31001C0.253882 5.46013 0.354136 7.62563 0.299973 9.79001C0.459973 13.47 1.09997 17.58 0.369973 20.66C0.356435 20.7099 0.352957 20.762 0.359743 20.8133C0.366528 20.8645 0.383441 20.914 0.409497 20.9586C0.435553 21.0033 0.470232 21.0423 0.511516 21.0735C0.552801 21.1046 0.599866 21.1272 0.649973 21.14C0.649973 21.14 0.649973 21.14 0.709973 21.14C0.754568 21.1978 0.816564 21.2396 0.886795 21.2595C0.957027 21.2793 1.03177 21.276 1.09997 21.25C7.60997 18.67 16.19 18.86 22.99 20.39C24.22 20.76 23.52 16.47 23.52 16.39C23.54 15.27 23.63 14.18 23.71 13.09ZM22.8 19.5C15.24 17.4 8.41997 17.11 1.20997 20.44C1.55776 19.1124 1.76226 17.7512 1.81997 16.38C1.90855 11.9899 1.53651 7.60255 0.709973 3.29001C0.735937 3.33601 0.773972 3.37405 0.819973 3.40001C8.14997 6.93001 15.45 6.64001 23.31 4.40001C22.7206 9.41042 22.55 14.4613 22.8 19.5Z" fill="black"/>
<path fill-rule="evenodd" clip-rule="evenodd" d="M17.25 11.48C15.96 11.57 14.63 12.02 13.25 12.17C13.1685 12.1839 13.0947 12.2262 13.0414 12.2893C12.9881 12.3525 12.9589 12.4324 12.9589 12.515C12.9589 12.5976 12.9881 12.6776 13.0414 12.7407C13.0947 12.8039 13.1685 12.8461 13.25 12.86C14.61 12.94 15.97 12.76 17.32 12.79C18.7379 12.7882 20.1542 12.6947 21.56 12.51C22.49 12.18 22.56 11.88 21.34 11.62C19.9806 11.4921 18.6149 11.4453 17.25 11.48Z" fill="black"/>
</g>
<defs>
<clipPath id="clip0_1033_3707">
<rect width="24" height="24" fill="white"/>
</clipPath>
</defs>
</svg>
