<svg width="24" height="24" viewBox="0 0 24 24" fill="none" xmlns="http://www.w3.org/2000/svg">
<g clip-path="url(#clip0_1033_3689)">
<path d="M13.46 11.59C14.46 10.4 12.98 9.7 12.8 9.65C12.5579 9.58314 12.3021 9.58314 12.06 9.65C11.8594 9.72191 11.6823 9.84724 11.5477 10.0125C11.4131 10.1777 11.3262 10.3765 11.2964 10.5875C11.2665 10.7985 11.2948 11.0136 11.3783 11.2097C11.4618 11.4057 11.5972 11.5753 11.77 11.7C12.0101 11.9064 12.3215 12.0105 12.6374 11.99C12.9534 11.9694 13.2487 11.8258 13.46 11.59ZM12.46 10.51C12.59 10.42 12.69 10.34 12.8 10.36C13.38 10.45 12.8 11.26 12.56 10.96C12.47 10.87 12.41 10.8 12.41 10.72C12.41 10.64 12.35 10.54 12.42 10.51H12.46Z" fill="black"/>
<path d="M11.77 14.93C11.8909 15.0318 12.0308 15.1084 12.1817 15.1555C12.3325 15.2026 12.4912 15.2192 12.6485 15.2043C12.8059 15.1894 12.9586 15.1434 13.098 15.0688C13.2373 14.9942 13.3604 14.8926 13.46 14.77C14.46 13.58 12.98 12.88 12.8 12.83C12.5522 12.7885 12.2979 12.8091 12.06 12.89C11.8592 12.9602 11.6816 13.0842 11.5466 13.2485C11.4115 13.4129 11.3243 13.6112 11.2943 13.8218C11.2644 14.0323 11.2929 14.2471 11.3768 14.4425C11.4607 14.638 11.5967 14.8066 11.77 14.93ZM12.42 13.69C12.55 13.6 12.65 13.52 12.76 13.54C13.34 13.64 12.76 14.44 12.52 14.14C12.4801 14.1122 12.4462 14.0766 12.4204 14.0353C12.3946 13.9941 12.3775 13.9481 12.37 13.9C12.37 13.82 12.35 13.73 12.42 13.69Z" fill="black"/>
<path d="M23.59 8.39001C23.47 6.81001 23.79 4.88001 21.83 4.33001C19.04 3.55001 6.42999 3.73001 3.73999 4.42001C3.69194 4.42359 3.64526 4.43765 3.60323 4.4612C3.56119 4.48475 3.52483 4.51722 3.49668 4.55633C3.46854 4.59543 3.4493 4.64023 3.44031 4.68756C3.43133 4.7349 3.43282 4.78363 3.44468 4.83033C3.45654 4.87703 3.47848 4.92056 3.50896 4.95787C3.53944 4.99519 3.57773 5.02537 3.62112 5.04631C3.66452 5.06725 3.71197 5.07843 3.76015 5.07907C3.80832 5.07971 3.85606 5.06979 3.89999 5.05001C6.48999 4.43001 18.9 4.45001 21.57 5.24001C22.81 5.61001 22.49 7.03001 22.57 8.46001C22.76 11.37 23.43 15.38 22.09 17.93C21.52 19.03 19.6 18.65 18.41 18.76C14.0275 19.1412 9.62498 19.2381 5.22999 19.05C3.64999 18.98 1.82999 18.89 1.04999 17.49C0.579991 16.65 0.829991 15.23 0.839991 14.22C0.899991 11.32 1.07999 8.59001 1.24999 5.67001C1.23749 5.60356 1.20217 5.54358 1.15013 5.50041C1.09809 5.45725 1.0326 5.43363 0.964991 5.43363C0.897381 5.43363 0.831895 5.45725 0.779855 5.50041C0.727815 5.54358 0.692492 5.60356 0.679991 5.67001C0.619991 6.45001 -0.0600089 15.89 -8.91997e-06 16.71C0.0475192 17.3008 0.260262 17.8664 0.613919 18.3421C0.967576 18.8177 1.44789 19.1843 1.99999 19.4C3.79999 20.18 9.84999 20.2 11.81 20.17C14.03 20.17 16.24 20.03 18.47 19.85C19.91 19.73 22.12 20.19 23.03 18.44C24.59 15.53 23.83 11.47 23.59 8.39001Z" fill="black"/>
<path d="M4.21 15.69C4.28 14.8 4.39 13.91 4.47 13.02C4.71 10.42 4.58 9.84 4.65 8.02C4.65919 7.97846 4.65913 7.93541 4.64982 7.89389C4.64051 7.85238 4.62218 7.81342 4.59613 7.77979C4.57008 7.74615 4.53694 7.71866 4.49908 7.69926C4.46121 7.67986 4.41954 7.66903 4.37702 7.66754C4.3345 7.66604 4.29217 7.67393 4.25304 7.69062C4.21391 7.70732 4.17893 7.73242 4.15058 7.76415C4.12224 7.79588 4.10122 7.83346 4.08902 7.87422C4.07683 7.91498 4.07375 7.95792 4.08 8C3.42099 10.5106 3.24453 13.1236 3.56 15.7C3.55241 15.7476 3.55533 15.7962 3.56854 15.8425C3.58175 15.8888 3.60494 15.9317 3.63648 15.9681C3.66802 16.0045 3.70714 16.0336 3.7511 16.0532C3.79506 16.0729 3.8428 16.0827 3.89096 16.082C3.93911 16.0812 3.98652 16.07 4.02986 16.0489C4.0732 16.0279 4.11141 15.9977 4.14181 15.9603C4.17222 15.923 4.19408 15.8794 4.20586 15.8327C4.21764 15.786 4.21905 15.7373 4.21 15.69Z" fill="black"/>
<path d="M9.87001 8.90002C9.93366 8.85626 9.97732 8.78901 9.99138 8.71306C10.0054 8.6371 9.98877 8.55867 9.94501 8.49502C9.90124 8.43137 9.83399 8.38771 9.75804 8.37364C9.68209 8.35958 9.60366 8.37626 9.54001 8.42002C7.47001 9.79002 5.14001 13.75 6.60001 15.52C7.76001 16.93 10.15 15.3 10.48 13.79C10.532 13.5516 10.5343 13.3051 10.487 13.0657C10.4397 12.8263 10.3436 12.5993 10.2048 12.3986C10.066 12.1979 9.88745 12.0279 9.68019 11.8991C9.47293 11.7703 9.24141 11.6856 9.00001 11.65C8.77847 11.6119 8.55464 11.5885 8.33001 11.58C8.25105 11.5845 8.17632 11.6171 8.11941 11.672C8.0625 11.7269 8.0272 11.8004 8.01993 11.8792C8.01266 11.9579 8.03391 12.0366 8.07981 12.101C8.12571 12.1654 8.1932 12.2112 8.27001 12.23C9.49001 12.35 9.86001 13 9.69001 13.57C9.41001 14.5 7.80001 15.46 7.42001 14.69C6.87001 13.69 8.07001 10.21 9.87001 8.90002Z" fill="black"/>
<path d="M19.36 8.48999C18.7833 8.2477 18.1565 8.14845 17.5332 8.20069C16.9098 8.25292 16.3083 8.4551 15.78 8.78999C14.87 9.47999 14.3 10.89 15.1 11.79C15.3553 12.0266 15.6578 12.2066 15.9875 12.3181C16.3173 12.4296 16.6669 12.4702 17.0134 12.4372C17.3599 12.4041 17.6956 12.2982 17.9983 12.1263C18.301 11.9545 18.564 11.7206 18.77 11.44C18.45 13.03 18.65 12.15 17.88 15.44C17.8742 15.5174 17.8959 15.5943 17.9412 15.6573C17.9866 15.7203 18.0526 15.7653 18.1278 15.7844C18.2031 15.8035 18.2826 15.7955 18.3525 15.7617C18.4224 15.728 18.4781 15.6707 18.51 15.6C19.4 12.6 20.45 9.84999 19.51 8.84999C19.532 8.78195 19.529 8.70829 19.5015 8.64229C19.474 8.57628 19.4238 8.52227 19.36 8.48999ZM18 10.71C17.55 11.33 16.43 11.71 15.88 11.14C15.47 10.71 15.88 9.79999 16.33 9.42999C16.6732 9.18116 17.0683 9.01322 17.4857 8.93875C17.9031 8.86428 18.3319 8.88522 18.74 8.99999C18.5863 9.60586 18.3364 10.1832 18 10.71Z" fill="black"/>
</g>
<defs>
<clipPath id="clip0_1033_3689">
<rect width="24" height="24" fill="white"/>
</clipPath>
</defs>
</svg>
