<svg width="24" height="24" viewBox="0 0 24 24" fill="none" xmlns="http://www.w3.org/2000/svg">
<g clip-path="url(#clip0_1046_5627)">
<path fill-rule="evenodd" clip-rule="evenodd" d="M17.63 9.37002L17.58 9.84002L17.43 10.64L17.25 12C17.2289 12.0875 17.2434 12.1798 17.2902 12.2567C17.3371 12.3336 17.4125 12.3887 17.5 12.41C17.5873 12.4285 17.6784 12.4129 17.7546 12.3664C17.8309 12.32 17.8864 12.2461 17.91 12.16L18.3 10.86L18.59 10.07L18.73 9.55002C18.7891 9.35261 18.8072 9.1452 18.7831 8.94054C18.759 8.73589 18.6933 8.53833 18.59 8.36002C18.4276 8.16099 18.1949 8.03209 17.94 8.00002C17.6273 7.97265 17.3127 7.97265 17 8.00002L16.12 8.08002L14.77 8.24002C14.6911 8.23986 14.6152 8.26976 14.5576 8.32364C14.5 8.37752 14.4651 8.45132 14.46 8.53002C14.4621 8.60821 14.4928 8.68291 14.5462 8.74003C14.5996 8.79715 14.6721 8.83272 14.75 8.84002L16.14 8.96002L16.8 9.03002L13.13 11.47C12.67 11.79 12.13 12.18 11.54 12.63C10.54 13.45 9.42001 14.4 8.54001 15.14V14.86L8.75001 12.77C8.76515 12.692 8.74972 12.6111 8.70692 12.5441C8.66411 12.4771 8.5972 12.4291 8.52001 12.41C8.4432 12.3952 8.36361 12.4109 8.29823 12.4538C8.23285 12.4968 8.18684 12.5636 8.17001 12.64C8.00001 13.14 7.82001 13.64 7.67001 14.07C7.60001 14.28 7.54001 14.5 7.49001 14.72C7.38964 15.1239 7.38964 15.5462 7.49001 15.95C7.64001 16.32 7.97001 16.63 8.78001 16.7L11.23 16.64C11.2788 16.6485 11.3289 16.6462 11.3768 16.6333C11.4246 16.6203 11.4691 16.5971 11.507 16.5652C11.5449 16.5333 11.5754 16.4934 11.5963 16.4485C11.6173 16.4036 11.6281 16.3546 11.6281 16.305C11.6281 16.2555 11.6173 16.2065 11.5963 16.1616C11.5754 16.1166 11.5449 16.0768 11.507 16.0449C11.4691 16.013 11.4246 15.9897 11.3768 15.9768C11.3289 15.9639 11.2788 15.9616 11.23 15.97L9.00001 15.6C9.80001 15.09 10.75 14.48 11.65 13.86C12.55 13.24 13.17 12.77 13.77 12.37C13.98 12.22 14.3 11.99 14.67 11.7C15.59 10.98 16.81 9.97002 17.61 9.33002L17.63 9.37002Z" fill="black"/>
<path fill-rule="evenodd" clip-rule="evenodd" d="M12.39 17.82C12.3863 17.7809 12.3748 17.7429 12.356 17.7084C12.3372 17.6739 12.3116 17.6435 12.2807 17.6192C12.2499 17.5949 12.2144 17.5771 12.1765 17.5669C12.1385 17.5568 12.0989 17.5544 12.06 17.56C11.9821 17.57 11.9112 17.6102 11.8626 17.6719C11.814 17.7336 11.7915 17.8119 11.8 17.89C11.86 18.42 11.92 18.81 11.96 19.32C12 19.83 12.02 20.14 12.02 20.74C12.0287 20.906 11.9989 21.0718 11.933 21.2244C11.8671 21.3771 11.7668 21.5124 11.64 21.62C11.1375 21.9294 10.5684 22.1146 9.98 22.16L5.78 22.75C5.37 22.75 4.65 22.93 4.01 22.97C3.72573 23.0271 3.4311 23.0029 3.16 22.9C2.91881 22.6523 2.75542 22.3394 2.69 22C2.50741 21.3461 2.38688 20.6765 2.33 20L1.18 9.99998C1.13506 9.74237 1.11164 9.48147 1.11 9.21998C1.10274 9.03502 1.15535 8.85265 1.26 8.69998C1.43589 8.5241 1.64726 8.38773 1.88 8.29998L2.33 9.37998C2.50714 9.66186 2.71878 9.92053 2.96 10.15C3.09875 10.2878 3.266 10.3936 3.45 10.46C3.95104 10.528 4.45897 10.528 4.96 10.46C5.66689 10.4096 6.36701 10.289 7.05 10.1C7.38 9.96998 7.84 9.81998 8.19 9.63998C8.39479 9.55082 8.58388 9.42926 8.75 9.27998C8.91798 9.09513 9.03814 8.87196 9.1 8.62998C9.21 8.23998 9.26 7.73998 9.32 7.40998V6.98998C9.37981 6.97705 9.442 6.98051 9.5 6.99998C9.8467 7.24617 10.1059 7.59645 10.24 7.99998C10.4922 8.64229 10.6603 9.31454 10.74 9.99998C10.7599 10.0804 10.8086 10.1508 10.8768 10.1979C10.945 10.245 11.028 10.2656 11.1103 10.2557C11.1926 10.2459 11.2685 10.2064 11.3237 10.1445C11.3789 10.0827 11.4096 10.0029 11.41 9.91998C11.345 9.15094 11.1769 8.39414 10.91 7.66998C10.7263 7.12637 10.3765 6.65416 9.91 6.31998C9.53235 6.14454 9.11402 6.07539 8.7 6.11998C7.88384 6.16144 7.07174 6.2617 6.27 6.41998L3.53 6.82998C2.90464 6.90556 2.2883 7.0429 1.69 7.23998C1.23135 7.39216 0.816239 7.65289 0.480003 7.99998C0.266386 8.25637 0.131006 8.56878 0.0900033 8.89998C0.0392738 9.29837 0.0392738 9.70159 0.0900033 10.1L1.18 20.1C1.26817 20.9631 1.45954 21.8125 1.75 22.63C1.90126 23.0654 2.1757 23.4475 2.54 23.73C2.9114 23.9376 3.33566 24.0315 3.76 24C4.48159 23.9342 5.19923 23.8307 5.91 23.69L10.12 22.94C10.8412 22.8571 11.5294 22.5921 12.12 22.17C12.3259 21.9943 12.4868 21.7719 12.5894 21.5215C12.6921 21.271 12.7334 20.9996 12.71 20.73C12.71 20.1 12.65 19.65 12.61 19.26C12.57 18.87 12.46 18.35 12.39 17.82ZM3.66 7.81998L6.43 7.32998C7.09005 7.17821 7.75764 7.06138 8.43 6.97998H8.71L8.64 7.28998C8.56 7.54998 8.48 7.93998 8.36 8.28998C8.32164 8.42963 8.2534 8.55929 8.16 8.66998C8.0142 8.75743 7.85562 8.82154 7.69 8.85998C7.38 8.95998 7.01 9.04998 6.69 9.11998C6.28401 9.21417 5.87348 9.2876 5.46 9.33998L4.33 9.39998C4.11595 9.44208 3.89815 9.46219 3.68 9.45998C3.56838 9.4172 3.46639 9.35261 3.38 9.26998C3.23934 9.17722 3.11156 9.06626 3 8.93998L2.49 7.99998C2.87427 7.89658 3.26519 7.81973 3.66 7.76998V7.81998Z" fill="black"/>
<path fill-rule="evenodd" clip-rule="evenodd" d="M23.94 3C23.9443 2.47855 23.7794 1.96975 23.47 1.55C23.1946 1.26412 22.8502 1.05404 22.47 0.939999C21.7487 0.738362 21.0133 0.59128 20.27 0.499999L17.85 0.139999C17.2976 0.02659 16.7336 -0.0204097 16.17 -9.32254e-07C15.7397 0.00200581 15.3167 0.112037 14.94 0.319999C14.6867 0.479009 14.4851 0.708344 14.36 0.979999C14.2291 1.30167 14.1352 1.63715 14.08 1.98L13 8.36C12.9915 8.39874 12.9906 8.43878 12.9976 8.47784C13.0045 8.5169 13.0191 8.5542 13.0404 8.58763C13.0836 8.65515 13.1518 8.70276 13.23 8.72C13.3082 8.73724 13.3901 8.72269 13.4576 8.67956C13.4911 8.6582 13.52 8.63047 13.5427 8.59794C13.5654 8.56542 13.5815 8.52874 13.59 8.49L14.96 2.17C14.9979 1.93698 15.0616 1.70891 15.15 1.49C15.2018 1.33731 15.3041 1.20682 15.44 1.12C15.6158 1.04011 15.8069 0.999175 16 0.999999C15.9289 1.38617 15.8887 1.77742 15.88 2.17C15.8853 2.46036 15.9608 2.74513 16.1 3C16.2053 3.15323 16.3416 3.28268 16.5 3.38C16.7707 3.54277 17.0592 3.67364 17.36 3.77C18.0818 4.00087 18.8259 4.15505 19.58 4.23C20.1561 4.31186 20.7436 4.25003 21.29 4.05C21.5963 3.81631 21.8402 3.51059 22 3.16C22.1685 2.81983 22.3058 2.46503 22.41 2.1C22.4827 2.13237 22.5475 2.18013 22.6 2.24C22.7846 2.57871 22.8515 2.96917 22.79 3.35C22.7449 4.09491 22.6345 4.83442 22.46 5.56C22.32 6.25 22.2 6.91 22.08 7.56C21.92 8.56 21.78 9.5 21.6 10.56C21.48 11.3 21.36 12.07 21.21 12.83C21.1 13.33 20.99 13.83 20.85 14.29C20.8115 14.4514 20.7266 14.598 20.6058 14.7117C20.4849 14.8255 20.3334 14.9013 20.17 14.93C19.7399 15.0049 19.3001 15.0049 18.87 14.93C18.38 14.87 17.74 14.77 17.06 14.65C16.38 14.53 15.84 14.43 15.28 14.29C15.2373 14.278 15.1926 14.2747 15.1487 14.2804C15.1047 14.286 15.0623 14.3005 15.024 14.3229C14.9857 14.3453 14.9524 14.3752 14.9259 14.4108C14.8995 14.4464 14.8804 14.4869 14.87 14.53C14.858 14.5727 14.8547 14.6174 14.8604 14.6613C14.866 14.7053 14.8805 14.7477 14.9029 14.786C14.9253 14.8243 14.9552 14.8576 14.9908 14.8841C15.0264 14.9105 15.0669 14.9296 15.11 14.94C15.56 15.07 16.11 15.19 16.56 15.3C17.37 15.47 18.18 15.61 18.75 15.71C19.384 15.8651 20.046 15.8651 20.68 15.71C20.9203 15.6163 21.1357 15.4683 21.3092 15.2774C21.4826 15.0866 21.6096 14.8581 21.68 14.61C21.84 14.11 21.98 13.61 22.11 13.08C22.29 12.31 22.44 11.54 22.59 10.79L23.59 5.86C23.8152 4.92311 23.9326 3.96355 23.94 3ZM21.4 2.56C21.266 2.81998 21.0703 3.04316 20.83 3.21C20.757 3.22013 20.683 3.22013 20.61 3.21C20.305 3.20051 20.001 3.17044 19.7 3.12C19.0246 3.04001 18.356 2.90965 17.7 2.73C17.53 2.73 17.34 2.65 17.15 2.59C17.0398 2.57579 16.9358 2.53073 16.85 2.46C16.7464 2.29093 16.6879 2.09813 16.68 1.9C16.6605 1.59698 16.6605 1.29302 16.68 0.989999C17.0166 1.01511 17.3509 1.06525 17.68 1.14L20.14 1.59C20.58 1.66 21.21 1.74 21.78 1.88C21.65 2.1 21.53 2.33 21.4 2.56Z" fill="black"/>
</g>
<defs>
<clipPath id="clip0_1046_5627">
<rect width="24" height="24" fill="white"/>
</clipPath>
</defs>
</svg>
