<svg width="24" height="24" viewBox="0 0 24 24" fill="none" xmlns="http://www.w3.org/2000/svg">
<g clip-path="url(#clip0_1048_7375)">
<path fill-rule="evenodd" clip-rule="evenodd" d="M23.78 4.76002C23.6814 4.45503 23.4889 4.18902 23.23 4.00002C23.4609 3.52777 23.5026 2.98509 23.3464 2.48314C23.1903 1.98118 22.8481 1.55791 22.39 1.30002C21.4705 0.68337 20.3965 0.336921 19.29 0.300018C17.88 0.350018 16.75 2.38002 16 3.26002C14.43 5.08002 6.42002 15.26 5.64002 16.88C5.6139 17.0138 5.62425 17.1522 5.66999 17.2806C5.71574 17.4091 5.79519 17.5228 5.90002 17.61C4.46002 19 3.00002 20.14 4.38002 21.61C4.00002 22 3.00002 23.67 3.34002 23.82C3.51002 24.08 3.64002 23.88 4.59002 23.12C4.84034 22.875 5.04968 22.5914 5.21002 22.28C6.91002 23.28 7.60002 21.6 8.47002 19.8L8.64002 19.94C8.67023 19.9663 8.70531 19.9863 8.74326 19.999C8.78122 20.0118 8.82131 20.0169 8.86124 20.0141C8.90117 20.0113 8.94016 20.0007 8.97598 19.9828C9.0118 19.965 9.04376 19.9402 9.07002 19.91C9.09629 19.8798 9.11635 19.8447 9.12905 19.8068C9.14176 19.7688 9.14687 19.7287 9.14408 19.6888C9.14129 19.6489 9.13067 19.6099 9.11282 19.5741C9.09496 19.5382 9.07023 19.5063 9.04002 19.48C8.09715 18.719 7.19586 17.9078 6.34002 17.05C7.34002 15.49 13.47 8.05002 14.67 6.58002C14.92 6.85002 15.19 7.17002 15.28 7.26002C16.0585 8.00925 16.9409 8.64242 17.9 9.14002C14.07 13.43 13.73 14.49 9.68002 18.86C9.63226 18.9304 9.61177 19.0158 9.6224 19.1002C9.63302 19.1846 9.67403 19.2623 9.73775 19.3187C9.80148 19.375 9.88355 19.4063 9.96863 19.4065C10.0537 19.4068 10.136 19.376 10.2 19.32C13.84 15.55 15.2 13.59 17.26 11.32C18.89 9.52002 21.73 6.70002 22.93 4.64002C23.0324 4.80597 23.0909 4.99524 23.1 5.19002C23.1316 5.44527 23.1116 5.70426 23.0412 5.95163C22.9707 6.199 22.8513 6.42969 22.69 6.63002C22.3056 7.19476 21.8917 7.73885 21.45 8.26002C19.55 10.59 19.29 10.8 19.64 11.09C19.7054 11.1541 19.7934 11.1901 19.885 11.1901C19.9766 11.1901 20.0646 11.1541 20.13 11.09C21.36 9.68002 24.88 7.37002 23.78 4.76002ZM7.91002 19.35C7.84002 19.35 7.72002 19.66 7.72002 19.66C6.61002 21.26 6.42002 21.66 5.82002 21.28C4.22002 20.23 5.00002 19.9 6.32002 18C6.79002 18.45 7.41002 19 7.91002 19.35ZM22.28 3.35002C22.01 4.56002 19.21 7.70002 18.38 8.63002C17.4762 7.57213 16.3929 6.68184 15.18 6.00002C15.91 5.10002 16.5 4.41002 16.85 4.00002C17.42 3.36002 18.61 1.48002 19.32 1.46002C20.27 1.45002 22.53 2.26002 22.28 3.31002V3.35002Z" fill="black"/>
<path fill-rule="evenodd" clip-rule="evenodd" d="M17 14.39C16.9346 14.3259 16.8466 14.2899 16.755 14.2899C16.6634 14.2899 16.5755 14.3259 16.51 14.39C16.16 14.77 16.51 14.75 19.33 17.67C20.25 18.62 21.13 19.59 21.97 20.6C22.81 21.61 22.48 23.27 20.97 22.46C19.9758 21.9122 19.0262 21.2869 18.13 20.59C13.95 17.45 14.02 16.92 13.65 17.31C13.5944 17.3678 13.5634 17.4448 13.5634 17.525C13.5634 17.6052 13.5944 17.6822 13.65 17.74C15.6895 19.8811 17.9486 21.8017 20.39 23.47C23.14 25 24.39 21.67 22.75 19.86C20.933 17.9347 19.0135 16.1087 17 14.39Z" fill="black"/>
<path fill-rule="evenodd" clip-rule="evenodd" d="M9.00002 9.44C9.04138 9.38131 9.06109 9.31008 9.05577 9.23847C9.05045 9.16686 9.02044 9.09932 8.97086 9.04738C8.92128 8.99544 8.85521 8.96233 8.78393 8.95368C8.71264 8.94504 8.64057 8.96141 8.58002 9C8.28759 8.65013 8.04218 8.26352 7.85002 7.85C7.64002 7.46 6.66002 6.24 6.38002 6.24C6.33213 6.23433 6.28358 6.23891 6.23759 6.25343C6.19161 6.26796 6.14924 6.2921 6.1133 6.32426C6.07736 6.35642 6.04867 6.39585 6.02914 6.43994C6.00961 6.48404 5.99968 6.53178 6.00002 6.58C6.21729 7.67413 6.82065 8.65369 7.70002 9.34C6.89204 9.09825 6.12875 8.72674 5.44002 8.24C4.98814 7.95899 4.61621 7.5664 4.36002 7.1C4.34972 7.05186 4.32937 7.00644 4.30032 6.9667C4.27126 6.92695 4.23415 6.89379 4.1914 6.86937C4.14866 6.84494 4.10124 6.82981 4.05225 6.82496C4.00326 6.82011 3.9538 6.82565 3.90709 6.84122C3.86039 6.85679 3.81749 6.88204 3.78121 6.91531C3.74493 6.94858 3.71607 6.98914 3.69653 7.03432C3.67699 7.07951 3.6672 7.12831 3.6678 7.17754C3.6684 7.22676 3.67938 7.27531 3.70002 7.32C3.88855 8.11518 4.35016 8.81899 5.00438 9.30874C5.65859 9.79849 6.46393 10.0431 7.28002 10C6.73204 10.3556 6.08296 10.5226 5.43139 10.4757C4.77983 10.4288 4.16138 10.1705 3.67002 9.74C2.39864 8.827 1.53438 7.45332 1.26162 5.91203C0.988856 4.37074 1.32919 2.78388 2.21002 1.49C2.37703 2.12755 2.73279 2.69976 3.23066 3.1316C3.72852 3.56345 4.34527 3.83477 5.00002 3.91C6.22002 4.13 7.75002 3.75 8.90002 5.49C9.13746 5.80955 9.28417 6.18731 9.32466 6.58335C9.36514 6.9794 9.29789 7.37902 9.13002 7.74C9.10316 7.82 9.1061 7.907 9.13831 7.985C9.17052 8.06299 9.22982 8.12673 9.30529 8.16446C9.38076 8.2022 9.46733 8.2114 9.54905 8.19037C9.63077 8.16934 9.70214 8.11949 9.75002 8.05C9.99411 7.58089 10.1071 7.05462 10.0772 6.52664C10.0473 5.99867 9.87554 5.48854 9.58002 5.05C7.75002 2.14 5.34002 3.77 3.87002 2.28C3.50732 1.88474 3.27058 1.39038 3.19002 0.860003C1.85002 -2.71 -3.24998 6.76 3.19002 10.56C5.16002 11.71 6.92002 11.71 9.00002 9.44Z" fill="black"/>
</g>
<defs>
<clipPath id="clip0_1048_7375">
<rect width="24" height="24" fill="white"/>
</clipPath>
</defs>
</svg>
