<svg width="24" height="24" viewBox="0 0 24 24" fill="none" xmlns="http://www.w3.org/2000/svg">
<g clip-path="url(#clip0_1048_7419)">
<path d="M23.44 16.43C23.244 15.7311 22.9619 15.0592 22.6 14.43C22.0535 13.5148 21.3211 12.7244 20.45 12.11C20.593 11.8035 20.7198 11.4897 20.83 11.17C21.0659 10.5105 21.158 9.80806 21.1 9.11C21.066 8.78482 20.9582 8.4717 20.7849 8.19444C20.6116 7.91718 20.3774 7.6831 20.1 7.51C19.7928 7.31543 19.4295 7.22851 19.0675 7.26291C18.7055 7.2973 18.3651 7.45106 18.1 7.7C17.5328 8.19914 17.0588 8.79506 16.7 9.46C16.3732 10.1101 16.0828 10.7778 15.83 11.46C15.2459 11.5343 14.6801 11.7138 14.16 11.99C13.882 12.1374 13.6233 12.3188 13.39 12.53C13.1571 12.7544 12.9523 13.0063 12.78 13.28L12.5 13.9C12.33 14.64 12.58 15.03 13.01 15.19C13.3995 15.3196 13.8205 15.3196 14.21 15.19C14.21 15.19 13.07 17.53 13.06 17.63C12.915 18.0769 12.808 18.5351 12.74 19C12.6965 19.3319 12.6965 19.6681 12.74 20C12.7711 20.1902 12.818 20.3775 12.88 20.56C12.9382 20.7012 13.0397 20.8203 13.17 20.9C13.3673 21.0117 13.5998 21.0439 13.82 20.99C14.1059 20.9133 14.3764 20.7881 14.62 20.62L15.2 20.07L15.75 19.37C15.8548 19.348 15.9558 19.3109 16.05 19.26C16.2585 19.1268 16.4528 18.9726 16.63 18.8C16.8904 18.5391 17.1218 18.2508 17.32 17.94C17.4863 17.6638 17.6333 17.3765 17.76 17.08C17.8226 17.1136 17.8901 17.1373 17.96 17.15C18.1784 17.2094 18.4037 17.2396 18.63 17.24H19.03C18.9851 17.394 18.9517 17.5511 18.93 17.71C18.9101 17.8694 18.9101 18.0306 18.93 18.19C18.9614 18.3476 19.0083 18.5016 19.07 18.65C19.2326 19.0045 19.4799 19.3135 19.79 19.55C19.819 19.5806 19.8539 19.6049 19.8925 19.6215C19.9312 19.6382 19.9729 19.6467 20.015 19.6467C20.0571 19.6467 20.0988 19.6382 20.1375 19.6215C20.1761 19.6049 20.211 19.5806 20.24 19.55C20.2992 19.4901 20.3325 19.4092 20.3325 19.325C20.3325 19.2408 20.2992 19.1599 20.24 19.1C20.1671 18.9671 20.1101 18.8262 20.07 18.68C20.07 18.53 20.07 18.38 20.01 18.22C19.95 18.06 20.01 17.92 19.94 17.76C19.8 17.04 19.79 16.86 19.75 16.76C19.7618 16.6886 19.7455 16.6153 19.7045 16.5557C19.6635 16.496 19.6009 16.4545 19.53 16.44C19.4716 16.4267 19.4103 16.4333 19.356 16.4586C19.3017 16.484 19.2574 16.5267 19.23 16.58C19.0802 16.59 18.9298 16.59 18.78 16.58C18.5721 16.5506 18.3698 16.4899 18.18 16.4C17.7719 16.1673 17.4415 15.8194 17.23 15.4C17.09 15.14 17.03 14.85 17.37 14.66L17.71 14.5C17.9918 14.4249 18.2883 14.4249 18.57 14.5C18.8866 14.5878 19.1894 14.7191 19.47 14.89C19.5045 14.914 19.5435 14.9308 19.5846 14.9392C19.6257 14.9477 19.6682 14.9477 19.7093 14.9393C19.7504 14.9309 19.7895 14.9142 19.824 14.8903C19.8585 14.8663 19.8877 14.8356 19.91 14.8C19.9568 14.7307 19.9746 14.6459 19.9596 14.5637C19.9447 14.4815 19.8982 14.4084 19.83 14.36C19.6421 14.2142 19.445 14.0806 19.24 13.96C19.2849 13.9511 19.3275 13.9332 19.3653 13.9074C19.4031 13.8817 19.4353 13.8485 19.46 13.81C19.66 13.4567 19.86 13.0867 20.06 12.7C20.6724 13.3618 21.1845 14.1097 21.58 14.92C21.8799 15.5204 22.1437 16.1382 22.37 16.77C22.727 17.752 23.0275 18.7536 23.27 19.77C23.287 19.8543 23.3362 19.9287 23.4072 19.9772C23.4781 20.0258 23.5653 20.0447 23.65 20.03C23.6915 20.0217 23.7309 20.0052 23.7659 19.9815C23.801 19.9579 23.831 19.9275 23.8543 19.8921C23.8775 19.8568 23.8935 19.8172 23.9014 19.7757C23.9092 19.7341 23.9088 19.6914 23.9 19.65C23.8322 18.5662 23.6784 17.4895 23.44 16.43ZM13.44 14.43C13.401 14.4161 13.3664 14.3919 13.34 14.36L13.64 13.83C13.8429 13.5381 14.0777 13.2698 14.34 13.03C14.5139 12.8595 14.6975 12.6992 14.89 12.55C15.0737 12.4181 15.2677 12.301 15.47 12.2C15.4509 12.2518 15.4274 12.302 15.4 12.35L14.51 14.35C14.1698 14.4136 13.8257 14.4536 13.48 14.47L13.44 14.43ZM13.78 19.9C13.78 19.82 13.58 19.07 13.56 18.75C13.54 18.43 13.56 18.22 13.56 17.96C13.8543 18.2575 14.1683 18.5348 14.5 18.79C14.6438 18.8959 14.7941 18.9928 14.95 19.08C14.95 19.08 13.93 19.9 13.82 19.94L13.78 19.9ZM19 13.47C18.9728 13.5171 18.9585 13.5706 18.9585 13.625C18.9585 13.6794 18.9728 13.7329 19 13.78C18.898 13.7232 18.7909 13.6764 18.68 13.64C18.3576 13.5354 18.0159 13.5046 17.68 13.55L17.05 13.74C16.8809 13.8 16.7255 13.8934 16.5932 14.0147C16.4609 14.1359 16.3542 14.2824 16.2796 14.4457C16.205 14.6089 16.1639 14.7854 16.1588 14.9648C16.1537 15.1442 16.1848 15.3228 16.25 15.49C16.3618 15.823 16.5463 16.127 16.79 16.38C16.9069 16.4977 17.0341 16.6048 17.17 16.7C17.05 16.87 16.95 17.05 16.82 17.21C16.5857 17.5111 16.3096 17.7771 16 18C15.92 18.06 15.6 18.27 15.65 18.27C15.3575 18.212 15.0724 18.1214 14.8 18C14.47 17.83 14.16 17.64 13.8 17.46C14.02 17.02 14.22 16.63 14.4 16.29C15 15.16 15.46 14.41 16.27 12.85C16.71 11.96 17.1 10.95 17.6 10.03C17.8862 9.45605 18.2684 8.93522 18.73 8.49C18.8317 8.38412 18.9666 8.3164 19.1123 8.29819C19.2579 8.27999 19.4054 8.3124 19.53 8.39C19.6883 8.47263 19.8255 8.59039 19.9313 8.73426C20.037 8.87812 20.1084 9.04428 20.14 9.22C20.2158 9.79616 20.1716 10.3818 20.01 10.94C20 11.17 19.19 13.06 19 13.47Z" fill="black"/>
<path d="M16 20.78C14.7664 21.4823 13.4751 22.0778 12.14 22.56C11.3082 22.8772 10.4045 22.9569 9.53 22.79C9.14017 22.6551 8.79445 22.4166 8.53 22.1C8.08253 21.5701 7.6936 20.9934 7.37 20.38C6.83 19.46 6.37 18.53 5.9 17.58C5.21 16.14 4.6 14.68 3.96 13.2C3.62 12.45 3.34 11.69 3.07 10.93C2.63 9.78001 2.26 8.60001 1.86 7.42001C1.78 7.19001 1.32 6.42001 1.1 5.97001C1.43722 5.95071 1.77196 5.9005 2.1 5.82001C3.80139 5.3814 5.47173 4.83018 7.1 4.17001C8.93876 3.48016 10.7237 2.65455 12.44 1.70001C12.6026 1.59703 12.7506 1.47257 12.88 1.33001C13.1454 1.71739 13.3795 2.12536 13.58 2.55001C14.09 3.69001 14.67 5.55001 15.24 7.03001C15.41 7.44001 15.58 7.82001 15.74 8.14001C15.7582 8.17828 15.7838 8.21256 15.8153 8.24086C15.8468 8.26915 15.8837 8.29091 15.9237 8.30487C15.9637 8.31882 16.006 8.32469 16.0483 8.32214C16.0906 8.31959 16.132 8.30867 16.17 8.29001C16.2455 8.25133 16.3031 8.18509 16.3311 8.10503C16.359 8.02497 16.355 7.93723 16.32 7.86001C16.1463 7.50904 15.9927 7.14845 15.86 6.78001C15.31 5.31001 14.78 3.40001 14.28 2.24001C13.9604 1.57067 13.5273 0.96169 13 0.44001C12.927 0.397881 12.8443 0.375702 12.76 0.375702C12.6757 0.375702 12.593 0.397881 12.52 0.44001C12.26 0.61001 12.44 0.73001 11.9 1.05001C9.83985 2.08566 7.70764 2.97129 5.52 3.70001C4.24936 4.16374 2.94996 4.54454 1.63 4.84001C0.550002 5.00001 0.760002 4.72001 0.330002 4.93001C0.227004 4.98442 0.141419 5.06675 0.0830543 5.16757C0.0246895 5.26838 -0.00409401 5.38359 2.03738e-06 5.50001C0.208799 6.28115 0.490017 7.04111 0.840002 7.77001C1.24 9.00001 1.61 10.14 2 11.3C2.29 12.08 2.59 12.86 2.94 13.64C3.62 15.11 4.26 16.57 4.94 18C5.43 19 5.94 19.9 6.54 20.83C6.91041 21.4873 7.35316 22.1011 7.86 22.66C8.23567 23.0715 8.72158 23.3666 9.26 23.51C10.2691 23.6943 11.3099 23.5867 12.26 23.2C13.6103 22.6604 14.9174 22.0186 16.17 21.28C16.2349 21.2442 16.283 21.184 16.3036 21.1128C16.3242 21.0415 16.3157 20.965 16.28 20.9C16.2499 20.8551 16.2074 20.8199 16.1577 20.7986C16.1081 20.7773 16.0533 20.7708 16 20.78Z" fill="black"/>
<path d="M7.64 7.79C8.16235 7.70326 8.69054 7.65646 9.22 7.65C9.81879 7.63868 10.415 7.56834 11 7.44C11.8237 7.26775 12.5622 6.81543 13.09 6.16C13.1492 6.1001 13.1825 6.01925 13.1825 5.935C13.1825 5.85076 13.1492 5.76991 13.09 5.71C13.061 5.67944 13.0261 5.6551 12.9875 5.63846C12.9488 5.62183 12.9071 5.61325 12.865 5.61325C12.8229 5.61325 12.7812 5.62183 12.7425 5.63846C12.7039 5.6551 12.669 5.67944 12.64 5.71C12.2816 6.06461 11.837 6.31966 11.35 6.45C10.748 6.57078 10.1326 6.61113 9.52 6.57C8.82886 6.55581 8.13821 6.61616 7.46 6.75C6.93306 6.88785 6.43744 7.12548 6 7.45C5.43119 7.89715 4.9469 8.4424 4.57 9.06C4.54669 9.1175 4.54243 9.18096 4.55785 9.24105C4.57328 9.30115 4.60756 9.35471 4.65568 9.39388C4.7038 9.43304 4.76321 9.45575 4.82519 9.45865C4.88716 9.46155 4.94843 9.4445 5 9.41C5.35917 8.995 5.77689 8.63455 6.24 8.34C6.66099 8.0568 7.13882 7.86908 7.64 7.79Z" fill="black"/>
<path d="M13.8 10C13.8592 9.94009 13.8925 9.85924 13.8925 9.775C13.8925 9.69075 13.8592 9.6099 13.8 9.55C13.771 9.51944 13.7361 9.49509 13.6975 9.47846C13.6588 9.46183 13.6171 9.45325 13.575 9.45325C13.5329 9.45325 13.4912 9.46183 13.4525 9.47846C13.4139 9.49509 13.379 9.51944 13.35 9.55C12.9448 9.82149 12.4891 10.0085 12.01 10.1C11.26 10.27 10.47 10.29 9.67 10.4C9.21593 10.4864 8.77311 10.6239 8.35 10.81C8.06481 10.9389 7.79342 11.0964 7.54 11.28C6.91233 11.6985 6.38616 12.252 6 12.9C5.96105 12.9629 5.94763 13.0384 5.9625 13.1109C5.97738 13.1834 6.01941 13.2475 6.08 13.29C6.11113 13.3122 6.14647 13.3277 6.18384 13.3357C6.22121 13.3437 6.25982 13.3439 6.29729 13.3365C6.33476 13.329 6.3703 13.3139 6.40173 13.2921C6.43315 13.2704 6.45979 13.2424 6.48 13.21C6.81372 12.8082 7.21676 12.4695 7.67 12.21C8.01397 12.0188 8.37566 11.8614 8.75 11.74C9.12086 11.6031 9.50207 11.4961 9.89 11.42C10.69 11.23 11.5 11.13 12.26 10.87C12.83 10.6943 13.3553 10.3975 13.8 10Z" fill="black"/>
<path d="M9.90001 14.84C9.6961 14.9009 9.49853 14.9813 9.31001 15.08C9.12526 15.1709 8.95091 15.2815 8.79001 15.41C8.42122 15.7244 8.08609 16.0763 7.79001 16.46C7.73865 16.5139 7.71001 16.5855 7.71001 16.66C7.71001 16.7345 7.73865 16.8061 7.79001 16.86C7.81608 16.8866 7.84719 16.9078 7.88154 16.9222C7.91588 16.9366 7.95276 16.944 7.99001 16.944C8.02726 16.944 8.06413 16.9366 8.09848 16.9222C8.13282 16.9078 8.16394 16.8866 8.19001 16.86C8.6206 16.6062 9.06458 16.3759 9.52001 16.17C9.73001 16.07 9.93001 15.95 10.14 15.84C10.35 15.73 10.55 15.6 10.77 15.5C10.9862 15.4041 11.2104 15.3271 11.44 15.27C11.4821 15.2662 11.523 15.2542 11.5604 15.2345C11.5978 15.2149 11.631 15.188 11.6579 15.1554C11.6849 15.1229 11.7052 15.0853 11.7175 15.0449C11.7299 15.0045 11.7341 14.9621 11.73 14.92C11.7276 14.8774 11.7165 14.8358 11.6972 14.7977C11.678 14.7596 11.6511 14.7259 11.6183 14.6986C11.5854 14.6714 11.5473 14.6513 11.5063 14.6395C11.4653 14.6277 11.4223 14.6244 11.38 14.63C10.8782 14.6131 10.3773 14.6841 9.90001 14.84Z" fill="black"/>
</g>
<defs>
<clipPath id="clip0_1048_7419">
<rect width="24" height="24" fill="white"/>
</clipPath>
</defs>
</svg>
