<svg width="24" height="24" viewBox="0 0 24 24" fill="none" xmlns="http://www.w3.org/2000/svg">
<g clip-path="url(#clip0_1030_1927)">
<path d="M23.42 13.34V12.61C23.3994 12.4671 23.3555 12.3286 23.29 12.2C23.2323 12.1078 23.1565 12.0283 23.0671 11.9664C22.9777 11.9045 22.8766 11.8615 22.77 11.84C22.4544 11.803 22.1356 11.803 21.82 11.84C21.7298 11.84 21.6433 11.8758 21.5796 11.9396C21.5158 12.0033 21.48 12.0898 21.48 12.18C21.48 12.2702 21.5158 12.3567 21.5796 12.4204C21.6433 12.4842 21.7298 12.52 21.82 12.52H22.4C22.51 12.52 22.62 12.52 22.66 12.58V13.39C22.7165 15.3118 22.5825 17.2346 22.26 19.13C22.1438 20.3273 21.7352 21.4777 21.07 22.48C20.8118 22.6325 20.5197 22.7184 20.22 22.73C19.319 22.8565 18.4097 22.9133 17.5 22.9C15.9304 22.9293 14.3619 22.7952 12.82 22.5C12.6606 22.4521 12.5091 22.3814 12.37 22.29C12.66 21.38 13.37 19.99 13.75 18.61C13.9446 17.9615 14.039 17.287 14.03 16.61C14.0128 15.4273 14.073 14.2448 14.21 13.07V12.91C15.9962 12.6098 17.8 12.426 19.61 12.36C20.15 12.36 20.42 12.36 20.4 12.12C20.38 11.88 20.4 11.72 20.16 11.73H19.58C18.33 11.73 15.58 11.87 14.38 12.05C14.1307 12.0771 13.8876 12.1447 13.66 12.25C13.432 12.5629 13.2969 12.9338 13.27 13.32C13.1266 14.4148 13.0398 15.5163 13.01 16.62C12.9894 17.1815 12.8883 17.7372 12.71 18.27C12.23 19.83 11.36 21.41 11.14 22.27C11.0977 22.4249 11.1048 22.5891 11.1604 22.7397C11.2159 22.8903 11.3172 23.0198 11.45 23.11C12.3616 23.5754 13.3667 23.8284 14.39 23.85C16.3139 24.0385 18.2529 24.0083 20.17 23.76C20.7517 23.712 21.3088 23.5044 21.78 23.16C22 22.93 22.78 21.83 23.14 19.22C23.4216 17.2735 23.5154 15.3044 23.42 13.34Z" fill="black"/>
<path d="M18.6 15.25C18.3903 15.235 18.1797 15.235 17.97 15.25C17.39 15.32 16.89 15.45 16.5 15.51C16.4204 15.51 16.3441 15.5416 16.2879 15.5978C16.2316 15.6541 16.2 15.7304 16.2 15.81C16.2 15.8895 16.2316 15.9658 16.2879 16.0221C16.3441 16.0784 16.4204 16.11 16.5 16.11C17.0582 16.2248 17.6224 16.3083 18.19 16.36C18.5229 16.3846 18.8571 16.3846 19.19 16.36C19.77 16.36 20.29 16.22 20.68 16.21C20.7639 16.205 20.8432 16.1701 20.9035 16.1115C20.9637 16.0529 21.0009 15.9746 21.0081 15.8909C21.0154 15.8072 20.9923 15.7236 20.9431 15.6555C20.8939 15.5874 20.8218 15.5393 20.74 15.52C20.242 15.4096 19.7377 15.3295 19.23 15.28C19 15.27 18.82 15.25 18.6 15.25Z" fill="black"/>
<path d="M18.32 19.13H17.18C15.49 19.37 15.67 19.24 15.59 19.3C15.51 19.36 15.34 19.51 15.47 19.73C15.6 19.95 15.6 19.9 16.12 20.02L17.18 20.22C17.5664 20.24 17.9536 20.24 18.34 20.22C18.9303 20.1604 19.5152 20.0568 20.09 19.91C20.1785 19.8999 20.2595 19.8555 20.3156 19.7863C20.3717 19.7171 20.3985 19.6287 20.39 19.54C20.3876 19.4948 20.3759 19.4506 20.3557 19.4101C20.3355 19.3695 20.3071 19.3336 20.2724 19.3046C20.2377 19.2755 20.1974 19.2539 20.154 19.241C20.1106 19.2282 20.065 19.2245 20.02 19.23C19.45 19.24 18.89 19.15 18.32 19.13Z" fill="black"/>
<path d="M9.1 20.74C7.58 20.74 6 20.66 4.69 20.57C3.92442 20.5297 3.16258 20.4361 2.41 20.29C2.26 20.29 2.04 20.29 2.08 20.19C2.0211 20.0336 1.9939 19.867 2 19.7C2 19.38 2 19.06 1.95 18.86C1.9 18.13 1.84 15.08 1.72 12.05C1.59 8.81999 1.39 5.59999 1.41 5.27999V4.99999C1.70371 4.78843 2.04932 4.66056 2.41 4.62999C2.73 4.62999 3.06 4.57999 3.41 4.56999C3.207 5.08673 3.1789 5.65576 3.33 6.18999C3.34382 6.31859 3.40252 6.43821 3.4958 6.52783C3.58907 6.61744 3.71094 6.67132 3.84 6.67999C3.84 6.67999 6.38 6.67999 8.71 6.67999C10.02 6.67999 11.27 6.67999 11.97 6.60999C12.0505 6.60483 12.1257 6.56853 12.1799 6.50879C12.234 6.44905 12.2628 6.37056 12.26 6.28999C12.2601 6.24369 12.2495 6.19799 12.2291 6.15647C12.2086 6.11495 12.1788 6.07872 12.142 6.05064C12.1052 6.02255 12.0624 6.00336 12.0169 5.99458C11.9715 5.98579 11.9246 5.98764 11.88 5.99999C11.33 5.99999 10.45 5.99999 9.48 5.92999C7.57 5.83999 5.29 5.66999 4.31 5.59999V5.29999C4.3474 5.13743 4.39415 4.97716 4.45 4.81999C4.49174 4.6948 4.55245 4.57676 4.63 4.46999C4.78063 4.26694 4.98015 4.10527 5.21 3.99999C5.6618 3.80265 6.13496 3.65836 6.62 3.56999L6.91 3.50999C6.98501 3.49453 7.05622 3.46437 7.11951 3.42125C7.18281 3.37813 7.23694 3.3229 7.27877 3.25875C7.32061 3.1946 7.34933 3.1228 7.36327 3.04749C7.37721 2.97219 7.3761 2.89486 7.36 2.81999L7.24 2.15999C7.23802 2.03363 7.26491 1.9085 7.31864 1.79412C7.37236 1.67974 7.45149 1.57914 7.55 1.49999C7.81402 1.28897 8.12131 1.13874 8.45 1.05999C8.60691 1.01551 8.77309 1.01551 8.93 1.05999C9.10542 1.11747 9.26593 1.21309 9.4 1.33999C9.57876 1.52243 9.70339 1.75091 9.76 1.99999C9.8069 2.29422 9.82699 2.59211 9.82 2.88999C9.819 2.99699 9.85703 3.1007 9.92698 3.18169C9.99692 3.26268 10.094 3.3154 10.2 3.32999C10.5382 3.35842 10.8731 3.41869 11.2 3.50999C11.5144 3.59957 11.8142 3.73431 12.09 3.90999C12.2987 4.04953 12.451 4.25861 12.52 4.49999C12.6033 4.7892 12.6437 5.08905 12.64 5.38999C12.6314 5.44021 12.6339 5.4917 12.6473 5.54086C12.6607 5.59003 12.6846 5.63568 12.7175 5.67462C12.7503 5.71356 12.7913 5.74487 12.8375 5.76634C12.8837 5.78781 12.934 5.79894 12.985 5.79894C13.0359 5.79894 13.0863 5.78781 13.1325 5.76634C13.1787 5.74487 13.2197 5.71356 13.2525 5.67462C13.2854 5.63568 13.3093 5.59003 13.3227 5.54086C13.3361 5.4917 13.3386 5.44021 13.33 5.38999C13.3519 4.94188 13.2873 4.49374 13.14 4.06999C13.0217 3.74257 12.8052 3.45968 12.52 3.25999C12.1923 3.03611 11.8357 2.85781 11.46 2.72999C11.2191 2.64353 10.9716 2.57665 10.72 2.52999C10.7368 2.19353 10.7031 1.85645 10.62 1.52999C10.5242 1.21701 10.3641 0.927498 10.15 0.679986C9.9218 0.407057 9.62493 0.199938 9.29 0.079986C8.93999 -0.0578995 8.55627 -0.0858066 8.19 -1.4022e-05C7.58495 0.124535 7.03112 0.427574 6.6 0.869986C6.28046 1.22392 6.10246 1.68315 6.1 2.15999L6.15 2.49999C5.64619 2.61161 5.15647 2.77933 4.69 2.99999C4.28903 3.19706 3.94487 3.49303 3.69 3.85999C3.68819 3.88662 3.68819 3.91335 3.69 3.93999C3.12596 3.91866 2.56111 3.93872 2 3.99999C1.64038 4.05481 1.29822 4.19168 0.999998 4.39999C0.893971 4.47361 0.813566 4.57848 0.769998 4.69999C0.692417 4.85879 0.635295 5.0268 0.599998 5.19999C0.599998 5.51999 0.509998 8.78999 0.599998 12.09C0.659998 15.14 0.829998 18.2 0.889998 18.94C0.885702 19.3758 0.922532 19.8111 0.999998 20.24C1.05623 20.5001 1.18444 20.7392 1.37 20.93C1.9029 21.2228 2.50194 21.3743 3.11 21.37C4.57 21.48 6.89 21.49 9.11 21.42C9.19843 21.4174 9.28236 21.3804 9.34398 21.3169C9.40559 21.2535 9.44003 21.1685 9.44 21.08C9.44138 21.035 9.43354 20.9901 9.41694 20.9483C9.40034 20.9064 9.37535 20.8683 9.3435 20.8365C9.31165 20.8046 9.27361 20.7796 9.23173 20.763C9.18985 20.7464 9.14502 20.7386 9.1 20.74Z" fill="black"/>
<path d="M14.24 4.21001C14.4474 4.26118 14.6439 4.34925 14.82 4.47001C15.34 4.82001 15.15 4.89001 15.15 5.16001V6.16001V7.22001C15.15 8.01001 15.3 8.90001 15.37 9.88001C15.37 9.91941 15.3778 9.95842 15.3929 9.99481C15.4079 10.0312 15.43 10.0643 15.4579 10.0921C15.4857 10.12 15.5188 10.1421 15.5552 10.1572C15.5916 10.1722 15.6306 10.18 15.67 10.18C15.7094 10.18 15.7484 10.1722 15.7848 10.1572C15.8212 10.1421 15.8543 10.12 15.8822 10.0921C15.91 10.0643 15.9321 10.0312 15.9472 9.99481C15.9623 9.95842 15.97 9.91941 15.97 9.88001C16.08 9.08001 16.19 8.33001 16.25 7.64001V6.64001C16.2582 6.09191 16.2281 5.54392 16.16 5.00001C16.1641 4.76036 16.1092 4.52339 16 4.31001C15.7917 4.08696 15.5443 3.90394 15.27 3.77001C15.0003 3.64016 14.7086 3.56214 14.41 3.54001C14.3653 3.5314 14.3193 3.53186 14.2748 3.54136C14.2302 3.55087 14.1881 3.56922 14.1508 3.59534C14.1134 3.62145 14.0818 3.6548 14.0576 3.69339C14.0334 3.73199 14.0172 3.77504 14.01 3.82001C13.9959 3.90173 14.0113 3.98578 14.0535 4.05721C14.0956 4.12863 14.1617 4.18278 14.24 4.21001Z" fill="black"/>
</g>
<defs>
<clipPath id="clip0_1030_1927">
<rect width="24" height="24" fill="white"/>
</clipPath>
</defs>
</svg>
