<svg width="24" height="24" viewBox="0 0 24 24" fill="none" xmlns="http://www.w3.org/2000/svg">
<g clip-path="url(#clip0_1050_8124)">
<path fill-rule="evenodd" clip-rule="evenodd" d="M16.19 5.36001C15.14 5.05001 14.02 4.72001 12.89 4.42001C9.23 3.42001 5.53 2.67001 4.52 2.42001C4.23 2.39001 4.39 2.22001 2.85 5.00001C2.65759 5.32307 2.48397 5.65695 2.33 6.00001C2.16275 6.35344 2.0191 6.71757 1.9 7.09001C1.61 7.95001 1.41 8.82001 1.2 9.69001C1.17121 9.78154 1.1791 9.88068 1.22202 9.9665C1.26493 10.0523 1.3395 10.1181 1.43 10.15C1.47396 10.1657 1.52061 10.1724 1.56721 10.1698C1.61381 10.1672 1.65942 10.1553 1.70135 10.1348C1.74327 10.1143 1.78068 10.0856 1.81136 10.0504C1.84204 10.0153 1.86538 9.97433 1.88 9.93001C2.27 9.14001 2.7 8.39001 3.1 7.60001C3.27 7.26001 3.42 6.93001 3.58 6.60001C3.74 6.27001 3.87 5.92001 4 5.60001C4.3 4.85001 4.59 4.11001 4.9 3.37001C6.33 3.82001 9.4 4.85001 12.52 5.78001C13.64 6.11001 14.77 6.42001 15.82 6.70001C18.19 7.33001 20.16 7.79001 20.82 7.98001L23 8.66001C22.8535 8.81572 22.7198 8.98292 22.6 9.16001C22.5507 9.26072 22.5073 9.36423 22.47 9.47001C22.4316 9.57684 22.4048 9.68747 22.39 9.80001C22.23 10.96 22.39 11.07 22.59 11.14C22.79 11.21 22.94 11.36 23.59 10.23C23.657 10.1343 23.7108 10.0301 23.75 9.92001C23.7908 9.81046 23.8176 9.69623 23.83 9.58001C23.9 8.88001 23.69 9.27001 23.97 8.58001C23.9893 8.53079 23.9987 8.47823 23.9976 8.42536C23.9965 8.3725 23.9849 8.32038 23.9635 8.27202C23.9421 8.22367 23.9113 8.18003 23.873 8.14364C23.8346 8.10725 23.7894 8.07882 23.74 8.06001L21.11 7.00001C20.49 6.76001 18.56 6.09001 16.19 5.36001Z" fill="black"/>
<path fill-rule="evenodd" clip-rule="evenodd" d="M1.81001 5.12001C2.00001 4.56001 2.14001 4.00001 2.28001 3.41001C2.47001 2.58001 2.63001 1.75001 2.84001 0.930015H2.89001L14.12 3.00001C15.43 3.21001 16.76 3.41001 18.06 3.66001C18.83 3.81001 19.59 3.99001 20.34 4.19001C20.2653 4.29845 20.1985 4.41207 20.14 4.53001C20.1105 4.62105 20.0904 4.71488 20.08 4.81001C20.0649 4.90945 20.0649 5.01058 20.08 5.11001C20.16 6.19001 20.35 6.26001 20.55 6.29001C20.75 6.32001 20.94 6.29001 21.35 5.29001C21.3838 5.19618 21.4073 5.09894 21.42 5.00001C21.4351 4.90058 21.4351 4.79945 21.42 4.70001C21.3798 4.46101 21.3162 4.22654 21.23 4.00001C21.2304 3.90088 21.1949 3.80497 21.13 3.73001C21.1071 3.68008 21.0738 3.63555 21.0325 3.59936C20.9911 3.56317 20.9426 3.53613 20.89 3.52001C20.04 3.21001 19.17 2.95001 18.29 2.71001C17 2.35001 15.68 2.06001 14.37 1.71001C12.86 1.41001 11.37 1.10001 9.84001 0.880015C2.37001 -0.179985 2.16001 0.380015 2.10001 0.540015C1.73001 1.34001 1.37001 2.14001 1.10001 2.97001C0.93001 3.32001 0.81001 3.68001 0.71001 4.00001C0.598614 4.37125 0.508468 4.74852 0.44001 5.13001C0.26001 6.00001 0.17001 6.84001 1.04159e-05 7.71001C-0.024999 7.80016 -0.0139323 7.89651 0.0308662 7.97864C0.0756648 8.06077 0.150676 8.12223 0.24001 8.15001C0.285938 8.16543 0.334504 8.17141 0.3828 8.16761C0.431095 8.16381 0.478127 8.1503 0.521078 8.12789C0.564029 8.10548 0.602014 8.07464 0.63276 8.0372C0.663506 7.99976 0.68638 7.9565 0.70001 7.91001C1.09001 7.00001 1.50001 6.08001 1.81001 5.12001Z" fill="black"/>
<path fill-rule="evenodd" clip-rule="evenodd" d="M12.12 13.23C12.361 13.0635 12.5597 12.8429 12.7004 12.586C12.841 12.329 12.9196 12.0427 12.93 11.75C12.9336 11.4295 12.8317 11.1168 12.64 10.86C12.4313 10.6098 12.1647 10.4143 11.8632 10.2906C11.5618 10.1669 11.2347 10.1188 10.9104 10.1503C10.5861 10.1819 10.2744 10.2922 10.0025 10.4716C9.73055 10.6511 9.50656 10.8942 9.35001 11.18C9.23562 11.4052 9.17255 11.653 9.16534 11.9055C9.15813 12.158 9.20696 12.409 9.30831 12.6404C9.40967 12.8718 9.56103 13.0779 9.75152 13.2438C9.94201 13.4097 10.1669 13.5314 10.41 13.6C10.7041 13.6766 11.0121 13.683 11.3091 13.6187C11.6061 13.5544 11.8839 13.4213 12.12 13.23ZM10.48 11.41C10.5543 11.3116 10.6487 11.2302 10.7569 11.171C10.865 11.1119 10.9845 11.0764 11.1075 11.067C11.2304 11.0575 11.3539 11.0743 11.4699 11.1162C11.5858 11.1581 11.6915 11.2242 11.78 11.31C11.8539 11.4257 11.8791 11.5659 11.85 11.7C11.85 11.91 11.6 12.05 11.39 12.17C11.313 12.2298 11.2241 12.2724 11.1292 12.2948C11.0343 12.3173 10.9356 12.319 10.84 12.3C10.7445 12.2849 10.6546 12.2454 10.5789 12.1853C10.5033 12.1251 10.4445 12.0464 10.4082 11.9568C10.372 11.8672 10.3596 11.7698 10.3721 11.674C10.3847 11.5781 10.4219 11.4872 10.48 11.41Z" fill="black"/>
<path fill-rule="evenodd" clip-rule="evenodd" d="M11.61 16.43C11.4955 16.6546 11.432 16.9017 11.4242 17.1537C11.4164 17.4056 11.4643 17.6562 11.5647 17.8875C11.665 18.1187 11.8152 18.325 12.0046 18.4914C12.194 18.6578 12.4178 18.7802 12.66 18.85C12.9559 18.9236 13.2648 18.9284 13.5629 18.8643C13.861 18.8002 14.1405 18.6687 14.38 18.48C14.6199 18.3124 14.8178 18.0916 14.9583 17.8349C15.0988 17.5781 15.1781 17.2924 15.19 17C15.186 16.6839 15.0847 16.3766 14.9 16.12C14.6921 15.8694 14.4261 15.6733 14.1251 15.5488C13.8241 15.4243 13.4973 15.3752 13.1731 15.4058C12.8489 15.4363 12.537 15.5456 12.2646 15.7241C11.9922 15.9026 11.7675 16.1449 11.61 16.43ZM13.61 17.43C13.5315 17.4907 13.4408 17.5337 13.3442 17.5561C13.2475 17.5786 13.1472 17.5799 13.05 17.56C12.9554 17.5435 12.8666 17.503 12.7922 17.4422C12.7178 17.3815 12.6602 17.3027 12.6251 17.2133C12.5899 17.1239 12.5784 17.027 12.5915 16.9319C12.6046 16.8367 12.642 16.7466 12.7 16.67C12.7741 16.571 12.8686 16.489 12.9773 16.4298C13.0859 16.3707 13.206 16.3356 13.3294 16.3271C13.4528 16.3185 13.5766 16.3367 13.6923 16.3803C13.808 16.424 13.913 16.4921 14 16.58C14.0374 16.6351 14.0629 16.6973 14.0749 16.7627C14.087 16.8281 14.0853 16.8953 14.07 16.96C14.08 17.16 13.86 17.3 13.65 17.42L13.61 17.43Z" fill="black"/>
<path fill-rule="evenodd" clip-rule="evenodd" d="M8.53002 16C8.54657 16.0438 8.57172 16.0837 8.60397 16.1176C8.63622 16.1514 8.67493 16.1785 8.71781 16.1971C8.76069 16.2158 8.80687 16.2256 8.85362 16.2261C8.90037 16.2266 8.94675 16.2177 8.99002 16.2C9.99002 15.91 10.99 15.66 11.99 15.29C12.63 15.04 13.24 14.71 13.86 14.43C14.3 14.2 14.72 13.95 15.17 13.73C15.4489 13.5806 15.7361 13.4471 16.03 13.33C16.1321 13.2995 16.2179 13.2297 16.2686 13.1359C16.3192 13.0422 16.3305 12.9321 16.3 12.83C16.2695 12.7279 16.1997 12.6421 16.1059 12.5915C16.0122 12.5408 15.9021 12.5295 15.8 12.56L13.38 13.28C12.74 13.53 12.08 13.75 11.46 14.05C10.52 14.5 9.66002 15.05 8.74002 15.54C8.6954 15.5556 8.6544 15.58 8.61947 15.6118C8.58454 15.6436 8.55642 15.6822 8.5368 15.7252C8.51717 15.7682 8.50646 15.8147 8.50529 15.8619C8.50413 15.9091 8.51254 15.9561 8.53002 16Z" fill="black"/>
<path fill-rule="evenodd" clip-rule="evenodd" d="M23.81 13C21.87 11.93 19.93 10.86 17.95 9.88002C17.09 9.46002 16.23 9.06002 15.35 8.68002C14.47 8.30002 13.6 7.94002 12.7 7.62002C10.96 6.99002 5.7 5.33002 5.46 5.62002C4.78 6.72002 4.11 7.75002 3.53 8.83002C3.28 9.30002 3.04 9.78002 2.83 10.26C2.62 10.74 2.41 11.26 2.23 11.73C1.79 12.88 1.43 14.05 1.04 15.24C1.0203 15.2893 1.01049 15.3419 1.01114 15.3949C1.01179 15.448 1.02287 15.5004 1.04376 15.5491C1.06466 15.5979 1.09495 15.642 1.13291 15.6791C1.17087 15.7161 1.21575 15.7453 1.265 15.765C1.31424 15.7847 1.36688 15.7945 1.41992 15.7939C1.47296 15.7932 1.52534 15.7821 1.57409 15.7613C1.62285 15.7404 1.667 15.7101 1.70405 15.6721C1.74109 15.6342 1.7703 15.5893 1.79 15.54C2.32 14.42 2.88 13.33 3.4 12.24C3.63 11.77 3.86 11.3 4.08 10.82L4.71 9.39002C5.13 8.39002 5.53 7.33002 5.97 6.29002C6.00593 6.33463 6.05006 6.37197 6.1 6.40002C7.89 7.01002 9.63 7.72002 11.36 8.40002L13.29 9.24002L16.19 10.48C18.5 11.48 20.8 12.48 23.09 13.48C22.69 14.48 22.21 15.41 21.76 16.37C21.45 17.05 21.15 17.73 20.87 18.42C20.41 19.58 20.01 20.76 19.58 21.95C19.54 22.0496 19.5407 22.1608 19.5818 22.2599C19.6229 22.359 19.7013 22.438 19.8 22.48C19.8485 22.5015 19.9008 22.513 19.9539 22.5141C20.0069 22.5151 20.0596 22.5055 20.109 22.486C20.1583 22.4665 20.2032 22.4373 20.2412 22.4002C20.2791 22.3631 20.3093 22.3189 20.33 22.27C20.86 21.27 21.42 20.27 21.93 19.27C22.2731 18.5968 22.5802 17.9058 22.85 17.2C22.88 17.22 24.26 13.22 23.81 13Z" fill="black"/>
<path fill-rule="evenodd" clip-rule="evenodd" d="M17.94 23C15.94 22.14 13.94 21.17 11.94 20.24C10.6 19.62 9.27 18.99 7.94 18.41C5.67 17.41 3.37 16.59 1.04 15.76C0.996198 15.7407 0.948897 15.7305 0.901022 15.7302C0.853147 15.7299 0.805716 15.7394 0.761663 15.7582C0.71761 15.7769 0.677871 15.8045 0.644904 15.8392C0.611937 15.8739 0.586443 15.915 0.569999 15.96C0.536343 16.0464 0.537313 16.1424 0.572707 16.2281C0.608101 16.3138 0.67519 16.3826 0.759999 16.42C2.76 17.35 4.76 18.37 6.76 19.32C8.09 19.96 9.43 20.57 10.76 21.15C13.03 22.15 15.34 22.96 17.68 23.76C17.7313 23.7875 17.7879 23.8037 17.846 23.8075C17.9041 23.8114 17.9623 23.8029 18.0168 23.7825C18.0714 23.7621 18.1209 23.7304 18.1622 23.6894C18.2035 23.6483 18.2356 23.599 18.2564 23.5446C18.2771 23.4902 18.2861 23.4321 18.2826 23.3739C18.2791 23.3158 18.2633 23.2591 18.2362 23.2076C18.2091 23.1561 18.1714 23.1109 18.1255 23.0751C18.0796 23.0394 18.0266 23.0137 17.97 23H17.94Z" fill="black"/>
</g>
<defs>
<clipPath id="clip0_1050_8124">
<rect width="24" height="24" fill="white"/>
</clipPath>
</defs>
</svg>
