<svg width="24" height="24" viewBox="0 0 24 24" fill="none" xmlns="http://www.w3.org/2000/svg">
<g clip-path="url(#clip0_1049_7584)">
<path fill-rule="evenodd" clip-rule="evenodd" d="M15.23 8.99999C15.2041 9.08181 15.1841 9.16535 15.17 9.24999V9.85999C15.1538 9.8973 15.1455 9.93749 15.1453 9.97814C15.1452 10.0188 15.1533 10.059 15.1692 10.0964C15.1851 10.1338 15.2085 10.1676 15.2378 10.1957C15.2672 10.2239 15.3019 10.2457 15.34 10.26C15.3773 10.2761 15.4175 10.2845 15.4581 10.2846C15.4988 10.2848 15.539 10.2766 15.5764 10.2607C15.6138 10.2448 15.6476 10.2215 15.6757 10.1922C15.7038 10.1628 15.7257 10.128 15.74 10.09C15.881 9.92868 16.0112 9.75832 16.13 9.57999C16.1798 9.50886 16.2201 9.43154 16.25 9.34999C16.2794 9.26578 16.2995 9.17859 16.31 9.08999C16.315 9.05015 16.315 9.00983 16.31 8.96999C16.6742 9.0297 17.0457 9.0297 17.41 8.96999C17.7674 8.9459 18.1056 8.79956 18.3678 8.55555C18.63 8.31154 18.8003 7.98472 18.85 7.62999C18.8831 7.42019 18.864 7.20545 18.7942 7.00483C18.7244 6.80421 18.6062 6.62393 18.45 6.47999C17.9603 6.11006 17.398 5.84767 16.8 5.70999C16.5911 5.64545 16.3899 5.55826 16.2 5.44999C16.1415 5.41926 16.0911 5.37517 16.0529 5.3213C16.0147 5.26744 15.9897 5.20532 15.98 5.13999C15.92 4.63999 16.29 4.42999 16.74 4.38999C17.3107 4.3685 17.8769 4.49968 18.38 4.76999C18.4094 4.79077 18.4426 4.80546 18.4778 4.81319C18.513 4.82093 18.5493 4.82155 18.5847 4.81503C18.6201 4.80851 18.6539 4.79497 18.684 4.77521C18.7141 4.75546 18.7399 4.72988 18.76 4.69999C18.7984 4.6386 18.8115 4.56472 18.7966 4.49387C18.7816 4.42302 18.7399 4.3607 18.68 4.31999C18.4214 4.14066 18.1386 3.99923 17.84 3.89999C17.8696 3.86917 17.8964 3.8357 17.92 3.79999C17.9534 3.71553 17.9801 3.6286 18 3.53999C18.0057 3.46009 18.0057 3.37989 18 3.29999V2.68999C18.0161 2.65269 18.0245 2.61249 18.0246 2.57185C18.0248 2.5312 18.0166 2.49095 18.0007 2.45354C17.9848 2.41614 17.9615 2.38235 17.9321 2.35424C17.9028 2.32612 17.868 2.30426 17.83 2.28999C17.7927 2.27385 17.7525 2.26547 17.7118 2.26534C17.6712 2.26521 17.6309 2.27334 17.5935 2.28924C17.5561 2.30513 17.5223 2.32847 17.4942 2.35782C17.4661 2.38717 17.4443 2.42193 17.43 2.45999C17.2891 2.61784 17.1588 2.78488 17.04 2.95999C17.0194 3.03861 17.006 3.11894 17 3.19999C16.9717 3.28112 16.9516 3.36487 16.94 3.44999C16.935 3.52324 16.935 3.59674 16.94 3.66999C16.7013 3.63482 16.4587 3.63482 16.22 3.66999C16.0391 3.68733 15.8636 3.74073 15.7037 3.82704C15.5438 3.91335 15.4029 4.03081 15.2892 4.1725C15.1754 4.31418 15.0913 4.47722 15.0416 4.65198C14.9919 4.82673 14.9778 5.00967 15 5.18999C15.0099 5.38856 15.0657 5.58213 15.1628 5.7556C15.26 5.92907 15.3959 6.07773 15.56 6.18999C16.0585 6.49602 16.5969 6.73158 17.16 6.88999C17.49 7.00999 17.83 7.09999 17.8 7.46999C17.77 7.83999 17.33 8.03999 16.87 8.07999C16.3264 8.13739 15.7778 8.0367 15.29 7.78999C15.1783 7.71353 15.0803 7.61888 15 7.50999C14.873 7.35362 14.7655 7.18236 14.68 6.99999C14.6471 6.92667 14.5869 6.869 14.5123 6.83915C14.4377 6.8093 14.3544 6.8096 14.28 6.83999C14.2424 6.85628 14.2085 6.87983 14.1801 6.9093C14.1517 6.93876 14.1295 6.97356 14.1146 7.01167C14.0997 7.04979 14.0925 7.09047 14.0935 7.13137C14.0944 7.17227 14.1034 7.21259 14.12 7.24999C14.2095 7.50406 14.3304 7.74594 14.48 7.96999C14.5949 8.13638 14.7409 8.27899 14.91 8.38999C15.0537 8.4926 15.2079 8.57975 15.37 8.64999V8.69999C15.3059 8.79092 15.2585 8.8925 15.23 8.99999Z" fill="black"/>
<path fill-rule="evenodd" clip-rule="evenodd" d="M22.68 3.44C21.9632 2.17794 20.8382 1.19749 19.49 0.659998C18.1796 0.0622833 16.7202 -0.12928 15.3 0.109998C14.1674 0.341497 13.1075 0.843426 12.2108 1.573C11.3141 2.30257 10.607 3.23816 10.15 4.3C9.68441 5.36896 9.55846 6.55515 9.78919 7.69805C10.0199 8.84094 10.5962 9.88537 11.44 10.69C11.7503 11.0055 12.0846 11.2963 12.44 11.56C12.7985 11.8316 13.1921 12.0536 13.61 12.22C14.0965 12.4066 14.6096 12.5147 15.13 12.54C15.8854 12.5809 16.6431 12.5407 17.39 12.42C17.4255 12.4163 17.46 12.4055 17.4913 12.3884C17.5227 12.3712 17.5503 12.348 17.5727 12.3201C17.595 12.2922 17.6116 12.2602 17.6214 12.2258C17.6312 12.1915 17.6342 12.1555 17.63 12.12C17.62 12.0493 17.5834 11.985 17.5276 11.9404C17.4719 11.8958 17.4012 11.8742 17.33 11.88C16.6189 11.9602 15.9011 11.9602 15.19 11.88C14.7327 11.8366 14.2845 11.7254 13.86 11.55C13.499 11.3959 13.1622 11.1905 12.86 10.94C12.5425 10.6902 12.2449 10.416 11.97 10.12C11.2765 9.40937 10.8153 8.50484 10.6475 7.52623C10.4796 6.54762 10.613 5.5411 11.03 4.64C11.4346 3.73327 12.0508 2.93678 12.8268 2.31736C13.6029 1.69793 14.5161 1.27361 15.49 1.08C16.7082 0.877291 17.9591 1.03365 19.09 1.53C20.2437 1.9616 21.2191 2.76801 21.86 3.82C22.2179 4.51443 22.4204 5.27849 22.4532 6.05906C22.486 6.83963 22.3484 7.61798 22.05 8.34C21.7726 9.08129 21.3306 9.74995 20.7572 10.2956C20.1838 10.8412 19.4941 11.2496 18.74 11.49C18.6618 11.5133 18.5954 11.5657 18.5545 11.6363C18.5136 11.707 18.5013 11.7905 18.52 11.87C18.5433 11.9504 18.5972 12.0184 18.6701 12.0596C18.743 12.1007 18.8291 12.1116 18.91 12.09C19.7694 11.8398 20.5611 11.3987 21.2261 10.7996C21.891 10.2004 22.412 9.45877 22.75 8.63C23.1121 7.81073 23.2933 6.92301 23.2812 6.02736C23.2691 5.13171 23.0641 4.2492 22.68 3.44Z" fill="black"/>
<path fill-rule="evenodd" clip-rule="evenodd" d="M3.29999 10.21C3.4118 10.477 3.53867 10.7374 3.67999 10.99C3.79265 11.1679 3.94714 11.3155 4.12999 11.42C4.20653 11.4564 4.29023 11.4753 4.37499 11.4753C4.45976 11.4753 4.54346 11.4564 4.61999 11.42C4.90797 11.2595 5.18223 11.0755 5.43999 10.87C5.77999 10.6 6.11999 10.3 6.43999 10C6.75999 9.7 7.06999 9.38 7.35999 9.07C7.38902 9.04118 7.41205 9.00691 7.42777 8.96915C7.4435 8.93139 7.45159 8.8909 7.45159 8.85C7.45159 8.8091 7.4435 8.7686 7.42777 8.73084C7.41205 8.69309 7.38902 8.65881 7.35999 8.63C7.33204 8.60127 7.29861 8.57844 7.26168 8.56285C7.22475 8.54725 7.18508 8.53922 7.14499 8.53922C7.10491 8.53922 7.06523 8.54725 7.0283 8.56285C6.99138 8.57844 6.95795 8.60127 6.92999 8.63C6.60999 8.9 6.27999 9.16 5.92999 9.41C5.57999 9.66 5.35999 9.8 5.06999 9.98C5.32559 9.29579 5.63663 8.63359 5.99999 8C6.30711 7.43514 6.66527 6.89958 7.06999 6.4C7.69134 5.55551 8.54152 4.9066 9.51999 4.53C9.55481 4.52197 9.5876 4.50684 9.61631 4.48557C9.64502 4.46431 9.66904 4.43735 9.68687 4.40638C9.7047 4.37542 9.71595 4.34111 9.71993 4.3056C9.72391 4.27009 9.72053 4.23414 9.70999 4.2C9.70313 4.16428 9.68886 4.13041 9.66809 4.10056C9.64732 4.0707 9.62052 4.04554 9.58942 4.02669C9.55832 4.00784 9.52361 3.99573 9.48754 3.99113C9.45146 3.98653 9.41483 3.98955 9.37999 4C8.18846 4.22306 7.10298 4.83079 6.28999 5.73C5.81824 6.26332 5.42741 6.86306 5.12999 7.51C4.76441 8.32227 4.49588 9.17483 4.32999 10.05C4.3106 9.95358 4.28041 9.85966 4.23999 9.77C3.96937 9.25856 3.73869 8.72698 3.54999 8.18C3.34919 7.62647 3.19205 7.05806 3.07999 6.48C3.07605 6.44454 3.06517 6.41021 3.04796 6.37896C3.03075 6.34771 3.00755 6.32015 2.9797 6.29786C2.95184 6.27558 2.91987 6.259 2.8856 6.24907C2.85133 6.23914 2.81545 6.23606 2.77999 6.24C2.74453 6.24394 2.7102 6.25482 2.67895 6.27203C2.6477 6.28924 2.62015 6.31243 2.59786 6.34029C2.57557 6.36815 2.55899 6.40012 2.54906 6.43439C2.53913 6.46865 2.53605 6.50454 2.53999 6.54C2.55709 7.29153 2.6543 8.03909 2.82999 8.77C2.95189 9.26066 3.10896 9.7419 3.29999 10.21Z" fill="black"/>
<path fill-rule="evenodd" clip-rule="evenodd" d="M16.63 16.24C16.6107 15.4841 16.5068 14.7327 16.32 14C16.2634 13.8832 16.1774 13.7831 16.0704 13.7095C15.9635 13.6358 15.8393 13.5912 15.71 13.58C15.11 13.48 13.57 13.41 13.4 13.39C12.59 13.3 11.79 13.24 10.98 13.18C10.17 13.12 9.35999 13.1 8.54999 13.08H5.63999C4.19999 13.16 2.75999 13.29 1.31999 13.41C1.23777 13.41 1.15892 13.4427 1.10078 13.5008C1.04265 13.5589 1.00999 13.6378 1.00999 13.72C1.00999 13.8022 1.04265 13.8811 1.10078 13.9392C1.15892 13.9973 1.23777 14.03 1.31999 14.03C2.75999 13.94 4.18999 13.83 5.62999 13.79H8.47999C9.42999 13.79 10.08 13.88 10.88 13.95C11.68 14.02 12.46 14.1 13.25 14.21C13.41 14.21 14.8 14.32 15.43 14.43C15.5352 14.9771 15.5887 15.5329 15.59 16.09C14.01 15.88 12.38 15.67 10.73 15.57C9.54755 15.505 8.36243 15.505 7.17999 15.57C5.2815 15.6638 3.39798 15.9554 1.55999 16.44V14.44C1.56003 14.3674 1.53191 14.2977 1.48154 14.2455C1.43118 14.1932 1.3625 14.1626 1.28999 14.16C1.21743 14.16 1.14768 14.1881 1.09545 14.2384C1.04322 14.2888 1.01258 14.3575 1.00999 14.43L0.819987 20.43C0.819987 20.8 0.659987 21.52 0.649987 22.11C0.633127 22.4183 0.687891 22.7264 0.809987 23.01C1.01524 23.2375 1.29582 23.3831 1.59999 23.42C3.3818 23.756 5.18747 23.9499 6.99999 24C9.53999 24.08 12.32 24.06 14.09 23.94C14.7707 23.936 15.4462 23.8212 16.09 23.6C16.2413 23.4778 16.3663 23.3261 16.4573 23.1543C16.5484 22.9824 16.6038 22.7938 16.62 22.6C16.6937 21.6014 16.6937 20.5986 16.62 19.6C16.59 18.52 16.67 17.36 16.63 16.24ZM15.5 22.5C15.4907 22.5586 15.4739 22.6157 15.45 22.67C15.066 22.7606 14.6742 22.8142 14.28 22.83C12.88 22.95 10.67 23.01 8.46999 23.01C6.30956 23.0543 4.14851 22.9608 1.99999 22.73C1.78999 22.73 1.61999 22.56 1.54999 22.59C1.50022 22.3772 1.48336 22.158 1.49999 21.94C1.49999 21.4 1.61999 20.82 1.61999 20.5V18.8C1.66272 18.8102 1.70725 18.8102 1.74999 18.8C2.64999 18.8 3.53999 18.74 4.42999 18.74H6.57999H8.67999C10.83 18.74 12.97 18.74 15.13 18.81C15.1707 18.8127 15.2116 18.8074 15.2502 18.7942C15.2889 18.7811 15.3246 18.7605 15.3552 18.7335C15.3859 18.7066 15.4109 18.6739 15.4289 18.6372C15.4469 18.6006 15.4574 18.5607 15.46 18.52C15.4641 18.4798 15.4601 18.4392 15.4481 18.4006C15.4361 18.362 15.4165 18.3262 15.3903 18.2953C15.3641 18.2645 15.332 18.2393 15.2959 18.2212C15.2598 18.2031 15.2203 18.1925 15.18 18.19C13.6 18.02 12.03 17.86 10.46 17.77C9.77999 17.77 9.09999 17.7 8.45999 17.7H6.45999C4.87999 17.78 3.30999 17.96 1.72999 18.18H1.65999V17C3.53614 16.7123 5.43192 16.5719 7.32999 16.58H10.8C12.46 16.58 14.11 16.67 15.71 16.77C15.71 17.72 15.64 18.67 15.63 19.51V21.34C15.6321 21.7304 15.5885 22.1197 15.5 22.5Z" fill="black"/>
<path fill-rule="evenodd" clip-rule="evenodd" d="M13.74 21C13.4781 20.8654 13.2075 20.7484 12.93 20.65C12.8073 20.6099 12.679 20.5896 12.55 20.59C12.4171 20.5748 12.2829 20.5748 12.15 20.59C11.8254 20.6358 11.5129 20.7445 11.23 20.91C11.1517 20.9365 11.0872 20.993 11.0507 21.0671C11.0141 21.1412 11.0085 21.2268 11.035 21.305C11.0615 21.3832 11.118 21.4477 11.1921 21.4843C11.2662 21.5209 11.3517 21.5265 11.43 21.5C11.6819 21.4935 11.9336 21.517 12.18 21.57C12.3522 21.597 12.5258 21.6137 12.7 21.62C13.03 21.62 13.34 21.55 13.7 21.52C13.7354 21.5253 13.7716 21.5235 13.8064 21.5148C13.8411 21.506 13.8738 21.4906 13.9026 21.4692C13.9314 21.4478 13.9557 21.421 13.9741 21.3903C13.9925 21.3595 14.0047 21.3255 14.01 21.29C14.0152 21.2545 14.0135 21.2184 14.0047 21.1836C13.996 21.1489 13.9805 21.1162 13.9592 21.0874C13.9378 21.0586 13.911 21.0343 13.8803 21.0159C13.8495 20.9974 13.8154 20.9853 13.78 20.98L13.74 21Z" fill="black"/>
</g>
<defs>
<clipPath id="clip0_1049_7584">
<rect width="24" height="24" fill="white"/>
</clipPath>
</defs>
</svg>
