<svg width="24" height="24" viewBox="0 0 24 24" fill="none" xmlns="http://www.w3.org/2000/svg">
<g clip-path="url(#clip0_1049_7596)">
<path fill-rule="evenodd" clip-rule="evenodd" d="M8.9 14.09C8.82983 13.9428 8.71924 13.8185 8.58113 13.7318C8.44303 13.645 8.28309 13.5993 8.12 13.6C7.91411 13.6007 7.71547 13.6761 7.56098 13.8122C7.40648 13.9483 7.30664 14.1358 7.28 14.34C7.28443 14.463 7.31462 14.5837 7.3686 14.6943C7.42259 14.8049 7.49918 14.903 7.59342 14.9821C7.68766 15.0613 7.79746 15.1198 7.91572 15.1539C8.03398 15.188 8.15808 15.1969 8.28 15.18C8.3983 15.1599 8.51065 15.1137 8.60894 15.0449C8.70723 14.9761 8.78899 14.8862 8.84832 14.7819C8.90765 14.6776 8.94307 14.5614 8.952 14.4418C8.96094 14.3221 8.94318 14.202 8.9 14.09Z" fill="black"/>
<path fill-rule="evenodd" clip-rule="evenodd" d="M8.43001 18C8.54767 17.9747 8.65821 17.9234 8.75358 17.85C8.84895 17.7766 8.92676 17.6828 8.98135 17.5756C9.03594 17.4683 9.06594 17.3502 9.06917 17.2299C9.0724 17.1096 9.04877 16.99 9.00001 16.88C8.92452 16.7104 8.79555 16.5701 8.63282 16.4807C8.47008 16.3912 8.28254 16.3575 8.09886 16.3848C7.91518 16.412 7.74546 16.4986 7.61565 16.6314C7.48584 16.7641 7.40307 16.9358 7.38001 17.12C7.37753 17.2514 7.4045 17.3816 7.45893 17.5012C7.51337 17.6208 7.5939 17.7267 7.6946 17.8111C7.7953 17.8955 7.91362 17.9562 8.04088 17.9889C8.16813 18.0216 8.3011 18.0254 8.43001 18Z" fill="black"/>
<path fill-rule="evenodd" clip-rule="evenodd" d="M8.84001 20.74C8.95567 20.7158 9.06473 20.6669 9.15972 20.5966C9.25471 20.5263 9.33339 20.4363 9.39038 20.3328C9.44736 20.2293 9.48129 20.1147 9.48986 19.9968C9.49843 19.879 9.48142 19.7607 9.44001 19.65C9.36935 19.5024 9.25893 19.3774 9.12114 19.289C8.98335 19.2007 8.82366 19.1526 8.66001 19.15C8.45321 19.1531 8.25446 19.2306 8.10018 19.3684C7.94591 19.5061 7.84644 19.6949 7.82001 19.9C7.82409 20.025 7.85475 20.1476 7.90994 20.2598C7.96514 20.372 8.04361 20.4711 8.14012 20.5506C8.23663 20.6301 8.34896 20.6881 8.46965 20.7207C8.59033 20.7534 8.71659 20.76 8.84001 20.74Z" fill="black"/>
<path fill-rule="evenodd" clip-rule="evenodd" d="M10.41 15.11C10.5281 15.0868 10.6396 15.0375 10.7363 14.9658C10.8331 14.8941 10.9126 14.8017 10.9691 14.6954C11.0256 14.589 11.0577 14.4715 11.063 14.3512C11.0684 14.2309 11.0468 14.1109 11 14C10.932 13.8524 10.8236 13.7271 10.6873 13.6387C10.551 13.5502 10.3925 13.5021 10.23 13.5C10.0226 13.501 9.82269 13.5778 9.66797 13.7159C9.51326 13.8541 9.41439 14.044 9.38999 14.25C9.38955 14.3772 9.417 14.503 9.47042 14.6184C9.52385 14.7338 9.60193 14.8362 9.69918 14.9182C9.79643 15.0002 9.91048 15.0598 10.0333 15.093C10.1561 15.1261 10.2847 15.1319 10.41 15.11Z" fill="black"/>
<path fill-rule="evenodd" clip-rule="evenodd" d="M10.75 17.72C10.8665 17.6974 10.9767 17.6494 11.0726 17.5795C11.1685 17.5096 11.2479 17.4195 11.3052 17.3155C11.3624 17.2115 11.3961 17.0962 11.4039 16.9777C11.4116 16.8593 11.3932 16.7406 11.35 16.63C11.2794 16.4824 11.1689 16.3574 11.0311 16.269C10.8934 16.1807 10.7337 16.1326 10.57 16.13C10.3632 16.1331 10.1645 16.2107 10.0102 16.3484C9.85591 16.4861 9.75644 16.6749 9.73001 16.88C9.73409 17.005 9.76475 17.1276 9.81995 17.2398C9.87514 17.352 9.95361 17.4511 10.0501 17.5306C10.1466 17.6101 10.259 17.6681 10.3797 17.7007C10.5003 17.7334 10.6266 17.74 10.75 17.72Z" fill="black"/>
<path fill-rule="evenodd" clip-rule="evenodd" d="M11 20.5C11.1153 20.4771 11.2242 20.4293 11.3192 20.3601C11.4142 20.2908 11.493 20.2017 11.5501 20.0989C11.6072 19.9962 11.6412 19.8822 11.6498 19.765C11.6585 19.6477 11.6415 19.53 11.6 19.42C11.5323 19.2701 11.4226 19.1431 11.2841 19.0544C11.1457 18.9656 10.9845 18.919 10.82 18.92C10.612 18.9188 10.4109 18.9948 10.2557 19.1334C10.1005 19.272 10.0023 19.4632 9.98001 19.67C9.98387 19.7947 10.0145 19.917 10.0698 20.0288C10.1251 20.1406 10.2037 20.2392 10.3005 20.3179C10.3972 20.3966 10.5097 20.4536 10.6304 20.485C10.7511 20.5165 10.8772 20.5216 11 20.5Z" fill="black"/>
<path fill-rule="evenodd" clip-rule="evenodd" d="M12.81 14.92C12.9253 14.8971 13.0342 14.8493 13.1292 14.7801C13.2242 14.7108 13.303 14.6217 13.3601 14.5189C13.4172 14.4162 13.4512 14.3022 13.4598 14.185C13.4685 14.0677 13.4515 13.95 13.41 13.84C13.3339 13.6701 13.204 13.5299 13.0405 13.441C12.8769 13.352 12.6887 13.3192 12.5047 13.3476C12.3207 13.376 12.1512 13.464 12.022 13.5982C11.8929 13.7323 11.8114 13.9051 11.79 14.09C11.7955 14.2141 11.8271 14.3356 11.8829 14.4466C11.9387 14.5576 12.0174 14.6555 12.1137 14.7339C12.2101 14.8123 12.3219 14.8694 12.4419 14.9015C12.562 14.9336 12.6874 14.9399 12.81 14.92Z" fill="black"/>
<path fill-rule="evenodd" clip-rule="evenodd" d="M13.21 17.58C13.3257 17.5558 13.4347 17.5069 13.5297 17.4366C13.6247 17.3663 13.7034 17.2763 13.7604 17.1728C13.8174 17.0693 13.8513 16.9547 13.8599 16.8368C13.8684 16.719 13.8514 16.6007 13.81 16.49C13.7357 16.3396 13.62 16.2136 13.4765 16.1268C13.333 16.04 13.1677 15.996 13 16C12.7932 16.0031 12.5945 16.0807 12.4402 16.2184C12.2859 16.3561 12.1864 16.5449 12.16 16.75C12.1648 16.8771 12.1971 17.0017 12.2547 17.1151C12.3123 17.2286 12.3939 17.3282 12.4937 17.4071C12.5935 17.486 12.7092 17.5423 12.8329 17.5721C12.9565 17.602 13.0852 17.6047 13.21 17.58Z" fill="black"/>
<path fill-rule="evenodd" clip-rule="evenodd" d="M13.49 20.38C13.6062 20.3587 13.7162 20.3119 13.8121 20.243C13.9081 20.1742 13.9876 20.0849 14.045 19.9817C14.1023 19.8784 14.1361 19.7637 14.1439 19.6459C14.1517 19.528 14.1333 19.4099 14.09 19.3C14.0138 19.1301 13.884 18.9899 13.7205 18.901C13.5569 18.812 13.3687 18.7793 13.1847 18.8076C13.0007 18.836 12.8312 18.9241 12.702 19.0582C12.5729 19.1923 12.4914 19.3651 12.47 19.55C12.4755 19.6741 12.5071 19.7956 12.5629 19.9066C12.6187 20.0176 12.6974 20.1155 12.7937 20.1939C12.8901 20.2723 13.0019 20.3294 13.1219 20.3615C13.2419 20.3936 13.3674 20.3999 13.49 20.38Z" fill="black"/>
<path fill-rule="evenodd" clip-rule="evenodd" d="M14.15 22.46L11.57 22.6L10.11 22.7C9.64 22.75 9.16 22.79 8.69 22.81C8.07479 22.8699 7.45521 22.8699 6.84 22.81C6.35641 22.7789 5.87726 22.6985 5.41 22.57C5.4641 22.5267 5.5027 22.4671 5.52 22.4C5.83446 21.0034 6.01858 19.5806 6.07 18.15C6.07 16.75 6.07 15.34 5.95 13.89C5.82 12.78 5.67 11.64 5.45 10.51C5.23449 9.41035 4.9404 8.32758 4.57 7.27C5.30062 7.07446 6.04183 6.92087 6.79 6.81C7.57 6.71 8.36 6.66 9.15 6.62C9.94 6.58 10.73 6.55 11.49 6.62C11.9 6.62 12.49 6.53 13.09 6.56C13.3249 6.53726 13.5607 6.59356 13.76 6.72C13.8433 6.80626 13.914 6.9039 13.97 7.01C14.09 7.24 14.18 7.51 14.27 7.72C14.45 8.16 14.61 8.6 14.75 9.05C14.96 9.74 15.13 10.44 15.31 11.14C15.3184 11.1854 15.3357 11.2286 15.3609 11.2673C15.3861 11.306 15.4187 11.3393 15.4568 11.3653C15.4949 11.3913 15.5377 11.4095 15.5829 11.4189C15.6281 11.4283 15.6747 11.4287 15.72 11.42C15.7655 11.4105 15.8087 11.3921 15.847 11.3657C15.8853 11.3394 15.9179 11.3057 15.9431 11.2666C15.9682 11.2275 15.9853 11.1838 15.9934 11.138C16.0014 11.0923 16.0003 11.0453 15.99 11C15.87 10.27 15.75 9.54 15.59 8.83C15.4813 8.34022 15.3478 7.85626 15.19 7.38C15.11 7.13 15.02 6.84 14.92 6.57C14.8249 6.34105 14.6894 6.13104 14.52 5.95C14.2447 5.6863 13.8961 5.512 13.52 5.45C12.8545 5.39435 12.1855 5.39435 11.52 5.45C10.6955 5.43919 9.87096 5.47257 9.05 5.55C8.51 5.61 7.97 5.7 7.43 5.8C6.89 5.9 6.55 6 6.11 6.11C6.19059 5.38738 6.1704 4.65706 6.05 3.94C5.92624 3.33355 5.6739 2.76067 5.31 2.26C5.17254 2.06414 5.01502 1.88316 4.84 1.72C4.73667 1.63121 4.62631 1.55095 4.51 1.48H4.74C5.39 1.41 6.05 1.41 6.74 1.37C7.43 1.33 8.05 1.28 8.74 1.26C9.43 1.24 9.91 1 10.52 1C10.8289 1.00856 11.1365 1.042 11.44 1.1C11.44 1.39 11.49 1.69 11.52 1.99C11.55 2.29 11.6 2.61 11.65 2.93C11.73 3.48 11.87 4.02 11.96 4.55C11.9741 4.63393 12.0176 4.71014 12.0825 4.76509C12.1475 4.82005 12.2299 4.85021 12.315 4.85021C12.4001 4.85021 12.4825 4.82005 12.5475 4.76509C12.6124 4.71014 12.6559 4.63393 12.67 4.55C12.7442 4.03639 12.7876 3.5188 12.8 3C12.8043 2.66342 12.7674 2.32759 12.69 2C12.13 -0.19 11.69 0.36 10.59 0.19C10 0.07 9.33 0.05 8.67 0H7.21C6.71325 0.0330518 6.21899 0.0965039 5.73 0.19C4.82531 0.371765 3.94095 0.643102 3.09 1H3C2.85358 0.987849 2.70641 0.987849 2.56 1C1.96534 1.19683 1.47279 1.62108 1.19 2.18C-0.74 6 1.85 4.61 1.9 4.6C2.13741 4.55009 2.38259 4.55009 2.62 4.6L3.42 4.94C3.83956 5.05017 4.28044 5.05017 4.7 4.94C4.88531 4.88065 5.06315 4.80011 5.23 4.7C5.31664 5.19546 5.36345 5.69706 5.37 6.2C4.74734 6.30887 4.16023 6.56671 3.65876 6.95152C3.15728 7.33634 2.7563 7.83672 2.49 8.41C2.21748 9.24602 2.08239 10.1207 2.09 11V13.79C2.09 14.73 2.19 15.66 2.31 16.59C2.53999 18.4486 3.01755 20.2681 3.73 22C3.75812 22.0639 3.80699 22.1165 3.8687 22.1491C3.93041 22.1818 4.00134 22.1927 4.07 22.18C4.03389 22.2331 4.01457 22.2958 4.01457 22.36C4.01457 22.4242 4.03389 22.4869 4.07 22.54C4.32619 22.879 4.67278 23.139 5.07 23.29C5.58617 23.5025 6.12212 23.6632 6.67 23.77C7.34552 23.9257 8.03677 24.0029 8.73 24C9.23548 23.9869 9.73972 23.9435 10.24 23.87C10.73 23.8 11.24 23.69 11.7 23.59L14.27 23.07C14.3509 23.0554 14.4227 23.0093 14.4695 22.9418C14.5164 22.8743 14.5346 22.7909 14.52 22.71C14.5128 22.6689 14.4975 22.6297 14.4748 22.5947C14.4522 22.5597 14.4227 22.5297 14.3882 22.5063C14.3536 22.483 14.3147 22.4669 14.2738 22.4589C14.2329 22.4509 14.1908 22.4513 14.15 22.46ZM4.53 4C4.2699 4.00515 4.01246 3.9468 3.78 3.83C3.57 3.75 3.39 3.62 3.18 3.54C3.03256 3.48525 2.8772 3.45485 2.72 3.45C2.37441 3.4476 2.03268 3.52278 1.72 3.67C1.63 3.67 1.57 3.77 1.48 3.81C1.55001 3.50597 1.65399 3.21078 1.79 2.93C1.88091 2.72764 2.01927 2.55017 2.19335 2.41265C2.36742 2.27513 2.57209 2.18161 2.79 2.14H3.23L3.74 2.37C3.8467 2.42497 3.94448 2.49577 4.03 2.58C4.13 2.68 4.23 2.79 4.32 2.9C4.57304 3.19669 4.77267 3.53504 4.91 3.9C4.78838 3.95019 4.66057 3.98382 4.53 4ZM4.31 22C4.33039 21.9247 4.33039 21.8453 4.31 21.77C3.9897 20.7276 3.75558 19.6607 3.61 18.58C3.44 17.33 3.37 16.05 3.3 14.78C3.23 13.51 3.15 12.22 3.12 11C3.04278 10.2331 3.09689 9.45869 3.28 8.71C3.38575 8.30075 3.6385 7.94477 3.99 7.71C4.18045 8.46427 4.32735 9.22886 4.43 10C4.61 11.34 4.7 12.69 4.76 14C4.84 14.84 4.89 15.67 4.94 16.5C4.99 17.33 5.05 18.15 5.05 18.98C5.05698 20.0776 4.98009 21.1741 4.82 22.26C4.77 22.26 4.69 22.21 4.64 22.16C4.61044 22.1006 4.56201 22.0527 4.5023 22.0237C4.44258 21.9948 4.37496 21.9864 4.31 22Z" fill="black"/>
<path fill-rule="evenodd" clip-rule="evenodd" d="M13 10.86C13 10.86 13.08 10.93 13.13 10.93C13.176 10.937 13.223 10.9348 13.2682 10.9235C13.3133 10.9122 13.3558 10.892 13.393 10.864C13.4303 10.8361 13.4616 10.801 13.4851 10.7608C13.5086 10.7206 13.5239 10.6762 13.53 10.63C13.661 10.2469 13.7285 9.8449 13.73 9.43999C13.7319 9.26747 13.7083 9.09561 13.66 8.92999C13.628 8.76044 13.5742 8.59574 13.5 8.43999C13.3036 8.11032 13.0649 7.80775 12.79 7.53999C12.751 7.47524 12.691 7.42582 12.62 7.39999C12.62 7.39999 12.57 7.39999 12.54 7.39999C12.0905 7.37001 11.6395 7.37001 11.19 7.39999C10.51 7.39999 9.84 7.45999 9.19 7.48999C8.75093 7.48767 8.31253 7.52448 7.88 7.59999C7.65009 7.64894 7.43024 7.73688 7.23 7.85999C6.96638 8.07926 6.75765 8.35711 6.62049 8.67137C6.48333 8.98563 6.42152 9.3276 6.44 9.66999C6.41822 10.0184 6.48578 10.3667 6.63628 10.6817C6.78679 10.9967 7.01524 11.268 7.3 11.47C7.55935 11.5976 7.84148 11.6724 8.13 11.69C8.46306 11.7091 8.79694 11.7091 9.13 11.69C9.72 11.69 10.32 11.63 10.91 11.56C11.504 11.5035 12.0948 11.4167 12.68 11.3C12.7328 11.2992 12.7847 11.2862 12.8315 11.2619C12.8784 11.2376 12.919 11.2027 12.95 11.16C12.9811 11.1173 13.0018 11.068 13.0104 11.0159C13.0191 10.9638 13.0155 10.9104 13 10.86ZM10.89 10.62H9.16C8.88 10.62 8.55 10.62 8.25 10.57C8.11165 10.5511 7.9788 10.5034 7.86 10.43C7.64 10.31 7.63 9.96999 7.63 9.64999C7.63 9.32999 7.63 8.94999 7.87 8.80999C8.00239 8.71974 8.15231 8.65841 8.31 8.62999C8.63994 8.55492 8.97379 8.49817 9.31 8.45999L11.26 8.12999L12.26 8.03999C12.34 8.34999 12.37 8.65999 12.44 8.97999C12.4727 9.15581 12.5161 9.32947 12.57 9.49999C12.62 9.67999 12.69 9.83999 12.74 10.02C12.7772 10.2016 12.8039 10.3853 12.82 10.57C12.7486 10.5245 12.6644 10.5034 12.58 10.51C12.0227 10.5806 11.4617 10.6173 10.9 10.62H10.89Z" fill="black"/>
<path fill-rule="evenodd" clip-rule="evenodd" d="M16.73 8.78001C17.0244 8.8858 17.2983 9.0414 17.54 9.24001C17.6911 9.32844 17.8349 9.42876 17.97 9.54001C18.08 9.61001 18.18 9.66001 18.27 9.73001C18.49 9.88002 18.68 10.07 18.83 10.29C18.8632 10.3775 18.9297 10.4483 19.015 10.4867C19.1004 10.5252 19.1975 10.5282 19.285 10.495C19.3725 10.4619 19.4433 10.3953 19.4817 10.31C19.5202 10.2246 19.5232 10.1275 19.49 10.04C19.4114 9.60585 19.222 9.19937 18.94 8.86001C18.8272 8.71051 18.6923 8.57901 18.54 8.47001C18.3763 8.35293 18.1936 8.26498 18 8.21001C17.5821 8.0788 17.1368 8.06154 16.71 8.16001C16.6278 8.16001 16.5489 8.19267 16.4908 8.2508C16.4327 8.30894 16.4 8.38779 16.4 8.47001C16.3984 8.51289 16.4059 8.55563 16.4222 8.59534C16.4385 8.63505 16.4631 8.6708 16.4944 8.70019C16.5257 8.72957 16.5629 8.7519 16.6035 8.76567C16.6442 8.77944 16.6873 8.78433 16.73 8.78001Z" fill="black"/>
<path fill-rule="evenodd" clip-rule="evenodd" d="M16.78 6.44999C17.4372 6.56896 18.0653 6.81342 18.63 7.16999C18.8675 7.31169 19.0978 7.46522 19.32 7.62999C19.5412 7.78931 19.7516 7.96302 19.95 8.14999C20.4267 8.58312 20.773 9.14071 20.95 9.75999C20.9549 9.80573 20.969 9.85001 20.9915 9.89014C21.0139 9.93027 21.0443 9.96543 21.0808 9.99347C21.1172 10.0215 21.159 10.0419 21.2036 10.0533C21.2481 10.0647 21.2945 10.067 21.34 10.06C21.4339 10.0475 21.5191 9.99853 21.5771 9.92365C21.6352 9.84878 21.6614 9.75404 21.65 9.65999C21.5956 8.83722 21.2882 8.05136 20.77 7.40999C20.5499 7.12795 20.2906 6.87877 20 6.66999C19.7244 6.46564 19.4257 6.29446 19.11 6.15999C18.3654 5.8595 17.5585 5.74619 16.76 5.82999C16.7193 5.82866 16.6787 5.83536 16.6406 5.84972C16.6025 5.86408 16.5675 5.88581 16.5378 5.91367C16.5081 5.94153 16.4842 5.97498 16.4674 6.0121C16.4506 6.04921 16.4413 6.08928 16.44 6.12999C16.4413 6.17334 16.4511 6.216 16.4689 6.25554C16.4867 6.29509 16.5121 6.33074 16.5437 6.36046C16.5753 6.39017 16.6124 6.41338 16.6529 6.42874C16.6935 6.4441 16.7367 6.45133 16.78 6.44999Z" fill="black"/>
<path fill-rule="evenodd" clip-rule="evenodd" d="M22.41 6.07001C22.1227 5.67293 21.7868 5.31345 21.41 5.00001C21.0278 4.69116 20.6077 4.4324 20.16 4.23001C19.1178 3.75685 17.9683 3.57043 16.83 3.69001C16.7469 3.69261 16.668 3.72746 16.6102 3.7872C16.5523 3.84693 16.5199 3.92684 16.52 4.01001C16.5213 4.05072 16.5306 4.09079 16.5474 4.1279C16.5642 4.16502 16.5881 4.19847 16.6178 4.22633C16.6475 4.25419 16.6824 4.27592 16.7206 4.29028C16.7587 4.30464 16.7993 4.31134 16.84 4.31001C17.8339 4.39363 18.7936 4.7124 19.64 5.24001C19.9911 5.44683 20.3255 5.68088 20.64 5.94001C20.9691 6.19073 21.2738 6.47198 21.55 6.78001C22.2239 7.48424 22.667 8.37733 22.82 9.34001C22.8277 9.43375 22.8717 9.52077 22.9427 9.58244C23.0138 9.64412 23.1061 9.67555 23.2 9.67001C23.2469 9.6675 23.2928 9.65559 23.335 9.63497C23.3772 9.61435 23.4148 9.58545 23.4456 9.55C23.4764 9.51454 23.4997 9.47325 23.5142 9.42858C23.5287 9.38392 23.5341 9.33679 23.53 9.29001C23.5092 8.12477 23.1168 6.99662 22.41 6.07001Z" fill="black"/>
<path fill-rule="evenodd" clip-rule="evenodd" d="M21.41 15.23C20.96 12.37 21.28 11.05 18.11 11.23C17.6261 11.2513 17.1462 11.3284 16.68 11.46C13.86 12.23 14.14 11.81 14.26 15.91C14.26 16.68 14.37 17.44 14.44 18.21C14.53 18.83 14.58 19.49 14.71 20.13C14.7881 20.5793 14.9155 21.0186 15.09 21.44C15.1283 21.5266 15.1955 21.5973 15.28 21.64C15.2144 21.6316 15.1479 21.6458 15.0915 21.6804C15.0351 21.7149 14.9923 21.7677 14.97 21.83C14.9577 21.8694 14.9535 21.9108 14.9574 21.9519C14.9614 21.9929 14.9735 22.0328 14.993 22.0691C15.0126 22.1055 15.0392 22.1375 15.0713 22.1634C15.1034 22.1893 15.1404 22.2086 15.18 22.22C15.8312 22.5336 16.5313 22.7331 17.25 22.81C17.8645 22.8839 18.4871 22.8501 19.09 22.71C20.29 22.46 21.68 21.81 21.68 21.51C21.68 20.38 21.73 19.26 21.68 18.13C21.68 17.66 21.63 17.18 21.59 16.7C21.55 16.22 21.48 15.7 21.41 15.23ZM15.55 21.6C15.6353 21.5684 15.705 21.5047 15.7442 21.4226C15.7834 21.3404 15.7891 21.2462 15.76 21.16C15.6562 20.7814 15.5958 20.3922 15.58 20V18.1C15.58 17.49 15.52 16.57 15.44 15.81C15.33 14.81 15.15 13.81 15.01 12.74C15.35 12.74 15.73 12.67 16.1 12.63V14.97C16.1 15.41 16.1 15.84 16.16 16.28C16.22 16.72 16.26 17.13 16.3 17.56C16.42 18.48 16.53 19.4 16.64 20.31C16.71 20.77 16.78 21.22 16.86 21.68C16.4219 21.6898 15.9837 21.663 15.55 21.6ZM19.21 21.55C18.71 21.6 18.21 21.6 17.67 21.62H17.61L17.47 17.42C17.41 16.91 17.36 16.42 17.28 15.86C17.1 14.75 16.87 13.66 16.74 12.55H17.13L18.21 12.38C18.5571 12.3197 18.9079 12.2829 19.26 12.27C19.5739 12.2698 19.8864 12.3102 20.19 12.39C20.19 13.55 20.19 14.7 20.32 15.87C20.37 16.62 20.46 17.38 20.55 18.13C20.68 19.21 20.84 20.27 20.94 21.33H20.85C20.3113 21.4539 19.7623 21.5276 19.21 21.55Z" fill="black"/>
<path fill-rule="evenodd" clip-rule="evenodd" d="M19.63 15V14.55C19.63 14.41 19.63 14.26 19.56 14.12C19.23 12.74 19.05 12.81 18.91 12.82C18.77 12.83 18.53 12.69 18.43 14.2C18.4101 14.3493 18.4101 14.5007 18.43 14.65C18.4395 14.7979 18.4595 14.945 18.49 15.09C18.79 16.32 18.88 16.45 19.16 16.43C19.44 16.41 19.54 16.3 19.63 15Z" fill="black"/>
<path fill-rule="evenodd" clip-rule="evenodd" d="M20.05 18.68C19.68 17.54 19.48 17.58 19.36 17.59C19.24 17.6 18.99 17.51 18.92 18.81C18.91 18.9331 18.91 19.0569 18.92 19.18C18.9394 19.2991 18.9695 19.4163 19.01 19.53C19.33 20.61 19.49 20.68 19.71 20.65C19.93 20.62 20.08 20.52 20.11 19.39C20.12 19.2702 20.12 19.1498 20.11 19.03C20.1 18.91 20.08 18.79 20.05 18.68Z" fill="black"/>
</g>
<defs>
<clipPath id="clip0_1049_7596">
<rect width="24" height="24" fill="white"/>
</clipPath>
</defs>
</svg>
