<svg width="24" height="24" viewBox="0 0 24 24" fill="none" xmlns="http://www.w3.org/2000/svg">
<g clip-path="url(#clip0_1049_7591)">
<path fill-rule="evenodd" clip-rule="evenodd" d="M23.7 9.05C23.63 8.12 23.58 7.2 23.5 6.27C23.45 5.65 23.4 5.03 23.32 4.41C23.32 4.28 23.25 3.41 23.18 3.04C23.1621 2.93472 23.1204 2.83492 23.058 2.74826C22.9956 2.66159 22.9142 2.59036 22.82 2.54C21.653 2.14728 20.4313 1.94141 19.2 1.93C17.37 1.88 15.47 2.09 13.88 2.17C12.88 2.22 11.88 2.32 10.96 2.43C8.73001 2.69 6.51001 3.06 4.26001 3.26C4.17514 3.26 4.09375 3.29371 4.03374 3.35372C3.97372 3.41373 3.94001 3.49513 3.94001 3.58C3.94001 3.66487 3.97372 3.74626 4.03374 3.80627C4.09375 3.86628 4.17514 3.9 4.26001 3.9C6.52001 3.75 8.75001 3.42 11 3.19C12 3.1 13 3 13.91 3C15.49 2.95 17.36 2.78 19.16 2.87C20.1604 2.89712 21.1526 3.05857 22.11 3.35C22 3.63 22.3 4.43 22.31 4.53L22.62 9.13C22.67 9.87 22.91 10.9 22.91 11.83C22.9669 12.3095 22.838 12.7925 22.55 13.18C22.1547 13.6074 21.6384 13.9039 21.07 14.03C20.0796 14.2033 19.0755 14.287 18.07 14.28C15.83 14.44 13.62 14.7 11.39 14.86C10.45 14.93 9.51001 14.98 8.55001 15C7.5758 15.0443 6.59964 15.0142 5.63001 14.91C5.04896 14.8793 4.49246 14.6658 4.04001 14.3C3.91952 14.1317 3.84381 13.9356 3.82001 13.73C3.75001 13.29 3.76001 12.81 3.72001 12.49C3.62001 11.43 3.50001 10 3.43001 8.63C3.36001 7.26 3.30001 5.81 3.33001 4.77C3.33018 4.69378 3.30133 4.62035 3.24933 4.56463C3.19732 4.50891 3.12606 4.47508 3.05001 4.47C2.9748 4.46995 2.90251 4.49913 2.8484 4.55137C2.7943 4.60361 2.7626 4.67483 2.76001 4.75V8.66C2.76001 10.09 2.90001 11.5 2.99001 12.55C2.99984 13.0619 3.03991 13.5728 3.11001 14.08C3.16466 14.3515 3.28481 14.6055 3.46001 14.82C3.87787 15.2291 4.4062 15.5072 4.98001 15.62C6.16189 15.8513 7.36655 15.9453 8.57001 15.9C9.57001 15.9 10.5 15.9 11.47 15.83C13.7 15.71 15.91 15.47 18.15 15.35C19.2131 15.3556 20.2744 15.2619 21.32 15.07C22.0893 14.8904 22.7865 14.4826 23.32 13.9C23.718 13.4649 23.9576 12.9082 24 12.32C23.9874 11.2237 23.8871 10.1302 23.7 9.05Z" fill="black"/>
<path fill-rule="evenodd" clip-rule="evenodd" d="M21 16.87C20.9593 16.8595 20.9169 16.8571 20.8753 16.8629C20.8336 16.8688 20.7936 16.8828 20.7573 16.9042C20.7211 16.9255 20.6895 16.9538 20.6642 16.9874C20.6389 17.021 20.6205 17.0593 20.61 17.1C20.3666 18.0331 20.0695 18.9513 19.72 19.85C19.5239 20.3606 19.232 20.829 18.86 21.23C18.79 21.11 18.36 21.23 17.95 21.17C16.82 20.99 14.95 20.55 12.9 20.04C11.28 19.64 9.53001 19.18 7.90001 18.73C5.51001 18.1 3.33001 17.49 2.00001 17C1.67848 16.8868 1.3645 16.7532 1.06001 16.6C0.984909 16.5655 0.914371 16.5218 0.850012 16.47C0.804369 16.3065 0.804369 16.1335 0.850012 15.97C0.910012 15.56 1.06001 15.13 1.12001 14.83C1.25001 14.18 1.42001 13.55 1.58001 13C1.90001 11.95 2.20001 11.21 2.20001 11.21C2.21556 11.1721 2.2226 11.1313 2.22066 11.0904C2.21871 11.0495 2.20782 11.0095 2.18875 10.9733C2.16968 10.9371 2.1429 10.9054 2.11029 10.8807C2.07768 10.8559 2.04004 10.8386 2.00001 10.83C1.96675 10.8135 1.93045 10.804 1.89337 10.8022C1.85628 10.8004 1.81922 10.8062 1.7845 10.8194C1.74978 10.8325 1.71813 10.8526 1.69155 10.8786C1.66497 10.9045 1.64402 10.9356 1.63001 10.97C1.63001 10.97 1.29001 11.72 0.920012 12.79C0.720012 13.35 0.520012 13.99 0.350012 14.66C0.19869 15.1139 0.0816935 15.5785 1.21566e-05 16.05C-0.0341698 16.3208 0.000215322 16.5959 0.100012 16.85C0.62811 17.385 1.28107 17.7803 2.00001 18C2.79001 18.31 3.80001 18.68 5.00001 19C6.36001 19.42 7.92001 19.86 9.48001 20.26C12.2849 21.0004 15.1294 21.5813 18 22C18.4274 22.0911 18.872 22.0564 19.28 21.9C19.7779 21.385 20.1567 20.7672 20.39 20.09C20.7254 19.1556 20.9993 18.2002 21.21 17.23C21.2238 17.1548 21.2102 17.0772 21.1717 17.0111C21.1331 16.9451 21.0722 16.895 21 16.87Z" fill="black"/>
<path fill-rule="evenodd" clip-rule="evenodd" d="M18.92 6.75C18.4344 5.94158 17.6844 5.32579 16.797 5.00688C15.9095 4.68797 14.9391 4.68554 14.05 5C13.6744 5.15561 13.3212 5.36077 13 5.61C12.5186 5.29035 11.972 5.08197 11.4 5C10.6588 4.88717 9.90103 4.96783 9.20018 5.23415C8.49934 5.50047 7.87923 5.94341 7.40001 6.52C6.91739 7.08084 6.59637 7.76236 6.47131 8.49161C6.34624 9.22087 6.42184 9.97041 6.69001 10.66C6.9569 11.3221 7.43499 11.8775 8.05001 12.24C8.62539 12.5989 9.27534 12.8213 9.95001 12.89C10.0255 12.8985 10.1012 12.8771 10.1611 12.8304C10.2209 12.7836 10.26 12.7153 10.27 12.64C10.2756 12.6024 10.2735 12.5641 10.2638 12.5274C10.2542 12.4906 10.2371 12.4563 10.2137 12.4263C10.1903 12.3964 10.1611 12.3715 10.1278 12.3532C10.0945 12.335 10.0578 12.3237 10.02 12.32C9.44526 12.23 8.8983 12.0112 8.42001 11.68C7.95684 11.3685 7.60623 10.9162 7.42001 10.39C7.25124 9.83951 7.23174 9.25406 7.36352 8.69356C7.4953 8.13305 7.77362 7.61762 8.17001 7.2C8.54221 6.77065 9.01722 6.4427 9.55063 6.24682C10.084 6.05095 10.6584 5.99356 11.22 6.08C11.5308 6.12641 11.8316 6.22443 12.11 6.37C11.8908 6.60616 11.6965 6.86417 11.53 7.14C11.1202 7.82168 10.9979 8.63818 11.19 9.41C11.3542 9.9274 11.6308 10.4021 12 10.8C12.3324 11.1729 12.7046 11.5082 13.11 11.8V11.85C12.8525 12.0486 12.5582 12.1941 12.2441 12.2782C11.93 12.3623 11.6023 12.3833 11.28 12.34C11.2379 12.3329 11.1948 12.3343 11.1533 12.3441C11.1118 12.3539 11.0726 12.3719 11.0381 12.397C11.0036 12.4222 10.9745 12.454 10.9525 12.4906C10.9305 12.5272 10.9161 12.5678 10.91 12.61C10.9029 12.6521 10.9043 12.6952 10.9141 12.7367C10.9239 12.7782 10.9419 12.8174 10.9671 12.8519C10.9922 12.8864 11.024 12.9155 11.0606 12.9375C11.0972 12.9595 11.1378 12.9739 11.18 12.98C11.5898 13.0532 12.0101 13.045 12.4167 12.9557C12.8234 12.8665 13.2085 12.6981 13.55 12.46L13.83 12.21C14.341 12.4669 14.9085 12.5907 15.48 12.57C19.54 12.51 20.31 8.94 18.92 6.75ZM12.2 9.14C12.1433 8.81475 12.1616 8.48085 12.2534 8.16373C12.3453 7.8466 12.5083 7.55462 12.73 7.31C12.8114 7.19949 12.9017 7.09581 13 7C13.1311 7.15486 13.2514 7.31858 13.36 7.49C13.8454 8.32131 14.0684 9.2798 14 10.24C13.9705 10.5545 13.8715 10.8585 13.71 11.13C13.4421 10.9276 13.1943 10.6999 12.97 10.45C12.6052 10.0866 12.34 9.63551 12.2 9.14ZM15.47 11.86C15.0805 11.8429 14.6989 11.7441 14.35 11.57C14.5994 11.198 14.7602 10.7738 14.82 10.33C14.9786 9.18557 14.7722 8.02027 14.23 7C14.1053 6.7779 13.9614 6.5671 13.8 6.37C13.9996 6.24677 14.2106 6.14296 14.43 6.06C15.0956 5.7967 15.8315 5.77025 16.5142 5.98509C17.197 6.19993 17.7851 6.64301 18.18 7.24C19.15 8.63 19.3 12.05 15.47 11.86Z" fill="black"/>
</g>
<defs>
<clipPath id="clip0_1049_7591">
<rect width="24" height="24" fill="white"/>
</clipPath>
</defs>
</svg>
