<svg width="24" height="24" viewBox="0 0 24 24" fill="none" xmlns="http://www.w3.org/2000/svg">
<g clip-path="url(#clip0_1048_7047)">
<path fill-rule="evenodd" clip-rule="evenodd" d="M3.71 4.23999C2.95811 4.11979 2.1919 4.11979 1.44 4.23999C0.180004 4.49999 0.440004 4.41999 0.180004 4.47999C-0.079996 4.53999 -0.099996 4.99999 0.300004 5.09999C2.3 5.70999 2.65 5.09999 3.71 4.91999C3.80018 4.91999 3.88666 4.88417 3.95042 4.82041C4.01418 4.75665 4.05 4.67016 4.05 4.57999C4.05 4.48982 4.01418 4.40334 3.95042 4.33958C3.88666 4.27581 3.80018 4.23999 3.71 4.23999Z" fill="black"/>
<path fill-rule="evenodd" clip-rule="evenodd" d="M8.82001 5.16998C11.0962 5.31365 13.3803 5.27352 15.65 5.04998C15.99 5.04998 16.4 5.04998 16.53 4.89998C17.4 4.16998 15.42 4.29998 15.65 4.29998C14.58 4.23998 12.52 4.11998 11.53 4.09998C10.86 4.09998 5.21001 4.09998 5.63001 4.64998C5.52001 4.99998 5.62001 4.72998 8.82001 5.16998Z" fill="black"/>
<path fill-rule="evenodd" clip-rule="evenodd" d="M14.87 7.92997C13.6727 8.74974 12.5957 9.73255 11.67 10.85C11.67 10.85 11.11 11.44 11.09 11.45C11.07 11.46 10.87 11.92 11.37 11.98C11.67 11.98 13.18 10.83 13.26 10.76C13.8927 10.1381 14.4776 9.46957 15.01 8.75997C15.72 7.99997 15.21 7.72997 14.87 7.92997Z" fill="black"/>
<path fill-rule="evenodd" clip-rule="evenodd" d="M19.73 4.28997C19.8 4.02997 19.59 3.28997 19.1 3.94997C19 3.99997 15.94 6.51997 16.34 6.86997C16.4118 6.90453 16.4904 6.92248 16.57 6.92248C16.6496 6.92248 16.7283 6.90453 16.8 6.86997C17.8161 6.36483 18.7179 5.65696 19.45 4.78997C19.5609 4.63375 19.6547 4.46613 19.73 4.28997Z" fill="black"/>
<path fill-rule="evenodd" clip-rule="evenodd" d="M23.38 0.129998C23.29 0.129998 20.38 2.01 20.38 2.84C20.31 4.24 23.76 0.999998 24 0.469998C24 0.449998 23.76 -0.120002 23.38 0.129998Z" fill="black"/>
<path fill-rule="evenodd" clip-rule="evenodd" d="M21 17.47C20.5295 17.5332 20.0647 17.6335 19.61 17.77C19.27 17.95 19.33 18.16 19.48 18.27C19.63 18.38 20.91 18.59 20.97 18.6C21.4066 18.6521 21.8494 18.5972 22.26 18.44C22.5722 18.3723 22.8722 18.2576 23.15 18.1C23.63 17.43 21.62 17.43 21 17.47Z" fill="black"/>
<path fill-rule="evenodd" clip-rule="evenodd" d="M7.45 16.47L7.75 16.24C8.5926 15.4287 9.34681 14.5303 10 13.56C10.0566 13.494 10.0859 13.4089 10.0816 13.322C10.0774 13.2352 10.0401 13.1533 9.9774 13.0931C9.91466 13.0329 9.83126 12.9991 9.74432 12.9985C9.65739 12.9979 9.57354 13.0306 9.51 13.09C8.46248 13.857 7.52975 14.7695 6.74 15.8C6.36 17 6.68 17.12 7.45 16.47Z" fill="black"/>
<path fill-rule="evenodd" clip-rule="evenodd" d="M18.58 10.16C18.58 10.07 18.65 7.07999 18.58 6.92999C18.51 6.77999 18.07 6.76999 18.02 7.12999L17.49 12.5C17.331 14.1884 17.2676 15.8844 17.3 17.58C16.84 17.84 8.56 17.72 8.45 17.72C5.83 17.82 5.55 17.85 5.37 7.81999C5.17 0.869995 5.64 0.369995 5.08 0.319995C4.52 0.269995 4.74 0.949995 4.71 1.31999C4.62 3.24999 3.85 14.83 4.71 17.18C4.87678 17.6167 5.165 17.9965 5.54065 18.2747C5.91629 18.5529 6.36367 18.7178 6.83 18.75C7.44 18.84 14.83 18.63 17.26 18.3L17.2 20.76C17.2 21.39 16.87 23.83 17.48 23.94C18.09 24.05 18.3 17.83 18.27 18.11C18.34 15.81 18.64 14.09 18.58 10.16Z" fill="black"/>
</g>
<defs>
<clipPath id="clip0_1048_7047">
<rect width="24" height="24" fill="white"/>
</clipPath>
</defs>
</svg>
