<svg width="24" height="24" viewBox="0 0 24 24" fill="none" xmlns="http://www.w3.org/2000/svg">
<g clip-path="url(#clip0_1048_7058)">
<path fill-rule="evenodd" clip-rule="evenodd" d="M13 9.56C13.1362 9.39276 13.2344 9.19796 13.2879 8.98905C13.3414 8.78014 13.349 8.56211 13.31 8.35C13.3029 8.06306 13.2319 7.78132 13.1022 7.52529C12.9724 7.26926 12.7872 7.0454 12.56 6.87C12.0823 6.61304 11.5254 6.54521 11 6.68C10.7659 6.7167 10.5425 6.8034 10.3449 6.9342C10.1473 7.06499 9.98016 7.23681 9.85491 7.43796C9.72966 7.63912 9.64921 7.86489 9.61903 8.09992C9.58885 8.33495 9.60964 8.57372 9.68 8.8C10.27 10.81 12.49 10.16 13 9.56ZM10.71 8.56C10.6987 8.48778 10.7027 8.41399 10.7218 8.34344C10.741 8.27289 10.7747 8.20716 10.821 8.15054C10.8672 8.09392 10.9249 8.04769 10.9902 8.01486C11.0555 7.98203 11.127 7.96333 11.2 7.96C11.4197 7.88057 11.6603 7.88057 11.88 7.96C12.11 8.08 12.14 8.36 12.18 8.51C12.22 8.66 12.27 8.89 12.18 9C12.09 9.11 10.88 9.91 10.73 8.59L10.71 8.56Z" fill="black"/>
<path fill-rule="evenodd" clip-rule="evenodd" d="M17.53 10.62C17.1979 10.3398 16.809 10.1351 16.39 10.02C15.7064 9.83571 14.984 9.85307 14.31 10.07C13.6651 10.2682 13.0736 10.6102 12.58 11.07C12.1504 11.49 11.7864 11.972 11.5 12.5C10.8591 13.6685 10.5448 14.9881 10.59 16.32C10.5873 16.3655 10.5938 16.4111 10.609 16.454C10.6243 16.4969 10.648 16.5363 10.6788 16.5699C10.7096 16.6035 10.7468 16.6305 10.7882 16.6495C10.8296 16.6684 10.8745 16.6788 10.92 16.68C10.9668 16.6827 11.0136 16.676 11.0578 16.6603C11.1019 16.6445 11.1424 16.62 11.1769 16.5883C11.2115 16.5566 11.2392 16.5183 11.2587 16.4757C11.2781 16.433 11.2887 16.3869 11.29 16.34C11.4728 14.9681 12.0693 13.6844 13 12.66C13.4004 12.1627 13.897 11.7511 14.46 11.45C14.9871 11.1491 15.5984 11.0297 16.2 11.11C16.4852 11.1512 16.7581 11.2536 17 11.41C17.43 11.69 17.81 12.06 18.26 12.41C18.342 12.4645 18.4412 12.4867 18.5387 12.4726C18.6361 12.4584 18.7249 12.4088 18.788 12.3333C18.8511 12.2578 18.8842 12.1616 18.8809 12.0632C18.8776 11.9648 18.8381 11.8711 18.77 11.8C18.29 11.38 17.94 11 17.53 10.62Z" fill="black"/>
<path fill-rule="evenodd" clip-rule="evenodd" d="M11.21 12C10.766 11.7283 10.2931 11.5069 9.8 11.34C9.26837 11.1652 8.70888 11.0906 8.15 11.12C7.28102 11.2215 6.45191 11.5415 5.74 12.05C5.27 12.4 5 14.14 6.03 13.43C6.38947 13.1873 6.76351 12.9669 7.15 12.77C7.51561 12.5776 7.90592 12.4362 8.31 12.35C8.72332 12.2752 9.14669 12.2752 9.56 12.35C10.0051 12.4371 10.4405 12.5677 10.86 12.74C10.9073 12.7726 10.961 12.7946 11.0176 12.8046C11.0741 12.8145 11.1322 12.8122 11.1877 12.7977C11.2433 12.7832 11.2951 12.757 11.3396 12.7207C11.3841 12.6844 11.4203 12.639 11.4457 12.5875C11.4711 12.536 11.4851 12.4796 11.4868 12.4222C11.4884 12.3648 11.4777 12.3077 11.4553 12.2549C11.433 12.202 11.3995 12.1545 11.3572 12.1157C11.3148 12.0769 11.2646 12.0477 11.21 12.03V12Z" fill="black"/>
<path fill-rule="evenodd" clip-rule="evenodd" d="M23.21 18.13C22.1526 17.989 21.0867 17.9222 20.02 17.93C20.13 17.14 20.24 16.35 20.33 15.57C20.46 14.34 20.56 13.13 20.62 11.9C20.68 10.67 20.71 9.46003 20.73 8.24003C20.762 7.63045 20.762 7.0196 20.73 6.41003C20.7086 6.06062 20.6131 5.71975 20.45 5.41003C20.0712 4.84262 19.4867 4.44461 18.82 4.30003C17.5972 4.10073 16.3544 4.05371 15.12 4.16003C11.74 4.23003 8.45 4.91003 5.12 5.16003H5V4.48003C5.14 3.12003 5.32 1.77003 5.54 0.480026C5.56062 0.434432 5.57123 0.384946 5.57111 0.334904C5.57099 0.284862 5.56013 0.235428 5.53928 0.189937C5.51843 0.144445 5.48807 0.103954 5.45024 0.0711929C5.41241 0.0384323 5.368 0.0141643 5.32 2.56975e-05C5.27468 -0.00865637 5.22809 -0.00829154 5.18291 0.0010992C5.13774 0.0104899 5.09486 0.0287212 5.05676 0.0547441C5.01865 0.0807669 4.98607 0.114068 4.96088 0.15273C4.9357 0.191393 4.9184 0.234655 4.91 0.280026C4.63456 1.62964 4.3978 2.98687 4.2 4.35003C4.2 4.62003 4.13 4.89003 4.09 5.17003C3.02254 5.21471 1.95326 5.18464 0.889998 5.08003C0.785361 5.06875 0.680497 5.09917 0.598135 5.16468C0.515772 5.2302 0.462547 5.32553 0.449998 5.43003C0.442995 5.4813 0.446268 5.53346 0.459628 5.58347C0.472987 5.63347 0.496165 5.68031 0.52781 5.72126C0.559455 5.76222 0.598936 5.79646 0.64395 5.822C0.688963 5.84754 0.738611 5.86387 0.789998 5.87003C1.85398 6.01194 2.92663 6.07877 4 6.07003C3.89 6.86003 3.78 7.65003 3.69 8.43003C3.56 9.65003 3.46 10.88 3.4 12.1C3.34 13.32 3.31 14.54 3.29 15.76C3.25795 16.3696 3.25795 16.9804 3.29 17.59C3.31141 17.9394 3.40686 18.2803 3.57 18.59C3.94404 19.1532 4.52061 19.5507 5.18 19.7C6.40282 19.8993 7.64562 19.9463 8.88 19.84C12.26 19.77 15.55 19.09 18.88 18.84H19V19.52C18.864 20.8589 18.6839 22.193 18.46 23.52C18.4513 23.5653 18.4517 23.6119 18.4611 23.6571C18.4705 23.7023 18.4887 23.7452 18.5147 23.7833C18.5407 23.8214 18.574 23.854 18.6127 23.8791C18.6514 23.9043 18.6946 23.9216 18.74 23.93C18.7853 23.9387 18.8319 23.9383 18.8771 23.929C18.9223 23.9196 18.9651 23.9013 19.0032 23.8753C19.0413 23.8493 19.0739 23.816 19.0991 23.7773C19.1243 23.7387 19.1416 23.6954 19.15 23.65C19.43 22.32 19.66 20.96 19.86 19.59C19.86 19.32 19.93 19.05 19.97 18.77C21.0375 18.7253 22.1067 18.7554 23.17 18.86C23.2746 18.8713 23.3795 18.8409 23.4619 18.7754C23.5442 18.7099 23.5974 18.6145 23.61 18.51C23.6087 18.4588 23.5973 18.4083 23.5765 18.3615C23.5557 18.3147 23.5259 18.2724 23.4887 18.2371C23.4516 18.2019 23.4079 18.1742 23.36 18.1558C23.3122 18.1375 23.2612 18.1287 23.21 18.13ZM19.4 8.23003V12.58C19.4 13.58 19.35 14.51 19.28 15.48C19.23 16.29 19.16 17.11 19.09 17.92H18.87C15.55 18.03 12.25 18.59 8.87 18.54C7.8901 18.5955 6.90744 18.5788 5.93 18.49C5.68968 18.4894 5.45241 18.4362 5.23477 18.3343C5.01713 18.2324 4.82438 18.0842 4.67 17.9C4.58151 17.6952 4.54049 17.473 4.55 17.25V15.77V11.42C4.55 10.42 4.55 9.49003 4.67 8.52003C4.67 7.71003 4.79 6.89003 4.86 6.08003H5.08C8.4 5.97003 11.7 5.41003 15.08 5.46003C16.0585 5.3827 17.0415 5.3827 18.02 5.46003C18.2605 5.4593 18.4983 5.51183 18.7161 5.61384C18.934 5.71585 19.1265 5.8648 19.28 6.05003C19.3685 6.25488 19.4095 6.47708 19.4 6.70003C19.46 7.30003 19.4 7.89003 19.4 8.23003Z" fill="black"/>
</g>
<defs>
<clipPath id="clip0_1048_7058">
<rect width="24" height="24" fill="white"/>
</clipPath>
</defs>
</svg>
