<svg width="24" height="24" viewBox="0 0 24 24" fill="none" xmlns="http://www.w3.org/2000/svg">
<g clip-path="url(#clip0_1049_7713)">
<path d="M7.78 14.42C7.85438 14.4592 7.94118 14.4675 8.02164 14.4431C8.1021 14.4188 8.16976 14.3638 8.21 14.29C8.24839 14.2144 8.25521 14.1267 8.22896 14.046C8.20271 13.9654 8.14554 13.8985 8.07 13.86C7.58655 13.5685 7.17936 13.1662 6.88203 12.6863C6.58471 12.2064 6.40577 11.6627 6.36 11.1C6.2951 10.6222 6.2951 10.1378 6.36 9.66C6.4312 9.17568 6.5622 8.70207 6.75 8.25C7.15113 7.1464 7.95493 6.23542 9 5.7C9.03523 5.68678 9.06743 5.66659 9.09468 5.64065C9.12193 5.6147 9.14367 5.58353 9.15861 5.54899C9.17354 5.51446 9.18136 5.47727 9.1816 5.43964C9.18184 5.40201 9.17449 5.36473 9.16 5.33C9.13127 5.2631 9.07761 5.21002 9.01041 5.18202C8.9432 5.15402 8.86773 5.15329 8.8 5.18C8.15641 5.40551 7.56413 5.75684 7.05766 6.21352C6.5512 6.6702 6.14067 7.2231 5.85 7.84C5.32217 8.89735 5.1503 10.097 5.36 11.26C5.47397 11.9445 5.75422 12.5906 6.17616 13.1416C6.5981 13.6926 7.14882 14.1315 7.78 14.42Z" fill="black"/>
<path d="M16 15.05C16.6168 14.7669 17.1687 14.3597 17.6212 13.8539C18.0737 13.3481 18.4171 12.7544 18.63 12.11C18.825 11.5632 18.9363 10.9901 18.96 10.41C18.9926 9.8301 18.9284 9.24881 18.77 8.69C18.6007 8.02626 18.2756 7.41244 17.8217 6.89941C17.3678 6.38638 16.7982 5.98893 16.16 5.74C16.1263 5.72297 16.0894 5.71295 16.0517 5.71054C16.014 5.70813 15.9761 5.71338 15.9405 5.72598C15.9049 5.73858 15.8721 5.75827 15.8443 5.78386C15.8165 5.80944 15.7941 5.8404 15.7786 5.87486C15.7631 5.90932 15.7547 5.94657 15.7539 5.98436C15.7531 6.02215 15.76 6.05971 15.7742 6.09476C15.7883 6.12982 15.8094 6.16164 15.8362 6.18832C15.863 6.215 15.8949 6.23599 15.93 6.25C16.4205 6.52834 16.8416 6.91398 17.162 7.37808C17.4824 7.84218 17.6936 8.37272 17.78 8.93C17.8769 9.40349 17.9139 9.88729 17.89 10.37C17.8722 10.8536 17.7984 11.3334 17.67 11.8C17.5422 12.3537 17.3047 12.8762 16.9715 13.3365C16.6383 13.7969 16.2161 14.1857 15.73 14.48C15.6921 14.4972 15.658 14.5218 15.6298 14.5524C15.6016 14.583 15.5799 14.619 15.5659 14.6582C15.5519 14.6974 15.5459 14.739 15.5483 14.7805C15.5508 14.8221 15.5615 14.8627 15.58 14.9C15.6167 14.9747 15.6811 15.0322 15.7596 15.0602C15.838 15.0882 15.9242 15.0846 16 15.05Z" fill="black"/>
<path d="M11.8 10.52C12.3585 10.4618 12.9215 10.4618 13.48 10.52C13.68 10.58 13.82 10.74 13.95 11.06L14.05 11.51C14.0358 11.8626 13.9453 12.2079 13.7847 12.5221C13.6242 12.8363 13.3974 13.1119 13.12 13.33C12.8662 13.5593 12.5453 13.7006 12.2048 13.7331C11.8643 13.7655 11.5225 13.6873 11.23 13.51C11.0869 13.4189 10.9671 13.2956 10.88 13.15C10.7337 12.882 10.6132 12.6007 10.52 12.31C10.5076 12.2701 10.4873 12.2331 10.4602 12.2013C10.4332 12.1695 10.4 12.1434 10.3626 12.1248C10.3253 12.1061 10.2845 12.0952 10.2428 12.0926C10.2011 12.0901 10.1593 12.096 10.12 12.11C10.0425 12.1394 9.97896 12.1968 9.94191 12.271C9.90485 12.3451 9.89703 12.4304 9.92 12.51C10.0073 12.8556 10.1314 13.1908 10.29 13.51C10.4169 13.7487 10.5944 13.9569 10.81 14.12C11.0623 14.3111 11.3519 14.4474 11.66 14.52C11.6341 14.5847 11.614 14.6517 11.6 14.72C11.5898 14.8364 11.5898 14.9536 11.6 15.07C11.5848 15.1862 11.5848 15.3038 11.6 15.42C11.6388 15.7026 11.6922 15.9829 11.76 16.26C11.765 16.3423 11.8006 16.4198 11.8598 16.4772C11.919 16.5345 11.9976 16.5677 12.08 16.57C12.1649 16.57 12.2463 16.5363 12.3063 16.4763C12.3663 16.4163 12.4 16.3349 12.4 16.25C12.46 15.98 12.54 15.74 12.6 15.46V15.13C12.615 15.0138 12.615 14.8962 12.6 14.78V14.53C12.983 14.4283 13.3407 14.2478 13.65 14C14.0566 13.7102 14.3939 13.3339 14.6377 12.8982C14.8815 12.4624 15.0257 11.9781 15.06 11.48C15.0529 11.3186 15.0329 11.1581 15 11C15 10.87 14.93 10.74 14.89 10.61C14.8157 10.3332 14.6734 10.0794 14.4761 9.87155C14.2787 9.66373 14.0326 9.50851 13.76 9.42C13.1119 9.34938 12.4581 9.34938 11.81 9.42C11.5196 9.41945 11.2365 9.32859 11 9.16C10.8925 9.07674 10.8045 8.97091 10.7423 8.84997C10.6801 8.72902 10.6452 8.59591 10.64 8.46C10.6481 8.07189 10.7736 7.69533 11 7.38C11.2331 7.03329 11.5405 6.74291 11.9 6.53C12.0595 6.4206 12.2443 6.35395 12.4369 6.33644C12.6295 6.31893 12.8234 6.35115 13 6.43C13.1846 6.51788 13.3469 6.64623 13.475 6.80551C13.6032 6.96479 13.6937 7.1509 13.74 7.35C13.747 7.3859 13.7613 7.41998 13.7819 7.45019C13.8026 7.4804 13.8291 7.50611 13.86 7.52575C13.8908 7.54539 13.9254 7.55855 13.9615 7.56444C13.9976 7.57033 14.0345 7.56882 14.07 7.56C14.1061 7.55283 14.1405 7.5386 14.1711 7.51812C14.2018 7.49765 14.2281 7.47132 14.2485 7.44067C14.2689 7.41001 14.2831 7.37562 14.2902 7.33947C14.2974 7.30332 14.2973 7.26612 14.29 7.23C14.2366 6.93873 14.1192 6.66295 13.9463 6.42257C13.7733 6.18219 13.5492 5.98321 13.29 5.84C13.1025 5.7442 12.8992 5.68321 12.69 5.66C12.74 5.52 12.79 5.39 12.83 5.24C12.8404 5.15364 12.8404 5.06636 12.83 4.98C12.8399 4.89696 12.8399 4.81304 12.83 4.73C12.78 4.52 12.68 4.36 12.61 4.15C12.6127 4.11373 12.6081 4.07728 12.5963 4.04284C12.5846 4.0084 12.5661 3.97669 12.5418 3.94961C12.5175 3.92252 12.488 3.90062 12.455 3.88522C12.4221 3.86983 12.3864 3.86125 12.35 3.86C12.2763 3.85707 12.2043 3.88232 12.1485 3.93062C12.0928 3.97892 12.0576 4.04664 12.05 4.12C11.9512 4.31195 11.8708 4.51285 11.81 4.72C11.8002 4.80639 11.8002 4.89361 11.81 4.98C11.8057 5.06328 11.8057 5.14672 11.81 5.23C11.81 5.39 11.9 5.54 11.94 5.7C11.7956 5.73657 11.6549 5.7868 11.52 5.85C11.0391 6.08962 10.616 6.43082 10.28 6.85C9.92648 7.30481 9.71748 7.85518 9.68 8.43C9.67181 8.71333 9.72679 8.99494 9.84095 9.25438C9.9551 9.51383 10.1256 9.74462 10.34 9.93C10.7481 10.2826 11.2615 10.4901 11.8 10.52Z" fill="black"/>
<path d="M23.26 14.58C23.1 17.04 21.76 18.36 20.81 19.51C18.47 22.31 14.95 22.91 12.15 22.88C10.0611 22.8979 8.00017 22.3998 6.15 21.43C4.90745 20.7794 3.80888 19.8849 2.92 18.8C1.50324 17.0055 0.73182 14.7863 0.729996 12.5C0.729996 11.32 -0.0400036 11.39 -0.0400036 12.44C-0.223985 14.9474 0.579937 17.4274 2.2 19.35C3.11731 20.5747 4.27837 21.5962 5.61 22.35C7.61246 23.4425 9.85894 24.0101 12.14 24C15.14 24 19.01 23.23 21.5 20.12C22.82 18.42 24 17.16 24 13.91C23.83 13.32 23.49 13.41 23.26 14.58Z" fill="black"/>
<path d="M3.38999 16.6C3.89831 17.1215 4.45779 17.5905 5.05999 18C5.65505 18.3837 6.28046 18.7181 6.92999 19C7.78832 19.3906 8.69193 19.6727 9.61999 19.84C10.5395 20.0136 11.4743 20.0941 12.41 20.08C13.8917 20.0197 15.3647 19.8222 16.81 19.49C20.24 18.76 23.15 14.9 23.48 11.81C23.56 8.11 22.79 4.46 18.68 1.97C16.5006 0.568386 13.9296 -0.0984897 11.3437 0.0670659C8.7578 0.232622 6.29286 1.22191 4.30999 2.89C3.01646 3.85869 2.0161 5.16631 1.41957 6.66822C0.823045 8.17013 0.653603 9.80778 0.929989 11.4C1.18903 13.3471 2.04897 15.1648 3.38999 16.6ZM4.99999 3.7C6.81837 2.1661 9.07794 1.25105 11.4512 1.08743C13.8246 0.923818 16.1883 1.52015 18.2 2.79C19.4911 3.5372 20.586 4.58063 21.3945 5.83423C22.203 7.08782 22.7019 8.51567 22.85 10C23.24 14.66 19.01 18.4 15.94 19C14.7773 19.2273 13.5947 19.3379 12.41 19.33C11.5264 19.3296 10.6452 19.2391 9.77999 19.06C8.92027 18.8869 8.08433 18.6116 7.28999 18.24C6.68364 17.9548 6.10169 17.6203 5.54999 17.24C4.99203 16.8811 4.47261 16.4656 3.99999 16C0.119989 11.93 1.40999 6.76 4.99999 3.7Z" fill="black"/>
</g>
<defs>
<clipPath id="clip0_1049_7713">
<rect width="24" height="24" fill="white"/>
</clipPath>
</defs>
</svg>
