<svg width="24" height="24" viewBox="0 0 24 24" fill="none" xmlns="http://www.w3.org/2000/svg">
<g clip-path="url(#clip0_1049_7672)">
<path fill-rule="evenodd" clip-rule="evenodd" d="M23.26 3.72C22.7276 2.63101 21.9021 1.712 20.8763 1.06617C19.8505 0.420338 18.665 0.0732628 17.4529 0.0639147C16.2407 0.0545665 15.05 0.383316 14.0143 1.01325C12.9787 1.64318 12.1392 2.54935 11.59 3.63C9.96001 6.63 11.28 10.69 13.23 11.76C13.2648 11.7797 13.3031 11.7924 13.3428 11.7972C13.3825 11.8021 13.4228 11.7991 13.4613 11.7885C13.4999 11.7778 13.5359 11.7596 13.5674 11.735C13.599 11.7104 13.6253 11.6798 13.645 11.645C13.6647 11.6102 13.6774 11.5719 13.6822 11.5322C13.6871 11.4925 13.6841 11.4522 13.6735 11.4137C13.6628 11.3751 13.6446 11.3391 13.62 11.3076C13.5954 11.2761 13.5648 11.2497 13.53 11.23C11.92 10.23 10.91 6.59 12.42 4.1C12.8392 3.34532 13.4277 2.69818 14.1394 2.2095C14.851 1.72081 15.6664 1.40391 16.5212 1.28373C17.3761 1.16354 18.2472 1.24335 19.066 1.51686C19.8848 1.79038 20.629 2.25015 21.24 2.86C21.9934 3.57939 22.5304 4.49529 22.7902 5.50406C23.0499 6.51283 23.0222 7.57418 22.71 8.56798C22.3978 9.56178 21.8137 10.4483 21.0237 11.1273C20.2337 11.8063 19.2694 12.2507 18.24 12.41C17.35 12.5999 16.43 12.5999 15.54 12.41C15.4935 12.39 15.4432 12.3802 15.3926 12.3815C15.342 12.3828 15.2922 12.3951 15.2468 12.4174C15.2014 12.4398 15.1614 12.4718 15.1295 12.5111C15.0976 12.5505 15.0747 12.5963 15.0622 12.6453C15.0498 12.6944 15.0481 12.7456 15.0574 12.7954C15.0666 12.8452 15.0866 12.8924 15.1158 12.9337C15.1451 12.975 15.183 13.0095 15.2269 13.0347C15.2707 13.06 15.3196 13.0754 15.37 13.08C16.3536 13.3165 17.3764 13.3404 18.37 13.15C19.4048 13.0153 20.3916 12.6324 21.2463 12.0338C22.101 11.4353 22.7983 10.6389 23.2787 9.71254C23.759 8.78621 24.0082 7.75745 24.0049 6.71398C24.0017 5.67052 23.7461 4.64332 23.26 3.72Z" fill="black"/>
<path fill-rule="evenodd" clip-rule="evenodd" d="M19 17C19.0893 16.6558 19.0787 16.2932 18.9692 15.9549C18.8598 15.6165 18.6562 15.3164 18.3822 15.0896C18.1083 14.8629 17.7753 14.719 17.4225 14.6748C17.0696 14.6306 16.7114 14.6879 16.39 14.84C15.4802 15.3459 14.6703 16.0135 14 16.81C13.5 17.26 12.61 17.97 12.2 18.29L12.07 18.43C11.7603 18.4368 11.451 18.4032 11.15 18.33C10.55 18.18 10.03 18.12 9.82001 17.86C9.73001 17.75 9.82001 17.62 10 17.38C11.21 15.53 12.7 14.95 11.64 13.15C11.4803 12.8957 11.2392 12.7029 10.9559 12.603C10.6727 12.5031 10.3639 12.5021 10.08 12.6C8.56001 12.92 7.16001 14.35 5.64001 15.25C5.55912 15.2964 5.49998 15.3731 5.4756 15.4631C5.45122 15.5531 5.46359 15.6491 5.51001 15.73C5.55642 15.8109 5.63307 15.87 5.72308 15.8944C5.8131 15.9188 5.90912 15.9064 5.99001 15.86C7.59001 15 8.57001 14 9.93001 13.51C10.34 13.38 10.74 13.27 10.93 13.59C11.0263 13.7165 11.091 13.8641 11.1189 14.0207C11.1467 14.1772 11.1368 14.3381 11.09 14.49C10.73 15.49 8.03001 17.16 9.09001 18.49C9.56001 19.12 11.33 19.49 12.21 19.54C13.3644 19.517 14.5122 19.3593 15.63 19.07C18.68 18.29 19.03 17.78 19.39 18.52C19.67 19.11 18.44 19.97 17.91 20.36C13.84 23.45 7.00001 21.53 6.80001 21.58C4.42001 22.22 4.80001 22.19 4.80001 22.06C4.9389 20.3536 4.96562 18.6399 4.88001 16.93C4.88001 16.11 4.88001 15.07 4.28001 14.48C3.68001 13.89 2.73001 14.14 2.00001 14.13C1.39893 14.0469 0.786814 14.1016 0.210007 14.29C0.137072 14.3245 0.0808215 14.3865 0.0536287 14.4625C0.026436 14.5384 0.0305288 14.6221 0.065007 14.695C0.0994851 14.7679 0.161524 14.8242 0.237477 14.8514C0.313429 14.8786 0.397072 14.8745 0.470007 14.84C0.962299 14.7669 1.46377 14.7839 1.95001 14.89C2.54001 14.96 3.21001 14.8 3.54001 15.17C3.87001 15.54 3.70001 16.47 3.69001 16.94C3.59001 22.4 3.76001 22.59 3.48001 22.84C3.00001 23.26 1.27001 23.1 0.590007 23C0.503935 22.9901 0.417237 23.0124 0.346689 23.0627C0.27614 23.113 0.226756 23.1877 0.208093 23.2723C0.189429 23.3569 0.202811 23.4454 0.245651 23.5207C0.288491 23.5961 0.357743 23.6528 0.440007 23.68C1.44001 23.93 3.26001 24.21 4.06001 23.58C4.28726 23.3924 4.45421 23.1419 4.54001 22.86C5.31455 22.7385 6.07732 22.5512 6.82001 22.3C10.48 23.3 15.38 23.51 18.51 21.3C19.2466 20.849 19.8749 20.2413 20.35 19.52C20.4854 19.2709 20.5568 18.992 20.5577 18.7085C20.5586 18.425 20.4889 18.1456 20.355 17.8957C20.2211 17.6458 20.0272 17.4331 19.7907 17.2767C19.5541 17.1203 19.2824 17.0253 19 17ZM13.71 18.25C13.25 18.32 13.49 18.34 14.63 17.6C15.63 16.91 16.89 15.45 17.63 15.78C17.8695 15.8913 18.0615 16.0843 18.1714 16.3244C18.2814 16.5645 18.3022 16.836 18.23 17.09C16.41 17.55 15.4 18 13.74 18.27L13.71 18.25Z" fill="black"/>
<path fill-rule="evenodd" clip-rule="evenodd" d="M15.12 4.39C15.0868 4.41584 15.0603 4.44936 15.0429 4.48768C15.0255 4.526 15.0176 4.56797 15.02 4.61C15.02 4.68 14.76 7.93 14.77 8C14.77 9 15.28 9.32 16.29 9.51C16.07 10.09 16.51 10.71 16.73 10.71C16.95 10.71 17.27 9.9 17.1 9.6C17.3231 9.61457 17.5469 9.61457 17.77 9.6C17.77 9.91 17.85 10.79 18.23 10.79C18.61 10.79 18.87 9.91 18.66 9.45C19.0231 9.39781 19.3589 9.22753 19.6155 8.96545C19.8722 8.70338 20.0354 8.36409 20.08 8C20.1073 7.71434 20.0521 7.42683 19.921 7.17159C19.7898 6.91635 19.5882 6.70409 19.34 6.56C20.2 5.9 20.14 4.42 18.4 4.14C18.67 3.4 18.4 3.46 18.4 2.93C18.3974 2.86279 18.3689 2.7992 18.3204 2.75258C18.2719 2.70597 18.2073 2.67995 18.14 2.68C18 2.68 17.93 2.75 17.82 2.84C17.7002 3.05967 17.6127 3.29541 17.56 3.54C17.5408 3.72222 17.5613 3.90644 17.62 4.08C16.79 4.08 16.77 4.16 16.82 4.08C16.8981 3.90416 16.9324 3.71201 16.92 3.52C16.8 2.52 16.7 2.72 16.57 2.65C16.44 2.58 16.02 3.14 15.95 3.48C15.9354 3.58282 15.9354 3.68719 15.95 3.79V3.96L16 4.25C15.08 4.38 15.24 4.3 15.12 4.39ZM18.8 8.39C17.8138 8.82174 16.7031 8.87514 15.68 8.54C15.38 8.29 15.46 7.44 15.5 6.99C16.11 7.09 18.37 6.99 18.88 7.44C18.9524 7.49749 19.0094 7.572 19.046 7.65689C19.0825 7.74177 19.0975 7.83438 19.0896 7.92647C19.0817 8.01856 19.0511 8.10725 19.0006 8.18464C18.95 8.26203 18.8811 8.32571 18.8 8.37V8.39ZM16.52 4.76C17.18 4.76 18.98 4.7 19.06 5.34C19.14 5.98 18.28 6.14 17.6 6.15C15.34 5.9 15.6 6.38 15.6 5.89V4.94C15.77 4.88 15.39 4.92 16.52 4.76Z" fill="black"/>
</g>
<defs>
<clipPath id="clip0_1049_7672">
<rect width="24" height="24" fill="white"/>
</clipPath>
</defs>
</svg>
