<svg width="24" height="24" viewBox="0 0 24 24" fill="none" xmlns="http://www.w3.org/2000/svg">
<g clip-path="url(#clip0_1049_7707)">
<path d="M7.22995 7.5C7.69396 7.67024 8.18585 7.75165 8.67996 7.74C9.31787 7.70485 9.95085 7.60773 10.57 7.45C10.48 7.81 10.37 8.13 10.31 8.45C10.3003 8.60318 10.3003 8.75681 10.31 8.91C10.2996 9.06316 10.2996 9.21684 10.31 9.37C10.3743 9.72755 10.4577 10.0814 10.56 10.43C10.5624 10.4717 10.5733 10.5124 10.5919 10.5497C10.6105 10.5871 10.6365 10.6203 10.6682 10.6474C10.7 10.6744 10.7369 10.6948 10.7767 10.7073C10.8165 10.7198 10.8584 10.7241 10.9 10.72C10.942 10.7162 10.983 10.7042 11.0204 10.6845C11.0578 10.6649 11.0909 10.638 11.1179 10.6054C11.1449 10.5729 11.1651 10.5353 11.1775 10.4949C11.1898 10.4545 11.1941 10.4121 11.19 10.37C11.19 10.02 11.28 9.69 11.32 9.37V8.93C11.3299 8.7835 11.3299 8.63649 11.32 8.49C11.32 8.14 11.19 7.81 11.12 7.49C11.1233 7.43156 11.1075 7.37364 11.075 7.32494C11.0426 7.27624 10.9952 7.23941 10.94 7.22C10.9547 7.17108 10.9547 7.11891 10.94 7.07C10.9328 7.03386 10.9186 6.99949 10.8981 6.96885C10.8776 6.93822 10.8513 6.91194 10.8206 6.8915C10.79 6.87106 10.7556 6.85687 10.7194 6.84975C10.6833 6.84263 10.6461 6.84271 10.61 6.85C9.95175 6.98519 9.28188 7.05553 8.60995 7.06C8.20053 7.04839 7.79691 6.9602 7.41995 6.8C7.07995 6.65 6.99995 6.4 6.99995 6.15C7.05562 5.98382 7.14852 5.83256 7.27157 5.70777C7.39463 5.58299 7.54457 5.48798 7.70995 5.43C8.33194 5.30637 8.96626 5.25602 9.59996 5.28C11.3 5.28 13.5 5.28 14.22 5.38C14.9716 5.36682 15.7225 5.43386 16.46 5.58C16.82 5.68 17.15 5.83 17.21 6.19C17.27 6.55 16.97 6.75 16.6 6.89C15.8448 7.12102 15.0596 7.23897 14.27 7.24H13.58C13.4268 7.24248 13.2763 7.28012 13.14 7.35C12.9836 7.46988 12.8532 7.62039 12.757 7.79232C12.6607 7.96425 12.6004 8.15401 12.58 8.35C12.4846 9.01219 12.4611 9.68276 12.51 10.35C12.5124 10.3917 12.5233 10.4324 12.5419 10.4697C12.5605 10.5071 12.5865 10.5403 12.6182 10.5674C12.65 10.5944 12.6869 10.6148 12.7267 10.6273C12.7665 10.6398 12.8084 10.6441 12.85 10.64C12.8907 10.6375 12.9305 10.6269 12.9672 10.6089C13.0038 10.5909 13.0366 10.5659 13.0635 10.5352C13.0904 10.5046 13.1111 10.4689 13.1242 10.4302C13.1373 10.3916 13.1427 10.3507 13.14 10.31C13.1218 9.77504 13.152 9.23954 13.23 8.71C13.29 8.38 13.33 8.07 13.49 7.99H14.28C15.3337 8.04404 16.387 7.87361 17.37 7.49C17.6486 7.36419 17.878 7.15002 18.0226 6.88066C18.1673 6.6113 18.219 6.30177 18.17 6C18.1274 5.72108 18.0128 5.45811 17.8374 5.23711C17.662 5.01611 17.4319 4.84475 17.17 4.74C16.2357 4.41302 15.2493 4.26049 14.26 4.29C13.61 4.29 11.81 4.17 10.26 4.22C9.31955 4.20794 8.3816 4.31888 7.46995 4.55C7.16353 4.6751 6.89176 4.87219 6.67765 5.1246C6.46355 5.377 6.31341 5.67727 6.23995 6C6.20497 6.1636 6.20292 6.33253 6.23391 6.49693C6.26491 6.66133 6.32833 6.81792 6.42049 6.95754C6.51264 7.09717 6.63168 7.21705 6.77066 7.31019C6.90964 7.40332 7.06577 7.46785 7.22995 7.5Z" fill="black"/>
<path d="M7.17999 12.55C8.21654 12.8292 9.27856 13.0035 10.35 13.07H10.4L10.21 14.67C10.21 14.95 10.08 15.44 10.08 15.85C10.0818 16.1022 10.1471 16.3498 10.27 16.57C10.4128 16.7855 10.6102 16.9592 10.8421 17.0734C11.074 17.1876 11.3321 17.2382 11.59 17.22C11.8527 17.2069 12.1061 17.1189 12.3205 16.9666C12.5348 16.8142 12.7012 16.6038 12.8 16.36C12.9117 16.0384 12.9692 15.7005 12.97 15.36C12.9428 14.6488 12.8659 13.9405 12.74 13.24C12.749 13.2005 12.749 13.1595 12.74 13.12C13.0667 13.12 13.4 13.09 13.74 13.03C14.8596 12.8945 15.9426 12.5448 16.93 12C17.0985 11.9136 17.242 11.7856 17.347 11.628C17.4521 11.4705 17.515 11.2887 17.53 11.1C17.5255 10.8539 17.4601 10.6128 17.3397 10.3982C17.2193 10.1836 17.0476 10.0021 16.84 9.87C16.5423 9.65496 16.2009 9.50815 15.84 9.44C15.3476 9.36053 14.8484 9.33038 14.35 9.35001C14.3084 9.34866 14.2671 9.35569 14.2283 9.37067C14.1895 9.38565 14.1541 9.40827 14.1243 9.43719C14.0944 9.46611 14.0707 9.50074 14.0545 9.53902C14.0383 9.57729 14.03 9.61844 14.03 9.66C14.0287 9.70155 14.0357 9.74294 14.0507 9.78171C14.0656 9.82048 14.0883 9.85585 14.1172 9.8857C14.1461 9.91555 14.1807 9.93929 14.219 9.95549C14.2573 9.97169 14.2984 9.98003 14.34 9.98C14.7938 9.98612 15.2459 10.0364 15.69 10.13C15.9496 10.1818 16.193 10.295 16.4 10.46C16.5714 10.5851 16.6949 10.7651 16.75 10.97C16.75 11.09 16.68 11.18 16.53 11.26C15.8015 11.626 15.0177 11.8693 14.21 11.98C12.9718 12.167 11.7143 12.1905 10.47 12.05C9.45953 12.0057 8.45529 11.8684 7.46999 11.64C6.885 11.5271 6.36187 11.2033 5.99999 10.73C5.99999 10.66 5.99999 10.62 6.09999 10.57C6.21724 10.476 6.34471 10.3955 6.47999 10.33C6.97161 10.0785 7.50258 9.91277 8.04999 9.84C8.61175 9.78399 9.17884 9.81774 9.72999 9.94C9.76659 9.953 9.80549 9.95824 9.84422 9.9554C9.88295 9.95255 9.92066 9.94168 9.95497 9.92348C9.98927 9.90527 10.0194 9.88013 10.0435 9.84965C10.0675 9.81917 10.085 9.78401 10.0947 9.74642C10.1045 9.70883 10.1063 9.66962 10.1001 9.63129C10.0939 9.59295 10.0797 9.55633 10.0586 9.52376C10.0375 9.49118 10.0098 9.46335 9.97731 9.44205C9.94484 9.42074 9.90829 9.40642 9.86999 9.4C9.26291 9.22477 8.63117 9.15045 7.99999 9.18001C7.3626 9.21915 6.73675 9.368 6.14999 9.62C5.74229 9.76201 5.39148 10.0321 5.14999 10.39C5.08939 10.5093 5.0578 10.6412 5.0578 10.775C5.0578 10.9088 5.08939 11.0407 5.14999 11.16C5.38033 11.5138 5.6782 11.8187 6.02654 12.0572C6.37487 12.2957 6.76684 12.4632 7.17999 12.55ZM12.18 13.13C12.1752 13.1699 12.1752 13.2101 12.18 13.25V15C12.1727 15.3456 12.0944 15.686 11.95 16C11.9145 16.0575 11.8642 16.1046 11.8045 16.1362C11.7447 16.1679 11.6776 16.183 11.61 16.18C11.5406 16.1896 11.4699 16.1808 11.4049 16.1545C11.34 16.1281 11.2831 16.0852 11.24 16.03C11.1846 15.9183 11.1571 15.7947 11.16 15.67V14.67C11.16 14.41 11 14 11 13.65V13.11C11.35 13.13 11.73 13.14 12.13 13.13H12.18Z" fill="black"/>
<path d="M23.26 14.58C23.1 17.04 21.76 18.36 20.81 19.51C18.47 22.31 14.95 22.91 12.15 22.88C10.0611 22.8979 8.00015 22.3998 6.14998 21.43C4.90743 20.7794 3.80886 19.8849 2.91998 18.8C1.50323 17.0055 0.731804 14.7863 0.729981 12.5C0.729981 11.32 -0.0400189 11.39 -0.0400189 12.44C-0.224 14.9474 0.579922 17.4274 2.19998 19.35C3.1173 20.5747 4.27835 21.5962 5.60998 22.35C7.61245 23.4425 9.85892 24.0101 12.14 24C15.14 24 19.01 23.23 21.5 20.12C22.82 18.42 24 17.16 24 13.91C23.83 13.32 23.49 13.41 23.26 14.58Z" fill="black"/>
<path d="M3.38997 16.6C3.89829 17.1215 4.45778 17.5905 5.05997 18C5.65504 18.3837 6.28045 18.7181 6.92997 19C7.7883 19.3906 8.69192 19.6727 9.61997 19.84C10.5395 20.0136 11.4743 20.0941 12.41 20.08C13.8917 20.0197 15.3647 19.8222 16.81 19.49C20.24 18.76 23.15 14.9 23.48 11.81C23.56 8.11 22.79 4.46 18.68 1.97C16.5006 0.568386 13.9296 -0.0984897 11.3437 0.0670659C8.75779 0.232622 6.29285 1.22191 4.30997 2.89C3.01645 3.85869 2.01608 5.16631 1.41956 6.66822C0.82303 8.17013 0.653587 9.80778 0.929974 11.4C1.18902 13.3471 2.04895 15.1648 3.38997 16.6ZM4.99997 3.7C6.81836 2.1661 9.07792 1.25105 11.4512 1.08743C13.8245 0.923818 16.1883 1.52015 18.2 2.79C19.491 3.5372 20.586 4.58063 21.3945 5.83423C22.203 7.08782 22.7019 8.51567 22.85 10C23.24 14.66 19.01 18.4 15.94 19C14.7772 19.2273 13.5947 19.3379 12.41 19.33C11.5264 19.3296 10.6452 19.2391 9.77997 19.06C8.92025 18.8869 8.08432 18.6116 7.28997 18.24C6.68362 17.9548 6.10167 17.6203 5.54997 17.24C4.99202 16.8811 4.4726 16.4656 3.99997 16C0.119974 11.93 1.40997 6.76 4.99997 3.7Z" fill="black"/>
</g>
<defs>
<clipPath id="clip0_1049_7707">
<rect width="24" height="24" fill="white"/>
</clipPath>
</defs>
</svg>
