<svg width="24" height="24" viewBox="0 0 24 24" fill="none" xmlns="http://www.w3.org/2000/svg">
<g clip-path="url(#clip0_1049_7677)">
<path fill-rule="evenodd" clip-rule="evenodd" d="M23.36 14.27C22.8955 13.1994 22.1369 12.2825 21.1723 11.6257C20.2076 10.9688 19.0764 10.5991 17.9101 10.5593C16.7437 10.5195 15.59 10.8113 14.5828 11.4009C13.5757 11.9904 12.7564 12.8535 12.22 13.89C10.6 16.75 11.76 20.76 13.6 21.89C13.6676 21.9324 13.7493 21.9463 13.8272 21.9285C13.8657 21.9196 13.9021 21.9033 13.9344 21.8804C13.9666 21.8575 13.994 21.8285 14.015 21.795C14.036 21.7615 14.0502 21.7242 14.0568 21.6852C14.0634 21.6463 14.0623 21.6064 14.0534 21.5678C14.0446 21.5293 14.0283 21.4929 14.0054 21.4606C13.9825 21.4284 13.9535 21.401 13.92 21.38C12.42 20.38 11.53 16.81 13.03 14.38C13.4318 13.6603 13.9982 13.046 14.6831 12.5873C15.3679 12.1287 16.1516 11.8387 16.9701 11.7411C17.7885 11.6436 18.6184 11.7412 19.3919 12.0261C20.1653 12.311 20.8603 12.7749 21.42 13.38C24.32 16.63 23.01 21.74 18.35 22.59C17.5072 22.78 16.6328 22.78 15.79 22.59C15.7025 22.5661 15.6091 22.578 15.5303 22.623C15.4515 22.668 15.3939 22.7425 15.37 22.83C15.3461 22.9175 15.358 23.0109 15.403 23.0897C15.448 23.1685 15.5225 23.2261 15.61 23.25C16.5456 23.5015 17.5243 23.5492 18.48 23.39C19.4881 23.2697 20.4523 22.908 21.2908 22.3355C22.1292 21.763 22.8171 20.9966 23.2961 20.1014C23.7751 19.2063 24.031 18.2087 24.0422 17.1935C24.0533 16.1783 23.8193 15.1754 23.36 14.27Z" fill="black"/>
<path fill-rule="evenodd" clip-rule="evenodd" d="M8.78 8.4C9.0629 8.21901 9.38542 8.10922 9.72 8.08C9.65 8.26 10.08 8.51 10.17 8.62C10.9712 9.47339 11.9658 10.1216 13.07 10.51C13.3831 10.5279 13.6921 10.432 13.94 10.24C14.8323 9.51396 15.6558 8.70721 16.4 7.83L16.52 9.17C16.5339 9.25143 16.5762 9.32531 16.6393 9.37857C16.7024 9.43184 16.7824 9.46105 16.865 9.46105C16.9476 9.46105 17.0275 9.43184 17.0907 9.37857C17.1538 9.32531 17.1961 9.25143 17.21 9.17C17.21 8.56 17.37 7.1 17.4 6.7C17.93 6.09 20.08 3.52 20.34 3.03C20.3802 2.97665 20.4043 2.9129 20.4094 2.8463C20.4145 2.77969 20.4005 2.71301 20.369 2.65413C20.3374 2.59524 20.2897 2.54661 20.2314 2.51399C20.1731 2.48136 20.1067 2.4661 20.04 2.47C19.71 2.47 19.39 3.15 19.19 3.39C18.76 3.88 18.19 4.57 17.47 5.31C17.47 4.07 17.39 3.1 17.37 2.19C17.3766 2.11044 17.3514 2.0315 17.2998 1.97055C17.2482 1.9096 17.1746 1.87163 17.095 1.865C17.0154 1.85837 16.9365 1.88362 16.8755 1.93519C16.8146 1.98676 16.7766 2.06044 16.77 2.14C16.4464 3.58723 16.2921 5.06715 16.31 6.55C15.59 7.29 14.87 8.02 14.31 8.55C13.18 9.55 13.61 9.73 12.17 8.77C11.7987 8.52673 11.4623 8.23404 11.17 7.9C10.75 7.38 10.45 6.51 8.87 7.15C8.87 6.87 8.72 2.55 8.72 2.55C8.72 2.47044 8.68839 2.39413 8.63213 2.33787C8.57587 2.28161 8.49956 2.25 8.42 2.25C8.34043 2.25 8.26412 2.28161 8.20786 2.33787C8.1516 2.39413 8.12 2.47044 8.12 2.55C8.12 2.55 7.8 7.23 7.77 7.71C5.63 9.07 5.64 9.37 2.15 12.5C2.36218 9.56508 2.42226 6.62114 2.33 3.68C2.28 1.33 2.23 1.95 2.33 2.1C2.72445 2.54671 3.22228 2.89004 3.78 3.1C3.85999 3.12686 3.947 3.12392 4.02499 3.09171C4.10299 3.05951 4.16672 3.00021 4.20446 2.92473C4.24219 2.84926 4.25139 2.76269 4.23036 2.68097C4.20933 2.59925 4.15948 2.52788 4.09 2.48C3.25 1.96 3.14 1.39 2.79 0.950002C2.73911 0.859561 2.66901 0.781375 2.58464 0.720949C2.50027 0.660524 2.40369 0.619327 2.30168 0.60026C2.19967 0.581193 2.09472 0.584719 1.99422 0.61059C1.89372 0.636462 1.80012 0.684049 1.72 0.750002C1.16565 1.24628 0.71088 1.84359 0.379997 2.51C0.226659 2.78761 0.0994455 3.07886 -3.41935e-06 3.38C-0.00947196 3.43745 -0.00202161 3.4964 0.0214392 3.54969C0.0448999 3.60297 0.0833573 3.64827 0.132122 3.68008C0.180887 3.71188 0.237852 3.72881 0.29607 3.72879C0.354289 3.72878 0.411246 3.71183 0.459997 3.68C0.549997 3.63 1.56 2.5 1.63 2.41C1.56 7.52 0.509997 17.57 0.539997 19.86C0.539997 21.64 2.86 21.21 10.05 21.1C10.1402 21.1 10.2267 21.0642 10.2904 21.0004C10.3542 20.9367 10.39 20.8502 10.39 20.76C10.39 20.6698 10.3542 20.5833 10.2904 20.5196C10.2267 20.4558 10.1402 20.42 10.05 20.42C9.05 20.42 2.05 20.42 1.63 19.97C1.71 19.97 1.85 16.68 1.85 16.6C2.14 13.1 2.07 13.43 2.15 13.37C6.23 10.12 6.41 9.77 7.69 9C7.54 11.46 7.64 19.91 7.64 20C7.64663 20.0928 7.68986 20.1792 7.76019 20.2402C7.79501 20.2703 7.83543 20.2934 7.87915 20.3079C7.92287 20.3225 7.96903 20.3283 8.015 20.325C8.06096 20.3217 8.10583 20.3094 8.14703 20.2888C8.18824 20.2682 8.22498 20.2396 8.25516 20.2048C8.28534 20.17 8.30836 20.1296 8.32292 20.0858C8.33748 20.0421 8.34328 19.996 8.34 19.95C8.41 19.95 8.34 19.64 8.34 19.53C8.43 17.63 8.8 13.21 8.78 8.4Z" fill="black"/>
<path fill-rule="evenodd" clip-rule="evenodd" d="M15.47 15C15.4369 15.0237 15.4104 15.0553 15.3929 15.0921C15.3754 15.1288 15.3675 15.1694 15.37 15.21C15.37 15.28 15.11 18.47 15.12 18.53C15.12 19.53 15.63 19.83 16.61 20.02C16.39 20.58 16.83 21.19 17.04 21.19C17.25 21.19 17.58 20.4 17.41 20.11H18.07C18.07 20.41 18.14 21.27 18.51 21.27C18.88 21.27 19.14 20.4 18.93 19.95C19.2872 19.9029 19.6182 19.7375 19.8702 19.48C20.1222 19.2226 20.2806 18.8881 20.32 18.53C20.3496 18.2505 20.2973 17.9684 20.1694 17.7181C20.0416 17.4677 19.8438 17.26 19.6 17.12C20.43 16.49 20.4 15.03 18.68 14.76C18.94 14.02 18.68 14.08 18.68 13.57C18.68 13.5037 18.6537 13.4401 18.6068 13.3932C18.5599 13.3463 18.4963 13.32 18.43 13.32C18.29 13.27 18.22 13.39 18.11 13.48C17.9933 13.6965 17.9091 13.929 17.86 14.17C17.8408 14.3456 17.8613 14.5233 17.92 14.69C17.11 14.69 17.08 14.77 17.13 14.69C17.2523 14.2491 17.2059 13.7785 17 13.37C17 13.26 16.86 13.27 16.81 13.24C16.76 13.21 16.6 13.24 16.45 13.48C16.3 13.72 16.12 14 16.29 14.81C15.43 15 15.58 14.9 15.47 15ZM19.07 18.9C18.0947 19.3139 17.0002 19.3496 16 19C15.71 18.76 15.79 17.92 15.83 17.48C16.43 17.58 18.64 17.48 19.15 17.93C19.2292 17.9863 19.2923 18.0623 19.3333 18.1505C19.3742 18.2386 19.3915 18.3359 19.3834 18.4328C19.3753 18.5296 19.3422 18.6227 19.2872 18.7029C19.2323 18.7831 19.1574 18.8475 19.07 18.89V18.9ZM16.84 15.36C17.47 15.36 19.25 15.3 19.33 15.93C19.41 16.56 18.56 16.71 17.9 16.72C15.68 16.48 15.9 16.95 15.9 16.47V15.53C16.14 15.46 15.73 15.5 16.84 15.35V15.36Z" fill="black"/>
</g>
<defs>
<clipPath id="clip0_1049_7677">
<rect width="24" height="24" fill="white"/>
</clipPath>
</defs>
</svg>
