<svg width="24" height="24" viewBox="0 0 24 24" fill="none" xmlns="http://www.w3.org/2000/svg">
<g clip-path="url(#clip0_1049_7721)">
<path fill-rule="evenodd" clip-rule="evenodd" d="M10.912 10.655C10.907 10.758 10.927 10.9 10.966 11.045C10.618 11.077 10.238 11.132 9.824 11.214C9.76949 11.2195 9.71661 11.2357 9.66836 11.2616C9.62011 11.2876 9.57745 11.3228 9.54281 11.3652C9.50817 11.4077 9.48224 11.4565 9.46648 11.509C9.45073 11.5614 9.44547 11.6165 9.451 11.671L9.453 11.682C9.01532 13.392 9.00262 15.183 9.416 16.899C9.41971 16.9671 9.44006 17.0333 9.47528 17.0917C9.5105 17.1501 9.5595 17.1989 9.618 17.234C9.67589 17.3095 9.75768 17.3631 9.85 17.386C10.2 17.491 10.557 17.563 10.918 17.6C10.923 17.666 10.936 17.755 10.958 17.89L10.988 18.093C11.057 18.577 11.106 18.925 11.541 18.963C12.135 19.011 12.264 18.129 12.216 17.587C12.9559 17.4961 13.6711 17.2625 14.322 16.899C14.5782 16.707 14.7796 16.4512 14.906 16.1571C15.0324 15.8629 15.0794 15.5408 15.0424 15.2228C15.0053 14.9048 14.8855 14.6021 14.6949 14.3448C14.5042 14.0876 14.2495 13.8849 13.956 13.757L13.836 13.737C14.6 12.741 14.41 11.215 12.152 11.03C12.192 10.89 12.216 10.755 12.216 10.65C12.216 10.37 12.051 9.895 11.83 9.703C11.755 9.63774 11.6582 9.60314 11.5589 9.60611C11.4595 9.60908 11.3649 9.64939 11.294 9.719C11.091 9.919 10.931 10.382 10.912 10.655ZM10.297 12.042C10.363 12.616 10.404 13.192 10.418 13.768L10.448 13.765C10.4772 13.7588 10.5071 13.7561 10.537 13.757L10.573 13.753C10.759 13.72 10.946 13.693 11.133 13.67C11.5809 13.5868 12.0204 13.4633 12.446 13.301C13.346 12.869 13.29 12.066 10.297 12.042ZM11.542 14.644C11.167 14.655 10.7918 14.6289 10.422 14.566C10.4108 15.2477 10.3634 15.9283 10.28 16.605C11.824 16.721 14.996 15.89 13.363 14.854C13.791 14.854 12.527 14.734 11.542 14.644Z" fill="black"/>
<path fill-rule="evenodd" clip-rule="evenodd" d="M6.38299 8.774C3.38099 8.724 3.20299 10.467 2.98099 13.187C2.43799 20.128 4.30599 20.605 6.85699 20.833C7.65399 20.913 9.13399 20.96 10.682 20.986C10.622 21.282 10.627 21.683 10.691 22.673C9.43552 22.6522 8.17971 22.6658 6.92499 22.714C6.58499 22.726 6.29199 22.737 5.98299 22.74C5.88105 22.7362 5.7816 22.772 5.70546 22.8399C5.62932 22.9078 5.5824 23.0025 5.57452 23.1042C5.56663 23.2059 5.5984 23.3067 5.66317 23.3855C5.72794 23.4643 5.82069 23.515 5.92199 23.527C9.43699 24.103 13.019 24.153 16.55 23.675C16.661 23.6718 16.7662 23.6247 16.8424 23.5439C16.9186 23.4632 16.9597 23.3555 16.9565 23.2445C16.9533 23.1335 16.9062 23.0283 16.8254 22.9521C16.7447 22.8759 16.637 22.8348 16.526 22.838C14.597 22.763 13.071 22.718 11.845 22.692C11.864 22.462 11.881 22.272 11.896 22.11C11.948 21.538 11.968 21.321 11.906 21.003C13.387 21.018 14.783 21.015 15.546 21.005C20.675 21.005 20.9 18.255 20.46 12.671C20.176 8.994 18.87 8.562 16.11 8.607C15.9997 8.607 15.8939 8.65083 15.8158 8.72885C15.7378 8.80686 15.694 8.91267 15.694 9.023C15.694 9.13333 15.7378 9.23914 15.8158 9.31716C15.8939 9.39517 15.9997 9.439 16.11 9.439L16.394 9.443C17.164 9.453 18.144 9.463 18.611 9.969C19.639 11.095 19.491 15.267 19.308 16.745C18.916 19.884 17.925 19.86 12.669 19.734C11.9051 19.7144 11.1411 19.6984 10.377 19.686C9.99799 19.68 9.63199 19.678 9.27899 19.676C6.76599 19.666 4.95999 19.658 4.49099 18.268C4.02863 15.906 3.92513 13.4878 4.18399 11.095C4.22416 10.7533 4.3656 10.4314 4.59013 10.1707C4.81466 9.91 5.11202 9.7224 5.44399 9.632C5.65345 9.58547 5.86743 9.56233 6.08199 9.563C6.47699 9.551 6.77999 9.542 6.76899 9.155C6.76544 9.05422 6.72349 8.95862 6.65172 8.88778C6.57995 8.81694 6.48381 8.77624 6.38299 8.774Z" fill="black"/>
<path fill-rule="evenodd" clip-rule="evenodd" d="M11.03 0.073003C11.5927 -0.0699861 12.1883 -0.000560999 12.703 0.268003C12.7535 0.28605 12.7998 0.314184 12.839 0.35069C12.8783 0.387196 12.9097 0.431312 12.9313 0.480349C12.953 0.529387 12.9645 0.58232 12.965 0.635925C12.9655 0.68953 12.9552 0.742686 12.9345 0.792154C12.9139 0.841623 12.8834 0.886368 12.8448 0.923667C12.8063 0.960965 12.7606 0.990035 12.7105 1.00911C12.6604 1.02818 12.607 1.03685 12.5534 1.0346C12.4999 1.03235 12.4473 1.01921 12.399 0.996003C12.222 0.912694 12.0288 0.869608 11.8331 0.869839C11.6375 0.87007 11.4444 0.913612 11.2676 0.997338C11.0908 1.08106 10.9347 1.2029 10.8106 1.35409C10.6865 1.50528 10.5974 1.68209 10.5497 1.8718C10.502 2.06152 10.4969 2.25944 10.5348 2.45135C10.5727 2.64327 10.6525 2.82442 10.7687 2.9818C10.8849 3.13917 11.0345 3.26887 11.2068 3.36158C11.379 3.45429 11.5697 3.50771 11.765 3.518C12.881 3.433 13.559 2.53 13.045 1.579C12.9916 1.48631 12.976 1.37663 13.0014 1.27273C13.0268 1.16883 13.0912 1.07869 13.1813 1.02104C13.2713 0.963382 13.3802 0.94264 13.4852 0.963117C13.5901 0.983595 13.6832 1.04372 13.745 1.131C14.95 2.727 13.68 4.527 12.059 4.754C12.2107 6.01986 12.1201 7.30303 11.792 8.535C11.7896 8.64533 11.7435 8.7502 11.6638 8.82652C11.5841 8.90285 11.4773 8.94439 11.367 8.942C11.2567 8.93962 11.1518 8.8935 11.0755 8.8138C10.9992 8.73409 10.9576 8.62733 10.96 8.517C10.7067 7.24953 10.7461 5.94098 11.075 4.691C10.7097 4.58767 10.3712 4.40614 10.083 4.159C9.75289 3.87857 9.50632 3.5127 9.37031 3.10147C9.23429 2.69023 9.21407 2.2495 9.31187 1.82754C9.40967 1.40558 9.6217 1.01867 9.92476 0.7092C10.2278 0.399727 10.6102 0.179625 11.03 0.073003Z" fill="black"/>
<path fill-rule="evenodd" clip-rule="evenodd" d="M0.320007 4.41C0.578709 3.87478 1.03787 3.46305 1.59801 3.264C1.9004 3.108 2.23318 3.01982 2.57315 3.00562C2.91312 2.99141 3.2521 3.05153 3.56645 3.18176C3.88081 3.312 4.16298 3.50922 4.3933 3.75969C4.62361 4.01016 4.79653 4.30785 4.90001 4.632C5.01201 4.615 5.14301 4.599 5.30001 4.581L5.60901 4.543C8.72901 4.158 8.52201 6.313 8.38901 7.689C8.35401 8.055 8.32501 8.366 8.36401 8.559C8.38141 8.6112 8.38836 8.66631 8.38445 8.7212C8.38055 8.77609 8.36588 8.82966 8.34127 8.87888C8.31667 8.9281 8.28261 8.97198 8.24104 9.00803C8.19947 9.04409 8.15121 9.0716 8.09901 9.089C7.47601 9.302 7.35101 8.199 7.23501 7.179C7.2061 6.89457 7.16842 6.6111 7.12201 6.329C7.07701 6.083 7.05601 5.951 6.98001 5.871C6.82001 5.702 6.41101 5.769 5.00501 5.501C4.96797 6.07028 4.7343 6.60901 4.34396 7.02506C3.95363 7.44111 3.43087 7.70862 2.86511 7.78185C2.29934 7.85508 1.7257 7.72948 1.2423 7.42653C0.758903 7.12357 0.39577 6.66209 0.215007 6.121C0.0239555 5.559 0.0616717 4.94441 0.320007 4.41ZM3.72901 4.482C3.54054 4.18267 3.24091 3.97045 2.89601 3.892L2.88601 3.889C1.20001 3.889 0.670007 5.984 2.30301 6.493C2.56016 6.55156 2.82891 6.53258 3.07528 6.43845C3.32166 6.34433 3.5346 6.17929 3.68721 5.96418C3.83981 5.74908 3.92523 5.49356 3.93267 5.22993C3.94011 4.96629 3.86924 4.70537 3.72901 4.482Z" fill="black"/>
<path fill-rule="evenodd" clip-rule="evenodd" d="M19.776 4.585C20.2246 4.17951 20.8063 3.95252 21.411 3.947C21.5076 3.95398 21.5983 3.99623 21.6658 4.06572C21.7333 4.1352 21.773 4.22707 21.7772 4.32386C21.7814 4.42064 21.7498 4.5156 21.6886 4.59067C21.6274 4.66573 21.5407 4.71568 21.445 4.731C19.747 4.946 19.53 7.306 21.085 7.553C21.4046 7.60374 21.7321 7.54624 22.0153 7.38962C22.2985 7.23301 22.5213 6.98626 22.6483 6.68856C22.7752 6.39086 22.7991 6.05928 22.7161 5.74647C22.633 5.43366 22.4479 5.15756 22.19 4.962C22.0969 4.91093 22.0268 4.82618 21.9942 4.72512C21.9615 4.62407 21.9688 4.51435 22.0144 4.41845C22.0601 4.32256 22.1407 4.24776 22.2397 4.20937C22.3387 4.17099 22.4487 4.17193 22.547 4.212C22.9304 4.40538 23.2568 4.69529 23.4941 5.05319C23.7314 5.41108 23.8713 5.82461 23.9002 6.25304C23.929 6.68147 23.8458 7.11003 23.6586 7.49651C23.4715 7.88298 23.1869 8.21404 22.8329 8.45708C22.4789 8.70012 22.0677 8.84675 21.6398 8.88253C21.2118 8.91832 20.782 8.84202 20.3925 8.66116C20.0031 8.48029 19.6675 8.2011 19.4187 7.85108C19.17 7.50105 19.0167 7.09227 18.974 6.665C18.138 6.793 17.484 6.86 16.964 6.914C15.223 7.092 14.97 7.118 14.391 8.771C14.3792 8.82438 14.357 8.87491 14.3256 8.91971C14.2943 8.9645 14.2544 9.00269 14.2083 9.03208C14.1622 9.06147 14.1108 9.08149 14.0569 9.091C14.0031 9.10051 13.9479 9.09932 13.8945 9.0875C13.8411 9.07568 13.7906 9.05346 13.7458 9.02211C13.701 8.99077 13.6628 8.9509 13.6334 8.9048C13.604 8.85869 13.584 8.80725 13.5745 8.75341C13.565 8.69957 13.5662 8.64438 13.578 8.591C13.888 5.495 15.652 5.485 19.043 5.793C19.163 5.33 19.418 4.91 19.776 4.585Z" fill="black"/>
</g>
<defs>
<clipPath id="clip0_1049_7721">
<rect width="24" height="24" fill="white"/>
</clipPath>
</defs>
</svg>
