<svg width="24" height="24" viewBox="0 0 24 24" fill="none" xmlns="http://www.w3.org/2000/svg">
<g clip-path="url(#clip0_1049_7744)">
<path fill-rule="evenodd" clip-rule="evenodd" d="M9.56001 11.51C8.79234 11.2802 7.98924 11.1921 7.19001 11.25C7.11087 11.2777 7.04432 11.333 7.00248 11.4057C6.96064 11.4784 6.94629 11.5636 6.96204 11.646C6.97778 11.7284 7.02258 11.8024 7.08828 11.8545C7.15398 11.9066 7.23622 11.9334 7.32001 11.93C7.9991 11.9238 8.67465 12.0285 9.32001 12.24C10.3622 12.6154 11.2575 13.3133 11.8761 14.2322C12.4947 15.151 12.8043 16.2432 12.76 17.35C12.46 20.47 9.59001 23 7.01001 22.83C5.78116 22.795 4.58091 22.4511 3.52001 21.83C2.44351 21.185 1.62637 20.1839 1.21001 19C0.29001 15.93 1.97001 12 5.70001 11.83C5.77144 11.817 5.83604 11.7794 5.88256 11.7236C5.92908 11.6679 5.95456 11.5976 5.95456 11.525C5.95456 11.4524 5.92908 11.3821 5.88256 11.3264C5.83604 11.2706 5.77144 11.233 5.70001 11.22C1.51001 11.31 -0.669991 15.62 0.270009 19.27C0.714625 20.7425 1.68663 21.9994 3.00001 22.8C4.20743 23.5385 5.58546 23.9519 7.00001 24C10.27 24.19 13.55 21.16 13.8 17.44C13.8275 16.1265 13.4294 14.8393 12.6653 13.7705C11.9011 12.7018 10.8118 11.9088 9.56001 11.51Z" fill="black"/>
<path fill-rule="evenodd" clip-rule="evenodd" d="M22.82 2.59C22.1541 1.71718 21.2764 1.02878 20.27 0.589999C19.8163 0.414627 19.352 0.267676 18.88 0.149999C18.07 -7.45058e-07 14.93 -0.180001 14 0.519999C12.924 1.2334 12.0605 2.22413 11.5008 3.38756C10.941 4.551 10.7059 5.84398 10.82 7.13C11.56 11.93 18 14.74 21.57 10.99C24 8.31 24.89 5.64 22.82 2.59ZM19.29 1.14C18.6222 1.66179 18.133 2.37813 17.89 3.19C17.6188 3.0412 17.3144 2.96319 17.005 2.96319C16.6956 2.96319 16.3913 3.0412 16.12 3.19C15.6028 2.50181 15.1916 1.74003 14.9 0.929999C15.3261 0.806419 15.7665 0.739181 16.21 0.729999C17.2547 0.621532 18.3101 0.762033 19.29 1.14ZM15.67 5.25C15.6793 5.00501 15.7428 4.76512 15.8559 4.54757C15.9689 4.33003 16.1288 4.14022 16.3239 3.9918C16.519 3.84338 16.7446 3.74003 16.9845 3.68917C17.2243 3.63832 17.4724 3.64121 17.711 3.69766C17.9496 3.75411 18.1727 3.8627 18.3643 4.01564C18.556 4.16858 18.7113 4.36206 18.8193 4.58219C18.9272 4.80232 18.9851 5.04362 18.9886 5.28877C18.9922 5.53391 18.9415 5.77681 18.84 6C18.7125 6.24534 18.5354 6.46157 18.3201 6.63503C18.1047 6.80848 17.8558 6.9354 17.5889 7.00776C17.322 7.08011 17.043 7.09634 16.7695 7.05542C16.496 7.0145 16.234 6.91731 16 6.77C15.64 6.49 15.6 5.69 15.67 5.25ZM14.33 1.25C14.5293 1.9874 14.8217 2.69644 15.2 3.36C15.2907 3.47226 15.3948 3.57301 15.51 3.66C15.1206 4.04491 14.8439 4.52907 14.71 5.06C14.59 5.47 14.71 5.33 14.53 5.34C13.5884 5.24389 12.6378 5.39198 11.77 5.77C11.8673 4.87941 12.1444 4.01784 12.5844 3.23746C13.0245 2.45708 13.6183 1.77414 14.33 1.23V1.25ZM14.55 10.72C15.61 9.78 15.38 9.65 15.87 8.72C15.9284 8.65104 15.9569 8.56173 15.9494 8.47171C15.9419 8.3817 15.899 8.29835 15.83 8.24C15.7611 8.18165 15.6718 8.15309 15.5817 8.16059C15.4917 8.16809 15.4084 8.21104 15.35 8.28C14.6502 8.72417 14.1187 9.38936 13.84 10.17C13.7564 10.1187 13.6762 10.0619 13.6 10C13.066 9.47635 12.6173 8.87238 12.27 8.21C11.9843 7.70101 11.8201 7.13291 11.79 6.55C12.7561 6.62661 13.7247 6.43635 14.59 6C14.5892 6.20154 14.6093 6.40262 14.65 6.6C15 8.12 16.85 8.6 18.24 7.97C18.03 8.18 18.1 8.05 18.55 9.52C18.7641 9.93434 19.0332 10.3178 19.35 10.66L19.59 11.04C18.7933 11.4278 17.9089 11.6005 17.0248 11.5409C16.1406 11.4812 15.2875 11.1913 14.55 10.7V10.72ZM22.9 6.84C22.457 8.25595 21.6087 9.51101 20.46 10.45C20.4188 10.3653 20.382 10.2786 20.35 10.19C20.0501 9.21101 19.4029 8.3753 18.53 7.84C18.8362 7.67471 19.1051 7.44829 19.3201 7.17478C19.5351 6.90127 19.6917 6.5865 19.78 6.25C20.7166 6.46636 21.7001 6.32739 22.54 5.86C22.6228 5.82593 22.6893 5.76146 22.726 5.67985C22.7627 5.59824 22.7667 5.50569 22.7372 5.4212C22.7078 5.3367 22.6471 5.2667 22.5677 5.22556C22.4882 5.18442 22.396 5.17528 22.31 5.2C21.42 5.36 21.16 4.96 19.85 5.33C19.8377 4.93802 19.729 4.55511 19.5337 4.21505C19.3384 3.87498 19.0624 3.5882 18.73 3.38C19.3749 2.86184 19.8545 2.16676 20.11 1.38C21.1152 1.85121 21.935 2.64356 22.4402 3.63214C22.9453 4.62073 23.1071 5.74932 22.9 6.84Z" fill="black"/>
<path fill-rule="evenodd" clip-rule="evenodd" d="M2.25001 10C2.28535 10.0189 2.32412 10.0306 2.36405 10.0343C2.40398 10.038 2.44424 10.0337 2.48246 10.0216C2.52069 10.0095 2.55609 9.98981 2.58659 9.96377C2.61708 9.93773 2.64205 9.90585 2.66001 9.87C2.98001 9.26 2.13001 8.07 3.85001 6.08C4.50342 5.28798 5.3662 4.69547 6.34001 4.37C6.62046 4.3137 6.90447 4.27695 7.19001 4.26C7.41001 4.26 7.72001 4.48 7.88001 4.48C7.88001 4.48 8.35001 4.03 7.98001 3.8C7.74039 3.64423 7.47162 3.53876 7.19001 3.49C6.51295 3.41254 5.82717 3.49826 5.19001 3.74C3.96644 4.2191 2.95763 5.12489 2.35001 6.29C1.84001 7.39 1.64001 9.74 2.25001 10Z" fill="black"/>
<path fill-rule="evenodd" clip-rule="evenodd" d="M8.60002 3.86C8.06116 4.37945 7.5536 4.93041 7.08002 5.51C6.92007 5.70412 6.8194 5.94019 6.79002 6.19C6.79002 6.28282 6.82689 6.37185 6.89253 6.43748C6.95817 6.50312 7.04719 6.54 7.14002 6.54C7.22002 6.54 9.14002 4.85 9.25002 4.77C9.44565 4.57724 9.61389 4.35853 9.75002 4.12C10.05 3.48 9.50002 3.05 8.88002 2.73C8.79002 2.73 6.68002 1.73 6.59002 1.73C6.50002 1.73 6.36002 1.93 6.36002 2.08C6.37002 2.46 8.51002 3.81 8.60002 3.86Z" fill="black"/>
<path fill-rule="evenodd" clip-rule="evenodd" d="M22.17 13.24C22.1222 13.2115 22.0681 13.1952 22.0125 13.1925C21.957 13.1898 21.9016 13.2008 21.8512 13.2245C21.8009 13.2481 21.7571 13.2838 21.7238 13.3284C21.6904 13.373 21.6685 13.425 21.66 13.48C21.55 13.85 21.79 14.48 21.78 14.84C21.7537 15.8088 21.5248 16.7613 21.1079 17.6363C20.6911 18.5112 20.0957 19.2892 19.36 19.92C18.88 20.25 17.21 20.16 16.16 20.05C16.99 19.58 18.69 19.1 17.99 18.56C17.78 18.39 17.26 18.7 16.99 18.8C16.3691 19.0047 15.7669 19.2623 15.19 19.57C15.0128 19.6651 14.8684 19.8114 14.7757 19.9898C14.6829 20.1681 14.6461 20.3704 14.67 20.57C14.7755 20.889 14.9575 21.1774 15.2 21.41C15.29 21.5 17.4 23.09 17.48 23.11C17.5247 23.1202 17.571 23.1212 17.6162 23.1131C17.6613 23.1049 17.7043 23.0877 17.7426 23.0625C17.7809 23.0372 17.8137 23.0045 17.839 22.9663C17.8644 22.9281 17.8817 22.8851 17.89 22.84C18.04 22.33 17.22 21.84 16.26 20.9C16.9577 21.1302 17.6975 21.2039 18.4269 21.1158C19.1563 21.0276 19.8573 20.7798 20.48 20.39C21.3876 19.6779 22.0601 18.7093 22.41 17.61C22.86 16.08 22.62 13.55 22.17 13.24Z" fill="black"/>
<path fill-rule="evenodd" clip-rule="evenodd" d="M6.52001 13.19C6.40284 13.261 6.30152 13.3553 6.22232 13.4671C6.14312 13.5789 6.08774 13.7058 6.05961 13.8399C6.03148 13.974 6.0312 14.1124 6.0588 14.2466C6.08639 14.3808 6.14126 14.5079 6.22001 14.62C4.94001 15.01 4.58001 15.97 4.86001 16.62C4.94409 16.794 5.05177 16.9555 5.18001 17.1C5.79001 17.93 6.84001 17.92 7.51001 18.32C8.02001 18.62 8.09001 18.39 7.51001 18.69C6.93001 18.99 5.84001 19.36 5.67001 18.75C5.64118 18.6613 5.58073 18.5863 5.50016 18.5392C5.41959 18.4922 5.32455 18.4765 5.23312 18.495C5.1417 18.5135 5.06028 18.5651 5.00439 18.6397C4.94849 18.7144 4.92202 18.8071 4.93001 18.9C5.02001 19.48 5.41001 19.9 6.27001 19.97C6.08001 20.34 6.47001 21.34 6.88001 21.32C7.29001 21.3 7.62001 20.32 7.31001 19.87C7.79141 19.7738 8.24559 19.5723 8.64001 19.28C8.82526 19.1139 8.9481 18.8894 8.98812 18.6438C9.02814 18.3982 8.98293 18.1463 8.86001 17.93C8.32001 16.93 6.51001 16.82 6.07001 16.34C5.84001 16.08 5.75001 15.96 6.07001 15.68C6.73001 15.13 7.39001 15.28 7.44001 15.41C7.46543 15.4934 7.52282 15.5633 7.59964 15.6046C7.67646 15.6458 7.76647 15.6549 7.85001 15.63C8.31001 15.49 8.12001 14.63 7.05001 14.52C7.14391 14.2722 7.14159 13.9982 7.04348 13.752C6.94538 13.5058 6.75862 13.3053 6.52001 13.19Z" fill="black"/>
</g>
<defs>
<clipPath id="clip0_1049_7744">
<rect width="24" height="24" fill="white"/>
</clipPath>
</defs>
</svg>
