<svg width="24" height="24" viewBox="0 0 24 24" fill="none" xmlns="http://www.w3.org/2000/svg">
<g clip-path="url(#clip0_1049_7740)">
<path fill-rule="evenodd" clip-rule="evenodd" d="M23.81 10.17C23.4803 9.19799 22.9563 8.3032 22.27 7.54C21.9336 7.31006 21.5667 7.1283 21.18 7C21.18 6.65 21.31 6 21.28 5.66C21.1476 4.48346 20.6432 3.3799 19.84 2.51C18.89 1.51 16.59 0.849998 15.24 1.97C15.16 2.04 15.24 1.97 15.12 1.68C14.45 0.0499983 11 -0.190002 8.79001 2.47C8.5748 2.8744 8.42302 3.30948 8.34001 3.76C7.89394 3.51641 7.40041 3.37231 6.89334 3.3376C6.38628 3.3029 5.87772 3.37841 5.40261 3.55895C4.92751 3.73949 4.49714 4.02077 4.14109 4.38346C3.78504 4.74615 3.51175 5.18164 3.34001 5.66C3.16053 5.91461 3.06419 6.21849 3.06419 6.53C3.06419 6.84151 3.16053 7.14539 3.34001 7.4C1.14001 8.13 -0.369987 11.3 0.0800127 13.56C0.275835 14.2811 0.630805 14.9492 1.11882 15.5151C1.60684 16.081 2.21549 16.5303 2.90001 16.83C1.84001 18.5 2.46001 21.02 4.90001 22.3C6.61152 23.13 8.56688 23.3078 10.4 22.8C10.8011 22.6068 11.1828 22.3757 11.54 22.11C12.54 23.88 15.37 23.83 17.42 22.93C18.5532 22.4043 19.5039 21.5527 20.1505 20.4839C20.7971 19.4151 21.1103 18.1777 21.05 16.93C21.05 16.62 20.96 16.68 21.05 16.65C22.66 16.13 24.63 13 23.81 10.17ZM22.73 13C22.4037 13.9813 21.8034 14.8488 21 15.5C20.37 15.7 20.59 15.66 20.15 15.66C19.71 15.66 19.55 16.21 19.55 16.21C19.5523 16.3683 19.617 16.5192 19.73 16.63C20.73 17.63 19.13 22.2 14.88 22.39C12.61 22.49 12.59 21.33 12.12 20.83C12.0002 20.7317 11.85 20.6779 11.695 20.6779C11.54 20.6779 11.3898 20.7317 11.27 20.83C10 21.75 8.86001 22.6 6.00001 21.57C3.65001 20.73 3.00001 18.67 3.77001 17.35C3.99085 17.3125 4.20381 17.2381 4.40001 17.13C4.48133 17.086 4.55195 17.0246 4.60687 16.9502C4.66179 16.8758 4.69966 16.7902 4.7178 16.6996C4.73593 16.6089 4.73388 16.5153 4.7118 16.4255C4.68972 16.3357 4.64814 16.2519 4.59001 16.18C4.38001 15.95 4.18001 15.99 3.88001 16.05C3.4546 16.002 3.04381 15.866 2.67371 15.6508C2.3036 15.4357 1.98224 15.1459 1.73001 14.8C1.37479 14.3931 1.12421 13.9057 1.00001 13.38C0.490013 11.26 2.18001 8 4.32001 8C4.41184 8.00481 4.50229 7.97617 4.57461 7.91938C4.64692 7.86259 4.6962 7.78151 4.71329 7.69116C4.73038 7.60081 4.71413 7.50733 4.66756 7.42805C4.62099 7.34877 4.54725 7.28906 4.46001 7.26C4.3608 7.2436 4.2636 7.21679 4.17001 7.18C3.66001 6.82 3.73001 6.47 4.00001 6C4.21556 5.28571 4.70354 4.68493 5.35847 4.32752C6.01341 3.97011 6.78268 3.88479 7.50001 4.09C8.83001 4.44 8.68001 4.76 8.70001 4.76C8.73741 4.77222 8.77691 4.77669 8.8161 4.77316C8.85529 4.76963 8.89334 4.75816 8.92796 4.73945C8.96257 4.72074 8.99301 4.69518 9.01744 4.66433C9.04186 4.63348 9.05975 4.59798 9.07001 4.56C8.99012 4.28598 8.97201 3.99766 9.01697 3.7158C9.06193 3.43394 9.16884 3.16556 9.33001 2.93C11.07 0.929998 13.54 0.829998 14.33 1.86C14.54 2.13 14.48 2.63 14.75 2.93C14.8343 2.99568 14.9381 3.03135 15.045 3.03135C15.1519 3.03135 15.2557 2.99568 15.34 2.93C15.6589 2.5553 16.0937 2.29773 16.5755 2.1981C17.0574 2.09847 17.5587 2.16249 18 2.38C18.4654 2.51748 18.8906 2.76583 19.2389 3.10372C19.5872 3.44162 19.8484 3.85898 20 4.32C20.367 5.16433 20.4477 6.10549 20.23 7C20.23 7.77 20.59 7.74 21.54 8.16C22.81 9.75 23.32 11.05 22.73 13Z" fill="black"/>
<path fill-rule="evenodd" clip-rule="evenodd" d="M14.34 11.74C13.03 10.85 11.61 11.17 10.41 10.42C10.14 10.26 9.93001 10.16 9.94001 9.84C9.95782 9.62017 10.019 9.40605 10.12 9.21C10.91 7.58 14.12 7.73 14.49 8.52C14.4961 8.56731 14.5133 8.61249 14.5404 8.6518C14.5674 8.6911 14.6034 8.72339 14.6454 8.746C14.6874 8.7686 14.7342 8.78086 14.7819 8.78177C14.8296 8.78267 14.8768 8.77219 14.9196 8.7512C14.9624 8.7302 14.9997 8.6993 15.0282 8.66105C15.0566 8.6228 15.0756 8.57831 15.0835 8.53126C15.0913 8.48421 15.0879 8.43597 15.0733 8.39053C15.0588 8.3451 15.0337 8.30378 15 8.27C14.8656 8.00618 14.665 7.78178 14.4179 7.61876C14.1707 7.45573 13.8854 7.35968 13.59 7.34C13.3268 7.27975 13.0593 7.23964 12.79 7.22C12.877 6.9553 12.9076 6.67535 12.8801 6.3981C12.8525 6.12085 12.7674 5.85241 12.63 5.61C12.6314 5.56977 12.6246 5.52968 12.6101 5.49212C12.5956 5.45456 12.5738 5.4203 12.5458 5.39137C12.5178 5.36245 12.4842 5.33945 12.4472 5.32375C12.4101 5.30806 12.3703 5.29998 12.33 5.3C12.06 5.3 11.51 6.3 11.9 7.22C11.175 7.21216 10.4717 7.46714 9.92024 7.93776C9.36873 8.40839 9.0063 9.06281 8.90001 9.78C8.87209 10.1061 8.94423 10.433 9.10681 10.717C9.26939 11.0011 9.51469 11.2289 9.81001 11.37C11.16 12.24 12.56 11.92 13.7 12.69C14.1 12.95 14.53 13.58 14.34 14.02C13.76 15.36 11.54 15.6 10.41 15.02C10.16 14.89 9.34001 14.44 9.41001 14.16C9.42592 14.0712 9.40589 13.9796 9.35432 13.9055C9.30275 13.8315 9.22386 13.7809 9.13501 13.765C9.04616 13.7491 8.95463 13.7691 8.88056 13.8207C8.80648 13.8723 8.75592 13.9512 8.74001 14.04C8.59001 14.73 9.45001 15.34 10.06 15.7C10.569 15.9635 11.1278 16.1169 11.7 16.15C11.5851 16.5505 11.5697 16.9729 11.6551 17.3807C11.7405 17.7885 11.9241 18.1693 12.19 18.49C12.234 18.4987 12.2793 18.4986 12.3233 18.4897C12.3673 18.4809 12.409 18.4634 12.4462 18.4383C12.4834 18.4132 12.5153 18.381 12.5399 18.3435C12.5646 18.306 12.5816 18.2641 12.59 18.22C12.8149 17.5449 12.8149 16.8151 12.59 16.14C15.42 15.89 16.45 13.22 14.34 11.74Z" fill="black"/>
</g>
<defs>
<clipPath id="clip0_1049_7740">
<rect width="24" height="24" fill="white"/>
</clipPath>
</defs>
</svg>
