<svg width="24" height="24" viewBox="0 0 24 24" fill="none" xmlns="http://www.w3.org/2000/svg">
<g clip-path="url(#clip0_1049_7782)">
<path fill-rule="evenodd" clip-rule="evenodd" d="M15.49 13.23C14.4993 13.021 13.4978 12.8674 12.49 12.77C12.4903 12.4267 12.4223 12.0868 12.29 11.77C12.4403 11.7306 12.5802 11.6589 12.7 11.56C13.15 11.18 15.77 7.17 14.95 6.74C14.9016 6.71934 14.8495 6.70895 14.7969 6.70948C14.7444 6.71 14.6925 6.72144 14.6445 6.74305C14.5966 6.76467 14.5537 6.79601 14.5185 6.83507C14.4832 6.87413 14.4565 6.92008 14.44 6.97C14.44 7.03 14.37 7.26 14.33 7.35C13.7383 8.3631 13.0697 9.32928 12.33 10.24C11.71 11.1 9.89001 8.16 9.06001 7.41C8.80489 7.17089 8.51491 6.97195 8.20001 6.82C8.16521 6.80096 8.127 6.78896 8.08756 6.78468C8.04812 6.78041 8.00822 6.78394 7.97015 6.79509C7.93208 6.80623 7.89658 6.82476 7.86567 6.84963C7.83476 6.87449 7.80905 6.9052 7.79001 6.94C7.77096 6.9748 7.75896 7.01301 7.75469 7.05245C7.75041 7.09189 7.75395 7.13178 7.76509 7.16985C7.7876 7.24674 7.83972 7.31154 7.91001 7.35C9.18001 8.14 9.48001 9.96 10.91 11.06C11.07 11.19 11.27 11.43 11.49 11.58C12 11.93 11.92 11.58 11.79 11.91C11.7238 12.1758 11.6803 12.4468 11.66 12.72C10.7196 12.7182 9.78144 12.8121 8.86001 13C8.50001 13.14 8.47001 13.45 8.63001 13.6C8.79001 13.75 10.26 13.71 10.35 13.72C10.7441 13.7843 11.1413 13.8277 11.54 13.85C11.47 14.66 11.54 14.53 11.37 14.53C10.92 14.53 8.37001 14.69 8.25001 15.12C8.22685 15.1596 8.21342 15.2042 8.21083 15.25C8.20824 15.2958 8.21656 15.3416 8.23511 15.3836C8.25366 15.4255 8.2819 15.4625 8.31752 15.4914C8.35314 15.5204 8.39512 15.5404 8.44001 15.55C9.10531 15.4897 9.7747 15.4897 10.44 15.55C10.8181 15.6026 11.1986 15.636 11.58 15.65V16.1C11.4681 16.6106 11.4681 17.1394 11.58 17.65C11.63 17.99 11.92 17.93 12.03 17.9C12.4 17.81 12.5 16.54 12.59 15.68C13.4246 15.6664 14.2592 15.6997 15.09 15.78C15.134 15.7892 15.1794 15.7896 15.2235 15.7813C15.2677 15.7729 15.3098 15.756 15.3474 15.7314C15.385 15.7068 15.4174 15.675 15.4427 15.6379C15.468 15.6007 15.4858 15.559 15.495 15.515C15.5042 15.471 15.5046 15.4256 15.4963 15.3815C15.488 15.3373 15.471 15.2952 15.4464 15.2576C15.4218 15.22 15.39 15.1876 15.3529 15.1623C15.3158 15.137 15.274 15.1192 15.23 15.11C14.3877 14.856 13.5242 14.6786 12.65 14.58C12.65 14.34 12.65 14.11 12.6 13.87H13.83C14.18 13.87 15.83 14.26 15.78 13.52C15.7634 13.4495 15.7274 13.385 15.6762 13.3338C15.625 13.2826 15.5605 13.2466 15.49 13.23Z" fill="black"/>
<path fill-rule="evenodd" clip-rule="evenodd" d="M19.53 17V17.1C19.5324 17.0667 19.5324 17.0333 19.53 17Z" fill="black"/>
<path fill-rule="evenodd" clip-rule="evenodd" d="M23.81 10.18C23.483 9.20158 22.955 8.30234 22.26 7.54C21.9307 7.30417 21.5662 7.12192 21.18 7C21.18 6.64 21.31 6 21.28 5.65C21.139 4.47587 20.6357 3.37485 19.84 2.5C18.84 1.5 16.58 0.85 15.24 1.97C15.16 2.04 15.24 1.97 15.12 1.67C14.45 0.0499998 11 -0.19 8.79001 2.47C8.57704 2.87635 8.4222 3.31059 8.33001 3.76C7.88429 3.51467 7.39056 3.36917 6.88303 3.33358C6.37549 3.29799 5.86629 3.37317 5.39069 3.55389C4.91509 3.73462 4.48447 4.01658 4.12865 4.38024C3.77283 4.74391 3.50033 5.18057 3.33001 5.66C3.15191 5.91516 3.05641 6.21883 3.05641 6.53C3.05641 6.84117 3.15191 7.14484 3.33001 7.4C1.13001 8.14 -0.369988 11.3 0.0800116 13.57C0.277156 14.2893 0.632727 14.9554 1.12067 15.5195C1.60862 16.0836 2.21658 16.5313 2.90001 16.83C1.90001 18.5 2.46001 21.02 4.90001 22.3C6.61152 23.13 8.56688 23.3078 10.4 22.8C10.8011 22.6068 11.1828 22.3757 11.54 22.11C12.54 23.88 15.37 23.83 17.42 22.93C18.5522 22.4039 19.5015 21.5518 20.1464 20.4829C20.7914 19.414 21.1025 18.1769 21.04 16.93C21.04 16.61 20.95 16.67 21.04 16.64C22.65 16.13 24.63 13 23.81 10.18ZM22.73 13C22.4088 13.9839 21.8076 14.8527 21 15.5C20.36 15.7 20.59 15.66 20.15 15.66C19.71 15.66 19.55 16.21 19.55 16.21C19.5523 16.3683 19.617 16.5192 19.73 16.63C20.73 17.63 19.14 22.2 14.88 22.39C12.61 22.49 12.59 21.33 12.12 20.83C12.0002 20.7317 11.85 20.678 11.695 20.678C11.54 20.678 11.3898 20.7317 11.27 20.83C10 21.75 8.86001 22.6 6.00001 21.57C3.65001 20.73 3.00001 18.67 3.77001 17.35C3.99085 17.3125 4.20381 17.2381 4.40001 17.13C4.48132 17.086 4.55195 17.0246 4.60687 16.9502C4.66179 16.8758 4.69966 16.7902 4.7178 16.6996C4.73593 16.6089 4.73388 16.5153 4.7118 16.4255C4.68971 16.3357 4.64814 16.2519 4.59001 16.18C4.38001 15.95 4.18001 15.99 3.88001 16.05C3.45411 16.0038 3.04266 15.8686 2.6723 15.6533C2.30193 15.4379 1.98091 15.1472 1.73001 14.8C1.37899 14.3903 1.12896 13.9039 1.00001 13.38C0.490012 11.26 2.18001 8 4.32001 8C4.41184 8.00482 4.50229 7.97617 4.57461 7.91938C4.64692 7.86259 4.69619 7.78151 4.71329 7.69116C4.73038 7.60081 4.71413 7.50733 4.66756 7.42805C4.62099 7.34877 4.54725 7.28906 4.46001 7.26C4.36054 7.24483 4.2632 7.21797 4.17001 7.18C3.66001 6.82 3.72001 6.47 4.00001 6C4.21556 5.28571 4.70354 4.68493 5.35847 4.32752C6.01341 3.97012 6.78268 3.88479 7.50001 4.09C8.83001 4.44 8.68001 4.76 8.70001 4.76C8.73741 4.77222 8.77691 4.7767 8.8161 4.77316C8.85528 4.76963 8.89334 4.75816 8.92796 4.73945C8.96257 4.72074 8.99301 4.69518 9.01744 4.66433C9.04186 4.63348 9.05974 4.59798 9.07001 4.56C8.99012 4.28598 8.97201 3.99766 9.01697 3.7158C9.06193 3.43394 9.16884 3.16556 9.33001 2.93C11.08 0.93 13.54 0.83 14.33 1.86C14.55 2.15 14.48 2.64 14.75 2.93C14.8343 2.99568 14.9381 3.03135 15.045 3.03135C15.1519 3.03135 15.2557 2.99568 15.34 2.93C15.6589 2.5553 16.0937 2.29773 16.5755 2.1981C17.0574 2.09847 17.5587 2.16249 18 2.38C18.4654 2.51748 18.8906 2.76583 19.2389 3.10372C19.5872 3.44162 19.8484 3.85898 20 4.32C20.3648 5.16487 20.4455 6.10533 20.23 7C20.23 7.76 20.58 7.73 21.53 8.15C22.81 9.75 23.32 11.05 22.73 13Z" fill="black"/>
</g>
<defs>
<clipPath id="clip0_1049_7782">
<rect width="24" height="24" fill="white"/>
</clipPath>
</defs>
</svg>
