<svg width="24" height="24" viewBox="0 0 24 24" fill="none" xmlns="http://www.w3.org/2000/svg">
<g clip-path="url(#clip0_1049_7731)">
<path d="M11.91 12.7C11.91 12.02 11.59 11.3 10.43 10.97C10.26 10.9214 10.086 10.8879 9.91001 10.87C9.72348 10.8598 9.53654 10.8598 9.35001 10.87V10.24C9.35001 10.1657 9.32051 10.0945 9.268 10.042C9.21549 9.9895 9.14427 9.96 9.07001 9.96C8.99575 9.96 8.92453 9.9895 8.87202 10.042C8.81951 10.0945 8.79001 10.1657 8.79001 10.24L8.73001 10.91C8.32641 10.9337 7.936 11.0624 7.59747 11.2834C7.25894 11.5044 6.98404 11.81 6.80001 12.17C6.20001 13.25 6.50001 14.91 6.60001 16C6.60001 16.24 6.60001 16.47 6.68001 16.7C6.71317 16.9358 6.75992 17.1696 6.82001 17.4C6.83673 17.4712 6.8806 17.5329 6.94226 17.5722C7.00392 17.6114 7.07848 17.625 7.15001 17.61H7.23001C7.24954 17.6604 7.28046 17.7056 7.32037 17.742C7.36027 17.7784 7.40807 17.8051 7.46001 17.82C7.71538 17.8828 7.97706 17.9163 8.24001 17.92C8.43322 17.9299 8.62681 17.9299 8.82001 17.92L8.91001 18.6C8.91999 18.6822 8.96048 18.7576 9.02345 18.8113C9.08643 18.865 9.1673 18.8931 9.25001 18.89C9.29167 18.8875 9.33239 18.8766 9.36974 18.858C9.40709 18.8394 9.4403 18.8135 9.46738 18.7817C9.49446 18.75 9.51485 18.7131 9.52733 18.6733C9.53981 18.6335 9.54412 18.5915 9.54001 18.55V17.81C9.74893 17.7739 9.95587 17.7272 10.16 17.67C10.4308 17.5909 10.695 17.4906 10.95 17.37C11.2157 17.2431 11.446 17.0525 11.6204 16.8153C11.7948 16.5781 11.908 16.3015 11.95 16.01C11.9699 15.7018 11.8991 15.3945 11.7462 15.1262C11.5934 14.8578 11.3653 14.6401 11.09 14.5L10.89 14.4C11.1796 14.2145 11.4224 13.9645 11.5993 13.6696C11.7763 13.3747 11.8826 13.0428 11.91 12.7ZM9.69001 11.85C9.83977 11.8679 9.98724 11.9014 10.13 11.95C10.63 12.1 10.87 12.33 10.85 12.61C10.8054 12.8102 10.713 12.9967 10.5807 13.1534C10.4483 13.3102 10.28 13.4325 10.09 13.51C9.92098 13.5979 9.74339 13.6683 9.56001 13.72C9.56522 13.6468 9.56522 13.5732 9.56001 13.5C9.56001 12.94 9.50001 12.39 9.45001 11.83L9.69001 11.85ZM7.49001 12.53C7.60688 12.3351 7.76853 12.1708 7.96157 12.0508C8.15461 11.9308 8.37347 11.8585 8.60001 11.84C8.56001 12.26 8.53001 12.68 8.51001 13.1V13.9C8.16849 13.9293 7.83229 14.0033 7.51001 14.12C7.39818 14.1624 7.30571 14.2442 7.25001 14.35C7.20144 14.421 7.17372 14.5041 7.17001 14.59C7.08778 13.887 7.1984 13.1749 7.49001 12.53ZM8.23001 17.16C8.02201 17.1736 7.81314 17.1568 7.61001 17.11C7.56557 17.0999 7.51952 17.0992 7.47478 17.1078C7.43003 17.1164 7.38755 17.1342 7.35001 17.16C7.35001 16.96 7.28001 16.77 7.26001 16.57C7.24001 16.37 7.26001 16.14 7.26001 15.91C7.26001 15.68 7.26001 15.13 7.19001 14.68C7.20963 14.7846 7.25813 14.8816 7.33001 14.96C7.37806 15.0158 7.43808 15.0601 7.5056 15.0895C7.57312 15.119 7.64641 15.1328 7.72001 15.13H8.03001L8.54001 15V15.55C8.54001 16.07 8.64001 16.55 8.70001 17.08C8.54587 17.1198 8.38865 17.1466 8.23001 17.16ZM11.12 15.82C11.0961 15.9737 11.0366 16.1198 10.9464 16.2465C10.8561 16.3733 10.7375 16.4772 10.6 16.55C10.3892 16.6637 10.1682 16.7574 9.94001 16.83C9.82001 16.88 9.68001 16.9 9.55001 16.94V15.47V14.86C9.92277 14.8896 10.2862 14.9915 10.62 15.16C10.7597 15.2076 10.8819 15.2959 10.971 15.4135C11.0601 15.5311 11.112 15.6727 11.12 15.82Z" fill="black"/>
<path d="M14.18 22.28C13.4206 22.5602 12.6374 22.7711 11.84 22.91C11.0641 23.0691 10.2711 23.1296 9.48001 23.09C8.69703 23.0057 7.91921 22.8788 7.15001 22.71C6.65316 22.6126 6.16492 22.4755 5.69001 22.3C4.85468 21.9792 4.10507 21.4692 3.50001 20.81C3.10188 20.371 2.76544 19.8799 2.50001 19.35C2.42001 19.19 2.36001 19.02 2.29001 18.85C2.39001 18.97 2.48001 19.09 2.59001 19.2C2.97535 19.5748 3.39748 19.9098 3.85001 20.2C4.27566 20.5058 4.72741 20.7735 5.20001 21C5.83932 21.2841 6.51097 21.489 7.20001 21.61C7.88228 21.7374 8.57627 21.791 9.27001 21.77C10.3028 21.7667 11.3311 21.6323 12.33 21.37C13.0078 21.1794 13.6497 20.8787 14.23 20.48C14.2656 20.4577 14.2963 20.4285 14.3203 20.394C14.3442 20.3595 14.3609 20.3204 14.3693 20.2793C14.3778 20.2381 14.3777 20.1957 14.3692 20.1546C14.3608 20.1135 14.344 20.0745 14.32 20.04C14.2716 19.9719 14.1985 19.9253 14.1163 19.9104C14.0341 19.8954 13.9493 19.9132 13.88 19.96C13.2085 20.3809 12.4611 20.6663 11.68 20.8C10.8814 20.942 10.0712 21.009 9.26001 21C8.62448 20.995 7.99115 20.9246 7.37001 20.79C6.75381 20.6608 6.15594 20.4559 5.59001 20.18C5.15365 19.9759 4.73547 19.7351 4.34001 19.46C3.9538 19.1895 3.59538 18.8813 3.27001 18.54C0.480011 15.7 1.58001 12.24 4.17001 10.15C5.47094 9.07469 7.06625 8.41727 8.74707 8.26382C10.4279 8.11037 12.1159 8.46804 13.59 9.29C13.6543 9.32407 13.7291 9.3327 13.7995 9.31417C13.8699 9.29564 13.9308 9.25132 13.97 9.19C13.9897 9.158 14.0027 9.12237 14.0083 9.08522C14.014 9.04808 14.0121 9.01018 14.0027 8.97379C13.9934 8.9374 13.9768 8.90326 13.954 8.87341C13.9312 8.84355 13.9027 8.81859 13.87 8.8C12.2965 7.83656 10.4666 7.37591 8.62441 7.47954C6.78228 7.58318 5.01555 8.24615 3.56001 9.38C1.31001 11.12 0.0700115 13.78 0.820011 16.38C0.909658 17.9018 1.35491 19.3814 2.12001 20.7C2.87596 21.8794 3.98554 22.7894 5.29001 23.3C5.84507 23.4973 6.41766 23.6413 7.00001 23.73C7.79757 23.8657 8.6022 23.9558 9.41001 24C10.2838 23.9998 11.1541 23.8889 12 23.67C12.8293 23.4775 13.6393 23.2097 14.42 22.87C14.4903 22.833 14.5444 22.7712 14.5717 22.6966C14.5989 22.6219 14.5974 22.5398 14.5675 22.4662C14.5376 22.3926 14.4813 22.3328 14.4097 22.2983C14.3381 22.2639 14.2562 22.2574 14.18 22.28Z" fill="black"/>
<path d="M20.35 11.6C20.35 11.5151 20.3163 11.4337 20.2563 11.3737C20.1963 11.3137 20.1149 11.28 20.03 11.28C19.9451 11.28 19.8638 11.3137 19.8037 11.3737C19.7437 11.4337 19.71 11.5151 19.71 11.6C19.63 12.08 19.55 12.6 19.5 13.05C19.5 13.25 19.5 13.46 19.45 13.67C19.4 13.88 19.45 14.08 19.45 14.28C19.45 14.77 19.58 15.28 19.63 15.72C19.6273 15.7568 19.6319 15.7938 19.6435 15.8288C19.6551 15.8638 19.6735 15.8962 19.6977 15.924C19.7218 15.9519 19.7513 15.9748 19.7843 15.9912C19.8173 16.0077 19.8532 16.0175 19.89 16.02C19.9263 16.0227 19.9627 16.0181 19.9972 16.0064C20.0316 15.9946 20.0633 15.9761 20.0904 15.9518C20.1175 15.9275 20.1394 15.898 20.1548 15.865C20.1702 15.8321 20.1788 15.7964 20.18 15.76C20.29 15.27 20.41 14.76 20.47 14.31V13.68V13.06C20.46 12.55 20.39 12.08 20.35 11.6Z" fill="black"/>
<path d="M23.19 5.77C22.8851 5.34402 22.5509 4.93971 22.19 4.56L21 3.34C20.43 2.73 19.86 2.16 19.3 1.55C19 1.11 18.57 0.680003 18.19 0.220003C18.1537 0.160678 18.1048 0.110141 18.0466 0.0720329C17.9884 0.0339253 17.9225 0.00919724 17.8537 -0.00036836C17.7848 -0.00993396 17.7147 -0.00409884 17.6483 0.0167163C17.582 0.0375315 17.5211 0.0728081 17.47 0.120003C16.59 1.07 15.72 2 14.88 3C14.32 3.65 13.79 4.32 13.24 5C13.0711 5.21106 12.9142 5.4314 12.77 5.66C12.6683 5.82006 12.578 5.98715 12.5 6.16C12.5 6.16 12.36 6.49 12.33 6.62C12.2935 6.72866 12.2954 6.84657 12.3355 6.95398C12.3755 7.06139 12.4513 7.15178 12.55 7.21C12.6754 7.2665 12.8129 7.29058 12.95 7.28C13.2 7.28 13.58 7.19 13.72 7.17C14.36 7.17 14.65 7.17 15.02 7.08C15.2013 7.06305 15.3816 7.03635 15.56 7C15.56 7.51 15.48 8 15.45 8.44V9.11V9.78C15.45 10.3 15.58 10.78 15.65 11.37C15.65 11.4443 15.6795 11.5155 15.732 11.568C15.7845 11.6205 15.8557 11.65 15.93 11.65C16.0043 11.65 16.0755 11.6205 16.128 11.568C16.1805 11.5155 16.21 11.4443 16.21 11.37C16.31 10.8 16.42 10.3 16.47 9.78C16.485 9.55025 16.485 9.31976 16.47 9.09V8.41C16.41 7.89 16.31 7.41 16.21 6.81C16.21 6.81 16.12 6.33 15.81 6.38C15.5 6.43 15.2 6.38 14.99 6.38C14.62 6.38 14.35 6.38 13.72 6.32C13.6602 6.31258 13.5998 6.31258 13.54 6.32L14.08 5.6C14.48 5.1 14.89 4.6 15.28 4.09C16.12 3 16.93 1.87 17.79 0.750003C18.32 1.54 18.86 2.29 19.44 3.01C20.02 3.73 20.69 4.51 21.36 5.28C21.48 5.4 21.81 5.7 22.11 6L20.11 6.22C19.9426 6.21262 19.7783 6.26639 19.6476 6.37127C19.517 6.47616 19.429 6.62499 19.4 6.79C19.4 7.18 19.3 7.55 19.28 7.95C19.27 8.11318 19.27 8.27682 19.28 8.44C19.2701 8.59985 19.2701 8.76016 19.28 8.92C19.35 9.31 19.46 9.66 19.53 10.05C19.53 10.1243 19.5595 10.1955 19.612 10.248C19.6645 10.3005 19.7357 10.33 19.81 10.33C19.8843 10.33 19.9555 10.3005 20.008 10.248C20.0605 10.1955 20.09 10.1243 20.09 10.05C20.1899 9.66257 20.2601 9.2681 20.3 8.87C20.3151 8.70368 20.3151 8.53633 20.3 8.37C20.2865 8.20542 20.2631 8.04179 20.23 7.88C20.17 7.49 20.07 7.13 19.98 6.75H20.08H22.28H22.87C22.9782 6.74353 23.0816 6.70343 23.1659 6.6353C23.2502 6.56717 23.311 6.47442 23.34 6.37C23.3547 6.15918 23.3022 5.94913 23.19 5.77Z" fill="black"/>
<path d="M18.37 12.19C18.3727 12.148 18.3671 12.1058 18.3535 12.0659C18.3399 12.0261 18.3185 11.9893 18.2906 11.9577C18.2628 11.9261 18.2289 11.9003 18.1911 11.8819C18.1532 11.8634 18.1121 11.8526 18.07 11.85C18.0285 11.8473 17.9868 11.853 17.9475 11.8667C17.9083 11.8805 17.8721 11.902 17.8413 11.93C17.8105 11.958 17.7857 11.9919 17.7683 12.0297C17.7509 12.0675 17.7413 12.1084 17.74 12.15C17.6 13.15 17.47 14.15 17.42 15.21V17.04C17.42 17.96 17.53 18.86 17.52 19.77C17.5144 19.8454 17.5385 19.9199 17.587 19.9778C17.6356 20.0357 17.7048 20.0724 17.78 20.08C17.8168 20.0827 17.8538 20.0782 17.8888 20.0665C17.9238 20.0549 17.9562 20.0365 17.9841 20.0124C18.0119 19.9882 18.0348 19.9588 18.0512 19.9258C18.0677 19.8927 18.0775 19.8568 18.08 19.82C18.2696 18.8085 18.3998 17.7867 18.47 16.76V14.92C18.44 14 18.37 13.1 18.37 12.19Z" fill="black"/>
<path d="M16.34 16.17C16.34 15.23 16.23 14.29 16.2 13.35C16.2014 13.3085 16.1943 13.2671 16.1794 13.2283C16.1644 13.1895 16.1418 13.1542 16.1128 13.1243C16.0839 13.0945 16.0493 13.0707 16.011 13.0545C15.9727 13.0383 15.9316 13.03 15.89 13.03C15.8068 13.0272 15.7258 13.057 15.6642 13.113C15.6025 13.1691 15.5652 13.2469 15.56 13.33C15.48 14.28 15.38 15.22 15.34 16.18V17.4C15.34 17.81 15.34 18.21 15.4 18.62C15.48 19.57 15.64 20.51 15.79 21.45C15.7999 21.5242 15.8372 21.592 15.8946 21.6401C15.952 21.6882 16.0252 21.7132 16.1 21.71C16.1369 21.7063 16.1726 21.6953 16.2052 21.6776C16.2378 21.66 16.2665 21.636 16.2898 21.6072C16.313 21.5784 16.3303 21.5452 16.3407 21.5096C16.351 21.4741 16.3542 21.4368 16.35 21.4C16.35 20.46 16.4 19.53 16.42 18.58V17.38C16.42 16.98 16.36 16.57 16.34 16.17Z" fill="black"/>
</g>
<defs>
<clipPath id="clip0_1049_7731">
<rect width="24" height="24" fill="white"/>
</clipPath>
</defs>
</svg>
