<svg width="24" height="24" viewBox="0 0 24 24" fill="none" xmlns="http://www.w3.org/2000/svg">
<g clip-path="url(#clip0_1050_8147)">
<path fill-rule="evenodd" clip-rule="evenodd" d="M23.71 9.18C23.8 7.68 24.22 5.76 23.85 4.26C23.6812 3.44675 23.2047 2.73019 22.52 2.26C21 1.31 16.7 0.710003 12.37 0.610003C9.64376 0.497147 6.9131 0.661322 4.22001 1.1C3.46763 1.20069 2.74698 1.4671 2.11001 1.88C0.980824 3.07482 0.308192 4.62896 0.210013 6.27C-0.0510427 8.55256 -0.0510427 10.8574 0.210013 13.14C0.276086 13.9346 0.430368 14.7195 0.670013 15.48C0.860051 16.0423 1.20704 16.5385 1.67001 16.91C2.95985 17.7912 4.44708 18.3408 6.00001 18.51C8.25658 18.8126 10.5434 18.8126 12.8 18.51C12.8753 18.5 12.9436 18.4609 12.9904 18.4011C13.0371 18.3412 13.0585 18.2655 13.05 18.19C13.0451 18.1531 13.0329 18.1175 13.0141 18.0853C12.9953 18.0532 12.9702 18.0251 12.9404 18.0028C12.9106 17.9804 12.8767 17.9642 12.8405 17.9552C12.8044 17.9461 12.7668 17.9444 12.73 17.95C10.526 18.2171 8.296 18.1869 6.10001 17.86C4.66093 17.6876 3.28681 17.162 2.10001 16.33C1.77237 16.0363 1.53629 15.6544 1.42001 15.23C1.19632 14.5254 1.05537 13.7972 1.00001 13.06C0.788061 10.8454 0.835045 8.61369 1.14001 6.41C1.22158 5.01506 1.78745 3.69233 2.74001 2.67C3.25378 2.37568 3.82189 2.18857 4.41001 2.12C7.03 1.72164 9.68203 1.57431 12.33 1.68C16.42 1.78 20.53 2.24 21.93 3.16C22.2399 3.39341 22.4915 3.69548 22.665 4.04249C22.8385 4.38951 22.9292 4.77203 22.93 5.16C22.9577 6.49698 22.8841 7.83413 22.71 9.16C22.65 10.61 23.05 13.33 22.64 15.33C22.6053 15.7162 22.4849 16.0898 22.2878 16.4236C22.0906 16.7575 21.8215 17.0432 21.5 17.26C21.0855 17.477 20.6347 17.6159 20.17 17.67C19.4 17.78 18.6 17.77 17.86 17.89C17.774 17.9159 17.6955 17.9622 17.6311 18.0248C17.5667 18.0875 17.5183 18.1647 17.49 18.25C17.38 18.55 17.19 19.31 17.15 19.44C16.9 20.21 16.7 21.28 16.42 22.04C16.29 22.39 16.2 22.69 16.01 22.74C15.82 22.79 15.87 22.69 15.77 22.59C15.5645 22.3676 15.3896 22.1187 15.25 21.85L14.67 20.64L14 18.82C13.9867 18.7798 13.9653 18.7428 13.9371 18.7112C13.9089 18.6796 13.8745 18.6541 13.8361 18.6363C13.7977 18.6185 13.756 18.6088 13.7137 18.6077C13.6714 18.6066 13.6293 18.6142 13.59 18.63C13.514 18.6632 13.4532 18.7238 13.4198 18.7998C13.3865 18.8758 13.383 18.9616 13.41 19.04L14.08 20.86L14.68 22.15C15.28 23.24 15.84 23.49 16.22 23.39C16.3873 23.3236 16.5392 23.2237 16.6665 23.0965C16.7937 22.9692 16.8936 22.8173 16.96 22.65C17.33 21.89 17.59 20.56 17.9 19.65C17.9 19.54 18.09 18.94 18.21 18.65C19.02 18.56 19.9 18.59 20.72 18.43C21.146 18.3487 21.5572 18.2038 21.94 18C22.3715 17.727 22.7376 17.3624 23.0124 16.9321C23.2871 16.5018 23.4639 16.0163 23.53 15.51C24 13.44 23.63 10.66 23.71 9.18Z" fill="black"/>
<path fill-rule="evenodd" clip-rule="evenodd" d="M5.74001 11.06C5.40483 11.9471 5.25179 12.8925 5.29001 13.84C5.37107 14.0148 5.48761 14.1709 5.63222 14.2983C5.77683 14.4257 5.94634 14.5216 6.13001 14.58C6.75627 14.8016 7.40816 14.9428 8.07001 15C8.91307 15.098 9.76129 15.1447 10.61 15.14C11.87 15.14 13.16 15.06 14.35 14.99C14.9684 14.995 15.5865 14.9583 16.2 14.88C16.5762 14.8245 16.9257 14.6533 17.2 14.39C17.3902 14.1571 17.5022 13.8702 17.52 13.57C17.5621 12.7722 17.5017 11.9724 17.34 11.19C17.1347 9.70324 16.6203 8.27595 15.83 7.00001C15.5935 6.8063 15.3044 6.68788 15 6.66001H14.62C14.62 6.52001 14.62 6.38001 14.55 6.24001C14.4344 5.63158 14.1698 5.06127 13.78 4.58001C13.4923 4.20801 13.0971 3.9336 12.6481 3.79405C12.199 3.6545 11.7179 3.65658 11.27 3.80001C10.7626 3.97117 10.3103 4.27502 9.96001 4.68001C9.4689 5.24889 9.14066 5.93991 9.01001 6.68001C9.00507 6.74992 9.00507 6.82009 9.01001 6.89001L7.84001 6.95001C7.76581 6.95992 7.69799 6.99722 7.64988 7.05458C7.60178 7.11194 7.57685 7.18521 7.58001 7.26001C7.52222 7.25585 7.46432 7.26653 7.41182 7.29103C7.35931 7.31553 7.31394 7.35304 7.28001 7.40001C6.62024 8.55309 6.10311 9.7821 5.74001 11.06ZM11.19 5.00001C11.4666 4.80719 11.8049 4.72395 12.1393 4.76645C12.4737 4.80895 12.7805 4.97415 13 5.23001C13.3171 5.56603 13.5472 5.97459 13.67 6.42001C13.67 6.48001 13.67 6.54001 13.72 6.61001H13.28L9.76001 6.79001C10.0068 6.04128 10.5143 5.40607 11.19 5.00001ZM7.77001 7.75001C7.79123 7.70639 7.80226 7.65852 7.80226 7.61001C7.80226 7.5615 7.79123 7.51363 7.77001 7.47001H8.84001V7.95001C8.8315 8.3673 8.8482 8.78473 8.89001 9.20001C8.88213 9.2419 8.88358 9.28501 8.89426 9.32628C8.90494 9.36755 8.92458 9.40595 8.95179 9.43876C8.97901 9.47157 9.01312 9.49798 9.0517 9.5161C9.09028 9.53423 9.13238 9.54363 9.17501 9.54363C9.21763 9.54363 9.25974 9.53423 9.29832 9.5161C9.3369 9.49798 9.37101 9.47157 9.39822 9.43876C9.42544 9.40595 9.44508 9.36755 9.45576 9.32628C9.46644 9.28501 9.46789 9.2419 9.46001 9.20001C9.45845 8.79826 9.48855 8.39702 9.55001 8.00001C9.55001 7.82001 9.63001 7.64001 9.66001 7.47001H13.36H13.92C13.9926 7.90015 14.0394 8.33427 14.06 8.77001C14.06 8.85488 14.0937 8.93627 14.1537 8.99628C14.2137 9.05629 14.2951 9.09001 14.38 9.09001C14.4649 9.09001 14.5463 9.05629 14.6063 8.99628C14.6663 8.93627 14.7 8.85488 14.7 8.77001V7.53001C14.8828 7.52711 15.0616 7.58322 15.21 7.69001C15.7365 8.6436 16.0759 9.68901 16.21 10.77C16.3435 11.5064 16.4204 12.2519 16.44 13C16.44 14.11 15.87 13.79 14.28 13.9C13.11 13.99 11.84 14.08 10.59 14.11C9.78286 14.1355 8.97491 14.1155 8.17001 14.05C7.66391 14.0205 7.1617 13.9435 6.67001 13.82C6.41001 13.75 6.15001 13.69 6.08001 13.52C6.1044 12.5322 6.29367 11.5554 6.64001 10.63C6.90388 9.62949 7.28308 8.66301 7.77001 7.75001Z" fill="black"/>
</g>
<defs>
<clipPath id="clip0_1050_8147">
<rect width="24" height="24" fill="white"/>
</clipPath>
</defs>
</svg>
