<svg width="24" height="24" viewBox="0 0 24 24" fill="none" xmlns="http://www.w3.org/2000/svg">
<g clip-path="url(#clip0_1050_8133)">
<path fill-rule="evenodd" clip-rule="evenodd" d="M6.45 4.27001C6.27588 4.25577 6.10243 4.30445 5.96114 4.4072C5.81985 4.50996 5.7201 4.65997 5.68 4.83001C5.53 5.23001 5.76 5.76001 6.46 5.73001C7.16 5.70001 7.36 4.31001 6.45 4.27001Z" fill="black"/>
<path fill-rule="evenodd" clip-rule="evenodd" d="M19.45 5.66999C19.2629 5.65513 19.0767 5.70734 18.9246 5.81728C18.7725 5.92722 18.6645 6.0877 18.62 6.26999C18.45 6.69999 18.71 7.26999 19.47 7.26999C20.23 7.26999 20.44 5.70999 19.45 5.66999Z" fill="black"/>
<path fill-rule="evenodd" clip-rule="evenodd" d="M15.74 5.89C15.5529 5.87513 15.3667 5.92734 15.2146 6.03728C15.0625 6.14722 14.9545 6.3077 14.91 6.49C14.75 6.92 15 7.49 15.76 7.49C16.52 7.49 16.73 5.93 15.74 5.89Z" fill="black"/>
<path fill-rule="evenodd" clip-rule="evenodd" d="M22.11 2.13C21.5183 1.48352 20.7884 0.978766 19.9747 0.653279C19.161 0.327792 18.2843 0.189949 17.41 0.250001C15.9215 0.437954 14.517 1.04484 13.36 2C12.1741 2.9672 11.3871 4.33821 11.15 5.85C11.0478 6.75558 11.1778 7.67227 11.5277 8.51375C11.8776 9.35524 12.4359 10.0938 13.15 10.66C16.83 13.8 21.15 11.14 22.05 10.33C23.1466 9.44636 23.8624 8.17575 24.05 6.78C24.0707 5.91222 23.9088 5.04979 23.5745 4.24868C23.2403 3.44758 22.7413 2.72573 22.11 2.13ZM21.4 9.63C20.29 10.63 16.84 12.86 13.75 9.96C13.1934 9.47658 12.7691 8.85933 12.5172 8.16649C12.2652 7.47364 12.1939 6.72804 12.31 6C12.5584 4.80512 13.2295 3.73993 14.2 3C15.1674 2.22548 16.3304 1.73398 17.56 1.58C18.2385 1.53191 18.9193 1.63425 19.5538 1.87972C20.1882 2.12519 20.7605 2.50772 21.23 3C21.7453 3.46713 22.16 4.03434 22.4489 4.66704C22.7377 5.29974 22.8946 5.98466 22.91 6.68C22.7993 7.81933 22.2595 8.87393 21.4 9.63Z" fill="black"/>
<path fill-rule="evenodd" clip-rule="evenodd" d="M19.63 3.62001C19.4936 3.65602 19.3624 3.70981 19.24 3.78001C19.1198 3.85286 19.009 3.94018 18.91 4.04001C18.73 4.23001 18.06 5.04001 18.34 5.36001C18.34 5.36001 18.42 5.70001 19.74 5.05001C19.8973 4.96511 20.0477 4.86815 20.19 4.76001C21.08 4.12001 21.19 4.10001 21.13 3.76001C21 3.27001 19.89 3.54001 19.63 3.62001Z" fill="black"/>
<path fill-rule="evenodd" clip-rule="evenodd" d="M15.53 4.99999C16.77 5.64999 16.86 5.34999 16.88 5.32999C17.15 5.04999 16.57 4.21999 16.4 4.01999C16.3127 3.91849 16.2077 3.83377 16.09 3.76999C15.9761 3.69222 15.8515 3.63157 15.72 3.58999C15.38 3.47999 14.38 3.24999 14.27 3.75999C14.21 4.02999 14.27 4.02999 15.13 4.75999C15.258 4.84855 15.3916 4.92872 15.53 4.99999Z" fill="black"/>
<path fill-rule="evenodd" clip-rule="evenodd" d="M18.37 8.10001C18.0997 8.02635 17.8201 7.99266 17.54 8.00001C17.2521 7.99494 16.9652 8.03544 16.69 8.12001C16.3634 8.21325 16.0589 8.37103 15.7944 8.58402C15.5299 8.797 15.3108 9.06087 15.15 9.36001C15.1137 9.39502 15.0854 9.43745 15.0671 9.48441C15.0487 9.53136 15.0407 9.58173 15.0436 9.63206C15.0465 9.68239 15.0603 9.7315 15.0839 9.77603C15.1076 9.82056 15.1405 9.85945 15.1806 9.89005C15.2207 9.92065 15.2669 9.94223 15.3161 9.95331C15.3653 9.9644 15.4162 9.96473 15.4656 9.95428C15.5149 9.94383 15.5614 9.92285 15.6018 9.89277C15.6423 9.86269 15.6758 9.82423 15.7 9.78001C16.0735 9.49615 16.5309 9.34485 17 9.35001C17.1932 9.33979 17.3868 9.33979 17.58 9.35001C17.7765 9.34004 17.9735 9.34004 18.17 9.35001C18.6376 9.35553 19.0945 9.49052 19.49 9.74001C19.5648 9.8133 19.6653 9.85436 19.77 9.85436C19.8747 9.85436 19.9752 9.8133 20.05 9.74001C20.0891 9.70353 20.1202 9.6594 20.1415 9.61037C20.1628 9.56135 20.1738 9.50846 20.1738 9.45501C20.1738 9.40156 20.1628 9.34868 20.1415 9.29965C20.1202 9.25063 20.0891 9.2065 20.05 9.17001C19.6219 8.63937 19.0319 8.26355 18.37 8.10001Z" fill="black"/>
<path fill-rule="evenodd" clip-rule="evenodd" d="M18.26 15.65C18.15 15.36 18.05 15.08 17.92 14.81C17.6 14.15 17.22 13.56 16.92 12.96C16.8844 12.8734 16.8164 12.804 16.7306 12.7667C16.6447 12.7294 16.5476 12.727 16.46 12.76C16.3741 12.7935 16.3049 12.8596 16.2675 12.9439C16.23 13.0281 16.2273 13.1238 16.26 13.21C16.44 13.97 16.59 14.76 16.83 15.55C16.97 15.99 17.15 16.43 17.32 16.87C17.58 17.53 17.88 18.17 18.08 18.82C18.0224 18.7524 17.944 18.7059 17.8571 18.6878C17.7702 18.6697 17.6798 18.681 17.6 18.72C16.1728 19.5302 14.7004 20.2581 13.19 20.9C11.6947 21.5297 10.1403 22.0087 8.54999 22.33C7.89166 22.4701 7.22256 22.5538 6.54999 22.58C6.20243 22.6044 5.8552 22.528 5.54999 22.36L4.87999 20.81C4.46774 20.0091 4.10375 19.1843 3.78999 18.34C3.31999 17.05 2.93999 15.73 2.56999 14.41C2.30999 13.48 2.04999 12.54 1.82999 11.59C1.69999 10.97 1.56999 10.34 1.47999 9.71C1.39741 9.3223 1.36049 8.92627 1.36999 8.53C1.34549 8.35249 1.35912 8.17181 1.40999 8C1.49786 7.88542 1.60951 7.79123 1.73725 7.7239C1.86499 7.65658 2.0058 7.61772 2.14999 7.61C2.61999 7.51 3.14999 7.47 3.54999 7.35C3.86764 7.26555 4.15958 7.10413 4.39999 6.88C4.50974 6.75806 4.57648 6.6035 4.58999 6.44C4.58999 6.15 4.48999 5.44 4.52999 5.28C4.60288 4.73934 4.86477 4.24193 5.26927 3.87587C5.67376 3.50981 6.19477 3.29872 6.73999 3.28C6.97807 3.24448 7.22116 3.29028 7.42999 3.41C7.69502 3.63389 7.92432 3.89692 8.10999 4.19C8.3826 4.59034 8.79122 4.87815 9.25999 5C9.41622 5.04913 9.58376 5.04913 9.73999 5C9.92999 4.94 10.21 4.8 10.8 4.62C10.8462 4.60371 10.8885 4.57789 10.9242 4.54421C10.9598 4.51053 10.9879 4.46974 11.0068 4.42449C11.0256 4.37924 11.0348 4.33053 11.0336 4.28152C11.0324 4.23251 11.021 4.1843 11 4.14C10.9885 4.0954 10.9681 4.0536 10.94 4.01713C10.9119 3.98066 10.8766 3.95029 10.8364 3.92784C10.7962 3.9054 10.7519 3.89136 10.7061 3.88657C10.6603 3.88179 10.614 3.88635 10.57 3.9L9.41999 4.25C9.05564 4.13751 8.75026 3.88602 8.56999 3.55C8.38349 3.24283 8.14689 2.96904 7.86999 2.74C7.52252 2.51478 7.11371 2.40297 6.69999 2.42C5.9708 2.44367 5.26898 2.70334 4.69999 3.16C4.10069 3.63526 3.68387 4.30288 3.51999 5.05C3.51999 5.21 3.26999 5.99 3.42999 6.22C3.17526 6.28886 2.91364 6.32911 2.64999 6.34C2.12574 6.37538 1.60988 6.49001 1.11999 6.68C0.801076 6.82453 0.532851 7.0614 0.34999 7.36C0.151421 7.69538 0.0317361 8.07153 -1.0008e-05 8.46C-0.0170814 8.94549 0.0164326 9.43144 0.09999 9.91C0.17999 10.57 0.29999 11.24 0.43999 11.91C0.64999 12.91 0.90999 13.85 1.16999 14.8C1.54999 16.16 1.93999 17.52 2.44999 18.8C2.79662 19.6936 3.19736 20.5652 3.64999 21.41C3.82999 21.7 4.05999 22.41 4.31999 22.84C4.42615 23.0324 4.56882 23.2022 4.73999 23.34C5.14589 23.5922 5.61223 23.7303 6.08999 23.74C6.9875 23.7402 7.88138 23.6259 8.74999 23.4C10.0729 23.0973 11.3676 22.6825 12.62 22.16C14.4767 21.3845 16.2747 20.4755 18 19.44C18.0792 19.392 18.1381 19.3167 18.1658 19.2284C18.1934 19.14 18.1878 19.0445 18.15 18.96C18.1895 19.0232 18.2463 19.0737 18.3137 19.1056C18.381 19.1375 18.4561 19.1494 18.53 19.14C18.5826 19.1317 18.633 19.1127 18.678 19.0842C18.723 19.0557 18.7617 19.0183 18.7917 18.9742C18.8217 18.9302 18.8423 18.8805 18.8523 18.8282C18.8624 18.7758 18.8616 18.722 18.85 18.67C18.8056 17.9487 18.6986 17.2327 18.53 16.53C18.44 16.24 18.36 15.94 18.26 15.65Z" fill="black"/>
<path fill-rule="evenodd" clip-rule="evenodd" d="M3.20999 8.79999C3.0104 9.03033 2.86611 9.30324 2.78812 9.59788C2.71013 9.89251 2.7005 10.2011 2.75999 10.5L2.91999 11.61L3.34999 13.21L4.13999 15.88L5.51999 19.44C5.62491 19.7812 5.75184 20.1152 5.89999 20.44C5.99214 20.6149 6.14508 20.75 6.32999 20.82C6.51032 20.8795 6.70054 20.9033 6.88999 20.89C7.17799 20.8655 7.46278 20.8119 7.73999 20.73C8.16632 20.6334 8.58697 20.5132 8.99999 20.37C9.55999 20.14 10.13 19.87 10.68 19.62C11.23 19.37 11.68 19.21 12.19 19.03C12.7 18.85 13.24 18.69 13.76 18.53C14.1224 18.475 14.4777 18.3811 14.82 18.25C15.0131 18.1602 15.1637 17.9988 15.24 17.8C15.3546 17.4218 15.3546 17.0182 15.24 16.64C15.112 16.1867 14.9377 15.7477 14.72 15.33L14 13.9L13.05 11.9C13.0082 11.8038 12.9302 11.7279 12.833 11.6886C12.7357 11.6493 12.6269 11.6498 12.53 11.69C12.4331 11.7338 12.357 11.8136 12.3178 11.9125C12.2786 12.0114 12.2794 12.1217 12.32 12.22L13.19 14.3L13.82 15.75C14.6 17.63 14.54 17.14 11.82 17.96C11.27 18.13 10.72 18.31 10.19 18.52C9.65999 18.73 9.07999 18.98 8.50999 19.19C8.15643 19.3229 7.7959 19.4364 7.42999 19.53L7.08999 19.59C7.00999 19.36 6.79999 19.05 6.77999 18.98L5.39999 15.46L4.50999 12.83L3.99999 11.33L3.80999 10.41C3.74999 9.93999 3.73999 9.67999 3.88999 9.49999C4.22645 9.26712 4.60263 9.09767 4.99999 8.99999L6.99999 8.14999L9.38999 7.24999C9.43496 7.23738 9.47695 7.21589 9.51349 7.1868C9.55003 7.1577 9.58038 7.12159 9.60275 7.08058C9.62511 7.03958 9.63905 6.99451 9.64372 6.94804C9.6484 6.90157 9.64373 6.85463 9.62999 6.80999C9.60221 6.72065 9.54074 6.64564 9.45861 6.60084C9.37648 6.55604 9.28013 6.54498 9.18999 6.56999L6.71999 7.37999L4.71999 8.12999C4.17614 8.24775 3.66223 8.47578 3.20999 8.79999Z" fill="black"/>
<path fill-rule="evenodd" clip-rule="evenodd" d="M8.19 9.18001C7.98097 9.26882 7.7802 9.3759 7.59 9.50001C7.15722 9.79191 6.75516 10.127 6.39 10.5C6.3504 10.5235 6.31599 10.5548 6.28885 10.592C6.26172 10.6292 6.24242 10.6716 6.23213 10.7164C6.22185 10.7613 6.22079 10.8078 6.22901 10.8531C6.23724 10.8984 6.25459 10.9416 6.28 10.98C6.33125 11.0586 6.41113 11.114 6.50265 11.1346C6.59417 11.1551 6.69009 11.1391 6.77 11.09C7.23 10.9 7.69 10.79 8.16 10.63L8.73 10.4C8.92 10.32 9.1 10.22 9.28 10.13C9.72 9.91001 10.13 9.68001 10.59 9.49001C10.6908 9.4618 10.7775 9.39693 10.833 9.30814C10.8885 9.21934 10.9088 9.11302 10.89 9.01001C10.8639 8.90577 10.798 8.81593 10.7063 8.75983C10.6147 8.70372 10.5047 8.68583 10.4 8.71001C9.87322 8.76574 9.35162 8.8627 8.84 9.00001C8.62 9.00001 8.4 9.10001 8.19 9.18001Z" fill="black"/>
<path fill-rule="evenodd" clip-rule="evenodd" d="M10.69 11.33C10.0352 11.4059 9.38905 11.5432 8.75998 11.74C8.50255 11.8142 8.24892 11.901 7.99998 12C7.7529 12.1128 7.5125 12.2397 7.27998 12.38C6.71998 12.71 6.27998 13.11 5.71998 13.46C5.67485 13.4772 5.63377 13.5036 5.59934 13.5375C5.56491 13.5714 5.53787 13.6121 5.51991 13.6569C5.50196 13.7017 5.49348 13.7498 5.49502 13.7981C5.49656 13.8464 5.50807 13.8938 5.52884 13.9375C5.54961 13.9811 5.57918 14.0199 5.6157 14.0515C5.65222 14.0832 5.69489 14.1069 5.74102 14.1212C5.78715 14.1356 5.83576 14.1402 5.88377 14.1348C5.93177 14.1294 5.97815 14.1142 6.01998 14.09C6.69998 13.88 7.38998 13.71 8.07998 13.44C8.46998 13.28 8.83998 13.09 9.21998 12.9C9.76587 12.5987 10.3266 12.325 10.9 12.08C11.0034 12.0548 11.0926 11.9896 11.1479 11.8986C11.2032 11.8077 11.2202 11.6984 11.195 11.595C11.1698 11.4916 11.1045 11.4024 11.0136 11.3471C10.9226 11.2917 10.8134 11.2748 10.71 11.3L10.69 11.33Z" fill="black"/>
<path fill-rule="evenodd" clip-rule="evenodd" d="M11.89 13.84C11.2735 13.9237 10.6648 14.0575 10.07 14.24C9.81525 14.3201 9.5649 14.4136 9.31999 14.52C9.08269 14.6329 8.85229 14.7598 8.62999 14.9C8.11697 15.259 7.63222 15.6569 7.17999 16.09C7.10175 16.1417 7.04726 16.2224 7.02851 16.3143C7.00975 16.4062 7.02827 16.5018 7.07999 16.58C7.1317 16.6582 7.21238 16.7127 7.30428 16.7315C7.39617 16.7502 7.49175 16.7317 7.56999 16.68C8.15999 16.4 8.80999 16.22 9.44999 15.95C9.80999 15.79 10.16 15.61 10.51 15.43C11.07 15.14 11.58 14.83 12.11 14.61C12.1605 14.5955 12.2078 14.5713 12.2489 14.5386C12.2901 14.5059 12.3245 14.4654 12.35 14.4194C12.3755 14.3735 12.3918 14.3229 12.3978 14.2707C12.4038 14.2185 12.3994 14.1655 12.385 14.115C12.3705 14.0644 12.3463 14.0172 12.3136 13.976C12.2809 13.9348 12.2404 13.9005 12.1944 13.875C12.1485 13.8494 12.0979 13.8332 12.0457 13.8272C11.9935 13.8212 11.9405 13.8255 11.89 13.84Z" fill="black"/>
</g>
<defs>
<clipPath id="clip0_1050_8133">
<rect width="24" height="24" fill="white"/>
</clipPath>
</defs>
</svg>
