<svg width="24" height="24" viewBox="0 0 24 24" fill="none" xmlns="http://www.w3.org/2000/svg">
<g clip-path="url(#clip0_1034_4214)">
<path fill-rule="evenodd" clip-rule="evenodd" d="M17.23 6.74998C17.0225 6.55709 16.7983 6.38307 16.56 6.22998C16.1729 5.97719 15.7565 5.77236 15.32 5.61998C14.8892 5.47115 14.448 5.35417 14 5.26998C12.6726 5.04085 11.3128 5.07825 10 5.37998C8.74274 5.64909 7.5776 6.242 6.62 7.09998H6.55C6.50664 7.10253 6.4642 7.11361 6.42513 7.13259C6.38606 7.15158 6.35113 7.17809 6.32232 7.21061C6.29352 7.24313 6.27143 7.28101 6.2573 7.32209C6.24317 7.36316 6.23729 7.40662 6.24 7.44998C6.24 8.44998 6.13 9.44998 6.12 10.45V11.71C6.12 12.13 6.17 12.55 6.21 12.97C6.29 13.97 6.42 14.97 6.53 15.92V16C6.53 16.03 6.47 16 6.45 16C6.41886 16.0307 6.39413 16.0673 6.37725 16.1076C6.36037 16.148 6.35168 16.1912 6.35168 16.235C6.35168 16.2787 6.36037 16.322 6.37725 16.3623C6.39413 16.4027 6.41886 16.4393 6.45 16.47C6.76304 16.8029 7.12772 17.0832 7.53 17.3C8.11145 17.6099 8.72081 17.8644 9.35 18.06C9.97286 18.2502 10.6124 18.3808 11.26 18.45C13.233 18.6299 15.2092 18.1402 16.87 17.06C16.9136 17.0353 16.9517 17.0019 16.9821 16.962C17.0124 16.9221 17.0343 16.8765 17.0465 16.8278C17.0586 16.7792 17.0608 16.7286 17.0528 16.6791C17.0448 16.6297 17.0268 16.5823 17 16.54C17.056 16.5053 17.1021 16.4566 17.1337 16.3988C17.1652 16.3409 17.1812 16.2759 17.18 16.21C17.18 15.16 17.24 14.11 17.29 13.05C17.29 12.34 17.36 11.64 17.36 10.93C17.36 9.83998 17.28 8.74998 17.22 7.67998C17.2442 7.64472 17.2709 7.6113 17.3 7.57998C17.382 7.45345 17.4196 7.30325 17.407 7.15301C17.3943 7.00276 17.332 6.86099 17.23 6.74998ZM10.17 6.30998C11.3722 6.12573 12.5988 6.18009 13.78 6.46998C14.1548 6.55092 14.5226 6.66126 14.88 6.79998C15.2324 6.92537 15.5682 7.09327 15.88 7.29998C15.7248 7.43683 15.5535 7.55435 15.37 7.64998C14.9838 7.87005 14.5702 8.03817 14.14 8.14998C13.0274 8.45531 11.8688 8.55695 10.72 8.44998C9.5637 8.37528 8.436 8.05844 7.41 7.51998C7.32905 7.49178 7.24095 7.49178 7.16 7.51998C8.05121 6.88006 9.08384 6.46495 10.17 6.30998ZM10.64 9.42998C11.9137 9.61773 13.2106 9.5771 14.47 9.30998C15.112 9.17121 15.7268 8.92798 16.29 8.58998L16.43 8.47998C16.34 9.12998 16.24 9.76998 16.18 10.42C16.18 10.87 16.12 11.32 16.11 11.76C16.105 11.8366 16.105 11.9134 16.11 11.99C14.9811 12.2142 13.8306 12.3115 12.68 12.28C11.9 12.28 11.13 12.2 10.36 12.11C9.36998 12.0123 8.38543 11.8655 7.41 11.67V11.61C7.41 11.19 7.41 10.76 7.33 10.34C7.25 9.59998 7.13 8.86998 7 8.12998C8.10799 8.81535 9.34852 9.2584 10.64 9.42998ZM11.78 17.2C11.0758 17.1887 10.3736 17.1218 9.68 17C9.10542 16.9011 8.54249 16.7436 8 16.53C7.73642 16.4157 7.48513 16.275 7.25 16.11C7.31341 16.0381 7.3489 15.9458 7.35 15.85C7.35 14.85 7.45 13.85 7.47 12.85V12.46C8.33484 12.7997 9.22402 13.0738 10.13 13.28C10.6418 13.3783 11.1596 13.4418 11.68 13.47C12.2057 13.5149 12.7343 13.5149 13.26 13.47C14.2518 13.3718 15.2285 13.157 16.17 12.83C16.165 12.9199 16.165 13.01 16.17 13.1C16.224 14.1551 16.3341 15.2066 16.5 16.25C16.5143 16.3027 16.5418 16.3509 16.58 16.39C15.7417 16.7985 14.8378 17.0558 13.91 17.15C13.2025 17.2238 12.4902 17.2406 11.78 17.2Z" fill="black"/>
<path fill-rule="evenodd" clip-rule="evenodd" d="M18.08 5.87998C18.3912 5.71929 18.6918 5.53892 18.98 5.33998C19.0981 5.23795 19.2053 5.12401 19.3 4.99998C19.4008 4.89566 19.4912 4.78179 19.57 4.65998C19.75 4.37998 19.89 4.09998 20.05 3.81998C20.1776 3.88926 20.3116 3.94618 20.45 3.98998C20.45 3.98998 22.12 4.36998 22.88 3.43998C23.207 3.03093 23.3867 2.52366 23.39 1.99998C23.3444 1.69428 23.2309 1.40268 23.0578 1.14657C22.8848 0.890468 22.6566 0.676366 22.39 0.519982C21.9218 0.173297 21.3525 -0.00945994 20.77 -1.79008e-05C20.4369 0.0395598 20.1159 0.14911 19.8281 0.321449C19.5403 0.493787 19.2922 0.72502 19.1 0.999982C18.901 1.29549 18.7946 1.64368 18.7946 1.99998C18.7946 2.35628 18.901 2.70447 19.1 2.99998C19.1939 3.1157 19.3014 3.21977 19.42 3.30998C19.19 3.46998 18.95 3.61998 18.73 3.79998C18.6163 3.88853 18.5093 3.98547 18.41 4.08998C18.3093 4.19081 18.2189 4.30135 18.14 4.41998C17.961 4.71119 17.7974 5.0116 17.65 5.31998C17.5877 5.38231 17.5527 5.46684 17.5527 5.55498C17.5527 5.64312 17.5877 5.72766 17.65 5.78998C17.7123 5.85231 17.7969 5.88732 17.885 5.88732C17.9731 5.88732 18.0577 5.85231 18.12 5.78998L18.08 5.87998ZM20.13 1.75998C20.2194 1.63127 20.3335 1.52165 20.4657 1.43752C20.5979 1.35339 20.7455 1.29644 20.9 1.26998C21.2157 1.23673 21.534 1.30317 21.81 1.45998C21.9455 1.51835 22.0672 1.60462 22.1671 1.71317C22.2671 1.82172 22.343 1.95011 22.39 2.08998C22.45 2.35998 22.33 3.85998 20.71 3.20998C20.3972 3.07414 20.1447 2.82878 20 2.51998C19.9449 2.39449 19.9278 2.25557 19.9509 2.12047C19.974 1.98537 20.0363 1.86002 20.13 1.75998Z" fill="black"/>
<path fill-rule="evenodd" clip-rule="evenodd" d="M5.7 18C5.42141 18.1151 5.15081 18.2488 4.89 18.4C4.78443 18.4724 4.68718 18.5562 4.6 18.65C4.51029 18.7355 4.43288 18.8331 4.37 18.94C4.21 19.17 4.09 19.41 3.95 19.66C3.82324 19.5889 3.68911 19.5319 3.55 19.49C3.55 19.49 1.88 19.1 1.12 20C0.771707 20.4321 0.590665 20.9753 0.61 21.53C0.655615 21.8357 0.76911 22.1273 0.942154 22.3834C1.1152 22.6395 1.3434 22.8536 1.61 23.01C2.09858 23.3398 2.68136 23.5013 3.27 23.47C3.59807 23.4239 3.91276 23.3092 4.19359 23.1335C4.47443 22.9578 4.71512 22.7249 4.9 22.45C5.10034 22.155 5.20745 21.8066 5.20745 21.45C5.20745 21.0934 5.10034 20.745 4.9 20.45C4.80423 20.3424 4.70061 20.2422 4.59 20.15C4.79448 20.0433 4.99158 19.923 5.18 19.79C5.38446 19.659 5.56115 19.4891 5.7 19.29C5.87 19.03 5.96 18.78 6.12 18.51C6.16567 18.449 6.18955 18.3745 6.18779 18.2983C6.18604 18.2222 6.15877 18.1488 6.11034 18.09C6.06191 18.0312 5.99514 17.9903 5.92074 17.974C5.84633 17.9577 5.76859 17.9668 5.7 18ZM3.87 21.74C3.78243 21.8713 3.66897 21.9834 3.53657 22.0694C3.40417 22.1554 3.25561 22.2134 3.1 22.24C2.78455 22.2681 2.46784 22.202 2.19 22.05C2.05449 21.9916 1.93279 21.9053 1.83286 21.7968C1.73292 21.6882 1.65699 21.5598 1.61 21.42C1.55 21.15 1.67 19.65 3.29 20.3C3.60455 20.4383 3.85725 20.6874 4 21C4.05343 21.1224 4.0696 21.2579 4.04648 21.3896C4.02336 21.5212 3.96198 21.643 3.87 21.74Z" fill="black"/>
<path fill-rule="evenodd" clip-rule="evenodd" d="M20.45 20C20.2923 20.0479 20.1412 20.115 20 20.2C20 20.2 20 20.13 20 20.1C19.8738 19.8328 19.7336 19.5724 19.58 19.32C19.5156 19.2168 19.442 19.1198 19.36 19.03C19.2814 18.9315 19.1867 18.847 19.08 18.78C18.8221 18.621 18.5549 18.4774 18.28 18.35C18.25 18.3176 18.2137 18.2917 18.1733 18.274C18.1328 18.2563 18.0891 18.2472 18.045 18.2472C18.0009 18.2472 17.9572 18.2563 17.9168 18.274C17.8763 18.2917 17.84 18.3176 17.81 18.35C17.7789 18.3807 17.7541 18.4173 17.7373 18.4576C17.7204 18.498 17.7117 18.5413 17.7117 18.585C17.7117 18.6287 17.7204 18.672 17.7373 18.7124C17.7541 18.7527 17.7789 18.7893 17.81 18.82C17.96 19.09 18.04 19.35 18.21 19.61C18.2745 19.7099 18.3482 19.8036 18.43 19.89C18.5187 19.9753 18.6122 20.0554 18.71 20.13C18.95 20.31 19.19 20.44 19.44 20.6C19.3194 20.7022 19.2058 20.8125 19.1 20.93C18.901 21.2255 18.7946 21.5737 18.7946 21.93C18.7946 22.2863 18.901 22.6345 19.1 22.93C19.2922 23.205 19.5403 23.4362 19.8281 23.6085C20.1159 23.7809 20.4369 23.8904 20.77 23.93C21.3591 23.9658 21.9433 23.8039 22.43 23.47C22.6966 23.3136 22.9248 23.0995 23.0978 22.8434C23.2709 22.5873 23.3844 22.2957 23.43 21.99C23.4476 21.4355 23.2667 20.893 22.92 20.46C22.12 19.59 20.49 20 20.45 20ZM21.81 22.57C21.534 22.7268 21.2157 22.7933 20.9 22.76C20.7455 22.7335 20.5979 22.6766 20.4657 22.5925C20.3335 22.5083 20.2194 22.3987 20.13 22.27C20.033 22.1721 19.967 22.0478 19.9403 21.9126C19.9136 21.7774 19.9274 21.6374 19.98 21.51C20.1296 21.1976 20.3897 20.9518 20.71 20.82C22.33 20.17 22.45 21.67 22.39 21.94C22.3395 22.0743 22.2619 22.1969 22.1622 22.3001C22.0624 22.4033 21.9426 22.4849 21.81 22.54V22.57Z" fill="black"/>
<path fill-rule="evenodd" clip-rule="evenodd" d="M3.55 4.52995C3.70481 4.48275 3.85534 4.42253 4 4.34995C4.17 4.60995 4.31 4.86995 4.5 5.11995C4.57818 5.23011 4.66513 5.33378 4.76 5.42995C4.83392 5.51891 4.91413 5.60246 5 5.67995C5.28112 5.84703 5.57544 5.99084 5.88 6.10995C5.9463 6.1683 6.03307 6.19792 6.12121 6.19229C6.20936 6.18667 6.29165 6.14626 6.35 6.07995C6.40835 6.01365 6.43797 5.92688 6.43234 5.83874C6.42671 5.7506 6.3863 5.6683 6.32 5.60995C6.15 5.32995 6.03 5.05995 5.83 4.78995C5.74866 4.68864 5.66186 4.59183 5.57 4.49995C5.47356 4.41142 5.36986 4.33114 5.26 4.25995C5.04 4.11995 4.83 3.99995 4.61 3.87995C4.72291 3.79035 4.82674 3.68987 4.92 3.57995C5.12034 3.28494 5.22745 2.93656 5.22745 2.57995C5.22745 2.22335 5.12034 1.87496 4.92 1.57995C4.73491 1.28687 4.48752 1.03815 4.19544 0.851494C3.90335 0.664834 3.57372 0.544809 3.23 0.499953C2.63685 0.480357 2.05366 0.656016 1.57 0.999953C1.3034 1.15634 1.0752 1.37044 0.902154 1.62654C0.729111 1.88265 0.615616 2.17425 0.57 2.47995C0.564293 3.03632 0.759592 3.57606 1.12 3.99995C1.88 4.89995 3.51 4.52995 3.55 4.52995ZM2.19 1.99995C2.46516 1.8403 2.78325 1.77039 3.1 1.79995C3.25561 1.82651 3.40417 1.88456 3.53657 1.97053C3.66897 2.05651 3.78243 2.1686 3.87 2.29995C3.95424 2.39322 4.01099 2.50801 4.03393 2.63158C4.05688 2.75515 4.04514 2.88266 4 2.99995C3.8504 3.31233 3.59031 3.55817 3.27 3.68995C3.17 3.68995 2.12 4.15995 1.71 3.31995C1.59704 3.09079 1.55525 2.83307 1.59 2.57995C1.64234 2.44577 1.72305 2.32448 1.82661 2.22437C1.93016 2.12427 2.05412 2.04772 2.19 1.99995Z" fill="black"/>
</g>
<defs>
<clipPath id="clip0_1034_4214">
<rect width="24" height="24" fill="white"/>
</clipPath>
</defs>
</svg>
