<svg width="24" height="24" viewBox="0 0 24 24" fill="none" xmlns="http://www.w3.org/2000/svg">
<g clip-path="url(#clip0_1034_4221)">
<path fill-rule="evenodd" clip-rule="evenodd" d="M5.46 10.39C7.50409 11.1447 9.68807 11.445 11.86 11.27C13.4705 11.3207 15.0814 11.1831 16.66 10.86C17.4381 10.7211 18.1923 10.4719 18.9 10.12C18.9401 10.099 18.9756 10.0703 19.0045 10.0356C19.0335 10.0008 19.0553 9.96071 19.0688 9.91753C19.0823 9.87436 19.0871 9.82895 19.083 9.7839C19.0789 9.73886 19.066 9.69506 19.045 9.655C19.024 9.61495 18.9953 9.57943 18.9606 9.55047C18.9258 9.5215 18.8857 9.49966 18.8425 9.4862C18.7994 9.47274 18.7539 9.46791 18.7089 9.47199C18.6639 9.47608 18.6201 9.48899 18.58 9.51C16.84 10.38 12.58 10.14 11.86 10.12C10.2375 10.2299 8.60794 10.1629 7 9.92C6.17437 9.83265 5.3785 9.5628 4.67 9.13C4.14 9.13 4.14 9.62 4.67 9.99C5 10.18 4.78 10.08 5.46 10.39Z" fill="black"/>
<path fill-rule="evenodd" clip-rule="evenodd" d="M20.82 5.99997C20.82 5.9098 20.7842 5.82332 20.7204 5.75956C20.6567 5.6958 20.5702 5.65997 20.48 5.65997C20.3898 5.65997 20.3033 5.6958 20.2396 5.75956C20.1758 5.82332 20.14 5.9098 20.14 5.99997C20.22 13.4 20.28 13.79 20.04 14.76C19.9494 15.2563 19.7352 15.7217 19.4171 16.1132C19.099 16.5048 18.6872 16.8097 18.22 17C16.2093 17.8103 14.0757 18.2736 11.91 18.37C10.4638 18.4412 9.01505 18.2997 7.61 17.95C6.63205 17.7597 5.68374 17.4402 4.79 17C3.66 16.27 3.89 6.52997 3.93 4.99997C5.30078 6.26448 7.06808 7.01382 8.93 7.11997C11.8652 7.32162 14.8141 7.08571 17.68 6.41997C19.82 5.78997 21.79 4.41997 20.46 2.61997C20.0957 2.16344 19.6413 1.7867 19.1252 1.51318C18.6092 1.23965 18.0423 1.07518 17.46 1.02997C17.3786 1.04389 17.3047 1.08615 17.2514 1.14929C17.1982 1.21243 17.1689 1.29237 17.1689 1.37497C17.1689 1.45758 17.1982 1.53752 17.2514 1.60066C17.3047 1.6638 17.3786 1.70606 17.46 1.71997C17.9178 1.76384 18.3619 1.89985 18.7658 2.11983C19.1697 2.3398 19.5248 2.63918 19.81 2.99997C21.81 5.99997 9.75 6.83997 6.37 5.22997C5.15 4.65997 3.94 3.99997 4.87 2.99997C7.74 0.999974 11.46 1.29997 15 1.40997C16.18 1.48997 16.43 1.57997 16.5 1.24997C16.57 0.919974 16.13 0.849974 15.76 0.809974C15.64 0.809974 11.76 0.489974 9.97 0.549974C8.58112 0.56145 7.20327 0.797845 5.89 1.24997C4.75 1.71997 3.26 2.47997 3.4 3.82997C3.15 4.50997 3.33 8.29997 3.28 9.02997C3.23 9.75997 3.2 11.14 3.22 12.37C3.22 14.96 3.22 16.62 4.42 17.76C5.26162 18.4262 6.26654 18.8544 7.33 19C8.53671 19.3052 9.77535 19.4663 11.02 19.48C10.8759 20.285 10.9343 21.1132 11.19 21.89C11.25 22.09 11.29 22.02 11.06 22.04L7.45 22.43C7.37857 22.443 7.31397 22.4806 7.26745 22.5363C7.22093 22.5921 7.19545 22.6624 7.19545 22.735C7.19545 22.8076 7.22093 22.8779 7.26745 22.9336C7.31397 22.9893 7.37857 23.027 7.45 23.04C10.4262 23.2679 13.416 23.2545 16.39 23C16.4714 22.9861 16.5453 22.9438 16.5986 22.8807C16.6518 22.8175 16.681 22.7376 16.681 22.655C16.681 22.5724 16.6518 22.4924 16.5986 22.4293C16.5453 22.3662 16.4714 22.3239 16.39 22.31C14.76 22.22 13.67 22.07 12.08 22.07C12.03 21.75 12.01 22.07 12.14 21.07C12.1475 20.657 12.0763 20.2463 11.93 19.86C11.81 19.46 11.78 19.53 11.93 19.53C14.2484 19.4077 16.5253 18.8656 18.65 17.93C19.2516 17.6713 19.7805 17.2688 20.1903 16.758C20.6 16.2471 20.8781 15.6434 21 15C21.21 13.8 21.1 13 20.82 5.99997Z" fill="black"/>
<path fill-rule="evenodd" clip-rule="evenodd" d="M14.6 15.6C16.2725 15.4375 17.8846 14.8899 19.31 14C19.3487 13.977 19.3826 13.9466 19.4096 13.9106C19.4366 13.8745 19.4562 13.8335 19.4673 13.7899C19.4785 13.7462 19.4809 13.7008 19.4745 13.6562C19.4681 13.6116 19.453 13.5687 19.43 13.53C19.407 13.4913 19.3766 13.4574 19.3406 13.4304C19.3045 13.4034 19.2635 13.3838 19.2199 13.3727C19.1762 13.3615 19.1308 13.3591 19.0862 13.3655C19.0416 13.3719 18.9987 13.387 18.96 13.41C17.5955 14.1446 16.0789 14.5519 14.53 14.6C9.46 14.82 7.53 14.45 4.71 13.36C4.24 13.25 4.23 13.74 4.71 14.08C8.4 15.93 10.51 15.93 14.6 15.6Z" fill="black"/>
<path fill-rule="evenodd" clip-rule="evenodd" d="M5.25 22.35C4.65 22.35 3.35 22.59 3.81 22.99C5.37 24.3 7.86 22.49 5.25 22.35Z" fill="black"/>
<path fill-rule="evenodd" clip-rule="evenodd" d="M1.54 22.35C0.939999 22.35 -0.360001 22.59 0.0999989 22.99C1.66 24.3 4.15 22.49 1.54 22.35Z" fill="black"/>
<path fill-rule="evenodd" clip-rule="evenodd" d="M22.86 22.0699C22.26 22.0699 20.96 22.3099 21.42 22.6999C23 23.9999 25.47 22.2099 22.86 22.0699Z" fill="black"/>
<path fill-rule="evenodd" clip-rule="evenodd" d="M19.15 22.0699C18.55 22.0699 17.25 22.3099 17.71 22.6999C19.27 23.9999 21.76 22.2099 19.15 22.0699Z" fill="black"/>
</g>
<defs>
<clipPath id="clip0_1034_4221">
<rect width="24" height="24" fill="white"/>
</clipPath>
</defs>
</svg>
