<svg width="24" height="24" viewBox="0 0 24 24" fill="none" xmlns="http://www.w3.org/2000/svg">
<g clip-path="url(#clip0_1048_7138)">
<path fill-rule="evenodd" clip-rule="evenodd" d="M23.28 17.69C21.34 13.94 16.11 15.69 15.69 14.23C15.27 12.77 16.33 11.11 16.89 9.66C18.89 4.41 16.44 0.209996 13.31 0.0199958C10 -0.180004 7.34 1.39 6.67 5.1C5.67 10.5 9.77999 11.36 8.91 13.93C8.56473 14.6003 8.02443 15.1502 7.36034 15.5072C6.69625 15.8643 5.93954 16.0117 5.19 15.93C4.11105 15.6613 2.98987 15.607 1.89 15.77C0.319995 16.28 0.279995 17.77 0.619995 19.38C0.634302 19.4693 0.677071 19.5516 0.741937 19.6147C0.806803 19.6778 0.890298 19.7182 0.979995 19.73C1.02577 19.7255 1.06974 19.7098 1.10801 19.6843C1.14629 19.6588 1.17768 19.6242 1.19943 19.5837C1.22118 19.5432 1.23261 19.4979 1.23271 19.4519C1.2328 19.4059 1.22157 19.3606 1.2 19.32C1.01 18.04 0.809995 16.78 2.09 16.39C3.74 15.88 5.18 17.39 7.75 16.13C8.62002 15.7335 9.304 15.0173 9.66 14.13C10.78 11.04 6.66 10.31 7.66 5.23C8.18999 2.48 9.84 1.11 13 1.1C15.6 1.1 17.61 4.67 15.87 9.26C15.3 10.75 14.07 12.61 14.65 14.55C15.48 17.26 20.57 14.68 22.42 18.16C22.68 18.64 22.64 18.88 22.18 19.11C19.79 20.25 13.07 19.11 11.83 19.04C8.77999 18.89 4.66 19.43 1.66 19.46C1.57247 19.46 1.48854 19.4948 1.42665 19.5567C1.36476 19.6185 1.33 19.7025 1.33 19.79C1.33 19.8775 1.36476 19.9615 1.42665 20.0233C1.48854 20.0852 1.57247 20.12 1.66 20.12H2.17C1.92 21.58 2.33 23.12 3.81 23.34C6.89862 23.7553 10.014 23.9391 13.13 23.89C17.51 23.96 18.4 24.14 19.61 23.78C20.1724 23.651 20.6856 23.3626 21.0882 22.9494C21.4908 22.5361 21.7657 22.0155 21.88 21.45C21.8837 21.0336 21.8435 20.618 21.76 20.21C23.55 19.83 23.87 18.84 23.28 17.69ZM21.15 21.19C21.15 22.05 20.15 22.73 19.36 22.93C17.89 23.3 17.59 22.8 10.2 22.74C8.59 22.74 6.2 22.74 3.89 22.55C2.82 22.46 2.59 21.15 2.74 20.11C15.53 19.78 18.63 20.63 21.07 20.32C21.1 20.62 21.15 20.91 21.15 21.19Z" fill="black"/>
<path fill-rule="evenodd" clip-rule="evenodd" d="M12.43 2.67002C12 3.46002 14.43 3.06002 14.43 6.84002C14.43 7.54002 15.69 8.05002 15.72 6.57002C15.7258 5.56765 15.4026 4.59104 14.8 3.79002C14.18 2.86002 12.68 2.22002 12.43 2.67002Z" fill="black"/>
</g>
<defs>
<clipPath id="clip0_1048_7138">
<rect width="24" height="24" fill="white"/>
</clipPath>
</defs>
</svg>
