<svg width="24" height="24" viewBox="0 0 24 24" fill="none" xmlns="http://www.w3.org/2000/svg">
<g clip-path="url(#clip0_1048_7074)">
<path fill-rule="evenodd" clip-rule="evenodd" d="M3.24999 14.84C3.15981 14.84 3.07333 14.8758 3.00957 14.9396C2.94581 15.0034 2.90999 15.0898 2.90999 15.18C2.90999 15.2702 2.94581 15.3567 3.00957 15.4204C3.07333 15.4842 3.15981 15.52 3.24999 15.52C8.08999 15.59 16.59 14.46 18.42 15.42C18.48 15.42 18.58 15.62 18.68 15.67C18 16.6 15.62 16.29 14.39 16.4C12.31 16.6 10.2 16.47 8.10999 16.57C5.45999 16.68 3.26999 17.32 1.10999 16.93C0.359986 16.79 0.579986 15.93 1.28999 15.81C1.28999 15.81 2.50999 15.5 2.51999 15.46C2.53185 15.4064 2.53053 15.3506 2.51614 15.2976C2.50176 15.2446 2.47473 15.1958 2.43737 15.1555C2.40002 15.1152 2.35345 15.0845 2.30165 15.0662C2.24986 15.0478 2.19439 15.0423 2.13999 15.05C1.89999 15.05 1.27999 15.17 1.13999 15.19C-0.260014 15.45 -0.570014 17.29 0.949986 17.63C1.66994 17.781 2.40446 17.8514 3.13999 17.84C3.13999 17.94 2.13999 21.02 1.89999 22.35C1.57999 24.13 4.06999 24.44 4.73999 22.87C5.01434 22.1504 5.24804 21.4159 5.43999 20.67C5.70855 20.7094 5.98142 20.7094 6.24999 20.67C7.77532 20.8624 9.31497 20.916 10.85 20.83C13.85 20.67 13.1 20.83 13.85 20.75C14.6 20.67 14.04 20.08 15.11 22.85C15.77 24.41 18.26 24.11 17.94 22.32C17.74 21.38 16.76 17.82 16.55 17.45C17.0952 17.4456 17.6372 17.3648 18.16 17.21C19.1 16.92 20.11 16 19.7 15.16C18.66 12.81 9.53999 14.75 3.24999 14.84ZM3.75999 22.43C3.59999 22.8 3.00999 22.87 3.05999 22.53C3.63999 18.98 3.74999 18.19 3.85999 17.82C4.38999 17.82 4.91999 17.76 5.43999 17.71C5.01055 19.3268 4.44865 20.9055 3.75999 22.43ZM13.76 20.03C11.23 19.81 13.01 19.54 5.64999 20.03C5.82999 19.28 5.99999 18.5 6.14999 17.68C9.14999 17.42 10.92 17.74 13.79 17.59C13.95 18.44 14.12 19.25 14.32 20.03C14.1403 20.0655 13.9546 20.0552 13.78 20L13.76 20.03ZM16.92 22.53C16.92 22.87 16.38 22.79 16.22 22.43C15.5085 20.844 14.9299 19.2017 14.49 17.52H16.03C16 17.59 16 16.52 16.94 22.53H16.92Z" fill="black"/>
<path fill-rule="evenodd" clip-rule="evenodd" d="M1.58 14.66C1.59326 14.7369 1.63653 14.8054 1.70029 14.8504C1.76406 14.8954 1.84309 14.9132 1.92 14.9C1.99691 14.8867 2.06541 14.8434 2.11041 14.7797C2.15542 14.7159 2.17326 14.6369 2.16 14.56C2.09734 13.4163 2.12408 12.2695 2.24 11.13C2.18663 9.81391 2.24685 8.49569 2.42 7.18997C2.66 6.18997 2.52 6.37997 4.64 6.06997C6.43846 5.73425 8.26099 5.54363 10.09 5.49997C10.1802 5.49997 10.2667 5.46415 10.3304 5.40039C10.3942 5.33663 10.43 5.25014 10.43 5.15997C10.43 5.0698 10.3942 4.98332 10.3304 4.91955C10.2667 4.85579 10.1802 4.81997 10.09 4.81997H9.69C9.73907 4.79164 9.77974 4.75079 9.80785 4.7016C9.83596 4.65241 9.85051 4.59663 9.85 4.53997C9.90343 4.02467 9.86963 3.50404 9.75 2.99997C9.1 0.749971 6.94 1.86997 7.26 4.82997C6.65 4.82997 3.2 5.07997 2.61 5.23997C1.18 5.61997 1.42 6.43997 1.31 6.92997C1.11395 8.32311 1.11395 9.73683 1.31 11.13C1.31212 12.3117 1.40238 13.4917 1.58 14.66ZM8.68 2.99997C9.28 4.92997 9.23 4.78997 9.32 4.84997H8.08C8.11882 4.1922 8.32538 3.55532 8.68 2.99997Z" fill="black"/>
<path fill-rule="evenodd" clip-rule="evenodd" d="M18.17 11.19C18.17 11.1104 18.1384 11.0341 18.0821 10.9779C18.0259 10.9216 17.9495 10.89 17.87 10.89C17.7904 10.89 17.7141 10.9216 17.6578 10.9779C17.6016 11.0341 17.57 11.1104 17.57 11.19C17.3546 11.5823 17.2418 12.0225 17.2418 12.47C17.2418 12.9175 17.3546 13.3577 17.57 13.75C17.81 14.31 18.32 13.95 18.28 13.75C18.26 12.22 18.57 12.74 18.17 11.19Z" fill="black"/>
<path fill-rule="evenodd" clip-rule="evenodd" d="M23.84 2.82999C23.54 2.33999 23.05 2.15999 21.72 1.46999C18.29 0.159994 18.12 -5.57303e-06 17.87 0.209994C17.8388 0.240696 17.8141 0.277282 17.7972 0.317625C17.7804 0.357968 17.7717 0.401263 17.7717 0.444994C17.7717 0.488726 17.7804 0.532021 17.7972 0.572364C17.8141 0.612707 17.8388 0.649292 17.87 0.679994C19.0116 1.28171 20.1907 1.80947 21.4 2.25999C21.48 2.31999 22.87 3.32999 22.95 3.34999C23.03 3.36999 19.42 5.04999 19.23 5.12999C18.9373 5.34511 18.5916 5.47648 18.23 5.50999C18.14 5.50999 13.33 3.80999 12.91 3.50999C13.28 3.31999 11.55 4.39999 16.63 1.17999C16.6966 1.14092 16.7457 1.07763 16.7668 1.00331C16.788 0.928983 16.7796 0.849363 16.7435 0.781038C16.7074 0.712712 16.6464 0.66095 16.5731 0.636538C16.4997 0.612125 16.4198 0.616946 16.35 0.649994L13.29 2.18999C12.42 2.58999 11.29 3.12999 11.94 3.87999C11.7891 5.28805 11.7523 6.70601 11.83 8.11999C11.5674 8.19444 11.3291 8.33691 11.1392 8.53298C10.9494 8.72906 10.8147 8.9718 10.7487 9.23665C10.6827 9.5015 10.6879 9.77907 10.7636 10.0413C10.8393 10.3035 10.983 10.5411 11.18 10.73C11.98 11.61 13.62 11.55 13.95 10.33C14.0208 10.1048 14.0442 9.8674 14.0188 9.63271C13.9934 9.39803 13.9196 9.17115 13.8022 8.96636C13.6848 8.76158 13.5262 8.58332 13.3365 8.44282C13.1468 8.30232 12.9301 8.20262 12.7 8.14999C12.8931 6.96672 12.9334 5.76354 12.82 4.56999C13.36 4.86999 14.33 5.22999 16.55 6.10999C17.02 6.26999 17.85 6.88999 18.47 6.67999C20.3151 5.93405 22.0862 5.0167 23.76 3.93999C23.8975 3.79161 23.9803 3.60081 23.9949 3.39904C24.0094 3.19727 23.9548 2.99656 23.84 2.82999ZM12.91 8.99999C13.18 9.32999 13.07 10.38 12.61 10.4C12.15 10.42 11.61 9.60999 11.72 9.18999C11.93 8.44999 12.84 8.91999 12.91 8.99999Z" fill="black"/>
<path fill-rule="evenodd" clip-rule="evenodd" d="M21.75 5.83998C21.28 5.83998 21.41 6.33998 21.3 6.83998C21.19 7.33998 20.6 7.32998 19.94 7.62998C19.28 7.92998 18.6 8.39998 18 8.62998C17.0029 8.39242 16.0316 8.05748 15.1 7.62998C14.96 6.92998 15.1 6.54998 14.69 6.54998C14.6104 6.54998 14.5341 6.58159 14.4779 6.63785C14.4216 6.69411 14.39 6.77042 14.39 6.84998C14.39 6.84998 14.39 7.55998 14.39 7.84998C14.3938 7.97067 14.4439 8.08526 14.53 8.16998C15.05 8.69998 17.53 9.99998 18.17 9.82998C18.9689 9.53227 19.7175 9.1141 20.39 8.58998C20.8992 8.36891 21.3662 8.061 21.77 7.67998C22.1 7.25998 22.03 6.87998 22.04 6.33998C22.0704 6.28939 22.0867 6.23156 22.0872 6.17252C22.0876 6.11349 22.0723 6.05541 22.0426 6.00434C22.013 5.95327 21.9702 5.91108 21.9188 5.88217C21.8673 5.85326 21.809 5.83869 21.75 5.83998Z" fill="black"/>
</g>
<defs>
<clipPath id="clip0_1048_7074">
<rect width="24" height="24" fill="white"/>
</clipPath>
</defs>
</svg>
