<svg width="24" height="24" viewBox="0 0 24 24" fill="none" xmlns="http://www.w3.org/2000/svg">
<path fill-rule="evenodd" clip-rule="evenodd" d="M10.54 9.51C11.048 9.10691 11.6284 8.80481 12.25 8.62C12.8721 8.4184 13.5305 8.35359 14.18 8.43C14.2228 8.44019 14.2672 8.44145 14.3105 8.4337C14.3538 8.42595 14.395 8.40936 14.4316 8.38496C14.4682 8.36057 14.4994 8.32888 14.5232 8.2919C14.547 8.25491 14.5629 8.21342 14.57 8.17C14.5801 8.12589 14.5811 8.08016 14.5728 8.03566C14.5646 7.99116 14.5472 7.94884 14.5219 7.91132C14.4966 7.8738 14.4638 7.8419 14.4256 7.81758C14.3875 7.79327 14.3447 7.77708 14.3 7.77C13.5546 7.615 12.7853 7.615 12.04 7.77C11.2851 7.91905 10.5634 8.20365 9.90998 8.61C9.63726 8.75012 9.39734 8.94645 9.20601 9.18604C9.01468 9.42563 8.8763 9.70304 8.79998 10C8.77317 10.2382 8.80162 10.4794 8.88313 10.7049C8.96464 10.9304 9.09702 11.134 9.26998 11.3C9.49028 11.5471 9.75763 11.7477 10.0564 11.8902C10.3552 12.0327 10.6793 12.1143 11.01 12.13C11.6577 12.1422 12.303 12.0476 12.92 11.85C13.3949 11.684 13.8977 11.6126 14.4 11.64C15.22 11.77 16.09 12.28 16.95 12.45C17.3969 12.5554 17.8642 12.5346 18.3 12.39C18.3968 12.3608 18.478 12.2944 18.5259 12.2053C18.5737 12.1162 18.5842 12.0118 18.555 11.915C18.5258 11.8182 18.4594 11.7369 18.3703 11.6891C18.2812 11.6413 18.1768 11.6308 18.08 11.66C17.7718 11.74 17.4482 11.74 17.14 11.66C16.28 11.42 15.43 10.82 14.61 10.66C13.946 10.5398 13.2639 10.5637 12.61 10.73C12.1086 10.8689 11.5902 10.9362 11.07 10.93C10.7275 10.9094 10.4057 10.7593 10.17 10.51C10.05 10.38 9.96998 10.3 10.01 10.2C10.1029 9.91634 10.2899 9.6729 10.54 9.51Z" fill="black"/>
<path fill-rule="evenodd" clip-rule="evenodd" d="M22.21 8.16C21.14 7.71 20.21 7.16 19.16 6.65C18.4679 6.29769 17.7449 6.00981 17 5.79C15.7464 5.44224 14.4306 5.38072 13.15 5.61C13.3332 4.91804 13.4603 4.21241 13.53 3.5C13.5894 2.87595 13.5625 2.24669 13.45 1.63C13.2 0.44 12.56 0 12 0C11.6265 0.0350233 11.2676 0.162044 10.9552 0.369706C10.6429 0.577367 10.3868 0.859198 10.21 1.19L9.5 2.44C9.00638 3.54924 8.58222 4.6881 8.23 5.85C8.23 5.85 8.14 5.85 8.11 5.85C7.24252 6.4221 6.48959 7.15129 5.89 8C5.57904 8.40643 5.3078 8.84176 5.08 9.3C4.84733 9.76662 4.66303 10.2558 4.53 10.76C4.42845 11.136 4.40535 11.529 4.46212 11.9143C4.51889 12.2997 4.65432 12.6692 4.86 13C5.05904 13.2646 5.35421 13.4401 5.68169 13.4888C6.00917 13.5375 6.34264 13.4553 6.61 13.26C6.3132 14.4858 6.14562 15.7393 6.11 17C6.11863 17.1552 6.14207 17.3092 6.18 17.46C6.2114 17.6208 6.25828 17.7782 6.32 17.93C6.46997 18.2826 6.65773 18.6179 6.88 18.93C7.01 19.24 7.71 19.42 8.95 18.27C9.08018 18.1498 9.20057 18.0194 9.31 17.88C9.42132 17.7414 9.52162 17.5943 9.61 17.44C9.782 17.0848 9.93554 16.721 10.07 16.35C10.4358 16.6663 10.8559 16.9136 11.31 17.08C11.5767 17.1791 11.8562 17.2397 12.14 17.26C12.5737 17.2904 13.0094 17.2498 13.43 17.14C13.52 17.14 13.59 17.03 13.68 16.99C14.4012 17.4536 15.2333 17.716 16.09 17.75C16.6858 17.7437 17.2792 17.6733 17.86 17.54C18.6616 17.3253 19.4768 17.165 20.3 17.06C20.4008 17.06 20.4974 17.02 20.5687 16.9487C20.64 16.8774 20.68 16.7808 20.68 16.68C20.68 16.5792 20.64 16.4826 20.5687 16.4113C20.4974 16.34 20.4008 16.3 20.3 16.3C19.3001 16.2265 18.2954 16.2499 17.3 16.37L16.17 16.48H15.45C15.1136 16.4807 14.7782 16.4438 14.45 16.37C14.5665 16.2485 14.6643 16.1103 14.74 15.96C14.8713 15.6789 14.896 15.3596 14.8096 15.0616C14.7231 14.7636 14.5314 14.5072 14.27 14.34C14.27 14.34 14.18 14.34 14.13 14.34C14.3593 14.1884 14.5549 13.9912 14.7046 13.7606C14.8543 13.5301 14.9549 13.2712 15 13C15.0396 12.7477 15.0003 12.4894 14.8875 12.2603C14.7748 12.0312 14.594 11.8425 14.37 11.72C14.2888 11.6687 14.1912 11.6501 14.0968 11.6678C14.0024 11.6856 13.9183 11.7384 13.8612 11.8157C13.8042 11.893 13.7786 11.989 13.7895 12.0844C13.8004 12.1798 13.847 12.2676 13.92 12.33C13.9858 12.3888 14.0325 12.4659 14.0539 12.5515C14.0753 12.6371 14.0704 12.7272 14.04 12.81C13.974 12.9526 13.8753 13.0775 13.7519 13.1748C13.6286 13.2721 13.484 13.339 13.33 13.37C13.0855 13.416 12.8345 13.416 12.59 13.37L11.99 13.31C11.6968 13.2664 11.4064 13.2063 11.12 13.13V12.58C11.1424 12.5359 11.1549 12.4875 11.1567 12.4381C11.1584 12.3887 11.1494 12.3395 11.1302 12.2939C11.111 12.2484 11.0821 12.2076 11.0455 12.1743C11.0089 12.1411 10.9655 12.1162 10.9183 12.1015C10.8711 12.0867 10.8213 12.0825 10.7723 12.0889C10.7232 12.0954 10.6762 12.1125 10.6345 12.139C10.5928 12.1656 10.5574 12.2009 10.5307 12.2425C10.504 12.2841 10.4867 12.331 10.48 12.38C10.38 12.56 9.74 13.82 9.69 13.98C9.64279 14.1509 9.60606 14.3246 9.58 14.5C9.57513 14.5733 9.57513 14.6467 9.58 14.72C9.32 14.61 9.1 14.48 8.84 14.38C8.73204 14.3284 8.61771 14.2914 8.5 14.27C8.38831 14.2436 8.27456 14.2269 8.16 14.22C7.85 14.22 7.59 14.28 7.29 14.3H7.23C7.77 12.19 8.32 9.99 8.95 7.83C9.39327 6.18047 9.95815 4.56605 10.64 3L11.2 1.85C11.43 1.46 11.67 1.15 11.95 1.14C12.23 1.13 12.32 1.41 12.44 1.88C12.5697 2.40291 12.6236 2.94175 12.6 3.48C12.5659 4.3288 12.4521 5.17251 12.26 6C12.2386 6.09797 12.2557 6.20042 12.3079 6.28608C12.36 6.37175 12.4431 6.43403 12.54 6.46C12.6194 6.47488 12.7014 6.46338 12.7736 6.42727C12.8459 6.39116 12.9043 6.33242 12.94 6.26C12.9821 6.27448 13.0279 6.27448 13.07 6.26C13.9795 6.26223 14.8834 6.40388 15.75 6.68C16.07 6.78 16.39 6.9 16.7 7.01C17.19 7.18 17.7 7.37 18.15 7.55C19.39 8.02 20.64 8.5 21.96 8.86C22.0568 8.89201 22.1624 8.88482 22.254 8.83995C22.3456 8.79509 22.4159 8.71613 22.45 8.62C22.4783 8.52717 22.469 8.42693 22.4241 8.34088C22.3792 8.25484 22.3023 8.18988 22.21 8.16ZM6.64 12C6.51861 12.1469 6.3645 12.2634 6.19 12.34C6.07699 12.3813 5.95301 12.3813 5.84 12.34C5.76 12.34 5.76 12.21 5.73 12.12C5.62053 11.7649 5.62053 11.3851 5.73 11.03C5.87688 10.516 6.06413 10.0145 6.29 9.53C6.5092 9.02953 6.76315 8.54501 7.05 8.08C7.29056 7.72929 7.55449 7.3952 7.84 7.08C7.84 7.26 7.73 7.42 7.68 7.6C7.36073 8.9235 7.08723 10.2576 6.86 11.6C6.81 11.74 6.74 11.87 6.64 12ZM12 14.6C12.5194 14.7497 13.0706 14.7497 13.59 14.6C13.5651 14.6691 13.5613 14.744 13.5791 14.8152C13.5969 14.8865 13.6355 14.9508 13.69 15C13.7592 15.0827 13.797 15.1872 13.797 15.295C13.797 15.4028 13.7592 15.5073 13.69 15.59C13.6152 15.689 13.5205 15.7713 13.412 15.8316C13.3035 15.8919 13.1836 15.9288 13.06 15.94C12.7581 16.0067 12.4488 16.0336 12.14 16.02C11.8051 16.0357 11.4695 16.0122 11.14 15.95C10.8261 15.8823 10.5232 15.7712 10.24 15.62C10.37 15.38 10.5 15.15 10.61 14.91C10.6863 14.7486 10.7499 14.5814 10.8 14.41C10.8247 14.3245 10.8448 14.2377 10.86 14.15C11.2201 14.3462 11.603 14.4973 12 14.6ZM7.09 15C7.33471 15.1755 7.59208 15.3326 7.86 15.47C7.97142 15.5216 8.08907 15.5586 8.21 15.58C8.33312 15.5903 8.45688 15.5903 8.58 15.58C8.87101 15.5716 9.16139 15.5482 9.45 15.51V15.74C9.41922 15.8205 9.41922 15.9095 9.45 15.99C9.12046 16.2477 8.80657 16.5249 8.51 16.82C8.34217 17.0249 8.18529 17.2385 8.04 17.46C7.87 17.72 7.72 17.99 7.56 18.25C7.56 18.0167 7.54 17.7867 7.5 17.56C7.4779 17.3166 7.43439 17.0757 7.37 16.84C7.23015 16.4419 7.04208 16.0624 6.81 15.71C6.81 15.71 6.87 15.64 6.88 15.6C6.94 15.38 7 15.15 7.05 14.93C7.06 15 7.07 15 7.09 15Z" fill="black"/>
<path fill-rule="evenodd" clip-rule="evenodd" d="M10.88 21.42C9.75689 20.9816 8.53096 20.8775 7.34999 21.12L6.16999 21.42L4.89999 21.6C4.63854 21.6103 4.37679 21.5901 4.11999 21.54C3.87936 21.4896 3.64707 21.4054 3.42999 21.29C3.01999 21.08 2.73999 20.83 2.68999 20.52C2.66997 20.3274 2.7021 20.133 2.78303 19.957C2.86396 19.7811 2.9907 19.6302 3.14999 19.52C3.53041 19.1926 3.97238 18.9444 4.44999 18.79C4.9511 18.6322 5.47475 18.5579 5.99999 18.57C6.07891 18.5563 6.15047 18.5152 6.20204 18.4539C6.25362 18.3926 6.2819 18.3151 6.2819 18.235C6.2819 18.1549 6.25362 18.0774 6.20204 18.0161C6.15047 17.9548 6.07891 17.9137 5.99999 17.9C5.4085 17.8362 4.81053 17.8699 4.22999 18C3.61872 18.1334 3.04056 18.3884 2.52999 18.75C2.20858 18.9458 1.946 19.2248 1.76999 19.5575C1.59398 19.8901 1.51106 20.2641 1.52999 20.64C1.58418 21.0167 1.73019 21.3742 1.95515 21.6812C2.18011 21.9881 2.47712 22.235 2.81999 22.4C3.13035 22.5826 3.46796 22.7143 3.81999 22.79C4.17475 22.8654 4.53764 22.8957 4.89999 22.88C5.16493 22.8727 5.42897 22.846 5.68999 22.8C5.93999 22.8 6.18999 22.7 6.43999 22.64L7.63999 22.25C8.55303 21.9747 9.52695 21.9747 10.44 22.25C10.6 22.32 10.75 22.39 10.79 22.54C10.83 22.69 10.79 23.02 10.5 23.38C10.4698 23.4201 10.4478 23.4657 10.4352 23.5142C10.4226 23.5628 10.4197 23.6134 10.4267 23.6631C10.4337 23.7127 10.4503 23.7606 10.4758 23.8038C10.5012 23.847 10.5349 23.8848 10.575 23.915C10.615 23.9452 10.6607 23.9672 10.7092 23.9798C10.7578 23.9924 10.8083 23.9953 10.858 23.9883C10.9584 23.9743 11.049 23.9209 11.11 23.84C11.3067 23.6433 11.4551 23.4037 11.5436 23.1399C11.6321 22.8762 11.6582 22.5956 11.62 22.32C11.5679 22.1259 11.4749 21.9452 11.3473 21.79C11.2197 21.6348 11.0603 21.5086 10.88 21.42Z" fill="black"/>
</svg>
