<svg width="24" height="24" viewBox="0 0 24 24" fill="none" xmlns="http://www.w3.org/2000/svg">
<g clip-path="url(#clip0_1048_7081)">
<path fill-rule="evenodd" clip-rule="evenodd" d="M12.09 0.849982C10.8966 0.828286 9.71055 1.04238 8.60001 1.47998C8.31329 1.63125 8.03909 1.80514 7.78001 1.99998C7.12048 2.51828 6.53798 3.12771 6.05001 3.80998C5.82551 4.1261 5.62814 4.46062 5.46001 4.80998C4.80567 5.91044 4.42501 7.15188 4.35001 8.42998C4.41575 9.83654 4.72712 11.2207 5.27001 12.52C6.72803 15.6026 8.93947 18.268 11.7 20.27C12.6834 21.0691 13.734 21.7817 14.84 22.4C15.04 22.5 15.25 22.58 15.46 22.66C17.34 23.45 17.53 23.18 17.7 22.77C17.6899 22.6993 17.6572 22.6338 17.6067 22.5833C17.5562 22.5328 17.4907 22.5001 17.42 22.49C16.6364 22.3753 15.8806 22.1177 15.19 21.73C14.1289 21.1065 13.1249 20.3904 12.19 19.59C9.49354 17.5247 7.4177 14.7569 6.19001 11.59C7.49001 11.68 8.79001 11.76 10.1 11.78C11.41 11.8 12.49 11.78 13.68 11.78L18.87 11.58V10.58C18.057 10.6898 17.233 10.6898 16.42 10.58C17.0128 10.2397 17.5192 9.76753 17.9 9.19998C17.9379 9.1357 17.9713 9.06887 18 8.99998C18.5641 8.19578 18.8668 7.23731 18.8668 6.25498C18.8668 5.27266 18.5641 4.31418 18 3.50998C17.382 2.64327 16.5476 1.95369 15.58 1.50998C14.4786 1.03858 13.2875 0.813335 12.09 0.849982ZM9.37001 10.49C8.22001 10.49 7.07001 10.6 5.92001 10.65C5.65054 9.61373 5.61758 8.53014 5.82357 7.47943C6.02955 6.42871 6.46922 5.43778 7.11001 4.57998C7.53215 4.00563 8.02999 3.49097 8.59001 3.04998C9.12845 2.61074 9.74155 2.272 10.4 2.04998C10.55 2.04998 10.73 1.99998 10.89 1.96998C10.82 2.78998 10.74 3.61998 10.69 4.44998V6.16998L10.94 10.43L9.37001 10.49ZM11.76 10.49V9.71998C11.8997 9.93237 12.0605 10.13 12.24 10.31C12.33 10.4 12.44 10.42 12.54 10.5L11.76 10.49ZM14.82 2.54998C15.5147 2.7755 16.1393 3.17662 16.6333 3.71449C17.1274 4.25235 17.4742 4.90872 17.64 5.61998C17.7949 6.66184 17.5752 7.72487 17.02 8.61998C16.7532 9.06011 16.3817 9.4274 15.9385 9.68912C15.4953 9.95084 14.9943 10.0989 14.48 10.12C14.1896 10.1429 13.8974 10.1089 13.62 10.02C13.3524 9.93887 13.1063 9.79877 12.9 9.60998C12.5749 9.33479 12.3227 8.98366 12.1657 8.5877C12.0087 8.19175 11.9518 7.76319 12 7.33998C12.14 6.66998 12.77 6.25998 13.9 6.47998C14.0019 6.4978 14.1067 6.47547 14.1925 6.41767C14.2782 6.35987 14.3383 6.2711 14.36 6.16998C14.3778 6.0681 14.3555 5.96328 14.2977 5.87752C14.2399 5.79175 14.1511 5.73171 14.05 5.70998C13.707 5.61228 13.3474 5.58761 12.9942 5.63757C12.6411 5.68752 12.3024 5.81098 12 5.99998V3.90998C12 3.21998 11.92 2.55998 11.86 1.90998C12.8768 1.91102 13.8831 2.11501 14.82 2.50998V2.54998Z" fill="black"/>
<path fill-rule="evenodd" clip-rule="evenodd" d="M12.09 0.850012C15.3433 0.890012 18.0667 1.00668 20.26 1.20001C19.8 10.01 19.26 10.63 19.52 19.93C19.52 20.77 19.57 21.6 19.65 22.43C19.6525 22.4808 19.6652 22.5306 19.6873 22.5765C19.7095 22.6223 19.7406 22.6632 19.7788 22.6968C19.8171 22.7304 19.8616 22.7559 19.9099 22.7719C19.9583 22.7879 20.0093 22.7941 20.06 22.79C20.1112 22.7875 20.1615 22.7748 20.2078 22.7528C20.2542 22.7308 20.2957 22.6999 20.3301 22.6618C20.3644 22.6237 20.391 22.5792 20.4081 22.5309C20.4253 22.4825 20.4327 22.4312 20.43 22.38V19.94C20.5 18.02 20.67 16.1 20.73 14.17V9.41001C20.73 7.82001 20.68 6.24001 20.73 4.66001C20.94 -0.999988 21.52 0.420012 14.27 1.19358e-05C13.54 1.19358e-05 12.82 -0.0699881 12.09 -0.0899881C11.36 -0.109988 10.64 -0.0899881 9.92 -0.0899881C8.23 1.19358e-05 5.8 0.110012 4.1 0.210012C4.05014 0.211512 4.00138 0.225022 3.95786 0.249395C3.91433 0.273768 3.87733 0.308284 3.85 0.350012C3.80491 0.382575 3.7673 0.424406 3.73971 0.472699C3.71211 0.520993 3.69516 0.57463 3.69 0.630012C3.49 3.30001 3.28 6.00001 3.19 8.71001V14.11C3.27 16.17 3.44 18.22 3.55 20.27C3.6 21.15 3.63 22.52 3.65 23.4C3.64992 23.4451 3.65907 23.4897 3.67689 23.5311C3.69471 23.5725 3.72082 23.6098 3.75362 23.6407C3.78641 23.6716 3.82519 23.6955 3.86757 23.7109C3.90994 23.7262 3.95501 23.7327 4 23.73L12.61 24.04C14.01 24.09 15.56 23.87 17.05 23.89C18.1288 23.9108 19.2078 23.8607 20.28 23.74C20.3323 23.7341 20.3828 23.7177 20.4286 23.6918C20.4744 23.6659 20.5144 23.6309 20.5464 23.5891C20.5783 23.5473 20.6014 23.4995 20.6144 23.4485C20.6273 23.3975 20.6298 23.3444 20.6217 23.2924C20.6136 23.2404 20.5951 23.1906 20.5672 23.146C20.5394 23.1013 20.5028 23.0628 20.4597 23.0327C20.4165 23.0026 20.3677 22.9815 20.3162 22.9707C20.2647 22.9599 20.2116 22.9597 20.16 22.97C20.02 22.97 20.86 22.97 17.92 23.15C12.28 23.15 10.14 23.26 4.36 23.02C4.41 21.96 4.44 20.4 4.45 19.34V14.07V12.52C4.45 12.42 4.27 8.12001 4.28 8.39001L4.47 0.920012C7.16 0.850012 9.59 0.830012 11.78 0.850012H12.09Z" fill="black"/>
</g>
<defs>
<clipPath id="clip0_1048_7081">
<rect width="24" height="24" fill="white"/>
</clipPath>
</defs>
</svg>
