<svg width="24" height="24" viewBox="0 0 24 24" fill="none" xmlns="http://www.w3.org/2000/svg">
<g clip-path="url(#clip0_1048_7129)">
<path d="M15.33 4.18998C14.6933 2.73727 13.9443 1.33636 13.09 -1.53705e-05C13.0239 -0.0232899 12.9524 -0.0262015 12.8846 -0.00837351C12.8169 0.00945449 12.7561 0.0472017 12.71 0.0999846C12.59 0.239985 12.71 0.0999846 11.5 1.97998C11.02 2.75998 10.39 3.04998 10.25 4.40998C10.2143 5.07617 10.2143 5.74379 10.25 6.40998C10.18 10.82 9.84 15.12 10.36 19.66C10.57 21.41 10.94 23.66 12.74 23.97C14.54 24.28 15.21 21.97 15.34 19.97C15.34 16.4 15.54 17.89 15.42 7.74998C15.41 7.69998 15.35 4.30998 15.33 4.18998ZM11.49 19.68C11.49 19.4 11.43 19.23 11.34 18.44C12.3018 18.563 13.2739 18.5831 14.24 18.5C14.2232 18.8331 14.2232 19.1669 14.24 19.5C13.3286 19.2552 12.3617 19.3184 11.49 19.68ZM14.49 4.47998C14.77 5.05998 14.42 15.6 14.3 17.66C13.3255 17.3173 12.26 17.3386 11.3 17.72C11 14 11.08 10.31 11 6.40998V4.99998C11.49 5.63998 12.4 7.32998 13 6.33998C13.4306 5.67253 13.9263 5.04948 14.48 4.47998H14.49ZM12.88 0.999985C13.002 1.20349 13.1122 1.41383 13.21 1.62998C13.5961 2.26892 13.9305 2.93772 14.21 3.62998C14.12 3.62998 12.47 5.04998 12.41 5.10998C11.86 4.46999 11.82 4.80998 11.08 3.83998C11.27 3.27998 11.2 3.72998 12.88 0.999985ZM11.6 20.46C12.4588 20.563 13.3281 20.5394 14.18 20.39C13.83 23.9 12.1 23.47 11.6 20.46Z" fill="black"/>
<path d="M20.14 7.80001C20.209 7.83979 20.2909 7.85055 20.3678 7.82992C20.4447 7.80929 20.5102 7.75897 20.55 7.69001C20.5898 7.62105 20.6006 7.53912 20.5799 7.46223C20.5593 7.38534 20.509 7.31979 20.44 7.28001C20.07 7.04001 19.54 7.40001 18.52 6.57001C18.3782 6.46846 18.2589 6.33881 18.1695 6.18913C18.08 6.03945 18.0223 5.87295 18 5.70001C17.88 4.37001 20 3.48001 20.17 2.00001C20.1367 1.80704 20.0796 1.61894 20 1.44001C21.17 1.97001 21.5 1.97001 21.81 2.32001C22.66 3.32001 22.46 5.20001 21.81 6.25001C21.6299 6.63583 21.367 6.97725 21.04 7.25001C20.6 7.47001 20.97 8.45001 21.9 7.42001C23.64 5.49001 23.64 2.97001 22.65 1.67001C22.2082 1.18006 21.6358 0.826237 21 0.650009C20.6762 0.440465 20.317 0.291386 19.94 0.210009C19.8408 0.184698 19.7376 0.179415 19.6364 0.19447C19.5351 0.209525 19.4379 0.244615 19.3504 0.297688C19.2628 0.350761 19.1868 0.420752 19.1266 0.503568C19.0665 0.586384 19.0234 0.680363 19 0.780009C18.965 1.13582 18.965 1.4942 19 1.85001L18.79 2.36001C18.2 3.46001 16.79 4.20001 17.1 5.81001C17.47 7.84001 20.46 7.84001 20.14 7.80001Z" fill="black"/>
<path d="M21.47 9.11998C21.47 9.28998 21.47 9.11998 21.4 12C21.4 14.32 20.48 22.68 20.13 22.64C19.78 22.6 19.41 20.7 19.36 20.36C18.7797 17.3668 18.6215 14.3071 18.89 11.27C18.977 10.3375 19.1579 9.41613 19.43 8.51998C19.43 7.99998 18.98 7.77998 18.78 8.38998C18.58 8.99998 18.47 9.50998 18.42 9.72998C17.19 14.99 18.18 21.64 18.84 22.88C19.5 24.12 20.72 24.14 21.28 22.95C21.5661 22.0299 21.7176 21.0734 21.73 20.11C22.1 14.2 22.24 16.49 22.15 9.10998C22.53 8.72998 21.64 8.13998 21.47 9.11998Z" fill="black"/>
<path d="M4.00001 18.82C3.56001 18.94 3.47001 18.99 3.40001 19.27C3.33001 19.55 3.40001 19.4 4.58001 21.54C5.58001 23.39 5.58001 23.54 5.87001 23.54C5.93757 23.5415 6.00353 23.5193 6.05647 23.4773C6.10942 23.4353 6.14604 23.3761 6.16001 23.31C6.16001 23.21 6.37001 23.58 4.37001 19.71C5.48226 19.6634 6.58741 19.5093 7.67001 19.25C7.15928 20.212 6.73108 21.2156 6.39001 22.25C6.39001 22.64 6.90001 22.73 7.09001 22.25C8.16001 19.77 8.55001 19.47 8.55001 18.69C8.55001 17.91 4.41001 18.7 4.00001 18.82Z" fill="black"/>
<path d="M2.24001 5.93C2.42221 5.38453 2.6779 4.86643 3.00001 4.39C3.23778 4.12719 3.5471 3.93951 3.89001 3.85C3.61001 5.68 3.73001 7.32 3.60001 9.13C3.41001 11.92 3.39001 15.26 3.39001 17.32C3.51001 18.32 3.78001 18.32 4.21001 17.32C4.21001 16.32 4.21001 14.97 4.40001 12.32C5.4722 12.5648 6.59167 12.5024 7.63001 12.14C7.63001 15.25 7.69001 16.66 7.70001 17.36C7.71001 18.06 8.11001 18.16 8.51001 17.36C8.51001 16.04 8.51001 12.66 8.63001 4.74C8.63001 3.29 8.82001 1.54 7.50001 0.740001C7.11001 0.490001 6.84001 0.190001 6.27001 0.280001C4.89001 0.520001 4.27001 1.82 4.00001 3.19C3.36091 3.18133 2.74118 3.40928 2.26001 3.83C1.00001 5.2 0.780013 6.56 0.690013 8.42C0.690013 9.08 0.510013 10.42 1.23001 10.42C1.95001 10.42 1.00001 9.59 2.24001 5.93ZM6.46001 1.41L6.87001 1.68C7.59001 2.1 7.50001 3.59 7.48001 4.44C6.63365 4.25213 5.75638 4.25213 4.91001 4.44C5.00001 3.33 5.38001 1.59 6.46001 1.41ZM4.60001 9.22L4.85001 5.22C5.71361 5.44114 6.61591 5.46507 7.49001 5.29L7.58001 11.29C6.5124 11.1449 5.42584 11.2406 4.40001 11.57C4.46001 10.8 4.52001 10 4.60001 9.22Z" fill="black"/>
</g>
<defs>
<clipPath id="clip0_1048_7129">
<rect width="24" height="24" fill="white"/>
</clipPath>
</defs>
</svg>
