<svg width="24" height="24" viewBox="0 0 24 24" fill="none" xmlns="http://www.w3.org/2000/svg">
<path fill-rule="evenodd" clip-rule="evenodd" d="M23.92 6.79C23.8672 5.63133 23.6758 4.48316 23.35 3.37C23.2566 3.01097 23.0497 2.69177 22.76 2.46C22.614 2.35869 22.4461 2.29357 22.27 2.27C21.7426 2.26022 21.2151 2.28025 20.69 2.33C20.6524 2.32997 20.6151 2.33753 20.5805 2.35222C20.5458 2.36692 20.5145 2.38844 20.4884 2.41551C20.4623 2.44258 20.4418 2.47464 20.4284 2.50977C20.4149 2.5449 20.4087 2.58239 20.41 2.62C20.4099 2.6572 20.4175 2.69402 20.4323 2.72816C20.4471 2.76229 20.4688 2.793 20.496 2.81835C20.5232 2.8437 20.5554 2.86315 20.5905 2.87548C20.6256 2.88781 20.6629 2.89275 20.7 2.89H22.01C22.0742 2.88599 22.1385 2.8955 22.1988 2.91789C22.2591 2.94028 22.314 2.97506 22.36 3.02C22.47 3.1 22.52 3.3 22.59 3.56C22.7194 4.17232 22.7964 4.79458 22.82 5.42C22.82 5.96 22.87 6.56 22.89 7.19C22.89 8.04 22.89 8.95 22.94 9.85999V16.56V16.66C22.94 16.69 22.88 16.66 22.84 16.66L13.33 16.86C11.88 16.86 10.44 17 9 17.05H6.15C5.2 17.05 4.32 17 3.4 17C3.02 17 2.64 17 2.26 16.92C2.01208 16.9066 1.76506 16.8799 1.52 16.84C1.3821 16.8258 1.25412 16.7618 1.16 16.66C1.08402 16.5048 1.04957 16.3325 1.06 16.16C1.06 15.72 1.14 15.25 1.14 14.93L1.31 9.43C1.31 8.57 1.26 6.49 1.31 4.82C1.31558 4.2481 1.35565 3.67706 1.43 3.11L1.69 3C3.77998 2.70345 5.88915 2.56306 8 2.58C13 2.49 18.75 2.58 18.75 2.58C18.8164 2.56749 18.8764 2.53217 18.9196 2.48013C18.9628 2.42809 18.9864 2.36261 18.9864 2.295C18.9864 2.22739 18.9628 2.1619 18.9196 2.10986C18.8764 2.05782 18.8164 2.0225 18.75 2.01C18.75 2.01 9.63 1.62 4.43 1.79C3.3038 1.78186 2.1802 1.89926 1.08 2.14C0.938611 2.17269 0.808104 2.24147 0.7012 2.33961C0.594296 2.43775 0.514642 2.56191 0.47 2.7C0.344176 3.37982 0.273944 4.06877 0.26 4.76C0.19 6.44 0.26 8.52 0.26 9.39L0.1 14.89C0.0392126 15.3911 0.00582956 15.8952 0 16.4C0.0261826 16.7027 0.12572 16.9944 0.29 17.25C0.442895 17.4566 0.650813 17.616 0.89 17.71C1.29683 17.8452 1.72144 17.9193 2.15 17.93L3.37 18H6.11H8.31L9.97 17.9C9.89 18.06 9.81 18.21 9.74 18.37C9.41 19.08 9.12 19.8 8.8 20.52C8.639 20.8028 8.49863 21.0969 8.38 21.4C8.332 21.5393 8.332 21.6907 8.38 21.83C8.41031 21.9047 8.45638 21.9719 8.51506 22.0271C8.57374 22.0823 8.64364 22.1243 8.72 22.15C8.84849 22.1788 8.97879 22.1989 9.11 22.21C9.29653 22.2202 9.48347 22.2202 9.67 22.21C9.92796 22.1977 10.185 22.171 10.44 22.13C11.3561 21.9659 12.281 21.8557 13.21 21.8C15.38 21.69 15.85 21.93 15.21 20.05C15.13 19.82 15.09 19.58 15 19.34C14.9213 19.1108 14.8278 18.887 14.72 18.67C14.5379 18.3101 14.3376 17.9596 14.12 17.62L22.84 17.26C22.8824 17.2601 22.9245 17.2515 22.9634 17.2346C23.0024 17.2178 23.0375 17.1932 23.0666 17.1622C23.0957 17.1313 23.1181 17.0947 23.1324 17.0548C23.1467 17.0148 23.1527 16.9724 23.15 16.93C23.15 16.93 23.15 16.93 23.2 16.93C23.2415 16.9341 23.2835 16.9298 23.3233 16.9173C23.3631 16.9048 23.4 16.8844 23.4317 16.8574C23.4635 16.8303 23.4894 16.7971 23.508 16.7597C23.5266 16.7224 23.5375 16.6816 23.54 16.64C23.67 15.59 23.91 13.23 23.98 10.73C24 9.39999 24 8 23.92 6.79ZM13.85 19.31C13.97 19.66 14.11 20.01 14.25 20.36L14.58 21.14C13.9665 21.0586 13.3488 21.0118 12.73 21C11.93 21 11.12 21 10.31 21.11H9.55C9.63 20.98 9.71 20.87 9.72 20.84C9.94 20.1 10.13 19.34 10.37 18.6C10.45 18.34 10.54 18.09 10.64 17.84C11.54 17.77 12.45 17.71 13.36 17.66H13.42C13.56 18.22 13.68 18.76 13.85 19.31Z" fill="black"/>
<path fill-rule="evenodd" clip-rule="evenodd" d="M11.87 8.37999L11.21 9.11999L9.91 10.37C9.36492 10.8856 8.84752 11.4297 8.36 12C8.03062 12.3786 7.72344 12.7759 7.44 13.19C7.39414 13.2537 7.36273 13.3267 7.34795 13.4037C7.33317 13.4808 7.33538 13.5602 7.35442 13.6364C7.37346 13.7125 7.40887 13.7836 7.45819 13.8447C7.50751 13.9058 7.56956 13.9554 7.64 13.99C8.09236 14.2157 8.5643 14.3998 9.05 14.54C9.58689 14.647 10.1326 14.7039 10.68 14.71C11.9 14.71 13.13 14.58 14.33 14.63C14.3715 14.6341 14.4135 14.6298 14.4533 14.6173C14.4931 14.6048 14.53 14.5844 14.5617 14.5574C14.5935 14.5303 14.6194 14.4971 14.638 14.4597C14.6566 14.4224 14.6675 14.3816 14.67 14.34C14.6756 14.2567 14.6484 14.1745 14.5942 14.111C14.54 14.0475 14.4631 14.0076 14.38 14C13.18 13.89 11.93 14 10.72 13.89C10.2245 13.854 9.73281 13.7771 9.25 13.66C8.98529 13.6088 8.72461 13.5386 8.47 13.45C8.76 13.1 9.07 12.76 9.38 12.45C9.69 12.14 10.21 11.6 10.65 11.2L12 9.86999L12.72 8.99999L13.05 8.47999C13.54 7.55999 13.3 7.08999 12.97 6.87999C12.7555 6.75394 12.5083 6.69474 12.26 6.70999C11.91 6.70999 11.48 6.79999 11.11 6.83999L6.56 7.63999C6.52314 7.64373 6.4874 7.65474 6.45483 7.67238C6.42227 7.69003 6.39352 7.71396 6.37027 7.7428C6.34702 7.77163 6.32972 7.80479 6.31937 7.84035C6.30903 7.87592 6.30584 7.91319 6.31 7.94999C6.31998 8.02336 6.35766 8.09013 6.4153 8.13662C6.47294 8.1831 6.54618 8.20578 6.62 8.19999L11.19 7.68999L12.09 7.62999C12.153 7.62097 12.217 7.62097 12.28 7.62999C12.2523 7.7345 12.212 7.83524 12.16 7.92999L11.87 8.37999Z" fill="black"/>
<path fill-rule="evenodd" clip-rule="evenodd" d="M17.24 7.57999C16.9021 7.50774 16.5683 7.41761 16.24 7.30999H16.02C16.4671 6.88863 16.8662 6.41911 17.21 5.90999C17.4182 5.58724 17.5034 5.20035 17.45 4.81999C17.42 4.69851 17.3488 4.59122 17.2485 4.51644C17.1482 4.44165 17.025 4.40403 16.9 4.40999C16.5891 4.45077 16.2816 4.51428 15.98 4.59999L15.33 4.70999L14.22 4.89999C14.1476 4.91214 14.0822 4.9504 14.0361 5.00753C13.9901 5.06465 13.9665 5.13669 13.97 5.20999C13.9737 5.2478 13.985 5.28448 14.0032 5.31778C14.0215 5.35108 14.0464 5.38031 14.0763 5.4037C14.1063 5.42709 14.1406 5.44414 14.1774 5.45382C14.2141 5.46349 14.2524 5.4656 14.29 5.45999H15.38H16.1C16.19 5.42276 16.2839 5.39592 16.38 5.37999L16.2 5.59999C15.8872 5.98798 15.5534 6.35854 15.2 6.70999C15.14 6.77999 14.94 6.92999 14.84 7.05999C14.7613 7.15197 14.7064 7.26184 14.68 7.37999C14.6515 7.50601 14.6666 7.63798 14.723 7.75426C14.7793 7.87054 14.8734 7.96424 14.99 8.01999C15.3212 8.11409 15.6587 8.18426 16 8.22999C16.38 8.29999 16.76 8.34999 17.14 8.38999C17.7 8.38999 18.26 8.45999 18.82 8.48999C18.8623 8.49556 18.9053 8.49234 18.9463 8.48053C18.9873 8.46872 19.0254 8.44858 19.0583 8.42135C19.0911 8.39413 19.118 8.36042 19.1372 8.32233C19.1565 8.28424 19.1676 8.24259 19.17 8.19999C19.1785 8.11661 19.1539 8.03323 19.1015 7.96778C19.0492 7.90233 18.9732 7.86004 18.89 7.84999C18.32 7.76999 17.78 7.68999 17.24 7.57999Z" fill="black"/>
</svg>
