<svg width="24" height="24" viewBox="0 0 24 24" fill="none" xmlns="http://www.w3.org/2000/svg">
<g clip-path="url(#clip0_1035_4857)">
<path d="M14.54 19.28C14.68 19.87 14.74 20.52 14.91 21.13C14.9628 21.307 15.0263 21.4806 15.1 21.65H14.58H13.22H11.17C10.49 21.65 9.71 21.73 8.97 21.81C9.07 21.56 9.17 21.32 9.25 21.07C9.41 20.62 9.51 20.15 9.64 19.69L9.83 18.61L13.3 18.72H14.45C14.49 18.9067 14.52 19.0933 14.54 19.28ZM0.78 11.3V9.05001C0.792675 8.49019 0.84615 7.93205 0.94 7.38001C1.06 6.54001 1.25 5.72001 1.42 4.86001C1.48387 4.37398 1.58077 3.89287 1.71 3.42001C1.78834 3.1363 1.92834 2.87338 2.12 2.65001C2.14692 2.62046 2.16776 2.5859 2.18132 2.5483C2.19489 2.5107 2.20091 2.47079 2.19906 2.43087C2.1972 2.39094 2.1875 2.35176 2.1705 2.31558C2.1535 2.27941 2.12955 2.24693 2.1 2.22001C2.07045 2.19309 2.03589 2.17225 1.99829 2.15868C1.96069 2.14512 1.92079 2.13909 1.88086 2.14095C1.84093 2.14281 1.80176 2.15251 1.76558 2.16951C1.7294 2.1865 1.69692 2.21046 1.67 2.24001C1.41661 2.53133 1.22598 2.87174 1.11 3.24001C0.973202 3.73036 0.863041 4.22775 0.78 4.73001C0.59 5.60001 0.39 6.43001 0.24 7.27001C0.124553 7.8412 0.0444011 8.41896 0 9.00001L0 11.3C0 12.08 0 12.85 0.08 13.6C0.118868 14.7254 0.405693 15.8283 0.92 16.83C1.11962 17.2081 1.40406 17.5349 1.75103 17.7847C2.09801 18.0345 2.49811 18.2006 2.92 18.27C3.22428 18.3225 3.53155 18.3559 3.84 18.37C4.52 18.37 5.29 18.37 5.84 18.47C6.37118 18.5305 6.90539 18.5606 7.44 18.56H9.05C8.95 18.83 8.87 19.11 8.77 19.38C8.65 19.84 8.5 20.29 8.39 20.75C8.28 21.21 8.24 21.49 8.16 21.86C7.82919 21.9168 7.49524 21.9535 7.16 21.97C6.7729 22.0079 6.3824 21.9911 6 21.92C5.96192 21.9094 5.92211 21.9064 5.88287 21.9112C5.84362 21.916 5.80572 21.9286 5.77134 21.9481C5.73695 21.9676 5.70676 21.9937 5.68251 22.0249C5.65825 22.0562 5.64041 22.0919 5.63 22.13C5.61938 22.1681 5.61639 22.2079 5.62121 22.2471C5.62603 22.2864 5.63855 22.3243 5.65807 22.3587C5.67758 22.3931 5.7037 22.4232 5.73493 22.4475C5.76615 22.4718 5.80186 22.4896 5.84 22.5C6.24816 22.6314 6.67176 22.7087 7.1 22.73H8.93H10.62H12.32C13.08 22.73 13.84 22.67 14.61 22.62L15.71 22.55H15.85L16.79 22.49L17.7 22.43C17.744 22.4385 17.7892 22.4383 17.8331 22.4294C17.8771 22.4204 17.9188 22.4029 17.9559 22.3778C17.9931 22.3528 18.0249 22.3206 18.0496 22.2833C18.0743 22.2459 18.0915 22.204 18.1 22.16C18.1085 22.116 18.1083 22.0708 18.0994 22.0269C18.0904 21.983 18.0729 21.9412 18.0478 21.9041C18.0228 21.8669 17.9906 21.8351 17.9533 21.8104C17.9159 21.7857 17.874 21.7685 17.83 21.76L16.83 21.71H16L15.45 19.09C15.45 18.96 15.36 18.82 15.31 18.67H18.65C19.3162 18.705 19.9838 18.705 20.65 18.67C20.9937 18.6421 21.3311 18.5612 21.65 18.43C22.1125 18.2108 22.4864 17.8404 22.71 17.38C23.0724 16.5193 23.3211 15.615 23.45 14.69C23.7966 13.2043 23.981 11.6855 24 10.16C24.0219 8.67402 23.9551 7.18804 23.8 5.71001C23.7843 4.91331 23.6939 4.11983 23.53 3.34001C23.4294 2.9194 23.1984 2.54138 22.87 2.26001C22.6052 2.05229 22.298 1.90547 21.97 1.83001C21.3489 1.71138 20.721 1.63123 20.09 1.59001C19.38 1.49001 18.66 1.44001 17.93 1.40001C16.28 1.33001 14.61 1.40001 12.93 1.29001C11.93 1.24001 10.93 1.23001 9.99 1.29001C8.54 1.29001 7.09 1.44001 5.62 1.57001L2.62 1.93001C2.57535 1.93526 2.53217 1.94926 2.49293 1.9712C2.45369 1.99314 2.41916 2.02259 2.3913 2.05788C2.36344 2.09316 2.34281 2.13359 2.33057 2.17685C2.31834 2.22011 2.31475 2.26536 2.32 2.31001C2.32525 2.35466 2.33925 2.39783 2.36119 2.43707C2.38313 2.47632 2.41258 2.51085 2.44787 2.53871C2.48315 2.56657 2.52358 2.5872 2.56684 2.59943C2.6101 2.61167 2.65535 2.61526 2.7 2.61001L5.7 2.30001C7.16 2.20001 8.59 2.11001 10.03 2.09001C10.98 2.09001 11.93 2.09001 12.9 2.17001C14.53 2.28001 16.2 2.27001 17.9 2.37001C18.5932 2.40431 19.2841 2.47441 19.97 2.58001C20.4 2.64001 20.97 2.66001 21.51 2.77001C21.7745 2.80789 22.0253 2.91099 22.24 3.07001C22.4641 3.30287 22.5987 3.60749 22.62 3.93001C22.705 4.55993 22.7517 5.19443 22.76 5.83001C22.8856 7.26971 22.9323 8.7152 22.9 10.16C22.8658 11.0606 22.7824 11.9586 22.65 12.85L22.52 13.56C22.52 13.84 22.41 14.12 22.35 14.4C22.233 15.1217 22.0625 15.8336 21.84 16.53C21.739 16.8749 21.51 17.1682 21.2 17.35C20.9192 17.4576 20.6207 17.5118 20.32 17.51H18.68L13.3 17.6L9.7 17.48C8.93 17.48 8.15 17.54 7.38 17.55C6.88 17.55 6.38 17.55 5.88 17.49L3 17.36C2.71464 17.308 2.44518 17.1907 2.21271 17.0172C1.98024 16.8437 1.79107 16.6188 1.66 16.36C0.93 15.15 0.83 12.93 0.78 11.3Z" fill="black"/>
<path d="M12.68 14.79C11.88 14.29 10.54 15.26 11.34 16.06C11.4321 16.1507 11.5365 16.2281 11.65 16.29C11.8427 16.3982 12.0639 16.4448 12.2839 16.4233C12.5038 16.4019 12.7119 16.3134 12.88 16.17C12.9685 16.0709 13.0343 15.9535 13.0726 15.8263C13.1109 15.699 13.1209 15.5649 13.1018 15.4334C13.0828 15.3018 13.0351 15.1761 12.9622 15.0649C12.8894 14.9538 12.793 14.8599 12.68 14.79Z" fill="black"/>
<path d="M2.59 13.9H5.37C6.9 14 8.42 14 9.94 14C11.46 14 13 13.95 14.53 13.89C16.28 13.78 18.03 13.6 19.77 13.53H20.51C21.81 13.59 22.33 12.84 20.51 12.71H19.76C18 12.71 16.25 12.78 14.49 12.8C12.73 12.82 10.84 12.87 9.02 12.92C7.8 12.92 6.58 13.01 5.36 13.07C4.44 13.07 3.53 13.19 2.62 13.25C1.29 13.33 1.36 14 2.59 13.9Z" fill="black"/>
</g>
<defs>
<clipPath id="clip0_1035_4857">
<rect width="24" height="24" fill="white"/>
</clipPath>
</defs>
</svg>
