<svg width="24" height="24" viewBox="0 0 24 24" fill="none" xmlns="http://www.w3.org/2000/svg">
<g clip-path="url(#clip0_1035_4840)">
<path fill-rule="evenodd" clip-rule="evenodd" d="M9.87001 14.74C10.6993 15.0044 11.5739 15.0962 12.44 15.01C13.4694 14.9808 14.4695 14.661 15.3249 14.0877C16.1803 13.5143 16.8561 12.7107 17.2744 11.7697C17.6926 10.8287 17.8362 9.78857 17.6886 8.76942C17.5409 7.75028 17.1081 6.79366 16.44 6.01C15.8651 5.3331 15.1402 4.79965 14.3229 4.45204C13.5057 4.10443 12.6186 3.95225 11.7322 4.00759C10.8458 4.06293 9.98456 4.32426 9.21689 4.77082C8.44922 5.21738 7.79629 5.83685 7.31001 6.58C5.70001 8.97 6.53001 12.46 8.14001 13.5C8.20631 13.5451 8.28781 13.562 8.36658 13.547C8.44534 13.532 8.51492 13.4863 8.56001 13.42C8.6051 13.3537 8.622 13.2722 8.60699 13.1934C8.59199 13.1147 8.54631 13.0451 8.48001 13C7.21001 12.1 6.63001 9 8.07001 7.11C8.49183 6.52422 9.03984 6.04067 9.67356 5.69504C10.3073 5.34942 11.0106 5.15055 11.7314 5.11311C12.4523 5.07567 13.1724 5.20063 13.8385 5.47875C14.5046 5.75688 15.0998 6.18107 15.58 6.72C17.95 9.53 16.58 13.79 12.37 14.29C11.6065 14.3946 10.8296 14.3366 10.09 14.12C10.0151 14.1136 9.94016 14.1322 9.87694 14.1729C9.81373 14.2137 9.7658 14.2742 9.74066 14.3451C9.71551 14.4159 9.71456 14.4931 9.73797 14.5646C9.76138 14.6361 9.80781 14.6977 9.87001 14.74Z" fill="black"/>
<path fill-rule="evenodd" clip-rule="evenodd" d="M23.64 5.81C23.52 4.71 23.57 2.54 22.72 1.93C20.82 0.580002 16.72 0.930002 13.92 0.850002C10.44 0.720002 6.72 1 3.31 1.09C3.21983 1.09 3.13335 1.12582 3.06958 1.18959C3.00582 1.25335 2.97 1.33983 2.97 1.43C2.97 1.52018 3.00582 1.60666 3.06958 1.67042C3.13335 1.73418 3.21983 1.77 3.31 1.77C6.78 1.72 10.38 1.51 13.88 1.69C16.3 1.82 20.54 1.56 22.13 2.69C22.52 2.97 22.53 5.15 22.6 5.88C22.9438 8.57425 22.9707 11.2995 22.68 14C22.6354 14.894 22.4878 15.7799 22.24 16.64C19.8 17.88 2.55 18.88 1.51 17.2C1.13887 15.846 0.927436 14.4532 0.880001 13.05C0.67773 10.4829 0.751486 7.90141 1.1 5.35C1.1 4.87 1.2 4.4 1.27 3.93C1.25852 3.34696 1.32579 2.76504 1.47 2.2C1.52835 2.14563 1.56271 2.07031 1.56552 1.99061C1.56833 1.91091 1.53937 1.83335 1.485 1.775C1.43063 1.71665 1.35531 1.6823 1.27561 1.67948C1.1959 1.67667 1.11835 1.70563 1.06 1.76C0.640001 2.15 0.720001 3.39 0.640001 3.83C0.560001 4.27 0.500001 4.8 0.450001 5.28C0.00554758 8.16443 -0.101841 11.0908 0.130001 14C0.172995 15.2446 0.378056 16.4784 0.740001 17.67C1.58 19.08 7.06 19.13 8.74 19.14C8.07259 19.9904 7.75433 21.0632 7.85 22.14C7.08 22.14 6.36 22.27 5.69 22.3C5.61044 22.3 5.53413 22.3316 5.47787 22.3879C5.42161 22.4441 5.39 22.5204 5.39 22.6C5.39 22.6796 5.42161 22.7559 5.47787 22.8121C5.53413 22.8684 5.61044 22.9 5.69 22.9C11.43 23.1 9.33 23.41 17.79 22.77C17.8802 22.77 17.9667 22.7342 18.0304 22.6704C18.0942 22.6067 18.13 22.5202 18.13 22.43C18.13 22.3398 18.0942 22.2533 18.0304 22.1896C17.9667 22.1258 17.8802 22.09 17.79 22.09H15.95C15.8257 20.9847 15.486 19.9146 14.95 18.94C17.219 18.8172 19.4754 18.5231 21.7 18.06C23.16 17.69 23.42 17.32 23.6 16.25C24.1672 12.7942 24.1807 9.27008 23.64 5.81ZM15.13 22.09C12.29 22.02 10.88 22 8.59 22.09C8.74 21.7 8.98 21.18 9.1 20.8C9.24228 20.259 9.33929 19.7071 9.39 19.15C9.39 19.03 9.52 19.24 14.07 18.96C14.1606 20.0746 14.5247 21.1497 15.13 22.09Z" fill="black"/>
<path fill-rule="evenodd" clip-rule="evenodd" d="M15.1 7.75C15.1786 7.70885 15.2379 7.63864 15.2654 7.55435C15.293 7.47005 15.2865 7.37834 15.2473 7.29877C15.2082 7.2192 15.1395 7.15806 15.056 7.1284C14.9724 7.09874 14.8805 7.1029 14.8 7.14C13.9728 7.47781 13.193 7.92151 12.48 8.46C12 8 10.34 6.86 10.08 6.65C9.35 5.94 9.23 6.71 9.55 6.99C9.64 7.13 10.55 8.1 10.78 8.39C11.78 9.39 11.67 9.12 11.51 9.28C10.7954 9.99443 10.204 10.8223 9.76 11.73C9.67258 11.891 9.64087 12.0763 9.66981 12.2572C9.69875 12.4381 9.78672 12.6043 9.92 12.73C10.43 13.21 10.03 12.29 11.43 10.96C11.75 10.62 12.11 10.29 12.43 9.96C12.94 10.38 14 11.26 14.06 11.96C14.0515 12.0088 14.0538 12.0589 14.0668 12.1068C14.0797 12.1546 14.1029 12.1991 14.1349 12.237C14.1668 12.2749 14.2066 12.3054 14.2515 12.3263C14.2965 12.3473 14.3454 12.3581 14.395 12.3581C14.4446 12.3581 14.4935 12.3473 14.5385 12.3263C14.5834 12.3054 14.6232 12.2749 14.6551 12.237C14.6871 12.1991 14.7103 12.1546 14.7232 12.1068C14.7362 12.0589 14.7385 12.0088 14.73 11.96C14.81 10.96 13.91 9.89 13.23 9.19C13.7972 8.64124 14.4245 8.15819 15.1 7.75Z" fill="black"/>
</g>
<defs>
<clipPath id="clip0_1035_4840">
<rect width="24" height="24" fill="white"/>
</clipPath>
</defs>
</svg>
