<svg width="24" height="24" viewBox="0 0 24 24" fill="none" xmlns="http://www.w3.org/2000/svg">
<g clip-path="url(#clip0_1035_4850)">
<path fill-rule="evenodd" clip-rule="evenodd" d="M18.11 13.7C18.2574 13.6204 18.4225 13.5792 18.59 13.58C18.7 13.58 18.83 13.58 18.88 13.67C18.8933 13.7065 18.9138 13.7399 18.9402 13.7683C18.9667 13.7967 18.9986 13.8195 19.034 13.8354C19.0695 13.8512 19.1077 13.8598 19.1465 13.8606C19.1854 13.8614 19.2239 13.8544 19.26 13.84C19.2961 13.8278 19.3294 13.8083 19.3577 13.7828C19.386 13.7573 19.4088 13.7263 19.4248 13.6916C19.4407 13.657 19.4494 13.6195 19.4503 13.5814C19.4512 13.5432 19.4443 13.5053 19.43 13.47C19.3859 13.3354 19.3073 13.2147 19.2021 13.1199C19.0968 13.0252 18.9685 12.9597 18.83 12.93C18.5033 12.8361 18.1567 12.8361 17.83 12.93C17.5108 13.0123 17.2168 13.1722 16.9743 13.3955C16.7318 13.6188 16.5483 13.8986 16.44 14.21C16.3733 14.4437 16.3584 14.6892 16.3964 14.9293C16.4344 15.1694 16.5244 15.3983 16.66 15.6C16.9049 15.9807 17.2512 16.2855 17.66 16.48C18.0889 16.7022 18.5874 16.7488 19.05 16.61C19.3116 16.5224 19.5495 16.3758 19.7455 16.1816C19.9414 15.9874 20.0901 15.7508 20.18 15.49C20.2643 15.2279 20.2694 14.9467 20.1947 14.6817C20.12 14.4166 19.9688 14.1795 19.76 14C19.7291 13.9691 19.6925 13.9446 19.6522 13.9279C19.6119 13.9112 19.5686 13.9026 19.525 13.9026C19.4814 13.9026 19.4381 13.9112 19.3978 13.9279C19.3575 13.9446 19.3209 13.9691 19.29 14C19.2591 14.0308 19.2347 14.0675 19.218 14.1078C19.2013 14.1481 19.1927 14.1913 19.1927 14.235C19.1927 14.2786 19.2013 14.3218 19.218 14.3622C19.2347 14.4025 19.2591 14.4391 19.29 14.47C19.3734 14.5726 19.4246 14.6977 19.437 14.8294C19.4495 14.9611 19.4227 15.0935 19.36 15.21C19.2994 15.3276 19.2131 15.43 19.1075 15.5096C19.0019 15.5893 18.8797 15.6441 18.75 15.67C18.5321 15.6955 18.3122 15.6423 18.13 15.52C17.9109 15.396 17.7282 15.2167 17.6 15C17.5263 14.9088 17.4775 14.8001 17.4582 14.6845C17.4389 14.5688 17.4499 14.4502 17.49 14.34C17.6133 14.0593 17.8334 13.8322 18.11 13.7Z" fill="black"/>
<path fill-rule="evenodd" clip-rule="evenodd" d="M21.17 5.25C19.1826 4.89719 17.146 4.92774 15.17 5.34C15.0931 5.34 15.0193 5.37055 14.9649 5.42494C14.9106 5.47932 14.88 5.55309 14.88 5.63C14.88 5.70691 14.9106 5.78068 14.9649 5.83506C15.0193 5.88945 15.0931 5.92 15.17 5.92C17.1597 6.20719 19.1803 6.20719 21.17 5.92C21.2489 5.90631 21.3205 5.8652 21.3721 5.80392C21.4236 5.74263 21.4519 5.6651 21.4519 5.585C21.4519 5.5049 21.4236 5.42737 21.3721 5.36608C21.3205 5.3048 21.2489 5.26369 21.17 5.25Z" fill="black"/>
<path fill-rule="evenodd" clip-rule="evenodd" d="M21.23 9C19.9298 8.66432 18.5616 8.69896 17.28 9.1C17.2111 9.11274 17.1488 9.14922 17.1039 9.20311C17.0591 9.257 17.0345 9.32489 17.0345 9.395C17.0345 9.4651 17.0591 9.53299 17.1039 9.58688C17.1488 9.64077 17.2111 9.67725 17.28 9.68999C18.5677 10.0049 19.9123 10.0049 21.2 9.68999C21.2915 9.69397 21.3808 9.66144 21.4483 9.59955C21.5159 9.53767 21.556 9.45149 21.56 9.35999C21.564 9.26849 21.5314 9.17916 21.4696 9.11165C21.4077 9.04414 21.3215 9.00397 21.23 9Z" fill="black"/>
<path fill-rule="evenodd" clip-rule="evenodd" d="M9.72 18.84C11.42 18.84 12.95 18.75 13.84 18.69C14.93 18.6 15.41 18.84 15.71 15.69C15.9514 13.1535 15.9782 10.601 15.79 8.06C15.7413 7.68385 15.573 7.33329 15.31 7.06C13.73 5.84 3 6.57 1.55 6.88C1.5012 6.88233 1.45348 6.89514 1.41008 6.91757C1.36668 6.94 1.32862 6.97153 1.2985 7.00999C1.26838 7.04845 1.2469 7.09296 1.23553 7.14047C1.22416 7.18798 1.22316 7.23739 1.2326 7.28532C1.24204 7.33325 1.2617 7.37859 1.29024 7.41824C1.31878 7.45789 1.35553 7.49093 1.39799 7.51509C1.44045 7.53926 1.48762 7.554 1.53628 7.5583C1.58495 7.56259 1.63397 7.55635 1.68 7.54C3.15 7.26 13.51 6.87 14.68 7.84C14.68 7.84 14.68 7.96 14.74 8.06C15.03 9.24 14.74 14.06 14.6 15.32C14.5426 15.2491 14.4604 15.2026 14.37 15.19C10.1833 14.8102 5.96739 14.8974 1.8 15.45C1.73107 15.4627 1.66877 15.4992 1.62393 15.5531C1.5791 15.607 1.55455 15.6749 1.55455 15.745C1.55455 15.8151 1.5791 15.883 1.62393 15.9369C1.66877 15.9908 1.73107 16.0273 1.8 16.04C3.04 16.04 4.88 16.11 6.8 16.1C9.55 16.1 13.36 15.79 14.26 15.85C14.305 15.8558 14.3507 15.8516 14.3939 15.8378C14.4371 15.8239 14.4767 15.8008 14.51 15.77C14.4686 16.374 14.3578 16.9713 14.18 17.55C13.72 17.55 5.18 18.01 1.77 17.7C1.4 17.7 1.06 17.46 0.960002 17.54C0.610002 16.65 0.870002 8.74 0.930002 7.88C0.959976 7.80701 0.959992 7.72516 0.930044 7.65216C0.900097 7.57916 0.842598 7.5209 0.770002 7.49C0.720601 7.4815 0.66999 7.48314 0.62124 7.49479C0.572489 7.50645 0.526616 7.5279 0.486404 7.55782C0.446192 7.58775 0.412479 7.62553 0.387313 7.66888C0.362146 7.71223 0.34605 7.76024 0.340002 7.81C0.240002 8.51 -0.00999847 13.81 1.52885e-06 15.89C0.0100015 17.97 0.0900016 18.32 1.15 18.52C2.72424 18.7344 4.31124 18.8413 5.9 18.84C5.62792 19.6188 5.45326 20.4283 5.38 21.25C5.43522 21.3923 5.52906 21.5164 5.65096 21.6082C5.77286 21.7001 5.91799 21.7561 6.07 21.77C11.82 22.51 10.27 21.41 9.74 18.88C9.72967 18.8688 9.72273 18.855 9.72 18.84ZM6.33 20.77C6.30735 20.1766 6.35434 19.5825 6.47 19C6.54 18.77 5.95 18.89 9.08 18.86C9.02 19.07 9.31 20.34 9.35 20.86C9 20.89 7.41 20.77 6.33 20.77Z" fill="black"/>
<path fill-rule="evenodd" clip-rule="evenodd" d="M23.54 3.35C22.94 1.59 17.42 1.96 15.72 2.25C13.41 2.65 12.66 2.73 12.72 5.02C12.72 5.12 12.72 5.56 12.85 5.66C12.8901 5.70572 12.9428 5.73863 13.0015 5.75463C13.0601 5.77063 13.1222 5.76902 13.18 5.75C13.58 5.65 13.24 5.44 13.37 4.36C13.5 3.28 13.76 3.29 15.87 3C17.36 2.8 20.87 2.78 22.22 3.39C22.4 3.47 22.55 3.54 22.59 3.66C23.22 5.66 22.73 12.51 22.74 15.94C22.74 16.64 22.74 17.77 22.67 18.76C22.48 20.44 22.21 20.38 21.67 20.51C20.06 20.89 14.98 21.04 14 20.12C13.934 20.073 13.8534 20.051 13.7727 20.0582C13.6919 20.0653 13.6164 20.1011 13.5597 20.159C13.503 20.2169 13.4689 20.2931 13.4634 20.374C13.458 20.4549 13.4816 20.535 13.53 20.6C14.7 21.76 19.99 21.77 21.87 21.39C22.87 21.19 23.31 20.86 23.6 19.39C23.7724 18.2517 23.8494 17.1011 23.83 15.95C23.78 12.47 24.41 5.92 23.54 3.35Z" fill="black"/>
</g>
<defs>
<clipPath id="clip0_1035_4850">
<rect width="24" height="24" fill="white"/>
</clipPath>
</defs>
</svg>
