<svg width="24" height="24" viewBox="0 0 24 24" fill="none" xmlns="http://www.w3.org/2000/svg">
<g clip-path="url(#clip0_1047_6043)">
<path fill-rule="evenodd" clip-rule="evenodd" d="M7.34 14.28C7.4 14.74 7.14 14.94 11.34 14.65C12.62 14.56 14.58 14.94 15.79 14.22C16.6 13.74 16.48 12.5 16.52 11.86C17.06 2.99001 17.09 3.23001 16.85 2.18001C16.19 -0.649993 12.7 -0.0599935 9.85 0.340007C9.00389 0.36626 8.2024 0.725673 7.62 1.34001C6.67 2.53001 7 11.88 7.34 14.28ZM14.17 1.28001C14.0392 1.70191 13.7891 2.07698 13.45 2.36001C9.97 2.24001 10.09 2.67001 9.81 1.91001C9.76821 1.77893 9.73481 1.64533 9.71 1.51001C11.1759 1.20625 12.6776 1.11197 14.17 1.23001V1.28001ZM9.06 1.62001C9.07694 1.74777 9.10031 1.87459 9.13 2.00001C9.25 2.83001 9.58 3.31001 11.19 3.40001C11.28 3.40001 13.51 3.47001 14.01 3.05001C14.4589 2.59299 14.7498 2.00426 14.84 1.37001C15.32 1.55001 15.65 1.71001 15.78 2.88001C15.8239 3.95435 15.7905 5.03046 15.68 6.10001C15.52 13.22 15.56 13.26 15.29 13.43C14.39 13.99 12.42 13.76 11.23 13.85L8.11 14.02C7.86 13.87 7.91 14.46 7.8 11.78C7.92 1.88001 8 1.84001 9.06 1.57001V1.62001Z" fill="black"/>
<path fill-rule="evenodd" clip-rule="evenodd" d="M18.26 10.36C17.42 10.46 16.97 10.3 16.91 10.7C16.9014 10.7441 16.902 10.7895 16.9116 10.8335C16.9212 10.8774 16.9397 10.9189 16.9659 10.9554C16.9921 10.9919 17.0255 11.0227 17.064 11.0458C17.1026 11.069 17.1454 11.084 17.19 11.09C17.33 11.09 22.25 10.7 21.69 12.48L21.41 13.13C20.17 15.13 19.98 15.76 19.48 15.93C18.56 16.25 18.24 16.08 8.48 16.16C7.29 16.16 5.27 16.55 4.17 16.06C3.86201 15.8448 3.60859 15.5606 3.43 15.23C2.79 14.36 1.99 12.68 2.68 11.84C3.24 11.16 4.41 11.21 5.3 11.14L6.45 11.05C6.74 10.83 6.79 10.51 6.32 10.44C5.85 10.37 5.32 10.44 5.26 10.49C4.11 10.56 2.9 10.41 2.08 11.33C1.26 12.25 1.25 13.68 2.64 15.78C2.79298 16.0348 2.96339 16.2787 3.15 16.51C4.28 17.81 7.01 17.28 8.49 17.28C21.36 17.28 19.89 17.52 21.49 14.8C21.9413 14.1626 22.2951 13.4616 22.54 12.72C23.09 10.66 20.39 10.25 18.26 10.36Z" fill="black"/>
<path fill-rule="evenodd" clip-rule="evenodd" d="M23.25 12.78C23.2299 12.6986 23.1805 12.6275 23.1112 12.5804C23.042 12.5332 22.9577 12.5133 22.8746 12.5245C22.7916 12.5356 22.7155 12.5771 22.6612 12.6408C22.6068 12.7046 22.5779 12.7862 22.58 12.87C22.6383 14.0782 22.5612 15.289 22.35 16.48C22.17 17.98 21.68 20.48 20.68 21.6C18.8 23.71 14.51 22.67 11.81 22.53C9.52 22.44 6.94 22.7 4.81 22.47C2.01 22.16 1.81 19.59 1.48 16.78C1.4 16.02 1.37 15.29 1.33 14.53C1.28 13.62 1.25 13.53 1.26 13.44C1.27 13.35 0.88 12.81 0.74 13.72C0.608859 14.7592 0.608859 15.8108 0.74 16.85C1 20.21 1.36 23 4.7 23.48C7.19 23.85 9.39 23.55 11.76 23.67C14.5 23.78 19.16 24.91 21.4 22.23C22.52 20.89 22.98 18.29 23.13 16.56C23.3105 15.3084 23.3507 14.0406 23.25 12.78Z" fill="black"/>
<path fill-rule="evenodd" clip-rule="evenodd" d="M4.1 14.32C4.3144 14.4801 4.581 14.554 4.84722 14.5272C5.11344 14.5005 5.35997 14.3749 5.5382 14.1753C5.71642 13.9758 5.81342 13.7167 5.81005 13.4491C5.80668 13.1816 5.7032 12.925 5.52 12.73C4.8 11.86 3.17 13.32 4.1 14.32Z" fill="black"/>
<path fill-rule="evenodd" clip-rule="evenodd" d="M17.91 14.24C18.1244 14.4001 18.391 14.474 18.6572 14.4472C18.9234 14.4204 19.17 14.2949 19.3482 14.0953C19.5264 13.8958 19.6234 13.6367 19.62 13.3691C19.6167 13.1016 19.5132 12.845 19.33 12.65C18.61 11.78 17 13.24 17.91 14.24Z" fill="black"/>
<path fill-rule="evenodd" clip-rule="evenodd" d="M13.9 18.09C12.2002 17.9993 10.4956 18.0729 8.81 18.31C8.81 18.31 8.56 20.41 8.58 20.6C8.59058 20.8986 8.71595 21.1816 8.93 21.39C9.5 21.89 12.12 21.75 12.93 21.68C13.31 21.68 13.99 21.68 14.35 21.33C14.71 20.98 14.67 20.27 14.66 19.86C14.65 19.45 14.94 18.29 13.9 18.09ZM13.57 19.27C13.57 19.27 13.52 20.54 12.88 20.63C12.24 20.72 11.72 20.63 11.2 20.7C10.6242 20.744 10.0458 20.744 9.47 20.7C9.23 20.53 9.4 19.7 9.37 18.93C12.65 18.82 12.18 19.05 12.82 18.93C13.46 18.81 13.59 18.83 13.57 19.27Z" fill="black"/>
<path fill-rule="evenodd" clip-rule="evenodd" d="M18.3 20.32C17.9855 20.1624 17.635 20.0904 17.2839 20.1115C16.9327 20.1326 16.5934 20.2459 16.3 20.44C16.16 20.53 16.25 20.67 16.3 20.79C16.35 20.91 16.98 21.45 18.39 20.99C18.4714 20.9699 18.5425 20.9205 18.5896 20.8512C18.6368 20.782 18.6567 20.6977 18.6456 20.6146C18.6344 20.5316 18.593 20.4555 18.5292 20.4012C18.4654 20.3468 18.3838 20.3179 18.3 20.32Z" fill="black"/>
<path fill-rule="evenodd" clip-rule="evenodd" d="M18.3 18.47C17.9855 18.3124 17.635 18.2405 17.2839 18.2615C16.9327 18.2826 16.5934 18.3959 16.3 18.59C16.16 18.68 16.25 18.82 16.3 18.94C16.35 19.06 16.98 19.6 18.39 19.14C18.4714 19.12 18.5425 19.0705 18.5896 19.0013C18.6368 18.932 18.6567 18.8477 18.6456 18.7647C18.6344 18.6816 18.593 18.6056 18.5292 18.5512C18.4654 18.4968 18.3838 18.4679 18.3 18.47Z" fill="black"/>
<path fill-rule="evenodd" clip-rule="evenodd" d="M6.42 20.32C6.10373 20.1691 5.75432 20.1009 5.40451 20.1219C5.05471 20.1429 4.71596 20.2523 4.42 20.44C4.28 20.53 4.42 20.67 4.42 20.79C4.42 20.91 5.1 21.45 6.51 20.99C6.59137 20.9699 6.66247 20.9205 6.70963 20.8512C6.7568 20.7819 6.77672 20.6977 6.76556 20.6146C6.7544 20.5315 6.71295 20.4555 6.64918 20.4011C6.5854 20.3468 6.50379 20.3179 6.42 20.32Z" fill="black"/>
<path fill-rule="evenodd" clip-rule="evenodd" d="M6.42 18.47C6.10373 18.3191 5.75432 18.2509 5.40451 18.2719C5.05471 18.2929 4.71596 18.4023 4.42 18.59C4.28 18.68 4.42 18.82 4.42 18.94C4.42 19.06 5.1 19.6 6.51 19.14C6.55773 19.1388 6.60468 19.1276 6.64778 19.107C6.69088 19.0864 6.72916 19.057 6.76014 19.0207C6.79112 18.9844 6.8141 18.9419 6.82758 18.8961C6.84106 18.8503 6.84475 18.8022 6.83839 18.7548C6.83203 18.7075 6.81578 18.6621 6.79069 18.6214C6.76559 18.5808 6.73223 18.5459 6.69276 18.5191C6.65329 18.4922 6.6086 18.4739 6.5616 18.4655C6.51461 18.457 6.46636 18.4586 6.42 18.47Z" fill="black"/>
</g>
<defs>
<clipPath id="clip0_1047_6043">
<rect width="24" height="24" fill="white"/>
</clipPath>
</defs>
</svg>
