<svg width="24" height="24" viewBox="0 0 24 24" fill="none" xmlns="http://www.w3.org/2000/svg">
<g clip-path="url(#clip0_1052_9117)">
<path fill-rule="evenodd" clip-rule="evenodd" d="M10.5 19.6801C10.452 19.3345 10.3544 18.9977 10.21 18.6801C10.0898 18.403 9.89183 18.1668 9.64001 18.0001C9.36693 17.8301 9.07496 17.6925 8.77001 17.5901C8.00001 17.3401 7.13001 17.1701 6.45001 17.0001C6.22141 16.9684 6.00087 16.8937 5.80001 16.7801C5.69001 16.6601 5.74001 16.4601 5.80001 16.2601C5.80001 15.9001 5.89001 15.5301 5.92001 15.2601C5.92001 14.6101 6.04001 13.9601 6.07001 13.3201V11.9801C6.06401 11.6096 5.98942 11.2434 5.85001 10.9001C5.74631 10.6276 5.56126 10.3937 5.32001 10.2301C4.97394 10.0651 4.59314 9.9862 4.21001 10.0001C3.70863 9.96452 3.20477 9.99139 2.71001 10.0801C2.67024 10.0872 2.63232 10.1023 2.59852 10.1244C2.56472 10.1466 2.53575 10.1753 2.51334 10.2089C2.49092 10.2426 2.47553 10.2804 2.46809 10.3201C2.46064 10.3598 2.4613 10.4006 2.47001 10.4401C2.48684 10.5165 2.53285 10.5833 2.59824 10.6262C2.66362 10.6692 2.7432 10.6849 2.82001 10.6701C3.18582 10.6345 3.55421 10.6345 3.92001 10.6701C4.24451 10.6812 4.56094 10.7741 4.84001 10.9401C4.97081 11.0569 5.05586 11.2164 5.08001 11.3901C5.11359 11.6054 5.11359 11.8247 5.08001 12.0401L4.69001 15.2101C4.59493 15.7008 4.55136 16.2002 4.56001 16.7001C4.57572 17.0271 4.69872 17.3399 4.91001 17.5901C5.23151 17.8192 5.60721 17.9605 6.00001 18.0001C7.07472 18.1475 8.13068 18.409 9.15001 18.7801C9.28544 18.8655 9.39043 18.9915 9.45001 19.1401C9.53959 19.3499 9.60988 19.5675 9.66001 19.7901C9.75881 20.2225 9.83558 20.6598 9.89001 21.1001C9.91644 21.5397 9.91644 21.9805 9.89001 22.4201C9.89001 22.5102 9.92584 22.5967 9.9896 22.6605C10.0534 22.7242 10.1398 22.7601 10.23 22.7601C10.3202 22.7601 10.4067 22.7242 10.4704 22.6605C10.5342 22.5967 10.57 22.5102 10.57 22.4201C10.6169 21.9516 10.637 21.4808 10.63 21.0101C10.6106 20.5647 10.5672 20.1207 10.5 19.6801Z" fill="black"/>
<path fill-rule="evenodd" clip-rule="evenodd" d="M9.53001 6.88001C9.94934 6.91112 10.371 6.8774 10.78 6.78001C11.2174 6.68489 11.632 6.50481 12 6.25001C12.5223 5.83342 12.9232 5.28418 13.1607 4.6597C13.3982 4.03521 13.4636 3.3584 13.35 2.70001C13.2758 2.03534 12.9816 1.41454 12.5141 0.936223C12.0467 0.457907 11.4328 0.149504 10.77 0.0600052C8.82001 -0.159995 8.17001 0.260005 7.63001 0.660005C6.93609 1.17622 6.45856 1.93171 6.29001 2.78001C6.21269 3.26257 6.23584 3.7559 6.35801 4.2291C6.48019 4.70231 6.69875 5.14519 7.00001 5.53001C7.30754 5.91548 7.69058 6.23407 8.12563 6.46621C8.56069 6.69835 9.03859 6.83917 9.53001 6.88001ZM8.11001 1.25001C8.24001 1.13001 8.75001 0.460005 10.67 0.790005C11.1426 0.879349 11.5713 1.12528 11.887 1.48814C12.2027 1.85099 12.3869 2.3096 12.41 2.79001C12.4695 3.26763 12.3997 3.75248 12.208 4.19396C12.0163 4.63545 11.7096 5.01741 11.32 5.30001C11.0771 5.46051 10.8054 5.57256 10.52 5.63001C10.2251 5.69756 9.92182 5.72115 9.62001 5.70001C9.27781 5.67844 8.94357 5.58753 8.63758 5.43282C8.33159 5.27811 8.06024 5.06281 7.84001 4.80001C7.61063 4.53519 7.43668 4.22705 7.32847 3.89383C7.22026 3.56061 7.17998 3.20907 7.21001 2.86001C7.29954 2.23015 7.62038 1.6562 8.11001 1.25001Z" fill="black"/>
<path fill-rule="evenodd" clip-rule="evenodd" d="M21.5 15.73C21.3878 14.8413 21.106 13.9825 20.67 13.2C20.1304 12.2934 19.396 11.518 18.52 10.93C17.5973 10.4272 16.5701 10.1465 15.52 10.11C15.05 10.11 13.96 10.11 13.06 10.03C12.7706 10.0053 12.487 9.93442 12.22 9.82002C12.09 9.76002 12 9.70002 12 9.60002C11.9582 9.01663 11.7423 8.45922 11.38 8.00002C11.1499 7.80272 10.8793 7.65837 10.5873 7.57715C10.2952 7.49594 9.98893 7.47985 9.69001 7.53002C9.26045 7.53182 8.8411 7.66107 8.48506 7.90139C8.12903 8.14172 7.85233 8.48231 7.69001 8.88002C7.28781 9.95226 7.1141 11.0967 7.18001 12.24C7.12888 13.2268 7.41837 14.2012 8.00001 15C8.64435 15.6647 9.49287 16.0942 10.41 16.22C10.86 16.33 11.28 16.41 11.47 16.78C11.7739 17.4416 11.9535 18.1534 12 18.88C12.0755 19.6214 12.0755 20.3686 12 21.11C11.9053 21.8904 12.1208 22.6768 12.6 23.3C12.7867 23.5183 13.0182 23.6938 13.2787 23.8145C13.5393 23.9353 13.8228 23.9986 14.11 24C14.7503 24.0155 15.3724 23.7867 15.85 23.36C16.321 22.9537 16.6416 22.4007 16.76 21.79C16.86 21.26 16.95 20.57 17.01 19.89C17.07 19.21 17.09 18.64 17.1 18.16C17.2402 18.1069 17.3839 18.0635 17.53 18.03C18.42 17.97 19.69 18.13 20.36 18.03C20.6487 18.0108 20.9213 17.8904 21.13 17.69C21.499 17.1079 21.6314 16.4066 21.5 15.73ZM20.36 16.93H19.7C18.8344 16.8706 17.9657 16.8706 17.1 16.93C16.34 17.05 15.95 17.45 15.96 17.98C15.9604 18.5845 15.9304 19.1886 15.87 19.79C15.81 20.43 15.73 21.08 15.64 21.59C15.5703 21.9442 15.3837 22.2647 15.11 22.5C14.8552 22.7386 14.519 22.8709 14.17 22.87C14.0001 22.8704 13.8328 22.8274 13.6841 22.7451C13.5354 22.6629 13.4101 22.5441 13.32 22.4C13.1305 22.0335 13.0474 21.6213 13.08 21.21C13.1816 20.2307 13.1548 19.2423 13 18.27C12.8867 17.6027 12.6672 16.9579 12.35 16.36C12.1555 16.0806 11.9029 15.8465 11.6095 15.6739C11.316 15.5013 10.9887 15.3942 10.65 15.36C9.90439 15.3035 9.19968 14.997 8.65001 14.49C8.17698 13.8088 7.94793 12.9877 8.00001 12.16C7.91676 11.1452 8.04269 10.1242 8.37001 9.16002C8.47197 8.87531 8.65707 8.62778 8.90134 8.44948C9.1456 8.27119 9.43777 8.17035 9.74001 8.16002C10.35 8.16002 10.74 8.22002 10.96 8.47002C11.2102 8.84611 11.3425 9.2883 11.34 9.74002C11.4 10.21 11.86 10.55 12.55 10.74C13.5157 10.8968 14.4918 10.9803 15.47 10.99C16.3938 11.0435 17.2932 11.3069 18.1 11.76C18.8396 12.315 19.4531 13.0205 19.9 13.83C20.1701 14.3711 20.3524 14.9517 20.44 15.55C20.5499 16.0079 20.522 16.4879 20.36 16.93Z" fill="black"/>
</g>
<defs>
<clipPath id="clip0_1052_9117">
<rect width="24" height="24" fill="white"/>
</clipPath>
</defs>
</svg>
