<svg width="24" height="24" viewBox="0 0 24 24" fill="none" xmlns="http://www.w3.org/2000/svg">
<g clip-path="url(#clip0_1052_9079)">
<path fill-rule="evenodd" clip-rule="evenodd" d="M17.1 16.89C17.0867 16.7575 17.0221 16.6355 16.92 16.55C16.77 16.43 16.37 16.23 16.27 16.16L14.71 15.11C15.1765 14.5615 15.6074 13.9836 16 13.38C16.2906 12.9212 16.4941 12.4127 16.6 11.88C16.6598 11.4521 16.6598 11.0179 16.6 10.59C16.5 9.99 16.33 9.38 16.2 8.86C16.02 8.1 15.88 7.3 15.67 6.53C15.61 6.29 15.54 6.06 15.46 5.83C15.4456 5.46066 15.3607 5.09748 15.21 4.76C14.8808 4.00981 14.3037 3.39564 13.5753 3.02056C12.847 2.64548 12.0119 2.53229 11.21 2.7C10.511 2.83261 9.85858 3.14482 9.31682 3.60594C8.77505 4.06706 8.36259 4.66121 8.11998 5.33C7.94998 5.6 7.78998 5.86 7.63998 6.13C7.26665 6.85475 6.93283 7.59917 6.63998 8.36C6.4606 8.76661 6.30696 9.1841 6.17998 9.61C6.11764 9.84119 6.09398 10.0811 6.10998 10.32C6.20164 11.1522 6.4821 11.9526 6.92998 12.66C7.50177 13.5224 8.17305 14.3145 8.92998 15.02L7.62998 16.13C7.54998 16.21 7.21998 16.44 7.03998 16.62C6.93293 16.7127 6.86209 16.8402 6.83998 16.98C6.80972 17.5129 6.80972 18.0471 6.83998 18.58C6.83998 19.37 6.90998 20.17 6.95998 20.94C6.96493 20.9888 6.98605 21.0346 7.01998 21.07C7.00052 21.1181 7.00052 21.1719 7.01998 21.22C7.03687 21.253 7.06015 21.2823 7.08846 21.3062C7.11677 21.3302 7.14955 21.3482 7.1849 21.3594C7.22025 21.3706 7.25747 21.3746 7.29439 21.3713C7.33131 21.3679 7.3672 21.3573 7.39998 21.34C8.84353 20.6273 10.1882 19.7298 11.4 18.67C11.64 18.47 11.85 18.24 12.07 18.03C12.36 18.5043 12.6949 18.9497 13.07 19.36C13.6146 19.9343 14.2716 20.3904 15 20.7C15.357 20.8636 15.7333 20.9812 16.12 21.05C16.3984 21.0914 16.6824 21.0311 16.92 20.88C16.9966 20.8158 17.0593 20.7365 17.104 20.647C17.1487 20.5576 17.1746 20.4599 17.18 20.36V18.92C17.18 18.49 17.24 18.01 17.24 17.55C17.2145 17.326 17.1676 17.105 17.1 16.89ZM11.35 3.67C11.9319 3.56458 12.5324 3.66069 13.0523 3.94248C13.5723 4.22426 13.9806 4.67489 14.21 5.22C14.3196 5.4828 14.374 5.7653 14.37 6.05C14.3586 6.55795 14.2983 7.06362 14.19 7.56C14.1387 7.84673 14.0719 8.13048 13.99 8.41C13.6416 7.74546 13.0507 7.24055 12.34 7C12.0963 6.90985 11.8397 6.85921 11.58 6.85C11.1904 6.8186 10.7985 6.86971 10.43 7C9.76684 7.22415 9.20849 7.68293 8.85998 8.29C8.63042 7.54621 8.6131 6.7531 8.80998 6C8.96796 5.41029 9.29084 4.87786 9.74072 4.46517C10.1906 4.05248 10.7489 3.77663 11.35 3.67ZM13.64 9.37C13.3713 10.0195 13.0362 10.6394 12.64 11.22C12.3349 11.668 12.0008 12.0956 11.64 12.5C10.6568 11.4457 9.8132 10.2694 9.12998 9C9.29935 8.71925 9.52728 8.47833 9.79822 8.29367C10.0692 8.10902 10.3767 7.98498 10.7 7.93C10.9689 7.89525 11.2411 7.89525 11.51 7.93C11.9747 7.92527 12.4293 8.06518 12.811 8.33035C13.1926 8.59553 13.4823 8.97284 13.64 9.41V9.37ZM7.68998 12.2C7.35588 11.5837 7.1645 10.9002 7.12998 10.2C7.123 10.0199 7.15015 9.84005 7.20998 9.67C7.31998 9.32 7.47998 8.96 7.57998 8.67C7.67998 8.38 7.78998 7.99 7.90998 7.67C7.98608 8.174 8.13076 8.66522 8.33998 9.13C9.08577 10.5484 10.0322 11.8518 11.15 13C10.7186 13.4431 10.2647 13.8636 9.78998 14.26L9.38998 14.61C8.7408 13.8682 8.17103 13.0604 7.68998 12.2ZM10.07 18.66C9.25086 19.4121 8.35993 20.0819 7.40998 20.66V18.66C7.40998 18.18 7.40998 17.71 7.49998 17.24C7.67998 17.08 8.00998 16.84 8.08998 16.77L10.36 14.97C11.518 14.0803 12.5565 13.0451 13.45 11.89C14.2956 10.7317 14.8822 9.40501 15.17 8C15.22 8.34 15.27 8.69 15.33 9C15.43 9.5 15.56 10.09 15.62 10.66C15.6706 10.9914 15.6706 11.3286 15.62 11.66C15.5181 12.0669 15.3455 12.4528 15.11 12.8C14.7183 13.3807 14.2977 13.9414 13.85 14.48C13.4 15.07 12.92 15.64 12.43 16.21C11.6966 17.0763 10.9083 17.8947 10.07 18.66ZM16.19 17.51C16.19 17.97 16.06 18.45 16.04 18.89C16.12 20.24 15.29 19.77 15.29 19.77C14.6613 19.5556 14.0828 19.2153 13.59 18.77C13.1818 18.4028 12.8131 17.9939 12.49 17.55C13.13 16.91 13.74 16.25 14.31 15.55L15.78 16.78C15.9416 16.8922 16.0864 17.0269 16.21 17.18C16.21 17.31 16.2 17.41 16.19 17.51Z" fill="black"/>
<path fill-rule="evenodd" clip-rule="evenodd" d="M23.92 6.47998C23.8786 6.26836 23.8183 6.06087 23.74 5.85998C23.5627 5.35385 23.2349 4.91403 22.8006 4.59945C22.3663 4.28488 21.8462 4.1106 21.31 4.09998C19.8766 4.15081 18.5039 4.69074 17.42 5.62998C17.3937 5.65518 17.3727 5.68545 17.3584 5.71896C17.3441 5.75247 17.3367 5.78854 17.3367 5.82498C17.3367 5.86141 17.3441 5.89748 17.3584 5.93099C17.3727 5.9645 17.3937 5.99477 17.42 6.01998C17.4722 6.07068 17.5422 6.09904 17.615 6.09904C17.6878 6.09904 17.7577 6.07068 17.81 6.01998C18.8028 5.25647 20.0279 4.85751 21.28 4.88998C21.639 4.91675 21.9809 5.05424 22.2585 5.2835C22.5361 5.51275 22.7358 5.82248 22.83 6.16998C22.8793 6.3241 22.9194 6.48105 22.95 6.63998C22.9652 6.79627 22.9652 6.95368 22.95 7.10998C22.9649 7.29968 22.9649 7.49027 22.95 7.67998C22.9268 7.85448 22.8831 8.02565 22.82 8.18998C22.7307 8.41921 22.6095 8.63467 22.46 8.82998C22.1876 9.17825 21.8972 9.51204 21.59 9.82998C21.5022 9.93718 21.4543 10.0714 21.4543 10.21C21.4543 10.3485 21.5022 10.4828 21.59 10.59L22 11C22.1281 11.1446 22.2358 11.3061 22.32 11.48C22.3939 11.6437 22.4347 11.8204 22.44 12C22.4474 12.3018 22.3649 12.5989 22.2028 12.8536C22.0407 13.1083 21.8065 13.3089 21.53 13.43C20.5506 13.8346 19.4599 13.8806 18.45 13.56C18.3717 13.534 18.2863 13.5392 18.2118 13.5746C18.1373 13.61 18.0793 13.6728 18.05 13.75C18.0358 13.7887 18.0294 13.8298 18.0313 13.871C18.0332 13.9122 18.0433 13.9526 18.0609 13.9899C18.0786 14.0271 18.1036 14.0605 18.1343 14.088C18.1651 14.1155 18.201 14.1365 18.24 14.15C19.2012 14.4993 20.2424 14.5652 21.24 14.34V14.47C21.4536 14.7857 21.5767 15.1539 21.5961 15.5346C21.6155 15.9154 21.5304 16.2941 21.35 16.63C21.1688 17.0264 20.8901 17.3704 20.54 17.63C20.3171 17.808 20.0575 17.9343 19.78 18C19.5239 18.0635 19.2561 18.0635 19 18C18.7092 17.9138 18.4352 17.7785 18.19 17.6C18.1314 17.5554 18.0577 17.5356 17.9847 17.545C17.9117 17.5544 17.8454 17.5921 17.8 17.65C17.7737 17.6752 17.7527 17.7054 17.7384 17.739C17.7241 17.7725 17.7167 17.8085 17.7167 17.845C17.7167 17.8814 17.7241 17.9175 17.7384 17.951C17.7527 17.9845 17.7737 18.0148 17.8 18.04C18.1192 18.3529 18.4962 18.6009 18.91 18.77C19.2295 18.8881 19.5699 18.9392 19.91 18.92C20.3508 18.8877 20.7768 18.7468 21.15 18.51C21.7016 18.1508 22.1197 17.6202 22.34 17C22.522 16.5294 22.5744 16.0185 22.4917 15.5207C22.4091 15.023 22.1944 14.5565 21.87 14.17C22.3056 14.0034 22.6818 13.7109 22.9508 13.3298C23.2197 12.9487 23.3691 12.4963 23.38 12.03C23.3963 11.7161 23.3451 11.4024 23.23 11.11C23.1227 10.8358 22.9744 10.5795 22.79 10.35L22.63 10.17C22.8495 9.95892 23.0566 9.73521 23.25 9.49998C23.467 9.22551 23.6392 8.91836 23.76 8.58998C23.8636 8.35851 23.944 8.11733 24 7.86998C24.0149 7.62353 24.0149 7.37642 24 7.12998C23.9931 6.91133 23.9663 6.69377 23.92 6.47998Z" fill="black"/>
<path fill-rule="evenodd" clip-rule="evenodd" d="M5.11 17.6901C4.84218 17.8157 4.5646 17.9194 4.28 18.0001C4.12434 18.0253 3.96565 18.0253 3.81 18.0001C3.42406 17.9485 3.06933 17.7605 2.81 17.4701C2.53238 17.1621 2.33338 16.7916 2.23 16.3901C1.9683 15.6125 1.98243 14.7685 2.27 14.0001C3.18606 14.298 4.16122 14.3666 5.11 14.2001C5.1922 14.1854 5.26577 14.14 5.31587 14.0732C5.36598 14.0064 5.38889 13.9231 5.38 13.8401C5.37282 13.7977 5.35719 13.7572 5.33402 13.721C5.31086 13.6848 5.28065 13.6537 5.24519 13.6294C5.20972 13.6051 5.16974 13.5883 5.12761 13.5798C5.08549 13.5713 5.04208 13.5714 5 13.5801C4.06728 13.734 3.10979 13.5942 2.26 13.1801C2.04324 13.0408 1.87801 12.8345 1.78953 12.5925C1.70105 12.3505 1.69419 12.0863 1.77 11.8401C1.8183 11.6555 1.89596 11.4799 2 11.3201C2.14 11.0301 2.32 10.7601 2.49 10.4701C2.63082 10.2454 2.74176 10.0034 2.82 9.75006C2.8328 9.67083 2.82873 9.58979 2.80805 9.51225C2.78737 9.4347 2.75055 9.36239 2.7 9.30006C2.32 8.81006 1.89 8.41006 1.56 7.94006C1.3529 7.65741 1.20029 7.33863 1.11 7.00006C1.0317 6.6842 1.01792 6.3558 1.06946 6.03449C1.12101 5.71319 1.23683 5.40558 1.41 5.13006C1.58079 4.8735 1.82081 4.67062 2.10224 4.54495C2.38367 4.41928 2.69496 4.37598 3 4.42006C3.60741 4.49718 4.18902 4.71272 4.7 5.05006C5.24376 5.40683 5.73515 5.83764 6.16 6.33006C6.2089 6.36819 6.26908 6.38901 6.33109 6.38924C6.3931 6.38948 6.45344 6.36913 6.50263 6.33137C6.55183 6.29362 6.5871 6.2406 6.60291 6.18064C6.61872 6.12068 6.61418 6.05716 6.59 6.00006C6.16864 5.4309 5.67059 4.92275 5.11 4.49006C4.52153 4.04401 3.83643 3.74256 3.11 3.61006C2.63518 3.50596 2.14013 3.54547 1.68782 3.72354C1.23552 3.90161 0.846408 4.2102 0.569996 4.61006C0.309029 4.99555 0.130759 5.43093 0.0464244 5.88874C-0.03791 6.34656 -0.0264794 6.81688 0.0799956 7.27006C0.188835 7.73019 0.385798 8.16486 0.659996 8.55006C0.969996 8.99006 1.35 9.34006 1.72 9.77006C1.66822 9.8435 1.62144 9.92034 1.58 10.0001C1.42 10.3101 1.24 10.6101 1.11 10.9301C1.00521 11.1732 0.931302 11.4285 0.889996 11.6901C0.803039 12.0756 0.835928 12.4786 0.98426 12.8449C1.13259 13.2113 1.38929 13.5236 1.72 13.7401C1.26997 14.4526 1.05649 15.289 1.11 16.1301C1.13624 16.5514 1.23785 16.9646 1.41 17.3501C1.60737 17.8124 1.93851 18.2051 2.36085 18.4778C2.78318 18.7504 3.27741 18.8905 3.78 18.8801C4.0336 18.8664 4.2834 18.8124 4.52 18.7201C4.82045 18.5836 5.11114 18.4265 5.39 18.2501C5.42791 18.2329 5.46199 18.2083 5.49019 18.1777C5.51839 18.1471 5.54013 18.1111 5.55413 18.0719C5.56813 18.0327 5.57409 17.9911 5.57166 17.9495C5.56924 17.908 5.55847 17.8674 5.54 17.8301C5.49962 17.7564 5.43265 17.7008 5.35275 17.6748C5.27284 17.6488 5.18602 17.6543 5.11 17.6901Z" fill="black"/>
</g>
<defs>
<clipPath id="clip0_1052_9079">
<rect width="24" height="24" fill="white"/>
</clipPath>
</defs>
</svg>
