<svg width="24" height="24" viewBox="0 0 24 24" fill="none" xmlns="http://www.w3.org/2000/svg">
<g clip-path="url(#clip0_1052_9122)">
<path fill-rule="evenodd" clip-rule="evenodd" d="M13.37 11.83C13.0192 11.1886 12.5096 10.648 11.89 10.26C10.89 9.61999 9.83 9.17999 8.89 8.52999C8.31251 8.14847 7.84665 7.62049 7.54 6.99999C7.50419 6.91645 7.43667 6.85055 7.35227 6.8168C7.26788 6.78304 7.17354 6.78419 7.09 6.81999C7.00645 6.8558 6.94055 6.92332 6.9068 7.00772C6.87304 7.09211 6.87419 7.18645 6.91 7.26999C7.16268 7.83023 7.53468 8.3285 8 8.72999C9.09628 9.5322 10.2382 10.2701 11.42 10.94C11.8139 11.2067 12.1533 11.5461 12.42 11.94C12.5433 12.1151 12.6269 12.3149 12.6649 12.5257C12.7029 12.7364 12.6944 12.9529 12.64 13.16C12.6222 13.2519 12.5861 13.3393 12.534 13.417C12.4818 13.4948 12.4145 13.5612 12.3362 13.6125C12.2579 13.6638 12.1701 13.6988 12.078 13.7156C11.9859 13.7323 11.8914 13.7304 11.8 13.71C11.0203 13.57 10.292 13.2248 9.68999 12.71L9.12 12.11C8.62237 11.5629 8.04198 11.0972 7.4 10.73C7.214 10.6313 6.99827 10.6043 6.79369 10.6541C6.58911 10.7038 6.40989 10.8269 6.29 11C6.14436 11.352 6.04681 11.722 6 12.1C5.61 14.21 5 19.16 4.48 20.64C4.31681 21.3549 4.02177 22.0332 3.60999 22.64C3.49774 22.7605 3.35326 22.8462 3.19372 22.887C3.03418 22.9277 2.86629 22.9218 2.71 22.87L2.21 22.66C2.02298 22.515 1.87804 22.3227 1.79015 22.1029C1.70226 21.8832 1.67459 21.644 1.71 21.41C1.80327 20.4676 2.00115 19.5386 2.3 18.64C2.67 17 3 15.32 3.35 13.7C3.82 11.29 4.23 8.89999 4.63 6.49999C4.84175 6.5817 5.05894 6.64852 5.28 6.69999C5.93669 6.86304 6.6233 6.86304 7.28 6.69999C7.96624 6.51506 8.57139 6.10694 9 5.53999C9.56736 4.73522 9.8102 3.74601 9.68 2.76999C9.63411 2.27349 9.45967 1.7975 9.17384 1.38893C8.88802 0.980366 8.50068 0.653311 8.05 0.439995C7.96634 0.402412 7.87127 0.399169 7.78524 0.430961C7.69922 0.462753 7.62911 0.527041 7.59 0.609995C7.55216 0.690976 7.54774 0.783599 7.57768 0.867818C7.60762 0.952037 7.66953 1.02108 7.75 1.05999C8.06585 1.24347 8.32866 1.50581 8.51271 1.82133C8.69676 2.13685 8.79575 2.49474 8.8 2.85999C8.85561 3.59828 8.63063 4.33036 8.17 4.90999C7.85943 5.25186 7.45077 5.48937 7 5.58999C6.52291 5.69988 6.02708 5.69988 5.55 5.58999C5.36201 5.54528 5.17805 5.48507 5 5.40999L4.5 5.15999C4.38048 5.08914 4.26679 5.00888 4.16 4.91999C4.05515 4.82847 3.95502 4.73168 3.85999 4.62999C3.68981 4.45149 3.55789 4.24009 3.47235 4.00876C3.38681 3.77744 3.34945 3.53107 3.36256 3.28479C3.37567 3.0385 3.43898 2.7975 3.54859 2.57656C3.65821 2.35563 3.81182 2.15942 4 1.99999C4.37392 1.5715 4.83491 1.22766 5.35223 0.991418C5.86955 0.755176 6.43129 0.631962 7 0.629995C7.07646 0.635762 7.15223 0.612032 7.21174 0.563679C7.27125 0.515325 7.30999 0.446019 7.32 0.369995C7.33028 0.327626 7.33121 0.283524 7.32271 0.240761C7.31422 0.197997 7.2965 0.157599 7.2708 0.12238C7.2451 0.087161 7.21203 0.0579669 7.1739 0.0368307C7.13576 0.0156944 7.09348 0.003124 7.05 -5.31692e-06C6.23323 -0.052331 5.41656 0.103751 4.67665 0.453589C3.93674 0.803427 3.29786 1.33555 2.81999 1.99999C2.44734 2.49444 2.26107 3.10452 2.294 3.7228C2.32693 4.34108 2.57693 4.92792 3 5.37999C3.12981 5.52982 3.27017 5.67018 3.42 5.79999C3.57252 5.93109 3.73652 6.04823 3.91 6.14999L4.05 6.21999C3.57 8.66999 3.04999 11.09 2.54 13.53C2.17 15.13 1.77 16.73 1.31 18.35C0.873091 19.487 0.639534 20.6921 0.619995 21.91C0.64239 22.2355 0.737577 22.5519 0.898537 22.8357C1.0595 23.1196 1.28212 23.3637 1.55 23.55C1.6812 23.6331 1.81822 23.7066 1.96 23.77C2.09685 23.8256 2.23714 23.8724 2.38 23.91C2.72893 24.0244 3.10352 24.0352 3.45846 23.9411C3.81341 23.847 4.13349 23.6521 4.38 23.38C4.906 22.6652 5.29273 21.8578 5.52 21C5.72882 20.346 5.88925 19.6775 6 19C6.35 17.1 6.7 14.47 7 12.82C7.07 12.39 7.11 12.03 7.15 11.82C7.26888 11.8518 7.38316 11.8989 7.49 11.96C7.8249 12.1965 8.13934 12.4608 8.43 12.75L9.12 13.44C9.88862 14.0684 10.8098 14.4824 11.79 14.64C11.992 14.6787 12.1996 14.6762 12.4006 14.6329C12.6016 14.5895 12.7918 14.506 12.9598 14.3875C13.1279 14.2689 13.2703 14.1177 13.3785 13.9429C13.4868 13.7681 13.5587 13.5732 13.59 13.37C13.6995 12.8467 13.6216 12.3017 13.37 11.83Z" fill="black"/>
<path fill-rule="evenodd" clip-rule="evenodd" d="M8.12 16.92C8.09204 16.8913 8.05861 16.8684 8.02169 16.8528C7.98476 16.8373 7.94508 16.8292 7.905 16.8292C7.86491 16.8292 7.82524 16.8373 7.78831 16.8528C7.75138 16.8684 7.71795 16.8913 7.69 16.92C7.66156 16.9471 7.63892 16.9797 7.62345 17.0158C7.60798 17.0519 7.6 17.0907 7.6 17.13C7.6 17.1693 7.60798 17.2081 7.62345 17.2442C7.63892 17.2803 7.66156 17.3129 7.69 17.34C8.32382 18.2265 8.8729 19.1707 9.33 20.16C9.5905 20.7382 9.72351 21.3658 9.72 22C9.72 22.14 9.72 22.24 9.6 22.29C9.40796 22.3734 9.1946 22.3943 8.99 22.35C8.64496 22.2932 8.32276 22.1407 8.06 21.91C7.76557 21.6604 7.51539 21.3629 7.32 21.03C7.27562 20.9497 7.20151 20.8901 7.11362 20.8639C7.02572 20.8377 6.93106 20.8471 6.85 20.89C6.8106 20.911 6.77573 20.9396 6.74737 20.9741C6.71902 21.0086 6.69773 21.0483 6.68473 21.091C6.67173 21.1337 6.66727 21.1786 6.6716 21.223C6.67594 21.2675 6.68899 21.3106 6.71 21.35C6.94596 21.8704 7.28633 22.3367 7.71 22.72C8.01888 22.993 8.38425 23.1945 8.78 23.31C9.03463 23.3919 9.30387 23.4182 9.56953 23.3871C9.8352 23.3561 10.0911 23.2684 10.32 23.13C10.4891 23.0027 10.6267 22.8381 10.7221 22.6491C10.8175 22.4601 10.8681 22.2517 10.87 22.04C10.8804 21.1972 10.6701 20.3663 10.26 19.63C9.65755 18.6444 8.93909 17.7345 8.12 16.92Z" fill="black"/>
<path fill-rule="evenodd" clip-rule="evenodd" d="M23 22.57H22.14C22.2395 21.2692 22.2695 19.964 22.23 18.66C22.23 17.73 22.12 16.78 22 15.76C21.9223 15.0502 21.7612 14.352 21.52 13.68C21.3195 13.1753 20.9964 12.7285 20.58 12.38C20.1534 12.073 19.6656 11.8616 19.15 11.76C18.4431 11.6144 17.7209 11.5573 17 11.59C16.58 11.59 16.15 11.59 15.72 11.65C15.4143 11.6824 15.1127 11.746 14.82 11.84C14.744 11.8652 14.6808 11.9189 14.6435 11.9897C14.6063 12.0605 14.5978 12.1431 14.62 12.22C14.6314 12.2583 14.6503 12.294 14.6757 12.3249C14.7011 12.3559 14.7324 12.3814 14.7679 12.4C14.8033 12.4187 14.842 12.43 14.8819 12.4334C14.9218 12.4369 14.9619 12.4323 15 12.42C15.2486 12.3572 15.5036 12.3237 15.76 12.32H17C17.6327 12.3485 18.2601 12.4492 18.87 12.62C19.2364 12.7154 19.5776 12.8894 19.87 13.13C20.1295 13.3759 20.3251 13.6814 20.44 14.02C20.645 14.6126 20.7826 15.2265 20.85 15.85C20.9 16.12 20.93 16.38 20.97 16.65C20.66 16.54 20.34 16.44 20.02 16.36C19.5591 16.2468 19.0915 16.1633 18.62 16.11C17.9225 15.9814 17.2075 15.9814 16.51 16.11C16.0136 16.2599 15.5608 16.5275 15.19 16.89C14.9148 17.1346 14.6992 17.4391 14.56 17.78C14.3783 18.2332 14.2703 18.7126 14.24 19.2C14.1743 19.8344 14.1575 20.473 14.19 21.11C14.2137 21.6015 14.2806 22.0901 14.39 22.57C14.06 22.57 13.72 22.68 13.39 22.76C13.3123 22.7722 13.2418 22.8126 13.192 22.8734C13.1422 22.9343 13.1166 23.0114 13.12 23.09C13.1237 23.1304 13.1355 23.1696 13.1548 23.2054C13.1741 23.2411 13.2004 23.2725 13.2322 23.2977C13.264 23.323 13.3006 23.3415 13.3397 23.3522C13.3789 23.3629 13.4198 23.3655 13.46 23.36C13.97 23.36 14.46 23.43 14.9 23.41C15.236 23.3849 15.57 23.3381 15.9 23.27C15.9911 23.2648 16.0765 23.2243 16.1382 23.157C16.1998 23.0898 16.2327 23.0011 16.23 22.91C16.2274 22.8653 16.2161 22.8215 16.1966 22.7813C16.1771 22.741 16.1499 22.7049 16.1164 22.6752C16.083 22.6455 16.044 22.6227 16.0017 22.608C15.9594 22.5934 15.9147 22.5873 15.87 22.59H15.18C15.1128 22.1131 15.0893 21.6311 15.11 21.15C15.1425 20.5523 15.216 19.9576 15.33 19.37C15.3888 19.0571 15.4724 18.7495 15.58 18.45C15.674 18.1966 15.8285 17.9701 16.03 17.79C16.3215 17.4736 16.7073 17.2597 17.13 17.18C17.629 17.1365 18.1309 17.1365 18.63 17.18C19.0708 17.17 19.5119 17.19 19.95 17.24C20.3508 17.2891 20.7482 17.3625 21.14 17.46C21.2333 18.1266 21.3033 18.7933 21.35 19.46C21.43 20.46 21.47 21.53 21.48 22.62C21.16 22.62 20.85 22.7 20.56 22.74C20.4813 22.7476 20.4085 22.7849 20.3565 22.8444C20.3044 22.9039 20.2771 22.981 20.28 23.06C20.2812 23.1002 20.2906 23.1399 20.3075 23.1765C20.3244 23.2131 20.3485 23.2459 20.3784 23.2729C20.4083 23.3 20.4433 23.3208 20.4813 23.334C20.5194 23.3472 20.5598 23.3527 20.6 23.35C21.06 23.35 21.6 23.47 22.09 23.47C22.4439 23.4532 22.7955 23.4029 23.14 23.32C23.2293 23.3075 23.3104 23.261 23.3663 23.1902C23.4222 23.1194 23.4486 23.0298 23.44 22.94C23.443 22.8843 23.4329 22.8287 23.4108 22.7776C23.3886 22.7265 23.3549 22.6812 23.3122 22.6453C23.2695 22.6094 23.2191 22.584 23.165 22.5709C23.1108 22.5578 23.0543 22.5575 23 22.57Z" fill="black"/>
</g>
<defs>
<clipPath id="clip0_1052_9122">
<rect width="24" height="24" fill="white"/>
</clipPath>
</defs>
</svg>
