<svg width="24" height="24" viewBox="0 0 24 24" fill="none" xmlns="http://www.w3.org/2000/svg">
<g clip-path="url(#clip0_1052_9034)">
<path fill-rule="evenodd" clip-rule="evenodd" d="M7.72001 9.87V8.59V7.69C7.69082 7.45596 7.64062 7.22503 7.57001 7C7.53318 6.90456 7.47401 6.81934 7.39745 6.75148C7.32089 6.68362 7.22919 6.63511 7.13001 6.61C7.01709 6.59122 6.90121 6.60261 6.7941 6.64299C6.68698 6.68338 6.59243 6.75134 6.52001 6.84C6.42001 6.95 6.19001 7.28 6.18001 7.28L4.93001 9C4.63001 9.44 4.33001 9.88 4.05001 10.33C3.39001 11.33 2.77001 12.43 2.10001 13.46C1.61001 14.23 1.10001 14.97 0.590014 15.75C0.368297 16.1061 0.171172 16.477 1.42101e-05 16.86C-0.0343726 16.9316 -0.0389445 17.014 -0.0126984 17.0889C0.0135478 17.1639 0.0684685 17.2255 0.140014 17.26C0.176084 17.2767 0.215112 17.2861 0.254831 17.2875C0.294551 17.289 0.334169 17.2826 0.371386 17.2687C0.408602 17.2547 0.442674 17.2335 0.471623 17.2062C0.500571 17.179 0.523818 17.1463 0.540014 17.11C0.775777 16.6648 1.04313 16.237 1.34001 15.83C1.80001 15.2 2.34001 14.6 2.77001 13.97L3.08001 13.54C3.6884 13.7851 4.34835 13.8745 5.00001 13.8C5.33722 13.7591 5.67131 13.6956 6.00001 13.61L6.74001 13.43L6.90001 17.73C6.89868 17.7742 6.90622 17.8182 6.9222 17.8594C6.93819 17.9006 6.96228 17.9381 6.99306 17.9698C7.02384 18.0015 7.06067 18.0267 7.10138 18.044C7.14208 18.0612 7.18582 18.07 7.23001 18.07C7.27467 18.0713 7.31915 18.0638 7.36091 18.048C7.40267 18.0321 7.4409 18.0082 7.4734 17.9775C7.50591 17.9469 7.53205 17.9101 7.55034 17.8694C7.56864 17.8286 7.57872 17.7847 7.58001 17.74L7.72001 9.87ZM5.72001 12.54C5.38356 12.5811 5.04969 12.6412 4.72001 12.72C4.36152 12.8131 3.99744 12.8832 3.63001 12.93L5.86001 9.7L6.59001 8.7V9.91L6.68001 12.55C6.34774 12.5151 6.01292 12.5117 5.68001 12.54H5.72001Z" fill="black"/>
<path fill-rule="evenodd" clip-rule="evenodd" d="M15 7.80002C14.0449 6.77879 12.7514 6.13915 11.36 6.00002C10.9302 5.967 10.4985 6.03551 10.1 6.20002C9.84851 6.31651 9.64651 6.5185 9.53003 6.77002C9.45377 6.98157 9.4165 7.20518 9.42003 7.43002C9.42003 7.80002 9.51003 8.22002 9.52003 8.49002L9.68003 12.49C9.74003 13.36 9.77003 14.24 9.78003 15.12C9.79003 16 9.78003 16.88 9.78003 17.76C9.79302 17.8315 9.83066 17.8961 9.8864 17.9426C9.94213 17.9891 10.0124 18.0146 10.085 18.0146C10.1576 18.0146 10.2279 17.9891 10.2837 17.9426C10.3394 17.8961 10.377 17.8315 10.39 17.76C10.46 16.87 10.52 15.98 10.56 15.09C10.6 14.2 10.61 13.31 10.56 12.42V8.42002C10.56 8.19002 10.56 7.83002 10.51 7.49002C10.4895 7.37426 10.4895 7.25578 10.51 7.14002C10.51 7.14002 10.58 7.14002 10.62 7.14002C10.7098 7.1305 10.8003 7.1305 10.89 7.14002H11.22C11.7666 7.19233 12.2988 7.34488 12.79 7.59002C13.2882 7.84338 13.7383 8.1818 14.12 8.59002C14.6249 9.13599 15.0068 9.78389 15.24 10.49C15.5042 11.1993 15.6265 11.9536 15.6 12.71C15.5548 13.9143 15.0629 15.0586 14.22 15.92C13.8047 16.3526 13.304 16.6942 12.7497 16.9232C12.1954 17.1521 11.5996 17.2634 11 17.25C10.9554 17.2473 10.9106 17.2535 10.8683 17.2681C10.826 17.2827 10.787 17.3056 10.7536 17.3353C10.7201 17.365 10.6929 17.4011 10.6734 17.4413C10.6539 17.4816 10.6426 17.5253 10.64 17.57C10.6359 17.615 10.6411 17.6603 10.6552 17.7032C10.6693 17.7461 10.692 17.7856 10.722 17.8194C10.752 17.8531 10.7886 17.8804 10.8295 17.8994C10.8705 17.9184 10.9149 17.9288 10.96 17.93C11.6643 17.9736 12.37 17.8708 13.0326 17.6281C13.6953 17.3854 14.3004 17.0081 14.81 16.52C15.8487 15.5376 16.4864 14.2052 16.6 12.78C16.6735 11.8882 16.5681 10.9906 16.29 10.14C16.0314 9.27712 15.5916 8.47935 15 7.80002Z" fill="black"/>
<path fill-rule="evenodd" clip-rule="evenodd" d="M19.68 9.60997C19.1287 8.07896 18.1795 6.72245 16.93 5.67997C16.9005 5.65305 16.8659 5.63221 16.8283 5.61865C16.7907 5.60508 16.7508 5.59906 16.7109 5.60091C16.671 5.60277 16.6318 5.61248 16.5956 5.62947C16.5594 5.64647 16.527 5.67042 16.5 5.69997C16.4731 5.72952 16.4523 5.76408 16.4387 5.80168C16.4252 5.83928 16.4191 5.87918 16.421 5.91911C16.4228 5.95904 16.4325 5.99821 16.4495 6.03439C16.4665 6.07057 16.4905 6.10305 16.52 6.12997C17.5318 7.20286 18.2575 8.51308 18.63 9.93997C18.8081 10.5376 18.932 11.1501 19 11.77C19.0601 12.3852 19.0601 13.0048 19 13.62C18.9041 15.0837 18.3905 16.4893 17.52 17.67C17.4617 17.7403 17.4337 17.8308 17.4421 17.9218C17.4505 18.0127 17.4948 18.0966 17.565 18.155C17.6353 18.2133 17.7259 18.2414 17.8169 18.2329C17.9078 18.2245 17.9917 18.1803 18.05 18.11C19.1346 16.8834 19.8307 15.3625 20.05 13.74C20.1517 13.0479 20.1685 12.3461 20.1 11.65C20.0419 10.9557 19.9009 10.2708 19.68 9.60997Z" fill="black"/>
<path fill-rule="evenodd" clip-rule="evenodd" d="M23.77 9.61003C23.6195 8.66827 23.319 7.75673 22.88 6.91003C22.5728 6.32698 22.1262 5.82888 21.58 5.46003C21.5164 5.41229 21.4364 5.39179 21.3576 5.40304C21.2788 5.41429 21.2078 5.45637 21.16 5.52003C21.1123 5.58368 21.0918 5.66369 21.1031 5.74245C21.1143 5.82122 21.1564 5.89229 21.22 5.94003C21.6574 6.29059 22.001 6.74412 22.22 7.26003C22.5316 8.05897 22.7106 8.90341 22.75 9.76003C22.9046 10.9668 22.9481 12.1853 22.88 13.4C22.8586 14.1998 22.7479 14.9948 22.55 15.77C22.4896 16.0064 22.4093 16.2372 22.31 16.46C22.08 17.02 21.8 17.56 21.58 18.12C21.5617 18.1607 21.5515 18.2047 21.5501 18.2493C21.5487 18.294 21.5561 18.3384 21.5718 18.3802C21.5876 18.422 21.6115 18.4603 21.6421 18.4929C21.6726 18.5254 21.7093 18.5516 21.75 18.57C21.7907 18.5884 21.8347 18.5986 21.8793 18.6C21.924 18.6014 21.9685 18.594 22.0102 18.5782C22.052 18.5624 22.0903 18.5386 22.1229 18.508C22.1554 18.4774 22.1817 18.4407 22.2 18.4C22.47 17.86 22.8 17.4 23.07 16.81C23.2017 16.5653 23.3154 16.3113 23.41 16.05C23.7705 15.0133 23.9695 13.9273 24 12.83C24.0257 11.7518 23.9487 10.6736 23.77 9.61003Z" fill="black"/>
</g>
<defs>
<clipPath id="clip0_1052_9034">
<rect width="24" height="24" fill="white"/>
</clipPath>
</defs>
</svg>
