<svg width="24" height="24" viewBox="0 0 24 24" fill="none" xmlns="http://www.w3.org/2000/svg">
<g clip-path="url(#clip0_1050_8171)">
<path d="M5.62999 11.29C7.86999 10.92 9.04999 8.73 7.53999 6.42C7.5266 6.36495 7.50005 6.31397 7.46262 6.27145C7.42519 6.22892 7.37799 6.19612 7.32508 6.17586C7.27218 6.1556 7.21514 6.14848 7.15888 6.15512C7.10262 6.16176 7.04881 6.18196 7.00207 6.21398C6.95534 6.246 6.91708 6.28889 6.89057 6.33896C6.86407 6.38903 6.85011 6.44479 6.84991 6.50144C6.8497 6.5581 6.86325 6.61395 6.8894 6.66421C6.91554 6.71447 6.95349 6.75764 6.99999 6.79C7.99999 8.49 7.22999 10.02 5.52999 10.21C5.05766 10.2791 4.57549 10.2231 4.13156 10.0476C3.68763 9.87212 3.29747 9.58332 2.99999 9.21C2.26999 8.27 2.99999 6 4.99999 5.63C5.99999 5.47 6.39999 6.29 6.67999 5.81C6.70131 5.77545 6.71539 5.73695 6.72139 5.6968C6.72739 5.65666 6.72518 5.61572 6.7149 5.57645C6.70461 5.53719 6.68647 5.50042 6.66156 5.46837C6.63665 5.43632 6.6055 5.40966 6.56999 5.39C6.0877 5.06712 5.52038 4.89474 4.93999 4.89474C4.3596 4.89474 3.79228 5.06712 3.30999 5.39C1.99999 6 0.999992 8.43 1.99999 9.89C2.42059 10.4313 2.98083 10.8478 3.62044 11.0944C4.26005 11.3411 4.95482 11.4087 5.62999 11.29Z" fill="black"/>
<path d="M19.81 17.4C19.7596 17.3218 19.6802 17.2668 19.5892 17.2471C19.4983 17.2274 19.4032 17.2446 19.325 17.295C19.2468 17.3454 19.1917 17.4248 19.172 17.5158C19.1524 17.6067 19.1696 17.7018 19.22 17.78C19.3719 18.0404 19.4896 18.3194 19.57 18.61C20.31 21.29 16.57 22.07 15.21 20.2C14.6 19.34 15.21 17.61 16.03 17.2C17.03 16.62 17.59 16.38 18.56 16.93C18.6278 16.9568 18.7028 16.9589 18.772 16.936C18.8411 16.913 18.9 16.8663 18.9381 16.8043C18.9763 16.7422 18.9914 16.6687 18.9808 16.5966C18.9702 16.5245 18.9345 16.4584 18.88 16.41C18.3987 16.0612 17.8138 15.8851 17.22 15.91C16.5064 15.9428 15.8188 16.1878 15.2452 16.6135C14.6716 17.0393 14.238 17.6265 14 18.3C13 20.92 15.54 22.66 17.85 22.3C20.16 21.94 21.31 19.71 19.81 17.4Z" fill="black"/>
<path d="M24 2.05001C23.9584 1.5063 23.7117 0.998711 23.31 0.630006C22.52 5.90086e-06 20.8 5.87106e-06 18.88 0.390006C16.56 0.870006 9.18 3.33001 10.88 4.95001C11.68 5.73001 13.82 5.25001 15.67 5.33001C14.24 6.65001 9.80999 11.33 8.41 12.81C6.63 14.71 0.809995 21.39 0.0699953 23C-0.190005 23.58 0.269995 24.13 1.24 23.73C3.49 22.81 10.06 16.6 11.12 15.73L18.34 9.73001C18.2379 10.5193 18.3096 11.3213 18.55 12.08C18.77 12.62 19.1 13.08 19.69 13.08C22.22 12.89 24.32 4.76001 24 2.05001ZM20.2 11.46C18.93 13 19.68 8.68001 19.64 8.26001C19.6389 8.17636 19.6206 8.09383 19.5863 8.01754C19.5519 7.94126 19.5023 7.87286 19.4404 7.81659C19.3785 7.76031 19.3057 7.71737 19.2265 7.69044C19.1473 7.6635 19.0634 7.65314 18.98 7.66001C18.64 7.66001 18.44 7.96001 18.22 8.27001C16.58 9.78001 18.06 8.53001 10.36 14.83C9.55999 15.51 4.51 20.3 1.84 22.17C6.07947 16.4939 10.7179 11.127 15.72 6.11001C18.22 3.63001 14.87 4.95001 11.81 4.59001C11.6622 4.54547 11.521 4.48158 11.39 4.40001C11.77 3.40001 20.87 -0.109994 22.71 1.40001C23.69 2.17001 22.27 9.00001 20.2 11.46Z" fill="black"/>
</g>
<defs>
<clipPath id="clip0_1050_8171">
<rect width="24" height="24" fill="white"/>
</clipPath>
</defs>
</svg>
