<svg width="24" height="24" viewBox="0 0 24 24" fill="none" xmlns="http://www.w3.org/2000/svg">
<g clip-path="url(#clip0_1050_8151)">
<path fill-rule="evenodd" clip-rule="evenodd" d="M23.2 8.83999L22.82 8.15999C22.6118 7.82168 22.3558 7.51519 22.06 7.24999C21.63 6.80999 21.3 7.13999 19.06 8.47999C18.9258 8.52047 18.7888 8.55056 18.65 8.56999L18.85 7.93999C19.27 6.58999 17.85 4.20999 17.64 4.10999C17.1 3.83999 16.56 4.51999 16.07 4.93999C13.67 6.99999 13 5.15999 13.3 2.07999C13.3 1.66999 13.61 1.07999 13.43 0.569991C13.07 -0.430009 11.81 0.049991 10.96 0.569991C10.4005 0.910713 9.85973 1.28125 9.34 1.67999C8.127 2.56816 7.14877 3.73861 6.49 5.08999C4.88 8.52999 6.21 12.09 4.12 10.68C3.44362 10.1015 2.73589 9.56065 2 9.05999C0.900002 8.54999 0.410002 9.63999 0.210002 10.84C0.0143815 12.1646 -0.0124995 13.5086 0.130002 14.84C0.69937 17.5603 2.23383 19.9828 4.45 21.66C5.70818 22.484 7.10343 23.0766 8.57 23.41C9.57 23.67 12.08 24.41 11.78 23.59C11.68 23.33 6.91 22.78 4.9 21.11C2.88312 19.5229 1.49992 17.2673 1 14.75C0.855736 13.2449 0.970737 11.7262 1.34 10.26C1.45 9.93999 1.34 9.69999 2.07 10.26C3.24 11.2 4.62 12.75 5.77 11.76C7.47 10.3 5.42 6.05999 10.05 2.59999C10.7242 1.99862 11.4995 1.52127 12.34 1.18999C11.43 5.60999 13.34 8.81999 16.8 5.78999C16.8 5.78999 17.04 5.64999 17.23 5.52999C17.6881 6.1371 17.9054 6.89225 17.84 7.64999L17.44 8.79999C17.44 8.79999 17.3 9.10999 17.28 9.21999C17.16 9.71999 17.62 10.03 18.19 9.90999C19.3226 9.50855 20.3931 8.94974 21.37 8.24999C21.59 8.10999 21.37 7.90999 21.99 8.63999C22.9923 10.714 23.341 13.0434 22.99 15.32C22.7348 17.3924 21.8198 19.3277 20.38 20.84C19.5196 21.6375 18.4959 22.2381 17.38 22.6C14.48 23.6 13.55 22.9 13.55 23.6C13.55 23.6902 13.5858 23.7766 13.6496 23.8404C13.7133 23.9042 13.7998 23.94 13.89 23.94C16.4473 23.9407 18.9241 23.0456 20.89 21.41C24.07 18.26 24.68 13 23.2 8.83999Z" fill="black"/>
<path fill-rule="evenodd" clip-rule="evenodd" d="M7.11001 18.24C6.42001 18.72 6.11001 18.47 5.51001 18.47C5.42154 18.47 5.33654 18.5044 5.27306 18.566C5.20958 18.6276 5.17261 18.7116 5.17001 18.8C5.17001 19.29 5.86001 19.32 6.34001 19.3C9.34001 19.18 8.91001 15.48 6.06001 15.84L5.94001 14.77C5.94001 14.41 7.56001 14.28 7.78001 14.25C7.81744 14.2592 7.85631 14.2609 7.8944 14.2551C7.9325 14.2493 7.96907 14.236 8.00204 14.216C8.035 14.1961 8.06371 14.1698 8.08653 14.1387C8.10934 14.1077 8.12582 14.0724 8.13501 14.035C8.1442 13.9976 8.14593 13.9587 8.1401 13.9206C8.13427 13.8825 8.121 13.8459 8.10103 13.813C8.08107 13.78 8.05481 13.7513 8.02375 13.7285C7.99269 13.7057 7.95744 13.6892 7.92001 13.68C7.12946 13.5725 6.32473 13.6513 5.57001 13.91C5.36576 14.035 5.2028 14.2173 5.10144 14.4342C5.00009 14.6512 4.96481 14.8932 5.00001 15.13V16.36C5.00001 16.79 5.19001 17.12 5.62001 17.16C5.83001 17.16 5.72001 17.16 6.52001 16.93C7.50001 17 7.63001 17.88 7.11001 18.24Z" fill="black"/>
<path fill-rule="evenodd" clip-rule="evenodd" d="M10.77 13.63C10.0372 14.0012 9.45833 14.6184 9.13474 15.3735C8.81115 16.1285 8.76345 16.9733 8.99999 17.76C9.16917 18.2317 9.48291 18.6379 9.89652 18.9209C10.3101 19.2038 10.8025 19.3489 11.3034 19.3356C11.8043 19.3223 12.2883 19.1513 12.6863 18.8468C13.0843 18.5423 13.3761 18.12 13.52 17.64C14.5 15.14 12.34 13.07 10.77 13.63ZM12.59 17.24C12.499 17.4959 12.3419 17.7233 12.1346 17.8989C11.9274 18.0745 11.6774 18.1922 11.41 18.24C11.2282 18.2651 11.0432 18.2524 10.8665 18.2026C10.6899 18.1527 10.5255 18.0669 10.3837 17.9504C10.2418 17.8339 10.1256 17.6894 10.0424 17.5258C9.95916 17.3622 9.91067 17.1832 9.89998 17C9.80342 16.4823 9.86092 15.9477 10.0653 15.4624C10.2698 14.9772 10.6121 14.5625 11.05 14.27C12 13.87 13.54 15.37 12.59 17.24Z" fill="black"/>
<path fill-rule="evenodd" clip-rule="evenodd" d="M19.72 13.43L19 14C17.999 14.7495 17.1071 15.6347 16.35 16.63C16.48 16.47 14.89 18.52 15.35 18.63C15.4738 18.609 15.5926 18.5649 15.7 18.5C15.63 18.56 16.01 18.25 17.7 16.58C18.5 15.78 20.46 13.58 20.5 13.58C20.54 13.58 20.56 12.7 19.72 13.43Z" fill="black"/>
<path fill-rule="evenodd" clip-rule="evenodd" d="M17.64 17.58C17.27 18.81 19.19 19.49 20.11 18.28C21.47 16.49 18.38 15.12 17.64 17.58ZM19.41 17.7C19.3188 17.8189 19.1888 17.9021 19.0426 17.935C18.8964 17.9678 18.7433 17.9484 18.61 17.88C18.46 17.81 18.52 17.66 18.61 17.54C19.05 16.59 19.9 17.18 19.41 17.7Z" fill="black"/>
<path fill-rule="evenodd" clip-rule="evenodd" d="M15 13.79C14.63 15.02 16.56 15.71 17.47 14.5C18.83 12.7 15.75 11.34 15 13.79ZM16.77 13.91C16.6779 14.0275 16.5485 14.1103 16.4032 14.1448C16.2579 14.1793 16.1052 14.1635 15.97 14.1C15.82 14.03 15.88 13.88 15.97 13.75C16.41 12.81 17.26 13.39 16.77 13.91Z" fill="black"/>
</g>
<defs>
<clipPath id="clip0_1050_8151">
<rect width="24" height="24" fill="white"/>
</clipPath>
</defs>
</svg>
