<svg width="24" height="24" viewBox="0 0 24 24" fill="none" xmlns="http://www.w3.org/2000/svg">
<path fill-rule="evenodd" clip-rule="evenodd" d="M14.24 9.2C14.1744 8.98978 14.0565 8.79967 13.8973 8.64749C13.7382 8.49532 13.5429 8.38607 13.33 8.33C12.728 8.22363 12.112 8.22363 11.51 8.33C11.2804 8.34988 11.0496 8.34988 10.82 8.33C10.7517 8.32725 10.6846 8.31078 10.6227 8.28158C10.5609 8.25238 10.5055 8.21103 10.46 8.16C10.21 7.77 10.54 7.51 10.94 7.33C11.4727 7.08744 12.0552 6.97436 12.64 7C12.7129 7.02195 12.7916 7.01433 12.8589 6.97878C12.9263 6.94323 12.977 6.8826 13 6.81C13.0071 6.77376 13.0068 6.73644 12.9989 6.70034C12.9911 6.66425 12.9759 6.63015 12.9543 6.60015C12.9328 6.57016 12.9053 6.54491 12.8736 6.52596C12.8419 6.50701 12.8066 6.49477 12.77 6.49C12.442 6.41709 12.105 6.3935 11.77 6.42C11.7655 6.39352 11.7655 6.36648 11.77 6.34C11.7801 6.26366 11.7801 6.18634 11.77 6.11C11.7851 6.03744 11.7851 5.96256 11.77 5.89C11.72 5.7 11.63 5.55 11.57 5.37C11.57 5.28513 11.5363 5.20374 11.4763 5.14373C11.4163 5.08372 11.3349 5.05 11.25 5.05C11.1642 5.0526 11.0828 5.08851 11.0231 5.15012C10.9633 5.21173 10.93 5.29418 10.93 5.38C10.8648 5.56648 10.8114 5.75685 10.77 5.95C10.765 6.02992 10.765 6.11008 10.77 6.19C10.7596 6.26967 10.7596 6.35034 10.77 6.43L10.83 6.56C10.4655 6.64469 10.1241 6.80856 9.82999 7.04C9.60526 7.22759 9.45756 7.49143 9.41513 7.78107C9.3727 8.07071 9.43851 8.36583 9.6 8.61C9.70183 8.79555 9.84499 8.9552 10.0184 9.07658C10.1918 9.19796 10.3908 9.27783 10.6 9.31C11.1849 9.37473 11.7751 9.37473 12.36 9.31C12.5722 9.27895 12.7878 9.27895 13 9.31C13.0573 9.3223 13.1103 9.34964 13.1536 9.38922C13.1968 9.42881 13.2288 9.4792 13.2461 9.53521C13.2634 9.59123 13.2655 9.65084 13.2521 9.70793C13.2387 9.76501 13.2104 9.8175 13.17 9.86C12.9971 10.0423 12.7898 10.1884 12.56 10.29C12.0544 10.5161 11.5034 10.6222 10.95 10.6C10.789 10.5838 10.6327 10.5362 10.49 10.46C10.3248 10.3754 10.1704 10.2714 10.03 10.15C9.99717 10.1237 9.95949 10.1042 9.91911 10.0924C9.87872 10.0807 9.83642 10.0771 9.79463 10.0817C9.75284 10.0864 9.71237 10.0992 9.67554 10.1195C9.63872 10.1398 9.60625 10.1672 9.57999 10.2C9.52373 10.2594 9.49237 10.3382 9.49237 10.42C9.49237 10.5018 9.52373 10.5806 9.57999 10.64C9.78258 10.8256 10.0038 10.9898 10.24 11.13C10.4162 11.2207 10.6049 11.2848 10.8 11.32C10.9796 11.3362 11.1604 11.3362 11.34 11.32C11.3352 11.3966 11.3352 11.4734 11.34 11.55C11.3343 11.6266 11.3343 11.7034 11.34 11.78C11.4 11.97 11.48 12.12 11.55 12.3C11.55 12.3416 11.5583 12.3827 11.5745 12.421C11.5907 12.4593 11.6144 12.4939 11.6443 12.5228C11.6742 12.5517 11.7095 12.5744 11.7483 12.5893C11.7871 12.6043 11.8285 12.6113 11.87 12.61C11.912 12.6115 11.9538 12.6042 11.9927 12.5885C12.0317 12.5728 12.0669 12.5491 12.0961 12.5189C12.1254 12.4888 12.1479 12.4528 12.1624 12.4134C12.1768 12.3739 12.1828 12.3319 12.18 12.29C12.2517 12.1048 12.3086 11.9142 12.35 11.72C12.3605 11.637 12.3605 11.553 12.35 11.47C12.3604 11.3937 12.3604 11.3163 12.35 11.24C12.8274 11.1422 13.2799 10.9483 13.68 10.67C13.9199 10.5186 14.1042 10.2935 14.2052 10.0284C14.3062 9.76333 14.3184 9.47262 14.24 9.2Z" fill="black"/>
<path fill-rule="evenodd" clip-rule="evenodd" d="M4.48 8.79C3.98482 7.98776 3.71346 7.06756 3.69411 6.125C3.67477 5.18244 3.90815 4.25188 4.37 3.43C4.56982 3.06898 4.85828 2.76479 5.20819 2.54609C5.5581 2.3274 5.95793 2.20141 6.37 2.18C7.28511 2.10351 8.20195 2.3057 9 2.76C9.59498 3.14753 10.1025 3.65503 10.49 4.25C10.88 4.7 11.25 4.6 11.49 4.4C11.5951 4.27749 11.6857 4.14327 11.76 4C12 3.61 12.18 3 12.41 2.69C12.8113 2.1073 13.3599 1.64147 14 1.34C14.6234 1.04591 15.3262 0.965084 16 1.11C16.4365 1.22872 16.8417 1.44153 17.1872 1.73348C17.5327 2.02543 17.8101 2.38945 18 2.8C18.4218 3.64547 18.6474 4.57523 18.66 5.52C18.6113 7.36636 18.0277 9.1589 16.98 10.68C15.9756 12.2435 14.5069 13.4534 12.78 14.14C12.741 14.1534 12.7051 14.1745 12.6744 14.202C12.6436 14.2295 12.6187 14.2628 12.601 14.3001C12.5833 14.3373 12.5732 14.3777 12.5713 14.4189C12.5694 14.4601 12.5758 14.5013 12.59 14.54C12.6024 14.5799 12.6227 14.6169 12.6498 14.6487C12.6768 14.6805 12.71 14.7066 12.7474 14.7252C12.7847 14.7439 12.8255 14.7548 12.8672 14.7574C12.9089 14.7599 12.9507 14.754 12.99 14.74C14.8712 14.042 16.4867 12.7726 17.61 11.11C18.7581 9.46772 19.4138 7.53194 19.5 5.53C19.5315 4.21332 19.1844 2.91525 18.5 1.79C18.0049 0.980842 17.2229 0.388095 16.31 0.130001C15.4079 -0.0985506 14.4548 -0.0102923 13.61 0.380001C12.777 0.740803 12.058 1.32157 11.53 2.06C11.3259 2.41971 11.1487 2.79407 11 3.18C10.5965 2.63042 10.0864 2.16787 9.5 1.82C8.33047 1.16207 6.95698 0.965861 5.65 1.27C5.18747 1.38485 4.75552 1.59912 4.38421 1.89789C4.01291 2.19666 3.71117 2.57276 3.5 3C2.99477 3.96604 2.75452 5.0487 2.80371 6.13777C2.85289 7.22684 3.18975 8.28343 3.78 9.2C5.42744 11.6819 7.82357 13.5735 10.62 14.6C10.96 14.76 11.14 14.32 10.94 14.11C8.27502 13.07 6.01177 11.2061 4.48 8.79Z" fill="black"/>
<path fill-rule="evenodd" clip-rule="evenodd" d="M22 16.13C21.9831 15.8466 21.862 15.5795 21.66 15.38C21.5626 15.3148 21.4532 15.2697 21.3381 15.2474C21.2231 15.2251 21.1047 15.226 20.99 15.25C20.47 15.33 19.16 15.64 19.05 15.65C17.3347 15.7287 15.7097 16.4414 14.49 17.65C13.5386 18.7782 12.9681 20.1782 12.86 21.65C12.78 21.15 12.71 20.65 12.64 20.07C12.57 19.49 12.47 18.85 12.38 18.26C12.1581 17.0691 11.9979 15.8675 11.9 14.66C11.9041 14.6237 11.9009 14.587 11.8904 14.552C11.88 14.5171 11.8625 14.4846 11.8392 14.4565C11.8158 14.4285 11.787 14.4055 11.7545 14.3889C11.722 14.3723 11.6864 14.3625 11.65 14.36C10.87 14.28 11.29 15.66 11.29 17.92C11.3142 18.3895 11.3677 18.8571 11.45 19.32C11.52 19.78 11.61 20.25 11.71 20.7C11.7055 20.7499 11.7055 20.8001 11.71 20.85C11.0985 19.9804 10.3283 19.234 9.44 18.65C8.58915 18.1367 7.60164 17.8959 6.61 17.96C6.18928 17.9828 5.77289 18.0567 5.37 18.18C4.8 18.34 4.25 18.58 3.71 18.78L2.81 19.08H2.33C2.18812 19.1211 2.06679 19.2138 1.99 19.34C1.93308 19.4297 1.90286 19.5338 1.90286 19.64C1.90286 19.7462 1.93308 19.8503 1.99 19.94C2.18639 20.2196 2.4426 20.4519 2.74 20.62C3.26 20.94 3.98 21.21 4.32 21.41C5.75961 22.3201 7.3415 22.9826 9 23.37C10.1535 23.6163 11.3556 23.4866 12.43 23C12.5383 23.2831 12.6687 23.5573 12.82 23.82C12.8399 23.8579 12.8672 23.8913 12.9003 23.9185C12.9334 23.9456 12.9715 23.9658 13.0125 23.9779C13.0536 23.99 13.0966 23.9938 13.1391 23.989C13.1816 23.9842 13.2227 23.971 13.26 23.95C13.3338 23.9098 13.3888 23.8421 13.4131 23.7616C13.4375 23.6812 13.4291 23.5944 13.39 23.52C13.3498 23.4512 13.3195 23.3772 13.3 23.3C13.3456 23.3263 13.3973 23.3402 13.45 23.3402C13.5027 23.3402 13.5544 23.3263 13.6 23.3C14.0477 22.977 14.5439 22.7272 15.07 22.56C16.4453 22.2731 17.7862 21.8407 19.07 21.27C19.7707 20.8456 20.3848 20.2925 20.88 19.64C21.3841 18.9782 21.7451 18.2188 21.94 17.41C22.0329 16.9899 22.0532 16.557 22 16.13ZM12.2 22.42C11.2434 22.7921 10.1942 22.855 9.2 22.6C7.66894 22.1555 6.22251 21.4593 4.92 20.54C4.64 20.37 4.14 20.15 3.68 19.9L4.15 19.75C4.67 19.54 5.15 19.31 5.74 19.13C6.0642 19.0158 6.3993 18.9354 6.74 18.89C7.55531 18.7903 8.38168 18.9402 9.11 19.32C10.3562 20.1159 11.4141 21.1738 12.21 22.42H12.2ZM21 16.61C20.9813 16.7983 20.9512 16.9853 20.91 17.17C20.7338 17.8354 20.4242 18.4579 20 19C19.6065 19.5723 19.1076 20.0644 18.53 20.45C17.3339 21.0394 16.0807 21.5052 14.79 21.84C14.2025 22.0564 13.6525 22.3635 13.16 22.75C13.16 22.75 13.16 22.82 13.16 22.85C13.16 22.88 13.11 22.64 13.08 22.53C13.1484 22.533 13.2154 22.5098 13.2674 22.4653C13.3193 22.4207 13.3525 22.3581 13.36 22.29C13.4683 20.769 14.0846 19.3286 15.11 18.2C16.2291 17.2081 17.6746 16.6633 19.17 16.67C19.27 16.67 20.35 16.42 20.98 16.32C20.9926 16.4162 20.9993 16.513 21 16.61Z" fill="black"/>
</svg>
