<svg width="24" height="24" viewBox="0 0 24 24" fill="none" xmlns="http://www.w3.org/2000/svg">
<g clip-path="url(#clip0_1032_3236)">
<path fill-rule="evenodd" clip-rule="evenodd" d="M1.44 5.91999C1.74 7.91999 2.15 13.5 2.44 15.42C2.45061 15.4996 2.49239 15.5716 2.55616 15.6204C2.61992 15.6692 2.70044 15.6906 2.78 15.68C2.85957 15.6694 2.93166 15.6276 2.98042 15.5638C3.02918 15.5001 3.05061 15.4196 3.04 15.34C2.79 13.34 2.75 9.63999 2.35 4.84999C2.87 5.60999 3.77 5.61999 4.61 5.66999C4.69 5.66999 10.44 5.00999 10.52 4.98999C11.59 4.77999 12.36 4.63999 12.79 3.63999C12.98 3.19999 13.03 2.70999 13.23 2.28999C13.251 2.25059 13.2641 2.20745 13.2684 2.16301C13.2727 2.11857 13.2683 2.07371 13.2553 2.031C13.2423 1.98828 13.221 1.94855 13.1926 1.91406C13.1643 1.87957 13.1294 1.851 13.09 1.82999C12.43 1.48999 12.44 3.06999 11.79 3.65999C11.3584 3.87712 10.8831 3.99338 10.4 3.99999C10.32 3.99999 3.49 4.67999 3.4 4.65999C2.78 4.47999 2.84 4.07999 2.22 3.25999C2.35 3.16999 8.78 1.99999 8.82 1.99999C9.37 1.90999 12.97 1.45999 13.31 1.89999C13.5622 2.3565 13.7538 2.84394 13.88 3.34999C14.32 4.56999 14.39 7.52999 14.59 8.80999C14.5912 8.85773 14.6025 8.90467 14.623 8.94777C14.6436 8.99087 14.673 9.02915 14.7093 9.06013C14.7456 9.09111 14.7881 9.11409 14.8339 9.12757C14.8797 9.14106 14.9278 9.14474 14.9752 9.13838C15.0225 9.13202 15.0679 9.11577 15.1086 9.09068C15.1492 9.06559 15.1841 9.03222 15.2109 8.99275C15.2378 8.95328 15.2561 8.90859 15.2645 8.8616C15.273 8.8146 15.2714 8.76635 15.26 8.71999C15.1 7.33999 14.86 2.40999 14.06 1.31999C13.47 0.479991 12 0.709991 11.14 0.699991C10.3073 0.683615 9.47469 0.733775 8.65 0.849991C8.57 0.849991 2.29 1.92999 1.58 2.44999C1.44384 2.53964 1.33165 2.66121 1.25322 2.80413C1.17479 2.94705 1.13249 3.10698 1.13 3.26999C1.18379 4.15842 1.28728 5.04314 1.44 5.91999Z" fill="black"/>
<path fill-rule="evenodd" clip-rule="evenodd" d="M8.6 5.60999C8.55287 5.56156 8.49273 5.52781 8.42684 5.51282C8.36095 5.49782 8.29213 5.50222 8.22868 5.52548C8.16524 5.54875 8.10988 5.58988 8.0693 5.64391C8.02872 5.69795 8.00465 5.76258 8 5.82999C8 5.98999 8 5.33999 8.14 7.82999C8.24609 10.1948 8.6048 12.5415 9.21 14.83C9.28 15.14 9.54 15.08 9.72 14.98C9.9 14.88 9.87 14.55 9.83 14.09C9.28 7.85999 9.35 9.55999 9.07 7.73999C8.56 5.39999 8.72 5.69999 8.6 5.60999Z" fill="black"/>
<path fill-rule="evenodd" clip-rule="evenodd" d="M12.4601 14.85L13.6601 13.4C14.7899 11.9899 16.009 10.6538 17.3101 9.4C17.3864 9.3897 17.4637 9.3897 17.5401 9.4C17.4485 10.8633 17.7415 12.3251 18.3901 13.64C17.8242 13.8347 17.2699 14.0617 16.7301 14.32C16.6819 14.3585 16.6451 14.4093 16.6236 14.4671C16.602 14.5249 16.5967 14.5874 16.608 14.648C16.6193 14.7086 16.6468 14.765 16.6877 14.8112C16.7286 14.8573 16.7813 14.8915 16.8401 14.91C17.2601 15.03 17.4901 14.77 19.0001 14.51C19.1321 14.4864 19.254 14.4237 19.3501 14.33C19.6301 14.09 19.5201 13.57 19.4601 13.25C19.1331 12.7037 18.8745 12.1194 18.6901 11.51C18.5501 10.76 18.3501 9.96 18.2401 9.44C19.743 9.84417 21.2192 10.3418 22.6601 10.93C22.6601 10.93 21.7601 13.56 21.3001 14.93C21.0901 15.5 21.1101 15.83 22.3001 14.93C22.3601 14.81 22.4401 14.69 22.5301 14.53C22.7701 14 22.9701 13.37 23.2201 12.8C23.6401 11.85 23.9301 11.22 23.6001 10.52C23.2701 9.82 19.1801 8.4 18.5301 8.31C18.0197 8.1955 17.4904 8.1955 16.9801 8.31C15.3701 8.81 11.8401 14.5 11.7701 14.58L11.5601 14.85C11.3601 15.73 11.6301 15.76 12.4601 14.85Z" fill="black"/>
<path fill-rule="evenodd" clip-rule="evenodd" d="M5.05003 16.05C4.95985 16.05 4.87337 16.0858 4.80961 16.1496C4.74585 16.2133 4.71003 16.2998 4.71003 16.39C4.71003 16.4802 4.74585 16.5666 4.80961 16.6304C4.87337 16.6942 4.95985 16.73 5.05003 16.73C10.69 16.8 13.39 16.18 19.76 16.9C20.17 16.9 22.17 16.84 22.36 17.31C22.3907 17.4559 22.3695 17.608 22.3 17.74C22.24 17.92 21.96 18.04 21.69 18.18C20.44 18.83 20.19 18.47 19.83 18.83C19.47 19.19 19.59 19.61 19.52 19.83C19.39 20.21 19.14 21.27 18.87 21.38C15.59 22.8 11.23 22.06 7.62003 21.74C6.97003 21.68 6.15003 21.74 5.39003 21.74C4.01003 21.64 4.03003 21.24 3.91003 20.89C3.39003 19.42 3.65003 19.04 3.21003 18.89C2.77003 18.74 1.10003 18.92 1.00003 18.49C0.900027 18.06 1.16003 17.85 1.53003 17.65C3.03003 16.85 3.75003 17.65 3.95003 17.18C4.38003 16.18 -0.339973 16.61 0.330027 18.72C0.660027 19.72 2.33003 19.34 2.80003 19.44C2.80003 19.93 3.13003 21.66 3.80003 22.08C4.86003 22.81 6.49003 22.56 7.62003 22.69C11.53 23.12 15.74 23.99 19.42 22.42C20.23 22.07 20.42 20.94 20.7 20.17C20.7154 20.0237 20.7154 19.8763 20.7 19.73C21.59 19.61 23.18 18.93 23.46 18.09C24.42 14.77 19.11 15.89 5.05003 16.05Z" fill="black"/>
</g>
<defs>
<clipPath id="clip0_1032_3236">
<rect width="24" height="24" fill="white"/>
</clipPath>
</defs>
</svg>
