<svg width="24" height="24" viewBox="0 0 24 24" fill="none" xmlns="http://www.w3.org/2000/svg">
<g clip-path="url(#clip0_1050_8228)">
<path fill-rule="evenodd" clip-rule="evenodd" d="M24 16.9C23.5573 16.0384 23.0279 15.2242 22.42 14.47C21.9641 13.9395 21.3732 13.5422 20.71 13.32C20.4002 13.2466 20.0753 13.2711 19.78 13.39C19.29 13.54 18.7 13.84 18.18 14.03C17.89 14.14 17.64 14.26 17.48 14.15C17.2898 14.0041 17.1243 13.8285 16.99 13.63C16.59 13.08 16.26 12.39 15.91 11.92C15.5067 11.3395 14.9937 10.8435 14.4 10.46C14.185 10.316 13.9394 10.2243 13.6827 10.1921C13.426 10.1599 13.1653 10.1882 12.9215 10.2747C12.6776 10.3611 12.4574 10.5034 12.2783 10.6901C12.0992 10.8768 11.9662 11.1028 11.89 11.35C11.7255 11.8951 11.7646 12.4815 12 13C12.1954 13.4512 12.4438 13.8775 12.74 14.27C13.4087 15.044 14.0331 15.8553 14.61 16.7C14.78 16.98 14.97 17.27 15.12 17.56C15.2008 17.6998 15.2678 17.8472 15.32 18C14.6691 17.7181 14.0011 17.4777 13.32 17.28C13.0142 17.2231 12.6986 17.2543 12.41 17.37C12.2186 17.445 12.0519 17.5717 11.9283 17.7359C11.8047 17.9001 11.7291 18.0954 11.71 18.3C11.6798 19.005 11.8646 19.7025 12.24 20.3C12.6037 20.8423 13.0902 21.2911 13.66 21.61C14.83 22.27 16.23 22.31 17.61 22.94C17.6764 22.9711 17.7523 22.9749 17.8215 22.9506C17.8907 22.9263 17.9476 22.8758 17.98 22.81C17.9969 22.7766 18.007 22.7402 18.0097 22.7028C18.0123 22.6654 18.0074 22.6279 17.9953 22.5925C17.9832 22.5571 17.9641 22.5244 17.9391 22.4965C17.9141 22.4686 17.8838 22.446 17.85 22.43C16.71 21.86 15.53 21.72 14.5 21.26C13.8349 20.9705 13.2734 20.4857 12.89 19.87C12.7074 19.5455 12.5886 19.1891 12.54 18.82C12.54 18.55 12.54 18.26 12.73 18.17C12.9672 18.1052 13.22 18.1302 13.44 18.24C14.2079 18.6272 15.0256 18.9065 15.87 19.07C15.9365 19.0713 16.0026 19.0594 16.0644 19.0348C16.1262 19.0103 16.1825 18.9737 16.23 18.9271C16.2775 18.8806 16.3152 18.825 16.341 18.7637C16.3667 18.7023 16.38 18.6365 16.38 18.57C16.3788 18.3151 16.3554 18.0608 16.31 17.81C16.2369 17.5547 16.1398 17.3069 16.02 17.07C15.86 16.76 15.67 16.46 15.5 16.17C14.9066 15.2833 14.2622 14.4319 13.57 13.62C13.3234 13.2952 13.1153 12.9428 12.95 12.57C12.8354 12.3199 12.7938 12.0426 12.83 11.77C12.8453 11.6612 12.8847 11.5572 12.9452 11.4655C13.0058 11.3739 13.086 11.2968 13.18 11.24C13.49 11.06 13.81 11.24 14.11 11.43C14.4858 11.718 14.822 12.0542 15.11 12.43C15.47 12.88 15.82 13.57 16.23 14.1C16.4319 14.373 16.6788 14.6096 16.96 14.8C17.109 14.9056 17.2789 14.9781 17.4583 15.0126C17.6377 15.0471 17.8224 15.0428 18 15C18.5585 14.8116 19.1032 14.5844 19.63 14.32C19.877 14.161 20.1664 14.0808 20.46 14.09C21.002 14.2532 21.4894 14.5609 21.87 14.98C22.4642 15.6807 22.9837 16.4415 23.42 17.25C23.4406 17.2858 23.4682 17.3172 23.5012 17.3422C23.5341 17.3672 23.5717 17.3854 23.6118 17.3956C23.6519 17.4059 23.6936 17.408 23.7345 17.4019C23.7754 17.3958 23.8147 17.3815 23.85 17.36C23.8923 17.3422 23.9302 17.3155 23.9613 17.2817C23.9924 17.2479 24.0158 17.2079 24.0301 17.1643C24.0443 17.1206 24.049 17.0744 24.0438 17.0288C24.0386 16.9832 24.0236 16.9393 24 16.9Z" fill="black"/>
<path fill-rule="evenodd" clip-rule="evenodd" d="M9.99998 12.71H7.89998C7.33998 12.71 6.78998 12.77 5.78998 12.85C5.07139 12.9385 4.34372 12.9217 3.62998 12.8C3.19133 12.7084 2.78237 12.5091 2.43998 12.22C1.92044 11.6991 1.51999 11.0718 1.26621 10.3812C1.01244 9.69071 0.911376 8.95336 0.969984 8.22C0.939601 6.71448 1.33475 5.23094 2.10998 3.94C2.81925 3.15873 3.76985 2.63766 4.80998 2.46C6.48481 2.12625 8.19417 1.99864 9.89998 2.08C11.25 2.08 12.67 1.96 14.08 1.97C14.9826 1.96747 15.8833 2.05118 16.77 2.22C17.3697 2.35835 17.9325 2.62439 18.42 3C18.8829 3.35903 19.2305 3.84571 19.42 4.4C19.6468 5.8646 19.6468 7.3554 19.42 8.82C19.3403 9.78487 18.955 10.6992 18.32 11.43C18.263 11.4911 18.2314 11.5715 18.2314 11.655C18.2314 11.7385 18.263 11.8189 18.32 11.88C18.3799 11.9392 18.4607 11.9725 18.545 11.9725C18.6292 11.9725 18.7101 11.9392 18.77 11.88C19.5204 11.0629 19.9959 10.0313 20.13 8.93C20.4205 7.34591 20.4577 5.72573 20.24 4.13C20.0259 3.4009 19.593 2.75512 19 2.28C18.4102 1.8218 17.7278 1.49761 17 1.33C16.0463 1.12599 15.0751 1.01547 14.1 1H9.89998C8.11029 0.912043 6.3166 1.0464 4.55998 1.4C3.27536 1.63566 2.1144 2.31525 1.27998 3.32C0.384568 4.79355 -0.0603605 6.49679 -1.61887e-05 8.22C-0.0416632 9.08767 0.107823 9.95389 0.437871 10.7574C0.767919 11.5609 1.27047 12.2821 1.90998 12.87C2.35498 13.2312 2.88522 13.4722 3.44998 13.57C4.23916 13.6849 5.04081 13.6849 5.82998 13.57C6.82998 13.47 7.34998 13.41 7.89998 13.38C8.44998 13.35 8.99998 13.31 9.99998 13.26C10.0363 13.26 10.0722 13.2527 10.1057 13.2385C10.1391 13.2243 10.1693 13.2036 10.1945 13.1774C10.2197 13.1513 10.2394 13.1203 10.2524 13.0864C10.2653 13.0525 10.2713 13.0163 10.27 12.98C10.27 12.9084 10.2415 12.8397 10.1909 12.7891C10.1403 12.7384 10.0716 12.71 9.99998 12.71Z" fill="black"/>
<path fill-rule="evenodd" clip-rule="evenodd" d="M5.61998 4.74999C5.47876 4.52396 5.27195 4.34638 5.02716 4.24096C4.78237 4.13554 4.51124 4.10729 4.24998 4.15999C4.02059 4.17212 3.79907 4.24773 3.61014 4.3784C3.42121 4.50906 3.27229 4.68964 3.17998 4.89999C2.95994 5.66447 2.95994 6.47551 3.17998 7.23999L3.34998 7.90999L3.61998 8.71999L3.87998 9.35999C3.85974 9.42653 3.86039 9.49768 3.88184 9.56384C3.9033 9.63001 3.94453 9.68799 3.99998 9.72999C4.25989 9.89296 4.55381 9.99397 4.859 10.0252C5.16418 10.0564 5.47246 10.017 5.75998 9.90999C6.3235 9.72783 6.81859 9.37917 7.17998 8.90999C7.47028 8.52457 7.62182 8.05236 7.60998 7.56999C7.59507 7.20251 7.4578 6.85054 7.21998 6.56999C7.02872 6.3828 6.80183 6.2359 6.55277 6.13799C6.3037 6.04008 6.03751 5.99315 5.76998 5.99999C5.87678 5.57914 5.82332 5.13362 5.61998 4.74999ZM3.83998 6.66999C3.80497 6.35763 3.80497 6.04234 3.83998 5.72999C3.88998 5.41999 3.98998 5.12999 4.32998 5.10999C4.66998 5.08999 4.72998 5.19999 4.75998 5.36999C4.79865 5.65874 4.72725 5.95147 4.55998 6.18999C4.29082 6.30121 4.04617 6.46431 3.83998 6.66999ZM6.52998 7.23999C6.59905 7.31157 6.65318 7.39618 6.68923 7.48889C6.72528 7.5816 6.74254 7.68055 6.73998 7.77999C6.72496 8.02154 6.64929 8.25541 6.51998 8.45999C6.27255 8.81223 5.92376 9.0808 5.51998 9.22999C5.17007 9.36967 4.77989 9.36967 4.42998 9.22999L4.19998 8.53999L4.07998 7.99999C4.17249 7.9528 4.25965 7.8958 4.33998 7.82999L4.62998 7.61999C4.79698 7.49947 4.95113 7.36208 5.08998 7.20999L5.26998 6.99999H5.32998C5.53461 6.941 5.7504 6.93201 5.95922 6.97377C6.16805 7.01554 6.36379 7.10684 6.52998 7.23999Z" fill="black"/>
<path fill-rule="evenodd" clip-rule="evenodd" d="M11.53 4.79001C11.5206 4.74968 11.5033 4.71163 11.479 4.67811C11.4547 4.64458 11.4239 4.61627 11.3885 4.59483C11.3531 4.57339 11.3137 4.55926 11.2728 4.55328C11.2318 4.5473 11.1901 4.54959 11.15 4.56001C11.1097 4.56936 11.0716 4.5867 11.0381 4.611C11.0046 4.63529 10.9762 4.66606 10.9548 4.70148C10.9334 4.7369 10.9192 4.77625 10.9133 4.81722C10.9073 4.85819 10.9096 4.89994 10.92 4.94001C11.0144 5.48799 11.0413 6.04549 11 6.60001C10.9721 7.0946 10.8245 7.57503 10.57 8.00001C10.5101 8.0864 10.433 8.15945 10.3435 8.21453C10.254 8.26961 10.1541 8.30552 10.05 8.32001C9.96902 8.33628 9.88515 8.32996 9.80754 8.30174C9.72993 8.27352 9.66158 8.22448 9.60998 8.16001C9.43293 7.92264 9.30076 7.65491 9.21998 7.37001C9.12506 7.04296 9.05815 6.70842 9.01998 6.37001C8.9898 6.08748 8.9898 5.80254 9.01998 5.52001C9.05122 5.22443 9.09795 4.93069 9.15998 4.64001C9.17156 4.57095 9.15684 4.50007 9.11873 4.44132C9.08062 4.38258 9.02189 4.34025 8.95411 4.32268C8.88633 4.30511 8.81442 4.31357 8.75257 4.3464C8.69073 4.37922 8.64342 4.43403 8.61998 4.50001C8.49689 4.86082 8.39341 5.22802 8.30998 5.60001C8.25538 5.86333 8.22525 6.13114 8.21998 6.40001C8.19072 6.87666 8.23114 7.35503 8.33998 7.82001C8.41806 8.17609 8.56039 8.51496 8.75998 8.82001C8.92104 9.04768 9.14475 9.22368 9.40392 9.32665C9.6631 9.42961 9.9466 9.45509 10.22 9.40001C10.4691 9.35561 10.7058 9.25861 10.9145 9.11549C11.1231 8.97237 11.2989 8.78641 11.43 8.57001C11.6736 8.0821 11.8035 7.54533 11.81 7.00001C11.8327 6.25324 11.7382 5.50752 11.53 4.79001Z" fill="black"/>
<path fill-rule="evenodd" clip-rule="evenodd" d="M14.33 7.51999C14.33 8.13999 14.46 8.92999 14.49 9.11999C14.4818 9.16605 14.4837 9.21336 14.4957 9.25859C14.5078 9.30381 14.5296 9.34584 14.5596 9.38173C14.5896 9.41761 14.6272 9.44647 14.6696 9.46627C14.712 9.48608 14.7582 9.49634 14.805 9.49634C14.8518 9.49634 14.898 9.48608 14.9404 9.46627C14.9828 9.44647 15.0204 9.41761 15.0504 9.38173C15.0804 9.34584 15.1022 9.30381 15.1142 9.25859C15.1263 9.21336 15.1282 9.16605 15.12 9.11999L15.36 7.11999L16 6.30999C16.24 5.90999 16.46 5.52999 16.73 5.15999C16.8337 5.00292 16.9472 4.85262 17.07 4.70999C17.0966 4.68392 17.1177 4.6528 17.1322 4.61846C17.1466 4.58412 17.154 4.54724 17.154 4.50999C17.154 4.47274 17.1466 4.43586 17.1322 4.40152C17.1177 4.36718 17.0966 4.33606 17.07 4.30999C17.0178 4.25929 16.9478 4.23093 16.875 4.23093C16.8022 4.23093 16.7322 4.25929 16.68 4.30999C16.45 4.47999 16.25 4.65999 16.05 4.83999C15.85 5.01999 15.48 5.38999 15.18 5.67999C15.07 5.80651 14.9496 5.92359 14.82 6.02999C14.75 5.91999 14.69 5.79999 14.61 5.68999C14.5296 5.57522 14.4428 5.46505 14.35 5.35999C14.2645 5.25298 14.1709 5.15269 14.07 5.05999C13.83 4.82999 13.57 4.65999 13.33 4.40999C13.2886 4.35574 13.2288 4.31848 13.1618 4.30524C13.0948 4.29199 13.0253 4.30366 12.9664 4.33806C12.9074 4.37245 12.863 4.4272 12.8416 4.49201C12.8202 4.55682 12.8232 4.62723 12.85 4.68999C12.9625 5.09318 13.1344 5.47739 13.36 5.82999C13.5048 6.01991 13.669 6.19419 13.85 6.34999C13.9987 6.48733 14.1593 6.61115 14.33 6.71999C14.2984 6.98572 14.2984 7.25426 14.33 7.51999Z" fill="black"/>
</g>
<defs>
<clipPath id="clip0_1050_8228">
<rect width="24" height="24" fill="white"/>
</clipPath>
</defs>
</svg>
