<svg width="24" height="24" viewBox="0 0 24 24" fill="none" xmlns="http://www.w3.org/2000/svg">
<g clip-path="url(#clip0_1047_6074)">
<path fill-rule="evenodd" clip-rule="evenodd" d="M11.7 19.21C11.2323 19.574 10.8212 20.0054 10.48 20.49C9.86504 21.4914 8.94235 22.2667 7.84999 22.7C7.36793 22.9237 6.8341 23.0121 6.30564 22.9558C5.77718 22.8994 5.27401 22.7004 4.84999 22.38C4.53049 22.1088 4.24507 21.7999 3.99999 21.46C4.19472 21.5505 4.39948 21.6176 4.60999 21.66C5.13567 21.7675 5.68199 21.703 6.16821 21.4761C6.65443 21.2492 7.05474 20.8719 7.30999 20.4C7.71444 19.7185 7.93176 18.9424 7.93999 18.15C7.94075 17.0482 7.74781 15.9549 7.36999 14.92C7.198 14.4369 6.95537 13.9819 6.64999 13.57C6.43458 13.2704 6.16285 13.0156 5.84999 12.82C5.20117 12.3943 4.41263 12.2366 3.64999 12.38C3.24605 12.4712 2.86923 12.6562 2.54999 12.92C2.57586 12.8002 2.61268 12.683 2.65999 12.57C2.86234 12.2094 3.15096 11.9047 3.5 11.683C3.84904 11.4614 4.2476 11.3298 4.65999 11.3C5.08024 11.191 5.51809 11.1676 5.94756 11.2312C6.37702 11.2947 6.78933 11.4439 7.15999 11.67C7.52462 11.9195 7.83611 12.2389 8.07643 12.6097C8.31674 12.9805 8.48111 13.3952 8.55999 13.83L8.73999 14.65V14.73V16.44C8.73999 16.68 8.79999 16.92 8.82999 17.16C8.85999 17.4 8.92999 17.63 8.98999 17.86C9.12999 18.41 9.29999 18.94 9.44999 19.49C9.45209 19.5397 9.4648 19.5885 9.48726 19.633C9.50972 19.6775 9.54142 19.7166 9.58023 19.7479C9.61904 19.7791 9.66408 19.8017 9.71232 19.8141C9.76057 19.8266 9.81091 19.8286 9.85999 19.82C9.90965 19.8151 9.9578 19.8002 10.0015 19.7762C10.0453 19.7522 10.0837 19.7196 10.1146 19.6804C10.1454 19.6411 10.168 19.5961 10.1809 19.5479C10.1939 19.4997 10.197 19.4494 10.19 19.4V17.68C10.1754 17.2409 10.1117 16.8048 9.99999 16.38C10.1627 16.4001 10.3273 16.4001 10.49 16.38C10.7008 16.3546 10.9065 16.2973 11.1 16.21C11.44 16.04 11.39 15.38 11.03 15.4C10.7954 15.5133 10.5403 15.5779 10.28 15.59C10.1241 15.6171 9.96369 15.5962 9.81999 15.53L9.48999 13.63C9.4048 13.0681 9.2078 12.5291 8.91066 12.0447C8.61351 11.5604 8.22224 11.1405 7.75999 10.81C7.28213 10.489 6.74482 10.267 6.17975 10.1571C5.61469 10.0471 5.03333 10.0515 4.46999 10.17C3.85997 10.1964 3.26685 10.3784 2.74701 10.6987C2.22717 11.019 1.7979 11.467 1.49999 12C0.999993 13 0.949993 14.54 1.31999 16.8C1.48972 18.1949 1.82543 19.5646 2.31999 20.88C2.71714 21.8024 3.33949 22.6105 4.12999 23.23C4.60157 23.5831 5.14953 23.8205 5.72969 23.923C6.30985 24.0254 6.90597 23.9902 7.46999 23.82C8.25835 23.5895 8.99356 23.206 9.63358 22.6912C10.2736 22.1764 10.8059 21.5406 11.2 20.82C11.3782 20.5069 11.6081 20.2263 11.88 19.99C12.0048 19.8722 12.1125 19.7376 12.2 19.59C12.35 19.42 12.32 18.72 11.7 19.21ZM3.24999 19.87C2.95171 18.8001 2.72784 17.7108 2.57999 16.61C2.47121 16.0115 2.39775 15.4071 2.35999 14.8C2.40065 14.5785 2.47841 14.3655 2.58999 14.17C2.71921 13.9617 2.89293 13.7847 3.09868 13.6516C3.30443 13.5184 3.5371 13.4325 3.77999 13.4C4.26779 13.3546 4.75528 13.4898 5.14999 13.78C5.37824 13.9638 5.57135 14.1874 5.71999 14.44C5.88454 14.7251 6.01862 15.0268 6.11999 15.34C6.4454 16.2389 6.62435 17.1843 6.64999 18.14C6.67766 18.7292 6.56095 19.3162 6.30999 19.85C6.17762 20.159 5.95011 20.4178 5.66056 20.5886C5.37101 20.7595 5.03451 20.8335 4.69999 20.8C4.11599 20.6856 3.59749 20.3531 3.24999 19.87Z" fill="black"/>
<path fill-rule="evenodd" clip-rule="evenodd" d="M15.85 15.57C15.7995 15.372 15.7256 15.1806 15.63 15C15.5607 14.8733 15.4466 14.777 15.31 14.73C14.4458 14.36 13.5196 14.1565 12.58 14.13C12.3237 14.1235 12.0677 14.1538 11.82 14.22C11.7102 14.2462 11.6091 14.3006 11.5267 14.3777C11.4443 14.4549 11.3834 14.5522 11.35 14.66C11.3298 14.8562 11.3298 15.0539 11.35 15.25C11.48 15.9 11.83 17.31 11.95 17.74C12.07 18.17 12.23 18.74 12.52 19.49C12.58 19.66 12.64 19.83 12.71 19.99C12.7255 20.0309 12.7489 20.0683 12.779 20.1001C12.8091 20.1319 12.8452 20.1573 12.8852 20.175C12.9252 20.1927 12.9684 20.2022 13.0121 20.2031C13.0558 20.2039 13.0993 20.1961 13.14 20.18C13.1807 20.1639 13.2177 20.1396 13.2487 20.1087C13.2796 20.0777 13.3039 20.0407 13.32 20C13.3717 20.0404 13.4332 20.0663 13.4982 20.0751C13.5632 20.0839 13.6294 20.0752 13.69 20.05C14.3194 19.8242 14.9023 19.4853 15.41 19.05C15.8024 18.7227 16.0851 18.2829 16.22 17.79C16.1693 17.0397 16.0454 16.2962 15.85 15.57ZM14.57 18.57C14.2159 18.8797 13.8184 19.1357 13.39 19.33C13.3274 19.3558 13.2723 19.3971 13.23 19.45C13.05 18.87 12.85 17.57 12.84 17.52C12.77 17.1 12.59 16.46 12.5 15.85C12.4907 15.6902 12.4907 15.5299 12.5 15.37C14.92 15.37 14.84 16.07 15.16 17.37C15.16 17.51 15.16 17.68 15.22 17.69C15.1017 18.0501 14.8746 18.3646 14.57 18.59V18.57Z" fill="black"/>
<path fill-rule="evenodd" clip-rule="evenodd" d="M22.68 7.17001C22.5103 5.77505 22.1746 4.40535 21.68 3.09001C21.2942 2.17192 20.6859 1.36431 19.91 0.740007C19.4384 0.386873 18.8905 0.149494 18.3103 0.0470108C17.7301 -0.0554725 17.134 -0.0201922 16.57 0.150007C15.7816 0.380441 15.0464 0.764005 14.4064 1.27877C13.7664 1.79353 13.2341 2.42939 12.84 3.15001C12.6517 3.51946 12.3815 3.84098 12.05 4.09001C11.59 4.41001 11.85 5.09001 12.39 4.66001C12.8304 4.35295 13.2129 3.97039 13.52 3.53001C14.1316 2.52115 15.0547 1.73848 16.15 1.30001C16.6383 1.06639 17.1818 0.972619 17.7202 1.02911C18.2586 1.08559 18.7708 1.29012 19.2 1.62001C19.5246 1.88955 19.8106 2.20249 20.05 2.55001C19.8538 2.46077 19.6495 2.39046 19.44 2.34001C18.913 2.23503 18.3663 2.30056 17.8791 2.5271C17.3918 2.75364 16.9894 3.12942 16.73 3.60001C16.3311 4.28381 16.1142 5.05848 16.1 5.85001C16.1017 6.95568 16.298 8.05241 16.68 9.09001C16.8422 9.5723 17.082 10.0249 17.39 10.43C17.6089 10.7328 17.8838 10.9908 18.2 11.19C18.8461 11.6131 19.6306 11.7707 20.39 11.63C20.7969 11.5331 21.1764 11.3451 21.5 11.08C21.4741 11.1998 21.4373 11.317 21.39 11.43C21.1876 11.7906 20.899 12.0953 20.55 12.317C20.2009 12.5386 19.8024 12.6702 19.39 12.7C18.9697 12.809 18.5319 12.8324 18.1024 12.7688C17.673 12.7052 17.2607 12.556 16.89 12.33C16.5254 12.0805 16.2139 11.7611 15.9735 11.3903C15.7332 11.0195 15.5689 10.6047 15.49 10.17L15.15 8.59001C15.15 8.35001 15.2 8.11001 15.2 7.87001C15.1949 7.64559 15.1749 7.42176 15.14 7.20001C15.1087 6.98032 15.0619 6.76311 15 6.55001C14.88 6.04001 14.7 5.55001 14.55 5.06001C14.5328 4.9625 14.4783 4.87555 14.398 4.81765C14.3177 4.75975 14.2179 4.73548 14.12 4.75001C14.0711 4.75727 14.0242 4.77425 13.982 4.79995C13.9398 4.82564 13.9032 4.85953 13.8743 4.89961C13.8454 4.93969 13.8248 4.98515 13.8138 5.0333C13.8027 5.08146 13.8014 5.13134 13.81 5.18001V6.74001C13.8121 6.95755 13.8288 7.1747 13.86 7.39001V7.62001C13.6188 7.62884 13.3784 7.65221 13.14 7.69001C12.58 7.83001 12.97 8.45001 13.27 8.43001C13.5329 8.40994 13.797 8.40994 14.06 8.43001C14.17 8.78001 14.28 9.13001 14.37 9.49001V9.54001L14.51 10.35C14.5952 10.9118 14.7922 11.4509 15.0893 11.9353C15.3865 12.4196 15.7777 12.8395 16.24 13.17C16.7178 13.491 17.2552 13.713 17.8202 13.8229C18.3853 13.9328 18.9666 13.9284 19.53 13.81C20.1381 13.7856 20.7299 13.6066 21.2496 13.2899C21.7692 12.9732 22.1996 12.5293 22.5 12C23 11 23.05 9.43001 22.68 7.17001ZM21.41 9.84001C21.2767 10.0467 21.1005 10.2224 20.8935 10.3552C20.6865 10.488 20.4534 10.5749 20.21 10.61C19.7201 10.6615 19.2293 10.5218 18.84 10.22C18.6074 10.0435 18.4162 9.81825 18.28 9.56001C18.1145 9.27748 17.9772 8.97938 17.87 8.67001C17.5491 7.77019 17.3736 6.82502 17.35 5.87001C17.3123 5.28011 17.4295 4.69062 17.69 4.16001C17.8095 3.84049 18.031 3.56931 18.3203 3.38851C18.6096 3.20771 18.9504 3.12739 19.29 3.16001C19.884 3.26912 20.4117 3.60655 20.76 4.10001C21.0549 5.16339 21.2754 6.246 21.42 7.34001C21.5288 7.9385 21.6022 8.54288 21.64 9.15001C21.6033 9.39145 21.5255 9.62482 21.41 9.84001Z" fill="black"/>
<path fill-rule="evenodd" clip-rule="evenodd" d="M12.06 6.26001C12 5.89001 11.37 4.17001 11.3 4.00001C11.2666 3.91665 11.2016 3.84989 11.1192 3.8143C11.0367 3.7787 10.9436 3.77716 10.86 3.81001C10.7821 3.84567 10.7212 3.91022 10.69 3.99001C10.6334 3.95848 10.5698 3.94193 10.505 3.94193C10.4402 3.94193 10.3766 3.95848 10.32 3.99001C9.69055 4.2158 9.10764 4.5547 8.6 4.99001C8.21357 5.30388 7.92833 5.72478 7.78 6.20001C7.83156 6.95348 7.95547 7.70025 8.15 8.43001C8.19582 8.62951 8.2699 8.82145 8.37 9.00001C8.43831 9.1237 8.5481 9.21932 8.68 9.27001C9.54762 9.64008 10.4771 9.84362 11.42 9.87001C11.6731 9.87682 11.9257 9.8465 12.17 9.78001C12.2808 9.75353 12.3831 9.69923 12.467 9.62224C12.551 9.54525 12.614 9.44811 12.65 9.34001C12.8 8.61001 12.33 7.51001 12.06 6.26001ZM8.87 6.64001C8.87 6.50001 8.87 6.50001 8.81 6.32001C8.91793 5.96258 9.13038 5.64564 9.42 5.41001C9.77789 5.10055 10.1787 4.84456 10.61 4.65001C10.6712 4.62168 10.7257 4.5808 10.77 4.53001C10.9327 5.16629 11.0629 5.81046 11.16 6.46001C11.23 6.88001 11.41 7.52001 11.49 8.13001C11.4991 8.28988 11.4991 8.45013 11.49 8.61001C9.1 8.63001 9.19 7.90001 8.87 6.64001Z" fill="black"/>
</g>
<defs>
<clipPath id="clip0_1047_6074">
<rect width="24" height="24" fill="white"/>
</clipPath>
</defs>
</svg>
