<svg width="24" height="24" viewBox="0 0 24 24" fill="none" xmlns="http://www.w3.org/2000/svg">
<g clip-path="url(#clip0_1032_3249)">
<path d="M9.26 13.76C8.26 13.67 7.32 13.56 6.38 13.51H5.15H3.92C2.66 13.51 1.65 13.63 1.05 13.64C1.00278 13.6385 0.955776 13.6469 0.911979 13.6646C0.868181 13.6823 0.828554 13.709 0.795624 13.7428C0.762693 13.7767 0.737183 13.8171 0.720719 13.8613C0.704255 13.9056 0.697199 13.9529 0.7 14C0.70859 14.0766 0.742957 14.148 0.797467 14.2025C0.851977 14.2571 0.923392 14.2914 1 14.3C1.6 14.37 2.62 14.48 3.89 14.56H5.12H6.36C7.29 14.51 8.26 14.4 9.24 14.32C9.31877 14.3175 9.39363 14.2851 9.44936 14.2294C9.50509 14.1736 9.5375 14.0988 9.54 14.02C9.53082 13.9509 9.49785 13.8871 9.44675 13.8397C9.39565 13.7922 9.32961 13.7641 9.26 13.76Z" fill="black"/>
<path d="M24 12.69C23.9573 12.5494 23.8799 12.4217 23.7751 12.3186C23.6703 12.2156 23.5414 12.1404 23.4 12.1C22.582 11.8727 21.7388 11.7484 20.89 11.73C20.8116 11.1906 20.7014 10.6564 20.56 10.13C20.5132 9.89556 20.4103 9.67597 20.26 9.49C20.1202 9.4 19.9638 9.3388 19.8 9.31C19.4695 9.24903 19.1356 9.20895 18.8 9.19C18.34 9.19 17.8 9.1 17.36 9.12C17.1131 9.12647 16.8679 9.16341 16.63 9.23C16.2841 9.31664 15.986 9.5357 15.8 9.84C15.6138 10.2022 15.4952 10.5953 15.45 11L15.35 11.63C15.3543 11.6732 15.3543 11.7168 15.35 11.76C13.66 11.87 12.41 12 12.35 12.48C12.3443 12.5532 12.3443 12.6268 12.35 12.7C12.35 13.17 12.25 14.19 12.28 14.7C12.282 14.8266 12.3165 14.9505 12.38 15.06C12.4121 15.1095 12.4547 15.1514 12.5049 15.1825C12.555 15.2136 12.6114 15.2332 12.67 15.24C12.8944 15.2851 13.1216 15.3152 13.35 15.33C13.35 15.87 13.35 17.14 13.41 17.56C13.5 18.73 13.46 20.01 13.59 21.22C13.6442 21.7715 13.748 22.3171 13.9 22.85C13.9673 23.0189 14.0727 23.1699 14.208 23.2913C14.3434 23.4128 14.5049 23.5013 14.68 23.55C15.1782 23.6869 15.6935 23.7509 16.21 23.74L17.99 23.64C18.453 23.615 18.917 23.615 19.38 23.64C19.6146 23.632 19.8485 23.6087 20.08 23.57C20.4716 23.5204 20.8592 23.4435 21.24 23.34C21.5463 23.2263 21.8232 23.0451 22.05 22.81C22.1631 22.684 22.2453 22.5333 22.29 22.37C22.36 22.1325 22.4003 21.8873 22.41 21.64L22.63 19C22.68 18.25 22.74 17.41 22.77 16.59V15.1C22.9423 15.0792 23.1127 15.0458 23.28 15C23.4403 14.9761 23.5903 14.907 23.7126 14.8007C23.8348 14.6944 23.9241 14.5554 23.97 14.4V12.69H24ZM16.17 11.17C16.247 10.9227 16.351 10.6846 16.48 10.46C16.5202 10.3978 16.5749 10.3462 16.6393 10.3097C16.7037 10.2731 16.776 10.2526 16.85 10.25C17.0163 10.2348 17.1837 10.2348 17.35 10.25H19.64C19.82 10.25 20.14 11.69 20.14 11.69H15.99L16.17 11.17ZM22 16.58C21.93 17.39 21.83 18.22 21.74 18.96L21.36 21.43L21.24 21.99C21.1246 22.1068 20.9793 22.1898 20.82 22.23C20.4911 22.308 20.1569 22.3615 19.82 22.39L17.77 22.45L16.13 22.56C15.7973 22.5884 15.4628 22.5884 15.13 22.56C15.0159 22.5497 14.9023 22.533 14.79 22.51C14.79 22.51 14.79 22.51 14.79 22.45C14.6572 21.9756 14.5669 21.4904 14.52 21C14.32 19.81 14.27 18.54 14.1 17.39C14.1 16.99 13.96 15.84 13.92 15.27C15.48 15.35 18.14 15.4 20.27 15.27C20.96 15.27 21.59 15.2 22.12 15.15C22.1 15.6367 22.06 16.1133 22 16.58ZM22.88 14H22.34C21.49 14.11 20.22 14.19 18.87 14.27C16.87 14.38 14.81 14.47 13.62 14.46C13.3888 14.4453 13.1585 14.4186 12.93 14.38C12.9254 14.3603 12.9254 14.3397 12.93 14.32V12.67C14.2781 12.481 15.6426 12.4374 17 12.54C18.7268 12.5554 20.4506 12.6857 22.16 12.93C22.43 12.98 22.73 13 22.91 13.04V13.75L22.88 14Z" fill="black"/>
<path d="M16.82 17.06C16.8252 17.0235 16.8252 16.9865 16.82 16.95C16.8091 16.8816 16.7756 16.8189 16.7248 16.7717C16.6741 16.7246 16.609 16.6958 16.54 16.69C16.449 16.7291 16.3708 16.7929 16.3142 16.8743C16.2577 16.9556 16.225 17.0511 16.22 17.15C16.1371 17.8162 16.1607 18.4913 16.29 19.15C16.39 19.58 16.55 19.98 16.67 20.42C16.6746 20.4633 16.6877 20.5053 16.7085 20.5436C16.7293 20.5819 16.7575 20.6157 16.7914 20.6431C16.8253 20.6705 16.8642 20.6909 16.906 20.7033C16.9478 20.7156 16.9916 20.7196 17.035 20.715C17.0783 20.7104 17.1203 20.6973 17.1586 20.6765C17.1969 20.6557 17.2307 20.6275 17.2581 20.5936C17.2855 20.5597 17.3059 20.5207 17.3183 20.479C17.3306 20.4372 17.3346 20.3933 17.33 20.35C17.3657 19.9009 17.3724 19.45 17.35 19C17.263 18.3321 17.0847 17.6793 16.82 17.06Z" fill="black"/>
<path d="M19.81 16.82C19.71 16.61 19.56 16.57 19.47 16.6C19.4095 16.6014 19.3521 16.6265 19.31 16.67C18.91 17.05 18.93 17.89 18.89 18C18.84 18.31 18.78 18.63 18.75 18.94C18.75 19.43 18.75 19.94 18.8 20.39C18.7916 20.4787 18.8183 20.5671 18.8744 20.6363C18.9305 20.7055 19.0115 20.7499 19.1 20.76C19.1872 20.7686 19.2743 20.7433 19.3432 20.6892C19.4121 20.6352 19.4575 20.5567 19.47 20.47C19.6 20 19.76 19.55 19.85 19.07C19.91 18.76 19.91 18.44 19.94 18.12C19.94 18.05 19.87 17.23 19.83 16.98C19.82 16.9 19.81 16.84 19.81 16.82Z" fill="black"/>
<path d="M6.11 7.60001L5.35 8.16001C5.06 8.39001 4.76 8.64001 4.48 8.89001C4.2 9.14001 3.9 9.40001 3.63 9.65001C2.82 10.43 2.14 11.15 1.76 11.6C1.69649 11.6637 1.66083 11.75 1.66083 11.84C1.66083 11.93 1.69649 12.0163 1.76 12.08C1.7907 12.1112 1.82728 12.1359 1.86763 12.1528C1.90797 12.1696 1.95126 12.1783 1.995 12.1783C2.03873 12.1783 2.08202 12.1696 2.12237 12.1528C2.16271 12.1359 2.19929 12.1112 2.23 12.08C2.67 11.69 3.49 11.08 4.38 10.42C4.84 10.06 5.38 9.67001 5.77 9.25001C6.16 8.83001 6.55 8.49001 6.89 8.12001C7.5 7.08001 7.12 7.00001 6.11 7.60001Z" fill="black"/>
<path d="M18.86 3.2C18.8856 2.52235 18.6966 1.85392 18.32 1.29C17.9424 1.08749 17.5271 0.964948 17.1 0.929998C14.0159 0.531457 10.9097 0.32772 7.8 0.319998C6.17577 0.300434 4.55207 0.39064 2.94 0.589998C2.17932 0.656459 1.43887 0.870443 0.760002 1.22C0.598702 1.3379 0.482323 1.50718 0.430002 1.7C0.267634 2.42288 0.173885 3.15949 0.150002 3.9C-0.0372241 7.0272 -0.0372241 10.1628 0.150002 13.29C0.153744 13.3282 0.165016 13.3652 0.183167 13.399C0.201318 13.4328 0.225987 13.4626 0.255747 13.4868C0.285506 13.511 0.319766 13.529 0.356542 13.5398C0.393319 13.5507 0.431883 13.5541 0.470002 13.55C0.547916 13.54 0.618794 13.4998 0.66741 13.4381C0.716025 13.3764 0.738498 13.2981 0.730002 13.22C0.660002 12.44 0.730002 9.93 0.860002 7.44C0.970002 5.68 1.11 3.93 1.28 2.85C1.27534 2.79009 1.27534 2.72991 1.28 2.67C2.64 3.72 8.17 8.11 9.87 8.12C10.2213 8.09427 10.5626 7.99187 10.87 7.82C13.4448 6.28671 15.8138 4.43179 17.92 2.3C18.0312 2.80628 18.0948 3.32186 18.11 3.84C18.17 4.84 18.16 6.01 18.11 7.23C18.1237 7.30892 18.1648 7.38048 18.2261 7.43205C18.2874 7.48362 18.3649 7.5119 18.445 7.5119C18.5251 7.5119 18.6026 7.48362 18.6639 7.43205C18.7252 7.38048 18.7663 7.30892 18.78 7.23C18.8976 5.89001 18.9243 4.5436 18.86 3.2ZM13.71 4.76C12.71 5.45 11.71 6.09 10.91 6.52C10.6059 6.7326 10.2677 6.89156 9.91 6.99C9.5827 6.92584 9.26839 6.80755 8.98 6.64C8.29 6.3 7.41 5.79 6.48 5.22C4.78179 4.2017 3.11756 3.12779 1.49 2C2.00794 1.82353 2.54506 1.7094 3.09 1.66C4.65763 1.49204 6.23342 1.41191 7.81 1.42C10.8781 1.3871 13.9457 1.51729 17 1.81C17.1315 1.83303 17.2617 1.86308 17.39 1.9C16.2343 2.9413 15.0044 3.89715 13.71 4.76Z" fill="black"/>
<path d="M13.75 8.1C13.6352 7.94319 13.5116 7.79295 13.38 7.65L13.3 7.57C11.96 6.84 11.92 7.3 12.42 8.27L12.56 8.43C12.6926 8.56775 12.8328 8.69796 12.98 8.82C13.42 9.2 13.82 9.5 13.98 9.68C14.0107 9.71114 14.0473 9.73587 14.0876 9.75275C14.128 9.76963 14.1713 9.77832 14.215 9.77832C14.2587 9.77832 14.302 9.76963 14.3424 9.75275C14.3827 9.73587 14.4193 9.71114 14.45 9.68C14.5112 9.61506 14.5452 9.52921 14.5452 9.44C14.5452 9.35078 14.5112 9.26494 14.45 9.2C14.38 9 14.11 8.57 13.75 8.1Z" fill="black"/>
</g>
<defs>
<clipPath id="clip0_1032_3249">
<rect width="24" height="24" fill="white"/>
</clipPath>
</defs>
</svg>
