<svg width="24" height="24" viewBox="0 0 24 24" fill="none" xmlns="http://www.w3.org/2000/svg">
<g clip-path="url(#clip0_1032_3327)">
<path d="M10.34 12.48C10.19 12.37 10.07 12.38 9.55002 12.63C9.03002 12.88 8.31002 13.3 6.86002 14.06C6.81726 14.0802 6.77904 14.1088 6.74766 14.1442C6.71627 14.1796 6.69239 14.2209 6.67743 14.2658C6.66248 14.3107 6.65677 14.3581 6.66065 14.4052C6.66454 14.4523 6.67793 14.4982 6.70002 14.54C6.71917 14.5824 6.74683 14.6204 6.78129 14.6517C6.81574 14.683 6.85626 14.7069 6.90032 14.7219C6.94438 14.7369 6.99105 14.7427 7.03744 14.7389C7.08383 14.7352 7.12896 14.7219 7.17002 14.7C8.17002 14.24 8.94002 13.89 9.42002 13.7C9.24002 14.29 8.94002 15.14 8.60002 15.97C8.33016 16.6562 8.01617 17.3243 7.66002 17.97C7.56211 18.1822 7.4227 18.3726 7.25002 18.53C7.25002 18.53 7.17002 18.53 7.12002 18.53L6.74002 18.47C6.38002 18.38 6.02002 18.25 5.82002 18.19L1.67002 16.89L3.00002 16.32C3.0795 16.2907 3.14414 16.2311 3.17975 16.1543C3.21537 16.0774 3.21906 15.9896 3.19002 15.91C3.17559 15.8719 3.15379 15.837 3.12588 15.8073C3.09796 15.7777 3.06447 15.7538 3.02732 15.7371C2.99017 15.7204 2.9501 15.7111 2.90938 15.7099C2.86866 15.7087 2.8281 15.7155 2.79002 15.73C2.15002 15.95 0.270017 16.65 0.250017 16.66C0.172884 16.6893 0.110057 16.7473 0.0746526 16.8218C0.0392486 16.8963 0.0340051 16.9817 0.0600169 17.06C0.24532 17.6329 0.392311 18.2175 0.500017 18.81C0.680017 19.72 0.810017 20.63 0.960017 21.54C0.995773 21.9796 1.05586 22.417 1.14002 22.85C1.20015 23.1492 1.36284 23.418 1.60002 23.61C1.83594 23.7577 2.11224 23.8276 2.39002 23.81C2.82313 23.7572 3.24906 23.6566 3.66002 23.51C4.34002 23.31 5.02002 23.09 5.66002 22.86C6.30002 22.63 6.99002 22.38 7.66002 22.13C8.66002 21.75 9.37002 21.46 10.16 21.13C10.66 20.91 11.16 20.67 11.79 20.37C12.2848 20.1506 12.7329 19.8383 13.11 19.45C13.3288 19.2025 13.4435 18.88 13.43 18.55C13.1744 17.4334 12.7602 16.3592 12.2 15.36C11.7249 14.3138 11.0982 13.3434 10.34 12.48ZM12.06 18.94C11.8227 19.1045 11.5678 19.242 11.3 19.35L7.19002 21L3.28002 22.45C3.08002 22.52 2.80002 22.65 2.53002 22.72C2.26002 22.79 2.10002 23 2.00002 22.27C1.92002 21.91 1.88002 21.53 1.85002 21.36C1.63002 20.46 1.45002 19.55 1.21002 18.65C1.11992 18.2711 1.00977 17.8972 0.880017 17.53C1.45002 17.76 2.45002 18.17 3.45002 18.53C4.22002 18.82 4.97002 19.1 5.51002 19.28C5.97916 19.4603 6.4648 19.5942 6.96002 19.68C7.30173 19.7495 7.65705 19.6926 7.96002 19.52C8.64018 18.8081 9.1407 17.9442 9.42002 17C9.82785 15.941 10.162 14.8551 10.42 13.75C10.72 14.26 11.08 15 11.42 15.75C11.8845 16.6558 12.2211 17.6217 12.42 18.62C12.38 18.75 12.21 18.84 12.06 18.94Z" fill="black"/>
<path d="M15.52 1.89999C15.7396 2.25892 15.8146 2.68783 15.73 3.09999C15.73 3.21999 15.29 3.78999 15.19 4.04999C15.1509 4.13284 15.1305 4.22334 15.1305 4.31499C15.1305 4.40663 15.1509 4.49713 15.19 4.57999C15.2728 4.73146 15.3934 4.85893 15.54 4.94999C15.72 5.06999 15.96 5.12999 16.11 5.22999C16.4071 5.42888 16.6591 5.68777 16.85 5.98999C16.9392 6.10064 16.998 6.23256 17.0208 6.3728C17.0436 6.51304 17.0295 6.6568 16.98 6.78999C16.9163 6.91064 16.8317 7.01899 16.73 7.10999C16.6159 7.20338 16.4918 7.28387 16.36 7.34999C16.2108 7.39891 16.0667 7.46256 15.93 7.53999C15.8741 7.57142 15.8255 7.61445 15.7876 7.66619C15.7496 7.71793 15.7232 7.77719 15.71 7.83999C15.7021 7.94133 15.7148 8.04324 15.7475 8.1395C15.7802 8.23577 15.8321 8.32439 15.9 8.39999C16.11 8.65999 16.54 8.98999 16.62 9.19999C16.6775 9.34064 16.6976 9.49377 16.6783 9.64447C16.659 9.79518 16.6011 9.93833 16.51 10.06C16.1079 10.4889 15.6209 10.8294 15.08 11.06C15.043 11.0781 15.0099 11.1033 14.9827 11.1343C14.9556 11.1654 14.9349 11.2015 14.9218 11.2406C14.9088 11.2797 14.9037 11.321 14.9068 11.3621C14.9099 11.4032 14.9212 11.4433 14.94 11.48C14.9785 11.5555 15.0454 11.6127 15.1261 11.639C15.2067 11.6652 15.2944 11.6584 15.37 11.62C16.0022 11.3719 16.5773 10.9976 17.06 10.52C17.2333 10.3119 17.3479 10.0612 17.3918 9.794C17.4358 9.52677 17.4076 9.25264 17.31 8.99999C17.2043 8.64137 17.0387 8.30326 16.82 7.99999C16.9773 7.92443 17.125 7.83044 17.26 7.71999C17.4488 7.57348 17.6054 7.38966 17.72 7.17999C17.8288 6.96804 17.8856 6.73323 17.8856 6.49499C17.8856 6.25675 17.8288 6.02193 17.72 5.80999C17.4757 5.25319 17.0852 4.77289 16.59 4.41999L16.3 4.25999C16.4623 3.99169 16.5868 3.7023 16.67 3.39999C16.7792 2.99464 16.7999 2.57057 16.7309 2.1565C16.6619 1.74243 16.5047 1.34802 16.27 0.999986C16.0907 0.737062 15.8463 0.52514 15.5606 0.384922C15.2749 0.244704 14.9577 0.180984 14.64 0.199986C14.2554 0.21287 13.881 0.326876 13.5545 0.530521C13.2279 0.734165 12.9608 1.02026 12.78 1.35999C12.4482 2.20883 12.2231 3.09563 12.11 3.99999C11.921 4.86509 11.6289 5.70441 11.24 6.49999C10.8701 7.27513 10.3579 7.9739 9.73003 8.55999C9.55003 8.71999 9.14003 9.11999 8.73003 9.47999C8.53781 9.64449 8.33394 9.79488 8.12003 9.92999C7.68665 9.47715 7.2036 9.0746 6.68003 8.72999C6.81002 7.78778 6.81002 6.83219 6.68003 5.88999C6.56532 5.17048 6.28832 4.48654 5.87003 3.88999C5.56003 3.46999 4.87003 2.93999 4.47003 2.34999C4.37237 2.25159 4.29964 2.13128 4.25789 1.99908C4.21614 1.86689 4.20659 1.72662 4.23003 1.58999C4.25154 1.54212 4.28483 1.5005 4.32681 1.46902C4.36879 1.43754 4.41807 1.41723 4.47003 1.40999C4.6798 1.34232 4.89978 1.31186 5.12003 1.31999C5.59966 1.31778 6.07401 1.42016 6.51003 1.61999C6.64003 1.69999 6.66003 1.84999 6.71003 1.95999C6.7637 2.10128 6.83421 2.23558 6.92003 2.35999C6.96963 2.42956 7.03046 2.49039 7.10003 2.53999C7.21905 2.6306 7.3611 2.68603 7.51003 2.69999C7.7746 2.70264 8.03891 2.68257 8.30003 2.63999C8.51227 2.64206 8.72235 2.68272 8.92003 2.75999C9.11196 2.84096 9.28546 2.96003 9.43003 3.10999C9.51036 3.20762 9.57143 3.3196 9.61003 3.43999C9.65427 3.56508 9.67462 3.69738 9.67003 3.82999C9.67003 3.89999 9.56003 4.16999 9.55003 4.33999C9.53773 4.41153 9.54026 4.48484 9.55747 4.55537C9.57467 4.6259 9.60617 4.69214 9.65003 4.74999C9.68262 4.78325 9.72152 4.80967 9.76445 4.82771C9.80737 4.84575 9.85347 4.85504 9.90003 4.85504C9.9466 4.85504 9.99269 4.84575 10.0356 4.82771C10.0785 4.80967 10.1174 4.78325 10.15 4.74999C10.15 4.74999 10.33 4.66999 10.43 3.84999C10.4494 3.62486 10.4291 3.39809 10.37 3.17999C10.2822 2.97808 10.1566 2.7948 10 2.63999C9.80299 2.37144 9.54624 2.15234 9.25003 1.99999C8.74972 1.77861 8.20703 1.66939 7.66003 1.67999C7.614 1.51367 7.5503 1.35275 7.47003 1.19999C7.37903 1.01713 7.24096 0.861802 7.07003 0.749986C6.34825 0.344572 5.52694 0.150505 4.70003 0.189986C4.33794 0.169232 3.97855 0.263471 3.67323 0.459235C3.36791 0.654999 3.13229 0.942268 3.00003 1.27999C2.92496 1.52706 2.90485 1.78757 2.94113 2.04324C2.97741 2.29891 3.06919 2.54355 3.21003 2.75999C3.75539 3.41815 4.35409 4.03022 5.00003 4.58999C5.37091 5.0293 5.64062 5.54481 5.79003 6.09999C5.96659 6.87351 6.03723 7.66744 6.00003 8.45999C5.89907 8.42719 5.7953 8.40376 5.69003 8.38999C5.11801 8.32303 4.53827 8.39507 4.00003 8.59999C3.48811 8.76951 3.03895 9.08898 2.71084 9.51694C2.38274 9.9449 2.19083 10.4616 2.16003 11C2.16736 11.4753 2.2839 11.9426 2.50064 12.3657C2.71739 12.7888 3.02854 13.1563 3.41003 13.44C3.40505 13.5132 3.40505 13.5867 3.41003 13.66C3.42298 13.876 3.45647 14.0903 3.51003 14.3L3.65003 14.87C3.71203 15.2003 3.8892 15.498 4.15003 15.71C4.37003 15.82 4.68003 15.86 5.01003 15.43L5.22003 15.11L6.00003 14C6.0428 13.925 6.05722 13.8372 6.04064 13.7525C6.02407 13.6678 5.97762 13.5918 5.90976 13.5385C5.84189 13.4852 5.75713 13.458 5.67091 13.462C5.58469 13.4659 5.50275 13.5007 5.44003 13.56L4.60003 14.75L4.52003 14.87C4.4874 14.8199 4.46056 14.7662 4.44003 14.71L4.32003 14.16C4.32003 14.02 4.32003 13.87 4.26003 13.72C4.24008 13.6008 4.24008 13.4792 4.26003 13.36C4.26601 13.2923 4.25548 13.2242 4.22935 13.1615C4.20323 13.0988 4.16228 13.0434 4.11003 13C3.80594 12.7886 3.55661 12.5079 3.3827 12.1809C3.2088 11.854 3.11532 11.4903 3.11003 11.12C3.13099 10.7733 3.25703 10.4411 3.4714 10.1678C3.68577 9.89451 3.97829 9.69295 4.31003 9.58999C4.70315 9.44637 5.12558 9.40172 5.54003 9.45999C5.92778 9.54491 6.2782 9.75165 6.54003 10.05C6.68003 10.2 7.03003 10.67 7.30003 10.91C7.44789 11.0626 7.64054 11.1642 7.85003 11.2C8.27239 11.1722 8.67503 11.0111 9.00003 10.74C9.54251 10.3379 10.0632 9.9073 10.56 9.44999C11.2943 8.75241 11.8883 7.92079 12.31 6.99999C12.7551 6.12438 13.0909 5.19744 13.31 4.23999C13.3896 3.43787 13.5676 2.6486 13.84 1.88999C13.9287 1.71792 14.0616 1.57258 14.225 1.46889C14.3885 1.36519 14.5766 1.3069 14.77 1.29999C15.09 1.29999 15.35 1.57999 15.52 1.89999Z" fill="black"/>
<path d="M24 15.19C23.8623 14.1611 23.5969 13.1533 23.21 12.19C23.0987 11.8783 22.9252 11.5925 22.7 11.35C22.4784 11.1668 22.2064 11.0552 21.92 11.03C21.4366 11.0327 20.9556 11.1 20.49 11.23C19.7976 11.4251 19.0926 11.5721 18.38 11.67C17.9448 11.7062 17.5077 11.6304 17.11 11.45C17.0258 11.4216 16.9342 11.4253 16.8526 11.4604C16.771 11.4955 16.7052 11.5596 16.668 11.6402C16.6308 11.7209 16.6247 11.8125 16.6509 11.8973C16.6771 11.9822 16.7338 12.0544 16.81 12.1C17.3018 12.3514 17.8477 12.4784 18.4 12.47C19.1565 12.4154 19.9083 12.3084 20.65 12.15C20.937 12.0885 21.2276 12.0451 21.52 12.02C22.1 12.02 22.06 12.23 22.13 12.41C22.3465 13.0316 22.5235 13.6662 22.66 14.31C23.15 16.31 22.66 16.47 21.78 16.4C20.63 16.31 19.41 15.66 18.34 15.79C18.1339 15.8135 17.9392 15.8969 17.78 16.03C17.5992 16.2389 17.4322 16.4594 17.28 16.69C17.0408 16.9542 16.7835 17.2014 16.51 17.43C16.2455 17.66 15.9572 17.8611 15.65 18.03L14.54 18.52C14.501 18.5334 14.4651 18.5545 14.4344 18.582C14.4036 18.6095 14.3787 18.6428 14.361 18.6801C14.3433 18.7173 14.3332 18.7577 14.3313 18.7989C14.3294 18.8401 14.3358 18.8813 14.35 18.92C14.3752 18.9982 14.4305 19.0632 14.5036 19.1007C14.5767 19.1382 14.6618 19.1452 14.74 19.12L15.96 18.67C16.3132 18.5011 16.6482 18.2967 16.96 18.06C17.283 17.8311 17.5873 17.577 17.87 17.3C18.0069 17.1554 18.1338 17.0017 18.25 16.84C18.2819 16.7962 18.3278 16.7645 18.38 16.75C18.8902 16.7704 19.3921 16.8857 19.86 17.09C20.4313 17.3146 21.0246 17.4788 21.63 17.58C22.2511 17.655 22.8796 17.5251 23.42 17.21C23.5514 17.1237 23.6641 17.012 23.7517 16.8815C23.8393 16.7509 23.8999 16.6043 23.93 16.45C24.0216 16.0366 24.0452 15.611 24 15.19Z" fill="black"/>
</g>
<defs>
<clipPath id="clip0_1032_3327">
<rect width="24" height="24" fill="white"/>
</clipPath>
</defs>
</svg>
