<svg width="24" height="24" viewBox="0 0 24 24" fill="none" xmlns="http://www.w3.org/2000/svg">
<g clip-path="url(#clip0_1032_3321)">
<path d="M20.37 0.590013L15.07 1.34669e-05C12.42 -0.169987 9.92001 0.220013 7.34001 0.300013C3.34001 0.420013 4.22001 1.72001 4.24001 3.82001C4.24001 8.03001 3.92001 10.16 4.65001 10.09C5.10001 10.04 4.86001 9.70001 4.88001 7.98001C4.88001 6.60001 5.02001 5.22001 5.05001 3.83001C5.05001 1.67001 4.28001 1.27001 7.35001 1.27001C9.89001 1.27001 12.52 0.970013 14.98 1.18001C22.65 1.95001 21.23 1.76001 21.55 1.82001C21.704 2.39357 21.738 2.99271 21.65 3.58001C21.5 10.22 21.43 3.86001 21.65 17.85C21.65 17.95 21.71 22.99 21.65 22.67C21.4925 22.8223 21.2947 22.9264 21.08 22.97C19.29 23.49 18.33 22.88 18.21 23.48C18.09 24.08 18.64 23.96 19.09 23.96C22.9 23.96 22.45 22.74 22.5 21.69C22.72 3.15001 22.64 9.55001 22.66 8.16001L22.87 3.64001C23 0.350013 22.27 0.760013 20.37 0.590013Z" fill="black"/>
<path d="M15.08 5.55001C18.92 5.26001 19.27 5.10001 19.22 4.69001C19.17 4.28001 19.15 4.39001 14.93 4.40001H12.32C7.88 4.61001 7.65 4.70001 7.65 5.05001C7.64371 5.09791 7.64835 5.14661 7.66356 5.19246C7.67877 5.23831 7.70417 5.28012 7.73784 5.31475C7.77151 5.34939 7.81259 5.37595 7.858 5.39245C7.9034 5.40895 7.95195 5.41495 8 5.41001C10.3525 5.64609 12.7201 5.6929 15.08 5.55001Z" fill="black"/>
<path d="M7.21002 8.64001C7.21002 9.75001 18.33 8.80001 18.46 8.83C18.5475 8.83622 18.6343 8.8112 18.705 8.75938C18.7757 8.70757 18.8257 8.63234 18.8461 8.54709C18.8665 8.46185 18.856 8.37212 18.8164 8.2939C18.7768 8.21569 18.7108 8.15406 18.63 8.12C16.44 7.46 7.63002 8.33 7.54002 8.33C7.49799 8.32867 7.45611 8.33563 7.41678 8.35049C7.37744 8.36536 7.34142 8.38782 7.31077 8.41661C7.28013 8.4454 7.25545 8.47995 7.23817 8.51828C7.22088 8.55661 7.21131 8.59798 7.21002 8.64001Z" fill="black"/>
<path d="M15.74 11.77C15.07 11.19 9.37002 11.41 8.49002 11.45C5.43002 11.6 2.36002 12.03 1.49002 12.68C1.35649 12.7892 1.26467 12.941 1.23002 13.11C1.13527 13.7353 1.09511 14.3677 1.11002 15C1.09059 17.6046 1.21077 20.2083 1.47002 22.8C1.48476 22.8841 1.53155 22.9593 1.60055 23.0096C1.66956 23.06 1.7554 23.0816 1.84002 23.07C2.31002 22.99 1.94002 22.89 1.94002 17.91C1.94002 16.44 1.94002 14.99 2.06002 14.08C3.12002 14.88 4.93002 16.22 6.46002 17.14C9.03002 18.68 9.39002 18.5 11.4 16.85C12.7101 15.7596 13.9338 14.5694 15.06 13.29C15.2239 14.3017 15.3041 15.3251 15.3 16.35C15.3501 18.2369 15.2666 20.1249 15.05 22C14.25 22 14.37 22.13 7.57002 22.59C2.12002 22.97 1.94002 22.75 1.95002 23.26C1.96002 23.77 1.59002 23.86 12.95 23.19C16 23 16 23.13 16.19 21.92C16.4132 20.0451 16.52 18.1581 16.51 16.27C16.51 15.21 16.5 12.44 15.74 11.77ZM11.94 15C11.0312 15.7422 10.0648 16.411 9.05002 17C8.41002 17 2.84002 13.72 2.29002 13.39C4.12002 12.54 12.35 12.57 14.48 12.76C13.676 13.5536 12.828 14.3015 11.94 15Z" fill="black"/>
</g>
<defs>
<clipPath id="clip0_1032_3321">
<rect width="24" height="24" fill="white"/>
</clipPath>
</defs>
</svg>
