<svg width="24" height="24" viewBox="0 0 24 24" fill="none" xmlns="http://www.w3.org/2000/svg">
<g clip-path="url(#clip0_1047_6095)">
<path fill-rule="evenodd" clip-rule="evenodd" d="M2.63999 13.11C2.84629 13.2933 3.09389 13.4239 3.36163 13.4908C3.62937 13.5576 3.90931 13.5586 4.17754 13.4938C4.44577 13.4289 4.69432 13.3001 4.90197 13.1184C5.10962 12.9366 5.2702 12.7073 5.36999 12.45C5.85999 11.27 4.99999 9.36004 3.42999 9.88004C1.99999 10.34 1.32999 12.15 2.63999 13.11ZM3.40999 10.82C4.23999 10.02 4.89999 11.24 4.47999 12.03C4.05999 12.82 2.99999 12.23 2.99999 11.63C3.03905 11.3208 3.18391 11.0346 3.40999 10.82Z" fill="black"/>
<path fill-rule="evenodd" clip-rule="evenodd" d="M2.68999 15.89C2.44488 16.0716 2.24454 16.3068 2.1043 16.5777C1.96407 16.8486 1.88765 17.1479 1.88089 17.4529C1.87414 17.7578 1.93722 18.0603 2.06533 18.3371C2.19343 18.6139 2.38316 18.8578 2.61999 19.05C2.93422 19.2556 3.30279 19.3623 3.67822 19.3565C4.05364 19.3506 4.41872 19.2325 4.72642 19.0173C5.03412 18.8022 5.27034 18.4998 5.40465 18.1492C5.53896 17.7985 5.5652 17.4157 5.47999 17.05C5.10999 15.78 3.90999 15 2.68999 15.89ZM2.99999 17.43C2.99999 16.31 4.32999 15.43 4.71999 17.12C4.99999 18.33 2.99999 18.76 2.99999 17.43Z" fill="black"/>
<path fill-rule="evenodd" clip-rule="evenodd" d="M11.53 16C10.78 15.17 10.33 18.61 10.33 19C10.3248 19.2604 10.4018 19.5158 10.55 19.73C10.86 20.13 11.35 19.95 11.8 19.79C12.45 19.55 14.13 19.24 14.01 18.23C13.81 16.74 12.2 16.69 11.53 16ZM11.27 18.8C11.27 16.59 11.38 16.8 11.38 16.8C12.85 17.74 12.9 17.93 12.94 18.2C12.3712 18.3722 11.8135 18.5793 11.27 18.82V18.8Z" fill="black"/>
<path fill-rule="evenodd" clip-rule="evenodd" d="M24 19.82C24 8.31001 24 8.89001 23.92 8.45001C23.72 7.78001 23.22 7.60001 22.52 7.55001C20.8541 7.44726 19.1829 7.46731 17.52 7.61001C16.43 7.88001 16.72 8.95001 16.7 9.97001V11.64C14.46 11.73 13.3 11.35 10.24 11.48L7.53999 11.61C7.53999 8.43001 7.95999 7.39001 6.12999 7.26001C5.69999 7.26001 1.32999 7.38001 0.919994 7.49001C-5.60284e-06 7.76001 0.239994 8.84001 0.159994 9.64001C-0.0745717 13.3263 -0.0745717 17.0237 0.159994 20.71C0.229994 22.27 0.159994 22.13 0.339994 22.34C0.519994 22.55 -1.00001 22.42 13.84 22.17C19.37 22.56 18.03 22.46 20.05 22.32C23.68 22.08 22.77 22.22 23.14 22.17C24.26 22 24 20.88 24 19.82ZM14.47 12.56C14.55 12.74 14.7 12.77 14.64 14.05H13.81C13.47 14.05 9.29999 14.3 9.10999 14.05C9.01462 13.5411 9.01462 13.0189 9.10999 12.51C10.8796 12.6594 12.6579 12.6761 14.43 12.56H14.47ZM6.34999 21.4C6.10999 21.4 5.71999 21.29 5.65999 21.29H0.949994C0.949994 21.02 0.749994 19.9 0.779994 16.88C0.879994 8.08001 1.77999 8.69001 1.30999 8.42001C1.47999 8.42001 1.76999 8.50001 1.87999 8.49001C3.38434 8.38005 4.89432 8.37003 6.39999 8.46001C6.47999 9.28001 6.34999 11.35 6.34999 21.4ZM7.20999 21.4C7.20999 21.32 7.20999 22.22 7.50999 12.26L8.39999 12.36C8.23349 13.0142 8.213 13.697 8.33999 14.36C8.91999 15.48 12.49 15.18 13.9 14.96C14.11 14.96 14.55 14.96 14.85 14.9C15.57 14.78 15.53 14.43 15.45 13.9C15.4354 13.4065 15.3478 12.9179 15.19 12.45C15.7 12.45 16.19 12.35 16.7 12.27C16.7 12.87 17.03 20.95 17.08 21.41C14.61 21.34 12.33 20.61 7.20999 21.43V21.4ZM23 21.33L20 21.58C18.47 21.79 18 21.77 17.91 21.58C17.7359 21.0262 17.6416 20.4504 17.63 19.87C17.63 13.58 17.58 11.79 17.63 10.02C17.63 9.81001 17.98 8.96001 17.78 8.69001C19.2235 8.55492 20.6765 8.55492 22.12 8.69001C22.2953 8.68413 22.4706 8.70435 22.64 8.75001C22.44 8.92001 22.74 9.49001 22.75 9.69001L22.98 19.84C23.07 20.05 22.75 21.1 23 21.33Z" fill="black"/>
<path fill-rule="evenodd" clip-rule="evenodd" d="M18.79 11C18.6347 11.1812 18.5206 11.3939 18.4555 11.6236C18.3904 11.8532 18.3759 12.0942 18.4129 12.3299C18.45 12.5657 18.5378 12.7906 18.6702 12.9891C18.8027 13.1877 18.9766 13.3551 19.18 13.48C19.6137 13.7117 20.1175 13.7755 20.5952 13.6593C21.073 13.5431 21.4912 13.255 21.77 12.85C23.11 10.93 20.23 9.07996 18.79 11ZM21 12.22C20.27 13.05 19 12.44 19.56 11.49C19.6288 11.3113 19.7534 11.1597 19.9152 11.0574C20.077 10.9552 20.2675 10.9079 20.4584 10.9225C20.6492 10.9371 20.8303 11.0128 20.9747 11.1385C21.1191 11.2641 21.2191 11.433 21.26 11.62C21.264 11.733 21.2428 11.8456 21.1978 11.9494C21.1528 12.0532 21.0853 12.1456 21 12.22Z" fill="black"/>
<path fill-rule="evenodd" clip-rule="evenodd" d="M19.08 17.08C18.8336 17.2952 18.6678 17.5878 18.61 17.9097C18.5521 18.2317 18.6055 18.5637 18.7615 18.8513C18.9175 19.1388 19.1667 19.3646 19.4681 19.4916C19.7696 19.6186 20.1053 19.6392 20.42 19.55C20.8076 19.4748 21.1533 19.258 21.3899 18.9419C21.6265 18.6259 21.737 18.2331 21.7 17.84C21.48 16 19.32 16.88 19.08 17.08ZM20.77 18.18C20.63 18.43 20.01 18.64 19.77 18.32C19.6934 18.2369 19.6509 18.128 19.6509 18.015C19.6509 17.902 19.6934 17.7931 19.77 17.71C20.08 17.28 21 17.79 20.77 18.18Z" fill="black"/>
<path fill-rule="evenodd" clip-rule="evenodd" d="M2.20999 5.54001C2.62999 5.54001 2.69999 4.45001 3.96999 4.90001C4.24254 4.96582 4.48536 5.12065 4.65999 5.34001C4.70143 5.41306 4.76844 5.4682 4.84811 5.49479C4.92779 5.52137 5.01448 5.51753 5.09149 5.48399C5.16849 5.45046 5.23036 5.38961 5.26517 5.31317C5.29997 5.23673 5.30526 5.15011 5.27999 5.07001C5.2045 4.76347 5.05262 4.48104 4.83853 4.24904C4.62444 4.01704 4.35509 3.84301 4.0556 3.74318C3.75611 3.64335 3.43622 3.62096 3.12574 3.67811C2.81527 3.73526 2.52431 3.87008 2.27999 4.07001C2.10793 4.20492 1.976 4.38429 1.89845 4.58873C1.82091 4.79317 1.80069 5.01491 1.83999 5.23001C1.83711 5.27687 1.84527 5.32376 1.86381 5.3669C1.88236 5.41004 1.91077 5.44822 1.94676 5.47838C1.98275 5.50853 2.02532 5.52982 2.07104 5.54052C2.11676 5.55123 2.16436 5.55105 2.20999 5.54001Z" fill="black"/>
<path fill-rule="evenodd" clip-rule="evenodd" d="M18.6 5.53997C18.6793 5.53155 18.7534 5.49627 18.81 5.43997C19.95 4.57997 20.74 4.84997 21.06 5.33997C21.1014 5.41303 21.1684 5.46816 21.2481 5.49475C21.3278 5.52133 21.4145 5.51749 21.4915 5.48395C21.5685 5.45042 21.6304 5.38957 21.6652 5.31313C21.7 5.23669 21.7052 5.15007 21.68 5.06997C21.13 3.06997 18.06 3.37997 18.27 5.27997C18.28 5.35788 18.3202 5.42876 18.3819 5.47737C18.4436 5.52599 18.5219 5.54846 18.6 5.53997Z" fill="black"/>
<path fill-rule="evenodd" clip-rule="evenodd" d="M0.609993 4.70998C0.819993 2.78998 4.13999 1.75998 5.99999 3.86998C6.05436 3.94291 6.13548 3.99126 6.2255 4.00439C6.31551 4.01752 6.40706 3.99435 6.47999 3.93998C6.55293 3.88561 6.60128 3.8045 6.6144 3.71448C6.62753 3.62446 6.60436 3.53291 6.54999 3.45998C6.31031 3.00285 5.9733 2.60383 5.5627 2.29106C5.1521 1.97829 4.6779 1.75937 4.17353 1.64972C3.66915 1.54007 3.14686 1.54237 2.64347 1.65645C2.14008 1.77053 1.66783 1.99361 1.25999 2.30998C-0.490007 3.79998 -7.03335e-06 6.18998 0.609993 4.70998Z" fill="black"/>
<path fill-rule="evenodd" clip-rule="evenodd" d="M17.08 4.29C17.89 2.45 20.79 2.04 22.4 3.87C22.4569 3.93407 22.5358 3.97432 22.6211 3.98268C22.7064 3.99104 22.7916 3.9669 22.8599 3.91509C22.9281 3.86329 22.9743 3.78762 22.9891 3.70325C23.004 3.61887 22.9864 3.53199 22.94 3.46C21.41 0.999995 18.38 0.999995 17 3L16.68 3.56C16.17 4.78 17.08 4.29 17.08 4.29Z" fill="black"/>
</g>
<defs>
<clipPath id="clip0_1047_6095">
<rect width="24" height="24" fill="white"/>
</clipPath>
</defs>
</svg>
