<svg width="24" height="24" viewBox="0 0 24 24" fill="none" xmlns="http://www.w3.org/2000/svg">
<g clip-path="url(#clip0_1047_6084)">
<path fill-rule="evenodd" clip-rule="evenodd" d="M23.89 12.05C23.9299 11.2655 23.8694 10.4792 23.71 9.71002C23.649 9.33877 23.5151 8.98327 23.316 8.66403C23.1169 8.34479 22.8565 8.06814 22.55 7.85002C22.4211 7.78203 22.2748 7.75417 22.13 7.77002C21.8613 7.83703 21.6 7.93083 21.35 8.05002L19.18 9.05002C18.946 9.15876 18.7247 9.2929 18.52 9.45002C18.3894 9.56933 18.2928 9.72117 18.24 9.89002C18.1959 10.0943 18.1959 10.3057 18.24 10.51C18.31 10.77 18.45 11.07 18.49 11.25C18.65 11.91 18.92 12.86 19.14 13.75C19.0458 13.7195 18.9486 13.6994 18.85 13.69C18.3417 13.8133 17.8648 14.0415 17.45 14.36C17.2544 14.5373 17.1007 14.756 17 15C16.8904 15.2685 16.8681 15.5646 16.9363 15.8464C17.0045 16.1282 17.1597 16.3814 17.38 16.57C17.5913 16.752 17.8438 16.8799 18.1156 16.9426C18.3873 17.0053 18.6703 17.001 18.94 16.93C19.313 16.8124 19.6411 16.5838 19.8806 16.2746C20.12 15.9654 20.2594 15.5905 20.28 15.2C20.28 14.8878 20.1897 14.5822 20.02 14.32L19.61 11.07C19.48 10 19.34 10.4 19.76 10.17L21.87 9.17002C21.87 9.17002 22 9.00002 22.13 9.00002C22.4245 9.26839 22.6361 9.61535 22.74 10C22.8603 10.4124 22.9473 10.8337 23 11.26C22.8587 11.208 22.7104 11.1776 22.56 11.17C22.3676 11.2105 22.1799 11.2708 22 11.35C21.6872 11.4558 21.3983 11.6224 21.15 11.84C20.9556 12.0083 20.8047 12.221 20.71 12.46C20.6065 12.7262 20.5895 13.0182 20.6613 13.2946C20.7331 13.571 20.8901 13.8178 21.11 14C21.3195 14.1851 21.5719 14.3149 21.8444 14.3778C22.1168 14.4407 22.4005 14.4345 22.67 14.36C23.0357 14.2444 23.3582 14.0214 23.5955 13.72C23.8327 13.4186 23.9736 13.0527 24 12.67C23.9984 12.4586 23.9613 12.249 23.89 12.05ZM18.63 15.69C18.5558 15.7097 18.4784 15.7136 18.4026 15.7016C18.3268 15.6895 18.2544 15.6617 18.19 15.62C18.07 15.53 17.94 15.43 17.97 15.27C17.9923 15.1197 18.0544 14.9781 18.15 14.86C18.96 13.92 19.25 14.86 19.26 14.93C19.2692 15.1126 19.2096 15.2919 19.0929 15.4326C18.9763 15.5734 18.8111 15.6652 18.63 15.69ZM22.34 13.16C22.2647 13.184 22.1848 13.1902 22.1067 13.178C22.0287 13.1659 21.9544 13.1358 21.89 13.09C21.78 13.01 21.65 12.91 21.68 12.74C21.6997 12.589 21.7622 12.4468 21.86 12.33C22.68 11.4 22.96 12.33 22.97 12.4C22.9769 12.582 22.9165 12.7602 22.8002 12.9004C22.684 13.0406 22.5201 13.1331 22.34 13.16Z" fill="black"/>
<path fill-rule="evenodd" clip-rule="evenodd" d="M17.39 4.77003C17.53 4.21003 17.6 3.71003 17.82 2.89003C17.88 2.64003 17.93 2.31003 18 1.98003L18.84 2.63003C19.26 3.01003 19.54 3.29003 19.58 3.63003C19.5666 4.08226 19.4128 4.51911 19.14 4.88003C19.1123 4.92115 19.0931 4.96741 19.0837 5.01608C19.0742 5.06474 19.0746 5.11482 19.0849 5.16332C19.0951 5.21183 19.115 5.25778 19.1434 5.29844C19.1718 5.3391 19.208 5.37365 19.25 5.40003C19.2906 5.42916 19.3369 5.44951 19.3858 5.45977C19.4348 5.47004 19.4853 5.46999 19.5342 5.45964C19.5832 5.44929 19.6294 5.42887 19.67 5.39966C19.7106 5.37046 19.7446 5.33312 19.77 5.29003C20.1821 4.80543 20.4182 4.19575 20.44 3.56003C20.3556 2.90933 20.031 2.31369 19.53 1.89003L18.4 0.900027L18.08 0.650027C17.9533 0.571023 17.8031 0.538775 17.6551 0.558862C17.5072 0.578949 17.371 0.650108 17.27 0.760027C17.1317 0.948797 17.0238 1.15798 16.95 1.38003C16.8 1.77003 16.71 2.25003 16.61 2.56003C16.35 3.56003 16.28 4.06003 16.08 4.77003C16.01 5.02003 15.94 5.29003 15.83 5.61003C15.8334 5.52882 15.8067 5.44922 15.755 5.38648C15.7033 5.32374 15.6303 5.28227 15.55 5.27003C15.3603 5.25521 15.1697 5.25521 14.98 5.27003C14.7908 5.24531 14.5992 5.24531 14.41 5.27003C14.1998 5.30009 13.9991 5.37759 13.8233 5.49664C13.6474 5.6157 13.501 5.77321 13.395 5.95723C13.289 6.14126 13.2263 6.34698 13.2116 6.55883C13.1968 6.77068 13.2305 6.98311 13.31 7.18003C13.3589 7.39216 13.4501 7.59226 13.5782 7.76835C13.7062 7.94445 13.8684 8.09294 14.055 8.20495C14.2417 8.31696 14.4491 8.3902 14.6647 8.42028C14.8803 8.45036 15.0998 8.43667 15.31 8.38003C15.731 8.21468 16.0835 7.91152 16.31 7.52003C16.592 7.06319 16.8233 6.57699 17 6.07003C17.19 5.54003 17.31 5.14003 17.39 4.77003ZM15.39 6.90003C15.307 7.08246 15.1711 7.23575 15 7.34003C14.65 7.49003 14.35 7.20003 14.23 6.89003C14.1838 6.81049 14.1562 6.72153 14.1492 6.62982C14.1423 6.5381 14.1561 6.44599 14.1898 6.36039C14.2234 6.27479 14.276 6.19791 14.3436 6.13551C14.4112 6.0731 14.492 6.02679 14.58 6.00003C14.7166 5.95789 14.8575 5.93106 15 5.92003C15.1465 5.91015 15.2935 5.91015 15.44 5.92003C15.5037 5.93133 15.5694 5.92304 15.6283 5.89626C15.6872 5.86948 15.7366 5.82547 15.77 5.77003C15.6712 6.16076 15.5304 6.53963 15.35 6.90003H15.39Z" fill="black"/>
<path fill-rule="evenodd" clip-rule="evenodd" d="M5.16999 9.68997C4.97361 9.67496 4.77637 9.67496 4.57999 9.68997L3.99999 9.74997C2.30999 10.07 2.35999 10.25 2.35999 10.42C2.35999 10.59 2.21999 10.94 4.26999 10.97C4.57853 10.9731 4.88664 10.9463 5.18999 10.89C6.71999 10.66 6.90999 10.57 6.90999 10.26C6.90999 9.94997 6.74999 9.78997 5.16999 9.68997Z" fill="black"/>
<path fill-rule="evenodd" clip-rule="evenodd" d="M5.16999 11.9401C4.97361 11.9251 4.77637 11.9251 4.57999 11.9401C4.38538 11.9448 4.19145 11.9648 3.99999 12.0001C2.30999 12.3201 2.35999 12.4901 2.35999 12.6601C2.35999 12.8301 2.21999 13.1801 4.26999 13.2201C4.57806 13.2133 4.88537 13.1866 5.18999 13.1401C6.71999 12.9101 6.90999 12.8101 6.90999 12.5001C6.90999 12.1901 6.74999 12.0001 5.16999 11.9401Z" fill="black"/>
<path fill-rule="evenodd" clip-rule="evenodd" d="M5.16999 14.18C4.97361 14.1649 4.77637 14.1649 4.57999 14.18L3.99999 14.24C2.30999 14.56 2.35999 14.74 2.35999 14.91C2.35999 15.08 2.21999 15.43 4.26999 15.46C4.57853 15.4631 4.88664 15.4363 5.18999 15.38C6.71999 15.16 6.90999 15.06 6.90999 14.75C6.90999 14.44 6.74999 14.28 5.16999 14.18Z" fill="black"/>
<path fill-rule="evenodd" clip-rule="evenodd" d="M11.37 14.18C11.177 14.1649 10.983 14.1649 10.79 14.18C10.5957 14.1895 10.4021 14.2096 10.21 14.24C8.52001 14.56 8.57001 14.74 8.57001 14.91C8.57001 15.08 8.44001 15.43 10.49 15.46C10.7952 15.4631 11.1 15.4363 11.4 15.38C12.93 15.16 13.13 15.06 13.13 14.75C13.13 14.44 13 14.28 11.37 14.18Z" fill="black"/>
<path fill-rule="evenodd" clip-rule="evenodd" d="M5.17 16.4301C4.97362 16.4151 4.77638 16.4151 4.58 16.4301C4.38848 16.4386 4.1979 16.462 4.01 16.5001C2.32 16.8201 2.37 16.9901 2.37 17.1601C2.37 17.3301 2.23 17.6801 4.28 17.7201C4.58807 17.7133 4.89538 17.6865 5.2 17.6401C6.73 17.4101 6.92 17.3101 6.92 17.0001C6.92 16.6901 6.75 16.5201 5.17 16.4301Z" fill="black"/>
<path fill-rule="evenodd" clip-rule="evenodd" d="M11.37 16.43C11.177 16.4149 10.983 16.4149 10.79 16.43C10.5951 16.4379 10.4012 16.4614 10.21 16.5C8.52001 16.82 8.57001 16.99 8.57001 17.16C8.57001 17.33 8.44001 17.68 10.49 17.72C10.7948 17.7132 11.0987 17.6865 11.4 17.64C12.93 17.41 13.13 17.31 13.13 17C13.13 16.69 13 16.52 11.37 16.43Z" fill="black"/>
<path fill-rule="evenodd" clip-rule="evenodd" d="M14.57 9.71001C14.5266 9.71256 14.4842 9.72364 14.4451 9.74263C14.4061 9.76161 14.3711 9.78812 14.3423 9.82064C14.3135 9.85316 14.2914 9.89104 14.2773 9.93212C14.2632 9.9732 14.2573 10.0167 14.26 10.06L14 17C14 18.2 13.9 19.41 13.88 20.63C13.88 21.26 13.88 21.88 13.94 22.51C12.49 22.59 11.04 22.66 9.59 22.71C8.14 22.76 6.59 22.77 5.09 22.71C4.32143 22.7202 3.5539 22.6498 2.8 22.5C2.36535 22.4142 1.96146 22.214 1.63 21.92C1.55307 21.8225 1.50772 21.7039 1.5 21.58C1.5 21.34 1.45 21.08 1.41 20.86C1.33692 20.353 1.29352 19.8421 1.28 19.33V16.95L1.21 8.00001C1.21 6.46001 1.3 4.93001 1.31 3.40001V1.40001C1.67 1.40001 2.04 1.48001 2.4 1.49001H3.23C3.18538 1.54419 3.15757 1.61023 3.15 1.68001C3.113 2.06287 3.17656 2.44876 3.3344 2.79953C3.49225 3.1503 3.73891 3.45379 4.05 3.68001C4.97716 4.21383 6.03019 4.49004 7.1 4.48001C7.7042 4.49386 8.30868 4.47048 8.91 4.41001C9.58079 4.34516 10.2259 4.11869 10.79 3.75001C11.1316 3.4902 11.4155 3.16228 11.6238 2.78702C11.8321 2.41177 11.9602 1.99735 12 1.57001C12.0347 1.4799 12.0347 1.38013 12 1.29001C12.232 1.25843 12.4658 1.24173 12.7 1.24001C13.2203 1.1691 13.7497 1.26726 14.21 1.52001C14.31 1.60001 14.27 1.80001 14.27 2.00001C14.27 2.20001 14.22 2.70001 14.22 2.89001C14.22 2.99079 14.26 3.08745 14.3313 3.15871C14.4026 3.22998 14.4992 3.27001 14.6 3.27001C14.7008 3.27001 14.7974 3.22998 14.8687 3.15871C14.94 3.08745 14.98 2.99079 14.98 2.89001C15.0479 2.46643 15.088 2.03884 15.1 1.61001C15.098 1.31254 14.9837 1.02681 14.78 0.810012C14.3195 0.469874 13.7712 0.26862 13.2 0.230012C12.0791 0.17189 10.9554 0.205335 9.84 0.330012L5.13 0.440012C4 0.530012 3 0.740012 1.89 0.740012C0.37 0.750012 0.71 0.0500119 0.57 3.42001C0.49 5.00001 0.33 6.48001 0.24 8.00001C0.15 9.52001 0.1 11 0.07 12.48C0.04 13.96 0 15.46 0 17V19.44C0.0264207 19.9993 0.0831707 20.5568 0.17 21.11C0.199651 21.5037 0.273448 21.8928 0.39 22.27C0.470013 22.5066 0.607449 22.7196 0.79 22.89C1.29128 23.3062 1.88996 23.5883 2.53 23.71C3.37553 23.8513 4.23376 23.9016 5.09 23.86C6.31 23.86 7.51 23.8 8.73 23.72C16.06 23.29 14.53 24.21 14.81 21.32C14.93 19.91 15.14 18.5 15.26 17.1C15.26 16.16 15.31 15.21 15.26 14.28C15.2 12.87 15.04 11.48 14.9 10.08C14.9029 9.9878 14.8702 9.898 14.8088 9.82915C14.7474 9.7603 14.6619 9.71765 14.57 9.71001ZM5.16 1.57001C6.1 1.57001 7.04 1.64001 7.99 1.65001C8.63 1.65001 9.27 1.65001 9.93 1.58001C10.28 1.58001 10.78 1.45001 11.33 1.37001C11.2798 1.70907 11.1528 2.03217 10.9587 2.31466C10.7646 2.59716 10.5085 2.83157 10.21 3.00001C9.75378 3.20397 9.25973 3.3096 8.76 3.31001H7.07H5.98C5.47978 3.31429 4.98474 3.20845 4.53 3.00001C4.30586 2.87888 4.11815 2.70006 3.98629 2.48205C3.85443 2.26405 3.78321 2.01477 3.78 1.76001C3.77243 1.69023 3.74462 1.62419 3.7 1.57001H5.16Z" fill="black"/>
</g>
<defs>
<clipPath id="clip0_1047_6084">
<rect width="24" height="24" fill="white"/>
</clipPath>
</defs>
</svg>
