<svg width="24" height="24" viewBox="0 0 24 24" fill="none" xmlns="http://www.w3.org/2000/svg">
<g clip-path="url(#clip0_1047_6080)">
<path fill-rule="evenodd" clip-rule="evenodd" d="M1.35999 14.66C1.35999 14.1 1.35999 13.54 1.30999 12.98C1.56943 13.0586 1.8332 13.122 2.09999 13.17C2.32532 13.2016 2.55248 13.2183 2.77999 13.22C3.00753 13.2186 3.23471 13.2019 3.45999 13.17C3.79999 13.17 4.12999 13.06 4.45999 12.99V15.26H5.79999V13.67C5.80495 13.5901 5.80495 13.5099 5.79999 13.43V12.99C6.0625 13.0697 6.32967 13.1332 6.59999 13.18C6.82528 13.2119 7.05246 13.2286 7.27999 13.23C7.50751 13.2283 7.73467 13.2116 7.95999 13.18C8.29999 13.18 8.62999 13.07 8.95999 13V15.23H10.38C10.38 14.63 10.32 14.03 10.27 13.43V13.07C10.6634 13.1917 11.0693 13.2689 11.48 13.3C11.8145 13.3175 12.15 13.2973 12.48 13.24C12.91 13.24 13.32 13.09 13.75 13.04C13.75 13.77 13.7 14.5 13.67 15.23H15V14.88V12.88C15.2628 12.9586 15.5299 13.0221 15.8 13.07C16.0264 13.0853 16.2536 13.0853 16.48 13.07C16.7064 13.0849 16.9336 13.0849 17.16 13.07C17.52 13.07 17.86 12.95 18.21 12.88V14.38V15.22H19.55V14.75C19.55 14.19 19.55 13.63 19.5 13.07C19.7594 13.1486 20.0232 13.212 20.29 13.26C20.5153 13.2919 20.7425 13.3087 20.97 13.31C21.1975 13.3083 21.4247 13.2916 21.65 13.26C22.01 13.26 22.36 13.14 22.72 13.07V14.45V15.19H24V13.76C23.64 8.00001 24 8.70001 21.38 8.66001C21.0636 8.63985 20.7463 8.63985 20.43 8.66001C20.11 8.66001 19.8 8.76001 19.49 8.82001V8.00001C19.28 -0.479991 19.56 0.150008 16.79 0.150008C16.4755 0.153423 16.1615 0.176803 15.85 0.220008C15.4498 0.296933 15.0459 0.353671 14.64 0.390008C14.6109 0.362117 14.5763 0.340598 14.5384 0.326824C14.5005 0.313049 14.4602 0.307322 14.42 0.310008C14.3745 0.309989 14.3294 0.319103 14.2875 0.336812C14.2456 0.35452 14.2077 0.380462 14.176 0.413101C14.1443 0.44574 14.1194 0.484411 14.1029 0.526823C14.0865 0.569235 14.0787 0.614524 14.08 0.660008C14.08 2.04001 13.97 3.43001 13.91 4.81001V4.88001V4.97001C13.86 6.18001 13.8 7.39001 13.76 8.61001C13.72 9.83001 13.76 10.97 13.71 12.16C13.2783 12.0715 12.8403 12.018 12.4 12C12.1969 11.9849 11.993 11.9849 11.79 12H11.2L10.2 12.17V10.7C9.83999 3.38001 10.28 4.23001 7.56999 4.18001C7.2353 4.17578 6.90083 4.19919 6.56999 4.25001C6.14999 4.25001 5.74999 4.42001 5.30999 4.43001C5.2611 4.39104 5.20215 4.36677 5.13999 4.36001C5.09403 4.3613 5.04876 4.37164 5.00679 4.39044C4.96482 4.40924 4.92697 4.43612 4.89539 4.46955C4.86382 4.50298 4.83914 4.54231 4.82277 4.58529C4.8064 4.62826 4.79866 4.67404 4.79999 4.72001C4.79999 6.08001 4.66999 7.45001 4.58999 8.81001C4.10743 8.67681 3.61043 8.60293 3.10999 8.59001C2.77703 8.56791 2.44296 8.56791 2.10999 8.59001C1.66999 8.65001 1.24999 8.77001 0.799995 8.81001C0.799995 8.81001 0.719995 8.75001 0.669995 8.76001C0.624491 8.75999 0.579446 8.7691 0.53753 8.78681C0.495614 8.80452 0.457679 8.83046 0.425972 8.8631C0.394266 8.89574 0.369434 8.93441 0.352948 8.97682C0.336461 9.01923 0.328656 9.06452 0.329995 9.11001C0.269995 10.76 0.0999945 12.4 0.00999451 14.11V15.33H1.33999C1.34999 15.08 1.35999 14.87 1.35999 14.66ZM20.58 9.88001C20.9149 9.8987 21.2509 9.87518 21.58 9.81001C22.01 9.76001 22.42 9.66001 22.85 9.61001C22.85 10.42 22.85 11.24 22.78 12.05L21.66 11.93H21.01H20.35C20.13 11.93 19.78 11.99 19.5 12.03V11.89V11.26V9.70001C19.8516 9.8027 20.2141 9.86312 20.58 9.88001ZM17.11 11.75H16.45H15.79C15.57 11.75 15.25 11.81 14.98 11.85V9.52001V9.29001C15.22 9.35001 15.46 9.43001 15.72 9.47001C15.9464 9.48523 16.1736 9.48523 16.4 9.47001C16.6264 9.48493 16.8536 9.48493 17.08 9.47001C17.43 9.47001 17.77 9.35001 18.08 9.28001V11.89L17.11 11.75ZM18.17 8.32001L17.11 8.21001C16.8902 8.19508 16.6697 8.19508 16.45 8.21001H15.79C15.53 8.21001 15.26 8.27001 15 8.31001V5.46001C15.2623 5.54309 15.5295 5.60988 15.8 5.66001C16.0264 5.67523 16.2536 5.67523 16.48 5.66001C16.7064 5.67493 16.9336 5.67493 17.16 5.66001C17.53 5.66001 17.9 5.53001 18.27 5.46001C18.2 6.40001 18.18 7.35001 18.17 8.32001ZM16.07 1.49001C16.4056 1.49699 16.741 1.46681 17.07 1.40001C17.5 1.33001 17.91 1.23001 18.34 1.20001C18.34 2.30001 18.34 3.41001 18.27 4.51001C17.89 4.51001 17.52 4.42001 17.14 4.39001H16.48H15.82C15.6 4.39001 15.24 4.45001 14.96 4.49001C14.96 3.41001 14.87 2.33001 14.83 1.25001C15.2277 1.39617 15.6464 1.47721 16.07 1.49001ZM8.90999 11.58V12.04L7.90999 11.93H7.25999H6.59999C6.37999 11.93 5.99999 12 5.76999 12V9.18001C6.03999 9.25001 6.30999 9.34001 6.59999 9.39001C6.88999 9.44001 7.04999 9.39001 7.27999 9.39001H7.95999C8.18999 9.39001 8.65999 9.26001 9.00999 9.19001C8.93999 10 8.91999 10.77 8.90999 11.58ZM6.80999 5.49001C7.14524 5.49964 7.48054 5.47281 7.80999 5.41001C8.23999 5.35001 8.63999 5.24001 9.06999 5.21001C9.06999 6.21001 9.06999 7.21001 8.99999 8.21001L7.88999 8.12001C7.6736 8.10475 7.45639 8.10475 7.23999 8.12001H6.57999L5.68999 8.23001C5.68999 7.23001 5.59999 6.23001 5.54999 5.23001C5.95686 5.37123 6.38046 5.45864 6.80999 5.49001ZM1.13999 9.64001C1.54431 9.77457 1.96459 9.85527 2.38999 9.88001C2.72495 9.89946 3.06102 9.87593 3.38999 9.81001C3.79999 9.76001 4.19999 9.67001 4.60999 9.62001C4.60999 10.15 4.54999 10.68 4.52999 11.21V12.05C4.17999 12.05 3.83999 11.96 3.52999 11.93C3.21999 11.9 3.08999 11.93 2.86999 11.93H2.21999C1.99999 11.93 1.64999 11.99 1.36999 12.03C1.27666 11.23 1.19999 10.4333 1.13999 9.64001Z" fill="black"/>
<path fill-rule="evenodd" clip-rule="evenodd" d="M22.68 15.1V15.59L21.62 15.48C21.4036 15.4647 21.1864 15.4647 20.97 15.48H20.31L19.51 15.58V15.16H18.19V15.35L17.11 15.23C16.8903 15.215 16.6697 15.215 16.45 15.23H15.79L14.92 15.34V15.22H13.59V15.52C13.26 15.52 12.94 15.43 12.59 15.4C12.24 15.37 12.15 15.4 11.93 15.4H11.28C11.07 15.4 10.65 15.48 10.35 15.53V15.27H8.92V15.64L7.92 15.53C7.7036 15.5147 7.4864 15.5147 7.27 15.53H6.58L5.81 15.63V15.33H4.42V15.64L3.42 15.54C3.20025 15.5251 2.97975 15.5251 2.76 15.54H2.14L1.33 15.64V15.38H0.06C0 16 0 16.69 0 17.39C0 19.24 0.13 21.08 0.3 22.9C0.254512 22.9416 0.22602 22.9986 0.22 23.06C0.215882 23.1047 0.22065 23.1497 0.234028 23.1925C0.247406 23.2354 0.26913 23.2751 0.297948 23.3095C0.326766 23.3439 0.362107 23.3723 0.401934 23.393C0.441761 23.4136 0.485286 23.4262 0.53 23.43C1.04578 23.586 1.56995 23.7129 2.1 23.81C2.32533 23.8415 2.55248 23.8582 2.78 23.86C3.00753 23.8586 3.23472 23.8419 3.46 23.81C4 23.74 4.46 23.63 5.04 23.52C5.04 23.52 5.13 23.52 5.17 23.46C5.60839 23.6037 6.0561 23.7173 6.51 23.8C6.73511 23.8348 6.96226 23.8549 7.19 23.86C7.42085 23.8586 7.65136 23.8419 7.88 23.81C8.42 23.74 8.88 23.62 9.46 23.5C9.46 23.5 9.53 23.5 9.57 23.45C10.1 23.58 10.57 23.72 11.14 23.8C11.3664 23.8149 11.5936 23.8149 11.82 23.8H12.5C13.03 23.74 13.5 23.62 14.07 23.53C14.1749 23.5207 14.2719 23.4704 14.34 23.39C14.7952 23.5582 15.2634 23.6886 15.74 23.78C15.9711 23.8205 16.2054 23.8405 16.44 23.84C16.6675 23.8386 16.8947 23.8219 17.12 23.79C17.6556 23.7132 18.1864 23.6064 18.71 23.47C18.71 23.47 18.71 23.47 18.78 23.47C19.2707 23.6283 19.7719 23.752 20.28 23.84C20.5053 23.8719 20.7325 23.8886 20.96 23.89C21.1875 23.8882 21.4147 23.8715 21.64 23.84C22.17 23.77 22.69 23.66 23.22 23.55C23.2713 23.5462 23.3213 23.5323 23.3672 23.5091C23.413 23.4859 23.4539 23.4539 23.4873 23.4148C23.5208 23.3758 23.5462 23.3305 23.5621 23.2817C23.578 23.2328 23.5841 23.1812 23.58 23.13C23.5797 23.0782 23.5678 23.0271 23.5454 22.9804C23.5229 22.9337 23.4903 22.8925 23.45 22.86C23.4834 22.8293 23.5104 22.7923 23.5292 22.7511C23.5481 22.7099 23.5586 22.6653 23.56 22.62C23.72 21.03 23.86 19.43 23.93 17.82C23.93 17.13 23.93 16.44 23.99 15.75V15.12L22.68 15.1ZM1.26 18V16.56C1.53 16.62 1.79 16.71 2.06 16.75C2.28642 16.7649 2.51358 16.7649 2.74 16.75C2.96641 16.7652 3.19359 16.7652 3.42 16.75C3.75 16.75 4.08 16.64 4.42 16.57C4.42 17.41 4.42 18.25 4.48 19.08L3.48 18.97C3.26138 18.9384 3.04088 18.9217 2.82 18.92H2.17L1.21 19C1.23 18.67 1.25 18.32 1.26 18ZM3.45 22.6H2.79H2.14C1.92 22.6 1.44 22.68 1.14 22.72C1.14 21.82 1.14 20.91 1.22 20C1.53 20.08 1.83 20.17 2.15 20.23C2.47 20.29 2.6 20.23 2.83 20.23H3.51C3.88 20.18 4.24 20.1 4.6 20.03C4.59504 20.0765 4.59504 20.1234 4.6 20.17V22.6C4.60483 22.6548 4.6257 22.707 4.66 22.75L3.45 22.6ZM5.76 17.82V16.57C6.01 16.63 6.26 16.71 6.52 16.75C6.74641 16.7652 6.97359 16.7652 7.2 16.75C7.42642 16.7649 7.65358 16.7649 7.88 16.75C8.23 16.75 8.57 16.63 8.88 16.56V19.08L7.8 18.97C7.58478 18.938 7.36757 18.9213 7.15 18.92H6.49L5.66 19C5.69 18.61 5.74 18.2 5.76 17.79V17.82ZM7.86 22.6H7.21H6.56C6.2 22.6 5.86667 22.64 5.56 22.72C5.56 21.89 5.56 21.06 5.62 20.24V20C5.94 20.09 6.25 20.18 6.62 20.24C6.99 20.3 7.07 20.24 7.3 20.24H7.98C8.21 20.24 8.63 20.05 9 20V22.37C9.00292 22.449 9.02918 22.5253 9.07545 22.5894C9.12173 22.6534 9.18595 22.7024 9.26 22.73C8.79 22.67 8.33 22.6 7.86 22.57V22.6ZM10.31 19.26C10.31 18.43 10.4 17.59 10.4 16.75V16.44C10.6864 16.5186 10.9768 16.582 11.27 16.63C11.7175 16.6967 12.1725 16.6967 12.62 16.63C12.94 16.63 13.24 16.53 13.55 16.47V18.95V19.26L12.55 19.15H11.89C11.6736 19.1348 11.4564 19.1348 11.24 19.15C10.9 19.15 10.58 19.23 10.24 19.29L10.31 19.26ZM12.49 22.6H11.83C11.6136 22.5851 11.3964 22.5851 11.18 22.6C10.83 22.6 10.48 22.69 10.18 22.74C10.18 21.91 10.18 21.07 10.29 20.23C10.6182 20.3273 10.9522 20.4042 11.29 20.46C11.5131 20.475 11.7369 20.475 11.96 20.46H12.64C12.86 20.46 13.29 20.35 13.64 20.29C13.64 21.11 13.7 21.93 13.69 22.74C13.26 22.66 12.88 22.6 12.49 22.57V22.6ZM14.9 16.27C15.18 16.34 15.46 16.43 15.76 16.48C15.9864 16.4952 16.2136 16.4952 16.44 16.48C16.6664 16.4949 16.8936 16.4949 17.12 16.48C17.49 16.43 17.84 16.36 18.2 16.28V16.73V17.42V18.68V19.29L17.08 19.18H16.43H15.78L14.78 19.27C14.86 18.22 14.87 17.23 14.9 16.24V16.27ZM17.11 22.59H16.46H15.81L14.76 22.69C14.76 21.86 14.76 21.02 14.81 20.18C15.1161 20.291 15.4304 20.378 15.75 20.44C15.9811 20.4805 16.2154 20.5005 16.45 20.5H17.13C17.5041 20.4445 17.8747 20.3677 18.24 20.27V22.27C18.2405 22.3342 18.2573 22.3972 18.2888 22.4532C18.3203 22.5091 18.3654 22.5562 18.42 22.59V22.77C18 22.65 17.57 22.6 17.11 22.56V22.59ZM19.45 18V16.56C19.71 16.62 19.97 16.71 20.25 16.75C20.4764 16.7652 20.7036 16.7652 20.93 16.75C21.1564 16.7649 21.3836 16.7649 21.61 16.75C21.96 16.75 22.31 16.63 22.61 16.56V17.66V19.08L21.52 18.97C21.3048 18.938 21.0876 18.9213 20.87 18.92H20.21L19.4 19C19.42 18.67 19.43 18.32 19.45 18ZM21.63 22.6H20.98H20.32C20.1 22.6 19.62 22.68 19.32 22.72C19.32 21.82 19.32 20.91 19.4 20C19.7 20.08 20.01 20.17 20.33 20.23C20.65 20.29 20.78 20.23 21.01 20.23H21.69C21.92 20.23 22.42 20.1 22.78 20.03C22.78 20.88 22.83 21.75 22.83 22.6C22.83 22.66 22.83 22.7 22.88 22.75L21.63 22.6Z" fill="black"/>
</g>
<defs>
<clipPath id="clip0_1047_6080">
<rect width="24" height="24" fill="white"/>
</clipPath>
</defs>
</svg>
