<svg width="24" height="24" viewBox="0 0 24 24" fill="none" xmlns="http://www.w3.org/2000/svg">
<g clip-path="url(#clip0_1052_9137)">
<path fill-rule="evenodd" clip-rule="evenodd" d="M24 5.00002C23.9814 4.68763 23.8499 4.39265 23.63 4.17002C23.4255 3.99286 23.1823 3.86614 22.92 3.80002C22.4404 3.7261 21.9551 3.69598 21.47 3.71002C20.72 3.71002 19.52 3.65002 18.56 3.71002C18.1142 3.70424 17.6688 3.74108 17.23 3.82002C16.8257 3.95273 16.4565 4.17491 16.15 4.47002C15.32 5.22002 14.23 6.55002 13.39 7.31002C12.39 8.31002 11.39 9.24002 10.39 10.25C9.74999 10.93 9.10999 11.64 8.50999 12.38C7.90999 13.12 7.43999 13.78 6.81999 14.5C6.46812 14.9134 6.08715 15.301 5.67999 15.66C5.67999 15.58 5.39999 15.66 5.18999 15.66H3.34999C2.94181 15.653 2.53376 15.6798 2.12999 15.74C1.74224 15.7684 1.36114 15.8561 0.999991 16C0.792569 16.0871 0.61525 16.2331 0.489991 16.42C0.245609 16.7715 0.0879715 17.1759 0.0299907 17.6C-0.0233885 18.1317 -0.0334216 18.6668 -9.31881e-06 19.2C-0.0581366 20.1412 0.0295655 21.0857 0.259991 22C0.397663 22.483 0.707057 22.8991 1.12999 23.17C1.3466 23.2822 1.57941 23.3598 1.81999 23.4C2.12411 23.4506 2.43171 23.4773 2.73999 23.48H5.31999H6.66999C7.00853 23.4749 7.34485 23.4245 7.66999 23.33C7.92443 23.2422 8.16139 23.1101 8.36999 22.94C8.64019 22.7149 8.89416 22.4709 9.12999 22.21L11.26 20.06C12.46 18.66 13.26 17.45 14.16 16.31C14.39 16.02 14.23 16.22 15.77 14.41C16.4 13.66 16.97 12.89 17.71 12.04C18.0225 11.6613 18.3564 11.3007 18.71 10.96C18.9116 10.7555 19.1488 10.5894 19.41 10.47C19.6424 10.3754 19.8893 10.3213 20.14 10.31C20.5616 10.3181 20.9824 10.3515 21.4 10.41C21.8431 10.4793 22.2929 10.496 22.74 10.46C22.8875 10.4476 23.0303 10.4025 23.1583 10.3282C23.2863 10.2538 23.3962 10.152 23.48 10.03C23.7478 9.57838 23.9117 9.07284 23.96 8.55002C23.9998 7.84391 23.9998 7.13612 23.96 6.43002C24.0052 5.95478 24.0186 5.47704 24 5.00002ZM23.1 8.45002C23.0764 8.84672 22.9636 9.23299 22.77 9.58002C22.69 9.70002 22.5 9.67002 22.32 9.67002C21.99 9.67002 21.66 9.67002 21.45 9.61002C20.9 9.61002 20.52 9.51002 20.11 9.53002C19.7662 9.55097 19.4283 9.62869 19.11 9.76002C18.7677 9.92974 18.4566 10.1563 18.19 10.43C17.8345 10.7935 17.5005 11.1775 17.19 11.58C16.46 12.45 15.9 13.24 15.28 14C15.01 14.33 13.86 15.55 13.61 15.85C12.68 16.97 11.89 18.16 10.67 19.53L8.50999 21.63C8.29902 21.8528 8.07531 22.0631 7.83999 22.26C7.70351 22.3631 7.55165 22.4441 7.38999 22.5C7.14521 22.5649 6.89321 22.5985 6.63999 22.6H5.33999L2.78999 22.5C2.52506 22.4927 2.26101 22.466 1.99999 22.42C1.86929 22.4015 1.74353 22.3573 1.62999 22.29C1.48318 22.1785 1.36178 22.037 1.27385 21.8749C1.18592 21.7128 1.13348 21.5339 1.11999 21.35C1.03753 20.6331 1.01745 19.9104 1.05999 19.19C1.02556 18.7106 1.02556 18.2294 1.05999 17.75C1.09581 17.4772 1.20271 17.2185 1.36999 17C1.43992 16.9308 1.53194 16.8883 1.62999 16.88C1.82999 16.83 2.05999 16.83 2.24999 16.79C3.24999 16.64 4.85999 16.84 5.61999 16.79C5.85608 16.779 6.08452 16.7029 6.27999 16.57C6.77472 16.1637 7.23007 15.7117 7.63999 15.22C8.26999 14.5 8.84999 13.71 9.35999 13.08C9.86999 12.45 10.55 11.7 11.18 11C12.18 10 13.18 9.00002 14.18 8.09002C14.89 7.42002 15.79 6.33002 16.56 5.56002C16.8078 5.2533 17.1136 4.99844 17.46 4.81002C17.9706 4.7452 18.4854 4.71846 19 4.73002H21.46C21.823 4.71002 22.1869 4.71002 22.55 4.73002C22.7129 4.74379 22.8687 4.80266 23 4.90002C23.08 4.97002 23.07 5.13002 23.08 5.29002V6.45002C23.1204 7.11941 23.1204 7.79062 23.08 8.46002L23.1 8.45002Z" fill="black"/>
<path fill-rule="evenodd" clip-rule="evenodd" d="M6.26998 6.60002C6.37998 6.65002 6.48998 6.68002 6.59998 6.72002C6.01824 7.30977 5.59215 8.03483 5.35998 8.83002C5.07081 10.0145 5.01309 11.2437 5.18998 12.45C5.19124 12.4903 5.2006 12.5299 5.2175 12.5665C5.23441 12.6031 5.25852 12.6359 5.28838 12.663C5.31825 12.6901 5.35327 12.7108 5.39134 12.7241C5.42942 12.7373 5.46977 12.7427 5.50999 12.74C5.58955 12.7325 5.66344 12.6955 5.7171 12.6363C5.77077 12.5771 5.80034 12.4999 5.79998 12.42C5.81106 11.4915 5.95244 10.5692 6.21998 9.68002C6.3252 9.33754 6.45556 9.0033 6.60998 8.68002C6.81648 8.21943 7.10828 7.80209 7.46998 7.45002C7.66123 7.24604 7.90954 7.10447 8.18249 7.04381C8.45545 6.98316 8.74035 7.00623 8.99998 7.11002C9.27686 7.20558 9.51711 7.38498 9.68735 7.62333C9.8576 7.86167 9.94939 8.14712 9.94998 8.44002C9.9414 8.49024 9.94389 8.54174 9.95727 8.5909C9.97066 8.64006 9.99461 8.68571 10.0275 8.72465C10.0603 8.7636 10.1013 8.7949 10.1475 8.81637C10.1937 8.83784 10.244 8.84897 10.295 8.84897C10.3459 8.84897 10.3963 8.83784 10.4425 8.81637C10.4887 8.7949 10.5296 8.7636 10.5625 8.72465C10.5954 8.68571 10.6193 8.64006 10.6327 8.5909C10.6461 8.54174 10.6486 8.49024 10.64 8.44002C10.6838 8.03174 10.6136 7.61931 10.437 7.24857C10.2605 6.87784 9.98458 6.56333 9.63999 6.34002C10.0852 6.05293 10.461 5.67034 10.74 5.22002C11.1598 4.57205 11.3336 3.79512 11.23 3.03002C11.1623 2.63645 10.9902 2.26828 10.7316 1.96396C10.473 1.65964 10.1375 1.43034 9.75998 1.30002C9.71928 1.28161 9.67534 1.27141 9.63069 1.27C9.58604 1.26858 9.54155 1.27598 9.49975 1.29176C9.45796 1.30755 9.41969 1.33142 9.38713 1.36201C9.35457 1.39259 9.32835 1.4293 9.30999 1.47002C9.2724 1.55368 9.26916 1.64875 9.30095 1.73477C9.33274 1.8208 9.39703 1.89091 9.47998 1.93002C9.71951 2.04195 9.92467 2.21599 10.0742 2.43406C10.2236 2.65212 10.312 2.90625 10.33 3.17002C10.3595 3.72268 10.1931 4.26805 9.85998 4.71002C9.50768 5.19299 9.00453 5.54485 8.42999 5.71002C7.88486 5.86822 7.30041 5.81832 6.78998 5.57002C6.51165 5.44299 6.27847 5.23442 6.12132 4.97191C5.96417 4.7094 5.89047 4.40535 5.90998 4.10002C5.93014 3.38629 6.15204 2.69286 6.54999 2.10002C6.76238 1.76833 7.0592 1.49913 7.40998 1.32002C7.56457 1.24022 7.73601 1.19858 7.90998 1.19858C8.08395 1.19858 8.2554 1.24022 8.40998 1.32002C8.44314 1.34153 8.48034 1.35604 8.5193 1.36266C8.55826 1.36927 8.59817 1.36786 8.63656 1.35849C8.67496 1.34913 8.71103 1.33201 8.74258 1.3082C8.77412 1.28439 8.80046 1.25438 8.81998 1.22002C8.84285 1.1887 8.8592 1.15311 8.86807 1.11536C8.87694 1.0776 8.87814 1.03846 8.87162 1.00023C8.86509 0.962002 8.85096 0.925472 8.83007 0.892801C8.80918 0.86013 8.78195 0.831981 8.74998 0.81002C8.56252 0.680233 8.35047 0.590207 8.12689 0.545492C7.90331 0.500776 7.67294 0.502317 7.44998 0.55002C6.82429 0.692453 6.2665 1.04548 5.86998 1.55002C5.1493 2.41178 4.79084 3.51941 4.86998 4.64002C4.91666 5.05905 5.06982 5.45915 5.31488 5.80224C5.55994 6.14532 5.88875 6.41997 6.26998 6.60002Z" fill="black"/>
<path fill-rule="evenodd" clip-rule="evenodd" d="M22.32 16.25C22.2485 16.0151 22.1094 15.8064 21.92 15.65C21.746 15.5263 21.5425 15.4505 21.33 15.43C21.0602 15.414 20.7897 15.414 20.52 15.43H19.14L18.22 15.38C18.1405 15.3652 18.0584 15.382 17.9912 15.4268C17.9239 15.4717 17.8769 15.541 17.86 15.62C17.848 15.6979 17.8661 15.7775 17.9107 15.8425C17.9553 15.9075 18.023 15.9531 18.1 15.97C18.5 16.08 18.88 16.18 19.28 16.27C19.68 16.36 20.08 16.43 20.47 16.49H20.75C20.04 17.05 19.35 17.62 18.69 18.24C18.35 18.55 18.01 18.87 17.69 19.24C17.37 19.61 17.06 19.91 16.76 20.24C16.05 21.05 15.4 21.88 14.68 22.68C14.6216 22.7357 14.5878 22.8123 14.5859 22.8929C14.5841 22.9736 14.6143 23.0517 14.67 23.11C14.7257 23.1684 14.8023 23.2022 14.8829 23.2041C14.9636 23.2059 15.0416 23.1757 15.1 23.12C16.1 22.34 17 21.55 17.88 20.69C18.41 20.18 18.88 19.64 19.39 19.1C20.03 18.4 20.66 17.7 21.32 17.02V17.15C21.391 17.4798 21.4411 17.8138 21.47 18.15C21.47 18.69 21.53 19.23 21.61 19.76C21.61 19.8502 21.6458 19.9367 21.7096 20.0004C21.7733 20.0642 21.8598 20.1 21.95 20.1C22.0402 20.1 22.1266 20.0642 22.1904 20.0004C22.2542 19.9367 22.29 19.8502 22.29 19.76C22.29 19.13 22.4 18.52 22.43 17.89C22.4449 17.6035 22.4449 17.3165 22.43 17.03C22.4296 16.7662 22.3926 16.5037 22.32 16.25Z" fill="black"/>
</g>
<defs>
<clipPath id="clip0_1052_9137">
<rect width="24" height="24" fill="white"/>
</clipPath>
</defs>
</svg>
