<svg width="24" height="24" viewBox="0 0 24 24" fill="none" xmlns="http://www.w3.org/2000/svg">
<g clip-path="url(#clip0_1030_2020)">
<path fill-rule="evenodd" clip-rule="evenodd" d="M0.90001 5.18999C0.99991 5.18232 1.09303 5.1365 1.16005 5.06203C1.22708 4.98755 1.26287 4.89014 1.26001 4.78999V2.57999C1.27939 2.238 1.35018 1.90088 1.47001 1.57999C1.47182 1.55335 1.47182 1.52662 1.47001 1.49999V1.57999C2.55942 1.29157 3.68318 1.15362 4.81001 1.16999C4.87377 1.18063 4.93911 1.17675 5.00116 1.15866C5.06322 1.14056 5.1204 1.10871 5.16844 1.06547C5.21649 1.02223 5.25417 0.968707 5.27868 0.908893C5.30319 0.84908 5.3139 0.78451 5.31001 0.719986C5.31274 0.607607 5.27136 0.498626 5.19473 0.416385C5.11809 0.334143 5.0123 0.285181 4.90001 0.279986C3.77052 0.0905805 2.62353 0.0268587 1.48001 0.0899861C1.2357 0.110152 0.999356 0.186537 0.789453 0.313173C0.579551 0.439808 0.401773 0.613264 0.27001 0.819986C0.0808847 1.25141 -0.0112822 1.71907 9.89175e-06 2.18999C0.0949739 3.08284 0.265587 3.96601 0.51001 4.82999C0.515191 4.92902 0.558878 5.0221 0.631744 5.08936C0.704611 5.15662 0.800883 5.19273 0.90001 5.18999Z" fill="black"/>
<path fill-rule="evenodd" clip-rule="evenodd" d="M4.87001 22.86C3.74318 22.8764 2.61942 22.7384 1.53001 22.45V22.53C1.53182 22.5034 1.53182 22.4766 1.53001 22.45C1.41018 22.1291 1.33939 21.792 1.32001 21.45V19.24C1.32287 19.1398 1.28708 19.0424 1.22005 18.9679C1.15303 18.8935 1.05991 18.8477 0.96001 18.84C0.860883 18.8372 0.764611 18.8734 0.691744 18.9406C0.618878 19.0079 0.575191 19.101 0.57001 19.2C0.306945 20.0524 0.116268 20.9255 9.89175e-06 21.81C-0.0112822 22.2809 0.0808847 22.7486 0.27001 23.18C0.401773 23.3867 0.579551 23.5602 0.789453 23.6868C0.999356 23.8134 1.2357 23.8898 1.48001 23.91C2.62353 23.9731 3.77052 23.9094 4.90001 23.72C5.01405 23.72 5.12343 23.6747 5.20407 23.594C5.28471 23.5134 5.33001 23.404 5.33001 23.29C5.33001 23.1759 5.28471 23.0666 5.20407 22.9859C5.12343 22.9053 5.01405 22.86 4.90001 22.86H4.87001Z" fill="black"/>
<path fill-rule="evenodd" clip-rule="evenodd" d="M19.13 1.13999C20.2568 1.12362 21.3806 1.26157 22.47 1.54999V1.46999C22.4682 1.49662 22.4682 1.52335 22.47 1.54999C22.47 1.54999 22.52 1.54999 22.47 1.54999C22.5979 1.86893 22.6722 2.20681 22.69 2.54999V4.75999C22.6871 4.86014 22.7229 4.95755 22.79 5.03203C22.857 5.1065 22.9501 5.15232 23.05 5.15999C23.1491 5.16273 23.2454 5.12662 23.3183 5.05936C23.3911 4.9921 23.4348 4.89902 23.44 4.79999C23.6997 3.94727 23.887 3.07418 24 2.18999C24.0113 1.71907 23.9191 1.25141 23.73 0.819986C23.5982 0.613264 23.4205 0.439808 23.2106 0.313173C23.0007 0.186537 22.7643 0.110152 22.52 0.0899861C21.3765 0.0268587 20.2295 0.0905805 19.1 0.279986C18.9877 0.285181 18.8819 0.334143 18.8053 0.416385C18.7287 0.498626 18.6873 0.607607 18.69 0.719986C18.6913 0.776459 18.7037 0.832123 18.7265 0.883798C18.7494 0.935472 18.7821 0.982144 18.823 1.02115C18.8639 1.06015 18.912 1.09072 18.9647 1.11111C19.0174 1.1315 19.0735 1.14131 19.13 1.13999Z" fill="black"/>
<path fill-rule="evenodd" clip-rule="evenodd" d="M23.1 18.81C23.0001 18.8176 22.907 18.8634 22.84 18.9379C22.7729 19.0124 22.7371 19.1098 22.74 19.21V21.42C22.7222 21.7631 22.6479 22.101 22.52 22.42C22.5182 22.4466 22.5182 22.4733 22.52 22.5V22.42C21.4306 22.7084 20.3068 22.8463 19.18 22.83C19.066 22.83 18.9566 22.8753 18.8759 22.9559C18.7953 23.0365 18.75 23.1459 18.75 23.26C18.75 23.374 18.7953 23.4834 18.8759 23.564C18.9566 23.6447 19.066 23.69 19.18 23.69C20.3095 23.8794 21.4565 23.9431 22.6 23.88C22.8443 23.8598 23.0807 23.7834 23.2906 23.6568C23.5005 23.5301 23.6782 23.3567 23.81 23.15C23.9675 22.7218 24.0323 22.265 24 21.81C23.905 20.9171 23.7344 20.0339 23.49 19.17C23.4848 19.0709 23.4411 18.9779 23.3683 18.9106C23.2954 18.8433 23.1991 18.8072 23.1 18.81Z" fill="black"/>
<path fill-rule="evenodd" clip-rule="evenodd" d="M7.6 6.81001L8.36 7.28001C8.39996 7.32022 8.44748 7.35213 8.49983 7.37391C8.55217 7.39569 8.60831 7.4069 8.665 7.4069C8.72169 7.4069 8.77783 7.39569 8.83017 7.37391C8.88251 7.35213 8.93004 7.32022 8.97 7.28001C9.00991 7.2409 9.04162 7.19423 9.06326 7.14271C9.08491 7.0912 9.09606 7.03588 9.09606 6.98001C9.09606 6.92413 9.08491 6.86882 9.06326 6.8173C9.04162 6.76579 9.00991 6.71911 8.97 6.68001L8.23 5.90001C7.90548 5.59371 7.5298 5.34664 7.12 5.17001C6.87001 5.0577 6.59906 4.99963 6.325 4.99963C6.05094 4.99963 5.77999 5.0577 5.53 5.17001C5.27008 5.2996 5.03619 5.47586 4.84 5.69001C4.46587 6.11188 4.13114 6.56711 3.84 7.05001C3.77532 7.12313 3.73962 7.21739 3.73962 7.31501C3.73962 7.41263 3.77532 7.50688 3.84 7.58001C3.91262 7.64968 4.00936 7.68858 4.11 7.68858C4.21064 7.68858 4.30738 7.64968 4.38 7.58001C4.87834 7.12987 5.45438 6.77408 6.08 6.53001C6.28551 6.46859 6.50449 6.46859 6.71 6.53001C7.01815 6.58188 7.31766 6.6761 7.6 6.81001Z" fill="black"/>
<path fill-rule="evenodd" clip-rule="evenodd" d="M20 7.32C20.0766 7.2369 20.1191 7.12802 20.1191 7.015C20.1191 6.90198 20.0766 6.7931 20 6.71L19.26 5.94C18.9363 5.63271 18.5604 5.38552 18.15 5.21C17.9005 5.1027 17.6317 5.04736 17.36 5.04736C17.0884 5.04736 16.8196 5.1027 16.57 5.21C16.3054 5.33668 16.0677 5.51325 15.87 5.73C15.4982 6.15376 15.1637 6.60878 14.87 7.09C14.8003 7.16262 14.7614 7.25936 14.7614 7.36C14.7614 7.46064 14.8003 7.55738 14.87 7.63C14.9045 7.66538 14.9457 7.6935 14.9912 7.7127C15.0367 7.73189 15.0856 7.74179 15.135 7.74179C15.1844 7.74179 15.2333 7.73189 15.2788 7.7127C15.3243 7.6935 15.3655 7.66538 15.4 7.63C15.898 7.17927 16.4696 6.81735 17.09 6.56C17.299 6.49889 17.5211 6.49889 17.73 6.56C18.0378 6.6235 18.3366 6.72424 18.62 6.86L19.38 7.34C19.4651 7.41923 19.578 7.46159 19.6941 7.45784C19.8103 7.4541 19.9203 7.40454 20 7.32Z" fill="black"/>
<path fill-rule="evenodd" clip-rule="evenodd" d="M11.53 13.63C11.6867 13.8065 11.8771 13.9498 12.09 14.0516C12.3029 14.1535 12.534 14.2117 12.7697 14.2228C13.0055 14.234 13.2411 14.198 13.4626 14.1167C13.6842 14.0355 13.8873 13.9109 14.06 13.75C14.2575 13.6177 14.4447 13.4706 14.62 13.31C14.7901 13.1533 14.9504 12.9863 15.1 12.81C15.1759 12.7285 15.2182 12.6213 15.2182 12.51C15.2182 12.3987 15.1759 12.2915 15.1 12.21C15.0197 12.1318 14.9121 12.0881 14.8 12.0881C14.688 12.0881 14.5803 12.1318 14.5 12.21C14.3592 12.3441 14.2088 12.4678 14.05 12.58C13.9008 12.6907 13.7399 12.7846 13.57 12.86C13.4466 12.9385 13.3086 12.9914 13.1643 13.0154C13.0199 13.0395 12.8723 13.0342 12.73 13C12.51 12.92 12.44 12.67 12.34 12.4C12.1889 11.8389 12.1083 11.2611 12.1 10.68V8.81V7.74C12.15 7.27 12.18 6.84 12.24 6.42C12.2749 6.1368 12.3284 5.8562 12.4 5.58C12.4318 5.48585 12.425 5.38291 12.3809 5.29383C12.3368 5.20475 12.2592 5.13683 12.165 5.105C12.0709 5.07317 11.9679 5.08005 11.8789 5.12412C11.7898 5.1682 11.7218 5.24585 11.69 5.34L11 7.54L10.75 8.69C10.6073 9.65358 10.5871 10.6314 10.69 11.6C10.764 12.3446 11.0563 13.0508 11.53 13.63Z" fill="black"/>
<path fill-rule="evenodd" clip-rule="evenodd" d="M16.75 15.45C16.6345 15.6395 16.5006 15.817 16.35 15.98C16.0913 16.2392 15.8175 16.483 15.53 16.71C15.2843 16.9143 15.0272 17.1046 14.76 17.28C14.5196 17.4485 14.2571 17.5831 13.98 17.68C13.0712 18.0223 12.0688 18.0223 11.16 17.68C9.63939 17.1288 8.24265 16.2826 7.05 15.19C6.97906 15.121 6.88398 15.0823 6.785 15.0823C6.68602 15.0823 6.59094 15.121 6.52 15.19C6.45323 15.2621 6.41614 15.3567 6.41614 15.455C6.41614 15.5532 6.45323 15.6479 6.52 15.72C7.63785 17.1275 9.06928 18.2541 10.7 19.01C11.3156 19.2391 11.971 19.3422 12.6273 19.313C13.2835 19.2838 13.9272 19.1229 14.52 18.84C14.797 18.696 15.0613 18.5287 15.31 18.34C15.6447 18.0667 15.9589 17.7693 16.25 17.45C16.5413 17.1634 16.8151 16.8595 17.07 16.54C17.2542 16.3049 17.4055 16.0458 17.52 15.77C17.5676 15.6665 17.5722 15.5484 17.5329 15.4416C17.4935 15.3347 17.4133 15.2478 17.31 15.2C17.2572 15.1761 17.1999 15.1637 17.142 15.1635C17.084 15.1634 17.0267 15.1755 16.9738 15.1991C16.9209 15.2227 16.8736 15.2573 16.835 15.3006C16.7964 15.3438 16.7675 15.3947 16.75 15.45Z" fill="black"/>
</g>
<defs>
<clipPath id="clip0_1030_2020">
<rect width="24" height="24" fill="white"/>
</clipPath>
</defs>
</svg>
