<svg width="24" height="24" viewBox="0 0 24 24" fill="none" xmlns="http://www.w3.org/2000/svg">
<g clip-path="url(#clip0_1047_6124)">
<path fill-rule="evenodd" clip-rule="evenodd" d="M8.1 17.74C8.37945 17.7327 8.65608 17.6821 8.92 17.59C9.12007 17.5087 9.28846 17.3649 9.4 17.18C9.47542 17.0198 9.51954 16.8467 9.53 16.67C9.53 16.3 9.45 15.74 9.44 15.55L8.9 12C8.89251 11.9204 8.85551 11.8465 8.7963 11.7928C8.73708 11.7392 8.65992 11.7096 8.58 11.71C8.53971 11.7112 8.50009 11.7206 8.4635 11.7375C8.4269 11.7544 8.39409 11.7785 8.36703 11.8084C8.33996 11.8382 8.31919 11.8732 8.30595 11.9113C8.29272 11.9494 8.28729 11.9897 8.29 12.03V14.19V15.61C8.38867 15.9356 8.45236 16.2708 8.48 16.61C8.48 16.74 8.39 16.61 7.98 16.71C7.57 16.81 7.08 16.91 6.62 16.99H6.49C6.3 17.34 6.23 17.63 6.49 17.79C6.55657 17.795 6.62343 17.795 6.69 17.79C7.16 17.81 7.64 17.77 8.1 17.74Z" fill="black"/>
<path fill-rule="evenodd" clip-rule="evenodd" d="M22.37 22.16V21.23C22.3565 21.0576 22.3053 20.8904 22.22 20.74C22.04 20.42 21.69 20.01 21.57 19.74C21.45 19.47 21.35 19.25 21.24 19.01C21.2371 18.9901 21.2371 18.9699 21.24 18.95C21.2626 18.9092 21.2795 18.8654 21.29 18.82C21.358 18.5484 21.3949 18.2699 21.4 17.99V16.19L21.48 14.48V13L21.39 11.9C21.3298 10.8018 21.0688 9.72404 20.62 8.71999C20.4239 8.3454 20.1199 8.03834 19.7472 7.83864C19.3745 7.63894 18.9505 7.55579 18.53 7.59999L18.13 7.64999C18.13 7.12999 18.07 6.64999 17.99 6.09999C17.8422 4.93609 17.4865 3.80819 16.94 2.76999C16.7819 2.48598 16.5831 2.22658 16.35 1.99999C16.0602 1.71681 15.7493 1.45606 15.42 1.21999C14.6655 0.65259 13.7901 0.267134 12.8621 0.093676C11.9341 -0.0797817 10.9785 -0.0365534 10.07 0.21999C9.17064 0.475246 8.33611 0.919501 7.62217 1.52307C6.90823 2.12664 6.33133 2.87563 5.93 3.71999C5.37593 4.9602 5.03774 6.28592 4.93 7.63999H4.86C4.71737 7.61988 4.57263 7.61988 4.43 7.63999C3.95333 7.60966 3.48056 7.74273 3.0897 8.01725C2.69884 8.29176 2.41323 8.69131 2.28 9.14999C2.00125 10.3626 1.93024 11.6137 2.07 12.85V14.02V16.02L2.18 18.26C2.16622 18.5298 2.16622 18.8002 2.18 19.07C2.1889 19.15 2.21495 19.2271 2.25637 19.2962C2.29778 19.3652 2.3536 19.4245 2.42 19.47C2.41461 19.4964 2.41461 19.5236 2.42 19.55C2.33 19.7 2.22 19.85 2.11 20C2 20.15 1.86 20.25 1.75 20.39C1.66067 20.4929 1.59876 20.6168 1.57 20.75C1.54908 20.916 1.54908 21.084 1.57 21.25C1.57 21.55 1.63 21.89 1.64 22.15C1.624 22.4331 1.624 22.7169 1.64 23C1.66054 23.1411 1.70808 23.2769 1.78 23.4C1.87879 23.5435 2.02333 23.6493 2.19 23.7C2.41912 23.7635 2.65334 23.807 2.89 23.83C3.2216 23.8736 3.55556 23.897 3.89 23.9H5.33C5.66506 23.9035 5.99975 23.8767 6.33 23.82C6.41678 23.8013 6.49882 23.7651 6.57105 23.7135C6.64329 23.6619 6.70419 23.596 6.75 23.52C6.81458 23.4007 6.86173 23.2727 6.89 23.14C6.89 22.93 6.89 22.7 6.96 22.51C7.03 22.32 7.05 21.89 7.06 21.57C7.07538 21.4137 7.07538 21.2563 7.06 21.1C7.03894 20.9622 6.9914 20.8297 6.92 20.71C6.81 20.54 6.66 20.36 6.58 20.24L6.12 19.38C6.28144 19.4172 6.44512 19.4439 6.61 19.46L8 21.53C8.08467 21.6266 8.19086 21.702 8.31 21.75C8.53266 21.8292 8.76454 21.8796 9 21.9C9.22161 21.9376 9.4454 21.961 9.67 21.97L9.24 22.68C9.24 22.68 9.1 23 9 23.05C8.94934 23.1514 8.93461 23.2669 8.95823 23.3777C8.98185 23.4886 9.04241 23.5881 9.13 23.66C9.2669 23.7761 9.4272 23.8614 9.6 23.91C9.88752 23.9819 10.1839 24.0122 10.48 24L12.7 23.87C12.76 23.87 13.38 23.82 13.62 23.78C13.7252 23.7698 13.8261 23.7333 13.9135 23.6739C14.0008 23.6145 14.0719 23.534 14.12 23.44C14.151 23.3254 14.151 23.2046 14.12 23.09C14.0629 22.9279 13.9927 22.7707 13.91 22.62L13.41 21.83H13.54H14.43C14.5961 21.8245 14.7608 21.7976 14.92 21.75C15.0452 21.7079 15.1514 21.6229 15.22 21.51C15.31 21.37 15.52 21.01 15.52 21L16.52 19.41L17.17 19.34C17.1806 19.4158 17.2157 19.4861 17.27 19.54L17.04 19.88C16.81 20.19 16.55 20.47 16.29 20.77C16.2353 20.8469 16.2009 20.9363 16.19 21.03V21.38C16.175 21.6731 16.175 21.9668 16.19 22.26C16.1963 22.4787 16.2231 22.6963 16.27 22.91C16.2915 23.071 16.3519 23.2244 16.446 23.3568C16.5401 23.4892 16.665 23.5967 16.81 23.67C17.116 23.7767 17.4362 23.8374 17.76 23.85C18.2777 23.9462 18.8034 23.9931 19.33 23.99C19.85 23.99 20.33 23.94 20.87 23.89C21.1387 23.8752 21.406 23.8417 21.67 23.79C21.8426 23.7533 22.0059 23.6818 22.15 23.58C22.2275 23.5202 22.2915 23.4447 22.338 23.3586C22.3845 23.2725 22.4125 23.1776 22.42 23.08C22.42 22.81 22.37 22.24 22.37 22.16ZM6.05 6.86999C6.23424 6.92318 6.42117 6.96658 6.61 6.99999C6.81953 7.01996 7.03047 7.01996 7.24 6.99999C7.45 6.99999 7.65 6.99999 7.86 6.93999L8.86 6.82999C8.90602 6.82622 8.95085 6.81337 8.99189 6.79219C9.03292 6.77102 9.06936 6.74193 9.09911 6.70661C9.12886 6.67129 9.15132 6.63043 9.1652 6.58638C9.17908 6.54234 9.18411 6.49599 9.18 6.44999C9.17623 6.40528 9.16365 6.36175 9.14297 6.32192C9.1223 6.2821 9.09395 6.24676 9.05956 6.21794C9.02516 6.18912 8.9854 6.1674 8.94257 6.15402C8.89974 6.14064 8.85468 6.13587 8.81 6.13999L7.9 5.89999C7.68 5.89999 7.46 5.81999 7.24 5.80999C7.02379 5.79017 6.80621 5.79017 6.59 5.80999L6.29 5.86999C6.45432 5.29576 6.66846 4.73697 6.93 4.19999C7.26789 3.50485 7.75054 2.89001 8.34558 2.39673C8.94061 1.90346 9.63427 1.54315 10.38 1.33999C11.1171 1.12938 11.8928 1.09109 12.6471 1.22807C13.4013 1.36506 14.114 1.67365 14.73 2.12999C15.0154 2.32248 15.2832 2.54001 15.53 2.77999C15.6742 2.91908 15.7986 3.07721 15.9 3.24999C16.3478 4.06458 16.6618 4.94581 16.83 5.85999L16.53 5.77999H16.23C16.131 5.75979 16.029 5.75979 15.93 5.77999C15.6905 5.84808 15.4592 5.94197 15.24 6.05999C15.1953 6.05187 15.1494 6.05366 15.1055 6.06524C15.0616 6.07681 15.0208 6.09789 14.9859 6.12699C14.9511 6.15608 14.923 6.19248 14.9038 6.23361C14.8845 6.27473 14.8745 6.31958 14.8745 6.36499C14.8745 6.4104 14.8845 6.45525 14.9038 6.49638C14.923 6.5375 14.9511 6.5739 14.9859 6.60299C15.0208 6.63209 15.0616 6.65317 15.1055 6.66474C15.1494 6.67632 15.1953 6.67811 15.24 6.66999C15.4644 6.75974 15.695 6.83326 15.93 6.88999C16.0227 6.90493 16.1173 6.90493 16.21 6.88999C16.3064 6.89982 16.4036 6.89982 16.5 6.88999C16.65 6.88999 16.8 6.80999 16.94 6.76999C16.99 7.14999 17.03 7.53999 17.06 7.92999H14.67C13.79 7.92999 12.91 7.86999 12.05 7.78999L10.18 7.60999H9.18C8.09 7.71999 7 7.87999 5.88 7.99999C5.93 7.58999 6 7.22999 6.05 6.86999ZM5.19 18.81C4.66 18.81 4.08 18.96 3.55 18.93C3.44162 18.9206 3.33443 18.9005 3.23 18.87C3.24963 18.6838 3.24963 18.4961 3.23 18.31L3.24 16V14V12.92C3.39316 12.9303 3.54684 12.9303 3.7 12.92C3.89578 12.8977 4.08964 12.8609 4.28 12.81C4.54 12.75 4.77 12.65 5.02 12.59C5.67 19.73 5.42 18.84 5.19 18.81ZM3.14 9.41999C3.1924 9.10581 3.35111 8.81916 3.58957 8.608C3.82804 8.39684 4.13179 8.27398 4.45 8.25999C4.53972 8.25 4.63028 8.25 4.72 8.25999H4.87V8.32999C4.83697 9.51489 4.8804 10.7007 5 11.88C4.74752 11.8184 4.48963 11.7816 4.23 11.77C4.09376 11.7548 3.95624 11.7548 3.82 11.77L3.43 11.86C3.34734 11.8906 3.26712 11.9273 3.19 11.97C3.02567 11.1293 3.00875 10.2665 3.14 9.41999ZM6.14 21.21C6.1489 21.3465 6.1489 21.4835 6.14 21.62C6.14 21.87 6.03 22.14 5.98 22.36L5.87 22.84C5.66 22.84 5.38 22.75 5.33 22.75H3.96C3.66686 22.7649 3.37314 22.7649 3.08 22.75C2.37 22.75 2.78 22.89 2.7 22.14L2.45 21L2.78 20.51C2.89688 20.3277 3.00049 20.1372 3.09 19.94L3.15 19.76C3.27312 19.7703 3.39688 19.7703 3.52 19.76C4.11 19.76 4.74 19.54 5.32 19.52L5.82 20.66L6.14 21.21ZM12.74 22.77H11.8C11.35 22.77 10.91 22.84 10.46 22.87H10.13L10.48 21.98H10.93L12.66 21.87L13.09 22.87L12.74 22.77ZM14.88 20.51C14.7572 20.5953 14.6492 20.7 14.56 20.82L13.61 20.75H12.78C12.16 20.75 11.53 20.82 10.91 20.83L9.14 20.9C8.55 20.9 9.21 21.42 7.51 19.56H7.93C8.74 19.62 9.55 19.67 10.36 19.67C11.17 19.67 11.98 19.6 12.79 19.55C13.79 19.45 14.72 19.44 15.68 19.4L14.88 20.51ZM17.23 18.51H16.23C15.07 18.51 13.91 18.35 12.75 18.37L7.97 18.65C7.54 18.65 7.1 18.72 6.66 18.71C6.44045 18.7299 6.21955 18.7299 6 18.71C6.2 15.15 5.51 12.18 5.78 8.61999L10.11 8.75999L12 8.99999H14.17C15.17 8.93999 16.17 8.83999 17.17 8.73999V11.19L17.23 13.9L16.87 13.85H16.57C16.4683 13.8603 16.3678 13.8804 16.27 13.91C16.0288 13.9989 15.7975 14.1129 15.58 14.25C15.4993 14.2623 15.4268 14.306 15.3781 14.3716C15.3294 14.4371 15.3085 14.5192 15.32 14.6C15.326 14.6396 15.34 14.6777 15.361 14.7118C15.3819 14.746 15.4096 14.7756 15.4422 14.7989C15.4748 14.8222 15.5118 14.8387 15.5509 14.8475C15.5901 14.8563 15.6305 14.8571 15.67 14.85C15.93 14.9 16.12 14.99 16.38 15.02H16.68C16.782 15.0062 16.8824 14.9827 16.98 14.95L17.24 14.85V16.09C17.27 17.67 17.21 18.53 17.21 18.55L17.23 18.51ZM18.1 11.07V8.24999H18.48C18.7542 8.25244 19.0214 8.3365 19.2476 8.49145C19.4738 8.6464 19.6487 8.86522 19.75 9.11999C19.9244 9.54667 20.0259 9.99966 20.05 10.46C20.11 11 20.14 11.54 20.18 11.99V12.45C19.9333 12.3847 19.6828 12.3346 19.43 12.3C19.2935 12.29 19.1565 12.29 19.02 12.3L18.63 12.36C18.4292 12.4179 18.2322 12.488 18.04 12.57C18.07 12.07 18.07 11.59 18.08 11.11L18.1 11.07ZM18 16V13.34C18.22 13.34 18.44 13.43 18.68 13.45C18.8065 13.46 18.9335 13.46 19.06 13.45H19.44L20.19 13.26L20.34 16.26C20.34 16.82 20.49 17.44 20.51 18.04C20.5202 18.1898 20.5202 18.3402 20.51 18.49H19.9C19.4716 18.5022 19.0442 18.539 18.62 18.6C18.38 18.6 18.15 18.68 17.92 18.73C17.9231 18.7034 17.9231 18.6766 17.92 18.65C18 17.78 18 16.89 18 16ZM20.68 22.69C20.2 22.75 19.68 22.79 19.25 22.81C18.784 22.845 18.316 22.845 17.85 22.81H17.34H17.19C17.1622 22.7744 17.1418 22.7336 17.13 22.69C17.0904 22.5387 17.0603 22.3851 17.04 22.23C17.0252 21.9635 17.0252 21.6965 17.04 21.43C17.0581 21.3375 17.0581 21.2424 17.04 21.15C17.2545 20.8841 17.4547 20.607 17.64 20.32C17.7964 20.0813 17.9335 19.8305 18.05 19.57C18.0595 19.5204 18.0595 19.4695 18.05 19.42H18.67C19.0763 19.395 19.4837 19.395 19.89 19.42L20.24 19.37L20.59 20.31L21.18 21.38V22.27C21.18 22.27 21.25 22.52 21.27 22.7L20.68 22.69Z" fill="black"/>
<path fill-rule="evenodd" clip-rule="evenodd" d="M13.28 16.56C13.2941 16.3474 13.3276 16.1365 13.38 15.93C13.38 15.59 13.38 15.24 13.3 14.93C13.2 14.14 13.02 13.38 12.9 12.6C12.9001 12.5602 12.892 12.5208 12.8762 12.4842C12.8604 12.4477 12.8372 12.4148 12.8081 12.3875C12.779 12.3603 12.7447 12.3394 12.7071 12.3261C12.6696 12.3127 12.6297 12.3073 12.59 12.31C12.5497 12.31 12.5099 12.3181 12.4728 12.3338C12.4358 12.3495 12.4022 12.3725 12.3743 12.4014C12.3463 12.4303 12.3244 12.4646 12.3099 12.5021C12.2954 12.5397 12.2887 12.5798 12.29 12.62L12.21 16C12.1906 16.3331 12.1906 16.667 12.21 17C12.2228 17.1083 12.2601 17.2123 12.319 17.3042C12.3779 17.396 12.4569 17.4732 12.55 17.53C13.4473 17.6696 14.3523 17.7531 15.26 17.78C15.6994 17.7636 16.1371 17.7168 16.57 17.64C17.04 17.43 16.9 17.15 16.57 16.86H15.57C15.22 16.86 13.46 16.64 13.28 16.56Z" fill="black"/>
<path fill-rule="evenodd" clip-rule="evenodd" d="M13.45 10.21L11 10.11C10.59 10.11 10.2 10.11 9.81 10.17C9.38074 10.1976 8.9553 10.2679 8.54 10.38C8.46126 10.3924 8.39032 10.4346 8.3419 10.4979C8.29349 10.5612 8.27132 10.6408 8.28 10.72C8.28367 10.7604 8.29551 10.7997 8.3148 10.8354C8.33408 10.8711 8.36042 10.9025 8.3922 10.9278C8.42399 10.953 8.46057 10.9715 8.49972 10.9822C8.53888 10.9929 8.5798 10.9956 8.62 10.99C9.16809 11.0335 9.71264 11.1136 10.25 11.23C10.5031 11.2452 10.7569 11.2452 11.01 11.23C11.27 11.23 11.52 11.23 11.78 11.17C12.35 11.08 12.9 10.93 13.47 10.85C13.5159 10.8515 13.5616 10.8433 13.6042 10.8261C13.6468 10.8089 13.6853 10.783 13.7173 10.7501C13.7493 10.7172 13.7741 10.6779 13.7901 10.6348C13.806 10.5918 13.8128 10.5458 13.81 10.5C13.7955 10.4162 13.7509 10.3405 13.6847 10.2871C13.6184 10.2337 13.535 10.2063 13.45 10.21Z" fill="black"/>
<path fill-rule="evenodd" clip-rule="evenodd" d="M10 6.59997C10.5002 6.66932 11.0063 6.68608 11.51 6.64997H12.67C12.9376 6.64489 13.2047 6.62486 13.47 6.58997C13.668 6.5803 13.8652 6.55691 14.06 6.51997C14.184 6.48487 14.2974 6.41959 14.39 6.32997C14.5627 6.1593 14.678 5.93912 14.72 5.69997C14.7597 5.36782 14.7597 5.03212 14.72 4.69997C14.7419 4.23283 14.6981 3.76494 14.59 3.30997C14.5029 3.09754 14.3548 2.91573 14.1643 2.78756C13.9738 2.65939 13.7496 2.59062 13.52 2.58997H12.86H11.94C11.53 2.58997 11.11 2.63997 10.7 2.67997C10.4149 2.70122 10.1311 2.73795 9.85 2.78997C9.06 2.89997 9.11 3.23997 9.11 3.25997L9.12 4.99997V5.63997C9.13256 5.78321 9.17335 5.92255 9.24 6.04997C9.32325 6.18798 9.43345 6.30782 9.56403 6.40231C9.6946 6.49681 9.84288 6.56403 10 6.59997ZM10 3.46997H10.79H12H12.87L13.42 3.54997C13.5058 3.55631 13.5869 3.59156 13.65 3.64997C13.72 3.72997 13.65 3.84997 13.65 3.97997V4.71997C13.65 5.45997 13.88 5.31997 13.38 5.40997L11.58 5.52997C11.3 5.52997 10.82 5.65997 10.39 5.64997C10.24 5.64997 10.09 5.64997 10.02 5.57997L9.9 4.99997L9.78 3.43997C9.8468 3.47773 9.92553 3.48847 10 3.46997Z" fill="black"/>
<path fill-rule="evenodd" clip-rule="evenodd" d="M11.3 5C11.4087 4.96896 11.5043 4.90337 11.5723 4.81315C11.6404 4.72293 11.6772 4.613 11.6772 4.5C11.6772 4.38699 11.6404 4.27706 11.5723 4.18684C11.5043 4.09663 11.4087 4.03104 11.3 4C11.177 3.99517 11.0554 4.02646 10.95 4.09C10.95 4.09 10.72 4.16 10.72 4.55C10.7375 4.68648 10.8083 4.81047 10.917 4.89482C11.0257 4.97917 11.1635 5.01699 11.3 5Z" fill="black"/>
</g>
<defs>
<clipPath id="clip0_1047_6124">
<rect width="24" height="24" fill="white"/>
</clipPath>
</defs>
</svg>
