<svg width="24" height="24" viewBox="0 0 24 24" fill="none" xmlns="http://www.w3.org/2000/svg">
<g clip-path="url(#clip0_1034_4317)">
<path fill-rule="evenodd" clip-rule="evenodd" d="M21.91 19.16C21.4269 19.0919 20.9357 19.2028 20.5287 19.4717C20.1217 19.7406 19.8269 20.149 19.7 20.62C18.5373 19.8661 17.2289 19.3653 15.86 19.15C16.0942 18.8428 16.2252 18.4693 16.2341 18.0831C16.2431 17.6969 16.1297 17.3177 15.91 17C17.77 15.75 17.65 16.16 19.42 14.52C19.6423 14.8303 19.9487 15.0705 20.3031 15.2122C20.6575 15.354 21.045 15.3914 21.42 15.32C21.7756 15.2624 22.1091 15.1099 22.3851 14.8785C22.6612 14.6471 22.8697 14.3454 22.9885 14.0054C23.1073 13.6653 23.1321 13.2994 23.0602 12.9465C22.9883 12.5935 22.8224 12.2665 22.58 12C22.3383 11.7358 22.0282 11.5436 21.684 11.4448C21.3399 11.3459 20.9751 11.3443 20.63 11.44C20.535 11.4579 20.4509 11.5122 20.3954 11.5914C20.34 11.6705 20.3178 11.7682 20.3334 11.8636C20.3491 11.9589 20.4015 12.0444 20.4793 12.1016C20.5572 12.1589 20.6543 12.1834 20.75 12.17C21.0152 12.1156 21.2912 12.1688 21.5171 12.3179C21.7431 12.467 21.9006 12.6998 21.955 12.965C22.0094 13.2302 21.9562 13.5061 21.8071 13.7321C21.658 13.9581 21.4252 14.1156 21.16 14.17C20.9418 14.2218 20.7128 14.2044 20.505 14.1201C20.2971 14.0359 20.1206 13.8891 20 13.7C19.9035 13.5541 19.8431 13.3872 19.824 13.2133C19.8048 13.0394 19.8275 12.8634 19.89 12.7C19.9499 12.6384 19.9834 12.5559 19.9834 12.47C19.9834 12.3841 19.9499 12.3016 19.89 12.24C19.53 11.94 18.89 12.58 19.11 13.68C18.2996 14.0291 17.5422 14.4903 16.86 15.05C16.3443 15.4753 15.869 15.9473 15.44 16.46C15.09 16.22 14.7 16 14.51 16.38C14.468 16.4691 14.4622 16.571 14.4939 16.6643C14.5257 16.7576 14.5924 16.8349 14.68 16.88C14.9227 16.9914 15.1112 17.1946 15.204 17.445C15.2968 17.6953 15.2864 17.9723 15.175 18.215C15.0636 18.4576 14.8604 18.6461 14.61 18.739C14.3597 18.8318 14.0827 18.8214 13.84 18.71C13.6374 18.6337 13.4633 18.4967 13.3416 18.3177C13.2199 18.1387 13.1564 17.9264 13.16 17.71C13.16 17.41 13.37 16.96 13.63 16.87C13.7145 16.8508 13.7882 16.7992 13.8349 16.7262C13.8817 16.6532 13.8979 16.5648 13.88 16.48C13.76 15.96 12.67 16.27 12.26 17.48C12.1341 17.8876 12.1419 18.3249 12.2823 18.7278C12.4226 19.1307 12.6881 19.4782 13.0399 19.7194C13.3918 19.9607 13.8116 20.0832 14.238 20.0689C14.6644 20.0546 15.0751 19.9043 15.41 19.64C16.88 20.57 16.7 20.77 19.72 21.39C19.8721 21.9671 20.2168 22.475 20.6968 22.8296C21.1769 23.1842 21.7637 23.3642 22.36 23.34C22.8471 23.2055 23.2705 22.9022 23.5546 22.4844C23.8388 22.0665 23.9651 21.5612 23.911 21.0588C23.8569 20.5564 23.6259 20.0895 23.2594 19.7417C22.8928 19.3939 22.4146 19.1877 21.91 19.16ZM22.74 21.33C22.66 22.08 22.28 22.33 21.82 22.33C21.5088 22.3161 21.2078 22.215 20.9514 22.0381C20.695 21.8613 20.4935 21.6159 20.37 21.33C20.3659 21.1595 20.4015 20.9903 20.4741 20.8359C20.5466 20.6816 20.654 20.5462 20.7879 20.4404C20.9217 20.3347 21.0783 20.2616 21.2453 20.2268C21.4123 20.192 21.5851 20.1965 21.75 20.24C22.0536 20.3083 22.3333 20.4568 22.56 20.67C22.6424 20.7564 22.702 20.862 22.7334 20.9772C22.7648 21.0924 22.7671 21.2137 22.74 21.33Z" fill="black"/>
<path fill-rule="evenodd" clip-rule="evenodd" d="M10.36 19.17C3.36 18.99 3.27 19.02 2.51 18.87C2.07334 18.8337 1.65979 18.6585 1.33 18.37C1.6304 17.9411 1.88512 17.4819 2.09 17C4.48 10.54 3.87 6.99997 4.06 3.73997C4.06 4.05997 4.11 1.57997 4.06 1.49997C4.04475 1.4628 4.02218 1.42906 3.99364 1.40078C3.9651 1.37249 3.93117 1.35022 3.89387 1.3353C3.85656 1.32038 3.81663 1.3131 3.77646 1.3139C3.73628 1.31471 3.69668 1.32357 3.66 1.33997C3.34 1.47997 3.43 1.95997 3.42 2.11997C3.03 9.37997 2.74 10.76 1.72 14.3C1.47113 15.2484 1.15362 16.1776 0.769998 17.08C0.459998 17.7 0.0499982 18.2 -1.79606e-06 18.41C-0.0197003 18.5777 0.0141932 18.7474 0.0968238 18.8947C0.179454 19.042 0.306582 19.1593 0.459998 19.23C1.04187 19.5433 1.66962 19.7627 2.32 19.88C3.17 20.01 3.32 19.97 10.38 19.88C10.4741 19.8773 10.5634 19.8374 10.6281 19.7689C10.6928 19.7005 10.7277 19.6091 10.725 19.515C10.7223 19.4208 10.6824 19.3316 10.6139 19.2669C10.5455 19.2022 10.4541 19.1673 10.36 19.17Z" fill="black"/>
<path fill-rule="evenodd" clip-rule="evenodd" d="M13.31 3.14996C13.54 4.47996 11.47 6.63996 13.57 6.81996C14.54 6.86304 15.508 6.69943 16.41 6.33996L17.62 5.79996C17.88 5.67996 17.93 5.45996 17.83 5.29996C17.59 4.90996 16.71 5.29996 16.09 5.54996C15.3178 5.71146 14.5278 5.77197 13.74 5.72996C14.2224 4.6621 14.3144 3.45874 14 2.32996C13.6 1.99996 13.16 2.28996 13.31 3.14996Z" fill="black"/>
<path fill-rule="evenodd" clip-rule="evenodd" d="M14.37 0.669984C13.26 0.589984 14 0.609984 5.5 0.819984C5.40982 0.819984 5.32334 0.855805 5.25958 0.919568C5.19582 0.98333 5.16 1.06981 5.16 1.15998C5.16 1.25016 5.19582 1.33664 5.25958 1.4004C5.32334 1.46416 5.40982 1.49998 5.5 1.49998C5.5 1.49998 14.06 1.78998 14.27 1.80998C15.21 1.88998 18.37 4.80998 18.36 5.37998C18.36 6.84998 18.06 9.24998 17.91 10.68C17.8994 10.7595 17.9208 10.8401 17.9696 10.9038C18.0183 10.9676 18.0904 11.0094 18.17 11.02C18.2496 11.0306 18.3301 11.0092 18.3938 10.9604C18.4576 10.9116 18.4994 10.8395 18.51 10.76C18.7 9.53998 19.19 7.06998 19.34 5.43998C19.49 3.80998 15.71 0.789984 14.37 0.669984Z" fill="black"/>
<path fill-rule="evenodd" clip-rule="evenodd" d="M19.68 2.17997C20.641 3.02291 21.3214 4.13946 21.63 5.37997C21.63 6.84997 21.17 8.86997 21.02 10.3C21.0094 10.3795 21.0308 10.4601 21.0796 10.5238C21.1283 10.5876 21.2004 10.6294 21.28 10.64C21.3596 10.6506 21.4401 10.6291 21.5038 10.5804C21.5676 10.5316 21.6094 10.4595 21.62 10.38C21.81 9.15997 22.46 7.06997 22.62 5.43997C22.5812 4.63864 22.3524 3.85803 21.9525 3.16254C21.5526 2.46706 20.993 1.87662 20.32 1.43997C19.33 0.929966 19.21 1.89997 19.68 2.17997Z" fill="black"/>
<path fill-rule="evenodd" clip-rule="evenodd" d="M8.59 9.39996C8.59 9.07996 8.39 9.00996 8.1 9.05996C7.85359 9.14548 7.62111 9.26678 7.41 9.41996C6.60633 9.81148 5.91741 10.4039 5.41 11.14C5.09 11.76 5.82 12.14 5.97 12.32C6.56137 12.8358 7.18243 13.3167 7.83 13.76C7.89481 13.8176 7.97919 13.8482 8.06586 13.8457C8.15254 13.8431 8.23496 13.8075 8.29627 13.7462C8.35759 13.6849 8.39316 13.6025 8.39571 13.5158C8.39826 13.4292 8.3676 13.3448 8.31 13.28C8 12.91 7.57 12.52 7.19 12.11C6.81 11.7 6.98 11.74 6.56 11.46C7.74 9.99996 8.64 9.86996 8.59 9.39996Z" fill="black"/>
<path fill-rule="evenodd" clip-rule="evenodd" d="M13.79 10.09C13.076 9.61641 12.273 9.29317 11.43 9.14001C11.3781 9.16978 11.3349 9.21274 11.3049 9.26454C11.2749 9.31634 11.259 9.37514 11.259 9.43501C11.259 9.49488 11.2749 9.55369 11.3049 9.60549C11.3349 9.65729 11.3781 9.70025 11.43 9.73001C11.958 10.0112 12.4659 10.3286 12.95 10.68C12.74 11.01 12.03 11.86 11.66 12.3C11.29 12.74 10.66 12.96 10.97 13.3C11.28 13.64 11.84 13.21 12.26 12.87C13.28 12.1 14.85 11 13.79 10.09Z" fill="black"/>
</g>
<defs>
<clipPath id="clip0_1034_4317">
<rect width="24" height="24" fill="white"/>
</clipPath>
</defs>
</svg>
