<svg width="24" height="24" viewBox="0 0 24 24" fill="none" xmlns="http://www.w3.org/2000/svg">
<g clip-path="url(#clip0_1034_4245)">
<path fill-rule="evenodd" clip-rule="evenodd" d="M15.71 5.61001C15.489 5.61103 15.2683 5.59431 15.05 5.56001C15.11 5.34001 15.2 5.08001 15.29 4.80001C15.72 3.38001 15.93 1.89001 14.79 0.930012C14.7371 0.888574 14.6707 0.868349 14.6036 0.87329C14.5366 0.87823 14.4739 0.907981 14.4276 0.956729C14.3814 1.00548 14.355 1.06972 14.3536 1.1369C14.3521 1.20408 14.3758 1.26937 14.42 1.32001C15.6 2.60001 14.15 4.37001 14 5.71001C13.85 7.05001 17.07 6.61001 18.18 6.10001L19.87 5.39001C19.9399 5.3534 19.9955 5.29422 20.0275 5.22208C20.0596 5.14994 20.0663 5.06908 20.0466 4.99263C20.0269 4.91618 19.982 4.84863 19.919 4.80095C19.8561 4.75328 19.7789 4.72828 19.7 4.73001C17.58 5.50001 17.49 5.65001 15.71 5.61001Z" fill="black"/>
<path fill-rule="evenodd" clip-rule="evenodd" d="M15.88 0.06C14.5 0 15.13 0 5.99999 0C5.91379 0 5.83113 0.034241 5.77018 0.0951903C5.70923 0.15614 5.67499 0.238805 5.67499 0.325C5.67499 0.411195 5.70923 0.49386 5.77018 0.55481C5.83113 0.615759 5.91379 0.65 5.99999 0.65C14.51 0.72 14.76 0.65 15.82 0.81C16.88 0.97 19.57 3.46 20.25 4.51C20.3932 4.68332 20.4804 4.89604 20.5 5.12C20.4 6.66 19.76 11.12 19.5 12.2C19.24 13.28 19.05 14 18.87 14.91C18.8 15.27 18.35 19.51 17.22 20.06C15.63 20.83 13.85 20.32 12.22 20.46C10.6978 20.6069 9.16921 20.6769 7.63999 20.67C2.23999 20.48 2.48999 20.56 1.02999 19.86C2.35999 18.05 3.24999 13.86 3.71999 11.41C4.24999 8.71 4.06999 5.96 4.27999 3.24C4.27999 2.77 4.74999 0.24 3.97999 0.62C3.66999 0.76 3.76999 1.22 3.76999 1.43C3.76999 2.78 3.43999 8.02 3.35999 8.89C2.96379 12.1569 2.12964 15.3556 0.879988 18.4C0.719988 18.7 0.529988 18.99 0.349988 19.27C0.2057 19.4397 0.0907848 19.6324 0.0099883 19.84C-0.00515796 19.9955 0.027999 20.1519 0.104944 20.2879C0.181888 20.4239 0.298881 20.5329 0.439988 20.6C1.06444 20.9529 1.73876 21.2091 2.43999 21.36C5.71034 21.6828 9.00225 21.7263 12.28 21.49C13.97 21.34 15.85 21.88 17.69 20.98C19.37 20.16 19.75 15.73 19.87 15.1C20.04 14.19 20.28 13.3 20.46 12.4C20.64 11.5 21.25 6.9 21.34 5.16C21.42 3.65 17.27 0.17 15.88 0.06Z" fill="black"/>
<path fill-rule="evenodd" clip-rule="evenodd" d="M23.09 5.81C22.99 7.35 22.15 13.52 21.93 14.56C21.71 15.6 21.48 16.36 21.3 17.27C21.23 17.63 20.78 21.87 19.65 22.42C18.06 23.18 16.28 22.68 14.65 22.82C13.65 22.91 11.41 23.07 10.07 23.03C4.91999 22.84 4.92999 23.03 3.66999 22.46C2.93999 22.17 2.75999 22.87 3.20999 23.18C3.7258 23.4842 4.30334 23.6688 4.89999 23.72C8.16709 24.043 11.456 24.0832 14.73 23.84C16.42 23.7 18.3 24.24 20.14 23.34C21.82 22.52 22.21 18.09 22.32 17.46C22.49 16.55 22.73 15.66 22.91 14.76C23.09 13.86 23.92 7.68 24 6C24.05 5.06 23.2 4.92 23.09 5.81Z" fill="black"/>
<path fill-rule="evenodd" clip-rule="evenodd" d="M7.12 13.86C7.05599 13.9255 7.01404 14.0094 7 14.1C7.07 14.53 9.54 12.66 9.61 12.61C9.75875 12.5113 9.88482 12.3821 9.97988 12.231C10.0749 12.0799 10.1368 11.9104 10.1614 11.7336C10.186 11.5568 10.1727 11.3767 10.1225 11.2055C10.0722 11.0342 9.98618 10.8755 9.87 10.74C9.13142 10.1725 8.32107 9.7051 7.46 9.34998C6.92 9.72998 8.46 10.59 8.97 11.03C10 12 8.31 12.05 7.12 13.86Z" fill="black"/>
<path fill-rule="evenodd" clip-rule="evenodd" d="M15 12C15.0716 12 15.1403 11.9715 15.1909 11.9209C15.2415 11.8703 15.27 11.8016 15.27 11.73C15.27 11.6584 15.2415 11.5897 15.1909 11.5391C15.1403 11.4884 15.0716 11.46 15 11.46C13.8285 11.1373 12.5915 11.1373 11.42 11.46C11.359 11.4666 11.3031 11.4972 11.2647 11.545C11.2262 11.5929 11.2083 11.654 11.215 11.715C11.2216 11.776 11.2522 11.8319 11.3 11.8703C11.3478 11.9088 11.409 11.9266 11.47 11.92C12.634 12.1425 13.827 12.1696 15 12Z" fill="black"/>
</g>
<defs>
<clipPath id="clip0_1034_4245">
<rect width="24" height="24" fill="white"/>
</clipPath>
</defs>
</svg>
