<svg width="24" height="24" viewBox="0 0 24 24" fill="none" xmlns="http://www.w3.org/2000/svg">
<g clip-path="url(#clip0_1048_7155)">
<path d="M21.6 12.62C21.5624 12.62 21.5252 12.6275 21.4905 12.6422C21.4559 12.6569 21.4246 12.6784 21.3984 12.7055C21.3723 12.7326 21.3519 12.7646 21.3384 12.7998C21.3249 12.8349 21.3187 12.8724 21.32 12.91C21.32 14.12 21.37 15.62 21.32 17.05C21.303 17.957 21.2295 18.8621 21.1 19.76C21.0704 20.2252 21.0001 20.687 20.89 21.14C20.8122 21.3719 20.6742 21.579 20.49 21.74C19.936 22.0374 19.3267 22.2178 18.7 22.27C17.0857 22.4935 15.4595 22.6204 13.83 22.65C11.7 22.71 9.42004 22.65 7.51004 22.65C6.13221 22.6396 4.75757 22.5158 3.40004 22.28C2.89923 22.1429 2.44813 21.8653 2.10004 21.48C1.75043 21.085 1.50925 20.6061 1.40004 20.09C1.26039 19.2397 1.17688 18.3812 1.15004 17.52C1.06004 15.52 1.15004 13.58 1.15004 13.58C1.13658 13.5036 1.09663 13.4343 1.03719 13.3845C0.977753 13.3346 0.902637 13.3072 0.82504 13.3072C0.747443 13.3072 0.672327 13.3346 0.61289 13.3845C0.553453 13.4343 0.513497 13.5036 0.50004 13.58C0.50004 13.58 0.39004 15.58 0.42004 17.58C0.417972 18.4558 0.471413 19.3309 0.58004 20.2C0.710088 20.863 1.00596 21.4823 1.44004 22C1.88465 22.5341 2.47547 22.9268 3.14004 23.13C4.56391 23.4385 6.01361 23.6126 7.47004 23.65C9.41004 23.75 11.72 23.79 13.88 23.71C15.3158 23.6665 16.748 23.543 18.17 23.34C19.2004 23.2671 20.1983 22.9482 21.08 22.41C21.3899 22.1456 21.6187 21.7989 21.74 21.41C21.8445 20.906 21.9081 20.3943 21.93 19.88C22.0069 18.9421 22.0302 18.0006 22 17.06C22 15.61 21.9 14.12 21.85 12.9C21.8504 12.8307 21.8251 12.7636 21.7789 12.7119C21.7327 12.6602 21.669 12.6274 21.6 12.62Z" fill="black"/>
<path d="M23.68 10.66C23.12 10.71 22.57 10.74 22.01 10.77C22.1044 10.4755 22.1779 10.1748 22.23 9.86995C22.2745 9.53859 22.2912 9.2041 22.28 8.86995C22.28 8.35995 22.18 7.86995 22.13 7.33995C22.1327 7.29711 22.1268 7.25415 22.1125 7.21366C22.0983 7.17316 22.076 7.13594 22.0471 7.10421C22.0182 7.07249 21.9832 7.04691 21.9442 7.029C21.9051 7.01109 21.8629 7.00121 21.82 6.99995C21.7777 6.99721 21.7352 7.0032 21.6952 7.01755C21.6553 7.0319 21.6187 7.0543 21.5878 7.08336C21.5568 7.11243 21.5322 7.14753 21.5154 7.18651C21.4986 7.22549 21.4899 7.2675 21.49 7.30995C21.4 7.80995 21.31 8.30995 21.25 8.78995C21.2163 8.99531 21.1929 9.20224 21.18 9.40995V10.02V10.86C20.47 10.86 19.75 10.92 19.04 10.93H15.31H14.44V10.35C14.2542 8.97135 13.6861 7.67233 12.8 6.59995H12.95C13.32 6.72995 13.71 6.86995 14.09 7.03995C14.8629 7.38726 15.6173 7.77445 16.35 8.19995C16.4145 8.2395 16.4915 8.25323 16.5657 8.2384C16.6399 8.22356 16.7057 8.18126 16.75 8.11995C16.792 8.05618 16.8072 7.9784 16.7922 7.90351C16.7773 7.82862 16.7333 7.76266 16.67 7.71995C15.8421 7.02106 14.9479 6.40479 14 5.87995C13.3368 5.51838 12.6103 5.28754 11.86 5.19995C11.731 5.20483 11.6068 5.24985 11.5046 5.32872C11.4024 5.4076 11.3274 5.5164 11.29 5.63995L11.18 6.04995L10.89 6.83995C10.7545 7.1416 10.5904 7.42958 10.4 7.69995C10.1 8.12995 9.75001 8.53995 9.40001 8.97995C9.36606 9.01241 9.33943 9.05174 9.32191 9.09532C9.30438 9.13889 9.29635 9.18571 9.29837 9.23263C9.30038 9.27956 9.31239 9.32551 9.33359 9.36742C9.35479 9.40934 9.38469 9.44624 9.4213 9.47567C9.4579 9.5051 9.50037 9.52637 9.54586 9.53807C9.59135 9.54977 9.63881 9.55163 9.68507 9.54351C9.73133 9.5354 9.77533 9.5175 9.81412 9.49102C9.85291 9.46454 9.8856 9.43008 9.91001 9.38995C10.34 8.90995 10.8 8.48995 11.2 7.99995C11.3868 7.77581 11.5572 7.53853 11.71 7.28995L12 6.72995C12.7841 7.791 13.2489 9.0538 13.34 10.37V10.82H11.54C8.17001 10.75 4.81001 10.68 1.48001 10.67C1.53001 10.39 1.58001 10.12 1.61001 9.83995C1.63657 9.66436 1.65327 9.48741 1.66001 9.30995C1.67 9.13343 1.67 8.95648 1.66001 8.77995C1.66001 8.34995 1.54001 7.95995 1.50001 7.52995C1.50273 7.49185 1.49789 7.45358 1.48578 7.41736C1.47367 7.38113 1.45452 7.34765 1.42943 7.31884C1.40434 7.29004 1.37381 7.26647 1.33959 7.2495C1.30536 7.23253 1.26813 7.22249 1.23001 7.21995C1.19322 7.21723 1.15626 7.2218 1.12124 7.23341C1.08622 7.24502 1.05385 7.26343 1.02597 7.2876C0.998092 7.31176 0.975263 7.34119 0.958796 7.3742C0.942328 7.40721 0.932546 7.44315 0.930012 7.47995C0.811171 7.88103 0.714359 8.2883 0.640012 8.69995C0.625124 8.87964 0.625124 9.06026 0.640012 9.23995C0.625026 9.42298 0.625026 9.60692 0.640012 9.78995C0.661817 10.0717 0.698535 10.3521 0.750012 10.63H0.330012C0.2826 10.6279 0.235321 10.6364 0.191599 10.6548C0.147876 10.6733 0.108806 10.7012 0.0772182 10.7366C0.0456301 10.7721 0.0223149 10.8141 0.00896162 10.8596C-0.00439171 10.9051 -0.00744887 10.9531 1.15978e-05 11C0.00236931 11.085 0.0365477 11.1661 0.095795 11.2272C0.155042 11.2883 0.235049 11.325 0.320012 11.33C0.700012 11.33 7.77001 11.76 8.73001 11.81C10.26 11.89 11.8 11.94 13.34 11.96V12.29C13.2567 12.9131 13.1229 13.5285 12.94 14.13C12.5141 15.5705 11.7534 16.8897 10.72 17.98C10.6934 18.006 10.6723 18.0371 10.6578 18.0715C10.6434 18.1058 10.636 18.1427 10.636 18.18C10.636 18.2172 10.6434 18.2541 10.6578 18.2884C10.6723 18.3228 10.6934 18.3539 10.72 18.38C10.7461 18.4066 10.7772 18.4277 10.8115 18.4421C10.8459 18.4566 10.8828 18.464 10.92 18.464C10.9573 18.464 10.9941 18.4566 11.0285 18.4421C11.0628 18.4277 11.0939 18.4066 11.12 18.38C12.3753 17.334 13.3426 15.9847 13.93 14.46C14.179 13.816 14.3503 13.1445 14.44 12.46V12C17.559 11.9875 20.6732 11.757 23.76 11.31C23.8342 11.2977 23.9011 11.2579 23.9474 11.1987C23.9937 11.1394 24.016 11.0649 24.01 10.99C24.0192 10.9447 24.017 10.8978 24.0037 10.8536C23.9903 10.8093 23.9662 10.7691 23.9336 10.7364C23.9009 10.7037 23.8606 10.6796 23.8164 10.6663C23.7722 10.653 23.7253 10.6508 23.68 10.66Z" fill="black"/>
<path d="M19.23 0.869974C19.7796 0.98298 20.3089 1.17853 20.8 1.44997C20.9763 1.54191 21.1353 1.66371 21.27 1.80997C21.4048 1.94622 21.5193 2.10114 21.61 2.26997C21.8637 2.75364 22.0136 3.285 22.05 3.82997C22.05 3.90689 22.0805 3.98065 22.1349 4.03504C22.1893 4.08942 22.2631 4.11997 22.34 4.11997C22.4169 4.11997 22.4907 4.08942 22.5451 4.03504C22.5994 3.98065 22.63 3.90689 22.63 3.82997C22.7687 3.16796 22.7481 2.48248 22.57 1.82997C22.4609 1.5179 22.2832 1.23427 22.05 0.999974C21.8173 0.776874 21.5417 0.603366 21.24 0.489974C20.6216 0.282145 19.9724 0.180706 19.32 0.189974C19.2383 0.19448 19.1609 0.228312 19.1021 0.285257C19.0434 0.342202 19.0071 0.41844 19 0.499974C18.9889 0.578817 19.0059 0.659037 19.0479 0.726652C19.09 0.794266 19.1544 0.844987 19.23 0.869974Z" fill="black"/>
<path d="M12.88 1.25997C13.31 1.33997 13.72 1.43997 14.15 1.50997C14.3321 1.54038 14.5157 1.56041 14.7 1.56997C14.8797 1.58495 15.0604 1.58495 15.24 1.56997C15.68 1.56997 16.09 1.47997 16.53 1.44997C16.5676 1.4541 16.6056 1.45058 16.6418 1.43962C16.678 1.42865 16.7116 1.41048 16.7406 1.38618C16.7695 1.36189 16.7933 1.33198 16.8104 1.29825C16.8275 1.26453 16.8376 1.2277 16.84 1.18997C16.8458 1.11615 16.8231 1.04291 16.7767 0.985272C16.7302 0.927633 16.6634 0.889958 16.59 0.879971C16.16 0.749971 15.75 0.619971 15.32 0.529971C15.1346 0.500097 14.9476 0.480069 14.76 0.469971C14.5768 0.45988 14.3932 0.45988 14.21 0.469971C13.77 0.469971 13.35 0.549971 12.91 0.599971C12.8672 0.597269 12.8242 0.603216 12.7837 0.617458C12.7432 0.6317 12.706 0.653946 12.6743 0.68287C12.6426 0.711795 12.617 0.746807 12.5991 0.785823C12.5812 0.824838 12.5713 0.867058 12.57 0.909971C12.5673 0.953324 12.5732 0.996786 12.5873 1.03786C12.6015 1.07894 12.6236 1.11682 12.6524 1.14934C12.6812 1.18186 12.7161 1.20837 12.7552 1.22735C12.7942 1.24634 12.8367 1.25742 12.88 1.25997Z" fill="black"/>
<path d="M7.38 1.28996C7.73 1.33996 8.06 1.41996 8.38 1.45996H8.82C8.96984 1.4699 9.12017 1.4699 9.27 1.45996C9.63 1.39996 9.95 1.28996 10.27 1.20996C10.3469 1.20996 10.4207 1.17941 10.4751 1.12502C10.5294 1.07064 10.56 0.996876 10.56 0.919963C10.56 0.84305 10.5294 0.769287 10.4751 0.714902C10.4207 0.660516 10.3469 0.629963 10.27 0.629963C10 0.559963 9.65 0.459963 9.29 0.409963C9.14017 0.399996 8.98984 0.399996 8.84 0.409963C8.69352 0.399641 8.54649 0.399641 8.4 0.409963C8.04 0.409963 7.71 0.549963 7.4 0.619963C7.34705 0.60996 7.29248 0.612686 7.2408 0.627915C7.18911 0.643144 7.14178 0.67044 7.10271 0.707554C7.06365 0.744667 7.03396 0.790535 7.0161 0.841375C6.99824 0.892215 6.99273 0.946571 7 0.999963C7.00486 1.0444 7.0187 1.08738 7.04068 1.12631C7.06265 1.16524 7.09231 1.19929 7.12784 1.22641C7.16338 1.25353 7.20405 1.27315 7.2474 1.28407C7.29074 1.295 7.33586 1.297 7.38 1.28996Z" fill="black"/>
<path d="M1.15004 4.45997C1.19231 4.46703 1.23559 4.46525 1.27714 4.45474C1.31869 4.44423 1.3576 4.42522 1.39143 4.39891C1.42526 4.37259 1.45327 4.33955 1.47368 4.30187C1.4941 4.26419 1.50648 4.22268 1.51004 4.17997C1.62551 3.5859 1.8456 3.01706 2.16004 2.49997C2.26641 2.30773 2.40904 2.13793 2.58004 1.99997C2.75044 1.86965 2.93914 1.76519 3.14004 1.68997C3.71908 1.46991 4.32406 1.32539 4.94004 1.25997C5.01029 1.25792 5.07741 1.23043 5.12891 1.1826C5.18042 1.13478 5.2128 1.06988 5.22004 0.99997C5.21745 0.924804 5.18575 0.853585 5.13164 0.801344C5.07754 0.749102 5.00525 0.719926 4.93004 0.71997C4.2345 0.608236 3.52558 0.608236 2.83004 0.71997C2.48711 0.797197 2.16679 0.953012 1.89435 1.17514C1.6219 1.39726 1.40476 1.67962 1.26004 1.99997C0.985566 2.66528 0.852743 3.38048 0.870039 4.09997C0.864446 4.14204 0.867278 4.18481 0.878372 4.22578C0.889465 4.26675 0.908598 4.3051 0.934656 4.3386C0.960714 4.3721 0.993176 4.40009 1.03015 4.42093C1.06713 4.44176 1.10788 4.45503 1.15004 4.45997Z" fill="black"/>
</g>
<defs>
<clipPath id="clip0_1048_7155">
<rect width="24" height="24" fill="white"/>
</clipPath>
</defs>
</svg>
