<svg width="24" height="24" viewBox="0 0 24 24" fill="none" xmlns="http://www.w3.org/2000/svg">
<g clip-path="url(#clip0_1033_3737)">
<path fill-rule="evenodd" clip-rule="evenodd" d="M23.23 1.05C20.81 -0.109998 4.52998 0.700002 1.33998 0.810002C1.24852 0.824789 1.16532 0.871651 1.10526 0.942195C1.04521 1.01274 1.01223 1.10236 1.01223 1.195C1.01223 1.28765 1.04521 1.37727 1.10526 1.44781C1.16532 1.51835 1.24852 1.56521 1.33998 1.58C4.05998 1.52 20.2 1 22.65 2C23.17 3.44 22.5 13.37 22.5 18.3C22.6301 19.4931 22.6301 20.6969 22.5 21.89C22.11 22.1 21.97 21.98 13.85 22.26C10.5192 22.4451 7.18074 22.4451 3.84998 22.26C2.97167 22.2183 2.10019 22.0843 1.24998 21.86C0.799977 20.32 1.09998 17.86 1.06998 16.26C0.699978 1.83 1.48998 1.36 0.779977 1.33C0.691451 1.32725 0.605344 1.35914 0.539977 1.41891C0.47461 1.47867 0.435145 1.56158 0.429977 1.65C0.169977 6.44 0.0899774 11.46 0.119977 16.2C0.119977 17.95 -0.270023 20.48 0.279977 22.2C0.909977 24.25 18.37 23.33 20.28 23.27C22.19 23.21 23.57 23.56 23.82 21.62C23.864 20.4896 23.8406 19.3576 23.75 18.23C23.72 11.28 24.62 1.71 23.23 1.05Z" fill="black"/>
<path fill-rule="evenodd" clip-rule="evenodd" d="M4.47998 9.10999C4.26082 9.13728 4.03913 9.13728 3.81998 9.10999C3.45998 8.99999 2.69998 8.59999 2.06998 8.84999C1.91602 8.90438 1.78023 9.00053 1.6778 9.12768C1.57537 9.25484 1.51034 9.40798 1.48998 9.56999C1.08998 12.34 3.58998 13.79 7.04998 11.57C7.04998 11.89 7.14998 12.26 7.17998 12.63C7.26998 13.63 7.23998 13.02 6.10998 15.25C5.99587 15.4535 5.91167 15.6724 5.85998 15.9C5.7134 16.9967 5.90162 18.1121 6.39998 19.1C6.58981 19.4766 6.87366 19.7978 7.22404 20.0326C7.57442 20.2673 7.97946 20.4077 8.39998 20.44C8.69048 20.4891 8.98881 20.4267 9.23536 20.2655C9.48192 20.1042 9.65855 19.8558 9.72998 19.57C10.01 18.74 9.52998 17.14 9.41998 16.39C9.41998 16.09 9.25998 16.32 9.67998 15.49C10.043 15.9321 10.5026 16.2851 11.0234 16.5218C11.5442 16.7584 12.1124 16.8724 12.6842 16.855C13.256 16.8377 13.8162 16.6893 14.3217 16.4215C14.8272 16.1536 15.2645 15.7734 15.6 15.31C15.8144 14.9206 15.9149 14.4787 15.8902 14.0349C15.8654 13.5911 15.7164 13.1631 15.46 12.8C15.3747 12.7033 15.2677 12.6284 15.1477 12.5815C15.0277 12.5345 14.8982 12.5169 14.77 12.53C14.31 12.63 13.7 13.3 13.04 13.4C12.3959 13.4241 11.7667 13.2025 11.28 12.78C11.4383 11.9934 11.3402 11.1767 11 10.45C10.68 9.57999 10.42 9.44999 10.55 9.44999C11.64 9.79999 11.4 10.59 12.33 11.25C13.06 11.77 14.11 10.88 14.13 10.86C15 9.99999 14.41 7.06999 12 6.71999C11.2011 6.65875 10.3975 6.72628 9.61998 6.91999C9.91045 6.3244 9.97264 5.64302 9.79479 5.00469C9.61694 4.36635 9.21137 3.8153 8.65477 3.45573C8.09816 3.09615 7.4291 2.95297 6.77408 3.05326C6.11907 3.15354 5.5235 3.49035 5.09998 3.99999C4.80904 4.29871 4.59678 4.66496 4.48223 5.06589C4.36767 5.46683 4.35439 5.88993 4.44359 6.29726C4.53279 6.7046 4.72167 7.08343 4.9933 7.3998C5.26493 7.71617 5.61083 7.96019 5.99998 8.10999C5.9005 8.1506 5.80364 8.19735 5.70998 8.24999C5.28998 8.48999 4.74998 9.09999 4.47998 9.10999ZM14.66 13.92C14.6454 14.1319 14.6154 14.3425 14.57 14.55C13.57 15.94 11.73 16.29 10.1 14.77C10.39 14.28 10.66 13.82 10.93 13.4C12.25 14.43 12.89 14.75 14.66 13.92ZM5.54998 5.60999C5.80284 4.99527 6.26759 4.49149 6.85998 4.18999C8.33998 3.39999 9.85998 5.58999 8.76998 6.83999C8.73218 6.8795 8.7036 6.92689 8.68631 6.97877C8.66902 7.03064 8.66344 7.0857 8.66998 7.13999C8.60689 7.16608 8.55312 7.21056 8.51567 7.26763C8.47821 7.32471 8.45881 7.39173 8.45998 7.45999C8.53998 8.16999 10.14 7.35999 11.82 7.78999C12.176 7.88522 12.4948 8.08631 12.7341 8.36666C12.9733 8.647 13.1219 8.99339 13.16 9.35999C13.65 11.69 11.83 9.06999 11.81 9.04999C11.2236 8.65418 10.5083 8.49682 9.80998 8.60999C9.72511 8.55429 9.62159 8.53459 9.52219 8.55522C9.4228 8.57585 9.33567 8.63512 9.27998 8.71999C9.22428 8.80486 9.20458 8.90838 9.22521 9.00777C9.24584 9.10717 9.30511 9.19429 9.38998 9.24999C10.0314 9.98189 10.4083 10.9081 10.46 11.88C10.46 12.08 10.38 12.29 10.46 12.33C9.65261 13.3984 8.93039 14.5285 8.29998 15.71C7.99998 16.45 8.89998 19.18 8.55998 19.16C8.27984 19.1277 8.01462 19.0166 7.79512 18.8396C7.57562 18.6626 7.41086 18.4269 7.31998 18.16C7.0472 17.5085 6.91761 16.8059 6.93998 16.1L7.93998 13.79C8.04453 12.9161 7.96273 12.03 7.69998 11.19C7.69998 11.19 7.77998 11.01 7.69998 10.83C7.64304 10.7466 7.55601 10.6886 7.45717 10.6681C7.35832 10.6476 7.25538 10.6662 7.16998 10.72C5.29998 11.8 2.62998 12.2 2.72998 10.08C3.31776 10.3265 3.96724 10.3859 4.58998 10.25C5.84998 10.06 5.47998 8.76999 8.11998 8.15999C8.19577 8.13281 8.25946 8.07961 8.2997 8.00986C8.33994 7.94011 8.35412 7.85835 8.33971 7.77913C8.32531 7.69991 8.28325 7.62837 8.22104 7.57725C8.15882 7.52613 8.08049 7.49875 7.99998 7.49999C7.83998 7.49999 7.69998 7.56999 7.54998 7.59999C7.49428 7.58514 7.43567 7.58514 7.37998 7.59999C7.11353 7.65382 6.8377 7.63799 6.57915 7.55404C6.32061 7.4701 6.0881 7.32086 5.9041 7.12077C5.72009 6.92068 5.59083 6.67651 5.52879 6.41185C5.46676 6.14719 5.47405 5.871 5.54998 5.60999Z" fill="black"/>
<path fill-rule="evenodd" clip-rule="evenodd" d="M15.28 3.89999C14.8938 3.87279 14.5057 3.90653 14.13 3.99999C12.47 4.32999 12.5 4.56999 12.51 4.73999C12.52 4.90999 12.51 5.11999 14.21 5.21999C14.5815 5.24183 14.9542 5.21833 15.32 5.14999C16.81 4.87999 17 4.84999 17 4.50999C17 4.16999 16.81 3.99999 15.28 3.89999Z" fill="black"/>
<path fill-rule="evenodd" clip-rule="evenodd" d="M14.82 7.66001C14.7411 7.67369 14.6695 7.71481 14.6179 7.77609C14.5664 7.83738 14.5381 7.91491 14.5381 7.99501C14.5381 8.07511 14.5664 8.15264 14.6179 8.21392C14.6695 8.27521 14.7411 8.31632 14.82 8.33001C18.57 8.70001 18.89 8.14001 20.82 8.17001C20.9208 8.18194 21.0222 8.15335 21.1019 8.09053C21.1816 8.0277 21.2331 7.93579 21.245 7.83501C21.2569 7.73423 21.2283 7.63283 21.1655 7.55313C21.1027 7.47342 21.0108 7.42194 20.91 7.41001C18.8903 6.99205 16.7987 7.07791 14.82 7.66001Z" fill="black"/>
</g>
<defs>
<clipPath id="clip0_1033_3737">
<rect width="24" height="24" fill="white"/>
</clipPath>
</defs>
</svg>
