<svg width="24" height="24" viewBox="0 0 24 24" fill="none" xmlns="http://www.w3.org/2000/svg">
<g clip-path="url(#clip0_1033_3718)">
<path d="M0.629989 6.22C0.629989 6.29426 0.659489 6.36548 0.711999 6.41799C0.76451 6.4705 0.835729 6.5 0.909989 6.5C0.98425 6.5 1.05547 6.4705 1.10798 6.41799C1.16049 6.36548 1.18999 6.29426 1.18999 6.22C1.18999 6.12 0.819989 2.16 1.18999 1.81C1.67118 1.35905 2.2848 1.07503 2.93999 1C4.99999 0.7 6.59999 1.35 6.60999 0.66C6.61133 0.618457 6.6043 0.577068 6.58933 0.538295C6.57435 0.499522 6.55173 0.464157 6.52281 0.434303C6.49388 0.40445 6.45926 0.380717 6.42098 0.364516C6.3827 0.348316 6.34155 0.339978 6.29999 0.34C5.15333 0.166802 3.99843 0.0533156 2.83999 0C1.79999 0.08 0.369989 0.59 0.109989 1.61C-0.220011 2.91 0.519989 5.52 0.629989 6.22Z" fill="black"/>
<path d="M6.29001 23C4.29001 23 2.48001 23.38 1.19001 22.21C1.05027 21.7398 0.986134 21.2503 1.00001 20.76C1.00001 18.22 1.43001 17.58 0.920013 17.53C0.882983 17.5244 0.845187 17.5265 0.80903 17.5363C0.772872 17.546 0.739144 17.5632 0.709988 17.5867C0.680833 17.6103 0.656888 17.6396 0.639677 17.6728C0.622465 17.7061 0.612363 17.7426 0.610013 17.78C0.430013 19.07 -0.519987 22.14 0.470013 23C2.29001 24.64 4.47001 23.71 6.30001 23.63C6.37377 23.6156 6.44012 23.5758 6.48744 23.5174C6.53477 23.4591 6.56005 23.3859 6.55886 23.3108C6.55766 23.2357 6.53007 23.1634 6.48092 23.1065C6.43177 23.0497 6.36418 23.012 6.29001 23Z" fill="black"/>
<path d="M17.71 0.999993C19.71 0.999993 21.53 0.619993 22.81 1.78999C22.9486 2.26045 23.0127 2.74971 23 3.23999C23 5.77999 22.57 6.42999 23.08 6.46999C23.1168 6.47415 23.1541 6.47096 23.1896 6.46062C23.2252 6.45027 23.2583 6.43297 23.2872 6.40972C23.316 6.38647 23.3399 6.35772 23.3576 6.32516C23.3752 6.29259 23.3862 6.25684 23.39 6.21999C23.56 4.99999 24.53 1.89999 23.53 0.999993C21.66 -0.640007 19.53 0.289993 17.7 0.369993C17.6262 0.384343 17.5599 0.424188 17.5126 0.482546C17.4652 0.540905 17.4399 0.614055 17.4411 0.689181C17.4423 0.764307 17.4699 0.836618 17.5191 0.893445C17.5682 0.950272 17.6358 0.98799 17.71 0.999993Z" fill="black"/>
<path d="M23.37 17.78C23.37 17.7057 23.3405 17.6345 23.288 17.582C23.2355 17.5295 23.1643 17.5 23.09 17.5C23.0157 17.5 22.9445 17.5295 22.892 17.582C22.8395 17.6345 22.81 17.7057 22.81 17.78C22.81 17.88 23.18 21.85 22.81 22.19C20.97 23.87 17.4 22.37 17.39 23.29C17.3887 23.3315 17.3957 23.3729 17.4107 23.4117C17.4256 23.4505 17.4483 23.4858 17.4772 23.5157C17.5061 23.5456 17.5407 23.5693 17.579 23.5855C17.6173 23.6017 17.6584 23.61 17.7 23.61C18.8468 23.7799 20.0017 23.89 21.16 23.94C22.16 23.88 23.63 23.35 23.89 22.34C24.21 21.08 23.48 18.47 23.37 17.78Z" fill="black"/>
<path d="M12.1 9.55C9.39997 9.43 9.02997 12.74 11.58 13.23C11.6529 13.2486 11.7302 13.2374 11.7949 13.1989C11.8596 13.1605 11.9064 13.0979 11.925 13.025C11.9435 12.9521 11.9324 12.8747 11.8939 12.81C11.8555 12.7453 11.7929 12.6986 11.72 12.68C10.23 12.16 10.55 10.46 12.02 10.62C13.23 10.62 13.82 12.23 12.49 12.56C12.4064 12.5759 12.3326 12.6244 12.2848 12.6947C12.237 12.765 12.2191 12.8515 12.235 12.935C12.2509 13.0185 12.2993 13.0923 12.3697 13.1402C12.44 13.188 12.5264 13.2059 12.61 13.19C15 12.89 14.36 9.82 12.1 9.55Z" fill="black"/>
<path d="M12.1 17.27C9.4 17.15 9 20.46 11.58 21C11.6529 21.0186 11.7303 21.0074 11.795 20.969C11.8597 20.9305 11.9064 20.868 11.925 20.795C11.9436 20.7221 11.9324 20.6448 11.894 20.5801C11.8555 20.5154 11.7929 20.4686 11.72 20.45C10.23 19.93 10.55 18.23 12.02 18.39C13.23 18.44 13.82 20 12.49 20.34C12.4436 20.3413 12.398 20.3527 12.3565 20.3734C12.3149 20.3941 12.2784 20.4235 12.2493 20.4597C12.2203 20.496 12.1995 20.5381 12.1883 20.5831C12.1772 20.6282 12.176 20.6751 12.1848 20.7207C12.1936 20.7663 12.2123 20.8094 12.2394 20.847C12.2666 20.8847 12.3016 20.916 12.342 20.9388C12.3825 20.9615 12.4274 20.9752 12.4737 20.9789C12.5199 20.9826 12.5665 20.9761 12.61 20.96C15 20.61 14.36 17.54 12.1 17.27Z" fill="black"/>
<path d="M2.94001 11.49C2.92844 11.5591 2.94315 11.63 2.98126 11.6887C3.01937 11.7474 3.07811 11.7898 3.14589 11.8073C3.21367 11.8249 3.28557 11.8164 3.34742 11.7836C3.40927 11.7508 3.45658 11.696 3.48001 11.63C3.52943 11.3237 3.69556 11.0485 3.94353 10.862C4.1915 10.6756 4.50205 10.5924 4.81001 10.63C5.81001 10.82 5.81001 12.69 4.70001 13.05C4.58155 13.0915 4.45523 13.1055 4.33055 13.0911C4.20588 13.0767 4.08609 13.0342 3.9802 12.9668C3.87432 12.8995 3.78509 12.8089 3.71924 12.7021C3.65339 12.5953 3.61262 12.4749 3.60001 12.35C3.58267 12.2691 3.53466 12.198 3.46605 12.1518C3.39745 12.1055 3.31359 12.0876 3.23208 12.1018C3.15056 12.1161 3.07773 12.1613 3.02887 12.2281C2.98 12.2949 2.95891 12.378 2.97001 12.46C3.27001 14.82 6.34001 14.22 6.61001 11.96C6.73001 9.31001 3.42001 8.94001 2.94001 11.49Z" fill="black"/>
<path d="M12.1 2.58998C9.4 2.46998 9 5.77998 11.58 6.25998C11.6166 6.27297 11.6555 6.27822 11.6942 6.27537C11.733 6.27252 11.7707 6.26165 11.805 6.24345C11.8393 6.22524 11.8694 6.2001 11.8935 6.16962C11.9175 6.13914 11.935 6.10398 11.9448 6.06639C11.9545 6.0288 11.9563 5.98959 11.9501 5.95126C11.9439 5.91293 11.9297 5.87631 11.9086 5.84373C11.8875 5.81115 11.8598 5.78332 11.8273 5.76202C11.7949 5.74071 11.7583 5.7264 11.72 5.71997C10.23 5.19998 10.55 3.49998 12.02 3.65998C13.23 3.65998 13.82 5.26998 12.49 5.59998C12.4486 5.60785 12.4092 5.6238 12.374 5.64691C12.3388 5.67002 12.3085 5.69984 12.2848 5.73466C12.2612 5.76948 12.2446 5.80863 12.236 5.84986C12.2275 5.8911 12.2271 5.93361 12.235 5.97498C12.2429 6.01634 12.2588 6.05575 12.2819 6.09095C12.3051 6.12616 12.3349 6.15646 12.3697 6.18014C12.4045 6.20382 12.4437 6.22041 12.4849 6.22896C12.5261 6.23751 12.5686 6.23785 12.61 6.22998C15 5.92998 14.36 2.85998 12.1 2.58998Z" fill="black"/>
<path d="M19.38 13.1C19.2615 13.1415 19.1352 13.1555 19.0105 13.1411C18.8859 13.1267 18.7661 13.0842 18.6602 13.0168C18.5543 12.9495 18.4651 12.8589 18.3992 12.7521C18.3334 12.6453 18.2926 12.5249 18.28 12.4C18.2728 12.3593 18.2576 12.3204 18.2354 12.2856C18.2131 12.2507 18.1842 12.2206 18.1503 12.1969C18.1164 12.1732 18.0782 12.1565 18.0378 12.1476C17.9974 12.1386 17.9557 12.1378 17.915 12.145C17.8743 12.1522 17.8354 12.1674 17.8006 12.1896C17.7657 12.2119 17.7356 12.2408 17.7119 12.2747C17.6882 12.3086 17.6715 12.3468 17.6626 12.3872C17.6536 12.4276 17.6528 12.4693 17.66 12.51C17.96 14.87 21.02 14.27 21.29 12.01C21.41 9.31 18.1 8.94 17.62 11.49C17.6084 11.5591 17.6231 11.6299 17.6613 11.6887C17.6994 11.7474 17.7581 11.7898 17.8259 11.8073C17.8937 11.8249 17.9656 11.8164 18.0274 11.7836C18.0893 11.7508 18.1366 11.696 18.16 11.63C18.2094 11.3218 18.377 11.0449 18.6272 10.8582C18.8774 10.6715 19.1905 10.5896 19.5 10.63C20.53 10.87 20.5 12.74 19.38 13.1Z" fill="black"/>
</g>
<defs>
<clipPath id="clip0_1033_3718">
<rect width="24" height="24" fill="white"/>
</clipPath>
</defs>
</svg>
