<svg width="24" height="24" viewBox="0 0 24 24" fill="none" xmlns="http://www.w3.org/2000/svg">
<g clip-path="url(#clip0_1030_2084)">
<path fill-rule="evenodd" clip-rule="evenodd" d="M10.81 21.92C10.28 21.74 9.62001 21.56 8.90001 21.38C6.90001 20.87 4.35001 20.38 2.81001 19.92C2.46807 19.7937 2.13413 19.6468 1.81001 19.48L2.25001 18.41C2.41001 17.97 2.59001 17.41 2.78001 16.71C3.17001 15.34 3.59001 13.71 3.86001 12.78C4.3048 11.1612 4.6389 9.5141 4.86001 7.84999C5.19001 5.44999 5.34001 3.01999 5.55001 0.629989L13 1.72999C13.54 1.80999 14.28 1.85999 15 1.97999L15.53 2.09999L14.81 3.60999C14.4935 4.17757 14.2226 4.76944 14 5.37999C13.8671 5.74837 13.8671 6.1516 14 6.51999C14.1316 6.77936 14.3464 6.9871 14.61 7.10999C15.0534 7.28971 15.5226 7.39773 16 7.42999C17 7.50999 18 7.42999 19 7.56999C19.2868 7.60304 19.5708 7.65651 19.85 7.72999V8.56999C19.77 9.56999 19.58 10.63 19.58 10.63C19.5756 10.7091 19.5999 10.7872 19.6483 10.8499C19.6967 10.9127 19.7661 10.9559 19.8438 10.9716C19.9215 10.9874 20.0022 10.9747 20.0713 10.9359C20.1404 10.897 20.1932 10.8346 20.22 10.76C20.22 10.76 20.53 9.36999 20.64 8.28999C20.7048 7.89261 20.7048 7.48737 20.64 7.08999C20.468 6.70394 20.2533 6.33833 20 5.99999C19.49 5.16999 18.77 4.17999 18.46 3.73999C18.15 3.29999 17.77 2.61999 17.35 2.09999C17.1365 1.8361 16.8835 1.60673 16.6 1.41999C16.2572 1.22835 15.8858 1.09328 15.5 1.01999C14.71 0.799989 13.78 0.769989 13.14 0.679989C12.3444 0.59294 11.5476 0.516267 10.75 0.449989C8.90001 0.289989 7.05001 0.179989 5.20001 -1.13524e-05C4.64001 -0.0700114 5.28001 0.169989 4.00001 7.70999C3.72709 9.31774 3.35641 10.9074 2.89001 12.47L1.32001 18.07C1.12244 18.4796 0.948815 18.9003 0.80001 19.33C0.761162 19.5146 0.761162 19.7053 0.80001 19.89C0.854552 20.071 0.971465 20.2269 1.13001 20.33C1.40054 20.4854 1.68945 20.6063 1.99001 20.69C3.88001 21.25 8.39001 21.86 10.64 22.54C10.7209 22.565 10.8084 22.557 10.8834 22.5176C10.9584 22.4783 11.0147 22.4108 11.04 22.33C11.0522 22.288 11.0558 22.2439 11.0508 22.2005C11.0458 22.157 11.0322 22.115 11.0108 22.0769C10.9894 22.0387 10.9606 22.0052 10.9262 21.9783C10.8917 21.9513 10.8522 21.9315 10.81 21.92ZM16.66 2.99999C17.03 3.45999 17.37 3.99999 17.66 4.33999C17.95 4.67999 18.73 5.68999 19.27 6.47999C19.39 6.65999 19.5 6.81999 19.59 6.96999L19.13 6.85999C18.13 6.63999 17.13 6.59999 16.13 6.41999C15.8801 6.38735 15.6329 6.33723 15.39 6.26999C15.25 6.26999 15.09 6.20999 15.04 6.09999C15.0029 5.87687 15.0306 5.64777 15.12 5.43999C15.27 4.85999 15.51 4.23999 15.6 3.93999L16.12 2.39999C16.3305 2.5703 16.5127 2.77279 16.66 2.99999Z" fill="black"/>
<path fill-rule="evenodd" clip-rule="evenodd" d="M22.08 13.55C21.7063 13.1801 21.2547 12.8983 20.7581 12.7253C20.2616 12.5523 19.7327 12.4924 19.21 12.55C18.3142 12.6894 17.4832 13.1014 16.83 13.73C15.9494 14.6156 15.1681 15.5948 14.5 16.65C14.1361 17.1393 13.8021 17.6503 13.5 18.18C13.2936 18.5518 13.1261 18.9439 13 19.35C12.7267 20.1873 12.692 21.0841 12.9 21.94C13.0828 22.5652 13.4702 23.111 14 23.49C14.3148 23.7536 14.6974 23.9233 15.1041 23.9799C15.5108 24.0365 15.9252 23.9776 16.3 23.81C17.61 23.24 18.66 21.32 19.37 20.35L20.27 19C20.4939 18.6283 20.675 18.2324 20.81 17.82C20.9156 17.5236 20.9795 17.214 21 16.9C21.0295 16.5939 20.9673 16.2859 20.8213 16.0152C20.6753 15.7445 20.452 15.5234 20.18 15.38C19.9138 15.2537 19.6197 15.1976 19.3257 15.2168C19.0317 15.2361 18.7475 15.3301 18.5 15.49C18.1915 15.6871 17.9206 15.9377 17.7 16.23C17.3999 16.6285 17.126 17.046 16.88 17.48C16.7 17.77 16.54 18.07 16.37 18.37C16.2 18.67 15.93 19.28 15.71 19.74C15.693 19.7734 15.6829 19.8098 15.6803 19.8472C15.6777 19.8845 15.6826 19.922 15.6947 19.9575C15.7068 19.9929 15.7259 20.0255 15.7509 20.0534C15.7758 20.0814 15.8061 20.104 15.84 20.12C15.8734 20.137 15.9098 20.147 15.9472 20.1497C15.9845 20.1523 16.022 20.1474 16.0575 20.1353C16.0929 20.1232 16.1255 20.1041 16.1534 20.0791C16.1814 20.0541 16.204 20.0238 16.22 19.99C16.45 19.55 16.67 19.1 16.92 18.67C17.17 18.24 17.24 18.1 17.42 17.83C17.6689 17.429 17.9393 17.0418 18.23 16.67C18.4109 16.4547 18.6274 16.2721 18.87 16.13C19.01 16.0402 19.1702 15.9868 19.3361 15.9746C19.502 15.9624 19.6683 15.9917 19.82 16.06C19.9487 16.1488 20.0504 16.2714 20.1139 16.4143C20.1775 16.5573 20.2003 16.7149 20.18 16.87C20.148 17.1549 20.0773 17.4341 19.97 17.7C19.8508 17.9789 19.7069 18.2467 19.54 18.5L18.62 19.77C17.9865 20.8024 17.2162 21.7443 16.33 22.57C16.098 22.7746 15.7993 22.8875 15.49 22.8875C15.1807 22.8875 14.882 22.7746 14.65 22.57C14.2565 22.2528 14.0048 21.7925 13.95 21.29C13.8782 20.739 13.9294 20.1789 14.1 19.65C14.2077 19.304 14.3484 18.9691 14.52 18.65C14.7871 18.1556 15.0844 17.678 15.41 17.22C16.0072 16.2081 16.7149 15.2657 17.52 14.41C18.0234 13.8947 18.6725 13.5457 19.38 13.41C19.7687 13.358 20.164 13.393 20.5375 13.5123C20.911 13.6316 21.2534 13.8323 21.54 14.1C21.8484 14.3614 22.0973 14.6859 22.2698 15.0516C22.4423 15.4173 22.5344 15.8157 22.54 16.22C22.501 16.8317 22.3625 17.4329 22.13 18C21.8118 18.823 21.4341 19.6218 21 20.39C20.9576 20.4669 20.9474 20.5575 20.9718 20.6419C20.9962 20.7263 21.0531 20.7976 21.13 20.84C21.2069 20.8824 21.2975 20.8926 21.3819 20.8682C21.4663 20.8438 21.5376 20.7869 21.58 20.71C22.0587 19.906 22.483 19.0708 22.85 18.21C23.095 17.607 23.2434 16.9692 23.29 16.32C23.2985 15.7985 23.1949 15.2814 22.9861 14.8034C22.7774 14.3255 22.4683 13.8981 22.08 13.55Z" fill="black"/>
</g>
<defs>
<clipPath id="clip0_1030_2084">
<rect width="24" height="24" fill="white"/>
</clipPath>
</defs>
</svg>
