<svg width="24" height="24" viewBox="0 0 24 24" fill="none" xmlns="http://www.w3.org/2000/svg">
<g clip-path="url(#clip0_1052_9159)">
<path fill-rule="evenodd" clip-rule="evenodd" d="M7.20002 16.3201C6.26002 16.2701 4.73002 16.3201 4.10002 16.3201C3.47002 16.3201 2.85002 16.2001 2.19002 16.2101C1.72736 16.1963 1.26709 16.2815 0.840024 16.4601C0.767427 16.491 0.709929 16.5492 0.679981 16.6222C0.650034 16.6952 0.650049 16.7771 0.680024 16.8501C0.714812 16.9217 0.775089 16.9779 0.849066 17.0074C0.923043 17.037 1.0054 17.038 1.08002 17.0101C1.43702 16.89 1.81439 16.8424 2.19002 16.8701C2.83002 16.8701 3.49002 17.0301 4.03002 17.1001C4.57002 17.1701 5.82002 17.1901 6.76002 17.2701C7.70002 17.3501 7.67002 17.0801 7.53002 17.8701C7.45298 18.2524 7.35279 18.6298 7.23002 19.0001L6.66002 21.4901C6.66002 21.6701 6.55002 21.9901 6.45002 22.3001C6.35002 22.6101 6.36002 22.6801 6.25002 22.7501C5.81688 22.8868 5.36411 22.951 4.91002 22.9401C4.27797 22.9971 3.64207 22.9971 3.01002 22.9401C2.92002 22.9401 2.83002 22.8701 2.78002 22.8801C2.41327 22.2816 2.14961 21.6258 2.00002 20.9401C1.70002 19.8101 1.57002 18.6001 1.38002 17.4601C1.37715 17.413 1.36452 17.3671 1.34294 17.3251C1.32135 17.2832 1.29129 17.2463 1.25466 17.2166C1.21802 17.1869 1.17562 17.1652 1.13014 17.1528C1.08466 17.1404 1.03709 17.1376 0.990467 17.1445C0.943841 17.1515 0.899171 17.1681 0.859295 17.1932C0.819419 17.2184 0.785209 17.2515 0.758836 17.2906C0.732463 17.3297 0.714505 17.3738 0.706102 17.4202C0.697699 17.4666 0.699035 17.5142 0.710024 17.5601C0.850024 18.7301 0.920024 19.9701 1.17002 21.1401C1.34019 21.9765 1.65853 22.7757 2.11002 23.5001C2.20521 23.6234 2.33355 23.717 2.48002 23.7701C3.00443 23.9163 3.54565 23.9936 4.09002 24.0001C5.03608 24.0811 5.98873 23.9688 6.89002 23.6701C7.1113 23.5057 7.28406 23.2845 7.39002 23.0301C7.55376 22.6221 7.68093 22.2005 7.77002 21.7701L8.30002 19.3001C8.47454 18.7513 8.58527 18.1842 8.63002 17.6101C8.65038 17.4168 8.62577 17.2215 8.55811 17.0393C8.49046 16.8572 8.38159 16.6931 8.24002 16.5601C7.9186 16.3951 7.56122 16.3126 7.20002 16.3201Z" fill="black"/>
<path fill-rule="evenodd" clip-rule="evenodd" d="M23.2 12.54C23.1039 11.2789 22.5531 10.0956 21.65 9.21003C21.0416 8.72719 20.3041 8.43494 19.53 8.37003C18.5308 8.3166 17.5293 8.3166 16.53 8.37003H10.65C9.34004 8.37003 8.02004 8.45004 6.71004 8.56004C6.1758 8.5643 5.65047 8.69743 5.17868 8.94813C4.70689 9.19882 4.30256 9.55967 4.00004 10C3.78957 10.3563 3.70753 10.7739 3.76758 11.1833C3.82762 11.5927 4.02614 11.9692 4.33004 12.25C5.29233 12.9937 6.49804 13.3504 7.71004 13.25C9.31004 13.25 11.13 13.1 12.36 13.54C12.6167 13.6141 12.8503 13.752 13.0392 13.9409C13.2281 14.1297 13.366 14.3634 13.44 14.62C13.676 15.4224 13.8301 16.2466 13.9 17.08C13.9613 17.9223 13.9613 18.7678 13.9 19.61C13.9 20.06 13.82 21.01 13.79 21.92V23.48C13.79 23.5702 13.8259 23.6567 13.8896 23.7205C13.9534 23.7842 14.0399 23.82 14.13 23.82C14.2202 23.82 14.3067 23.7842 14.3705 23.7205C14.4342 23.6567 14.47 23.5702 14.47 23.48V21.96C14.52 21.06 14.59 20.12 14.62 19.67C14.6835 18.7912 14.6835 17.9089 14.62 17.03C14.5613 16.1442 14.4139 15.2665 14.18 14.41C14.0801 14.0155 13.8819 13.6526 13.6039 13.3553C13.3259 13.0581 12.9771 12.8361 12.59 12.71C11.3 12.22 9.36004 12.34 7.66004 12.26C6.7158 12.3472 5.7725 12.0838 5.01004 11.52C4.9242 11.4422 4.85559 11.3473 4.80864 11.2414C4.76168 11.1355 4.73743 11.0209 4.73743 10.905C4.73743 10.7892 4.76168 10.6746 4.80864 10.5687C4.85559 10.4628 4.9242 10.3678 5.01004 10.29C5.45956 9.87999 6.0418 9.64567 6.65004 9.63003C7.94004 9.53003 9.23004 9.49003 10.52 9.47003H16.38C17.3493 9.41471 18.3208 9.41471 19.29 9.47003C19.8488 9.50186 20.3852 9.7004 20.83 10.04C21.6008 10.7261 22.0891 11.6741 22.2 12.7C22.3878 14.3596 22.4513 16.031 22.39 17.7C22.3804 18.3006 22.2477 18.8928 22 19.44C21.84 19.76 21.64 20.04 21.35 20.06C21.1646 20.0843 20.9759 20.0637 20.8 20C20.6433 19.9309 20.5085 19.8202 20.41 19.68C20.1823 19.3187 20.0483 18.9062 20.02 18.48C19.89 17.33 19.76 16.25 19.67 15.12C19.62 14.4 19.57 13.66 19.55 12.88C19.5514 12.8403 19.5446 12.8006 19.5301 12.7636C19.5155 12.7266 19.4934 12.6929 19.4653 12.6648C19.4371 12.6367 19.4035 12.6146 19.3665 12.6C19.3295 12.5854 19.2898 12.5786 19.25 12.58C19.2098 12.58 19.1699 12.5881 19.1329 12.6038C19.0958 12.6195 19.0623 12.6425 19.0343 12.6714C19.0063 12.7003 18.9844 12.7346 18.9699 12.7722C18.9555 12.8097 18.9487 12.8498 18.95 12.89C18.95 13.68 18.95 14.43 19.03 15.16C19.09 16.31 19.2 17.4 19.3 18.55C19.322 19.2212 19.5685 19.8656 20 20.38C20.1208 20.4901 20.2553 20.5842 20.4 20.66C20.35 20.89 20.29 21.14 20.25 21.45C20.2398 21.6165 20.2398 21.7835 20.25 21.95V22.45C20.3 22.91 20.39 23.32 20.43 23.61C20.43 23.7012 20.4655 23.7887 20.529 23.8541C20.5925 23.9194 20.679 23.9574 20.77 23.96C20.8585 23.9601 20.9435 23.9256 21.007 23.864C21.0705 23.8024 21.1074 23.7185 21.11 23.63C21.1997 23.2404 21.2697 22.8466 21.32 22.45C21.3305 22.2835 21.3305 22.1165 21.32 21.95C21.3353 21.7837 21.3353 21.6164 21.32 21.45C21.2967 21.2511 21.26 21.054 21.21 20.86H21.35C21.6427 20.8255 21.9213 20.7151 22.1581 20.5397C22.3949 20.3643 22.5817 20.13 22.7 19.86C23.0408 19.1921 23.2352 18.4591 23.27 17.71C23.3776 15.9874 23.3542 14.2591 23.2 12.54Z" fill="black"/>
<path fill-rule="evenodd" clip-rule="evenodd" d="M15.69 7.25001C16.8813 7.45737 18.1072 7.21505 19.13 6.57001C19.6584 6.23555 20.0791 5.75574 20.3417 5.18814C20.6042 4.62054 20.6974 3.98925 20.61 3.37001C20.5261 2.86695 20.34 2.38643 20.0631 1.95815C19.7862 1.52987 19.4244 1.16293 19 0.880007C18.7015 0.659544 18.3499 0.522116 17.981 0.481715C17.6122 0.441314 17.2392 0.499382 16.9 0.650007C16.8578 0.665174 16.8193 0.68903 16.787 0.72003C16.7546 0.75103 16.7291 0.788484 16.7121 0.829964C16.6952 0.871444 16.6871 0.916026 16.6885 0.960823C16.6898 1.00562 16.7006 1.04963 16.72 1.09001C16.7553 1.17155 16.8211 1.23605 16.9033 1.26969C16.9856 1.30333 17.0777 1.30344 17.16 1.27001C17.4571 1.18548 17.7721 1.18764 18.068 1.27623C18.3639 1.36482 18.6283 1.53614 18.83 1.77001C19.3031 2.2131 19.6072 2.80711 19.69 3.45001C19.7242 3.88884 19.6334 4.32837 19.4281 4.71773C19.2228 5.10708 18.9114 5.43031 18.53 5.65001C17.732 6.12038 16.7911 6.28724 15.88 6.12001C15.5407 6.06975 15.2151 5.95099 14.923 5.77097C14.631 5.59094 14.3786 5.3534 14.1813 5.07279C13.9839 4.79218 13.8457 4.47436 13.775 4.13866C13.7043 3.80295 13.7026 3.45638 13.77 3.12001C13.7748 2.76415 13.8556 2.41342 14.0069 2.09128C14.1581 1.76914 14.3765 1.48301 14.6472 1.25203C14.9179 1.02104 15.2349 0.850522 15.5768 0.751875C15.9188 0.653228 16.2778 0.628726 16.63 0.680007C16.6695 0.69035 16.7106 0.692544 16.7509 0.686458C16.7912 0.680371 16.8299 0.66613 16.8645 0.644605C16.8991 0.62308 16.929 0.594723 16.9523 0.561265C16.9756 0.527807 16.9918 0.48995 17 0.450007C17.0148 0.370557 16.998 0.28846 16.9532 0.221213C16.9084 0.153967 16.8391 0.106887 16.76 0.0900071C14.6 -0.409993 13.16 1.20001 12.86 3.01001C12.7569 3.47498 12.749 3.956 12.8366 4.42412C12.9243 4.89224 13.1058 5.33778 13.3702 5.73391C13.6346 6.13004 13.9765 6.46857 14.3751 6.72912C14.7738 6.98968 15.2211 7.16686 15.69 7.25001Z" fill="black"/>
<path fill-rule="evenodd" clip-rule="evenodd" d="M3.57001 13.68C3.4807 13.3697 3.28613 13.1002 3.01971 12.9177C2.75329 12.7352 2.43165 12.6512 2.11001 12.68C2.07233 12.6629 2.03141 12.6541 1.99002 12.6541C1.94862 12.6541 1.9077 12.6629 1.87002 12.68C1.59812 12.805 1.35087 12.9777 1.14002 13.19C0.931031 13.41 0.806989 13.6971 0.790015 14C0.783643 14.1775 0.820336 14.3539 0.896959 14.5141C0.973582 14.6743 1.08786 14.8136 1.23002 14.92C1.41492 15.0587 1.62991 15.1517 1.85751 15.1917C2.08512 15.2316 2.31895 15.2174 2.54001 15.15C2.70532 15.1236 2.86363 15.0642 3.00554 14.9754C3.14746 14.8866 3.27009 14.7702 3.36615 14.6331C3.46222 14.4959 3.52977 14.3409 3.56479 14.1772C3.59981 14.0135 3.60158 13.8445 3.57001 13.68ZM2.24002 14.45C2.1788 14.478 2.1123 14.4924 2.04502 14.4924C1.97773 14.4924 1.91123 14.478 1.85002 14.45C1.77232 14.403 1.70777 14.337 1.66232 14.2584C1.61687 14.1797 1.592 14.0909 1.59002 14C1.55761 13.8248 1.58957 13.6437 1.68001 13.49C1.77176 13.3694 1.8794 13.2618 2.00002 13.17C2.18338 13.1527 2.36644 13.2062 2.51152 13.3197C2.65661 13.4331 2.7527 13.5979 2.78001 13.78C2.79684 13.9404 2.74948 14.1009 2.64829 14.2265C2.5471 14.352 2.40031 14.4324 2.24002 14.45Z" fill="black"/>
</g>
<defs>
<clipPath id="clip0_1052_9159">
<rect width="24" height="24" fill="white"/>
</clipPath>
</defs>
</svg>
