<svg width="24" height="24" viewBox="0 0 24 24" fill="none" xmlns="http://www.w3.org/2000/svg">
<g clip-path="url(#clip0_1048_7174)">
<path fill-rule="evenodd" clip-rule="evenodd" d="M23.62 20.37C23.4536 20.1586 23.2503 19.979 23.02 19.84C22.61 19.6 22.1 19.42 21.76 19.24L19.57 17.9C19.5319 17.8764 19.4896 17.8605 19.4453 17.8532C19.4011 17.8459 19.3559 17.8475 19.3122 17.8577C19.2686 17.8679 19.2274 17.8866 19.191 17.9127C19.1545 17.9389 19.1236 17.9719 19.1 18.01C19.0764 18.0481 19.0605 18.0905 19.0532 18.1347C19.0459 18.1789 19.0474 18.2241 19.0577 18.2678C19.0679 18.3114 19.0866 18.3526 19.1127 18.389C19.1389 18.4255 19.1719 18.4564 19.21 18.48L21.15 20.22C21.32 20.34 21.54 20.47 21.76 20.6C20.63 20.66 19.5 20.71 18.38 20.7C15.22 20.7 12.07 20.48 8.91 20.58C8.22 20.58 6.91 20.8 5.82 20.76C5.38601 20.7753 4.95357 20.7004 4.55 20.54C4.59224 20.2616 4.59224 19.9784 4.55 19.7L4.49 16.27C4.37 13.72 4.35 11.13 4.38 8.55C4.38 6.34 4.47 4.14001 4.54 1.96L6.68 3.89C6.71662 3.92882 6.76082 3.95971 6.80986 3.98075C6.8589 4.0018 6.91173 4.01256 6.96509 4.01236C7.01846 4.01217 7.07121 4.00103 7.12009 3.97962C7.16898 3.95822 7.21295 3.92701 7.24929 3.88793C7.28562 3.84885 7.31355 3.80273 7.33135 3.75242C7.34914 3.70212 7.35643 3.64869 7.35274 3.59545C7.34906 3.54222 7.33449 3.4903 7.30994 3.44293C7.28539 3.39555 7.25138 3.35371 7.21 3.32L5.18 0.890005C4.935 0.61174 4.66742 0.354198 4.38 0.120005C4.2622 0.0442088 4.12508 0.00390625 3.985 0.00390625C3.84492 0.00390625 3.7078 0.0442088 3.59 0.120005C3.182 0.39363 2.80333 0.708632 2.46 1.06C1.73 1.81 1.15 2.72 0.390003 3.42C0.318588 3.47547 0.271414 3.55643 0.258364 3.64591C0.245315 3.73539 0.267404 3.82645 0.320003 3.9C0.372804 3.97691 0.453399 4.03032 0.544805 4.04898C0.63621 4.06763 0.731288 4.05007 0.810003 4C1.07 3.83 1.32 3.64 1.57 3.44C2.14 3 2.7 2.5 3.26 2L3.79 1.56C3.58 4.37 3.37 7.2 3.26 10.04C3.17334 12.1333 3.14 14.21 3.16 16.27V19.64C3.11558 20.0149 3.09887 20.3926 3.11 20.77C3.12771 20.9422 3.20149 21.1038 3.32 21.23C3.83336 21.7112 4.50655 21.9854 5.21 22C6.47642 22.042 7.74414 21.9785 9 21.81C12.14 21.61 15.28 21.7 18.42 21.61C19.42 21.61 20.47 21.5 21.49 21.42L19.51 23.3C19.4295 23.3649 19.3773 23.4584 19.3643 23.5609C19.3512 23.6634 19.3784 23.767 19.44 23.85C19.4704 23.8906 19.5087 23.9247 19.5525 23.9503C19.5964 23.9759 19.6449 23.9924 19.6952 23.999C19.7456 24.0055 19.7967 24.0019 19.8456 23.9883C19.8945 23.9747 19.9402 23.9515 19.98 23.92L22.68 22C22.68 22 23.29 21.54 23.5 21.34C23.6384 21.2231 23.7276 21.0583 23.7498 20.8785C23.7721 20.6987 23.7257 20.5171 23.62 20.37Z" fill="black"/>
<path fill-rule="evenodd" clip-rule="evenodd" d="M6.22 18.1C6.09738 18.1927 5.98356 18.2964 5.88 18.41C5.76722 18.5198 5.66969 18.6443 5.59 18.78C4.8 20 5 20.16 5.11 20.25C5.22 20.34 5.38 20.53 6.52 19.61C6.64193 19.5164 6.75267 19.409 6.85 19.29C6.95488 19.1795 7.04867 19.0589 7.13 18.93C7.87 17.82 7.88 17.63 7.67 17.43C7.46 17.23 7.26 17.25 6.22 18.1Z" fill="black"/>
<path fill-rule="evenodd" clip-rule="evenodd" d="M14 11.22C14.1331 11.1069 14.2569 10.9832 14.37 10.85C14.4877 10.7187 14.5947 10.5783 14.69 10.43C15.49 9.27003 15.55 9.07003 15.32 8.85003C15.09 8.63003 14.87 8.67003 13.77 9.61003C13.6361 9.72214 13.5092 9.84237 13.39 9.97003C13.28 10.1 13.17 10.23 13.07 10.37C12.16 11.71 12.33 11.8 12.45 11.91C12.57 12.02 12.65 12.35 14 11.22Z" fill="black"/>
<path fill-rule="evenodd" clip-rule="evenodd" d="M18.4 5.88003C18.6198 5.60073 18.8203 5.30671 19 5.00003C20 3.48003 20.11 3.30003 19.84 3.06003C19.57 2.82003 19.51 2.68003 18.05 4.19003C17.8862 4.3608 17.7326 4.54111 17.59 4.73003C17.4463 4.91381 17.316 5.10764 17.2 5.31003C16.2 6.99003 16.39 7.14003 16.56 7.26003C16.73 7.38003 17 7.49003 18.4 5.88003Z" fill="black"/>
<path fill-rule="evenodd" clip-rule="evenodd" d="M9.41 14.64L9.17 14.87C9.07 15 8.97 15.13 8.88 15.27C8.12 16.56 8.34 16.72 8.45 16.81C8.56 16.9 8.72 17.06 9.85 16.07C9.96766 15.9608 10.0779 15.8438 10.18 15.72C10.2633 15.6148 10.3401 15.5046 10.41 15.39C11 14.23 10.55 14 9.41 14.64Z" fill="black"/>
<path fill-rule="evenodd" clip-rule="evenodd" d="M13.4 14.42C12.9776 13.836 12.4684 13.32 11.89 12.89C11.3142 12.4687 10.6811 12.132 10.01 11.89C8.463 11.3095 6.77842 11.2016 5.17 11.58C5.12503 11.5872 5.08198 11.6034 5.04338 11.6275C5.00479 11.6517 4.97144 11.6834 4.94533 11.7207C4.91921 11.758 4.90086 11.8002 4.89135 11.8447C4.88185 11.8893 4.88139 11.9353 4.89 11.98C4.90929 12.0684 4.96116 12.1463 5.03528 12.1982C5.1094 12.25 5.20034 12.2721 5.29 12.26C6.74455 12.1105 8.21207 12.3666 9.53 13C9.7587 13.1109 9.97925 13.2379 10.19 13.38C11.0111 13.8645 11.7586 14.4639 12.41 15.16C13.3531 16.246 13.8623 17.6418 13.84 19.08C13.84 19.1834 13.8811 19.2826 13.9542 19.3558C14.0274 19.4289 14.1266 19.47 14.23 19.47C14.3334 19.47 14.4326 19.4289 14.5058 19.3558C14.5789 19.2826 14.62 19.1834 14.62 19.08C14.813 17.4286 14.3774 15.765 13.4 14.42Z" fill="black"/>
</g>
<defs>
<clipPath id="clip0_1048_7174">
<rect width="24" height="24" fill="white"/>
</clipPath>
</defs>
</svg>
