<svg width="24" height="24" viewBox="0 0 24 24" fill="none" xmlns="http://www.w3.org/2000/svg">
<g clip-path="url(#clip0_1048_7193)">
<path fill-rule="evenodd" clip-rule="evenodd" d="M12.29 15C12.0234 14.8524 11.7459 14.7254 11.46 14.62C11.3087 14.5842 11.1512 14.5842 11 14.62C10.7709 14.7281 10.5794 14.9022 10.45 15.12C9.97999 15.83 9.19999 17.68 7.87999 18.41C7.69116 18.5279 7.4752 18.5953 7.25283 18.6058C7.03045 18.6163 6.8091 18.5696 6.60999 18.47C6.3827 18.366 6.19805 18.187 6.087 17.9631C5.97594 17.7392 5.94523 17.4839 5.99999 17.24C6.08318 16.6014 6.30873 15.9897 6.65999 15.45C6.76999 15.28 7.28999 14.45 7.55999 13.88C7.67566 13.6791 7.75361 13.4589 7.78999 13.23C7.78389 13.1401 7.75728 13.0528 7.71221 12.9748C7.66714 12.8968 7.60481 12.8302 7.52999 12.78C7.29662 12.6501 7.05626 12.5333 6.80999 12.43L4.74999 11.43C4.79488 11.3643 4.81454 11.2846 4.80535 11.2056C4.79617 11.1266 4.75875 11.0536 4.69999 11C3.80999 10.35 1.82999 15.31 1.63999 16C1.25279 17.2307 1.14349 18.5319 1.31999 19.81C1.47458 20.8546 1.96181 21.8215 2.70939 22.5672C3.45696 23.313 4.42504 23.7979 5.46999 23.95C6.46659 24.0997 7.48376 24.0325 8.45198 23.7529C9.4202 23.4733 10.3166 22.9879 11.08 22.33C11.7413 21.7288 12.3077 21.0308 12.76 20.26C15.65 15.53 15.54 16.81 12.29 15ZM6.73999 13.34C6.53999 13.68 6.17999 14.19 5.94999 14.52C5.93916 14.46 5.91329 14.4038 5.87482 14.3566C5.83634 14.3094 5.78651 14.2727 5.72999 14.25C5.43999 14.06 5.17999 13.83 4.88999 13.63C4.77289 13.5408 4.6492 13.4605 4.51999 13.39C4.39164 13.3166 4.25793 13.2531 4.11999 13.2L3.80999 13.11C3.99999 12.74 4.21999 12.4 4.42999 12.05L6.42999 13.22L6.73999 13.34ZM10.38 21.44C9.72624 21.9538 8.97174 22.3244 8.16547 22.5276C7.35921 22.7309 6.5192 22.7624 5.69999 22.62C4.91531 22.5066 4.18677 22.1474 3.61901 21.594C3.05125 21.0406 2.67349 20.3215 2.53999 19.54C2.28519 18.153 2.39196 16.7237 2.84999 15.39C2.97999 14.96 3.17999 14.56 3.34999 14.14L3.49999 14.29C3.62554 14.3881 3.75938 14.4751 3.89999 14.55C4.04225 14.6202 4.18928 14.6804 4.33999 14.73C4.70105 14.8534 5.07258 14.9438 5.44999 15C5.51176 15.0199 5.57822 15.0199 5.63999 15C5.07229 15.7843 4.75507 16.7221 4.72999 17.69C4.74372 18.0961 4.86966 18.4904 5.09383 18.8293C5.318 19.1682 5.63164 19.4384 5.99999 19.61C6.39105 19.8095 6.82744 19.9033 7.26594 19.8823C7.70444 19.8612 8.12984 19.726 8.49999 19.49C9.2106 19.0044 9.81041 18.3739 10.26 17.64C10.32 17.7 10.34 17.78 10.4 17.84C10.532 17.964 10.6761 18.0745 10.83 18.17C10.9838 18.2619 11.1442 18.3421 11.31 18.41C11.6926 18.5527 12.0833 18.6729 12.48 18.77C12.3 19.08 12.13 19.4 11.92 19.7C11.4969 20.354 10.9777 20.9406 10.38 21.44ZM12.9 18.12L12.85 18.07C12.55 17.84 12.27 17.58 11.95 17.34C11.83 17.2379 11.703 17.1443 11.57 17.06C11.4424 16.9737 11.3087 16.8969 11.17 16.83L10.84 16.65C10.9962 16.2654 11.1834 15.8941 11.4 15.54C11.5714 15.6282 11.7383 15.7249 11.9 15.83L13.64 16.68C13.41 17.15 13.17 17.63 12.9 18.12Z" fill="black"/>
<path fill-rule="evenodd" clip-rule="evenodd" d="M22.38 3.22C20.72 3.14 19.07 3.16 17.38 3.16C17.38 2.22 17.32 1.28 17.27 0.34C17.27 0.249826 17.2342 0.163346 17.1704 0.0995837C17.1066 0.0358213 17.0202 0 16.93 0C16.8398 0 16.7533 0.0358213 16.6896 0.0995837C16.6258 0.163346 16.59 0.249826 16.59 0.34C16.54 1.28 16.47 2.22 16.39 3.15H14.9C13.42 3.15 11.9 3.26 10.46 3.34H9.96999C9.96999 2.34 9.91999 1.42 9.96999 0.45C9.98187 0.364183 9.96054 0.277068 9.91036 0.206445C9.86018 0.135822 9.78494 0.0870182 9.69999 0.07C9.65508 0.0629712 9.6092 0.065296 9.56524 0.0768287C9.52127 0.0883614 9.48016 0.108853 9.44448 0.13702C9.4088 0.165186 9.37933 0.200419 9.35791 0.24051C9.33648 0.280602 9.32358 0.324686 9.31999 0.37C9.14999 1.37 9.01999 2.37 8.93999 3.37C7.24999 3.46 5.55999 3.54 3.85999 3.51C3.77857 3.52391 3.70469 3.56618 3.65142 3.62931C3.59816 3.69245 3.56894 3.7724 3.56894 3.855C3.56894 3.9376 3.59816 4.01755 3.65142 4.08069C3.70469 4.14382 3.77857 4.18609 3.85999 4.2C5.55999 4.37 7.24999 4.46 8.92999 4.5C8.92999 4.99 8.86999 5.5 8.85999 5.96C8.85999 7.08 8.91999 8.19 8.97999 9.31V9.52C7.41999 9.58 5.85999 9.65 4.29999 9.65C4.21857 9.66391 4.14469 9.70618 4.09142 9.76931C4.03816 9.83245 4.00894 9.9124 4.00894 9.995C4.00894 10.0776 4.03816 10.1575 4.09142 10.2207C4.14469 10.2838 4.21857 10.3261 4.29999 10.34C5.88999 10.48 7.47999 10.59 9.06999 10.66C9.13999 11.87 9.20999 13.07 9.17999 14.28C9.1759 14.3312 9.18197 14.3828 9.19787 14.4317C9.21377 14.4806 9.23918 14.5258 9.27264 14.5649C9.3061 14.6039 9.34694 14.6359 9.39282 14.6591C9.43871 14.6823 9.48872 14.6962 9.53999 14.7C9.64385 14.703 9.74499 14.6665 9.82295 14.5978C9.90092 14.5291 9.9499 14.4334 9.95999 14.33C10.1 13.13 10.17 11.92 10.21 10.71H11.14C12.51 10.71 13.87 10.71 15.24 10.62H16.06C16.06 12.56 16.1067 14.5067 16.2 16.46C16.2 16.5108 16.2101 16.561 16.2298 16.6078C16.2496 16.6545 16.2785 16.6969 16.3148 16.7323C16.3512 16.7677 16.3942 16.7955 16.4415 16.814C16.4888 16.8325 16.5393 16.8413 16.59 16.84C16.6934 16.84 16.7926 16.7989 16.8658 16.7258C16.9389 16.6526 16.98 16.5534 16.98 16.45C16.98 14.51 17.18 12.59 17.3 10.67C17.2954 10.6268 17.2954 10.5832 17.3 10.54C18.65 10.46 20.01 10.38 21.36 10.32C21.4643 10.3174 21.5635 10.2741 21.6364 10.1994C21.7093 10.1246 21.75 10.0244 21.75 9.92C21.7487 9.86878 21.7373 9.81832 21.7165 9.77149C21.6957 9.72467 21.6659 9.68241 21.6287 9.64712C21.5916 9.61183 21.5478 9.58421 21.5 9.56583C21.4522 9.54745 21.4012 9.53867 21.35 9.54C20.02 9.54 18.69 9.49 17.35 9.46C17.41 8.58 17.47 7.69 17.49 6.8C17.51 5.91 17.49 5.08 17.49 4.22C19.07 4.14 20.72 4 22.37 4C22.4212 4.00133 22.4722 3.99255 22.52 3.97417C22.5678 3.95579 22.6116 3.92817 22.6487 3.89288C22.6859 3.85759 22.7157 3.81533 22.7365 3.76851C22.7573 3.72168 22.7687 3.67122 22.77 3.62C22.7676 3.51638 22.726 3.41751 22.6537 3.3433C22.5813 3.26908 22.4835 3.22503 22.38 3.22ZM16.18 6.13C16.1 7.24 16.05 8.35 16.02 9.47H14.46C13.1267 9.47 11.7667 9.49 10.38 9.53H10.16V8.76C10.16 7.65 10.16 6.54 10.07 5.43V4.57H11.29C12.78 4.57 14.29 4.46 15.75 4.36H16.35L16.18 6.13Z" fill="black"/>
</g>
<defs>
<clipPath id="clip0_1048_7193">
<rect width="24" height="24" fill="white"/>
</clipPath>
</defs>
</svg>
