<svg width="24" height="24" viewBox="0 0 24 24" fill="none" xmlns="http://www.w3.org/2000/svg">
<g clip-path="url(#clip0_1030_2145)">
<path fill-rule="evenodd" clip-rule="evenodd" d="M12.59 6.89998C12.59 6.53998 12.59 5.72998 11.37 5.79998C10.15 5.86998 10.37 7.79998 11.37 7.79998C12.17 7.81998 12.6 7.57998 12.59 6.89998Z" fill="black"/>
<path fill-rule="evenodd" clip-rule="evenodd" d="M23.73 10.14C23.6567 9.53596 23.4534 8.95498 23.1341 8.43708C22.8147 7.91917 22.3868 7.47665 21.88 7.13999C21.4163 6.8904 20.8966 6.76306 20.37 6.76999C19.9066 6.7992 19.4475 6.87627 19 6.99999C18.5105 6.2736 17.9059 5.63185 17.21 5.09999C15.8952 4.15544 14.3723 3.54146 12.77 3.30999C11.6095 3.19759 10.4386 3.34476 9.34205 3.74083C8.24549 4.13691 7.25078 4.77197 6.43 5.59999C5.99152 6.0239 5.59932 6.4932 5.26 6.99999C4.72696 6.8627 4.18022 6.78555 3.63 6.76999C3.10341 6.76306 2.58374 6.8904 2.12 7.13999C1.61316 7.47665 1.18532 7.91917 0.865949 8.43708C0.546575 8.95498 0.343258 9.53596 0.270002 10.14C0.0686511 11.3414 0.348899 12.5738 1.05 13.57C1.57624 14.1558 2.27782 14.5557 3.05 14.71C3.77359 14.9063 4.53642 14.9063 5.26 14.71C5.48848 15.1178 5.76003 15.5 6.07 15.85C6.17 15.95 6.3 16.03 6.41 16.13C5.55876 16.6162 4.80038 17.2493 4.17 18C3.85876 18.362 3.58409 18.7539 3.35 19.17C3.11271 19.5762 2.90871 20.0009 2.74 20.44C2.35732 21.4493 2.06288 22.4898 1.86 23.55C1.83459 23.6507 1.84833 23.7572 1.89844 23.8482C1.94855 23.9391 2.03131 24.0077 2.13 24.04C2.23331 24.0653 2.34237 24.0505 2.43517 23.9985C2.52798 23.9465 2.5976 23.8613 2.63 23.76C2.99611 22.7759 3.42706 21.8171 3.92 20.89C4.24 20.28 4.58 19.7 4.92 19.12C5.47698 18.1644 6.17863 17.3008 7 16.56C7.93978 17.2014 9.06368 17.5175 10.2 17.46C10.246 17.4587 10.2912 17.4484 10.3332 17.4296C10.3752 17.4108 10.413 17.3839 10.4446 17.3504C10.4762 17.317 10.5009 17.2777 10.5172 17.2347C10.5336 17.1917 10.5413 17.146 10.54 17.1C10.5348 17.0063 10.4933 16.9183 10.4241 16.8548C10.355 16.7912 10.2638 16.7572 10.17 16.76C9.51217 16.7666 8.86051 16.6326 8.25864 16.367C7.65676 16.1014 7.11855 15.7104 6.68 15.22C5.793 14.2257 5.22208 12.9899 5.04 11.67C4.9701 10.693 5.14043 9.71381 5.53612 8.81784C5.93182 7.92187 6.54083 7.13639 7.31 6.52999C7.99549 5.84987 8.82166 5.3282 9.73041 5.00168C10.6392 4.67515 11.6084 4.55169 12.57 4.63999C13.9586 4.82843 15.2821 5.34616 16.43 6.14999C17.5627 6.94072 18.3972 8.08866 18.8 9.40999C19.0656 10.3055 19.0702 11.2581 18.8134 12.1562C18.5566 13.0542 18.0489 13.8603 17.35 14.48C16.7543 15.0324 16.0803 15.494 15.35 15.85C15.3019 15.8632 15.2575 15.8871 15.22 15.92C14.2362 16.4161 13.1674 16.7215 12.07 16.82C11.9656 16.8277 11.8685 16.876 11.7993 16.9545C11.7301 17.033 11.6945 17.1355 11.7 17.24C11.7025 17.2921 11.7155 17.3432 11.7381 17.3903C11.7607 17.4373 11.7926 17.4793 11.8317 17.5138C11.8709 17.5483 11.9166 17.5746 11.9661 17.5911C12.0156 17.6077 12.068 17.6141 12.12 17.61C13.2862 17.5372 14.4288 17.249 15.49 16.76C16.2256 17.4399 16.8648 18.2171 17.39 19.07C17.75 19.65 18.09 20.23 18.39 20.84C18.8821 21.7689 19.3163 22.7274 19.69 23.71C19.7181 23.812 19.7854 23.8987 19.8772 23.9511C19.969 24.0036 20.0779 24.0176 20.18 23.99C20.2801 23.9598 20.3645 23.8916 20.4149 23.8C20.4654 23.7085 20.478 23.6007 20.45 23.5C20.2458 22.4412 19.9548 21.401 19.58 20.39C19.4167 19.9536 19.2229 19.5292 19 19.12C18.7698 18.7219 18.5019 18.3468 18.2 18C17.6576 17.3816 17.0276 16.8459 16.33 16.41C17.1766 15.9462 17.9348 15.3369 18.57 14.61C18.62 14.61 18.65 14.71 18.72 14.73C19.4436 14.9263 20.2064 14.9263 20.93 14.73C21.7022 14.5757 22.4038 14.1758 22.93 13.59C23.6433 12.5915 23.9311 11.3506 23.73 10.14ZM3.34 13.76C2.80797 13.6123 2.33792 13.2966 2 12.86C1.56191 12.0939 1.41961 11.1939 1.6 10.33C1.67034 9.88933 1.80511 9.46142 2 9.05999C2.15085 8.66809 2.40271 8.32309 2.73 8.05999C3.02814 7.85689 3.37147 7.72986 3.73 7.68999C4.11871 7.64502 4.5113 7.64502 4.9 7.68999C4.1672 8.93036 3.88464 10.3855 4.1 11.81C4.23508 12.5403 4.47418 13.2475 4.81 13.91C4.31492 13.9671 3.81335 13.9159 3.34 13.76ZM22 12.86C21.6621 13.2966 21.192 13.6123 20.66 13.76C20.1574 13.9399 19.6186 13.9948 19.09 13.92C19.5799 13.2278 19.9094 12.4352 20.0547 11.5997C20.2 10.7643 20.1574 9.90693 19.93 9.08999C19.7964 8.60209 19.612 8.12952 19.38 7.67999C19.6862 7.65489 19.9938 7.65489 20.3 7.67999C20.6585 7.71986 21.0019 7.84689 21.3 8.04999C21.6273 8.31309 21.8792 8.65809 22.03 9.04999C22.218 9.4525 22.346 9.88038 22.41 10.32C22.5899 11.1883 22.444 12.0924 22 12.86Z" fill="black"/>
<path fill-rule="evenodd" clip-rule="evenodd" d="M4.53003 5.31997C5.63035 3.61175 7.33319 2.38013 9.30003 1.86997C10.2558 1.56615 11.2479 1.39127 12.25 1.34997C13.2405 1.28619 14.2346 1.39102 15.19 1.65997C16.1776 1.93132 17.095 2.41223 17.88 3.06997C18.6797 3.74289 19.3273 4.57798 19.78 5.51997C19.8218 5.61374 19.8981 5.68783 19.993 5.72692C20.088 5.76601 20.1943 5.76711 20.29 5.72997C20.3385 5.71034 20.3826 5.68114 20.4196 5.64412C20.4566 5.60711 20.4857 5.56303 20.5053 5.51451C20.5249 5.46599 20.5345 5.41402 20.5336 5.3617C20.5327 5.30938 20.5213 5.25778 20.5 5.20997C20.0704 4.11743 19.4085 3.13134 18.56 2.31997C17.7056 1.49365 16.682 0.862472 15.56 0.46997C14.4739 0.112834 13.3324 -0.046359 12.19 -3.00156e-05C11.0596 0.0549614 9.94541 0.29131 8.89003 0.69997C6.73276 1.42896 4.9457 2.972 3.91003 4.99997C3.88953 5.04131 3.87741 5.08629 3.87436 5.13234C3.87131 5.17838 3.8774 5.22457 3.89227 5.26825C3.90714 5.31193 3.9305 5.35224 3.96101 5.38686C3.99151 5.42148 4.02857 5.44972 4.07003 5.46997C4.11003 5.49061 4.15372 5.50311 4.19858 5.50673C4.24345 5.51036 4.28858 5.50504 4.33137 5.49109C4.37416 5.47713 4.41376 5.45482 4.44786 5.42545C4.48196 5.39607 4.50989 5.36022 4.53003 5.31997Z" fill="black"/>
<path fill-rule="evenodd" clip-rule="evenodd" d="M9.41998 13.17C9.37395 13.1629 9.32698 13.1651 9.28181 13.1764C9.23665 13.1878 9.1942 13.208 9.15695 13.2359C9.1197 13.2639 9.08839 13.299 9.06488 13.3391C9.04136 13.3793 9.02609 13.4238 9.01998 13.47C9.01295 13.5154 9.01523 13.5618 9.02666 13.6064C9.0381 13.6509 9.05845 13.6927 9.0865 13.7292C9.11454 13.7656 9.1497 13.796 9.18983 13.8185C9.22996 13.841 9.27424 13.8551 9.31998 13.86C9.92787 14.0718 10.5591 14.2094 11.2 14.27C11.5689 14.3094 11.941 14.3094 12.31 14.27C12.87 14.2 13.39 14.06 13.94 13.97C13.9921 13.9687 14.0434 13.957 14.0909 13.9356C14.1384 13.9141 14.1811 13.8834 14.2165 13.8452C14.252 13.807 14.2794 13.762 14.2971 13.713C14.3149 13.6641 14.3227 13.612 14.32 13.56C14.3187 13.5074 14.307 13.4557 14.2857 13.4076C14.2644 13.3596 14.2339 13.3162 14.1958 13.28C14.1577 13.2438 14.1129 13.2154 14.0638 13.1966C14.0148 13.1777 13.9625 13.1686 13.91 13.17C13.41 13.17 12.91 13.05 12.38 13.02C12.44 12.65 12.52 12.28 12.55 11.9C12.58 11.52 12.55 11.05 12.55 10.64C12.5301 10.3465 12.459 10.0589 12.34 9.78997C12.2254 9.52492 12.0245 9.30642 11.77 9.16997C11.5317 9.04954 11.2668 8.99108 11 8.99997C10.58 9.04997 10.1 9.22997 9.80998 9.28997C9.71803 9.30007 9.63351 9.34517 9.57393 9.41592C9.51435 9.48667 9.48429 9.57764 9.48998 9.66997C9.49239 9.71649 9.50433 9.76201 9.52506 9.80373C9.5458 9.84544 9.57488 9.88245 9.61052 9.91245C9.64615 9.94246 9.68756 9.96482 9.7322 9.97815C9.77683 9.99149 9.82373 9.99551 9.86998 9.98997H10.87C10.9892 9.99733 11.1038 10.039 11.2 10.11C11.2503 10.2788 11.2772 10.4538 11.28 10.63C11.28 10.86 11.28 11.09 11.34 11.33C11.4 11.57 11.43 12.03 11.46 12.33V12.83L11 13C10.43 13 9.93998 13.15 9.41998 13.17Z" fill="black"/>
</g>
<defs>
<clipPath id="clip0_1030_2145">
<rect width="24" height="24" fill="white"/>
</clipPath>
</defs>
</svg>
