<svg width="24" height="24" viewBox="0 0 24 24" fill="none" xmlns="http://www.w3.org/2000/svg">
<g clip-path="url(#clip0_1051_8621)">
<path fill-rule="evenodd" clip-rule="evenodd" d="M21.47 4.21997C21.2349 3.98583 20.9502 3.80762 20.6368 3.69856C20.3235 3.5895 19.9896 3.55238 19.66 3.58997C19.1679 3.65026 18.7189 3.90047 18.4088 4.2872C18.0987 4.67394 17.952 5.16657 18 5.65997C18.0264 5.85582 18.0873 6.04542 18.18 6.21997L16.46 6.89997C16.3048 6.92389 16.1511 6.95729 16 6.99997C15.43 6.16997 14.53 4.61997 13.87 3.68997C13.79 3.58997 13.72 3.50997 13.66 3.41997C13.7829 3.33515 13.8968 3.23798 14 3.12997C14.2172 2.97228 14.3868 2.75775 14.49 2.50997C14.61 2.18725 14.6274 1.83531 14.5397 1.50234C14.4519 1.16938 14.2635 0.871665 14 0.649971C13.7723 0.41915 13.4966 0.241264 13.1924 0.128931C12.8882 0.0165986 12.5631 -0.0274293 12.24 -2.93609e-05C11.7443 0.0554354 11.2903 0.303588 10.976 0.690866C10.6617 1.07814 10.5123 1.57348 10.56 2.06997C10.6001 2.36815 10.721 2.64967 10.9096 2.88409C11.0982 3.11851 11.3473 3.2969 11.63 3.39997C10.78 4.39997 9.35999 6.39997 8.85999 7.07997L8.36999 6.99997C7.71602 6.74039 7.04836 6.51672 6.36999 6.32997C6.482 6.01432 6.4971 5.67239 6.41335 5.34809C6.3296 5.02379 6.15083 4.73192 5.89999 4.50997C5.66493 4.27583 5.38017 4.09762 5.06684 3.98856C4.7535 3.8795 4.41963 3.84238 4.08999 3.87997C3.58941 3.9425 3.1339 4.20052 2.82289 4.59771C2.51188 4.9949 2.37064 5.49901 2.42999 5.99997C2.46367 6.22658 2.5428 6.44405 2.66264 6.63931C2.78248 6.83457 2.94055 7.00359 3.12736 7.13622C3.31416 7.26885 3.52585 7.36235 3.7497 7.41112C3.97355 7.45988 4.20495 7.46289 4.42999 7.41997V8.10997L4.60999 9.10997L5.03999 10.61L5.43999 11.96C5.56999 12.39 6.05999 12.25 6.01999 11.77L5.66999 10.45L5.30999 8.94997L5.25999 7.99997C5.25999 7.89997 5.19999 7.56997 5.18999 7.33997C5.36337 7.2708 5.53063 7.18717 5.68999 7.08997C5.87463 7.10156 6.05834 7.12494 6.23999 7.15997C6.876 7.37331 7.50022 7.62033 8.10999 7.89997C8.43646 7.99524 8.77133 8.05887 9.10999 8.08997C9.1991 8.09589 9.28824 8.07876 9.36881 8.04022C9.44938 8.00169 9.51866 7.94306 9.56999 7.86997C9.71999 7.64997 11.75 4.86997 12.67 3.86997C13.41 4.73997 14.75 7.00997 15.38 7.86997C15.4367 7.94476 15.5113 8.00411 15.5969 8.04255C15.6825 8.08099 15.7764 8.0973 15.87 8.08997C16.1665 8.04043 16.4577 7.96343 16.74 7.85997C16.99 7.76997 17.24 7.67997 17.48 7.56997C17.72 7.45997 18.19 7.24997 18.54 7.08997C18.61 7.08997 18.86 7.02997 18.93 6.93997C19.0375 7.06631 19.1007 7.22435 19.11 7.38997C19.1566 7.72167 19.1566 8.05827 19.11 8.38997C18.9822 9.2479 18.7849 10.094 18.52 10.92C18.34 11.52 18.07 12.03 17.84 12.61C17.61 13.19 18.07 13.61 18.27 13.17C18.56 12.53 18.98 11.81 19.21 11.17C19.5141 10.3129 19.7514 9.43362 19.92 8.53997C20.0017 8.06681 20.0017 7.58313 19.92 7.10997C20.42 7.10997 20.31 7.25997 20.57 7.16997C20.8954 7.07725 21.2006 6.92464 21.47 6.71997C21.6845 6.55944 21.8534 6.34574 21.96 6.09997C22.0816 5.77426 22.0998 5.41896 22.0121 5.08252C21.9245 4.74608 21.7351 4.44487 21.47 4.21997ZM5.60999 6.09997C5.52999 6.41997 3.38999 7.48997 3.32999 5.86997C3.34774 5.61707 3.46088 5.38035 3.64653 5.2077C3.83217 5.03504 4.07647 4.93935 4.32999 4.93997C4.50925 4.91347 4.69217 4.92756 4.86525 4.98122C5.03834 5.03487 5.19716 5.12672 5.32999 5.24997C5.45501 5.34847 5.54824 5.48162 5.59804 5.63279C5.64783 5.78396 5.65199 5.94645 5.60999 6.09997ZM11.46 1.99997C11.4801 1.74886 11.5943 1.5146 11.7797 1.34403C11.9651 1.17347 12.2081 1.07916 12.46 1.07997C12.629 1.05917 12.8006 1.07522 12.9629 1.127C13.1251 1.17879 13.2742 1.26509 13.4 1.37997C13.542 1.46641 13.6545 1.594 13.7223 1.74581C13.7902 1.89762 13.8103 2.06647 13.78 2.22997C13.7312 2.39487 13.6292 2.53901 13.49 2.63997C13.49 2.63997 11.5 3.24997 11.46 1.99997ZM21.17 5.79997C21.1174 5.96301 21.0162 6.10607 20.88 6.20997C20.7186 6.3425 20.5266 6.43248 20.3214 6.4717C20.1163 6.51091 19.9047 6.49811 19.7058 6.43446C19.5069 6.37082 19.3271 6.25835 19.1828 6.10734C19.0386 5.95632 18.9345 5.77158 18.88 5.56997C18.9001 5.31886 19.0143 5.0846 19.1997 4.91403C19.3851 4.74347 19.6281 4.64916 19.88 4.64997C20.049 4.62917 20.2206 4.64522 20.3829 4.697C20.5451 4.74879 20.6942 4.83509 20.82 4.94997C20.9564 5.04304 21.0624 5.17426 21.1246 5.32722C21.1869 5.48018 21.2026 5.64809 21.17 5.80997V5.79997Z" fill="black"/>
<path fill-rule="evenodd" clip-rule="evenodd" d="M17.54 13.4999C17.1579 13.193 16.7246 12.9561 16.26 12.7999C14.7845 12.3495 13.2526 12.1105 11.71 12.0899C9.9403 11.9815 8.16551 12.1915 6.46999 12.7099L6.34999 12.7699C6.1885 12.8332 6.03428 12.9137 5.88999 13.0099C5.5857 13.1782 5.34112 13.4368 5.18999 13.7499C4.99379 14.226 4.82681 14.7136 4.68999 15.2099C4.49999 15.9199 4.37999 16.5399 4.28999 16.9299C4.2557 16.9912 4.22563 17.0546 4.19999 17.1199L3.99999 17.1999C3.55711 17.3001 3.11984 17.4236 2.68999 17.5699C2.27999 17.7299 2.06999 17.9799 2.03999 18.1799C1.76999 19.5899 2.66999 21.1799 4.54999 22.3799C6.64199 23.5741 9.03506 24.1367 11.44 23.9999C11.5064 23.9874 11.5664 23.9521 11.6096 23.9001C11.6528 23.848 11.6764 23.7826 11.6764 23.7149C11.6764 23.6473 11.6528 23.5818 11.6096 23.5298C11.5664 23.4778 11.5064 23.4424 11.44 23.4299C9.14843 23.5138 6.8823 22.9264 4.91999 21.7399C3.48999 20.7899 2.68999 19.5799 2.86999 18.4799C2.70999 18.2099 3.70999 18.2299 4.15999 18.1299C4.44326 18.0813 4.71271 17.9721 4.94999 17.8099C5.09401 17.6543 5.1971 17.4653 5.24999 17.2599C5.49903 16.198 5.83345 15.158 6.24999 14.1499C6.36999 13.8399 6.85999 13.6799 7.48999 13.5199C8.89073 13.2085 10.3266 13.0841 11.76 13.1499C12.28 13.1499 12.76 13.1999 13.28 13.2499C12.9128 13.8631 12.4306 14.3996 11.86 14.8299C11.587 15.0308 11.2995 15.2113 11 15.3699C10.6957 15.5237 10.3817 15.6573 10.06 15.7699C9.46684 15.9878 8.84174 16.1061 8.20999 16.1199C8.24636 15.7597 8.30649 15.4023 8.38999 15.0499C8.4056 14.9759 8.39264 14.8986 8.35369 14.8337C8.31474 14.7688 8.2527 14.721 8.17999 14.6999C8.10974 14.6813 8.03499 14.6907 7.97154 14.7261C7.9081 14.7616 7.86092 14.8203 7.83999 14.8899C7.49428 15.8887 7.34157 16.9441 7.38999 17.9999C7.44365 18.7446 7.67698 19.4652 8.06999 20.0999C8.52636 20.7449 9.17869 21.2254 9.92999 21.4699C10.9794 21.8179 12.0947 21.9205 13.19 21.7699C13.5777 21.7289 13.958 21.6347 14.32 21.4899C14.6014 21.3854 14.8572 21.2217 15.07 21.0099C15.5964 20.4116 15.943 19.6767 16.07 18.8899C16.2692 17.8032 16.2454 16.6872 16 15.6099C15.9787 15.5272 15.9261 15.456 15.8534 15.4113C15.7807 15.3665 15.6934 15.3517 15.61 15.3699C15.5281 15.389 15.457 15.4396 15.4121 15.5107C15.3671 15.5818 15.352 15.6678 15.37 15.7499C15.5201 16.5799 15.5201 17.43 15.37 18.2599C15.2761 19.0478 14.9245 19.7825 14.37 20.3499C14.2448 20.4588 14.0984 20.5405 13.94 20.5899C13.6469 20.6784 13.3452 20.7354 13.04 20.7599C12.2581 20.844 11.4678 20.8001 10.7 20.6299C9.98163 20.5173 9.32254 20.1649 8.82999 19.6299C8.39308 19.0062 8.14329 18.2707 8.10999 17.5099V16.8599C8.82604 17.0051 9.56394 17.0051 10.28 16.8599C10.6823 16.7687 11.0695 16.6205 11.43 16.4199C11.7943 16.2302 12.1308 15.9913 12.43 15.7099C13.0985 15.0791 13.606 14.2973 13.91 13.4299C14.5887 13.5149 15.2582 13.6622 15.91 13.8699C16.53 14.0799 17 14.2899 17.14 14.6299C17.63 15.8099 17.89 16.8999 18.07 17.4199C18.1173 17.6056 18.2141 17.7749 18.35 17.9099C18.5046 18.0148 18.6776 18.0895 18.86 18.1299C19.18 18.2299 19.77 18.6099 20.03 18.5799C19.983 19.28 19.7755 19.9599 19.4234 20.5668C19.0714 21.1738 18.5843 21.6915 18 22.0799C16.6157 22.9095 15.0338 23.3516 13.42 23.3599C13.3775 23.3599 13.3355 23.3685 13.2966 23.3853C13.2576 23.4021 13.2225 23.4268 13.1934 23.4577C13.1643 23.4886 13.1419 23.5252 13.1276 23.5652C13.1132 23.6051 13.1073 23.6476 13.11 23.6899C13.1152 23.7757 13.1536 23.8561 13.2171 23.914C13.2805 23.9719 13.3641 24.0027 13.45 23.9999C15.203 24.0326 16.9316 23.5866 18.45 22.7099C19.214 22.2277 19.8462 21.563 20.2896 20.7757C20.7329 19.9885 20.9736 19.1033 20.99 18.1999C20.9915 18.0854 20.959 17.973 20.8967 17.877C20.8345 17.7809 20.7451 17.7053 20.64 17.6599C20.2233 17.4768 19.7917 17.3296 19.35 17.2199C19.23 17.2199 19.11 17.1099 19.04 17.0899L19 16.9999C18.89 16.6599 18.76 16.1199 18.57 15.4799C18.44 15.0799 18.31 14.6399 18.13 14.1899C17.9491 13.9469 17.752 13.7164 17.54 13.4999Z" fill="black"/>
</g>
<defs>
<clipPath id="clip0_1051_8621">
<rect width="24" height="24" fill="white"/>
</clipPath>
</defs>
</svg>
