<svg width="24" height="24" viewBox="0 0 24 24" fill="none" xmlns="http://www.w3.org/2000/svg">
<g clip-path="url(#clip0_1051_8615)">
<path fill-rule="evenodd" clip-rule="evenodd" d="M19.44 19.06C19.44 18.97 19.38 18.11 19.13 18.06C18.88 18.01 18.81 18.06 18.66 18.33C18.5686 18.5982 18.4951 18.8721 18.44 19.15C16.98 19.26 16.44 19.65 15.3 19.68C14.9 19.77 14.95 20.27 15.48 20.31C16.4309 20.405 17.389 20.405 18.34 20.31C18.34 20.98 18.34 21.09 18.51 21.38C18.5598 21.443 18.6309 21.4857 18.71 21.5C18.86 21.56 18.98 21.5 19.1 21.36C19.1588 21.233 19.1992 21.0984 19.22 20.96C19.3077 20.7221 19.3779 20.4781 19.43 20.23L22.2 20C22.67 20 22.75 19.4 22.25 19.33C21.3219 19.1659 20.3823 19.0757 19.44 19.06Z" fill="black"/>
<path fill-rule="evenodd" clip-rule="evenodd" d="M23.91 18.18C23.91 17.89 23.96 17.46 23.91 17.1C23.76 15.93 22.83 15.91 21.83 15.9C21.8566 15.7177 21.8733 15.5341 21.88 15.35C21.7911 14.9177 21.5718 14.523 21.2518 14.219C20.9318 13.9151 20.5263 13.7165 20.09 13.65C17.96 13.14 16.09 14.88 16.47 16.19C14.76 16.66 14.64 16.63 14.47 16.94C14 18 14 19.42 14 22.49C14.16 24.03 14.64 23.22 14.65 23.12V21.22C14.65 20.9 14.79 19.55 14.78 19.55C14.8061 18.8663 14.9411 18.1911 15.18 17.55C17.219 16.964 19.3574 16.8074 21.46 17.09H22.25C22.42 17.09 22.77 17.09 22.7 17.17C22.63 17.25 22.7 21.24 22.7 21.82V22.69C22.7 23.04 23.47 23.03 16 22.94C15.14 22.94 15.12 22.88 15 22.94C14.9593 22.9599 14.9237 22.9887 14.8957 23.0243C14.8678 23.06 14.8482 23.1015 14.8386 23.1457C14.829 23.19 14.8295 23.2359 14.8401 23.2799C14.8508 23.3239 14.8712 23.365 14.9 23.4C15.07 23.65 15.07 23.56 17.62 23.66C24.2 23.94 23.53 24.33 23.75 21.86C23.8952 20.639 23.9487 19.4089 23.91 18.18ZM17.16 16.06C17.03 14.91 20.25 14.13 21.04 15.32C21.1268 15.4894 21.1549 15.6828 21.12 15.87C19.7973 15.7665 18.4668 15.8303 17.16 16.06Z" fill="black"/>
<path fill-rule="evenodd" clip-rule="evenodd" d="M10.56 7.99997C10.0803 7.69013 9.55345 7.46046 8.99998 7.31997C13 5.72997 11.82 -2.73287e-05 7.66998 0.139973C2.30998 0.529973 2.41998 5.67997 4.76998 7.13997C5.56998 7.62997 5.32998 7.02997 3.85998 8.06997C2.03894 9.29433 0.768566 11.1819 0.319983 13.33C0.0448718 14.262 0.000259697 15.2469 0.189983 16.2C0.274216 16.4797 0.429943 16.7327 0.641793 16.9338C0.853643 17.135 1.11429 17.2775 1.39801 17.3471C1.68173 17.4168 1.97872 17.4113 2.25965 17.3311C2.54059 17.2509 2.79576 17.0989 2.99998 16.89C2.98992 18.3543 3.15442 19.8146 3.48998 21.24C3.79998 22.58 4.60998 23.86 5.99998 23.85C8.35998 23.85 8.79998 24.02 9.42998 23.27C10.2271 21.8692 10.7593 20.3336 11 18.74C11.07 18.21 11.12 17.62 11.17 16.85C11.3653 17.0605 11.611 17.2178 11.8839 17.3071C12.1569 17.3963 12.448 17.4145 12.73 17.36C13.87 17.16 14.11 16.27 14.12 15.17C14.0659 13.7914 13.7207 12.4398 13.1072 11.204C12.4936 9.96831 11.6255 8.87637 10.56 7.99997ZM7.73998 1.29997C8.09331 1.27062 8.44887 1.31556 8.78378 1.4319C9.11869 1.54825 9.42553 1.73342 9.68457 1.97549C9.9436 2.21757 10.1491 2.5112 10.2878 2.83748C10.4265 3.16376 10.4954 3.51547 10.49 3.86997C9.91209 3.6524 9.39926 3.29101 8.99998 2.81997C8.72998 2.53997 8.54998 2.00997 7.99998 1.81997C7.24998 1.57997 7.07998 2.88997 5.33998 3.63997C4.99152 3.79581 4.61998 3.89376 4.23998 3.92997C4.42998 2.14997 5.99998 1.37997 7.73998 1.29997ZM5.18998 6.47997C4.88646 6.2611 4.63807 5.97455 4.46449 5.64303C4.29092 5.31151 4.19694 4.94412 4.18998 4.56997C5.25145 4.63334 6.30465 4.34898 7.18998 3.75997C7.44313 3.58825 7.67188 3.38305 7.86998 3.14997C8.30867 3.65767 8.85535 4.06084 9.46998 4.32997C9.77222 4.46878 10.0917 4.56633 10.42 4.61997C9.84998 7.18997 6.35998 7.28997 5.18998 6.47997ZM13.19 15.98C13.1451 16.0935 13.0735 16.1945 12.9813 16.2745C12.8892 16.3545 12.7791 16.4111 12.6604 16.4395C12.5417 16.468 12.4179 16.4674 12.2995 16.4379C12.181 16.4084 12.0714 16.3508 11.98 16.27C11.5936 15.2579 11.2599 14.2265 10.98 13.18C10.98 13.1 9.97998 12.62 9.97998 13.72C9.97998 14.29 10.12 15.63 10.09 16.08C10.0804 17.737 9.78962 19.3803 9.22998 20.94C9.06998 21.4 8.65998 22.7 8.22998 22.7H7.22998C7.43881 20.7066 7.46558 18.6983 7.30998 16.7C7.30998 16.6098 7.27416 16.5233 7.2104 16.4596C7.14664 16.3958 7.06016 16.36 6.96998 16.36C6.87981 16.36 6.79333 16.3958 6.72957 16.4596C6.6658 16.5233 6.62998 16.6098 6.62998 16.7C6.21998 20.08 6.14998 19.96 6.46998 22.7H5.99998C5.24998 22.7 4.82998 21.75 4.66998 21.01C3.36998 14.84 5.05998 12.69 3.66998 12.89C3.10998 12.96 3.25998 13.48 2.66998 15.43C2.5857 15.7148 2.47869 15.9923 2.34998 16.26C2.26712 16.351 2.16047 16.417 2.04208 16.4505C1.92369 16.4841 1.79827 16.4839 1.67998 16.45C0.999983 16.35 0.999983 15.63 0.999983 15C1.0563 13.4989 1.50075 12.0381 2.28998 10.76C3.1075 9.52745 4.27381 8.56655 5.63998 7.99997C6.64241 7.6845 7.71755 7.6845 8.71998 7.99997C9.22365 8.12871 9.70318 8.33808 10.14 8.61997C10.8069 9.15788 11.3754 9.80754 11.82 10.54C12.4695 11.5716 12.9238 12.714 13.16 13.91C13.2845 14.6017 13.2778 15.3107 13.14 16L13.19 15.98Z" fill="black"/>
<path fill-rule="evenodd" clip-rule="evenodd" d="M6.99998 11.9999C7.01389 12.0814 7.05616 12.1553 7.1193 12.2085C7.18243 12.2618 7.26238 12.291 7.34498 12.291C7.42759 12.291 7.50753 12.2618 7.57067 12.2085C7.6338 12.1553 7.67607 12.0814 7.68998 11.9999C7.85199 10.7369 7.83179 9.45721 7.62998 8.19995C7.53998 7.79995 7.09998 7.91995 7.01998 8.19995C6.72242 9.44837 6.71557 10.7485 6.99998 11.9999Z" fill="black"/>
</g>
<defs>
<clipPath id="clip0_1051_8615">
<rect width="24" height="24" fill="white"/>
</clipPath>
</defs>
</svg>
