<svg width="24" height="24" viewBox="0 0 24 24" fill="none" xmlns="http://www.w3.org/2000/svg">
<g clip-path="url(#clip0_1033_3743)">
<path fill-rule="evenodd" clip-rule="evenodd" d="M16.91 12.55C16.0139 12.7086 15.1597 13.0489 14.4 13.55C14.3218 13.6017 14.2673 13.6824 14.2485 13.7743C14.2298 13.8662 14.2483 13.9618 14.3 14.04C14.3517 14.1182 14.4324 14.1727 14.5243 14.1915C14.6162 14.2102 14.7118 14.1917 14.79 14.14C15.4777 13.7153 16.2483 13.4425 17.05 13.34C21.38 12.68 24.05 16.56 22.38 20.07C22.0517 20.7513 21.5732 21.3493 20.9804 21.819C20.3875 22.2886 19.6959 22.6176 18.9575 22.7813C18.2192 22.9449 17.4533 22.9389 16.7176 22.7638C15.9818 22.5886 15.2954 22.2488 14.71 21.77C12.71 20.23 12.45 16.98 13.49 15.72C13.521 15.6899 13.5454 15.6537 13.5616 15.6136C13.5778 15.5736 13.5854 15.5306 13.584 15.4874C13.5826 15.4442 13.5722 15.4018 13.5534 15.3629C13.5347 15.324 13.508 15.2894 13.4751 15.2614C13.4422 15.2334 13.4038 15.2126 13.3624 15.2003C13.321 15.188 13.2774 15.1845 13.2346 15.19C13.1917 15.1955 13.1505 15.21 13.1136 15.2323C13.0766 15.2547 13.0447 15.2846 13.02 15.32C11.69 16.8 11.81 20.56 14.1 22.51C14.8016 23.1165 15.6343 23.5521 16.5327 23.7826C17.431 24.0131 18.3706 24.0322 19.2775 23.8384C20.1845 23.6446 21.0342 23.2432 21.7599 22.6657C22.4856 22.0882 23.0675 21.3503 23.46 20.51C23.9212 19.5331 24.0953 18.4452 23.962 17.3731C23.8287 16.3011 23.3935 15.2889 22.707 14.4547C22.0206 13.6205 21.1112 12.9986 20.0849 12.6613C19.0585 12.3241 17.9575 12.2855 16.91 12.55Z" fill="black"/>
<path fill-rule="evenodd" clip-rule="evenodd" d="M16.13 17C16.13 19 19.13 18.37 19.2 18.85C19.3 19.6 17.04 19.62 16.87 19.17C16.65 18.56 15.62 19.17 16.6 19.9C16.9465 20.1399 17.35 20.2847 17.77 20.32C17.6172 20.5936 17.5757 20.9156 17.6539 21.219C17.732 21.5225 17.924 21.7842 18.19 21.95C18.51 21.95 18.99 21.04 18.58 20.32C19.86 20.2 20.33 19.55 20.31 18.75C20.31 18.26 19.97 17.75 19.11 17.51C18.53 17.36 17.26 17.46 17.21 16.94C17.1 16.04 18.65 15.94 19.27 16.39C19.301 16.4191 19.3377 16.4415 19.3778 16.4557C19.4179 16.47 19.4605 16.4759 19.5029 16.473C19.5454 16.4701 19.5868 16.4585 19.6246 16.439C19.6623 16.4194 19.6957 16.3922 19.7225 16.3592C19.7493 16.3262 19.7691 16.288 19.7805 16.247C19.7919 16.2061 19.7948 16.1632 19.7889 16.121C19.7831 16.0789 19.7686 16.0384 19.7464 16.0021C19.7242 15.9658 19.6948 15.9344 19.66 15.91C19.334 15.6386 18.9396 15.4621 18.52 15.4C18.5711 15.1459 18.5546 14.8829 18.4721 14.6372C18.3896 14.3915 18.244 14.1718 18.05 14C17.96 14 17.85 14 17.67 14.29C17.5353 14.4394 17.4459 14.6241 17.4123 14.8224C17.3786 15.0207 17.4021 15.2245 17.48 15.41C17.0956 15.4551 16.7426 15.6443 16.492 15.9393C16.2415 16.2343 16.1122 16.6134 16.13 17Z" fill="black"/>
<path d="M7.19999 2C5.28999 2.42 4.71999 3.49 4.99999 4.79C5.54999 7.73 10.61 6.54 9.47999 3.42C9.34397 2.94255 9.03524 2.53275 8.61384 2.27029C8.19244 2.00784 7.68849 1.9115 7.19999 2ZM5.86999 4.58C5.34999 2.76 7.99999 1.93 8.46999 3.71C8.93999 5.49 6.25999 5.94 5.86999 4.58Z" fill="black"/>
<path d="M18.31 0.630021C18.282 0.601294 18.2486 0.578461 18.2117 0.56287C18.1748 0.547278 18.1351 0.539246 18.095 0.539246C18.0549 0.539246 18.0152 0.547278 17.9783 0.56287C17.9414 0.578461 17.9079 0.601294 17.88 0.630021C17.75 0.780021 17.88 0.790021 17.88 1.36002C17.88 2.09002 17.35 11.25 18.28 11.28C18.3712 11.2828 18.4598 11.2498 18.5271 11.1882C18.5943 11.1265 18.6348 11.0411 18.64 10.95C18.74 9.82002 18.86 8.56002 18.9 7.30002C19 4.42002 18.6 0.860021 18.31 0.630021Z" fill="black"/>
<path d="M1.79 14.29C1.19 14.13 1.38 14.14 1.34 13.7C1.3 13.26 1 2.52 1.37 1.3C2.37 1.04 9.11 0.899996 10.37 0.919996C17 0.999996 17.15 1.23 17.16 0.699996C17.1613 0.655341 17.1539 0.610862 17.138 0.5691C17.1221 0.527339 17.0982 0.489113 17.0675 0.456609C17.0369 0.424104 17.0001 0.397958 16.9594 0.379665C16.9186 0.361372 16.8747 0.35129 16.83 0.349996C0.560001 -0.340004 0.430002 -4.29153e-06 0.210002 1.16C-0.179998 3.21 1.60933e-06 14 0.540002 14.7C1.4 15.89 9.54 15.56 10.98 15.5C11.0596 15.5 11.1359 15.4684 11.1921 15.4121C11.2484 15.3559 11.28 15.2796 11.28 15.2C11.28 15.1204 11.2484 15.0441 11.1921 14.9879C11.1359 14.9316 11.0596 14.9 10.98 14.9C10.34 14.9 4.07 14.91 1.79 14.29Z" fill="black"/>
<path d="M17.45 8.22C16.16 6.22 14.27 5 12.03 6.22C10.03 7.41 9.02999 9.94 8.16999 12.06C8.16999 12.17 8.16999 12.2 7.96999 11.83C7.49535 11.0676 6.79686 10.4704 5.96999 10.12C3.71999 9.27 2.64999 9.77 1.56999 11C1.29999 11.35 1.42999 12.18 1.72999 11.86C2.84999 10.63 3.33999 10.44 5.59999 11.19C6.54279 11.5087 7.34304 12.1496 7.85999 13C7.85999 13.12 7.62999 13.8 7.49999 14.28C7.42999 14.56 8.08999 14.85 8.18999 14.28C9.24999 11.28 11.7 6.07 14.5 6.88C15.288 7.19235 15.998 7.67364 16.58 8.29C16.779 8.50834 16.9965 8.70909 17.23 8.89C17.54 9.1 17.64 8.47 17.45 8.22Z" fill="black"/>
</g>
<defs>
<clipPath id="clip0_1033_3743">
<rect width="24" height="24" fill="white"/>
</clipPath>
</defs>
</svg>
