<svg width="24" height="24" viewBox="0 0 24 24" fill="none" xmlns="http://www.w3.org/2000/svg">
<g clip-path="url(#clip0_1033_3751)">
<path fill-rule="evenodd" clip-rule="evenodd" d="M19.85 12.36C19.5693 12.5226 19.3133 12.7246 19.09 12.96C19.0257 13.0095 18.9834 13.0823 18.9722 13.1627C18.9609 13.2431 18.9817 13.3247 19.03 13.39C19.28 13.72 19.55 13.32 20.03 13.13C20.94 12.78 22.2 13.94 22.19 14.49C22.2106 15.0734 22.0065 15.6425 21.62 16.08C21.72 16.08 19.62 14.42 18.91 13.8C18.8783 13.767 18.8402 13.7408 18.7981 13.7229C18.756 13.705 18.7107 13.6957 18.665 13.6957C18.6192 13.6957 18.574 13.705 18.5319 13.7229C18.4898 13.7408 18.4517 13.767 18.42 13.8C18 14.22 18.72 14.47 20.99 16.67C20.66 17.16 20.58 17.19 16.86 21.03C16.6453 20.5615 16.3393 20.1406 15.9598 19.792C15.5803 19.4435 15.135 19.1742 14.65 19C15.8 17.56 18.12 14.89 18.02 15C18.0691 14.9337 18.0898 14.8506 18.0776 14.769C18.0654 14.6874 18.0213 14.614 17.955 14.565C17.8887 14.5159 17.8056 14.4952 17.724 14.5074C17.6425 14.5196 17.5691 14.5637 17.52 14.63C14.52 17.77 12.82 19.46 12.76 19.98C12.51 22.26 12.34 23.31 12.66 23.65C13.29 24.33 15.82 23.57 16.35 23.24C18.6759 20.9243 20.8441 18.4555 22.84 15.85C24.36 13.44 21.55 11.46 19.85 12.36ZM15.72 22.19C15.0624 22.4886 14.3593 22.6746 13.64 22.74C13.64 20.94 13.83 20.19 13.75 20.15C13.67 20.11 13.87 19.95 14 19.78C14.0503 19.7019 14.1072 19.6283 14.17 19.56C14.8032 20.3223 15.5211 21.0101 16.31 21.61C16.1235 21.8134 15.9265 22.0069 15.72 22.19Z" fill="black"/>
<path d="M7.90995 2.16997C5.99995 2.54997 5.42995 3.61997 5.66995 4.91997C6.21995 7.84997 11.2899 6.65996 10.1499 3.54996C10.0066 3.08794 9.70067 2.69353 9.28881 2.43979C8.87695 2.18605 8.38708 2.09019 7.90995 2.16997ZM6.57995 4.69996C6.05995 2.87996 8.74995 2.05996 9.18995 3.83996C9.62995 5.61996 6.99995 6.05996 6.57995 4.69996Z" fill="black"/>
<path d="M19 0.749955C18.972 0.721228 18.9386 0.698395 18.9016 0.682804C18.8647 0.667213 18.825 0.65918 18.785 0.65918C18.7449 0.65918 18.7052 0.667213 18.6683 0.682804C18.6313 0.698395 18.5979 0.721228 18.57 0.749955C18.44 0.889955 18.57 0.899955 18.57 1.47995C18.57 2.05995 18 11.38 19 11.41C19.0449 11.4127 19.09 11.4062 19.1324 11.3908C19.1748 11.3755 19.2135 11.3516 19.2463 11.3207C19.2791 11.2897 19.3052 11.2524 19.3231 11.211C19.3409 11.1696 19.35 11.125 19.35 11.08C19.45 9.95996 19.57 8.68995 19.62 7.42995C19.69 4.53995 19.31 0.999955 19 0.749955Z" fill="black"/>
<path d="M2.49997 14.41C1.90997 14.25 2.08997 14.27 2.05997 13.83C2.02997 13.39 1.72997 2.64998 2.05997 1.41998C3.05997 1.15998 9.78997 1.02998 11.06 1.03998C17.65 1.11998 17.84 1.35998 17.85 0.82998C17.8527 0.738804 17.8198 0.650155 17.7581 0.582914C17.6965 0.515672 17.611 0.475151 17.52 0.46998C1.26997 -0.22002 1.13997 0.10998 0.919974 1.27998C0.539974 3.32998 0.749974 14.1 1.24997 14.82C2.10997 16.01 10.25 15.69 11.69 15.63C11.7614 15.617 11.826 15.5793 11.8725 15.5236C11.919 15.4679 11.9445 15.3976 11.9445 15.325C11.9445 15.2524 11.919 15.1821 11.8725 15.1263C11.826 15.0706 11.7614 15.033 11.69 15.02C11.05 15 4.78997 15 2.49997 14.41Z" fill="black"/>
<path d="M18.16 8.35C16.87 6.35 14.98 5.13 12.74 6.35C10.74 7.53 9.73998 10.07 8.88998 12.18C8.83998 12.29 8.88998 12.32 8.68998 11.96C8.21442 11.196 7.51652 10.5958 6.68998 10.24C4.44998 9.4 3.37998 9.9 2.29998 11.12C2.01998 11.47 2.14998 12.31 2.44998 11.99C3.52998 10.8 3.99998 10.61 6.26998 11.36C7.22334 11.6621 8.03845 12.2929 8.56998 13.14C8.56998 13.27 8.34998 13.95 8.20998 14.42C8.13998 14.7 8.79998 14.99 8.90998 14.42C9.95998 11.42 12.41 6.2 15.21 7.02C16.0007 7.32253 16.7121 7.80132 17.29 8.42C17.489 8.63834 17.7064 8.83909 17.94 9.02C18.26 9.23 18.35 8.59 18.16 8.35Z" fill="black"/>
</g>
<defs>
<clipPath id="clip0_1033_3751">
<rect width="24" height="24" fill="white"/>
</clipPath>
</defs>
</svg>
