<svg width="24" height="24" viewBox="0 0 24 24" fill="none" xmlns="http://www.w3.org/2000/svg">
<g clip-path="url(#clip0_1052_9166)">
<path fill-rule="evenodd" clip-rule="evenodd" d="M23.94 17.11C23.9041 16.7016 23.7435 16.3141 23.48 16C23.1998 15.7453 22.853 15.5754 22.48 15.51C21.7693 15.3967 21.0489 15.3565 20.33 15.39H13.48C10.94 15.39 8.58003 15.16 6.12003 15.07H4.25003C3.36645 14.9987 2.4777 15.0255 1.60003 15.15C1.15529 15.239 0.745614 15.4542 0.420029 15.77C0.197266 16.0562 0.0743351 16.4074 0.0700295 16.77C0.0263344 17.4035 0.0430766 18.0397 0.120029 18.67C0.120029 18.92 0.120029 19.24 0.170029 19.59C0.170029 20.84 0.100029 22.51 0.170029 23.48C0.173777 23.5195 0.185312 23.5578 0.203968 23.5928C0.222623 23.6278 0.248028 23.6587 0.278715 23.6838C0.309401 23.7089 0.344761 23.7277 0.382748 23.7391C0.420735 23.7504 0.460597 23.7541 0.50003 23.75C0.539065 23.7475 0.577195 23.7372 0.612126 23.7196C0.647058 23.702 0.678068 23.6775 0.703291 23.6476C0.728515 23.6177 0.74743 23.583 0.758899 23.5456C0.770368 23.5082 0.774154 23.4689 0.770029 23.43C0.700029 22.43 0.85003 20.82 0.87003 19.59C0.891121 19.257 0.891121 18.923 0.87003 18.59C0.834262 18.0973 0.834262 17.6027 0.87003 17.11C0.853531 16.8672 0.905502 16.6247 1.02003 16.41C1.31237 16.1565 1.68326 16.0117 2.07003 16C2.7777 15.974 3.48633 16.0007 4.19003 16.08C6.42003 16.14 8.50003 16.35 10.64 16.47C11.55 16.52 12.48 16.55 13.44 16.55H16.18C17.51 16.55 18.84 16.5 20.31 16.45C20.8761 16.4146 21.4439 16.4146 22.01 16.45C22.3006 16.4505 22.585 16.5338 22.83 16.69C23.0162 16.9383 23.1179 17.2397 23.12 17.55C23.161 18.136 23.161 18.724 23.12 19.31C23.12 20.07 22.96 21.31 22.89 22.31C22.8626 22.7462 22.8626 23.1838 22.89 23.62C22.8952 23.7111 22.9357 23.7965 23.003 23.8582C23.0702 23.9198 23.1589 23.9528 23.25 23.95C23.2943 23.9487 23.3378 23.9386 23.378 23.9202C23.4182 23.9018 23.4543 23.8755 23.4842 23.8428C23.514 23.8102 23.537 23.7718 23.5518 23.7301C23.5665 23.6884 23.5727 23.6442 23.57 23.6C23.57 23.29 23.57 22.85 23.65 22.37C23.75 21.37 23.92 20.15 23.97 19.37C24.0436 18.6179 24.0336 17.8599 23.94 17.11Z" fill="black"/>
<path fill-rule="evenodd" clip-rule="evenodd" d="M16.13 14.24C16.13 14.2802 16.1381 14.3201 16.1538 14.3572C16.1695 14.3942 16.1925 14.4278 16.2214 14.4557C16.2503 14.4837 16.2846 14.5056 16.3222 14.5201C16.3597 14.5346 16.3998 14.5413 16.44 14.54C16.5188 14.5375 16.5937 14.5051 16.6494 14.4494C16.7051 14.3936 16.7375 14.3188 16.74 14.24C16.7713 13.9993 16.8628 13.7705 17.0062 13.5747C17.1495 13.3789 17.3401 13.2225 17.56 13.12C17.8267 12.9778 18.1132 12.8766 18.41 12.82C18.8358 12.6966 19.2848 12.676 19.72 12.76C20.0442 12.8214 20.3413 12.9822 20.57 13.22C20.8298 13.4815 21.0249 13.7999 21.14 14.15C21.1494 14.194 21.1676 14.2356 21.1935 14.2723C21.2195 14.309 21.2527 14.3401 21.2911 14.3635C21.3295 14.3869 21.3723 14.4022 21.4168 14.4085C21.4613 14.4148 21.5067 14.4119 21.55 14.4C21.593 14.3906 21.6336 14.3727 21.6695 14.3474C21.7054 14.3221 21.7359 14.2898 21.7592 14.2526C21.7824 14.2153 21.7981 14.1738 21.8051 14.1304C21.8121 14.087 21.8104 14.0427 21.8 14C21.7305 13.5116 21.5416 13.0479 21.25 12.65C20.952 12.1947 20.5182 11.8448 20.01 11.65C19.7717 11.5842 19.527 11.5439 19.28 11.53V11.39C19.28 11.19 19.21 10.99 19.16 10.66C19.155 10.5813 19.1201 10.5075 19.0625 10.4536C19.0049 10.3997 18.9289 10.3698 18.85 10.37C18.8098 10.37 18.7699 10.3781 18.7329 10.3937C18.6958 10.4094 18.6623 10.4324 18.6343 10.4614C18.6063 10.4903 18.5844 10.5246 18.5699 10.5621C18.5555 10.5997 18.5487 10.6398 18.55 10.68C18.55 11.02 18.48 11.22 18.48 11.44C18.4752 11.4899 18.4752 11.5401 18.48 11.59C18.1043 11.6545 17.7423 11.783 17.41 11.97C16.9921 12.1745 16.6461 12.5009 16.4175 12.9062C16.189 13.3115 16.0888 13.7766 16.13 14.24Z" fill="black"/>
<path fill-rule="evenodd" clip-rule="evenodd" d="M12.7001 10.6501C12.2939 9.93769 11.7076 9.34456 11.0001 8.93007C10.613 8.69732 10.1958 8.51898 9.76005 8.40006C10.1574 8.20642 10.5273 7.96095 10.8601 7.67007C11.4994 7.17153 11.9421 6.4632 12.1101 5.67007C12.1532 5.3348 12.126 4.99421 12.0301 4.67007C11.9957 4.53725 11.9523 4.40694 11.9001 4.28007C11.6901 4.02007 11.0101 4.06007 11.1201 4.34007C11.1201 4.45007 11.2001 4.55007 11.2301 4.67007C11.2896 4.93679 11.2896 5.21334 11.2301 5.48006C11.0293 6.02634 10.6529 6.49058 10.1601 6.80007C9.70269 7.17361 9.15982 7.42787 8.58005 7.54007C7.88087 7.63763 7.17007 7.4777 6.58005 7.09007C6.28356 6.90906 6.03686 6.657 5.86226 6.35669C5.68766 6.05638 5.59067 5.71728 5.58005 5.37006C5.5651 5.16033 5.5651 4.9498 5.58005 4.74006C5.64005 4.28006 5.07005 4.28007 4.92005 4.61007C4.84058 4.84524 4.80005 5.09182 4.80005 5.34007C4.74502 5.85014 4.82724 6.36565 5.03821 6.8333C5.24918 7.30095 5.58124 7.70376 6.00005 8.00007C6.23794 8.1774 6.4965 8.32515 6.77005 8.44006C6.34579 8.5777 5.93956 8.76571 5.56005 9.00006C4.72478 9.45135 4.05241 10.1537 3.63791 11.0078C3.22341 11.8619 3.08774 12.8247 3.25005 13.7601C3.26199 13.8396 3.30504 13.9112 3.36974 13.959C3.43444 14.0068 3.51549 14.027 3.59505 14.0151C3.67462 14.0031 3.74618 13.9601 3.79401 13.8954C3.84183 13.8307 3.86199 13.7496 3.85005 13.6701C3.78288 12.8876 3.96041 12.1037 4.3581 11.4265C4.75579 10.7494 5.354 10.2125 6.07005 9.89007C6.75544 9.54264 7.51168 9.35785 8.28005 9.35007C9.03952 9.33141 9.79078 9.51061 10.4601 9.87006C11.1968 10.2233 11.7925 10.8154 12.1501 11.5501C12.4964 12.3506 12.7124 13.2013 12.7901 14.0701C12.7925 14.1153 12.8041 14.1595 12.8244 14.2C12.8446 14.2405 12.873 14.2764 12.9077 14.3055C12.9424 14.3346 12.9827 14.3562 13.0261 14.369C13.0695 14.3819 13.1151 14.3856 13.1601 14.3801C13.2493 14.37 13.3313 14.3259 13.389 14.2571C13.4467 14.1882 13.4758 14.0997 13.4701 14.0101C13.471 12.8462 13.2077 11.6974 12.7001 10.6501Z" fill="black"/>
<path fill-rule="evenodd" clip-rule="evenodd" d="M5.93005 4.27001H8.73005C9.13005 4.27001 10.6101 4.16001 11.0101 4.09001C11.2514 4.07233 11.4802 3.97554 11.661 3.81464C11.8418 3.65374 11.9645 3.4377 12.0101 3.20001C12.1033 2.94 12.1736 2.6723 12.2201 2.40001C12.3301 1.57001 12.3601 0.950006 12.0501 0.590006C11.8894 0.419515 11.6933 0.286369 11.4756 0.199973C11.2579 0.113577 11.0239 0.0760374 10.7901 0.0900059H9.91005L8.07005 0.250006C5.11005 0.550006 5.00005 0.530006 5.00005 0.520006C4.92707 0.543159 4.86571 0.593339 4.82852 0.660268C4.79134 0.727197 4.78116 0.80581 4.80005 0.880006C4.84152 1.11477 4.86823 1.3519 4.88005 1.59001V2.68001C4.86029 2.92962 4.86029 3.1804 4.88005 3.43001C4.87987 3.55919 4.90878 3.68676 4.96466 3.80324C5.02054 3.91971 5.10194 4.0221 5.20281 4.1028C5.30369 4.18351 5.42145 4.24044 5.54735 4.26939C5.67326 4.29834 5.80406 4.29855 5.93005 4.27001ZM5.64005 2.66001C5.64005 2.28001 5.64005 1.90001 5.54005 1.52001V1.20001L8.18005 1.10001H9.91005L10.7101 1.16001C10.9601 1.16001 11.1101 1.16001 11.1801 1.30001C11.2501 1.44001 11.1801 1.41001 11.1801 1.48001C11.1575 1.73849 11.1208 1.99555 11.0701 2.25001C11.0488 2.4001 11.0119 2.54756 10.9601 2.69001C10.9325 2.78781 10.8809 2.87719 10.8101 2.95001L9.81005 3.07001L6.89005 3.36001C6.65699 3.37579 6.42312 3.37579 6.19005 3.36001C6.02074 3.36489 5.85376 3.31966 5.71005 3.23001C5.6947 3.18118 5.6947 3.12883 5.71005 3.08001C5.64005 3.00001 5.65005 2.78001 5.64005 2.66001Z" fill="black"/>
<path fill-rule="evenodd" clip-rule="evenodd" d="M15.49 7.61996C15.8276 7.87436 16.1975 8.08284 16.59 8.23996C16.9622 8.38795 17.3472 8.50176 17.74 8.57996C18.7709 8.80347 19.8471 8.66985 20.792 8.20102C21.737 7.7322 22.4944 6.95604 22.94 5.99996C23.2349 5.42428 23.3887 4.78676 23.3887 4.13996C23.3887 3.49316 23.2349 2.85563 22.94 2.27996C21.73 0.169959 19 -0.110041 17.09 0.849959C16.0648 1.38815 15.238 2.23944 14.73 3.27996C14.377 3.97469 14.2214 4.75292 14.28 5.52996C14.3299 5.94203 14.4629 6.33971 14.6709 6.69894C14.8788 7.05816 15.1575 7.37148 15.49 7.61996ZM15.62 3.66996C15.9894 2.77555 16.6384 2.02477 17.47 1.52996C17.8472 1.27932 18.272 1.10924 18.718 1.03037C19.1639 0.951501 19.6213 0.965544 20.0616 1.07162C20.5018 1.17769 20.9154 1.37352 21.2765 1.64682C21.6376 1.92013 21.9384 2.26504 22.16 2.65996C22.3631 3.12017 22.4545 3.62189 22.4267 4.12415C22.3988 4.62641 22.2527 5.11498 22 5.54996C21.6232 6.27135 21.0185 6.84793 20.28 7.18996C19.5693 7.52518 18.7679 7.61657 18 7.44996C17.6596 7.38408 17.3251 7.29044 17 7.16996C16.702 7.05873 16.4223 6.90369 16.17 6.70996C15.9485 6.55768 15.7599 6.36231 15.6156 6.13551C15.4713 5.90871 15.3741 5.65514 15.33 5.38996C15.2697 4.80096 15.3699 4.20661 15.62 3.66996Z" fill="black"/>
<path fill-rule="evenodd" clip-rule="evenodd" d="M19.08 3.89003C19.0544 3.82212 19.0057 3.76536 18.9425 3.72966C18.8793 3.69395 18.8055 3.68157 18.7341 3.69466C18.6627 3.70775 18.5982 3.74549 18.5517 3.80129C18.5053 3.8571 18.4799 3.92743 18.48 4.00003V5.07003C18.5012 5.31609 18.5414 5.56014 18.6 5.80003C18.6107 5.89021 18.6566 5.97247 18.7279 6.02873C18.7992 6.08499 18.8899 6.11064 18.98 6.10003C19.0702 6.08942 19.1525 6.04343 19.2087 5.97216C19.265 5.9009 19.2907 5.81021 19.28 5.72003V4.82003C19.2366 4.50549 19.1698 4.19462 19.08 3.89003Z" fill="black"/>
<path fill-rule="evenodd" clip-rule="evenodd" d="M18.49 3.07003C18.6263 3.11691 18.7739 3.11994 18.912 3.07869C19.0501 3.03744 19.1718 2.95398 19.26 2.84003C19.43 2.51003 19.16 2.18003 18.84 2.06003C18.7722 2.03058 18.699 2.01538 18.625 2.01538C18.5511 2.01538 18.4779 2.03058 18.41 2.06003C18.3178 2.11275 18.2425 2.19061 18.1929 2.28451C18.1433 2.37842 18.1214 2.48451 18.1297 2.5904C18.1381 2.69628 18.1765 2.7976 18.2403 2.88253C18.304 2.96745 18.3907 3.03248 18.49 3.07003Z" fill="black"/>
</g>
<defs>
<clipPath id="clip0_1052_9166">
<rect width="24" height="24" fill="white"/>
</clipPath>
</defs>
</svg>
