<svg width="24" height="24" viewBox="0 0 24 24" fill="none" xmlns="http://www.w3.org/2000/svg">
<g clip-path="url(#clip0_1047_6193)">
<path d="M18.82 17.73C18.7461 17.7213 18.6716 17.7413 18.612 17.786C18.5524 17.8307 18.5123 17.8966 18.5 17.97C18.3327 18.4501 18.0822 18.8969 17.76 19.29C17.5753 19.5543 17.3679 19.8019 17.14 20.03C16.7868 20.4366 16.3257 20.7348 15.81 20.89C15.7278 20.8993 15.6526 20.9409 15.6011 21.0056C15.5495 21.0703 15.5257 21.1528 15.535 21.235C15.5443 21.3172 15.5859 21.3924 15.6506 21.444C15.7153 21.4956 15.7978 21.5193 15.88 21.51C16.501 21.5174 17.1102 21.3399 17.63 21C17.845 20.8487 18.0429 20.6743 18.22 20.48C18.3903 20.2803 18.5379 20.0623 18.66 19.83C18.9213 19.2875 19.0547 18.6922 19.05 18.09C19.062 18.0512 19.0654 18.0102 19.0599 17.9699C19.0545 17.9296 19.0403 17.891 19.0184 17.8567C18.9965 17.8225 18.9674 17.7934 18.9332 17.7715C18.8989 17.7496 18.8603 17.7355 18.82 17.73Z" fill="black"/>
<path d="M22.93 12.37C22.16 11.87 21.39 11.37 20.6 10.94C20.26 10.75 19.91 10.56 19.6 10.39C19.29 10.22 18.9 10.06 18.54 9.91003C17.7 9.55003 16.85 9.26003 16 8.91003C15.9344 8.88194 15.8605 8.87998 15.7935 8.90455C15.7264 8.92912 15.6713 8.97837 15.6394 9.04222C15.6075 9.10608 15.6011 9.17971 15.6217 9.24808C15.6423 9.31644 15.6882 9.37438 15.75 9.41003L16.29 9.74003C15.7925 10.3061 15.3997 10.9563 15.13 11.66C14.9922 11.9836 14.8819 12.3181 14.8 12.66V12.31C14.75 11.67 14.72 11.03 14.71 10.4L15.19 10.12C15.2344 10.1122 15.2765 10.0951 15.3138 10.0698C15.3511 10.0445 15.3826 10.0117 15.4063 9.97337C15.43 9.93508 15.4454 9.89222 15.4514 9.84758C15.4574 9.80295 15.4539 9.75755 15.4412 9.71436C15.4284 9.67116 15.4067 9.63114 15.3774 9.59692C15.3482 9.5627 15.312 9.53504 15.2713 9.51575C15.2306 9.49646 15.1863 9.48598 15.1413 9.485C15.0962 9.48401 15.0515 9.49254 15.01 9.51003H14.68C14.68 9.04003 14.62 8.51003 14.55 7.96003L14.94 7.74003C15.0208 7.71661 15.0897 7.66319 15.1324 7.59069C15.1752 7.5182 15.1886 7.43211 15.17 7.35003C15.1595 7.30931 15.1411 7.27105 15.1158 7.23745C15.0905 7.20385 15.0589 7.17556 15.0227 7.1542C14.9865 7.13284 14.9464 7.11883 14.9047 7.11296C14.8631 7.1071 14.8207 7.1095 14.78 7.12003H14.44C14.44 6.86003 14.36 6.59003 14.3 6.32003C14.24 6.05003 14.24 6.05003 14.2 5.92003C14.47 5.77003 14.71 5.61003 14.98 5.47003C15.0052 5.42293 15.0181 5.3703 15.0177 5.31691C15.0174 5.26352 15.0036 5.21107 14.9778 5.16435C14.9519 5.11763 14.9148 5.07812 14.8698 5.04942C14.8248 5.02072 14.7733 5.00374 14.72 5.00003C14.4311 5.02719 14.144 5.07059 13.86 5.13003C13.6307 4.38585 13.3152 3.67101 12.92 3.00003C12.5209 2.21938 11.9114 1.56593 11.1603 1.11354C10.4093 0.661155 9.54668 0.42786 8.67001 0.440028H7.33001C7.11001 0.440028 6.89001 0.830028 7.26001 0.910028C7.71957 1.02703 8.18771 1.10729 8.66001 1.15003C9.38484 1.19322 10.0842 1.43291 10.6832 1.84338C11.2822 2.25385 11.7581 2.81963 12.06 3.48003C12.4029 4.11478 12.6746 4.78553 12.87 5.48003C12.58 5.66003 12.35 5.87003 12.08 6.07003C12.0457 6.08422 12.0145 6.10511 11.9883 6.13148C11.9621 6.15784 11.9414 6.18916 11.9275 6.2236C11.9135 6.25804 11.9065 6.29491 11.907 6.33207C11.9074 6.36923 11.9152 6.40593 11.93 6.44003C11.9431 6.47401 11.963 6.50499 11.9885 6.53109C12.0139 6.55718 12.0443 6.57786 12.078 6.59188C12.1116 6.60589 12.1477 6.61295 12.1842 6.61263C12.2206 6.61232 12.2566 6.60463 12.29 6.59003C12.57 6.59003 12.84 6.50003 13.11 6.44003C13.1325 6.51192 13.1492 6.58548 13.16 6.66003C13.22 6.93003 13.27 7.21003 13.32 7.48003C13.2353 7.5099 13.1547 7.55021 13.08 7.60003C12.8355 7.77593 12.6018 7.96627 12.38 8.17003C12.3142 8.20239 12.2637 8.25928 12.2394 8.32847C12.2151 8.39765 12.2189 8.47362 12.25 8.54003C12.265 8.57354 12.2866 8.60365 12.3136 8.62852C12.3406 8.65338 12.3724 8.67248 12.407 8.68465C12.4417 8.69682 12.4784 8.70179 12.515 8.69928C12.5516 8.69677 12.5874 8.68681 12.62 8.67003C12.91 8.67003 13.18 8.60003 13.48 8.53003C13.48 8.99003 13.57 9.41003 13.6 9.80003L13.43 9.87003C13.1837 10.0237 12.9555 10.2049 12.75 10.41C12.686 10.4441 12.6377 10.5018 12.6153 10.5708C12.5929 10.6398 12.5982 10.7148 12.63 10.78C12.6624 10.8458 12.7193 10.8963 12.7884 10.9206C12.8576 10.9449 12.9336 10.9411 13 10.91C13.24 10.91 13.45 10.91 13.68 10.84C13.68 11.25 13.74 11.67 13.79 12.09C13.8635 12.7622 13.9737 13.4299 14.12 14.09L14.41 15.32C14.46 15.48 14.57 15.86 14.6 15.97C15.18 17.84 15.95 18.5 15.3 15.91C15.3796 15.0927 15.5099 14.2812 15.69 13.48C15.82 12.88 15.94 12.26 16.12 11.68C16.2893 11.1288 16.5279 10.6012 16.83 10.11C17.35 10.43 17.83 10.73 18.4 11.02C18.97 11.31 19.51 11.56 20.08 11.81C20.48 12 20.89 12.17 21.3 12.35C20.937 12.9615 20.7086 13.6433 20.63 14.35C20.42 16.19 21.17 17.98 20.31 19.91C19.9045 20.7727 19.271 21.5081 18.4779 22.0369C17.6848 22.5656 16.7623 22.8675 15.81 22.91C14.8805 22.9975 13.9445 22.835 13.0989 22.4395C12.2532 22.0439 11.5286 21.4296 11 20.66C10.0885 19.2195 9.57445 17.5635 9.51001 15.86C9.34001 13.25 9.81001 10.55 9.64001 7.86003C9.60876 6.57323 9.30185 5.30811 8.74001 4.15003C8.38424 3.40361 7.76425 2.81568 7.00001 2.50003C6.9269 2.49474 6.85404 2.51322 6.79229 2.55272C6.73054 2.59221 6.68321 2.6506 6.65735 2.71919C6.63149 2.78778 6.62848 2.86288 6.64878 2.93331C6.66909 3.00375 6.71161 3.06573 6.77001 3.11003C7.33199 3.42782 7.78768 3.90439 8.08001 4.48003C8.55828 5.55657 8.80364 6.72203 8.80001 7.90003C8.92001 11.08 8.12001 14.24 8.59001 17.3C8.79006 18.7025 9.28787 20.0459 10.05 21.24C10.6774 22.1907 11.5538 22.9508 12.5836 23.4375C13.6135 23.9242 14.7572 24.1188 15.89 24C17.014 23.9185 18.0933 23.5266 19.0078 22.8681C19.9224 22.2095 20.6362 21.3102 21.07 20.27C21.91 18.27 21.07 16.38 21.26 14.45C21.3111 13.8002 21.5021 13.1691 21.82 12.6L22.62 12.95C22.6555 12.9726 22.6954 12.9875 22.7371 12.9937C22.7787 12.9999 22.8212 12.9972 22.8618 12.9859C22.9023 12.9746 22.9401 12.9549 22.9725 12.928C23.0049 12.9012 23.0313 12.8678 23.05 12.83C23.0763 12.7931 23.0942 12.7509 23.1023 12.7063C23.1105 12.6617 23.1089 12.6159 23.0974 12.572C23.086 12.5281 23.0651 12.4873 23.0361 12.4524C23.0072 12.4175 22.971 12.3894 22.93 12.37Z" fill="black"/>
<path d="M6.83 1.07002C6.83 0.840025 6.91 0.630025 6.91 0.390025C6.90655 0.329758 6.88301 0.272385 6.84313 0.227068C6.80325 0.181751 6.74934 0.151105 6.69 0.140025C6.28 0.0700247 6.3 0.700024 6 2.08002C6 2.23002 6 2.37002 5.93 2.50002C5.86 2.63002 5.93 2.50002 5.86 2.56002C5.6362 2.61103 5.4038 2.61103 5.18 2.56002C4.72 2.56002 4.24 2.40002 3.85 2.37002H3.33C3.242 2.30887 3.16719 2.23065 3.11 2.14002C2.94 1.93002 2.79 1.68002 2.61 1.49002L2.14 1.00002H2.49C2.98355 0.87202 3.49025 0.801552 4 0.790025C4.5056 0.781967 5.01091 0.818778 5.51 0.900025C5.55077 0.908711 5.59288 0.909086 5.6338 0.901125C5.67472 0.893164 5.71361 0.877031 5.74815 0.853692C5.78269 0.830353 5.81217 0.800287 5.83483 0.765293C5.85748 0.730298 5.87285 0.691094 5.88 0.650025C5.89477 0.567934 5.8769 0.483322 5.8302 0.414211C5.78351 0.3451 5.71167 0.296952 5.63 0.280025C5.0949 0.143857 4.54987 0.0502315 4 2.46614e-05C3.43911 -0.0371684 2.87585 -0.0136991 2.32 0.0700247C1.97004 0.109092 1.63069 0.214291 1.32 0.380025C1.21229 0.449164 1.12019 0.540017 1.0496 0.646775C0.978999 0.753532 0.931453 0.873846 0.909999 1.00002C0.899732 1.08301 0.907847 1.16723 0.933769 1.24673C0.959692 1.32623 1.00279 1.39905 1.06 1.46002C1.11 1.52002 1.27 1.65002 1.29 1.67002L1.86 2.24002C2.05 2.45002 2.2 2.73002 2.39 2.95002C2.51038 3.09118 2.65209 3.21264 2.81 3.31002C2.93399 3.38208 3.0692 3.43278 3.21 3.46002C3.41639 3.47501 3.6236 3.47501 3.83 3.46002C4.3 3.46002 4.89 3.58002 5.42 3.54002C5.70518 3.52933 5.98478 3.45773 6.24 3.33002C6.56 3.15002 6.62 2.88002 6.83 1.07002Z" fill="black"/>
</g>
<defs>
<clipPath id="clip0_1047_6193">
<rect width="24" height="24" fill="white"/>
</clipPath>
</defs>
</svg>
