<svg width="24" height="24" viewBox="0 0 24 24" fill="none" xmlns="http://www.w3.org/2000/svg">
<g clip-path="url(#clip0_1030_2190)">
<path fill-rule="evenodd" clip-rule="evenodd" d="M16.59 5.00001C17.7855 5.55154 18.8442 6.3609 19.69 7.37001C20.2376 7.94678 20.7518 8.55444 21.23 9.19001C21.9608 10.1666 22.6288 11.1887 23.23 12.25C23.2754 12.3451 23.3566 12.4185 23.4559 12.4541C23.5551 12.4896 23.6644 12.4846 23.76 12.44C23.8533 12.3928 23.9245 12.3108 23.9581 12.2117C23.9918 12.1127 23.9852 12.0043 23.94 11.91C23.4949 10.7089 22.9286 9.55631 22.25 8.47001C21.7823 7.7423 21.232 7.07117 20.61 6.47001C19.5391 5.44682 18.2184 4.72269 16.78 4.37001C16.736 4.35608 16.6897 4.35098 16.6437 4.35501C16.5977 4.35903 16.553 4.37211 16.5121 4.39349C16.4712 4.41487 16.435 4.44412 16.4054 4.47956C16.3759 4.515 16.3536 4.55594 16.34 4.60001C16.3296 4.64271 16.3279 4.68705 16.3349 4.73042C16.342 4.77379 16.3576 4.81532 16.3808 4.85258C16.4041 4.88984 16.4346 4.92207 16.4705 4.94739C16.5064 4.9727 16.547 4.99059 16.59 5.00001Z" fill="black"/>
<path fill-rule="evenodd" clip-rule="evenodd" d="M23.08 13.16C22.422 14.0596 21.6785 14.8935 20.86 15.65L19.8 16.59C19.44 16.9 19.07 17.19 18.7 17.48C17.8442 18.1788 16.8993 18.7606 15.89 19.21C15.8012 19.2392 15.7275 19.3024 15.6853 19.3859C15.6431 19.4693 15.6358 19.5661 15.665 19.655C15.6942 19.7438 15.7574 19.8175 15.8409 19.8597C15.9244 19.9019 16.0212 19.9092 16.11 19.88C17.2819 19.6108 18.4028 19.155 19.43 18.53C19.8644 18.2528 20.2787 17.9453 20.67 17.61C21.0579 17.2721 21.4221 16.9079 21.76 16.52C22.5378 15.6204 23.2089 14.6338 23.76 13.58C23.8156 13.4898 23.8331 13.3812 23.8088 13.2781C23.7844 13.175 23.7201 13.0858 23.63 13.03C23.5386 12.9794 23.4316 12.9646 23.3299 12.9886C23.2282 13.0127 23.1391 13.0738 23.08 13.16Z" fill="black"/>
<path fill-rule="evenodd" clip-rule="evenodd" d="M16.89 11.17C16.9763 11.4976 17.0332 11.8323 17.06 12.17C17.1743 12.7006 17.1279 13.2533 16.9266 13.7573C16.7253 14.2614 16.3783 14.6941 15.93 15C15.8464 15.0534 15.7856 15.136 15.7595 15.2317C15.7334 15.3275 15.7438 15.4295 15.7886 15.518C15.8335 15.6064 15.9096 15.6751 16.0023 15.7106C16.095 15.7461 16.1975 15.7459 16.29 15.71C16.8523 15.4788 17.3422 15.1006 17.7081 14.615C18.0741 14.1294 18.3027 13.5543 18.37 12.95C18.4053 12.6577 18.4053 12.3623 18.37 12.07C18.3402 11.6331 18.2388 11.2041 18.07 10.8C17.7266 9.85457 17.0841 9.04702 16.24 8.50001C16.205 8.46373 16.1625 8.43544 16.1156 8.41708C16.0686 8.39871 16.0183 8.39071 15.9679 8.39362C15.9176 8.39652 15.8685 8.41027 15.824 8.43392C15.7794 8.45756 15.7406 8.49055 15.71 8.53062C15.6794 8.57069 15.6578 8.61689 15.6467 8.66607C15.6356 8.71526 15.6353 8.76625 15.6457 8.81558C15.6562 8.8649 15.6772 8.91138 15.7072 8.95184C15.7373 8.9923 15.7758 9.02579 15.82 9.05001C16.3621 9.6467 16.7319 10.3795 16.89 11.17Z" fill="black"/>
<path d="M7.83997 4.25C6.9789 4.50363 6.1526 4.86304 5.37997 5.32C4.60842 5.79286 3.89663 6.35692 3.25997 7C1.8266 8.47098 0.716235 10.2251 -2.56561e-05 12.15C-0.0376079 12.2337 -0.0408518 12.3287 -0.00905972 12.4148C0.0227324 12.5008 0.0870203 12.5709 0.169974 12.61C0.256302 12.6473 0.353817 12.6494 0.441655 12.6158C0.529492 12.5821 0.600676 12.5155 0.639974 12.43C1.50097 10.7066 2.68589 9.16518 4.12997 7.89C4.73258 7.35925 5.38189 6.88398 6.06997 6.47C6.75664 6.06894 7.4799 5.7341 8.22997 5.47C9.79214 4.92311 11.4482 4.69528 13.1 4.8C13.45 4.8 13.5 4.12 13.1 3.93C12 3.33 9.55997 3.74 7.83997 4.25Z" fill="black"/>
<path d="M9.72997 15.25C9.22375 14.9262 8.80427 14.4836 8.508 13.9608C8.21173 13.438 8.04763 12.8507 8.02997 12.25C8.05767 11.6353 8.28997 11.0475 8.68997 10.58C9.10977 10.0194 9.6201 9.53273 10.2 9.14C10.6163 8.87318 11.0671 8.66458 11.54 8.52C11.9933 8.38997 12.4593 8.3095 12.93 8.28C13.22 8.21 13.24 7.61 12.93 7.57C12.3905 7.54909 11.8504 7.58935 11.32 7.69C10.7399 7.7978 10.1778 7.9863 9.64997 8.25C8.75371 8.71228 7.97149 9.36811 7.35997 10.17C6.92523 10.7747 6.68143 11.4956 6.65997 12.24C6.69455 13.0564 6.93442 13.8509 7.35741 14.5501C7.7804 15.2493 8.37285 15.8305 9.07997 16.24C9.5866 16.5504 10.1517 16.7531 10.74 16.8357C11.3284 16.9183 11.9275 16.8789 12.5 16.72C12.93 16.54 12.78 15.83 12.41 15.86C11.9463 15.9697 11.4637 15.9718 10.9992 15.866C10.5346 15.7603 10.1005 15.5496 9.72997 15.25Z" fill="black"/>
<path d="M14.25 1.1C14.2037 1.09588 14.1571 1.1013 14.113 1.1159C14.0689 1.13051 14.0282 1.154 13.9936 1.18492C13.9589 1.21585 13.9309 1.25355 13.9114 1.2957C13.8919 1.33785 13.8812 1.38356 13.88 1.43C13.8 2.27 13.27 8.58 13.25 8.79C13.19 9.84 13.14 10.9 13.11 11.95C13.08 13 13.11 14.06 13.05 15.12V22.5C13.05 22.6061 13.0921 22.7078 13.1671 22.7828C13.2422 22.8579 13.3439 22.9 13.45 22.9C13.5561 22.9 13.6578 22.8579 13.7328 22.7828C13.8078 22.7078 13.85 22.6061 13.85 22.5C13.98 20.04 14.13 17.59 14.25 15.13C14.31 14.08 14.36 13.03 14.39 11.98C14.42 10.93 14.46 9.87 14.47 8.82C14.47 6.36 14.47 3.9 14.52 1.44C14.5237 1.36026 14.4984 1.28186 14.4488 1.21934C14.3991 1.15683 14.3285 1.11443 14.25 1.1Z" fill="black"/>
<path d="M12.27 19.55C10.9464 19.7772 9.58569 19.6318 8.33999 19.13C7.6291 18.9011 6.93977 18.61 6.27999 18.26C5.61478 17.9111 4.97636 17.5133 4.36999 17.07C2.91715 16.0467 1.68588 14.7406 0.749994 13.23C0.703483 13.1554 0.630589 13.101 0.54581 13.0777C0.46103 13.0543 0.370577 13.0638 0.292441 13.1041C0.214305 13.1444 0.154211 13.2127 0.124112 13.2953C0.0940119 13.3779 0.0961119 13.4689 0.129994 13.55C0.932269 15.2984 2.11428 16.8459 3.58999 18.08C4.22986 18.6082 4.92371 19.0674 5.65999 19.45C6.40379 19.8343 7.18882 20.1328 7.99999 20.34C9.56999 20.74 11.65 20.9 12.51 20.34C12.85 20.13 12.76 19.5 12.27 19.55Z" fill="black"/>
</g>
<defs>
<clipPath id="clip0_1030_2190">
<rect width="24" height="24" fill="white"/>
</clipPath>
</defs>
</svg>
