<svg width="24" height="24" viewBox="0 0 24 24" fill="none" xmlns="http://www.w3.org/2000/svg">
<g clip-path="url(#clip0_1051_8653)">
<path fill-rule="evenodd" clip-rule="evenodd" d="M11.87 18.71C11.3009 18.2263 10.6921 17.7915 10.05 17.41H10.14C10.4877 17.2639 10.8087 17.0612 11.09 16.81C11.3791 16.5589 11.6286 16.2656 11.83 15.94C12.2001 15.3164 12.3969 14.6052 12.4 13.88C12.9224 13.9473 13.4528 13.853 13.92 13.61C14.8056 13.082 15.5637 12.365 16.14 11.51C16.6423 10.7516 17.2184 10.0448 17.86 9.40001C18.7018 8.94953 19.5819 8.57472 20.49 8.28001C20.7379 8.15135 20.9695 7.99357 21.18 7.81001C21.5724 7.44806 21.8856 7.00885 22.1 6.52001C22.3119 6.04132 22.4209 5.52348 22.42 5.00001C22.42 4.91514 22.3863 4.83374 22.3263 4.77373C22.2663 4.71372 22.1849 4.68001 22.1 4.68001C22.0151 4.68001 21.9337 4.71372 21.8737 4.77373C21.8137 4.83374 21.78 4.91514 21.78 5.00001C21.7601 5.43944 21.6548 5.87079 21.47 6.27001C21.2803 6.65262 21.0149 6.99281 20.69 7.27001C20.5229 7.40763 20.3378 7.522 20.14 7.61001C19.1765 7.89477 18.2397 8.26282 17.34 8.71001C16.43 9.35001 15.34 11.28 14.04 12.3C13.7367 12.6077 13.3313 12.7938 12.9003 12.8232C12.4693 12.8527 12.0424 12.7235 11.7 12.46C11.12 12.07 11.39 11.53 11.7 10.94C12.33 9.81001 13.36 8.52001 13.42 7.33001C13.4494 6.9901 13.3997 6.648 13.2748 6.33051C13.1499 6.01302 12.9531 5.72876 12.7 5.50001C11.42 4.29001 10.29 4.35001 9.43001 5.00001C8.91353 5.4741 8.49909 6.04846 8.21196 6.68805C7.92484 7.32763 7.77106 8.01902 7.76001 8.72001C7.64001 8.72001 7.53001 8.67001 7.41001 8.66001C6.9517 8.64101 6.49316 8.69159 6.05001 8.81001C6.01115 8.2009 6.07195 7.58953 6.23001 7.00001C6.44917 5.97751 6.75014 4.97428 7.13001 4.00001C7.32679 3.34752 7.68312 2.75438 8.16676 2.27423C8.65041 1.79407 9.24611 1.44205 9.90001 1.25001C10.7109 1.07179 11.5465 1.03458 12.37 1.14001C13.72 1.26001 15.12 1.53001 16.42 1.54001H17.73C18.73 1.48001 19.73 1.38001 20.73 1.32001C20.8149 1.32001 20.8963 1.28629 20.9563 1.22628C21.0163 1.16627 21.05 1.08488 21.05 1.00001C21.05 0.915137 21.0163 0.833743 20.9563 0.773732C20.8963 0.71372 20.8149 0.680006 20.73 0.680006L18.14 0.700006H16.44C15.17 0.630006 13.81 0.270006 12.44 0.110006C11.4996 -0.0416763 10.5389 -0.0111216 9.61001 0.200006C8.81545 0.443048 8.09398 0.880272 7.51083 1.47216C6.92767 2.06404 6.50122 2.79192 6.27001 3.59001C5.94751 4.65063 5.70351 5.73356 5.54001 6.83001C5.39961 7.5454 5.38607 8.27992 5.50001 9.00001C4.98399 9.20278 4.51699 9.51297 4.13001 9.91001C3.31577 10.7853 2.83142 11.9167 2.76001 13.11C2.68933 13.8693 2.79721 14.6346 3.07502 15.3447C3.35283 16.0549 3.79288 16.6902 4.36001 17.2C3.86312 17.5325 3.40671 17.9218 3.00001 18.36C2.74449 18.6527 2.51996 18.9711 2.33001 19.31C2.14303 19.6456 1.98577 19.997 1.86001 20.36C1.58155 21.1935 1.39707 22.0555 1.31001 22.93C1.30125 22.9714 1.30078 23.0141 1.30863 23.0557C1.31648 23.0972 1.33249 23.1368 1.35574 23.1722C1.37898 23.2075 1.40901 23.2379 1.44407 23.2615C1.47913 23.2852 1.51854 23.3017 1.56001 23.31C1.6021 23.3187 1.6455 23.3188 1.68762 23.3103C1.72975 23.3018 1.76974 23.2849 1.8052 23.2607C1.84066 23.2364 1.87088 23.2052 1.89404 23.1691C1.9172 23.1329 1.93283 23.0924 1.94001 23.05C2.15647 22.2589 2.44432 21.4891 2.80001 20.75C2.95001 20.44 3.11001 20.15 3.28001 19.85C3.45001 19.55 3.63001 19.28 3.82001 18.99C4.15807 18.4876 4.53953 18.0158 4.96001 17.58C5.47185 17.862 6.03759 18.0324 6.62001 18.08C6.66357 18.0886 6.70843 18.088 6.75175 18.0783C6.79507 18.0686 6.8359 18.05 6.87164 18.0236C6.90738 17.9973 6.93725 17.9638 6.95935 17.9253C6.98145 17.8868 6.9953 17.8441 7.00001 17.8C7.00846 17.714 6.98281 17.6281 6.92858 17.5607C6.87435 17.4934 6.79587 17.4501 6.71001 17.44C4.96001 17.18 3.61001 15.51 3.85001 13.17C3.89204 12.6081 4.04751 12.0605 4.30703 11.5604C4.56656 11.0602 4.92476 10.6179 5.36001 10.26C5.95238 9.80187 6.68116 9.55542 7.43001 9.56001C8.0486 9.57662 8.66298 9.66727 9.26001 9.83001C9.77589 10.0214 10.2484 10.3138 10.65 10.69C10.5428 10.8979 10.4557 11.1155 10.39 11.34C10.2571 11.7049 10.2564 12.1049 10.3879 12.4704C10.5195 12.8358 10.775 13.1435 11.11 13.34C11.3092 13.4782 11.524 13.5923 11.75 13.68C11.6099 14.6012 11.119 15.4325 10.38 16C10.1552 16.1859 9.91795 16.3563 9.67001 16.51C9.05357 16.8776 8.37617 17.1316 7.67001 17.26C7.63321 17.2625 7.59727 17.2723 7.56426 17.2888C7.53124 17.3053 7.50181 17.3281 7.47765 17.356C7.45349 17.3838 7.43508 17.4162 7.42347 17.4512C7.41186 17.4863 7.40729 17.5232 7.41001 17.56C7.41126 17.5977 7.4201 17.6347 7.436 17.6689C7.4519 17.703 7.47453 17.7336 7.50254 17.7589C7.53056 17.7841 7.56337 17.8034 7.59902 17.8156C7.63467 17.8278 7.67242 17.8327 7.71001 17.83C8.23667 17.8502 8.76384 17.8065 9.28001 17.7C9.94582 18.2718 10.5801 18.8794 11.18 19.52C11.6186 19.9586 12.0231 20.43 12.39 20.93C13.047 21.6944 13.4025 22.6722 13.39 23.68C13.3829 23.7221 13.3843 23.7652 13.3941 23.8067C13.4039 23.8483 13.4219 23.8874 13.4471 23.9219C13.4722 23.9564 13.504 23.9855 13.5406 24.0075C13.5772 24.0295 13.6178 24.0439 13.66 24.05C13.7461 24.0614 13.8333 24.0384 13.9025 23.986C13.9718 23.9336 14.0176 23.856 14.03 23.77C14.1381 23.1755 14.1275 22.5655 13.9988 21.9751C13.87 21.3847 13.6258 20.8256 13.28 20.33C12.8875 19.7272 12.4129 19.1819 11.87 18.71ZM9.49001 9.16001C9.12273 9.00291 8.7409 8.88233 8.35001 8.80001C8.36608 8.19153 8.50968 7.59321 8.7715 7.04371C9.03333 6.49422 9.40757 6.00579 9.87001 5.61001C10.48 5.21001 11.23 5.29001 12.06 6.15001C12.89 7.01001 12.44 7.68001 11.98 8.48001C11.65 9.05 11.25 9.63001 10.91 10.17C10.5015 9.75037 10.0204 9.40818 9.49001 9.16001Z" fill="black"/>
<path fill-rule="evenodd" clip-rule="evenodd" d="M22.27 20.69C22.16 20.3754 22.0228 20.0709 21.86 19.78C21.6977 19.486 21.5031 19.211 21.28 18.96C20.9618 18.5959 20.599 18.2733 20.2 18C20.4028 17.8522 20.5874 17.6811 20.75 17.49C21.1493 16.9382 21.4081 16.2974 21.504 15.6231C21.5998 14.9488 21.5298 14.2612 21.3 13.62C21.043 13.0126 20.651 12.4718 20.1537 12.0386C19.6564 11.6054 19.0669 11.2913 18.43 11.12C18.3952 11.1073 18.3583 11.1017 18.3213 11.1034C18.2843 11.1051 18.248 11.1141 18.2145 11.1299C18.1811 11.1457 18.151 11.168 18.1262 11.1955C18.1014 11.223 18.0823 11.2551 18.07 11.29C18.0558 11.3254 18.0489 11.3633 18.0498 11.4014C18.0507 11.4395 18.0593 11.477 18.0753 11.5117C18.0912 11.5463 18.114 11.5773 18.1423 11.6029C18.1707 11.6284 18.2039 11.6478 18.24 11.66C18.7609 11.8565 19.2299 12.1695 19.6112 12.575C19.9925 12.9806 20.276 13.468 20.44 14C20.5451 14.3976 20.5756 14.8113 20.53 15.22C20.4591 15.8416 20.2282 16.4342 19.86 16.94C19.6056 17.2325 19.292 17.4677 18.94 17.63C18.3987 17.9414 17.7845 18.1036 17.16 18.1C16.619 18.0638 16.0923 17.911 15.6159 17.6521C15.1395 17.3932 14.7247 17.0343 14.4 16.6C14.3738 16.5672 14.3413 16.5398 14.3045 16.5195C14.2676 16.4992 14.2272 16.4864 14.1854 16.4818C14.1436 16.4771 14.1013 16.4808 14.0609 16.4925C14.0205 16.5042 13.9828 16.5237 13.95 16.55C13.8901 16.6116 13.8567 16.6941 13.8567 16.78C13.8567 16.8659 13.8901 16.9484 13.95 17.01C14.3069 17.5573 14.7791 18.0199 15.3336 18.3654C15.8881 18.7109 16.5115 18.9309 17.16 19.01C18.0117 19.0699 18.8624 18.8823 19.61 18.47C19.9401 18.8324 20.241 19.2203 20.51 19.63C20.67 19.87 20.82 20.11 20.96 20.35C21.11 20.6 21.24 20.85 21.37 21.11C21.6806 21.7535 21.9349 22.4227 22.13 23.11C22.1384 23.1515 22.1548 23.1909 22.1785 23.226C22.2021 23.261 22.2325 23.2911 22.2679 23.3143C22.3032 23.3376 22.3428 23.3536 22.3844 23.3614C22.4259 23.3693 22.4686 23.3688 22.51 23.36C22.5515 23.3517 22.5909 23.3352 22.626 23.3116C22.661 23.2879 22.691 23.2575 22.7143 23.2222C22.7375 23.1868 22.7535 23.1472 22.7614 23.1057C22.7692 23.0641 22.7688 23.0214 22.76 22.98C22.6869 22.2001 22.5225 21.4315 22.27 20.69Z" fill="black"/>
</g>
<defs>
<clipPath id="clip0_1051_8653">
<rect width="24" height="24" fill="white"/>
</clipPath>
</defs>
</svg>
