<svg width="24" height="24" viewBox="0 0 24 24" fill="none" xmlns="http://www.w3.org/2000/svg">
<g clip-path="url(#clip0_1051_8670)">
<path fill-rule="evenodd" clip-rule="evenodd" d="M22 10.53C22.5491 10.209 23.0158 9.76443 23.363 9.2315C23.7102 8.69856 23.9283 8.092 24 7.46001C24.1624 6.21728 23.9316 4.95488 23.34 3.85001C22.8091 2.82484 21.9696 1.99232 20.94 1.47001C19.8866 0.947489 18.6828 0.812941 17.54 1.09001C16.6013 1.30056 15.7007 1.65473 14.87 2.14001C14.2947 2.48646 13.7893 2.93756 13.38 3.47001C12.9644 4.08136 12.6752 4.76957 12.5292 5.49424C12.3832 6.21891 12.3835 6.96545 12.53 7.69001C12.6388 8.41731 12.9068 9.11166 13.3147 9.72355C13.7226 10.3354 14.2605 10.8498 14.89 11.23C15.5827 11.5903 16.3494 11.7854 17.13 11.8C18.2407 11.808 19.3463 11.6496 20.41 11.33C20.4594 11.3153 20.5035 11.2867 20.5371 11.2478C20.5708 11.2088 20.5926 11.161 20.6 11.11C20.7551 11.472 20.9287 11.8258 21.12 12.17C21.2184 12.3377 21.3287 12.4981 21.45 12.65C21.5687 12.8065 21.6956 12.9567 21.83 13.1C22.15 13.44 22.49 13.75 22.83 14.1C22.8598 14.1309 22.8956 14.1554 22.9351 14.1721C22.9746 14.1889 23.0171 14.1975 23.06 14.1975C23.1029 14.1975 23.1454 14.1889 23.1849 14.1721C23.2244 14.1554 23.2602 14.1309 23.29 14.1C23.3492 14.0401 23.3825 13.9593 23.3825 13.875C23.3825 13.7908 23.3492 13.7099 23.29 13.65C23.05 13.26 22.84 12.86 22.6 12.48C22.4981 12.3146 22.388 12.1544 22.27 12C22.1611 11.8414 22.0408 11.691 21.91 11.55C21.68 11.3 21.44 11.08 21.2 10.85H21.32C21.558 10.7694 21.7862 10.6621 22 10.53ZM17.15 11.1C16.4876 11.0663 15.8429 10.8742 15.27 10.54C14.7687 10.2022 14.3477 9.7584 14.0366 9.24002C13.7256 8.72165 13.5322 8.14132 13.47 7.54001C13.2617 6.34755 13.535 5.12116 14.23 4.13001C14.6533 3.6012 15.1898 3.17406 15.8 2.88001C16.435 2.55981 17.1066 2.31803 17.8 2.16001C18.7017 1.92645 19.6566 2.01486 20.5 2.41001C21.3431 2.82698 22.0404 3.48934 22.5 4.31001C23.0416 5.23358 23.2795 6.30396 23.18 7.37001C23.137 7.89017 22.9748 8.39346 22.706 8.84086C22.4372 9.28827 22.0691 9.66779 21.63 9.95001C21.4253 10.0741 21.2072 10.1747 20.98 10.25C19.79 10.62 19.58 11.3 17.1 11.1H17.15Z" fill="black"/>
<path fill-rule="evenodd" clip-rule="evenodd" d="M19.2 13.75C19.0051 13.8388 18.7941 13.8864 18.58 13.89C18 14 17.29 14 16.47 14H15H14.28C13.48 14.07 12.75 14.14 12.2 14.21V13.81C12.1431 13.4605 11.9906 13.1335 11.7594 12.8653C11.5282 12.597 11.2273 12.3979 10.89 12.29C10.5474 12.19 10.1822 12.1977 9.84414 12.3122C9.50605 12.4267 9.21135 12.6424 9 12.93C8.70231 13.2979 8.51199 13.7409 8.45 14.21C8.45 14.21 8.45 14.31 8.45 14.36C7.64 14.3 5.84 14.22 4.24 14.04C3.67914 13.9829 3.1217 13.8961 2.57 13.78C2.27563 13.7382 1.99307 13.6361 1.74 13.48C1.29065 13.0773 1.00875 12.5206 0.95 11.92C0.854367 10.8779 0.87113 9.82856 1 8.79004C1.01143 8.74407 1.01143 8.696 1 8.65004C2.3 8.75004 3.59 8.86004 4.9 8.89004H7.35C8.58 8.89004 9.8 8.80004 11.02 8.79004C11.0628 8.79274 11.1058 8.78679 11.1463 8.77255C11.1868 8.75831 11.224 8.73606 11.2557 8.70714C11.2875 8.67821 11.313 8.6432 11.331 8.60419C11.3489 8.56517 11.3587 8.52295 11.36 8.48004C11.3633 8.43278 11.3562 8.38537 11.339 8.34123C11.3218 8.29708 11.295 8.25731 11.2605 8.22478C11.2261 8.19225 11.1848 8.16778 11.1398 8.15312C11.0947 8.13847 11.047 8.134 11 8.14004C9.82 8.00004 8.63 7.91004 7.42 7.85004H6.33C6.38548 7.41024 6.47576 6.97555 6.6 6.55004C6.6541 6.29083 6.79525 6.05794 7 5.89004C7.21095 5.74834 7.44952 5.65291 7.7 5.61004C8.00245 5.53482 8.30991 5.48135 8.62 5.45004C9.28427 5.38004 9.95213 5.34999 10.62 5.36004C10.6643 5.36863 10.71 5.36775 10.7539 5.35745C10.7979 5.34715 10.8392 5.32766 10.875 5.30027C10.9109 5.27288 10.9406 5.23821 10.9622 5.19853C10.9837 5.15885 10.9966 5.11506 11 5.07004C11.0057 4.983 10.9778 4.8971 10.9219 4.8301C10.8661 4.76309 10.7866 4.72011 10.7 4.71004C9.87027 4.54511 9.02595 4.46469 8.18 4.47004C7.52536 4.48308 6.88898 4.68825 6.35 5.06004C6.07321 5.33124 5.88496 5.67985 5.81 6.06004C5.70776 6.65436 5.68423 7.25957 5.74 7.86004H4.38C3.15 7.89004 2 8.00004 0.77 8.06004C0.36 8.06004 0 11.21 0 12C0.029053 12.8542 0.387389 13.6641 1 14.26C1.71909 14.7163 2.54864 14.9686 3.4 14.99C5.06561 15.074 6.73439 15.074 8.4 14.99C8.4 15.35 8.46 15.71 8.51 15.99C8.51992 16.0642 8.55721 16.1321 8.61457 16.1802C8.67193 16.2283 8.7452 16.2532 8.82 16.25C8.8852 16.2438 8.94639 16.2158 8.9936 16.1704C9.04081 16.125 9.07126 16.0649 9.08 16C9.03781 15.4476 9.07485 14.892 9.19 14.35C9.27428 14.0411 9.43606 13.7589 9.66 13.53C9.77286 13.4171 9.91591 13.3391 10.072 13.3054C10.2281 13.2717 10.3906 13.2837 10.54 13.34C10.6886 13.3926 10.8201 13.4846 10.9205 13.6061C11.0209 13.7277 11.0864 13.8742 11.11 14.03C11.11 14.2 11.16 14.39 11.18 14.58V14.65V14.75C11.2099 15.0359 11.2099 15.3242 11.18 15.61C11.1476 15.9315 11.0378 16.2403 10.86 16.51C10.7055 16.7027 10.511 16.8597 10.29 16.97C10.2059 17.0268 10.1103 17.0642 10.01 17.0798C9.9098 17.0953 9.80735 17.0886 9.71 17.06C9.64379 17.0305 9.58802 16.9817 9.55 16.92C9.49 16.82 9.44 16.71 9.39 16.61C9.35308 16.5328 9.28759 16.4729 9.20735 16.4431C9.12712 16.4132 9.03843 16.4157 8.96 16.45C8.91991 16.4661 8.88362 16.4904 8.85346 16.5213C8.8233 16.5523 8.79994 16.5892 8.78488 16.6296C8.76981 16.6701 8.76338 16.7133 8.76598 16.7564C8.76859 16.7996 8.78017 16.8417 8.8 16.88C8.85908 17.0462 8.9327 17.2068 9.02 17.36C9.10669 17.4884 9.21906 17.5973 9.35 17.68C9.50132 17.7633 9.66792 17.8151 9.83978 17.8323C10.0116 17.8495 10.1852 17.8317 10.35 17.78C10.7979 17.6502 11.2022 17.4014 11.52 17.06C11.8228 16.6997 12.0322 16.2704 12.13 15.81C12.1885 15.537 12.222 15.2592 12.23 14.98C12.78 14.98 13.51 15.08 14.32 15.09C14.96 15.09 15.63 15.09 16.27 15.02C17.424 15 18.56 14.7305 19.6 14.23C19.6569 14.1689 19.6886 14.0885 19.6886 14.005C19.6886 13.9215 19.6569 13.8411 19.6 13.78C19.5459 13.7318 19.4774 13.7027 19.4051 13.6973C19.3328 13.6919 19.2607 13.7104 19.2 13.75Z" fill="black"/>
<path fill-rule="evenodd" clip-rule="evenodd" d="M18.93 15.26C18.8872 15.2573 18.8442 15.2633 18.8037 15.2775C18.7632 15.2917 18.726 15.314 18.6943 15.3429C18.6625 15.3718 18.637 15.4069 18.619 15.4459C18.6011 15.4849 18.5913 15.5271 18.59 15.57L18.38 19.67C18.3941 20.0726 18.3605 20.4754 18.28 20.87C18.2429 21.0704 18.141 21.2531 17.99 21.39C17.6583 21.626 17.2737 21.7771 16.87 21.83C16.1778 21.9313 15.4795 21.9848 14.78 21.99H12.06C9.91 21.92 7.77 21.77 5.62 21.76C4.77757 21.8152 3.93243 21.8152 3.09 21.76C2.60951 21.7478 2.1461 21.5793 1.77 21.28C1.64051 21.1392 1.55985 20.9603 1.54 20.77C1.50013 20.3844 1.50013 19.9957 1.54 19.61V16.61C1.54 16.2 1.54 15.78 1.59 15.36C1.5956 15.2847 1.57155 15.2101 1.52299 15.1522C1.47443 15.0943 1.40518 15.0576 1.33 15.05C1.29242 15.0459 1.25439 15.0494 1.21821 15.0604C1.18202 15.0713 1.14844 15.0895 1.11947 15.1138C1.0905 15.1381 1.06675 15.168 1.04966 15.2017C1.03256 15.2355 1.02247 15.2723 1.02 15.31C0.97 15.74 0.94 16.17 0.92 16.59C0.87 17.59 0.86 18.59 0.8 19.59C0.764421 20.0226 0.764421 20.4574 0.8 20.89C0.821289 21.2598 0.965609 21.6118 1.21 21.89C1.57865 22.2625 2.04772 22.5196 2.56 22.63C3.5904 22.8039 4.6356 22.8742 5.68 22.84C7.82 22.84 9.96 23.05 12.1 23.1C13.03 23.1 13.96 23.1 14.9 23.05C15.6487 23.0252 16.3944 22.9416 17.13 22.8C17.6861 22.6999 18.2085 22.4628 18.65 22.11C18.9205 21.837 19.1018 21.4883 19.17 21.11C19.2445 20.6507 19.2713 20.1849 19.25 19.72L19.3 15.65C19.3126 15.5981 19.312 15.5438 19.2982 15.4921C19.2845 15.4405 19.258 15.3931 19.2212 15.3543C19.1844 15.3155 19.1385 15.2865 19.0876 15.2701C19.0367 15.2536 18.9825 15.2502 18.93 15.26Z" fill="black"/>
</g>
<defs>
<clipPath id="clip0_1051_8670">
<rect width="24" height="24" fill="white"/>
</clipPath>
</defs>
</svg>
