<svg width="24" height="24" viewBox="0 0 24 24" fill="none" xmlns="http://www.w3.org/2000/svg">
<g clip-path="url(#clip0_1035_4892)">
<path fill-rule="evenodd" clip-rule="evenodd" d="M7.06 18.76C6.8807 18.796 6.70371 18.8428 6.53 18.9C6.35337 18.9569 6.1826 19.0306 6.02 19.12C4.48 19.89 4.6 20.02 4.64 20.19C4.68 20.36 4.64 20.68 6.43 20.33C6.62536 20.298 6.81655 20.2444 7 20.17C7.1794 20.1078 7.35333 20.0309 7.52 19.94C8.87 19.24 9.01 19.08 8.9 18.77C8.79 18.46 8.56 18.41 7.06 18.76Z" fill="black"/>
<path fill-rule="evenodd" clip-rule="evenodd" d="M15.94 16C15.1605 16.1282 14.3892 16.3018 13.63 16.52C13.32 16.62 13 16.73 12.69 16.85C12.383 16.967 12.0826 17.1005 11.79 17.25C11.1 17.59 10.45 17.99 9.79 18.32C9.70359 18.3538 9.63302 18.4188 9.59227 18.5021C9.55153 18.5854 9.54358 18.6811 9.57 18.77C9.59975 18.8553 9.66047 18.9263 9.74013 18.9689C9.81978 19.0115 9.91254 19.0226 10 19C10.8763 18.8342 11.7413 18.6138 12.59 18.34C13.08 18.17 13.59 17.96 14.04 17.74C14.75 17.42 15.43 17.06 16.16 16.79C16.262 16.7619 16.3487 16.6946 16.4011 16.6028C16.4536 16.511 16.4676 16.4021 16.44 16.3C16.4271 16.2473 16.404 16.1977 16.3718 16.154C16.3396 16.1104 16.2991 16.0735 16.2526 16.0456C16.2061 16.0177 16.1546 15.9993 16.1009 15.9915C16.0472 15.9836 15.9925 15.9865 15.94 16Z" fill="black"/>
<path fill-rule="evenodd" clip-rule="evenodd" d="M19.72 14.34C19.5684 14.3569 19.4181 14.3837 19.27 14.42C19.1248 14.4584 18.984 14.5121 18.85 14.58C17.53 15.19 17.62 15.42 17.65 15.58C17.68 15.74 17.74 15.98 19.19 15.83C19.3425 15.8145 19.4932 15.7844 19.64 15.74C19.7888 15.6982 19.9329 15.6412 20.07 15.57C21.29 15.01 21.37 14.82 21.29 14.57C21.21 14.32 21.07 14.17 19.72 14.34Z" fill="black"/>
<path fill-rule="evenodd" clip-rule="evenodd" d="M5.51 16.26C6.73 15.59 6.82 15.35 6.7 15.09C6.58 14.83 6.5 14.77 5.07 15.09C4.91409 15.1194 4.76039 15.1595 4.61 15.21C4.45745 15.2587 4.31008 15.3224 4.17 15.4C2.83 16.12 2.94 16.4 2.99 16.5C3.04 16.6 3.1 16.88 4.59 16.61C4.7505 16.582 4.9079 16.5384 5.06 16.48C5.21569 16.4189 5.36618 16.3453 5.51 16.26Z" fill="black"/>
<path fill-rule="evenodd" clip-rule="evenodd" d="M9.63 14.53C9.77615 14.5155 9.92031 14.4853 10.06 14.44C10.1973 14.3971 10.331 14.3436 10.46 14.28C11.65 13.7 11.7 13.5 11.62 13.28C11.54 13.06 11.42 12.93 10.1 13.1C9.95833 13.117 9.818 13.1437 9.68 13.18C9.5451 13.2117 9.41425 13.2586 9.29 13.32C8.03 13.94 8.12 14.17 8.16 14.32C8.2 14.47 8.24 14.67 9.63 14.53Z" fill="black"/>
<path fill-rule="evenodd" clip-rule="evenodd" d="M14.37 12.92C14.5052 12.9154 14.6394 12.8953 14.77 12.86C14.9041 12.8302 15.0348 12.7866 15.16 12.73C16.32 12.24 16.38 12.02 16.31 11.73C16.24 11.44 16.11 11.4 14.87 11.46C14.7357 11.4674 14.602 11.4841 14.47 11.51C14.339 11.5348 14.2115 11.5751 14.09 11.63C13.97 11.68 12.87 12.2 12.98 12.58C13 12.74 13 13 14.37 12.92Z" fill="black"/>
<path fill-rule="evenodd" clip-rule="evenodd" d="M19 11.39C19.1224 11.366 19.2428 11.3326 19.36 11.29C19.4747 11.2469 19.5851 11.1933 19.69 11.13C20.83 10.53 20.83 10.45 20.78 10.22C20.73 9.99 20.73 9.74 19.31 9.93C19.0296 9.95897 18.7595 10.0513 18.52 10.2C18.41 10.27 17.43 10.96 17.61 11.32C17.7 11.43 17.73 11.64 19 11.39Z" fill="black"/>
<path fill-rule="evenodd" clip-rule="evenodd" d="M24 16.09C23.98 15.0857 23.8965 14.0837 23.75 13.09C23.68 12.66 23.59 12.23 23.48 11.81C23.3858 11.3853 23.2621 10.9676 23.11 10.56C22.78 9.61 22.34 8.7 21.92 7.78C21.92 7.78 21.54 7.17 21.26 7.21C18.628 7.47231 16.0113 7.8695 13.42 8.4C12.33 8.64 11.22 8.91 10.12 9.22C9.02 9.53 7.94 9.88 6.88 10.22C-1.47 13.35 -0.259999 13.62 0.630001 17.39C0.728951 17.843 0.852467 18.2904 1 18.73C1.14868 19.163 1.3223 19.5871 1.52 20C1.95796 21.0004 2.45208 21.9753 3 22.92C3.04042 22.993 3.10263 23.0515 3.17794 23.0873C3.25325 23.1232 3.33788 23.1346 3.42 23.12C5.90863 23.1721 8.39579 22.9609 10.84 22.49C11.8863 22.2763 12.921 22.0093 13.94 21.69C14.9577 21.3775 15.959 21.0137 16.94 20.6C19.2239 19.6356 21.4247 18.4851 23.52 17.16C23.6108 17.1076 23.6773 17.0216 23.7054 16.9207C23.7334 16.8197 23.7207 16.7117 23.67 16.62C23.6216 16.5369 23.5426 16.4759 23.45 16.45C23.5056 16.4891 23.572 16.5101 23.64 16.51C23.7426 16.4998 23.8372 16.4505 23.9043 16.3723C23.9714 16.294 24.0057 16.1929 24 16.09ZM23.12 16.49C20.9819 17.6487 18.7627 18.6513 16.48 19.49C15.48 19.85 14.48 20.17 13.54 20.49C12.6 20.81 11.54 21.06 10.54 21.32C8.27042 21.9003 5.95529 22.2851 3.62 22.47C3.27 21.52 2.98 20.54 2.67 19.56C2.45 18.88 2.24 18.19 2 17.51C1.6 16.36 1.14 15.25 0.780001 14.11C0.780001 14.11 0.780001 14.06 0.730001 14.04C2.85771 13.0705 5.04556 12.2388 7.28 11.55C8.34 11.21 9.41 10.89 10.48 10.55C11.55 10.21 12.64 9.94 13.71 9.66C16.28 9 18.83 8.39 21.26 8C21.53 9.1 21.72 10.21 21.98 11.31C22.13 11.96 22.32 12.61 22.48 13.31C22.74 14.31 23.02 15.25 23.21 16.24C23.2144 16.2979 23.2332 16.3539 23.2646 16.4028C23.296 16.4516 23.3391 16.4919 23.39 16.52C23.3056 16.4811 23.2109 16.4706 23.12 16.49Z" fill="black"/>
<path fill-rule="evenodd" clip-rule="evenodd" d="M9.07 5.74999C8.78683 5.79675 8.5111 5.88081 8.25 5.99999C7.99225 6.11381 7.75295 6.26548 7.54 6.44999C7.08702 6.87526 6.71142 7.37605 6.43 7.92999C6.40177 7.96741 6.38118 8.01003 6.36942 8.05542C6.35765 8.1008 6.35495 8.14805 6.36145 8.19448C6.36795 8.24091 6.38353 8.28561 6.4073 8.32602C6.43107 8.36642 6.46257 8.40175 6.5 8.42999C6.53743 8.45822 6.58005 8.47881 6.62543 8.49057C6.67081 8.50233 6.71807 8.50504 6.7645 8.49854C6.81093 8.49204 6.85562 8.47646 6.89603 8.45269C6.93644 8.42891 6.97177 8.39741 7 8.35999C7.41315 8.01854 7.8625 7.72345 8.34 7.47999C8.62093 7.32194 8.9115 7.18166 9.21 7.05999C9.73159 6.83457 10.2919 6.71232 10.86 6.69999C10.9113 6.7085 10.9638 6.70667 11.0143 6.69461C11.0649 6.68255 11.1126 6.66049 11.1545 6.62975C11.1964 6.599 11.2318 6.56018 11.2585 6.51557C11.2852 6.47096 11.3027 6.42146 11.31 6.36999C11.3253 6.26842 11.302 6.16479 11.2446 6.0796C11.1872 5.99442 11.0999 5.93389 11 5.90999C10.3754 5.71969 9.71738 5.66514 9.07 5.74999Z" fill="black"/>
<path fill-rule="evenodd" clip-rule="evenodd" d="M12.65 4.50999C12.6933 4.42059 12.7008 4.31804 12.6711 4.22327C12.6414 4.1285 12.5766 4.04864 12.49 3.99999C11.5227 3.3489 10.3616 3.04891 9.2 3.14999C8.70384 3.19858 8.21813 3.32338 7.76 3.51999C7.30922 3.71005 6.88555 3.95887 6.5 4.25999C5.65457 4.96106 4.93726 5.80357 4.38 6.74999C4.32618 6.8267 4.30348 6.92098 4.31647 7.01379C4.32946 7.10659 4.37719 7.19101 4.45 7.24999C4.48933 7.28571 4.53607 7.31229 4.58688 7.32781C4.63769 7.34333 4.6913 7.34742 4.74388 7.33977C4.79645 7.33212 4.84668 7.31293 4.89096 7.28358C4.93525 7.25423 4.97248 7.21544 5 7.16999C5.67081 6.43163 6.44561 5.79494 7.3 5.27999C7.82922 4.94511 8.40099 4.68277 9 4.49999C10.0164 4.17878 11.115 4.23922 12.09 4.66999C12.1369 4.6979 12.189 4.71593 12.243 4.72297C12.2971 4.73001 12.3521 4.72591 12.4046 4.71093C12.457 4.69594 12.5058 4.67038 12.548 4.63583C12.5903 4.60127 12.625 4.55845 12.65 4.50999Z" fill="black"/>
<path fill-rule="evenodd" clip-rule="evenodd" d="M3 5.69999C3.72412 4.56574 4.76804 3.67144 6 3.12999C6.51694 2.88053 7.05176 2.66995 7.6 2.49999C8.15723 2.33669 8.72531 2.21305 9.3 2.12999C10.6448 1.91751 12.0216 2.05174 13.3 2.51999C13.3956 2.56457 13.5048 2.56961 13.6041 2.53403C13.7033 2.49845 13.7845 2.42512 13.83 2.32999C13.8535 2.28292 13.8671 2.23158 13.8702 2.17907C13.8734 2.12657 13.8658 2.07398 13.8481 2.02447C13.8303 1.97496 13.8027 1.92955 13.767 1.89097C13.7312 1.85239 13.688 1.82145 13.64 1.79999C12.2679 1.08356 10.7241 0.761638 9.18 0.869994C8.52301 0.91335 7.87259 1.02734 7.24 1.20999C6.60211 1.39457 5.99047 1.66007 5.42 1.99999C4.08336 2.78028 3.03195 3.96838 2.42 5.38999C2.37807 5.42754 2.34582 5.47464 2.32597 5.52731C2.30612 5.57998 2.29927 5.63666 2.30599 5.69254C2.31271 5.74842 2.33281 5.80185 2.36459 5.84831C2.39636 5.89477 2.43887 5.93288 2.4885 5.95941C2.53814 5.98594 2.59345 6.00011 2.64973 6.00071C2.70601 6.00132 2.7616 5.98834 2.8118 5.96288C2.86199 5.93742 2.90531 5.90024 2.93807 5.85447C2.97084 5.80871 2.99208 5.75572 3 5.69999Z" fill="black"/>
</g>
<defs>
<clipPath id="clip0_1035_4892">
<rect width="24" height="24" fill="white"/>
</clipPath>
</defs>
</svg>
