<svg width="24" height="24" viewBox="0 0 24 24" fill="none" xmlns="http://www.w3.org/2000/svg">
<g clip-path="url(#clip0_1035_4882)">
<path fill-rule="evenodd" clip-rule="evenodd" d="M3.57 16.27C3.47589 16.3544 3.40061 16.4577 3.34908 16.5731C3.29755 16.6886 3.27092 16.8136 3.27092 16.94C3.27092 17.0664 3.29755 17.1914 3.34908 17.3069C3.40061 17.4223 3.47589 17.5256 3.57 17.61C3.78351 17.7823 4.03131 17.9071 4.29686 17.9761C4.56242 18.0451 4.83962 18.0566 5.11 18.01C5.46932 17.9314 5.80931 17.7818 6.11 17.57C6.32314 17.4205 6.50069 17.2259 6.63 17C6.71884 16.8115 6.75283 16.6018 6.72807 16.3949C6.70331 16.188 6.62081 15.9922 6.49 15.83C5.93 15.23 4.64 15.67 4.32 15.83C4.04076 15.9199 3.78471 16.0701 3.57 16.27ZM4.81 16.37C5.01 16.26 5.53 15.94 5.86 16.22C5.95 16.3 5.86 16.44 5.86 16.52C5.75932 16.6396 5.62794 16.7295 5.48 16.78C5.30922 16.8606 5.12711 16.9145 4.94 16.94C4.94 16.94 3.68 17 4.81 16.37Z" fill="black"/>
<path fill-rule="evenodd" clip-rule="evenodd" d="M6.1 21.72C6.45908 21.6354 6.79856 21.4827 7.1 21.27C7.32001 21.1116 7.49842 20.9023 7.62 20.66C7.70884 20.4715 7.74283 20.2618 7.71807 20.0549C7.69331 19.848 7.61081 19.6522 7.48 19.49C6.92 18.89 5.63 19.33 5.31 19.49C5.02599 19.6036 4.77008 19.7776 4.56 20C4.46564 20.0853 4.39022 20.1895 4.3386 20.3057C4.28698 20.422 4.26031 20.5478 4.26031 20.675C4.26031 20.8022 4.28698 20.928 4.3386 21.0443C4.39022 21.1605 4.46564 21.2647 4.56 21.35C4.77798 21.5133 5.027 21.6303 5.29181 21.6939C5.55662 21.7576 5.83164 21.7664 6.1 21.72ZM5.76 20.08C5.95 19.96 6.48 19.64 6.76 19.93C6.85 20.01 6.76 20.14 6.76 20.23C6.65528 20.345 6.52517 20.4341 6.38 20.49C6.20707 20.5648 6.02576 20.6185 5.84 20.65C5.84 20.65 4.63 20.74 5.76 20.08Z" fill="black"/>
<path fill-rule="evenodd" clip-rule="evenodd" d="M9.22 16.92C9.57932 16.8414 9.91931 16.6918 10.22 16.48C10.4377 16.3191 10.6156 16.1104 10.74 15.87C10.8288 15.6815 10.8628 15.4718 10.8381 15.2649C10.8133 15.058 10.7308 14.8622 10.6 14.7C10.04 14.09 8.75 14.54 8.43 14.7C8.14212 14.8062 7.88463 14.9813 7.68 15.21C7.58589 15.2944 7.51061 15.3977 7.45908 15.5131C7.40755 15.6286 7.38092 15.7536 7.38092 15.88C7.38092 16.0064 7.40755 16.1314 7.45908 16.2469C7.51061 16.3623 7.58589 16.4656 7.68 16.55C7.89592 16.7171 8.14483 16.8365 8.4103 16.9002C8.67576 16.964 8.95174 16.9708 9.22 16.92ZM8.88 15.28C9.08 15.17 9.6 14.85 9.88 15.13C9.97 15.21 9.88 15.35 9.88 15.43C9.77932 15.5496 9.64794 15.6395 9.5 15.69C9.32706 15.7648 9.14576 15.8185 8.96 15.85C8.96 15.85 7.75 15.94 8.88 15.28Z" fill="black"/>
<path fill-rule="evenodd" clip-rule="evenodd" d="M11.71 14.09C11.6159 14.1744 11.5406 14.2777 11.4891 14.3931C11.4375 14.5086 11.4109 14.6336 11.4109 14.76C11.4109 14.8864 11.4375 15.0114 11.4891 15.1269C11.5406 15.2423 11.6159 15.3456 11.71 15.43C11.9235 15.6023 12.1713 15.7271 12.4369 15.7961C12.7024 15.8651 12.9796 15.8766 13.25 15.83C13.6086 15.7492 13.9482 15.5998 14.25 15.39C14.4656 15.2269 14.6431 15.0187 14.77 14.78C14.8585 14.5897 14.8924 14.3785 14.8676 14.1701C14.8429 13.9617 14.7606 13.7643 14.63 13.6C14.07 13 12.78 13.44 12.46 13.6C12.1742 13.7005 11.9169 13.8686 11.71 14.09ZM12.95 14.19C13.14 14.08 13.67 13.75 14 14.04C14.09 14.12 14 14.26 14 14.34C13.8993 14.4596 13.7679 14.5495 13.62 14.6C13.4471 14.6748 13.2658 14.7285 13.08 14.76C13.08 14.76 11.82 14.85 13 14.19H12.95Z" fill="black"/>
<path fill-rule="evenodd" clip-rule="evenodd" d="M17.36 14.74C17.7186 14.6592 18.0582 14.5098 18.36 14.3C18.5756 14.1369 18.7531 13.9287 18.88 13.69C18.9685 13.4997 19.0024 13.2885 18.9776 13.0801C18.9529 12.8717 18.8706 12.6743 18.74 12.51C18.18 11.91 16.89 12.35 16.57 12.51C16.2821 12.6162 16.0246 12.7913 15.82 13.02C15.7259 13.1044 15.6506 13.2077 15.5991 13.3231C15.5475 13.4386 15.5209 13.5636 15.5209 13.69C15.5209 13.8164 15.5475 13.9414 15.5991 14.0569C15.6506 14.1723 15.7259 14.2756 15.82 14.36C16.0351 14.5288 16.2837 14.65 16.5492 14.7155C16.8147 14.781 17.091 14.7894 17.36 14.74ZM17 13.1C17.19 12.99 17.72 12.66 18.05 12.95C18.14 13.03 18.05 13.17 18.05 13.25C17.9493 13.3696 17.8179 13.4595 17.67 13.51C17.4971 13.5848 17.3158 13.6385 17.13 13.67C16.9815 13.6916 16.8299 13.6743 16.69 13.62C16.69 13.62 16.18 13.59 17 13.1Z" fill="black"/>
<path fill-rule="evenodd" clip-rule="evenodd" d="M18.31 18.45C18.6675 18.3608 19.0062 18.2084 19.31 18C19.53 17.8416 19.7084 17.6323 19.83 17.39C19.9188 17.2015 19.9528 16.9918 19.9281 16.7849C19.9033 16.578 19.8208 16.3822 19.69 16.22C19.13 15.62 17.84 16.06 17.52 16.22C17.2342 16.3303 16.9776 16.5048 16.77 16.73C16.6759 16.8144 16.6006 16.9177 16.5491 17.0331C16.4975 17.1486 16.4709 17.2736 16.4709 17.4C16.4709 17.5264 16.4975 17.6514 16.5491 17.7669C16.6006 17.8823 16.6759 17.9856 16.77 18.07C16.9851 18.2388 17.2337 18.36 17.4992 18.4255C17.7647 18.491 18.041 18.4994 18.31 18.45ZM18 16.81C18.19 16.69 18.72 16.37 19.05 16.66C19.14 16.74 19.05 16.87 19.05 16.96C18.9515 17.0752 18.8236 17.1616 18.68 17.21C18.509 17.292 18.3271 17.3492 18.14 17.38C18.14 17.38 16.84 17.47 18 16.81Z" fill="black"/>
<path fill-rule="evenodd" clip-rule="evenodd" d="M9.31 20.77C9.8826 20.7959 10.4552 20.718 11 20.54C11.77 20.31 12.53 19.93 13.2 19.66C13.8387 19.4474 14.4524 19.1657 15.03 18.82C15.3395 18.6355 15.5841 18.3595 15.73 18.03C15.7739 17.9432 15.7968 17.8473 15.7968 17.75C15.7968 17.6527 15.7739 17.5568 15.73 17.47C15.5885 17.2776 15.4079 17.1175 15.2 17C14.958 16.8799 14.69 16.8215 14.42 16.83C13.96 16.83 14.42 16.74 11.69 17.52L10.22 18C9.8732 18.1055 9.53812 18.2462 9.22 18.42C8.96335 18.5632 8.74142 18.7612 8.57 19C8.46702 19.1428 8.39437 19.3052 8.35653 19.4772C8.3187 19.6492 8.31647 19.8271 8.35 20C8.40127 20.217 8.52359 20.4106 8.69753 20.5502C8.87146 20.6897 9.08704 20.767 9.31 20.77ZM9.84 19.15C10.0611 19.0251 10.2918 18.9181 10.53 18.83L12 18.27C12.7485 17.9493 13.5298 17.7112 14.33 17.56C14.5148 17.5444 14.6999 17.5863 14.86 17.68C14.86 17.68 14.93 17.79 14.98 17.84C14.822 17.9948 14.6351 18.1171 14.43 18.2C13.9389 18.4096 13.4344 18.5867 12.92 18.73C12.27 18.96 11.51 19.28 10.76 19.49C8.38 20.15 9.72 19.22 9.84 19.15Z" fill="black"/>
<path fill-rule="evenodd" clip-rule="evenodd" d="M21.48 12.85C21.6 13.36 21.74 13.85 21.87 14.38C22 14.91 22.17 15.38 22.29 15.91C22.41 16.44 22.52 16.91 22.61 17.47C22.6086 17.5171 22.6173 17.564 22.6355 17.6075C22.6537 17.651 22.681 17.6901 22.7156 17.7222C22.7503 17.7542 22.7913 17.7785 22.8361 17.7933C22.8809 17.8081 22.9283 17.8132 22.9752 17.8081C23.0221 17.8031 23.0673 17.788 23.1079 17.764C23.1485 17.74 23.1835 17.7075 23.2105 17.6689C23.2375 17.6302 23.2558 17.5862 23.2644 17.5398C23.2729 17.4934 23.2714 17.4457 23.26 17.4C23.2388 16.4452 23.1519 15.4929 23 14.55C22.9403 14.1429 22.8602 13.7391 22.76 13.34C22.65 12.95 22.54 12.55 22.41 12.17C21.81 10.45 21.11 9 20.73 9C18.2548 9.27172 15.795 9.66889 13.36 10.19C12.32 10.4167 11.28 10.6767 10.24 10.97C9.95 11.05 9.67 11.16 9.37 11.25C8.77404 10.6958 8.41568 9.93252 8.37 9.12C8.28548 8.16306 8.50601 7.20392 9 6.38C9.21438 5.99664 9.4994 5.65733 9.84 5.38C9.80987 5.683 9.84046 5.98896 9.93 6.28C10.1202 6.98516 10.5611 7.59672 11.17 8C11.4915 8.21316 11.8575 8.34998 12.24 8.4C12.544 8.44371 12.8541 8.39493 13.13 8.26C13.2922 8.18513 13.4352 8.07411 13.5478 7.93544C13.6605 7.79676 13.7399 7.63412 13.78 7.46C13.8606 7.07799 13.8399 6.68155 13.72 6.31C13.5716 5.73157 13.2712 5.20334 12.85 4.78C12.6041 4.53939 12.3159 4.34616 12 4.21C12.1792 4.18559 12.3608 4.18559 12.54 4.21C13.62 4.33 14.8 4.98 15.84 4.93C16.5529 4.91398 17.2341 4.63223 17.75 4.14C18.0326 3.82887 18.1832 3.42009 18.17 3C18.4951 2.95769 18.7918 2.79322 19 2.54C19.2232 2.19535 19.3349 1.79035 19.32 1.38C19.2869 1.03142 19.1886 0.69218 19.03 0.379997C18.9968 0.299172 18.9328 0.23483 18.8522 0.201086C18.7716 0.167341 18.6809 0.166949 18.6 0.199997C18.6 0.199997 18.55 0.249997 18.53 0.269997C18.5153 0.187794 18.47 0.114224 18.4032 0.0641187C18.3364 0.0140136 18.253 -0.00890014 18.17 -3.0091e-06C17.9102 -0.0149933 17.6498 -0.0149933 17.39 -3.01003e-06C17.202 0.021188 17.0192 0.0753499 16.85 0.159997C15.52 0.859997 16.26 1.29 16.33 1.79C16.3609 1.96434 16.4182 2.13295 16.5 2.29C16.6098 2.47201 16.7548 2.6303 16.9265 2.75564C17.0982 2.88098 17.2932 2.97085 17.5 3.02C17.4913 3.16754 17.4501 3.31133 17.3792 3.44101C17.3083 3.57069 17.2095 3.68305 17.09 3.77C16.7182 4.00191 16.2882 4.1233 15.85 4.12C15.2498 4.06959 14.662 3.92095 14.11 3.68C13.4439 3.39359 12.725 3.25049 12 3.26C11.7031 3.28014 11.4134 3.36058 11.1486 3.49641C10.8839 3.63223 10.6496 3.8206 10.46 4.05C10.1776 4.11196 9.90726 4.22008 9.66 4.37C9.06238 4.75858 8.57639 5.29626 8.25 5.93C7.71163 6.94091 7.49859 8.09342 7.64 9.23C7.74587 10.0793 8.11678 10.8736 8.7 11.5C8.19 11.66 7.7 11.8 7.19 11.98C-0.610001 14.83 0.47 15 1.35 18.6C1.45024 19.0264 1.57376 19.4471 1.72 19.86C1.85 20.27 2.01 20.68 2.18 21.08C2.57611 22.0172 3.02346 22.9319 3.52 23.82C3.55134 23.8802 3.60157 23.9285 3.66299 23.9574C3.72442 23.9863 3.79363 23.9942 3.86 23.98C6.20905 24.0182 8.55552 23.807 10.86 23.35C11.8424 23.1507 12.8137 22.9003 13.77 22.6C14.77 22.3 15.67 21.96 16.6 21.6C18.7531 20.6952 20.8299 19.6184 22.81 18.38C22.8845 18.3378 22.9397 18.2684 22.964 18.1863C22.9882 18.1042 22.9796 18.0159 22.94 17.94C22.8942 17.8639 22.8204 17.8087 22.7345 17.7862C22.6485 17.7638 22.5571 17.7759 22.48 17.82C20.4682 18.9082 18.3792 19.8474 16.23 20.63C15.31 20.97 14.38 21.28 13.45 21.57C12.52 21.86 11.57 22.11 10.63 22.35C8.46747 22.8788 6.26205 23.2135 4.04 23.35C3.85 22.87 3.68 22.35 3.51 21.89C3.34 21.43 3.2 20.86 3 20.32C2.8 19.78 2.65 19.24 2.47 18.7C2.09 17.62 1.68 16.56 1.36 15.48C1.3461 15.441 1.32191 15.4064 1.29 15.38C3.31559 14.4508 5.40008 13.6557 7.53 13C8.53 12.68 9.53 12.37 10.53 12.08C11.53 11.79 12.53 11.51 13.53 11.24C15.98 10.62 18.4 10.09 20.71 9.71C21 10.76 21.24 11.8 21.48 12.85ZM17 1.52C16.9609 1.42296 16.9308 1.32254 16.91 1.22H17.15L17.41 1.15C17.74 1.02 18.02 0.829997 18.34 0.669997C18.3775 0.649023 18.4113 0.621992 18.44 0.589997C18.4946 0.843759 18.4946 1.10624 18.44 1.36C18.4008 1.57559 18.2919 1.77234 18.13 1.92C18.04 2.04 17.88 2.03 17.73 2.02C17.5202 2.02788 17.3145 1.96049 17.15 1.83C17.0843 1.73501 17.0337 1.63045 17 1.52ZM11 5H11.1C11.4808 5.04003 11.835 5.21363 12.1 5.49C12.3754 5.76684 12.5721 6.11199 12.67 6.49C12.7087 6.6372 12.7322 6.78799 12.74 6.94C12.74 7.03 12.74 7.13 12.66 7.18C12.5339 7.22501 12.3961 7.22501 12.27 7.18C12.0898 7.13789 11.9176 7.06698 11.76 6.97C11.4109 6.73471 11.1449 6.39526 11 6C10.8759 5.67821 10.8759 5.32179 11 5Z" fill="black"/>
</g>
<defs>
<clipPath id="clip0_1035_4882">
<rect width="24" height="24" fill="white"/>
</clipPath>
</defs>
</svg>
