<svg width="24" height="24" viewBox="0 0 24 24" fill="none" xmlns="http://www.w3.org/2000/svg">
<g clip-path="url(#clip0_1030_2209)">
<path fill-rule="evenodd" clip-rule="evenodd" d="M24 8.68C23.9964 7.08682 23.9129 5.49483 23.75 3.91C23.6638 3.26629 23.4046 2.65803 23 2.15C22.5678 1.62488 21.9464 1.29084 21.27 1.22C17.6176 0.822772 13.943 0.665768 10.27 0.749999C7.83177 0.741019 5.39797 0.958621 3 1.4C2.24593 1.59514 1.55628 1.98479 1 2.53C0.632551 2.91661 0.388821 3.40407 0.3 3.93C0.0105873 6.19104 -0.0897605 8.47228 8.9407e-08 10.75C0.0385287 14.139 0.289018 17.5223 0.75 20.88C0.880525 21.4704 1.24023 21.9848 1.75 22.31C2.42744 22.7449 3.19871 23.0123 4 23.09C5.41099 23.2453 6.83133 23.2988 8.25 23.25C11.42 23.25 15.25 22.95 18.03 22.88C18.0742 22.88 18.1179 22.8712 18.1586 22.854C18.1993 22.8368 18.2362 22.8115 18.267 22.7798C18.2977 22.7481 18.3218 22.7106 18.3378 22.6694C18.3538 22.6282 18.3613 22.5842 18.36 22.54C18.3587 22.494 18.3484 22.4488 18.3296 22.4068C18.3108 22.3648 18.2839 22.327 18.2505 22.2954C18.217 22.2638 18.1777 22.2391 18.1347 22.2228C18.0917 22.2064 18.046 22.1987 18 22.2C15.21 22.2 11.4 22.43 8.23 22.43C6.85678 22.4557 5.48345 22.3855 4.12 22.22C3.57713 22.1555 3.05129 21.9893 2.57 21.73C2.36007 21.638 2.17315 21.5006 2.02272 21.3277C1.87228 21.1548 1.76206 20.9506 1.7 20.73C1.36203 17.9724 1.17841 15.1981 1.15 12.42C1.01777 9.6598 1.11812 6.89336 1.45 4.15C1.5441 3.75388 1.76971 3.40136 2.09 3.15C2.43462 2.86487 2.83226 2.65076 3.26 2.52C5.61038 2.10465 7.99322 1.9005 10.38 1.91C13.9904 1.80101 17.6042 1.9179 21.2 2.26C21.6215 2.29312 22.013 2.49067 22.29 2.81C22.5437 3.16021 22.7022 3.57023 22.75 4C22.91 5.15 23.02 6.81 23.08 8.66C23.22 12.66 23.19 17.38 23.22 19.66C23.2381 20.2125 23.1031 20.7593 22.83 21.24C22.724 21.4673 22.5601 21.6627 22.3547 21.8066C22.1494 21.9505 21.9098 22.0379 21.66 22.06L19.66 22.12C19.5804 22.12 19.5041 22.1516 19.4479 22.2079C19.3916 22.2641 19.36 22.3404 19.36 22.42C19.36 22.4996 19.3916 22.5759 19.4479 22.6321C19.5041 22.6884 19.5804 22.72 19.66 22.72H21.66C21.9481 22.7209 22.2328 22.6566 22.4925 22.5319C22.7523 22.4072 22.9805 22.2254 23.16 22C23.6571 21.3519 23.9245 20.5568 23.92 19.74C23.93 17.41 24.05 12.64 24 8.68Z" fill="black"/>
<path fill-rule="evenodd" clip-rule="evenodd" d="M4.27 12.6C4.53 12.92 5.19 13.68 5.27 13.8C5.71 14.28 6.18 14.88 6.67 15.39C6.89582 15.6256 7.13991 15.8429 7.4 16.04C7.92188 16.287 8.49263 16.4135 9.07 16.41C10.9999 16.4948 12.9331 16.4681 14.86 16.33C16.3189 16.2746 17.7706 16.0973 19.2 15.8C19.3372 15.7809 19.4682 15.7303 19.5827 15.6522C19.6971 15.5742 19.7921 15.4708 19.86 15.35C19.8721 15.3067 19.8755 15.2614 19.8699 15.2167C19.8644 15.1721 19.8501 15.1289 19.8277 15.0899C19.8054 15.0508 19.7755 15.0166 19.7399 14.9891C19.7042 14.9617 19.6635 14.9416 19.62 14.93C19.5549 14.9105 19.4855 14.9116 19.421 14.9331C19.3566 14.9546 19.3004 14.9954 19.26 15.05C19.2 15 19.03 15.13 18.81 15.18C16.7023 15.4625 14.5761 15.5828 12.45 15.54C11.1975 15.5556 9.94523 15.4955 8.7 15.36C8.47077 15.3483 8.24475 15.301 8.03 15.22C7.74797 14.983 7.48699 14.722 7.25 14.44C6.85 13.98 6.47 13.44 6.11 13.06L5.34 12.14C6.04 11.41 7.63 9.78001 8.4 9.07001C8.47283 9.01137 8.54969 8.9579 8.63 8.91001H8.81C9.08 8.91001 9.37 8.82001 9.58 8.81001C10.06 8.81001 13.58 8.61001 16.11 8.53001C16.9826 8.48064 17.8574 8.48064 18.73 8.53001C18.9 8.60001 18.98 8.81001 19.05 9.02001C19.1422 9.30295 19.2058 9.5944 19.24 9.89001C19.3609 10.5518 19.4477 11.2193 19.5 11.89C19.5498 12.5724 19.5498 13.2576 19.5 13.94C19.4891 13.9819 19.4875 14.0256 19.4951 14.0682C19.5027 14.1107 19.5194 14.1512 19.5441 14.1867C19.5688 14.2222 19.6009 14.2519 19.6382 14.2738C19.6754 14.2958 19.717 14.3094 19.76 14.3138C19.8031 14.3182 19.8465 14.3132 19.8875 14.2992C19.9284 14.2852 19.9658 14.2625 19.9971 14.2327C20.0285 14.2029 20.053 14.1667 20.069 14.1265C20.0851 14.0864 20.0922 14.0432 20.09 14C20.1698 13.2863 20.1932 12.5674 20.16 11.85C20.147 11.1342 20.0936 10.4198 20 9.71001C19.9635 9.22798 19.8486 8.75511 19.66 8.31001C19.5411 8.05527 19.3405 7.84759 19.09 7.72001C18.0958 7.58853 17.0922 7.5417 16.09 7.58001C13.51 7.58001 10.02 7.66001 9.53 7.67001L8.53 7.76001C8.44964 7.74256 8.36657 7.74153 8.2858 7.757C8.20504 7.77247 8.12823 7.8041 8.06 7.85001C7.89384 7.96029 7.73966 8.08765 7.6 8.23001C7.6 8.23001 4.32 11.67 4.73 11.57C4.62 11.63 3.83 12.07 4.27 12.6Z" fill="black"/>
<path fill-rule="evenodd" clip-rule="evenodd" d="M15.81 9.53998C15.6604 9.58109 15.5208 9.65258 15.4 9.74998C15.1 9.96998 14.47 10.4 13.91 10.88C13.4159 10.5026 12.9018 10.1521 12.37 9.82998L12.18 9.71999L12.1 9.66999C11.75 9.58999 11.67 9.79998 11.69 9.94998C11.71 10.1 11.54 9.94998 13.11 11.66C12.95 11.84 12.82 12.01 12.72 12.13L12.11 13.13C12.11 13.13 11.93 13.53 11.87 13.68C11.81 13.83 11.87 13.77 11.87 13.78C11.8456 13.8547 11.8456 13.9353 11.87 14.01C11.95 14.12 12.05 14.22 12.21 14.16C12.37 14.1 12.07 14.16 13.54 12.8C13.63 12.7 13.77 12.58 13.92 12.44C14.4891 12.8653 14.9972 13.3666 15.43 13.93C15.4436 13.9728 15.4656 14.0125 15.4946 14.0467C15.5236 14.081 15.5592 14.1092 15.5992 14.1296C15.6391 14.1501 15.6828 14.1624 15.7275 14.1659C15.7723 14.1694 15.8173 14.164 15.86 14.15C15.9027 14.1365 15.9422 14.1145 15.9761 14.0853C16.0101 14.0561 16.0377 14.0203 16.0573 13.9801C16.077 13.9398 16.0882 13.896 16.0904 13.8513C16.0926 13.8066 16.0856 13.7619 16.07 13.72C15.8401 13.0502 15.476 12.4343 15 11.91L14.75 11.64L14.86 11.53C16.43 9.79998 16.2 9.92999 16.2 9.87999C16.2005 9.8308 16.1904 9.78208 16.1703 9.7372C16.1502 9.69231 16.1205 9.65233 16.0835 9.62C16.0464 9.58768 16.0027 9.56378 15.9555 9.54997C15.9083 9.53616 15.8587 9.53275 15.81 9.53998Z" fill="black"/>
</g>
<defs>
<clipPath id="clip0_1030_2209">
<rect width="24" height="24" fill="white"/>
</clipPath>
</defs>
</svg>
