<svg width="24" height="24" viewBox="0 0 24 24" fill="none" xmlns="http://www.w3.org/2000/svg">
<g clip-path="url(#clip0_1052_9179)">
<path fill-rule="evenodd" clip-rule="evenodd" d="M23.59 1.65002H23.5C23.5 1.65002 23.59 1.69002 23.59 1.65002Z" fill="black"/>
<path fill-rule="evenodd" clip-rule="evenodd" d="M4 8.54005C4.04712 8.56726 4.10058 8.58158 4.155 8.58158C4.20941 8.58158 4.26287 8.56726 4.31 8.54005C4.19486 9.60378 4.37115 10.6788 4.82 11.6501C5.27768 12.8389 6.17187 13.8082 7.32 14.3601C7.60694 14.4695 7.91463 14.5137 8.22077 14.4895C8.52691 14.4652 8.82383 14.3732 9.09 14.2201C9.36373 14.0648 9.59695 13.8471 9.77071 13.5847C9.94447 13.3224 10.0539 13.0227 10.09 12.7101C10.1212 12.3774 10.1212 12.0427 10.09 11.7101C10.3518 11.7498 10.6182 11.7498 10.88 11.7101C11.4221 11.6271 11.9139 11.3455 12.26 10.9201C12.4784 10.5334 12.6082 10.103 12.64 9.66005C12.675 9.3009 12.675 8.9392 12.64 8.58005C12.5754 8.12567 12.5754 7.66444 12.64 7.21005C12.64 7.21005 13.11 6.21005 13.17 6.09005H13.4C13.9282 6.13096 14.4309 6.33347 14.84 6.67005C15.1816 7.03278 15.3866 7.5029 15.42 8.00005C15.48 8.38005 15.42 8.93005 15.51 9.39005C15.5505 9.66469 15.6568 9.92545 15.82 10.1501C16.029 10.4156 16.2905 10.6352 16.5882 10.7952C16.8858 10.9552 17.2132 11.0522 17.55 11.0801C18.1909 11.1364 18.8336 10.9932 19.39 10.6701C19.8222 10.4356 20.1583 10.0569 20.34 9.60005C20.5339 8.97539 20.5717 8.3127 20.45 7.67005C20.3271 6.9199 20.2736 6.16002 20.29 5.40005C20.307 4.91279 20.4298 4.43507 20.65 4.00005C20.873 3.58501 21.1675 3.21262 21.52 2.90005C21.8897 2.57929 22.2843 2.28838 22.7 2.03005C22.9246 1.8438 23.1736 1.68904 23.44 1.57005H23.58C23.6587 1.56496 23.7325 1.53007 23.7864 1.47248C23.8403 1.41488 23.8702 1.33892 23.87 1.26005C23.8592 1.20692 23.8369 1.15681 23.8046 1.11327C23.7723 1.06972 23.7309 1.03379 23.6832 1.00804C23.6355 0.982278 23.5827 0.967316 23.5286 0.964209C23.4745 0.961101 23.4203 0.969923 23.37 0.990052C23.0285 1.12491 22.6946 1.27848 22.37 1.45005C21.8204 1.76605 21.3073 2.14165 20.84 2.57005C20.5029 2.90074 20.2195 3.28199 20 3.70005C19.7183 4.20055 19.551 4.75721 19.51 5.33005C19.4653 6.13444 19.4954 6.94124 19.6 7.74005C19.6707 8.17385 19.6707 8.61625 19.6 9.05005C19.5582 9.22859 19.4773 9.39564 19.3632 9.53916C19.2491 9.68269 19.1045 9.79911 18.94 9.88005C18.5464 10.0953 18.0955 10.1827 17.65 10.1301C17.4439 10.109 17.2443 10.0458 17.0636 9.94427C16.883 9.84277 16.7252 9.70517 16.6 9.54005C16.5161 9.3907 16.4746 9.22127 16.48 9.05005V7.86005C16.4149 7.10063 16.0775 6.39033 15.53 5.86005C14.9701 5.36575 14.272 5.05511 13.53 4.97005C13.2806 4.94492 13.0294 4.94492 12.78 4.97005C12.5893 4.98155 12.4009 5.01855 12.22 5.08005C11.9765 5.16699 11.7393 5.27057 11.51 5.39005C11.2901 5.51252 11.0765 5.64602 10.87 5.79005C10.1573 6.2657 9.5788 6.91651 9.19 7.68005C8.82316 8.45915 8.67455 9.32316 8.76 10.1801C8.81 10.6801 8.9 11.1801 8.94 11.6701C8.97 11.9693 8.97 12.2708 8.94 12.5701C8.92805 12.7044 8.88357 12.8337 8.81039 12.947C8.73721 13.0603 8.63754 13.154 8.52 13.2201C8.40117 13.2929 8.26706 13.3371 8.12824 13.3492C7.98941 13.3614 7.84966 13.3411 7.72 13.2901C6.81594 12.8673 6.10259 12.1218 5.72 11.2001C5.26265 10.2959 5.10838 9.26863 5.28 8.27005C5.74026 6.68643 6.63386 5.26291 7.86 4.16005C9.05286 3.00729 10.4976 2.14796 12.08 1.65005C12.47 1.53005 13.08 1.29005 13.71 1.15005C14.0344 1.05412 14.3764 1.0336 14.71 1.09005C14.7527 1.10405 14.7977 1.10946 14.8425 1.10596C14.8872 1.10247 14.9309 1.09014 14.9709 1.06968C15.0108 1.04922 15.0464 1.02105 15.0754 0.986788C15.1044 0.952524 15.1264 0.912848 15.14 0.870052C15.1651 0.782541 15.1551 0.688686 15.1122 0.608404C15.0693 0.528122 14.9967 0.467733 14.91 0.440052C14.5799 0.374314 14.2401 0.374314 13.91 0.440052C13.2334 0.576728 12.5655 0.75371 11.91 0.970052C10.1954 1.46725 8.62031 2.3575 7.31 3.57005C5.94834 4.74863 4.94088 6.28232 4.4 8.00005C4.36859 7.95357 4.32298 7.91849 4.27 7.90005C3.98517 7.75708 3.73643 7.55144 3.54246 7.29857C3.34848 7.04571 3.2143 6.75219 3.15 6.44005C2.99323 5.7792 3.01741 5.08832 3.22 4.44005C3.44659 3.81824 3.84974 3.27607 4.38 2.88005C4.93761 2.42684 5.54887 2.04397 6.2 1.74005C7.50851 1.05347 8.96233 0.690017 10.44 0.680052C10.4787 0.687286 10.5185 0.686815 10.5571 0.678668C10.5956 0.67052 10.6322 0.654855 10.6647 0.632567C10.6972 0.61028 10.725 0.581806 10.7465 0.548773C10.768 0.515741 10.7828 0.478797 10.79 0.440052C10.7971 0.401175 10.7962 0.361256 10.7873 0.322745C10.7784 0.284235 10.7618 0.247945 10.7384 0.216105C10.715 0.184265 10.6853 0.157546 10.6512 0.137589C10.6171 0.117632 10.5792 0.104858 10.54 0.100052C8.58819 -0.133675 6.61179 0.239956 4.88 1.17005C4.25475 1.46288 3.69562 1.87985 3.23661 2.39559C2.7776 2.91133 2.42831 3.51506 2.21 4.17005C2.02241 4.99487 2.0604 5.85499 2.32 6.66005C2.43707 7.08128 2.64948 7.46993 2.9408 7.79593C3.23212 8.12193 3.59453 8.37654 4 8.54005ZM10.23 8.16005C10.5077 7.56187 10.9347 7.04528 11.47 6.66005L12 6.35005C11.9049 6.53468 11.8214 6.72504 11.75 6.92005C11.6537 7.18413 11.5931 7.45991 11.57 7.74005C11.5449 8.22973 11.5449 8.72037 11.57 9.21005C11.6034 9.60322 11.5381 9.99851 11.38 10.3601C11.2281 10.6035 10.9939 10.7844 10.72 10.8701C10.4927 10.9664 10.2467 11.0108 10 11.0001L9.88 10.0701C9.82835 9.41377 9.949 8.75538 10.23 8.16005Z" fill="black"/>
<path fill-rule="evenodd" clip-rule="evenodd" d="M24 18.31C23.9946 18.2471 23.9749 18.1864 23.9422 18.1324C23.9095 18.0785 23.8648 18.0328 23.8116 17.9989C23.7584 17.965 23.6981 17.9439 23.6354 17.9372C23.5726 17.9304 23.5092 17.9382 23.45 17.96C23.2087 18.0437 22.9874 18.1765 22.8 18.35C22.2964 18.8853 21.7365 19.3648 21.13 19.78C20.6118 19.9874 20.0414 20.0259 19.5 19.89C18.8104 19.6809 18.1513 19.3816 17.54 19C16.8459 18.5132 16.0599 18.173 15.23 18C14.8538 17.9522 14.4718 17.9863 14.11 18.1C13.502 18.3215 12.9268 18.6242 12.4 19C11.9822 19.2968 11.5042 19.4982 11 19.59C10.7442 19.6189 10.4859 19.6189 10.23 19.59C9.99629 19.5717 9.76855 19.5071 9.56 19.4C9.1 19.13 8.71 18.69 8.25 18.4C7.98574 18.2351 7.68896 18.1294 7.38 18.09C6.49559 18.066 5.62666 18.3253 4.9 18.83C4.3195 19.2428 3.67858 19.5633 3 19.78C2.74477 19.8289 2.48109 19.8082 2.23656 19.7203C1.99203 19.6323 1.77563 19.4803 1.61 19.28C1.37454 19.0228 1.10935 18.7946 0.820003 18.6C0.732148 18.5515 0.630852 18.5331 0.531555 18.5475C0.432258 18.562 0.340407 18.6085 0.270003 18.68C0.194892 18.773 0.143424 18.8828 0.120003 19C0.120003 19.29 0.120003 20 0.0600028 20.26C0.0339948 20.7263 0.0339948 21.1937 0.0600028 21.66C0.0600028 22.36 0.120003 23.09 0.170003 23.66C0.16278 23.7012 0.164563 23.7435 0.175228 23.784C0.185894 23.8244 0.20519 23.8621 0.231791 23.8944C0.258392 23.9267 0.291668 23.9529 0.329334 23.9711C0.367001 23.9893 0.408166 23.9992 0.450003 24C0.48943 23.9975 0.527967 23.9872 0.563401 23.9697C0.598835 23.9522 0.630469 23.9279 0.656485 23.8982C0.682502 23.8684 0.702389 23.8339 0.715006 23.7964C0.727622 23.759 0.732719 23.7194 0.730003 23.68V21.68C0.73393 21.2422 0.760633 20.805 0.810003 20.37C0.84438 20.1772 0.891144 19.9868 0.950003 19.8C0.980624 19.8184 1.00772 19.8421 1.03 19.87C1.28122 20.185 1.61209 20.4272 1.98836 20.5714C2.36462 20.7155 2.77259 20.7565 3.17 20.69C3.96856 20.4789 4.72817 20.1413 5.42 19.69C5.96453 19.3209 6.61264 19.1352 7.27 19.16C7.42654 19.1867 7.57615 19.2445 7.71 19.33C8.16 19.62 8.55 20.07 9 20.33C9.27224 20.4855 9.57038 20.5906 9.88 20.64C10.2978 20.7236 10.725 20.7505 11.15 20.72C12.22 20.61 13.15 19.78 14.15 19.32C14.4559 19.1543 14.8033 19.0814 15.15 19.11C15.8349 19.2303 16.4902 19.4816 17.08 19.85C17.7705 20.2838 18.5176 20.6203 19.3 20.85C20.0434 21.0195 20.8216 20.9459 21.52 20.64C21.7417 20.5329 21.9471 20.3949 22.13 20.23C22.48 19.92 22.87 19.46 23.21 19.13V20.36V23.6C23.21 23.6902 23.2458 23.7767 23.3096 23.8404C23.3733 23.9042 23.4598 23.94 23.55 23.94C23.6402 23.94 23.7267 23.9042 23.7904 23.8404C23.8542 23.7767 23.89 23.6902 23.89 23.6L23.97 20.35V18.52C24 18.44 24 18.35 24 18.31Z" fill="black"/>
</g>
<defs>
<clipPath id="clip0_1052_9179">
<rect width="24" height="24" fill="white"/>
</clipPath>
</defs>
</svg>
