<svg width="24" height="24" viewBox="0 0 24 24" fill="none" xmlns="http://www.w3.org/2000/svg">
<g clip-path="url(#clip0_1048_7213)">
<path d="M1.39 9.85002C1.90424 10.1944 2.44226 10.5018 3 10.77C3.83 11.18 4.69 11.53 5.53 11.86L9.75 13.49C10.2896 13.7117 10.8403 13.9053 11.4 14.07C11.6868 14.1456 11.9843 14.1726 12.28 14.15C12.8192 14.1061 13.3504 13.9918 13.86 13.81C14.58 13.57 15.28 13.24 15.96 12.96L18.84 11.65C19.5 11.34 20.17 11.05 20.84 10.73C21.2933 10.5167 21.7333 10.2967 22.16 10.07C22.5063 9.91129 22.8405 9.72746 23.16 9.52002C23.3278 9.39862 23.4704 9.24579 23.58 9.07002C23.6144 9.00001 23.6323 8.92303 23.6323 8.84502C23.6323 8.767 23.6144 8.69003 23.58 8.62002C23.4594 8.40085 23.3188 8.1933 23.16 8.00002C22.9494 7.75406 22.7149 7.52963 22.46 7.33002C22.0928 7.0591 21.7087 6.81193 21.31 6.59002C19.68 5.64002 18 4.71002 16.36 3.69002C15.2805 3.02882 14.2389 2.30769 13.24 1.53002C13.1737 1.47697 13.089 1.45244 13.0046 1.46182C12.9203 1.4712 12.843 1.51371 12.79 1.58002C12.737 1.64632 12.7124 1.73098 12.7218 1.81537C12.7312 1.89976 12.7737 1.97697 12.84 2.03002C13.8528 2.83535 14.9076 3.58641 16 4.28002C17.61 5.34002 19.29 6.28002 20.9 7.28002C21.2657 7.48883 21.6166 7.72272 21.95 7.98002C22.1504 8.14542 22.3346 8.32959 22.5 8.53002L22.64 8.74002L22.5 8.84002C22.24 9.00002 21.94 9.13002 21.75 9.23002C21.32 9.45002 20.89 9.65002 20.46 9.85002C19.8 10.15 19.13 10.43 18.46 10.72L15.59 12C14.92 12.27 14.24 12.59 13.59 12.82C13.1596 12.9667 12.713 13.0607 12.26 13.1C12.0019 13.1128 11.7438 13.0754 11.5 12.99C11.04 12.86 10.59 12.64 10.17 12.49L5.97 10.9C5.14 10.59 4.3 10.27 3.49 9.90002C2.94195 9.65561 2.41077 9.37499 1.9 9.06002C1.65929 8.91031 1.43476 8.73605 1.23 8.54002C1.14788 8.46543 1.07103 8.38524 1 8.30002L6.4 4.72002C7.4 4.12002 8.4 3.52002 9.4 2.94002C10.08 2.56002 10.76 2.19002 11.45 1.83002C11.5119 1.79437 11.5577 1.73643 11.5783 1.66807C11.5989 1.5997 11.5925 1.52607 11.5606 1.46221C11.5287 1.39836 11.4736 1.34911 11.4065 1.32454C11.3395 1.29997 11.2656 1.30193 11.2 1.33002C10.5 1.68002 9.8 2.04002 9.11 2.41002C8.09 3.00002 7.07 3.54002 6.05 4.12002L4.2 5.19002C3.29 5.74002 2.38 6.30002 1.48 6.87002C1.05658 7.07665 0.648827 7.31395 0.26 7.58002C0.184195 7.63385 0.121468 7.70404 0.0764617 7.7854C0.0314558 7.86676 0.00532377 7.9572 0 8.05002C0.029701 8.40477 0.177596 8.7393 0.42 9.00002C0.70143 9.32788 1.02803 9.61407 1.39 9.85002Z" fill="black"/>
<path d="M1.69 14C2.20542 14.3664 2.74312 14.7004 3.3 15C4.13 15.42 4.98 15.78 5.81 16.12L10 17.75C10.5365 17.9826 11.0877 18.1797 11.65 18.34C11.9378 18.41 12.2343 18.4369 12.53 18.42C13.0691 18.3751 13.6002 18.2608 14.11 18.08C14.83 17.84 15.52 17.5 16.21 17.21L19.07 15.87C19.73 15.56 20.39 15.26 21.07 14.94C21.51 14.73 21.95 14.51 22.38 14.27C22.7092 14.1113 23.0237 13.9239 23.32 13.71C23.4783 13.5961 23.6139 13.4536 23.72 13.29C23.7469 13.232 23.7608 13.1689 23.7608 13.105C23.7608 13.0411 23.7469 12.978 23.72 12.92C23.607 12.7072 23.473 12.5062 23.32 12.32C23.1494 12.1244 22.9656 11.9406 22.77 11.77C22.32 11.39 21.88 11.09 21.88 11.09C21.8107 11.0432 21.7259 11.0254 21.6437 11.0404C21.5615 11.0553 21.4884 11.1019 21.44 11.17C21.4155 11.2039 21.3982 11.2423 21.3889 11.283C21.3797 11.3238 21.3788 11.366 21.3863 11.407C21.3937 11.4481 21.4094 11.4873 21.4324 11.5222C21.4554 11.5571 21.4852 11.5869 21.52 11.61C21.52 11.61 21.84 11.84 22.19 12.15C22.4569 12.4434 22.7041 12.754 22.93 13.08L22.75 13.2C22.49 13.36 22.18 13.49 21.99 13.59C21.5633 13.8033 21.1333 14.0033 20.7 14.19C20.03 14.49 19.36 14.76 18.7 15.05L15.82 16.27C15.15 16.54 14.47 16.85 13.77 17.07C13.3452 17.226 12.9011 17.3235 12.45 17.36C12.1922 17.3678 11.935 17.3305 11.69 17.25C11.23 17.11 10.78 16.9 10.36 16.76L6.14 15.21C5.31 14.92 4.47001 14.61 3.64001 14.21C3.10498 13.97 2.58413 13.6995 2.08 13.4C1.77726 13.2189 1.49841 13.0005 1.25 12.75C1.14612 12.6457 1.06149 12.5238 1 12.39C1.35149 12.151 1.71533 11.9307 2.09 11.73C2.15059 11.6875 2.19263 11.6234 2.2075 11.5509C2.22237 11.4784 2.20896 11.4029 2.17 11.34C2.15073 11.3093 2.12548 11.2828 2.09576 11.2621C2.06603 11.2414 2.03244 11.2268 1.99698 11.2194C1.96152 11.2119 1.92492 11.2117 1.88936 11.2186C1.8538 11.2256 1.82001 11.2397 1.79 11.26C1.37021 11.4787 0.965925 11.7259 0.580005 12C0.519054 12.0407 0.468974 12.0957 0.434118 12.1602C0.399262 12.2247 0.380686 12.2967 0.380005 12.37C0.40166 12.6983 0.535871 13.0091 0.760005 13.25C1.03891 13.5363 1.35114 13.7881 1.69 14Z" fill="black"/>
<path d="M24 17.18C23.8845 16.9687 23.7507 16.7679 23.6 16.58C23.3926 16.3405 23.1615 16.1227 22.91 15.93C22.5418 15.6636 22.1578 15.4198 21.76 15.2C21.7247 15.1785 21.6854 15.1642 21.6445 15.1581C21.6036 15.152 21.5619 15.1541 21.5218 15.1644C21.4817 15.1746 21.4441 15.1928 21.4112 15.2178C21.3783 15.2428 21.3506 15.2742 21.33 15.31C21.3082 15.3461 21.2938 15.3861 21.2876 15.4278C21.2813 15.4695 21.2834 15.512 21.2936 15.5529C21.3038 15.5937 21.322 15.6322 21.3471 15.666C21.3723 15.6999 21.4038 15.7284 21.44 15.75C21.8059 15.9623 22.1567 16.1995 22.49 16.46C22.7512 16.7327 22.9887 17.0271 23.2 17.34L23.03 17.46C22.77 17.62 22.46 17.75 22.27 17.85L20.97 18.46L18.97 19.31L16.1 20.54C15.43 20.8 14.75 21.11 14.05 21.34C13.6223 21.4861 13.1795 21.5834 12.73 21.63C12.4725 21.6327 12.2162 21.5956 11.97 21.52C11.51 21.38 11.05 21.17 10.64 21.02L6.38001 19.48C5.55001 19.18 4.71001 18.87 3.88001 18.48C3.34498 18.24 2.82413 17.9695 2.32001 17.67C2.01531 17.4881 1.73902 17.2623 1.50001 17C1.39352 16.8921 1.31164 16.7625 1.26001 16.62C1.61001 16.3 2.60001 15.62 2.67001 15.62C2.73101 15.5802 2.7737 15.5178 2.78871 15.4466C2.80371 15.3753 2.78979 15.301 2.75001 15.24C2.73031 15.2098 2.70485 15.1838 2.6751 15.1634C2.64534 15.143 2.61186 15.1287 2.57657 15.1213C2.50531 15.1063 2.43101 15.1202 2.37001 15.16C1.84276 15.4662 1.33205 15.8 0.840006 16.16C0.711592 16.2532 0.6253 16.3934 0.600006 16.55C0.630553 16.881 0.767366 17.1932 0.990006 17.44C1.26261 17.7568 1.57916 18.0329 1.93001 18.26C2.44444 18.61 2.98238 18.924 3.54001 19.2C4.36001 19.61 5.21001 19.97 6.05001 20.32L10.25 22C10.7865 22.2326 11.3377 22.4297 11.9 22.59C12.1876 22.6612 12.4843 22.6881 12.78 22.67C13.3184 22.6203 13.8488 22.5061 14.36 22.33C15.07 22.09 15.77 21.75 16.46 21.46L19.32 20.12C19.98 19.81 20.64 19.51 21.32 19.19C21.76 18.98 22.2 18.76 22.63 18.52C22.9592 18.3593 23.2767 18.1755 23.58 17.97C23.7358 17.8523 23.8681 17.7065 23.97 17.54C24.0008 17.4858 24.0195 17.4255 24.0246 17.3633C24.0298 17.3011 24.0214 17.2386 24 17.18Z" fill="black"/>
</g>
<defs>
<clipPath id="clip0_1048_7213">
<rect width="24" height="24" fill="white"/>
</clipPath>
</defs>
</svg>
