<svg width="24" height="24" viewBox="0 0 24 24" fill="none" xmlns="http://www.w3.org/2000/svg">
<g clip-path="url(#clip0_1048_7201)">
<path fill-rule="evenodd" clip-rule="evenodd" d="M6.65999 4.70002C8.22349 4.59281 9.74672 4.15663 11.13 3.42002C11.1933 3.38993 11.2446 3.33927 11.2754 3.2763C11.3062 3.21333 11.3148 3.14177 11.2997 3.0733C11.2846 3.00483 11.2468 2.94349 11.1923 2.89931C11.1379 2.85512 11.0701 2.8307 11 2.83002C9.41338 2.84006 7.85383 3.24197 6.45999 4.00002C6.41403 4.01315 6.3711 4.03521 6.33366 4.06493C6.29622 4.09465 6.26501 4.13145 6.24179 4.17324C6.21858 4.21503 6.20382 4.26098 6.19836 4.30847C6.19291 4.35596 6.19686 4.40405 6.20999 4.45002C6.22312 4.49598 6.24518 4.53891 6.2749 4.57634C6.30462 4.61378 6.34143 4.645 6.38321 4.66822C6.425 4.69143 6.47095 4.70619 6.51844 4.71164C6.56593 4.7171 6.61403 4.71315 6.65999 4.70002Z" fill="black"/>
<path fill-rule="evenodd" clip-rule="evenodd" d="M3 6.00002C3.07293 5.96554 3.12918 5.9035 3.15638 5.82755C3.18357 5.7516 3.17948 5.66795 3.145 5.59502C3.11052 5.52208 3.04848 5.46583 2.97253 5.43864C2.89658 5.41145 2.81293 5.41554 2.74 5.45002C0.539998 6.09002 1.03 7.25002 2.74 7.77002C3.37041 7.93647 4.01211 8.05678 4.66 8.13002C4.74752 8.15654 4.84199 8.14721 4.92263 8.10407C5.00327 8.06094 5.06348 7.98754 5.09 7.90002C5.11652 7.8125 5.10719 7.71802 5.06405 7.63738C5.02092 7.55674 4.94752 7.49654 4.86 7.47002C4.37 7.26002 2.63 6.47002 2.45 6.41002C2.62053 6.25696 2.80462 6.11973 3 6.00002Z" fill="black"/>
<path fill-rule="evenodd" clip-rule="evenodd" d="M12.61 3.57002C15.1 4.38002 18.45 5.16002 21.97 6.57002C20.87 6.93002 15.31 9.18002 12.97 9.86002C12.9313 9.86987 12.8948 9.88725 12.8628 9.91118C12.8308 9.9351 12.8038 9.9651 12.7834 9.99946C12.7629 10.0338 12.7495 10.0719 12.7437 10.1114C12.738 10.151 12.7401 10.1913 12.75 10.23C12.7598 10.2688 12.7772 10.3052 12.8011 10.3372C12.8251 10.3692 12.8551 10.3962 12.8894 10.4167C12.9238 10.4371 12.9618 10.4505 13.0014 10.4563C13.041 10.462 13.0813 10.4599 13.12 10.45C16.78 9.57002 20.93 8.05002 22.29 7.68002C22.7508 7.56967 23.1947 7.39815 23.61 7.17002C25.51 5.44002 16.87 4.00002 12.81 2.91002C12.7225 2.8835 12.628 2.89283 12.5474 2.93597C12.4667 2.9791 12.4065 3.0525 12.38 3.14002C12.3535 3.22754 12.3628 3.32202 12.4059 3.40266C12.4491 3.4833 12.5225 3.5435 12.61 3.57002Z" fill="black"/>
<path fill-rule="evenodd" clip-rule="evenodd" d="M10.78 14.54C10.864 14.5509 10.9492 14.5309 11.0196 14.4838C11.09 14.4366 11.141 14.3656 11.163 14.2837C11.185 14.2019 11.1765 14.1148 11.1392 14.0387C11.1019 13.9627 11.0382 13.9027 10.96 13.87C9.5 13.46 7.41 12.69 5.49 12.05C4.07 11.57 2 11 1.53 10.74C2.03143 10.4626 2.54902 10.2155 3.08 10C3.15559 9.97348 3.21754 9.91801 3.25224 9.84581C3.28693 9.77361 3.29152 9.69058 3.265 9.615C3.23848 9.53941 3.18302 9.47746 3.11081 9.44276C3.03861 9.40807 2.95559 9.40348 2.88 9.43C2.19452 9.60565 1.5254 9.83984 0.879999 10.13C-2.13 11.67 7.48 13.76 10.78 14.54Z" fill="black"/>
<path fill-rule="evenodd" clip-rule="evenodd" d="M16.24 13.28C16.2019 13.2918 16.1665 13.311 16.1359 13.3365C16.1052 13.362 16.0799 13.3933 16.0613 13.4286C16.0238 13.4998 16.0161 13.5831 16.04 13.66C16.0639 13.7369 16.1173 13.8012 16.1886 13.8387C16.2598 13.8762 16.3431 13.8839 16.42 13.86C17.6 13.58 24.18 12.04 24 10.86C23.84 9.85998 22.69 10.02 20.91 9.43998C20.8263 9.41719 20.7372 9.42626 20.6598 9.46544C20.5825 9.50461 20.5224 9.57111 20.4913 9.65203C20.4602 9.73296 20.4602 9.82255 20.4914 9.90347C20.5225 9.98438 20.5826 10.0508 20.66 10.09C21.27 10.36 21.82 10.71 22.25 10.92C21.68 11.13 20.91 11.4 20.06 11.73C18.87 12.19 17.53 12.79 16.24 13.28Z" fill="black"/>
<path fill-rule="evenodd" clip-rule="evenodd" d="M0.429988 15.91C2.61999 17.09 11.69 19 12.56 18.83L14.72 18.33C14.8088 18.3088 14.8856 18.2531 14.9334 18.1753C14.9813 18.0975 14.9962 18.0038 14.975 17.915C14.9538 17.8262 14.8981 17.7494 14.8203 17.7016C14.7425 17.6537 14.6488 17.6388 14.56 17.66C11.88 18.12 12.87 18.17 10.19 17.52C8.83999 17.2 1.65999 15.36 1.18999 15.23C3.66999 14.3 4.13999 14.55 4.05999 14.07C4.04306 13.9903 3.99639 13.9201 3.92951 13.8737C3.86262 13.8272 3.78054 13.808 3.69999 13.82C2.64061 13.9792 1.59909 14.2404 0.589988 14.6C-0.0600124 14.92 -0.250012 15.53 0.429988 15.91Z" fill="black"/>
<path fill-rule="evenodd" clip-rule="evenodd" d="M23 14.48C22.27 14.24 21 14.07 20 13.82C19.9111 13.7945 19.8159 13.8042 19.734 13.847C19.6521 13.8898 19.5898 13.9625 19.56 14.05C19.4 14.56 20.11 14.53 22.17 15.35C21.17 15.74 20.62 15.99 19.64 16.35C19.5735 16.3807 19.52 16.4339 19.489 16.5003C19.458 16.5667 19.4515 16.6419 19.4707 16.7126C19.4899 16.7833 19.5335 16.8449 19.5937 16.8865C19.654 16.9281 19.7271 16.9471 19.8 16.94C20.9789 16.7634 22.1423 16.496 23.28 16.14C24.41 15.72 24 14.82 23 14.48Z" fill="black"/>
<path fill-rule="evenodd" clip-rule="evenodd" d="M17.93 20.93C16.45 21.3 13.93 21.93 12.39 22.08C12.21 22.08 2.45999 19.83 1.11999 19.38C3.62999 18.44 4.11999 18.72 4.05999 18.22C4.05173 18.1824 4.03609 18.1468 4.01395 18.1154C3.99182 18.0839 3.96364 18.0571 3.93107 18.0367C3.8985 18.0162 3.86217 18.0024 3.82422 17.9961C3.78626 17.9898 3.74743 17.9911 3.70999 18C2.65286 18.1591 1.61434 18.4237 0.609989 18.79C-0.0800113 19.12 -0.240011 19.71 0.409989 20.06C2.40999 21.06 11.56 23.27 12.54 23.06C14.05 22.79 16.64 22.06 18.11 21.6C18.1882 21.5673 18.2518 21.5073 18.2892 21.4312C18.3265 21.3552 18.335 21.2681 18.313 21.1863C18.291 21.1044 18.24 21.0333 18.1696 20.9862C18.0992 20.9391 18.014 20.9191 17.93 20.93Z" fill="black"/>
<path fill-rule="evenodd" clip-rule="evenodd" d="M21 18.64C20.9753 18.7288 20.9866 18.8238 21.0316 18.9044C21.0765 18.9849 21.1514 19.0444 21.24 19.07C21.9097 19.5132 22.6876 19.7656 23.49 19.8C23.5295 19.7951 23.5677 19.7824 23.6022 19.7625C23.6368 19.7427 23.6671 19.7162 23.6913 19.6845C23.7155 19.6529 23.7331 19.6167 23.7432 19.5782C23.7533 19.5396 23.7556 19.4995 23.75 19.46C23.94 18.5 21.2 18 21 18.64Z" fill="black"/>
<path fill-rule="evenodd" clip-rule="evenodd" d="M20.57 19.89C13.57 12.37 15.3 14.64 9.44998 9.16C7.85998 7.72 6.44998 6.06 4.89998 4.56C3.51998 3.21 1.93998 2.06 0.999985 1C0.944422 0.952718 0.873962 0.926546 0.801003 0.926092C0.728045 0.925639 0.657265 0.950932 0.601118 0.997522C0.544971 1.04411 0.507056 1.10901 0.494045 1.1808C0.481033 1.25259 0.49376 1.32667 0.529985 1.39C1.35916 2.30996 2.24061 3.1814 3.16999 4C5.04998 5.79 6.75998 8.1 8.67999 10C12.01 13.16 13.41 14.2 16.26 16.81C20.76 21.25 19.26 19.86 22.76 23.02C22.8274 23.0706 22.9108 23.0951 22.9948 23.0891C23.0788 23.0832 23.1579 23.0471 23.2175 22.9875C23.277 22.9279 23.3131 22.8489 23.3191 22.7648C23.3251 22.6808 23.3005 22.5974 23.25 22.53L20.57 19.89Z" fill="black"/>
</g>
<defs>
<clipPath id="clip0_1048_7201">
<rect width="24" height="24" fill="white"/>
</clipPath>
</defs>
</svg>
