<svg width="24" height="24" viewBox="0 0 24 24" fill="none" xmlns="http://www.w3.org/2000/svg">
<g clip-path="url(#clip0_1034_4346)">
<path fill-rule="evenodd" clip-rule="evenodd" d="M23.28 9.18002C23.16 8.00002 22 7.69002 20.79 7.70002C17.11 7.70002 16.22 8.70002 14.68 8.63002C14.75 8.49002 14.68 8.18002 14.68 7.97002C14.78 6.59002 13.61 5.83002 12.27 5.48002C10.6241 5.15623 8.94616 5.02534 7.27 5.09002C5.88055 5.18345 4.50003 5.38067 3.14 5.68002C3.23707 5.31765 3.29078 4.94505 3.3 4.57002C3.63549 4.61917 3.97743 4.60064 4.30565 4.51554C4.63387 4.43044 4.94173 4.28048 5.21108 4.07451C5.48043 3.86854 5.70581 3.61073 5.87393 3.31627C6.04206 3.02181 6.14953 2.69667 6.19 2.36002C6.1934 2.27623 6.1666 2.19399 6.11448 2.12829C6.06236 2.06259 5.98838 2.01779 5.90601 2.00205C5.82364 1.9863 5.73835 2.00065 5.66567 2.04249C5.59299 2.08433 5.53775 2.15088 5.51 2.23002C4.9 4.55002 1.87 3.40002 2.22 2.23002C2.3866 1.85569 2.6423 1.52783 2.96478 1.27508C3.28726 1.02233 3.66671 0.852359 4.07 0.78002C5.02 0.68002 5.07 1.46002 5.46 1.12002C5.51561 1.06226 5.54667 0.985198 5.54667 0.90502C5.54667 0.824841 5.51561 0.747781 5.46 0.69002C4.31 -0.83998 1.37 0.42002 1.06 2.12002C1.01906 2.62013 1.15189 3.11905 1.43609 3.5326C1.72028 3.94614 2.13844 4.24898 2.62 4.39002C2.42976 5.20431 2.31593 6.03458 2.28 6.87002C2.08 8.24002 1.92 8.25002 1.46 12.34C0.999999 16.05 0.629999 23.81 0.639999 23.91C0.649999 24.01 1.21 24.18 1.27 23.74C2.72 13 2.55 12.53 2.86 9.13002C2.96 7.98002 3.11 7.58002 3.13 6.33002C5.63 5.62002 11.67 5.44002 13.44 7.01002C14.14 7.64002 13.44 8.55002 13.8 9.18002C14.37 10.1 16.72 9.30002 17.8 9.07002C18.7872 8.87229 19.7937 8.78841 20.8 8.82002C21.26 8.82002 22.11 8.82002 22.15 9.29002C22.34 11.19 22.15 16.83 22.01 18.76C22.01 18.96 21.94 19.15 21.93 19.26C21.4145 19.4547 20.8867 19.615 20.35 19.74C18.138 20.6105 15.8521 21.2799 13.52 21.74C12.5801 21.8645 11.6246 21.7006 10.78 21.27C9.98 20.77 10.56 20.27 10.55 19.54C10.54 18.81 10.01 18.47 9.35 18.26C7.30554 17.7454 5.19498 17.5431 3.09 17.66C2.99983 17.66 2.91335 17.6958 2.84958 17.7596C2.78582 17.8234 2.75 17.9098 2.75 18C2.75 18.59 3.45 18.21 6.04 18.45C7.069 18.5568 8.08853 18.7406 9.09 19C9.29264 19.0596 9.48018 19.1619 9.64 19.3C9.66425 19.3247 9.68232 19.3548 9.69274 19.3878C9.70317 19.4209 9.70565 19.4559 9.7 19.49C9.7 20.21 9.04 20.97 10.07 21.82C11.1119 22.505 12.3613 22.8024 13.6 22.66C16.0225 22.2618 18.4028 21.6391 20.71 20.8C21.33 20.58 22.35 20.55 22.93 19.91C23.51 19.27 23.41 10.45 23.28 9.18002Z" fill="black"/>
<path fill-rule="evenodd" clip-rule="evenodd" d="M10 10.8C10.0015 10.7478 9.99088 10.6959 9.96904 10.6484C9.9472 10.6009 9.9147 10.5591 9.87407 10.5262C9.83344 10.4933 9.78577 10.4702 9.73477 10.4587C9.68377 10.4473 9.63081 10.4477 9.58001 10.46C8.73787 10.7536 7.93515 11.15 7.19001 11.64C6.81001 11.86 6.27001 12.08 6.19001 12.64C6.02001 13.33 6.65001 13.64 7.00001 13.98C7.69239 14.6296 8.46539 15.1875 9.30001 15.64C9.38488 15.6811 9.4826 15.6868 9.57168 15.6559C9.66076 15.625 9.7339 15.5599 9.77501 15.475C9.81611 15.3901 9.82182 15.2924 9.79088 15.2033C9.75994 15.1143 9.69487 15.0411 9.61001 15C8.76188 14.3464 7.9783 13.613 7.27001 12.81C9.56001 11.3 9.94001 11.15 10 10.8Z" fill="black"/>
<path fill-rule="evenodd" clip-rule="evenodd" d="M16.76 17.42C17.8479 16.791 18.8553 16.0321 19.76 15.16C19.8359 15.0615 19.8913 14.9488 19.9228 14.8286C19.9544 14.7083 19.9616 14.5829 19.9438 14.4599C19.9261 14.3368 19.8839 14.2185 19.8197 14.1121C19.7555 14.0056 19.6706 13.9131 19.57 13.84C19.39 13.69 17.48 12.62 17.31 12.54C17.14 12.46 16.4 12.1 16.19 12.31C15.7 12.79 16.72 13.22 18.79 14.61C18.0786 15.41 17.2953 16.1431 16.45 16.8C16.3805 16.8479 16.3307 16.9193 16.3096 17.001C16.2886 17.0827 16.2978 17.1693 16.3355 17.2447C16.3733 17.3202 16.437 17.3795 16.515 17.4117C16.593 17.4439 16.68 17.4469 16.76 17.42Z" fill="black"/>
<path fill-rule="evenodd" clip-rule="evenodd" d="M11.16 17.24C11.83 16.37 12.5 15.6 13.09 14.74C14.04 13.38 14.24 12.36 15.09 11.23C15.143 11.1704 15.1702 11.0921 15.1655 11.0124C15.1608 10.9327 15.1247 10.8581 15.065 10.805C15.0053 10.752 14.927 10.7248 14.8473 10.7295C14.7676 10.7342 14.693 10.7704 14.64 10.83C13.01 12.32 11.72 14.88 10.64 16.83C10.6158 16.8989 10.6138 16.9736 10.6342 17.0436C10.6545 17.1137 10.6963 17.1756 10.7536 17.2208C10.8108 17.266 10.8808 17.2921 10.9537 17.2955C11.0266 17.299 11.0987 17.2796 11.16 17.24Z" fill="black"/>
</g>
<defs>
<clipPath id="clip0_1034_4346">
<rect width="24" height="24" fill="white"/>
</clipPath>
</defs>
</svg>
