<svg width="24" height="24" viewBox="0 0 24 24" fill="none" xmlns="http://www.w3.org/2000/svg">
<g clip-path="url(#clip0_1033_3809)">
<path fill-rule="evenodd" clip-rule="evenodd" d="M8.34002 8.54C6.72592 10.7452 4.9582 12.8337 3.05002 14.79C2.20073 15.7085 1.29212 16.5704 0.330019 17.37C0.257085 17.4244 0.208736 17.5055 0.195608 17.5955C0.182481 17.6855 0.20565 17.7771 0.260019 17.85C0.314389 17.9229 0.395505 17.9713 0.485522 17.9844C0.575539 17.9975 0.667085 17.9744 0.74002 17.92C1.64433 17.2613 2.50915 16.5501 3.33002 15.79C3.20002 17.97 2.61002 21.37 3.72002 23.08C4.56002 24.37 15.54 24.34 16.4 22.78C16.75 22.14 16.63 21.78 16.4 16.27C17.0056 16.7992 17.6435 17.2901 18.31 17.74C18.352 17.7695 18.3995 17.7905 18.4496 17.8017C18.4997 17.813 18.5516 17.8142 18.6022 17.8054C18.6528 17.7966 18.7012 17.7779 18.7446 17.7503C18.7879 17.7228 18.8255 17.687 18.855 17.645C18.8846 17.603 18.9055 17.5555 18.9168 17.5054C18.928 17.4553 18.9292 17.4034 18.9204 17.3528C18.9116 17.3022 18.8929 17.2538 18.8654 17.2105C18.8378 17.1671 18.802 17.1295 18.76 17.1C13.3 13.13 10.78 6 8.34002 8.54ZM7.82002 22.66C7.53644 21.3072 7.71607 19.8984 8.33002 18.66C8.44484 18.4439 8.60858 18.2577 8.80818 18.1161C9.00777 17.9745 9.23769 17.8816 9.47959 17.8447C9.72149 17.8078 9.96866 17.8279 10.2014 17.9035C10.4341 17.9791 10.646 18.108 10.82 18.28C11.5 19.01 11.82 21.33 11.91 22.28C11.9127 22.3349 11.9275 22.3885 11.9534 22.4369C11.9794 22.4854 12.0158 22.5274 12.06 22.56C10.66 22.68 9.26002 22.7 7.82002 22.66ZM14.71 22.37C13.9987 22.4903 13.2807 22.5671 12.56 22.6C12.6006 22.5612 12.6331 22.5147 12.6554 22.4632C12.6777 22.4116 12.6895 22.3562 12.69 22.3C12.69 20.87 12.63 18.59 11.75 17.48C10.06 15.48 5.58002 16.37 7.13002 22.63C6.5547 22.6189 5.98046 22.5755 5.41002 22.5C5.04002 22.5 4.71002 22.22 4.61002 22.33C3.61002 20.85 4.11002 17.06 4.04002 15.33C4.04002 14.94 3.22002 16.06 7.76002 11.4L9.41002 9.3C9.62002 9.53 9.32002 8.77 11.53 11.3C12.96 12.88 14.04 14.15 15.53 15.55V20.47C15.55 22.59 15.59 22.2 14.71 22.37Z" fill="black"/>
<path fill-rule="evenodd" clip-rule="evenodd" d="M5.16004 6.76997C5.62172 6.77341 6.08269 6.80682 6.54004 6.86997C6.62004 7.29997 6.72004 7.70997 6.79004 8.13997C6.80504 8.23394 6.85305 8.31949 6.92544 8.38124C6.99784 8.443 7.08988 8.47693 7.18504 8.47693C7.2802 8.47693 7.37224 8.443 7.44464 8.38124C7.51703 8.31949 7.56504 8.23394 7.58004 8.13997C7.65004 7.70997 7.72004 7.28997 7.75004 6.83997C8.25004 6.83997 8.75004 6.72997 9.21004 6.65997C9.31347 6.65997 9.41267 6.61888 9.48581 6.54574C9.55895 6.47261 9.60004 6.37341 9.60004 6.26997C9.60004 6.16654 9.55895 6.06734 9.48581 5.9942C9.41267 5.92106 9.31347 5.87997 9.21004 5.87997C8.60004 5.76997 8.34004 5.66997 7.68004 5.59997C7.56138 5.13239 7.40761 4.67442 7.22004 4.22997C7.21282 4.18532 7.19687 4.14253 7.17311 4.10405C7.14935 4.06556 7.11824 4.03213 7.08156 4.00567C7.00749 3.95222 6.91521 3.93039 6.82504 3.94497C6.73486 3.95956 6.65418 4.00937 6.60073 4.08345C6.54728 4.15752 6.52545 4.2498 6.54004 4.33997C6.54004 4.77997 6.44004 5.18997 6.42004 5.63997C5.92854 5.73523 5.45131 5.89319 5.00004 6.10997C4.95473 6.11854 4.91164 6.13623 4.87339 6.16197C4.83514 6.18771 4.80252 6.22097 4.77752 6.25971C4.75252 6.29845 4.73566 6.34187 4.72797 6.38733C4.72028 6.4328 4.72191 6.47935 4.73278 6.52416C4.74364 6.56897 4.7635 6.6111 4.79116 6.64799C4.81882 6.68489 4.85369 6.71577 4.89365 6.73876C4.93362 6.76175 4.97784 6.77638 5.02364 6.78174C5.06943 6.78711 5.11584 6.7831 5.16004 6.76997Z" fill="black"/>
<path fill-rule="evenodd" clip-rule="evenodd" d="M9.41003 2.82999C9.87132 2.83509 10.332 2.86513 10.79 2.91999C10.87 3.34999 10.97 3.76999 11.05 4.19999C11.05 4.30343 11.0911 4.40263 11.1643 4.47577C11.2374 4.54891 11.3366 4.58999 11.44 4.58999C11.5435 4.58999 11.6427 4.54891 11.7158 4.47577C11.7889 4.40263 11.83 4.30343 11.83 4.19999C11.9 3.75999 11.97 3.33999 12.01 2.89999C12.51 2.89999 13.01 2.77999 13.47 2.70999C13.5735 2.70999 13.6727 2.66891 13.7458 2.59577C13.8189 2.52263 13.86 2.42343 13.86 2.31999C13.86 2.21656 13.8189 2.11736 13.7458 2.04422C13.6727 1.97108 13.5735 1.92999 13.47 1.92999C12.88 1.82999 12.59 1.72999 11.94 1.65999C11.8261 1.19225 11.6757 0.73417 11.49 0.289995C11.4835 0.245345 11.4682 0.202426 11.445 0.163688C11.4219 0.12495 11.3913 0.091152 11.3551 0.0642231C11.3189 0.0372941 11.2777 0.0177618 11.234 0.00674149C11.1902 -0.00427883 11.1447 -0.00657139 11.1 -5.29503e-06C11.0554 0.0065608 11.0125 0.021857 10.9737 0.0450098C10.935 0.0681627 10.9012 0.0987189 10.8743 0.134934C10.8473 0.171149 10.8278 0.212313 10.8168 0.256076C10.8058 0.29984 10.8035 0.345345 10.81 0.389995C10.81 0.829995 10.72 1.24999 10.7 1.68999C10.1958 1.78583 9.70545 1.94369 9.24003 2.15999C9.16358 2.19295 9.10137 2.25207 9.06459 2.32676C9.0278 2.40144 9.01884 2.48679 9.03931 2.56749C9.05979 2.64819 9.10836 2.71894 9.1763 2.76705C9.24425 2.81516 9.32712 2.83748 9.41003 2.82999Z" fill="black"/>
<path fill-rule="evenodd" clip-rule="evenodd" d="M23.15 2.60997C22.8758 2.0453 22.4704 1.55452 21.9676 1.17872C21.4648 0.802923 20.8792 0.553034 20.26 0.449971C20.1566 0.43671 20.0521 0.465082 19.9696 0.528844C19.8871 0.592606 19.8333 0.686537 19.82 0.789971C19.8068 0.893405 19.8351 0.997871 19.8989 1.08039C19.9627 1.1629 20.0566 1.21671 20.16 1.22997C20.6348 1.32923 21.0784 1.54211 21.4529 1.85038C21.8273 2.15865 22.1214 2.55312 22.31 2.99997C22.7276 3.80896 22.8567 4.73618 22.6761 5.62848C22.4954 6.52077 22.0157 7.32473 21.3164 7.90756C20.617 8.49038 19.7397 8.81719 18.8294 8.83399C17.9192 8.85079 17.0305 8.55659 16.31 7.99997C15.7107 7.66912 15.2654 7.11606 15.07 6.45997C15.7579 6.61655 16.4731 6.60773 17.1568 6.43424C17.8406 6.26076 18.4735 5.92754 19.0035 5.46197C19.5334 4.9964 19.9454 4.41175 20.2056 3.75604C20.4658 3.10033 20.5667 2.39226 20.5 1.68997C20.4861 1.60855 20.4439 1.53467 20.3807 1.4814C20.3176 1.42814 20.2376 1.39892 20.155 1.39892C20.0724 1.39892 19.9925 1.42814 19.9293 1.4814C19.8662 1.53467 19.8239 1.60855 19.81 1.68997C19.81 4.60997 17.41 6.16997 14.71 5.18997C14.36 5.06997 13.9 5.18997 13.85 5.85997C13.8915 6.51572 14.0262 7.16221 14.25 7.77997C14.9619 8.82303 16.0277 9.57267 17.25 9.88997C18.2165 10.215 19.2591 10.2367 20.2383 9.95233C21.2174 9.66795 22.0862 9.09102 22.7282 8.29889C23.3702 7.50676 23.7546 6.53731 23.83 5.52049C23.9054 4.50368 23.6682 3.48812 23.15 2.60997Z" fill="black"/>
</g>
<defs>
<clipPath id="clip0_1033_3809">
<rect width="24" height="24" fill="white"/>
</clipPath>
</defs>
</svg>
