<svg width="24" height="24" viewBox="0 0 24 24" fill="none" xmlns="http://www.w3.org/2000/svg">
<path d="M22.09 2.00004C20.4417 1.87597 18.8015 2.32843 17.45 3.28004C17.3869 3.31244 17.3379 3.36683 17.3122 3.43292C17.2865 3.49901 17.2859 3.57223 17.3105 3.63873C17.3352 3.70523 17.3833 3.7604 17.4459 3.79381C17.5084 3.82722 17.581 3.83655 17.65 3.82004C18.6341 3.65196 19.6036 3.4079 20.55 3.09004C21.0616 2.90446 21.5864 2.75738 22.12 2.65004C22.1962 2.63347 22.264 2.59047 22.3115 2.52867C22.359 2.46686 22.3831 2.39024 22.3795 2.31238C22.3759 2.23451 22.3448 2.16043 22.2919 2.10327C22.2389 2.0461 22.1674 2.00953 22.09 2.00004Z" fill="black"/>
<path d="M20.21 9.61004C18.28 8.67004 18.71 8.61004 16.47 8.29004C16.3987 8.27188 16.3232 8.28149 16.2587 8.31692C16.1943 8.35235 16.1457 8.41095 16.1228 8.48087C16.0999 8.55078 16.1044 8.62677 16.1355 8.69346C16.1665 8.76015 16.2218 8.81255 16.29 8.84004C17.3994 9.59015 18.6708 10.0665 20 10.23C20.0786 10.2459 20.1604 10.2325 20.2299 10.1924C20.2994 10.1524 20.3519 10.0884 20.3776 10.0124C20.4034 9.93641 20.4006 9.85365 20.3697 9.7796C20.3388 9.70555 20.2821 9.64527 20.21 9.61004Z" fill="black"/>
<path d="M14.28 12.87C14.2349 12.8077 14.1669 12.7659 14.091 12.7537C14.015 12.7415 13.9373 12.76 13.875 12.805C13.8127 12.8501 13.7708 12.9181 13.7586 12.9941C13.7464 13.07 13.7649 13.1477 13.81 13.21C14.5704 14.7903 15.6617 16.1886 17.01 17.31C17.0644 17.3763 17.1428 17.4183 17.2282 17.4268C17.3135 17.4352 17.3987 17.4094 17.465 17.355C17.5313 17.3007 17.5733 17.2222 17.5817 17.1369C17.5902 17.0515 17.5644 16.9663 17.51 16.9C16.6704 15.3827 15.5781 14.0198 14.28 12.87Z" fill="black"/>
<path d="M6.34998 6.07002C6.39068 6.08222 6.43341 6.0862 6.47567 6.08171C6.51793 6.07723 6.55887 6.06437 6.59611 6.04389C6.63335 6.02341 6.66613 5.99572 6.69255 5.96243C6.71897 5.92915 6.73849 5.89093 6.74998 5.85002C6.87998 5.40002 6.34998 5.50002 5.47998 4.96002C5.06998 4.70002 4.47998 4.22002 4.77998 3.72002C5.20998 2.90002 7.16998 3.67002 7.99998 4.00002C7.70998 4.61002 7.42998 5.22002 7.16998 5.83002C6.46998 7.48002 5.40998 8.67002 6.57998 10.41C7.15133 11.1361 7.79092 11.8059 8.48998 12.41C9.20998 13.11 10.21 14.83 11.69 13.96C12.69 13.39 13.03 11.77 13.38 10.85C14.26 8.48002 15.19 6.39002 15.94 3.85002C16.33 2.49002 17.94 -0.449984 14.52 0.100016C13.32 0.300016 12.23 0.670016 11.07 0.910016C10.9954 0.936854 10.933 0.989635 10.8941 1.05871C10.8553 1.12779 10.8425 1.20854 10.8583 1.28621C10.8741 1.36388 10.9173 1.43328 10.98 1.48172C11.0428 1.53016 11.1208 1.5544 11.2 1.55002C13 1.21002 15.31 0.440016 15.84 0.940016C16.11 1.20002 15.13 3.45002 15.09 3.55002C14.37 5.79002 13.26 8.25002 12.39 10.47C11.94 11.63 11.52 13.63 10.54 12.97C10.0727 12.5716 9.64111 12.1333 9.24998 11.66C8.57116 11.1202 7.94805 10.5139 7.38998 9.85002C6.46998 8.61002 7.38998 7.64002 7.90998 6.11002C8.48765 4.52676 9.20376 2.99751 10.05 1.54002C10.0766 1.47715 10.0803 1.40689 10.0602 1.34162C10.0401 1.27634 9.99768 1.22024 9.94032 1.1832C9.88296 1.14615 9.81436 1.13053 9.74662 1.1391C9.67887 1.14766 9.61632 1.17986 9.56998 1.23002C9.11315 1.9382 8.6926 2.66914 8.30998 3.42002C7.80277 3.10173 7.2711 2.82419 6.71998 2.59002C5.56998 2.13002 4.30998 2.15002 3.80998 3.24002C3.12998 4.70002 4.62998 5.70002 6.34998 6.07002Z" fill="black"/>
<path d="M12.19 22.36C11.5 21.97 7.94999 20.42 7.83999 20.36C8.22485 18.2272 8.19089 16.0398 7.73999 13.92C7.73999 13.8431 7.70944 13.7693 7.65505 13.7149C7.60067 13.6606 7.5269 13.63 7.44999 13.63C7.37308 13.63 7.29931 13.6606 7.24493 13.7149C7.19054 13.7693 7.15999 13.8431 7.15999 13.92C6.95579 16.0251 6.95579 18.1449 7.15999 20.25C6.34999 20.39 5.65999 21.25 5.15999 21.58C4.11911 22.3372 2.97824 22.9463 1.76999 23.39C1.70757 23.4195 1.6577 23.4702 1.62934 23.5331C1.60098 23.596 1.59599 23.667 1.61527 23.7333C1.63455 23.7996 1.67683 23.8568 1.73452 23.8947C1.79221 23.9326 1.86151 23.9486 1.92999 23.94C3.24815 23.6017 4.5158 23.0906 5.69999 22.42C6.20227 22.0083 6.74118 21.6434 7.30999 21.33C10.26 22.51 11.61 22.69 12.93 23.62C13.0003 23.6555 13.0809 23.6647 13.1574 23.6459C13.2338 23.6272 13.3011 23.5817 13.3469 23.5177C13.3928 23.4537 13.4143 23.3755 13.4075 23.297C13.4008 23.2186 13.3662 23.1452 13.31 23.09C12.9529 22.8226 12.5788 22.5787 12.19 22.36Z" fill="black"/>
</svg>
