<svg width="24" height="24" viewBox="0 0 24 24" fill="none" xmlns="http://www.w3.org/2000/svg">
<g clip-path="url(#clip0_1033_3803)">
<path d="M23.57 8.34997C23.44 6.77997 23.75 4.83997 21.79 4.34997C18.99 3.57997 6.39 3.79997 3.71 4.49997C3.62744 4.52329 3.55721 4.57784 3.51419 4.65207C3.47117 4.72629 3.45875 4.81435 3.47956 4.89758C3.50036 4.98081 3.55276 5.05266 3.62565 5.09791C3.69854 5.14316 3.78618 5.15825 3.87 5.13997C6.45 4.50997 18.87 4.47997 21.53 5.25997C22.77 5.62997 22.46 7.04997 22.53 8.47997C22.72 11.37 23.41 15.39 22.08 17.95C21.51 19.05 19.59 18.68 18.4 18.78C14.0225 19.1862 9.62292 19.3031 5.23 19.13C3.65 19.06 1.82 18.97 1.03 17.58C0.600001 16.69 0.840001 15.27 0.850001 14.26C0.900001 11.26 1.07 8.51997 1.23 5.70997C1.23 5.63306 1.19945 5.55929 1.14506 5.50491C1.09068 5.45052 1.01691 5.41997 0.940001 5.41997C0.863088 5.41997 0.789325 5.45052 0.73494 5.50491C0.680554 5.55929 0.650001 5.63306 0.650001 5.70997C0.590001 6.47997 -0.0599992 15.94 8.10716e-07 16.76C0.0515966 17.3483 0.266037 17.9107 0.619287 18.3841C0.972537 18.8574 1.45064 19.2231 2 19.44C4.66 20.58 14.69 20.15 18.48 19.83C19.92 19.7 22.13 20.16 23.04 18.4C24.59 15.49 23.81 11.43 23.57 8.34997Z" fill="black"/>
<path d="M3.64998 15.24C3.84998 13.99 3.90998 13.82 4.09998 12.43C4.41998 12.43 4.71998 12.51 5.03998 12.53C5.64775 12.5205 6.25347 12.4569 6.84998 12.34H6.97998C6.87481 13.4375 6.91854 14.5442 7.10998 15.63C7.13681 15.7046 7.18959 15.767 7.25867 15.8059C7.32774 15.8447 7.4085 15.8574 7.48617 15.8417C7.56384 15.8259 7.63324 15.7827 7.68168 15.7199C7.73012 15.6572 7.75436 15.5791 7.74998 15.5C7.61998 14.36 8.08998 13.44 8.12998 11.08V8.62C8.13111 8.54928 8.10636 8.48059 8.06038 8.42684C8.0144 8.3731 7.95036 8.33801 7.88032 8.32818C7.81028 8.31835 7.73906 8.33445 7.68006 8.37346C7.62106 8.41247 7.57836 8.4717 7.55998 8.54C6.74998 11.95 7.20998 11.73 6.89998 11.71C6.47008 11.5263 6.00588 11.4366 5.53849 11.447C5.0711 11.4573 4.61132 11.5674 4.18998 11.77C4.31998 10.43 4.26998 9.77 4.29998 8.42C4.30926 8.34309 4.28761 8.26564 4.23979 8.20469C4.19196 8.14374 4.12189 8.10428 4.04498 8.095C3.96806 8.08572 3.89061 8.10737 3.82966 8.15519C3.76871 8.20301 3.72926 8.27309 3.71998 8.35C3.11224 10.5762 2.86909 12.8861 2.99998 15.19C3.00625 15.2683 3.04028 15.3419 3.09594 15.3974C3.1516 15.4529 3.22525 15.4867 3.30361 15.4927C3.38198 15.4987 3.45993 15.4766 3.52342 15.4303C3.58692 15.3839 3.6318 15.3165 3.64998 15.24Z" fill="black"/>
<path d="M11.43 15.0699C11.3797 15.1304 11.3527 15.2068 11.3537 15.2853C11.3547 15.3639 11.3838 15.4396 11.4356 15.4987C11.4875 15.5577 11.5587 15.5964 11.6365 15.6076C11.7143 15.6188 11.7935 15.6019 11.86 15.5599C13.07 14.5599 14.61 13.2699 14.76 11.7099C14.7957 10.9574 14.599 10.212 14.1964 9.5751C13.7939 8.9382 13.2051 8.44062 12.51 8.14995C12.1062 7.95973 11.6539 7.898 11.2139 7.97311C10.774 8.04822 10.3677 8.25655 10.05 8.56995C9.67997 9.04995 10.05 8.89995 10.26 15.5699C10.2521 15.6118 10.2535 15.655 10.2642 15.6962C10.2749 15.7375 10.2945 15.7759 10.3218 15.8087C10.349 15.8415 10.3831 15.8679 10.4217 15.886C10.4602 15.9042 10.5023 15.9136 10.545 15.9136C10.5876 15.9136 10.6297 15.9042 10.6683 15.886C10.7069 15.8679 10.741 15.8415 10.7682 15.8087C10.7954 15.7759 10.815 15.7375 10.8257 15.6962C10.8364 15.655 10.8379 15.6118 10.83 15.5699C11 11.5699 10.98 12.8699 10.97 9.64995C10.97 9.52995 10.78 9.05995 10.97 9.08995C11.16 9.11995 10.97 9.08995 10.97 9.16995C11.2 8.93995 11.84 9.00995 12.16 9.16995C12.6455 9.38207 13.0621 9.72581 13.3625 10.1623C13.6629 10.5988 13.8352 11.1106 13.86 11.6399C13.78 12.8699 12.34 14.2199 11.43 15.0699Z" fill="black"/>
<path d="M20 8.80996C19 7.10996 17 7.90996 16.29 9.49996C15.51 11.33 16.08 13.41 16.5 15.33C16.5146 15.4055 16.5586 15.4722 16.6223 15.5154C16.6861 15.5585 16.7644 15.5745 16.84 15.56C16.9156 15.5454 16.9823 15.5014 17.0254 15.4376C17.0685 15.3738 17.0846 15.2955 17.07 15.22C16.76 13.57 16.44 11.38 17.2 9.92996C17.58 9.17996 18.57 8.52996 19.05 9.35996C20.13 11.18 17.21 11.75 17.11 11.85C17.0627 11.8947 17.0257 11.9492 17.0016 12.0096C16.9774 12.07 16.9666 12.135 16.97 12.2C16.97 12.53 17.08 12.51 18.25 13.2C18.9427 13.8319 19.5847 14.5173 20.17 15.25C20.2292 15.3026 20.3054 15.3321 20.3846 15.3332C20.4638 15.3343 20.5407 15.3069 20.6014 15.2559C20.662 15.205 20.7023 15.1339 20.7149 15.0557C20.7275 14.9775 20.7116 14.8974 20.67 14.83C20.0739 13.9058 19.3386 13.0794 18.49 12.38C20.41 11.65 20.77 10.09 20 8.80996Z" fill="black"/>
</g>
<defs>
<clipPath id="clip0_1033_3803">
<rect width="24" height="24" fill="white"/>
</clipPath>
</defs>
</svg>
