<svg width="24" height="24" viewBox="0 0 24 24" fill="none" xmlns="http://www.w3.org/2000/svg">
<g clip-path="url(#clip0_1030_2262)">
<path d="M20.43 10.27C20.3882 10.2277 20.3383 10.1941 20.2834 10.1711C20.2285 10.1482 20.1695 10.1364 20.11 10.1364C20.0505 10.1364 19.9916 10.1482 19.9366 10.1711C19.8817 10.1941 19.8319 10.2277 19.79 10.27C19.4589 10.58 19.1514 10.9143 18.87 11.27C18.44 11.79 18.05 12.35 17.65 12.86C16.81 13.96 15.97 15.05 15.09 16.12C14.51 16.83 13.91 17.53 13.29 18.21C12.84 18.72 12.29 19.44 11.64 20.07C11.2881 20.464 10.8922 20.8163 10.46 21.12C9.97983 21.3331 9.46034 21.4432 8.93501 21.4432C8.40968 21.4432 7.89019 21.3331 7.41001 21.12C6.36362 20.782 5.43441 20.1544 4.73001 19.31C4.48638 18.9836 4.32319 18.6042 4.25368 18.2029C4.18418 17.8015 4.21033 17.3894 4.33001 17C4.7769 15.7181 5.38512 14.4983 6.14001 13.37C6.40001 12.91 6.66001 12.46 6.94001 12.01C7.22001 11.56 7.49001 11.12 7.79001 10.69L9.23001 8.69001C9.97001 7.69001 10.72 6.69001 11.56 5.69001C12.0998 5.06584 12.7031 4.49947 13.36 4.00001C13.64 3.79001 13.92 3.55001 14.21 3.36001C14.3737 3.24654 14.552 3.15572 14.74 3.09001C15.2988 2.93023 15.8912 2.93023 16.45 3.09001C17.0381 3.25083 17.5956 3.50762 18.1 3.85001C18.3513 4.0187 18.5477 4.25725 18.665 4.53625C18.7822 4.81524 18.8153 5.12246 18.76 5.42001C18.5587 6.47996 18.0906 7.47114 17.4 8.30001L16.6 9.30001L15.6 10.64L14.25 12.45L12.6 14.67C12.2777 15.106 11.927 15.5203 11.55 15.91C11.1814 16.2953 10.7646 16.6314 10.31 16.91C10.0431 17.048 9.74981 17.1275 9.44973 17.143C9.14966 17.1585 8.84972 17.1098 8.57001 17C8.30584 16.9372 8.07208 16.7837 7.90944 16.5662C7.74681 16.3488 7.66562 16.0812 7.68001 15.81C7.74688 15.3539 7.91798 14.9193 8.18001 14.54C8.60001 13.85 9.18001 13.19 9.54001 12.67C9.90001 12.15 10.39 11.44 10.85 10.85C11.1509 10.4705 11.4856 10.119 11.85 9.80001C11.9021 9.76665 11.9464 9.72244 11.9799 9.67039C12.0134 9.61833 12.0352 9.55967 12.0439 9.49841C12.0526 9.43714 12.048 9.37472 12.0304 9.3154C12.0128 9.25608 11.9826 9.20126 11.9418 9.15469C11.9011 9.10812 11.8507 9.0709 11.7943 9.04556C11.7378 9.02022 11.6766 9.00736 11.6147 9.00786C11.5528 9.00837 11.4918 9.02222 11.4357 9.04848C11.3797 9.07474 11.33 9.11278 11.29 9.16001C10.9002 9.51839 10.5422 9.90985 10.22 10.33C9.76001 10.93 9.34001 11.58 8.91001 12.18C8.48001 12.78 7.91001 13.4 7.52001 14.12C7.19539 14.6062 6.9867 15.1605 6.91001 15.74C6.87958 16.1054 6.95839 16.4715 7.13644 16.792C7.31448 17.1125 7.58373 17.3728 7.91001 17.54C8.34236 17.7905 8.83041 17.929 9.32986 17.9429C9.82931 17.9569 10.3243 17.8459 10.77 17.62C11.1837 17.3802 11.5694 17.0951 11.92 16.77C12.4283 16.2854 12.8965 15.7603 13.32 15.2L14.9 13L16.29 11.16L17.29 9.86001L18.09 8.86001C18.8898 7.90532 19.4335 6.76281 19.67 5.54001C19.752 5.07522 19.6963 4.5966 19.5097 4.16307C19.3232 3.72954 19.0139 3.36003 18.62 3.10001C18.0302 2.69254 17.3736 2.39134 16.68 2.21001C15.9548 2.00055 15.1852 2.00055 14.46 2.21001C14.1891 2.29799 13.9329 2.42608 13.7 2.59001C13.4 2.79001 13.11 3.04001 12.82 3.26001C12.1175 3.80064 11.4709 4.41036 10.89 5.08001C10.04 6.08001 9.29001 7.14001 8.54001 8.17001L7.11001 10.24C6.81001 10.69 6.52001 11.14 6.24001 11.6C5.96001 12.06 5.71001 12.53 5.45001 13C4.66828 14.1952 4.04317 15.4857 3.59001 16.84C3.44339 17.341 3.4177 17.8696 3.51505 18.3824C3.6124 18.8952 3.83001 19.3776 4.15001 19.79C4.93646 20.7451 5.97623 21.459 7.15001 21.85C7.73716 22.0998 8.37071 22.2218 9.00862 22.208C9.64652 22.1942 10.2742 22.0449 10.85 21.77C11.2097 21.523 11.5446 21.2417 11.85 20.93C12.57 20.23 13.3 19.35 13.85 18.77C14.4 18.19 15.09 17.38 15.69 16.67C16.59 15.6 17.45 14.51 18.31 13.42C18.71 12.91 19.11 12.37 19.53 11.85C19.7958 11.5213 20.0831 11.2107 20.39 10.92C20.4354 10.88 20.4724 10.8314 20.499 10.7771C20.5255 10.7227 20.5411 10.6637 20.5448 10.6033C20.5485 10.5429 20.5403 10.4824 20.5206 10.4252C20.5009 10.368 20.4701 10.3153 20.43 10.27Z" fill="black"/>
<path d="M2.44001 15.37C2.44001 15.56 1.53001 15.18 0.730009 15.6C-0.329991 16.17 -0.119991 14.81 0.640009 14.71C1.65001 14.57 2.53001 14.94 2.44001 15.37Z" fill="black"/>
<path d="M5.31004 8.82C5.38004 8.63 4.57004 8.11 4.10004 7.33C3.47004 6.33 2.96004 7.59 3.57004 8.06C4.37004 8.69 5.17004 9.23 5.31004 8.82Z" fill="black"/>
<path d="M9.75999 3.25C9.55999 3.25 9.62999 2.33 8.94999 1.72C8.05999 0.910003 9.40999 0.650003 9.76999 1.33C10.24 2.23 10.19 3.19 9.75999 3.25Z" fill="black"/>
<path d="M13.44 20.75C13.27 20.87 13.97 21.52 13.89 22.42C13.78 23.62 14.95 22.89 14.75 22.16C14.47 21.17 13.79 20.51 13.44 20.75Z" fill="black"/>
<path d="M18.34 15.55C18.49 15.42 19.28 15.95 20.18 16.09C21.37 16.26 20.39 17.23 19.72 16.86C18.83 16.37 18 15.84 18.34 15.55Z" fill="black"/>
<path d="M21.56 9.05C21.56 9.25 22.46 8.83 23.28 9.23C24.36 9.76 24.1 8.41 23.34 8.33C22.32 8.23 21.46 8.63 21.56 9.05Z" fill="black"/>
</g>
<defs>
<clipPath id="clip0_1030_2262">
<rect width="24" height="24" fill="white"/>
</clipPath>
</defs>
</svg>
