<svg width="24" height="24" viewBox="0 0 24 24" fill="none" xmlns="http://www.w3.org/2000/svg">
<path fill-rule="evenodd" clip-rule="evenodd" d="M12.22 0.110001C12.192 0.0812745 12.1586 0.0584412 12.1217 0.04285C12.0847 0.0272589 12.0451 0.0192261 12.005 0.0192261C11.9649 0.0192261 11.9252 0.0272589 11.8883 0.04285C11.8514 0.0584412 11.8179 0.0812745 11.79 0.110001C11.79 0.110001 11.71 1.3113e-06 11.53 1.9V2.47V3.31C11.53 3.81 11.65 4.26 11.69 4.58C11.73 4.9 11.83 5.21 12.05 5.21C12.1476 5.21567 12.2436 5.1835 12.3181 5.12018C12.3926 5.05685 12.4398 4.96725 12.45 4.87C12.45 4.55 12.61 3.87 12.65 3.16C12.6751 2.78375 12.6751 2.40625 12.65 2.03C12.6099 1.37117 12.4648 0.722982 12.22 0.110001Z" fill="black"/>
<path fill-rule="evenodd" clip-rule="evenodd" d="M12 21.09C11.9613 21.0828 11.9215 21.0832 11.8829 21.0914C11.8444 21.0995 11.8078 21.1152 11.7753 21.1375C11.7428 21.1598 11.715 21.1882 11.6935 21.2213C11.672 21.2543 11.6572 21.2913 11.65 21.33C11.5274 21.633 11.4369 21.9481 11.38 22.27C11.3751 22.3399 11.3751 22.4101 11.38 22.48C11.3698 22.6265 11.3698 22.7735 11.38 22.92C11.4195 23.1408 11.4763 23.3581 11.55 23.57V23.79C11.6 24.01 11.76 24.02 11.91 23.98C12.06 23.94 12.29 24.06 12.43 22.91C12.4452 22.7637 12.4452 22.6163 12.43 22.47C12.4404 22.3636 12.4404 22.2564 12.43 22.15C12.23 21.13 12.14 21.12 12 21.09Z" fill="black"/>
<path fill-rule="evenodd" clip-rule="evenodd" d="M22.61 12.89C22.3107 12.7687 21.9988 12.6815 21.68 12.63C21.607 12.6206 21.533 12.6206 21.46 12.63C21.3137 12.6147 21.1663 12.6147 21.02 12.63C20.8006 12.6716 20.5836 12.725 20.37 12.79L20.15 12.85C19.93 12.9 19.92 13.06 19.96 13.21C19.89 13.54 20.18 13.54 20.38 13.59C20.58 13.64 20.77 13.69 21.04 13.73C21.1831 13.74 21.3268 13.74 21.47 13.73C21.5784 13.7206 21.6856 13.7005 21.79 13.67C22.79 13.44 22.79 13.36 22.85 13.21C22.8563 13.1365 22.8354 13.0632 22.7911 13.0042C22.7468 12.9451 22.6823 12.9045 22.61 12.89Z" fill="black"/>
<path fill-rule="evenodd" clip-rule="evenodd" d="M2.68 13.78H3C4 13.54 4 13.46 4 13.32C4.01481 13.2406 3.99802 13.1585 3.95319 13.0912C3.90835 13.024 3.83903 12.9769 3.76 12.96C3.46012 12.8405 3.14836 12.7534 2.83 12.7H2.61C2.46683 12.6901 2.32316 12.6901 2.18 12.7C1.95702 12.7444 1.73668 12.8012 1.52 12.87L1.31 12.92C1.27053 12.9253 1.23291 12.94 1.20026 12.9628C1.16761 12.9856 1.14087 13.0159 1.12229 13.0511C1.1037 13.0863 1.09379 13.1254 1.0934 13.1653C1.093 13.2051 1.10212 13.2444 1.12 13.28C1.04 13.62 1.34 13.62 1.54 13.66C1.75338 13.7208 1.97051 13.7676 2.19 13.8C2.35355 13.8122 2.51798 13.8055 2.68 13.78Z" fill="black"/>
<path fill-rule="evenodd" clip-rule="evenodd" d="M17.76 7.68999C17.94 7.97999 18.15 7.77999 18.33 7.68999C18.51 7.59999 18.68 7.49999 18.9 7.33999C19.0214 7.24146 19.129 7.12711 19.22 6.99999C19.2952 6.92023 19.3622 6.83312 19.42 6.73999C20 5.86999 19.95 5.79999 19.87 5.67999C19.8252 5.61365 19.7564 5.56724 19.6781 5.55046C19.5998 5.53368 19.5181 5.54785 19.45 5.58999C19.1487 5.71017 18.8605 5.86096 18.59 6.03999L18.42 6.17999C18.3128 6.27665 18.2157 6.38386 18.13 6.49999C17.9994 6.68309 17.8792 6.87339 17.77 7.06999L17.65 7.25999C17.6189 7.29191 17.5965 7.33129 17.585 7.37434C17.5735 7.4174 17.5733 7.46268 17.5843 7.50586C17.5954 7.54903 17.6173 7.58864 17.6481 7.62088C17.6789 7.65313 17.7174 7.67692 17.76 7.68999Z" fill="black"/>
<path fill-rule="evenodd" clip-rule="evenodd" d="M5.86001 18.6C5.5587 18.7202 5.27052 18.871 5.00001 19.05L4.83001 19.19C4.72234 19.2892 4.62207 19.3962 4.53001 19.51C4.37001 19.73 4.27001 19.94 4.18001 20.08L4.06001 20.27C4.03551 20.3019 4.01874 20.339 4.01101 20.3784C4.00329 20.4179 4.00481 20.4586 4.01547 20.4974C4.02613 20.5361 4.04563 20.5719 4.07245 20.6018C4.09926 20.6318 4.13266 20.6551 4.17001 20.67C4.35001 20.96 4.56001 20.76 4.74001 20.67C4.92001 20.58 5.09001 20.48 5.31001 20.32C5.42764 20.2249 5.5349 20.1176 5.63001 20C5.7052 19.9202 5.7722 19.8331 5.83001 19.74C6.41001 18.87 6.35001 18.8 6.27001 18.68C6.24884 18.6472 6.22128 18.6191 6.18897 18.5973C6.15667 18.5754 6.1203 18.5603 6.08202 18.5528C6.04375 18.5454 6.00436 18.5457 5.96621 18.5538C5.92806 18.5619 5.89194 18.5776 5.86001 18.6Z" fill="black"/>
<path fill-rule="evenodd" clip-rule="evenodd" d="M19.08 19.84C19.0419 19.7767 18.9948 19.7195 18.94 19.67C18.8432 19.5599 18.7361 19.4594 18.62 19.37C18.4376 19.2413 18.2473 19.1244 18.05 19.02L17.86 18.9C17.829 18.8754 17.7926 18.8586 17.7538 18.8508C17.715 18.843 17.6749 18.8446 17.6369 18.8553C17.5988 18.8661 17.5638 18.8857 17.5348 18.9126C17.5058 18.9395 17.4836 18.9728 17.47 19.01C17.3 19.11 17.15 19.21 17.84 20.15C17.925 20.2636 18.0186 20.3706 18.12 20.47C18.21 20.55 18.3 20.61 18.38 20.67C19.26 21.24 19.32 21.19 19.45 21.11C19.4839 21.0898 19.5131 21.0628 19.5359 21.0305C19.5586 20.9983 19.5742 20.9616 19.5818 20.9229C19.5893 20.8842 19.5886 20.8443 19.5797 20.8059C19.5708 20.7675 19.5538 20.7314 19.53 20.7C19.4144 20.3966 19.2633 20.1079 19.08 19.84Z" fill="black"/>
<path fill-rule="evenodd" clip-rule="evenodd" d="M6.00002 6.1C5.67617 5.78883 5.30904 5.52612 4.91002 5.32C4.73002 5.2 4.60002 5.32 4.52002 5.44C4.23002 5.61 4.43002 5.83 4.52002 6C4.62441 6.19727 4.74131 6.38766 4.87002 6.57C4.95293 6.69137 5.05031 6.80218 5.16002 6.9C5.23979 6.97519 5.32689 7.04219 5.42002 7.1C6.29002 7.67 6.36002 7.62 6.48002 7.54C6.54636 7.49517 6.59277 7.4264 6.60955 7.34811C6.62633 7.26982 6.61216 7.18808 6.57002 7.12C6.43218 6.75337 6.24004 6.40953 6.00002 6.1Z" fill="black"/>
<path fill-rule="evenodd" clip-rule="evenodd" d="M9.38999 5.15001C9.37378 4.92835 9.34372 4.70791 9.29999 4.49001C9.26831 4.34867 9.22137 4.2112 9.15999 4.08001C9.11876 3.97714 9.06503 3.87974 8.99999 3.79001C8.42999 2.92001 8.34999 2.94001 8.19999 2.96001C8.12914 2.98309 8.06942 3.03171 8.03245 3.09641C7.99548 3.16111 7.98391 3.23725 7.99999 3.31001C7.98213 3.64495 8.00564 3.98082 8.06999 4.31001C8.08536 4.38125 8.1054 4.4514 8.12999 4.52001C8.1797 4.65774 8.23988 4.79146 8.30999 4.92001C8.42553 5.11078 8.55243 5.29445 8.68999 5.47001C8.78999 5.62001 8.91999 5.93001 9.21999 5.71001C9.51999 5.63001 9.41999 5.36001 9.38999 5.15001Z" fill="black"/>
<path fill-rule="evenodd" clip-rule="evenodd" d="M15.93 22.77C15.93 22.6 15.93 22.37 15.84 22.11C15.8039 21.97 15.757 21.8329 15.7 21.7C15.6547 21.5991 15.6012 21.5021 15.54 21.41C14.97 20.53 14.88 20.56 14.74 20.58C14.6623 20.5968 14.5936 20.642 14.5474 20.7067C14.5012 20.7714 14.4807 20.851 14.49 20.93C14.4842 21.2651 14.511 21.6 14.57 21.93C14.5806 22.0023 14.6008 22.0729 14.63 22.14C14.6797 22.2777 14.7399 22.4114 14.81 22.54C14.9255 22.7308 15.0524 22.9144 15.19 23.09C15.29 23.24 15.42 23.55 15.72 23.33C16.06 23.25 16 23 15.93 22.77Z" fill="black"/>
<path fill-rule="evenodd" clip-rule="evenodd" d="M19.52 10C19.4838 10.0187 19.4528 10.0459 19.4295 10.0794C19.4063 10.1128 19.3916 10.1514 19.3867 10.1918C19.3817 10.2322 19.3868 10.2732 19.4013 10.3112C19.4158 10.3492 19.4394 10.3832 19.47 10.41C19.47 10.75 19.79 10.65 19.99 10.62C20.19 10.59 20.39 10.62 20.66 10.52C20.8002 10.489 20.9375 10.4455 21.07 10.39L21.35 10.23C22.22 9.66 22.2 9.57 22.18 9.43C22.1739 9.39036 22.16 9.35233 22.139 9.31816C22.118 9.284 22.0904 9.25439 22.0578 9.23108C22.0251 9.20777 21.9882 9.19125 21.949 9.18247C21.9099 9.1737 21.8694 9.17286 21.83 9.18C21.4947 9.16718 21.159 9.19404 20.83 9.26L20.62 9.32C20.4815 9.36782 20.3476 9.42806 20.22 9.5C20.0262 9.61581 19.8392 9.74268 19.66 9.88L19.52 10Z" fill="black"/>
<path fill-rule="evenodd" clip-rule="evenodd" d="M4.56997 16C4.56393 15.9604 4.55 15.9223 4.52901 15.8882C4.50802 15.854 4.4804 15.8244 4.44777 15.8011C4.41514 15.7778 4.37817 15.7613 4.33904 15.7525C4.29992 15.7437 4.25943 15.7429 4.21997 15.75C3.88465 15.7372 3.54899 15.764 3.21997 15.83C3.14361 15.8424 3.06948 15.866 2.99997 15.9C2.86302 15.9516 2.72943 16.0117 2.59997 16.08C2.36997 16.21 2.19997 16.36 2.04997 16.46L1.86997 16.58C1.83696 16.603 1.81001 16.6337 1.79139 16.6694C1.77278 16.7051 1.76306 16.7448 1.76306 16.785C1.76306 16.8253 1.77278 16.8649 1.79139 16.9006C1.81001 16.9363 1.83696 16.967 1.86997 16.99C1.86997 17.33 2.18997 17.23 2.38997 17.2C2.58997 17.17 2.78997 17.2 3.04997 17.1C3.18947 17.0796 3.32674 17.0461 3.45997 17C3.67997 16.87 4.60997 16.25 4.56997 16Z" fill="black"/>
<path fill-rule="evenodd" clip-rule="evenodd" d="M16.35 3.49001C16.1049 3.70276 15.8866 3.94453 15.7 4.21001C15.6575 4.26979 15.6207 4.3334 15.59 4.40001C15.5207 4.52763 15.4638 4.66157 15.42 4.80001C15.34 5.06001 15.32 5.29001 15.28 5.46001C15.24 5.63001 15.28 5.64001 15.28 5.68001C15.23 5.90001 15.36 5.98001 15.52 6.01001C15.79 6.22001 15.91 6.01001 16.04 5.79001C16.1899 5.62491 16.3301 5.45129 16.46 5.27001C16.5401 5.15089 16.6071 5.02349 16.66 4.89001C16.7069 4.78807 16.7405 4.68052 16.76 4.57001C17 3.57001 16.92 3.51001 16.81 3.43001C16.7785 3.39781 16.74 3.37337 16.6975 3.35863C16.655 3.34388 16.6096 3.33924 16.565 3.34506C16.5204 3.35088 16.4777 3.36701 16.4404 3.39217C16.4031 3.41733 16.3721 3.45083 16.35 3.49001Z" fill="black"/>
<path fill-rule="evenodd" clip-rule="evenodd" d="M8.12 20.38C7.88051 20.5984 7.66282 20.8395 7.47 21.1L7.36 21.29C7.28894 21.4203 7.23195 21.5577 7.19 21.7C7.13099 21.9166 7.08755 22.1372 7.06 22.36V22.58C7.06 22.79 7.15 22.88 7.3 22.9C7.45 22.92 7.6 23.13 8.24 22.17C8.32177 22.0467 8.39207 21.9162 8.45 21.78C8.48917 21.6796 8.51929 21.5758 8.54 21.47C8.78 20.47 8.7 20.41 8.54 20.32C8.47635 20.2723 8.39634 20.2518 8.31757 20.263C8.23881 20.2743 8.16774 20.3164 8.12 20.38Z" fill="black"/>
<path fill-rule="evenodd" clip-rule="evenodd" d="M21 16.94L20.81 16.83C20.6768 16.7681 20.5399 16.7146 20.4 16.67C20.14 16.59 19.91 16.57 19.74 16.53L19.52 16.48C19.31 16.48 19.22 16.57 19.19 16.73C18.98 16.99 19.25 17.12 19.41 17.25C19.57 17.38 19.71 17.52 19.93 17.67C20.0557 17.7446 20.186 17.8114 20.32 17.87L20.63 17.97C21.63 18.2 21.69 18.13 21.78 17.97C21.8277 17.9064 21.8482 17.8264 21.837 17.7476C21.8257 17.6688 21.7836 17.5977 21.72 17.55C21.4998 17.3244 21.2587 17.1202 21 16.94Z" fill="black"/>
<path fill-rule="evenodd" clip-rule="evenodd" d="M2.44998 9C2.6242 9.16391 2.80784 9.31751 2.99998 9.46C3.11779 9.54228 3.24546 9.60947 3.37998 9.66C3.47847 9.70682 3.5827 9.74044 3.68998 9.76C4.68998 9.99 4.75998 9.92 4.83998 9.76C4.88772 9.69635 4.90822 9.61634 4.89696 9.53757C4.88571 9.45881 4.84363 9.38774 4.77998 9.34C4.54198 9.11292 4.28051 8.91178 3.99998 8.74C3.9402 8.69751 3.87659 8.66068 3.80998 8.63C3.40533 8.44409 2.97292 8.32586 2.52998 8.28C2.49212 8.26721 2.45174 8.26368 2.41223 8.26971C2.37272 8.27574 2.33524 8.29116 2.30292 8.31466C2.2706 8.33817 2.24438 8.36908 2.22647 8.40481C2.20856 8.44054 2.19948 8.48004 2.19998 8.52C1.99998 8.79 2.28998 8.92 2.44998 9Z" fill="black"/>
</svg>
