<svg width="24" height="24" viewBox="0 0 24 24" fill="none" xmlns="http://www.w3.org/2000/svg">
<g clip-path="url(#clip0_1052_9197)">
<path fill-rule="evenodd" clip-rule="evenodd" d="M23.72 11.73C23.4528 11.3194 23.1482 10.9345 22.81 10.58C22.664 10.4181 22.4995 10.2738 22.32 10.15C21.96 9.91002 21.51 9.66002 21.32 9.50002C21.0431 9.3174 20.7395 9.17907 20.42 9.09002C19.75 8.87002 18.91 8.69002 18.5 8.57002H18.41C18.067 8.27608 17.6402 8.09764 17.19 8.06002C18.0038 7.9751 18.7667 7.62353 19.36 7.06002C20.2128 6.24959 20.7573 5.1678 20.9 4.00002C21.0016 3.17245 20.8333 2.33418 20.42 1.61002C20.0645 1.09144 19.579 0.675321 19.0122 0.403304C18.4453 0.131286 17.817 0.0129094 17.19 0.0600195C16.5483 0.162704 15.939 0.412561 15.41 0.79002C14.86 1.1424 14.3647 1.57367 13.94 2.07002C13.6369 2.42127 13.3997 2.82441 13.24 3.26002C13.0615 3.74869 12.9923 4.27055 13.0372 4.78886C13.0821 5.30717 13.2401 5.80934 13.5 6.26002C13.7581 6.69617 14.1022 7.07532 14.5113 7.37443C14.9205 7.67354 15.3861 7.88638 15.88 8.00002C16.208 8.07394 16.5438 8.10752 16.88 8.10002C16.365 8.21683 15.9019 8.49754 15.56 8.90002C15.4862 8.87053 15.4038 8.87053 15.33 8.90002C14.6115 9.04133 13.9304 9.33082 13.33 9.75002C12.7199 10.1409 12.165 10.6117 11.68 11.15L11.24 11.79L11.15 11.62C10.84 11.12 10.56 10.62 10.23 10.12C10.0926 9.89489 9.94236 9.67787 9.78001 9.47002C9.75599 9.43344 9.72473 9.40217 9.68815 9.37815C9.65157 9.35413 9.61045 9.33787 9.56734 9.33038C9.52423 9.32288 9.48003 9.3243 9.43749 9.33456C9.39495 9.34482 9.35497 9.3637 9.32001 9.39002C9.2465 9.4408 9.1952 9.51776 9.17661 9.60515C9.15802 9.69253 9.17354 9.78371 9.22001 9.86002C9.35001 10.07 9.46001 10.28 9.57001 10.49C9.83001 11.02 10.02 11.56 10.28 12.1C10.3956 12.3818 10.5579 12.6422 10.76 12.87C10.9258 13.0239 11.1356 13.1218 11.36 13.15C11.4583 13.1557 11.5564 13.1368 11.6455 13.0949C11.7346 13.0529 11.8118 12.9894 11.87 12.91C11.9623 12.7825 12.0458 12.6489 12.12 12.51L12.58 11.85C13.0335 11.2429 13.5686 10.7011 14.17 10.24C14.3988 10.0501 14.643 9.87955 14.9 9.73002C13.9536 11.1119 13.2063 12.62 12.68 14.21C12.4594 15.0003 12.2792 15.8014 12.14 16.61C11.85 18.18 11.68 19.61 11.54 20.21C11.4 20.81 12.54 20.72 14.13 20.78C14.0474 21.0513 13.9872 21.3289 13.95 21.61C13.94 21.7732 13.94 21.9368 13.95 22.1V22.59C14.0277 22.9819 14.1381 23.3666 14.28 23.74C14.2884 23.7841 14.3054 23.8261 14.3301 23.8635C14.3548 23.901 14.3866 23.9332 14.4238 23.9583C14.461 23.9834 14.5028 24.0009 14.5467 24.0098C14.5907 24.0186 14.636 24.0187 14.68 24.01C14.7677 23.9907 14.8447 23.9385 14.895 23.864C14.9452 23.7895 14.9649 23.6986 14.95 23.61C14.95 23.33 15 22.96 15.03 22.53C15.04 22.3769 15.04 22.2232 15.03 22.07C15.0403 21.9135 15.0403 21.7565 15.03 21.6C15.03 21.3 14.92 21.05 14.87 20.82H15.29C15.7427 20.8526 16.1934 20.9093 16.64 20.99C17.2016 21.1028 17.7692 21.183 18.34 21.23H18.61C18.5458 21.416 18.4956 21.6065 18.46 21.8C18.4237 21.9404 18.4069 22.0851 18.41 22.23C18.3952 22.3797 18.3952 22.5304 18.41 22.68C18.4577 23.0482 18.5552 23.4082 18.7 23.75C18.7213 23.8375 18.7765 23.9129 18.8533 23.9598C18.9302 24.0066 19.0225 24.0211 19.11 24C19.1527 23.9907 19.1931 23.9728 19.2286 23.9474C19.2641 23.9219 19.2941 23.8894 19.3165 23.8519C19.339 23.8145 19.3536 23.7728 19.3594 23.7294C19.3651 23.6861 19.3619 23.6421 19.35 23.6C19.35 23.35 19.45 23.02 19.48 22.6C19.5099 22.381 19.5099 22.159 19.48 21.94C19.4667 21.6937 19.4299 21.4493 19.37 21.21H20.01H21.18C21.4369 21.1867 21.6825 21.0933 21.89 20.94C21.9599 20.8613 22.0135 20.7695 22.0478 20.67C22.0821 20.5704 22.0965 20.4651 22.09 20.36C22.0625 19.687 21.9755 19.0177 21.83 18.36C21.64 17.36 21.36 16.15 21.03 15C21.1744 14.8811 21.3283 14.7741 21.49 14.68C21.99 14.39 22.55 14.16 23.02 13.83C23.2399 13.6772 23.4383 13.4955 23.61 13.29C23.7671 13.0893 23.858 12.8447 23.87 12.59C23.9002 12.295 23.8483 11.9974 23.72 11.73ZM16.15 6.88002C15.801 6.7968 15.4724 6.64411 15.1838 6.43106C14.8951 6.21801 14.6524 5.94897 14.47 5.64002C14.2788 5.3348 14.1541 4.99266 14.1041 4.63597C14.0541 4.27927 14.08 3.91604 14.18 3.57002C14.3147 3.14492 14.5322 2.75068 14.82 2.41002C15.1156 2.04093 15.4509 1.70557 15.82 1.41002C16.1752 1.13527 16.5741 0.922297 17 0.78002C17.5268 0.675482 18.073 0.736642 18.5637 0.955095C19.0543 1.17355 19.4652 1.53858 19.74 2.00002C20.0321 2.57713 20.1236 3.23511 20 3.87002C19.8293 4.80993 19.3381 5.66162 18.61 6.28002C18.278 6.56981 17.8813 6.77558 17.4532 6.88C17.0251 6.98441 16.5781 6.98442 16.15 6.88002ZM21.24 20.24C21.1704 20.2504 21.0996 20.2504 21.03 20.24H20.03C19.4974 20.2803 18.9626 20.2803 18.43 20.24C17.8902 20.213 17.3525 20.1529 16.82 20.06C16.37 19.99 15.88 19.95 15.37 19.92H12.22C12.38 19.2 12.57 18 12.87 16.66C13.05 15.91 13.25 15.11 13.5 14.35C13.9866 13.0555 14.6315 11.8262 15.42 10.69C15.7474 10.1745 16.1483 9.70962 16.61 9.31002C16.7214 9.21949 16.8571 9.16384 17 9.15002C17.62 9.15002 18 9.73002 18.35 10.37C18.8424 11.4823 19.2437 12.6328 19.55 13.81C20.2728 15.7916 20.8052 17.8375 21.14 19.92C21.2 20 21.22 20.15 21.24 20.24ZM22.85 12.74C22.7569 12.8592 22.6532 12.9697 22.54 13.07C22.15 13.43 21.64 13.7 21.2 14.07C21.1066 14.1388 21.0196 14.2157 20.94 14.3C20.85 14.01 20.76 13.72 20.66 13.46C20.3185 12.0942 19.8289 10.7697 19.2 9.51002L19.82 9.78002C20.1229 9.90044 20.4061 10.0656 20.66 10.27L21.94 11.32C22.07 11.47 22.33 11.75 22.57 12.05C22.81 12.35 22.91 12.41 22.91 12.57C22.9101 12.6319 22.8889 12.6919 22.85 12.74Z" fill="black"/>
<path fill-rule="evenodd" clip-rule="evenodd" d="M8.09 10.35H6.03C5.41 10.35 4.77 10.31 4 10.24C3.64 10.24 2.93 10.15 2.3 10.05C1.97779 10.0217 1.66127 9.94767 1.36 9.82999C1.31603 9.8097 1.27662 9.78074 1.24411 9.74485C1.2116 9.70897 1.18666 9.66689 1.17079 9.62115C1.15492 9.5754 1.14844 9.52692 1.15174 9.47861C1.15504 9.4303 1.16805 9.38316 1.19 9.33999C1.3799 8.9733 1.62247 8.6364 1.91 8.33999C2.21587 7.98028 2.55029 7.64586 2.91 7.33999C3.42 6.99999 4 6.55999 4.59 6.14999C4.9382 5.89768 5.30604 5.67363 5.69 5.47999C6.05722 5.28756 6.45182 5.15266 6.86 5.07999C6.9855 5.05571 7.11449 5.05571 7.24 5.07999C7.39674 5.12153 7.54785 5.18197 7.69 5.25999L10.89 7.25999C10.9562 7.29864 11.0348 7.31044 11.1095 7.29298C11.1841 7.27552 11.2493 7.23012 11.2915 7.16611C11.3338 7.1021 11.3499 7.02434 11.3366 6.94881C11.3233 6.87328 11.2816 6.80571 11.22 6.75999L8.14 4.59999C7.91354 4.44843 7.66809 4.32739 7.41 4.23999C7.40518 4.15339 7.40518 4.06659 7.41 3.97999C7.45485 3.8195 7.5258 3.66747 7.62 3.52999C7.73473 3.42146 7.86235 3.32743 8 3.24999C8.19755 3.09428 8.36961 2.90872 8.51 2.69999C8.66449 2.46704 8.73503 2.1884 8.71 1.90999C8.68178 1.50034 8.52816 1.10931 8.27 0.789994C8.01297 0.496665 7.69113 0.267266 7.33 0.119994C6.96554 -0.0183412 6.56696 -0.039319 6.19 0.0599944C5.79883 0.148273 5.44749 0.36259 5.19 0.669994C5.05289 0.884397 4.96477 1.12641 4.93193 1.37877C4.89909 1.63114 4.92233 1.88764 5 2.12999C5.04458 2.30781 5.13719 2.46996 5.26769 2.5987C5.3982 2.72744 5.56159 2.81783 5.74 2.85999C5.77669 2.87417 5.81588 2.88073 5.85518 2.87928C5.89449 2.87783 5.93309 2.86839 5.96863 2.85156C6.00418 2.83472 6.03593 2.81083 6.06195 2.78133C6.08797 2.75184 6.10772 2.71736 6.12 2.67999C6.13417 2.6433 6.14073 2.60412 6.13928 2.56481C6.13783 2.5255 6.1284 2.48691 6.11156 2.45136C6.09472 2.41581 6.07083 2.38406 6.04134 2.35804C6.01184 2.33202 5.97736 2.31227 5.94 2.29999C5.85474 2.25724 5.78489 2.18904 5.7401 2.10483C5.69531 2.02063 5.6778 1.92459 5.69 1.82999C5.72498 1.60724 5.83423 1.40285 6 1.24999C6.13874 1.16309 6.2967 1.11159 6.46 1.09999C6.62339 1.07896 6.78942 1.10317 6.94 1.16999C7.13526 1.24946 7.30973 1.37261 7.45 1.52999C7.55623 1.66671 7.62514 1.82866 7.65 1.99999C7.66727 2.09758 7.64574 2.19806 7.59 2.27999C7.37 2.60999 7.02 2.87999 6.92 3.09999C6.83147 3.28065 6.76756 3.47235 6.73 3.66999C6.70346 3.82881 6.68676 3.98912 6.68 4.14999C6.29452 4.19254 5.91531 4.2798 5.55 4.40999C5.00481 4.62974 4.4851 4.90804 4 5.23999C3.35521 5.64035 2.73416 6.07776 2.14 6.54999C1.72825 6.87493 1.3467 7.2364 0.999996 7.62999C0.534237 8.09583 0.190734 8.66948 -3.54461e-06 9.29999C-0.0547207 9.59564 -0.00607285 9.90111 0.137775 10.1651C0.281622 10.4292 0.511914 10.6357 0.789997 10.75C1.10858 10.8858 1.44561 10.9734 1.79 11.01C2.51 11.1 3.44 11.13 3.87 11.14H5.97C6.62 11.14 7.25 11.08 8.07 11C8.11467 10.9974 8.1584 10.9861 8.19869 10.9666C8.23897 10.9471 8.27501 10.9199 8.30474 10.8864C8.33447 10.853 8.3573 10.814 8.37193 10.7717C8.38656 10.7294 8.3927 10.6847 8.39 10.64C8.38295 10.5638 8.34881 10.4926 8.29376 10.4394C8.23872 10.3862 8.16642 10.3545 8.09 10.35Z" fill="black"/>
</g>
<defs>
<clipPath id="clip0_1052_9197">
<rect width="24" height="24" fill="white"/>
</clipPath>
</defs>
</svg>
