<svg width="24" height="24" viewBox="0 0 24 24" fill="none" xmlns="http://www.w3.org/2000/svg">
<g clip-path="url(#clip0_1030_2331)">
<path fill-rule="evenodd" clip-rule="evenodd" d="M19.81 15.15C19.805 15.1052 19.7912 15.0619 19.7694 15.0225C19.7476 14.9831 19.7181 14.9484 19.6827 14.9205C19.6474 14.8926 19.6068 14.872 19.5634 14.8599C19.5201 14.8478 19.4747 14.8444 19.43 14.85C19.3415 14.8601 19.2605 14.9045 19.2044 14.9737C19.1483 15.0429 19.1216 15.1313 19.13 15.22C19.63 20.54 16.82 22.77 13.56 22.99C11.3562 23.1029 9.18083 22.4531 7.4 21.15C6.82274 20.7669 6.33465 20.2641 5.96886 19.6757C5.60306 19.0874 5.36813 18.4272 5.28 17.74C5.00124 15.7033 5.48178 13.6352 6.63 11.93C7.24535 11.1263 8.04363 10.4812 8.95849 10.0481C9.87335 9.61501 10.8784 9.40654 11.89 9.44001C16.74 9.44001 18.24 11.44 18.62 13.19C18.6283 13.2289 18.6442 13.2657 18.6668 13.2984C18.6895 13.3311 18.7184 13.3589 18.7519 13.3803C18.7854 13.4017 18.8228 13.4162 18.862 13.423C18.9011 13.4299 18.9412 13.4288 18.98 13.42C19.0564 13.4032 19.1232 13.3572 19.1662 13.2918C19.2091 13.2264 19.2249 13.1468 19.21 13.07C19.0077 11.9352 18.3912 10.916 17.48 10.21C17.48 8.94001 17.48 7.63001 17.37 6.36001C17.3 5.36001 17.19 4.48001 17.04 3.61001C16.9162 3.04423 16.674 2.5111 16.3293 2.04572C15.9846 1.58033 15.5452 1.19327 15.04 0.910006C14.1016 0.329646 13.0232 0.0151113 11.92 6.07502e-06C10.7679 -0.0858659 9.6283 0.285908 8.74847 1.03471C7.86863 1.7835 7.31944 2.84895 7.22 4.00001C7.15 4.63001 7.09 5.58001 7.05 6.66001C7.01 7.74001 7 9.00001 6.93 10.1C6.49627 10.4437 6.10367 10.8363 5.76 11.27C4.4247 13.1801 3.84403 15.517 4.13 17.83C4.23148 18.6787 4.51553 19.4953 4.96262 20.2238C5.40971 20.9523 6.00924 21.5753 6.72 22.05C8.72495 23.4948 11.1756 24.1854 13.64 24C17.3 23.63 20.52 21.12 19.81 15.15ZM7.86 6.69001C7.97 5.64001 8.09 4.69001 8.19 4.11001C8.29323 3.22411 8.73943 2.41391 9.43296 1.85311C10.1265 1.29231 11.0121 1.02555 11.9 1.11001C12.8073 1.12603 13.6955 1.37389 14.48 1.83001C14.8641 2.02675 15.2036 2.30056 15.4771 2.63434C15.7507 2.96813 15.9525 3.35473 16.07 3.77001C16.3027 4.85941 16.4729 5.9612 16.58 7.07001C16.67 7.94001 16.72 8.81001 16.76 9.68001C15.2486 8.9354 13.5849 8.55199 11.9 8.56001C10.4568 8.46532 9.01919 8.81426 7.78 9.56001C7.86 8.54001 7.77 7.62001 7.86 6.69001Z" fill="black"/>
<path fill-rule="evenodd" clip-rule="evenodd" d="M12.83 17.57C12.5254 17.753 12.1837 17.8657 11.83 17.9C11.6822 17.9202 11.5318 17.9033 11.3921 17.851C11.2525 17.7986 11.1281 17.7124 11.03 17.6C11.0057 17.5685 10.9754 17.5421 10.9409 17.5222C10.9064 17.5024 10.8684 17.4896 10.8289 17.4845C10.7894 17.4794 10.7493 17.4821 10.7109 17.4925C10.6725 17.5028 10.6365 17.5207 10.605 17.545C10.5735 17.5693 10.5471 17.5996 10.5272 17.6341C10.5074 17.6686 10.4946 17.7066 10.4895 17.7461C10.4844 17.7856 10.4871 17.8256 10.4975 17.8641C10.5079 17.9025 10.5257 17.9385 10.55 17.97C10.6652 18.1383 10.8131 18.2817 10.9849 18.3917C11.1567 18.5016 11.3489 18.5759 11.55 18.61C12.1 18.688 12.6608 18.6119 13.17 18.39C13.5221 18.2634 13.8376 18.0522 14.0887 17.7749C14.3398 17.4976 14.5188 17.1628 14.61 16.8C14.7401 16.083 14.5936 15.3433 14.2 14.73C14.056 14.5024 13.8675 14.3063 13.6458 14.1534C13.4241 14.0004 13.1739 13.8938 12.91 13.84C12.2317 13.7097 11.5295 13.8045 10.91 14.11C10.622 14.211 10.3609 14.3766 10.1467 14.5941C9.93258 14.8116 9.77106 15.0753 9.67453 15.3648C9.57801 15.6544 9.54905 15.9622 9.58986 16.2647C9.63068 16.5672 9.74019 16.8564 9.91 17.11C9.92726 17.1516 9.95287 17.1893 9.98524 17.2206C10.0176 17.252 10.0561 17.2764 10.0982 17.2923C10.1404 17.3083 10.1854 17.3154 10.2304 17.3133C10.2754 17.3111 10.3195 17.2998 10.36 17.28C10.4405 17.2409 10.5029 17.1725 10.5346 17.0888C10.5662 17.0051 10.5645 16.9125 10.53 16.83C10.3887 16.5651 10.3484 16.2579 10.4164 15.9655C10.4845 15.6731 10.6563 15.4153 10.9 15.24C11.3683 14.9308 11.9386 14.8161 12.49 14.92C12.6342 14.9299 12.7742 14.973 12.8991 15.0458C13.024 15.1187 13.1304 15.2193 13.21 15.34C13.4597 15.7142 13.576 16.1616 13.54 16.61C13.5025 16.8135 13.419 17.0057 13.296 17.1721C13.173 17.3384 13.0136 17.4745 12.83 17.57Z" fill="black"/>
</g>
<defs>
<clipPath id="clip0_1030_2331">
<rect width="24" height="24" fill="white"/>
</clipPath>
</defs>
</svg>
