<svg width="24" height="24" viewBox="0 0 24 24" fill="none" xmlns="http://www.w3.org/2000/svg">
<g clip-path="url(#clip0_1030_2335)">
<path fill-rule="evenodd" clip-rule="evenodd" d="M6.15997 10.04C2.64997 9.66001 1.93497 10.73 1.78697 12.977C1.16997 23.574 2.82497 22.923 7.43597 22.786C18.207 22.236 17.993 22.416 17.99 21.844C17.99 21.348 17.856 21.348 13.49 21.396C3.06097 21.506 2.87297 23.175 2.87297 15.737C2.87297 11.802 2.76097 11.25 4.23897 10.952C5.71697 10.654 6.47597 11.108 6.52697 10.469C6.53497 10.3633 6.50071 10.2588 6.43171 10.1784C6.36272 10.0979 6.26562 10.0482 6.15997 10.04Z" fill="black"/>
<path fill-rule="evenodd" clip-rule="evenodd" d="M17.121 5.60699C15.919 -0.128009 6.56702 -0.222009 5.58802 5.56699C5.56513 5.66322 5.50739 5.74754 5.42596 5.8037C5.34454 5.85985 5.24519 5.88383 5.14711 5.87103C5.04903 5.85823 4.95917 5.80954 4.89489 5.73437C4.8306 5.65919 4.79645 5.56287 4.79902 5.46399C5.45102 -2.01401 17.209 -1.60601 18.266 5.39999C18.35 6.69599 18.359 7.99599 18.295 9.29299C19.917 9.39199 21.195 9.86999 21.646 11.497C21.9936 14.4985 21.9162 17.5341 21.416 20.514C20.683 22.182 19.591 20.865 20.343 20.514C20.76 20.302 20.726 19.183 20.633 16.081C20.609 15.297 20.582 14.386 20.557 13.331C20.484 10.751 19.824 10.721 17.822 10.631C17.6776 10.6255 17.5333 10.6189 17.389 10.611C15.1729 10.4786 12.9516 10.4543 10.733 10.538C9.23002 10.588 8.73902 10.603 8.70702 10.174C8.66202 9.65099 8.95403 9.63199 15.319 9.35099L15.732 9.33099C16.2739 9.30123 16.8164 9.28189 17.359 9.27299C17.3495 9.0141 17.3455 8.75505 17.347 8.49599C17.347 7.69099 17.345 6.67699 17.121 5.60699Z" fill="black"/>
<path fill-rule="evenodd" clip-rule="evenodd" d="M0.21003 0.98C11.743 13.479 10.252 13.1 23.21 23.902C23.294 23.9756 23.4037 24.0128 23.5151 24.0055C23.6265 23.9982 23.7304 23.9469 23.804 23.863C23.8776 23.7791 23.9149 23.6693 23.9076 23.5579C23.9002 23.4465 23.849 23.3426 23.765 23.269C9.64903 10.373 0.95003 -0.297001 0.22003 0.414C0.144061 0.487958 0.100385 0.588933 0.0985125 0.694941C0.0966396 0.800948 0.136721 0.903404 0.21003 0.98Z" fill="black"/>
</g>
<defs>
<clipPath id="clip0_1030_2335">
<rect width="24" height="24" fill="white"/>
</clipPath>
</defs>
</svg>
