<svg width="24" height="24" viewBox="0 0 24 24" fill="none" xmlns="http://www.w3.org/2000/svg">
<g clip-path="url(#clip0_1030_2349)">
<path fill-rule="evenodd" clip-rule="evenodd" d="M6.88004 17.69C6.58802 17.32 6.18489 17.0536 5.73004 16.93C5.40046 16.8417 5.05583 16.8247 4.71915 16.8801C4.38247 16.9355 4.06147 17.062 3.77757 17.2513C3.49366 17.4406 3.25338 17.6882 3.07275 17.9777C2.89211 18.2671 2.77528 18.5918 2.73004 18.93C2.6706 19.4918 2.81733 20.0562 3.14294 20.5179C3.46855 20.9796 3.95084 21.3073 4.50004 21.44C5.02052 21.5882 5.57658 21.5481 6.07043 21.3268C6.56427 21.1055 6.96425 20.7171 7.20004 20.23C7.26852 20.0882 7.32537 19.941 7.37004 19.79C7.44604 19.4254 7.44157 19.0486 7.35694 18.6859C7.27231 18.3232 7.10956 17.9833 6.88004 17.69ZM6.79004 19.56C6.74564 19.6692 6.69557 19.776 6.64004 19.88C6.45473 20.1915 6.16671 20.4288 5.82546 20.5511C5.48421 20.6734 5.11103 20.673 4.77004 20.55C4.4499 20.4535 4.17407 20.2472 3.99114 19.9673C3.80821 19.6874 3.72991 19.3519 3.77004 19.02C3.79657 18.82 3.86453 18.6278 3.96956 18.4557C4.0746 18.2835 4.2144 18.1351 4.38004 18.02C4.54836 17.8889 4.74134 17.793 4.9475 17.738C5.15366 17.683 5.36878 17.6701 5.58004 17.7C5.89969 17.7471 6.1949 17.8982 6.42004 18.13C7.12004 18.86 6.85004 19.42 6.79004 19.56Z" fill="black"/>
<path fill-rule="evenodd" clip-rule="evenodd" d="M19.09 8.87999C18.98 8.37999 18.67 7.25999 18.56 6.87999C18.7477 6.26364 18.8947 5.63562 19 4.99999C19.0947 4.50111 19.0947 3.98888 19 3.48999C18.9837 3.42495 18.9546 3.36378 18.9146 3.30996C18.8746 3.25615 18.8243 3.21076 18.7668 3.1764C18.7092 3.14203 18.6454 3.11936 18.579 3.10968C18.5126 3.1 18.445 3.10351 18.38 3.11999L18.02 3.21999C17.18 3.48999 15.11 4.21999 14.9 4.36999C13.9448 5.24845 13.0432 6.18346 12.2 7.16999C10.39 9.16999 8.07001 11.84 6.57002 13.54C5.83592 13.4061 5.08262 13.4185 4.35331 13.5764C3.62401 13.7343 2.93303 14.0345 2.32002 14.46C1.6843 14.8769 1.14731 15.4275 0.746586 16.0735C0.345858 16.7195 0.0910633 17.4453 1.5188e-05 18.2C-0.0855468 18.8933 -0.02281 19.5968 0.184069 20.264C0.390947 20.9312 0.737244 21.5468 1.20002 22.07C2.13549 23.1056 3.42172 23.7576 4.81002 23.9C4.87856 23.9058 4.94673 23.8853 5.00063 23.8425C5.05452 23.7998 5.09007 23.7381 5.10002 23.67C5.10567 23.6356 5.10407 23.6004 5.09532 23.5667C5.08657 23.5329 5.07086 23.5014 5.0492 23.4741C5.02754 23.4468 5.00041 23.4243 4.96956 23.4081C4.9387 23.3919 4.90479 23.3823 4.87002 23.38C3.63422 23.2236 2.49896 22.6186 1.68002 21.68C1.27906 21.2183 0.982219 20.6756 0.809666 20.0889C0.637113 19.5022 0.592894 18.8853 0.680015 18.28C0.77239 17.6349 1.00348 17.0174 1.35738 16.4702C1.71127 15.9229 2.17957 15.4589 2.73002 15.11C3.26648 14.7472 3.87108 14.4971 4.50711 14.3751C5.14315 14.253 5.79735 14.2615 6.43002 14.4H6.59002C6.65952 14.4226 6.73364 14.4271 6.80538 14.4131C6.87712 14.3991 6.94411 14.3671 7.00002 14.32C8.52002 12.65 11 9.90999 12.89 7.85999C13.6712 6.95104 14.499 6.08321 15.37 5.25999C15.55 5.14999 17.13 4.57999 18.02 4.25999C18.02 4.43999 18.02 4.63999 17.95 4.82999C17.852 5.45545 17.7117 6.07353 17.53 6.67999C17.505 6.77504 17.505 6.87494 17.53 6.96999C17.53 6.96999 17.9 8.23999 18.06 8.90999L18 8.99999H16.37C16.1744 9.0069 15.9872 9.08107 15.84 9.20999C15.7371 9.33696 15.6669 9.48721 15.6355 9.6476C15.6042 9.80798 15.6126 9.97361 15.66 10.13C15.7763 10.5445 15.9165 10.9518 16.08 11.35C16.08 11.44 16.14 11.56 16.16 11.65C16.0953 11.6759 16.0283 11.696 15.96 11.71C15.4744 11.6984 14.99 11.6549 14.51 11.58C14.4068 11.5728 14.3032 11.5728 14.2 11.58C14.1061 11.5812 14.0152 11.6132 13.9412 11.671C13.8671 11.7288 13.814 11.8092 13.79 11.9C13.7614 12.0453 13.7614 12.1947 13.79 12.34C13.88 12.78 14.13 13.72 14.21 14.26C14.027 14.24 13.8463 14.2032 13.67 14.15C12.93 13.95 12.15 13.59 12.01 13.6C11.8124 13.649 11.6345 13.7572 11.5 13.91C11.07 14.33 10.19 15.3 9.44001 16.14C9.39659 16.2033 9.37334 16.2782 9.37334 16.355C9.37334 16.4317 9.39659 16.5067 9.44001 16.57C9.60473 16.8389 9.74209 17.1237 9.85002 17.42C9.96355 17.7056 10.0538 17.9999 10.12 18.3L10.19 19.04C10.1687 19.3669 10.1048 19.6896 10 20C9.89749 20.3176 9.76698 20.6255 9.61001 20.92C9.31021 21.4754 8.91013 21.9704 8.43002 22.38C7.95232 22.7846 7.39292 23.0814 6.79002 23.25C6.75193 23.2605 6.71629 23.2784 6.68513 23.3027C6.65396 23.327 6.62789 23.3571 6.60839 23.3915C6.58889 23.4259 6.57634 23.4637 6.57148 23.5029C6.56661 23.5421 6.56951 23.5819 6.58002 23.62C6.59052 23.6581 6.60842 23.6937 6.6327 23.7249C6.65698 23.756 6.68717 23.7821 6.72152 23.8016C6.75588 23.8211 6.79374 23.8337 6.83295 23.8385C6.87215 23.8434 6.91193 23.8405 6.95002 23.83C7.63984 23.6321 8.28036 23.2914 8.83002 22.83C9.3762 22.378 9.83392 21.8287 10.18 21.21C10.3641 20.8917 10.5181 20.5569 10.64 20.21C10.7563 19.8168 10.8202 19.4099 10.83 19L10.76 18.22C10.6383 17.6127 10.4366 17.0242 10.16 16.47C10.86 15.71 11.63 14.88 12.03 14.47L12.09 14.42L12.23 14.47C12.7145 14.6879 13.2162 14.8651 13.73 15C14.058 15.0847 14.4021 15.0847 14.73 15C14.8403 14.9539 14.9295 14.8683 14.98 14.76C15.0137 14.6085 15.0137 14.4515 14.98 14.3C14.98 13.89 14.75 13.08 14.63 12.51C14.89 12.51 15.22 12.59 15.52 12.61C15.7493 12.6486 15.9842 12.6393 16.2096 12.5825C16.4351 12.5257 16.6464 12.4227 16.83 12.28C16.9164 12.1504 16.9713 12.0025 16.9904 11.848C17.0095 11.6935 16.9922 11.5367 16.94 11.39C16.86 11.04 16.66 10.59 16.54 10.2C16.5117 10.1189 16.4916 10.0351 16.48 9.94999H18.18C18.343 9.94232 18.502 9.89675 18.6444 9.81691C18.7867 9.73706 18.9085 9.62512 19 9.48999C19.0935 9.30122 19.125 9.08773 19.09 8.87999Z" fill="black"/>
<g clip-path="url(#clip1_1030_2349)">
<path d="M11.42 5.1C11.64 5.1 12 3.93 12.75 3.26C13.5 2.59 14.11 2.61 14.15 2.32C14.34 1.15 12.35 2.06 11.87 2.8C11.39 3.54 11.14 5.02 11.42 5.1Z" fill="black"/>
<path d="M9.87997 4.57002C9.9532 4.54727 10.0175 4.50234 10.0641 4.44143C10.1107 4.38052 10.1372 4.30665 10.14 4.23002C10.1188 3.45166 10.2235 2.67499 10.45 1.93002C11.01 0.89002 12.37 0.50002 12.28 0.23002C12.12 -0.28998 10.06 0.84002 9.69997 2.10002C9.41997 3.04002 9.55997 4.63002 9.87997 4.57002Z" fill="black"/>
</g>
<path d="M20 10.72C19.86 10.56 20.68 9.6 20.84 8.61C21.03 7.44 20.66 7.11 20.84 6.92C21.73 6.14 22.03 8.3 21.67 9.1C21.31 9.9 20.15 10.94 20 10.72Z" fill="black"/>
<path d="M21.2 11.75C21.1842 11.6774 21.19 11.6018 21.2166 11.5325C21.2433 11.4632 21.2897 11.4032 21.35 11.36C21.8 10.99 22.78 10.47 23.12 9.84999C23.7 8.84999 23.29 7.45999 23.57 7.38999C24.09 7.25999 24.25 9.58999 23.39 10.57C22.74 11.32 21.31 12 21.2 11.75Z" fill="black"/>
</g>
<defs>
<clipPath id="clip0_1030_2349">
<rect width="24" height="24" fill="white"/>
</clipPath>
<clipPath id="clip1_1030_2349">
<rect width="4.61" height="4.96" fill="white" transform="translate(9.56 0.100006)"/>
</clipPath>
</defs>
</svg>
