<svg width="24" height="24" viewBox="0 0 24 24" fill="none" xmlns="http://www.w3.org/2000/svg">
<g clip-path="url(#clip0_1035_4965)">
<path fill-rule="evenodd" clip-rule="evenodd" d="M3.25 1.59L4.71 1.39C17.55 1.05 9.61 1.39 16.58 1.39C17.07 1.88 18.12 3.01 19.02 4.05C20.89 6.21 20.46 6.25 20.85 6.25C20.949 6.24739 21.0431 6.20621 21.1123 6.13522C21.1814 6.06424 21.22 5.96907 21.22 5.87C21.22 5.2 17.7 0.939999 17.22 0.429999C16.94 0.169999 14.89 0.279999 14.4 0.199999C11.29 -0.250001 8.88 0.139999 4.62 0.589999C2.78 0.899999 2.41 0.789999 2.4 1.24C2.39866 1.29704 2.4117 1.3535 2.43791 1.40418C2.46413 1.45486 2.50267 1.49813 2.55 1.53C2.77831 1.58917 3.01495 1.60945 3.25 1.59Z" fill="black"/>
<path fill-rule="evenodd" clip-rule="evenodd" d="M21.43 7.12C21.4154 7.03105 21.3697 6.95018 21.301 6.89183C21.2323 6.83348 21.1451 6.80144 21.055 6.80144C20.9649 6.80144 20.8777 6.83348 20.809 6.89183C20.7403 6.95018 20.6946 7.03105 20.68 7.12C20.61 14.44 20.97 18.31 20.88 20.12C20.8502 20.7383 20.7733 21.3534 20.65 21.96C20.82 22.13 20.03 22.21 19.41 22.33C15.6 23 5 22.9 3.82 22.1C3.26 21.73 3.4 21.1 3.39 20.28C3.39 18.55 3.19 15.91 3.3 15.04C3.59 14.86 4.48 15.04 4.88 14.91C5.28 14.78 5.48 14.5 5.52 14.01C5.61416 12.6428 5.54027 11.2692 5.3 9.92C4.92 9.08 3.3 9.92 2.99 9.33C2.68 8.74 2.99 5.33 2.85 3.96V3.28C2.85 3.03 2.25 2.79 2.19 3.36C2.12 4.1 1.94 9.05 2.19 9.69C2.7 10.75 3.67 10.25 4.43 10.4C4.53557 11.5309 4.53557 12.6691 4.43 13.8C4.02913 13.7855 3.62827 13.8292 3.24 13.93C1.61 14.17 2.14 15.24 2.08 20.28C2.06687 20.8592 2.13076 21.4376 2.27 22C2.67 23.37 4.03 23.58 5.48 23.76C7.93 24.06 21.14 24.53 21.67 22.33C22.29 19.74 21.53 16.85 21.43 7.12Z" fill="black"/>
<path fill-rule="evenodd" clip-rule="evenodd" d="M20.65 21.94C20.61 22.08 20.62 22.07 20.65 21.94V21.94Z" fill="black"/>
<path fill-rule="evenodd" clip-rule="evenodd" d="M9.41 20.14C10.6 20.84 12.46 20.37 13.62 20.35C13.9976 20.3811 14.3776 20.3404 14.74 20.23C16.5 19.39 13.8 17.13 13.74 16.37C13.74 16.2719 13.701 16.1778 13.6316 16.1084C13.5622 16.039 13.4681 16 13.37 16C13.2719 16 13.1778 16.039 13.1084 16.1084C13.039 16.1778 13 16.2719 13 16.37C13 16.99 13.75 18.07 14.14 18.9C14.1688 19.0082 14.1888 19.1186 14.2 19.23C12.55 19.11 11.3 19.43 10.28 19.23C10.37 19.04 12.56 15.23 12.56 15.23C12.589 15.1558 12.5903 15.0737 12.5635 14.9987C12.5367 14.9237 12.4837 14.8609 12.4142 14.822C12.3448 14.783 12.2636 14.7704 12.1857 14.7866C12.1077 14.8028 12.0382 14.8466 11.99 14.91C10.94 16.6 8.1 19.36 9.41 20.14Z" fill="black"/>
<path fill-rule="evenodd" clip-rule="evenodd" d="M7.07 2.91C6.96 2.86 6.73 2.91 6.57 3.2C6.37624 3.78121 6.26844 4.38762 6.25 5C6.24787 5.85196 6.32487 6.70228 6.48 7.54C6.49457 7.62894 6.54029 7.70981 6.60898 7.76817C6.67767 7.82652 6.76487 7.85856 6.855 7.85856C6.94513 7.85856 7.03233 7.82652 7.10102 7.76817C7.16971 7.70981 7.21543 7.62894 7.23 7.54C7.38487 6.70149 7.47513 5.85233 7.5 5C7.50026 4.47728 7.45677 3.95546 7.37 3.44C7.36 3 7.27 3 7.07 2.91Z" fill="black"/>
<path fill-rule="evenodd" clip-rule="evenodd" d="M10.07 3.08C9.56976 4.51799 9.59099 6.08608 10.13 7.51C10.1551 7.58856 10.1922 7.66277 10.24 7.73C10.42 7.88 10.57 7.91 10.69 7.83C11.1 7.58 10.99 5.2 10.89 4.57C10.7837 4.13079 10.7233 3.6817 10.71 3.23C10.7215 3.14841 10.7021 3.06546 10.6556 2.99745C10.6091 2.92945 10.5388 2.88131 10.4586 2.86251C10.3783 2.8437 10.294 2.85559 10.2221 2.89584C10.1502 2.93609 10.0959 3.00178 10.07 3.08Z" fill="black"/>
<path fill-rule="evenodd" clip-rule="evenodd" d="M17.62 8.27C17.62 7.46 17.34 6.44 17.37 6.07C17.3776 5.98976 17.3555 5.90953 17.3079 5.84445C17.2604 5.77936 17.1907 5.73392 17.112 5.7167C17.0332 5.69948 16.9509 5.71166 16.8806 5.75096C16.8102 5.79025 16.7566 5.85394 16.73 5.93C16.5033 6.64902 16.3788 7.39633 16.36 8.15C16.389 9.16242 16.5299 10.1685 16.78 11.15C17.01 11.94 17.54 11.67 17.5 10.98C17.55 10.98 17.5 10.77 17.5 10.55C17.5936 9.79377 17.6337 9.03188 17.62 8.27Z" fill="black"/>
<path fill-rule="evenodd" clip-rule="evenodd" d="M14.41 10.21C14.7403 7.82604 14.6011 5.40048 14 3.07C13.9812 2.99319 13.9354 2.9257 13.871 2.8798C13.8066 2.8339 13.7279 2.81266 13.6491 2.81992C13.5704 2.82719 13.4969 2.8625 13.442 2.91941C13.3871 2.97632 13.3544 3.05105 13.35 3.13C13.35 4.33 13.21 5.18 13.29 6.68C13.35 7.86 13.57 9.3 13.65 10.21C13.65 10.3108 13.69 10.4074 13.7613 10.4787C13.8326 10.55 13.9292 10.59 14.03 10.59C14.1308 10.59 14.2274 10.55 14.2987 10.4787C14.37 10.4074 14.41 10.3108 14.41 10.21Z" fill="black"/>
</g>
<defs>
<clipPath id="clip0_1035_4965">
<rect width="24" height="24" fill="white"/>
</clipPath>
</defs>
</svg>
