<svg width="24" height="24" viewBox="0 0 24 24" fill="none" xmlns="http://www.w3.org/2000/svg">
<g clip-path="url(#clip0_1035_4984)">
<path fill-rule="evenodd" clip-rule="evenodd" d="M22.93 20.89C22.59 20.37 22.24 19.89 21.88 19.34C21.63 19 21.38 18.66 21.11 18.34C20.5605 17.6663 19.8277 17.1661 19 16.9C18.5695 16.7704 18.1105 16.7704 17.68 16.9H17.59C17.5642 16.8315 17.5341 16.7647 17.5 16.7C17.4419 16.5829 17.3715 16.4723 17.29 16.37C17.2043 16.2693 17.1107 16.1757 17.01 16.09C16.9 16.01 16.79 15.96 16.69 15.9C16.7749 15.8497 16.8375 15.7691 16.8654 15.6745C16.8932 15.5799 16.8841 15.4782 16.84 15.39C16.7916 15.3059 16.7128 15.2435 16.6198 15.2156C16.5269 15.1877 16.4267 15.1964 16.34 15.24L15.76 15.53H15.64C14.1707 16.3198 12.589 16.8796 10.95 17.19C9.73133 17.4001 8.47792 17.2542 7.34001 16.77C6.06647 16.2091 4.95617 15.3341 4.11314 14.227C3.2701 13.1199 2.72194 11.8168 2.52001 10.44C2.28959 9.11007 2.4278 7.74244 2.91964 6.48551C3.41149 5.22858 4.23818 4.13035 5.31001 3.31C6.62657 2.29923 8.18498 1.65105 9.83001 1.43C11.4732 1.20644 13.1458 1.47072 14.64 2.19C15.7218 2.69132 16.6701 3.44078 17.4078 4.37748C18.1455 5.31417 18.6519 6.41169 18.8857 7.58086C19.1196 8.75003 19.0743 9.95787 18.7536 11.1062C18.4329 12.2546 17.8458 13.3112 17.04 14.19C17.0019 14.2307 16.9722 14.2785 16.9526 14.3307C16.933 14.3829 16.9239 14.4384 16.9257 14.4941C16.9276 14.5499 16.9404 14.6047 16.9635 14.6554C16.9865 14.7062 17.0193 14.7519 17.06 14.79C17.1007 14.8281 17.1485 14.8578 17.2007 14.8774C17.2529 14.897 17.3084 14.9061 17.3642 14.9043C17.4199 14.9024 17.4747 14.8896 17.5254 14.8666C17.5762 14.8435 17.6219 14.8107 17.66 14.77C18.5933 13.8004 19.2831 12.623 19.6725 11.3348C20.0619 10.0466 20.1399 8.68426 19.9 7.36C19.6597 6.01693 19.1086 4.74868 18.2908 3.65654C17.473 2.56439 16.4111 1.67863 15.19 1.07C13.4883 0.201398 11.5683 -0.146424 9.67001 0.0700004C7.77838 0.304373 5.98164 1.03204 4.46001 2.18C3.15909 3.15417 2.15742 4.47364 1.56879 5.98853C0.98015 7.50343 0.828136 9.15304 1.13001 10.75C1.40446 12.324 2.07682 13.8016 3.08322 15.0426C4.08961 16.2835 5.39661 17.2465 6.88001 17.84C8.20486 18.3513 9.64836 18.4727 11.04 18.19C12.6737 17.8433 14.245 17.2498 15.7 16.43C15.7655 16.6211 15.8423 16.8081 15.93 16.99C15.9908 17.1017 16.0646 17.2058 16.15 17.3C16.2324 17.3942 16.3228 17.4812 16.42 17.56L16.61 17.7C16.3502 18.2409 16.2729 18.8515 16.39 19.44C16.5347 20.1951 16.838 20.9109 17.28 21.54C17.9005 22.4001 18.6186 23.1853 19.42 23.88C19.4893 23.9484 19.5827 23.9868 19.68 23.9868C19.7773 23.9868 19.8708 23.9484 19.94 23.88C20.009 23.8091 20.0477 23.714 20.0477 23.615C20.0477 23.516 20.009 23.4209 19.94 23.35C19.2956 22.6306 18.7322 21.8425 18.26 21C17.9723 20.4755 17.7985 19.8962 17.75 19.3C17.66 18.55 17.88 18.22 18.32 18.24C19.0512 18.3037 19.7357 18.6264 20.25 19.15C20.61 19.51 20.95 19.87 21.25 20.25C21.55 20.63 21.9 21.03 22.25 21.42C22.3161 21.51 22.4146 21.5708 22.5248 21.5895C22.6349 21.6081 22.7479 21.5832 22.84 21.52C22.8909 21.4874 22.9342 21.4443 22.9668 21.3935C22.9995 21.3427 23.0209 21.2854 23.0294 21.2256C23.038 21.1658 23.0335 21.1049 23.0163 21.047C22.9992 20.989 22.9697 20.9355 22.93 20.89Z" fill="black"/>
<path fill-rule="evenodd" clip-rule="evenodd" d="M14 11.35V13.35C13.9959 13.4052 14.0028 13.4606 14.0202 13.5132C14.0376 13.5657 14.0652 13.6142 14.1015 13.6561C14.1377 13.6979 14.1818 13.7321 14.2314 13.7568C14.2809 13.7815 14.3348 13.7962 14.39 13.8C14.4999 13.8083 14.6086 13.7732 14.6928 13.7021C14.7769 13.631 14.8298 13.5297 14.84 13.42C14.96 12.51 15.03 11.6 15.06 10.67C15.11 9.31 15.06 7.94 15.06 6.6C15.1005 5.97065 15.1005 5.33935 15.06 4.71C15.0339 4.41778 14.9226 4.13963 14.74 3.91C14.6149 3.7704 14.4453 3.67852 14.26 3.65C13.8755 3.64724 13.4913 3.67062 13.11 3.72C12.17 3.72 11.21 3.72 10.26 3.8C9.25222 3.76019 8.26541 4.09507 7.49 4.74C7.30358 4.86674 7.12949 5.0107 6.97 5.17C6.80394 5.3209 6.65012 5.48475 6.51 5.66C6.20298 6.08714 5.92566 6.53486 5.68 7C5.60872 7.08501 5.57397 7.19477 5.58334 7.30531C5.59271 7.41585 5.64543 7.5182 5.73 7.59C5.59352 8.9722 5.54343 10.3616 5.58 11.75C5.62707 12.4131 5.77896 13.0645 6.03 13.68C6.09199 13.8063 6.18509 13.9148 6.30054 13.9953C6.41599 14.0758 6.55001 14.1256 6.69 14.14C7.17292 14.1681 7.65707 14.1681 8.14 14.14C8.98 14.14 9.81 14.09 10.65 14.05C11.49 14.01 12.32 13.95 13.16 13.87C13.2147 13.8687 13.2686 13.8565 13.3186 13.8341C13.3685 13.8116 13.4134 13.7794 13.4507 13.7394C13.488 13.6993 13.5168 13.6522 13.5356 13.6007C13.5544 13.5493 13.5627 13.4947 13.56 13.44C13.5587 13.3848 13.5465 13.3305 13.5242 13.28C13.5019 13.2296 13.4699 13.184 13.4299 13.1459C13.39 13.1078 13.343 13.078 13.2915 13.0581C13.24 13.0382 13.1852 13.0287 13.13 13.03L8.18 12.75C7.32 12.75 7.18 13.59 6.8 11C6.63 9.74 6.56 8.4 6.48 7.48V7.38C6.83 7.1 7.2 6.85 7.56 6.56C7.83281 6.3523 8.09016 6.12504 8.33 5.88C8.7 5.49 8.99 5.05 9.33 4.64H10.33C11.28 4.7 12.23 4.85 13.16 4.93C13.31 4.93 14.16 4.7 14.07 4.93C13.8962 5.46289 13.7789 6.01258 13.72 6.57C13.83 8.19 14 9.77 14 11.35Z" fill="black"/>
<path fill-rule="evenodd" clip-rule="evenodd" d="M12.18 5.58C11.88 5.58 11.54 6.43 11.51 6.52C11.4567 6.67898 11.4567 6.85102 11.51 7.01C11.83 8.01 12.03 8.01 12.22 8.01C12.41 8.01 12.57 8.01 12.84 7.01C12.8497 6.93029 12.8497 6.84971 12.84 6.77C12.8551 6.69408 12.8551 6.61592 12.84 6.54C12.51 5.48 12.2 5.58 12.18 5.58Z" fill="black"/>
<path fill-rule="evenodd" clip-rule="evenodd" d="M9.71 5.58C9.4 5.58 9.07 6.43 9.04 6.52C9.01967 6.60209 9.01967 6.68791 9.04 6.77C9.0337 6.84724 9.04046 6.925 9.06 7C9.38 8 9.58 8 9.76 8C9.94 8 10.11 8 10.39 7C10.3996 6.92029 10.3996 6.83971 10.39 6.76C10.4004 6.68369 10.4004 6.60631 10.39 6.53C10 5.48 9.73 5.58 9.71 5.58Z" fill="black"/>
</g>
<defs>
<clipPath id="clip0_1035_4984">
<rect width="24" height="24" fill="white"/>
</clipPath>
</defs>
</svg>
