<svg width="24" height="24" viewBox="0 0 24 24" fill="none" xmlns="http://www.w3.org/2000/svg">
<g clip-path="url(#clip0_1032_3362)">
<path d="M24 9.60001C23.91 7.60001 22.39 4.78001 19.81 2.72001C17.6541 0.978624 14.9713 0.0197515 12.2 1.44963e-05C9.24188 -0.05894 6.36073 0.945206 4.08003 2.83001C1.801 4.74025 0.364331 7.46992 0.0800274 10.43C-0.0999726 13.49 0.380027 15.28 1.45003 16.51C2.52003 17.74 4.39003 18.51 6.93003 19.36C7.02003 19.36 7.05003 19.51 7.10003 19.66C7.21387 20.1704 7.21387 20.6996 7.10003 21.21C6.98501 21.9695 6.67491 22.6862 6.20003 23.29C6.15061 23.355 6.12069 23.4327 6.11378 23.514C6.10687 23.5953 6.12325 23.6769 6.16101 23.7493C6.19876 23.8216 6.25633 23.8818 6.32699 23.9226C6.39765 23.9635 6.47848 23.9834 6.56003 23.98C6.85422 23.9867 7.14848 23.97 7.44003 23.93C8.69623 23.8035 9.91044 23.4079 11 22.77C11.3726 22.4974 11.7087 22.1781 12 21.82C12.69 20.98 13.28 19.92 13.62 19.48C14.03 19.48 15.02 19.48 16.06 19.35C16.6527 19.2891 17.2407 19.1889 17.82 19.05C19.8266 18.5095 21.5595 17.2401 22.68 15.49C23.7162 13.7095 24.1772 11.6524 24 9.60001ZM22 15.08C21.0169 16.6924 19.4646 17.8771 17.65 18.4C17.1047 18.5425 16.55 18.6461 15.99 18.71C14.67 18.87 13.59 18.64 13.26 18.88C12.93 19.12 12.34 20.21 11.7 21.04C11.394 21.4652 11.0267 21.8426 10.61 22.16C9.61342 22.7283 8.50372 23.0697 7.36003 23.16C7.73843 22.4313 7.95664 21.63 8.00003 20.81C8.05972 20.2732 7.99821 19.7299 7.82003 19.22C7.77106 19.0636 7.68837 18.9199 7.57778 18.7989C7.4672 18.678 7.33142 18.5828 7.18003 18.52C4.85003 17.67 3.18003 17.06 2.18003 15.86C1.18003 14.66 0.930027 13.18 1.18003 10.5C1.47543 7.83912 2.80417 5.40071 4.88003 3.71001C6.96492 2.00589 9.58778 1.09852 12.28 1.15001C14.7972 1.14814 17.2418 1.99352 19.22 3.55001C21.57 5.37001 23.03 7.85001 23.15 9.65001C23.3194 11.5417 22.8965 13.4392 21.94 15.08H22Z" fill="black"/>
<path d="M7.69003 7C8.025 6.97423 8.36193 6.99782 8.69003 7.07C9.05926 7.12401 9.4088 7.27064 9.70606 7.49621C10.0033 7.72178 10.2386 8.01894 10.39 8.36C10.4156 8.44598 10.474 8.5184 10.5527 8.56148C10.6313 8.60456 10.7238 8.61481 10.81 8.59C10.8894 8.5547 10.9529 8.49112 10.988 8.41165C11.0231 8.33217 11.0274 8.24247 11 8.16C10.8799 7.64766 10.6244 7.17695 10.2603 6.79701C9.89622 6.41707 9.4368 6.14182 8.93003 6C8.08853 5.72266 7.17476 5.76177 6.36003 6.11C5.88176 6.30524 5.45904 6.61547 5.12935 7.01319C4.79967 7.4109 4.5732 7.88381 4.47003 8.39C4.45771 8.42807 4.45312 8.46822 4.45654 8.50808C4.45997 8.54795 4.47133 8.58673 4.48997 8.62214C4.50861 8.65755 4.53414 8.68887 4.56506 8.71426C4.59598 8.73966 4.63168 8.75861 4.67003 8.77C4.73978 8.7808 4.8111 8.76668 4.87146 8.7301C4.93181 8.69352 4.97734 8.63683 5.00003 8.57C5.15774 8.22132 5.39278 7.91314 5.68733 7.66883C5.98189 7.42453 6.32821 7.25052 6.70003 7.16C7.02284 7.06902 7.35501 7.01534 7.69003 7Z" fill="black"/>
<path d="M17.68 5.90003C17.2724 5.74158 16.8371 5.66677 16.4 5.68003C15.9604 5.68135 15.5253 5.76971 15.12 5.94003C14.6642 6.14092 14.2563 6.43654 13.9235 6.80724C13.5908 7.17794 13.3407 7.61522 13.19 8.09003C13.1621 8.16465 13.163 8.24701 13.1926 8.32099C13.2222 8.39496 13.2783 8.45524 13.35 8.49003C13.423 8.52 13.5049 8.52002 13.5779 8.49007C13.6509 8.46012 13.7091 8.40262 13.74 8.33003C14.1286 7.67215 14.7611 7.1942 15.5 7.00003C15.8 6.9153 16.1087 6.86498 16.42 6.85003C16.9458 6.79695 17.4751 6.90659 17.9366 7.16413C18.398 7.42167 18.7692 7.81468 19 8.29003C19.0336 8.37354 19.098 8.44092 19.18 8.47817C19.2619 8.51541 19.355 8.51966 19.44 8.49003C19.4822 8.47446 19.5208 8.4507 19.5538 8.42009C19.5867 8.38949 19.6132 8.35267 19.6318 8.31175C19.6504 8.27084 19.6607 8.22664 19.6621 8.18171C19.6635 8.13679 19.656 8.09203 19.64 8.05003C19.505 7.56298 19.2572 7.11456 18.9167 6.74105C18.5762 6.36754 18.1525 6.07943 17.68 5.90003Z" fill="black"/>
<path d="M17.44 11.85C17.3974 11.836 17.3523 11.8306 17.3076 11.8341C17.2628 11.8376 17.2191 11.8499 17.1792 11.8704C17.1392 11.8909 17.1037 11.919 17.0746 11.9533C17.0456 11.9876 17.0236 12.0272 17.01 12.07C16.7599 12.5801 16.3901 13.022 15.9321 13.3581C15.4741 13.6942 14.9416 13.9144 14.38 14C13.6063 14.1773 12.8136 14.2579 12.02 14.24C11.4259 14.2311 10.8337 14.1709 10.25 14.06C8.74002 13.76 7.44002 13.13 7.10002 11.94C7.08106 11.8633 7.03263 11.7972 6.96523 11.7561C6.89783 11.7149 6.81691 11.7019 6.74002 11.72C6.70154 11.7271 6.6649 11.742 6.6323 11.7636C6.5997 11.7852 6.57182 11.8132 6.55033 11.8459C6.52884 11.8786 6.51419 11.9154 6.50727 11.9539C6.50034 11.9924 6.50128 12.0319 6.51002 12.07C6.76002 13.56 8.19002 14.64 10.01 15.12C10.663 15.2922 11.3348 15.3829 12.01 15.39C12.6829 15.3932 13.3539 15.3194 14.01 15.17C15.8 14.74 17.27 13.75 17.66 12.27C17.6853 12.1852 17.6764 12.0938 17.6353 12.0154C17.5942 11.9369 17.5242 11.8776 17.44 11.85Z" fill="black"/>
</g>
<defs>
<clipPath id="clip0_1032_3362">
<rect width="24" height="24" fill="white"/>
</clipPath>
</defs>
</svg>
