<svg width="24" height="24" viewBox="0 0 24 24" fill="none" xmlns="http://www.w3.org/2000/svg">
<g clip-path="url(#clip0_1032_3384)">
<path d="M15.55 18.47C14.41 18.38 13.15 18.28 12.36 18.27C11.9849 18.2336 11.6077 18.314 11.28 18.5C10.95 18.87 10.62 19.72 10.02 20.65C9.75032 21.0824 9.43519 21.4847 9.07999 21.85C8.40222 22.4545 7.56626 22.8534 6.66999 23C7.04123 22.2937 7.27536 21.5235 7.35999 20.73C7.45703 20.0768 7.37405 19.4095 7.11999 18.8C7.00734 18.5623 6.81176 18.3738 6.56999 18.27C6.20061 18.1175 5.80878 18.0263 5.40999 18C4.59534 17.9792 3.78021 18.0127 2.96999 18.1C2.50363 18.1237 2.03636 18.1237 1.56999 18.1C1.27333 18.1104 0.976763 18.0767 0.689993 18V17.44C0.529993 15.49 0.399993 10.7 0.409993 9.80001V5.41001C0.409993 4.08001 0.489993 2.76001 0.579993 1.94001C0.610411 1.77777 0.650482 1.61748 0.699993 1.46001L1.09999 1.38001C1.88999 1.26001 3.14999 1.18001 4.49999 1.13001C7.33999 1.00001 10.57 1.00001 11 1.00001C12.36 1.00001 15.25 1.06001 17.76 1.17001C19.49 1.25001 21.04 1.35001 21.76 1.48001H21.96V3.55001C21.9587 3.59287 21.9659 3.63556 21.9814 3.67554C21.9969 3.71553 22.0203 3.752 22.0501 3.78278C22.08 3.81356 22.1157 3.83803 22.1552 3.85473C22.1947 3.87144 22.2371 3.88003 22.28 3.88001C22.3658 3.87741 22.4472 3.8415 22.5069 3.77989C22.5666 3.71828 22.6 3.63583 22.6 3.55001V1.42001C22.6185 1.27386 22.5867 1.12577 22.51 1.00001C21.3653 0.686719 20.1865 0.515433 19 0.490012C16.24 0.280012 12.62 0.100012 11 0.0700125C10.4 0.0700125 5.27999 -0.0899875 2.26999 0.0700125C1.67535 0.0993362 1.08372 0.172873 0.499993 0.290012C0.258638 0.332434 0.0297625 0.428084 -0.170007 0.570012C-0.288226 0.690003 -0.374219 0.837911 -0.420007 1.00001C-0.55724 1.5605 -0.637646 2.1334 -0.660007 2.71001C-0.820007 5.00001 -0.820007 8.89001 -0.820007 9.80001C-0.820007 10.71 -0.710007 14.4 -0.590007 16.67C-0.590007 17.4 -0.500007 17.98 -0.460007 18.25C-0.445312 18.433 -0.375591 18.6073 -0.260007 18.75C0.0649932 19.0212 0.467641 19.1822 0.889993 19.21C1.61487 19.2822 2.34512 19.2822 3.06999 19.21C3.73385 19.1294 4.40138 19.0827 5.06999 19.07C5.45917 19.0519 5.84847 19.1027 6.21999 19.22C6.28999 19.22 6.27999 19.36 6.31999 19.48C6.42639 20.0047 6.42639 20.5454 6.31999 21.07C6.19993 21.8468 5.88324 22.5801 5.39999 23.2C5.33754 23.2723 5.29757 23.3612 5.28501 23.4559C5.27244 23.5506 5.28782 23.6469 5.32926 23.733C5.37069 23.819 5.43638 23.8911 5.51823 23.9403C5.60009 23.9895 5.69455 24.0138 5.78999 24.01C6.072 24.0124 6.3535 23.9856 6.62999 23.93C7.78328 23.755 8.86055 23.2477 9.72999 22.47C10.1062 22.0498 10.4411 21.5944 10.73 21.11C11.24 20.27 11.53 19.49 11.82 19.11H11.98C12.67 19.06 14.16 19.16 15.49 19.24C15.5865 19.2455 15.6814 19.2131 15.7543 19.1495C15.8272 19.086 15.8723 18.9964 15.88 18.9C15.8885 18.8499 15.8865 18.7985 15.8742 18.7491C15.862 18.6998 15.8397 18.6535 15.8087 18.6131C15.7777 18.5728 15.7388 18.5392 15.6943 18.5146C15.6497 18.49 15.6006 18.4748 15.55 18.47Z" fill="black"/>
<path d="M24.17 17.31C23.8722 16.8189 23.538 16.351 23.17 15.91C22.55 15.17 21.84 14.4 21.5 14.06C21.4637 14.0231 21.4199 13.9942 21.3717 13.9753C21.3235 13.9563 21.2718 13.9477 21.22 13.95C21.7663 13.1356 22.1469 12.2215 22.34 11.26C22.681 9.60994 22.5029 7.89476 21.83 6.35C21.2104 5.02983 20.1635 3.95727 18.8588 3.3058C17.554 2.65432 16.0676 2.46203 14.64 2.76C13.5534 3.02309 12.5323 3.50639 11.64 4.18C11.0301 4.62533 10.479 5.14614 10 5.73C9.50813 6.32466 9.12554 7.0018 8.87002 7.73C8.327 9.36194 8.38015 11.1336 9.02002 12.73C9.34236 13.5322 9.82148 14.262 10.4293 14.8767C11.0372 15.4914 11.7615 15.9787 12.56 16.31C13.5304 16.7455 14.5851 16.9606 15.6485 16.9398C16.7118 16.9191 17.7574 16.663 18.71 16.19L19 16C19.3043 16.9667 19.7098 17.8986 20.21 18.78C20.6124 19.4754 21.1297 20.0975 21.74 20.62C22.81 21.44 23.8 21.33 24.35 20.76C24.6493 20.4277 24.8165 19.9972 24.82 19.55C24.8088 18.7585 24.5842 17.9846 24.17 17.31ZM18.17 15.15C17.3651 15.5247 16.4879 15.7188 15.6 15.7188C14.7121 15.7188 13.835 15.5247 13.03 15.15C11.7152 14.6003 10.6697 13.5549 10.12 12.24C9.54645 10.9092 9.45798 9.41934 9.87002 8.03C10.0529 7.3974 10.3513 6.80409 10.75 6.28C11.1634 5.73844 11.6401 5.24829 12.17 4.82C12.9535 4.21023 13.8461 3.75544 14.8 3.48C17.72 2.66 20.26 5 21 6.7C21.5473 8.06611 21.659 9.56795 21.32 11C21.1418 11.8831 20.767 12.7147 20.2234 13.4332C19.6798 14.1516 18.9814 14.7384 18.18 15.15H18.17ZM23.55 19.75C23.41 20.18 22.96 20.08 22.45 19.69C21.7614 19.1916 21.1771 18.5631 20.73 17.84C20.2836 17.1433 19.8956 16.4108 19.57 15.65C20.0491 15.2944 20.4794 14.8775 20.85 14.41C20.8605 14.4671 20.8885 14.5195 20.93 14.56C21.23 14.91 21.86 15.71 22.39 16.48C22.6922 16.8959 22.963 17.3338 23.2 17.79C23.5494 18.3797 23.6771 19.0746 23.56 19.75H23.55Z" fill="black"/>
</g>
<defs>
<clipPath id="clip0_1032_3384">
<rect width="24" height="24" fill="white"/>
</clipPath>
</defs>
</svg>
