<svg width="24" height="24" viewBox="0 0 24 24" fill="none" xmlns="http://www.w3.org/2000/svg">
<g clip-path="url(#clip0_1032_3350)">
<path d="M24 9.60001C23.91 7.60001 22.39 4.78001 19.81 2.72001C17.6541 0.978624 14.9713 0.0197515 12.2 1.44963e-05C9.24188 -0.05894 6.36073 0.945206 4.08003 2.83001C1.801 4.74025 0.364331 7.46992 0.0800274 10.43C-0.0999726 13.49 0.380027 15.28 1.45003 16.51C2.52003 17.74 4.39003 18.51 6.93003 19.36C7.02003 19.36 7.05003 19.51 7.10003 19.66C7.21387 20.1704 7.21387 20.6996 7.10003 21.21C6.98501 21.9695 6.67491 22.6862 6.20003 23.29C6.15061 23.355 6.12069 23.4327 6.11378 23.514C6.10687 23.5953 6.12325 23.6769 6.16101 23.7493C6.19876 23.8216 6.25633 23.8818 6.32699 23.9226C6.39765 23.9635 6.47848 23.9834 6.56003 23.98C6.85422 23.9867 7.14848 23.97 7.44003 23.93C8.69623 23.8035 9.91044 23.4079 11 22.77C11.3726 22.4974 11.7087 22.1781 12 21.82C12.69 20.98 13.28 19.92 13.62 19.48C14.03 19.48 15.02 19.48 16.06 19.35C16.6527 19.2891 17.2407 19.1889 17.82 19.05C19.8266 18.5095 21.5595 17.2401 22.68 15.49C23.7162 13.7095 24.1772 11.6524 24 9.60001ZM22 15.08C21.0169 16.6924 19.4646 17.8771 17.65 18.4C17.1047 18.5425 16.55 18.6461 15.99 18.71C14.67 18.87 13.59 18.64 13.26 18.88C12.93 19.12 12.34 20.21 11.7 21.04C11.394 21.4652 11.0267 21.8426 10.61 22.16C9.61342 22.7283 8.50372 23.0697 7.36003 23.16C7.73843 22.4313 7.95664 21.63 8.00003 20.81C8.05972 20.2732 7.99821 19.7299 7.82003 19.22C7.77106 19.0636 7.68837 18.9199 7.57778 18.7989C7.4672 18.678 7.33142 18.5828 7.18003 18.52C4.85003 17.67 3.18003 17.06 2.18003 15.86C1.18003 14.66 0.930027 13.18 1.18003 10.5C1.47543 7.83912 2.80417 5.40071 4.88003 3.71001C6.96492 2.00589 9.58778 1.09852 12.28 1.15001C14.7972 1.14814 17.2418 1.99352 19.22 3.55001C21.57 5.37001 23.03 7.85001 23.15 9.65001C23.3194 11.5417 22.8965 13.4392 21.94 15.08H22Z" fill="black"/>
<path d="M5.18006 8.77004C5.52413 8.9046 5.90592 8.90654 6.25134 8.77548C6.59677 8.64442 6.88118 8.38971 7.04938 8.06077C7.21759 7.73183 7.25759 7.35214 7.16163 6.99537C7.06567 6.6386 6.84058 6.3302 6.53006 6.13003C5.10006 5.28003 3.08006 8.00004 5.18006 8.77004Z" fill="black"/>
<path d="M6.55002 12.16C5.12002 11.32 3.10002 14 5.20002 14.81C5.54298 14.9312 5.91827 14.9236 6.25605 14.7886C6.59382 14.6537 6.87107 14.4006 7.03617 14.0765C7.20128 13.7524 7.243 13.3794 7.15356 13.0268C7.06413 12.6743 6.84964 12.3662 6.55002 12.16Z" fill="black"/>
<path d="M19.38 7.29C18.89 7.23 17.5101 7.09 15.9101 7H14.4301H12.9401C11.4901 7.07 10.1901 7.22 9.48005 7.32C9.44062 7.32254 9.40209 7.33284 9.36665 7.35032C9.33122 7.36779 9.29958 7.39209 9.27357 7.42183C9.24755 7.45156 9.22766 7.48614 9.21505 7.52358C9.20243 7.56102 9.19733 7.60058 9.20005 7.64C9.2052 7.71781 9.24044 7.79055 9.29831 7.84282C9.35618 7.89509 9.43212 7.92277 9.51005 7.92C10.2201 7.92 11.5101 8.04 12.9501 8.1H14.4201H15.8901C17.4801 8 18.8301 8 19.3201 8C19.3647 8.00412 19.4098 7.99935 19.4526 7.98597C19.4955 7.97259 19.5352 7.95087 19.5696 7.92205C19.604 7.89323 19.6324 7.85789 19.653 7.81807C19.6737 7.77824 19.6863 7.73471 19.6901 7.69C19.6971 7.64322 19.6945 7.59551 19.6826 7.54975C19.6706 7.50398 19.6495 7.46111 19.6206 7.42373C19.5916 7.38634 19.5553 7.35522 19.514 7.33224C19.4727 7.30925 19.4271 7.29488 19.38 7.29Z" fill="black"/>
<path d="M19.13 12.76H15.77H14.34C13.86 12.76 13.34 12.76 12.9 12.84C11.27 12.97 9.90003 13.14 9.58003 13.15C9.50046 13.15 9.42416 13.1816 9.3679 13.2379C9.31164 13.2941 9.28003 13.3704 9.28003 13.45C9.28003 13.5296 9.31164 13.6059 9.3679 13.6621C9.42416 13.7184 9.50046 13.75 9.58003 13.75C9.94003 13.75 11.31 13.91 12.98 13.93H14.42C14.86 13.93 15.42 13.87 15.86 13.83C17.19 13.72 18.42 13.57 19.21 13.47C19.3002 13.47 19.3867 13.4342 19.4504 13.3704C19.5142 13.3067 19.55 13.2202 19.55 13.13C19.55 13.0398 19.5142 12.9534 19.4504 12.8896C19.3867 12.8258 19.3002 12.79 19.21 12.79L19.13 12.76Z" fill="black"/>
</g>
<defs>
<clipPath id="clip0_1032_3350">
<rect width="24" height="24" fill="white"/>
</clipPath>
</defs>
</svg>
