<svg width="24" height="24" viewBox="0 0 24 24" fill="none" xmlns="http://www.w3.org/2000/svg">
<g clip-path="url(#clip0_1032_3375)">
<path d="M23.83 2.8C23.8203 2.30718 23.7735 1.81579 23.69 1.33C23.6554 1.15192 23.5683 0.988244 23.44 0.86C23.3059 0.770739 23.1569 0.706377 23 0.67C22.2994 0.539676 21.5914 0.452843 20.88 0.41C18.12 0.18 13.59 0 11.77 0C11.23 0 7.13 0 4.1 0.1C3.20585 0.130691 2.3143 0.214169 1.43 0.35C1.12241 0.388575 0.827992 0.498124 0.57 0.67C0.462101 0.774916 0.382912 0.90575 0.34 1.05C0.218353 1.60909 0.14806 2.17812 0.13 2.75C0 5.07 0 9 0 9.87C0 10.74 0.13 14.49 0.26 16.76C0.26 17.49 0.34 18.06 0.38 18.33C0.388787 18.4676 0.437433 18.5996 0.52 18.71C0.805404 18.9426 1.15343 19.0853 1.52 19.12C2.23486 19.192 2.95514 19.192 3.67 19.12C4.44 19.05 5.1 18.99 5.67 18.99C7.21 18.99 7.08 19.36 7.13 19.55C7.244 20.1008 7.244 20.6692 7.13 21.22C6.98597 22.0254 6.64214 22.7819 6.13 23.42C6.09004 23.4796 6.06778 23.5494 6.06581 23.6211C6.06384 23.6929 6.08222 23.7637 6.11884 23.8254C6.15547 23.8872 6.20882 23.9373 6.27274 23.9699C6.33666 24.0026 6.40851 24.0165 6.48 24.01C6.8712 24.0056 7.26053 23.9552 7.64 23.86C8.63888 23.6754 9.56874 23.2226 10.33 22.55C10.7023 22.1338 11.0369 21.6853 11.33 21.21C11.83 20.42 12.13 19.69 12.41 19.29C12.5 19.29 12.74 19.22 12.98 19.22C14.63 19.22 18.5 19.39 19.88 19.5C20.6092 19.5496 21.3408 19.5496 22.07 19.5C22.4925 19.4936 22.902 19.3536 23.24 19.1C23.56 18.4003 23.7238 17.6394 23.72 16.87C24 14.27 24 9.86 24 9C24 8.14 23.94 4.76 23.83 2.8ZM22.83 15.86C22.8196 16.6227 22.7629 17.3842 22.66 18.14C22.66 18.26 22.59 18.4 22.58 18.45C22.5007 18.4841 22.4161 18.5043 22.33 18.51C22.055 18.5503 21.7778 18.5737 21.5 18.58H20.04C18.83 18.51 15.73 18.4 13.84 18.41C13.3559 18.3996 12.8716 18.4197 12.39 18.47C12.2394 18.4801 12.0975 18.544 11.99 18.65C11.67 19.02 11.35 19.89 10.77 20.83C10.5007 21.2507 10.1891 21.6428 9.84 22C9.0738 22.676 8.12318 23.1078 7.11 23.24C7.53827 22.481 7.79752 21.6385 7.87 20.77C8.1 18.11 6.53 18.27 5.74 18.26C5.16 18.26 4.47 18.26 3.67 18.37C3.10415 18.413 2.53585 18.413 1.97 18.37C1.66513 18.3795 1.3637 18.3033 1.1 18.15L0.9 9.87C0.9 9.16 0.9 6.71 1.01 4.57C1.01 3.46 1.12 2.43 1.21 1.79C1.22837 1.64525 1.25508 1.50167 1.29 1.36C1.42 1.36 1.63 1.36 1.8 1.31C2.93912 1.18549 4.0841 1.12207 5.23 1.12C8.05 1.06 11.29 1.12 11.76 1.12C13.12 1.12 16.02 1.24 18.54 1.39C19.98 1.48 21.29 1.58 22.12 1.68L22.59 1.76C22.5966 1.87657 22.5966 1.99343 22.59 2.11C22.75 3.81 22.82 7.88 22.81 8.99C22.86 9.75 22.93 13.25 22.84 15.86H22.83Z" fill="black"/>
<path d="M19.14 14.65H17.34V13.92C17.43 13.07 17.58 12.26 17.68 11.34C17.7376 10.835 17.7376 10.325 17.68 9.82002C17.6614 9.6427 17.6076 9.47088 17.5217 9.31462C17.4358 9.15836 17.3197 9.02081 17.18 8.91002C16.7999 8.78514 16.3987 8.73754 16 8.77002C15.23 8.77002 14.22 8.92002 13.78 8.98002L12.06 9.19002V8.25002C12.1243 7.58491 12.1243 6.91513 12.06 6.25002C12.0252 6.04673 11.9485 5.85289 11.8349 5.68076C11.7213 5.50862 11.5732 5.36195 11.4 5.25002C11.167 5.10625 10.903 5.02052 10.63 5.00002C10.2105 5.01005 9.79252 5.05352 9.37997 5.13002L5.52997 5.77002V3.32002C5.53268 3.2798 5.52725 3.23945 5.51402 3.20138C5.50079 3.1633 5.48001 3.12829 5.45295 3.09842C5.42588 3.06855 5.39307 3.04444 5.35648 3.02754C5.31989 3.01063 5.28026 3.00127 5.23997 3.00002C5.20024 2.99727 5.16037 3.00274 5.12284 3.01608C5.08532 3.02942 5.05094 3.05034 5.02186 3.07755C4.99277 3.10476 4.9696 3.13766 4.9538 3.17422C4.93799 3.21077 4.92988 3.25019 4.92997 3.29002L4.51997 10.85C4.46075 12.2584 4.5109 13.6693 4.66997 15.07C4.80997 15.73 5.25997 15.91 5.50997 15.88L9.50997 15.79L13.85 15.62L19.13 15.32C19.2201 15.32 19.3066 15.2842 19.3704 15.2204C19.4342 15.1567 19.47 15.0702 19.47 14.98C19.47 14.8898 19.4342 14.8034 19.3704 14.7396C19.3066 14.6758 19.2201 14.64 19.13 14.64L19.14 14.65ZM9.48997 14.65H5.76997C5.60689 13.3599 5.53006 12.0604 5.53997 10.76V6.45002L9.47997 6.17002H10.3C10.4723 6.1495 10.6471 6.17006 10.81 6.23002C10.87 6.23002 10.88 6.36002 10.9 6.44002C10.9413 6.617 10.9615 6.79828 10.96 6.98002V8.31002C11.05 9.90002 11.03 11.48 11.08 13.06C11.08 13.62 11.14 14.19 11.18 14.75L9.48997 14.65ZM13.88 14.65H11.88V13.65C11.88 12.37 11.99 11.09 12.04 9.81002H13.86C14.43 9.81002 16.76 9.87002 16.75 9.88002L16.68 11.22C16.68 12.15 16.61 12.97 16.61 13.83V14.61L13.88 14.65Z" fill="black"/>
</g>
<defs>
<clipPath id="clip0_1032_3375">
<rect width="24" height="24" fill="white"/>
</clipPath>
</defs>
</svg>
