<svg width="24" height="24" viewBox="0 0 24 24" fill="none" xmlns="http://www.w3.org/2000/svg">
<g clip-path="url(#clip0_1032_3379)">
<path d="M23.83 2.8C23.8203 2.30718 23.7735 1.81579 23.69 1.33C23.6554 1.15192 23.5683 0.988244 23.44 0.86C23.3059 0.770739 23.1569 0.706377 23 0.67C22.2994 0.539676 21.5914 0.452843 20.88 0.41C18.12 0.18 13.59 0 11.77 0C11.23 0 7.13 0 4.1 0.1C3.20585 0.130691 2.3143 0.214169 1.43 0.35C1.12241 0.388575 0.827992 0.498124 0.57 0.67C0.462101 0.774916 0.382912 0.90575 0.34 1.05C0.218353 1.60909 0.14806 2.17812 0.13 2.75C0 5.07 0 9 0 9.87C0 10.74 0.13 14.49 0.26 16.76C0.26 17.49 0.34 18.06 0.38 18.33C0.388787 18.4676 0.437433 18.5996 0.52 18.71C0.805404 18.9426 1.15343 19.0853 1.52 19.12C2.23486 19.192 2.95514 19.192 3.67 19.12C4.44 19.05 5.1 18.99 5.67 18.99C7.21 18.99 7.08 19.36 7.13 19.55C7.244 20.1008 7.244 20.6692 7.13 21.22C6.98597 22.0254 6.64214 22.7819 6.13 23.42C6.09004 23.4796 6.06778 23.5494 6.06581 23.6211C6.06384 23.6929 6.08222 23.7637 6.11884 23.8254C6.15547 23.8872 6.20882 23.9373 6.27274 23.9699C6.33666 24.0026 6.40851 24.0165 6.48 24.01C6.8712 24.0056 7.26053 23.9552 7.64 23.86C8.63888 23.6754 9.56874 23.2226 10.33 22.55C10.7023 22.1338 11.0369 21.6853 11.33 21.21C11.83 20.42 12.13 19.69 12.41 19.29C12.5 19.29 12.74 19.22 12.98 19.22C14.63 19.22 18.5 19.39 19.88 19.5C20.6092 19.5496 21.3408 19.5496 22.07 19.5C22.4925 19.4936 22.902 19.3536 23.24 19.1C23.56 18.4003 23.7238 17.6394 23.72 16.87C24 14.27 24 9.86 24 9C24 8.14 23.94 4.76 23.83 2.8ZM22.83 15.86C22.8196 16.6227 22.7629 17.3842 22.66 18.14C22.66 18.26 22.59 18.4 22.58 18.45C22.5007 18.4841 22.4161 18.5043 22.33 18.51C22.055 18.5503 21.7778 18.5737 21.5 18.58H20.04C18.83 18.51 15.73 18.4 13.84 18.41C13.3559 18.3996 12.8716 18.4197 12.39 18.47C12.2394 18.4801 12.0975 18.544 11.99 18.65C11.67 19.02 11.35 19.89 10.77 20.83C10.5007 21.2507 10.1891 21.6428 9.84 22C9.0738 22.676 8.12318 23.1078 7.11 23.24C7.53827 22.481 7.79752 21.6385 7.87 20.77C8.1 18.11 6.53 18.27 5.74 18.26C5.16 18.26 4.47 18.26 3.67 18.37C3.10415 18.413 2.53585 18.413 1.97 18.37C1.66513 18.3795 1.3637 18.3033 1.1 18.15L0.9 9.87C0.9 9.16 0.9 6.71 1.01 4.57C1.01 3.46 1.12 2.43 1.21 1.79C1.22837 1.64525 1.25508 1.50167 1.29 1.36C1.42 1.36 1.63 1.36 1.8 1.31C2.93912 1.18549 4.0841 1.12207 5.23 1.12C8.05 1.06 11.29 1.12 11.76 1.12C13.12 1.12 16.02 1.24 18.54 1.39C19.98 1.48 21.29 1.58 22.12 1.68L22.59 1.76C22.5966 1.87657 22.5966 1.99343 22.59 2.11C22.75 3.81 22.82 7.88 22.81 8.99C22.86 9.75 22.93 13.25 22.84 15.86H22.83Z" fill="black"/>
<path d="M15.74 8.82999C15.5944 8.6301 15.4021 8.46876 15.18 8.35999C15.3403 7.47384 15.3403 6.56614 15.18 5.67999C15.04 4.99706 14.6904 4.37482 14.18 3.89999C13.8108 3.60831 13.3824 3.40081 12.9247 3.29199C12.4669 3.18317 11.991 3.17566 11.53 3.26999C10.6418 3.43622 9.83924 3.90647 9.26001 4.59999C8.90317 5.06919 8.66631 5.61843 8.57001 6.19999C8.4504 6.97876 8.4504 7.77122 8.57001 8.54999L8.09001 8.69999C8.04721 8.7136 8.00754 8.73556 7.97327 8.76459C7.93901 8.79362 7.91084 8.82915 7.89038 8.86913C7.86993 8.90912 7.8576 8.95275 7.8541 8.99753C7.8506 9.0423 7.85601 9.08732 7.87001 9.12999C7.82226 9.1741 7.79356 9.23508 7.79001 9.29999L7.61001 11.85C7.61001 12.27 7.51001 14.03 7.51001 14.77C7.4991 14.9944 7.55477 15.2171 7.67001 15.41C7.86472 15.5626 8.09547 15.6625 8.34001 15.7C8.71774 15.751 9.09901 15.7711 9.48001 15.76L13.54 15.91C13.9881 15.9196 14.4362 15.8929 14.88 15.83C15.1217 15.7987 15.3411 15.6728 15.49 15.48C15.7266 15.1189 15.8771 14.7084 15.93 14.28C15.9997 13.7564 16.0231 13.2277 16 12.7C16 12.08 16 10.7 15.89 9.77999C15.8929 9.45721 15.8422 9.13619 15.74 8.82999ZM9.31001 6.72999C9.39998 6.19167 9.63902 5.68934 10 5.27999C10.462 4.80869 11.0666 4.5029 11.72 4.40999C12.0172 4.33649 12.3264 4.3261 12.6279 4.37949C12.9293 4.43289 13.2162 4.54888 13.47 4.71999C13.866 5.02276 14.1564 5.44266 14.3 5.91999C14.4932 6.63971 14.5542 7.3885 14.48 8.12999C14.12 8.05999 13.74 8.03999 13.48 8.00999C12.8144 7.95601 12.1456 7.95601 11.48 8.00999C10.8054 8.0465 10.1357 8.14695 9.48001 8.30999L9.21001 8.38999C9.18061 7.83466 9.21416 7.27778 9.31001 6.72999ZM14.8 14.13C14.7709 14.3597 14.7033 14.5828 14.6 14.79C14.6 14.79 14.67 14.69 14.69 14.73C14.78 14.95 14 14.79 13.52 14.81H9.52001H8.78001H8.40001C8.40001 14.09 8.33001 12.37 8.34001 11.95L8.39001 9.39999V9.31999L9.59001 8.99999C10.2091 8.87486 10.8385 8.80791 11.47 8.79999C12.1052 8.78972 12.7403 8.82648 13.37 8.90999C13.751 8.94952 14.1286 9.01636 14.5 9.10999C14.6551 9.15143 14.7921 9.24281 14.89 9.36999V12.7C14.899 13.1783 14.8689 13.6566 14.8 14.13Z" fill="black"/>
<path d="M12 11C11.7811 10.9463 11.5515 10.9554 11.3375 11.0261C11.1235 11.0968 10.9338 11.2264 10.79 11.4C10.29 12.14 10.68 13.28 11.58 13.26C11.8444 13.2469 12.0989 13.1552 12.3109 12.9967C12.5229 12.8381 12.6828 12.6199 12.77 12.37C12.811 12.2295 12.8235 12.0822 12.8068 11.9368C12.7901 11.7914 12.7446 11.6508 12.6729 11.5232C12.6012 11.3956 12.5047 11.2836 12.3892 11.1938C12.2737 11.1039 12.1414 11.0381 12 11Z" fill="black"/>
</g>
<defs>
<clipPath id="clip0_1032_3379">
<rect width="24" height="24" fill="white"/>
</clipPath>
</defs>
</svg>
