<svg width="24" height="24" viewBox="0 0 24 24" fill="none" xmlns="http://www.w3.org/2000/svg">
<g clip-path="url(#clip0_1035_5019)">
<path fill-rule="evenodd" clip-rule="evenodd" d="M3.74 18.57C3.74 17.03 4.03 14.09 4.01 11.05C4.01 10.71 3.9 9.6 4.01 9.69C4.12 9.78 3.01 9.69 7.55 9.43C8.78 9.36 10.08 9.27 11.17 9.26C11.2496 9.26 11.3259 9.22839 11.3821 9.17213C11.4384 9.11587 11.47 9.03956 11.47 8.96C11.47 8.88043 11.4384 8.80413 11.3821 8.74787C11.3259 8.69161 11.2496 8.66 11.17 8.66L9.37 8.58C9.41129 8.43335 9.43479 8.28226 9.44 8.13C9.64974 7.40156 9.62879 6.62604 9.38 5.91C9.38 5.81983 9.34418 5.73335 9.28041 5.66958C9.21665 5.60582 9.13017 5.57 9.04 5.57C8.94982 5.57 8.86334 5.60582 8.79958 5.66958C8.73582 5.73335 8.7 5.81983 8.7 5.91C8.48 7.19 8.25 7 8.62 8.55H6.26C6.50745 7.77255 6.50745 6.93745 6.26 6.16C6.26 6.06983 6.22417 5.98335 6.16041 5.91958C6.09665 5.85582 6.01017 5.82 5.92 5.82C5.82982 5.82 5.74334 5.85582 5.67958 5.91958C5.61582 5.98335 5.58 6.06983 5.58 6.16C5.4105 6.73483 5.32297 7.33071 5.32 7.93C5.3508 8.14239 5.39421 8.35276 5.45 8.56C3.22 8.61 2.78 8.5 2.9 10.97C2.60072 10.8695 2.28537 10.8254 1.97 10.84C1.55 10.84 1.17 11.02 0.749997 11.1C0.659823 11.1 0.573343 11.1358 0.50958 11.1996C0.445818 11.2633 0.409997 11.3498 0.409997 11.44C0.409997 11.5302 0.445818 11.6167 0.50958 11.6804C0.573343 11.7442 0.659823 11.78 0.749997 11.78C2.57 12.19 2.3 11.9 2.94 11.85L3 14.19C1.58 13.78 1.62 14.04 0.519997 14.19C0.429823 14.19 0.343343 14.2258 0.27958 14.2896C0.215818 14.3533 0.179997 14.4398 0.179997 14.53C0.179997 14.6202 0.215818 14.7067 0.27958 14.7704C0.343343 14.8342 0.429823 14.87 0.519997 14.87C1.98 15.21 1.98 15.09 2.58 14.96C2.58 14.96 2.98 14.96 3.03 14.84L3 17.42C2.58821 17.2811 2.15414 17.22 1.72 17.24C1.25 17.24 0.819997 17.42 0.359997 17.49C0.269823 17.49 0.183343 17.5258 0.11958 17.5896C0.055818 17.6533 0.0199966 17.7398 0.0199966 17.83C0.0199966 17.9202 0.055818 18.0067 0.11958 18.0704C0.183343 18.1342 0.269823 18.17 0.359997 18.17C1.11045 18.4122 1.91304 18.4433 2.68 18.26C2.68 18.26 2.9 18.26 3.04 18.21V18.59C3.04265 18.6828 3.08207 18.7708 3.14958 18.8346C3.21709 18.8983 3.30717 18.9327 3.4 18.93C3.49282 18.9273 3.58079 18.8879 3.64456 18.8204C3.70832 18.7529 3.74265 18.6628 3.74 18.57Z" fill="black"/>
<path fill-rule="evenodd" clip-rule="evenodd" d="M6.50999 17.49C6.50999 15.37 6.58999 14.23 6.50999 12.92C6.44999 12.21 6.31999 12.19 7.84999 12.17C8.34999 12.17 8.84999 12.09 9.40999 12.08C9.48956 12.08 9.56586 12.0484 9.62213 11.9921C9.67839 11.9359 9.70999 11.8596 9.70999 11.78C9.70999 11.7004 9.67839 11.6241 9.62213 11.5679C9.56586 11.5116 9.48956 11.48 9.40999 11.48H6.23999C5.42999 11.48 5.51999 12.48 5.51999 12.99C5.51999 13.99 5.26999 17.54 5.51999 18.19C5.55006 18.2829 5.60519 18.3656 5.6793 18.4291C5.75341 18.4927 5.84362 18.5345 5.93999 18.55C7.94388 18.7265 9.96247 18.6289 11.94 18.26C12.0166 18.2222 12.0762 18.1569 12.1069 18.0772C12.1375 17.9975 12.1371 17.9091 12.1056 17.8297C12.0741 17.7503 12.0138 17.6856 11.9368 17.6486C11.8598 17.6116 11.7717 17.605 11.69 17.63C9.96363 17.7808 8.22569 17.7338 6.50999 17.49Z" fill="black"/>
<path fill-rule="evenodd" clip-rule="evenodd" d="M23.78 6.51C23.24 5.76 22.07 5.74 20.78 5.37C24 1.79 25 1.07 22.74 0.56C21.3049 0.252844 19.8357 0.135175 18.37 0.21L17.21 0.47C17.1683 0.475505 17.1282 0.489718 17.0924 0.511717C17.0565 0.533715 17.0257 0.563008 17.0019 0.597693C16.9781 0.632378 16.9619 0.671679 16.9542 0.713047C16.9466 0.754414 16.9478 0.796923 16.9576 0.837812C16.9675 0.878702 16.9859 0.917059 17.0115 0.950394C17.0372 0.983728 17.0696 1.01129 17.1066 1.0313C17.1436 1.05131 17.1843 1.06332 17.2263 1.06654C17.2682 1.06976 17.3104 1.06413 17.35 1.05C18.378 0.754121 19.4625 0.712935 20.51 0.93C21.3588 1.01273 22.1966 1.18365 23.01 1.44C22.57 2.17 22.95 1.69 20.01 4.81C19.69 5.15 19.37 5.42 19.58 5.81C19.99 6.52 23.06 6.65 22.94 7.26C22.94 7.41 22.71 7.57 22.6 7.66C19.7852 9.91657 16.7958 11.9463 13.66 13.73C14.33 12.67 17.16 8.62 17.25 8.28C17.49 7.28 14.69 7.39 13.62 6.95C14.4037 5.40718 15.3347 3.94371 16.4 2.58C16.453 2.50707 16.4749 2.41605 16.4609 2.32697C16.4468 2.23789 16.3979 2.15804 16.325 2.105C16.2521 2.05196 16.161 2.03006 16.072 2.04412C15.9829 2.05819 15.903 2.10707 15.85 2.18C10.94 8.67 12.5 7.41 16.15 8.36C13.29 12.36 12.15 13.74 12.15 14.58C12.1414 14.6844 12.1573 14.7893 12.1966 14.8864C12.2358 14.9835 12.2973 15.0701 12.3761 15.1391C12.4548 15.2082 12.5487 15.2578 12.6501 15.284C12.7515 15.3102 12.8576 15.3122 12.96 15.29C13.8952 14.9359 14.7822 14.4656 15.6 13.89C17.7185 12.6115 19.7618 11.2126 21.72 9.7C22.458 9.22302 23.1304 8.6515 23.72 8C23.883 7.78842 23.9764 7.53144 23.9871 7.26455C23.9979 6.99766 23.9255 6.73401 23.78 6.51Z" fill="black"/>
<path fill-rule="evenodd" clip-rule="evenodd" d="M18 17.81C16.42 17.55 16.72 17.34 15 17.67V16.76C15 16.6698 14.9642 16.5833 14.9004 16.5196C14.8367 16.4558 14.7502 16.42 14.66 16.42C14.5698 16.42 14.4833 16.4558 14.4196 16.5196C14.3558 16.5833 14.32 16.6698 14.32 16.76C14.2452 17.3256 14.1384 17.8865 14 18.44C13.9 19.04 13.49 19.52 13.61 19.71C10.3427 19.9611 7.06279 20.0045 3.79 19.84C3.71455 19.8328 3.63917 19.8544 3.57901 19.9005C3.51885 19.9466 3.47837 20.0138 3.46571 20.0885C3.45304 20.1632 3.46913 20.24 3.51074 20.3033C3.55235 20.3667 3.61639 20.4119 3.69 20.43C4.1 20.52 4.69 20.62 5.36 20.71C5.10532 21.526 5.13708 22.4045 5.45 23.2C5.45 23.2902 5.48582 23.3767 5.54958 23.4404C5.61335 23.5042 5.69983 23.54 5.79 23.54C5.88017 23.54 5.96665 23.5042 6.03042 23.4404C6.09418 23.3767 6.13 23.2902 6.13 23.2C6.21837 22.8449 6.28185 22.484 6.32 22.12C6.34082 21.7814 6.2967 21.442 6.19 21.12C6.19 21.12 6.19 20.97 6.19 20.85C6.92 20.93 7.72 21 8.53 21.05C8.39 21.66 8.39 21.63 8.37 21.77C8.38236 22.3397 8.47322 22.9051 8.64 23.45C8.64 23.5402 8.67582 23.6267 8.73958 23.6904C8.80335 23.7542 8.88983 23.79 8.98 23.79C9.07017 23.79 9.15665 23.7542 9.22042 23.6904C9.28418 23.6267 9.32 23.5402 9.32 23.45C9.57137 22.6766 9.57137 21.8434 9.32 21.07C9.91 21.07 10.64 21.07 11.76 21.02C11.4 22.47 11.63 22.3 11.85 23.53C11.85 23.6202 11.8858 23.7067 11.9496 23.7704C12.0133 23.8342 12.0998 23.87 12.19 23.87C12.2802 23.87 12.3667 23.8342 12.4304 23.7704C12.4942 23.7067 12.53 23.6202 12.53 23.53C12.86 21.93 12.7 21.92 12.59 21.41C12.59 21.36 12.59 21.03 12.48 20.95C14.34 20.74 14.65 20.65 14.83 18.49C14.9848 18.5226 15.142 18.5427 15.3 18.55C16.154 18.7598 17.046 18.7598 17.9 18.55C17.9981 18.5633 18.0975 18.537 18.1763 18.477C18.255 18.417 18.3067 18.3281 18.32 18.23C18.3333 18.1319 18.307 18.0325 18.247 17.9537C18.187 17.875 18.0981 17.8233 18 17.81Z" fill="black"/>
</g>
<defs>
<clipPath id="clip0_1035_5019">
<rect width="24" height="24" fill="white"/>
</clipPath>
</defs>
</svg>
