<svg width="24" height="24" viewBox="0 0 24 24" fill="none" xmlns="http://www.w3.org/2000/svg">
<g clip-path="url(#clip0_1035_5029)">
<path fill-rule="evenodd" clip-rule="evenodd" d="M6.05 9.65C5.6085 11.0318 5.41551 12.4809 5.48 13.93C5.45654 15.0662 5.5167 16.2026 5.66 17.33C5.69943 17.6812 5.8082 18.0211 5.98 18.33C6.14736 18.5583 6.36676 18.7435 6.62 18.87C6.91694 19.009 7.22903 19.1131 7.55 19.18C8.0253 19.311 8.51011 19.4046 9 19.46C9.72 19.52 10.45 19.52 11.17 19.52L13.78 19.44C14.7713 19.4444 15.7591 19.3234 16.72 19.08C17.0978 18.97 17.4413 18.7652 17.7178 18.4852C17.9943 18.2052 18.1947 17.8592 18.3 17.48C18.3509 17.3134 18.3877 17.1428 18.41 16.97C18.4515 16.7218 18.4782 16.4714 18.49 16.22V14.52L18.3 11.78C18.2974 11.734 18.2858 11.689 18.2659 11.6475C18.2459 11.606 18.2179 11.5688 18.1835 11.5382C18.1491 11.5075 18.109 11.484 18.0655 11.4688C18.022 11.4537 17.976 11.4473 17.93 11.45C17.8389 11.4552 17.7535 11.4957 17.6918 11.5629C17.6302 11.6302 17.5972 11.7188 17.6 11.81L17.69 14.51L17.63 16.16L17.43 17.22C17.3529 17.4433 17.2209 17.6437 17.0462 17.8027C16.8715 17.9617 16.6596 18.0742 16.43 18.13C15.5503 18.3213 14.6487 18.3919 13.75 18.34H11.21C10.52 18.34 9.82 18.34 9.13 18.27C8.68926 18.2335 8.25156 18.1666 7.82 18.07C7.61647 18.0224 7.41609 17.9623 7.22 17.89C7.0945 17.848 6.98119 17.7759 6.89 17.68C6.80472 17.4621 6.75085 17.2331 6.73 17C6.53878 15.7118 6.4352 14.4122 6.42 13.11C6.33834 12.065 6.433 11.0136 6.7 10C6.88124 9.64433 7.15834 9.34644 7.5 9.14C7.85878 8.92993 8.26445 8.81304 8.68 8.8C8.7219 8.80282 8.76393 8.79682 8.80337 8.78238C8.8428 8.76793 8.87877 8.74537 8.90893 8.71615C8.93909 8.68693 8.96279 8.6517 8.97847 8.61274C8.99416 8.57379 9.0015 8.53197 9 8.49C9.00002 8.44975 8.99194 8.4099 8.97625 8.37283C8.96055 8.33577 8.93755 8.30224 8.90863 8.27425C8.8797 8.24626 8.84544 8.22437 8.80788 8.2099C8.77032 8.19542 8.73023 8.18866 8.69 8.19C8.17127 8.18548 7.65945 8.30914 7.2 8.55C6.71663 8.79531 6.31655 9.17801 6.05 9.65Z" fill="black"/>
<path fill-rule="evenodd" clip-rule="evenodd" d="M15.91 10.08C16.3787 9.36168 16.7804 8.60182 17.11 7.81C17.3308 7.23367 17.4197 6.61518 17.37 6C17.2859 5.50104 17.1415 5.01414 16.94 4.55C16.6404 3.98519 16.428 3.37833 16.31 2.75C16.276 2.32669 16.3664 1.90266 16.57 1.53C16.6065 1.49136 16.6331 1.44449 16.6476 1.39335C16.6621 1.34222 16.664 1.28834 16.6532 1.2363C16.6424 1.18427 16.6192 1.13561 16.5856 1.09446C16.5519 1.05332 16.5089 1.02091 16.46 0.999996C16.422 0.976184 16.3796 0.960136 16.3353 0.952777C16.2911 0.945418 16.2458 0.946894 16.2021 0.95712C16.1584 0.967345 16.1172 0.986118 16.0808 1.01236C16.0444 1.03859 16.0135 1.07178 15.99 1.11C15.6484 1.57199 15.4533 2.12589 15.43 2.7C15.4395 3.45195 15.5923 4.1952 15.88 4.89C16.0307 5.28109 16.1413 5.68652 16.21 6.1C16.2851 6.56924 16.2647 7.04883 16.15 7.51C15.9456 8.29241 15.6815 9.05799 15.36 9.8C15.3252 9.87308 15.3203 9.9569 15.3465 10.0335C15.3727 10.1101 15.4277 10.1735 15.5 10.21C15.5719 10.2456 15.6548 10.2519 15.7312 10.2277C15.8077 10.2034 15.8718 10.1505 15.91 10.08Z" fill="black"/>
<path fill-rule="evenodd" clip-rule="evenodd" d="M10.4 10.08C10.8687 9.36169 11.2704 8.60182 11.6 7.81C11.8208 7.23367 11.9097 6.61518 11.86 6C11.7759 5.50104 11.6315 5.01414 11.43 4.55C11.1262 3.98708 10.9135 3.37953 10.8 2.75C10.766 2.32669 10.8564 1.90266 11.06 1.53C11.1077 1.45308 11.123 1.36036 11.1023 1.27221C11.0817 1.18407 11.0269 1.10774 10.95 1.06C10.8731 1.01226 10.7804 0.997028 10.6922 1.01766C10.6041 1.03829 10.5277 1.09308 10.48 1.17C10.1344 1.62989 9.9389 2.18506 9.92 2.76C9.92954 3.51195 10.0823 4.2552 10.37 4.95C10.5207 5.3411 10.6313 5.74652 10.7 6.16C10.7751 6.62924 10.7547 7.10883 10.64 7.57C10.4311 8.35104 10.1671 9.11629 9.85 9.86C9.81517 9.93308 9.81032 10.0169 9.83649 10.0935C9.86265 10.1701 9.91774 10.2335 9.99 10.27C10.0293 10.2858 10.0714 10.2934 10.1137 10.2923C10.156 10.2912 10.1977 10.2815 10.2361 10.2637C10.2745 10.2459 10.3089 10.2204 10.3371 10.1888C10.3653 10.1572 10.3867 10.1202 10.4 10.08Z" fill="black"/>
<path fill-rule="evenodd" clip-rule="evenodd" d="M13 9.12C13.4721 8.40207 13.8772 7.64219 14.21 6.85C14.4202 6.25742 14.4954 5.62535 14.43 5C14.3453 4.49794 14.201 4.0078 14 3.54C13.699 2.97582 13.4865 2.36873 13.37 1.74C13.3362 1.31868 13.4303 0.89697 13.64 0.529999C13.665 0.490987 13.6818 0.447277 13.6892 0.401553C13.6967 0.355829 13.6948 0.309056 13.6836 0.264106C13.6723 0.219155 13.652 0.176976 13.6239 0.140157C13.5958 0.103339 13.5604 0.0726583 13.52 0.0499991C13.482 0.0261869 13.4396 0.0101388 13.3953 0.00277989C13.3511 -0.00457901 13.3058 -0.00310307 13.2621 0.0071226C13.2184 0.0173483 13.1772 0.0361214 13.1408 0.0623596C13.1044 0.0885978 13.0735 0.121782 13.05 0.159999C12.7134 0.628407 12.519 1.18392 12.49 1.76C12.4992 2.52817 12.6519 3.28786 12.94 4C13.092 4.3907 13.2026 4.79625 13.27 5.21C13.3448 5.67926 13.3244 6.15879 13.21 6.62C13.0056 7.39916 12.7415 8.16142 12.42 8.9C12.4017 8.93656 12.3911 8.97647 12.3887 9.01729C12.3864 9.05811 12.3925 9.09897 12.4065 9.13737C12.4206 9.17576 12.4423 9.21088 12.4704 9.24057C12.4985 9.27025 12.5324 9.29388 12.57 9.31C12.6096 9.33316 12.6542 9.34658 12.7 9.34917C12.7458 9.35176 12.7916 9.34344 12.8336 9.3249C12.8755 9.30635 12.9125 9.2781 12.9414 9.24248C12.9704 9.20686 12.9904 9.16489 13 9.12Z" fill="black"/>
<path fill-rule="evenodd" clip-rule="evenodd" d="M21.89 12.85C23.02 12.55 23.08 12.47 23.08 12.24C23.08 12.01 22.9 11.79 21.77 11.75C21.6369 11.7397 21.5031 11.7397 21.37 11.75C21.2367 11.7635 21.1057 11.7937 20.98 11.84C20.8211 11.9012 20.6673 11.9747 20.52 12.06C20.47 11.42 20.45 10.78 20.38 10.15C20.31 9.52 20.22 9.15 20.15 8.62C20.39 8.62 20.62 8.71 20.86 8.73C20.9896 8.74514 21.1204 8.74514 21.25 8.73C21.3813 8.71979 21.5117 8.69974 21.64 8.67C22.79 8.41 22.89 8.3 22.88 8.05C22.87 7.8 22.73 7.67 21.56 7.58C21.4271 7.56514 21.2929 7.56514 21.16 7.58C21.0253 7.58946 20.8915 7.60952 20.76 7.64C20.5147 7.71405 20.277 7.81115 20.05 7.93C19.96 7.38 19.91 6.84 19.81 6.3C19.7941 6.2085 19.7425 6.12707 19.6665 6.07362C19.5906 6.02017 19.4965 5.99909 19.405 6.015C19.3135 6.03091 19.2321 6.08252 19.1786 6.15847C19.1252 6.23443 19.1041 6.3285 19.12 6.42C19.5411 8.95857 19.7584 11.5268 19.77 14.1V15.1C19.72 15.64 19.64 16.17 19.58 16.71C19.5285 17.3716 19.4044 18.0255 19.21 18.66C19.0883 19.0471 18.8987 19.4094 18.65 19.73C18.4524 19.9575 18.2016 20.1327 17.92 20.24C17.4272 20.4107 16.9113 20.5051 16.39 20.52C15.71 20.58 15.01 20.61 14.32 20.62H11.17C9.81338 20.6848 8.45368 20.6178 7.11 20.42C6.29716 20.3265 5.54662 19.9388 5 19.33C4.67713 18.8394 4.50027 18.2672 4.49 17.68C4.4 16.59 4.49 15.4 4.49 14.59V12.83C4.38848 11.6495 4.34843 10.4646 4.37 9.28C4.34385 8.55081 4.58978 7.83794 5.06 7.28C5.34679 7.0134 5.68795 6.81211 6.06 6.69C6.71222 6.5003 7.38257 6.37964 8.06 6.33C8.10074 6.32746 8.14057 6.31689 8.17722 6.29891C8.21387 6.28094 8.2466 6.2559 8.27354 6.22524C8.30049 6.19458 8.32111 6.15889 8.33423 6.12024C8.34735 6.08159 8.35271 6.04073 8.35 6C8.34279 5.96125 8.32801 5.92431 8.30652 5.89128C8.28502 5.85824 8.25723 5.82977 8.22472 5.80748C8.19222 5.7852 8.15564 5.76953 8.11708 5.76138C8.07853 5.75324 8.03874 5.75277 8 5.76C7.29099 5.80194 6.5877 5.91246 5.9 6.09C5.40877 6.2308 4.95236 6.47262 4.56 6.8C4.08053 7.28283 3.76858 7.90673 3.67 8.58C3.66507 8.61315 3.66507 8.64685 3.67 8.68C3.46 8.68 3.25 8.57 3.03 8.54H2.61C2.472 8.54947 2.33493 8.56953 2.2 8.6C0.999999 8.86 0.899999 9 0.919999 9.24C0.939999 9.48 1.07 9.6 2.27 9.69C2.40649 9.69988 2.54351 9.69988 2.68 9.69C2.81624 9.70527 2.95376 9.70527 3.09 9.69C3.25797 9.65664 3.42214 9.60639 3.58 9.54C3.49 10.75 3.58 12.03 3.58 12.87V13.45C3.45553 13.4138 3.3285 13.387 3.2 13.37H2.88C2.77174 13.3803 2.66463 13.4004 2.56 13.43C1.56 13.69 1.47 13.82 1.48 14.04C1.49 14.26 1.58 14.4 2.63 14.52C2.74313 14.5297 2.85687 14.5297 2.97 14.52C3.08173 14.518 3.1927 14.5012 3.3 14.47C3.39257 14.4361 3.48278 14.396 3.57 14.35V14.62C3.47493 15.7741 3.44821 16.9328 3.49 18.09C3.41238 18.054 3.33215 18.0239 3.25 18C3.1405 17.9852 3.0295 17.9852 2.92 18H2.61C1.61 18.25 1.61 18.41 1.61 18.61C1.61 18.81 1.61 18.94 2.69 19.09C2.78642 19.0998 2.88358 19.0998 2.98 19.09C3.07639 19.1003 3.17361 19.1003 3.27 19.09C3.39885 19.0701 3.52592 19.04 3.65 19C3.75188 19.3582 3.91422 19.6964 4.13 20C4.69851 20.6857 5.46808 21.1754 6.33 21.4C6.28068 21.4904 6.23725 21.584 6.2 21.68C6.12005 21.9558 6.09291 22.2442 6.12 22.53C6.23 23.92 6.52 23.87 6.64 23.87C6.76 23.87 6.95 23.78 7.21 22.61C7.21 22.48 7.27 22.35 7.29 22.22C7.29999 22.0902 7.29999 21.9598 7.29 21.83V21.65C8.56079 21.8 9.84112 21.8535 11.12 21.81H11.41C11.3693 21.904 11.3359 22.0009 11.31 22.1C11.2947 22.2162 11.2947 22.3338 11.31 22.45C11.3001 22.5698 11.3001 22.6902 11.31 22.81C11.49 23.89 11.65 23.98 11.87 23.98C12.09 23.98 12.21 23.9 12.4 22.82C12.4104 22.7069 12.4104 22.5931 12.4 22.48C12.41 22.3669 12.41 22.2531 12.4 22.14C12.3759 22.0285 12.3459 21.9183 12.31 21.81H14.31C14.82 21.81 15.31 21.75 15.83 21.71V21.84C15.8203 21.9531 15.8203 22.0669 15.83 22.18C15.8208 22.2931 15.8208 22.4069 15.83 22.52C16.03 23.52 16.22 23.64 16.43 23.62C16.64 23.6 16.74 23.62 16.92 22.5C16.9304 22.3936 16.9304 22.2864 16.92 22.18C16.9299 22.0702 16.9299 21.9598 16.92 21.85C16.92 21.77 16.92 21.7 16.85 21.62C17.3577 21.5758 17.8563 21.4579 18.33 21.27C18.7661 21.0853 19.1506 20.797 19.45 20.43C19.7628 19.9979 19.9964 19.5137 20.14 19C20.253 18.6068 20.3365 18.2056 20.39 17.8C20.53 17.8 20.68 17.89 20.83 17.92H21.23C21.3614 17.9106 21.4918 17.8905 21.62 17.86C22.78 17.59 22.84 17.49 22.83 17.25C22.82 17.01 22.72 16.88 21.55 16.77C21.4235 16.7601 21.2965 16.7601 21.17 16.77C21.0435 16.7597 20.9165 16.7597 20.79 16.77L20.49 16.86C20.4947 16.8403 20.4947 16.8197 20.49 16.8C20.49 16.26 20.6 15.71 20.63 15.17V14.04C20.63 13.66 20.56 13.25 20.54 12.85C20.7738 12.8956 21.0119 12.9158 21.25 12.91C21.4649 12.913 21.6794 12.8929 21.89 12.85Z" fill="black"/>
</g>
<defs>
<clipPath id="clip0_1035_5029">
<rect width="24" height="24" fill="white"/>
</clipPath>
</defs>
</svg>
