<svg width="24" height="24" viewBox="0 0 24 24" fill="none" xmlns="http://www.w3.org/2000/svg">
<g clip-path="url(#clip0_1047_6220)">
<path fill-rule="evenodd" clip-rule="evenodd" d="M6.8 15C6.85839 14.5148 6.749 14.0243 6.49 13.61C6.18193 13.1299 5.81954 12.687 5.41 12.29C5.07551 11.9337 4.71808 11.5996 4.34 11.29C3.86 10.89 3.41 10.59 2.71 9.98999C2.5 9.81999 2.18 9.59999 1.9 9.35999L3.05 8.80999C3.47704 8.57667 3.96963 8.49222 4.45 8.56999C4.88475 8.78356 5.23643 9.13524 5.45 9.56999C5.4724 9.61966 5.50471 9.66422 5.54496 9.70096C5.5852 9.73769 5.63252 9.76582 5.68402 9.78361C5.73552 9.8014 5.79012 9.80848 5.84445 9.80442C5.89879 9.80036 5.95172 9.78524 6 9.75999C6.04341 9.73511 6.08149 9.70191 6.11204 9.66228C6.14258 9.62265 6.16501 9.57738 6.17801 9.52907C6.19102 9.48075 6.19436 9.43034 6.18784 9.38074C6.18131 9.33113 6.16506 9.2833 6.14 9.23999C5.86529 8.60172 5.37752 8.07861 4.76 7.75999C4.09928 7.5696 3.39322 7.61197 2.76 7.87999L1.18 8.48999L0.780001 8.68999C0.646488 8.76911 0.544584 8.89213 0.491693 9.03804C0.438801 9.18394 0.438203 9.34369 0.490001 9.48999C0.609017 9.70886 0.757019 9.91068 0.930001 10.09C1.24 10.42 1.66 10.73 1.93 10.97C2.75 11.69 3.21 11.97 3.81 12.53C4.02 12.72 4.26 12.94 4.54 13.22C4.9084 13.5163 5.24368 13.8516 5.54 14.22C5.67699 14.3905 5.75427 14.6013 5.76 14.82C5.76 15.26 5.26 15.44 4.86 15.41C4.46 15.38 4.05 15.12 4.17 14.59C4.2083 14.4318 4.26188 14.2778 4.33 14.13C4.39224 13.9743 4.4728 13.8266 4.57 13.69C4.59627 13.6539 4.61516 13.6129 4.6256 13.5695C4.63605 13.5261 4.63784 13.4811 4.63088 13.437C4.62391 13.3928 4.60833 13.3505 4.58501 13.3125C4.5617 13.2744 4.53111 13.2413 4.495 13.215C4.45889 13.1887 4.41795 13.1698 4.37454 13.1594C4.33112 13.1489 4.28608 13.1471 4.24197 13.1541C4.19786 13.1611 4.15556 13.1767 4.11747 13.2C4.07939 13.2233 4.04627 13.2539 4.02 13.29C3.88837 13.4506 3.77439 13.625 3.68 13.81C3.57304 13.9936 3.48588 14.188 3.42 14.39C3.33479 14.6103 3.30392 14.8478 3.32999 15.0826C3.35606 15.3173 3.43831 15.5423 3.56977 15.7385C3.70124 15.9348 3.87805 16.0964 4.08523 16.2098C4.29241 16.3232 4.52387 16.385 4.76 16.39C5.21314 16.4619 5.67665 16.3581 6.05581 16.0998C6.43497 15.8414 6.70117 15.448 6.8 15Z" fill="black"/>
<path fill-rule="evenodd" clip-rule="evenodd" d="M16.35 21.7801C15.5754 22.1892 14.7367 22.4631 13.87 22.5901C12.7249 22.8197 11.5372 22.7013 10.46 22.2501C9.88369 22.022 9.32827 21.7442 8.8 21.4201C7.95474 20.8821 7.0301 20.4805 6.06 20.2301C5.69963 20.1135 5.31721 20.0818 4.94255 20.1373C4.56789 20.1928 4.2111 20.334 3.9 20.5501C3.8582 20.5796 3.82298 20.6175 3.79657 20.6613C3.77015 20.7051 3.75312 20.754 3.74654 20.8047C3.73996 20.8555 3.74398 20.907 3.75835 20.9561C3.77271 21.0053 3.79711 21.0509 3.83 21.0901C3.86044 21.1307 3.8987 21.1648 3.94254 21.1904C3.98638 21.216 4.03489 21.2325 4.08523 21.239C4.13556 21.2455 4.18669 21.2419 4.2356 21.2284C4.28451 21.2148 4.33021 21.1916 4.37 21.1601C4.59768 21.0502 4.84721 20.9932 5.1 20.9932C5.35279 20.9932 5.60232 21.0502 5.83 21.1601C6.66826 21.45 7.45484 21.872 8.16 22.4101C8.73803 22.8102 9.35439 23.1519 10 23.4301C10.6613 23.7181 11.3627 23.9036 12.08 23.9801C12.7708 24.0346 13.4659 23.9806 14.14 23.8201C15.1229 23.5882 16.055 23.1781 16.89 22.6101C17.5862 22.1874 18.1105 21.5321 18.37 20.7601C18.16 20.4801 17.86 20.5201 17.49 20.8201C17.1909 21.2253 16.8003 21.5543 16.35 21.7801Z" fill="black"/>
<path fill-rule="evenodd" clip-rule="evenodd" d="M23.36 12.25C23.2203 12.063 23.0414 11.9088 22.8359 11.7982C22.6303 11.6877 22.403 11.6234 22.17 11.61C21.7212 11.5914 21.2731 11.6593 20.85 11.81C20.85 11.81 20.79 11.81 20.75 11.81C20.71 11.81 20.75 11.74 20.8 11.7C20.8723 11.2818 20.8237 10.8516 20.66 10.46C20.5846 10.1993 20.4271 9.96997 20.2109 9.80601C19.9947 9.64205 19.7313 9.55227 19.46 9.55002C19.3803 9.54039 19.2997 9.54039 19.22 9.55002C19.2305 9.34581 19.1904 9.14216 19.1031 8.95722C19.0159 8.77228 18.8843 8.61178 18.72 8.49002C18.505 8.35545 18.253 8.29243 18 8.31002C17.7132 8.32507 17.4301 8.38235 17.16 8.48002C17.07 8.48002 16.99 8.58002 16.9 8.62002C16.915 8.34022 16.915 8.05982 16.9 7.78002C16.9099 7.62018 16.9099 7.45987 16.9 7.30002C16.8762 7.14806 16.8428 6.99775 16.8 6.85002C16.68 6.48002 16.52 6.17002 16.4 5.85002C16.4472 5.81272 16.4849 5.76474 16.51 5.71002C16.6402 5.30752 16.724 4.89151 16.76 4.47002C16.7926 4.0388 16.769 3.60519 16.69 3.18002C16.6288 2.9052 16.5241 2.6419 16.38 2.40002C16.1767 2.07473 15.9423 1.76996 15.68 1.49002C14.9204 0.621934 13.8502 0.0868652 12.7 2.21366e-05C11.5799 -0.0651481 10.4704 0.248325 9.55 0.890022C8.66126 1.49732 7.93642 2.31491 7.44 3.27002C7.25918 3.62265 7.15177 4.00829 7.12427 4.40362C7.09677 4.79895 7.14975 5.19575 7.28 5.57002C7.40505 5.87191 7.57718 6.15206 7.79 6.40002C8.08818 6.73398 8.42371 7.0326 8.79 7.29002C9.07295 7.51587 9.38179 7.70722 9.71 7.86002C9.94592 7.94903 10.1906 8.01272 10.44 8.05002C10.4256 8.10916 10.4256 8.17089 10.44 8.23002C10.56 8.60002 10.62 8.95002 10.76 9.32002C10.82 9.47002 10.89 9.61002 10.96 9.75002C11.0442 9.88954 11.1377 10.0232 11.24 10.15C11.37 10.31 11.51 10.46 11.65 10.61C11.0677 11.125 10.5625 11.7211 10.15 12.38C9.96765 12.6978 9.81692 13.0328 9.7 13.38C9.57599 13.7048 9.479 14.0393 9.41 14.38C9.26797 15.1885 9.23099 16.012 9.3 16.83C9.29575 16.8806 9.30224 16.9315 9.31905 16.9794C9.33587 17.0273 9.36262 17.0711 9.39757 17.108C9.43251 17.1448 9.47485 17.1738 9.5218 17.1931C9.56875 17.2125 9.61926 17.2216 9.67 17.22C9.77178 17.2228 9.87059 17.1856 9.94533 17.1165C10.0201 17.0473 10.0648 16.9517 10.07 16.85C10.1711 16.1145 10.3453 15.3909 10.59 14.69C10.69 14.39 10.8 14.1 10.91 13.81L11.26 12.95C11.4752 12.4577 11.7224 11.9801 12 11.52C12.0377 11.5372 12.0786 11.546 12.12 11.546C12.1614 11.546 12.2023 11.5372 12.24 11.52C12.6963 11.2869 13.1909 11.1379 13.7 11.08C13.9156 11.0715 14.1306 11.109 14.3306 11.1901C14.5306 11.2711 14.7111 11.3938 14.86 11.55C14.95 11.64 15.17 11.73 15.28 11.82C15.1801 11.826 15.0799 11.826 14.98 11.82C14.6434 11.8693 14.3096 11.936 13.98 12.02C13.8039 12.0674 13.6419 12.1568 13.5078 12.2804C13.3737 12.4041 13.2715 12.5583 13.21 12.73C13.149 12.9763 13.149 13.2337 13.21 13.48C13.32 14.06 13.72 14.83 13.75 15.23C13.8032 15.6142 13.7257 16.0051 13.53 16.34C13.3001 16.6839 12.9825 16.9601 12.61 17.14C12.5627 17.1596 12.5199 17.1885 12.4841 17.225C12.4482 17.2615 12.4201 17.3048 12.4014 17.3525C12.3828 17.4001 12.3739 17.451 12.3754 17.5021C12.3768 17.5532 12.3886 17.6036 12.41 17.65C12.4295 17.6973 12.4584 17.7401 12.4949 17.776C12.5314 17.8118 12.5748 17.8399 12.6224 17.8586C12.6701 17.8773 12.721 17.8861 12.7721 17.8847C12.8232 17.8832 12.8735 17.8714 12.92 17.85C13.4613 17.6515 13.9359 17.305 14.29 16.85C14.3685 16.7299 14.4354 16.6027 14.49 16.47L15.8 19C15.702 19.0366 15.6081 19.0835 15.52 19.14C15.3788 19.2361 15.2481 19.3467 15.13 19.47C14.9667 19.6752 14.7896 19.8689 14.6 20.05C14.5081 20.0935 14.4368 20.1711 14.4013 20.2664C14.3658 20.3617 14.369 20.467 14.41 20.56C14.4554 20.6526 14.5349 20.7241 14.6318 20.7595C14.7287 20.7949 14.8356 20.7915 14.93 20.75C15.2398 20.7019 15.5423 20.6146 15.83 20.49C15.9471 20.4319 16.0577 20.3615 16.16 20.28C16.2651 20.2031 16.3593 20.1123 16.44 20.01C16.6342 20.2018 16.8816 20.3307 17.15 20.38C17.76 20.46 18.29 20.55 18.71 19.83C18.9021 19.4557 19.0015 19.0407 19 18.62C19.007 18.1903 18.9667 17.761 18.88 17.34C19.153 16.9193 19.4679 16.5273 19.82 16.17C20.1697 15.8195 20.5669 15.5199 21 15.28C21.49 14.99 22.14 14.81 22.64 14.48C22.9226 14.2908 23.1669 14.0499 23.36 13.77C23.5167 13.5476 23.6007 13.2821 23.6007 13.01C23.6007 12.7379 23.5167 12.4725 23.36 12.25ZM17.36 9.40002C17.5179 9.36202 17.6783 9.33529 17.84 9.32002C17.9084 9.31695 17.9757 9.33821 18.03 9.38002C18.17 9.51002 18.03 9.69002 18.03 9.87002C17.958 10.0364 17.8675 10.1941 17.76 10.34C17.57 10.48 17.4 10.63 17.26 10.75C17.1137 10.8695 16.9766 10.9998 16.85 11.14C16.7775 11.2304 16.7139 11.3275 16.66 11.43C16.6109 11.517 16.5851 11.6152 16.5851 11.715C16.5851 11.8149 16.6109 11.913 16.66 12C16.6966 12.0826 16.7503 12.1564 16.8175 12.2168C16.8848 12.2771 16.964 12.3225 17.05 12.35C17.1272 12.3839 17.2107 12.4014 17.295 12.4014C17.3793 12.4014 17.4628 12.3839 17.54 12.35L17.72 12.22L17.93 12.06L18.47 11.52C18.5091 11.4753 18.5458 11.4286 18.58 11.38C18.7682 11.2327 18.969 11.1022 19.18 10.99C19.33 10.92 19.49 10.83 19.57 10.99C19.6633 11.1684 19.7048 11.3693 19.69 11.57C19.6568 11.7905 19.571 11.9997 19.44 12.18C19.3327 12.346 19.2123 12.5032 19.08 12.65C18.9627 12.7896 18.8283 12.9139 18.68 13.02C18.5328 13.1132 18.3666 13.1724 18.1936 13.1931C18.0206 13.2139 17.8451 13.1957 17.68 13.14C17.2767 13.0273 16.924 12.7803 16.68 12.44C16.6213 12.3581 16.5368 12.2982 16.44 12.27C16.4419 12.2467 16.4419 12.2233 16.44 12.2C16.4846 12.0661 16.5022 11.9248 16.4919 11.784C16.4816 11.6433 16.4436 11.506 16.38 11.38C16.1523 11.0824 15.8665 10.834 15.54 10.65L15.41 10.58C15.6201 10.3266 15.8621 10.1014 16.13 9.91002C16.5127 9.67346 16.9316 9.50117 17.37 9.40002H17.36ZM10.66 7.31002C10.6169 7.31802 10.576 7.33506 10.54 7.36002C10.3534 7.32184 10.1722 7.26141 10 7.18002C9.73667 7.02876 9.49171 6.84755 9.27 6.64002C9.04776 6.44235 8.84052 6.22843 8.65 6.00002C8.4778 5.7854 8.34569 5.5415 8.26 5.28002C8.19595 5.02956 8.1851 4.76844 8.22816 4.51353C8.27122 4.25861 8.36723 4.01555 8.51 3.80002C8.95099 3.06976 9.55726 2.45322 10.28 2.00002C10.9643 1.5199 11.7842 1.27112 12.62 1.29002C13.4555 1.30569 14.2547 1.63395 14.86 2.21002C15.0526 2.39124 15.233 2.585 15.4 2.79002C15.5451 2.96703 15.6538 3.17092 15.72 3.39002C15.8112 3.71536 15.855 4.05217 15.85 4.39002C15.8377 4.65228 15.8042 4.91313 15.75 5.17002C15.08 5.53002 14.36 5.87002 13.63 6.17002L12.79 6.56002L12.24 6.82002C11.7446 7.071 11.2105 7.23666 10.66 7.31002ZM14.75 10.24C14.4964 10.1515 14.2285 10.1108 13.96 10.12C13.4963 10.1525 13.0439 10.2783 12.63 10.49C12.52 10.18 12.43 9.86002 12.31 9.55002C12.25 9.40002 12.19 9.25002 12.12 9.11002C12.0417 8.96676 11.9478 8.8326 11.84 8.71002C11.6421 8.45376 11.4211 8.21611 11.18 8.00002C11.8546 8.05433 12.5333 7.97966 13.18 7.78002C13.6538 7.61566 14.1042 7.39044 14.52 7.11002C14.8965 6.86268 15.2571 6.59216 15.6 6.30002C15.5498 6.53706 15.5197 6.77792 15.51 7.02002C15.4899 7.18274 15.4899 7.34731 15.51 7.51002C15.5394 7.66922 15.5795 7.82624 15.63 7.98002C15.74 8.34002 15.9 8.67002 16.04 8.98002C15.9 9.07002 15.74 9.11002 15.61 9.21002C15.2733 9.50823 14.9833 9.85546 14.75 10.24ZM17.75 18.5C17.7319 18.662 17.7018 18.8225 17.66 18.98C17.66 19.08 17.61 19.2 17.52 19.22L17.06 18.65L14.73 15.5V15.18L14.37 13.18C14.4599 13.185 14.5501 13.185 14.64 13.18C15.013 13.1407 15.3794 13.0533 15.73 12.92C15.7942 12.879 15.8544 12.8321 15.91 12.78C15.91 12.78 15.91 12.83 15.91 12.86C16.2326 13.3929 16.7314 13.7961 17.32 14C17.32 14 17.32 14.06 17.32 14.1C17.32 15.01 17.65 16.21 17.76 17.3C17.8049 17.699 17.8015 18.1019 17.75 18.5ZM22.26 13.06C22.1622 13.201 22.0362 13.3202 21.89 13.41C21.42 13.74 20.82 13.97 20.37 14.28C19.6354 14.7917 19.0406 15.4793 18.64 16.28C18.4175 15.5645 18.2372 14.8366 18.1 14.1C18.4745 14.1262 18.8487 14.0465 19.18 13.87C19.3616 13.7521 19.5322 13.6183 19.69 13.47C19.8246 13.341 19.9515 13.2041 20.07 13.06C20.3195 12.9454 20.5768 12.8485 20.84 12.77C21.2316 12.6802 21.6384 12.6802 22.03 12.77C22.1338 12.7948 22.2257 12.8549 22.29 12.94C22.29 12.94 22.3 13 22.26 13.06Z" fill="black"/>
</g>
<defs>
<clipPath id="clip0_1047_6220">
<rect width="24" height="24" fill="white"/>
</clipPath>
</defs>
</svg>
