<svg width="24" height="24" viewBox="0 0 24 24" fill="none" xmlns="http://www.w3.org/2000/svg">
<path d="M7.24999 16.47C7.57846 16.5505 7.92152 16.5505 8.24999 16.47C8.61925 16.3881 8.9462 16.1749 9.16999 15.87C9.30613 15.662 9.38917 15.4237 9.41183 15.1762C9.4345 14.9286 9.39609 14.6793 9.29999 14.45C9.15798 14.0949 8.89637 13.8007 8.56038 13.6181C8.2244 13.4355 7.83516 13.376 7.45999 13.45C7.19064 13.4898 6.93779 13.6041 6.72999 13.78C6.5284 13.9531 6.36941 14.1704 6.26536 14.4149C6.16131 14.6595 6.11498 14.9247 6.12999 15.19C6.15189 15.4962 6.27312 15.7869 6.47526 16.0179C6.6774 16.2489 6.94941 16.4076 7.24999 16.47ZM7.38999 14.41C7.48272 14.2885 7.61267 14.2007 7.75999 14.16C7.93758 14.1342 8.11817 14.1796 8.26241 14.2864C8.40664 14.3931 8.50282 14.5526 8.52999 14.73C8.55437 14.8222 8.55525 14.919 8.53253 15.0116C8.50982 15.1042 8.46425 15.1896 8.39999 15.26C8.29613 15.3379 8.16981 15.38 8.03999 15.38C7.88554 15.4173 7.72443 15.4173 7.56999 15.38C7.47295 15.3612 7.38566 15.3088 7.32347 15.2319C7.26128 15.1551 7.22818 15.0588 7.22999 14.96C7.22343 14.7643 7.27949 14.5716 7.38999 14.41Z" fill="black"/>
<path d="M11.56 4.99998L13.16 4.28998C13.91 3.93998 14.68 3.60998 15.44 3.28998C15.92 2.60998 15.71 2.28998 14.28 2.75998C13.76 2.92998 13.28 3.10998 12.74 3.29998C12.2 3.48998 11.64 3.72998 11.1 3.95998C10.56 4.18998 10.02 4.43998 9.49001 4.70998L9.12001 4.91998C7.26001 6.15998 7.27001 6.51998 8.31001 6.39998L10 5.66998L11.56 4.99998Z" fill="black"/>
<path d="M22 6.39C21.8869 5.54988 21.6926 4.72268 21.42 3.92C21.2664 3.64087 21.0782 3.38218 20.86 3.15C20.5682 2.88775 20.2287 2.68405 19.86 2.55L17.06 1.46C16.47 1.24 15.9 1 15.32 0.850002C14.74 0.700002 14.16 0.490002 13.57 0.330002C13.22 0.240002 12.87 0.120002 12.5 0.060002C12.2214 0.020608 11.9386 0.020608 11.66 0.060002C11.1954 0.127603 10.7571 0.317409 10.39 0.610002C9.91567 0.963526 9.48587 1.37317 9.11 1.83C8.44 2.66 7.81 3.53 7.22 4.43C6.63 5.33 6.07 6.25 5.56 7.18C4.77 8.62 3.87 10.18 3.17 11.78C2.76 12.71 2 14.9 2 14.93C2 15.62 1.85 16.54 1.87 17.4C1.86643 17.9999 1.99265 18.5935 2.24 19.14C2.48306 19.5878 2.82507 19.9743 3.24 20.27C3.80305 20.6611 4.39096 21.0152 5 21.33C6.05902 21.9516 7.15431 22.5093 8.28 23C9.04794 23.3385 9.84888 23.5966 10.67 23.77C11.2267 23.9019 11.798 23.9624 12.37 23.95C12.7918 23.9347 13.2064 23.8362 13.59 23.66C14.3974 23.2671 15.1078 22.7001 15.67 22C16.4059 21.0026 17.0741 19.9569 17.67 18.87C18.36 17.72 18.99 16.57 19.55 15.39C20.1141 14.1994 20.6181 12.9812 21.06 11.74C21.27 11.15 21.58 10.51 21.78 9.88C21.8789 9.59367 21.9525 9.2992 22 9C22.114 8.13374 22.114 7.25627 22 6.39ZM6.27 7.58C6.37 7.41 9.27 3.19 9.87 2.46C10.2018 2.05877 10.5813 1.69945 11 1.39C11.22 1.21518 11.4821 1.10136 11.76 1.06C11.9448 1.05115 12.1299 1.06798 12.31 1.11C12.64 1.18 19.4 3.61 19.4 3.61C19.6041 3.68761 19.7987 3.78826 19.98 3.91C20.0301 3.94615 20.072 3.99243 20.103 4.04584C20.134 4.09925 20.1534 4.15859 20.16 4.22C20.2029 5.10043 20.0456 5.97913 19.7 6.79L19.43 7.42C19.08 8.23 18.72 9.04 18.34 9.84C17.96 10.64 17.56 11.43 17.13 12.19C16.49 13.32 15.87 14.45 15.22 15.57C15.1797 15.6277 15.143 15.6878 15.11 15.75C14.2364 15.0649 13.3102 14.4496 12.34 13.91C11.79 13.59 11.23 13.29 10.66 13.02C10.09 12.75 9.57 12.51 9 12.27L5.85 11C5.39449 10.8667 4.92995 10.7664 4.46 10.7C5.05 9.65 5.69 8.58 6.27 7.58ZM3.79 12.06C3.91 11.81 4.04 11.56 4.17 11.31C4.77077 11.4437 5.35448 11.645 5.91 11.91C6.8 12.31 7.65 12.82 8.46 13.25C9.27 13.68 10 14 10.84 14.37C11.68 14.74 12.42 15.07 13.18 15.47C13.7082 15.7474 14.2222 16.0511 14.72 16.38C14.44 16.84 14.15 17.29 13.85 17.74C13.5708 18.2072 13.26 18.6549 12.92 19.08C12.734 19.3089 12.4882 19.482 12.21 19.58C12.0841 19.6002 11.9559 19.6002 11.83 19.58C11.5806 19.5489 11.3335 19.5021 11.09 19.44C10.63 19.34 10.19 19.23 9.76 19.1C9.32564 18.9709 8.9012 18.8104 8.49 18.62C8.07 18.42 7.65 18.2 7.24 17.97C6.83 17.74 6.43 17.48 6.05 17.22C5.38 16.76 4.53 16.32 3.8 15.79C3.4618 15.507 3.1079 15.2432 2.74 15C2.9883 13.9866 3.34015 13.0014 3.79 12.06ZM21.21 8.84C21.1512 9.18318 21.054 9.51863 20.92 9.84C20.71 10.38 20.44 10.91 20.25 11.41C19.77 12.62 19.25 13.78 18.66 14.92C18.07 16.06 17.45 17.16 16.75 18.26C16.1485 19.3019 15.4804 20.304 14.75 21.26C14.3088 21.8415 13.7456 22.3194 13.1 22.66C12.7877 22.8082 12.4457 22.8834 12.1 22.88C11.6937 22.8584 11.2893 22.8083 10.89 22.73C10.1343 22.5939 9.39393 22.3828 8.68 22.1C7.58161 21.6481 6.50987 21.1339 5.47 20.56C4.87549 20.2909 4.30072 19.9801 3.75 19.63C3.42245 19.416 3.14593 19.1327 2.94 18.8C2.72665 18.3563 2.61072 17.8722 2.6 17.38C2.56981 16.8237 2.56981 16.2663 2.6 15.71C2.83767 15.9604 3.09517 16.1911 3.37 16.4C4.09 16.94 4.94 17.4 5.6 17.88C6 18.16 6.41 18.43 6.83 18.69C7.26 18.94 7.69 19.18 8.13 19.4C8.5699 19.6149 9.02435 19.7987 9.49 19.95C9.94994 20.1003 10.4172 20.2271 10.89 20.33C11.1696 20.4063 11.4534 20.4664 11.74 20.51C11.9778 20.5337 12.2179 20.5168 12.45 20.46C12.8908 20.3229 13.2853 20.0668 13.59 19.72C13.9574 19.2716 14.2916 18.797 14.59 18.3C15.1 17.58 15.59 16.85 16.03 16.1C16.71 15 17.35 13.87 18.03 12.74C18.39 12.12 18.74 11.48 19.03 10.83C19.52 9.83 19.97 8.83 20.4 7.89C20.6708 7.29617 20.9013 6.68479 21.09 6.06C21.09 6.2 21.09 6.34 21.16 6.49C21.2812 7.26762 21.298 8.05794 21.21 8.84Z" fill="black"/>
<path d="M11.57 7.99997C11.03 8.25997 10.5 8.52997 9.98 8.80997C9 9.33997 8 9.90997 7.1 10.51C6.57 11.06 6.56 11.34 8 10.85C8.27 10.72 8.53 10.57 8.81 10.44C9.74 10.01 10.69 9.62997 11.63 9.22997C12.57 8.82997 13.52 8.40997 14.47 7.99997C15.68 7.43997 16.9 6.86997 18.13 6.33997C18.41 6.21997 18.7 6.11997 18.98 6.00997C20.18 5.26997 19.73 4.88997 18.98 5.15997C18.59 5.27997 18.19 5.37997 17.8 5.51997C16.54 5.99997 15.28 6.47997 14 6.99997C13.21 7.29997 12.38 7.63997 11.57 7.99997Z" fill="black"/>
</svg>
