<svg width="24" height="24" viewBox="0 0 24 24" fill="none" xmlns="http://www.w3.org/2000/svg">
<g clip-path="url(#clip0_1050_8247)">
<path fill-rule="evenodd" clip-rule="evenodd" d="M13.4 10.94C13.4013 10.8985 13.3943 10.8571 13.3793 10.8183C13.3644 10.7795 13.3417 10.7442 13.3128 10.7143C13.2839 10.6845 13.2493 10.6607 13.211 10.6445C13.1727 10.6283 13.1316 10.62 13.09 10.62C12.49 10.52 11.93 10.38 11.33 10.31C11.0736 10.2948 10.8164 10.2948 10.56 10.31C10.3026 10.312 10.0455 10.3287 9.79 10.36C9.18146 10.4274 8.57945 10.5444 7.99 10.71C7.90076 10.7299 7.82242 10.7829 7.77087 10.8584C7.71932 10.9339 7.69842 11.0262 7.71242 11.1165C7.72642 11.2069 7.77426 11.2885 7.84624 11.3449C7.91822 11.4012 8.00894 11.4281 8.1 11.42C8.7 11.42 9.28 11.42 9.87 11.5C10.2664 11.5201 10.6636 11.5201 11.06 11.5C11.74 11.5 12.39 11.36 13.06 11.28C13.1054 11.2829 13.1509 11.2762 13.1935 11.2601C13.2361 11.2441 13.2748 11.2191 13.3069 11.187C13.3391 11.1548 13.3641 11.1161 13.3801 11.0735C13.3962 11.0309 13.4029 10.9854 13.4 10.94Z" fill="black"/>
<path fill-rule="evenodd" clip-rule="evenodd" d="M18.78 15.08C18.727 15.0004 18.6445 14.9452 18.5507 14.9265C18.4569 14.9077 18.3596 14.927 18.28 14.98C18.2004 15.0331 18.1452 15.1155 18.1264 15.2093C18.1077 15.3031 18.127 15.4004 18.18 15.48C18.6392 16.1019 19.0283 16.7726 19.34 17.48C19.5189 17.8878 19.5402 18.3474 19.4 18.77C19.2165 19.1922 18.9006 19.5432 18.5 19.77C17.8259 20.1608 17.1074 20.4697 16.36 20.69L12.72 21.92C11.678 22.371 10.5769 22.6707 9.45 22.81C8.76172 22.858 8.07274 22.727 7.45 22.43C7.37 22.43 7.33 22.32 7.28 22.24C7.23 22.16 7.1 21.88 7.02 21.73C6.8 21.29 6.58 20.84 6.37 20.39C6.16 19.94 6 19.45 5.78 19C4.85 16.72 3.89 14.47 3.15 12.14C2.65059 10.5923 2.29245 9.00242 2.08 7.39001C2.07625 7.34923 2.06445 7.3096 2.04529 7.2734C2.02613 7.23721 1.99999 7.20517 1.96838 7.17913C1.93676 7.1531 1.9003 7.13358 1.86111 7.12172C1.82191 7.10986 1.78075 7.10588 1.74 7.11001C1.69791 7.11377 1.65698 7.12583 1.61957 7.1455C1.58217 7.16516 1.54903 7.19204 1.52206 7.22458C1.4951 7.25712 1.47485 7.29468 1.46248 7.33509C1.45011 7.3755 1.44587 7.41796 1.45 7.46001C1.59867 9.11679 1.89655 10.7568 2.34 12.36C2.98 14.75 3.86 17.07 4.68 19.41C4.86 19.89 5.05 20.41 5.26 20.85C5.47 21.29 5.69 21.79 5.92 22.25C6.05767 22.5526 6.22516 22.8407 6.42 23.11C6.5539 23.2758 6.72075 23.412 6.91 23.51C7.72535 23.9 8.62883 24.069 9.53 24C10.7679 23.838 11.9766 23.5013 13.12 23L16.7 21.65C17.5111 21.3629 18.2837 20.9767 19 20.5C19.5473 20.1621 19.9715 19.6573 20.21 19.06C20.3903 18.4452 20.3478 17.7865 20.09 17.2C19.7311 16.4481 19.2919 15.7373 18.78 15.08Z" fill="black"/>
<path fill-rule="evenodd" clip-rule="evenodd" d="M21.67 12.64C20.42 12.48 19.18 12.31 17.93 12.25C17.1 12.2 16.27 12.25 15.44 12.2C15.1802 12.2151 14.9198 12.2151 14.66 12.2C14.5256 12.1932 14.3919 12.1765 14.26 12.15L14.57 11.56C14.5915 11.5247 14.6058 11.4854 14.6119 11.4445C14.618 11.4036 14.6159 11.3619 14.6056 11.3218C14.5954 11.2818 14.5772 11.2441 14.5522 11.2112C14.5272 11.1783 14.4958 11.1507 14.46 11.13C14.4239 11.1082 14.3839 11.0938 14.3422 11.0876C14.3005 11.0813 14.258 11.0834 14.2171 11.0936C14.1763 11.1038 14.1378 11.122 14.104 11.1471C14.0701 11.1723 14.0416 11.2038 14.02 11.24C13.89 11.43 13.71 11.62 13.56 11.82C13.4828 11.9288 13.4127 12.0423 13.35 12.16C13.3212 12.2228 13.3064 12.291 13.3064 12.36C13.3064 12.429 13.3212 12.4973 13.35 12.56C13.4882 12.7162 13.6544 12.845 13.84 12.94C13.8984 12.9645 13.9586 12.9845 14.02 13C13.8365 13.1625 13.7191 13.3867 13.69 13.63C13.6632 13.8162 13.685 14.0061 13.7534 14.1813C13.8217 14.3566 13.9342 14.5111 14.08 14.63C14.2175 14.7445 14.3777 14.8286 14.5501 14.8769C14.7224 14.9251 14.903 14.9364 15.08 14.91C15.2696 14.8843 15.4493 14.81 15.6018 14.6944C15.7542 14.5788 15.8742 14.4257 15.95 14.25C16.0122 14.1046 16.0442 13.9481 16.0442 13.79C16.0442 13.6319 16.0122 13.4754 15.95 13.33C16.59 13.33 17.23 13.42 17.86 13.43H18.2C18.1722 13.4984 18.1488 13.5686 18.13 13.64C18.1032 13.8262 18.125 14.0161 18.1934 14.1913C18.2617 14.3666 18.3742 14.5211 18.52 14.64C18.6579 14.754 18.8181 14.8378 18.9903 14.886C19.1626 14.9342 19.343 14.9458 19.52 14.92C19.7078 14.8927 19.8855 14.8177 20.0361 14.7021C20.1866 14.5866 20.305 14.4344 20.38 14.26C20.4895 13.9769 20.4895 13.6631 20.38 13.38H21.57C21.6242 13.389 21.6798 13.3857 21.7326 13.3705C21.7854 13.3554 21.8341 13.3286 21.8753 13.2922C21.9165 13.2558 21.949 13.2107 21.9706 13.1602C21.9922 13.1096 22.0022 13.0549 22 13C22.0003 12.9095 21.9665 12.8222 21.9054 12.7555C21.8442 12.6888 21.7602 12.6476 21.67 12.64ZM15.09 13.64C15.0581 13.6732 15.0157 13.6944 14.97 13.7L14.73 13.64V13.47C14.7824 13.4125 14.8474 13.368 14.92 13.34V13.39C14.98 13.39 15 13.44 15.04 13.47C15.08 13.5 15.09 13.6 15.12 13.66L15.09 13.64ZM19.35 13.39C19.41 13.39 19.43 13.44 19.47 13.47C19.5107 13.5265 19.5381 13.5914 19.55 13.66C19.5351 13.6776 19.5168 13.692 19.4962 13.7023C19.4755 13.7127 19.453 13.7187 19.43 13.72L19.19 13.66V13.49C19.2296 13.4576 19.2733 13.4307 19.32 13.41L19.35 13.39Z" fill="black"/>
<path fill-rule="evenodd" clip-rule="evenodd" d="M13.17 7.99999C12.7149 7.82668 12.2467 7.68958 11.77 7.58999C11.5624 7.55021 11.3514 7.53012 11.14 7.52999C10.9303 7.51507 10.7197 7.51507 10.51 7.52999C10.0206 7.60395 9.53874 7.72107 9.07001 7.87999C9.02333 7.88841 8.97878 7.90598 8.93892 7.93167C8.89906 7.95737 8.86466 7.99068 8.83771 8.02971C8.81077 8.06874 8.7918 8.11271 8.78189 8.15909C8.77199 8.20547 8.77135 8.25336 8.78001 8.29999C8.78724 8.34625 8.80368 8.3906 8.82837 8.43039C8.85305 8.47019 8.88546 8.50463 8.92369 8.53167C8.96193 8.55871 9.00519 8.57781 9.05094 8.58782C9.09668 8.59784 9.14397 8.59858 9.19001 8.58999C9.67001 8.58999 10.12 8.64999 10.58 8.66999H11.5C12.03 8.66999 12.5 8.56999 13.09 8.54999C13.1308 8.55559 13.1722 8.55303 13.212 8.54244C13.2518 8.53185 13.289 8.51346 13.3216 8.48833C13.3542 8.4632 13.3814 8.43183 13.4017 8.39606C13.4221 8.36029 13.4351 8.32083 13.44 8.27999C13.4337 8.20951 13.4035 8.1433 13.3544 8.09237C13.3053 8.04144 13.2402 8.00884 13.17 7.99999Z" fill="black"/>
<path fill-rule="evenodd" clip-rule="evenodd" d="M10.9 12.8C10.6836 12.7849 10.4664 12.7849 10.25 12.8C10.0315 12.8153 9.81438 12.8453 9.6 12.89C9.1 12.99 8.6 13.14 8.13 13.28C8.04076 13.2999 7.96242 13.3529 7.91087 13.4284C7.85932 13.5039 7.83842 13.5962 7.85242 13.6865C7.86642 13.7769 7.91426 13.8585 7.98624 13.9149C8.05822 13.9712 8.14894 13.9981 8.24 13.99H9.71H10.34C10.55 13.99 10.75 13.99 10.96 13.92C11.45 13.84 11.91 13.71 12.41 13.63C12.4949 13.63 12.5763 13.5963 12.6363 13.5363C12.6963 13.4763 12.73 13.3949 12.73 13.31C12.73 13.2251 12.6963 13.1438 12.6363 13.0837C12.5763 13.0237 12.4949 12.99 12.41 12.99C11.911 12.896 11.4067 12.8326 10.9 12.8Z" fill="black"/>
<path fill-rule="evenodd" clip-rule="evenodd" d="M1.67001 5.85C1.45001 5.24 1.83001 4.74 2.47001 4.28C2.47001 4.68 2.58001 5.07 2.65001 5.46C2.85001 6.52 3.11001 7.57 3.32001 8.63C3.50001 9.51 3.69001 10.4 3.92001 11.29C4.26001 12.61 4.66001 13.92 5.13001 15.21C7.81001 22.69 7.56001 22.21 11.32 21.21C11.8 21.08 12.27 20.94 12.73 20.77C13.42 20.53 14.09 20.23 14.73 19.96C15.6 19.57 16.47 19.2 17.32 18.79C17.89 18.51 18.46 18.22 19.02 17.9C19.1034 17.8535 19.1656 17.7765 19.1936 17.6852C19.2215 17.5938 19.2131 17.4952 19.17 17.41C19.1254 17.3273 19.0502 17.2653 18.9605 17.2373C18.8709 17.2093 18.7738 17.2174 18.69 17.26C18.12 17.51 17.55 17.74 16.97 17.95C16.08 18.27 15.19 18.56 14.3 18.86L12 19.81C11.23 20.12 10.47 20.44 9.68001 20.68C9.30486 20.7867 8.92433 20.8735 8.54001 20.94C7.83001 19.38 7.22001 17.76 6.66001 16.11C6.24001 14.84 5.86001 13.55 5.48001 12.26C5.10001 10.97 4.66001 9.67 4.32001 8.39C4.02001 7.39 3.65001 6.33 3.32001 5.29C3.20001 4.85 3.09001 4.41 3.01001 3.96C3.26001 3.82 3.51001 3.68 3.80001 3.55C4.09001 3.42 4.70001 3.14 5.17001 3C5.84001 2.75 6.54001 2.5 7.25001 2.26C13.25 0.26 12.81 0.67 13.05 1.33C13.14 1.58 13.19 1.85 13.26 2.09C13.33 2.33 13.49 2.67 13.65 2.95C13.81 3.23 14.2 3.71 14.47 4.12C14.4864 4.15877 14.5102 4.19394 14.5402 4.22347C14.5702 4.25301 14.6057 4.27634 14.6447 4.29214C14.6838 4.30793 14.7255 4.31587 14.7676 4.3155C14.8097 4.31513 14.8513 4.30647 14.89 4.29C14.9284 4.27466 14.9634 4.2518 14.9928 4.22274C15.0223 4.19369 15.0456 4.15904 15.0614 4.12083C15.0773 4.08262 15.0853 4.04163 15.0851 4.00027C15.0848 3.95891 15.0763 3.91802 15.06 3.88C14.9881 3.39115 14.8744 2.90938 14.72 2.44C14.5948 2.14461 14.4512 1.85738 14.29 1.58C14.1169 1.3041 13.93 1.0371 13.73 0.78C13.3825 0.442249 12.9711 0.177092 12.52 0C10.6151 0.187568 8.7309 0.54567 6.89001 1.07C6.1509 1.27983 5.42607 1.53703 4.72001 1.84C4.22001 2.06 3.72001 2.3 3.32001 2.54C1.51001 3.61 0.490007 4.88 1.08001 6.1C1.11509 6.17659 1.17813 6.23687 1.25622 6.26847C1.33431 6.30008 1.42153 6.30063 1.50001 6.27C1.53878 6.25363 1.57394 6.22976 1.60348 6.19978C1.63302 6.1698 1.65635 6.13428 1.67214 6.09527C1.68793 6.05625 1.69587 6.01451 1.69551 5.97242C1.69514 5.93033 1.68648 5.88873 1.67001 5.85Z" fill="black"/>
<path fill-rule="evenodd" clip-rule="evenodd" d="M8.00001 3.55999C7.67001 3.67999 7.35001 3.81999 7.00001 3.91999C6.80208 4.06019 6.58699 4.17445 6.36001 4.25999C6.3406 4.25313 6.31942 4.25313 6.30001 4.25999C6.24001 4.19999 6.30001 4.25999 6.30001 4.25999C6.36001 4.31999 6.30001 4.33999 6.41001 4.32999C6.26397 4.14734 6.10702 3.97369 5.94001 3.80999C5.74579 3.60064 5.53872 3.4036 5.32001 3.21999C5.25969 3.16878 5.18253 3.14175 5.10344 3.1441C5.02434 3.14645 4.94893 3.17802 4.89175 3.23271C4.83457 3.2874 4.79968 3.36134 4.79382 3.44025C4.78796 3.51916 4.81154 3.59745 4.86001 3.65999C5.02001 3.86999 5.16001 4.07999 5.30001 4.29999C5.44001 4.51999 5.55001 4.75999 5.66001 4.99999C5.73409 5.10468 5.83345 5.18893 5.94885 5.24488C6.06426 5.30083 6.19194 5.32667 6.32001 5.31999C6.69284 5.30697 7.06248 5.24648 7.42001 5.13999C7.79048 5.02447 8.15154 4.88072 8.50001 4.70999C9.26001 4.33999 9.97001 3.85999 10.75 3.54999C10.97 3.48999 10.93 3.44999 11.14 2.72999C11.1552 2.64735 11.1552 2.56263 11.14 2.47999C11.1496 2.40028 11.1496 2.3197 11.14 2.23999C10.93 1.31999 10.78 1.29999 10.61 1.29999C10.44 1.29999 10.26 1.29999 10 2.20999C9.99116 2.29309 9.99116 2.37689 10 2.45999C9.98479 2.54263 9.98479 2.62735 10 2.70999C10.12 3.15999 10.4 2.82999 9.09001 3.26999L8.00001 3.55999Z" fill="black"/>
<path fill-rule="evenodd" clip-rule="evenodd" d="M23 7.07C22.8735 6.77304 22.637 6.53653 22.34 6.41C21.9096 6.24604 21.4587 6.14174 21 6.1C20.3068 6.01517 19.6082 5.98175 18.91 6C17.91 6 16.96 6.1 15.98 6.19C15.9132 6.0303 15.8221 5.88188 15.71 5.75C15.4598 5.45313 15.1744 5.18784 14.86 4.96C14.831 4.92583 14.7951 4.89813 14.7548 4.8787C14.7144 4.85928 14.6703 4.84855 14.6255 4.84722C14.5807 4.84589 14.5362 4.85398 14.4947 4.87098C14.4532 4.88798 14.4158 4.9135 14.3848 4.94589C14.3538 4.97827 14.33 5.01681 14.3148 5.059C14.2997 5.10118 14.2936 5.14608 14.2969 5.19078C14.3002 5.23548 14.3129 5.27898 14.3341 5.31846C14.3553 5.35795 14.3846 5.39254 14.42 5.42C14.5893 5.63682 14.7398 5.86766 14.87 6.11C14.9824 6.31854 15.0569 6.5454 15.09 6.78C15.1145 6.93571 15.1145 7.0943 15.09 7.25C15.0457 7.55453 14.9788 7.85535 14.89 8.15L14.51 10.15C14.4921 10.2143 14.493 10.2823 14.5125 10.346C14.532 10.4098 14.5693 10.4667 14.62 10.51H14.48C14.438 10.5073 14.3958 10.5129 14.3559 10.5265C14.3161 10.5402 14.2793 10.5615 14.2477 10.5894C14.2161 10.6173 14.1903 10.6511 14.1719 10.689C14.1534 10.7268 14.1426 10.768 14.14 10.81C14.1372 10.8932 14.167 10.9743 14.2231 11.0359C14.2791 11.0975 14.3569 11.1348 14.44 11.14C15.17 11.27 15.86 11.44 16.58 11.55C16.89 11.55 17.2 11.63 17.51 11.65C17.82 11.67 18.14 11.65 18.45 11.65C19.189 11.6365 19.9268 11.5831 20.66 11.49C20.7555 11.49 20.8471 11.4521 20.9146 11.3846C20.9821 11.317 21.02 11.2255 21.02 11.13C21.0115 11.0714 20.9873 11.0161 20.95 10.97C21.0272 11.0195 21.1207 11.0368 21.2104 11.0181C21.3002 10.9994 21.379 10.9462 21.43 10.87L22.36 9.52C22.6442 9.04616 22.8597 8.53439 23 8C23.0939 7.69712 23.0939 7.37289 23 7.07ZM19.07 7.07C19.0145 7.10371 18.9695 7.15218 18.94 7.21C18.7028 7.53166 18.4825 7.86545 18.28 8.21H17.96C17.37 8.21 16.79 8.3 16.19 8.33C16.123 8.32633 16.0565 8.34382 16 8.38C16.1269 8.05698 16.2207 7.72193 16.28 7.38C16.2837 7.19538 16.2669 7.01093 16.23 6.83C16.95 6.83 17.67 6.92 18.39 6.99C18.6 7 18.83 7.05 19.06 7.07H19.07ZM17 10.33C16.37 10.33 15.75 10.33 15.13 10.41C15.13 10.41 15.2 10.36 15.21 10.32L15.9 8.74C15.9057 8.79771 15.9274 8.85266 15.9628 8.89862C15.9982 8.94458 16.0457 8.97971 16.1 9C16.72 9.15 17.32 9.31 17.95 9.4C17.95 9.74 17.88 10.07 17.87 10.4C17.57 10.38 17.26 10.34 17 10.33ZM20.85 10.42C20.8134 10.4766 20.7939 10.5426 20.7939 10.61C20.7939 10.6774 20.8134 10.7434 20.85 10.8C20.7931 10.7535 20.7233 10.7256 20.65 10.72C19.97 10.67 19.31 10.56 18.65 10.48C18.78 10.15 18.95 9.84 19.09 9.48H19.31C19.8785 9.51828 20.4434 9.5985 21 9.72C21.0557 9.73485 21.1143 9.73485 21.17 9.72L20.85 10.42ZM21.96 8.14C21.8556 8.45217 21.7286 8.75631 21.58 9.05L21.49 9.21C21.4711 9.16876 21.4434 9.13216 21.4089 9.10279C21.3743 9.07342 21.3338 9.05198 21.29 9.04C20.7322 8.76235 20.1453 8.5477 19.54 8.4H19.44C19.49 8.08 19.53 7.77 19.57 7.4C19.5894 7.34468 19.5922 7.28489 19.5779 7.22802C19.5637 7.17115 19.5331 7.11969 19.49 7.08C19.94 7.08 20.39 7.17 20.83 7.26L21.51 7.35C21.6392 7.37271 21.7663 7.40616 21.89 7.45C21.89 7.45 21.97 7.45 21.99 7.45C22.0266 7.56407 22.0385 7.68465 22.0247 7.80366C22.0109 7.92267 21.9718 8.03735 21.91 8.14H21.96Z" fill="black"/>
</g>
<defs>
<clipPath id="clip0_1050_8247">
<rect width="24" height="24" fill="white"/>
</clipPath>
</defs>
</svg>
