<svg width="24" height="24" viewBox="0 0 24 24" fill="none" xmlns="http://www.w3.org/2000/svg">
<g clip-path="url(#clip0_1046_5683)">
<path fill-rule="evenodd" clip-rule="evenodd" d="M8.94 20.19H5.81C5.31 20.19 4.56 20.19 3.91 20.13C3.55331 20.128 3.20525 20.0201 2.91 19.82C2.61776 19.4172 2.4508 18.9372 2.43 18.44C2.35168 17.5985 2.35168 16.7515 2.43 15.91C2.51 14.44 2.73 11.24 2.89 8.40999C3.03 6.12999 3.13 4.07999 3.15 3.40999C3.14166 3.07478 3.16848 2.73962 3.23 2.40999C3.26244 2.17198 3.37122 1.95092 3.54 1.77999C3.83546 1.56481 4.17852 1.42416 4.54 1.36999C4.61 1.83999 4.8 2.62999 4.97 3.25999C5.05515 3.63267 5.19679 3.99013 5.39 4.31999C5.76276 4.5262 6.16899 4.665 6.59 4.72999C7.39 4.89999 8.46 5.04999 8.99 5.11999C9.65564 5.17228 10.3244 5.17228 10.99 5.11999C11.4666 5.09286 11.9375 5.00205 12.39 4.84999C12.7013 4.64371 12.9421 4.3471 13.08 3.99999C13.4805 3.10573 13.8147 2.18325 14.08 1.23999C14.3987 1.36169 14.6642 1.59185 14.83 1.88999C14.9567 2.09973 15.0638 2.32066 15.15 2.54999C15.2307 2.78168 15.2942 3.01899 15.34 3.25999C15.4887 4.56118 15.5555 5.87043 15.54 7.17999C15.54 9.47999 15.54 12 15.41 13.18C15.4043 13.2697 15.4333 13.3581 15.491 13.427C15.5487 13.4959 15.6307 13.5399 15.72 13.55C15.8112 13.5555 15.901 13.5252 15.9702 13.4654C16.0393 13.4056 16.0823 13.3211 16.09 13.23C16.2 12.08 16.32 9.52999 16.36 7.22999C16.3988 5.87215 16.3588 4.51319 16.24 3.15999C16.1865 2.84703 16.1062 2.53923 16 2.23999C15.9068 1.95246 15.7862 1.67452 15.64 1.40999C15.4127 0.985251 15.0647 0.6373 14.64 0.409993C14.0284 0.147088 13.3649 0.0273761 12.7 0.0599926L6.71 -7.35e-06C5.93283 -0.0255 5.15515 0.0314853 4.39 0.169993C3.80901 0.268214 3.26021 0.504884 2.79 0.859993C2.48728 1.12502 2.26835 1.47252 2.16 1.85999C2.04017 2.33706 1.98634 2.8283 2 3.31999L1.51 15.83C1.45532 16.8917 1.52919 17.9561 1.73 19C1.822 19.507 2.05409 19.9781 2.4 20.36C2.71795 20.6073 3.09923 20.7598 3.5 20.8C4.26463 20.8685 5.03283 20.8885 5.8 20.86L9 20.79C9.07956 20.79 9.15587 20.7584 9.21213 20.7021C9.26839 20.6459 9.3 20.5696 9.3 20.49C9.2976 20.4461 9.28619 20.4031 9.26646 20.3638C9.24673 20.3246 9.21911 20.2897 9.18533 20.2616C9.15155 20.2334 9.11233 20.2126 9.07012 20.2002C9.02791 20.1879 8.98362 20.1844 8.94 20.19ZM6.69 1.18999L12.69 1.12999H13.36C13.19 1.55999 12.91 2.26999 12.6 2.89999C12.11 3.89999 12.4 4.00999 10.87 4.04999C10.259 4.05669 9.64809 4.02998 9.04 3.96999L6 3.58999C5.78422 3.11038 5.59396 2.6197 5.43 2.11999C5.32166 1.82487 5.22821 1.52449 5.15 1.21999C5.66033 1.15177 6.17535 1.12502 6.69 1.13999V1.18999Z" fill="black"/>
<path fill-rule="evenodd" clip-rule="evenodd" d="M22.41 18.68C22.3345 18.1145 22.2277 17.5536 22.09 17C22.0669 16.9139 22.0249 16.834 21.967 16.7661C21.9091 16.6983 21.8368 16.6442 21.7554 16.6078C21.674 16.5714 21.5855 16.5536 21.4963 16.5557C21.4072 16.5578 21.3196 16.5798 21.24 16.62C20.569 16.9266 19.9432 17.3236 19.38 17.8C19.3753 17.5656 19.3553 17.3318 19.32 17.1C19.297 16.8059 19.197 16.5231 19.03 16.28C18.8596 16.0678 18.6298 15.9111 18.37 15.83C17.9197 15.7371 17.4586 15.7069 17 15.74H14.38C13.6588 15.7231 12.9373 15.7532 12.22 15.83C11.7232 15.8871 11.2358 16.0081 10.77 16.19C10.7232 16.2051 10.6806 16.2311 10.6459 16.2659C10.6111 16.3006 10.5851 16.3432 10.57 16.39C10.543 16.4286 10.5259 16.4732 10.52 16.52C10.4552 16.9138 10.4151 17.3112 10.4 17.71C10.35 18.64 10.4 19.71 10.34 20.43C10.34 20.84 10.28 21.88 10.34 22.53C10.344 22.7722 10.3879 23.0121 10.47 23.24C10.6041 23.4917 10.8241 23.6869 11.09 23.79C11.3784 23.9135 11.6866 23.9846 12 24L16.46 24.05C16.9797 24.0179 17.4952 23.9375 18 23.81C18.3459 23.7237 18.6482 23.5138 18.85 23.22C18.9593 23.046 19.0435 22.8575 19.1 22.66C19.1772 22.4021 19.2308 22.1376 19.26 21.87C19.2547 21.8034 19.2547 21.7366 19.26 21.67C19.8419 22.1734 20.4716 22.6189 21.14 23C21.266 23.0882 21.4162 23.1355 21.57 23.1355C21.7238 23.1355 21.874 23.0882 22 23C22.1655 22.7994 22.2727 22.5573 22.31 22.3C22.4327 21.666 22.5128 21.0246 22.55 20.38C22.5406 19.8109 22.4938 19.243 22.41 18.68ZM18.32 18.6C18.32 19.23 18.32 19.86 18.26 20.5C18.26 20.91 18.2 21.33 18.16 21.75C18.1388 21.9115 18.1087 22.0718 18.07 22.23C18.035 22.3636 17.9812 22.4916 17.91 22.61C17.83 22.75 17.6 22.75 17.38 22.78C16.98 22.78 16.56 22.84 16.32 22.87L12 23C11.8242 23.0248 11.6458 23.0248 11.47 23C11.3836 22.9887 11.303 22.9502 11.24 22.89C11.1715 22.6189 11.1412 22.3395 11.15 22.06V20.51C11.15 19.87 11.08 19.01 11.07 18.19V16.88C11.4634 16.756 11.8691 16.6755 12.28 16.64C12.9659 16.595 13.6541 16.595 14.34 16.64L16.94 16.75C17.2197 16.7312 17.5003 16.7312 17.78 16.75C17.9516 16.7587 18.1131 16.8341 18.23 16.96C18.3062 17.1815 18.3335 17.4169 18.31 17.65C18.3289 17.9663 18.3323 18.2834 18.32 18.6ZM21.26 22C20.6033 21.6693 19.9832 21.2705 19.41 20.81C19.41 20.81 19.41 20.81 19.36 20.81V20.25V18.65H19.42C19.944 18.2275 20.5312 17.89 21.16 17.65C21.16 18.04 21.23 18.42 21.25 18.81C21.27 19.2 21.32 19.81 21.31 20.38C21.3285 20.9205 21.3118 21.4616 21.26 22Z" fill="black"/>
</g>
<defs>
<clipPath id="clip0_1046_5683">
<rect width="24" height="24" fill="white"/>
</clipPath>
</defs>
</svg>
