<svg width="24" height="24" viewBox="0 0 24 24" fill="none" xmlns="http://www.w3.org/2000/svg">
<g clip-path="url(#clip0_1046_5704)">
<path fill-rule="evenodd" clip-rule="evenodd" d="M9 20.31H6.36C5.85 20.31 4.93 20.31 4.13 20.23C3.72766 20.2147 3.33705 20.0903 3 19.87C2.70776 19.4672 2.5408 18.9872 2.52 18.49C2.44669 17.6416 2.44669 16.7884 2.52 15.94C2.6 14.46 2.82 11.25 2.99 8.41001C3.12 6.11001 3.22 4.06001 3.23 3.36001C3.22637 3.0245 3.25652 2.68948 3.32 2.36001C3.35244 2.122 3.46122 1.90093 3.63 1.73001C3.92565 1.51329 4.26827 1.3694 4.63 1.31001C4.7 1.78001 4.89 2.58001 5.06 3.22001C5.11398 3.59357 5.22177 3.95734 5.38 4.30001C5.75488 4.50139 6.16027 4.6399 6.58 4.71001C7.39 4.88001 8.47 5.03001 8.99 5.09001C9.65566 5.14177 10.3243 5.14177 10.99 5.09001C11.4677 5.06413 11.9391 4.96983 12.39 4.81001C12.7237 4.62855 12.9901 4.34456 13.15 4.00001C13.5514 3.0924 13.8856 2.15655 14.15 1.20001C14.4741 1.33135 14.7451 1.56715 14.92 1.87001C15.0434 2.08349 15.1472 2.30775 15.23 2.54001C15.3197 2.773 15.3867 3.01412 15.43 3.26001C15.5682 4.20389 15.6417 5.15611 15.65 6.11001C15.65 7.66001 15.65 9.30001 15.56 10.47C15.5514 10.5202 15.5539 10.5717 15.5673 10.6209C15.5807 10.6701 15.6046 10.7157 15.6375 10.7546C15.6703 10.7936 15.7113 10.8249 15.7575 10.8464C15.8037 10.8678 15.854 10.879 15.905 10.879C15.956 10.879 16.0063 10.8678 16.0525 10.8464C16.0987 10.8249 16.1397 10.7936 16.1725 10.7546C16.2054 10.7157 16.2293 10.6701 16.2427 10.6209C16.2561 10.5717 16.2586 10.5202 16.25 10.47C16.36 9.29001 16.44 7.63001 16.44 6.05001C16.4501 5.04763 16.3966 4.04563 16.28 3.05001C16.2338 2.75151 16.1635 2.45722 16.07 2.17001C15.9691 1.88387 15.8454 1.60631 15.7 1.34001C15.4737 0.914541 15.1255 0.566337 14.7 0.340009C14.0862 0.10223 13.4248 0.0131339 12.77 0.0800092L6.75 9.2322e-06C5.96609 -0.0312568 5.18116 0.0257685 4.41 0.170009C3.8289 0.26785 3.28001 0.504558 2.81 0.860009C2.50448 1.12447 2.28218 1.47182 2.17 1.86001C2.04589 2.33984 1.98869 2.83452 2 3.33001L1.51 15.9C1.45687 16.9617 1.53072 18.0259 1.73 19.07C1.82216 19.584 2.06191 20.06 2.42 20.44C2.79034 20.7108 3.23182 20.8672 3.69 20.89C4.58268 20.9382 5.47732 20.9382 6.37 20.89H9C9.04467 20.8981 9.09059 20.8963 9.13449 20.8848C9.1784 20.8732 9.21923 20.8521 9.25409 20.823C9.28895 20.7939 9.31699 20.7575 9.33623 20.7164C9.35548 20.6753 9.36545 20.6304 9.36545 20.585C9.36545 20.5396 9.35548 20.4948 9.33623 20.4536C9.31699 20.4125 9.28895 20.3761 9.25409 20.347C9.21923 20.3179 9.1784 20.2968 9.13449 20.2853C9.09059 20.2737 9.04467 20.2719 9 20.28V20.31ZM6.72 1.12001L12.77 1.05001H13.45C13.29 1.48001 12.99 2.21001 12.68 2.86001C12.19 3.86001 12.49 3.97001 10.94 4.01001C10.3289 4.02196 9.7177 3.99524 9.11 3.93001L6 3.59001C5.78097 3.11054 5.58737 2.61986 5.42 2.12001C5.31145 1.82157 5.218 1.51785 5.14 1.21001C5.66388 1.14269 6.19187 1.11262 6.72 1.12001Z" fill="black"/>
<path fill-rule="evenodd" clip-rule="evenodd" d="M22 11.85C21.5441 11.5852 21.0082 11.4929 20.49 11.59C19.6099 11.6979 18.7403 11.8786 17.89 12.13C16.733 12.4871 15.5978 12.9112 14.49 13.4C13.3745 13.8961 12.3095 14.4989 11.31 15.2C10.7294 15.6113 10.2337 16.1308 9.85 16.73C9.73948 16.896 9.66926 17.0855 9.64495 17.2834C9.62065 17.4813 9.64292 17.6822 9.71 17.87C9.82201 18.1355 10.0143 18.3593 10.26 18.51C10.5672 18.699 10.9059 18.8312 11.26 18.9L13.77 19.48V19.6C13.77 20.02 13.71 20.74 13.71 21.36C13.6952 21.7849 13.722 22.2103 13.79 22.63C13.8574 22.9665 14.0222 23.2759 14.264 23.5195C14.5058 23.7631 14.8139 23.9302 15.15 24C15.6216 24.023 16.0927 23.9458 16.5322 23.7734C16.9718 23.601 17.3698 23.3374 17.7 23C18.4877 22.2074 19.1609 21.3088 19.7 20.33C20.5048 18.8989 21.2131 17.4156 21.82 15.89C22.1886 15.0621 22.4054 14.1746 22.46 13.27C22.4843 13.0144 22.4561 12.7566 22.377 12.5124C22.2979 12.2682 22.1696 12.0427 22 11.85ZM21.36 13.55C21.2734 14.1975 21.0984 14.83 20.84 15.43C20.2791 16.9248 19.6279 18.3842 18.89 19.8C18.4132 20.719 17.8108 21.5672 17.1 22.32C16.7 22.7498 16.1755 23.0436 15.6 23.16C15.3522 23.1937 15.1008 23.1333 14.8953 22.9908C14.6898 22.8482 14.5452 22.6339 14.49 22.39C14.4399 22.0589 14.4132 21.7248 14.41 21.39V19.69C14.4149 19.6296 14.4035 19.5691 14.3772 19.5146C14.3508 19.4601 14.3103 19.4136 14.26 19.38C14.2784 19.3018 14.2657 19.2196 14.2247 19.1506C14.1837 19.0816 14.1174 19.0312 14.04 19.01L11.4 18.3C11.173 18.2465 10.9543 18.1624 10.75 18.05C10.587 17.9675 10.4592 17.829 10.39 17.66C10.31 17.46 10.47 17.24 10.65 17.02C10.9698 16.6275 11.3515 16.2897 11.78 16.02C12.7574 15.3934 13.792 14.861 14.87 14.43C15.955 13.9924 17.0633 13.6151 18.19 13.3C18.7495 13.1432 19.317 13.0163 19.89 12.92C20.94 12.66 21.45 12.28 21.33 13.55H21.36Z" fill="black"/>
</g>
<defs>
<clipPath id="clip0_1046_5704">
<rect width="24" height="24" fill="white"/>
</clipPath>
</defs>
</svg>
