<svg width="24" height="24" viewBox="0 0 24 24" fill="none" xmlns="http://www.w3.org/2000/svg">
<g clip-path="url(#clip0_1046_5673)">
<path d="M8.87 2.68996C8.72858 2.6337 8.57724 2.60659 8.42508 2.61025C8.27292 2.61392 8.12307 2.64829 7.98452 2.71129C7.84597 2.7743 7.72157 2.86465 7.6188 2.97692C7.51603 3.08918 7.43699 3.22106 7.38644 3.36462C7.33589 3.50819 7.31486 3.66049 7.32462 3.81238C7.33438 3.96427 7.37473 4.11263 7.44323 4.24854C7.51174 4.38446 7.607 4.50513 7.7233 4.60333C7.83959 4.70152 7.97453 4.7752 8.12 4.81996C9.37 5.25996 10.52 3.28996 8.87 2.68996Z" fill="black"/>
<path d="M15.5 19.12C15.4653 19.1351 15.434 19.157 15.408 19.1845C15.382 19.212 15.3618 19.2445 15.3487 19.2801C15.3356 19.3156 15.3299 19.3534 15.3318 19.3912C15.3338 19.429 15.3434 19.466 15.36 19.5C15.4834 20.1637 15.4595 20.8465 15.29 21.5C15.18 21.95 15.03 22.35 14.74 22.5C12.5258 23.1166 10.2242 23.3599 7.93001 23.22C6.11054 23.217 4.30134 22.9475 2.56001 22.42C2.38121 22.3518 2.21023 22.2646 2.05001 22.16C2.00001 22.06 1.88001 22 1.88001 22V14.51C1.88001 11.73 1.88001 9.00999 1.95001 7.00999C1.95001 6.18999 1.82001 4.86999 1.86001 3.65999C1.82962 3.00706 1.97464 2.35791 2.28001 1.77999C2.3945 1.63959 2.5375 1.52509 2.69954 1.44407C2.86159 1.36305 3.03898 1.31735 3.22001 1.30999C3.94469 1.24431 4.6726 1.22094 5.40001 1.23999L7.53001 0.999991L9.53 0.939991C10.9552 0.774618 12.3948 0.774618 13.82 0.939991C14.2311 0.993221 14.6156 1.1729 14.9201 1.45416C15.2247 1.73543 15.4343 2.10438 15.52 2.50999C15.5972 2.95914 15.634 3.41428 15.63 3.86999C15.63 4.97999 15.5 6.12999 15.5 7.19999C15.5 7.28846 15.5344 7.37346 15.596 7.43694C15.6576 7.50042 15.7416 7.53739 15.83 7.53999C15.9175 7.53999 16.0015 7.50522 16.0633 7.44334C16.1252 7.38145 16.16 7.29751 16.16 7.20999C16.16 6.13999 16.33 4.97999 16.35 3.86999C16.3572 3.37143 16.3238 2.87311 16.25 2.37999C16.1975 1.94706 16.0335 1.53517 15.774 1.1846C15.5146 0.834038 15.1687 0.556797 14.77 0.379991C13.24 -0.250009 10.87 0.0799915 9.49 0.0699915H7.49001L5.31001 0.219991C4.40465 0.161846 3.49563 0.205452 2.60001 0.349991C2.11077 0.455845 1.67902 0.741303 1.39001 1.14999C1.04085 1.7079 0.83476 2.34335 0.790005 2.99999C0.722159 4.33246 0.722159 5.66752 0.790005 6.99999C0.760005 9.30999 0.720005 12.75 0.750005 16C0.750005 18.25 0.820005 20.41 0.890005 22C0.919108 22.2169 1.00333 22.4227 1.13464 22.5978C1.26594 22.7728 1.43993 22.9113 1.64001 23C2.72821 23.479 3.89311 23.76 5.08001 23.83C8.29001 24.17 12.7 23.94 14.96 23.06C15.2196 22.9092 15.44 22.6993 15.6034 22.4474C15.7667 22.1954 15.8683 21.9086 15.9 21.61C16.0834 20.834 16.0834 20.026 15.9 19.25C15.8637 19.1802 15.8014 19.1275 15.7266 19.1032C15.6518 19.0788 15.5704 19.0849 15.5 19.12Z" fill="black"/>
<path d="M23.11 6.73999C22.81 6.45999 22.57 6.15999 22.27 5.87999C22.0762 5.69093 21.8653 5.5202 21.64 5.36999C21.2314 5.13228 20.799 4.93789 20.35 4.78999C20.3172 4.77009 20.2808 4.75688 20.2429 4.75114C20.205 4.74539 20.1663 4.74722 20.1291 4.75652C20.0919 4.76582 20.0569 4.78241 20.0262 4.80532C19.9955 4.82823 19.9696 4.85701 19.95 4.88999C19.9124 4.95682 19.9018 5.0355 19.9204 5.10989C19.939 5.18428 19.9854 5.24873 20.05 5.28999C20.35 5.54999 20.57 5.84999 20.86 6.11999L21.04 6.27999L20.79 6.46999C20.7081 6.55538 20.6313 6.64554 20.56 6.73999C20.4839 6.83694 20.417 6.94072 20.36 7.04999C20.3 7.14999 20.26 7.25999 20.21 7.35999C20.04 7.24999 19.89 7.15999 19.78 7.06999C19.711 7.01562 19.6233 6.99087 19.5361 7.00119C19.4489 7.0115 19.3694 7.05604 19.315 7.12499C19.2606 7.19395 19.2359 7.28168 19.2462 7.36888C19.2565 7.45609 19.301 7.53562 19.37 7.58999C20.76 8.69999 20.66 8.58999 20.67 8.73999L19.34 10.6C18.6 11.66 17.13 13.65 15.84 15.37C14.71 16.88 13.72 18.19 13.47 18.42C12.9908 18.6396 12.5001 18.8332 12 19C11.9228 18.4296 11.876 17.8554 11.86 17.28C11.92 17.01 12.13 16.81 12.51 16.28C12.99 15.6 15.2 12.35 17.02 9.86999C17.6655 8.95011 18.3598 8.06551 19.1 7.21999C19.152 7.16441 19.181 7.09112 19.181 7.01499C19.181 6.93886 19.152 6.86558 19.1 6.80999C19.0428 6.75729 18.9678 6.72803 18.89 6.72803C18.8122 6.72803 18.7372 6.75729 18.68 6.80999C18.21 7.27999 17.39 8.25999 16.48 9.38999C14.56 11.8 12.2 15 11.69 15.61C11.317 16.0121 11.028 16.4847 10.84 17C10.764 17.5326 10.7843 18.0746 10.9 18.6C10.9 18.68 10.9 19.3 10.96 19.55C10.9696 19.6773 11.0137 19.7995 11.0878 19.9035C11.1618 20.0075 11.2629 20.0893 11.38 20.14C11.5352 20.1702 11.6948 20.1702 11.85 20.14C12.1647 20.0581 12.4724 19.9511 12.77 19.82C12.97 19.75 13.37 19.67 13.68 19.56C13.8833 19.4968 14.0707 19.3912 14.23 19.25C14.8937 18.4734 15.5114 17.6587 16.08 16.81C17.45 14.9 19.19 12.35 20.02 11.08L21.02 9.61999C21.1515 9.4628 21.2655 9.2918 21.36 9.10999C21.4178 8.97795 21.4418 8.83363 21.43 8.68999C21.3858 8.39493 21.2323 8.12725 21 7.93999L21.24 7.72999C21.3334 7.64991 21.4173 7.55931 21.49 7.45999C21.5693 7.36534 21.6364 7.26121 21.69 7.14999C21.745 7.04717 21.7918 6.94017 21.83 6.82999C22.1507 7.01798 22.4849 7.18177 22.83 7.31999C22.8656 7.34586 22.9061 7.36411 22.9491 7.37361C22.992 7.38311 23.0364 7.38365 23.0796 7.37521C23.1228 7.36676 23.1637 7.34951 23.1999 7.32452C23.2361 7.29954 23.2668 7.26736 23.29 7.22999C23.3189 7.18786 23.3374 7.13941 23.3437 7.08869C23.3501 7.03797 23.3442 6.98647 23.3266 6.93849C23.309 6.89051 23.2801 6.84745 23.2424 6.81292C23.2047 6.77838 23.1593 6.75338 23.11 6.73999Z" fill="black"/>
<path d="M7.74 12.21C7.63 12.42 7.52 12.63 7.39 12.83L6.76 13.75C5.99009 14.8875 5.47188 16.1762 5.24 17.53C5.15243 18.0545 5.2569 18.593 5.53426 19.0467C5.81162 19.5004 6.24326 19.8388 6.75 20C6.91354 20.0572 7.08054 20.1039 7.25 20.14C7.42169 20.1764 7.5953 20.2031 7.77 20.22H8.39C8.83 20.22 9.26 20.1 9.7 20.07C9.78753 20.0625 9.86903 20.0223 9.92831 19.9575C9.98759 19.8926 10.0203 19.8079 10.02 19.72C10.0175 19.6766 10.0064 19.6342 9.98738 19.5951C9.9684 19.5561 9.94189 19.5211 9.90937 19.4923C9.87685 19.4635 9.83897 19.4414 9.79789 19.4273C9.75681 19.4132 9.71335 19.4073 9.67 19.41C9.23 19.41 8.8 19.48 8.36 19.48C8.19031 19.4945 8.01969 19.4945 7.85 19.48L7.05 19.25C6.74259 19.1251 6.49049 18.8935 6.33989 18.5978C6.18929 18.3022 6.15028 17.9621 6.23 17.64C6.48718 16.4583 6.9841 15.342 7.69 14.36L8.31 13.42C8.46098 13.1729 8.59464 12.9156 8.71 12.65C8.82861 12.3781 8.92558 12.0972 9 11.81C9.06082 11.5173 9.06297 11.2155 9.00633 10.9219C8.94968 10.6284 8.83537 10.349 8.67 10.1C8.50198 9.84082 8.26799 9.63104 7.99207 9.4922C7.71616 9.35336 7.40826 9.29048 7.1 9.31C6.69663 9.35108 6.30734 9.48084 5.96 9.69C5.47227 9.9839 5.04746 10.3713 4.71 10.83C4.66535 10.8929 4.64667 10.9707 4.65784 11.047C4.66902 11.1234 4.70918 11.1925 4.77 11.24C4.79927 11.2636 4.83301 11.2811 4.8692 11.2914C4.90539 11.3017 4.94328 11.3046 4.98062 11.3C5.01796 11.2953 5.05397 11.2832 5.08651 11.2643C5.11905 11.2454 5.14744 11.2201 5.17 11.19C5.42623 10.8796 5.73407 10.6157 6.08 10.41C6.38228 10.2235 6.72557 10.1136 7.08 10.09C7.24209 10.0938 7.40014 10.1414 7.53744 10.2276C7.67473 10.3139 7.78618 10.4356 7.86 10.58C7.94604 10.7301 8.00101 10.896 8.02162 11.0678C8.04224 11.2396 8.02808 11.4138 7.98 11.58C7.92 11.78 7.84 12 7.74 12.21Z" fill="black"/>
</g>
<defs>
<clipPath id="clip0_1046_5673">
<rect width="24" height="24" fill="white"/>
</clipPath>
</defs>
</svg>
