<svg width="24" height="24" viewBox="0 0 24 24" fill="none" xmlns="http://www.w3.org/2000/svg">
<g clip-path="url(#clip0_1046_5662)">
<path fill-rule="evenodd" clip-rule="evenodd" d="M18.3 3.11001C18.1861 3.31115 18.1274 3.53886 18.13 3.77001C18.138 4.08461 18.185 4.397 18.27 4.70001C18.45 5.35001 18.59 6.20001 18.77 6.97001C18.86 7.35001 18.97 7.70001 19.08 7.97001C19.3061 8.52727 19.5631 9.07145 19.85 9.60001C20.018 9.91724 20.2415 10.2017 20.51 10.44C20.8164 10.6114 21.1592 10.7074 21.51 10.72C23.42 10.42 22.99 9.24001 21.15 9.41001C20.85 9.41001 20.88 9.19001 20.15 7.50001L19.25 4.32001C19.12 3.94001 19.13 3.88001 19.58 3.56001C21.58 2.82001 20.85 1.83001 19.21 2.17001C19.0491 2.26168 18.8954 2.36531 18.75 2.48001C18.5662 2.66368 18.4141 2.87657 18.3 3.11001Z" fill="black"/>
<path fill-rule="evenodd" clip-rule="evenodd" d="M23 11.29C23.0116 11.4755 22.9772 11.661 22.9 11.83C22.684 12.0737 22.403 12.2506 22.09 12.34C21.5332 12.5559 20.9523 12.7036 20.36 12.78C20.3648 12.7168 20.3648 12.6533 20.36 12.59C20.2682 11.9542 20.0687 11.3387 19.77 10.77C19.5392 10.3864 19.2411 10.0477 18.89 9.77001C18.5654 9.47888 18.1828 9.25976 17.7674 9.12705C17.352 8.99434 16.9133 8.95104 16.48 9.00001C16.1842 9.03859 15.8997 9.13858 15.6449 9.29357C15.39 9.44856 15.1703 9.65513 15 9.90001C14.8084 10.1694 14.6661 10.4708 14.58 10.79C14.31 11.79 14.58 12.89 13.98 13.79C13.38 14.69 12.2 15.12 11.63 15.88C11.4671 16.1 11.3511 16.351 11.2892 16.6177C11.2273 16.8843 11.2207 17.1608 11.27 17.43C11.2737 17.4704 11.2855 17.5097 11.3048 17.5454C11.3241 17.5811 11.3504 17.6125 11.3822 17.6378C11.414 17.663 11.4506 17.6816 11.4897 17.6923C11.5289 17.7029 11.5698 17.7056 11.61 17.7C11.6517 17.6963 11.6923 17.6842 11.7292 17.6644C11.7661 17.6446 11.7986 17.6176 11.8248 17.5849C11.851 17.5522 11.8702 17.5145 11.8814 17.4741C11.8927 17.4337 11.8956 17.3915 11.89 17.35C11.8662 17.1723 11.8797 16.9916 11.9296 16.8195C11.9795 16.6473 12.0648 16.4874 12.18 16.35C12.81 15.59 14.04 15.26 14.71 14.35C14.8897 14.0932 15.0281 13.8097 15.12 13.51C15.42 12.56 15.25 11.43 15.87 10.64C15.9855 10.4888 16.1386 10.3705 16.314 10.2968C16.4895 10.2231 16.6811 10.1966 16.87 10.22C17.3046 10.2673 17.7136 10.4491 18.04 10.74C18.3492 10.9897 18.5957 11.3081 18.76 11.67C18.9235 12.0729 19.0442 12.4919 19.12 12.92C19.1576 13.1783 19.1777 13.4389 19.18 13.7C19.1783 14.1276 19.1549 14.5548 19.11 14.98C19.0738 15.6367 18.8632 16.2718 18.5 16.82C17.99 17.57 17.23 18.15 16.29 19.27C15.7878 19.8609 15.398 20.5387 15.14 21.27C14.8908 21.9944 14.7591 22.754 14.75 23.52C14.7487 23.5673 14.7567 23.6144 14.7735 23.6586C14.7904 23.7027 14.8158 23.7432 14.8483 23.7775C14.8808 23.8119 14.9198 23.8395 14.963 23.8588C15.0061 23.8781 15.0527 23.8887 15.1 23.89C15.146 23.8913 15.1917 23.8836 15.2347 23.8672C15.2777 23.8509 15.317 23.8262 15.3504 23.7946C15.3839 23.763 15.4108 23.7252 15.4296 23.6832C15.4484 23.6412 15.4587 23.596 15.46 23.55C15.4916 22.8641 15.6369 22.1883 15.89 21.55C16.1394 20.8924 16.5166 20.2908 17 19.78C18 18.68 18.82 18.11 19.39 17.36C19.8695 16.6601 20.1559 15.846 20.22 15C20.2871 14.5329 20.3239 14.0619 20.33 13.59V13.44H20.39C21.0425 13.388 21.6868 13.2604 22.31 13.06C22.8088 12.9303 23.2578 12.6554 23.6 12.27C23.7431 12.0425 23.8352 11.7866 23.87 11.52C23.9774 10.2298 23.9067 8.93095 23.66 7.66001C23.44 6.55001 23.08 5.48001 22.8 4.29001C22.5999 3.41574 22.3014 2.56698 21.91 1.76001C21.6126 1.17497 21.1592 0.683541 20.6 0.340008C20.0653 0.14001 19.4814 0.11204 18.93 0.260008C17.9796 0.464852 17.0518 0.762962 16.16 1.15001C15.8387 0.730754 15.3834 0.434283 14.87 0.310008C14.1774 0.16606 13.4626 0.16606 12.77 0.310008C12.2266 0.483844 11.7579 0.836248 11.44 1.31001C11.35 1.45697 11.2795 1.61495 11.23 1.78001C11.1194 1.55329 10.9853 1.33878 10.83 1.14001C10.5588 0.844648 10.2135 0.627143 9.82999 0.510008C9.55733 0.45146 9.27881 0.424615 8.99999 0.430008C8.72757 0.418463 8.45489 0.445395 8.18999 0.510008C7.64855 0.564046 7.12934 0.75316 6.67999 1.06001C6.19876 1.42175 5.87623 1.95572 5.77999 2.55001C5.44179 2.34555 5.05515 2.23509 4.65999 2.23001C4.3134 2.24362 3.97324 2.3278 3.6603 2.47739C3.34737 2.62698 3.06824 2.83884 2.83999 3.10001C2.34534 3.60867 2.06902 4.29049 2.06999 5.00001V5.35001C1.70277 5.44898 1.34477 5.57947 0.99999 5.74001C0.683553 5.90683 0.417649 6.15547 0.22999 6.46001C0.0993332 6.69093 0.0401673 6.95543 0.0599897 7.22001C0.0994733 7.67158 0.173016 8.11952 0.27999 8.56001C0.36999 9.11001 0.47999 9.66001 0.59999 10.2C0.86999 11.45 1.18999 12.69 1.43999 13.94C1.56999 14.52 1.70999 15.13 1.87999 15.73C1.98999 16.14 2.10999 16.54 2.24999 16.92C2.34985 17.2314 2.49835 17.525 2.68999 17.79C2.84019 18.0061 3.0388 18.1842 3.26999 18.31C3.49504 18.4253 3.75367 18.4572 3.99999 18.4L4.19999 18.33C4.23055 18.3691 4.26397 18.4059 4.29999 18.44C4.75952 18.8214 5.19377 19.2323 5.59999 19.67C5.80774 19.9097 5.95821 20.1935 6.03999 20.5C6.11108 20.7215 6.1613 20.9492 6.18999 21.18C6.27999 21.89 6.18999 22.61 6.27999 23.18C6.27995 23.2738 6.31651 23.3639 6.38187 23.4311C6.44724 23.4983 6.53626 23.5374 6.62999 23.54C6.67597 23.5427 6.72203 23.5363 6.76553 23.5212C6.80903 23.506 6.84912 23.4825 6.88349 23.4518C6.91787 23.4212 6.94585 23.384 6.96584 23.3425C6.98583 23.301 6.99744 23.256 6.99999 23.21C7.19077 22.3736 7.28472 21.5179 7.27999 20.66C7.21778 19.9855 6.92459 19.3533 6.44999 18.87C6.30664 18.7512 6.15638 18.641 5.99999 18.54C5.65999 18.34 5.29999 18.18 4.99999 17.99C5.16139 17.8965 5.32837 17.813 5.49999 17.74L11.1 15.74C11.1782 15.7122 11.2422 15.6544 11.2778 15.5794C11.3135 15.5043 11.3178 15.4182 11.29 15.34C11.2621 15.2618 11.2044 15.1978 11.1293 15.1622C11.0543 15.1265 10.9682 15.1222 10.89 15.15L5.18999 16.8C4.42999 17.02 3.91999 18.15 3.38999 16.58C3.26999 16.22 3.15999 15.84 3.04999 15.46C2.89999 14.88 2.74999 14.29 2.61999 13.73L1.18999 8.39001C1.12999 8.12001 0.99999 7.72001 0.93999 7.34001C0.894434 7.18325 0.894434 7.01677 0.93999 6.86001C1.04125 6.67405 1.19403 6.52127 1.37999 6.42001C1.64595 6.2696 1.92765 6.14887 2.21999 6.06001C2.30984 6.34082 2.42707 6.61213 2.56999 6.87001C3.10007 7.8537 3.92072 8.64991 4.91999 9.15001C5.30608 9.29011 5.7188 9.34129 6.12742 9.29974C6.53604 9.25818 6.93001 9.12496 7.27999 8.91001C7.43157 8.81308 7.56258 8.68725 7.66553 8.53969C7.76848 8.39213 7.84135 8.22573 7.87999 8.05001C8.25889 8.30882 8.68745 8.48603 9.13849 8.57039C9.58952 8.65474 10.0532 8.64439 10.5 8.54001C10.9001 8.47647 11.2754 8.30512 11.5855 8.04436C11.8956 7.78361 12.1287 7.44331 12.26 7.06001C12.3267 6.9048 12.3803 6.74423 12.42 6.58001C12.8201 6.90518 13.2907 7.13239 13.7942 7.2435C14.2977 7.35462 14.8202 7.34657 15.32 7.22001C15.7937 7.06668 16.2089 6.77151 16.5094 6.37445C16.8099 5.97738 16.9812 5.49759 17 5.00001C17.119 3.88185 16.9467 2.75193 16.5 1.72001C17.1945 1.4786 17.9066 1.29137 18.63 1.16001C19.1066 1.02 19.6134 1.02 20.09 1.16001C20.66 1.34001 21.64 4.62001 21.64 4.62001C21.98 5.98001 22.35 7.14001 22.64 8.48001C22.8578 9.40152 22.9785 10.3433 23 11.29ZM6.99999 7.63001C7.00282 7.70757 6.98244 7.7842 6.94147 7.85012C6.9005 7.91603 6.84079 7.96822 6.76999 8.00001C6.49256 8.14688 6.17936 8.21259 5.86629 8.1896C5.55323 8.1666 5.25298 8.05584 4.99999 7.87001C4.41876 7.43505 3.93505 6.88321 3.57999 6.25001C3.32983 5.87733 3.17843 5.44721 3.13999 5.00001C3.09583 4.5635 3.22113 4.12672 3.48999 3.78001C3.61601 3.57434 3.78485 3.39823 3.98501 3.26363C4.18518 3.12904 4.41198 3.03913 4.64999 3.00001C4.85624 2.96376 5.06841 2.98258 5.26506 3.05457C5.46171 3.12655 5.63589 3.24916 5.76999 3.41001C5.88109 4.09668 6.0724 4.76794 6.33999 5.41001C6.50587 5.85343 6.70303 6.28452 6.92999 6.70001C6.97803 7.00791 6.9814 7.32114 6.93999 7.63001H6.99999ZM11.47 6.63001C11.3935 6.86231 11.2484 7.06597 11.0538 7.21414C10.8592 7.36231 10.6243 7.44803 10.38 7.46001C10.0941 7.53152 9.79616 7.54085 9.50634 7.48737C9.21652 7.43389 8.94155 7.31885 8.69999 7.15001C8.21785 6.54699 7.83318 5.87213 7.55999 5.15001C7.47332 4.90334 7.37332 4.65334 7.25999 4.40001C6.86999 3.40001 6.67999 2.40001 7.33999 1.89001C7.62809 1.6549 7.97296 1.49971 8.33999 1.44001C8.68999 1.37001 8.50999 1.30001 8.78999 1.29001C9.08755 1.26622 9.38696 1.28304 9.67999 1.34001C9.99936 1.42632 10.283 1.61192 10.49 1.87001C10.8303 2.40554 11.0803 2.99338 11.23 3.61001C11.2995 3.98659 11.3964 4.35758 11.52 4.72001C11.58 4.98001 11.62 5.18001 11.63 5.26001C11.7037 5.73495 11.6268 6.22104 11.41 6.65001L11.47 6.63001ZM15.87 4.82001C15.79 5.43001 15.61 5.98001 15.09 6.14001C14.7503 6.23355 14.3939 6.24885 14.0475 6.18476C13.7011 6.12067 13.3737 5.97887 13.09 5.77001C12.8345 5.40794 12.6072 5.02683 12.41 4.63001C12.2636 4.10797 12.09 3.59394 11.89 3.09001C11.7578 2.66538 11.7973 2.20586 12 1.81001C12.4311 1.50547 12.9278 1.30677 13.45 1.23001C13.813 1.12845 14.197 1.12845 14.56 1.23001C14.7145 1.27878 14.8577 1.35784 14.9814 1.46258C15.105 1.56731 15.2065 1.69562 15.28 1.84001C15.7522 2.76467 15.9368 3.80952 15.81 4.84001L15.87 4.82001Z" fill="black"/>
</g>
<defs>
<clipPath id="clip0_1046_5662">
<rect width="24" height="24" fill="white"/>
</clipPath>
</defs>
</svg>
