<svg width="24" height="24" viewBox="0 0 24 24" fill="none" xmlns="http://www.w3.org/2000/svg">
<g clip-path="url(#clip0_1047_6252)">
<path fill-rule="evenodd" clip-rule="evenodd" d="M22.41 17.86C22.18 17.29 20.9 14.46 20.77 14.24C20.53 13.83 20.29 13.56 19.9 13.51C19.73 13.51 14.56 13.61 12.04 13.61C8.7 13.61 8.87 13.4 7.04 13.35C6.07664 13.2657 5.10798 13.4346 4.23 13.84C3.54 14.29 3.45 14.92 1.05 18.99C0.770001 19.42 0.360001 19.56 0.450001 21.86C0.450001 22.86 0.820001 23.18 1.38 23.37C2.05593 23.4962 2.74703 23.5198 3.43 23.44C6.89 23.36 10.31 23.82 13.76 23.96C16.3042 24.0451 18.8511 23.9414 21.38 23.65C22.87 23.52 23.29 23.5 23.44 21.65C23.55 20.53 23.75 21.06 22.41 17.86ZM22.19 22.43C19.4136 22.775 16.6177 22.9387 13.82 22.92C10.35 22.86 6.91 22.53 3.43 22.7C2.90331 22.7728 2.37068 22.7929 1.84 22.76C1.05 22.65 1.04 22.15 1.14 20.51C5.14 21.05 4.78 19.8 22.39 20.8C22.4127 21.3506 22.3452 21.9012 22.19 22.43ZM1.25 19.83C1.7 19.2 1.47 19.55 2.51 17.95C2.69 17.66 4.35 14.95 4.58 14.75C5.39 13.98 8.46 14.61 10.15 14.75C11.62 14.81 12.85 14.82 19.15 14.53C19.29 14.53 19.76 14.64 19.83 14.48C20.815 16.2027 21.6965 17.9825 22.47 19.81C7.34 18.82 5.32 20.29 1.25 19.83Z" fill="black"/>
<path fill-rule="evenodd" clip-rule="evenodd" d="M17.12 19.11C18.84 18.98 19.33 18.04 19.26 17.11C19.2289 16.7768 19.1279 16.454 18.9636 16.1624C18.7993 15.8709 18.5754 15.6173 18.3064 15.4182C18.0375 15.2191 17.7296 15.079 17.4028 15.0069C17.076 14.9348 16.7377 14.9325 16.41 15H16.17C13.5 16 14.11 19.36 17.12 19.11ZM15.57 16.58C15.6985 16.3111 15.8907 16.0777 16.13 15.9C17.31 15.04 18.13 16.02 18.4 16.83C18.67 17.64 17.83 18.02 17.05 18.07C16.27 18.12 15.45 17.86 15.47 17.02L15.57 16.58Z" fill="black"/>
<path fill-rule="evenodd" clip-rule="evenodd" d="M7.26 19.28C7.88918 19.4016 8.54096 19.2718 9.0756 18.9185C9.61023 18.5652 9.98516 18.0165 10.12 17.39C10.53 15.12 7.78999 13.97 5.53999 15.39C3.53999 16.74 5.11 19.06 7.26 19.28ZM9.25999 17.19C8.91999 18.52 6.81 18.44 5.94 17.35C4.59 15.72 9.88999 14.6 9.20999 17.19H9.25999Z" fill="black"/>
<path fill-rule="evenodd" clip-rule="evenodd" d="M11 17.17C11.48 17.17 13 17.51 13 16.86C12.9987 16.8153 12.9886 16.7713 12.9703 16.7306C12.952 16.6898 12.9259 16.6531 12.8934 16.6224C12.8609 16.5918 12.8227 16.5678 12.7809 16.552C12.7391 16.5361 12.6947 16.5286 12.65 16.53C11.53 16.18 10.89 16.71 10.89 16.79C10.89 16.87 10.81 17.02 10.89 17.09C10.97 17.16 11 17.17 11 17.17Z" fill="black"/>
<path fill-rule="evenodd" clip-rule="evenodd" d="M7.54 9.51998C8.28 7.61998 6.75 3.18998 10 1.79998C10.8772 1.38976 11.8286 1.16226 12.7965 1.13132C13.7644 1.10037 14.7284 1.26663 15.63 1.61998C18.63 2.90998 16.5 6.44998 17.17 9.06998C17.1933 9.48894 17.3477 9.88997 17.6115 10.2163C17.8753 10.5426 18.235 10.7777 18.6398 10.8883C19.0446 10.9989 19.4739 10.9794 19.8669 10.8325C20.26 10.6857 20.5969 10.4189 20.83 10.07C21.0412 9.85668 21.207 9.60277 21.3172 9.3236C21.4275 9.04442 21.4801 8.74578 21.4716 8.44573C21.4632 8.14567 21.3941 7.85045 21.2683 7.57789C21.1425 7.30533 20.9628 7.0611 20.74 6.85998C20.3659 6.60301 19.9428 6.42597 19.4971 6.33994C19.0515 6.25391 18.5929 6.26073 18.15 6.35998C18.5 3.66998 18.55 1.69998 16.08 0.609979C13.29 -0.650021 8.94 0.109979 7.55 2.51998C6.99808 3.67163 6.75021 4.94541 6.83 6.21998C6.22957 6.21836 5.64739 6.42621 5.18374 6.80771C4.7201 7.18921 4.40403 7.72048 4.29 8.30998C3.93 10.49 6.76 11.51 7.54 9.51998ZM18.07 7.08998C19.86 6.45998 21.61 7.90998 20.21 9.50998C20.0643 9.70678 19.8601 9.85243 19.6266 9.92607C19.3931 9.99972 19.1422 9.99759 18.91 9.91998C17.9 9.53998 17.94 8.15998 18.07 7.08998ZM5 8.40998C5.07389 7.97412 5.2967 7.57738 5.63041 7.28744C5.96413 6.99749 6.38809 6.83228 6.83 6.81998C6.92571 7.61976 6.89534 8.42961 6.74 9.21998C6.37 10.29 4.82 9.71998 5 8.40998Z" fill="black"/>
<path fill-rule="evenodd" clip-rule="evenodd" d="M7.5 12.17C7.5 12.39 7.5 12.56 7.62 12.66C8.11 13.09 10.62 10.44 10.68 10.36C11.266 10.6419 11.9182 10.7574 12.5654 10.6939C13.2126 10.6304 13.8299 10.3904 14.35 9.99999C14.52 10.67 16.73 12.54 16.85 12.67C16.9047 12.7293 16.9788 12.7673 17.0589 12.777C17.139 12.7867 17.22 12.7677 17.2874 12.7232C17.3547 12.6787 17.404 12.6117 17.4265 12.5341C17.449 12.4566 17.4431 12.3736 17.41 12.3C16.9187 11.116 15.9864 10.1693 14.81 9.65999C15.4174 9.19542 15.8902 8.57762 16.18 7.86999C17.63 4.18999 13.18 2.22999 10.3 4.14999C9.80338 4.43107 9.38399 4.83063 9.07919 5.31307C8.77439 5.7955 8.59365 6.34583 8.55306 6.91504C8.51247 7.48425 8.6133 8.05466 8.84657 8.57546C9.07983 9.09626 9.43828 9.55128 9.89 9.89999C9.6303 10.0065 9.3795 10.1336 9.14 10.28C8.48425 10.8064 7.92871 11.4466 7.5 12.17ZM9.6 6.49999C10.0341 6.80978 10.5492 6.98615 11.0821 7.00747C11.615 7.02878 12.1425 6.89412 12.6 6.61999C12.8796 6.45612 13.1297 6.24655 13.34 5.99999C13.6941 6.54743 14.2281 6.95415 14.85 7.14999C14.9335 7.17916 15.0253 7.17395 15.105 7.13551C15.1847 7.09706 15.2458 7.02853 15.275 6.94499C15.3042 6.86144 15.299 6.76973 15.2605 6.69003C15.2221 6.61033 15.1535 6.54916 15.07 6.51999C14.6156 6.29465 14.2598 5.91034 14.07 5.43999L13.91 4.94999C13.97 4.94999 13.91 4.73999 13.86 4.66999C13.8363 4.59268 13.7962 4.5214 13.7424 4.46106C13.6886 4.40072 13.6224 4.35275 13.5483 4.32045C13.4741 4.28814 13.3939 4.27226 13.3131 4.27391C13.2323 4.27556 13.1527 4.29469 13.08 4.32999C12.59 4.52999 12.74 5.60999 11.39 5.98999C11.1452 6.07659 10.8846 6.10979 10.6259 6.08737C10.3672 6.06495 10.1163 5.98742 9.89 5.85999C11.67 2.60999 16.82 4.21999 15.3 7.49999C14.799 8.44853 13.9493 9.16555 12.93 9.49999C12.499 9.62417 12.0435 9.6365 11.6065 9.53584C11.1694 9.43517 10.7652 9.22481 10.432 8.92461C10.0988 8.62442 9.84754 8.24428 9.70197 7.82006C9.5564 7.39584 9.52131 6.94153 9.6 6.49999Z" fill="black"/>
</g>
<defs>
<clipPath id="clip0_1047_6252">
<rect width="24" height="24" fill="white"/>
</clipPath>
</defs>
</svg>
