<svg width="24" height="24" viewBox="0 0 24 24" fill="none" xmlns="http://www.w3.org/2000/svg">
<g clip-path="url(#clip0_1047_6225)">
<path fill-rule="evenodd" clip-rule="evenodd" d="M11.78 10.77C11.66 10.3 11.25 11.25 12.65 8.58003C12.88 8.12003 13.12 7.31003 13.2 7.35003C13.5952 7.50355 14.0352 7.49395 14.4233 7.32333C14.8114 7.1527 15.1159 6.83501 15.27 6.44003C15.7632 6.74156 16.3159 6.93261 16.89 7.00003C16.9647 7.04051 17.0521 7.05062 17.1341 7.02827C17.216 7.00592 17.2862 6.95282 17.33 6.88003C17.62 6.35003 16.27 5.80003 15.75 5.58003C15.67 5.58003 15.63 5.74003 16.22 4.45003C16.7214 4.78833 17.2984 4.99784 17.9 5.06003C17.9756 5.10114 18.0644 5.11054 18.1469 5.08616C18.2294 5.06178 18.2989 5.00562 18.34 4.93003C18.3811 4.85444 18.3905 4.76562 18.3661 4.6831C18.3417 4.60059 18.2856 4.53114 18.21 4.49003C18.0755 4.30998 17.9212 4.14562 17.75 4.00003C17.63 3.92003 16.89 3.68003 16.75 3.62003C16.46 3.62003 16.6 3.68003 16.91 2.77003C17.0432 2.52343 17.107 2.24534 17.0947 1.96536C17.0823 1.68537 16.9943 1.41397 16.84 1.18003C16.6171 1.01617 16.3613 0.902691 16.0902 0.847439C15.8191 0.792187 15.5393 0.796483 15.27 0.860029L14 1.00003C11.65 1.44003 12.55 1.13003 12.13 1.20003C11.95 1.20003 11.4 2.01003 11.29 2.20003C10.8655 1.62749 10.2469 1.22931 9.55 1.08003C9.47711 1.06147 9.39987 1.07196 9.33457 1.10927C9.26927 1.14659 9.22102 1.20781 9.2 1.28003C9.2 1.33003 9.2 1.42003 9.28 1.59003C9.58 2.32003 10.08 2.48003 10.9 2.76003C10.6421 3.09739 10.4177 3.4591 10.23 3.84003C9.9595 3.56349 9.66126 3.31552 9.34 3.10003C8.94 2.92003 8.34 2.68003 8.26 3.10003C8.26 3.18003 8.26 4.02003 9.98 4.59003C9.93768 4.78701 9.95183 4.99193 10.0208 5.18123C10.0898 5.37052 10.2108 5.53649 10.37 5.66003C10.48 5.75003 10.62 6.07003 10.77 6.04003C10.2066 7.13487 9.5544 8.18171 8.82 9.17003C8.6 8.74003 8 9.25003 7.59 9.51003C6.14 10.51 0.75 14 0.11 15.45C0.0355434 15.5874 -0.00879315 15.7391 -0.0200568 15.8949C-0.0313205 16.0508 -0.00925283 16.2072 0.0446767 16.3539C0.0986063 16.5005 0.18316 16.634 0.292708 16.7454C0.402256 16.8568 0.534284 16.9436 0.68 17C1.87 17.58 5.89 17.07 6.34 17.07C7.26 17.07 6.75 17.53 7.03 18.35C8.03 21.15 9.89 22.22 10.84 21.2C11.79 20.18 11.79 14.81 11.78 13.2C11.8766 12.3929 11.8766 11.5771 11.78 10.77ZM11.33 6.67003C12.02 5.27003 10.78 5.34003 10.66 4.81003C10.54 4.28003 11.91 2.37003 12.28 1.88003C12.44 2.19003 12.72 1.99003 13.28 1.88003C13.84 1.77003 16.03 1.37003 16.34 1.72003C16.65 2.07003 14.5 6.00003 14.36 6.16003C14.2795 6.30763 14.1442 6.41765 13.9833 6.4663C13.8224 6.51495 13.6488 6.49833 13.5 6.42003C13.397 6.36254 13.2901 6.31242 13.18 6.27003C12.44 6.04003 12.08 7.42003 11.73 8.11003C9.64 12.11 8.73 14.11 7.83 13.71C6.93 13.31 10.14 9.12003 11.33 6.67003ZM11.07 13.17C11.07 14.35 10.92 18.7 10.35 20.17C10.25 20.43 10.13 20.67 9.83 20.55C8.92329 19.9683 8.28343 19.0517 8.05 18C7.77 17.18 7.96 16.07 6.54 16C6.34 16 1.19 16.51 1 16C0.710001 15.22 7.85 10.06 7.93 10C8.57 9.56003 8.87 8.87003 7.93 10.54C7.32058 11.4141 6.87969 12.3942 6.63 13.43C6.57 14.7 7.99 15.24 9.07 14.43C9.97234 13.5454 10.6866 12.4876 11.17 11.32C11.2 12 11.08 12.61 11.07 13.17Z" fill="black"/>
<path fill-rule="evenodd" clip-rule="evenodd" d="M24 17.5C23.9 13.43 24.31 11.28 21.62 10.61C21.9 9.00003 21.77 8.00003 20.07 7.91003C19.2 7.91003 18.91 8.42003 18.73 9.29003C18.73 9.29003 18.63 9.93003 18.6 10.29C17.6 10.29 13.21 10.42 13.16 10.42C13.0925 10.4382 13.0339 10.4801 12.9948 10.538C12.9558 10.596 12.939 10.6661 12.9475 10.7354C12.956 10.8048 12.9893 10.8687 13.0412 10.9155C13.0931 10.9623 13.1601 10.9888 13.23 10.99C13.4 10.99 19.99 10.9 21.74 11.62C22.0011 11.7023 22.2335 11.8567 22.4105 12.0656C22.5874 12.2744 22.7017 12.529 22.74 12.8C22.9824 15.7942 23.0091 18.802 22.82 21.8C22.3715 21.9943 21.8961 22.1191 21.41 22.17C20.63 22.27 15.22 22.24 15.02 22.24C14.2477 22.2466 13.4759 22.1999 12.71 22.1C12.6441 22.0613 12.5666 22.0474 12.4913 22.0609C12.4161 22.0743 12.3482 22.1143 12.2999 22.1735C12.2515 22.2327 12.226 22.3072 12.2278 22.3836C12.2297 22.46 12.2588 22.5333 12.31 22.59C12.77 23.07 21 23.16 21.52 23.12C23.83 22.9 23.82 22.35 23.92 21.31C24.02 20.27 24 18.22 24 17.5ZM19.26 10.33C19.39 10 19.43 8.90003 20 9.00003C20.87 9.00003 20.91 9.38003 20.95 10.5C20.3902 10.4128 19.826 10.356 19.26 10.33Z" fill="black"/>
<path fill-rule="evenodd" clip-rule="evenodd" d="M18.94 20.39C19.5856 20.1338 20.1614 19.7284 20.6202 19.207C21.0791 18.6856 21.408 18.0629 21.58 17.39C21.7086 16.9426 21.7445 16.4738 21.6856 16.0121C21.6266 15.5504 21.474 15.1055 21.2372 14.7049C21.0003 14.3042 20.6842 13.9561 20.3081 13.6818C19.932 13.4076 19.5039 13.213 19.05 13.11C17.21 12.74 14.8 13.35 13.92 15.39C12.42 18.82 15.64 21.58 18.94 20.39ZM14.7 15.66C15.49 13.47 18.59 13.22 19.81 14.23C20.2213 14.5715 20.521 15.0282 20.6707 15.5414C20.8204 16.0546 20.8132 16.6009 20.65 17.11C19.5 21.15 13.18 19.9 14.7 15.66Z" fill="black"/>
<path fill-rule="evenodd" clip-rule="evenodd" d="M18.82 17.2001C19.26 15.8501 18.05 14.9201 17.54 15.0701C17.0752 15.0555 16.6225 15.2194 16.2748 15.5281C15.9271 15.8368 15.7107 16.2668 15.67 16.7301C15.6498 17.127 15.7781 17.5172 16.0298 17.8248C16.2815 18.1323 16.6387 18.3352 17.0318 18.3938C17.4249 18.4525 17.8258 18.3627 18.1563 18.1421C18.4869 17.9214 18.7235 17.5856 18.82 17.2001ZM16.7 16.5901C16.99 15.1701 18.46 15.7501 17.96 16.8701C17.9073 17.02 17.8014 17.1455 17.6624 17.2227C17.5234 17.2999 17.361 17.3234 17.2058 17.289C17.0506 17.2545 16.9134 17.1643 16.8202 17.0355C16.727 16.9067 16.6843 16.7482 16.7 16.5901Z" fill="black"/>
</g>
<defs>
<clipPath id="clip0_1047_6225">
<rect width="24" height="24" fill="white"/>
</clipPath>
</defs>
</svg>
