<svg width="24" height="24" viewBox="0 0 24 24" fill="none" xmlns="http://www.w3.org/2000/svg">
<g clip-path="url(#clip0_1034_4352)">
<path fill-rule="evenodd" clip-rule="evenodd" d="M23.91 15.38C23.9699 14.9023 23.9999 14.4214 24 13.94C24 11.39 23.68 11.52 23 11.76C22.4413 11.9561 21.905 12.2109 21.4 12.52C21.0822 12.7229 20.7782 12.9468 20.49 13.19C20.18 13.46 19.89 13.74 19.59 14.01C18.71 13.86 17.84 13.69 16.95 13.56C16.52 13.5 16.08 13.46 15.64 13.42H13.36C12.6 13.42 11.59 13.62 10.7 13.73C11.077 13.4514 11.4345 13.1474 11.77 12.82C12.0185 12.5442 12.2459 12.2501 12.45 11.94C13.85 9.94 13.68 10.61 13.68 10.33C13.75 9.74 13.83 9.16 13.86 8.56V7.8C13.852 7.55212 13.8286 7.30498 13.79 7.06C13.71 6.47 13.57 5.91 13.46 5.32C13.4628 5.23942 13.434 5.16094 13.3799 5.10119C13.3258 5.04145 13.2505 5.00515 13.17 5C13.0864 5.0033 13.0075 5.03919 12.95 5.1C12.8997 5.09785 12.8496 5.10657 12.803 5.12555C12.7564 5.14453 12.7145 5.17334 12.68 5.21C12.3 5.51 11.91 5.78 11.53 6.09L11.07 6.49C10.9224 6.62918 10.7822 6.77605 10.65 6.93C10.45 7.16 10.28 7.39 10.11 7.62C9.11001 7.62 8.05001 7.53 7.01001 7.5H5.59001C5.11001 7.5 4.65001 7.5 4.18001 7.56C3.34001 7.62 2.52001 7.72 1.69001 7.82C1.73301 7.77248 1.77309 7.72239 1.81001 7.67C1.88316 7.56595 1.94675 7.4555 2.00001 7.34C2.12001 7.07 2.17001 6.8 2.27001 6.52C2.30083 6.47941 2.32294 6.43288 2.33494 6.38334C2.34694 6.3338 2.34858 6.28232 2.33974 6.23211C2.33091 6.18191 2.3118 6.13408 2.28361 6.09161C2.25542 6.04914 2.21876 6.01296 2.17593 5.98532C2.1331 5.95769 2.08502 5.9392 2.0347 5.93103C1.98439 5.92285 1.93293 5.92515 1.88355 5.9378C1.83417 5.95044 1.78794 5.97316 1.74775 6.00451C1.70756 6.03586 1.67429 6.07518 1.65001 6.12C1.43001 6.33 1.22001 6.51 1.02001 6.73C0.931227 6.8148 0.847737 6.90497 0.770007 7C0.717436 7.08336 0.670659 7.17023 0.630007 7.26C0.345583 7.99931 0.212947 8.78833 0.240007 9.58C0.170007 10.47 0.140007 11.37 0.100007 12.26C0.100007 12.5 6.70849e-06 12.94 6.70849e-06 13.31C-0.00514727 13.5465 0.0391303 13.7816 0.130007 14C0.214839 14.1409 0.32705 14.2633 0.460007 14.36C0.282173 15.1083 0.175036 15.8717 0.140007 16.64C0.126771 17.1812 0.15351 17.7227 0.220007 18.26C0.560007 21.42 -0.959993 21.26 4.40001 21.26C5.16001 21.26 5.92001 21.26 6.67001 21.16C7.81001 21.09 8.94001 20.95 10.07 20.87H10.19C11.24 20.95 12.28 21.09 13.34 21.14H15.71L18.55 20.87C18.6364 20.8556 18.715 20.8111 18.7716 20.7442C18.8283 20.6774 18.8594 20.5926 18.8594 20.505C18.8594 20.4174 18.8283 20.3326 18.7716 20.2658C18.715 20.1989 18.6364 20.1544 18.55 20.14L15.67 20.01C14.89 20.01 14.11 19.94 13.33 19.95C12.55 19.96 11.61 20.04 10.75 20.13C10.83 19.53 10.91 18.95 10.95 18.35V17.48V16.61C10.87 15.93 10.72 15.27 10.59 14.61L15.59 14.77C20.59 14.96 19.31 14.51 19.28 16.71C19.2787 17.1576 19.302 17.605 19.35 18.05C19.4 18.71 19.49 19.36 19.48 20.05C19.4756 20.0966 19.4756 20.1434 19.48 20.19C19.48 20.19 19.39 20.29 19.35 20.35C19.2901 20.4116 19.2567 20.4941 19.2567 20.58C19.2567 20.6659 19.2901 20.7484 19.35 20.81C19.4127 20.8676 19.4948 20.8996 19.58 20.8996C19.6652 20.8996 19.7473 20.8676 19.81 20.81C20.33 20.44 20.87 20.12 21.38 19.74C21.6 19.58 21.8 19.4 22.01 19.22C22.22 19.04 22.4 18.85 22.59 18.65C22.78 18.45 22.95 18.22 23.14 18.01C23.91 17.89 23.9 15.52 23.91 15.38ZM11.45 7.81C11.6213 7.68718 11.7819 7.55002 11.93 7.4C12.0804 7.25293 12.2207 7.09591 12.35 6.93C12.49 6.76 12.61 6.57 12.74 6.39C12.74 6.63 12.67 6.87 12.66 7.11C12.65 7.35 12.66 7.61 12.66 7.86C12.66 8.11 12.66 8.36 12.73 8.61C12.73 9.09 12.86 9.61 12.92 10.03H12.84C12.41 10.39 12 10.74 11.6 11.14C11.44 11.3 11.28 11.47 11.13 11.65C11.0012 11.8067 10.881 11.9703 10.77 12.14C10.77 11.89 10.85 11.64 10.87 11.39C10.8852 11.1436 10.8852 10.8964 10.87 10.65C10.8682 10.4059 10.8515 10.1621 10.82 9.92C10.75 9.38 10.62 8.86 10.51 8.33C10.8326 8.17393 11.1464 8.00034 11.45 7.81ZM4.20001 8.74H5.62001C6.10001 8.74 6.56001 8.74 7.04001 8.67C10.5 8.45 9.79001 8 9.66001 10V10.73C9.66001 10.97 9.66001 11.21 9.71001 11.45C9.77001 12.01 9.86001 12.56 9.91001 13.12C9.9091 13.1701 9.91838 13.2199 9.93729 13.2663C9.9562 13.3127 9.98434 13.3548 10.02 13.39V13.46C9.41001 13.46 8.79001 13.53 8.17001 13.55H3.11001C2.71372 13.5746 2.31629 13.5746 1.92001 13.55C1.74833 13.5354 1.5779 13.5087 1.41001 13.47C1.35001 13.47 1.26001 13.47 1.25001 13.41V12.24C1.20001 11.35 1.13001 10.47 1.12001 9.58V8.58C2.12001 8.62 3.15001 8.71 4.20001 8.74ZM9.93001 20.11C8.86001 20 7.80001 20 6.73001 20H5.30001C4.87001 20 4.36001 20 3.88001 20.07C3.02001 20.14 2.17001 20.24 1.32001 20.33C1.32001 19.54 1.40001 18.75 1.39001 17.95C1.39001 17.43 1.39001 16.9 1.33001 16.38C1.27001 15.86 1.25001 15.27 1.22001 14.73C1.84737 14.8364 2.48494 14.87 3.12001 14.83C4.57001 14.72 6.01001 14.65 7.45001 14.53C8.22001 14.46 8.99001 14.37 9.75001 14.26C9.79524 15.0293 9.79524 15.8007 9.75001 16.57V17.42C9.75001 17.7 9.75001 17.99 9.80001 18.28C9.80001 18.9 9.93001 19.5 9.98001 20.12L9.93001 20.11ZM21.81 17.67C21.4584 17.9311 21.1244 18.2151 20.81 18.52C20.64 18.69 20.5 18.88 20.35 19.06C20.4 18.69 20.49 18.33 20.51 17.96C20.53 17.59 20.51 17.38 20.51 17.09C20.5016 16.809 20.4782 16.5286 20.44 16.25C20.37 15.7 20.27 15.16 20.19 14.62C20.5862 14.4644 20.9678 14.2736 21.33 14.05C21.6397 13.841 21.9369 13.6139 22.22 13.37L22.86 12.84L22.77 13.6C22.77 13.9 22.77 14.19 22.71 14.49C22.65 14.79 22.71 15.08 22.71 15.38C22.71 15.89 22.71 16.38 22.79 16.91C22.49 17.16 22.14 17.41 21.81 17.67Z" fill="black"/>
<path fill-rule="evenodd" clip-rule="evenodd" d="M14.09 12.66C14.5305 12.7319 14.9814 12.7045 15.41 12.58C16.22 12.28 15.89 11.58 15.16 11.44C14.6984 11.336 14.2152 11.3924 13.79 11.6C13 12 13.47 12.49 14.09 12.66Z" fill="black"/>
<path fill-rule="evenodd" clip-rule="evenodd" d="M3.62001 5.79C4.06076 5.85583 4.51042 5.82857 4.94001 5.71C5.75001 5.41 5.42001 4.71 4.69001 4.56C4.2282 4.46067 3.7465 4.51692 3.32001 4.72C2.53001 5.11 3.00001 5.62 3.62001 5.79Z" fill="black"/>
<path fill-rule="evenodd" clip-rule="evenodd" d="M16.16 10.91C16.6005 10.9818 17.0514 10.9545 17.48 10.83C18.28 10.53 17.96 9.82999 17.22 9.68999C16.7615 9.59142 16.2832 9.64769 15.86 9.84999C15.06 10.24 15.54 10.75 16.16 10.91Z" fill="black"/>
<path fill-rule="evenodd" clip-rule="evenodd" d="M5.69001 4.00004C6.12198 4.09067 6.56805 4.09067 7.00001 4.00004C7.80001 3.70004 7.48001 3.00004 6.74001 2.85004C6.28574 2.75063 5.81138 2.80333 5.39001 3.00004C4.59001 3.36004 5.07001 3.87004 5.69001 4.00004Z" fill="black"/>
<path fill-rule="evenodd" clip-rule="evenodd" d="M18.39 12.66C18.8305 12.7319 19.2814 12.7045 19.71 12.58C20.51 12.28 20.19 11.58 19.46 11.44C18.9984 11.336 18.5152 11.3924 18.09 11.6C17.3 12 17.77 12.49 18.39 12.66Z" fill="black"/>
<path fill-rule="evenodd" clip-rule="evenodd" d="M7.92001 5.78999C8.36077 5.85582 8.81043 5.82857 9.24001 5.70999C10.04 5.40999 9.72001 4.70999 8.98001 4.55999C8.52146 4.46141 8.04316 4.51768 7.62001 4.71999C6.83001 5.10999 7.30001 5.61999 7.92001 5.78999Z" fill="black"/>
<path fill-rule="evenodd" clip-rule="evenodd" d="M20.46 10.91C20.9005 10.9819 21.3514 10.9545 21.78 10.83C22.58 10.53 22.25 9.83 21.52 9.69C21.0581 9.59218 20.5769 9.64838 20.15 9.85001C19.36 10.24 19.84 10.75 20.46 10.91Z" fill="black"/>
<path fill-rule="evenodd" clip-rule="evenodd" d="M10 4.00002C10.432 4.09064 10.878 4.09064 11.31 4.00002C12.11 3.70002 11.79 3.00002 11.05 2.85002C10.5892 2.74908 10.108 2.80176 9.68001 3.00002C8.89001 3.36002 9.37001 3.87002 10 4.00002Z" fill="black"/>
</g>
<defs>
<clipPath id="clip0_1034_4352">
<rect width="24" height="24" fill="white"/>
</clipPath>
</defs>
</svg>
