<svg width="24" height="24" viewBox="0 0 24 24" fill="none" xmlns="http://www.w3.org/2000/svg">
<path fill-rule="evenodd" clip-rule="evenodd" d="M14.76 18C14.3856 18.18 13.9755 18.2734 13.56 18.2734C13.1446 18.2734 12.7344 18.18 12.36 18C11.7723 17.7562 11.2512 17.3756 10.84 16.89C11.06 16.89 11.27 16.82 11.48 16.77C12.15 16.63 12.79 16.45 13.48 16.27C13.5211 16.2628 13.5603 16.2475 13.5953 16.2248C13.6303 16.2022 13.6603 16.1727 13.6837 16.1382C13.707 16.1036 13.7231 16.0647 13.7311 16.0238C13.7391 15.9829 13.7387 15.9408 13.73 15.9C13.724 15.8591 13.7098 15.8197 13.6883 15.7844C13.6668 15.749 13.6384 15.7183 13.6049 15.6941C13.5713 15.6698 13.5332 15.6526 13.4929 15.6433C13.4526 15.634 13.4108 15.6329 13.37 15.64C12.68 15.7 11.99 15.71 11.3 15.78C11.01 15.78 10.72 15.84 10.43 15.88V15.65C10.4532 15.3356 10.5068 15.0241 10.59 14.72C10.59 14.66 10.59 14.6 10.66 14.53H11.07C11.69 14.47 12.32 14.38 12.94 14.29C13.0249 14.2825 13.1038 14.2434 13.1613 14.1804C13.2187 14.1174 13.2503 14.0352 13.25 13.95C13.2475 13.9079 13.2366 13.8668 13.2182 13.829C13.1997 13.7911 13.1739 13.7573 13.1423 13.7294C13.1107 13.7015 13.0739 13.6802 13.0341 13.6665C12.9942 13.6529 12.9521 13.6473 12.91 13.65L11.11 13.53C11.4935 12.8748 12.0608 12.3465 12.7416 12.0106C13.4223 11.6747 14.1867 11.5458 14.94 11.64C14.9762 11.6471 15.0136 11.6468 15.0497 11.6389C15.0858 11.6311 15.1199 11.6159 15.1499 11.5943C15.1799 11.5728 15.2051 11.5453 15.2241 11.5136C15.243 11.4819 15.2552 11.4466 15.26 11.41C15.28 11.3661 15.2887 11.318 15.2853 11.2699C15.282 11.2218 15.2667 11.1754 15.2409 11.1347C15.2151 11.094 15.1796 11.0603 15.1375 11.0368C15.0955 11.0133 15.0482 11.0007 15 11C13.8439 10.751 12.6363 10.9588 11.63 11.58C10.9175 12.046 10.3358 12.6862 9.94001 13.44H9.40001C8.77001 13.5 8.15001 13.63 7.52001 13.73C7.48321 13.7325 7.44727 13.7423 7.41426 13.7588C7.38125 13.7753 7.35181 13.7981 7.32765 13.826C7.30349 13.8538 7.28508 13.8862 7.27347 13.9212C7.26186 13.9562 7.25729 13.9932 7.26001 14.03C7.26508 14.1034 7.29786 14.1721 7.35171 14.2222C7.40555 14.2724 7.47644 14.3002 7.55001 14.3C8.19001 14.35 8.80001 14.43 9.43001 14.47H9.51001C9.39007 14.8997 9.32951 15.3438 9.33001 15.79V16.02C8.77001 16.16 8.22001 16.33 7.65001 16.51C7.6139 16.5172 7.57956 16.5315 7.54896 16.552C7.51836 16.5725 7.49209 16.5988 7.47166 16.6294C7.45124 16.6601 7.43704 16.6944 7.4299 16.7306C7.42275 16.7667 7.42279 16.8039 7.43001 16.84C7.43723 16.8761 7.4515 16.9104 7.47199 16.9411C7.49248 16.9717 7.5188 16.9979 7.54945 17.0183C7.58009 17.0388 7.61446 17.053 7.65059 17.0601C7.68671 17.0673 7.7239 17.0672 7.76001 17.06C8.40001 17.01 9.03001 17.01 9.67001 16.96C10.2536 17.7872 11.0882 18.4043 12.05 18.72C12.5373 18.9034 13.0593 18.9762 13.5782 18.9329C14.097 18.8897 14.5998 18.7316 15.05 18.47C15.1218 18.4228 15.1731 18.3501 15.1935 18.2666C15.2139 18.1831 15.2019 18.095 15.16 18.02C15.1056 17.9717 15.0363 17.9433 14.9635 17.9397C14.8908 17.9361 14.819 17.9573 14.76 18Z" fill="black"/>
<path fill-rule="evenodd" clip-rule="evenodd" d="M21.5 13.28C21.3492 12.5461 21.1073 11.8339 20.78 11.16C20.3789 10.3215 19.8966 9.5244 19.34 8.78C18.8271 8.0971 18.2365 7.47625 17.58 6.93C17.78 6.85 17.99 6.77 18.19 6.67C18.2648 6.63315 18.3229 6.56936 18.3526 6.49145C18.3822 6.41353 18.3813 6.32727 18.35 6.25C18.3149 6.17098 18.2502 6.10889 18.1698 6.0771C18.0893 6.04531 17.9997 6.04635 17.92 6.08C17.669 6.17975 17.4118 6.26326 17.15 6.33C17.4744 5.84743 17.7587 5.33906 18 4.81C18.2874 4.18096 18.4471 3.50118 18.47 2.81C18.4665 2.37338 18.3887 1.94054 18.24 1.53C18.1265 1.21073 17.9297 0.927617 17.67 0.709999C17.5025 0.619847 17.3152 0.572657 17.125 0.572657C16.9348 0.572657 16.7475 0.619847 16.58 0.709999C16.09 0.889999 15.44 1.28 14.91 1.51C14.73 1.58 14.6 1.67 14.5 1.65C14.4 1.63 14.32 1.44 14.23 1.3C14.0722 1.02602 13.888 0.768125 13.68 0.529999C13.5305 0.371678 13.3501 0.245743 13.15 0.159999C12.8481 0.0600703 12.522 0.0600703 12.22 0.159999C11.7849 0.281976 11.3728 0.474535 11 0.729999C10 1.45 10.14 1.22 9.60001 0.939999C9.12017 0.622607 8.57177 0.423811 8.00001 0.359999C7.54001 0.359999 7.09001 0.679999 7.16001 1.68L7.25001 2.44L7.47001 3.5C7.53152 3.74785 7.60833 3.99165 7.70001 4.23C7.78781 4.47164 7.88794 4.70862 8.00001 4.94C8.17392 5.32995 8.37439 5.70751 8.60001 6.07L8.86001 6.43H8.50001C8.11026 6.33377 7.73402 6.18932 7.38001 6C7.34567 5.98203 7.30786 5.97167 7.26915 5.96961C7.23045 5.96756 7.19175 5.97386 7.1557 5.98809C7.11965 6.00232 7.08708 6.02415 7.06022 6.05208C7.03335 6.08002 7.01282 6.11342 7.00001 6.15C6.96683 6.2155 6.95974 6.29114 6.98015 6.36167C7.00057 6.43219 7.04698 6.49235 7.11001 6.53C7.24579 6.61113 7.38601 6.68458 7.53001 6.75C6.77277 7.45698 6.05818 8.2083 5.39001 9C4.69376 9.81416 4.06501 10.6837 3.51001 11.6C3.23406 12.0441 2.99973 12.5128 2.81001 13C2.62262 13.5042 2.47549 14.0225 2.37001 14.55C2.1118 15.5902 2.10502 16.677 2.35021 17.7203C2.5954 18.7637 3.08552 19.7337 3.78001 20.55C5.23627 22.0874 7.13335 23.1355 9.21001 23.55C12.1015 24.3075 15.1643 24.0643 17.9 22.86C18.8089 22.3969 19.6056 21.7408 20.2344 20.9376C20.8631 20.1344 21.3087 19.2035 21.54 18.21C21.6587 17.7576 21.739 17.2959 21.78 16.83C21.8151 16.3673 21.8151 15.9027 21.78 15.44C21.7449 14.7136 21.6513 13.9913 21.5 13.28ZM9.14001 5.75C8.93884 5.40408 8.76498 5.04298 8.62001 4.67C8.54001 4.46 8.46001 4.23 8.40001 4.01C8.34001 3.79 8.27001 3.55 8.22001 3.32L8.07001 2.32V1.63C8.07001 1.2 7.97001 1.16 8.56001 1.47C8.92001 1.66 9.28001 1.91 9.56001 2.06C9.7982 2.19062 10.0691 2.24966 10.34 2.23C10.7011 2.16848 11.0433 2.02478 11.34 1.81C11.6577 1.57021 11.9919 1.35301 12.34 1.16C12.4051 1.1199 12.4775 1.09308 12.553 1.08107C12.6285 1.06905 12.7057 1.07209 12.78 1.09C12.93 1.15 13.02 1.31 13.13 1.46C13.2856 1.71864 13.4594 1.96592 13.65 2.2C13.8082 2.39195 14.0209 2.53141 14.26 2.6C14.6019 2.65281 14.9517 2.59684 15.26 2.44C16.77 1.76 17.12 0.999999 17.44 2C17.526 2.26935 17.5797 2.54797 17.6 2.83C17.6095 3.41992 17.4971 4.00546 17.27 4.55C16.9935 5.25464 16.6379 5.9256 16.21 6.55C15.8 6.61 15.37 6.66 14.94 6.69H12.63C11.86 6.69 11.04 6.69 10.31 6.57H9.63001C9.45211 6.30563 9.28855 6.03191 9.14001 5.75ZM20.89 16.75C20.8503 17.1734 20.7699 17.592 20.65 18C20.4378 18.8627 20.0384 19.6683 19.4802 20.3595C18.9221 21.0508 18.2187 21.6108 17.42 22C14.894 23.0869 12.0746 23.2878 9.42001 22.57C7.54821 22.2212 5.82986 21.3026 4.50001 19.94C3.87805 19.2428 3.43118 18.4075 3.19641 17.5032C2.96164 16.5989 2.94573 15.6517 3.15001 14.74C3.31858 13.7589 3.65699 12.8148 4.15001 11.95C4.65802 11.0404 5.23998 10.1742 5.89001 9.36C6.54066 8.55289 7.24564 7.79112 8.00001 7.08C8.00001 7.08 8.00001 7 8.06001 7C8.14507 7.03445 8.23185 7.06449 8.32001 7.09C8.93684 7.27338 9.56479 7.41701 10.2 7.52C10.71 7.6 11.2 7.69 11.79 7.73C12.6018 7.80001 13.4182 7.80001 14.23 7.73C15.1511 7.65495 16.0605 7.47375 16.94 7.19C16.9539 7.22966 16.9742 7.26681 17 7.3C17.6713 7.86308 18.2693 8.50811 18.78 9.22C19.2921 9.93947 19.7341 10.7063 20.1 11.51C20.3843 12.1492 20.5892 12.8209 20.71 13.51C20.842 14.1961 20.9189 14.8916 20.94 15.59C20.9504 15.9873 20.9337 16.3849 20.89 16.78V16.75Z" fill="black"/>
</svg>
