<svg width="24" height="24" viewBox="0 0 24 24" fill="none" xmlns="http://www.w3.org/2000/svg">
<path fill-rule="evenodd" clip-rule="evenodd" d="M14.3 14.79C13.603 14.5678 12.8675 14.4929 12.14 14.57C11.8643 14.5812 11.5884 14.5542 11.32 14.49C11.2291 14.4754 11.1429 14.4398 11.0682 14.386C10.9936 14.3322 10.9325 14.2616 10.89 14.18C10.6 13.57 10.98 13.18 11.52 12.92C12.1797 12.6543 12.903 12.5882 13.6 12.73C13.6729 12.7486 13.7501 12.7381 13.8154 12.7008C13.8807 12.6634 13.929 12.6022 13.95 12.53C13.9686 12.4571 13.9581 12.3799 13.9208 12.3146C13.8834 12.2493 13.8222 12.201 13.75 12.18C13.354 12.0622 12.9432 12.0016 12.53 12L12.59 11.8C12.6003 11.6969 12.6003 11.5931 12.59 11.49C12.5994 11.3902 12.5994 11.2898 12.59 11.19C12.44 10.19 12.34 10.14 12.13 10.13C11.92 10.12 11.78 10.19 11.58 11.13C11.5709 11.2331 11.5709 11.3369 11.58 11.44C11.5692 11.5464 11.5692 11.6536 11.58 11.76C11.6007 11.8615 11.6274 11.9617 11.66 12.06C11.3538 12.1174 11.0575 12.2185 10.78 12.36C10.5809 12.4478 10.4018 12.5753 10.2537 12.7347C10.1056 12.8941 9.99151 13.0821 9.9185 13.2871C9.84549 13.4921 9.81506 13.7098 9.82908 13.9269C9.84309 14.1441 9.90125 14.3561 10 14.55C10.0833 14.7729 10.2169 14.9737 10.3903 15.1367C10.5637 15.2997 10.7723 15.4206 11 15.49C11.6874 15.6287 12.3898 15.6791 13.09 15.64C13.57 15.64 14.02 15.64 14.14 16.14C14.26 16.64 13.82 17.05 13.26 17.3C12.6347 17.5855 11.9397 17.6828 11.26 17.58C11.0657 17.5371 10.882 17.4555 10.72 17.34C10.5439 17.1972 10.3769 17.0436 10.22 16.88C10.1601 16.8208 10.0792 16.7875 9.995 16.7875C9.91075 16.7875 9.82991 16.8208 9.77 16.88C9.73944 16.909 9.7151 16.9439 9.69846 16.9825C9.68183 17.0212 9.67325 17.0629 9.67325 17.105C9.67325 17.1471 9.68183 17.1888 9.69846 17.2275C9.7151 17.2661 9.73944 17.301 9.77 17.33C9.97536 17.5838 10.2104 17.8121 10.47 18.01C10.6638 18.1472 10.8805 18.2488 11.11 18.31C11.345 18.3739 11.5866 18.4109 11.83 18.42V18.56C11.8201 18.6631 11.8201 18.7669 11.83 18.87C11.8202 18.9698 11.8202 19.0702 11.83 19.17C11.98 20.17 12.08 20.22 12.28 20.23C12.48 20.24 12.64 20.18 12.84 19.23V18.91C12.8503 18.8036 12.8503 18.6964 12.84 18.59C12.8246 18.522 12.8046 18.4552 12.78 18.39C13.2463 18.323 13.6988 18.1812 14.12 17.97C14.498 17.8057 14.8099 17.5193 15.0057 17.1567C15.2016 16.7941 15.27 16.3762 15.2 15.97C15.1643 15.7125 15.0626 15.4685 14.905 15.2618C14.7473 15.0551 14.5389 14.8926 14.3 14.79Z" fill="black"/>
<path fill-rule="evenodd" clip-rule="evenodd" d="M21.5 13.28C21.3492 12.5461 21.1073 11.8339 20.78 11.16C20.3789 10.3215 19.8966 9.5244 19.34 8.78C18.8271 8.0971 18.2365 7.47625 17.58 6.93C17.7843 6.85363 17.9846 6.76685 18.18 6.67C18.2188 6.65363 18.2539 6.62976 18.2835 6.59978C18.313 6.5698 18.3364 6.53428 18.3521 6.49527C18.3679 6.45625 18.3759 6.41451 18.3755 6.37242C18.3751 6.33033 18.3665 6.28873 18.35 6.25C18.3149 6.17098 18.2502 6.10889 18.1698 6.0771C18.0893 6.04531 17.9997 6.04635 17.92 6.08C17.669 6.17975 17.4118 6.26326 17.15 6.33C17.4744 5.84743 17.7587 5.33906 18 4.81C18.2874 4.18096 18.4471 3.50118 18.47 2.81C18.4665 2.37338 18.3887 1.94054 18.24 1.53C18.1265 1.21073 17.9297 0.927617 17.67 0.709999C17.5025 0.619847 17.3152 0.572657 17.125 0.572657C16.9348 0.572657 16.7475 0.619847 16.58 0.709999C16.09 0.889999 15.44 1.28 14.91 1.51C14.73 1.58 14.6 1.67 14.5 1.65C14.4 1.63 14.32 1.44 14.23 1.3C14.0722 1.02602 13.888 0.768125 13.68 0.529999C13.5305 0.371678 13.3501 0.245743 13.15 0.159999C12.8481 0.0600703 12.522 0.0600703 12.22 0.159999C11.7849 0.281976 11.3728 0.474535 11 0.729999C10 1.45 10.14 1.22 9.60001 0.939999C9.12017 0.622607 8.57177 0.423811 8.00001 0.359999C7.54001 0.359999 7.09001 0.679999 7.16001 1.68L7.25001 2.44L7.47001 3.5C7.53152 3.74785 7.60833 3.99165 7.70001 4.23C7.78781 4.47164 7.88794 4.70862 8.00001 4.94C8.17392 5.32995 8.37439 5.70751 8.60001 6.07C8.68001 6.2 8.78001 6.31 8.86001 6.43H8.50001C8.11026 6.33377 7.73402 6.18932 7.38001 6C7.34567 5.98203 7.30786 5.97167 7.26915 5.96961C7.23045 5.96756 7.19175 5.97386 7.1557 5.98809C7.11965 6.00232 7.08708 6.02415 7.06022 6.05208C7.03335 6.08002 7.01282 6.11342 7.00001 6.15C6.96428 6.21499 6.95579 6.29151 6.97641 6.36275C6.99704 6.43399 7.04508 6.49414 7.11001 6.53C7.24579 6.61113 7.38601 6.68458 7.53001 6.75C6.77277 7.45698 6.05818 8.2083 5.39001 9C4.69376 9.81416 4.06501 10.6837 3.51001 11.6C3.23406 12.0441 2.99973 12.5128 2.81001 13C2.62262 13.5042 2.47549 14.0225 2.37001 14.55C2.1118 15.5902 2.10502 16.677 2.35021 17.7203C2.5954 18.7637 3.08552 19.7337 3.78001 20.55C5.23627 22.0874 7.13335 23.1355 9.21001 23.55C12.1015 24.3075 15.1643 24.0643 17.9 22.86C18.8089 22.3969 19.6056 21.7408 20.2344 20.9376C20.8631 20.1344 21.3087 19.2035 21.54 18.21C21.6587 17.7576 21.739 17.2959 21.78 16.83C21.8151 16.3673 21.8151 15.9027 21.78 15.44C21.7449 14.7136 21.6513 13.9913 21.5 13.28ZM9.14001 5.75C8.93884 5.40408 8.76498 5.04298 8.62001 4.67C8.54001 4.46 8.46001 4.23 8.40001 4.01C8.34001 3.79 8.27001 3.55 8.22001 3.32L8.07001 2.32V1.63C8.07001 1.2 7.97001 1.16 8.56001 1.47C8.92001 1.66 9.28001 1.91 9.56001 2.06C9.7982 2.19062 10.0691 2.24966 10.34 2.23C10.7002 2.1655 11.0417 2.02207 11.34 1.81C11.6559 1.56767 11.9903 1.35035 12.34 1.16C12.4051 1.1199 12.4775 1.09308 12.553 1.08107C12.6285 1.06905 12.7057 1.07209 12.78 1.09C12.93 1.15 13.02 1.31 13.13 1.46C13.2856 1.71864 13.4594 1.96592 13.65 2.2C13.8082 2.39195 14.0209 2.53141 14.26 2.6C14.6019 2.65281 14.9517 2.59684 15.26 2.44C16.77 1.76 17.12 0.999999 17.44 2C17.526 2.26935 17.5797 2.54797 17.6 2.83C17.6095 3.41992 17.4971 4.00546 17.27 4.55C16.9935 5.25464 16.6379 5.9256 16.21 6.55C15.8 6.61 15.37 6.66 14.94 6.69H12.63C11.86 6.69 11.04 6.69 10.31 6.57H9.63001C9.45211 6.30563 9.28855 6.03191 9.14001 5.75ZM20.89 16.75C20.8503 17.1734 20.7699 17.592 20.65 18C20.4378 18.8627 20.0384 19.6683 19.4802 20.3595C18.9221 21.0508 18.2187 21.6108 17.42 22C14.894 23.0869 12.0746 23.2878 9.42001 22.57C7.54821 22.2212 5.82986 21.3026 4.50001 19.94C3.87805 19.2428 3.43118 18.4075 3.19641 17.5032C2.96164 16.5989 2.94573 15.6517 3.15001 14.74C3.31858 13.7589 3.65699 12.8148 4.15001 11.95C4.65802 11.0404 5.23998 10.1742 5.89001 9.36C6.54066 8.55289 7.24564 7.79112 8.00001 7.08C8.00001 7.08 8.00001 7 8.06001 7C8.14507 7.03445 8.23185 7.06449 8.32001 7.09C8.93656 7.27444 9.56458 7.41809 10.2 7.52C10.71 7.6 11.2 7.69 11.79 7.73C12.6018 7.80001 13.4182 7.80001 14.23 7.73C15.1511 7.65495 16.0605 7.47375 16.94 7.19C16.9539 7.22966 16.9742 7.26681 17 7.3C17.6713 7.86308 18.2693 8.50811 18.78 9.22C19.2921 9.93947 19.7341 10.7063 20.1 11.51C20.3843 12.1492 20.5892 12.8209 20.71 13.51C20.842 14.1961 20.9189 14.8916 20.94 15.59C20.9504 15.9873 20.9337 16.3849 20.89 16.78V16.75Z" fill="black"/>
</svg>
