<svg width="24" height="24" viewBox="0 0 24 24" fill="none" xmlns="http://www.w3.org/2000/svg">
<g clip-path="url(#clip0_1035_5041)">
<path fill-rule="evenodd" clip-rule="evenodd" d="M17.58 12.22C18.68 13.43 20.32 14.59 19.38 16.78C18.9028 17.5793 18.2095 18.2276 17.38 18.65C15.11 20.09 12.43 22.11 8.57 22.87C7.13412 23.2083 5.63294 23.146 4.23 22.69C2.23 21.93 0.790001 21.41 1.45 18.69C1.45684 18.6048 1.43316 18.52 1.38319 18.4507C1.33323 18.3814 1.26024 18.3321 1.17728 18.3117C1.09431 18.2912 1.00678 18.3009 0.930336 18.3391C0.853891 18.3773 0.793514 18.4414 0.760001 18.52C-0.00999907 21.41 1.35 22.45 3.92 23.52C7.33 24.91 12.29 23.26 15.41 21.35C18.72 19.35 19.85 18.68 20.41 17.29C21.64 14.43 19.67 12.83 18.35 11.44C20.98 11.61 25.93 8.44 22.16 4.82C20.4 3.12 17.76 3 15.39 3.62C11 4.79 7 7.89 3.51 7.13C3.15918 7.0767 2.8206 6.96159 2.51 6.79C1.91914 6.37973 1.50388 5.76254 1.34646 5.06064C1.18904 4.35874 1.30094 3.62332 1.66 3C2.26882 1.95869 3.20364 1.14687 4.32 0.690003C4.4115 0.658177 4.48661 0.591306 4.52881 0.504102C4.571 0.416897 4.57683 0.316502 4.545 0.225003C4.51318 0.133503 4.4463 0.0583938 4.3591 0.0161981C4.2719 -0.0259975 4.1715 -0.0318232 4.08 2.78465e-06C2.79736 0.497573 1.71473 1.40445 1 2.58C0.507978 3.38662 0.337672 4.34892 0.522971 5.27541C0.708269 6.2019 1.23559 7.02467 2 7.58C2.4043 7.83299 2.85178 8.00927 3.32 8.1C5.20838 8.44159 7.15583 8.20818 8.91 7.43C12.97 5.9 18.34 2.59 21.58 5.51C22.58 6.43 24.09 7.81 21.17 9.8C20.692 10.1826 20.138 10.459 19.5448 10.6107C18.9517 10.7624 18.333 10.7861 17.73 10.68C17.6749 10.661 17.6151 10.661 17.56 10.68C11.82 6.55 3.74 10.91 1.9 15.9C1.87083 15.9769 1.8734 16.0623 1.90716 16.1373C1.94091 16.2123 2.00309 16.2708 2.08 16.3C2.15691 16.3292 2.24227 16.3266 2.31728 16.2928C2.39229 16.2591 2.45083 16.1969 2.48 16.12C3.06035 14.8792 3.88444 13.7679 4.9032 12.8522C5.92196 11.9365 7.11457 11.2352 8.41 10.79C12.22 9.18 15.84 10.32 17.58 12.22Z" fill="black"/>
<path fill-rule="evenodd" clip-rule="evenodd" d="M15.79 11.9C14.9013 11.9184 14.0533 12.2762 13.42 12.9C12.4495 12.2012 11.3722 11.6642 10.23 11.31C10.14 11.31 9.62 10.94 9.34 11.01C9.27734 11.0355 9.22369 11.079 9.18591 11.1351C9.14814 11.1913 9.12797 11.2574 9.12797 11.325C9.12797 11.3926 9.14814 11.4587 9.18591 11.5149C9.22369 11.571 9.27734 11.6145 9.34 11.64C9.56 11.79 9.08 11.45 11.23 12.79C13.5 14.46 14.33 14.86 14.99 15.62C15.68 16.06 16.05 15.67 15.71 15.08C15.3196 14.4991 14.8443 13.98 14.3 13.54C14.12 13.39 14.12 13.54 14.89 13.3C15.6008 13.1244 16.2769 12.8302 16.89 12.43C17.21 12.12 16.57 11.82 15.79 11.9Z" fill="black"/>
<path fill-rule="evenodd" clip-rule="evenodd" d="M9.71 19.57C7.93 20.33 5.47 20.43 4.31 19.19C4.28308 19.1591 4.25035 19.1339 4.21366 19.1157C4.17698 19.0975 4.13707 19.0867 4.09622 19.0839C4.05536 19.0811 4.01435 19.0864 3.97554 19.0994C3.93672 19.1125 3.90086 19.1331 3.87 19.16C3.83914 19.1869 3.81389 19.2197 3.79568 19.2563C3.77747 19.293 3.76666 19.3329 3.76388 19.3738C3.76109 19.4146 3.76638 19.4557 3.77944 19.4945C3.7925 19.5333 3.81308 19.5691 3.84 19.6C5.25 21.27 8.14 21.43 10.16 20.66C13.1986 19.5558 15.9378 17.7582 18.16 15.41C18.2108 15.3372 18.233 15.2481 18.2221 15.1599C18.2112 15.0718 18.1681 14.9907 18.1011 14.9324C18.0341 14.8741 17.9479 14.8426 17.8591 14.844C17.7703 14.8454 17.6851 14.8796 17.62 14.94C15.87 17 11.55 18.77 9.71 19.57Z" fill="black"/>
</g>
<defs>
<clipPath id="clip0_1035_5041">
<rect width="24" height="24" fill="white"/>
</clipPath>
</defs>
</svg>
