<svg width="24" height="24" viewBox="0 0 24 24" fill="none" xmlns="http://www.w3.org/2000/svg">
<g clip-path="url(#clip0_1035_5046)">
<path fill-rule="evenodd" clip-rule="evenodd" d="M17.44 9.31C15.9607 8.52102 14.3294 8.05832 12.6561 7.9531C10.9829 7.84787 9.30649 8.10256 7.73998 8.7C6.72892 9.10576 5.87399 9.82404 5.29998 10.75C4.77839 11.684 4.51599 12.7405 4.53998 13.81C4.53998 13.81 4.53998 13.87 4.53998 13.9C4.16998 15.31 8.38998 18.9 10.86 20.57C12.5407 21.7547 14.4256 22.6191 16.42 23.12C17.3423 23.2768 18.288 23.2272 19.1888 22.9747C20.0897 22.7223 20.9234 22.2733 21.63 21.66C22.404 21.0877 23.0214 20.3296 23.4251 19.4558C23.8289 18.5819 24.0059 17.6204 23.94 16.66C23.43 13.84 20.82 11 17.44 9.31ZM20.81 20.67C20.2583 21.1859 19.599 21.5728 18.8796 21.8028C18.1601 22.0328 17.3986 22.1002 16.65 22C14.309 21.4674 12.1073 20.4449 10.19 19C8.27026 17.6182 6.52725 16.0062 4.99998 14.2C5.09902 14.1974 5.19313 14.1562 5.26224 14.0852C5.33136 14.0142 5.37002 13.9191 5.36998 13.82C5.34325 12.9062 5.56072 12.0018 5.99998 11.2C6.49589 10.437 7.23098 9.86023 8.08998 9.56C9.53438 9.05968 11.0687 8.87226 12.591 9.01019C14.1134 9.14812 15.589 9.60823 16.92 10.36C19.87 11.88 22.24 14.36 22.66 16.91C22.88 18.15 22.05 19.62 20.81 20.67Z" fill="black"/>
<path fill-rule="evenodd" clip-rule="evenodd" d="M4.50999 8.07C4.90995 7.73583 5.34599 7.44738 5.80999 7.21C6.08114 7.04941 6.36551 6.91224 6.65999 6.8C7.1642 6.57767 7.70893 6.46191 8.25999 6.46C8.36205 6.47429 8.46562 6.4476 8.54806 6.38577C8.63051 6.32393 8.68513 6.23198 8.69999 6.13C8.70852 6.08002 8.70696 6.02885 8.69541 5.97948C8.68386 5.93011 8.66254 5.88356 8.63272 5.84256C8.6029 5.80155 8.56518 5.76693 8.52177 5.74073C8.47837 5.71453 8.43016 5.69728 8.37999 5.69C7.78494 5.50679 7.15773 5.45225 6.53999 5.53C6.26584 5.56871 5.99934 5.64967 5.74999 5.77C5.49763 5.87825 5.26458 6.02686 5.05999 6.21C4.62397 6.61943 4.26494 7.10377 3.99999 7.64C3.94296 7.71028 3.9162 7.80034 3.92557 7.89036C3.93495 7.98037 3.9797 8.06298 4.04999 8.12C4.12027 8.17702 4.21032 8.20379 4.30034 8.19441C4.39036 8.18504 4.47296 8.14028 4.52999 8.07H4.50999Z" fill="black"/>
<path fill-rule="evenodd" clip-rule="evenodd" d="M6.49999 4.31C7.48721 3.99854 8.55427 4.05901 9.49999 4.48C9.59149 4.52907 9.69873 4.53977 9.79813 4.50977C9.89752 4.47976 9.98092 4.4115 10.03 4.32C10.0791 4.2285 10.0898 4.12126 10.0598 4.02186C10.0298 3.92247 9.96149 3.83907 9.86999 3.79C8.92327 3.17255 7.79529 2.89408 6.66999 3C6.18724 3.0453 5.71471 3.16681 5.26999 3.36C4.81536 3.54004 4.38794 3.78235 3.99999 4.08C3.19888 4.76542 2.52225 5.58413 1.99999 6.5C1.96976 6.53581 1.94703 6.57733 1.93315 6.62209C1.91927 6.66686 1.91452 6.71395 1.91919 6.76058C1.92385 6.80721 1.93783 6.85243 1.9603 6.89356C1.98277 6.93469 2.01327 6.97088 2.04999 7C2.08595 7.02731 2.127 7.04718 2.17072 7.05845C2.21445 7.06973 2.25998 7.07218 2.30467 7.06566C2.34935 7.05914 2.39229 7.04379 2.43098 7.0205C2.46966 6.99721 2.50332 6.96644 2.52999 6.93C3.19717 6.20019 3.9689 5.57337 4.81999 5.07C5.34096 4.738 5.90667 4.48208 6.49999 4.31Z" fill="black"/>
<path fill-rule="evenodd" clip-rule="evenodd" d="M5.13999 2.37C5.67216 2.2018 6.21736 2.07804 6.76999 2C8.07446 1.78992 9.41108 1.92082 10.65 2.38C10.7428 2.42641 10.8503 2.43405 10.9487 2.40123C11.0472 2.36841 11.1286 2.29783 11.175 2.205C11.2214 2.11218 11.229 2.00471 11.1962 1.90626C11.1634 1.8078 11.0928 1.72641 11 1.68C9.65943 0.988938 8.15425 0.680981 6.64999 0.790001C6.00874 0.821087 5.37385 0.931941 4.75999 1.12C4.14327 1.29711 3.55179 1.55252 2.99999 1.88C1.66695 2.6235 0.613463 3.78234 -5.21168e-06 5.18C-0.0206475 5.22 -0.0331433 5.26369 -0.036768 5.30855C-0.0403926 5.35342 -0.0350739 5.39855 -0.0211204 5.44134C-0.00716693 5.48413 0.0151437 5.52373 0.0445174 5.55783C0.0738912 5.59193 0.109743 5.61986 0.149995 5.64C0.232436 5.67828 0.326537 5.68299 0.412388 5.65313C0.49824 5.62327 0.569106 5.56118 0.609995 5.48C1.33184 4.37682 2.36575 3.51349 3.57999 3C4.08234 2.74869 4.60401 2.53802 5.13999 2.37Z" fill="black"/>
<path fill-rule="evenodd" clip-rule="evenodd" d="M12.54 11.58C12.3211 11.3837 12.0832 11.2095 11.83 11.06C11.5802 10.9042 11.3156 10.7736 11.04 10.67C10.3937 10.4601 9.71946 10.3489 9.04 10.34C8.99528 10.3314 8.94929 10.3318 8.90475 10.3414C8.86021 10.3509 8.81804 10.3692 8.78073 10.3953C8.74342 10.4214 8.71174 10.4548 8.68756 10.4934C8.66339 10.532 8.64721 10.575 8.64 10.62C8.62555 10.7088 8.64691 10.7998 8.6994 10.8729C8.75189 10.946 8.83122 10.9953 8.92 11.01C9.40267 11.1908 9.86791 11.415 10.31 11.68L10.78 11.97L11.5 12.39C12.1355 12.7431 12.7408 13.1478 13.31 13.6C13.3829 13.6743 13.4824 13.7165 13.5865 13.7174C13.6905 13.7184 13.7907 13.6779 13.865 13.605C13.9393 13.5321 13.9815 13.4326 13.9824 13.3285C13.9834 13.2245 13.9429 13.1243 13.87 13.05C13.4737 12.5194 13.0284 12.0272 12.54 11.58Z" fill="black"/>
</g>
<defs>
<clipPath id="clip0_1035_5046">
<rect width="24" height="24" fill="white"/>
</clipPath>
</defs>
</svg>
