<svg width="24" height="24" viewBox="0 0 24 24" fill="none" xmlns="http://www.w3.org/2000/svg">
<g clip-path="url(#clip0_1030_2375)">
<path fill-rule="evenodd" clip-rule="evenodd" d="M17.73 6.75001C17.78 6.75001 21.73 2.56001 22.4 1.75001C22.3931 2.29195 22.353 2.83296 22.28 3.37001C22.12 4.81001 21.87 6.42001 21.82 7.06001C21.8144 7.10208 21.8172 7.14485 21.8283 7.18582C21.8394 7.22678 21.8585 7.26514 21.8846 7.29864C21.9106 7.33214 21.9431 7.36013 21.9801 7.38096C22.0171 7.4018 22.0578 7.41507 22.1 7.42001C22.1415 7.42558 22.1837 7.42267 22.2241 7.41147C22.2644 7.40026 22.3021 7.381 22.3348 7.35483C22.3675 7.32866 22.3946 7.29613 22.4144 7.25921C22.4342 7.22229 22.4463 7.18174 22.45 7.14001C22.59 6.42001 23.21 4.47001 23.45 2.91001C23.5999 2.20792 23.5999 1.48209 23.45 0.780008C23.3891 0.606877 23.2873 0.451011 23.1532 0.325659C23.0191 0.200306 22.8568 0.109174 22.68 0.0600082C22.3188 -0.0301753 21.9411 -0.0301753 21.58 0.0600082C21.063 0.173295 20.5523 0.313486 20.05 0.480008C19.3 0.720008 18.56 0.990008 17.85 1.26001C17.63 1.34001 17.26 1.38001 16.96 1.49001C16.7749 1.5459 16.6043 1.64145 16.46 1.77001C16.391 1.83631 16.3512 1.92729 16.3493 2.02294C16.3475 2.11858 16.3837 2.21105 16.45 2.28001C16.5163 2.34896 16.6073 2.38876 16.7029 2.39063C16.7985 2.39251 16.891 2.35631 16.96 2.29001C17.0571 2.23161 17.1669 2.19732 17.28 2.19001C17.58 2.14001 17.9 2.12001 18.11 2.06001C18.71 1.90001 19.33 1.74001 19.96 1.60001C20.59 1.46001 21.2 1.32001 21.8 1.23001H21.9C21.9 1.23001 18.12 5.06001 17.05 6.00001C15.98 6.94001 14.37 8.45001 12.61 10.15C11.24 11.48 9.74997 12.95 8.30997 14.44C4.70997 18.15 1.30997 21.9 0.129971 23.44C0.103706 23.4728 0.0841656 23.5105 0.0724641 23.5509C0.0607627 23.5913 0.0571297 23.6336 0.0617726 23.6754C0.0711494 23.7598 0.113667 23.837 0.179971 23.89C0.246275 23.9431 0.330935 23.9676 0.415326 23.9582C0.499717 23.9488 0.576927 23.9063 0.629971 23.84C1.24997 23.1 2.44997 21.84 3.95997 20.35C5.18997 19.12 6.63997 17.73 8.11997 16.29L10.88 13.56C12.08 12.37 13.25 11.21 14.31 10.14C15.68 8.81001 16.86 7.60001 17.73 6.75001Z" fill="black"/>
<path fill-rule="evenodd" clip-rule="evenodd" d="M3.08996 4C3.44996 4.4 3.82996 4.81 4.21996 5.21C4.60996 5.61 4.99996 6 5.40996 6.34C6.40996 7.28 7.46996 8.12 8.33996 8.85C8.40096 8.90967 8.48316 8.94267 8.56849 8.94173C8.65382 8.94079 8.73528 8.906 8.79496 8.845C8.85463 8.784 8.88763 8.70179 8.88669 8.61646C8.88575 8.53113 8.85096 8.44967 8.78996 8.39C7.91996 7.39 6.92996 6.26 5.84996 5.12C5.23996 4.48 4.60996 3.86 3.99996 3.26C2.90996 2.19 1.88996 1.24 1.23996 0.489997C1.18067 0.414401 1.09431 0.364829 0.999127 0.351766C0.903948 0.338702 0.80742 0.363171 0.729958 0.419997C0.6559 0.480715 0.608268 0.567783 0.597079 0.662894C0.585889 0.758005 0.612013 0.853749 0.669958 0.929997C1.41445 2.00085 2.22257 3.02602 3.08996 4Z" fill="black"/>
<path fill-rule="evenodd" clip-rule="evenodd" d="M23.93 21.56C23.87 20.25 23.6 18.14 23.45 17.18C23.445 17.1326 23.4307 17.0867 23.4078 17.0449C23.385 17.0031 23.354 16.9662 23.3168 16.9365C23.2796 16.9067 23.2369 16.8846 23.1911 16.8715C23.1453 16.8584 23.0973 16.8545 23.05 16.86C23.003 16.8637 22.9573 16.8769 22.9155 16.8987C22.8738 16.9205 22.8369 16.9505 22.807 16.9869C22.7771 17.0233 22.7549 17.0654 22.7416 17.1106C22.7284 17.1558 22.7244 17.2032 22.73 17.25C22.73 17.86 22.78 18.93 22.78 19.96V21.41C22.09 20.59 20.84 19.36 20.14 18.58C19.71 18.1 19.25 17.63 18.79 17.19C18.33 16.75 17.79 16.31 17.32 15.9L14.72 13.8C14.6845 13.7685 14.6432 13.7443 14.5984 13.7287C14.5536 13.7132 14.5061 13.7066 14.4588 13.7094C14.4114 13.7122 14.3651 13.7243 14.3224 13.745C14.2797 13.7657 14.2415 13.7946 14.21 13.83C14.1785 13.8655 14.1542 13.9068 14.1387 13.9516C14.1231 13.9964 14.1166 14.0439 14.1194 14.0912C14.1221 14.1386 14.1342 14.1849 14.1549 14.2276C14.1756 14.2703 14.2045 14.3085 14.24 14.34L16.61 16.7C17.06 17.13 17.49 17.59 17.94 18.05C18.39 18.51 18.82 18.96 19.28 19.41C20.1 20.21 21.45 21.33 22.39 22.17H22.26C17.1 22.37 13.88 22.06 13.62 22.54C13.45 22.85 14.74 22.74 20.35 23.25C21.266 23.3543 22.1888 23.3877 23.11 23.35C23.2692 23.3442 23.4243 23.298 23.5607 23.2158C23.6971 23.1336 23.8104 23.018 23.89 22.88C23.9616 22.4437 23.9751 21.9999 23.93 21.56Z" fill="black"/>
</g>
<defs>
<clipPath id="clip0_1030_2375">
<rect width="24" height="24" fill="white"/>
</clipPath>
</defs>
</svg>
