<svg width="24" height="24" viewBox="0 0 24 24" fill="none" xmlns="http://www.w3.org/2000/svg">
<g clip-path="url(#clip0_1030_2380)">
<path fill-rule="evenodd" clip-rule="evenodd" d="M11.9 13.45C11.8501 13.4482 11.8003 13.4572 11.7542 13.4763C11.708 13.4954 11.6664 13.5241 11.6323 13.5606C11.5981 13.5971 11.5722 13.6405 11.5562 13.6878C11.5402 13.7352 11.5346 13.7854 11.5396 13.8351C11.5446 13.8848 11.5603 13.9329 11.5854 13.976C11.6106 14.0192 11.6447 14.0565 11.6855 14.0854C11.7263 14.1142 11.7728 14.1341 11.8218 14.1435C11.8709 14.1529 11.9214 14.1517 11.97 14.14C12.5248 14.1309 13.0662 13.9681 13.534 13.6698C14.0019 13.3714 14.3778 12.9492 14.62 12.45C14.8602 11.927 14.9492 11.3473 14.8767 10.7764C14.8042 10.2055 14.5733 9.6663 14.21 9.21997C13.8869 8.84079 13.4805 8.54148 13.0225 8.34545C12.5645 8.14942 12.0674 8.06198 11.57 8.08997C11.079 8.12146 10.6025 8.26939 10.1799 8.52153C9.75736 8.77367 9.4009 9.12277 9.14001 9.53997C8.90411 9.92246 8.75716 10.3531 8.71001 10.8C8.67612 11.2238 8.71673 11.6502 8.83001 12.06C8.90879 12.353 9.03732 12.6304 9.21001 12.88C9.33369 13.0583 9.49391 13.2083 9.68001 13.32C9.71284 13.3423 9.74974 13.3579 9.78862 13.366C9.82749 13.3741 9.86758 13.3744 9.90658 13.367C9.94558 13.3595 9.98273 13.3445 10.0159 13.3227C10.0491 13.3009 10.0777 13.2728 10.1 13.24C10.1223 13.2071 10.138 13.1702 10.146 13.1314C10.1541 13.0925 10.1544 13.0524 10.147 13.0134C10.1396 12.9744 10.1245 12.9372 10.1027 12.9041C10.081 12.8709 10.0528 12.8423 10.02 12.82C9.88543 12.7182 9.77879 12.584 9.71001 12.43C9.62931 12.2515 9.57216 12.0632 9.54001 11.87C9.47803 11.5563 9.47803 11.2336 9.54001 10.92C9.60148 10.6239 9.73164 10.3465 9.92001 10.11C10.1187 9.85374 10.3705 9.64348 10.658 9.49361C10.9456 9.34374 11.2621 9.25778 11.586 9.24164C11.9098 9.22549 12.2333 9.27954 12.5344 9.40007C12.8354 9.5206 13.1068 9.70477 13.33 9.93997C13.5945 10.2229 13.7755 10.5735 13.8532 10.9529C13.9309 11.3324 13.9021 11.7259 13.77 12.09C13.6106 12.4647 13.3524 12.7891 13.0231 13.0286C12.6938 13.2681 12.3056 13.4137 11.9 13.45Z" fill="black"/>
<path fill-rule="evenodd" clip-rule="evenodd" d="M23.93 10.77C23.6216 10.2061 23.2074 9.70702 22.71 9.29998C22.0198 8.7553 21.2986 8.25112 20.55 7.78998L19.37 6.91998C19.3085 6.88877 19.2382 6.87969 19.1708 6.89426C19.1034 6.90883 19.0431 6.94616 19 6.99998C18.9444 7.05775 18.9133 7.13481 18.9133 7.21498C18.9133 7.29516 18.9444 7.37222 19 7.42998L20.09 8.42998C20.63 8.90998 21.35 9.49998 21.98 10.13C22.315 10.4438 22.6075 10.8002 22.85 11.19C22.2793 12.0411 21.6078 12.8201 20.85 13.51L19.3 14.92C19.2365 14.9837 19.2008 15.07 19.2008 15.16C19.2008 15.25 19.2365 15.3363 19.3 15.4C19.3654 15.4641 19.4534 15.5 19.545 15.5C19.6366 15.5 19.7246 15.4641 19.79 15.4L21.5 14.1C22.2825 13.4673 23.0055 12.7643 23.66 12C23.8055 11.8346 23.9067 11.635 23.9539 11.4199C24.0011 11.2047 23.9929 10.9811 23.93 10.77Z" fill="black"/>
<path fill-rule="evenodd" clip-rule="evenodd" d="M15.59 18.91L14.59 20.02C14.12 20.57 13.54 21.3 12.93 21.94C12.6381 22.2801 12.3017 22.5795 11.93 22.83C11.0695 22.2829 10.2802 21.6313 9.58 20.89L8.07 19.37C8.00458 19.3059 7.91662 19.2699 7.825 19.2699C7.73339 19.2699 7.64543 19.3059 7.58 19.37C7.51649 19.4337 7.48083 19.52 7.48083 19.61C7.48083 19.7 7.51649 19.7863 7.58 19.85L8.91 21.55C9.54104 22.3185 10.2406 23.0281 11 23.67C11.1683 23.8208 11.3741 23.9236 11.5958 23.9676C11.8174 24.0116 12.0469 23.9951 12.26 23.92C12.8193 23.6006 13.3117 23.1762 13.71 22.67C14.2432 21.9699 14.7341 21.2386 15.18 20.48L16.02 19.29C16.0487 19.262 16.0716 19.2286 16.0872 19.1917C16.1027 19.1547 16.1108 19.1151 16.1108 19.075C16.1108 19.0349 16.1027 18.9952 16.0872 18.9583C16.0716 18.9214 16.0487 18.8879 16.02 18.86C15.9888 18.8342 15.9528 18.8151 15.914 18.8036C15.8752 18.7922 15.8345 18.7887 15.7943 18.7933C15.7542 18.798 15.7154 18.8107 15.6803 18.8308C15.6451 18.8508 15.6144 18.8778 15.59 18.91Z" fill="black"/>
<path fill-rule="evenodd" clip-rule="evenodd" d="M3.83001 8.10999L4.83001 7.10999C4.86308 7.08787 4.89143 7.0594 4.9134 7.02622C4.93536 6.99304 4.95051 6.95583 4.95795 6.91674C4.9654 6.87766 4.96499 6.83748 4.95676 6.79855C4.94853 6.75962 4.93264 6.72272 4.91001 6.68999C4.88887 6.65579 4.86085 6.62637 4.82772 6.60358C4.7946 6.58079 4.7571 6.56513 4.71761 6.55761C4.67811 6.55009 4.63748 6.55086 4.5983 6.55988C4.55912 6.5689 4.52224 6.58596 4.49001 6.60999L3.31001 7.54999C2.57939 8.03828 1.87817 8.5692 1.21001 9.13999C0.737855 9.55741 0.347833 10.0593 0.0600089 10.62C-6.5919e-05 10.8382 -0.00214425 11.0683 0.0539795 11.2875C0.110103 11.5067 0.222485 11.7075 0.380009 11.87C1.07015 12.6048 1.8267 13.2743 2.64001 13.87C2.88001 14.06 3.37001 14.51 3.84001 14.87C4.0247 15.0215 4.21839 15.1618 4.42001 15.29C4.45658 15.3168 4.49815 15.336 4.54226 15.3465C4.58637 15.357 4.63214 15.3586 4.67686 15.3511C4.72159 15.3437 4.76437 15.3273 4.80269 15.3031C4.84102 15.2789 4.8741 15.2472 4.90001 15.21C4.95098 15.1368 4.97115 15.0465 4.95619 14.9586C4.94123 14.8707 4.89232 14.7922 4.82001 14.74C4.59644 14.5547 4.38281 14.3578 4.18001 14.15C3.80001 13.77 3.43001 13.36 3.24001 13.15C2.46714 12.518 1.77225 11.7963 1.17001 11C1.39529 10.5942 1.6745 10.2208 2.00001 9.88999C2.61001 9.22999 3.31001 8.60999 3.83001 8.10999Z" fill="black"/>
<path fill-rule="evenodd" clip-rule="evenodd" d="M15.15 3.25999C14.69 2.66999 14.15 1.85999 13.52 1.18999C13.0829 0.72514 12.5686 0.339449 12 0.0499867C11.7777 -0.00715871 11.5443 -0.00490588 11.3232 0.0565196C11.1021 0.117945 10.9009 0.236387 10.74 0.399987C10.0017 1.10126 9.33195 1.87142 8.73999 2.69999C8.55999 2.93999 8.11999 3.43999 7.73999 3.91999C7.57999 4.12999 7.42999 4.32999 7.31999 4.49999C7.29412 4.53996 7.27643 4.58467 7.26796 4.63152C7.25948 4.67838 7.26038 4.72645 7.27062 4.77295C7.28085 4.81945 7.3002 4.86346 7.32756 4.90243C7.35491 4.94141 7.38973 4.97456 7.42999 4.99999C7.46717 5.0263 7.50927 5.04487 7.55377 5.0546C7.59827 5.06433 7.64427 5.06502 7.68905 5.05662C7.73382 5.04823 7.77645 5.03092 7.8144 5.00573C7.85236 4.98054 7.88486 4.94798 7.90999 4.90999C8.08772 4.68603 8.27802 4.47236 8.47999 4.26999C8.85999 3.87999 9.25999 3.49999 9.47999 3.26999C10.1267 2.4786 10.8652 1.76694 11.68 1.14999C12.0712 1.38687 12.4308 1.67249 12.75 1.99999C13.42 2.59999 14.05 3.27999 14.56 3.78999L15.56 4.78999C15.608 4.85587 15.6801 4.90015 15.7606 4.91326C15.8411 4.92636 15.9235 4.90722 15.99 4.85999C16.0223 4.8371 16.0497 4.80805 16.0707 4.77451C16.0917 4.74097 16.1059 4.7036 16.1124 4.66456C16.1189 4.62552 16.1176 4.58558 16.1086 4.54703C16.0996 4.50849 16.0831 4.47211 16.06 4.43999L15.15 3.25999Z" fill="black"/>
</g>
<defs>
<clipPath id="clip0_1030_2380">
<rect width="24" height="24" fill="white"/>
</clipPath>
</defs>
</svg>
