<svg width="24" height="24" viewBox="0 0 24 24" fill="none" xmlns="http://www.w3.org/2000/svg">
<g clip-path="url(#clip0_1047_6319)">
<path fill-rule="evenodd" clip-rule="evenodd" d="M8.75999 6.52997C9.24557 6.43081 9.72344 6.29714 10.19 6.12997C10.2502 6.09384 10.3013 6.04441 10.3394 5.98548C10.3776 5.92655 10.4017 5.85967 10.41 5.78997C10.4173 5.72608 10.4083 5.66137 10.3839 5.60191C10.3594 5.54244 10.3202 5.49017 10.27 5.44997C10.13 5.30997 10.39 5.37997 8.55999 5.44997C8.16167 5.45913 7.76426 5.49253 7.36999 5.54997C6.57999 5.64997 6.60999 6.13997 7.08999 6.44997C7.6308 6.61822 8.20558 6.64576 8.75999 6.52997Z" fill="black"/>
<path fill-rule="evenodd" clip-rule="evenodd" d="M10 3.44003C11 2.92003 9.27 2.36003 8.13 2.64003C7.26 2.78003 7.37 3.49003 7.85 3.56003C8.5662 3.68843 9.30253 3.64734 10 3.44003Z" fill="black"/>
<path fill-rule="evenodd" clip-rule="evenodd" d="M7.72999 9.56003C8.37999 9.47003 8.99999 9.26003 9.62999 9.19003C9.72016 9.19003 9.80664 9.15421 9.87041 9.09044C9.93417 9.02668 9.96999 8.9402 9.96999 8.85003C9.96999 8.75985 9.93417 8.67337 9.87041 8.60961C9.80664 8.54585 9.72016 8.51003 9.62999 8.51003C8.57259 8.40502 7.50739 8.40502 6.44999 8.51003C5.63999 8.63003 5.63999 9.33003 6.15999 9.44003C6.66605 9.60573 7.20462 9.6469 7.72999 9.56003Z" fill="black"/>
<path fill-rule="evenodd" clip-rule="evenodd" d="M10.84 11.77C10.69 11.44 10.68 11.6 8.99998 11.48C7.83029 11.2848 6.62977 11.4021 5.51998 11.82C4.78998 12.08 4.70998 12.6 5.23998 12.73C10.05 12.37 11.09 12.37 10.84 11.77Z" fill="black"/>
<path fill-rule="evenodd" clip-rule="evenodd" d="M21.49 3.49001C21.1218 2.93083 20.6061 2.48437 20 2.20001C19.9601 2.171 19.9143 2.15104 19.8658 2.14151C19.8174 2.13198 19.7675 2.13311 19.7195 2.14481C19.6716 2.15652 19.6268 2.17853 19.5882 2.20931C19.5496 2.24009 19.5182 2.27891 19.4961 2.32306C19.474 2.36721 19.4618 2.41563 19.4603 2.46497C19.4589 2.51431 19.4682 2.56338 19.4876 2.60876C19.507 2.65415 19.536 2.69477 19.5727 2.72779C19.6094 2.76082 19.6528 2.78546 19.7 2.80001C20.0763 3.01422 20.3953 3.3161 20.63 3.68001C20.7814 3.86313 20.883 4.08224 20.9249 4.31613C20.9668 4.55002 20.9476 4.79077 20.8691 5.01506C20.7907 5.23936 20.6556 5.43959 20.4771 5.59638C20.2985 5.75317 20.0825 5.8612 19.85 5.91001C19.4667 6.07355 19.0419 6.11328 18.6349 6.02363C18.2279 5.93399 17.8591 5.71946 17.58 5.41001C17.4049 5.29431 17.2662 5.13134 17.18 4.94001C16.87 4.04001 17.99 2.66001 18.88 2.46001C18.9536 2.44195 19.0176 2.3967 19.0593 2.33335C19.1009 2.27 19.117 2.19325 19.1043 2.11852C19.0916 2.04379 19.0511 1.97663 18.991 1.93053C18.9308 1.88443 18.8554 1.86281 18.78 1.87001C17.21 2.10001 15.23 4.42001 16.68 6.00001C15.0816 7.73141 13.6921 9.64451 12.54 11.7C11.9639 12.6113 11.4494 13.56 11 14.54C8.78999 14.61 9.26999 14.78 3.99999 15.15C4.15999 13.77 6.52999 5.58001 7.29999 2.81001C7.99999 0.570009 8.91999 0.86001 10.28 0.85001C13.72 0.79001 13.05 1.30001 13.58 2.32001C14.1295 3.55479 14.4675 4.87316 14.58 6.22001C14.5984 6.28993 14.6415 6.35084 14.7013 6.39152C14.7611 6.43219 14.8336 6.4499 14.9054 6.44138C14.9772 6.43286 15.0435 6.39868 15.0922 6.34515C15.1408 6.29161 15.1684 6.22231 15.17 6.15001C15.0825 4.72194 14.7546 3.31889 14.2 2.00001C13.9 1.39001 13.97 0.82001 13.2 0.44001C12.269 0.0873745 11.2735 -0.0626294 10.28 9.65036e-06C9.48999 9.65036e-06 8.50999 -0.15999 7.89999 0.43001C6.80999 1.49001 6.59999 3.18001 6.08999 4.43001C5.51999 5.93001 4.93999 7.45001 4.43999 9.00001C4.37999 9.17001 3.31999 12.65 3.43999 12.73C2.16999 18.18 1.36999 19.73 3.36999 20.78C3.37788 20.9366 3.37788 21.0934 3.36999 21.25C3.26999 22.25 3.02999 23.49 4.06999 23.78C4.65999 23.94 5.81999 24.31 6.14999 23.59C6.22144 23.3708 6.25195 23.1403 6.23999 22.91C6.23999 22.4 6.32999 22.18 6.37999 21.38C9.07838 21.5884 11.7904 21.5415 14.48 21.24C14.4688 21.4432 14.4688 21.6468 14.48 21.85C14.48 22.44 14.21 23.21 14.92 23.65C15.459 23.824 16.0238 23.9052 16.59 23.89C16.7763 23.8974 16.9621 23.8646 17.1346 23.7939C17.3072 23.7231 17.4625 23.6161 17.59 23.48C17.6945 23.2905 17.7463 23.0764 17.74 22.86C17.7002 22.2532 17.5792 21.6545 17.38 21.08C19.71 20.99 18.89 19.47 16.7 12.6C16.43 11.76 16.39 11.44 16.04 11.47C15.9651 11.4772 15.8945 11.5083 15.8386 11.5587C15.7828 11.6091 15.7447 11.6762 15.73 11.75C15.9228 12.7507 16.1971 13.734 16.55 14.69L11.74 14.54C12.57 13.27 11.18 15.54 17.2 6.54001L17.69 6.87001C19.76 8.11001 23 5.89001 21.49 3.49001ZM5.22999 22.78C5.22999 22.78 5.16999 22.91 5.14999 22.98C4.14999 22.77 4.26999 22.54 4.20999 22.17C4.15506 21.8023 4.12167 21.4316 4.10999 21.06C4.60268 21.1804 5.10433 21.2607 5.60999 21.3C5.46999 21.92 5.32999 22.28 5.22999 22.78ZM16.76 22.84C16.58 22.84 15.53 22.7 15.49 22.73C15.3497 22.2169 15.2395 21.696 15.16 21.17C15.6976 21.1068 16.2387 21.0768 16.78 21.08C16.67 21.32 16.93 22.49 16.76 22.84ZM16.76 15.29C17.2705 16.8562 17.6518 18.4615 17.9 20.09C17.44 19.8 13.19 20.88 6.54999 20.27C5.48999 20.17 4.10999 20.15 3.36999 19.4C3.00999 19.04 3.74999 16.24 3.85999 15.82C6.0882 16.0169 8.33112 15.9733 10.55 15.69C13.05 15.47 16.39 15.57 16.73 15.29H16.76Z" fill="black"/>
</g>
<defs>
<clipPath id="clip0_1047_6319">
<rect width="24" height="24" fill="white"/>
</clipPath>
</defs>
</svg>
