<svg width="24" height="24" viewBox="0 0 24 24" fill="none" xmlns="http://www.w3.org/2000/svg">
<g clip-path="url(#clip0_1047_6331)">
<path d="M16 9.27993C16 9.54993 16 9.81993 16.12 10.1699C16.1332 10.2439 16.172 10.3108 16.2296 10.359C16.2872 10.4072 16.3599 10.4336 16.435 10.4336C16.5101 10.4336 16.5828 10.4072 16.6404 10.359C16.698 10.3108 16.7368 10.2439 16.75 10.1699C16.8204 9.84068 16.8639 9.50624 16.88 9.16993C16.8808 8.9757 16.8363 8.78397 16.75 8.60993C16.54 8.22993 15.92 8.62993 16 9.27993Z" fill="black"/>
<path d="M22.07 5.69998C21.659 5.11104 21.1936 4.56196 20.68 4.05998C20.6513 4.02798 20.6175 4.00095 20.58 3.97998C19.5349 2.97827 18.2982 2.19797 16.9441 1.68589C15.59 1.17382 14.1464 0.940516 12.7 0.999978C12.6539 0.991738 12.6066 0.993701 12.5614 1.00573C12.5162 1.01776 12.4741 1.03956 12.4383 1.06959C12.4024 1.09962 12.3735 1.13716 12.3537 1.17956C12.3339 1.22196 12.3237 1.26818 12.3237 1.31498C12.3237 1.36177 12.3339 1.408 12.3537 1.4504C12.3735 1.49279 12.4024 1.53033 12.4383 1.56037C12.4741 1.5904 12.5162 1.6122 12.5614 1.62423C12.6066 1.63626 12.6539 1.63822 12.7 1.62998C15.3189 1.5636 17.8611 2.51737 19.79 4.28998C16.06 7.09421 12.4847 10.0986 9.08 13.29C7.8 14.52 6.5 15.71 5.22 16.92C4.48 17.62 3.76 18.32 3.04 19.03C1.62047 17.2016 0.865726 14.9444 0.899998 12.63C0.887878 9.74304 1.95829 6.95641 3.9 4.81998C5.81873 2.62484 8.48447 1.2207 11.38 0.879978C11.4534 0.869991 11.5201 0.832316 11.5666 0.774676C11.6131 0.717037 11.6358 0.6438 11.63 0.569978C11.62 0.496607 11.5823 0.429836 11.5247 0.383353C11.4671 0.336869 11.3938 0.314195 11.32 0.319978C8.27097 0.62974 5.44359 2.05411 3.38 4.31998C1.25503 6.57466 0.0494942 9.54214 -2.285e-06 12.64C-0.0500386 14.1355 0.211241 15.6251 0.767267 17.0143C1.32329 18.4035 2.16193 19.662 3.23 20.71C5.48655 22.7094 8.41594 23.7811 11.43 23.71C13.8818 23.7016 16.2785 22.9825 18.33 21.64C20.3943 20.3336 22.0369 18.4583 23.06 16.24C23.8243 14.5484 24.1349 12.6869 23.9613 10.8388C23.7877 8.99072 23.1359 7.21967 22.07 5.69998ZM22.19 15.81C21.2121 17.8385 19.6752 19.5455 17.76 20.73C15.8793 21.9462 13.6897 22.5986 11.45 22.61C8.70881 22.7067 6.03037 21.7759 3.94 20C3.76 19.84 3.6 19.66 3.44 19.49C4 19 4.52 18.48 5.06 18C6.64 16.66 8.23 15.35 9.81 14C19.12 5.55998 19.72 5.18998 20.29 4.72998C20.7041 5.16256 21.0789 5.63106 21.41 6.12998C22.3689 7.53703 22.9451 9.16945 23.0819 10.8667C23.2186 12.5639 22.9113 14.2675 22.19 15.81Z" fill="black"/>
<path d="M12.31 14.4C12.5424 15.2492 12.6832 16.1208 12.73 17C12.7769 17.4826 12.6645 17.9673 12.41 18.38C12.2758 18.5326 12.1125 18.657 11.9296 18.7458C11.7468 18.8346 11.5481 18.8861 11.3452 18.8973C11.1422 18.9085 10.9391 18.8791 10.7476 18.8109C10.5561 18.7427 10.3802 18.637 10.23 18.5C10.0399 18.4087 9.87386 18.2742 9.74513 18.1072C9.61641 17.9401 9.5286 17.7453 9.48874 17.5382C9.44889 17.3312 9.45809 17.1176 9.51561 16.9148C9.57314 16.7119 9.67739 16.5253 9.82 16.37C10.0504 16.1342 10.3355 15.959 10.65 15.86C10.9528 15.7422 11.2848 15.7212 11.6 15.8C11.6388 15.8193 11.6816 15.8293 11.725 15.8293C11.7683 15.8292 11.8111 15.8191 11.8499 15.7997C11.8886 15.7803 11.9224 15.7522 11.9484 15.7175C11.9745 15.6829 11.9921 15.6426 12 15.6C12.0145 15.5653 12.0218 15.528 12.0216 15.4904C12.0214 15.4527 12.0135 15.4155 11.9986 15.381C11.9837 15.3465 11.9619 15.3153 11.9347 15.2893C11.9074 15.2634 11.8752 15.2432 11.84 15.23C11.4045 15.0886 10.9355 15.0886 10.5 15.23C10.0573 15.3328 9.64793 15.5461 9.31 15.85C9.05918 16.0771 8.86523 16.3601 8.7438 16.6759C8.62236 16.9918 8.57684 17.3317 8.6109 17.6684C8.64495 18.0051 8.75764 18.3291 8.93987 18.6142C9.12209 18.8993 9.36877 19.1377 9.66 19.31C9.91695 19.5297 10.215 19.6962 10.5369 19.7997C10.8588 19.9031 11.198 19.9416 11.5349 19.9127C11.8718 19.8839 12.1995 19.7883 12.4991 19.6316C12.7987 19.4749 13.0642 19.2602 13.28 19C13.6577 18.3873 13.8163 17.6646 13.73 16.95C13.6252 16.0231 13.4173 15.1108 13.11 14.23C12.9214 13.6307 12.6977 13.043 12.44 12.47C12.3 12.11 11.71 12.47 11.92 12.96C12.0873 13.4291 12.2177 13.9106 12.31 14.4Z" fill="black"/>
<path d="M12.08 6.25997C12.42 6.25997 12.76 6.32996 13.08 6.38996L14.63 6.82996C14.7053 6.84274 14.7827 6.82816 14.8482 6.78886C14.9137 6.74956 14.9629 6.68813 14.9871 6.61567C15.0112 6.54321 15.0087 6.4645 14.9799 6.39376C14.9511 6.32302 14.8979 6.26493 14.83 6.22996L13.26 5.58996C12.83 5.46996 12.39 5.35997 11.95 5.27997C11.51 5.19997 11.06 5.13996 10.62 5.07996H9.91999C9.77225 5.07919 9.6288 5.12956 9.51397 5.22252C9.39913 5.31548 9.32 5.4453 9.28999 5.58996C9.32457 6.07249 9.42899 6.54744 9.59999 6.99996C9.95999 8.05996 10.6 9.31996 10.81 9.86996C10.8355 9.9381 10.8866 9.99363 10.9523 10.0248C11.0181 10.056 11.0934 10.0603 11.1623 10.0369C11.2311 10.0135 11.2882 9.96419 11.3214 9.89944C11.3546 9.83468 11.3612 9.75955 11.34 9.68996C11.21 9.19996 10.9 8.12997 10.65 7.14997C10.56 6.77997 10.47 6.42996 10.42 6.14996H10.54C11.05 6.16996 11.57 6.20997 12.08 6.25997Z" fill="black"/>
</g>
<defs>
<clipPath id="clip0_1047_6331">
<rect width="24" height="24" fill="white"/>
</clipPath>
</defs>
</svg>
