<svg width="24" height="24" viewBox="0 0 24 24" fill="none" xmlns="http://www.w3.org/2000/svg">
<g clip-path="url(#clip0_1048_7465)">
<path fill-rule="evenodd" clip-rule="evenodd" d="M7.19 5.1C6.97 8.1 6.92 8.6 6.93 8.77C6.93 9.15 7.35 9.39 7.71 9.51C9.19 10.05 14.93 10.51 15.85 9.91C16.2846 9.49577 16.5425 8.92976 16.57 8.33C16.67 7.56 16.66 4.45 16.37 4.1C15.92 3.51 15 3.52 11 3.39H7.87C7.16 3.38 7.2 5 7.19 5.1ZM7.91 4.1C9.94627 4.11545 11.9786 4.28258 13.99 4.6C14.27 4.6 15.14 4.6 15.42 4.69C15.32 4.8 15.42 5.21 15.47 5.34C15.61 6.34 15.47 8.81 15.21 8.97H14.99C13.23 8.79 11.7 9.48 8.13 8.74C7.46 8.56 7.91 4.88 7.91 4.07V4.1Z" fill="black"/>
<path fill-rule="evenodd" clip-rule="evenodd" d="M22.46 4.1C22.14 3.99 20.2 3.88 20.21 4.25C19.97 5.08 22.14 4.38 22.36 4.95C22.6163 5.78848 22.7312 6.66378 22.7 7.54C21.8812 7.18865 20.9785 7.08101 20.1 7.23C20.1 3.15 20.22 3.23 20.1 2.59C20.0415 2.13938 19.808 1.72989 19.45 1.45C16 -0.83 11.15 0.67 7.42001 0.15C6.40384 -0.0211914 5.36618 -0.0211914 4.35001 0.15C3.05001 0.49 3.07001 1.65 3.62001 1.65C3.67053 1.65622 3.72181 1.65102 3.77006 1.63478C3.8183 1.61853 3.86229 1.59166 3.89876 1.55615C3.93523 1.52064 3.96327 1.47739 3.98079 1.42959C3.99831 1.38179 4.00488 1.33067 4.00001 1.28C4.00001 0.42 6.53001 0.78 7.31001 0.9C10.94 1.45 15.85 0.12 18.91 2.23C19.37 2.55 19.14 3.16 18.91 14.57C18.9806 16.5619 18.8195 18.5553 18.43 20.51C18.29 21.05 18.18 21.87 17.74 22.17C16.22 23.17 13.05 22.84 11.23 22.47C9.41001 22.1 7.86001 22.64 6.23001 22.38C5.41001 22.25 3.45001 22.27 3.23001 21.62C3.15139 21.3663 3.10109 21.1047 3.08001 20.84C3.74869 20.8749 4.41919 20.838 5.08001 20.73C5.14414 20.6646 5.18006 20.5766 5.18006 20.485C5.18006 20.3934 5.14414 20.3054 5.08001 20.24C4.45759 19.9258 3.77634 19.7453 3.08001 19.71C3.08001 18.98 3.16001 18.51 3.26001 17.38C3.87221 17.4194 4.48694 17.3825 5.09001 17.27C5.15414 17.2046 5.19006 17.1166 5.19006 17.025C5.19006 16.9334 5.15414 16.8454 5.09001 16.78C4.54138 16.4931 3.93806 16.3261 3.32001 16.29V13.8C3.79616 13.8303 4.27421 13.7933 4.74001 13.69C4.80414 13.6246 4.84006 13.5366 4.84006 13.445C4.84006 13.3534 4.80414 13.2654 4.74001 13.2C4.30127 12.9505 3.81312 12.8003 3.31001 12.76V9.68C3.78616 9.71033 4.26421 9.6733 4.73001 9.57C4.79414 9.50457 4.83006 9.41661 4.83006 9.325C4.83006 9.23339 4.79414 9.14542 4.73001 9.08C4.30214 8.83043 3.82372 8.68007 3.33001 8.64V5.77C3.80616 5.80033 4.28421 5.7633 4.75001 5.66C4.81414 5.59457 4.85006 5.50661 4.85006 5.415C4.85006 5.32339 4.81414 5.23542 4.75001 5.17C4.31127 4.9205 3.82312 4.7703 3.32001 4.73C3.50001 2.15 3.47001 2.5 3.45001 2.41C3.44829 2.36682 3.43624 2.32469 3.41486 2.28713C3.39348 2.24958 3.36341 2.21771 3.32715 2.19419C3.2909 2.17068 3.24953 2.15621 3.20653 2.152C3.16352 2.14779 3.12013 2.15396 3.08001 2.17C2.75001 2.25 2.83001 2.53 2.67001 4.64C1.80001 4.53 0.110009 4.35 0.250009 5.18C0.250009 5.28 0.370009 5.38 0.570009 5.45C0.770009 5.52 2.30001 5.71 2.67001 5.76V8.54C1.81001 8.44 0.140009 8.26 0.280009 9.09C0.280009 9.4 0.880009 9.43 2.62001 9.65C2.62001 10.65 2.56001 11.65 2.55001 12.65C1.73001 12.56 0.140009 12.4 0.280009 13.21C0.280009 13.31 0.400009 13.41 0.600009 13.48C0.800009 13.55 1.99001 13.69 2.54001 13.76C2.54001 14.67 2.54001 15.29 2.46001 16.19C1.73001 16.14 0.460009 16.06 0.590009 16.79C0.590009 16.89 0.710009 16.99 0.910009 17.06C0.960009 17.06 1.75001 17.2 2.36001 17.28C2.24001 18.39 2.17001 18.88 2.13001 19.63C1.46001 19.63 0.480009 19.63 0.590009 20.25C0.590009 20.35 0.710009 20.45 0.910009 20.53L2.12001 20.71C2.13143 21.1231 2.19528 21.533 2.31001 21.93C2.75001 23.3 4.94001 23.22 6.08001 23.43C7.64001 23.71 9.58001 23.28 11.08 23.58C13.27 24.04 16.62 24.39 18.47 23.13C19.149 22.5284 19.5654 21.6848 19.63 20.78C19.9913 19.1387 20.1558 17.4602 20.12 15.78C20.594 15.9346 21.092 16.0024 21.59 15.98C21.8589 15.9454 22.1311 15.9454 22.4 15.98C22.24 17.49 22.33 16.84 22.24 17.93C22.04 18.44 21.89 18.71 21.34 18.73C21.25 18.73 20.26 18.52 20.05 18.87C20.0078 18.9348 19.9897 19.0123 19.9989 19.0891C20.008 19.1658 20.0438 19.2369 20.1 19.29C20.4988 19.4264 20.9187 19.4908 21.34 19.48C23.83 19.55 23.34 15.54 23.7 11.76C23.77 10.05 24.13 4.64 22.46 4.1ZM22.69 8.45C22.69 9.64 22.54 10.82 22.47 11.7C22.47 12.2 22.78 11.55 20.08 11.78V8.1C20.9301 8.33477 21.8081 8.45252 22.69 8.45ZM20.05 14.89V12.76C20.5151 12.869 20.9956 12.8961 21.47 12.84C21.7883 12.8502 22.1067 12.8267 22.42 12.77V15.14C21.6617 14.8669 20.8486 14.7811 20.05 14.89Z" fill="black"/>
</g>
<defs>
<clipPath id="clip0_1048_7465">
<rect width="24" height="24" fill="white"/>
</clipPath>
</defs>
</svg>
