<svg width="24" height="24" viewBox="0 0 24 24" fill="none" xmlns="http://www.w3.org/2000/svg">
<g clip-path="url(#clip0_1048_7452)">
<path d="M20.6 14.93C17.8849 14.306 15.1057 14.0039 12.32 14.03C12.2431 14.03 12.1693 14.0606 12.1149 14.1149C12.0605 14.1693 12.03 14.2431 12.03 14.32C12.03 14.3969 12.0605 14.4707 12.1149 14.5251C12.1693 14.5794 12.2431 14.61 12.32 14.61C15.0229 15.2562 17.7909 15.5918 20.57 15.61C20.6601 15.614 20.7482 15.582 20.8148 15.521C20.8814 15.4601 20.921 15.3752 20.925 15.285C20.9289 15.1948 20.8969 15.1068 20.836 15.0402C20.775 14.9736 20.6901 14.934 20.6 14.93Z" fill="black"/>
<path d="M23.61 3.46001C23.53 2.65001 22.67 2.57001 21.85 2.46001C21.8659 2.01384 21.7946 1.56885 21.64 1.15001C21.4149 0.908107 21.105 0.762618 20.7751 0.74398C20.4452 0.725342 20.1209 0.834999 19.87 1.05001C19.6956 1.23478 19.5597 1.45231 19.47 1.69001C18.9107 1.45578 18.2936 1.3965 17.7 1.52001C17.6964 1.23728 17.6351 0.958266 17.52 0.700009C17.2907 0.461767 16.9798 0.319055 16.6496 0.300508C16.3195 0.28196 15.9945 0.38895 15.74 0.600009C15.5974 0.758097 15.4794 0.936769 15.39 1.13001C15.238 1.04224 15.0655 0.996034 14.89 0.996034C14.7145 0.996034 14.542 1.04224 14.39 1.13001C14.3932 0.87971 14.3456 0.631364 14.25 0.400009C14.0207 0.161767 13.7098 0.019055 13.3796 0.000507555C13.0495 -0.0180399 12.7245 0.0889497 12.47 0.300009C12.3022 0.478498 12.1729 0.689519 12.09 0.920009C11.684 0.786456 11.246 0.786456 10.84 0.920009C9.95 1.28001 9.24 4.57001 9.06 5.56001C8.75351 7.36057 8.54653 9.17666 8.44 11C8.44 11.0875 8.47477 11.1715 8.53666 11.2334C8.59854 11.2952 8.68248 11.33 8.77 11.33C8.85752 11.33 8.94146 11.2952 9.00335 11.2334C9.06524 11.1715 9.1 11.0875 9.1 11C9.23 9.79001 9.97 6.73001 10.51 4.00001C11.01 1.45001 10.97 1.38001 11.89 1.47001C11.42 3.47001 11.72 3.20001 12.55 3.52001C13.69 4.00001 14.34 3.30001 14.44 2.00001C14.5883 2.07611 14.7533 2.11393 14.92 2.11001C15.13 2.11001 15.11 1.95001 15 2.55001C14.94 2.86001 14.82 3.18001 15.06 3.49001C15.3 3.80001 15.64 3.76001 15.82 3.82001C16.77 4.18001 17.58 3.82001 17.71 2.35001C18.172 2.58736 18.7006 2.66137 19.21 2.56001C19.06 3.33001 18.93 3.65001 19.21 3.98001C19.49 4.31001 19.8 4.25001 19.98 4.31001C20.91 4.64001 21.62 4.31001 21.82 3.13001C22.06 3.18001 22.29 3.22001 22.47 3.27001C23.13 3.46001 22.76 2.98001 22.18 8.61001C21.95 10.81 21.82 13.03 21.69 13.83C21.6895 13.9003 21.7136 13.9685 21.7582 14.0228C21.8028 14.0771 21.8651 14.114 21.9341 14.1271C22.0031 14.1402 22.0746 14.1286 22.136 14.0944C22.1973 14.0602 22.2448 14.0056 22.27 13.94C22.41 13.13 23.92 6.80001 23.61 3.46001ZM13.38 2.40001C13.31 2.55001 13.17 2.61001 12.96 2.52001H12.78C12.78 2.52001 12.83 1.63001 12.88 1.36001C13 0.640009 13.08 0.750009 13.65 0.780008C13.673 1.33287 13.5811 1.8845 13.38 2.40001ZM16.65 2.70001C16.57 2.85001 16.44 2.91001 16.22 2.82001H16.05C16.05 2.77001 16.05 1.93001 16.14 1.65001C16.27 0.930009 16.35 1.04001 16.92 1.07001C16.9444 1.62621 16.8525 2.18139 16.65 2.70001ZM20.77 3.19001C20.64 3.46001 20.45 3.32001 20.17 3.29001C20.23 3.14001 20.17 2.01001 20.45 1.57001C20.5 1.50001 20.95 1.57001 21.04 1.57001C21.063 2.12287 20.9711 2.6745 20.77 3.19001Z" fill="black"/>
<path d="M11.8 5.67C12.3822 5.81852 12.9734 5.92876 13.57 6C14.955 6.36829 16.3656 6.63236 17.79 6.79C19.18 6.95 20.79 7.28 20.26 6.46C20.14 6.27 19.39 6.16 17.95 5.83C17.47 5.72 16.47 5.45 15.42 5.3C13.83 5.07 10.5 5 11.8 5.67Z" fill="black"/>
<path d="M11.61 8.61001C12.6191 8.95125 13.6565 9.20223 14.71 9.36001C16.66 9.65001 17.25 9.51001 19.34 9.78001C19.4215 9.7839 19.5016 9.75837 19.5658 9.70809C19.63 9.65781 19.674 9.58612 19.6898 9.50611C19.7055 9.42609 19.692 9.34307 19.6517 9.2722C19.6113 9.20132 19.5469 9.14731 19.47 9.12001C17.9465 8.70704 16.3911 8.42271 14.82 8.27001H13.21C12.7444 8.28636 12.2784 8.25283 11.82 8.17001C11.7731 8.1784 11.7289 8.19784 11.691 8.22673C11.6531 8.25561 11.6226 8.29311 11.6021 8.33611C11.5815 8.37912 11.5716 8.42639 11.5729 8.47402C11.5743 8.52165 11.587 8.56827 11.61 8.61001Z" fill="black"/>
<path d="M11.34 11.08C11.04 11.08 11.1 11.37 11.13 11.48C11.1621 11.551 11.219 11.6079 11.29 11.64C12.4999 12.0192 13.7471 12.2673 15.01 12.38C15.6744 12.4472 16.3423 12.4739 17.01 12.46C17.0775 12.4821 17.1504 12.4817 17.2178 12.4591C17.2851 12.4364 17.3433 12.3926 17.3838 12.3341C17.4242 12.2757 17.4447 12.2058 17.4422 12.1348C17.4398 12.0638 17.4144 11.9955 17.37 11.94C15.4356 11.2617 13.3869 10.9695 11.34 11.08Z" fill="black"/>
<path d="M17.5 18.17C17.5858 17.8408 17.5754 17.494 17.4702 17.1705C17.3649 16.847 17.1692 16.5605 16.9062 16.3448C16.6431 16.1291 16.3238 15.9933 15.986 15.9535C15.6482 15.9136 15.306 15.9714 15 16.12C14.1402 16.6063 13.3747 17.2431 12.74 18C12.34 18.37 10.95 19.49 10.92 19.52C10.2601 19.4876 9.61066 19.3422 9 19.09C8.81 19 8.62 19.04 9 18.53C10.15 16.78 11.58 16.21 10.57 14.47C9.77999 13.13 7.69 14.35 6.46 15.3C5.23 16.25 5.35999 16.4 4.07999 16.47C2.47999 16.55 0.799995 16.4 0.549995 16.55C0.469528 16.5889 0.407624 16.658 0.377679 16.7422C0.347735 16.8264 0.352159 16.919 0.389995 17C0.569995 17.29 2.24 17.21 3.65 17.21C4.33724 17.2801 5.03033 17.1553 5.65 16.85C6.60989 16.041 7.67657 15.3681 8.81999 14.85C9.18999 14.72 9.55 14.61 9.7 14.85C9.78395 14.9691 9.84087 15.105 9.86678 15.2484C9.89269 15.3918 9.88696 15.5391 9.85 15.68C9.55 16.71 7 18.3 8 19.6C8.45 20.2 10.12 20.6 11 20.6C12.0973 20.5711 13.1878 20.4168 14.25 20.14C17.19 19.38 17.48 18.92 17.82 19.62C17.96 19.91 17.76 20.18 17.53 20.43C13.78 24.6 6.02 22.43 5.87 22.49C5.72 22.55 2.45 23.13 1.37999 23.44C1.34222 23.4489 1.30662 23.4653 1.27531 23.4882C1.24399 23.5112 1.2176 23.5402 1.19769 23.5735C1.17778 23.6068 1.16476 23.6438 1.1594 23.6822C1.15405 23.7207 1.15646 23.7598 1.1665 23.7973C1.17655 23.8348 1.19401 23.8699 1.21787 23.9005C1.24172 23.9311 1.27148 23.9566 1.30537 23.9755C1.33927 23.9944 1.37662 24.0063 1.4152 24.0105C1.45379 24.0147 1.49282 24.0112 1.52999 24C2.46 23.76 4.96 23.36 5.91 23.21C9.35999 24.21 14.06 24.35 17.05 22.21C17.7465 21.7805 18.3404 21.2037 18.79 20.52C18.9103 20.2845 18.9712 20.0232 18.9673 19.7588C18.9634 19.4944 18.8948 19.235 18.7676 19.0032C18.6403 18.7715 18.4583 18.5743 18.2373 18.4291C18.0164 18.2838 17.7632 18.1949 17.5 18.17ZM12.5 19.35C12.1 19.41 12.3 19.44 13.37 18.74C14.44 18.04 15.53 16.74 16.2 17.01C16.4298 17.115 16.6145 17.2987 16.7208 17.5279C16.8272 17.7571 16.8482 18.0167 16.78 18.26C15 18.69 14.1 19.11 12.47 19.35H12.5Z" fill="black"/>
</g>
<defs>
<clipPath id="clip0_1048_7452">
<rect width="24" height="24" fill="white"/>
</clipPath>
</defs>
</svg>
