<svg width="24" height="24" viewBox="0 0 24 24" fill="none" xmlns="http://www.w3.org/2000/svg">
<g clip-path="url(#clip0_1048_7469)">
<path fill-rule="evenodd" clip-rule="evenodd" d="M22.46 11.11C22.22 10.73 21.74 10.72 21.29 10.78C19.4299 11.0784 17.6945 11.9044 16.29 13.16C15.3495 13.8068 14.589 14.6822 14.0799 15.7038C13.5709 16.7254 13.33 17.8597 13.38 19C13.3644 19.7486 13.4969 20.4929 13.77 21.19C13.1199 21.9826 12.5283 22.8215 12 23.7C12 23.93 12.29 24.12 12.62 23.91C13.7906 22.6924 14.8923 21.4104 15.92 20.07C16.8048 18.7595 17.6161 17.4007 18.35 16C18.3796 15.9344 18.3846 15.8603 18.3641 15.7912C18.3435 15.7222 18.2989 15.6629 18.2382 15.624C18.1776 15.5852 18.105 15.5695 18.0337 15.5798C17.9624 15.5901 17.8972 15.6256 17.85 15.68C13.98 20.79 14.53 20.08 14.1 20.68C14.0893 20.5135 14.0893 20.3465 14.1 20.18C13.9244 19.2338 13.9791 18.2592 14.2593 17.3385C14.5395 16.4178 15.0371 15.578 15.71 14.89C17.71 12.89 20.62 11.8 21.44 11.89C21.44 15.04 21.44 14.74 21.37 15.24L19.83 16.24C19.65 16.34 19.2 16.46 19.07 16.84C18.85 17.5 19.66 17.56 20.19 18.09C18.92 18.83 18.76 18.59 18.37 18.87C18.3029 18.9066 18.2436 18.9561 18.1957 19.0157C18.1477 19.0753 18.112 19.1437 18.0907 19.2172C18.0693 19.2906 18.0626 19.3675 18.0711 19.4435C18.0796 19.5195 18.103 19.5931 18.14 19.66C18.4568 19.9654 18.7906 20.2525 19.14 20.52C16.46 22.77 15.71 21.99 15.26 22.29C15.1994 22.3306 15.1529 22.3891 15.1272 22.4574C15.1014 22.5256 15.0977 22.6002 15.1164 22.6707C15.1351 22.7412 15.1754 22.8041 15.2316 22.8506C15.2879 22.8971 15.3572 22.9249 15.43 22.93C17.43 23.25 20.03 20.93 20.12 20.7C20.28 20.28 19.79 19.95 19.33 19.53C19.9934 19.2712 20.6411 18.9741 21.27 18.64C21.3518 18.6002 21.4224 18.5408 21.4756 18.467C21.5288 18.3933 21.5629 18.3075 21.5748 18.2173C21.5867 18.1271 21.576 18.0354 21.5438 17.9504C21.5115 17.8653 21.4587 17.7896 21.39 17.73L20.57 17C21.7 16.38 22.27 16.08 22.47 15.53C22.59 15.23 22.78 11.6 22.46 11.11Z" fill="black"/>
<path fill-rule="evenodd" clip-rule="evenodd" d="M11.06 19C3.59999 19.11 6.76999 19.12 3.50999 18.73C3.01999 18.68 2.79999 18.31 2.65999 17.88C2.39999 17.03 2.46999 16.88 2.58999 8.55001C2.44715 6.88119 2.51772 5.20097 2.79999 3.55001C3.04999 2.55001 2.79999 2.17001 4.21999 2.19001C4.21999 2.53001 4.08999 3.82001 4.11999 4.04001C4.20999 4.80001 4.95999 4.69001 5.24999 4.77001C6.76999 5.13001 7.33999 3.99001 7.24999 2.40001C7.72608 2.54348 8.23389 2.54348 8.70999 2.40001C8.70999 2.51001 8.60999 3.78001 8.63999 3.96001C8.72999 4.72001 9.46999 4.60001 9.76999 4.68001C11.27 5.04001 11.84 3.94001 11.77 2.38001C12.45 2.58001 12.5 2.55001 13.5 2.32001C13.5 2.42001 13.42 3.70001 13.44 3.82001C13.4483 3.9667 13.5032 4.10691 13.5967 4.22023C13.6903 4.33354 13.8175 4.41404 13.96 4.45001C15.56 4.88001 16.5 4.45001 16.55 2.72001C16.8849 2.72927 17.2188 2.75933 17.55 2.81001C17.79 2.81001 17.99 2.89001 18.01 3.09001L18.38 10.02C18.372 10.0633 18.3736 10.1078 18.3847 10.1504C18.3959 10.193 18.4162 10.2326 18.4444 10.2664C18.4725 10.3003 18.5078 10.3275 18.5476 10.3462C18.5875 10.3649 18.631 10.3746 18.675 10.3746C18.719 10.3746 18.7625 10.3649 18.8023 10.3462C18.8422 10.3275 18.8774 10.3003 18.9056 10.2664C18.9338 10.2326 18.9541 10.193 18.9652 10.1504C18.9764 10.1078 18.978 10.0633 18.97 10.02C19.4101 7.67044 19.4101 5.25958 18.97 2.91001C18.73 1.91001 17.65 1.91001 16.59 2.00001C16.4949 1.4385 16.3127 0.895291 16.05 0.390008C15.9076 0.261696 15.7408 0.163324 15.5597 0.100739C15.3785 0.0381534 15.1866 0.0126324 14.9953 0.0256925C14.8041 0.0387527 14.6174 0.0901276 14.4464 0.176763C14.2754 0.263399 14.1236 0.383527 14 0.530008C13.8052 0.835332 13.6695 1.17455 13.6 1.53001C12.9338 1.37263 12.2352 1.42502 11.6 1.68001C11.5689 1.27637 11.4602 0.882519 11.28 0.520008C11.1353 0.385633 10.9646 0.282447 10.7783 0.21686C10.5921 0.151274 10.3943 0.124688 10.1974 0.138756C10.0004 0.152824 9.8085 0.207244 9.63347 0.298635C9.45845 0.390026 9.30409 0.516435 9.17999 0.670008C9.01679 0.93187 8.8985 1.21916 8.82999 1.52001C8.25618 1.40639 7.66246 1.44781 7.10999 1.64001C7.06707 1.2673 6.95874 0.905082 6.78999 0.570008C6.64816 0.400507 6.46049 0.275464 6.24945 0.209845C6.0384 0.144226 5.81292 0.140811 5.59999 0.200008C4.79999 0.320008 4.49999 0.870008 4.31999 1.65001C3.78674 1.54912 3.235 1.63754 2.75999 1.90001C2.24999 2.24001 2.21999 2.96001 2.07999 3.42001C1.69131 5.11133 1.51992 6.84532 1.56999 8.58001C1.37999 13.27 1.42999 11.77 1.35999 15.27C1.35999 17.17 1.35999 19.6 3.41999 19.75C6.75998 20 3.53999 20.12 11.07 19.7C11.1628 19.6987 11.2513 19.6605 11.316 19.594C11.3807 19.5274 11.4163 19.4378 11.415 19.345C11.4137 19.2522 11.3755 19.1637 11.3089 19.099C11.2424 19.0343 11.1528 18.9987 11.06 19ZM14.44 1.76001C14.52 0.270008 15.44 0.640008 15.5 0.930008C15.6164 1.66703 15.5995 2.41897 15.45 3.15001C15.29 3.70001 15.01 3.57001 14.45 3.56001C14.4768 2.96022 14.4735 2.35946 14.44 1.76001ZM9.83999 1.05001C10.04 0.650008 10.62 0.920008 10.7 0.890008C10.8555 1.68245 10.8555 2.49757 10.7 3.29001C10.61 3.59001 10.43 3.80001 10.05 3.69001H9.68999C9.68999 3.57001 9.74999 3.44001 9.74999 3.39001C9.61565 2.61232 9.64631 1.81508 9.83999 1.05001ZM5.34999 1.10001C5.54998 0.700008 6.12999 0.970008 6.20999 0.940008C6.36054 1.72956 6.36054 2.54045 6.20999 3.33001C6.11999 3.63001 5.93999 3.85001 5.55999 3.73001H5.19999C5.19999 3.61001 5.25999 3.48001 5.25999 3.43001C5.12676 2.65559 5.15742 1.86184 5.34999 1.10001Z" fill="black"/>
<path fill-rule="evenodd" clip-rule="evenodd" d="M15.13 8.26C15.1699 8.22882 15.2031 8.19 15.2278 8.1458C15.2524 8.1016 15.268 8.05292 15.2736 8.00262C15.2792 7.95232 15.2747 7.90141 15.2603 7.85288C15.246 7.80434 15.222 7.75917 15.19 7.72C15 7.41 9.51999 7 6.85999 7.11C3.85999 7.31 4.28999 7.81 4.76999 7.92C5.80999 8.24 15.11 8.28 15.13 8.26Z" fill="black"/>
<path fill-rule="evenodd" clip-rule="evenodd" d="M12 11.36C11.69 11.28 9.26 11.15 8.8 11.15C8.34 11.15 4.96 11.25 4.8 11.63C4.79095 11.6719 4.79166 11.7154 4.80206 11.757C4.81246 11.7986 4.83229 11.8373 4.86 11.87C5.46614 12.0898 6.10527 12.2048 6.75 12.21C8.50018 12.3327 10.258 12.2891 12 12.08C12.41 12.08 12.54 11.49 12 11.36Z" fill="black"/>
<path fill-rule="evenodd" clip-rule="evenodd" d="M5.08001 16C6.5857 16.3349 8.14354 16.3621 9.66001 16.08C9.72352 16.0163 9.75918 15.93 9.75918 15.84C9.75918 15.75 9.72352 15.6637 9.66001 15.6C8.7244 15.2955 7.74356 15.1535 6.76001 15.18C4.47001 15.32 4.00001 15.82 5.08001 16Z" fill="black"/>
</g>
<defs>
<clipPath id="clip0_1048_7469">
<rect width="24" height="24" fill="white"/>
</clipPath>
</defs>
</svg>
