<svg width="24" height="24" viewBox="0 0 24 24" fill="none" xmlns="http://www.w3.org/2000/svg">
<g clip-path="url(#clip0_1051_8697)">
<path fill-rule="evenodd" clip-rule="evenodd" d="M16 20.29C13.6099 19.9818 11.1901 19.9818 8.8 20.29C8.3 20.33 7.8 20.39 7.3 20.47C7.22044 20.47 7.14413 20.5016 7.08787 20.5578C7.03161 20.6141 7 20.6904 7 20.77C7 20.8495 7.03161 20.9259 7.08787 20.9821C7.14413 21.0384 7.22044 21.07 7.3 21.07H8.42C8.06 22.72 8.51 23.92 8.95 23.84C9.54 23.74 9.28 21.7 9.15 21.12C11.55 21.27 9.92 21.27 15.54 21.12C15.24 22.35 15.64 24.12 15.97 24.01C16.3 23.9 16.54 22.92 16.59 22.01C16.59 21.7 16.52 21.21 16.59 21.12C16.66 21.03 16.59 21.12 18.59 21.19C19.01 21.19 18.94 20.39 18.59 20.4C17.66 20.33 18 20.47 16 20.29Z" fill="black"/>
<path fill-rule="evenodd" clip-rule="evenodd" d="M22.77 9.32997C21.67 7.32997 19.52 6.21997 17.57 7.39997C15.1 8.86997 13.75 13.49 15.69 16.4C16.2107 17.1981 16.8918 17.8792 17.69 18.4C17.9762 18.5481 18.2829 18.6526 18.6 18.71C18.94 18.77 19.06 18.33 18.6 18.08C18.3981 18.0271 18.2033 17.9498 18.02 17.85C17.3422 17.3546 16.7737 16.7248 16.35 16C14.95 13.64 16.05 9.93997 17.87 8.57997C20.94 6.27997 23.97 12.08 22.48 16.39C21.79 18.39 20.68 18.39 20.57 18.79C20.5561 18.8406 20.5541 18.8938 20.5642 18.9453C20.5743 18.9968 20.5962 19.0453 20.6282 19.087C20.6601 19.1286 20.7013 19.1623 20.7485 19.1854C20.7956 19.2085 20.8475 19.2203 20.9 19.22C21.4785 18.9791 21.9923 18.6058 22.4 18.13C24 16.21 24.32 12.18 22.77 9.32997Z" fill="black"/>
<path fill-rule="evenodd" clip-rule="evenodd" d="M19.37 23.36C19.3568 23.4501 19.3799 23.5419 19.4342 23.615C19.4886 23.6882 19.5698 23.7367 19.66 23.75C19.7502 23.7632 19.8419 23.7401 19.9151 23.6857C19.9882 23.6313 20.0368 23.5501 20.05 23.46C20.3311 21.9265 20.3951 20.3612 20.24 18.81C20.15 18.14 20.02 17.48 19.94 16.95C20.43 16.69 20.44 16.36 21.35 13.66C21.41 13.34 21.77 12.34 21.54 12.04C21.4967 11.9905 21.4407 11.9539 21.378 11.9341C21.3154 11.9142 21.2485 11.9119 21.1846 11.9273C21.1207 11.9428 21.0623 11.9754 21.0157 12.0217C20.969 12.068 20.9359 12.1262 20.92 12.19C20.62 13.2584 20.1901 14.2861 19.64 15.25C19.64 15.32 19.59 15.53 19.55 15.7C19.37 15.27 19.64 15.7 18.33 13.7C17.99 13.07 17.8 12.54 17.5 12.53C17.4439 12.5241 17.3873 12.5322 17.3351 12.5536C17.283 12.5751 17.237 12.6091 17.2012 12.6528C17.1655 12.6964 17.1412 12.7483 17.1306 12.8036C17.1199 12.859 17.1231 12.9162 17.14 12.97C17.14 13.07 16.96 12.59 17.59 14.02C17.78 14.59 18.69 16.65 19.24 16.93C19.36 19.26 19.46 21.87 19.37 23.36Z" fill="black"/>
<path fill-rule="evenodd" clip-rule="evenodd" d="M10.14 6.79999C10.41 7.12999 10.74 10.68 10.89 11.93C11.1529 13.9033 11.3065 15.8897 11.35 17.88C11.35 17.9702 11.3858 18.0566 11.4496 18.1204C11.5134 18.1842 11.5998 18.22 11.69 18.22C11.7802 18.22 11.8667 18.1842 11.9304 18.1204C11.9942 18.0566 12.03 17.9702 12.03 17.88C12.0457 15.8764 11.9523 13.8734 11.75 11.88C11.58 10.11 11.45 6.87999 10.96 6.20999C10.4271 5.6581 9.72129 5.30521 8.96001 5.20999C9.05333 4.71771 9.05333 4.21227 8.96001 3.71999C8.92592 3.4854 8.83404 3.26297 8.69265 3.0727C8.55126 2.88244 8.36479 2.7303 8.15001 2.62999C7.50381 2.42311 6.82847 2.32181 6.15001 2.32999C6.39812 1.68641 6.39812 0.973572 6.15001 0.32999C6.15001 0.285341 6.14121 0.241129 6.12413 0.199878C6.10704 0.158627 6.082 0.121146 6.05042 0.0895739C6.01885 0.058002 5.98137 0.0329578 5.94012 0.0158712C5.89887 -0.00121541 5.85466 -0.0100098 5.81001 -0.0100098C5.76536 -0.0100098 5.72115 -0.00121541 5.6799 0.0158712C5.63864 0.0329578 5.60116 0.058002 5.56959 0.0895739C5.53802 0.121146 5.51298 0.158627 5.49589 0.199878C5.4788 0.241129 5.47001 0.285341 5.47001 0.32999C5.20554 0.970429 5.20554 1.68955 5.47001 2.32999C5.13335 2.35458 4.79906 2.40472 4.47001 2.47999C3.65001 2.68999 2.90001 2.71999 2.78001 3.56999C2.751 4.13458 2.77779 4.70066 2.86001 5.25999C0.770008 5.75999 0.630008 6.31999 0.480008 7.49999C0.159892 12.5677 0.139857 17.6499 0.420008 22.72C0.420008 22.7996 0.451615 22.8759 0.507876 22.9321C0.564137 22.9884 0.640443 23.02 0.720008 23.02C0.799573 23.02 0.875879 22.9884 0.93214 22.9321C0.988401 22.8759 1.02001 22.7996 1.02001 22.72C0.940008 19.53 1.17001 11.15 1.56001 7.99999C1.70001 6.84999 1.56001 6.85999 2.68001 6.54999C5.00001 5.87999 9.47001 5.99999 10.14 6.79999ZM3.62001 3.71999C5.02303 3.47362 6.45381 3.42649 7.87001 3.57999C8.15001 3.63999 8.33001 4.75999 8.31001 5.07999C6.68964 4.89251 5.05131 4.92615 3.44001 5.17999C3.56001 4.76999 3.90001 3.93999 3.62001 3.71999Z" fill="black"/>
<path fill-rule="evenodd" clip-rule="evenodd" d="M5.87002 7.88997C5.60002 7.34997 5.30002 7.46997 3.61002 7.64997C2.80002 7.64997 2.61002 8.52997 2.54002 9.03997C2.47429 9.51437 2.47429 9.99557 2.54002 10.47C2.67002 10.92 3.75002 10.96 4.27002 10.97C4.79002 10.98 5.68002 11 6.00002 10.54C6.23545 9.85634 6.23545 9.1136 6.00002 8.42997C5.97747 8.24559 5.93385 8.06441 5.87002 7.88997ZM3.31002 9.88997C3.26981 9.46759 3.26981 9.04235 3.31002 8.61997C3.31002 8.54997 3.37002 8.46997 3.31002 8.44997C3.32487 8.4152 3.33253 8.37778 3.33253 8.33997C3.33253 8.30216 3.32487 8.26474 3.31002 8.22997C3.37783 8.29352 3.46708 8.32922 3.56002 8.32997C4.96002 8.32997 4.66002 8.32997 4.92002 8.40997C5.005 8.67788 5.0356 8.96007 5.01002 9.23997V9.76997C4.73002 9.82997 3.50002 9.88997 3.31002 9.88997Z" fill="black"/>
<path fill-rule="evenodd" clip-rule="evenodd" d="M9.29002 15.2C9.76002 15.04 9.89002 14.62 9.90002 14.12C9.88687 13.4866 9.78934 12.8577 9.61002 12.25C9.34002 11.71 9.05002 11.83 7.35002 12.01C6.54002 12.01 6.35002 12.89 6.29002 13.4C6.20071 13.8712 6.1805 14.353 6.23002 14.83C6.41002 15.46 8.68002 15.4 9.29002 15.2ZM7.05002 14.25C6.99452 13.8358 6.97778 13.4173 7.00002 13C7.00002 12.93 7.06002 12.85 7.00002 12.83C7.01487 12.7952 7.02253 12.7578 7.02253 12.72C7.02253 12.6822 7.01487 12.6448 7.00002 12.61C7.13002 12.75 7.15002 12.71 8.41002 12.74C8.47652 12.7333 8.54352 12.7333 8.61002 12.74C8.61002 12.82 8.61002 12.91 8.67002 12.94C8.73002 12.97 8.72002 14.05 8.72002 14.1C8.16604 14.1764 7.60874 14.2264 7.05002 14.25Z" fill="black"/>
<path fill-rule="evenodd" clip-rule="evenodd" d="M5.47001 16.58C5.22001 16.05 4.90001 16.15 3.21001 16.34C2.40001 16.34 2.21001 17.21 2.15001 17.73C2.06586 18.1984 2.04568 18.6761 2.09001 19.15C2.23001 19.6 3.31001 19.64 3.82001 19.65C4.33001 19.66 5.29001 19.65 5.56001 19.23C5.81171 18.552 5.82931 17.8092 5.61001 17.12C5.57972 16.9361 5.53286 16.7554 5.47001 16.58ZM2.91001 18.58C2.83884 18.0225 2.86933 17.4566 3.00001 16.91C3.02989 16.9443 3.06675 16.9719 3.10814 16.9909C3.14952 17.0099 3.19448 17.0198 3.24001 17.02C4.60001 17.02 4.62001 16.95 4.66001 17.29C4.66001 17.41 4.72001 18.42 4.72001 18.45C4.11946 18.5245 3.51514 18.5645 2.91001 18.57V18.58Z" fill="black"/>
</g>
<defs>
<clipPath id="clip0_1051_8697">
<rect width="24" height="24" fill="white"/>
</clipPath>
</defs>
</svg>
