<svg width="24" height="24" viewBox="0 0 24 24" fill="none" xmlns="http://www.w3.org/2000/svg">
<g clip-path="url(#clip0_1051_8713)">
<path fill-rule="evenodd" clip-rule="evenodd" d="M7.89 14.27H9.38C9.46358 14.5645 9.59173 14.8444 9.76 15.1C9.97 15.34 10.2 15.34 10.47 15.1C10.4138 14.8049 10.3018 14.5232 10.14 14.27C11.0506 14.2194 11.9564 14.1024 12.85 13.92C13.59 13.73 13.77 13.46 13.85 13.04C14.1403 11.0467 14.0964 9.01894 13.72 7.04005C13.6621 6.83368 13.5394 6.65139 13.37 6.52005C12.26 5.68005 9.17 6.00005 5 6.13005C4.91857 6.14396 4.84469 6.18622 4.79143 6.24936C4.73816 6.3125 4.70895 6.39244 4.70895 6.47505C4.70895 6.55765 4.73816 6.63759 4.79143 6.70073C4.84469 6.76387 4.91857 6.80613 5 6.82005C14.43 6.82005 12.75 6.99005 12.88 8.41005C13.059 9.80072 13.0219 11.2107 12.77 12.59C12.63 12.59 12.36 12.76 12.08 12.81C10.633 13.0289 9.17319 13.1525 7.71 13.18C6.6167 13.235 5.52066 13.1747 4.44 13C4.33463 12.6211 4.26763 12.2324 4.24 11.84C6.75916 12.0452 9.29083 12.0452 11.81 11.84C12.22 11.84 12.57 11.94 12.55 11.56C12.61 11.39 12.61 11.18 12.35 11.14C9.64195 10.7099 6.88144 10.7302 4.18 11.2C4 9.00005 4.5 6.67005 4.34 6.50005C4.31204 6.47132 4.27861 6.44849 4.24169 6.4329C4.20476 6.4173 4.16508 6.40927 4.125 6.40927C4.08491 6.40927 4.04524 6.4173 4.00831 6.4329C3.97138 6.44849 3.93795 6.47132 3.91 6.50005C3.67 6.72005 3.71 7.25005 3.67 7.50005C3.40931 8.91754 3.31867 10.3611 3.4 11.8C3.4131 12.3672 3.50739 12.9296 3.68 13.47C4.08 14.17 6.2 14.23 7.02 14.26C6.84791 14.4633 6.75866 14.7239 6.77 14.99C6.77 15.31 7.12 15.37 7.44 15.16C7.65274 14.8995 7.80629 14.5958 7.89 14.27Z" fill="black"/>
<path fill-rule="evenodd" clip-rule="evenodd" d="M18.05 14.8C18.036 14.5735 18.036 14.3464 18.05 14.12C18.05 13.5 18.47 13.62 20.31 13.41C20.96 13.49 20.6 14.69 20.73 14.79C20.86 14.89 21.48 14.92 21.48 14.79C21.5154 14.605 21.5387 14.418 21.55 14.23C21.55 13.45 21.83 13.08 20.84 12.61C20.9448 12.3134 21.0088 12.0039 21.03 11.69C21.02 11.3041 20.9799 10.9196 20.91 10.54C20.81 10.37 20.72 10.3 20.62 10.31C20.52 10.32 20.42 10.31 20.34 10.41C20.032 10.9209 19.8631 11.5036 19.85 12.1C19.85 12.44 20 12.32 19.77 12.34C19.54 12.36 18.99 12.45 18.9 12.47C19.11 10.91 18.44 10.33 18.24 9.57999C18.24 9.48982 18.2042 9.40334 18.1404 9.33957C18.0766 9.27581 17.9902 9.23999 17.9 9.23999C17.8098 9.23999 17.7233 9.27581 17.6596 9.33957C17.5958 9.40334 17.56 9.48982 17.56 9.57999C17.4849 10.6228 17.7142 11.665 18.22 12.58C16.81 12.97 17.03 13.23 17.35 14.86C17.33 15.16 18.09 15.15 18.05 14.8Z" fill="black"/>
<path fill-rule="evenodd" clip-rule="evenodd" d="M22.84 15.22C22.79 15.22 10.54 15.48 10.54 15.48C7.48552 15.5121 4.43477 15.7024 1.39999 16.05C0.499989 16.2 0.259989 16.44 0.189989 16.66C0.131164 16.9122 0.110934 17.1718 0.129989 17.43C0.144515 17.505 0.186234 17.5721 0.247139 17.6182C0.308043 17.6643 0.383842 17.6864 0.459989 17.68C0.386225 17.7205 0.330064 17.7868 0.30236 17.8662C0.274655 17.9456 0.277373 18.0325 0.309989 18.11C0.469989 18.54 1.30999 18.42 1.77999 18.48C2.01999 18.48 22.64 18.17 22.93 18.03C23.2177 17.9184 23.4637 17.7203 23.6339 17.4629C23.8042 17.2055 23.8903 16.9016 23.8805 16.5931C23.8706 16.2847 23.7652 15.9869 23.5788 15.741C23.3924 15.495 23.1343 15.313 22.84 15.22ZM22.51 16.94C21.8 17.04 8.98999 17.58 8.05999 17.61C0.419989 17.89 1.61999 17.61 0.609989 17.61C0.889989 17.46 0.609989 16.78 0.969989 16.61C1.52999 16.39 22.43 16.28 22.51 16.3C22.83 16.42 22.77 16.75 22.51 16.94Z" fill="black"/>
<path fill-rule="evenodd" clip-rule="evenodd" d="M19.17 23.94C20.08 24.4 19.5 22.14 19.53 22.38C19.4766 21.167 19.2127 19.9726 18.75 18.85C18.6 18.48 17.63 18.7 17.81 19.14C18.014 20.8004 18.4727 22.4194 19.17 23.94Z" fill="black"/>
<path fill-rule="evenodd" clip-rule="evenodd" d="M3.39 22.27C3.39 22.15 2.85 24.27 3.75 23.83C3.96423 23.391 4.14475 22.9364 4.29 22.47C4.56882 21.6884 4.76979 20.8811 4.89 20.06C5.07 18.82 5.04 19.11 5.07 18.99C5.07 18.53 4.15 18.69 4.07 19.07C3.62885 20.0796 3.3975 21.1683 3.39 22.27Z" fill="black"/>
<path fill-rule="evenodd" clip-rule="evenodd" d="M18.12 7.46002C19.2602 7.65738 20.4337 7.47468 21.46 6.94002C24.12 5.41002 24.41 0.76002 20.85 0.0700204C20.5901 0.0170009 20.3251 -0.00648148 20.06 2.03858e-05C19.9786 0.0139332 19.9047 0.056197 19.8514 0.119335C19.7981 0.182473 19.7689 0.262416 19.7689 0.34502C19.7689 0.427625 19.7981 0.507568 19.8514 0.570706C19.9047 0.633844 19.9786 0.676108 20.06 0.69002C20.5589 0.67871 21.0497 0.817578 21.4687 1.08861C21.8878 1.35965 22.2157 1.75034 22.41 2.21002C22.6223 2.91841 22.5897 3.67767 22.3176 4.36529C22.0455 5.05292 21.5496 5.6288 20.91 6.00002C20.0855 6.39258 19.1581 6.51506 18.26 6.35002C16.16 6.11002 14.63 3.26002 16.47 1.62002C17.112 1.03217 17.9403 0.688813 18.81 0.65002C18.8814 0.637034 18.946 0.59939 18.9925 0.543653C19.039 0.487915 19.0645 0.417619 19.0645 0.34502C19.0645 0.272422 19.039 0.202126 18.9925 0.146388C18.946 0.0906503 18.8814 0.0530068 18.81 0.0400204C17.7919 0.0344323 16.8018 0.372696 16 1.00002C13.43 3.00002 15 7.00002 18.12 7.46002Z" fill="black"/>
<path fill-rule="evenodd" clip-rule="evenodd" d="M18.67 1.32001C18.38 1.22001 18.23 2.85001 18.08 3.41001C18.0425 3.60506 18.0158 3.80202 18 4.00001C17.9922 4.15057 18.0339 4.29955 18.1188 4.42415C18.2037 4.54876 18.327 4.64214 18.47 4.69001C18.79 4.78001 18.8 4.74001 20.79 4.31001C20.8714 4.29609 20.9453 4.25383 20.9985 4.19069C21.0518 4.12755 21.081 4.04761 21.081 3.96501C21.081 3.8824 21.0518 3.80246 20.9985 3.73932C20.9453 3.67618 20.8714 3.63392 20.79 3.62001H19.2C19.25 3.45001 19.13 0.820007 18.67 1.32001Z" fill="black"/>
</g>
<defs>
<clipPath id="clip0_1051_8713">
<rect width="24" height="24" fill="white"/>
</clipPath>
</defs>
</svg>
