<svg width="24" height="24" viewBox="0 0 24 24" fill="none" xmlns="http://www.w3.org/2000/svg">
<g clip-path="url(#clip0_1051_8763)">
<path fill-rule="evenodd" clip-rule="evenodd" d="M9.53 1.47997C8.94529 1.34922 8.33838 1.35425 7.75591 1.49467C7.17344 1.63508 6.63091 1.90715 6.17 2.28997C5.66784 2.65849 5.26567 3.14659 5 3.70997C4.70569 4.33549 4.65229 5.04755 4.85 5.70997C5.00737 6.20356 5.28987 6.64798 5.67 6.99997C6.04839 7.34214 6.50515 7.58597 7 7.70997C7.14988 7.75758 7.30388 7.79106 7.46 7.80997C7.59983 7.81978 7.74017 7.81978 7.88 7.80997V8.22997L8.1 8.99997C8.16 9.39997 9.01 9.61997 8.88 8.99997L8.82 8.19997C8.83468 7.96687 8.83468 7.73307 8.82 7.49997C8.79578 7.32096 8.73077 7.14989 8.63 6.99997C8.58844 6.94357 8.53611 6.89597 8.47603 6.85992C8.41595 6.82388 8.34933 6.8001 8.28 6.78997H8L7.35 6.63997C7.04595 6.51719 6.77028 6.33341 6.54 6.09997C6.29895 5.89204 6.11339 5.62743 6 5.32997C5.93515 5.09853 5.91679 4.85654 5.94596 4.61796C5.97514 4.37939 6.05129 4.14896 6.17 3.93997C6.33153 3.61225 6.548 3.31461 6.81 3.05997C7.13098 2.7103 7.52751 2.43847 7.9694 2.26518C8.41129 2.09189 8.88689 2.0217 9.36 2.05997C9.44343 2.0782 9.53068 2.06338 9.60341 2.01862C9.67613 1.97387 9.72868 1.90266 9.75 1.81997C9.75816 1.74662 9.74072 1.6727 9.70063 1.61074C9.66053 1.54878 9.60026 1.50258 9.53 1.47997Z" fill="black"/>
<path fill-rule="evenodd" clip-rule="evenodd" d="M6.30001 15.09C6.04001 16.18 5.80001 17.27 5.50001 18.35C5.19596 19.5113 4.83214 20.6562 4.41001 21.78C4.39027 21.8239 4.37953 21.8713 4.37844 21.9194C4.37734 21.9675 4.3859 22.0154 4.40361 22.0601C4.42133 22.1049 4.44783 22.1456 4.48157 22.1799C4.5153 22.2143 4.55557 22.2415 4.60001 22.26C4.689 22.2971 4.78896 22.298 4.87862 22.2625C4.96827 22.227 5.04053 22.1579 5.08001 22.07C5.734 20.7781 6.29542 19.4414 6.76001 18.07C6.95001 17.49 7.12001 16.89 7.27001 16.29C7.42402 15.6933 7.54751 15.0892 7.64001 14.48C7.72739 13.3062 7.91474 12.1419 8.20001 11C8.34001 10.85 8.63001 10.88 8.84001 10.9C9.05001 10.92 9.04001 10.9 9.23001 10.9H9.81001C10.28 10.85 10.72 10.78 11.18 10.74C11.2755 10.7466 11.3697 10.715 11.4419 10.6522C11.5141 10.5894 11.5584 10.5005 11.565 10.405C11.5716 10.3095 11.5401 10.2153 11.4772 10.1431C11.4144 10.0709 11.3255 10.0266 11.23 10.02C10.7664 9.89937 10.2954 9.80918 9.82001 9.74997C9.62029 9.73495 9.41973 9.73495 9.22001 9.74997L8.28001 9.82997C8.02741 9.84259 7.78618 9.93884 7.59428 10.1036C7.40239 10.2683 7.27072 10.4922 7.22001 10.74C7.00001 11.87 6.54001 14.1 6.30001 15.09Z" fill="black"/>
<path fill-rule="evenodd" clip-rule="evenodd" d="M3.61 22.5C3.48163 22.2982 3.37439 22.0838 3.29 21.86C3.022 21.171 2.80802 20.4622 2.65 19.74C2.52 19.26 2.41 18.74 2.29 18.3C2.1 17.59 1.92 16.88 1.76 16.16C1.6 15.44 1.38 14.58 1.26 13.77C1.12451 13.1095 1.02768 12.4417 0.970002 11.77C0.944014 11.3898 0.981184 11.008 1.08 10.64C1.94 10.7 2.78 10.8 3.63 10.83H5.24H6.35C6.98 10.83 7.22 10.01 6.46 9.71999C6.08719 9.69197 5.71281 9.69197 5.34 9.71999C5.00692 9.73843 4.67308 9.73843 4.34 9.71999C4.00693 9.70121 3.67307 9.70121 3.34 9.71999C2.54 9.78999 1.76 9.93999 0.960002 10.06C0.914828 10.06 0.870316 10.0709 0.830266 10.0918C0.790215 10.1126 0.755815 10.1429 0.730002 10.18C0.674438 10.1884 0.622078 10.2114 0.578192 10.2465C0.534305 10.2816 0.500439 10.3276 0.480002 10.38C0.296259 10.8449 0.201285 11.3401 0.200002 11.84C0.190716 12.538 0.224112 13.236 0.300002 13.93C0.361076 14.9615 0.49474 15.9873 0.700002 17C0.940002 18 1.28 19 1.62 20C1.88413 20.742 2.20163 21.4639 2.57 22.16C2.78 22.53 2.96 22.79 3.13 23.04C3.53 23.71 4 23.07 3.61 22.5Z" fill="black"/>
<path fill-rule="evenodd" clip-rule="evenodd" d="M23.26 10.43C22.9915 10.2119 22.6711 10.0672 22.33 10.01C21.9198 9.94766 21.5046 9.92422 21.09 9.93998C20.25 9.93998 19.4 9.98998 18.55 9.93998C18.196 9.94352 17.8421 9.92683 17.49 9.88998C17.4055 9.88134 17.3209 9.90563 17.2538 9.95778C17.1868 10.0099 17.1424 10.0859 17.13 10.17C17.1244 10.212 17.1272 10.2548 17.1383 10.2958C17.1494 10.3368 17.1686 10.3751 17.1946 10.4086C17.2207 10.4421 17.2531 10.4701 17.2901 10.4909C17.3271 10.5118 17.3678 10.525 17.41 10.53C17.77 10.59 18.14 10.63 18.52 10.66C19.36 10.74 20.21 10.76 21.05 10.83C21.33 10.83 21.64 10.88 21.95 10.94C22.1685 10.9715 22.3733 11.0652 22.54 11.21C22.74 11.4 22.71 11.73 22.69 12.06C22.5917 12.7372 22.4413 13.4059 22.24 14.06L20.93 20C20.8058 20.6621 20.632 21.3139 20.41 21.95C20.2716 22.3016 20.068 22.6239 19.81 22.9C19.17 22.96 18.52 23 17.88 23.01H17.4C17.47 22.9839 17.5295 22.9355 17.5693 22.8723C17.6091 22.809 17.6269 22.7344 17.62 22.66C17.4 20.57 17.26 18.46 17.07 16.36C16.99 15.45 16.9 14.55 16.79 13.65L16.37 10.55C16.32 10.13 16.24 9.69998 16.21 9.27998C16.1852 9.02391 16.1852 8.76605 16.21 8.50998C16.2337 8.2678 16.3523 8.04487 16.54 7.88998C16.8109 7.69187 17.0987 7.51788 17.4 7.36998C18.0288 7.03824 18.5754 6.57017 19 5.99998C19.3179 5.55468 19.4796 5.01675 19.46 4.46998C19.4382 4.12531 19.357 3.78701 19.22 3.46998C19.0277 3.03175 18.7826 2.61869 18.49 2.23998C18.1188 1.67995 17.6595 1.18356 17.13 0.769976C16.751 0.488773 16.3241 0.278702 15.87 0.149976C14.599 -0.152059 13.2609 0.0334882 12.12 0.669976C10.9564 1.26902 10.0682 2.29326 9.64 3.52998C9.58945 3.69393 9.54937 3.86094 9.52 4.02998C9.50548 4.20634 9.50548 4.38361 9.52 4.55998C9.51227 5.03603 9.64063 5.50439 9.89 5.90998C10.1571 6.32236 10.5498 6.6379 11.01 6.80998C11.33 6.92998 11.71 6.98998 12.01 7.12998C12.1493 7.1763 12.2737 7.25919 12.37 7.36998C12.4172 7.44159 12.4448 7.52435 12.45 7.60998V8.07998C12.4545 8.66219 12.4144 9.24389 12.33 9.81998C12.21 10.74 12.03 11.65 11.91 12.54C11.71 14.01 11.48 15.47 11.22 16.93C10.89 18.93 10.51 20.85 10.14 22.81H9.86C8.54 22.86 7.24 22.97 5.92 23H4.29C4.24797 22.9976 4.206 23.0054 4.16768 23.0229C4.12936 23.0403 4.09584 23.0667 4.07 23.1L4 23.58C5.4435 23.8263 6.90566 23.9467 8.37 23.94L10 24H12.45C14.03 24 15.56 24 17.1 23.94C18.1472 23.8936 19.1898 23.7733 20.22 23.58C20.22 23.58 20.42 23.69 21.11 22.26C21.396 21.6129 21.6301 20.9442 21.81 20.26C22.16 19.09 22.5 17.92 22.81 16.74C23.02 15.95 23.2 15.16 23.4 14.38C23.664 13.5445 23.8088 12.6759 23.83 11.8C23.8378 11.5442 23.791 11.2897 23.6927 11.0535C23.5944 10.8173 23.4469 10.6047 23.26 10.43ZM12.5 22.77H10.85C11.26 20.86 11.68 18.96 12.06 17.05C12.36 15.59 12.64 14.13 12.88 12.65C13.03 11.77 13.24 10.86 13.39 9.94998C13.499 9.31888 13.5592 8.68032 13.57 8.03998C13.5891 7.79368 13.5891 7.54627 13.57 7.29998C13.529 7.07392 13.4404 6.85916 13.31 6.66998C13.1495 6.45569 12.9449 6.27836 12.71 6.14998C12.2928 5.97146 11.8654 5.81785 11.43 5.68998C11.2108 5.60383 11.025 5.4496 10.9 5.24998C10.7729 5.03192 10.7105 4.78219 10.72 4.52998L10.84 3.84998C11.1725 2.92006 11.8539 2.15611 12.74 1.71998C13.6021 1.23337 14.614 1.08373 15.58 1.29998C15.983 1.41976 16.3573 1.62053 16.68 1.88998C17.0257 2.18515 17.3346 2.52091 17.6 2.88998C17.8007 3.14347 17.9781 3.41457 18.13 3.69998C18.2631 3.94347 18.3416 4.21306 18.36 4.48998C18.3664 4.67356 18.3361 4.85658 18.2708 5.0283C18.2056 5.20001 18.1067 5.35697 17.98 5.48998C17.6687 5.83029 17.3039 6.11741 16.9 6.33998C16.4455 6.56544 16.0301 6.86257 15.67 7.21998C15.4058 7.52583 15.2448 7.90728 15.21 8.30998C15.1743 8.64235 15.1743 8.9776 15.21 9.30998C15.26 9.75998 15.35 10.2 15.42 10.64L15.9 13.71C16.03 14.6 16.15 15.5 16.25 16.39C16.49 18.49 16.67 20.59 16.94 22.69C16.9482 22.7429 16.9688 22.7931 17.0001 22.8365C17.0313 22.88 17.0724 22.9154 17.12 22.94C15.56 22.94 14.06 22.83 12.5 22.77Z" fill="black"/>
</g>
<defs>
<clipPath id="clip0_1051_8763">
<rect width="24" height="24" fill="white"/>
</clipPath>
</defs>
</svg>
