<svg width="24" height="24" viewBox="0 0 24 24" fill="none" xmlns="http://www.w3.org/2000/svg">
<g clip-path="url(#clip0_1051_8706)">
<path fill-rule="evenodd" clip-rule="evenodd" d="M5.63999 3.51998C6.63999 3.61998 7.14999 4.51998 7.46999 5.60998C7.98988 7.62702 7.98988 9.74294 7.46999 11.76C7.29931 12.0564 7.04552 12.2963 6.73999 12.45C6.22999 12.76 5.61999 12.01 5.48999 11.45C5.12725 10.36 5.06507 9.19234 5.30999 8.06998C5.41999 7.73998 6.02999 7.41998 6.17999 7.73998C6.53999 8.52998 5.95999 9.81998 6.66999 9.81998C6.75933 9.81028 6.84209 9.7684 6.90282 9.70216C6.96354 9.63591 6.99808 9.54983 6.99999 9.45998C6.99999 9.03998 7.07999 8.54998 7.04999 8.09998C6.90999 6.09998 4.84999 6.62998 4.39999 7.74998C4.02703 9.05723 4.02703 10.4427 4.39999 11.75C4.56693 12.4789 5.00718 13.116 5.62999 13.53C5.88625 13.6906 6.18256 13.7758 6.48499 13.7758C6.78742 13.7758 7.08373 13.6906 7.33999 13.53C7.85933 13.2729 8.28574 12.8605 8.55999 12.35C9.48999 10.59 9.55999 2.79998 5.70999 2.64998C4.88244 2.63469 4.07936 2.93093 3.45999 3.47998C3.04991 3.75815 2.75771 4.17864 2.63999 4.65998C2.49999 5.39998 3.16999 5.23998 3.28999 4.91998C3.49135 4.47418 3.82465 4.1009 4.2449 3.85054C4.66514 3.60018 5.15209 3.4848 5.63999 3.51998Z" fill="black"/>
<path fill-rule="evenodd" clip-rule="evenodd" d="M24.05 13C24.05 10.33 24.16 5.64998 23.46 4.05998C23.3 3.70998 22.87 3.68998 22.46 3.64998C18.1697 3.43571 13.8687 3.64674 9.62 4.27998C9.57207 4.28918 9.52642 4.30772 9.48565 4.33456C9.44489 4.36139 9.4098 4.39599 9.38241 4.43639C9.35502 4.47678 9.33585 4.52217 9.326 4.56998C9.31615 4.61778 9.31581 4.66705 9.325 4.71498C9.33419 4.76292 9.35274 4.80857 9.37957 4.84933C9.40641 4.8901 9.44101 4.92518 9.48141 4.95257C9.5218 4.97997 9.56719 4.99914 9.61499 5.00899C9.6628 5.01884 9.71207 5.01918 9.76 5.00998C10.68 4.83998 11.49 4.81998 16.86 4.39998C18.7866 4.36957 20.7133 4.45304 22.63 4.64998C23.11 6.27998 22.96 8.87998 22.92 13C22.68 20.21 22.77 19.1 21.81 19.37C20.31 19.8 17.56 19.42 11.75 19.59C7.86 19.7 6.46 20.11 4.75 20.18C3.82945 20.2275 2.9065 20.1671 2 20C1.76 19.82 1.83 18.52 1.79 18.1C1.17 11.31 1 8.99998 0.910002 7.88998C0.90295 7.71512 0.952723 7.54267 1.05187 7.39846C1.15102 7.25424 1.29421 7.14602 1.46 7.08998C2.80692 6.58336 4.18678 6.16907 5.59 5.84998C5.63738 5.85265 5.68478 5.84506 5.72896 5.82774C5.77315 5.81042 5.81307 5.78378 5.84602 5.74963C5.87897 5.71547 5.90417 5.67462 5.91989 5.62984C5.93561 5.58507 5.94149 5.53743 5.93713 5.49017C5.93277 5.44292 5.91827 5.39716 5.89461 5.35602C5.87096 5.31488 5.83871 5.27932 5.80007 5.25178C5.76142 5.22423 5.71729 5.20535 5.67069 5.19641C5.62408 5.18747 5.57609 5.18869 5.53 5.19998C5 5.24998 0.680002 5.82998 0.140002 6.55998C-0.399998 7.28998 0.250002 11.23 0.720002 18.2C0.770002 18.89 0.540002 20.29 1.29 20.89C1.77162 21.1607 2.31773 21.2955 2.87 21.28C4.3899 21.4235 5.92177 21.3765 7.43 21.14C12.86 20.51 20.19 21.14 22.14 20.6C23 20.36 23.92 20.34 24 19C24.07 18.33 23.93 20.18 24.05 13Z" fill="black"/>
<path fill-rule="evenodd" clip-rule="evenodd" d="M20.92 7.99997C21.0181 7.99997 21.1123 7.96099 21.1816 7.8916C21.251 7.82221 21.29 7.7281 21.29 7.62997C21.29 7.53184 21.251 7.43773 21.1816 7.36834C21.1123 7.29895 21.0181 7.25997 20.92 7.25997C17.57 7.17997 15.02 6.86997 11 7.89997C10.9138 7.91588 10.8375 7.96539 10.7878 8.03759C10.7381 8.10979 10.7191 8.19877 10.735 8.28497C10.7509 8.37117 10.8004 8.44751 10.8726 8.49721C10.9448 8.5469 11.0338 8.56588 11.12 8.54997C13 8.38997 13.51 8.78997 20.92 7.99997Z" fill="black"/>
<path fill-rule="evenodd" clip-rule="evenodd" d="M10.61 12.86C13.8397 13.0142 17.0766 12.8062 20.26 12.24C20.3086 12.2354 20.3558 12.2213 20.3989 12.1984C20.4421 12.1756 20.4803 12.1445 20.5114 12.1069C20.5425 12.0693 20.5659 12.0259 20.5802 11.9793C20.5946 11.9326 20.5996 11.8836 20.595 11.835C20.5904 11.7864 20.5763 11.7392 20.5534 11.6961C20.5306 11.6529 20.4995 11.6147 20.4619 11.5836C20.4243 11.5525 20.3809 11.5291 20.3343 11.5148C20.2876 11.5004 20.2386 11.4954 20.19 11.5C16.37 11.61 16.14 11.25 10.54 12.21C10.4929 12.2086 10.446 12.2173 10.4025 12.2355C10.359 12.2537 10.3199 12.281 10.2878 12.3157C10.2558 12.3503 10.2315 12.3913 10.2167 12.4361C10.2019 12.4809 10.1968 12.5283 10.2019 12.5752C10.2069 12.6221 10.222 12.6673 10.246 12.7079C10.27 12.7485 10.3025 12.7835 10.3411 12.8105C10.3798 12.8375 10.4238 12.8558 10.4702 12.8644C10.5166 12.8729 10.5642 12.8714 10.61 12.86Z" fill="black"/>
<path fill-rule="evenodd" clip-rule="evenodd" d="M6.39 16.33C6.06 16.33 5.39 16.33 5.27 16.67C5.24464 16.7522 5.2524 16.8411 5.29163 16.9177C5.33086 16.9943 5.39845 17.0525 5.48 17.08C5.80856 17.1597 6.15144 17.1597 6.48 17.08C11.317 17.0726 16.148 16.7385 20.94 16.08C21.0381 16.08 21.1322 16.041 21.2016 15.9716C21.271 15.9022 21.31 15.8081 21.31 15.71C21.31 15.6118 21.271 15.5177 21.2016 15.4483C21.1322 15.3789 21.0381 15.34 20.94 15.34C11.6 15.57 13.06 15.47 6.39 16.33Z" fill="black"/>
</g>
<defs>
<clipPath id="clip0_1051_8706">
<rect width="24" height="24" fill="white"/>
</clipPath>
</defs>
</svg>
