<svg width="24" height="24" viewBox="0 0 24 24" fill="none" xmlns="http://www.w3.org/2000/svg">
<g clip-path="url(#clip0_1051_8694)">
<path fill-rule="evenodd" clip-rule="evenodd" d="M4.03401 18.513C5.66801 18.612 7.30401 18.683 8.93901 18.724C9.05301 22.872 9.08501 23.474 9.61501 23.448C10.015 23.429 10.016 23.355 10.027 21.582C10.03 20.957 10.035 20.122 10.059 19.004L10.069 18.749C10.807 18.762 11.545 18.769 12.282 18.771C12.052 20.313 12.066 21.881 12.324 23.42C12.3232 23.4709 12.3324 23.5216 12.3511 23.569C12.3698 23.6164 12.3976 23.6596 12.4331 23.6962C12.4685 23.7329 12.5108 23.7622 12.5575 23.7825C12.6043 23.8027 12.6546 23.8136 12.7055 23.8145C12.7565 23.8153 12.8071 23.8061 12.8545 23.7874C12.9019 23.7687 12.9451 23.7409 12.9818 23.7054C13.0184 23.67 13.0477 23.6277 13.068 23.581C13.0883 23.5342 13.0992 23.4839 13.1 23.433C13.469 21.903 13.5 20.312 13.195 18.77C13.848 18.767 14.501 18.76 15.154 18.748C15.253 22.859 15.322 23.321 15.812 23.304C16.223 23.291 16.224 23.216 16.243 21.234C16.249 20.638 16.256 19.87 16.277 18.881L16.286 18.723C17.7722 18.684 19.2578 18.6217 20.742 18.536C20.8456 18.5308 20.9432 18.4861 21.0146 18.411C21.0861 18.3358 21.1259 18.2361 21.1259 18.1325C21.1259 18.0288 21.0861 17.9291 21.0146 17.854C20.9432 17.7789 20.8456 17.7341 20.742 17.729C19.2764 17.6453 17.8095 17.5839 16.342 17.545C16.3966 16.2214 16.4223 14.8967 16.419 13.572L17.187 13.583C18.102 13.6 18.782 13.628 19.29 13.649C20.613 13.704 20.76 13.711 20.801 13.326C20.86 12.778 18.96 12.488 16.408 12.366C16.3875 11.0895 16.3402 9.81351 16.266 8.53898L16.806 8.54598C18.233 8.56298 19.608 8.57998 20.261 8.59098C20.3627 8.58938 20.4601 8.54948 20.5336 8.47924C20.6072 8.40901 20.6516 8.31361 20.6579 8.2121C20.6642 8.11059 20.632 8.01043 20.5677 7.93162C20.5034 7.85282 20.4117 7.80116 20.311 7.78698C18.9417 7.61904 17.5682 7.487 16.192 7.39098C16.0865 5.89096 15.9435 4.39383 15.763 2.90098C15.7604 2.79807 15.7169 2.70044 15.6423 2.62955C15.5677 2.55866 15.4679 2.52032 15.365 2.52298C15.2621 2.52563 15.1645 2.56905 15.0936 2.64369C15.0227 2.71833 14.9844 2.81807 14.987 2.92098C14.987 3.01398 15.004 4.91498 15.027 7.31798C13.3527 7.22535 11.6759 7.18533 9.99901 7.19798C9.92782 5.74587 9.83314 4.29502 9.71501 2.84598C9.71528 2.7444 9.67518 2.64688 9.60354 2.57486C9.5319 2.50285 9.43459 2.46224 9.33301 2.46198C9.23144 2.46171 9.13391 2.50181 9.0619 2.57345C8.98989 2.64509 8.94928 2.7424 8.94901 2.84398C8.91301 3.60598 8.89601 5.25698 8.88901 7.21398C7.39325 7.24532 5.89866 7.31869 4.40701 7.43398C4.3053 7.4357 4.20844 7.47776 4.13774 7.5509C4.06704 7.62404 4.02829 7.72227 4.03001 7.82398C4.03174 7.92569 4.0738 8.02255 4.14693 8.09325C4.22007 8.16395 4.3183 8.2027 4.42001 8.20098C6.20701 8.25698 6.65701 8.28598 7.06601 8.31198C7.42101 8.33498 7.74601 8.35598 8.88601 8.39198C8.88601 9.69398 8.88801 11.072 8.89201 12.378C6.87101 12.458 5.15201 12.59 4.30201 12.732C4.20509 12.7486 4.11815 12.8015 4.05895 12.8801C3.99975 12.9586 3.97276 13.0568 3.98348 13.1545C3.9942 13.2523 4.04182 13.3422 4.11663 13.4061C4.19144 13.4699 4.28779 13.5028 4.38601 13.498C4.70101 13.481 6.62601 13.488 8.89601 13.503C8.90301 15.18 8.91301 16.646 8.92001 17.539C7.29101 17.58 5.66201 17.649 4.03401 17.744C3.9367 17.751 3.84565 17.7946 3.77919 17.866C3.71273 17.9375 3.67578 18.0314 3.67578 18.129C3.67578 18.2265 3.71273 18.3205 3.77919 18.3919C3.84565 18.4633 3.9367 18.506 4.03401 18.513ZM10.16 13.513C10.163 14.847 10.146 16.181 10.109 17.515C11.7809 17.487 13.4532 17.488 15.125 17.518L15.086 13.558C13.444 13.5409 11.802 13.5259 10.16 13.513ZM15.074 12.318L15.038 8.52398C14.1906 8.5144 13.3433 8.50173 12.496 8.48598C11.6817 8.46687 10.8673 8.44654 10.053 8.42498C10.105 9.72798 10.138 11.031 10.153 12.335C11.7929 12.2869 13.4338 12.2813 15.074 12.318Z" fill="black"/>
<path fill-rule="evenodd" clip-rule="evenodd" d="M4.754 3.23002C6.012 1.99702 8.387 1.90502 12.82 2.09502C12.81 1.40502 12.943 0.729024 13.902 0.333024C15.5142 -0.0194116 17.175 -0.0924725 18.812 0.117024C20.529 0.526024 20.708 1.95402 20.648 3.58202C21.732 5.27602 21.625 9.33802 21.359 19.39L21.27 22.8C22.144 22.818 22.865 22.843 23.374 22.875C23.427 22.8763 23.4792 22.8881 23.5276 22.9096C23.5761 22.9311 23.6198 22.9619 23.6564 23.0003C23.6929 23.0387 23.7215 23.0839 23.7406 23.1334C23.7597 23.1828 23.7688 23.2355 23.7675 23.2885C23.7662 23.3415 23.7544 23.3937 23.733 23.4422C23.7115 23.4906 23.6806 23.5344 23.6422 23.5709C23.6038 23.6075 23.5586 23.6361 23.5092 23.6551C23.4597 23.6742 23.407 23.6833 23.354 23.682C15.778 24.112 8.184 24.106 0.609997 23.664C0.508419 23.6627 0.411528 23.6211 0.340639 23.5483C0.269751 23.4755 0.230671 23.3776 0.231997 23.276C0.233323 23.1744 0.274946 23.0776 0.34771 23.0067C0.420475 22.9358 0.518419 22.8967 0.619997 22.898C0.945997 22.893 1.975 22.878 3.432 22.859C3.504 19.083 3.46 15.974 3.424 13.418C3.341 7.60802 3.3 4.65602 4.754 3.23002ZM4.208 22.85C8.632 22.795 15.998 22.723 20.448 22.787C20.448 22.097 20.446 21.433 20.445 20.792C20.43 7.70202 20.425 4.58202 19.079 3.81202C18.657 3.57202 18.104 3.56102 17.378 3.54702C17.142 3.54302 16.888 3.53802 16.614 3.52502C15.6898 3.47865 14.7658 3.42899 13.842 3.37602C9.255 3.11802 6.922 2.98602 5.727 4.08902C4.49 5.23102 4.475 7.69702 4.445 12.716C4.429 15.338 4.409 18.658 4.208 22.85ZM15.67 2.23202C14.969 2.19602 14.307 2.16202 13.683 2.13302C13.77 1.53102 13.95 1.32002 15.021 1.29002C15.536 1.28402 15.992 1.27102 16.397 1.26002C18.419 1.20202 19.162 1.18102 19.522 2.24102C19.578 2.40702 19.621 2.56802 19.652 2.72302C18.937 2.40102 17.97 2.34302 16.677 2.28302L15.67 2.23202Z" fill="black"/>
</g>
<defs>
<clipPath id="clip0_1051_8694">
<rect width="24" height="24" fill="white"/>
</clipPath>
</defs>
</svg>
