<svg width="24" height="24" viewBox="0 0 24 24" fill="none" xmlns="http://www.w3.org/2000/svg">
<g clip-path="url(#clip0_1051_8803)">
<path d="M3.44998 14.51L3.31998 14.94C3.14523 15.3553 3.12049 15.8185 3.24998 16.25C3.52998 16.97 4.74998 16.97 5.24998 16.6C5.74998 16.23 5.72998 15.6 5.63998 14.55H7.04998C7.01238 14.7652 6.98567 14.9822 6.96998 15.2C6.81998 16.31 7.17998 17.2 8.29998 17.07C9.41998 16.94 9.77998 16.07 9.48998 14.95L9.41998 14.5C9.92551 14.4754 10.4295 14.4253 10.93 14.35C11.63 14.28 11.53 13.71 10.93 13.65C6.61998 13.44 5.65998 13.16 1.65998 13.84C1.02998 13.97 1.03998 14.56 1.65998 14.56C2.13998 14.52 2.99998 14.48 3.44998 14.51ZM7.70998 14.51H8.52998C8.46998 14.81 8.75998 15.23 8.52998 15.76C8.47998 15.87 8.36998 15.89 8.19998 15.91C8.15371 15.9196 8.10554 15.9116 8.06486 15.8876C8.02418 15.8635 7.99392 15.8252 7.97998 15.78C7.8148 15.3763 7.72336 14.9461 7.70998 14.51ZM4.12998 14.51H4.89998C4.84998 14.8 4.75998 15.36 4.71998 15.51C4.67998 15.66 4.08998 16.23 4.01998 15.22C3.99998 15.23 4.18998 14.6 4.12998 14.55V14.51Z" fill="black"/>
<path d="M12 11.12C11.9649 11.017 11.9071 10.9231 11.831 10.8452C11.7549 10.7673 11.6623 10.7075 11.56 10.67C11.49 10.67 11.04 10.57 10.68 10.52C10.32 10.47 10.09 10.96 10.41 11.07C10.73 11.18 11.14 11.07 11.35 11.35C11.82 12.04 11.87 18.16 11.62 19.43C11.5488 20.4096 11.2021 21.349 10.62 22.14C10.54 22.22 3.07001 23.44 1.44001 22.14C1.05001 21.84 0.35001 13 1.37001 11.89C1.72001 11.68 1.83001 11.53 2.03001 11.55C2.71001 11.45 2.46001 10.79 1.94001 10.82C1.51454 10.8577 1.1168 11.0471 0.819393 11.3537C0.521985 11.6603 0.344741 12.0636 0.32001 12.49C-0.0875149 15.7837 -0.0471481 19.1173 0.44001 22.4C0.505899 22.6044 0.613773 22.7926 0.756709 22.9528C0.899645 23.1129 1.07449 23.2414 1.27001 23.33C3.12001 24.08 7.35001 23.71 9.27001 23.43C10.38 23.26 11.62 23.71 12.19 21.64C12.4935 20.1721 12.6576 18.6788 12.68 17.18C12.6662 15.1418 12.4383 13.1107 12 11.12Z" fill="black"/>
<path d="M5.51001 11.62C5.54941 11.6135 5.58712 11.5992 5.62101 11.5781C5.65489 11.5569 5.68428 11.5293 5.7075 11.4968C5.73071 11.4643 5.7473 11.4276 5.75631 11.3886C5.76532 11.3497 5.76658 11.3094 5.76001 11.27C5.75344 11.2306 5.73918 11.1929 5.71804 11.159C5.6969 11.1251 5.66929 11.0958 5.63679 11.0725C5.60429 11.0493 5.56753 11.0327 5.52862 11.0237C5.48971 11.0147 5.44941 11.0135 5.41001 11.02C5.29001 11 4.08001 11 4.00001 10.93C2.66001 10.71 2.26001 9.07003 2.20001 7.71003C4.79973 7.88301 7.40957 7.82947 10 7.55003C9.94188 8.44565 9.74276 9.32649 9.41001 10.16C8.56855 10.6934 7.59615 10.9841 6.60001 11C6.51859 11.0139 6.44471 11.0562 6.39144 11.1193C6.33818 11.1825 6.30896 11.2624 6.30896 11.345C6.30896 11.4276 6.33818 11.5076 6.39144 11.5707C6.44471 11.6339 6.51859 11.6761 6.60001 11.69C7.64982 11.7082 8.68545 11.4458 9.60001 10.93C9.86937 10.7505 10.1005 10.5194 10.28 10.25C10.6548 9.36361 10.8974 8.42695 11 7.47003C11.0627 7.44457 11.1163 7.401 11.1541 7.34489C11.1919 7.28878 11.212 7.22267 11.212 7.15503C11.212 7.08739 11.1919 7.02129 11.1541 6.96517C11.1163 6.90906 11.0627 6.86549 11 6.84003C11.0655 6.00798 11.0655 5.17208 11 4.34003C11.0814 4.31996 11.1525 4.27054 11.1996 4.20126C11.2468 4.13198 11.2667 4.04772 11.2556 3.96466C11.2444 3.88159 11.203 3.80557 11.1392 3.7512C11.0754 3.69682 10.9938 3.66791 10.91 3.67003C10.46 0.670031 8.47001 -0.32997 5.47001 0.0900305C4.76012 0.139508 4.06976 0.344275 3.4477 0.689865C2.82563 1.03545 2.28706 1.51343 1.87001 2.09003C1.57666 2.63809 1.41892 3.24847 1.41001 3.87003C1.10001 3.87003 0.76001 3.87003 0.76001 4.21003C0.76001 4.55003 1.12001 4.52003 1.37001 4.54003C1.37001 5.45003 1.24001 5.96003 1.26001 7.02003C1.06001 7.02003 0.76001 7.02003 0.76001 7.34003C0.76001 7.66003 1.09001 7.65003 1.30001 7.67003C1.29976 8.80815 1.6878 9.9123 2.40001 10.8C3.05001 11.38 3.59001 11.75 5.51001 11.62ZM2.51001 3.55003C2.55006 3.24867 2.64496 2.9572 2.79001 2.69003C3.72001 1.32003 6.08001 1.00003 7.51001 1.25003C8.65001 1.44003 9.40001 1.94003 9.78001 3.60003C8.00808 3.50018 6.23194 3.50018 4.46001 3.60003C2.19001 3.72003 2.44001 3.84003 2.49001 3.55003H2.51001ZM2.39001 4.55003C4.90988 4.71619 7.43943 4.66266 9.95001 4.39003C10.0629 5.15794 10.1097 5.93412 10.09 6.71003C7.45486 6.49852 4.80524 6.54877 2.18001 6.86003C2.20001 5.92003 2.29001 5.56003 2.37001 4.59003L2.39001 4.55003Z" fill="black"/>
<path d="M4.69002 18.19C4.16002 18.19 2.55002 18.44 1.74002 18.43C0.930019 18.42 1.26002 19.03 1.74002 19.11C2.46002 19.17 4.23002 19.32 5.30002 19.29C5.75002 19.29 9.54002 19.08 10.85 18.88C11.6 18.78 11.29 18.11 10.85 18.14C8.79716 18.0524 6.74118 18.069 4.69002 18.19Z" fill="black"/>
<path d="M20.51 10.4C18.973 10.2375 17.431 10.6587 16.19 11.58C15.7087 11.9115 15.3046 12.3429 15.0053 12.8449C14.7061 13.3469 14.5187 13.9076 14.456 14.4886C14.3934 15.0697 14.4569 15.6574 14.6422 16.2116C14.8276 16.7659 15.1304 17.2736 15.53 17.7C16.0756 18.2475 16.7719 18.62 17.53 18.77C17.6095 18.7848 17.6916 18.768 17.7588 18.7232C17.8261 18.6784 17.8732 18.6091 17.89 18.53C18 17.98 17.18 18.39 16.11 17.19C15.8242 16.8398 15.6169 16.4323 15.502 15.995C15.3872 15.5578 15.3675 15.101 15.4442 14.6555C15.521 14.21 15.6925 13.7861 15.9471 13.4126C16.2017 13.039 16.5335 12.7244 16.92 12.49C17.9366 11.768 19.1785 11.4344 20.42 11.55C22.42 11.76 23.7 15.7 22.82 16.84C22.1 17.77 20.98 17.84 20.98 18.37C20.98 18.61 21.13 18.85 21.53 18.71C22.2213 18.3338 22.8658 17.8773 23.45 17.35C24.81 15.71 23.38 10.8 20.51 10.4Z" fill="black"/>
<path d="M21.06 19.7C18.9 19.4 19.9 20.63 20.12 17.08C20.1488 16.1361 20.0851 15.1916 19.93 14.26C19.917 14.1886 19.8794 14.124 19.8236 14.0775C19.7679 14.031 19.6976 14.0055 19.625 14.0055C19.5524 14.0055 19.4821 14.031 19.4264 14.0775C19.3706 14.124 19.333 14.1886 19.32 14.26C19.27 14.59 19.13 15.26 19.03 16.05C18.6965 15.5605 18.237 15.1701 17.7 14.92C17.6409 14.873 17.5666 14.8491 17.4912 14.8529C17.4157 14.8567 17.3442 14.888 17.2902 14.9408C17.2361 14.9936 17.2032 15.0644 17.1977 15.1397C17.1921 15.2151 17.2143 15.2899 17.26 15.35C17.5464 16.2055 18.1468 16.9203 18.94 17.35V19.26C18.94 19.47 18.85 19.68 18.94 19.7L17.79 19.75C17.6972 19.75 17.6081 19.7869 17.5425 19.8526C17.4769 19.9182 17.44 20.0072 17.44 20.1C17.44 20.1929 17.4769 20.2819 17.5425 20.3475C17.6081 20.4132 17.6972 20.45 17.79 20.45L19.72 20.54C20.0364 20.5238 20.3535 20.5238 20.67 20.54C20.67 20.9 20.51 21.54 20.4 22.06C20.16 23.28 20.49 22.8 19.84 22.85C19.1581 22.9133 18.4719 22.9133 17.79 22.85C17.43 21.44 17.61 20.7 17.12 20.79C16.63 20.88 16.9 22.88 17.03 23.36C17.16 23.84 19.08 24 19.43 24.02C20.03 24.02 20.88 24.02 21.21 23.54C21.5352 22.5342 21.7137 21.4868 21.74 20.43C21.77 20 21.58 19.77 21.06 19.7Z" fill="black"/>
</g>
<defs>
<clipPath id="clip0_1051_8803">
<rect width="24" height="24" fill="white"/>
</clipPath>
</defs>
</svg>
