<svg width="24" height="24" viewBox="0 0 24 24" fill="none" xmlns="http://www.w3.org/2000/svg">
<g clip-path="url(#clip0_1048_7218)">
<path fill-rule="evenodd" clip-rule="evenodd" d="M7.44001 16.4C7.44315 16.3225 7.41717 16.2467 7.3672 16.1875C7.31722 16.1283 7.24687 16.0899 7.17001 16.08C6.33001 16 5.48001 15.77 4.61001 15.64C2.37001 15.29 1.83001 16.01 1.68001 14.75C1.59001 14.04 1.84001 16.61 1.27001 8.23997C0.994498 6.37129 1.05205 4.46859 1.44001 2.61998C2.93001 1.93998 3.30001 2.21998 4.76001 1.92998C7.25962 1.52835 9.80061 1.45104 12.32 1.69998C13.08 1.69998 14.01 1.62998 14.85 1.69998C16.44 1.85998 16.63 2.39998 16.31 6.32998C16.31 6.74998 16.18 7.32998 16.53 7.32998C16.71 7.40998 16.91 7.14998 16.94 6.85998L17.11 5.21997C17.11 3.79997 17.52 1.85998 16.11 1.15998C15 0.639975 13.52 0.869975 12.39 0.769975C9.78601 0.434994 7.14858 0.455178 4.55001 0.829975C3.27001 1.07998 2.00001 0.919976 0.800011 1.68998C0.220011 2.05998 0.180011 2.99998 0.100011 3.59998C-0.0513591 5.18266 -0.0076987 6.77794 0.230011 8.34998C1.01001 15.85 0.820011 14.67 0.920011 15.1C1.32001 16.83 2.74001 16.1 4.52001 16.3C6.56001 16.55 7.39001 16.94 7.44001 16.4Z" fill="black"/>
<path fill-rule="evenodd" clip-rule="evenodd" d="M16.62 8.83997C16.47 8.78997 16.35 8.70997 16.25 8.83997C15.6 9.55997 16.02 11.62 16.5 11.62C16.5902 11.62 16.6767 11.5841 16.7404 11.5204C16.8042 11.4566 16.84 11.3701 16.84 11.28C16.85 11.18 17.41 9.10997 16.62 8.83997Z" fill="black"/>
<path fill-rule="evenodd" clip-rule="evenodd" d="M12.94 16.21C12.76 15.91 11.24 15.89 10.99 15.9C10.74 15.91 9.49999 16.05 9.09999 16C8.88999 16 8.59999 16.43 9.09999 16.62L10.04 16.94C10.6927 17.0802 11.3716 17.0352 12 16.81C12.29 16.73 13.36 16.73 12.94 16.21Z" fill="black"/>
<path fill-rule="evenodd" clip-rule="evenodd" d="M9.50001 22.75C7.55001 22.48 8.13001 22.57 8.03001 21.55C7.93001 20.53 8.00001 19.73 7.81001 19C7.80338 18.923 7.76647 18.8519 7.7074 18.8022C7.64832 18.7525 7.57192 18.7283 7.49501 18.735C7.4181 18.7416 7.34697 18.7785 7.29727 18.8376C7.24758 18.8967 7.22338 18.973 7.23001 19.05C7.18001 20.2 6.46001 21.43 7.30001 22.89C7.46024 23.077 7.66248 23.2234 7.89017 23.3173C8.11786 23.4111 8.36453 23.4497 8.61001 23.43C8.96635 23.4515 9.32367 23.4515 9.68001 23.43C9.7679 23.4231 9.85044 23.3851 9.91277 23.3227C9.9751 23.2604 10.0131 23.1778 10.02 23.09C10 22.76 9.66001 22.78 9.50001 22.75Z" fill="black"/>
<path fill-rule="evenodd" clip-rule="evenodd" d="M15.36 22.47C14.07 22.25 13.66 21.89 12.04 22.53C11.9745 22.5552 11.9198 22.6027 11.8856 22.664C11.8514 22.7254 11.8399 22.7969 11.853 22.8659C11.8661 22.9349 11.903 22.9972 11.9573 23.0418C12.0116 23.0864 12.0798 23.1105 12.15 23.11C13.2083 23.334 14.3018 23.334 15.36 23.11C15.4313 23.092 15.4945 23.0508 15.5397 22.9928C15.5849 22.9349 15.6094 22.8635 15.6094 22.79C15.6094 22.7165 15.5849 22.6451 15.5397 22.5871C15.4945 22.5292 15.4313 22.488 15.36 22.47Z" fill="black"/>
<path fill-rule="evenodd" clip-rule="evenodd" d="M19.83 22.21C18.28 21.9 16.83 22.15 16.95 22.57C17.2 23.63 19.74 22.89 19.83 22.88C19.9089 22.8663 19.9805 22.8252 20.0321 22.7639C20.0836 22.7026 20.1119 22.6251 20.1119 22.545C20.1119 22.4649 20.0836 22.3874 20.0321 22.3261C19.9805 22.2648 19.9089 22.2237 19.83 22.21Z" fill="black"/>
<path fill-rule="evenodd" clip-rule="evenodd" d="M23.28 19C22.6 18.83 22.9 19.88 22.9 20C22.9 21.58 23.12 22.25 21.42 22.36C21.3491 22.3655 21.2824 22.396 21.2319 22.4462C21.1814 22.4963 21.1504 22.5628 21.1444 22.6337C21.1384 22.7046 21.1578 22.7754 21.1991 22.8333C21.2404 22.8912 21.301 22.9326 21.37 22.95C22.91 23.29 23.99 22.83 24 21.25C24 20.86 23.64 19.12 23.28 19Z" fill="black"/>
<path fill-rule="evenodd" clip-rule="evenodd" d="M17.1 14.4C16.9835 13.9266 16.8433 13.4594 16.68 13C16.6623 12.9573 16.6363 12.9186 16.6036 12.8859C16.5709 12.8533 16.5321 12.8274 16.4894 12.8097C16.4467 12.7921 16.4009 12.783 16.3547 12.7831C16.3085 12.7831 16.2627 12.7923 16.22 12.81C16.1773 12.8277 16.1386 12.8537 16.1059 12.8864C16.0733 12.9191 16.0474 12.9579 16.0298 13.0007C16.0121 13.0434 16.003 13.0891 16.0031 13.1354C16.0031 13.1816 16.0123 13.2273 16.03 13.27C15.98 13.33 16.03 13.65 16.03 13.76C16.03 14.56 16.14 15.5 15.72 15.76C14.95 16.28 14.27 15.89 14.23 16.37C14.2273 16.4094 14.2324 16.449 14.245 16.4864C14.2576 16.5239 14.2775 16.5584 14.3035 16.5882C14.3296 16.6179 14.3612 16.6422 14.3966 16.6597C14.4321 16.6772 14.4706 16.6875 14.51 16.69C16.57 17.14 17.47 16.07 17.1 14.4Z" fill="black"/>
<path fill-rule="evenodd" clip-rule="evenodd" d="M22.82 15C22.46 15 22.41 15.39 22.36 15.79C22.2427 16.2425 22.2427 16.7175 22.36 17.17C22.99 19.47 23.63 17.17 23.26 15.73C23.13 15.4 23.14 15 22.82 15Z" fill="black"/>
<path fill-rule="evenodd" clip-rule="evenodd" d="M22.82 11.08C22.46 11.02 22.41 11.47 22.36 11.87C22.2427 12.3225 22.2427 12.7975 22.36 13.25C22.99 15.55 23.63 13.25 23.26 11.81C23.13 11.45 23.14 11.07 22.82 11.08Z" fill="black"/>
<path fill-rule="evenodd" clip-rule="evenodd" d="M22.12 8.36996C22.1244 8.91975 22.1949 9.46701 22.33 9.99996C22.3713 10.0479 22.4251 10.0834 22.4854 10.1024C22.5457 10.1214 22.6101 10.1232 22.6714 10.1077C22.7327 10.0921 22.7885 10.0597 22.8324 10.0142C22.8763 9.96865 22.9066 9.91179 22.92 9.84996C23.0105 9.33758 23.0673 8.8198 23.09 8.29996C23.1061 8.02442 23.062 7.74868 22.9607 7.49192C22.8594 7.23516 22.7034 7.00355 22.5036 6.8132C22.3037 6.62285 22.0648 6.47833 21.8034 6.38969C21.542 6.30106 21.2644 6.27044 20.99 6.29996C18.91 6.29996 19.39 7.16996 19.75 7.14996C19.83 7.14996 20.82 7.14996 20.89 7.20996C21.1911 7.24894 21.4722 7.38211 21.6932 7.59045C21.9141 7.79878 22.0635 8.07162 22.12 8.36996Z" fill="black"/>
</g>
<defs>
<clipPath id="clip0_1048_7218">
<rect width="24" height="24" fill="white"/>
</clipPath>
</defs>
</svg>
