<svg width="24" height="24" viewBox="0 0 24 24" fill="none" xmlns="http://www.w3.org/2000/svg">
<path fill-rule="evenodd" clip-rule="evenodd" d="M22.64 8.80001C22.3985 8.52795 22.1189 8.29218 21.81 8.10001C21.34 7.83001 20.46 7.21001 19.7 6.73001L19.59 6.66001L20.59 6.06001C21.1644 5.69658 21.7094 5.28866 22.22 4.84001C22.3577 4.72736 22.4661 4.58298 22.5357 4.41926C22.6054 4.25554 22.6343 4.07736 22.62 3.90001C22.4944 3.52735 22.2897 3.18623 22.02 2.90001C21.685 2.52979 21.3131 2.19472 20.91 1.90001L18.15 0.0700061H18.04C18.0006 0.060649 17.9595 0.060649 17.92 0.0700061C17.8798 0.0699837 17.8399 0.078062 17.8028 0.0937599C17.7658 0.109458 17.7323 0.132454 17.7043 0.16138C17.6763 0.190305 17.6544 0.224568 17.6399 0.262128C17.6254 0.299688 17.6187 0.339776 17.62 0.380006L17.4 4.69001V5.41001L16.61 5.00001C15.68 4.46001 14.84 3.95001 14.53 3.74001C14.4565 3.68741 14.3654 3.66532 14.2759 3.67837C14.1864 3.69142 14.1055 3.73859 14.05 3.81001C14.0232 3.84658 14.004 3.88815 13.9935 3.93226C13.983 3.97637 13.9814 4.02213 13.9889 4.06686C13.9963 4.11158 14.0127 4.15437 14.0369 4.19269C14.0611 4.23101 14.0928 4.2641 14.13 4.29001C14.43 4.53001 15.25 5.11001 16.13 5.73001C16.54 6.02001 16.97 6.31001 17.38 6.58001V6.89001L17 7.12001L13.82 9.48001C13.7493 9.53369 13.7024 9.61292 13.6893 9.70075C13.6762 9.78858 13.698 9.87804 13.75 9.95001C13.775 9.9869 13.8072 10.0184 13.8446 10.0425C13.8821 10.0666 13.924 10.0829 13.9679 10.0904C14.0118 10.0978 14.0568 10.0963 14.1001 10.086C14.1435 10.0756 14.1842 10.0566 14.22 10.03L17.42 8.03001C17.42 9.73001 17.6 11.41 17.67 13.1C17.6818 13.1991 17.7278 13.2911 17.8 13.36C17.8496 13.4243 17.9223 13.4666 18.0028 13.4779C18.0832 13.4891 18.1648 13.4683 18.23 13.42C18.5 13.23 18.83 12.96 19.23 12.66C19.9 12.08 20.67 11.38 21.31 10.85C21.53 10.66 21.97 10.26 22.31 9.91001C22.4634 9.7469 22.6007 9.56941 22.72 9.38001C22.7564 9.28438 22.7681 9.18114 22.7541 9.07978C22.7402 8.97843 22.7009 8.88222 22.64 8.80001ZM21.19 3.59001C21.55 4.07001 21.51 4.10001 19.93 5.09001C19.46 5.40001 18.98 5.70001 18.52 6.02001V4.68001L18.26 1.00001L20.33 2.74001C20.6432 2.99516 20.9312 3.2798 21.19 3.59001ZM21.44 9.27001C21.35 9.38001 21.32 9.44001 21.21 9.56001C21.1 9.68001 20.75 10.08 20.61 10.22C20.03 10.81 19.33 11.59 18.71 12.22L18.38 12.54C18.45 11.04 18.53 9.54001 18.54 8.04001V7.31001L21.2 9.10001C21.2571 9.17356 21.3286 9.23479 21.41 9.28001L21.44 9.27001Z" fill="black"/>
<path fill-rule="evenodd" clip-rule="evenodd" d="M18.83 19.87C18.6563 19.633 18.4693 19.406 18.27 19.19C17.91 18.73 17.53 18.26 17.13 17.83C16.73 17.4 16.58 17.24 16.28 16.96C16.0442 16.7297 15.79 16.519 15.52 16.33C15.2787 16.1667 15.0001 16.0669 14.71 16.04C14.4742 16.0356 14.2419 16.098 14.04 16.22C13.58 16.48 12.95 17.11 12.37 17.51C12.251 17.5931 12.1236 17.6635 11.99 17.72C11.92 17.72 11.85 17.79 11.79 17.72L8.62 14C8.19 13.53 7.62 13 7.09 12.37C6.78782 12.0349 6.5535 11.6444 6.4 11.22C6.35 11.05 6.48 10.89 6.63 10.71C7 10.22 7.75 9.68002 8.19 9.18002C8.42889 8.94752 8.59853 8.65326 8.68 8.33002C8.70619 8.15866 8.66692 7.98373 8.57 7.84002C8.44427 7.6525 8.30383 7.47527 8.15 7.31002L6.38 5.00002C6.32564 4.95785 6.2588 4.93496 6.19 4.93496C6.12121 4.93496 6.05436 4.95785 6 5.00002C5.97128 5.02797 5.94844 5.0614 5.93285 5.09833C5.91726 5.13525 5.90923 5.17493 5.90923 5.21502C5.90923 5.2551 5.91726 5.29478 5.93285 5.3317C5.94844 5.36863 5.97128 5.40206 6 5.43002L7.6 7.68002L8 8.21002C8 8.47002 7.66 8.73002 7.34 9.02002C6.83205 9.43957 6.36038 9.9012 5.93 10.4C5.80021 10.5424 5.70691 10.7141 5.65814 10.9005C5.60937 11.0869 5.60658 11.2823 5.65 11.47C5.81973 11.9978 6.09155 12.4871 6.45 12.91C6.93 13.54 7.54 14.13 7.96 14.61L11 18.37C11.143 18.5521 11.3406 18.6834 11.5639 18.7446C11.7872 18.8059 12.0242 18.7937 12.24 18.71C12.8814 18.4348 13.4753 18.0602 14 17.6C14.1674 17.4578 14.3445 17.3275 14.53 17.21C14.59 17.21 14.7 17.21 14.7 17.13C14.8282 17.1692 14.9473 17.2339 15.05 17.32C15.2288 17.4633 15.3991 17.6169 15.56 17.78C15.8317 18.0318 16.0888 18.2989 16.33 18.58C16.71 19 17.07 19.45 17.42 19.9C17.55 20.06 17.73 20.24 17.88 20.44C17.934 20.5155 17.9809 20.5958 18.02 20.68C18.15 21.11 17.78 21.44 17.39 21.74C16.914 22.0968 16.3793 22.3675 15.81 22.54C13.8161 23.1119 11.6818 22.9341 9.81 22.04C7.92809 21.105 6.26508 19.7828 4.93 18.16C3.2153 16.2986 2.20383 13.8973 2.07 11.37C2 8.26002 3.41 5.70002 5 4.94002C5.04071 4.92097 5.07727 4.8941 5.1076 4.86093C5.13792 4.82776 5.16142 4.78894 5.17674 4.74669C5.19206 4.70444 5.19891 4.65958 5.1969 4.61469C5.19488 4.56979 5.18405 4.52573 5.165 4.48502C5.14596 4.44431 5.11909 4.40775 5.08592 4.37742C5.05275 4.3471 5.01393 4.3236 4.97168 4.30828C4.92943 4.29296 4.88457 4.28611 4.83967 4.28812C4.79478 4.29014 4.75071 4.30097 4.71 4.32002C2.96 5.14002 1.23 7.93002 1.28 11.39C1.35377 14.1225 2.37949 16.7434 4.18 18.8C5.5764 20.5563 7.33679 21.9892 9.34 23C11.4304 24.017 13.8207 24.234 16.06 23.61C16.9299 23.356 17.7326 22.912 18.41 22.31C18.7019 22.0764 18.9197 21.763 19.0369 21.408C19.154 21.0529 19.1655 20.6715 19.07 20.31C19.0152 20.1509 18.9341 20.0022 18.83 19.87Z" fill="black"/>
</svg>
