<svg width="24" height="24" viewBox="0 0 24 24" fill="none" xmlns="http://www.w3.org/2000/svg">
<g clip-path="url(#clip0_1046_5802)">
<path fill-rule="evenodd" clip-rule="evenodd" d="M19.4 15.59C19.2597 15.3993 19.1059 15.2189 18.94 15.05C18.6933 14.7433 18.4333 14.4433 18.16 14.15C17.8816 13.8516 17.5879 13.5679 17.28 13.3C17.0847 13.1186 16.8739 12.9546 16.65 12.81C16.4564 12.6824 16.2317 12.6098 16 12.6C15.7639 12.6028 15.5354 12.6837 15.35 12.83C14.96 13.1 14.47 13.64 14.03 13.91C13.85 14.02 13.7 14.13 13.58 14C13.5239 13.945 13.4485 13.9142 13.37 13.9142C13.2915 13.9142 13.2161 13.945 13.16 14C13.1313 14.0279 13.1085 14.0614 13.0929 14.0983C13.0773 14.1352 13.0692 14.1749 13.0692 14.215C13.0692 14.2551 13.0773 14.2947 13.0929 14.3317C13.1085 14.3686 13.1313 14.402 13.16 14.43C13.2602 14.5637 13.4017 14.6607 13.5626 14.7059C13.7235 14.751 13.8948 14.742 14.05 14.68C14.5464 14.4766 15.0059 14.1928 15.41 13.84C15.65 13.67 15.83 13.47 15.97 13.49C16.0859 13.5123 16.1913 13.572 16.27 13.66C16.4105 13.7824 16.5441 13.9126 16.67 14.05C16.88 14.26 17.07 14.48 17.26 14.71C17.45 14.94 17.83 15.42 18.1 15.78L18.55 16.39C18.64 16.68 18.36 16.9 18.09 17.11C17.7197 17.3897 17.3035 17.6029 16.86 17.74C15.8921 18.0508 14.866 18.1363 13.86 17.99C12.97 17.86 10.45 16.99 9.76001 15.99C9.73665 15.9515 9.70567 15.9182 9.66897 15.8922C9.63227 15.8661 9.59063 15.8478 9.54661 15.8385C9.50259 15.8291 9.45711 15.8288 9.41299 15.8377C9.36886 15.8466 9.32701 15.8643 9.29001 15.89C9.25179 15.9135 9.21861 15.9443 9.19237 15.9807C9.16613 16.0171 9.14736 16.0584 9.13713 16.1021C9.12691 16.1458 9.12543 16.191 9.13279 16.2353C9.14015 16.2796 9.1562 16.3219 9.18001 16.36C9.86001 17.51 12.73 18.66 13.7 18.87C14.8462 19.1139 16.0329 19.0934 17.17 18.81C17.8879 18.6116 18.5514 18.2526 19.11 17.76C19.3556 17.5471 19.5337 17.2672 19.6225 16.9545C19.7113 16.6419 19.707 16.3102 19.61 16C19.5582 15.8547 19.4876 15.7169 19.4 15.59Z" fill="black"/>
<path fill-rule="evenodd" clip-rule="evenodd" d="M9.17 10.06C9.45505 10.3937 9.75888 10.7108 10.08 11.01C10.65 11.2 10.85 11.01 10.68 10.43C10.5 10.21 10.32 9.97998 10.15 9.74998C9.34 8.63998 9.51 8.74998 9.87 8.34998C10.23 7.94998 10.68 7.61998 10.98 7.26998C11.2018 7.04157 11.3513 6.75288 11.41 6.43998C11.4336 6.2906 11.4128 6.13757 11.35 5.99998C11.2246 5.79757 11.077 5.60974 10.91 5.43998L9.36 3.71998C9.31079 3.65786 9.239 3.61773 9.16031 3.60837C9.08162 3.599 9.00242 3.62115 8.94 3.66998C8.88439 3.72774 8.85333 3.8048 8.85333 3.88498C8.85333 3.96515 8.88439 4.04221 8.94 4.09998L10.13 5.99998C10.37 6.38998 10.34 6.27998 10.27 6.37998C10.1543 6.51071 10.0307 6.63427 9.9 6.74998C9.47463 7.0922 9.08589 7.47759 8.74 7.89998C8.61604 8.05139 8.52967 8.22998 8.48796 8.42117C8.44624 8.61235 8.45037 8.81069 8.5 8.99998C8.66157 9.38877 8.88814 9.74722 9.17 10.06Z" fill="black"/>
<path fill-rule="evenodd" clip-rule="evenodd" d="M6.86 14C7.71 14.49 7.74 14.14 7.44 13.45C6.97836 12.6859 6.62498 11.8613 6.39 11C6.23643 10.4076 6.14263 9.80119 6.11 9.19002C6.07963 8.57783 6.11652 7.96416 6.22 7.36002C6.28137 6.65582 6.49135 5.97264 6.8361 5.35555C7.18085 4.73845 7.65252 4.20147 8.22 3.78002C8.26077 3.7618 8.29742 3.73551 8.32773 3.70272C8.35804 3.66993 8.38138 3.63134 8.39633 3.58927C8.41129 3.5472 8.41756 3.50253 8.41475 3.45797C8.41194 3.41341 8.40012 3.36988 8.38 3.33002C8.36163 3.28929 8.33542 3.25259 8.30286 3.222C8.27029 3.19142 8.23202 3.16755 8.19023 3.15176C8.14844 3.13597 8.10395 3.12858 8.0593 3.12999C8.01464 3.13141 7.97071 3.14161 7.93 3.16002C7.20352 3.5832 6.57887 4.16081 6.10022 4.852C5.62157 5.5432 5.3006 6.33111 5.16 7.16002C5.01471 7.82966 4.96088 8.51591 5 9.20002C5.02835 9.90366 5.15283 10.6001 5.37 11.27C5.70045 12.2613 6.20501 13.1858 6.86 14Z" fill="black"/>
<path fill-rule="evenodd" clip-rule="evenodd" d="M18.2 5.00001C16.91 6.12001 15.5 7.14001 14.25 8.26001C13.34 9.09001 12.46 9.94001 11.59 10.79L6.70001 15.85C6.17001 16.43 5.59001 17 5.00001 17.65C4.00001 18.83 4.47001 19.65 5.50001 18.25C6.13001 17.65 6.76001 17.07 7.34001 16.51C8.12001 15.76 8.89001 15.02 9.65001 14.27L12.82 11.09C13.52 10.39 14.22 9.68001 14.93 8.98001C16.13 7.79001 17.5 6.71001 18.74 5.51001C18.79 5.51001 18.83 5.41001 18.88 5.36001C19.68 4.71001 19.36 4.08001 18.2 5.00001Z" fill="black"/>
<path fill-rule="evenodd" clip-rule="evenodd" d="M23.27 8.36C22.761 6.74428 21.9122 5.2561 20.7808 3.99532C19.6494 2.73454 18.2614 1.73031 16.71 1.05C15.8765 0.680858 15.0045 0.405825 14.11 0.230001C11.1643 -0.126095 8.18832 0.583309 5.72001 2.23C3.75735 3.3691 2.17191 5.05885 1.16001 7.09C0.664666 8.2668 0.328372 9.50436 0.160006 10.77C-0.0283428 12.0311 -0.0652714 13.3102 0.0500057 14.58C0.214165 16.0052 0.703403 17.3737 1.48001 18.58C2.23756 19.7532 3.17192 20.8023 4.25001 21.69C5.47765 22.7128 6.94836 23.4016 8.52001 23.69C10.0402 23.9699 11.5926 24.0305 13.13 23.87C15.4342 23.6806 17.6628 22.9582 19.64 21.76C20.9832 20.924 22.0697 19.7337 22.78 18.32C24.2237 15.1879 24.3993 11.6187 23.27 8.36ZM21.84 17.79C21.0193 19.3201 19.7196 20.539 18.14 21.26C16.5439 22.0359 14.8184 22.5105 13.05 22.66C11.6195 22.807 10.1756 22.7531 8.76001 22.5C7.45308 22.2162 6.21694 21.6713 5.12577 20.898C4.0346 20.1248 3.11087 19.139 2.41001 18C1.7093 16.9481 1.2547 15.7518 1.08001 14.5C0.930565 13.3147 0.930565 12.1153 1.08001 10.93C1.22688 9.72708 1.53637 8.54966 2.00001 7.43C2.89541 5.5361 4.32373 3.94445 6.11001 2.85C7.86589 1.66334 9.89063 0.934566 12 0.730001C12.0349 0.780937 12.0834 0.82106 12.14 0.845809C12.1965 0.870558 12.2589 0.878939 12.32 0.870001C12.8797 0.802342 13.4466 0.822586 14 0.930001C14.8378 1.11268 15.6528 1.38769 16.43 1.75C17.1052 2.03908 17.7431 2.40841 18.33 2.85C20.2179 4.32294 21.613 6.33537 22.33 8.62C23.3608 11.6247 23.1852 14.9122 21.84 17.79Z" fill="black"/>
</g>
<defs>
<clipPath id="clip0_1046_5802">
<rect width="24" height="24" fill="white"/>
</clipPath>
</defs>
</svg>
