<svg width="24" height="24" viewBox="0 0 24 24" fill="none" xmlns="http://www.w3.org/2000/svg">
<g clip-path="url(#clip0_1046_5766)">
<path fill-rule="evenodd" clip-rule="evenodd" d="M23.86 2.45999C23.8452 2.28612 23.7918 2.11776 23.7035 1.96722C23.6153 1.81669 23.4945 1.6878 23.35 1.58999C22.9798 1.46755 22.5867 1.42995 22.2 1.47999L21.2 1.56999C21.1606 1.57128 21.1218 1.58033 21.0859 1.59661C21.05 1.61289 21.0177 1.63609 20.9907 1.66488C20.9638 1.69367 20.9428 1.72749 20.929 1.7644C20.9151 1.80131 20.9087 1.84059 20.91 1.87999C20.91 1.91893 20.9178 1.95747 20.933 1.99333C20.9482 2.02918 20.9704 2.0616 20.9984 2.08867C21.0264 2.11573 21.0596 2.13688 21.0959 2.15085C21.1323 2.16482 21.1711 2.17133 21.21 2.16999L22.15 2.21999C22.3794 2.23112 22.6071 2.26462 22.83 2.31999C22.91 2.31999 22.83 2.42999 22.83 2.57999L22.77 3.85999V5.16999C22.8143 5.63196 22.8343 6.09593 22.83 6.55999C22.83 6.79999 22.83 7.03999 22.69 7.15999C22.5557 7.31518 22.3882 7.43821 22.2 7.51999C21.9743 7.5493 21.7457 7.5493 21.52 7.51999C21.4728 7.5084 21.4237 7.50705 21.376 7.51604C21.3283 7.52502 21.283 7.54412 21.2433 7.57206C21.2036 7.59999 21.1703 7.63612 21.1457 7.678C21.1211 7.71988 21.1058 7.76654 21.1007 7.81484C21.0957 7.86314 21.101 7.91197 21.1164 7.95803C21.1319 8.00409 21.1569 8.04631 21.19 8.08185C21.2231 8.1174 21.2635 8.14544 21.3083 8.16409C21.3531 8.18275 21.4015 8.19158 21.45 8.18999C21.7488 8.25431 22.0554 8.27452 22.36 8.24999C22.4894 8.22623 22.6142 8.18237 22.73 8.11999L22.57 11C22.5674 11.2914 22.5237 11.5809 22.44 11.86C22.3671 12.1392 22.2452 12.4033 22.08 12.64C21.9988 12.7501 21.8925 12.8392 21.77 12.9C21.625 12.9477 21.4724 12.9681 21.32 12.96C21.2336 12.9506 21.1468 12.9748 21.0776 13.0274C21.0084 13.08 20.962 13.1572 20.948 13.2429C20.9339 13.3287 20.9532 13.4166 21.0019 13.4886C21.0507 13.5606 21.1251 13.6112 21.21 13.63C21.4638 13.6843 21.7262 13.6843 21.98 13.63C22.2522 13.5633 22.5032 13.4292 22.71 13.24C23.0225 12.9631 23.2715 12.622 23.44 12.24C23.6024 11.8593 23.6971 11.4532 23.72 11.04V10.04C23.66 9.27999 23.51 8.35999 23.4 7.71999C23.5899 7.51761 23.7242 7.26959 23.79 6.99999C23.8989 6.40982 23.9458 5.8099 23.93 5.20999V3.87999L23.86 2.45999Z" fill="black"/>
<path fill-rule="evenodd" clip-rule="evenodd" d="M8.26 6.88001C8.53905 6.49648 8.87648 6.15906 9.26 5.88001C9.29919 5.85653 9.33324 5.8254 9.36013 5.78847C9.38702 5.75154 9.40619 5.70957 9.4165 5.66507C9.42681 5.62057 9.42805 5.57445 9.42014 5.52946C9.41223 5.48447 9.39533 5.44153 9.37046 5.40322C9.34559 5.3649 9.31325 5.33199 9.27538 5.30645C9.23751 5.28091 9.19487 5.26326 9.15003 5.25456C9.10519 5.24586 9.05905 5.24629 9.01437 5.25581C8.9697 5.26534 8.9274 5.28377 8.89 5.31C8.51606 5.56547 8.1795 5.87174 7.89 6.22C7.46784 6.70803 7.09596 7.23737 6.78 7.8C6.39323 8.58252 6.16982 9.43558 6.1234 10.3072C6.07698 11.1789 6.20852 12.0508 6.51 12.87C7.0704 14.5488 8.24594 15.953 9.8 16.8C10.7256 17.2721 11.7646 17.4765 12.8 17.39C13.8227 17.2922 14.8138 16.9823 15.71 16.48C16.1789 16.2046 16.6093 15.8684 16.99 15.48C17.3072 15.1836 17.5562 14.822 17.72 14.42C17.7569 14.2926 17.7569 14.1574 17.72 14.03C17.599 13.7956 17.4402 13.5827 17.25 13.4C16.5762 12.722 15.8204 12.1307 15 11.64C14.7231 11.6015 14.441 11.6468 14.19 11.77C13.82 11.92 13.33 12.19 12.95 12.37L12.66 12.5C12.2284 12.1879 11.8297 11.8327 11.47 11.44C11.1555 11.1288 10.8647 10.7945 10.6 10.44C10.5366 10.3544 10.4798 10.2642 10.43 10.17C10.5365 9.86183 10.6774 9.56663 10.85 9.29C11.0137 8.97417 11.2189 8.68159 11.46 8.42C11.6459 8.27187 11.7963 8.08393 11.9 7.87C11.9296 7.80572 11.9449 7.73578 11.9449 7.665C11.9449 7.59423 11.9296 7.52429 11.9 7.46C11.6863 7.10599 11.4421 6.77138 11.17 6.46C10.81 6 10.36 5.51 10 5.08C9.94706 5.02818 9.87681 4.99777 9.80278 4.99465C9.72876 4.99153 9.6562 5.01591 9.59908 5.0631C9.54196 5.11028 9.50432 5.17694 9.49341 5.25022C9.4825 5.3235 9.4991 5.39823 9.54 5.46C9.89 5.9 10.32 6.37001 10.69 6.86001C10.8983 7.12497 11.0855 7.40583 11.25 7.7L11.05 7.89C10.7328 8.18482 10.457 8.52121 10.23 8.89001C9.9722 9.26639 9.77639 9.68165 9.65 10.12C9.64257 10.313 9.6912 10.504 9.79 10.67C10.0208 11.0548 10.2923 11.4135 10.6 11.74C11.0806 12.2925 11.6093 12.8012 12.18 13.26C12.2974 13.3465 12.4295 13.4109 12.57 13.45C12.739 13.4791 12.9127 13.4583 13.07 13.39C13.42 13.28 14.01 12.96 14.49 12.77C14.5901 12.7249 14.6938 12.6881 14.8 12.66C15.4417 13.1332 16.0346 13.6692 16.57 14.26C16.3635 14.5029 16.136 14.7271 15.89 14.93C15.678 15.1231 15.4468 15.294 15.2 15.44C14.4458 15.8659 13.6117 16.1315 12.75 16.22C11.91 16.3161 11.06 16.1704 10.3 15.8C8.94903 15.1106 7.9093 13.9351 7.39 12.51C7.10479 11.8091 6.96566 11.0573 6.98113 10.3007C6.99661 9.54414 7.16636 8.79869 7.48 8.11C7.70097 7.67652 7.96211 7.26471 8.26 6.88001Z" fill="black"/>
<path fill-rule="evenodd" clip-rule="evenodd" d="M2.59 5.88001C2.98 5.88001 3.35 5.75001 3.76 5.68001C3.84843 5.67741 3.93236 5.64044 3.99397 5.57696C4.05559 5.51348 4.09004 5.42848 4.09 5.34001C4.09 5.24984 4.05418 5.16336 3.99041 5.0996C3.92665 5.03583 3.84017 5.00001 3.75 5.00001C2.66536 4.68774 1.51464 4.68774 0.429997 5.00001C0.350432 5.00001 0.274126 5.03162 0.217865 5.08788C0.161604 5.14414 0.129997 5.22045 0.129997 5.30001C0.129997 5.37958 0.161604 5.45588 0.217865 5.51214C0.274126 5.56841 0.350432 5.60001 0.429997 5.60001C0.816862 5.72132 1.21097 5.81818 1.61 5.89001C1.77651 5.90026 1.94349 5.90026 2.11 5.89001C2.27006 5.89546 2.4303 5.89212 2.59 5.88001Z" fill="black"/>
<path fill-rule="evenodd" clip-rule="evenodd" d="M20.5 3.83C20.5133 3.07957 20.4327 2.33042 20.26 1.6C20.1494 1.21827 19.9388 0.873025 19.65 0.600005C19.3614 0.36193 19.0175 0.200301 18.65 0.130005C17.9734 0.0123915 17.286 -0.0311987 16.6 4.85405e-06L7.84 0.0800049L4 0.150005C3.549 0.147464 3.09927 0.197807 2.66 0.300005C2.42693 0.354816 2.21493 0.476456 2.05 0.650005C1.89599 0.989088 1.81751 1.35759 1.82 1.73C1.82 2.36 1.76 3.19 1.76 3.91C1.76 4.63 2.34 4.97001 2.39 3.91V3.11C2.39 2.44 2.46 1.77 2.51 1.36C2.52345 1.26867 2.5435 1.17844 2.57 1.09C2.69989 1.0076 2.84704 0.956267 3 0.940005C3.33155 0.897003 3.66568 0.876955 4 0.880005H7.84L16.6 1C17.1282 0.989637 17.6564 1.01973 18.18 1.09C18.4478 1.10562 18.7051 1.1995 18.92 1.36C19.1075 1.57708 19.2259 1.8452 19.26 2.13C19.35 2.69204 19.3901 3.26091 19.38 3.83V5.83C19.38 7.43 19.28 9.04 19.28 10.62V18C19.3086 19.0021 19.2618 20.0049 19.14 21C19.05 21.69 18.94 22.32 18.63 22.55C18.3122 22.7551 17.9474 22.8755 17.57 22.9C16.9058 22.9711 16.2379 23.0011 15.57 22.99L6.34 23.27H3.19L2.63 23.2C2.53595 23.0347 2.48121 22.8499 2.47 22.66C2.41 22.24 2.4 21.77 2.39 21.54C2.39032 21.4905 2.38013 21.4414 2.3601 21.3961C2.34006 21.3508 2.31064 21.3103 2.27377 21.2772C2.23691 21.2441 2.19344 21.2193 2.14625 21.2042C2.09905 21.1892 2.04921 21.1843 2 21.19C1.91068 21.1951 1.82671 21.2342 1.76534 21.2993C1.70397 21.3644 1.66985 21.4505 1.67 21.54C1.67228 22.0295 1.71577 22.5179 1.8 23C1.83439 23.2576 1.93423 23.502 2.09 23.71C2.18635 23.8208 2.31068 23.9037 2.45 23.95C2.67274 24.0045 2.90074 24.0347 3.13 24.04H6.34L15.56 23.93C16.2737 23.9566 16.9883 23.9399 17.7 23.88C18.2482 23.8357 18.7771 23.6571 19.24 23.36C19.7035 22.9111 20.0029 22.3194 20.09 21.68C20.3018 20.4617 20.4022 19.2266 20.39 17.99V10.72C20.39 9.15001 20.47 7.54 20.49 5.94C20.52 5.21 20.52 4.52 20.5 3.83Z" fill="black"/>
<path fill-rule="evenodd" clip-rule="evenodd" d="M1.87 11.19C2.06 12.19 2.65 12 2.87 11.19V10.65V9.93002C2.88517 9.68693 2.88517 9.44312 2.87 9.20002C2.8 8.46002 2.67 7.83002 2.61 7.50002C2.60269 7.42215 2.56712 7.34965 2.51001 7.29622C2.45289 7.24279 2.37818 7.21212 2.3 7.21002C2.25975 7.21 2.2199 7.21808 2.18284 7.23378C2.14577 7.24947 2.11224 7.27247 2.08425 7.3014C2.05626 7.33032 2.03437 7.36458 2.0199 7.40214C2.00543 7.4397 1.99866 7.47979 2 7.52002C2 7.85002 1.84 8.52002 1.77 9.21002C1.75488 9.44978 1.75488 9.69026 1.77 9.93002V10.66C1.77 10.9 1.85 11 1.87 11.19Z" fill="black"/>
<path fill-rule="evenodd" clip-rule="evenodd" d="M3.93 12.22C2.7519 11.864 1.49112 11.8921 0.33 12.3C0.286716 12.292 0.242202 12.2936 0.199615 12.3047C0.157028 12.3159 0.117411 12.3362 0.0835749 12.3644C0.0497388 12.3925 0.0225125 12.4278 0.00382743 12.4676C-0.0148577 12.5075 -0.0245438 12.551 -0.0245438 12.595C-0.0245438 12.639 -0.0148577 12.6825 0.00382743 12.7223C0.0225125 12.7622 0.0497388 12.7975 0.0835749 12.8256C0.117411 12.8538 0.157028 12.8741 0.199615 12.8852C0.242202 12.8964 0.286716 12.898 0.33 12.89C0.69 12.89 1.1 13.03 1.57 13.08H2.09C2.26318 13.0903 2.43682 13.0903 2.61 13.08C3.05 13.03 3.46 12.96 3.83 12.93C3.92125 12.9355 4.01104 12.9052 4.08019 12.8454C4.14933 12.7856 4.19233 12.7011 4.2 12.61C4.21468 12.5226 4.19467 12.433 4.14424 12.3601C4.09382 12.2873 4.01695 12.237 3.93 12.22Z" fill="black"/>
<path fill-rule="evenodd" clip-rule="evenodd" d="M1.74 18.24C1.89 19.14 2.61 19.06 2.74 18.24V17.84V17.12C2.75525 16.8803 2.75525 16.6398 2.74 16.4C2.68 15.64 2.56 15 2.54 14.74C2.54414 14.7006 2.54043 14.6607 2.52907 14.6227C2.51771 14.5847 2.49894 14.5494 2.47383 14.5187C2.44872 14.488 2.41778 14.4626 2.3828 14.4439C2.34781 14.4253 2.30947 14.4138 2.27 14.41C2.19199 14.4044 2.11489 14.4295 2.05511 14.48C1.99534 14.5304 1.95762 14.6022 1.95 14.68C1.80932 15.2387 1.70906 15.8069 1.65 16.38V17.11C1.63504 17.3498 1.63504 17.5902 1.65 17.83C1.72 18 1.73 18.11 1.74 18.24Z" fill="black"/>
<path fill-rule="evenodd" clip-rule="evenodd" d="M4.14 19.31C2.92697 18.9886 1.65429 18.9646 0.429997 19.24C0.351226 19.2425 0.276365 19.2749 0.220638 19.3307C0.16491 19.3864 0.1325 19.4613 0.129997 19.54C0.129997 19.6196 0.161604 19.6959 0.217865 19.7522C0.274126 19.8084 0.350432 19.84 0.429997 19.84C0.729997 19.9 1.18 20.04 1.71 20.13C1.8956 20.157 2.08255 20.1737 2.27 20.18C2.45653 20.1901 2.64347 20.1901 2.83 20.18C3.28323 20.1475 3.73407 20.0874 4.18 20C4.22467 19.9975 4.26841 19.9861 4.30869 19.9666C4.34897 19.9472 4.38501 19.9199 4.41474 19.8865C4.44447 19.853 4.4673 19.814 4.48193 19.7717C4.49656 19.7295 4.5027 19.6847 4.5 19.64C4.49483 19.549 4.45431 19.4635 4.38706 19.4019C4.31982 19.3402 4.23117 19.3073 4.14 19.31Z" fill="black"/>
</g>
<defs>
<clipPath id="clip0_1046_5766">
<rect width="24" height="24" fill="white"/>
</clipPath>
</defs>
</svg>
