<svg width="24" height="24" viewBox="0 0 24 24" fill="none" xmlns="http://www.w3.org/2000/svg">
<g clip-path="url(#clip0_1046_5747)">
<path fill-rule="evenodd" clip-rule="evenodd" d="M23.37 18C23.17 17.72 22.91 17.46 22.72 17.22C22.3642 16.7776 21.9974 16.3442 21.62 15.92C21.2388 15.4887 20.8314 15.0812 20.4 14.7C20.1298 14.44 19.8389 14.2026 19.53 13.99C19.272 13.8231 18.9764 13.7234 18.67 13.7C18.3621 13.7079 18.0646 13.8129 17.82 14C17.26 14.38 16.55 15.14 15.89 15.53C15.6 15.71 15.34 15.85 15.14 15.62L13.78 14C13.7288 13.9445 13.6586 13.9104 13.5833 13.9044C13.508 13.8984 13.4333 13.921 13.3739 13.9677C13.3146 14.0144 13.2751 14.0818 13.2632 14.1564C13.2514 14.2309 13.2681 14.3072 13.31 14.37L14.61 16C14.7417 16.1759 14.9276 16.3036 15.1391 16.3632C15.3506 16.4229 15.5758 16.4112 15.78 16.33C16.5794 15.9943 17.3269 15.5465 18 15C18.26 14.81 18.46 14.62 18.63 14.64C18.7778 14.6704 18.9176 14.7318 19.04 14.82C19.2947 15.0125 19.5322 15.2266 19.75 15.46C20.06 15.76 20.35 16.08 20.63 16.41C21.06 16.91 21.47 17.41 21.87 17.95C22.02 18.14 22.23 18.35 22.39 18.58C22.4702 18.6702 22.5314 18.7757 22.57 18.89C22.7 19.29 22.45 19.64 22.12 19.96C21.4979 20.5153 20.7601 20.9252 19.96 21.16C18.1929 21.621 16.3388 21.6347 14.5651 21.2C12.7913 20.7653 11.1537 19.8958 9.8 18.67C9.73303 18.6134 9.64675 18.5848 9.55919 18.5903C9.47164 18.5957 9.38959 18.6348 9.33019 18.6994C9.2708 18.7639 9.23866 18.849 9.24048 18.9367C9.24231 19.0244 9.27797 19.108 9.34 19.17C10.7684 20.5239 12.508 21.5057 14.4053 22.0289C16.3026 22.5521 18.2995 22.6005 20.22 22.17C21.2054 21.888 22.1169 21.393 22.89 20.72C23.2162 20.4578 23.4597 20.1068 23.591 19.7094C23.7223 19.3119 23.7358 18.885 23.63 18.48C23.5633 18.31 23.476 18.1488 23.37 18Z" fill="black"/>
<path fill-rule="evenodd" clip-rule="evenodd" d="M23.72 0.539997C23.69 0.507579 23.6537 0.481711 23.6133 0.46402C23.5728 0.446328 23.5291 0.437195 23.485 0.437195C23.4409 0.437195 23.3972 0.446328 23.3568 0.46402C23.3163 0.481711 23.28 0.507579 23.25 0.539997L20.19 3.54C18.35 5.35 16.47 7.11 14.61 8.88C10.4491 12.6727 6.48719 16.6781 2.74 20.88C2.25 21.4 1.74 21.95 1.28 22.5C0.960002 22.83 0.630002 23.17 0.280002 23.5C0.225033 23.5561 0.194244 23.6315 0.194244 23.71C0.194244 23.7885 0.225033 23.8639 0.280002 23.92C0.337235 23.9727 0.412196 24.002 0.490002 24.002C0.567807 24.002 0.642768 23.9727 0.700002 23.92C1.09 23.58 1.45 23.25 1.79 22.92C2.32 22.39 2.79 21.87 3.32 21.37L7.71 17.08L10.39 14.55C11.7233 13.2767 13.0567 11.9967 14.39 10.71C16.5833 8.55 18.7367 6.35333 20.85 4.12L23.85 1.02C23.8746 0.980373 23.8908 0.936109 23.8976 0.889958C23.9043 0.843808 23.9015 0.796758 23.8893 0.751736C23.8772 0.706714 23.8558 0.664682 23.8267 0.628256C23.7976 0.591829 23.7612 0.561787 23.72 0.539997Z" fill="black"/>
<path fill-rule="evenodd" clip-rule="evenodd" d="M9 9.75003C9.44 10.28 10 10.82 10.46 11.31C11.27 11.78 11.36 11.49 11.03 10.75C10.71 10.38 10.37 9.98003 10.03 9.57003C9.66089 9.0979 9.37357 8.5672 9.18 8.00003C9.18 7.91003 9.18 7.84003 9.28 7.74003C9.39767 7.57666 9.52808 7.42285 9.67 7.28003C10.16 6.77003 10.83 6.28003 11.27 5.74003C11.5557 5.44719 11.7532 5.07985 11.84 4.68003C11.876 4.44392 11.8264 4.20271 11.7 4.00003C11.55 3.78003 11.3 3.56003 11.18 3.40003L9 0.830033C8.9488 0.774538 8.87856 0.74039 8.80329 0.734404C8.72802 0.728418 8.65327 0.751034 8.59394 0.797739C8.53461 0.844443 8.49508 0.911801 8.48323 0.986371C8.47137 1.06094 8.48808 1.13724 8.53 1.20003L9.71 2.81003C9.95 3.17003 10.19 3.53003 10.41 3.90003C10.73 4.42003 10.89 4.59003 10.09 5.29003C9.49166 5.78215 8.93938 6.32774 8.44 6.92003C8.28869 7.10447 8.182 7.32134 8.12823 7.55377C8.07446 7.78619 8.07507 8.02788 8.13 8.26003C8.34011 8.79923 8.63369 9.30204 9 9.75003Z" fill="black"/>
<path fill-rule="evenodd" clip-rule="evenodd" d="M6 15.76C6.89 16.42 7 16.15 6.52 15.25C5.60792 13.9806 4.93056 12.5582 4.52 11.05C4.28599 10.191 4.14517 9.30921 4.1 8.42001C4.07164 7.53162 4.14207 6.64284 4.31 5.77001C4.81 3.29001 6.08 1.33001 7.41 0.640008C7.45202 0.620966 7.48988 0.593834 7.52142 0.56016C7.55296 0.526487 7.57756 0.486931 7.59381 0.443752C7.61006 0.400572 7.61764 0.354615 7.61613 0.308504C7.61462 0.262393 7.60404 0.217031 7.585 0.175008C7.56596 0.132985 7.53883 0.0951239 7.50515 0.0635867C7.47148 0.0320494 7.43192 0.00745352 7.38874 -0.00879674C7.34557 -0.025047 7.29961 -0.0326333 7.2535 -0.0311226C7.20739 -0.0296119 7.16202 -0.0190338 7.12 7.91997e-06C5.58 0.710008 3.94 2.78001 3.27 5.54001C2.79873 7.45625 2.85749 9.46459 3.44 11.35C3.99067 12.976 4.86108 14.4755 6 15.76Z" fill="black"/>
</g>
<defs>
<clipPath id="clip0_1046_5747">
<rect width="24" height="24" fill="white"/>
</clipPath>
</defs>
</svg>
