<svg width="24" height="24" viewBox="0 0 24 24" fill="none" xmlns="http://www.w3.org/2000/svg">
<g clip-path="url(#clip0_1033_3881)">
<path d="M18.33 11.58C17.7 9.58003 16.82 7.58003 16.07 5.71003C15 2.91003 14.62 2.44003 10.77 4.00003C6.54001 5.70003 3.46001 6.73003 0.780005 8.56003C0.732532 8.59411 0.694067 8.63923 0.667933 8.69149C0.641799 8.74376 0.628782 8.8016 0.630005 8.86003C0.581382 8.83121 0.525608 8.81672 0.469108 8.81822C0.412608 8.81972 0.35768 8.83715 0.310653 8.8685C0.263626 8.89985 0.226411 8.94385 0.203297 8.99543C0.180183 9.04701 0.172109 9.10406 0.180005 9.16003C0.690005 13 2.23001 16.63 3.46001 20.22C3.74001 21.03 4.85001 23.79 5.76001 23.97C6.67001 24.15 7.49001 23.53 8.13001 23.33C10.1826 22.6565 12.1872 21.8446 14.13 20.9C15.94 20.06 19.28 19.38 19.76 18.27C20.15 17.33 19.94 17 18.33 11.58ZM18.69 17.81C18.53 18.16 14.69 19.38 13.64 19.87C11.7472 20.8107 9.80046 21.6388 7.81001 22.35C7.23629 22.6417 6.62819 22.8601 6.00001 23C4.91001 22.09 2.18001 14.28 1.91001 13.46C1.42055 12.0527 1.04599 10.6079 0.790006 9.14003C1.19001 9.39003 1.71001 8.44003 5.40001 6.98003C12.12 4.47003 12.19 4.41003 13.1 4.20003C13.4255 4.11087 13.763 4.07374 14.1 4.09003C14.5707 4.67865 14.9116 5.36026 15.1 6.09003C15.84 8.00003 16.67 10 17.26 11.91C18.8 17.24 18.91 17.3 18.69 17.81Z" fill="black"/>
<path d="M16.69 13.05C16.3606 12.0056 15.9562 10.9863 15.48 10C14.71 8.35003 14.48 6.40003 13.61 5.87003C13.14 5.58003 12.76 5.87003 12.47 5.98003C8.41001 7.34003 5.11001 8.33003 2.57001 9.88003C2.52432 9.90633 2.48636 9.94421 2.45997 9.98986C2.43357 10.0355 2.41968 10.0873 2.41968 10.14C2.41968 10.1928 2.43357 10.2445 2.45997 10.2902C2.48636 10.3358 2.52432 10.3737 2.57001 10.4C4.21001 16.23 3.80001 15.87 4.78001 17.89C5.62001 19.62 5.57001 19.61 15.48 15.43C16.0715 15.2959 16.5877 14.9374 16.92 14.43C17.15 13.92 16.79 13.39 16.69 13.05ZM15.32 12.6C14.32 12.14 13.4 11.48 12.39 10.89C12.836 10.1871 13.3341 9.51853 13.88 8.89003C14.37 10.47 14.66 10.74 15.32 12.6ZM3.23001 10.21C4.09685 9.74342 4.99579 9.33907 5.92001 9.00003C6.85001 8.66003 12.69 6.89003 13.08 6.69003C13.348 7.09706 13.5348 7.55208 13.63 8.03003C12.7405 8.6245 12.0725 9.49642 11.73 10.51C10.21 9.74003 8.73001 9.37003 7.44001 10.51C6.15001 11.65 5.61001 12.91 4.61001 14.93C3.64001 11.24 4.00001 12.51 3.23001 10.21ZM15.62 14.12C15.06 14.41 17.91 13.12 7.31001 17.65C7.08001 17.75 6.13001 18.15 5.92001 18.03C5.49419 17.3388 5.15815 16.5962 4.92001 15.82C5.64251 14.5177 6.47557 13.2798 7.41001 12.12C8.61001 10.94 8.97001 10.63 10.81 11.28C12.65 11.93 13.81 12.95 15.68 13.47C15.74 13.67 15.72 14.06 15.62 14.12Z" fill="black"/>
<path d="M16.59 16.61C16.1098 16.6297 15.6378 16.7417 15.2 16.94C14.2278 17.2928 13.3218 17.8066 12.52 18.46C12.4872 18.4823 12.4591 18.5109 12.4373 18.5441C12.4155 18.5773 12.4005 18.6144 12.393 18.6534C12.3856 18.6924 12.3859 18.7325 12.394 18.7714C12.4021 18.8103 12.4177 18.8472 12.44 18.88C12.4623 18.9128 12.4909 18.9409 12.5241 18.9627C12.5573 18.9845 12.5945 18.9996 12.6335 19.007C12.6725 19.0144 12.7125 19.0141 12.7514 19.006C12.7903 18.998 12.8272 18.9823 12.86 18.96C13.5515 18.5933 14.2664 18.2727 15 18C15.5268 17.7241 16.0713 17.4836 16.63 17.28C16.679 17.285 16.7285 17.2793 16.7751 17.2632C16.8217 17.2472 16.8642 17.2212 16.8998 17.1871C16.9354 17.153 16.9631 17.1116 16.981 17.0658C16.999 17.0199 17.0068 16.9707 17.0039 16.9215C17.0009 16.8723 16.9873 16.8244 16.964 16.781C16.9407 16.7375 16.9083 16.6997 16.8689 16.6701C16.8296 16.6405 16.7842 16.6198 16.7361 16.6094C16.6879 16.599 16.6381 16.5992 16.59 16.61Z" fill="black"/>
<path d="M23.8 4.84002C23.66 1.94002 23.68 1.84002 23.56 1.49002C23.5023 1.28354 23.387 1.09773 23.2277 0.954306C23.0683 0.810879 22.8714 0.715749 22.66 0.680025C22.57 0.680025 22.91 0.680025 15.02 0.0800246C13.3078 -0.0549361 11.5865 -0.0247972 9.88003 0.170025C8.00003 0.470025 7.47003 1.00002 7.71003 2.93002C7.75008 3.31899 7.84782 3.69984 8.00003 4.06002C8.03185 4.13296 8.09135 4.19026 8.16543 4.21933C8.2395 4.2484 8.32209 4.24685 8.39503 4.21502C8.46796 4.1832 8.52527 4.1237 8.55433 4.04963C8.5834 3.97555 8.58185 3.89296 8.55003 3.82002C8.23493 3.06115 8.21708 2.21146 8.50003 1.44002C9.18003 0.510025 14.27 1.00002 15 1.09002C15.1 1.09002 22.52 1.86002 22.54 1.99002C22.56 2.12002 22.72 4.93002 22.72 4.99002C22.87 6.06002 22.58 11.18 22.54 12.28C22.5892 13.39 22.5725 14.502 22.49 15.61C22.27 15.77 21.93 15.69 20.71 15.55C20.6673 15.5369 20.6225 15.5323 20.578 15.5365C20.5336 15.5407 20.4904 15.5536 20.4509 15.5745C20.4115 15.5954 20.3765 15.6239 20.348 15.6583C20.3196 15.6927 20.2982 15.7323 20.285 15.775C20.2719 15.8177 20.2673 15.8626 20.2715 15.907C20.2757 15.9515 20.2886 15.9947 20.3095 16.0341C20.3304 16.0736 20.3589 16.1086 20.3933 16.137C20.4277 16.1655 20.4673 16.1869 20.51 16.2C22.07 16.45 22.51 16.54 22.93 16.2C23.35 15.86 23.27 15.36 23.31 15.03C23.47 10.3 23.93 6.17002 23.8 4.84002Z" fill="black"/>
<path d="M21 11.26C21.41 10.93 21.31 10.11 21.32 9.80004C21.32 8.43004 21.25 7.42004 21.21 6.29004C21.2526 5.47282 21.2292 4.6535 21.14 3.84004C20.9 2.77004 20.06 2.96004 19.48 2.92004C18.37 2.76073 17.2412 2.78777 16.14 3.00004C16.1013 3.00989 16.0649 3.02727 16.0328 3.0512C16.0008 3.07512 15.9738 3.10512 15.9534 3.13948C15.933 3.17384 15.9195 3.21188 15.9138 3.25144C15.9081 3.291 15.9102 3.3313 15.92 3.37004C15.9299 3.40878 15.9473 3.4452 15.9712 3.47722C15.9951 3.50925 16.0251 3.53624 16.0595 3.55667C16.0938 3.5771 16.1319 3.59056 16.1714 3.59629C16.211 3.60201 16.2513 3.59989 16.29 3.59004C17.51 3.31004 20.17 4.06004 20.08 3.93004C20.13 9.14004 20.32 7.08004 20.48 10.65C20.24 10.85 19.71 10.77 19.27 10.78C19.1886 10.794 19.1147 10.8362 19.0615 10.8994C19.0082 10.9625 18.979 11.0424 18.979 11.125C18.979 11.2076 19.0082 11.2876 19.0615 11.3507C19.1147 11.4139 19.1886 11.4561 19.27 11.47C19.86 11.49 20.48 11.7 21 11.26Z" fill="black"/>
</g>
<defs>
<clipPath id="clip0_1033_3881">
<rect width="24" height="24" fill="white"/>
</clipPath>
</defs>
</svg>
