<svg width="24" height="24" viewBox="0 0 24 24" fill="none" xmlns="http://www.w3.org/2000/svg">
<g clip-path="url(#clip0_1033_3876)">
<path fill-rule="evenodd" clip-rule="evenodd" d="M23.5 13.18C22.64 13.8 21.76 14.4 20.89 15.03C18.03 13.5 14.89 14.44 13.27 17.9C13.2518 17.9626 13.256 18.0295 13.2818 18.0893C13.3076 18.1492 13.3535 18.1981 13.4116 18.2277C13.4696 18.2573 13.5362 18.2658 13.5998 18.2516C13.6634 18.2374 13.72 18.2015 13.76 18.15C14.2693 17.1343 15.1094 16.3224 16.1419 15.848C17.1743 15.3735 18.3376 15.2649 19.44 15.54C19.62 15.59 19.78 15.66 19.96 15.72C18.0936 17.0326 16.4119 18.5898 14.96 20.35C14.274 19.9832 13.7497 19.3733 13.49 18.64C13.4619 18.5771 13.4115 18.5268 13.3486 18.4987C13.2856 18.4706 13.2145 18.4667 13.1489 18.4877C13.0833 18.5088 13.0277 18.5533 12.9929 18.6128C12.958 18.6722 12.9463 18.7425 12.96 18.81C13.1909 19.6866 13.7128 20.4588 14.44 21C13.85 21.77 13.32 22.59 12.8 23.42C12.7761 23.4508 12.7588 23.4862 12.7494 23.524C12.7399 23.5618 12.7385 23.6011 12.7451 23.6395C12.7517 23.6779 12.7663 23.7145 12.7879 23.7469C12.8094 23.7794 12.8375 23.807 12.8704 23.8279C12.9032 23.8489 12.9401 23.8628 12.9786 23.8687C13.0171 23.8746 13.0564 23.8724 13.094 23.8622C13.1316 23.8521 13.1667 23.8342 13.197 23.8097C13.2273 23.7852 13.2522 23.7546 13.27 23.72C13.8381 22.9164 14.4631 22.1544 15.14 21.44C17.97 22.9 22.08 21.68 23.47 18.94C23.5066 18.8652 23.5136 18.7792 23.4895 18.6995C23.4654 18.6197 23.412 18.552 23.34 18.51C22.67 18.16 22.99 19.92 19.73 20.76C18.4604 21.11 17.1197 21.11 15.85 20.76C17.85 18.76 19.57 17.31 20.93 16.17C23.24 17.41 23.19 18.62 23.72 18.25C23.7542 18.2277 23.7837 18.1989 23.8067 18.1652C23.8298 18.1316 23.846 18.0937 23.8543 18.0537C23.8627 18.0137 23.8631 17.9725 23.8555 17.9324C23.8479 17.8923 23.8324 17.8541 23.81 17.82C23.2396 16.9406 22.5186 16.1688 21.68 15.54C22.41 14.93 23.13 14.29 23.88 13.7C23.9141 13.6751 23.943 13.6436 23.965 13.6075C23.987 13.5714 24.0017 13.5313 24.0082 13.4895C24.0147 13.4477 24.0129 13.4051 24.0029 13.364C23.9929 13.3229 23.975 13.2841 23.95 13.25C23.9251 13.2159 23.8936 13.187 23.8575 13.165C23.8214 13.143 23.7813 13.1283 23.7395 13.1218C23.6977 13.1153 23.6551 13.1171 23.614 13.1271C23.5729 13.1371 23.5342 13.1551 23.5 13.18Z" fill="black"/>
<path fill-rule="evenodd" clip-rule="evenodd" d="M19.3 0.820006C19.2544 0.727842 19.1899 0.646349 19.1106 0.580863C19.0314 0.515378 18.9391 0.467377 18.84 0.440006C18.0288 0.278067 17.2064 0.17778 16.38 0.140006C15 0.0900059 13.91 0.220006 11.83 0.230006C5.28003 0.260006 2.20003 -0.409994 0.390029 2.12001C-0.529971 3.42001 0.380029 13 0.810029 15.23C1.08003 16.6 0.610029 19.77 2.37003 20.43C3.53003 20.87 9.37003 19.72 12.07 19.86C12.134 19.8478 12.1917 19.8136 12.2332 19.7634C12.2747 19.7132 12.2974 19.6501 12.2974 19.585C12.2974 19.5199 12.2747 19.4568 12.2332 19.4066C12.1917 19.3564 12.134 19.3223 12.07 19.31C9.55003 19.12 3.47003 20.07 2.61003 19.72C2.02003 19.48 1.88003 18.61 1.81003 17.94C7.98003 17.48 5.64003 17.18 12.47 16.88C12.544 16.8668 12.6109 16.828 12.6591 16.7704C12.7073 16.7128 12.7337 16.6401 12.7337 16.565C12.7337 16.4899 12.7073 16.4172 12.6591 16.3596C12.6109 16.302 12.544 16.2632 12.47 16.25C12.1 16.25 4.59003 16.74 1.77003 17.31C1.77003 16.48 1.77003 15.64 1.66003 15.06C1.14003 11.89 0.840029 3.31001 1.25003 2.74001C2.94003 0.370006 6.30003 1.62001 14.22 1.10001C18.72 0.790006 18.14 1.55001 18.58 1.31001C19.4 3.75001 19.38 10.06 19.58 12.45C19.5933 12.5239 19.6321 12.5908 19.6896 12.639C19.7472 12.6872 19.8199 12.7137 19.895 12.7137C19.9701 12.7137 20.0428 12.6872 20.1004 12.639C20.158 12.5908 20.1968 12.5239 20.21 12.45C20 9.85001 20.2 3.28001 19.3 0.820006Z" fill="black"/>
<path fill-rule="evenodd" clip-rule="evenodd" d="M11.32 12.17C11.6271 12.4353 12.0193 12.5813 12.425 12.5813C12.8308 12.5813 13.223 12.4353 13.53 12.17C15.01 10.67 14.3 9.53002 12.71 8.48002C15.49 6.48002 12.96 3.94002 10.62 5.35002L10.2 5.70002C10.1229 4.99284 9.78401 4.34008 9.25005 3.87002C8.90382 3.59164 8.46284 3.45894 8.02049 3.5C7.57813 3.54106 7.16912 3.75267 6.88005 4.09002C6.59033 4.60154 6.47281 5.19267 6.54484 5.7761C6.61686 6.35953 6.87463 6.90433 7.28005 7.33002C5.68005 7.13002 3.93005 7.33002 3.64005 8.92002C3.29005 10.73 6.47005 10.52 7.06005 10.62C6.79884 10.9736 6.63387 11.389 6.58129 11.8254C6.5287 12.2619 6.5903 12.7045 6.76005 13.11C6.94661 13.3036 7.17029 13.4576 7.41771 13.5627C7.66513 13.6679 7.93121 13.7221 8.20005 13.7221C8.46888 13.7221 8.73496 13.6679 8.98238 13.5627C9.2298 13.4576 9.45348 13.3036 9.64005 13.11C9.90945 12.827 10.1082 12.4844 10.22 12.11C10.478 12.9535 10.6851 13.8117 10.84 14.68C11.13 16.07 11.66 15.81 11.76 15.2C11.79 15 11.4 12.4 11.32 12.17ZM10.67 10.17C9.85005 9.11002 9.59004 10.75 9.48004 11.09C9.23004 11.92 9.10005 12.65 8.24005 12.74C7.80005 12.74 7.56005 12.68 7.49005 12.42C7.29005 11.68 7.92004 10.89 8.19004 10.42C8.24583 10.3299 8.27538 10.226 8.27538 10.12C8.27538 10.014 8.24583 9.91014 8.19004 9.82002C7.92004 9.49002 7.31005 9.68002 6.81005 9.69002C6.06005 9.69002 4.21005 9.69002 4.33005 8.98002C4.62005 7.18002 7.93005 8.19002 8.25005 7.79002C8.57005 7.39002 7.87005 7.37002 7.39005 6.43002C7.21451 6.12598 7.1221 5.7811 7.1221 5.43002C7.1221 5.07895 7.21451 4.73406 7.39005 4.43002C7.48392 4.32024 7.60047 4.2321 7.73167 4.17167C7.86287 4.11124 8.0056 4.07994 8.15004 4.07994C8.29449 4.07994 8.43722 4.11124 8.56842 4.17167C8.69962 4.2321 8.81617 4.32024 8.91005 4.43002C9.25867 4.90281 9.45096 5.47267 9.46005 6.06002C9.46005 6.20002 9.28005 6.48002 9.58005 6.71002C9.65018 6.7686 9.73866 6.80069 9.83005 6.80069C9.92143 6.80069 10.0099 6.7686 10.08 6.71002L11.08 5.95002C11.71 5.60002 12.63 5.57002 12.92 6.23002C13.1 6.64002 12.65 7.08002 12.31 7.38002L11.83 7.72002C11.6786 7.75476 11.5312 7.80503 11.39 7.87002C11.3204 7.92248 11.2648 7.99129 11.2282 8.07037C11.1915 8.14945 11.1749 8.23636 11.1798 8.32339C11.1848 8.41041 11.2111 8.49488 11.2565 8.5693C11.3019 8.64372 11.3649 8.70579 11.44 8.75002C12.83 9.62002 13.95 10.11 12.8 11.28C12.68 11.4 12.17 11.68 10.8 10.28L10.67 10.17Z" fill="black"/>
</g>
<defs>
<clipPath id="clip0_1033_3876">
<rect width="24" height="24" fill="white"/>
</clipPath>
</defs>
</svg>
