<svg width="24" height="24" viewBox="0 0 24 24" fill="none" xmlns="http://www.w3.org/2000/svg">
<g clip-path="url(#clip0_1047_6378)">
<path fill-rule="evenodd" clip-rule="evenodd" d="M23.1 17.14C23.1 17.14 23.19 17.14 23.22 17.05C23.4205 16.7845 23.5666 16.482 23.65 16.16C23.7855 15.716 23.853 15.2541 23.85 14.79C23.891 14.2057 23.8404 13.6186 23.7 13.05C23.5963 12.6454 23.4274 12.2603 23.2 11.91C22.8699 11.4135 22.4368 10.994 21.93 10.68C21.4475 10.387 20.9206 10.1742 20.37 10.05C19.4694 9.83458 18.5306 9.83458 17.63 10.05C17.4703 9.48252 17.2058 8.95 16.85 8.47997C16.3632 7.86996 15.7255 7.3977 15 7.10997C14.2518 6.83828 13.4496 6.74914 12.66 6.84997C11.6751 7.00727 10.7537 7.43677 10 8.08997C9.45604 8.56627 9.00508 9.13929 8.67 9.77997C7.95945 9.40278 7.16429 9.21345 6.36 9.22997C5.66509 9.24179 4.98167 9.40923 4.36 9.71997C3.71865 10.047 3.17137 10.5323 2.77 11.13C2.38284 11.7866 2.16306 12.5284 2.13 13.29C2.13048 14.2006 2.31412 15.1018 2.67 15.94C2.28358 16.1052 1.92049 16.3204 1.59 16.58C1.14072 16.9155 0.766993 17.3417 0.493075 17.8309C0.219156 18.3202 0.0511637 18.8616 -3.03891e-06 19.42C-0.0120836 19.9494 0.0866473 20.4756 0.289855 20.9647C0.493064 21.4538 0.796261 21.895 1.18 22.26C1.56503 22.6211 2.01774 22.9025 2.51204 23.0879C3.00633 23.2732 3.53243 23.3589 4.06 23.34C6.37 23.34 10.4 23.44 13.96 23.43C16.9 23.43 19.52 23.33 20.6 23.24C21.374 23.1483 22.1019 22.824 22.6876 22.3097C23.2732 21.7955 23.689 21.1156 23.88 20.36C24.026 19.8006 24.0312 19.2137 23.8951 18.6518C23.759 18.0899 23.4858 17.5705 23.1 17.14ZM22.99 20.14C22.8374 20.6879 22.5228 21.1768 22.0873 21.5427C21.6519 21.9085 21.116 22.1342 20.55 22.19C19.47 22.24 16.88 22.19 13.97 22.19C11.77 22.19 9.4 22.14 7.36 22.19H4.05C3.67135 22.2252 3.28948 22.1841 2.92702 22.069C2.56457 21.9539 2.22893 21.7672 1.94 21.52C1.64861 21.2695 1.41403 20.9598 1.25192 20.6114C1.08982 20.2631 1.00393 19.8842 0.999997 19.5V19.44C1.01327 19.0112 1.11832 18.5903 1.30808 18.2056C1.49784 17.821 1.76788 17.4814 2.1 17.21C2.83835 16.6507 3.69837 16.2738 4.61 16.11C4.69505 16.0898 4.76946 16.0385 4.81859 15.9662C4.86772 15.8938 4.88801 15.8058 4.87548 15.7192C4.86294 15.6327 4.81848 15.554 4.75084 15.4987C4.6832 15.4433 4.59729 15.4152 4.51 15.42C4.12196 15.4865 3.74051 15.5869 3.37 15.72C3.21633 15.1055 3.14571 14.4732 3.16 13.84C3.1875 13.1198 3.42759 12.4239 3.85 11.84C4.14044 11.424 4.52394 11.0816 4.97 10.84C5.42411 10.5859 5.92344 10.4228 6.44 10.36C6.96513 10.2913 7.49895 10.339 8.00358 10.4997C8.50821 10.6605 8.9713 10.9303 9.36 11.29C9.4263 11.3709 9.52202 11.4221 9.62611 11.4324C9.73019 11.4427 9.83411 11.4113 9.915 11.345C9.99589 11.2787 10.0471 11.1829 10.0574 11.0789C10.0678 10.9748 10.0363 10.8709 9.97 10.79C9.78255 10.5493 9.56778 10.3311 9.33 10.14C9.66523 9.6553 10.0853 9.23521 10.57 8.89997C11.2161 8.4512 11.9745 8.19148 12.76 8.14997C13.4607 8.06805 14.1704 8.1823 14.81 8.47997C15.2373 8.67121 15.6216 8.94671 15.94 9.28997C16.3619 9.73047 16.6663 10.2699 16.8253 10.8588C16.9843 11.4476 16.9928 12.067 16.85 12.66C16.8326 12.7085 16.8251 12.7601 16.8277 12.8116C16.8304 12.8631 16.8433 12.9136 16.8656 12.9601C16.8879 13.0066 16.9193 13.0482 16.9578 13.0825C16.9963 13.1168 17.0412 13.1431 17.09 13.16C17.1921 13.1917 17.3026 13.1823 17.3979 13.1337C17.4932 13.0851 17.5657 13.0013 17.6 12.9C17.8384 12.241 17.9105 11.5335 17.81 10.84C18.5645 10.7829 19.3223 10.8921 20.03 11.16C20.4482 11.3196 20.8447 11.5313 21.21 11.79C21.5609 12.0181 21.8662 12.3097 22.11 12.65C22.3292 12.9515 22.4918 13.2903 22.59 13.65C22.7051 14.0339 22.7755 14.4299 22.8 14.83C22.8381 15.1622 22.8381 15.4977 22.8 15.83C22.7809 16.1266 22.6918 16.4145 22.54 16.67C22.45 16.6 22.4 16.52 22.31 16.45C22.2682 16.4192 22.2206 16.3972 22.1702 16.385C22.1197 16.3729 22.0673 16.371 22.0161 16.3794C21.9649 16.3877 21.9158 16.4063 21.8718 16.4338C21.8279 16.4614 21.7898 16.4975 21.76 16.54C21.6994 16.6241 21.6739 16.7285 21.6889 16.8311C21.7038 16.9337 21.758 17.0265 21.84 17.09C22.3265 17.4073 22.7006 17.87 22.9089 18.4122C23.1171 18.9544 23.149 19.5486 23 20.11L22.99 20.14Z" fill="black"/>
<path fill-rule="evenodd" clip-rule="evenodd" d="M14.92 14.67C14.44 14.32 13.92 14.01 13.43 13.67C12.94 13.33 12.56 13.09 12.1 12.83C11.7815 12.6518 11.4466 12.5044 11.1 12.39C11.0137 12.361 10.9196 12.3666 10.8374 12.4058C10.7553 12.445 10.6916 12.5147 10.66 12.6C10.6399 12.6652 10.6399 12.7349 10.66 12.8C10.4872 13.5984 10.3636 14.4066 10.29 15.22V16.22C10.29 16.53 10.29 16.91 10.36 17.22C10.45 18.02 10.59 18.8 10.7 19.6V19.7C10.6776 19.7486 10.666 19.8015 10.666 19.855C10.666 19.9086 10.6776 19.9615 10.7 20.01C10.7524 20.1008 10.8383 20.1674 10.9393 20.1954C11.0403 20.2235 11.1483 20.2108 11.24 20.16C11.6079 19.9719 11.9622 19.7581 12.3 19.52C13.04 19 13.73 18.39 14.49 17.91C16.36 16.69 16.49 16.74 16.49 16.32C16.5152 16.2074 16.5089 16.09 16.4718 15.9806C16.4348 15.8713 16.3684 15.7742 16.28 15.7C15.8452 15.3329 15.3912 14.9891 14.92 14.67ZM13.8 17.05C13.09 17.63 12.46 18.32 11.8 18.93C11.71 19.01 11.6 19.07 11.51 19.15C11.51 18.53 11.59 17.92 11.61 17.3V16.3V15.3C11.61 14.67 11.49 14.04 11.45 13.41C11.54 13.47 11.64 13.51 11.73 13.58C12.14 13.88 12.5 14.22 12.87 14.58L14.87 16.33L13.8 17.05Z" fill="black"/>
<path fill-rule="evenodd" clip-rule="evenodd" d="M19 4.79008C18.7648 4.63499 18.509 4.5138 18.24 4.43008C17.6187 4.2554 16.9613 4.2554 16.34 4.43008C16.2901 4.42834 16.2403 4.43731 16.1941 4.45639C16.148 4.47548 16.1064 4.50423 16.0723 4.54071C16.0381 4.5772 16.0122 4.62057 15.9962 4.66792C15.9802 4.71526 15.9745 4.76548 15.9796 4.81519C15.9846 4.86491 16.0003 4.91296 16.0254 4.95613C16.0506 4.9993 16.0847 5.03659 16.1255 5.06547C16.1663 5.09435 16.2128 5.11417 16.2618 5.12359C16.3109 5.13301 16.3614 5.13181 16.41 5.12008C16.8907 5.18226 17.3535 5.34222 17.77 5.59008L18.28 5.89008C18.8941 6.22458 19.4162 6.70546 19.8 7.29008C19.8116 7.34612 19.8354 7.39892 19.8698 7.44472C19.9041 7.49053 19.9481 7.52822 19.9986 7.55511C20.0491 7.58201 20.1049 7.59746 20.1621 7.60036C20.2193 7.60327 20.2764 7.59355 20.3293 7.57191C20.3823 7.55027 20.4299 7.51723 20.4687 7.47514C20.5075 7.43304 20.5365 7.38293 20.5538 7.32836C20.571 7.27378 20.576 7.21608 20.5685 7.15934C20.5609 7.10261 20.5409 7.04823 20.51 7.00008C20.345 6.39068 20.0442 5.82656 19.63 5.35008C19.4446 5.1374 19.2329 4.94922 19 4.79008Z" fill="black"/>
<path fill-rule="evenodd" clip-rule="evenodd" d="M8 4.12004C7.37878 3.94485 6.72121 3.94485 6.1 4.12004C5.82987 4.20081 5.57361 4.3222 5.34 4.48004C5.10022 4.62233 4.88145 4.79735 4.69 5.00004C4.27582 5.47653 3.97496 6.04064 3.81 6.65004C3.78698 6.697 3.77391 6.74821 3.7716 6.80046C3.76928 6.8527 3.77778 6.90486 3.79655 6.95367C3.81533 7.00249 3.84397 7.0469 3.8807 7.08413C3.91743 7.12136 3.96144 7.15061 4.01 7.17004C4.10164 7.21561 4.20752 7.22332 4.3048 7.19151C4.40208 7.15971 4.48296 7.09094 4.53 7.00004C4.89187 6.41248 5.39788 5.92713 6 5.59004L6.51 5.29004C6.92535 5.032 7.39371 4.87132 7.88 4.82004C7.97132 4.82846 8.0623 4.8007 8.13337 4.74272C8.20443 4.68475 8.2499 4.6012 8.26 4.51004C8.27256 4.42439 8.25294 4.33712 8.20492 4.26509C8.1569 4.19306 8.08389 4.14139 8 4.12004Z" fill="black"/>
<path fill-rule="evenodd" clip-rule="evenodd" d="M16.05 1.59001C17.1939 1.76158 18.2939 2.15204 19.29 2.74001C19.7057 2.96825 20.1006 3.2326 20.47 3.53001C20.8346 3.83056 21.1694 4.16543 21.47 4.53001C22.2057 5.37858 22.6844 6.4192 22.85 7.53001C22.8538 7.58128 22.8677 7.63129 22.8909 7.67718C22.9141 7.72306 22.9461 7.7639 22.9851 7.79736C23.0242 7.83082 23.0694 7.85623 23.1183 7.87213C23.1672 7.88803 23.2188 7.8941 23.27 7.89001C23.3213 7.88622 23.3713 7.87233 23.4172 7.84914C23.463 7.82595 23.5039 7.79391 23.5374 7.75488C23.5708 7.71585 23.5962 7.67058 23.6121 7.6217C23.628 7.57281 23.6341 7.52126 23.63 7.47001C23.6251 6.13872 23.2133 4.84073 22.45 3.75001C22.1122 3.28721 21.7155 2.87037 21.27 2.51001C20.8278 2.151 20.3403 1.85176 19.82 1.62001C18.6472 1.11212 17.3776 0.866397 16.1 0.90001C16.0543 0.894412 16.0079 0.898457 15.9638 0.911883C15.9197 0.92531 15.8789 0.947821 15.844 0.977966C15.8092 1.00811 15.781 1.04522 15.7614 1.08691C15.7417 1.1286 15.7311 1.17394 15.73 1.22001C15.7245 1.31126 15.7548 1.40105 15.8146 1.4702C15.8744 1.53934 15.9589 1.58234 16.05 1.59001Z" fill="black"/>
<path fill-rule="evenodd" clip-rule="evenodd" d="M1 7.55003C1.05204 7.55411 1.10437 7.5477 1.15388 7.53118C1.20339 7.51466 1.24909 7.48837 1.28826 7.45386C1.32742 7.41936 1.35927 7.37734 1.3819 7.33031C1.40453 7.28327 1.41748 7.23217 1.42 7.18003C1.58245 6.06635 2.06541 5.02399 2.81 4.18003C3.10745 3.81265 3.44262 3.47748 3.81 3.18003C4.18352 2.88925 4.5817 2.63161 5 2.41003C6.00593 1.82193 7.11648 1.43477 8.27 1.27003C8.36109 1.26236 8.44557 1.21936 8.50537 1.15022C8.56517 1.08107 8.59555 0.991278 8.59 0.900031C8.58745 0.854043 8.57584 0.809011 8.55585 0.767517C8.53586 0.726023 8.50788 0.688882 8.4735 0.658225C8.43913 0.627567 8.39904 0.603996 8.35554 0.588862C8.31204 0.573728 8.26598 0.567328 8.22 0.570031C6.92974 0.527717 5.64599 0.770127 4.46 1.28003C3.93421 1.50715 3.44278 1.80672 3 2.17003C2.5557 2.52853 2.16211 2.94567 1.83 3.41003C1.06802 4.49767 0.656329 5.79205 0.650001 7.12003C0.64447 7.17129 0.64916 7.22315 0.663798 7.27258C0.678437 7.32202 0.702733 7.36807 0.735282 7.40806C0.767831 7.44805 0.807986 7.48118 0.853424 7.50555C0.898863 7.52992 0.948682 7.54504 1 7.55003Z" fill="black"/>
</g>
<defs>
<clipPath id="clip0_1047_6378">
<rect width="24" height="24" fill="white"/>
</clipPath>
</defs>
</svg>
