<svg width="24" height="24" viewBox="0 0 24 24" fill="none" xmlns="http://www.w3.org/2000/svg">
<g clip-path="url(#clip0_1047_6391)">
<path fill-rule="evenodd" clip-rule="evenodd" d="M10.44 13.64C10.4356 14.1914 10.3753 14.7408 10.26 15.28C9.78001 15.19 9.62001 14.78 8.70001 15.19C8.8582 14.5122 8.90882 13.8136 8.85001 13.12C8.78001 11.78 8.65001 10.56 7.63001 9.69003C7.56206 9.64493 7.48016 9.62575 7.39926 9.636C7.31835 9.64625 7.24382 9.68524 7.18927 9.74586C7.13471 9.80648 7.10376 9.88469 7.10206 9.96622C7.10036 10.0478 7.12802 10.1272 7.18001 10.19C7.51738 10.5939 7.76497 11.0649 7.90635 11.5718C8.04773 12.0787 8.07965 12.6099 8.00001 13.13C8.04715 13.9804 7.87134 14.8284 7.49001 15.59C7.27977 15.9673 6.95627 16.269 6.56523 16.4524C6.17419 16.6358 5.73539 16.6916 5.31088 16.612C4.88637 16.5324 4.49761 16.3214 4.19957 16.0088C3.90153 15.6962 3.70928 15.2979 3.65001 14.87C4.32691 15.0812 5.05674 15.0458 5.71001 14.77C5.7893 14.7509 5.85909 14.704 5.90665 14.6378C5.95421 14.5715 5.97637 14.4904 5.9691 14.4091C5.96183 14.3279 5.9256 14.252 5.86702 14.1953C5.80845 14.1385 5.73143 14.1047 5.65001 14.1C5.31001 14.1 5.00001 13.93 4.65001 13.89C4.41377 13.8699 4.17625 13.8699 3.94001 13.89L3.50001 14C3.4495 13.4813 3.4495 12.9588 3.50001 12.44C4.35001 12.68 4.43001 12.62 5.50001 12.3C5.57893 12.2863 5.65048 12.2452 5.70206 12.1839C5.75363 12.1227 5.78191 12.0451 5.78191 11.965C5.78191 11.8849 5.75363 11.8074 5.70206 11.7461C5.65048 11.6848 5.57893 11.6437 5.50001 11.63C4.9143 11.4471 4.2923 11.4128 3.69001 11.53C3.7127 11.2554 3.7919 10.9885 3.92262 10.7459C4.05335 10.5034 4.23278 10.2904 4.44967 10.1205C4.66656 9.95054 4.91623 9.82725 5.18302 9.75834C5.4498 9.68942 5.72794 9.67638 6.00001 9.72003C6.07692 9.74124 6.15911 9.73104 6.2285 9.69166C6.29789 9.65227 6.34879 9.58694 6.37001 9.51003C6.39122 9.43311 6.38102 9.35092 6.34164 9.28153C6.30225 9.21215 6.23692 9.16124 6.16001 9.14003C5.52213 8.97784 4.84707 9.05246 4.26001 9.35003C3.66377 9.65619 3.21138 10.184 3.00001 10.82C2.50318 12.2203 2.36565 13.7228 2.60001 15.19C1.70001 14.86 1.60001 15.13 0.950007 15.32C0.884668 15.0666 0.834578 14.8095 0.800007 14.55C0.787261 14.4811 0.750777 14.4188 0.696888 14.374C0.643 14.3291 0.57511 14.3046 0.505007 14.3046C0.434904 14.3046 0.367014 14.3291 0.313125 14.374C0.259237 14.4188 0.222752 14.4811 0.210007 14.55C0.410007 17.67 1.72001 19.36 5.01001 20.04C4.81323 20.9636 4.84412 21.9211 5.10001 22.83C4.34176 22.8385 3.58565 22.9121 2.84001 23.05C2.65856 23.0537 2.47782 23.0737 2.30001 23.11C2.23867 23.1253 2.18302 23.158 2.13969 23.204C2.09635 23.25 2.06715 23.3076 2.05557 23.3697C2.04398 23.4319 2.05049 23.496 2.07432 23.5546C2.09816 23.6132 2.13831 23.6636 2.19001 23.7C2.28001 23.78 4.41001 23.9 4.49001 23.91C5.97862 24.0432 7.47903 23.9284 8.93001 23.57C8.97252 23.528 9.00321 23.4755 9.01898 23.4179C9.03475 23.3602 9.03505 23.2995 9.01984 23.2416C9.00463 23.1838 8.97445 23.1311 8.93234 23.0887C8.89024 23.0462 8.83769 23.0157 8.78001 23C7.77959 23.0463 6.77717 23.0229 5.78001 22.93C5.87512 22.531 5.94856 22.127 6.00001 21.72C6.00001 21.42 5.94001 20.36 5.92001 20.21C9.36001 20.43 11.37 17.3 11.12 13.62C11.1187 13.5754 11.1086 13.5314 11.0903 13.4907C11.072 13.4499 11.0459 13.4132 11.0134 13.3825C10.9809 13.3519 10.9426 13.328 10.9009 13.3121C10.8591 13.2962 10.8147 13.2887 10.77 13.29C10.7254 13.2913 10.6814 13.3014 10.6407 13.3197C10.5999 13.338 10.5632 13.3642 10.5325 13.3967C10.5019 13.4292 10.4779 13.4674 10.4621 13.5092C10.4462 13.5509 10.4387 13.5954 10.44 13.64ZM5.67001 19.06C4.56273 18.9453 3.49069 18.605 2.52001 18.06C1.99397 17.6796 1.57958 17.1651 1.32001 16.57C1.24293 16.3838 1.17616 16.1936 1.12001 16C1.72001 16.18 1.52001 16.38 2.80001 16C3.02027 16.5757 3.4125 17.0695 3.92333 17.4143C4.43417 17.7592 5.03882 17.9383 5.65507 17.9274C6.27131 17.9165 6.86924 17.716 7.36752 17.3533C7.86581 16.9905 8.24028 16.4831 8.44001 15.9C8.66447 16.0718 8.93315 16.1761 9.21468 16.2009C9.49621 16.2257 9.77899 16.1699 10.03 16.04C9.29001 18.35 7.64001 19.29 5.67001 19.06Z" fill="black"/>
<path fill-rule="evenodd" clip-rule="evenodd" d="M20.51 9.07004C19.85 8.34004 20.07 7.14004 18.82 6.55004C17.73 6.05004 16.2 6.55004 15.44 6.02004C15.3372 5.93464 15.2545 5.82765 15.1977 5.70667C15.1409 5.58569 15.1115 5.45368 15.1115 5.32004C15.1115 5.18639 15.1409 5.05439 15.1977 4.93341C15.2545 4.81242 15.3372 4.70543 15.44 4.62004C16.2452 3.93223 17.2615 3.54055 18.32 3.51004C18.7 3.51004 19.92 3.65004 20.32 3.23004C20.3527 3.20251 20.3792 3.16829 20.3976 3.12969C20.4161 3.09109 20.426 3.04899 20.4269 3.00622C20.4277 2.96346 20.4194 2.92101 20.4024 2.88172C20.3855 2.84244 20.3604 2.80723 20.3287 2.77846C20.2971 2.74968 20.2596 2.72801 20.2189 2.71489C20.1782 2.70178 20.1352 2.69752 20.0927 2.7024C20.0502 2.70729 20.0092 2.7212 19.9725 2.74322C19.9359 2.76523 19.9043 2.79483 19.88 2.83004C19.68 3.04004 18.08 2.48004 16.12 3.11004C13.26 4.04004 13.41 7.11004 16.07 7.40004C16.8554 7.35473 17.6433 7.39496 18.42 7.52004C19.49 7.95004 19.17 10.28 21.29 10.09C21.76 10.09 21.79 9.96004 21.86 9.92004C22.16 9.67004 22.16 9.50004 21.97 9.39004C21.39 9.17004 20.93 9.52004 20.51 9.07004Z" fill="black"/>
<path fill-rule="evenodd" clip-rule="evenodd" d="M16.15 12.43C16.21 12.2 16.43 12.05 16.83 11.9C17.2015 11.7492 17.6115 11.7212 18 11.82C18.4144 11.8553 18.8057 12.0263 19.113 12.3065C19.4204 12.5868 19.6267 12.9606 19.7 13.37C19.81 13.62 20.28 13.48 20.3 13.19C20.2387 12.7614 20.0832 12.3517 19.8446 11.9904C19.606 11.6291 19.2904 11.3252 18.9203 11.1005C18.5503 10.8758 18.135 10.7359 17.7044 10.6908C17.2738 10.6458 16.8386 10.6967 16.43 10.84C14.95 11.42 14.9 12.42 15.38 13.73C15.59 14.28 15.88 14.83 15.6 15.33C15.55 15.41 15.66 15.66 16.15 15.49C16.2272 15.4582 16.2961 15.4092 16.3515 15.3469C16.407 15.2845 16.4475 15.2103 16.47 15.13C16.74 14.12 15.94 13.15 16.15 12.43Z" fill="black"/>
<path fill-rule="evenodd" clip-rule="evenodd" d="M23.44 5.40003C23.1151 4.26789 22.5097 3.23604 21.68 2.40003C19.82 0.520034 15.45 -0.419966 13 0.180034C11.4925 0.516213 10.1221 1.30083 9.069 2.43067C8.01591 3.56051 7.32948 4.98266 7.1 6.51003C7.09015 6.55271 7.08881 6.59691 7.09604 6.64011C7.10327 6.68331 7.11895 6.72467 7.14216 6.76181C7.16537 6.79895 7.19568 6.83116 7.23134 6.85659C7.267 6.88203 7.30732 6.90018 7.35 6.91003C7.39268 6.91988 7.43688 6.92123 7.48008 6.914C7.52328 6.90676 7.56464 6.89109 7.60178 6.86788C7.63892 6.84466 7.67113 6.81436 7.69656 6.7787C7.72199 6.74304 7.74015 6.70271 7.75 6.66003C8.09365 5.73051 8.53266 4.83909 9.06 4.00003C9.48676 3.47117 9.98096 3.0005 10.53 2.60003C11.9399 1.52796 13.6496 0.923126 15.42 0.870034C16.455 0.814638 17.4906 0.968513 18.4648 1.32246C19.4391 1.67641 20.3319 2.22316 21.09 2.93003C22.2921 4.39458 22.8704 6.27298 22.7 8.16003C22.6014 9.55651 22.1582 10.9068 21.41 12.09C20.669 13.2826 19.6366 14.2668 18.41 14.95C16.9591 15.7569 15.2735 16.0361 13.64 15.74C13.5678 15.734 13.4958 15.7543 13.4374 15.7972C13.379 15.8401 13.3381 15.9027 13.3222 15.9734C13.3064 16.0441 13.3166 16.1182 13.3512 16.1819C13.3857 16.2456 13.4421 16.2947 13.51 16.32C19.44 17.88 25.35 11.93 23.44 5.40003Z" fill="black"/>
<path fill-rule="evenodd" clip-rule="evenodd" d="M10.12 5.72007C10.57 5.86007 10.77 6.01007 10.89 6.37007C11.06 6.91007 11.03 7.55007 11.2 8.08007C11.69 9.50007 12.84 9.44007 12.54 10.7101C12.4956 10.9528 12.4182 11.1883 12.31 11.4101C12.31 11.4701 12.26 11.5401 12.21 11.5501C11.9 11.5501 11.12 10.5501 10.91 10.2901C10.857 10.2198 10.7782 10.1735 10.691 10.1613C10.6038 10.1491 10.5153 10.172 10.445 10.2251C10.3747 10.2781 10.3284 10.3569 10.3162 10.4441C10.304 10.5313 10.327 10.6198 10.38 10.6901C10.88 11.3901 11.45 12.4001 12.23 12.4201C12.65 12.4201 13.15 12.1001 13.52 10.9701C14.12 9.09007 12.59 8.66007 12.26 7.71007C11.97 6.95007 12.1 5.84007 11.26 5.23007C10.6437 4.908 9.95507 4.7496 9.26001 4.77007C8.78001 4.77007 8.72001 5.29007 9.13001 5.42007C9.45485 5.53637 9.78526 5.63649 10.12 5.72007Z" fill="black"/>
</g>
<defs>
<clipPath id="clip0_1047_6391">
<rect width="24" height="24" fill="white"/>
</clipPath>
</defs>
</svg>
