<svg width="24" height="24" viewBox="0 0 24 24" fill="none" xmlns="http://www.w3.org/2000/svg">
<g clip-path="url(#clip0_1035_5057)">
<path d="M2.99999 16.91C2.79239 17.2045 2.51378 17.4419 2.18999 17.6C1.94999 17.72 1.68999 17.82 1.48999 17.67C1.00999 17.34 1.09999 16.67 1.28999 16.08C1.6557 14.9841 2.17775 13.9467 2.83999 13L3.56999 12.05H3.78999C4.273 12.2319 4.73285 12.4703 5.15999 12.76L2.99999 16.91ZM8.99999 19.13C8.73125 19.4868 8.39056 19.7832 7.99999 20C7.89337 20.0758 7.76581 20.1165 7.63499 20.1165C7.50418 20.1165 7.37661 20.0758 7.26999 20C6.65999 19.61 6.81999 18.89 7.10999 18.13C7.64619 16.9676 8.29247 15.8592 9.03999 14.82C9.46999 15.04 10.3 15.56 10.76 15.82C10.2708 16.9899 9.65018 18.1004 8.90999 19.13H8.99999ZM13.37 15.37C13.3428 15.8422 13.2131 16.3029 12.99 16.72C12.6356 17.4537 12.1701 18.1283 11.61 18.72C11.51 18.81 11.31 18.78 10.98 18.72L10.66 18.61C11.1238 17.7067 11.5215 16.7709 11.85 15.81C11.8879 15.7121 11.8897 15.6039 11.8548 15.5049C11.82 15.4059 11.7509 15.3225 11.66 15.27C11.66 15.27 9.99999 14.4 9.36999 14.12C9.20999 14.05 9.07999 14 8.99999 14C8.78999 14 8.81999 13.65 6.83999 16.61C6.64999 16.44 6.46999 16.29 6.28999 16.15C6.10999 16.01 6.03999 15.97 5.89999 15.89C5.76973 15.8081 5.63254 15.7379 5.48999 15.68C5.30999 15.6 5.11999 15.54 4.90999 15.47C5.40999 14.35 5.90999 13.17 5.99999 13.01C6.04212 12.937 6.0643 12.8543 6.0643 12.77C6.0643 12.6857 6.04212 12.603 5.99999 12.53C5.80861 12.2701 5.55385 12.0635 5.25999 11.93C4.74123 11.6505 4.18581 11.4452 3.60999 11.32C3.52146 11.3046 3.43051 11.3112 3.34509 11.339C3.25967 11.3669 3.18238 11.4153 3.11999 11.48L2.19999 12.57L1.89999 13L1.51999 12.67C1.34999 12.51 1.25999 12.42 1.23999 12.34C1.21195 12.0242 1.24894 11.7059 1.3487 11.4049C1.44846 11.1039 1.60886 10.8266 1.81999 10.59C2.22999 9.99 2.74999 9.45 3.19999 9.39C3.61709 9.40127 4.02667 9.50366 4.39999 9.69C5.45585 10.1403 6.47842 10.6649 7.45999 11.26C9.19365 12.2476 10.8636 13.3431 12.46 14.54C12.84 14.92 13.28 15.37 13.28 15.37H13.37ZM14.39 3.71L14.7 3.3C15.1151 2.82131 15.5774 2.38577 16.08 2C16.3827 1.7707 16.7203 1.59173 17.08 1.47C18.1839 1.17476 19.3555 1.26652 20.4 1.73C20.9071 1.94002 21.3622 2.25823 21.7336 2.6624C22.1049 3.06658 22.3836 3.54697 22.55 4.07C22.8955 5.2519 22.9231 6.50402 22.63 7.7C22.3632 8.90466 21.8264 10.033 21.06 11C20.06 12.28 18.77 13.3 17.68 14.51C17.4 14.83 17.12 15.16 16.87 15.51C16.0425 16.471 15.3679 17.5537 14.87 18.72C14.5506 19.5412 14.4042 20.4196 14.44 21.3C14.5 22.55 15.44 23.21 16.79 23.44C18.79 23.79 21.74 23.25 23.54 23.16C23.586 23.1574 23.631 23.1458 23.6725 23.1259C23.714 23.1059 23.7511 23.0779 23.7818 23.0435C23.8125 23.0091 23.836 22.969 23.8512 22.9255C23.8663 22.882 23.8727 22.836 23.87 22.79C23.8649 22.698 23.8247 22.6115 23.7577 22.5483C23.6908 22.485 23.6021 22.4499 23.51 22.45C21.76 22.5 18.86 22.97 16.95 22.58C16.08 22.4 15.42 22.07 15.4 21.26C15.3963 20.3292 15.623 19.4119 16.06 18.59C16.5242 17.7271 17.0881 16.9216 17.74 16.19C17.98 15.88 18.23 15.59 18.5 15.3C19.62 14.09 20.9 13.04 21.95 11.76C22.8468 10.6637 23.4828 9.37803 23.81 8C24.1245 6.59763 24.0554 5.13644 23.61 3.77C23.3851 3.11054 23.0176 2.50876 22.5336 2.00751C22.0497 1.50627 21.4612 1.11788 20.81 0.870001C19.5573 0.368625 18.1713 0.308669 16.88 0.700001C16.4181 0.855228 15.9879 1.09234 15.61 1.4C15.0813 1.82869 14.5987 2.3113 14.17 2.84L13.8 3.35C13 4.55 13.48 5 14.39 3.71ZM14 14.61C13.8014 14.3605 13.5805 14.1295 13.34 13.92C12.043 12.8057 10.6548 11.8022 9.18999 10.92C8.08473 10.2411 6.93553 9.63639 5.74999 9.11C3.19999 8 2.19999 8.31 1.07999 10.15C0.819193 10.5036 0.634738 10.9075 0.538335 11.3362C0.441932 11.7648 0.435686 12.2088 0.519994 12.64C0.609016 12.8293 0.738776 12.9967 0.899994 13.13C1.07951 13.3021 1.2699 13.4624 1.46999 13.61C0.831387 14.447 0.356414 15.3969 0.0699937 16.41C-0.0470267 16.802 -0.0458799 17.2197 0.0732906 17.611C0.192461 18.0023 0.424365 18.3498 0.739994 18.61C0.970135 18.7758 1.23871 18.8802 1.52039 18.9135C1.80207 18.9467 2.08758 18.9077 2.34999 18.8C3.02195 18.5645 3.60041 18.1193 3.99999 17.53C4.09999 17.36 4.27999 17.02 4.47999 16.6L4.61999 16.3C4.73577 16.4275 4.85934 16.5478 4.98999 16.66C5.11697 16.7591 5.25062 16.8493 5.38999 16.93L5.81999 17.13C6.01999 17.21 6.23999 17.28 6.47999 17.36C6.28493 17.6964 6.12412 18.0515 5.99999 18.42C5.81597 18.855 5.78397 19.3394 5.90918 19.7948C6.03438 20.2502 6.30946 20.6502 6.68999 20.93C7.11508 21.1991 7.62599 21.2982 8.12086 21.2073C8.61572 21.1165 9.05817 20.8425 9.35999 20.44C9.7219 20.0585 10.0374 19.6356 10.3 19.18C10.58 19.3132 10.8757 19.4106 11.18 19.47C11.3268 19.5018 11.4784 19.5041 11.6261 19.4766C11.7738 19.4491 11.9145 19.3925 12.04 19.31C12.7191 18.6746 13.2929 17.9354 13.74 17.12C14.0258 16.6312 14.2126 16.0909 14.29 15.53C14.2511 15.208 14.1528 14.8961 14 14.61Z" fill="black"/>
<path d="M12.66 4.94C12.0195 4.64515 11.3489 4.42051 10.66 4.27C9.33139 3.99508 7.94953 4.15642 6.71999 4.73C5.56213 5.31857 4.54023 6.1429 3.71999 7.15C3.43999 8.02 3.71999 8.04 4.55999 7.33C5.28735 6.60229 6.14576 6.01871 7.08999 5.61C8.1429 5.1882 9.30395 5.11804 10.4 5.41C11.5909 5.65944 12.7072 6.18333 13.66 6.94C14.1246 7.29324 14.5149 7.73482 14.8084 8.23936C15.1018 8.7439 15.2927 9.30146 15.37 9.88C15.4592 10.6744 15.3634 11.4788 15.09 12.23C14.9453 12.6595 14.7681 13.0774 14.56 13.48C14.09 14.28 14.56 14.66 15.24 13.95C15.5025 13.4966 15.733 13.0255 15.93 12.54C16.2971 11.6722 16.4547 10.7301 16.39 9.79C16.3328 9.06091 16.1257 8.35148 15.7815 7.70618C15.4374 7.06089 14.9636 6.49364 14.39 6.04C14.0223 5.73261 13.6234 5.46449 13.2 5.24L12.66 4.94Z" fill="black"/>
</g>
<defs>
<clipPath id="clip0_1035_5057">
<rect width="24" height="24" fill="white"/>
</clipPath>
</defs>
</svg>
