<svg width="24" height="24" viewBox="0 0 24 24" fill="none" xmlns="http://www.w3.org/2000/svg">
<g clip-path="url(#clip0_1030_2524)">
<path fill-rule="evenodd" clip-rule="evenodd" d="M11.53 20.16C11.01 20.16 10.41 20.06 9.76998 20.01C9.36998 20 8.99998 20 8.58998 20C7.89897 20.0008 7.20947 20.0644 6.52998 20.19C6.49129 20.1924 6.45352 20.2027 6.41905 20.2205C6.38458 20.2382 6.35416 20.2628 6.32972 20.2929C6.30528 20.323 6.28735 20.3578 6.27706 20.3952C6.26678 20.4326 6.26437 20.4717 6.26998 20.51C6.27372 20.5482 6.28499 20.5852 6.30314 20.619C6.32129 20.6528 6.34596 20.6826 6.37572 20.7068C6.40548 20.731 6.43974 20.749 6.47652 20.7599C6.51329 20.7707 6.55186 20.7742 6.58998 20.77C6.81998 20.77 7.45998 20.97 8.28998 21.08C8.52998 21.08 8.77998 21.1 9.03998 21.14H9.80998C10.4124 21.1051 11.011 21.0215 11.6 20.89C11.6875 20.8807 11.7677 20.8371 11.8231 20.7686C11.8784 20.7002 11.9043 20.6125 11.895 20.525C11.8857 20.4375 11.842 20.3572 11.7736 20.3019C11.7051 20.2466 11.6175 20.2207 11.53 20.23V20.16Z" fill="black"/>
<path fill-rule="evenodd" clip-rule="evenodd" d="M10.58 17.71L9.82 17.63H9.05C8.31628 17.5993 7.58146 17.653 6.86 17.79C6.82256 17.7972 6.7869 17.8117 6.75507 17.8327C6.72324 17.8537 6.69586 17.8807 6.67449 17.9123C6.65313 17.9439 6.6382 17.9794 6.63057 18.0167C6.62293 18.0541 6.62274 18.0926 6.63 18.13C6.64683 18.2064 6.69284 18.2732 6.75822 18.3162C6.8236 18.3592 6.90319 18.3749 6.98 18.36C7.21 18.36 7.91 18.58 8.76 18.7C9.18065 18.7602 9.60506 18.7903 10.03 18.79C10.8402 18.8629 11.6512 18.6584 12.33 18.21C12.3611 18.1793 12.3859 18.1427 12.4027 18.1024C12.4196 18.062 12.4283 18.0187 12.4283 17.975C12.4283 17.9313 12.4196 17.888 12.4027 17.8476C12.3859 17.8073 12.3611 17.7707 12.33 17.74C12 17.4 12.4 17.88 10.58 17.71Z" fill="black"/>
<path fill-rule="evenodd" clip-rule="evenodd" d="M17.13 11.48C17.2029 11.5079 17.2839 11.5056 17.3552 11.4737C17.4265 11.4418 17.4821 11.3829 17.51 11.31C17.5378 11.2371 17.5356 11.1561 17.5037 11.0848C17.4718 11.0135 17.4129 10.9579 17.34 10.93C16.9797 10.7544 16.5778 10.682 16.1789 10.7208C15.78 10.7596 15.3996 10.9082 15.08 11.15C14.8423 11.3798 14.6923 11.6854 14.6558 12.014C14.6193 12.3426 14.6986 12.6736 14.88 12.95C15.0605 13.2214 15.311 13.4389 15.6049 13.5797C15.8989 13.7205 16.2254 13.7794 16.55 13.75C16.8761 13.7442 17.1888 13.6188 17.4284 13.3975C17.6681 13.1763 17.8182 12.8746 17.85 12.55C17.8667 12.5035 17.873 12.454 17.8686 12.4048C17.8642 12.3557 17.8491 12.3081 17.8244 12.2653C17.7998 12.2226 17.7661 12.1857 17.7257 12.1573C17.6854 12.1288 17.6393 12.1095 17.5908 12.1007C17.5422 12.0919 17.4923 12.0937 17.4445 12.1061C17.3967 12.1185 17.3522 12.1412 17.3141 12.1725C17.276 12.2039 17.2451 12.2431 17.2237 12.2876C17.2022 12.3321 17.1907 12.3807 17.19 12.43C17.159 12.5379 17.0951 12.6334 17.0073 12.7033C16.9195 12.7732 16.8121 12.814 16.7 12.82C16.5372 12.8485 16.3695 12.8253 16.2206 12.7535C16.0717 12.6818 15.9491 12.5651 15.87 12.42C15.69 12.11 15.74 11.88 15.95 11.73C16.1195 11.6106 16.3115 11.5268 16.5143 11.4838C16.7172 11.4408 16.9266 11.4395 17.13 11.48Z" fill="black"/>
<path fill-rule="evenodd" clip-rule="evenodd" d="M19.08 5.69002C19.72 5.75002 20.3 5.80002 20.82 5.87002C23.3 6.17002 22.72 6.20002 22.82 6.87002C22.9347 8.22426 22.9347 9.58577 22.82 10.94C22.8113 12.027 22.6221 13.1051 22.26 14.13C21.9235 14.6542 21.5312 15.1404 21.09 15.58C20.7947 15.8665 20.4842 16.1368 20.16 16.39C20.2262 15.9298 20.253 15.4648 20.24 15V13.25C20.3065 12.4013 20.3065 11.5487 20.24 10.7C20.1997 10.2836 20.04 9.88773 19.78 9.56002C19.8201 9.56211 19.8603 9.5561 19.8981 9.54236C19.9359 9.52862 19.9705 9.50741 20 9.48001C20.3 9.33001 20.59 9.23001 20.87 9.07001C20.9895 8.99916 21.1032 8.9189 21.21 8.83002C21.3165 8.74009 21.4137 8.63957 21.5 8.53001C21.7231 8.26313 21.9144 7.97116 22.07 7.66002C22.1075 7.58921 22.1188 7.50742 22.1019 7.42909C22.085 7.35075 22.041 7.2809 21.9776 7.23187C21.9142 7.18284 21.8355 7.15777 21.7555 7.16109C21.6754 7.16441 21.5991 7.1959 21.54 7.25002C21.32 7.44002 21.05 7.56002 20.78 7.75002C20.6058 7.86574 20.4418 7.99622 20.29 8.14002C20.039 8.4173 19.8116 8.715 19.61 9.03001C19.2662 9.16366 18.8911 9.19492 18.53 9.12002C15.7526 8.83938 12.9609 8.72584 10.17 8.78001C8.24997 8.78001 6.28997 8.91001 4.59997 9.11001C3.41114 9.23682 2.23839 9.48478 1.09997 9.85002C1.41997 9.41002 1.92997 8.85002 2.46997 8.18002C2.82997 7.76002 3.19997 7.33002 3.54997 6.95002C3.86616 6.54274 4.26055 6.20275 4.70997 5.95002C5.41997 5.76002 5.57997 5.46002 5.05997 5.03002C4.8571 5.01059 4.65284 5.01059 4.44997 5.03002C3.99021 5.16432 3.56645 5.40011 3.20997 5.72002C2.88628 5.99569 2.58838 6.30028 2.31997 6.63002C2.07671 6.91711 1.84969 7.21758 1.63997 7.53002C1.17421 8.26037 0.766302 9.02604 0.41997 9.82001C0.41997 9.82001 0.0599697 11.26 0.0599697 11.3C-0.0366059 12.3012 0.00715031 13.3109 0.18997 14.3C0.252681 15.0287 0.252681 15.7614 0.18997 16.49C0.164796 16.889 0.277798 17.2845 0.50997 17.61C0.70637 17.8101 0.947504 17.9607 1.21351 18.0494C1.47951 18.1381 1.76278 18.1623 2.03997 18.12H3.03997C3.1089 18.1073 3.1712 18.0708 3.21604 18.0169C3.26088 17.963 3.28543 17.8951 3.28543 17.825C3.28543 17.7549 3.26088 17.687 3.21604 17.6331C3.1712 17.5792 3.1089 17.5428 3.03997 17.53H2.03997C1.28997 17.53 1.03997 17.34 0.91997 16.95C0.78997 16.3 1.05997 15.32 0.91997 14.21C0.809364 13.4352 0.782542 12.6506 0.83997 11.87C0.860636 11.595 0.924765 11.325 1.02997 11.07C1.02997 10.98 1.11997 10.89 1.19997 10.87C3.54987 10.2753 5.96605 9.98297 8.38997 10C11.61 9.89002 15.03 9.93002 17.18 10.06C17.93 10.06 18.52 10.15 18.89 10.21L19.14 10.26C19.3206 10.5353 19.4082 10.8613 19.39 11.19C19.4289 11.8861 19.4289 12.5839 19.39 13.28V15.03C19.39 16.03 19.39 16.61 19.07 16.95C18.5113 17.3553 17.8628 17.6195 17.18 17.72C17.1378 17.7315 17.0983 17.7514 17.0638 17.7783C17.0293 17.8052 17.0006 17.8387 16.9792 17.8769C16.9578 17.915 16.9442 17.9571 16.9392 18.0005C16.9341 18.044 16.9378 18.088 16.95 18.13C16.9615 18.1722 16.9813 18.2117 17.0082 18.2462C17.0352 18.2806 17.0687 18.3094 17.1068 18.3308C17.145 18.3522 17.187 18.3658 17.2305 18.3708C17.2739 18.3758 17.3179 18.3722 17.36 18.36C18.9223 18.0177 20.3651 17.2652 21.54 16.18C22.0875 15.7167 22.5776 15.1897 23 14.61C23.4406 13.7674 23.7123 12.8468 23.8 11.9C23.9183 11.0146 23.985 10.1231 24 9.23001C24.0448 8.25597 23.9811 7.27996 23.81 6.32002C23.7915 6.12012 23.7291 5.92678 23.627 5.75389C23.525 5.58099 23.386 5.43282 23.22 5.32002C22.6478 5.13521 22.0512 5.03745 21.45 5.03002C20.84 5.00002 20.1 5.00002 19.29 5.00002C18.46 5.14002 18.54 5.39002 19.08 5.69002Z" fill="black"/>
<path fill-rule="evenodd" clip-rule="evenodd" d="M18.4999 1.00001C18.4726 0.895309 18.4213 0.798376 18.3502 0.716826C18.279 0.635276 18.19 0.57133 18.0899 0.530012C17.1051 0.308866 16.0993 0.19487 15.0899 0.190012C12.9999 0.120012 10.3099 0.110012 8.39994 0.170012C7.66061 0.18394 6.92271 0.240702 6.18994 0.340012C5.71994 0.440012 5.62994 0.780012 5.63994 0.900012L6.09994 5.00001L6.16994 5.70001L6.23994 6.29001C5.88994 6.29001 5.51994 6.22001 5.44994 6.57001C5.37994 6.92001 8.89994 7.10001 10.6599 7.19001C13.2599 7.31001 16.2299 7.29001 17.1099 6.84001C17.3136 6.70368 17.4706 6.50825 17.5599 6.28001C17.6586 6.05131 17.7454 5.81766 17.8199 5.58001L17.9999 5.00001C18.2038 4.27018 18.3641 3.52887 18.4799 2.78001C18.6027 2.19367 18.6095 1.58897 18.4999 1.00001ZM16.7899 5.36001C16.6999 5.65001 16.4599 5.92001 16.5199 6.02001C15.1199 6.63001 9.77994 6.47001 7.57994 6.38001H6.91994L6.52994 1.24001C6.76372 1.18667 7.00098 1.14991 7.23994 1.13001C8.70994 1.13001 11.3299 1.13001 13.5999 1.26001C15.3299 1.34001 16.8499 1.41001 17.4499 1.53001V1.59001C17.3816 2.86856 17.16 4.13428 16.7899 5.36001Z" fill="black"/>
<path fill-rule="evenodd" clip-rule="evenodd" d="M14.81 16.51C14.7739 17.6841 14.6299 18.8523 14.38 20C14.3416 20.4202 14.217 20.828 14.014 21.198C13.811 21.5679 13.5338 21.892 13.2 22.15C12.7895 22.3393 12.35 22.4576 11.9 22.5C11.16 22.59 10.42 22.57 9.62996 22.67C8.96712 22.771 8.2928 22.771 7.62996 22.67C6.62996 22.53 5.26996 22.75 4.14996 22.52C3.78788 22.4559 3.4456 22.3087 3.14996 22.09C3.24996 21.95 3.45996 21.76 3.48996 21.68C3.81996 20.97 4.20996 20.3 4.55996 19.6C4.70996 19.29 4.85996 18.98 4.98996 18.66C5.29409 17.9839 5.47687 17.2595 5.52996 16.52C5.23996 16.11 4.97996 15.97 4.80996 16.52C4.62996 17.25 4.39996 18.17 4.30996 18.36L2.65996 21.26C2.46262 21.5079 2.29794 21.7801 2.16996 22.07C2.14351 22.1816 2.14618 22.2982 2.1777 22.4085C2.20921 22.5188 2.26853 22.6192 2.34996 22.7C2.77569 23.1317 3.31764 23.4305 3.90996 23.56C5.03996 23.83 6.40996 23.63 7.46996 23.79C7.84725 23.8479 8.22827 23.8779 8.60996 23.88C8.99524 23.8752 9.37963 23.8418 9.75996 23.78C10.7 23.64 11.57 23.66 12.43 23.47C12.8531 23.3699 13.2603 23.2118 13.64 23C14.3641 22.5108 14.8669 21.7566 15.04 20.9C15.3861 19.4496 15.5441 17.9607 15.51 16.47C15.51 15.83 15 16 14.81 16.51Z" fill="black"/>
<path fill-rule="evenodd" clip-rule="evenodd" d="M16.9999 14.7C16.6659 14.6981 16.3321 14.7148 15.9999 14.75C15.5199 14.8 14.9999 14.88 14.5899 14.93C13.9424 14.9987 13.2908 15.0221 12.6399 15C11.8699 15 11.0899 14.92 10.3199 14.88C9.54994 14.84 8.70994 14.81 7.92994 14.82L4.89994 15H3.89994C3.80994 15 3.32994 14.9 3.13994 15.14C3.11247 15.1852 3.09702 15.2367 3.09506 15.2896C3.0931 15.3424 3.10471 15.3949 3.12876 15.442C3.15282 15.4891 3.18852 15.5293 3.23249 15.5587C3.27645 15.5881 3.32721 15.6058 3.37994 15.61C3.55314 15.6197 3.72674 15.6197 3.89994 15.61L7.89994 15.82C8.54994 15.82 9.21994 15.89 9.89994 15.92C10.5799 15.95 11.2599 15.99 11.8999 15.99C12.8303 15.9885 13.7581 15.8947 14.6699 15.71L16.0499 15.42C16.341 15.3667 16.6348 15.33 16.9299 15.31C17.0089 15.2963 17.0804 15.2552 17.132 15.1939C17.1836 15.1326 17.2118 15.0551 17.2118 14.975C17.2118 14.8949 17.1836 14.8174 17.132 14.7561C17.0804 14.6948 17.0089 14.6537 16.9299 14.64L16.9999 14.7Z" fill="black"/>
</g>
<defs>
<clipPath id="clip0_1030_2524">
<rect width="24" height="24" fill="white"/>
</clipPath>
</defs>
</svg>
