<svg width="24" height="24" viewBox="0 0 24 24" fill="none" xmlns="http://www.w3.org/2000/svg">
<g clip-path="url(#clip0_1050_8271)">
<path fill-rule="evenodd" clip-rule="evenodd" d="M11.55 12.46C11.5304 12.4205 11.5026 12.3857 11.4685 12.3578C11.4344 12.3299 11.3947 12.3095 11.3521 12.2982C11.3095 12.2868 11.265 12.2847 11.2215 12.2919C11.1781 12.2991 11.1366 12.3155 11.1 12.34C10.54 12.59 11.75 17.91 11.95 18.19C11.979 18.2444 12.0222 18.2898 12.075 18.3215C12.1279 18.3532 12.1884 18.37 12.25 18.37C12.3116 18.37 12.3721 18.3532 12.4249 18.3215C12.4777 18.2898 12.521 18.2444 12.55 18.19C12.81 17.67 12 13.09 11.55 12.46Z" fill="black"/>
<path fill-rule="evenodd" clip-rule="evenodd" d="M14.64 12.44C14.39 12.37 14.27 12.52 14.2 12.78C14 13.58 14.92 15.5 15.58 16.91C15.58 16.9975 15.6147 17.0815 15.6766 17.1433C15.7385 17.2052 15.8225 17.24 15.91 17.24C17 17.24 14.91 12.48 14.64 12.44Z" fill="black"/>
<path fill-rule="evenodd" clip-rule="evenodd" d="M23.22 16.79C22.6711 15.7874 21.9694 14.8765 21.14 14.09C19.69 12.84 19.44 14.09 19.98 14.19C20.52 14.29 21.22 15.19 21.59 15.7C22.43 16.8 23.18 17.92 22.13 19.4C21.2681 20.4301 20.1407 21.2048 18.87 21.64C16.8146 22.3246 14.6661 22.6888 12.5 22.72C9.64999 22.91 6.10999 23.14 3.49999 21.85C0.889988 20.56 0.799988 17.78 2.45999 15.42C2.79129 14.8239 3.26119 14.3163 3.82999 13.94C3.87125 13.9223 3.90784 13.8952 3.93685 13.8609C3.96587 13.8266 3.98652 13.7861 3.99719 13.7424C4.00785 13.6988 4.00824 13.6533 3.99831 13.6095C3.98838 13.5657 3.96842 13.5248 3.93999 13.49C5.71999 13.65 8.06999 10.4 14.88 11.19C18.65 11.63 17.95 12.92 19.09 13.36C19.5681 13.5131 20.0843 13.4974 20.5522 13.3153C21.02 13.1333 21.4111 12.796 21.66 12.36C21.7244 11.9889 21.7058 11.608 21.6055 11.2449C21.5053 10.8818 21.3258 10.5455 21.08 10.26C20.6421 9.51886 20.0521 8.87897 19.3488 8.38255C18.6455 7.88612 17.845 7.54442 17 7.38C17.57 6.78 15.84 2.38 15 1.54C11.84 -1.56 5.99999 0.340001 4.99999 4.42C4.76876 5.35837 4.66781 6.3241 4.69999 7.29V8.9C4.69999 9.31 4.84999 9 4.34999 9.28C2.90999 10.08 1.70999 12.85 3.50999 13.42C2.85493 13.8038 2.30789 14.3474 1.91999 15C-0.0800122 17.66 -0.0800123 21 3.06999 22.71C5.94999 24.26 9.34999 24.04 12.57 23.84C14.8568 23.799 17.1196 23.3661 19.26 22.56C21.85 21.47 24.26 19.41 23.22 16.79ZM5.81999 4.67C6.89999 1.33 11.82 -0.0299997 14.38 2.26C15.4498 3.69443 16.138 5.37698 16.38 7.15C16.3811 7.207 16.3985 7.2625 16.43 7.31C12.7385 7.12223 9.04397 7.61371 5.52999 8.76C5.53337 8.26742 5.49322 7.77551 5.40999 7.29C5.42694 6.40209 5.56488 5.52064 5.81999 4.67ZM4.71999 9.88C6.3104 9.19901 7.99738 8.77051 9.71999 8.61C11.8816 8.22624 14.0861 8.14547 16.27 8.37C19.27 8.64 20.77 11.59 20.63 11.99C20.58 12.14 20.38 12.2 20.19 12.25C18.65 12.73 19.87 10.59 15.03 10.15C13.1054 9.99361 11.1691 10.0607 9.25999 10.35C8.53989 10.4902 7.84748 10.7469 7.20999 11.11C6.53999 11.52 4.68999 13.31 3.64999 12.66C2.90999 12.23 3.63999 10.43 4.71999 9.88Z" fill="black"/>
<path fill-rule="evenodd" clip-rule="evenodd" d="M6.73999 17.11C6.74428 17.1941 6.77375 17.275 6.82458 17.3421C6.8754 17.4092 6.94524 17.4596 7.02502 17.4865C7.1048 17.5135 7.19084 17.5158 7.27197 17.4933C7.3531 17.4707 7.42558 17.4243 7.47999 17.36C7.69999 16.84 8.47999 15.05 9.07999 13.69C9.35999 12.74 8.29999 12.69 7.83999 13.79C7.44383 14.4771 7.16024 15.2232 6.99999 16C6.86077 16.3557 6.77321 16.7295 6.73999 17.11Z" fill="black"/>
</g>
<defs>
<clipPath id="clip0_1050_8271">
<rect width="24" height="24" fill="white"/>
</clipPath>
</defs>
</svg>
