<svg width="24" height="24" viewBox="0 0 24 24" fill="none" xmlns="http://www.w3.org/2000/svg">
<g clip-path="url(#clip0_1034_4478)">
<path fill-rule="evenodd" clip-rule="evenodd" d="M23.62 5.50001C23.5 4.34001 23.55 2.00001 22.71 1.35001C20.79 -0.129992 16.56 0.260008 13.9 0.150008C10.39 7.689e-06 6.76 0.280008 3.29 0.370008C3.19983 0.370008 3.11335 0.405829 3.04959 0.469591C2.98582 0.533354 2.95 0.619834 2.95 0.710008C2.95 0.800181 2.98582 0.886662 3.04959 0.950424C3.11335 1.01419 3.19983 1.05001 3.29 1.05001C6.78 1.00001 10.38 0.780008 13.86 1.00001C16.3 1.14001 20.52 0.870008 22.11 2.14001C22.51 2.46001 22.52 4.81001 22.6 5.63001C22.9449 8.53828 22.975 11.4753 22.69 14.39C22.6481 15.3671 22.4972 16.3364 22.24 17.28C20.24 18.39 7.24 19.4 2.8 18.35C1.43 18.03 1.48 17.95 1.26 16.52C1.67486 16.4651 2.09515 16.4651 2.51 16.52C10.3 16.52 9.13 16.52 12.84 16.42C20.66 16.17 20.69 16.65 20.84 16.32C20.93 16.15 20.96 15.88 20.78 15.78C20.73 15.78 20.1 15.71 16.57 15.46C11.9001 15.2398 7.22036 15.3702 2.57 15.85C2.12174 15.8229 1.67186 15.8498 1.23 15.93C0.873774 13.4939 0.743219 11.0301 0.840002 8.57001C1 6.84001 1 5.11001 1.26 3.39001C1.24857 2.75748 1.31575 2.12598 1.46 1.51001C1.48758 1.4798 1.50894 1.44446 1.52286 1.40601C1.53678 1.36755 1.54299 1.32672 1.54113 1.28587C1.53927 1.24501 1.52938 1.20492 1.51203 1.16788C1.49468 1.13084 1.47021 1.09759 1.44 1.07001C1.4098 1.04243 1.37446 1.02107 1.336 1.00715C1.29754 0.993232 1.25672 0.987024 1.21586 0.988881C1.175 0.990738 1.13491 1.00062 1.09787 1.01798C1.06084 1.03533 1.02758 1.0598 1 1.09001C0.630002 1.50001 0.710002 2.83001 0.630002 3.30001C0.370002 5.00001 0.310002 6.77001 0.110002 8.49001C-0.249998 11.69 0.350002 17.49 0.760002 18.23C1.59 19.76 7.14 19.82 8.91 19.84C8.47985 20.7956 8.30746 21.8471 8.41 22.89L6.52 23.05C6.44044 23.05 6.36413 23.0816 6.30787 23.1379C6.25161 23.1941 6.22 23.2704 6.22 23.35C6.22 23.4296 6.25161 23.5059 6.30787 23.5621C6.36413 23.6184 6.44044 23.65 6.52 23.65C9.44908 23.9337 12.3979 23.9504 15.33 23.7C15.3771 23.7272 15.4306 23.7415 15.485 23.7415C15.5394 23.7415 15.5929 23.7272 15.64 23.7L17.33 23.52C17.3747 23.5167 17.4182 23.5047 17.4582 23.4846C17.4982 23.4644 17.5338 23.4366 17.5631 23.4027C17.5923 23.3689 17.6146 23.3295 17.6287 23.287C17.6427 23.2445 17.6483 23.1997 17.645 23.155C17.6417 23.1104 17.6297 23.0668 17.6096 23.0268C17.5894 22.9868 17.5616 22.9512 17.5277 22.9219C17.4938 22.8927 17.4545 22.8704 17.412 22.8563C17.3695 22.8423 17.3247 22.8367 17.28 22.84H15.71C15.6358 21.7386 15.3684 20.6588 14.92 19.65C16.3 19.55 22.44 19.09 23.17 17.92C23.5702 16.8376 23.7799 15.694 23.79 14.54C24.0906 11.5305 24.0335 8.49605 23.62 5.50001ZM14.84 22.79C12.16 22.74 11.1 22.72 9.13 22.84C9.5124 21.8808 9.74838 20.8694 9.83 19.84C11.23 19.84 12.68 19.77 14.09 19.68C14.1428 20.7545 14.3972 21.8095 14.84 22.79Z" fill="black"/>
<path fill-rule="evenodd" clip-rule="evenodd" d="M5.34 7.23C5.34 7.09 5.5 6.31 5.56 5.44C5.58993 4.5918 5.52283 3.74296 5.36 2.91C5.36 2.73 4.86 2.46 4.73 3.02C4.3552 4.41242 4.33115 5.87601 4.66 7.28C4.66663 7.37017 4.70881 7.45402 4.77726 7.51309C4.84571 7.57217 4.93483 7.60163 5.025 7.595C5.11518 7.58837 5.19902 7.54619 5.2581 7.47774C5.31717 7.40929 5.34663 7.32017 5.34 7.23Z" fill="black"/>
<path fill-rule="evenodd" clip-rule="evenodd" d="M9.24 3.34002C9.27459 3.35878 9.31263 3.3703 9.35181 3.3739C9.39099 3.37749 9.4305 3.37307 9.46792 3.36091C9.50534 3.34874 9.53989 3.3291 9.56947 3.30316C9.59906 3.27721 9.62306 3.24553 9.64 3.21002C9.85 2.81002 9.19 2.58002 8.73 2.75002C7.85 3.07002 6.92 5.31002 7 6.44002C7.17 8.49002 10 8.33002 10.9 6.12002C11.8 3.91002 10.03 2.62002 9.68 3.28002C9.65899 3.31941 9.64594 3.36256 9.64161 3.407C9.63727 3.45144 9.64173 3.4963 9.65473 3.53901C9.66773 3.58173 9.68902 3.62146 9.71738 3.65595C9.74573 3.69044 9.78061 3.719 9.82 3.74002C10.99 4.40002 9.82 7.05002 8.39 6.74002C7.61 6.52002 8.52 3.00002 9.24 3.34002Z" fill="black"/>
<path fill-rule="evenodd" clip-rule="evenodd" d="M13.22 2.6C13.08 2.39 12.7 2.36 12.59 2.82C12.5321 3.73317 12.5488 4.64955 12.64 5.56C12.71 6.17 12.84 6.75 12.91 7.35C12.91 7.44017 12.9458 7.52665 13.0096 7.59042C13.0733 7.65418 13.1598 7.69 13.25 7.69C13.3402 7.69 13.4267 7.65418 13.4904 7.59042C13.5542 7.52665 13.59 7.44017 13.59 7.35C13.6789 6.73357 13.7323 6.11255 13.75 5.49C13.7396 4.50347 13.5604 3.52601 13.22 2.6Z" fill="black"/>
<path fill-rule="evenodd" clip-rule="evenodd" d="M16.58 3.71001C16.91 3.02001 17.1 2.57001 17.74 3.14001C17.7988 3.18213 17.8708 3.2016 17.9428 3.19483C18.0148 3.18806 18.0819 3.15551 18.1318 3.10317C18.1818 3.05083 18.2111 2.98222 18.2144 2.90998C18.2177 2.83774 18.1949 2.76673 18.15 2.71001C17.21 1.78001 16.51 2.22001 15.84 3.30001C14.98 4.67001 14.32 6.30001 15.5 7.43001C17.04 8.80001 19.22 7.43001 19.7 5.68001C19.9061 5.25925 19.9579 4.77949 19.8464 4.32442C19.7349 3.86936 19.4672 3.46788 19.09 3.19001C19.0265 3.13068 18.9426 3.09794 18.8557 3.09852C18.7687 3.0991 18.6853 3.13296 18.6226 3.19314C18.5599 3.25332 18.5226 3.33525 18.5184 3.42208C18.5141 3.50891 18.5434 3.59406 18.6 3.66001C19.21 4.33001 19.18 4.55001 18.86 5.41001C18.12 7.38001 14.61 7.78001 16.58 3.71001Z" fill="black"/>
<path fill-rule="evenodd" clip-rule="evenodd" d="M4.23 14.27C6.58 15.5 8.23 11.4 6.58 9.94C6.34077 9.73158 6.04622 9.59702 5.73206 9.55265C5.41789 9.50827 5.09759 9.55599 4.81 9.69C3.59 10.44 2.54 13.38 4.23 14.27ZM5.23 10.27C5.47 10.07 6.31 10.27 6.37 11.13C6.43 11.99 5.67 13.73 4.74 13.22C4.06 12.9 4.62 10.81 5.25 10.31L5.23 10.27Z" fill="black"/>
<path fill-rule="evenodd" clip-rule="evenodd" d="M9.55 9.24002C9.51622 9.20171 9.47467 9.17103 9.42812 9.15002C9.38157 9.129 9.33108 9.11813 9.28 9.11813C9.22893 9.11813 9.17844 9.129 9.13188 9.15002C9.08533 9.17103 9.04378 9.20171 9.01 9.24002C8.88 9.34002 8.85 9.85002 8.83 10.04C8.65578 10.9484 8.65578 11.8816 8.83 12.79C8.83 13.07 8.83 14.09 9.38 14.02C9.93 13.95 9.76 13.55 9.83 11.94C9.84618 11.032 9.75216 10.1254 9.55 9.24002Z" fill="black"/>
<path fill-rule="evenodd" clip-rule="evenodd" d="M11.59 13.45C12.05 14.51 13.59 14.73 14.59 13.45C15.81 11.95 15.4 9.88001 14.71 10.21C14.6295 10.2489 14.5676 10.318 14.5377 10.4022C14.5077 10.4864 14.5122 10.579 14.55 10.66C14.6271 10.979 14.6283 11.3116 14.5536 11.6311C14.479 11.9506 14.3305 12.2482 14.12 12.5C13.66 13.15 12.84 13.5 12.63 12.87C12.479 12.0973 12.479 11.3027 12.63 10.53C12.94 9.45001 13.47 9.85001 13.99 10C14.0274 10.0125 14.0669 10.0175 14.1063 10.0147C14.1456 10.0119 14.1841 10.0014 14.2194 9.98371C14.2546 9.96606 14.2861 9.94164 14.312 9.91184C14.3378 9.88204 14.3575 9.84743 14.37 9.81001C14.3825 9.77258 14.3875 9.73306 14.3847 9.69371C14.3819 9.65436 14.3713 9.61594 14.3537 9.58066C14.3361 9.54537 14.3116 9.5139 14.2818 9.48806C14.252 9.46221 14.2174 9.44248 14.18 9.43001C13.77 9.27001 13.54 8.97001 12.92 9.11001C11.39 9.48001 11.14 12.43 11.59 13.45Z" fill="black"/>
<path fill-rule="evenodd" clip-rule="evenodd" d="M18.34 11.56C18.2257 10.8804 18.0551 10.2114 17.83 9.56C17.62 9.46 17.49 9.56 17.38 9.78C17.3451 9.92459 17.3217 10.0717 17.31 10.22C17.0778 11.5138 17.2094 12.8466 17.69 14.07C18.1 14.41 18.49 13.96 18.25 13.65C18.31 13.65 18.25 13.47 18.25 13.44C18.3456 12.8182 18.3758 12.1881 18.34 11.56Z" fill="black"/>
</g>
<defs>
<clipPath id="clip0_1034_4478">
<rect width="24" height="24" fill="white"/>
</clipPath>
</defs>
</svg>
