<svg width="24" height="24" viewBox="0 0 24 24" fill="none" xmlns="http://www.w3.org/2000/svg">
<g clip-path="url(#clip0_1034_4389)">
<path fill-rule="evenodd" clip-rule="evenodd" d="M22.42 13.0001C22.42 12.5501 22.42 12.2201 22.37 12.0601C22.3592 11.8909 22.2892 11.731 22.1721 11.6084C22.055 11.4859 21.8985 11.4085 21.73 11.3901C21.09 11.3901 20.33 11.3301 19.73 11.3901C19.3455 11.4098 18.973 11.5305 18.65 11.74C18.5765 11.7908 18.5157 11.8577 18.4723 11.9358C18.429 12.0138 18.4042 12.1009 18.4 12.19V14.0901C17.5875 14.2302 16.7592 14.2538 15.94 14.16L15.7 14.11C15.6293 13.0179 15.6293 11.9222 15.7 10.8301C15.7078 10.6262 15.6773 10.4227 15.61 10.23C15.5626 10.1416 15.4918 10.0678 15.4054 10.0167C15.3191 9.96559 15.2204 9.93908 15.12 9.94005C14.8536 9.92428 14.5864 9.92428 14.32 9.94005H6.58C6.52796 9.93736 6.4759 9.94513 6.42692 9.9629C6.37793 9.98067 6.333 10.0081 6.29478 10.0435C6.25656 10.0789 6.22582 10.1216 6.20439 10.1691C6.18296 10.2166 6.17127 10.268 6.17 10.32V11.5401V13.0301C5.7 13.0301 4.85 13.1401 4.03 13.1701C3.49064 13.2073 2.94936 13.2073 2.41 13.1701C2.35965 13.1651 2.30883 13.1706 2.26067 13.186C2.21251 13.2015 2.16804 13.2267 2.13 13.2601C2.09049 13.2919 2.05776 13.3312 2.03371 13.3759C2.00967 13.4205 1.9948 13.4696 1.99 13.5201C1.92 14.3701 1.88 15.36 1.85 16.31C1.78 18.31 1.79 20.1101 1.79 20.4901C1.79 20.6301 1.72 21.7301 1.79 22.38C1.78576 22.5919 1.82313 22.8026 1.9 23.0001C1.99141 23.1073 2.10833 23.1898 2.24 23.2401C2.67784 23.3652 3.12648 23.4489 3.58 23.4901C7.70468 23.9275 11.8533 24.0979 16 24.0001C17.8524 24.0233 19.6983 23.7774 21.48 23.2701C21.6661 23.2046 21.8348 23.0976 21.9734 22.9573C22.112 22.8169 22.2168 22.6469 22.28 22.46C22.64 21.05 22.52 15.3601 22.42 13.0001ZM20.19 22.3C18.1546 22.6103 16.0989 22.7674 14.04 22.7701C10.5242 22.8702 7.00553 22.7767 3.5 22.4901C3.18 22.4901 2.88 22.3201 2.71 22.3V20.4001C2.71 20.0301 2.65 18.1901 2.71 16.2501C2.71 15.4401 2.71 14.6101 2.77 13.8701H4.11C7.58 13.6701 6.98 14.18 6.98 10.73C9.54 10.78 12.78 10.8401 14.29 10.8901H14.72V11.0001C14.72 11.5601 14.61 12.4201 14.61 13.2801C14.6087 13.7117 14.6388 14.1428 14.7 14.57C14.7332 14.7019 14.8021 14.8221 14.8991 14.9173C14.9962 15.0126 15.1176 15.0793 15.25 15.11C16.0018 15.2731 16.7716 15.337 17.54 15.3001C18.1276 15.3215 18.7115 15.1978 19.24 14.94C19.3305 14.8707 19.4038 14.7814 19.4541 14.679C19.5044 14.5767 19.5304 14.4641 19.53 14.3501L19.58 12.6001C19.7563 12.584 19.9337 12.584 20.11 12.6001H21.22V13.0501C21.54 24.0001 21.13 22.0901 20.19 22.2901V22.3Z" fill="black"/>
<path fill-rule="evenodd" clip-rule="evenodd" d="M13.08 7.21002C13.0882 7.27396 13.1154 7.33395 13.1583 7.38213C13.2011 7.43031 13.2575 7.46443 13.32 7.48002C13.32 7.48002 13.24 7.57002 13.24 7.64002C13.2284 7.72729 13.2511 7.81566 13.3033 7.88653C13.3555 7.9574 13.4332 8.00526 13.52 8.02002C13.8677 8.18439 14.2291 8.31822 14.6 8.42002C14.7602 8.46018 14.9248 8.48034 15.09 8.48002C15.2532 8.49027 15.4168 8.49027 15.58 8.48002C15.9211 8.42658 16.2561 8.33949 16.58 8.22002C16.6142 8.25842 16.6557 8.28968 16.702 8.31199C16.7484 8.3343 16.7986 8.34723 16.85 8.35002C16.8994 8.35411 16.9491 8.34822 16.9962 8.33271C17.0433 8.3172 17.0868 8.29238 17.1241 8.25973C17.1614 8.22709 17.1918 8.18727 17.2134 8.14266C17.2351 8.09804 17.2475 8.04954 17.25 8.00002L17.38 6.40002C17.3836 6.35677 17.3836 6.31328 17.38 6.27002C17.54 6.27002 17.72 6.34002 17.91 6.38002C18.2999 6.47248 18.6993 6.51946 19.1 6.52002C19.4152 6.50473 19.7154 6.3811 19.95 6.17002C20.0541 6.06546 20.1269 5.93382 20.16 5.79002C20.1896 5.48407 20.1896 5.17597 20.16 4.87002C20.1738 4.39152 20.12 3.91345 20 3.45002C19.9631 3.27353 19.8862 3.10785 19.7752 2.9657C19.6643 2.82355 19.5222 2.70872 19.36 2.63002C19.1416 2.53915 18.9065 2.49487 18.67 2.50002C18.3345 2.51266 18.0003 2.54942 17.67 2.61002H17.31C17.19 2.61002 17.21 2.31002 17.2 2.28002C17.13 1.87002 17.2 1.28002 17.15 0.810024C17 -0.00997639 17.04 -0.189976 14.67 0.0600236C14.1981 0.102228 13.7492 0.28316 13.38 0.580024C13.2314 0.707709 13.1207 0.873744 13.06 1.06002C12.9812 1.31707 12.9309 1.58199 12.91 1.85002C12.8448 2.28401 12.8047 2.72141 12.79 3.16002V4.45002L12.84 5.58002L13.08 7.21002ZM13.84 5.61002L14 4.54002L14.22 2.00002V1.45002C14.3982 1.25653 14.6325 1.12365 14.89 1.07002C15.3983 0.981226 15.9158 0.957703 16.43 1.00002C16.43 1.49002 16.28 2.00002 16.31 2.46002V3.15002C16.3199 3.24629 16.3546 3.33834 16.4107 3.41721C16.4668 3.49607 16.5423 3.55906 16.63 3.60002C16.8261 3.68975 17.0355 3.74716 17.25 3.77002C17.6396 3.79507 18.0304 3.79507 18.42 3.77002C19.19 3.77002 18.83 3.89002 18.83 4.84002C18.83 4.90002 18.92 5.16002 18.93 5.34002C18.7884 5.37121 18.6416 5.37121 18.5 5.34002C18.15 5.34002 17.76 5.26002 17.43 5.26002C17.1824 5.24324 16.934 5.27727 16.7 5.36002C16.6079 5.40206 16.5297 5.4696 16.4748 5.55467C16.4198 5.63974 16.3904 5.73876 16.39 5.84002V6.35002V7.35002C16.09 7.35002 15.79 7.26002 15.48 7.22002C15.2436 7.20514 15.0064 7.20514 14.77 7.22002C14.37 7.22002 14.01 7.33002 13.62 7.37002C13.6604 7.32279 13.6818 7.26218 13.68 7.20002L13.84 5.61002Z" fill="black"/>
<path fill-rule="evenodd" clip-rule="evenodd" d="M7 19.3C6.75 19.13 6.46 18.98 6.19 18.8L6 18.62C6.23 18.46 6.49 18.32 6.68 18.2L9.68 16.47C9.72071 16.4491 9.75677 16.4201 9.786 16.3848C9.81524 16.3496 9.83705 16.3088 9.85012 16.2649C9.8632 16.221 9.86727 16.1749 9.86209 16.1294C9.85692 16.0839 9.8426 16.0399 9.82 16C9.78128 15.9221 9.71331 15.8625 9.63089 15.8344C9.54848 15.8063 9.45829 15.8119 9.38 15.85C8.61 16.13 7.83 16.35 7.07 16.64C6.72767 16.7692 6.39369 16.9195 6.07 17.09C5.79296 17.2321 5.5257 17.3924 5.27 17.57C5.05559 17.7194 4.86937 17.9056 4.72 18.12C4.62114 18.2593 4.57831 18.4307 4.6 18.6C4.68863 18.846 4.817 19.0757 4.98 19.28C5.12834 19.4292 5.2966 19.5571 5.48 19.66C5.81 19.85 6.19 19.97 6.48 20.13L7.75 20.82C7.84415 20.8572 7.9492 20.8554 8.04203 20.8151C8.13486 20.7747 8.20787 20.6992 8.245 20.605C8.28213 20.5109 8.28034 20.4059 8.24002 20.313C8.1997 20.2202 8.12415 20.1472 8.03 20.11L7 19.3Z" fill="black"/>
<path fill-rule="evenodd" clip-rule="evenodd" d="M13.08 14.77C13.1232 14.6917 13.1338 14.5994 13.1095 14.5133C13.0851 14.4272 13.0278 14.3542 12.95 14.31C12.912 14.2888 12.8701 14.2754 12.8268 14.2705C12.7836 14.2656 12.7398 14.2693 12.6979 14.2813C12.6561 14.2934 12.6171 14.3137 12.5831 14.3409C12.5491 14.3681 12.5209 14.4018 12.5 14.44L11.27 16.65C11 17.24 10.67 17.81 10.4 18.41C10.015 19.3343 9.68117 20.2791 9.4 21.24C9.38096 21.2866 9.37129 21.3366 9.37153 21.3869C9.37178 21.4373 9.38195 21.4871 9.40145 21.5335C9.42095 21.5799 9.4494 21.6221 9.48518 21.6575C9.52097 21.6929 9.56338 21.721 9.61 21.74C9.65662 21.7591 9.70653 21.7687 9.75689 21.7685C9.80725 21.7682 9.85706 21.7581 9.90349 21.7386C9.94992 21.7191 9.99205 21.6906 10.0275 21.6548C10.0629 21.6191 10.091 21.5766 10.11 21.53C10.62 20.53 11.27 19.53 11.8 18.53C12.03 18.08 12.21 17.61 12.41 17.14C12.61 16.67 12.7 16.01 12.88 15.44C12.9287 15.2117 12.9956 14.9877 13.08 14.77Z" fill="black"/>
<path fill-rule="evenodd" clip-rule="evenodd" d="M16.48 18.05L14.42 16.79C14.3833 16.766 14.3423 16.7495 14.2992 16.7415C14.2561 16.7336 14.2119 16.7342 14.169 16.7436C14.1262 16.7529 14.0857 16.7706 14.0498 16.7958C14.0139 16.8209 13.9834 16.8529 13.96 16.89C13.9141 16.9648 13.8989 17.0544 13.9175 17.1401C13.9362 17.2258 13.9872 17.301 14.06 17.35L15.7 18.94L15.28 19.21C14.72 19.57 14.13 19.9 13.57 20.28C13.3172 20.4533 13.0766 20.6437 12.85 20.85C12.8106 20.8809 12.7777 20.9192 12.7531 20.9628C12.7285 21.0064 12.7127 21.0544 12.7067 21.104C12.7007 21.1537 12.7045 21.2041 12.7179 21.2523C12.7313 21.3005 12.7541 21.3456 12.785 21.385C12.8159 21.4244 12.8542 21.4573 12.8978 21.4819C12.9414 21.5065 12.9894 21.5223 13.039 21.5283C13.0887 21.5343 13.1391 21.5305 13.1873 21.5171C13.2355 21.5037 13.2806 21.4809 13.32 21.45C13.5465 21.3023 13.7839 21.172 14.03 21.06C14.63 20.78 15.28 20.56 15.88 20.3C16.2042 20.1496 16.5153 19.9723 16.81 19.77C16.9948 19.6288 17.1452 19.4476 17.25 19.24C17.3114 19.102 17.325 18.9474 17.2888 18.8007C17.2526 18.6541 17.1686 18.5236 17.05 18.43C16.8681 18.2917 16.6777 18.1647 16.48 18.05Z" fill="black"/>
<path fill-rule="evenodd" clip-rule="evenodd" d="M3.58 8.63004C3.88616 8.65505 4.19384 8.65505 4.5 8.63004C4.96 8.63004 5.4 8.50004 5.85 8.47004C5.93697 8.4725 6.02215 8.44505 6.09131 8.39227C6.16047 8.33949 6.20943 8.26457 6.23 8.18004C6.23 8.18004 6.23 8.23004 6.32 8.23004C6.36941 8.23702 6.41971 8.23394 6.4679 8.22098C6.51608 8.20802 6.56115 8.18544 6.60038 8.15462C6.63962 8.12379 6.67221 8.08534 6.69621 8.04159C6.7202 7.99784 6.7351 7.94969 6.74 7.90004C6.86719 7.18549 6.95399 6.46435 7 5.74004C7.05019 5.23795 7.05019 4.73212 7 4.23004C6.96802 3.86977 6.8838 3.51606 6.75 3.18004C6.62824 2.90426 6.44324 2.66103 6.21 2.47004C6.06347 2.3639 5.89668 2.28901 5.72 2.25004C5.34 2.16004 4.72 2.14004 4.56 2.11004C3.96347 1.97383 3.34859 1.93667 2.74 2.00004C2.54149 2.02358 2.35007 2.0882 2.1779 2.18978C2.00573 2.29136 1.8566 2.42767 1.74 2.59004C1.62923 2.78953 1.55156 3.00567 1.51 3.23004C1.48633 3.60633 1.48633 3.98374 1.51 4.36004L1.56 8.00004C1.56 8.00004 1.26 8.33004 3.58 8.63004ZM2.58 4.40004C2.58 4.20004 2.58 3.93004 2.65 3.67004C2.66138 3.52065 2.70947 3.37638 2.79 3.25004C2.79 3.25004 2.86 3.25004 2.9 3.25004C3.02979 3.23954 3.16021 3.23954 3.29 3.25004C3.69 3.25004 4.1 3.38004 4.35 3.42004C5 3.51004 5.55 2.82004 5.93 4.42004C6.02052 4.85448 6.07073 5.29636 6.08 5.74004C6.08 6.42004 6.08 7.10004 6.01 7.74004H5.93C5.47 7.60004 5 7.49004 4.57 7.42004L4 7.37004C3.81363 7.35504 3.62637 7.35504 3.44 7.37004C3.03 7.37004 2.66 7.48004 2.26 7.50004C2.26 7.06004 2.26 6.62004 2.35 6.17004C2.44 5.72004 2.47 5.00004 2.56 4.40004H2.58Z" fill="black"/>
</g>
<defs>
<clipPath id="clip0_1034_4389">
<rect width="24" height="24" fill="white"/>
</clipPath>
</defs>
</svg>
