<svg width="24" height="24" viewBox="0 0 24 24" fill="none" xmlns="http://www.w3.org/2000/svg">
<g clip-path="url(#clip0_1034_4466)">
<path fill-rule="evenodd" clip-rule="evenodd" d="M24 4.2C23.9 3.83 23.89 3.46 23.79 3.08C23.7552 2.92212 23.7049 2.76805 23.64 2.62C23.5775 2.45998 23.5005 2.306 23.41 2.16C23.1955 1.80146 22.9441 1.46631 22.66 1.16C22.6049 1.07733 22.5196 1.01952 22.4224 0.998959C22.3252 0.978399 22.2239 0.996719 22.14 1.05C22.0986 1.07556 22.0626 1.10904 22.0342 1.14853C22.0057 1.18801 21.9853 1.23272 21.9742 1.2801C21.963 1.32747 21.9613 1.37658 21.9692 1.42461C21.9771 1.47264 21.9943 1.51865 22.02 1.56C22.1398 1.91759 22.24 2.28146 22.32 2.65C22.3879 2.90233 22.4818 3.14697 22.6 3.38C22.6952 3.54029 22.8057 3.69099 22.93 3.83L19.07 3.5C17.07 3.43 15.15 3.35 13.18 3.36C11.21 3.37 9.24 3.47 7.29 3.56L0.890001 4.1C1.09388 3.83751 1.27773 3.56006 1.44 3.27C1.57184 3.01846 1.68546 2.75779 1.78 2.49C1.92 2.08 2.01 1.67 2.17 1.26V1.17C4.58 1.25 7.01 1.4 9.44 1.45H14.44L21.1 1.32C21.1544 1.32891 21.21 1.32588 21.2631 1.31114C21.3162 1.29639 21.3655 1.27028 21.4075 1.23461C21.4495 1.19893 21.4832 1.15455 21.5063 1.10455C21.5295 1.05454 21.5414 1.0001 21.5414 0.944997C21.5414 0.889897 21.5295 0.835456 21.5063 0.785447C21.4832 0.735439 21.4495 0.69106 21.4075 0.655387C21.3655 0.619714 21.3162 0.5936 21.2631 0.578855C21.21 0.564111 21.1544 0.561088 21.1 0.569997L14.5 0.269997C12.83 0.269997 11.15 0.189997 9.5 0.209997C7 0.229997 4.43 0.379997 1.92 0.489997C1.83422 0.492597 1.75283 0.52851 1.69309 0.590117C1.63335 0.651725 1.59996 0.734181 1.6 0.819997C1.6 0.819997 1.54 0.819997 1.53 0.869997C1.23327 1.2046 0.959325 1.55873 0.710001 1.93C0.610247 2.09121 0.52009 2.25817 0.440001 2.43C0.356506 2.61367 0.289573 2.80442 0.240001 3C0.135562 3.41497 0.0554254 3.83569 1.41235e-06 4.26C1.41235e-06 4.26 -0.109999 4 0.580001 7.66C1 9.83 1.63 12 2 14.15L2.58 17C2.62335 17.2767 2.68346 17.5506 2.76 17.82C2.79701 17.9632 2.86532 18.0964 2.96 18.21C3.20315 18.4845 3.47466 18.7326 3.77 18.95C4.39 19.42 5.12 19.81 5.71 20.22C6.79 20.97 7.91 21.78 9.08 22.49C9.86259 22.9761 10.6817 23.4007 11.53 23.76C11.53 23.76 12.42 23.76 12.45 23.76C13.2983 23.4007 14.1174 22.9761 14.9 22.49C16.06 21.78 17.19 20.97 18.27 20.22C18.86 19.81 19.59 19.42 20.21 18.95C20.5032 18.73 20.7745 18.4822 21.02 18.21C21.1147 18.0964 21.183 17.9632 21.22 17.82C21.2965 17.5506 21.3567 17.2767 21.4 17L22 14.15C22.39 11.97 23 9.83 23.44 7.66C23.45 7.37 24 4.22 24 4.2ZM22.57 7.47C22.01 9.63 21.25 11.73 20.74 13.9L20.17 16.72C20.17 16.88 20.23 17.57 20.02 17.48C19.779 17.7537 19.5072 17.9987 19.21 18.21C18.67 18.62 18.1 18.98 17.61 19.36C16.61 20.15 15.53 21.02 14.41 21.78C11.83 23.54 12.25 23.61 9.57 21.78C8.45 21.02 7.39 20.15 6.37 19.36C5.88 18.98 5.31 18.62 4.77 18.21C3.46 17.21 3.91 17.21 3.77 16.73L3.24 13.9C2.73 11.73 2 9.63 1.41 7.47C1.17879 6.59507 1.00179 5.70672 0.880001 4.81L7.34 4.71L19.05 4.5L23.16 4.63V4.71C23.0195 5.64111 22.8224 6.56281 22.57 7.47Z" fill="black"/>
<path fill-rule="evenodd" clip-rule="evenodd" d="M16.56 6.68001C15.56 6.62001 14.56 6.50001 13.56 6.45001H12.3H11.01C10.01 6.51001 9.01 6.62001 8.01 6.74001L8 6.79001C7.95776 6.78141 7.9142 6.78172 7.87209 6.7909C7.82997 6.80009 7.79024 6.81796 7.75542 6.84337C7.7206 6.86877 7.69146 6.90116 7.66987 6.93847C7.64827 6.97577 7.6347 7.01717 7.63 7.06001C7.43379 7.58952 7.27016 8.13053 7.14 8.68001C7.05323 9.15827 7.03304 9.64622 7.08 10.13C7.24 12.21 7.62 12.13 7.79 12.13C7.8417 12.129 7.89258 12.1169 7.93917 12.0944C7.98576 12.072 8.02697 12.0398 8.06 12C8.47 12 8.88 11.94 9.3 11.93H11.3H13.3L15.5 12.04C15.14 15.56 15.5 14.96 14.99 15.4C14.48 15.84 14.17 16.04 13.87 16.31L11.96 18.39L10.54 17.58C10.04 17.28 9.54 16.98 9.07 16.64L8.46 16.24C8.28282 16.1725 8.12488 16.0627 8 15.92C7.99458 15.8635 7.99458 15.8065 8 15.75C8 15.57 7.92 15.38 7.88 15.22L7.56 13.46C7.56 13.3725 7.52523 13.2886 7.46335 13.2267C7.40146 13.1648 7.31752 13.13 7.23 13.13C7.14248 13.13 7.05854 13.1648 6.99666 13.2267C6.93477 13.2886 6.9 13.3725 6.9 13.46V15.35C6.88559 15.5898 6.88559 15.8302 6.9 16.07C6.91523 16.2148 6.95232 16.3564 7.01 16.49C7.1462 16.7483 7.32932 16.9789 7.55 17.17C7.81988 17.3793 8.10389 17.5698 8.4 17.74C8.84 17.98 9.29 18.2 9.74 18.4C10.42 18.69 11.11 18.93 11.79 19.19C11.8581 19.2161 11.9324 19.2215 12.0036 19.2055C12.0748 19.1895 12.1396 19.1528 12.19 19.1C12.2687 19.0894 12.3422 19.0545 12.4 19L14.56 17.23C14.9 16.97 15.4 16.7 15.79 16.37C15.9969 16.1922 16.1786 15.987 16.33 15.76C16.408 15.615 16.4524 15.4544 16.46 15.29C16.46 15.03 16.41 14.65 16.41 14.48L16.23 12.06C16.3005 12.0421 16.3643 12.0042 16.414 11.9511C16.4636 11.8979 16.4969 11.8316 16.51 11.76C16.51 11.21 15.81 11.27 13.35 10.76C12.859 10.6948 12.3651 10.6547 11.87 10.64C11.3726 10.6298 10.875 10.6499 10.38 10.7C9.63782 10.7888 8.90271 10.9292 8.18 11.12C8.18 10.77 8.25 10.42 8.28 10.06C8.31 9.70001 8.35 9.34001 8.36 8.98001C8.37 8.62001 8.36 7.98001 8.36 7.49001C9.31 7.49001 10.25 7.59001 11.19 7.62001H13.19C14.33 7.62001 15.46 7.41001 16.59 7.28001C16.6775 7.28001 16.7615 7.24524 16.8233 7.18336C16.8852 7.12147 16.92 7.03753 16.92 6.95001C16.92 6.86249 16.8852 6.77855 16.8233 6.71667C16.7615 6.65478 16.6775 6.62001 16.59 6.62001L16.56 6.68001Z" fill="black"/>
</g>
<defs>
<clipPath id="clip0_1034_4466">
<rect width="24" height="24" fill="white"/>
</clipPath>
</defs>
</svg>
