<svg width="24" height="24" viewBox="0 0 24 24" fill="none" xmlns="http://www.w3.org/2000/svg">
<g clip-path="url(#clip0_1034_4495)">
<path fill-rule="evenodd" clip-rule="evenodd" d="M9.11001 20.53C8.91866 20.2651 8.69341 20.0264 8.44001 19.82C8.06992 19.5515 7.66218 19.3392 7.23002 19.19C7.32121 19.1331 7.40811 19.0696 7.49002 19C7.95546 18.6482 8.28322 18.1448 8.41654 17.5768C8.54986 17.0088 8.48034 16.4121 8.22002 15.89C7.97877 15.3362 7.55623 14.881 7.02189 14.5993C6.48755 14.3176 5.87324 14.2261 5.28002 14.34C4.75134 14.4592 4.25596 14.6949 3.83002 15.03C3.36186 15.3668 3.01192 15.8427 2.83002 16.39C2.70647 16.7994 2.68194 17.2323 2.75844 17.653C2.83494 18.0737 3.01027 18.4703 3.27002 18.81C3.41851 18.977 3.59027 19.1218 3.78002 19.24C3.55207 19.3006 3.33092 19.3844 3.12002 19.49C2.76272 19.7086 2.44769 19.9897 2.19002 20.32C1.95321 20.645 1.77083 21.0064 1.65002 21.39C1.41201 22.1594 1.43663 22.9861 1.72002 23.74C1.74535 23.8163 1.79853 23.8804 1.86895 23.9193C1.93938 23.9582 2.02187 23.9692 2.10002 23.95C2.1778 23.9267 2.24338 23.8739 2.28265 23.8029C2.32191 23.7318 2.33174 23.6482 2.31002 23.57C2.26197 23.0768 2.33402 22.5793 2.52002 22.12C2.65036 21.766 2.82509 21.43 3.04002 21.12C3.21358 20.8182 3.44062 20.5505 3.71002 20.33C3.88038 20.1891 4.06869 20.0714 4.27002 19.98C4.6171 19.8332 4.97479 19.7128 5.34002 19.62C5.38905 19.6083 5.43499 19.5862 5.47469 19.5551C5.51438 19.524 5.5469 19.4848 5.57002 19.44C5.64253 19.421 5.70532 19.3756 5.74604 19.3127C5.78676 19.2498 5.80244 19.1739 5.79002 19.1C5.77314 19.0209 5.72606 18.9516 5.65881 18.9068C5.59156 18.862 5.50947 18.8452 5.43002 18.86C5.16784 18.9099 4.8971 18.8889 4.64573 18.7993C4.39435 18.7096 4.17145 18.5545 4.00002 18.35C3.85629 18.1108 3.77218 17.8406 3.75477 17.5622C3.73737 17.2837 3.78718 17.0051 3.90002 16.75C4.03965 16.4484 4.25711 16.1896 4.53002 16C4.82922 15.7813 5.16927 15.6249 5.53002 15.54C5.88157 15.4626 6.24893 15.5052 6.5734 15.6611C6.89787 15.817 7.16074 16.0771 7.32002 16.4C7.5093 16.7267 7.58079 17.1085 7.52255 17.4816C7.46431 17.8546 7.27987 18.1965 7.00002 18.45C6.91236 18.5288 6.81489 18.5961 6.71002 18.65L6.35002 18.78C6.18002 18.78 6.00002 19.17 5.99002 19.18C5.96531 19.2688 5.97666 19.3638 6.0216 19.4443C6.06654 19.5248 6.14144 19.5844 6.23002 19.61C6.78337 19.8336 7.28153 20.1748 7.69002 20.61C7.85998 20.7823 8.01394 20.9698 8.15001 21.17C8.28864 21.3671 8.41232 21.5744 8.52002 21.79C8.79452 22.3126 8.91912 22.9009 8.88002 23.49C8.87148 23.5287 8.87066 23.5688 8.8776 23.6078C8.88453 23.6469 8.8991 23.6842 8.92046 23.7176C8.96359 23.7851 9.03178 23.8327 9.11001 23.85C9.18825 23.8672 9.27014 23.8527 9.33765 23.8095C9.40516 23.7664 9.45278 23.6982 9.47002 23.62C9.73757 22.9054 9.76911 22.1238 9.56002 21.39C9.45769 21.0808 9.3057 20.7903 9.11001 20.53Z" fill="black"/>
<path fill-rule="evenodd" clip-rule="evenodd" d="M19.07 20.53C18.8779 20.2625 18.6489 20.0235 18.39 19.82C18.0235 19.5515 17.6191 19.3392 17.19 19.19C17.27 19.14 17.37 19.1 17.45 19.04C17.9139 18.687 18.2404 18.1836 18.3736 17.6161C18.5068 17.0486 18.4384 16.4525 18.18 15.93C17.9373 15.3773 17.5145 14.9233 16.9806 14.6418C16.4466 14.3603 15.8331 14.268 15.24 14.38C14.7107 14.4972 14.2148 14.7331 13.79 15.07C13.3228 15.4077 12.9731 15.8833 12.79 16.43C12.6678 16.8401 12.6449 17.2735 12.7232 17.6942C12.8014 18.115 12.9786 18.5111 13.24 18.85C13.3849 19.0168 13.5534 19.1616 13.74 19.28C13.5132 19.344 13.2923 19.4276 13.08 19.53C12.7278 19.7516 12.4165 20.0324 12.16 20.36C11.9156 20.6803 11.7325 21.0431 11.62 21.43C11.3765 22.1986 11.4012 23.0272 11.69 23.78C11.7132 23.8578 11.766 23.9233 11.8371 23.9626C11.9082 24.0019 11.9918 24.0117 12.07 23.99C12.1478 23.9668 12.2134 23.9139 12.2526 23.8429C12.2919 23.7718 12.3017 23.6882 12.28 23.61C12.2291 23.1167 12.3012 22.6185 12.49 22.16C12.6168 21.8063 12.7882 21.4703 13 21.16C13.1801 20.8599 13.4101 20.5928 13.68 20.37C13.8472 20.2248 14.0362 20.1067 14.24 20.02C14.5837 19.8732 14.938 19.7529 15.3 19.66C15.3496 19.6496 15.3961 19.628 15.436 19.5968C15.4759 19.5656 15.508 19.5256 15.53 19.48C15.6038 19.4632 15.6681 19.4183 15.7092 19.3547C15.7503 19.2912 15.7649 19.2141 15.75 19.14C15.7428 19.1012 15.728 19.0643 15.7065 19.0313C15.685 18.9982 15.6572 18.9698 15.6247 18.9475C15.5922 18.9252 15.5556 18.9095 15.5171 18.9014C15.4785 18.8932 15.4387 18.8927 15.4 18.9C15.1197 18.9546 14.8297 18.9281 14.564 18.8236C14.2983 18.7191 14.0679 18.5409 13.9 18.31C13.7563 18.0708 13.6722 17.8006 13.6548 17.5222C13.6374 17.2437 13.6872 16.9652 13.8 16.71C13.9417 16.3954 14.1707 16.1281 14.46 15.94C14.7582 15.7196 15.0986 15.563 15.46 15.48C15.8116 15.4026 16.1789 15.4452 16.5034 15.6011C16.8279 15.757 17.0907 16.0172 17.25 16.34C17.4655 16.6641 17.5587 17.0544 17.5129 17.4409C17.4671 17.8275 17.2853 18.1852 17 18.45C16.914 18.5264 16.8202 18.5934 16.72 18.65C16.44 18.78 16.14 18.75 16 19.18C15.9753 19.2688 15.9866 19.3638 16.0316 19.4443C16.0765 19.5248 16.1514 19.5844 16.24 19.61C16.792 19.8361 17.2897 20.177 17.7 20.61C17.867 20.785 18.0207 20.9722 18.16 21.17C18.2954 21.3673 18.4157 21.5746 18.52 21.79C18.798 22.3116 18.926 22.9 18.89 23.49C18.8797 23.5288 18.8776 23.5693 18.8837 23.609C18.8899 23.6487 18.9043 23.6867 18.9259 23.7205C18.9475 23.7544 18.976 23.7833 19.0094 23.8056C19.0428 23.8279 19.0804 23.843 19.12 23.85C19.1981 23.8651 19.2789 23.8497 19.3459 23.8069C19.4129 23.7641 19.4609 23.6972 19.48 23.62C19.7443 22.9043 19.7723 22.1228 19.56 21.39C19.4454 21.0782 19.2798 20.7875 19.07 20.53Z" fill="black"/>
<path fill-rule="evenodd" clip-rule="evenodd" d="M6.62002 4.50997C6.23002 4.68997 5.86002 4.84997 5.50002 5.05997C5.25173 5.20717 5.0114 5.3674 4.78002 5.53997C4.64033 5.6456 4.50678 5.75912 4.38002 5.87997C4.26687 5.99389 4.19326 6.1411 4.17002 6.29997C4.15107 6.42821 4.16395 6.55914 4.20755 6.68121C4.25115 6.80329 4.32412 6.91276 4.42002 6.99997C4.70385 7.20818 5.00888 7.38583 5.33002 7.52997L6.08002 7.80997C6.16622 7.83782 6.25995 7.83029 6.34059 7.78903C6.42123 7.74777 6.48218 7.67617 6.51002 7.58997C6.53787 7.50378 6.53034 7.41005 6.48908 7.32941C6.44782 7.24877 6.37622 7.18782 6.29002 7.15997L5.80002 6.74997C5.80002 6.74997 5.58002 6.59997 5.42002 6.47997L5.56002 6.40997L7.00002 4.99997C7.05136 4.94841 7.08292 4.88044 7.08919 4.80795C7.09545 4.73547 7.07603 4.66308 7.0343 4.60348C6.99258 4.54387 6.93122 4.50084 6.86096 4.48192C6.79071 4.463 6.71604 4.46939 6.65002 4.49997L6.62002 4.50997Z" fill="black"/>
<path fill-rule="evenodd" clip-rule="evenodd" d="M9.64 2.72998C9.3 3.30998 8.92 3.84998 8.64 4.43998C8.5 4.68998 8.37 4.95998 8.25 5.22998C8.13 5.49998 7.99 5.90998 7.89 6.22998C7.67 7.02998 7.53 7.83998 7.29 8.63998C7.26355 8.68329 7.24684 8.73183 7.24102 8.78225C7.2352 8.83266 7.24041 8.88374 7.25629 8.93193C7.27218 8.98013 7.29835 9.0243 7.33301 9.06138C7.36766 9.09845 7.40996 9.12755 7.45698 9.14665C7.50399 9.16575 7.5546 9.1744 7.60529 9.17199C7.65598 9.16959 7.70555 9.15619 7.75054 9.13272C7.79554 9.10926 7.8349 9.07629 7.86588 9.0361C7.89687 8.99591 7.91875 8.94946 7.93 8.89998C8.21 8.35998 8.46 7.80998 8.69 7.24998C8.92 6.68998 9.1 6.14998 9.33 5.60998L10.2 2.99998C10.2164 2.96329 10.2253 2.92369 10.2261 2.88352C10.2269 2.84334 10.2196 2.80342 10.2047 2.76611C10.1897 2.7288 10.1675 2.69487 10.1392 2.66633C10.1109 2.63779 10.0772 2.61523 10.04 2.59998C9.9696 2.56487 9.88822 2.55883 9.8134 2.58314C9.73858 2.60746 9.67631 2.66019 9.64 2.72998Z" fill="black"/>
<path fill-rule="evenodd" clip-rule="evenodd" d="M12.28 7.15C12.4132 7.06312 12.5343 6.95887 12.64 6.84C12.7395 6.73203 12.8236 6.6109 12.89 6.48C12.9314 6.38251 12.9468 6.27593 12.9345 6.17072C12.9222 6.06552 12.8828 5.96532 12.82 5.88C12.6491 5.66084 12.4429 5.4716 12.21 5.32C11.7195 5.08136 11.2113 4.88077 10.69 4.72C10.6195 4.67968 10.5361 4.66862 10.4575 4.68919C10.379 4.70976 10.3117 4.76032 10.27 4.83C10.2487 4.86454 10.2346 4.90305 10.2286 4.94319C10.2226 4.98333 10.2248 5.02428 10.2351 5.06354C10.2454 5.10281 10.2635 5.13958 10.2884 5.17163C10.3133 5.20367 10.3445 5.23034 10.38 5.25L11.25 5.95L11.62 6.26L11.24 6.66L10.53 7.23C10.4912 7.25432 10.4577 7.28623 10.4316 7.32381C10.4054 7.3614 10.3871 7.40387 10.3778 7.4487C10.3684 7.49353 10.3683 7.53978 10.3772 7.58468C10.3862 7.62958 10.4042 7.6722 10.43 7.71C10.4534 7.74847 10.4843 7.78175 10.521 7.80781C10.5577 7.83386 10.5994 7.85214 10.6434 7.8615C10.6874 7.87087 10.7329 7.87113 10.777 7.86227C10.8212 7.85342 10.863 7.83563 10.9 7.81L11.72 7.45C11.9177 7.37213 12.1056 7.27145 12.28 7.15Z" fill="black"/>
<path fill-rule="evenodd" clip-rule="evenodd" d="M14.61 9.53998C15.5931 8.01173 15.9744 6.17314 15.68 4.37998C15.5133 3.65326 15.1957 2.9697 14.7478 2.37364C14.2999 1.77757 13.7317 1.28231 13.08 0.919985C11.8015 0.179437 10.317 -0.125875 8.85001 0.0499848C7.08808 0.199797 5.38914 0.776408 3.90001 1.72998C2.90115 2.44124 2.14112 3.43834 1.72001 4.58998C1.25642 5.83148 1.29227 7.20437 1.82001 8.41998C2.32976 9.61955 3.2722 10.5834 4.46001 11.12C4.80249 11.2671 5.1619 11.3713 5.53001 11.43C6.05644 11.5109 6.58754 11.5577 7.12001 11.57C7.42315 11.5852 7.72687 11.5852 8.03001 11.57H8.37001C8.44001 11.79 8.52001 12 8.57001 12.22C8.68001 12.69 8.77001 13.16 8.84001 13.64L9.00001 14.45L9.14001 14.93C9.12998 14.9626 9.12998 14.9974 9.14001 15.03C9.17432 15.0955 9.22171 15.1532 9.27925 15.1996C9.33678 15.246 9.40322 15.2801 9.47447 15.2998C9.54572 15.3195 9.62025 15.3243 9.69345 15.314C9.76664 15.3038 9.83695 15.2785 9.90001 15.24C10.1098 15.1247 10.2884 14.9599 10.42 14.76C10.6078 14.4422 10.7651 14.1074 10.89 13.76L11.26 12.6L11.67 11.37C12.2696 11.3181 12.8484 11.1253 13.3593 10.8073C13.8702 10.4893 14.2987 10.055 14.61 9.53998ZM10.44 12.28L9.95001 13.28L9.88001 13.42C9.74001 13.02 9.60001 12.63 9.43001 12.24C9.26001 11.85 9.12001 11.56 8.94001 11.24C8.76001 10.92 8.94001 11.24 8.94001 11.18C8.94001 11.12 8.94001 11.18 8.88001 11.18C8.84152 11.1383 8.79126 11.1092 8.7359 11.0967C8.68054 11.0842 8.62269 11.0889 8.57001 11.11C8.37618 11.0971 8.18471 11.0602 8.00001 11C7.71001 11 7.42001 10.95 7.13001 10.93C6.63021 10.8996 6.13267 10.8395 5.64001 10.75C5.33274 10.6848 5.03407 10.5841 4.75001 10.45C3.78344 9.9495 3.04082 9.10334 2.67001 8.07998C2.28556 7.0873 2.2963 5.985 2.70001 4.99998C3.17433 3.81344 4.0674 2.84209 5.21001 2.26998C6.40163 1.69597 7.68413 1.33389 9.00001 1.19998C10.2213 1.03975 11.4618 1.27453 12.54 1.86998C13.0772 2.14336 13.5508 2.52688 13.9299 2.99555C14.3089 3.46421 14.585 4.00749 14.74 4.58998C14.9884 5.88072 14.8385 7.21648 14.31 8.41998C14.1103 9.00976 13.7515 9.53291 13.2733 9.9317C12.7951 10.3305 12.2161 10.5895 11.6 10.68C11.5138 10.6473 11.4181 10.65 11.3339 10.6875C11.2496 10.7249 11.1835 10.7941 11.15 10.88L10.44 12.28Z" fill="black"/>
<path fill-rule="evenodd" clip-rule="evenodd" d="M22.45 6.37997C22.2631 5.62834 21.9227 4.92355 21.45 4.30997C20.9834 3.69258 20.3595 3.21186 19.6435 2.91809C18.9275 2.62431 18.1458 2.52826 17.38 2.63997C17.3367 2.64198 17.2944 2.65334 17.2559 2.67328C17.2174 2.69322 17.1837 2.72126 17.1571 2.75547C17.1305 2.78968 17.1116 2.82926 17.1017 2.87147C17.0919 2.91367 17.0913 2.95752 17.1 2.99997C17.101 3.04082 17.1107 3.081 17.1283 3.11786C17.1459 3.15473 17.1711 3.18745 17.2023 3.21389C17.2334 3.24032 17.2698 3.25988 17.3091 3.27127C17.3483 3.28266 17.3895 3.28562 17.43 3.27997C18.0593 3.2681 18.6808 3.42049 19.2332 3.72212C19.7856 4.02375 20.2498 4.46418 20.58 4.99997C20.9181 5.52108 21.165 6.09597 21.31 6.69997C21.4763 7.30179 21.5205 7.93081 21.44 8.54997C21.3666 9.21114 21.1294 9.84356 20.75 10.39C20.3764 10.9381 19.8198 11.3351 19.18 11.51C19.0921 11.5314 19.0158 11.5861 18.9674 11.6626C18.9189 11.739 18.9019 11.8313 18.92 11.92C18.92 11.92 18.92 11.98 18.98 12.01C18.9022 11.9759 18.8146 11.9714 18.7336 11.9971C18.6527 12.0229 18.5839 12.0772 18.54 12.15L18.01 12.94L17.92 13.04C17.9031 12.8197 17.8628 12.6018 17.8 12.39C17.7595 12.2019 17.6774 12.0252 17.5597 11.8729C17.442 11.7207 17.2918 11.5967 17.12 11.51C16.9687 11.4455 16.8025 11.4247 16.64 11.45C16.41 11.45 16.1 11.63 15.95 11.65C15.6887 11.698 15.425 11.7314 15.16 11.75L13.91 11.81C13.8698 11.8073 13.8294 11.8127 13.7914 11.8259C13.7533 11.8392 13.7183 11.8599 13.6884 11.887C13.6585 11.9141 13.6344 11.9469 13.6175 11.9835C13.6006 12.0201 13.5913 12.0597 13.59 12.1C13.5896 12.1799 13.6192 12.2571 13.6729 12.3163C13.7265 12.3755 13.8004 12.4125 13.88 12.42L16.01 12.67C16.84 12.67 16.46 11.74 17.01 14.24C17.01 14.34 17.45 14.85 17.89 14.46C18.04 14.32 18.41 13.92 18.43 13.89L18.74 13.4L19.18 12.49C19.2119 12.439 19.2289 12.3801 19.2289 12.32C19.2289 12.2598 19.2119 12.2009 19.18 12.15C19.2487 12.1692 19.3213 12.1692 19.39 12.15C20.2195 11.9972 20.9675 11.5541 21.5 10.9C22.0399 10.2619 22.4112 9.49861 22.58 8.67997C22.698 7.91265 22.6537 7.12911 22.45 6.37997Z" fill="black"/>
</g>
<defs>
<clipPath id="clip0_1034_4495">
<rect width="24" height="24" fill="white"/>
</clipPath>
</defs>
</svg>
