<svg width="24" height="24" viewBox="0 0 24 24" fill="none" xmlns="http://www.w3.org/2000/svg">
<g clip-path="url(#clip0_1034_4504)">
<path d="M14.31 19.62C13.5971 20.0538 12.7572 20.2303 11.93 20.12C11.5903 20.085 11.2551 20.0147 10.93 19.91C10.607 19.809 10.2979 19.6679 10.01 19.49C9.65398 19.3008 9.34233 19.038 9.09577 18.719C8.84921 18.4 8.67339 18.0322 8.58 17.64C8.58 17.35 8.5 17.08 8.5 16.78C8.54848 16.0219 8.51495 15.2609 8.4 14.51C8.3161 14.0881 8.10701 13.7013 7.8 13.4C7.65795 13.2768 7.4779 13.2062 7.29 13.2C7.08496 13.2115 6.88106 13.2382 6.68 13.28H4.74H3.92C3.7483 13.0018 3.59787 12.7109 3.47 12.41C3.35699 12.1211 3.28301 11.8184 3.25 11.51C3.22008 11.2743 3.22008 11.0357 3.25 10.8C3.28396 10.5661 3.34781 10.3376 3.44 10.12C3.65487 9.45559 4.10226 8.89102 4.7 8.53C5.15252 8.30069 5.65269 8.1812 6.16 8.1812C6.6673 8.1812 7.16747 8.30069 7.62 8.53C8.13 8.76 11.07 10.32 9.11 13.09C9.06099 13.1656 9.04399 13.2576 9.06275 13.3457C9.0815 13.4338 9.13446 13.5109 9.21 13.56C9.54613 13.856 9.845 14.1918 10.1 14.56C10.351 14.9248 10.5591 15.3174 10.72 15.73C10.8782 16.1432 11.0053 16.5678 11.1 17C11.202 17.3638 11.3754 17.7038 11.61 18C11.834 18.264 12.1309 18.456 12.4636 18.552C12.7962 18.6481 13.1497 18.6439 13.48 18.54C13.6327 18.5025 13.783 18.4557 13.93 18.4L14.33 18.21C14.376 18.189 14.4173 18.1591 14.4518 18.1221C14.4862 18.0851 14.513 18.0417 14.5306 17.9944C14.5483 17.947 14.5564 17.8966 14.5546 17.8461C14.5528 17.7956 14.541 17.746 14.52 17.7C14.499 17.654 14.4691 17.6127 14.4321 17.5782C14.3951 17.5438 14.3517 17.517 14.3043 17.4994C14.257 17.4817 14.2066 17.4736 14.1561 17.4754C14.1056 17.4772 14.056 17.489 14.01 17.51L13.36 17.64C13.2066 17.6672 13.0486 17.6496 12.9049 17.5893C12.7612 17.529 12.638 17.4286 12.55 17.3C12.4093 17.0345 12.3147 16.7471 12.27 16.45C12.1785 16.0488 12.0409 15.6596 11.86 15.29C11.5827 14.8284 11.2465 14.4049 10.86 14.03C10.5778 13.7749 10.2694 13.5503 9.94 13.36C9.94 13.36 10.02 13.36 10.05 13.29C11.67 10.99 10.26 8.55 8.17 7.5C7.64563 7.21814 7.06963 7.04537 6.47671 6.99209C5.88378 6.93881 5.28621 7.00614 4.72 7.19C4.16339 7.40403 3.66603 7.74806 3.26941 8.19339C2.87279 8.63871 2.58841 9.17243 2.44 9.75C2.35857 10.0504 2.3116 10.359 2.3 10.67C2.27809 10.9851 2.30167 11.3017 2.37 11.61C2.45324 11.9852 2.58431 12.3482 2.76 12.69C2.87154 12.8938 2.9951 13.0908 3.13 13.28C2.79546 13.2886 2.46164 13.3153 2.13 13.36C1.84304 13.393 1.56104 13.4602 1.29 13.56C1.09659 13.6325 0.927009 13.7571 0.799996 13.92C0.614309 14.177 0.475507 14.4647 0.389996 14.77C0.254972 15.3414 0.171305 15.9237 0.139996 16.51C-0.0179723 17.9664 0.032536 19.4379 0.289996 20.88C0.46297 21.8677 0.848534 22.806 1.42 23.63C1.474 23.703 1.55426 23.7521 1.64382 23.7671C1.73338 23.782 1.82524 23.7615 1.9 23.71C1.97231 23.6578 2.02121 23.5793 2.03618 23.4914C2.05114 23.4035 2.03097 23.3132 1.98 23.24C1.51589 22.4803 1.22879 21.6258 1.14 20.74C0.985599 19.3842 1.02939 18.0132 1.27 16.67C1.33 16.3 1.4 15.79 1.52 15.33C1.56797 15.1218 1.64899 14.9226 1.76 14.74C1.67 14.58 2.16 14.66 2.31 14.64C2.61818 14.5968 2.92882 14.5734 3.24 14.57H4.75C7.47 14.47 7.22 14.26 7.35 15.01C7.42513 15.5904 7.4652 16.1748 7.47 16.76C7.50928 17.7557 7.65341 18.7445 7.9 19.71C8.13101 20.6665 8.43867 21.6029 8.82 22.51C8.8558 22.6055 8.92807 22.6828 9.0209 22.725C9.11373 22.7672 9.21952 22.7708 9.315 22.735C9.41047 22.6992 9.48782 22.6269 9.53001 22.5341C9.57221 22.4413 9.5758 22.3355 9.54 22.24C9.30179 21.5388 9.10479 20.8242 8.95 20.1C9.06993 20.2366 9.20033 20.3637 9.34 20.48C9.71259 20.7621 10.1325 20.9754 10.58 21.11C11.0156 21.2518 11.472 21.3194 11.93 21.31C13.0014 21.3057 14.0338 20.907 14.83 20.19C14.8706 20.1596 14.9047 20.1213 14.9303 20.0775C14.9559 20.0336 14.9724 19.9851 14.9789 19.9348C14.9855 19.8844 14.9818 19.8333 14.9683 19.7844C14.9547 19.7355 14.9315 19.6898 14.9 19.65C14.8656 19.6057 14.822 19.5694 14.7723 19.5435C14.7226 19.5176 14.6679 19.5027 14.6119 19.4998C14.5559 19.497 14.4999 19.5062 14.4478 19.527C14.3957 19.5477 14.3487 19.5794 14.31 19.62Z" fill="black"/>
<path d="M14.19 4.28002C14.2729 4.21986 14.3288 4.1295 14.3457 4.02846C14.3625 3.92742 14.3389 3.82381 14.28 3.74002C14.2165 3.65847 14.1246 3.60389 14.0227 3.5872C13.9207 3.57051 13.8162 3.59295 13.73 3.65002L11.18 4.87002C10.8296 5.04783 10.4951 5.25526 10.18 5.49002C10.033 5.62067 9.94326 5.80382 9.93001 6.00002C9.91607 6.10242 9.92498 6.20664 9.95611 6.3052C9.98723 6.40375 10.0398 6.49419 10.11 6.57002C10.24 6.72002 10.64 7.05002 10.67 7.08002L12.91 8.92002C12.9737 8.98353 13.06 9.01919 13.15 9.01919C13.24 9.01919 13.3263 8.98353 13.39 8.92002C13.4535 8.85629 13.4892 8.76999 13.4892 8.68002C13.4892 8.59005 13.4535 8.50375 13.39 8.44002L11.56 6.15002L11.46 6.09002L11.83 5.93002L14.19 4.28002Z" fill="black"/>
<path d="M17.13 8.33001C17.0893 8.35889 17.0546 8.39551 17.0281 8.43778C17.0015 8.48005 16.9835 8.52714 16.9752 8.57636C16.9668 8.62558 16.9682 8.67596 16.9794 8.72463C16.9905 8.7733 17.0111 8.8193 17.04 8.86001C17.1017 8.94084 17.1919 8.99514 17.2922 9.01186C17.3925 9.02858 17.4954 9.00646 17.58 8.95001L20.13 7.73001C20.4824 7.55978 20.8174 7.35547 21.13 7.12001C21.2687 6.99553 21.3575 6.82499 21.38 6.64001C21.3938 6.53914 21.3848 6.43646 21.3537 6.33954C21.3225 6.24261 21.27 6.15392 21.2 6.08001C21.0234 5.89923 20.8365 5.72894 20.64 5.57001L18.4 3.72001C18.3692 3.68537 18.3317 3.6574 18.2897 3.63779C18.2477 3.61819 18.2022 3.60738 18.1559 3.60601C18.1096 3.60465 18.0634 3.61277 18.0204 3.62987C17.9773 3.64697 17.9382 3.67269 17.9054 3.70545C17.8727 3.73821 17.847 3.77733 17.8299 3.82039C17.8128 3.86345 17.8046 3.90956 17.806 3.95587C17.8074 4.00218 17.8182 4.04773 17.8378 4.08971C17.8574 4.1317 17.8854 4.16923 17.92 4.20001L19.75 6.45001L19.85 6.52001C19.7228 6.56394 19.5991 6.61743 19.48 6.68001L17.13 8.33001Z" fill="black"/>
<path d="M17.29 2.36002C17.2488 2.34234 17.2044 2.33326 17.1595 2.33331C17.1147 2.33337 17.0703 2.34257 17.0291 2.36035C16.9879 2.37813 16.9508 2.40412 16.92 2.43674C16.8892 2.46935 16.8654 2.50789 16.85 2.55002C16.47 3.20002 16.09 3.83002 15.77 4.55002C15.63 4.84002 15.52 5.14002 15.41 5.44002C15.3 5.74002 15.21 6.04002 15.13 6.35002C14.94 7.08002 14.81 7.80002 14.67 8.54002C14.6547 8.58859 14.6493 8.63974 14.6542 8.69043C14.6591 8.74112 14.6741 8.79031 14.6983 8.83509C14.7226 8.87986 14.7556 8.91931 14.7954 8.95107C14.8352 8.98284 14.881 9.00629 14.93 9.02002C15.0281 9.04811 15.1333 9.03661 15.2231 8.988C15.3128 8.9394 15.3799 8.85755 15.41 8.76002C15.69 8.08002 16 7.42002 16.28 6.76002C16.4 6.47002 16.52 6.18002 16.63 5.89002C16.7416 5.59845 16.8384 5.3014 16.92 5.00002C17.13 4.29002 17.28 3.58002 17.48 2.87002C17.5065 2.82512 17.5227 2.77484 17.5274 2.72287C17.532 2.67091 17.5249 2.61857 17.5067 2.56968C17.4885 2.52079 17.4596 2.47659 17.4221 2.44032C17.3846 2.40404 17.3395 2.37661 17.29 2.36002Z" fill="black"/>
<path d="M23.9 5.00001C23.31 -0.379989 24.71 1.35001 19.74 0.640011C18.1695 0.409815 16.5867 0.272909 15 0.230011C14.2 0.230011 13.41 0.230011 12.62 0.300011C11.83 0.370011 11 0.470011 10.23 0.590011C9.45998 0.710011 8.76998 0.760011 7.99998 0.880011C6.06998 1.21001 5.99998 0.560011 5.92998 3.00001C5.91498 3.21642 5.91498 3.4336 5.92998 3.65001C5.93981 3.84805 5.9632 4.04517 5.99998 4.24001C6.09998 4.74001 6.27998 5.24001 6.37998 5.69001C6.38358 5.73663 6.39675 5.782 6.41868 5.8233C6.4406 5.86459 6.47081 5.90093 6.50741 5.93002C6.54401 5.95911 6.58622 5.98034 6.6314 5.99239C6.67658 6.00443 6.72376 6.00703 6.76998 6.00001C6.81421 5.99875 6.85772 5.98861 6.89795 5.9702C6.93818 5.95179 6.97429 5.92547 7.00415 5.89282C7.034 5.86017 7.05698 5.82185 7.07173 5.78013C7.08647 5.73842 7.09268 5.69417 7.08998 5.65001C7.19608 5.07571 7.25627 4.49387 7.26998 3.91001C7.26302 3.57408 7.22621 3.23943 7.15998 2.91001C7.10998 2.55001 6.99998 2.20001 6.99998 1.84001C7.38299 1.76491 7.77047 1.71481 8.15998 1.69001C8.89998 1.64001 9.63998 1.64001 10.36 1.61001C11.08 1.58001 11.91 1.56001 12.69 1.55001C13.47 1.54001 14.24 1.55001 15.01 1.55001C16.56 1.55001 18.1 1.55001 19.66 1.67001C20.51 1.73001 21.41 1.67001 22.28 1.67001H22.42C22.48 2.14001 22.55 2.61001 22.58 3.09001C22.61 3.57001 22.58 4.09001 22.64 4.65001C22.7 5.21001 22.69 5.65001 22.72 6.21001C22.83 7.81001 22.95 9.40001 22.99 10.95C22.9977 11.0168 23.0256 11.0796 23.07 11.13C21.6164 11.3388 20.1444 11.3891 18.68 11.28L16.86 11.22H15.63C14.5115 11.243 13.3957 11.3399 12.29 11.51C12.2411 11.5061 12.1919 11.5128 12.1458 11.5296C12.0997 11.5465 12.0578 11.5732 12.023 11.6078C11.9882 11.6424 11.9613 11.6841 11.9441 11.7301C11.927 11.7761 11.92 11.8253 11.9236 11.8742C11.9273 11.9232 11.9415 11.9707 11.9653 12.0137C11.9891 12.0566 12.0219 12.0939 12.0614 12.1229C12.101 12.152 12.1464 12.1721 12.1945 12.182C12.2425 12.1918 12.2922 12.1912 12.34 12.18C13.09 12.18 13.83 12.18 14.56 12.3C14.487 12.5562 14.4302 12.8167 14.39 13.08C14.3751 13.263 14.3751 13.447 14.39 13.63V14.18C14.39 14.62 14.5 15.03 14.54 15.46C14.5316 15.5619 14.5636 15.6631 14.6291 15.7416C14.6945 15.8202 14.7882 15.8699 14.89 15.88C14.9402 15.8855 14.991 15.8807 15.0392 15.8659C15.0875 15.851 15.1322 15.8264 15.1706 15.7936C15.209 15.7608 15.2403 15.7205 15.2626 15.6752C15.2848 15.6299 15.2976 15.5805 15.3 15.53C15.42 15.09 15.53 14.67 15.61 14.22C15.6252 14.0337 15.6252 13.8464 15.61 13.66C15.6299 13.4739 15.6299 13.2861 15.61 13.1C15.5754 12.8571 15.5253 12.6166 15.46 12.38L16.23 12.45C17.1079 12.5249 17.989 12.555 18.87 12.54C20.378 12.5254 21.8764 12.2964 23.32 11.86C23.3695 11.8494 23.4164 11.829 23.458 11.8C23.4995 11.771 23.5348 11.7339 23.5619 11.6911C23.5889 11.6482 23.6071 11.6004 23.6153 11.5504C23.6236 11.5004 23.6218 11.4493 23.61 11.4C23.61 11.34 23.55 11.31 23.52 11.27C23.586 11.2459 23.6433 11.2025 23.6843 11.1455C23.7253 11.0884 23.7482 11.0203 23.75 10.95C23.86 9.78001 23.99 8.57001 24.01 7.35001C24.0252 6.56511 23.9884 5.78006 23.9 5.00001Z" fill="black"/>
<path d="M22.55 17.85C22.4791 17.508 22.283 17.2048 22 17C21.7715 16.8574 21.5092 16.778 21.24 16.77C20.8349 16.7761 20.4306 16.8095 20.03 16.87L16.46 17.37C16.4156 17.3749 16.3726 17.3887 16.3337 17.4107C16.2947 17.4327 16.2607 17.4623 16.2336 17.4979C16.2064 17.5334 16.1868 17.5741 16.1759 17.6174C16.165 17.6608 16.163 17.7059 16.17 17.75C16.1749 17.7945 16.1887 17.8374 16.2107 17.8764C16.2327 17.9153 16.2623 17.9493 16.2978 17.9765C16.3334 18.0036 16.3741 18.0232 16.4174 18.0341C16.4608 18.0451 16.5059 18.0471 16.55 18.04L20.17 18H20.91C21.78 18 21.28 17.88 21.38 19.29C21.47 20.29 22.26 20.29 20.44 20.35L16.6 20.64C16.4983 20.6452 16.4027 20.6899 16.3336 20.7647C16.2644 20.8394 16.2273 20.9382 16.23 21.04C16.2313 21.0908 16.2427 21.1408 16.2636 21.1871C16.2846 21.2334 16.3146 21.275 16.3519 21.3095C16.3891 21.344 16.433 21.3707 16.4808 21.3879C16.5285 21.4052 16.5793 21.4127 16.63 21.41L20.42 21.47C20.8686 21.5203 21.3214 21.5203 21.77 21.47C22.0655 21.4192 22.3399 21.2837 22.56 21.08C22.7135 20.8755 22.7944 20.6257 22.79 20.37C22.7715 19.9781 22.7315 19.5875 22.67 19.2C22.6694 18.7474 22.6292 18.2957 22.55 17.85Z" fill="black"/>
</g>
<defs>
<clipPath id="clip0_1034_4504">
<rect width="24" height="24" fill="white"/>
</clipPath>
</defs>
</svg>
