<svg width="24" height="24" viewBox="0 0 24 24" fill="none" xmlns="http://www.w3.org/2000/svg">
<g clip-path="url(#clip0_1032_3417)">
<path d="M23.67 17.48C23.5969 17.4074 23.4981 17.3666 23.395 17.3666C23.2919 17.3666 23.1931 17.4074 23.12 17.48C22.0676 18.7152 20.8494 19.7988 19.5 20.7C18.1536 21.5774 16.6647 22.2136 15.1 22.58C13.7189 22.8909 12.3055 23.0353 10.89 23.01C9.48298 22.9938 8.08424 22.7921 6.72999 22.41C4.93926 21.9783 3.36552 20.9126 2.29999 19.41C1.37152 17.8237 1.06842 15.948 1.44999 14.15C1.91925 11.1521 3.24991 8.35532 5.27999 6.10003C7.26256 3.81373 9.93257 2.23138 12.89 1.59003C14.4142 1.26471 15.9878 1.24432 17.52 1.53003C18.9955 1.77795 20.314 2.59707 21.19 3.81003C21.9481 4.92662 22.2751 6.28051 22.11 7.62003C21.7658 9.72089 20.88 11.6958 19.54 13.35C19.0646 14.0384 18.5034 14.6635 17.87 15.21C17.52 15.47 17.16 15.69 16.8 15.56C16.2 15.34 16.06 14.76 16.03 14.11C16.0937 12.9941 16.2747 11.888 16.57 10.81C16.6412 10.6045 16.6584 10.3841 16.62 10.17C16.5964 10.0513 16.5355 9.94318 16.4464 9.86134C16.3572 9.77949 16.2442 9.72816 16.1239 9.7148C16.0036 9.70143 15.8821 9.72671 15.7772 9.78698C15.6722 9.84725 15.5891 9.93939 15.54 10.05C15.38 10.28 14.96 11.2 14.65 11.77C13.7376 13.5616 12.3897 15.0952 10.73 16.23C10.234 16.5688 9.63467 16.7223 9.03688 16.6638C8.4391 16.6053 7.88092 16.3385 7.45999 15.91C7.07797 15.5221 6.85653 15.0042 6.83999 14.46C6.79646 13.8619 6.8505 13.2608 6.99999 12.68C7.34262 11.3415 7.95891 10.0885 8.80999 9.00003C9.63015 7.89114 10.7314 7.02121 12 6.48003C12.8064 6.12166 13.7027 6.01704 14.57 6.18003C14.959 6.2833 15.3059 6.50558 15.5623 6.81578C15.8187 7.12598 15.9718 7.50857 16 7.91003C16.0049 7.95577 16.019 8.00004 16.0414 8.04017C16.0639 8.08031 16.0943 8.11546 16.1308 8.14351C16.1672 8.17155 16.209 8.19191 16.2536 8.20334C16.2981 8.21478 16.3445 8.21705 16.39 8.21003C16.4813 8.19757 16.5639 8.14965 16.6201 8.07664C16.6763 8.00363 16.7014 7.91143 16.69 7.82003C16.6597 7.37965 16.5169 6.95441 16.2753 6.58498C16.0337 6.21555 15.7013 5.9143 15.31 5.71003C14.7359 5.45949 14.1163 5.33017 13.49 5.33017C12.8636 5.33017 12.244 5.45949 11.67 5.71003C10.269 6.3097 9.05371 7.27294 8.14999 8.50003C7.21476 9.68126 6.53384 11.0431 6.14999 12.5C5.931 13.3146 5.87997 14.1651 5.99999 15C6.0963 15.6178 6.38704 16.1888 6.82999 16.63C7.38989 17.2259 8.14172 17.6056 8.95361 17.7025C9.76549 17.7994 10.5856 17.6074 11.27 17.16C12.7225 16.2524 13.9582 15.0372 14.89 13.6C14.8508 14.0304 14.8677 14.464 14.94 14.89C14.9911 15.3035 15.1541 15.6953 15.4114 16.023C15.6686 16.3508 16.0104 16.6022 16.4 16.75C16.6996 16.8541 17.0189 16.8892 17.334 16.8529C17.6491 16.8165 17.9519 16.7096 18.22 16.54C19.1604 15.9014 19.9714 15.0905 20.61 14.15C22.1015 12.3156 23.0874 10.1231 23.47 7.79003C23.675 6.13681 23.2697 4.4656 22.33 3.09003C21.486 1.86158 20.2532 0.952836 18.83 0.510027C16.816 -0.0914154 14.6816 -0.167154 12.63 0.290027C9.39722 1.01274 6.48739 2.76776 4.33999 5.29003C2.17665 7.73981 0.772924 10.7662 0.299993 14C-0.0913118 16.066 0.297035 18.2037 1.38999 20C2.61501 21.7008 4.41106 22.9041 6.44999 23.39C7.8951 23.7755 9.38437 23.9705 10.88 23.97C12.3714 23.9831 13.859 23.8152 15.31 23.47C16.9797 23.0718 18.5669 22.3848 20 21.44C21.3929 20.4707 22.6448 19.313 23.72 18C23.7754 17.9217 23.8008 17.8262 23.7916 17.7307C23.7824 17.6353 23.7393 17.5463 23.67 17.48Z" fill="black"/>
</g>
<defs>
<clipPath id="clip0_1032_3417">
<rect width="24" height="24" fill="white"/>
</clipPath>
</defs>
</svg>
