<svg width="24" height="24" viewBox="0 0 24 24" fill="none" xmlns="http://www.w3.org/2000/svg">
<g clip-path="url(#clip0_1032_3427)">
<path fill-rule="evenodd" clip-rule="evenodd" d="M6.39002 17C7.00002 17 17.51 16.74 18 16.41C18.72 15.95 18.76 9.82 18.4 8.32C18.3369 7.97975 18.1732 7.66624 17.93 7.42001C17.6566 7.28117 17.3564 7.20273 17.05 7.19001C15.34 7.00001 5.87002 7.00001 5.46002 8.54001C5.28002 9.19001 4.92002 17 6.39002 17ZM6.20002 9.34001C7.12002 10 8.67002 11.06 10 11.8C10.14 11.88 9.10002 12.33 7.63002 13.94C7.21002 14.4 6.63002 15.17 6.21002 15.71C6.07512 13.5889 6.07178 11.4615 6.20002 9.34001ZM17.34 15.58C17.15 15.58 10.59 16.16 6.68002 16.3C9.22002 13.79 9.29002 14.1 10.68 12.16C11.1672 12.424 11.6999 12.5937 12.25 12.66C12.7016 12.5377 13.1258 12.3307 13.5 12.05C14.4267 13.2551 15.5329 14.3107 16.78 15.18C16.845 15.2284 16.9252 15.252 17.006 15.2466C17.0869 15.2412 17.1631 15.207 17.221 15.1503C17.2789 15.0936 17.3147 15.0181 17.3218 14.9374C17.329 14.8566 17.3071 14.776 17.26 14.71C16.4451 13.4736 15.3911 12.4128 14.16 11.59C15.2929 10.7284 16.3531 9.77517 17.33 8.74001C17.5935 11.0122 17.5969 13.307 17.34 15.58ZM16.76 8.31001C15.5133 9.39084 14.1749 10.3612 12.76 11.21C12.07 11.62 12.24 11.64 11.32 11.21C10.1 10.68 7.64002 9.38001 6.44002 8.72001C7.40208 8.47624 8.38798 8.33875 9.38002 8.31001C11.8377 8.1588 14.3023 8.1588 16.76 8.31001Z" fill="black"/>
<path fill-rule="evenodd" clip-rule="evenodd" d="M17 21.5C13.8174 22.6242 10.3631 22.7256 7.12001 21.79C7.03976 21.771 6.95533 21.7818 6.88244 21.8203C6.80955 21.8589 6.75317 21.9227 6.72381 21.9998C6.69445 22.0769 6.69411 22.162 6.72284 22.2393C6.75158 22.3166 6.80743 22.3808 6.88001 22.42C8.50734 23.1976 10.3 23.5658 12.1021 23.4926C13.9042 23.4194 15.6611 22.907 17.22 22C17.2702 22.0006 17.3197 21.9886 17.3641 21.9651C17.4084 21.9416 17.4462 21.9073 17.4739 21.8655C17.5015 21.8236 17.5183 21.7754 17.5225 21.7254C17.5268 21.6754 17.5184 21.6251 17.4982 21.5792C17.478 21.5333 17.4466 21.4931 17.4068 21.4625C17.3671 21.4318 17.3203 21.4116 17.2707 21.4037C17.2211 21.3959 17.1704 21.4005 17.1231 21.4174C17.0758 21.4342 17.0335 21.4626 17 21.5Z" fill="black"/>
<path fill-rule="evenodd" clip-rule="evenodd" d="M1.62001 18.08C1.66326 18.139 1.72656 18.1802 1.79803 18.1958C1.86949 18.2114 1.94419 18.2003 2.00807 18.1647C2.07195 18.129 2.12061 18.0713 2.14491 18.0023C2.16921 17.9333 2.16746 17.8578 2.14001 17.79C0.770007 14.95 1.14001 9.79005 2.14001 7.35005C2.16148 7.27223 2.15456 7.18932 2.1205 7.11614C2.08644 7.04296 2.02745 6.98429 1.95409 6.95061C1.88073 6.91694 1.79778 6.91047 1.72009 6.93235C1.64239 6.95423 1.57501 7.00304 1.53001 7.07005C-0.249992 10.67 -0.539993 14.71 1.62001 18.08Z" fill="black"/>
<path fill-rule="evenodd" clip-rule="evenodd" d="M7.29003 2.12C10.5539 1.00398 14.1149 1.13217 17.29 2.48C17.3294 2.50101 17.3726 2.51406 17.417 2.5184C17.4615 2.52273 17.5063 2.51827 17.549 2.50527C17.5917 2.49227 17.6315 2.47098 17.666 2.44263C17.7005 2.41427 17.729 2.3794 17.75 2.34C17.771 2.30061 17.7841 2.25746 17.7884 2.21302C17.7928 2.16858 17.7883 2.12372 17.7753 2.08101C17.7623 2.03829 17.741 1.99856 17.7127 1.96407C17.6843 1.92958 17.6494 1.90101 17.61 1.88C16.0436 0.850301 14.2215 0.276868 12.3476 0.223885C10.4738 0.170902 8.62217 0.640459 7.00003 1.58C6.96458 1.59904 6.93322 1.62488 6.90775 1.65604C6.88228 1.6872 6.86319 1.72308 6.85158 1.76161C6.83998 1.80015 6.83607 1.8406 6.8401 1.88064C6.84412 1.92068 6.85599 1.95955 6.87503 1.995C6.89408 2.03046 6.91991 2.06182 6.95108 2.08729C6.98224 2.11276 7.01811 2.13184 7.05665 2.14345C7.09518 2.15506 7.13563 2.15896 7.17567 2.15494C7.21572 2.15092 7.25458 2.13904 7.29003 2.12Z" fill="black"/>
<path fill-rule="evenodd" clip-rule="evenodd" d="M21.23 17.72C21.1955 17.7949 21.1893 17.8798 21.2127 17.9589C21.2361 18.038 21.2874 18.1059 21.3572 18.1499C21.4269 18.194 21.5103 18.2112 21.5917 18.1983C21.6732 18.1854 21.7472 18.1434 21.8 18.08C23.0265 16.4363 23.7179 14.4551 23.7805 12.4052C23.8431 10.3552 23.2739 8.33559 22.15 6.62003C22.1088 6.56011 22.0471 6.51721 21.9766 6.49932C21.9061 6.48144 21.8315 6.48978 21.7667 6.5228C21.7019 6.55582 21.6513 6.61127 21.6243 6.67883C21.5973 6.74638 21.5958 6.82144 21.62 6.89003C23.05 10.09 23 14.79 21.23 17.72Z" fill="black"/>
<path fill-rule="evenodd" clip-rule="evenodd" d="M2.09001 2.67005C3.2811 3.9184 4.5432 5.09703 5.87001 6.20005C5.93499 6.24847 6.01514 6.27209 6.096 6.26664C6.17686 6.2612 6.25312 6.22705 6.31102 6.17035C6.36893 6.11365 6.40468 6.03813 6.41183 5.9574C6.41897 5.87667 6.39705 5.79604 6.35001 5.73005C4.73871 3.58553 2.80198 1.70617 0.610006 0.160053C0.547209 0.118129 0.470913 0.101426 0.396344 0.113278C0.321774 0.125129 0.254416 0.164664 0.207712 0.223991C0.161007 0.283318 0.138391 0.358075 0.144377 0.433343C0.150364 0.508611 0.184511 0.578853 0.240006 0.630053C0.670006 1.00005 1.31001 1.81005 2.09001 2.67005Z" fill="black"/>
<path fill-rule="evenodd" clip-rule="evenodd" d="M5.90004 17.8C5.18004 18.43 3.90004 19.55 2.90004 20.47C1.69004 21.71 0.870035 22.81 0.270035 23.37C0.214541 23.4212 0.180393 23.4915 0.174407 23.5667C0.168421 23.642 0.191037 23.7168 0.237741 23.7761C0.284446 23.8354 0.351804 23.8749 0.426373 23.8868C0.500942 23.8987 0.577238 23.882 0.640035 23.84C2.82747 22.2884 4.7634 20.4098 6.38004 18.27C6.42708 18.204 6.449 18.1234 6.44186 18.0427C6.43471 17.962 6.39896 17.8864 6.34105 17.8297C6.28315 17.773 6.20689 17.7389 6.12603 17.7334C6.04517 17.728 5.96502 17.7516 5.90004 17.8Z" fill="black"/>
<path fill-rule="evenodd" clip-rule="evenodd" d="M18.13 6.11002C23.57 1.33002 22 2.21002 23.76 0.530025C23.806 0.476909 23.8319 0.409333 23.8332 0.33908C23.8345 0.268827 23.811 0.200354 23.767 0.145603C23.723 0.0908521 23.6611 0.053296 23.5922 0.039484C23.5233 0.025672 23.4517 0.0364805 23.39 0.0700247C21.1986 1.61286 19.2619 3.48885 17.65 5.63002C17.5924 5.69484 17.5617 5.77921 17.5643 5.86589C17.5668 5.95256 17.6024 6.03499 17.6637 6.0963C17.725 6.15761 17.8075 6.19318 17.8941 6.19574C17.9808 6.19829 18.0652 6.16763 18.13 6.11002Z" fill="black"/>
<path fill-rule="evenodd" clip-rule="evenodd" d="M23.78 23.47C23.2 22.92 22.32 21.77 21.11 20.56C20.18 19.64 19.03 18.66 18.11 17.89C18.044 17.843 17.9634 17.8211 17.8826 17.8282C17.8019 17.8354 17.7264 17.8711 17.6697 17.929C17.613 17.9869 17.5788 18.0632 17.5734 18.1441C17.568 18.2249 17.5916 18.3051 17.64 18.3701C19.2462 20.5162 21.1838 22.393 23.38 23.93C23.441 23.9831 23.5206 24.0097 23.6012 24.0041C23.6818 23.9985 23.7569 23.961 23.81 23.9C23.863 23.839 23.8897 23.7595 23.884 23.6788C23.8784 23.5982 23.841 23.5231 23.78 23.47Z" fill="black"/>
</g>
<defs>
<clipPath id="clip0_1032_3427">
<rect width="24" height="24" fill="white"/>
</clipPath>
</defs>
</svg>
