<svg width="24" height="24" viewBox="0 0 24 24" fill="none" xmlns="http://www.w3.org/2000/svg">
<g clip-path="url(#clip0_1050_8301)">
<path fill-rule="evenodd" clip-rule="evenodd" d="M14.72 1.00001L17.14 1.24001C17.27 1.24001 17.61 1.43001 17.74 1.36001C17.7417 1.69429 17.7217 2.02833 17.68 2.36001L17.58 7.00001C17.5799 7.09742 17.6171 7.19116 17.6841 7.26188C17.7511 7.33259 17.8427 7.37488 17.94 7.38001C18.0417 7.38004 18.1394 7.34033 18.2123 7.26934C18.2852 7.19835 18.3274 7.1017 18.33 7.00001C18.42 5.90001 18.69 4.83001 18.84 3.74001C18.8982 3.24867 18.9316 2.75471 18.94 2.26001C18.9469 1.77908 18.8966 1.29903 18.79 0.830006C18.7236 0.590129 18.5749 0.381264 18.37 0.240006C18.2572 0.169166 18.1314 0.121568 18 0.100006H17.25L14.73 0.290006C14.6423 0.292372 14.5586 0.327606 14.4957 0.388726C14.4327 0.449846 14.395 0.532392 14.39 0.620006C14.3859 0.666788 14.3913 0.713915 14.4058 0.758581C14.4203 0.803247 14.4436 0.844538 14.4744 0.879995C14.5052 0.915452 14.5428 0.944349 14.585 0.964967C14.6272 0.985585 14.6731 0.997501 14.72 1.00001Z" fill="black"/>
<path fill-rule="evenodd" clip-rule="evenodd" d="M23.76 21.29C23.4744 20.6456 23.0823 20.054 22.6 19.54C21.9689 18.8797 21.3012 18.2554 20.6 17.67C21.1076 17.2719 21.522 16.7675 21.8139 16.1923C22.1059 15.617 22.2684 14.9848 22.29 14.34C22.345 12.949 21.9097 11.5828 21.06 10.48C20.3899 9.56537 19.4552 8.87838 18.3823 8.51178C17.3093 8.14519 16.1497 8.11665 15.06 8.43001C14.1028 8.70643 13.2296 9.21684 12.519 9.91517C11.8085 10.6135 11.283 11.4778 10.99 12.43C10.6806 13.366 10.6184 14.3661 10.8093 15.3333C11.0003 16.3005 11.438 17.2018 12.08 17.95C13.0346 18.9554 14.3446 19.5476 15.73 19.6C16.7607 19.6781 17.7941 19.4887 18.73 19.05C19.11 19.89 19.38 20.82 19.73 21.69C19.9029 22.1293 20.1172 22.5512 20.37 22.95C20.711 23.4139 21.1855 23.7628 21.73 23.95C22.1594 24.0834 22.6231 24.0513 23.03 23.86C23.2264 23.7658 23.4019 23.6332 23.5462 23.47C23.6904 23.3069 23.8006 23.1165 23.87 22.91C24.0297 22.3744 23.9906 21.7991 23.76 21.29ZM22.46 22.68C22.3754 22.7194 22.2833 22.7398 22.19 22.7398C22.0967 22.7398 22.0046 22.7194 21.92 22.68C21.6779 22.5763 21.4625 22.419 21.29 22.22C21.0365 21.9079 20.8122 21.5732 20.62 21.22C20.15 20.38 19.76 19.46 19.27 18.66C18.78 17.86 17.19 18.9 15.8 18.73C14.6687 18.6498 13.6153 18.1248 12.87 17.27C12.3841 16.6434 12.0643 15.9043 11.9402 15.1211C11.8161 14.338 11.8917 13.5362 12.16 12.79C12.4065 12.0456 12.8288 11.3716 13.391 10.825C13.9533 10.2784 14.6389 9.87539 15.39 9.65001C16.2508 9.3903 17.1692 9.3903 18.03 9.65001C18.9021 9.92465 19.6742 10.4498 20.25 11.16C20.9946 12.0529 21.4048 13.1774 21.41 14.34C21.419 14.9015 21.2961 15.4574 21.0512 15.9628C20.8063 16.4682 20.4463 16.9091 20 17.25C19.73 17.44 19.89 17.98 20 18.07C20.58 18.7 21.3 19.41 21.88 20.18C22.2371 20.6331 22.5144 21.1438 22.7 21.69C22.7775 21.9044 22.7982 22.1352 22.76 22.36C22.7433 22.4354 22.7067 22.5048 22.6539 22.5611C22.6011 22.6174 22.5341 22.6585 22.46 22.68Z" fill="black"/>
<path fill-rule="evenodd" clip-rule="evenodd" d="M18.19 13.16C17.925 13.0958 17.6524 13.0689 17.38 13.08C17.385 13.0101 17.385 12.9399 17.38 12.87V12.1C17.6238 12.1212 17.863 12.1785 18.09 12.27C18.1286 12.2908 18.171 12.3037 18.2147 12.3079C18.2584 12.3121 18.3025 12.3075 18.3444 12.2945C18.3863 12.2815 18.4252 12.2602 18.4588 12.232C18.4923 12.2037 18.52 12.169 18.54 12.13C18.5606 12.0921 18.5733 12.0504 18.5774 12.0075C18.5815 11.9646 18.5768 11.9213 18.5638 11.8802C18.5507 11.8391 18.5294 11.801 18.5013 11.7684C18.4731 11.7357 18.4387 11.709 18.4 11.69C18.0725 11.5101 17.7178 11.3852 17.35 11.32V10.32C17.3425 10.2325 17.3023 10.151 17.2374 10.0917C17.1726 10.0324 17.0878 9.99968 17 10C16.9129 9.99428 16.827 10.0222 16.76 10.0781C16.693 10.1339 16.6501 10.2134 16.64 10.3C16.57 10.61 16.53 10.93 16.47 11.24C16.1938 11.2331 15.918 11.2634 15.65 11.33C15.4496 11.3658 15.2584 11.4415 15.0878 11.5526C14.9172 11.6637 14.7706 11.8079 14.6568 11.9768C14.5431 12.1456 14.4643 12.3355 14.4254 12.5354C14.3864 12.7352 14.388 12.9408 14.43 13.14C14.4528 13.3824 14.5438 13.6135 14.6925 13.8064C14.8411 13.9993 15.0414 14.1461 15.27 14.23C15.5428 14.3267 15.8306 14.3741 16.12 14.37V15.02C16.12 15.24 16.18 15.47 16.2 15.7C15.6752 15.7423 15.152 15.6009 14.72 15.3C14.6448 15.2501 14.5544 15.2286 14.4649 15.2393C14.3754 15.25 14.2925 15.2921 14.2312 15.3583C14.1699 15.4244 14.1341 15.5101 14.1302 15.6002C14.1263 15.6903 14.1546 15.7788 14.21 15.85C14.79 16.3543 15.5314 16.6346 16.3 16.64C16.3 16.95 16.36 17.26 16.4 17.57C16.4076 17.6672 16.4524 17.7578 16.525 17.823C16.5976 17.8881 16.6925 17.9229 16.79 17.92C16.8395 17.9187 16.8882 17.9076 16.9332 17.8871C16.9783 17.8667 17.0188 17.8374 17.0524 17.8011C17.086 17.7647 17.1119 17.722 17.1287 17.6754C17.1454 17.6289 17.1527 17.5794 17.15 17.53C17.15 17.22 17.15 16.91 17.21 16.6C17.389 16.5863 17.5664 16.5562 17.74 16.51C17.9902 16.4579 18.2269 16.3549 18.4355 16.2073C18.6441 16.0596 18.82 15.8706 18.9523 15.652C19.0846 15.4334 19.1704 15.1898 19.2044 14.9366C19.2384 14.6833 19.2199 14.4258 19.15 14.18C19.0975 13.9389 18.9805 13.7166 18.8114 13.5369C18.6423 13.3572 18.4275 13.2269 18.19 13.16ZM15.54 12.92C15.42 12.43 15.81 12.21 16.26 12.11C16.26 12.35 16.15 12.58 16.13 12.82C16.11 13.06 16.13 13.02 16.13 13.12C16.0069 13.1303 15.8831 13.1303 15.76 13.12C15.7082 13.1107 15.6601 13.087 15.6212 13.0516C15.5823 13.0162 15.5542 12.9706 15.54 12.92ZM17.29 15.55V15.01V14.33C17.4164 14.3198 17.5435 14.3198 17.67 14.33C17.7233 14.3265 17.7763 14.3401 17.8213 14.3689C17.8663 14.3977 17.9009 14.4401 17.92 14.49C18.16 15.05 17.78 15.37 17.29 15.55Z" fill="black"/>
<path fill-rule="evenodd" clip-rule="evenodd" d="M13.18 19.33C12.33 19.68 11.49 20.01 10.63 20.33C10.0665 20.5129 9.49204 20.6599 8.90998 20.77C8.54086 20.741 8.16947 20.7713 7.80998 20.86C7.65425 20.6276 7.51072 20.3873 7.37998 20.14C6.89998 19.22 6.52998 18.14 6.09998 17.33C5.49998 16.2 4.92998 15.1 4.34998 14C3.76998 12.9 3.17998 11.8 2.63998 10.68C1.99998 9.31001 1.33998 7.90001 0.769976 6.47001C1.99875 5.57973 3.27388 4.75524 4.58998 4.00001C5.9918 3.19221 7.46872 2.5224 8.99998 2.00001C9.78842 1.63125 10.6224 1.36895 11.48 1.22001C12.2577 1.81641 12.8845 2.5871 13.31 3.47001C14.13 5.00001 14.65 6.65001 15.28 8.00001C15.299 8.04728 15.3272 8.09035 15.3629 8.12674C15.3986 8.16313 15.4411 8.19213 15.4879 8.2121C15.5348 8.23206 15.5852 8.24259 15.6362 8.24309C15.6871 8.24359 15.7377 8.23405 15.785 8.21501C15.8323 8.19597 15.8753 8.1678 15.9117 8.13212C15.9481 8.09643 15.9771 8.05393 15.9971 8.00704C16.017 7.96014 16.0276 7.90978 16.0281 7.85881C16.0286 7.80785 16.019 7.75728 16 7.71001C15.4318 5.84475 14.7369 4.0205 13.92 2.25001C13.4835 1.44801 12.884 0.746288 12.16 0.190008C11.8404 0.00286035 11.4647 -0.0644885 11.1 8.05408e-06C10.2419 0.194063 9.4021 0.46172 8.58998 0.800008C7.31762 1.29044 6.08977 1.88931 4.91998 2.59001C-1.42002 6.38001 -0.700024 5.59001 2.20998 12.26C2.61998 13.26 3.05998 14.18 3.52998 15.12C3.99998 16.06 4.49998 17 4.99998 17.9C5.49998 18.8 5.85998 19.75 6.36998 20.65C6.60992 21.0728 6.89491 21.4685 7.21998 21.83C7.29364 21.9039 7.38353 21.9595 7.48248 21.9925C7.58144 22.0255 7.68673 22.0349 7.78998 22.02C8.23919 21.9438 8.68334 21.8402 9.11998 21.71C9.73433 21.5529 10.3387 21.3593 10.93 21.13C11.8 20.8 12.64 20.41 13.48 20.01C13.526 19.9906 13.5676 19.962 13.6023 19.926C13.637 19.89 13.6641 19.8473 13.6818 19.8006C13.6996 19.7539 13.7077 19.704 13.7057 19.6541C13.7036 19.6041 13.6915 19.5551 13.67 19.51C13.6287 19.4213 13.554 19.3526 13.4621 19.3189C13.3703 19.2851 13.2689 19.2891 13.18 19.33Z" fill="black"/>
<path fill-rule="evenodd" clip-rule="evenodd" d="M6.38998 6.75L7.50998 6.19C8.62998 5.59 9.73998 4.98 10.91 4.41C10.9908 4.3651 11.0525 4.29225 11.0835 4.20512C11.1145 4.11799 11.1126 4.02255 11.0783 3.93669C11.0439 3.85082 10.9795 3.78043 10.8969 3.7387C10.8144 3.69697 10.7195 3.68677 10.63 3.71C9.70998 4.01 8.80998 4.28 7.92998 4.63C7.53998 4.78 7.16998 4.95 6.79998 5.13C6.42724 5.30989 6.06648 5.51365 5.71998 5.74C4.91904 6.27712 4.16622 6.88273 3.46998 7.55C3.40629 7.60444 3.36495 7.68048 3.35387 7.76352C3.3428 7.84657 3.36278 7.93078 3.40998 8C3.46334 8.06852 3.54155 8.11324 3.62766 8.12447C3.71377 8.1357 3.80084 8.11254 3.86998 8.06C4.32998 7.77 4.77998 7.52 5.24998 7.28C5.71998 7.04 5.99998 6.94 6.38998 6.75Z" fill="black"/>
<path fill-rule="evenodd" clip-rule="evenodd" d="M13.14 6.71001C13.1186 6.6657 13.0887 6.62608 13.0519 6.59348C13.0151 6.56087 12.9722 6.53592 12.9256 6.52009C12.8791 6.50426 12.8298 6.49787 12.7808 6.50129C12.7317 6.50471 12.6839 6.51788 12.64 6.54001C11.71 6.92001 10.78 7.28001 9.85995 7.69001C9.46995 7.86001 9.07995 8.05001 8.69995 8.24001C8.31995 8.43001 7.93995 8.65001 7.57995 8.88001C6.71995 9.41001 5.91995 10 5.09995 10.6C5.05738 10.6192 5.01937 10.6473 4.98845 10.6823C4.95752 10.7173 4.93438 10.7585 4.92055 10.8031C4.90672 10.8477 4.90253 10.8948 4.90824 10.9411C4.91395 10.9875 4.92944 11.0321 4.95368 11.072C4.97792 11.112 5.01037 11.1463 5.04887 11.1727C5.08737 11.1992 5.13104 11.2172 5.17701 11.2255C5.22298 11.2338 5.27019 11.2323 5.31551 11.221C5.36084 11.2097 5.40326 11.1889 5.43995 11.16C6.33995 10.73 7.24995 10.36 8.14995 9.94001L9.28995 9.36001C9.66995 9.16001 10.04 8.95001 10.4 8.74001C11.27 8.24001 12.11 7.74001 12.97 7.21001C13.0143 7.1887 13.0539 7.15877 13.0865 7.12197C13.1191 7.08517 13.144 7.04224 13.1599 6.99568C13.1757 6.94913 13.1821 6.89989 13.1787 6.85084C13.1753 6.80179 13.1621 6.75392 13.14 6.71001Z" fill="black"/>
<path fill-rule="evenodd" clip-rule="evenodd" d="M8.73998 12.38C8.54268 12.4537 8.352 12.544 8.16998 12.65C7.98795 12.7481 7.81697 12.8654 7.65998 13C7.29871 13.3042 6.96415 13.6387 6.65998 14C6.62035 14.0241 6.58625 14.0563 6.55989 14.0944C6.53353 14.1326 6.51551 14.1759 6.507 14.2215C6.4985 14.2671 6.4997 14.3139 6.51052 14.359C6.52135 14.4041 6.54156 14.4464 6.56984 14.4832C6.59812 14.52 6.63382 14.5503 6.67463 14.5724C6.71544 14.5944 6.76044 14.6076 6.80669 14.6111C6.85294 14.6145 6.8994 14.6082 6.94304 14.5925C6.98669 14.5768 7.02653 14.5521 7.05998 14.52C7.52998 14.28 8.05998 14.13 8.48998 13.89C8.75998 13.75 9.00998 13.58 9.25998 13.42C9.50998 13.26 10.01 12.88 10.41 12.66C10.5028 12.6269 10.5787 12.5582 10.6209 12.4691C10.6631 12.38 10.6681 12.2778 10.635 12.185C10.6018 12.0922 10.5332 12.0163 10.4441 11.9741C10.355 11.9319 10.2528 11.9269 10.16 11.96C9.67398 12.0529 9.19834 12.1936 8.73998 12.38Z" fill="black"/>
</g>
<defs>
<clipPath id="clip0_1050_8301">
<rect width="24" height="24" fill="white"/>
</clipPath>
</defs>
</svg>
