<svg width="24" height="24" viewBox="0 0 24 24" fill="none" xmlns="http://www.w3.org/2000/svg">
<g clip-path="url(#clip0_1050_8289)">
<path fill-rule="evenodd" clip-rule="evenodd" d="M23.81 19.36C23.68 18.67 24.48 17.53 20.81 17.14C12.58 16.32 5.69998 18 1.31998 18C1.22981 18 1.14333 18.0358 1.07957 18.0996C1.0158 18.1634 0.979983 18.2498 0.979983 18.34C0.979983 18.4302 1.0158 18.5167 1.07957 18.5804C1.14333 18.6442 1.22981 18.68 1.31998 18.68C5.06998 18.68 12.11 17.48 18.6 17.99C19.7589 18.0672 20.9114 18.2208 22.05 18.45C22.2565 18.5037 22.4525 18.5916 22.63 18.71C22.43 18.82 22.63 19.36 22.68 19.54C22.82 20.3473 22.82 21.1727 22.68 21.98C22.46 23.15 19.17 22.76 18.06 22.77C14.19 22.77 4.54998 23.4 1.67998 22.93C1.4843 22.9243 1.29528 22.8576 1.13931 22.7393C0.983347 22.621 0.868213 22.4569 0.809983 22.27C0.749983 22.03 0.729983 19.1 0.729983 19.02C0.849983 18.02 0.579983 18.6 0.729983 18.02C1.41209 16.5501 1.97718 15.0288 2.41998 13.47C2.5808 12.6427 2.8639 11.8439 3.25998 11.1C3.71998 10.76 2.91998 9.01001 1.25998 13.4C0.771871 14.852 0.413795 16.3446 0.189983 17.86C0.118022 18.5944 0.0879732 19.3322 0.0999828 20.07C0.209983 21.4 -0.520017 23.3 1.54998 23.7C3.38357 23.9694 5.23803 24.0698 7.08998 24C21.74 24 21.09 24.12 22.21 23.8C23.71 23.35 23.94 22.39 23.94 20.8C23.9383 20.3172 23.8948 19.8354 23.81 19.36Z" fill="black"/>
<path fill-rule="evenodd" clip-rule="evenodd" d="M10.08 20.8C12.51 20.8 13.36 20.67 14.48 20.63C15.87 20.25 15.48 20.69 15.64 21.5C15.6539 21.5814 15.6962 21.6553 15.7593 21.7086C15.8225 21.7618 15.9024 21.7911 15.985 21.7911C16.0676 21.7911 16.1476 21.7618 16.2107 21.7086C16.2738 21.6553 16.3161 21.5814 16.33 21.5C16.33 19.67 16.63 19.69 14.48 19.61C12.5694 19.5014 10.6527 19.646 8.78001 20.04C7.85001 20.31 7.98001 20.48 8.04001 21.35C8.04001 21.56 8.04001 21.9 8.39001 21.89C8.46979 21.8877 8.54581 21.8556 8.60316 21.8001C8.66051 21.7446 8.69506 21.6697 8.70001 21.59C8.71001 20.78 8.25001 20.87 10.08 20.8Z" fill="black"/>
<path fill-rule="evenodd" clip-rule="evenodd" d="M4.51 11.45C4.65 11.91 8.09 11.8 8.33 11.77C8.62057 11.7351 8.89489 11.617 9.12 11.43C9.21582 11.3257 9.27239 11.1914 9.28 11.05V8.55999C9.2517 8.14534 9.18814 7.73385 9.09 7.32999C9.04266 7.09762 8.91806 6.88812 8.73649 6.7356C8.55491 6.58307 8.32705 6.4965 8.09 6.48999C7.71078 6.46977 7.3364 6.5826 7.0315 6.80899C6.72661 7.03538 6.51032 7.36113 6.42 7.72999C6.29494 7.5818 6.15411 7.44767 6 7.32999C5.82 7.19999 5.29 6.54999 5.08 6.50999C4.31 6.34999 4 6.99999 4 7.81999C4.00806 9.04726 4.17957 10.268 4.51 11.45ZM4.91 7.81999C4.91 7.50999 4.85 7.42999 5.09 7.67999C5.33 7.92999 5.81 8.67999 5.97 8.88999C6.0304 8.94776 6.10204 8.99251 6.18045 9.02145C6.25887 9.05038 6.3424 9.0629 6.42586 9.05821C6.50931 9.05352 6.59091 9.03173 6.66559 8.99419C6.74028 8.95665 6.80645 8.90416 6.86 8.83999C7.86 7.83999 7.96 6.71999 8.17 8.93999C8.33 10.62 8.17 10.59 8.25 10.87C8.16939 10.8982 8.08525 10.915 8 10.92C5.11 11.37 5 10.92 4.91 10.03C4.87 9.35999 4.88 8.39999 4.91 7.81999Z" fill="black"/>
<path fill-rule="evenodd" clip-rule="evenodd" d="M10.14 9.81C10.1446 9.85695 10.1606 9.90205 10.1867 9.94141C10.2127 9.98076 10.2479 10.0132 10.2893 10.0358C10.3307 10.0585 10.3769 10.0707 10.4241 10.0714C10.4713 10.0722 10.5179 10.0614 10.56 10.04C11.9402 10.0271 13.3197 10.104 14.69 10.27C15.62 10.36 16.59 10.27 17.52 10.32C17.8365 10.2865 18.1562 10.3395 18.445 10.4734C18.7338 10.6072 18.9809 10.8169 19.16 11.08C19.6034 11.7732 19.9945 12.4986 20.33 13.25C21.1011 14.5007 21.7699 15.8116 22.33 17.17C22.33 17.64 23.48 17.58 22.73 16.25C22.4832 15.7136 22.2792 15.1586 22.12 14.59C20.64 11.52 20.42 10.18 19.12 9.5C19.26 6 18.97 6.23 15.28 5.9C15.3907 5.42976 15.3907 4.94023 15.28 4.47C16.4218 4.59437 17.5761 4.53699 18.7 4.3C20.19 3.81 19.57 2.23 19.56 1.3C19.5799 1.03262 19.5459 0.763964 19.46 0.509996C19.3573 0.314279 19.1927 0.158081 18.9919 0.0658112C18.7911 -0.0264586 18.5653 -0.0496025 18.35 -3.82401e-06C17.84 -3.82401e-06 19.45 -3.8296e-06 13.79 0.229996C12.9823 0.274002 12.1796 0.384374 11.39 0.559996C10.8 0.819996 11.34 1.56 11.74 1.24C12.17 1.24 10.88 1.01 17.41 1.08C18.7 1.3 18.41 0.809996 18.41 1.29C18.4881 1.90005 18.5082 2.51615 18.47 3.13C18.69 3.43 17.47 3.4 17.12 3.4C11.12 3.4 11.32 3.49 11.12 3.32C11.0297 3.19571 10.9871 3.04309 11 2.89C11 2.38 11.34 0.749996 10.82 0.639996C10.7719 0.635908 10.7235 0.641535 10.6776 0.656541C10.6317 0.671546 10.5893 0.695625 10.5529 0.727345C10.5165 0.759064 10.4869 0.797777 10.4658 0.841181C10.4447 0.884584 10.4325 0.931792 10.43 0.979996C10.4112 1.27303 10.4112 1.56696 10.43 1.86C10.3539 2.27915 10.3138 2.70402 10.31 3.13C10.3286 3.37613 10.4233 3.61037 10.581 3.80029C10.7386 3.99021 10.9515 4.1264 11.19 4.19C11.45 4.26 13.99 4.41 14.24 4.42C14.1489 4.81342 14.1319 5.22036 14.19 5.62C14.26 5.98 14.38 5.75 13.19 5.85C12.3637 5.89424 11.5484 6.05933 10.77 6.34C10.5274 6.45347 10.3244 6.63701 10.1872 6.86694C10.0499 7.09687 9.98474 7.36265 9.99997 7.63C9.99997 8 10.12 9.73 10.14 9.81ZM11 7.23C13 6.84 14.15 6.99 17.12 7.11C18.06 7.11 18.22 7.11 18.29 8.79V9.25C17.0949 9.16396 15.8951 9.16396 14.7 9.25C13.3653 9.22225 12.0301 9.26565 10.7 9.38C10.6359 8.64986 10.7385 7.9147 11 7.23Z" fill="black"/>
<path fill-rule="evenodd" clip-rule="evenodd" d="M16.29 16C16.38 16 18.15 16.43 19.02 15.48C19.0914 15.4245 19.1386 15.3436 19.1516 15.2541C19.1647 15.1646 19.1426 15.0736 19.09 15C18.98 14.85 15.64 14.89 15.5 15.62C15.42 15.93 16.21 15.91 16.29 16Z" fill="black"/>
<path fill-rule="evenodd" clip-rule="evenodd" d="M18.68 13.38C18.7157 13.3526 18.7455 13.3184 18.7679 13.2793C18.7903 13.2403 18.8047 13.1972 18.8102 13.1525C18.8158 13.1079 18.8125 13.0626 18.8004 13.0192C18.7884 12.9759 18.7678 12.9353 18.74 12.9C18.63 12.75 15.3 12.79 15.15 13.52C15.07 13.89 15.86 13.87 15.95 13.9C16.04 13.93 17.8 14.33 18.68 13.38Z" fill="black"/>
<path fill-rule="evenodd" clip-rule="evenodd" d="M9.69001 15.57C9.61001 15.93 10.4 15.91 10.48 15.95C10.56 15.99 12.34 16.38 13.21 15.43C13.2814 15.3745 13.3286 15.2936 13.3416 15.2041C13.3547 15.1146 13.3326 15.0235 13.28 14.95C13.16 14.8 9.83001 14.84 9.69001 15.57Z" fill="black"/>
<path fill-rule="evenodd" clip-rule="evenodd" d="M10.13 13.9C10.22 13.9 11.99 14.33 12.86 13.38C12.8976 13.3543 12.9294 13.321 12.9535 13.2823C12.9777 13.2437 12.9935 13.2004 13.0001 13.1553C13.0067 13.1102 13.0038 13.0643 12.9918 13.0203C12.9797 12.9764 12.9587 12.9354 12.93 12.9C12.82 12.75 9.47997 12.79 9.33997 13.52C9.25997 13.89 10.05 13.87 10.13 13.9Z" fill="black"/>
<path fill-rule="evenodd" clip-rule="evenodd" d="M3.88001 15.57C3.80001 15.93 4.59001 15.91 4.67001 15.95C4.75001 15.99 6.53001 16.38 7.40001 15.43C7.45856 15.3768 7.49736 15.3053 7.51007 15.2272C7.52278 15.1491 7.50866 15.069 7.47001 15C7.35001 14.8 4.00001 14.84 3.88001 15.57Z" fill="black"/>
<path fill-rule="evenodd" clip-rule="evenodd" d="M4.31997 13.9C4.39997 13.9 6.17997 14.33 7.04997 13.38C7.12139 13.3245 7.16856 13.2436 7.18161 13.1541C7.19466 13.0646 7.17257 12.9736 7.11997 12.9C7.00997 12.75 3.66997 12.79 3.52997 13.52C3.44997 13.89 4.23997 13.87 4.31997 13.9Z" fill="black"/>
</g>
<defs>
<clipPath id="clip0_1050_8289">
<rect width="24" height="24" fill="white"/>
</clipPath>
</defs>
</svg>
