<svg width="24" height="24" viewBox="0 0 24 24" fill="none" xmlns="http://www.w3.org/2000/svg">
<g clip-path="url(#clip0_1033_3907)">
<path d="M16.87 10.48C16.8368 10.4018 16.774 10.3399 16.6952 10.308C16.6164 10.2761 16.5282 10.2769 16.45 10.31C16.3718 10.3432 16.3099 10.406 16.278 10.4848C16.2461 10.5636 16.2468 10.6518 16.28 10.73C16.73 11.88 16.42 15.68 14.91 17.22C12.35 19.87 5 18.65 5 14.09C5.08065 12.8 5.53219 11.5607 6.30033 10.5211C7.06847 9.48153 8.12052 8.68595 9.33 8.23C9.96898 9.14029 10.8758 9.82881 11.9242 10.1998C12.9727 10.5708 14.1107 10.6058 15.18 10.3C15.2635 10.2828 15.3368 10.233 15.3837 10.1618C15.4306 10.0905 15.4472 10.0035 15.43 9.92C15.4128 9.83646 15.363 9.76319 15.2918 9.7163C15.2205 9.66942 15.1335 9.65276 15.05 9.67C13.05 9.93 10.35 8.43 9.31 7.14C9.26889 7.07768 9.20471 7.03423 9.13157 7.01923C9.05843 7.00423 8.98233 7.01889 8.92 7.06C8.85767 7.10111 8.81423 7.1653 8.79923 7.23844C8.78423 7.31157 8.79889 7.38768 8.84 7.45C8.89 7.55 8.95 7.64 9 7.73C8.01238 8.07675 7.11047 8.631 6.35496 9.35546C5.59945 10.0799 5.00786 10.9578 4.62 11.93C1.3 19.49 14 22.58 16.53 16.29C17.08 14.9 17.48 11.87 16.87 10.48Z" fill="black"/>
<path d="M1.82 18.48C2.82 18.38 0.250001 13.33 4.67 8.48001C7.2 5.72001 10.94 4.28001 14.23 6.09001C14.2662 6.11662 14.3076 6.13533 14.3514 6.1449C14.3953 6.15447 14.4407 6.15469 14.4847 6.14556C14.5287 6.13642 14.5702 6.11814 14.6067 6.09188C14.6431 6.06563 14.6736 6.03199 14.6962 5.99317C14.7188 5.95435 14.733 5.91121 14.7378 5.86655C14.7426 5.8219 14.738 5.77673 14.7242 5.73398C14.7104 5.69124 14.6877 5.65187 14.6577 5.61846C14.6277 5.58504 14.591 5.55831 14.55 5.54001C9.18 2.22001 1.62 7.06001 1.25 14C1.20638 15.425 1.29341 16.8509 1.51 18.26C1.52832 18.3268 1.5692 18.3853 1.62571 18.4254C1.68222 18.4655 1.75087 18.4848 1.82 18.48Z" fill="black"/>
<path d="M22.53 5C22.3 4.84 22.07 4.93 21.94 4.91C21.4712 4.85436 21.0346 4.64309 20.7 4.31C20.3371 3.79464 20.0976 3.20272 20 2.58C19.8959 1.94894 19.869 1.30756 19.92 0.670003C19.83 -0.209997 19.08 -0.109997 18.92 0.320003C18.92 0.420003 18.77 4.32 16.03 5.11C15.9875 5.11345 15.9463 5.12622 15.9094 5.1474C15.8724 5.16857 15.8405 5.19763 15.8161 5.23251C15.7916 5.26739 15.7751 5.30723 15.7678 5.34921C15.7605 5.39118 15.7625 5.43425 15.7737 5.47535C15.7849 5.51646 15.805 5.55459 15.8327 5.58703C15.8603 5.61947 15.8947 5.64543 15.9335 5.66306C15.9723 5.68069 16.0145 5.68956 16.0571 5.68903C16.0997 5.6885 16.1417 5.67859 16.18 5.66C16.8111 5.46775 17.3941 5.1437 17.8906 4.70928C18.3871 4.27486 18.7857 3.73997 19.06 3.14C19.1811 3.81474 19.4585 4.45175 19.87 5C20.1732 5.34162 20.5639 5.59402 21 5.73C20.2189 6.14608 19.6202 6.83745 19.32 7.67C19 6.18 16.89 5.16 16.72 5.85C16.7014 5.93208 16.7148 6.01817 16.7576 6.09067C16.8003 6.16316 16.8692 6.21658 16.95 6.24C17.328 6.33789 17.6732 6.53462 17.95 6.81C18.4285 7.29279 18.704 7.94045 18.72 8.62C18.77 8.95 18.72 9.2 18.92 9.41C19.31 9.78 19.63 9.36 19.85 8.87C20.21 8.07 20.08 7.65 20.98 6.97C21.88 6.29 22.81 5.97 22.78 5.39C22.7706 5.31031 22.7432 5.2338 22.6999 5.16624C22.6566 5.09868 22.5985 5.04184 22.53 5Z" fill="black"/>
<path d="M5.36001 20.13C5.09001 19.94 5.14001 19.92 4.75001 19.01C4.66001 18.79 4.75001 18.41 4.35001 18.28C4.21331 18.2272 4.06134 18.2301 3.92673 18.288C3.79212 18.346 3.68559 18.4544 3.63001 18.59C3.39001 19.11 3.47001 19.84 2.68001 20.36C1.89001 20.88 1.44001 20.67 1.53001 21.1C1.62001 21.53 1.92001 21.31 2.23001 21.24C2.30001 21.58 2.62001 21.36 3.16001 21.97C3.49194 22.3515 3.66702 22.8446 3.65001 23.35C3.72001 23.8 3.89001 24.1 4.32001 23.97C4.75002 23.84 4.61001 23.54 4.63001 23.44C4.75846 23.0871 4.92974 22.7512 5.14001 22.44C5.60001 21.8 6.89001 21.44 6.52001 20.73C6.32001 20.36 5.87002 20.5 5.36001 20.13ZM4.18001 22.13C3.91335 21.6401 3.50099 21.2452 3.00001 21C3.40522 20.791 3.74965 20.481 4.00001 20.1C4.10001 19.96 4.00001 19.73 4.21001 20.39C4.3866 20.7337 4.66635 21.0134 5.01002 21.19C4.66325 21.4253 4.3785 21.7409 4.18001 22.11V22.13Z" fill="black"/>
<path d="M19.46 10.52C19.4374 10.4484 19.3874 10.3887 19.3208 10.354C19.2542 10.3193 19.1766 10.3125 19.105 10.335C19.0334 10.3576 18.9737 10.4076 18.939 10.4742C18.9043 10.5408 18.8974 10.6184 18.92 10.69C19.37 12.69 18.98 16.9 18.62 18.82C18.6142 18.8974 18.6359 18.9743 18.6812 19.0373C18.7266 19.1003 18.7926 19.1453 18.8678 19.1644C18.9431 19.1835 19.0226 19.1755 19.0925 19.1418C19.1624 19.1081 19.2181 19.0508 19.25 18.98C20.21 16 20.63 13.49 19.46 10.52Z" fill="black"/>
<path d="M12 15.8C12.0308 15.7702 12.0554 15.7344 12.0721 15.6949C12.0889 15.6554 12.0975 15.6129 12.0975 15.57C12.0975 15.5271 12.0889 15.4846 12.0721 15.4451C12.0554 15.4056 12.0308 15.3699 12 15.34C11.63 14.91 11.28 15.9 10.21 15.57C9.73565 15.415 9.318 15.1227 9.00999 14.73C8.96928 14.6745 8.91015 14.6353 8.84319 14.6194C8.77622 14.6035 8.70578 14.6119 8.64446 14.6432C8.58314 14.6745 8.53494 14.7265 8.50847 14.7901C8.48201 14.8536 8.479 14.9245 8.49999 14.99C9.18999 17 10.86 17.14 12 15.8Z" fill="black"/>
<path d="M12.71 13C13.1026 12.9509 13.5007 13.0242 13.85 13.21C13.9111 13.2669 13.9915 13.2986 14.075 13.2986C14.1585 13.2986 14.2389 13.2669 14.3 13.21C14.7 12.75 13.22 11.62 12.17 12.02C11.9549 12.0905 11.7559 12.2028 11.5843 12.3503C11.4127 12.4979 11.2719 12.6779 11.17 12.88C11.1236 12.9383 11.1023 13.0127 11.1107 13.0868C11.1191 13.1609 11.1567 13.2286 11.215 13.275C11.2733 13.3214 11.3477 13.3427 11.4218 13.3343C11.4959 13.3259 11.5636 13.2883 11.61 13.23C11.943 13.0386 12.3282 12.958 12.71 13Z" fill="black"/>
<path d="M9.5 13C9.54774 13.0583 9.6167 13.0953 9.69172 13.1028C9.76673 13.1103 9.84165 13.0877 9.9 13.04C9.95835 12.9922 9.99534 12.9233 10.0028 12.8483C10.0103 12.7732 9.98774 12.6983 9.94 12.64C9.79298 12.3682 9.57774 12.1394 9.31547 11.9761C9.0532 11.8127 8.75293 11.7204 8.44419 11.7083C8.13544 11.6962 7.82886 11.7647 7.55461 11.907C7.28035 12.0493 7.04786 12.2606 6.88 12.52C6.8444 12.5463 6.81464 12.5797 6.7926 12.618C6.77056 12.6564 6.75672 12.6989 6.75195 12.7429C6.74719 12.7869 6.7516 12.8314 6.7649 12.8736C6.77821 12.9158 6.80013 12.9548 6.82927 12.9881C6.85841 13.0214 6.89414 13.0483 6.9342 13.0671C6.97427 13.0859 7.0178 13.0962 7.06203 13.0973C7.10627 13.0984 7.15026 13.0903 7.19122 13.0736C7.23218 13.0568 7.26922 13.0318 7.3 13C7.65094 12.819 8.0476 12.7459 8.44 12.79C8.8065 12.7498 9.17652 12.8231 9.5 13Z" fill="black"/>
</g>
<defs>
<clipPath id="clip0_1033_3907">
<rect width="24" height="24" fill="white"/>
</clipPath>
</defs>
</svg>
