<svg width="24" height="24" viewBox="0 0 24 24" fill="none" xmlns="http://www.w3.org/2000/svg">
<g clip-path="url(#clip0_1033_3923)">
<path fill-rule="evenodd" clip-rule="evenodd" d="M5.39001 3.45001C6.69587 2.32399 8.22645 1.48882 9.88001 1.00001C9.96886 0.97747 10.0451 0.920555 10.092 0.84179C10.1389 0.763025 10.1526 0.668861 10.13 0.580013C10.1075 0.491166 10.0506 0.414913 9.97179 0.368029C9.89302 0.321144 9.79886 0.30747 9.71001 0.330013C7.93432 0.79204 6.2775 1.62726 4.85001 2.78001C-1.69999 7.88001 -1.14999 15.83 3.19001 20.32C5.01575 22.1584 7.42242 23.307 10 23.57C10.4648 23.6575 10.9372 23.6977 11.41 23.69C11.88 23.63 11.66 23.01 10.92 23.02C1.60001 22.66 -3.16999 10.58 5.39001 3.45001Z" fill="black"/>
<path fill-rule="evenodd" clip-rule="evenodd" d="M14.29 0.630002C14.2146 0.634726 14.1436 0.666796 14.0902 0.720192C14.0368 0.773587 14.0047 0.844637 14 0.920002C14 1.47 14.63 0.920002 16.36 1.82C17.8562 2.75198 19.1736 3.94409 20.25 5.34C21.37 6.76 22 7.34 22.42 9.16C22.61 9.89 23.26 9.91 23.26 9.35C22.29 5 18.19 0.540002 14.29 0.630002Z" fill="black"/>
<path fill-rule="evenodd" clip-rule="evenodd" d="M23.6 11.72C22.8187 12.3319 22.0834 13.0004 21.4 13.72C18.4214 16.1939 15.6857 18.9464 13.23 21.94C12.86 22.29 12.23 23.38 12.23 21.74C12.23 18.94 13.73 16.52 15.72 14.58C17.71 12.64 19.92 10.97 22.58 11.04L23.48 11.2C23.77 11.2 24.04 10.81 23.55 10.47C23.2505 10.3817 22.9418 10.3281 22.63 10.31C19.63 10.06 17.05 11.71 14.92 13.76C13.8163 14.7729 12.9438 16.0118 12.3623 17.3924C11.7807 18.7729 11.5037 20.2627 11.55 21.76C11.61 23.4 12.32 23.4 12.69 23.26C16.23 20.92 21.4 15.26 23.88 12.35C23.9636 12.3129 24.0289 12.2441 24.0618 12.1588C24.0946 12.0734 24.0922 11.9786 24.055 11.895C24.0179 11.8115 23.9491 11.7461 23.8638 11.7133C23.7784 11.6805 23.6836 11.6829 23.6 11.72Z" fill="black"/>
<path fill-rule="evenodd" clip-rule="evenodd" d="M8.77999 17.3801C7.44999 16.6901 5.71999 15.3801 5.45999 13.9101C5.4567 13.8707 5.44569 13.8323 5.42758 13.7972C5.40947 13.762 5.38462 13.7308 5.35444 13.7053C5.32426 13.6797 5.28935 13.6604 5.2517 13.6483C5.21404 13.6363 5.17438 13.6318 5.13499 13.6351C5.09559 13.6384 5.05723 13.6494 5.02209 13.6675C4.98694 13.6856 4.95571 13.7104 4.93018 13.7406C4.90464 13.7708 4.8853 13.8057 4.87326 13.8434C4.86121 13.881 4.8567 13.9207 4.85999 13.9601C4.85999 18.0801 11.29 19.6801 11.21 18.4601C11.21 18.3699 11.1742 18.2834 11.1104 18.2197C11.0466 18.1559 10.9602 18.1201 10.87 18.1201C9.99999 18.1201 9.84999 17.9301 8.77999 17.3801Z" fill="black"/>
<path fill-rule="evenodd" clip-rule="evenodd" d="M6.14999 8.46C6.58688 8.24109 7.08466 8.17532 7.56341 8.27325C8.04217 8.37118 8.47414 8.62712 8.78999 9C8.85999 9.09 9.49999 10 9.64999 10C9.7269 10.0056 9.80343 9.98492 9.86703 9.94131C9.93063 9.8977 9.97751 9.83376 9.99999 9.76C10.0258 9.59097 10.0051 9.4181 9.93999 9.26C9.62296 8.47437 9.05751 7.81409 8.32999 7.38C7.94651 7.16541 7.51442 7.05273 7.07499 7.05273C6.63555 7.05273 6.20346 7.16541 5.81999 7.38C5.00999 7.86 4.81999 8.38 4.48999 9.33C4.43839 9.47753 4.41796 9.63416 4.42999 9.79C4.48999 9.98 4.58999 10.11 4.81999 10.06C5.15948 9.44827 5.6106 8.90557 6.14999 8.46Z" fill="black"/>
<path fill-rule="evenodd" clip-rule="evenodd" d="M15.6 9.48999C16.04 9.43999 15.49 9.10999 16.77 8.48999C17.396 8.20666 18.0903 8.10946 18.77 8.20999C19.0619 8.30442 19.3264 8.46848 19.5407 8.688C19.755 8.90753 19.9126 9.17592 20 9.46999C20 9.56017 20.0358 9.64665 20.0996 9.71041C20.1633 9.77417 20.2498 9.80999 20.34 9.80999C20.4302 9.80999 20.5166 9.77417 20.5804 9.71041C20.6442 9.64665 20.68 9.56017 20.68 9.46999C20.6422 8.98393 20.4735 8.51717 20.1918 8.11926C19.9101 7.72136 19.5259 7.40715 19.08 7.20999C18.4399 7.02363 17.7583 7.03673 17.1258 7.24754C16.4934 7.45835 15.9402 7.85687 15.54 8.38999C15.41 8.54999 15.08 9.03999 15.13 9.20999C15.1371 9.26206 15.1559 9.31185 15.1849 9.35566C15.2139 9.39948 15.2525 9.4362 15.2976 9.4631C15.3428 9.48999 15.3934 9.50638 15.4457 9.51104C15.4981 9.51569 15.5508 9.5085 15.6 9.48999Z" fill="black"/>
</g>
<defs>
<clipPath id="clip0_1033_3923">
<rect width="24" height="24" fill="white"/>
</clipPath>
</defs>
</svg>
