<svg width="24" height="24" viewBox="0 0 24 24" fill="none" xmlns="http://www.w3.org/2000/svg">
<g clip-path="url(#clip0_1033_3900)">
<path fill-rule="evenodd" clip-rule="evenodd" d="M14.26 12.69C14.93 11.17 12.63 9.45999 11.26 9.68999C9.89002 9.91999 8.74002 11.51 7.82002 12.54C2.82002 18.73 3.41002 17.54 0.820022 20.88C0.791788 20.9148 0.770685 20.9548 0.757917 20.9978C0.74515 21.0407 0.740968 21.0858 0.745611 21.1303C0.750254 21.1749 0.76363 21.2181 0.784977 21.2575C0.806323 21.2969 0.835222 21.3318 0.870022 21.36C0.904822 21.3882 0.944843 21.4093 0.987799 21.4221C1.03076 21.4349 1.07581 21.439 1.12038 21.4344C1.16495 21.4298 1.20817 21.4164 1.24757 21.395C1.28698 21.3737 1.32179 21.3448 1.35002 21.31C3.35002 19 3.95002 18.69 8.98002 13.11C9.61687 13.7195 10.3501 14.2196 11.15 14.59C9.28002 16.59 7.30002 19.59 4.03002 23.31C3.99522 23.3481 3.96826 23.3926 3.95069 23.4411C3.93311 23.4896 3.92526 23.5411 3.92758 23.5927C3.9299 23.6442 3.94235 23.6948 3.96422 23.7415C3.98608 23.7882 4.01694 23.8302 4.05502 23.865C4.09311 23.8998 4.13767 23.9267 4.18617 23.9443C4.23467 23.9619 4.28616 23.9698 4.3377 23.9674C4.38924 23.9651 4.43981 23.9527 4.48654 23.9308C4.53326 23.9089 4.57522 23.8781 4.61002 23.84C8.09002 20.04 8.20002 19.72 11.06 16.43C12.07 15.28 13.58 14.25 14.26 12.69ZM11.79 13.88C11.2849 13.1294 10.5123 12.6001 9.63002 12.4C9.86747 12.1409 10.1178 11.8939 10.38 11.66C11.31 10.83 11.78 10.85 12.57 11.47C12.76 11.61 13.14 11.98 13.06 12.16C12.7383 12.8018 12.3087 13.3836 11.79 13.88Z" fill="black"/>
<path fill-rule="evenodd" clip-rule="evenodd" d="M14.8 15.07C15.4232 15.2651 15.951 15.6859 16.28 16.25C16.44 16.6 16.28 16.83 16.62 17.25C16.6744 17.3216 16.7455 17.3788 16.8272 17.4166C16.9088 17.4544 16.9985 17.4715 17.0883 17.4666C17.1781 17.4617 17.2653 17.4348 17.3424 17.3883C17.4194 17.3418 17.4838 17.2771 17.53 17.2C17.72 16.94 17.59 16.78 17.65 16.58C18.08 15.87 17.93 16.02 18.42 15.75C18.908 15.5644 19.3318 15.2414 19.64 14.82C19.6877 14.7256 19.7152 14.6223 19.7207 14.5166C19.7262 14.411 19.7096 14.3054 19.6719 14.2066C19.6343 14.1078 19.5764 14.0179 19.502 13.9427C19.4277 13.8675 19.3384 13.8087 19.24 13.77C19.018 13.7045 18.8133 13.5907 18.6404 13.4369C18.4675 13.283 18.3308 13.0928 18.24 12.88L17.97 12.11C17.97 11.96 17.97 11.57 17.92 11.49C17.8916 11.3705 17.8266 11.2629 17.7342 11.1822C17.6417 11.1014 17.5264 11.0515 17.4042 11.0394C17.282 11.0273 17.1591 11.0536 17.0526 11.1146C16.9461 11.1757 16.8613 11.2684 16.81 11.38C16.17 12.79 16.33 13.64 14.67 14.04C14.5796 14.0593 14.5002 14.1126 14.448 14.189C14.3959 14.2653 14.3751 14.3587 14.39 14.45C14.39 14.45 14.61 15 14.8 15.07ZM16.42 14.07C16.6491 13.8752 16.842 13.6416 16.99 13.38C17.1912 13.8509 17.5034 14.266 17.9 14.59C16.2 15.59 17.5 15.8 16.41 15.01C15.32 14.22 15.39 14.92 16.42 14V14.07Z" fill="black"/>
<path fill-rule="evenodd" clip-rule="evenodd" d="M6.40005 4.66001C6.26005 5.24001 6.96005 5.09001 8.09005 5.80001C8.44182 5.99831 8.74361 6.27439 8.97239 6.60715C9.20116 6.93991 9.35086 7.32055 9.41005 7.72001C9.64005 8.24001 10.02 8.51 10.46 8.12C10.74 7.86 10.62 7.44 10.68 7.24001C10.802 6.94857 10.9747 6.68109 11.19 6.45001C11.71 5.85001 13.1901 5.69001 13.72 4.83001C13.7809 4.72421 13.8168 4.60589 13.8249 4.48411C13.833 4.36232 13.8131 4.24029 13.7668 4.12737C13.7205 4.01445 13.6489 3.91362 13.5576 3.83262C13.4663 3.75161 13.3577 3.69256 13.24 3.66001C12.9997 3.63873 12.766 3.56934 12.553 3.45596C12.34 3.34258 12.1519 3.18752 12 3.00001C11.6571 2.66335 11.3904 2.25704 11.2179 1.80852C11.0454 1.36 10.9711 0.879687 11 0.400005C10.9603 0.291785 10.8901 0.197324 10.798 0.127925C10.706 0.0585262 10.5958 0.0171299 10.4808 0.00868989C10.3658 0.000249858 10.2508 0.0251236 10.1496 0.0803346C10.0484 0.135545 9.96522 0.218755 9.91005 0.320005C8.85005 2.25001 9.00005 3.45001 6.33005 4.00001C6.26334 4.03053 6.20791 4.08124 6.17159 4.14497C6.13527 4.2087 6.11989 4.28224 6.12762 4.35519C6.13536 4.42814 6.16582 4.49681 6.21471 4.5515C6.26359 4.6062 6.32842 4.64416 6.40005 4.66001ZM10.05 2.33001C10.3958 3.2633 11.0342 4.05964 11.87 4.60001C11.0387 4.88656 10.3321 5.45186 9.87005 6.20001C9.21341 5.37471 8.30896 4.78225 7.29005 4.51001C7.89049 4.39277 8.45422 4.13376 8.9343 3.75457C9.41439 3.37537 9.79692 2.88696 10.05 2.33001Z" fill="black"/>
<path fill-rule="evenodd" clip-rule="evenodd" d="M3.08999 14.76C3.68999 14.66 3.08999 14.2 3.49999 11.24C4.25999 6.24001 6.36999 6.33001 5.69999 5.61001C5.62522 5.53672 5.52469 5.49567 5.41999 5.49567C5.31529 5.49567 5.21476 5.53672 5.13999 5.61001C2.13999 8.02001 1.77999 11.07 2.68999 14.5C2.71143 14.5859 2.76461 14.6605 2.83883 14.7087C2.91305 14.757 3.0028 14.7753 3.08999 14.76Z" fill="black"/>
<path fill-rule="evenodd" clip-rule="evenodd" d="M14.53 3.24002C14.4482 3.25936 14.3761 3.30748 14.3269 3.37558C14.2777 3.44369 14.2546 3.52723 14.2619 3.61095C14.2692 3.69466 14.3063 3.77297 14.3666 3.83155C14.4268 3.89013 14.5061 3.92509 14.59 3.93002C17.59 3.76002 21.06 6.41002 21.83 10.62C22.83 15.97 18.02 21.84 11.83 19.62C11.7363 19.5997 11.6385 19.6138 11.5543 19.6595C11.4701 19.7053 11.4051 19.7798 11.3712 19.8694C11.3373 19.959 11.3367 20.0579 11.3695 20.1479C11.4023 20.238 11.4664 20.3132 11.55 20.36C12.7274 20.891 14.0174 21.1241 15.3062 21.0387C16.595 20.9532 17.843 20.5519 18.94 19.87C21.1289 18.4309 22.6657 16.1903 23.22 13.63C24.13 7.84002 19.13 2.71002 14.53 3.24002Z" fill="black"/>
</g>
<defs>
<clipPath id="clip0_1033_3900">
<rect width="24" height="24" fill="white"/>
</clipPath>
</defs>
</svg>
