<svg width="24" height="24" viewBox="0 0 24 24" fill="none" xmlns="http://www.w3.org/2000/svg">
<g clip-path="url(#clip0_1030_2548)">
<path fill-rule="evenodd" clip-rule="evenodd" d="M10.76 8.91001C10.0883 9.07584 9.47779 9.42966 8.99998 9.93001C8.56287 10.3547 8.28169 10.9144 8.20185 11.5186C8.12202 12.1228 8.24819 12.7363 8.55998 13.26C8.85372 13.758 9.25476 14.1842 9.73392 14.5077C10.2131 14.8311 10.7583 15.0437 11.33 15.13C12.1357 15.2093 12.9433 14.9993 13.6084 14.5376C14.2735 14.0759 14.7526 13.3926 14.96 12.61C15.88 9.37001 12.7 8.46001 10.76 8.91001ZM13.87 12.26C13.7182 12.758 13.3948 13.186 12.9572 13.468C12.5196 13.7499 11.9962 13.8676 11.48 13.8C11.1067 13.7431 10.75 13.6065 10.4342 13.3994C10.1185 13.1923 9.85098 12.9197 9.64998 12.6C9.43526 12.3061 9.32716 11.9478 9.34353 11.5842C9.35989 11.2206 9.49973 10.8734 9.73998 10.6C10.0654 10.1947 10.504 9.89535 11 9.74001C12.55 9.22001 14.66 10.15 13.87 12.26Z" fill="black"/>
<path fill-rule="evenodd" clip-rule="evenodd" d="M1.74999 7.09001C2.16383 7.02892 2.58166 6.99884 2.99999 7.00001C3.99999 7.00001 4.99999 7.14001 5.99999 7.23001C6.08999 7.23001 6.85999 7.30001 7.16999 7.29001C7.31385 7.29037 7.45508 7.25145 7.57844 7.17743C7.7018 7.10341 7.80261 6.99712 7.86999 6.87001C8.04029 6.40057 8.16095 5.91459 8.22999 5.42001C8.35999 4.42001 8.35999 3.22001 8.52999 2.30001C8.54352 2.2501 8.547 2.198 8.54022 2.14673C8.53343 2.09547 8.51652 2.04606 8.49046 2.0014C8.46441 1.95673 8.42973 1.91769 8.38844 1.88655C8.34716 1.85541 8.30009 1.83279 8.24999 1.82001C8.19875 1.80506 8.14498 1.80078 8.09203 1.80745C8.03907 1.81412 7.98804 1.83159 7.94211 1.85877C7.89618 1.88596 7.85631 1.92228 7.82499 1.9655C7.79366 2.00871 7.77154 2.0579 7.75999 2.11001C7.46999 3.01001 7.28999 4.17001 7.02999 5.19001L6.02999 3.72001C5.78999 3.41001 5.53999 3.10001 5.28999 2.80001C5.03999 2.50001 4.65999 2.27001 4.38999 2.00001C3.72999 1.34001 2.99999 0.750007 2.35999 0.120007C2.29899 0.0497251 2.21256 0.00655334 2.11973 -1.04301e-05C2.0269 -0.0065742 1.93527 0.0240076 1.86499 0.0850074C1.7947 0.146007 1.75153 0.232428 1.74497 0.325259C1.7384 0.418089 1.76899 0.509725 1.82999 0.580007C2.36999 1.34001 2.82999 2.10001 3.41999 2.84001C3.64999 3.15001 3.89999 3.45001 4.15999 3.74001C4.41999 4.03001 4.67999 4.32001 4.95999 4.60001C5.42999 5.09001 5.95999 5.60001 6.40999 6.03001L5.99999 5.93001C5.16999 5.93001 4.26999 5.98001 3.38999 6.07001C2.79416 6.12928 2.20502 6.24309 1.62999 6.41001C1.58039 6.41373 1.53215 6.42798 1.48849 6.45181C1.44483 6.47564 1.40676 6.50851 1.3768 6.54821C1.34684 6.58791 1.32568 6.63355 1.31475 6.68207C1.30381 6.73059 1.30334 6.78089 1.31337 6.8296C1.3234 6.87832 1.3437 6.92434 1.37292 6.9646C1.40213 7.00485 1.43959 7.03842 1.48279 7.06306C1.526 7.0877 1.57396 7.10285 1.62348 7.1075C1.67301 7.11214 1.72295 7.10618 1.76999 7.09001H1.74999Z" fill="black"/>
<path fill-rule="evenodd" clip-rule="evenodd" d="M7.81998 17.1C7.75486 16.9703 7.65484 16.8613 7.53118 16.7854C7.40752 16.7094 7.26511 16.6695 7.11998 16.67C6.80998 16.67 6.03998 16.73 5.94998 16.74C4.99998 16.82 3.99998 17 2.99998 17C2.58598 17.0139 2.17152 16.9972 1.75998 16.95C1.66848 16.9314 1.57336 16.95 1.49553 17.0016C1.4177 17.0531 1.36355 17.1335 1.34498 17.225C1.32642 17.3165 1.34496 17.4116 1.39653 17.4895C1.44811 17.5673 1.52848 17.6214 1.61998 17.64C2.19534 17.8035 2.78447 17.914 3.37998 17.97C4.25998 18.06 5.15998 18.07 5.98998 18.11L6.41998 18.01C5.92998 18.48 5.41998 18.95 4.96998 19.44C4.68998 19.72 4.42998 20 4.16998 20.3C3.90998 20.6 3.65998 20.89 3.42998 21.2C2.86998 21.94 2.42998 22.7 1.83998 23.46C1.77898 23.5303 1.7484 23.6219 1.75496 23.7148C1.76153 23.8076 1.8047 23.894 1.87498 23.955C1.94527 24.016 2.0369 24.0466 2.12973 24.04C2.22256 24.0335 2.30898 23.9903 2.36998 23.92C3.04998 23.3 3.73998 22.7 4.36998 22.05C4.63998 21.77 4.89998 21.48 5.15998 21.18C5.41998 20.88 5.65998 20.57 5.89998 20.26C6.25998 19.78 6.59332 19.29 6.89998 18.79C7.15998 19.79 7.33998 20.97 7.62998 21.88C7.64266 21.9312 7.6656 21.9793 7.69742 22.0214C7.72923 22.0635 7.76925 22.0987 7.81505 22.1249C7.86086 22.1511 7.91151 22.1677 7.96392 22.1737C8.01633 22.1797 8.06942 22.1751 8.11998 22.16C8.17009 22.1472 8.21715 22.1246 8.25844 22.0935C8.29972 22.0623 8.3344 22.0233 8.36046 21.9786C8.38651 21.9339 8.40343 21.8845 8.41021 21.8333C8.417 21.782 8.41352 21.7299 8.39998 21.68C8.22998 20.76 8.22998 19.59 8.09998 18.56C8.05958 18.0647 7.9657 17.5751 7.81998 17.1Z" fill="black"/>
<path fill-rule="evenodd" clip-rule="evenodd" d="M16.18 6.91001C16.2474 7.03712 16.3482 7.14341 16.4715 7.21743C16.5949 7.29145 16.7361 7.33037 16.88 7.33001C17.19 7.33001 17.96 7.27001 18.05 7.27001C18.99 7.18001 20.05 7.05001 21.05 7.04001C21.4627 7.00946 21.8772 7.00946 22.29 7.04001C22.337 7.05618 22.387 7.06214 22.4365 7.0575C22.486 7.05285 22.534 7.0377 22.5772 7.01306C22.6204 6.98842 22.6578 6.95485 22.6871 6.9146C22.7163 6.87434 22.7366 6.82832 22.7466 6.7796C22.7566 6.73089 22.7562 6.68059 22.7452 6.63207C22.7343 6.58355 22.7131 6.53791 22.6832 6.49821C22.6532 6.45851 22.6151 6.42564 22.5715 6.40181C22.5278 6.37798 22.4796 6.36373 22.43 6.36001C21.8549 6.19309 21.2658 6.07928 20.67 6.02001C19.75 6.00001 18.85 6.00001 18 5.93001L17.56 6.03001C18.05 5.56001 18.56 5.09001 19.01 4.60001C19.29 4.32001 19.56 4.04001 19.81 3.74001C20.06 3.44001 20.32 3.15001 20.56 2.84001C21.11 2.10001 21.61 1.34001 22.14 0.580007C22.201 0.509725 22.2316 0.418089 22.225 0.325259C22.2184 0.232428 22.1753 0.146007 22.105 0.0850074C22.0347 0.0240076 21.9431 -0.0065742 21.8502 -1.04305e-05C21.7574 0.00655334 21.671 0.049725 21.61 0.120007C20.93 0.750007 20.24 1.34001 19.61 1.99001C19.33 2.27001 19.07 2.56001 18.81 2.86001C18.55 3.16001 18.31 3.47001 18.08 3.78001C17.71 4.26001 17.37 4.78001 17.02 5.24001C16.76 4.24001 16.58 3.06001 16.29 2.16001C16.2784 2.1079 16.2563 2.05871 16.225 2.0155C16.1937 1.97228 16.1538 1.93596 16.1079 1.90877C16.0619 1.88159 16.0109 1.86412 15.9579 1.85745C15.905 1.85078 15.8512 1.85506 15.8 1.87001C15.7499 1.88279 15.7028 1.90541 15.6615 1.93655C15.6202 1.96769 15.5856 2.00673 15.5595 2.0514C15.5334 2.09606 15.5165 2.14547 15.5097 2.19673C15.503 2.248 15.5064 2.3001 15.52 2.35001C15.69 3.27001 15.69 4.44001 15.82 5.47001C15.8897 5.9612 16.0103 6.4438 16.18 6.91001Z" fill="black"/>
<path fill-rule="evenodd" clip-rule="evenodd" d="M22.25 16.91C21.8361 16.9711 21.4183 17.0012 21 17C20 17 19 16.86 18 16.78C17.91 16.78 17.14 16.7 16.83 16.71C16.6849 16.7095 16.5425 16.7494 16.4188 16.8254C16.2951 16.9013 16.1951 17.0103 16.13 17.14C15.9585 17.6056 15.8378 18.0884 15.77 18.58C15.64 19.58 15.64 20.78 15.47 21.7C15.4565 21.7499 15.453 21.802 15.4598 21.8533C15.4665 21.9045 15.4835 21.9539 15.5095 21.9986C15.5356 22.0433 15.5703 22.0823 15.6115 22.1135C15.6528 22.1446 15.6999 22.1672 15.75 22.18C15.8006 22.1951 15.8536 22.1997 15.9061 22.1937C15.9585 22.1877 16.0091 22.1711 16.0549 22.1449C16.1007 22.1187 16.1407 22.0835 16.1726 22.0414C16.2044 21.9993 16.2273 21.9512 16.24 21.9C16.53 20.99 16.71 19.83 16.97 18.81C17.32 19.3 17.66 19.81 18.03 20.27C18.26 20.58 18.51 20.89 18.76 21.19C19.01 21.49 19.28 21.78 19.56 22.06C20.21 22.71 20.9 23.31 21.56 23.93C21.621 24.0003 21.7074 24.0435 21.8002 24.05C21.8931 24.0566 21.9847 24.026 22.055 23.965C22.1253 23.904 22.1684 23.8176 22.175 23.7248C22.1816 23.6319 22.151 23.5403 22.09 23.47C21.56 22.71 21.09 21.95 20.51 21.21C20.27 20.9033 20.02 20.6033 19.76 20.31C19.51 20.01 19.24 19.73 18.96 19.45C18.49 18.96 17.96 18.45 17.51 18.02L17.95 18.12C18.78 18.12 19.68 18.07 20.56 17.98C21.1555 17.924 21.7446 17.8135 22.32 17.65C22.3653 17.6408 22.4083 17.6228 22.4467 17.597C22.485 17.5711 22.5179 17.538 22.5434 17.4995C22.569 17.4609 22.5867 17.4177 22.5955 17.3724C22.6044 17.327 22.6042 17.2803 22.595 17.235C22.5858 17.1897 22.5678 17.1466 22.5419 17.1083C22.5161 17.07 22.483 17.0371 22.4444 17.0116C22.4059 16.986 22.3627 16.9683 22.3173 16.9595C22.272 16.9506 22.2253 16.9508 22.18 16.96L22.25 16.91Z" fill="black"/>
</g>
<defs>
<clipPath id="clip0_1030_2548">
<rect width="24" height="24" fill="white"/>
</clipPath>
</defs>
</svg>
