<svg width="24" height="24" viewBox="0 0 24 24" fill="none" xmlns="http://www.w3.org/2000/svg">
<g clip-path="url(#clip0_1046_5862)">
<path fill-rule="evenodd" clip-rule="evenodd" d="M18.68 14C19.5043 13.2847 20.2426 12.4759 20.88 11.59C21.215 11.1278 21.3937 10.5708 21.39 9.99999C21.3202 9.55412 21.13 9.13576 20.84 8.78999C20.3089 8.14768 19.727 7.54909 19.1 6.99999L17.1 5.04999C16.6589 4.58871 16.1695 4.17633 15.64 3.81999C15.2411 3.54418 14.7813 3.36918 14.3 3.30999C13.9712 3.29567 13.6451 3.37546 13.36 3.53999C13.0193 3.74932 12.7068 4.00136 12.43 4.28999C4 12.15 3.9 12.08 3.18 13.17C2.92838 13.5225 2.77952 13.9379 2.75 14.37C2.81748 14.7403 2.98327 15.0857 3.23 15.37C3.69146 15.9384 4.18212 16.4825 4.7 17L7.7 20.1C8.19713 20.6594 8.82619 21.0856 9.53 21.34C9.81677 21.4222 10.1191 21.4342 10.4115 21.375C10.7039 21.3159 10.9778 21.1872 11.21 21C11.69 20.64 12.15 20.25 12.61 19.85C13.28 19.25 13.93 18.62 14.61 18.02L18.68 14ZM16.34 5.78999L18.34 7.78999C18.68 8.11999 19.17 8.56999 19.58 9.03999C19.1737 9.23732 18.7564 9.41095 18.33 9.55999C18.0639 9.62525 17.7861 9.62525 17.52 9.55999C17.3266 9.49966 17.149 9.3972 17 9.25999C16.7001 9.01829 16.4254 8.74691 16.18 8.44999C15.84 8.06999 15.27 7.63999 14.9 7.14999C14.7795 7.01458 14.6907 6.85402 14.64 6.67999C14.6251 6.61753 14.6251 6.55245 14.64 6.48999L14.78 6.09999L15.23 4.80999C15.6263 5.10561 15.9975 5.43339 16.34 5.78999ZM11.91 19.07C11.48 19.47 11.04 19.85 10.6 20.19C10.4607 20.2999 10.2947 20.3709 10.119 20.3955C9.94323 20.4201 9.76412 20.3975 9.6 20.33C9.1595 20.1017 8.76059 19.8008 8.42 19.44L5.35 16.44C5.06 16.14 4.51 15.65 4.08 15.15C3.8351 14.9373 3.65491 14.6601 3.56 14.35C3.59996 13.9613 3.75293 13.5927 4 13.29C4.9 12 6.58 10.66 13 4.99999C13.191 4.80882 13.3985 4.63481 13.62 4.47999C13.785 4.36871 13.9811 4.31269 14.18 4.31999C14.3538 4.34026 14.521 4.39828 14.67 4.48999L14 5.76999C13.8855 5.95387 13.7884 6.14805 13.71 6.34999C13.6585 6.48381 13.6347 6.62669 13.64 6.76999C13.6708 7.1259 13.7875 7.46903 13.98 7.76999C14.3804 8.27556 14.8148 8.75333 15.28 9.19999C15.5808 9.54319 15.9159 9.8548 16.28 10.13C16.5764 10.3474 16.9183 10.4945 17.28 10.56C17.6994 10.617 18.1263 10.5654 18.52 10.41C19.03 10.21 19.45 9.85999 19.92 9.62999C20.0422 9.77941 20.1216 9.95908 20.15 10.15C20.1023 10.6032 19.9012 11.0266 19.58 11.35C19.042 12.0175 18.45 12.6396 17.81 13.21C17.22 13.75 16.66 14.28 16.13 14.81C15.33 15.6 14.55 16.4 13.69 17.25C13.1304 17.8888 12.5362 18.4964 11.91 19.07Z" fill="black"/>
<path fill-rule="evenodd" clip-rule="evenodd" d="M4.24 6.61C4.56 6.33 4.88 6.02 5.24 5.69C5.30185 5.62341 5.33623 5.53589 5.33623 5.445C5.33623 5.35412 5.30185 5.26659 5.24 5.2C5.17457 5.13587 5.08661 5.09995 4.995 5.09995C4.90339 5.09995 4.81542 5.13587 4.75 5.2C4.4 5.47 4.05 5.71 3.75 5.94C3.45 6.17 3 6.41 2.66 6.59L2.46 6.73C2.38142 5.28935 2.74424 3.85901 3.5 2.63C3.9755 1.93282 4.68503 1.42905 5.5 1.21C6.53476 0.917196 7.63825 0.984181 8.63 1.4C9.0872 1.57523 9.51023 1.82905 9.88 2.15C9.90795 2.17873 9.94138 2.20156 9.97831 2.21715C10.0152 2.23274 10.0549 2.24078 10.095 2.24078C10.1351 2.24078 10.1748 2.23274 10.2117 2.21715C10.2486 2.20156 10.282 2.17873 10.31 2.15C10.3384 2.12292 10.3611 2.09034 10.3765 2.05424C10.392 2.01814 10.4 1.97927 10.4 1.94C10.4 1.90073 10.392 1.86186 10.3765 1.82576C10.3611 1.78967 10.3384 1.75709 10.31 1.73C9.93323 1.31937 9.49046 0.97462 9 0.710001C8.48236 0.428013 7.92658 0.222544 7.35 0.100001C6.64746 -0.0455407 5.92254 -0.0455407 5.22 0.100001C4.67434 0.225099 4.15903 0.457513 3.70407 0.783709C3.24911 1.10991 2.86361 1.52336 2.57 2C1.87549 3.25262 1.5659 4.68228 1.68 6.11L1.52 5.81C1.43 5.66 1.19 5.17 0.989999 4.71C0.881491 4.47835 0.784702 4.24138 0.699998 4C0.683119 3.92096 0.636039 3.85164 0.568792 3.80681C0.501545 3.76198 0.419449 3.74518 0.339999 3.76C0.301521 3.76711 0.264879 3.78193 0.232279 3.80357C0.199679 3.8252 0.171795 3.85322 0.150307 3.88592C0.128818 3.91862 0.114169 3.95533 0.107242 3.99384C0.100315 4.03235 0.101252 4.07186 0.109999 4.11L0.589999 6.2C0.649998 6.37 0.789999 6.8 0.949998 7.2C1.04967 7.44899 1.18073 7.68422 1.34 7.9C1.42369 7.98653 1.52915 8.04891 1.64529 8.08058C1.76143 8.11226 1.88396 8.11206 2 8.08C2.42611 7.93272 2.8299 7.72746 3.2 7.47C3.53 7.22 3.88 6.94 4.24 6.61Z" fill="black"/>
<path fill-rule="evenodd" clip-rule="evenodd" d="M23.79 16.85C23.193 16.28 22.5199 15.7954 21.79 15.41C21.4001 15.1775 20.9539 15.0564 20.5 15.06C20.3492 15.0931 20.2147 15.178 20.12 15.3C19.9084 15.56 19.7304 15.8456 19.59 16.15C19.252 16.8652 18.997 17.6168 18.83 18.39C18.8208 18.4288 18.8193 18.4689 18.8257 18.5082C18.832 18.5475 18.846 18.5852 18.8669 18.6191C18.8878 18.653 18.9152 18.6825 18.9474 18.7058C18.9797 18.7291 19.0163 18.7458 19.055 18.755C19.0937 18.7642 19.1339 18.7657 19.1732 18.7593C19.2125 18.753 19.2502 18.739 19.2841 18.7181C19.318 18.6972 19.3474 18.6699 19.3708 18.6376C19.3941 18.6053 19.4108 18.5688 19.42 18.53C19.7565 17.8705 20.1443 17.2386 20.58 16.64L20.71 16.44C21.2129 17.5551 21.3629 18.7973 21.14 20C21.01 20.5699 20.7488 21.1016 20.3773 21.553C20.0059 22.0043 19.5343 22.3628 19 22.6C18.2014 22.9976 17.29 23.1071 16.42 22.91C15.5159 22.786 14.6714 22.3881 14 21.77C13.9522 21.7069 13.882 21.6645 13.8039 21.6515C13.7258 21.6385 13.6457 21.6558 13.58 21.7C13.5477 21.7229 13.5203 21.752 13.4993 21.7855C13.4782 21.819 13.4641 21.8564 13.4576 21.8954C13.4511 21.9345 13.4523 21.9744 13.4613 22.013C13.4703 22.0515 13.4869 22.0879 13.51 22.12C14.2116 22.9444 15.1513 23.5313 16.2 23.8C17.2802 24.1232 18.439 24.0631 19.48 23.63C20.1701 23.306 20.7721 22.8206 21.2351 22.2149C21.6981 21.6092 22.0084 20.901 22.14 20.15C22.2889 18.8818 22.0593 17.5979 21.48 16.46C21.7333 16.5467 21.9833 16.6467 22.23 16.76C22.6097 16.9209 22.9745 17.115 23.32 17.34C23.3854 17.4041 23.4734 17.4401 23.565 17.4401C23.6566 17.4401 23.7446 17.4041 23.81 17.34C23.8417 17.307 23.8664 17.2679 23.8826 17.225C23.8989 17.1822 23.9063 17.1365 23.9044 17.0908C23.9025 17.045 23.8914 17.0001 23.8718 16.9587C23.8521 16.9173 23.8243 16.8804 23.79 16.85Z" fill="black"/>
</g>
<defs>
<clipPath id="clip0_1046_5862">
<rect width="24" height="24" fill="white"/>
</clipPath>
</defs>
</svg>
