<svg width="24" height="24" viewBox="0 0 24 24" fill="none" xmlns="http://www.w3.org/2000/svg">
<g clip-path="url(#clip0_1052_9265)">
<path fill-rule="evenodd" clip-rule="evenodd" d="M4.42002 6.51001C4.86028 6.71142 5.32924 6.843 5.81002 6.90001C6.08588 6.92999 6.36417 6.92999 6.64002 6.90001C6.92382 6.86201 7.20231 6.79155 7.47002 6.69001C7.8966 6.49201 8.27655 6.20616 8.58502 5.85117C8.89348 5.49618 9.1235 5.08004 9.26002 4.63001C9.55024 3.76583 9.49286 2.82263 9.10002 2.00001C8.97211 1.75878 8.80672 1.53938 8.61002 1.35001C8.33991 1.0764 8.03376 0.8409 7.70002 0.650007C3.86002 -1.47999 2.81002 2.79001 2.75002 3.09001C2.65683 3.51103 2.65135 3.94674 2.73393 4.36998C2.81651 4.79321 2.98539 5.1949 3.23002 5.55001C3.53331 5.97104 3.94437 6.30264 4.42002 6.51001ZM3.61002 3.24001C3.61002 2.96001 4.42002 -0.549993 7.27002 1.35001C7.48197 1.49025 7.67959 1.65102 7.86002 1.83001C8.01772 1.98984 8.14631 2.17597 8.24002 2.38001C8.47946 2.9838 8.47946 3.65621 8.24002 4.26001C8.1403 4.561 7.97837 4.83764 7.76473 5.07195C7.5511 5.30626 7.29055 5.49299 7.00002 5.62001C6.83062 5.69078 6.65228 5.73789 6.47002 5.76001C6.28055 5.77997 6.0895 5.77997 5.90002 5.76001C5.5329 5.73039 5.17226 5.64613 4.83002 5.51001C4.51374 5.41503 4.22767 5.23925 4.00002 5.00001C3.81209 4.75204 3.67995 4.4664 3.61264 4.16264C3.54533 3.85887 3.54443 3.54415 3.61002 3.24001Z" fill="black"/>
<path fill-rule="evenodd" clip-rule="evenodd" d="M15.8 9.2C15.289 8.36506 14.5547 7.68963 13.68 7.25C13.3573 7.08031 13.0231 6.93329 12.68 6.81C12.4127 6.71304 12.1335 6.65249 11.85 6.63C11.359 6.61762 10.8693 6.68517 10.4 6.83C9.40001 7.12 8.50001 7.65 7.60001 7.92C7.19489 8.0286 6.77906 8.09231 6.36001 8.10999C5.92739 8.14526 5.49262 8.14526 5.06001 8.10999C4.79355 8.07671 4.53383 8.0025 4.29001 7.89C3.87485 7.68367 3.47396 7.44981 3.09001 7.19C2.76215 6.9435 2.39307 6.75727 2.00001 6.64C1.66254 6.56909 1.31112 6.61126 1.00001 6.76C0.625905 6.91987 0.32458 7.21309 0.154563 7.58269C-0.0154549 7.95229 -0.042027 8.3719 0.0800077 8.76C0.354088 9.71811 0.946701 10.5541 1.76001 11.13C2.54009 11.6333 3.43414 11.9324 4.36001 12C5.22916 12.0358 6.09935 11.9619 6.95001 11.78C7.02467 11.8814 7.09153 11.9884 7.15001 12.1C7.16979 12.1296 7.18034 12.1644 7.18034 12.2C7.18034 12.2356 7.16979 12.2704 7.15001 12.3C7.06147 12.4019 6.94209 12.4721 6.81001 12.5C6.49001 12.61 6.13001 12.65 5.81001 12.76C5.4538 12.915 5.11796 13.1132 4.81001 13.35C4.46983 13.6224 4.1905 13.9631 3.99001 14.35C3.60617 15.1023 3.40733 15.9354 3.41001 16.78C3.41181 17.6503 3.6578 18.5026 4.12001 19.24C4.42706 19.7064 4.85588 20.0799 5.36001 20.32C5.7332 20.486 6.14525 20.5449 6.55001 20.49L7.19001 20.29C7.42262 20.1955 7.62289 20.0357 7.76663 19.8298C7.91037 19.624 7.99143 19.3809 8.00001 19.13C7.9957 18.7841 7.91727 18.4431 7.77001 18.13C7.59523 17.7877 7.44486 17.4335 7.32001 17.07C7.25242 16.8024 7.29188 16.519 7.43001 16.28C7.60385 15.9927 7.83131 15.7414 8.10001 15.54C8.30804 15.4181 8.53424 15.3304 8.77001 15.28C8.94736 15.2408 9.12838 15.2207 9.31001 15.22C9.5716 16.0431 9.92376 16.8346 10.36 17.58C10.8215 18.4225 11.4235 19.1801 12.14 19.82C12.3938 20.0375 12.6961 20.191 13.0215 20.2676C13.3468 20.3441 13.6858 20.3415 14.01 20.26C14.2531 20.1537 14.4584 19.9766 14.5993 19.7518C14.7403 19.5271 14.8102 19.2651 14.8 19C14.8216 18.4561 14.7262 17.9138 14.52 17.41C14.2477 16.749 13.9302 16.1075 13.57 15.49C12.78 14.14 12.12 13.18 11.47 12.04C11.24 11.63 11 11.19 10.77 10.71C10.894 10.5745 11.0529 10.4757 11.2293 10.4246C11.4057 10.3734 11.5928 10.3718 11.77 10.42C12.4983 10.6891 13.1748 11.0815 13.77 11.58C14.1335 11.8539 14.5876 11.979 15.04 11.93C15.2105 11.8876 15.3696 11.8084 15.5061 11.6978C15.6426 11.5872 15.7532 11.448 15.83 11.29C16.0119 10.9706 16.105 10.6084 16.0998 10.2409C16.0945 9.87341 15.991 9.51401 15.8 9.2ZM15.11 10.89C15.03 11.05 14.93 11.14 14.81 11.14C14.598 11.1244 14.3942 11.0519 14.22 10.93C13.5261 10.4194 12.7522 10.0274 11.93 9.77C11.6039 9.6813 11.258 9.69949 10.9431 9.82188C10.6281 9.94427 10.3606 10.1644 10.18 10.45C10.1554 10.4926 10.1425 10.5408 10.1425 10.59C10.1425 10.6391 10.1554 10.6874 10.18 10.73C10.49 11.54 10.8 12.21 11.12 12.87C11.59 13.87 12.12 14.76 12.66 15.95C12.9723 16.5364 13.2494 17.1408 13.49 17.76C13.6389 18.1109 13.7138 18.4888 13.71 18.87C13.71 19.06 13.66 19.17 13.53 19.19C13.2598 19.1886 12.997 19.101 12.78 18.94C12.1202 18.4141 11.5525 17.7822 11.1 17.07C10.6056 16.3564 10.2024 15.5837 9.90001 14.77C9.8875 14.7276 9.86658 14.6881 9.83851 14.6539C9.81044 14.6197 9.77579 14.5915 9.73661 14.571C9.69743 14.5505 9.65453 14.5381 9.61045 14.5345C9.56636 14.5308 9.52201 14.5361 9.48001 14.55C9.22153 14.5102 8.95848 14.5102 8.70001 14.55C8.35046 14.597 8.01194 14.7054 7.70001 14.87C7.25579 15.1529 6.88826 15.541 6.63001 16C6.45318 16.3594 6.39706 16.7662 6.47001 17.16C6.54001 17.63 6.90001 18.26 6.98001 18.81C6.99427 18.8865 6.98102 18.9656 6.94259 19.0334C6.90416 19.1011 6.84303 19.153 6.77001 19.18L6.47001 19.27C6.21986 19.2913 5.96981 19.2279 5.76001 19.09C5.51455 18.9379 5.30615 18.7329 5.15001 18.49C4.799 17.9392 4.60534 17.3029 4.59001 16.65C4.54338 15.9648 4.66347 15.2786 4.94001 14.65C5.05974 14.3813 5.2373 14.1422 5.46001 13.95C5.70528 13.7382 5.97767 13.5599 6.27001 13.42C6.56001 13.27 6.98001 13.22 7.27001 13.05C7.47043 12.956 7.6428 12.8112 7.77001 12.63C7.90118 12.448 7.9551 12.2216 7.92001 12C7.80395 11.6785 7.63122 11.3805 7.41001 11.12C7.35282 11.0723 7.28118 11.0454 7.20675 11.0436C7.13232 11.0418 7.05945 11.0652 7.00001 11.11C6.95109 11.0953 6.89892 11.0953 6.85001 11.11C6.03941 11.2623 5.21214 11.3061 4.39001 11.24C3.60166 11.1532 2.84644 10.8751 2.19001 10.43C1.69034 10.0343 1.30968 9.50831 1.09001 8.91C0.910008 8.43 0.880008 7.91 1.41001 7.68C1.55747 7.61997 1.72255 7.61997 1.87001 7.68C2.08951 7.7597 2.29788 7.86725 2.49001 8C2.90971 8.30176 3.35088 8.57248 3.81001 8.81C4.15606 8.98161 4.52747 9.09641 4.91001 9.14999C5.40393 9.21393 5.90226 9.23734 6.40001 9.22C6.91035 9.20763 7.41735 9.13376 7.91001 9C8.82001 8.73 9.76001 8.19 10.72 7.9C11.0679 7.78204 11.4326 7.72126 11.8 7.72C11.9809 7.72508 12.1597 7.75884 12.33 7.82C12.6425 7.92445 12.9496 8.0446 13.25 8.18C13.9616 8.49788 14.5684 9.01107 15 9.66C15.1271 9.83625 15.2044 10.0435 15.2237 10.2599C15.2431 10.4763 15.2038 10.694 15.11 10.89Z" fill="black"/>
<path fill-rule="evenodd" clip-rule="evenodd" d="M23.79 11.52C23.3237 11.2324 22.8431 10.9687 22.35 10.73C22.2312 10.6852 22.1031 10.6709 21.9773 10.6884C21.8515 10.7058 21.7321 10.7546 21.63 10.83C21.3914 11.0524 21.2184 11.3361 21.13 11.65C21.0167 12.0633 20.9727 12.4924 21 12.92C21.0342 13.073 21.088 13.2209 21.16 13.36C20.8654 13.4084 20.5633 13.348 20.31 13.19C19.9612 13.0245 19.6406 12.8052 19.36 12.54C19.2248 12.3967 19.1104 12.2351 19.02 12.06C18.9166 11.9177 18.7878 11.7956 18.64 11.7C18.4553 11.5965 18.2425 11.5542 18.0322 11.5794C17.8219 11.6046 17.6251 11.6958 17.47 11.84L17.08 12.16C16.2513 13.0898 15.8173 14.3057 15.87 15.55C15.8671 16.7669 16.2641 17.951 17 18.92C17.19 19.15 17.38 19.36 17.59 19.57L17.81 19.77H17.72C17.5155 19.7022 17.2945 19.7022 17.09 19.77C16.9409 19.8388 16.8146 19.9487 16.726 20.087C16.6374 20.2252 16.5902 20.3859 16.59 20.55C16.5479 20.9275 16.5878 21.3097 16.7068 21.6704C16.8259 22.0311 17.0214 22.3618 17.28 22.64C17.9905 23.4006 18.9619 23.8649 20 23.94C20.0902 23.94 20.1767 23.9042 20.2404 23.8405C20.3042 23.7767 20.34 23.6902 20.34 23.6C20.34 23.5099 20.3042 23.4234 20.2404 23.3596C20.1767 23.2959 20.0902 23.26 20 23.26C19.2827 23.1891 18.6066 22.8914 18.07 22.41C17.8141 22.2083 17.6144 21.9441 17.49 21.6429C17.3657 21.3417 17.3209 21.0136 17.36 20.69C17.4399 20.6852 17.5201 20.6852 17.6 20.69C17.813 20.7817 18.0391 20.839 18.27 20.86C18.6046 20.846 18.9292 20.7424 19.21 20.56C19.2936 20.4982 19.3604 20.4164 19.404 20.322C19.4477 20.2276 19.467 20.1238 19.46 20.02C19.4514 19.8769 19.391 19.7418 19.29 19.64C19.131 19.5052 18.9603 19.3847 18.78 19.28C18.588 19.1232 18.4076 18.9527 18.24 18.77C18.07 18.59 17.91 18.4 17.75 18.2C17.1878 17.4134 16.8933 16.4668 16.91 15.5C16.8558 14.5508 17.1671 13.6169 17.78 12.89L17.97 12.72H18.02C18.02 12.78 18.17 12.85 18.22 12.92C18.3204 13.0608 18.438 13.1884 18.57 13.3C19.0247 13.6864 19.5516 13.9787 20.12 14.16C20.5571 14.3317 21.0429 14.3317 21.48 14.16C21.5974 14.1103 21.6972 14.0265 21.7667 13.9196C21.8362 13.8127 21.8722 13.6875 21.87 13.56C21.87 13.37 21.72 13.11 21.7 12.9C21.6615 12.618 21.6615 12.3321 21.7 12.05C21.7321 11.8262 21.8178 11.6135 21.95 11.43C22.01 11.84 23.18 12.03 23.5 12.12C23.5381 12.1324 23.5782 12.137 23.6181 12.1335C23.658 12.1301 23.6968 12.1187 23.7322 12.1001C23.7676 12.0815 23.7989 12.0559 23.8243 12.025C23.8497 11.9941 23.8686 11.9584 23.88 11.92C23.9211 11.8551 23.9347 11.7764 23.9178 11.7014C23.901 11.6264 23.855 11.5612 23.79 11.52ZM21.08 13.52V13.4C21.08 13.35 21.15 13.51 21.08 13.5V13.52Z" fill="black"/>
</g>
<defs>
<clipPath id="clip0_1052_9265">
<rect width="24" height="24" fill="white"/>
</clipPath>
</defs>
</svg>
