<svg width="24" height="24" viewBox="0 0 24 24" fill="none" xmlns="http://www.w3.org/2000/svg">
<g clip-path="url(#clip0_1052_9252)">
<path fill-rule="evenodd" clip-rule="evenodd" d="M9.35 10.7599C9.56607 10.8527 9.79568 10.9101 10.03 10.9299C10.2523 10.9599 10.4777 10.9599 10.7 10.9299C11.1561 10.8737 11.5973 10.7312 12 10.5099C12.2966 10.3407 12.5526 10.1086 12.75 9.82994C12.9495 9.5416 13.0864 9.21466 13.1519 8.87019C13.2173 8.52572 13.2099 8.17135 13.13 7.82994C13.07 7.56994 12.22 4.19994 9.13 5.82994C8.86362 5.96839 8.61791 6.14342 8.4 6.34994C8.23573 6.51623 8.10052 6.7089 8 6.91994C7.66566 7.59159 7.61171 8.36852 7.85 9.07994C7.96315 9.45203 8.15593 9.79504 8.41496 10.0852C8.67399 10.3753 8.99305 10.6055 9.35 10.7599ZM8.9 7.33994C8.95903 7.19055 9.04744 7.05452 9.16 6.93994C9.2926 6.80078 9.44016 6.67669 9.6 6.56994C11.73 5.11994 12.27 7.77994 12.3 7.99994C12.3357 8.21459 12.3275 8.43426 12.276 8.64566C12.2244 8.85707 12.1305 9.05583 12 9.22994C11.8408 9.4116 11.6377 9.54934 11.41 9.62994C11.1529 9.72464 10.8834 9.78189 10.61 9.79994C10.4704 9.81468 10.3296 9.81468 10.19 9.79994C10.063 9.78194 9.93876 9.74835 9.82 9.69994C9.61675 9.60126 9.43624 9.46141 9.28991 9.28927C9.14358 9.11712 9.03464 8.91643 8.97 8.69994C8.77849 8.27105 8.75353 7.78622 8.9 7.33994Z" fill="black"/>
<path fill-rule="evenodd" clip-rule="evenodd" d="M12.5 17C12.1244 16.7321 11.714 16.5167 11.28 16.36C11 16.26 10.64 16.23 10.28 16.14C10.1774 16.1148 10.0818 16.0669 10 16C9.98784 15.9843 9.98125 15.9649 9.98125 15.945C9.98125 15.9251 9.98784 15.9058 10 15.89C10.0611 15.7903 10.1314 15.6965 10.21 15.61C11.2559 15.8242 12.3286 15.8748 13.39 15.76C14.1303 15.6579 14.8455 15.4206 15.5 15.06C16.304 14.5634 16.9063 13.7982 17.2 12.9C17.2628 12.7117 17.2865 12.5126 17.2697 12.3149C17.2529 12.1171 17.196 11.9248 17.1024 11.7498C17.0088 11.5748 16.8805 11.4207 16.7254 11.297C16.5702 11.1732 16.3915 11.0824 16.2 11.03C15.901 10.9009 15.5706 10.8627 15.25 10.92C14.8545 11.0024 14.4758 11.1512 14.13 11.36C13.7256 11.5906 13.3083 11.7976 12.88 11.98C12.6233 12.0817 12.3543 12.1489 12.08 12.18C11.6339 12.2104 11.1862 12.2104 10.74 12.18C10.3056 12.1648 9.87357 12.1078 9.45001 12.01C8.52001 11.77 7.55001 11.29 6.57001 11.01C6.1011 10.8814 5.61615 10.8208 5.13001 10.83C4.84798 10.8503 4.56936 10.904 4.30001 10.99C3.95885 11.1029 3.6249 11.2365 3.30001 11.39C2.45669 11.7469 1.72211 12.3194 1.17001 13.05C0.949191 13.3321 0.820241 13.6751 0.80057 14.0327C0.780898 14.3904 0.871454 14.7455 1.06001 15.05C1.14881 15.1995 1.26902 15.3279 1.41233 15.4263C1.55564 15.5247 1.71863 15.5908 1.89001 15.62C2.32278 15.6529 2.7545 15.5441 3.12001 15.31C3.75269 14.8692 4.4514 14.5316 5.19001 14.31C5.36307 14.2675 5.54368 14.2662 5.71735 14.3061C5.89101 14.3461 6.0529 14.4262 6.19001 14.54C5.95667 14.9533 5.72667 15.3333 5.50001 15.68C4.84001 16.68 4.17001 17.52 3.37001 18.68C2.99503 19.2211 2.66077 19.7894 2.37001 20.38C2.15445 20.891 2.07853 21.4501 2.15001 22C2.15461 22.274 2.2491 22.5388 2.41894 22.7538C2.58878 22.9689 2.82456 23.1221 3.09001 23.19C3.39815 23.2406 3.71327 23.2295 4.0171 23.1574C4.32093 23.0853 4.60744 22.9536 4.86001 22.77C5.57313 22.2116 6.18532 21.5352 6.67001 20.77C7.12495 20.1041 7.49766 19.3855 7.78001 18.63C7.97152 18.6312 8.16245 18.6513 8.35001 18.69C8.59318 18.7378 8.8287 18.8185 9.05001 18.93C9.30995 19.0973 9.53704 19.3108 9.72001 19.56C9.78918 19.6535 9.83596 19.7616 9.85677 19.8761C9.87757 19.9905 9.87184 20.1082 9.84001 20.22C9.71103 20.5383 9.55722 20.8459 9.38001 21.14C9.21768 21.4477 9.1384 21.7924 9.15001 22.14C9.17728 22.366 9.26776 22.5797 9.41104 22.7566C9.55432 22.9335 9.7446 23.0664 9.96001 23.14L10.59 23.31C11.0756 23.3717 11.5683 23.2808 12 23.05C12.393 22.8411 12.7346 22.5473 13 22.19C13.4794 21.5585 13.7487 20.7926 13.77 20C13.7807 19.2217 13.5728 18.456 13.17 17.79C12.997 17.4878 12.7699 17.22 12.5 17ZM12.12 21.49C11.942 21.712 11.7209 21.8957 11.47 22.03C11.2409 22.1547 10.9794 22.207 10.72 22.18L10.39 22.11C10.25 22.05 10.18 21.98 10.2 21.87C10.27 21.39 10.64 20.87 10.72 20.41C10.7645 20.2184 10.7706 20.02 10.738 19.826C10.7054 19.6321 10.6347 19.4465 10.53 19.28C10.2586 18.8622 9.88746 18.5185 9.45001 18.28C9.1368 18.1258 8.79776 18.0309 8.45001 18C8.18782 17.9652 7.92219 17.9652 7.66001 18C7.57376 17.9709 7.47957 17.9766 7.39743 18.0158C7.31528 18.055 7.25164 18.1247 7.22001 18.21C6.8984 18.9294 6.48131 19.6021 5.98001 20.21C5.51919 20.8386 4.95035 21.3804 4.30001 21.81C4.05951 21.9587 3.78273 22.0382 3.50001 22.04C3.44342 22.0349 3.391 22.0081 3.35372 21.9653C3.31644 21.9224 3.2972 21.8668 3.30001 21.81C3.29711 21.4868 3.3726 21.1677 3.52001 20.88C3.75788 20.332 4.03875 19.8037 4.36001 19.3C4.94001 18.23 5.45001 17.42 5.94001 16.56C6.27001 15.97 6.59001 15.36 6.94001 14.64C6.96422 14.5911 6.97242 14.5358 6.96345 14.4819C6.95447 14.4281 6.92878 14.3784 6.89001 14.34C6.687 14.0791 6.41272 13.8826 6.10036 13.7743C5.78799 13.6661 5.45094 13.6507 5.13001 13.73C4.30645 13.9413 3.5205 14.2786 2.80001 14.73C2.61185 14.8428 2.39904 14.908 2.18001 14.92C2.11008 14.9173 2.04226 14.8953 1.98403 14.8565C1.9258 14.8177 1.87942 14.7635 1.85001 14.7C1.77067 14.5384 1.7416 14.3568 1.76655 14.1785C1.79151 14.0003 1.86935 13.8336 1.99001 13.7C2.45331 13.1391 3.05721 12.7112 3.74001 12.46C4.04979 12.3339 4.36706 12.227 4.69001 12.14C4.85391 12.0735 5.02509 12.0265 5.20001 12C5.58239 11.9991 5.96292 12.0529 6.33001 12.16C7.33001 12.42 8.28001 12.9 9.21001 13.16C9.71078 13.2858 10.2239 13.3563 10.74 13.37C11.2408 13.3856 11.7421 13.3655 12.24 13.31C12.6155 13.2608 12.9823 13.1599 13.33 13.01C13.8015 12.806 14.2562 12.5653 14.69 12.29C14.8976 12.1595 15.119 12.0522 15.35 11.97C15.5146 11.9096 15.6954 11.9096 15.86 11.97C16.36 12.16 16.35 12.58 16.17 12.97C15.9129 13.5067 15.5067 13.958 15 14.27C14.3026 14.6871 13.5196 14.9401 12.71 15.01C11.8715 15.0695 11.029 15.0292 10.2 14.89C10.1505 14.88 10.0995 14.88 10.05 14.89C9.98876 14.8738 9.92412 14.8755 9.86383 14.895C9.80354 14.9145 9.75014 14.951 9.71001 15C9.47974 15.227 9.29925 15.4995 9.18001 15.8C9.15625 15.9087 9.15835 16.0214 9.18615 16.1291C9.21394 16.2368 9.26664 16.3364 9.34001 16.42C9.48061 16.593 9.66304 16.7272 9.87001 16.81C10.2 16.96 10.62 17 10.92 17.13C11.2081 17.2554 11.4828 17.4095 11.74 17.59C11.9621 17.76 12.146 17.9746 12.28 18.22C12.5406 18.7434 12.6579 19.3265 12.62 19.91C12.6177 20.4722 12.4432 21.0201 12.12 21.48V21.49Z" fill="black"/>
<path fill-rule="evenodd" clip-rule="evenodd" d="M23.16 7.58999C23.1 6.25999 22.98 4.93999 22.87 3.58999C22.8425 2.96376 22.7589 2.34126 22.62 1.72999C22.4918 1.26403 22.2436 0.839886 21.9 0.499992C21.5088 0.183753 21.023 0.0077146 20.52 -7.64069e-06C19.6282 -0.0119949 18.7365 0.031422 17.85 0.129992C16.75 0.129992 15 0.129992 13.38 0.199992C12.3762 0.228166 11.3747 0.311626 10.38 0.449992C9.90584 0.512575 9.4419 0.636965 9.00001 0.819992C8.75302 0.928262 8.55147 1.11921 8.43001 1.35999C8.34889 1.58384 8.32149 1.82361 8.35001 2.05999C8.35001 2.51999 8.53001 3.05999 8.57001 3.35999C8.58239 3.43873 8.62463 3.50967 8.68794 3.55809C8.75125 3.6065 8.83078 3.62867 8.91001 3.61999C8.94955 3.61508 8.98772 3.60233 9.02228 3.58251C9.05685 3.56268 9.08711 3.53617 9.11132 3.50452C9.13552 3.47287 9.15318 3.43671 9.16326 3.39816C9.17333 3.35961 9.17563 3.31944 9.17001 3.27999C9.12001 2.99999 9.00001 2.58999 9.00001 2.18999C8.95215 2.00639 8.95215 1.81359 9.00001 1.62999C9.09626 1.49648 9.23893 1.40375 9.40001 1.36999C9.74618 1.27169 10.1013 1.20805 10.46 1.17999C11.4317 1.05556 12.4104 0.995429 13.39 0.999992C15.01 0.999992 16.75 1.04999 17.85 1.06999C18.3 1.06999 19.25 0.959992 20.09 0.989992C20.4613 0.95331 20.8342 1.04127 21.15 1.23999C21.3525 1.45829 21.4909 1.72817 21.55 2.01999C21.6647 2.56624 21.7283 3.12196 21.74 3.67999C21.84 4.97999 21.95 6.28999 22.01 7.59999C22.01 8.46999 22.07 9.32999 22.01 10.2L22 13.14L21.9 15.3V18.37C21.9 19.39 21.9 20.42 21.99 21.44C21.99 21.73 21.77 22.74 22.11 22.9C21.8021 23.0662 21.4598 23.1586 21.11 23.17C20.46 23.23 19.77 23.17 19.18 23.17H15.57C15.4798 23.17 15.3934 23.2058 15.3296 23.2696C15.2658 23.3333 15.23 23.4198 15.23 23.51C15.2326 23.6011 15.2706 23.6875 15.336 23.751C15.4014 23.8145 15.4889 23.85 15.58 23.85L19.2 24C19.9694 24.0451 20.7407 24.0451 21.51 24C21.8875 23.9482 22.2511 23.8224 22.58 23.63C22.6843 23.5596 22.7711 23.4662 22.8335 23.357C22.8959 23.2477 22.9324 23.1256 22.94 23C22.9569 22.478 22.9234 21.9556 22.84 21.44V18.44C22.84 17.44 22.89 16.44 22.94 15.44L23.09 13.3L23.19 10.37C23.22 9.37999 23.2 8.48999 23.16 7.58999Z" fill="black"/>
</g>
<defs>
<clipPath id="clip0_1052_9252">
<rect width="24" height="24" fill="white"/>
</clipPath>
</defs>
</svg>
