<svg width="24" height="24" viewBox="0 0 24 24" fill="none" xmlns="http://www.w3.org/2000/svg">
<g clip-path="url(#clip0_1052_9284)">
<path d="M23.25 17.64C23.06 16.97 22.84 16.31 22.61 15.64C22.26 14.69 21.85 13.75 21.45 12.81C20.95 11.65 20.45 10.54 19.91 9.44996C19.09 7.76996 18.25 6.14996 17.4 4.51996C16.8397 3.3602 16.1267 2.28062 15.28 1.30996C14.6463 0.573206 13.7561 0.104911 12.79 -3.52802e-05C12.4793 -0.00748688 12.1712 0.0575668 11.89 0.189965C11.529 0.360671 11.1926 0.57931 10.89 0.839965C10.3348 1.35401 9.8261 1.9162 9.37001 2.51996C8.88423 3.10969 8.44301 3.73475 8.05001 4.38996C6.93001 6.24996 6.00001 7.74996 4.93001 9.54996C4.34001 10.55 3.72001 11.75 3.06001 13.13C2.76001 13.74 2.30001 14.83 1.88001 15.93C1.46001 17.03 1.05001 18.14 0.880008 18.79C0.601811 19.4116 0.361374 20.0494 0.160008 20.7C0.064584 21.1853 0.064584 21.6846 0.160008 22.17C0.227043 22.4633 0.393007 22.7246 0.630008 22.91C1.20001 23.39 1.63001 23.53 3.77001 23.55C5.48001 23.55 7.70001 23.48 8.60001 23.49L16.85 23.64C17.85 23.64 18.85 23.9 19.85 23.97C20.3091 24.0097 20.7709 24.0097 21.23 23.97C21.5912 23.9468 21.9494 23.8899 22.3 23.8C22.5943 23.7111 22.8576 23.5413 23.06 23.31C23.6178 22.6693 23.9266 21.8494 23.93 21C23.8717 19.8524 23.6425 18.7199 23.25 17.64ZM22.25 22.64C22.1383 22.7667 21.9865 22.8514 21.82 22.88C21.5763 22.9322 21.3289 22.9657 21.08 22.98C20.6774 23.0149 20.2726 23.0149 19.87 22.98C18.87 22.93 17.87 22.73 16.87 22.71H8.59001C7.69001 22.71 5.48001 22.84 3.76001 22.86C2.22001 22.86 1.76001 22.86 1.18001 22.41C1.02464 22.3195 0.910061 22.1727 0.860008 22C0.800242 21.6033 0.820644 21.1986 0.920008 20.81C1.0979 20.1947 1.3116 19.5903 1.56001 19C1.77001 18.37 2.19001 17.29 2.62001 16.21C3.05001 15.13 3.52001 14.08 3.82001 13.49C4.51001 12.15 5.13001 11 5.74001 9.99996C6.74001 8.21996 7.74001 6.74996 8.92001 4.90996C9.30068 4.30248 9.72162 3.72117 10.18 3.16996C10.6212 2.61823 11.1133 2.10931 11.65 1.64996C11.8247 1.48871 12.0197 1.35089 12.23 1.23996C12.38 1.14677 12.5534 1.09822 12.73 1.09996C13.4108 1.19926 14.0269 1.55749 14.45 2.09996C15.2255 3.00847 15.8747 4.0176 16.38 5.09996C17.21 6.72996 18.05 8.34997 18.86 10.01C19.38 11.09 19.86 12.19 20.39 13.33C20.8 14.25 21.2 15.16 21.55 16.1C21.78 16.71 22 17.33 22.18 17.97C22.5548 18.9316 22.7905 19.9418 22.88 20.97C22.8753 21.5856 22.648 22.1788 22.24 22.64H22.25Z" fill="black"/>
<path d="M15.05 12.43C14.8935 12.4216 14.7366 12.4216 14.58 12.43H12.63H11.22L10.44 12.35L10 12.28C10 12.2 10.07 12.11 10.09 12.07L10.8 10.72L11.92 9.04997L13.15 7.11997C13.1921 7.05189 13.2063 6.97015 13.1895 6.89186C13.1728 6.81357 13.1263 6.7448 13.06 6.69997C13.0273 6.67734 12.9904 6.66145 12.9514 6.65322C12.9125 6.64499 12.8723 6.64458 12.8333 6.65203C12.7942 6.65947 12.757 6.67462 12.7238 6.69658C12.6906 6.71855 12.6621 6.74689 12.64 6.77997L11.32 8.58997L10 10.24L9.21001 11.51C9.07992 11.6562 8.96281 11.8134 8.86001 11.98C8.79723 12.1176 8.77636 12.2706 8.80001 12.42C8.85745 12.6615 8.9949 12.8765 9.19001 13.03C9.49391 13.2296 9.83343 13.3688 10.19 13.44L11.13 13.56H12.6H14.14C14.0613 13.6919 13.9745 13.8188 13.88 13.94C13.6 14.33 13.27 14.74 13.09 14.94L10 18.85C10.0161 18.7473 10.0161 18.6427 10 18.54C9.87649 18.0789 9.69504 17.6354 9.46001 17.22C9.30221 16.9244 9.09603 16.6574 8.85001 16.43C8.79393 16.375 8.71853 16.3442 8.64001 16.3442C8.56148 16.3442 8.48609 16.375 8.43001 16.43C8.40128 16.4579 8.37845 16.4914 8.36286 16.5283C8.34727 16.5652 8.33923 16.6049 8.33923 16.645C8.33923 16.6851 8.34727 16.7247 8.36286 16.7617C8.37845 16.7986 8.40128 16.832 8.43001 16.86C8.58718 17.0649 8.70887 17.2948 8.79001 17.54C8.91514 17.9215 8.98583 18.3187 9.00001 18.72V19.47C9.01704 19.677 9.08581 19.8764 9.20001 20.05C9.26945 20.1363 9.35586 20.2075 9.45391 20.2591C9.55195 20.3107 9.65953 20.3416 9.77001 20.35C10.1254 20.3631 10.4805 20.3158 10.82 20.21C11.02 20.15 11.29 20.08 11.58 19.97C12.53 19.63 13.79 19.08 14.45 18.85C14.5375 18.8286 14.6129 18.7735 14.6598 18.6967C14.7066 18.6198 14.7211 18.5275 14.7 18.44C14.6895 18.3956 14.6702 18.3538 14.6433 18.317C14.6163 18.2802 14.5822 18.2493 14.543 18.2259C14.5038 18.2026 14.4603 18.1874 14.4152 18.1812C14.37 18.175 14.324 18.178 14.28 18.19L10.79 19L13.88 15.58C14.08 15.36 14.44 14.95 14.76 14.58C14.9691 14.3297 15.1564 14.0621 15.32 13.78C15.4329 13.585 15.5107 13.3718 15.55 13.15C15.5677 13.0083 15.5397 12.8646 15.47 12.74C15.4298 12.6586 15.3706 12.588 15.2976 12.5341C15.2245 12.4801 15.1396 12.4445 15.05 12.43Z" fill="black"/>
</g>
<defs>
<clipPath id="clip0_1052_9284">
<rect width="24" height="24" fill="white"/>
</clipPath>
</defs>
</svg>
