<svg width="24" height="24" viewBox="0 0 24 24" fill="none" xmlns="http://www.w3.org/2000/svg">
<g clip-path="url(#clip0_1052_9228)">
<path fill-rule="evenodd" clip-rule="evenodd" d="M20.55 3.15992C20.5093 3.14088 20.4652 3.13004 20.4203 3.12803C20.3754 3.12602 20.3305 3.13287 20.2883 3.14819C20.246 3.16351 20.2072 3.187 20.174 3.21733C20.1409 3.24765 20.114 3.28421 20.095 3.32492C20.0759 3.36563 20.0651 3.40969 20.0631 3.45459C20.0611 3.49949 20.0679 3.54434 20.0832 3.58659C20.0986 3.62884 20.122 3.66766 20.1524 3.70083C20.1827 3.73401 20.2193 3.76088 20.26 3.77992C21.82 4.54992 23.26 7.11992 23.17 10.2499C23.0245 12.7842 22.007 15.1902 20.29 17.0599C18.9568 18.7122 17.2818 20.0563 15.38 20.9999C13.5099 21.9004 11.3732 22.0785 9.37996 21.4999C8.80358 21.3347 8.26161 21.0671 7.77996 20.7099C7.37996 20.4099 7.00996 20.0699 7.14996 19.6399C7.18298 19.5527 7.2303 19.4716 7.28996 19.3999C7.43996 19.1999 7.61996 19.0199 7.74996 18.8499C8.10996 18.3999 8.45996 17.9499 8.83996 17.5299C9.21996 17.1099 9.34996 16.9799 9.61996 16.7199C9.78084 16.5568 9.95113 16.4032 10.13 16.2599C10.2307 16.1731 10.3507 16.1114 10.48 16.0799C10.48 16.0799 10.59 16.0799 10.64 16.1499C10.83 16.2702 11.0136 16.4004 11.19 16.5399C11.6954 17.0036 12.273 17.3819 12.9 17.6599C13.1143 17.7429 13.3497 17.7546 13.5712 17.6934C13.7927 17.6321 13.9886 17.5012 14.13 17.3199L17.21 13.5399C17.64 13.0499 18.21 12.4599 18.74 11.8299C19.0931 11.3996 19.3642 10.9081 19.54 10.3799C19.5809 10.1921 19.5768 9.99731 19.5282 9.81137C19.4795 9.62542 19.3876 9.45361 19.26 9.30992C18.8205 8.80976 18.3424 8.34499 17.83 7.91992C17.51 7.62992 17.21 7.36992 17.17 7.10992L17.57 6.56992L19.28 4.28992C19.3098 4.26365 19.3336 4.23133 19.35 4.19512C19.3663 4.15892 19.3748 4.11965 19.3748 4.07992C19.3748 4.0402 19.3663 4.00093 19.35 3.96472C19.3336 3.92851 19.3098 3.8962 19.28 3.86992C19.252 3.84119 19.2186 3.81836 19.1817 3.80277C19.1447 3.78718 19.105 3.77915 19.065 3.77915C19.0249 3.77915 18.9852 3.78718 18.9483 3.80277C18.9113 3.81836 18.8779 3.84119 18.85 3.86992L17.05 6.15992C16.95 6.29992 16.74 6.48992 16.62 6.68992C16.5402 6.84384 16.5055 7.01716 16.52 7.18992C16.6091 7.49609 16.7742 7.77474 17 7.99992C17.45 8.49992 18.17 9.04992 18.57 9.55992C18.73 9.74992 18.85 9.91992 18.8 10.0799C18.6467 10.5074 18.4124 10.9012 18.11 11.2399C17.61 11.8399 17 12.3999 16.58 12.8699L13.38 16.5899C13.33 16.6499 13.26 16.5899 13.18 16.5899C13.0466 16.5393 12.9218 16.4685 12.81 16.3799C12.22 15.9799 11.59 15.3799 11.12 15.0799C10.9175 14.9604 10.685 14.9014 10.45 14.9099C10.1588 14.9318 9.87889 15.032 9.63996 15.1999C9.36868 15.3914 9.11136 15.6019 8.86996 15.8299C8.56996 16.1099 8.28996 16.3999 8.01996 16.6999C7.74996 16.9999 7.23996 17.6099 6.86996 18.0699C6.70996 18.2799 6.47996 18.5099 6.29996 18.7499C6.20544 18.8972 6.12826 19.0549 6.06996 19.2199C5.98421 19.5826 6.0015 19.962 6.11988 20.3154C6.23826 20.6688 6.45303 20.9821 6.73996 21.2199C7.41501 21.8253 8.21847 22.2697 9.08996 22.5199C11.3338 23.1846 13.7439 22.9995 15.86 21.9999C17.8646 20.9604 19.6187 19.4964 21 17.7099C22.8396 15.6573 23.9012 13.0245 24 10.2699C24.05 6.77992 22.31 3.99992 20.55 3.15992Z" fill="black"/>
<path fill-rule="evenodd" clip-rule="evenodd" d="M3.99999 1.44996C3.41405 1.09126 2.71205 0.973166 2.041 1.12043C1.36994 1.26768 0.781892 1.66887 0.399992 2.23996C0.191492 2.52509 0.0622259 2.86035 0.0253397 3.21165C-0.0115464 3.56295 0.0452636 3.91775 0.189992 4.23996C0.350542 4.54357 0.579641 4.80558 0.859111 5.0052C1.13858 5.20482 1.46073 5.33656 1.79999 5.38996C2.02039 5.43882 2.24452 5.46892 2.46999 5.47996C2.69623 5.49971 2.92376 5.49971 3.14999 5.47996C3.44578 5.43529 3.73265 5.34417 3.99999 5.20996C4.25064 5.09547 4.48045 4.94001 4.67999 4.74996C4.66649 5.26763 4.54023 5.77612 4.30999 6.23996C4.17911 6.59978 3.97506 6.92856 3.71072 7.20554C3.44637 7.48252 3.12748 7.70169 2.77416 7.84922C2.42085 7.99675 2.04078 8.06943 1.65796 8.06267C1.27514 8.05591 0.897882 7.96987 0.549992 7.80996C0.515257 7.79064 0.477028 7.77842 0.437528 7.774C0.398027 7.76958 0.358042 7.77305 0.319895 7.78421C0.281748 7.79538 0.2462 7.81401 0.215316 7.83903C0.184433 7.86405 0.158829 7.89496 0.139992 7.92996C0.120671 7.9647 0.108446 8.00293 0.104025 8.04243C0.099605 8.08193 0.103078 8.12191 0.114243 8.16006C0.125408 8.19821 0.144042 8.23376 0.169063 8.26464C0.194083 8.29552 0.224992 8.32113 0.259992 8.33996C2.25999 9.48996 4.25999 8.38996 5.15999 6.70996C5.43845 6.29128 5.62962 5.82074 5.72207 5.32649C5.81452 4.83224 5.80636 4.32442 5.69807 3.83339C5.58979 3.34236 5.3836 2.87821 5.09183 2.46869C4.80007 2.05917 4.42872 1.71269 3.99999 1.44996ZM4.22999 4.21996C4.06352 4.35589 3.87827 4.46704 3.67999 4.54996C3.48527 4.62835 3.27941 4.6756 3.06999 4.68996C2.8903 4.70494 2.70968 4.70494 2.52999 4.68996C2.35054 4.66345 2.17336 4.62333 1.99999 4.56996C1.79147 4.5396 1.59276 4.46155 1.41932 4.34188C1.24588 4.2222 1.10238 4.06413 0.999992 3.87996C0.941849 3.7098 0.930668 3.5271 0.967625 3.35112C1.00458 3.17513 1.08831 3.01237 1.20999 2.87996C1.45293 2.54636 1.81538 2.31953 2.22161 2.24685C2.62785 2.17418 3.04646 2.26128 3.38999 2.48996C3.62999 2.55996 4.99999 3.52996 4.22999 4.21996Z" fill="black"/>
<path fill-rule="evenodd" clip-rule="evenodd" d="M8.08002 7.79998C8.0759 7.84466 8.08067 7.88972 8.09404 7.93255C8.10742 7.97538 8.12915 8.01514 8.15797 8.04953C8.18678 8.08393 8.22212 8.11228 8.26195 8.13295C8.30178 8.15362 8.3453 8.16621 8.39002 8.16998C8.48126 8.17552 8.57106 8.14515 8.6402 8.08535C8.70935 8.02555 8.75235 7.94107 8.76002 7.84998C8.88351 7.14556 8.96367 6.43422 9.00002 5.71998V4.80998C9.00002 4.48998 9.00002 4.21998 8.94002 3.90998C8.86002 3.23998 8.72002 2.55998 8.61002 1.82998C8.60486 1.74952 8.56856 1.67423 8.50882 1.62009C8.44908 1.56595 8.37059 1.53721 8.29002 1.53998C8.21215 1.54728 8.13965 1.58285 8.08622 1.63997C8.03278 1.69709 8.00212 1.77179 8.00002 1.84998C7.93002 2.69998 7.84002 3.48998 7.83002 4.25998C7.83002 4.75998 7.83002 5.25998 7.90002 5.67998C8.00002 6.46998 8.06002 7.16998 8.08002 7.79998Z" fill="black"/>
<path fill-rule="evenodd" clip-rule="evenodd" d="M11.78 5.33C11.78 6.1 11.85 6.9 11.93 7.75C11.93 7.84017 11.9658 7.92665 12.0295 7.99041C12.0933 8.05417 12.1798 8.09 12.27 8.09C12.3601 8.09 12.4466 8.05417 12.5104 7.99041C12.5741 7.92665 12.61 7.84017 12.61 7.75C12.69 7 12.82 6.3 12.88 5.6C12.9197 5.1108 12.9197 4.61919 12.88 4.13C12.8243 3.28982 12.6388 2.46335 12.33 1.68C12.3093 1.61054 12.265 1.55051 12.2048 1.51032C12.1445 1.47013 12.072 1.45232 12 1.46C11.9225 1.48117 11.8563 1.53157 11.8153 1.60058C11.7742 1.6696 11.7616 1.75184 11.78 1.83C11.835 2.52558 11.835 3.22442 11.78 3.92C11.78 4.38 11.77 4.84 11.78 5.33Z" fill="black"/>
</g>
<defs>
<clipPath id="clip0_1052_9228">
<rect width="24" height="24" fill="white"/>
</clipPath>
</defs>
</svg>
