<svg width="24" height="24" viewBox="0 0 24 24" fill="none" xmlns="http://www.w3.org/2000/svg">
<g clip-path="url(#clip0_1049_7970)">
<path fill-rule="evenodd" clip-rule="evenodd" d="M21 4.15C20.0399 2.87907 18.8019 1.84444 17.3807 1.12518C15.9595 0.405912 14.3927 0.0210506 12.8 0C11.3198 0.062264 9.85402 0.317762 8.44001 0.76C6.9895 1.19301 5.64916 1.9331 4.51001 2.93C1.06001 6.11 -2.21999 13.15 3.92001 18.57C3.94532 18.5979 3.97619 18.6202 4.01063 18.6355C4.04508 18.6507 4.08234 18.6586 4.12001 18.6586C4.15769 18.6586 4.19494 18.6507 4.22939 18.6355C4.26383 18.6202 4.2947 18.5979 4.32001 18.57C4.34662 18.5439 4.36776 18.5128 4.38219 18.4785C4.39662 18.4441 4.40405 18.4073 4.40405 18.37C4.40405 18.3328 4.39662 18.2959 4.38219 18.2615C4.36776 18.2272 4.34662 18.1961 4.32001 18.17C3.26064 17.2762 2.43416 16.1385 1.91159 14.8548C1.38903 13.571 1.18602 12.1796 1.32001 10.8V10.63C2.0687 10.815 2.83122 10.9388 3.60001 11H5.15001C5.13002 11.3897 5.13002 11.7803 5.15001 12.17C5.1513 12.212 5.16087 12.2534 5.17816 12.2917C5.19544 12.3301 5.22012 12.3646 5.25076 12.3934C5.28141 12.4222 5.31743 12.4446 5.35677 12.4595C5.3961 12.4744 5.43798 12.4813 5.48001 12.48C5.52329 12.4815 5.56641 12.4739 5.60657 12.4577C5.64674 12.4415 5.68307 12.4171 5.71322 12.386C5.74337 12.3549 5.76667 12.3178 5.78161 12.2772C5.79656 12.2365 5.80283 12.1932 5.80001 12.15C5.80001 11.75 5.80001 11.35 5.88001 10.95C6.60001 10.95 7.30001 10.82 8.01001 10.78C8.05323 10.7828 8.09655 10.7766 8.1372 10.7616C8.17785 10.7467 8.21491 10.7234 8.246 10.6932C8.27709 10.6631 8.30152 10.6267 8.31771 10.5866C8.3339 10.5464 8.3415 10.5033 8.34001 10.46C8.34135 10.4145 8.33354 10.3692 8.31706 10.3268C8.30057 10.2844 8.27574 10.2457 8.24403 10.2131C8.21233 10.1805 8.17439 10.1545 8.13248 10.1368C8.09056 10.1191 8.04551 10.11 8.00001 10.11C7.34001 10.11 6.68001 10 6.00001 9.96C6.11993 9.34247 6.28368 8.73427 6.49001 8.14C6.71115 7.50786 6.97854 6.89286 7.29001 6.3C8.21001 6.3 9.13001 6.38 10.05 6.38C11.49 6.38 12.91 6.32 14.35 6.25L16.25 6.15L16.55 6.82C16.7204 7.15748 16.8707 7.50476 17 7.86C17.16 8.46 17.42 9.23 17.6 10.05C16.91 10.12 16.22 10.21 15.53 10.3C15.4915 10.2999 15.4534 10.3077 15.418 10.3231C15.3827 10.3384 15.3509 10.3608 15.3246 10.389C15.2983 10.4171 15.2781 10.4504 15.2653 10.4867C15.2525 10.523 15.2473 10.5616 15.25 10.6C15.2552 10.6752 15.2893 10.7454 15.3453 10.7958C15.4013 10.8461 15.4747 10.8728 15.55 10.87C16.29 10.87 17.02 10.97 17.77 11.01C17.8113 11.3148 17.828 11.6225 17.82 11.93C17.8173 11.972 17.8229 12.0142 17.8365 12.0541C17.8502 12.0939 17.8715 12.1307 17.8994 12.1623C17.9273 12.1939 17.9611 12.2197 17.999 12.2381C18.0368 12.2566 18.078 12.2675 18.12 12.27C18.1634 12.2741 18.2071 12.2696 18.2488 12.2567C18.2904 12.2439 18.329 12.2229 18.3625 12.195C18.396 12.1671 18.4236 12.1329 18.4438 12.0942C18.4639 12.0556 18.4762 12.0134 18.48 11.97C18.5002 11.6637 18.5002 11.3563 18.48 11.05H19.26H20.38C21.14 11.05 21.9 10.94 22.65 10.86C22.6771 11.5317 22.6166 12.204 22.47 12.86C22.1662 14.1658 21.642 15.4103 20.92 16.54C20.4527 17.2555 19.8307 17.8569 19.1 18.3C19.0246 18.3439 18.9696 18.4159 18.9471 18.5002C18.9246 18.5846 18.9364 18.6744 18.98 18.75C19.0257 18.8235 19.0976 18.8768 19.1812 18.8991C19.2649 18.9214 19.3538 18.911 19.43 18.87C20.2709 18.3689 20.9885 17.6854 21.53 16.87C22.3201 15.6864 22.905 14.3781 23.26 13C23.5893 11.4504 23.5566 9.84572 23.1647 8.31078C22.7727 6.77584 22.0319 5.352 21 4.15ZM20.23 4.78C20.35 4.93 20.46 5.09 20.57 5.24H17.09L16.88 4.77C16.472 3.76485 15.9084 2.83011 15.21 2C14.9285 1.70335 14.6243 1.42918 14.3 1.18C16.6433 1.64003 18.7479 2.9155 20.24 4.78H20.23ZM5.19001 3.7C6.23775 2.82388 7.45721 2.17668 8.77001 1.8C9.23001 1.66 9.71001 1.54 10.18 1.44C9.83001 1.7 9.49001 1.95 9.18001 2.24C8.578 2.75376 8.02558 3.32293 7.53001 3.94C7.19322 4.40355 6.88594 4.88784 6.61001 5.39C5.61001 5.39 4.61001 5.44 3.61001 5.44C4.08233 4.81288 4.61122 4.23044 5.19001 3.7ZM5.60001 7.85C5.41858 8.52881 5.29151 9.221 5.22001 9.92H5.08001H3.33001H1.46001C1.75135 8.51556 2.31902 7.18306 3.13001 6C4.13001 6.08 5.13001 6.15 6.18001 6.2C5.94486 6.73439 5.75096 7.28601 5.60001 7.85ZM13.66 5.2C12.24 5.2 10.81 5.2 9.38001 5.3H7.88001C8.04001 5.04 8.21001 4.78 8.39001 4.54C8.9089 3.79847 9.50563 3.11458 10.17 2.5C10.65 2.04 11.17 1.61 11.68 1.2C12.08 1.15 12.47 1.12 12.85 1.1C13.3333 1.36275 13.7721 1.70025 14.15 2.1C14.9035 2.98366 15.4836 4.00143 15.86 5.1V5.15L13.66 5.2ZM20.32 10H18.52H18.4C18.29 9.13 18.09 8.29 17.97 7.65C17.8836 7.22764 17.7632 6.81296 17.61 6.41C17.61 6.3 17.52 6.2 17.47 6.09L20.83 5.91C20.8955 5.90102 20.9558 5.86913 21 5.82C21.8679 7.10649 22.4196 8.57985 22.61 10.12C21.85 10.08 21.09 10 20.32 10Z" fill="black"/>
<path fill-rule="evenodd" clip-rule="evenodd" d="M19 21.15L17.56 21.08C17.62 20.49 17.7 19.92 17.76 19.33C17.76 19.05 17.82 18.76 17.83 18.48C17.845 18.1935 17.845 17.9065 17.83 17.62C17.83 17.13 17.83 16.62 17.78 16.16H18.17C18.2382 16.1564 18.303 16.1297 18.354 16.0842C18.4049 16.0388 18.4387 15.9773 18.45 15.91C18.4959 15.912 18.5415 15.903 18.5833 15.8839C18.625 15.8648 18.6616 15.836 18.69 15.8C18.7499 15.7384 18.7834 15.6559 18.7834 15.57C18.7834 15.4841 18.7499 15.4016 18.69 15.34C17.8 14.53 16.01 12.59 14.47 11.34C13.9995 10.9548 13.4901 10.6196 12.95 10.34C12.6449 10.1701 12.299 10.0871 11.95 10.1C11.0831 10.4416 10.2865 10.9399 9.60002 11.57C7.90002 12.95 5.81002 14.96 5.24002 15.5C5.18567 15.5544 5.15514 15.6281 5.15514 15.705C5.15514 15.7819 5.18567 15.8556 5.24002 15.91C5.24302 15.9568 5.25733 16.0022 5.28171 16.0422C5.30609 16.0823 5.33983 16.1158 5.38002 16.14C5.60829 16.2494 5.85058 16.3268 6.10002 16.37C5.94037 16.9051 5.81347 17.4495 5.72002 18C5.70506 18.2498 5.70506 18.5002 5.72002 18.75C5.72002 19 5.72002 19.26 5.78002 19.51C5.85521 20.0961 5.96541 20.6771 6.11002 21.25C5.82002 21.25 5.53002 21.32 5.25002 21.37C5.17749 21.3776 5.11078 21.4132 5.06409 21.4692C5.0174 21.5253 4.99442 21.5973 5.00002 21.67C4.97323 21.6128 4.92723 21.5668 4.87002 21.54C4.83603 21.5234 4.79901 21.5138 4.76121 21.5118C4.7234 21.5099 4.6856 21.5156 4.65008 21.5287C4.61456 21.5418 4.58206 21.562 4.55455 21.588C4.52704 21.614 4.50509 21.6453 4.49002 21.68C4.3962 21.8535 4.31596 22.0341 4.25002 22.22C4.20062 22.3749 4.18028 22.5377 4.19002 22.7C4.20435 22.8259 4.248 22.9466 4.31747 23.0526C4.38694 23.1585 4.48029 23.2467 4.59002 23.31C4.82877 23.4563 5.09368 23.5548 5.37002 23.6C5.64069 23.6587 5.91446 23.7021 6.19002 23.73C6.81002 23.8 7.45002 23.83 8.06002 23.88C8.88002 23.94 9.70002 24 10.53 24.02H14.22C15.05 24.02 15.96 24.02 16.85 23.95C17.4512 23.9192 18.0493 23.8457 18.64 23.73C18.9174 23.6965 19.1794 23.5846 19.3955 23.4075C19.6116 23.2304 19.7727 22.9954 19.86 22.73C19.9306 22.4645 19.9279 22.1847 19.8522 21.9206C19.7765 21.6565 19.6306 21.4178 19.43 21.23C19.3805 21.1665 19.3094 21.1233 19.2302 21.1085C19.151 21.0938 19.0691 21.1085 19 21.15ZM16.86 21.05L14 20.91C14 20.44 14.05 19.97 14.07 19.49C14.09 19.01 14.07 18.61 14.07 18.18C14.07 17.75 14.02 17.06 13.99 16.51C15.14 16.43 16.18 16.33 16.99 16.25C16.89 16.69 16.8 17.12 16.74 17.57C16.6985 17.8551 16.6718 18.1421 16.66 18.43V19.3C16.7 19.89 16.75 20.47 16.81 21.05H16.86ZM10.47 16.64H10.55C11.48 16.64 12.45 16.64 13.37 16.54C13.28 16.97 13.19 17.41 13.14 17.85C13.0999 18.1316 13.0799 18.4156 13.08 18.7C13.0653 18.9831 13.0653 19.2669 13.08 19.55C13.08 19.99 13.18 20.43 13.25 20.86H10.9H10.4C10.4 20.4 10.4 19.95 10.47 19.49C10.54 19.03 10.47 18.61 10.47 18.18C10.47 17.75 10.45 17.15 10.42 16.64H10.47ZM11.42 11.46C11.6133 11.3049 11.8291 11.1801 12.06 11.09C12.2749 11.1202 12.4801 11.1988 12.66 11.32C13.0693 11.5551 13.4634 11.8156 13.84 12.1C15.22 13.1 16.84 14.62 17.84 15.48H17.71C17.6885 15.4369 17.6575 15.3993 17.6194 15.3699C17.5814 15.3404 17.5371 15.32 17.49 15.31C17.4345 15.3081 17.3797 15.3234 17.3331 15.3539C17.2866 15.3843 17.2506 15.4283 17.23 15.48H12.41C11.64 15.48 10.87 15.48 10.12 15.55C8.81002 15.6 7.61002 15.68 6.73002 15.65C6.43537 15.6483 6.14124 15.6249 5.85002 15.58C6.56002 15 8.10002 13.83 9.50002 12.79C10.19 12.27 10.86 11.79 11.37 11.46H11.42ZM6.61002 16.39C7.62107 16.53 8.63951 16.6101 9.66002 16.63C9.58002 17.03 9.50002 17.44 9.45002 17.86C9.4099 18.1416 9.38985 18.4256 9.39002 18.71C9.37531 18.9931 9.37531 19.2769 9.39002 19.56C9.42476 20.0064 9.48486 20.4504 9.57002 20.89H9.27002C8.42002 20.94 7.57002 21.02 6.73002 21.12V19.37V18.21C6.75002 17.6 6.66002 17 6.61002 16.39ZM19.15 22.44C19.0944 22.573 19.0016 22.687 18.8827 22.7686C18.7639 22.8502 18.6241 22.8958 18.48 22.9C17.9228 22.9696 17.3616 23.003 16.8 23C15.92 23 15.02 23 14.2 22.93H8.08002H6.49002C6.15561 22.9262 5.82171 22.9028 5.49002 22.86C5.32972 22.8469 5.17177 22.8133 5.02002 22.76C4.93002 22.76 4.84002 22.69 4.83002 22.61C4.81013 22.5312 4.81013 22.4488 4.83002 22.37C4.86783 22.2039 4.92488 22.0428 5.00002 21.89C5.01991 21.8282 5.01991 21.7618 5.00002 21.7C5.01788 21.7624 5.05616 21.817 5.10874 21.8551C5.16132 21.8932 5.22515 21.9125 5.29002 21.91C6.10002 21.85 6.89002 21.84 7.69002 21.84C8.49002 21.84 9.55002 21.89 10.49 21.92C11.43 21.95 12.36 21.92 13.3 21.92L19 21.82H19.08C19.1349 21.9125 19.1695 22.0156 19.1816 22.1225C19.1936 22.2294 19.1829 22.3376 19.15 22.44Z" fill="black"/>
</g>
<defs>
<clipPath id="clip0_1049_7970">
<rect width="24" height="24" fill="white"/>
</clipPath>
</defs>
</svg>
