<svg width="24" height="24" viewBox="0 0 24 24" fill="none" xmlns="http://www.w3.org/2000/svg">
<g clip-path="url(#clip0_1049_7993)">
<path fill-rule="evenodd" clip-rule="evenodd" d="M18.68 6.71C19.68 5.71 19.14 4.28 18.83 2.81C18.707 1.97606 18.53 1.15099 18.3 0.34C18.1953 0.180106 18.0335 0.0662247 17.8476 0.0216192C17.6618 -0.0229863 17.4659 0.00504977 17.3 0.1C16.37 0.58 16.22 1.92 15.89 2.72C15.56 3.52 15.39 3.41 15.07 3.5C14.5593 3.6664 14.027 3.75735 13.49 3.77C12.64 3.23 11.61 3.53 10.77 3.44C9.36 3.31 7.76999 3.02 6.63999 3.88C6.48692 3.86729 6.33306 3.86729 6.17999 3.88C5.54675 3.82751 4.92748 3.66508 4.34999 3.4C3.80999 2.83 3.77999 1.69 3.28999 0.9C2.99999 0.39 2.42999 -0.0699995 1.87999 0.14C1.47999 0.3 1.42999 0.73 1.35999 1.14C0.769995 4.25 -5.1856e-06 5.73 1.16999 6.8C1.74773 7.23316 2.40276 7.55219 3.09999 7.74C5.46999 8.48 4.44999 7.82 5.42999 9.4C6.66999 11.4 6.64999 11.47 6.93999 11.4C6.93999 11.57 7.01999 11.94 7.02999 12.05C7.1 12.79 7.02999 13.47 7.73999 13.8C8.58293 14.2095 9.50784 14.4223 10.445 14.4223C11.3821 14.4223 12.3071 14.2095 13.15 13.8C14.07 13.3 13.69 11.97 13.75 11.25C14.0044 10.6094 14.3405 10.0044 14.75 9.45C14.9691 9.00012 15.0558 8.49726 15 8C15.72 8.24 15.65 8 16.73 7.7C17.4352 7.49225 18.0961 7.15667 18.68 6.71ZM4.99999 7.24C4.50866 6.96376 3.9932 6.7328 3.45999 6.55C0.949995 5.73 1.45999 6.19 2.28999 1.26C2.83999 1.62 2.75999 3.1 3.52999 4.05C3.8327 4.34526 4.19631 4.57076 4.59534 4.71068C4.99438 4.8506 5.41919 4.90157 5.83999 4.86C5.68 5.25 5.04999 7.16 4.99999 7.24ZM13.9 8.56C13.81 9.14 12.78 10.37 12.75 11.15C12.75 11.66 12.98 12.82 12.7 12.98C11.9839 13.3689 11.1892 13.5907 10.3752 13.6288C9.56126 13.6669 8.74924 13.5203 7.99999 13.2C7.47999 13 7.65999 11.45 7.65999 11L8.18999 10.5C8.66999 10.1 9.74 10.31 10.92 10.23C12.32 10.11 12.62 10.23 12.69 9.93C12.82 9.3 10.85 9.28 10.93 9.29C10.33 9.24 8.51999 8.72 7.59999 9.96C7.37875 10.2263 7.20917 10.5315 7.09999 10.86C5.37999 7.92 5.38999 8.53 6.09999 6.64C6.39999 5.85 6.54999 5.08 7.09999 4.64C7.96999 4.01 9.6 4.37 10.6 4.5C11.34 4.59 12.6 4.33 12.99 4.82C13.7073 5.92801 14.028 7.24632 13.9 8.56ZM15 7C14.9063 6.20078 14.6692 5.42502 14.3 4.71C14.6704 4.72859 15.0405 4.66771 15.3855 4.53145C15.7305 4.3952 16.0423 4.18671 16.3 3.92C17.05 2.99 16.99 1.49 17.54 1.13L17.85 3C17.98 3.6 18.4 5.06 18.13 5.62C18.0705 5.72421 17.9842 5.81055 17.88 5.87C17.55 6.13 14.89 7.07 15 7Z" fill="black"/>
<path fill-rule="evenodd" clip-rule="evenodd" d="M9.24999 11C9.14125 11.0653 9.04755 11.1529 8.97504 11.257C8.90252 11.3611 8.85283 11.4793 8.82923 11.604C8.80562 11.7286 8.80863 11.8568 8.83806 11.9802C8.86749 12.1036 8.92267 12.2194 8.99999 12.32C9.02339 12.403 9.07835 12.4735 9.15311 12.5165C9.22787 12.5595 9.31649 12.5715 9.39999 12.55C9.87999 12.43 9.85999 10.88 9.24999 11Z" fill="black"/>
<path fill-rule="evenodd" clip-rule="evenodd" d="M11.19 10.82C11.0726 10.9 10.9726 11.0027 10.8957 11.1221C10.8188 11.2414 10.7667 11.375 10.7424 11.515C10.7182 11.6549 10.7223 11.7982 10.7545 11.9365C10.7867 12.0748 10.8464 12.2052 10.93 12.32C10.9447 12.4041 10.9915 12.4793 11.0605 12.5296C11.1295 12.58 11.2154 12.6016 11.3 12.59C11.8 12.52 11.81 10.75 11.19 10.82Z" fill="black"/>
<path fill-rule="evenodd" clip-rule="evenodd" d="M7.67999 7.44C7.55999 7.44 7.61999 7.58 7.55999 7.66C7.22999 8.05 8.46999 8.85 8.80999 8.33C9.14999 7.81 8.05999 7.12 7.67999 7.44Z" fill="black"/>
<path fill-rule="evenodd" clip-rule="evenodd" d="M12.08 7.13001C10.08 8.29001 12.46 8.54 12.62 7.49001C12.6677 7.4184 12.6851 7.33076 12.6682 7.24637C12.6513 7.16197 12.6016 7.08774 12.53 7.04001C12.4584 6.99227 12.3708 6.97493 12.2864 6.99181C12.202 7.00869 12.1277 7.0584 12.08 7.13001Z" fill="black"/>
<path fill-rule="evenodd" clip-rule="evenodd" d="M6.9 20C6.9 19.62 7.02 19.11 6.68 18.73C5.95 17.95 3.68 18.57 2.86 18.73C2.52 18.78 1.58 18.73 1.41 19.36C1.26292 20.4982 1.29667 21.6524 1.51 22.78C1.51 23.11 1.39 23.9 1.91 23.99C1.99055 24.002 2.07263 23.9828 2.13951 23.9363C2.2064 23.8899 2.25306 23.8197 2.27 23.74V22.74C2.39 20.15 1.9 20 3 19.9C3.36 19.9 4.74 19.57 5.51 19.43C6 19.35 6.51 22.8 6.51 23.29C6.52413 23.3739 6.56755 23.4501 6.63254 23.5051C6.69752 23.5601 6.77988 23.5902 6.865 23.5902C6.95011 23.5902 7.03247 23.5601 7.09746 23.5051C7.16244 23.4501 7.20586 23.3739 7.22 23.29C7.18945 22.1873 7.08253 21.088 6.9 20Z" fill="black"/>
<path fill-rule="evenodd" clip-rule="evenodd" d="M14.88 17.45C14.9088 17.0598 14.8029 16.6715 14.58 16.35C13.82 15.54 8.96 15.72 8.63 16.06C8.3 16.4 8.54 17.23 8.55 17.53C8.79 23.99 8.76 23.24 8.78 23.33C8.93 23.81 9.48 23.72 9.49 23.33C9.7 15.33 9.62 18.09 9.64 17.5C9.66 16.91 10.33 16.91 11.75 16.92C13.87 16.92 13.75 17.21 13.83 17.57L14.32 20.63C14.6 22.29 14.47 23.24 14.98 23.28C15.49 23.32 15.46 23 14.88 17.45Z" fill="black"/>
<path fill-rule="evenodd" clip-rule="evenodd" d="M23.35 22.23C23.23 16.71 23.25 19.33 23.13 16.82C23.03 14.75 23.31 12.41 22.13 12.08C20.3479 11.8176 18.5391 11.7907 16.75 12C16.6319 12.0088 16.5171 12.0428 16.4133 12.0997C16.3094 12.1566 16.219 12.235 16.1479 12.3297C16.0769 12.4244 16.0269 12.5332 16.0014 12.6488C15.9759 12.7645 15.9754 12.8842 16 13C16 14.25 16.33 12.09 16.69 21.84V23.29C16.6925 23.3979 16.7366 23.5008 16.8129 23.5771C16.8892 23.6535 16.9921 23.6975 17.1 23.7C17.45 23.64 17.32 23.52 17.34 21.84C17.4411 19.3369 17.4144 16.8304 17.26 14.33C17.1373 13.9374 17.0438 13.5363 16.98 13.13C18.5524 13.0249 20.1307 13.045 21.7 13.19C21.9598 14.4062 22.0905 15.6464 22.09 16.89C22.67 22.97 22.54 23.41 22.81 23.62C23.65 24.27 23.41 22.78 23.35 22.23Z" fill="black"/>
</g>
<defs>
<clipPath id="clip0_1049_7993">
<rect width="24" height="24" fill="white"/>
</clipPath>
</defs>
</svg>
