<svg width="24" height="24" viewBox="0 0 24 24" fill="none" xmlns="http://www.w3.org/2000/svg">
<g clip-path="url(#clip0_1049_7963)">
<path fill-rule="evenodd" clip-rule="evenodd" d="M9.47 10.59C8.62 10.7 7.82 10.76 7.13 10.82C6.8 9.82 6.76 9.54 6.34 9.13C6.0569 8.86042 5.72238 8.65065 5.35643 8.5132C4.99047 8.37575 4.60057 8.31344 4.21 8.33C4.21 8.25 4.05 7.17 3.99 6.79C5.99 7.11 7.11 5.28 6.38 3.49C6.31 3.22 5.95 3.64 15.38 2.2C15.38 4.03 16.9 5.2 18.64 4.36C18.7169 4.33878 18.7822 4.28788 18.8216 4.21849C18.861 4.1491 18.8712 4.06691 18.85 3.99C18.8288 3.91309 18.7779 3.84775 18.7085 3.80837C18.6391 3.76899 18.5569 3.75878 18.48 3.78C17.9575 3.78814 17.4462 3.62834 17.0214 3.3241C16.5965 3.01986 16.2806 2.58727 16.12 2.09L18.64 1.7C19.0508 3.01277 19.3847 4.34837 19.64 5.7C19.2029 5.62333 18.7532 5.6683 18.34 5.83C18.0915 6.00543 17.8927 6.24228 17.763 6.51744C17.6333 6.79259 17.5772 7.09667 17.6 7.4C17.6 7.49017 17.6358 7.57665 17.6996 7.64042C17.7633 7.70418 17.8498 7.74 17.94 7.74C18.0302 7.74 18.1166 7.70418 18.1804 7.64042C18.2442 7.57665 18.28 7.49017 18.28 7.4C18.39 7 19.46 6.51 19.78 6.34C19.78 6.54 19.86 6.75 19.9 6.94C19.902 6.98195 19.9128 7.023 19.9318 7.0605C19.9507 7.098 19.9772 7.13112 20.0097 7.1577C20.0422 7.18429 20.08 7.20375 20.1205 7.21483C20.161 7.22592 20.2034 7.22837 20.2449 7.22204C20.2864 7.21571 20.3261 7.20073 20.3615 7.17807C20.3968 7.15542 20.4271 7.12559 20.4502 7.09052C20.4733 7.05545 20.4888 7.01592 20.4956 6.97449C20.5025 6.93306 20.5006 6.89064 20.49 6.85C19.8 2 19.64 0.899999 19.08 0.699999C18.17 0.369999 5.18 2.83 4 3C3.90982 3.00796 3.8265 3.05141 3.76837 3.1208C3.71023 3.19018 3.68204 3.27982 3.69 3.37C3.69795 3.46017 3.74141 3.54349 3.81079 3.60163C3.88018 3.65976 3.96982 3.68796 4.06 3.68C6.2 3.54 5.62 3.36 5.7 3.68C5.72829 4.04533 5.67874 4.4125 5.55463 4.75727C5.43051 5.10203 5.23466 5.41653 4.98 5.68C4.68706 5.99266 4.30147 6.20298 3.88 6.28C3.8 5.79 3.88 6.2 3.49 4.36C3.48675 4.14825 3.46331 3.9373 3.42 3.73C3.41024 3.6859 3.39098 3.64447 3.36354 3.6086C3.3361 3.57273 3.30116 3.54329 3.26115 3.52234C3.22115 3.50138 3.17705 3.48942 3.13194 3.48729C3.08683 3.48516 3.0418 3.49291 3 3.51C2.68 3.65 2.8 4.08 2.83 4.39C3.11 7.21 3.04 11.14 3.77 11.83C4.35 12.38 6.18 11.83 9.53 11.27C9.62017 11.262 9.70349 11.2186 9.76163 11.1492C9.81976 11.0798 9.84795 10.9902 9.84 10.9C9.83204 10.8098 9.78859 10.7265 9.7192 10.6684C9.64981 10.6102 9.56017 10.582 9.47 10.59ZM4.81 11C4.81 11 4.54 11.09 4.53 10.52L4.32 9.08C4.4 9.08 4.32 9.02 5 9.54C6.07 10.36 5.76 10.07 6.32 10.89C5.81906 10.9543 5.31496 10.991 4.81 11Z" fill="black"/>
<path fill-rule="evenodd" clip-rule="evenodd" d="M2.26999 8.32C1.21999 8.1 0.999989 8.08 0.999989 8C1.28377 6.68098 1.48086 5.34478 1.58999 4C1.67999 1.78 1.66999 0.499998 1.66999 0.579998C1.64726 0.518757 1.60633 0.46594 1.5527 0.428643C1.49907 0.391345 1.43531 0.371353 1.36999 0.371353C1.30467 0.371353 1.24091 0.391345 1.18728 0.428643C1.13365 0.46594 1.09272 0.518757 1.06999 0.579998C0.925494 1.28043 0.818674 1.98812 0.749989 2.7C0.402571 4.26297 0.224875 5.85888 0.219989 7.46C0.187578 7.82943 0.249514 8.20105 0.399989 8.54C0.639989 8.85 1.00999 8.86 2.19999 8.99C2.24715 9.00159 2.29625 9.00293 2.34398 8.99395C2.39171 8.98497 2.43696 8.96587 2.47669 8.93793C2.51641 8.90999 2.5497 8.87387 2.57429 8.83199C2.59888 8.79011 2.61422 8.74345 2.61927 8.69515C2.62431 8.64684 2.61895 8.59802 2.60355 8.55196C2.58814 8.5059 2.56304 8.46368 2.52995 8.42813C2.49686 8.39259 2.45653 8.36455 2.41169 8.34589C2.36685 8.32724 2.31853 8.31841 2.26999 8.32Z" fill="black"/>
<path fill-rule="evenodd" clip-rule="evenodd" d="M2.34998 0.679996C4.91414 1.20792 7.53798 1.38621 10.15 1.21C10.2295 1.21 10.3059 1.17839 10.3621 1.12213C10.4184 1.06587 10.45 0.989561 10.45 0.909996C10.45 0.830431 10.4184 0.754125 10.3621 0.697864C10.3059 0.641603 10.2295 0.609996 10.15 0.609996C8.88454 0.357784 7.60583 0.177495 6.31998 0.0699962C4.81998 -3.76254e-06 2.91998 -3.76184e-06 2.42998 -3.76184e-06C2.33981 -0.0106124 2.24912 0.0150348 2.17785 0.0712957C2.10659 0.127557 2.06059 0.209823 2.04998 0.299996C2.03938 0.39017 2.06502 0.480864 2.12128 0.552128C2.17754 0.623392 2.25981 0.669388 2.34998 0.679996Z" fill="black"/>
<path fill-rule="evenodd" clip-rule="evenodd" d="M13.43 7.6C13.5747 7.44152 13.655 7.23464 13.655 7.02C13.655 6.80536 13.5747 6.59848 13.43 6.44C12.95 5.88 11.79 5.84 11.2 5.7C10.61 5.56 10.82 5.5 10.68 5.42C10.9177 5.13439 11.2398 4.93136 11.6 4.84H12.11C12.1447 4.91153 12.2056 4.96698 12.28 4.9949C12.3545 5.02282 12.4368 5.02106 12.51 4.99C12.87 4.82 12.7 4.16 11.7 4.14C11.7279 3.93318 11.6778 3.72337 11.5595 3.55146C11.4412 3.37954 11.2631 3.25781 11.06 3.21C10.89 3.21 10.42 3.99 10.81 4.3C10.12 4.57 9.55998 5.05 9.65998 5.78C9.65998 6.07 10.01 6.31 10.13 6.42C10.3544 6.61357 10.6218 6.75071 10.91 6.82C11.49 6.98 13.77 7.07 11.32 7.6C11.03 7.67 10.74 7.74 10.64 7.5C10.6082 7.41435 10.5451 7.34397 10.4634 7.30312C10.3817 7.26227 10.2875 7.25401 10.2 7.28C9.72998 7.45 9.97998 8.46 11.2 8.42C11.09 8.69 11.57 9.42 11.86 9.36C12.15 9.3 12.4 8.47 12.23 8.24C12.6724 8.11812 13.0823 7.89953 13.43 7.6Z" fill="black"/>
<path fill-rule="evenodd" clip-rule="evenodd" d="M23.3 21.05C23.027 20.9279 22.7286 20.873 22.43 20.89C22.5965 20.1136 22.7233 19.3293 22.81 18.54C22.8557 17.3853 22.8156 16.2288 22.69 15.08C22.8535 15.0701 23.0133 15.0269 23.1595 14.953C23.3057 14.879 23.4352 14.7759 23.54 14.65C23.83 14.23 23.54 13.81 23.22 13.44C18.05 9 16.81 8 14.84 9.08C12.8388 10.4392 10.9373 11.9397 9.15 13.57C8.36 14.24 8.52 14.38 9.05 14.47C9.13 14.47 10.81 13.01 10.89 12.94C11.95 12.13 13.07 11.3 14.19 10.59C16.19 9.34 16.37 9.5 17.63 10.37C18.89 11.24 20.37 12.51 22.16 14.03C19.71 14.43 18.9 14.3 14.9 14.39C13.4574 14.5237 12.0085 14.5771 10.56 14.55C10.13 14.1 9.46 15.1 10.56 15.25C10.5176 15.5249 10.4909 15.802 10.48 16.08C10.3919 16.7161 10.3517 17.3579 10.36 18C10.3672 19.0899 10.4676 20.1772 10.66 21.25C9.66 21.25 8.72 21.25 8.53 21.47C8.52306 21.9822 8.55986 22.4941 8.64 23C8.87 23.69 9.72 23.67 10.4 23.65C15.65 23.54 22.62 24.73 23.54 23.41C23.82 23 24 21.48 23.3 21.05ZM20 15.33C19.6751 17.0649 19.6751 18.8451 20 20.58C20.0276 20.6581 20.082 20.7239 20.1536 20.7657C20.2252 20.8075 20.3092 20.8225 20.3908 20.8081C20.4724 20.7937 20.5463 20.7508 20.5992 20.6871C20.6522 20.6233 20.6808 20.5429 20.68 20.46C20.695 19.5715 20.7786 18.6856 20.93 17.81C20.9725 16.971 20.9019 16.1301 20.72 15.31C21.1798 15.302 21.6381 15.2552 22.09 15.17C22.04 15.37 22.09 15.01 21.82 16.97C21.7177 18.2313 21.7177 19.4987 21.82 20.76C21.82 21 22.31 20.82 18.66 20.87C18.59 20.22 18.93 19.44 18.83 17.93C18.7321 17.0544 18.5784 16.186 18.37 15.33C18.47 15.33 19.05 15.35 20 15.33ZM16.27 21C16.17 20.08 16.72 19.65 16.27 16.66C16.1321 16.2073 16.0416 15.7414 16 15.27H17.68V17.96C17.68 18.04 17.88 20.4 17.89 20.48C17.9 20.56 17.94 20.72 17.96 20.84L16.27 21ZM15.35 15.32C15.25 15.32 15.35 15.63 15.35 15.66C15.2585 16.9402 15.292 18.2263 15.45 19.5C15.4422 20.0027 15.4824 20.505 15.57 21C12.96 21.15 13.37 21.17 13.36 21C13.36 19.65 13.7 19.18 13.75 17L13.59 15.25C14.1763 15.2118 14.7647 15.2185 15.35 15.27V15.32ZM11.35 19.89C11.5476 18.6444 11.5476 17.3755 11.35 16.13C11.35 16.05 11.42 15.43 11.26 15.33C11.7992 15.3715 12.3408 15.3715 12.88 15.33C12.74 16.33 12.6 17.2 12.54 18.19C12.4716 19.1924 12.522 20.1994 12.69 21.19C11.95 21.19 11.69 21.24 11.21 21.25C11.27 21.11 11.37 19.92 11.38 19.84L11.35 19.89ZM22.25 22.8C20.25 23.11 14.18 22.67 10.34 22.94C9.34 23 9.22 22.94 9.15 22.49C9.04 21.68 9.15 21.92 9.31 21.92C13.07 22.1 14 21.74 22 22C22.05 22 22.74 22.68 22.28 22.75L22.25 22.8Z" fill="black"/>
</g>
<defs>
<clipPath id="clip0_1049_7963">
<rect width="24" height="24" fill="white"/>
</clipPath>
</defs>
</svg>
