<svg width="24" height="24" viewBox="0 0 24 24" fill="none" xmlns="http://www.w3.org/2000/svg">
<g clip-path="url(#clip0_1049_7989)">
<path fill-rule="evenodd" clip-rule="evenodd" d="M23.66 3.68C22.8962 3.68989 22.1573 3.95376 21.56 4.43C21.3164 4.635 21.1423 4.91048 21.0617 5.2185C20.9811 5.52652 20.998 5.85195 21.11 6.15C21.35 6.89 22.21 7.43 22.27 7.87C22.2762 8.16308 22.1883 8.45044 22.0191 8.68984C21.8499 8.92924 21.6084 9.10805 21.33 9.2C20.53 7.66 18.89 7.37 17.1 7.32C16.87 7.32 16.1 7.11 16 7.38C15.87 7.21 15.7 6.48 15.58 6.22C14.29 3.44 12.27 2.76 10.1 3.58C8.782 4.32898 7.5823 5.2692 6.54001 6.37C6.39001 5.37 6.10001 4.37 5.19001 4.1C4.28001 3.83 3.91001 4.56 3.78001 5.43C3.80047 6.63865 3.50396 7.83158 2.92001 8.89C2.80001 8.54 2.21001 8.66 1.86001 8.78C0.0600106 9.39 0.27001 12.14 0.10001 13.47C0.0300105 14.1 -0.29999 15.57 0.800011 15.82C1.53842 15.8273 2.26587 15.6411 2.91001 15.28C4.48001 14.52 4.37001 14.28 5.75001 14.38C5.02223 15.0545 4.44617 15.876 4.06001 16.79C3.58001 18.11 4.59001 18.79 5.76001 17.93C6.42047 17.402 7.04518 16.8307 7.63001 16.22C7.67964 16.1585 7.70477 16.0809 7.70058 16.002C7.69639 15.9231 7.66317 15.8486 7.60731 15.7927C7.55145 15.7368 7.4769 15.7036 7.39801 15.6994C7.31912 15.6952 7.24148 15.7204 7.18001 15.77C6.56348 16.2635 5.91175 16.7114 5.23001 17.11C5.00001 17.25 5.04001 17.23 5.07001 17.11C5.29001 16.38 6.34001 14.45 6.64001 14.46C6.92173 14.4985 7.20567 14.5186 7.49001 14.52C7.57488 14.52 7.65627 14.4863 7.71628 14.4263C7.7763 14.3663 7.81001 14.2849 7.81001 14.2C7.81001 14.1151 7.7763 14.0337 7.71628 13.9737C7.65627 13.9137 7.57488 13.88 7.49001 13.88C6.77001 13.88 5.92001 13.54 5.14001 13.49C3.92001 13.41 3.04001 14.26 1.57001 14.64C1.47001 14.64 1.24001 14.78 1.12001 14.8C1.04544 14.3766 1.04544 13.9434 1.12001 13.52C1.19001 12.06 0.82001 9.9 2.12001 9.31L2.44001 9.21H2.73001C2.66245 9.33091 2.57051 9.43648 2.46001 9.52C2.32001 9.52 2.10001 10.04 2.57001 10.09C3.37001 10.17 3.83001 10.33 4.82001 5.6C4.83287 5.44129 4.85964 5.28402 4.90001 5.13C5.35001 5.29 5.54001 6.52 5.61001 6.95C5.90001 8.57 6.24001 9.51 4.83001 10.35L3.90001 10.78C3.8545 10.7877 3.81119 10.8052 3.77307 10.8312C3.73494 10.8573 3.7029 10.8912 3.67915 10.9308C3.65539 10.9704 3.64049 11.0147 3.63545 11.0606C3.63041 11.1064 3.63536 11.1529 3.64996 11.1967C3.66455 11.2405 3.68846 11.2806 3.72002 11.3143C3.75159 11.348 3.79007 11.3744 3.83282 11.3918C3.87558 11.4093 3.92159 11.4172 3.96771 11.4152C4.01383 11.4131 4.05897 11.4011 4.10001 11.38L5.15001 11C6.81001 10.15 6.84001 9 6.65001 7.29C6.96001 7.29 7.45001 6.48 7.54001 6.4C8.36629 5.55899 9.3175 4.85064 10.36 4.3C10.9257 4.05672 11.5525 3.9934 12.1554 4.11863C12.7583 4.24386 13.308 4.55157 13.73 5C14.3531 5.75395 14.7884 6.64504 15 7.6C15.46 8.75 16.35 8.3 17 8.34C17.5931 8.35444 18.1831 8.43154 18.76 8.57C19.124 8.63002 19.4662 8.7831 19.7536 9.01438C20.0409 9.24566 20.2636 9.54729 20.4 9.89C20.7599 10.9093 20.7727 12.0191 20.4363 13.0464C20.0999 14.0738 19.4332 14.961 18.54 15.57C17.54 16.22 16.97 15.79 16.54 16.95C16.19 17.86 16.27 19.19 15.34 19.51C15.2636 19.5005 15.1864 19.5005 15.11 19.51C14.92 19.01 14.83 11.85 13.65 12.66C13.36 12.85 13.65 13.25 13.74 13.66L14.08 15.29C12.32 15.17 11.49 14.87 10.79 15.29C10.41 15.5 10.32 16.09 10.21 16.35C9.84974 17.2973 9.35828 18.1893 8.75001 19C8.85001 17.24 9.05001 14.8 8.83001 14.69C8.29001 14.44 8.33001 15.53 8.16001 16.62C7.87001 18.39 7.63001 19.36 7.86001 19.83C7.92684 19.9361 8.01536 20.0269 8.11974 20.0965C8.22413 20.166 8.34204 20.2127 8.46573 20.2335C8.58942 20.2542 8.7161 20.2486 8.83748 20.217C8.95885 20.1854 9.07217 20.1285 9.17001 20.05C10.05 19.51 10.83 17.69 11.17 16.71C11.23 16.57 11.17 15.94 11.36 16.06C12.3029 15.9399 13.2572 15.9399 14.2 16.06C14.38 18.28 13.95 20.26 15.03 20.41C15.3116 20.416 15.591 20.36 15.8485 20.2459C16.106 20.1319 16.3353 19.9626 16.52 19.75C17.23 18.93 17.22 17.46 17.64 17.04C18.76 16.73 18.32 16.86 18.64 16.71C18.64 16.79 19.7 19.94 19.74 20.02C19.8176 20.2377 19.9606 20.4261 20.1495 20.5593C20.3384 20.6925 20.5639 20.764 20.795 20.764C21.0261 20.764 21.2516 20.6925 21.4405 20.5593C21.6294 20.4261 21.7724 20.2377 21.85 20.02C22.0207 19.5471 22.1217 19.0519 22.15 18.55C22.28 17.43 22.9 15.27 21.7 14.83C21.41 14.72 21.29 14.83 20.91 14.64C21.3644 13.9255 21.6571 13.1203 21.7677 12.2808C21.8782 11.4413 21.8039 10.5878 21.55 9.78C22.31 9.78 23.18 8.55 23.2 7.78C23.2067 7.48427 23.1378 7.19172 23 6.93C22.66 6.37 21.51 5.64 22.43 4.93C23.35 4.22 24 4.51 24 4C24.0001 3.95624 23.9912 3.91292 23.9739 3.87274C23.9566 3.83255 23.9312 3.79634 23.8993 3.76635C23.8675 3.73636 23.8298 3.71322 23.7886 3.69837C23.7475 3.68351 23.7037 3.67726 23.66 3.68ZM21.51 15.53C21.89 15.91 21.23 17.88 21.13 18.39C21.13 18.46 20.99 19.61 20.82 19.67C20.47 19.8 19.82 17 19.22 16.38C19.7458 16.0576 20.2042 15.6366 20.57 15.14C20.89 15.41 21.3 15.32 21.51 15.53Z" fill="black"/>
</g>
<defs>
<clipPath id="clip0_1049_7989">
<rect width="24" height="24" fill="white"/>
</clipPath>
</defs>
</svg>
