<svg width="24" height="24" viewBox="0 0 24 24" fill="none" xmlns="http://www.w3.org/2000/svg">
<g clip-path="url(#clip0_1049_7978)">
<path fill-rule="evenodd" clip-rule="evenodd" d="M6.58998 19.9C6.58998 19.5 6.70998 18.97 6.35998 18.59C5.59998 17.77 3.27997 18.42 2.35997 18.59C2.01997 18.64 1.03998 18.59 0.869975 19.24C0.726063 20.4095 0.769949 21.5944 0.999975 22.75C0.999975 23.09 0.869975 23.91 1.40998 24C1.49316 24.0119 1.57776 23.9917 1.64651 23.9433C1.71527 23.895 1.763 23.8223 1.77998 23.74V22.74C1.94998 20.01 1.43998 19.89 2.59997 19.74C2.95998 19.69 4.39998 19.4 5.18998 19.26C5.68998 19.17 6.18998 22.74 6.18998 23.26C6.20433 23.3464 6.2489 23.425 6.31574 23.4816C6.38258 23.5383 6.46735 23.5694 6.55498 23.5694C6.6426 23.5694 6.72737 23.5383 6.79421 23.4816C6.86105 23.425 6.90562 23.3464 6.91998 23.26C6.87933 22.1343 6.76911 21.0121 6.58998 19.9Z" fill="black"/>
<path fill-rule="evenodd" clip-rule="evenodd" d="M15.14 20.43C14.76 16.55 14.79 16.67 14.74 16.48C14.6643 16.2695 14.5299 16.0851 14.3527 15.9486C14.1755 15.8121 13.9628 15.7293 13.74 15.71C12.22 15.35 8.63997 15.49 8.35997 15.79C7.92997 16.23 8.25997 17 8.26997 17.31L8.48997 22.63C8.48997 22.86 8.37997 23.63 8.90997 23.63C8.95283 23.6313 8.99551 23.624 9.0355 23.6086C9.07549 23.5931 9.11195 23.5697 9.14274 23.5399C9.17352 23.51 9.19799 23.4743 9.21469 23.4348C9.23139 23.3953 9.23999 23.3529 9.23997 23.31C9.45997 15.05 9.37997 17.9 9.39997 17.31C9.41997 16.72 10.11 16.7 11.58 16.71C13.78 16.71 13.67 17.01 13.73 17.38C14.63 22.75 14.49 22.85 14.63 23.09C14.658 23.1417 14.6977 23.1861 14.7459 23.2199C14.794 23.2536 14.8494 23.2757 14.9075 23.2845C14.9657 23.2932 15.0251 23.2883 15.0811 23.2702C15.137 23.252 15.188 23.2212 15.23 23.18C15.3078 22.263 15.2776 21.34 15.14 20.43Z" fill="black"/>
<path fill-rule="evenodd" clip-rule="evenodd" d="M23.59 22.17C23.47 16.46 23.5 19.17 23.37 16.58C23.26 14.43 23.56 12.02 22.32 11.68C20.4812 11.4119 18.615 11.3884 16.77 11.61C16.6511 11.6194 16.5355 11.6535 16.4305 11.71C16.3254 11.7666 16.2333 11.8443 16.16 11.9384C16.0866 12.0324 16.0336 12.1407 16.0044 12.2563C15.9751 12.3719 15.9702 12.4924 15.99 12.61C15.99 13.91 16.34 11.68 16.71 21.75C16.71 21.88 16.71 22.87 16.76 23.25C16.81 23.63 17.1 23.7 17.19 23.68C17.55 23.62 17.41 23.49 17.43 21.75C17.5 16.41 17.43 15.13 17.35 13.99C17.224 13.5841 17.1271 13.1697 17.06 12.75C18.6858 12.6382 20.3181 12.6616 21.94 12.82C22.2089 14.0756 22.3463 15.3559 22.35 16.64C22.94 22.92 22.81 23.38 23.08 23.64C23.9 24.28 23.66 22.74 23.59 22.17Z" fill="black"/>
<path fill-rule="evenodd" clip-rule="evenodd" d="M2.49999 12C2.57316 12.0139 2.64887 12.0009 2.71329 11.9636C2.7777 11.9262 2.82651 11.8669 2.85078 11.7965C2.87506 11.7261 2.87318 11.6493 2.84549 11.5802C2.8178 11.511 2.76616 11.4542 2.7 11.42C2.45725 11.3154 2.22318 11.1916 1.99999 11.05C0.449995 10.05 2.1 5.67 2.64 4.05C2.65865 3.97975 2.64925 3.905 2.6138 3.84155C2.57834 3.7781 2.5196 3.73092 2.45 3.71C2.27806 3.56068 2.12674 3.38918 1.99999 3.2C1.91109 2.95554 1.88161 2.69343 1.91399 2.43533C1.94637 2.17723 2.03968 1.93053 2.18622 1.71561C2.33276 1.50068 2.52832 1.3237 2.75676 1.19927C2.98519 1.07484 3.23995 1.00654 3.49999 0.999997C3.79622 1.03873 4.08164 1.13658 4.33931 1.28775C4.59699 1.43892 4.82166 1.64032 5 1.88C5.03991 1.94876 5.10472 1.99956 5.18103 2.02189C5.25733 2.04423 5.3393 2.03639 5.41 2C7 1.61 6.73 1.56 9.71 2C9.92 2 10.48 2.46 10.88 2C11.28 1.54 11.88 0.799997 12.72 1.25C13.56 1.7 13.45 2.36 13.31 3.19C13.2941 3.27089 13.311 3.35479 13.3569 3.42324C13.4028 3.49169 13.4741 3.53908 13.555 3.555C13.6359 3.57091 13.7198 3.55404 13.7882 3.50809C13.8567 3.46214 13.9041 3.39089 13.92 3.31C14.0776 2.83352 14.1255 2.32758 14.06 1.83C13.8 0.339997 11.77 -0.520004 10.19 1.17C10 1.06 10 0.999997 9.18 0.929997C7.90154 0.741819 6.59601 0.900694 5.4 1.39C5.01566 0.734633 4.39179 0.25418 3.66 0.0499965C3.22125 -0.0330052 2.76768 0.0176217 2.35803 0.195322C1.94839 0.373022 1.60152 0.669611 1.36234 1.04669C1.12317 1.42376 1.00271 1.86396 1.01655 2.31027C1.0304 2.75659 1.17791 3.18847 1.44 3.55C1.58265 3.69856 1.74806 3.82346 1.92999 3.92C0.809995 6 -0.350005 9 0.789995 10.93C1.19889 11.4958 1.8124 11.8796 2.49999 12Z" fill="black"/>
<path fill-rule="evenodd" clip-rule="evenodd" d="M13.68 3.87999C13.669 3.83725 13.649 3.79735 13.6213 3.76296C13.5936 3.72857 13.5589 3.70049 13.5195 3.6806C13.4801 3.6607 13.4369 3.64945 13.3928 3.6476C13.3487 3.64574 13.3047 3.65333 13.2638 3.66985C13.2229 3.68636 13.1859 3.71143 13.1555 3.74337C13.125 3.77531 13.1017 3.81339 13.0872 3.85506C13.0726 3.89673 13.0671 3.94103 13.071 3.985C13.075 4.02896 13.0883 4.07158 13.11 4.10999C14.07 6.99999 15.49 9.99999 13 11.66C12.9685 11.6771 12.9406 11.7002 12.9181 11.728C12.8955 11.7558 12.8786 11.7879 12.8684 11.8222C12.8477 11.8916 12.8555 11.9663 12.89 12.03C12.9245 12.0936 12.9828 12.141 13.0522 12.1616C13.1216 12.1823 13.1964 12.1745 13.26 12.14C14.0187 11.8156 14.6446 11.2431 15.0353 10.5164C15.4259 9.78962 15.558 8.9517 15.41 8.13999C15.0514 6.64091 14.4681 5.20467 13.68 3.87999Z" fill="black"/>
<path fill-rule="evenodd" clip-rule="evenodd" d="M10.92 13.1C11.87 11.94 11.51 10.19 10.99 8.78C10.09 6.34 9.42998 6.78 7.98998 6.54C5.72998 6.42 4.99998 7.61 4.41998 9.8C3.49998 13.51 5.47998 14.48 9.29998 13.8C9.90429 13.7594 10.4763 13.5123 10.92 13.1ZM5.48998 12.42C5.11894 11.6666 5.05791 10.7978 5.31998 10C5.66998 8.13 6.08998 7.16 7.99998 7.15C9.46998 7.3 9.45998 7.32 9.78998 7.8C10.29 8.55 11.22 11.38 10.21 12.49C9.90011 12.7209 9.52631 12.8502 9.13998 12.86C8.16998 13 6.11998 13.19 5.48998 12.42Z" fill="black"/>
<path fill-rule="evenodd" clip-rule="evenodd" d="M3.74998 5.36C3.54998 5.63 3.24998 6.19 3.39998 6.49C3.46998 6.62999 3.52998 6.73 3.63998 6.72C3.67152 6.73376 3.70556 6.74087 3.73998 6.74087C3.77439 6.74087 3.80843 6.73376 3.83998 6.72C4.12998 6.57 4.18998 6.19 4.65998 6.02C5.54998 5.7 5.65998 6.24 5.89998 5.86C5.92377 5.82633 5.94036 5.78813 5.94873 5.74776C5.9571 5.7074 5.95706 5.66574 5.94862 5.6254C5.94017 5.58505 5.9235 5.54687 5.89965 5.51325C5.8758 5.47964 5.84527 5.45129 5.80998 5.43C5.68058 5.28806 5.5241 5.17345 5.34974 5.0929C5.17539 5.01235 4.98668 4.96749 4.79472 4.96097C4.60277 4.95444 4.41145 4.98639 4.23203 5.05492C4.05261 5.12344 3.88871 5.22717 3.74998 5.36Z" fill="black"/>
<path fill-rule="evenodd" clip-rule="evenodd" d="M10.6 4.6C9.88997 4.45 9.15997 5.28 9.15997 5.37C9.15997 5.46 9.15997 5.59 9.24997 5.64C9.49997 5.76 10.05 5.64 10.19 5.64C11.08 5.52 10.97 6.19 11.38 5.99C11.79 5.79 11.34 4.76 10.6 4.6Z" fill="black"/>
<path fill-rule="evenodd" clip-rule="evenodd" d="M9.42998 8.86C8.93468 8.59113 8.37158 8.47295 7.80998 8.52C7.42367 8.56382 7.03984 8.62723 6.65998 8.71C6.57776 8.71 6.49891 8.74266 6.44077 8.8008C6.38264 8.85893 6.34998 8.93778 6.34998 9.02C6.34998 9.10222 6.38264 9.18107 6.44077 9.2392C6.49891 9.29734 6.57776 9.33 6.65998 9.33L7.32998 9.45C7.02708 9.98553 6.80151 10.5612 6.65998 11.16C6.62019 11.2449 6.61575 11.3421 6.64764 11.4302C6.67952 11.5183 6.74511 11.5902 6.82998 11.63C6.91484 11.6698 7.01204 11.6742 7.10018 11.6423C7.18833 11.6105 7.26019 11.5449 7.29998 11.46C7.43998 11.26 7.57998 11.08 7.69998 10.87C8.01998 10.32 7.55998 10.59 8.69998 11.51C8.78336 11.5801 8.88936 11.6176 8.99829 11.6155C9.10723 11.6134 9.2117 11.5719 9.29232 11.4986C9.37294 11.4253 9.42423 11.3252 9.43667 11.217C9.44911 11.1088 9.42186 10.9997 9.35998 10.91C8.48998 9.46 8.63998 9.7 8.48998 9.48C9.03998 9.38 9.40998 9.38 9.48998 9.24C9.56998 9.1 9.63998 9 9.42998 8.86Z" fill="black"/>
</g>
<defs>
<clipPath id="clip0_1049_7978">
<rect width="24" height="24" fill="white"/>
</clipPath>
</defs>
</svg>
