<svg width="24" height="24" viewBox="0 0 24 24" fill="none" xmlns="http://www.w3.org/2000/svg">
<path fill-rule="evenodd" clip-rule="evenodd" d="M23.55 3.93C23.5315 3.75377 23.4721 3.58428 23.3766 3.435C23.2812 3.28571 23.1522 3.16074 23 3.07C16.3 0.85 7.54 0.29 1.62 3.35C1.5338 3.39111 1.46747 3.46477 1.43559 3.55479C1.40371 3.64481 1.40889 3.7438 1.45 3.83C1.49111 3.9162 1.56477 3.98253 1.65479 4.01441C1.74481 4.04629 1.8438 4.04111 1.93 4C7.71 1.13 16.13 1.85 22.44 4C22.44 4.08 22.93 4.56 22.85 11.7C22.85 13.41 22.77 15 22.66 16C22.6309 16.1766 22.5874 16.3505 22.53 16.52C21.53 16.33 18.76 15.44 16.15 14.95C13.04 14.37 10.54 14.31 5.73 15.6C3.84 16.11 2.39 16.65 1.48 16.94C1.27974 16.9899 1.07572 17.0234 0.87 17.04L0.7 4.71C0.7 4.62778 0.667339 4.54893 0.609203 4.4908C0.551067 4.43266 0.472217 4.4 0.39 4.4C0.307783 4.4 0.228933 4.43266 0.170797 4.4908C0.112661 4.54893 0.08 4.62778 0.08 4.71V15.35C0.08 15.89 -0.16 17.28 0.2 17.73C0.85 18.55 3.1 16.86 8.78 15.95C8.78 16 9 19 9 19C9 20 9.59 20 10.66 19.9H12.87C13.2648 19.8803 13.6504 19.7745 14 19.59C14.24 19.43 14.32 19.38 14.38 18.54C14.44 17.7 14.5 16.3 14.51 15.8C19.34 16.48 22.61 18.16 23.36 17.52C24.32 16.7 24 6.07 23.55 3.93ZM13.4 18.69C13.12 18.8 13.82 18.76 10.55 18.8L9.98 18.85C9.62 17.16 9.46 16.31 9.37 15.85C10.8376 15.5789 12.3375 15.5283 13.82 15.7L13.4 18.69Z" fill="black"/>
<path fill-rule="evenodd" clip-rule="evenodd" d="M16.85 19.41C16.78 19.27 16.27 18.27 16.18 18.15C15.86 17.75 15.42 17.92 15.42 18.26C15.5357 18.5797 15.6938 18.8824 15.89 19.16C16.2853 19.8758 16.5431 20.6593 16.65 21.47C5.46 21.69 7.4 21.88 6.65 21.55V21.33C7.35 19.47 7.11 20.07 7.65 18.67C7.85 18.32 7.31 18.02 7.13 18.37C6.38 19.77 6.7 19.18 5.82 21.07C5.7 21.4 5.51 21.62 5.65 21.98C5.79 22.34 6.27 22.48 6.53 22.58C7.7 23.04 16.31 22.58 16.82 22.4C17.57 22.18 17.68 21.47 17.38 20.81C17.24 20.36 17.06 19.87 16.85 19.41Z" fill="black"/>
<path fill-rule="evenodd" clip-rule="evenodd" d="M20.92 6.82C20.71 4.82 19.4 4.16 17.42 4.18C17.3404 4.17204 17.261 4.19602 17.1991 4.24666C17.1372 4.29729 17.098 4.37044 17.09 4.45C17.082 4.52957 17.106 4.60903 17.1567 4.67092C17.2073 4.73281 17.2804 4.77204 17.36 4.78C19 5.1 19.6 5.84 19.84 7C20.24 9 19.93 9.64 20.48 9.64C20.5702 9.64 20.6567 9.60418 20.7204 9.54042C20.7842 9.47666 20.82 9.39017 20.82 9.3C20.9246 8.47775 20.9581 7.648 20.92 6.82Z" fill="black"/>
<path fill-rule="evenodd" clip-rule="evenodd" d="M20.4 11.7C20.17 11.7 19.73 12.48 19.81 13.03C19.8412 13.3006 19.9411 13.5588 20.1 13.78C20.25 13.95 20.35 14.06 20.48 14.02C20.81 14.02 20.84 13.67 20.93 13.02C20.9501 12.8908 20.9501 12.7592 20.93 12.63C20.91 12.5 20.68 11.7 20.4 11.7Z" fill="black"/>
</svg>
