<svg width="24" height="24" viewBox="0 0 24 24" fill="none" xmlns="http://www.w3.org/2000/svg">
<g clip-path="url(#clip0_1030_2559)">
<path fill-rule="evenodd" clip-rule="evenodd" d="M5.62001 12.49C5.70664 12.4824 5.78706 12.4418 5.84472 12.3767C5.90238 12.3116 5.9329 12.2269 5.93001 12.14C5.92746 12.0966 5.91638 12.0542 5.89739 12.0151C5.87841 11.9761 5.8519 11.9411 5.81938 11.9123C5.78686 11.8835 5.74898 11.8614 5.7079 11.8473C5.66682 11.8332 5.62336 11.8273 5.58001 11.83C4.4455 11.6917 3.30066 11.6582 2.16001 11.73C1.85001 11.73 1.31001 11.73 0.850008 11.84C0.63474 11.8699 0.423449 11.9235 0.220008 12C0.182235 12.0089 0.146635 12.0253 0.11532 12.0483C0.0840047 12.0712 0.0576106 12.1002 0.0377018 12.1335C0.017793 12.1668 0.00477466 12.2038 -0.000581844 12.2422C-0.00593835 12.2807 -0.00352399 12.3198 0.00651814 12.3573C0.0165603 12.3948 0.0340259 12.4299 0.0578799 12.4605C0.0817339 12.4911 0.111491 12.5166 0.145388 12.5355C0.179285 12.5544 0.216632 12.5663 0.255215 12.5705C0.293799 12.5747 0.332834 12.5712 0.370008 12.56C0.780008 12.56 1.77001 12.78 2.16001 12.83C2.55001 12.88 5.35001 12.53 5.62001 12.49Z" fill="black"/>
<path fill-rule="evenodd" clip-rule="evenodd" d="M23.67 11.26C19.14 10.88 20.78 11.04 17.22 11.49C17.1824 11.49 17.1451 11.4975 17.1105 11.5122C17.0758 11.5269 17.0445 11.5484 17.0184 11.5755C16.9923 11.6026 16.9718 11.6346 16.9584 11.6698C16.9449 11.7049 16.9387 11.7424 16.94 11.78C16.94 11.8569 16.9706 11.9307 17.0249 11.9851C17.0793 12.0394 17.1531 12.07 17.23 12.07C17.23 12.07 16.11 12.56 23.67 11.92C23.7575 11.92 23.8415 11.8852 23.9033 11.8233C23.9652 11.7615 24 11.6775 24 11.59C24 11.5025 23.9652 11.4185 23.9033 11.3567C23.8415 11.2948 23.7575 11.26 23.67 11.26Z" fill="black"/>
<path fill-rule="evenodd" clip-rule="evenodd" d="M10.42 3.65999C9.21512 3.88182 8.06727 4.34415 7.04499 5.01937C6.02272 5.69459 5.14696 6.56886 4.47001 7.58999C3.88906 8.4361 3.47811 9.38707 3.26001 10.39C3.42001 11.09 3.73001 10.92 4.11001 10.39C4.32907 9.57214 4.69872 8.80232 5.20001 8.11999C6.43758 6.3534 8.31922 5.14326 10.44 4.74999C11.11 4.40999 11.29 4.05999 10.42 3.65999Z" fill="black"/>
<path fill-rule="evenodd" clip-rule="evenodd" d="M12.67 3.05999C12.61 2.15999 12.49 1.46999 12.45 1.05999C12.4514 1.02191 12.4452 0.983927 12.4318 0.94823C12.4185 0.912533 12.3982 0.879818 12.3722 0.851956C12.3462 0.824094 12.315 0.801631 12.2803 0.785851C12.2456 0.770072 12.2081 0.761285 12.17 0.759995C12.0922 0.759951 12.0173 0.790182 11.9614 0.844298C11.9054 0.898414 11.8726 0.972176 11.87 1.04999C11.5089 2.91938 11.5089 4.84061 11.87 6.70999C11.8713 6.75334 11.8812 6.796 11.8989 6.83554C11.9167 6.87509 11.9421 6.91074 11.9737 6.94046C12.0053 6.97018 12.0424 6.99338 12.083 7.00874C12.1235 7.02411 12.1667 7.03133 12.21 7.02999C12.2529 7.03002 12.2954 7.02142 12.3348 7.00472C12.3743 6.98801 12.4101 6.96354 12.4399 6.93276C12.4698 6.90198 12.4931 6.86551 12.5086 6.82553C12.5241 6.78554 12.5314 6.74285 12.53 6.69999C12.6743 5.49238 12.7211 4.27512 12.67 3.05999Z" fill="black"/>
<path fill-rule="evenodd" clip-rule="evenodd" d="M19 6.70999C17.6252 5.14235 15.7611 4.08519 13.71 3.70999C12.91 4.05999 13.04 4.43999 13.71 4.84999C15.4189 5.20687 16.9642 6.11295 18.11 7.42999C18.7696 8.213 19.2782 9.11152 19.61 10.08C20.05 10.82 20.41 10.71 20.72 10.08C20.3782 8.85279 19.7933 7.70678 19 6.70999Z" fill="black"/>
<path fill-rule="evenodd" clip-rule="evenodd" d="M12.79 19.61C12.72 19.05 12.6 18.49 12.52 17.87C12.52 17.7931 12.4894 17.7193 12.4351 17.6649C12.3807 17.6105 12.3069 17.58 12.23 17.58C12.1915 17.5786 12.1532 17.5851 12.1174 17.5992C12.0816 17.6133 12.049 17.6346 12.0218 17.6618C11.9946 17.689 11.9733 17.7216 11.9592 17.7574C11.9451 17.7932 11.9386 17.8315 11.94 17.87C11.8278 18.5318 11.7544 19.1996 11.72 19.87C11.7107 20.8756 11.7944 21.8798 11.97 22.87C11.9698 22.9568 12.0029 23.0404 12.0624 23.1036C12.1219 23.1668 12.2033 23.2049 12.29 23.21C12.3333 23.2113 12.3765 23.2041 12.4171 23.1887C12.4576 23.1734 12.4947 23.1502 12.5263 23.1205C12.5579 23.0907 12.5833 23.0551 12.6011 23.0155C12.6189 22.976 12.6287 22.9333 12.63 22.89C13.05 20.06 12.8 19.71 12.79 19.61Z" fill="black"/>
<path fill-rule="evenodd" clip-rule="evenodd" d="M20 13.58C19.9217 14.2678 19.7466 14.9411 19.48 15.58C18.983 16.707 18.2282 17.7014 17.2763 18.4831C16.3244 19.2647 15.2021 19.8117 14 20.08C13.36 20.46 13.35 20.73 14 20.87C15.3802 20.6339 16.6829 20.0678 17.7973 19.2199C18.9116 18.372 19.8045 17.2673 20.4 16C20.736 15.2337 20.9552 14.4213 21.05 13.59C20.68 12.93 20.34 12.79 20 13.58Z" fill="black"/>
<path fill-rule="evenodd" clip-rule="evenodd" d="M4.17002 13.58C4.24346 14.2687 4.4187 14.9427 4.69002 15.58C5.1869 16.706 5.94191 17.6992 6.89394 18.4793C7.84597 19.2593 8.96827 19.8043 10.17 20.07C10.81 20.45 10.82 20.72 10.17 20.86C8.79741 20.6206 7.50271 20.0539 6.39561 19.2079C5.2885 18.3619 4.4016 17.2615 3.81002 16C3.46623 15.2358 3.24357 14.4227 3.15002 13.59C3.52002 12.93 3.87002 12.79 4.17002 13.58Z" fill="black"/>
</g>
<defs>
<clipPath id="clip0_1030_2559">
<rect width="24" height="24" fill="white"/>
</clipPath>
</defs>
</svg>
