<svg width="24" height="24" viewBox="0 0 24 24" fill="none" xmlns="http://www.w3.org/2000/svg">
<g clip-path="url(#clip0_1044_5397)">
<path d="M5.17 7.41L5.41 7.21C5.49566 7.15541 5.58602 7.10856 5.68 7.07C5.84134 6.99875 6.00866 6.94186 6.18 6.9C6.354 6.85798 6.53134 6.83122 6.71 6.82C6.78426 6.82 6.85548 6.7905 6.90799 6.73799C6.9605 6.68548 6.99 6.61426 6.99 6.54C6.99 6.46574 6.9605 6.39452 6.90799 6.34201C6.85548 6.2895 6.78426 6.26 6.71 6.26C6.50694 6.24504 6.30305 6.24504 6.1 6.26C5.891 6.28208 5.68383 6.31884 5.48 6.37C5.31294 6.40916 5.15161 6.46966 5 6.55C4.86227 6.61671 4.73161 6.69712 4.61 6.79L4.13 7.25C3.97818 7.42236 3.86918 7.62811 3.81184 7.85052C3.7545 8.07293 3.75044 8.30573 3.8 8.53C3.85698 8.70534 3.9575 8.86336 4.09217 8.98928C4.22683 9.1152 4.39123 9.2049 4.57 9.25C4.92 9.37 5.39 9.41 5.78 9.58C5.93875 9.63708 6.07063 9.75113 6.15 9.9C6.2309 10.0698 6.2502 10.2624 6.20459 10.4449C6.15897 10.6274 6.05128 10.7883 5.9 10.9C5.71607 11.0483 5.49644 11.1458 5.26305 11.1827C5.02965 11.2195 4.79067 11.1945 4.57 11.11C4.49573 11.0676 4.40766 11.0564 4.32514 11.0789C4.24263 11.1014 4.17243 11.1557 4.13 11.23C4.08756 11.3043 4.07636 11.3923 4.09887 11.4749C4.12137 11.5574 4.17573 11.6276 4.25 11.67C4.57831 11.8427 4.94651 11.9254 5.31713 11.9095C5.68776 11.8937 6.04758 11.78 6.36 11.58C6.70995 11.3799 6.97685 11.0613 7.11255 10.6818C7.24825 10.3022 7.24379 9.88659 7.1 9.51C6.98635 9.19877 6.77155 8.93467 6.49 8.76C5.98504 8.50916 5.44594 8.33395 4.89 8.24C4.81 8.24 4.74 8.24 4.75 8.16C4.76684 8.02426 4.81475 7.89423 4.89 7.78L5.17 7.41Z" fill="black"/>
<path d="M9.12 7.15C9.31997 7.03493 9.54994 6.98266 9.78 7H11.22C11.2661 7.00824 11.3134 7.00628 11.3586 6.99425C11.4038 6.98222 11.4459 6.96042 11.4817 6.93039C11.5176 6.90035 11.5465 6.86282 11.5663 6.82042C11.5861 6.77802 11.5963 6.73179 11.5963 6.685C11.5963 6.63821 11.5861 6.59198 11.5663 6.54958C11.5465 6.50719 11.5176 6.46965 11.4817 6.43961C11.4459 6.40958 11.4038 6.38778 11.3586 6.37575C11.3134 6.36372 11.2661 6.36176 11.22 6.37C10.6421 6.25461 10.0577 6.17446 9.47 6.13C9.13919 6.12691 8.81277 6.20594 8.52 6.36C8.32402 6.50159 8.17718 6.70087 8.1 6.93C8.01115 7.27928 7.9774 7.6403 8 8C7.99854 8.53494 8.03194 9.06941 8.1 9.6C8.22714 10.3764 8.40078 11.1444 8.62 11.9C8.63459 11.9736 8.67711 12.0386 8.73865 12.0815C8.80018 12.1244 8.87593 12.1418 8.95 12.13C9.02357 12.1154 9.08863 12.0729 9.13152 12.0114C9.1744 11.9498 9.19178 11.8741 9.18 11.8C9.18 11.3 9.1 10.8 9.07 10.27V9.57H9.22H9.54L9.85 9.5C10.09 9.42 10.3 9.32 10.55 9.25C10.6349 9.25 10.7163 9.21629 10.7763 9.15627C10.8363 9.09626 10.87 9.01487 10.87 8.93C10.87 8.84513 10.8363 8.76374 10.7763 8.70373C10.7163 8.64371 10.6349 8.61 10.55 8.61C10.2899 8.55308 10.0258 8.51631 9.76 8.5H9.4L9.08 8.57V7.99L9.12 7.15Z" fill="black"/>
<path d="M17.33 6.27C17.3178 6.1923 17.2774 6.12183 17.2165 6.07203C17.1557 6.02223 17.0786 5.99658 17 6C16.4489 6.00804 15.8978 5.98132 15.35 5.92C14.9736 5.9002 14.5964 5.9002 14.22 5.92C13.56 5.95914 12.9062 6.06979 12.27 6.25C12.205 6.26783 12.1485 6.30854 12.1111 6.36465C12.0737 6.42075 12.0578 6.48848 12.0663 6.55538C12.0748 6.62228 12.1072 6.68386 12.1575 6.7288C12.2078 6.77374 12.2726 6.79902 12.34 6.8C12.9 6.8 13.44 6.92 14.01 6.96C14.1598 6.96999 14.3102 6.96999 14.46 6.96C14.4 7.45 14.33 7.96 14.29 8.46C14.25 8.96 14.29 9.27999 14.29 9.69V11.52C14.2783 11.602 14.2989 11.6853 14.3474 11.7524C14.3959 11.8196 14.4685 11.8653 14.55 11.88C14.6335 11.8945 14.7194 11.8753 14.7888 11.8265C14.8582 11.7778 14.9054 11.7035 14.92 11.62C15.076 11.017 15.1995 10.4062 15.29 9.79C15.3146 9.52742 15.3246 9.26368 15.32 9C15.3351 8.73688 15.3351 8.47311 15.32 8.21C15.32 7.79 15.22 7.38 15.16 6.98C15.8136 6.94914 16.4614 6.84174 17.09 6.66C17.1331 6.65344 17.1742 6.63758 17.2106 6.61352C17.2469 6.58945 17.2776 6.55775 17.3004 6.52063C17.3233 6.48351 17.3377 6.44186 17.3428 6.39858C17.348 6.35529 17.3436 6.31141 17.33 6.27Z" fill="black"/>
<path d="M18 12.18C18.0729 12.1916 18.1474 12.1739 18.2073 12.1308C18.2672 12.0878 18.3077 12.0228 18.32 11.95C18.39 11.6 18.44 11.25 18.48 10.89C18.52 10.53 18.58 9.89 18.63 9.46C18.6962 9.51842 18.7817 9.55046 18.87 9.55C19.0463 9.54866 19.2215 9.52171 19.39 9.47C19.738 9.37041 20.0662 9.2114 20.36 9C20.5143 8.86712 20.652 8.71601 20.77 8.55C20.9388 8.30638 21.0477 8.02628 21.0877 7.73258C21.1276 7.43887 21.0976 7.13988 21 6.86C20.8941 6.58052 20.7295 6.32701 20.5174 6.11655C20.3052 5.90609 20.0503 5.74359 19.77 5.64C19.3982 5.49453 18.9946 5.44969 18.6 5.51C18.3483 5.56193 18.1263 5.70874 17.98 5.92C17.8612 6.12012 17.7958 6.34736 17.79 6.58C17.7724 6.9131 17.7724 7.24689 17.79 7.58V9.29V10.85C17.7929 11.184 17.7762 11.5179 17.74 11.85C17.7328 11.8891 17.7341 11.9293 17.7437 11.9678C17.7532 12.0064 17.7709 12.0425 17.7955 12.0737C17.8201 12.1049 17.851 12.1305 17.8863 12.1489C17.9216 12.1672 17.9603 12.1778 18 12.18ZM18.75 6.52C19.0161 6.48216 19.2875 6.52712 19.5272 6.64876C19.7669 6.77041 19.9634 6.96286 20.09 7.2C20.1636 7.34215 20.2021 7.4999 20.2021 7.66C20.2021 7.82009 20.1636 7.97784 20.09 8.12C20.0315 8.2301 19.9574 8.33115 19.87 8.42C19.7662 8.51122 19.6559 8.59477 19.54 8.67C19.4362 8.73521 19.3255 8.78886 19.21 8.83C19.1077 8.87177 18.9999 8.89871 18.89 8.91C18.8328 8.90993 18.777 8.92738 18.73 8.96L18.75 6.52Z" fill="black"/>
<path d="M22.89 3.34C22.7534 2.98059 22.5208 2.66557 22.2175 2.42928C21.9142 2.19299 21.5519 2.0445 21.17 2C20.2465 1.94161 19.3193 1.99872 18.41 2.17C16.41 2.36 14.29 2.69 12.17 2.87C10.8971 2.99257 9.61655 3.01597 8.34 2.94L8.28 2.47C8.18155 1.93754 8.00639 1.42218 7.76 0.94C7.65984 0.737789 7.51951 0.558122 7.34757 0.411976C7.17563 0.26583 6.97571 0.156273 6.76 0.09C6.55813 0.0331511 6.3497 0.00289548 6.14 0C5.7 0 5.21 0.06 4.82 0.05H4C3.73226 0.0588556 3.4652 0.0822232 3.2 0.12C2.67969 0.142658 2.17917 0.325969 1.7673 0.64472C1.35543 0.963471 1.05244 1.402 0.899999 1.9C0.569999 3 0.999999 4.56 0.829999 6C0.694828 7.32889 0.664734 8.66638 0.739999 10C0.80805 10.8926 0.97576 11.7747 1.24 12.63C1.24784 12.666 1.26324 12.6999 1.28517 12.7295C1.30709 12.759 1.33506 12.7836 1.3672 12.8016C1.39934 12.8196 1.43494 12.8305 1.47162 12.8337C1.50831 12.8368 1.54525 12.8322 1.58 12.82C1.65007 12.799 1.70962 12.7523 1.74671 12.6892C1.7838 12.6262 1.79569 12.5514 1.78 12.48C1.54402 11.6585 1.39981 10.8133 1.35 9.96C1.29355 8.63757 1.35042 7.31273 1.52 6C1.66 4.65 1.3 3.16 1.64 2.1C1.84 1.48 2.32 1.1 3.37 0.92H4.07H4.79H6.11C6.26301 0.9254 6.4145 0.952331 6.56 1C6.79 1.07 6.91 1.35 7.04 1.62C7.17355 1.94233 7.27407 2.27738 7.34 2.62C7.35627 2.88969 7.39643 3.1574 7.46 3.42C7.4984 3.53645 7.56995 3.63916 7.66587 3.71554C7.76179 3.79192 7.87791 3.83865 8 3.85C9.42035 3.9803 10.8496 3.9803 12.27 3.85C14.4 3.7 16.56 3.37 18.53 3.19C19.3421 3.02297 20.172 2.95913 21 3C21.2015 3.02564 21.3923 3.10511 21.5525 3.23005C21.7126 3.355 21.8361 3.52079 21.91 3.71C22.2654 5.6889 22.3796 7.70361 22.25 9.71C22.19 11.44 22.06 13 21.65 13.47C21.3915 13.7206 21.0702 13.8968 20.72 13.98C20.1018 14.1513 19.4691 14.2651 18.83 14.32C17.76 14.42 14.94 14.54 12.12 14.63C9.3 14.72 6.51 14.78 5.4 14.74C4.72601 14.7692 4.05153 14.695 3.4 14.52C2.99784 14.3886 2.64773 14.133 2.4 13.79C2.34794 13.7386 2.27985 13.7066 2.20706 13.6994C2.13428 13.6921 2.0612 13.7099 2 13.75C1.96596 13.7739 1.93707 13.8043 1.91503 13.8396C1.893 13.8748 1.87828 13.9141 1.87175 13.9552C1.86522 13.9962 1.86701 14.0382 1.87702 14.0785C1.88703 14.1188 1.90504 14.1568 1.93 14.19C2.23313 14.6447 2.66988 14.9941 3.18 15.19C3.89165 15.3944 4.62968 15.4921 5.37 15.48C7.54 15.59 16.71 15.48 18.91 15.28C19.6177 15.2302 20.3182 15.1062 21 14.91C21.5241 14.7829 22.0043 14.5169 22.39 14.14C22.88 13.6 23.2 11.8 23.29 9.78C23.4321 7.62506 23.2976 5.4608 22.89 3.34Z" fill="black"/>
<path d="M21.29 20.45C20.8954 20.2144 20.4881 20.0008 20.07 19.81C19.42 19.481 18.792 19.1102 18.19 18.7C17.7965 18.4229 17.4253 18.1153 17.08 17.78C17.0548 17.7537 17.0245 17.7327 16.991 17.7184C16.9575 17.7041 16.9214 17.6968 16.885 17.6968C16.8486 17.6968 16.8125 17.7041 16.779 17.7184C16.7455 17.7327 16.7152 17.7537 16.69 17.78C16.6634 17.8061 16.6423 17.8372 16.6278 17.8715C16.6134 17.9059 16.606 17.9428 16.606 17.98C16.606 18.0173 16.6134 18.0541 16.6278 18.0885C16.6423 18.1228 16.6634 18.1539 16.69 18.18C17.084 18.6726 17.5225 19.1278 18 19.54C18.4328 19.8959 18.8834 20.2297 19.35 20.54H19.24C18.37 20.61 17.41 20.64 16.97 20.63C16.7 20.63 16.44 20.63 16.17 20.56C15.9165 20.5292 15.6658 20.4791 15.42 20.41C14.8076 20.2663 14.249 19.9506 13.81 19.5C13.5079 19.2115 13.2576 18.8732 13.07 18.5C12.7602 17.8277 12.5513 17.1133 12.45 16.38C12.445 16.3168 12.445 16.2532 12.45 16.19C12.4359 16.1061 12.3924 16.0299 12.3275 15.9749C12.2625 15.92 12.1801 15.8898 12.095 15.8898C12.0099 15.8898 11.9275 15.92 11.8625 15.9749C11.7976 16.0299 11.7541 16.1061 11.74 16.19V16.37C11.6388 17.1065 11.4299 17.8242 11.12 18.5C10.9327 18.8708 10.6861 19.2086 10.39 19.5C9.94728 19.9509 9.3854 20.2665 8.77 20.41C8.51909 20.4947 8.26152 20.5583 8 20.6C7.73 20.6 7.47 20.66 7.21 20.67C6.76 20.67 5.8 20.67 4.93 20.58H4.86C5.32659 20.2697 5.77717 19.9359 6.21 19.58C6.70486 19.1625 7.15707 18.6968 7.56 18.19C7.58661 18.1639 7.60775 18.1328 7.62218 18.0985C7.63661 18.0641 7.64404 18.0273 7.64404 17.99C7.64404 17.9528 7.63661 17.9159 7.62218 17.8815C7.60775 17.8472 7.58661 17.8161 7.56 17.79C7.5348 17.7637 7.50453 17.7427 7.47101 17.7284C7.4375 17.7141 7.40144 17.7068 7.365 17.7068C7.32856 17.7068 7.2925 17.7141 7.25899 17.7284C7.22547 17.7427 7.1952 17.7637 7.17 17.79C6.80514 18.1244 6.41387 18.4287 6 18.7C5.39797 19.1102 4.76999 19.481 4.12 19.81C3.92 19.93 3.26 20.2 2.89 20.45C2.69195 20.5787 2.54105 20.7682 2.46 20.99C2.43407 21.0996 2.44007 21.2144 2.47728 21.3207C2.5145 21.427 2.58137 21.5205 2.67 21.59C2.85444 21.7179 3.04833 21.8315 3.25 21.93L5.25 22.93L7 24C7.06993 24.0347 7.15012 24.0426 7.22547 24.0223C7.30083 24.0019 7.36617 23.9548 7.40918 23.8897C7.45219 23.8245 7.46991 23.7459 7.45901 23.6686C7.44811 23.5913 7.40934 23.5207 7.35 23.47L5.69 22.23L4.09 21.23C4.44 21.3 4.85 21.37 5.27 21.43C6.06 21.55 6.85 21.64 7.27 21.66C7.62972 21.68 7.99028 21.68 8.35 21.66C8.59583 21.6321 8.83965 21.5887 9.08 21.53C9.62006 21.4073 10.1301 21.1778 10.5801 20.8549C11.03 20.532 11.4108 20.1223 11.7 19.65C11.8841 19.3344 12.0317 18.9989 12.14 18.65C12.2517 18.9993 12.4027 19.3348 12.59 19.65C12.8758 20.1231 13.2544 20.5336 13.7029 20.8566C14.1515 21.1797 14.6607 21.4088 15.2 21.53C15.4403 21.5887 15.6842 21.6321 15.93 21.66C16.2897 21.68 16.6503 21.68 17.01 21.66C17.4 21.66 18.19 21.55 19.01 21.43C19.43 21.37 19.84 21.3 20.19 21.23L18.59 22.23L16.98 23.42C16.9444 23.4423 16.9137 23.4716 16.8897 23.5061C16.8658 23.5406 16.8491 23.5796 16.8407 23.6207C16.8323 23.6619 16.8323 23.7043 16.8408 23.7454C16.8492 23.7866 16.866 23.8255 16.89 23.86C16.9387 23.9305 17.0128 23.9792 17.0968 23.996C17.1808 24.0128 17.268 23.9963 17.34 23.95L19 23L21 22C21.2017 21.9015 21.3956 21.7879 21.58 21.66C21.6706 21.5922 21.739 21.4989 21.7764 21.392C21.8138 21.2851 21.8185 21.1696 21.79 21.06C21.708 20.7999 21.5289 20.5815 21.29 20.45Z" fill="black"/>
</g>
<defs>
<clipPath id="clip0_1044_5397">
<rect width="24" height="24" fill="white"/>
</clipPath>
</defs>
</svg>
