<svg width="24" height="24" viewBox="0 0 24 24" fill="none" xmlns="http://www.w3.org/2000/svg">
<g clip-path="url(#clip0_1030_2580)">
<path d="M14.7 10.18C13.63 9.32999 12.49 8.39999 11.45 7.53999L14.67 10.22L14.7 10.18Z" fill="black"/>
<path d="M10.12 16C8.32998 18.26 6.44998 20.58 5.11998 22.12C4.91015 22.3485 4.65514 22.531 4.37111 22.6558C4.08708 22.7806 3.78022 22.845 3.46998 22.845C3.15973 22.845 2.85287 22.7806 2.56884 22.6558C2.28481 22.531 2.0298 22.3485 1.81998 22.12C1.11998 21.38 1.05998 20.12 2.30998 18.67L11.07 8C11.07 7.66 10.75 7.33 10.31 7.84C9.54998 8.72 7.62998 11 1.47998 18C-0.310025 20.09 -2.48551e-05 21.89 0.999975 23C1.32229 23.3431 1.71273 23.6152 2.14629 23.7987C2.57984 23.9821 3.04694 24.073 3.51766 24.0655C3.98838 24.058 4.45234 23.9522 4.8798 23.7549C5.30726 23.5577 5.6888 23.2733 5.99998 22.92C7.06998 21.62 8.47997 19.79 9.89997 17.92C11.9 15.31 13.6 12.84 14.74 11.25C15.03 10.69 14.44 10.52 14.23 10.93C13.18 12.15 11.81 13.9 10.12 16Z" fill="black"/>
<path d="M23.51 6.83C22.3749 5.49926 21.1085 4.28645 19.73 3.21C18.4141 2.08058 16.9982 1.07311 15.5 0.199995C15.3095 0.0990318 15.1032 0.0313896 14.89 -4.92483e-06C14.7974 -0.00758968 14.7043 0.00757895 14.6189 0.0441801C14.5335 0.0807813 14.4583 0.137705 14.4 0.209995C14.16 0.575703 13.8294 0.872963 13.4403 1.07276C13.0512 1.27257 12.617 1.36808 12.18 1.35C11.2506 1.24542 10.389 0.812842 9.74996 0.129995C9.65212 0.0644133 9.53428 0.0354749 9.41719 0.048281C9.30011 0.061087 9.1913 0.114815 9.10996 0.199995C8.59522 0.69577 8.12352 1.23437 7.69996 1.81C7.53996 2.02999 7.41996 2.2 7.37996 2.26999C7.34162 2.33491 7.32667 2.41099 7.33758 2.48559C7.3485 2.56018 7.38463 2.62879 7.43996 2.68C7.81996 2.97 8.04996 2.12 9.33996 0.889995C9.37165 0.851565 9.40869 0.817888 9.44996 0.789995C10.1633 1.52683 11.1037 2.00233 12.12 2.14C12.642 2.18436 13.1672 2.10416 13.6522 1.90597C14.1373 1.70778 14.5683 1.39728 14.91 0.999995C15.123 1.08239 15.3302 1.17928 15.53 1.29C17.7196 2.83233 19.7737 4.55859 21.67 6.45C22.67 7.45 23.47 7.08 20.67 10.55C20.3261 10.9955 19.9337 11.4013 19.5 11.76C19.395 11.8579 19.273 11.9359 19.14 11.99C19.14 11.94 18.99 11.99 18.89 11.9C18.3337 11.5992 17.7961 11.2653 17.28 10.9C14.9 9.25 11.28 6.35 9.43996 4.9L8.43996 4.12L8.29996 4C8.19996 3.94 7.51996 4.19 7.92996 4.56L8.20996 4.81C8.66996 5.2 9.61996 6 10.75 7L11.45 7.59C12.45 8.45 17.26 12.19 17.94 12.59C18.2849 12.8481 18.692 13.0102 19.12 13.06C19.8706 12.8411 20.5301 12.385 21 11.76C22.0669 10.585 22.9932 9.2896 23.76 7.9C23.8118 7.71503 23.8161 7.51995 23.7724 7.33289C23.7287 7.14582 23.6384 6.97284 23.51 6.83Z" fill="black"/>
</g>
<defs>
<clipPath id="clip0_1030_2580">
<rect width="24" height="24" fill="white"/>
</clipPath>
</defs>
</svg>
