<svg width="24" height="24" viewBox="0 0 24 24" fill="none" xmlns="http://www.w3.org/2000/svg">
<g clip-path="url(#clip0_1030_2585)">
<path fill-rule="evenodd" clip-rule="evenodd" d="M9.2 14.85C8.67 15.34 7.89 15.93 7.08 16.62C6.78 16.88 6.49 17.15 6.2 17.42C5.91 17.69 5.63 17.99 5.36 18.27C4.6 19.08 3.94 19.84 3.5 20.39C3.4316 20.4592 3.39325 20.5527 3.39325 20.65C3.39325 20.7473 3.4316 20.8407 3.5 20.91C3.57044 20.9761 3.66341 21.0129 3.76 21.0129C3.85659 21.0129 3.94956 20.9761 4.02 20.91C4.54 20.43 5.36 19.8 6.2 19.07C6.67 18.66 7.2 18.23 7.6 17.77C8.34464 16.9905 9.0362 16.162 9.67 15.29C9.71769 15.2254 9.73937 15.1453 9.73072 15.0654C9.72206 14.9856 9.68372 14.912 9.6233 14.8591C9.56288 14.8062 9.48479 14.778 9.40452 14.78C9.32426 14.782 9.24769 14.8141 9.19 14.87L9.2 14.85Z" fill="black"/>
<path d="M23.55 2.34999C23.2625 1.99121 22.9258 1.67476 22.55 1.40999C21.9134 0.89867 21.2454 0.427747 20.55 -6.39982e-06C20.5066 -0.00429546 20.4628 0.000612677 20.4214 0.0143976C20.3801 0.0281825 20.3421 0.0505342 20.31 0.0799936C20.31 0.0799936 17.71 2.79999 17.56 4.15999C17.5246 4.39758 17.546 4.64018 17.6225 4.86789C17.699 5.0956 17.8283 5.30194 18 5.46999L17.59 5.85999L15.84 7.45999C15.23 8.08999 14.6 8.68999 14.01 9.32999C13.42 9.96999 13.12 10.33 12.58 10.97C12.33 11.44 12.47 12.18 13.35 11.57C13.94 11.03 14.28 10.72 14.86 10.16C15.44 9.59999 16.07 8.88999 16.67 8.23999L18.15 6.38999C18.15 6.38999 18.43 6.02999 18.59 5.83999C18.7529 5.90722 18.9199 5.964 19.09 6.00999C20.0873 6.10084 21.0816 5.80754 21.87 5.18999C22.6475 4.66844 23.2695 3.94626 23.67 3.09999C23.7137 2.97483 23.7256 2.84076 23.7047 2.70984C23.6837 2.57893 23.6306 2.45527 23.55 2.34999ZM21.17 4.18999C20.6461 4.61936 19.9873 4.8496 19.31 4.83999C19 4.77999 18.79 4.70999 18.7 4.54999C18.6491 4.42802 18.6229 4.29716 18.6229 4.16499C18.6229 4.03283 18.6491 3.90197 18.7 3.77999C19.1405 2.71091 19.763 1.72632 20.54 0.869994C20.96 1.21999 21.77 1.86999 22.31 2.42999C22.44 2.57999 22.51 2.80999 22.6 2.89999C22.2088 3.41625 21.7237 3.85393 21.17 4.18999Z" fill="black"/>
<path d="M11.13 11.76L10.82 11.55L10.75 11.5C10.7015 11.4664 10.6439 11.4485 10.585 11.4485C10.526 11.4485 10.4685 11.4664 10.42 11.5C10.3568 11.5375 10.3109 11.5984 10.2921 11.6695C10.2734 11.7406 10.2834 11.8162 10.32 11.88C10.32 11.88 12.68 13.76 13.43 14.49C13.5562 14.6177 13.664 14.7624 13.75 14.92C13.8 15.01 13.85 15.1 13.81 15.19C13.7124 15.3933 13.6022 15.5904 13.48 15.78C13.4082 15.9141 13.2964 16.0225 13.16 16.09C13.02 16.14 12.96 16 12.87 15.93C12.7175 15.8193 12.5439 15.741 12.36 15.7C12.2195 15.6801 12.0764 15.6903 11.9402 15.73C11.804 15.7696 11.6778 15.8378 11.57 15.93C11.4189 16.0326 11.2782 16.1499 11.15 16.28C10.71 16.7 10.36 17.28 9.89999 17.62C8.73999 18.62 7.72999 19.76 6.60999 20.78C6.16427 21.2294 5.67897 21.6377 5.15999 22C4.6617 22.3293 4.11515 22.579 3.53999 22.74C3.31026 22.8212 3.06524 22.8499 2.82296 22.824C2.58068 22.798 2.3473 22.718 2.13999 22.59C1.92518 22.4732 1.74864 22.2969 1.63157 22.0823C1.51449 21.8677 1.46186 21.6238 1.47999 21.38C1.61003 20.7773 1.85814 20.2063 2.20999 19.7C2.77533 18.8177 3.44704 18.0083 4.20999 17.29C5.36592 16.1778 6.62115 15.1736 7.95999 14.29C8.52999 13.9 8.63999 13.52 8.57999 13.17C8.49677 12.8349 8.33186 12.5257 8.09999 12.27C7.91999 12.04 7.65999 11.82 7.74999 11.54C7.79054 11.4108 7.86173 11.2933 7.95749 11.1975C8.05326 11.1017 8.17077 11.0305 8.29999 10.99C8.40843 10.9337 8.52911 10.9052 8.65125 10.907C8.77339 10.9087 8.8932 10.9407 8.99999 11C9.03272 11.0348 9.07223 11.0625 9.11608 11.0815C9.15994 11.1005 9.20721 11.1102 9.25499 11.1102C9.30277 11.1102 9.35004 11.1005 9.3939 11.0815C9.43775 11.0625 9.47726 11.0348 9.50999 11C9.54355 10.9665 9.57018 10.9268 9.58835 10.883C9.60652 10.8393 9.61587 10.7924 9.61587 10.745C9.61587 10.6976 9.60652 10.6507 9.58835 10.6069C9.57018 10.5632 9.54355 10.5234 9.50999 10.49C9.30643 10.3123 9.05839 10.1933 8.79241 10.1457C8.52642 10.0982 8.25251 10.1238 7.99999 10.22C7.75819 10.2937 7.5367 10.4223 7.35282 10.5958C7.16894 10.7693 7.02765 10.9829 6.93999 11.22C6.88794 11.4065 6.8789 11.6024 6.91354 11.793C6.94818 11.9835 7.02561 12.1637 7.13999 12.32C7.32999 12.63 7.64999 12.9 7.68999 13.19C7.68999 13.3 7.59999 13.35 7.42999 13.46C6.0082 14.3363 4.66932 15.3404 3.42999 16.46C2.58296 17.2237 1.83089 18.0866 1.18999 19.03C0.593141 19.8016 0.260098 20.7447 0.23999 21.72C0.289052 22.0831 0.416403 22.4312 0.613236 22.7403C0.810068 23.0494 1.07168 23.312 1.37999 23.51C1.66873 23.7096 1.99399 23.8503 2.33717 23.9241C2.68036 23.9979 3.03472 24.0033 3.37999 23.94C4.25493 23.7831 5.0866 23.4422 5.81999 22.94C6.39032 22.5617 6.92577 22.1334 7.41999 21.66C8.50999 20.66 9.46999 19.42 10.59 18.43C10.9885 18.0183 11.3593 17.5806 11.7 17.12C11.8256 16.9659 11.9701 16.8282 12.13 16.71C12.25 16.61 12.32 16.71 12.39 16.71C12.5451 16.8269 12.7218 16.9118 12.91 16.96C13.1008 16.9992 13.2989 16.9818 13.48 16.91C13.6791 16.8185 13.8564 16.6855 14 16.52C14.2328 16.2147 14.4213 15.878 14.56 15.52C14.6224 15.387 14.6548 15.2419 14.6548 15.095C14.6548 14.9481 14.6224 14.803 14.56 14.67C14.4139 14.4157 14.2244 14.1889 14 14C13.58 13.62 11.26 11.85 11.13 11.76Z" fill="black"/>
</g>
<defs>
<clipPath id="clip0_1030_2585">
<rect width="24" height="24" fill="white"/>
</clipPath>
</defs>
</svg>
