<svg width="24" height="24" viewBox="0 0 24 24" fill="none" xmlns="http://www.w3.org/2000/svg">
<g clip-path="url(#clip0_1048_7260)">
<path fill-rule="evenodd" clip-rule="evenodd" d="M23.87 15.18C24 13.08 24 2.74 24 2.64C23.87 1.49 22.69 1.64 21 1.32C17.14 0.649997 16.75 0.659997 7.61999 0.929997C7.16999 0.929997 7.31999 1.05 5.91999 2.23C4.72181 3.13785 3.57034 4.10575 2.46999 5.13C0.0499916 7.57 0.229992 7.29 0.239992 7.5C0.239992 7.58752 0.274759 7.67145 0.336646 7.73334C0.398533 7.79523 0.48247 7.83 0.569992 7.83C1.19999 7.83 1.64999 6.94 2.97999 5.64C4.30999 4.34 7.56999 1.82 7.62999 1.76C7.78999 2.02 15.98 1.29 22.29 2.54C22.48 2.54 22.38 2.54 22.03 2.83C17.89 5.88 16.25 6.6 15.18 7.53C13.5769 7.26111 11.9554 7.11734 10.33 7.1C7.71999 7.1 0.229992 7.85 0.169992 7.92C0.0882772 8.41567 0.0514613 8.91771 0.0599917 9.42C-8.28877e-06 20.81 -0.0700083 22.17 0.629992 22.88C0.989992 23.26 1.81999 23.02 2.11999 23.06C2.61999 23.12 3.11999 23.14 3.61999 23.15C10.21 23.27 8.92999 22.68 15.15 23.15C15.59 23.24 16.02 23.31 16.29 23.04C17.94 21.4 18.15 22.63 23.58 17.21C24.06 16.75 23.84 15.66 23.87 15.18ZM15.07 22.07L6.99999 22.14C5.34999 22.14 1.11999 21.97 1.06999 22.01C0.629992 20.72 0.669992 9.64 0.689992 8.5C1.29999 8.5 3.17999 8.29 3.27999 8.28C10.21 8.15 13.03 8.18 15.09 8.71C15.25 12.89 14.85 13.83 15.07 22.07ZM22.72 16.12L22.37 16.83C18.1 21.12 17.45 20.54 15.76 22.05C15.98 9.24 15.94 8.71 15.81 8.46C17 7.3 17.68 7.27 22.49 3.36C22.49 3.36 22.64 3.29 22.75 3.22C22.75 3.65 22.89 4.15 22.89 4.22C22.82 19.39 22.73 12.69 22.72 16.12Z" fill="black"/>
<path fill-rule="evenodd" clip-rule="evenodd" d="M7.74 3.40997C7.74 3.11997 7.74 2.26997 7.59 2.20997C7.44 2.14997 6.99001 2.36997 7.01 2.80997C6.87 5.80997 6.94 5.60997 6.88 6.57997C6.88 7.01997 7.55001 7.32997 7.76 6.76997L7.74 3.40997Z" fill="black"/>
<path fill-rule="evenodd" clip-rule="evenodd" d="M16.25 16.92L22.13 16.83C22.54 16.56 22.61 16.14 22.19 16.13H16.25C15.85 16.22 15.76 16.72 16.25 16.92Z" fill="black"/>
<path fill-rule="evenodd" clip-rule="evenodd" d="M7.62001 16.25C7.77001 11.72 7.74001 10.56 7.76001 8.57002C7.69001 8.19002 6.95001 8.06002 6.76001 8.81002C6.65689 11.3865 6.68693 13.9666 6.85001 16.54C6.76 16.6 2.92001 20.25 1.61001 21.54C1.38001 21.87 1.61001 22.02 2.20001 21.91C8.06001 17.12 7.00001 17.64 7.65001 17.34C7.43001 17.34 7.75001 17.28 7.65001 17.34C7.96001 17.34 9.49 17.34 14.54 16.96C14.95 16.88 15.13 16.39 14.54 16.12C10.87 16.08 10 16.09 7.62001 16.25Z" fill="black"/>
<path fill-rule="evenodd" clip-rule="evenodd" d="M7.67999 17.32C7.45999 17.32 7.77999 17.26 7.67999 17.32V17.32Z" fill="black"/>
</g>
<defs>
<clipPath id="clip0_1048_7260">
<rect width="24" height="24" fill="white"/>
</clipPath>
</defs>
</svg>
