<svg width="24" height="24" viewBox="0 0 24 24" fill="none" xmlns="http://www.w3.org/2000/svg">
<g clip-path="url(#clip0_1030_2614)">
<path fill-rule="evenodd" clip-rule="evenodd" d="M11.44 21.21C11.35 20.79 11.27 20.37 11.15 19.95C10.9766 19.3079 10.7033 18.6971 10.34 18.14C10.0552 17.7109 9.7481 17.297 9.42001 16.9C9.01817 16.4159 8.49801 16.0438 7.91001 15.82C7.46158 15.6538 6.96844 15.6538 6.52001 15.82C6.17193 15.9595 5.85309 16.163 5.58001 16.42C5.2348 16.7781 4.92657 17.1701 4.66001 17.59C4.13021 18.3606 3.65248 19.1657 3.23001 20C2.79021 20.8289 2.45434 21.7089 2.23001 22.62C2.21182 22.6942 2.22368 22.7727 2.26301 22.8382C2.30233 22.9037 2.36594 22.9511 2.44001 22.97C2.51553 22.9885 2.59527 22.9769 2.66243 22.9377C2.72958 22.8985 2.77891 22.8348 2.80001 22.76C3.05044 21.9121 3.40657 21.099 3.86001 20.34C4.30765 19.57 4.8124 18.8346 5.37001 18.14C5.61592 17.7766 5.90096 17.4412 6.22001 17.14C6.40165 16.9761 6.61655 16.8533 6.85001 16.78C7.14203 16.7156 7.44768 16.7695 7.70001 16.93C8.01893 17.0995 8.30105 17.3307 8.53001 17.61C8.82001 17.98 9.12001 18.36 9.38001 18.77C9.54269 19.0189 9.68643 19.2796 9.81001 19.55C9.90867 19.7855 9.99544 20.0258 10.07 20.27C10.18 20.66 10.27 21.07 10.36 21.45C10.45 21.83 10.51 22.05 10.56 22.36C10.5798 22.5328 10.5798 22.7072 10.56 22.88C10.56 22.88 10.56 22.76 10.61 22.78C10.66 22.8 10.13 22.91 9.96001 22.95C9.50188 23.045 9.03722 23.1052 8.57001 23.13C7.84001 23.13 7.11001 23.13 6.38001 23.18L4.19001 23.23H3.59001C3.50249 23.23 3.41855 23.2648 3.35666 23.3267C3.29478 23.3885 3.26001 23.4725 3.26001 23.56C3.26691 23.6505 3.30601 23.7356 3.37021 23.7998C3.43441 23.864 3.51948 23.9031 3.61001 23.91H4.19001L6.42001 24C7.16001 24 7.90001 24.06 8.64001 24.05C9.15594 24.0469 9.67085 24.0034 10.18 23.92C10.5232 23.8956 10.8606 23.818 11.18 23.69C11.3009 23.6236 11.4052 23.5306 11.4849 23.418C11.5646 23.3054 11.6176 23.1761 11.64 23.04C11.675 22.7812 11.675 22.5188 11.64 22.26C11.5923 21.9067 11.5255 21.5561 11.44 21.21Z" fill="black"/>
<path fill-rule="evenodd" clip-rule="evenodd" d="M7.55999 21.68C7.78646 21.591 7.99215 21.4563 8.16421 21.2842C8.33626 21.1121 8.471 20.9065 8.55999 20.68C8.73841 20.2967 8.75994 19.8589 8.61999 19.46C8.40999 18.95 7.61999 18.6 7.56999 18.59C7.22027 18.5186 6.85972 18.5186 6.50999 18.59C6.22317 18.6863 5.96904 18.861 5.7764 19.0943C5.58375 19.3276 5.46029 19.6101 5.41999 19.91C5.3635 20.2286 5.40493 20.5569 5.53883 20.8514C5.67273 21.146 5.8928 21.3931 6.16999 21.56C6.37861 21.681 6.61134 21.7544 6.8516 21.7752C7.09185 21.7959 7.33373 21.7634 7.55999 21.68ZM6.72999 19.36C6.72999 19.36 7.81999 19.1 7.86999 19.81C7.86753 19.9889 7.81183 20.1629 7.70999 20.31C7.58492 20.4943 7.40192 20.6315 7.18999 20.7C7.10034 20.7237 7.00667 20.7279 6.91525 20.7124C6.82384 20.6968 6.7368 20.6619 6.65999 20.61C6.56559 20.5534 6.49035 20.4698 6.444 20.3699C6.39765 20.2701 6.38232 20.1586 6.39999 20.05C6.38804 19.916 6.41236 19.7812 6.47043 19.6598C6.52849 19.5384 6.61814 19.4348 6.72999 19.36Z" fill="black"/>
<path fill-rule="evenodd" clip-rule="evenodd" d="M6.33002 7.18C6.39505 6.48511 6.58474 5.80762 6.89002 5.18C6.91241 5.14807 6.92812 5.11195 6.93623 5.0738C6.94433 5.03566 6.94466 4.99627 6.93719 4.95799C6.92972 4.91972 6.91461 4.88334 6.89276 4.85104C6.87091 4.81874 6.84277 4.79118 6.81002 4.77C6.74625 4.72798 6.66847 4.71281 6.59358 4.72779C6.51868 4.74276 6.45272 4.78668 6.41002 4.85C5.8817 5.47464 5.49911 6.20908 5.29002 7C5.20458 7.32705 5.1543 7.66228 5.14002 8C5.13013 8.33483 5.15358 8.66982 5.21002 9C5.33155 9.81106 5.63589 10.5839 6.10002 11.26C6.14391 11.3355 6.2159 11.3904 6.30024 11.4129C6.38458 11.4354 6.47439 11.4236 6.55002 11.38C6.60746 11.3373 6.64998 11.2777 6.67153 11.2094C6.69307 11.1412 6.69254 11.0679 6.67002 11C6.39936 10.3676 6.25661 9.68786 6.25002 9V8.11C6.25002 7.81 6.30002 7.47 6.33002 7.18Z" fill="black"/>
<path fill-rule="evenodd" clip-rule="evenodd" d="M12.33 3.44L12.64 3.38C12.92 3.32 13.2 3.24 13.48 3.15C14.34 2.86 15.13 2.49 15.48 2.39C15.5305 2.38052 15.5783 2.36003 15.62 2.33L16.62 3.17C16.1979 3.41332 15.7966 3.69092 15.42 4C15.151 4.21207 14.9001 4.44622 14.67 4.7L14.44 5C13.81 6 14.16 6.16 15.28 5.62C15.3547 5.56947 15.425 5.5126 15.49 5.45C15.66 5.3 15.83 5.13 15.99 4.96C16.54 4.35 16.99 3.73 17.06 3.67L17.14 3.61C17.42 3.85 17.69 4.06 17.88 4.2C17.9459 4.24966 18.0162 4.29317 18.09 4.33C18.04 4.42 17.76 6.04 17.72 6.33C17.68 6.62 17.63 7.03 17.61 7.33C17.54 8.44 17.91 8.63 18.61 8.08C18.61 7.93 18.67 7.78 18.69 7.62C18.7385 7.20847 18.7619 6.79437 18.76 6.38C18.76 5.65 18.76 4.97 18.69 4.48C18.6949 4.4435 18.6949 4.4065 18.69 4.37C18.8899 4.2943 19.066 4.16656 19.2 4C19.4278 3.70094 19.5975 3.36172 19.7 3C19.7622 2.64885 19.748 2.28841 19.6582 1.94326C19.5685 1.59811 19.4054 1.27638 19.18 1C18.9708 0.696097 18.6919 0.44672 18.3665 0.272739C18.0412 0.0987591 17.6789 0.00523704 17.31 0C17.0325 0.043736 16.763 0.127967 16.51 0.25C16.2527 0.364722 16.0135 0.516314 15.8 0.7C15.7395 0.763272 15.7057 0.847449 15.7057 0.935C15.7057 1.02255 15.7395 1.10673 15.8 1.17C15.8307 1.20114 15.8673 1.22587 15.9076 1.24275C15.948 1.25963 15.9913 1.26832 16.035 1.26832C16.0787 1.26832 16.122 1.25963 16.1624 1.24275C16.2027 1.22587 16.2393 1.20114 16.27 1.17C16.432 1.09172 16.6034 1.03458 16.78 1C16.9668 0.93331 17.162 0.892923 17.36 0.88C17.5684 0.918093 17.766 1.0014 17.9387 1.12407C18.1115 1.24674 18.2553 1.40578 18.36 1.59C18.4807 1.76452 18.5643 1.96196 18.6055 2.1701C18.6468 2.37823 18.6449 2.59263 18.6 2.8C18.5656 3.0068 18.5051 3.20841 18.42 3.4L18.16 3.23C17.51 2.84 16.49 2.23 15.99 1.85L15.73 1.67L13.31 2C13.0428 2.06279 12.7791 2.13956 12.52 2.23C12.34 2.3 12.17 2.37 12.01 2.45C11.85 2.53 11.6 2.64 11.42 2.72C10.3 3.56 10.64 3.77 12.33 3.44Z" fill="black"/>
<path fill-rule="evenodd" clip-rule="evenodd" d="M21.76 12.91C21.75 11.81 8.12 2 4.84 1.55C4.33 1.49 3.84 2.26 3.38 3.13C2.89029 4.20786 2.55369 5.34891 2.38 6.52C2.24057 7.72842 2.22047 8.94763 2.32 10.16C2.4048 10.9855 2.61032 11.7942 2.93 12.56C3.25454 13.2024 3.65037 13.8062 4.11 14.36C4.4136 14.7495 4.77833 15.0872 5.19 15.36C5.22283 15.3797 5.25922 15.3927 5.29709 15.3984C5.33496 15.404 5.37357 15.4021 5.41071 15.3928C5.44785 15.3836 5.4828 15.367 5.51357 15.3442C5.54433 15.3215 5.5703 15.2928 5.59 15.26C5.6097 15.2272 5.62274 15.1908 5.62837 15.1529C5.63401 15.115 5.63213 15.0764 5.62284 15.0393C5.61356 15.0021 5.59704 14.9672 5.57425 14.9364C5.55146 14.9057 5.52283 14.8797 5.49 14.86C5.14833 14.6239 4.84768 14.3334 4.6 14C4.21112 13.4785 3.87607 12.919 3.6 12.33C3.33362 11.6166 3.16868 10.8693 3.11 10.11C3.03549 8.93888 3.07568 7.76329 3.23 6.6C3.38321 5.72535 3.64175 4.87248 4 4.06C4.16565 3.66417 4.36998 3.28567 4.61 2.93C4.75 2.74 4.86 2.59 5.01 2.57C5.44931 2.60914 5.87199 2.75691 6.24 3C8.09206 3.96397 9.8762 5.05317 11.58 6.26C14.97 8.57 18.52 11.16 20.14 12.55C20.5 12.86 20.73 13.33 20.86 13.23C20.9029 13.5469 20.8825 13.8691 20.8001 14.178C20.7178 14.487 20.575 14.7766 20.38 15.03C19.8858 15.8152 19.1685 16.4349 18.32 16.81C17.4623 17.2399 16.5509 17.5527 15.61 17.74C14.6498 17.9308 13.6774 18.0545 12.7 18.11C12.6125 18.11 12.5285 18.1448 12.4667 18.2067C12.4048 18.2685 12.37 18.3525 12.37 18.44C12.37 18.5275 12.4048 18.6115 12.4667 18.6733C12.5285 18.7352 12.6125 18.77 12.7 18.77C13.9174 18.732 15.1289 18.5848 16.32 18.33C17.1248 18.1491 17.9065 17.8774 18.65 17.52C19.6406 17.1049 20.4886 16.4098 21.09 15.52C21.5879 14.7445 21.8228 13.8294 21.76 12.91Z" fill="black"/>
</g>
<defs>
<clipPath id="clip0_1030_2614">
<rect width="24" height="24" fill="white"/>
</clipPath>
</defs>
</svg>
