<svg width="24" height="24" viewBox="0 0 24 24" fill="none" xmlns="http://www.w3.org/2000/svg">
<g clip-path="url(#clip0_1050_8499)">
<path fill-rule="evenodd" clip-rule="evenodd" d="M10.5 2.07999C9.90683 1.38144 9.15882 0.830934 8.31549 0.47227C7.47216 0.113605 6.55677 -0.0433252 5.64214 0.0139612C4.7275 0.0712475 3.83884 0.34117 3.04685 0.802259C2.25487 1.26335 1.5814 1.90288 1.08001 2.66999C-0.589987 5.13999 0.270013 8.74999 1.93001 9.80999C1.96302 9.84007 2.00213 9.86266 2.04467 9.87622C2.08722 9.88978 2.13219 9.89399 2.17651 9.88856C2.22083 9.88313 2.26346 9.86819 2.30147 9.84477C2.33948 9.82134 2.37198 9.78997 2.39675 9.75282C2.42152 9.71567 2.43797 9.6736 2.44498 9.6295C2.45198 9.5854 2.44938 9.54031 2.43734 9.49731C2.42531 9.45431 2.40413 9.41442 2.37525 9.38036C2.34637 9.34631 2.31047 9.31889 2.27001 9.29999C1.00001 8.37999 0.360013 5.20999 1.85001 3.22999C2.2886 2.63148 2.8549 2.13808 3.50785 1.78559C4.16079 1.43309 4.884 1.23035 5.62503 1.19205C6.36605 1.15376 7.10631 1.28087 7.79211 1.56418C8.47791 1.84748 9.09206 2.27988 9.59001 2.82999C12.04 5.72999 10.59 10.12 6.28001 10.63C5.49363 10.7447 4.6917 10.6867 3.93001 10.46C3.84117 10.4308 3.74437 10.4381 3.66091 10.4803C3.57746 10.5225 3.51419 10.5961 3.48501 10.685C3.45584 10.7738 3.46315 10.8706 3.50535 10.9541C3.54755 11.0375 3.62117 11.1008 3.71001 11.13C4.56413 11.4073 5.46614 11.506 6.36001 11.42C7.43023 11.394 8.47104 11.0645 9.36123 10.4699C10.2514 9.87522 10.9544 9.03991 11.3882 8.06121C11.822 7.08251 11.9688 6.00071 11.8116 4.94179C11.6543 3.88287 11.1995 2.89041 10.5 2.07999Z" fill="black"/>
<path fill-rule="evenodd" clip-rule="evenodd" d="M4.61002 8.10999C5.77002 8.16999 7.14002 4.94999 7.61002 3.89999C7.76675 3.7402 7.86535 3.53245 7.89002 3.30999C7.88131 3.23558 7.85021 3.16557 7.80084 3.10921C7.75146 3.05286 7.68615 3.01282 7.61353 2.9944C7.54091 2.97597 7.46441 2.98002 7.39414 3.00602C7.32388 3.03202 7.26316 3.07874 7.22002 3.13999C6.98002 3.41999 4.46002 7.07999 4.53002 7.13999C4.33002 7.13999 3.31002 5.95999 3.16002 5.85999C3.01002 5.75999 2.57002 6.03999 2.80002 6.37999C3.23002 6.99999 3.93002 8.06999 4.61002 8.10999Z" fill="black"/>
<path d="M9.91001 14.4L12.12 14.26C12.1563 14.8484 12.2535 15.4315 12.41 16C12.4154 16.0465 12.4154 16.0935 12.41 16.14C12.77 16.69 13.09 16.74 13.41 16.14C13.41 15.82 13.35 15.38 13.31 14.78C13.31 14.56 13.31 14.33 13.24 14.11C14.05 14.11 14.78 14.02 16.15 13.88C16.1563 14.8622 16.2131 15.8435 16.32 16.82C16.3115 16.8688 16.3139 16.9189 16.3268 16.9668C16.3397 17.0146 16.363 17.059 16.3949 17.097C16.4268 17.1349 16.4666 17.1654 16.5115 17.1863C16.5565 17.2072 16.6054 17.2181 16.655 17.2181C16.7046 17.2181 16.7535 17.2072 16.7985 17.1863C16.8434 17.1654 16.8832 17.1349 16.9152 17.097C16.9471 17.059 16.9703 17.0146 16.9832 16.9668C16.9962 16.9189 16.9985 16.8688 16.99 16.82C17.08 15.69 17.21 14.92 17.27 13.76L18.94 13.6C19.78 13.37 19.75 13.1 19 12.8H17.31C17.341 12.2712 17.3074 11.7406 17.21 11.22C17.03 10.22 16.41 10.52 16.38 11.22C16.21 12.85 16.25 12.12 16.2 12.82C15.1533 12.8321 14.1082 12.9056 13.07 13.04C12.95 12.52 12.82 12.04 12.71 11.62C12.6913 11.5481 12.6467 11.4858 12.5847 11.4449C12.5227 11.4041 12.4478 11.3877 12.3744 11.3989C12.301 11.4101 12.2344 11.4481 12.1874 11.5055C12.1404 11.563 12.1164 11.6358 12.12 11.71V13.2C11.12 13.38 10.38 13.44 9.73001 13.61C9.18001 14 8.77001 14.34 9.91001 14.4Z" fill="black"/>
<path d="M23.79 5.80996C23.42 4.99996 21.32 6.99996 20.48 9.43996C18.1299 9.07183 15.7396 9.03816 13.38 9.33996C13.3312 9.3315 13.2811 9.33381 13.2332 9.34674C13.1854 9.35967 13.1409 9.3829 13.103 9.41482C13.0651 9.44673 13.0346 9.48655 13.0137 9.53149C12.9928 9.57643 12.9819 9.6254 12.9819 9.67496C12.9819 9.72453 12.9928 9.7735 13.0137 9.81844C13.0346 9.86337 13.0651 9.9032 13.103 9.93511C13.1409 9.96703 13.1854 9.99026 13.2332 10.0032C13.2811 10.0161 13.3312 10.0184 13.38 10.01C15.6486 10.2989 17.9415 10.3458 20.22 10.15C19.8594 11.8659 19.6386 13.6083 19.56 15.36C19.49 15.94 19.5 16.61 19.44 17.26C18.88 17.26 17.44 17.37 17.07 17.39C14.6291 17.2872 12.1973 17.0267 9.79002 16.61C9.29002 16.27 8.98002 15.51 8.66002 13.79C8.64196 13.7164 8.59671 13.6523 8.53336 13.6107C8.47001 13.5691 8.39326 13.553 8.31853 13.5657C8.24381 13.5783 8.17664 13.6188 8.13054 13.679C8.08444 13.7391 8.06282 13.8145 8.07002 13.89C8.34002 15.89 8.50002 17.16 9.70002 17.68C10.4575 17.9046 11.2404 18.0323 12.03 18.06C14.4551 18.4366 16.9262 18.4028 19.34 17.96C19.306 18.2383 19.1941 18.5014 19.0172 18.719C18.8403 18.9366 18.6056 19.0998 18.34 19.19C17.7519 19.3939 17.1324 19.4921 16.51 19.48C15.26 19.48 13.99 19.59 12.73 19.57C11.4277 19.5354 10.1286 19.4219 8.84002 19.23C8.76444 19.2048 8.68194 19.2106 8.61067 19.2463C8.53941 19.2819 8.48522 19.3444 8.46002 19.42C8.43483 19.4956 8.44069 19.5781 8.47632 19.6493C8.51195 19.7206 8.57444 19.7748 8.65002 19.8C9.14107 19.9116 9.63875 19.9918 10.14 20.04C10.48 20.11 10.47 20.04 10.28 20.12C9.88299 20.2786 9.54724 20.5603 9.32203 20.9238C9.09683 21.2872 8.99402 21.7132 9.0287 22.1394C9.06337 22.5655 9.2337 22.9694 9.51469 23.2916C9.79569 23.6139 10.1726 23.8376 10.59 23.93C12.15 24.32 13.87 22.98 13.34 21.45C13.2074 21.0314 12.9265 20.6758 12.55 20.45C12.4448 20.3901 12.3343 20.3399 12.22 20.3C13.86 20.44 14.65 20.42 16.51 20.47C18.02 20.47 17.43 20.18 16.95 21.16C15.69 23.73 19.7 24.77 20.61 23.26C20.8631 22.651 20.8654 21.9667 20.6162 21.3561C20.3671 20.7455 19.8869 20.2581 19.28 20C21.28 18.78 20.39 16.06 20.97 11.47C21.0872 10.0156 21.5875 8.6182 22.42 7.41996C22.7336 6.95211 23.1468 6.55941 23.63 6.26996C23.6711 6.25073 23.708 6.22345 23.7384 6.18974C23.7688 6.15604 23.7921 6.11658 23.807 6.07371C23.822 6.03084 23.8281 5.98541 23.8252 5.94012C23.8223 5.89482 23.8103 5.85056 23.79 5.80996ZM10.9 22.81C10.35 22.68 10.02 22.37 9.97002 21.99C9.83002 20.92 11.08 20.49 11.97 20.99C13.2 21.81 12.11 23.11 10.9 22.82V22.81ZM19.37 21C21.54 23.25 17.12 23.53 17.82 21.58C17.8823 21.3166 18.0339 21.083 18.2491 20.9189C18.4642 20.7548 18.7296 20.6704 19 20.68C19.1409 20.7644 19.2661 20.8727 19.37 21Z" fill="black"/>
</g>
<defs>
<clipPath id="clip0_1050_8499">
<rect width="24" height="24" fill="white"/>
</clipPath>
</defs>
</svg>
