<svg width="24" height="24" viewBox="0 0 24 24" fill="none" xmlns="http://www.w3.org/2000/svg">
<g clip-path="url(#clip0_1050_8495)">
<path fill-rule="evenodd" clip-rule="evenodd" d="M13.67 13C13.82 12.09 13.98 11.17 14.08 10.25H14.29C14.37 10.25 14.68 10.37 15.02 10.44C15.68 10.24 15.65 9.94001 15.17 9.58001C14.8397 9.50674 14.506 9.45 14.17 9.41001C14.2241 8.63244 14.3175 7.85811 14.45 7.09001C14.39 6.09001 13.66 6.26001 13.38 7.09001C13.3857 7.15321 13.3857 7.2168 13.38 7.28001C13.26 7.95001 13.14 8.63001 13.04 9.28001C11.91 9.22001 12.12 9.28001 9.66 9.28001C9.66 9.08001 9.42 7.96001 9.28 7.16001C9.14 6.36001 8.49 6.33001 8.43 7.16001C8.43 7.66001 8.43 8.28001 8.51 9.28001C7.84 9.28001 7.63 9.28001 5.61 9.44001C5.50314 8.69772 5.3495 7.96292 5.15 7.24001C4.75 6.51001 4 6.76001 4 7.34001C4.17 8.24001 4.08 7.91001 4.35 9.61001C3.82285 9.68773 3.28715 9.68773 2.76 9.61001C1.76 9.70001 1.63 10.43 2.97 10.55H4.5C4.75 12.14 4.78 12.39 4.97 13.32C4.42763 13.4496 3.86237 13.4496 3.32 13.32C2.88 13.13 2.02 14.32 5.17 14.11C5.28755 14.5607 5.45527 14.9967 5.67 15.41C5.71816 15.4843 5.79201 15.5383 5.87745 15.5616C5.96289 15.5848 6.05391 15.5758 6.13311 15.5362C6.21231 15.4966 6.27414 15.4292 6.30677 15.3469C6.33941 15.2646 6.34056 15.1731 6.31 15.09C6.16907 14.7711 6.07154 14.4348 6.02 14.09C6.87 14.03 7.29 14.09 9.34 14.02C9.50757 14.456 9.62825 14.9085 9.7 15.37C9.7 15.4655 9.73793 15.5571 9.80544 15.6246C9.87296 15.6921 9.96452 15.73 10.06 15.73C10.1555 15.73 10.247 15.6921 10.3146 15.6246C10.3821 15.5571 10.42 15.4655 10.42 15.37C10.4162 14.9083 10.3592 14.4486 10.25 14H12.57C12.39 16.25 13.91 15.4 13.37 14.87C13.26 14.74 13.37 14.1 13.44 13.93C14.07 13.84 14.31 13.85 14.62 13.79C14.93 13.73 15.14 13.02 14.76 12.99C14.38 12.96 14.27 13 13.67 13ZM5.9 13.15C5.9 12.84 5.74 11.15 5.68 10.58H8.58C8.66053 11.3498 8.80096 12.1121 9 12.86C7.96221 12.9068 6.92751 13.007 5.9 13.16V13.15ZM12.68 13C11.83 13 10.93 12.89 10.07 12.85C10.02 12.43 9.83 10.85 9.78 10.47C11.22 10.38 12.02 10.28 12.87 10.25C12.75 11.62 12.69 13 12.68 13Z" fill="black"/>
<path fill-rule="evenodd" clip-rule="evenodd" d="M22.79 0.649995C21.696 0.427564 20.5702 0.410609 19.47 0.599995C17.89 1.09 18.47 0.0499954 16.91 4.98C16.25 7.48 14.7 15.52 14.91 15.84C5.51001 15.99 5.37001 16.18 2.84001 15.45C2.91001 15.25 2.67001 14.71 2.65001 14.62C1.31001 8.47 0.930012 7.93 1.30001 6.84C6.02208 6.05479 10.8033 5.68005 15.59 5.72C15.6235 5.74692 15.662 5.76698 15.7032 5.77903C15.7444 5.79109 15.7877 5.79491 15.8304 5.79026C15.8731 5.78562 15.9145 5.77261 15.9522 5.75197C15.9898 5.73134 16.0231 5.70348 16.05 5.67C16.0769 5.63651 16.097 5.59805 16.1091 5.55681C16.1211 5.51557 16.1249 5.47235 16.1203 5.42964C16.1156 5.38692 16.1026 5.34554 16.082 5.30786C16.0614 5.27017 16.0335 5.23692 16 5.21C15.42 4.78 4.54001 5.29 4.63001 5.29C3.31213 5.15373 1.9806 5.32487 0.740012 5.79C-0.309988 6.27 1.21742e-05 8.58 0.210012 9.67C1.00001 12.62 0.710012 11.45 1.49001 14.82C1.55001 15.13 1.56001 15.91 1.86001 16.2C3.35001 17.63 10.86 16.59 14.72 16.57C14.51 17.28 14.43 17.71 13.82 17.88C13.1551 17.9481 12.4849 17.9481 11.82 17.88C8.93001 18.02 6.15001 17.42 1.82001 17.88C1.73514 17.8734 1.65112 17.9007 1.58642 17.956C1.52172 18.0114 1.48164 18.0901 1.47501 18.175C1.46838 18.2599 1.49574 18.3439 1.55106 18.4086C1.60638 18.4733 1.68514 18.5134 1.77001 18.52C1.43821 18.6515 1.1377 18.8511 0.887922 19.1061C0.638147 19.361 0.444672 19.6656 0.320012 20C-0.179988 21.38 1.20001 23.09 2.59001 23.45C5.36001 24.16 7.46001 20.31 5.35001 18.68C5.65775 18.6861 5.9649 18.7095 6.27001 18.75C8.24995 19.101 10.2684 19.1817 12.27 18.99C10.4 20.78 12.33 23.43 14.74 23.16C17.39 22.85 17.22 18.61 14.95 18.23C15.62 17.43 15.33 16.67 16.39 12.7C17.1512 9.76089 17.7554 6.78334 18.2 3.78C18.68 3.66 21.91 3.96 22.59 3.92C22.9657 3.85827 23.3093 3.67077 23.5645 3.38821C23.8196 3.10565 23.9713 2.7448 23.9945 2.36478C24.0178 1.98476 23.9112 1.60812 23.6924 1.29657C23.4736 0.985023 23.1554 0.757044 22.79 0.649995ZM4.94001 21.22C4.80167 21.5269 4.58387 21.7913 4.30913 21.9858C4.03439 22.1803 3.71268 22.2979 3.37726 22.3265C3.04185 22.355 2.70489 22.2934 2.40123 22.1482C2.09757 22.0029 1.83823 21.7791 1.65001 21.5C1.4787 21.3456 1.3467 21.1525 1.26495 20.9369C1.18321 20.7212 1.15409 20.4892 1.18001 20.26C1.25443 19.9293 1.43323 19.6313 1.69001 19.41C3.42001 17.88 6.00001 19.24 4.94001 21.22ZM15.71 20.28C16.01 23.08 12.31 21.95 12.63 20.28C12.89 18.94 15.47 18.07 15.71 20.28ZM22.48 2.74C21.8 2.83 19.43 2.85 18.35 2.99C18.4137 2.46836 18.5344 1.95528 18.71 1.46C18.81 1.61 19.4 1.39 19.65 1.34C20.6235 1.32871 21.5925 1.47389 22.52 1.77C22.92 1.89 22.87 2.7 22.48 2.74Z" fill="black"/>
</g>
<defs>
<clipPath id="clip0_1050_8495">
<rect width="24" height="24" fill="white"/>
</clipPath>
</defs>
</svg>
