<svg width="24" height="24" viewBox="0 0 24 24" fill="none" xmlns="http://www.w3.org/2000/svg">
<g clip-path="url(#clip0_1050_8463)">
<path d="M15.69 10.94C15.9157 10.8434 16.1122 10.6896 16.2602 10.4938C16.4081 10.298 16.5025 10.067 16.5338 9.82358C16.5651 9.58016 16.5323 9.33278 16.4387 9.1059C16.3451 8.87902 16.1939 8.68051 16 8.52999C15.6834 8.38835 15.3455 8.30048 15 8.26999C15.24 5.19999 13.53 3.44999 12.08 3.33999C12.0783 3.13621 12.0328 2.93517 11.9465 2.75054C11.8603 2.56591 11.7353 2.40202 11.58 2.26999C10.84 1.68999 9.90001 1.87999 6.47001 1.99999C6.3878 1.99999 6.30895 2.03265 6.25081 2.09079C6.19267 2.14892 6.16001 2.22777 6.16001 2.30999C6.16001 2.39221 6.19267 2.47106 6.25081 2.52919C6.30895 2.58733 6.3878 2.61999 6.47001 2.61999C10.71 2.74999 11.07 2.50999 10.97 3.71999C10.7 4.34999 8.97001 4.09999 8.25001 4.16999C7.71001 4.23999 6.05001 4.55999 5.79001 4.16999C5.70453 3.98335 5.66794 3.77803 5.68369 3.57335C5.69943 3.36867 5.76699 3.17136 5.88001 2.99999C5.91781 2.94607 5.9354 2.88054 5.92968 2.81494C5.92395 2.74933 5.89529 2.68784 5.84872 2.64128C5.80216 2.59471 5.74067 2.56605 5.67507 2.56033C5.60946 2.55461 5.54394 2.57219 5.49001 2.60999C5.26822 2.87812 5.127 3.20365 5.08275 3.5488C5.0385 3.89395 5.09303 4.24458 5.24001 4.55999C5.70001 5.42999 7.38001 5.20999 8.37001 5.16999C9.36001 5.12999 11.65 5.62999 12 3.99999C12.09 3.99999 12.25 4.05999 12.28 4.07999C13.3999 5.20326 14.105 6.67354 14.28 8.24999C14.2086 8.26298 14.144 8.30062 14.0975 8.35636C14.0509 8.4121 14.0255 8.48239 14.0255 8.55499C14.0255 8.62759 14.0509 8.69789 14.0975 8.75362C14.144 8.80936 14.2086 8.847 14.28 8.85999C15.55 8.99999 16 8.99999 15.84 9.72999C15.84 9.94999 15.72 10.17 15.51 10.22C14.3177 10.365 13.1123 10.365 11.92 10.22C0.320013 9.99999 2.40001 9.99999 1.06001 9.71999C0.930013 9.57999 1.14001 9.18999 1.33001 9.10999C1.77094 8.91548 2.2481 8.81664 2.73001 8.81999C3.16001 8.81999 9.40001 8.51999 13.01 8.66999C13.074 8.65774 13.1317 8.62358 13.1731 8.57339C13.2146 8.52319 13.2373 8.46011 13.2373 8.39499C13.2373 8.32987 13.2146 8.26679 13.1731 8.21659C13.1317 8.1664 13.074 8.13224 13.01 8.11999C9.91001 7.85999 2.46001 7.85999 2.38001 7.86999C2.793 6.71756 3.40195 5.64513 4.18001 4.69999C5.00001 4.06999 4.94001 4.05999 4.94001 3.94999C4.94001 3.86777 4.90735 3.78892 4.84922 3.73079C4.79108 3.67265 4.71223 3.63999 4.63001 3.63999C4.29001 3.63999 3.88001 3.94999 3.63001 4.09999C3.0158 4.52657 2.52133 5.10364 2.19392 5.77597C1.86651 6.4483 1.71711 7.19341 1.76001 7.93999C1.47276 7.99199 1.19138 8.07239 0.920013 8.17999C0.716233 8.26789 0.534496 8.39991 0.387906 8.56653C0.241315 8.73315 0.133523 8.93022 0.0723023 9.14354C0.0110814 9.35686 -0.00204288 9.5811 0.0338756 9.8001C0.0697941 10.0191 0.15386 10.2274 0.280013 10.41C0.48062 10.615 0.738609 10.7545 1.02001 10.81C1.02001 11.08 1.02001 10.39 1.24001 13.01C1.67001 17.74 2.70001 18.19 7.00001 18.37C8.28092 18.4039 9.56237 18.327 10.83 18.14C10.9122 18.1307 10.9874 18.0891 11.039 18.0244C11.0905 17.9597 11.1143 17.8772 11.105 17.795C11.0957 17.7128 11.0542 17.6376 10.9895 17.586C10.9248 17.5345 10.8422 17.5107 10.76 17.52C8.52982 17.68 6.28824 17.5047 4.11001 17C2.65001 16.61 2.26001 14.42 2.00001 12.9C1.56001 10.58 1.69001 11.3 1.66001 10.9C2.66001 11.07 2.20001 11.05 11.88 11.05C13.1495 11.1755 14.4299 11.1385 15.69 10.94Z" fill="black"/>
<path d="M4.40004 12.48C3.59004 12.16 4.56004 16.41 5.35004 16.07C5.42004 16.07 5.54004 16.02 5.58004 15.88C5.73004 15.54 4.83004 12.28 4.40004 12.48Z" fill="black"/>
<path d="M11.54 12.48C11.11 12.28 10.21 15.54 10.36 15.88C10.36 16.02 10.51 16.04 10.59 16.07C11.38 16.41 12.35 12.16 11.54 12.48Z" fill="black"/>
<path d="M7.90998 12.2C7.84998 12.2 7.75998 12.2 7.71998 12.32C7.38582 13.4613 7.34455 14.6685 7.59998 15.83C7.5914 15.9224 7.61886 16.0146 7.67663 16.0873C7.73439 16.16 7.818 16.2075 7.90998 16.22C8.62998 16.22 8.32999 13.28 8.17999 12.4C8.07999 12.22 7.99998 12.17 7.90998 12.2Z" fill="black"/>
<path d="M24 15.91C23.9941 15.8768 23.9815 15.8452 23.9631 15.8171C23.9446 15.7889 23.9206 15.7648 23.8926 15.7461C23.8646 15.7274 23.8331 15.7146 23.8 15.7084C23.7669 15.7022 23.7329 15.7027 23.7 15.71C22.97 15.84 20.76 14.52 20.16 15.39C19.59 14.34 20 13.58 19.99 12.68C20.0313 12.3087 19.9379 11.9348 19.7269 11.6265C19.5158 11.3182 19.2011 11.0959 18.84 11C17.79 10.85 17.23 12.42 16.98 13.19C16.91 13.4 16.89 13.71 16.65 13.74C16.41 13.77 16.5 13.65 15.54 13.46C14.8 13.31 13.95 13.12 13.39 13.76C12.83 14.4 12.93 15.4 12.9 16.48C12.9 17.33 12.69 18.48 13.43 19.13C14.68 20.13 16.86 19.38 19.34 20.38C19.64 21.27 20 21.2 23.34 22.07C23.4143 22.0833 23.4908 22.0665 23.5527 22.0233C23.6145 21.9802 23.6568 21.9143 23.67 21.84C23.6833 21.7657 23.6665 21.6892 23.6234 21.6274C23.5802 21.5655 23.5143 21.5233 23.44 21.51C23.44 21.51 20.87 20.62 20.65 20.51C20.43 20.4 20.2 20.37 20.19 19.71C20.3624 18.4003 20.6095 17.1015 20.93 15.82C21.6386 15.8663 22.3414 15.9768 23.03 16.15C23.4 16.26 24.08 16.31 24 15.91ZM19.25 19.34C18.0016 18.9633 16.704 18.7746 15.4 18.78C13.74 18.62 13.85 18.33 13.85 17.35C13.8352 16.4376 13.8853 15.5253 14 14.62C14.19 13.96 15.28 14.32 15.76 14.43C16.4 14.58 17.13 14.83 17.54 14.12C17.8 13.68 18.04 12.25 18.6 11.9C18.85 11.75 19.03 12.03 19.12 12.26C19.49 13.26 18.46 14.39 19.96 16.02C19.6225 17.1032 19.3815 18.2142 19.24 19.34H19.25Z" fill="black"/>
</g>
<defs>
<clipPath id="clip0_1050_8463">
<rect width="24" height="24" fill="white"/>
</clipPath>
</defs>
</svg>
