<svg width="24" height="24" viewBox="0 0 24 24" fill="none" xmlns="http://www.w3.org/2000/svg">
<g clip-path="url(#clip0_1050_8412)">
<path fill-rule="evenodd" clip-rule="evenodd" d="M5.85 18.74C5.9 18.48 6.45 18.21 6.66 18.09C7.24541 17.7998 7.87936 17.6201 8.53 17.56C11.45 17.13 11.82 18.85 12.43 19.2C13.75 20.2 12.25 15.63 8.33 16.42C7.19 16.65 5.33 17.72 5.24 18.66C5.23953 18.7355 5.26668 18.8087 5.31634 18.8656C5.366 18.9226 5.43476 18.9594 5.50968 18.9693C5.5846 18.9791 5.66054 18.9612 5.72321 18.919C5.78588 18.8768 5.83096 18.8131 5.85 18.74Z" fill="black"/>
<path fill-rule="evenodd" clip-rule="evenodd" d="M6.68001 11.76C6.13001 11.12 5.59001 13.62 6.23001 13.97C6.2966 14.0318 6.38412 14.0662 6.47501 14.0662C6.56589 14.0662 6.65341 14.0318 6.72001 13.97C6.92401 13.6359 7.0286 13.2506 7.02151 12.8592C7.01443 12.4678 6.89597 12.0865 6.68001 11.76Z" fill="black"/>
<path fill-rule="evenodd" clip-rule="evenodd" d="M12.08 14C12.08 14.0911 12.1155 14.1786 12.179 14.244C12.2424 14.3094 12.3289 14.3474 12.42 14.35C12.86 14.35 13.52 12.3 13.18 11.87C13.04 11.68 12.95 11.57 12.82 11.61C12.69 11.65 12.49 11.61 12.46 11.85C12.0733 12.4955 11.938 13.261 12.08 14Z" fill="black"/>
<path fill-rule="evenodd" clip-rule="evenodd" d="M21 10.2C20.65 9.06998 20 7.19998 19 6.49998C18.18 6.15998 18.27 6.97998 18.8 7.34998C19.95 8.64998 20.88 12.5 22.12 16.92C22.5136 18.6209 22.7447 20.3554 22.81 22.1C22.81 22.29 22.81 22.52 22.23 22.21C21.4 21.79 20.38 20.71 20.01 20.6C20.01 20.51 20.54 15.21 19.57 13.46C19.5482 13.3881 19.5039 13.3251 19.4436 13.2803C19.3833 13.2355 19.3101 13.2113 19.235 13.2113C19.1599 13.2113 19.0867 13.2355 19.0264 13.2803C18.9661 13.3251 18.9218 13.3881 18.9 13.46C19.18 16.4 18.8 14.63 19.3 21C19.23 21.1 19.42 21 17.91 21.55C17.17 22.1 17.21 22.35 17.91 22.35L18.42 22.15C18.9415 22.0655 19.4411 21.8786 19.89 21.6C20.0393 21.7081 20.1964 21.805 20.36 21.89C20.9793 22.5468 21.7578 23.0325 22.62 23.3C23.15 23.3 23.62 23.11 23.83 22.3C23.94 16.64 22.23 14.09 21 10.2Z" fill="black"/>
<path fill-rule="evenodd" clip-rule="evenodd" d="M17.87 6.86999C17.8915 6.77536 17.8881 6.67675 17.8601 6.58384C17.832 6.49093 17.7803 6.4069 17.71 6.33999C17.4993 6.20333 17.2508 6.13682 17 6.14999L15.11 5.99999C14.9969 4.98126 14.6734 3.99714 14.16 3.10999C13.7388 2.36169 13.1008 1.75854 12.33 1.37999C12.9479 1.16984 13.6072 1.11136 14.2525 1.20948C14.8977 1.30761 15.5098 1.55945 16.0373 1.94378C16.5648 2.32811 16.9921 2.83365 17.2832 3.41777C17.5743 4.00188 17.7207 4.64744 17.71 5.29999C17.7014 5.35022 17.7039 5.40171 17.7173 5.45087C17.7307 5.50004 17.7546 5.54568 17.7875 5.58463C17.8203 5.62357 17.8613 5.65487 17.9075 5.67635C17.9537 5.69782 18.004 5.70894 18.055 5.70894C18.1059 5.70894 18.1563 5.69782 18.2025 5.67635C18.2487 5.65487 18.2897 5.62357 18.3225 5.58463C18.3554 5.54568 18.3793 5.50004 18.3927 5.45087C18.4061 5.40171 18.4086 5.35022 18.4 5.29999C18.5 4.02999 17.58 0.299994 14.16 -0.0200062C12.943 -0.139365 11.7273 0.219244 10.77 0.979994C10.0749 0.950547 9.38127 1.06503 8.73252 1.31627C8.08378 1.56751 7.49394 1.95008 7 2.43999C5.61 3.93999 5.73 6.35999 5.9 8.43999C5.9 8.51956 5.9316 8.59586 5.98787 8.65213C6.04413 8.70839 6.12043 8.73999 6.2 8.73999C6.27956 8.73999 6.35587 8.70839 6.41213 8.65213C6.46839 8.59586 6.5 8.51956 6.5 8.43999C6.47401 7.95367 6.47401 7.46631 6.5 6.97999C6.92 6.97999 9.02 6.86999 9.86 6.83999C10.7 6.80999 12.4 6.99999 14.46 6.99999C14.5246 7.41038 14.5613 7.82465 14.57 8.23999C14.5839 8.32142 14.6262 8.3953 14.6893 8.44856C14.7525 8.50183 14.8324 8.53104 14.915 8.53104C14.9976 8.53104 15.0775 8.50183 15.1407 8.44856C15.2038 8.3953 15.2461 8.32142 15.26 8.23999C15.2861 7.81706 15.2861 7.39292 15.26 6.96999L17.26 6.89999C17.26 6.98999 16.26 15 16.04 18.38C15.9464 19.6343 15.9197 20.8928 15.96 22.15C15.9632 22.1732 15.9632 22.1968 15.96 22.22C13.0632 22.8126 10.0964 22.9877 7.15 22.74H4.85C2.85 22.66 1.32 21.74 1.39 21.35V20.19C1.47 19.14 2.14 15.38 2.29 14.63C2.97 11.32 2.93 12.88 4.47 6.86999C4.72 6.72999 4.67 6.11999 4.27 6.11999C3.87 6.11999 3.96 6.73999 2.94 9.79999C2.32802 11.3053 1.81363 12.8485 1.4 14.42C1.17 15.42 0.399998 19.07 0.299998 20.08C-1.68383e-06 22.73 0.319998 22.61 1.39 23C1.83 23.16 2.25 23.35 2.69 23.5C4.09604 23.8629 5.55119 23.998 7 23.9C9.22367 24.0991 11.4633 24.0286 13.67 23.69C16.32 23.26 16.52 23.32 16.78 22.86C17.17 22.56 17.88 6.99999 17.87 6.86999ZM6.6 6.27999C6.84 4.12999 7.41 2.73999 9.73 2.27999C9.44581 2.74567 9.22392 3.24661 9.07 3.76999C8.93 4.25999 8.76 4.89999 9.26 5.05999C9.29742 5.07253 9.33695 5.07755 9.37632 5.07478C9.41569 5.07201 9.45413 5.0615 9.48943 5.04385C9.52473 5.0262 9.5562 5.00176 9.58203 4.97192C9.60787 4.94209 9.62757 4.90745 9.64 4.86999C9.63753 4.34737 9.7596 3.83168 9.99611 3.36563C10.2326 2.89958 10.5767 2.49657 11 2.18999C12.88 2.33999 13.82 4.08999 14.27 5.92999C11.7128 5.59154 9.11577 5.71005 6.6 6.27999Z" fill="black"/>
</g>
<defs>
<clipPath id="clip0_1050_8412">
<rect width="24" height="24" fill="white"/>
</clipPath>
</defs>
</svg>
