<svg width="24" height="24" viewBox="0 0 24 24" fill="none" xmlns="http://www.w3.org/2000/svg">
<g clip-path="url(#clip0_1050_8438)">
<path fill-rule="evenodd" clip-rule="evenodd" d="M9.76003 9.42999C10.1924 9.71477 10.6096 10.0219 11.01 10.35L11.67 10.85C11.7457 10.9156 11.8259 10.9758 11.91 11.03C11.9761 11.0678 12.0492 11.0917 12.1249 11.1003C12.2005 11.1089 12.2771 11.102 12.35 11.08C12.5111 11.0267 12.658 10.9378 12.78 10.82C12.9019 10.6959 13.0093 10.5584 13.1 10.41L13.82 8.99999L14.55 7.76999C14.5978 7.70193 14.6172 7.61794 14.6042 7.5358C14.5911 7.45367 14.5466 7.37985 14.48 7.32999C14.4468 7.30503 14.4089 7.28701 14.3685 7.27701C14.3282 7.267 14.2862 7.26521 14.2452 7.27174C14.2041 7.27827 14.1648 7.29299 14.1296 7.31502C14.0943 7.33705 14.0639 7.36595 14.04 7.39999L13.13 8.55999L12.27 9.79999C11.8189 8.95024 11.5435 8.01841 11.46 7.05999C11.3665 6.0909 11.554 5.11538 12 4.24999C12.0458 4.16953 12.0859 4.086 12.12 3.99999C12.2201 4.08548 12.3271 4.16241 12.44 4.22999C12.6568 4.3507 12.8889 4.44153 13.13 4.49999C13.3638 4.57092 13.6095 4.59354 13.8522 4.56647C14.095 4.53939 14.3297 4.46319 14.5421 4.34251C14.7544 4.22183 14.94 4.05918 15.0875 3.86448C15.235 3.66978 15.3413 3.44709 15.4 3.20999C15.47 2.60999 15.16 1.93999 14.06 1.76999C13.5026 1.68794 12.9352 1.82798 12.48 2.15999L12.34 2.25999C12.3922 1.93214 12.5351 1.62543 12.7524 1.3745C12.9698 1.12358 13.253 0.938432 13.57 0.839986C14.3704 0.578466 15.2408 0.635778 16 0.999986C16.0325 1.02341 16.0696 1.03961 16.1088 1.0475C16.148 1.05538 16.1885 1.05477 16.2275 1.04569C16.2664 1.03662 16.303 1.0193 16.3347 0.994894C16.3664 0.970492 16.3925 0.939575 16.4113 0.904228C16.43 0.868881 16.441 0.829925 16.4434 0.789984C16.4459 0.750043 16.4397 0.710046 16.4254 0.672686C16.411 0.635327 16.3889 0.601474 16.3603 0.573408C16.3318 0.545343 16.2976 0.523716 16.26 0.509986C15.7277 0.214695 15.1329 0.0498544 14.5245 0.0289945C13.916 0.00813465 13.3114 0.13185 12.76 0.389986C12.3659 0.593844 12.0325 0.898168 11.7937 1.27218C11.5549 1.6462 11.4191 2.07664 11.4 2.51999C11.391 2.74846 11.4284 2.97639 11.51 3.18999C11.375 3.3945 11.2547 3.60837 11.15 3.82999C10.6702 4.86987 10.5034 6.02693 10.67 7.15999C10.7743 7.90791 10.99 8.63599 11.31 9.31999C11.03 9.15999 10.76 8.99999 10.46 8.84999C9.87003 8.55999 9.26003 8.30999 8.66003 8.06999C8.5924 8.03683 8.51437 8.03191 8.4431 8.05629C8.37184 8.08067 8.31318 8.13236 8.28003 8.19999C8.24688 8.26762 8.24195 8.34565 8.26633 8.41691C8.29071 8.48817 8.3424 8.54683 8.41003 8.57999C8.86003 8.83999 9.31003 9.12999 9.76003 9.42999ZM12.86 3.16999C12.9905 3.0414 13.1479 2.94333 13.3208 2.88281C13.4937 2.82229 13.6778 2.80084 13.86 2.81999C14.21 2.86999 14.37 3.01999 14.27 3.20999C14.166 3.35463 14.0201 3.46384 13.8519 3.52285C13.6838 3.58187 13.5016 3.58785 13.33 3.53999C13.1829 3.50776 13.0413 3.45384 12.91 3.37999C12.8434 3.3493 12.7798 3.31248 12.72 3.26999L12.86 3.16999Z" fill="black"/>
<path fill-rule="evenodd" clip-rule="evenodd" d="M17 7.47999C17.2696 7.39145 17.5604 7.39145 17.83 7.47999C18.11 7.62999 18.3 7.98999 18.66 8.59999C19.044 9.50262 19.2966 10.4557 19.41 11.43C19.4516 11.7285 19.4516 12.0314 19.41 12.33C19.36 12.52 19.28 12.67 19.09 12.7C18.9 12.73 18.39 12.7 17.75 12.7H12.05C10.68 12.76 9.00002 12.7 7.58002 12.7C6.58002 12.7 5.76002 12.61 5.23002 12.54H4.93002C4.89749 12.4424 4.87406 12.3419 4.86002 12.24C4.90878 11.3867 5.06673 10.5431 5.33002 9.72999C5.42527 9.08659 5.70686 8.48518 6.14002 7.99999C6.31141 7.89833 6.50215 7.83361 6.70002 7.80999C6.92299 7.79206 7.14705 7.79206 7.37002 7.80999C7.40679 7.81393 7.44397 7.81059 7.47945 7.80016C7.51493 7.78973 7.54801 7.77241 7.5768 7.74919C7.60558 7.72598 7.62951 7.69732 7.64722 7.66486C7.66494 7.6324 7.67608 7.59676 7.68002 7.55999C7.68396 7.52322 7.68062 7.48603 7.67019 7.45056C7.65975 7.41508 7.64244 7.382 7.61922 7.35321C7.59601 7.32443 7.56735 7.3005 7.53489 7.28279C7.50242 7.26507 7.46679 7.25393 7.43002 7.24999C7.11814 7.20735 6.8019 7.20735 6.49002 7.24999C6.27025 7.2863 6.05762 7.35718 5.86002 7.45999C5.26002 7.74999 4.58002 9.23999 4.22002 10.61C4.01594 11.3106 3.94139 12.0426 4.00002 12.77C4.03408 12.9524 4.13367 13.116 4.28002 13.23C5.31645 13.5537 6.39432 13.7254 7.48002 13.74C8.93002 13.84 10.64 13.87 12.04 13.83C12.58 13.83 15.1 13.83 17.04 13.75C17.7754 13.7447 18.5099 13.698 19.24 13.61C19.96 13.46 20.3 12.82 20.3 11.92C20.1944 10.6393 19.8555 9.38875 19.3 8.22999C18.81 7.47999 18.51 7.06999 18.15 6.89999C17.7439 6.74728 17.2961 6.74728 16.89 6.89999C16.8488 6.9082 16.8097 6.92471 16.775 6.94852C16.7404 6.97233 16.7109 7.00294 16.6885 7.03848C16.666 7.07403 16.651 7.11377 16.6444 7.15529C16.6378 7.1968 16.6397 7.23923 16.65 7.27999C16.6749 7.34958 16.7239 7.40798 16.7881 7.44465C16.8522 7.48132 16.9274 7.49385 17 7.47999Z" fill="black"/>
<path fill-rule="evenodd" clip-rule="evenodd" d="M8.39002 17.32C8.05002 16.24 7.55002 16.44 7.58002 17.32V17.89C7.6068 18.4031 7.56646 18.9174 7.46002 19.42L7.33002 19.89L7.13002 20.18C7.13002 20.12 7.05002 20.03 7.01002 19.97C6.85934 19.6972 6.73864 19.4088 6.65002 19.11L6.26002 17.73C6.26002 17.58 6.20002 17.44 6.16002 17.29C5.79002 16.2 5.39002 16.62 5.36002 17.29C5.36002 17.49 5.36002 17.69 5.42002 17.88L5.68002 19.37C5.76388 19.7327 5.88798 20.0849 6.05002 20.42C6.18805 20.7115 6.40226 20.9602 6.67002 21.14C6.8827 21.2726 7.13742 21.3205 7.38373 21.2742C7.63004 21.2279 7.84998 21.0908 8.00002 20.89L8.20002 20.62C8.26625 20.5187 8.32315 20.4116 8.37002 20.3C8.40943 20.2021 8.44282 20.1019 8.47002 20C8.47002 19.89 8.47002 19.79 8.53002 19.6C8.60479 19.009 8.60479 18.411 8.53002 17.82C8.45002 17.65 8.42002 17.49 8.39002 17.32Z" fill="black"/>
<path fill-rule="evenodd" clip-rule="evenodd" d="M12.56 17.32V18.04C12.5107 18.6245 12.3829 19.1997 12.18 19.75C12.0999 19.9839 11.936 20.1798 11.72 20.3C11.63 20.3 11.56 20.3 11.5 20.12C11.377 19.866 11.3023 19.5913 11.28 19.31C11.21 18.8 11.21 18.31 11.18 17.81V17.32C11.04 16.32 10.46 16.32 10.4 17.32V17.83C10.4 18.31 10.32 18.83 10.34 19.39C10.3544 19.7916 10.439 20.1876 10.59 20.56C10.6725 20.8154 10.8389 21.0353 11.0622 21.1842C11.2855 21.333 11.5526 21.402 11.82 21.38C12.1449 21.3103 12.4452 21.1548 12.6897 20.9297C12.9341 20.7046 13.1138 20.4181 13.21 20.1C13.4005 19.4503 13.4981 18.777 13.5 18.1V17.33C13.29 16.25 12.63 16.37 12.56 17.32Z" fill="black"/>
<path fill-rule="evenodd" clip-rule="evenodd" d="M17 17.32C16.94 17.55 16.89 17.77 16.82 17.99C16.6646 18.5368 16.4323 19.0586 16.13 19.54L15.82 19.94L15.55 20.18C15.5552 20.0834 15.5552 19.9866 15.55 19.89C15.5191 19.5774 15.5191 19.2626 15.55 18.95L15.71 17.56V17.31C15.71 16.23 15.04 16.21 14.91 17.31V17.46L14.6 18.79C14.5142 19.2447 14.4873 19.7085 14.52 20.17C14.5384 20.4341 14.6245 20.6889 14.77 20.91C15.03 21.29 15.47 21.52 16.16 21.06L16.63 20.65L17.05 20.05C17.2813 19.6118 17.4625 19.1489 17.59 18.67C17.7059 18.2222 17.796 17.7681 17.86 17.31C18 16.23 17.32 16.36 17 17.32Z" fill="black"/>
<path fill-rule="evenodd" clip-rule="evenodd" d="M22.86 13.75C22.7536 12.7171 22.5527 11.6962 22.26 10.7C22.07 9.89 21.83 8.91999 21.56 7.99C21.4035 7.38431 21.2166 6.78689 21 6.2C20.8953 5.85135 20.751 5.51583 20.57 5.2C20.5132 5.08835 20.4312 4.99141 20.3306 4.9168C20.2299 4.84218 20.1134 4.79193 19.99 4.77C19.33 4.71 18.86 4.65 18.35 4.62H17.23C17.188 4.62 17.1464 4.62827 17.1076 4.64435C17.0687 4.66044 17.0335 4.68401 17.0037 4.71372C16.974 4.74344 16.9505 4.77871 16.9344 4.81754C16.9183 4.85636 16.91 4.89797 16.91 4.94C16.9124 5.02242 16.9455 5.10098 17.0029 5.16021C17.0602 5.21943 17.1377 5.25503 17.22 5.26C17.63 5.26 17.97 5.26 18.29 5.32L19.88 5.5C20.06 5.87 20.26 6.31 20.33 6.5C20.52 7.02 20.7 7.62 20.87 8.24C21.12 9.16 21.33 10.12 21.5 10.93C21.55 11.17 21.76 11.93 21.89 12.75C21.9682 13.1383 22.0051 13.5339 22 13.93C22.0065 13.9898 22.0065 14.0502 22 14.11C21.4616 14.4037 20.8701 14.5873 20.26 14.65C19.2417 14.7765 18.216 14.8333 17.19 14.82H12.59C10.27 14.82 7.94001 14.74 5.66001 14.66C4.86599 14.664 4.07413 14.5767 3.30001 14.4C2.85593 14.305 2.45742 14.0616 2.17001 13.71C2.02001 13.51 2.10001 13.13 2.17001 12.71C2.33001 11.97 2.66001 11.17 2.77001 10.79C3.02537 9.66444 3.36979 8.56097 3.80001 7.49C4.05095 6.83084 4.54985 6.29605 5.19001 6C5.51431 5.89913 5.85061 5.84196 6.19001 5.83C6.74074 5.80731 7.29239 5.82737 7.84001 5.89C7.87627 5.89561 7.91329 5.89378 7.94882 5.88461C7.98434 5.87545 8.01763 5.85913 8.04664 5.83667C8.07565 5.81421 8.09978 5.78608 8.11755 5.75398C8.13532 5.72188 8.14637 5.6865 8.15001 5.65C8.15855 5.57719 8.1382 5.50394 8.09332 5.44598C8.04845 5.38802 7.98263 5.34997 7.91001 5.34C7.34426 5.24826 6.77296 5.1948 6.20001 5.18C5.79399 5.17972 5.38998 5.23696 5.00001 5.35C4.36672 5.58982 3.83646 6.0423 3.50001 6.63C2.81778 7.89311 2.29703 9.23698 1.95001 10.63C1.63901 11.3901 1.38497 12.1722 1.19001 12.97C1.08066 13.4171 1.13382 13.8885 1.34001 14.3C1.70578 14.7824 2.21804 15.1333 2.80001 15.3C2.80001 16.09 2.86001 16.87 2.93001 17.65C3.02001 18.65 3.15001 19.7 3.31001 20.71C3.39001 21.17 3.40001 21.71 3.53001 22.17C3.59876 22.4206 3.71041 22.6575 3.86001 22.87C4.07683 23.1351 4.36476 23.3328 4.69001 23.44C5.08041 23.5622 5.48266 23.6426 5.89001 23.68C6.31001 23.74 6.73001 23.78 7.15001 23.8C8.15001 23.86 9.06001 23.86 10.03 23.91C11.46 23.97 12.85 24.05 14.25 24.01C15.2027 23.9788 16.1519 23.8786 17.09 23.71C17.6134 23.6728 18.1342 23.6061 18.65 23.51C18.9561 23.4386 19.2343 23.2786 19.45 23.05C19.7105 22.7123 19.8979 22.3241 20 21.91C20.131 21.3801 20.2279 20.8423 20.29 20.3C20.41 19.38 20.55 18.46 20.67 17.54C20.75 16.92 20.83 16.3 20.88 15.68C20.8831 15.6224 20.8654 15.5656 20.83 15.52C21.425 15.3969 21.9936 15.1701 22.51 14.85C22.6525 14.7083 22.7587 14.5343 22.8196 14.3428C22.8805 14.1513 22.8944 13.948 22.86 13.75ZM20 17.44C19.85 18.35 19.68 19.27 19.52 20.17C19.443 20.6759 19.3361 21.1767 19.2 21.67C19.1214 21.9527 18.989 22.2175 18.81 22.45C18.6601 22.5717 18.4731 22.6387 18.28 22.64C17.8 22.71 17.28 22.7 16.97 22.74C16.0692 22.8705 15.1603 22.9373 14.25 22.94C12.88 22.94 11.52 22.89 10.1 22.83C9.10001 22.83 8.19001 22.83 7.23001 22.75C6.83001 22.75 6.43001 22.75 6.03001 22.68C5.69237 22.665 5.35721 22.6147 5.03001 22.53C4.87042 22.4852 4.72552 22.3989 4.61001 22.28C4.48321 22.1159 4.3975 21.9239 4.36001 21.72C4.26001 21.34 4.22001 20.91 4.15001 20.54C3.94001 19.54 3.77001 18.54 3.64001 17.54C3.54001 16.84 3.48001 16.14 3.43001 15.43C5.90001 16 17.74 16.02 20.26 15.61C20.15 16.23 20.06 16.84 20 17.44Z" fill="black"/>
</g>
<defs>
<clipPath id="clip0_1050_8438">
<rect width="24" height="24" fill="white"/>
</clipPath>
</defs>
</svg>
