<svg width="24" height="24" viewBox="0 0 24 24" fill="none" xmlns="http://www.w3.org/2000/svg">
<g clip-path="url(#clip0_1050_8506)">
<path fill-rule="evenodd" clip-rule="evenodd" d="M4.38001 1.06C4.90186 1.15725 5.40703 1.32901 5.88001 1.57C6.36375 1.81479 6.81409 2.12062 7.22001 2.48C8.00212 3.18271 8.62884 4.04104 9.06001 5L8.52001 4.85C8.01001 4.74 7.52001 4.66 6.94001 4.59C6.14001 4.51 5.34001 4.47 4.56001 4.45C4.48465 4.4444 4.41008 4.46844 4.35218 4.51701C4.29428 4.56557 4.25762 4.63481 4.25001 4.71C4.25176 4.78137 4.2789 4.84977 4.32655 4.90293C4.37421 4.95608 4.43926 4.9905 4.51001 5C5.14001 5.1 5.77001 5.23 6.41001 5.37C7.03187 5.50354 7.64609 5.67045 8.25001 5.87L9.25001 6.16C9.35734 6.19905 9.46772 6.22915 9.58001 6.25C9.65517 6.25778 9.73112 6.25028 9.8033 6.22794C9.87548 6.2056 9.9424 6.16888 10 6.12C10.1432 5.99653 10.2619 5.84728 10.35 5.68C10.4329 5.49363 10.4966 5.29929 10.54 5.1L10.78 3.2L11.1 1.49C11.1215 1.40649 11.1095 1.31788 11.0665 1.24312C11.0236 1.16836 10.953 1.1134 10.87 1.09C10.7865 1.06847 10.6979 1.08048 10.6231 1.12347C10.5484 1.16646 10.4934 1.237 10.47 1.32L9.94001 3L9.62001 4.37C9.23841 3.38373 8.66 2.48548 7.92001 1.73C7.46782 1.27641 6.94838 0.895263 6.38001 0.599997C5.80916 0.287699 5.18523 0.0842429 4.54001 -2.74554e-06C3.04734 -0.133171 1.56082 0.314574 0.390012 1.25C0.358994 1.27022 0.332294 1.29638 0.311457 1.32699C0.29062 1.3576 0.27606 1.39203 0.26862 1.4283C0.26118 1.46457 0.261007 1.50196 0.268112 1.5383C0.275217 1.57463 0.289458 1.6092 0.310012 1.64C0.351136 1.70496 0.416372 1.75093 0.49138 1.76781C0.566388 1.78468 0.645027 1.77108 0.710012 1.73C1.81139 1.0684 3.11591 0.830242 4.38001 1.06Z" fill="black"/>
<path fill-rule="evenodd" clip-rule="evenodd" d="M14.07 10.85C14.07 10.22 14.07 9.57998 14.14 8.94998C14.21 8.31998 13.53 8.43998 13.34 8.94998C13.15 9.45998 13.11 10.1 13.04 10.68V11.04H12.15C11.36 11.04 10.57 10.98 9.78 10.98H8.66C8.66528 10.9268 8.66528 10.8732 8.66 10.82C8.66 10.21 8.59 9.58998 8.55 8.97998C8.51 8.36998 7.81 8.46998 7.77 8.97998C7.73 9.48998 7.65 10.21 7.62 10.83V11H7.37C6.08 11 5.26 11.14 3.98 11.29C3.23 11.49 3.48 12.05 4.19 11.94H5.5C6.16667 11.94 6.85667 11.96 7.57 12V12.17C7.57 12.62 7.57 13.07 7.64 13.51C7.69 14.17 7.77 14.17 7.84 14.83C7.99 15.75 8.25 15.77 8.63 14.83V13.49V12.13V12.01H8.76H12.07H12.9V13.33C12.9 14.03 12.9 14.1 12.97 14.8C13.22 15.9 13.48 15.58 13.76 14.8C13.83 13.96 13.91 13.8 13.96 12.93V11.98H15.42C16.003 11.9927 16.5844 12.0461 17.16 12.14C17.59 12.14 17.67 11.72 17.31 11.48C16.7043 11.3354 16.0896 11.2318 15.47 11.17L14.01 11.08C14.06 11 14.07 10.93 14.07 10.85Z" fill="black"/>
<path fill-rule="evenodd" clip-rule="evenodd" d="M23.69 2.27997C23.649 2.21773 23.5856 2.17366 23.513 2.1569C23.4404 2.14014 23.3641 2.15199 23.3 2.18997C21.7603 3.15557 20.5313 4.54427 19.76 6.18997C19.5162 6.66611 19.3024 7.15708 19.12 7.65997C16.7 7.54997 14.29 7.35997 11.88 7.26997C10.76 7.26997 9.65 7.20997 8.53 7.26997C7.8 7.26997 5.76 7.26997 4.18 7.38997C3.4951 7.41388 2.81906 7.55247 2.18 7.79997C1.99258 7.90065 1.83098 8.04329 1.70781 8.21676C1.58465 8.39024 1.50326 8.58984 1.47 8.79997C1.37095 9.50459 1.43248 10.2225 1.65 10.9C2.15162 12.5467 2.86777 14.1202 3.78 15.58C4.02136 16.0373 4.36326 16.4339 4.78 16.74C5.56765 17.0164 6.39531 17.1616 7.23 17.17C8.40215 17.1736 9.5737 17.1169 10.74 17C11.44 17 12.15 16.94 12.86 16.94C14.37 16.94 15.86 16.94 17.4 17V17.34C17.3621 17.6699 17.2552 17.9881 17.0864 18.2741C16.9176 18.5601 16.6905 18.8074 16.42 19C16.0093 19.2377 15.5523 19.3843 15.08 19.43C14.2827 19.5102 13.4809 19.537 12.68 19.51L4.68 19.59C4.63709 19.5912 4.59487 19.6011 4.55586 19.619C4.51684 19.6369 4.48183 19.6625 4.4529 19.6942C4.42398 19.726 4.40173 19.7632 4.38749 19.8037C4.37325 19.8442 4.3673 19.8871 4.37 19.93C4.37228 19.9847 4.39054 20.0375 4.42253 20.0819C4.45452 20.1264 4.49884 20.1605 4.55 20.18C4.25604 20.4622 4.02441 20.8028 3.87 21.18C3.71805 21.5229 3.6656 21.9017 3.71865 22.273C3.77169 22.6444 3.9281 22.9933 4.17 23.28C4.42477 23.5468 4.73806 23.7507 5.08516 23.8757C5.43225 24.0006 5.80364 24.0432 6.17 24C6.70612 23.9162 7.19138 23.6346 7.53013 23.2107C7.86888 22.7868 8.03652 22.2514 8 21.71C8.02233 21.1981 7.85497 20.696 7.53 20.3C9.35 20.35 11.34 20.43 12.64 20.46H14.35C14.1865 20.6693 14.0488 20.8976 13.94 21.14C13.788 21.4829 13.7356 21.8617 13.7886 22.233C13.8417 22.6044 13.9981 22.9533 14.24 23.24C14.4952 23.5061 14.8086 23.7096 15.1556 23.8346C15.5025 23.9595 15.8737 24.0024 16.24 23.96C16.7871 23.8899 17.2869 23.6142 17.638 23.1888C17.989 22.7635 18.165 22.2204 18.13 21.67C18.1635 21.2891 18.0775 20.9072 17.8839 20.5775C17.6904 20.2477 17.3989 19.9864 17.05 19.83C17.6343 19.4321 18.0592 18.8406 18.25 18.16C18.5378 16.7406 18.6951 15.298 18.72 13.85C18.9366 11.3075 19.5262 8.81071 20.47 6.43997C21.1414 4.91604 22.2256 3.61021 23.6 2.66997C23.6329 2.65159 23.6616 2.62652 23.6843 2.59637C23.7069 2.56622 23.723 2.53167 23.7315 2.49493C23.74 2.45819 23.7407 2.42008 23.7335 2.38306C23.7264 2.34603 23.7115 2.31092 23.69 2.27997ZM6.09 22.91C5.89404 22.9293 5.69621 22.9081 5.50873 22.8479C5.32125 22.7877 5.14811 22.6897 5 22.56C4.86461 22.4235 4.76889 22.2527 4.72309 22.066C4.67729 21.8793 4.68314 21.6836 4.74 21.5C4.82271 21.1706 4.9879 20.8678 5.22 20.62C5.39808 20.4379 5.63029 20.3183 5.88194 20.2791C6.13359 20.2399 6.39118 20.2831 6.61622 20.4024C6.84126 20.5217 7.02166 20.7105 7.13049 20.9408C7.23932 21.1711 7.27072 21.4304 7.22 21.68C7.22671 21.835 7.20279 21.9898 7.14961 22.1355C7.09642 22.2812 7.01502 22.4151 6.91007 22.5293C6.80511 22.6435 6.67866 22.736 6.53794 22.8013C6.39722 22.8666 6.24501 22.9035 6.09 22.91ZM17.23 21.68C17.2435 21.972 17.1491 22.2589 16.9646 22.4857C16.7802 22.7126 16.5187 22.8636 16.23 22.91C16.026 22.9371 15.8185 22.9199 15.6218 22.8595C15.425 22.7991 15.2436 22.6969 15.09 22.56C14.9486 22.4275 14.8488 22.2567 14.8026 22.0686C14.7565 21.8804 14.766 21.6828 14.83 21.5C14.9035 21.1671 15.0699 20.8619 15.31 20.62C15.4925 20.4699 15.7159 20.3781 15.9512 20.3564C16.1865 20.3348 16.4228 20.3842 16.6297 20.4984C16.8366 20.6126 17.0044 20.7863 17.1114 20.997C17.2184 21.2076 17.2597 21.4456 17.23 21.68ZM17.65 13.73C17.55 14.4 17.57 15.37 17.49 16.33C14.99 16.25 13.2 16.06 10.7 16.15H7.27C6.56677 16.1321 5.87109 16.0004 5.21 15.76C5.02787 15.5606 4.86701 15.3427 4.73 15.11C3.64507 13.3681 2.88605 11.4435 2.49 9.42997C2.49 9.07997 2.49 8.78997 2.67 8.67997C3.18523 8.50014 3.72462 8.399 4.27 8.37997C7.5 8.04997 9.1 8.05997 18.91 8.18997C18.3463 10.001 17.925 11.8533 17.65 13.73Z" fill="black"/>
</g>
<defs>
<clipPath id="clip0_1050_8506">
<rect width="24" height="24" fill="white"/>
</clipPath>
</defs>
</svg>
