<svg width="24" height="24" viewBox="0 0 24 24" fill="none" xmlns="http://www.w3.org/2000/svg">
<g clip-path="url(#clip0_1050_8355)">
<path fill-rule="evenodd" clip-rule="evenodd" d="M20.45 1.27C20.86 1.37 21.21 1.94 21.56 2.56C22.0323 3.45553 22.4206 4.39286 22.72 5.36C22.9129 6.35633 22.8684 7.38409 22.59 8.36C22.43 8.68 22.12 8.82 21.59 8.79C21.2895 8.77904 20.9911 8.73545 20.7 8.66C20.3939 8.61598 20.1012 8.50521 19.8426 8.33552C19.584 8.16583 19.3659 7.94138 19.2038 7.67805C19.0416 7.41472 18.9392 7.11896 18.904 6.8117C18.8688 6.50444 18.9016 6.19319 19 5.9L22.21 5.84C22.2889 5.82631 22.3605 5.7852 22.4121 5.72392C22.4636 5.66263 22.4919 5.5851 22.4919 5.505C22.4919 5.4249 22.4636 5.34737 22.4121 5.28609C22.3605 5.2248 22.2889 5.18369 22.21 5.17L19.07 5C17.44 0.510001 17.66 1.1 17.58 0.940001C18.5442 0.970164 19.5042 1.08055 20.45 1.27ZM16.87 8.55C16.6043 8.63609 16.3241 8.66805 16.0458 8.64401C15.7676 8.61996 15.497 8.54039 15.25 8.41C14.8057 8.19033 14.449 7.82642 14.2383 7.37776C14.0276 6.92909 13.9753 6.42222 14.09 5.94H18.09C18.2069 6.44879 18.1504 6.98208 17.9293 7.45502C17.7082 7.92796 17.3354 8.31339 16.87 8.55ZM16.79 0.940001C16.79 1.06 16.89 1.19 16.93 1.32C17.0508 2.58797 17.3679 3.82945 17.87 5L14.13 4.87C14.0799 3.50508 13.8202 2.15597 13.36 0.870001C13.54 0.840001 16.76 0.850001 16.79 0.940001ZM12.12 8.44C11.7246 8.60124 11.2951 8.661 10.8707 8.61384C10.4463 8.56669 10.0404 8.41411 9.69 8.17C9.22 5.73 9.28 6.3 9.38 5.87C10.18 5.87 12.71 5.93 13.15 5.94C13.21 6.81 13.41 7.71 12.12 8.44ZM11.88 0.840001C13.38 0.840001 12.36 0.610001 13.03 4.84C12.03 4.84 10.96 4.79 9.94 4.79L11.24 2.2C11.5255 1.78429 11.7417 1.32498 11.88 0.840001ZM7.74 1.63C8.21 1.01 8.2 1.1 8.07 0.880001C11.44 0.820001 11.17 0.820001 11.07 0.880001C10.1257 2.08978 9.30812 3.39328 8.63 4.77C7.42 4.77 6.27 4.77 5.26 4.83C6.27 3.67 7.08 2.49 7.74 1.63ZM4.49 5.69L8.32 5.84C8.32 6.17 8.32 5.65 8.43 7.36C8.14 7.54 8.14 8.21 7.64 8.56C7.26954 8.75657 6.85941 8.86677 6.44032 8.88236C6.02123 8.89794 5.60404 8.81851 5.22 8.65C4.2 8.18 4.32 6.38 4.49 5.69ZM21.2 9.87C23.35 10.06 23.87 8.94 23.93 6.8L23.76 5.16C23.3588 3.91011 22.8117 2.71184 22.13 1.59C21.8074 1.013 21.2898 0.569832 20.67 0.340001C17.62 -0.379999 6.16 0.260001 5.13 0.270001C5.08116 0.261532 5.03106 0.263843 4.98321 0.276773C4.93536 0.289703 4.89092 0.31294 4.85299 0.344855C4.81507 0.376769 4.78458 0.41659 4.76366 0.461528C4.74275 0.506466 4.73191 0.555434 4.73191 0.605001C4.73191 0.654568 4.74275 0.703536 4.76366 0.748474C4.78458 0.793411 4.81507 0.833233 4.85299 0.865147C4.89092 0.897062 4.93536 0.920298 4.98321 0.933229C5.03106 0.946159 5.08116 0.94847 5.13 0.940001H7.42C6.1026 2.1628 4.89775 3.50151 3.82 4.94C2.5 4.93 1.58 5 1.34 5C1.26639 5.01806 1.20235 5.06331 1.16074 5.12666C1.11913 5.19001 1.10304 5.26676 1.11571 5.34149C1.12837 5.41622 1.16885 5.48338 1.22901 5.52948C1.28917 5.57558 1.36455 5.5972 1.44 5.59H3.55C3.63 8 3.86 6.59 3.29 8.4C2.29 9.68 -0.0699975 7.51 0.930002 5.4C1.79439 3.88062 2.77392 2.42971 3.86 1.06C3.90081 0.999228 3.91799 0.925632 3.9083 0.853074C3.89862 0.780516 3.86274 0.714002 3.80742 0.66606C3.7521 0.618118 3.68116 0.592056 3.60796 0.592781C3.53477 0.593507 3.46436 0.620971 3.41 0.670001C3.08 1.05 2.41 1.93 1.77 2.85C-0.289997 5.78 0.110002 5.53 0.0900024 7.34C0.107155 7.82694 0.276529 8.29625 0.574298 8.68192C0.872068 9.06758 1.28325 9.35019 1.75 9.49L2.48 9.6C2.78082 9.62815 3.08377 9.57748 3.35906 9.45298C3.63434 9.32849 3.87247 9.13447 4.05 8.89C5.05 10.11 7.73 10.29 8.77 8.8C9.29346 9.26075 9.93734 9.56282 10.6263 9.67085C11.3152 9.77889 12.0206 9.6884 12.66 9.41C13.0309 9.1741 13.3674 8.88806 13.66 8.56C14.0823 9.08239 14.6573 9.45965 15.3046 9.63897C15.952 9.81828 16.6391 9.79067 17.27 9.56C17.768 9.34349 18.1994 8.99835 18.52 8.56C18.9996 9.1477 19.6609 9.55928 20.4 9.73L21.2 9.87Z" fill="black"/>
<path fill-rule="evenodd" clip-rule="evenodd" d="M5.33002 16.16C5.28228 16.1612 5.23534 16.1725 5.19224 16.193C5.14914 16.2136 5.11086 16.243 5.07988 16.2793C5.0489 16.3156 5.02592 16.3581 5.01243 16.4039C4.99895 16.4497 4.99527 16.4978 5.00163 16.5452C5.00798 16.5925 5.02424 16.6379 5.04933 16.6786C5.07442 16.7192 5.10779 16.7541 5.14726 16.7809C5.18673 16.8078 5.23142 16.8261 5.27841 16.8345C5.32541 16.843 5.37366 16.8414 5.42002 16.83C6.52002 16.7 6.21002 20.83 5.09002 20.56C3.97002 20.29 3.74002 18.08 4.50002 17.25C4.54489 17.1933 4.56776 17.1223 4.56442 17.05C4.56109 16.9778 4.53177 16.9092 4.48186 16.8568C4.43196 16.8045 4.36483 16.772 4.29283 16.7652C4.22083 16.7584 4.1488 16.7779 4.09002 16.82C2.74002 18 2.79002 21 4.78002 21.64C7.76002 22.56 7.70002 15.71 5.33002 16.16Z" fill="black"/>
<path fill-rule="evenodd" clip-rule="evenodd" d="M11.18 16.06C10.8648 15.9251 10.5221 15.8669 10.18 15.89C8.58 15.89 8.06 16.55 8.06 17.77C8.06 17.85 8.48 21.19 8.46 21.11C8.48974 21.1587 8.53273 21.1978 8.58392 21.2229C8.63512 21.248 8.69241 21.258 8.74907 21.2517C8.80574 21.2454 8.85943 21.2231 8.90387 21.1874C8.94831 21.1516 8.98166 21.104 9 21.05V18.89C9.43343 19.0701 9.91186 19.112 10.37 19.01C10.7087 18.9933 11.0335 18.87 11.298 18.6578C11.5625 18.4456 11.7532 18.1553 11.843 17.8283C11.9328 17.5013 11.9171 17.1542 11.798 16.8367C11.6789 16.5192 11.4627 16.2474 11.18 16.06ZM9 18.17C8.98223 17.8241 9.05459 17.4795 9.21 17.17C9.27 17.07 10.85 16.69 10.86 17.41C10.87 18.13 9.86 18.4 9 18.17Z" fill="black"/>
<path fill-rule="evenodd" clip-rule="evenodd" d="M13.32 20.4C13.41 20.02 13.32 20.4 13.51 19.4C14.23 19.66 15.28 19.28 15.28 18.95C15.28 18.62 14.15 18.25 13.58 18.48C13.58 17.74 13.46 17.32 13.86 17.21C14.49 17.04 15.33 17.21 15.29 16.75C15.2801 16.6731 15.2417 16.6028 15.1825 16.5528C15.1232 16.5028 15.0474 16.4769 14.97 16.48C14.04 16.48 12.84 16.06 12.56 17.6C12.56 17.68 12.41 19.13 12.42 19.04C12.42 19.54 12.01 20.92 12.7 21.33C13.39 21.74 13.9 21.33 14.35 21.26H15.11C15.2094 21.2567 15.3047 21.219 15.3794 21.1533C15.4542 21.0877 15.5039 20.9982 15.52 20.9C15.52 20.37 13.4 20.36 13.32 20.4Z" fill="black"/>
<path fill-rule="evenodd" clip-rule="evenodd" d="M19.82 16.89C19.82 17.18 19.68 18.15 19.55 19.03C19.2313 18.3377 18.7872 17.7105 18.24 17.18C18.0408 16.948 17.8122 16.7429 17.56 16.57C17.4563 16.5113 17.3392 16.4804 17.22 16.4804C17.1008 16.4804 16.9837 16.5113 16.88 16.57C16.33 16.89 16.46 17.15 16.71 20.13C16.687 20.4162 16.687 20.7038 16.71 20.99C16.83 21.48 17.29 21.5 17.39 21.19C17.39 21.11 17.39 21.64 17.44 18.03C18.1667 18.9539 18.7811 19.961 19.27 21.03C19.3205 21.0842 19.3817 21.1274 19.4496 21.157C19.5176 21.1865 19.5909 21.2018 19.665 21.2018C19.7391 21.2018 19.8124 21.1865 19.8804 21.157C19.9483 21.1274 20.0095 21.0842 20.06 21.03C20.43 20.62 20.45 17.03 20.45 16.9C20.4256 16.8369 20.3828 16.7825 20.3273 16.7439C20.2718 16.7052 20.206 16.684 20.1384 16.6829C20.0707 16.6818 20.0043 16.7009 19.9476 16.7378C19.8909 16.7747 19.8464 16.8277 19.82 16.89Z" fill="black"/>
<path fill-rule="evenodd" clip-rule="evenodd" d="M23 14.58C22.254 14.2705 21.4574 14.101 20.65 14.08C20.9208 13.1266 21.095 12.1483 21.17 11.16C21.17 10.25 20.24 10.07 20.07 11.03C19.9729 12.0169 19.9495 13.0096 20 14C14.3154 13.6149 8.61025 13.6449 2.93001 14.09C3.07944 12.9395 3.02528 11.7717 2.77001 10.64C2.51001 9.58 1.72001 9.87 1.72001 10.64C1.74655 11.2173 1.81338 11.792 1.92001 12.36C1.92001 12.45 2.25001 14.1 2.27001 14.18C0.50001 14.44 0.34001 14.63 0.38001 15.42C0.44001 16.83 0.85001 21.61 1.38001 22.92C1.44001 23.07 1.77001 23.32 2.38001 23.44C5.60001 24.08 19.76 24.29 21.91 23.31C22.77 22.92 23.07 20.81 23.21 19.86C23.35 18.91 23.76 15.18 23 14.58ZM21.57 21.82C21.49 22.05 21.42 22.41 21.34 22.32C19.39 23.11 4.21001 23.21 1.98001 22.56C1.43001 21 1.00001 15.55 0.91001 15.23C1.38001 14.61 8.65001 14.61 9.42001 14.61C13.3948 14.5986 17.3672 14.8022 21.32 15.22C22.55 15.4 22.32 15.38 22.32 15.96C22.3571 17.9369 22.1181 19.9092 21.61 21.82H21.57Z" fill="black"/>
</g>
<defs>
<clipPath id="clip0_1050_8355">
<rect width="24" height="24" fill="white"/>
</clipPath>
</defs>
</svg>
