<svg width="24" height="24" viewBox="0 0 24 24" fill="none" xmlns="http://www.w3.org/2000/svg">
<g clip-path="url(#clip0_1050_8367)">
<path fill-rule="evenodd" clip-rule="evenodd" d="M20.65 2.35999C20.6407 2.3147 20.6222 2.2718 20.5957 2.23391C20.5692 2.19601 20.5353 2.16391 20.496 2.13957C20.4567 2.11524 20.4128 2.09918 20.3671 2.09237C20.3213 2.08556 20.2747 2.08815 20.23 2.09999C19.7 2.20999 20 1.52999 21.75 15.56C22.44 21.08 22.55 21.27 21.56 21.46C20.11 21.73 20.56 20.89 20.28 18.73C20.2421 18.2664 20.1237 17.8129 19.93 17.39C19.57 16.72 18.04 16.86 17.48 17.09C19.71 1.63999 20.33 1.16999 19.74 0.559986C19.4285 0.370492 19.0918 0.225742 18.74 0.129986C18.2905 0.101192 17.8395 0.101192 17.39 0.129986C13.8163 -0.103294 10.2289 -0.019634 6.67 0.379986C6.31 0.439986 5.58 0.419986 5 0.519986C4.2 0.659986 3.71 0.939986 3.39 2.51999C3.18 3.66999 3.1 5.16999 3 5.81999C0.819996 19 1.34 15.4 0.629996 22.74C0.569996 23.16 0.629996 23.74 1.05 23.63C1.13 23.73 3.19 23.98 3.54 23.63C3.89 23.28 3.92 22.31 4 22C4.15218 21.1956 4.39367 20.4108 4.72 19.66C4.72 19.66 4.87 19.66 4.96 19.66C5.26 19.66 5.59 19.72 5.74 19.73H10.19C10.51 19.73 11.27 19.64 11.94 19.62C12.1619 19.6443 12.3822 19.6811 12.6 19.73C12.6 19.81 12.27 22.73 12.25 23.09C12.2125 23.3511 12.2693 23.6169 12.41 23.84C12.83 24.24 14.28 23.98 15.03 23.96C15.1228 23.96 15.2118 23.9231 15.2775 23.8575C15.3431 23.7918 15.38 23.7028 15.38 23.61C15.38 23.5172 15.3431 23.4281 15.2775 23.3625C15.2118 23.2969 15.1228 23.26 15.03 23.26H13.13C13.13 22.34 13.54 20.8 13.62 19.71C13.68 18.94 13.36 18.65 12.62 18.55C11.88 18.45 13.28 18.55 5.78 18.55C4 18.57 3.66 18 3 23C2.76 22.86 2 23 1.89 23C1.03 23 1.14 23.3 1.22 22.84C2.15 15.3 1.62 18.5 4 5.99999C4.13 5.35999 4.24 3.86999 4.5 2.73999C4.76 1.60999 4.9 1.65999 5.41 1.59999C5.92 1.53999 6.51 1.59999 6.82 1.51999C10.3265 1.1381 13.8586 1.04779 17.38 1.24999C19.13 1.24999 18.87 1.07999 18.73 1.98999C18.62 2.66999 16.39 19.31 16.29 19.99C16.07 21.45 15.72 22.39 15.65 23.08C15.6352 23.1417 15.6328 23.2058 15.6429 23.2685C15.653 23.3311 15.6754 23.3912 15.7089 23.4451C15.7424 23.4991 15.7862 23.5458 15.8379 23.5827C15.8896 23.6196 15.9481 23.6459 16.01 23.66C16.1028 23.66 16.1918 23.6231 16.2575 23.5575C16.3231 23.4918 16.36 23.4028 16.36 23.31C16.36 22.31 16.65 22.93 17.36 17.69C17.65 17.84 17.82 17.36 18.99 17.6C19.11 17.6 19.22 17.6 19.25 17.69C19.82 18.9 19.19 21.4 19.86 22.01C20.76 22.82 22.91 22.61 23.29 21.23C23.85 19.18 21.1 4.21999 20.65 2.35999Z" fill="black"/>
<path fill-rule="evenodd" clip-rule="evenodd" d="M5.65001 3.61998L4.13001 12.29C4.02001 13.11 2.78001 15.06 4.64001 15.57C6.42253 15.7198 8.21146 15.7799 10 15.75C11.1935 15.7658 12.3786 15.951 13.52 16.3C13.9154 16.3114 14.303 16.1894 14.6205 15.9535C14.938 15.7177 15.1668 15.3818 15.27 15C15.45 14.43 15.46 13.71 15.61 13.21C16.35 10.8 16.39 8.33998 16.8 5.97998C17.05 4.47998 17.57 3.22998 16.11 2.97998C13.9728 2.89596 11.8326 2.93603 9.70001 3.09998C5.00001 3.11998 5.85001 2.23998 5.65001 3.61998ZM15.65 3.80998C16.08 3.80998 15.85 5.68998 15.83 5.80998C15.81 5.92998 14.46 14.56 13.93 15C13.4 15.44 13.47 14.7 10.05 14.6C4.95001 14.44 4.41001 15.12 4.69001 13.86C5.23001 11.42 4.54001 16 6.27001 3.70998C7.00001 3.93998 13.58 3.63998 15.61 3.80998H15.65Z" fill="black"/>
<path fill-rule="evenodd" clip-rule="evenodd" d="M6.16999 11.89C7.23274 12.4784 8.45408 12.7163 9.65999 12.57C9.75281 12.57 9.84184 12.5331 9.90747 12.4675C9.97311 12.4018 10.01 12.3128 10.01 12.22C10.01 12.1272 9.97311 12.0381 9.90747 11.9725C9.84184 11.9069 9.75281 11.87 9.65999 11.87C9.07999 11.79 7.30999 10.87 6.21999 11.34C6.05999 11.41 5.99999 11.57 6.16999 11.89Z" fill="black"/>
<path fill-rule="evenodd" clip-rule="evenodd" d="M11 12.22C11.32 13.09 13 12.81 13.09 12.37C13.14 11.6 10.78 11.66 11 12.22Z" fill="black"/>
<path fill-rule="evenodd" clip-rule="evenodd" d="M10.26 9.82C10.3528 9.82 10.4419 9.78312 10.5075 9.71749C10.5731 9.65185 10.61 9.56282 10.61 9.47C10.61 9.37717 10.5731 9.28815 10.5075 9.22251C10.4419 9.15687 10.3528 9.12 10.26 9.12C9.67001 9.04 7.91001 8.12 6.82001 8.6C6.66001 8.67 6.57001 8.83 6.77001 9.14C7.83034 9.735 9.05386 9.97339 10.26 9.82Z" fill="black"/>
<path fill-rule="evenodd" clip-rule="evenodd" d="M13.65 9.62999C13.74 8.84999 11.38 8.90999 11.57 9.46999C11.88 10.34 13.6 10.07 13.65 9.62999Z" fill="black"/>
<path fill-rule="evenodd" clip-rule="evenodd" d="M10.86 7.07997C10.9528 7.07997 11.0418 7.0431 11.1075 6.97746C11.1731 6.91182 11.21 6.8228 11.21 6.72997C11.21 6.63715 11.1731 6.54812 11.1075 6.48248C11.0418 6.41685 10.9528 6.37997 10.86 6.37997C10.27 6.28997 8.50999 5.37997 7.40999 5.84997C7.24999 5.91997 7.16999 6.07997 7.40999 6.39997C8.46326 6.97447 9.66749 7.21182 10.86 7.07997Z" fill="black"/>
<path fill-rule="evenodd" clip-rule="evenodd" d="M14.25 6.87999C14.34 6.10999 11.98 6.15999 12.17 6.72999C12.48 7.59999 14.2 7.31999 14.25 6.87999Z" fill="black"/>
</g>
<defs>
<clipPath id="clip0_1050_8367">
<rect width="24" height="24" fill="white"/>
</clipPath>
</defs>
</svg>
