<svg width="24" height="24" viewBox="0 0 24 24" fill="none" xmlns="http://www.w3.org/2000/svg">
<g clip-path="url(#clip0_1050_8456)">
<path fill-rule="evenodd" clip-rule="evenodd" d="M24 16.9C23.92 15.77 22.11 15.9 20.89 15.76C20.7437 15.7154 20.5926 15.6886 20.44 15.68C20.0357 14.7745 19.5073 13.9297 18.87 13.17C18.13 12.17 17.45 12.53 16.92 13.61L16.1 15.41C16.1 15.5 15.9 15.65 15.86 15.78C15.7369 15.768 15.613 15.768 15.49 15.78C14.633 15.7537 13.7777 15.872 12.96 16.13C12.41 16.43 12.45 17.13 12.91 17.6C13.3713 17.988 13.8744 18.3234 14.41 18.6C14.7584 18.8463 15.1529 19.0198 15.57 19.11C15.6575 19.11 15.7414 19.0752 15.8033 19.0133C15.8652 18.9515 15.9 18.8675 15.9 18.78C15.9 18.6925 15.8652 18.6085 15.8033 18.5467C15.7414 18.4848 15.6575 18.45 15.57 18.45L14.81 18.04C14.18 17.58 13.81 17.53 13.31 16.82C13.31 16.82 15.55 16.69 15.99 16.68C16.67 16.68 16.64 16.11 17.99 13.62C18.3749 14.1107 18.713 14.6363 19 15.19C19.1999 15.6762 19.4408 16.1446 19.72 16.59C20.02 16.91 20.53 16.8 20.72 16.83C21.3931 16.8564 22.0625 16.9435 22.72 17.09C22.0584 17.5705 21.3437 17.9732 20.59 18.29C20.4828 18.3681 20.4017 18.4766 20.3571 18.6015C20.3125 18.7263 20.3065 18.8617 20.34 18.99C20.6068 19.8216 20.7812 20.6802 20.86 21.55C19.9223 21.1028 19.0828 20.474 18.39 19.7C18.302 19.6133 18.1835 19.5647 18.06 19.5647C17.9365 19.5647 17.8179 19.6133 17.73 19.7C17.09 20.19 15.91 22.24 14.97 22.19C15.04 22.04 14.87 21.98 15.13 21.3C15.39 20.62 15.97 19.87 15.51 19.7C15.4383 19.674 15.3594 19.6773 15.2901 19.7091C15.2209 19.741 15.1669 19.7987 15.14 19.87C14.95 20.35 14.73 20.67 14.56 21.07C14.3662 21.4932 14.2704 21.9547 14.28 22.42C14.43 23.01 15.28 22.95 15.84 22.63C16.4935 22.2138 17.0717 21.6897 17.55 21.08C17.7459 20.9455 17.9329 20.7985 18.11 20.64C18.7291 21.3164 19.4432 21.8991 20.23 22.37C20.77 22.67 21.31 23.04 21.7 22.63C22.09 22.22 21.87 21.9 21.88 21.63C21.8573 20.7499 21.7229 19.8762 21.48 19.03C22.35 18.64 24.07 17.84 24 16.9Z" fill="black"/>
<path fill-rule="evenodd" clip-rule="evenodd" d="M11.43 17.77C9.06289 17.9456 6.68284 17.7636 4.36999 17.23C2.81999 16.82 2.36999 14.49 2.11999 12.87C1.65999 10.41 1.79999 11.17 1.76999 10.79C3.32999 11.06 14.9 11 15 11C14.8589 11.2469 14.7544 11.513 14.69 11.79C14.62 12.15 14.47 13.79 14.48 13.69C14.4734 13.7775 14.5018 13.8641 14.559 13.9307C14.6162 13.9972 14.6975 14.0384 14.785 14.045C14.8725 14.0516 14.9591 14.0232 15.0257 13.966C15.0922 13.9088 15.1334 13.8275 15.14 13.74C15.86 12.18 15.95 11.32 15.83 10.94C16.1274 10.9177 16.422 10.8675 16.71 10.79C16.9486 10.6822 17.1551 10.5142 17.3092 10.3025C17.4634 10.0908 17.5598 9.84271 17.589 9.5825C17.6183 9.32229 17.5793 9.05895 17.4761 8.81832C17.3728 8.5777 17.2087 8.36806 17 8.20999C16.6486 8.05576 16.2729 7.96437 15.89 7.93999C16.0424 7.06313 15.9547 6.16136 15.636 5.33035C15.3173 4.49934 14.7796 3.77009 14.08 3.21999C13.7104 2.92365 13.2617 2.74278 12.79 2.69999C12.71 1.49999 11.79 1.09999 10.6 1.13999L6.84999 1.30999C6.76247 1.30999 6.67853 1.34476 6.61664 1.40665C6.55475 1.46853 6.51999 1.55247 6.51999 1.63999C6.51999 1.72751 6.55475 1.81145 6.61664 1.87334C6.67853 1.93523 6.76247 1.96999 6.84999 1.96999C10.44 2.07999 11 2.01999 11.44 2.26999C11.5229 2.3267 11.5883 2.40541 11.629 2.49727C11.6696 2.58913 11.6838 2.6905 11.67 2.78999V3.12999C11.38 3.79999 9.57999 3.52999 8.77999 3.60999C8.24999 3.67999 6.43999 4.02999 6.15999 3.60999C6.04869 3.41324 5.99019 3.19104 5.99019 2.96499C5.99019 2.73894 6.04869 2.51674 6.15999 2.31999C6.21436 2.2643 6.24437 2.18929 6.24344 2.11146C6.2425 2.03363 6.21068 1.95936 6.15499 1.90499C6.09929 1.85062 6.02428 1.82061 5.94645 1.82154C5.86862 1.82248 5.79436 1.8543 5.73999 1.90999C5.52099 2.20849 5.38914 2.56192 5.35912 2.93093C5.32911 3.29993 5.40211 3.67002 5.56999 3.99999C6.05999 4.92999 7.84999 4.69999 8.89999 4.64999C9.94999 4.59999 12.39 5.14999 12.79 3.36999C13.06 3.47999 12.99 3.30999 13.53 3.89999C14.4717 5.04389 15.0714 6.43039 15.26 7.89999C15.1725 7.89999 15.0885 7.93476 15.0266 7.99665C14.9648 8.05853 14.93 8.14247 14.93 8.22999C14.93 8.31751 14.9648 8.40145 15.0266 8.46334C15.0885 8.52523 15.1725 8.55999 15.26 8.55999C15.7628 8.5887 16.2584 8.69321 16.73 8.86999C17 9.01999 16.94 9.93999 16.52 10.04C15.2514 10.195 13.9686 10.195 12.7 10.04C0.339987 9.81999 2.55999 9.78999 1.12999 9.47999C0.989987 9.32999 1.20999 8.91999 1.40999 8.82999C1.88234 8.62248 2.39416 8.52012 2.90999 8.52999C3.35999 8.52999 9.99999 8.19999 13.83 8.35999C13.9069 8.35999 13.9807 8.32944 14.035 8.27505C14.0894 8.22067 14.12 8.14691 14.12 8.06999C14.12 7.99308 14.0894 7.91932 14.035 7.86493C13.9807 7.81055 13.9069 7.77999 13.83 7.77999C10.41 7.49999 2.60999 7.50999 2.52999 7.50999C2.97043 6.28415 3.62005 5.14393 4.44999 4.13999C5.31999 3.47999 5.24999 3.45999 5.24999 3.33999C5.25133 3.29582 5.24378 3.25183 5.2278 3.21063C5.21181 3.16944 5.18772 3.13187 5.15694 3.10016C5.12616 3.06845 5.08933 3.04324 5.04863 3.02603C5.00792 3.00883 4.96418 2.99997 4.91999 2.99999C4.55999 2.99999 4.12999 3.32999 3.91999 3.49999C3.26684 3.95354 2.74031 4.56634 2.39031 5.28035C2.04031 5.99435 1.87842 6.7859 1.91999 7.57999C1.52969 7.58505 1.14941 7.7042 0.826006 7.92276C0.502607 8.14132 0.25023 8.44974 0.0999869 8.80999C-0.0371498 9.11099 -0.0534298 9.45316 0.0545104 9.76581C0.162451 10.0785 0.386363 10.3377 0.679987 10.49C0.81014 10.5563 0.947797 10.6066 1.08999 10.64C1.09875 10.8045 1.1188 10.9682 1.14999 11.13C1.40999 14.02 1.32999 17.55 4.07999 18.3C5.18446 18.5175 6.30484 18.6446 7.42999 18.68C8.7913 18.7126 10.1529 18.629 11.5 18.43C11.5875 18.4207 11.6678 18.377 11.7231 18.3086C11.7784 18.2401 11.8043 18.1525 11.795 18.065C11.7857 17.9775 11.742 17.8972 11.6736 17.8419C11.6051 17.7866 11.5175 17.7607 11.43 17.77Z" fill="black"/>
<path fill-rule="evenodd" clip-rule="evenodd" d="M4.67996 12.41C3.81996 12.07 4.84996 16.59 5.67996 16.24C5.73979 16.2271 5.79485 16.1978 5.839 16.1555C5.88315 16.1131 5.91464 16.0593 5.92996 16C6.09996 15.67 5.13996 12.2 4.67996 12.41Z" fill="black"/>
<path fill-rule="evenodd" clip-rule="evenodd" d="M12.27 12.41C11.81 12.2 10.85 15.67 11 16C11.019 16.0524 11.051 16.0992 11.0929 16.1359C11.1349 16.1726 11.1855 16.1981 11.24 16.21C12.1 16.59 13.13 12.07 12.27 12.41Z" fill="black"/>
<path fill-rule="evenodd" clip-rule="evenodd" d="M8.40996 12.11C8.34996 12.11 8.24996 12.11 8.20996 12.25C7.84828 13.4686 7.80353 14.7593 8.07996 16C8.07121 16.0988 8.10046 16.1973 8.16178 16.2753C8.22309 16.3534 8.31184 16.4051 8.40996 16.42C9.16996 16.42 8.84996 13.3 8.69996 12.36C8.58996 12.14 8.48996 12.08 8.40996 12.11Z" fill="black"/>
</g>
<defs>
<clipPath id="clip0_1050_8456">
<rect width="24" height="24" fill="white"/>
</clipPath>
</defs>
</svg>
