<svg width="24" height="24" viewBox="0 0 24 24" fill="none" xmlns="http://www.w3.org/2000/svg">
<g clip-path="url(#clip0_1050_8486)">
<path fill-rule="evenodd" clip-rule="evenodd" d="M8.45 13.52C8.41714 13.449 8.3587 13.3931 8.28638 13.3635C8.21406 13.3338 8.1332 13.3325 8.06 13.36C7.38 13.43 7.65 16.25 8.31 16.1C8.97 15.95 8.7 14.09 8.45 13.52Z" fill="black"/>
<path fill-rule="evenodd" clip-rule="evenodd" d="M14.88 15.9C15 15.9 15.09 15.83 15.21 15.73C15.72 15.27 15.69 13.22 15.13 13.16C15.0947 13.1435 15.0563 13.1342 15.0174 13.1329C14.9784 13.1315 14.9395 13.138 14.9031 13.152C14.8667 13.166 14.8335 13.1872 14.8054 13.2144C14.7774 13.2415 14.7552 13.274 14.74 13.31C14.4805 14.0302 14.4116 14.8053 14.54 15.56C14.54 15.6501 14.5758 15.7366 14.6396 15.8004C14.7033 15.8642 14.7898 15.9 14.88 15.9Z" fill="black"/>
<path fill-rule="evenodd" clip-rule="evenodd" d="M8.66 18.65C9.13963 19.1624 9.70902 19.5827 10.34 19.89C11.0887 20.1627 11.9018 20.2056 12.675 20.0132C13.4483 19.8208 14.1465 19.4018 14.68 18.81C14.93 18.57 15.68 18.05 15.68 17.62C15.68 17.5298 15.6442 17.4433 15.5804 17.3796C15.5167 17.3158 15.4302 17.28 15.34 17.28C14.4728 17.9918 13.488 18.5468 12.43 18.92C9.85001 19.54 8.71001 17.31 8.52001 17.26C8.47218 17.2346 8.41869 17.2217 8.36453 17.2226C8.31037 17.2235 8.25733 17.2381 8.21036 17.2651C8.16339 17.292 8.12404 17.3305 8.096 17.3768C8.06795 17.4232 8.05213 17.4759 8.05001 17.53C8.00001 17.8 8.52 18.51 8.66 18.65Z" fill="black"/>
<path fill-rule="evenodd" clip-rule="evenodd" d="M21.26 12.41C21.1539 14.188 20.9402 15.9579 20.62 17.71C20.4583 18.7034 20.1587 19.6694 19.73 20.58C19.6077 20.8989 19.3729 21.1621 19.07 21.32C17.3193 21.8493 15.4989 22.1122 13.67 22.1C10.8813 22.2019 8.08882 22.0781 5.32001 21.73C4.02001 21.56 3.32001 20.08 2.92001 18.35C2.48544 16.3991 2.25421 14.4085 2.23001 12.41C2.16001 11.72 1.57001 11.81 1.63001 12.41C1.54957 14.8905 1.82914 17.3697 2.46001 19.77C2.98001 21.35 3.87001 22.49 5.17001 22.71C7.99788 23.1111 10.8556 23.2617 13.71 23.16C15.6511 23.1416 17.5775 22.8211 19.42 22.21C20.2 21.88 20.83 20.64 21.21 18.98C21.6312 16.8137 21.8721 14.6161 21.93 12.41C21.79 11.88 21.39 12.06 21.26 12.41Z" fill="black"/>
<path fill-rule="evenodd" clip-rule="evenodd" d="M4.26001 6.71999C4.37179 6.42216 4.50205 6.1316 4.65001 5.84999C4.80594 5.58518 4.97968 5.33126 5.17001 5.08999C5.36334 4.85151 5.57035 4.62446 5.79001 4.40999C6.20933 4.00524 6.67605 3.65269 7.18001 3.35999C7.23035 3.57653 7.34135 3.77425 7.50001 3.92999C7.71903 4.14849 7.98131 4.31879 8.27001 4.42999C8.67549 4.57043 9.10093 4.64471 9.53001 4.64999L13.74 4.72999C14.203 4.75506 14.667 4.75506 15.13 4.72999C15.4981 4.71382 15.859 4.6219 16.19 4.45999C16.4031 4.3762 16.5922 4.24108 16.7405 4.06662C16.8888 3.89217 16.9916 3.68378 17.04 3.45999C17.04 3.45999 17.04 3.39999 17.04 3.37999C17.6672 3.53753 18.2492 3.8388 18.74 4.25999C18.9924 4.48908 19.2203 4.74378 19.42 5.01999C19.6207 5.30155 19.7916 5.60316 19.93 5.91999C20.0298 6.18123 20.1133 6.44841 20.18 6.71999C20.45 7.83999 20.97 7.71999 21.08 6.71999C21.0531 6.32921 20.9792 5.9431 20.86 5.56999C20.7273 5.15458 20.5353 4.76052 20.29 4.39999C20.0322 4.03896 19.7183 3.7216 19.36 3.45999C18.64 2.98844 17.8006 2.73175 16.94 2.71999C16.8086 2.39071 16.6073 2.09388 16.35 1.84999C15.9577 1.51014 15.4975 1.25787 15 1.10999C14.2877 0.927142 13.5554 0.833095 12.82 0.829987H11.28C10.74 0.829987 10.28 0.829987 9.75001 0.889987C9.67661 0.89506 9.60789 0.927839 9.55776 0.981685C9.50763 1.03553 9.47983 1.10642 9.48001 1.17999C9.48508 1.25338 9.51786 1.3221 9.57171 1.37224C9.62555 1.42237 9.69644 1.45016 9.77001 1.44999H11.27C11.77 1.44999 12.27 1.50999 12.77 1.55999C13.4218 1.63089 14.0629 1.77858 14.68 1.99999C15.0527 2.12563 15.3938 2.33029 15.68 2.59999C15.8688 2.75672 15.9934 2.97738 16.03 3.21999C16.03 3.35999 15.94 3.45999 15.75 3.54999C15.5349 3.64403 15.3045 3.69824 15.07 3.70999C14.637 3.73511 14.203 3.73511 13.77 3.70999L9.56001 3.82999C9.27776 3.83862 8.99555 3.81174 8.72001 3.74999C8.44881 3.70024 8.19834 3.57153 8.00001 3.37999C7.91323 3.2777 7.85767 3.15263 7.83994 3.01966C7.82221 2.8867 7.84306 2.75144 7.90001 2.62999C7.99943 2.30914 8.20367 2.03095 8.48001 1.83999C8.53903 1.79246 8.57928 1.72554 8.59358 1.65112C8.60788 1.5767 8.5953 1.49963 8.55809 1.43361C8.52089 1.3676 8.46146 1.31693 8.39039 1.29063C8.31932 1.26433 8.24123 1.2641 8.17001 1.28999C7.6701 1.60265 7.31146 2.09757 7.17001 2.66999C6.45005 2.88395 5.77315 3.2224 5.17001 3.66999C4.86669 3.89685 4.59438 4.16244 4.36001 4.45999C4.12853 4.76791 3.93701 5.10392 3.79001 5.45999C3.61109 5.86326 3.48019 6.28616 3.40001 6.71999C3.35001 7.73999 4.00001 7.52999 4.26001 6.71999Z" fill="black"/>
<path fill-rule="evenodd" clip-rule="evenodd" d="M24 9.72998C23.9513 9.42132 23.8368 9.12675 23.6642 8.86622C23.4917 8.60569 23.2652 8.3853 23 8.21998C21.8455 8.04313 20.6776 7.9695 19.51 7.99998C16.7 7.99998 12.98 8.09998 11.65 8.13998C2.7 8.44998 8.18 7.78998 0.510004 8.30998C0.435743 8.30998 0.364524 8.33948 0.312014 8.39199C0.259504 8.4445 0.230004 8.51572 0.230004 8.58998C0.230004 8.66424 0.259504 8.73546 0.312014 8.78797C0.364524 8.84048 0.435743 8.86998 0.510004 8.86998H3.83C6.5 8.86998 9.3 8.99998 11.67 8.99998H19.49C20.5328 8.97909 21.5757 9.03591 22.61 9.16998C22.7225 9.31088 22.8104 9.46978 22.87 9.63998C22.9072 9.7913 22.9339 9.945 22.95 10.1C22.6495 10.209 22.3375 10.2828 22.02 10.32C21.43 10.39 20.78 10.38 20.3 10.39L2.71 10.77C2.20799 10.8671 1.69201 10.8671 1.19 10.77C1.06173 10.7053 0.948888 10.6138 0.859157 10.5017C0.769425 10.3895 0.704911 10.2593 0.670004 10.12C0.65549 10.0575 0.65549 9.99248 0.670004 9.92998V9.42998C0.675608 9.38922 0.673043 9.34775 0.662457 9.30799C0.651871 9.26823 0.633477 9.23098 0.608346 9.1984C0.583215 9.16583 0.55185 9.13858 0.516081 9.11825C0.480311 9.09791 0.440852 9.08491 0.400004 9.07998C0.317288 9.07687 0.236424 9.10496 0.173446 9.15867C0.110469 9.21239 0.0699783 9.28781 0.0600036 9.36998C0.0600036 9.56998 3.60492e-06 9.77998 3.60492e-06 9.97998C-0.00105989 10.1035 0.0227464 10.2259 0.0700036 10.34C0.132935 10.5573 0.241233 10.7588 0.387751 10.9311C0.53427 11.1035 0.715678 11.2429 0.920004 11.34C1.21 11.47 21.59 11.43 22.14 11.34C22.6002 11.301 23.0502 11.1826 23.47 10.99C23.6751 10.8579 23.8354 10.6668 23.93 10.442C24.0246 10.2171 24.049 9.96895 24 9.72998Z" fill="black"/>
</g>
<defs>
<clipPath id="clip0_1050_8486">
<rect width="24" height="24" fill="white"/>
</clipPath>
</defs>
</svg>
