<svg width="24" height="24" viewBox="0 0 24 24" fill="none" xmlns="http://www.w3.org/2000/svg">
<g clip-path="url(#clip0_1050_8406)">
<path fill-rule="evenodd" clip-rule="evenodd" d="M5 16.39C5.11511 16.0441 5.1824 15.6841 5.2 15.32C5.19985 14.7666 5.0769 14.2201 4.84 13.72C4.81868 13.6325 4.76354 13.5571 4.68668 13.5102C4.60982 13.4634 4.51752 13.4489 4.43 13.47C4.34391 13.4936 4.27007 13.5491 4.2236 13.6253C4.17713 13.7016 4.16153 13.7926 4.18 13.88C4.19989 14.1029 4.19989 14.3271 4.18 14.55C4.13202 14.8003 4.06856 15.0475 3.99 15.29C3.99 15.53 3.89 15.78 3.82 16.02C3.70633 16.4678 3.64922 16.928 3.65 17.39C3.66131 17.6492 3.74821 17.8995 3.9 18.11C3.95391 18.1964 4.03876 18.259 4.13725 18.285C4.23574 18.3111 4.34044 18.2985 4.43 18.25C4.51668 18.1962 4.57884 18.1106 4.60314 18.0115C4.62744 17.9124 4.61195 17.8078 4.56 17.72C4.5 17.58 4.56 17.45 4.56 17.3C4.68663 16.9874 4.83361 16.6834 5 16.39Z" fill="black"/>
<path fill-rule="evenodd" clip-rule="evenodd" d="M7.33 18.61H6.97C5.77 18.61 5.76 18.52 5.63 18.74C5.39 19.18 6.47 19.74 6.89 19.87C7.12819 19.9314 7.37567 19.9484 7.62 19.92C9 19.79 9 19.45 9 19.32C9 19.19 9.13 18.91 7.33 18.61Z" fill="black"/>
<path fill-rule="evenodd" clip-rule="evenodd" d="M23.3 17.11C23.1633 16.194 22.7485 15.3422 22.1118 14.6697C21.475 13.9972 20.6471 13.5365 19.74 13.35C18.8508 13.2018 17.9417 13.2221 17.06 13.41C16.1512 13.5597 15.291 13.923 14.55 14.47C13.4082 15.4939 12.6586 16.8834 12.43 18.4C12.2808 19.1551 12.3146 19.935 12.5286 20.6744C12.7425 21.4138 13.1305 22.0913 13.66 22.65C14.0687 23.0343 14.552 23.3304 15.08 23.52C16.5255 24.0475 18.095 24.1345 19.59 23.77C20.6166 23.5147 21.5283 22.9233 22.18 22.09C22.6915 21.3776 23.0543 20.5695 23.2468 19.7139C23.4392 18.8583 23.4573 17.9727 23.3 17.11ZM13.49 18.59C13.7244 17.3578 14.378 16.2448 15.34 15.44C15.9362 15.0284 16.6217 14.7645 17.34 14.67C18.0537 14.5182 18.789 14.4979 19.51 14.61C19.7127 14.6618 19.9102 14.7321 20.1 14.82C19.43 15.51 18.75 16.19 18.1 16.95C17.77 17.35 17.46 17.77 17.16 18.2C16.86 18.63 16.58 19.06 16.32 19.51C15.76 20.51 15.32 21.46 14.83 22.44C14.6253 22.3369 14.4339 22.2093 14.26 22.06C13.8652 21.5844 13.5894 21.0215 13.4555 20.4181C13.3216 19.8146 13.3334 19.1879 13.49 18.59ZM21.38 21.5C20.8913 22.1862 20.1874 22.6895 19.38 22.93C18.1055 23.31 16.7432 23.275 15.49 22.83C16.19 21.83 16.95 20.83 17.69 19.76C18.08 19.21 18.46 18.65 18.84 18.09C19.22 17.53 19.58 16.96 19.97 16.41C20.25 16.01 20.55 15.62 20.84 15.23C21.5206 15.7566 21.992 16.508 22.17 17.35C22.3228 18.0594 22.3317 18.7922 22.196 19.5051C22.0603 20.218 21.7828 20.8963 21.38 21.5Z" fill="black"/>
<path fill-rule="evenodd" clip-rule="evenodd" d="M17.17 8.77998C17.4236 8.55521 17.587 8.2461 17.63 7.90999C17.698 7.3996 17.7147 6.8837 17.68 6.36999C17.68 5.49999 17.61 4.63999 17.51 3.77998C17.41 2.91998 17.27 2.26999 17.1 1.52999C17.8758 2.54131 18.4804 3.67299 18.89 4.87999C19.2052 5.77503 19.4591 6.69047 19.65 7.61999C19.941 9.06287 20.1049 10.5285 20.14 12C20.1548 12.0914 20.2016 12.1746 20.2722 12.2347C20.3427 12.2948 20.4324 12.3277 20.525 12.3277C20.6176 12.3277 20.7073 12.2948 20.7778 12.2347C20.8483 12.1746 20.8952 12.0914 20.91 12C21.055 10.5269 21.055 9.04309 20.91 7.56999C20.8273 6.93271 20.7037 6.30141 20.54 5.67999C20.3679 5.05151 20.1334 4.44182 19.84 3.85998C19.56 3.29998 17.31 -0.360015 16.56 0.379985C16.241 0.490223 15.9409 0.648733 15.67 0.849985C15.2259 1.20194 14.8584 1.64092 14.59 2.13999C14.3018 2.74469 14.103 3.38809 14 4.04999C13.9287 5.01743 13.9623 5.98975 14.1 6.94999C14.1051 7.05257 14.1495 7.14924 14.224 7.21999C14.2985 7.29073 14.3973 7.33011 14.5 7.32999C14.5499 7.32869 14.5991 7.31757 14.6447 7.29727C14.6903 7.27696 14.7314 7.24787 14.7658 7.21165C14.8002 7.17543 14.8271 7.1328 14.8449 7.08619C14.8628 7.03957 14.8713 6.98989 14.87 6.93999C14.9105 6.18205 14.9973 5.42731 15.13 4.67999C15.18 4.38999 15.26 4.11999 15.33 3.82998C15.4235 3.41579 15.554 3.01083 15.72 2.61998C15.838 2.22228 16.0391 1.85416 16.31 1.53999C16.4581 2.31003 16.5616 3.088 16.62 3.86998C16.67 4.69999 16.68 5.53999 16.62 6.36999C16.62 6.54998 16.62 6.95999 16.57 7.36999C16.57 7.58998 16.57 7.81999 16.45 7.89999C16.0057 8.16913 15.5132 8.34915 15 8.42999C14.111 8.57357 13.2098 8.62718 12.31 8.58998C11.72 8.58998 11.13 8.52999 10.55 8.46999C9.97 8.40998 9.38 8.33998 8.79 8.23998L7.59 8.05999C7.59 8.05999 7.48 7.99998 7.46 7.92999C7.41851 7.77913 7.38842 7.62536 7.37 7.46999C7.34775 7.22716 7.34775 6.98281 7.37 6.73998C7.39423 5.76081 7.49117 4.7848 7.66 3.81998C7.77435 3.20317 7.93139 2.59504 8.13 1.99998C8.13 2.08998 8.21 2.17999 8.24 2.26998C8.27 2.35998 8.39 2.71999 8.46 2.93999C8.53 3.15999 8.67 3.61999 8.77 3.93999C9.0449 4.81963 9.26861 5.71446 9.44 6.61999C9.44795 6.72077 9.49562 6.81426 9.57251 6.8799C9.61058 6.9124 9.65468 6.93708 9.70229 6.95254C9.74991 6.968 9.8001 6.97392 9.85 6.96999C9.8999 6.96605 9.94854 6.95232 9.99313 6.92958C10.0377 6.90684 10.0774 6.87554 10.1099 6.83747C10.1424 6.7994 10.1671 6.7553 10.1826 6.70769C10.198 6.66008 10.2039 6.60989 10.2 6.55999C10.2281 5.74835 10.1913 4.93577 10.09 4.12999C10.0418 3.78177 9.96824 3.43752 9.87 3.09998C9.76312 2.75667 9.62937 2.4223 9.47 2.09998C9.07931 1.34199 8.54626 0.666349 7.9 0.109985C7.86806 0.0702059 7.8265 0.0392285 7.77926 0.0199808C7.73202 0.000733141 7.68064 -0.00614894 7.63 -1.49533e-05C7.5856 -0.0245272 7.53571 -0.037384 7.485 -0.037384C7.43428 -0.037384 7.3844 -0.0245272 7.34 -1.49533e-05C5.96319 0.977366 4.8528 2.2837 4.11 3.79998C3.37119 5.27756 2.83631 6.84856 2.52 8.46999L2.1 11.39L1.62 13.69C1.2 15.22 0.489998 17.08 0.619998 18.69C0.648876 19.3341 0.841184 19.9603 1.17882 20.5096C1.51646 21.059 1.98832 21.5133 2.55 21.83C2.77505 21.9625 3.00893 22.0795 3.25 22.18C3.48939 22.2809 3.73696 22.3612 3.99 22.42C4.40151 22.5273 4.81887 22.6108 5.24 22.67C5.66377 22.7335 6.09151 22.7669 6.52 22.77C7.09804 22.7791 7.67603 22.7491 8.25 22.68C8.82197 22.6175 9.38967 22.5207 9.95 22.39C9.9994 22.3804 10.0464 22.3612 10.0883 22.3333C10.1302 22.3054 10.1661 22.2695 10.194 22.2277C10.2219 22.1858 10.2413 22.1388 10.2509 22.0894C10.2605 22.0401 10.2602 21.9893 10.25 21.94C10.2284 21.8394 10.1679 21.7515 10.0818 21.6953C9.9956 21.6391 9.89074 21.6192 9.79 21.64C9.2581 21.7426 8.72043 21.8128 8.18 21.85C7.64056 21.8847 7.09944 21.8847 6.56 21.85C6.17071 21.8285 5.78322 21.7817 5.4 21.71C5.02 21.64 4.64 21.54 4.26 21.43C4.057 21.3749 3.8595 21.3013 3.67 21.21C3.4793 21.1203 3.29547 21.0167 3.12 20.9C2.72823 20.6568 2.40445 20.3183 2.17887 19.9161C1.95329 19.5139 1.83327 19.0611 1.83 18.6C1.92889 17.0249 2.26605 15.474 2.83 14L3.32 11.59L3.65 8.64998C3.87701 7.11841 4.31097 5.62476 4.94 4.20999C5.53298 2.88855 6.4227 1.72165 7.54 0.799985L7.73 1.11999C7.32497 1.92287 7.00973 2.76798 6.79 3.63999C6.55583 4.62801 6.38548 5.63008 6.28 6.63999C6.22231 7.17379 6.24591 7.71326 6.35 8.23998C6.39208 8.42345 6.47151 8.59628 6.58334 8.74768C6.69518 8.89909 6.83701 9.02582 7 9.11998C7.17541 9.20426 7.35997 9.26802 7.55 9.30999C7.89 9.38999 8.28 9.41998 8.55 9.47998C9.16 9.58998 9.78 9.68998 10.4 9.74998C11.02 9.80999 11.63 9.85998 12.27 9.87998C13.2763 9.91186 14.2829 9.82797 15.27 9.62998C15.9559 9.48307 16.6033 9.19347 17.17 8.77998Z" fill="black"/>
</g>
<defs>
<clipPath id="clip0_1050_8406">
<rect width="24" height="24" fill="white"/>
</clipPath>
</defs>
</svg>
