<svg width="24" height="24" viewBox="0 0 24 24" fill="none" xmlns="http://www.w3.org/2000/svg">
<g clip-path="url(#clip0_1050_8515)">
<path fill-rule="evenodd" clip-rule="evenodd" d="M3.43999 5.56999C3.99999 5.79999 4.52999 5.99999 5.04999 6.29999C5.08005 6.31763 5.11335 6.32905 5.14792 6.33356C5.18248 6.33808 5.2176 6.3356 5.25118 6.32627C5.28476 6.31694 5.31613 6.30095 5.34341 6.27926C5.37069 6.25756 5.39334 6.23061 5.40999 6.19999C5.44384 6.13985 5.45337 6.06903 5.43664 6.00208C5.4199 5.93512 5.37816 5.87712 5.31999 5.83999C4.71999 5.43999 4.09999 5.04999 3.45999 4.68999L2.13999 3.99999L1.64999 3.82999C2.48267 3.36902 3.40216 3.08636 4.34999 2.99999C4.84117 2.93486 5.33881 2.93486 5.82999 2.99999C6.31349 3.07071 6.78472 3.20871 7.22999 3.40999C8.29954 3.91013 9.15201 4.78036 9.62999 5.85999C9.64114 5.89652 9.66052 5.93001 9.68663 5.95789C9.71274 5.98577 9.7449 6.0073 9.78062 6.02081C9.81635 6.03433 9.8547 6.03948 9.89272 6.03587C9.93075 6.03226 9.96745 6.01999 9.99999 5.99999C10.0311 5.9879 10.0596 5.96968 10.0836 5.94642C10.1076 5.92316 10.1266 5.89532 10.1397 5.86456C10.1527 5.83379 10.1595 5.80072 10.1595 5.7673C10.1596 5.73388 10.1529 5.70079 10.14 5.66999C9.73925 4.36056 8.85165 3.25464 7.65999 2.57999C7.14758 2.28503 6.5846 2.08832 5.99999 1.99999C5.42012 1.91007 4.82986 1.91007 4.24999 1.99999C3.28136 2.18532 2.36188 2.57014 1.54999 3.12999L1.99999 1.99999L2.53999 0.399987C2.55446 0.361906 2.56128 0.321346 2.56006 0.280627C2.55884 0.239909 2.54961 0.199829 2.53289 0.16268C2.51618 0.125531 2.4923 0.0920416 2.46263 0.0641256C2.43297 0.0362095 2.39809 0.0144146 2.35999 -1.30776e-05C2.32322 -0.0106843 2.2847 -0.013969 2.24666 -0.00967779C2.20861 -0.00538655 2.17179 0.00639573 2.13833 0.0249893C2.10486 0.0435828 2.0754 0.0686196 2.05166 0.098655C2.02792 0.12869 2.01036 0.16313 1.99999 0.199987L1.30999 1.63999L0.479991 3.18999C0.407555 3.36377 0.353916 3.5448 0.319991 3.72999C0.284653 3.89815 0.284653 4.07182 0.319991 4.23999C0.340818 4.3116 0.376523 4.378 0.424773 4.43487C0.473022 4.49173 0.532729 4.53778 0.599991 4.56999C0.696687 4.61252 0.797116 4.64599 0.89999 4.66999L1.79999 4.99999C2.35638 5.16075 2.90383 5.35102 3.43999 5.56999Z" fill="black"/>
<path fill-rule="evenodd" clip-rule="evenodd" d="M14.08 10.91L14.14 9.00001C14.04 8.45001 13.54 8.50001 13.35 9.00001C13.16 9.50001 13.12 10.14 13.05 10.72V11.08H12.16C11.38 11.08 10.59 11.02 9.79998 11.02C9.39998 11 8.99998 11 8.65998 11C8.65534 10.9468 8.65534 10.8932 8.65998 10.84C8.65998 10.23 8.58998 9.62001 8.54998 9.01001C8.50998 8.40001 7.80998 8.50001 7.76998 9.01001C7.72998 9.52001 7.64998 10.23 7.62998 10.85V11.01H7.42998C6.13998 11.06 5.32998 11.15 4.04998 11.3C3.30998 11.5 3.55998 12.05 4.25998 11.95C4.95998 11.85 4.96998 11.95 5.55998 11.95H7.62998V12.13C7.62998 12.57 7.62998 13.02 7.69998 13.46C7.74998 14.11 7.81998 14.12 7.89998 14.77C8.03998 15.69 8.29998 15.71 8.67998 14.77V13.43V12.1V11.98H8.80998H12.1H12.92V13.3C12.92 14 12.92 14.07 12.99 14.76C13.24 15.86 13.5 15.53 13.77 14.76C13.85 13.93 13.92 13.76 13.98 12.9V11.96H15.43C16.01 11.9755 16.5881 12.0323 17.16 12.13C17.59 12.13 17.67 11.71 17.31 11.47C16.7055 11.3198 16.0903 11.2161 15.47 11.16C14.99 11.16 14.47 11.09 14.02 11.07C14.07 11.07 14.07 11 14.08 10.91Z" fill="black"/>
<path fill-rule="evenodd" clip-rule="evenodd" d="M23.65 2.37997C23.6306 2.34815 23.605 2.32052 23.5748 2.29871C23.5445 2.2769 23.5103 2.26134 23.4739 2.25296C23.4376 2.24458 23.4 2.24353 23.3632 2.24989C23.3265 2.25624 23.2914 2.26987 23.26 2.28997C21.7366 3.23837 20.5155 4.60174 19.74 6.21997C19.4962 6.69271 19.2825 7.18034 19.1 7.67997C16.7 7.56997 14.3 7.38997 11.89 7.29997C10.78 7.29997 9.67 7.23997 8.56 7.29997C7.83 7.29997 5.8 7.29997 4.23 7.41997C3.54539 7.43819 2.86895 7.57347 2.23 7.81997C2.04445 7.923 1.88435 8.06631 1.76148 8.23937C1.63861 8.41243 1.55609 8.61082 1.52 8.81997C1.42073 9.52127 1.48228 10.236 1.7 10.91C2.194 12.5515 2.90709 14.119 3.82 15.57C4.06136 16.0273 4.40326 16.4239 4.82 16.73C5.60261 16.9979 6.42286 17.1397 7.25 17.15C8.42094 17.1769 9.59249 17.1435 10.76 17.05C11.46 17 12.16 16.98 12.87 16.98C14.37 16.98 15.87 17.03 17.39 17.04C17.39 17.15 17.39 17.27 17.34 17.39C17.3039 17.7067 17.2037 18.0128 17.0455 18.2896C16.8874 18.5663 16.6745 18.808 16.42 19C16.0087 19.2363 15.552 19.3828 15.08 19.43C14.286 19.5102 13.4876 19.537 12.69 19.51L4.74 19.59C4.65504 19.5949 4.57503 19.6316 4.51579 19.6927C4.45654 19.7538 4.42236 19.8349 4.42 19.92C4.42482 19.9766 4.44509 20.0307 4.47859 20.0766C4.5121 20.1224 4.55756 20.1582 4.61 20.18C4.31489 20.4612 4.08307 20.8021 3.93 21.18C3.77805 21.5229 3.7256 21.9017 3.77864 22.273C3.83169 22.6444 3.9881 22.9933 4.23 23.28C4.48662 23.5437 4.80046 23.7449 5.14726 23.8681C5.49405 23.9912 5.86451 24.0329 6.23 23.99C6.77359 23.9199 7.26989 23.6448 7.61746 23.2211C7.96504 22.7973 8.13764 22.2568 8.1 21.71C8.11991 21.2032 7.95661 20.7062 7.64 20.31C9.44 20.36 11.42 20.44 12.72 20.47H14.42C14.2621 20.6813 14.1279 20.9093 14.02 21.15C13.8667 21.492 13.8126 21.8703 13.8639 22.2416C13.9152 22.6129 14.0697 22.9623 14.31 23.25C14.5671 23.5131 14.881 23.7139 15.2276 23.837C15.5743 23.96 15.9446 24.0021 16.31 23.96C16.8544 23.8899 17.3517 23.6153 17.7009 23.1918C18.0501 22.7683 18.225 22.2277 18.19 21.68C18.209 21.2936 18.1036 20.9113 17.8895 20.5892C17.6753 20.2671 17.3636 20.022 17 19.89C17.5843 19.4921 18.0092 18.9006 18.2 18.22C18.4809 16.8099 18.6348 15.3775 18.66 13.94C18.8756 11.407 19.4653 8.92002 20.41 6.55997C21.0681 5.0284 22.1464 3.71442 23.52 2.76997C23.5562 2.75534 23.5889 2.733 23.6157 2.70452C23.6424 2.67603 23.6627 2.64208 23.6751 2.60499C23.6874 2.56791 23.6916 2.52858 23.6873 2.48973C23.6829 2.45088 23.6702 2.41343 23.65 2.37997ZM6.14 22.92C5.93605 22.9451 5.72909 22.927 5.53264 22.8667C5.33619 22.8064 5.15469 22.7053 5 22.57C4.86461 22.4335 4.76889 22.2627 4.72309 22.076C4.67729 21.8893 4.68314 21.6936 4.74 21.51C4.81954 21.1824 4.98527 20.882 5.22 20.64C5.39479 20.4514 5.62681 20.3257 5.8802 20.2822C6.1336 20.2388 6.39426 20.28 6.62189 20.3995C6.84953 20.519 7.03146 20.7101 7.13957 20.9434C7.24768 21.1767 7.27595 21.439 7.22 21.69C7.23152 21.9942 7.12597 22.2913 6.92507 22.5202C6.72417 22.749 6.4432 22.892 6.14 22.92ZM17.22 21.69C17.2335 21.982 17.1391 22.2689 16.9546 22.4957C16.7702 22.7226 16.5087 22.8736 16.22 22.92C16.0176 22.9443 15.8124 22.9258 15.6177 22.8654C15.423 22.8051 15.2432 22.7045 15.09 22.57C14.9546 22.4335 14.8589 22.2627 14.8131 22.076C14.7673 21.8893 14.7731 21.6936 14.83 21.51C14.9057 21.1809 15.072 20.8795 15.31 20.64C15.4907 20.4891 15.7128 20.3962 15.9471 20.3735C16.1815 20.3508 16.4172 20.3993 16.6235 20.5128C16.8299 20.6262 16.9972 20.7992 17.1036 21.0092C17.21 21.2193 17.2506 21.4565 17.22 21.69ZM17.64 13.78C17.54 14.44 17.56 15.41 17.48 16.37C14.99 16.28 13.21 16.1 10.72 16.19H7.3C6.61751 16.1613 5.94326 16.0298 5.3 15.8C5.12104 15.598 4.96041 15.3804 4.82 15.15C3.7279 13.4194 2.95878 11.5051 2.55 9.49997C2.55 9.14997 2.55 8.85997 2.73 8.74997C3.24173 8.56994 3.77786 8.46878 4.32 8.44997C7.53 8.12997 9.13 8.12997 18.89 8.26997C18.3285 10.0708 17.9106 11.9132 17.64 13.78Z" fill="black"/>
</g>
<defs>
<clipPath id="clip0_1050_8515">
<rect width="24" height="24" fill="white"/>
</clipPath>
</defs>
</svg>
