<svg width="24" height="24" viewBox="0 0 24 24" fill="none" xmlns="http://www.w3.org/2000/svg">
<g clip-path="url(#clip0_1047_6431)">
<path fill-rule="evenodd" clip-rule="evenodd" d="M23.88 19.1201C21.96 17.4801 20.05 15.78 18.13 14.12C17.5 13.55 16.86 13 16.22 12.45C15.58 11.9 14.93 11.36 14.3 10.79C13.51 10.09 12.73 9.37005 11.98 8.63005C11.9538 8.60188 11.9221 8.57942 11.8868 8.56406C11.8515 8.5487 11.8135 8.54077 11.775 8.54077C11.7365 8.54077 11.6985 8.5487 11.6632 8.56406C11.6279 8.57942 11.5962 8.60188 11.57 8.63005C11.5157 8.68443 11.4851 8.75817 11.4851 8.83505C11.4851 8.91193 11.5157 8.98567 11.57 9.04005C12.78 10.45 14.05 11.84 15.4 13.14C15.98 13.7 16.57 14.24 17.18 14.76C17.79 15.28 18.4 15.7601 19.03 16.2901C20.49 17.4601 22.03 18.5701 23.48 19.68C23.5141 19.7076 23.5534 19.7282 23.5955 19.7406C23.6376 19.753 23.6817 19.757 23.7254 19.7524C23.769 19.7477 23.8113 19.7346 23.8498 19.7136C23.8884 19.6926 23.9224 19.6642 23.95 19.63C23.9776 19.5959 23.9982 19.5567 24.0106 19.5146C24.023 19.4725 24.027 19.4283 24.0223 19.3847C24.0177 19.3411 24.0045 19.2987 23.9835 19.2602C23.9625 19.2217 23.9341 19.1876 23.9 19.16L23.88 19.1201Z" fill="black"/>
<path fill-rule="evenodd" clip-rule="evenodd" d="M7.46 3.47003L8.1 3.66003C8.16 4.12003 8.25 4.57003 8.32 5.03003C8.32516 5.11845 8.36463 5.20136 8.43 5.26112C8.49536 5.32089 8.58147 5.35278 8.67 5.35003C8.75931 5.34492 8.84328 5.3058 8.90465 5.24071C8.96603 5.17561 9.00014 5.08949 9 5.00003C9 4.59003 9.07 4.18003 9.1 3.77003H9.36C9.7 3.77003 10.02 3.65003 10.36 3.60003C10.4033 3.60136 10.4465 3.59414 10.4871 3.57878C10.5276 3.56341 10.5647 3.54021 10.5963 3.51049C10.6279 3.48077 10.6533 3.44512 10.6711 3.40558C10.6889 3.36603 10.6987 3.32337 10.7 3.28003C10.7027 3.23587 10.6965 3.19162 10.6817 3.14991C10.667 3.10819 10.644 3.06987 10.6142 3.03722C10.5843 3.00457 10.5482 2.97825 10.508 2.95984C10.4677 2.94143 10.4242 2.93129 10.38 2.93003C10.04 2.85003 9.72 2.77003 9.38 2.72003H9.15V2.13003C9.09 1.60003 8.98 1.13003 8.9 0.570029C8.9 0.493116 8.86944 0.419354 8.81506 0.364968C8.76067 0.310583 8.68691 0.280029 8.61 0.280029C8.53308 0.280029 8.45932 0.310583 8.40494 0.364968C8.35055 0.419354 8.32 0.493116 8.32 0.570029C8.23 1.10003 8.13 1.57003 8.08 2.15003V2.81003L7.57 2.91003C7.5319 2.90731 7.49363 2.91215 7.4574 2.92426C7.42118 2.93637 7.3877 2.95552 7.35889 2.98061C7.33009 3.0057 7.30652 3.03623 7.28955 3.07045C7.27258 3.10468 7.26254 3.14191 7.26 3.18003C7.25996 3.24295 7.27908 3.3044 7.3148 3.3562C7.35053 3.408 7.40117 3.4477 7.46 3.47003Z" fill="black"/>
<path fill-rule="evenodd" clip-rule="evenodd" d="M15.28 8.30006L16.06 8.42006L16.24 9.24006C16.2537 9.31898 16.2948 9.39054 16.3561 9.44211C16.4174 9.49369 16.4949 9.52197 16.575 9.52197C16.6551 9.52197 16.7326 9.49369 16.7939 9.44211C16.8552 9.39054 16.8963 9.31898 16.91 9.24006C16.91 8.97006 16.98 8.71006 17.01 8.44006H17.09C17.42 8.38006 17.73 8.28006 18.09 8.21006C18.1333 8.20877 18.176 8.19894 18.2155 8.18115C18.2551 8.16336 18.2907 8.13795 18.3205 8.10638C18.3502 8.0748 18.3734 8.03768 18.3887 7.99713C18.4041 7.95658 18.4113 7.9134 18.41 7.87006C18.4178 7.81566 18.4122 7.76018 18.3938 7.70839C18.3755 7.6566 18.3448 7.61003 18.3045 7.57268C18.2642 7.53532 18.2155 7.50829 18.1624 7.4939C18.1094 7.47951 18.0537 7.4782 18 7.49006C17.66 7.49006 17.34 7.37006 17 7.34006C16.66 7.31006 17 7.23006 17 7.17006C16.93 6.79006 16.81 6.46006 16.71 6.09006C16.6973 6.02113 16.6608 5.95883 16.6069 5.91399C16.553 5.86916 16.4851 5.8446 16.415 5.8446C16.3449 5.8446 16.277 5.86916 16.2231 5.91399C16.1692 5.95883 16.1327 6.02113 16.12 6.09006C16.06 6.46006 15.97 6.81006 15.93 7.19006C15.925 7.26998 15.925 7.35014 15.93 7.43006C15.69 7.50006 15.45 7.59006 15.2 7.68006C15.1351 7.70245 15.0798 7.74644 15.0434 7.80468C15.007 7.86292 14.9917 7.93189 15 8.00006C14.9987 8.03815 15.0048 8.07613 15.0182 8.11183C15.0316 8.14752 15.0518 8.18024 15.0778 8.2081C15.1038 8.23596 15.1351 8.25842 15.1698 8.2742C15.2044 8.28998 15.2419 8.29877 15.28 8.30006Z" fill="black"/>
<path fill-rule="evenodd" clip-rule="evenodd" d="M5.83 17.0001C4.83 16.5001 4.03 16.0001 3.07 15.4601C2.73 15.2301 2.51 15.6501 2.69 16.1101C3.49747 16.7528 4.34228 17.3472 5.22 17.8901C5.67271 18.1623 6.14009 18.4093 6.62 18.6301C7.10265 18.8521 7.60059 19.0392 8.11 19.1901C9.10602 19.4896 10.1399 19.6445 11.18 19.6501C11.59 19.6501 11.73 19.0701 11.37 18.9401C10.2088 18.7831 9.0748 18.4668 8 18.0001C7.26 17.6601 6.54 17.3201 5.83 17.0001Z" fill="black"/>
<path fill-rule="evenodd" clip-rule="evenodd" d="M14.91 16.63C14.8693 16.5513 14.7995 16.4916 14.7155 16.4636C14.6314 16.4356 14.5398 16.4415 14.46 16.48C14.0584 16.6332 13.6221 16.6713 13.2 16.59C12.4905 16.4554 11.7945 16.258 11.12 16C9.43608 15.4289 7.81445 14.6885 6.28 13.79C4.74501 12.942 3.35987 11.8474 2.18 10.55C2.02 10.38 1.86 10.19 1.71 10C1.57705 9.81504 1.45678 9.62126 1.35 9.42003C1.26062 9.26439 1.18693 9.10025 1.13 8.93003C1.07117 8.75753 1.02767 8.58018 1 8.40003C0.909999 7.66003 1.13 7.23003 1.55 7.01003C2.52018 6.7041 3.55147 6.64566 4.55 6.84003C4.84 6.84003 5.13 6.92003 5.41 6.97003C5.85 7.06003 6.27 7.17003 6.71 7.29003C6.74898 7.30751 6.79125 7.31646 6.83397 7.31628C6.87669 7.3161 6.91888 7.30681 6.95772 7.28901C6.99656 7.27121 7.03114 7.24532 7.05917 7.21307C7.08719 7.18083 7.108 7.14297 7.12021 7.10203C7.13242 7.06109 7.13575 7.01801 7.12997 6.97568C7.12419 6.93335 7.10943 6.89275 7.08669 6.85658C7.06394 6.82042 7.03374 6.78953 6.9981 6.76598C6.96245 6.74243 6.92219 6.72676 6.88 6.72003C6.43 6.58003 6 6.45003 5.56 6.34003C5.2567 6.26136 4.94965 6.19794 4.64 6.15003C3.50054 5.87358 2.30919 5.89424 1.18 6.21003C0.747052 6.39122 0.391615 6.7189 0.175893 7.13571C-0.039828 7.55253 -0.102092 8.03194 -5.02914e-07 8.49003C0.0204802 8.73288 0.0606116 8.97367 0.119999 9.21003C0.185816 9.44413 0.272843 9.67174 0.379999 9.89003C0.479999 10.1 0.6 10.29 0.72 10.49C0.84 10.69 1.12 11.02 1.33 11.27C1.81663 11.8009 2.34136 12.2956 2.9 12.75C2.74 13.28 2.57 13.75 2.36 14.3C2.10835 14.9017 1.81773 15.4862 1.49 16.05C1.12121 16.5009 0.786925 16.9789 0.49 17.48C0.361478 17.7973 0.333551 18.1464 0.409999 18.48C0.743176 19.728 1.541 20.8013 2.64 21.48C4.18307 22.3896 5.86568 23.0384 7.62 23.4C8.39573 23.5985 9.19 23.7158 9.99 23.75C10.4306 23.7733 10.8666 23.6503 11.23 23.4C11.5148 23.1289 11.7161 22.7819 11.81 22.4C11.9129 21.9396 11.9765 21.4712 12 21C12.0576 20.4082 12.1511 19.8205 12.28 19.24C12.4134 18.6616 12.5974 18.0961 12.83 17.55C12.8597 17.4659 12.8597 17.3741 12.83 17.29C12.9197 17.2997 13.0103 17.2997 13.1 17.29C13.6564 17.3781 14.2265 17.3016 14.74 17.07C14.8197 17.0329 14.882 16.9664 14.9137 16.8843C14.9454 16.8023 14.9441 16.7111 14.91 16.63ZM12.23 17.25C11.822 18.4348 11.488 19.6438 11.23 20.87C11.1838 21.2983 11.107 21.7227 11 22.14C10.9332 22.3507 10.8125 22.5403 10.65 22.69C10.48 22.83 10.13 22.78 9.75 22.69C9.13678 22.6111 8.5313 22.4807 7.94 22.3C6.31987 21.9309 4.76539 21.3172 3.33 20.48C2.43028 19.9719 1.75005 19.1492 1.42 18.17C1.36976 17.9704 1.39842 17.7591 1.5 17.58C1.7 17.16 2.05 16.78 2.25 16.38C2.34 16.2 2.96 14.75 3.05 14.49C3.21 14.04 3.33 13.58 3.45 13.12C4.17819 13.7006 4.94681 14.2286 5.75 14.7C7.37916 15.5755 9.09945 16.2697 10.88 16.77C11.29 16.89 11.79 17.05 12.31 17.16C12.2782 17.185 12.2511 17.2155 12.23 17.25Z" fill="black"/>
<path fill-rule="evenodd" clip-rule="evenodd" d="M7.52 9.39003C7.59691 9.39003 7.67067 9.35948 7.72506 9.30509C7.77944 9.2507 7.81 9.17694 7.81 9.10003C7.81 9.02312 7.77944 8.94935 7.72506 8.89497C7.67067 8.84058 7.59691 8.81003 7.52 8.81003C6.93663 8.68491 6.33336 8.68491 5.75 8.81003C5.29 9.00003 5 9.40003 5.3 10.26C5.34295 10.3908 5.39645 10.5179 5.46 10.64C5.53099 10.7658 5.61121 10.8861 5.7 11C5.80921 11.1458 5.92957 11.2829 6.06 11.41C6.1911 11.5309 6.33154 11.6412 6.48 11.74C7.22593 12.2313 8.02839 12.6309 8.87 12.93C10.1162 13.3408 11.404 13.6125 12.71 13.74C12.7534 13.7471 12.7978 13.7455 12.8405 13.7351C12.8833 13.7248 12.9235 13.7061 12.9589 13.68C12.9943 13.6539 13.0242 13.621 13.0467 13.5833C13.0692 13.5455 13.0839 13.5036 13.09 13.46C13.1045 13.3738 13.0842 13.2854 13.0336 13.2142C12.983 13.143 12.9061 13.0947 12.82 13.08C11.7976 12.8603 10.7945 12.5594 9.82 12.18C9.34 11.99 8.82 11.78 8.42 11.55C7.95996 11.3422 7.51548 11.1016 7.09 10.83L6.48 10.34L6.16 9.90003C6.08 9.75003 5.99 9.66003 6.05 9.59003C6.11068 9.52308 6.19134 9.47749 6.28 9.46003C6.68914 9.38799 7.10535 9.3645 7.52 9.39003Z" fill="black"/>
</g>
<defs>
<clipPath id="clip0_1047_6431">
<rect width="24" height="24" fill="white"/>
</clipPath>
</defs>
</svg>
