<svg width="24" height="24" viewBox="0 0 24 24" fill="none" xmlns="http://www.w3.org/2000/svg">
<g clip-path="url(#clip0_1046_5871)">
<path fill-rule="evenodd" clip-rule="evenodd" d="M6.60001 11.69C5.87001 11.55 4.05001 11.32 3.86001 11.3L1.86001 11.09C1.57413 11.06 1.28589 11.06 1.00001 11.09C0.805352 11.114 0.619757 11.1862 0.460007 11.3C0.271959 11.4435 0.140862 11.649 0.0900072 11.88C0.0289779 12.3279 0.0289779 12.7821 0.0900072 13.23L0.520007 18C0.530181 18.1247 0.587632 18.2407 0.68059 18.3244C0.773549 18.408 0.894979 18.453 1.02001 18.45L6.74001 18.31C6.82457 18.3081 6.9056 18.2757 6.9681 18.2187C7.03061 18.1617 7.07036 18.084 7.08001 18C7.08564 17.9636 7.08564 17.9265 7.08001 17.89C7.05537 17.417 7.05537 16.943 7.08001 16.47C7.08001 15.82 7.17001 15.23 7.26001 14.34C7.26001 14 7.37001 13.18 7.37001 12.67C7.38904 12.4346 7.34047 12.1987 7.23001 11.99C7.05615 11.8272 6.83601 11.7223 6.60001 11.69ZM6.36001 16.42C6.36001 16.78 6.36001 17.17 6.43001 17.64L1.43001 17.52L1.17001 13.14C1.161 12.8421 1.1811 12.544 1.23001 12.25H1.71001L3.71001 12.42C3.89001 12.42 5.61001 12.55 6.35001 12.64V14.23C6.38001 15.15 6.35001 15.75 6.36001 16.42Z" fill="black"/>
<path fill-rule="evenodd" clip-rule="evenodd" d="M15.63 7.24999C15.6428 6.94857 15.6021 6.64727 15.51 6.35999C15.3828 6.18864 15.2041 6.06249 15 5.99999C14.2273 5.84761 13.4457 5.74407 12.66 5.68999C12.38 5.68999 10.18 5.48999 9.29001 5.46999C9.14368 5.45605 8.99635 5.45605 8.85001 5.46999C8.77428 5.4772 8.70076 5.49949 8.63378 5.53556C8.5668 5.57162 8.50772 5.62073 8.46001 5.67999C8.34047 5.88248 8.28147 6.115 8.29001 6.34999C8.29001 7.01999 8.29001 8.57999 8.37001 9.20999C8.48001 10.97 8.61001 12.75 8.68001 14.53C8.68001 15.71 8.75001 16.89 8.68001 18.06C8.67876 18.1209 8.68961 18.1814 8.71193 18.238C8.73424 18.2947 8.76758 18.3463 8.81001 18.39C8.85059 18.4344 8.90004 18.4698 8.95516 18.4939C9.01028 18.5181 9.06985 18.5303 9.13001 18.53C10.24 18.53 11.57 18.53 12.89 18.45C13.75 18.45 14.6 18.37 15.4 18.3C15.476 18.2897 15.5465 18.2548 15.6006 18.2006C15.6548 18.1464 15.6898 18.0759 15.7 18C15.7206 17.9418 15.7206 17.8782 15.7 17.82L15.46 9.81999C15.49 9.30999 15.62 7.99999 15.63 7.24999ZM12.85 17.69H9.58001C9.64001 16.69 9.66001 15.6 9.65001 14.55C9.65001 12.76 9.54001 10.96 9.47001 9.18999C9.47001 8.64999 9.40001 7.39999 9.40001 6.66999C10.4 6.66999 12.33 6.84999 12.59 6.84999C13.2596 6.87711 13.9273 6.94054 14.59 7.03999V9.85999L15.13 17.63C14.39 17.67 13.62 17.68 12.85 17.69Z" fill="black"/>
<path fill-rule="evenodd" clip-rule="evenodd" d="M23.67 17.59C23.06 17.49 22.43 17.39 21.77 17.34H20.95C20.68 17.34 20.4 17.34 20.13 17.4C19.4999 17.4994 18.8757 17.6329 18.26 17.8C18.2197 17.8024 18.1802 17.8131 18.1441 17.8312C18.108 17.8493 18.0759 17.8745 18.0497 17.9053C18.0236 17.9361 18.0039 17.9719 17.9919 18.0105C17.9799 18.0491 17.9759 18.0898 17.98 18.13C17.9901 18.2113 18.0309 18.2857 18.0942 18.3378C18.1574 18.3899 18.2383 18.4157 18.32 18.41C18.94 18.41 19.55 18.5 20.2 18.52H21H21.79C22.43 18.47 23.04 18.39 23.64 18.36C23.6877 18.3613 23.7351 18.353 23.7794 18.3354C23.8237 18.3178 23.8639 18.2913 23.8977 18.2576C23.9314 18.2239 23.9578 18.1837 23.9754 18.1394C23.993 18.095 24.0014 18.0476 24 18C24.0104 17.9507 24.0097 17.8997 23.9979 17.8507C23.9862 17.8018 23.9637 17.756 23.9322 17.7168C23.9006 17.6775 23.8607 17.6458 23.8154 17.6239C23.77 17.602 23.7204 17.5904 23.67 17.59Z" fill="black"/>
</g>
<defs>
<clipPath id="clip0_1046_5871">
<rect width="24" height="24" fill="white"/>
</clipPath>
</defs>
</svg>
