<svg width="24" height="24" viewBox="0 0 24 24" fill="none" xmlns="http://www.w3.org/2000/svg">
<g clip-path="url(#clip0_1046_5893)">
<path d="M20.52 19.31C19.9017 18.9794 19.2197 18.7851 18.52 18.74C18.2692 18.7045 18.0239 18.6373 17.79 18.54C17.7142 18.5146 17.6455 18.4714 17.5898 18.414C17.5341 18.3566 17.4931 18.2866 17.47 18.21C17.31 17.63 17.71 17.32 18.22 17.21C18.8653 17.0888 19.5312 17.1406 20.15 17.36C20.2164 17.3911 20.2924 17.3949 20.3616 17.3706C20.4307 17.3463 20.4876 17.2958 20.52 17.23C20.5366 17.196 20.5462 17.159 20.5482 17.1212C20.5501 17.0834 20.5444 17.0456 20.5313 17.0101C20.5182 16.9746 20.498 16.9421 20.472 16.9146C20.446 16.8871 20.4147 16.8651 20.38 16.85C20.0485 16.6882 19.6945 16.5769 19.33 16.52C19.3605 16.4722 19.3873 16.422 19.41 16.37C19.4459 16.2796 19.4727 16.1858 19.49 16.09C19.495 15.9934 19.495 15.8966 19.49 15.8V15.12C19.5004 15.0787 19.5024 15.0356 19.4959 14.9934C19.4894 14.9513 19.4745 14.9108 19.4521 14.8745C19.4298 14.8382 19.4004 14.8067 19.3657 14.7818C19.3309 14.757 19.2916 14.7394 19.25 14.73C19.2093 14.7195 19.1669 14.7171 19.1253 14.723C19.0836 14.7288 19.0436 14.7429 19.0073 14.7642C18.9711 14.7856 18.9395 14.8139 18.9142 14.8475C18.8889 14.8811 18.8705 14.9193 18.86 14.96C18.7362 15.166 18.626 15.3798 18.53 15.6C18.4909 15.6937 18.4608 15.7908 18.44 15.89C18.4306 15.9865 18.4306 16.0836 18.44 16.18C18.4345 16.27 18.4345 16.3601 18.44 16.45C18.1583 16.4509 17.8784 16.4948 17.61 16.58C17.4182 16.6311 17.2383 16.7195 17.0807 16.8402C16.9231 16.9608 16.7908 17.1114 16.6914 17.2832C16.592 17.455 16.5275 17.6447 16.5015 17.8415C16.4756 18.0383 16.4886 18.2383 16.54 18.43C16.5868 18.6459 16.6823 18.8482 16.8193 19.0215C16.9562 19.1948 17.1309 19.3345 17.33 19.43C17.9389 19.6765 18.5778 19.8413 19.23 19.92C19.64 20.01 20.05 20.07 20.07 20.51C20.09 20.95 19.64 21.26 19.07 21.39C18.4601 21.5458 17.8185 21.525 17.22 21.33C17.0514 21.2612 16.8984 21.1592 16.77 21.03C16.6292 20.8746 16.5021 20.7073 16.39 20.53C16.3429 20.4579 16.2694 20.4071 16.1854 20.3884C16.1013 20.3698 16.0132 20.3847 15.94 20.43C15.9036 20.4515 15.8719 20.4801 15.847 20.5143C15.8221 20.5484 15.8044 20.5872 15.795 20.6285C15.7857 20.6697 15.7848 20.7123 15.7926 20.7539C15.8003 20.7954 15.8164 20.835 15.84 20.87C15.9879 21.1361 16.1658 21.3843 16.37 21.61C16.5564 21.7747 16.7695 21.9066 17 22C17.1958 22.0929 17.4001 22.1665 17.61 22.22V22.31C17.5774 22.4016 17.5507 22.4951 17.53 22.59C17.525 22.6833 17.525 22.7768 17.53 22.87V23.56C17.5195 23.6007 17.5171 23.6431 17.5229 23.6848C17.5288 23.7264 17.5428 23.7665 17.5642 23.8027C17.5855 23.8389 17.6138 23.8706 17.6474 23.8959C17.681 23.9211 17.7193 23.9396 17.76 23.95C17.8014 23.9604 17.8444 23.9624 17.8866 23.9559C17.9288 23.9494 17.9692 23.9345 18.0055 23.9122C18.0419 23.8898 18.0734 23.8604 18.0982 23.8257C18.123 23.791 18.1406 23.7517 18.15 23.71C18.2772 23.5044 18.3908 23.2906 18.49 23.07C18.5226 22.9785 18.5493 22.885 18.57 22.79C18.5798 22.6903 18.5798 22.5898 18.57 22.49C18.5748 22.4335 18.5748 22.3766 18.57 22.32C18.9961 22.3397 19.4224 22.2856 19.83 22.16C20.2161 22.075 20.5612 21.8595 20.8071 21.5499C21.053 21.2403 21.1847 20.8554 21.18 20.46C21.1727 20.2289 21.1087 20.0032 20.9936 19.8026C20.8785 19.6021 20.7159 19.4329 20.52 19.31Z" fill="black"/>
<path d="M14.29 20.77C14.29 20.77 10.82 20.93 7.83 20.87C6.70463 20.8689 5.58111 20.7786 4.47 20.6C4.2989 20.5617 4.13156 20.5082 3.97 20.44C3.20679 18.8174 2.82048 17.0431 2.84 15.25C2.69 12.14 3 8.77003 3.07 6.87003C3.04319 5.83933 3.0699 4.80795 3.15 3.78003C3.2099 3.16703 3.42312 2.57897 3.77 2.07003C4.03622 1.69351 4.41401 1.41017 4.85 1.26003H4.94C4.91704 1.671 4.93715 2.08324 5 2.49003C5.06006 2.789 5.18276 3.07187 5.36 3.32003C5.48813 3.47272 5.65345 3.58982 5.84 3.66003C6.14434 3.76358 6.45987 3.83072 6.78 3.86003C7.72 3.98003 12.19 3.64003 12.25 3.63003C12.6229 3.57076 12.9705 3.40394 13.25 3.15003C13.4469 2.91502 13.5872 2.63788 13.66 2.34003C13.7678 1.89926 13.8446 1.4515 13.89 1.00003C14.4679 1.02167 15.0343 1.16838 15.55 1.43003C15.8117 1.70091 15.9708 2.05452 16 2.43003C16.0888 3.11047 16.0888 3.79958 16 4.48003C15.9943 4.56441 16.0212 4.64778 16.0751 4.71291C16.1291 4.77804 16.206 4.81997 16.29 4.83003C16.3755 4.83597 16.4601 4.80939 16.5269 4.75562C16.5936 4.70185 16.6376 4.62484 16.65 4.54003C16.753 3.67385 16.7226 2.79701 16.56 1.94003C16.5104 1.5068 16.3126 1.10405 16 0.800025C15.1625 0.373545 14.2396 0.14113 13.3 0.120025C11.2 -0.0699745 8.52 2.54726e-05 7.15 2.54726e-05C6.26486 -0.0259947 5.38104 0.0853266 4.53 0.330025C3.92058 0.544057 3.38819 0.933777 3 1.45003C2.53865 2.09315 2.24949 2.84361 2.16 3.63003C2.04894 4.69637 1.99553 5.76793 2 6.84003C1.79142 9.65823 1.728 12.4853 1.81 15.31C1.84566 17.2668 2.33881 19.188 3.25 20.92C3.39151 21.1271 3.60566 21.2734 3.85 21.33C4.44258 21.4768 5.04964 21.5573 5.66 21.57C8.8 21.75 14.33 21.34 14.33 21.34C14.3673 21.3389 14.4039 21.33 14.4376 21.314C14.4713 21.298 14.5013 21.2752 14.5257 21.247C14.5502 21.2188 14.5685 21.1859 14.5795 21.1502C14.5906 21.1146 14.5942 21.0771 14.59 21.04C14.5902 21.0019 14.5824 20.9641 14.567 20.9293C14.5516 20.8944 14.529 20.8632 14.5006 20.8377C14.4723 20.8122 14.4389 20.7929 14.4026 20.7813C14.3663 20.7696 14.3279 20.7658 14.29 20.77ZM7.17 1.00003C8.53 1.00003 11.17 0.790025 13.17 0.930025C13.11 1.24003 13.06 1.61003 12.97 1.93003C12.928 2.16006 12.8243 2.37437 12.67 2.55003C12.4241 2.69906 12.1357 2.76236 11.85 2.73003C6.6 2.84003 7.75 2.95003 6.85 2.91003H6.3C6.18807 2.90232 6.08217 2.85643 6 2.78003C5.82862 2.58349 5.71143 2.34567 5.66 2.09003C5.58876 1.75981 5.53535 1.42599 5.5 1.09003C6.05403 1.02278 6.61195 0.992711 7.17 1.00003Z" fill="black"/>
<path d="M11.26 13.84C11.3658 13.7931 11.4585 13.721 11.53 13.63C11.7568 13.3446 11.8864 12.9943 11.9 12.63C11.8965 12.0138 11.8463 11.3987 11.75 10.79C11.75 10.36 11.69 9.92001 11.65 9.48001C11.6263 9.17088 11.5829 8.86359 11.52 8.56001C11.4882 8.33859 11.4346 8.12086 11.36 7.91001C11.3286 7.80351 11.27 7.70701 11.19 7.63001C10.9765 7.43366 10.7076 7.30794 10.42 7.27001C10.2537 7.25493 10.0863 7.25493 9.92 7.27001C9.96154 7.0588 9.98828 6.84494 10 6.63001V6.28001C10.0097 6.16354 10.0097 6.04647 10 5.93001C9.94 5.65001 9.83 5.42001 9.75 5.14001C9.7375 5.07356 9.70218 5.01357 9.65014 4.97041C9.5981 4.92725 9.53261 4.90363 9.465 4.90363C9.39739 4.90363 9.3319 4.92725 9.27986 4.97041C9.22782 5.01357 9.1925 5.07356 9.18 5.14001C9.10052 5.42225 9.04038 5.70958 9 6.00001C8.98505 6.11954 8.98505 6.24047 9 6.36001V6.71001C9 6.83001 9.13 7.16001 9.2 7.39001L8.12 7.65001C8.04522 7.67081 7.98017 7.7173 7.93628 7.78131C7.89238 7.84532 7.87246 7.92276 7.88 8.00001C7.88507 8.03983 7.89835 8.07818 7.91901 8.1126C7.93966 8.14703 7.96724 8.17679 8 8.20001C8 8.53334 7.98 8.86667 7.94 9.20001C7.94 9.71001 7.94 10.2 7.99 10.72C8.04 11.24 7.94 11.95 7.94 12.57C7.93756 12.8696 7.97114 13.1684 8.04 13.46C8.07603 13.6174 8.16854 13.7562 8.3 13.85C8.53137 13.991 8.79075 14.0797 9.06 14.11C9.19983 14.1198 9.34017 14.1198 9.48 14.11C9.44746 14.2117 9.42075 14.3152 9.4 14.42C9.4 14.53 9.4 14.64 9.35 14.76C9.3 14.88 9.35 14.99 9.35 15.11C9.35 15.4 9.48 15.64 9.53 15.93C9.52586 15.9663 9.52912 16.003 9.53958 16.038C9.55003 16.0729 9.56747 16.1054 9.59084 16.1335C9.61421 16.1615 9.64302 16.1845 9.67553 16.2011C9.70804 16.2177 9.74358 16.2275 9.78 16.23C9.81681 16.2342 9.85407 16.231 9.88964 16.2206C9.92521 16.2103 9.95837 16.193 9.9872 16.1697C10.016 16.1465 10.04 16.1177 10.0576 16.0852C10.0753 16.0526 10.0863 16.0169 10.09 15.98C10.2074 15.7145 10.3044 15.4403 10.38 15.16C10.3953 15.0438 10.3953 14.9262 10.38 14.81C10.3899 14.6902 10.3899 14.5698 10.38 14.45C10.3664 14.3086 10.343 14.1682 10.31 14.03L10.7 13.96C10.8903 13.9395 11.078 13.8992 11.26 13.84ZM9.67 13.05C9.5 13.05 8.92 13.2 8.9 13.05C8.84 12.43 8.83 11.28 8.75 10.68C8.67 10.08 8.61 9.68001 8.58 9.21001C8.5583 8.87703 8.5583 8.54299 8.58 8.21001L9.52 8.05001C9.74263 8.02499 9.96737 8.02499 10.19 8.05001C10.3367 8.06062 10.4765 8.11653 10.59 8.21001C10.6362 8.38997 10.663 8.57435 10.67 8.76001V9.36001V10.87C10.67 11.38 10.79 11.87 10.78 12.36C10.78 12.58 10.78 12.94 10.68 12.94C10.58 12.94 10 13 9.67 13.05Z" fill="black"/>
<path d="M22.1 7.81003C22.1 7.34003 22.05 6.81003 22 6.37003C21.977 6.03436 21.9336 5.70041 21.87 5.37003C21.8322 5.13095 21.7821 4.89397 21.72 4.66003C21.6815 4.5559 21.6275 4.45815 21.56 4.37003C21.3522 4.15851 21.0826 4.01845 20.79 3.97003C20.6176 3.94486 20.4424 3.94486 20.27 3.97003C20.3246 3.72931 20.3646 3.48554 20.39 3.24003C20.405 3.11046 20.405 2.9796 20.39 2.85003C20.39 2.72003 20.39 2.60003 20.34 2.47003C20.28 2.16003 20.17 1.90003 20.09 1.60003C20.0979 1.55814 20.0964 1.51502 20.0858 1.47376C20.0751 1.43249 20.0554 1.39408 20.0282 1.36127C20.001 1.32846 19.9669 1.30206 19.9283 1.28393C19.8897 1.26581 19.8476 1.25641 19.805 1.25641C19.7624 1.25641 19.7203 1.26581 19.6817 1.28393C19.6431 1.30206 19.609 1.32846 19.5818 1.36127C19.5546 1.39408 19.5349 1.43249 19.5242 1.47376C19.5136 1.51502 19.5121 1.55814 19.52 1.60003C19.4242 1.90023 19.3539 2.20799 19.31 2.52003C19.2899 2.64925 19.2899 2.7808 19.31 2.91003C19.3118 3.03821 19.3286 3.16573 19.36 3.29003C19.42 3.56003 19.5 3.82003 19.56 4.09003L18.46 4.37003C18.3781 4.38911 18.307 4.43969 18.2621 4.5108C18.2171 4.58192 18.202 4.66786 18.22 4.75003C18.2318 4.82207 18.2713 4.88666 18.33 4.93003C18.33 5.30003 18.28 5.68003 18.27 6.05003C18.27 6.61003 18.27 7.16003 18.32 7.72003C18.37 8.28003 18.26 9.08003 18.26 9.72003C18.262 10.0553 18.2921 10.3898 18.35 10.72C18.3748 10.8227 18.4204 10.9192 18.484 11.0035C18.5477 11.0878 18.628 11.1581 18.72 11.21C18.9282 11.3108 19.1509 11.3783 19.38 11.41H19.81C19.81 11.53 19.75 11.66 19.73 11.79C19.7029 11.9151 19.6862 12.0422 19.68 12.17C19.6652 12.2963 19.6652 12.4238 19.68 12.55C19.68 12.87 19.8 13.14 19.86 13.45C19.8558 13.4868 19.859 13.5241 19.8694 13.5597C19.8797 13.5952 19.897 13.6284 19.9203 13.6572C19.9435 13.6861 19.9723 13.71 20.0048 13.7276C20.0374 13.7453 20.0731 13.7563 20.11 13.76C20.1854 13.7656 20.2599 13.7416 20.3178 13.693C20.3757 13.6445 20.4124 13.5752 20.42 13.5C20.52 13.19 20.65 12.92 20.72 12.6C20.7299 12.4702 20.7299 12.3398 20.72 12.21C20.73 12.0802 20.73 11.9498 20.72 11.82C20.6997 11.6485 20.6697 11.4782 20.63 11.31L21.04 11.23C21.2273 11.2008 21.4115 11.154 21.59 11.09C21.6915 11.0362 21.7801 10.9612 21.85 10.87C22.0703 10.5553 22.1952 10.1839 22.21 9.80003C22.215 9.13505 22.1782 8.47041 22.1 7.81003ZM21.16 10.13H20.85C20.5776 10.2035 20.3002 10.257 20.02 10.29C19.8573 10.3101 19.6927 10.3101 19.53 10.29H19.33C19.2806 10.0728 19.2471 9.85218 19.23 9.63003C19.17 8.95003 19.23 8.23003 19.11 7.57003C18.99 6.91003 19 6.57003 18.93 6.00003C18.91 5.64364 18.91 5.28641 18.93 4.93003L19.87 4.74003C20.0923 4.70984 20.3177 4.70984 20.54 4.74003C20.6898 4.75345 20.8306 4.81685 20.94 4.92003C20.9833 5.12758 21.0101 5.33824 21.02 5.55003C21.02 5.77003 21.02 5.99003 21.08 6.22003V7.89003C21.08 8.44003 21.2 8.89003 21.19 9.52003C21.19 9.75003 21.14 10.09 21.16 10.13Z" fill="black"/>
<path d="M16 14.73C16.01 14.6102 16.01 14.4898 16 14.37C16 14.23 15.95 14.09 15.92 13.96L16.31 13.88C16.4934 13.8627 16.6744 13.8258 16.85 13.77C16.9572 13.7207 17.0527 13.6491 17.13 13.56C17.3719 13.2077 17.4945 12.7871 17.48 12.36C17.4485 11.6091 17.3311 10.8642 17.13 10.14C17.1087 9.91953 17.0651 9.70176 17 9.49002C16.9616 9.38153 16.9002 9.28261 16.82 9.20002C16.5908 8.99766 16.3041 8.87182 16 8.84002C15.837 8.82495 15.673 8.82495 15.51 8.84002C15.5538 8.63854 15.5872 8.43494 15.61 8.23002C15.6249 8.11718 15.6249 8.00287 15.61 7.89002C15.6032 7.77216 15.5864 7.65508 15.56 7.54002C15.5 7.27002 15.39 7.04002 15.31 6.76002C15.3117 6.71975 15.3046 6.6796 15.2894 6.6423C15.2741 6.605 15.251 6.57144 15.2215 6.54391C15.1921 6.51638 15.1571 6.49552 15.1188 6.48277C15.0806 6.47002 15.0401 6.46567 15 6.47002C14.9257 6.47002 14.8545 6.49952 14.802 6.55203C14.7495 6.60454 14.72 6.67576 14.72 6.75002C14.6301 7.02467 14.5599 7.30538 14.51 7.59002C14.4998 7.70646 14.4998 7.82358 14.51 7.94002C14.5003 8.05315 14.5003 8.16689 14.51 8.28002C14.56 8.52002 14.64 8.73002 14.7 8.96002L13.62 9.22002C13.5375 9.2392 13.4656 9.28934 13.4191 9.36007C13.3725 9.4308 13.355 9.5167 13.37 9.60002C13.3845 9.67104 13.4234 9.73473 13.48 9.78002C13.4169 10.4848 13.3935 11.1926 13.41 11.9C13.4189 12.3925 13.4623 12.8837 13.54 13.37C13.5806 13.5227 13.6724 13.6569 13.8 13.75C14.027 13.8908 14.2839 13.9764 14.55 14C14.6865 14.0102 14.8235 14.0102 14.96 14C14.9275 14.1018 14.9008 14.2053 14.88 14.31C14.88 14.43 14.88 14.54 14.83 14.66C14.815 14.7729 14.815 14.8872 14.83 15C14.83 15.29 14.95 15.54 15.01 15.82C15.0042 15.8938 15.0269 15.9671 15.0734 16.0247C15.1199 16.0824 15.1866 16.12 15.26 16.13C15.2976 16.1342 15.3356 16.1306 15.3718 16.1197C15.408 16.1087 15.4416 16.0905 15.4705 16.0662C15.4995 16.0419 15.5232 16.012 15.5403 15.9783C15.5574 15.9446 15.5675 15.9077 15.57 15.87C15.6891 15.6075 15.7893 15.3368 15.87 15.06C15.9227 14.9539 15.9662 14.8435 16 14.73ZM14.48 12.94C14.3691 12.4657 14.289 11.9847 14.24 11.5C14.1735 10.9358 14.1401 10.3682 14.14 9.80002L15.08 9.65002C15.3023 9.61996 15.5277 9.61996 15.75 9.65002C15.8881 9.6639 16.0197 9.71582 16.13 9.80002C16.13 10.05 16.18 10.22 16.2 10.34C16.3013 10.9152 16.3648 11.4965 16.39 12.08V12.8C16.0093 12.8976 15.6214 12.9645 15.23 13C15.08 13 14.56 12.93 14.48 12.94Z" fill="black"/>
</g>
<defs>
<clipPath id="clip0_1046_5893">
<rect width="24" height="24" fill="white"/>
</clipPath>
</defs>
</svg>
