<svg width="24" height="24" viewBox="0 0 24 24" fill="none" xmlns="http://www.w3.org/2000/svg">
<g clip-path="url(#clip0_1035_5140)">
<path fill-rule="evenodd" clip-rule="evenodd" d="M4.39 14C4.33 14.12 4.39 14.41 4.76 14.52C5.13 14.63 6.41 14.77 6.58 14.8C8.7478 15.1171 10.9543 15.0528 13.1 14.61C13.63 14.61 14.39 14.8 14.35 14.28C14.28 13.57 12.61 13.86 12.61 13.77C12.99 11.95 12.74 12.09 12.51 10.47C12.51 10.424 12.5009 10.3785 12.4834 10.3361C12.4658 10.2936 12.44 10.255 12.4075 10.2225C12.375 10.19 12.3364 10.1642 12.2939 10.1466C12.2515 10.1291 12.206 10.12 12.16 10.12C12.114 10.12 12.0685 10.1291 12.0261 10.1466C11.9836 10.1642 11.945 10.19 11.9125 10.2225C11.88 10.255 11.8542 10.2936 11.8366 10.3361C11.8191 10.3785 11.81 10.424 11.81 10.47C11.559 11.5759 11.559 12.7241 11.81 13.83H9.88C9.03 13.83 9.88 13.12 9.65 11.12C9.58 10.4 9.44 9.66 9.44 9.12C9.44788 9.07469 9.44676 9.02828 9.4367 8.98341C9.42664 8.93853 9.40784 8.89608 9.38138 8.85847C9.35491 8.82087 9.3213 8.78884 9.28246 8.76422C9.24361 8.7396 9.2003 8.72288 9.155 8.715C9.10969 8.70712 9.06328 8.70824 9.01841 8.7183C8.97353 8.72836 8.93108 8.74716 8.89347 8.77362C8.85587 8.80009 8.82384 8.8337 8.79922 8.87254C8.7746 8.91138 8.75788 8.95469 8.75 9C8.62823 9.61359 8.55136 10.2352 8.52 10.86C8.34 14.2 9.33 13.76 7.94 13.78L6.38 13.83C6.55 10.72 6.63 12 6.13 8.3C6.13 8.05 6.13 7.67 5.95 7.51C5.89122 7.47352 5.82359 7.45377 5.75441 7.4529C5.68523 7.45203 5.61712 7.47006 5.55744 7.50504C5.49775 7.54003 5.44875 7.59065 5.41572 7.65144C5.38269 7.71223 5.36688 7.78088 5.37 7.85C5.37 7.93 5.27 9.85 5.29 10.67C5.33155 11.739 5.462 12.8027 5.68 13.85C5.52 13.87 4.45 13.8 4.39 14Z" fill="black"/>
<path fill-rule="evenodd" clip-rule="evenodd" d="M23.27 16.1L23.2 14.48V13.94C23.195 13.8537 23.1698 13.7698 23.1264 13.6951C23.0829 13.6204 23.0225 13.557 22.95 13.51C22.6125 13.3592 22.2493 13.2744 21.88 13.26C21.3989 13.2464 20.9175 13.2698 20.44 13.33C19.9862 13.3621 19.5302 13.3453 19.08 13.28H19V9.89H19.54H21.7C21.85 9.89 22.38 9.89 22.7 9.84C22.8006 9.82609 22.8974 9.79243 22.985 9.74094C23.0725 9.68946 23.149 9.62116 23.21 9.54C23.2705 9.42257 23.3014 9.29211 23.3 9.16C23.3 8.98 23.24 8.7 23.24 8.61V7.12C23.24 6.49 23.35 5.82 23.38 5.17C23.4002 4.86367 23.4002 4.55633 23.38 4.25C23.3625 4.09836 23.2998 3.95549 23.2 3.84C23.08 3.69 22.83 3.51 22.78 3.45L21.05 1.83L19.66 0.55C19.5684 0.457863 19.4716 0.371054 19.37 0.29C19.3448 0.247742 19.3099 0.212097 19.2681 0.186013C19.2264 0.159929 19.179 0.144157 19.13 0.14C18.7295 0.071613 18.3256 0.0248785 17.92 0L15.26 0H11.62C10.81 0 10 0.09 9.19 0.16L6.58 0.33H5.79C5.67468 0.342237 5.56271 0.376166 5.46 0.43C5.21577 0.562008 4.99319 0.730628 4.8 0.93C4.4 1.3 4.02 1.78 3.72 2.11C3.42 2.44 2.91 2.93 2.49 3.32C2.07 3.71 1.63 4.08 1.18 4.45C0.729998 4.82 0.849998 4.74 0.829998 5.25C0.789998 6.14 0.759998 7 0.739998 7.94C0.689998 10 0.689998 12.12 0.639998 14.21V17.05V17.99C0.634161 18.1825 0.657767 18.3747 0.709998 18.56C0.799998 18.85 1.48 19.4 1.49 19.41C2.85 20.41 4.15 21.55 5.49 22.57C6.09 23.01 6.7 23.43 7.33 23.82C7.50159 23.9275 7.69778 23.9895 7.9 24C8.19608 24.0265 8.49392 24.0265 8.79 24L10.91 23.9C12.33 23.85 13.76 23.77 15.19 23.66C16.62 23.55 18.04 23.39 19.45 23.18C20.1007 22.8556 20.6634 22.3788 21.09 21.79C21.57 21.25 22 20.63 22.45 20.09C22.6867 19.8593 22.9104 19.6156 23.12 19.36C23.2157 19.2258 23.2805 19.0722 23.31 18.91C23.3572 18.5286 23.374 18.1441 23.36 17.76C23.34 17.16 23.29 16.6 23.27 16.1ZM1.77 18.2V17.04L1.63 14.21C1.63 12.12 1.47 10.03 1.42 7.94V5.27C1.42844 5.22372 1.42844 5.17628 1.42 5.13L2 4.56L3 3.85C3.46 3.48 3.91 3.1 4.35 2.7C4.62 2.44 4.96 2.08 5.35 1.78C5.53385 1.61636 5.73905 1.47844 5.96 1.37H6.75L9.3 1.27C10.3 1.17 11.3 1.11 12.3 1.05L15.3 0.9C16.18 0.9 17.07 0.78 17.96 0.76H18.37L17.97 1.33C17.58 1.84 17.21 2.33 16.86 2.87C16.4927 3.33573 16.1806 3.84244 15.93 4.38C15.7746 5.06953 15.6908 5.77326 15.68 6.48C15.83 7.92 15.99 12.94 16.02 14.39C16.08 18.22 15.77 17.34 16.43 18.47L16.71 18.86C17.37 19.86 18.05 21.19 18.65 21.86L19.13 22.46C18.13 22.55 17.07 22.6 16.03 22.64C14.33 22.7 12.63 22.72 10.93 22.71L8.76 22.81H7.93C7.09 22.35 6.28 21.81 5.48 21.31C5.44 21.39 2.21 18.62 1.77 18.2ZM22.26 18C22.1923 18.5176 21.9569 18.9988 21.59 19.37C21.08 20.01 20.59 20.73 20.06 21.37C19.93 21.51 19.81 21.65 19.68 21.78L19.27 21.34C18.64 20.7 17.88 19.43 17.18 18.53C17.0226 18.3259 16.8523 18.1322 16.67 17.95C16.72 16.8 16.77 15.64 16.79 14.48V8.8V7.04C16.79 6.64 16.73 6.24 16.68 5.84C16.6564 5.5573 16.6129 5.27661 16.55 5C16.5144 4.88644 16.4566 4.78108 16.38 4.69C16.7 4.21 17.04 3.74 17.38 3.3C17.72 2.86 18.16 2.35 18.58 1.89C18.58 1.84 19.08 1.27 19.14 1.41L20.29 2.61L21.87 4.24C21.9933 4.35458 22.0876 4.49689 22.1449 4.65513C22.2023 4.81338 22.2212 4.98301 22.2 5.15C22.2 5.81 22.12 6.5 22.13 7.15L22.23 8.72V8.9C22.23 9.07 21.65 9.07 21.56 9.08L19.46 9.18H18.94V8.82L18.89 6.21L18.82 5.38C18.9033 5.21326 19.0038 5.05572 19.12 4.91C19.3162 4.6707 19.5337 4.44979 19.77 4.25C19.7995 4.22571 19.824 4.19583 19.842 4.16208C19.86 4.12832 19.8712 4.09136 19.8749 4.05328C19.8786 4.01521 19.8748 3.97678 19.8637 3.94019C19.8525 3.90359 19.8343 3.86955 19.81 3.84C19.7857 3.81045 19.7558 3.78598 19.7221 3.76798C19.6883 3.74998 19.6514 3.7388 19.6133 3.73509C19.5752 3.73137 19.5368 3.73519 19.5002 3.74633C19.4636 3.75747 19.4295 3.77571 19.4 3.8C19.1309 4.00859 18.8738 4.23228 18.63 4.47C18.4576 4.64606 18.3096 4.84451 18.19 5.06C18.1201 5.19631 18.0825 5.34684 18.08 5.5V6.19L17.9 8.81V11.7C17.9 12.66 17.99 13.62 18.05 14.59L18.21 16.49C18.21 16.65 18.21 16.89 18.26 17.08C18.2786 17.2004 18.3122 17.318 18.36 17.43L19.71 19.12C19.7356 19.1555 19.7679 19.1855 19.8052 19.2085C19.8424 19.2314 19.8838 19.2468 19.927 19.2538C19.9701 19.2608 20.0143 19.2592 20.0568 19.2491C20.0994 19.239 20.1395 19.2206 20.175 19.195C20.2105 19.1694 20.2405 19.1371 20.2635 19.0998C20.2864 19.0626 20.3018 19.0212 20.3088 18.978C20.3158 18.9349 20.3142 18.8907 20.3041 18.8482C20.294 18.8056 20.2756 18.7655 20.25 18.73L19.09 17.09V16.44V14C19.5608 14.0925 20.0404 14.1327 20.52 14.12C20.9628 14.0902 21.4072 14.0902 21.85 14.12C21.9896 14.1345 22.1271 14.1647 22.26 14.21V14.47V16.13C22.24 16.7 22.28 17.35 22.26 18Z" fill="black"/>
<path fill-rule="evenodd" clip-rule="evenodd" d="M2.9 5.23C5.35 5.32 7.8 5.09 10.25 5.15C11.0158 5.16676 11.7801 5.22351 12.54 5.32C13.03 5.38 13.54 5.44 14.03 5.48H14.67C15.61 5.11 15.75 4.73 14.67 4.37H13.87C13.47 4.37 13.07 4.3 12.68 4.25C11.876 4.16867 11.0681 4.13195 10.26 4.14C7.91 4.14 5.57 4.51 3.26 4.57C2 4.74 2.23 5.33 2.9 5.23Z" fill="black"/>
<path fill-rule="evenodd" clip-rule="evenodd" d="M4.12999 19.55H4.97999C6.91037 19.5991 8.84181 19.5122 10.76 19.29C12.07 19.14 13.37 18.9 14.67 18.62C15.67 18.34 15.67 18.1 14.67 17.89C13.34 18.12 12.01 18.31 10.67 18.41C8.79279 18.5551 6.90719 18.5551 5.02999 18.41H3.88999C2.84999 18.93 3.36999 19.41 4.12999 19.55Z" fill="black"/>
</g>
<defs>
<clipPath id="clip0_1035_5140">
<rect width="24" height="24" fill="white"/>
</clipPath>
</defs>
</svg>
