<svg width="24" height="24" viewBox="0 0 24 24" fill="none" xmlns="http://www.w3.org/2000/svg">
<g clip-path="url(#clip0_1035_5109)">
<path fill-rule="evenodd" clip-rule="evenodd" d="M15.42 12.24C15.2569 12.2266 15.0931 12.2266 14.93 12.24C14.75 11.4 14.93 10.44 14.34 9.92C14.2422 9.82552 14.1172 9.76409 13.9827 9.74435C13.8481 9.72462 13.7108 9.74758 13.59 9.81C13.3791 9.95855 13.2041 10.1524 13.0778 10.3773C12.9515 10.6023 12.877 10.8526 12.86 11.11C12.6907 11.8336 12.4736 12.5452 12.21 13.24C12.06 11.6 11.87 8.82 11.21 8.24C10.55 7.66 10 8.17 9.67 9C9.3 10 9.08999 11.94 8.56999 12C7.76153 12.0704 6.94846 12.0704 6.14 12C6.07106 12.0127 6.00877 12.0492 5.96393 12.1031C5.91909 12.157 5.89454 12.2249 5.89454 12.295C5.89454 12.3651 5.91909 12.433 5.96393 12.4869C6.00877 12.5408 6.07106 12.5773 6.14 12.59C6.86 12.59 8.87999 13.05 9.35999 12.38C9.8582 11.4001 10.2536 10.3713 10.54 9.31C10.65 9.07 10.54 8.13 11.11 13.74C11.17 14.44 11.11 15.57 11.78 15.92C11.8546 15.9569 11.9359 15.9785 12.019 15.9833C12.1021 15.9882 12.1853 15.9763 12.2637 15.9483C12.3421 15.9203 12.414 15.8768 12.4752 15.8204C12.5364 15.764 12.5857 15.6958 12.62 15.62C12.7768 15.2165 12.9038 14.8021 13 14.38C13.23 13.38 13.65 12.38 13.8 11.29L13.87 11.07C13.99 11.84 14.03 13.07 14.72 13.15C15.7274 12.9558 16.7461 12.8255 17.77 12.76C17.8602 12.76 17.9466 12.7242 18.0104 12.6604C18.0742 12.5967 18.11 12.5102 18.11 12.42C18.11 12.3298 18.0742 12.2433 18.0104 12.1796C17.9466 12.1158 17.8602 12.08 17.77 12.08C16.9841 12.0841 16.1992 12.1375 15.42 12.24Z" fill="black"/>
<path fill-rule="evenodd" clip-rule="evenodd" d="M16 5.33C14.8045 4.64209 13.4493 4.28004 12.07 4.28004C10.6907 4.28004 9.33553 4.64209 8.14 5.33L7.36 5.81C6.41173 6.45328 5.61272 7.29277 5.01705 8.27165C4.42137 9.25052 4.04293 10.3459 3.90734 11.4838C3.77175 12.6216 3.88217 13.7753 4.23113 14.8667C4.5801 15.9581 5.15945 16.9619 5.93 17.81C9.03 21.15 14.35 20.81 17.44 18.37C17.4788 18.3484 17.5124 18.3188 17.5388 18.2831C17.5651 18.2475 17.5835 18.2066 17.5926 18.1632C17.6018 18.1198 17.6015 18.0749 17.5919 18.0317C17.5823 17.9884 17.5634 17.9477 17.5367 17.9123C17.51 17.8769 17.476 17.8476 17.437 17.8265C17.398 17.8054 17.3549 17.7929 17.3107 17.7898C17.2665 17.7868 17.2221 17.7932 17.1806 17.8088C17.139 17.8243 17.1013 17.8486 17.07 17.88C14.19 20 9.32 20.28 6.58 17.2C5.79352 16.2746 5.25282 15.166 5.00781 13.9765C4.76279 12.7871 4.82135 11.555 5.17809 10.3941C5.53482 9.23326 6.17823 8.18095 7.04893 7.33432C7.91964 6.4877 8.98957 5.87405 10.16 5.55C11.7439 5.08812 13.4377 5.17795 14.9638 5.80476C16.49 6.43157 17.758 7.5582 18.56 9C19.3349 10.488 19.6515 12.1722 19.47 13.84C19.23 15.35 18.47 15.56 18.84 15.84C18.8906 15.8901 18.9588 15.9182 19.03 15.9182C19.1012 15.9182 19.1694 15.8901 19.22 15.84C20.92 13.63 20.35 8.44 17 6L16 5.33Z" fill="black"/>
<path fill-rule="evenodd" clip-rule="evenodd" d="M7.76 4.37C8.91 1.37 9.2 1.3 9.24 1.21C11.2413 1.1031 13.248 1.15996 15.24 1.38C15.7772 2.42926 16.2028 3.53195 16.51 4.67C16.51 4.67 17.32 5.11 17.19 4.58C16.9354 3.389 16.6013 2.21637 16.19 1.07C16.1095 0.858962 15.975 0.672754 15.8 0.53C15.23 0.15 9.22 -0.47 8.51 0.53C7.82699 1.92742 7.29078 3.39192 6.91 4.9C6.77 5.58 7.44 5.28 7.76 4.37Z" fill="black"/>
<path fill-rule="evenodd" clip-rule="evenodd" d="M16.4 20.43C15.8 20.26 16.05 21.23 15.09 22.63C14.76 22.72 9.23 23.06 9.04 22.78C8.60535 22.0278 8.2244 21.2459 7.9 20.44C7.86666 20.3755 7.81105 20.3252 7.74347 20.2986C7.6759 20.2719 7.60095 20.2707 7.53255 20.2951C7.46415 20.3196 7.40693 20.368 7.37152 20.4314C7.33611 20.4948 7.32491 20.5689 7.34 20.64C7.59 21.48 8.15 23.46 8.67 23.64C10.49 24.34 15.17 23.71 15.67 23.39C16.17 23.07 16.43 21.7 16.67 20.81C16.6774 20.7249 16.6543 20.64 16.6048 20.5704C16.5553 20.5008 16.4828 20.451 16.4 20.43Z" fill="black"/>
</g>
<defs>
<clipPath id="clip0_1035_5109">
<rect width="24" height="24" fill="white"/>
</clipPath>
</defs>
</svg>
