<svg width="24" height="24" viewBox="0 0 24 24" fill="none" xmlns="http://www.w3.org/2000/svg">
<g clip-path="url(#clip0_1035_5152)">
<path fill-rule="evenodd" clip-rule="evenodd" d="M7.59 16.72C8.69633 16.3567 9.64538 15.6263 10.28 14.65C10.6777 13.9149 10.7711 13.0532 10.54 12.25C10.4457 11.8055 10.1877 11.4126 9.81721 11.1496C9.44668 10.8865 8.99076 10.7724 8.54 10.83C8.06324 10.8875 7.62309 11.1147 7.3 11.47C6.9817 11.1991 6.58653 11.0347 6.17 11C5.9545 10.9675 5.73469 10.9779 5.52327 11.0308C5.31184 11.0837 5.11299 11.178 4.93819 11.3081C4.76339 11.4383 4.61611 11.6018 4.50486 11.7892C4.3936 11.9766 4.32058 12.1842 4.29 12.4C4.12667 13.2024 4.28852 14.0368 4.74 14.72C5.40762 15.7185 6.42399 16.4317 7.59 16.72ZM5.35 12.65C5.37468 12.5005 5.45595 12.3662 5.57697 12.275C5.69798 12.1837 5.84946 12.1426 6 12.16C6.17721 12.1956 6.34147 12.2785 6.47529 12.4C6.60911 12.5215 6.70751 12.677 6.76 12.85C6.79328 12.9949 6.87673 13.1234 6.9956 13.2127C7.11446 13.302 7.26109 13.3464 7.40952 13.338C7.55796 13.3296 7.69866 13.269 7.80672 13.1669C7.91478 13.0648 7.98324 12.9277 8 12.78C8.01643 12.5948 8.09108 12.4196 8.21324 12.2795C8.3354 12.1394 8.4988 12.0415 8.68 12C8.85518 11.9746 9.0336 12.0145 9.18117 12.1123C9.32874 12.2101 9.43513 12.3588 9.48 12.53C9.59868 12.8606 9.6361 13.2149 9.58911 13.563C9.54212 13.911 9.41209 14.2427 9.21 14.53C8.75286 15.1688 8.13546 15.6758 7.42 16C6.76594 15.6858 6.1967 15.2195 5.76 14.64C5.53893 14.3645 5.38648 14.0404 5.31519 13.6944C5.24391 13.3484 5.25584 12.9905 5.35 12.65Z" fill="black"/>
<path fill-rule="evenodd" clip-rule="evenodd" d="M24 12.54C24.069 11.664 23.8322 10.7911 23.33 10.07C23.4148 9.54918 23.3786 9.01584 23.2243 8.51124C23.0699 8.00664 22.8016 7.5443 22.44 7.16C21.6314 6.46365 20.5857 6.10553 19.52 6.16C18.23 6.16 17.16 6.1 16.13 6.08H14.64C14.15 6.08 13.8 6.08 13.37 6.13C13.1658 6.15097 12.9646 6.19457 12.77 6.26C12.4848 6.35527 12.2073 6.47228 11.94 6.61C11.59 6.79 11.26 7 10.94 7.21V6.84C10.9953 6.27535 10.965 5.70558 10.85 5.15C10.7142 4.86771 10.4844 4.64146 10.2 4.51C9.73212 4.33924 9.23807 4.25126 8.74 4.25C8.26839 4.19853 7.79441 4.17183 7.32 4.17C6.82696 4.17559 6.33524 4.22242 5.85 4.31C5.53038 4.36276 5.21818 4.4534 4.92 4.58C4.66144 4.68849 4.4369 4.86467 4.27 5.09C4.13147 5.2682 4.03876 5.47765 4 5.7C3.98788 6.03579 4.01812 6.37177 4.09 6.7L4.21 7.7L3.38 7.47C3.19183 7.42699 3.00158 7.39361 2.81 7.37C2.61347 7.35969 2.41653 7.35969 2.22 7.37C1.74251 7.35505 1.26456 7.3751 0.790002 7.43C0.703565 7.44436 0.625028 7.48892 0.568374 7.55576C0.511719 7.6226 0.480624 7.70738 0.480624 7.795C0.480624 7.88262 0.511719 7.9674 0.568374 8.03424C0.625028 8.10108 0.703565 8.14565 0.790002 8.16C1.24 8.26 1.67 8.42 2.12 8.53C2.42859 8.60819 2.74292 8.66169 3.06 8.69C3.49931 8.67808 3.93566 8.61431 4.36 8.5L4.42 9C3.63678 9.45792 2.98026 10.1041 2.51 10.88C1.97239 11.7226 1.64539 12.6822 1.55663 13.6777C1.46787 14.6733 1.61994 15.6756 2 16.6C2.33197 17.2869 2.8477 17.8684 3.49 18.28C3.6 18.35 3.71 18.39 3.82 18.45C3.40351 18.4744 2.99099 18.5448 2.59 18.66C2.24689 18.7634 1.9125 18.8938 1.59 19.05C1.13 19.27 0.700002 19.54 0.230002 19.74C0.183042 19.7505 0.138675 19.7704 0.0995219 19.7984C0.0603693 19.8264 0.0272269 19.8619 0.00205451 19.903C-0.0231179 19.944 -0.0398091 19.9896 -0.0470321 20.0372C-0.0542552 20.0848 -0.0518634 20.1334 -0.0399982 20.18C-0.0283077 20.2274 -0.00737165 20.2719 0.021606 20.3112C0.0505836 20.3504 0.087031 20.3835 0.128852 20.4086C0.170673 20.4337 0.217042 20.4503 0.265292 20.4574C0.313542 20.4645 0.362722 20.462 0.410002 20.45C1.00957 20.3884 1.60212 20.2712 2.18 20.1C2.52126 19.9992 2.85535 19.8756 3.18 19.73C3.54 19.56 3.88 19.36 4.23 19.19V19.93V21.51V22.27C4.24561 22.4806 4.32204 22.6821 4.45 22.85C4.60693 23.0366 4.81577 23.1723 5.05 23.24C5.41207 23.334 5.78654 23.3711 6.16 23.35H7.79C8.33 23.35 8.87 23.29 9.41 23.25C9.74738 23.2392 10.0826 23.1923 10.41 23.11C10.6469 23.0375 10.8517 22.8856 10.99 22.68C11.1299 22.4681 11.2252 22.2299 11.27 21.98C11.2997 21.6741 11.2997 21.3659 11.27 21.06L11 18.54L11.91 19.05C12.46 19.34 13.02 19.67 13.62 19.94C14.0218 20.1228 14.4362 20.2765 14.86 20.4C15.6064 20.6152 16.3857 20.6931 17.16 20.63C17.9546 20.5602 18.6971 20.205 19.25 19.63C19.5949 19.1958 19.7944 18.664 19.82 18.11H20.34C20.9811 18.1579 21.624 18.0444 22.21 17.78C22.5817 17.5977 22.9044 17.3292 23.1514 16.997C23.3984 16.6648 23.5625 16.2784 23.63 15.87C23.6892 15.2682 23.5784 14.6619 23.31 14.12C23.7238 13.6943 23.969 13.1329 24 12.54ZM10 8.12C9.99878 8.38582 9.9686 8.65072 9.91 8.91C9.91 8.91 9.91 8.97 9.91 8.99C9.55177 8.87782 9.18795 8.78436 8.82 8.71C8.72771 8.69791 8.63426 8.72104 8.55827 8.77479C8.48228 8.82854 8.42934 8.90896 8.41 9C8.39208 9.09661 8.41227 9.1964 8.46634 9.27844C8.52041 9.36047 8.60416 9.41838 8.7 9.44C9.16543 9.52808 9.621 9.66207 10.06 9.84C10.3239 9.96086 10.5669 10.1229 10.78 10.32C11.2179 10.7811 11.5573 11.3266 11.7773 11.9232C11.9974 12.5198 12.0936 13.155 12.06 13.79C12.0829 15.0496 11.6087 16.2676 10.74 17.18C10.2526 17.6176 9.64769 17.9026 9 18C7.93413 18.1663 6.84565 18.1152 5.8 17.85C5.22961 17.7447 4.68371 17.5344 4.19 17.23C3.71511 16.9473 3.32752 16.539 3.07 16.05C2.7262 15.2974 2.56768 14.4735 2.60769 13.647C2.64771 12.8206 2.8851 12.0158 3.3 11.3C3.64918 10.534 4.24098 9.90443 4.98391 9.50856C5.72683 9.1127 6.57948 8.97263 7.41 9.11C7.49355 9.12857 7.58104 9.11318 7.65324 9.06724C7.72544 9.02129 7.77644 8.94854 7.795 8.865C7.81357 8.78146 7.79818 8.69396 7.75224 8.62176C7.70629 8.54956 7.63355 8.49857 7.55 8.48C6.72731 8.28036 5.86248 8.34689 5.08 8.67V6.67C5.03342 6.4495 5.00664 6.22527 5 6C4.99547 5.90665 5.02378 5.81466 5.08 5.74C5.17293 5.65875 5.28768 5.60659 5.41 5.59C5.60466 5.55207 5.80187 5.52868 6 5.52C6.41 5.52 6.73 5.44 7 5.43C7.53051 5.41958 8.0612 5.43627 8.59 5.48C8.87301 5.46087 9.15699 5.46087 9.44 5.48C9.59 5.48 9.74 5.48 9.81 5.61C9.9427 6.12939 10.0066 6.66397 10 7.2V8.12ZM10.23 21.61C10.202 21.7507 10.144 21.8837 10.06 22H9.25L6.06 22.13H5.21V22.18C5.02 22.28 5.21 21.62 5.14 21.44C5.07 20.84 5 20.23 4.96 19.61V18.91C5.15 18.97 5.34 19.04 5.54 19.09C6.74921 19.3776 8.00355 19.4218 9.23 19.22C9.57341 19.1344 9.90817 19.0172 10.23 18.87L10.3 21C10.2954 21.2046 10.2753 21.4085 10.24 21.61H10.23ZM10.83 8L12 7.41C12.3188 7.2403 12.6538 7.10295 13 7C13.1959 6.97604 13.3941 6.97604 13.59 7H14.66H15.6C16.79 7.06 17.98 7.23 19.48 7.3C20.2502 7.2689 21.0037 7.5296 21.59 8.03C21.8305 8.2438 21.999 8.52673 22.0724 8.84002C22.1458 9.15331 22.1205 9.48164 22 9.78H20.94C20.312 9.85059 19.678 9.85059 19.05 9.78C19.0047 9.76439 18.9568 9.75797 18.909 9.76113C18.8612 9.76428 18.8145 9.77693 18.7717 9.79835C18.7288 9.81977 18.6907 9.84952 18.6595 9.88587C18.6283 9.92221 18.6047 9.96441 18.59 10.01C18.5745 10.0566 18.5684 10.1058 18.572 10.1548C18.5757 10.2038 18.5891 10.2516 18.6115 10.2953C18.6338 10.3391 18.6646 10.3779 18.7022 10.4096C18.7397 10.4413 18.7831 10.4653 18.83 10.48C19.3084 10.7164 19.8162 10.8879 20.34 10.99C20.5591 11.0159 20.7802 11.0192 21 11C21.2356 10.9993 21.4703 10.9724 21.7 10.92C21.8925 10.8666 22.0799 10.7963 22.26 10.71C22.5842 11.0817 22.7651 11.5568 22.77 12.05C22.8061 12.3881 22.7651 12.73 22.65 13.05C22.59 13.18 22.54 13.3 22.42 13.32C22.3 13.34 22.25 13.45 22.17 13.53H21.4C21.2135 13.5198 21.0265 13.5198 20.84 13.53H20.27H18.87C18.8227 13.5214 18.7741 13.5224 18.7271 13.533C18.6802 13.5435 18.6358 13.5633 18.5966 13.5913C18.5575 13.6193 18.5243 13.6548 18.4992 13.6958C18.474 13.7368 18.4573 13.7824 18.45 13.83C18.4352 13.9265 18.4581 14.025 18.514 14.105C18.5698 14.1851 18.6543 14.2406 18.75 14.26C19.2155 14.4197 19.6896 14.5533 20.17 14.66C20.384 14.7036 20.6016 14.727 20.82 14.73C21.036 14.7549 21.254 14.7549 21.47 14.73C21.7196 14.6662 21.9637 14.5826 22.2 14.48C22.4485 14.8649 22.5837 15.3119 22.59 15.77C22.5518 16.0277 22.4542 16.2729 22.305 16.4864C22.1557 16.6998 21.9589 16.8757 21.73 17C21.2927 17.2046 20.8124 17.3007 20.33 17.28C19.5254 17.2762 18.7237 17.1822 17.94 17C17.8918 16.9768 17.8391 16.9643 17.7857 16.9634C17.7322 16.9625 17.6791 16.9732 17.6301 16.9947C17.5812 17.0163 17.5375 17.0482 17.5021 17.0883C17.4666 17.1284 17.4403 17.1757 17.425 17.227C17.4096 17.2782 17.4055 17.3322 17.413 17.3852C17.4205 17.4382 17.4394 17.4889 17.4684 17.5338C17.4974 17.5788 17.5358 17.6169 17.581 17.6456C17.6261 17.6743 17.677 17.6929 17.73 17.7C18.1456 17.8303 18.57 17.9306 19 18C18.9404 18.3573 18.7688 18.6865 18.51 18.94C18.0938 19.2889 17.5627 19.4706 17.02 19.45C16.3874 19.4658 15.7563 19.3814 15.15 19.2C14.1594 18.9195 13.1846 18.5857 12.23 18.2L11.58 18C12.5914 16.8442 13.1211 15.3446 13.06 13.81C13.0697 13.0428 12.9211 12.2818 12.6234 11.5747C12.3257 10.8675 11.8854 10.2293 11.33 9.7C11.0942 9.50365 10.8315 9.34202 10.55 9.22C10.55 9.22 10.62 9.16 10.63 9.12C10.7361 8.7548 10.8032 8.37936 10.83 8Z" fill="black"/>
<path fill-rule="evenodd" clip-rule="evenodd" d="M7.41 3.18C7.71 3.18 7.95 2.28 7.97 2.18C7.97956 2.08691 7.97956 1.99309 7.97 1.9C7.97561 1.80675 7.97561 1.71325 7.97 1.62C7.69 0.620001 7.54 0.620001 7.36 0.620001C7.18 0.620001 6.99 0.620001 6.8 1.62C6.79468 1.71326 6.79468 1.80674 6.8 1.9C6.79033 1.98974 6.79033 2.08026 6.8 2.17C6.8 2.17 7.12 3.19 7.41 3.18Z" fill="black"/>
<path fill-rule="evenodd" clip-rule="evenodd" d="M2 4.18C2.0555 4.25369 2.11925 4.32079 2.19 4.38C2.2644 4.43296 2.345 4.47661 2.43 4.51C2.43 4.51 3.36 4.83 3.54 4.58C3.72 4.33 3.13 3.58 3.12 3.58C3.08741 3.50916 3.04717 3.4421 3 3.38C2.92887 3.33018 2.85155 3.28984 2.77 3.26C1.86 2.87 1.77 2.97 1.65 3.11C1.53 3.25 1.39 3.43 2 4.18Z" fill="black"/>
<path fill-rule="evenodd" clip-rule="evenodd" d="M12.59 4.53C12.6783 4.49936 12.7598 4.45181 12.83 4.39C12.8936 4.33322 12.9506 4.26949 13 4.2C13.63 3.44 13.53 3.26 13.42 3.12C13.31 2.98 13.2 2.89 12.3 3.27C12.2179 3.30297 12.1406 3.34669 12.07 3.4C11.9997 3.44833 11.9358 3.50546 11.88 3.57C11.88 3.57 11.29 4.36 11.46 4.57C11.63 4.78 12.57 4.54 12.59 4.53Z" fill="black"/>
</g>
<defs>
<clipPath id="clip0_1035_5152">
<rect width="24" height="24" fill="white"/>
</clipPath>
</defs>
</svg>
