<svg width="24" height="24" viewBox="0 0 24 24" fill="none" xmlns="http://www.w3.org/2000/svg">
<g clip-path="url(#clip0_1046_5880)">
<path d="M8.13 14.23C7.21133 13.7332 6.17275 13.5013 5.13 13.56C4.04206 13.7153 3.01941 14.1724 2.17807 14.8794C1.33672 15.5864 0.710346 16.5151 0.370003 17.56C-0.0703261 18.582 -0.108977 19.7324 0.261767 20.7816C0.632511 21.8308 1.38537 22.7016 2.37 23.22C2.72592 23.4119 3.11111 23.5437 3.51 23.61C4.07508 23.6699 4.64492 23.6699 5.21 23.61C5.24721 23.6101 5.28403 23.6025 5.31816 23.5877C5.3523 23.5729 5.383 23.5512 5.40836 23.524C5.43371 23.4968 5.45316 23.4646 5.46549 23.4295C5.47782 23.3944 5.48276 23.3571 5.48 23.32C5.4801 23.2828 5.47252 23.246 5.45771 23.2119C5.44291 23.1777 5.42122 23.147 5.39399 23.1217C5.36676 23.0963 5.33458 23.0769 5.29948 23.0645C5.26438 23.0522 5.2271 23.0473 5.19 23.05C4.63982 23.0934 4.08655 23.0766 3.54 23C3.22361 22.9309 2.91995 22.8128 2.64 22.65C1.86244 22.1749 1.28945 21.4274 1.03253 20.5532C0.775607 19.6789 0.853126 18.7403 1.25 17.92C1.53576 17.0631 2.05331 16.302 2.74525 15.7213C3.43719 15.1405 4.27647 14.7628 5.17 14.63C6.02133 14.57 6.87268 14.7465 7.63 15.14C8.39723 15.5236 9.03392 16.1255 9.46 16.87C10.0505 17.8987 10.2561 19.1038 10.04 20.27C9.93894 20.837 9.67682 21.3629 9.28493 21.7849C8.89304 22.207 8.38796 22.5073 7.83 22.65C7.74939 22.6713 7.67984 22.7223 7.63531 22.7928C7.59079 22.8633 7.5746 22.9481 7.59 23.03C7.59939 23.0716 7.617 23.111 7.64181 23.1457C7.66662 23.1804 7.69812 23.2098 7.73445 23.2322C7.77079 23.2545 7.81123 23.2694 7.8534 23.2759C7.89557 23.2824 7.93862 23.2804 7.98 23.27C8.67584 23.1283 9.31483 22.7856 9.81785 22.2844C10.3209 21.7831 10.6658 21.1453 10.81 20.45C11.1235 19.0975 10.9389 17.6774 10.29 16.45C9.81016 15.5093 9.05726 14.7354 8.13 14.23Z" fill="black"/>
<path d="M8.13 0.700022C7.21214 0.200257 6.17365 -0.0351348 5.13 0.0200215C4.04288 0.177545 3.02132 0.635434 2.18035 1.34213C1.33938 2.04883 0.712397 2.97627 0.370004 4.02002C-0.0684566 5.04373 -0.106203 6.19483 0.264249 7.24506C0.634702 8.29529 1.3863 9.16796 2.37 9.69002C2.72451 9.88317 3.11051 10.0118 3.51 10.07C4.07332 10.1466 4.64316 10.1634 5.21 10.12C5.27645 10.1075 5.33644 10.0722 5.3796 10.0202C5.42276 9.96812 5.44638 9.90263 5.44638 9.83502C5.44638 9.76741 5.42276 9.70193 5.3796 9.64989C5.33644 9.59785 5.27645 9.56252 5.21 9.55002C4.68427 9.56786 4.15811 9.53099 3.64 9.44002C3.32097 9.3799 3.01583 9.26124 2.74 9.09002C1.95241 8.63146 1.3636 7.89626 1.08819 7.0275C0.812776 6.15875 0.870456 5.21859 1.25 4.39002C1.53775 3.53423 2.0559 2.77435 2.74747 2.19392C3.43905 1.61349 4.27728 1.23499 5.17 1.10002C6.02223 1.04364 6.87349 1.22358 7.63 1.62002C8.39934 2.00063 9.03681 2.60327 9.46 3.35002C10.0344 4.38089 10.2257 5.5817 10 6.74002C9.90201 7.30199 9.64581 7.82438 9.26147 8.24592C8.87712 8.66746 8.38056 8.97068 7.83 9.12002C7.74731 9.14134 7.6761 9.19389 7.63135 9.26662C7.58659 9.33935 7.57177 9.42659 7.59 9.51002C7.59911 9.55386 7.61731 9.59531 7.64343 9.63167C7.66956 9.66804 7.70302 9.69852 7.74167 9.72114C7.78031 9.74376 7.82327 9.75802 7.86777 9.76299C7.91227 9.76797 7.95732 9.76355 8 9.75002C8.69663 9.6064 9.33591 9.26182 9.83885 8.75887C10.3418 8.25593 10.6864 7.61664 10.83 6.92002C11.1435 5.56755 10.9589 4.14737 10.31 2.92002C9.82642 1.97525 9.06583 1.2007 8.13 0.700022Z" fill="black"/>
<path d="M23.33 3.00001C22.853 2.04633 22.0958 1.26125 21.16 0.750008C20.2405 0.254619 19.2032 0.0195091 18.16 0.0700076C17.0733 0.228635 16.0523 0.686926 15.2115 1.39347C14.3707 2.10001 13.7434 3.02685 13.4 4.07001C12.9615 5.09371 12.9238 6.24481 13.2942 7.29504C13.6647 8.34528 14.4163 9.21795 15.4 9.74001C15.7545 9.93316 16.1405 10.0618 16.54 10.12C17.1048 10.185 17.6752 10.185 18.24 10.12C18.2819 10.1279 18.325 10.1264 18.3663 10.1158C18.4075 10.1051 18.4459 10.0854 18.4788 10.0582C18.5116 10.031 18.538 9.9969 18.5561 9.95832C18.5742 9.91974 18.5836 9.87763 18.5836 9.83501C18.5836 9.79238 18.5742 9.75028 18.5561 9.7117C18.538 9.67312 18.5116 9.63901 18.4788 9.61179C18.4459 9.58458 18.4075 9.56494 18.3663 9.55426C18.325 9.54358 18.2819 9.54213 18.24 9.55001C17.7179 9.57155 17.195 9.53803 16.68 9.45001C16.3576 9.38538 16.0494 9.26345 15.77 9.09001C14.9942 8.61328 14.4226 7.86584 14.1659 6.99217C13.9091 6.11851 13.9854 5.18068 14.38 4.36001C14.6733 3.53428 15.1822 2.80208 15.8539 2.23938C16.5256 1.67669 17.3357 1.304 18.2 1.16001C19.0545 1.10026 19.909 1.27669 20.67 1.67001C21.4352 2.05655 22.0711 2.65773 22.5 3.40001C23.0871 4.42993 23.2891 5.63494 23.07 6.80001C22.9763 7.36734 22.7178 7.89456 22.3266 8.31599C21.9354 8.73742 21.4288 9.03443 20.87 9.17001C20.7873 9.19133 20.7161 9.24388 20.6713 9.3166C20.6266 9.38933 20.6118 9.47658 20.63 9.56001C20.6491 9.63983 20.6982 9.70926 20.7671 9.75392C20.8359 9.79859 20.9193 9.81509 21 9.80001C21.695 9.66148 22.3343 9.32253 22.839 8.82497C23.3436 8.32741 23.6916 7.693 23.84 7.00001C24.1548 5.64864 23.9738 4.22916 23.33 3.00001Z" fill="black"/>
<path d="M23.47 16.94C21.95 17.06 20.47 17.22 18.88 17.4C18.96 15.63 18.88 14.19 18.98 12.4C18.9841 12.3638 18.9809 12.327 18.9704 12.2921C18.96 12.2571 18.9425 12.2246 18.9192 12.1966C18.8958 12.1685 18.867 12.1455 18.8345 12.1289C18.802 12.1123 18.7664 12.1025 18.73 12.1C18.6932 12.0959 18.6559 12.0991 18.6204 12.1094C18.5848 12.1198 18.5516 12.1371 18.5228 12.1603C18.494 12.1836 18.47 12.2123 18.4524 12.2449C18.4347 12.2774 18.4237 12.3132 18.42 12.35C18.1012 14.0578 17.8974 15.785 17.81 17.52L16.38 17.7C15.8 17.77 15.22 17.85 14.64 17.9C13.9119 17.965 13.1805 17.985 12.45 17.96C12.3735 17.9543 12.2978 17.978 12.2383 18.0264C12.1787 18.0747 12.14 18.144 12.13 18.22C12.1268 18.2948 12.1518 18.3681 12.1999 18.4255C12.248 18.4828 12.3158 18.5201 12.39 18.53C13.8884 18.7602 15.408 18.8205 16.92 18.71L17.77 18.61V19.7C17.77 21.04 17.86 22.37 17.96 23.7C17.96 23.7849 17.9937 23.8663 18.0537 23.9263C18.1137 23.9863 18.1951 24.02 18.28 24.02C18.3649 24.02 18.4463 23.9863 18.5063 23.9263C18.5663 23.8663 18.6 23.7849 18.6 23.7C18.6 22.36 18.73 21.01 18.8 19.65V18.51L19.58 18.38C20.9 18.15 22.21 17.84 23.51 17.62C23.5522 17.6151 23.5929 17.6018 23.6299 17.581C23.6669 17.5602 23.6993 17.5322 23.7254 17.4987C23.7514 17.4652 23.7706 17.4268 23.7817 17.3858C23.7928 17.3449 23.7956 17.3021 23.79 17.26C23.79 17.1752 23.7563 17.0938 23.6963 17.0338C23.6363 16.9737 23.5549 16.94 23.47 16.94Z" fill="black"/>
</g>
<defs>
<clipPath id="clip0_1046_5880">
<rect width="24" height="24" fill="white"/>
</clipPath>
</defs>
</svg>
