<svg width="24" height="24" viewBox="0 0 24 24" fill="none" xmlns="http://www.w3.org/2000/svg">
<g clip-path="url(#clip0_1032_3584)">
<path d="M5.99997 18C6.7732 18.8105 7.70485 19.4533 8.73702 19.8886C9.7692 20.3238 10.8799 20.5421 12 20.53C14.2704 20.4354 16.4269 19.5101 18.06 17.93C18.9709 17.0409 19.6566 15.9473 20.06 14.74C20.3608 13.9745 20.4573 13.144 20.34 12.33C20.3114 12.2088 20.2549 12.096 20.175 12.0006C20.0952 11.9051 19.9941 11.8296 19.88 11.78C19.5039 11.7507 19.1261 11.7507 18.75 11.78C17.15 11.78 13.69 11.98 10.58 12.15C7.46997 12.32 4.36997 12.65 4.36997 12.65C4.27248 12.7224 4.1923 12.8156 4.13523 12.9229C4.07816 13.0301 4.04562 13.1487 4.03997 13.27C4.01956 13.8905 4.1215 14.5089 4.33997 15.09C4.676 16.1688 5.2424 17.1617 5.99997 18ZM9.12997 13C12.45 12.93 16.7 12.9 18.65 12.9H19.31C19.253 13.7813 19.0002 14.6387 18.57 15.41C18.2443 16.0524 17.8153 16.6368 17.3 17.14C15.8737 18.5371 13.9926 19.3747 12 19.5C10.9998 19.5342 10.0032 19.3638 9.0712 18.9993C8.13921 18.6347 7.29148 18.0837 6.57997 17.38C6.00734 16.7746 5.55588 16.0651 5.24997 15.29C5.00885 14.7564 4.84714 14.1904 4.76997 13.61C4.76105 13.4534 4.76105 13.2965 4.76997 13.14C6.23301 13.0134 7.70185 12.9667 9.16997 13H9.12997Z" fill="black"/>
<path d="M23.87 10C23.7581 8.97645 23.5266 7.96956 23.18 7C22.5109 5.20543 21.337 3.64265 19.8 2.5C18.291 1.36324 16.5065 0.648767 14.63 0.430001C14.539 0.42118 14.4482 0.447268 14.3757 0.502975C14.3033 0.558682 14.2548 0.639841 14.24 0.730001C14.2314 0.819794 14.2578 0.909441 14.3137 0.98024C14.3696 1.05104 14.4506 1.09753 14.54 1.11C16.2908 1.35433 17.9445 2.06208 19.33 3.16C20.71 4.23693 21.7514 5.68788 22.33 7.34C22.6569 8.24202 22.8817 9.17787 23 10.13C23.0852 11.0848 23.0852 12.0452 23 13C22.9072 13.9406 22.6921 14.8651 22.36 15.75C22.0217 16.6389 21.5857 17.4874 21.06 18.28C19.9445 19.8753 18.3722 21.0954 16.55 21.78C14.7291 22.5071 12.7634 22.7982 10.81 22.63C9.72941 22.5372 8.6664 22.2984 7.64999 21.92C6.64244 21.548 5.70569 21.0069 4.87999 20.32C2.80435 18.4788 1.46226 15.9508 1.09999 13.2C0.635935 10.4447 1.27539 7.61744 2.87999 5.33C3.72633 4.15467 4.78441 3.14745 5.99999 2.36C7.23129 1.5939 8.62547 1.12803 10.07 1C10.78 0.930001 11.48 0.870001 12.19 0.870001C12.6582 0.865087 13.1262 0.895171 13.59 0.960001C13.6306 0.970566 13.673 0.972479 13.7145 0.965617C13.7559 0.958755 13.7954 0.943271 13.8305 0.920166C13.8656 0.897061 13.8954 0.86685 13.9181 0.831489C13.9407 0.796128 13.9557 0.756404 13.962 0.714888C13.9684 0.673372 13.9659 0.630989 13.9548 0.590482C13.9437 0.549974 13.9243 0.512245 13.8977 0.479735C13.8711 0.447225 13.838 0.420659 13.8005 0.401756C13.763 0.382854 13.7219 0.372035 13.68 0.370001C13.1914 0.275663 12.6969 0.215517 12.2 0.190001C11.4656 0.179581 10.7311 0.209626 9.99999 0.280001C8.44943 0.420451 6.95139 0.912959 5.61999 1.72C4.29658 2.53093 3.13662 3.58236 2.19999 4.82C0.406506 7.2692 -0.344868 10.3286 0.109987 13.33C0.464983 16.3507 1.90404 19.14 4.15999 21.18C5.08067 21.9609 6.12946 22.5766 7.25999 23C8.37929 23.4165 9.55 23.6789 10.74 23.78C12.8729 23.95 15.0161 23.6213 17 22.82C19.0201 22.024 20.7477 20.628 21.95 18.82C22.5113 17.9522 22.971 17.0228 23.32 16.05C23.6688 15.0833 23.8874 14.0744 23.97 13.05C24.0315 12.0324 23.998 11.0114 23.87 10Z" fill="black"/>
<path d="M4.32998 9.38003C4.49694 9.02582 4.70144 8.69057 4.93998 8.38003C5.15126 8.08848 5.42014 7.84342 5.72998 7.66003C6.08244 7.46481 6.47716 7.35841 6.87998 7.35003C7.29568 7.32516 7.71244 7.37599 8.10998 7.50003C8.52954 7.61579 8.92215 7.81317 9.26534 8.08085C9.60853 8.34854 9.89555 8.68128 10.11 9.06003C10.1473 9.1423 10.2149 9.20697 10.2988 9.24052C10.3827 9.27407 10.4762 9.27389 10.56 9.24003C10.6016 9.22259 10.6393 9.19705 10.6709 9.16489C10.7026 9.13274 10.7275 9.09461 10.7442 9.05273C10.761 9.01085 10.7692 8.96605 10.7685 8.92095C10.7678 8.87585 10.7581 8.83134 10.74 8.79003C10.5433 8.26739 10.2411 7.79082 9.85232 7.38997C9.46352 6.98913 8.99638 6.67258 8.47998 6.46003C7.94887 6.23908 7.37405 6.14327 6.79998 6.18003C6.21336 6.22598 5.65011 6.42986 5.16998 6.77003C4.85783 7.02836 4.59377 7.33982 4.38998 7.69003C4.11286 8.1591 3.90091 8.66374 3.75998 9.19003C3.73479 9.26561 3.74065 9.34811 3.77628 9.41938C3.81192 9.49064 3.8744 9.54483 3.94998 9.57003C4.02557 9.59522 4.10807 9.58936 4.17933 9.55373C4.2506 9.5181 4.30479 9.45561 4.32998 9.38003Z" fill="black"/>
<path d="M19.61 7.53999C19.2194 7.03289 18.6815 6.65912 18.07 6.46999C17.4427 6.27321 16.766 6.30509 16.16 6.55999C15.5786 6.79926 15.0797 7.20299 14.7244 7.72168C14.3692 8.24036 14.173 8.85144 14.16 9.47999C14.1566 9.55856 14.1822 9.63564 14.232 9.69651C14.2818 9.75738 14.3523 9.79778 14.43 9.80999C14.4694 9.81414 14.5093 9.81042 14.5473 9.79906C14.5852 9.7877 14.6206 9.76893 14.6513 9.74382C14.682 9.71871 14.7074 9.68777 14.726 9.65279C14.7447 9.6178 14.7562 9.57946 14.76 9.53999C14.8477 9.09033 15.0574 8.67344 15.366 8.33484C15.6746 7.99623 16.0703 7.74895 16.51 7.61999C16.9062 7.48494 17.3325 7.46415 17.74 7.55999C18.1699 7.65171 18.5651 7.86319 18.88 8.16999C19.0541 8.33781 19.1934 8.5383 19.29 8.75999C19.3954 9.01148 19.4758 9.27274 19.53 9.53999C19.5348 9.58443 19.5487 9.62741 19.5706 9.66634C19.5926 9.70527 19.6223 9.73932 19.6578 9.76644C19.6933 9.79356 19.734 9.81318 19.7774 9.8241C19.8207 9.83503 19.8658 9.83703 19.91 9.82999C19.9548 9.82389 19.998 9.80889 20.037 9.78588C20.076 9.76287 20.11 9.7323 20.137 9.69597C20.164 9.65965 20.1835 9.61829 20.1943 9.57434C20.2051 9.53038 20.207 9.4847 20.2 9.43999C20.1844 9.05278 20.1171 8.66939 20 8.29999C19.9136 8.02653 19.7818 7.76959 19.61 7.53999Z" fill="black"/>
</g>
<defs>
<clipPath id="clip0_1032_3584">
<rect width="24" height="24" fill="white"/>
</clipPath>
</defs>
</svg>
