<svg width="24" height="24" viewBox="0 0 24 24" fill="none" xmlns="http://www.w3.org/2000/svg">
<g clip-path="url(#clip0_1032_3458)">
<path d="M23.87 10C23.7581 8.97645 23.5266 7.96957 23.18 7C22.5109 5.20543 21.337 3.64265 19.8 2.5C18.2886 1.36743 16.5053 0.653429 14.63 0.430002C14.539 0.421182 14.4482 0.447269 14.3757 0.502976C14.3033 0.558683 14.2548 0.639843 14.24 0.730002C14.2314 0.819796 14.2578 0.909442 14.3137 0.980241C14.3696 1.05104 14.4506 1.09753 14.54 1.11C16.2908 1.35433 17.9445 2.06208 19.33 3.16C20.71 4.23693 21.7514 5.68788 22.33 7.34C22.6569 8.24203 22.8817 9.17788 23 10.13C23.0852 11.0848 23.0852 12.0452 23 13C22.9086 13.9418 22.6899 14.8669 22.35 15.75C22.0192 16.6404 21.5863 17.4893 21.06 18.28C19.9445 19.8753 18.3722 21.0954 16.55 21.78C14.7291 22.5071 12.7634 22.7982 10.81 22.63C9.72941 22.5372 8.6664 22.2984 7.64999 21.92C6.64244 21.548 5.70569 21.0069 4.87999 20.32C2.80435 18.4788 1.46226 15.9508 1.09999 13.2C0.640311 10.4448 1.27939 7.61922 2.87999 5.33C3.72633 4.15467 4.78441 3.14745 5.99999 2.36C7.23208 1.59559 8.62585 1.12986 10.07 1C10.7727 0.900137 11.4805 0.840042 12.19 0.820002C12.6582 0.815088 13.1262 0.845172 13.59 0.910002C13.6682 0.921506 13.7477 0.901702 13.8114 0.854894C13.875 0.808085 13.9177 0.738051 13.93 0.660002C13.9371 0.621126 13.9362 0.581207 13.9273 0.542696C13.9184 0.504186 13.9018 0.467896 13.8784 0.436056C13.8549 0.404216 13.8253 0.377497 13.7912 0.35754C13.757 0.337583 13.7192 0.324809 13.68 0.320002C13.1903 0.24243 12.6957 0.198992 12.2 0.190002C11.47 0.190002 10.74 0.190002 10.01 0.280002C8.45599 0.418959 6.95437 0.911519 5.61999 1.72C4.29658 2.53094 3.13662 3.58237 2.19999 4.82C0.406506 7.2692 -0.344868 10.3286 0.109987 13.33C0.464983 16.3507 1.90404 19.14 4.15999 21.18C5.08067 21.9609 6.12946 22.5766 7.25999 23C8.38069 23.4117 9.55076 23.674 10.74 23.78C12.8729 23.95 15.0161 23.6213 17 22.82C19.0214 22.0263 20.7496 20.6298 21.95 18.82C22.5132 17.9568 22.973 17.0305 23.32 16.06C23.6688 15.0933 23.8874 14.0844 23.97 13.06C24.0321 12.0391 23.9986 11.0147 23.87 10Z" fill="black"/>
<path d="M5.69999 12C5.258 12.2669 4.83979 12.5714 4.44999 12.91C4.09463 13.2841 3.76076 13.6781 3.45 14.09C3.38587 14.1555 3.34995 14.2434 3.34995 14.335C3.34995 14.4266 3.38587 14.5146 3.45 14.58C3.51372 14.6435 3.60003 14.6792 3.69 14.6792C3.77996 14.6792 3.86627 14.6435 3.93 14.58C4.33357 14.2707 4.71763 13.9367 5.07999 13.58C5.40999 13.24 5.67999 12.83 6.07999 12.44C6.11811 12.3853 6.13692 12.3195 6.13346 12.253C6.13001 12.1864 6.10448 12.1229 6.06091 12.0724C6.01735 12.022 5.95822 11.9875 5.89286 11.9744C5.82751 11.9613 5.75965 11.9703 5.69999 12Z" fill="black"/>
<path d="M7 14.67C7.35318 14.4328 7.6875 14.1687 8 13.88C8.26928 13.551 8.51015 13.1997 8.72 12.83C8.7756 12.7722 8.80667 12.6952 8.80667 12.615C8.80667 12.5348 8.7756 12.4577 8.72 12.4C8.69204 12.3713 8.65861 12.3484 8.62169 12.3328C8.58476 12.3172 8.54508 12.3092 8.505 12.3092C8.46491 12.3092 8.42524 12.3172 8.38831 12.3328C8.35138 12.3484 8.31795 12.3713 8.29 12.4C7.97 12.67 7.61 12.88 7.29 13.17C7.01351 13.4876 6.75638 13.8215 6.52 14.17C6.45814 14.2366 6.42377 14.3241 6.42377 14.415C6.42377 14.5059 6.45814 14.5934 6.52 14.66C6.58365 14.7225 6.66879 14.7584 6.75801 14.7603C6.84723 14.7621 6.93379 14.7298 7 14.67Z" fill="black"/>
<path d="M17 13.24C16.6877 12.8516 16.3538 12.4811 16 12.13C15.9523 12.0664 15.8812 12.0243 15.8024 12.013C15.7237 12.0018 15.6437 12.0223 15.58 12.07C15.5477 12.0929 15.5203 12.122 15.4993 12.1555C15.4782 12.189 15.4641 12.2264 15.4576 12.2654C15.4511 12.3045 15.4523 12.3444 15.4613 12.383C15.4703 12.4215 15.4869 12.4579 15.51 12.49C15.75 12.92 15.92 13.38 16.2 13.79C16.4963 14.1948 16.8312 14.5699 17.2 14.91C17.2281 14.945 17.2629 14.974 17.3023 14.9954C17.3417 15.0169 17.385 15.0303 17.4296 15.0349C17.4742 15.0396 17.5193 15.0354 17.5623 15.0225C17.6053 15.0096 17.6453 14.9884 17.68 14.96C17.7412 14.8951 17.7752 14.8092 17.7752 14.72C17.7752 14.6308 17.7412 14.5449 17.68 14.48C17.45 14.08 17.25 13.63 17 13.24Z" fill="black"/>
<path d="M18.41 12.42C18.64 12.74 18.86 13.14 19.16 13.5C19.46 13.86 19.79 14.1 20.05 14.42C20.0991 14.4956 20.1762 14.5485 20.2643 14.5673C20.3524 14.586 20.4444 14.569 20.52 14.52C20.5585 14.4967 20.5918 14.4657 20.6178 14.429C20.6439 14.3923 20.6621 14.3506 20.6715 14.3066C20.6809 14.2626 20.6811 14.2171 20.6723 14.173C20.6634 14.1289 20.6456 14.087 20.62 14.05C20.43 13.6252 20.1882 13.2255 19.9 12.86C19.589 12.5483 19.2547 12.2608 18.9 12C18.8724 11.9711 18.8394 11.948 18.8029 11.9318C18.7663 11.9157 18.727 11.9069 18.6871 11.906C18.6471 11.905 18.6074 11.912 18.5702 11.9264C18.5329 11.9408 18.4989 11.9624 18.47 11.99C18.4411 12.0176 18.4179 12.0506 18.4018 12.0871C18.3856 12.1237 18.3769 12.163 18.3759 12.203C18.375 12.2429 18.382 12.2826 18.3964 12.3198C18.4108 12.3571 18.4324 12.3911 18.46 12.42H18.41Z" fill="black"/>
<path d="M13.55 16.48C12.901 16.182 12.167 16.1253 11.48 16.32C10.9414 16.5068 10.4402 16.7878 10 17.15C9.38655 17.6869 8.85433 18.3101 8.42 19C8.39127 19.028 8.36844 19.0614 8.35285 19.0983C8.33726 19.1352 8.32922 19.1749 8.32922 19.215C8.32922 19.2551 8.33726 19.2948 8.35285 19.3317C8.36844 19.3686 8.39127 19.402 8.42 19.43C8.47887 19.4834 8.55551 19.513 8.635 19.513C8.71449 19.513 8.79113 19.4834 8.85 19.43C9.27117 18.9866 9.73697 18.5878 10.24 18.24C10.701 17.8966 11.2239 17.6454 11.78 17.5C12.062 17.4133 12.3585 17.3836 12.6521 17.4128C12.9457 17.442 13.2306 17.5294 13.49 17.67C14.0938 17.9472 14.622 18.3657 15.03 18.89C15.0535 18.9292 15.0846 18.9632 15.1215 18.9901C15.1585 19.017 15.2004 19.0362 15.2449 19.0465C15.2894 19.0568 15.3356 19.058 15.3805 19.0501C15.4255 19.0422 15.4685 19.0253 15.5068 19.0005C15.5451 18.9756 15.578 18.9432 15.6036 18.9054C15.6291 18.8675 15.6467 18.8249 15.6554 18.78C15.6641 18.7352 15.6637 18.689 15.6542 18.6444C15.6447 18.5997 15.6262 18.5574 15.6 18.52C15.1526 17.6381 14.434 16.9231 13.55 16.48Z" fill="black"/>
<path d="M9.06999 8.68999C9.25387 8.28311 9.27997 7.82242 9.14322 7.39738C9.00647 6.97234 8.71663 6.6133 8.32999 6.38999C8.06448 6.27117 7.77342 6.22082 7.48343 6.24353C7.19344 6.26624 6.91376 6.36129 6.66999 6.51999C5.66999 7.11999 5.05999 8.70999 6.20999 9.51999C6.45111 9.65816 6.71759 9.74638 6.99353 9.77936C7.26948 9.81234 7.54924 9.78942 7.81614 9.71197C8.08304 9.63451 8.3316 9.5041 8.54702 9.32852C8.76244 9.15294 8.9403 8.93578 9.06999 8.68999Z" fill="black"/>
<path d="M17.51 6.46001C15.81 5.72001 14.13 7.58001 15.17 8.99001C15.3306 9.20934 15.5438 9.38472 15.79 9.50001C16.0298 9.65256 16.3044 9.74177 16.5881 9.75928C16.8718 9.77679 17.1553 9.72204 17.4121 9.60015C17.6689 9.47826 17.8905 9.29321 18.0563 9.06233C18.2221 8.83145 18.3266 8.56228 18.36 8.28001C18.43 7.9257 18.3854 7.55829 18.2325 7.23105C18.0797 6.90381 17.8266 6.63374 17.51 6.46001Z" fill="black"/>
</g>
<defs>
<clipPath id="clip0_1032_3458">
<rect width="24" height="24" fill="white"/>
</clipPath>
</defs>
</svg>
