<svg width="24" height="24" viewBox="0 0 24 24" fill="none" xmlns="http://www.w3.org/2000/svg">
<g clip-path="url(#clip0_1032_3505)">
<path d="M23.88 9.99999C23.7598 8.97691 23.525 7.97059 23.18 6.99999C22.5109 5.20542 21.337 3.64264 19.8 2.49999C18.2886 1.36742 16.5053 0.653418 14.63 0.429991C14.539 0.421171 14.4482 0.447258 14.3757 0.502965C14.3033 0.558672 14.2548 0.639832 14.24 0.729991C14.2314 0.819785 14.2578 0.909431 14.3137 0.98023C14.3696 1.05103 14.4506 1.09752 14.54 1.10999C16.2908 1.35432 17.9445 2.06207 19.33 3.15999C20.71 4.23692 21.7514 5.68787 22.33 7.33999C22.6569 8.24201 22.8817 9.17787 23 10.13C23.0852 11.0848 23.0852 12.0452 23 13C22.9086 13.9418 22.6899 14.8669 22.35 15.75C22.0192 16.6403 21.5863 17.4893 21.06 18.28C19.9445 19.8752 18.3722 21.0954 16.55 21.78C14.7291 22.5071 12.7634 22.7982 10.81 22.63C9.72941 22.5372 8.6664 22.2984 7.64999 21.92C6.64244 21.5479 5.70569 21.0069 4.87999 20.32C2.80435 18.4788 1.46226 15.9508 1.09999 13.2C0.640311 10.4448 1.27939 7.6192 2.87999 5.32999C3.72633 4.15466 4.78441 3.14744 5.99999 2.35999C7.23208 1.59558 8.62585 1.12985 10.07 0.999991C10.78 0.929991 11.48 0.869991 12.19 0.869991C12.6581 0.870172 13.1257 0.900233 13.59 0.959991C13.6306 0.970556 13.673 0.97247 13.7145 0.965607C13.7559 0.958745 13.7954 0.943261 13.8305 0.920156C13.8656 0.897051 13.8954 0.866841 13.9181 0.83148C13.9407 0.796119 13.9557 0.756395 13.962 0.714879C13.9684 0.673363 13.9659 0.63098 13.9548 0.590472C13.9437 0.549964 13.9243 0.512235 13.8977 0.479725C13.8711 0.447215 13.838 0.420649 13.8005 0.401747C13.763 0.382844 13.7219 0.372026 13.68 0.369991C13.1914 0.275653 12.6969 0.215507 12.2 0.189991C11.4654 0.183015 10.7309 0.216399 9.99999 0.289991C8.44916 0.42211 6.95 0.911562 5.61999 1.71999C4.29854 2.53354 3.13903 3.58457 2.19999 4.81999C0.406506 7.26919 -0.344868 10.3286 0.109987 13.33C0.464983 16.3507 1.90404 19.14 4.15999 21.18C5.08067 21.9608 6.12946 22.5766 7.25999 23C8.37756 23.4107 9.54418 23.6729 10.73 23.78C12.8662 23.9508 15.0128 23.6221 17 22.82C19.0201 22.024 20.7477 20.628 21.95 18.82C22.5113 17.9522 22.971 17.0228 23.32 16.05C23.6688 15.0833 23.8874 14.0744 23.97 13.05C24.0298 12.0327 23.9997 11.012 23.88 9.99999Z" fill="black"/>
<path d="M18.78 7.73996C18.4948 7.61135 18.1819 7.55634 17.87 7.57996C17.4387 7.48768 17.0005 7.43083 16.56 7.40996C16.1271 7.38003 15.6928 7.38003 15.26 7.40996C14.61 7.46996 14 7.59996 13.37 7.61996C13.2919 7.61147 13.2136 7.63394 13.1518 7.68256C13.0901 7.73117 13.05 7.80205 13.04 7.87996C13.0344 7.92017 13.037 7.96109 13.0477 8.00024C13.0584 8.0394 13.0769 8.07597 13.1022 8.10776C13.1274 8.13955 13.1588 8.16588 13.1946 8.18517C13.2303 8.20445 13.2695 8.21629 13.31 8.21997C14.0317 8.39182 14.7686 8.4923 15.51 8.51997H16.33C16.172 8.78354 16.097 9.08859 16.1148 9.39538C16.1327 9.70216 16.2425 9.99647 16.43 10.24C16.5929 10.457 16.8055 10.6319 17.05 10.75C17.2898 10.9025 17.5644 10.9917 17.8481 11.0092C18.1318 11.0267 18.4153 10.972 18.6721 10.8501C18.9288 10.7282 19.1505 10.5432 19.3163 10.3123C19.482 10.0814 19.5865 9.81223 19.62 9.52996C19.6841 9.18127 19.6376 8.82124 19.487 8.50028C19.3363 8.17932 19.0891 7.91348 18.78 7.73996Z" fill="black"/>
<path d="M3.77997 8.17997C3.78999 8.25788 3.83016 8.32876 3.89187 8.37737C3.95357 8.42599 4.03188 8.44846 4.10997 8.43997C4.87997 8.43997 5.67998 8.48997 6.50997 8.48997H7.26997C7.12334 8.65196 7.01168 8.84245 6.94194 9.04952C6.87221 9.2566 6.8459 9.47583 6.86467 9.69353C6.88344 9.91122 6.94687 10.1227 7.05102 10.3148C7.15516 10.5069 7.29778 10.6755 7.46997 10.81C7.71023 10.9475 7.97553 11.0357 8.25033 11.0694C8.52512 11.1031 8.80387 11.0816 9.07024 11.0062C9.33662 10.9307 9.58525 10.8029 9.80156 10.6301C10.0179 10.4573 10.1975 10.2431 10.33 9.99997C10.4474 9.74542 10.5022 9.46652 10.4901 9.18648C10.4779 8.90644 10.399 8.63336 10.26 8.38997C10.3173 8.35253 10.3619 8.29867 10.3881 8.23544C10.4143 8.17221 10.4208 8.10254 10.4068 8.03556C10.3927 7.96857 10.3588 7.90738 10.3094 7.85999C10.26 7.81261 10.1975 7.78123 10.13 7.76997C9.43632 7.55506 8.72268 7.41099 7.99997 7.33997H7.07997C6.7688 7.3434 6.45816 7.36678 6.14997 7.40997C5.42997 7.51997 4.72997 7.69997 4.05997 7.86997C3.98217 7.87511 3.90942 7.91036 3.85715 7.96823C3.80489 8.02609 3.77721 8.10204 3.77997 8.17997Z" fill="black"/>
<path d="M6.27997 18.34C6.35686 18.3581 6.43778 18.3451 6.50518 18.3039C6.57258 18.2628 6.62101 18.1967 6.63997 18.12C6.75162 17.769 6.90612 17.4331 7.09997 17.12C7.31147 16.7941 7.54537 16.4834 7.79997 16.19C8.52896 15.3245 9.51809 14.7176 10.62 14.46C11.3466 14.2868 12.0981 14.2428 12.84 14.33C13.5912 14.4224 14.3233 14.6316 15.01 14.95C16.054 15.424 16.9594 16.1572 17.64 17.08C17.9511 17.4712 18.2415 17.8784 18.51 18.3C18.6596 18.5552 18.7581 18.8371 18.8 19.13C18.8101 19.2211 18.8555 19.3047 18.9266 19.3627C18.9977 19.4206 19.0886 19.4484 19.18 19.44C19.2693 19.4275 19.3504 19.381 19.4063 19.3102C19.4622 19.2394 19.4886 19.1498 19.48 19.06C19.4493 18.6734 19.3441 18.2965 19.17 17.95C18.94 17.49 18.63 17.06 18.35 16.61C17.5261 15.3063 16.3219 14.2871 14.9 13.69C14.2859 13.4361 13.6399 13.2679 12.98 13.19C12.0917 13.0737 11.1889 13.1453 10.33 13.4C9.0441 13.7872 7.92917 14.6022 7.16997 15.71C6.86678 16.1143 6.60228 16.5462 6.37997 17C6.23661 17.3214 6.12605 17.6564 6.04997 18C6.03793 18.0753 6.055 18.1523 6.09772 18.2155C6.14044 18.2786 6.20561 18.3231 6.27997 18.34Z" fill="black"/>
<path d="M5.33996 5.67001C5.57491 5.251 5.92095 4.90497 6.33996 4.67001C6.73567 4.42639 7.18596 4.28545 7.64996 4.26001C8.12657 4.20987 8.60775 4.29295 9.03996 4.50001C9.47443 4.66388 9.83139 4.98515 10.04 5.40001C10.0635 5.48824 10.1206 5.56376 10.1991 5.61047C10.2776 5.65718 10.3712 5.67137 10.46 5.65001C10.5034 5.63844 10.5442 5.61835 10.5798 5.5909C10.6155 5.56346 10.6454 5.52921 10.6677 5.49015C10.69 5.45108 10.7044 5.40797 10.7099 5.36331C10.7154 5.31866 10.7121 5.27335 10.7 5.23001C10.6199 4.89547 10.4733 4.58048 10.2689 4.30386C10.0644 4.02724 9.8063 3.79466 9.50996 3.62001C8.92526 3.25764 8.24765 3.07347 7.55996 3.09001C6.90612 3.17715 6.29143 3.4515 5.78996 3.88001C5.30675 4.29537 4.95855 4.84553 4.78996 5.46001C4.77769 5.4994 4.77341 5.54084 4.77737 5.5819C4.78132 5.62297 4.79344 5.66283 4.81299 5.69915C4.83255 5.73547 4.85916 5.76752 4.89127 5.79343C4.92337 5.81933 4.96032 5.83857 4.99996 5.85001C5.06874 5.86461 5.14046 5.85459 5.20261 5.82169C5.26475 5.78879 5.31336 5.73511 5.33996 5.67001Z" fill="black"/>
<path d="M16.34 2.99999C15.6078 2.98784 14.8964 3.24393 14.34 3.71999C14.0854 3.9543 13.8821 4.23871 13.7427 4.55535C13.6033 4.87199 13.5309 5.21402 13.53 5.55999C13.5215 5.63808 13.5439 5.71639 13.5926 5.77809C13.6412 5.8398 13.712 5.87997 13.79 5.88999C13.8294 5.8956 13.8696 5.89331 13.9081 5.88323C13.9467 5.87315 13.9828 5.85549 14.0145 5.83129C14.0461 5.80708 14.0727 5.77682 14.0925 5.74226C14.1123 5.70769 14.125 5.66953 14.13 5.62999C14.1873 5.38845 14.2943 5.16148 14.444 4.9635C14.5938 4.76552 14.7831 4.60086 15 4.47999C15.16 4.38787 15.3315 4.31726 15.51 4.26999C15.7719 4.18803 16.0457 4.15084 16.32 4.15999C16.7996 4.16696 17.2675 4.30907 17.67 4.56999C18.0982 4.79812 18.4235 5.18068 18.58 5.63999C18.5906 5.73016 18.6366 5.81243 18.7078 5.86869C18.7791 5.92495 18.8698 5.95059 18.96 5.93999C19.0501 5.92938 19.1324 5.88338 19.1887 5.81212C19.2449 5.74085 19.2706 5.65016 19.26 5.55999C19.1741 4.86085 18.8145 4.22431 18.26 3.78999C17.7143 3.33907 17.045 3.06368 16.34 2.99999Z" fill="black"/>
</g>
<defs>
<clipPath id="clip0_1032_3505">
<rect width="24" height="24" fill="white"/>
</clipPath>
</defs>
</svg>
