<svg width="24" height="24" viewBox="0 0 24 24" fill="none" xmlns="http://www.w3.org/2000/svg">
<g clip-path="url(#clip0_1032_3569)">
<path d="M9.17 5.59001C8.43346 5.68255 7.72099 5.91325 7.07 6.27001C6.79111 6.42798 6.53253 6.6194 6.3 6.84001C6.06134 7.05705 5.8498 7.30217 5.67 7.57001C5.25042 8.16485 4.91398 8.81418 4.67 9.50001C4.63022 9.58223 4.62473 9.67688 4.65473 9.76315C4.68474 9.84942 4.74779 9.92023 4.83 9.96001C4.91222 9.9998 5.00687 10.0053 5.09314 9.97528C5.17941 9.94528 5.25022 9.88223 5.29 9.80001C5.63846 9.24276 6.04398 8.72329 6.5 8.25001C6.69 8.05001 6.88 7.87001 7.08 7.69001C7.27073 7.5094 7.47102 7.33915 7.68 7.18001C8.17691 6.7712 8.72902 6.43455 9.32 6.18001C9.39824 6.16012 9.46538 6.10996 9.50663 6.04058C9.54789 5.97119 9.5599 5.88825 9.54 5.81001C9.52011 5.73177 9.46996 5.66464 9.40057 5.62338C9.33118 5.58213 9.24824 5.57012 9.17 5.59001Z" fill="black"/>
<path d="M16.71 7.00002C16.93 7.16002 17.14 7.32002 17.35 7.50002C17.5682 7.67352 17.7752 7.86056 17.97 8.06002C18.4554 8.52255 18.8819 9.04314 19.24 9.61002C19.2789 9.69048 19.3479 9.75239 19.4322 9.78233C19.5164 9.81228 19.609 9.80785 19.69 9.77002C19.7307 9.75165 19.7674 9.72543 19.798 9.69287C19.8286 9.66031 19.8525 9.62204 19.8682 9.58025C19.884 9.53846 19.8914 9.49396 19.89 9.44931C19.8886 9.40466 19.8784 9.36072 19.86 9.32002C19.605 8.60178 19.2407 7.92717 18.78 7.32002C18.5797 7.05645 18.3517 6.81507 18.1 6.60002C17.6757 6.22932 17.18 5.94937 16.6434 5.7774C16.1068 5.60542 15.5408 5.54506 14.98 5.60002C14.9004 5.60002 14.8241 5.63162 14.7679 5.68789C14.7116 5.74415 14.68 5.82045 14.68 5.90002C14.68 5.97958 14.7116 6.05589 14.7679 6.11215C14.8241 6.16841 14.9004 6.20002 14.98 6.20002C15.6116 6.32672 16.2044 6.60083 16.71 7.00002Z" fill="black"/>
<path d="M16.39 15.44C15.39 15.34 14.46 15.22 13.48 15.16H12.22H10.97C9.97 15.22 8.97 15.37 8.05 15.51C7.97044 15.51 7.89413 15.5416 7.83787 15.5978C7.78161 15.6541 7.75 15.7304 7.75 15.81C7.75 15.8895 7.78161 15.9658 7.83787 16.0221C7.89413 16.0784 7.97044 16.11 8.05 16.11C9 16.11 9.97 16.22 10.95 16.25H12.18H13.42C14.42 16.25 15.36 16.16 16.32 16.14C16.4112 16.1427 16.4998 16.1098 16.5671 16.0481C16.6343 15.9865 16.6748 15.901 16.68 15.81C16.6862 15.7233 16.66 15.6374 16.6064 15.569C16.5528 15.5007 16.4756 15.4546 16.39 15.44Z" fill="black"/>
<path d="M16 19C15.54 19 14.46 18.9 13.23 18.83L12.04 18.78H10.84C9.53997 18.78 8.42997 18.93 8.03997 18.94C7.99975 18.9373 7.9594 18.9427 7.92133 18.956C7.88326 18.9692 7.84824 18.99 7.81837 19.0171C7.7885 19.0441 7.7644 19.0769 7.74749 19.1135C7.73058 19.1501 7.72122 19.1897 7.71997 19.23C7.72882 19.3002 7.76142 19.3653 7.81235 19.4144C7.86329 19.4635 7.92949 19.4937 7.99997 19.5C8.39997 19.55 9.50997 19.73 10.81 19.83C11.2 19.83 11.61 19.88 12.02 19.88H13.22C14.48 19.83 15.59 19.72 16.06 19.65C16.1047 19.6463 16.1482 19.6337 16.188 19.613C16.2279 19.5923 16.2632 19.564 16.292 19.5296C16.3208 19.4952 16.3426 19.4554 16.3559 19.4126C16.3693 19.3698 16.3741 19.3247 16.37 19.28C16.3576 19.1941 16.3118 19.1164 16.2425 19.064C16.1732 19.0116 16.0861 18.9886 16 19Z" fill="black"/>
<path d="M1.78999 15.69C1.4817 14.8818 1.25719 14.0441 1.11999 13.19C0.935136 10.455 1.54643 7.725 2.87999 5.33C3.72633 4.15467 4.78441 3.14745 5.99999 2.36C7.23129 1.5939 8.62547 1.12803 10.07 1C10.78 0.930001 11.48 0.870001 12.19 0.870001C12.6581 0.870182 13.1257 0.900243 13.59 0.960001C13.6682 0.971504 13.7477 0.951701 13.8114 0.904892C13.875 0.858084 13.9177 0.78805 13.93 0.710001C13.9371 0.671125 13.9362 0.631205 13.9273 0.592695C13.9184 0.554184 13.9018 0.517895 13.8784 0.486055C13.8549 0.454215 13.8253 0.427496 13.7912 0.407539C13.757 0.387582 13.7192 0.374808 13.68 0.370001C13.1914 0.275663 12.6969 0.215517 12.2 0.190001C11.4656 0.179581 10.7311 0.209626 9.99999 0.280001C8.44943 0.420451 6.95139 0.912959 5.61999 1.72C4.29658 2.53093 3.13662 3.58236 2.19999 4.82C0.406506 7.2692 -0.344868 10.3286 0.109987 13.33C0.464983 16.3507 1.90404 19.14 4.15999 21.18C5.08067 21.9609 6.12946 22.5766 7.25999 23C8.38069 23.4117 9.55076 23.674 10.74 23.78C12.8729 23.95 15.0161 23.6213 17 22.82C19.0201 22.024 20.7477 20.628 21.95 18.82C22.5113 17.9522 22.971 17.0228 23.32 16.05C23.6688 15.0833 23.8874 14.0744 23.97 13.05C24.0284 12.049 23.9949 11.0448 23.87 10.05C23.7501 9.02783 23.5187 8.02184 23.18 7.05C22.5109 5.25543 21.337 3.69265 19.8 2.55C18.2939 1.39955 16.5102 0.668132 14.63 0.430001C14.539 0.42118 14.4482 0.447268 14.3757 0.502975C14.3033 0.558682 14.2548 0.639841 14.24 0.730001C14.2314 0.819794 14.2578 0.909441 14.3137 0.98024C14.3696 1.05104 14.4506 1.09753 14.54 1.11C16.2932 1.35637 17.9497 2.0638 19.34 3.16C20.718 4.23888 21.7589 5.68919 22.34 7.34L22.8 9.19C22.86 9.98 23.16 13.7 22.35 15.74L21.05 18.27C19.9309 19.8618 18.3598 21.0811 16.54 21.77C14.7191 22.4971 12.7534 22.7882 10.8 22.62C9.71941 22.5272 8.65639 22.2884 7.63999 21.91C6.63244 21.538 5.69569 20.9969 4.86999 20.31C3.41331 19.1046 2.3424 17.4982 1.78999 15.69Z" fill="black"/>
<path d="M21.08 10.43C20.8842 10.6041 20.7005 10.7912 20.53 10.99C20.2257 11.3325 19.9513 11.7006 19.71 12.09C19.6332 12.04 19.5488 12.0028 19.46 11.98C18.8505 11.8233 18.2279 11.7229 17.6 11.68C16.0601 11.5413 14.5158 11.4579 12.97 11.43C11.79 11.43 9.15999 11.5 7.18999 11.72C6.38603 11.7909 5.59359 11.9587 4.82999 12.22C4.51959 11.83 4.18563 11.4593 3.82999 11.11C3.64955 10.9296 3.45926 10.7594 3.25999 10.6C3.06585 10.4349 2.86216 10.2813 2.64999 10.14C2.37999 9.96003 2.12999 9.79003 1.88999 9.65003C1.44999 9.65003 0.999987 9.65003 1.74999 10.76L1.99999 11C2.17999 11.17 2.35999 11.34 2.55999 11.5C2.75999 11.66 2.94999 11.82 3.13999 11.97C3.56999 12.27 3.96999 12.52 4.25999 12.72C4.06993 13.004 3.92174 13.3138 3.81999 13.64C3.64174 14.2456 3.53435 14.8697 3.49999 15.5C3.47099 16.0196 3.47099 16.5404 3.49999 17.06C3.33999 18.85 3.74999 18.8 4.29999 18.21C4.25207 17.3307 4.25207 16.4494 4.29999 15.57C4.35838 15.0149 4.47914 14.4681 4.65999 13.94C4.76512 13.6336 4.93574 13.3538 5.15999 13.12C5.24399 13.061 5.33934 13.0202 5.43999 13C6.05396 12.8859 6.67578 12.819 7.29999 12.8C9.22999 12.64 11.81 12.57 12.97 12.58C13.82 12.58 15.45 12.58 16.87 12.7C17.69 12.75 19.36 12.81 19.42 13.05C19.5677 13.7079 19.6614 14.3768 19.7 15.05C19.7808 16.1047 19.7975 17.1633 19.75 18.22C19.96 18.86 20.25 18.7 20.58 17.48V15.01C20.5916 14.4429 20.5413 13.8762 20.43 13.32C20.3715 13.0821 20.2806 12.8533 20.16 12.64C20.43 12.4 20.85 12.1 21.28 11.75C21.47 11.59 21.66 11.43 21.85 11.25L22.12 10.99C22.87 9.78003 22.69 9.47003 21.93 9.73003L21.68 9.91003C21.4702 10.0717 21.2698 10.2453 21.08 10.43Z" fill="black"/>
</g>
<defs>
<clipPath id="clip0_1032_3569">
<rect width="24" height="24" fill="white"/>
</clipPath>
</defs>
</svg>
