<svg width="24" height="24" viewBox="0 0 24 24" fill="none" xmlns="http://www.w3.org/2000/svg">
<path fill-rule="evenodd" clip-rule="evenodd" d="M23.69 1.51998C22.81 1.41998 21.96 1.30998 21.1 1.24998C20.5104 1.2199 19.9196 1.2199 19.33 1.24998C18.8821 1.24292 18.4351 1.29333 18 1.39998C17.844 1.43609 17.7002 1.51228 17.5827 1.62102C17.4652 1.72975 17.3781 1.86727 17.33 2.01998C17.2797 2.26038 17.2496 2.50456 17.24 2.74998C17.32 3.58139 17.32 4.41856 17.24 5.24998C17.2064 5.43217 17.163 5.61243 17.11 5.78998C17.0915 5.86807 17.0536 5.94028 17 5.99998C16.91 6.05998 16.76 5.99998 16.62 5.99998H15.9C14.9756 5.92097 14.0474 5.89426 13.12 5.91998C12.6505 5.94439 12.1925 6.07427 11.78 6.29998C11.537 6.43614 11.3574 6.66245 11.28 6.92998C11.2251 7.30129 11.2251 7.67866 11.28 8.04998C11.287 8.66431 11.2603 9.27857 11.2 9.88998C11.1726 10.2451 11.0593 10.5883 10.87 10.89C10.82 10.97 10.71 10.96 10.6 10.97C10.33 10.97 10.04 10.97 9.82 11.04C8.87096 11.0931 7.92784 11.2236 7 11.43C6.5455 11.5575 6.1275 11.7905 5.78 12.11C5.58163 12.3038 5.46075 12.5634 5.44 12.84C5.43614 13.2079 5.45954 13.5755 5.51 13.94C5.57536 14.6045 5.59874 15.2725 5.58 15.94C5.56485 16.3107 5.46569 16.6732 5.29 17C5.25965 17.0427 5.21897 17.077 5.17175 17.0998C5.12453 17.1225 5.07232 17.1329 5.02 17.13H4.32C3.43383 17.1262 2.54843 17.183 1.67 17.3C1.24351 17.3739 0.839748 17.545 0.49 17.8C0.336069 17.9331 0.236423 18.1182 0.21 18.32C0.186035 18.5961 0.186035 18.8738 0.21 19.15L0 22.46C0 22.5395 0.0316071 22.6158 0.087868 22.6721C0.144129 22.7284 0.220435 22.76 0.3 22.76C0.379565 22.76 0.455871 22.7284 0.512132 22.6721C0.568393 22.6158 0.6 22.5395 0.6 22.46L0.89 19.16C0.89 18.98 1.15 18.48 0.97 18.36C1.33103 18.1467 1.74077 18.0296 2.16 18.02C2.92 17.94 3.75 18.02 4.36 18.02C4.74533 18.074 5.13676 18.0673 5.52 18C5.75177 17.9169 5.94896 17.7584 6.08 17.55C6.37042 17.0824 6.53889 16.5495 6.57 16C6.61002 15.3005 6.61002 14.5994 6.57 13.9V12.9C6.89373 12.6329 7.28463 12.46 7.7 12.4C8.46 12.23 9.3 12.22 9.97 12.12C10.3458 12.1085 10.7203 12.0684 11.09 12C11.3634 11.9192 11.6002 11.746 11.76 11.51C12.0341 11.0771 12.2083 10.5886 12.27 10.08C12.3324 9.41525 12.3558 8.74744 12.34 8.07998V7.26998C12.7216 7.09052 13.1383 6.99829 13.56 6.99998C14.36 6.99998 15.23 7.05998 15.87 6.99998C16.203 7.01984 16.537 7.01984 16.87 6.99998C17.0971 6.98232 17.3166 6.91029 17.51 6.78998C17.6675 6.66757 17.7942 6.51005 17.88 6.32998C18.0094 6.03076 18.0937 5.71397 18.13 5.38998C18.1785 5.14972 18.202 4.90508 18.2 4.65998C18.1142 3.84966 18.0875 3.03417 18.12 2.21998C18.38 2.42998 19.12 1.99998 19.35 1.97998C19.9096 1.95026 20.4704 1.95026 21.03 1.97998C21.88 1.97998 22.72 2.09998 23.59 2.17998C23.6346 2.18457 23.6798 2.18033 23.7228 2.16749C23.7658 2.15465 23.8058 2.13346 23.8407 2.10514C23.8755 2.07682 23.9044 2.04192 23.9257 2.00243C23.9471 1.96293 23.9604 1.91963 23.965 1.87498C23.9696 1.83033 23.9654 1.78521 23.9525 1.7422C23.9397 1.69919 23.9185 1.65913 23.8902 1.62431C23.8618 1.58949 23.8269 1.56058 23.7874 1.53925C23.748 1.51792 23.7046 1.50457 23.66 1.49998L23.69 1.51998Z" fill="black"/>
<path fill-rule="evenodd" clip-rule="evenodd" d="M22.08 10.27C20.88 11.36 19.72 12.48 18.63 13.68C17.91 14.47 17.23 15.3 16.53 16.12C15.83 16.94 15.14 17.81 14.46 18.69C14.13 19.12 13.83 19.57 13.54 20.02C13.5555 19.9306 13.5555 19.8393 13.54 19.75L13.27 17.39L13 15.08C12.9975 15.0409 12.9872 15.0028 12.9696 14.9679C12.952 14.9329 12.9275 14.9019 12.8976 14.8767C12.8677 14.8515 12.833 14.8326 12.7956 14.8211C12.7582 14.8096 12.7189 14.8058 12.68 14.81C12.6406 14.8125 12.602 14.8228 12.5666 14.8403C12.5312 14.8577 12.4995 14.882 12.4735 14.9118C12.4475 14.9415 12.4276 14.9761 12.415 15.0135C12.4024 15.051 12.3973 15.0905 12.4 15.13L12.5 17.48V19.79C12.4794 20.0529 12.4794 20.317 12.5 20.58C12.517 20.7312 12.572 20.8757 12.66 21C12.8762 21.2842 13.1962 21.4712 13.55 21.52C14.075 21.559 14.6029 21.5287 15.12 21.43C15.98 21.31 16.84 21.13 17.71 21.01C18.07 21.01 18.43 20.93 18.79 20.92L19.74 20.83C19.8262 20.8548 19.9187 20.8445 19.9974 20.8014C20.076 20.7584 20.1345 20.6859 20.16 20.6C20.1737 20.5573 20.1786 20.5123 20.1743 20.4677C20.1701 20.4231 20.1568 20.3798 20.1353 20.3405C20.1137 20.3012 20.0844 20.2667 20.0492 20.2391C20.0139 20.2115 19.9733 20.1914 19.93 20.18C19.7941 20.1376 19.6523 20.1173 19.51 20.12H18.8C18.4136 20.1 18.0264 20.1 17.64 20.12C16.76 20.12 15.88 20.25 15.01 20.3C14.81 20.3 14.53 20.36 14.23 20.37C14.42 20.12 14.6 19.87 14.81 19.63C15.64 18.63 16.58 17.74 17.43 16.83C18.12 16.01 18.83 15.21 19.5 14.38C20.17 13.55 20.81 12.7 21.5 11.88C21.84 11.47 22.19 11.07 22.55 10.67C22.6027 10.6127 22.632 10.5378 22.632 10.46C22.632 10.3821 22.6027 10.3072 22.55 10.25C22.5204 10.2157 22.4835 10.1886 22.442 10.1706C22.4004 10.1527 22.3554 10.1443 22.3102 10.1463C22.265 10.1482 22.2208 10.1603 22.1809 10.1817C22.1411 10.2032 22.1066 10.2333 22.08 10.27Z" fill="black"/>
</svg>
