<svg width="24" height="24" viewBox="0 0 24 24" fill="none" xmlns="http://www.w3.org/2000/svg">
<g clip-path="url(#clip0_1031_3190)">
<path fill-rule="evenodd" clip-rule="evenodd" d="M23.56 3.93999C23.5405 3.88892 23.511 3.84227 23.4733 3.80277C23.4355 3.76327 23.3902 3.73172 23.34 3.70999C23.27 3.70999 23.11 3.70999 23.04 3.64999L22.53 3.50999L21 3.12999H20.9C20.9885 2.88127 21.0619 2.62749 21.12 2.36999C21.2083 1.99232 21.2618 1.60739 21.28 1.21999C21.304 0.970561 21.304 0.719411 21.28 0.469986C21.2482 0.34172 21.1826 0.22432 21.09 0.129986C21.0086 0.060015 20.9091 0.0144465 20.803 -0.00147541C20.6968 -0.0173973 20.5884 -0.00302551 20.49 0.0399861C20.17 0.139986 19.42 0.489986 19.35 0.519986C18.76 0.789986 18.16 1.04999 17.6 1.34999C17.2075 1.56414 16.83 1.80469 16.47 2.06999C16.2086 2.22882 15.961 2.40946 15.73 2.60999C15.6107 2.70266 15.5205 2.82759 15.47 2.96999C15.3643 3.30287 15.3137 3.65078 15.32 3.99999C15.32 4.55999 15.41 5.17999 15.46 5.69999L15 6.07999C14.5546 6.4771 14.1306 6.8977 13.73 7.33999C12.8195 8.37281 11.9745 9.4616 11.2 10.6C11.1505 10.6684 11.1292 10.7532 11.1403 10.8369C11.1515 10.9207 11.1943 10.9969 11.26 11.05C11.2935 11.0757 11.3317 11.0946 11.3724 11.1055C11.4132 11.1164 11.4557 11.1192 11.4975 11.1136C11.5393 11.108 11.5796 11.0942 11.6161 11.073C11.6526 11.0518 11.6845 11.0236 11.71 10.99C12.6117 9.94194 13.5662 8.94064 14.57 7.98999C14.98 7.58999 15.42 7.21999 15.86 6.83999H15.95C16.31 6.83999 16.67 6.95999 17.03 7.03999C17.3687 7.12122 17.7026 7.22138 18.03 7.33999C18.2606 7.43423 18.498 7.51111 18.74 7.56999C18.9338 7.59976 19.132 7.57194 19.31 7.48999C19.6365 7.31953 19.9419 7.11145 20.22 6.86999C20.7382 6.34403 21.2966 5.85923 21.89 5.41999C22.11 5.26999 22.6 5.06999 22.96 4.83999C23.1773 4.71877 23.3625 4.54733 23.5 4.33999C23.5405 4.28262 23.5671 4.21657 23.5775 4.14711C23.5879 4.07765 23.5819 4.00672 23.56 3.93999ZM16.12 4.07999C16.23 3.19999 16.56 3.21999 17.04 2.91999C17.3784 2.69427 17.7289 2.48729 18.09 2.29999C18.64 1.99999 19.2 1.72999 19.77 1.44999L20.41 1.09999C20.4126 1.14328 20.4126 1.18669 20.41 1.22999C20.4388 1.5627 20.4388 1.89727 20.41 2.22999C20.3688 2.4997 20.312 2.76681 20.24 3.02999C20.24 3.02999 20.24 3.02999 20.16 3.02999C18.8397 3.52925 17.5867 4.19101 16.43 4.99999L16.08 5.27999C16.0718 4.87956 16.0851 4.47898 16.12 4.07999ZM21.38 4.54999C21.163 4.66906 20.9587 4.80978 20.77 4.96999C20.42 5.24999 20.1 5.57999 19.77 5.89999C18.64 7.02999 18.86 6.66999 18.3 6.53999C17.9205 6.45311 17.5366 6.38635 17.15 6.33999L16.47 6.26999L16.61 6.14999C20.54 2.87999 20.5 3.53999 22.21 4.19999C21.89 4.32999 21.56 4.44999 21.38 4.54999Z" fill="black"/>
<path fill-rule="evenodd" clip-rule="evenodd" d="M10.36 9.99998C10.433 9.98407 10.4966 9.93983 10.5369 9.87701C10.5772 9.81419 10.5909 9.73792 10.575 9.66498C10.5591 9.59205 10.5149 9.52842 10.452 9.4881C10.3892 9.44778 10.313 9.43407 10.24 9.44998C9.94965 9.51283 9.67502 9.63383 9.43269 9.8057C9.19036 9.97756 8.98534 10.1967 8.83002 10.45C8.65737 10.7233 8.55354 11.0343 8.52742 11.3565C8.50129 11.6787 8.55365 12.0025 8.68002 12.3C8.83994 12.6458 9.08733 12.944 9.39775 13.165C9.70817 13.3859 10.0709 13.5221 10.45 13.56C10.8139 13.6039 11.183 13.5646 11.5294 13.4451C11.8759 13.3256 12.1907 13.1289 12.45 12.87C12.5076 12.8072 12.5396 12.7252 12.5396 12.64C12.5396 12.5548 12.5076 12.4727 12.45 12.41C12.3889 12.353 12.3085 12.3214 12.225 12.3214C12.1415 12.3214 12.0611 12.353 12 12.41C11.8018 12.5491 11.5761 12.6443 11.3381 12.6891C11.1001 12.734 10.8553 12.7274 10.62 12.67C10.4099 12.6242 10.2139 12.5285 10.0485 12.391C9.88318 12.2535 9.75335 12.0782 9.67002 11.88C9.58392 11.7289 9.53454 11.5596 9.52586 11.3859C9.51717 11.2122 9.54943 11.0389 9.62002 10.88C9.67943 10.6918 9.77537 10.5173 9.90235 10.3663C10.0293 10.2153 10.1849 10.0908 10.36 9.99998Z" fill="black"/>
<path fill-rule="evenodd" clip-rule="evenodd" d="M11.88 8.06998C11.8856 8.03315 11.8839 7.99558 11.8748 7.95945C11.8658 7.92331 11.8496 7.88935 11.8272 7.85955C11.8049 7.82975 11.7768 7.80471 11.7447 7.78589C11.7125 7.76708 11.6769 7.75487 11.64 7.74998C11.2644 7.7094 10.8856 7.7094 10.51 7.74998C10.1241 7.77767 9.74385 7.85843 9.38 7.98998C8.57363 8.27784 7.86459 8.78692 7.33404 9.45895C6.80349 10.131 6.47286 10.9388 6.38 11.79C6.27757 12.6779 6.50091 13.5728 7.00852 14.3085C7.51614 15.0442 8.27353 15.5706 9.14 15.79C10.1798 16.0963 11.2896 16.0679 12.3125 15.709C13.3353 15.3501 14.2195 14.6788 14.84 13.79C15.274 13.2797 15.5609 12.6609 15.67 12C15.7055 11.6382 15.6642 11.273 15.5487 10.9284C15.4333 10.5837 15.2463 10.2673 15 9.99998C14.9745 9.96638 14.9426 9.93816 14.9061 9.91694C14.8696 9.89573 14.8293 9.88194 14.7875 9.87636C14.7457 9.87078 14.7031 9.87353 14.6624 9.88445C14.6216 9.89537 14.5834 9.91424 14.55 9.93998C14.5167 9.96459 14.4887 9.99562 14.4676 10.0312C14.4465 10.0668 14.4328 10.1063 14.4272 10.1473C14.4216 10.1883 14.4243 10.23 14.4351 10.27C14.4459 10.31 14.4645 10.3474 14.49 10.38C14.6714 10.5809 14.8102 10.8165 14.8978 11.0727C14.9855 11.3288 15.0203 11.6 15 11.87C14.8843 12.3967 14.6365 12.8854 14.28 13.29C13.7201 13.9839 12.9638 14.4928 12.11 14.75C11.2712 15.02 10.3688 15.02 9.53 14.75C8.893 14.5944 8.33329 14.2147 7.9532 13.6804C7.57311 13.1461 7.39804 12.4928 7.46 11.84C7.49061 11.1505 7.7089 10.4825 8.09131 9.90798C8.47373 9.33348 9.00576 8.87429 9.63 8.57998C9.93452 8.45589 10.2539 8.37185 10.58 8.32998C10.9117 8.28332 11.2483 8.28332 11.58 8.32998C11.6168 8.3327 11.6538 8.32812 11.6888 8.31651C11.7238 8.30491 11.7562 8.28649 11.784 8.26233C11.8119 8.23817 11.8348 8.20874 11.8512 8.17573C11.8677 8.14272 11.8775 8.10678 11.88 8.06998Z" fill="black"/>
<path fill-rule="evenodd" clip-rule="evenodd" d="M17.34 14.09C17.2932 14.0202 17.2208 13.9717 17.1384 13.9548C17.0561 13.938 16.9705 13.9542 16.9 14C16.8644 14.0223 16.8337 14.0515 16.8097 14.086C16.7858 14.1205 16.7691 14.1595 16.7607 14.2007C16.7523 14.2418 16.7523 14.2843 16.7608 14.3254C16.7692 14.3665 16.786 14.4055 16.81 14.44C17.3426 15.3007 17.7659 16.2245 18.07 17.19C18.2996 17.7609 18.3587 18.3862 18.24 18.99C18.0541 19.3914 17.7461 19.7239 17.36 19.94C16.7062 20.3171 16.0118 20.6191 15.29 20.84L11.77 22.04C10.7552 22.4732 9.68484 22.7626 8.59 22.9C7.90299 22.9643 7.21146 22.8398 6.59 22.54C6.51247 22.4872 6.45035 22.4147 6.41 22.33C6.3 22.16 6.23 21.98 6.15 21.83C5.93 21.41 5.72 20.98 5.52 20.54C5.32 20.1 5.14 19.66 4.96 19.21C4.08 17.01 3.05 14.59 2.26 12.15C1.73497 10.5728 1.36325 8.94857 1.15 7.29999C1.14626 7.26314 1.13525 7.22739 1.11761 7.19482C1.09996 7.16226 1.07603 7.13351 1.0472 7.11026C1.01836 7.08701 0.985202 7.06971 0.949636 7.05936C0.91407 7.04902 0.876804 7.04583 0.839998 7.04999C0.766627 7.05997 0.699856 7.09765 0.653372 7.15529C0.606889 7.21293 0.584214 7.28617 0.589998 7.35999C0.770565 9.0536 1.10529 10.7272 1.59 12.36C2.3 14.84 3.24 17.36 4.05 19.57C4.22 20.04 4.4 20.5 4.61 20.96C4.82 21.42 5.02 21.87 5.25 22.31C5.37591 22.603 5.53352 22.8813 5.72 23.14C5.84462 23.2953 6.0016 23.4215 6.18 23.51C6.95302 23.8878 7.81146 24.0567 8.67 24C9.86414 23.8288 11.0286 23.4922 12.13 23L15.6 21.7C16.378 21.4324 17.1228 21.0767 17.82 20.64C18.3523 20.3198 18.7664 19.8356 19 19.26C19.1475 18.5004 19.0675 17.7143 18.77 17C18.4134 15.9755 17.9332 14.9982 17.34 14.09Z" fill="black"/>
<path fill-rule="evenodd" clip-rule="evenodd" d="M0.890011 6.87C0.950559 6.83257 0.995228 6.77419 1.01551 6.70596C1.0358 6.63773 1.03028 6.56442 1.00001 6.5C0.952962 6.35958 0.942969 6.20939 0.971 6.06398C0.999032 5.91857 1.06414 5.78286 1.16001 5.67C1.35851 5.4094 1.59835 5.18307 1.87001 5C1.87001 5.36 1.97001 5.71 2.04001 6.07C2.24001 7.07 2.50001 8.12 2.70001 9.14C2.88001 9.99 3.06001 10.85 3.28001 11.71C3.62001 13 4.00001 14.28 4.45001 15.52C5.15649 17.5004 6.00883 19.4257 7.00001 21.28C6.92678 21.2855 6.85324 21.2855 6.78001 21.28C6.70483 21.2876 6.63558 21.3243 6.58702 21.3822C6.53846 21.4401 6.51442 21.5146 6.52001 21.59C6.52255 21.6268 6.53233 21.6627 6.5488 21.6957C6.56526 21.7288 6.58809 21.7582 6.61597 21.7824C6.64385 21.8065 6.67622 21.8249 6.71124 21.8365C6.74626 21.8481 6.78322 21.8527 6.82001 21.85C8.02478 21.8218 9.22107 21.6403 10.38 21.31C10.84 21.18 11.29 21.04 11.74 20.88C12.4 20.64 13.05 20.36 13.74 20.1C14.58 19.72 15.42 19.36 16.24 18.97C16.8 18.7 17.34 18.43 17.88 18.12C17.9523 18.0797 18.0061 18.0129 18.0302 17.9338C18.0543 17.8546 18.0468 17.7692 18.0093 17.6954C17.9718 17.6217 17.9071 17.5653 17.829 17.5382C17.7508 17.5111 17.6651 17.5153 17.59 17.55C17.04 17.8 16.49 18.02 15.93 18.23C15.08 18.54 14.22 18.83 13.35 19.12L11.05 20C10.3 20.29 9.56001 20.6 8.79001 20.83C8.43001 20.94 8.06001 21.04 7.68001 21.12C6.98342 19.5758 6.36596 17.9971 5.83001 16.39C5.41001 15.2 5.00001 14 4.67001 12.71C4.34001 11.42 3.91001 10.2 3.58001 9C3.30001 8 3.00001 7 2.68001 6C2.57001 5.58 2.47001 5.16 2.39001 4.74C2.66001 4.58 2.95001 4.43 3.27001 4.27L3.66001 4.11L4.34001 5C4.42001 5.11 4.50001 5.27 4.58001 5.4C4.64361 5.4887 4.72131 5.5664 4.81001 5.63C4.94381 5.7335 5.11138 5.78341 5.28001 5.77C5.59563 5.75654 5.90982 5.71978 6.22001 5.66C6.53132 5.62173 6.83901 5.55819 7.14001 5.47C7.78001 5.27 8.40001 5 9.05001 4.85C9.33904 4.79175 9.6232 4.71152 9.90001 4.61C10.061 4.55349 10.2007 4.44873 10.3 4.31C10.3775 4.16779 10.4251 4.01126 10.44 3.85C10.44 3.61 10.44 3.31 10.49 3.13C10.5308 2.83634 10.5909 2.54571 10.67 2.26C10.67 2.12 10.75 2 10.79 1.86L11.79 1.68C12.04 1.68 12.24 1.9 12.43 2.17C12.77 2.68071 13.0454 3.23157 13.25 3.81C13.2753 3.8908 13.3316 3.95828 13.4066 3.99764C13.4816 4.037 13.5691 4.04504 13.65 4.02C13.7293 3.99253 13.7952 3.93588 13.8342 3.86157C13.8732 3.78726 13.8824 3.70087 13.86 3.62C13.6424 2.84875 13.3049 2.11649 12.86 1.45C12.7349 1.26233 12.5654 1.10847 12.3665 1.00205C12.1676 0.895641 11.9456 0.839975 11.72 0.839996C11.36 0.839996 10.97 0.919996 10.58 0.979996H10.5C9.37682 1.14098 8.26469 1.37142 7.17001 1.67C6.27479 1.92078 5.39636 2.22807 4.54001 2.59C3.96445 2.83773 3.40353 3.11819 2.86001 3.43C1.05001 4.48 1.07884e-05 5.69 0.520011 6.72C0.550736 6.78763 0.606245 6.84089 0.675088 6.8688C0.743932 6.89671 0.820862 6.89714 0.890011 6.87ZM4.89001 3.56C5.69001 3.26 6.56001 2.98 7.43001 2.72C8.30001 2.46 9.13001 2.24 9.94001 2.05C9.83001 2.35 9.73001 2.66 9.65001 2.97C9.50001 3.65 9.65001 3.63 8.78001 3.84L6.03001 4.64C5.10001 4.89 5.30001 4.89 4.90001 4.49L4.28001 3.8L4.89001 3.56Z" fill="black"/>
</g>
<defs>
<clipPath id="clip0_1031_3190">
<rect width="24" height="24" fill="white"/>
</clipPath>
</defs>
</svg>
