<svg width="24" height="24" viewBox="0 0 24 24" fill="none" xmlns="http://www.w3.org/2000/svg">
<g clip-path="url(#clip0_1031_3184)">
<path fill-rule="evenodd" clip-rule="evenodd" d="M7.54001 14.18C7.84486 14.3916 8.10625 14.6598 8.31001 14.97C8.68001 15.49 8.97001 16.08 9.31001 16.59C9.36722 16.6757 9.45532 16.736 9.55592 16.7584C9.65652 16.7807 9.76187 16.7634 9.85001 16.71C9.93669 16.6562 9.99884 16.5706 10.0231 16.4715C10.0474 16.3724 10.032 16.2678 9.98001 16.18C9.62001 15.54 9.33001 14.79 8.91001 14.18C8.7073 13.8671 8.45773 13.5871 8.17001 13.35C7.91796 13.109 7.60068 12.9474 7.25757 12.8852C6.91445 12.8229 6.56062 12.8629 6.24001 13C5.48631 13.4419 4.87542 14.0909 4.48001 14.87C4.09001 15.57 3.68001 16.29 3.29001 17.03C2.90001 17.77 2.53001 18.45 2.10001 19.14C1.54395 20.0501 0.87162 20.8838 0.100006 21.62C0.0388298 21.6849 0.00476074 21.7708 0.00476074 21.86C0.00476074 21.9492 0.0388298 22.0351 0.100006 22.1C0.163734 22.1635 0.250036 22.1992 0.340006 22.1992C0.429976 22.1992 0.516278 22.1635 0.580006 22.1C1.48626 21.4071 2.29961 20.6005 3.00001 19.7C3.51408 19.0366 3.99146 18.3456 4.43001 17.63C4.87001 16.92 5.26001 16.18 5.66001 15.48C5.86662 14.8965 6.2341 14.3834 6.72001 14C6.85945 13.9474 7.01114 13.9365 7.15669 13.9684C7.30225 14.0004 7.4354 14.0739 7.54001 14.18Z" fill="black"/>
<path fill-rule="evenodd" clip-rule="evenodd" d="M15.22 8.45001C14.9822 8.55988 14.7603 8.70114 14.56 8.87001C13.4497 10.0593 12.5228 11.4074 11.81 12.87C11.81 12.97 11.76 13.08 11.73 13.18C11.7203 13.2194 11.7203 13.2606 11.73 13.3C11.4388 14.5119 11.0816 15.707 10.66 16.88C10.3372 17.67 9.93871 18.4269 9.47003 19.14C8.76427 20.2332 7.99634 21.2849 7.17003 22.29C7.13735 22.3209 7.11131 22.3581 7.09351 22.3993C7.07571 22.4406 7.06653 22.4851 7.06653 22.53C7.06653 22.575 7.07571 22.6194 7.09351 22.6607C7.11131 22.702 7.13735 22.7392 7.17003 22.77C7.23497 22.8312 7.32082 22.8653 7.41003 22.8653C7.49925 22.8653 7.5851 22.8312 7.65003 22.77C8.54183 21.7817 9.37652 20.7434 10.15 19.66C10.6847 18.9246 11.15 18.1413 11.54 17.32C11.9324 16.4156 12.2664 15.4871 12.54 14.54C12.7464 14.7569 12.978 14.9483 13.23 15.11C13.4931 15.2694 13.788 15.369 14.0939 15.4018C14.3998 15.4347 14.7091 15.3999 15 15.3C15.1884 15.2307 15.3666 15.1366 15.53 15.02C15.6937 14.9029 15.8445 14.7688 15.98 14.62L16.39 14.86C16.9384 15.0842 17.528 15.1898 18.12 15.17C18.5533 15.137 18.9769 15.0252 19.37 14.84C19.85 16.03 20.37 17.23 20.88 18.39C21.5349 19.8504 22.3679 21.2241 23.36 22.48C23.4276 22.5435 23.5155 22.5809 23.6081 22.5854C23.7006 22.5899 23.7918 22.5614 23.8652 22.5048C23.9386 22.4482 23.9895 22.3674 24.0087 22.2767C24.0279 22.186 24.0142 22.0915 23.97 22.01C23.0711 20.7713 22.3257 19.4281 21.75 18.01C20.83 15.86 20.14 13.58 19.25 11.43C19.03 10.92 18.8 10.43 18.54 9.92001C18.051 9.31483 17.4747 8.78571 16.83 8.35001C16.6816 8.24082 16.5041 8.17817 16.32 8.17001H16.16C15.8399 8.23897 15.5257 8.33258 15.22 8.45001ZM18.09 14.17C17.6554 14.1168 17.2365 13.9737 16.86 13.75C16.6657 13.617 16.4787 13.4734 16.3 13.32C16.1984 13.2627 16.0911 13.2158 15.98 13.18C15.8671 13.1484 15.7479 13.1465 15.634 13.1745C15.5201 13.2025 15.4154 13.2595 15.33 13.34C15.2406 13.4277 15.1571 13.5213 15.08 13.62C14.9896 13.7355 14.8855 13.8395 14.77 13.93C14.6849 14.0167 14.5828 14.0848 14.47 14.13C14.3095 14.1976 14.1354 14.2265 13.9617 14.2143C13.788 14.2022 13.6195 14.1493 13.47 14.06C13.2562 13.9526 13.055 13.8218 12.87 13.67C12.87 13.55 12.95 13.42 13 13.29C13.8722 11.894 14.9134 10.6109 16.1 9.47001C16.1 9.64001 17.91 11.47 18.1 11.91C18.43 12.62 18.72 13.35 19.01 14.08C18.7117 14.1672 18.3996 14.1977 18.09 14.17Z" fill="black"/>
<path fill-rule="evenodd" clip-rule="evenodd" d="M14.87 6.21C14.92 6.48 14.97 6.87 15.03 7.21C15.28 7.66 15.91 8.02 16.1 7.03V6.9C16.6438 6.87168 17.1833 6.78791 17.71 6.65C17.9842 6.57561 18.2518 6.47861 18.51 6.36C18.7642 6.23361 19.0112 6.0934 19.25 5.94C19.8 5.56406 20.3035 5.12434 20.75 4.63C22 3.51 21.91 4 19.19 2.55C18.7402 2.28767 18.2762 2.05064 17.8 1.84C16.9647 1.47852 16.0828 1.23615 15.18 1.12C15.1373 1.10801 15.0927 1.10474 15.0487 1.11039C15.0047 1.11604 14.9623 1.1305 14.924 1.1529C14.8858 1.1753 14.8524 1.20519 14.8259 1.24077C14.7995 1.27635 14.7805 1.3169 14.77 1.36C14.7534 1.42784 14.7601 1.49931 14.7891 1.56284C14.8182 1.62636 14.8678 1.67822 14.93 1.71C14.8516 1.72838 14.782 1.77323 14.7328 1.83698C14.6836 1.90074 14.6579 1.97951 14.66 2.06C14.66 2.94 14.59 3.8 14.66 4.68C14.7 5.19 14.79 5.7 14.87 6.21ZM17 2.86C17.4477 3.12317 17.912 3.35699 18.39 3.56C18.9492 3.79439 19.5282 3.97845 20.12 4.11C19.8644 4.27014 19.6007 4.417 19.33 4.55C19.03 4.71 18.71 4.82 18.4 4.96C18.09 5.1 17.78 5.23 17.48 5.38C17.0134 5.61334 16.5434 5.83334 16.07 6.04C16.0616 5.74567 16.0382 5.45196 16 5.16C15.9712 4.82384 15.9211 4.48984 15.85 4.16C15.7 3.41 15.49 2.7 15.32 1.96V1.88C15.89 2.19 16.44 2.54 17 2.86Z" fill="black"/>
</g>
<defs>
<clipPath id="clip0_1031_3184">
<rect width="24" height="24" fill="white"/>
</clipPath>
</defs>
</svg>
