<svg width="24" height="24" viewBox="0 0 24 24" fill="none" xmlns="http://www.w3.org/2000/svg">
<g clip-path="url(#clip0_1050_8532)">
<path fill-rule="evenodd" clip-rule="evenodd" d="M22.66 15.09C21.85 13.86 17.58 9.68003 16.51 8.55003C14.84 6.78003 13.69 4.81003 11.51 4.32003C10.14 4.00003 3.20997 4.86003 4.30997 6.00003C4.34255 6.03329 4.38145 6.05971 4.42438 6.07775C4.46731 6.09578 4.5134 6.10508 4.55997 6.10508C4.60653 6.10508 4.65262 6.09578 4.69555 6.07775C4.73848 6.05971 4.77738 6.03329 4.80997 6.00003C5.28997 5.53003 8.69997 5.07003 11.33 5.17003C12.5359 5.59362 13.5666 6.40627 14.26 7.48003C15.71 9.30003 20.87 14.66 21.55 15.58C21.6705 15.7602 21.7743 15.951 21.86 16.15C20.4941 18.232 18.8335 20.1048 16.93 21.71C16.2793 22.2467 15.5279 22.6479 14.72 22.89C13.2023 21.7465 11.7562 20.5108 10.39 19.19C8.7651 17.5654 7.22315 15.8599 5.76997 14.08C5.06501 13.0577 4.69465 11.8418 4.70997 10.6C4.70997 10.5178 4.67731 10.439 4.61917 10.3808C4.56103 10.3227 4.48218 10.29 4.39997 10.29C4.31775 10.29 4.2389 10.3227 4.18076 10.3808C4.12263 10.439 4.08997 10.5178 4.08997 10.6C4.21997 13.42 4.81997 14.12 6.63997 16.3C8.65472 18.9049 10.9784 21.2555 13.56 23.3C13.7612 23.5786 14.0477 23.7839 14.3761 23.885C14.7046 23.9861 15.057 23.9773 15.38 23.86C17.99 23.06 20.94 19.27 22.44 17.36C23 16.63 23.36 16.18 22.66 15.09Z" fill="black"/>
<path fill-rule="evenodd" clip-rule="evenodd" d="M8.72999 9.74C9.10999 8.68 9.21999 8.1 8.35999 7.43C8.12814 7.2354 7.85863 7.09074 7.56831 7.00507C7.27799 6.91939 6.97311 6.89455 6.67276 6.9321C6.3724 6.96964 6.08302 7.06877 5.82272 7.22327C5.56243 7.37777 5.33681 7.58432 5.15999 7.83C4.29184 7.3056 3.52609 6.62794 2.89999 5.83C1.73999 4.53 0.619995 2.36 1.91999 1.23C2.46999 0.740003 3.43999 1 4.38999 1.56C6.57999 2.81 6.49999 4.12 7.09999 3.76C7.93999 3.25 5.33999 1 4.23999 0.450003C1.64999 -0.859997 -0.100005 0.900003 0.189995 3.09C0.549995 5.75 2.65999 7.55 4.99999 8.71C5.45999 11.65 8.35999 10.81 8.72999 9.74ZM8.32999 8.87C8.29424 9.17245 8.15263 9.45249 7.93024 9.66055C7.70784 9.86862 7.41901 9.9913 7.11485 10.0069C6.8107 10.0224 6.51085 9.92988 6.26838 9.74561C6.0259 9.56134 5.85644 9.29722 5.78999 9C6.22999 9.16 6.62999 9.16 6.66999 8.9C6.70999 8.64 6.14999 8.36 5.75999 8.15C6.87999 6.81 8.56999 8.05 8.32999 8.87Z" fill="black"/>
<path fill-rule="evenodd" clip-rule="evenodd" d="M23.07 6.62002C19.52 5.09002 20.48 5.51002 15.52 4.16002C15.44 4.16002 14.93 3.91002 14.65 4.10002C14.6048 4.14308 14.5723 4.19775 14.5561 4.25805C14.5399 4.31834 14.5407 4.38192 14.5582 4.44183C14.5758 4.50174 14.6095 4.55565 14.6557 4.59767C14.7018 4.63968 14.7587 4.66818 14.82 4.68002C15.502 4.87918 16.1701 5.12304 16.82 5.41002C18.6794 6.27444 20.5935 7.01603 22.55 7.63002C23.38 8.00002 22 10.94 22.01 11.63C22.01 11.676 22.019 11.7215 22.0366 11.764C22.0542 11.8064 22.08 11.845 22.1125 11.8775C22.145 11.91 22.1836 11.9358 22.226 11.9534C22.2685 11.971 22.314 11.98 22.36 11.98C22.4059 11.98 22.4515 11.971 22.4939 11.9534C22.5364 11.9358 22.575 11.91 22.6075 11.8775C22.64 11.845 22.6657 11.8064 22.6833 11.764C22.7009 11.7215 22.71 11.676 22.71 11.63C22.74 10.8 25 7.68002 23.07 6.62002Z" fill="black"/>
<path fill-rule="evenodd" clip-rule="evenodd" d="M9.84998 12.22C9.76772 12.1744 9.69757 12.1097 9.64538 12.0314C9.59319 11.9531 9.56048 11.8635 9.54998 11.77C9.55878 11.717 9.55594 11.6628 9.54165 11.611C9.52736 11.5592 9.50196 11.5111 9.46723 11.4702C9.4325 11.4292 9.38926 11.3963 9.34051 11.3737C9.29177 11.3511 9.2387 11.3394 9.18498 11.3394C9.13126 11.3394 9.07819 11.3511 9.02944 11.3737C8.9807 11.3963 8.93746 11.4292 8.90273 11.4702C8.868 11.5111 8.8426 11.5592 8.82831 11.611C8.81402 11.6628 8.81118 11.717 8.81998 11.77C8.78957 12.0553 8.84945 12.3428 8.99119 12.5922C9.13292 12.8416 9.34936 13.0402 9.60998 13.16C9.76096 13.2286 9.92398 13.2667 10.0897 13.2721C10.2554 13.2776 10.4206 13.2502 10.5758 13.1917C10.7309 13.1332 10.873 13.0446 10.9938 12.9311C11.1147 12.8175 11.2119 12.6812 11.28 12.53C11.4092 12.3005 11.4812 12.0433 11.49 11.78C11.495 11.5518 11.4577 11.3247 11.38 11.11C11.13 10.42 10.77 9.96003 11.85 10.82C11.9066 10.8731 11.9801 10.9045 12.0576 10.9087C12.1351 10.913 12.2116 10.8898 12.2736 10.8432C12.3357 10.7967 12.3794 10.7297 12.397 10.6542C12.4146 10.5786 12.4051 10.4992 12.37 10.43C11.74 9.64003 10.99 8.94003 10.24 9.76003C10.1295 9.89949 10.0494 10.0604 10.0046 10.2326C9.95983 10.4048 9.95144 10.5844 9.97998 10.76C9.97998 11.09 10.19 11.39 10.24 11.76C10.2689 11.8579 10.2689 11.9621 10.24 12.06C10.13 12.2 9.99998 12.31 9.84998 12.22Z" fill="black"/>
<path fill-rule="evenodd" clip-rule="evenodd" d="M13.84 11.52C13.6081 11.5203 13.378 11.5609 13.16 11.64C12.8571 11.7524 12.5786 11.9221 12.34 12.14C12.0556 12.4203 11.7885 12.7175 11.54 13.03L11.07 13.57L10.54 14.21C10.4963 14.2745 10.4768 14.3525 10.4851 14.43C10.4933 14.5075 10.5287 14.5796 10.585 14.6335C10.6413 14.6874 10.7149 14.7196 10.7927 14.7245C10.8705 14.7293 10.9475 14.7065 11.01 14.66L11.62 14.13L11.76 14.02V14.12C11.7882 14.1871 11.8289 14.2482 11.88 14.3C11.9264 14.3485 11.9805 14.3891 12.04 14.42C12.2 14.52 12.34 14.55 12.5 14.64C12.27 14.87 12.03 15.12 11.81 15.32C11.7331 15.3823 11.6841 15.4727 11.6738 15.5711C11.6635 15.6696 11.6927 15.7681 11.755 15.845C11.8173 15.9219 11.9077 15.9709 12.0061 15.9812C12.1046 15.9916 12.2031 15.9623 12.28 15.9C12.73 15.58 13.28 15.21 13.74 14.8C14.0803 14.5053 14.3826 14.1694 14.64 13.8C14.8379 13.4367 14.9183 13.0209 14.87 12.61C14.8577 12.4339 14.8108 12.262 14.7318 12.1041C14.6529 11.9462 14.5435 11.8055 14.41 11.69C14.2384 11.5839 14.0417 11.5252 13.84 11.52ZM13.7 13.25C13.536 13.5632 13.3345 13.8554 13.1 14.12C13.0683 13.9581 13.018 13.8004 12.95 13.65C12.9197 13.5811 12.8792 13.5171 12.83 13.46C12.7841 13.4055 12.7302 13.3583 12.67 13.32C12.79 13.22 12.91 13.12 13.04 13.03C13.17 12.94 14.22 12.27 13.7 13.25Z" fill="black"/>
<path fill-rule="evenodd" clip-rule="evenodd" d="M15.35 14.46L13.94 15.46C13.6583 15.6966 13.4124 15.9728 13.21 16.28C13.1258 16.444 13.0818 16.6257 13.0818 16.81C13.0818 16.9944 13.1258 17.176 13.21 17.34L13.44 17.74L13.77 18.13C13.8342 18.1993 13.9224 18.2415 14.0167 18.2478C14.1109 18.2542 14.204 18.2242 14.2769 18.1641C14.3498 18.104 14.3969 18.0183 14.4086 17.9246C14.4204 17.8309 14.3958 17.7362 14.34 17.66L14.21 17.34L14.11 17V16.9C14.11 16.87 14.25 16.77 14.32 16.7L14.77 16.28L15.77 14.91C15.8098 14.8831 15.8431 14.8478 15.8678 14.8066C15.8926 14.7655 15.908 14.7194 15.913 14.6717C15.9181 14.6239 15.9127 14.5757 15.8972 14.5302C15.8817 14.4848 15.8565 14.4433 15.8233 14.4086C15.7901 14.3739 15.7497 14.3469 15.705 14.3294C15.6602 14.312 15.6123 14.3045 15.5643 14.3075C15.5164 14.3105 15.4697 14.3239 15.4275 14.3468C15.3853 14.3697 15.3486 14.4015 15.32 14.44L15.35 14.46Z" fill="black"/>
<path fill-rule="evenodd" clip-rule="evenodd" d="M17.1 17.28L17.25 17.5C17.3118 17.5652 17.3787 17.6254 17.45 17.68C18.26 18.32 18.39 18.25 18.54 18.14C18.69 18.03 18.86 17.99 18.37 16.95C18.3263 16.8578 18.2726 16.7706 18.21 16.69C18.1432 16.6099 18.0658 16.5393 17.98 16.48C17.17 15.94 16.98 16.05 15.82 16.98C15.69 17.08 15.6 17.21 15.48 17.32C15.35 17.45 15.21 17.57 15.09 17.71C14.9673 17.8765 14.8602 18.0539 14.77 18.24C14.6816 18.4308 14.6404 18.64 14.65 18.85C14.6736 19.0975 14.7596 19.3349 14.9 19.54C15.03 19.72 15.69 20.54 16.06 20.12C16.43 19.7 15.95 19.6 15.75 19.17C15.7188 19.0656 15.7188 18.9544 15.75 18.85L15.95 18.63L16.05 18.71C16.86 19.22 16.99 19.13 17.12 19.01C17.25 18.89 17.36 18.75 16.91 17.91C16.8717 17.8324 16.821 17.7614 16.76 17.7L17.14 17.24C17.1319 17.2578 17.1177 17.272 17.1 17.28Z" fill="black"/>
</g>
<defs>
<clipPath id="clip0_1050_8532">
<rect width="24" height="24" fill="white"/>
</clipPath>
</defs>
</svg>
