<svg width="24" height="24" viewBox="0 0 24 24" fill="none" xmlns="http://www.w3.org/2000/svg">
<g clip-path="url(#clip0_1050_8520)">
<path fill-rule="evenodd" clip-rule="evenodd" d="M4.82 14.46C4.95497 14.4472 5.08872 14.4238 5.22 14.39L5.56 14.28C5.57691 14.4448 5.60362 14.6084 5.64 14.77C5.78078 15.3593 5.96461 15.9375 6.19 16.5C6.20182 16.546 6.22257 16.5891 6.25108 16.6271C6.27959 16.665 6.31529 16.697 6.35615 16.7211C6.39701 16.7453 6.44222 16.7611 6.48921 16.7678C6.5362 16.7745 6.58404 16.7718 6.63 16.76C6.67596 16.7482 6.71915 16.7274 6.75709 16.6989C6.79503 16.6704 6.82698 16.6347 6.85113 16.5938C6.87527 16.553 6.89113 16.5078 6.8978 16.4608C6.90447 16.4138 6.90182 16.366 6.89 16.32C6.81 15.73 6.81 15.15 6.77 14.56C6.77 14.17 6.77 13.79 6.67 13.4C6.59 12.75 6.44 12.12 6.39 11.4C6.39015 11.3158 6.35814 11.2348 6.30052 11.1734C6.24289 11.1121 6.16401 11.0751 6.08 11.07C6.03847 11.0673 5.99682 11.073 5.95753 11.0867C5.91824 11.1004 5.88213 11.122 5.85133 11.15C5.82053 11.178 5.79569 11.2119 5.77828 11.2497C5.76087 11.2875 5.75125 11.3284 5.75 11.37C5.6161 11.9626 5.52585 12.5642 5.48 13.17C5.48513 13.1964 5.48513 13.2236 5.48 13.25L5.11 13.2H4.71C4.57114 13.2078 4.4336 13.2313 4.3 13.27L4.13 13.34C4.06065 12.8962 4.01724 12.4488 4 12C4.01144 11.9165 3.98951 11.8319 3.93897 11.7645C3.88842 11.6971 3.81333 11.6524 3.73 11.64C3.64697 11.6311 3.56365 11.654 3.49684 11.7041C3.43003 11.7542 3.38471 11.8278 3.37 11.91C3.19034 12.4047 3.06624 12.9179 3 13.44C2.98503 13.6731 2.98503 13.9069 3 14.14C3.03222 14.3727 3.07898 14.6031 3.14 14.83C3.30217 15.3522 3.53428 15.85 3.83 16.31C3.87111 16.3962 3.94477 16.4625 4.03479 16.4944C4.12481 16.5263 4.2238 16.5211 4.31 16.48C4.39619 16.4389 4.46253 16.3652 4.49441 16.2752C4.52629 16.1852 4.52111 16.0862 4.48 16C4.40428 15.7377 4.34747 15.4704 4.31 15.2C4.31 14.94 4.31 14.69 4.25 14.43H4.43C4.55841 14.455 4.68928 14.465 4.82 14.46Z" fill="black"/>
<path fill-rule="evenodd" clip-rule="evenodd" d="M9.22002 10.42L9.33002 11.09L9.20002 11C8.99455 10.8476 8.79758 10.684 8.61002 10.51C8.46824 10.3646 8.31797 10.2277 8.16002 10.1C8.04994 10.0153 7.91825 9.96333 7.78002 9.94998C7.65898 9.93385 7.53621 9.96258 7.43489 10.0307C7.33357 10.0989 7.2607 10.2018 7.23002 10.32C6.98951 11.0618 6.92304 11.8491 7.03576 12.6208C7.14848 13.3925 7.43736 14.1279 7.88002 14.77C8.32716 15.3955 8.91256 15.9096 9.59071 16.272C10.2688 16.6345 11.0215 16.8357 11.79 16.86C11.8321 16.8627 11.8742 16.8571 11.9141 16.8434C11.954 16.8298 11.9907 16.8085 12.0223 16.7806C12.0539 16.7527 12.0797 16.7189 12.0982 16.681C12.1167 16.6432 12.1275 16.602 12.13 16.56C12.1329 16.4757 12.1035 16.3935 12.0477 16.3303C11.9919 16.2671 11.914 16.2276 11.83 16.22C11.1723 16.1829 10.5324 15.9927 9.96122 15.6646C9.39004 15.3364 8.90338 14.8794 8.54002 14.33C7.95917 13.4154 7.76496 12.3076 8.00002 11.25C8.22976 11.4883 8.47713 11.7089 8.74002 11.91C8.93636 12.0608 9.14743 12.1915 9.37002 12.3C9.5013 12.3743 9.63842 12.4379 9.78002 12.49C9.85758 12.5145 9.93936 12.5227 10.0202 12.5141C10.1011 12.5055 10.1794 12.4803 10.25 12.44C10.3186 12.3867 10.376 12.3204 10.4189 12.2449C10.4618 12.1694 10.4893 12.0862 10.5 12C10.5051 11.6889 10.4851 11.3779 10.44 11.07L10.34 10.29C10.0935 8.61087 10.3584 6.89645 11.1 5.36998C11.2 5.14998 11.31 4.91998 11.42 4.69998C11.3902 5.06604 11.3902 5.43392 11.42 5.79998C11.4425 6.29414 11.5867 6.77507 11.84 7.19998C12.0653 7.62618 12.4138 7.97465 12.84 8.19998C13.0786 8.30889 13.3378 8.36526 13.6 8.36526C13.8623 8.36526 14.1215 8.30889 14.36 8.19998L14.73 7.95998V8.05998C14.9262 8.34965 15.1001 8.65386 15.25 8.96998C15.3974 9.29508 15.5243 9.62907 15.63 9.96998C16.0288 11.1719 16.0739 12.4631 15.76 13.69C15.5597 14.3858 15.1021 14.9793 14.48 15.35C14.54 15.26 14.62 15.18 14.67 15.09C14.9233 14.5468 14.9901 13.9351 14.86 13.35C14.7724 13.0273 14.6175 12.7269 14.4055 12.4684C14.1935 12.2099 13.9292 11.9991 13.63 11.85C13.2059 11.6074 12.7147 11.5082 12.2297 11.5671C11.7446 11.626 11.2915 11.8398 10.9377 12.1768C10.5838 12.5137 10.3482 12.9559 10.2657 13.4375C10.1833 13.9191 10.2584 14.4145 10.48 14.85C10.6157 15.2273 10.8461 15.5634 11.149 15.826C11.452 16.0887 11.8173 16.2691 12.21 16.35C12.2285 16.431 12.2744 16.5032 12.34 16.5543C12.4056 16.6053 12.4869 16.6321 12.57 16.63C12.9899 16.6062 13.4077 16.5527 13.82 16.47C14.1056 16.4053 14.3837 16.3115 14.65 16.19C15.1113 15.9788 15.5222 15.6715 15.855 15.2886C16.1879 14.9058 16.4351 14.4562 16.58 13.97C16.9853 12.5755 16.9853 11.0945 16.58 9.69998C16.4738 9.31426 16.3401 8.93663 16.18 8.56998C16.0214 8.19614 15.8341 7.83507 15.62 7.48998C15.5162 7.30418 15.4027 7.12393 15.28 6.94998C15.1992 6.84862 15.0967 6.76662 14.98 6.70998C14.8751 6.68244 14.7649 6.68244 14.66 6.70998C14.42 6.70998 14.66 6.78998 13.87 7.23998C13.7763 7.28445 13.6738 7.30752 13.57 7.30752C13.4662 7.30752 13.3638 7.28445 13.27 7.23998C13.0503 7.12031 12.8697 6.93975 12.75 6.71998C12.6028 6.44617 12.5239 6.14084 12.52 5.82998C12.6102 4.86208 12.6102 3.88788 12.52 2.91998C12.4978 2.77772 12.4225 2.64915 12.3093 2.5601C12.1962 2.47106 12.0535 2.42814 11.91 2.43998C11.763 2.44013 11.6209 2.4934 11.51 2.58998C11.45 2.63998 11.36 2.76998 11.31 2.81998L10.87 3.31998C10.7196 3.5311 10.5826 3.75154 10.46 3.97998C10.28 4.29998 10.13 4.62998 9.98002 4.97998C9.57058 5.8477 9.29092 6.77091 9.15002 7.71998C9.04546 8.61876 9.06903 9.52783 9.22002 10.42ZM11.49 14.42C11.3671 14.1067 11.3715 13.7577 11.5022 13.4475C11.633 13.1374 11.8798 12.8907 12.19 12.76C12.3513 12.698 12.524 12.6713 12.6965 12.6816C12.869 12.692 13.0373 12.7392 13.19 12.82C13.3583 12.8833 13.5121 12.9797 13.6427 13.1033C13.7732 13.2269 13.8777 13.3754 13.95 13.54C14.0798 13.902 14.0798 14.2979 13.95 14.66C13.38 16.17 11.85 15.71 11.49 14.44V14.42Z" fill="black"/>
<path fill-rule="evenodd" clip-rule="evenodd" d="M23.79 10.62C23.196 9.05594 22.1075 7.72868 20.69 6.83997C19.3645 5.88538 17.8334 5.25516 16.22 4.99997C16.1249 4.9914 16.0302 5.01992 15.9557 5.07955C15.8811 5.13919 15.8325 5.22533 15.82 5.31997C15.8144 5.36729 15.8183 5.41525 15.8315 5.46106C15.8446 5.50686 15.8667 5.54961 15.8964 5.58682C15.9262 5.62403 15.9631 5.65496 16.0049 5.67781C16.0467 5.70067 16.0926 5.715 16.14 5.71997C17.6204 5.98652 19.0177 6.59614 20.22 7.49997C21.4546 8.30603 22.3976 9.48741 22.91 10.87C23.45 12.8 22.51 15.99 19.52 18.15C17.0729 19.7763 14.1761 20.5914 11.24 20.48C6.79 20.55 4 19.35 2.4 17.63C1.70364 16.8721 1.23929 15.9303 1.06204 14.9165C0.884789 13.9026 1.00208 12.8592 1.4 11.91C2.0236 10.332 3.05971 8.95046 4.4 7.90997C5.74998 6.88653 7.32873 6.20698 9 5.92997C9.08222 5.91671 9.1558 5.87133 9.20456 5.80381C9.25332 5.7363 9.27326 5.65218 9.26 5.56997C9.24674 5.48775 9.20136 5.41417 9.13385 5.36541C9.06634 5.31665 8.98222 5.29671 8.9 5.30997C7.09485 5.5577 5.37803 6.24443 3.9 7.30997C2.43825 8.40771 1.29004 9.8697 0.570001 11.55C0.0619721 12.6606 -0.113931 13.8944 0.0635039 15.1028C0.240938 16.3111 0.764134 17.4423 1.57 18.36C3.24 20.29 6.34 21.72 11.25 21.71C14.4348 21.8017 17.566 20.8771 20.19 19.07C23.57 16.54 24.46 12.82 23.79 10.62Z" fill="black"/>
<path fill-rule="evenodd" clip-rule="evenodd" d="M21.24 10.35C21.24 10.07 21.03 9.93999 19.66 9.93999C19.4902 9.92975 19.3199 9.92975 19.15 9.93999C18.9765 9.96342 18.8057 10.0036 18.64 10.06C18.64 10.06 17.18 10.55 17.31 10.98C17.39 11.23 17.48 11.22 18.75 11.2V11.93C18.75 12.18 18.75 12.25 18.8 12.41C18.85 12.57 18.86 12.74 18.89 12.9C19.17 14.19 19.16 14.41 19.5 14.41C19.67 14.41 19.97 14.41 20.03 12.8C20.045 12.617 20.045 12.433 20.03 12.25C20.0068 12.0708 19.97 11.8936 19.92 11.72C19.8404 11.5009 19.74 11.2899 19.62 11.09H19.82C21.11 10.73 21.27 10.65 21.24 10.35Z" fill="black"/>
</g>
<defs>
<clipPath id="clip0_1050_8520">
<rect width="24" height="24" fill="white"/>
</clipPath>
</defs>
</svg>
