<svg width="24" height="24" viewBox="0 0 24 24" fill="none" xmlns="http://www.w3.org/2000/svg">
<g clip-path="url(#clip0_1030_2643)">
<path fill-rule="evenodd" clip-rule="evenodd" d="M20 15.62C19.1518 14.5465 18.2402 13.5247 17.27 12.56L11.34 5.71001C11 5.31001 10.39 4.58001 9.82002 4.00001C9.57216 3.76166 9.2969 3.55354 9.00002 3.38001C8.0268 3.0482 7.0212 2.82026 6.00002 2.70001C5.00885 2.5286 4.0058 2.43499 3.00002 2.42001C2.74691 2.4053 2.49314 2.4053 2.24002 2.42001C2.15018 2.45685 2.06859 2.51125 2.00002 2.58001C1.96588 2.60956 1.93789 2.64554 1.91765 2.68591C1.89742 2.72627 1.88533 2.77023 1.88208 2.81526C1.87551 2.90622 1.90535 2.99606 1.96502 3.06501C2.0247 3.13397 2.10932 3.1764 2.20028 3.18296C2.29123 3.18952 2.38107 3.15969 2.45002 3.10001H3.11002C4.05723 3.12895 5.00042 3.23598 5.93002 3.42001C6.8468 3.54283 7.74832 3.76067 8.62002 4.07001C8.93948 4.27973 9.22881 4.53205 9.48002 4.82001C9.95002 5.32001 10.41 5.91001 10.7 6.25001L16.45 13.25C17 14 18 14.87 18.69 15.82C19.1121 16.3199 19.4255 16.9023 19.61 17.53C19.4947 17.7352 19.3608 17.9293 19.21 18.11C18.2149 19.2123 17.1165 20.2169 15.93 21.11C15.0837 21.8857 14.0862 22.4781 13 22.85C12.6627 22.8018 12.3521 22.6395 12.12 22.39C11.6339 21.9172 11.1796 21.4128 10.76 20.88C9.41002 19.35 7.06003 16.74 5.11002 14.49C4.18002 13.44 3.35002 12.49 2.75002 11.72C2.50002 11.42 2.20002 11.06 1.94002 10.72C1.78822 10.4973 1.66713 10.2551 1.58002 10C1.44547 9.58011 1.38127 9.14086 1.39002 8.70001C1.39002 7.97001 1.50002 7.24001 1.50002 6.55001V5.21001C1.51182 4.92787 1.54525 4.64704 1.60002 4.37001C1.60002 4.05001 1.88002 3.73001 1.81002 3.59001C1.78771 3.5312 1.7515 3.47866 1.70449 3.43687C1.65747 3.39508 1.60105 3.36528 1.54002 3.35001C1.46977 3.33692 1.39717 3.34629 1.33254 3.37681C1.26792 3.40733 1.21455 3.45744 1.18002 3.52001C1.09271 3.7489 1.0323 3.98717 1.00002 4.23001C0.929493 4.53898 0.885996 4.8535 0.870025 5.17001V6.54001C0.800025 7.35001 0.640025 8.22001 0.670025 9.07001C0.683601 9.4632 0.747453 9.85304 0.860025 10.23C0.967871 10.5443 1.11575 10.8435 1.30002 11.12C1.57002 11.52 1.87002 11.9 2.13002 12.23C2.88002 13.23 4.01002 14.59 5.21002 16.03C6.92002 18.03 8.80002 20.26 9.94002 21.61C10.458 22.3038 11.0516 22.9377 11.71 23.5C12.0761 23.7992 12.5279 23.9743 13 24C13.4744 23.9508 13.9321 23.7971 14.34 23.55C15.6922 22.7586 16.9618 21.834 18.13 20.79C18.939 20.111 19.6793 19.354 20.34 18.53C20.6106 18.2163 20.7565 17.8142 20.75 17.4C20.6181 16.7636 20.3633 16.159 20 15.62Z" fill="black"/>
<path fill-rule="evenodd" clip-rule="evenodd" d="M22.6 13.32C21.7965 12.2194 20.9283 11.1676 20 10.17C19.22 9.23001 17.87 7.54001 16.57 5.98001C15.68 4.90001 14.81 3.90001 14.22 3.22001C13.87 2.83001 13.22 2.10001 12.68 1.56001C12.4277 1.30272 12.1418 1.08072 11.83 0.900007C11.0496 0.623586 10.2416 0.432473 9.42001 0.330007C8.24467 0.120527 7.05382 0.0101387 5.86001 7.42357e-06C5.60371 -0.0194727 5.3463 -0.0194727 5.09001 7.42357e-06C4.97266 0.0230429 4.86278 0.0745523 4.77001 0.150007C4.7065 0.213736 4.67084 0.300038 4.67084 0.390007C4.67084 0.479977 4.7065 0.566279 4.77001 0.630007C4.83373 0.693516 4.92004 0.729176 5.01001 0.729176C5.09998 0.729176 5.18628 0.693516 5.25001 0.630007H5.92001C6.86455 0.677456 7.80401 0.797814 8.73001 0.990007C9.63781 1.12402 10.5293 1.35191 11.39 1.67001C11.698 1.87926 11.9742 2.13186 12.21 2.42001C12.68 2.92001 13.13 3.51001 13.41 3.85001C14.24 4.85001 15.6 6.50001 16.88 8.01001C17.81 9.09001 18.7 10.09 19.27 10.73C19.84 11.37 20.89 12.29 21.65 13.22C22.136 13.745 22.4953 14.3745 22.7 15.06C22.7 15.15 22.62 15.27 22.5 15.44C22.38 15.61 22.25 15.78 22.1 15.97C22.047 16.0297 22.0198 16.108 22.0245 16.1877C22.0292 16.2674 22.0653 16.342 22.125 16.395C22.1847 16.4481 22.263 16.4752 22.3427 16.4705C22.4224 16.4658 22.497 16.4297 22.55 16.37C22.7934 16.1215 23.0081 15.8465 23.19 15.55C23.3163 15.3728 23.3764 15.157 23.36 14.94C23.2123 14.3565 22.9543 13.8066 22.6 13.32Z" fill="black"/>
<path fill-rule="evenodd" clip-rule="evenodd" d="M4.54003 5.85001C4.57554 5.83035 4.60669 5.80369 4.6316 5.77164C4.65651 5.73959 4.67465 5.70282 4.68493 5.66356C4.69522 5.62429 4.69743 5.58335 4.69143 5.54321C4.68543 5.50306 4.67134 5.46456 4.65003 5.43001C4.6085 5.36296 4.54298 5.31426 4.46681 5.29383C4.39064 5.27339 4.30954 5.28275 4.24003 5.32001C3.92809 5.47912 3.66018 5.71268 3.46003 6.00001C3.26861 6.30148 3.15203 6.64434 3.12003 7.00001C3.0633 7.68729 3.27072 8.37033 3.70003 8.91001C3.92505 9.20753 4.21713 9.44772 4.5525 9.61106C4.88786 9.7744 5.25705 9.85627 5.63003 9.85001C5.96327 9.83028 6.28936 9.74505 6.58964 9.5992C6.88992 9.45335 7.1585 9.24974 7.38003 9.00001C7.59915 8.75107 7.76676 8.46117 7.87317 8.14706C7.97959 7.83296 8.02271 7.50088 8.00003 7.17001C7.98532 6.87403 7.90502 6.58502 7.76493 6.32387C7.62485 6.06273 7.42848 5.83597 7.19003 5.66001C6.95996 5.4837 6.6913 5.36456 6.40618 5.3124C6.12105 5.26025 5.82761 5.27656 5.55003 5.36001C5.4618 5.38357 5.38628 5.44068 5.33957 5.51915C5.29287 5.59761 5.27868 5.69123 5.30003 5.78001C5.31573 5.82471 5.34009 5.86586 5.37172 5.90112C5.40335 5.93638 5.44163 5.96505 5.48437 5.98549C5.5271 6.00593 5.57345 6.01773 5.62075 6.02022C5.66805 6.02272 5.71539 6.01585 5.76003 6.00001C5.93599 5.95762 6.11978 5.96013 6.29451 6.00731C6.46924 6.05449 6.62932 6.14482 6.76003 6.27001C6.88219 6.382 6.9772 6.52036 7.03785 6.67458C7.0985 6.8288 7.12318 6.99482 7.11003 7.16001C7.06908 7.54481 6.88746 7.90092 6.60003 8.16001C6.34282 8.44534 5.98353 8.6178 5.60003 8.64001C5.39668 8.65992 5.19149 8.63234 5.00061 8.55946C4.80972 8.48658 4.63837 8.37038 4.50003 8.22001C4.19383 7.88559 4.0166 7.45314 4.00003 7.00001C3.98064 6.77326 4.02207 6.54543 4.12003 6.34001C4.22228 6.14777 4.36569 5.98046 4.54003 5.85001Z" fill="black"/>
</g>
<defs>
<clipPath id="clip0_1030_2643">
<rect width="24" height="24" fill="white"/>
</clipPath>
</defs>
</svg>
