<svg width="24" height="24" viewBox="0 0 24 24" fill="none" xmlns="http://www.w3.org/2000/svg">
<g clip-path="url(#clip0_1051_8922)">
<path d="M17.57 19.69C16.5839 18.7069 15.9271 17.4421 15.69 16.07C15.4099 13.6976 15.3296 11.3058 15.45 8.91999C15.437 8.84856 15.3994 8.78395 15.3436 8.73744C15.2879 8.69092 15.2176 8.66544 15.145 8.66544C15.0724 8.66544 15.0021 8.69092 14.9464 8.73744C14.8906 8.78395 14.853 8.84856 14.84 8.91999C14.645 11.3561 14.645 13.8039 14.84 16.24C14.9593 16.9475 15.1503 17.6411 15.41 18.31C15.7221 18.9163 16.1047 19.4836 16.55 20C14.75 21 8.92 20.56 7.1 20.47C5.5 20.39 4.99 20.7 4.71 19.47C4.30391 16.5855 4.19 13.6674 4.37 10.76C4.54095 9.6621 4.59125 8.54881 4.52 7.43999C4.45 6.90999 3.93 7.15999 3.97 7.55999C3.62304 9.75721 3.42924 11.9759 3.39 14.2C3.36717 16.1532 3.49085 18.1053 3.76 20.04C3.83556 20.4124 4.02222 20.7532 4.29535 21.0174C4.56849 21.2816 4.91527 21.4568 5.29 21.52C5.85569 21.6082 6.42746 21.6517 7 21.65C9.43705 21.8788 11.889 21.9022 14.33 21.72C15.83 21.54 18.41 20.9 17.57 19.69Z" fill="black"/>
<path d="M5.62 7.43002C7.33 7.43002 14.42 7.73002 15.92 7.43002C16.0999 7.39239 16.266 7.30588 16.4 7.18002C16.7659 6.72858 17.02 6.1971 17.1417 5.62886C17.2633 5.06062 17.249 4.47169 17.1 3.91002C16.56 2.13002 14.89 2.14002 13 2.14002C11.11 2.14002 9.18 2.30002 7.85 2.24002C6.52 2.18002 4.63 2.24002 4.55 2.24002C3.08 2.08002 1.4 3.10002 0.739998 5.85002C0.365035 8.16749 0.124633 10.5047 0.0199983 12.85C-0.0371156 15.2953 0.0329791 17.742 0.229998 20.18C0.262696 20.2582 0.322652 20.3219 0.398736 20.3592C0.474819 20.3965 0.561863 20.405 0.643708 20.383C0.725553 20.361 0.79664 20.3101 0.843774 20.2396C0.890907 20.1692 0.910885 20.0841 0.899998 20C0.77773 16.7238 0.921535 13.443 1.33 10.19C1.61 8.19002 1.56 5.32002 2.91 3.89002C3.08786 3.64681 3.32486 3.45303 3.59856 3.32703C3.87226 3.20104 4.17359 3.147 4.47401 3.17003C4.77444 3.19306 5.06401 3.29241 5.3153 3.45865C5.5666 3.62489 5.77129 3.85254 5.91 4.12002C6.05624 4.54688 6.07255 5.00754 5.95684 5.44367C5.84113 5.8798 5.59862 6.27179 5.26 6.57002C5.12 6.66002 4.9 7.42002 5.62 7.43002ZM6.62 3.72002C6.18 2.91002 5.86 2.90002 6 2.90002C6.69 2.90002 7.36 2.98002 7.74 3.02002C9.62 3.21002 13.34 3.08002 15.04 3.41002C15.3141 3.45623 15.5636 3.59616 15.746 3.8059C15.9284 4.01563 16.0323 4.28218 16.04 4.56002C16.26 6.72002 15.19 6.36002 14.84 6.40002C12.65 6.63002 8.15 6.74002 5.95 6.79002C6.34314 6.39567 6.61443 5.89647 6.73147 5.35208C6.84851 4.80768 6.80634 4.24109 6.61 3.72002H6.62Z" fill="black"/>
<path d="M8.54 9.57C8.1215 9.91237 7.75441 10.3131 7.45 10.76C6.81 11.68 6.86 11.93 6.55 11.76C6.50304 11.7212 6.4487 11.6923 6.39025 11.6751C6.33181 11.6579 6.27049 11.6528 6.21 11.66C5.53 11.94 6.59 13.12 7.37 12.66C8.53 11.75 8.5 10.78 9 10.05C9.04359 9.9856 9.06379 9.90819 9.05722 9.8307C9.05065 9.75321 9.01772 9.68031 8.96391 9.62416C8.9101 9.56801 8.83867 9.53201 8.76153 9.52215C8.68438 9.5123 8.60619 9.52918 8.54 9.57Z" fill="black"/>
<path d="M10.76 12.45C11.429 12.4323 12.0966 12.3789 12.76 12.29C12.8502 12.29 12.9366 12.2542 13.0004 12.1904C13.0642 12.1266 13.1 12.0402 13.1 11.95C13.25 11.01 9.28998 11.28 9.22998 11.78C9.16998 12.28 10.6 12.43 10.76 12.45Z" fill="black"/>
<path d="M8.19999 14.5C7.60999 15.4 7.33 15.63 6.73 16.63C6.64049 16.6136 6.55322 16.5868 6.46999 16.55C6.45413 16.5126 6.43085 16.4789 6.40157 16.4508C6.37228 16.4227 6.3376 16.4008 6.29961 16.3865C6.26163 16.3722 6.22114 16.3657 6.18059 16.3675C6.14005 16.3693 6.10028 16.3793 6.06372 16.3969C6.02715 16.4146 5.99453 16.4394 5.96784 16.47C5.94115 16.5006 5.92095 16.5362 5.90844 16.5748C5.89594 16.6135 5.89141 16.6542 5.89511 16.6946C5.89882 16.735 5.91068 16.7743 5.92999 16.81C6.05933 17.0979 6.25873 17.3489 6.51 17.54C7.51 18.24 8.44999 15.92 8.81999 14.8C8.85978 14.7178 8.86527 14.6231 8.83526 14.5369C8.80526 14.4506 8.74221 14.3798 8.65999 14.34C8.57778 14.3002 8.48312 14.2947 8.39686 14.3247C8.31059 14.3547 8.23978 14.4178 8.19999 14.5Z" fill="black"/>
<path d="M13 17C13.0619 16.9334 13.0962 16.8459 13.0962 16.755C13.0962 16.6641 13.0619 16.5766 13 16.51C12.79 16.21 11.71 16.12 11.47 16.13C10.7472 16.1759 10.0322 16.3068 9.34001 16.52C9.23001 16.67 9.18001 16.79 9.28001 16.9C9.38001 17.01 9.15001 16.96 10.62 17.29C11.4197 17.2555 12.2154 17.1586 13 17Z" fill="black"/>
<path d="M23.86 3.21002C23.27 1.43002 20.92 2.34002 20.25 3.31002C20.1288 3.49059 20.0627 3.70255 20.06 3.92002C18.43 4.14002 18.39 6.61002 18.36 8.14002C18.43 10.35 18.36 10.97 18.79 10.93C19.22 10.89 19.11 10.53 19.42 8.20002C19.73 5.87002 19.52 5.20002 20.07 4.64002C20.15 4.64002 20.07 9.05002 20.26 9.49002C19.99 10.55 19.81 15.87 19.74 17.32C19.6734 17.8104 19.6534 18.3059 19.68 18.8C19.9063 19.6601 20.4445 20.4051 21.19 20.89C21.81 21.2 22.19 20.61 22.4 20.18C22.9557 19.5139 23.2475 18.667 23.22 17.8C23.22 15.46 23.16 17.15 23.42 9.32002C23.6248 8.74096 23.7395 8.13389 23.76 7.52002C23.89 6.21002 24.17 4.13002 23.86 3.21002ZM21.13 4.00002C21.3915 3.74411 21.7157 3.56136 22.07 3.47002C22.61 3.37002 22.63 3.32002 22.73 3.53002C22.8069 3.71077 22.8509 3.9038 22.86 4.10002C22.8974 5.71196 22.8406 7.3247 22.69 8.93002C22.6 8.93002 22.43 9.01002 22.37 9.01002H20.87C20.8 8.43002 20.78 9.76002 21.13 4.00002ZM21.41 19.64C21.1395 19.3544 20.9347 19.0131 20.81 18.64C20.89 16.02 20.63 11.91 20.81 9.75002C21.4247 9.81009 22.0427 9.83013 22.66 9.81002L22.19 16C22.09 18.74 22.2 18.39 21.41 19.6V19.64Z" fill="black"/>
</g>
<defs>
<clipPath id="clip0_1051_8922">
<rect width="24" height="24" fill="white"/>
</clipPath>
</defs>
</svg>
