<svg width="24" height="24" viewBox="0 0 24 24" fill="none" xmlns="http://www.w3.org/2000/svg">
<g clip-path="url(#clip0_1051_8891)">
<path fill-rule="evenodd" clip-rule="evenodd" d="M23.56 15.49C23.1039 14.4322 22.3088 13.5562 21.3 13C20.3126 12.43 19.19 12.1364 18.05 12.15C16.8055 12.1759 15.5812 12.4692 14.46 13.01C13.3099 13.5644 12.3572 14.4578 11.73 15.57C11.0847 16.9266 10.9429 18.4685 11.33 19.92C11.4749 20.6511 11.7783 21.3417 12.2189 21.9429C12.6595 22.5442 13.2265 23.0415 13.88 23.4C14.4506 23.6718 15.0622 23.8475 15.69 23.92C16.3071 24.0052 16.9329 24.0052 17.55 23.92C17.5869 23.9151 17.6225 23.9029 17.6547 23.8841C17.6868 23.8653 17.7149 23.8402 17.7372 23.8104C17.7596 23.7806 17.7758 23.7466 17.7848 23.7105C17.7939 23.6744 17.7956 23.6368 17.79 23.6C17.7865 23.5625 17.7752 23.5261 17.7568 23.4932C17.7384 23.4604 17.7133 23.4317 17.6832 23.4091C17.653 23.3865 17.6185 23.3704 17.5818 23.362C17.5451 23.3535 17.507 23.3528 17.47 23.36C16.9069 23.4177 16.3387 23.4008 15.78 23.31C15.2258 23.2219 14.6891 23.0464 14.19 22.79C13.6575 22.4546 13.2033 22.0088 12.8583 21.4825C12.5132 20.9563 12.2853 20.362 12.19 19.74C11.9012 18.5009 12.0644 17.1995 12.65 16.07C13.1822 15.1608 13.9819 14.438 14.94 14C15.9217 13.5315 16.9924 13.2791 18.08 13.26C19.0233 13.2413 19.9548 13.4725 20.78 13.93C21.6112 14.3728 22.2748 15.0751 22.67 15.93C23.1993 17.1015 23.246 18.4343 22.8 19.64C22.3442 20.8581 21.4634 21.8703 20.32 22.49C20.0007 22.6721 19.6661 22.826 19.32 22.95C19.1038 23.0229 18.878 23.0633 18.65 23.07C18.6026 23.0616 18.5538 23.0638 18.5073 23.0762C18.4608 23.0887 18.4175 23.1112 18.3806 23.1422C18.3437 23.1732 18.314 23.2119 18.2937 23.2555C18.2733 23.2992 18.2628 23.3468 18.2628 23.395C18.2628 23.4432 18.2733 23.4908 18.2937 23.5344C18.314 23.5781 18.3437 23.6168 18.3806 23.6478C18.4175 23.6787 18.4608 23.7012 18.5073 23.7137C18.5538 23.7262 18.6026 23.7283 18.65 23.72C18.9421 23.7166 19.232 23.6694 19.51 23.58C19.9065 23.4279 20.2853 23.2335 20.64 23C21.9748 22.3338 23.0204 21.2029 23.58 19.82C24.1378 18.4292 24.1306 16.8756 23.56 15.49Z" fill="black"/>
<path fill-rule="evenodd" clip-rule="evenodd" d="M18.22 14.88C18.2359 14.807 18.2222 14.7308 18.1819 14.668C18.1416 14.6051 18.0779 14.5609 18.005 14.545C17.9321 14.5291 17.8558 14.5428 17.793 14.5831C17.7301 14.6234 17.6859 14.687 17.67 14.76C17.4088 15.4948 17.1852 16.2424 17 17C16.89 17.5 16.81 18 16.69 18.49C16.69 18.49 16.69 19.12 17.2 19.15H17.41L18.3 19.08L20.53 18.79C20.6158 18.79 20.6983 18.7566 20.7599 18.6969C20.8215 18.6371 20.8574 18.5558 20.86 18.47C20.86 18.3851 20.8263 18.3037 20.7663 18.2437C20.7063 18.1837 20.6249 18.15 20.54 18.15L18.25 18.1H17.87C17.87 17.91 17.93 17.73 17.95 17.55C18.1 16.68 18.1 15.78 18.22 14.88Z" fill="black"/>
<path fill-rule="evenodd" clip-rule="evenodd" d="M4.45002 1.53C4.29496 1.45177 4.1237 1.41101 3.95002 1.41101C3.77634 1.41101 3.60508 1.45177 3.45002 1.53C3.28002 1.66 2.81002 2.82 2.21002 7.16C2.01002 8.51 1.65002 9.75 1.41002 10.94C1.12002 12.25 0.890018 13.5 0.630018 14.68C0.370021 15.5507 0.159682 16.4355 1.83079e-05 17.33C-0.0276062 17.4747 -0.0162314 17.6241 0.032975 17.7629C0.0821814 17.9018 0.167447 18.025 0.280018 18.12C1.196 18.473 2.14365 18.7375 3.11002 18.91C5.62002 19.46 9.00002 20 9.54002 20.14C9.62475 20.1547 9.71188 20.1358 9.78286 20.0872C9.85383 20.0387 9.90305 19.9643 9.92002 19.88C9.93454 19.7965 9.91532 19.7106 9.86657 19.6412C9.81782 19.5718 9.74353 19.5246 9.66002 19.51C9.10002 19.38 5.80002 18.66 3.34002 18.01C2.34002 17.75 1.52002 17.52 1.07002 17.34C1.19002 16.6 1.66002 15.02 1.69002 14.91C1.86002 14.1 2.04002 13.26 2.19002 12.37C2.70002 9.48 3.11002 6.17 3.90002 2.22V2.17C4.01027 2.23263 4.12376 2.28938 4.24002 2.34C4.35233 2.38506 4.4777 2.38506 4.59002 2.34C4.65536 2.28742 4.70544 2.21832 4.73507 2.13985C4.7647 2.06139 4.77279 1.97643 4.7585 1.89378C4.74422 1.81114 4.70808 1.73382 4.65383 1.66985C4.59959 1.60589 4.52922 1.5576 4.45002 1.53Z" fill="black"/>
<path fill-rule="evenodd" clip-rule="evenodd" d="M17.85 9.08996C17.93 8.74996 17.99 8.41996 18.05 8.08996C18.11 7.75996 18.14 7.41996 18.18 7.08996C18.26 6.36996 18.31 5.60996 18.38 4.70996C18.3949 4.65426 18.3949 4.59565 18.38 4.53996C18.38 4.53996 18.46 4.45995 18.47 4.40995C18.4818 4.36443 18.4836 4.31693 18.4755 4.27063C18.4674 4.22432 18.4495 4.18029 18.423 4.14147C18.3965 4.10265 18.362 4.06994 18.3218 4.04554C18.2816 4.02113 18.2367 4.00559 18.19 3.99996C17.93 3.87996 17.78 3.85996 17.51 3.75996C17.3443 3.73456 17.1757 3.73456 17.01 3.75996C16.76 3.75996 16.42 4.45996 16.66 4.50996C17.0143 4.57119 17.3714 4.61457 17.73 4.63995C17.52 5.49995 17.33 6.21996 17.17 6.89996C17.1 7.23996 17.03 7.56996 16.97 7.89996C16.91 8.22996 16.86 8.55995 16.83 8.89995C16.75 9.60995 16.72 10.37 16.66 11.28C16.6528 11.3168 16.6531 11.3547 16.6609 11.3914C16.6686 11.4281 16.6837 11.4629 16.7051 11.4937C16.7266 11.5245 16.754 11.5506 16.7858 11.5706C16.8175 11.5906 16.853 11.6039 16.89 11.61C16.9637 11.6193 17.0383 11.6009 17.0993 11.5585C17.1602 11.516 17.2033 11.4524 17.22 11.38C17.28 11.15 17.77 9.40996 17.85 9.08996Z" fill="black"/>
<path fill-rule="evenodd" clip-rule="evenodd" d="M20.62 3.73998C20.5425 3.37299 20.3779 3.03002 20.14 2.73998C19.9024 2.40526 19.5765 2.143 19.1987 1.98236C18.8209 1.82171 18.406 1.76896 18 1.82998L17.63 1.75998C16.5 1.52998 15.68 1.26998 14.56 1.01998C14.16 0.929976 13.72 0.859976 13.22 0.769976C12.72 0.679976 12 0.589976 11.37 0.519976C7.10004 0.0699757 7.00005 -0.360024 5.85005 0.639976C5.7182 0.744223 5.60054 0.865247 5.50005 0.999976C5.40295 1.14892 5.31929 1.30621 5.25005 1.46998C5.14611 1.77407 5.06259 2.08476 5.00005 2.39998C4.51005 4.99998 3.94005 7.74998 3.14005 12.09C3.03005 12.69 2.65005 13.64 2.53005 14.48C2.45359 14.8952 2.47068 15.3222 2.58005 15.73C2.66325 15.9014 2.78515 16.0512 2.93613 16.1674C3.08711 16.2837 3.26304 16.3633 3.45005 16.4C4.58005 16.72 7.21005 16.83 9.31005 17.24C9.39222 17.2579 9.47816 17.2428 9.54927 17.1979C9.62039 17.153 9.67096 17.0819 9.69004 17C9.70042 16.9586 9.70242 16.9155 9.69592 16.8734C9.68942 16.8312 9.67455 16.7908 9.65219 16.7544C9.62983 16.7181 9.60042 16.6866 9.56571 16.6618C9.53099 16.637 9.49167 16.6194 9.45005 16.61C8.00004 16.23 6.23005 16 5.00005 15.75C4.30005 15.62 3.37005 15.55 3.54005 15.33C3.54005 15.33 3.60005 15.41 3.61005 15.45C3.55546 15.0752 3.58275 14.6931 3.69005 14.33C3.86005 13.61 4.13005 12.84 4.25005 12.33C4.44005 11.48 4.67005 10.63 4.79005 9.76998C5.79005 3.01998 5.63005 3.50998 6.18005 2.08998C6.29005 1.80998 6.58005 1.08998 7.00005 0.929976C8.10116 0.937924 9.19795 1.06873 10.27 1.31998C11.18 1.49998 12.1 1.63998 13.05 1.82998C14.47 2.00998 15.38 2.19998 16.39 2.34998L16.81 2.40998C15.6 3.40998 15.63 3.95998 14.68 7.40998C14.59 7.70998 14.53 8.01998 14.47 8.32998C14.41 8.63998 14.36 8.93998 14.32 9.24998C14.23 9.97998 14.17 10.71 14.11 11.44C14.1029 11.4821 14.1043 11.5251 14.1141 11.5667C14.1239 11.6082 14.1419 11.6474 14.1671 11.6819C14.1922 11.7163 14.224 11.7454 14.2606 11.7674C14.2972 11.7894 14.3378 11.8039 14.38 11.81C14.4636 11.8245 14.5495 11.8053 14.6188 11.7565C14.6882 11.7078 14.7354 11.6335 14.75 11.55C14.93 10.84 15.14 10.15 15.32 9.44998C15.4 9.13998 15.47 8.83998 15.54 8.53998C15.61 8.23998 15.65 7.92998 15.69 7.61998C15.7959 6.43428 16.0686 5.26945 16.5 4.15998C16.6218 3.70715 16.9068 3.31536 17.3 3.05998C17.4503 2.93295 17.6259 2.83928 17.8151 2.78518C18.0043 2.73107 18.2029 2.71776 18.3976 2.74612C18.5923 2.77448 18.7788 2.84386 18.9447 2.94969C19.1107 3.05551 19.2522 3.19536 19.36 3.35998C19.519 3.59151 19.6155 3.86019 19.64 4.13998C19.6741 4.47244 19.6741 4.80751 19.64 5.13998C19.64 5.73998 19.55 6.35998 19.47 6.97998C19.39 7.59998 19.29 8.21998 19.16 8.80998L18.85 10.04C18.8198 10.1144 18.7963 10.1913 18.78 10.27C18.6974 10.285 18.6127 10.285 18.53 10.27C18.3967 10.2637 18.2651 10.2367 18.14 10.19C17.77 10.19 17.59 10.67 17.93 10.82C18.1494 10.9252 18.3872 10.9863 18.63 11C18.861 11.0171 19.0923 10.9722 19.3 10.87C19.3902 10.8221 19.4609 10.7443 19.5 10.65C19.5494 10.5128 19.5895 10.3725 19.62 10.23L20 9.05998C20.1942 8.4399 20.3512 7.80878 20.47 7.16998C20.5865 6.53136 20.6699 5.88718 20.72 5.23998C20.7566 4.73776 20.7229 4.2329 20.62 3.73998Z" fill="black"/>
<path fill-rule="evenodd" clip-rule="evenodd" d="M14.65 5.12997C14.669 5.04659 14.6559 4.95912 14.6133 4.88499C14.5706 4.81085 14.5016 4.75551 14.42 4.72997C13.51 4.41997 12.6 4.11997 11.65 3.88997C11.25 3.78997 10.84 3.70997 10.43 3.63997C10.02 3.56997 9.62003 3.51997 9.20003 3.47997C8.20003 3.40997 7.27003 3.41997 6.31003 3.47997C6.23577 3.47997 6.16455 3.50947 6.11204 3.56198C6.05953 3.61449 6.03003 3.68571 6.03003 3.75997C6.03003 3.83423 6.05953 3.90545 6.11204 3.95796C6.16455 4.01047 6.23577 4.03997 6.31003 4.03997C7.38003 4.18997 8.43003 4.42997 9.50003 4.61997C10.14 4.73997 10.78 4.81997 11.42 4.91997C12.42 5.06997 13.34 5.19997 14.29 5.39997C14.3726 5.40657 14.4548 5.38277 14.5211 5.33305C14.5874 5.28333 14.6332 5.21112 14.65 5.12997Z" fill="black"/>
<path fill-rule="evenodd" clip-rule="evenodd" d="M12.7 8.37C12.7343 8.29158 12.7368 8.20288 12.707 8.12265C12.6771 8.04242 12.6172 7.97693 12.54 7.94C12.3231 7.8245 12.0953 7.73071 11.86 7.66C11.52 7.56 11.17 7.49 10.86 7.41C10.55 7.33 10.35 7.29 10.09 7.26C9.70544 7.21036 9.31763 7.1903 8.93 7.2C8.2769 7.24223 7.63003 7.35283 7 7.53C6.92575 7.5446 6.85976 7.58672 6.81525 7.64792C6.77075 7.70911 6.75101 7.78487 6.76 7.86C6.77232 7.93344 6.81243 7.99932 6.872 8.044C6.93157 8.08868 7.00605 8.10873 7.08 8.1H7.82C8.32 8.1 8.82 8.22 9.28 8.27C9.74 8.32 10.28 8.27 10.75 8.37H11.75C11.9435 8.38544 12.1347 8.42234 12.32 8.48C12.3867 8.50519 12.4598 8.50809 12.5283 8.48826C12.5968 8.46843 12.657 8.42694 12.7 8.37Z" fill="black"/>
<path fill-rule="evenodd" clip-rule="evenodd" d="M10.08 10.85C9.80696 10.7692 9.52993 10.7024 9.25003 10.65C8.97188 10.6046 8.69146 10.5746 8.41003 10.56C7.74179 10.5424 7.07318 10.5758 6.41003 10.66C6.34358 10.6725 6.28359 10.7078 6.24043 10.7598C6.19727 10.8119 6.17365 10.8774 6.17365 10.945C6.17365 11.0126 6.19727 11.0781 6.24043 11.1301C6.28359 11.1821 6.34358 11.2175 6.41003 11.23C7.14003 11.33 7.82003 11.51 8.52003 11.64C8.94003 11.72 9.35003 11.77 9.78003 11.84C10.42 11.93 11.05 12.01 11.69 12.15C11.7723 12.1753 11.8611 12.1676 11.9377 12.1283C12.0143 12.0891 12.0726 12.0215 12.1 11.94C12.1254 11.8577 12.1176 11.7689 12.0784 11.6923C12.0392 11.6157 11.9716 11.5574 11.89 11.53C11.3 11.2694 10.6957 11.0423 10.08 10.85Z" fill="black"/>
</g>
<defs>
<clipPath id="clip0_1051_8891">
<rect width="24" height="24" fill="white"/>
</clipPath>
</defs>
</svg>
