<svg width="24" height="24" viewBox="0 0 24 24" fill="none" xmlns="http://www.w3.org/2000/svg">
<g clip-path="url(#clip0_1030_2707)">
<path fill-rule="evenodd" clip-rule="evenodd" d="M16 1.81C14.14 3.47 12.08 5.44 10.08 7.49C9.42997 8.15 8.79997 8.82 8.16997 9.49L6.99997 8.09C4.30997 5.18 1.77997 2.64 0.579972 1.58C0.5222 1.53667 0.450738 1.51563 0.378705 1.52075C0.306672 1.52587 0.238903 1.5568 0.18784 1.60787C0.136777 1.65893 0.105846 1.7267 0.100727 1.79873C0.0956075 1.87076 0.116643 1.94223 0.159972 2C1.15997 3 3.15997 5.46 5.50997 8.15L7.40997 10.32C6.69997 11.1 6.00997 11.87 5.40997 12.62C3.12997 15.2 1.26997 17.5 0.079972 18.88C0.0512452 18.908 0.0284119 18.9414 0.0128207 18.9783C-0.00277041 19.0152 -0.0108032 19.0549 -0.0108032 19.095C-0.0108032 19.1351 -0.00277041 19.1748 0.0128207 19.2117C0.0284119 19.2486 0.0512452 19.282 0.079972 19.31C0.107159 19.34 0.140337 19.364 0.177367 19.3805C0.214398 19.3969 0.25446 19.4054 0.294972 19.4054C0.335484 19.4054 0.375546 19.3969 0.412577 19.3805C0.449607 19.364 0.482785 19.34 0.509972 19.31C1.91997 17.86 4.30997 15.39 6.95997 12.56L8.19997 11.22L9.11997 12.22C11.64 15.01 14.06 17.55 15.34 18.87C15.4052 18.9239 15.4878 18.9523 15.5723 18.95C15.6569 18.9477 15.7378 18.9148 15.8 18.8575C15.8622 18.8002 15.9016 18.7222 15.9108 18.6381C15.9199 18.554 15.8983 18.4694 15.85 18.4C14.73 17.13 12.78 14.74 10.57 12.16L8.99997 10.36C9.38997 9.94 9.76997 9.53 10.15 9.1C11.21 7.95 12.25 6.77 13.29 5.66C14.33 4.55 15.5 3.34 16.53 2.32C16.5635 2.2852 16.5898 2.24414 16.6074 2.19918C16.625 2.15421 16.6336 2.10621 16.6327 2.05793C16.6317 2.00964 16.6213 1.96201 16.602 1.91775C16.5826 1.8735 16.5548 1.83348 16.52 1.8C16.4852 1.76651 16.4441 1.74021 16.3991 1.72258C16.3542 1.70496 16.3062 1.69637 16.2579 1.6973C16.2096 1.69823 16.162 1.70866 16.1177 1.728C16.0735 1.74733 16.0335 1.7752 16 1.81Z" fill="black"/>
<path fill-rule="evenodd" clip-rule="evenodd" d="M23.35 21.56C22.6155 21.7258 21.8587 21.7697 21.11 21.69C20.5613 21.6784 20.0152 21.6114 19.48 21.49C19.4316 21.4743 19.3847 21.4542 19.34 21.43C19.3638 21.3652 19.3976 21.3045 19.44 21.25C19.5697 21.1146 19.7139 20.9939 19.87 20.89C20.29 20.6 20.77 20.35 21.16 20.07C22.1818 19.4298 23.0438 18.5644 23.68 17.54C23.9 17.1286 24.0092 16.6671 23.9969 16.2007C23.9846 15.7344 23.8513 15.2792 23.61 14.88C23.5 14.69 23.4 14.51 23.28 14.34C23.1517 14.1575 23.0114 13.9838 22.86 13.82C22.55 13.4721 22.148 13.2189 21.7004 13.0897C21.2527 12.9606 20.7776 12.9607 20.33 13.09C19.7334 13.274 19.1853 13.5884 18.7252 14.0105C18.2651 14.4325 17.9047 14.9515 17.67 15.53C17.5665 15.7702 17.4927 16.022 17.45 16.28C17.41 16.5485 17.41 16.8215 17.45 17.09C17.4537 17.1295 17.4653 17.1678 17.4839 17.2028C17.5026 17.2378 17.528 17.2687 17.5587 17.2938C17.5893 17.3189 17.6247 17.3377 17.6627 17.3491C17.7007 17.3604 17.7405 17.3641 17.78 17.36C17.8186 17.3519 17.8552 17.3359 17.8875 17.3131C17.9197 17.2903 17.947 17.2612 17.9676 17.2274C17.9882 17.1937 18.0017 17.1562 18.0073 17.1171C18.0128 17.078 18.0104 17.0381 18 17C17.9947 16.7917 18.0148 16.5834 18.06 16.38C18.1138 16.1702 18.1875 15.9659 18.28 15.77C18.6561 15.0172 19.2867 14.422 20.06 14.09C20.3909 13.9196 20.7703 13.8684 21.1346 13.9448C21.4988 14.0213 21.8256 14.2209 22.06 14.51L22.62 15.4C22.7557 15.643 22.827 15.9167 22.827 16.195C22.827 16.4733 22.7557 16.747 22.62 16.99C22.0807 17.8544 21.3567 18.5886 20.5 19.14C20.11 19.44 19.65 19.71 19.24 20.03C19.0406 20.1781 18.8563 20.3456 18.69 20.53C18.5054 20.7164 18.3593 20.9372 18.26 21.18C18.2106 21.2795 18.1849 21.389 18.1849 21.5C18.1849 21.611 18.2106 21.7205 18.26 21.82C18.3628 21.99 18.5168 22.123 18.7 22.2C19.1268 22.3563 19.5757 22.444 20.03 22.46C21.2762 22.5625 22.5306 22.4337 23.73 22.08C23.7955 22.0206 23.8361 21.9386 23.8436 21.8505C23.8511 21.7625 23.8251 21.6748 23.7706 21.6051C23.7162 21.5355 23.6374 21.489 23.5501 21.4751C23.4627 21.4611 23.3734 21.4808 23.3 21.53L23.35 21.56Z" fill="black"/>
</g>
<defs>
<clipPath id="clip0_1030_2707">
<rect width="24" height="24" fill="white"/>
</clipPath>
</defs>
</svg>
