<svg width="24" height="24" viewBox="0 0 24 24" fill="none" xmlns="http://www.w3.org/2000/svg">
<g clip-path="url(#clip0_1030_2660)">
<path fill-rule="evenodd" clip-rule="evenodd" d="M9.00002 20.05C9.81299 19.9705 10.6018 19.7291 11.32 19.34C11.5878 19.2189 11.8214 19.0334 12 18.8C12.12 18.62 12.31 18.31 12.72 17.72C12.9951 17.8567 13.2879 17.9543 13.59 18.01C13.8277 18.029 14.0664 17.9918 14.287 17.9015C14.5077 17.8112 14.7039 17.6702 14.86 17.49C15.3525 16.9326 15.8006 16.3374 16.2 15.71L20.4 9.83C20.64 9.51 21.18 8.89 21.51 8.35C21.7303 8.03531 21.8553 7.66384 21.87 7.28C21.7534 6.74227 21.4741 6.25348 21.07 5.88C19.918 4.67529 18.6446 3.59287 17.27 2.65C15.17 1.21 12.87 0 11.5 0C11.0988 0.0879357 10.7433 0.319003 10.5 0.65C9.81582 1.49007 9.17499 2.36454 8.58002 3.27C8.28002 3.68 7.99002 4.06 7.72002 4.41C6.46002 6 5.45002 7 4.08002 8.91C4.02873 8.99119 4.01008 9.0888 4.02783 9.18319C4.04557 9.27758 4.09841 9.36174 4.17569 9.41876C4.25298 9.47577 4.34899 9.50141 4.44441 9.49051C4.53983 9.47961 4.62759 9.43298 4.69002 9.36C5.00002 8.95 5.29002 8.58 5.58002 8.24C6.85002 6.71 7.89002 5.71 9.33002 3.82C9.50002 3.59 9.99002 2.88 10.51 2.21C10.8475 1.80298 11.2081 1.41567 11.59 1.05C12.9808 1.55041 14.3203 2.18332 15.59 2.94C17.1818 3.98642 18.6598 5.19632 20 6.55C20.32 6.89 20.43 7.44 20.63 7.38C20.555 7.56043 20.4539 7.72888 20.33 7.88C20.01 8.33 19.6 8.81 19.4 9.07L15.25 15C15.02 15.31 14.66 16 14.25 16.49C14.1523 16.6209 14.038 16.7385 13.91 16.84C13.85 16.89 13.81 16.95 13.75 16.94C13.4367 16.8929 13.1349 16.7877 12.86 16.63C12.12 16.22 11.45 15.63 10.64 15.15L5.85002 12.41C5.46002 12.2 5.06002 11.99 4.67002 11.76C4.28002 11.53 4.16002 11.45 3.93002 11.28C3.70002 11.11 3.55002 10.9 3.42002 10.78C3.34355 10.707 3.24512 10.6613 3.14002 10.65C3.09412 10.6485 3.04841 10.6566 3.00582 10.6738C2.96323 10.691 2.92471 10.7169 2.8927 10.7499C2.8607 10.7828 2.83593 10.8221 2.81997 10.8652C2.80401 10.9082 2.79721 10.9542 2.80002 11C3.02001 11.3028 3.26058 11.5902 3.52002 11.86C3.69002 11.99 3.87002 12.1 4.06002 12.22C3.53002 13 2.94002 13.73 2.39002 14.49C2.12002 14.86 1.86002 15.24 1.63002 15.63C1.40002 16.02 0.990022 16.43 0.730022 16.88C0.556109 17.1656 0.469232 17.4958 0.480022 17.83C0.668022 18.5762 1.12352 19.2275 1.76002 19.66C2.34654 20.1711 3.08393 20.4765 3.86002 20.53C4.87002 20.31 7.19002 20.33 9.00002 20.05ZM3.65002 19.25C3.65002 19.34 3.46002 19.2 3.34002 19.15C2.94234 18.9652 2.57216 18.7263 2.24002 18.44C1.94002 18.18 1.65002 17.93 1.61002 17.66C1.62327 17.497 1.68219 17.341 1.78002 17.21C2.01002 16.8 2.33002 16.38 2.47002 16.09C2.61002 15.8 2.88002 15.33 3.10002 14.96C3.59002 14.16 4.10002 13.37 4.59002 12.56L5.44002 13.07L10.17 16C10.85 16.39 11.43 16.92 12.03 17.34C11.63 17.86 11.44 18.14 11.31 18.34C11.1997 18.4718 11.059 18.5747 10.9 18.64C10.2661 18.9086 9.58809 19.0577 8.90002 19.08C7.05002 19.2 4.74002 19.11 3.69002 19.25H3.65002Z" fill="black"/>
<path fill-rule="evenodd" clip-rule="evenodd" d="M13.45 13.65C14.08 12.98 14.82 12.24 15.5 11.4C15.88 10.93 16.22 10.4 16.56 9.93C17.1 9.12 17.56 8.32 18.03 7.65C18.0946 7.57688 18.1276 7.48121 18.122 7.38383C18.1164 7.28645 18.0725 7.19522 18 7.13C17.9291 7.06098 17.834 7.02235 17.735 7.02235C17.636 7.02235 17.5409 7.06098 17.47 7.13C16.92 7.71 16.3 8.37 15.68 9.13C15.43 9.41 15.2 9.71 14.97 10.01C14.74 10.31 14.52 10.63 14.32 10.94C13.81 11.74 13.38 12.53 12.96 13.22C12.9178 13.2895 12.9027 13.372 12.9176 13.4519C12.9325 13.5318 12.9764 13.6034 13.0408 13.653C13.1052 13.7025 13.1857 13.7266 13.2667 13.7205C13.3478 13.7144 13.4237 13.6786 13.48 13.62L13.45 13.65Z" fill="black"/>
<path fill-rule="evenodd" clip-rule="evenodd" d="M23.08 22.25C21.986 22.3963 20.8838 22.4731 19.78 22.48C18.48 22.48 17.18 22.48 15.88 22.41C14.58 22.34 13.25 22.41 11.94 22.41C11.14 22.41 10.34 22.5 9.53002 22.58C8.33002 22.69 7.14002 22.84 5.95002 23.01L4.16002 23.34C4.0725 23.34 3.98856 23.3748 3.92667 23.4367C3.86478 23.4985 3.83002 23.5825 3.83002 23.67C3.83002 23.7575 3.86478 23.8415 3.92667 23.9034C3.98856 23.9652 4.0725 24 4.16002 24L6.00002 23.81L8.39002 23.71C9.58002 23.71 10.77 23.65 11.95 23.66C13.13 23.67 14.18 23.66 15.29 23.66C16.4 23.66 17.55 23.66 18.67 23.55C20.1951 23.4825 21.7129 23.2986 23.21 23C23.3075 22.9828 23.3945 22.9283 23.4524 22.848C23.5103 22.7677 23.5345 22.6679 23.52 22.57C23.5028 22.4699 23.4472 22.3804 23.365 22.3206C23.2829 22.2608 23.1806 22.2355 23.08 22.25Z" fill="black"/>
</g>
<defs>
<clipPath id="clip0_1030_2660">
<rect width="24" height="24" fill="white"/>
</clipPath>
</defs>
</svg>
