<svg width="24" height="24" viewBox="0 0 24 24" fill="none" xmlns="http://www.w3.org/2000/svg">
<g clip-path="url(#clip0_1030_2648)">
<path d="M0.320028 23.37L2.00003 23.51L6.00003 23.37H17.6L20.6 23.43H21.85C22.0099 23.4403 22.1702 23.4403 22.33 23.43C22.33 23.43 23.97 23.56 23.97 22.94C23.97 22.32 22.33 22.45 22.33 22.45H20.6L17.6 22.38H10.6C9.05003 22.38 7.50003 22.38 5.95003 22.46L1.95003 22.68C1.61805 22.6375 1.28201 22.6375 0.950028 22.68C0.760028 22.68 0.550028 22.76 0.280028 22.81C0.20136 22.8176 0.128563 22.855 0.0765183 22.9144C0.024474 22.9739 -0.00288719 23.051 2.80479e-05 23.13C0.0145125 23.2024 0.0551575 23.2668 0.114192 23.3111C0.173227 23.3554 0.246509 23.3764 0.320028 23.37Z" fill="black"/>
<path d="M3.16 18.84C3.25907 18.84 3.35424 18.8014 3.42522 18.7323C3.49621 18.6632 3.53739 18.569 3.54 18.47C3.54 17.66 3.54 14.98 3.65 12.34C3.7 10.48 3.8 8.64001 3.96 7.50001C4.01705 7.2597 4.08716 7.02269 4.17 6.79001C5.32829 6.74584 6.48826 6.7893 7.64 6.92001C7.73 7.67001 7.85 9.63001 7.98 11.64C8.11 13.65 8.25 15.83 8.25 16.83V18.46C8.25007 18.8186 8.21996 19.1765 8.16 19.53C8.16429 19.6033 8.16429 19.6767 8.16 19.75C7.79887 19.9249 7.40109 20.0106 7 20C5.81 20.05 4.32 19.82 3.59 19.81C3.50248 19.81 3.41854 19.8448 3.35665 19.9067C3.29477 19.9686 3.26 20.0525 3.26 20.14C3.26 20.2275 3.29477 20.3115 3.35665 20.3734C3.41854 20.4352 3.50248 20.47 3.59 20.47C4.32 20.47 5.83 20.8 7.03 20.8C7.60944 20.8393 8.18822 20.7146 8.7 20.44C8.93725 20.205 9.08267 19.8929 9.11 19.56C9.23091 18.665 9.29438 17.7631 9.3 16.86C9.3 15.68 9.3 12.93 9.17 10.54C9.13379 9.07981 9.00352 7.62346 8.78 6.18001C8.73797 6.07323 8.66882 5.97925 8.57939 5.90735C8.48995 5.83545 8.38331 5.78812 8.27 5.77001C7.97036 5.70578 7.66605 5.66565 7.36 5.65001C6.08338 5.54813 4.79956 5.58165 3.53 5.75001C3.41076 5.79008 3.30163 5.85553 3.21013 5.94185C3.11863 6.02817 3.04694 6.13331 3 6.25001C2.80619 7.02552 2.70217 7.82074 2.69 8.62001C2.55 11.82 2.75 17.24 2.75 18.46C2.74983 18.5125 2.76056 18.5645 2.78151 18.6127C2.80245 18.6609 2.83316 18.7042 2.87169 18.7399C2.91021 18.7756 2.95573 18.8029 3.00535 18.8202C3.05497 18.8374 3.10763 18.8442 3.16 18.84Z" fill="black"/>
<path d="M13.58 19.3C13.6295 19.2975 13.678 19.2851 13.7227 19.2634C13.7673 19.2418 13.8071 19.2114 13.8397 19.1741C13.8724 19.1368 13.8972 19.0933 13.9127 19.0462C13.9282 18.9991 13.9341 18.9494 13.93 18.9C13.82 16.62 13.74 13.25 13.74 10.07C13.74 6.74001 13.8 3.62001 13.97 2.17001C13.97 2.02001 13.97 1.87001 14.04 1.76001H14.41C15.4344 1.71043 16.4611 1.74387 17.48 1.86001C17.55 2.45001 17.65 3.74001 17.78 5.28001C18.03 8.37001 18.36 12.46 18.44 14.34C18.44 14.82 18.62 16.6 18.64 18.14C18.6615 18.711 18.6381 19.2827 18.57 19.85C18.5413 19.9953 18.5046 20.1388 18.46 20.28C18.0735 20.4446 17.6599 20.5361 17.24 20.55C16.0651 20.6484 14.8824 20.598 13.72 20.4C13.6392 20.4332 13.5749 20.4972 13.5411 20.5778C13.5074 20.6584 13.507 20.7491 13.54 20.83C13.6538 20.9815 13.8226 21.0821 14.01 21.11C14.7587 21.2502 15.5183 21.3238 16.28 21.33C17.1732 21.402 18.0713 21.2756 18.91 20.96C19.2827 20.546 19.4862 20.007 19.48 19.45C19.572 17.7346 19.572 16.0154 19.48 14.3C19.48 12.67 19.31 9.36001 19.12 6.49001C18.95 3.80001 18.72 1.49001 18.63 1.18001C18.5985 1.06799 18.5387 0.965958 18.4564 0.883667C18.3741 0.801375 18.272 0.741581 18.16 0.710006C17.8485 0.631479 17.5306 0.581275 17.21 0.560006C15.8979 0.426194 14.5731 0.490242 13.28 0.750006C13.1611 0.833816 13.062 0.942554 12.9894 1.06863C12.9169 1.19471 12.8727 1.3351 12.86 1.48001C12.7196 2.57079 12.6594 3.67041 12.68 4.77001C12.68 8.77001 12.9 15.29 13.18 18.97C13.1947 19.0645 13.2435 19.1503 13.3172 19.2111C13.391 19.272 13.4845 19.3036 13.58 19.3Z" fill="black"/>
</g>
<defs>
<clipPath id="clip0_1030_2648">
<rect width="24" height="24" fill="white"/>
</clipPath>
</defs>
</svg>
