<svg width="24" height="24" viewBox="0 0 24 24" fill="none" xmlns="http://www.w3.org/2000/svg">
<g clip-path="url(#clip0_1030_2760)">
<path d="M10.75 22.12C11.4746 20.9468 12.5583 20.0385 13.84 19.53C14.7212 19.106 15.6424 18.771 16.59 18.53C17.6917 18.1662 18.8403 17.9641 20 17.93C20.44 17.86 20.4 17.28 19.88 17.24C18.7263 17.0894 17.555 17.1435 16.42 17.4C15.7641 17.5269 15.1214 17.7144 14.5 17.96C13.8698 18.2076 13.2666 18.5192 12.7 18.89C11.4634 19.6011 10.4886 20.6916 9.92004 22C9.78004 22.52 10.54 22.48 10.75 22.12Z" fill="black"/>
<path d="M18.45 14.26C16.4073 13.4412 14.2466 12.9551 12.05 12.82V12.77C12.9785 10.8275 13.7704 8.82265 14.42 6.77C14.9965 5.18371 14.9752 3.4417 14.36 1.87C13.9 0.929999 14.16 0.929999 13.71 0.519999C13.2302 0.129181 12.6162 -0.0575597 12 -9.59262e-07C11.2843 0.0576927 10.5787 0.205529 9.90002 0.439999C8.58402 0.922243 7.32885 1.55654 6.16002 2.33C4.98177 3.04679 3.86465 3.85954 2.82002 4.76C2.75885 4.82494 2.72478 4.91078 2.72478 5C2.72478 5.08921 2.75885 5.17506 2.82002 5.24C2.88375 5.30351 2.97005 5.33917 3.06002 5.33917C3.14999 5.33917 3.23629 5.30351 3.30002 5.24C4.34129 4.43108 5.44471 3.7055 6.60002 3.07C7.72544 2.391 8.92709 1.84723 10.18 1.45C10.7903 1.26133 11.422 1.15045 12.06 1.12C12.3741 1.09208 12.6875 1.18111 12.94 1.37C13 1.37 12.94 1.5 12.94 1.57C12.8999 1.69715 12.8428 1.81826 12.77 1.93C12.6151 2.15762 12.4411 2.37172 12.25 2.57C11.222 3.34808 10.0998 3.99319 8.91002 4.49C6.42002 5.69 3.56002 6.89 3.43002 6.92C3.22861 6.96417 3.02499 6.99755 2.82002 7.02H2.47002C2.39002 7.02 2.47002 6.79 2.55002 6.54C2.56672 6.50393 2.57608 6.4649 2.57757 6.42518C2.57906 6.38546 2.57263 6.34584 2.55868 6.30863C2.54472 6.27141 2.52351 6.23734 2.49627 6.20839C2.46904 6.17944 2.43632 6.15619 2.40002 6.14C2.36395 6.1233 2.32492 6.11394 2.2852 6.11245C2.24549 6.11096 2.20587 6.11739 2.16865 6.13134C2.13143 6.1453 2.09736 6.16651 2.06841 6.19375C2.03946 6.22098 2.01622 6.2537 2.00002 6.29C1.86598 6.54613 1.79596 6.83091 1.79596 7.12C1.79596 7.40908 1.86598 7.69387 2.00002 7.95C2.66672 9.35658 3.74408 10.5281 5.09002 11.31C6.85631 12.3762 8.78511 13.1464 10.8 13.59C9.66888 15.5971 8.8304 17.7556 8.31002 20C8.00002 21.55 8.14002 22.89 8.82002 23.54C9.07139 23.7309 9.35822 23.8698 9.66381 23.9488C9.9694 24.0278 10.2876 24.0452 10.6 24C12.5551 23.722 14.4527 23.1311 16.22 22.25C18.0077 21.467 19.6879 20.4589 21.22 19.25C21.94 18.6 22.22 17.97 22.15 17.57C21.93 16.35 20.53 15.13 18.45 14.26ZM5.51002 10.67C4.26288 9.98215 3.24958 8.93751 2.60002 7.67C2.90567 7.70538 3.21438 7.70538 3.52002 7.67C5.8303 6.91339 8.09419 6.02186 10.3 5C11.3039 4.58762 12.2408 4.02816 13.08 3.34C13.374 3.04202 13.6263 2.70564 13.83 2.34C14.1957 3.33649 14.2549 4.41959 14 5.45C13.3675 7.83016 12.4684 10.1314 11.32 12.31C11.25 12.47 11.19 12.61 11.15 12.73C9.16898 12.3601 7.26308 11.664 5.51002 10.67ZM20.27 18.53C18.4782 19.8517 16.5217 20.9341 14.45 21.75C13.2741 22.2571 12.0421 22.623 10.78 22.84C10.3828 22.945 9.96126 22.906 9.59002 22.73C9.27002 22.55 9.24002 22.06 9.22002 21.56C9.22736 20.7624 9.33829 19.9691 9.55002 19.2C10.0193 17.3938 10.6902 15.6462 11.55 13.99L11.7 13.72C13.8676 13.8744 15.9955 14.3811 18 15.22C19.1739 15.6041 20.1892 16.363 20.89 17.38C21 17.47 21.08 17.87 20.27 18.53Z" fill="black"/>
</g>
<defs>
<clipPath id="clip0_1030_2760">
<rect width="24" height="24" fill="white"/>
</clipPath>
</defs>
</svg>
