<svg width="24" height="24" viewBox="0 0 24 24" fill="none" xmlns="http://www.w3.org/2000/svg">
<g clip-path="url(#clip0_1030_2755)">
<path fill-rule="evenodd" clip-rule="evenodd" d="M23.69 2.73C23.6849 2.26375 23.5536 1.80758 23.31 1.41C22.6129 0.968465 21.8215 0.697786 21 0.620002C18.0192 0.193892 15.0111 -0.013329 12 1.62411e-06C7.24999 1.62411e-06 2.41999 0.380002 0.919992 1.39C0.579996 1.77806 0.388653 2.27414 0.379992 2.79C0.155575 4.47051 0.0486492 6.16462 0.059992 7.86C-8.00565e-06 13.82 0.559992 22 0.939992 22.71C1.21053 23.0282 1.58703 23.2377 1.99999 23.3C4.57704 23.7419 7.18544 23.976 9.79999 24C13.49 24.1 17.55 24.05 20.13 23.85C21.0745 23.8364 22.0103 23.6675 22.9 23.35C23.0252 23.2732 23.1258 23.1621 23.19 23.03C23.319 22.6746 23.4062 22.3055 23.45 21.93C23.69 20.13 23.87 16.24 23.92 12.35C24.0092 9.14151 23.9324 5.93056 23.69 2.73ZM22.84 10.17C22.79 14.5 22.61 19.31 22.33 21.51C22.33 21.85 22.21 22.2 22.17 22.36C21.6088 22.4952 21.0364 22.5788 20.46 22.61C18.4 22.8 15.18 22.88 11.96 22.87C8.7794 22.9288 5.59854 22.7684 2.43999 22.39C2.208 22.3476 1.98038 22.284 1.75999 22.2C1.41999 21.27 0.939992 15.2 0.759992 9.95C0.675928 7.72845 0.736054 5.50377 0.939992 3.29C1.02999 2.56 1.09999 2.05 1.27999 1.93C2.75999 1 7.41999 0.740002 12 0.830002C14.9339 0.859179 17.8617 1.10317 20.76 1.56C21.3779 1.6219 21.9802 1.79111 22.54 2.06C22.54 2.15 22.62 2.4 22.65 2.63C22.84 4 22.88 7 22.84 10.17Z" fill="black"/>
<path fill-rule="evenodd" clip-rule="evenodd" d="M9.99997 4.11C8.77004 4.32618 7.62737 4.88894 6.70623 5.73213C5.7851 6.57533 5.12377 7.66392 4.79997 8.87C4.08696 11.1979 4.32051 13.7131 5.44997 15.87C6.05207 16.8299 6.86464 17.6402 7.82618 18.2397C8.78773 18.8391 9.87304 19.212 11 19.33C13.1865 19.7138 15.4368 19.2373 17.28 18C17.3542 17.947 17.4044 17.8666 17.4194 17.7766C17.4344 17.6866 17.413 17.5943 17.36 17.52C17.3069 17.4457 17.2266 17.3956 17.1365 17.3806C17.0465 17.3656 16.9542 17.387 16.88 17.44C15.1564 18.5117 13.0834 18.8703 11.1 18.44C10.1236 18.3094 9.18904 17.9613 8.36519 17.4213C7.54134 16.8813 6.84925 16.1632 6.33997 15.32C5.39801 13.4024 5.2367 11.1941 5.88997 9.16C6.14848 8.16004 6.68481 7.25369 7.43692 6.54582C8.18903 5.83795 9.12619 5.35748 10.14 5.16C11.3384 4.91317 12.5754 4.92278 13.7698 5.1882C14.9642 5.45362 16.0889 5.96885 17.07 6.7C18.57 7.99 19.51 10.12 19.15 13.45C19.103 13.9781 18.9922 14.4986 18.82 15C18.648 15.4719 18.4089 15.9164 18.11 16.32C18.0617 16.3853 18.0409 16.4669 18.0521 16.5473C18.0633 16.6277 18.1057 16.7005 18.17 16.75C18.2364 16.7972 18.3189 16.8164 18.3993 16.8033C18.4798 16.7902 18.5519 16.7459 18.6 16.68C18.9431 16.2396 19.2194 15.751 19.42 15.23C19.6278 14.7099 19.769 14.1656 19.84 13.61C20.37 9.92 19.33 7.53 17.7 6.05C16.626 5.20174 15.3847 4.59034 14.0576 4.25598C12.7305 3.92162 11.3477 3.87187 9.99997 4.11Z" fill="black"/>
<path fill-rule="evenodd" clip-rule="evenodd" d="M12.6 11.75V11.1C12.52 10.1 12.32 8.78 12.29 8.47C12.29 8.4306 12.2822 8.39159 12.2672 8.3552C12.2521 8.3188 12.23 8.28573 12.2021 8.25787C12.1743 8.23001 12.1412 8.20791 12.1048 8.19284C12.0684 8.17776 12.0294 8.17 11.99 8.17C11.9498 8.16866 11.9097 8.17543 11.8721 8.1899C11.8346 8.20438 11.8003 8.22626 11.7714 8.25425C11.7424 8.28225 11.7194 8.31577 11.7037 8.35284C11.688 8.3899 11.68 8.42975 11.68 8.47C11.68 8.78 11.51 10.12 11.49 11.13V12.27C11.4921 12.4101 11.5467 12.5443 11.643 12.6462C11.7393 12.748 11.8702 12.81 12.01 12.82C12.01 12.82 12.59 12.82 13.36 12.82H15.36C15.4414 12.8061 15.5153 12.7638 15.5686 12.7007C15.6218 12.6375 15.651 12.5576 15.651 12.475C15.651 12.3924 15.6218 12.3125 15.5686 12.2493C15.5153 12.1862 15.4414 12.1439 15.36 12.13L12.6 11.75Z" fill="black"/>
</g>
<defs>
<clipPath id="clip0_1030_2755">
<rect width="24" height="24" fill="white"/>
</clipPath>
</defs>
</svg>
