<svg width="24" height="24" viewBox="0 0 24 24" fill="none" xmlns="http://www.w3.org/2000/svg">
<g clip-path="url(#clip0_1030_2750)">
<path fill-rule="evenodd" clip-rule="evenodd" d="M20.59 18.33C20.4698 18.2923 20.3457 18.2688 20.22 18.26C20.3065 17.9338 20.3235 17.5932 20.27 17.26C20.2236 16.9714 20.1145 16.6965 19.9503 16.4546C19.7862 16.2127 19.571 16.0098 19.32 15.86C19.0475 15.6965 18.7428 15.5939 18.4269 15.5594C18.111 15.5249 17.7914 15.5592 17.49 15.66C16.7696 15.8728 16.0925 16.2113 15.49 16.66C15.07 16.96 14.72 17.28 14.43 17.47C13.8 17.9 12.66 18.57 12.15 18.87C12.0829 18.915 12.0194 18.9652 11.96 19.02C11.5732 18.9944 11.1906 18.924 10.82 18.81C10.259 18.709 9.72672 18.4872 9.26001 18.16C9.26001 18.16 9.26001 18.08 9.26001 18.02C9.32425 17.9018 9.40139 17.7912 9.49001 17.69C10.55 16.47 11.61 15.89 11.97 15.15C12.1096 14.8561 12.1702 14.5309 12.1456 14.2064C12.1211 13.882 12.0123 13.5695 11.83 13.3C11.6515 13.0129 11.3881 12.7884 11.0764 12.6576C10.7646 12.5268 10.4199 12.4962 10.09 12.57C8.92396 12.7909 7.80653 13.2175 6.79001 13.83C5.80621 14.4367 4.76024 14.9362 3.67001 15.32H3.45001H3.39001C3.0488 15.3444 2.70656 15.2897 2.39001 15.16C1.90947 15.0108 1.44407 14.8166 1.00001 14.58C0.960614 14.5557 0.916818 14.5394 0.871123 14.532C0.825429 14.5247 0.77873 14.5264 0.733693 14.5371C0.688657 14.5477 0.646165 14.5672 0.608643 14.5943C0.571122 14.6214 0.539305 14.6556 0.515011 14.695C0.490716 14.7344 0.474419 14.7782 0.46705 14.8239C0.459681 14.8696 0.461385 14.9163 0.472064 14.9613C0.482743 15.0064 0.502187 15.0488 0.529288 15.0864C0.556388 15.1239 0.590614 15.1557 0.630011 15.18C1.12675 15.5015 1.65236 15.776 2.20001 16C2.5856 16.1499 2.99633 16.2246 3.41001 16.22H3.54001C3.8131 16.1823 4.08132 16.1153 4.34001 16.02C5.35145 15.6457 6.33125 15.1909 7.27001 14.66C8.07206 14.2154 8.92953 13.8791 9.82001 13.66C10.35 13.55 10.82 13.48 11.04 13.85C11.1435 13.993 11.2072 14.1609 11.2248 14.3365C11.2423 14.5122 11.2131 14.6893 11.14 14.85C10.79 15.53 9.76001 16.02 8.75001 17.13C8.00001 17.96 8.09001 18.57 8.47001 19.02C9.05089 19.5027 9.7353 19.8449 10.47 20.02C10.9344 20.1679 11.4142 20.2618 11.9 20.3C12.5891 20.3498 13.2809 20.3498 13.97 20.3C14.6396 20.272 15.3072 20.2086 15.97 20.11C17.15 19.93 18.11 19.69 18.8 19.61C19.21 19.5146 19.6291 19.4643 20.05 19.46C20.1783 19.4783 20.2985 19.5333 20.3961 19.6185C20.4937 19.7037 20.5646 19.8154 20.6 19.94C20.72 20.2 20.6 20.42 20.36 20.63C19.8562 21.0841 19.2906 21.4646 18.68 21.76C17.1076 22.5571 15.3728 22.9814 13.61 23C10.8829 23.0726 8.16179 22.708 5.55001 21.92C5.4942 21.906 5.43582 21.906 5.38001 21.92L0.860011 22.7C0.819205 22.7064 0.78009 22.7209 0.744963 22.7426C0.709836 22.7644 0.679406 22.7929 0.65546 22.8265C0.631515 22.8602 0.614537 22.8983 0.605523 22.9386C0.596509 22.9789 0.595642 23.0206 0.602972 23.0613C0.610303 23.1019 0.625682 23.1407 0.648208 23.1753C0.670734 23.2099 0.699952 23.2397 0.734145 23.2629C0.768338 23.2861 0.806817 23.3022 0.847321 23.3102C0.887826 23.3183 0.929539 23.3183 0.970011 23.31L5.40001 22.66C8.05695 23.5461 10.8392 23.9985 13.64 24C15.5821 24.0058 17.4991 23.5608 19.24 22.7C20.1047 22.2942 20.8773 21.7156 21.51 21C21.6794 20.7715 21.786 20.5027 21.8194 20.2203C21.8527 19.9379 21.8115 19.6516 21.7 19.39C21.604 19.1428 21.4547 18.9197 21.2629 18.7365C21.0711 18.5533 20.8414 18.4146 20.59 18.33ZM18.68 18.39C17.98 18.47 17.01 18.71 15.81 18.89C15.1941 18.9886 14.5731 19.052 13.95 19.08H13.49C14.02 18.85 14.6 18.6 15 18.4C15.4 18.2 15.64 18.03 16 17.77C16.4627 17.4822 16.9437 17.225 17.44 17C17.6393 16.8628 17.8678 16.7742 18.1075 16.7412C18.3471 16.7082 18.5911 16.7318 18.82 16.81C18.9685 16.8783 19.1011 16.9766 19.2096 17.0989C19.318 17.2211 19.3999 17.3645 19.45 17.52C19.5152 17.7827 19.5152 18.0573 19.45 18.32L18.68 18.39Z" fill="black"/>
<path fill-rule="evenodd" clip-rule="evenodd" d="M21.58 1.83C20.6345 1.0754 19.5387 0.531572 18.3659 0.234934C17.1932 -0.0617054 15.9706 -0.104302 14.78 0.109999C13.7053 0.309638 12.709 0.808893 11.9057 1.55022C11.1025 2.29154 10.525 3.24476 10.24 4.3C9.62433 6.34056 9.83254 8.54112 10.82 10.43C11.3506 11.2606 12.0609 11.9614 12.8987 12.4807C13.7364 12.9999 14.6801 13.3244 15.66 13.43C17.5828 13.7852 19.5682 13.3723 21.19 12.28C21.2283 12.2539 21.2611 12.2205 21.2864 12.1817C21.3117 12.1429 21.3291 12.0994 21.3374 12.0538C21.3458 12.0082 21.345 11.9614 21.3352 11.9161C21.3253 11.8709 21.3066 11.828 21.28 11.79C21.2242 11.7163 21.1422 11.6669 21.051 11.652C20.9598 11.6371 20.8663 11.6579 20.79 11.71C19.301 12.6418 17.5077 12.9574 15.79 12.59C14.9643 12.4841 14.1721 12.197 13.4702 11.7492C12.7684 11.3015 12.1741 10.7042 11.73 10C10.9281 8.35063 10.7955 6.45494 11.36 4.71C11.5769 3.84884 12.0343 3.06716 12.6789 2.45626C13.3234 1.84536 14.1285 1.43045 15 1.26C16.0358 1.04002 17.1065 1.04307 18.1411 1.26894C19.1756 1.49481 20.1502 1.93832 21 2.57C22.3 3.67 23.11 5.5 22.81 8.37C22.7641 8.80334 22.6667 9.22967 22.52 9.64C22.3768 10.0473 22.1746 10.4313 21.92 10.78C21.8717 10.8453 21.8509 10.9269 21.8622 11.0073C21.8734 11.0877 21.9157 11.1605 21.98 11.21C22.0118 11.2352 22.0484 11.2537 22.0876 11.2644C22.1267 11.275 22.1676 11.2777 22.2078 11.272C22.248 11.2664 22.2867 11.2527 22.3214 11.2317C22.3562 11.2108 22.3863 11.183 22.41 11.15C22.7144 10.7648 22.9603 10.3369 23.14 9.88C23.3195 9.4231 23.4437 8.94638 23.51 8.46C23.91 5.23 23 3.13 21.58 1.83Z" fill="black"/>
<path fill-rule="evenodd" clip-rule="evenodd" d="M17.18 6.76V6.26C17.09 5.39 16.89 4.26 16.86 3.98C16.86 3.89778 16.8273 3.81893 16.7692 3.76079C16.7111 3.70266 16.6322 3.67 16.55 3.67C16.4678 3.67 16.3889 3.70266 16.3308 3.76079C16.2727 3.81893 16.24 3.89778 16.24 3.98C16.24 4.25 16.07 5.41 16.03 6.3V7.3C16.0341 7.44315 16.0902 7.57991 16.1877 7.68479C16.2852 7.78967 16.4175 7.85549 16.56 7.87C16.56 7.87 17.06 7.87 17.74 7.87C18.42 7.87 18.92 7.87 19.51 7.81C19.6021 7.81014 19.6908 7.77497 19.7577 7.71172C19.8247 7.64848 19.8649 7.56197 19.87 7.47C19.8713 7.42403 19.8636 7.37825 19.8472 7.33528C19.8309 7.2923 19.8062 7.25297 19.7746 7.21954C19.743 7.18611 19.7052 7.15923 19.6632 7.14043C19.6212 7.12163 19.576 7.11129 19.53 7.11L17.18 6.76Z" fill="black"/>
</g>
<defs>
<clipPath id="clip0_1030_2750">
<rect width="24" height="24" fill="white"/>
</clipPath>
</defs>
</svg>
