<svg width="24" height="24" viewBox="0 0 24 24" fill="none" xmlns="http://www.w3.org/2000/svg">
<g clip-path="url(#clip0_1052_9324)">
<path fill-rule="evenodd" clip-rule="evenodd" d="M23.45 6.67999C23.3223 4.93649 22.8282 3.23955 22 1.69999C21.9705 1.64167 21.9243 1.59342 21.8674 1.56138C21.8104 1.52933 21.7452 1.51493 21.68 1.51999C21.6494 1.45018 21.6126 1.38325 21.57 1.31999C21.5231 1.2084 21.4662 1.10129 21.4 0.999988C21.1719 0.703155 20.8532 0.488843 20.4922 0.389581C20.1313 0.29032 19.7478 0.311528 19.4 0.449988C17.92 0.369987 16.5 0.219988 15.07 0.119988C14.41 0.119988 13.74 0.0299875 13.07 0.00998752C12.4 -0.0100125 11.58 0.00998752 10.84 0.00998752C10.1 0.00998752 9.36001 0.129988 8.61001 0.209988C7.86001 0.289988 7.10001 0.309988 6.34001 0.369988C6.00001 0.369988 5.66001 0.429987 5.34001 0.479988C5.2808 0.488967 5.22488 0.51299 5.17761 0.549758C5.13034 0.586525 5.09329 0.634808 5.07001 0.689988C5.02289 0.662779 4.96943 0.648455 4.91501 0.648455C4.86059 0.648455 4.80714 0.662779 4.76001 0.689988C3.95931 1.06766 3.27022 1.6465 2.76001 2.36999C2.04365 3.41211 1.53752 4.58401 1.27001 5.81999C0.948091 7.30369 0.757356 8.81285 0.700011 10.33C0.580011 12.56 0.700011 14.79 0.560011 17.05C0.560011 17.91 0.480011 18.74 0.480011 19.58C0.480011 20.15 0.480011 20.72 0.560011 21.31C0.577657 21.7943 0.654905 22.2746 0.790011 22.74C0.890286 23.0117 1.05908 23.2528 1.28001 23.44C1.60254 23.6601 1.97266 23.8006 2.36001 23.85C3.05178 23.907 3.7461 23.927 4.44001 23.91C5.82001 24 7.22001 24 8.61001 24C10 24 11.4 23.9 12.78 23.77L13.45 23.71C14.1169 23.7483 14.7858 23.7316 15.45 23.66C15.6615 23.6231 15.8617 23.5381 16.0351 23.4115C16.2085 23.285 16.3505 23.1202 16.45 22.93C16.5269 22.7641 16.5645 22.5828 16.56 22.4V21.61L16.49 18.45C16.49 17.52 16.4 16.6 16.34 15.68L18.45 15.54H18.57C19.0182 15.6415 19.4826 15.6486 19.9337 15.5608C20.3848 15.473 20.8126 15.2922 21.19 15.03C22.2309 14.2499 22.9268 13.0948 23.13 11.81C23.4722 10.1229 23.5799 8.39657 23.45 6.67999ZM15.6 22.48C15.52 22.64 15.29 22.63 15.05 22.65C14.44 22.7 13.72 22.58 13.39 22.65H12.68C11.33 22.77 9.96001 22.82 8.59001 22.84C7.22001 22.86 5.86001 22.84 4.50001 22.76H2.78001C2.50482 22.7591 2.23511 22.683 2.00001 22.54C1.8794 22.4073 1.80564 22.2386 1.79001 22.06C1.74327 21.772 1.71322 21.4815 1.70001 21.19C1.64001 20.64 1.61001 20.11 1.60001 19.57V17.08C1.60001 14.82 1.53001 12.59 1.60001 10.37C1.60497 10.3101 1.60497 10.2499 1.60001 10.19C1.85142 10.264 2.10922 10.3142 2.37001 10.34C2.70284 10.366 3.03719 10.366 3.37001 10.34C3.45584 10.3326 3.53595 10.2939 3.59499 10.2311C3.65403 10.1684 3.68786 10.0861 3.69001 9.99999C3.68872 9.95533 3.67864 9.91137 3.66034 9.87061C3.64205 9.82985 3.6159 9.7931 3.5834 9.76246C3.55089 9.73181 3.51267 9.70787 3.47091 9.692C3.42914 9.67614 3.38467 9.66866 3.34001 9.66999L1.64001 9.56999C1.69113 8.37121 1.83152 7.1779 2.06001 5.99999C2.25236 5.04437 2.58959 4.12375 3.06001 3.26999C3.5076 2.41532 4.20534 1.71758 5.06001 1.26999C5.13277 1.23209 5.19212 1.17275 5.23001 1.09999C5.29846 1.12086 5.37157 1.12086 5.44001 1.09999C5.77297 1.07768 6.10705 1.07768 6.44001 1.09999C7.21001 1.09999 8.00001 1.15999 8.76001 1.09999H12.03H15.33H18.33C17.8039 1.55839 17.3429 2.08662 16.96 2.66999C16.7322 3.00868 16.5284 3.36287 16.35 3.72999C16.1376 4.13383 15.9699 4.5597 15.85 4.99999L15.49 6.99999L15.34 8.49999V9.49999C15.1735 9.48999 15.0065 9.48999 14.84 9.49999C14.6486 9.52021 14.4583 9.55025 14.27 9.58999C14.1904 9.58999 14.1141 9.62159 14.0579 9.67786C14.0016 9.73412 13.97 9.81042 13.97 9.88999C13.97 9.96955 14.0016 10.0459 14.0579 10.1021C14.1141 10.1584 14.1904 10.19 14.27 10.19C14.4265 10.1998 14.5835 10.1998 14.74 10.19H15.33C15.33 10.57 15.38 10.95 15.43 11.34V12.41C15.43 14.41 15.6 16.49 15.61 18.56V21.68L15.6 22.48ZM16.34 15C16.34 14.62 16.29 14.24 16.26 13.85C16.5038 14.2362 16.8155 14.575 17.18 14.85L16.34 15ZM22.17 11.6C22.0126 12.4468 21.6051 13.227 21 13.84C20.7251 14.1126 20.3853 14.3108 20.0127 14.4157C19.64 14.5207 19.2468 14.529 18.87 14.44C18.4475 14.3483 18.0549 14.1518 17.7282 13.8688C17.4014 13.5857 17.151 13.2251 17 12.82C16.5038 11.4302 16.3062 9.95134 16.42 8.47999L16.5 7.06999L16.77 5.16999C16.8381 4.82672 16.942 4.49155 17.08 4.16999C17.2308 3.8254 17.4045 3.49132 17.6 3.16999C18.0469 2.34814 18.7021 1.65837 19.5 1.16999L19.65 1.10999C19.7113 1.10669 19.7703 1.08587 19.82 1.04999C20.0169 1.01337 20.2201 1.03024 20.4083 1.09884C20.5965 1.16743 20.7628 1.28524 20.89 1.43999L21.25 2.02999C21.2747 2.07253 21.3078 2.10957 21.3474 2.13881C21.387 2.16805 21.4321 2.18887 21.48 2.19999C22.1401 3.62632 22.5106 5.16945 22.57 6.73999C22.663 8.38064 22.5284 10.0263 22.17 11.63V11.6Z" fill="black"/>
<path fill-rule="evenodd" clip-rule="evenodd" d="M20.87 6.11001C20.891 5.80438 20.8192 5.49953 20.664 5.23542C20.5087 4.97132 20.2773 4.76029 20 4.63001C19.54 4.48001 18.93 4.69001 18.42 5.53001C18.1489 5.98351 17.9593 6.48104 17.86 7.00001C17.7263 7.74226 17.696 8.49945 17.77 9.25001C17.8373 9.90143 18.1106 10.5144 18.55 11C18.66 11.1006 18.7892 11.1779 18.9299 11.227C19.0707 11.2762 19.2199 11.2962 19.3686 11.2859C19.5173 11.2757 19.6624 11.2353 19.795 11.1672C19.9276 11.0991 20.045 11.0048 20.14 10.89C20.2286 10.8051 20.3121 10.7149 20.39 10.62C20.4692 10.5196 20.5394 10.4126 20.6 10.3C20.7656 9.93797 20.8607 9.54766 20.88 9.15001C20.9022 8.64453 20.8687 8.13814 20.78 7.64001L20.87 6.11001ZM20.08 7.64001C20.1302 8.12204 20.1302 8.60798 20.08 9.09001C20.0382 9.37517 19.9433 9.64994 19.8 9.90001L19.53 10.18C19.4613 10.2375 19.3784 10.2755 19.29 10.29C19.22 10.29 19.21 10.21 19.17 10.14C19.0089 9.83058 18.9201 9.4887 18.91 9.14001C18.8604 8.59781 18.8604 8.05221 18.91 7.51001C18.9568 6.98649 19.0956 6.47532 19.32 6.00001C19.3867 5.82782 19.4929 5.67369 19.63 5.55001C19.63 5.55001 19.7 5.47001 19.74 5.48001C19.94 5.48001 20.06 5.78001 20.11 6.15001L20.16 7.35001C20.1246 7.38855 20.0989 7.43494 20.085 7.48536C20.0711 7.53578 20.0694 7.58879 20.08 7.64001Z" fill="black"/>
<path fill-rule="evenodd" clip-rule="evenodd" d="M7.18 9.75H6.27C6.04102 9.77016 5.81572 9.8206 5.6 9.9C5.5583 9.9055 5.51822 9.91972 5.48237 9.94172C5.44652 9.96371 5.41569 9.99301 5.39189 10.0277C5.36809 10.0624 5.35186 10.1017 5.34423 10.143C5.33661 10.1844 5.33777 10.2269 5.34764 10.2678C5.35751 10.3087 5.37587 10.3471 5.40152 10.3804C5.42718 10.4137 5.45956 10.4413 5.49656 10.4613C5.53356 10.4813 5.57435 10.4933 5.61629 10.4965C5.65823 10.4998 5.70038 10.4941 5.74 10.48H7.24C7.33018 10.472 7.4135 10.4286 7.47163 10.3592C7.52977 10.2898 7.55796 10.2002 7.55 10.11C7.54205 10.0198 7.4986 9.93651 7.42921 9.87837C7.35982 9.82023 7.27018 9.79204 7.18 9.8V9.75Z" fill="black"/>
<path fill-rule="evenodd" clip-rule="evenodd" d="M11.73 9.37997L10.33 9.50997C10.2906 9.50997 10.2516 9.51773 10.2152 9.5328C10.1788 9.54788 10.1457 9.56998 10.1179 9.59784C10.09 9.62569 10.0679 9.65877 10.0528 9.69516C10.0378 9.73156 10.03 9.77057 10.03 9.80997C10.03 9.84936 10.0378 9.88837 10.0528 9.92477C10.0679 9.96117 10.09 9.99424 10.1179 10.0221C10.1457 10.05 10.1788 10.0721 10.2152 10.0871C10.2516 10.1022 10.2906 10.11 10.33 10.11C10.5255 10.1387 10.7225 10.1554 10.92 10.16C11.18 10.16 11.41 10.11 11.78 10.07C11.8711 10.0623 11.9556 10.0193 12.0154 9.95015C12.0752 9.88101 12.1055 9.79121 12.1 9.69997C12.09 9.60983 12.0463 9.5268 11.9777 9.46747C11.9091 9.40814 11.8206 9.37689 11.73 9.37997Z" fill="black"/>
</g>
<defs>
<clipPath id="clip0_1052_9324">
<rect width="24" height="24" fill="white"/>
</clipPath>
</defs>
</svg>
