<svg width="24" height="24" viewBox="0 0 24 24" fill="none" xmlns="http://www.w3.org/2000/svg">
<g clip-path="url(#clip0_1033_3953)">
<path fill-rule="evenodd" clip-rule="evenodd" d="M2.99999 10.39C3.05999 9.54 2.74999 9.78 4.58999 9.32C5.85992 9.04289 7.15135 8.8756 8.44999 8.82C12.7 8.55 13.12 8.91 13.14 8.3C13.1413 8.24878 13.1325 8.1978 13.1142 8.14998C13.0958 8.10215 13.0682 8.05841 13.0329 8.02127C12.9976 7.98412 12.9553 7.95429 12.9085 7.93348C12.8617 7.91268 12.8112 7.9013 12.76 7.9C10.38 7.76 4.57999 7.53 2.45999 8.6C1.90999 8.87 1.78999 9.36 1.70999 10.02C1.36999 13.13 2.14999 16.72 2.57999 19.32C2.69999 19.56 3.39999 19.68 3.34999 19.17C2.96183 16.2605 2.84466 13.3212 2.99999 10.39Z" fill="black"/>
<path fill-rule="evenodd" clip-rule="evenodd" d="M21.51 16.18C21.51 14.58 21.39 14.3 21.04 14.28C20.69 14.26 20.62 14.38 20.28 16.09C20.1721 17.1524 20.199 18.2243 20.36 19.28C20.4019 19.3619 20.4657 19.4306 20.5442 19.4786C20.6227 19.5266 20.7129 19.552 20.805 19.552C20.897 19.552 20.9872 19.5266 21.0657 19.4786C21.1443 19.4306 21.208 19.3619 21.25 19.28C21.4278 18.2563 21.5148 17.219 21.51 16.18Z" fill="black"/>
<path fill-rule="evenodd" clip-rule="evenodd" d="M22.85 19.91C11.37 19.61 3.61998 19.48 0.999983 20C0.319983 20.13 0.329983 20.31 0.269983 20.53C-1.00002 25.09 6.56998 23.85 19.06 23.85C19.92 23.85 21.48 23.97 22.36 23.43C23.43 22.78 23.19 21.85 23.09 20.59C23.153 20.5411 23.199 20.4735 23.2214 20.397C23.2439 20.3204 23.2417 20.2387 23.2152 20.1635C23.1886 20.0883 23.139 20.0233 23.0735 19.9778C23.008 19.9323 22.9298 19.9086 22.85 19.91ZM21.59 22.76C20.19 23.14 19.06 22.35 9.28998 22.7C3.84998 22.9 0.479983 23.39 0.899983 20.83C3.89998 20.73 13.62 20.96 22.31 20.7C22.34 21.92 22.51 22.51 21.59 22.76Z" fill="black"/>
<path fill-rule="evenodd" clip-rule="evenodd" d="M23.8 2.05001C23.7075 1.59766 23.442 1.19933 23.06 0.940009C21.13 -0.199991 17.62 0.410009 15.82 8.912e-06C15.44 -0.0899911 14.59 6.42001 14.53 7.08001C14.3822 8.50827 14.3288 9.94472 14.37 11.38C14.378 11.5273 14.4299 11.6689 14.519 11.7865C14.6081 11.9041 14.7303 11.9924 14.87 12.04C16.42 12.68 20.15 12.79 20.87 12.86C20.9651 12.8582 21.0563 12.8216 21.1264 12.7572C21.1965 12.6928 21.2406 12.605 21.2504 12.5104C21.2603 12.4157 21.2352 12.3207 21.1798 12.2433C21.1245 12.1659 21.0427 12.1113 20.95 12.09C15.05 11.32 16.71 11.03 15.58 10.84C15.58 9.84001 15.67 8.77001 15.75 7.43001C17.75 6.00001 17.33 6.36001 17.65 6.00001C18.2328 6.87947 18.8708 7.72115 19.56 8.52001C19.6289 8.6009 19.7272 8.65108 19.8331 8.65952C19.9391 8.66796 20.0441 8.63396 20.125 8.56501C20.2059 8.49605 20.256 8.39779 20.2645 8.29183C20.2729 8.18587 20.2389 8.0809 20.17 8.00001L19.61 6.94001L20.93 6.15001C21.05 6.30001 20.82 6.08001 22.26 7.43001C22.1106 9.16476 21.8703 10.8905 21.54 12.6C21.5161 12.7008 21.5332 12.8069 21.5876 12.8951C21.642 12.9832 21.7292 13.0461 21.83 13.07C21.9308 13.0939 22.0369 13.0767 22.125 13.0223C22.2132 12.968 22.2761 12.8808 22.3 12.78C22.78 10.8 24.31 4.00001 23.8 2.05001ZM20.57 4.84001C20.0472 5.21424 19.5881 5.67005 19.21 6.19001L18.84 5.47001C17.64 3.86001 17.18 4.64001 15.84 6.11001C16.17 0.110009 16.14 0.840009 16.14 0.770009C17.96 1.15001 21.14 1.17001 22.35 2.01001C22.82 2.33001 22.46 4.72001 22.35 6.01001C22 5.34001 21.22 4.40001 20.57 4.84001Z" fill="black"/>
<path fill-rule="evenodd" clip-rule="evenodd" d="M12.69 15.45C12.05 14.16 10.53 10.94 9.32996 11.74C9.14996 11.86 8.68996 12.42 4.17996 17.53C3.86996 17.86 4.37996 18.32 4.68996 17.99C6.88996 15.82 7.48996 15.7 9.81996 13.12C11.11 14.37 11.89 16.44 13.28 18C13.35 18.0637 13.4408 18.0996 13.5355 18.1013C13.6301 18.1029 13.7221 18.07 13.7943 18.0089C13.8665 17.9477 13.914 17.8623 13.9279 17.7687C13.9418 17.6751 13.9212 17.5796 13.87 17.5C13.5553 17.0871 13.2807 16.6451 13.05 16.18L14.62 15C15.24 14.44 14.52 14.22 15.54 15.17C16.41 15.87 17.43 16.75 18.17 17.49C18.2382 17.5661 18.3336 17.6124 18.4356 17.6189C18.5376 17.6254 18.6381 17.5916 18.7154 17.5247C18.7927 17.4579 18.8407 17.3634 18.849 17.2615C18.8574 17.1596 18.8254 17.0586 18.76 16.98C18.33 16.39 17.88 15.83 17.4 15.29C16.54 14.29 15.2 12.63 14.27 13.56C13.7793 14.2193 13.2518 14.8503 12.69 15.45Z" fill="black"/>
</g>
<defs>
<clipPath id="clip0_1033_3953">
<rect width="24" height="24" fill="white"/>
</clipPath>
</defs>
</svg>
