<svg width="24" height="24" viewBox="0 0 24 24" fill="none" xmlns="http://www.w3.org/2000/svg">
<g clip-path="url(#clip0_1034_4646)">
<path fill-rule="evenodd" clip-rule="evenodd" d="M24 11C24 9.18001 24.08 3.23001 23.84 2.18001C23.66 1.38001 22.89 1.84001 23.16 2.27001C23.2549 3.09307 23.2916 3.92178 23.27 4.75001C23.27 6.02001 23.14 15.27 23.08 16.26C23.0801 16.8512 22.9856 17.4387 22.8 18C22.68 17.92 22.22 18.11 21.74 18.14C19.15 18.28 2.86 18.51 1.9 18.19L1.37 18C0.77 17 1.59 4.28001 1.77 3.16001C1.85 2.71001 2.04 2.59001 2.77 2.33001C3.17008 2.20169 3.58222 2.11457 4 2.07001C11 1.72001 16.82 1.26001 21 1.78001C21.3633 1.79202 21.7219 1.86644 22.06 2.00001C22.0889 2.02693 22.1228 2.0479 22.1598 2.06171C22.1968 2.07553 22.2361 2.08192 22.2756 2.08053C22.3151 2.07914 22.3539 2.06998 22.3898 2.05359C22.4257 2.03721 22.4581 2.0139 22.485 1.98501C22.5119 1.95612 22.5329 1.92221 22.5467 1.88521C22.5605 1.84822 22.5669 1.80887 22.5655 1.7694C22.5641 1.72994 22.555 1.69113 22.5386 1.65521C22.5222 1.61928 22.4989 1.58693 22.47 1.56001C22.1355 1.35793 21.7593 1.23481 21.37 1.20001C17.37 0.520009 12.87 0.900009 3.88 1.10001C2.806 1.15357 1.78567 1.58579 1 2.32001C0.77339 2.81836 0.667197 3.36303 0.69 3.91001C0.37 7.36001 -0.22 15 0.0899998 17.57C0.26 18.93 0.64 19 1.53 19.3C2.67 19.68 22.73 19.47 23.37 18.81C24.2 18 24 14 24 11Z" fill="black"/>
<path fill-rule="evenodd" clip-rule="evenodd" d="M7.15 20.72C6.91703 20.7697 6.70501 20.8899 6.54276 21.0644C6.38051 21.2388 6.27589 21.4589 6.24312 21.6949C6.21035 21.9308 6.25101 22.1711 6.35959 22.3832C6.46817 22.5952 6.6394 22.7687 6.85 22.88C7.01918 23.0317 7.22796 23.1323 7.45206 23.17C7.67615 23.2077 7.90635 23.181 8.11587 23.093C8.32538 23.005 8.50561 22.8593 8.63557 22.6729C8.76553 22.4865 8.83989 22.267 8.85 22.04C9 20.9 7.82 20.62 7.15 20.72Z" fill="black"/>
<path fill-rule="evenodd" clip-rule="evenodd" d="M16 20.73C15.7782 20.776 15.576 20.8893 15.421 21.0545C15.2661 21.2197 15.1659 21.4288 15.1341 21.653C15.1024 21.8773 15.1407 22.1059 15.2438 22.3076C15.3468 22.5093 15.5097 22.6743 15.71 22.78C15.8706 22.9273 16.07 23.0255 16.2846 23.063C16.4993 23.1005 16.7201 23.0757 16.9211 22.9915C17.1221 22.9073 17.2947 22.7673 17.4186 22.588C17.5425 22.4088 17.6124 22.1978 17.62 21.98C17.73 20.89 16.66 20.63 16 20.73Z" fill="black"/>
<path fill-rule="evenodd" clip-rule="evenodd" d="M11 21.24C10.9015 21.3688 10.8335 21.5183 10.8013 21.6771C10.769 21.836 10.7732 22.0001 10.8137 22.1571C10.8541 22.3141 10.9297 22.4599 11.0348 22.5834C11.1398 22.7069 11.2715 22.8049 11.42 22.87C12.72 23.44 13.79 21.97 13.18 21.23C13.037 21.0862 12.8668 20.9722 12.6793 20.8947C12.4918 20.8172 12.2908 20.7778 12.0879 20.7787C11.885 20.7796 11.6844 20.8209 11.4976 20.9001C11.3109 20.9793 11.1417 21.0948 11 21.24Z" fill="black"/>
<path fill-rule="evenodd" clip-rule="evenodd" d="M7.26 7.11002C7.82 6.65002 7.44 6.42002 7.06 6.48002C6.88 6.43002 6.06 7.18002 5.73 7.48002C4.96 8.14002 3.37 9.48002 3.42 10.48C3.47 11.48 5.42 12.58 6.77 13.48C6.85354 13.5463 6.96 13.5767 7.06596 13.5645C7.17192 13.5523 7.2687 13.4986 7.335 13.415C7.4013 13.3315 7.4317 13.225 7.41952 13.1191C7.40733 13.0131 7.35354 12.9163 7.27 12.85C6.46711 12.1517 5.70894 11.4036 5 10.61C4.55 10.08 4.68 10.82 6.44 8.12002C6.47 8.06002 7.22 7.17002 7.26 7.11002Z" fill="black"/>
<path fill-rule="evenodd" clip-rule="evenodd" d="M16.42 13.35C16.4523 13.3927 16.4929 13.4285 16.5393 13.4552C16.5857 13.482 16.637 13.4991 16.6902 13.5056C16.7433 13.5121 16.7973 13.5079 16.8488 13.4932C16.9003 13.4785 16.9483 13.4536 16.99 13.42C19.33 11.85 21.33 11.04 19.76 9.1C19.46 8.74 17 6.39 16.7 6.48C15.63 6.3 16.65 7.28 17.34 8.12C19.1 10.82 19.22 10.12 18.78 10.61C17.5 12.14 16 12.8 16.42 13.35Z" fill="black"/>
</g>
<defs>
<clipPath id="clip0_1034_4646">
<rect width="24" height="24" fill="white"/>
</clipPath>
</defs>
</svg>
