<svg width="24" height="24" viewBox="0 0 24 24" fill="none" xmlns="http://www.w3.org/2000/svg">
<g clip-path="url(#clip0_1034_4654)">
<path fill-rule="evenodd" clip-rule="evenodd" d="M17.5 8.00001C17.7685 7.571 18.0693 7.16315 18.4 6.78001L19 6.00001C19.58 5.29001 19.41 5.31001 19.63 5.81001C19.85 6.31001 20.03 6.66001 20.26 7.08001C20.4032 7.37127 20.567 7.65197 20.75 7.92001C20.7706 7.95585 20.7982 7.98721 20.8312 8.01222C20.8641 8.03723 20.9017 8.05539 20.9418 8.06564C20.9819 8.07589 21.0236 8.07802 21.0645 8.0719C21.1054 8.06578 21.1447 8.05154 21.18 8.03001C21.2167 8.01022 21.249 7.98324 21.275 7.95068C21.301 7.91813 21.3202 7.88066 21.3314 7.84052C21.3426 7.80038 21.3456 7.75839 21.3402 7.71707C21.3348 7.67574 21.3211 7.63593 21.3 7.60001C21.1808 7.34094 21.0805 7.07358 21 6.80001C20.84 6.35001 20.71 5.90001 20.59 5.47001C20.5255 5.23834 20.4052 5.02602 20.2396 4.85167C20.0739 4.67732 19.8681 4.54627 19.64 4.47001C19.4512 4.44765 19.2599 4.47458 19.0846 4.54819C18.9094 4.6218 18.7562 4.73957 18.64 4.89001L18.23 5.44001L17.73 6.29001L17 7.71001C16.9615 7.77632 16.951 7.85518 16.9707 7.92926C16.9904 8.00333 17.0387 8.06655 17.105 8.10501C17.1713 8.14347 17.2502 8.15401 17.3242 8.13432C17.3983 8.11463 17.4615 8.06632 17.5 8.00001Z" fill="black"/>
<path fill-rule="evenodd" clip-rule="evenodd" d="M20.1 18.42L20.6 17.57L21.31 16.1C21.3271 16.068 21.3376 16.0328 21.3408 15.9967C21.344 15.9605 21.3399 15.924 21.3287 15.8895C21.3175 15.8549 21.2994 15.823 21.2756 15.7956C21.2518 15.7682 21.2227 15.7459 21.19 15.73C21.1572 15.7127 21.1213 15.7021 21.0844 15.6987C21.0475 15.6954 21.0103 15.6994 20.9749 15.7106C20.9396 15.7218 20.9068 15.7398 20.8785 15.7638C20.8502 15.7877 20.8269 15.817 20.81 15.85C20.68 16.07 20.54 16.28 20.39 16.49C20.24 16.7 20.08 16.88 19.92 17.07L19.28 17.8C18.7 18.5 18.87 18.48 18.64 17.98C18.41 17.48 18.25 17.14 18.02 16.71C17.8746 16.42 17.7109 16.1394 17.53 15.87C17.5094 15.8342 17.4818 15.8028 17.4488 15.7778C17.4159 15.7528 17.3783 15.7346 17.3382 15.7244C17.2981 15.7141 17.2564 15.712 17.2155 15.7181C17.1746 15.7242 17.1353 15.7385 17.1 15.76C17.0633 15.7798 17.031 15.8068 17.005 15.8393C16.979 15.8719 16.9598 15.9094 16.9486 15.9495C16.9374 15.9896 16.9344 16.0316 16.9398 16.073C16.9452 16.1143 16.9589 16.1541 16.98 16.19C17.1155 16.4571 17.2292 16.7346 17.32 17.02C17.48 17.46 17.6 17.91 17.73 18.34C17.7905 18.5793 17.9087 18.8002 18.0743 18.9833C18.2399 19.1663 18.4479 19.306 18.68 19.39C18.8696 19.4103 19.0612 19.3813 19.2363 19.306C19.4115 19.2307 19.5643 19.1115 19.68 18.96L20.1 18.42Z" fill="black"/>
<path fill-rule="evenodd" clip-rule="evenodd" d="M22.91 2.47C22.6901 2.18648 22.4141 1.95135 22.0992 1.77929C21.7843 1.60723 21.4374 1.50194 21.08 1.47C20.1682 1.43027 19.2548 1.47043 18.35 1.59C15.55 1.7 12.78 1.17 10 1H7.84C6.7367 1.01805 5.63514 1.09483 4.54 1.23C3.73916 1.31712 2.96744 1.58005 2.28 2C1.26941 2.87382 0.641222 4.10866 0.530001 5.44C7.7486e-07 8.3 0.470001 12.1 0.400001 13.78C0.154095 15.6369 0.0205191 17.507 7.567e-07 19.38C-0.0555702 20.2966 0.237332 21.2003 0.820001 21.91C1.3811 22.3429 2.04716 22.619 2.75 22.71C3.70118 22.8402 4.65996 22.907 5.62 22.91C6.82 22.99 8.03 23 9.22 22.99C12.01 22.99 14.79 22.78 17.58 22.8C17.6171 22.8028 17.6544 22.7978 17.6895 22.7855C17.7246 22.7732 17.7568 22.7537 17.784 22.7284C17.8112 22.703 17.8329 22.6723 17.8477 22.6382C17.8625 22.604 17.8701 22.5672 17.87 22.53C17.8675 22.4565 17.8372 22.3868 17.7852 22.3348C17.7332 22.2828 17.6635 22.2525 17.59 22.25C14.8 22.18 12.01 22.32 9.22 22.31C8.04 22.31 6.86 22.31 5.67 22.17C4.73955 22.1424 3.8114 22.0623 2.89 21.93C2.34011 21.8497 1.82012 21.6293 1.38 21.29C0.972054 20.7267 0.790083 20.0309 0.870001 19.34C0.917748 17.4953 1.07805 15.6552 1.35 13.83C1.43 12.18 1.04 8.43 1.54 5.63C1.61569 4.57207 2.0955 3.5838 2.88 2.87C3.44077 2.55629 4.06047 2.36221 4.7 2.3C5.75558 2.17272 6.81695 2.09929 7.88 2.08C10.67 1.95 13.45 2.46 16.25 2.57H18.4C19.2608 2.44506 20.1304 2.39154 21 2.41C21.455 2.44623 21.878 2.65778 22.18 3C22.7621 3.7591 23.0878 4.68364 23.11 5.64C23.0918 7.17629 22.9446 8.70834 22.67 10.22C22.58 11.02 22.54 11.82 22.51 12.62C22.43 14.47 22.51 16.32 22.39 18.17V20.17C22.3908 20.5637 22.3054 20.9528 22.14 21.31C21.9517 21.5571 21.6828 21.7304 21.38 21.8C20.833 21.952 20.2745 22.0591 19.71 22.12C19.6693 22.1259 19.6301 22.1398 19.5948 22.1608C19.5594 22.1819 19.5286 22.2097 19.504 22.2426C19.4794 22.2756 19.4615 22.3131 19.4514 22.3529C19.4413 22.3928 19.4391 22.4343 19.445 22.475C19.4509 22.5157 19.4648 22.5549 19.4858 22.5902C19.5069 22.6256 19.5347 22.6564 19.5676 22.681C19.6006 22.7056 19.6381 22.7235 19.6779 22.7336C19.7178 22.7437 19.7593 22.7459 19.8 22.74C20.5097 22.6855 21.209 22.5375 21.88 22.3C22.2295 22.1765 22.5283 21.941 22.73 21.63C22.8795 21.3016 22.9708 20.9497 23 20.59C23.1 19.81 23 18.89 23.07 18.25C23.18 16.4 23.18 14.55 23.27 12.7C23.27 11.92 23.37 11.14 23.47 10.36C23.7753 8.80042 23.9526 7.21848 24 5.63C23.9842 4.48716 23.6021 3.37954 22.91 2.47Z" fill="black"/>
<path fill-rule="evenodd" clip-rule="evenodd" d="M15.72 14.53C15.72 13.21 15.83 11.88 15.86 10.53C15.89 9.18 15.86 7.88 15.94 6.53C15.94 5.39 16.04 4.26 16.15 3.14C16.1585 3.06719 16.1382 2.99395 16.0933 2.93598C16.0484 2.87802 15.9826 2.83997 15.91 2.83C15.8737 2.82438 15.8367 2.82621 15.8012 2.83538C15.7657 2.84455 15.7324 2.86086 15.7034 2.88332C15.6744 2.90578 15.6502 2.93391 15.6325 2.96601C15.6147 2.99811 15.6036 3.03349 15.6 3.07C15.2867 4.94333 15.0633 6.84 14.93 8.76C14.87 9.52 14.82 10.28 14.79 11.04C14.79 12.19 14.73 13.33 14.7 14.46C14.7 16.09 14.55 17.8 14.53 19.46C14.53 20.2 14.53 20.93 14.61 21.64C14.6113 21.6816 14.6209 21.7225 14.6383 21.7603C14.6557 21.7981 14.6805 21.832 14.7113 21.86C14.7421 21.888 14.7782 21.9095 14.8175 21.9233C14.8568 21.937 14.8985 21.9427 14.94 21.94C14.9822 21.939 15.0236 21.9291 15.0617 21.9109C15.0998 21.8928 15.1336 21.8668 15.1609 21.8348C15.1883 21.8027 15.2086 21.7652 15.2205 21.7247C15.2324 21.6843 15.2356 21.6418 15.23 21.6V19.49C15.38 17.86 15.63 16.16 15.72 14.53Z" fill="black"/>
<path fill-rule="evenodd" clip-rule="evenodd" d="M13.47 10C13.5084 9.41064 13.5084 8.81939 13.47 8.23002C13.5113 7.30871 13.4032 6.3868 13.15 5.50002C13.0326 5.19359 12.8215 4.932 12.5468 4.75247C12.2721 4.57293 11.9478 4.48459 11.62 4.50002H10.67L9.39 4.60002C8.39 4.70002 7.28 4.90002 6.22 4.99002C5.77854 5.04017 5.33418 5.06022 4.89 5.05002C4.7962 5.06012 4.71011 5.10665 4.65026 5.17959C4.59042 5.25253 4.5616 5.34604 4.57 5.44002C4.55795 5.53493 4.58214 5.63091 4.63776 5.70876C4.69337 5.78662 4.77631 5.84063 4.87 5.86002H6.26C7.32 5.86002 8.38 5.68002 9.44 5.63002H10.69H11.59C11.98 5.63002 12.2 5.78002 12.31 6.03002C12.4584 6.75002 12.4989 7.4881 12.43 8.22002V9.36001C12.4406 9.51316 12.4406 9.66686 12.43 9.82001C12.43 9.87002 12.37 9.94002 12.43 9.97002C12.3011 10.0394 12.1563 10.0738 12.01 10.07C11.6373 10.0996 11.2627 10.0996 10.89 10.07C9.68 10.07 8.48 10.3 7.29 10.37C6.7977 10.415 6.30231 10.415 5.81 10.37C5.40015 10.3574 4.99206 10.3106 4.59 10.23C4.37143 10.2302 4.16079 10.1481 4 10C3.78361 9.49984 3.70755 8.95016 3.78 8.41002C3.78 7.28002 4.04 6.02002 4.09 5.47002C4.10899 5.38664 4.09587 5.29916 4.05324 5.22503C4.01061 5.15089 3.94162 5.09555 3.86 5.07002C3.71 5.07002 3.57 5.17002 3.54 5.37002C3.32037 6.53003 3.1701 7.70211 3.09 8.88002C3.03528 9.47838 3.14597 10.0803 3.41 10.62C3.58725 10.8804 3.83785 11.0823 4.13 11.2C4.6314 11.3743 5.15171 11.4884 5.68 11.54C6.20572 11.6243 6.73758 11.6645 7.27 11.66C8.46 11.66 9.65 11.45 10.85 11.49C11.3288 11.5373 11.8112 11.5373 12.29 11.49C12.5902 11.4382 12.8684 11.2991 13.09 11.09C13.3297 10.7765 13.4628 10.3946 13.47 10Z" fill="black"/>
<path fill-rule="evenodd" clip-rule="evenodd" d="M12.56 14.58C12.5688 14.5399 12.5695 14.4985 12.5622 14.4581C12.5549 14.4178 12.5396 14.3793 12.5173 14.3449C12.495 14.3104 12.466 14.2808 12.4322 14.2577C12.3983 14.2345 12.3602 14.2183 12.32 14.21C12.1077 14.149 11.8901 14.1088 11.67 14.09C11.19 14.03 10.67 14.03 10.25 13.98C9.83 13.93 9.19 13.87 8.66 13.86C8.13043 13.83 7.59958 13.83 7.07 13.86C6.01264 13.9559 4.96337 14.1263 3.93 14.37C3.88864 14.3746 3.84858 14.3873 3.81212 14.4074C3.77566 14.4274 3.74352 14.4545 3.71751 14.487C3.69151 14.5195 3.67217 14.5568 3.66059 14.5968C3.649 14.6368 3.64541 14.6786 3.65 14.72C3.6546 14.7614 3.6673 14.8014 3.68737 14.8379C3.70745 14.8743 3.73451 14.9065 3.76701 14.9325C3.79951 14.9585 3.83682 14.9778 3.87679 14.9894C3.91677 15.001 3.95864 15.0046 4 15H5.24H7.72H8.95H10.2C10.62 15 11.14 14.92 11.62 14.92C11.8064 14.9048 11.9936 14.9048 12.18 14.92C12.2288 14.9317 12.2796 14.9314 12.3282 14.9191C12.3768 14.9069 12.4218 14.883 12.4591 14.8496C12.4965 14.8162 12.5252 14.7742 12.5427 14.7272C12.5603 14.6803 12.5662 14.6297 12.56 14.58Z" fill="black"/>
<path fill-rule="evenodd" clip-rule="evenodd" d="M6.77 18.69L7.84 18.62C8.54 18.62 9.24 18.52 9.96 18.53C10.32 18.53 10.73 18.48 11.12 18.53C11.265 18.5263 11.4097 18.5432 11.55 18.58C11.6275 18.5937 11.7073 18.5784 11.7742 18.537C11.8411 18.4955 11.8904 18.4309 11.9127 18.3554C11.9349 18.28 11.9286 18.1989 11.8949 18.1278C11.8612 18.0567 11.8025 18.0005 11.73 17.97C11.5544 17.91 11.3736 17.8665 11.19 17.84C10.8 17.78 10.38 17.77 10.02 17.73C9.49299 17.654 8.96218 17.6073 8.43 17.59C7.89516 17.5795 7.36029 17.6096 6.83 17.68C5.77881 17.8447 4.74226 18.0921 3.73 18.42C3.65934 18.441 3.59888 18.4872 3.56015 18.5499C3.52142 18.6126 3.50713 18.6874 3.52 18.76C3.53888 18.8299 3.58321 18.8901 3.64427 18.929C3.70533 18.9679 3.77871 18.9825 3.85 18.97C4.48 18.88 5.09 18.82 5.7 18.78C6.06 18.71 6.41 18.71 6.77 18.69Z" fill="black"/>
</g>
<defs>
<clipPath id="clip0_1034_4654">
<rect width="24" height="24" fill="white"/>
</clipPath>
</defs>
</svg>
