<svg width="24" height="24" viewBox="0 0 24 24" fill="none" xmlns="http://www.w3.org/2000/svg">
<g clip-path="url(#clip0_1030_2810)">
<path fill-rule="evenodd" clip-rule="evenodd" d="M21.06 15.14C21.0499 15.0515 21.0055 14.9705 20.9363 14.9144C20.8671 14.8583 20.7787 14.8316 20.69 14.84C20.5988 14.8501 20.5153 14.8956 20.4573 14.9666C20.3993 15.0377 20.3716 15.1287 20.38 15.22C20.88 20.54 18.07 22.77 14.81 22.99C12.6031 23.1027 10.4246 22.4531 8.63998 21.15C8.06495 20.7645 7.57853 20.2611 7.21301 19.6731C6.8475 19.0852 6.61126 18.4262 6.51998 17.74C6.24438 15.7002 6.72456 13.6301 7.86998 11.92C8.48755 11.1188 9.28626 10.4754 10.2006 10.0426C11.1149 9.60972 12.1188 9.3998 13.13 9.43C17.99 9.43 19.49 11.43 19.87 13.18C19.8783 13.2189 19.8942 13.2557 19.9168 13.2884C19.9395 13.321 19.9684 13.3489 20.0019 13.3703C20.0354 13.3917 20.0728 13.4062 20.1119 13.413C20.1511 13.4199 20.1912 13.4188 20.23 13.41C20.2685 13.4029 20.3051 13.3881 20.3377 13.3664C20.3703 13.3448 20.3982 13.3168 20.4197 13.2841C20.4412 13.2514 20.4558 13.2147 20.4627 13.1762C20.4697 13.1376 20.4687 13.0981 20.46 13.06C20.26 11.9271 19.6427 10.9102 18.73 10.21C18.73 8.93 18.73 7.62 18.64 6.34C18.57 5.34 18.47 4.46 18.32 3.59C18.1244 2.67027 17.611 1.84886 16.87 1.27C15.8132 0.445205 14.5106 -0.00190332 13.17 -3.70294e-06C12.6063 -0.0393995 12.0405 0.0329358 11.5048 0.212849C10.9692 0.392761 10.4744 0.676707 10.0489 1.04838C9.62331 1.42005 9.27535 1.87213 9.02499 2.37866C8.77463 2.88518 8.6268 3.43618 8.58998 4L8.43998 6.09C8.4344 6.17065 8.46056 6.2503 8.51286 6.31194C8.56517 6.37359 8.63949 6.41236 8.71998 6.42C8.7927 6.41529 8.86121 6.38428 8.91274 6.33275C8.96426 6.28123 8.99527 6.21271 8.99998 6.14L9.27998 4.08C9.40694 3.18562 9.87865 2.37637 10.5943 1.82514C11.31 1.27391 12.2128 1.02443 13.11 1.13C14.1898 1.14248 15.2387 1.49211 16.11 2.13C16.6912 2.52468 17.1075 3.11888 17.28 3.8C17.5244 4.88804 17.7014 5.99014 17.81 7.1C17.9 7.97 17.96 8.84 18.01 9.71C16.5012 8.95361 14.8378 8.55659 13.15 8.55C11.9829 8.47685 10.8152 8.68478 9.74508 9.15633C8.67495 9.62789 7.73357 10.3493 6.99998 11.26C5.65675 13.1667 5.07206 15.5055 5.35998 17.82C5.46455 18.675 5.75508 19.4968 6.21116 20.2276C6.66725 20.9584 7.27782 21.5804 7.99998 22.05C9.99376 23.4865 12.429 24.1767 14.88 24C18.55 23.63 21.77 21.12 21.06 15.14Z" fill="black"/>
<path fill-rule="evenodd" clip-rule="evenodd" d="M14.08 17.57C13.7755 17.7533 13.4338 17.866 13.08 17.9C12.9337 17.9203 12.7847 17.9035 12.6466 17.851C12.5086 17.7986 12.3859 17.7123 12.29 17.6C12.2664 17.5685 12.2368 17.5419 12.2029 17.5219C12.169 17.5018 12.1314 17.4886 12.0924 17.483C12.0534 17.4774 12.0137 17.4796 11.9756 17.4894C11.9374 17.4992 11.9015 17.5164 11.87 17.54C11.8374 17.5627 11.8097 17.592 11.7889 17.6259C11.768 17.6597 11.7543 17.6976 11.7487 17.7369C11.7431 17.7763 11.7456 17.8165 11.7561 17.8549C11.7667 17.8932 11.785 17.929 11.81 17.96C11.9234 18.131 12.0706 18.2769 12.2426 18.3887C12.4146 18.5005 12.6077 18.5758 12.81 18.61C13.3608 18.6774 13.9197 18.598 14.43 18.38C14.7812 18.2519 15.0958 18.0402 15.3467 17.7632C15.5976 17.4861 15.7773 17.1521 15.87 16.79C15.9956 16.0762 15.8493 15.3413 15.46 14.73C15.3197 14.4993 15.1322 14.3007 14.91 14.1474C14.6877 13.994 14.4355 13.8893 14.17 13.84C13.4919 13.7044 12.7879 13.7994 12.17 14.11C11.882 14.211 11.6209 14.3766 11.4067 14.5941C11.1926 14.8116 11.0311 15.0753 10.9345 15.3648C10.838 15.6544 10.8091 15.9622 10.8499 16.2647C10.8907 16.5672 11.0002 16.8564 11.17 17.11C11.1884 17.1507 11.2146 17.1874 11.2472 17.218C11.2798 17.2485 11.318 17.2724 11.3598 17.2882C11.4016 17.304 11.4461 17.3114 11.4907 17.31C11.5354 17.3086 11.5793 17.2984 11.62 17.28C11.6607 17.2616 11.6974 17.2354 11.728 17.2028C11.7586 17.1703 11.7824 17.132 11.7982 17.0902C11.814 17.0484 11.8214 17.0039 11.82 16.9593C11.8186 16.9146 11.8084 16.8707 11.79 16.83C11.6543 16.5622 11.617 16.2553 11.6846 15.9628C11.7522 15.6704 11.9205 15.411 12.16 15.23C12.6281 14.9203 13.1999 14.8088 13.75 14.92C13.8941 14.9315 14.034 14.9741 14.16 15.0449C14.286 15.1157 14.3952 15.213 14.48 15.33C14.7362 15.7047 14.8497 16.1588 14.8 16.61C14.7621 16.8147 14.6774 17.0079 14.5525 17.1744C14.4276 17.3409 14.2659 17.4763 14.08 17.57Z" fill="black"/>
<path fill-rule="evenodd" clip-rule="evenodd" d="M6.06001 10C6.16598 9.93144 6.2663 9.85453 6.36001 9.77C6.60001 9.57 6.79001 9.36 7.00001 9.16C7.04063 9.14028 7.07661 9.11219 7.10559 9.07757C7.13458 9.04296 7.15591 9.0026 7.16819 8.95916C7.18047 8.91571 7.18342 8.87016 7.17684 8.82549C7.17025 8.78083 7.1543 8.73806 7.13001 8.7C7.08587 8.62215 7.01283 8.56485 6.92671 8.54051C6.8406 8.51618 6.74836 8.52677 6.67001 8.57C6.37358 8.64201 6.0828 8.73559 5.80001 8.85C5.67933 8.89006 5.56225 8.94024 5.45001 9C5.3437 9.06431 5.24331 9.13793 5.15001 9.22C4.92001 9.42 4.76001 9.65 4.53001 9.88C4.46223 9.92335 4.41327 9.99065 4.39289 10.0685C4.3725 10.1463 4.38219 10.229 4.42001 10.3C4.46328 10.368 4.53134 10.4165 4.60974 10.4351C4.68815 10.4538 4.77074 10.4412 4.84001 10.4C5.13825 10.3392 5.43221 10.259 5.72001 10.16C5.83853 10.1185 5.95247 10.0649 6.06001 10Z" fill="black"/>
<path fill-rule="evenodd" clip-rule="evenodd" d="M5.44002 3.99999C5.51162 4.10022 5.59193 4.19392 5.68002 4.28C5.77856 4.37324 5.88571 4.45694 6.00002 4.53C6.22996 4.70156 6.47043 4.85854 6.72002 4.99999C6.78375 5.0635 6.87005 5.09916 6.96002 5.09916C7.04999 5.09916 7.13629 5.0635 7.20002 4.99999C7.26188 4.9334 7.29625 4.84588 7.29625 4.755C7.29625 4.66411 7.26188 4.57659 7.20002 4.51C7.00002 4.25 6.90002 3.99999 6.72002 3.76999C6.6523 3.67239 6.57884 3.57889 6.50002 3.49C6.41508 3.40448 6.32491 3.32433 6.23002 3.24999C5.9798 3.09255 5.7192 2.95223 5.45002 2.82999C5.42207 2.80127 5.38864 2.77843 5.35171 2.76284C5.31478 2.74725 5.27511 2.73922 5.23502 2.73922C5.19494 2.73922 5.15526 2.74725 5.11833 2.76284C5.08141 2.77843 5.04798 2.80127 5.02002 2.82999C4.96505 2.88607 4.93427 2.96147 4.93427 3.03999C4.93427 3.11852 4.96505 3.19392 5.02002 3.24999C5.18002 3.51999 5.27002 3.76999 5.44002 3.99999Z" fill="black"/>
<path fill-rule="evenodd" clip-rule="evenodd" d="M5.49 6.61C5.49557 6.5653 5.49221 6.51994 5.4801 6.47655C5.46799 6.43316 5.44738 6.39261 5.41947 6.35726C5.39156 6.3219 5.3569 6.29244 5.31751 6.2706C5.27811 6.24875 5.23477 6.23495 5.19 6.23C5 6.12 4.75 6 4.52 5.93C4.42243 5.89724 4.32199 5.87381 4.22 5.86C4.12057 5.84491 4.01943 5.84491 3.92 5.86C2.86 5.93 2.86 6.14 2.84 6.23C2.83286 6.26945 2.8337 6.30994 2.84248 6.34907C2.85125 6.38819 2.86778 6.42516 2.89109 6.45779C2.91439 6.49042 2.944 6.51805 2.97817 6.53904C3.01233 6.56003 3.05036 6.57395 3.09 6.58C3.30099 6.72446 3.52535 6.84836 3.76 6.95C3.85757 6.98275 3.95801 7.00619 4.06 7.02H4.37C4.62 7.02 4.84 6.95 5.1 6.91C5.14546 6.91702 5.19187 6.91475 5.23643 6.90331C5.28098 6.89188 5.32275 6.87152 5.35921 6.84347C5.39567 6.81543 5.42606 6.78028 5.44854 6.74014C5.47103 6.70001 5.48513 6.65574 5.49 6.61Z" fill="black"/>
</g>
<defs>
<clipPath id="clip0_1030_2810">
<rect width="24" height="24" fill="white"/>
</clipPath>
</defs>
</svg>
