<svg width="24" height="24" viewBox="0 0 24 24" fill="none" xmlns="http://www.w3.org/2000/svg">
<g clip-path="url(#clip0_1044_5435)">
<path fill-rule="evenodd" clip-rule="evenodd" d="M23.28 2.58001C22.86 1.41001 21.55 1.47001 20.34 1.58001C19.78 1.66001 19.1 1.34001 19.05 1.79001C19.0409 1.85438 19.0537 1.91994 19.0864 1.97615C19.119 2.03237 19.1696 2.07599 19.23 2.10001C19.6206 2.16017 20.0149 2.19358 20.41 2.20001C21.19 2.13001 22.33 2.03001 22.56 2.78001C23.41 5.60001 22.68 8.30001 22.89 19.27C22.9656 20.0348 22.9656 20.8052 22.89 21.57C22.83 21.57 22.68 21.64 22.52 21.65C22 21.65 19.68 21.55 19.64 21.57C19.5764 21.5932 19.5215 21.6354 19.4827 21.6909C19.4439 21.7463 19.4231 21.8123 19.4231 21.88C19.4231 21.9477 19.4439 22.0137 19.4827 22.0692C19.5215 22.1246 19.5764 22.1668 19.64 22.19C19.72 22.19 22.18 22.41 22.59 22.41C22.8937 22.4254 23.1945 22.345 23.45 22.18C23.98 21.67 23.78 19.84 23.79 19.27C24 9.53001 24.34 5.48001 23.28 2.58001Z" fill="black"/>
<path fill-rule="evenodd" clip-rule="evenodd" d="M3.66 1.63C2.44 1.47 1.14 1.41 0.720002 2.63C-0.319998 5.45 1.87755e-06 9.07 0.210002 19.32C0.210002 19.91 0.0200019 21.73 0.550002 22.23C0.804895 22.3962 1.10617 22.4768 1.41 22.46C1.82 22.46 4.28 22.28 4.41 22.24C4.47357 22.2168 4.52848 22.1746 4.56727 22.1192C4.60606 22.0637 4.62686 21.9977 4.62686 21.93C4.62686 21.8623 4.60606 21.7963 4.56727 21.7408C4.52848 21.6854 4.47357 21.6432 4.41 21.62C4.41 21.62 2.05 21.73 1.53 21.7C1.37 21.7 1.22 21.59 1.16 21.62C1.0896 20.855 1.0896 20.0851 1.16 19.32C1.32 8.41 0.580002 5.66 1.44 2.83C1.67 2.08 2.81 2.18 3.59 2.25C3.98515 2.24357 4.3794 2.21016 4.77 2.15C4.8322 2.12928 4.88428 2.08583 4.9158 2.02835C4.94733 1.97086 4.95597 1.90359 4.94 1.84C4.9 1.39 4.21 1.71 3.66 1.63Z" fill="black"/>
<path fill-rule="evenodd" clip-rule="evenodd" d="M16.31 10C15.6859 8.55348 14.8538 7.2059 13.84 6.00002C13.42 5.52002 13.04 4.85002 12.14 4.91002C9.91 5.08002 5.04 10.71 6.37 12.32C7 13.08 9.51 11.4 10.17 10.73C10.28 11.82 10.89 18.14 11.17 18.93C11.1981 18.9886 11.2463 19.0351 11.3059 19.061C11.3654 19.0869 11.4324 19.0904 11.4943 19.071C11.5563 19.0515 11.6092 19.0104 11.6433 18.9551C11.6774 18.8998 11.6904 18.8341 11.68 18.77C11.39 17.84 11 10.69 10.91 10.07C10.82 9.45002 10.14 9.48002 9.72 10.01C8.97444 10.7315 8.07535 11.2751 7.09 11.6C7.1075 11.3693 7.17216 11.1447 7.28 10.94C7.98 9.31001 11.51 5.13002 12.58 6.11002C13.9936 7.6479 15.1213 9.42579 15.91 11.36C14.62 10.82 13.47 9.36001 12.97 9.36001C12.8527 9.38174 12.7473 9.44553 12.6736 9.53943C12.6 9.63333 12.5631 9.75088 12.57 9.87002C12.7 11.14 12.85 8.99002 11.82 18.87C11.833 18.9414 11.8706 19.006 11.9264 19.0526C11.9821 19.0991 12.0524 19.1246 12.125 19.1246C12.1976 19.1246 12.2679 19.0991 12.3236 19.0526C12.3794 19.006 12.417 18.9414 12.43 18.87C12.43 18.94 13.63 12.65 13.43 10.68C14.11 11.25 15.07 12.24 16.17 12.27C16.65 12.27 16.97 11.93 16.76 11.15C16.6324 10.7583 16.4821 10.3743 16.31 10Z" fill="black"/>
</g>
<defs>
<clipPath id="clip0_1044_5435">
<rect width="24" height="24" fill="white"/>
</clipPath>
</defs>
</svg>
