<svg width="24" height="24" viewBox="0 0 24 24" fill="none" xmlns="http://www.w3.org/2000/svg">
<g clip-path="url(#clip0_1048_7293)">
<path d="M5.69998 2.77998C5.71707 2.48356 5.71707 2.1864 5.69998 1.88998C5.69577 1.78567 5.66141 1.68481 5.60107 1.59962C5.54073 1.51443 5.45698 1.44856 5.35998 1.40998C4.94689 1.2921 4.51956 1.23153 4.08998 1.22998C3.15998 1.22998 2.14998 1.32998 1.32998 1.30998C1.28392 1.30174 1.23661 1.3037 1.19138 1.31573C1.14616 1.32776 1.10413 1.34956 1.06824 1.37959C1.03236 1.40963 1.0035 1.44717 0.983697 1.48956C0.963894 1.53196 0.953631 1.57819 0.953631 1.62498C0.953631 1.67177 0.963894 1.718 0.983697 1.7604C1.0035 1.8028 1.03236 1.84033 1.06824 1.87037C1.10413 1.9004 1.14616 1.9222 1.19138 1.93423C1.23661 1.94626 1.28392 1.94822 1.32998 1.93998C2.12998 1.99998 3.13998 1.99998 4.05998 1.99998C4.33757 2.02299 4.61222 2.07323 4.87998 2.14998C4.87998 2.35998 4.70998 3.87998 4.63998 4.52998C4.62615 4.87268 4.55517 5.21066 4.42998 5.52998C3.32565 5.51178 2.22353 5.42495 1.12998 5.26998C0.769979 4.99998 0.719979 4.49998 0.699979 3.54998L0.649979 1.99998C0.649979 1.92572 0.620479 1.8545 0.567968 1.80199C0.515458 1.74948 0.444239 1.71998 0.369979 1.71998C0.295718 1.71998 0.224499 1.74948 0.171989 1.80199C0.119478 1.8545 0.0899786 1.92572 0.0899786 1.99998L-2.14344e-05 3.52998C-0.0700214 4.87998 0.129979 5.58998 0.609979 5.99998C1.08998 6.40998 4.39998 6.49998 4.79998 6.43998C4.91364 6.42752 5.02302 6.38958 5.11998 6.32898C5.21694 6.26838 5.29898 6.18669 5.35998 6.08998C5.52101 5.74627 5.62245 5.37769 5.65998 4.99998C5.7272 4.26193 5.74057 3.51997 5.69998 2.77998Z" fill="black"/>
<path d="M3 9.99997C2.93 9.07997 2.85 8.16997 2.78 7.24997C2.71 6.32997 2.12 6.71997 2.08 7.24997C2 8.38997 1.92 9.49997 1.94 10.62C1.94 11.5 2.01 12.39 2.07 13.27C2.17 14.6 2.32 15.16 2.43 16.48C2.42998 16.5215 2.43831 16.5627 2.45451 16.601C2.47071 16.6392 2.49445 16.6739 2.5243 16.7028C2.55416 16.7317 2.58952 16.7543 2.62829 16.7693C2.66707 16.7843 2.70845 16.7913 2.75 16.79C2.79203 16.7887 2.83339 16.7791 2.87172 16.7618C2.91005 16.7445 2.9446 16.7199 2.97339 16.6892C3.00218 16.6586 3.02465 16.6225 3.03951 16.5832C3.05437 16.5439 3.06133 16.502 3.06 16.46V13.33V11.68C3.06 11.13 3 10.57 3 9.99997Z" fill="black"/>
<path d="M17.2 6.93996C15.5 6.49996 13.8 5.99996 12.1 5.50996L10.1 4.92996C9.42999 4.73996 8.75999 4.56996 8.09999 4.36996C7.64999 4.23996 7.21999 4.08996 6.78999 3.95996C6.21999 4.04996 5.96999 4.23996 6.78999 4.70996C7.60999 5.17996 8.68999 5.51996 9.66999 5.86996C10.3 6.07996 10.93 6.27996 11.56 6.45996C12.19 6.63996 12.84 6.79996 13.48 6.94996C14.72 7.22996 15.97 7.45996 17.21 7.66996C17.91 7.59996 18.1 7.40996 17.2 6.93996Z" fill="black"/>
<path d="M5.69999 19.11C5.71726 18.8169 5.71726 18.5231 5.69999 18.23C5.69644 18.1243 5.66248 18.0218 5.60217 17.9349C5.54187 17.848 5.45778 17.7803 5.35999 17.74C4.94488 17.6319 4.51879 17.5715 4.08999 17.56C3.15999 17.56 2.14999 17.66 1.32999 17.65C1.28449 17.6484 1.23916 17.6565 1.19704 17.6738C1.15492 17.6911 1.11697 17.7171 1.08573 17.7503C1.0545 17.7834 1.03069 17.8228 1.0159 17.8659C1.00112 17.9089 0.995692 17.9547 0.99999 18C0.997228 18.0832 1.02702 18.1643 1.08303 18.2259C1.13905 18.2875 1.21688 18.3248 1.29999 18.33C2.11999 18.4 3.12999 18.33 4.04999 18.43C4.32724 18.4497 4.60189 18.4966 4.86999 18.57C4.86999 18.79 4.69999 20.31 4.62999 20.95C4.61616 21.2927 4.54518 21.6307 4.41999 21.95C3.31573 21.9232 2.21392 21.8331 1.11999 21.68C0.75999 21.44 0.70999 20.92 0.68999 19.96V18.39C0.708421 18.3421 0.713834 18.2903 0.705678 18.2396C0.697522 18.189 0.676088 18.1415 0.643561 18.1018C0.611034 18.0622 0.568578 18.0319 0.520519 18.014C0.472461 17.9961 0.420519 17.9913 0.36999 18C0.296522 18.0025 0.226742 18.0328 0.174762 18.0848C0.122782 18.1367 0.0924823 18.2065 0.0899897 18.28L-1.03023e-05 19.87C-0.0900103 21.22 0.10999 21.92 0.58999 22.31C1.34197 22.7051 2.19751 22.8588 3.03999 22.75C3.61959 22.7804 4.20039 22.7804 4.77999 22.75C4.89453 22.7364 5.00448 22.6969 5.1015 22.6346C5.19853 22.5722 5.28008 22.4886 5.33999 22.39C5.50014 22.0565 5.60162 21.6979 5.63999 21.33C5.71213 20.5923 5.73218 19.8505 5.69999 19.11Z" fill="black"/>
<path d="M17.2 18C15.94 18.11 14.68 18.22 13.42 18.37C12.76 18.45 12.1 18.53 11.42 18.63C10.74 18.73 10.11 18.83 9.41998 18.95C8.50998 19.11 7.60998 19.29 6.70998 19.46C5.81998 19.89 5.81998 20.14 6.70998 20.22C7.87998 20.12 9.04998 20.02 10.22 19.87C11.39 19.72 12.32 19.56 13.36 19.39L17.13 18.72C18.08 18.51 17.92 17.84 17.2 18Z" fill="black"/>
<path d="M24 17.27C24.0163 16.9769 24.0163 16.6831 24 16.39C23.9985 16.2851 23.9665 16.1829 23.9079 16.0958C23.8493 16.0088 23.7666 15.9408 23.67 15.9C23.2549 15.7919 22.8288 15.7315 22.4 15.72C21.47 15.72 20.45 15.82 19.63 15.81C19.5885 15.8073 19.5468 15.813 19.5075 15.8267C19.4682 15.8404 19.4321 15.8619 19.4013 15.8899C19.3705 15.9179 19.3457 15.9518 19.3283 15.9896C19.3109 16.0274 19.3012 16.0684 19.3 16.11C19.2972 16.1932 19.327 16.2742 19.383 16.3358C19.439 16.3975 19.5169 16.4348 19.6 16.44C20.41 16.51 21.42 16.44 22.34 16.54C22.6205 16.5598 22.8985 16.6066 23.17 16.68C23.17 16.9 23 18.42 22.93 19.06C22.9109 19.402 22.8401 19.7392 22.72 20.06C21.6157 20.0332 20.5139 19.943 19.42 19.79C19.05 19.52 19 19 19 18V16.43C18.9975 16.3565 18.9672 16.2867 18.9152 16.2347C18.8632 16.1828 18.7935 16.1525 18.72 16.15C18.6832 16.15 18.6468 16.1572 18.6128 16.1713C18.5789 16.1854 18.548 16.206 18.522 16.232C18.496 16.258 18.4754 16.2888 18.4613 16.3228C18.4472 16.3568 18.44 16.3932 18.44 16.43C18.35 17.92 18.09 19.73 18.96 20.43C19.712 20.8251 20.5675 20.9788 21.41 20.87C21.9896 20.9004 22.5704 20.9004 23.15 20.87C23.2641 20.855 23.3735 20.815 23.4703 20.7527C23.5671 20.6905 23.649 20.6076 23.71 20.51C23.8667 20.1759 23.9648 19.8173 24 19.45C24.0371 18.7238 24.0371 17.9962 24 17.27Z" fill="black"/>
<path d="M21.59 11.5299C21.59 11.2899 21.53 11.0599 21.49 10.8199C21.4744 10.7184 21.4229 10.6258 21.345 10.559C21.267 10.4921 21.1677 10.4553 21.065 10.4553C20.9623 10.4553 20.8629 10.4921 20.785 10.559C20.707 10.6258 20.6556 10.7184 20.64 10.8199C20.64 11.0699 20.59 11.3199 20.58 11.5699C20.565 11.8464 20.565 12.1235 20.58 12.3999C20.58 12.6699 20.58 12.9499 20.65 13.2199C20.73 13.8599 20.83 14.4899 20.91 15.1299C20.91 15.2148 20.9437 15.2962 21.0037 15.3562C21.0637 15.4162 21.1451 15.4499 21.23 15.4499C21.3148 15.4499 21.3962 15.4162 21.4562 15.3562C21.5163 15.2962 21.55 15.2148 21.55 15.1299C21.55 14.4799 21.64 13.8399 21.65 13.1899V12.3699C21.65 12.0899 21.62 11.7999 21.59 11.5299Z" fill="black"/>
<path d="M24 6.53996C24.0162 6.24352 24.0162 5.94641 24 5.64996C23.9992 5.54616 23.9673 5.44497 23.9085 5.35942C23.8497 5.27388 23.7666 5.20789 23.67 5.16996C23.2532 5.05455 22.8225 4.99734 22.39 4.99996C21.46 4.99996 20.44 5.09996 19.62 5.07996C19.5461 5.09319 19.4791 5.13199 19.4309 5.18958C19.3827 5.24716 19.3563 5.31987 19.3563 5.39496C19.3563 5.47006 19.3827 5.54277 19.4309 5.60035C19.4791 5.65794 19.5461 5.69674 19.62 5.70996C20.43 5.77996 21.44 5.70996 22.36 5.80996C22.6409 5.83302 22.9188 5.88326 23.19 5.95996C23.19 6.16996 23.02 7.68996 22.95 8.33996C22.9309 8.68199 22.8601 9.01916 22.74 9.33996C22.2665 9.33097 21.7947 9.28078 21.33 9.18996C20.38 9.25996 19.79 9.31996 19.44 9.07996C19.09 8.83996 19 8.25996 19 7.30996V5.72996C18.9974 5.65745 18.9668 5.58877 18.9145 5.53841C18.8623 5.48804 18.7925 5.45992 18.72 5.45996C18.6828 5.45856 18.6458 5.46484 18.6112 5.47842C18.5766 5.49199 18.5452 5.51257 18.5189 5.53885C18.4926 5.56514 18.472 5.59657 18.4584 5.63117C18.4449 5.66578 18.4386 5.70282 18.44 5.73996C18.35 7.17996 18.09 9.02996 18.96 9.73996C19.6 10.25 22.64 10.26 23.15 10.18C23.2633 10.1661 23.3721 10.1276 23.4689 10.0672C23.5656 10.0067 23.6479 9.92571 23.71 9.82996C23.8654 9.49188 23.9634 9.13026 24 8.75996C24.0388 8.02047 24.0388 7.27945 24 6.53996Z" fill="black"/>
</g>
<defs>
<clipPath id="clip0_1048_7293">
<rect width="24" height="24" fill="white"/>
</clipPath>
</defs>
</svg>
