<svg width="24" height="24" viewBox="0 0 24 24" fill="none" xmlns="http://www.w3.org/2000/svg">
<path fill-rule="evenodd" clip-rule="evenodd" d="M1.08002 8.88998C2.36002 9.54998 4.37002 8.72998 4.58002 7.38998V6.58998H4.47002C4.41663 6.46179 4.3531 6.33806 4.28002 6.21998C3.44002 4.99998 2.00002 4.20998 0.86002 5.14998C0.574466 5.37985 0.347991 5.67464 0.199474 6.00979C0.0509578 6.34494 -0.0152987 6.71073 0.00622759 7.07667C0.0277539 7.44262 0.136439 7.79812 0.323225 8.11355C0.51001 8.42897 0.769485 8.69518 1.08002 8.88998ZM1.40002 5.74998C2.07002 5.05998 4.61002 6.92998 3.08002 7.74998C2.16002 8.23998 1.11002 7.99998 1.00002 6.99998C0.97256 6.7751 0.994092 6.54695 1.06314 6.33118C1.13218 6.11541 1.24711 5.91714 1.40002 5.74998Z" fill="black"/>
<path fill-rule="evenodd" clip-rule="evenodd" d="M2.78004 15.44C2.78532 15.3868 2.78532 15.3332 2.78004 15.28H1.98004C1.56803 15.2761 1.16787 15.4178 0.850041 15.68C-0.659959 16.76 0.220041 19.23 2.05004 19.38C2.59037 19.4673 3.1434 19.3393 3.5903 19.0233C4.0372 18.7072 4.3423 18.2285 4.44004 17.69C4.51213 17.1724 4.37879 16.6472 4.06856 16.2267C3.75832 15.8062 3.29583 15.5238 2.78004 15.44ZM3.54004 17.55C3.446 17.7762 3.28706 17.9695 3.08329 18.1054C2.87951 18.2414 2.64002 18.314 2.39504 18.314C2.15006 18.314 1.91058 18.2414 1.7068 18.1054C1.50302 17.9695 1.34408 17.7762 1.25004 17.55C0.450041 15.69 4.06004 15.49 3.54004 17.55Z" fill="black"/>
<path fill-rule="evenodd" clip-rule="evenodd" d="M21.12 5.13002C20.7585 5.21052 20.4247 5.3852 20.1525 5.63634C19.8803 5.88748 19.6793 6.20615 19.57 6.56002H19.46V7.29002H19.52C19.65 7.77979 19.9381 8.21292 20.3395 8.52214C20.741 8.83136 21.2333 8.99935 21.74 9.00002C25.08 9.07002 24.58 4.50002 21.12 5.13002ZM20.56 6.69002C20.6533 6.39443 20.8499 6.14232 21.1139 5.97981C21.3778 5.81729 21.6914 5.75525 21.9974 5.80503C22.3033 5.8548 22.5811 6.01307 22.7799 6.25087C22.9787 6.48867 23.0852 6.7901 23.08 7.10002C22.9 8.35002 20.2 7.83002 20.56 6.69002Z" fill="black"/>
<path fill-rule="evenodd" clip-rule="evenodd" d="M19.84 14H20.68C20.4456 12.598 19.8529 11.2803 18.9593 10.1748C18.0658 9.06922 16.9017 8.21331 15.58 7.69002L14.74 7.37002C15.4037 7.45979 16.0764 7.45979 16.74 7.37002L18.48 7.32002V6.50002C17.41 6.44002 15.8 6.35002 14.64 6.33002C13.54 7.01002 13.82 7.63002 14.64 8.22002C15.7873 8.81397 16.8254 9.59846 17.71 10.54C18.2239 11.016 18.6773 11.5534 19.06 12.14C19.4072 12.7197 19.6699 13.3461 19.84 14Z" fill="black"/>
<path fill-rule="evenodd" clip-rule="evenodd" d="M8.30005 8.13001C9.19005 7.56001 9.41005 6.97001 8.30005 6.34001C7.38409 6.24743 6.46011 6.27095 5.55005 6.41001V7.41001C6.44481 7.46293 7.34263 7.42608 8.23005 7.30001C7.91005 7.46001 7.60005 7.66001 7.35005 7.78001C4.59005 9.00001 3.00005 10.39 2.24005 13.27C2.14912 13.6178 2.08559 13.9723 2.05005 14.33H2.85005C3.05789 13.6337 3.343 12.9629 3.70005 12.33C4.67505 10.7532 6.05679 9.46822 7.70005 8.61001C7.87005 8.51001 8.08005 8.36001 8.30005 8.20001V8.13001Z" fill="black"/>
<path fill-rule="evenodd" clip-rule="evenodd" d="M20.91 15H20V15.09C19.7312 15.1638 19.4807 15.2929 19.2647 15.4692C19.0487 15.6454 18.872 15.8649 18.7458 16.1135C18.6196 16.3621 18.5468 16.6343 18.532 16.9127C18.5173 17.1911 18.5609 17.4695 18.66 17.73C19.66 19.53 22.46 18.99 22.74 17.4C22.7614 16.8496 22.5904 16.309 22.2564 15.871C21.9225 15.4331 21.4464 15.1251 20.91 15ZM21.91 17.22C21.7884 17.4015 21.624 17.5503 21.4313 17.6531C21.2386 17.756 21.0235 17.8098 20.805 17.8098C20.5865 17.8098 20.3714 17.756 20.1787 17.6531C19.986 17.5503 19.8216 17.4015 19.7 17.22C19.43 16.8 19.77 16.33 20.18 16.04C21.29 15.18 22.05 16.65 21.9 17.17L21.91 17.22Z" fill="black"/>
<path fill-rule="evenodd" clip-rule="evenodd" d="M13.67 5.63C13.67 4.43 13.06 4.63 12.39 4.63C12.1204 4.61023 11.8497 4.61023 11.58 4.63C9.92004 4.72 9.58004 4.74 9.47004 5.37C9.47004 5.44 9.29004 7.75 9.36004 7.72C9.46004 8.89 10.28 8.96 11.63 9.02C12.0899 9.08482 12.5585 9.04377 13 8.9C13.1811 8.77713 13.327 8.60924 13.4234 8.41286C13.5198 8.21648 13.5635 7.99837 13.55 7.78C13.54 7.25 13.67 5.63 13.67 5.63ZM12.5 6.63V7.46C12.44 8.36 12.65 7.82 11.67 7.83C10.32 7.83 10.23 7.99 10.25 6.93C10.25 6.74 10.18 6.27 10.16 5.83C10.1761 5.68819 10.2029 5.54779 10.24 5.41H11.63C12.0031 5.42191 12.3716 5.49627 12.72 5.63C12.63 6 12.54 6.33 12.5 6.63Z" fill="black"/>
</svg>
