<svg width="24" height="24" viewBox="0 0 24 24" fill="none" xmlns="http://www.w3.org/2000/svg">
<g clip-path="url(#clip0_1048_7319)">
<path d="M24 22.81C23.81 22.22 23.66 21.62 23.47 21.03C23.39 20.78 23.31 20.53 23.21 20.28C23.11 20.03 23.01 19.79 22.9 19.55C22.62 18.98 22.3 18.45 22 17.9C21.9732 17.8346 21.9234 17.7813 21.86 17.75C22.2274 17.1799 22.5613 16.5889 22.86 15.98C23.0828 15.5586 23.2156 15.0955 23.25 14.62C22.8931 13.5029 22.1933 12.5267 21.25 11.83C20.5688 11.2283 19.8125 10.7173 19 10.31C18.6951 10.1424 18.3392 10.0926 18 10.17C17.7251 10.3371 17.487 10.5583 17.3 10.82C16.7223 11.5719 16.2041 12.3676 15.75 13.2C15.2543 13.9351 14.9738 14.794 14.94 15.68C15.1861 16.3354 15.5999 16.9147 16.14 17.36C16.7813 17.9381 17.4937 18.4321 18.26 18.83C18.2545 18.853 18.2545 18.877 18.26 18.9C18.36 19.51 18.39 20.12 18.5 20.73C18.56 21.09 18.65 21.44 18.74 21.79C18.87 22.33 19.02 22.84 19.11 23.38C19.1113 23.4229 19.1211 23.4651 19.1391 23.5042C19.157 23.5432 19.1825 23.5782 19.2143 23.6071C19.246 23.636 19.2832 23.6583 19.3237 23.6725C19.3642 23.6868 19.4072 23.6927 19.45 23.69C19.4929 23.6887 19.5351 23.6789 19.5742 23.661C19.6132 23.643 19.6482 23.6175 19.6771 23.5857C19.706 23.554 19.7283 23.5168 19.7425 23.4763C19.7568 23.4358 19.7627 23.3929 19.76 23.35C19.8101 22.7878 19.8101 22.2222 19.76 21.66C19.747 21.4209 19.7136 21.1834 19.66 20.95C19.6213 20.715 19.5611 20.484 19.48 20.26C19.3441 19.8638 19.1838 19.4764 19 19.1C19.2596 19.1201 19.5204 19.1201 19.78 19.1C20.0609 19.0627 20.3342 18.9817 20.59 18.86C20.8953 18.7129 21.1924 18.5493 21.48 18.37H21.55C21.67 18.9 21.78 19.43 21.94 19.96C22.02 20.21 22.11 20.47 22.21 20.71C22.31 20.95 22.42 21.21 22.53 21.45C22.81 22.01 23.12 22.55 23.43 23.1C23.4463 23.14 23.4705 23.1763 23.5013 23.2067C23.532 23.2371 23.5685 23.261 23.6087 23.2768C23.6489 23.2927 23.6919 23.3003 23.735 23.2991C23.7782 23.298 23.8207 23.2881 23.86 23.27C23.9015 23.2512 23.9384 23.2238 23.9684 23.1896C23.9985 23.1554 24.0209 23.1152 24.0341 23.0717C24.0473 23.0282 24.0512 22.9823 24.0453 22.9372C24.0394 22.892 24.024 22.8487 24 22.81ZM18.92 14.94C19.68 14.56 19.98 15.1 20.01 15.37C20.07 15.87 19.4 16.04 19.01 15.85C18.9204 15.8176 18.8416 15.7607 18.7827 15.6857C18.7238 15.6108 18.687 15.5209 18.6766 15.4261C18.6662 15.3314 18.6825 15.2356 18.7238 15.1497C18.765 15.0638 18.8296 14.9911 18.91 14.94H18.92ZM20.26 17.87L19.86 17.95L19.49 18.08C19.22 18.2 19 18.33 18.74 18.45C17.97 18.0035 17.2636 17.4552 16.64 16.82C16.2353 16.4472 15.9354 15.9748 15.77 15.45C15.7785 15.3123 15.8197 15.1787 15.89 15.06C16.0981 14.5969 16.3387 14.1491 16.61 13.72C17.0407 13.0289 17.5081 12.3613 18.01 11.72C18.0252 12.132 18.0653 12.5428 18.13 12.95C18.205 13.3046 18.2984 13.6551 18.41 14L18.51 14.3C18.3814 14.3611 18.2633 14.4421 18.16 14.54C18.0408 14.6747 17.9537 14.8346 17.9052 15.0079C17.8567 15.1811 17.8481 15.363 17.88 15.54C17.8896 15.775 17.9532 16.0046 18.066 16.2109C18.1787 16.4173 18.3375 16.5949 18.53 16.73C18.9305 16.9278 19.3899 16.9705 19.82 16.85C20.0068 16.8213 20.1852 16.7525 20.343 16.6483C20.5007 16.5442 20.634 16.4071 20.7338 16.2465C20.8335 16.086 20.8973 15.9057 20.9209 15.7182C20.9444 15.5306 20.927 15.3402 20.87 15.16C20.7932 14.8563 20.6116 14.5895 20.3573 14.4066C20.1031 14.2236 19.7924 14.1363 19.48 14.16V13.86C19.48 13.76 19.4 13.37 19.35 13.13C19.3 12.89 19.23 12.66 19.15 12.43C19.07 12.2 18.91 11.76 18.79 11.43C19.5853 11.8656 20.3269 12.3925 21 13C21.68 13.61 22.29 14.22 22.34 14.69C22.2834 15.1491 22.1409 15.5935 21.92 16C21.64 16.64 21.28 17.32 21.03 17.76C20.77 17.81 20.51 17.83 20.25 17.87H20.26Z" fill="black"/>
<path d="M18 9.58001C18.0842 9.59014 18.169 9.56748 18.2369 9.51673C18.3048 9.46598 18.3506 9.39103 18.3648 9.30744C18.3789 9.22384 18.3604 9.13801 18.3129 9.06774C18.2655 8.99747 18.1928 8.94815 18.11 8.93001C17.6623 8.87607 17.2084 8.94883 16.8 9.14001C16.0305 9.56133 15.2394 9.94186 14.43 10.28C14.2112 10.3385 13.9864 10.3721 13.76 10.38C13.63 10.38 13.49 10.38 13.42 10.27C13.3649 10.132 13.3649 9.97805 13.42 9.84001C13.5064 9.51503 13.6341 9.20248 13.8 8.91001C14.11 8.26001 14.46 7.64001 14.73 6.99001C14.9236 6.52463 15.0613 6.03789 15.14 5.54001C15.2132 4.97321 15.123 4.39728 14.88 3.88001C14.7708 3.66815 14.6082 3.48846 14.4082 3.35868C14.2083 3.2289 13.978 3.15353 13.74 3.14001C13.2672 3.13308 12.8022 3.26145 12.4 3.51001C11.8931 3.79784 11.4143 4.13265 10.97 4.51001C9.96999 5.40001 8.50999 7.24001 6.96999 8.42001C6.59338 8.81083 6.12133 9.09664 5.60046 9.24921C5.0796 9.40179 4.52795 9.41585 3.99999 9.29001C3.95501 9.27339 3.91381 9.24795 3.87879 9.21518C3.84378 9.18241 3.81567 9.14298 3.79611 9.0992C3.77655 9.05541 3.76593 9.00816 3.76488 8.96022C3.76383 8.91228 3.77237 8.86461 3.78999 8.82001C3.89563 8.43823 4.0574 8.07426 4.26999 7.74001C4.86999 6.62001 5.79999 5.62001 6.54999 4.53001C6.89275 4.05008 7.1875 3.53761 7.42999 3.00001C7.88999 1.90001 7.67999 1.21001 7.21999 0.800013C6.76849 0.540597 6.26439 0.386122 5.74507 0.348039C5.22574 0.309955 4.70451 0.389238 4.21999 0.580013C3.8726 0.683853 3.53735 0.824658 3.21999 1.00001C2.92437 1.15615 2.6403 1.33327 2.36999 1.53001C2.03999 1.75001 1.71999 2.00001 1.36999 2.25001C1.01999 2.50001 0.529991 3.00001 0.0799915 3.37001C0.0279682 3.4256 -0.000976563 3.49888 -0.000976562 3.57501C-0.000976562 3.65114 0.0279682 3.72443 0.0799915 3.78001C0.135576 3.83204 0.20886 3.86098 0.284991 3.86098C0.361123 3.86098 0.434407 3.83204 0.489991 3.78001C0.939991 3.41001 1.38999 3.03001 1.84999 2.67001C2.15999 2.44001 2.46999 2.22001 2.78999 2.01001C3.10999 1.80001 3.31999 1.68001 3.58999 1.54001C3.85958 1.40516 4.1407 1.29472 4.42999 1.21001C5.08101 1.00573 5.77897 1.00573 6.42999 1.21001C6.87999 1.40001 7.00999 1.83001 6.64999 2.61001C6.40893 3.10224 6.11736 3.56807 5.77999 4.00001C4.99999 5.08001 3.99999 6.07001 3.31999 7.21001C2.95977 7.74608 2.73029 8.35917 2.64999 9.00001C2.62537 9.29761 2.70316 9.5947 2.87048 9.84204C3.0378 10.0894 3.2846 10.2721 3.56999 10.36C4.09847 10.5302 4.65887 10.5772 5.20831 10.4975C5.75775 10.4177 6.28167 10.2134 6.73999 9.90001C8.62999 8.81001 10.37 6.42001 11.6 5.36001C11.9785 4.98565 12.3939 4.6506 12.84 4.36001C13.0716 4.20426 13.3412 4.11439 13.62 4.10001C13.7168 4.11951 13.8052 4.16838 13.8732 4.23996C13.9412 4.31154 13.9855 4.40235 14 4.50001C14.1082 4.79384 14.1458 5.10896 14.11 5.42001C14.0569 5.84535 13.9494 6.2621 13.79 6.66001C13.55 7.31001 13.23 7.92001 12.94 8.55001C12.7556 8.91113 12.6179 9.29419 12.53 9.69001C12.4547 10.0316 12.5119 10.389 12.69 10.69C12.8345 10.905 13.0567 11.0556 13.31 11.11C13.7427 11.1732 14.1842 11.1355 14.6 11C15.31 10.8 16.2 10.12 17.05 9.76001C17.3426 9.60933 17.6726 9.5468 18 9.58001Z" fill="black"/>
</g>
<defs>
<clipPath id="clip0_1048_7319">
<rect width="24" height="24" fill="white"/>
</clipPath>
</defs>
</svg>
