<svg width="24" height="24" viewBox="0 0 24 24" fill="none" xmlns="http://www.w3.org/2000/svg">
<g clip-path="url(#clip0_1046_5907)">
<path fill-rule="evenodd" clip-rule="evenodd" d="M18.77 1.63995C18.3303 1.28708 17.8 1.06527 17.24 0.999946C16.1655 0.866258 15.0825 0.812777 14 0.839946L10.31 0.759946C9.48514 0.704349 8.65665 0.741245 7.84 0.869946C7.23689 0.953254 6.66345 1.18332 6.17 1.53995C5.85297 1.798 5.62263 2.147 5.51 2.53995C5.37161 3.01457 5.29762 3.50562 5.29 3.99995L4.29 17.3899C4.20779 18.3448 4.20779 19.305 4.29 20.2599C4.30214 20.9829 4.54377 21.6833 4.98 22.2599C5.3594 22.5623 5.81746 22.7497 6.3 22.7999C7.21574 22.9161 8.13707 22.9829 9.06 22.9999C9.87 22.9999 10.8 23.1099 11.9 23.1599C12.74 23.1599 13.69 23.2399 14.74 23.2699C15.6904 23.3617 16.6487 23.2175 17.53 22.8499C17.8528 22.6773 18.1299 22.4304 18.3386 22.1296C18.5472 21.8288 18.6814 21.4828 18.73 21.1199C18.87 20.3499 18.97 19.5699 19.05 18.7699C19.16 17.5999 19.22 16.4199 19.28 15.2799C19.38 13.4099 19.44 11.7299 19.54 9.99995C19.54 9.25995 19.63 8.51995 19.69 7.74995C19.8589 6.34166 19.8589 4.91823 19.69 3.50995C19.59 2.80465 19.2677 2.14961 18.77 1.63995ZM8 1.84995C8.74564 1.74884 9.50003 1.72873 10.25 1.78995L14 1.99995C14.8881 1.99436 15.776 2.03442 16.66 2.11995C16.9161 2.14532 17.17 2.18876 17.42 2.24995C17.17 2.76995 16.88 3.41995 16.58 3.91995C16.4864 4.13169 16.3422 4.31715 16.16 4.45995C16.0108 4.5326 15.8458 4.56696 15.68 4.55995C15.343 4.53846 15.0085 4.48828 14.68 4.40995C14.36 4.40995 14.05 4.32995 13.73 4.30995C13.397 4.28953 13.063 4.28953 12.73 4.30995C12.17 4.36995 11.27 4.41995 10.44 4.47995C9.86 4.47995 9.31 4.56995 8.95 4.56995H8.75C8.62 4.39995 8.47 4.16995 8.33 3.93995C8.15942 3.64119 8.01874 3.32633 7.91 2.99995C7.91 2.76995 7.7 2.44995 7.62 2.16995C7.61114 2.08685 7.61114 2.00304 7.62 1.91995L8 1.84995ZM18.54 7.68995C18.45 8.68995 18.39 9.68995 18.35 10.6899C18.28 12.1699 18.24 13.6299 18.18 15.2199C18.13 16.3499 18.09 17.5199 18 18.6799C17.94 19.4499 17.86 20.2099 17.73 20.9399C17.7108 21.1572 17.6399 21.3667 17.5234 21.5511C17.4069 21.7355 17.248 21.8894 17.06 21.9999C16.334 22.3045 15.543 22.4215 14.76 22.3399L11.94 22.2899C10.84 22.2899 9.94 22.2199 9.11 22.1799C8.57 22.1799 7.59 22.1799 6.73 22.0599C6.27885 22.0664 5.83507 21.9451 5.45 21.7099C5.12611 21.2724 4.94773 20.7443 4.94 20.1999C4.85498 19.2886 4.85498 18.3713 4.94 17.4599L6.18 4.09995C6.19013 3.66962 6.25738 3.24255 6.38 2.82995C6.45021 2.61598 6.57827 2.42562 6.75 2.27995C6.83117 2.23856 6.91464 2.20184 7 2.16995V2.32995C7.06 2.61995 7.18 2.93995 7.21 3.15995C7.29376 3.53364 7.42131 3.89614 7.59 4.23995C7.73947 4.59081 7.92373 4.92582 8.14 5.23995C8.22587 5.33311 8.33709 5.39916 8.46 5.42995C8.75143 5.49969 9.05035 5.53327 9.35 5.52995C10.35 5.52995 11.97 5.46995 12.82 5.40995H13.49C13.71 5.40995 14.19 5.40995 14.49 5.45995C14.8743 5.51254 15.2621 5.53594 15.65 5.52995C15.9638 5.51113 16.2687 5.41863 16.54 5.25995C16.8709 5.00033 17.1236 4.65423 17.27 4.25995C17.53 3.72995 17.77 3.04995 17.99 2.50995C18.3622 3.02057 18.5587 3.63814 18.55 4.26995C18.6419 5.40824 18.6385 6.55221 18.54 7.68995Z" fill="black"/>
<path fill-rule="evenodd" clip-rule="evenodd" d="M3 0.499974L2.17 1.10997C1.79656 1.33843 1.45948 1.62157 1.17 1.94997C1.05148 2.15289 0.99256 2.3851 0.999997 2.61997C0.986737 2.83894 1.02439 3.058 1.11 3.25997C1.20479 3.51475 1.31843 3.7621 1.45 3.99997C1.59651 4.18314 1.66479 4.41674 1.64 4.64997C1.5494 4.83311 1.41125 4.98853 1.24 5.09997C0.931995 5.33123 0.667836 5.61571 0.459997 5.93997C0.331253 6.17525 0.27228 6.44236 0.289997 6.70997C0.311812 6.93986 0.376244 7.16368 0.479997 7.36997C0.651218 7.67095 0.845112 7.95845 1.06 8.22997C1.20486 8.3688 1.29979 8.55161 1.33 8.74997C1.3003 8.99884 1.18338 9.22913 0.999997 9.39997C0.728504 9.67867 0.480962 9.97973 0.259997 10.3C0.101885 10.5191 0.0054869 10.7767 -0.0191385 11.0458C-0.0437638 11.315 0.004286 11.5858 0.119997 11.83C0.37692 12.29 0.671245 12.7282 0.999997 13.14C1.02364 13.1781 1.05454 13.2111 1.09096 13.2373C1.12737 13.2634 1.16857 13.2821 1.21222 13.2923C1.25586 13.3025 1.30109 13.304 1.34532 13.2968C1.38955 13.2895 1.43191 13.2736 1.47 13.25C1.50808 13.2263 1.54114 13.1954 1.56727 13.159C1.59341 13.1226 1.61212 13.0814 1.62234 13.0378C1.63255 12.9941 1.63407 12.9489 1.62681 12.9047C1.61954 12.8604 1.60364 12.8181 1.58 12.78C1.41 12.48 1.12 12.09 0.929997 11.7C0.841214 11.524 0.806424 11.3257 0.829997 11.13C0.931469 10.8619 1.10438 10.6268 1.33 10.45C1.64502 10.1794 1.92099 9.8664 2.15 9.51997C2.28891 9.28982 2.36798 9.02854 2.38 8.75997C2.3873 8.52326 2.34294 8.2878 2.25 8.06997C2.09105 7.75674 1.90359 7.45882 1.69 7.17997C1.55391 7.0205 1.464 6.82685 1.43 6.61997C1.43 6.39997 1.61 6.27997 1.77 6.12997C1.98137 5.94859 2.17861 5.75135 2.36 5.53997C2.51248 5.35415 2.61872 5.13482 2.67 4.89997C2.73053 4.6604 2.73053 4.40954 2.67 4.16997C2.53579 3.83763 2.35753 3.52483 2.14 3.23997C1.99245 3.06883 1.89244 2.86192 1.85 2.63997C1.85758 2.50937 1.91065 2.38554 2 2.28997C2.19878 2.05613 2.41616 1.83876 2.65 1.63997L3.35 0.999974C3.40133 0.948414 3.43289 0.880441 3.43916 0.807953C3.44543 0.735466 3.426 0.663085 3.38428 0.603479C3.34255 0.543874 3.28119 0.500844 3.21094 0.481921C3.14069 0.462998 3.06601 0.469389 3 0.499974Z" fill="black"/>
<path fill-rule="evenodd" clip-rule="evenodd" d="M22.94 14.62C22.7312 14.4289 22.5878 14.177 22.53 13.9C22.53 13.82 22.53 13.76 22.63 13.69C22.98 13.28 23.63 12.93 23.81 12.55C23.9142 12.3698 23.9773 12.1687 23.9945 11.9612C24.0118 11.7537 23.983 11.545 23.91 11.35C23.5755 10.696 23.1402 10.0986 22.62 9.57998C22.598 9.54656 22.5694 9.51805 22.5359 9.49622C22.5024 9.4744 22.4647 9.45974 22.4253 9.45316C22.3859 9.44659 22.3455 9.44824 22.3067 9.45802C22.2679 9.4678 22.2316 9.48549 22.2 9.50998C22.1369 9.55781 22.0945 9.62797 22.0815 9.70606C22.0685 9.78416 22.0858 9.86428 22.13 9.92998C22.505 10.3726 22.8397 10.8478 23.13 11.35C23.1968 11.4637 23.2321 11.5931 23.2321 11.725C23.2321 11.8568 23.1968 11.9863 23.13 12.1C22.91 12.43 22.3 12.66 21.95 13C21.8094 13.1244 21.6986 13.2789 21.6259 13.4521C21.5532 13.6252 21.5204 13.8125 21.53 14C21.5741 14.4974 21.7775 14.9674 22.11 15.34C22.3465 15.5955 22.5575 15.8735 22.74 16.17C22.8308 16.3349 22.8524 16.5291 22.8 16.71C22.8 16.88 22.6 16.97 22.45 17.07C22.1661 17.2506 21.8955 17.4511 21.64 17.67C21.4367 17.8527 21.3025 18.0999 21.26 18.37C21.2132 18.6893 21.2583 19.0153 21.39 19.31C21.614 19.7408 21.8785 20.1493 22.18 20.53C22.4347 20.8102 22.6046 21.157 22.67 21.53C22.6676 21.7392 22.5853 21.9395 22.44 22.09C22.1298 22.4117 21.7955 22.7092 21.44 22.98C21.4073 23.0108 21.3813 23.048 21.3635 23.0893C21.3457 23.1306 21.3365 23.175 21.3365 23.22C21.3365 23.2649 21.3457 23.3094 21.3635 23.3507C21.3813 23.3919 21.4073 23.4291 21.44 23.46C21.5037 23.5235 21.59 23.5592 21.68 23.5592C21.77 23.5592 21.8563 23.5235 21.92 23.46C22.402 23.1471 22.8422 22.7741 23.23 22.35C23.4318 22.0967 23.5443 21.7838 23.55 21.46C23.5443 21.1732 23.4796 20.8907 23.36 20.63C23.1458 20.2139 22.9088 19.8099 22.65 19.42C22.4435 19.1711 22.3398 18.8528 22.36 18.53C22.36 18.53 22.41 18.48 22.44 18.45C22.47 18.42 22.63 18.32 22.73 18.25C23.0364 18.077 23.3217 17.869 23.58 17.63C23.7584 17.4559 23.8892 17.239 23.96 17C24.0901 16.5368 24.0326 16.0411 23.8 15.62C23.5509 15.2561 23.2625 14.9207 22.94 14.62Z" fill="black"/>
</g>
<defs>
<clipPath id="clip0_1046_5907">
<rect width="24" height="24" fill="white"/>
</clipPath>
</defs>
</svg>
