<svg width="24" height="24" viewBox="0 0 24 24" fill="none" xmlns="http://www.w3.org/2000/svg">
<g clip-path="url(#clip0_1047_6597)">
<path fill-rule="evenodd" clip-rule="evenodd" d="M10.55 19.5C10.55 18.59 10.48 17.65 10.5 16.77C10.5 14.96 10.57 13.15 10.5 11.33C10.5 10.12 10.4 8.90998 10.33 7.69998C10.26 6.48998 10 5.22998 9.92 3.99998C9.8649 3.48527 9.84485 2.96741 9.86 2.44998C9.91 1.80998 8.07 1.84998 7.92 1.84998C7.31401 1.85986 6.70935 1.90997 6.11 1.99998C5.45 2.08998 4.72 2.13998 4.03 2.27998C3.52821 2.37041 3.04281 2.53558 2.59 2.76998C2.02872 3.087 1.53965 3.5175 1.15398 4.03402C0.768313 4.55054 0.4945 5.14176 0.350001 5.76998C-0.00500059 7.46886 -0.122788 9.20875 1.44169e-06 10.94V13.57C-0.018471 14.6851 0.0282754 15.8003 0.140001 16.91C0.232415 17.6704 0.396477 18.4204 0.630001 19.15C0.775269 19.59 0.987786 20.0049 1.26 20.38C1.51536 20.7571 1.82542 21.0941 2.18 21.38C2.51937 21.6481 2.9111 21.8423 3.33 21.95C3.89504 22.0962 4.47635 22.1701 5.06 22.17C5.94112 22.181 6.82224 22.1477 7.7 22.07C8.58371 21.9884 9.4597 21.8379 10.32 21.62C10.3699 21.6082 10.4171 21.5867 10.4587 21.5567C10.5003 21.5267 10.5356 21.4888 10.5625 21.4452C10.5895 21.4015 10.6075 21.3529 10.6157 21.3023C10.6238 21.2516 10.6219 21.1999 10.61 21.15C10.58 21 10.55 19.91 10.55 19.5ZM7.64 21.19C6.79074 21.2401 5.93926 21.2401 5.09 21.19C4.67127 21.1691 4.25578 21.1054 3.85 21C3.48405 20.925 3.14124 20.7639 2.85 20.53C2.58999 20.2936 2.36145 20.0247 2.17 19.73C1.98423 19.4414 1.83951 19.1284 1.74 18.8C1.56267 18.1444 1.43893 17.4756 1.37 16.8C1.28535 15.7389 1.25864 14.674 1.29 13.61V10.94C1.12543 9.29278 1.18599 7.63084 1.47 5.99998C1.56588 5.51856 1.75788 5.06142 2.03451 4.65592C2.31115 4.25042 2.66674 3.90488 3.08 3.63998C3.43848 3.43292 3.82619 3.28121 4.23 3.18998C4.9 3.01998 5.61 2.93998 6.23 2.80998C6.79149 2.699 7.3592 2.6222 7.93 2.57998C8.30252 2.54506 8.67749 2.54506 9.05 2.57998C9.08602 2.58975 9.12399 2.58975 9.16 2.57998C9.11423 3.05184 9.09754 3.52607 9.11 3.99998C9.11 5.23998 9.22 6.47998 9.21 7.70998V12.23C9.21 13.75 9.33 15.23 9.4 16.76C9.45 17.65 9.61 18.57 9.66 19.49C9.68992 19.8627 9.68992 20.2372 9.66 20.61C9.65054 20.7101 9.6791 20.81 9.74 20.89C9.04697 21.0338 8.34559 21.134 7.64 21.19Z" fill="black"/>
<path fill-rule="evenodd" clip-rule="evenodd" d="M23.91 10.7C23.8307 9.01949 23.6201 7.34772 23.28 5.70003C22.9595 4.50814 22.257 3.45426 21.28 2.70003C20.9405 2.45696 20.5616 2.27428 20.16 2.16003C19.6165 2.02095 19.0604 1.93719 18.5 1.91003H16.93C15.74 1.91003 14.56 2.00003 13.35 1.98003C13.2579 1.97989 13.1692 2.01506 13.1023 2.07831C13.0353 2.14156 12.9951 2.22806 12.99 2.32003C12.99 2.46003 13.1 3.82003 13.08 4.42003C13.08 6.02003 13.16 7.62003 13.08 9.23003V12.73C13.08 13.51 13.13 14.28 13.17 15.06C13.27 17.06 13.42 18.97 13.65 20.9C13.6595 20.9734 13.6888 21.0428 13.7345 21.1009C13.7803 21.159 13.8409 21.2036 13.91 21.23C13.9044 21.3329 13.9386 21.434 14.0057 21.5123C14.0728 21.5905 14.1675 21.6399 14.27 21.65C14.84 21.7 15.42 21.73 15.98 21.73C16.54 21.73 17.12 21.73 17.69 21.67C17.9888 21.6429 18.2859 21.5995 18.58 21.54C18.87 21.49 19.16 21.42 19.45 21.34C19.74 21.26 20.09 21.15 20.45 21.04C20.6732 20.951 20.8903 20.8474 21.1 20.73C21.896 20.2701 22.5526 19.6031 23 18.8C23.5711 17.6137 23.8749 16.3166 23.89 15C23.94 14.14 24 13.28 24 12.43C23.9986 11.8522 23.9686 11.2749 23.91 10.7ZM22.62 15C22.6157 15.9502 22.4674 16.8943 22.18 17.8C21.8795 18.6484 21.3017 19.3707 20.54 19.85C20.3855 19.9523 20.2214 20.0394 20.05 20.11C19.78 20.23 19.49 20.32 19.19 20.42C18.89 20.52 18.68 20.58 18.42 20.64C18.16 20.7 17.9 20.74 17.63 20.78C17.09 20.85 16.55 20.89 16 20.91C15.45 20.93 15 20.91 14.46 20.91V20.85C14.41 19.7 14.38 18.54 14.38 17.38V13.32V9.24003C14.3 7.57003 14 6.00003 14 4.37003C13.97 3.79709 13.97 3.22297 14 2.65003C15 2.65003 16 2.65003 17 2.73003C17.5 2.73003 18 2.73003 18.49 2.85003C18.9822 2.89524 19.4683 2.99244 19.94 3.14003C20.2154 3.2241 20.4706 3.36363 20.69 3.55003C21.4077 4.19673 21.9014 5.05463 22.1 6.00003C22.3876 7.59522 22.5547 9.20977 22.6 10.83C22.6646 11.3642 22.6947 11.902 22.69 12.44C22.7 13.3 22.66 14.13 22.62 15Z" fill="black"/>
<path fill-rule="evenodd" clip-rule="evenodd" d="M5.76 10.5199C6.07911 10.4833 6.38597 10.3757 6.65803 10.205C6.93008 10.0342 7.16043 9.80467 7.33213 9.53321C7.50383 9.26175 7.61252 8.95527 7.65022 8.63629C7.68793 8.31731 7.65368 7.99393 7.55 7.68993C7.44657 7.08656 7.10768 6.54899 6.6079 6.19549C6.10811 5.84198 5.48837 5.70149 4.885 5.80492C4.28163 5.90836 3.74407 6.24724 3.39056 6.74703C3.03706 7.24681 2.89657 7.86656 3 8.46993C3.01699 8.79795 3.10624 9.11817 3.26136 9.4077C3.41648 9.69722 3.63365 9.94891 3.89733 10.1448C4.16102 10.3406 4.46471 10.4758 4.78671 10.5407C5.10871 10.6055 5.44106 10.5984 5.76 10.5199ZM5.27 6.84992C5.57508 6.87063 5.86351 6.99662 6.08602 7.20636C6.30853 7.41611 6.45132 7.6966 6.49 7.99992C6.53303 8.14735 6.54153 8.30271 6.51484 8.45395C6.48814 8.60519 6.42697 8.74825 6.33606 8.87203C6.24516 8.99582 6.12696 9.097 5.99065 9.16774C5.85433 9.23847 5.70355 9.27686 5.55 9.27992C5.39803 9.32451 5.23834 9.33637 5.08145 9.3147C4.92457 9.29304 4.77406 9.23835 4.63987 9.15424C4.50567 9.07013 4.39084 8.95852 4.30295 8.82677C4.21507 8.69502 4.15612 8.54613 4.13 8.38993C4.08352 8.2121 4.07749 8.02611 4.11235 7.84564C4.14721 7.66518 4.22207 7.49481 4.33143 7.34708C4.44079 7.19935 4.58186 7.07801 4.74429 6.99198C4.90671 6.90594 5.08635 6.8574 5.27 6.84992Z" fill="black"/>
<path fill-rule="evenodd" clip-rule="evenodd" d="M18.27 7.06C18.4256 7.00553 18.5664 6.9155 18.6812 6.79708C18.7959 6.67865 18.8814 6.53508 18.9309 6.3778C18.9805 6.22051 18.9926 6.05384 18.9664 5.89104C18.9402 5.72824 18.8764 5.5738 18.78 5.44C18.6451 5.30294 18.4734 5.20771 18.2857 5.16572C18.098 5.12373 17.9022 5.13677 17.7217 5.20326C17.5412 5.26975 17.3838 5.38688 17.2682 5.54061C17.1526 5.69434 17.0838 5.87815 17.07 6.07C17.0685 6.21914 17.1003 6.36674 17.1632 6.50198C17.2261 6.63721 17.3185 6.75667 17.4336 6.85159C17.5486 6.9465 17.6834 7.01448 17.8282 7.05054C17.9729 7.08661 18.1239 7.08984 18.27 7.06Z" fill="black"/>
<path fill-rule="evenodd" clip-rule="evenodd" d="M4.76 12.68C4.61913 12.7631 4.5008 12.8795 4.41537 13.0189C4.32994 13.1584 4.28003 13.3167 4.27 13.48C4.26697 13.6299 4.29771 13.7787 4.35996 13.9152C4.42221 14.0517 4.51437 14.1724 4.62961 14.2684C4.74486 14.3645 4.88023 14.4333 5.0257 14.47C5.17118 14.5066 5.32303 14.51 5.47 14.48C5.62891 14.4282 5.77332 14.3396 5.89147 14.2214C6.00961 14.1032 6.09813 13.9588 6.14981 13.7998C6.20148 13.6409 6.21485 13.472 6.18882 13.3069C6.16278 13.1419 6.09808 12.9853 6 12.85C5.8435 12.6848 5.63534 12.5779 5.40989 12.547C5.18444 12.5161 4.95519 12.563 4.76 12.68Z" fill="black"/>
<path fill-rule="evenodd" clip-rule="evenodd" d="M17.55 9.12C17.4111 9.2078 17.2946 9.32668 17.2096 9.46725C17.1245 9.60783 17.0733 9.76624 17.06 9.93C17.0566 10.081 17.0875 10.2308 17.1503 10.3682C17.2131 10.5056 17.3063 10.6269 17.4227 10.7232C17.5391 10.8194 17.6759 10.888 17.8226 10.9238C17.9694 10.9596 18.1223 10.9618 18.27 10.93C18.4262 10.8762 18.5675 10.7863 18.6824 10.6676C18.7973 10.5489 18.8825 10.4048 18.9313 10.2469C18.98 10.0891 18.9908 9.92197 18.9627 9.75916C18.9347 9.59636 18.8687 9.44247 18.77 9.31C18.6173 9.14634 18.414 9.03867 18.1928 9.00422C17.9716 8.96977 17.7453 9.01054 17.55 9.12Z" fill="black"/>
<path fill-rule="evenodd" clip-rule="evenodd" d="M4.75 16.53C4.61114 16.6178 4.49459 16.7366 4.40955 16.8772C4.32451 17.0178 4.27332 17.1762 4.26 17.3399C4.25662 17.491 4.2875 17.6408 4.35032 17.7782C4.41314 17.9155 4.50627 18.0369 4.6227 18.1331C4.73914 18.2294 4.87587 18.298 5.02262 18.3338C5.16936 18.3696 5.32232 18.3717 5.47 18.3399C5.6289 18.2882 5.77332 18.1996 5.89146 18.0814C6.00961 17.9632 6.09813 17.8188 6.1498 17.6598C6.20148 17.5009 6.21485 17.332 6.18881 17.1669C6.16278 17.0018 6.09808 16.8453 6 16.7099C5.84414 16.5407 5.63471 16.4305 5.40701 16.3977C5.17931 16.3649 4.94727 16.4116 4.75 16.53Z" fill="black"/>
<path fill-rule="evenodd" clip-rule="evenodd" d="M16.55 8.99993C16.7056 8.94546 16.8464 8.85543 16.9612 8.73701C17.0759 8.61858 17.1614 8.47501 17.211 8.31773C17.2605 8.16044 17.2726 7.99377 17.2464 7.83097C17.2202 7.66817 17.1564 7.51373 17.06 7.37993C16.9257 7.24324 16.7549 7.14802 16.568 7.10561C16.3812 7.0632 16.186 7.07538 16.0059 7.1407C15.8257 7.20602 15.6681 7.32173 15.5518 7.47406C15.4356 7.62639 15.3655 7.80892 15.35 7.99993C15.347 8.14991 15.3777 8.29865 15.44 8.43514C15.5022 8.57163 15.5944 8.69236 15.7096 8.7884C15.8249 8.88443 15.9602 8.95331 16.1057 8.98993C16.2512 9.02654 16.403 9.02996 16.55 8.99993Z" fill="black"/>
<path fill-rule="evenodd" clip-rule="evenodd" d="M4.26 14.79C4.10228 14.6199 3.89035 14.51 3.6605 14.479C3.43064 14.4479 3.19715 14.4978 3 14.62C2.85913 14.7031 2.7408 14.8195 2.65537 14.9589C2.56994 15.0984 2.52002 15.2567 2.51 15.42C2.50696 15.57 2.53771 15.7187 2.59996 15.8552C2.66221 15.9917 2.75437 16.1124 2.86961 16.2084C2.98485 16.3045 3.12023 16.3734 3.2657 16.41C3.41118 16.4466 3.56303 16.45 3.71 16.42C3.87058 16.3705 4.01711 16.2836 4.1375 16.1664C4.25789 16.0492 4.34868 15.905 4.4024 15.7458C4.45612 15.5866 4.47123 15.4169 4.44647 15.2507C4.42171 15.0845 4.3578 14.9266 4.26 14.79Z" fill="black"/>
<path fill-rule="evenodd" clip-rule="evenodd" d="M20 9C20.1562 8.94619 20.2975 8.85628 20.4124 8.73759C20.5273 8.6189 20.6125 8.47478 20.6613 8.31693C20.71 8.15909 20.7208 7.99197 20.6927 7.82917C20.6647 7.66637 20.5987 7.51248 20.5 7.38C20.3467 7.22029 20.1447 7.11597 19.9257 7.0834C19.7068 7.05082 19.4832 7.09183 19.29 7.2C19.1493 7.28669 19.0308 7.40508 18.944 7.54572C18.8571 7.68636 18.8044 7.84535 18.79 8.01C18.7882 8.16018 18.8202 8.30885 18.8836 8.44497C18.9471 8.58109 19.0404 8.70116 19.1567 8.79627C19.2729 8.89138 19.4091 8.95908 19.5551 8.99435C19.7011 9.02962 19.8532 9.03155 20 9Z" fill="black"/>
<path fill-rule="evenodd" clip-rule="evenodd" d="M6.44 14.59C6.29928 14.6767 6.18078 14.7951 6.09396 14.9357C6.00715 15.0763 5.95442 15.2353 5.94 15.4C5.93662 15.551 5.9675 15.7008 6.03032 15.8382C6.09314 15.9756 6.18627 16.0969 6.3027 16.1932C6.41914 16.2894 6.55587 16.358 6.70262 16.3938C6.84936 16.4296 7.00232 16.4317 7.15 16.4C7.30618 16.3462 7.44747 16.2563 7.56237 16.1376C7.67727 16.0189 7.76254 15.8748 7.81126 15.7169C7.85998 15.5591 7.87077 15.3919 7.84275 15.2291C7.81473 15.0663 7.74869 14.9125 7.65 14.78C7.49791 14.6186 7.29652 14.5124 7.07749 14.478C6.85846 14.4437 6.63421 14.483 6.44 14.59Z" fill="black"/>
<path fill-rule="evenodd" clip-rule="evenodd" d="M16.07 15.44C16.095 15.7594 16.1885 16.0696 16.3442 16.3497C16.4999 16.6297 16.7141 16.8728 16.9722 17.0626C17.2303 17.2524 17.5263 17.3844 17.84 17.4495C18.1536 17.5146 18.4777 17.5114 18.79 17.44C19.1091 17.4034 19.416 17.2958 19.688 17.125C19.9601 16.9543 20.1904 16.7247 20.3621 16.4533C20.5338 16.1818 20.6425 15.8753 20.6802 15.5563C20.7179 15.2374 20.6837 14.914 20.58 14.61C20.4308 14.0509 20.0764 13.5685 19.5873 13.2592C19.0983 12.9498 18.5106 12.8362 17.9415 12.9409C17.3724 13.0457 16.8636 13.3611 16.5168 13.8243C16.1699 14.2875 16.0104 14.8644 16.07 15.44ZM18.58 16.2C18.428 16.248 18.2674 16.2625 18.1093 16.2423C17.9512 16.2221 17.7994 16.1678 17.6643 16.0832C17.5292 15.9985 17.4142 15.8856 17.3271 15.752C17.24 15.6185 17.183 15.4677 17.16 15.31C17.122 15.1356 17.1225 14.9549 17.1614 14.7807C17.2002 14.6065 17.2765 14.4428 17.385 14.301C17.4935 14.1592 17.6315 14.0428 17.7895 13.9597C17.9475 13.8766 18.1217 13.829 18.3 13.82C18.5924 13.845 18.8682 13.9667 19.0837 14.1659C19.2992 14.3651 19.4422 14.6304 19.49 14.92C19.5325 15.065 19.5416 15.2179 19.5165 15.3669C19.4915 15.516 19.433 15.6574 19.3454 15.7806C19.2578 15.9038 19.1434 16.0056 19.0109 16.0782C18.8783 16.1508 18.731 16.1925 18.58 16.2Z" fill="black"/>
</g>
<defs>
<clipPath id="clip0_1047_6597">
<rect width="24" height="24" fill="white"/>
</clipPath>
</defs>
</svg>
