<svg width="24" height="24" viewBox="0 0 24 24" fill="none" xmlns="http://www.w3.org/2000/svg">
<g clip-path="url(#clip0_1047_6493)">
<path d="M23.8 18C23.8 16.65 23.72 15.33 23.57 14C23.581 13.3011 23.4086 12.6115 23.07 12C22.4 11.11 20.55 11.34 19.69 11.29C12.51 10.83 13.98 11.55 11.69 11.58C11.5998 11.58 11.5134 11.6158 11.4496 11.6796C11.3858 11.7433 11.35 11.8298 11.35 11.92C11.35 12.0102 11.3858 12.0966 11.4496 12.1604C11.5134 12.2242 11.5998 12.26 11.69 12.26C14.13 12.26 12.55 11.52 19.6 12.17C20.14 12.17 21.95 12.17 22.26 12.57C22.57 12.97 22.67 17.3 22.67 17.99C22.67 19.06 23.08 21.56 22.39 22.34C21.7 23.12 19.3 22.58 18.26 22.63C16.54 22.71 14.58 22.93 12.9 22.89C11.22 22.85 11.34 22.97 11.36 20.73C11.43 11.73 11.36 12.94 11.36 12.73C11.3826 12.6945 11.3975 12.6546 11.4037 12.6129C11.4099 12.5713 11.4072 12.5288 11.3959 12.4882C11.3846 12.4477 11.3649 12.4099 11.338 12.3775C11.3111 12.3451 11.2777 12.3187 11.24 12.3C11.1863 12.2849 11.1299 12.2821 11.0749 12.2918C11.02 12.3016 10.968 12.3236 10.9228 12.3563C10.8776 12.389 10.8404 12.4315 10.8139 12.4807C10.7874 12.5298 10.7724 12.5842 10.77 12.64C10.7 13.02 10.43 22.21 10.43 22.28C10.62 24.4 12.62 23.89 18.3 23.72C20.36 23.65 23.47 24.77 23.87 21.41C23.929 20.2731 23.9056 19.1335 23.8 18Z" fill="black"/>
<path d="M16.16 20.1799C16.49 20.1099 16.65 20.0499 19.57 18.4499C19.99 18.2199 20.87 17.8899 20.81 17.2399C20.75 16.5899 20.01 16.3499 19.47 16.0499L16 14.1299C15.9885 14.0887 15.9682 14.0503 15.9406 14.0176C15.913 13.9848 15.8787 13.9583 15.84 13.9399C15.12 13.5899 15.14 15.2199 15.08 16.0199C15.02 16.8199 14.13 20.5899 16.16 20.1799ZM15.85 15.9999C15.85 15.9299 16 15.3599 16.03 14.9199L19 16.8799C19.2594 16.9903 19.5131 17.1138 19.76 17.2499C19.57 17.3599 16.18 19.0899 16.02 19.1499C15.7703 18.1193 15.7127 17.0514 15.85 15.9999Z" fill="black"/>
<path d="M4.00001 20.11C4.00001 20.2001 4.03583 20.2866 4.0996 20.3504C4.16336 20.4141 4.24984 20.45 4.34001 20.45C4.43019 20.45 4.51667 20.4141 4.58043 20.3504C4.64419 20.2866 4.68001 20.2001 4.68001 20.11C4.83974 18.1638 4.75575 16.2053 4.43001 14.28C4.35001 13.75 3.78001 13.75 3.68001 14.22C3.66742 16.188 3.77428 18.1549 4.00001 20.11Z" fill="black"/>
<path d="M8.86 13.05C6.40036 12.7309 3.9167 12.6372 1.44 12.77C1.04 12.89 0.98 13.25 1.5 13.5C1.97 13.55 6.9 13.8 8.83 13.73C8.92017 13.734 9.00823 13.702 9.07481 13.641C9.14139 13.5801 9.18102 13.4952 9.185 13.405C9.18898 13.3148 9.15697 13.2268 9.09602 13.1602C9.03507 13.0936 8.95017 13.054 8.86 13.05Z" fill="black"/>
<path d="M1.84001 16.86C2.02466 16.8548 2.2086 16.8347 2.39001 16.7999C2.66572 16.7133 2.93339 16.6029 3.19001 16.4699C3.27139 16.4499 3.34248 16.4005 3.38965 16.3312C3.43681 16.2619 3.45673 16.1776 3.44557 16.0946C3.43441 16.0115 3.39297 15.9355 3.32919 15.8811C3.26541 15.8267 3.1838 15.7978 3.10001 15.8C2.54275 15.6662 1.95723 15.7153 1.43001 15.94C1.22001 16.11 1.25001 16.26 1.32001 16.65C1.39001 16.64 1.46001 16.75 1.84001 16.86Z" fill="black"/>
<path d="M15.89 4.37995C15.9085 3.7788 15.8817 3.1771 15.81 2.57995C15.44 0.0599527 13.13 0.0499527 10.7 -4.73112e-05C8.86733 -0.0669398 7.03222 0.00325574 5.21001 0.209953C3.83995 0.373895 2.49603 0.709877 1.21001 1.20995C0.918281 1.42765 0.682651 1.71175 0.522655 2.0387C0.362658 2.36564 0.282905 2.72602 0.290007 3.08995C0.130007 4.43995 -0.0699932 15.58 0.150007 17.65C0.370007 19.72 1.15001 20.98 3.21001 21.36C4.59404 21.5073 5.9908 21.4871 7.37001 21.3C7.76001 21.3 9.23001 21.49 9.55001 21.14C9.60438 21.0816 9.63334 21.004 9.63053 20.9243C9.62771 20.8446 9.59335 20.7693 9.53501 20.715C9.47666 20.6606 9.3991 20.6316 9.3194 20.6344C9.2397 20.6372 9.16438 20.6716 9.11001 20.73L7.34001 20.65C6.01152 20.8107 4.6685 20.8107 3.34001 20.65C1.38001 20.19 1.00001 18.87 1.00001 16.78C1.19001 9.53995 0.690007 4.29995 1.65001 2.29995C1.78001 2.03995 2.89001 1.79995 3.65001 1.62995C3.65001 1.62995 11.82 1.03995 11.82 0.989953C15.53 0.989953 15.07 2.49995 15.08 6.73995C15.1433 7.9191 15.1433 9.1008 15.08 10.28C15.0779 10.3637 15.1068 10.4454 15.1612 10.5091C15.2156 10.5729 15.2916 10.6144 15.3746 10.6255C15.4577 10.6367 15.542 10.6168 15.6112 10.5696C15.6805 10.5224 15.7299 10.4513 15.75 10.37C16 9.21995 15.85 8.99995 15.89 4.37995Z" fill="black"/>
<path d="M14.82 8.58001C10.897 8.12865 6.94248 8.0149 3.00001 8.24001C2.53001 8.24001 2.00001 8.33001 1.59001 8.39001C1.18001 8.45001 1.24001 8.78001 1.49001 9.01001C1.78615 9.0351 2.08387 9.0351 2.38001 9.01001C6.68001 8.94001 14.79 9.23001 14.82 9.22001C15.17 9.22001 15.15 8.61001 14.82 8.58001Z" fill="black"/>
<path d="M12.45 5.57998C12.7525 5.67023 13.0699 5.6999 13.3839 5.6673C13.698 5.6347 14.0025 5.54046 14.28 5.38998C14.3702 5.38998 14.4567 5.35416 14.5204 5.2904C14.5842 5.22663 14.62 5.14015 14.62 5.04998C14.62 4.95981 14.5842 4.87333 14.5204 4.80956C14.4567 4.7458 14.3702 4.70998 14.28 4.70998C13.6921 4.4777 13.0379 4.4777 12.45 4.70998C12.3496 3.58918 12.1725 2.47657 11.92 1.37998C11.9174 1.33268 11.9046 1.28651 11.8826 1.24459C11.8605 1.20267 11.8297 1.16599 11.7922 1.13704C11.7547 1.10809 11.7114 1.08755 11.6653 1.07682C11.6191 1.06609 11.5712 1.06541 11.5248 1.07484C11.4784 1.08427 11.4346 1.10358 11.3963 1.13146C11.358 1.15935 11.3261 1.19514 11.3029 1.23643C11.2797 1.27771 11.2656 1.32351 11.2617 1.37071C11.2577 1.41791 11.264 1.46541 11.28 1.50998V2.75998C11.2727 4.43663 11.42 6.11038 11.72 7.75998C11.7425 7.83683 11.7875 7.90516 11.8492 7.95615C11.9109 8.00713 11.9866 8.03842 12.0663 8.04596C12.146 8.0535 12.2261 8.03694 12.2963 7.99844C12.3665 7.95993 12.4235 7.90125 12.46 7.82998C12.42 6.99998 12.47 6.47998 12.45 5.57998Z" fill="black"/>
<path d="M3.25001 5.40996C3.25001 6.18996 3.36001 6.94996 3.39001 7.72996C3.39001 7.82013 3.42583 7.90661 3.48959 7.97038C3.55335 8.03414 3.63983 8.06996 3.73001 8.06996C3.82018 8.06996 3.90666 8.03414 3.97042 7.97038C4.03418 7.90661 4.07001 7.82013 4.07001 7.72996C4.26886 6.57725 4.36923 5.4097 4.37001 4.23996V1.89996C4.37001 1.61996 3.90001 1.55996 3.66001 1.78996C3.3965 2.74123 3.25866 3.72291 3.25001 4.70996C2.99001 4.70996 2.57001 4.56996 2.13001 4.54996C1.94291 4.54875 1.75696 4.57918 1.58001 4.63996C1.29001 4.91996 1.08001 5.13996 1.39001 5.48996C2.01071 5.54998 2.63675 5.52306 3.25001 5.40996Z" fill="black"/>
</g>
<defs>
<clipPath id="clip0_1047_6493">
<rect width="24" height="24" fill="white"/>
</clipPath>
</defs>
</svg>
