<svg width="24" height="24" viewBox="0 0 24 24" fill="none" xmlns="http://www.w3.org/2000/svg">
<g clip-path="url(#clip0_1047_6553)">
<path fill-rule="evenodd" clip-rule="evenodd" d="M7.17 13.9399L5.91 13.6999V13.5399C5.84 13.0899 5.72 12.6699 5.65 12.2099C5.65812 12.1653 5.65633 12.1193 5.64475 12.0754C5.63317 12.0315 5.61209 11.9907 5.583 11.9558C5.55391 11.921 5.51751 11.8929 5.47638 11.8737C5.43525 11.8545 5.3904 11.8445 5.345 11.8445C5.29959 11.8445 5.25474 11.8545 5.21361 11.8737C5.17248 11.8929 5.13609 11.921 5.10699 11.9558C5.0779 11.9907 5.05682 12.0315 5.04524 12.0754C5.03366 12.1193 5.03187 12.1653 5.04 12.2099C4.92193 12.6934 4.83839 13.1846 4.79 13.6799H4.56C4.08 13.7399 3.63 13.8599 3.15 13.9599C3.06778 13.9599 2.98893 13.9926 2.93079 14.0507C2.87266 14.1089 2.84 14.1877 2.84 14.2699C2.84 14.3522 2.87266 14.431 2.93079 14.4891C2.98893 14.5473 3.06778 14.5799 3.15 14.5799C3.62 14.6499 4.06 14.7499 4.53 14.8099H4.81C4.87 15.2399 4.97 15.6599 5.02 16.0899C5.0173 16.1367 5.02403 16.1836 5.03978 16.2277C5.05554 16.2718 5.07999 16.3124 5.1117 16.3469C5.14341 16.3814 5.18173 16.4092 5.22438 16.4286C5.26703 16.448 5.31315 16.4587 5.36 16.4599C5.45211 16.4601 5.54077 16.4249 5.60774 16.3617C5.6747 16.2984 5.71488 16.2119 5.72 16.1199C5.8045 15.6769 5.86459 15.2296 5.9 14.7799L7.1 14.6499C7.19282 14.6499 7.28185 14.6131 7.34748 14.5474C7.41312 14.4818 7.45 14.3928 7.45 14.2999C7.45 14.2071 7.41312 14.1181 7.34748 14.0524C7.28185 13.9868 7.19282 13.9499 7.1 13.9499L7.17 13.9399Z" fill="black"/>
<path fill-rule="evenodd" clip-rule="evenodd" d="M19.63 11.24C18.22 11.5 17.93 13.63 19.63 13.56C19.8426 13.5637 20.0522 13.5095 20.2363 13.403C20.4203 13.2966 20.5719 13.1421 20.6748 12.9559C20.7776 12.7698 20.8278 12.5592 20.8199 12.3467C20.812 12.1342 20.7463 11.9279 20.63 11.75C20.5222 11.5852 20.3732 11.4515 20.1978 11.362C20.0224 11.2725 19.8267 11.2305 19.63 11.24Z" fill="black"/>
<path fill-rule="evenodd" clip-rule="evenodd" d="M17.14 13.6899C15.72 13.9499 15.43 16.0799 17.14 16.0099C17.3513 16.0103 17.5588 15.954 17.7409 15.8468C17.923 15.7396 18.0729 15.5855 18.1751 15.4005C18.2773 15.2156 18.3279 15.0066 18.3218 14.7954C18.3156 14.5842 18.2528 14.3786 18.14 14.1999C18.0322 14.0351 17.8832 13.9014 17.7078 13.812C17.5324 13.7225 17.3367 13.6804 17.14 13.6899Z" fill="black"/>
<path fill-rule="evenodd" clip-rule="evenodd" d="M13.24 13.1899C12.92 13.1899 12.63 13.0799 12.31 13.0499H11.91C11.7789 13.0567 11.6486 13.0734 11.52 13.0999C11.19 13.1599 10.92 13.2699 10.59 13.3599C10.5493 13.3599 10.509 13.3679 10.4714 13.3835C10.4338 13.3991 10.3996 13.4219 10.3708 13.4507C10.342 13.4795 10.3192 13.5137 10.3036 13.5513C10.288 13.5889 10.28 13.6292 10.28 13.6699C10.28 13.7106 10.288 13.7509 10.3036 13.7886C10.3192 13.8262 10.342 13.8603 10.3708 13.8891C10.3996 13.9179 10.4338 13.9408 10.4714 13.9563C10.509 13.9719 10.5493 13.9799 10.59 13.9799C10.9178 14.0815 11.2518 14.1617 11.59 14.2199C11.7262 14.235 11.8637 14.235 12 14.2199C12.1381 14.2181 12.2755 14.2013 12.41 14.1699C12.73 14.0999 13.03 13.9999 13.35 13.8999C13.3961 13.895 13.4407 13.8809 13.4813 13.8585C13.5219 13.8362 13.5577 13.806 13.5865 13.7697C13.6154 13.7334 13.6367 13.6918 13.6493 13.6472C13.6619 13.6026 13.6656 13.5559 13.66 13.5099C13.6567 13.46 13.6428 13.4113 13.6192 13.3672C13.5955 13.3231 13.5627 13.2846 13.5229 13.2543C13.4831 13.224 13.4372 13.2025 13.3884 13.1914C13.3396 13.1803 13.289 13.1798 13.24 13.1899Z" fill="black"/>
<path fill-rule="evenodd" clip-rule="evenodd" d="M22.58 10.32C21.7004 9.30638 20.548 8.56702 19.26 8.18995C18.933 8.09894 18.5982 8.03868 18.26 8.00995C17.8 8.00995 17.34 7.94995 16.88 7.91995C16.42 7.88995 15.76 7.91995 15.2 7.91995C14.15 7.91995 13.1 8.01995 12.05 8.08995C12.1852 7.18809 12.0924 6.26672 11.78 5.40995C11.5056 4.69635 10.9741 4.11129 10.29 3.76995C9.75425 3.55226 9.17767 3.45332 8.6 3.47995C7.81476 3.54928 7.03792 3.69326 6.28 3.90995C6.23729 3.91351 6.19578 3.92589 6.1581 3.94631C6.12042 3.96672 6.08737 3.99473 6.06106 4.02856C6.03475 4.06239 6.01574 4.10131 6.00523 4.14285C5.99472 4.1844 5.99294 4.22768 6 4.26995C6.00604 4.30959 6.01997 4.34762 6.04096 4.38178C6.06195 4.41595 6.08957 4.44556 6.1222 4.46887C6.15483 4.49217 6.1918 4.5087 6.23093 4.51748C6.27005 4.52625 6.31054 4.52709 6.35 4.51995C6.96192 4.46884 7.57604 4.44881 8.19 4.45995C8.74051 4.45715 9.28438 4.58029 9.78 4.81995C10.0685 4.95459 10.3259 5.14766 10.5359 5.38692C10.7459 5.62619 10.9039 5.90644 11 6.20995C11.22 6.81918 11.3317 7.46221 11.33 8.10995C9.08765 8.2721 6.86109 8.60642 4.67 9.10995C3.63075 9.36429 2.66949 9.86895 1.87 10.58C1.19869 11.2543 0.683349 12.0675 0.360265 12.9625C0.0371813 13.8574 -0.0857941 14.8123 -2.52388e-06 15.76C0.0314296 16.7443 0.35284 17.6974 0.923906 18.4997C1.49497 19.3021 2.29026 19.9179 3.21 20.27C4.14421 20.5494 5.13181 20.6009 6.09 20.42C7.0722 20.2796 7.98716 19.8396 8.71 19.16C8.82075 19.0374 8.91797 18.9033 9 18.76C9.13 18.52 9.27 18.22 9.41 17.97C9.55 17.72 9.51 17.75 9.59 17.72C10.0479 17.5819 10.522 17.5045 11 17.49C12.14 17.4 13.53 17.39 14.32 17.38C14.7543 17.8469 15.2222 18.2814 15.72 18.68C16.1174 18.9719 16.5647 19.1887 17.04 19.32C17.8374 19.4887 18.6622 19.4794 19.4556 19.2927C20.249 19.106 20.9915 18.7465 21.63 18.24C22.3244 17.7747 22.9003 17.1535 23.3118 16.426C23.7233 15.6985 23.959 14.8848 24 14.05C23.9794 12.6784 23.4767 11.3579 22.58 10.32ZM21.06 17.45C20.5455 17.8922 19.9408 18.217 19.288 18.4018C18.6352 18.5866 17.95 18.6269 17.28 18.52C16.8905 18.416 16.5242 18.2396 16.2 18C15.7993 17.717 15.4245 17.3991 15.08 17.05C15.0843 17.0268 15.0843 17.0031 15.08 16.98C15.0787 16.934 15.0684 16.8887 15.0496 16.8468C15.0308 16.8048 15.0039 16.7669 14.9705 16.7354C14.937 16.7038 14.8977 16.6791 14.8547 16.6627C14.8117 16.6464 14.766 16.6386 14.72 16.64C14.07 16.64 12.34 16.56 10.97 16.64C10.3893 16.6438 9.81135 16.7211 9.25 16.87C9.06182 16.9565 8.89972 17.091 8.78 17.26C8.51 17.6 8.28 18.21 8.02 18.46C7.42777 18.9633 6.69412 19.2707 5.92 19.34C5.14423 19.4703 4.34847 19.412 3.6 19.17C2.89755 18.8816 2.29397 18.3955 1.86259 17.7706C1.43121 17.1457 1.1906 16.409 1.17 15.65C1.07144 14.8659 1.14085 14.0698 1.37361 13.3147C1.60637 12.5595 1.99715 11.8625 2.52 11.27C3.19185 10.6311 4.00847 10.1644 4.9 9.90995C4.99 9.90995 8.06 8.77995 14.41 8.81995C15.21 8.81995 16.01 8.81995 16.82 8.93995C17.26 8.98995 17.7 9.00995 18.14 9.07995C18.4084 9.11495 18.6729 9.17522 18.93 9.25995C19.9987 9.59786 20.9513 10.2283 21.68 11.08C22.4017 11.9167 22.8146 12.9756 22.85 14.08C22.8296 14.7412 22.6576 15.389 22.3473 15.9733C22.0369 16.5576 21.5965 17.0628 21.06 17.45Z" fill="black"/>
</g>
<defs>
<clipPath id="clip0_1047_6553">
<rect width="24" height="24" fill="white"/>
</clipPath>
</defs>
</svg>
