<svg width="24" height="24" viewBox="0 0 24 24" fill="none" xmlns="http://www.w3.org/2000/svg">
<g clip-path="url(#clip0_1047_6529)">
<path d="M20.68 5.42995C20.68 4.00995 19.81 3.76995 18.8 2.90995C17.79 2.04995 17.08 1.21995 16.14 0.489953C15.59 0.0599528 15 1.48995 14.93 1.66995C14.5 2.56995 13.4 3.92995 13.79 5.08995C14.18 6.24995 17.19 6.25995 18.54 6.18995C19.04 6.21413 19.5391 6.12526 20 5.92995C20 6.44995 19.87 6.97995 19.86 7.31995C19.9427 10.2733 19.799 13.2286 19.43 16.16C19.2693 17.2478 19.0354 18.3236 18.73 19.38C18.58 19.71 18.36 19.99 17.58 20.14C14.6241 20.3968 11.6562 20.4903 8.69 20.42C6.54 20.42 3.74 20.8 1.81 19.76C3 17.81 3 14.52 4 1.71995C4.44 1.34995 11.54 0.579953 12 0.569953C12.5353 0.528643 13.0737 0.582819 13.59 0.729953C13.6524 0.740472 13.7165 0.728733 13.7712 0.696785C13.8258 0.664837 13.8675 0.614712 13.8889 0.555163C13.9104 0.495614 13.9102 0.430426 13.8885 0.370985C13.8667 0.311544 13.8248 0.261627 13.77 0.229953C13.1979 0.0508505 12.5989 -0.0269849 12 -4.71678e-05C11.24 -4.71678e-05 5 0.649953 4.12 0.899953C3.6 1.04995 3.43 1.25995 3.33 1.51995C3.17 1.93995 2.21 12.89 1.93 15.3C1.49 19.13 0.63 19.3 0.63 19.89C0.627688 19.9998 0.654159 20.1084 0.706787 20.2049C0.759414 20.3014 0.836366 20.3824 0.93 20.44C3.15 21.9 6.2 21.44 8.65 21.44C16.99 21.44 18.85 21.38 19.54 19.73C19.8703 18.5973 20.1111 17.4404 20.26 16.27C20.583 13.2815 20.6833 10.2732 20.56 7.26995C20.56 6.87995 20.7 6.09995 20.68 5.42995ZM19.42 5.42995C18.82 5.52995 14.92 5.19995 14.74 4.72995C14.56 4.25995 15.19 2.99995 15.81 1.12995L15.87 1.05995C16.87 1.84995 17.48 2.63995 18.37 3.40995C19.26 4.17995 19.9 4.38995 20 5.19995C19.82 5.24995 19.83 5.36995 19.42 5.42995Z" fill="black"/>
<path d="M6.25 16.2499C7.68218 16.51 9.13442 16.6438 10.59 16.6499C11.05 16.6499 12.03 16.9399 12.5 16.3899C12.8896 15.6965 13.0637 14.9027 13 14.1099C13.5872 14.4964 14.2272 14.7962 14.9 14.9999C15.1342 15.0759 15.3881 15.0628 15.6132 14.9631C15.8383 14.8635 16.0188 14.6843 16.12 14.4599C16.5209 12.9801 16.5926 11.4304 16.33 9.91992C16.27 9.30992 16.24 8.34992 15.62 8.13992C15 7.92992 14.03 8.76992 13.55 9.07992C13.25 9.26992 12.55 9.55992 12.28 9.91992C12.2528 9.94824 12.2322 9.98213 12.2194 10.0192C12.2067 10.0564 12.2022 10.0958 12.2063 10.1348C12.2103 10.1739 12.2228 10.2115 12.243 10.2452C12.2631 10.2789 12.2903 10.3078 12.3227 10.33C12.3551 10.3521 12.392 10.3668 12.4307 10.3732C12.4694 10.3797 12.5091 10.3776 12.5469 10.3671C12.5847 10.3566 12.6198 10.338 12.6497 10.3126C12.6796 10.2872 12.7036 10.2556 12.72 10.2199C13.0759 9.96341 13.458 9.74551 13.86 9.56992C14.16 9.38992 15.1 8.63992 15.41 8.74992C15.72 8.85992 15.62 9.74992 15.63 9.97992C15.8203 11.373 15.7146 12.7905 15.32 14.1399C15.32 14.1999 15.23 14.1399 15.18 14.1399C14.3343 13.8484 13.5409 13.4229 12.83 12.8799C12.7566 12.8408 12.675 12.8196 12.5919 12.8178C12.5087 12.8161 12.4263 12.834 12.3513 12.87C12.2764 12.906 12.2109 12.9592 12.1603 13.0252C12.1097 13.0912 12.0753 13.1682 12.06 13.2499C11.94 13.6599 12.06 15.2499 11.76 15.6999C11.3922 15.6503 11.021 15.6302 10.65 15.6399C6.35 15.3899 6.08 15.5599 5.9 14.3299C5.9 14.1699 5.75 10.9499 5.75 10.8599C5.75 10.1299 5.69 8.93992 6.07 8.64992C6.56558 8.30077 7.13878 8.07766 7.74 7.99992C9.03273 7.87564 10.3326 7.84222 11.63 7.89992C12.17 7.95992 12.12 8.03992 12.13 8.37992C12.13 9.06992 11.9 9.59992 12.36 9.60992C12.4406 9.61269 12.5191 9.58395 12.5788 9.52981C12.6385 9.47567 12.6748 9.40038 12.68 9.31992C12.68 8.31992 13.05 7.50992 11.9 7.31992C10.4798 7.18682 9.05022 7.18682 7.63 7.31992C6.63 7.43992 5.44 7.77992 5.08 8.67992C4.83817 9.99877 4.77427 11.3441 4.89 12.6799C4.93 14.0499 4.64 15.7499 6.25 16.2499Z" fill="black"/>
<path fill-rule="evenodd" clip-rule="evenodd" d="M22.54 6.72999C22.54 8.10999 22.23 13.73 22.1 14.62C21.97 15.51 21.82 16.26 21.72 17.09C21.72 17.41 21.57 21.24 20.59 21.8C19.22 22.6 17.59 22.27 16.12 22.51C15.2 22.66 13.23 22.96 12.04 23.01C7.42 23.19 7.44 23.38 6.28 22.93C5.61 22.72 5.49 23.37 5.92 23.61C6.39777 23.8534 6.92398 23.9866 7.46 24C10.404 24.0659 13.3481 23.8785 16.26 23.44C17.76 23.2 19.47 23.54 21.06 22.62C22.65 21.7 22.55 17.78 22.61 17.21C22.7 16.39 22.85 15.58 22.95 14.76C23.05 13.94 23.41 8.35999 23.36 6.80999C23.34 5.99999 22.58 5.91999 22.54 6.72999Z" fill="black"/>
</g>
<defs>
<clipPath id="clip0_1047_6529">
<rect width="24" height="24" fill="white"/>
</clipPath>
</defs>
</svg>
