<svg width="24" height="24" viewBox="0 0 24 24" fill="none" xmlns="http://www.w3.org/2000/svg">
<g clip-path="url(#clip0_1051_8944)">
<path fill-rule="evenodd" clip-rule="evenodd" d="M15.06 14.8C15.06 14.8 15.18 15.14 15.35 15.17C15.4134 15.2025 15.4837 15.2194 15.555 15.2194C15.6263 15.2194 15.6965 15.2025 15.76 15.17C15.797 15.1245 15.8226 15.0709 15.8348 15.0135C15.847 14.9561 15.8453 14.8967 15.83 14.84C15.6406 14.1247 15.2948 13.4603 14.8175 12.8949C14.3402 12.3294 13.7433 11.8769 13.07 11.57C13.6142 11.2637 14.0393 10.783 14.2769 10.2055C14.5146 9.62795 14.5508 8.98725 14.3799 8.38661C14.2089 7.78597 13.8407 7.26039 13.3346 6.89456C12.8285 6.52873 12.2139 6.34396 11.59 6.37004C7.65999 6.62004 7.58999 10.69 9.64999 11.74C9.02745 12.0355 8.4826 12.4723 8.05894 13.0158C7.63529 13.5592 7.34457 14.1942 7.20999 14.87C7.20999 15.18 7.75999 15.25 7.85999 14.87C8.99999 11.73 13.42 10.67 15.06 14.8ZM9.32999 10.2C8.92999 8.81004 9.62999 7.61004 11.67 7.46004C11.9105 7.44212 12.1521 7.47411 12.3797 7.554C12.6072 7.63389 12.8158 7.75995 12.9924 7.92427C13.1689 8.0886 13.3095 8.28764 13.4055 8.5089C13.5015 8.73016 13.5507 8.96887 13.55 9.21004C13.63 11.67 9.86999 12.11 9.32999 10.2Z" fill="black"/>
<path fill-rule="evenodd" clip-rule="evenodd" d="M22.94 6.92C22.82 5.92 22.85 3.62 22.1 3.05C21.1278 2.45124 20.0203 2.1073 18.88 2.05C18.7962 2.04788 18.7146 2.07679 18.6508 2.13117C18.587 2.18554 18.5456 2.26156 18.5344 2.34463C18.5233 2.42769 18.5432 2.51195 18.5904 2.58123C18.6375 2.65051 18.7086 2.69993 18.79 2.72C19.8155 2.80671 20.8026 3.15065 21.66 3.72C22.08 4.06 22.07 6.29 22.15 7.1C22.4599 9.87471 22.4599 12.6753 22.15 15.45C22.1011 16.3844 21.9468 17.3103 21.69 18.21C19.32 19.49 3.02999 20.29 2.08999 18.66C1.8844 17.934 1.77348 17.1844 1.75999 16.43C1.88999 16.37 6.21999 16.43 6.29999 16.43C11.2 16.55 11.02 16.23 19.07 16.33C21.43 16.26 21.36 15.65 19.07 15.59C19.07 15.59 14.2 15.45 9.61999 15.51C5.61999 15.57 1.74999 15.85 1.70999 15.86C1.43995 12.3385 1.43995 8.8015 1.70999 5.28C1.98999 3.28 2.39999 3.28 3.19999 3.02C4.64999 2.61 5.25999 2.85 5.19999 2.36C5.21059 2.31738 5.21137 2.2729 5.20227 2.22993C5.19318 2.18696 5.17444 2.14662 5.14747 2.11195C5.12051 2.07728 5.08602 2.04919 5.04661 2.0298C5.00721 2.0104 4.96391 2.00022 4.91999 2C4.05999 2.09 2.36999 2.29 1.82999 2.92C1.4036 3.53901 1.13576 4.25326 1.04999 5C0.529985 8.17 0.569986 17.85 1.22999 19C1.99999 20.5 6.62999 20.58 8.36999 20.6C7.93538 21.3211 7.73941 22.161 7.80999 23L5.80999 23.15C5.74105 23.1627 5.67876 23.1992 5.63392 23.2531C5.58908 23.307 5.56453 23.3749 5.56453 23.445C5.56453 23.5151 5.58908 23.583 5.63392 23.6369C5.67876 23.6908 5.74105 23.7273 5.80999 23.74C8.29088 23.9475 10.7815 24.0142 13.27 23.94C14.59 23.88 15.94 23.73 17.27 23.62C17.3489 23.6063 17.4205 23.5652 17.472 23.5039C17.5236 23.4426 17.5519 23.3651 17.5519 23.285C17.5519 23.2049 17.5236 23.1274 17.472 23.0661C17.4205 23.0048 17.3489 22.9637 17.27 22.95H15.54C15.4251 22.0564 15.1721 21.186 14.79 20.37C16.513 20.2434 18.2285 20.0298 19.93 19.73C23.25 19.09 22.79 18.73 23.18 15.48C23.4159 12.6265 23.3354 9.75575 22.94 6.92ZM8.56999 23C8.96392 22.2702 9.20227 21.4666 9.26999 20.64C10.8 20.64 12.27 20.58 13.81 20.48C13.9197 21.37 14.2346 22.2224 14.73 22.97C12 22.86 10.74 22.84 8.56999 23Z" fill="black"/>
<path fill-rule="evenodd" clip-rule="evenodd" d="M7.86999 4.73003C8.74998 5.09127 9.71692 5.18518 10.65 5.00003C12.0554 5.04372 13.4617 4.95331 14.85 4.73003C15.4 4.59003 16.79 4.67003 16.99 3.61003C17.0387 2.87083 17.0387 2.12923 16.99 1.39003C16.9763 1.31111 16.9352 1.23955 16.8739 1.18798C16.8126 1.1364 16.7351 1.10812 16.655 1.10812C16.5749 1.10812 16.4974 1.1364 16.4361 1.18798C16.3748 1.23955 16.3337 1.31111 16.32 1.39003C16.25 3.28003 16.32 2.92003 16.32 3.26003C16.32 3.60003 16.32 3.67003 15.76 3.77003C15.41 3.83003 15.03 3.82003 14.7 3.89003C12.5783 4.08824 10.4396 4.00418 8.33999 3.64003C8.27213 3.55895 8.23653 3.4557 8.23999 3.35003C8.20141 2.67814 8.26206 2.00423 8.41999 1.35003C8.53336 1.2505 8.66616 1.17558 8.80999 1.13003C11.1203 0.728027 13.4716 0.613824 15.81 0.79003C15.8474 0.798566 15.8862 0.799647 15.924 0.79321C15.9618 0.786774 15.998 0.772946 16.0305 0.752517C16.063 0.732089 16.0912 0.705458 16.1134 0.674147C16.1356 0.642836 16.1514 0.607457 16.16 0.57003C16.1685 0.532603 16.1696 0.493862 16.1632 0.456017C16.1567 0.418173 16.1429 0.381967 16.1225 0.349467C16.102 0.316966 16.0754 0.288808 16.0441 0.266599C16.0128 0.24439 15.9774 0.228566 15.94 0.22003C13.4194 -0.139912 10.8605 -0.139912 8.33999 0.22003C8.06081 0.290273 7.80613 0.435453 7.60345 0.639892C7.40078 0.844331 7.25781 1.10026 7.18999 1.38003C7.12878 1.70961 7.10863 2.0455 7.12999 2.38003C7.11999 3.15003 6.79999 4.18003 7.86999 4.73003Z" fill="black"/>
<path fill-rule="evenodd" clip-rule="evenodd" d="M11.52 1.76001C11.3944 1.82407 11.2906 1.92409 11.2221 2.04733C11.1535 2.17056 11.1232 2.31143 11.135 2.45196C11.1468 2.5925 11.2002 2.72633 11.2883 2.83641C11.3765 2.94648 11.4954 3.02781 11.63 3.07001C12.09 3.27001 13.03 2.78001 12.75 2.16001C12.6256 1.95847 12.4336 1.80764 12.2084 1.73439C11.9831 1.66113 11.7392 1.67022 11.52 1.76001Z" fill="black"/>
</g>
<defs>
<clipPath id="clip0_1051_8944">
<rect width="24" height="24" fill="white"/>
</clipPath>
</defs>
</svg>
