<svg width="24" height="24" viewBox="0 0 24 24" fill="none" xmlns="http://www.w3.org/2000/svg">
<g clip-path="url(#clip0_1047_6543)">
<path fill-rule="evenodd" clip-rule="evenodd" d="M18.65 20.24C17.38 19.66 16.4 20.18 14.33 20.12H12H9.87999C9.3927 20.1483 8.9081 20.2118 8.42999 20.31C8.04764 20.37 7.6767 20.488 7.32999 20.66C7.0301 20.8098 6.78257 21.0469 6.61999 21.34C6.46918 21.6032 6.40995 21.9089 6.45157 22.2093C6.4932 22.5097 6.63332 22.7878 6.84999 23C7.32211 23.4885 7.93947 23.8112 8.60999 23.92C9.19057 23.9902 9.77529 24.0202 10.36 24.01C11.66 24.01 12.98 23.81 14.26 23.8L17 23.66C17.29 23.66 17.58 23.66 17.86 23.58C18.083 23.5461 18.3012 23.4856 18.51 23.4C18.7742 23.3054 19.0171 23.1596 19.2248 22.9708C19.4324 22.782 19.6007 22.5541 19.72 22.3C19.8358 22.0112 19.8536 21.6923 19.7704 21.3923C19.6873 21.0924 19.508 20.8281 19.26 20.64L18.65 20.24ZM18.89 21.94C18.7331 22.2142 18.4743 22.4154 18.17 22.5C18.0316 22.55 17.8868 22.5803 17.74 22.59H16.94H14.26C12.97 22.59 11.65 22.73 10.34 22.75C9.80881 22.7583 9.27766 22.7316 8.74999 22.67C8.42227 22.6168 8.11297 22.4827 7.84999 22.28C7.68999 22.15 7.52999 22.01 7.62999 21.82C7.70502 21.6836 7.82524 21.5775 7.96999 21.52C8.19273 21.4256 8.42371 21.352 8.65999 21.3C9.10195 21.209 9.54969 21.1489 9.99999 21.12C10.66 21 11.36 21 12 21C12.64 21 13.53 20.91 14.29 20.89C17.38 20.83 17.54 20.67 18.29 21.03L18.68 21.31C18.92 21.51 19 21.74 18.89 21.94Z" fill="black"/>
<path fill-rule="evenodd" clip-rule="evenodd" d="M19.35 8.57005C18.9025 8.61022 18.4843 8.8102 18.1722 9.1334C17.86 9.45659 17.6746 9.88138 17.65 10.33C17.6198 10.8059 17.7697 11.2756 18.0698 11.6461C18.3699 12.0166 18.7983 12.2607 19.27 12.33C19.5259 12.3695 19.787 12.3574 20.0381 12.2944C20.2892 12.2313 20.5252 12.1187 20.7321 11.9631C20.9389 11.8074 21.1126 11.612 21.2428 11.3882C21.3729 11.1644 21.457 10.9168 21.49 10.66C21.85 8.51005 19.66 8.53005 19.35 8.57005ZM20.52 10.48C20.4762 10.7041 20.3479 10.9026 20.1618 11.0348C19.9757 11.1669 19.7459 11.2225 19.52 11.19C19.3131 11.1703 19.1208 11.0744 18.9805 10.9211C18.8401 10.7678 18.7615 10.5679 18.76 10.36C18.7338 10.1184 18.7965 9.87552 18.9364 9.67675C19.0762 9.47799 19.2837 9.33696 19.52 9.28005C19.6768 9.24914 19.839 9.261 19.9895 9.31439C20.1401 9.36778 20.2736 9.46072 20.3759 9.58347C20.4782 9.70622 20.5455 9.85424 20.5709 10.012C20.5962 10.1698 20.5787 10.3314 20.52 10.48Z" fill="black"/>
<path fill-rule="evenodd" clip-rule="evenodd" d="M14.59 18.61C15.11 17.98 15.68 17.42 16.2 16.8C16.43 16.52 16.63 16.23 16.84 15.95C17.05 15.67 17.06 15.61 17.16 15.44C17.55 14.76 17.86 14.05 18.24 13.37C18.2878 13.3019 18.3072 13.2179 18.2941 13.1358C18.2811 13.0537 18.2366 12.9798 18.17 12.93C18.1035 12.8827 18.0211 12.8636 17.9406 12.8767C17.8601 12.8898 17.7881 12.9341 17.74 13C17.33 13.44 16.95 13.89 16.58 14.35C16.34 14.65 16.11 14.96 15.87 15.27C15.63 15.58 15.47 15.82 15.28 16.11C14.82 16.79 14.41 17.49 14 18.21C13.9619 18.2879 13.9533 18.3769 13.9756 18.4606C13.9979 18.5444 14.0497 18.6173 14.1215 18.666C14.1932 18.7146 14.2801 18.7357 14.3662 18.7254C14.4522 18.7152 14.5317 18.6742 14.59 18.61Z" fill="black"/>
<path fill-rule="evenodd" clip-rule="evenodd" d="M22.46 1.77C22.46 1.41 22.4 1.05 22.35 0.7C22.35 0.64 22.11 0.11 21.84 0.09C21 0 20.13 0 19.28 0C18 0 16.72 0 15.46 0.07C14.04 0.07 12.62 0.07 11.21 0.18C10.21 0.18 9.31 0.29 8.35 0.38C6.83 0.56 5.29 0.61 3.76 0.74C0.769996 1 2 0 1.59 5.22C1.54823 5.58181 1.52819 5.94579 1.53 6.31C1.53534 6.39537 1.55858 6.47866 1.59821 6.55446C1.63783 6.63026 1.69295 6.69688 1.76 6.75C1.89361 6.86538 2.0505 6.95064 2.22 7C2.47789 7.04423 2.73849 7.07096 3 7.08C3.42923 7.16069 3.86366 7.21082 4.3 7.23H6.2H7.2V7.36L7.26 8.87V9.25C7.27332 9.36216 7.31654 9.46868 7.38516 9.55841C7.45377 9.64813 7.54524 9.71776 7.65 9.76C8.08465 9.91022 8.5402 9.9912 9 10C9.61951 10.0348 10.2405 10.0348 10.86 10C11.86 9.93 12.92 9.86 13.95 9.74C14.6411 9.64088 15.3256 9.50063 16 9.32C16.0455 9.31052 16.0887 9.29208 16.127 9.26575C16.1653 9.23941 16.1979 9.20571 16.2231 9.16661C16.2482 9.12752 16.2653 9.0838 16.2733 9.03803C16.2814 8.99225 16.2803 8.94533 16.27 8.9C16.3638 8.90004 16.4539 8.86348 16.5211 8.79812C16.5883 8.73275 16.6274 8.64373 16.63 8.55C16.72 7.55 16.85 6.64 16.91 5.68V4.23L20.32 4.05H21.45C21.6588 4.04589 21.8652 4.00527 22.06 3.93C22.1253 3.90546 22.1842 3.8667 22.2327 3.81654C22.2811 3.76638 22.3178 3.70608 22.34 3.64C22.3948 3.37671 22.4249 3.10888 22.43 2.84C22.48 2.49 22.48 2.13 22.46 1.77ZM8.46 1.48C10.11 1.37 11.75 1.35 13.4 1.28C14.11 1.28 14.82 1.2 15.54 1.14H15.87V3.14H12.87H9.31H8.22V1.43L8.46 1.48ZM15.81 4.27V5.34V6.08C13.62 6 11.42 6 9.22 6H8.28C8.28 5.41 8.21 4.81 8.19 4.22L10.09 4.28H12.09C13.32 4.33 14.55 4.3 15.79 4.27H15.81ZM3.8 1.49H7.49C7.43 2.07 7.4 2.65 7.37 3.23C5.75 3.23 4.13 3.34 2.51 3.46V1.55C3 1.53 3.37 1.5 3.8 1.49ZM6.13 6H4.29C3.89692 6.02019 3.50307 6.02019 3.11 6H2.62C2.61194 5.75649 2.57501 5.5148 2.51 5.28V4.11C4.11 4.11 5.7 4.11 7.3 4.2V4.31C7.3 4.89 7.3 5.46 7.24 6.03L6.13 6ZM13.88 8.8C12.88 8.85 11.82 8.8 10.82 8.8C10.2437 8.83 9.66627 8.83 9.09 8.8C8.86779 8.77811 8.64729 8.74136 8.43 8.69L8.34 7.31C8.34537 7.26349 8.34537 7.21651 8.34 7.17H9.25C11.45 7.08 13.66 6.96 15.86 6.86C15.86 7.43 15.92 8 15.96 8.57V8.66C15.9302 8.65496 15.8998 8.65496 15.87 8.66C15.2104 8.75555 14.5461 8.81564 13.88 8.84V8.8ZM21.67 2.8C21.6301 2.92485 21.5967 3.05169 21.57 3.18H21.46C21.07 3.18 20.62 3.11 20.33 3.12H16.89C16.8191 2.42825 16.7123 1.74066 16.57 1.06C17.48 1 18.39 0.9 19.3 0.85C20.21 0.8 20.87 0.79 21.65 0.85C21.65 1.17 21.7 1.51 21.7 1.85C21.7 2.19 21.69 2.48 21.67 2.8Z" fill="black"/>
</g>
<defs>
<clipPath id="clip0_1047_6543">
<rect width="24" height="24" fill="white"/>
</clipPath>
</defs>
</svg>
