<svg width="24" height="24" viewBox="0 0 24 24" fill="none" xmlns="http://www.w3.org/2000/svg">
<g clip-path="url(#clip0_1047_6595)">
<path fill-rule="evenodd" clip-rule="evenodd" d="M22.93 18.17L20.84 16.29C19.84 15.52 18.84 14.85 17.79 14.11C17.37 13.81 16.97 13.49 16.58 13.11C16.2824 12.8624 15.9987 12.5987 15.73 12.32C15.5611 12.153 15.4103 11.9686 15.28 11.77C15.2442 11.7096 15.2141 11.646 15.19 11.58C15.2613 11.4887 15.3381 11.4019 15.42 11.32C15.87 10.86 16.42 10.43 16.82 10.07C17.65 9.18 18.65 8.22 19.68 7.28C23.01 4.28 22.83 4.76 22.81 4.46C22.5066 3.90057 22.141 3.37724 21.72 2.9C21.4628 2.5879 21.1709 2.30609 20.85 2.06C20.064 1.47891 19.1847 1.03591 18.25 0.750001C17.3234 0.45146 16.3683 0.250372 15.4 0.150001C14.1267 -0.0161928 12.8391 -0.0430181 11.56 0.0700006C10.2481 0.191081 8.96991 0.553854 7.79 1.14C5.20645 2.54783 3.16825 4.77964 2 7.48C0.775188 10.1579 0.596825 13.1972 1.5 16C1.85451 16.9673 2.36085 17.872 3 18.68C3.6043 19.4461 4.27344 20.1587 5 20.81C5.72876 21.4694 6.53066 22.0431 7.39 22.52C8.25079 23.0012 9.17238 23.3645 10.13 23.6C11.1699 23.8615 12.2377 23.9958 13.31 24C15.7075 24.0249 18.0506 23.2859 20 21.89C21.0506 21.1328 22.0073 20.2533 22.85 19.27C22.9125 19.2018 22.9472 19.1126 22.9472 19.02C22.9472 18.9274 22.9125 18.8382 22.85 18.77C22.921 18.7555 22.9847 18.7166 23.03 18.66C23.0575 18.6219 23.0768 18.5785 23.0867 18.5326C23.0966 18.4866 23.0968 18.4391 23.0874 18.3931C23.078 18.347 23.0592 18.3034 23.0321 18.265C23.005 18.2267 22.9702 18.1943 22.93 18.17ZM19.56 21.25C18.5514 21.9395 17.4318 22.4502 16.25 22.76C15.2906 23.0082 14.3003 23.116 13.31 23.08C12.3158 23.0605 11.3281 22.916 10.37 22.65C9.50229 22.4292 8.66817 22.0929 7.89 21.65C7.10819 21.186 6.38327 20.6323 5.73 20C5.05267 19.3921 4.43334 18.7226 3.88 18C3.33207 17.2891 2.90007 16.4959 2.6 15.65C1.82042 13.1235 2.0057 10.3977 3.12 8C4.14294 5.51851 5.9569 3.4444 8.28 2.1C9.32685 1.52261 10.4738 1.14933 11.66 1C12.8765 0.869981 14.1035 0.869981 15.32 1C16.2342 1.06625 17.139 1.22711 18.02 1.48C18.8872 1.73936 19.7051 2.14154 20.44 2.67C20.7265 2.88328 20.9911 3.12447 21.23 3.39C21.52 3.72 21.78 4.08 22.04 4.39C20.92 5.22 19.67 6.17 18.47 7.15C17.59 7.87 16.74 8.6 16.01 9.29C15.65 9.64 15.01 10.06 14.59 10.51C14.3484 10.7352 14.1457 10.9987 13.99 11.29C13.9037 11.4453 13.8787 11.6272 13.92 11.8C14.0075 12.0403 14.1361 12.2636 14.3 12.46C14.4737 12.7121 14.6677 12.9495 14.88 13.17C15.18 13.47 15.52 13.74 15.88 14.01C16.24 14.28 16.76 14.67 17.22 15.01C18.22 15.68 19.34 16.29 20.36 17.01L22.52 18.75C22.4575 18.762 22.3991 18.7895 22.35 18.83C21.5274 19.7528 20.5898 20.5661 19.56 21.25Z" fill="black"/>
</g>
<defs>
<clipPath id="clip0_1047_6595">
<rect width="24" height="24" fill="white"/>
</clipPath>
</defs>
</svg>
