<svg width="24" height="24" viewBox="0 0 24 24" fill="none" xmlns="http://www.w3.org/2000/svg">
<g clip-path="url(#clip0_1047_6634)">
<path d="M13.35 10.9999C10.53 8.61992 9.92 8.82992 7.4 7.27992C7.3244 7.23091 7.23243 7.21392 7.14431 7.23266C7.05619 7.25141 6.97911 7.30438 6.93 7.37992C6.82 7.53992 6.7 14.3799 6.7 14.3799C6.66161 14.796 6.72689 15.2152 6.89 15.5999C7.34 16.2899 8.35 15.9099 9.07 15.5099C9.79 15.1099 11.46 13.8599 12.87 12.7699C13.1 12.5999 13.78 12.2699 13.87 11.7699C13.96 11.2699 13.6 11.1899 13.35 10.9999ZM9.9 13.5199C9.27278 14.046 8.57627 14.4834 7.83 14.8199C7.83 14.6699 7.71 8.34992 7.71 8.30992C10.16 9.84992 10.47 9.73992 12.59 11.6799C12.43 11.7599 9.9 13.5199 9.9 13.5199Z" fill="black"/>
<path d="M19.76 9.92999C19.4321 10.0459 19.1451 10.2549 18.934 10.5313C18.723 10.8078 18.597 11.1397 18.5715 11.4866C18.5461 11.8334 18.6222 12.1802 18.7907 12.4845C18.9591 12.7888 19.2125 13.0374 19.52 13.2C19.7211 13.3069 19.9414 13.3726 20.1682 13.3933C20.395 13.4139 20.6236 13.389 20.8407 13.3201C21.0577 13.2511 21.2588 13.1395 21.4321 12.9918C21.6054 12.8442 21.7475 12.6633 21.85 12.46C22.87 9.72999 20.36 9.69999 19.76 9.92999ZM21.04 11.93C20.9492 12.0646 20.8177 12.1665 20.6648 12.2209C20.5119 12.2754 20.3456 12.2794 20.1902 12.2324C20.0348 12.1855 19.8985 12.09 19.8013 11.96C19.7041 11.83 19.6511 11.6723 19.65 11.51C19.6496 11.3381 19.6902 11.1686 19.7684 11.0155C19.8467 10.8624 19.9604 10.7303 20.1 10.63C20.47 10.4 21.93 10.75 21 11.93H21.04Z" fill="black"/>
<path d="M3.23001 9.61C3.23001 9.27 2.71001 9.06 2.61001 9.61C2.31994 10.8026 2.31994 12.0474 2.61001 13.24C2.61001 13.3302 2.64583 13.4167 2.70959 13.4804C2.77335 13.5442 2.85983 13.58 2.95001 13.58C3.04018 13.58 3.12666 13.5442 3.19042 13.4804C3.25418 13.4167 3.29001 13.3302 3.29001 13.24C3.63143 12.051 3.61054 10.7871 3.23001 9.61Z" fill="black"/>
<path d="M16.78 19.4299C16.7939 19.5114 16.8362 19.5852 16.8993 19.6385C16.9625 19.6918 17.0424 19.721 17.125 19.721C17.2076 19.721 17.2876 19.6918 17.3507 19.6385C17.4138 19.5852 17.4561 19.5114 17.47 19.4299L17.9 4.64994C17.95 3.88994 17.23 3.97994 17.26 4.64994C16.7474 9.55883 16.587 14.4981 16.78 19.4299Z" fill="black"/>
<path d="M23.67 5.24996C23.4085 4.70256 23.011 4.23131 22.5156 3.88119C22.0202 3.53106 21.4433 3.31374 20.84 3.24996C17.91 2.61996 8.65 2.99996 4.22 3.20996C2.84 3.26996 1.48 3.28996 0.720005 4.49996C-0.229995 5.99996 4.54672e-06 10.56 4.54672e-06 12.9C4.54672e-06 15.24 -0.289995 18.65 1.52 19.9C3.12 21.03 7.11 20.85 9.7 20.97C12.6185 21.1384 15.545 21.1117 18.46 20.89C19.84 20.78 22.04 20.7 22.95 19.63C23.86 18.56 23.8 12.5 23.84 11.35C24 7.86996 24.14 6.37996 23.67 5.24996ZM23.22 11.34C23.22 12.34 22.94 18.5 22.39 19.14C21.09 20.61 11.73 20.14 9.77001 20C8.00001 19.9 6.15 19.93 4.41 19.67C2.49 19.4 1.7 19.19 1.33 17.31C1.1346 15.8519 1.08436 14.378 1.18 12.91C1.18 11.06 1.09 9.19996 1.25 7.36996C1.48 4.69996 1.59 4.47996 4.25 4.36996C6.91 4.25996 16 3.10996 20.49 3.99996C21.002 4.038 21.4974 4.19869 21.9343 4.46847C22.3711 4.73825 22.7367 5.10918 23 5.54996C23.4 6.52996 23.31 7.86996 23.22 11.34Z" fill="black"/>
</g>
<defs>
<clipPath id="clip0_1047_6634">
<rect width="24" height="24" fill="white"/>
</clipPath>
</defs>
</svg>
