<svg width="24" height="24" viewBox="0 0 24 24" fill="none" xmlns="http://www.w3.org/2000/svg">
<g clip-path="url(#clip0_1047_6514)">
<path d="M7.89 10.57C8.65854 10.7074 9.44053 10.7544 10.22 10.71C10.2998 10.6904 10.3697 10.6426 10.417 10.5754C10.4642 10.5082 10.4856 10.4262 10.477 10.3445C10.4685 10.2628 10.4307 10.1869 10.3706 10.1309C10.3104 10.075 10.2321 10.0427 10.15 10.04C9.43515 9.97625 8.7303 9.82857 8.05 9.59997C6.05 9.19997 2.9 8.85997 2.82 8.83997C2.39 8.83997 2.08 9.41997 2.5 9.57997C4.25513 10.1058 6.06258 10.4378 7.89 10.57Z" fill="black"/>
<path d="M5.69 8.62997C5.67276 8.71882 5.69152 8.81087 5.74216 8.88589C5.79279 8.9609 5.87115 9.01273 5.96 9.02997C6.04885 9.04721 6.1409 9.02845 6.21592 8.97781C6.29093 8.92718 6.34276 8.84882 6.36 8.75997C6.75 7.93997 6.62 8.65997 6.93 7.24997C6.93 6.88997 6.25 6.74997 6.09 7.03997C5.67 7.99997 5.65 7.80997 5.69 8.62997Z" fill="black"/>
<path d="M4.34 17.29C4.2571 17.8966 4.21367 18.5078 4.21 19.12C4.38 19.51 4.77 19.65 4.97 19.19C5.16643 18.7939 5.24289 18.349 5.19 17.91C5.1 17.23 5.08 17.34 5.19 17.35C6.43 17.35 7.67 17.28 8.89 17.35C8.96965 17.3489 9.04638 17.3198 9.10679 17.2679C9.16721 17.216 9.20748 17.1445 9.22058 17.0659C9.23367 16.9874 9.21876 16.9067 9.17845 16.838C9.13814 16.7693 9.07498 16.7169 9 16.69C6.54177 16.2801 4.05199 16.0893 1.56 16.12C1.15 16.12 1.13 16.54 1.47 16.78C2.41688 17.0011 3.37492 17.1714 4.34 17.29Z" fill="black"/>
<path d="M10.66 6.88998C10.56 6.88998 3.72 5.08998 2.3 5.81998C2.16679 5.90657 2.05279 6.01959 1.96506 6.15204C1.87733 6.28449 1.81775 6.43356 1.79 6.58998C0.458945 10.5549 -0.127579 14.7318 0.0599988 18.91C0.449999 20.77 3.67 20.24 9.29 21C9.38017 21 9.46665 20.9642 9.53042 20.9004C9.59418 20.8366 9.63 20.7502 9.63 20.66C9.63 20.5698 9.59418 20.4833 9.53042 20.4196C9.46665 20.3558 9.38017 20.32 9.29 20.32C3.37 19.32 1.69 19.61 1.06 18.86C0.991089 17.383 1.06476 15.9028 1.28 14.44C1.47509 11.8928 1.9616 9.37635 2.73 6.93998C2.73 6.86998 2.87 6.73998 2.82 6.68998C4.38193 6.55061 5.95591 6.64498 7.49 6.96998C10.56 7.51998 10.49 7.44999 10.61 7.58999C11 7.87999 11.61 7.22998 10.66 6.88998Z" fill="black"/>
<path d="M16.67 9.84001C15.9684 10.0026 15.2502 10.0831 14.53 10.08C14.484 10.0637 14.4349 10.0574 14.3863 10.0617C14.3376 10.066 14.2904 10.0808 14.248 10.1049C14.2055 10.1291 14.1688 10.1621 14.1402 10.2018C14.1117 10.2414 14.092 10.2868 14.0826 10.3347C14.0732 10.3826 14.0742 10.432 14.0855 10.4795C14.0969 10.5271 14.1184 10.5716 14.1485 10.61C14.1786 10.6485 14.2167 10.68 14.2601 10.7024C14.3035 10.7249 14.3512 10.7377 14.4 10.74C15.1706 10.8606 15.953 10.8875 16.73 10.82C18.531 10.8651 20.3316 10.7142 22.1 10.37C22.64 10.25 22.6 9.67001 22.1 9.64001C22.07 9.65001 18.7 9.63001 16.67 9.84001Z" fill="black"/>
<path d="M24 12.1C23.903 10.5345 23.662 8.98126 23.28 7.45999C23.2691 7.30097 23.2252 7.14596 23.1512 7.0048C23.0771 6.86364 22.9746 6.73941 22.85 6.63999C21.93 6.03999 18.56 6.36999 17.47 6.50999C14.08 6.93999 14.7 6.82999 14.42 6.89999C13.42 7.14999 14.01 7.84999 14.42 7.56999C14.59 7.43999 14.66 7.47999 17.59 7.24999C17.59 7.24999 20.21 7.13999 21.17 7.24999C22.13 7.35999 22.25 7.24999 22.33 7.67999L22.59 9.11999C22.9869 12.3211 23.0606 15.5541 22.81 18.77C22.73 19.52 22.98 19.91 21.7 20.08C19.63 20.35 17.94 20.18 14.33 20.37C14.2398 20.37 14.1533 20.4058 14.0896 20.4696C14.0258 20.5333 13.99 20.6198 13.99 20.71C13.99 20.8002 14.0258 20.8866 14.0896 20.9504C14.1533 21.0142 14.2398 21.05 14.33 21.05C20.24 20.85 23.15 21.67 23.73 19.89C24 18.7 24.06 13.83 24 12.1Z" fill="black"/>
<path d="M19.56 17.86C20.4883 17.8246 21.4134 17.7311 22.33 17.58C22.78 17.72 22.84 17.16 22.39 16.97C19.915 16.6658 17.4157 16.6122 14.93 16.81C14.8398 16.81 14.7533 16.8458 14.6896 16.9096C14.6258 16.9733 14.59 17.0598 14.59 17.15C14.59 17.2402 14.6258 17.3266 14.6896 17.3904C14.7533 17.4542 14.8398 17.49 14.93 17.49C16.27 17.49 17.83 17.79 18.64 17.83C18.5156 18.4471 18.5156 19.0829 18.64 19.7C18.6642 19.7985 18.7184 19.8871 18.7951 19.9535C18.8718 20.0199 18.9672 20.0608 19.0681 20.0707C19.1691 20.0806 19.2706 20.0589 19.3587 20.0086C19.4468 19.9583 19.5172 19.8819 19.56 19.79C19.699 19.1542 19.699 18.4958 19.56 17.86Z" fill="black"/>
<path d="M18.45 9.17003C18.4684 9.24899 18.5145 9.31877 18.5798 9.36677C18.6452 9.41477 18.7255 9.43783 18.8064 9.43179C18.8873 9.42576 18.9633 9.39103 19.0208 9.33386C19.0783 9.27669 19.1135 9.20085 19.12 9.12003C19.2221 8.58623 19.205 8.03647 19.07 7.51003C19.0219 7.43069 18.9519 7.36698 18.8683 7.32661C18.7848 7.28625 18.6913 7.27096 18.5993 7.2826C18.5072 7.29424 18.4205 7.3323 18.3497 7.39219C18.2788 7.45207 18.2268 7.53121 18.2 7.62003C18.1443 8.14973 18.2305 8.68472 18.45 9.17003Z" fill="black"/>
<path d="M15.56 1.17002C15.56 0.690022 15.11 0.460022 14.63 0.370022C12.9543 0.307878 11.277 0.435354 9.63 0.750022C9.54211 0.793364 9.46446 0.85493 9.40222 0.930623C9.33997 1.00632 9.29457 1.0944 9.26902 1.18901C9.24348 1.28362 9.23838 1.38258 9.25407 1.47932C9.26975 1.57605 9.30587 1.66833 9.36 1.75002C9.48 1.98002 10.17 2.88002 11.46 4.92002C11.85 5.66002 12.39 5.66002 12.59 5.43002C13.622 4.57769 14.4635 3.51816 15.06 2.32002C15.3133 1.98049 15.4845 1.58685 15.56 1.17002ZM14.22 1.88002C13.7783 3.013 13.096 4.03657 12.22 4.88002C11.72 4.16002 10.89 2.24002 10.35 1.54002C10.64 1.54002 11.04 1.61002 11.1 1.60002C15.46 1.36002 14.5 1.34002 14.22 1.88002Z" fill="black"/>
<path d="M12.5 6.21997C12.44 6.15997 12.13 6.11997 11.97 6.48997C11.8505 6.78757 11.747 7.09133 11.66 7.39997C11.5822 8.04483 11.6401 8.69882 11.83 9.31997C11.8437 9.3989 11.8848 9.47045 11.9461 9.52203C12.0074 9.5736 12.0849 9.60188 12.165 9.60188C12.2451 9.60188 12.3226 9.5736 12.3839 9.52203C12.4452 9.47045 12.4863 9.3989 12.5 9.31997C12.7146 8.70413 12.7931 8.04908 12.73 7.39997C12.73 7.39997 12.74 6.40997 12.5 6.21997Z" fill="black"/>
<path d="M12.34 11.27C12.34 11.27 11.87 11.2 11.81 11.59C11.75 11.98 11.65 12.46 11.63 12.59C11.6358 13.242 11.7404 13.8893 11.94 14.51C11.94 14.6002 11.9758 14.6867 12.0396 14.7504C12.1033 14.8142 12.1898 14.85 12.28 14.85C12.3702 14.85 12.4567 14.8142 12.5204 14.7504C12.5842 14.6867 12.62 14.6002 12.62 14.51C12.7966 13.8583 12.8307 13.1761 12.72 12.51C12.6997 12.0713 12.569 11.6448 12.34 11.27Z" fill="black"/>
<path d="M12.5 18.69C12.5942 18.2879 12.6643 17.8805 12.71 17.47C12.6956 16.8749 12.6083 16.2839 12.45 15.71C12.36 15.54 12.28 15.43 12.12 15.48C12.0027 15.5333 11.9019 15.6171 11.828 15.7226C11.7541 15.8282 11.7099 15.9516 11.7 16.08C11.5181 16.9461 11.5594 17.8443 11.82 18.69C11.82 18.7802 11.8558 18.8667 11.9196 18.9304C11.9833 18.9942 12.0698 19.03 12.16 19.03C12.2502 19.03 12.3367 18.9942 12.4004 18.9304C12.4642 18.8667 12.5 18.7802 12.5 18.69Z" fill="black"/>
<path d="M12.51 20.8701C12.21 20.2301 11.84 20.6401 11.79 20.8701C11.5261 21.6678 11.5581 22.5339 11.88 23.3101C11.88 23.4002 11.9158 23.4867 11.9796 23.5505C12.0433 23.6143 12.1298 23.6501 12.22 23.6501C12.3102 23.6501 12.3967 23.6143 12.4604 23.5505C12.5242 23.4867 12.56 23.4002 12.56 23.3101C12.8366 22.5171 12.8189 21.6511 12.51 20.8701Z" fill="black"/>
</g>
<defs>
<clipPath id="clip0_1047_6514">
<rect width="24" height="24" fill="white"/>
</clipPath>
</defs>
</svg>
