<svg width="24" height="24" viewBox="0 0 24 24" fill="none" xmlns="http://www.w3.org/2000/svg">
<g clip-path="url(#clip0_1047_6487)">
<path fill-rule="evenodd" clip-rule="evenodd" d="M16.71 9.49997C16.2009 9.54933 15.7001 9.66359 15.22 9.83998C14.8482 9.98159 14.5083 10.1957 14.22 10.47C13.8893 10.8444 13.6101 11.2615 13.39 11.71C13.2253 11.4172 13.0451 11.1334 12.85 10.86C12.6429 10.5979 12.4006 10.3658 12.13 10.17C11.8086 10.0216 11.4738 9.90437 11.13 9.81997C11.1769 9.35244 11.3199 8.89964 11.55 8.48997C11.7007 8.25583 11.8986 8.05572 12.131 7.90246C12.3635 7.74921 12.6254 7.64618 12.9 7.59997C13.0862 7.54977 13.2773 7.5196 13.47 7.50998C13.6525 7.48465 13.8375 7.48465 14.02 7.50998C14.0699 7.52351 14.122 7.52699 14.1733 7.52021C14.2245 7.51342 14.2739 7.49651 14.3186 7.47045C14.3633 7.4444 14.4023 7.40972 14.4335 7.36843C14.4646 7.32715 14.4872 7.28008 14.5 7.22997C14.5135 7.18007 14.517 7.12796 14.5102 7.0767C14.5034 7.02543 14.4865 6.97603 14.4605 6.93136C14.4344 6.8867 14.3997 6.84766 14.3585 6.81652C14.3172 6.78538 14.2701 6.76276 14.22 6.74997C13.9777 6.67036 13.725 6.62657 13.47 6.61997C13.2271 6.59998 12.9829 6.59998 12.74 6.61997C12.176 6.65606 11.6336 6.85073 11.1754 7.18157C10.7172 7.51241 10.3617 7.96596 10.15 8.48997C10.0164 8.81315 9.9126 9.14788 9.83999 9.48997C9.24999 9.48997 8.65999 9.42997 8.10999 9.39997C8.06509 9.39295 8.01921 9.39527 7.97524 9.4068C7.93127 9.41834 7.89016 9.43883 7.85448 9.46699C7.81881 9.49516 7.78933 9.53039 7.76791 9.57048C7.74649 9.61058 7.73358 9.65466 7.72999 9.69997C7.72297 9.74543 7.72525 9.79185 7.73668 9.8364C7.74811 9.88096 7.76847 9.92273 7.79652 9.95919C7.82456 9.99565 7.85971 10.026 7.89985 10.0485C7.93998 10.071 7.98425 10.0851 8.02999 10.09C8.54999 10.2 9.11999 10.33 9.66999 10.48C9.67482 10.5432 9.67482 10.6067 9.66999 10.67C9.63212 11.3096 9.5111 11.9416 9.31 12.55C9.1546 12.9729 8.89694 13.3508 8.56 13.65C8.17204 13.9668 7.74933 14.2386 7.3 14.46C7.25715 14.4775 7.21821 14.5033 7.18542 14.536C7.15263 14.5687 7.12665 14.6075 7.10898 14.6503C7.09131 14.6931 7.0823 14.739 7.08248 14.7852C7.08265 14.8315 7.092 14.8773 7.10999 14.92C7.12743 14.9616 7.15297 14.9993 7.18513 15.0309C7.21728 15.0626 7.25541 15.0875 7.29729 15.1042C7.33917 15.121 7.38397 15.1292 7.42907 15.1285C7.47417 15.1278 7.51868 15.1181 7.55999 15.1C8.22239 14.8985 8.84491 14.5838 9.39999 14.17C9.81608 13.8714 10.1582 13.4814 10.4 13.03C10.6955 12.3853 10.8975 11.7017 11 11C11.1517 11.0666 11.2987 11.1435 11.44 11.23C11.99 11.61 12.21 12.23 12.61 12.75L12.83 12.97C12.7614 13.1226 12.6704 13.2642 12.56 13.39C12.2677 13.6798 11.8948 13.875 11.49 13.95C11.3866 13.9619 11.2921 14.0144 11.2274 14.096C11.1627 14.1776 11.1331 14.2815 11.145 14.385C11.1569 14.4884 11.2095 14.5829 11.291 14.6476C11.3726 14.7123 11.4766 14.7419 11.58 14.73C11.9836 14.729 12.3821 14.6389 12.7468 14.466C13.1116 14.2931 13.4337 14.0418 13.69 13.73C13.69 13.73 13.69 13.65 13.76 13.62C14.1347 13.8582 14.5336 14.0559 14.95 14.21C15.4211 14.4178 15.9369 14.5038 16.45 14.46C16.5544 14.4498 16.6506 14.3991 16.718 14.3186C16.7853 14.2382 16.8184 14.1345 16.81 14.03C16.7975 13.9266 16.746 13.8318 16.6662 13.765C16.5863 13.6981 16.484 13.6641 16.38 13.67C16.0245 13.6372 15.6818 13.5207 15.38 13.33C15.0237 13.1469 14.6884 12.9256 14.38 12.67C14.44 12.56 14.52 12.48 14.58 12.37C14.7558 11.9586 14.9736 11.5665 15.23 11.2C15.4002 10.9371 15.6296 10.7179 15.9 10.56C16.22 10.3848 16.5546 10.2375 16.9 10.12C16.9454 10.1116 16.9886 10.0943 17.0273 10.0691C17.066 10.0439 17.0993 10.0113 17.1253 9.97322C17.1513 9.93511 17.1695 9.89224 17.1789 9.84706C17.1883 9.80188 17.1887 9.75529 17.18 9.70998C17.1442 9.6208 17.0752 9.54903 16.9875 9.50984C16.8998 9.47065 16.8003 9.46711 16.71 9.49997Z" fill="black"/>
<path fill-rule="evenodd" clip-rule="evenodd" d="M21.83 15.2299C21.5836 15.2149 21.3364 15.2149 21.09 15.2299C20.8487 15.2296 20.6079 15.2497 20.37 15.2899C20.0857 15.35 19.8052 15.4268 19.53 15.5199C19.53 14.6599 19.61 13.8099 19.61 12.9499V12.7399C19.8659 12.8218 20.1263 12.8886 20.39 12.9399C20.6153 12.9715 20.8425 12.9882 21.07 12.9899H21.76C21.9479 12.9731 22.1349 12.9464 22.32 12.9099C22.4206 12.8575 22.505 12.7786 22.5638 12.6816C22.6227 12.5846 22.6538 12.4734 22.6538 12.3599C22.6538 12.2465 22.6227 12.1352 22.5638 12.0382C22.505 11.9412 22.4206 11.8623 22.32 11.8099L21.79 11.7399H21.12C20.9002 11.725 20.6797 11.725 20.46 11.7399L19.62 11.8299V9.05991V8.05991C19.92 8.05991 20.22 8.16991 20.53 8.19991C20.7364 8.21497 20.9436 8.21497 21.15 8.19991H21.76C22.04 8.19991 22.15 8.09991 22.43 8.04991C22.84 7.83991 22.81 7.04991 22.31 7.04991C22.1249 7.01346 21.9379 6.98676 21.75 6.96991C21.5369 6.95495 21.3231 6.95495 21.11 6.96991C20.9036 6.95467 20.6964 6.95467 20.49 6.96991C20.1862 7.02673 19.8857 7.10017 19.59 7.18991C19.54 6.02991 19.46 5.23991 19.43 4.07991C19.4154 3.99097 19.3697 3.9101 19.301 3.85174C19.2323 3.79339 19.1451 3.76135 19.055 3.76135C18.9649 3.76135 18.8777 3.79339 18.809 3.85174C18.7403 3.9101 18.6946 3.99097 18.68 4.07991C18.51 6.07991 18.39 7.76991 18.37 9.78991C18.37 11.1099 18.37 12.4399 18.45 13.7899C18.54 16.5199 18.66 17.7899 18.71 19.7099C18.7073 19.7615 18.7151 19.813 18.733 19.8615C18.7508 19.9099 18.7784 19.9542 18.814 19.9916C18.8495 20.0291 18.8923 20.0589 18.9398 20.0792C18.9873 20.0995 19.0384 20.11 19.09 20.1099C19.1944 20.1127 19.2958 20.0744 19.3724 20.0034C19.449 19.9324 19.4948 19.8342 19.5 19.7299C19.55 18.7299 19.56 17.6699 19.6 16.6499C19.92 16.6499 20.23 16.7099 20.6 16.7199C20.97 16.7299 21.07 16.7199 21.3 16.7199C21.53 16.7199 21.76 16.7199 22 16.6599C22.1102 16.6562 22.218 16.6262 22.3142 16.5723C22.4104 16.5184 22.4923 16.4423 22.553 16.3502C22.6137 16.2581 22.6515 16.1529 22.6632 16.0432C22.6748 15.9335 22.66 15.8227 22.62 15.7199C22.5675 15.558 22.4593 15.42 22.3147 15.3303C22.1701 15.2406 21.9983 15.2051 21.83 15.2299Z" fill="black"/>
<path fill-rule="evenodd" clip-rule="evenodd" d="M23.51 20.9999C23.51 18.9999 24.19 10.9999 24.01 6.49995C23.9964 5.44616 23.8519 4.39814 23.58 3.37995C23.5251 3.17022 23.4287 2.97365 23.2964 2.80188C23.1641 2.63011 22.9987 2.48663 22.81 2.37995C20.694 2.15912 18.5632 2.11564 16.44 2.24995C11.12 2.38995 4 2.81995 2.2 2.86995C2.11858 2.88386 2.0447 2.92613 1.99143 2.98926C1.93817 3.0524 1.90895 3.13234 1.90895 3.21495C1.90895 3.29755 1.93817 3.3775 1.99143 3.44063C2.0447 3.50377 2.11858 3.54604 2.2 3.55995C5.11 3.55995 21.48 3.44995 22.2 3.55995C22.2888 3.73453 22.3657 3.91494 22.43 4.09995C23.14 6.93995 22.63 14.5899 22.72 20.9399C19.18 20.7399 12.72 20.7999 7.84 20.5199C6.28203 20.4274 4.72993 20.2538 3.19 19.9999C2.49 19.8499 1.97 19.7499 1.81 19.4899C1.65 19.2299 0.81 19.5899 1.44 3.18995C1.44275 3.09877 1.4098 3.01012 1.34816 2.94288C1.28653 2.87564 1.20107 2.83512 1.11 2.82995C1.06426 2.82435 1.01785 2.8284 0.973766 2.84182C0.929682 2.85525 0.888899 2.87776 0.854043 2.90791C0.819188 2.93805 0.791032 2.97516 0.77139 3.01685C0.751748 3.05854 0.741055 3.10388 0.74 3.14995C0.61 4.72995 0 10.5199 0 14.9199C0 17.4099 0.22 19.4699 0.69 20.2199C0.936575 20.5707 1.286 20.8363 1.69 20.9799C2.89354 21.3738 4.14495 21.6026 5.41 21.6599C10.57 22.0699 18.93 21.5999 22.93 21.7399C22.93 21.7399 23.01 21.7899 23.05 21.7399C23.09 21.6899 23.1 21.7399 23.13 21.7399H23.42C23.4712 21.744 23.5228 21.738 23.5717 21.7221C23.6206 21.7062 23.6658 21.6808 23.7049 21.6473C23.7439 21.6138 23.7759 21.573 23.7991 21.5271C23.8223 21.4812 23.8362 21.4312 23.84 21.3799C23.8368 21.2884 23.8023 21.2007 23.7423 21.1315C23.6822 21.0624 23.6002 21.0159 23.51 20.9999Z" fill="black"/>
<path fill-rule="evenodd" clip-rule="evenodd" d="M2.22 8.10989C2.42305 8.12497 2.62694 8.12497 2.83 8.10989H3.44L4.44 7.95989V9.35989C4.44 10.1899 4.44 11.0199 4.5 11.8599C4.19 11.8099 3.88 11.7499 3.57 11.7199C3.26 11.6899 3.12 11.7199 2.9 11.7199C2.68025 11.7049 2.45974 11.7049 2.24 11.7199C1.96 11.7199 1.96 11.7199 1.7 11.7799C1.60213 11.8346 1.52063 11.9144 1.46389 12.011C1.40715 12.1077 1.37724 12.2178 1.37724 12.3299C1.37724 12.442 1.40715 12.5521 1.46389 12.6487C1.52063 12.7454 1.60213 12.8252 1.7 12.8799C1.86999 12.9309 2.04392 12.9677 2.22 12.9899C2.44867 13.0215 2.67916 13.0382 2.91 13.0399H3.6C3.83 13.0399 4.24 12.9499 4.55 12.8999V13.9699C4.55 14.4799 4.55 14.9699 4.63 15.5099C4.3 15.4499 3.97 15.3799 3.63 15.3399C3.38689 15.3249 3.1431 15.3249 2.9 15.3399C2.65542 15.3396 2.41124 15.3596 2.17 15.3999C2.03327 15.4178 1.89906 15.4513 1.77 15.4999C1.35 15.5599 1.29 16.4999 1.77 16.6299C1.94319 16.6398 2.11681 16.6398 2.29 16.6299H2.99C3.22 16.6299 3.45 16.6299 3.68 16.5699L4.68 16.4599C4.75 17.6499 4.77 18.5799 4.83 19.7699C4.83 20.2799 5.64 20.4199 5.67 19.9299C5.74 17.8299 5.86 16.0099 5.84 13.9299C5.84 12.4199 5.72 10.9299 5.68 9.39989C5.58 8.06989 5.37 6.71989 5.32 5.39989C5.26408 4.93523 5.25738 4.46596 5.3 3.99989C5.3 3.51989 4.72 3.51989 4.6 3.99989C4.4909 4.61383 4.43735 5.23635 4.44 5.85989V6.99989C4.1105 6.92259 3.77653 6.86582 3.44 6.82989C3.22693 6.8147 3.01306 6.8147 2.8 6.82989C2.59358 6.81545 2.38641 6.81545 2.18 6.82989C2.01986 6.87645 1.86287 6.93324 1.71 6.99989C1.63657 7.06089 1.57747 7.13731 1.53691 7.22373C1.49635 7.31014 1.47533 7.40443 1.47533 7.49989C1.47533 7.59535 1.49635 7.68964 1.53691 7.77606C1.57747 7.86247 1.63657 7.9389 1.71 7.99989C1.93 7.99989 2 8.08989 2.22 8.10989Z" fill="black"/>
</g>
<defs>
<clipPath id="clip0_1047_6487">
<rect width="24" height="24" fill="white"/>
</clipPath>
</defs>
</svg>
