<svg width="24" height="24" viewBox="0 0 24 24" fill="none" xmlns="http://www.w3.org/2000/svg">
<path fill-rule="evenodd" clip-rule="evenodd" d="M22.39 17.87C22.2899 16.3884 21.9974 14.9261 21.52 13.52C21.1746 12.5334 20.6106 11.6377 19.87 10.9C19.6062 10.6556 19.3016 10.4593 18.97 10.32C18.5328 10.1442 18.0811 10.007 17.62 9.90997C16.7874 9.70442 15.9367 9.5805 15.08 9.53997C13.85 9.47997 12.62 9.53997 11.35 9.53997H9.54C8.79805 9.55453 8.06144 9.66889 7.35 9.87997C6.58095 9.98476 5.82618 10.176 5.1 10.45C4.57257 10.6561 4.09772 10.9772 3.71 11.39C3.34417 11.8072 3.04099 12.2754 2.81 12.78C2.47083 13.4929 2.19963 14.2362 2 15L1.69 16.72L1.51 18.22V19.29C1.48841 20.4744 1.75978 21.6457 2.3 22.7C2.51144 23.128 2.88181 23.4565 3.33206 23.6153C3.78231 23.7741 4.27679 23.7507 4.71 23.55C5.07264 23.3991 5.40992 23.1934 5.71 22.94C6.20969 22.4754 6.67742 21.9776 7.11 21.45C7.43507 21.5408 7.77462 21.568 8.11 21.53C8.60031 21.424 9.0497 21.1791 9.4044 20.8244C9.7591 20.4697 10.0041 20.0203 10.11 19.53C10.4857 19.6291 10.8662 19.7092 11.25 19.77C11.4197 19.7849 11.5903 19.7849 11.76 19.77L12.26 19.72C12.61 19.67 12.95 19.59 13.26 19.51C13.4285 20.1097 13.8098 20.6274 14.3326 20.9661C14.8554 21.3048 15.4838 21.4413 16.1 21.35C16.3249 21.3104 16.5414 21.2326 16.74 21.12C17.0381 21.643 17.4047 22.1239 17.83 22.55C18.2681 22.9943 18.7745 23.3657 19.33 23.65C19.6912 23.8456 20.1001 23.9357 20.51 23.91C20.8247 23.8653 21.1143 23.7135 21.33 23.48C21.8851 22.8457 22.2339 22.0574 22.33 21.22C22.4743 20.109 22.4944 18.9854 22.39 17.87ZM9.12 19.14C9.07305 19.4317 8.94211 19.7033 8.7432 19.9218C8.54429 20.1402 8.28602 20.296 8 20.37C7.747 20.4118 7.48744 20.3868 7.24711 20.2973C7.00678 20.2079 6.79403 20.0571 6.63 19.86C6.44435 19.6737 6.31493 19.4389 6.25656 19.1824C6.1982 18.926 6.21325 18.6583 6.3 18.41C6.36453 18.1961 6.47157 17.9974 6.61471 17.8259C6.75785 17.6543 6.93415 17.5135 7.13303 17.4117C7.33192 17.3099 7.54931 17.2493 7.77216 17.2336C7.99502 17.2178 8.21877 17.2472 8.43 17.32C8.53101 17.3389 8.62661 17.3799 8.71 17.44C8.94505 17.6466 9.11057 17.9208 9.18396 18.2251C9.25734 18.5294 9.235 18.8489 9.12 19.14ZM17.12 19.03C17.0707 19.3207 16.9389 19.5912 16.7404 19.8092C16.5418 20.0272 16.2849 20.1837 16 20.26C15.747 20.3018 15.4874 20.2768 15.2471 20.1873C15.0068 20.0979 14.794 19.9471 14.63 19.75C14.4435 19.5621 14.3136 19.3256 14.2553 19.0674C14.1969 18.8092 14.2124 18.5398 14.3 18.29C14.3771 18.0545 14.5042 17.8385 14.6725 17.6567C14.8409 17.4749 15.0465 17.3316 15.2754 17.2366C15.5042 17.1416 15.7509 17.0972 15.9985 17.1065C16.2461 17.1157 16.4888 17.1783 16.71 17.29C16.9471 17.4974 17.1139 17.7733 17.1874 18.0797C17.2608 18.386 17.2373 18.7076 17.12 19V19.03ZM21.39 21.16C21.3564 21.8067 21.1261 22.4277 20.73 22.94C20.6831 22.9953 20.6249 23.0399 20.5594 23.071C20.4939 23.102 20.4225 23.1187 20.35 23.12C20.1448 23.1129 19.9436 23.0617 19.76 22.97C19.2753 22.7457 18.8296 22.4452 18.44 22.08C18.0531 21.7054 17.7169 21.2818 17.44 20.82C17.8609 20.408 18.1468 19.8779 18.26 19.3C18.3897 18.8032 18.3633 18.2785 18.1844 17.7972C18.0055 17.3159 17.6828 16.9014 17.26 16.61C17.1124 16.5209 16.9497 16.4599 16.78 16.43C16.1543 16.3108 15.507 16.3939 14.9317 16.6672C14.3564 16.9405 13.883 17.3897 13.58 17.95C13.43 18.2309 13.3446 18.5418 13.33 18.86C13.01 18.86 12.69 18.75 12.33 18.72H11.83C11.6635 18.71 11.4965 18.71 11.33 18.72C10.97 18.78 10.63 18.87 10.33 18.96C10.3772 18.5251 10.3032 18.0857 10.1161 17.6904C9.92901 17.295 9.63617 16.9592 9.27 16.72C9.12244 16.6309 8.95971 16.5699 8.79 16.54C8.15591 16.382 7.48726 16.4397 6.88966 16.7041C6.29206 16.9685 5.79957 17.4245 5.49 18C5.28615 18.4028 5.20318 18.856 5.25109 19.3049C5.29899 19.7538 5.47573 20.1792 5.76 20.53C5.9455 20.7621 6.16859 20.9616 6.42 21.12C6.11 21.44 5.8 21.77 5.42 22.12C5.13086 22.3906 4.79099 22.6013 4.42 22.74C4.18439 22.8258 3.92514 22.82 3.69362 22.7237C3.4621 22.6274 3.27521 22.4476 3.17 22.22C2.77351 21.318 2.60522 20.3324 2.68 19.35L2.74 18.35L2.92 16.91L3.2 15.3C3.34588 14.5943 3.54991 13.902 3.81 13.23C3.96829 12.7917 4.18707 12.3777 4.46 12C4.73291 11.6681 5.07394 11.3986 5.46 11.21C6.10935 10.9406 6.77786 10.72 7.46 10.55C7.81508 10.4246 8.17956 10.3276 8.55 10.26C9.46535 10.1906 10.3846 10.1906 11.3 10.26C13.3169 10.2406 15.3296 10.4486 17.3 10.88C17.6985 10.9911 18.0893 11.1281 18.47 11.29C18.6788 11.3858 18.8712 11.5141 19.04 11.67C19.6383 12.3015 20.0921 13.0556 20.37 13.88C20.8203 15.1728 21.1092 16.5163 21.23 17.88C21.4155 18.9628 21.4692 20.0642 21.39 21.16Z" fill="black"/>
<path fill-rule="evenodd" clip-rule="evenodd" d="M14.75 10.89C14.6549 11.3755 14.5245 11.8534 14.36 12.32C14.2521 12.6558 14.051 12.9541 13.78 13.18C13.6493 13.255 13.5007 13.293 13.35 13.29C12.95 13.29 12.52 13.29 12.21 13.34L10.84 13.48C10.5804 13.5015 10.3195 13.5015 10.06 13.48C9.84241 13.485 9.62568 13.4511 9.41999 13.38C9.1049 13.1876 8.87307 12.8845 8.76999 12.53C8.55692 11.9058 8.40291 11.263 8.30999 10.61C8.19999 10.32 7.70999 10.47 7.67999 10.71C7.68607 11.5532 7.81062 12.3914 8.04999 13.2C8.20513 13.658 8.50753 14.0518 8.90999 14.32C9.17813 14.4728 9.47376 14.5714 9.77999 14.61C10.1754 14.6548 10.5746 14.6548 10.97 14.61L12.41 14.45C12.76 14.38 13.29 14.39 13.73 14.28C13.9993 14.2164 14.2495 14.0896 14.46 13.91C14.8384 13.5309 15.1019 13.0524 15.22 12.53C15.3248 12.025 15.3983 11.514 15.44 11C15.4487 10.9112 15.4232 10.8225 15.3687 10.752C15.3142 10.6814 15.2348 10.6343 15.1468 10.6203C15.0587 10.6063 14.9686 10.6263 14.8949 10.6765C14.8212 10.7266 14.7693 10.8029 14.75 10.89Z" fill="black"/>
<path fill-rule="evenodd" clip-rule="evenodd" d="M2.99999 5.44998L2.80999 5.57998C2.69225 5.70419 2.59443 5.84586 2.51999 5.99998C2.41997 6.13684 2.34234 6.28874 2.28999 6.44998C2.16503 6.8102 2.10082 7.18869 2.09999 7.56998C2.08985 7.61732 2.08937 7.66623 2.09857 7.71377C2.10777 7.76131 2.12647 7.8065 2.15355 7.84665C2.18062 7.88679 2.21552 7.92106 2.25614 7.94741C2.29677 7.97375 2.3423 7.99163 2.38999 7.99998C2.43676 8.00851 2.48477 8.00742 2.53111 7.99679C2.57744 7.98615 2.62112 7.96619 2.65949 7.93812C2.69785 7.91005 2.7301 7.87445 2.75425 7.83351C2.77841 7.79257 2.79397 7.74713 2.79999 7.69998C2.86728 7.53528 2.95104 7.37782 3.04999 7.22998C3.13999 7.08998 3.25999 6.96997 3.35999 6.82998L3.63999 6.41998C3.74999 6.23998 3.83999 6.05998 3.93999 5.87998C4.20812 5.94983 4.4831 5.99007 4.75999 5.99998C5.18267 5.99593 5.60173 5.92159 5.99999 5.77998C6.14999 6.00998 6.26999 6.23998 6.42999 6.45998C6.58999 6.67998 6.67999 6.74998 6.80999 6.88998C7.02832 7.09259 7.22904 7.31338 7.40999 7.54998C7.44559 7.6366 7.51354 7.70593 7.59943 7.74327C7.68531 7.78062 7.78237 7.78302 7.86999 7.74998C7.95588 7.71644 8.02507 7.65036 8.06252 7.5661C8.09997 7.48184 8.10265 7.3862 8.06999 7.29998C8.01324 6.95137 7.90187 6.61389 7.73999 6.29998C7.67577 6.15867 7.59158 6.02733 7.48999 5.90998C7.3985 5.79205 7.29077 5.68767 7.16999 5.59998C7.04512 5.50382 6.91115 5.42008 6.76999 5.34998C6.90005 5.24751 7.01753 5.13003 7.11999 4.99998C7.43622 4.53452 7.61516 3.98951 7.63638 3.4272C7.6576 2.86488 7.52024 2.30794 7.23999 1.81998C7.08071 1.44442 6.83228 1.11334 6.51623 0.855414C6.20018 0.597487 5.82602 0.42048 5.42615 0.339718C5.02629 0.258957 4.61276 0.276875 4.22138 0.391922C3.83 0.506968 3.47255 0.715676 3.17999 0.999975C2.52421 1.58837 2.10481 2.39518 1.99999 3.26997C1.96661 3.64095 2.01967 4.01461 2.15501 4.36162C2.29034 4.70863 2.50427 5.01955 2.77999 5.26998L2.99999 5.44998ZM3.49999 1.80997C3.66194 1.54344 3.89782 1.32967 4.17897 1.19466C4.46011 1.05965 4.77442 1.0092 5.08369 1.04945C5.39297 1.0897 5.68389 1.21891 5.92112 1.42138C6.15834 1.62385 6.33166 1.89086 6.41999 2.18998C6.58165 2.52142 6.64853 2.8911 6.61324 3.25817C6.57794 3.62524 6.44185 3.97541 6.21999 4.26997C6.04761 4.4527 5.83042 4.58715 5.58999 4.65998C5.32795 4.76025 5.05051 4.81438 4.76999 4.81998C4.32467 4.82082 3.8918 4.67301 3.53999 4.39998C3.37356 4.26858 3.23868 4.10157 3.14523 3.91122C3.05179 3.72087 3.00216 3.51201 2.99999 3.29997C3.01278 2.76428 3.18705 2.24494 3.49999 1.80997Z" fill="black"/>
<path fill-rule="evenodd" clip-rule="evenodd" d="M10.21 5.35993L10.01 5.50993C9.88743 5.61856 9.77982 5.74298 9.69 5.87993C9.59948 6.02594 9.5225 6.17992 9.46 6.33993C9.32908 6.70876 9.26804 7.09875 9.28 7.48993C9.27132 7.53525 9.27168 7.58184 9.28107 7.62702C9.29046 7.6722 9.3087 7.71507 9.33472 7.75318C9.36074 7.79128 9.39404 7.82386 9.43271 7.84905C9.47137 7.87424 9.51463 7.89153 9.56 7.89993C9.60738 7.91325 9.65704 7.91642 9.70573 7.90923C9.75442 7.90205 9.80105 7.88469 9.84257 7.85826C9.88409 7.83184 9.91958 7.79695 9.9467 7.75589C9.97383 7.71482 9.99199 7.6685 10 7.61993C10.0713 7.46035 10.1549 7.30655 10.25 7.15993C10.34 7.00993 10.46 6.89993 10.56 6.74993C10.6613 6.6189 10.7548 6.48199 10.84 6.33993C10.96 6.15993 11.05 5.97993 11.16 5.78993C11.4235 5.86546 11.6959 5.90581 11.97 5.90993C12.3831 5.90797 12.7926 5.8335 13.18 5.68993C13.32 5.91993 13.45 6.15993 13.61 6.37993C13.7321 6.53338 13.8623 6.68025 14 6.81993C14.2178 7.02304 14.4185 7.24379 14.6 7.47993C14.6155 7.52331 14.6396 7.56308 14.6709 7.59685C14.7022 7.63061 14.7401 7.65767 14.7821 7.67637C14.8242 7.69507 14.8697 7.70503 14.9157 7.70565C14.9617 7.70626 15.0074 7.69751 15.05 7.67993C15.1366 7.64434 15.206 7.57638 15.2433 7.4905C15.2806 7.40462 15.283 7.30756 15.25 7.21993C15.191 6.87318 15.0833 6.53651 14.93 6.21993C14.7897 5.95018 14.5957 5.71197 14.36 5.51993C14.2268 5.42564 14.0864 5.34205 13.94 5.26993C14.0833 5.16487 14.2112 5.04034 14.32 4.89993C14.6378 4.43544 14.8185 3.89092 14.8415 3.32859C14.8644 2.76627 14.7288 2.20882 14.45 1.71993C14.2882 1.34124 14.0363 1.00778 13.7163 0.748507C13.3964 0.489237 13.0179 0.311997 12.6139 0.232178C12.2099 0.152359 11.7925 0.172375 11.398 0.290487C11.0034 0.408599 10.6437 0.621237 10.35 0.909935C9.69933 1.49683 9.28362 2.29983 9.18 3.16993C9.14425 3.5411 9.19621 3.91547 9.3317 4.26287C9.46718 4.61027 9.6824 4.92097 9.96 5.16993C10.039 5.23877 10.1225 5.30225 10.21 5.35993ZM10.67 1.71993C10.8291 1.4494 11.0643 1.23163 11.3462 1.09373C11.6281 0.955839 11.9444 0.903912 12.2556 0.944415C12.5669 0.984917 12.8593 1.11606 13.0966 1.32152C13.3338 1.52698 13.5054 1.79769 13.59 2.09993C13.7497 2.43014 13.8155 2.79789 13.7802 3.16297C13.7449 3.52806 13.6099 3.87641 13.39 4.16993C13.2231 4.35669 13.0089 4.49489 12.77 4.56993C12.5051 4.67112 12.2236 4.72199 11.94 4.71993C11.4972 4.73459 11.0641 4.58901 10.72 4.30993C10.5523 4.17905 10.4159 4.01238 10.3207 3.82208C10.2256 3.63178 10.1741 3.42265 10.17 3.20993C10.1876 2.6751 10.3614 2.15712 10.67 1.71993Z" fill="black"/>
<path fill-rule="evenodd" clip-rule="evenodd" d="M17.48 5.18995L17.26 5.34995C17.1317 5.45954 17.0205 5.58761 16.93 5.72995C16.8369 5.86947 16.7629 6.02081 16.71 6.17995C16.5751 6.55145 16.5107 6.94484 16.52 7.33995C16.5051 7.43117 16.5259 7.52462 16.578 7.60094C16.6301 7.67726 16.7096 7.73062 16.8 7.74995C16.8927 7.76768 16.9887 7.74827 17.0673 7.69589C17.1458 7.64352 17.2007 7.56238 17.22 7.46995C17.2811 7.30244 17.3652 7.14425 17.47 6.99995C17.56 6.84995 17.68 6.73995 17.78 6.59995L18.06 6.18995C18.18 5.99995 18.28 5.79995 18.39 5.60995C18.6489 5.67503 18.9134 5.71521 19.18 5.72995C19.5899 5.71958 19.9953 5.64188 20.38 5.49995C20.53 5.74995 20.66 5.98995 20.83 6.21995C20.9488 6.37326 21.0756 6.52014 21.21 6.65995C21.428 6.86283 21.6287 7.0836 21.81 7.31995C21.8265 7.36368 21.8517 7.40365 21.8839 7.4375C21.9162 7.47135 21.9549 7.4984 21.9978 7.51704C22.0407 7.53568 22.0868 7.54555 22.1336 7.54605C22.1803 7.54655 22.2267 7.53767 22.27 7.51995C22.3559 7.48641 22.4251 7.42033 22.4625 7.33607C22.5 7.25181 22.5027 7.15618 22.47 7.06995C22.4111 6.72188 22.2998 6.38473 22.14 6.06995C22.0696 5.9352 21.9859 5.80789 21.89 5.68995C21.8012 5.56961 21.6931 5.46485 21.57 5.37995C21.4351 5.27711 21.2912 5.18674 21.14 5.10995C21.29 4.99825 21.4245 4.86711 21.54 4.71995C21.8497 4.25188 22.0247 3.70764 22.0459 3.14678C22.067 2.58591 21.9335 2.03003 21.66 1.53995C20.1 -1.39005 16.66 0.349951 16.42 2.99995C16.3866 3.37092 16.4397 3.74458 16.575 4.0916C16.7103 4.43861 16.9243 4.74953 17.2 4.99995C17.2896 5.06864 17.3831 5.13208 17.48 5.18995ZM20.83 1.90995C20.995 2.24172 21.0647 2.61283 21.0311 2.98187C20.9976 3.35092 20.8622 3.70338 20.64 3.99995C20.4676 4.18268 20.2504 4.31713 20.01 4.38995C19.7479 4.49022 19.4705 4.54436 19.19 4.54995C18.7572 4.53918 18.3397 4.38829 18 4.11995C17.8236 3.99056 17.6794 3.82216 17.5788 3.62788C17.4782 3.4336 17.4239 3.2187 17.42 2.99995C17.4 0.889951 19.9 -0.220049 20.83 1.90995Z" fill="black"/>
</svg>
