<svg width="24" height="24" viewBox="0 0 24 24" fill="none" xmlns="http://www.w3.org/2000/svg">
<g clip-path="url(#clip0_1030_2817)">
<path d="M4.45002 17.48C4.31002 17.26 4.14002 17.06 3.99002 16.86C3.84622 16.6816 3.69265 16.5114 3.53002 16.35C3.429 16.2518 3.31022 16.1738 3.18002 16.12C3.14543 16.1012 3.10739 16.0897 3.06821 16.0861C3.02902 16.0825 2.98952 16.0869 2.9521 16.0991C2.91468 16.1113 2.88013 16.1309 2.85054 16.1569C2.82096 16.1828 2.79696 16.2145 2.78002 16.25C2.66002 16.49 2.78002 16.36 3.14002 17.36C3.20002 17.51 3.25002 17.68 3.32002 17.83C3.43858 18.0661 3.57921 18.2904 3.74002 18.5C4.02243 18.8663 4.35974 19.1867 4.74002 19.45C4.77086 19.4827 4.80806 19.5087 4.84933 19.5265C4.8906 19.5443 4.93507 19.5535 4.98002 19.5535C5.02496 19.5535 5.06943 19.5443 5.1107 19.5265C5.15197 19.5087 5.18917 19.4827 5.22002 19.45C5.28352 19.3863 5.31918 19.3 5.31918 19.21C5.31918 19.12 5.28352 19.0337 5.22002 18.97C5.01563 18.6504 4.83514 18.3162 4.68002 17.97C4.6145 17.8017 4.53766 17.6379 4.45002 17.48Z" fill="black"/>
<path d="M18.67 17.32C18.53 17.1 18.36 16.9 18.21 16.7C18.0662 16.5216 17.9127 16.3514 17.75 16.19C17.6499 16.0928 17.5352 16.0118 17.41 15.95C17.3369 15.9152 17.2531 15.9103 17.1765 15.9365C17.0999 15.9626 17.0365 16.0177 17 16.09C16.9656 16.1616 16.9611 16.244 16.9873 16.3189C17.0135 16.3939 17.0685 16.4554 17.14 16.49L17.36 17.19C17.42 17.35 17.47 17.52 17.54 17.67C17.6586 17.9061 17.7992 18.1304 17.96 18.34C18.2424 18.7063 18.5797 19.0267 18.96 19.29C19.0248 19.3476 19.1092 19.3783 19.1959 19.3757C19.2825 19.3732 19.365 19.3376 19.4263 19.2763C19.4876 19.215 19.5232 19.1325 19.5257 19.0459C19.5283 18.9592 19.4976 18.8748 19.44 18.81C19.2339 18.4931 19.0565 18.1585 18.91 17.81C18.8441 17.6401 18.7638 17.4762 18.67 17.32Z" fill="black"/>
<path d="M5.33001 16.22C5.44419 16.4438 5.58161 16.655 5.74001 16.85C5.99583 17.1173 6.28884 17.3463 6.61001 17.53C6.67482 17.5876 6.7592 17.6183 6.84587 17.6157C6.93254 17.6132 7.01497 17.5776 7.07628 17.5163C7.1376 17.455 7.17317 17.3725 7.17572 17.2859C7.17827 17.1992 7.14761 17.1148 7.09001 17.05C6.91001 16.77 6.81001 16.47 6.64001 16.19C6.47001 15.91 6.40001 15.85 6.30001 15.68C6.20001 15.51 5.88001 15.18 5.74001 15.03L5.64001 14.9C5.43001 14.77 5.29001 14.79 5.23001 14.9C5.17001 15.01 5.00001 14.86 5.33001 16.22Z" fill="black"/>
<path d="M20 16.69C20.2579 16.955 20.5505 17.1838 20.87 17.37C20.9366 17.4319 21.0241 17.4662 21.115 17.4662C21.2059 17.4662 21.2934 17.4319 21.36 17.37C21.4235 17.3063 21.4592 17.22 21.4592 17.13C21.4592 17.04 21.4235 16.9537 21.36 16.89C21.18 16.61 21.07 16.31 20.9 16.03C20.73 15.75 20.66 15.69 20.56 15.52L20 14.86C19.94 14.8 19.92 14.75 19.9 14.74C19.69 14.61 19.56 14.63 19.49 14.74C19.42 14.85 19.26 14.74 19.6 16.08C19.7102 16.2976 19.8444 16.5022 20 16.69Z" fill="black"/>
<path d="M22.18 12.87L22 12.68C21.6366 12.3916 21.218 12.1806 20.77 12.06C19.8937 11.8466 18.9898 11.769 18.09 11.83C17.4487 11.8649 16.8203 12.0245 16.24 12.3C15.175 12.9098 14.347 13.8611 13.89 15C13.75 14.56 13.62 14.1 13.54 13.84C13.4834 13.6509 13.3803 13.4789 13.24 13.34C13.1358 13.2797 13.0199 13.2422 12.9 13.23C12.5683 13.1885 12.2343 13.1684 11.9 13.17C11.5586 13.1586 11.2184 13.2164 10.9 13.34C10.7774 13.4302 10.6724 13.542 10.59 13.67C10.424 13.9893 10.2901 14.3243 10.19 14.67C10.11 14.93 10.04 15.21 9.98001 15.47C9.3756 14.1614 8.30636 13.1243 6.98001 12.56C6.21255 12.2933 5.39167 12.2177 4.58841 12.3397C3.78516 12.4617 3.02372 12.7776 2.37001 13.26C2.33179 13.2835 2.29861 13.3144 2.27237 13.3508C2.24613 13.3872 2.22736 13.4284 2.21713 13.4721C2.20691 13.5158 2.20543 13.5611 2.21279 13.6053C2.22015 13.6496 2.2362 13.692 2.26001 13.73C2.30768 13.8068 2.38323 13.8623 2.47085 13.8846C2.55847 13.907 2.65134 13.8946 2.73001 13.85C3.29348 13.4539 3.94552 13.2021 4.62897 13.1167C5.31241 13.0312 6.00638 13.1148 6.65001 13.36C7.25303 13.6594 7.78742 14.0806 8.21944 14.5969C8.65146 15.1133 8.97172 15.7136 9.16001 16.36C9.28137 16.9863 9.23829 17.6333 9.03498 18.238C8.83168 18.8426 8.47509 19.3843 8.00001 19.81C7.52804 20.2848 6.94598 20.6355 6.30567 20.8309C5.66536 21.0263 4.98666 21.0604 4.33001 20.93C3.50329 20.7277 2.74019 20.3221 2.11001 19.75C1.44938 19.2031 0.985802 18.455 0.790009 17.62C0.709482 17.1355 0.743733 16.6389 0.890009 16.17C1.03655 15.6801 1.25565 15.215 1.54001 14.79C1.5645 14.7584 1.58219 14.7221 1.59197 14.6833C1.60175 14.6445 1.6034 14.6041 1.59683 14.5647C1.59026 14.5252 1.5756 14.4876 1.55377 14.4541C1.53195 14.4206 1.50343 14.392 1.47001 14.37C1.43789 14.3469 1.40151 14.3303 1.36296 14.3213C1.32442 14.3123 1.28448 14.3111 1.24544 14.3176C1.2064 14.3241 1.16903 14.3382 1.13549 14.3593C1.10195 14.3803 1.0729 14.4077 1.05001 14.44C0.697229 14.9126 0.423658 15.4395 0.240009 16C0.0255817 16.5534 -0.0566021 17.1492 9.39332e-06 17.74C0.15522 18.7593 0.644069 19.6983 1.39001 20.41C2.11155 21.1522 3.00955 21.6992 4.00001 22C4.83359 22.1925 5.7021 22.1735 6.52647 21.9447C7.35084 21.7159 8.10489 21.2846 8.72001 20.69C9.28651 20.197 9.73052 19.5789 10.0169 18.8846C10.3033 18.1904 10.4242 17.439 10.37 16.69C10.68 16.49 10.2 16.69 10.95 15.2C11.51 14.07 11.05 14.2 12.58 14.29C12.82 14.79 13.25 15.71 13.51 16.17C13.51 16.32 13.45 16.47 13.43 16.62C13.2746 17.5171 13.4222 18.4403 13.8495 19.2442C14.2768 20.0482 14.9595 20.687 15.79 21.06C16.198 21.2332 16.6239 21.3606 17.06 21.44C17.6841 21.5576 18.3156 21.6311 18.95 21.66C19.44 21.66 19.95 21.71 20.49 21.66C20.8478 21.6425 21.203 21.5889 21.55 21.5C21.6361 21.4764 21.7099 21.4208 21.7564 21.3446C21.8029 21.2684 21.8185 21.1773 21.8 21.09C21.7786 20.9999 21.7224 20.922 21.6437 20.8733C21.565 20.8245 21.4702 20.809 21.38 20.83C21.0779 20.8979 20.7696 20.9348 20.46 20.94C19.97 20.94 19.46 20.89 19.01 20.85C18.4147 20.7992 17.8234 20.709 17.24 20.58C16.8701 20.4944 16.5111 20.3669 16.17 20.2C15.5511 19.8815 15.0541 19.3682 14.7559 18.7393C14.4577 18.1104 14.3748 17.4007 14.52 16.72C14.6019 16.0188 14.8438 15.3457 15.2269 14.7528C15.6101 14.1598 16.1244 13.6628 16.73 13.3C17.2943 13.0518 17.9036 12.9224 18.52 12.92C19.1737 12.8867 19.8291 12.9371 20.47 13.07C20.8769 13.1641 21.2545 13.3564 21.57 13.63C21.922 13.9217 22.2346 14.2578 22.5 14.63C22.8958 15.2282 23.1363 15.9156 23.2 16.63C23.2744 17.3909 23.2408 18.1585 23.1 18.91C23.0606 19.1092 23.0106 19.3062 22.95 19.5C22.8925 19.6828 22.8118 19.8576 22.71 20.02C22.6662 20.0876 22.6511 20.1699 22.668 20.2486C22.6849 20.3274 22.7324 20.3962 22.8 20.44C22.8676 20.4838 22.9499 20.4989 23.0286 20.482C23.1074 20.4651 23.1762 20.4176 23.22 20.35C23.3217 20.1899 23.412 20.0229 23.49 19.85C23.5975 19.594 23.6845 19.3298 23.75 19.06C23.9834 18.078 24.0443 17.0629 23.93 16.06C23.6277 14.865 23.0254 13.767 22.18 12.87Z" fill="black"/>
<path d="M12.78 4.8L12.76 4.83L12.75 4.85L12.77 4.8H12.78Z" fill="black"/>
<path d="M10.24 8.74C10.7343 8.4882 11.2692 8.32571 11.82 8.26C12.465 8.16657 13.1232 8.24238 13.73 8.48C13.83 8.48 13.83 8.69 13.87 8.9C13.91 9.11 13.95 9.38 13.99 9.68C13.9938 9.72471 14.0064 9.76824 14.027 9.80806C14.0477 9.84789 14.0761 9.88323 14.1105 9.91205C14.1448 9.94087 14.1846 9.96259 14.2274 9.97597C14.2703 9.98935 14.3153 9.99412 14.36 9.99C14.4047 9.98623 14.4482 9.97365 14.4881 9.95297C14.5279 9.9323 14.5632 9.90395 14.5921 9.86955C14.6209 9.83516 14.6426 9.7954 14.656 9.75257C14.6694 9.70974 14.6741 9.66468 14.67 9.62C14.6668 9.21386 14.6267 8.80885 14.55 8.41C14.5267 8.27547 14.4744 8.14764 14.3967 8.03539C14.319 7.92314 14.2177 7.82916 14.1 7.76C13.3749 7.38689 12.5645 7.21101 11.75 7.25C10.9024 7.25513 10.0762 7.51658 9.38001 8C9.17118 8.25003 9.05466 8.56426 9.05001 8.89C9.01055 9.55608 9.01055 10.2239 9.05001 10.89C9.04342 10.9331 9.04342 10.9769 9.05001 11.02C8.99001 11.79 9.85001 11.53 10.95 11.3C11.4301 11.1862 11.9182 11.1093 12.41 11.07C12.722 11.0295 13.038 11.0295 13.35 11.07C13.51 11.07 14.12 11.19 14.35 11.21H14.5C14.5671 11.2107 14.6326 11.1897 14.6867 11.15C14.7408 11.1103 14.7805 11.0542 14.8 10.99C14.8231 10.9223 14.8194 10.8482 14.7897 10.7832C14.7599 10.7181 14.7064 10.6668 14.64 10.64C14.5909 10.6264 14.5391 10.6264 14.49 10.64C14.25 10.64 13.7 10.46 13.55 10.42C13.1876 10.3218 12.8152 10.2648 12.44 10.25C11.9023 10.2322 11.3641 10.2557 10.83 10.32L10.21 10.39C10.1525 9.84084 10.1626 9.2867 10.24 8.74Z" fill="black"/>
<path d="M22.3 11.09C22.16 10.72 22.05 10.47 22.05 10.47L21.63 9.47C21.4307 8.81086 21.1868 8.16604 20.9 7.54C20.6755 7.06602 20.3308 6.65916 19.9 6.36C19.6909 6.2087 19.4739 6.0685 19.25 5.94C19.0587 5.85624 18.8568 5.79904 18.65 5.77H18.22C18.1423 5.73666 18.0738 5.68523 18.02 5.62C17.95 5.67 17.9 5.4 17.83 5.23C17.54 4.56 17.17 3.46 16.95 2.92C16.8757 2.72113 16.7598 2.54043 16.61 2.39C16.3615 2.19465 16.0702 2.061 15.76 2C15.3916 1.92541 15.0156 1.8952 14.64 1.91C14.2676 1.88618 13.8937 1.9165 13.53 2C13.3923 2.04183 13.2645 2.11128 13.1544 2.20412C13.0444 2.29696 12.9544 2.41124 12.89 2.54C12.8519 2.64289 12.8284 2.75059 12.82 2.86V3.41V4.41C12.8147 4.54348 12.7877 4.6752 12.74 4.8C12.74 4.8 12.74 4.86 12.68 4.87H12.29C11.9574 4.90081 11.6226 4.90081 11.29 4.87V3.57C11.2887 3.23423 11.2552 2.89937 11.19 2.57C11.1276 2.44094 11.0381 2.32682 10.9277 2.23537C10.8172 2.14393 10.6884 2.0773 10.55 2.04C10.2201 1.98068 9.88359 1.96722 9.55001 2C9.17455 1.9906 8.79915 2.02077 8.43001 2.09C8.14143 2.15374 7.8691 2.27629 7.63001 2.45C7.47652 2.60015 7.36899 2.79093 7.32001 3C7.17001 3.53 6.96001 4.62 6.76001 5.29C6.76001 5.44 6.64001 5.62 6.63001 5.65C6.5661 5.71966 6.48755 5.77431 6.40001 5.81C6.29001 5.81 6.18001 5.81 5.97001 5.86C5.76709 5.87461 5.56786 5.92188 5.38001 6C5.15961 6.12892 4.94599 6.26911 4.74001 6.42C4.31139 6.70877 3.96647 7.10543 3.74001 7.57C3.45278 8.20729 3.20563 8.8619 3.00001 9.53L2.44001 11C2.41325 11.0744 2.41594 11.1563 2.44755 11.2288C2.47915 11.3013 2.53727 11.3589 2.61001 11.39C2.65002 11.4037 2.69247 11.4087 2.73457 11.4048C2.77667 11.4009 2.81747 11.3881 2.85429 11.3674C2.89112 11.3466 2.92314 11.3183 2.94825 11.2843C2.97336 11.2502 2.991 11.2113 3.00001 11.17L3.63001 9.77C3.84087 9.16265 4.09485 8.57115 4.39001 8C4.56311 7.65934 4.82588 7.37237 5.15001 7.17C5.33603 7.04163 5.52973 6.92475 5.73001 6.82C5.83888 6.77703 5.9534 6.75008 6.07001 6.74C6.25778 6.7322 6.44485 6.71216 6.63001 6.68C6.84843 6.61444 7.04983 6.5018 7.22001 6.35C7.41361 6.1151 7.5566 5.84274 7.64001 5.55C7.84001 4.95 8.06001 4.06 8.22001 3.55C8.22001 3.45 8.29001 3.35 8.31001 3.28C8.45681 3.20671 8.61641 3.16256 8.78001 3.15C9.03646 3.13501 9.29356 3.13501 9.55001 3.15C10.55 3.15 10.28 2.56 10.21 5.38C10.2011 5.52742 10.2443 5.67328 10.3321 5.79208C10.4198 5.91089 10.5465 5.9951 10.69 6.03C11.0464 6.12024 11.4124 6.16725 11.78 6.17C12.2823 6.19788 12.7853 6.12652 13.26 5.96C13.4763 5.86751 13.6558 5.70568 13.77 5.5C13.9043 5.25336 13.9828 4.98027 14 4.7C14.0299 4.27052 14.0299 3.83948 14 3.41C13.9837 3.31832 13.9603 3.22805 13.93 3.14C14.1 3.24 14.5 3.01 14.65 3.01C14.9457 2.97514 15.2444 2.97514 15.54 3.01C15.6581 3.03496 15.7724 3.0753 15.88 3.13C15.88 3.2 15.97 3.32 16.01 3.43C16.25 3.98 16.58 4.88 16.86 5.43C16.9698 5.71553 17.1288 5.97955 17.33 6.21C17.5101 6.36323 17.7169 6.48188 17.94 6.56C18.09 6.56 18.23 6.56 18.51 6.62C18.6226 6.62843 18.7336 6.65198 18.84 6.69C19.01 6.77 19.15 6.89 19.4 7.04C19.7129 7.24111 19.9679 7.52028 20.14 7.85C20.4282 8.4368 20.6787 9.04136 20.89 9.66L21.35 10.66L21.51 11.06C21.58 11.77 22.57 12.11 22.3 11.09Z" fill="black"/>
</g>
<defs>
<clipPath id="clip0_1030_2817">
<rect width="24" height="24" fill="white"/>
</clipPath>
</defs>
</svg>
