<svg width="24" height="24" viewBox="0 0 24 24" fill="none" xmlns="http://www.w3.org/2000/svg">
<g clip-path="url(#clip0_1033_3971)">
<path d="M21.41 17.68C21.4139 17.6353 21.409 17.5904 21.3956 17.5476C21.3821 17.5048 21.3604 17.4651 21.3316 17.4308C21.3028 17.3964 21.2676 17.3681 21.2278 17.3474C21.1881 17.3266 21.1446 17.3139 21.1 17.31C21.0553 17.3061 21.0104 17.3109 20.9676 17.3244C20.9248 17.3378 20.8851 17.3596 20.8508 17.3884C20.8164 17.4171 20.7881 17.4524 20.7673 17.4922C20.7466 17.5319 20.7339 17.5753 20.73 17.62C20.61 20.98 20.64 22.05 20.35 22.45C17.9323 22.335 15.5096 22.3918 13.1 22.62C6.65999 22.79 7.09999 22.67 3.97999 22.74C3.89999 22.74 3.73999 22.63 3.66999 22.68C3.74999 19.79 3.66999 18.75 3.66999 17.84C3.66999 16.93 3.01999 17.31 3.01999 17.84C3.01999 18.37 3.01999 17.39 2.84999 21.84C2.84999 22.21 2.64999 22.84 2.93999 23.28C3.06388 23.4226 3.21779 23.536 3.39069 23.612C3.56358 23.6881 3.75117 23.725 3.93999 23.72C6.63999 23.79 6.93999 23.86 8.66999 23.87C15.67 23.87 14.78 23.37 20.15 23.37C21.67 23.34 21.41 22.13 21.41 17.68Z" fill="black"/>
<path d="M21.9 16.17C18.6 16.04 16.49 16.29 6.76001 16.27C5.19001 16.27 2.69001 16.43 2.59001 16.44C2.20001 16.44 1.69001 16.44 1.76001 16.88C1.77896 16.9558 1.82502 17.0221 1.8895 17.0663C1.95398 17.1106 2.03242 17.1296 2.11001 17.12C7.74001 17.12 21.11 16.87 21.9 16.85C21.9902 16.85 22.0767 16.8142 22.1404 16.7504C22.2042 16.6866 22.24 16.6001 22.24 16.51C22.24 16.4198 22.2042 16.3333 22.1404 16.2696C22.0767 16.2058 21.9902 16.17 21.9 16.17Z" fill="black"/>
<path d="M17.52 18.79C14.67 18.88 12.73 18.62 10.1 18.79C9.10001 18.88 5.59001 19.26 5.56001 19.26C5.55171 18.6634 5.49822 18.0684 5.40001 17.48C5.32001 17.22 4.74001 17.12 4.79001 17.57V19.38C4.79001 19.83 5.23001 20.04 5.68001 20.1C5.96001 20.1 5.02001 20.1 12.28 19.85C13.69 19.85 14.75 19.85 16.35 19.78C18.58 19.55 18.61 19.65 18.95 19.48C19.71 19.09 19.58 18.22 19.46 17.12C19.46 16.93 18.75 16.88 18.76 17.26C18.8 19.2 18.7 18.77 17.52 18.79Z" fill="black"/>
<path d="M23.43 13.88C22.24 12.8 22.8 15 23 9.58996C23 8.20996 23 6.81995 22.95 5.44995C22.9709 4.75894 22.9442 4.0673 22.87 3.37996C22.53 1.62996 21.24 1.93996 19.71 1.85996L16.81 1.57996C14.9332 1.73592 13.0468 1.73592 11.17 1.57996C9.11057 1.53194 7.05013 1.60875 5 1.80996C3.9 1.80996 2.2 1.61996 1.56 2.63996C1.22 3.18996 1.32 2.93996 1.39 9.71996C1.23985 11.0816 1.21976 12.4545 1.33 13.82C0.619998 13.91 0.129997 14.15 0.0299975 15.19C-0.00161009 16.3554 0.0821309 17.521 0.279997 18.67C0.439997 19.83 0.299998 21 1.84 20.88C1.93107 20.8748 2.01652 20.8343 2.07816 20.767C2.1398 20.6998 2.17275 20.6111 2.17 20.52C2.17 19.96 1.44 20.39 1.17 19.99C1.04076 19.5282 0.983421 19.0492 0.999997 18.57C0.919997 17.91 0.639997 15.37 0.999997 14.83C1.08 14.72 1.27 14.73 4.07 14.52C11.44 13.92 17.07 14.74 19.96 14.41C21.24 14.26 22.71 13.99 23.12 14.94C23.12 18.78 23.28 19.3 22.92 19.76C22.75 19.97 21.7 19.82 21.92 20.37C21.9324 20.4074 21.9521 20.4421 21.978 20.4719C22.0038 20.5017 22.0353 20.5262 22.0706 20.5438C22.1059 20.5615 22.1443 20.572 22.1837 20.5747C22.223 20.5775 22.2626 20.5725 22.3 20.56C22.48 20.5 22.78 20.5 23.02 20.43C24.02 20.12 23.87 18.43 23.88 17.7C23.94 15.26 24.3 14.67 23.43 13.88ZM22 13.34C20.73 13.22 20.95 13.47 17.87 13.34C10.23 13.12 10.54 12.74 1.92 13.7C1.86247 12.3633 1.92942 11.0242 2.12 9.69995C2.23 4.86996 2.24 3.83996 2.24 3.69996C2.24 3.60996 2.24 3.76996 2.24 3.69996C2.24 3.08996 2.5 2.98996 3.14 2.90996C3.75883 2.85906 4.38065 2.85572 5 2.89996L9.6 2.68996C13.7 2.84996 13.7 2.85996 14.47 2.81996C16.1933 2.63272 17.9333 2.65959 19.65 2.89996C20.03 2.89996 21.44 2.79996 21.65 3.02996C22.1 3.49996 21.96 4.80996 22.02 5.51996C22.2385 8.12234 22.2318 10.7387 22 13.34Z" fill="black"/>
<path d="M10 0.849973C11.3319 0.936084 12.6681 0.936084 14 0.849973C14.0814 0.83606 14.1553 0.793797 14.2086 0.730659C14.2618 0.667521 14.2911 0.587578 14.2911 0.504973C14.2911 0.422368 14.2618 0.342426 14.2086 0.279288C14.1553 0.21615 14.0814 0.173886 14 0.159973C11.53 0.159973 11.56 0.269973 10 0.259973C9.93107 0.272719 9.86877 0.309203 9.82394 0.363092C9.7791 0.41698 9.75455 0.48487 9.75455 0.554973C9.75455 0.625076 9.7791 0.692966 9.82394 0.746855C9.86877 0.800743 9.93107 0.837228 10 0.849973Z" fill="black"/>
<path d="M11.41 5.23C7.61 6.23 8.7 12.46 13 11.44C17.11 10.46 15.29 4.18 11.41 5.23ZM14.09 9.53C13.7404 9.94802 13.2605 10.2364 12.7273 10.3489C12.1941 10.4613 11.6386 10.3913 11.15 10.15C10 9.63 9.44 6.76 11.64 6C13.65 5.23 15.14 8 14.09 9.53Z" fill="black"/>
<path d="M20.6 10.48C19.4705 10.3218 18.3232 10.3421 17.2 10.54C17.1218 10.5572 17.0536 10.6048 17.0104 10.6723C16.9673 10.7399 16.9528 10.8217 16.97 10.9C16.9872 10.9782 17.0349 11.0464 17.1024 11.0895C17.1699 11.1327 17.2518 11.1472 17.33 11.13C18.22 10.98 19.2 11.24 20.63 11.13C20.6815 11.143 20.7353 11.1439 20.7871 11.1324C20.839 11.1209 20.8874 11.0975 20.9285 11.0639C20.9697 11.0303 21.0024 10.9876 21.0241 10.9391C21.0457 10.8907 21.0557 10.8378 21.0533 10.7848C21.0508 10.7317 21.036 10.68 21.01 10.6337C20.9839 10.5874 20.9474 10.5479 20.9033 10.5183C20.8593 10.4887 20.8089 10.4698 20.7562 10.4631C20.7035 10.4565 20.65 10.4622 20.6 10.48Z" fill="black"/>
<path d="M20.87 4.79999C20.7859 4.62343 20.66 4.47009 20.5031 4.35332C20.3463 4.23655 20.1633 4.15988 19.97 4.12999C19.0059 3.96176 18.0169 4.00268 17.07 4.24999C16.35 4.43999 16.3 6.99999 16.6 7.74999C16.9 8.49999 18.22 8.42999 18.83 8.46999C19.64 8.46999 20.83 8.79999 21.1 7.26999C21.1754 6.43952 21.0975 5.60225 20.87 4.79999ZM17.25 4.90999C18.0577 4.77382 18.8846 4.80444 19.68 4.99999C18.7775 5.38542 17.9563 5.93852 17.26 6.62999C17.1284 6.06458 17.1249 5.47688 17.25 4.90999ZM19.87 7.32999C19.0846 7.39197 18.2954 7.39197 17.51 7.32999C18.2864 6.67389 19.1197 6.08824 20 5.57999C20.036 6.16652 19.9922 6.75521 19.87 7.32999Z" fill="black"/>
<path d="M7.71999 4.93999C7.37999 3.63999 5.80999 4.10999 3.60999 4.35999C3.57582 4.30943 3.52657 4.27094 3.46925 4.25C3.41193 4.22905 3.34947 4.22673 3.29075 4.24334C3.23204 4.25996 3.18006 4.29468 3.14222 4.34255C3.10437 4.39043 3.0826 4.44902 3.07999 4.50999C2.99502 5.58164 2.99502 6.65833 3.07999 7.72999C3.14199 8.79242 3.14199 9.85756 3.07999 10.92C3.14999 11.92 4.39999 11.99 5.38999 11.92C5.84999 11.92 7.17999 11.71 7.38999 11.66C8.30999 11.43 8.18999 10.28 8.17999 9.60999C8.11041 8.0462 7.95685 6.48729 7.71999 4.93999ZM4.44999 10.79H4.13999C4.04999 9.60999 3.65999 5.99999 3.65999 4.99999H4.88999L4.99999 10.78C4.81743 10.8013 4.63321 10.8046 4.44999 10.79ZM5.73999 10.68C5.82967 8.76388 5.75607 6.84361 5.51999 4.93999C5.80999 4.93999 6.59999 4.84999 6.81999 5.03999C6.93999 7.22999 7.08999 10.4 7.04999 10.52C6.62147 10.6265 6.18154 10.6802 5.73999 10.68Z" fill="black"/>
</g>
<defs>
<clipPath id="clip0_1033_3971">
<rect width="24" height="24" fill="white"/>
</clipPath>
</defs>
</svg>
