<svg width="24" height="24" viewBox="0 0 24 24" fill="none" xmlns="http://www.w3.org/2000/svg">
<g clip-path="url(#clip0_1047_6655)">
<path fill-rule="evenodd" clip-rule="evenodd" d="M24 15.32C23.93 14.93 24.37 16.51 21.58 6.72997C21.3 5.47997 20.92 3.24997 19.86 2.80997C17.8621 2.12513 15.7467 1.84966 13.64 1.99997C12.82 1.99997 6.48 1.93997 5.83 2.44997C5.5226 2.679 5.24392 2.94424 5 3.23997C4.47298 3.99894 3.98888 4.78684 3.55 5.59997C3.13123 6.43478 2.79626 7.30906 2.55 8.20997C1.43 11 0.460002 14.06 0.490002 14C0.490002 14.0928 0.526877 14.1818 0.592515 14.2475C0.658152 14.3131 0.747176 14.35 0.840002 14.35C1.15 14.35 0.990002 14.56 2.74 9.99997C4.16 6.80997 3.79 6.85997 5 5.11997C5.3 4.67997 5.54 4.27997 5.85 3.90997C6.69 2.90997 7.09 3.45997 8.14 3.22997C9.14 3.15997 11.53 3.14997 13.63 3.16997C15.5866 3.04092 17.5505 3.26101 19.43 3.81997C19.93 4.00997 20.51 6.43997 20.64 6.94997L23 14.21C20.7 13.21 18.14 14.78 6.45 14.35C4.68065 14.327 2.91136 14.4004 1.15 14.57C0.808138 14.6077 0.495164 14.7794 0.27962 15.0474C0.0640759 15.3155 -0.0364697 15.658 2.03727e-06 16C2.03727e-06 17.34 1.64 21.28 1.71 21.36C1.75642 21.4333 1.82542 21.4895 1.90659 21.5202C1.98776 21.5508 2.07671 21.5543 2.16 21.53C2.6 21.43 2.32 21.32 1.74 19.66C1.27284 18.5842 0.937079 17.4561 0.740002 16.3C0.740002 15.57 0.900002 15.44 1.38 15.39C5.05 15.05 8.62 15.72 13.88 15.5C15.4262 15.5108 16.9718 15.4374 18.51 15.28C19.6728 15.0786 20.8592 15.0517 22.03 15.2C22.23 15.2 22.75 15.36 22.78 15.56C22.95 16.56 21.9 19.69 21.66 20.44C21.36 20.74 12.02 21.19 11.15 21.21C3.55 21.38 2.52 20.43 2.52 21.26C2.51997 21.3537 2.55652 21.4438 2.62188 21.5111C2.68725 21.5783 2.77627 21.6174 2.87 21.62C3.79 21.62 4.45 21.88 5.53 21.92H7.36C12.1968 22.1411 17.0434 22.0041 21.86 21.51C22.61 21.31 22.76 20.85 23.23 19.31C23.73 18.0387 23.991 16.686 24 15.32Z" fill="black"/>
<path fill-rule="evenodd" clip-rule="evenodd" d="M3.14 17.43C3.00112 17.6463 2.92054 17.8948 2.90609 18.1514C2.89164 18.408 2.94382 18.664 3.05755 18.8945C3.17129 19.125 3.34271 19.3221 3.55516 19.4668C3.76761 19.6114 4.01387 19.6987 4.27 19.72C4.51 19.8067 4.76815 19.8307 5.02003 19.7898C5.27191 19.7489 5.50919 19.6444 5.70942 19.4863C5.90966 19.3281 6.06623 19.1214 6.16432 18.8858C6.26241 18.6503 6.29879 18.3936 6.27 18.14C6.24228 17.7824 6.10081 17.443 5.86628 17.1715C5.63176 16.9001 5.31651 16.7108 4.96667 16.6315C4.61683 16.5521 4.25078 16.5868 3.92209 16.7305C3.59339 16.8742 3.31933 17.1193 3.14 17.43ZM4.52 18.56C4.2 18.49 3.85 18.3 4.03 17.94C4.39 17.12 5.03 17.45 5.23 17.94L5.29 18.16C5.26 18.6 4.85 18.64 4.52 18.56Z" fill="black"/>
<path fill-rule="evenodd" clip-rule="evenodd" d="M7.84 19.66C8.10242 19.7064 8.37238 19.6838 8.62349 19.5946C8.87459 19.5054 9.09825 19.3525 9.27258 19.151C9.44692 18.9494 9.56597 18.7061 9.61811 18.4448C9.67024 18.1834 9.65366 17.913 9.57 17.66C9.44309 17.3333 9.24889 17.0368 9 16.79C8.40469 16.525 7.72856 16.507 7.12 16.74C5.93 17.36 6.4 19.44 7.84 19.66ZM8.72 17.91C8.72714 18.0008 8.71201 18.092 8.67595 18.1756C8.63988 18.2593 8.58396 18.3328 8.51303 18.39C8.4421 18.4471 8.3583 18.4861 8.2689 18.5035C8.1795 18.5209 8.0872 18.5163 8 18.49C7.79 18.49 7.56 18.1 7.52 17.93C7.35 17.13 8.54 17.18 8.72 17.91Z" fill="black"/>
<path fill-rule="evenodd" clip-rule="evenodd" d="M14.36 18.46C14.44 18.46 16.67 18.59 17.22 18.55C18.3461 18.4812 19.4657 18.3308 20.57 18.1C21.25 17.99 22.03 17.67 21.47 17.28C21.3936 17.2197 21.2969 17.1911 21.2 17.2C20.9607 17.1926 20.7216 17.2196 20.49 17.28C18.4076 17.3101 16.3295 17.4804 14.27 17.79C13.89 17.62 13.46 18.31 14.36 18.46Z" fill="black"/>
<path fill-rule="evenodd" clip-rule="evenodd" d="M10.43 5.70995C7.66 5.47995 4.1 6.70995 4.27 9.56995C4.36623 10.1893 4.61618 10.7747 4.99701 11.2726C5.37784 11.7705 5.87739 12.165 6.45 12.42C8.45 13.49 13.02 13.33 14.45 11.62C14.72 11.15 15.4 10.34 14.95 10.08C14.5 9.81995 14.42 10.48 13.95 11.17C12.95 12.26 10.25 12.17 8.9 12.01C5.89 11.56 4.2 9.16995 6.54 7.63995C7.70332 6.95894 9.03228 6.61286 10.38 6.63995C11.3291 6.65366 12.2677 6.84003 13.15 7.18995C13.65 7.36995 14.15 7.18995 13.87 6.88995C13.06 6.11995 11.7 5.99995 10.43 5.70995Z" fill="black"/>
<path fill-rule="evenodd" clip-rule="evenodd" d="M18.41 4.46999C18.4081 4.38278 18.3746 4.29923 18.3158 4.23485C18.2569 4.17048 18.1767 4.12966 18.09 4.11999C18.09 4.11999 17.97 4.11999 17.88 4.11999C17.4806 3.95576 17.0505 3.87967 16.6191 3.89693C16.1876 3.91419 15.765 4.02438 15.38 4.21999C15.19 4.30999 15.11 4.39999 15.1 4.43999C15.09 4.47999 15.03 4.69999 15.17 4.78999C15.6365 4.93292 16.1221 5.00374 16.61 4.99999C16.76 6.44999 16.73 6.38999 16.85 7.39999C14.52 7.39999 10.3 7.51999 10.24 7.53999C10.1828 7.55039 10.1293 7.57528 10.0845 7.61226C10.0396 7.64925 10.0051 7.69711 9.98399 7.75127C9.96293 7.80542 9.9561 7.86408 9.96416 7.92162C9.97221 7.97917 9.99488 8.0337 10.03 8.07999C10.15 8.25999 10.79 8.24999 10.93 8.23999C10.86 8.71999 11.15 11.13 11.56 11.05C12.17 10.92 12.07 8.98999 12 8.35999V8.24999C13.4052 8.39359 14.819 8.4337 16.23 8.36999C16.43 8.36999 16.81 8.42999 17.09 8.36999C18.3 8.25999 17.85 7.13999 17.36 4.88999C18 4.80999 18.48 4.85999 18.41 4.46999Z" fill="black"/>
<path fill-rule="evenodd" clip-rule="evenodd" d="M17.62 11.24C17.62 11.15 17.24 10.98 16.99 11.43C16.8295 11.7048 16.7632 12.0244 16.8011 12.3403C16.839 12.6562 16.9791 12.951 17.2 13.18C17.33 13.18 17.48 13.27 17.56 13.12C17.7717 12.8551 17.8919 12.5289 17.9027 12.19C17.9135 11.8511 17.8143 11.5178 17.62 11.24Z" fill="black"/>
<path fill-rule="evenodd" clip-rule="evenodd" d="M20.39 11.24C20.39 11.15 20.01 10.98 19.76 11.43C19.6 11.7069 19.5367 12.0293 19.5802 12.3461C19.6236 12.663 19.7713 12.9564 20 13.18C20.13 13.18 20.27 13.27 20.36 13.12C20.5657 12.8512 20.6797 12.5234 20.6851 12.185C20.6905 11.8465 20.587 11.5153 20.39 11.24Z" fill="black"/>
</g>
<defs>
<clipPath id="clip0_1047_6655">
<rect width="24" height="24" fill="white"/>
</clipPath>
</defs>
</svg>
