<svg width="24" height="24" viewBox="0 0 24 24" fill="none" xmlns="http://www.w3.org/2000/svg">
<g clip-path="url(#clip0_1047_6675)">
<path fill-rule="evenodd" clip-rule="evenodd" d="M4.63 9.13992C4.5045 9.11563 4.3755 9.11563 4.25 9.13992C1.73 9.13992 -0.669999 11.0799 0.170001 13.6099C0.341373 14.121 0.647264 14.5764 1.05551 14.9283C1.46376 15.2803 1.95929 15.5157 2.49 15.6099C2.9235 15.7075 3.36574 15.7611 3.81 15.7699C5.74 15.6799 5.51 15.5899 4.91 10.1699C4.91 9.86992 4.26 9.80992 4.34 10.5099C4.46469 11.8971 4.46469 13.2927 4.34 14.6799C4.02 14.6799 4.27 14.6799 3.25 14.5999L2.33 14.3699C1 13.9199 0.200001 11.6399 2.47 10.3399C3.85 9.54992 4.31 10.0699 4.81 9.57992C4.81 9.57992 5 9.23992 4.63 9.13992Z" fill="black"/>
<path fill-rule="evenodd" clip-rule="evenodd" d="M12 4.53997C10.41 2.47997 6.19 5.99997 4.85 8.52997C4.72 8.83997 4.85 8.96997 5.25 8.97997C5.31471 8.90013 5.37481 8.81666 5.43 8.72997C6.40138 7.28722 7.74102 6.13058 9.31 5.37997C9.83 5.10997 10.86 4.65997 11.2 5.13997C12.06 6.33997 12.29 15.95 11.25 18.27C10.96 18.93 10.55 19.32 9.85 19.14C8.18105 18.384 6.68642 17.2911 5.46 15.93C5.39716 15.878 5.31773 15.8503 5.2362 15.852C5.15466 15.8537 5.07645 15.8847 5.01583 15.9392C4.95522 15.9938 4.91623 16.0683 4.90598 16.1492C4.89573 16.2301 4.9149 16.312 4.96 16.38C5.95537 17.5337 7.1064 18.5434 8.38 19.38C8.69504 19.6498 9.06414 19.8492 9.46254 19.9648C9.86095 20.0804 10.2795 20.1094 10.69 20.05C12.16 19.67 12.58 17.7 12.79 16.2C13.08 13.87 13.42 6.36997 12 4.53997Z" fill="black"/>
<path fill-rule="evenodd" clip-rule="evenodd" d="M23.67 10.61C22.47 10.52 21.26 10.46 20.04 10.48C20.04 10.27 19.77 6.56999 19.69 6.47999C19.61 6.38999 19.28 6.30999 19.15 6.67999C18.9987 7.95443 18.9219 9.23661 18.92 10.52C18.4238 10.5365 17.9294 10.5867 17.44 10.67C15.26 11.15 14.75 11.17 14.86 11.57C14.8635 11.6052 14.8742 11.6394 14.8914 11.6703C14.9086 11.7013 14.932 11.7284 14.96 11.75C15.06 11.82 18.9 11.64 18.96 11.64C19.07 13.12 19.23 13.93 19.43 15.49C19.4437 15.5689 19.4848 15.6405 19.5461 15.692C19.6074 15.7436 19.6849 15.7719 19.765 15.7719C19.8451 15.7719 19.9226 15.7436 19.9839 15.692C20.0452 15.6405 20.0863 15.5689 20.1 15.49V11.61C21.29 11.5 22.48 11.36 23.67 11.31C23.7628 11.31 23.8519 11.2731 23.9175 11.2075C23.9831 11.1418 24.02 11.0528 24.02 10.96C24.02 10.8672 23.9831 10.7781 23.9175 10.7125C23.8519 10.6469 23.7628 10.61 23.67 10.61Z" fill="black"/>
</g>
<defs>
<clipPath id="clip0_1047_6675">
<rect width="24" height="24" fill="white"/>
</clipPath>
</defs>
</svg>
