<svg width="24" height="24" viewBox="0 0 24 24" fill="none" xmlns="http://www.w3.org/2000/svg">
<g clip-path="url(#clip0_1052_9347)">
<path fill-rule="evenodd" clip-rule="evenodd" d="M15.23 13.18C15.6282 13.1314 16.0288 13.1047 16.43 13.1L21.77 12.78C21.8505 12.7774 21.9268 12.7436 21.9827 12.6857C22.0387 12.6279 22.07 12.5505 22.07 12.47C22.07 12.4297 22.0619 12.3899 22.0462 12.3528C22.0305 12.3157 22.0075 12.2822 21.9786 12.2542C21.9497 12.2262 21.9154 12.2044 21.8779 12.1899C21.8403 12.1754 21.8002 12.1686 21.76 12.17L16.41 12.09C15.8829 12.058 15.354 12.0747 14.83 12.14C14.5167 12.1877 14.2245 12.3269 13.99 12.54C13.5962 12.9542 13.3684 13.4987 13.35 14.07C13.3141 14.7885 13.4124 15.5075 13.64 16.19C14.119 17.4217 15.0286 18.4379 16.2 19.05C17.8439 19.95 19.7326 20.3005 21.59 20.05C21.6802 20.0394 21.7624 19.9934 21.8187 19.9221C21.8749 19.8508 21.9006 19.7602 21.89 19.67C21.8794 19.5798 21.8334 19.4975 21.7621 19.4413C21.6908 19.385 21.6002 19.3594 21.51 19.37C20.1035 19.4642 18.6968 19.1884 17.43 18.57C16.8152 18.3162 16.2587 17.9396 15.7944 17.4633C15.3302 16.987 14.968 16.421 14.73 15.8C14.5838 15.3471 14.5029 14.8757 14.49 14.4C14.4627 14.2097 14.4743 14.0159 14.5242 13.8302C14.574 13.6446 14.6611 13.471 14.78 13.32C14.9114 13.2268 15.0689 13.1778 15.23 13.18Z" fill="black"/>
<path fill-rule="evenodd" clip-rule="evenodd" d="M20.71 9.86001C20.7212 9.89827 20.7402 9.9338 20.7658 9.9644C20.7913 9.99499 20.8229 10.02 20.8586 10.0378C20.8943 10.0556 20.9332 10.0659 20.973 10.068C21.0129 10.0701 21.0527 10.064 21.09 10.05C21.1275 10.0376 21.1621 10.0179 21.1919 9.99204C21.2218 9.96621 21.2462 9.93474 21.2639 9.89944C21.2815 9.86414 21.292 9.8257 21.2948 9.78633C21.2976 9.74696 21.2925 9.70743 21.28 9.67001C21.2494 9.36895 21.1925 9.07115 21.11 8.78001C21.0162 8.55997 20.8724 8.36481 20.69 8.21001C20.6263 8.1465 20.54 8.11084 20.45 8.11084C20.36 8.11084 20.2737 8.1465 20.21 8.21001C20.1465 8.27374 20.1108 8.36004 20.1108 8.45001C20.1108 8.53998 20.1465 8.62628 20.21 8.69001L20.71 9.86001Z" fill="black"/>
<path fill-rule="evenodd" clip-rule="evenodd" d="M17.42 7.12001C17.5727 7.10023 17.7273 7.10023 17.88 7.12001C17.9778 7.13419 18.0746 7.15423 18.17 7.18001C18.272 7.19504 18.3704 7.22895 18.46 7.28001C18.4879 7.30874 18.5214 7.33157 18.5583 7.34716C18.5952 7.36275 18.6349 7.37079 18.675 7.37079C18.7151 7.37079 18.7547 7.36275 18.7917 7.34716C18.8286 7.33157 18.862 7.30874 18.89 7.28001C18.9456 7.22225 18.9766 7.14519 18.9766 7.06501C18.9766 6.98483 18.9456 6.90777 18.89 6.85001C18.7031 6.59536 18.435 6.41196 18.13 6.33001C17.8327 6.26843 17.524 6.29271 17.24 6.40001C17.1531 6.42572 17.0791 6.48323 17.0328 6.56108C16.9864 6.63893 16.9712 6.73139 16.99 6.82001C16.9957 6.86925 17.0118 6.91672 17.0372 6.95928C17.0626 7.00184 17.0967 7.03851 17.1374 7.06687C17.178 7.09523 17.2243 7.11464 17.273 7.1238C17.3217 7.13296 17.3718 7.13167 17.42 7.12001Z" fill="black"/>
<path fill-rule="evenodd" clip-rule="evenodd" d="M15.22 7.85999C14.959 8.046 14.7436 8.28875 14.59 8.56999C14.4678 8.85888 14.3968 9.16679 14.38 9.47999C14.3714 9.52398 14.3716 9.56923 14.3806 9.61314C14.3895 9.65705 14.4071 9.69877 14.4321 9.73591C14.4572 9.77305 14.4893 9.80489 14.5267 9.82961C14.5641 9.85434 14.606 9.87145 14.65 9.87999C14.694 9.88853 14.7392 9.88831 14.7831 9.87936C14.827 9.87041 14.8687 9.8529 14.9059 9.82783C14.943 9.80276 14.9749 9.77062 14.9996 9.73324C15.0243 9.69586 15.0414 9.65398 15.05 9.60999C15.1139 9.40207 15.1907 9.19834 15.28 8.99999C15.34 8.86999 15.38 8.75999 15.44 8.63999C15.5 8.51999 15.57 8.38999 15.66 8.24999C15.6887 8.22203 15.7115 8.18861 15.7271 8.15168C15.7427 8.11475 15.7507 8.07507 15.7507 8.03499C15.7507 7.99491 15.7427 7.95523 15.7271 7.9183C15.7115 7.88137 15.6887 7.84794 15.66 7.81999C15.6286 7.79342 15.5922 7.77336 15.553 7.76098C15.5138 7.74859 15.4725 7.74413 15.4316 7.74786C15.3906 7.75158 15.3508 7.76341 15.3145 7.78266C15.2782 7.80191 15.246 7.8282 15.22 7.85999Z" fill="black"/>
<path fill-rule="evenodd" clip-rule="evenodd" d="M11 7.07C11.5599 7.21732 12.144 7.24896 12.7165 7.16299C13.2891 7.07702 13.8381 6.87525 14.33 6.57C14.833 6.28098 15.2626 5.87975 15.5852 5.39757C15.9078 4.91539 16.1148 4.36526 16.19 3.79C16.2735 2.81316 15.9681 1.84283 15.34 1.09C13.61 -0.909998 10.86 0.390002 10.08 1.09C9.63664 1.49345 9.28961 1.99139 9.0646 2.54701C8.83958 3.10264 8.74232 3.70173 8.78001 4.3C8.80715 4.93785 9.03708 5.55041 9.43634 6.04859C9.8356 6.54677 10.3834 6.90459 11 7.07ZM10.65 1.69C11.1917 1.1716 11.9079 0.87485 12.6575 0.858192C13.4071 0.841534 14.1358 1.10618 14.7 1.6C14.9212 1.8907 15.082 2.2227 15.1731 2.57647C15.2641 2.93024 15.2834 3.29864 15.23 3.66C15.1443 4.07626 14.9645 4.46742 14.7046 4.80364C14.4446 5.13986 14.1113 5.41224 13.73 5.6C13.3704 5.8257 12.9693 5.97733 12.5503 6.04602C12.1314 6.11471 11.7029 6.09906 11.29 6C10.8831 5.89114 10.5209 5.65658 10.2552 5.32977C9.9894 5.00295 9.83361 4.60057 9.81001 4.18C9.74803 3.73073 9.78872 3.27325 9.92901 2.84197C10.0693 2.41068 10.3056 2.01682 10.62 1.69H10.65Z" fill="black"/>
<path fill-rule="evenodd" clip-rule="evenodd" d="M13.27 11.08C12.9027 10.2585 12.3951 9.50727 11.77 8.85997C11.0327 7.97178 10.1419 7.22323 9.13999 6.64997C8.75606 6.45021 8.3353 6.33119 7.90362 6.30023C7.47194 6.26928 7.0385 6.32704 6.62999 6.46997C5.95786 6.71547 5.36388 7.13677 4.90999 7.68997C4.29483 8.44855 3.79603 9.29449 3.42999 10.2C2.67011 12.0738 2.20461 14.0539 2.04999 16.07C1.81999 18.71 1.64999 23.56 4.18999 23.97C4.66909 24.0474 5.16039 23.9826 5.60299 23.7835C6.0456 23.5844 6.42007 23.2598 6.67999 22.85C7.00637 22.1325 7.20923 21.365 7.27999 20.58C7.41605 18.8468 7.45278 17.1073 7.38999 15.37C7.41402 14.858 7.48431 14.3493 7.59999 13.85C7.68274 13.3778 7.84865 12.9241 8.08999 12.51C8.11413 12.4715 8.14086 12.4348 8.16999 12.4C8.28831 12.4272 8.40513 12.4606 8.51999 12.5L9.91999 13.15C10.5523 13.4108 11.243 13.4972 11.92 13.4C12.1919 13.3768 12.4548 13.2917 12.6888 13.1514C12.9228 13.011 13.1216 12.8189 13.27 12.59C13.3849 12.3549 13.4446 12.0966 13.4446 11.835C13.4446 11.5733 13.3849 11.3151 13.27 11.08ZM12.27 12.01C12.13 12.24 11.83 12.28 11.52 12.3C11.1384 12.3153 10.7576 12.2541 10.4 12.12C9.39999 11.67 8.81999 11.4 8.49999 11.31C7.89999 11.14 7.67999 11.26 7.23999 11.9C6.98116 12.3323 6.7985 12.8058 6.69999 13.3C6.52981 13.9803 6.44251 14.6787 6.43999 15.38C6.43999 16.71 6.56999 18.32 6.50999 19.78C6.51568 20.7077 6.34252 21.6278 5.99999 22.49C5.82708 22.7632 5.57724 22.9793 5.28188 23.1109C4.98651 23.2426 4.65882 23.284 4.33999 23.23C3.05999 23.06 2.26999 21.23 2.85999 16.15C3.07052 14.2293 3.58001 12.3533 4.36999 10.59C4.6949 9.79127 5.14375 9.04881 5.69999 8.38997C6.04706 7.99042 6.49652 7.69309 6.99999 7.52997C7.27316 7.438 7.56227 7.40298 7.84949 7.42706C8.13671 7.45114 8.41595 7.53381 8.66999 7.66997C9.53928 8.19674 10.3079 8.87396 10.94 9.66997C11.3153 10.0693 11.6503 10.5048 11.94 10.97C12.0755 11.1733 12.18 11.3958 12.25 11.63C12.2952 11.7499 12.2916 11.8827 12.24 12L12.27 12.01Z" fill="black"/>
</g>
<defs>
<clipPath id="clip0_1052_9347">
<rect width="24" height="24" fill="white"/>
</clipPath>
</defs>
</svg>
