<svg width="24" height="24" viewBox="0 0 24 24" fill="none" xmlns="http://www.w3.org/2000/svg">
<g clip-path="url(#clip0_1034_4719)">
<path d="M3.93 3.90999C4.13109 3.90029 4.32135 3.81604 4.4637 3.67369C4.60606 3.53134 4.6903 3.34108 4.7 3.13999C4.68716 2.92425 4.59165 2.72176 4.43335 2.57463C4.27504 2.42749 4.06611 2.34704 3.85 2.34999C3.74568 2.35625 3.64367 2.38342 3.55005 2.42987C3.45643 2.47632 3.37309 2.54112 3.305 2.6204C3.23691 2.69969 3.18544 2.79185 3.15366 2.89142C3.12188 2.99098 3.11044 3.09592 3.12 3.19999C3.12636 3.29987 3.15238 3.39751 3.19657 3.48731C3.24076 3.57711 3.30225 3.65729 3.37751 3.72326C3.45277 3.78923 3.54032 3.83969 3.63513 3.87173C3.72995 3.90378 3.83015 3.91678 3.93 3.90999Z" fill="black"/>
<path d="M7.80001 3.13998C7.78787 2.93271 7.6994 2.73728 7.55167 2.5914C7.40393 2.44551 7.20741 2.35951 7.00001 2.34998C6.89568 2.35624 6.79368 2.3834 6.70005 2.42985C6.60643 2.4763 6.5231 2.5411 6.455 2.62038C6.38691 2.69967 6.33544 2.79183 6.30366 2.8914C6.27189 2.99096 6.26044 3.0959 6.27001 3.19998C6.28225 3.38768 6.36367 3.56417 6.49851 3.69532C6.63335 3.82647 6.81204 3.90295 7.00001 3.90998C7.20562 3.90534 7.40198 3.82361 7.55016 3.68098C7.69834 3.53836 7.78752 3.34526 7.80001 3.13998Z" fill="black"/>
<path d="M10.77 3.13999C10.7622 2.92425 10.6696 2.7203 10.5123 2.5724C10.3551 2.4245 10.1458 2.34458 9.93001 2.34999C9.82568 2.35625 9.72368 2.38341 9.63005 2.42987C9.53643 2.47632 9.4531 2.54111 9.385 2.6204C9.31691 2.69969 9.26545 2.79185 9.23367 2.89141C9.20189 2.99098 9.19044 3.09591 9.20001 3.19999C9.21288 3.39987 9.30415 3.58659 9.45396 3.71955C9.60377 3.85251 9.80001 3.92095 10 3.90999C10.2011 3.90028 10.3914 3.81604 10.5337 3.67369C10.6761 3.53133 10.7603 3.34107 10.77 3.13999Z" fill="black"/>
<path d="M22.42 4.99998C21.76 4.99998 21.09 4.99998 20.42 4.93998C18.85 4.83998 17.29 4.65998 15.73 4.55998C14.35 4.47998 12.96 4.41998 11.56 4.42998C10.16 4.43998 8.79 4.49998 7.41 4.56998C6.03 4.63998 4.55 4.72998 3.13 4.99998C2.49005 5.10812 1.85592 5.2483 1.23 5.41998C1.25218 4.35531 1.34237 3.29315 1.5 2.23998C1.51503 2.15666 1.49746 2.07075 1.45093 2.00003C1.4044 1.9293 1.33246 1.87916 1.25 1.85998C1.16668 1.84495 1.08078 1.86252 1.01005 1.90905C0.939321 1.95558 0.889182 2.02752 0.870003 2.10998C0.411542 4.56135 0.157336 7.04655 0.110003 9.53998C0.110003 10.54 0.0300028 11.66 0.0100028 12.73C-0.00999722 13.8 0.0100028 14.88 0.0100028 15.91C0.0397961 18.1458 0.183315 20.3787 0.440003 22.6C0.449613 22.9113 0.531795 23.216 0.680003 23.49C0.706073 23.5166 0.737191 23.5377 0.771533 23.5522C0.805875 23.5666 0.842752 23.574 0.880003 23.574C0.917254 23.574 0.95413 23.5666 0.988473 23.5522C1.02281 23.5377 1.05393 23.5166 1.08 23.49C1.12136 23.4372 1.14384 23.372 1.14384 23.305C1.14384 23.2379 1.12136 23.1728 1.08 23.12C0.980003 23.12 1.02 22.82 1 22.53C0.910003 21.34 1 18.81 1 15.9C1 14.48 1 12.96 1.06 11.46V8.45998C1.06 7.45998 1.06 6.74998 1.12 5.96998C1.77956 5.81818 2.44734 5.70465 3.12 5.62998C4.53 5.47998 5.96 5.45998 7.34 5.44998C8.72 5.43998 10.09 5.44998 11.47 5.44998H15.59C17.15 5.44998 18.72 5.57998 20.29 5.59998H22.29C22.3316 5.6 22.3727 5.59166 22.411 5.57546C22.4493 5.55926 22.4839 5.53553 22.5128 5.50568C22.5417 5.47582 22.5644 5.44046 22.5793 5.40168C22.5943 5.36291 22.6013 5.32152 22.6 5.27998C22.5986 5.22129 22.581 5.16412 22.5493 5.11473C22.5175 5.06535 22.4728 5.02565 22.42 4.99998Z" fill="black"/>
<path d="M24 17.68C24 12.6 23.8 6.19999 23.84 5.22999C23.8838 4.56169 23.8502 3.89058 23.74 3.22999C23.648 2.74176 23.4611 2.27631 23.19 1.85999C22.7708 1.32784 22.1682 0.971249 21.5 0.859988C20.2123 0.672687 18.9106 0.59907 17.61 0.639988C16 0.559988 14.36 0.479988 12.74 0.449988C11.12 0.419988 9.5 0.409988 7.87 0.459988C6.57567 0.460728 5.28281 0.547586 4 0.719988C3.13766 0.832949 2.29175 1.04778 1.48 1.35999C1.40874 1.38696 1.35096 1.4409 1.31915 1.51013C1.28734 1.57937 1.28405 1.65835 1.31 1.72999C1.32323 1.76522 1.34341 1.79742 1.36936 1.82467C1.3953 1.85192 1.42648 1.87366 1.46101 1.88859C1.49555 1.90353 1.53274 1.91135 1.57037 1.91159C1.60799 1.91183 1.64528 1.90448 1.68 1.88999C2.45872 1.61379 3.26789 1.43248 4.09 1.34999C5.3393 1.2268 6.59518 1.18338 7.85 1.21999C9.15 1.21999 10.44 1.21999 11.72 1.31999C13.66 1.39999 15.57 1.52999 17.52 1.68999C18.29 1.74999 19.61 1.59999 20.74 1.74999C21.0275 1.75257 21.3112 1.81529 21.573 1.93413C21.8348 2.05296 22.0688 2.22528 22.26 2.43999C22.4559 2.74374 22.5885 3.08384 22.65 3.43999C22.753 4.02735 22.7865 4.62479 22.75 5.21999C22.75 6.21999 23.04 12.61 23.2 17.71C23.27 19.92 23.31 21.89 23.28 23.04C23.2821 23.1235 23.3149 23.2032 23.3721 23.2641C23.4293 23.325 23.5068 23.3626 23.59 23.37C23.632 23.3713 23.6739 23.3644 23.7132 23.3495C23.7526 23.3346 23.7886 23.3122 23.8193 23.2834C23.8499 23.2546 23.8746 23.22 23.8919 23.1817C23.9091 23.1434 23.9187 23.102 23.92 23.06C24 21.88 24 19.91 24 17.68Z" fill="black"/>
<path d="M15.37 9.94H17.15C17.4 9.94 17.66 9.94 17.91 9.88L18.66 9.79C19.26 9.71 19.84 9.61 20.42 9.56C20.5049 9.56 20.5863 9.52628 20.6463 9.46627C20.7063 9.40626 20.74 9.32487 20.74 9.24C20.74 9.15513 20.7063 9.07374 20.6463 9.01373C20.5863 8.95371 20.5049 8.92 20.42 8.92C19.8094 8.8424 19.1953 8.79568 18.58 8.78H17.8C17.5376 8.79701 17.2769 8.83378 17.02 8.89C16.4194 9.02096 15.8282 9.19133 15.25 9.4C15.2139 9.40717 15.1795 9.4214 15.1489 9.44188C15.1182 9.46235 15.0919 9.48868 15.0715 9.51933C15.0511 9.54999 15.0369 9.58438 15.0298 9.62053C15.0226 9.65668 15.0227 9.69388 15.03 9.73C15.0382 9.76628 15.0536 9.80057 15.0752 9.83084C15.0968 9.86112 15.1243 9.88679 15.1559 9.90634C15.1876 9.92589 15.2228 9.93894 15.2596 9.94472C15.2963 9.9505 15.3339 9.94889 15.37 9.94Z" fill="black"/>
<path d="M20.61 17.5C20.0027 17.4228 19.392 17.376 18.78 17.36H17.99C17.7275 17.3763 17.4667 17.4131 17.21 17.47C16.6094 17.6009 16.0182 17.7713 15.44 17.98C15.4039 17.9872 15.3695 18.0014 15.3389 18.0219C15.3082 18.0423 15.2819 18.0687 15.2615 18.0993C15.2411 18.13 15.2269 18.1644 15.2198 18.2005C15.2126 18.2367 15.2127 18.2739 15.22 18.31C15.2243 18.3475 15.2368 18.3836 15.2565 18.4158C15.2762 18.448 15.3027 18.4755 15.3341 18.4964C15.3655 18.5173 15.401 18.5312 15.4383 18.537C15.4756 18.5428 15.5137 18.5404 15.55 18.53H17.33C17.59 18.53 17.84 18.53 18.09 18.47C18.34 18.41 18.59 18.42 18.84 18.38C19.44 18.3 20.02 18.2 20.6 18.15C20.6858 18.15 20.7683 18.1166 20.8299 18.0569C20.8915 17.9972 20.9274 17.9158 20.93 17.83C20.9313 17.7871 20.9241 17.7444 20.9086 17.7045C20.8931 17.6645 20.8697 17.628 20.8399 17.5972C20.81 17.5664 20.7743 17.542 20.7348 17.5253C20.6953 17.5086 20.6529 17.5 20.61 17.5Z" fill="black"/>
<path d="M17.11 12.61C17.36 12.61 17.6 12.61 17.85 12.55C18.1 12.49 18.35 12.49 18.59 12.45C19.18 12.36 19.76 12.23 20.34 12.12C20.424 12.1099 20.5009 12.068 20.5549 12.0029C20.6088 11.9377 20.6357 11.8544 20.63 11.77C20.6176 11.6852 20.5736 11.6082 20.5069 11.5544C20.4401 11.5006 20.3555 11.474 20.27 11.48H18.5H17.75C17.4947 11.5012 17.2409 11.5379 16.99 11.59C16.4038 11.7215 15.826 11.8885 15.26 12.09C15.1864 12.1046 15.1214 12.1471 15.0785 12.2086C15.0356 12.2701 15.0182 12.3459 15.03 12.42C15.0359 12.4568 15.0493 12.4919 15.0694 12.5233C15.0895 12.5547 15.1159 12.5815 15.1469 12.6022C15.1779 12.6228 15.2128 12.6369 15.2495 12.6434C15.2862 12.6499 15.3238 12.6487 15.36 12.64C15.94 12.61 16.53 12.63 17.11 12.61Z" fill="black"/>
<path d="M20.46 20.11H18.69H17.92C17.6681 20.132 17.4176 20.1687 17.17 20.22C16.5805 20.3515 15.9994 20.5184 15.43 20.72C15.3939 20.7279 15.3597 20.7428 15.3293 20.7639C15.299 20.785 15.2731 20.8119 15.2531 20.843C15.2332 20.8741 15.2195 20.9088 15.213 20.9452C15.2064 20.9816 15.2071 21.0189 15.215 21.055C15.2229 21.0911 15.2378 21.1253 15.2589 21.1557C15.28 21.186 15.3069 21.2119 15.338 21.2319C15.3691 21.2518 15.4038 21.2655 15.4402 21.272C15.4766 21.2786 15.5139 21.2779 15.55 21.27H17.29C17.54 21.27 17.78 21.27 18.03 21.21C18.28 21.15 18.53 21.15 18.78 21.11C19.36 21.02 19.93 20.89 20.51 20.78C20.5521 20.7762 20.593 20.7642 20.6304 20.7445C20.6678 20.7248 20.701 20.698 20.7279 20.6654C20.7549 20.6329 20.7752 20.5953 20.7875 20.5549C20.7999 20.5145 20.8041 20.4721 20.8 20.43C20.8016 20.3858 20.7938 20.3418 20.777 20.3009C20.7602 20.2599 20.7349 20.2231 20.7027 20.1928C20.6705 20.1625 20.6322 20.1394 20.5903 20.1251C20.5484 20.1108 20.504 20.1057 20.46 20.11Z" fill="black"/>
<path d="M3.69001 14.25C3.73157 14.25 3.77272 14.2417 3.81099 14.2255C3.84927 14.2093 3.8839 14.1855 3.91282 14.1557C3.94174 14.1258 3.96436 14.0905 3.97934 14.0517C3.99432 14.0129 4.00135 13.9715 4.00001 13.93C4.06001 13.51 4.13001 13.12 4.18001 12.7C4.1903 12.5268 4.1903 12.3532 4.18001 12.18V11.67C4.18001 11.25 4.08001 10.86 4.05001 10.45C4.05874 10.376 4.03868 10.3016 3.99401 10.242C3.94933 10.1824 3.88344 10.1423 3.81001 10.13C3.77243 10.1244 3.73411 10.1265 3.69738 10.1362C3.66064 10.1458 3.62626 10.1629 3.59633 10.1863C3.56639 10.2097 3.54153 10.2389 3.52325 10.2722C3.50497 10.3055 3.49366 10.3422 3.49001 10.38C3.34176 10.7829 3.22801 11.1978 3.15001 11.62C3.13512 11.7997 3.13512 11.9803 3.15001 12.16C3.14006 12.3398 3.14006 12.5201 3.15001 12.7C3.20001 13.12 3.27001 13.52 3.35001 13.94C3.3498 13.9833 3.3587 14.0263 3.37612 14.066C3.39354 14.1057 3.4191 14.1413 3.45114 14.1705C3.48318 14.1997 3.521 14.2219 3.56214 14.2356C3.60329 14.2493 3.64685 14.2542 3.69001 14.25Z" fill="black"/>
<path d="M4.1 19.08C4.15 18.67 4.22 18.28 4.28 17.86V17.34C4.29 17.1701 4.29 16.9998 4.28 16.83C4.28 16.41 4.2 16.01 4.19 15.6C4.20142 15.5315 4.18872 15.4611 4.15407 15.401C4.11942 15.3408 4.06497 15.2945 4 15.27C3.92605 15.2612 3.85157 15.2813 3.792 15.326C3.73243 15.3707 3.69233 15.4365 3.68 15.51C3.52328 15.9135 3.39628 16.3279 3.3 16.75C3.28474 16.933 3.28474 17.117 3.3 17.3C3.29009 17.4832 3.29009 17.6668 3.3 17.85C3.3 18.28 3.42 18.69 3.5 19.11C3.50517 19.1957 3.54358 19.2761 3.60707 19.334C3.67056 19.3919 3.75413 19.4227 3.84 19.42C3.91767 19.4054 3.98721 19.3626 4.03521 19.2998C4.08322 19.2371 4.1063 19.1588 4.1 19.08Z" fill="black"/>
<path d="M12.56 16.15C12.56 16.0651 12.5263 15.9837 12.4663 15.9237C12.4063 15.8637 12.3249 15.83 12.24 15.83C12.155 15.835 12.075 15.8716 12.0158 15.9327C11.9565 15.9938 11.9224 16.0749 11.92 16.16C11.87 16.52 11.8 16.86 11.77 17.22V17.67V18.12C11.83 18.47 11.95 18.79 12.02 19.12C12.0172 19.1571 12.0222 19.1944 12.0345 19.2295C12.0468 19.2646 12.0663 19.2967 12.0917 19.324C12.117 19.3512 12.1477 19.3729 12.1818 19.3877C12.216 19.4025 12.2528 19.4101 12.29 19.41C12.3636 19.4102 12.4345 19.3824 12.4883 19.3322C12.5422 19.2821 12.5749 19.2134 12.58 19.14C12.6725 18.7875 12.7459 18.4303 12.8 18.07C12.8149 17.917 12.8149 17.763 12.8 17.61C12.7982 17.4587 12.7814 17.308 12.75 17.16C12.72 16.83 12.63 16.5 12.56 16.15Z" fill="black"/>
<path d="M11.75 10.61C11.75 11 11.65 11.39 11.62 11.79V12.29C11.6101 12.4598 11.6101 12.6301 11.62 12.8C11.696 13.2047 11.7928 13.6052 11.91 14C11.9151 14.0751 11.9493 14.1453 12.0053 14.1957C12.0613 14.2461 12.1347 14.2728 12.21 14.27C12.2477 14.2687 12.2847 14.2599 12.3189 14.244C12.353 14.2281 12.3836 14.2055 12.4088 14.1774C12.4341 14.1494 12.4534 14.1166 12.4656 14.081C12.4778 14.0453 12.4827 14.0076 12.48 13.97C12.48 13.57 12.63 13.19 12.67 12.79V12.28C12.6848 12.1103 12.6848 11.9397 12.67 11.77C12.6151 11.3654 12.5349 10.9646 12.43 10.57C12.4275 10.527 12.4164 10.485 12.3973 10.4464C12.3782 10.4079 12.3515 10.3736 12.3188 10.3456C12.2861 10.3176 12.2481 10.2964 12.2071 10.2834C12.1661 10.2705 12.1228 10.2659 12.08 10.27C12.0358 10.27 11.9921 10.2788 11.9514 10.296C11.9107 10.3132 11.8738 10.3384 11.843 10.3701C11.8123 10.4019 11.7882 10.4394 11.7722 10.4806C11.7562 10.5218 11.7487 10.5658 11.75 10.61Z" fill="black"/>
<path d="M11.23 8.83L11.42 9.15C11.4302 9.18544 11.4475 9.21844 11.4709 9.24694C11.4943 9.27544 11.5233 9.29884 11.5561 9.31571C11.5889 9.33257 11.6248 9.34254 11.6616 9.345C11.6984 9.34745 11.7353 9.34235 11.77 9.33C11.807 9.32399 11.8425 9.3106 11.8743 9.29062C11.906 9.27065 11.9334 9.24449 11.9549 9.21371C11.9764 9.18293 11.9914 9.14814 11.9991 9.11143C12.0069 9.07472 12.0072 9.03682 12 9C11.9832 8.80485 11.9531 8.61106 11.91 8.42C11.8745 8.30713 11.824 8.19951 11.76 8.1C11.5571 7.82624 11.2625 7.63458 10.93 7.56C10.7383 7.52444 10.5417 7.52444 10.35 7.56C9.95001 7.56 9.55 7.71 9.23 7.72C9.18793 7.7144 9.14517 7.71723 9.1042 7.72833C9.06323 7.73942 9.02488 7.75855 8.99137 7.78461C8.95787 7.81067 8.92989 7.84313 8.90905 7.88011C8.88821 7.91709 8.87494 7.95784 8.87 8C8.86137 8.08451 8.88565 8.16909 8.93781 8.23615C8.98996 8.3032 9.06597 8.34756 9.15 8.36L11.15 8.75C11.179 8.77421 11.2058 8.80098 11.23 8.83Z" fill="black"/>
<path d="M12.45 20.27C12.3748 20.2699 12.3025 20.2991 12.2484 20.3513C12.1943 20.4036 12.1626 20.4748 12.16 20.55C12.1244 20.8562 12.071 21.16 12 21.46C11.9528 21.6923 11.842 21.9069 11.68 22.08C11.5942 22.1798 11.4839 22.2556 11.36 22.3C11.181 22.3753 10.9973 22.4387 10.81 22.49C10.3706 22.5827 9.92664 22.6528 9.48 22.7C9.43394 22.6917 9.38663 22.6937 9.3414 22.7057C9.29618 22.7178 9.25415 22.7396 9.21826 22.7696C9.18238 22.7996 9.15352 22.8372 9.13372 22.8796C9.11392 22.922 9.10365 22.9682 9.10365 23.015C9.10365 23.0618 9.11392 23.108 9.13372 23.1504C9.15352 23.1928 9.18238 23.2303 9.21826 23.2604C9.25415 23.2904 9.29618 23.3122 9.3414 23.3242C9.38663 23.3363 9.43394 23.3382 9.48 23.33C10.1777 23.4561 10.8923 23.4561 11.59 23.33C11.9887 23.2421 12.3432 23.0152 12.59 22.69C12.7532 22.4018 12.8489 22.0804 12.87 21.75C12.8728 21.3445 12.8393 20.9395 12.77 20.54C12.769 20.5004 12.7596 20.4615 12.7425 20.4259C12.7254 20.3902 12.7009 20.3586 12.6707 20.3331C12.6404 20.3076 12.6051 20.2888 12.5671 20.2779C12.5291 20.267 12.4892 20.2643 12.45 20.27Z" fill="black"/>
<path d="M7.42 7.75C6.9836 7.61892 6.53939 7.51538 6.09 7.44C5.75397 7.40792 5.41491 7.43843 5.09 7.53C4.78058 7.60599 4.49741 7.76408 4.27036 7.98761C4.04332 8.21114 3.88081 8.49181 3.8 8.8C3.78428 8.84061 3.77702 8.88401 3.77865 8.92753C3.78029 8.97105 3.79079 9.01377 3.80951 9.05309C3.82824 9.09241 3.85479 9.12749 3.88754 9.15619C3.9203 9.18489 3.95856 9.20661 4 9.22C4.08087 9.24162 4.16699 9.2307 4.23989 9.18958C4.3128 9.14845 4.36669 9.08039 4.39 9C4.46419 8.88552 4.56101 8.78743 4.67451 8.71176C4.78801 8.63609 4.9158 8.58445 5.05 8.56C5.18141 8.52878 5.31522 8.50871 5.45 8.5C5.66 8.5 5.89 8.5 6.12 8.44L7.4 8.31C7.44027 8.31168 7.48043 8.30464 7.51772 8.28937C7.55502 8.2741 7.58858 8.25096 7.61612 8.22153C7.64365 8.19209 7.6645 8.15707 7.67726 8.11883C7.69001 8.0806 7.69436 8.04007 7.69 8C7.68495 7.93191 7.65428 7.86827 7.60418 7.82188C7.55409 7.7755 7.48828 7.74981 7.42 7.75Z" fill="black"/>
<path d="M7.38 22.67C6.9 22.67 6.19 22.61 5.53 22.5C5.32784 22.4807 5.1293 22.4335 4.94 22.36C4.83292 22.3303 4.73153 22.283 4.64 22.22C4.53982 22.0948 4.47122 21.9473 4.44 21.79C4.38153 21.5462 4.33811 21.2991 4.31 21.05C4.30321 20.97 4.26837 20.8951 4.21164 20.8384C4.15491 20.7816 4.07994 20.7468 4 20.74C3.95797 20.7413 3.91661 20.7508 3.87828 20.7681C3.83995 20.7854 3.8054 20.8101 3.77661 20.8407C3.74782 20.8714 3.72535 20.9074 3.71049 20.9467C3.69563 20.9861 3.68867 21.028 3.69 21.07C3.64996 21.4656 3.64996 21.8643 3.69 22.26C3.71882 22.5099 3.81956 22.7462 3.98 22.94C4.37318 23.3202 4.89338 23.5411 5.44 23.56C6.11697 23.5257 6.78789 23.415 7.44 23.23C7.51426 23.23 7.58548 23.2005 7.63799 23.148C7.6905 23.0955 7.72 23.0243 7.72 22.95C7.72 22.8757 7.6905 22.8045 7.63799 22.752C7.58548 22.6995 7.51426 22.67 7.44 22.67H7.38Z" fill="black"/>
</g>
<defs>
<clipPath id="clip0_1034_4719">
<rect width="24" height="24" fill="white"/>
</clipPath>
</defs>
</svg>
