<svg width="24" height="24" viewBox="0 0 24 24" fill="none" xmlns="http://www.w3.org/2000/svg">
<g clip-path="url(#clip0_1044_5429)">
<path fill-rule="evenodd" clip-rule="evenodd" d="M21.14 19.09L20.68 18.76V15.65C20.68 15.17 20.68 14.65 20.63 14.23C20.58 13.81 20.57 13.29 20.53 12.82C20.43 11.72 20.29 10.64 20.24 9.54001C20.2413 9.49536 20.2339 9.45088 20.218 9.40912C20.2021 9.36736 20.1782 9.32913 20.1475 9.29663C20.1169 9.26412 20.0801 9.23798 20.0394 9.21968C19.9986 9.20139 19.9547 9.19131 19.91 9.19001C19.8215 9.18726 19.7354 9.21916 19.67 9.27892C19.6046 9.33868 19.5652 9.4216 19.56 9.51001C19.3984 10.7838 19.3116 12.066 19.3 13.35C19.3 14.11 19.38 14.88 19.46 15.63C19.54 16.38 19.67 17.18 19.78 17.95C19.7469 17.9442 19.7131 17.9442 19.68 17.95H17.23C16.08 17.9 14.93 17.78 13.78 17.7C13 17.65 12.23 17.62 11.45 17.6C10.67 17.58 9.59 17.6 8.66 17.71C7.28 17.81 5.92 17.99 4.53 18.17C4.48524 18.1711 4.44119 18.1815 4.40071 18.2006C4.36023 18.2198 4.32421 18.2472 4.29499 18.2811C4.26578 18.315 4.244 18.3547 4.23109 18.3976C4.21817 18.4405 4.21439 18.4856 4.22 18.53C4.22766 18.6185 4.26961 18.7004 4.33688 18.7583C4.40414 18.8162 4.4914 18.8456 4.58 18.84H7.33C8.69 18.84 10.05 18.84 11.43 18.92C12.24 18.92 13.07 18.98 13.89 18.99C14.71 19 15.56 18.99 16.39 18.99C17.39 18.99 18.39 18.91 19.32 18.81L20.03 19.38L20.67 19.87C20.9974 20.119 21.302 20.3968 21.58 20.7L17.69 20.48C16.39 20.48 15.09 20.43 13.79 20.48C11.85 20.48 9.91 20.6 7.97 20.6C6.37 20.65 4.74 20.87 3.12 20.93C2.55707 20.96 1.99294 20.96 1.43 20.93C1.61505 20.518 1.85745 20.1342 2.15 19.79L2.79 19C3.44 18.57 4.1 18.3 3.89 17.91C3.8527 17.8628 3.80472 17.8251 3.75 17.8V15.49C3.75 14.1 3.91 12.72 4 11.34V9.24001C3.99451 9.13342 3.99451 9.02661 4 8.92001L4.33 9.00001L6.33 8.82001C8.03 8.66668 9.73 8.52668 11.43 8.40001C12.56 8.32001 13.7 8.24001 14.83 8.19001C14.8799 8.18872 14.9291 8.1776 14.9747 8.1573C15.0203 8.13699 15.0615 8.1079 15.0958 8.07168C15.1302 8.03546 15.1571 7.99283 15.1749 7.94621C15.1928 7.8996 15.2013 7.84992 15.2 7.80001C15.1974 7.69832 15.1552 7.60167 15.0823 7.53068C15.0094 7.45969 14.9117 7.41998 14.81 7.42001H10.53C9.1 7.42001 7.68 7.49001 6.26 7.54001L4.26 7.68001H3.64C3.50676 7.68094 3.37638 7.71882 3.26339 7.78944C3.1504 7.86006 3.05922 7.96065 3 8.08001C2.85696 8.42961 2.77901 8.8024 2.77 9.18001C2.77 9.93001 2.83 10.82 2.82 11.34C2.82 12.73 2.82 14.12 2.88 15.52C2.88 16.36 2.97 17.19 3.05 18.03L2.36 18.44L1.59 19.07C0.971023 19.6895 0.514225 20.452 0.260001 21.29C0.139532 21.6313 0.133932 22.0027 0.244055 22.3475C0.354178 22.6923 0.573987 22.9917 0.870001 23.2C1.18743 23.4176 1.54968 23.5611 1.93 23.62C2.4204 23.6863 2.91532 23.713 3.41 23.7L6.54 23.83C9.27 23.83 11.99 23.99 14.72 24C15.9 24 17.09 24 18.27 23.88L20.27 23.61L21.5 23.29L22.31 22.95C22.594 22.8398 22.8319 22.6361 22.9846 22.3725C23.1373 22.1089 23.1956 21.8012 23.15 21.5C22.7636 20.4973 22.0571 19.6501 21.14 19.09ZM21.83 22.09L21.16 22.34L20 22.56L18.17 22.74H15.86C12.73 22.74 9.61 22.55 6.48 22.58H3.4C2.96091 22.6201 2.51909 22.6201 2.08 22.58C1.8428 22.5588 1.61361 22.4835 1.41 22.36C1.26815 22.2591 1.16308 22.1147 1.11074 21.9486C1.05841 21.7826 1.06166 21.604 1.12 21.44C1.12 21.44 1.12 21.44 1.12 21.39C1.78313 21.4825 2.45077 21.5393 3.12 21.56C4.73 21.62 6.36 21.56 7.95 21.56H11.86C13.86 21.51 15.75 21.38 17.69 21.31H22.05H22.1C22.1442 21.375 22.1724 21.4494 22.1824 21.5273C22.1924 21.6053 22.1839 21.6844 22.1576 21.7584C22.1313 21.8325 22.088 21.8992 22.031 21.9534C21.9741 22.0075 21.9052 22.0475 21.83 22.07V22.09Z" fill="black"/>
<path fill-rule="evenodd" clip-rule="evenodd" d="M17.86 5.18002C17.6096 5.09159 17.3456 5.04759 17.08 5.05002C16.4732 5.06343 15.8858 5.26622 15.4 5.63002C15.3204 5.67246 15.261 5.74476 15.2347 5.83103C15.2085 5.91729 15.2176 6.01046 15.26 6.09002C15.28 6.12907 15.3076 6.16373 15.3412 6.19198C15.3748 6.22022 15.4137 6.24149 15.4556 6.25452C15.4975 6.26756 15.5416 6.27211 15.5853 6.2679C15.629 6.26369 15.6714 6.25082 15.71 6.23002C16.1365 6.12081 16.5835 6.12081 17.01 6.23002C17.2672 6.28082 17.5185 6.35789 17.76 6.46002C17.9678 6.52562 18.1583 6.63691 18.3175 6.78573C18.4767 6.93454 18.6006 7.1171 18.68 7.32002C18.6995 7.41833 18.756 7.50537 18.838 7.56309C18.9199 7.62081 19.0209 7.64478 19.12 7.63002C19.1693 7.62156 19.2164 7.60345 19.2587 7.57674C19.3009 7.55003 19.3375 7.51524 19.3663 7.47437C19.3951 7.43349 19.4156 7.38733 19.4265 7.33854C19.4374 7.28975 19.4386 7.23928 19.43 7.19002C19.4184 6.81996 19.3144 6.45868 19.1275 6.13906C18.9407 5.81944 18.6768 5.55163 18.36 5.36002C18.2018 5.27879 18.0337 5.21829 17.86 5.18002Z" fill="black"/>
<path fill-rule="evenodd" clip-rule="evenodd" d="M20.74 7.20002C20.7359 7.24943 20.7418 7.29916 20.7573 7.34625C20.7728 7.39334 20.7976 7.43683 20.8303 7.47414C20.8629 7.51145 20.9028 7.54182 20.9474 7.56345C20.992 7.58507 21.0405 7.59751 21.09 7.60002C21.1399 7.60412 21.1902 7.5983 21.2379 7.58291C21.2855 7.56751 21.3297 7.54284 21.3678 7.51031C21.4059 7.47778 21.4372 7.43804 21.4599 7.39336C21.4826 7.34869 21.4962 7.29998 21.5 7.25002C21.6279 6.56666 21.5833 5.86221 21.3702 5.20043C21.1572 4.53866 20.7825 3.94047 20.28 3.46002C20.0156 3.2138 19.7112 3.0143 19.38 2.87002C18.8912 2.64257 18.3591 2.52319 17.82 2.52002C16.6196 2.55651 15.4785 3.05016 14.63 3.90002C14.5608 3.95516 14.5159 4.03509 14.5046 4.12285C14.4934 4.2106 14.5169 4.29927 14.57 4.37002C14.6007 4.40116 14.6373 4.42589 14.6776 4.44277C14.718 4.45965 14.7613 4.46834 14.805 4.46834C14.8487 4.46834 14.892 4.45965 14.9324 4.44277C14.9727 4.42589 15.0093 4.40116 15.04 4.37002C15.8395 3.83347 16.8027 3.59622 17.76 3.70002C18.1344 3.73809 18.4996 3.83953 18.84 4.00002C19.4499 4.26993 19.9606 4.7231 20.3011 5.29658C20.6416 5.87005 20.795 6.53535 20.74 7.20002Z" fill="black"/>
<path fill-rule="evenodd" clip-rule="evenodd" d="M22.73 2.31001C22.2652 1.6833 21.6763 1.15907 21 0.77001C20.3535 0.370941 19.6319 0.108864 18.88 9.81241e-06C18.0107 -0.0878539 17.1327 0.00929198 16.3037 0.285059C15.4747 0.560826 14.7134 1.00897 14.07 1.60001C14.0346 1.62651 14.005 1.65984 13.9827 1.69803C13.9605 1.73621 13.9461 1.77848 13.9405 1.82231C13.9349 1.86615 13.9382 1.91066 13.9501 1.95321C13.9621 1.99576 13.9824 2.03548 14.01 2.07001C14.0365 2.10537 14.0698 2.13506 14.108 2.1573C14.1462 2.17954 14.1885 2.19388 14.2323 2.19947C14.2761 2.20507 14.3207 2.20181 14.3632 2.18987C14.4058 2.17794 14.4455 2.15758 14.48 2.13001C15.0876 1.71008 15.7731 1.41591 16.4961 1.26478C17.2191 1.11366 17.965 1.10863 18.69 1.25001C19.2871 1.37159 19.861 1.58764 20.39 1.89001C21.3058 2.39635 22.0396 3.17725 22.4881 4.12269C22.9366 5.06813 23.0772 6.13046 22.89 7.16001C22.8752 7.25913 22.8992 7.36013 22.9569 7.44206C23.0147 7.52398 23.1017 7.58054 23.2 7.60001C23.2494 7.61006 23.3003 7.60991 23.3496 7.59957C23.399 7.58924 23.4457 7.56893 23.4869 7.5399C23.5281 7.51088 23.5629 7.47374 23.5892 7.43077C23.6156 7.3878 23.6328 7.3399 23.64 7.29001C23.8557 6.44334 23.886 5.56009 23.729 4.70061C23.5719 3.84114 23.2312 3.0257 22.73 2.31001Z" fill="black"/>
</g>
<defs>
<clipPath id="clip0_1044_5429">
<rect width="24" height="24" fill="white"/>
</clipPath>
</defs>
</svg>
