<svg width="24" height="24" viewBox="0 0 24 24" fill="none" xmlns="http://www.w3.org/2000/svg">
<g clip-path="url(#clip0_1044_5446)">
<path fill-rule="evenodd" clip-rule="evenodd" d="M12.08 5.33C11.872 5.38722 11.6785 5.48809 11.5125 5.62588C11.3464 5.76367 11.2116 5.93523 11.117 6.12915C11.0224 6.32308 10.9702 6.53492 10.9638 6.75059C10.9574 6.96626 10.997 7.18082 11.08 7.38C11.79 9.17 13.76 8.38 14.21 7.84C14.3223 7.67316 14.3982 7.48449 14.4327 7.28633C14.4671 7.08817 14.4594 6.88497 14.41 6.69C14.3801 6.42655 14.293 6.17281 14.1549 5.94653C14.0167 5.72025 13.8307 5.5269 13.61 5.38C13.3707 5.2716 13.1125 5.2114 12.85 5.20282C12.5875 5.19424 12.3258 5.23745 12.08 5.33ZM13.33 7.38C13.26 7.46 12.33 8.31 12.07 7.09C12.057 7.03184 12.0564 6.97158 12.0685 6.91321C12.0805 6.85484 12.1049 6.79971 12.1399 6.75147C12.1749 6.70323 12.2197 6.66299 12.2715 6.63342C12.3232 6.60386 12.3807 6.58565 12.44 6.58C12.76 6.48 12.94 6.45 13.06 6.58C13.1812 6.69766 13.2677 6.84643 13.31 7.01C13.37 7.14 13.42 7.28 13.33 7.38Z" fill="black"/>
<path fill-rule="evenodd" clip-rule="evenodd" d="M15.45 4.73002C15.4857 4.69468 15.514 4.65263 15.5333 4.60629C15.5527 4.55994 15.5626 4.51023 15.5626 4.46002C15.5626 4.4098 15.5527 4.36009 15.5333 4.31375C15.514 4.2674 15.4857 4.22535 15.45 4.19002C14.882 3.51218 14.0703 3.08478 13.19 3.00002C12.8217 2.95019 12.4483 2.95019 12.08 3.00002C11.7342 3.0577 11.3978 3.16198 11.08 3.31002C10.2897 3.66732 9.62701 4.2568 9.18 5.00002C9.15308 5.03613 9.13354 5.07719 9.12248 5.12086C9.11143 5.16453 9.10909 5.20994 9.11559 5.25451C9.12872 5.34453 9.17707 5.42565 9.25 5.48002C9.28611 5.50694 9.32718 5.52648 9.37084 5.53753C9.41451 5.54858 9.45993 5.55093 9.5045 5.54443C9.59452 5.5313 9.67563 5.48295 9.73 5.41002C10.23 4.96027 10.8353 4.64385 11.49 4.49002C11.7559 4.41031 12.0264 4.34686 12.3 4.30002C12.571 4.25357 12.8451 4.22683 13.12 4.22002C13.757 4.16962 14.3903 4.35464 14.9 4.74002C14.9744 4.81137 15.074 4.85038 15.1771 4.8485C15.2801 4.84663 15.3783 4.80403 15.45 4.73002Z" fill="black"/>
<path fill-rule="evenodd" clip-rule="evenodd" d="M7.39 4.42001C8.0808 3.15039 9.21716 2.18146 10.58 1.70001C11.1388 1.4908 11.7248 1.36283 12.32 1.32001C12.9127 1.2698 13.5095 1.31026 14.09 1.44001C14.7849 1.59123 15.4423 1.88076 16.023 2.29137C16.6037 2.70197 17.0958 3.22524 17.47 3.83001C17.4933 3.87631 17.5255 3.9175 17.5649 3.95119C17.6043 3.98488 17.65 4.01038 17.6993 4.02621C17.7487 4.04204 17.8007 4.04787 17.8523 4.04337C17.9039 4.03887 17.9541 4.02413 18 4.00001C18.0434 3.97513 18.0815 3.94193 18.112 3.9023C18.1426 3.86267 18.165 3.8174 18.178 3.76909C18.191 3.72077 18.1944 3.67037 18.1878 3.62076C18.1813 3.57115 18.1651 3.52332 18.14 3.48001C17.7753 2.71237 17.2542 2.0294 16.6102 1.4749C15.9661 0.920391 15.2133 0.506586 14.4 0.26001C13.7003 0.0339364 12.9633 -0.0543587 12.23 9.59635e-06C11.4968 0.0454152 10.7783 0.225061 10.11 0.53001C8.5713 1.25059 7.37343 2.54171 6.77 4.13001C6.75096 4.17072 6.74012 4.21478 6.73811 4.25968C6.73609 4.30458 6.74294 4.34943 6.75826 4.39168C6.77359 4.43393 6.79708 4.47275 6.8274 4.50592C6.85773 4.53909 6.89429 4.56597 6.935 4.58501C6.97571 4.60405 7.01977 4.61489 7.06467 4.6169C7.10956 4.61891 7.15442 4.61206 7.19667 4.59674C7.23892 4.58142 7.27774 4.55793 7.31091 4.5276C7.34408 4.49728 7.37096 4.46072 7.39 4.42001Z" fill="black"/>
<path fill-rule="evenodd" clip-rule="evenodd" d="M22.38 10.08C22.3977 9.32005 22.3205 8.56085 22.15 7.82002C22.0662 7.51575 21.9209 7.23188 21.7231 6.98593C21.5253 6.73998 21.2792 6.53718 21 6.39002C20.6137 6.21402 20.1945 6.12199 19.77 6.12002C18.921 6.15884 18.0774 6.27601 17.25 6.47002C17.1606 6.48482 17.0804 6.53374 17.0263 6.60648C16.9722 6.67923 16.9484 6.77012 16.96 6.86002C16.977 6.94835 17.0265 7.02709 17.0987 7.08077C17.1709 7.13444 17.2605 7.15915 17.35 7.15002C18.0131 7.06277 18.6812 7.01934 19.35 7.02002C19.7338 7.02367 20.1111 7.11971 20.45 7.30002C20.7102 7.50369 20.8792 7.80211 20.92 8.13002C21.0243 8.79127 21.0545 9.46209 21.01 10.13V12.44V15.97C21.0257 16.8067 21.0925 17.6415 21.21 18.47L13.21 18.58C11.76 18.58 10.3 18.72 8.84 18.75H7.01L3.65 18.63C3.47592 18.6223 3.30235 18.6057 3.13 18.58C3.02 18.58 2.89 18.58 2.83 18.48C2.7955 18.3188 2.81301 18.1507 2.88 18V16.93H9.7C11.06 16.93 12.42 16.88 13.78 16.85C15.83 16.8 17.87 16.74 19.9 16.79C20.0012 16.7931 20.0998 16.7576 20.1759 16.6908C20.252 16.624 20.2999 16.5308 20.31 16.43C20.322 16.3325 20.2968 16.234 20.2393 16.1543C20.1818 16.0745 20.0963 16.0194 20 16C18 15.8 16 15.66 14 15.6H11.42C10.56 15.6 9.71 15.6 8.85 15.7C6.85 15.82 4.85 16.05 2.91 16.26V11.59C2.87562 10.5192 2.90567 9.44725 3 8.38002C3.06018 7.8204 3.17404 7.26785 3.34 6.73002C3.73 6.73002 4.1 6.88002 4.5 6.94002L5 7.00002H5.53L6.82 6.92002C6.87298 6.93212 6.9279 6.933 6.98124 6.92262C7.03459 6.91225 7.08517 6.89084 7.12975 6.85977C7.17434 6.8287 7.21194 6.78865 7.24014 6.7422C7.26834 6.69575 7.28652 6.64392 7.29352 6.59003C7.30052 6.53614 7.29618 6.48138 7.28078 6.42927C7.26538 6.37715 7.23926 6.32883 7.20409 6.2874C7.16892 6.24598 7.12548 6.21236 7.07656 6.1887C7.02764 6.16504 6.97431 6.15187 6.92 6.15002C6.51 6.00002 6.1 5.86002 5.66 5.77002C5.46936 5.72467 5.27542 5.69458 5.08 5.68002C4.88695 5.66513 4.69305 5.66513 4.5 5.68002C2.64 5.91002 2.57 5.84002 2.21 8.27002C2.08278 9.36564 2.01269 10.4671 2 11.57L1.7 16.84C1.7 17.21 1.59 17.79 1.62 18.28C1.63628 18.5834 1.72547 18.8784 1.88 19.14C2.01778 19.362 2.22017 19.5364 2.46 19.64C2.83596 19.7908 3.23519 19.8754 3.64 19.89C3.99 19.89 4.35 19.95 4.7 19.96C5.49 19.96 6.28 19.96 7.08 20.01C7.88 20.06 8.79 20.01 9.64 20.01L10.32 19.95L9.25 22.17C9.25 22.26 8.91 22.79 8.83 23.03C8.78107 23.1931 8.78107 23.3669 8.83 23.53C8.86917 23.6166 8.92581 23.6942 8.99637 23.7578C9.06692 23.8215 9.14986 23.8699 9.24 23.9C9.37188 23.9335 9.50539 23.9602 9.64 23.98C9.8232 23.99 10.0068 23.99 10.19 23.98C10.44 23.98 10.69 23.98 10.94 23.91C11.8094 23.7443 12.6875 23.6275 13.57 23.56C15.57 23.43 15.86 23.44 15.62 21.74C15.5236 21.2776 15.3656 20.8303 15.15 20.41C14.9874 20.1247 14.8105 19.8476 14.62 19.58L21.62 19.2C21.7217 19.1948 21.8173 19.1501 21.8864 19.0754C21.9556 19.0006 21.9927 18.9018 21.99 18.8C21.99 18.8 21.99 18.74 21.99 18.71C22.0314 18.6724 22.0637 18.6258 22.0845 18.5738C22.1053 18.5219 22.114 18.4658 22.11 18.41C22.0801 17.8638 22.0801 17.3163 22.11 16.77C22.11 15.44 22.29 14.11 22.38 12.77C22.37 11.89 22.39 11 22.38 10.08ZM14.07 21.08C14.18 21.42 14.32 21.75 14.45 22.08L14.72 22.7C14.1901 22.6165 13.6559 22.5631 13.12 22.54C12.3458 22.5269 11.5714 22.5536 10.8 22.62H10.33C10.3349 22.5969 10.3349 22.5731 10.33 22.55C10.54 21.83 10.71 21.11 10.92 20.4C10.98 20.2 11.05 20 11.12 19.81C11.86 19.74 12.61 19.68 13.35 19.63H13.71C13.85 20.13 13.93 20.61 14.07 21.1V21.08Z" fill="black"/>
</g>
<defs>
<clipPath id="clip0_1044_5446">
<rect width="24" height="24" fill="white"/>
</clipPath>
</defs>
</svg>
