<svg width="24" height="24" viewBox="0 0 24 24" fill="none" xmlns="http://www.w3.org/2000/svg">
<g clip-path="url(#clip0_1044_5480)">
<path fill-rule="evenodd" clip-rule="evenodd" d="M17.26 7.56C17.207 7.48707 17.1271 7.43819 17.038 7.42412C16.9489 7.41006 16.8579 7.43196 16.785 7.485C16.7121 7.53804 16.6632 7.61789 16.6491 7.70697C16.6351 7.79605 16.6569 7.88707 16.71 7.96C17.35 9.02 15.25 9.58 14.94 8.46C14.64 7.69 15.63 6.77 16.21 7.12C16.275 7.16641 16.3557 7.18511 16.4345 7.17199C16.5133 7.15886 16.5836 7.11498 16.63 7.05C16.6764 6.98502 16.6951 6.90427 16.682 6.8255C16.6688 6.74674 16.625 6.67641 16.56 6.63C15.49 5.71 13.46 7.07 13.85 8.79C13.9951 9.18002 14.2582 9.51505 14.6028 9.74844C14.9473 9.98183 15.356 10.1019 15.7721 10.092C16.1881 10.0821 16.5906 9.9427 16.9237 9.69318C17.2567 9.44366 17.5036 9.09648 17.63 8.7C17.6512 8.49468 17.6293 8.2872 17.5656 8.09087C17.5018 7.89454 17.3978 7.71371 17.26 7.56Z" fill="black"/>
<path fill-rule="evenodd" clip-rule="evenodd" d="M14.94 4.24C15.4793 4.30022 16.002 4.46316 16.48 4.72C17.2918 5.1911 17.9799 5.84845 18.4876 6.63782C18.9953 7.42719 19.308 8.32597 19.4 9.26C19.408 9.35017 19.4514 9.43349 19.5208 9.49163C19.5902 9.54976 19.6798 9.57795 19.77 9.57C19.8602 9.56204 19.9435 9.51859 20.0016 9.4492C20.0598 9.37981 20.088 9.29017 20.08 9.2C20 6 18.88 4.93 17 3.89C16.1785 3.56388 15.2738 3.51128 14.42 3.74C14.3644 3.79776 14.3333 3.87482 14.3333 3.955C14.3333 4.03518 14.3644 4.11224 14.42 4.17C14.59 4.33 14.73 4.22 14.94 4.24Z" fill="black"/>
<path fill-rule="evenodd" clip-rule="evenodd" d="M15.34 0.820013C16.2217 0.879124 17.0839 1.10655 17.88 1.49001C19.2786 2.30047 20.4379 3.46661 21.24 4.87001C21.9926 6.23117 22.4236 7.74654 22.5 9.30001C22.5 9.39019 22.5358 9.47667 22.5996 9.54043C22.6633 9.60419 22.7498 9.64001 22.84 9.64001C22.9302 9.64001 23.0167 9.60419 23.0804 9.54043C23.1442 9.47667 23.18 9.39019 23.18 9.30001C23.2242 7.60861 22.8822 5.92939 22.18 4.39001C21.18 2.33001 20.18 1.78001 18.37 0.690013C17.56 0.200013 15.06 1.30683e-05 14.75 0.340013C14.7213 0.367968 14.6984 0.401397 14.6828 0.438324C14.6673 0.475252 14.6592 0.514929 14.6592 0.555013C14.6592 0.595097 14.6673 0.634774 14.6828 0.671702C14.6984 0.708629 14.7213 0.742058 14.75 0.770013C14.9 0.940013 15 0.800013 15.34 0.820013Z" fill="black"/>
<path fill-rule="evenodd" clip-rule="evenodd" d="M9.1 10C9.1 9.28 9.28 7.72 8.37 7.25C7.90375 7.08732 7.41381 7.00285 6.92 7C6.66 7 6.71 7.16 6.7 6.52C6.68356 6.05369 6.4943 5.61015 6.16901 5.27563C5.84373 4.9411 5.40567 4.73949 4.94 4.71H4.6C4.74856 4.18022 4.74856 3.61978 4.6 3.09C4.56895 2.84794 4.52556 2.60763 4.47 2.37C4.4 2 4.21 2 4.12 2C3.71 2 3.46 3.78 3.69 4.67C1.45 4.78 2 6.66 2 7.31C1.52 7.31 0.81 7.24 0.47 7.6C0.13 7.96 0.19 8.62 0.15 9C0 10.33 0 16.56 0 20.29C0 21.36 0.19 22.46 0.14 23.5C0.14 23.5796 0.171607 23.6559 0.227868 23.7121C0.284129 23.7684 0.360435 23.8 0.44 23.8C0.519565 23.8 0.595871 23.7684 0.652132 23.7121C0.708393 23.6559 0.74 23.5796 0.74 23.5C0.83 22.42 0.69 21.32 0.74 20.25C0.74 18.25 0.89 14.13 1.07 12.12C1.07 12.04 1.41 8.4 1.36 8.32C8.91 8.38 7.8 7.24 8 10.12C8.31 13.82 8.26 14.51 8.55 22.61C8.55 22.61 8.5 22.79 8.55 22.82C8.52798 22.8652 8.51595 22.9146 8.51472 22.9648C8.51349 23.015 8.52309 23.0649 8.54287 23.1111C8.56265 23.1573 8.59215 23.1987 8.62936 23.2325C8.66656 23.2663 8.71061 23.2916 8.75849 23.3069C8.80638 23.3221 8.85698 23.3269 8.90687 23.3208C8.95675 23.3147 9.00474 23.298 9.04758 23.2717C9.09042 23.2455 9.1271 23.2103 9.15513 23.1686C9.18315 23.1268 9.20187 23.0796 9.21 23.03C9.29 23 9.34 14.31 9.1 10ZM2.68 7.27C2.88 6.16 2.68 5.9 3.54 5.8C3.97547 5.75426 4.41453 5.75426 4.85 5.8C5.44 5.8 5.75 6.02 5.91 6.98C4.83963 7.13726 3.76126 7.23408 2.68 7.27Z" fill="black"/>
<path fill-rule="evenodd" clip-rule="evenodd" d="M16.94 15C16.9673 14.6456 16.872 14.2925 16.67 14C16.32 13.66 15.84 13.82 15.43 13.77C14.3957 13.7176 13.3588 13.751 12.33 13.87C11.7082 13.8308 11.084 13.8644 10.47 13.97C10.11 14.08 10.27 14.58 10.61 14.55C11.1848 14.548 11.7593 14.5814 12.33 14.65C12.94 14.65 13.54 14.65 14.14 14.72C14.52 14.72 15.62 14.81 15.82 14.81C15.82 15.21 15.76 14.23 16.23 22.59C16.2439 22.6714 16.2862 22.7453 16.3493 22.7986C16.4125 22.8519 16.4924 22.8811 16.575 22.8811C16.6576 22.8811 16.7376 22.8519 16.8007 22.7986C16.8638 22.7453 16.9061 22.6714 16.92 22.59C17.0754 20.0626 17.0821 17.5282 16.94 15Z" fill="black"/>
<path fill-rule="evenodd" clip-rule="evenodd" d="M24 17.07C24 16.78 24.16 16.13 23.82 15.78C23.48 15.43 22.64 15.55 22.23 15.5C20.82 15.35 19.37 15.81 17.95 15.75C17.8704 15.7407 17.7904 15.7634 17.7276 15.8131C17.6648 15.8628 17.6243 15.9355 17.615 16.015C17.6057 16.0946 17.6284 16.1746 17.6781 16.2374C17.7278 16.3002 17.8004 16.3407 17.88 16.35C19.01 16.53 20.16 16.35 21.29 16.49C21.8375 16.555 22.3896 16.5718 22.94 16.54C22.94 16.77 22.88 17.61 22.94 17.81C23 18.01 23.1 22.7 23.19 22.91C23.28 23.12 23.82 23.22 23.86 22.7C23.86 22.59 23.86 22.62 23.93 20.42C24.0197 19.3057 24.0431 18.1871 24 17.07Z" fill="black"/>
<path fill-rule="evenodd" clip-rule="evenodd" d="M14 20C13.4151 19.8 12.7897 19.7484 12.18 19.85C11.01 20.17 11.28 20.1 11.18 20.19C11.08 20.28 11.04 20.57 11.44 20.71C11.58 20.76 12.09 20.87 12.19 20.89C12.8039 20.9703 13.4281 20.9017 14.01 20.69C14.0913 20.675 14.1646 20.6317 14.217 20.5677C14.2693 20.5038 14.2974 20.4234 14.2962 20.3408C14.295 20.2582 14.2646 20.1786 14.2104 20.1163C14.1562 20.0539 14.0817 20.0127 14 20Z" fill="black"/>
<path fill-rule="evenodd" clip-rule="evenodd" d="M20.62 21C20.2317 20.9746 19.8432 21.0468 19.49 21.21C19.39 21.21 19.22 21.61 19.68 21.8C20.4 22.09 21.68 22.07 21.68 21.51C21.71 21.2 21.05 21 20.62 21Z" fill="black"/>
<path fill-rule="evenodd" clip-rule="evenodd" d="M21.31 18.36C21.31 18.1 20.65 17.85 20.22 17.85C19.8317 17.8246 19.4432 17.8968 19.09 18.06C18.99 18.06 18.82 18.46 19.28 18.65C20 19 21.32 18.92 21.31 18.36Z" fill="black"/>
<path fill-rule="evenodd" clip-rule="evenodd" d="M14.27 16.54C13.8786 16.5162 13.4873 16.5883 13.13 16.75C13.04 16.75 12.86 17.15 13.32 17.34C14.05 17.64 15.32 17.61 15.32 17.05C15.36 16.79 14.69 16.54 14.27 16.54Z" fill="black"/>
<path fill-rule="evenodd" clip-rule="evenodd" d="M12.47 17.05C12.47 16.79 11.81 16.54 11.38 16.54C10.9917 16.5146 10.6032 16.5868 10.25 16.75C10.15 16.75 9.98 17.15 10.44 17.34C11.16 17.64 12.48 17.61 12.47 17.05Z" fill="black"/>
<path fill-rule="evenodd" clip-rule="evenodd" d="M6.21001 19.21C5.81858 19.1862 5.42726 19.2583 5.07001 19.42C4.98001 19.42 4.80001 19.82 5.26001 20.01C5.99001 20.3 7.26001 20.28 7.26001 19.72C7.30001 19.46 6.64001 19.21 6.21001 19.21Z" fill="black"/>
<path fill-rule="evenodd" clip-rule="evenodd" d="M3 19.21C2.6117 19.1846 2.22322 19.2567 1.87 19.42C1.77 19.42 1.6 19.82 2.06 20.01C2.78 20.3 4.06 20.28 4.06 19.72C4.12 19.46 3.46 19.21 3 19.21Z" fill="black"/>
<path fill-rule="evenodd" clip-rule="evenodd" d="M6.21001 14.74C5.81443 14.7318 5.4229 14.8211 5.07001 15C4.98001 15 4.80001 15.4 5.26001 15.59C5.99001 15.88 7.26001 15.85 7.26001 15.3C7.30001 15 6.64001 14.74 6.21001 14.74Z" fill="black"/>
<path fill-rule="evenodd" clip-rule="evenodd" d="M2.99999 14.74C2.61755 14.7351 2.23976 14.8244 1.89999 15C1.79999 15 1.62999 15.4 2.08999 15.59C2.80999 15.88 4.09 15.85 4.09 15.3C4.12 15 3.45999 14.74 2.99999 14.74Z" fill="black"/>
<path fill-rule="evenodd" clip-rule="evenodd" d="M6.21001 10.27C5.81858 10.2462 5.42726 10.3183 5.07001 10.48C4.98001 10.48 4.80001 10.88 5.26001 11.06C5.99001 11.36 7.26001 11.33 7.26001 10.78C7.30001 10.51 6.64001 10.27 6.21001 10.27Z" fill="black"/>
<path fill-rule="evenodd" clip-rule="evenodd" d="M3 10.27C2.6117 10.2445 2.22322 10.3167 1.87 10.48C1.77 10.48 1.6 10.88 2.06 11.06C2.78 11.36 4.06 11.33 4.06 10.78C4.12 10.51 3.46 10.27 3 10.27Z" fill="black"/>
</g>
<defs>
<clipPath id="clip0_1044_5480">
<rect width="24" height="24" fill="white"/>
</clipPath>
</defs>
</svg>
