<svg width="24" height="24" viewBox="0 0 24 24" fill="none" xmlns="http://www.w3.org/2000/svg">
<g clip-path="url(#clip0_1044_5458)">
<path fill-rule="evenodd" clip-rule="evenodd" d="M17.6 6.28998C14.52 4.80998 12.07 10.12 15.46 10.35C15.5082 10.3618 15.5584 10.3631 15.6071 10.354C15.6559 10.345 15.7022 10.3256 15.7429 10.2973C15.7837 10.2689 15.8179 10.2322 15.8434 10.1897C15.8688 10.1471 15.885 10.0996 15.8907 10.0503C15.8964 10.001 15.8916 9.95105 15.8765 9.90377C15.8615 9.8565 15.8365 9.81296 15.8034 9.77605C15.7702 9.73914 15.7296 9.70971 15.6842 9.6897C15.6388 9.66969 15.5896 9.65956 15.54 9.65998C13.59 9.36998 15.54 6.65999 17.1 7.33999C17.3255 7.4824 17.5074 7.68427 17.6256 7.92338C17.7438 8.16249 17.7938 8.42957 17.77 8.69524C17.7462 8.96091 17.6496 9.21487 17.4909 9.42919C17.3321 9.64351 17.1172 9.80987 16.87 9.90998C16.7906 9.92617 16.7208 9.97278 16.6753 10.0398C16.6299 10.1069 16.6125 10.189 16.6269 10.2687C16.6413 10.3485 16.6863 10.4194 16.7522 10.4663C16.8182 10.5133 16.9 10.5325 16.98 10.52C18.82 10.3 19.47 7.31998 17.6 6.28998Z" fill="black"/>
<path fill-rule="evenodd" clip-rule="evenodd" d="M16.83 3.10999C15.9927 3.12707 15.1643 3.28599 14.38 3.57999C13.424 4.01203 12.6094 4.7053 12.03 5.57999C12.0215 5.66072 12.0451 5.74157 12.0956 5.80514C12.146 5.86872 12.2195 5.90995 12.3 5.91999C12.55 5.91999 12.57 5.75999 12.76 5.59999C13.313 5.16034 13.9393 4.82181 14.61 4.59999C16.94 4.17999 18.33 3.96999 20.7 5.85999C20.769 5.92231 20.8599 5.95469 20.9527 5.95C21.0455 5.94531 21.1327 5.90394 21.195 5.83499C21.2573 5.76603 21.2897 5.67514 21.285 5.58231C21.2803 5.48948 21.239 5.40231 21.17 5.33999C20.6305 4.69921 19.969 4.17209 19.2239 3.78926C18.4788 3.40643 17.6651 3.17553 16.83 3.10999Z" fill="black"/>
<path fill-rule="evenodd" clip-rule="evenodd" d="M23.85 3.68999C22.6013 2.24518 21.009 1.13784 19.22 0.469986C16.81 -0.360014 15.46 -1.43647e-05 13 0.689986C11.82 0.999986 9.56999 3.04999 9.52999 3.49999C9.52425 3.58173 9.55009 3.66257 9.60219 3.72582C9.65428 3.78908 9.72866 3.82994 9.80999 3.83999C10.05 3.83999 9.91999 3.83999 10.31 3.42999C11.1698 2.66526 12.163 2.06527 13.24 1.65999C15.24 1.23999 16.87 0.899986 18.87 1.51999C20.5584 2.00832 22.0938 2.92059 23.33 4.16999C23.3936 4.23894 23.4821 4.27979 23.5758 4.28354C23.6696 4.28729 23.761 4.25364 23.83 4.18999C23.8989 4.12633 23.9398 4.0379 23.9435 3.94413C23.9473 3.85036 23.9136 3.75894 23.85 3.68999Z" fill="black"/>
<path fill-rule="evenodd" clip-rule="evenodd" d="M14.54 14.39C12.8069 12.5477 10.8828 10.8951 8.8 9.45999C7.75 8.93999 6.71 10.2 6.14 10.61C5.14 11.37 0.140002 16.18 0.0600025 16.81C0.055884 16.8502 0.0599338 16.8908 0.0719089 16.9294C0.0838839 16.968 0.103537 17.0038 0.129688 17.0347C0.15584 17.0655 0.18795 17.0907 0.224091 17.1088C0.260232 17.1269 0.299658 17.1375 0.340003 17.14C0.660002 17.14 -0.119998 17.43 3.6 14.14C4.62294 13.2137 5.69445 12.3424 6.81 11.53C6.98 11.41 8.08 10.41 8.27 10.53C10.2359 11.8828 12.1008 13.3767 13.85 15L15.85 16.9C16.04 17.12 16.43 17.6 16.78 17.54C16.8257 17.5391 16.8708 17.5285 16.912 17.5087C16.9533 17.489 16.9898 17.4606 17.0192 17.4256C17.0486 17.3905 17.0701 17.3495 17.0823 17.3055C17.0945 17.2614 17.0972 17.2152 17.09 17.17C16.2897 16.1989 15.4385 15.2709 14.54 14.39Z" fill="black"/>
<path fill-rule="evenodd" clip-rule="evenodd" d="M14.27 17.74C14.2083 19.0089 14.0579 20.272 13.82 21.52C13.75 21.87 13.63 22.44 13.34 22.64C12.3459 22.7939 11.3341 22.7939 10.34 22.64C9.94001 22.51 10.88 18.59 7.88001 18.91C7.189 18.9895 6.54856 19.3115 6.07252 19.8186C5.59648 20.3258 5.31567 20.9853 5.28001 21.68V22.91C4.43983 22.9491 3.59798 22.9324 2.76001 22.86C2.76001 22.37 2.39001 22.86 2.54001 17.12C2.54001 16.68 2.65001 16.33 2.41001 16.29C2.17001 16.25 1.97001 16.13 1.94001 16.43C1.72159 18.6127 1.65476 20.808 1.74001 23C1.74991 23.1412 1.79666 23.2775 1.87562 23.395C1.95458 23.5126 2.06298 23.6074 2.19001 23.67C3.35978 23.8953 4.54876 24.0058 5.74001 24C7.00001 23.9 5.92001 21.78 7.00001 20.6C7.49001 20.04 8.64001 19.75 8.93001 20.5C9.35001 21.59 9.04001 23.21 9.83001 23.55C11.1959 23.846 12.6151 23.784 13.95 23.37C14.4076 22.9146 14.6786 22.3048 14.71 21.66C14.8973 20.3616 14.9942 19.0518 15 17.74C15 17.6432 14.9616 17.5503 14.8931 17.4819C14.8247 17.4134 14.7318 17.375 14.635 17.375C14.5382 17.375 14.4454 17.4134 14.3769 17.4819C14.3085 17.5503 14.27 17.6432 14.27 17.74Z" fill="black"/>
</g>
<defs>
<clipPath id="clip0_1044_5458">
<rect width="24" height="24" fill="white"/>
</clipPath>
</defs>
</svg>
