<svg width="24" height="24" viewBox="0 0 24 24" fill="none" xmlns="http://www.w3.org/2000/svg">
<g clip-path="url(#clip0_1030_2879)">
<path fill-rule="evenodd" clip-rule="evenodd" d="M4.99998 17.21C3.32826 15.9389 2.14527 14.1308 1.64998 12.09C1.31588 10.8859 1.16088 9.63923 1.18998 8.39C1.18792 7.58503 1.28192 6.78269 1.46998 6C1.70568 5.05671 2.08692 4.15591 2.59998 3.33C3.10948 2.51837 3.7557 1.8011 4.50998 1.21C4.58139 1.15453 4.62856 1.07357 4.64161 0.984092C4.65466 0.894612 4.63257 0.803554 4.57998 0.729999C4.52629 0.659267 4.44706 0.612344 4.35923 0.599263C4.2714 0.586182 4.18194 0.607981 4.10998 0.659999C3.24645 1.25317 2.49484 1.99463 1.88998 2.85C1.27745 3.70958 0.798681 4.65699 0.469975 5.66C0.192205 6.53467 0.0341032 7.44292 -2.4837e-05 8.36C-0.0428175 9.71626 0.150043 11.0697 0.569975 12.36C1.23776 14.5593 2.67554 16.4444 4.61998 17.67C4.68806 17.7121 4.7698 17.7263 4.84809 17.7095C4.92638 17.6928 4.99514 17.6463 5.03998 17.58C5.07777 17.5234 5.09447 17.4554 5.08715 17.3877C5.07984 17.3201 5.04898 17.2572 4.99998 17.21Z" fill="black"/>
<path fill-rule="evenodd" clip-rule="evenodd" d="M23.53 5.58C23.2034 4.57922 22.7244 3.63479 22.11 2.78C21.5054 1.92159 20.7538 1.1768 19.89 0.579999C19.818 0.527981 19.7286 0.506182 19.6407 0.519263C19.5529 0.532344 19.4737 0.579267 19.42 0.649999C19.3674 0.723554 19.3453 0.814612 19.3584 0.904093C19.3714 0.993573 19.4186 1.07453 19.49 1.13C20.2443 1.7211 20.8905 2.43837 21.4 3.25C21.9084 4.06045 22.2894 4.94405 22.53 5.87C22.7361 6.67057 22.8436 7.49334 22.85 8.32C22.8781 9.5626 22.7231 10.8026 22.39 12C21.8887 14.0512 20.6904 15.8646 19 17.13C18.9665 17.1504 18.9374 17.1773 18.9146 17.2092C18.8917 17.2412 18.8756 17.2774 18.8672 17.3157C18.8588 17.3541 18.8583 17.3937 18.8656 17.4323C18.873 17.4708 18.8881 17.5075 18.91 17.54C18.9548 17.6063 19.0236 17.6528 19.1019 17.6695C19.1802 17.6863 19.2619 17.6721 19.33 17.63C21.2744 16.4044 22.7122 14.5193 23.38 12.32C23.7999 11.0297 23.9928 9.67626 23.95 8.32C23.9357 7.39178 23.7944 6.46988 23.53 5.58Z" fill="black"/>
<path fill-rule="evenodd" clip-rule="evenodd" d="M6.66995 6.08C6.93236 5.61417 7.27029 5.19514 7.66995 4.84C7.73778 4.78173 7.78149 4.70031 7.79259 4.61158C7.80368 4.52285 7.78135 4.43317 7.72995 4.36C7.70254 4.32431 7.66832 4.29443 7.62928 4.27207C7.59023 4.2497 7.54713 4.23532 7.50249 4.22974C7.45784 4.22415 7.41252 4.22749 7.36918 4.23955C7.32583 4.25161 7.2853 4.27216 7.24995 4.3C6.76671 4.664 6.34473 5.10286 5.99995 5.6C5.62769 6.11341 5.33443 6.6797 5.12995 7.28C4.91412 7.9243 4.80929 8.60059 4.81995 9.28C4.82092 9.94142 4.92207 10.5989 5.11995 11.23C5.49398 12.4765 6.2581 13.5701 7.29995 14.35C7.32938 14.3801 7.36479 14.4036 7.40391 14.4191C7.44302 14.4346 7.48495 14.4416 7.52697 14.4399C7.569 14.4381 7.61018 14.4275 7.64785 14.4088C7.68552 14.3901 7.71883 14.3636 7.74562 14.3312C7.77241 14.2988 7.79208 14.2611 7.80336 14.2205C7.81463 14.18 7.81726 14.1376 7.81106 14.096C7.80487 14.0544 7.79 14.0145 7.76741 13.979C7.74482 13.9436 7.71503 13.9132 7.67995 13.89C6.85852 13.0768 6.30993 12.0285 6.10995 10.89C5.98409 10.3386 5.91705 9.77549 5.90995 9.21C5.88902 8.65145 5.94624 8.09271 6.07995 7.55C6.20412 7.03393 6.40288 6.53872 6.66995 6.08Z" fill="black"/>
<path fill-rule="evenodd" clip-rule="evenodd" d="M19.23 9.16C19.2406 8.48059 19.1358 7.8043 18.92 7.16C18.7176 6.56191 18.4241 5.99862 18.05 5.49C17.6809 4.98041 17.2278 4.53741 16.71 4.18C16.6376 4.12629 16.5473 4.10255 16.4579 4.11373C16.3685 4.12491 16.2869 4.17013 16.23 4.24C16.1786 4.31317 16.1562 4.40285 16.1673 4.49158C16.1784 4.58031 16.2221 4.66173 16.29 4.72C16.6896 5.07514 17.0276 5.49417 17.29 5.96C17.5572 6.42575 17.7559 6.92757 17.88 7.45C18.0137 7.99271 18.0709 8.55145 18.05 9.11C18.0429 9.67549 17.9758 10.2386 17.85 10.79C17.6525 11.9293 17.1036 12.9784 16.28 13.79C16.2515 13.8171 16.2289 13.8497 16.2134 13.8858C16.1979 13.9219 16.19 13.9607 16.19 14C16.19 14.0393 16.1979 14.0781 16.2134 14.1142C16.2289 14.1503 16.2515 14.1829 16.28 14.21C16.336 14.265 16.4114 14.2958 16.49 14.2958C16.5685 14.2958 16.6439 14.265 16.7 14.21C17.7676 13.4233 18.5504 12.3107 18.93 11.04C19.1217 10.4315 19.2228 9.79799 19.23 9.16Z" fill="black"/>
<path fill-rule="evenodd" clip-rule="evenodd" d="M13 7.4C12.4613 7.26843 11.8981 7.27556 11.363 7.42071C10.8279 7.56585 10.3383 7.84429 9.93996 8.23C9.53344 8.60332 9.2325 9.0772 9.06747 9.60389C8.90245 10.1306 8.87916 10.6914 8.99996 11.23C9.24499 12.0544 9.7771 12.7639 10.5 13.23C10.85 13.4647 11.2588 13.5963 11.68 13.61C11.68 14.32 11.56 15.29 11.51 16.34V17.8V19.26C11.51 20.69 11.66 21.97 11.71 22.66C11.71 23.18 11.71 23.32 11.83 23.41C11.95 23.5 12.12 23.56 12.26 23.41C12.4 23.26 12.33 23.35 12.38 22.55C12.43 21.75 12.56 20.5 12.62 19.06V16.73C12.62 15.07 12.49 13.56 12.46 12.85V12.46C12.46 12.26 12.27 12.25 12.11 12.29C11.95 12.33 11.82 12.29 11.79 12.46V12.95C11.3842 12.8882 11.0128 12.6866 10.74 12.38C10.3268 12.0189 10.0396 11.5355 9.91996 11C9.87047 10.6269 9.91705 10.2474 10.0553 9.89744C10.1936 9.54743 10.4189 9.23853 10.71 9C10.9738 8.7525 11.293 8.57165 11.6408 8.4725C11.9887 8.37335 12.3553 8.35878 12.71 8.43C13.1884 8.50463 13.6189 8.76294 13.91 9.15C14.1925 9.5908 14.3354 10.1066 14.32 10.63C14.3535 10.9983 14.2843 11.3687 14.12 11.7C13.9054 12.0243 13.622 12.2975 13.29 12.5C13.2517 12.5235 13.2186 12.5544 13.1923 12.5908C13.1661 12.6272 13.1473 12.6684 13.1371 12.7121C13.1269 12.7558 13.1254 12.8011 13.1327 12.8453C13.1401 12.8896 13.1561 12.932 13.18 12.97C13.2292 13.0452 13.3055 13.0985 13.393 13.119C13.4805 13.1395 13.5725 13.1255 13.65 13.08C14.0911 12.8353 14.4707 12.4933 14.76 12.08C15.043 11.6458 15.1925 11.1382 15.19 10.62C15.2542 9.90908 15.1045 9.19518 14.76 8.57C14.3393 7.97463 13.7118 7.55747 13 7.4Z" fill="black"/>
</g>
<defs>
<clipPath id="clip0_1030_2879">
<rect width="24" height="24" fill="white"/>
</clipPath>
</defs>
</svg>
