<svg width="24" height="24" viewBox="0 0 24 24" fill="none" xmlns="http://www.w3.org/2000/svg">
<g clip-path="url(#clip0_1051_8971)">
<path fill-rule="evenodd" clip-rule="evenodd" d="M0.636027 6.03399C1.0397 5.39951 1.66784 4.94063 2.39503 4.74899C2.49647 4.72817 2.60203 4.7485 2.68849 4.80552C2.77494 4.86253 2.83521 4.95155 2.85603 5.05299C2.87685 5.15444 2.85651 5.26 2.7995 5.34645C2.74249 5.43291 2.65347 5.49317 2.55203 5.51399C2.07922 5.68298 1.68878 6.02612 1.46047 6.47331C1.23217 6.9205 1.18323 7.43799 1.32366 7.92005C1.46409 8.40212 1.78329 8.81236 2.21604 9.06698C2.64879 9.3216 3.16244 9.40137 3.65203 9.28999C4.10096 9.1783 4.4951 8.90962 4.76314 8.53256C5.03117 8.15549 5.1554 7.69495 5.11336 7.23424C5.07131 6.77353 4.86576 6.34309 4.53389 6.02077C4.20203 5.69846 3.76577 5.50557 3.30403 5.47699C3.19821 5.47013 3.09911 5.42274 3.02735 5.34467C2.95558 5.2666 2.91669 5.16387 2.91875 5.05785C2.92081 4.95183 2.96367 4.85068 3.03841 4.77546C3.11315 4.70024 3.21402 4.65673 3.32003 4.65399C3.82499 4.68144 4.31473 4.83664 4.74333 5.10505C5.17193 5.37347 5.52536 5.74631 5.77051 6.18863C6.01565 6.63095 6.14448 7.12827 6.14492 7.63399C6.14536 8.1397 6.0174 8.63724 5.77303 9.07999C6.56264 9.03168 7.34845 9.2228 8.02769 9.62834C8.70692 10.0339 9.24796 10.635 9.58003 11.353C11.255 14.149 12.151 16.262 10.84 19.263C13.763 22.344 11.506 24.75 9.51203 23.785C8.41845 23.0084 7.53526 21.9719 6.94203 20.769C6.82403 20.368 6.85703 20.243 6.82703 20.226C6.81103 20.216 6.77403 20.242 6.67903 20.271C6.29603 20.384 6.13303 20.407 6.03203 20.498C5.90503 20.611 5.87403 20.83 5.63103 21.463C5.59603 21.557 5.56203 21.653 5.52803 21.751C5.26503 22.491 4.97203 23.32 4.22603 23.704C3.95045 23.8377 3.64607 23.9012 3.34002 23.8887C3.03397 23.8763 2.73575 23.7884 2.47192 23.6327C2.2081 23.4771 1.98687 23.2586 1.82793 22.9968C1.669 22.735 1.57731 22.4379 1.56103 22.132C1.57952 20.8855 1.95919 19.6711 2.65403 18.636C3.09286 18.1479 3.59854 17.7244 4.15603 17.378C3.57077 16.5488 3.27678 15.549 3.32003 14.535C3.30847 14.3293 3.2958 14.1236 3.28203 13.918C3.20503 12.733 3.12703 11.526 3.48203 10.608L3.46003 10.61C2.9017 10.6672 2.33854 10.566 1.8351 10.3179C1.33166 10.0698 0.908296 9.68488 0.613539 9.20726C0.318782 8.72964 0.164555 8.17863 0.168532 7.61739C0.172509 7.05615 0.33453 6.50739 0.636027 6.03399ZM3.33003 19.172C3.75632 18.6751 4.2565 18.2468 4.81303 17.902V17.909C5.02502 18.022 5.25794 18.0904 5.49739 18.1099C5.73685 18.1293 5.97775 18.0995 6.20521 18.0222C6.43268 17.9448 6.64187 17.8217 6.81985 17.6603C6.99784 17.499 7.14084 17.3028 7.24003 17.084C7.55503 16.491 7.53403 15.866 7.49803 14.816C7.48003 14.277 7.45803 13.626 7.47603 12.809C7.47986 12.7539 7.47258 12.6986 7.45463 12.6464C7.43668 12.5942 7.40841 12.5462 7.37152 12.5051C7.33463 12.464 7.28986 12.4308 7.23987 12.4073C7.18988 12.3839 7.13569 12.3708 7.08053 12.3687C7.02536 12.3666 6.97034 12.3756 6.91873 12.3953C6.86712 12.4149 6.81997 12.4446 6.7801 12.4828C6.74022 12.521 6.70842 12.5668 6.68659 12.6175C6.66476 12.6682 6.65335 12.7228 6.65303 12.778C6.62303 14.251 6.62303 14.89 6.62303 15.233C6.62303 15.576 6.62303 15.623 6.59303 15.91C6.42503 17.558 5.01803 17.414 4.59103 15.986C4.32766 14.4564 4.28255 12.8972 4.45703 11.355C4.55068 11.0958 4.70387 10.8623 4.90427 10.6732C5.10467 10.484 5.34667 10.3446 5.6108 10.2661C5.87494 10.1876 6.15381 10.1722 6.42498 10.2212C6.69615 10.2701 6.95203 10.3821 7.17203 10.548C8.16392 11.3332 8.91572 12.3809 9.34203 13.572C10.0521 14.6158 10.3229 15.8971 10.096 17.139C10.0093 17.7997 9.80905 18.4405 9.50403 19.033C9.41986 19.18 9.39721 19.3543 9.44103 19.518C9.45803 19.578 9.58803 19.727 9.76603 19.931C10.37 20.625 11.53 21.955 10.72 22.605C9.93103 23.231 8.01003 20.64 8.01003 19.869C8.00803 19.694 8.02003 19.519 8.04703 19.345C8.02304 19.1905 7.93943 19.0516 7.81415 18.9581C7.68888 18.8647 7.53193 18.824 7.37703 18.845C5.15103 19.167 4.94903 19.818 4.66303 20.735C4.63103 20.839 4.59703 20.948 4.55903 21.059C4.53203 21.14 4.50403 21.231 4.47403 21.329C4.31603 21.84 4.10803 22.516 3.72103 22.736C3.59997 22.7916 3.46736 22.8173 3.33432 22.811C3.20127 22.8047 3.07166 22.7666 2.95638 22.6999C2.84109 22.6332 2.74348 22.5399 2.67173 22.4276C2.59998 22.3154 2.55619 22.1876 2.54403 22.055C2.53981 21.0405 2.8115 20.044 3.33003 19.172Z" fill="black"/>
<path fill-rule="evenodd" clip-rule="evenodd" d="M17.159 3.174C13.49 3.174 9.22403 2.285 9.18903 4.914C9.17103 6.329 10.458 6.905 11.868 7.089C15.44 7.555 14.583 6.457 15.012 8.33899C15.843 11.953 17.434 14.036 22.908 12.167C22.9597 12.1499 23.0076 12.1228 23.0487 12.0872C23.0899 12.0516 23.1237 12.0082 23.148 11.9595C23.1724 11.9108 23.1869 11.8578 23.1906 11.8034C23.1944 11.7491 23.1874 11.6946 23.17 11.643C22.987 11.067 22.463 11.541 21.006 11.772C14.572 12.794 17.02 5.894 15.303 5.946C9.71103 6.101 10.104 4.75399 10.88 4.468C11.593 4.206 16.446 4.534 18.742 4.371C18.8357 4.37672 18.9294 4.3601 19.0154 4.32249C19.1014 4.28489 19.1772 4.22738 19.2366 4.15471C19.296 4.08204 19.3372 3.99629 19.3569 3.90453C19.3767 3.81278 19.3743 3.71765 19.35 3.627C19.253 3.177 18.736 3.127 18.013 2.372C17.153 1.465 17.638 0.963995 18.383 1.101C21.428 1.68 23.053 4.932 23.705 4.337C23.781 4.26714 23.8261 4.17004 23.8306 4.06695C23.8351 3.96387 23.7986 3.8632 23.729 3.787C17.948 -2.896 15.041 0.825995 17.159 3.174Z" fill="black"/>
</g>
<defs>
<clipPath id="clip0_1051_8971">
<rect width="24" height="24" fill="white"/>
</clipPath>
</defs>
</svg>
