<svg width="24" height="24" viewBox="0 0 24 24" fill="none" xmlns="http://www.w3.org/2000/svg">
<g clip-path="url(#clip0_1044_5499)">
<path fill-rule="evenodd" clip-rule="evenodd" d="M16.59 9.79001C16.5765 9.60279 16.5396 9.41801 16.48 9.24001C16.32 9.02001 15.94 9.10001 15.9 9.48001C15.875 9.66584 15.875 9.85418 15.9 10.04C16.17 13.04 16.1 13.37 16.53 13.61C16.7006 13.7014 16.8999 13.7233 17.0863 13.6711C17.2727 13.6189 17.4316 13.4967 17.53 13.33C17.7973 12.9147 18.0122 12.468 18.17 12C18.5958 12.643 19.0997 13.2308 19.67 13.75C19.757 13.7991 19.8553 13.8244 19.9552 13.8235C20.0551 13.8226 20.1529 13.7955 20.239 13.7448C20.3251 13.6942 20.3964 13.6218 20.4457 13.535C20.495 13.4482 20.5206 13.3499 20.52 13.25C20.52 13.02 20.52 13.66 20.43 10.67V9.27001C20.38 9.03001 19.89 8.69001 19.76 9.27001C19.7 9.56001 19.58 11.65 19.56 11.95C19.2967 11.5935 19.053 11.223 18.83 10.84C18.7786 10.7508 18.7097 10.6729 18.6273 10.6111C18.5449 10.5493 18.4508 10.5049 18.3507 10.4806C18.2507 10.4563 18.1467 10.4526 18.0452 10.4696C17.9436 10.4867 17.8466 10.5243 17.76 10.58C17.5372 10.7785 17.3569 11.02 17.23 11.29C17.18 11.41 17.09 11.72 16.97 12.04C17.0284 11.2703 16.898 10.4979 16.59 9.79001Z" fill="black"/>
<path fill-rule="evenodd" clip-rule="evenodd" d="M9.69 9.79001C9.67652 9.60279 9.63957 9.41801 9.58 9.24001C9.42 9.00001 9 9.10001 9 9.48001C8.98276 9.65292 8.98276 9.82711 9 10C9.27 13 9.2 13.33 9.63 13.57C9.80061 13.6614 9.99993 13.6833 10.1863 13.6311C10.3727 13.5789 10.5316 13.4567 10.63 13.29C10.8936 12.8853 11.1116 12.4527 11.28 12C11.7007 12.644 12.2014 13.232 12.77 13.75C12.857 13.7991 12.9553 13.8244 13.0552 13.8235C13.1551 13.8226 13.2529 13.7955 13.339 13.7448C13.4251 13.6942 13.4964 13.6218 13.5457 13.535C13.595 13.4482 13.6206 13.3499 13.62 13.25C13.62 13.02 13.62 13.66 13.53 10.67V9.27001C13.53 9.03001 12.99 8.69001 12.86 9.27001C12.8 9.56001 12.68 11.64 12.66 11.95C12.3967 11.5935 12.153 11.223 11.93 10.84C11.8786 10.7508 11.8097 10.6729 11.7273 10.6111C11.6449 10.5493 11.5508 10.5049 11.4507 10.4806C11.3507 10.4563 11.2467 10.4526 11.1452 10.4696C11.0436 10.4867 10.9466 10.5243 10.86 10.58C10.6361 10.7751 10.4585 11.0177 10.34 11.29C10.28 11.41 10.19 11.72 10.07 12.04C10.1284 11.2703 9.998 10.4979 9.69 9.79001Z" fill="black"/>
<path fill-rule="evenodd" clip-rule="evenodd" d="M3.17 9.79001C3.17 9.70001 3.17 9.34001 3.05 9.24001C2.93 9.14001 2.51 9.10001 2.47 9.48001C2.445 9.66584 2.445 9.85418 2.47 10.04C2.73 13.04 2.66 13.37 3.1 13.61C3.27007 13.704 3.47026 13.7273 3.65736 13.6749C3.84446 13.6225 4.00345 13.4986 4.1 13.33C4.37376 12.9169 4.59228 12.4698 4.75 12C5.17583 12.643 5.67966 13.2308 6.25 13.75C6.33669 13.7966 6.43397 13.82 6.53238 13.8179C6.63079 13.8157 6.72697 13.7882 6.81155 13.7378C6.89613 13.6875 6.96623 13.6161 7.01503 13.5306C7.06383 13.4451 7.08965 13.3484 7.09 13.25C7.09 13.03 7.09 13.66 7.01 10.67V9.27001C7.01 9.03001 6.47 8.69001 6.34 9.27001C6.28 9.56001 6.16 11.64 6.14 11.95C5.4 10.95 5.58 11.07 5.4 10.84C5.34863 10.7508 5.27966 10.6729 5.19728 10.6111C5.11489 10.5493 5.02081 10.5049 4.92075 10.4806C4.82068 10.4563 4.71671 10.4526 4.61516 10.4696C4.51361 10.4867 4.41659 10.5243 4.33 10.58C4.11295 10.7813 3.93645 11.0223 3.81 11.29C3.75 11.41 3.66 11.72 3.55 12.04C3.60369 11.2705 3.47344 10.4992 3.17 9.79001Z" fill="black"/>
<path fill-rule="evenodd" clip-rule="evenodd" d="M15.27 5.51C15.27 5.71 12.85 5.25 8.7 5.32C8.99595 4.70063 9.35093 4.11124 9.76 3.56C10 3.14 11 2.47 11.07 2.08C11.14 1.69 10 1.74 9.66 2.1C8.64612 2.943 7.91639 4.07774 7.57 5.35C6.7 5.35 5.87 5.46 5.1 5.55C4.1 5.7 3.41 6.25 4.32 6.41C5.32 6.34 6.39 6.34 7.32 6.41C7.21 6.9 7.12 7.41 7.06 7.84C7.05306 7.92253 7.07648 8.00476 7.12587 8.07125C7.17527 8.13774 7.24723 8.18391 7.32825 8.20109C7.40928 8.21828 7.49379 8.2053 7.56592 8.16459C7.63805 8.12388 7.69284 8.05824 7.72 7.98C7.87181 7.45721 8.05208 6.94311 8.26 6.44L15.43 6.65C15.43 7.05 15.52 7.45 15.57 7.86C15.57 7.95017 15.6058 8.03665 15.6696 8.10041C15.7333 8.16418 15.8198 8.2 15.91 8.2C16.0002 8.2 16.0867 8.16418 16.1504 8.10041C16.2142 8.03665 16.25 7.95017 16.25 7.86C16.25 7.46 16.33 7.07 16.37 6.67H20.27C20.3602 6.67 20.4467 6.63418 20.5104 6.57041C20.5742 6.50665 20.61 6.42017 20.61 6.33C20.61 6.23982 20.5742 6.15334 20.5104 6.08958C20.4467 6.02582 20.3602 5.99 20.27 5.99C19.27 5.99 17.9 5.84 16.42 5.72C16.4476 5.07934 16.3347 4.44039 16.0894 3.84791C15.8442 3.25542 15.4723 2.72371 15 2.29C14.9795 2.25161 14.9509 2.21814 14.9162 2.19191C14.8814 2.16568 14.8414 2.14732 14.7989 2.13811C14.7564 2.1289 14.7123 2.12904 14.6699 2.13855C14.6274 2.14805 14.5875 2.16668 14.5529 2.19314C14.5184 2.21961 14.49 2.25327 14.4698 2.2918C14.4495 2.33033 14.4379 2.3728 14.4357 2.41626C14.4336 2.45973 14.4409 2.50315 14.4571 2.54351C14.4734 2.58387 14.4983 2.62021 14.53 2.65C14.9731 3.54142 15.2251 4.51554 15.27 5.51Z" fill="black"/>
<path fill-rule="evenodd" clip-rule="evenodd" d="M16.92 17.29C16.9907 16.5684 16.9907 15.8416 16.92 15.12C16.92 15.0404 16.8884 14.9641 16.8321 14.9079C16.7759 14.8516 16.6996 14.82 16.62 14.82C16.5404 14.82 16.4641 14.8516 16.4079 14.9079C16.3516 14.9641 16.32 15.0404 16.32 15.12C16.2584 15.8598 16.1312 16.5927 15.94 17.31C13.202 17.4599 10.458 17.4599 7.72 17.31C7 15.4 7.3 14.93 6.83 15C6.79184 15.0037 6.7548 15.015 6.72102 15.0332C6.68725 15.0513 6.6574 15.076 6.63322 15.1058C6.60904 15.1355 6.59101 15.1698 6.58015 15.2065C6.5693 15.2433 6.56585 15.2819 6.57 15.32C6.57733 15.9696 6.6308 16.6179 6.73 17.26C4.88 17.13 3.64 16.88 2.97 16.88C2.3 16.88 2.88 17.77 3.77 17.75C4.77 17.95 5.84 18.14 6.93 18.28C7.19453 19.2637 7.64609 20.1872 8.26 21C8.68 21.57 9.68 22.1 9.8 21.39C9.09532 20.4782 8.5292 19.4673 8.12 18.39C10.5996 18.6558 13.1004 18.6558 15.58 18.39C14.88 20.09 14.88 20.32 14.58 20.89V21C14.58 21.93 15.39 21.67 15.87 20.59C16.2708 19.8574 16.5797 19.0782 16.79 18.27C17.79 18.15 18.51 18.04 19.21 17.89C20.43 17.71 20.88 16.89 20.13 16.89C19.0717 17.1044 17.9986 17.2381 16.92 17.29Z" fill="black"/>
<path fill-rule="evenodd" clip-rule="evenodd" d="M23.9 10.38C23.5372 7.72666 22.3107 5.26663 20.41 3.38001C19.2567 2.5434 18.0358 1.80419 16.76 1.17001C16.6795 1.13291 16.5876 1.12875 16.504 1.15841C16.4205 1.18808 16.3518 1.24921 16.3127 1.32878C16.2735 1.40835 16.267 1.50006 16.2946 1.58436C16.3221 1.66865 16.3815 1.73886 16.46 1.78001C17.6707 2.42119 18.8248 3.16385 19.91 4.00001C21.5966 5.79838 22.65 8.09823 22.91 10.55C23.79 17.74 15.91 25.32 6.84 21.55C2.92 19.92 0.78 17 1 12.37C1.19 6.33001 6.68 0.480008 13.17 1.00001C13.2496 1.00929 13.3296 0.986586 13.3924 0.936889C13.4552 0.887192 13.4957 0.814573 13.505 0.735008C13.5143 0.655443 13.4916 0.575449 13.4419 0.512625C13.3922 0.4498 13.3196 0.409291 13.24 0.400008C2.57 -0.999992 -3.09 11.16 1.75 18.57C3.35 21.03 5.75 22.3 8.59 23.22C16.51 25.67 25 18.49 23.9 10.38Z" fill="black"/>
</g>
<defs>
<clipPath id="clip0_1044_5499">
<rect width="24" height="24" fill="white"/>
</clipPath>
</defs>
</svg>
