<svg width="24" height="24" viewBox="0 0 24 24" fill="none" xmlns="http://www.w3.org/2000/svg">
<g clip-path="url(#clip0_1044_5507)">
<path fill-rule="evenodd" clip-rule="evenodd" d="M19.29 4C19.21 2.17 17.4 2.43 16.82 2.79C16.5382 2.98529 16.3165 3.25545 16.18 3.57C16.0744 3.82872 16.0475 4.11283 16.1027 4.38677C16.1578 4.66071 16.2925 4.91229 16.49 5.11C16.6611 5.3089 16.8728 5.4689 17.1108 5.57929C17.3488 5.68967 17.6076 5.74787 17.87 5.75C18.2825 5.68829 18.6569 5.47448 18.9197 5.15063C19.1825 4.82678 19.3146 4.41633 19.29 4ZM17.79 4.5C17.7082 4.49142 17.629 4.46667 17.5569 4.42718C17.4848 4.3877 17.4213 4.33427 17.37 4.27C17.2753 4.20228 17.2023 4.10847 17.16 4C17.16 4 17.1 3.94 17.11 3.91C17.1337 3.72264 17.21 3.54581 17.33 3.4C17.4019 3.3205 17.4959 3.2642 17.5999 3.23828C17.7039 3.21236 17.8133 3.21799 17.9141 3.25446C18.0149 3.29092 18.1026 3.35657 18.166 3.44304C18.2294 3.52951 18.2656 3.63288 18.27 3.74C18.32 4.09 18.15 4.51 17.79 4.5Z" fill="black"/>
<path fill-rule="evenodd" clip-rule="evenodd" d="M11 5.92001C11.0763 5.9073 11.1504 5.88372 11.22 5.85001C12.12 5.41001 12.04 5.30001 12.04 5.22001C12.04 4.81001 11.1 4.68001 11.04 4.67001C10.9439 4.65468 10.8461 4.65468 10.75 4.67001C10.6578 4.69192 10.5699 4.7291 10.49 4.78001C9.64 5.26001 9.66 5.43001 9.7 5.61001C9.73 6.00001 10.94 5.92001 11 5.92001Z" fill="black"/>
<path fill-rule="evenodd" clip-rule="evenodd" d="M7.15 7.12999C7.20991 7.09544 7.26392 7.05156 7.31 6.99999C7.95 6.29999 7.83 6.18999 7.8 6.11999C7.66 5.76999 6.72 5.99999 6.7 5.99999C6.61046 6.02551 6.52592 6.06609 6.45 6.11999C6.37631 6.17549 6.30921 6.23924 6.25 6.30999C5.61 7.14999 5.86 7.30999 5.92 7.39999C6.13 7.59999 7.13 7.13999 7.15 7.12999Z" fill="black"/>
<path fill-rule="evenodd" clip-rule="evenodd" d="M3.36 11.32C3.59 11.4 3.7 11.32 4.26 10.6C4.31244 10.5305 4.35925 10.4569 4.4 10.38C4.44776 10.3032 4.48161 10.2186 4.5 10.13C4.76 9.13001 4.56 9.05001 4.5 9.00001C4.22 8.83001 3.5 9.49001 3.5 9.57001C3.43531 9.6455 3.38146 9.72965 3.34 9.82001C3.29341 9.91158 3.25975 10.0092 3.24 10.11C3 11.24 3.27 11.29 3.36 11.32Z" fill="black"/>
<path fill-rule="evenodd" clip-rule="evenodd" d="M3.35 14.91C3.35999 14.8203 3.35999 14.7297 3.35 14.64C3.33949 14.5547 3.31937 14.4708 3.29 14.39C2.94 13.39 2.76 13.46 2.67 13.46C2.35 13.46 2.14 14.3 2.11 14.46C2.09495 14.5628 2.09495 14.6672 2.11 14.77C2.1294 14.8697 2.15958 14.9669 2.2 15.06C2.63 16.12 2.89 15.99 2.98 15.97C3.07 15.95 3.29 15.93 3.35 14.91Z" fill="black"/>
<path fill-rule="evenodd" clip-rule="evenodd" d="M4.21 18.4C4.18879 18.337 4.15474 18.2791 4.11 18.23C3.49 17.49 3.31 17.66 3.29 17.66C2.97 17.76 3.01 18.66 3.01 18.66C3.01172 18.7448 3.03588 18.8276 3.08 18.9C3.1148 18.9772 3.1621 19.0482 3.22 19.11C3.85 19.76 4.07 19.68 4.22 19.59C4.37 19.5 4.22 18.42 4.21 18.4Z" fill="black"/>
<path fill-rule="evenodd" clip-rule="evenodd" d="M6.56 21.6C6.44774 21.4802 6.31993 21.3759 6.18 21.29C6.18 21.29 5.1 20.74 4.88 21C4.66 21.26 5.33 22.12 5.35 22.13C5.41967 22.2197 5.5003 22.3004 5.59 22.37C5.68557 22.4342 5.78586 22.491 5.89 22.54C7.02 23.04 7.15 22.72 7.2 22.62C7.25 22.52 7.32 22.36 6.56 21.6Z" fill="black"/>
<path fill-rule="evenodd" clip-rule="evenodd" d="M19.53 19.83C19.4682 19.8885 19.4113 19.9521 19.36 20.02C19.3108 20.0932 19.2673 20.1701 19.23 20.25C18.84 21.2 19.01 21.25 19.08 21.34C19.35 21.59 20.17 20.97 20.19 20.96C20.2661 20.8948 20.3304 20.817 20.38 20.73C20.4384 20.6466 20.4855 20.5558 20.52 20.46C20.89 19.4 20.61 19.32 20.52 19.27C20.43 19.22 20.18 19.2 19.53 19.83Z" fill="black"/>
<path fill-rule="evenodd" clip-rule="evenodd" d="M21.23 14.38C20.99 14.38 20.9 14.38 20.61 15.58C20.61 15.69 20.56 15.8 20.54 15.92C20.52 16.04 20.54 16.15 20.54 16.26C20.54 17.52 20.75 17.48 20.86 17.51C21.23 17.61 21.64 16.67 21.72 16.44C21.7562 16.3121 21.783 16.1818 21.8 16.05C21.8149 15.9171 21.8149 15.7829 21.8 15.65C21.64 14.32 21.35 14.38 21.23 14.38Z" fill="black"/>
<path fill-rule="evenodd" clip-rule="evenodd" d="M21.81 11.41C21.7765 11.2853 21.7296 11.1646 21.67 11.05C21.05 9.86001 20.77 10.05 20.67 10.05C20.57 10.05 20.37 10.24 20.56 11.39C20.5818 11.582 20.6288 11.7703 20.7 11.95C20.7 11.95 21.25 13.16 21.62 13.05C21.74 13.05 21.98 12.97 21.89 11.75C21.8799 11.6334 21.853 11.5189 21.81 11.41Z" fill="black"/>
<path fill-rule="evenodd" clip-rule="evenodd" d="M14.42 6.26C14.5823 6.70976 14.7761 7.14751 15 7.57C15.2602 8.04531 15.5613 8.49702 15.9 8.92C16.4019 9.52179 16.936 10.096 17.5 10.64C17.5291 10.6752 17.5652 10.704 17.606 10.7246C17.6468 10.7452 17.6914 10.757 17.737 10.7594C17.7826 10.7619 17.8282 10.7548 17.871 10.7386C17.9137 10.7225 17.9527 10.6977 17.9853 10.6657C18.0179 10.6338 18.0436 10.5954 18.0606 10.553C18.0777 10.5106 18.0858 10.4652 18.0843 10.4195C18.0829 10.3739 18.072 10.329 18.0523 10.2878C18.0326 10.2465 18.0046 10.2098 17.97 10.18C17.4526 9.63204 16.9715 9.0508 16.53 8.44C16.246 8.04672 16.0046 7.62435 15.81 7.18C15.6274 6.7987 15.4737 6.40426 15.35 6C15.2337 5.58667 15.1468 5.16562 15.09 4.74C15.0694 4.45037 15.0694 4.15963 15.09 3.87C15.0918 3.61455 15.1357 3.36114 15.22 3.12C15.4126 2.49697 15.8282 1.96684 16.3873 1.63105C16.9463 1.29526 17.6095 1.17739 18.25 1.3C18.8911 1.38271 19.4757 1.70961 19.8818 2.21258C20.2879 2.71556 20.4843 3.35583 20.43 4C20.3853 5.0258 20.1794 6.03818 19.82 7C19.4545 7.95554 18.8884 8.82165 18.16 9.54C18.0884 9.60763 18.0466 9.70094 18.0438 9.7994C18.041 9.89785 18.0774 9.99339 18.145 10.065C18.2126 10.1366 18.3059 10.1784 18.4044 10.1812C18.5029 10.184 18.5984 10.1476 18.67 10.08C19.5237 9.32304 20.2056 8.39221 20.67 7.35C21.1136 6.31917 21.3969 5.22653 21.51 4.11C21.6482 3.17075 21.4109 2.21486 20.8494 1.44934C20.2879 0.683824 19.4474 0.170308 18.51 0.020002C17.5818 -0.173551 16.6148 -0.0131212 15.7989 0.46979C14.9829 0.952702 14.377 1.72321 14.1 2.63C14.0032 2.93062 13.9526 3.2442 13.95 3.56C13.9214 3.99389 13.9382 4.42959 14 4.86C14.0998 5.33779 14.2403 5.80616 14.42 6.26Z" fill="black"/>
<path fill-rule="evenodd" clip-rule="evenodd" d="M20.19 14.16C20.2362 13.4285 20.2027 12.6942 20.09 11.97C19.9883 11.4776 19.8236 11.0003 19.6 10.55C19.5806 10.5052 19.5524 10.4647 19.5169 10.4312C19.4814 10.3976 19.4395 10.3716 19.3936 10.3548C19.3478 10.338 19.299 10.3306 19.2503 10.3332C19.2015 10.3358 19.1538 10.3484 19.11 10.37C19.0213 10.4113 18.9526 10.486 18.9189 10.5778C18.8851 10.6697 18.8891 10.7711 18.93 10.86C19.16 11.3556 19.3054 11.8863 19.36 12.43C19.3947 12.9427 19.3947 13.4572 19.36 13.97C18.36 14.09 17.36 14.25 16.36 14.36H16.14C16.1336 13.9921 16.1069 13.6249 16.06 13.26C15.9625 12.5789 15.7983 11.909 15.57 11.26C15.0295 9.77104 14.2566 8.37711 13.28 7.12999C13.2459 7.08891 13.2031 7.05594 13.1546 7.03345C13.1062 7.01097 13.0534 6.99954 13 6.99999C13.0547 6.93837 13.0895 6.8617 13.1 6.77999C13.1027 6.73714 13.0968 6.69419 13.0825 6.65369C13.0683 6.61319 13.046 6.57597 13.0171 6.54425C12.9882 6.51253 12.9532 6.48695 12.9142 6.46903C12.8751 6.45112 12.8329 6.44124 12.79 6.43999C11.3063 6.31386 9.821 6.66416 8.55 7.43999C7.33145 8.24936 6.30699 9.31822 5.55 10.57C4.60264 12.1313 4.218 13.9698 4.46 15.78C4.54951 16.7144 4.85206 17.6158 5.3444 18.4149C5.83673 19.2141 6.50574 19.8898 7.3 20.39C8.56291 21.1013 9.97143 21.5151 11.4184 21.6C12.8653 21.6849 14.3126 21.4387 15.65 20.88C16.9848 20.332 18.1279 19.4018 18.9357 18.2062C19.7434 17.0106 20.1798 15.6029 20.19 14.16ZM14.4 11.63C14.5656 12.2359 14.6992 12.85 14.8 13.47C14.8 13.8 14.87 14.13 14.91 14.47C13.91 14.53 12.97 14.47 11.98 14.47C11.39 14.47 10.79 14.47 10.2 14.4C10.2 14.19 10.2 13.97 10.27 13.76C10.3784 13.0855 10.5253 12.4177 10.71 11.76C11.2 9.95999 12.38 7.04999 12.71 7.52999C13.4601 8.81199 14.0289 10.1918 14.4 11.63ZM9 8.19999C9.85286 7.63644 10.832 7.29288 11.85 7.19999C10.8775 8.49159 10.1024 9.92053 9.55 11.44C9.30394 12.1391 9.1199 12.8586 9 13.59V14.39C7.85 14.3 6.72 14.15 5.6 13.97C5.65524 12.9875 5.93216 12.0302 6.41 11.17C7.04028 9.9987 7.92536 8.98377 9 8.19999ZM5.6 15.69C5.55682 15.3919 5.53343 15.0912 5.53 14.79C6.62 15.06 7.74 15.28 8.88 15.45V15.83C8.9139 17.2658 9.11868 18.6926 9.49 20.08C8.94151 19.9121 8.41458 19.6805 7.92 19.39C7.28231 18.9868 6.74415 18.4444 6.34583 17.8037C5.94751 17.1629 5.69937 16.4403 5.62 15.69H5.6ZM10.3 20.28C10.0381 18.8221 9.93749 17.3399 10 15.86V15.61C10.8 15.69 11.6 15.75 12.4 15.75C13.2 15.75 14.1 15.68 14.93 15.6C15.0002 17.0032 14.9028 18.4098 14.64 19.79C14.6094 19.874 14.6094 19.966 14.64 20.05C13.2456 20.5067 11.7551 20.5861 10.32 20.28H10.3ZM15.45 19.78C15.8743 18.357 16.1096 16.8844 16.15 15.4L16.47 15.34C17.39 15.14 18.29 14.9 19.21 14.7C19.0852 15.7998 18.6741 16.8477 18.0179 17.7391C17.3616 18.6304 16.4831 19.3342 15.47 19.78H15.45Z" fill="black"/>
<path fill-rule="evenodd" clip-rule="evenodd" d="M10.11 22.83L9.79 22.75C9.68022 22.7401 9.56978 22.7401 9.46 22.75C8.24 22.75 8.25 22.95 8.22 23.05C8.12 23.41 9.12 23.87 9.22 23.92C9.34112 23.9699 9.46938 24.0003 9.6 24.01C9.73326 24.0224 9.86753 24.0191 10 24C11.31 23.89 11.26 23.54 11.26 23.42C11.24 23.12 11.12 23.11 10.11 22.83Z" fill="black"/>
<path fill-rule="evenodd" clip-rule="evenodd" d="M13.72 22.59H13.46C13.3735 22.6056 13.2895 22.6325 13.21 22.67C12.21 23.07 12.3 23.24 12.3 23.33C12.3 23.66 13.18 23.82 13.39 23.84C13.4928 23.8549 13.5972 23.8549 13.7 23.84C13.8041 23.8155 13.9048 23.7786 14 23.73C15 23.22 14.89 22.94 14.86 22.85C14.77 22.61 14.63 22.58 13.72 22.59Z" fill="black"/>
<path fill-rule="evenodd" clip-rule="evenodd" d="M17.16 21.75C17.0063 21.7747 16.8556 21.8149 16.71 21.87C16.71 21.87 15.66 22.43 15.71 22.77C15.76 23.11 16.88 23.06 16.9 23.06C17.0127 23.0522 17.1238 23.0286 17.23 22.99C17.3393 22.9579 17.4437 22.9108 17.54 22.85C18.45 22.29 18.44 22.01 18.34 21.85C18.24 21.69 18.22 21.56 17.16 21.75Z" fill="black"/>
</g>
<defs>
<clipPath id="clip0_1044_5507">
<rect width="24" height="24" fill="white"/>
</clipPath>
</defs>
</svg>
